<?xml version="1.0" encoding="UTF-8"?>
<!DOCTYPE svg  PUBLIC '-//W3C//DTD SVG 1.1//EN'  'http://www.w3.org/Graphics/SVG/1.1/DTD/svg11.dtd'>
<svg width="1520pt" height="800pt" version="1.1" viewBox="0 0 1520 800" xmlns="http://www.w3.org/2000/svg" xmlns:xlink="http://www.w3.org/1999/xlink">
<defs>
<style type="text/css">*{stroke-linecap:butt;stroke-linejoin:round;}</style>
</defs>
<path d="m0 800h1520v-800h-1520z" fill="#fff"/>
<g fill="none" stroke="#000">
<path d="m734.91 36.364-410.33 146.75" clip-path="url(#a)"/>
<path d="m734.91 36.364 166.63 584.14" clip-path="url(#a)"/>
<path d="m734.91 36.364 144.33 293.13" clip-path="url(#a)"/>
<path d="m734.91 36.364 99.364 584.14" clip-path="url(#a)"/>
<path d="m324.59 183.12-246.15 437.39" clip-path="url(#a)"/>
<path d="m324.59 183.12-221.86 437.39" clip-path="url(#a)"/>
<path d="m324.59 183.12-164.17 146.38" clip-path="url(#a)"/>
<path d="m324.59 183.12 196.23 146.38" clip-path="url(#a)"/>
<path d="m324.59 183.12 414.39 292.27" clip-path="url(#a)"/>
<path d="m324.59 183.12-8.8424 437.39" clip-path="url(#a)"/>
<path d="m324.59 183.12 30.398 437.39" clip-path="url(#a)"/>
<path d="m901.55 620.5v143.13" clip-path="url(#a)"/>
<path d="m879.24 329.5 92.378 291.01" clip-path="url(#a)"/>
<path d="m879.24 329.5 222.71 145.88" clip-path="url(#a)"/>
<path d="m879.24 329.5 485.72 145.88" clip-path="url(#a)"/>
<path d="m879.24 329.5-800.81 291.01" clip-path="url(#a)" stroke-dasharray="3.7,1.6"/>
<path d="m971.62 620.5v143.13" clip-path="url(#a)"/>
<path d="m1102 475.38-57.459 145.12" clip-path="url(#a)"/>
<path d="m1102 475.38 57.459 145.12" clip-path="url(#a)"/>
<path d="m1365 475.38-85.021 145.12" clip-path="url(#a)"/>
<path d="m1365 475.38-0.93429 145.12" clip-path="url(#a)"/>
<path d="m1365 475.38 85.955 145.12" clip-path="url(#a)"/>
<path d="m1279.9 620.5v143.13" clip-path="url(#a)"/>
<path d="m1364 620.5v143.13" clip-path="url(#a)"/>
<path d="m1044.5 620.5v143.13" clip-path="url(#a)"/>
<path d="m1159.4 620.5-39.24 143.13" clip-path="url(#a)"/>
<path d="m1159.4 620.5 39.24 143.13" clip-path="url(#a)"/>
<path d="m78.434 620.5-9.3429 143.13" clip-path="url(#a)"/>
<path d="m78.434 620.5-0.93429 143.13" clip-path="url(#a)"/>
<path d="m78.434 620.5 10.277 143.13" clip-path="url(#a)"/>
<path d="m102.73 620.5v143.13" clip-path="url(#a)"/>
<path d="m160.42 329.5-40.875 291.01" clip-path="url(#a)"/>
<path d="m160.42 329.5-21.255 291.01" clip-path="url(#a)"/>
<path d="m160.42 329.5 60.963 145.88" clip-path="url(#a)"/>
<path d="m160.42 329.5 1.1679 291.01" clip-path="url(#a)"/>
<path d="m520.82 329.5-123.79 291.01" clip-path="url(#a)"/>
<path d="m520.82 329.5-4.6715 145.88" clip-path="url(#a)"/>
<path d="m520.82 329.5 128.47 291.01" clip-path="url(#a)"/>
<path d="m738.98 475.38-30.832 145.12" clip-path="url(#a)"/>
<path d="m738.98 475.38 30.832 145.12" clip-path="url(#a)"/>
<path d="m708.15 620.5v143.13" clip-path="url(#a)"/>
<path d="m769.81 620.5v143.13" clip-path="url(#a)"/>
<path d="m397.03 620.5v143.13" clip-path="url(#a)"/>
<path d="m516.15 475.38-74.276 145.12" clip-path="url(#a)"/>
<path d="m516.15 475.38-26.627 145.12" clip-path="url(#a)"/>
<path d="m516.15 475.38 23.824 145.12" clip-path="url(#a)"/>
<path d="m516.15 475.38 77.079 145.12" clip-path="url(#a)"/>
<path d="m649.29 620.5v143.13" clip-path="url(#a)"/>
<path d="m441.87 620.5v143.13" clip-path="url(#a)"/>
<path d="m489.52 620.5v143.13" clip-path="url(#a)"/>
<path d="m539.97 620.5v143.13" clip-path="url(#a)"/>
<path d="m593.23 620.5v143.13" clip-path="url(#a)"/>
<path d="m119.54 620.5v143.13" clip-path="url(#a)"/>
<path d="m139.16 620.5v143.13" clip-path="url(#a)"/>
<path d="m221.38 475.38-34.569 145.12" clip-path="url(#a)"/>
<path d="m221.38 475.38 41.109 145.12" clip-path="url(#a)"/>
<path d="m221.38 475.38-6.54 145.12" clip-path="url(#a)"/>
<path d="m161.59 620.5v143.13" clip-path="url(#a)"/>
<path d="m186.81 620.5v143.13" clip-path="url(#a)"/>
<path d="m262.49 620.5-16.817 143.13" clip-path="url(#a)"/>
<path d="m262.49 620.5 16.817 143.13" clip-path="url(#a)"/>
<path d="m214.84 620.5v143.13" clip-path="url(#a)"/>
<path d="m315.74 620.5v143.13" clip-path="url(#a)"/>
<path d="m354.98 620.5v143.13" clip-path="url(#a)"/>
<path d="m834.28 620.5v143.13" clip-path="url(#a)"/>
<path d="m1450.9 620.5v143.13" clip-path="url(#a)"/>
</g>
<path d="m529.03 116.66 5.6649-2.026q2.2598-0.80822 1.4516-3.068l-2.6073-7.2903q-0.80822-2.2598-3.068-1.4516l-5.6649 2.026q-2.2598 0.80822-1.4516 3.068l2.6073 7.2903q0.80822 2.2598 3.068 1.4516z" clip-path="url(#a)" fill="#fff" stroke="#fff"/>
<g clip-path="url(#a)">
<defs>
<path id="al" d="m9.8125 72.906h9.8594v-29.891h35.844v29.891h9.8594v-72.906h-9.8594v34.719h-35.844v-34.719h-9.8594z"/>
</defs>
<g transform="translate(527.66 112.83) rotate(-19.679) scale(.08 -.08)">
<use xlink:href="#al"/>
</g>
</g>
<path d="m811.59 328.01 1.2228 4.2865q0.65837 2.3079 2.9663 1.6496l7.4455-2.1239q2.3079-0.65837 1.6496-2.9663l-1.2228-4.2865q-0.65837-2.3079-2.9663-1.6496l-7.4455 2.1239q-2.3079 0.65837-1.6496 2.9663z" clip-path="url(#a)" fill="#fff" stroke="#fff"/>
<g clip-path="url(#a)">
<defs>
<path id="as" d="m9.8125 72.906h9.8594v-64.609h35.5v-8.2969h-45.359z"/>
</defs>
<g transform="translate(815.49 326.9) rotate(74.079) scale(.08 -.08)">
<use xlink:href="#as"/>
</g>
</g>
<path d="m800.12 183 2.6575 5.3975q1.0601 2.1532 3.2133 1.093l6.9462-3.42q2.1532-1.0601 1.093-3.2133l-2.6575-5.3975q-1.0601-2.1532-3.2133-1.093l-6.9462 3.42q-2.1532 1.0601-1.093 3.2133z" clip-path="url(#a)" fill="#fff" stroke="#fff"/>
<g clip-path="url(#a)">
<g transform="translate(803.77 181.21) rotate(63.786) scale(.08 -.08)">
<use xlink:href="#al"/>
</g>
</g>
<path d="m777.92 326.6 0.98185 5.7721q0.40247 2.366 2.7685 1.9635l7.6329-1.2984q2.366-0.40247 1.9635-2.7685l-0.98185-5.7721q-0.40247-2.366-2.7685-1.9635l-7.6329 1.2984q-2.366 0.40247-1.9635 2.7685z" clip-path="url(#a)" fill="#fff" stroke="#fff"/>
<g clip-path="url(#a)">
<defs>
<path id="r" d="m8.6875 72.906h9.9219v-44.297q0-11.719 4.2344-16.875 4.25-5.1406 13.781-5.1406 9.4688 0 13.719 5.1406 4.25 5.1562 4.25 16.875v44.297h9.9062v-45.516q0-14.25-7.0625-21.531-7.0469-7.2812-20.812-7.2812-13.828 0-20.891 7.2812-7.0469 7.2812-7.0469 21.531z"/>
</defs>
<g transform="translate(781.93 325.92) rotate(80.346) scale(.08 -.08)">
<use xlink:href="#r"/>
</g>
</g>
<path d="m205.63 407.27 2.684-4.7691q1.1771-2.0915-0.91447-3.2686l-6.7474-3.7973q-2.0915-1.1771-3.2686 0.91447l-2.684 4.7691q-1.1771 2.0915 0.91447 3.2686l6.7474 3.7973q2.0915 1.1771 3.2686-0.91447z" clip-path="url(#a)" fill="#fff" stroke="#fff"/>
<g clip-path="url(#a)">
<defs>
<path id="u" d="m34.188 63.188-13.391-36.281h26.812zm-5.5781 9.7188h11.188l27.781-72.906h-10.25l-6.6406 18.703h-32.859l-6.6406-18.703h-10.406z"/>
</defs>
<g transform="translate(202.09 405.28) rotate(-60.63) scale(.08 -.08)">
<use xlink:href="#u"/>
</g>
</g>
<path d="m218.16 406.8 2.1821-4.302q1.0857-2.1404-1.0547-3.2261l-6.905-3.5025q-2.1404-1.0857-3.2261 1.0547l-2.1821 4.302q-1.0857 2.1404 1.0547 3.2261l6.905 3.5025q2.1404 1.0857 3.2261-1.0547z" clip-path="url(#a)" fill="#fff" stroke="#fff"/>
<g clip-path="url(#a)">
<defs>
<path id="ak" d="m19.672 64.797v-27.391h12.406q6.8906 0 10.641 3.5625 3.7656 3.5625 3.7656 10.156 0 6.5469-3.7656 10.109-3.75 3.5625-10.641 3.5625zm-9.8594 8.1094h22.266q12.266 0 18.531-5.5469 6.2812-5.5469 6.2812-16.234 0-10.797-6.2812-16.312-6.2656-5.5156-18.531-5.5156h-12.406v-29.297h-9.8594z"/>
</defs>
<g transform="translate(214.53 404.96) rotate(-63.104) scale(.08 -.08)">
<use xlink:href="#ak"/>
</g>
</g>
<path d="m244.63 262.81 4.0846-3.642q1.7913-1.5972 0.19409-3.3886l-5.1527-5.7789q-1.5972-1.7913-3.3886-0.19409l-4.0846 3.642q-1.7913 1.5972-0.19409 3.3886l5.1527 5.7789q1.5972 1.7913 3.3886 0.19409z" clip-path="url(#a)" fill="#fff" stroke="#fff"/>
<g clip-path="url(#a)">
<g transform="translate(241.93 259.77) rotate(-41.722) scale(.08 -.08)">
<use xlink:href="#u"/>
</g>
</g>
<path d="m416.76 259.7 4.3865 3.2721q1.9237 1.435 3.3587-0.48873l4.6294-6.206q1.435-1.9237-0.48873-3.3587l-4.3865-3.2721q-1.9237-1.435-3.3587 0.48873l-4.6294 6.206q-1.435 1.9237 0.48873 3.3587z" clip-path="url(#a)" fill="#fff" stroke="#fff"/>
<g clip-path="url(#a)">
<g transform="translate(419.19 256.44) rotate(36.721) scale(.08 -.08)">
<use xlink:href="#u"/>
</g>
</g>
<path d="m526.17 332.96 3.993 2.8162q1.9613 1.3833 3.3445-0.57801l4.4625-6.3271q1.3833-1.9613-0.57801-3.3445l-3.993-2.8162q-1.9613-1.3833-3.3445 0.57801l-4.4625 6.3271q-1.3833 1.9613 0.57801 3.3445z" clip-path="url(#a)" fill="#fff" stroke="#fff"/>
<g clip-path="url(#a)">
<defs>
<path id="k" d="m-0.29688 72.906h61.672v-8.3125h-25.875v-64.594h-9.9062v64.594h-25.891z"/>
</defs>
<g transform="translate(528.51 329.64) rotate(35.195) scale(.08 -.08)">
<use xlink:href="#k"/>
</g>
</g>
<path d="m326.38 404.86 0.11834-5.8538q0.04851-2.3995-2.351-2.448l-7.7409-0.15649q-2.3995-0.048509-2.448 2.351l-0.11834 5.8538q-0.048509 2.3995 2.351 2.448l7.7409 0.15649q2.3995 0.048509 2.448-2.351z" clip-path="url(#a)" fill="#fff" stroke="#fff"/>
<g clip-path="url(#a)">
<g transform="translate(322.31 404.78) rotate(-88.842) scale(.08 -.08)">
<use xlink:href="#r"/>
</g>
</g>
<path d="m333.33 399.32 0.40593 5.8409q0.1664 2.3942 2.5606 2.2278l7.7239-0.5368q2.3942-0.16639 2.2278-2.5606l-0.40593-5.8409q-0.1664-2.3942-2.5606-2.2278l-7.7239 0.5368q-2.3942 0.1664-2.2278 2.5606z" clip-path="url(#a)" fill="#fff" stroke="#fff"/>
<g clip-path="url(#a)">
<g transform="translate(337.38 399.04) rotate(86.024) scale(.08 -.08)">
<use xlink:href="#r"/>
</g>
</g>
<path d="m895.27 675.17v33.808q0 2.4 2.4 2.4h7.7425q2.4 0 2.4-2.4v-33.808q0-2.4-2.4-2.4h-7.7425q-2.4 0-2.4 2.4z" clip-path="url(#a)" fill="#fff" stroke="#fff"/>
<g clip-path="url(#a)">
<defs>
<path id="d" d="m56.203 29.594v-4.3906h-41.312q0.59375-9.2812 5.5938-14.141t13.938-4.8594q5.1719 0 10.031 1.2656t9.6562 3.8125v-8.5q-4.8438-2.0469-9.9219-3.125t-10.297-1.0781q-13.094 0-20.734 7.6094-7.6406 7.625-7.6406 20.625 0 13.422 7.25 21.297 7.25 7.8906 19.562 7.8906 11.031 0 17.453-7.1094 6.4219-7.0938 6.4219-19.297zm-8.9844 2.6406q-0.09375 7.3594-4.125 11.75-4.0312 4.4062-10.672 4.4062-7.5156 0-12.031-4.25t-5.2031-11.969z"/>
<path id="f" d="m41.109 46.297q-1.5156 0.875-3.2969 1.2812-1.7812 0.42188-3.9219 0.42188-7.625 0-11.703-4.9531t-4.0781-14.234v-28.812h-9.0312v54.688h9.0312v-8.5q2.8438 4.9844 7.375 7.3906 4.5469 2.4219 11.047 2.4219 0.92188 0 2.0469-0.125 1.125-0.10938 2.4844-0.35938z"/>
<path id="l" d="m52 44.188q3.375 6.0625 8.0625 8.9375t11.031 2.875q8.5469 0 13.188-5.9844 4.6406-5.9688 4.6406-17v-33.016h-9.0312v32.719q0 7.8594-2.7969 11.656-2.7812 3.8125-8.4844 3.8125-6.9844 0-11.047-4.6406-4.0469-4.625-4.0469-12.641v-30.906h-9.0312v32.719q0 7.9062-2.7812 11.688t-8.5938 3.7812q-6.8906 0-10.953-4.6562-4.0469-4.6562-4.0469-12.625v-30.906h-9.0312v54.688h9.0312v-8.5q3.0781 5.0312 7.375 7.4219t10.203 2.3906q5.9688 0 10.141-3.0312 4.1719-3.0156 6.1719-8.7812z"/>
<path id="g" d="m9.4219 54.688h8.9844v-54.688h-8.9844zm0 21.297h8.9844v-11.391h-8.9844z"/>
<path id="e" d="m54.891 33.016v-33.016h-8.9844v32.719q0 7.7656-3.0312 11.609-3.0312 3.8594-9.0781 3.8594-7.2812 0-11.484-4.6406-4.2031-4.625-4.2031-12.641v-30.906h-9.0312v54.688h9.0312v-8.5q3.2344 4.9375 7.5938 7.375 4.375 2.4375 10.094 2.4375 9.4219 0 14.25-5.8281 4.8438-5.8281 4.8438-17.156z"/>
<path id="j" d="m34.281 27.484q-10.891 0-15.094-2.4844t-4.2031-8.5q0-4.7812 3.1562-7.5938 3.1562-2.7969 8.5625-2.7969 7.4844 0 12 5.2969t4.5156 14.078v2zm17.922 3.7188v-31.203h-8.9844v8.2969q-3.0781-4.9688-7.6719-7.3438t-11.234-2.375q-8.3906 0-13.359 4.7188-4.9531 4.7188-4.9531 12.625 0 9.2188 6.1719 13.906 6.1875 4.6875 18.438 4.6875h12.609v0.89062q0 6.2031-4.0781 9.5938t-11.453 3.3906q-4.6875 0-9.1406-1.125-4.4375-1.125-8.5312-3.375v8.3125q4.9219 1.9062 9.5625 2.8438 4.6406 0.95312 9.0312 0.95312 11.875 0 17.734-6.1562 5.8594-6.1406 5.8594-18.641z"/>
<path id="i" d="m9.4219 75.984h8.9844v-75.984h-8.9844z"/>
</defs>
<g transform="translate(899.34 675.17) rotate(90) scale(.08 -.08)">
<use xlink:href="#k"/>
<use x="44.083984" xlink:href="#d"/>
<use x="105.607422" xlink:href="#f"/>
<use x="144.970703" xlink:href="#l"/>
<use x="242.382812" xlink:href="#g"/>
<use x="270.166016" xlink:href="#e"/>
<use x="333.544922" xlink:href="#j"/>
<use x="394.824219" xlink:href="#i"/>
</g>
</g>
<path d="m918.72 474.6 1.4595 4.5977q0.72615 2.2875 3.0137 1.5614l7.3796-2.3426q2.2875-0.72615 1.5614-3.0137l-1.4595-4.5977q-0.72615-2.2875-3.0137-1.5614l-7.3796 2.3426q-2.2875 0.72615-1.5614 3.0137z" clip-path="url(#a)" fill="#fff" stroke="#fff"/>
<g clip-path="url(#a)">
<g transform="translate(922.59 473.37) rotate(72.388) scale(.08 -.08)">
<use xlink:href="#ak"/>
</g>
</g>
<path d="m984.87 406.19 4.5778 2.9986q2.0076 1.3151 3.3227-0.69256l4.2425-6.4767q1.3151-2.0076-0.69256-3.3227l-4.5778-2.9986q-2.0076-1.3151-3.3227 0.69256l-4.2425 6.4767q-1.3151 2.0076 0.69256 3.3227z" clip-path="url(#a)" fill="#fff" stroke="#fff"/>
<g clip-path="url(#a)">
<g transform="translate(987.1 402.79) rotate(33.226) scale(.08 -.08)">
<use xlink:href="#u"/>
</g>
</g>
<path d="m1118 407.74 4.6797 1.4056q2.2986 0.69037 2.9889-1.6082l2.2272-7.4153q0.69037-2.2986-1.6082-2.9889l-4.6797-1.4056q-2.2986-0.69037-2.9889 1.6082l-2.2272 7.4153q-0.69037 2.2986 1.6082 2.9889z" clip-path="url(#a)" fill="#fff" stroke="#fff"/>
<g clip-path="url(#a)">
<g transform="translate(1119.1 403.85) rotate(16.718) scale(.08 -.08)">
<use xlink:href="#k"/>
</g>
</g>
<path d="m478.41 481.83 5.1434-1.8691q2.2557-0.8197 1.436-3.0754l-2.6444-7.2769q-0.8197-2.2557-3.0754-1.436l-5.1434 1.8691q-2.2557 0.8197-1.436 3.0754l2.6444 7.2769q0.8197 2.2557 3.0754 1.436z" clip-path="url(#a)" fill="#fff" stroke="#fff"/>
<g clip-path="url(#a)">
<g transform="translate(477.02 478.01) rotate(-19.971) scale(.08 -.08)">
<use xlink:href="#u"/>
</g>
</g>
<path d="m965.35 675.17v33.808q0 2.4 2.4 2.4h7.7425q2.4 0 2.4-2.4v-33.808q0-2.4-2.4-2.4h-7.7425q-2.4 0-2.4 2.4z" clip-path="url(#a)" fill="#fff" stroke="#fff"/>
<g clip-path="url(#a)">
<g transform="translate(969.41 675.17) rotate(90) scale(.08 -.08)">
<use xlink:href="#k"/>
<use x="44.083984" xlink:href="#d"/>
<use x="105.607422" xlink:href="#f"/>
<use x="144.970703" xlink:href="#l"/>
<use x="242.382812" xlink:href="#g"/>
<use x="270.166016" xlink:href="#e"/>
<use x="333.544922" xlink:href="#j"/>
<use x="394.824219" xlink:href="#i"/>
</g>
</g>
<path d="m1078 552.84 2.0463-5.1684q0.88351-2.2315-1.348-3.115l-7.1988-2.8502q-2.2315-0.88351-3.115 1.348l-2.0463 5.1684q-0.88351 2.2315 1.348 3.115l7.1988 2.8502q2.2315 0.88351 3.115-1.348z" clip-path="url(#a)" fill="#fff" stroke="#fff"/>
<g clip-path="url(#a)">
<defs>
<path id="s" d="m44.391 34.188q3.1719-1.0781 6.1719-4.5938t6.0312-9.6719l10.016-19.922h-10.609l-9.3125 18.703q-3.625 7.3281-7.0156 9.7188t-9.25 2.3906h-10.75v-30.812h-9.8594v72.906h22.266q12.5 0 18.656-5.2344 6.1562-5.2188 6.1562-15.766 0-6.8906-3.2031-11.438-3.2031-4.5312-9.2969-6.2812zm-24.719 30.609v-25.875h12.406q7.125 0 10.766 3.2969t3.6406 9.6875-3.6406 9.6406-10.766 3.25z"/>
</defs>
<g transform="translate(1074.3 551.34) rotate(-68.4) scale(.08 -.08)">
<use xlink:href="#s"/>
</g>
</g>
<path d="m1123.8 547.65 2.0565 5.194q0.88351 2.2315 3.115 1.348l7.1988-2.8502q2.2315-0.88351 1.348-3.115l-2.0565-5.194q-0.88351-2.2315-3.115-1.348l-7.1988 2.8502q-2.2315 0.88351-1.348 3.115z" clip-path="url(#a)" fill="#fff" stroke="#fff"/>
<g clip-path="url(#a)">
<defs>
<path id="p" d="m64.406 67.281v-10.391q-4.9844 4.6406-10.625 6.9219-5.6406 2.2969-11.984 2.2969-12.5 0-19.141-7.6406t-6.6406-22.094q0-14.406 6.6406-22.047t19.141-7.6406q6.3438 0 11.984 2.2969t10.625 6.9375v-10.312q-5.1719-3.5156-10.969-5.2812-5.7812-1.75-12.219-1.75-16.562 0-26.094 10.125-9.5156 10.141-9.5156 27.672 0 17.578 9.5156 27.703 9.5312 10.141 26.094 10.141 6.5312 0 12.312-1.7344 5.7969-1.7344 10.875-5.2031z"/>
</defs>
<g transform="translate(1127.6 546.16) rotate(68.4) scale(.08 -.08)">
<use xlink:href="#p"/>
</g>
</g>
<path d="m1326.4 553.51 2.8099-4.7963q1.2132-2.0708-0.85762-3.284l-6.6805-3.9138q-2.0708-1.2132-3.284 0.85762l-2.8099 4.7963q-1.2132 2.0708 0.85762 3.284l6.6805 3.9138q2.0708 1.2132 3.284-0.85762z" clip-path="url(#a)" fill="#fff" stroke="#fff"/>
<g clip-path="url(#a)">
<g transform="translate(1322.9 551.46) rotate(-59.636) scale(.08 -.08)">
<use xlink:href="#s"/>
</g>
</g>
<path d="m1370.7 550.78 0.035963-5.5861q0.015451-2.4-2.3845-2.4154l-7.7423-0.049845q-2.4-0.01545-2.4154 2.3845l-0.035963 5.5861q-0.015451 2.4 2.3845 2.4154l7.7423 0.049845q2.4 0.01545 2.4154-2.3845z" clip-path="url(#a)" fill="#fff" stroke="#fff"/>
<g clip-path="url(#a)">
<g transform="translate(1366.7 550.75) rotate(-89.631) scale(.08 -.08)">
<use xlink:href="#p"/>
</g>
</g>
<path d="m1401 548.62 2.9838 5.0377q1.2231 2.065 3.288 0.84192l6.6617-3.9456q2.065-1.2231 0.84192-3.288l-2.9838-5.0377q-1.2231-2.065-3.288-0.84192l-6.6617 3.9456q-2.065 1.2231-0.84191 3.288z" clip-path="url(#a)" fill="#fff" stroke="#fff"/>
<g clip-path="url(#a)">
<g transform="translate(1404.5 546.55) rotate(59.362) scale(.08 -.08)">
<use xlink:href="#r"/>
</g>
</g>
<path d="m1273.7 675.17v33.808q0 2.4 2.4 2.4h7.7425q2.4 0 2.4-2.4v-33.808q0-2.4-2.4-2.4h-7.7425q-2.4 0-2.4 2.4z" clip-path="url(#a)" fill="#fff" stroke="#fff"/>
<g clip-path="url(#a)">
<g transform="translate(1277.7 675.17) rotate(90) scale(.08 -.08)">
<use xlink:href="#k"/>
<use x="44.083984" xlink:href="#d"/>
<use x="105.607422" xlink:href="#f"/>
<use x="144.970703" xlink:href="#l"/>
<use x="242.382812" xlink:href="#g"/>
<use x="270.166016" xlink:href="#e"/>
<use x="333.544922" xlink:href="#j"/>
<use x="394.824219" xlink:href="#i"/>
</g>
</g>
<path d="m1357.7 675.17v33.808q0 2.4 2.4 2.4h7.7425q2.4 0 2.4-2.4v-33.808q0-2.4-2.4-2.4h-7.7425q-2.4 0-2.4 2.4z" clip-path="url(#a)" fill="#fff" stroke="#fff"/>
<g clip-path="url(#a)">
<g transform="translate(1361.8 675.17) rotate(90) scale(.08 -.08)">
<use xlink:href="#k"/>
<use x="44.083984" xlink:href="#d"/>
<use x="105.607422" xlink:href="#f"/>
<use x="144.970703" xlink:href="#l"/>
<use x="242.382812" xlink:href="#g"/>
<use x="270.166016" xlink:href="#e"/>
<use x="333.544922" xlink:href="#j"/>
<use x="394.824219" xlink:href="#i"/>
</g>
</g>
<path d="m1038.2 675.17v33.808q0 2.4 2.4 2.4h7.7425q2.4 0 2.4-2.4v-33.808q0-2.4-2.4-2.4h-7.7425q-2.4 0-2.4 2.4z" clip-path="url(#a)" fill="#fff" stroke="#fff"/>
<g clip-path="url(#a)">
<g transform="translate(1042.3 675.17) rotate(90) scale(.08 -.08)">
<use xlink:href="#k"/>
<use x="44.083984" xlink:href="#d"/>
<use x="105.607422" xlink:href="#f"/>
<use x="144.970703" xlink:href="#l"/>
<use x="242.382812" xlink:href="#g"/>
<use x="270.166016" xlink:href="#e"/>
<use x="333.544922" xlink:href="#j"/>
<use x="394.824219" xlink:href="#i"/>
</g>
</g>
<path d="m1141.4 710.03 8.9386-32.604q0.63455-2.3146-1.68-2.9491l-7.467-2.0471q-2.3146-0.63456-2.9491 1.68l-8.9386 32.604q-0.63456 2.3146 1.68 2.9491l7.467 2.0471q2.3146 0.63456 2.9491-1.68z" clip-path="url(#a)" fill="#fff" stroke="#fff"/>
<g clip-path="url(#a)">
<g transform="translate(1137.4 708.96) rotate(-74.669) scale(.08 -.08)">
<use xlink:href="#k"/>
<use x="44.083984" xlink:href="#d"/>
<use x="105.607422" xlink:href="#f"/>
<use x="144.970703" xlink:href="#l"/>
<use x="242.382812" xlink:href="#g"/>
<use x="270.166016" xlink:href="#e"/>
<use x="333.544922" xlink:href="#j"/>
<use x="394.824219" xlink:href="#i"/>
</g>
</g>
<path d="m1168.5 677.43 8.9386 32.604q0.63455 2.3146 2.9491 1.68l7.467-2.0471q2.3146-0.63456 1.68-2.9491l-8.9386-32.604q-0.63456-2.3146-2.9491-1.68l-7.467 2.0471q-2.3146 0.63456-1.68 2.9491z" clip-path="url(#a)" fill="#fff" stroke="#fff"/>
<g clip-path="url(#a)">
<g transform="translate(1172.4 676.35) rotate(74.669) scale(.08 -.08)">
<use xlink:href="#k"/>
<use x="44.083984" xlink:href="#d"/>
<use x="105.607422" xlink:href="#f"/>
<use x="144.970703" xlink:href="#l"/>
<use x="242.382812" xlink:href="#g"/>
<use x="270.166016" xlink:href="#e"/>
<use x="333.544922" xlink:href="#j"/>
<use x="394.824219" xlink:href="#i"/>
</g>
</g>
<path d="m78.919 709.35 2.2021-33.736q0.15633-2.3949-2.2386-2.5512l-7.7261-0.50432q-2.3949-0.15633-2.5512 2.2386l-2.2021 33.736q-0.15633 2.3949 2.2386 2.5512l7.7261 0.50432q2.3949 0.15633 2.5512-2.2386z" clip-path="url(#a)" fill="#fff" stroke="#fff"/>
<g clip-path="url(#a)">
<g transform="translate(74.864 709.08) rotate(-86.265) scale(.08 -.08)">
<use xlink:href="#k"/>
<use x="44.083984" xlink:href="#d"/>
<use x="105.607422" xlink:href="#f"/>
<use x="144.970703" xlink:href="#l"/>
<use x="242.382812" xlink:href="#g"/>
<use x="270.166016" xlink:href="#e"/>
<use x="333.544922" xlink:href="#j"/>
<use x="394.824219" xlink:href="#i"/>
</g>
</g>
<path d="m84.127 709.01 0.22067-33.807q0.015666-2.3999-2.3843-2.4156l-7.7423-0.050537q-2.3999-0.015666-2.4156 2.3843l-0.22067 33.807q-0.015665 2.3999 2.3843 2.4156l7.7423 0.050538q2.3999 0.015666 2.4156-2.3843z" clip-path="url(#a)" fill="#fff" stroke="#fff"/>
<g clip-path="url(#a)">
<g transform="translate(80.064 708.99) rotate(-89.626) scale(.08 -.08)">
<use xlink:href="#k"/>
<use x="44.083984" xlink:href="#d"/>
<use x="105.607422" xlink:href="#f"/>
<use x="144.970703" xlink:href="#l"/>
<use x="242.382812" xlink:href="#g"/>
<use x="270.166016" xlink:href="#e"/>
<use x="333.544922" xlink:href="#j"/>
<use x="394.824219" xlink:href="#i"/>
</g>
</g>
<path d="m76.107 675.66 2.4212 33.721q0.17188 2.3938 2.5657 2.222l7.7226-0.5545q2.3938-0.17188 2.222-2.5657l-2.4212-33.721q-0.17188-2.3938-2.5657-2.222l-7.7226 0.5545q-2.3938 0.17188-2.222 2.5657z" clip-path="url(#a)" fill="#fff" stroke="#fff"/>
<g clip-path="url(#a)">
<g transform="translate(80.16 675.37) rotate(85.893) scale(.08 -.08)">
<use xlink:href="#k"/>
<use x="44.083984" xlink:href="#d"/>
<use x="105.607422" xlink:href="#f"/>
<use x="144.970703" xlink:href="#l"/>
<use x="242.382812" xlink:href="#g"/>
<use x="270.166016" xlink:href="#e"/>
<use x="333.544922" xlink:href="#j"/>
<use x="394.824219" xlink:href="#i"/>
</g>
</g>
<path d="m96.454 675.17v33.808q0 2.4 2.4 2.4h7.7425q2.4 0 2.4-2.4v-33.808q0-2.4-2.4-2.4h-7.7425q-2.4 0-2.4 2.4z" clip-path="url(#a)" fill="#fff" stroke="#fff"/>
<g clip-path="url(#a)">
<g transform="translate(100.52 675.17) rotate(90) scale(.08 -.08)">
<use xlink:href="#k"/>
<use x="44.083984" xlink:href="#d"/>
<use x="105.607422" xlink:href="#f"/>
<use x="144.970703" xlink:href="#l"/>
<use x="242.382812" xlink:href="#g"/>
<use x="270.166016" xlink:href="#e"/>
<use x="333.544922" xlink:href="#j"/>
<use x="394.824219" xlink:href="#i"/>
</g>
</g>
<path d="m145.75 478.99 0.87596-6.2363q0.33383-2.3767-2.0428-2.7105l-7.6672-1.0769q-2.3767-0.33383-2.7105 2.0428l-0.87596 6.2363q-0.33383 2.3767 2.0428 2.7105l7.6672 1.0769q2.3767 0.33383 2.7105-2.0428z" clip-path="url(#a)" fill="#fff" stroke="#fff"/>
<g clip-path="url(#a)">
<defs>
<path id="aq" d="m39.406 66.219q-10.75 0-17.078-8.0156-6.3125-8-6.3125-21.828 0-13.766 6.3125-21.781 6.3281-8 17.078-8 10.734 0 17.016 8 6.2812 8.0156 6.2812 21.781 0 13.828-6.2812 21.828-6.2812 8.0156-17.016 8.0156zm13.812-64.906 13-14.203h-11.922l-10.797 11.672q-1.6094-0.09375-2.4688-0.14062-0.84375-0.0625-1.625-0.0625-15.375 0-24.594 10.281-9.2031 10.281-9.2031 27.516 0 17.281 9.2031 27.562 9.2188 10.281 24.594 10.281 15.328 0 24.5-10.281 9.1875-10.281 9.1875-27.562 0-12.688-5.1094-21.734-5.0938-9.0312-14.766-13.328z"/>
</defs>
<g transform="translate(141.73 478.43) rotate(-82.004) scale(.08 -.08)">
<use xlink:href="#aq"/>
</g>
</g>
<path d="m155.84 478.24 0.40694-5.5714q0.17483-2.3936-2.2188-2.5685l-7.7219-0.56401q-2.3936-0.17483-2.5685 2.2188l-0.40693 5.5714q-0.17483 2.3936 2.2188 2.5685l7.7219 0.56401q2.3936 0.17483 2.5685-2.2188z" clip-path="url(#a)" fill="#fff" stroke="#fff"/>
<g clip-path="url(#a)">
<g transform="translate(151.79 477.95) rotate(-85.823) scale(.08 -.08)">
<use xlink:href="#p"/>
</g>
</g>
<path d="m184.14 402.52 1.9491 4.6641q0.92537 2.2144 3.1398 1.2891l7.1438-2.9853q2.2144-0.92537 1.2891-3.1398l-1.9491-4.6641q-0.92537-2.2144-3.1398-1.2891l-7.1438 2.9853q-2.2144 0.92537-1.2891 3.1398z" clip-path="url(#a)" fill="#fff" stroke="#fff"/>
<g clip-path="url(#a)">
<defs>
<path id="ad" d="m9.8125 72.906h46.094v-8.3125h-36.234v-21.578h34.719v-8.2969h-34.719v-26.422h37.109v-8.2969h-46.969z"/>
</defs>
<g transform="translate(187.89 400.96) rotate(67.321) scale(.08 -.08)">
<use xlink:href="#ad"/>
</g>
</g>
<path d="m154.72 472.1 0.023497 5.855q0.009632 2.4 2.4096 2.3903l7.7424-0.031072q2.4-0.009631 2.3903-2.4096l-0.023497-5.855q-0.009631-2.4-2.4096-2.3903l-7.7424 0.031072q-2.4 0.009631-2.3904 2.4096z" clip-path="url(#a)" fill="#fff" stroke="#fff"/>
<g clip-path="url(#a)">
<g transform="translate(158.78 472.08) rotate(89.77) scale(.08 -.08)">
<use xlink:href="#r"/>
</g>
</g>
<path d="m463.61 480.01 2.176-5.1152q0.93948-2.2085-1.269-3.148l-7.1246-3.0308q-2.2085-0.93948-3.148 1.269l-2.176 5.1152q-0.93948 2.2085 1.269 3.148l7.1246 3.0308q2.2085 0.93948 3.148-1.269z" clip-path="url(#a)" fill="#fff" stroke="#fff"/>
<g clip-path="url(#a)">
<g transform="translate(459.87 478.42) rotate(-66.955) scale(.08 -.08)">
<use xlink:href="#s"/>
</g>
</g>
<path d="m524.67 405.17 0.16179-5.0524q0.076812-2.3988-2.322-2.4756l-7.7385-0.2478q-2.3988-0.076813-2.4756 2.322l-0.16179 5.0524q-0.076813 2.3988 2.322 2.4756l7.7385 0.2478q2.3988 0.076812 2.4756-2.322z" clip-path="url(#a)" fill="#fff" stroke="#fff"/>
<g clip-path="url(#a)">
<g transform="translate(520.61 405.04) rotate(-88.166) scale(.08 -.08)">
<use xlink:href="#ad"/>
</g>
</g>
<path d="m578.19 474.98 2.256 5.1104q0.96924 2.1956 3.1648 1.2263l7.083-3.1268q2.1956-0.96924 1.2263-3.1648l-2.256-5.1104q-0.96924-2.1956-3.1648-1.2263l-7.083 3.1268q-2.1956 0.96924-1.2263 3.1648z" clip-path="url(#a)" fill="#fff" stroke="#fff"/>
<g clip-path="url(#a)">
<g transform="translate(581.91 473.34) rotate(66.181) scale(.08 -.08)">
<use xlink:href="#p"/>
</g>
</g>
<path d="m729.12 551.96 1.1552-5.4374q0.49875-2.3476-1.8489-2.8464l-7.5735-1.609q-2.3476-0.49875-2.8464 1.8489l-1.1552 5.4374q-0.49875 2.3476 1.8489 2.8464l7.5735 1.609q2.3476 0.49875 2.8464-1.8489z" clip-path="url(#a)" fill="#fff" stroke="#fff"/>
<g clip-path="url(#a)">
<g transform="translate(725.14 551.12) rotate(-78.006) scale(.08 -.08)">
<use xlink:href="#s"/>
</g>
</g>
<path d="m747.68 546.51 1.1609 5.4643q0.49875 2.3476 2.8464 1.8489l7.5735-1.609q2.3476-0.49875 1.8489-2.8464l-1.1609-5.4643q-0.49875-2.3476-2.8464-1.8489l-7.5735 1.609q-2.3476 0.49875-1.8489 2.8464z" clip-path="url(#a)" fill="#fff" stroke="#fff"/>
<g clip-path="url(#a)">
<g transform="translate(751.65 545.67) rotate(78.006) scale(.08 -.08)">
<use xlink:href="#p"/>
</g>
</g>
<path d="m701.88 675.17v33.808q0 2.4 2.4 2.4h7.7425q2.4 0 2.4-2.4v-33.808q0-2.4-2.4-2.4h-7.7425q-2.4 0-2.4 2.4z" clip-path="url(#a)" fill="#fff" stroke="#fff"/>
<g clip-path="url(#a)">
<g transform="translate(705.94 675.17) rotate(90) scale(.08 -.08)">
<use xlink:href="#k"/>
<use x="44.083984" xlink:href="#d"/>
<use x="105.607422" xlink:href="#f"/>
<use x="144.970703" xlink:href="#l"/>
<use x="242.382812" xlink:href="#g"/>
<use x="270.166016" xlink:href="#e"/>
<use x="333.544922" xlink:href="#j"/>
<use x="394.824219" xlink:href="#i"/>
</g>
</g>
<path d="m763.54 675.17v33.808q0 2.4 2.4 2.4h7.7425q2.4 0 2.4-2.4v-33.808q0-2.4-2.4-2.4h-7.7425q-2.4 0-2.4 2.4z" clip-path="url(#a)" fill="#fff" stroke="#fff"/>
<g clip-path="url(#a)">
<g transform="translate(767.6 675.17) rotate(90) scale(.08 -.08)">
<use xlink:href="#k"/>
<use x="44.083984" xlink:href="#d"/>
<use x="105.607422" xlink:href="#f"/>
<use x="144.970703" xlink:href="#l"/>
<use x="242.382812" xlink:href="#g"/>
<use x="270.166016" xlink:href="#e"/>
<use x="333.544922" xlink:href="#j"/>
<use x="394.824219" xlink:href="#i"/>
</g>
</g>
<path d="m390.76 675.17v33.808q0 2.4 2.4 2.4h7.7425q2.4 0 2.4-2.4v-33.808q0-2.4-2.4-2.4h-7.7425q-2.4 0-2.4 2.4z" clip-path="url(#a)" fill="#fff" stroke="#fff"/>
<g clip-path="url(#a)">
<g transform="translate(394.82 675.17) rotate(90) scale(.08 -.08)">
<use xlink:href="#k"/>
<use x="44.083984" xlink:href="#d"/>
<use x="105.607422" xlink:href="#f"/>
<use x="144.970703" xlink:href="#l"/>
<use x="242.382812" xlink:href="#g"/>
<use x="270.166016" xlink:href="#e"/>
<use x="333.544922" xlink:href="#j"/>
<use x="394.824219" xlink:href="#i"/>
</g>
</g>
<path d="m483.55 552.85 2.0964-4.0959q1.0935-2.1364-1.043-3.2299l-6.8922-3.5275q-2.1364-1.0935-3.2299 1.043l-2.0964 4.0959q-1.0935 2.1364 1.043 3.2299l6.8922 3.5275q2.1364 1.0935 3.2299-1.043z" clip-path="url(#a)" fill="#fff" stroke="#fff"/>
<g clip-path="url(#a)">
<defs>
<path id="au" d="m9.8125 72.906h41.891v-8.3125h-32.031v-21.484h28.906v-8.2969h-28.906v-34.812h-9.8594z"/>
</defs>
<g transform="translate(479.93 551) rotate(-62.896) scale(.08 -.08)">
<use xlink:href="#au"/>
</g>
</g>
<path d="m508.55 551.56 0.91227-4.972q0.43312-2.3606-1.9275-2.7937l-7.6154-1.3973q-2.3606-0.43312-2.7937 1.9275l-0.91227 4.972q-0.43312 2.3606 1.9275 2.7937l7.6154 1.3973q2.3606 0.43312 2.7937-1.9275z" clip-path="url(#a)" fill="#fff" stroke="#fff"/>
<g clip-path="url(#a)">
<g transform="translate(504.55 550.83) rotate(-79.603) scale(.08 -.08)">
<use xlink:href="#ad"/>
</g>
</g>
<path d="m521.46 546.46 0.8189 4.9882q0.3888 2.3683 2.7571 1.9795l7.6402-1.2543q2.3683-0.3888 1.9795-2.7571l-0.8189-4.9882q-0.3888-2.3683-2.7571-1.9795l-7.6402 1.2543q-2.3683 0.3888-1.9795 2.7571z" clip-path="url(#a)" fill="#fff" stroke="#fff"/>
<g clip-path="url(#a)">
<g transform="translate(525.47 545.81) rotate(80.677) scale(.08 -.08)">
<use xlink:href="#ad"/>
</g>
</g>
<path d="m547.84 548.42 2.6203 4.9336q1.1258 2.1196 3.2454 0.99381l6.8379-3.6318q2.1196-1.1258 0.99381-3.2454l-2.6203-4.9336q-1.1258-2.1196-3.2454-0.99381l-6.8379 3.6318q-2.1196 1.1258-0.99381 3.2454z" clip-path="url(#a)" fill="#fff" stroke="#fff"/>
<g clip-path="url(#a)">
<g transform="translate(551.43 546.51) rotate(62.026) scale(.08 -.08)">
<use xlink:href="#p"/>
</g>
</g>
<path d="m643.02 675.17v33.808q0 2.4 2.4 2.4h7.7425q2.4 0 2.4-2.4v-33.808q0-2.4-2.4-2.4h-7.7425q-2.4 0-2.4 2.4z" clip-path="url(#a)" fill="#fff" stroke="#fff"/>
<g clip-path="url(#a)">
<g transform="translate(647.08 675.17) rotate(90) scale(.08 -.08)">
<use xlink:href="#k"/>
<use x="44.083984" xlink:href="#d"/>
<use x="105.607422" xlink:href="#f"/>
<use x="144.970703" xlink:href="#l"/>
<use x="242.382812" xlink:href="#g"/>
<use x="270.166016" xlink:href="#e"/>
<use x="333.544922" xlink:href="#j"/>
<use x="394.824219" xlink:href="#i"/>
</g>
</g>
<path d="m435.6 675.17v33.808q0 2.4 2.4 2.4h7.7425q2.4 0 2.4-2.4v-33.808q0-2.4-2.4-2.4h-7.7425q-2.4 0-2.4 2.4z" clip-path="url(#a)" fill="#fff" stroke="#fff"/>
<g clip-path="url(#a)">
<g transform="translate(439.67 675.17) rotate(90) scale(.08 -.08)">
<use xlink:href="#k"/>
<use x="44.083984" xlink:href="#d"/>
<use x="105.607422" xlink:href="#f"/>
<use x="144.970703" xlink:href="#l"/>
<use x="242.382812" xlink:href="#g"/>
<use x="270.166016" xlink:href="#e"/>
<use x="333.544922" xlink:href="#j"/>
<use x="394.824219" xlink:href="#i"/>
</g>
</g>
<path d="m483.25 675.17v33.808q0 2.4 2.4 2.4h7.7425q2.4 0 2.4-2.4v-33.808q0-2.4-2.4-2.4h-7.7425q-2.4 0-2.4 2.4z" clip-path="url(#a)" fill="#fff" stroke="#fff"/>
<g clip-path="url(#a)">
<g transform="translate(487.31 675.17) rotate(90) scale(.08 -.08)">
<use xlink:href="#k"/>
<use x="44.083984" xlink:href="#d"/>
<use x="105.607422" xlink:href="#f"/>
<use x="144.970703" xlink:href="#l"/>
<use x="242.382812" xlink:href="#g"/>
<use x="270.166016" xlink:href="#e"/>
<use x="333.544922" xlink:href="#j"/>
<use x="394.824219" xlink:href="#i"/>
</g>
</g>
<path d="m533.7 675.17v33.808q0 2.4 2.4 2.4h7.7425q2.4 0 2.4-2.4v-33.808q0-2.4-2.4-2.4h-7.7425q-2.4 0-2.4 2.4z" clip-path="url(#a)" fill="#fff" stroke="#fff"/>
<g clip-path="url(#a)">
<g transform="translate(537.77 675.17) rotate(90) scale(.08 -.08)">
<use xlink:href="#k"/>
<use x="44.083984" xlink:href="#d"/>
<use x="105.607422" xlink:href="#f"/>
<use x="144.970703" xlink:href="#l"/>
<use x="242.382812" xlink:href="#g"/>
<use x="270.166016" xlink:href="#e"/>
<use x="333.544922" xlink:href="#j"/>
<use x="394.824219" xlink:href="#i"/>
</g>
</g>
<path d="m586.96 675.17v33.808q0 2.4 2.4 2.4h7.7425q2.4 0 2.4-2.4v-33.808q0-2.4-2.4-2.4h-7.7425q-2.4 0-2.4 2.4z" clip-path="url(#a)" fill="#fff" stroke="#fff"/>
<g clip-path="url(#a)">
<g transform="translate(591.02 675.17) rotate(90) scale(.08 -.08)">
<use xlink:href="#k"/>
<use x="44.083984" xlink:href="#d"/>
<use x="105.607422" xlink:href="#f"/>
<use x="144.970703" xlink:href="#l"/>
<use x="242.382812" xlink:href="#g"/>
<use x="270.166016" xlink:href="#e"/>
<use x="333.544922" xlink:href="#j"/>
<use x="394.824219" xlink:href="#i"/>
</g>
</g>
<path d="m113.27 675.17v33.808q0 2.4 2.4 2.4h7.7425q2.4 0 2.4-2.4v-33.808q0-2.4-2.4-2.4h-7.7425q-2.4 0-2.4 2.4z" clip-path="url(#a)" fill="#fff" stroke="#fff"/>
<g clip-path="url(#a)">
<g transform="translate(117.34 675.17) rotate(90) scale(.08 -.08)">
<use xlink:href="#k"/>
<use x="44.083984" xlink:href="#d"/>
<use x="105.607422" xlink:href="#f"/>
<use x="144.970703" xlink:href="#l"/>
<use x="242.382812" xlink:href="#g"/>
<use x="270.166016" xlink:href="#e"/>
<use x="333.544922" xlink:href="#j"/>
<use x="394.824219" xlink:href="#i"/>
</g>
</g>
<path d="m132.89 675.17v33.808q0 2.4 2.4 2.4h7.7425q2.4 0 2.4-2.4v-33.808q0-2.4-2.4-2.4h-7.7425q-2.4 0-2.4 2.4z" clip-path="url(#a)" fill="#fff" stroke="#fff"/>
<g clip-path="url(#a)">
<g transform="translate(136.96 675.17) rotate(90) scale(.08 -.08)">
<use xlink:href="#k"/>
<use x="44.083984" xlink:href="#d"/>
<use x="105.607422" xlink:href="#f"/>
<use x="144.970703" xlink:href="#l"/>
<use x="242.382812" xlink:href="#g"/>
<use x="270.166016" xlink:href="#e"/>
<use x="333.544922" xlink:href="#j"/>
<use x="394.824219" xlink:href="#i"/>
</g>
</g>
<path d="m209.55 552.1 1.2881-5.4075q0.55613-2.3347-1.7786-2.8908l-7.5318-1.7941q-2.3347-0.55613-2.8908 1.7786l-1.2881 5.4075q-0.55613 2.3347 1.7786 2.8908l7.5318 1.7941q2.3347 0.55613 2.8908-1.7786z" clip-path="url(#a)" fill="#fff" stroke="#fff"/>
<g clip-path="url(#a)">
<g transform="translate(205.6 551.16) rotate(-76.602) scale(.08 -.08)">
<use xlink:href="#s"/>
</g>
</g>
<path d="m235.14 546.96 1.5225 5.3748q0.65411 2.3091 2.9633 1.655l7.4494-2.1102q2.3091-0.65411 1.655-2.9633l-1.5225-5.3748q-0.65411-2.3091-2.9632-1.655l-7.4494 2.1102q-2.3091 0.65411-1.655 2.9632z" clip-path="url(#a)" fill="#fff" stroke="#fff"/>
<g clip-path="url(#a)">
<g transform="translate(239.05 545.86) rotate(74.184) scale(.08 -.08)">
<use xlink:href="#p"/>
</g>
</g>
<path d="m224.24 551.15 0.26359-5.8491q0.10805-2.3976-2.2895-2.5056l-7.7346-0.34856q-2.3976-0.10805-2.5056 2.2895l-0.26359 5.8491q-0.10805 2.3976 2.2895 2.5056l7.7346 0.34856q2.3976 0.10805 2.5056-2.2895z" clip-path="url(#a)" fill="#fff" stroke="#fff"/>
<g clip-path="url(#a)">
<g transform="translate(220.18 550.97) rotate(-87.42) scale(.08 -.08)">
<use xlink:href="#r"/>
</g>
</g>
<path d="m155.31 675.17v33.808q0 2.4 2.4 2.4h7.7425q2.4 0 2.4-2.4v-33.808q0-2.4-2.4-2.4h-7.7425q-2.4 0-2.4 2.4z" clip-path="url(#a)" fill="#fff" stroke="#fff"/>
<g clip-path="url(#a)">
<g transform="translate(159.38 675.17) rotate(90) scale(.08 -.08)">
<use xlink:href="#k"/>
<use x="44.083984" xlink:href="#d"/>
<use x="105.607422" xlink:href="#f"/>
<use x="144.970703" xlink:href="#l"/>
<use x="242.382812" xlink:href="#g"/>
<use x="270.166016" xlink:href="#e"/>
<use x="333.544922" xlink:href="#j"/>
<use x="394.824219" xlink:href="#i"/>
</g>
</g>
<path d="m180.54 675.17v33.808q0 2.4 2.4 2.4h7.7425q2.4 0 2.4-2.4v-33.808q0-2.4-2.4-2.4h-7.7425q-2.4 0-2.4 2.4z" clip-path="url(#a)" fill="#fff" stroke="#fff"/>
<g clip-path="url(#a)">
<g transform="translate(184.6 675.17) rotate(90) scale(.08 -.08)">
<use xlink:href="#k"/>
<use x="44.083984" xlink:href="#d"/>
<use x="105.607422" xlink:href="#f"/>
<use x="144.970703" xlink:href="#l"/>
<use x="242.382812" xlink:href="#g"/>
<use x="270.166016" xlink:href="#e"/>
<use x="333.544922" xlink:href="#j"/>
<use x="394.824219" xlink:href="#i"/>
</g>
</g>
<path d="m258.34 709.59 3.9451-33.577q0.28006-2.3836-2.1035-2.6637l-7.6896-0.90349q-2.3836-0.28006-2.6637 2.1035l-3.9451 33.577q-0.28006 2.3836 2.1035 2.6637l7.6896 0.90349q2.3836 0.28006 2.6637-2.1035z" clip-path="url(#a)" fill="#fff" stroke="#fff"/>
<g clip-path="url(#a)">
<g transform="translate(254.3 709.12) rotate(-83.299) scale(.08 -.08)">
<use xlink:href="#k"/>
<use x="44.083984" xlink:href="#d"/>
<use x="105.607422" xlink:href="#f"/>
<use x="144.970703" xlink:href="#l"/>
<use x="242.382812" xlink:href="#g"/>
<use x="270.166016" xlink:href="#e"/>
<use x="333.544922" xlink:href="#j"/>
<use x="394.824219" xlink:href="#i"/>
</g>
</g>
<path d="m262.7 676.01 3.9451 33.577q0.28006 2.3836 2.6637 2.1035l7.6896-0.90349q2.3836-0.28006 2.1035-2.6637l-3.9451-33.577q-0.28006-2.3836-2.6637-2.1035l-7.6896 0.90349q-2.3836 0.28006-2.1035 2.6637z" clip-path="url(#a)" fill="#fff" stroke="#fff"/>
<g clip-path="url(#a)">
<g transform="translate(266.73 675.54) rotate(83.299) scale(.08 -.08)">
<use xlink:href="#k"/>
<use x="44.083984" xlink:href="#d"/>
<use x="105.607422" xlink:href="#f"/>
<use x="144.970703" xlink:href="#l"/>
<use x="242.382812" xlink:href="#g"/>
<use x="270.166016" xlink:href="#e"/>
<use x="333.544922" xlink:href="#j"/>
<use x="394.824219" xlink:href="#i"/>
</g>
</g>
<path d="m208.57 675.17v33.808q0 2.4 2.4 2.4h7.7425q2.4 0 2.4-2.4v-33.808q0-2.4-2.4-2.4h-7.7425q-2.4 0-2.4 2.4z" clip-path="url(#a)" fill="#fff" stroke="#fff"/>
<g clip-path="url(#a)">
<g transform="translate(212.63 675.17) rotate(90) scale(.08 -.08)">
<use xlink:href="#k"/>
<use x="44.083984" xlink:href="#d"/>
<use x="105.607422" xlink:href="#f"/>
<use x="144.970703" xlink:href="#l"/>
<use x="242.382812" xlink:href="#g"/>
<use x="270.166016" xlink:href="#e"/>
<use x="333.544922" xlink:href="#j"/>
<use x="394.824219" xlink:href="#i"/>
</g>
</g>
<path d="m309.47 675.17v33.808q0 2.4 2.4 2.4h7.7425q2.4 0 2.4-2.4v-33.808q0-2.4-2.4-2.4h-7.7425q-2.4 0-2.4 2.4z" clip-path="url(#a)" fill="#fff" stroke="#fff"/>
<g clip-path="url(#a)">
<g transform="translate(313.54 675.17) rotate(90) scale(.08 -.08)">
<use xlink:href="#k"/>
<use x="44.083984" xlink:href="#d"/>
<use x="105.607422" xlink:href="#f"/>
<use x="144.970703" xlink:href="#l"/>
<use x="242.382812" xlink:href="#g"/>
<use x="270.166016" xlink:href="#e"/>
<use x="333.544922" xlink:href="#j"/>
<use x="394.824219" xlink:href="#i"/>
</g>
</g>
<path d="m348.71 675.17v33.808q0 2.4 2.4 2.4h7.7425q2.4 0 2.4-2.4v-33.808q0-2.4-2.4-2.4h-7.7425q-2.4 0-2.4 2.4z" clip-path="url(#a)" fill="#fff" stroke="#fff"/>
<g clip-path="url(#a)">
<g transform="translate(352.78 675.17) rotate(90) scale(.08 -.08)">
<use xlink:href="#k"/>
<use x="44.083984" xlink:href="#d"/>
<use x="105.607422" xlink:href="#f"/>
<use x="144.970703" xlink:href="#l"/>
<use x="242.382812" xlink:href="#g"/>
<use x="270.166016" xlink:href="#e"/>
<use x="333.544922" xlink:href="#j"/>
<use x="394.824219" xlink:href="#i"/>
</g>
</g>
<path d="m828 675.17v33.808q0 2.4 2.4 2.4h7.7425q2.4 0 2.4-2.4v-33.808q0-2.4-2.4-2.4h-7.7425q-2.4 0-2.4 2.4z" clip-path="url(#a)" fill="#fff" stroke="#fff"/>
<g clip-path="url(#a)">
<g transform="translate(832.07 675.17) rotate(90) scale(.08 -.08)">
<use xlink:href="#k"/>
<use x="44.083984" xlink:href="#d"/>
<use x="105.607422" xlink:href="#f"/>
<use x="144.970703" xlink:href="#l"/>
<use x="242.382812" xlink:href="#g"/>
<use x="270.166016" xlink:href="#e"/>
<use x="333.544922" xlink:href="#j"/>
<use x="394.824219" xlink:href="#i"/>
</g>
</g>
<path d="m1444.6 675.17v33.808q0 2.4 2.4 2.4h7.7425q2.4 0 2.4-2.4v-33.808q0-2.4-2.4-2.4h-7.7425q-2.4 0-2.4 2.4z" clip-path="url(#a)" fill="#fff" stroke="#fff"/>
<g clip-path="url(#a)">
<g transform="translate(1448.7 675.17) rotate(90) scale(.08 -.08)">
<use xlink:href="#k"/>
<use x="44.083984" xlink:href="#d"/>
<use x="105.607422" xlink:href="#f"/>
<use x="144.970703" xlink:href="#l"/>
<use x="242.382812" xlink:href="#g"/>
<use x="270.166016" xlink:href="#e"/>
<use x="333.544922" xlink:href="#j"/>
<use x="394.824219" xlink:href="#i"/>
</g>
</g>
<defs>
<path id="b" d="m0 8.6603c2.2967 0 4.4997-0.9125 6.1237-2.5365 1.624-1.624 2.5365-3.827 2.5365-6.1237s-0.9125-4.4997-2.5365-6.1237c-1.624-1.624-3.827-2.5365-6.1237-2.5365s-4.4997 0.9125-6.1237 2.5365c-1.624 1.624-2.5365 3.827-2.5365 6.1237s0.9125 4.4997 2.5365 6.1237c1.624 1.624 3.827 2.5365 6.1237 2.5365z"/>
</defs>
<g clip-path="url(#a)" fill="#ffffff" stroke="#ffffff">
<use x="69.090909" y="763.636364" xlink:href="#b"/>
<use x="77.499539" y="763.636364" xlink:href="#b"/>
<use x="88.711046" y="763.636364" xlink:href="#b"/>
<use x="102.725429" y="763.636364" xlink:href="#b"/>
<use x="119.542689" y="763.636364" xlink:href="#b"/>
<use x="139.162825" y="763.636364" xlink:href="#b"/>
<use x="161.585838" y="763.636364" xlink:href="#b"/>
<use x="186.811728" y="763.636364" xlink:href="#b"/>
<use x="214.840494" y="763.636364" xlink:href="#b"/>
<use x="245.672137" y="763.636364" xlink:href="#b"/>
<use x="279.306657" y="763.636364" xlink:href="#b"/>
<use x="315.744053" y="763.636364" xlink:href="#b"/>
<use x="354.984326" y="763.636364" xlink:href="#b"/>
<use x="397.027476" y="763.636364" xlink:href="#b"/>
<use x="441.873502" y="763.636364" xlink:href="#b"/>
<use x="489.522405" y="763.636364" xlink:href="#b"/>
<use x="539.974184" y="763.636364" xlink:href="#b"/>
<use x="593.22884" y="763.636364" xlink:href="#b"/>
<use x="649.286373" y="763.636364" xlink:href="#b"/>
<use x="708.146782" y="763.636364" xlink:href="#b"/>
<use x="769.810068" y="763.636364" xlink:href="#b"/>
<use x="834.276231" y="763.636364" xlink:href="#b"/>
<use x="901.54527" y="763.636364" xlink:href="#b"/>
<use x="971.617186" y="763.636364" xlink:href="#b"/>
<use x="1044.491979" y="763.636364" xlink:href="#b"/>
<use x="1120.169648" y="763.636364" xlink:href="#b"/>
<use x="1198.650194" y="763.636364" xlink:href="#b"/>
<use x="1279.933616" y="763.636364" xlink:href="#b"/>
<use x="1364.019915" y="763.636364" xlink:href="#b"/>
<use x="1450.909091" y="763.636364" xlink:href="#b"/>
<use x="734.911752" y="36.363636" xlink:href="#b"/>
<use x="324.586462" y="183.115024" xlink:href="#b"/>
<use x="901.54527" y="620.504081" xlink:href="#b"/>
<use x="879.239044" y="329.496101" xlink:href="#b"/>
<use x="971.617186" y="620.504081" xlink:href="#b"/>
<use x="1101.95095" y="475.380671" xlink:href="#b"/>
<use x="1364.954207" y="475.380671" xlink:href="#b"/>
<use x="1279.933616" y="620.504081" xlink:href="#b"/>
<use x="1364.019915" y="620.504081" xlink:href="#b"/>
<use x="1044.491979" y="620.504081" xlink:href="#b"/>
<use x="1159.409921" y="620.504081" xlink:href="#b"/>
<use x="78.433831" y="620.504081" xlink:href="#b"/>
<use x="102.725429" y="620.504081" xlink:href="#b"/>
<use x="160.417973" y="329.496101" xlink:href="#b"/>
<use x="520.821194" y="329.496101" xlink:href="#b"/>
<use x="738.978425" y="475.380671" xlink:href="#b"/>
<use x="708.146782" y="620.504081" xlink:href="#b"/>
<use x="769.810068" y="620.504081" xlink:href="#b"/>
<use x="397.027476" y="620.504081" xlink:href="#b"/>
<use x="516.149733" y="475.380671" xlink:href="#b"/>
<use x="649.286373" y="620.504081" xlink:href="#b"/>
<use x="441.873502" y="620.504081" xlink:href="#b"/>
<use x="489.522405" y="620.504081" xlink:href="#b"/>
<use x="539.974184" y="620.504081" xlink:href="#b"/>
<use x="593.22884" y="620.504081" xlink:href="#b"/>
<use x="119.542689" y="620.504081" xlink:href="#b"/>
<use x="139.162825" y="620.504081" xlink:href="#b"/>
<use x="221.38054" y="475.380671" xlink:href="#b"/>
<use x="161.585838" y="620.504081" xlink:href="#b"/>
<use x="186.811728" y="620.504081" xlink:href="#b"/>
<use x="262.489397" y="620.504081" xlink:href="#b"/>
<use x="214.840494" y="620.504081" xlink:href="#b"/>
<use x="315.744053" y="620.504081" xlink:href="#b"/>
<use x="354.984326" y="620.504081" xlink:href="#b"/>
<use x="834.276231" y="620.504081" xlink:href="#b"/>
<use x="1450.909091" y="620.504081" xlink:href="#b"/>
</g>
<g clip-path="url(#a)">
<defs>
<path id="ai" d="m54.891 33.016v-33.016h-8.9844v32.719q0 7.7656-3.0312 11.609-3.0312 3.8594-9.0781 3.8594-7.2812 0-11.484-4.6406-4.2031-4.625-4.2031-12.641v-30.906h-9.0312v75.984h9.0312v-29.797q3.2344 4.9375 7.5938 7.375 4.375 2.4375 10.094 2.4375 9.4219 0 14.25-5.8281 4.8438-5.8281 4.8438-17.156z"/>
</defs>
<g transform="translate(59.792 766.4) scale(.1 -.1)">
<use xlink:href="#k"/>
<use x="61.083984" xlink:href="#ai"/>
<use x="124.462891" xlink:href="#d"/>
</g>
</g>
<g clip-path="url(#a)">
<defs>
<path id="at" d="m9.8125 72.906h9.8594v-67.828q0-13.188-5-19.141t-16.094-5.9531h-3.75v8.2969h3.0781q6.5312 0 9.2188 3.6719 2.6875 3.6562 2.6875 13.125z"/>
<path id="q" d="m48.781 52.594v-8.4062q-3.8125 2.1094-7.6406 3.1562t-7.7344 1.0469q-8.75 0-13.594-5.5469-4.8281-5.5312-4.8281-15.547t4.8281-15.562q4.8438-5.5312 13.594-5.5312 3.9062 0 7.7344 1.0469t7.6406 3.1562v-8.3125q-3.7656-1.75-7.7969-2.625-4.0156-0.89062-8.5625-0.89062-12.359 0-19.641 7.7656-7.2656 7.7656-7.2656 20.953 0 13.375 7.3438 21.031 7.3594 7.6719 20.156 7.6719 4.1406 0 8.0938-0.85938 3.9531-0.84375 7.6719-2.5469z"/>
<path id="ay" d="m9.0781 75.984h9.0312v-44.875l26.812 23.578h11.469l-29-25.578 30.234-29.109h-11.719l-27.797 26.703v-26.703h-9.0312z"/>
<path id="t" d="m44.281 53.078v-8.5q-3.7969 1.9531-7.9062 2.9219-4.0938 0.98438-8.5 0.98438-6.6875 0-10.031-2.0469t-3.3438-6.1562q0-3.125 2.3906-4.9062t9.625-3.3906l3.0781-0.6875q9.5625-2.0469 13.594-5.7812t4.0312-10.422q0-7.625-6.0312-12.078-6.0312-4.4375-16.578-4.4375-4.3906 0-9.1562 0.85938t-10.031 2.5625v9.2812q4.9844-2.5938 9.8125-3.8906 4.8281-1.2812 9.5781-1.2812 6.3438 0 9.75 2.1719 3.4219 2.1719 3.4219 6.125 0 3.6562-2.4688 5.6094-2.4531 1.9531-10.812 3.7656l-3.125 0.73438q-8.3438 1.75-12.062 5.3906-3.7031 3.6406-3.7031 9.9844 0 7.7188 5.4688 11.906 5.4688 4.2031 15.531 4.2031 4.9688 0 9.3594-0.73438 4.4062-0.71875 8.1094-2.1875z"/>
<path id="o" d="m30.609 48.391q-7.2188 0-11.422-5.6406t-4.2031-15.453 4.1719-15.453q4.1875-5.6406 11.453-5.6406 7.1875 0 11.375 5.6562 4.2031 5.6719 4.2031 15.438 0 9.7188-4.2031 15.406-4.1875 5.6875-11.375 5.6875zm0 7.6094q11.719 0 18.406-7.625 6.7031-7.6094 6.7031-21.078 0-13.422-6.7031-21.078-6.6875-7.6406-18.406-7.6406-11.766 0-18.438 7.6406-6.6562 7.6562-6.6562 21.078 0 13.469 6.6562 21.078 6.6719 7.625 18.438 7.625z"/>
</defs>
<g transform="translate(58.483 766.4) scale(.1 -.1)">
<use xlink:href="#at"/>
<use x="29.492188" xlink:href="#j"/>
<use x="90.771484" xlink:href="#q"/>
<use x="145.751953" xlink:href="#ay"/>
<use x="203.662109" xlink:href="#t"/>
<use x="255.761719" xlink:href="#o"/>
<use x="316.943359" xlink:href="#e"/>
</g>
</g>
<g clip-path="url(#a)">
<defs>
<path id="ae" d="m10.797 72.906h38.719v-8.3125h-29.688v-17.859q2.1406 0.73438 4.2812 1.0938 2.1562 0.35938 4.3125 0.35938 12.203 0 19.328-6.6875 7.1406-6.6875 7.1406-18.109 0-11.766-7.3281-18.297-7.3281-6.5156-20.656-6.5156-4.5938 0-9.3594 0.78125-4.75 0.78125-9.8281 2.3438v9.9219q4.3906-2.3906 9.0781-3.5625t9.9062-1.1719q8.4531 0 13.375 4.4375 4.9375 4.4375 4.9375 12.062 0 7.6094-4.9375 12.047-4.9219 4.4531-13.375 4.4531-3.9531 0-7.8906-0.875-3.9219-0.875-8.0156-2.7344z"/>
</defs>
<g transform="translate(85.53 766.4) scale(.1 -.1)">
<use xlink:href="#ae"/>
</g>
</g>
<g clip-path="url(#a)">
<defs>
<path id="ac" d="m45.406 46.391v29.594h8.9844v-75.984h-8.9844v8.2031q-2.8281-4.875-7.1562-7.25-4.3125-2.375-10.375-2.375-9.9062 0-16.141 7.9062-6.2188 7.9219-6.2188 20.812t6.2188 20.797q6.2344 7.9062 16.141 7.9062 6.0625 0 10.375-2.375 4.3281-2.3594 7.1562-7.2344zm-30.609-19.094q0-9.9062 4.0781-15.547t11.203-5.6406 11.219 5.6406q4.1094 5.6406 4.1094 15.547t-4.1094 15.547q-4.0938 5.6406-11.219 5.6406t-11.203-5.6406-4.0781-15.547z"/>
</defs>
<g transform="translate(80.504 766.4) scale(.1 -.1)">
<use xlink:href="#f"/>
<use x="38.863281" xlink:href="#d"/>
<use x="100.386719" xlink:href="#q"/>
<use x="155.367188" xlink:href="#o"/>
<use x="216.548828" xlink:href="#f"/>
<use x="255.912109" xlink:href="#ac"/>
<use x="319.388672" xlink:href="#d"/>
<use x="380.912109" xlink:href="#ac"/>
</g>
</g>
<g clip-path="url(#a)">
<defs>
<path id="aw" d="m2.9844 54.688h9.5156l17.094-45.891 17.094 45.891h9.5156l-20.516-54.688h-12.203z"/>
</defs>
<g transform="translate(101.32 766.4) scale(.1 -.1)">
<use xlink:href="#t"/>
<use x="52.099609" xlink:href="#d"/>
<use x="113.623047" xlink:href="#aw"/>
<use x="172.802734" xlink:href="#d"/>
<use x="234.326172" xlink:href="#f"/>
<use x="275.439453" xlink:href="#j"/>
<use x="336.71875" xlink:href="#i"/>
</g>
</g>
<g clip-path="url(#a)">
<defs>
<path id="ab" d="m45.406 27.984q0 9.7656-4.0312 15.125-4.0156 5.375-11.297 5.375-7.2188 0-11.25-5.375-4.0312-5.3594-4.0312-15.125 0-9.7188 4.0312-15.094t11.25-5.375q7.2812 0 11.297 5.375 4.0312 5.375 4.0312 15.094zm8.9844-21.203q0-13.953-6.2031-20.766-6.1875-6.8125-18.984-6.8125-4.7344 0-8.9375 0.70312t-8.1562 2.1719v8.7344q3.9531-2.1406 7.8125-3.1562 3.8594-1.0312 7.8594-1.0312 8.8438 0 13.234 4.6094t4.3906 13.938v4.4531q-2.7812-4.8438-7.125-7.2344t-10.406-2.3906q-10.047 0-16.203 7.6562-6.1562 7.6719-6.1562 20.328 0 12.688 6.1562 20.344 6.1562 7.6719 16.203 7.6719 6.0625 0 10.406-2.3906t7.125-7.2188v8.2969h8.9844z"/>
</defs>
<g transform="translate(124.55 766.4) scale(.1 -.1)">
<use xlink:href="#t"/>
<use x="52.099609" xlink:href="#o"/>
<use x="113.28125" xlink:href="#e"/>
<use x="176.660156" xlink:href="#ab"/>
<use x="240.136719" xlink:href="#t"/>
</g>
</g>
<g clip-path="url(#a)">
<defs>
<path id="ag" d="m11.719 12.406h10.297v-8.4062l-8-15.625h-6.2969l4 15.625z"/>
</defs>
<g transform="translate(160 766.4) scale(.1 -.1)">
<use xlink:href="#ag"/>
</g>
</g>
<g clip-path="url(#a)">
<defs>
<path id="ax" d="m8.5 21.578v33.109h8.9844v-32.766q0-7.7656 3.0156-11.656 3.0312-3.875 9.0938-3.875 7.2656 0 11.484 4.6406 4.2344 4.6406 4.2344 12.656v31h8.9844v-54.688h-8.9844v8.4062q-3.2656-4.9844-7.5938-7.4062-4.3125-2.4219-10.031-2.4219-9.4219 0-14.312 5.8594-4.875 5.8594-4.875 17.141z"/>
</defs>
<g transform="translate(164.04 766.4) scale(.1 -.1)">
<use xlink:href="#g"/>
<use x="27.783203" xlink:href="#e"/>
<use x="91.162109" xlink:href="#q"/>
<use x="146.142578" xlink:href="#i"/>
<use x="173.925781" xlink:href="#ax"/>
<use x="237.304688" xlink:href="#ac"/>
<use x="300.78125" xlink:href="#g"/>
<use x="328.564453" xlink:href="#e"/>
<use x="391.943359" xlink:href="#ab"/>
</g>
</g>
<g clip-path="url(#a)">
<defs>
<path id="an" d="m17.922 72.906v-27.109h-8.2969v27.109zm18.453 0v-27.109h-8.2969v27.109z"/>
</defs>
<g transform="translate(212.54 766.4) scale(.1 -.1)">
<use xlink:href="#an"/>
</g>
</g>
<g clip-path="url(#a)">
<defs>
<path id="am" d="m19.672 34.812v-26.703h15.828q7.9531 0 11.781 3.2969 3.8438 3.2969 3.8438 10.078 0 6.8438-3.8438 10.078-3.8281 3.25-11.781 3.25zm0 29.984v-21.969h14.609q7.2188 0 10.75 2.7031 3.5469 2.7188 3.5469 8.2812 0 5.5156-3.5469 8.25-3.5312 2.7344-10.75 2.7344zm-9.8594 8.1094h25.203q11.281 0 17.375-4.6875 6.1094-4.6875 6.1094-13.328 0-6.7031-3.125-10.656t-9.1875-4.9219q7.2812-1.5625 11.312-6.5312 4.0312-4.9531 4.0312-12.375 0-9.7656-6.6406-15.094-6.6406-5.3125-18.906-5.3125h-26.172z"/>
</defs>
<g transform="translate(237.68 766.4) scale(.1 -.1)">
<use xlink:href="#am"/>
<use x="68.603516" xlink:href="#g"/>
<use x="96.386719" xlink:href="#ab"/>
</g>
</g>
<g clip-path="url(#a)">
<defs>
<path id="av" d="m32.172-5.0781q-3.7969-9.7656-7.4219-12.734-3.6094-2.9844-9.6562-2.9844h-7.1875v7.5156h5.2812q3.7031 0 5.75 1.7656 2.0625 1.75 4.5469 8.2969l1.6094 4.0938-22.109 53.812h9.5156l17.094-42.766 17.094 42.766h9.5156z"/>
</defs>
<g transform="translate(269.86 766.4) scale(.1 -.1)">
<use xlink:href="#am"/>
<use x="68.603516" xlink:href="#o"/>
<use x="129.785156" xlink:href="#av"/>
</g>
</g>
<g clip-path="url(#a)">
<g transform="translate(313.44 766.4) scale(.1 -.1)">
<use xlink:href="#an"/>
</g>
</g>
<g clip-path="url(#a)">
<g transform="translate(353.4 766.4) scale(.1 -.1)">
<use xlink:href="#ag"/>
</g>
</g>
<g clip-path="url(#a)">
<defs>
<path id="ao" d="m37.109 75.984v-7.4844h-8.5938q-4.8281 0-6.7188-1.9531-1.875-1.9531-1.875-7.0312v-4.8281h14.797v-6.9844h-14.797v-47.703h-9.0312v47.703h-8.5938v6.9844h8.5938v3.8125q0 9.125 4.25 13.297 4.25 4.1875 13.469 4.1875z"/>
</defs>
<g transform="translate(390.15 766.4) scale(.1 -.1)">
<use xlink:href="#ao"/>
<use x="35.205078" xlink:href="#o"/>
<use x="96.386719" xlink:href="#f"/>
</g>
</g>
<g clip-path="url(#a)">
<defs>
<path id="aa" d="m18.312 70.219v-15.531h18.5v-6.9844h-18.5v-29.688q0-6.6875 1.8281-8.5938t7.4531-1.9062h9.2188v-7.5156h-9.2188q-10.406 0-14.359 3.875-3.9531 3.8906-3.9531 14.141v29.688h-6.5938v6.9844h6.5938v15.531z"/>
</defs>
<g transform="translate(433.67 766.4) scale(.1 -.1)">
<use xlink:href="#aa"/>
<use x="39.208984" xlink:href="#ai"/>
<use x="102.587891" xlink:href="#d"/>
</g>
</g>
<g clip-path="url(#a)">
<g transform="translate(477.87 766.4) scale(.1 -.1)">
<use xlink:href="#i"/>
<use x="27.783203" xlink:href="#o"/>
<use x="88.964844" xlink:href="#q"/>
<use x="143.945312" xlink:href="#j"/>
<use x="205.224609" xlink:href="#i"/>
</g>
</g>
<g clip-path="url(#a)">
<g transform="translate(524 766.4) scale(.1 -.1)">
<use xlink:href="#f"/>
<use x="38.863281" xlink:href="#d"/>
<use x="100.386719" xlink:href="#q"/>
<use x="155.367188" xlink:href="#o"/>
<use x="216.548828" xlink:href="#f"/>
<use x="255.912109" xlink:href="#ac"/>
</g>
</g>
<g clip-path="url(#a)">
<defs>
<path id="aj" d="m48.688 27.297q0 9.9062-4.0781 15.547t-11.203 5.6406q-7.1406 0-11.219-5.6406t-4.0781-15.547 4.0781-15.547 11.219-5.6406q7.125 0 11.203 5.6406t4.0781 15.547zm-30.578 19.094q2.8438 4.875 7.1562 7.2344 4.3281 2.375 10.328 2.375 9.9688 0 16.188-7.9062 6.2344-7.9062 6.2344-20.797t-6.2344-20.812q-6.2188-7.9062-16.188-7.9062-6 0-10.328 2.375-4.3125 2.375-7.1562 7.25v-8.2031h-9.0312v75.984h9.0312z"/>
</defs>
<g transform="translate(581.14 766.4) scale(.1 -.1)">
<use xlink:href="#i"/>
<use x="27.783203" xlink:href="#j"/>
<use x="89.0625" xlink:href="#aj"/>
<use x="152.539062" xlink:href="#d"/>
<use x="214.0625" xlink:href="#i"/>
</g>
</g>
<g clip-path="url(#a)">
<defs>
<path id="ap" d="m53.516 70.516v-9.625q-5.6094 2.6875-10.594 4-4.9844 1.3281-9.625 1.3281-8.0469 0-12.422-3.125t-4.375-8.8906q0-4.8438 2.9062-7.3125 2.9062-2.4531 11.016-3.9688l5.9531-1.2188q11.031-2.1094 16.281-7.4062t5.25-14.172q0-10.609-7.1094-16.078-7.0938-5.4688-20.812-5.4688-5.1719 0-11.016 1.1719-5.8281 1.1719-12.078 3.4688v10.156q6-3.3594 11.766-5.0781 5.7656-1.7031 11.328-1.7031 8.4375 0 13.031 3.3125 4.5938 3.3281 4.5938 9.4844 0 5.3594-3.2969 8.3906t-10.812 4.5469l-6.0156 1.1719q-11.031 2.1875-15.969 6.875-4.9219 4.6875-4.9219 13.047 0 9.6719 6.8125 15.234t18.766 5.5625q5.1406 0 10.453-0.9375 5.3281-0.92188 10.891-2.7656z"/>
<path id="ah" d="m4.2031 54.688h8.9844l11.234-42.672 11.172 42.672h10.594l11.234-42.672 11.188 42.672h8.9844l-14.312-54.688h-10.594l-11.766 44.828-11.812-44.828h-10.609z"/>
</defs>
<g transform="translate(624.33 766.4) scale(.1 -.1)">
<use xlink:href="#ap"/>
<use x="63.476562" xlink:href="#aa"/>
<use x="102.685547" xlink:href="#d"/>
<use x="164.208984" xlink:href="#d"/>
<use x="225.732422" xlink:href="#i"/>
<use x="253.515625" xlink:href="#aa"/>
<use x="292.724609" xlink:href="#o"/>
<use x="353.90625" xlink:href="#ah"/>
<use x="435.693359" xlink:href="#e"/>
</g>
</g>
<g clip-path="url(#a)">
<g transform="translate(703.59 766.4) scale(.1 -.1)">
<use xlink:href="#g"/>
<use x="27.783203" xlink:href="#e"/>
</g>
</g>
<g clip-path="url(#a)">
<defs>
<path id="c" d="m12.406 8.2969h16.109v55.625l-17.531-3.5156v8.9844l17.438 3.5156h9.8594v-64.609h16.109v-8.2969h-41.984z"/>
<path id="v" d="m10.984 1.5156v8.9844q3.7188-1.7656 7.5156-2.6875 3.8125-0.92188 7.4844-0.92188 9.7656 0 14.906 6.5625 5.1562 6.5625 5.8906 19.953-2.8281-4.2031-7.1875-6.4531-4.3438-2.25-9.6094-2.25-10.938 0-17.312 6.6094-6.375 6.625-6.375 18.109 0 11.219 6.6406 18 6.6406 6.7969 17.672 6.7969 12.656 0 19.312-9.7031 6.6719-9.6875 6.6719-28.141 0-17.234-8.1875-27.516-8.1719-10.281-21.984-10.281-3.7188 0-7.5312 0.73438-3.7969 0.73438-7.9062 2.2031zm19.625 30.906q6.6406 0 10.516 4.5312 3.8906 4.5469 3.8906 12.469 0 7.8594-3.8906 12.422-3.875 4.5625-10.516 4.5625t-10.516-4.5625-3.875-12.422q0-7.9219 3.875-12.469 3.875-4.5312 10.516-4.5312z"/>
<path id="y" d="m33.016 40.375q-6.6406 0-10.531-4.5469-3.875-4.5312-3.875-12.438 0-7.8594 3.875-12.438 3.8906-4.5625 10.531-4.5625t10.516 4.5625q3.875 4.5781 3.875 12.438 0 7.9062-3.875 12.438-3.875 4.5469-10.516 4.5469zm19.578 30.922v-8.9844q-3.7188 1.75-7.5 2.6719-3.7812 0.9375-7.5 0.9375-9.7656 0-14.922-6.5938-5.1406-6.5938-5.875-19.922 2.875 4.25 7.2188 6.5156 4.3594 2.2656 9.5781 2.2656 10.984 0 17.359-6.6719 6.375-6.6562 6.375-18.125 0-11.234-6.6406-18.031-6.6406-6.7812-17.672-6.7812-12.656 0-19.344 9.6875-6.6875 9.7031-6.6875 28.109 0 17.281 8.2031 27.562t22.016 10.281q3.7188 0 7.5-0.73438t7.8906-2.1875z"/>
<path id="x" d="m8.2031 72.906h46.875v-4.2031l-26.469-68.703h-10.297l24.906 64.594h-35.016z"/>
</defs>
<g transform="translate(757.09 766.4) scale(.1 -.1)">
<use xlink:href="#c"/>
<use x="63.623047" xlink:href="#v"/>
<use x="127.246094" xlink:href="#y"/>
<use x="190.869141" xlink:href="#x"/>
</g>
</g>
<g clip-path="url(#a)">
<g transform="translate(832.69 766.4) scale(.1 -.1)">
<use xlink:href="#ag"/>
</g>
</g>
<g clip-path="url(#a)">
<g transform="translate(885.46 766.4) scale(.1 -.1)">
<use xlink:href="#aj"/>
<use x="63.476562" xlink:href="#d"/>
<use x="125" xlink:href="#ao"/>
<use x="160.205078" xlink:href="#o"/>
<use x="221.386719" xlink:href="#f"/>
<use x="260.25" xlink:href="#d"/>
</g>
</g>
<g clip-path="url(#a)">
<g transform="translate(953.55 766.4) scale(.1 -.1)">
<use xlink:href="#t"/>
<use x="52.099609" xlink:href="#g"/>
<use x="79.882812" xlink:href="#ab"/>
<use x="143.359375" xlink:href="#e"/>
<use x="206.738281" xlink:href="#g"/>
<use x="234.521484" xlink:href="#e"/>
<use x="297.900391" xlink:href="#ab"/>
</g>
</g>
<g clip-path="url(#a)">
<g transform="translate(1033.9 766.4) scale(.1 -.1)">
<use xlink:href="#ah"/>
<use x="81.787109" xlink:href="#g"/>
<use x="109.570312" xlink:href="#aa"/>
<use x="148.779297" xlink:href="#ai"/>
</g>
</g>
<g clip-path="url(#a)">
<defs>
<path id="ar" d="m9.8125 72.906h14.703l18.594-49.609 18.703 49.609h14.703v-72.906h-9.625v64.016l-18.797-50h-9.9062l-18.797 50v-64.016h-9.5781z"/>
</defs>
<g transform="translate(1100.5 766.4) scale(.1 -.1)">
<use xlink:href="#ar"/>
<use x="86.279297" xlink:href="#o"/>
<use x="147.460938" xlink:href="#aa"/>
<use x="186.669922" xlink:href="#o"/>
<use x="247.851562" xlink:href="#ah"/>
<use x="329.638672" xlink:href="#e"/>
</g>
</g>
<g clip-path="url(#a)">
<g transform="translate(1178.8 766.4) scale(.1 -.1)">
<use xlink:href="#s"/>
<use x="64.982422" xlink:href="#d"/>
<use x="126.505859" xlink:href="#q"/>
<use x="181.486328" xlink:href="#o"/>
<use x="242.667969" xlink:href="#f"/>
<use x="282.03125" xlink:href="#ac"/>
<use x="345.507812" xlink:href="#t"/>
</g>
</g>
<g clip-path="url(#a)">
<g transform="translate(1275.4 766.4) scale(.1 -.1)">
<use xlink:href="#g"/>
<use x="27.783203" xlink:href="#e"/>
</g>
</g>
<g clip-path="url(#a)">
<defs>
<path id="w" d="m31.781 34.625q-7.0312 0-11.062-3.7656-4.0156-3.7656-4.0156-10.344 0-6.5938 4.0156-10.359 4.0312-3.7656 11.062-3.7656t11.078 3.7812q4.0625 3.7969 4.0625 10.344 0 6.5781-4.0312 10.344-4.0156 3.7656-11.109 3.7656zm-9.8594 4.1875q-6.3438 1.5625-9.8906 5.9062-3.5312 4.3594-3.5312 10.609 0 8.7344 6.2188 13.812 6.2344 5.0781 17.062 5.0781 10.891 0 17.094-5.0781t6.2031-13.812q0-6.25-3.5469-10.609-3.5312-4.3438-9.8281-5.9062 7.125-1.6562 11.094-6.5 3.9844-4.8281 3.9844-11.797 0-10.609-6.4688-16.281-6.4688-5.6562-18.531-5.6562-12.047 0-18.531 5.6562-6.4688 5.6719-6.4688 16.281 0 6.9688 4 11.797 4.0156 4.8438 11.141 6.5zm-3.6094 15.578q0-5.6562 3.5312-8.8281 3.5469-3.1719 9.9375-3.1719 6.3594 0 9.9375 3.1719 3.5938 3.1719 3.5938 8.8281 0 5.6719-3.5938 8.8438-3.5781 3.1719-9.9375 3.1719-6.3906 0-9.9375-3.1719-3.5312-3.1719-3.5312-8.8438z"/>
</defs>
<g transform="translate(1351.3 766.4) scale(.1 -.1)">
<use xlink:href="#c"/>
<use x="63.623047" xlink:href="#v"/>
<use x="127.246094" xlink:href="#y"/>
<use x="190.869141" xlink:href="#w"/>
</g>
</g>
<g clip-path="url(#a)">
<defs>
<path id="h" d="m10.688 12.406h10.312v-12.406h-10.312z"/>
</defs>
<g transform="translate(1449.3 766.4) scale(.1 -.1)">
<use xlink:href="#h"/>
</g>
</g>
<g clip-path="url(#a)">
<g transform="translate(726.96 39.123) scale(.1 -.1)">
<use xlink:href="#c"/>
<use x="63.623047" xlink:href="#h"/>
<use x="95.410156" xlink:href="#c"/>
</g>
</g>
<g clip-path="url(#a)">
<defs>
<path id="n" d="m19.188 8.2969h34.422v-8.2969h-46.281v8.2969q5.6094 5.8125 15.297 15.594 9.7031 9.7969 12.188 12.641 4.7344 5.3125 6.6094 9 1.8906 3.6875 1.8906 7.25 0 5.8125-4.0781 9.4688-4.0781 3.6719-10.625 3.6719-4.6406 0-9.7969-1.6094-5.1406-1.6094-11-4.8906v9.9688q5.9531 2.3906 11.125 3.6094 5.1875 1.2188 9.4844 1.2188 11.328 0 18.062-5.6719 6.7344-5.6562 6.7344-15.125 0-4.5-1.6875-8.5312-1.6719-4.0156-6.125-9.4844-1.2188-1.4219-7.7656-8.1875-6.5312-6.7656-18.453-18.922z"/>
</defs>
<g transform="translate(316.63 185.87) scale(.1 -.1)">
<use xlink:href="#c"/>
<use x="63.623047" xlink:href="#h"/>
<use x="95.410156" xlink:href="#n"/>
</g>
</g>
<g clip-path="url(#a)">
<defs>
<path id="m" d="m40.578 39.312q7.0781-1.5156 11.047-6.3125 3.9844-4.7812 3.9844-11.812 0-10.781-7.4219-16.703-7.4219-5.9062-21.094-5.9062-4.5781 0-9.4375 0.90625t-10.031 2.7188v9.5156q4.0938-2.3906 8.9688-3.6094 4.8906-1.2188 10.219-1.2188 9.2656 0 14.125 3.6562t4.8594 10.641q0 6.4531-4.5156 10.078-4.5156 3.6406-12.562 3.6406h-8.5v8.1094h8.8906q7.2656 0 11.125 2.9062t3.8594 8.375q0 5.6094-3.9844 8.6094-3.9688 3.0156-11.391 3.0156-4.0625 0-8.7031-0.89062-4.6406-0.875-10.203-2.7188v8.7812q5.625 1.5625 10.531 2.3438t9.25 0.78125q11.234 0 17.766-5.1094 6.5469-5.0938 6.5469-13.781 0-6.0625-3.4688-10.234t-9.8594-5.7812z"/>
</defs>
<g transform="translate(893.59 623.26) scale(.1 -.1)">
<use xlink:href="#c"/>
<use x="63.623047" xlink:href="#h"/>
<use x="95.410156" xlink:href="#m"/>
</g>
</g>
<g clip-path="url(#a)">
<defs>
<path id="z" d="m37.797 64.312-24.906-38.922h24.906zm-2.5938 8.5938h12.406v-47.516h10.406v-8.2031h-10.406v-17.188h-9.8125v17.188h-32.906v9.5156z"/>
</defs>
<g transform="translate(871.29 332.26) scale(.1 -.1)">
<use xlink:href="#c"/>
<use x="63.623047" xlink:href="#h"/>
<use x="95.410156" xlink:href="#z"/>
</g>
</g>
<g clip-path="url(#a)">
<g transform="translate(963.67 623.26) scale(.1 -.1)">
<use xlink:href="#c"/>
<use x="63.623047" xlink:href="#h"/>
<use x="95.410156" xlink:href="#x"/>
</g>
</g>
<g clip-path="url(#a)">
<g transform="translate(1094 478.14) scale(.1 -.1)">
<use xlink:href="#c"/>
<use x="63.623047" xlink:href="#h"/>
<use x="95.410156" xlink:href="#w"/>
</g>
</g>
<g clip-path="url(#a)">
<g transform="translate(1357 478.14) scale(.1 -.1)">
<use xlink:href="#c"/>
<use x="63.623047" xlink:href="#h"/>
<use x="95.410156" xlink:href="#v"/>
</g>
</g>
<g clip-path="url(#a)">
<defs>
<path id="af" d="m31.781 66.406q-7.6094 0-11.453-7.5-3.8281-7.4844-3.8281-22.531 0-14.984 3.8281-22.484 3.8438-7.5 11.453-7.5 7.6719 0 11.5 7.5 3.8438 7.5 3.8438 22.484 0 15.047-3.8438 22.531-3.8281 7.5-11.5 7.5zm0 7.8125q12.266 0 18.734-9.7031 6.4688-9.6875 6.4688-28.141 0-18.406-6.4688-28.109-6.4688-9.6875-18.734-9.6875-12.25 0-18.719 9.6875-6.4688 9.7031-6.4688 28.109 0 18.453 6.4688 28.141 6.4688 9.7031 18.719 9.7031z"/>
</defs>
<g transform="translate(1268.8 623.26) scale(.1 -.1)">
<use xlink:href="#c"/>
<use x="63.623047" xlink:href="#h"/>
<use x="95.410156" xlink:href="#c"/>
<use x="159.033203" xlink:href="#af"/>
</g>
</g>
<g clip-path="url(#a)">
<g transform="translate(1352.9 623.26) scale(.1 -.1)">
<use xlink:href="#c"/>
<use x="63.623047" xlink:href="#h"/>
<use x="95.410156" xlink:href="#c"/>
<use x="159.033203" xlink:href="#c"/>
</g>
</g>
<g clip-path="url(#a)">
<g transform="translate(1033.4 623.26) scale(.1 -.1)">
<use xlink:href="#c"/>
<use x="63.623047" xlink:href="#h"/>
<use x="95.410156" xlink:href="#c"/>
<use x="159.033203" xlink:href="#n"/>
</g>
</g>
<g clip-path="url(#a)">
<g transform="translate(1148.3 623.26) scale(.1 -.1)">
<use xlink:href="#c"/>
<use x="63.623047" xlink:href="#h"/>
<use x="95.410156" xlink:href="#c"/>
<use x="159.033203" xlink:href="#m"/>
</g>
</g>
<g clip-path="url(#a)">
<g transform="translate(67.301 623.26) scale(.1 -.1)">
<use xlink:href="#c"/>
<use x="63.623047" xlink:href="#h"/>
<use x="95.410156" xlink:href="#c"/>
<use x="159.033203" xlink:href="#z"/>
</g>
</g>
<g clip-path="url(#a)">
<g transform="translate(91.593 623.26) scale(.1 -.1)">
<use xlink:href="#c"/>
<use x="63.623047" xlink:href="#h"/>
<use x="95.410156" xlink:href="#c"/>
<use x="159.033203" xlink:href="#ae"/>
</g>
</g>
<g clip-path="url(#a)">
<g transform="translate(149.29 332.26) scale(.1 -.1)">
<use xlink:href="#c"/>
<use x="63.623047" xlink:href="#h"/>
<use x="95.410156" xlink:href="#c"/>
<use x="159.033203" xlink:href="#y"/>
</g>
</g>
<g clip-path="url(#a)">
<g transform="translate(509.69 332.26) scale(.1 -.1)">
<use xlink:href="#c"/>
<use x="63.623047" xlink:href="#h"/>
<use x="95.410156" xlink:href="#c"/>
<use x="159.033203" xlink:href="#x"/>
</g>
</g>
<g clip-path="url(#a)">
<g transform="translate(727.85 478.14) scale(.1 -.1)">
<use xlink:href="#c"/>
<use x="63.623047" xlink:href="#h"/>
<use x="95.410156" xlink:href="#c"/>
<use x="159.033203" xlink:href="#w"/>
</g>
</g>
<g clip-path="url(#a)">
<g transform="translate(697.01 623.26) scale(.1 -.1)">
<use xlink:href="#c"/>
<use x="63.623047" xlink:href="#h"/>
<use x="95.410156" xlink:href="#n"/>
<use x="159.033203" xlink:href="#c"/>
</g>
</g>
<g clip-path="url(#a)">
<g transform="translate(758.68 623.26) scale(.1 -.1)">
<use xlink:href="#c"/>
<use x="63.623047" xlink:href="#h"/>
<use x="95.410156" xlink:href="#n"/>
<use x="159.033203" xlink:href="#n"/>
</g>
</g>
<g clip-path="url(#a)">
<g transform="translate(385.89 623.26) scale(.1 -.1)">
<use xlink:href="#c"/>
<use x="63.623047" xlink:href="#h"/>
<use x="95.410156" xlink:href="#n"/>
<use x="159.033203" xlink:href="#m"/>
</g>
</g>
<g clip-path="url(#a)">
<g transform="translate(505.02 478.14) scale(.1 -.1)">
<use xlink:href="#c"/>
<use x="63.623047" xlink:href="#h"/>
<use x="95.410156" xlink:href="#n"/>
<use x="159.033203" xlink:href="#z"/>
</g>
</g>
<g clip-path="url(#a)">
<g transform="translate(638.15 623.26) scale(.1 -.1)">
<use xlink:href="#c"/>
<use x="63.623047" xlink:href="#h"/>
<use x="95.410156" xlink:href="#n"/>
<use x="159.033203" xlink:href="#ae"/>
</g>
</g>
<g clip-path="url(#a)">
<g transform="translate(430.74 623.26) scale(.1 -.1)">
<use xlink:href="#c"/>
<use x="63.623047" xlink:href="#h"/>
<use x="95.410156" xlink:href="#n"/>
<use x="159.033203" xlink:href="#y"/>
</g>
</g>
<g clip-path="url(#a)">
<g transform="translate(478.39 623.26) scale(.1 -.1)">
<use xlink:href="#c"/>
<use x="63.623047" xlink:href="#h"/>
<use x="95.410156" xlink:href="#n"/>
<use x="159.033203" xlink:href="#x"/>
</g>
</g>
<g clip-path="url(#a)">
<g transform="translate(528.84 623.26) scale(.1 -.1)">
<use xlink:href="#c"/>
<use x="63.623047" xlink:href="#h"/>
<use x="95.410156" xlink:href="#n"/>
<use x="159.033203" xlink:href="#w"/>
</g>
</g>
<g clip-path="url(#a)">
<g transform="translate(582.1 623.26) scale(.1 -.1)">
<use xlink:href="#c"/>
<use x="63.623047" xlink:href="#h"/>
<use x="95.410156" xlink:href="#n"/>
<use x="159.033203" xlink:href="#v"/>
</g>
</g>
<g clip-path="url(#a)">
<g transform="translate(108.41 623.26) scale(.1 -.1)">
<use xlink:href="#c"/>
<use x="63.623047" xlink:href="#h"/>
<use x="95.410156" xlink:href="#m"/>
<use x="159.033203" xlink:href="#af"/>
</g>
</g>
<g clip-path="url(#a)">
<g transform="translate(128.03 623.26) scale(.1 -.1)">
<use xlink:href="#c"/>
<use x="63.623047" xlink:href="#h"/>
<use x="95.410156" xlink:href="#m"/>
<use x="159.033203" xlink:href="#c"/>
</g>
</g>
<g clip-path="url(#a)">
<g transform="translate(210.25 478.14) scale(.1 -.1)">
<use xlink:href="#c"/>
<use x="63.623047" xlink:href="#h"/>
<use x="95.410156" xlink:href="#m"/>
<use x="159.033203" xlink:href="#n"/>
</g>
</g>
<g clip-path="url(#a)">
<g transform="translate(150.45 623.26) scale(.1 -.1)">
<use xlink:href="#c"/>
<use x="63.623047" xlink:href="#h"/>
<use x="95.410156" xlink:href="#m"/>
<use x="159.033203" xlink:href="#m"/>
</g>
</g>
<g clip-path="url(#a)">
<g transform="translate(175.68 623.26) scale(.1 -.1)">
<use xlink:href="#c"/>
<use x="63.623047" xlink:href="#h"/>
<use x="95.410156" xlink:href="#m"/>
<use x="159.033203" xlink:href="#z"/>
</g>
</g>
<g clip-path="url(#a)">
<g transform="translate(251.36 623.26) scale(.1 -.1)">
<use xlink:href="#c"/>
<use x="63.623047" xlink:href="#h"/>
<use x="95.410156" xlink:href="#m"/>
<use x="159.033203" xlink:href="#ae"/>
</g>
</g>
<g clip-path="url(#a)">
<g transform="translate(203.71 623.26) scale(.1 -.1)">
<use xlink:href="#c"/>
<use x="63.623047" xlink:href="#h"/>
<use x="95.410156" xlink:href="#m"/>
<use x="159.033203" xlink:href="#y"/>
</g>
</g>
<g clip-path="url(#a)">
<g transform="translate(304.61 623.26) scale(.1 -.1)">
<use xlink:href="#c"/>
<use x="63.623047" xlink:href="#h"/>
<use x="95.410156" xlink:href="#m"/>
<use x="159.033203" xlink:href="#x"/>
</g>
</g>
<g clip-path="url(#a)">
<g transform="translate(343.85 623.26) scale(.1 -.1)">
<use xlink:href="#c"/>
<use x="63.623047" xlink:href="#h"/>
<use x="95.410156" xlink:href="#m"/>
<use x="159.033203" xlink:href="#w"/>
</g>
</g>
<g clip-path="url(#a)">
<g transform="translate(823.14 623.26) scale(.1 -.1)">
<use xlink:href="#c"/>
<use x="63.623047" xlink:href="#h"/>
<use x="95.410156" xlink:href="#m"/>
<use x="159.033203" xlink:href="#v"/>
</g>
</g>
<g clip-path="url(#a)">
<g transform="translate(1439.8 623.26) scale(.1 -.1)">
<use xlink:href="#c"/>
<use x="63.623047" xlink:href="#h"/>
<use x="95.410156" xlink:href="#z"/>
<use x="159.033203" xlink:href="#af"/>
</g>
</g>
<defs>
<clipPath id="a">
<rect width="1520" height="800"/>
</clipPath>
</defs>
</svg>
