<?xml version="1.0" encoding="UTF-8"?>
<!DOCTYPE svg  PUBLIC '-//W3C//DTD SVG 1.1//EN'  'http://www.w3.org/Graphics/SVG/1.1/DTD/svg11.dtd'>
<svg width="1520pt" height="800pt" version="1.1" viewBox="0 0 1520 800" xmlns="http://www.w3.org/2000/svg" xmlns:xlink="http://www.w3.org/1999/xlink">
<defs>
<style type="text/css">*{stroke-linecap:butt;stroke-linejoin:round;}</style>
</defs>
<path d="m0 800h1520v-800h-1520z" fill="#fff"/>
<g fill="none" stroke="#000">
<path d="m622.5 36.364-535.89 366.15" clip-path="url(#a)"/>
<path d="m622.5 36.364-399.8 122.32" clip-path="url(#a)"/>
<path d="m622.5 36.364 85.643 608.21" clip-path="url(#a)"/>
<path d="m622.5 36.364 224.39 244.39" clip-path="url(#a)"/>
<path d="m622.5 36.364 421.99 608.21" clip-path="url(#a)"/>
<path d="m622.5 36.364 660.23 487.5" clip-path="url(#a)"/>
<path d="m622.5 36.364-483.34 608.21" clip-path="url(#a)"/>
<path d="m622.5 36.364 26.783 608.21" clip-path="url(#a)"/>
<path d="m86.609 402.51-17.518 242.06" clip-path="url(#a)"/>
<path d="m86.609 402.51-9.1093 242.06" clip-path="url(#a)"/>
<path d="m86.609 402.51 2.1022 242.06" clip-path="url(#a)"/>
<path d="m86.609 402.51 24.525 121.35" clip-path="url(#a)"/>
<path d="m222.71 158.68-61.12 485.9" clip-path="url(#a)"/>
<path d="m222.71 158.68-35.894 485.9" clip-path="url(#a)"/>
<path d="m222.71 158.68-7.8656 485.9" clip-path="url(#a)"/>
<path d="m222.71 158.68 104.88 122.07" clip-path="url(#a)"/>
<path d="m708.15 644.58v119.06" clip-path="url(#a)"/>
<path d="m846.89 280.75-77.079 363.83" clip-path="url(#a)"/>
<path d="m846.89 280.75-12.613 363.83" clip-path="url(#a)"/>
<path d="m846.89 280.75 89.692 121.76" clip-path="url(#a)"/>
<path d="m1044.5 644.58v119.06" clip-path="url(#a)"/>
<path d="m1282.7 523.86-162.57 120.72" clip-path="url(#a)"/>
<path d="m1282.7 523.86-84.086 120.72" clip-path="url(#a)"/>
<path d="m1282.7 523.86-2.8029 120.72" clip-path="url(#a)"/>
<path d="m1282.7 523.86 81.283 120.72" clip-path="url(#a)"/>
<path d="m1282.7 523.86 168.17 120.72" clip-path="url(#a)"/>
<path d="m1120.2 644.58v119.06" clip-path="url(#a)"/>
<path d="m1198.7 644.58v119.06" clip-path="url(#a)"/>
<path d="m1279.9 644.58v119.06" clip-path="url(#a)"/>
<path d="m1364 644.58v119.06" clip-path="url(#a)"/>
<path d="m769.81 644.58v119.06" clip-path="url(#a)"/>
<path d="m834.28 644.58v119.06" clip-path="url(#a)"/>
<path d="m936.58 402.51v121.35" clip-path="url(#a)"/>
<path d="m936.58 523.86-35.036 120.72" clip-path="url(#a)"/>
<path d="m936.58 523.86 35.036 120.72" clip-path="url(#a)"/>
<path d="m901.55 644.58v119.06" clip-path="url(#a)"/>
<path d="m971.62 644.58v119.06" clip-path="url(#a)"/>
<path d="m161.59 644.58v119.06" clip-path="url(#a)"/>
<path d="m186.81 644.58v119.06" clip-path="url(#a)"/>
<path d="m214.84 644.58v119.06" clip-path="url(#a)"/>
<path d="m327.59 280.75-81.914 363.83" clip-path="url(#a)"/>
<path d="m327.59 280.75-48.28 363.83" clip-path="url(#a)"/>
<path d="m327.59 280.75 7.778 243.11" clip-path="url(#a)"/>
<path d="m327.59 280.75 122.42 121.76" clip-path="url(#a)"/>
<path d="m245.67 644.58v119.06" clip-path="url(#a)"/>
<path d="m279.31 644.58v119.06" clip-path="url(#a)"/>
<path d="m335.36 523.86-19.62 120.72" clip-path="url(#a)"/>
<path d="m335.36 523.86 19.62 120.72" clip-path="url(#a)"/>
<path d="m450 402.51-52.974 242.06" clip-path="url(#a)"/>
<path d="m450 402.51-8.1283 242.06" clip-path="url(#a)"/>
<path d="m450 402.51 39.521 242.06" clip-path="url(#a)"/>
<path d="m450 402.51 116.6 121.35" clip-path="url(#a)"/>
<path d="m450 402.51-95.018 242.06" clip-path="url(#a)" stroke-dasharray="3.7,1.6"/>
<path d="m397.03 644.58v119.06" clip-path="url(#a)"/>
<path d="m441.87 644.58v119.06" clip-path="url(#a)"/>
<path d="m489.52 644.58v119.06" clip-path="url(#a)"/>
<path d="m566.6 523.86-26.627 120.72" clip-path="url(#a)"/>
<path d="m566.6 523.86 26.627 120.72" clip-path="url(#a)"/>
<path d="m539.97 644.58v119.06" clip-path="url(#a)"/>
<path d="m593.23 644.58v119.06" clip-path="url(#a)"/>
<path d="m315.74 644.58v119.06" clip-path="url(#a)"/>
<path d="m354.98 644.58v119.06" clip-path="url(#a)"/>
<path d="m69.091 644.58v119.06" clip-path="url(#a)"/>
<path d="m77.5 644.58v119.06" clip-path="url(#a)"/>
<path d="m88.711 644.58v119.06" clip-path="url(#a)"/>
<path d="m111.13 523.86-8.4086 120.72" clip-path="url(#a)"/>
<path d="m111.13 523.86 8.4086 120.72" clip-path="url(#a)"/>
<path d="m102.73 644.58v119.06" clip-path="url(#a)"/>
<path d="m119.54 644.58v119.06" clip-path="url(#a)"/>
<path d="m139.16 644.58v119.06" clip-path="url(#a)"/>
<path d="m649.29 644.58v119.06" clip-path="url(#a)"/>
<path d="m1450.9 644.58v119.06" clip-path="url(#a)"/>
</g>
<path d="m355.61 226.31 4.9675-3.394q1.9816-1.3539 0.62769-3.3356l-4.3679-6.3928q-1.3539-1.9816-3.3356-0.62769l-4.9675 3.394q-1.9816 1.3539-0.62769 3.3356l4.3679 6.3928q1.3539 1.9816 3.3356 0.62769z" clip-path="url(#a)" fill="#fff" stroke="#fff"/>
<g clip-path="url(#a)">
<defs>
<path id="t" d="m9.8125 72.906h9.8594v-29.891h35.844v29.891h9.8594v-72.906h-9.8594v34.719h-35.844v-34.719h-9.8594z"/>
</defs>
<g transform="translate(353.32 222.96) rotate(-34.343) scale(.08 -.08)">
<use xlink:href="#t"/>
</g>
</g>
<path d="m421.56 104.4 5.753-1.7601q2.295-0.70214 1.5929-2.9971l-2.2651-7.4037q-0.70214-2.295-2.9971-1.5929l-5.753 1.7601q-2.295 0.70214-1.5929 2.9971l2.2651 7.4037q0.70214 2.295 2.9971 1.5929z" clip-path="url(#a)" fill="#fff" stroke="#fff"/>
<g clip-path="url(#a)">
<g transform="translate(420.37 100.51) rotate(-17.011) scale(.08 -.08)">
<use xlink:href="#t"/>
</g>
</g>
<path d="m658.8 339.14 0.62154 4.414q0.33464 2.3766 2.7112 2.0419l7.6669-1.0796q2.3766-0.33465 2.0419-2.7112l-0.62154-4.414q-0.33464-2.3766-2.7112-2.0419l-7.6669 1.0796q-2.3766 0.33465-2.0419 2.7112z" clip-path="url(#a)" fill="#fff" stroke="#fff"/>
<g clip-path="url(#a)">
<defs>
<path id="an" d="m9.8125 72.906h9.8594v-64.609h35.5v-8.2969h-45.359z"/>
</defs>
<g transform="translate(662.83 338.57) rotate(81.985) scale(.08 -.08)">
<use xlink:href="#an"/>
</g>
</g>
<path d="m728.04 160.58 4.0689 4.4316q1.6232 1.7679 3.391 0.14468l5.7032-5.2364q1.7679-1.6232 0.14468-3.391l-4.0689-4.4316q-1.6232-1.7679-3.391-0.14468l-5.7032 5.2364q-1.7679 1.6232-0.14468 3.391z" clip-path="url(#a)" fill="#fff" stroke="#fff"/>
<g clip-path="url(#a)">
<g transform="translate(731.04 157.83) rotate(47.443) scale(.08 -.08)">
<use xlink:href="#t"/>
</g>
</g>
<path d="m827.07 342.21 2.541 3.6623q1.3681 1.9719 3.34 0.60375l6.3613-4.4136q1.9719-1.3681 0.60375-3.34l-2.541-3.6623q-1.3681-1.9719-3.34-0.60375l-6.3613 4.4136q-1.9719 1.3681-0.60375 3.34z" clip-path="url(#a)" fill="#fff" stroke="#fff"/>
<g clip-path="url(#a)">
<g transform="translate(830.41 339.9) rotate(55.246) scale(.08 -.08)">
<use xlink:href="#an"/>
</g>
</g>
<path d="m946.47 283.37 4.8399 3.5736q1.9307 1.4256 3.3563-0.50513l4.599-6.2286q1.4256-1.9307-0.50513-3.3563l-4.8399-3.5736q-1.9307-1.4256-3.3563 0.50513l-4.599 6.2286q-1.4256 1.9307 0.50513 3.3563z" clip-path="url(#a)" fill="#fff" stroke="#fff"/>
<g clip-path="url(#a)">
<g transform="translate(948.89 280.1) rotate(36.441) scale(.08 -.08)">
<use xlink:href="#t"/>
</g>
</g>
<path d="m383.92 346.66 3.6427-4.5838q1.4932-1.8789-0.38577-3.3721l-6.0615-4.817q-1.8789-1.4932-3.3721 0.38577l-3.6427 4.5838q-1.4932 1.8789 0.38577 3.3721l6.0615 4.817q1.8789 1.4932 3.3721-0.38577z" clip-path="url(#a)" fill="#fff" stroke="#fff"/>
<g clip-path="url(#a)">
<defs>
<path id="ac" d="m8.6875 72.906h9.9219v-44.297q0-11.719 4.2344-16.875 4.25-5.1406 13.781-5.1406 9.4688 0 13.719 5.1406 4.25 5.1562 4.25 16.875v44.297h9.9062v-45.516q0-14.25-7.0625-21.531-7.0469-7.2812-20.812-7.2812-13.828 0-20.891 7.2812-7.0469 7.2812-7.0469 21.531z"/>
</defs>
<g transform="translate(380.74 344.14) rotate(-51.526) scale(.08 -.08)">
<use xlink:href="#ac"/>
</g>
</g>
<path d="m629.5 337.82 0.25758 5.8493q0.10558 2.3977 2.5033 2.2921l7.735-0.34061q2.3977-0.10558 2.2921-2.5033l-0.25758-5.8493q-0.10558-2.3977-2.5033-2.2921l-7.735 0.34061q-2.3977 0.10558-2.2921 2.5033z" clip-path="url(#a)" fill="#fff" stroke="#fff"/>
<g clip-path="url(#a)">
<g transform="translate(633.56 337.64) rotate(87.479) scale(.08 -.08)">
<use xlink:href="#ac"/>
</g>
</g>
<path d="m83.907 526.73 0.39501-5.4582q0.17323-2.3937-2.2205-2.567l-7.7223-0.55886q-2.3937-0.17323-2.567 2.2205l-0.39501 5.4582q-0.17323 2.3937 2.2205 2.567l7.7223 0.55885q2.3937 0.17323 2.567-2.2205z" clip-path="url(#a)" fill="#fff" stroke="#fff"/>
<g clip-path="url(#a)">
<defs>
<path id="o" d="m34.188 63.188-13.391-36.281h26.812zm-5.5781 9.7188h11.188l27.781-72.906h-10.25l-6.6406 18.703h-32.859l-6.6406-18.703h-10.406z"/>
</defs>
<g transform="translate(79.854 526.43) rotate(-85.861) scale(.08 -.08)">
<use xlink:href="#o"/>
</g>
</g>
<path d="m88.205 526.86 0.23165-6.1556q0.090252-2.3983-2.308-2.4886l-7.737-0.29116q-2.3983-0.090252-2.4886 2.308l-0.23165 6.1556q-0.090252 2.3983 2.308 2.4886l7.737 0.29116q2.3983 0.090253 2.4886-2.308z" clip-path="url(#a)" fill="#fff" stroke="#fff"/>
<g clip-path="url(#a)">
<defs>
<path id="af" d="m19.672 64.797v-56.688h11.922q15.094 0 22.094 6.8281 7 6.8438 7 21.594 0 14.641-7 21.453t-22.094 6.8125zm-9.8594 8.1094h20.266q21.188 0 31.094-8.8125 9.9219-8.8125 9.9219-27.562 0-18.859-9.9688-27.703-9.9531-8.8281-31.047-8.8281h-20.266z"/>
</defs>
<g transform="translate(84.144 526.71) rotate(-87.845) scale(.08 -.08)">
<use xlink:href="#af"/>
</g>
</g>
<path d="m81.368 521.19 0.041889 4.8236q0.020841 2.3999 2.4208 2.3791l7.7422-0.067236q2.3999-0.020841 2.3791-2.4208l-0.041889-4.8236q-0.020842-2.3999-2.4208-2.3791l-7.7422 0.067235q-2.3999 0.020842-2.3791 2.4208z" clip-path="url(#a)" fill="#fff" stroke="#fff"/>
<g clip-path="url(#a)">
<defs>
<path id="u" d="m19.672 64.797v-27.391h12.406q6.8906 0 10.641 3.5625 3.7656 3.5625 3.7656 10.156 0 6.5469-3.7656 10.109-3.75 3.5625-10.641 3.5625zm-9.8594 8.1094h22.266q12.266 0 18.531-5.5469 6.2812-5.5469 6.2812-16.234 0-10.797-6.2812-16.312-6.2656-5.5156-18.531-5.5156h-12.406v-29.297h-9.8594z"/>
</defs>
<g transform="translate(85.432 521.15) rotate(89.502) scale(.08 -.08)">
<use xlink:href="#u"/>
</g>
</g>
<path d="m92.241 462.03 0.96796 4.7894q0.47544 2.3524 2.8279 1.877l7.5891-1.5338q2.3524-0.47544 1.877-2.8279l-0.96796-4.7894q-0.47544-2.3524-2.8279-1.877l-7.5891 1.5338q-2.3524 0.47544-1.877 2.8279z" clip-path="url(#a)" fill="#fff" stroke="#fff"/>
<g clip-path="url(#a)">
<defs>
<path id="k" d="m-0.29688 72.906h61.672v-8.3125h-25.875v-64.594h-9.9062v64.594h-25.891z"/>
</defs>
<g transform="translate(96.224 461.23) rotate(78.574) scale(.08 -.08)">
<use xlink:href="#k"/>
</g>
</g>
<path d="m198.03 405.13 0.683-5.4297q0.29953-2.3812-2.0817-2.6808l-7.682-0.9663q-2.3812-0.29953-2.6808 2.0817l-0.683 5.4297q-0.29953 2.3812 2.0817 2.6808l7.682 0.9663q2.3812 0.29953 2.6808-2.0817z" clip-path="url(#a)" fill="#fff" stroke="#fff"/>
<g clip-path="url(#a)">
<g transform="translate(193.99 404.62) rotate(-82.831) scale(.08 -.08)">
<use xlink:href="#o"/>
</g>
</g>
<path d="m210.79 405.16 0.45382-6.1433q0.17681-2.3935-2.2167-2.5703l-7.7215-0.5704q-2.3935-0.17681-2.5703 2.2167l-0.45382 6.1433q-0.17681 2.3935 2.2167 2.5703l7.7215 0.5704q2.3935 0.17681 2.5703-2.2167z" clip-path="url(#a)" fill="#fff" stroke="#fff"/>
<g clip-path="url(#a)">
<g transform="translate(206.73 404.86) rotate(-85.775) scale(.08 -.08)">
<use xlink:href="#af"/>
</g>
</g>
<path d="m225 404.27 0.082202-5.0781q0.038846-2.3997-2.3608-2.4385l-7.7415-0.12532q-2.3997-0.038846-2.4385 2.3608l-0.082202 5.0781q-0.038846 2.3997 2.3608 2.4385l7.7415 0.12532q2.3997 0.038845 2.4385-2.3608z" clip-path="url(#a)" fill="#fff" stroke="#fff"/>
<g clip-path="url(#a)">
<defs>
<path id="am" d="m53.516 70.516v-9.625q-5.6094 2.6875-10.594 4-4.9844 1.3281-9.625 1.3281-8.0469 0-12.422-3.125t-4.375-8.8906q0-4.8438 2.9062-7.3125 2.9062-2.4531 11.016-3.9688l5.9531-1.2188q11.031-2.1094 16.281-7.4062t5.25-14.172q0-10.609-7.1094-16.078-7.0938-5.4688-20.812-5.4688-5.1719 0-11.016 1.1719-5.8281 1.1719-12.078 3.4688v10.156q6-3.3594 11.766-5.0781 5.7656-1.7031 11.328-1.7031 8.4375 0 13.031 3.3125 4.5938 3.3281 4.5938 9.4844 0 5.3594-3.2969 8.3906t-10.812 4.5469l-6.0156 1.1719q-11.031 2.1875-15.969 6.875-4.9219 4.6875-4.9219 13.047 0 9.6719 6.8125 15.234t18.766 5.5625q5.1406 0 10.453-0.9375 5.3281-0.92188 10.891-2.7656z"/>
</defs>
<g transform="translate(220.94 404.2) rotate(-89.073) scale(.08 -.08)">
<use xlink:href="#am"/>
</g>
</g>
<path d="m268.61 221.73 3.5663 4.1509q1.564 1.8204 3.3844 0.25635l5.8726-5.0456q1.8204-1.564 0.25635-3.3844l-3.5663-4.1509q-1.564-1.8204-3.3844-0.25635l-5.8726 5.0456q-1.8204 1.564-0.25635 3.3844z" clip-path="url(#a)" fill="#fff" stroke="#fff"/>
<g clip-path="url(#a)">
<g transform="translate(271.69 219.08) rotate(49.331) scale(.08 -.08)">
<use xlink:href="#o"/>
</g>
</g>
<path d="m701.88 687.2v33.808q0 2.4 2.4 2.4h7.7425q2.4 0 2.4-2.4v-33.808q0-2.4-2.4-2.4h-7.7425q-2.4 0-2.4 2.4z" clip-path="url(#a)" fill="#fff" stroke="#fff"/>
<g clip-path="url(#a)">
<defs>
<path id="d" d="m56.203 29.594v-4.3906h-41.312q0.59375-9.2812 5.5938-14.141t13.938-4.8594q5.1719 0 10.031 1.2656t9.6562 3.8125v-8.5q-4.8438-2.0469-9.9219-3.125t-10.297-1.0781q-13.094 0-20.734 7.6094-7.6406 7.625-7.6406 20.625 0 13.422 7.25 21.297 7.25 7.8906 19.562 7.8906 11.031 0 17.453-7.1094 6.4219-7.0938 6.4219-19.297zm-8.9844 2.6406q-0.09375 7.3594-4.125 11.75-4.0312 4.4062-10.672 4.4062-7.5156 0-12.031-4.25t-5.2031-11.969z"/>
<path id="g" d="m41.109 46.297q-1.5156 0.875-3.2969 1.2812-1.7812 0.42188-3.9219 0.42188-7.625 0-11.703-4.9531t-4.0781-14.234v-28.812h-9.0312v54.688h9.0312v-8.5q2.8438 4.9844 7.375 7.3906 4.5469 2.4219 11.047 2.4219 0.92188 0 2.0469-0.125 1.125-0.10938 2.4844-0.35938z"/>
<path id="l" d="m52 44.188q3.375 6.0625 8.0625 8.9375t11.031 2.875q8.5469 0 13.188-5.9844 4.6406-5.9688 4.6406-17v-33.016h-9.0312v32.719q0 7.8594-2.7969 11.656-2.7812 3.8125-8.4844 3.8125-6.9844 0-11.047-4.6406-4.0469-4.625-4.0469-12.641v-30.906h-9.0312v32.719q0 7.9062-2.7812 11.688t-8.5938 3.7812q-6.8906 0-10.953-4.6562-4.0469-4.6562-4.0469-12.625v-30.906h-9.0312v54.688h9.0312v-8.5q3.0781 5.0312 7.375 7.4219t10.203 2.3906q5.9688 0 10.141-3.0312 4.1719-3.0156 6.1719-8.7812z"/>
<path id="h" d="m9.4219 54.688h8.9844v-54.688h-8.9844zm0 21.297h8.9844v-11.391h-8.9844z"/>
<path id="i" d="m54.891 33.016v-33.016h-8.9844v32.719q0 7.7656-3.0312 11.609-3.0312 3.8594-9.0781 3.8594-7.2812 0-11.484-4.6406-4.2031-4.625-4.2031-12.641v-30.906h-9.0312v54.688h9.0312v-8.5q3.2344 4.9375 7.5938 7.375 4.375 2.4375 10.094 2.4375 9.4219 0 14.25-5.8281 4.8438-5.8281 4.8438-17.156z"/>
<path id="e" d="m34.281 27.484q-10.891 0-15.094-2.4844t-4.2031-8.5q0-4.7812 3.1562-7.5938 3.1562-2.7969 8.5625-2.7969 7.4844 0 12 5.2969t4.5156 14.078v2zm17.922 3.7188v-31.203h-8.9844v8.2969q-3.0781-4.9688-7.6719-7.3438t-11.234-2.375q-8.3906 0-13.359 4.7188-4.9531 4.7188-4.9531 12.625 0 9.2188 6.1719 13.906 6.1875 4.6875 18.438 4.6875h12.609v0.89062q0 6.2031-4.0781 9.5938t-11.453 3.3906q-4.6875 0-9.1406-1.125-4.4375-1.125-8.5312-3.375v8.3125q4.9219 1.9062 9.5625 2.8438 4.6406 0.95312 9.0312 0.95312 11.875 0 17.734-6.1562 5.8594-6.1406 5.8594-18.641z"/>
<path id="j" d="m9.4219 75.984h8.9844v-75.984h-8.9844z"/>
</defs>
<g transform="translate(705.94 687.2) rotate(90) scale(.08 -.08)">
<use xlink:href="#k"/>
<use x="44.083984" xlink:href="#d"/>
<use x="105.607422" xlink:href="#g"/>
<use x="144.970703" xlink:href="#l"/>
<use x="242.382812" xlink:href="#h"/>
<use x="270.166016" xlink:href="#i"/>
<use x="333.544922" xlink:href="#e"/>
<use x="394.824219" xlink:href="#j"/>
</g>
</g>
<path d="m813.92 466.64 1.1342-5.3537q0.49742-2.3479-1.8505-2.8453l-7.5744-1.6047q-2.3479-0.49742-2.8453 1.8505l-1.1342 5.3537q-0.49742 2.3479 1.8505 2.8453l7.5744 1.6047q2.3479 0.49742 2.8453-1.8505z" clip-path="url(#a)" fill="#fff" stroke="#fff"/>
<g clip-path="url(#a)">
<g transform="translate(809.94 465.8) rotate(-78.038) scale(.08 -.08)">
<use xlink:href="#o"/>
</g>
</g>
<path d="m846.76 465.42 0.17596-5.0757q0.083152-2.3986-2.3154-2.4817l-7.7379-0.26825q-2.3986-0.083152-2.4817 2.3154l-0.17596 5.0757q-0.083152 2.3986 2.3154 2.4817l7.7379 0.26825q2.3986 0.083152 2.4817-2.3154z" clip-path="url(#a)" fill="#fff" stroke="#fff"/>
<g clip-path="url(#a)">
<g transform="translate(842.7 465.28) rotate(-88.014) scale(.08 -.08)">
<use xlink:href="#am"/>
</g>
</g>
<path d="m885.06 343.15 3.2456 4.4061q1.4234 1.9323 3.3557 0.50894l6.2338-4.5919q1.9323-1.4234 0.50894-3.3557l-3.2456-4.4061q-1.4234-1.9323-3.3557-0.50894l-6.2338 4.5919q-1.9323 1.4234-0.50894 3.3557z" clip-path="url(#a)" fill="#fff" stroke="#fff"/>
<g clip-path="url(#a)">
<g transform="translate(888.34 340.74) rotate(53.624) scale(.08 -.08)">
<use xlink:href="#o"/>
</g>
</g>
<path d="m1038.2 687.2v33.808q0 2.4 2.4 2.4h7.7425q2.4 0 2.4-2.4v-33.808q0-2.4-2.4-2.4h-7.7425q-2.4 0-2.4 2.4z" clip-path="url(#a)" fill="#fff" stroke="#fff"/>
<g clip-path="url(#a)">
<g transform="translate(1042.3 687.2) rotate(90) scale(.08 -.08)">
<use xlink:href="#k"/>
<use x="44.083984" xlink:href="#d"/>
<use x="105.607422" xlink:href="#g"/>
<use x="144.970703" xlink:href="#l"/>
<use x="242.382812" xlink:href="#h"/>
<use x="270.166016" xlink:href="#i"/>
<use x="333.544922" xlink:href="#e"/>
<use x="394.824219" xlink:href="#j"/>
</g>
</g>
<path d="m1202.7 591.09 4.9456-3.6724q1.9269-1.4308 0.49605-3.3577l-4.6159-6.2161q-1.4308-1.9269-3.3577-0.49605l-4.9456 3.6724q-1.9269 1.4308-0.49605 3.3577l4.6159 6.2161q1.4308 1.9269 3.3577 0.49605z" clip-path="url(#a)" fill="#fff" stroke="#fff"/>
<g clip-path="url(#a)">
<g transform="translate(1200.3 587.83) rotate(-36.596) scale(.08 -.08)">
<use xlink:href="#af"/>
</g>
</g>
<path d="m1244.3 590.05 3.1279-4.4905q1.3718-1.9693-0.59757-3.3411l-6.3531-4.4254q-1.9693-1.3718-3.3411 0.59757l-3.1279 4.4905q-1.3718 1.9693 0.59757 3.3411l6.3531 4.4254q1.9693 1.3718 3.3411-0.59757z" clip-path="url(#a)" fill="#fff" stroke="#fff"/>
<g clip-path="url(#a)">
<g transform="translate(1240.9 587.73) rotate(-55.14) scale(.08 -.08)">
<use xlink:href="#o"/>
</g>
</g>
<path d="m1287.6 586.66 0.10681-4.6q0.05571-2.3994-2.3436-2.4551l-7.7404-0.17972q-2.3994-0.05571-2.4551 2.3436l-0.10681 4.6q-0.05571 2.3994 2.3436 2.4551l7.7404 0.17972q2.3994 0.05571 2.4551-2.3436z" clip-path="url(#a)" fill="#fff" stroke="#fff"/>
<g clip-path="url(#a)">
<defs>
<path id="ad" d="m9.8125 72.906h41.891v-8.3125h-32.031v-21.484h28.906v-8.2969h-28.906v-34.812h-9.8594z"/>
</defs>
<g transform="translate(1283.5 586.57) rotate(-88.67) scale(.08 -.08)">
<use xlink:href="#ad"/>
</g>
</g>
<path d="m1316.8 585.72 2.6942 4.0012q1.3405 1.9908 3.3312 0.65029l6.4223-4.3244q1.9908-1.3405 0.65029-3.3312l-2.6942-4.0012q-1.3405-1.9908-3.3312-0.65029l-6.4223 4.3244q-1.9908 1.3405-0.65029 3.3312z" clip-path="url(#a)" fill="#fff" stroke="#fff"/>
<g clip-path="url(#a)">
<g transform="translate(1320.2 583.45) rotate(56.046) scale(.08 -.08)">
<use xlink:href="#u"/>
</g>
</g>
<path d="m1360.8 587.61 4.7565 3.4142q1.9497 1.3995 3.3492-0.55019l4.5149-6.2898q1.3995-1.9497-0.55019-3.3492l-4.7565-3.4142q-1.9497-1.3995-3.3492 0.55019l-4.5149 6.2898q-1.3995 1.9497 0.55019 3.3492z" clip-path="url(#a)" fill="#fff" stroke="#fff"/>
<g clip-path="url(#a)">
<g transform="translate(1363.2 584.3) rotate(35.671) scale(.08 -.08)">
<use xlink:href="#ac"/>
</g>
</g>
<path d="m1113.9 687.2v33.808q0 2.4 2.4 2.4h7.7425q2.4 0 2.4-2.4v-33.808q0-2.4-2.4-2.4h-7.7425q-2.4 0-2.4 2.4z" clip-path="url(#a)" fill="#fff" stroke="#fff"/>
<g clip-path="url(#a)">
<g transform="translate(1118 687.2) rotate(90) scale(.08 -.08)">
<use xlink:href="#k"/>
<use x="44.083984" xlink:href="#d"/>
<use x="105.607422" xlink:href="#g"/>
<use x="144.970703" xlink:href="#l"/>
<use x="242.382812" xlink:href="#h"/>
<use x="270.166016" xlink:href="#i"/>
<use x="333.544922" xlink:href="#e"/>
<use x="394.824219" xlink:href="#j"/>
</g>
</g>
<path d="m1192.4 687.2v33.808q0 2.4 2.4 2.4h7.7425q2.4 0 2.4-2.4v-33.808q0-2.4-2.4-2.4h-7.7425q-2.4 0-2.4 2.4z" clip-path="url(#a)" fill="#fff" stroke="#fff"/>
<g clip-path="url(#a)">
<g transform="translate(1196.4 687.2) rotate(90) scale(.08 -.08)">
<use xlink:href="#k"/>
<use x="44.083984" xlink:href="#d"/>
<use x="105.607422" xlink:href="#g"/>
<use x="144.970703" xlink:href="#l"/>
<use x="242.382812" xlink:href="#h"/>
<use x="270.166016" xlink:href="#i"/>
<use x="333.544922" xlink:href="#e"/>
<use x="394.824219" xlink:href="#j"/>
</g>
</g>
<path d="m1273.7 687.2v33.808q0 2.4 2.4 2.4h7.7425q2.4 0 2.4-2.4v-33.808q0-2.4-2.4-2.4h-7.7425q-2.4 0-2.4 2.4z" clip-path="url(#a)" fill="#fff" stroke="#fff"/>
<g clip-path="url(#a)">
<g transform="translate(1277.7 687.2) rotate(90) scale(.08 -.08)">
<use xlink:href="#k"/>
<use x="44.083984" xlink:href="#d"/>
<use x="105.607422" xlink:href="#g"/>
<use x="144.970703" xlink:href="#l"/>
<use x="242.382812" xlink:href="#h"/>
<use x="270.166016" xlink:href="#i"/>
<use x="333.544922" xlink:href="#e"/>
<use x="394.824219" xlink:href="#j"/>
</g>
</g>
<path d="m1357.7 687.2v33.808q0 2.4 2.4 2.4h7.7425q2.4 0 2.4-2.4v-33.808q0-2.4-2.4-2.4h-7.7425q-2.4 0-2.4 2.4z" clip-path="url(#a)" fill="#fff" stroke="#fff"/>
<g clip-path="url(#a)">
<g transform="translate(1361.8 687.2) rotate(90) scale(.08 -.08)">
<use xlink:href="#k"/>
<use x="44.083984" xlink:href="#d"/>
<use x="105.607422" xlink:href="#g"/>
<use x="144.970703" xlink:href="#l"/>
<use x="242.382812" xlink:href="#h"/>
<use x="270.166016" xlink:href="#i"/>
<use x="333.544922" xlink:href="#e"/>
<use x="394.824219" xlink:href="#j"/>
</g>
</g>
<path d="m763.54 687.2v33.808q0 2.4 2.4 2.4h7.7425q2.4 0 2.4-2.4v-33.808q0-2.4-2.4-2.4h-7.7425q-2.4 0-2.4 2.4z" clip-path="url(#a)" fill="#fff" stroke="#fff"/>
<g clip-path="url(#a)">
<g transform="translate(767.6 687.2) rotate(90) scale(.08 -.08)">
<use xlink:href="#k"/>
<use x="44.083984" xlink:href="#d"/>
<use x="105.607422" xlink:href="#g"/>
<use x="144.970703" xlink:href="#l"/>
<use x="242.382812" xlink:href="#h"/>
<use x="270.166016" xlink:href="#i"/>
<use x="333.544922" xlink:href="#e"/>
<use x="394.824219" xlink:href="#j"/>
</g>
</g>
<path d="m828 687.2v33.808q0 2.4 2.4 2.4h7.7425q2.4 0 2.4-2.4v-33.808q0-2.4-2.4-2.4h-7.7425q-2.4 0-2.4 2.4z" clip-path="url(#a)" fill="#fff" stroke="#fff"/>
<g clip-path="url(#a)">
<g transform="translate(832.07 687.2) rotate(90) scale(.08 -.08)">
<use xlink:href="#k"/>
<use x="44.083984" xlink:href="#d"/>
<use x="105.607422" xlink:href="#g"/>
<use x="144.970703" xlink:href="#l"/>
<use x="242.382812" xlink:href="#h"/>
<use x="270.166016" xlink:href="#i"/>
<use x="333.544922" xlink:href="#e"/>
<use x="394.824219" xlink:href="#j"/>
</g>
</g>
<path d="m930.18 456.69v12.991q0 2.4 2.4 2.4h8q2.4 0 2.4-2.4v-12.991q0-2.4-2.4-2.4h-8q-2.4 0-2.4 2.4z" clip-path="url(#a)" fill="#fff" stroke="#fff"/>
<g clip-path="url(#a)">
<defs>
<path id="au" d="m21 76.422v-100h-8.2969v100z"/>
</defs>
<g transform="translate(934.47 456.69) rotate(90) scale(.08 -.08)">
<use xlink:href="#u"/>
<use x="60.302734" xlink:href="#au"/>
<use x="93.994141" xlink:href="#o"/>
</g>
</g>
<path d="m924.38 588.39 1.409-4.8547q0.66896-2.3049-1.6359-2.9738l-7.4357-2.1581q-2.3049-0.66896-2.9738 1.6359l-1.409 4.8547q-0.66896 2.3049 1.6359 2.9738l7.4357 2.1581q2.3049 0.66896 2.9738-1.6359z" clip-path="url(#a)" fill="#fff" stroke="#fff"/>
<g clip-path="url(#a)">
<defs>
<path id="ae" d="m9.8125 72.906h46.094v-8.3125h-36.234v-21.578h34.719v-8.2969h-34.719v-26.422h37.109v-8.2969h-46.969z"/>
</defs>
<g transform="translate(920.48 587.26) rotate(-73.815) scale(.08 -.08)">
<use xlink:href="#ae"/>
</g>
</g>
<path d="m947.3 583.28 1.5571 5.3649q0.66896 2.3049 2.9738 1.6359l7.4357-2.1581q2.3049-0.66896 1.6359-2.9738l-1.5571-5.3649q-0.66896-2.3049-2.9738-1.6359l-7.4357 2.1581q-2.3049 0.66896-1.6359 2.9738z" clip-path="url(#a)" fill="#fff" stroke="#fff"/>
<g clip-path="url(#a)">
<defs>
<path id="y" d="m64.406 67.281v-10.391q-4.9844 4.6406-10.625 6.9219-5.6406 2.2969-11.984 2.2969-12.5 0-19.141-7.6406t-6.6406-22.094q0-14.406 6.6406-22.047t19.141-7.6406q6.3438 0 11.984 2.2969t10.625 6.9375v-10.312q-5.1719-3.5156-10.969-5.2812-5.7812-1.75-12.219-1.75-16.562 0-26.094 10.125-9.5156 10.141-9.5156 27.672 0 17.578 9.5156 27.703 9.5312 10.141 26.094 10.141 6.5312 0 12.312-1.7344 5.7969-1.7344 10.875-5.2031z"/>
</defs>
<g transform="translate(951.2 582.15) rotate(73.815) scale(.08 -.08)">
<use xlink:href="#y"/>
</g>
</g>
<path d="m895.27 687.2v33.808q0 2.4 2.4 2.4h7.7425q2.4 0 2.4-2.4v-33.808q0-2.4-2.4-2.4h-7.7425q-2.4 0-2.4 2.4z" clip-path="url(#a)" fill="#fff" stroke="#fff"/>
<g clip-path="url(#a)">
<g transform="translate(899.34 687.2) rotate(90) scale(.08 -.08)">
<use xlink:href="#k"/>
<use x="44.083984" xlink:href="#d"/>
<use x="105.607422" xlink:href="#g"/>
<use x="144.970703" xlink:href="#l"/>
<use x="242.382812" xlink:href="#h"/>
<use x="270.166016" xlink:href="#i"/>
<use x="333.544922" xlink:href="#e"/>
<use x="394.824219" xlink:href="#j"/>
</g>
</g>
<path d="m965.35 687.2v33.808q0 2.4 2.4 2.4h7.7425q2.4 0 2.4-2.4v-33.808q0-2.4-2.4-2.4h-7.7425q-2.4 0-2.4 2.4z" clip-path="url(#a)" fill="#fff" stroke="#fff"/>
<g clip-path="url(#a)">
<g transform="translate(969.41 687.2) rotate(90) scale(.08 -.08)">
<use xlink:href="#k"/>
<use x="44.083984" xlink:href="#d"/>
<use x="105.607422" xlink:href="#g"/>
<use x="144.970703" xlink:href="#l"/>
<use x="242.382812" xlink:href="#h"/>
<use x="270.166016" xlink:href="#i"/>
<use x="333.544922" xlink:href="#e"/>
<use x="394.824219" xlink:href="#j"/>
</g>
</g>
<path d="m155.31 687.2v33.808q0 2.4 2.4 2.4h7.7425q2.4 0 2.4-2.4v-33.808q0-2.4-2.4-2.4h-7.7425q-2.4 0-2.4 2.4z" clip-path="url(#a)" fill="#fff" stroke="#fff"/>
<g clip-path="url(#a)">
<g transform="translate(159.38 687.2) rotate(90) scale(.08 -.08)">
<use xlink:href="#k"/>
<use x="44.083984" xlink:href="#d"/>
<use x="105.607422" xlink:href="#g"/>
<use x="144.970703" xlink:href="#l"/>
<use x="242.382812" xlink:href="#h"/>
<use x="270.166016" xlink:href="#i"/>
<use x="333.544922" xlink:href="#e"/>
<use x="394.824219" xlink:href="#j"/>
</g>
</g>
<path d="m180.54 687.2v33.808q0 2.4 2.4 2.4h7.7425q2.4 0 2.4-2.4v-33.808q0-2.4-2.4-2.4h-7.7425q-2.4 0-2.4 2.4z" clip-path="url(#a)" fill="#fff" stroke="#fff"/>
<g clip-path="url(#a)">
<g transform="translate(184.6 687.2) rotate(90) scale(.08 -.08)">
<use xlink:href="#k"/>
<use x="44.083984" xlink:href="#d"/>
<use x="105.607422" xlink:href="#g"/>
<use x="144.970703" xlink:href="#l"/>
<use x="242.382812" xlink:href="#h"/>
<use x="270.166016" xlink:href="#i"/>
<use x="333.544922" xlink:href="#e"/>
<use x="394.824219" xlink:href="#j"/>
</g>
</g>
<path d="m208.57 687.2v33.808q0 2.4 2.4 2.4h7.7425q2.4 0 2.4-2.4v-33.808q0-2.4-2.4-2.4h-7.7425q-2.4 0-2.4 2.4z" clip-path="url(#a)" fill="#fff" stroke="#fff"/>
<g clip-path="url(#a)">
<g transform="translate(212.63 687.2) rotate(90) scale(.08 -.08)">
<use xlink:href="#k"/>
<use x="44.083984" xlink:href="#d"/>
<use x="105.607422" xlink:href="#g"/>
<use x="144.970703" xlink:href="#l"/>
<use x="242.382812" xlink:href="#h"/>
<use x="270.166016" xlink:href="#i"/>
<use x="333.544922" xlink:href="#e"/>
<use x="394.824219" xlink:href="#j"/>
</g>
</g>
<path d="m292.15 466.71 1.202-5.3389q0.52715-2.3414-1.8142-2.8685l-7.5534-1.7006q-2.3414-0.52715-2.8685 1.8142l-1.202 5.3389q-0.52715 2.3414 1.8142 2.8685l7.5534 1.7006q2.3414 0.52715 2.8685-1.8142z" clip-path="url(#a)" fill="#fff" stroke="#fff"/>
<g clip-path="url(#a)">
<g transform="translate(288.18 465.82) rotate(-77.312) scale(.08 -.08)">
<use xlink:href="#o"/>
</g>
</g>
<path d="m309.36 465.77 0.60528-4.5613q0.31571-2.3791-2.0634-2.6949l-7.6752-1.0185q-2.3791-0.31571-2.6949 2.0634l-0.60528 4.5613q-0.31571 2.3791 2.0634 2.6949l7.6752 1.0185q2.3791 0.31571 2.6949-2.0634z" clip-path="url(#a)" fill="#fff" stroke="#fff"/>
<g clip-path="url(#a)">
<g transform="translate(305.33 465.23) rotate(-82.441) scale(.08 -.08)">
<use xlink:href="#ad"/>
</g>
</g>
<path d="m325.13 400.1 0.15425 4.8213q0.076746 2.3988 2.4755 2.322l7.7385-0.24758q2.3988-0.076745 2.322-2.4755l-0.15425-4.8213q-0.076745-2.3988-2.4755-2.322l-7.7385 0.24758q-2.3988 0.076745-2.322 2.4755z" clip-path="url(#a)" fill="#fff" stroke="#fff"/>
<g clip-path="url(#a)">
<g transform="translate(329.19 399.97) rotate(88.168) scale(.08 -.08)">
<use xlink:href="#u"/>
</g>
</g>
<path d="m382.43 344.15 3.88 3.8593q1.7016 1.6925 3.3941-0.009085l5.4601-5.4894q1.6925-1.7016-0.009085-3.3941l-3.88-3.8593q-1.7016-1.6925-3.3941 0.009085l-5.4601 5.4894q-1.6925 1.7016 0.009085 3.3941z" clip-path="url(#a)" fill="#fff" stroke="#fff"/>
<g clip-path="url(#a)">
<g transform="translate(385.3 341.27) rotate(44.847) scale(.08 -.08)">
<use xlink:href="#o"/>
</g>
</g>
<path d="m239.4 687.2v33.808q0 2.4 2.4 2.4h7.7425q2.4 0 2.4-2.4v-33.808q0-2.4-2.4-2.4h-7.7425q-2.4 0-2.4 2.4z" clip-path="url(#a)" fill="#fff" stroke="#fff"/>
<g clip-path="url(#a)">
<g transform="translate(243.46 687.2) rotate(90) scale(.08 -.08)">
<use xlink:href="#k"/>
<use x="44.083984" xlink:href="#d"/>
<use x="105.607422" xlink:href="#g"/>
<use x="144.970703" xlink:href="#l"/>
<use x="242.382812" xlink:href="#h"/>
<use x="270.166016" xlink:href="#i"/>
<use x="333.544922" xlink:href="#e"/>
<use x="394.824219" xlink:href="#j"/>
</g>
</g>
<path d="m273.04 687.2v33.808q0 2.4 2.4 2.4h7.7425q2.4 0 2.4-2.4v-33.808q0-2.4-2.4-2.4h-7.7425q-2.4 0-2.4 2.4z" clip-path="url(#a)" fill="#fff" stroke="#fff"/>
<g clip-path="url(#a)">
<g transform="translate(277.1 687.2) rotate(90) scale(.08 -.08)">
<use xlink:href="#k"/>
<use x="44.083984" xlink:href="#d"/>
<use x="105.607422" xlink:href="#g"/>
<use x="144.970703" xlink:href="#l"/>
<use x="242.382812" xlink:href="#h"/>
<use x="270.166016" xlink:href="#i"/>
<use x="333.544922" xlink:href="#e"/>
<use x="394.824219" xlink:href="#j"/>
</g>
</g>
<path d="m331.34 587.72 0.81096-4.9895q0.38502-2.3689-1.9839-2.7539l-7.6422-1.2421q-2.3689-0.38502-2.7539 1.9839l-0.81096 4.9895q-0.38502 2.3689 1.9839 2.7539l7.6422 1.2421q2.3689 0.38502 2.7539-1.9839z" clip-path="url(#a)" fill="#fff" stroke="#fff"/>
<g clip-path="url(#a)">
<g transform="translate(327.33 587.07) rotate(-80.768) scale(.08 -.08)">
<use xlink:href="#ae"/>
</g>
</g>
<path d="m338.54 582.47 0.89618 5.5139q0.38502 2.3689 2.7539 1.9839l7.6422-1.2421q2.3689-0.38502 1.9839-2.7539l-0.89618-5.5139q-0.38502-2.3689-2.7539-1.9839l-7.6422 1.2421q-2.3689 0.38502-1.9839 2.7539z" clip-path="url(#a)" fill="#fff" stroke="#fff"/>
<g clip-path="url(#a)">
<g transform="translate(342.55 581.82) rotate(80.768) scale(.08 -.08)">
<use xlink:href="#y"/>
</g>
</g>
<path d="m429.15 527.13 0.98367-4.4949q0.51308-2.3445-1.8314-2.8576l-7.5635-1.6552q-2.3445-0.51308-2.8576 1.8314l-0.98368 4.4949q-0.51308 2.3445 1.8314 2.8576l7.5635 1.6552q2.3445 0.51308 2.8576-1.8314z" clip-path="url(#a)" fill="#fff" stroke="#fff"/>
<g clip-path="url(#a)">
<g transform="translate(425.18 526.26) rotate(-77.656) scale(.08 -.08)">
<use xlink:href="#ad"/>
</g>
</g>
<path d="m452.12 526.17 0.16189-4.821q0.080545-2.3986-2.3181-2.4792l-7.7381-0.25984q-2.3986-0.080545-2.4792 2.3181l-0.16189 4.821q-0.080544 2.3986 2.3181 2.4792l7.7381 0.25984q2.3986 0.080545 2.4792-2.3181z" clip-path="url(#a)" fill="#fff" stroke="#fff"/>
<g clip-path="url(#a)">
<g transform="translate(448.06 526.03) rotate(-88.077) scale(.08 -.08)">
<use xlink:href="#u"/>
</g>
</g>
<path d="m463.13 521.85 0.88179 5.401q0.38671 2.3686 2.7554 1.9819l7.6413-1.2476q2.3686-0.38671 1.9819-2.7554l-0.88179-5.401q-0.38672-2.3686-2.7554-1.9819l-7.6413 1.2476q-2.3686 0.38671-1.9819 2.7554z" clip-path="url(#a)" fill="#fff" stroke="#fff"/>
<g clip-path="url(#a)">
<g transform="translate(467.14 521.2) rotate(80.727) scale(.08 -.08)">
<use xlink:href="#o"/>
</g>
</g>
<path d="m501.88 465.56 3.7916 3.9461q1.6629 1.7306 3.3934 0.067732l5.5829-5.3644q1.7306-1.6629 0.067732-3.3934l-3.7917-3.9461q-1.6629-1.7306-3.3934-0.067731l-5.5829 5.3644q-1.7306 1.6629-0.067731 3.3934z" clip-path="url(#a)" fill="#fff" stroke="#fff"/>
<g clip-path="url(#a)">
<g transform="translate(504.81 462.74) rotate(46.143) scale(.08 -.08)">
<use xlink:href="#o"/>
</g>
</g>
<path d="m407.33 528.38 1.9996-5.0941q0.87693-2.2341-1.3571-3.111l-7.2071-2.829q-2.2341-0.87693-3.111 1.3571l-1.9996 5.0941q-0.87693 2.2341 1.3571 3.111l7.2071 2.829q2.2341 0.87693 3.111-1.3571z" clip-path="url(#a)" fill="#fff" stroke="#fff"/>
<g clip-path="url(#a)">
<g transform="translate(403.55 526.9) rotate(-68.569) scale(.08 -.08)">
<use xlink:href="#o"/>
</g>
</g>
<path d="m390.76 687.2v33.808q0 2.4 2.4 2.4h7.7425q2.4 0 2.4-2.4v-33.808q0-2.4-2.4-2.4h-7.7425q-2.4 0-2.4 2.4z" clip-path="url(#a)" fill="#fff" stroke="#fff"/>
<g clip-path="url(#a)">
<g transform="translate(394.82 687.2) rotate(90) scale(.08 -.08)">
<use xlink:href="#k"/>
<use x="44.083984" xlink:href="#d"/>
<use x="105.607422" xlink:href="#g"/>
<use x="144.970703" xlink:href="#l"/>
<use x="242.382812" xlink:href="#h"/>
<use x="270.166016" xlink:href="#i"/>
<use x="333.544922" xlink:href="#e"/>
<use x="394.824219" xlink:href="#j"/>
</g>
</g>
<path d="m435.6 687.2v33.808q0 2.4 2.4 2.4h7.7425q2.4 0 2.4-2.4v-33.808q0-2.4-2.4-2.4h-7.7425q-2.4 0-2.4 2.4z" clip-path="url(#a)" fill="#fff" stroke="#fff"/>
<g clip-path="url(#a)">
<g transform="translate(439.67 687.2) rotate(90) scale(.08 -.08)">
<use xlink:href="#k"/>
<use x="44.083984" xlink:href="#d"/>
<use x="105.607422" xlink:href="#g"/>
<use x="144.970703" xlink:href="#l"/>
<use x="242.382812" xlink:href="#h"/>
<use x="270.166016" xlink:href="#i"/>
<use x="333.544922" xlink:href="#e"/>
<use x="394.824219" xlink:href="#j"/>
</g>
</g>
<path d="m483.25 687.2v33.808q0 2.4 2.4 2.4h7.7425q2.4 0 2.4-2.4v-33.808q0-2.4-2.4-2.4h-7.7425q-2.4 0-2.4 2.4z" clip-path="url(#a)" fill="#fff" stroke="#fff"/>
<g clip-path="url(#a)">
<g transform="translate(487.31 687.2) rotate(90) scale(.08 -.08)">
<use xlink:href="#k"/>
<use x="44.083984" xlink:href="#d"/>
<use x="105.607422" xlink:href="#g"/>
<use x="144.970703" xlink:href="#l"/>
<use x="242.382812" xlink:href="#h"/>
<use x="270.166016" xlink:href="#i"/>
<use x="333.544922" xlink:href="#e"/>
<use x="394.824219" xlink:href="#j"/>
</g>
</g>
<path d="m558.87 588.04 1.0888-4.9363q0.51696-2.3437-1.8267-2.8606l-7.5608-1.6677q-2.3437-0.51696-2.8606 1.8267l-1.0888 4.9363q-0.51696 2.3437 1.8267 2.8606l7.5608 1.6677q2.3437 0.51696 2.8606-1.8267z" clip-path="url(#a)" fill="#fff" stroke="#fff"/>
<g clip-path="url(#a)">
<g transform="translate(554.9 587.16) rotate(-77.561) scale(.08 -.08)">
<use xlink:href="#ae"/>
</g>
</g>
<path d="m573.19 582.84 1.2033 5.4551q0.51696 2.3437 2.8606 1.8267l7.5608-1.6677q2.3437-0.51696 1.8267-2.8606l-1.2033-5.4551q-0.51696-2.3437-2.8606-1.8267l-7.5608 1.6677q-2.3437 0.51696-1.8267 2.8606z" clip-path="url(#a)" fill="#fff" stroke="#fff"/>
<g clip-path="url(#a)">
<g transform="translate(577.16 581.97) rotate(77.561) scale(.08 -.08)">
<use xlink:href="#y"/>
</g>
</g>
<path d="m533.7 687.2v33.808q0 2.4 2.4 2.4h7.7425q2.4 0 2.4-2.4v-33.808q0-2.4-2.4-2.4h-7.7425q-2.4 0-2.4 2.4z" clip-path="url(#a)" fill="#fff" stroke="#fff"/>
<g clip-path="url(#a)">
<g transform="translate(537.77 687.2) rotate(90) scale(.08 -.08)">
<use xlink:href="#k"/>
<use x="44.083984" xlink:href="#d"/>
<use x="105.607422" xlink:href="#g"/>
<use x="144.970703" xlink:href="#l"/>
<use x="242.382812" xlink:href="#h"/>
<use x="270.166016" xlink:href="#i"/>
<use x="333.544922" xlink:href="#e"/>
<use x="394.824219" xlink:href="#j"/>
</g>
</g>
<path d="m586.96 687.2v33.808q0 2.4 2.4 2.4h7.7425q2.4 0 2.4-2.4v-33.808q0-2.4-2.4-2.4h-7.7425q-2.4 0-2.4 2.4z" clip-path="url(#a)" fill="#fff" stroke="#fff"/>
<g clip-path="url(#a)">
<g transform="translate(591.02 687.2) rotate(90) scale(.08 -.08)">
<use xlink:href="#k"/>
<use x="44.083984" xlink:href="#d"/>
<use x="105.607422" xlink:href="#g"/>
<use x="144.970703" xlink:href="#l"/>
<use x="242.382812" xlink:href="#h"/>
<use x="270.166016" xlink:href="#i"/>
<use x="333.544922" xlink:href="#e"/>
<use x="394.824219" xlink:href="#j"/>
</g>
</g>
<path d="m309.47 687.2v33.808q0 2.4 2.4 2.4h7.7425q2.4 0 2.4-2.4v-33.808q0-2.4-2.4-2.4h-7.7425q-2.4 0-2.4 2.4z" clip-path="url(#a)" fill="#fff" stroke="#fff"/>
<g clip-path="url(#a)">
<g transform="translate(313.54 687.2) rotate(90) scale(.08 -.08)">
<use xlink:href="#k"/>
<use x="44.083984" xlink:href="#d"/>
<use x="105.607422" xlink:href="#g"/>
<use x="144.970703" xlink:href="#l"/>
<use x="242.382812" xlink:href="#h"/>
<use x="270.166016" xlink:href="#i"/>
<use x="333.544922" xlink:href="#e"/>
<use x="394.824219" xlink:href="#j"/>
</g>
</g>
<path d="m348.71 687.2v33.808q0 2.4 2.4 2.4h7.7425q2.4 0 2.4-2.4v-33.808q0-2.4-2.4-2.4h-7.7425q-2.4 0-2.4 2.4z" clip-path="url(#a)" fill="#fff" stroke="#fff"/>
<g clip-path="url(#a)">
<g transform="translate(352.78 687.2) rotate(90) scale(.08 -.08)">
<use xlink:href="#k"/>
<use x="44.083984" xlink:href="#d"/>
<use x="105.607422" xlink:href="#g"/>
<use x="144.970703" xlink:href="#l"/>
<use x="242.382812" xlink:href="#h"/>
<use x="270.166016" xlink:href="#i"/>
<use x="333.544922" xlink:href="#e"/>
<use x="394.824219" xlink:href="#j"/>
</g>
</g>
<path d="m62.82 687.2v33.808q0 2.4 2.4 2.4h7.7425q2.4 0 2.4-2.4v-33.808q0-2.4-2.4-2.4h-7.7425q-2.4 0-2.4 2.4z" clip-path="url(#a)" fill="#fff" stroke="#fff"/>
<g clip-path="url(#a)">
<g transform="translate(66.883 687.2) rotate(90) scale(.08 -.08)">
<use xlink:href="#k"/>
<use x="44.083984" xlink:href="#d"/>
<use x="105.607422" xlink:href="#g"/>
<use x="144.970703" xlink:href="#l"/>
<use x="242.382812" xlink:href="#h"/>
<use x="270.166016" xlink:href="#i"/>
<use x="333.544922" xlink:href="#e"/>
<use x="394.824219" xlink:href="#j"/>
</g>
</g>
<path d="m71.228 687.2v33.808q0 2.4 2.4 2.4h7.7425q2.4 0 2.4-2.4v-33.808q0-2.4-2.4-2.4h-7.7425q-2.4 0-2.4 2.4z" clip-path="url(#a)" fill="#fff" stroke="#fff"/>
<g clip-path="url(#a)">
<g transform="translate(75.292 687.2) rotate(90) scale(.08 -.08)">
<use xlink:href="#k"/>
<use x="44.083984" xlink:href="#d"/>
<use x="105.607422" xlink:href="#g"/>
<use x="144.970703" xlink:href="#l"/>
<use x="242.382812" xlink:href="#h"/>
<use x="270.166016" xlink:href="#i"/>
<use x="333.544922" xlink:href="#e"/>
<use x="394.824219" xlink:href="#j"/>
</g>
</g>
<path d="m82.44 687.2v33.808q0 2.4 2.4 2.4h7.7425q2.4 0 2.4-2.4v-33.808q0-2.4-2.4-2.4h-7.7425q-2.4 0-2.4 2.4z" clip-path="url(#a)" fill="#fff" stroke="#fff"/>
<g clip-path="url(#a)">
<g transform="translate(86.504 687.2) rotate(90) scale(.08 -.08)">
<use xlink:href="#k"/>
<use x="44.083984" xlink:href="#d"/>
<use x="105.607422" xlink:href="#g"/>
<use x="144.970703" xlink:href="#l"/>
<use x="242.382812" xlink:href="#h"/>
<use x="270.166016" xlink:href="#i"/>
<use x="333.544922" xlink:href="#e"/>
<use x="394.824219" xlink:href="#j"/>
</g>
</g>
<path d="m112.99 587.43 0.38627-5.5453q0.16677-2.3942-2.2274-2.561l-7.7238-0.53801q-2.3942-0.16677-2.561 2.2274l-0.38627 5.5453q-0.16677 2.3942 2.2274 2.561l7.7238 0.53801q2.3942 0.16677 2.561-2.2274z" clip-path="url(#a)" fill="#fff" stroke="#fff"/>
<g clip-path="url(#a)">
<defs>
<path id="as" d="m44.391 34.188q3.1719-1.0781 6.1719-4.5938t6.0312-9.6719l10.016-19.922h-10.609l-9.3125 18.703q-3.625 7.3281-7.0156 9.7188t-9.25 2.3906h-10.75v-30.812h-9.8594v72.906h22.266q12.5 0 18.656-5.2344 6.1562-5.2188 6.1562-15.766 0-6.8906-3.2031-11.438-3.2031-4.5312-9.2969-6.2812zm-24.719 30.609v-25.875h12.406q7.125 0 10.766 3.2969t3.6406 9.6875-3.6406 9.6406-10.766 3.25z"/>
</defs>
<g transform="translate(108.94 587.14) rotate(-86.015) scale(.08 -.08)">
<use xlink:href="#as"/>
</g>
</g>
<path d="m108.89 581.87 0.38818 5.5727q0.16677 2.3942 2.561 2.2274l7.7238-0.53801q2.3942-0.16677 2.2274-2.561l-0.38818-5.5727q-0.16677-2.3942-2.561-2.2274l-7.7238 0.53801q-2.3942 0.16677-2.2274 2.561z" clip-path="url(#a)" fill="#fff" stroke="#fff"/>
<g clip-path="url(#a)">
<g transform="translate(112.94 581.59) rotate(86.015) scale(.08 -.08)">
<use xlink:href="#y"/>
</g>
</g>
<path d="m96.454 687.2v33.808q0 2.4 2.4 2.4h7.7425q2.4 0 2.4-2.4v-33.808q0-2.4-2.4-2.4h-7.7425q-2.4 0-2.4 2.4z" clip-path="url(#a)" fill="#fff" stroke="#fff"/>
<g clip-path="url(#a)">
<g transform="translate(100.52 687.2) rotate(90) scale(.08 -.08)">
<use xlink:href="#k"/>
<use x="44.083984" xlink:href="#d"/>
<use x="105.607422" xlink:href="#g"/>
<use x="144.970703" xlink:href="#l"/>
<use x="242.382812" xlink:href="#h"/>
<use x="270.166016" xlink:href="#i"/>
<use x="333.544922" xlink:href="#e"/>
<use x="394.824219" xlink:href="#j"/>
</g>
</g>
<path d="m113.27 687.2v33.808q0 2.4 2.4 2.4h7.7425q2.4 0 2.4-2.4v-33.808q0-2.4-2.4-2.4h-7.7425q-2.4 0-2.4 2.4z" clip-path="url(#a)" fill="#fff" stroke="#fff"/>
<g clip-path="url(#a)">
<g transform="translate(117.34 687.2) rotate(90) scale(.08 -.08)">
<use xlink:href="#k"/>
<use x="44.083984" xlink:href="#d"/>
<use x="105.607422" xlink:href="#g"/>
<use x="144.970703" xlink:href="#l"/>
<use x="242.382812" xlink:href="#h"/>
<use x="270.166016" xlink:href="#i"/>
<use x="333.544922" xlink:href="#e"/>
<use x="394.824219" xlink:href="#j"/>
</g>
</g>
<path d="m132.89 687.2v33.808q0 2.4 2.4 2.4h7.7425q2.4 0 2.4-2.4v-33.808q0-2.4-2.4-2.4h-7.7425q-2.4 0-2.4 2.4z" clip-path="url(#a)" fill="#fff" stroke="#fff"/>
<g clip-path="url(#a)">
<g transform="translate(136.96 687.2) rotate(90) scale(.08 -.08)">
<use xlink:href="#k"/>
<use x="44.083984" xlink:href="#d"/>
<use x="105.607422" xlink:href="#g"/>
<use x="144.970703" xlink:href="#l"/>
<use x="242.382812" xlink:href="#h"/>
<use x="270.166016" xlink:href="#i"/>
<use x="333.544922" xlink:href="#e"/>
<use x="394.824219" xlink:href="#j"/>
</g>
</g>
<path d="m643.02 687.2v33.808q0 2.4 2.4 2.4h7.7425q2.4 0 2.4-2.4v-33.808q0-2.4-2.4-2.4h-7.7425q-2.4 0-2.4 2.4z" clip-path="url(#a)" fill="#fff" stroke="#fff"/>
<g clip-path="url(#a)">
<g transform="translate(647.08 687.2) rotate(90) scale(.08 -.08)">
<use xlink:href="#k"/>
<use x="44.083984" xlink:href="#d"/>
<use x="105.607422" xlink:href="#g"/>
<use x="144.970703" xlink:href="#l"/>
<use x="242.382812" xlink:href="#h"/>
<use x="270.166016" xlink:href="#i"/>
<use x="333.544922" xlink:href="#e"/>
<use x="394.824219" xlink:href="#j"/>
</g>
</g>
<path d="m1444.6 687.2v33.808q0 2.4 2.4 2.4h7.7425q2.4 0 2.4-2.4v-33.808q0-2.4-2.4-2.4h-7.7425q-2.4 0-2.4 2.4z" clip-path="url(#a)" fill="#fff" stroke="#fff"/>
<g clip-path="url(#a)">
<g transform="translate(1448.7 687.2) rotate(90) scale(.08 -.08)">
<use xlink:href="#k"/>
<use x="44.083984" xlink:href="#d"/>
<use x="105.607422" xlink:href="#g"/>
<use x="144.970703" xlink:href="#l"/>
<use x="242.382812" xlink:href="#h"/>
<use x="270.166016" xlink:href="#i"/>
<use x="333.544922" xlink:href="#e"/>
<use x="394.824219" xlink:href="#j"/>
</g>
</g>
<defs>
<path id="b" d="m0 8.6603c2.2967 0 4.4997-0.9125 6.1237-2.5365 1.624-1.624 2.5365-3.827 2.5365-6.1237s-0.9125-4.4997-2.5365-6.1237c-1.624-1.624-3.827-2.5365-6.1237-2.5365s-4.4997 0.9125-6.1237 2.5365c-1.624 1.624-2.5365 3.827-2.5365 6.1237s0.9125 4.4997 2.5365 6.1237c1.624 1.624 3.827 2.5365 6.1237 2.5365z"/>
</defs>
<g clip-path="url(#a)" fill="#ffffff" stroke="#ffffff">
<use x="69.090909" y="763.636364" xlink:href="#b"/>
<use x="77.499539" y="763.636364" xlink:href="#b"/>
<use x="88.711046" y="763.636364" xlink:href="#b"/>
<use x="102.725429" y="763.636364" xlink:href="#b"/>
<use x="119.542689" y="763.636364" xlink:href="#b"/>
<use x="139.162825" y="763.636364" xlink:href="#b"/>
<use x="161.585838" y="763.636364" xlink:href="#b"/>
<use x="186.811728" y="763.636364" xlink:href="#b"/>
<use x="214.840494" y="763.636364" xlink:href="#b"/>
<use x="245.672137" y="763.636364" xlink:href="#b"/>
<use x="279.306657" y="763.636364" xlink:href="#b"/>
<use x="315.744053" y="763.636364" xlink:href="#b"/>
<use x="354.984326" y="763.636364" xlink:href="#b"/>
<use x="397.027476" y="763.636364" xlink:href="#b"/>
<use x="441.873502" y="763.636364" xlink:href="#b"/>
<use x="489.522405" y="763.636364" xlink:href="#b"/>
<use x="539.974184" y="763.636364" xlink:href="#b"/>
<use x="593.22884" y="763.636364" xlink:href="#b"/>
<use x="649.286373" y="763.636364" xlink:href="#b"/>
<use x="708.146782" y="763.636364" xlink:href="#b"/>
<use x="769.810068" y="763.636364" xlink:href="#b"/>
<use x="834.276231" y="763.636364" xlink:href="#b"/>
<use x="901.54527" y="763.636364" xlink:href="#b"/>
<use x="971.617186" y="763.636364" xlink:href="#b"/>
<use x="1044.491979" y="763.636364" xlink:href="#b"/>
<use x="1120.169648" y="763.636364" xlink:href="#b"/>
<use x="1198.650194" y="763.636364" xlink:href="#b"/>
<use x="1279.933616" y="763.636364" xlink:href="#b"/>
<use x="1364.019915" y="763.636364" xlink:href="#b"/>
<use x="1450.909091" y="763.636364" xlink:href="#b"/>
<use x="622.503573" y="36.363636" xlink:href="#b"/>
<use x="86.608888" y="402.51182" xlink:href="#b"/>
<use x="222.706067" y="158.67973" xlink:href="#b"/>
<use x="708.146782" y="644.576731" xlink:href="#b"/>
<use x="846.889176" y="280.74979" xlink:href="#b"/>
<use x="1044.491979" y="644.576731" xlink:href="#b"/>
<use x="1282.736493" y="523.860847" xlink:href="#b"/>
<use x="1120.169648" y="644.576731" xlink:href="#b"/>
<use x="1198.650194" y="644.576731" xlink:href="#b"/>
<use x="1279.933616" y="644.576731" xlink:href="#b"/>
<use x="1364.019915" y="644.576731" xlink:href="#b"/>
<use x="769.810068" y="644.576731" xlink:href="#b"/>
<use x="834.276231" y="644.576731" xlink:href="#b"/>
<use x="936.581228" y="402.51182" xlink:href="#b"/>
<use x="936.581228" y="523.860847" xlink:href="#b"/>
<use x="901.54527" y="644.576731" xlink:href="#b"/>
<use x="971.617186" y="644.576731" xlink:href="#b"/>
<use x="161.585838" y="644.576731" xlink:href="#b"/>
<use x="186.811728" y="644.576731" xlink:href="#b"/>
<use x="214.840494" y="644.576731" xlink:href="#b"/>
<use x="327.586207" y="280.74979" xlink:href="#b"/>
<use x="245.672137" y="644.576731" xlink:href="#b"/>
<use x="279.306657" y="644.576731" xlink:href="#b"/>
<use x="335.36419" y="523.860847" xlink:href="#b"/>
<use x="450.001844" y="402.51182" xlink:href="#b"/>
<use x="397.027476" y="644.576731" xlink:href="#b"/>
<use x="441.873502" y="644.576731" xlink:href="#b"/>
<use x="489.522405" y="644.576731" xlink:href="#b"/>
<use x="566.601512" y="523.860847" xlink:href="#b"/>
<use x="539.974184" y="644.576731" xlink:href="#b"/>
<use x="593.22884" y="644.576731" xlink:href="#b"/>
<use x="315.744053" y="644.576731" xlink:href="#b"/>
<use x="354.984326" y="644.576731" xlink:href="#b"/>
<use x="69.090909" y="644.576731" xlink:href="#b"/>
<use x="77.499539" y="644.576731" xlink:href="#b"/>
<use x="88.711046" y="644.576731" xlink:href="#b"/>
<use x="111.134059" y="523.860847" xlink:href="#b"/>
<use x="102.725429" y="644.576731" xlink:href="#b"/>
<use x="119.542689" y="644.576731" xlink:href="#b"/>
<use x="139.162825" y="644.576731" xlink:href="#b"/>
<use x="649.286373" y="644.576731" xlink:href="#b"/>
<use x="1450.909091" y="644.576731" xlink:href="#b"/>
</g>
<g clip-path="url(#a)">
<defs>
<path id="s" d="m54.891 33.016v-33.016h-8.9844v32.719q0 7.7656-3.0312 11.609-3.0312 3.8594-9.0781 3.8594-7.2812 0-11.484-4.6406-4.2031-4.625-4.2031-12.641v-30.906h-9.0312v75.984h9.0312v-29.797q3.2344 4.9375 7.5938 7.375 4.375 2.4375 10.094 2.4375 9.4219 0 14.25-5.8281 4.8438-5.8281 4.8438-17.156z"/>
<path id="av" d="m32.172-5.0781q-3.7969-9.7656-7.4219-12.734-3.6094-2.9844-9.6562-2.9844h-7.1875v7.5156h5.2812q3.7031 0 5.75 1.7656 2.0625 1.75 4.5469 8.2969l1.6094 4.0938-22.109 53.812h9.5156l17.094-42.766 17.094 42.766h9.5156z"/>
</defs>
<g transform="translate(56.832 766.4) scale(.1 -.1)">
<use xlink:href="#k"/>
<use x="61.083984" xlink:href="#s"/>
<use x="124.462891" xlink:href="#d"/>
<use x="185.986328" xlink:href="#av"/>
</g>
</g>
<g clip-path="url(#a)">
<defs>
<path id="x" d="m48.688 27.297q0 9.9062-4.0781 15.547t-11.203 5.6406q-7.1406 0-11.219-5.6406t-4.0781-15.547 4.0781-15.547 11.219-5.6406q7.125 0 11.203 5.6406t4.0781 15.547zm-30.578 19.094q2.8438 4.875 7.1562 7.2344 4.3281 2.375 10.328 2.375 9.9688 0 16.188-7.9062 6.2344-7.9062 6.2344-20.797t-6.2344-20.812q-6.2188-7.9062-16.188-7.9062-6 0-10.328 2.375-4.3125 2.375-7.1562 7.25v-8.2031h-9.0312v75.984h9.0312z"/>
<path id="al" d="m45.406 27.984q0 9.7656-4.0312 15.125-4.0156 5.375-11.297 5.375-7.2188 0-11.25-5.375-4.0312-5.3594-4.0312-15.125 0-9.7188 4.0312-15.094t11.25-5.375q7.2812 0 11.297 5.375 4.0312 5.375 4.0312 15.094zm8.9844-21.203q0-13.953-6.2031-20.766-6.1875-6.8125-18.984-6.8125-4.7344 0-8.9375 0.70312t-8.1562 2.1719v8.7344q3.9531-2.1406 7.8125-3.1562 3.8594-1.0312 7.8594-1.0312 8.8438 0 13.234 4.6094t4.3906 13.938v4.4531q-2.7812-4.8438-7.125-7.2344t-10.406-2.3906q-10.047 0-16.203 7.6562-6.1562 7.6719-6.1562 20.328 0 12.688 6.1562 20.344 6.1562 7.6719 16.203 7.6719 6.0625 0 10.406-2.3906t7.125-7.2188v8.2969h8.9844z"/>
</defs>
<g transform="translate(61.842 766.4) scale(.1 -.1)">
<use xlink:href="#x"/>
<use x="63.476562" xlink:href="#d"/>
<use x="125" xlink:href="#al"/>
<use x="188.476562" xlink:href="#e"/>
<use x="249.755859" xlink:href="#i"/>
</g>
</g>
<g clip-path="url(#a)">
<defs>
<path id="q" d="m44.281 53.078v-8.5q-3.7969 1.9531-7.9062 2.9219-4.0938 0.98438-8.5 0.98438-6.6875 0-10.031-2.0469t-3.3438-6.1562q0-3.125 2.3906-4.9062t9.625-3.3906l3.0781-0.6875q9.5625-2.0469 13.594-5.7812t4.0312-10.422q0-7.625-6.0312-12.078-6.0312-4.4375-16.578-4.4375-4.3906 0-9.1562 0.85938t-10.031 2.5625v9.2812q4.9844-2.5938 9.8125-3.8906 4.8281-1.2812 9.5781-1.2812 6.3438 0 9.75 2.1719 3.4219 2.1719 3.4219 6.125 0 3.6562-2.4688 5.6094-2.4531 1.9531-10.812 3.7656l-3.125 0.73438q-8.3438 1.75-12.062 5.3906-3.7031 3.6406-3.7031 9.9844 0 7.7188 5.4688 11.906 5.4688 4.2031 15.531 4.2031 4.9688 0 9.3594-0.73438 4.4062-0.71875 8.1094-2.1875z"/>
</defs>
<g transform="translate(62.664 766.4) scale(.1 -.1)">
<use xlink:href="#g"/>
<use x="38.863281" xlink:href="#d"/>
<use x="100.386719" xlink:href="#s"/>
<use x="163.765625" xlink:href="#d"/>
<use x="225.289062" xlink:href="#e"/>
<use x="286.568359" xlink:href="#g"/>
<use x="327.681641" xlink:href="#q"/>
<use x="379.78125" xlink:href="#e"/>
<use x="441.060547" xlink:href="#j"/>
<use x="468.84375" xlink:href="#q"/>
</g>
</g>
<g clip-path="url(#a)">
<g transform="translate(98.168 766.4) scale(.1 -.1)">
<use xlink:href="#h"/>
<use x="27.783203" xlink:href="#i"/>
</g>
</g>
<g clip-path="url(#a)">
<defs>
<path id="at" d="m9.8125 72.906h13.281l32.328-60.984v60.984h9.5625v-72.906h-13.281l-32.312 60.984v-60.984h-9.5781z"/>
<path id="ab" d="m30.609 48.391q-7.2188 0-11.422-5.6406t-4.2031-15.453 4.1719-15.453q4.1875-5.6406 11.453-5.6406 7.1875 0 11.375 5.6562 4.2031 5.6719 4.2031 15.438 0 9.7188-4.2031 15.406-4.1875 5.6875-11.375 5.6875zm0 7.6094q11.719 0 18.406-7.625 6.7031-7.6094 6.7031-21.078 0-13.422-6.7031-21.078-6.6875-7.6406-18.406-7.6406-11.766 0-18.438 7.6406-6.6562 7.6562-6.6562 21.078 0 13.469 6.6562 21.078 6.6719 7.625 18.438 7.625z"/>
<path id="aw" d="m2.9844 54.688h9.5156l17.094-45.891 17.094 45.891h9.5156l-20.516-54.688h-12.203z"/>
</defs>
<g transform="translate(93.53 766.4) scale(.1 -.1)">
<use xlink:href="#at"/>
<use x="74.804688" xlink:href="#ab"/>
<use x="135.986328" xlink:href="#aw"/>
<use x="195.166016" xlink:href="#d"/>
<use x="256.689453" xlink:href="#l"/>
<use x="354.101562" xlink:href="#x"/>
<use x="417.578125" xlink:href="#d"/>
<use x="479.101562" xlink:href="#g"/>
</g>
</g>
<g clip-path="url(#a)">
<defs>
<path id="ao" d="m11.719 12.406h10.297v-8.4062l-8-15.625h-6.2969l4 15.625z"/>
</defs>
<g transform="translate(137.57 766.4) scale(.1 -.1)">
<use xlink:href="#ao"/>
</g>
</g>
<g clip-path="url(#a)">
<defs>
<path id="ax" d="m18.109 8.2031v-29h-9.0312v75.484h9.0312v-8.2969q2.8438 4.875 7.1562 7.2344 4.3281 2.375 10.328 2.375 9.9688 0 16.188-7.9062 6.2344-7.9062 6.2344-20.797t-6.2344-20.812q-6.2188-7.9062-16.188-7.9062-6 0-10.328 2.375-4.3125 2.375-7.1562 7.25zm30.578 19.094q0 9.9062-4.0781 15.547t-11.203 5.6406q-7.1406 0-11.219-5.6406t-4.0781-15.547 4.0781-15.547 11.219-5.6406q7.125 0 11.203 5.6406t4.0781 15.547z"/>
<path id="ak" d="m8.5 21.578v33.109h8.9844v-32.766q0-7.7656 3.0156-11.656 3.0312-3.875 9.0938-3.875 7.2656 0 11.484 4.6406 4.2344 4.6406 4.2344 12.656v31h8.9844v-54.688h-8.9844v8.4062q-3.2656-4.9844-7.5938-7.4062-4.3125-2.4219-10.031-2.4219-9.4219 0-14.312 5.8594-4.875 5.8594-4.875 17.141z"/>
</defs>
<g transform="translate(140.1 766.4) scale(.1 -.1)">
<use xlink:href="#t"/>
<use x="75.195312" xlink:href="#d"/>
<use x="136.71875" xlink:href="#ax"/>
<use x="200.195312" xlink:href="#x"/>
<use x="263.671875" xlink:href="#ak"/>
<use x="327.050781" xlink:href="#g"/>
<use x="366.414062" xlink:href="#i"/>
</g>
</g>
<g clip-path="url(#a)">
<defs>
<path id="aq" d="m37.109 75.984v-7.4844h-8.5938q-4.8281 0-6.7188-1.9531-1.875-1.9531-1.875-7.0312v-4.8281h14.797v-6.9844h-14.797v-47.703h-9.0312v47.703h-8.5938v6.9844h8.5938v3.8125q0 9.125 4.25 13.297 4.25 4.1875 13.469 4.1875z"/>
</defs>
<g transform="translate(169.78 766.4) scale(.1 -.1)">
<use xlink:href="#aq"/>
<use x="35.205078" xlink:href="#d"/>
<use x="96.728516" xlink:href="#d"/>
<use x="158.251953" xlink:href="#j"/>
<use x="186.035156" xlink:href="#h"/>
<use x="213.818359" xlink:href="#i"/>
<use x="277.197266" xlink:href="#al"/>
</g>
</g>
<g clip-path="url(#a)">
<g transform="translate(204.05 766.4) scale(.1 -.1)">
<use xlink:href="#q"/>
<use x="52.099609" xlink:href="#ak"/>
<use x="115.478516" xlink:href="#g"/>
<use x="154.341797" xlink:href="#d"/>
</g>
</g>
<g clip-path="url(#a)">
<defs>
<path id="r" d="m18.312 70.219v-15.531h18.5v-6.9844h-18.5v-29.688q0-6.6875 1.8281-8.5938t7.4531-1.9062h9.2188v-7.5156h-9.2188q-10.406 0-14.359 3.875-3.9531 3.8906-3.9531 14.141v29.688h-6.5938v6.9844h6.5938v15.531z"/>
</defs>
<g transform="translate(236.55 766.4) scale(.1 -.1)">
<use xlink:href="#r"/>
<use x="39.208984" xlink:href="#s"/>
<use x="102.587891" xlink:href="#h"/>
<use x="130.371094" xlink:href="#q"/>
</g>
</g>
<g clip-path="url(#a)">
<defs>
<path id="aj" d="m4.2031 54.688h8.9844l11.234-42.672 11.172 42.672h10.594l11.234-42.672 11.188 42.672h8.9844l-14.312-54.688h-10.594l-11.766 44.828-11.812-44.828h-10.609z"/>
</defs>
<g transform="translate(269.55 766.4) scale(.1 -.1)">
<use xlink:href="#aj"/>
<use x="81.787109" xlink:href="#e"/>
<use x="143.066406" xlink:href="#q"/>
</g>
</g>
<g clip-path="url(#a)">
<g transform="translate(307.54 766.4) scale(.1 -.1)">
<use xlink:href="#r"/>
<use x="39.208984" xlink:href="#s"/>
<use x="102.587891" xlink:href="#d"/>
</g>
</g>
<g clip-path="url(#a)">
<g transform="translate(345.52 766.4) scale(.1 -.1)">
<use xlink:href="#g"/>
<use x="38.863281" xlink:href="#ab"/>
<use x="100.044922" xlink:href="#j"/>
<use x="127.828125" xlink:href="#d"/>
</g>
</g>
<g clip-path="url(#a)">
<g transform="translate(392.01 766.4) scale(.1 -.1)">
<use xlink:href="#r"/>
<use x="39.208984" xlink:href="#ab"/>
</g>
</g>
<g clip-path="url(#a)">
<defs>
<path id="ap" d="m9.0781 75.984h9.0312v-44.875l26.812 23.578h11.469l-29-25.578 30.234-29.109h-11.719l-27.797 26.703v-26.703h-9.0312z"/>
</defs>
<g transform="translate(428.15 766.4) scale(.1 -.1)">
<use xlink:href="#l"/>
<use x="97.412109" xlink:href="#e"/>
<use x="158.691406" xlink:href="#ap"/>
<use x="212.976562" xlink:href="#d"/>
</g>
</g>
<g clip-path="url(#a)">
<g transform="translate(481.22 766.4) scale(.1 -.1)">
<use xlink:href="#s"/>
<use x="63.378906" xlink:href="#d"/>
<use x="124.902344" xlink:href="#g"/>
</g>
</g>
<g clip-path="url(#a)">
<g transform="translate(536.91 766.4) scale(.1 -.1)">
<use xlink:href="#e"/>
</g>
</g>
<g clip-path="url(#a)">
<g transform="translate(583.54 766.4) scale(.1 -.1)">
<use xlink:href="#q"/>
<use x="52.099609" xlink:href="#r"/>
<use x="91.308594" xlink:href="#e"/>
<use x="152.587891" xlink:href="#g"/>
</g>
</g>
<g clip-path="url(#a)">
<g transform="translate(647.7 766.4) scale(.1 -.1)">
<use xlink:href="#ao"/>
</g>
</g>
<g clip-path="url(#a)">
<g transform="translate(699.84 766.4) scale(.1 -.1)">
<use xlink:href="#x"/>
<use x="63.476562" xlink:href="#ak"/>
<use x="126.855469" xlink:href="#r"/>
</g>
</g>
<g clip-path="url(#a)">
<defs>
<path id="w" d="m45.406 46.391v29.594h8.9844v-75.984h-8.9844v8.2031q-2.8281-4.875-7.1562-7.25-4.3125-2.375-10.375-2.375-9.9062 0-16.141 7.9062-6.2188 7.9219-6.2188 20.812t6.2188 20.797q6.2344 7.9062 16.141 7.9062 6.0625 0 10.375-2.375 4.3281-2.3594 7.1562-7.2344zm-30.609-19.094q0-9.9062 4.0781-15.547t11.203-5.6406 11.219 5.6406q4.1094 5.6406 4.1094 15.547t-4.1094 15.547q-4.0938 5.6406-11.219 5.6406t-11.203-5.6406-4.0781-15.547z"/>
</defs>
<g transform="translate(750.7 766.4) scale(.1 -.1)">
<use xlink:href="#t"/>
<use x="75.195312" xlink:href="#ab"/>
<use x="136.376953" xlink:href="#aj"/>
<use x="218.164062" xlink:href="#e"/>
<use x="279.443359" xlink:href="#g"/>
<use x="318.806641" xlink:href="#w"/>
</g>
</g>
<g clip-path="url(#a)">
<g transform="translate(815.37 766.4) scale(.1 -.1)">
<use xlink:href="#w"/>
<use x="63.476562" xlink:href="#h"/>
<use x="91.259766" xlink:href="#q"/>
<use x="143.359375" xlink:href="#j"/>
<use x="171.142578" xlink:href="#h"/>
<use x="198.925781" xlink:href="#ap"/>
<use x="253.210938" xlink:href="#d"/>
<use x="314.734375" xlink:href="#w"/>
</g>
</g>
<g clip-path="url(#a)">
<g transform="translate(893.34 766.4) scale(.1 -.1)">
<use xlink:href="#r"/>
<use x="39.208984" xlink:href="#s"/>
<use x="102.587891" xlink:href="#d"/>
</g>
</g>
<g clip-path="url(#a)">
<defs>
<path id="ar" d="m48.781 52.594v-8.4062q-3.8125 2.1094-7.6406 3.1562t-7.7344 1.0469q-8.75 0-13.594-5.5469-4.8281-5.5312-4.8281-15.547t4.8281-15.562q4.8438-5.5312 13.594-5.5312 3.9062 0 7.7344 1.0469t7.6406 3.1562v-8.3125q-3.7656-1.75-7.7969-2.625-4.0156-0.89062-8.5625-0.89062-12.359 0-19.641 7.7656-7.2656 7.7656-7.2656 20.953 0 13.375 7.3438 21.031 7.3594 7.6719 20.156 7.6719 4.1406 0 8.0938-0.85938 3.9531-0.84375 7.6719-2.5469z"/>
</defs>
<g transform="translate(953.61 766.4) scale(.1 -.1)">
<use xlink:href="#e"/>
<use x="61.279297" xlink:href="#ar"/>
<use x="116.259766" xlink:href="#r"/>
<use x="155.46875" xlink:href="#g"/>
<use x="194.332031" xlink:href="#d"/>
<use x="255.855469" xlink:href="#q"/>
<use x="307.955078" xlink:href="#q"/>
</g>
</g>
<g clip-path="url(#a)">
<g transform="translate(1035.1 766.4) scale(.1 -.1)">
<use xlink:href="#e"/>
<use x="61.279297" xlink:href="#i"/>
<use x="124.658203" xlink:href="#w"/>
</g>
</g>
<g clip-path="url(#a)">
<g transform="translate(1106.3 766.4) scale(.1 -.1)">
<use xlink:href="#e"/>
<use x="61.279297" xlink:href="#al"/>
<use x="124.755859" xlink:href="#e"/>
<use x="186.035156" xlink:href="#h"/>
<use x="213.818359" xlink:href="#i"/>
</g>
</g>
<g clip-path="url(#a)">
<g transform="translate(1189.8 766.4) scale(.1 -.1)">
<use xlink:href="#q"/>
<use x="52.099609" xlink:href="#s"/>
<use x="115.478516" xlink:href="#d"/>
</g>
</g>
<g clip-path="url(#a)">
<g transform="translate(1270.2 766.4) scale(.1 -.1)">
<use xlink:href="#aj"/>
<use x="81.787109" xlink:href="#e"/>
<use x="143.066406" xlink:href="#q"/>
</g>
</g>
<g clip-path="url(#a)">
<g transform="translate(1352.7 766.4) scale(.1 -.1)">
<use xlink:href="#aq"/>
<use x="35.205078" xlink:href="#h"/>
<use x="62.988281" xlink:href="#g"/>
<use x="101.851562" xlink:href="#d"/>
<use x="163.375" xlink:href="#w"/>
</g>
</g>
<g clip-path="url(#a)">
<defs>
<path id="f" d="m10.688 12.406h10.312v-12.406h-10.312z"/>
</defs>
<g transform="translate(1449.3 766.4) scale(.1 -.1)">
<use xlink:href="#f"/>
</g>
</g>
<g clip-path="url(#a)">
<defs>
<path id="c" d="m12.406 8.2969h16.109v55.625l-17.531-3.5156v8.9844l17.438 3.5156h9.8594v-64.609h16.109v-8.2969h-41.984z"/>
</defs>
<g transform="translate(614.55 39.123) scale(.1 -.1)">
<use xlink:href="#c"/>
<use x="63.623047" xlink:href="#f"/>
<use x="95.410156" xlink:href="#c"/>
</g>
</g>
<g clip-path="url(#a)">
<defs>
<path id="n" d="m19.188 8.2969h34.422v-8.2969h-46.281v8.2969q5.6094 5.8125 15.297 15.594 9.7031 9.7969 12.188 12.641 4.7344 5.3125 6.6094 9 1.8906 3.6875 1.8906 7.25 0 5.8125-4.0781 9.4688-4.0781 3.6719-10.625 3.6719-4.6406 0-9.7969-1.6094-5.1406-1.6094-11-4.8906v9.9688q5.9531 2.3906 11.125 3.6094 5.1875 1.2188 9.4844 1.2188 11.328 0 18.062-5.6719 6.7344-5.6562 6.7344-15.125 0-4.5-1.6875-8.5312-1.6719-4.0156-6.125-9.4844-1.2188-1.4219-7.7656-8.1875-6.5312-6.7656-18.453-18.922z"/>
</defs>
<g transform="translate(78.657 405.27) scale(.1 -.1)">
<use xlink:href="#c"/>
<use x="63.623047" xlink:href="#f"/>
<use x="95.410156" xlink:href="#n"/>
</g>
</g>
<g clip-path="url(#a)">
<defs>
<path id="m" d="m40.578 39.312q7.0781-1.5156 11.047-6.3125 3.9844-4.7812 3.9844-11.812 0-10.781-7.4219-16.703-7.4219-5.9062-21.094-5.9062-4.5781 0-9.4375 0.90625t-10.031 2.7188v9.5156q4.0938-2.3906 8.9688-3.6094 4.8906-1.2188 10.219-1.2188 9.2656 0 14.125 3.6562t4.8594 10.641q0 6.4531-4.5156 10.078-4.5156 3.6406-12.562 3.6406h-8.5v8.1094h8.8906q7.2656 0 11.125 2.9062t3.8594 8.375q0 5.6094-3.9844 8.6094-3.9688 3.0156-11.391 3.0156-4.0625 0-8.7031-0.89062-4.6406-0.875-10.203-2.7188v8.7812q5.625 1.5625 10.531 2.3438t9.25 0.78125q11.234 0 17.766-5.1094 6.5469-5.0938 6.5469-13.781 0-6.0625-3.4688-10.234t-9.8594-5.7812z"/>
</defs>
<g transform="translate(214.75 161.44) scale(.1 -.1)">
<use xlink:href="#c"/>
<use x="63.623047" xlink:href="#f"/>
<use x="95.410156" xlink:href="#m"/>
</g>
</g>
<g clip-path="url(#a)">
<defs>
<path id="p" d="m37.797 64.312-24.906-38.922h24.906zm-2.5938 8.5938h12.406v-47.516h10.406v-8.2031h-10.406v-17.188h-9.8125v17.188h-32.906v9.5156z"/>
</defs>
<g transform="translate(700.2 647.34) scale(.1 -.1)">
<use xlink:href="#c"/>
<use x="63.623047" xlink:href="#f"/>
<use x="95.410156" xlink:href="#p"/>
</g>
</g>
<g clip-path="url(#a)">
<defs>
<path id="v" d="m10.797 72.906h38.719v-8.3125h-29.688v-17.859q2.1406 0.73438 4.2812 1.0938 2.1562 0.35938 4.3125 0.35938 12.203 0 19.328-6.6875 7.1406-6.6875 7.1406-18.109 0-11.766-7.3281-18.297-7.3281-6.5156-20.656-6.5156-4.5938 0-9.3594 0.78125-4.75 0.78125-9.8281 2.3438v9.9219q4.3906-2.3906 9.0781-3.5625t9.9062-1.1719q8.4531 0 13.375 4.4375 4.9375 4.4375 4.9375 12.062 0 7.6094-4.9375 12.047-4.9219 4.4531-13.375 4.4531-3.9531 0-7.8906-0.875-3.9219-0.875-8.0156-2.7344z"/>
</defs>
<g transform="translate(838.94 283.51) scale(.1 -.1)">
<use xlink:href="#c"/>
<use x="63.623047" xlink:href="#f"/>
<use x="95.410156" xlink:href="#v"/>
</g>
</g>
<g clip-path="url(#a)">
<defs>
<path id="aa" d="m33.016 40.375q-6.6406 0-10.531-4.5469-3.875-4.5312-3.875-12.438 0-7.8594 3.875-12.438 3.8906-4.5625 10.531-4.5625t10.516 4.5625q3.875 4.5781 3.875 12.438 0 7.9062-3.875 12.438-3.875 4.5469-10.516 4.5469zm19.578 30.922v-8.9844q-3.7188 1.75-7.5 2.6719-3.7812 0.9375-7.5 0.9375-9.7656 0-14.922-6.5938-5.1406-6.5938-5.875-19.922 2.875 4.25 7.2188 6.5156 4.3594 2.2656 9.5781 2.2656 10.984 0 17.359-6.6719 6.375-6.6562 6.375-18.125 0-11.234-6.6406-18.031-6.6406-6.7812-17.672-6.7812-12.656 0-19.344 9.6875-6.6875 9.7031-6.6875 28.109 0 17.281 8.2031 27.562t22.016 10.281q3.7188 0 7.5-0.73438t7.8906-2.1875z"/>
</defs>
<g transform="translate(1036.5 647.34) scale(.1 -.1)">
<use xlink:href="#c"/>
<use x="63.623047" xlink:href="#f"/>
<use x="95.410156" xlink:href="#aa"/>
</g>
</g>
<g clip-path="url(#a)">
<defs>
<path id="z" d="m8.2031 72.906h46.875v-4.2031l-26.469-68.703h-10.297l24.906 64.594h-35.016z"/>
</defs>
<g transform="translate(1274.8 526.62) scale(.1 -.1)">
<use xlink:href="#c"/>
<use x="63.623047" xlink:href="#f"/>
<use x="95.410156" xlink:href="#z"/>
</g>
</g>
<g clip-path="url(#a)">
<g transform="translate(1109 647.34) scale(.1 -.1)">
<use xlink:href="#c"/>
<use x="63.623047" xlink:href="#f"/>
<use x="95.410156" xlink:href="#c"/>
<use x="159.033203" xlink:href="#c"/>
</g>
</g>
<g clip-path="url(#a)">
<g transform="translate(1187.5 647.34) scale(.1 -.1)">
<use xlink:href="#c"/>
<use x="63.623047" xlink:href="#f"/>
<use x="95.410156" xlink:href="#c"/>
<use x="159.033203" xlink:href="#n"/>
</g>
</g>
<g clip-path="url(#a)">
<g transform="translate(1268.8 647.34) scale(.1 -.1)">
<use xlink:href="#c"/>
<use x="63.623047" xlink:href="#f"/>
<use x="95.410156" xlink:href="#c"/>
<use x="159.033203" xlink:href="#m"/>
</g>
</g>
<g clip-path="url(#a)">
<g transform="translate(1352.9 647.34) scale(.1 -.1)">
<use xlink:href="#c"/>
<use x="63.623047" xlink:href="#f"/>
<use x="95.410156" xlink:href="#c"/>
<use x="159.033203" xlink:href="#p"/>
</g>
</g>
<g clip-path="url(#a)">
<g transform="translate(758.68 647.34) scale(.1 -.1)">
<use xlink:href="#c"/>
<use x="63.623047" xlink:href="#f"/>
<use x="95.410156" xlink:href="#c"/>
<use x="159.033203" xlink:href="#v"/>
</g>
</g>
<g clip-path="url(#a)">
<g transform="translate(823.14 647.34) scale(.1 -.1)">
<use xlink:href="#c"/>
<use x="63.623047" xlink:href="#f"/>
<use x="95.410156" xlink:href="#c"/>
<use x="159.033203" xlink:href="#aa"/>
</g>
</g>
<g clip-path="url(#a)">
<g transform="translate(925.45 405.27) scale(.1 -.1)">
<use xlink:href="#c"/>
<use x="63.623047" xlink:href="#f"/>
<use x="95.410156" xlink:href="#c"/>
<use x="159.033203" xlink:href="#z"/>
</g>
</g>
<g clip-path="url(#a)">
<defs>
<path id="ah" d="m31.781 34.625q-7.0312 0-11.062-3.7656-4.0156-3.7656-4.0156-10.344 0-6.5938 4.0156-10.359 4.0312-3.7656 11.062-3.7656t11.078 3.7812q4.0625 3.7969 4.0625 10.344 0 6.5781-4.0312 10.344-4.0156 3.7656-11.109 3.7656zm-9.8594 4.1875q-6.3438 1.5625-9.8906 5.9062-3.5312 4.3594-3.5312 10.609 0 8.7344 6.2188 13.812 6.2344 5.0781 17.062 5.0781 10.891 0 17.094-5.0781t6.2031-13.812q0-6.25-3.5469-10.609-3.5312-4.3438-9.8281-5.9062 7.125-1.6562 11.094-6.5 3.9844-4.8281 3.9844-11.797 0-10.609-6.4688-16.281-6.4688-5.6562-18.531-5.6562-12.047 0-18.531 5.6562-6.4688 5.6719-6.4688 16.281 0 6.9688 4 11.797 4.0156 4.8438 11.141 6.5zm-3.6094 15.578q0-5.6562 3.5312-8.8281 3.5469-3.1719 9.9375-3.1719 6.3594 0 9.9375 3.1719 3.5938 3.1719 3.5938 8.8281 0 5.6719-3.5938 8.8438-3.5781 3.1719-9.9375 3.1719-6.3906 0-9.9375-3.1719-3.5312-3.1719-3.5312-8.8438z"/>
</defs>
<g transform="translate(925.45 526.62) scale(.1 -.1)">
<use xlink:href="#c"/>
<use x="63.623047" xlink:href="#f"/>
<use x="95.410156" xlink:href="#c"/>
<use x="159.033203" xlink:href="#ah"/>
</g>
</g>
<g clip-path="url(#a)">
<defs>
<path id="ag" d="m10.984 1.5156v8.9844q3.7188-1.7656 7.5156-2.6875 3.8125-0.92188 7.4844-0.92188 9.7656 0 14.906 6.5625 5.1562 6.5625 5.8906 19.953-2.8281-4.2031-7.1875-6.4531-4.3438-2.25-9.6094-2.25-10.938 0-17.312 6.6094-6.375 6.625-6.375 18.109 0 11.219 6.6406 18 6.6406 6.7969 17.672 6.7969 12.656 0 19.312-9.7031 6.6719-9.6875 6.6719-28.141 0-17.234-8.1875-27.516-8.1719-10.281-21.984-10.281-3.7188 0-7.5312 0.73438-3.7969 0.73438-7.9062 2.2031zm19.625 30.906q6.6406 0 10.516 4.5312 3.8906 4.5469 3.8906 12.469 0 7.8594-3.8906 12.422-3.875 4.5625-10.516 4.5625t-10.516-4.5625-3.875-12.422q0-7.9219 3.875-12.469 3.875-4.5312 10.516-4.5312z"/>
</defs>
<g transform="translate(890.41 647.34) scale(.1 -.1)">
<use xlink:href="#c"/>
<use x="63.623047" xlink:href="#f"/>
<use x="95.410156" xlink:href="#c"/>
<use x="159.033203" xlink:href="#ag"/>
</g>
</g>
<g clip-path="url(#a)">
<defs>
<path id="ai" d="m31.781 66.406q-7.6094 0-11.453-7.5-3.8281-7.4844-3.8281-22.531 0-14.984 3.8281-22.484 3.8438-7.5 11.453-7.5 7.6719 0 11.5 7.5 3.8438 7.5 3.8438 22.484 0 15.047-3.8438 22.531-3.8281 7.5-11.5 7.5zm0 7.8125q12.266 0 18.734-9.7031 6.4688-9.6875 6.4688-28.141 0-18.406-6.4688-28.109-6.4688-9.6875-18.734-9.6875-12.25 0-18.719 9.6875-6.4688 9.7031-6.4688 28.109 0 18.453 6.4688 28.141 6.4688 9.7031 18.719 9.7031z"/>
</defs>
<g transform="translate(960.48 647.34) scale(.1 -.1)">
<use xlink:href="#c"/>
<use x="63.623047" xlink:href="#f"/>
<use x="95.410156" xlink:href="#n"/>
<use x="159.033203" xlink:href="#ai"/>
</g>
</g>
<g clip-path="url(#a)">
<g transform="translate(150.45 647.34) scale(.1 -.1)">
<use xlink:href="#c"/>
<use x="63.623047" xlink:href="#f"/>
<use x="95.410156" xlink:href="#n"/>
<use x="159.033203" xlink:href="#c"/>
</g>
</g>
<g clip-path="url(#a)">
<g transform="translate(175.68 647.34) scale(.1 -.1)">
<use xlink:href="#c"/>
<use x="63.623047" xlink:href="#f"/>
<use x="95.410156" xlink:href="#n"/>
<use x="159.033203" xlink:href="#n"/>
</g>
</g>
<g clip-path="url(#a)">
<g transform="translate(203.71 647.34) scale(.1 -.1)">
<use xlink:href="#c"/>
<use x="63.623047" xlink:href="#f"/>
<use x="95.410156" xlink:href="#n"/>
<use x="159.033203" xlink:href="#m"/>
</g>
</g>
<g clip-path="url(#a)">
<g transform="translate(316.45 283.51) scale(.1 -.1)">
<use xlink:href="#c"/>
<use x="63.623047" xlink:href="#f"/>
<use x="95.410156" xlink:href="#n"/>
<use x="159.033203" xlink:href="#p"/>
</g>
</g>
<g clip-path="url(#a)">
<g transform="translate(234.54 647.34) scale(.1 -.1)">
<use xlink:href="#c"/>
<use x="63.623047" xlink:href="#f"/>
<use x="95.410156" xlink:href="#n"/>
<use x="159.033203" xlink:href="#v"/>
</g>
</g>
<g clip-path="url(#a)">
<g transform="translate(268.17 647.34) scale(.1 -.1)">
<use xlink:href="#c"/>
<use x="63.623047" xlink:href="#f"/>
<use x="95.410156" xlink:href="#n"/>
<use x="159.033203" xlink:href="#aa"/>
</g>
</g>
<g clip-path="url(#a)">
<g transform="translate(324.23 526.62) scale(.1 -.1)">
<use xlink:href="#c"/>
<use x="63.623047" xlink:href="#f"/>
<use x="95.410156" xlink:href="#n"/>
<use x="159.033203" xlink:href="#z"/>
</g>
</g>
<g clip-path="url(#a)">
<g transform="translate(438.87 405.27) scale(.1 -.1)">
<use xlink:href="#c"/>
<use x="63.623047" xlink:href="#f"/>
<use x="95.410156" xlink:href="#n"/>
<use x="159.033203" xlink:href="#ah"/>
</g>
</g>
<g clip-path="url(#a)">
<g transform="translate(385.89 647.34) scale(.1 -.1)">
<use xlink:href="#c"/>
<use x="63.623047" xlink:href="#f"/>
<use x="95.410156" xlink:href="#n"/>
<use x="159.033203" xlink:href="#ag"/>
</g>
</g>
<g clip-path="url(#a)">
<g transform="translate(430.74 647.34) scale(.1 -.1)">
<use xlink:href="#c"/>
<use x="63.623047" xlink:href="#f"/>
<use x="95.410156" xlink:href="#m"/>
<use x="159.033203" xlink:href="#ai"/>
</g>
</g>
<g clip-path="url(#a)">
<g transform="translate(478.39 647.34) scale(.1 -.1)">
<use xlink:href="#c"/>
<use x="63.623047" xlink:href="#f"/>
<use x="95.410156" xlink:href="#m"/>
<use x="159.033203" xlink:href="#c"/>
</g>
</g>
<g clip-path="url(#a)">
<g transform="translate(555.47 526.62) scale(.1 -.1)">
<use xlink:href="#c"/>
<use x="63.623047" xlink:href="#f"/>
<use x="95.410156" xlink:href="#m"/>
<use x="159.033203" xlink:href="#n"/>
</g>
</g>
<g clip-path="url(#a)">
<g transform="translate(528.84 647.34) scale(.1 -.1)">
<use xlink:href="#c"/>
<use x="63.623047" xlink:href="#f"/>
<use x="95.410156" xlink:href="#m"/>
<use x="159.033203" xlink:href="#m"/>
</g>
</g>
<g clip-path="url(#a)">
<g transform="translate(582.1 647.34) scale(.1 -.1)">
<use xlink:href="#c"/>
<use x="63.623047" xlink:href="#f"/>
<use x="95.410156" xlink:href="#m"/>
<use x="159.033203" xlink:href="#p"/>
</g>
</g>
<g clip-path="url(#a)">
<g transform="translate(304.61 647.34) scale(.1 -.1)">
<use xlink:href="#c"/>
<use x="63.623047" xlink:href="#f"/>
<use x="95.410156" xlink:href="#m"/>
<use x="159.033203" xlink:href="#v"/>
</g>
</g>
<g clip-path="url(#a)">
<g transform="translate(343.85 647.34) scale(.1 -.1)">
<use xlink:href="#c"/>
<use x="63.623047" xlink:href="#f"/>
<use x="95.410156" xlink:href="#m"/>
<use x="159.033203" xlink:href="#aa"/>
</g>
</g>
<g clip-path="url(#a)">
<g transform="translate(57.958 647.34) scale(.1 -.1)">
<use xlink:href="#c"/>
<use x="63.623047" xlink:href="#f"/>
<use x="95.410156" xlink:href="#m"/>
<use x="159.033203" xlink:href="#z"/>
</g>
</g>
<g clip-path="url(#a)">
<g transform="translate(66.367 647.34) scale(.1 -.1)">
<use xlink:href="#c"/>
<use x="63.623047" xlink:href="#f"/>
<use x="95.410156" xlink:href="#m"/>
<use x="159.033203" xlink:href="#ah"/>
</g>
</g>
<g clip-path="url(#a)">
<g transform="translate(77.578 647.34) scale(.1 -.1)">
<use xlink:href="#c"/>
<use x="63.623047" xlink:href="#f"/>
<use x="95.410156" xlink:href="#m"/>
<use x="159.033203" xlink:href="#ag"/>
</g>
</g>
<g clip-path="url(#a)">
<g transform="translate(100 526.62) scale(.1 -.1)">
<use xlink:href="#c"/>
<use x="63.623047" xlink:href="#f"/>
<use x="95.410156" xlink:href="#p"/>
<use x="159.033203" xlink:href="#ai"/>
</g>
</g>
<g clip-path="url(#a)">
<g transform="translate(91.593 647.34) scale(.1 -.1)">
<use xlink:href="#c"/>
<use x="63.623047" xlink:href="#f"/>
<use x="95.410156" xlink:href="#p"/>
<use x="159.033203" xlink:href="#c"/>
</g>
</g>
<g clip-path="url(#a)">
<g transform="translate(108.41 647.34) scale(.1 -.1)">
<use xlink:href="#c"/>
<use x="63.623047" xlink:href="#f"/>
<use x="95.410156" xlink:href="#p"/>
<use x="159.033203" xlink:href="#n"/>
</g>
</g>
<g clip-path="url(#a)">
<g transform="translate(128.03 647.34) scale(.1 -.1)">
<use xlink:href="#c"/>
<use x="63.623047" xlink:href="#f"/>
<use x="95.410156" xlink:href="#p"/>
<use x="159.033203" xlink:href="#m"/>
</g>
</g>
<g clip-path="url(#a)">
<g transform="translate(638.15 647.34) scale(.1 -.1)">
<use xlink:href="#c"/>
<use x="63.623047" xlink:href="#f"/>
<use x="95.410156" xlink:href="#p"/>
<use x="159.033203" xlink:href="#p"/>
</g>
</g>
<g clip-path="url(#a)">
<g transform="translate(1439.8 647.34) scale(.1 -.1)">
<use xlink:href="#c"/>
<use x="63.623047" xlink:href="#f"/>
<use x="95.410156" xlink:href="#p"/>
<use x="159.033203" xlink:href="#v"/>
</g>
</g>
<defs>
<clipPath id="a">
<rect width="1520" height="800"/>
</clipPath>
</defs>
</svg>
