<?xml version="1.0" encoding="UTF-8"?>
<!DOCTYPE svg  PUBLIC '-//W3C//DTD SVG 1.1//EN'  'http://www.w3.org/Graphics/SVG/1.1/DTD/svg11.dtd'>
<svg width="1570.7pt" height="826.67pt" version="1.1" viewBox="0 0 1570.7 826.67" xmlns="http://www.w3.org/2000/svg" xmlns:xlink="http://www.w3.org/1999/xlink">
<defs>
<style type="text/css">*{stroke-linecap:butt;stroke-linejoin:round;}</style>
</defs>
<path d="m0 826.67h1570.7v-826.67h-1570.7z" fill="#fff"/>
<g fill="none" stroke="#000">
<path d="m973.34 37.576-269.62 108.35" clip-path="url(#a)"/>
<path d="m973.34 37.576 118.75 646.22" clip-path="url(#a)"/>
<path d="m973.34 37.576 150.87 539.47" clip-path="url(#a)"/>
<path d="m703.72 145.93-494.59 108.17" clip-path="url(#a)"/>
<path d="m703.72 145.93 201.06 431.12" clip-path="url(#a)"/>
<path d="m703.72 145.93 244.49 537.87" clip-path="url(#a)"/>
<path d="m703.72 145.93 49.039 537.87" clip-path="url(#a)"/>
<path d="m1092.1 683.8v105.29" clip-path="url(#a)"/>
<path d="m1124.2 577.05 43.886 106.76" clip-path="url(#a)"/>
<path d="m1124.2 577.05 122.61 106.76" clip-path="url(#a)"/>
<path d="m1124.2 577.05 204.05 106.76" clip-path="url(#a)"/>
<path d="m1124.2 577.05 288.2 106.76" clip-path="url(#a)"/>
<path d="m1124.2 577.05-1033.8 106.76" clip-path="url(#a)" stroke-dasharray="3.7,1.6"/>
<path d="m1124.2 577.05 375.07 106.76" clip-path="url(#a)"/>
<path d="m1168.1 683.8v105.29" clip-path="url(#a)"/>
<path d="m1246.8 683.8v105.29" clip-path="url(#a)"/>
<path d="m1328.3 683.8v105.29" clip-path="url(#a)"/>
<path d="m1412.4 683.8v105.29" clip-path="url(#a)"/>
<path d="m209.13 254.1-128.24 322.95" clip-path="url(#a)"/>
<path d="m209.13 254.1-129.59 429.7" clip-path="url(#a)"/>
<path d="m209.13 254.1-118.74 429.7" clip-path="url(#a)"/>
<path d="m209.13 254.1 4.1301 107.95" clip-path="url(#a)"/>
<path d="m209.13 254.1 205.43 215.63" clip-path="url(#a)"/>
<path d="m209.13 254.1-105.16 429.7" clip-path="url(#a)"/>
<path d="m209.13 254.1 272.17 429.7" clip-path="url(#a)"/>
<path d="m904.78 577.05-89.582 106.76" clip-path="url(#a)"/>
<path d="m904.78 577.05-24.431 106.76" clip-path="url(#a)"/>
<path d="m904.78 577.05 114.01 106.76" clip-path="url(#a)"/>
<path d="m948.21 683.8v105.29" clip-path="url(#a)"/>
<path d="m815.19 683.8v105.29" clip-path="url(#a)"/>
<path d="m880.34 683.8v105.29" clip-path="url(#a)"/>
<path d="m1018.8 683.8v105.29" clip-path="url(#a)"/>
<path d="m80.895 577.05 9.5011 106.76" clip-path="url(#a)" stroke-dasharray="3.7,1.6"/>
<path d="m80.895 577.05-9.5011 106.76" clip-path="url(#a)"/>
<path d="m79.538 683.8v105.29" clip-path="url(#a)"/>
<path d="m90.396 683.8v105.29" clip-path="url(#a)"/>
<path d="m213.26 362.05-83.504 215" clip-path="url(#a)"/>
<path d="m213.26 362.05 83.504 107.68" clip-path="url(#a)"/>
<path d="m414.56 469.73-324.17 214.07" clip-path="url(#a)" stroke-dasharray="3.7,1.6"/>
<path d="m414.56 469.73 115.6 214.07" clip-path="url(#a)"/>
<path d="m414.56 469.73 208.57 107.32" clip-path="url(#a)"/>
<path d="m530.16 683.8v105.29" clip-path="url(#a)"/>
<path d="m623.14 577.05-41.398 106.76" clip-path="url(#a)"/>
<path d="m623.14 577.05 41.398 106.76" clip-path="url(#a)"/>
<path d="m581.74 683.8v105.29" clip-path="url(#a)"/>
<path d="m664.53 683.8-28.503 105.29" clip-path="url(#a)"/>
<path d="m664.53 683.8 28.503 105.29" clip-path="url(#a)"/>
<path d="m129.76 577.05-9.5011 106.76" clip-path="url(#a)"/>
<path d="m129.76 577.05 9.5011 106.76" clip-path="url(#a)"/>
<path d="m296.77 469.73-135.79 214.07" clip-path="url(#a)"/>
<path d="m296.77 469.73-45.907 107.32" clip-path="url(#a)"/>
<path d="m296.77 469.73 14.418 214.07" clip-path="url(#a)"/>
<path d="m296.77 469.73 75.044 107.32" clip-path="url(#a)"/>
<path d="m296.77 469.73 92.236 214.07" clip-path="url(#a)"/>
<path d="m160.98 683.8v105.29" clip-path="url(#a)"/>
<path d="m250.86 577.05 60.324 106.76" clip-path="url(#a)" stroke-dasharray="3.7,1.6"/>
<path d="m250.86 577.05-51.879 106.76" clip-path="url(#a)"/>
<path d="m250.86 577.05-8.4454 106.76" clip-path="url(#a)"/>
<path d="m311.18 683.8-36.195 105.29" clip-path="url(#a)"/>
<path d="m311.18 683.8-0.90487 105.29" clip-path="url(#a)"/>
<path d="m311.18 683.8 37.1 105.29" clip-path="url(#a)"/>
<path d="m371.81 577.05-60.626 106.76" clip-path="url(#a)" stroke-dasharray="3.7,1.6"/>
<path d="m371.81 577.05 63.341 106.76" clip-path="url(#a)"/>
<path d="m371.81 577.05 60.626 106.76" clip-path="url(#a)"/>
<path d="m432.44 683.8v105.29" clip-path="url(#a)"/>
<path d="m198.98 683.8-13.573 105.29" clip-path="url(#a)"/>
<path d="m198.98 683.8 13.573 105.29" clip-path="url(#a)"/>
<path d="m242.41 683.8v105.29" clip-path="url(#a)"/>
<path d="m120.26 683.8v105.29" clip-path="url(#a)"/>
<path d="m139.26 683.8v105.29" clip-path="url(#a)"/>
<path d="m71.394 683.8v105.29" clip-path="url(#a)"/>
<path d="m103.97 683.8v105.29" clip-path="url(#a)"/>
<path d="m389 683.8v105.29" clip-path="url(#a)"/>
<path d="m481.3 683.8v105.29" clip-path="url(#a)"/>
<path d="m752.76 683.8v105.29" clip-path="url(#a)"/>
<path d="m1499.3 683.8v105.29" clip-path="url(#a)"/>
</g>
<path d="m838.07 98.692 5.5823-2.2434q2.2269-0.89493 1.332-3.1218l-2.8871-7.1841q-0.89493-2.2269-3.1218-1.332l-5.5823 2.2434q-2.2269 0.89493-1.332 3.1218l2.8871 7.1841q0.89493 2.2269 3.1218 1.332z" clip-path="url(#a)" fill="#fff" stroke="#fff"/>
<g clip-path="url(#a)">
<defs>
<path id="ai" d="m9.8125 72.906h9.8594v-29.891h35.844v29.891h9.8594v-72.906h-9.8594v34.719h-35.844v-34.719h-9.8594z"/>
</defs>
<g transform="translate(836.56 94.921) rotate(-21.894) scale(.08 -.08)">
<use xlink:href="#ai"/>
</g>
</g>
<path d="m1026.1 359.63 0.8056 4.3841q0.43375 2.3605 2.7942 1.9267l7.615-1.3993q2.3605-0.43375 1.9267-2.7942l-0.8056-4.3841q-0.43375-2.3605-2.7942-1.9267l-7.615 1.3993q-2.3605 0.43375-1.9267 2.7942z" clip-path="url(#a)" fill="#fff" stroke="#fff"/>
<g clip-path="url(#a)">
<defs>
<path id="ao" d="m9.8125 72.906h9.8594v-64.609h35.5v-8.2969h-45.359z"/>
</defs>
<g transform="translate(1030.1 358.9) rotate(79.588) scale(.08 -.08)">
<use xlink:href="#ao"/>
</g>
</g>
<path d="m1041.9 306.1 1.6204 5.7939q0.64639 2.3113 2.9577 1.6649l7.4564-2.0853q2.3113-0.64639 1.6649-2.9577l-1.6204-5.7939q-0.64639-2.3113-2.9577-1.6649l-7.4564 2.0853q-2.3113 0.64639-1.6649 2.9577z" clip-path="url(#a)" fill="#fff" stroke="#fff"/>
<g clip-path="url(#a)">
<g transform="translate(1045.8 305.01) rotate(74.376) scale(.08 -.08)">
<use xlink:href="#ai"/>
</g>
</g>
<path d="m455.09 206.72 5.3461-1.1692q2.3446-0.51278 1.8318-2.8574l-1.6542-7.5637q-0.51278-2.3446-2.8574-1.8318l-5.3461 1.1692q-2.3446 0.51278-1.8318 2.8574l1.6542 7.5637q0.51278 2.3446 2.8574 1.8318z" clip-path="url(#a)" fill="#fff" stroke="#fff"/>
<g clip-path="url(#a)">
<defs>
<path id="m" d="m34.188 63.188-13.391-36.281h26.812zm-5.5781 9.7188h11.188l27.781-72.906h-10.25l-6.6406 18.703h-32.859l-6.6406-18.703h-10.406z"/>
</defs>
<g transform="translate(454.22 202.75) rotate(-12.337) scale(.08 -.08)">
<use xlink:href="#m"/>
</g>
</g>
<path d="m797.54 361.95 2.0388 4.3717q1.0144 2.1751 3.1895 1.1607l7.0169-3.2724q2.1751-1.0144 1.1607-3.1895l-2.0388-4.3717q-1.0144-2.1751-3.1895-1.1607l-7.0169 3.2724q-2.1751 1.0144-1.1607 3.1895z" clip-path="url(#a)" fill="#fff" stroke="#fff"/>
<g clip-path="url(#a)">
<defs>
<path id="s" d="m19.672 64.797v-27.391h12.406q6.8906 0 10.641 3.5625 3.7656 3.5625 3.7656 10.156 0 6.5469-3.7656 10.109-3.75 3.5625-10.641 3.5625zm-9.8594 8.1094h22.266q12.266 0 18.531-5.5469 6.2812-5.5469 6.2812-16.234 0-10.797-6.2812-16.312-6.2656-5.5156-18.531-5.5156h-12.406v-29.297h-9.8594z"/>
</defs>
<g transform="translate(801.23 360.23) rotate(64.997) scale(.08 -.08)">
<use xlink:href="#s"/>
</g>
</g>
<path d="m818.98 414.66 2.549 5.6078q0.99314 2.1849 3.178 1.1917l7.0485-3.2039q2.1849-0.99314 1.1917-3.178l-2.549-5.6078q-0.99314-2.1849-3.178-1.1917l-7.0485 3.2039q-2.1849 0.99314-1.1917 3.178z" clip-path="url(#a)" fill="#fff" stroke="#fff"/>
<g clip-path="url(#a)">
<defs>
<path id="w" d="m19.672 64.797v-56.688h11.922q15.094 0 22.094 6.8281 7 6.8438 7 21.594 0 14.641-7 21.453t-22.094 6.8125zm-9.8594 8.1094h20.266q21.188 0 31.094-8.8125 9.9219-8.8125 9.9219-27.562 0-18.859-9.9688-27.703-9.9531-8.8281-31.047-8.8281h-20.266z"/>
</defs>
<g transform="translate(822.68 412.97) rotate(65.556) scale(.08 -.08)">
<use xlink:href="#w"/>
</g>
</g>
<path d="m721.73 412.52 0.53161 5.8308q0.21791 2.3901 2.608 2.1722l7.7105-0.70299q2.3901-0.21791 2.1722-2.608l-0.53161-5.8308q-0.21791-2.3901-2.608-2.1722l-7.7105 0.70299q-2.3901 0.21791-2.1722 2.608z" clip-path="url(#a)" fill="#fff" stroke="#fff"/>
<g clip-path="url(#a)">
<defs>
<path id="v" d="m8.6875 72.906h9.9219v-44.297q0-11.719 4.2344-16.875 4.25-5.1406 13.781-5.1406 9.4688 0 13.719 5.1406 4.25 5.1562 4.25 16.875v44.297h9.9062v-45.516q0-14.25-7.0625-21.531-7.0469-7.2812-20.812-7.2812-13.828 0-20.891 7.2812-7.0469 7.2812-7.0469 21.531z"/>
</defs>
<g transform="translate(725.77 412.15) rotate(84.791) scale(.08 -.08)">
<use xlink:href="#v"/>
</g>
</g>
<path d="m1085.8 719.54v33.808q0 2.4 2.4 2.4h7.7425q2.4 0 2.4-2.4v-33.808q0-2.4-2.4-2.4h-7.7425q-2.4 0-2.4 2.4z" clip-path="url(#a)" fill="#fff" stroke="#fff"/>
<g clip-path="url(#a)">
<defs>
<path id="k" d="m-0.29688 72.906h61.672v-8.3125h-25.875v-64.594h-9.9062v64.594h-25.891z"/>
<path id="d" d="m56.203 29.594v-4.3906h-41.312q0.59375-9.2812 5.5938-14.141t13.938-4.8594q5.1719 0 10.031 1.2656t9.6562 3.8125v-8.5q-4.8438-2.0469-9.9219-3.125t-10.297-1.0781q-13.094 0-20.734 7.6094-7.6406 7.625-7.6406 20.625 0 13.422 7.25 21.297 7.25 7.8906 19.562 7.8906 11.031 0 17.453-7.1094 6.4219-7.0938 6.4219-19.297zm-8.9844 2.6406q-0.09375 7.3594-4.125 11.75-4.0312 4.4062-10.672 4.4062-7.5156 0-12.031-4.25t-5.2031-11.969z"/>
<path id="h" d="m41.109 46.297q-1.5156 0.875-3.2969 1.2812-1.7812 0.42188-3.9219 0.42188-7.625 0-11.703-4.9531t-4.0781-14.234v-28.812h-9.0312v54.688h9.0312v-8.5q2.8438 4.9844 7.375 7.3906 4.5469 2.4219 11.047 2.4219 0.92188 0 2.0469-0.125 1.125-0.10938 2.4844-0.35938z"/>
<path id="l" d="m52 44.188q3.375 6.0625 8.0625 8.9375t11.031 2.875q8.5469 0 13.188-5.9844 4.6406-5.9688 4.6406-17v-33.016h-9.0312v32.719q0 7.8594-2.7969 11.656-2.7812 3.8125-8.4844 3.8125-6.9844 0-11.047-4.6406-4.0469-4.625-4.0469-12.641v-30.906h-9.0312v32.719q0 7.9062-2.7812 11.688t-8.5938 3.7812q-6.8906 0-10.953-4.6562-4.0469-4.6562-4.0469-12.625v-30.906h-9.0312v54.688h9.0312v-8.5q3.0781 5.0312 7.375 7.4219t10.203 2.3906q5.9688 0 10.141-3.0312 4.1719-3.0156 6.1719-8.7812z"/>
<path id="j" d="m9.4219 54.688h8.9844v-54.688h-8.9844zm0 21.297h8.9844v-11.391h-8.9844z"/>
<path id="i" d="m54.891 33.016v-33.016h-8.9844v32.719q0 7.7656-3.0312 11.609-3.0312 3.8594-9.0781 3.8594-7.2812 0-11.484-4.6406-4.2031-4.625-4.2031-12.641v-30.906h-9.0312v54.688h9.0312v-8.5q3.2344 4.9375 7.5938 7.375 4.375 2.4375 10.094 2.4375 9.4219 0 14.25-5.8281 4.8438-5.8281 4.8438-17.156z"/>
<path id="e" d="m34.281 27.484q-10.891 0-15.094-2.4844t-4.2031-8.5q0-4.7812 3.1562-7.5938 3.1562-2.7969 8.5625-2.7969 7.4844 0 12 5.2969t4.5156 14.078v2zm17.922 3.7188v-31.203h-8.9844v8.2969q-3.0781-4.9688-7.6719-7.3438t-11.234-2.375q-8.3906 0-13.359 4.7188-4.9531 4.7188-4.9531 12.625 0 9.2188 6.1719 13.906 6.1875 4.6875 18.438 4.6875h12.609v0.89062q0 6.2031-4.0781 9.5938t-11.453 3.3906q-4.6875 0-9.1406-1.125-4.4375-1.125-8.5312-3.375v8.3125q4.9219 1.9062 9.5625 2.8438 4.6406 0.95312 9.0312 0.95312 11.875 0 17.734-6.1562 5.8594-6.1406 5.8594-18.641z"/>
<path id="g" d="m9.4219 75.984h8.9844v-75.984h-8.9844z"/>
</defs>
<g transform="translate(1089.9 719.54) rotate(90) scale(.08 -.08)">
<use xlink:href="#k"/>
<use x="44.083984" xlink:href="#d"/>
<use x="105.607422" xlink:href="#h"/>
<use x="144.970703" xlink:href="#l"/>
<use x="242.382812" xlink:href="#j"/>
<use x="270.166016" xlink:href="#i"/>
<use x="333.544922" xlink:href="#e"/>
<use x="394.824219" xlink:href="#g"/>
</g>
</g>
<path d="m1139.2 629.96 2.3421 5.6974q0.91252 2.2198 3.1323 1.3072l7.161-2.9438q2.2198-0.91252 1.3072-3.1323l-2.3421-5.6974q-0.91252-2.2198-3.1323-1.3072l-7.161 2.9438q-2.2198 0.91252-1.3072 3.1323z" clip-path="url(#a)" fill="#fff" stroke="#fff"/>
<g clip-path="url(#a)">
<g transform="translate(1142.9 628.41) rotate(67.653) scale(.08 -.08)">
<use xlink:href="#w"/>
</g>
</g>
<path d="m1179.1 633.13 4.6458 4.045q1.81 1.576 3.386-0.23405l5.0842-5.8393q1.576-1.81-0.23405-3.386l-4.6458-4.045q-1.81-1.576-3.386 0.23405l-5.0842 5.8393q-1.576 1.81 0.23405 3.386z" clip-path="url(#a)" fill="#fff" stroke="#fff"/>
<g clip-path="url(#a)">
<g transform="translate(1181.7 630.07) rotate(41.046) scale(.08 -.08)">
<use xlink:href="#w"/>
</g>
</g>
<path d="m1220.6 634.55 5.4581 2.8556q2.1265 1.1126 3.2391-1.014l3.5892-6.8603q1.1126-2.1265-1.014-3.2391l-5.4581-2.8556q-2.1265-1.1126-3.2391 1.014l-3.5892 6.8603q-1.1126 2.1265 1.014 3.2391z" clip-path="url(#a)" fill="#fff" stroke="#fff"/>
<g clip-path="url(#a)">
<g transform="translate(1222.5 630.95) rotate(27.618) scale(.08 -.08)">
<use xlink:href="#w"/>
</g>
</g>
<path d="m1263.9 635.47 4.5234 1.6756q2.2506 0.83365 3.0842-1.4169l2.6894-7.2604q0.83365-2.2506-1.4169-3.0842l-4.5234-1.6756q-2.2506-0.83365-3.0842 1.4169l-2.6894 7.2604q-0.83365 2.2506 1.4169 3.0842z" clip-path="url(#a)" fill="#fff" stroke="#fff"/>
<g clip-path="url(#a)">
<g transform="translate(1265.3 631.66) rotate(20.326) scale(.08 -.08)">
<use xlink:href="#s"/>
</g>
</g>
<path d="m605.22 636.94 5.4436-0.56212q2.3873-0.24652 2.1408-2.6338l-0.79529-7.7015q-0.24652-2.3873-2.6338-2.1408l-5.4436 0.56212q-2.3873 0.24652-2.1408 2.6338l0.79529 7.7015q0.24652 2.3873 2.6338 2.1408z" clip-path="url(#a)" fill="#fff" stroke="#fff"/>
<g clip-path="url(#a)">
<g transform="translate(604.81 632.9) rotate(-5.8957) scale(.08 -.08)">
<use xlink:href="#m"/>
</g>
</g>
<path d="m1307.2 635.65 5.6313 1.6028q2.3083 0.65702 2.9653-1.6513l2.1196-7.4467q0.65702-2.3083-1.6513-2.9653l-5.6313-1.6028q-2.3083-0.65702-2.9653 1.6513l-2.1196 7.4467q-0.65702 2.3083 1.6513 2.9653z" clip-path="url(#a)" fill="#fff" stroke="#fff"/>
<g clip-path="url(#a)">
<g transform="translate(1308.3 631.74) rotate(15.888) scale(.08 -.08)">
<use xlink:href="#v"/>
</g>
</g>
<path d="m1161.8 719.54v33.808q0 2.4 2.4 2.4h7.7425q2.4 0 2.4-2.4v-33.808q0-2.4-2.4-2.4h-7.7425q-2.4 0-2.4 2.4z" clip-path="url(#a)" fill="#fff" stroke="#fff"/>
<g clip-path="url(#a)">
<g transform="translate(1165.9 719.54) rotate(90) scale(.08 -.08)">
<use xlink:href="#k"/>
<use x="44.083984" xlink:href="#d"/>
<use x="105.607422" xlink:href="#h"/>
<use x="144.970703" xlink:href="#l"/>
<use x="242.382812" xlink:href="#j"/>
<use x="270.166016" xlink:href="#i"/>
<use x="333.544922" xlink:href="#e"/>
<use x="394.824219" xlink:href="#g"/>
</g>
</g>
<path d="m1240.5 719.54v33.808q0 2.4 2.4 2.4h7.7425q2.4 0 2.4-2.4v-33.808q0-2.4-2.4-2.4h-7.7425q-2.4 0-2.4 2.4z" clip-path="url(#a)" fill="#fff" stroke="#fff"/>
<g clip-path="url(#a)">
<g transform="translate(1244.6 719.54) rotate(90) scale(.08 -.08)">
<use xlink:href="#k"/>
<use x="44.083984" xlink:href="#d"/>
<use x="105.607422" xlink:href="#h"/>
<use x="144.970703" xlink:href="#l"/>
<use x="242.382812" xlink:href="#j"/>
<use x="270.166016" xlink:href="#i"/>
<use x="333.544922" xlink:href="#e"/>
<use x="394.824219" xlink:href="#g"/>
</g>
</g>
<path d="m1322 719.54v33.808q0 2.4 2.4 2.4h7.7425q2.4 0 2.4-2.4v-33.808q0-2.4-2.4-2.4h-7.7425q-2.4 0-2.4 2.4z" clip-path="url(#a)" fill="#fff" stroke="#fff"/>
<g clip-path="url(#a)">
<g transform="translate(1326 719.54) rotate(90) scale(.08 -.08)">
<use xlink:href="#k"/>
<use x="44.083984" xlink:href="#d"/>
<use x="105.607422" xlink:href="#h"/>
<use x="144.970703" xlink:href="#l"/>
<use x="242.382812" xlink:href="#j"/>
<use x="270.166016" xlink:href="#i"/>
<use x="333.544922" xlink:href="#e"/>
<use x="394.824219" xlink:href="#g"/>
</g>
</g>
<path d="m1406.1 719.54v33.808q0 2.4 2.4 2.4h7.7425q2.4 0 2.4-2.4v-33.808q0-2.4-2.4-2.4h-7.7425q-2.4 0-2.4 2.4z" clip-path="url(#a)" fill="#fff" stroke="#fff"/>
<g clip-path="url(#a)">
<g transform="translate(1410.2 719.54) rotate(90) scale(.08 -.08)">
<use xlink:href="#k"/>
<use x="44.083984" xlink:href="#d"/>
<use x="105.607422" xlink:href="#h"/>
<use x="144.970703" xlink:href="#l"/>
<use x="242.382812" xlink:href="#j"/>
<use x="270.166016" xlink:href="#i"/>
<use x="333.544922" xlink:href="#e"/>
<use x="394.824219" xlink:href="#g"/>
</g>
</g>
<path d="m149.91 420.23 1.8656-4.6982q0.88572-2.2306-1.3449-3.1163l-7.1959-2.8574q-2.2306-0.88572-3.1163 1.3449l-1.8656 4.6982q-0.88572 2.2306 1.3449 3.1163l7.1959 2.8574q2.2306 0.88572 3.1163-1.3449z" clip-path="url(#a)" fill="#fff" stroke="#fff"/>
<g clip-path="url(#a)">
<defs>
<path id="q" d="m9.8125 72.906h46.094v-8.3125h-36.234v-21.578h34.719v-8.2969h-34.719v-26.422h37.109v-8.2969h-46.969z"/>
</defs>
<g transform="translate(146.13 418.74) rotate(-68.343) scale(.08 -.08)">
<use xlink:href="#q"/>
</g>
</g>
<path d="m149.61 473.18 1.4596-4.8397q0.69299-2.2978-1.6048-2.9908l-7.4127-2.2356q-2.2978-0.69298-2.9908 1.6048l-1.4596 4.8397q-0.69299 2.2978 1.6048 2.9908l7.4127 2.2356q2.2978 0.69299 2.9908-1.6048z" clip-path="url(#a)" fill="#fff" stroke="#fff"/>
<g clip-path="url(#a)">
<g transform="translate(145.72 472.01) rotate(-73.217) scale(.08 -.08)">
<use xlink:href="#q"/>
</g>
</g>
<path d="m155.06 473.31 1.4878-5.3845q0.63922-2.3133-1.6741-2.9525l-7.4628-2.0621q-2.3133-0.63921-2.9525 1.6741l-1.4878 5.3845q-0.63922 2.3133 1.6741 2.9525l7.4628 2.0621q2.3133 0.63921 2.9525-1.6741z" clip-path="url(#a)" fill="#fff" stroke="#fff"/>
<g clip-path="url(#a)">
<defs>
<path id="t" d="m64.406 67.281v-10.391q-4.9844 4.6406-10.625 6.9219-5.6406 2.2969-11.984 2.2969-12.5 0-19.141-7.6406t-6.6406-22.094q0-14.406 6.6406-22.047t19.141-7.6406q6.3438 0 11.984 2.2969t10.625 6.9375v-10.312q-5.1719-3.5156-10.969-5.2812-5.7812-1.75-12.219-1.75-16.562 0-26.094 10.125-9.5156 10.141-9.5156 27.672 0 17.578 9.5156 27.703 9.5312 10.141 26.094 10.141 6.5312 0 12.312-1.7344 5.7969-1.7344 10.875-5.2031z"/>
</defs>
<g transform="translate(151.15 472.23) rotate(-74.553) scale(.08 -.08)">
<use xlink:href="#t"/>
</g>
</g>
<path d="m204.83 305.79 0.19325 5.0513q0.091753 2.3982 2.49 2.3065l7.7368-0.296q2.3982-0.091753 2.3065-2.49l-0.19325-5.0513q-0.091753-2.3982-2.49-2.3065l-7.7368 0.296q-2.3982 0.091753-2.3065 2.49z" clip-path="url(#a)" fill="#fff" stroke="#fff"/>
<g clip-path="url(#a)">
<g transform="translate(208.89 305.63) rotate(87.809) scale(.08 -.08)">
<use xlink:href="#q"/>
</g>
</g>
<path d="m305.56 364.41 3.4868 3.6599q1.6555 1.7377 3.3931 0.082198l5.6058-5.3406q1.7377-1.6555 0.082198-3.3931l-3.4868-3.6599q-1.6555-1.7377-3.3931-0.082198l-5.6058 5.3406q-1.7377 1.6555-0.082198 3.3931z" clip-path="url(#a)" fill="#fff" stroke="#fff"/>
<g clip-path="url(#a)">
<g transform="translate(308.51 361.61) rotate(46.388) scale(.08 -.08)">
<use xlink:href="#q"/>
</g>
</g>
<path d="m161.95 473.28 1.3918-5.6872q0.57052-2.3312-1.7607-2.9017l-7.5206-1.8405q-2.3312-0.57052-2.9017 1.7607l-1.3918 5.6872q-0.57052 2.3312 1.7607 2.9017l7.5206 1.8405q2.3312 0.57052 2.9017-1.7607z" clip-path="url(#a)" fill="#fff" stroke="#fff"/>
<g clip-path="url(#a)">
<g transform="translate(158 472.32) rotate(-76.248) scale(.08 -.08)">
<use xlink:href="#v"/>
</g>
</g>
<path d="m338.35 469.83 3.1329 4.9463q1.2842 2.0275 3.3117 0.74332l6.5409-4.1429q2.0275-1.2842 0.74332-3.3117l-3.1329-4.9463q-1.2842-2.0275-3.3117-0.74332l-6.5409 4.1429q-2.0275 1.2842-0.74332 3.3117z" clip-path="url(#a)" fill="#fff" stroke="#fff"/>
<g clip-path="url(#a)">
<g transform="translate(341.78 467.66) rotate(57.651) scale(.08 -.08)">
<use xlink:href="#v"/>
</g>
</g>
<path d="m863.31 636.22 2.9577-3.5247q1.5427-1.8385-0.29575-3.3812l-5.931-4.9769q-1.8385-1.5427-3.3812 0.29575l-2.9577 3.5247q-1.5427 1.8385 0.29575 3.3812l5.931 4.9769q1.8385 1.5427 3.3812-0.29575z" clip-path="url(#a)" fill="#fff" stroke="#fff"/>
<g clip-path="url(#a)">
<defs>
<path id="at" d="m9.8125 72.906h41.891v-8.3125h-32.031v-21.484h28.906v-8.2969h-28.906v-34.812h-9.8594z"/>
</defs>
<g transform="translate(860.2 633.6) rotate(-49.999) scale(.08 -.08)">
<use xlink:href="#at"/>
</g>
</g>
<path d="m898.11 634.29 1.1277-4.9276q0.53541-2.3395-1.8041-2.8749l-7.5474-1.7273q-2.3395-0.53541-2.8749 1.8041l-1.1277 4.9276q-0.53541 2.3395 1.8041 2.8749l7.5474 1.7273q2.3395 0.53541 2.8749-1.8041z" clip-path="url(#a)" fill="#fff" stroke="#fff"/>
<g clip-path="url(#a)">
<g transform="translate(894.15 633.38) rotate(-77.11) scale(.08 -.08)">
<use xlink:href="#q"/>
</g>
</g>
<path d="m955.46 633.09 4.0777 3.8181q1.7519 1.6404 3.3923-0.11153l5.2919-5.6517q1.6404-1.7519-0.11153-3.3923l-4.0777-3.8181q-1.7519-1.6404-3.3923 0.11153l-5.2919 5.6517q-1.6404 1.7519 0.11152 3.3923z" clip-path="url(#a)" fill="#fff" stroke="#fff"/>
<g clip-path="url(#a)">
<g transform="translate(958.23 630.13) rotate(43.117) scale(.08 -.08)">
<use xlink:href="#t"/>
</g>
</g>
<path d="m941.94 719.54v33.808q0 2.4 2.4 2.4h7.7425q2.4 0 2.4-2.4v-33.808q0-2.4-2.4-2.4h-7.7425q-2.4 0-2.4 2.4z" clip-path="url(#a)" fill="#fff" stroke="#fff"/>
<g clip-path="url(#a)">
<g transform="translate(946 719.54) rotate(90) scale(.08 -.08)">
<use xlink:href="#k"/>
<use x="44.083984" xlink:href="#d"/>
<use x="105.607422" xlink:href="#h"/>
<use x="144.970703" xlink:href="#l"/>
<use x="242.382812" xlink:href="#j"/>
<use x="270.166016" xlink:href="#i"/>
<use x="333.544922" xlink:href="#e"/>
<use x="394.824219" xlink:href="#g"/>
</g>
</g>
<path d="m808.92 719.54v33.808q0 2.4 2.4 2.4h7.7425q2.4 0 2.4-2.4v-33.808q0-2.4-2.4-2.4h-7.7425q-2.4 0-2.4 2.4z" clip-path="url(#a)" fill="#fff" stroke="#fff"/>
<g clip-path="url(#a)">
<g transform="translate(812.99 719.54) rotate(90) scale(.08 -.08)">
<use xlink:href="#k"/>
<use x="44.083984" xlink:href="#d"/>
<use x="105.607422" xlink:href="#h"/>
<use x="144.970703" xlink:href="#l"/>
<use x="242.382812" xlink:href="#j"/>
<use x="270.166016" xlink:href="#i"/>
<use x="333.544922" xlink:href="#e"/>
<use x="394.824219" xlink:href="#g"/>
</g>
</g>
<path d="m874.07 719.54v33.808q0 2.4 2.4 2.4h7.7425q2.4 0 2.4-2.4v-33.808q0-2.4-2.4-2.4h-7.7425q-2.4 0-2.4 2.4z" clip-path="url(#a)" fill="#fff" stroke="#fff"/>
<g clip-path="url(#a)">
<g transform="translate(878.14 719.54) rotate(90) scale(.08 -.08)">
<use xlink:href="#k"/>
<use x="44.083984" xlink:href="#d"/>
<use x="105.607422" xlink:href="#h"/>
<use x="144.970703" xlink:href="#l"/>
<use x="242.382812" xlink:href="#j"/>
<use x="270.166016" xlink:href="#i"/>
<use x="333.544922" xlink:href="#e"/>
<use x="394.824219" xlink:href="#g"/>
</g>
</g>
<path d="m1012.5 719.54v33.808q0 2.4 2.4 2.4h7.7425q2.4 0 2.4-2.4v-33.808q0-2.4-2.4-2.4h-7.7425q-2.4 0-2.4 2.4z" clip-path="url(#a)" fill="#fff" stroke="#fff"/>
<g clip-path="url(#a)">
<g transform="translate(1016.6 719.54) rotate(90) scale(.08 -.08)">
<use xlink:href="#k"/>
<use x="44.083984" xlink:href="#d"/>
<use x="105.607422" xlink:href="#h"/>
<use x="144.970703" xlink:href="#l"/>
<use x="242.382812" xlink:href="#j"/>
<use x="270.166016" xlink:href="#i"/>
<use x="333.544922" xlink:href="#e"/>
<use x="394.824219" xlink:href="#g"/>
</g>
</g>
<path d="m79.156 628.25 0.48513 5.451q0.21276 2.3906 2.6033 2.1778l7.712-0.68636q2.3906-0.21276 2.1778-2.6033l-0.48513-5.451q-0.21276-2.3906-2.6033-2.1778l-7.712 0.68636q-2.3906 0.21276-2.1778 2.6033z" clip-path="url(#a)" fill="#fff" stroke="#fff"/>
<g clip-path="url(#a)">
<g transform="translate(83.204 627.89) rotate(84.914) scale(.08 -.08)">
<use xlink:href="#m"/>
</g>
</g>
<path d="m81.932 637.59 1.1743-13.194q0.21276-2.3906-2.1778-2.6033l-7.9685-0.70919q-2.3906-0.21276-2.6033 2.1778l-1.1743 13.194q-0.21276 2.3906 2.1778 2.6033l7.9685 0.70919q2.3906 0.21276 2.6033-2.1778z" clip-path="url(#a)" fill="#fff" stroke="#fff"/>
<g clip-path="url(#a)">
<defs>
<path id="an" d="m53.516 70.516v-9.625q-5.6094 2.6875-10.594 4-4.9844 1.3281-9.625 1.3281-8.0469 0-12.422-3.125t-4.375-8.8906q0-4.8438 2.9062-7.3125 2.9062-2.4531 11.016-3.9688l5.9531-1.2188q11.031-2.1094 16.281-7.4062t5.25-14.172q0-10.609-7.1094-16.078-7.0938-5.4688-20.812-5.4688-5.1719 0-11.016 1.1719-5.8281 1.1719-12.078 3.4688v10.156q6-3.3594 11.766-5.0781 5.7656-1.7031 11.328-1.7031 8.4375 0 13.031 3.3125 4.5938 3.3281 4.5938 9.4844 0 5.3594-3.2969 8.3906t-10.812 4.5469l-6.0156 1.1719q-11.031 2.1875-15.969 6.875-4.9219 4.6875-4.9219 13.047 0 9.6719 6.8125 15.234t18.766 5.5625q5.1406 0 10.453-0.9375 5.3281-0.92188 10.891-2.7656z"/>
<path id="ay" d="m21 76.422v-100h-8.2969v100z"/>
</defs>
<g transform="translate(77.663 637.21) rotate(-84.914) scale(.08 -.08)">
<use xlink:href="#an"/>
<use x="63.476562" xlink:href="#ay"/>
<use x="97.167969" xlink:href="#m"/>
</g>
</g>
<path d="m73.266 719.54v33.808q0 2.4 2.4 2.4h7.7425q2.4 0 2.4-2.4v-33.808q0-2.4-2.4-2.4h-7.7425q-2.4 0-2.4 2.4z" clip-path="url(#a)" fill="#fff" stroke="#fff"/>
<g clip-path="url(#a)">
<g transform="translate(77.33 719.54) rotate(90) scale(.08 -.08)">
<use xlink:href="#k"/>
<use x="44.083984" xlink:href="#d"/>
<use x="105.607422" xlink:href="#h"/>
<use x="144.970703" xlink:href="#l"/>
<use x="242.382812" xlink:href="#j"/>
<use x="270.166016" xlink:href="#i"/>
<use x="333.544922" xlink:href="#e"/>
<use x="394.824219" xlink:href="#g"/>
</g>
</g>
<path d="m84.125 719.54v33.808q0 2.4 2.4 2.4h7.7425q2.4 0 2.4-2.4v-33.808q0-2.4-2.4-2.4h-7.7425q-2.4 0-2.4 2.4z" clip-path="url(#a)" fill="#fff" stroke="#fff"/>
<g clip-path="url(#a)">
<g transform="translate(88.189 719.54) rotate(90) scale(.08 -.08)">
<use xlink:href="#k"/>
<use x="44.083984" xlink:href="#d"/>
<use x="105.607422" xlink:href="#h"/>
<use x="144.970703" xlink:href="#l"/>
<use x="242.382812" xlink:href="#j"/>
<use x="270.166016" xlink:href="#i"/>
<use x="333.544922" xlink:href="#e"/>
<use x="394.824219" xlink:href="#g"/>
</g>
</g>
<path d="m176.48 474.07 1.7464-4.4965q0.86892-2.2372-1.3683-3.1061l-7.2172-2.8032q-2.2372-0.86892-3.1061 1.3683l-1.7464 4.4965q-0.86892 2.2372 1.3683 3.1061l7.2172 2.8032q2.2372 0.86892 3.1061-1.3683z" clip-path="url(#a)" fill="#fff" stroke="#fff"/>
<g clip-path="url(#a)">
<g transform="translate(172.69 472.6) rotate(-68.774) scale(.08 -.08)">
<use xlink:href="#s"/>
</g>
</g>
<path d="m248.38 417.57 3.3536 4.3245q1.4707 1.8966 3.3673 0.42581l6.1184-4.7447q1.8966-1.4707 0.42581-3.3673l-3.3536-4.3245q-1.4707-1.8966-3.3673-0.42581l-6.1184 4.7447q-1.8966 1.4707-0.42581 3.3673z" clip-path="url(#a)" fill="#fff" stroke="#fff"/>
<g clip-path="url(#a)">
<g transform="translate(251.59 415.08) rotate(52.207) scale(.08 -.08)">
<use xlink:href="#m"/>
</g>
</g>
<path d="m253.65 583.51 4.5666-3.0157q2.0027-1.3225 0.68019-3.3253l-4.2665-6.4609q-1.3225-2.0027-3.3253-0.68019l-4.5666 3.0157q-2.0027 1.3225-0.68019 3.3253l4.2665 6.4609q1.3225 2.0027 3.3253 0.68019z" clip-path="url(#a)" fill="#fff" stroke="#fff"/>
<g clip-path="url(#a)">
<g transform="translate(251.41 580.12) rotate(-33.439) scale(.08 -.08)">
<use xlink:href="#m"/>
</g>
</g>
<path d="m465.7 577.62 2.292 4.2445q1.1403 2.1118 3.2521 0.97143l6.8127-3.6788q2.1118-1.1403 0.97143-3.2521l-2.292-4.2445q-1.1403-2.1118-3.2521-0.97143l-6.8127 3.6788q-2.1118 1.1403-0.97143 3.2521z" clip-path="url(#a)" fill="#fff" stroke="#fff"/>
<g clip-path="url(#a)">
<g transform="translate(469.27 575.69) rotate(61.631) scale(.08 -.08)">
<use xlink:href="#s"/>
</g>
</g>
<path d="m513.55 527.71 4.8662 2.5038q2.1341 1.098 3.2321-1.036l3.5423-6.8846q1.098-2.1341-1.036-3.2321l-4.8662-2.5038q-2.1341-1.098-3.2321 1.036l-3.5423 6.8846q-1.098 2.1341 1.036 3.2321z" clip-path="url(#a)" fill="#fff" stroke="#fff"/>
<g clip-path="url(#a)">
<g transform="translate(515.41 524.1) rotate(27.227) scale(.08 -.08)">
<use xlink:href="#m"/>
</g>
</g>
<path d="m523.89 719.54v33.808q0 2.4 2.4 2.4h7.7425q2.4 0 2.4-2.4v-33.808q0-2.4-2.4-2.4h-7.7425q-2.4 0-2.4 2.4z" clip-path="url(#a)" fill="#fff" stroke="#fff"/>
<g clip-path="url(#a)">
<g transform="translate(527.95 719.54) rotate(90) scale(.08 -.08)">
<use xlink:href="#k"/>
<use x="44.083984" xlink:href="#d"/>
<use x="105.607422" xlink:href="#h"/>
<use x="144.970703" xlink:href="#l"/>
<use x="242.382812" xlink:href="#j"/>
<use x="270.166016" xlink:href="#i"/>
<use x="333.544922" xlink:href="#e"/>
<use x="394.824219" xlink:href="#g"/>
</g>
</g>
<path d="m607.28 635.28 2.0098-5.1827q0.86772-2.2376-1.3699-3.1054l-7.2187-2.7993q-2.2376-0.86772-3.1054 1.3699l-2.0098 5.1827q-0.86772 2.2376 1.3699 3.1054l7.2187 2.7993q2.2376 0.86772 3.1054-1.3699z" clip-path="url(#a)" fill="#fff" stroke="#fff"/>
<g clip-path="url(#a)">
<defs>
<path id="ag" d="m44.391 34.188q3.1719-1.0781 6.1719-4.5938t6.0312-9.6719l10.016-19.922h-10.609l-9.3125 18.703q-3.625 7.3281-7.0156 9.7188t-9.25 2.3906h-10.75v-30.812h-9.8594v72.906h22.266q12.5 0 18.656-5.2344 6.1562-5.2188 6.1562-15.766 0-6.8906-3.2031-11.438-3.2031-4.5312-9.2969-6.2812zm-24.719 30.609v-25.875h12.406q7.125 0 10.766 3.2969t3.6406 9.6875-3.6406 9.6406-10.766 3.25z"/>
</defs>
<g transform="translate(603.49 633.81) rotate(-68.805) scale(.08 -.08)">
<use xlink:href="#ag"/>
</g>
</g>
<path d="m636.98 630.09 2.0197 5.2084q0.86772 2.2376 3.1054 1.3699l7.2187-2.7993q2.2376-0.86772 1.3699-3.1054l-2.0197-5.2084q-0.86772-2.2376-3.1054-1.3699l-7.2187 2.7993q-2.2376 0.86772-1.3699 3.1054z" clip-path="url(#a)" fill="#fff" stroke="#fff"/>
<g clip-path="url(#a)">
<g transform="translate(640.77 628.62) rotate(68.805) scale(.08 -.08)">
<use xlink:href="#t"/>
</g>
</g>
<path d="m575.47 719.54v33.808q0 2.4 2.4 2.4h7.7425q2.4 0 2.4-2.4v-33.808q0-2.4-2.4-2.4h-7.7425q-2.4 0-2.4 2.4z" clip-path="url(#a)" fill="#fff" stroke="#fff"/>
<g clip-path="url(#a)">
<g transform="translate(579.53 719.54) rotate(90) scale(.08 -.08)">
<use xlink:href="#k"/>
<use x="44.083984" xlink:href="#d"/>
<use x="105.607422" xlink:href="#h"/>
<use x="144.970703" xlink:href="#l"/>
<use x="242.382812" xlink:href="#j"/>
<use x="270.166016" xlink:href="#i"/>
<use x="333.544922" xlink:href="#e"/>
<use x="394.824219" xlink:href="#g"/>
</g>
</g>
<path d="m651.92 754.4 8.8341-32.633q0.62713-2.3166-1.6895-2.9437l-7.4735-2.0232q-2.3166-0.62713-2.9437 1.6895l-8.8341 32.633q-0.62713 2.3166 1.6895 2.9437l7.4735 2.0232q2.3166 0.62713 2.9437-1.6895z" clip-path="url(#a)" fill="#fff" stroke="#fff"/>
<g clip-path="url(#a)">
<g transform="translate(648 753.34) rotate(-74.852) scale(.08 -.08)">
<use xlink:href="#k"/>
<use x="44.083984" xlink:href="#d"/>
<use x="105.607422" xlink:href="#h"/>
<use x="144.970703" xlink:href="#l"/>
<use x="242.382812" xlink:href="#j"/>
<use x="270.166016" xlink:href="#i"/>
<use x="333.544922" xlink:href="#e"/>
<use x="394.824219" xlink:href="#g"/>
</g>
</g>
<path d="m668.31 721.77 8.8341 32.633q0.62713 2.3166 2.9437 1.6895l7.4735-2.0232q2.3166-0.62713 1.6895-2.9437l-8.8341-32.633q-0.62713-2.3166-2.9437-1.6895l-7.4735 2.0232q-2.3166 0.62713-1.6895 2.9437z" clip-path="url(#a)" fill="#fff" stroke="#fff"/>
<g clip-path="url(#a)">
<g transform="translate(672.24 720.71) rotate(74.852) scale(.08 -.08)">
<use xlink:href="#k"/>
<use x="44.083984" xlink:href="#d"/>
<use x="105.607422" xlink:href="#h"/>
<use x="144.970703" xlink:href="#l"/>
<use x="242.382812" xlink:href="#j"/>
<use x="270.166016" xlink:href="#i"/>
<use x="333.544922" xlink:href="#e"/>
<use x="394.824219" xlink:href="#g"/>
</g>
</g>
<path d="m131.03 633.5 0.44812-5.0351q0.21276-2.3906-2.1778-2.6033l-7.712-0.68636q-2.3906-0.21276-2.6033 2.1778l-0.44812 5.0351q-0.21276 2.3906 2.1778 2.6033l7.712 0.68636q2.3906 0.21276 2.6033-2.1778z" clip-path="url(#a)" fill="#fff" stroke="#fff"/>
<g clip-path="url(#a)">
<g transform="translate(126.98 633.14) rotate(-84.914) scale(.08 -.08)">
<use xlink:href="#q"/>
</g>
</g>
<path d="m128.01 628.2 0.49521 5.5643q0.21276 2.3906 2.6033 2.1778l7.712-0.68636q2.3906-0.21276 2.1778-2.6033l-0.49521-5.5643q-0.21276-2.3906-2.6033-2.1778l-7.712 0.68636q-2.3906 0.21276-2.1778 2.6033z" clip-path="url(#a)" fill="#fff" stroke="#fff"/>
<g clip-path="url(#a)">
<g transform="translate(132.06 627.84) rotate(84.914) scale(.08 -.08)">
<use xlink:href="#t"/>
</g>
</g>
<path d="m232.68 582.47 2.9775-4.694q1.2856-2.0267-0.7411-3.3122l-6.5381-4.1473q-2.0267-1.2856-3.3122 0.7411l-2.9775 4.694q-1.2856 2.0267 0.7411 3.3122l6.5381 4.1473q2.0267 1.2856 3.3122-0.7411z" clip-path="url(#a)" fill="#fff" stroke="#fff"/>
<g clip-path="url(#a)">
<g transform="translate(229.25 580.29) rotate(-57.612) scale(.08 -.08)">
<use xlink:href="#ag"/>
</g>
</g>
<path d="m278.58 528.18 1.9881-4.6476q0.94392-2.2066-1.2627-3.1505l-7.1185-3.0451q-2.2066-0.94392-3.1505 1.2627l-1.9881 4.6476q-0.94392 2.2066 1.2627 3.1505l7.1185 3.0451q2.2066 0.94392 3.1505-1.2627z" clip-path="url(#a)" fill="#fff" stroke="#fff"/>
<g clip-path="url(#a)">
<g transform="translate(274.85 526.58) rotate(-66.84) scale(.08 -.08)">
<use xlink:href="#q"/>
</g>
</g>
<path d="m297.53 574.4 0.37538 5.5736q0.16127 2.3946 2.5558 2.2333l7.725-0.52028q2.3946-0.16127 2.2333-2.5558l-0.37538-5.5736q-0.16127-2.3946-2.5558-2.2333l-7.725 0.52028q-2.3946 0.16127-2.2333 2.5558z" clip-path="url(#a)" fill="#fff" stroke="#fff"/>
<g clip-path="url(#a)">
<g transform="translate(301.58 574.13) rotate(86.147) scale(.08 -.08)">
<use xlink:href="#t"/>
</g>
</g>
<path d="m327.7 524.91 2.8969 4.1426q1.3754 1.9668 3.3422 0.59146l6.345-4.437q1.9668-1.3754 0.59146-3.3422l-2.8969-4.1426q-1.3754-1.9668-3.3422-0.59146l-6.345 4.437q-1.9668 1.3754-0.59146 3.3422z" clip-path="url(#a)" fill="#fff" stroke="#fff"/>
<g clip-path="url(#a)">
<g transform="translate(331.03 522.58) rotate(55.036) scale(.08 -.08)">
<use xlink:href="#q"/>
</g>
</g>
<path d="m335.97 576.56 2.3168 5.3771q0.94968 2.2041 3.1538 1.2544l7.1106-3.0637q2.2041-0.94968 1.2544-3.1538l-2.3168-5.3771q-0.94968-2.2041-3.1538-1.2544l-7.1106 3.0637q-2.2041 0.94968-1.2544 3.1538z" clip-path="url(#a)" fill="#fff" stroke="#fff"/>
<g clip-path="url(#a)">
<g transform="translate(339.7 574.95) rotate(66.69) scale(.08 -.08)">
<use xlink:href="#v"/>
</g>
</g>
<path d="m154.7 719.54v33.808q0 2.4 2.4 2.4h7.7425q2.4 0 2.4-2.4v-33.808q0-2.4-2.4-2.4h-7.7425q-2.4 0-2.4 2.4z" clip-path="url(#a)" fill="#fff" stroke="#fff"/>
<g clip-path="url(#a)">
<g transform="translate(158.77 719.54) rotate(90) scale(.08 -.08)">
<use xlink:href="#k"/>
<use x="44.083984" xlink:href="#d"/>
<use x="105.607422" xlink:href="#h"/>
<use x="144.970703" xlink:href="#l"/>
<use x="242.382812" xlink:href="#j"/>
<use x="270.166016" xlink:href="#i"/>
<use x="333.544922" xlink:href="#e"/>
<use x="394.824219" xlink:href="#g"/>
</g>
</g>
<path d="m274.22 631.13 2.6923 4.7644q1.1807 2.0895 3.2702 0.90877l6.7408-3.809q2.0895-1.1807 0.90877-3.2702l-2.6923-4.7644q-1.1807-2.0895-3.2702-0.90877l-6.7408 3.809q-2.0895 1.1807-0.90877 3.2702z" clip-path="url(#a)" fill="#fff" stroke="#fff"/>
<g clip-path="url(#a)">
<g transform="translate(277.75 629.13) rotate(60.53) scale(.08 -.08)">
<use xlink:href="#m"/>
</g>
</g>
<path d="m229.36 635.63 2.3919-4.9221q1.049-2.1586-1.1096-3.2076l-6.9638-3.3841q-2.1586-1.049-3.2076 1.1096l-2.3919 4.9221q-1.049 2.1586 1.1096 3.2076l6.9638 3.3841q2.1586 1.049 3.2076-1.1096z" clip-path="url(#a)" fill="#fff" stroke="#fff"/>
<g clip-path="url(#a)">
<g transform="translate(225.71 633.85) rotate(-64.082) scale(.08 -.08)">
<use xlink:href="#m"/>
</g>
</g>
<path d="m252.69 633.45 0.40053-5.0629q0.18927-2.3925-2.2033-2.5818l-7.7184-0.6106q-2.3925-0.18927-2.5818 2.2033l-0.40053 5.0629q-0.18927 2.3925 2.2033 2.5818l7.7184 0.6106q2.3925 0.18927 2.5818-2.2033z" clip-path="url(#a)" fill="#fff" stroke="#fff"/>
<g clip-path="url(#a)">
<g transform="translate(248.64 633.13) rotate(-85.477) scale(.08 -.08)">
<use xlink:href="#an"/>
</g>
</g>
<path d="m293.52 754.47 10.99-31.971q0.78021-2.2696-1.4894-3.0499l-7.322-2.517q-2.2696-0.78021-3.0499 1.4894l-10.99 31.971q-0.78021 2.2696 1.4894 3.0499l7.322 2.517q2.2696 0.78021 3.0499-1.4894z" clip-path="url(#a)" fill="#fff" stroke="#fff"/>
<g clip-path="url(#a)">
<g transform="translate(289.68 753.15) rotate(-71.029) scale(.08 -.08)">
<use xlink:href="#k"/>
<use x="44.083984" xlink:href="#d"/>
<use x="105.607422" xlink:href="#h"/>
<use x="144.970703" xlink:href="#l"/>
<use x="242.382812" xlink:href="#j"/>
<use x="270.166016" xlink:href="#i"/>
<use x="333.544922" xlink:href="#e"/>
<use x="394.824219" xlink:href="#g"/>
</g>
</g>
<path d="m316.86 753.4 0.29053-33.806q0.020624-2.3999-2.3793-2.4205l-7.7422-0.066537q-2.3999-0.020625-2.4205 2.3793l-0.29053 33.806q-0.020625 2.3999 2.3793 2.4205l7.7422 0.066536q2.3999 0.020625 2.4205-2.3793z" clip-path="url(#a)" fill="#fff" stroke="#fff"/>
<g clip-path="url(#a)">
<g transform="translate(312.79 753.37) rotate(-89.508) scale(.08 -.08)">
<use xlink:href="#k"/>
<use x="44.083984" xlink:href="#d"/>
<use x="105.607422" xlink:href="#h"/>
<use x="144.970703" xlink:href="#l"/>
<use x="242.382812" xlink:href="#j"/>
<use x="270.166016" xlink:href="#i"/>
<use x="333.544922" xlink:href="#e"/>
<use x="394.824219" xlink:href="#g"/>
</g>
</g>
<path d="m318.2 722.59 11.235 31.886q0.79759 2.2636 3.0612 1.466l7.3024-2.573q2.2636-0.79759 1.466-3.0612l-11.235-31.886q-0.79759-2.2636-3.0612-1.466l-7.3024 2.573q-2.2636 0.79759-1.466 3.0612z" clip-path="url(#a)" fill="#fff" stroke="#fff"/>
<g clip-path="url(#a)">
<g transform="translate(322.03 721.24) rotate(70.59) scale(.08 -.08)">
<use xlink:href="#k"/>
<use x="44.083984" xlink:href="#d"/>
<use x="105.607422" xlink:href="#h"/>
<use x="144.970703" xlink:href="#l"/>
<use x="242.382812" xlink:href="#j"/>
<use x="270.166016" xlink:href="#i"/>
<use x="333.544922" xlink:href="#e"/>
<use x="394.824219" xlink:href="#g"/>
</g>
</g>
<path d="m345.6 635.9 2.7024-4.7587q1.1852-2.087-0.90177-3.2721l-6.7326-3.8234q-2.087-1.1852-3.2721 0.90178l-2.7024 4.7587q-1.1852 2.087 0.90178 3.2721l6.7326 3.8234q2.087 1.1852 3.2721-0.90178z" clip-path="url(#a)" fill="#fff" stroke="#fff"/>
<g clip-path="url(#a)">
<g transform="translate(342.06 633.89) rotate(-60.408) scale(.08 -.08)">
<use xlink:href="#m"/>
</g>
</g>
<path d="m396.86 631.55 2.4614 4.1485q1.2246 2.064 3.2887 0.83939l6.6587-3.9508q2.064-1.2246 0.83939-3.2887l-2.4614-4.1485q-1.2246-2.064-3.2887-0.83939l-6.6587 3.9508q-2.064 1.2246-0.83939 3.2887z" clip-path="url(#a)" fill="#fff" stroke="#fff"/>
<g clip-path="url(#a)">
<g transform="translate(400.35 629.48) rotate(59.318) scale(.08 -.08)">
<use xlink:href="#s"/>
</g>
</g>
<path d="m395.46 631.4 2.4129 4.2489q1.1852 2.087 3.2721 0.90177l6.7326-3.8234q2.087-1.1852 0.90178-3.2721l-2.4129-4.2489q-1.1852-2.087-3.2721-0.90177l-6.7326 3.8234q-2.087 1.1852-0.90178 3.2721z" clip-path="url(#a)" fill="#fff" stroke="#fff"/>
<g clip-path="url(#a)">
<g transform="translate(399 629.39) rotate(60.408) scale(.08 -.08)">
<use xlink:href="#k"/>
</g>
</g>
<path d="m426.16 719.54v33.808q0 2.4 2.4 2.4h7.7425q2.4 0 2.4-2.4v-33.808q0-2.4-2.4-2.4h-7.7425q-2.4 0-2.4 2.4z" clip-path="url(#a)" fill="#fff" stroke="#fff"/>
<g clip-path="url(#a)">
<g transform="translate(430.23 719.54) rotate(90) scale(.08 -.08)">
<use xlink:href="#k"/>
<use x="44.083984" xlink:href="#d"/>
<use x="105.607422" xlink:href="#h"/>
<use x="144.970703" xlink:href="#l"/>
<use x="242.382812" xlink:href="#j"/>
<use x="270.166016" xlink:href="#i"/>
<use x="333.544922" xlink:href="#e"/>
<use x="394.824219" xlink:href="#g"/>
</g>
</g>
<path d="m196.25 754.01 4.3224-33.53q0.30684-2.3803-2.0735-2.6871l-7.679-0.9899q-2.3803-0.30684-2.6871 2.0735l-4.3224 33.53q-0.30685 2.3803 2.0735 2.6871l7.679 0.9899q2.3803 0.30684 2.6871-2.0735z" clip-path="url(#a)" fill="#fff" stroke="#fff"/>
<g clip-path="url(#a)">
<g transform="translate(192.22 753.49) rotate(-82.655) scale(.08 -.08)">
<use xlink:href="#k"/>
<use x="44.083984" xlink:href="#d"/>
<use x="105.607422" xlink:href="#h"/>
<use x="144.970703" xlink:href="#l"/>
<use x="242.382812" xlink:href="#j"/>
<use x="270.166016" xlink:href="#i"/>
<use x="333.544922" xlink:href="#e"/>
<use x="394.824219" xlink:href="#g"/>
</g>
</g>
<path d="m197.39 720.48 4.3224 33.53q0.30684 2.3803 2.6871 2.0735l7.679-0.9899q2.3803-0.30684 2.0735-2.6871l-4.3224-33.53q-0.30685-2.3803-2.6871-2.0735l-7.679 0.9899q-2.3803 0.30684-2.0735 2.6871z" clip-path="url(#a)" fill="#fff" stroke="#fff"/>
<g clip-path="url(#a)">
<g transform="translate(201.42 719.96) rotate(82.655) scale(.08 -.08)">
<use xlink:href="#k"/>
<use x="44.083984" xlink:href="#d"/>
<use x="105.607422" xlink:href="#h"/>
<use x="144.970703" xlink:href="#l"/>
<use x="242.382812" xlink:href="#j"/>
<use x="270.166016" xlink:href="#i"/>
<use x="333.544922" xlink:href="#e"/>
<use x="394.824219" xlink:href="#g"/>
</g>
</g>
<path d="m236.14 719.54v33.808q0 2.4 2.4 2.4h7.7425q2.4 0 2.4-2.4v-33.808q0-2.4-2.4-2.4h-7.7425q-2.4 0-2.4 2.4z" clip-path="url(#a)" fill="#fff" stroke="#fff"/>
<g clip-path="url(#a)">
<g transform="translate(240.21 719.54) rotate(90) scale(.08 -.08)">
<use xlink:href="#k"/>
<use x="44.083984" xlink:href="#d"/>
<use x="105.607422" xlink:href="#h"/>
<use x="144.970703" xlink:href="#l"/>
<use x="242.382812" xlink:href="#j"/>
<use x="270.166016" xlink:href="#i"/>
<use x="333.544922" xlink:href="#e"/>
<use x="394.824219" xlink:href="#g"/>
</g>
</g>
<path d="m113.99 719.54v33.808q0 2.4 2.4 2.4h7.7425q2.4 0 2.4-2.4v-33.808q0-2.4-2.4-2.4h-7.7425q-2.4 0-2.4 2.4z" clip-path="url(#a)" fill="#fff" stroke="#fff"/>
<g clip-path="url(#a)">
<g transform="translate(118.05 719.54) rotate(90) scale(.08 -.08)">
<use xlink:href="#k"/>
<use x="44.083984" xlink:href="#d"/>
<use x="105.607422" xlink:href="#h"/>
<use x="144.970703" xlink:href="#l"/>
<use x="242.382812" xlink:href="#j"/>
<use x="270.166016" xlink:href="#i"/>
<use x="333.544922" xlink:href="#e"/>
<use x="394.824219" xlink:href="#g"/>
</g>
</g>
<path d="m132.99 719.54v33.808q0 2.4 2.4 2.4h7.7425q2.4 0 2.4-2.4v-33.808q0-2.4-2.4-2.4h-7.7425q-2.4 0-2.4 2.4z" clip-path="url(#a)" fill="#fff" stroke="#fff"/>
<g clip-path="url(#a)">
<g transform="translate(137.05 719.54) rotate(90) scale(.08 -.08)">
<use xlink:href="#k"/>
<use x="44.083984" xlink:href="#d"/>
<use x="105.607422" xlink:href="#h"/>
<use x="144.970703" xlink:href="#l"/>
<use x="242.382812" xlink:href="#j"/>
<use x="270.166016" xlink:href="#i"/>
<use x="333.544922" xlink:href="#e"/>
<use x="394.824219" xlink:href="#g"/>
</g>
</g>
<path d="m65.123 719.54v33.808q0 2.4 2.4 2.4h7.7425q2.4 0 2.4-2.4v-33.808q0-2.4-2.4-2.4h-7.7425q-2.4 0-2.4 2.4z" clip-path="url(#a)" fill="#fff" stroke="#fff"/>
<g clip-path="url(#a)">
<g transform="translate(69.186 719.54) rotate(90) scale(.08 -.08)">
<use xlink:href="#k"/>
<use x="44.083984" xlink:href="#d"/>
<use x="105.607422" xlink:href="#h"/>
<use x="144.970703" xlink:href="#l"/>
<use x="242.382812" xlink:href="#j"/>
<use x="270.166016" xlink:href="#i"/>
<use x="333.544922" xlink:href="#e"/>
<use x="394.824219" xlink:href="#g"/>
</g>
</g>
<path d="m97.698 719.54v33.808q0 2.4 2.4 2.4h7.7425q2.4 0 2.4-2.4v-33.808q0-2.4-2.4-2.4h-7.7425q-2.4 0-2.4 2.4z" clip-path="url(#a)" fill="#fff" stroke="#fff"/>
<g clip-path="url(#a)">
<g transform="translate(101.76 719.54) rotate(90) scale(.08 -.08)">
<use xlink:href="#k"/>
<use x="44.083984" xlink:href="#d"/>
<use x="105.607422" xlink:href="#h"/>
<use x="144.970703" xlink:href="#l"/>
<use x="242.382812" xlink:href="#j"/>
<use x="270.166016" xlink:href="#i"/>
<use x="333.544922" xlink:href="#e"/>
<use x="394.824219" xlink:href="#g"/>
</g>
</g>
<path d="m382.73 719.54v33.808q0 2.4 2.4 2.4h7.7425q2.4 0 2.4-2.4v-33.808q0-2.4-2.4-2.4h-7.7425q-2.4 0-2.4 2.4z" clip-path="url(#a)" fill="#fff" stroke="#fff"/>
<g clip-path="url(#a)">
<g transform="translate(386.79 719.54) rotate(90) scale(.08 -.08)">
<use xlink:href="#k"/>
<use x="44.083984" xlink:href="#d"/>
<use x="105.607422" xlink:href="#h"/>
<use x="144.970703" xlink:href="#l"/>
<use x="242.382812" xlink:href="#j"/>
<use x="270.166016" xlink:href="#i"/>
<use x="333.544922" xlink:href="#e"/>
<use x="394.824219" xlink:href="#g"/>
</g>
</g>
<path d="m475.03 719.54v33.808q0 2.4 2.4 2.4h7.7425q2.4 0 2.4-2.4v-33.808q0-2.4-2.4-2.4h-7.7425q-2.4 0-2.4 2.4z" clip-path="url(#a)" fill="#fff" stroke="#fff"/>
<g clip-path="url(#a)">
<g transform="translate(479.09 719.54) rotate(90) scale(.08 -.08)">
<use xlink:href="#k"/>
<use x="44.083984" xlink:href="#d"/>
<use x="105.607422" xlink:href="#h"/>
<use x="144.970703" xlink:href="#l"/>
<use x="242.382812" xlink:href="#j"/>
<use x="270.166016" xlink:href="#i"/>
<use x="333.544922" xlink:href="#e"/>
<use x="394.824219" xlink:href="#g"/>
</g>
</g>
<path d="m746.49 719.54v33.808q0 2.4 2.4 2.4h7.7425q2.4 0 2.4-2.4v-33.808q0-2.4-2.4-2.4h-7.7425q-2.4 0-2.4 2.4z" clip-path="url(#a)" fill="#fff" stroke="#fff"/>
<g clip-path="url(#a)">
<g transform="translate(750.55 719.54) rotate(90) scale(.08 -.08)">
<use xlink:href="#k"/>
<use x="44.083984" xlink:href="#d"/>
<use x="105.607422" xlink:href="#h"/>
<use x="144.970703" xlink:href="#l"/>
<use x="242.382812" xlink:href="#j"/>
<use x="270.166016" xlink:href="#i"/>
<use x="333.544922" xlink:href="#e"/>
<use x="394.824219" xlink:href="#g"/>
</g>
</g>
<path d="m1493 719.54v33.808q0 2.4 2.4 2.4h7.7425q2.4 0 2.4-2.4v-33.808q0-2.4-2.4-2.4h-7.7425q-2.4 0-2.4 2.4z" clip-path="url(#a)" fill="#fff" stroke="#fff"/>
<g clip-path="url(#a)">
<g transform="translate(1497.1 719.54) rotate(90) scale(.08 -.08)">
<use xlink:href="#k"/>
<use x="44.083984" xlink:href="#d"/>
<use x="105.607422" xlink:href="#h"/>
<use x="144.970703" xlink:href="#l"/>
<use x="242.382812" xlink:href="#j"/>
<use x="270.166016" xlink:href="#i"/>
<use x="333.544922" xlink:href="#e"/>
<use x="394.824219" xlink:href="#g"/>
</g>
</g>
<defs>
<path id="b" d="m0 8.6603c2.2967 0 4.4997-0.9125 6.1237-2.5365 1.624-1.624 2.5365-3.827 2.5365-6.1237s-0.9125-4.4997-2.5365-6.1237c-1.624-1.624-3.827-2.5365-6.1237-2.5365s-4.4997 0.9125-6.1237 2.5365c-1.624 1.624-2.5365 3.827-2.5365 6.1237s0.9125 4.4997 2.5365 6.1237c1.624 1.624 3.827 2.5365 6.1237 2.5365z"/>
</defs>
<g clip-path="url(#a)" fill="#ffffff" stroke="#ffffff">
<use x="71.393939" y="789.090909" xlink:href="#b"/>
<use x="79.537735" y="789.090909" xlink:href="#b"/>
<use x="90.396129" y="789.090909" xlink:href="#b"/>
<use x="103.969121" y="789.090909" xlink:href="#b"/>
<use x="120.256712" y="789.090909" xlink:href="#b"/>
<use x="139.258901" y="789.090909" xlink:href="#b"/>
<use x="160.975688" y="789.090909" xlink:href="#b"/>
<use x="185.407075" y="789.090909" xlink:href="#b"/>
<use x="212.553059" y="789.090909" xlink:href="#b"/>
<use x="242.413642" y="789.090909" xlink:href="#b"/>
<use x="274.988824" y="789.090909" xlink:href="#b"/>
<use x="310.278604" y="789.090909" xlink:href="#b"/>
<use x="348.282982" y="789.090909" xlink:href="#b"/>
<use x="389.001959" y="789.090909" xlink:href="#b"/>
<use x="432.435534" y="789.090909" xlink:href="#b"/>
<use x="481.298306" y="789.090909" xlink:href="#b"/>
<use x="530.161078" y="789.090909" xlink:href="#b"/>
<use x="581.738449" y="789.090909" xlink:href="#b"/>
<use x="636.030418" y="789.090909" xlink:href="#b"/>
<use x="693.036986" y="789.090909" xlink:href="#b"/>
<use x="752.758152" y="789.090909" xlink:href="#b"/>
<use x="815.193916" y="789.090909" xlink:href="#b"/>
<use x="880.344279" y="789.090909" xlink:href="#b"/>
<use x="948.209241" y="789.090909" xlink:href="#b"/>
<use x="1018.788801" y="789.090909" xlink:href="#b"/>
<use x="1092.082959" y="789.090909" xlink:href="#b"/>
<use x="1168.091716" y="789.090909" xlink:href="#b"/>
<use x="1246.815071" y="789.090909" xlink:href="#b"/>
<use x="1328.253025" y="789.090909" xlink:href="#b"/>
<use x="1412.405577" y="789.090909" xlink:href="#b"/>
<use x="1499.272727" y="789.090909" xlink:href="#b"/>
<use x="435.150133" y="683.800522" xlink:href="#b"/>
<use x="973.335794" y="37.575758" xlink:href="#b"/>
<use x="703.718715" y="145.927271" xlink:href="#b"/>
<use x="1092.082959" y="683.800522" xlink:href="#b"/>
<use x="1124.205707" y="577.045431" xlink:href="#b"/>
<use x="1168.091716" y="683.800522" xlink:href="#b"/>
<use x="1246.815071" y="683.800522" xlink:href="#b"/>
<use x="1328.253025" y="683.800522" xlink:href="#b"/>
<use x="1412.405577" y="683.800522" xlink:href="#b"/>
<use x="209.131803" y="254.097508" xlink:href="#b"/>
<use x="904.775665" y="577.045431" xlink:href="#b"/>
<use x="948.209241" y="683.800522" xlink:href="#b"/>
<use x="815.193916" y="683.800522" xlink:href="#b"/>
<use x="880.344279" y="683.800522" xlink:href="#b"/>
<use x="1018.788801" y="683.800522" xlink:href="#b"/>
<use x="80.895034" y="577.045431" xlink:href="#b"/>
<use x="79.537735" y="683.800522" xlink:href="#b"/>
<use x="90.396129" y="683.800522" xlink:href="#b"/>
<use x="213.261871" y="362.050166" xlink:href="#b"/>
<use x="414.564428" y="469.730418" xlink:href="#b"/>
<use x="530.161078" y="683.800522" xlink:href="#b"/>
<use x="623.136076" y="577.045431" xlink:href="#b"/>
<use x="581.738449" y="683.800522" xlink:href="#b"/>
<use x="664.533702" y="683.800522" xlink:href="#b"/>
<use x="129.757806" y="577.045431" xlink:href="#b"/>
<use x="296.765936" y="469.730418" xlink:href="#b"/>
<use x="160.975688" y="683.800522" xlink:href="#b"/>
<use x="250.85906" y="577.045431" xlink:href="#b"/>
<use x="311.18347" y="683.800522" xlink:href="#b"/>
<use x="371.809502" y="577.045431" xlink:href="#b"/>
<use x="432.435534" y="683.800522" xlink:href="#b"/>
<use x="198.980067" y="683.800522" xlink:href="#b"/>
<use x="242.413642" y="683.800522" xlink:href="#b"/>
<use x="120.256712" y="683.800522" xlink:href="#b"/>
<use x="139.258901" y="683.800522" xlink:href="#b"/>
<use x="71.393939" y="683.800522" xlink:href="#b"/>
<use x="103.969121" y="683.800522" xlink:href="#b"/>
<use x="389.001959" y="683.800522" xlink:href="#b"/>
<use x="481.298306" y="683.800522" xlink:href="#b"/>
<use x="752.758152" y="683.800522" xlink:href="#b"/>
<use x="1499.272727" y="683.800522" xlink:href="#b"/>
</g>
<g clip-path="url(#a)">
<g transform="translate(62.502 791.85) scale(.1 -.1)">
<use xlink:href="#ai"/>
<use x="75.195312" xlink:href="#d"/>
<use x="136.71875" xlink:href="#h"/>
</g>
</g>
<g clip-path="url(#a)">
<defs>
<path id="az" d="m54.891 54.688-19.781-26.609 20.797-28.078h-10.594l-15.922 21.484-15.906-21.484h-10.609l21.25 28.609-19.438 26.078h10.594l14.5-19.484 14.5 19.484z"/>
<path id="aa" d="m18.312 70.219v-15.531h18.5v-6.9844h-18.5v-29.688q0-6.6875 1.8281-8.5938t7.4531-1.9062h9.2188v-7.5156h-9.2188q-10.406 0-14.359 3.875-3.9531 3.8906-3.9531 14.141v29.688h-6.5938v6.9844h6.5938v15.531z"/>
</defs>
<g transform="translate(68.46 791.85) scale(.1 -.1)">
<use xlink:href="#i"/>
<use x="63.378906" xlink:href="#d"/>
<use x="123.152344" xlink:href="#az"/>
<use x="182.332031" xlink:href="#aa"/>
</g>
</g>
<g clip-path="url(#a)">
<defs>
<path id="am" d="m37.109 75.984v-7.4844h-8.5938q-4.8281 0-6.7188-1.9531-1.875-1.9531-1.875-7.0312v-4.8281h14.797v-6.9844h-14.797v-47.703h-9.0312v47.703h-8.5938v6.9844h8.5938v3.8125q0 9.125 4.25 13.297 4.25 4.1875 13.469 4.1875z"/>
</defs>
<g transform="translate(80.988 791.85) scale(.1 -.1)">
<use xlink:href="#am"/>
<use x="35.205078" xlink:href="#j"/>
<use x="62.988281" xlink:href="#g"/>
<use x="90.771484" xlink:href="#l"/>
</g>
</g>
<g clip-path="url(#a)">
<defs>
<path id="ap" d="m11.719 12.406h10.297v-8.4062l-8-15.625h-6.2969l4 15.625z"/>
</defs>
<g transform="translate(102.38 791.85) scale(.1 -.1)">
<use xlink:href="#ap"/>
</g>
</g>
<g clip-path="url(#a)">
<g transform="translate(114.02 791.85) scale(.1 -.1)">
<use xlink:href="#e"/>
<use x="61.279297" xlink:href="#i"/>
</g>
</g>
<g clip-path="url(#a)">
<defs>
<path id="r" d="m45.406 46.391v29.594h8.9844v-75.984h-8.9844v8.2031q-2.8281-4.875-7.1562-7.25-4.3125-2.375-10.375-2.375-9.9062 0-16.141 7.9062-6.2188 7.9219-6.2188 20.812t6.2188 20.797q6.2344 7.9062 16.141 7.9062 6.0625 0 10.375-2.375 4.3281-2.3594 7.1562-7.2344zm-30.609-19.094q0-9.9062 4.0781-15.547t11.203-5.6406 11.219 5.6406q4.1094 5.6406 4.1094 15.547t-4.1094 15.547q-4.0938 5.6406-11.219 5.6406t-11.203-5.6406-4.0781-15.547z"/>
<path id="bb" d="m18.109 8.2031v-29h-9.0312v75.484h9.0312v-8.2969q2.8438 4.875 7.1562 7.2344 4.3281 2.375 10.328 2.375 9.9688 0 16.188-7.9062 6.2344-7.9062 6.2344-20.797t-6.2344-20.812q-6.2188-7.9062-16.188-7.9062-6 0-10.328 2.375-4.3125 2.375-7.1562 7.25zm30.578 19.094q0 9.9062-4.0781 15.547t-11.203 5.6406q-7.1406 0-11.219-5.6406t-4.0781-15.547 4.0781-15.547 11.219-5.6406q7.125 0 11.203 5.6406t4.0781 15.547z"/>
<path id="ac" d="m30.609 48.391q-7.2188 0-11.422-5.6406t-4.2031-15.453 4.1719-15.453q4.1875-5.6406 11.453-5.6406 7.1875 0 11.375 5.6562 4.2031 5.6719 4.2031 15.438 0 9.7188-4.2031 15.406-4.1875 5.6875-11.375 5.6875zm0 7.6094q11.719 0 18.406-7.625 6.7031-7.6094 6.7031-21.078 0-13.422-6.7031-21.078-6.6875-7.6406-18.406-7.6406-11.766 0-18.438 7.6406-6.6562 7.6562-6.6562 21.078 0 13.469 6.6562 21.078 6.6719 7.625 18.438 7.625z"/>
</defs>
<g transform="translate(112.18 791.85) scale(.1 -.1)">
<use xlink:href="#e"/>
<use x="61.279297" xlink:href="#r"/>
<use x="124.755859" xlink:href="#e"/>
<use x="186.035156" xlink:href="#bb"/>
<use x="249.511719" xlink:href="#aa"/>
<use x="288.720703" xlink:href="#e"/>
<use x="350" xlink:href="#aa"/>
<use x="389.208984" xlink:href="#j"/>
<use x="416.992188" xlink:href="#ac"/>
<use x="478.173828" xlink:href="#i"/>
</g>
</g>
<g clip-path="url(#a)">
<g transform="translate(156.16 791.85) scale(.1 -.1)">
<use xlink:href="#ac"/>
<use x="61.181641" xlink:href="#am"/>
</g>
</g>
<g clip-path="url(#a)">
<defs>
<path id="aq" d="m4.2031 54.688h8.9844l11.234-42.672 11.172 42.672h10.594l11.234-42.672 11.188 42.672h8.9844l-14.312-54.688h-10.594l-11.766 44.828-11.812-44.828h-10.609z"/>
</defs>
<g transform="translate(166.78 791.85) scale(.1 -.1)">
<use xlink:href="#q"/>
<use x="63.183594" xlink:href="#r"/>
<use x="126.660156" xlink:href="#aq"/>
<use x="208.447266" xlink:href="#e"/>
<use x="269.726562" xlink:href="#h"/>
<use x="309.089844" xlink:href="#r"/>
</g>
</g>
<g clip-path="url(#a)">
<defs>
<path id="af" d="m48.688 27.297q0 9.9062-4.0781 15.547t-11.203 5.6406q-7.1406 0-11.219-5.6406t-4.0781-15.547 4.0781-15.547 11.219-5.6406q7.125 0 11.203 5.6406t4.0781 15.547zm-30.578 19.094q2.8438 4.875 7.1562 7.2344 4.3281 2.375 10.328 2.375 9.9688 0 16.188-7.9062 6.2344-7.9062 6.2344-20.797t-6.2344-20.812q-6.2188-7.9062-16.188-7.9062-6 0-10.328 2.375-4.3125 2.375-7.1562 7.25v-8.2031h-9.0312v75.984h9.0312z"/>
</defs>
<g transform="translate(198.42 791.85) scale(.1 -.1)">
<use xlink:href="#m"/>
<use x="68.408203" xlink:href="#g"/>
<use x="96.191406" xlink:href="#af"/>
<use x="159.667969" xlink:href="#d"/>
<use x="221.191406" xlink:href="#d"/>
</g>
</g>
<g clip-path="url(#a)">
<defs>
<path id="ax" d="m17.922 72.906v-27.109h-8.2969v27.109z"/>
<path id="ab" d="m44.281 53.078v-8.5q-3.7969 1.9531-7.9062 2.9219-4.0938 0.98438-8.5 0.98438-6.6875 0-10.031-2.0469t-3.3438-6.1562q0-3.125 2.3906-4.9062t9.625-3.3906l3.0781-0.6875q9.5625-2.0469 13.594-5.7812t4.0312-10.422q0-7.625-6.0312-12.078-6.0312-4.4375-16.578-4.4375-4.3906 0-9.1562 0.85938t-10.031 2.5625v9.2812q4.9844-2.5938 9.8125-3.8906 4.8281-1.2812 9.5781-1.2812 6.3438 0 9.75 2.1719 3.4219 2.1719 3.4219 6.125 0 3.6562-2.4688 5.6094-2.4531 1.9531-10.812 3.7656l-3.125 0.73438q-8.3438 1.75-12.062 5.3906-3.7031 3.6406-3.7031 9.9844 0 7.7188 5.4688 11.906 5.4688 4.2031 15.531 4.2031 4.9688 0 9.3594-0.73438 4.4062-0.71875 8.1094-2.1875z"/>
</defs>
<g transform="translate(238.43 791.85) scale(.1 -.1)">
<use xlink:href="#ax"/>
<use x="27.490234" xlink:href="#ab"/>
</g>
</g>
<g clip-path="url(#a)">
<g transform="translate(271.57 791.85) scale(.1 -.1)">
<use xlink:href="#m"/>
</g>
</g>
<g clip-path="url(#a)">
<defs>
<path id="u" d="m48.781 52.594v-8.4062q-3.8125 2.1094-7.6406 3.1562t-7.7344 1.0469q-8.75 0-13.594-5.5469-4.8281-5.5312-4.8281-15.547t4.8281-15.562q4.8438-5.5312 13.594-5.5312 3.9062 0 7.7344 1.0469t7.6406 3.1562v-8.3125q-3.7656-1.75-7.7969-2.625-4.0156-0.89062-8.5625-0.89062-12.359 0-19.641 7.7656-7.2656 7.7656-7.2656 20.953 0 13.375 7.3438 21.031 7.3594 7.6719 20.156 7.6719 4.1406 0 8.0938-0.85938 3.9531-0.84375 7.6719-2.5469z"/>
</defs>
<g transform="translate(289.72 791.85) scale(.1 -.1)">
<use xlink:href="#w"/>
<use x="77.001953" xlink:href="#d"/>
<use x="138.525391" xlink:href="#g"/>
<use x="166.308594" xlink:href="#j"/>
<use x="194.091797" xlink:href="#u"/>
<use x="249.072266" xlink:href="#e"/>
<use x="310.351562" xlink:href="#aa"/>
<use x="349.560547" xlink:href="#d"/>
</g>
</g>
<g clip-path="url(#a)">
<defs>
<path id="au" d="m19.672 34.812v-26.703h15.828q7.9531 0 11.781 3.2969 3.8438 3.2969 3.8438 10.078 0 6.8438-3.8438 10.078-3.8281 3.25-11.781 3.25zm0 29.984v-21.969h14.609q7.2188 0 10.75 2.7031 3.5469 2.7188 3.5469 8.2812 0 5.5156-3.5469 8.25-3.5312 2.7344-10.75 2.7344zm-9.8594 8.1094h25.203q11.281 0 17.375-4.6875 6.1094-4.6875 6.1094-13.328 0-6.7031-3.125-10.656t-9.1875-4.9219q7.2812-1.5625 11.312-6.5312 4.0312-4.9531 4.0312-12.375 0-9.7656-6.6406-15.094-6.6406-5.3125-18.906-5.3125h-26.172z"/>
</defs>
<g transform="translate(328.34 791.85) scale(.1 -.1)">
<use xlink:href="#au"/>
<use x="68.603516" xlink:href="#e"/>
<use x="129.882812" xlink:href="#g"/>
<use x="157.666016" xlink:href="#e"/>
<use x="218.945312" xlink:href="#i"/>
<use x="282.324219" xlink:href="#u"/>
<use x="337.304688" xlink:href="#d"/>
</g>
</g>
<g clip-path="url(#a)">
<defs>
<path id="aw" d="m31 75.875q-6.5312-11.219-9.7188-22.219-3.1719-10.984-3.1719-22.266 0-11.266 3.2031-22.328t9.6875-22.25h-7.8125q-7.3125 11.484-10.953 22.562t-3.6406 22.016q0 10.891 3.6094 21.922 3.625 11.047 10.984 22.562z"/>
</defs>
<g transform="translate(387.05 791.85) scale(.1 -.1)">
<use xlink:href="#aw"/>
</g>
</g>
<g clip-path="url(#a)">
<defs>
<path id="c" d="m12.406 8.2969h16.109v55.625l-17.531-3.5156v8.9844l17.438 3.5156h9.8594v-64.609h16.109v-8.2969h-41.984z"/>
<path id="x" d="m10.984 1.5156v8.9844q3.7188-1.7656 7.5156-2.6875 3.8125-0.92188 7.4844-0.92188 9.7656 0 14.906 6.5625 5.1562 6.5625 5.8906 19.953-2.8281-4.2031-7.1875-6.4531-4.3438-2.25-9.6094-2.25-10.938 0-17.312 6.6094-6.375 6.625-6.375 18.109 0 11.219 6.6406 18 6.6406 6.7969 17.672 6.7969 12.656 0 19.312-9.7031 6.6719-9.6875 6.6719-28.141 0-17.234-8.1875-27.516-8.1719-10.281-21.984-10.281-3.7188 0-7.5312 0.73438-3.7969 0.73438-7.9062 2.2031zm19.625 30.906q6.6406 0 10.516 4.5312 3.8906 4.5469 3.8906 12.469 0 7.8594-3.8906 12.422-3.875 4.5625-10.516 4.5625t-10.516-4.5625-3.875-12.422q0-7.9219 3.875-12.469 3.875-4.5312 10.516-4.5312z"/>
<path id="y" d="m8.2031 72.906h46.875v-4.2031l-26.469-68.703h-10.297l24.906 64.594h-35.016z"/>
<path id="n" d="m40.578 39.312q7.0781-1.5156 11.047-6.3125 3.9844-4.7812 3.9844-11.812 0-10.781-7.4219-16.703-7.4219-5.9062-21.094-5.9062-4.5781 0-9.4375 0.90625t-10.031 2.7188v9.5156q4.0938-2.3906 8.9688-3.6094 4.8906-1.2188 10.219-1.2188 9.2656 0 14.125 3.6562t4.8594 10.641q0 6.4531-4.5156 10.078-4.5156 3.6406-12.562 3.6406h-8.5v8.1094h8.8906q7.2656 0 11.125 2.9062t3.8594 8.375q0 5.6094-3.9844 8.6094-3.9688 3.0156-11.391 3.0156-4.0625 0-8.7031-0.89062-4.6406-0.875-10.203-2.7188v8.7812q5.625 1.5625 10.531 2.3438t9.25 0.78125q11.234 0 17.766-5.1094 6.5469-5.0938 6.5469-13.781 0-6.0625-3.4688-10.234t-9.8594-5.7812z"/>
</defs>
<g transform="translate(419.71 791.85) scale(.1 -.1)">
<use xlink:href="#c"/>
<use x="63.623047" xlink:href="#x"/>
<use x="127.246094" xlink:href="#y"/>
<use x="190.869141" xlink:href="#n"/>
</g>
</g>
<g clip-path="url(#a)">
<defs>
<path id="av" d="m8.0156 75.875h7.8125q7.3125-11.516 10.953-22.562 3.6406-11.031 3.6406-21.922 0-10.938-3.6406-22.016t-10.953-22.562h-7.8125q6.4844 11.188 9.6875 22.25t3.2031 22.328q0 11.281-3.2031 22.266-3.2031 11-9.6875 22.219z"/>
</defs>
<g transform="translate(479.35 791.85) scale(.1 -.1)">
<use xlink:href="#av"/>
</g>
</g>
<g clip-path="url(#a)">
<g transform="translate(509.62 791.85) scale(.1 -.1)">
<use xlink:href="#r"/>
<use x="63.476562" xlink:href="#j"/>
<use x="91.259766" xlink:href="#h"/>
<use x="130.123047" xlink:href="#d"/>
<use x="191.646484" xlink:href="#u"/>
<use x="246.626953" xlink:href="#aa"/>
<use x="285.835938" xlink:href="#d"/>
<use x="347.359375" xlink:href="#r"/>
</g>
</g>
<g clip-path="url(#a)">
<defs>
<path id="ak" d="m32.172-5.0781q-3.7969-9.7656-7.4219-12.734-3.6094-2.9844-9.6562-2.9844h-7.1875v7.5156h5.2812q3.7031 0 5.75 1.7656 2.0625 1.75 4.5469 8.2969l1.6094 4.0938-22.109 53.812h9.5156l17.094-42.766 17.094 42.766h9.5156z"/>
</defs>
<g transform="translate(575.6 791.85) scale(.1 -.1)">
<use xlink:href="#af"/>
<use x="63.476562" xlink:href="#ak"/>
</g>
</g>
<g clip-path="url(#a)">
<g transform="translate(624.64 791.85) scale(.1 -.1)">
<use xlink:href="#k"/>
<use x="44.083984" xlink:href="#ac"/>
<use x="105.265625" xlink:href="#i"/>
<use x="168.644531" xlink:href="#ak"/>
</g>
</g>
<g clip-path="url(#a)">
<defs>
<path id="ar" d="m54.891 33.016v-33.016h-8.9844v32.719q0 7.7656-3.0312 11.609-3.0312 3.8594-9.0781 3.8594-7.2812 0-11.484-4.6406-4.2031-4.625-4.2031-12.641v-30.906h-9.0312v75.984h9.0312v-29.797q3.2344 4.9375 7.5938 7.375 4.375 2.4375 10.094 2.4375 9.4219 0 14.25-5.8281 4.8438-5.8281 4.8438-17.156z"/>
</defs>
<g transform="translate(665.22 791.85) scale(.1 -.1)">
<use xlink:href="#ag"/>
<use x="69.482422" xlink:href="#j"/>
<use x="97.265625" xlink:href="#u"/>
<use x="152.246094" xlink:href="#ar"/>
<use x="215.625" xlink:href="#e"/>
<use x="276.904297" xlink:href="#h"/>
<use x="316.267578" xlink:href="#r"/>
<use x="379.744141" xlink:href="#ab"/>
<use x="431.84375" xlink:href="#ac"/>
<use x="493.025391" xlink:href="#i"/>
</g>
</g>
<g clip-path="url(#a)">
<g transform="translate(751.17 791.85) scale(.1 -.1)">
<use xlink:href="#ap"/>
</g>
</g>
<g clip-path="url(#a)">
<g transform="translate(805.79 791.85) scale(.1 -.1)">
<use xlink:href="#ar"/>
<use x="63.378906" xlink:href="#e"/>
<use x="124.658203" xlink:href="#r"/>
</g>
</g>
<g clip-path="url(#a)">
<g transform="translate(877.28 791.85) scale(.1 -.1)">
<use xlink:href="#e"/>
</g>
</g>
<g clip-path="url(#a)">
<g transform="translate(934.89 791.85) scale(.1 -.1)">
<use xlink:href="#ab"/>
<use x="52.099609" xlink:href="#l"/>
<use x="149.511719" xlink:href="#e"/>
<use x="210.791016" xlink:href="#g"/>
<use x="238.574219" xlink:href="#g"/>
</g>
</g>
<g clip-path="url(#a)">
<g transform="translate(1000.6 791.85) scale(.1 -.1)">
<use xlink:href="#h"/>
<use x="38.863281" xlink:href="#d"/>
<use x="100.386719" xlink:href="#g"/>
<use x="128.169922" xlink:href="#d"/>
<use x="189.693359" xlink:href="#e"/>
<use x="250.972656" xlink:href="#ab"/>
<use x="303.072266" xlink:href="#d"/>
</g>
</g>
<g clip-path="url(#a)">
<g transform="translate(1082.7 791.85) scale(.1 -.1)">
<use xlink:href="#e"/>
<use x="61.279297" xlink:href="#i"/>
<use x="124.658203" xlink:href="#r"/>
</g>
</g>
<g clip-path="url(#a)">
<defs>
<path id="al" d="m2.9844 54.688h9.5156l17.094-45.891 17.094 45.891h9.5156l-20.516-54.688h-12.203z"/>
</defs>
<g transform="translate(1146.6 791.85) scale(.1 -.1)">
<use xlink:href="#h"/>
<use x="38.863281" xlink:href="#d"/>
<use x="100.386719" xlink:href="#u"/>
<use x="155.367188" xlink:href="#d"/>
<use x="216.890625" xlink:href="#j"/>
<use x="244.673828" xlink:href="#al"/>
<use x="303.853516" xlink:href="#d"/>
<use x="365.376953" xlink:href="#r"/>
</g>
</g>
<g clip-path="url(#a)">
<defs>
<path id="bc" d="m45.406 27.984q0 9.7656-4.0312 15.125-4.0156 5.375-11.297 5.375-7.2188 0-11.25-5.375-4.0312-5.3594-4.0312-15.125 0-9.7188 4.0312-15.094t11.25-5.375q7.2812 0 11.297 5.375 4.0312 5.375 4.0312 15.094zm8.9844-21.203q0-13.953-6.2031-20.766-6.1875-6.8125-18.984-6.8125-4.7344 0-8.9375 0.70312t-8.1562 2.1719v8.7344q3.9531-2.1406 7.8125-3.1562 3.8594-1.0312 7.8594-1.0312 8.8438 0 13.234 4.6094t4.3906 13.938v4.4531q-2.7812-4.8438-7.125-7.2344t-10.406-2.3906q-10.047 0-16.203 7.6562-6.1562 7.6719-6.1562 20.328 0 12.688 6.1562 20.344 6.1562 7.6719 16.203 7.6719 6.0625 0 10.406-2.3906t7.125-7.2188v8.2969h8.9844z"/>
</defs>
<g transform="translate(1223.5 791.85) scale(.1 -.1)">
<use xlink:href="#bc"/>
<use x="63.476562" xlink:href="#d"/>
<use x="125" xlink:href="#i"/>
<use x="188.378906" xlink:href="#d"/>
<use x="249.902344" xlink:href="#h"/>
<use x="291.015625" xlink:href="#e"/>
<use x="352.294922" xlink:href="#g"/>
<use x="380.078125" xlink:href="#g"/>
<use x="407.861328" xlink:href="#ak"/>
</g>
</g>
<g clip-path="url(#a)">
<defs>
<path id="ba" d="m8.5 21.578v33.109h8.9844v-32.766q0-7.7656 3.0156-11.656 3.0312-3.875 9.0938-3.875 7.2656 0 11.484 4.6406 4.2344 4.6406 4.2344 12.656v31h8.9844v-54.688h-8.9844v8.4062q-3.2656-4.9844-7.5938-7.4062-4.3125-2.4219-10.031-2.4219-9.4219 0-14.312 5.8594-4.875 5.8594-4.875 17.141z"/>
</defs>
<g transform="translate(1298.3 791.85) scale(.1 -.1)">
<use xlink:href="#ba"/>
<use x="63.378906" xlink:href="#i"/>
<use x="126.757812" xlink:href="#am"/>
<use x="161.962891" xlink:href="#e"/>
<use x="223.242188" xlink:href="#al"/>
<use x="282.421875" xlink:href="#ac"/>
<use x="343.603516" xlink:href="#h"/>
<use x="384.716797" xlink:href="#e"/>
<use x="445.996094" xlink:href="#af"/>
<use x="509.472656" xlink:href="#g"/>
<use x="537.255859" xlink:href="#d"/>
</g>
</g>
<g clip-path="url(#a)">
<g transform="translate(1393.3 791.85) scale(.1 -.1)">
<use xlink:href="#h"/>
<use x="38.863281" xlink:href="#d"/>
<use x="100.386719" xlink:href="#al"/>
<use x="159.566406" xlink:href="#j"/>
<use x="187.349609" xlink:href="#d"/>
<use x="248.873047" xlink:href="#aq"/>
<use x="330.660156" xlink:href="#ab"/>
</g>
</g>
<g clip-path="url(#a)">
<defs>
<path id="f" d="m10.688 12.406h10.312v-12.406h-10.312z"/>
</defs>
<g transform="translate(1497.7 791.85) scale(.1 -.1)">
<use xlink:href="#f"/>
</g>
</g>
<g clip-path="url(#a)">
<defs>
<path id="ah" d="m9.8125 72.906h9.8594v-72.906h-9.8594z"/>
<path id="as" d="m9.8125 72.906h14.703l18.594-49.609 18.703 49.609h14.703v-72.906h-9.625v64.016l-18.797-50h-9.9062l-18.797 50v-64.016h-9.5781z"/>
</defs>
<g transform="translate(414.06 686.56) scale(.1 -.1)">
<use xlink:href="#ah"/>
<use x="29.492188" xlink:href="#as"/>
<use x="115.771484" xlink:href="#s"/>
<use x="176.074219" xlink:href="#ao"/>
<use x="231.787109" xlink:href="#ah"/>
<use x="261.279297" xlink:href="#t"/>
<use x="331.103516" xlink:href="#ah"/>
<use x="360.595703" xlink:href="#k"/>
</g>
</g>
<g clip-path="url(#a)">
<g transform="translate(965.38 40.335) scale(.1 -.1)">
<use xlink:href="#c"/>
<use x="63.623047" xlink:href="#f"/>
<use x="95.410156" xlink:href="#c"/>
</g>
</g>
<g clip-path="url(#a)">
<defs>
<path id="o" d="m19.188 8.2969h34.422v-8.2969h-46.281v8.2969q5.6094 5.8125 15.297 15.594 9.7031 9.7969 12.188 12.641 4.7344 5.3125 6.6094 9 1.8906 3.6875 1.8906 7.25 0 5.8125-4.0781 9.4688-4.0781 3.6719-10.625 3.6719-4.6406 0-9.7969-1.6094-5.1406-1.6094-11-4.8906v9.9688q5.9531 2.3906 11.125 3.6094 5.1875 1.2188 9.4844 1.2188 11.328 0 18.062-5.6719 6.7344-5.6562 6.7344-15.125 0-4.5-1.6875-8.5312-1.6719-4.0156-6.125-9.4844-1.2188-1.4219-7.7656-8.1875-6.5312-6.7656-18.453-18.922z"/>
</defs>
<g transform="translate(695.77 148.69) scale(.1 -.1)">
<use xlink:href="#c"/>
<use x="63.623047" xlink:href="#f"/>
<use x="95.410156" xlink:href="#o"/>
</g>
</g>
<g clip-path="url(#a)">
<g transform="translate(1084.1 686.56) scale(.1 -.1)">
<use xlink:href="#c"/>
<use x="63.623047" xlink:href="#f"/>
<use x="95.410156" xlink:href="#n"/>
</g>
</g>
<g clip-path="url(#a)">
<defs>
<path id="p" d="m37.797 64.312-24.906-38.922h24.906zm-2.5938 8.5938h12.406v-47.516h10.406v-8.2031h-10.406v-17.188h-9.8125v17.188h-32.906v9.5156z"/>
</defs>
<g transform="translate(1116.3 579.8) scale(.1 -.1)">
<use xlink:href="#c"/>
<use x="63.623047" xlink:href="#f"/>
<use x="95.410156" xlink:href="#p"/>
</g>
</g>
<g clip-path="url(#a)">
<defs>
<path id="z" d="m33.016 40.375q-6.6406 0-10.531-4.5469-3.875-4.5312-3.875-12.438 0-7.8594 3.875-12.438 3.8906-4.5625 10.531-4.5625t10.516 4.5625q3.875 4.5781 3.875 12.438 0 7.9062-3.875 12.438-3.875 4.5469-10.516 4.5469zm19.578 30.922v-8.9844q-3.7188 1.75-7.5 2.6719-3.7812 0.9375-7.5 0.9375-9.7656 0-14.922-6.5938-5.1406-6.5938-5.875-19.922 2.875 4.25 7.2188 6.5156 4.3594 2.2656 9.5781 2.2656 10.984 0 17.359-6.6719 6.375-6.6562 6.375-18.125 0-11.234-6.6406-18.031-6.6406-6.7812-17.672-6.7812-12.656 0-19.344 9.6875-6.6875 9.7031-6.6875 28.109 0 17.281 8.2031 27.562t22.016 10.281q3.7188 0 7.5-0.73438t7.8906-2.1875z"/>
</defs>
<g transform="translate(1160.1 686.56) scale(.1 -.1)">
<use xlink:href="#c"/>
<use x="63.623047" xlink:href="#f"/>
<use x="95.410156" xlink:href="#z"/>
</g>
</g>
<g clip-path="url(#a)">
<g transform="translate(1238.9 686.56) scale(.1 -.1)">
<use xlink:href="#c"/>
<use x="63.623047" xlink:href="#f"/>
<use x="95.410156" xlink:href="#y"/>
</g>
</g>
<g clip-path="url(#a)">
<defs>
<path id="ad" d="m31.781 34.625q-7.0312 0-11.062-3.7656-4.0156-3.7656-4.0156-10.344 0-6.5938 4.0156-10.359 4.0312-3.7656 11.062-3.7656t11.078 3.7812q4.0625 3.7969 4.0625 10.344 0 6.5781-4.0312 10.344-4.0156 3.7656-11.109 3.7656zm-9.8594 4.1875q-6.3438 1.5625-9.8906 5.9062-3.5312 4.3594-3.5312 10.609 0 8.7344 6.2188 13.812 6.2344 5.0781 17.062 5.0781 10.891 0 17.094-5.0781t6.2031-13.812q0-6.25-3.5469-10.609-3.5312-4.3438-9.8281-5.9062 7.125-1.6562 11.094-6.5 3.9844-4.8281 3.9844-11.797 0-10.609-6.4688-16.281-6.4688-5.6562-18.531-5.6562-12.047 0-18.531 5.6562-6.4688 5.6719-6.4688 16.281 0 6.9688 4 11.797 4.0156 4.8438 11.141 6.5zm-3.6094 15.578q0-5.6562 3.5312-8.8281 3.5469-3.1719 9.9375-3.1719 6.3594 0 9.9375 3.1719 3.5938 3.1719 3.5938 8.8281 0 5.6719-3.5938 8.8438-3.5781 3.1719-9.9375 3.1719-6.3906 0-9.9375-3.1719-3.5312-3.1719-3.5312-8.8438z"/>
</defs>
<g transform="translate(1320.3 686.56) scale(.1 -.1)">
<use xlink:href="#c"/>
<use x="63.623047" xlink:href="#f"/>
<use x="95.410156" xlink:href="#ad"/>
</g>
</g>
<g clip-path="url(#a)">
<g transform="translate(1404.5 686.56) scale(.1 -.1)">
<use xlink:href="#c"/>
<use x="63.623047" xlink:href="#f"/>
<use x="95.410156" xlink:href="#x"/>
</g>
</g>
<g clip-path="url(#a)">
<defs>
<path id="ae" d="m31.781 66.406q-7.6094 0-11.453-7.5-3.8281-7.4844-3.8281-22.531 0-14.984 3.8281-22.484 3.8438-7.5 11.453-7.5 7.6719 0 11.5 7.5 3.8438 7.5 3.8438 22.484 0 15.047-3.8438 22.531-3.8281 7.5-11.5 7.5zm0 7.8125q12.266 0 18.734-9.7031 6.4688-9.6875 6.4688-28.141 0-18.406-6.4688-28.109-6.4688-9.6875-18.734-9.6875-12.25 0-18.719 9.6875-6.4688 9.7031-6.4688 28.109 0 18.453 6.4688 28.141 6.4688 9.7031 18.719 9.7031z"/>
</defs>
<g transform="translate(198 256.86) scale(.1 -.1)">
<use xlink:href="#c"/>
<use x="63.623047" xlink:href="#f"/>
<use x="95.410156" xlink:href="#c"/>
<use x="159.033203" xlink:href="#ae"/>
</g>
</g>
<g clip-path="url(#a)">
<g transform="translate(893.64 579.8) scale(.1 -.1)">
<use xlink:href="#c"/>
<use x="63.623047" xlink:href="#f"/>
<use x="95.410156" xlink:href="#c"/>
<use x="159.033203" xlink:href="#c"/>
</g>
</g>
<g clip-path="url(#a)">
<g transform="translate(937.08 686.56) scale(.1 -.1)">
<use xlink:href="#c"/>
<use x="63.623047" xlink:href="#f"/>
<use x="95.410156" xlink:href="#c"/>
<use x="159.033203" xlink:href="#o"/>
</g>
</g>
<g clip-path="url(#a)">
<g transform="translate(804.06 686.56) scale(.1 -.1)">
<use xlink:href="#c"/>
<use x="63.623047" xlink:href="#f"/>
<use x="95.410156" xlink:href="#c"/>
<use x="159.033203" xlink:href="#p"/>
</g>
</g>
<g clip-path="url(#a)">
<defs>
<path id="aj" d="m10.797 72.906h38.719v-8.3125h-29.688v-17.859q2.1406 0.73438 4.2812 1.0938 2.1562 0.35938 4.3125 0.35938 12.203 0 19.328-6.6875 7.1406-6.6875 7.1406-18.109 0-11.766-7.3281-18.297-7.3281-6.5156-20.656-6.5156-4.5938 0-9.3594 0.78125-4.75 0.78125-9.8281 2.3438v9.9219q4.3906-2.3906 9.0781-3.5625t9.9062-1.1719q8.4531 0 13.375 4.4375 4.9375 4.4375 4.9375 12.062 0 7.6094-4.9375 12.047-4.9219 4.4531-13.375 4.4531-3.9531 0-7.8906-0.875-3.9219-0.875-8.0156-2.7344z"/>
</defs>
<g transform="translate(869.21 686.56) scale(.1 -.1)">
<use xlink:href="#c"/>
<use x="63.623047" xlink:href="#f"/>
<use x="95.410156" xlink:href="#c"/>
<use x="159.033203" xlink:href="#aj"/>
</g>
</g>
<g clip-path="url(#a)">
<g transform="translate(1007.7 686.56) scale(.1 -.1)">
<use xlink:href="#c"/>
<use x="63.623047" xlink:href="#f"/>
<use x="95.410156" xlink:href="#c"/>
<use x="159.033203" xlink:href="#z"/>
</g>
</g>
<g clip-path="url(#a)">
<g transform="translate(69.762 579.8) scale(.1 -.1)">
<use xlink:href="#c"/>
<use x="63.623047" xlink:href="#f"/>
<use x="95.410156" xlink:href="#c"/>
<use x="159.033203" xlink:href="#y"/>
</g>
</g>
<g clip-path="url(#a)">
<g transform="translate(68.405 686.56) scale(.1 -.1)">
<use xlink:href="#c"/>
<use x="63.623047" xlink:href="#f"/>
<use x="95.410156" xlink:href="#c"/>
<use x="159.033203" xlink:href="#ad"/>
</g>
</g>
<g clip-path="url(#a)">
<g transform="translate(79.263 686.56) scale(.1 -.1)">
<use xlink:href="#c"/>
<use x="63.623047" xlink:href="#f"/>
<use x="95.410156" xlink:href="#c"/>
<use x="159.033203" xlink:href="#x"/>
</g>
</g>
<g clip-path="url(#a)">
<g transform="translate(202.13 364.81) scale(.1 -.1)">
<use xlink:href="#c"/>
<use x="63.623047" xlink:href="#f"/>
<use x="95.410156" xlink:href="#o"/>
<use x="159.033203" xlink:href="#ae"/>
</g>
</g>
<g clip-path="url(#a)">
<g transform="translate(403.43 472.49) scale(.1 -.1)">
<use xlink:href="#c"/>
<use x="63.623047" xlink:href="#f"/>
<use x="95.410156" xlink:href="#o"/>
<use x="159.033203" xlink:href="#c"/>
</g>
</g>
<g clip-path="url(#a)">
<g transform="translate(519.03 686.56) scale(.1 -.1)">
<use xlink:href="#c"/>
<use x="63.623047" xlink:href="#f"/>
<use x="95.410156" xlink:href="#o"/>
<use x="159.033203" xlink:href="#p"/>
</g>
</g>
<g clip-path="url(#a)">
<g transform="translate(612 579.8) scale(.1 -.1)">
<use xlink:href="#c"/>
<use x="63.623047" xlink:href="#f"/>
<use x="95.410156" xlink:href="#o"/>
<use x="159.033203" xlink:href="#aj"/>
</g>
</g>
<g clip-path="url(#a)">
<g transform="translate(570.61 686.56) scale(.1 -.1)">
<use xlink:href="#c"/>
<use x="63.623047" xlink:href="#f"/>
<use x="95.410156" xlink:href="#o"/>
<use x="159.033203" xlink:href="#z"/>
</g>
</g>
<g clip-path="url(#a)">
<g transform="translate(653.4 686.56) scale(.1 -.1)">
<use xlink:href="#c"/>
<use x="63.623047" xlink:href="#f"/>
<use x="95.410156" xlink:href="#o"/>
<use x="159.033203" xlink:href="#y"/>
</g>
</g>
<g clip-path="url(#a)">
<g transform="translate(118.62 579.8) scale(.1 -.1)">
<use xlink:href="#c"/>
<use x="63.623047" xlink:href="#f"/>
<use x="95.410156" xlink:href="#o"/>
<use x="159.033203" xlink:href="#ad"/>
</g>
</g>
<g clip-path="url(#a)">
<g transform="translate(285.63 472.49) scale(.1 -.1)">
<use xlink:href="#c"/>
<use x="63.623047" xlink:href="#f"/>
<use x="95.410156" xlink:href="#o"/>
<use x="159.033203" xlink:href="#x"/>
</g>
</g>
<g clip-path="url(#a)">
<g transform="translate(149.84 686.56) scale(.1 -.1)">
<use xlink:href="#c"/>
<use x="63.623047" xlink:href="#f"/>
<use x="95.410156" xlink:href="#n"/>
<use x="159.033203" xlink:href="#ae"/>
</g>
</g>
<g clip-path="url(#a)">
<g transform="translate(239.73 579.8) scale(.1 -.1)">
<use xlink:href="#c"/>
<use x="63.623047" xlink:href="#f"/>
<use x="95.410156" xlink:href="#n"/>
<use x="159.033203" xlink:href="#c"/>
</g>
</g>
<g clip-path="url(#a)">
<g transform="translate(300.05 686.56) scale(.1 -.1)">
<use xlink:href="#c"/>
<use x="63.623047" xlink:href="#f"/>
<use x="95.410156" xlink:href="#n"/>
<use x="159.033203" xlink:href="#o"/>
</g>
</g>
<g clip-path="url(#a)">
<g transform="translate(360.68 579.8) scale(.1 -.1)">
<use xlink:href="#c"/>
<use x="63.623047" xlink:href="#f"/>
<use x="95.410156" xlink:href="#n"/>
<use x="159.033203" xlink:href="#n"/>
</g>
</g>
<g clip-path="url(#a)">
<g transform="translate(421.3 686.56) scale(.1 -.1)">
<use xlink:href="#c"/>
<use x="63.623047" xlink:href="#f"/>
<use x="95.410156" xlink:href="#n"/>
<use x="159.033203" xlink:href="#z"/>
</g>
</g>
<g clip-path="url(#a)">
<g transform="translate(187.85 686.56) scale(.1 -.1)">
<use xlink:href="#c"/>
<use x="63.623047" xlink:href="#f"/>
<use x="95.410156" xlink:href="#n"/>
<use x="159.033203" xlink:href="#y"/>
</g>
</g>
<g clip-path="url(#a)">
<g transform="translate(231.28 686.56) scale(.1 -.1)">
<use xlink:href="#c"/>
<use x="63.623047" xlink:href="#f"/>
<use x="95.410156" xlink:href="#n"/>
<use x="159.033203" xlink:href="#ad"/>
</g>
</g>
<g clip-path="url(#a)">
<g transform="translate(109.12 686.56) scale(.1 -.1)">
<use xlink:href="#c"/>
<use x="63.623047" xlink:href="#f"/>
<use x="95.410156" xlink:href="#n"/>
<use x="159.033203" xlink:href="#x"/>
</g>
</g>
<g clip-path="url(#a)">
<g transform="translate(128.13 686.56) scale(.1 -.1)">
<use xlink:href="#c"/>
<use x="63.623047" xlink:href="#f"/>
<use x="95.410156" xlink:href="#p"/>
<use x="159.033203" xlink:href="#ae"/>
</g>
</g>
<g clip-path="url(#a)">
<g transform="translate(60.261 686.56) scale(.1 -.1)">
<use xlink:href="#c"/>
<use x="63.623047" xlink:href="#f"/>
<use x="95.410156" xlink:href="#p"/>
<use x="159.033203" xlink:href="#c"/>
</g>
</g>
<g clip-path="url(#a)">
<g transform="translate(92.836 686.56) scale(.1 -.1)">
<use xlink:href="#c"/>
<use x="63.623047" xlink:href="#f"/>
<use x="95.410156" xlink:href="#p"/>
<use x="159.033203" xlink:href="#o"/>
</g>
</g>
<g clip-path="url(#a)">
<g transform="translate(377.87 686.56) scale(.1 -.1)">
<use xlink:href="#c"/>
<use x="63.623047" xlink:href="#f"/>
<use x="95.410156" xlink:href="#p"/>
<use x="159.033203" xlink:href="#n"/>
</g>
</g>
<g clip-path="url(#a)">
<g transform="translate(470.17 686.56) scale(.1 -.1)">
<use xlink:href="#c"/>
<use x="63.623047" xlink:href="#f"/>
<use x="95.410156" xlink:href="#p"/>
<use x="159.033203" xlink:href="#p"/>
</g>
</g>
<g clip-path="url(#a)">
<g transform="translate(741.63 686.56) scale(.1 -.1)">
<use xlink:href="#c"/>
<use x="63.623047" xlink:href="#f"/>
<use x="95.410156" xlink:href="#p"/>
<use x="159.033203" xlink:href="#aj"/>
</g>
</g>
<g clip-path="url(#a)">
<g transform="translate(1488.1 686.56) scale(.1 -.1)">
<use xlink:href="#c"/>
<use x="63.623047" xlink:href="#f"/>
<use x="95.410156" xlink:href="#p"/>
<use x="159.033203" xlink:href="#z"/>
</g>
</g>
<defs>
<clipPath id="a">
<rect width="1570.7" height="826.67"/>
</clipPath>
</defs>
</svg>
