<?xml version="1.0" encoding="UTF-8"?>
<!DOCTYPE svg  PUBLIC '-//W3C//DTD SVG 1.1//EN'  'http://www.w3.org/Graphics/SVG/1.1/DTD/svg11.dtd'>
<svg width="1418.7pt" height="746.67pt" version="1.1" viewBox="0 0 1418.7 746.67" xmlns="http://www.w3.org/2000/svg" xmlns:xlink="http://www.w3.org/1999/xlink">
<defs>
<style type="text/css">*{stroke-linecap:butt;stroke-linejoin:round;}</style>
</defs>
<path d="m0 746.67h1418.7v-746.67h-1418.7z" fill="#fff"/>
<g fill="none" stroke="#000">
<path d="m552.96 33.939-446.75 114.16" clip-path="url(#a)"/>
<path d="m552.96 33.939-139.18 567.67" clip-path="url(#a)"/>
<path d="m552.96 33.939 21.656 341.74" clip-path="url(#a)"/>
<path d="m552.96 33.939 326.54 567.67" clip-path="url(#a)"/>
<path d="m552.96 33.939 421.7 341.74" clip-path="url(#a)"/>
<path d="m552.96 33.939-183.96 567.67" clip-path="url(#a)"/>
<path d="m106.21 148.1-41.723 453.5" clip-path="url(#a)"/>
<path d="m106.21 148.1-32.767 453.5" clip-path="url(#a)"/>
<path d="m106.21 148.1 74.49 113.93" clip-path="url(#a)"/>
<path d="m413.78 601.6v111.12" clip-path="url(#a)"/>
<path d="m574.62 375.68-113.07 225.93" clip-path="url(#a)"/>
<path d="m574.62 375.68-62.32 225.93" clip-path="url(#a)"/>
<path d="m574.62 375.68 19.778 113.26" clip-path="url(#a)"/>
<path d="m574.62 375.68 155.61 113.26" clip-path="url(#a)"/>
<path d="m879.5 601.6v111.12" clip-path="url(#a)"/>
<path d="m974.66 375.68 175.02 113.26" clip-path="url(#a)"/>
<path d="m974.66 375.68 128.75 225.93" clip-path="url(#a)"/>
<path d="m974.66 375.68 209.35 225.93" clip-path="url(#a)"/>
<path d="m974.66 375.68-513.12 225.93" clip-path="url(#a)" stroke-dasharray="3.7,1.6"/>
<path d="m1149.7 488.94-198.53 112.67" clip-path="url(#a)"/>
<path d="m1149.7 488.94-123.89 112.67" clip-path="url(#a)"/>
<path d="m1149.7 488.94 117.92 112.67" clip-path="url(#a)"/>
<path d="m1149.7 488.94 204.5 112.67" clip-path="url(#a)"/>
<path d="m1103.4 601.6v111.12" clip-path="url(#a)"/>
<path d="m1184 601.6v111.12" clip-path="url(#a)"/>
<path d="m951.15 601.6v111.12" clip-path="url(#a)"/>
<path d="m1025.8 601.6v111.12" clip-path="url(#a)"/>
<path d="m1267.6 601.6v111.12" clip-path="url(#a)"/>
<path d="m461.54 601.6v111.12" clip-path="url(#a)"/>
<path d="m512.3 601.6v111.12" clip-path="url(#a)"/>
<path d="m594.4 488.94-28.361 112.67" clip-path="url(#a)"/>
<path d="m594.4 488.94 28.361 112.67" clip-path="url(#a)"/>
<path d="m730.23 488.94-47.767 112.67" clip-path="url(#a)"/>
<path d="m730.23 488.94 47.767 112.67" clip-path="url(#a)"/>
<path d="m682.46 601.6v111.12" clip-path="url(#a)"/>
<path d="m778 601.6-32.84 111.12" clip-path="url(#a)"/>
<path d="m778 601.6 32.84 111.12" clip-path="url(#a)"/>
<path d="m566.03 601.6v111.12" clip-path="url(#a)"/>
<path d="m622.76 601.6v111.12" clip-path="url(#a)"/>
<path d="m64.485 601.6v111.12" clip-path="url(#a)"/>
<path d="m73.441 601.6v111.12" clip-path="url(#a)"/>
<path d="m180.7 262.03-95.315 339.57" clip-path="url(#a)"/>
<path d="m180.7 262.03-80.388 339.57" clip-path="url(#a)"/>
<path d="m180.7 262.03 29.201 113.64" clip-path="url(#a)"/>
<path d="m180.7 262.03 146.5 339.57" clip-path="url(#a)"/>
<path d="m85.383 601.6v111.12" clip-path="url(#a)"/>
<path d="m100.31 601.6v111.12" clip-path="url(#a)"/>
<path d="m209.9 375.68-6.5928 113.26" clip-path="url(#a)"/>
<path d="m209.9 375.68-45.901 113.26" clip-path="url(#a)"/>
<path d="m209.9 375.68 42.666 225.93" clip-path="url(#a)"/>
<path d="m209.9 375.68 9.827 225.93" clip-path="url(#a)"/>
<path d="m327.2 601.6v111.12" clip-path="url(#a)"/>
<path d="m203.31 488.94-85.084 112.67" clip-path="url(#a)"/>
<path d="m203.31 488.94 85.084 112.67" clip-path="url(#a)"/>
<path d="m164 488.94-24.878 112.67" clip-path="url(#a)"/>
<path d="m164 488.94-0.99514 112.67" clip-path="url(#a)"/>
<path d="m164 488.94 25.874 112.67" clip-path="url(#a)"/>
<path d="m252.57 601.6v111.12" clip-path="url(#a)"/>
<path d="m139.12 601.6v111.12" clip-path="url(#a)"/>
<path d="m163 601.6v111.12" clip-path="url(#a)"/>
<path d="m189.87 601.6v111.12" clip-path="url(#a)"/>
<path d="m118.22 601.6v111.12" clip-path="url(#a)"/>
<path d="m288.39 601.6v111.12" clip-path="url(#a)"/>
<path d="m219.73 601.6v111.12" clip-path="url(#a)"/>
<path d="m369 601.6v111.12" clip-path="url(#a)"/>
<path d="m1354.2 601.6v111.12" clip-path="url(#a)"/>
</g>
<path d="m328.22 97.841 5.8289-1.4895q2.3253-0.5942 1.7311-2.9195l-1.9169-7.5015q-0.5942-2.3253-2.9195-1.7311l-5.8289 1.4895q-2.3253 0.5942-1.7311 2.9195l1.9169 7.5015q0.5942 2.3253 2.9195 1.7311z" clip-path="url(#a)" fill="#fff" stroke="#fff"/>
<g clip-path="url(#a)">
<defs>
<path id="x" d="m9.8125 72.906h9.8594v-29.891h35.844v29.891h9.8594v-72.906h-9.8594v34.719h-35.844v-34.719h-9.8594z"/>
</defs>
<g transform="translate(327.22 93.904) rotate(-14.334) scale(.08 -.08)">
<use xlink:href="#x"/>
</g>
</g>
<path d="m488.93 321.43 1.0615-4.3293q0.57152-2.331-1.7594-2.9025l-7.5198-1.8437q-2.331-0.57152-2.9025 1.7594l-1.0615 4.3293q-0.57152 2.331 1.7594 2.9025l7.5198 1.8437q2.331 0.57151 2.9025-1.7594z" clip-path="url(#a)" fill="#fff" stroke="#fff"/>
<g clip-path="url(#a)">
<defs>
<path id="ai" d="m9.8125 72.906h9.8594v-64.609h35.5v-8.2969h-45.359z"/>
</defs>
<g transform="translate(484.98 320.46) rotate(-76.224) scale(.08 -.08)">
<use xlink:href="#ai"/>
</g>
</g>
<path d="m557.34 202.2 0.38049 6.0042q0.15179 2.3952 2.547 2.2434l7.727-0.48967q2.3952-0.15179 2.2434-2.547l-0.38049-6.0042q-0.15179-2.3952-2.547-2.2434l-7.727 0.48967q-2.3952 0.15179-2.2434 2.547z" clip-path="url(#a)" fill="#fff" stroke="#fff"/>
<g clip-path="url(#a)">
<g transform="translate(561.4 201.95) rotate(86.374) scale(.08 -.08)">
<use xlink:href="#x"/>
</g>
</g>
<path d="m709.68 318.97 2.2226 3.8638q1.1967 2.0804 3.2771 0.88366l6.7113-3.8606q2.0804-1.1967 0.88366-3.2771l-2.2226-3.8638q-1.1967-2.0804-3.2771-0.88366l-6.7113 3.8606q-2.0804 1.1967-0.88366 3.2771z" clip-path="url(#a)" fill="#fff" stroke="#fff"/>
<g clip-path="url(#a)">
<g transform="translate(713.21 316.94) rotate(60.091) scale(.08 -.08)">
<use xlink:href="#ai"/>
</g>
</g>
<path d="m757.53 207.79 4.6741 3.7878q1.8646 1.511 3.3756-0.35357l4.8747-6.0153q1.511-1.8646-0.35357-3.3756l-4.6741-3.7878q-1.8646-1.511-3.3756 0.35357l-4.8747 6.0153q-1.511 1.8646 0.35357 3.3756z" clip-path="url(#a)" fill="#fff" stroke="#fff"/>
<g clip-path="url(#a)">
<g transform="translate(760.08 204.63) rotate(39.021) scale(.08 -.08)">
<use xlink:href="#x"/>
</g>
</g>
<path d="m466.04 322.49 1.805-5.5698q0.73989-2.2831-1.5432-3.023l-7.3654-2.3869q-2.2831-0.73989-3.023 1.5432l-1.805 5.5698q-0.73989 2.2831 1.5432 3.023l7.3654 2.3869q2.2831 0.73989 3.023-1.5432z" clip-path="url(#a)" fill="#fff" stroke="#fff"/>
<g clip-path="url(#a)">
<defs>
<path id="w" d="m8.6875 72.906h9.9219v-44.297q0-11.719 4.2344-16.875 4.25-5.1406 13.781-5.1406 9.4688 0 13.719 5.1406 4.25 5.1562 4.25 16.875v44.297h9.9062v-45.516q0-14.25-7.0625-21.531-7.0469-7.2812-20.812-7.2812-13.828 0-20.891 7.2812-7.0469 7.2812-7.0469 21.531z"/>
</defs>
<g transform="translate(462.18 321.24) rotate(-72.044) scale(.08 -.08)">
<use xlink:href="#w"/>
</g>
</g>
<path d="m91.341 378.15 0.50136-5.4495q0.21988-2.3899-2.17-2.6098l-7.7099-0.70933q-2.3899-0.21988-2.6098 2.17l-0.50136 5.4495q-0.21988 2.3899 2.17 2.6098l7.7099 0.70933q2.3899 0.21988 2.6098-2.17z" clip-path="url(#a)" fill="#fff" stroke="#fff"/>
<g clip-path="url(#a)">
<defs>
<path id="o" d="m34.188 63.188-13.391-36.281h26.812zm-5.5781 9.7188h11.188l27.781-72.906h-10.25l-6.6406 18.703h-32.859l-6.6406-18.703h-10.406z"/>
</defs>
<g transform="translate(87.294 377.78) rotate(-84.743) scale(.08 -.08)">
<use xlink:href="#o"/>
</g>
</g>
<path d="m95.906 377.71 0.34762-4.8112q0.17296-2.3938-2.2208-2.5667l-7.7224-0.55796q-2.3938-0.17296-2.5667 2.2208l-0.34762 4.8112q-0.17296 2.3938 2.2208 2.5667l7.7224 0.55796q2.3938 0.17296 2.5667-2.2208z" clip-path="url(#a)" fill="#fff" stroke="#fff"/>
<g clip-path="url(#a)">
<defs>
<path id="ah" d="m19.672 64.797v-27.391h12.406q6.8906 0 10.641 3.5625 3.7656 3.5625 3.7656 10.156 0 6.5469-3.7656 10.109-3.75 3.5625-10.641 3.5625zm-9.8594 8.1094h22.266q12.266 0 18.531-5.5469 6.2812-5.5469 6.2812-16.234 0-10.797-6.2812-16.312-6.2656-5.5156-18.531-5.5156h-12.406v-29.297h-9.8594z"/>
</defs>
<g transform="translate(91.852 377.42) rotate(-85.867) scale(.08 -.08)">
<use xlink:href="#ah"/>
</g>
</g>
<path d="m136.71 206.21 2.9947 4.5804q1.3134 2.0088 3.3221 0.69541l6.4803-4.2369q2.0088-1.3134 0.69541-3.3221l-2.9947-4.5804q-1.3134-2.0088-3.3221-0.69541l-6.4803 4.2369q-2.0088 1.3134-0.69541 3.3221z" clip-path="url(#a)" fill="#fff" stroke="#fff"/>
<g clip-path="url(#a)">
<g transform="translate(140.11 203.98) rotate(56.823) scale(.08 -.08)">
<use xlink:href="#o"/>
</g>
</g>
<path d="m407.51 640.26v33.808q0 2.4 2.4 2.4h7.7425q2.4 0 2.4-2.4v-33.808q0-2.4-2.4-2.4h-7.7425q-2.4 0-2.4 2.4z" clip-path="url(#a)" fill="#fff" stroke="#fff"/>
<g clip-path="url(#a)">
<defs>
<path id="l" d="m-0.29688 72.906h61.672v-8.3125h-25.875v-64.594h-9.9062v64.594h-25.891z"/>
<path id="d" d="m56.203 29.594v-4.3906h-41.312q0.59375-9.2812 5.5938-14.141t13.938-4.8594q5.1719 0 10.031 1.2656t9.6562 3.8125v-8.5q-4.8438-2.0469-9.9219-3.125t-10.297-1.0781q-13.094 0-20.734 7.6094-7.6406 7.625-7.6406 20.625 0 13.422 7.25 21.297 7.25 7.8906 19.562 7.8906 11.031 0 17.453-7.1094 6.4219-7.0938 6.4219-19.297zm-8.9844 2.6406q-0.09375 7.3594-4.125 11.75-4.0312 4.4062-10.672 4.4062-7.5156 0-12.031-4.25t-5.2031-11.969z"/>
<path id="h" d="m41.109 46.297q-1.5156 0.875-3.2969 1.2812-1.7812 0.42188-3.9219 0.42188-7.625 0-11.703-4.9531t-4.0781-14.234v-28.812h-9.0312v54.688h9.0312v-8.5q2.8438 4.9844 7.375 7.3906 4.5469 2.4219 11.047 2.4219 0.92188 0 2.0469-0.125 1.125-0.10938 2.4844-0.35938z"/>
<path id="k" d="m52 44.188q3.375 6.0625 8.0625 8.9375t11.031 2.875q8.5469 0 13.188-5.9844 4.6406-5.9688 4.6406-17v-33.016h-9.0312v32.719q0 7.8594-2.7969 11.656-2.7812 3.8125-8.4844 3.8125-6.9844 0-11.047-4.6406-4.0469-4.625-4.0469-12.641v-30.906h-9.0312v32.719q0 7.9062-2.7812 11.688t-8.5938 3.7812q-6.8906 0-10.953-4.6562-4.0469-4.6562-4.0469-12.625v-30.906h-9.0312v54.688h9.0312v-8.5q3.0781 5.0312 7.375 7.4219t10.203 2.3906q5.9688 0 10.141-3.0312 4.1719-3.0156 6.1719-8.7812z"/>
<path id="j" d="m9.4219 54.688h8.9844v-54.688h-8.9844zm0 21.297h8.9844v-11.391h-8.9844z"/>
<path id="g" d="m54.891 33.016v-33.016h-8.9844v32.719q0 7.7656-3.0312 11.609-3.0312 3.8594-9.0781 3.8594-7.2812 0-11.484-4.6406-4.2031-4.625-4.2031-12.641v-30.906h-9.0312v54.688h9.0312v-8.5q3.2344 4.9375 7.5938 7.375 4.375 2.4375 10.094 2.4375 9.4219 0 14.25-5.8281 4.8438-5.8281 4.8438-17.156z"/>
<path id="f" d="m34.281 27.484q-10.891 0-15.094-2.4844t-4.2031-8.5q0-4.7812 3.1562-7.5938 3.1562-2.7969 8.5625-2.7969 7.4844 0 12 5.2969t4.5156 14.078v2zm17.922 3.7188v-31.203h-8.9844v8.2969q-3.0781-4.9688-7.6719-7.3438t-11.234-2.375q-8.3906 0-13.359 4.7188-4.9531 4.7188-4.9531 12.625 0 9.2188 6.1719 13.906 6.1875 4.6875 18.438 4.6875h12.609v0.89062q0 6.2031-4.0781 9.5938t-11.453 3.3906q-4.6875 0-9.1406-1.125-4.4375-1.125-8.5312-3.375v8.3125q4.9219 1.9062 9.5625 2.8438 4.6406 0.95312 9.0312 0.95312 11.875 0 17.734-6.1562 5.8594-6.1406 5.8594-18.641z"/>
<path id="i" d="m9.4219 75.984h8.9844v-75.984h-8.9844z"/>
</defs>
<g transform="translate(411.57 640.26) rotate(90) scale(.08 -.08)">
<use xlink:href="#l"/>
<use x="44.083984" xlink:href="#d"/>
<use x="105.607422" xlink:href="#h"/>
<use x="144.970703" xlink:href="#k"/>
<use x="242.382812" xlink:href="#j"/>
<use x="270.166016" xlink:href="#g"/>
<use x="333.544922" xlink:href="#f"/>
<use x="394.824219" xlink:href="#i"/>
</g>
</g>
<path d="m522.46 493.89 2.4493-4.8938q1.0741-2.1462-1.0721-3.2204l-6.9238-3.4652q-2.1462-1.0741-3.2204 1.0721l-2.4493 4.8938q-1.0741 2.1462 1.0721 3.2204l6.9238 3.4652q2.1462 1.0741 3.2204-1.0721z" clip-path="url(#a)" fill="#fff" stroke="#fff"/>
<g clip-path="url(#a)">
<g transform="translate(518.83 492.08) rotate(-63.413) scale(.08 -.08)">
<use xlink:href="#o"/>
</g>
</g>
<path d="m548.86 492.63 1.2827-4.6501q0.63819-2.3136-1.6754-2.9518l-7.4638-2.0588q-2.3136-0.63819-2.9518 1.6754l-1.2827 4.6501q-0.63819 2.3136 1.6754 2.9518l7.4638 2.0588q2.3136 0.63819 2.9518-1.6754z" clip-path="url(#a)" fill="#fff" stroke="#fff"/>
<g clip-path="url(#a)">
<g transform="translate(544.94 491.55) rotate(-74.579) scale(.08 -.08)">
<use xlink:href="#ah"/>
</g>
</g>
<path d="m577.8 430.35 1.0597 6.0682q0.41286 2.3642 2.7771 1.9514l7.6271-1.3319q2.3642-0.41286 1.9514-2.7771l-1.0597-6.0682q-0.41286-2.3642-2.7771-1.9514l-7.6271 1.3319q-2.3642 0.41286-1.9514 2.7771z" clip-path="url(#a)" fill="#fff" stroke="#fff"/>
<g clip-path="url(#a)">
<defs>
<path id="y" d="m19.672 64.797v-56.688h11.922q15.094 0 22.094 6.8281 7 6.8438 7 21.594 0 14.641-7 21.453t-22.094 6.8125zm-9.8594 8.1094h20.266q21.188 0 31.094-8.8125 9.9219-8.8125 9.9219-27.562 0-18.859-9.9688-27.703-9.9531-8.8281-31.047-8.8281h-20.266z"/>
</defs>
<g transform="translate(581.8 429.65) rotate(80.094) scale(.08 -.08)">
<use xlink:href="#y"/>
</g>
</g>
<path d="m646.52 435.77 4.4247 3.2203q1.9405 1.4123 3.3528-0.52816l4.5562-6.26q1.4123-1.9405-0.52816-3.3528l-4.4247-3.2203q-1.9405-1.4123-3.3528 0.52816l-4.5562 6.26q-1.4123 1.9405 0.52816 3.3528z" clip-path="url(#a)" fill="#fff" stroke="#fff"/>
<g clip-path="url(#a)">
<g transform="translate(648.91 432.48) rotate(36.048) scale(.08 -.08)">
<use xlink:href="#o"/>
</g>
</g>
<path d="m873.23 640.26v33.808q0 2.4 2.4 2.4h7.7425q2.4 0 2.4-2.4v-33.808q0-2.4-2.4-2.4h-7.7425q-2.4 0-2.4 2.4z" clip-path="url(#a)" fill="#fff" stroke="#fff"/>
<g clip-path="url(#a)">
<g transform="translate(877.29 640.26) rotate(90) scale(.08 -.08)">
<use xlink:href="#l"/>
<use x="44.083984" xlink:href="#d"/>
<use x="105.607422" xlink:href="#h"/>
<use x="144.970703" xlink:href="#k"/>
<use x="242.382812" xlink:href="#j"/>
<use x="270.166016" xlink:href="#g"/>
<use x="333.544922" xlink:href="#f"/>
<use x="394.824219" xlink:href="#i"/>
</g>
</g>
<path d="m1056.7 436.26 4.0498 2.6207q2.0149 1.3039 3.3188-0.71102l4.2064-6.5002q1.3039-2.0149-0.71102-3.3188l-4.0498-2.6207q-2.0149-1.3039-3.3188 0.71102l-4.2064 6.5002q-1.3039 2.0149 0.71102 3.3188z" clip-path="url(#a)" fill="#fff" stroke="#fff"/>
<g clip-path="url(#a)">
<g transform="translate(1058.9 432.85) rotate(32.908) scale(.08 -.08)">
<use xlink:href="#ah"/>
</g>
</g>
<path d="m1032.1 489.07 3.0499 5.352q1.1883 2.0852 3.2735 0.89694l6.7269-3.8334q2.0852-1.1883 0.89694-3.2735l-3.0499-5.352q-1.1883-2.0852-3.2735-0.89694l-6.7269 3.8334q-2.0852 1.1883-0.89694 3.2735z" clip-path="url(#a)" fill="#fff" stroke="#fff"/>
<g clip-path="url(#a)">
<g transform="translate(1035.6 487.06) rotate(60.323) scale(.08 -.08)">
<use xlink:href="#y"/>
</g>
</g>
<path d="m1072.6 490.64 4.1869 4.5184q1.6312 1.7604 3.3917 0.12915l5.6791-5.2625q1.7604-1.6313 0.12915-3.3917l-4.1869-4.5184q-1.6312-1.7604-3.3917-0.12915l-5.6791 5.2625q-1.7604 1.6312-0.12915 3.3917z" clip-path="url(#a)" fill="#fff" stroke="#fff"/>
<g clip-path="url(#a)">
<g transform="translate(1075.6 487.88) rotate(47.181) scale(.08 -.08)">
<use xlink:href="#y"/>
</g>
</g>
<path d="m718.13 495.48 5.0085-2.2053q2.1965-0.96713 1.2294-3.1636l-3.12-7.086q-0.96713-2.1965-3.1636-1.2294l-5.0085 2.2053q-2.1965 0.96713-1.2294 3.1636l3.12 7.086q0.96713 2.1965 3.1636 1.2294z" clip-path="url(#a)" fill="#fff" stroke="#fff"/>
<g clip-path="url(#a)">
<g transform="translate(716.49 491.76) rotate(-23.764) scale(.08 -.08)">
<use xlink:href="#o"/>
</g>
</g>
<path d="m1051.5 551.86 4.0017-2.271q2.0873-1.1846 0.90273-3.2719l-3.8215-6.7337q-1.1846-2.0873-3.2719-0.90273l-4.0017 2.271q-2.0873 1.1846-0.90273 3.2719l3.8215 6.7337q1.1846 2.0873 3.2719 0.90273z" clip-path="url(#a)" fill="#fff" stroke="#fff"/>
<g clip-path="url(#a)">
<defs>
<path id="ao" d="m9.8125 72.906h41.891v-8.3125h-32.031v-21.484h28.906v-8.2969h-28.906v-34.812h-9.8594z"/>
</defs>
<g transform="translate(1049.5 548.33) rotate(-29.575) scale(.08 -.08)">
<use xlink:href="#ao"/>
</g>
</g>
<path d="m1090.1 551.61 3.7398-3.401q1.7756-1.6147 0.16089-3.3903l-5.2091-5.7281q-1.6147-1.7756-3.3903-0.16089l-3.7398 3.401q-1.7756 1.6147-0.16089 3.3903l5.2091 5.7281q1.6147 1.7756 3.3903 0.16089z" clip-path="url(#a)" fill="#fff" stroke="#fff"/>
<g clip-path="url(#a)">
<defs>
<path id="aj" d="m9.8125 72.906h46.094v-8.3125h-36.234v-21.578h34.719v-8.2969h-34.719v-26.422h37.109v-8.2969h-46.969z"/>
</defs>
<g transform="translate(1087.3 548.6) rotate(-42.283) scale(.08 -.08)">
<use xlink:href="#aj"/>
</g>
</g>
<path d="m1202.3 547.88 4.0391 3.859q1.7353 1.6579 3.3932-0.077337l5.3486-5.5981q1.6579-1.7353-0.077336-3.3932l-4.0391-3.859q-1.7353-1.6579-3.3932 0.077337l-5.3486 5.5981q-1.6579 1.7353 0.077337 3.3932z" clip-path="url(#a)" fill="#fff" stroke="#fff"/>
<g clip-path="url(#a)">
<defs>
<path id="t" d="m64.406 67.281v-10.391q-4.9844 4.6406-10.625 6.9219-5.6406 2.2969-11.984 2.2969-12.5 0-19.141-7.6406t-6.6406-22.094q0-14.406 6.6406-22.047t19.141-7.6406q6.3438 0 11.984 2.2969t10.625 6.9375v-10.312q-5.1719-3.5156-10.969-5.2812-5.7812-1.75-12.219-1.75-16.562 0-26.094 10.125-9.5156 10.141-9.5156 27.672 0 17.578 9.5156 27.703 9.5312 10.141 26.094 10.141 6.5312 0 12.312-1.7344 5.7969-1.7344 10.875-5.2031z"/>
</defs>
<g transform="translate(1205.1 544.94) rotate(43.694) scale(.08 -.08)">
<use xlink:href="#t"/>
</g>
</g>
<path d="m1246.3 549.35 5.1282 2.8253q2.1021 1.1581 3.2602-0.94395l3.7362-6.7814q1.1581-2.1021-0.94395-3.2602l-5.1282-2.8253q-2.1021-1.1581-3.2602 0.94395l-3.7362 6.7814q-1.1581 2.1021 0.94395 3.2602z" clip-path="url(#a)" fill="#fff" stroke="#fff"/>
<g clip-path="url(#a)">
<g transform="translate(1248.3 545.79) rotate(28.852) scale(.08 -.08)">
<use xlink:href="#w"/>
</g>
</g>
<path d="m1097.1 640.26v33.808q0 2.4 2.4 2.4h7.7425q2.4 0 2.4-2.4v-33.808q0-2.4-2.4-2.4h-7.7425q-2.4 0-2.4 2.4z" clip-path="url(#a)" fill="#fff" stroke="#fff"/>
<g clip-path="url(#a)">
<g transform="translate(1101.2 640.26) rotate(90) scale(.08 -.08)">
<use xlink:href="#l"/>
<use x="44.083984" xlink:href="#d"/>
<use x="105.607422" xlink:href="#h"/>
<use x="144.970703" xlink:href="#k"/>
<use x="242.382812" xlink:href="#j"/>
<use x="270.166016" xlink:href="#g"/>
<use x="333.544922" xlink:href="#f"/>
<use x="394.824219" xlink:href="#i"/>
</g>
</g>
<path d="m1177.7 640.26v33.808q0 2.4 2.4 2.4h7.7425q2.4 0 2.4-2.4v-33.808q0-2.4-2.4-2.4h-7.7425q-2.4 0-2.4 2.4z" clip-path="url(#a)" fill="#fff" stroke="#fff"/>
<g clip-path="url(#a)">
<g transform="translate(1181.8 640.26) rotate(90) scale(.08 -.08)">
<use xlink:href="#l"/>
<use x="44.083984" xlink:href="#d"/>
<use x="105.607422" xlink:href="#h"/>
<use x="144.970703" xlink:href="#k"/>
<use x="242.382812" xlink:href="#j"/>
<use x="270.166016" xlink:href="#g"/>
<use x="333.544922" xlink:href="#f"/>
<use x="394.824219" xlink:href="#i"/>
</g>
</g>
<path d="m944.88 640.26v33.808q0 2.4 2.4 2.4h7.7425q2.4 0 2.4-2.4v-33.808q0-2.4-2.4-2.4h-7.7425q-2.4 0-2.4 2.4z" clip-path="url(#a)" fill="#fff" stroke="#fff"/>
<g clip-path="url(#a)">
<g transform="translate(948.94 640.26) rotate(90) scale(.08 -.08)">
<use xlink:href="#l"/>
<use x="44.083984" xlink:href="#d"/>
<use x="105.607422" xlink:href="#h"/>
<use x="144.970703" xlink:href="#k"/>
<use x="242.382812" xlink:href="#j"/>
<use x="270.166016" xlink:href="#g"/>
<use x="333.544922" xlink:href="#f"/>
<use x="394.824219" xlink:href="#i"/>
</g>
</g>
<path d="m1019.5 640.26v33.808q0 2.4 2.4 2.4h7.7425q2.4 0 2.4-2.4v-33.808q0-2.4-2.4-2.4h-7.7425q-2.4 0-2.4 2.4z" clip-path="url(#a)" fill="#fff" stroke="#fff"/>
<g clip-path="url(#a)">
<g transform="translate(1023.6 640.26) rotate(90) scale(.08 -.08)">
<use xlink:href="#l"/>
<use x="44.083984" xlink:href="#d"/>
<use x="105.607422" xlink:href="#h"/>
<use x="144.970703" xlink:href="#k"/>
<use x="242.382812" xlink:href="#j"/>
<use x="270.166016" xlink:href="#g"/>
<use x="333.544922" xlink:href="#f"/>
<use x="394.824219" xlink:href="#i"/>
</g>
</g>
<path d="m1261.3 640.26v33.808q0 2.4 2.4 2.4h7.7425q2.4 0 2.4-2.4v-33.808q0-2.4-2.4-2.4h-7.7425q-2.4 0-2.4 2.4z" clip-path="url(#a)" fill="#fff" stroke="#fff"/>
<g clip-path="url(#a)">
<g transform="translate(1265.4 640.26) rotate(90) scale(.08 -.08)">
<use xlink:href="#l"/>
<use x="44.083984" xlink:href="#d"/>
<use x="105.607422" xlink:href="#h"/>
<use x="144.970703" xlink:href="#k"/>
<use x="242.382812" xlink:href="#j"/>
<use x="270.166016" xlink:href="#g"/>
<use x="333.544922" xlink:href="#f"/>
<use x="394.824219" xlink:href="#i"/>
</g>
</g>
<path d="m455.27 640.26v33.808q0 2.4 2.4 2.4h7.7425q2.4 0 2.4-2.4v-33.808q0-2.4-2.4-2.4h-7.7425q-2.4 0-2.4 2.4z" clip-path="url(#a)" fill="#fff" stroke="#fff"/>
<g clip-path="url(#a)">
<g transform="translate(459.34 640.26) rotate(90) scale(.08 -.08)">
<use xlink:href="#l"/>
<use x="44.083984" xlink:href="#d"/>
<use x="105.607422" xlink:href="#h"/>
<use x="144.970703" xlink:href="#k"/>
<use x="242.382812" xlink:href="#j"/>
<use x="270.166016" xlink:href="#g"/>
<use x="333.544922" xlink:href="#f"/>
<use x="394.824219" xlink:href="#i"/>
</g>
</g>
<path d="m506.03 640.26v33.808q0 2.4 2.4 2.4h7.7425q2.4 0 2.4-2.4v-33.808q0-2.4-2.4-2.4h-7.7425q-2.4 0-2.4 2.4z" clip-path="url(#a)" fill="#fff" stroke="#fff"/>
<g clip-path="url(#a)">
<g transform="translate(510.09 640.26) rotate(90) scale(.08 -.08)">
<use xlink:href="#l"/>
<use x="44.083984" xlink:href="#d"/>
<use x="105.607422" xlink:href="#h"/>
<use x="144.970703" xlink:href="#k"/>
<use x="242.382812" xlink:href="#j"/>
<use x="270.166016" xlink:href="#g"/>
<use x="333.544922" xlink:href="#f"/>
<use x="394.824219" xlink:href="#i"/>
</g>
</g>
<path d="m585.68 549.25 1.234-4.9021q0.58586-2.3274-1.7415-2.9133l-7.5083-1.89q-2.3274-0.58586-2.9133 1.7415l-1.234 4.9021q-0.58586 2.3274 1.7415 2.9133l7.5083 1.89q2.3274 0.58586 2.9133-1.7415z" clip-path="url(#a)" fill="#fff" stroke="#fff"/>
<g clip-path="url(#a)">
<g transform="translate(581.74 548.26) rotate(-75.871) scale(.08 -.08)">
<use xlink:href="#aj"/>
</g>
</g>
<path d="m601.81 544.09 1.3637 5.4173q0.58586 2.3274 2.9133 1.7415l7.5083-1.89q2.3274-0.58586 1.7415-2.9133l-1.3637-5.4173q-0.58586-2.3274-2.9133-1.7415l-7.5083 1.89q-2.3274 0.58586-1.7415 2.9133z" clip-path="url(#a)" fill="#fff" stroke="#fff"/>
<g clip-path="url(#a)">
<g transform="translate(605.75 543.1) rotate(75.871) scale(.08 -.08)">
<use xlink:href="#t"/>
</g>
</g>
<path d="m711.04 550.28 2.1697-5.1178q0.93679-2.2096-1.2728-3.1464l-7.1283-3.0221q-2.2096-0.93679-3.1464 1.2728l-2.1697 5.1178q-0.93679 2.2096 1.2728 3.1464l7.1283 3.0221q2.2096 0.93679 3.1464-1.2728z" clip-path="url(#a)" fill="#fff" stroke="#fff"/>
<g clip-path="url(#a)">
<defs>
<path id="au" d="m44.391 34.188q3.1719-1.0781 6.1719-4.5938t6.0312-9.6719l10.016-19.922h-10.609l-9.3125 18.703q-3.625 7.3281-7.0156 9.7188t-9.25 2.3906h-10.75v-30.812h-9.8594v72.906h22.266q12.5 0 18.656-5.2344 6.1562-5.2188 6.1562-15.766 0-6.8906-3.2031-11.438-3.2031-4.5312-9.2969-6.2812zm-24.719 30.609v-25.875h12.406q7.125 0 10.766 3.2969t3.6406 9.6875-3.6406 9.6406-10.766 3.25z"/>
</defs>
<g transform="translate(707.3 548.69) rotate(-67.025) scale(.08 -.08)">
<use xlink:href="#au"/>
</g>
</g>
<path d="m747.25 545.15 2.1805 5.1431q0.93679 2.2096 3.1464 1.2728l7.1283-3.0221q2.2096-0.93679 1.2728-3.1464l-2.1805-5.1431q-0.93679-2.2096-3.1464-1.2728l-7.1283 3.0221q-2.2096 0.93679-1.2728 3.1464z" clip-path="url(#a)" fill="#fff" stroke="#fff"/>
<g clip-path="url(#a)">
<g transform="translate(750.99 543.56) rotate(67.025) scale(.08 -.08)">
<use xlink:href="#t"/>
</g>
</g>
<path d="m676.19 640.26v33.808q0 2.4 2.4 2.4h7.7425q2.4 0 2.4-2.4v-33.808q0-2.4-2.4-2.4h-7.7425q-2.4 0-2.4 2.4z" clip-path="url(#a)" fill="#fff" stroke="#fff"/>
<g clip-path="url(#a)">
<g transform="translate(680.26 640.26) rotate(90) scale(.08 -.08)">
<use xlink:href="#l"/>
<use x="44.083984" xlink:href="#d"/>
<use x="105.607422" xlink:href="#h"/>
<use x="144.970703" xlink:href="#k"/>
<use x="242.382812" xlink:href="#j"/>
<use x="270.166016" xlink:href="#g"/>
<use x="333.544922" xlink:href="#f"/>
<use x="394.824219" xlink:href="#i"/>
</g>
</g>
<path d="m762.8 675.15 9.5813-32.421q0.68018-2.3016-1.6214-2.9818l-7.4251-2.1943q-2.3016-0.68018-2.9818 1.6214l-9.5813 32.421q-0.68018 2.3016 1.6214 2.9818l7.4251 2.1943q2.3016 0.68018 2.9818-1.6214z" clip-path="url(#a)" fill="#fff" stroke="#fff"/>
<g clip-path="url(#a)">
<g transform="translate(758.9 674) rotate(-73.536) scale(.08 -.08)">
<use xlink:href="#l"/>
<use x="44.083984" xlink:href="#d"/>
<use x="105.607422" xlink:href="#h"/>
<use x="144.970703" xlink:href="#k"/>
<use x="242.382812" xlink:href="#j"/>
<use x="270.166016" xlink:href="#g"/>
<use x="333.544922" xlink:href="#f"/>
<use x="394.824219" xlink:href="#i"/>
</g>
</g>
<path d="m783.61 642.73 9.5813 32.421q0.68018 2.3016 2.9818 1.6214l7.4251-2.1943q2.3016-0.68018 1.6214-2.9818l-9.5813-32.421q-0.68018-2.3016-2.9818-1.6214l-7.4251 2.1943q-2.3016 0.68018-1.6214 2.9818z" clip-path="url(#a)" fill="#fff" stroke="#fff"/>
<g clip-path="url(#a)">
<g transform="translate(787.51 641.58) rotate(73.536) scale(.08 -.08)">
<use xlink:href="#l"/>
<use x="44.083984" xlink:href="#d"/>
<use x="105.607422" xlink:href="#h"/>
<use x="144.970703" xlink:href="#k"/>
<use x="242.382812" xlink:href="#j"/>
<use x="270.166016" xlink:href="#g"/>
<use x="333.544922" xlink:href="#f"/>
<use x="394.824219" xlink:href="#i"/>
</g>
</g>
<path d="m559.76 640.26v33.808q0 2.4 2.4 2.4h7.7425q2.4 0 2.4-2.4v-33.808q0-2.4-2.4-2.4h-7.7425q-2.4 0-2.4 2.4z" clip-path="url(#a)" fill="#fff" stroke="#fff"/>
<g clip-path="url(#a)">
<g transform="translate(563.83 640.26) rotate(90) scale(.08 -.08)">
<use xlink:href="#l"/>
<use x="44.083984" xlink:href="#d"/>
<use x="105.607422" xlink:href="#h"/>
<use x="144.970703" xlink:href="#k"/>
<use x="242.382812" xlink:href="#j"/>
<use x="270.166016" xlink:href="#g"/>
<use x="333.544922" xlink:href="#f"/>
<use x="394.824219" xlink:href="#i"/>
</g>
</g>
<path d="m616.49 640.26v33.808q0 2.4 2.4 2.4h7.7425q2.4 0 2.4-2.4v-33.808q0-2.4-2.4-2.4h-7.7425q-2.4 0-2.4 2.4z" clip-path="url(#a)" fill="#fff" stroke="#fff"/>
<g clip-path="url(#a)">
<g transform="translate(620.55 640.26) rotate(90) scale(.08 -.08)">
<use xlink:href="#l"/>
<use x="44.083984" xlink:href="#d"/>
<use x="105.607422" xlink:href="#h"/>
<use x="144.970703" xlink:href="#k"/>
<use x="242.382812" xlink:href="#j"/>
<use x="270.166016" xlink:href="#g"/>
<use x="333.544922" xlink:href="#f"/>
<use x="394.824219" xlink:href="#i"/>
</g>
</g>
<path d="m58.214 640.26v33.808q0 2.4 2.4 2.4h7.7425q2.4 0 2.4-2.4v-33.808q0-2.4-2.4-2.4h-7.7425q-2.4 0-2.4 2.4z" clip-path="url(#a)" fill="#fff" stroke="#fff"/>
<g clip-path="url(#a)">
<g transform="translate(62.277 640.26) rotate(90) scale(.08 -.08)">
<use xlink:href="#l"/>
<use x="44.083984" xlink:href="#d"/>
<use x="105.607422" xlink:href="#h"/>
<use x="144.970703" xlink:href="#k"/>
<use x="242.382812" xlink:href="#j"/>
<use x="270.166016" xlink:href="#g"/>
<use x="333.544922" xlink:href="#f"/>
<use x="394.824219" xlink:href="#i"/>
</g>
</g>
<path d="m67.17 640.26v33.808q0 2.4 2.4 2.4h7.7425q2.4 0 2.4-2.4v-33.808q0-2.4-2.4-2.4h-7.7425q-2.4 0-2.4 2.4z" clip-path="url(#a)" fill="#fff" stroke="#fff"/>
<g clip-path="url(#a)">
<g transform="translate(71.234 640.26) rotate(90) scale(.08 -.08)">
<use xlink:href="#l"/>
<use x="44.083984" xlink:href="#d"/>
<use x="105.607422" xlink:href="#h"/>
<use x="144.970703" xlink:href="#k"/>
<use x="242.382812" xlink:href="#j"/>
<use x="270.166016" xlink:href="#g"/>
<use x="333.544922" xlink:href="#f"/>
<use x="394.824219" xlink:href="#i"/>
</g>
</g>
<path d="m138.25 436.48 1.6647-5.9308q0.6486-2.3107-1.6621-2.9593l-7.4544-2.0924q-2.3107-0.6486-2.9593 1.6621l-1.6647 5.9308q-0.6486 2.3107 1.6621 2.9593l7.4544 2.0924q2.3107 0.6486 2.9593-1.6621z" clip-path="url(#a)" fill="#fff" stroke="#fff"/>
<g clip-path="url(#a)">
<g transform="translate(134.33 435.38) rotate(-74.321) scale(.08 -.08)">
<use xlink:href="#y"/>
</g>
</g>
<path d="m146.02 435.73 1.17-4.9422q0.55288-2.3354-1.7826-2.8883l-7.5343-1.7836q-2.3354-0.55288-2.8883 1.7826l-1.17 4.9422q-0.55288 2.3354 1.7826 2.8883l7.5343 1.7836q2.3354 0.55288 2.8883-1.7826z" clip-path="url(#a)" fill="#fff" stroke="#fff"/>
<g clip-path="url(#a)">
<defs>
<path id="ag" d="m53.516 70.516v-9.625q-5.6094 2.6875-10.594 4-4.9844 1.3281-9.625 1.3281-8.0469 0-12.422-3.125t-4.375-8.8906q0-4.8438 2.9062-7.3125 2.9062-2.4531 11.016-3.9688l5.9531-1.2188q11.031-2.1094 16.281-7.4062t5.25-14.172q0-10.609-7.1094-16.078-7.0938-5.4688-20.812-5.4688-5.1719 0-11.016 1.1719-5.8281 1.1719-12.078 3.4688v10.156q6-3.3594 11.766-5.0781 5.7656-1.7031 11.328-1.7031 8.4375 0 13.031 3.3125 4.5938 3.3281 4.5938 9.4844 0 5.3594-3.2969 8.3906t-10.812 4.5469l-6.0156 1.1719q-11.031 2.1875-15.969 6.875-4.9219 4.6875-4.9219 13.047 0 9.6719 6.8125 15.234t18.766 5.5625q5.1406 0 10.453-0.9375 5.3281-0.92188 10.891-2.7656z"/>
</defs>
<g transform="translate(142.07 434.8) rotate(-76.681) scale(.08 -.08)">
<use xlink:href="#ag"/>
</g>
</g>
<path d="m188.54 317.77 1.3619 5.3003q0.59728 2.3245 2.9218 1.7272l7.4989-1.9268q2.3245-0.59728 1.7272-2.9218l-1.3619-5.3003q-0.59728-2.3245-2.9218-1.7272l-7.4989 1.9268q-2.3245 0.59728-1.7272 2.9218z" clip-path="url(#a)" fill="#fff" stroke="#fff"/>
<g clip-path="url(#a)">
<g transform="translate(192.48 316.75) rotate(75.59) scale(.08 -.08)">
<use xlink:href="#o"/>
</g>
</g>
<path d="m247.28 432.19 1.8227 4.2248q0.95073 2.2037 3.1544 1.2529l7.1091-3.0671q2.2037-0.95073 1.2529-3.1544l-1.8227-4.2248q-0.95073-2.2037-3.1544-1.2529l-7.1091 3.0671q-2.2037 0.95073-1.2529 3.1544z" clip-path="url(#a)" fill="#fff" stroke="#fff"/>
<g clip-path="url(#a)">
<g transform="translate(251.01 430.58) rotate(66.663) scale(.08 -.08)">
<use xlink:href="#ao"/>
</g>
</g>
<path d="m79.111 640.26v33.808q0 2.4 2.4 2.4h7.7425q2.4 0 2.4-2.4v-33.808q0-2.4-2.4-2.4h-7.7425q-2.4 0-2.4 2.4z" clip-path="url(#a)" fill="#fff" stroke="#fff"/>
<g clip-path="url(#a)">
<g transform="translate(83.175 640.26) rotate(90) scale(.08 -.08)">
<use xlink:href="#l"/>
<use x="44.083984" xlink:href="#d"/>
<use x="105.607422" xlink:href="#h"/>
<use x="144.970703" xlink:href="#k"/>
<use x="242.382812" xlink:href="#j"/>
<use x="270.166016" xlink:href="#g"/>
<use x="333.544922" xlink:href="#f"/>
<use x="394.824219" xlink:href="#i"/>
</g>
</g>
<path d="m94.039 640.26v33.808q0 2.4 2.4 2.4h7.7425q2.4 0 2.4-2.4v-33.808q0-2.4-2.4-2.4h-7.7425q-2.4 0-2.4 2.4z" clip-path="url(#a)" fill="#fff" stroke="#fff"/>
<g clip-path="url(#a)">
<g transform="translate(98.102 640.26) rotate(90) scale(.08 -.08)">
<use xlink:href="#l"/>
<use x="44.083984" xlink:href="#d"/>
<use x="105.607422" xlink:href="#h"/>
<use x="144.970703" xlink:href="#k"/>
<use x="242.382812" xlink:href="#j"/>
<use x="270.166016" xlink:href="#g"/>
<use x="333.544922" xlink:href="#f"/>
<use x="394.824219" xlink:href="#i"/>
</g>
</g>
<path d="m212.7 435.4 0.31802-5.4633q0.13947-2.3959-2.2565-2.5354l-7.7294-0.44993q-2.3959-0.13947-2.5354 2.2565l-0.31801 5.4633q-0.13947 2.3959 2.2565 2.5354l7.7294 0.44993q2.3959 0.13947 2.5354-2.2565z" clip-path="url(#a)" fill="#fff" stroke="#fff"/>
<g clip-path="url(#a)">
<g transform="translate(208.65 435.17) rotate(-86.669) scale(.08 -.08)">
<use xlink:href="#o"/>
</g>
</g>
<path d="m191.84 436.93 1.8353-4.5285q0.90144-2.2243-1.3228-3.1257l-7.1756-2.9081q-2.2243-0.90144-3.1257 1.3228l-1.8353 4.5285q-0.90144 2.2243 1.3228 3.1257l7.1756 2.9081q2.2243 0.90144 3.1257-1.3228z" clip-path="url(#a)" fill="#fff" stroke="#fff"/>
<g clip-path="url(#a)">
<g transform="translate(188.08 435.4) rotate(-67.939) scale(.08 -.08)">
<use xlink:href="#l"/>
</g>
</g>
<path d="m224.6 487.31 0.94247 4.9905q0.44537 2.3583 2.8037 1.9129l7.608-1.4368q2.3583-0.44537 1.9129-2.8037l-0.94246-4.9905q-0.44537-2.3583-2.8037-1.9129l-7.608 1.4368q-2.3583 0.44537-1.9129 2.8037z" clip-path="url(#a)" fill="#fff" stroke="#fff"/>
<g clip-path="url(#a)">
<g transform="translate(228.59 486.56) rotate(79.306) scale(.08 -.08)">
<use xlink:href="#ag"/>
</g>
</g>
<path d="m208.42 485.99 0.25443 5.8495q0.10429 2.3977 2.502 2.2934l7.7352-0.33645q2.3977-0.10429 2.2934-2.502l-0.25443-5.8495q-0.10429-2.3977-2.502-2.2934l-7.7352 0.33645q-2.3977 0.10429-2.2934 2.502z" clip-path="url(#a)" fill="#fff" stroke="#fff"/>
<g clip-path="url(#a)">
<g transform="translate(212.48 485.81) rotate(87.509) scale(.08 -.08)">
<use xlink:href="#w"/>
</g>
</g>
<path d="m320.93 640.26v33.808q0 2.4 2.4 2.4h7.7425q2.4 0 2.4-2.4v-33.808q0-2.4-2.4-2.4h-7.7425q-2.4 0-2.4 2.4z" clip-path="url(#a)" fill="#fff" stroke="#fff"/>
<g clip-path="url(#a)">
<g transform="translate(324.99 640.26) rotate(90) scale(.08 -.08)">
<use xlink:href="#l"/>
<use x="44.083984" xlink:href="#d"/>
<use x="105.607422" xlink:href="#h"/>
<use x="144.970703" xlink:href="#k"/>
<use x="242.382812" xlink:href="#j"/>
<use x="270.166016" xlink:href="#g"/>
<use x="333.544922" xlink:href="#f"/>
<use x="394.824219" xlink:href="#i"/>
</g>
</g>
<path d="m164.25 551.07 3.0463-4.034q1.4463-1.9152-0.4689-3.3616l-6.1786-4.6659q-1.9152-1.4463-3.3616 0.4689l-3.0463 4.034q-1.4463 1.9152 0.4689 3.3616l6.1786 4.6659q1.9152 1.4463 3.3616-0.4689z" clip-path="url(#a)" fill="#fff" stroke="#fff"/>
<g clip-path="url(#a)">
<g transform="translate(161 548.62) rotate(-52.941) scale(.08 -.08)">
<use xlink:href="#aj"/>
</g>
</g>
<path d="m239.16 546.82 3.3665 4.4579q1.4463 1.9152 3.3616 0.4689l6.1786-4.6659q1.9152-1.4463 0.4689-3.3616l-3.3665-4.4579q-1.4463-1.9152-3.3616-0.4689l-6.1786 4.6659q-1.9152 1.4463-0.4689 3.3616z" clip-path="url(#a)" fill="#fff" stroke="#fff"/>
<g clip-path="url(#a)">
<g transform="translate(242.4 544.37) rotate(52.941) scale(.08 -.08)">
<use xlink:href="#t"/>
</g>
</g>
<path d="m157 549.7 1.3579-6.1494q0.51748-2.3435-1.8261-2.861l-7.5604-1.6694q-2.3435-0.51748-2.861 1.8261l-1.3579 6.1494q-0.51748 2.3435 1.8261 2.861l7.5604 1.6694q2.3435 0.51748 2.861-1.8261z" clip-path="url(#a)" fill="#fff" stroke="#fff"/>
<g clip-path="url(#a)">
<defs>
<path id="av" d="m39.406 66.219q-10.75 0-17.078-8.0156-6.3125-8-6.3125-21.828 0-13.766 6.3125-21.781 6.3281-8 17.078-8 10.734 0 17.016 8 6.2812 8.0156 6.2812 21.781 0 13.828-6.2812 21.828-6.2812 8.0156-17.016 8.0156zm13.812-64.906 13-14.203h-11.922l-10.797 11.672q-1.6094-0.09375-2.4688-0.14062-0.84375-0.0625-1.625-0.0625-15.375 0-24.594 10.281-9.2031 10.281-9.2031 27.516 0 17.281 9.2031 27.562 9.2188 10.281 24.594 10.281 15.328 0 24.5-10.281 9.1875-10.281 9.1875-27.562 0-12.688-5.1094-21.734-5.0938-9.0312-14.766-13.328z"/>
</defs>
<g transform="translate(153.04 548.82) rotate(-77.548) scale(.08 -.08)">
<use xlink:href="#av"/>
</g>
</g>
<path d="m169.75 548.25 0.051712-5.8548q0.021197-2.3999-2.3787-2.4211l-7.7422-0.068383q-2.3999-0.021197-2.4211 2.3787l-0.051712 5.8548q-0.021197 2.3999 2.3787 2.4211l7.7422 0.068382q2.3999 0.021197 2.4211-2.3787z" clip-path="url(#a)" fill="#fff" stroke="#fff"/>
<g clip-path="url(#a)">
<g transform="translate(165.68 548.22) rotate(-89.494) scale(.08 -.08)">
<use xlink:href="#w"/>
</g>
</g>
<path d="m170.2 543.95 1.2503 5.4445q0.53716 2.3391 2.8763 1.802l7.5461-1.7329q2.3391-0.53716 1.802-2.8763l-1.2503-5.4445q-0.53716-2.3391-2.8763-1.802l-7.5461 1.7329q-2.3391 0.53716-1.802 2.8763z" clip-path="url(#a)" fill="#fff" stroke="#fff"/>
<g clip-path="url(#a)">
<g transform="translate(174.16 543.04) rotate(77.067) scale(.08 -.08)">
<use xlink:href="#t"/>
</g>
</g>
<path d="m246.29 640.26v33.808q0 2.4 2.4 2.4h7.7425q2.4 0 2.4-2.4v-33.808q0-2.4-2.4-2.4h-7.7425q-2.4 0-2.4 2.4z" clip-path="url(#a)" fill="#fff" stroke="#fff"/>
<g clip-path="url(#a)">
<g transform="translate(250.36 640.26) rotate(90) scale(.08 -.08)">
<use xlink:href="#l"/>
<use x="44.083984" xlink:href="#d"/>
<use x="105.607422" xlink:href="#h"/>
<use x="144.970703" xlink:href="#k"/>
<use x="242.382812" xlink:href="#j"/>
<use x="270.166016" xlink:href="#g"/>
<use x="333.544922" xlink:href="#f"/>
<use x="394.824219" xlink:href="#i"/>
</g>
</g>
<path d="m132.85 640.26v33.808q0 2.4 2.4 2.4h7.7425q2.4 0 2.4-2.4v-33.808q0-2.4-2.4-2.4h-7.7425q-2.4 0-2.4 2.4z" clip-path="url(#a)" fill="#fff" stroke="#fff"/>
<g clip-path="url(#a)">
<g transform="translate(136.91 640.26) rotate(90) scale(.08 -.08)">
<use xlink:href="#l"/>
<use x="44.083984" xlink:href="#d"/>
<use x="105.607422" xlink:href="#h"/>
<use x="144.970703" xlink:href="#k"/>
<use x="242.382812" xlink:href="#j"/>
<use x="270.166016" xlink:href="#g"/>
<use x="333.544922" xlink:href="#f"/>
<use x="394.824219" xlink:href="#i"/>
</g>
</g>
<path d="m156.73 640.26v33.808q0 2.4 2.4 2.4h7.7425q2.4 0 2.4-2.4v-33.808q0-2.4-2.4-2.4h-7.7425q-2.4 0-2.4 2.4z" clip-path="url(#a)" fill="#fff" stroke="#fff"/>
<g clip-path="url(#a)">
<g transform="translate(160.8 640.26) rotate(90) scale(.08 -.08)">
<use xlink:href="#l"/>
<use x="44.083984" xlink:href="#d"/>
<use x="105.607422" xlink:href="#h"/>
<use x="144.970703" xlink:href="#k"/>
<use x="242.382812" xlink:href="#j"/>
<use x="270.166016" xlink:href="#g"/>
<use x="333.544922" xlink:href="#f"/>
<use x="394.824219" xlink:href="#i"/>
</g>
</g>
<path d="m183.6 640.26v33.808q0 2.4 2.4 2.4h7.7425q2.4 0 2.4-2.4v-33.808q0-2.4-2.4-2.4h-7.7425q-2.4 0-2.4 2.4z" clip-path="url(#a)" fill="#fff" stroke="#fff"/>
<g clip-path="url(#a)">
<g transform="translate(187.66 640.26) rotate(90) scale(.08 -.08)">
<use xlink:href="#l"/>
<use x="44.083984" xlink:href="#d"/>
<use x="105.607422" xlink:href="#h"/>
<use x="144.970703" xlink:href="#k"/>
<use x="242.382812" xlink:href="#j"/>
<use x="270.166016" xlink:href="#g"/>
<use x="333.544922" xlink:href="#f"/>
<use x="394.824219" xlink:href="#i"/>
</g>
</g>
<path d="m111.95 640.26v33.808q0 2.4 2.4 2.4h7.7425q2.4 0 2.4-2.4v-33.808q0-2.4-2.4-2.4h-7.7425q-2.4 0-2.4 2.4z" clip-path="url(#a)" fill="#fff" stroke="#fff"/>
<g clip-path="url(#a)">
<g transform="translate(116.01 640.26) rotate(90) scale(.08 -.08)">
<use xlink:href="#l"/>
<use x="44.083984" xlink:href="#d"/>
<use x="105.607422" xlink:href="#h"/>
<use x="144.970703" xlink:href="#k"/>
<use x="242.382812" xlink:href="#j"/>
<use x="270.166016" xlink:href="#g"/>
<use x="333.544922" xlink:href="#f"/>
<use x="394.824219" xlink:href="#i"/>
</g>
</g>
<path d="m282.12 640.26v33.808q0 2.4 2.4 2.4h7.7425q2.4 0 2.4-2.4v-33.808q0-2.4-2.4-2.4h-7.7425q-2.4 0-2.4 2.4z" clip-path="url(#a)" fill="#fff" stroke="#fff"/>
<g clip-path="url(#a)">
<g transform="translate(286.18 640.26) rotate(90) scale(.08 -.08)">
<use xlink:href="#l"/>
<use x="44.083984" xlink:href="#d"/>
<use x="105.607422" xlink:href="#h"/>
<use x="144.970703" xlink:href="#k"/>
<use x="242.382812" xlink:href="#j"/>
<use x="270.166016" xlink:href="#g"/>
<use x="333.544922" xlink:href="#f"/>
<use x="394.824219" xlink:href="#i"/>
</g>
</g>
<path d="m213.45 640.26v33.808q0 2.4 2.4 2.4h7.7425q2.4 0 2.4-2.4v-33.808q0-2.4-2.4-2.4h-7.7425q-2.4 0-2.4 2.4z" clip-path="url(#a)" fill="#fff" stroke="#fff"/>
<g clip-path="url(#a)">
<g transform="translate(217.52 640.26) rotate(90) scale(.08 -.08)">
<use xlink:href="#l"/>
<use x="44.083984" xlink:href="#d"/>
<use x="105.607422" xlink:href="#h"/>
<use x="144.970703" xlink:href="#k"/>
<use x="242.382812" xlink:href="#j"/>
<use x="270.166016" xlink:href="#g"/>
<use x="333.544922" xlink:href="#f"/>
<use x="394.824219" xlink:href="#i"/>
</g>
</g>
<path d="m362.73 640.26v33.808q0 2.4 2.4 2.4h7.7425q2.4 0 2.4-2.4v-33.808q0-2.4-2.4-2.4h-7.7425q-2.4 0-2.4 2.4z" clip-path="url(#a)" fill="#fff" stroke="#fff"/>
<g clip-path="url(#a)">
<g transform="translate(366.79 640.26) rotate(90) scale(.08 -.08)">
<use xlink:href="#l"/>
<use x="44.083984" xlink:href="#d"/>
<use x="105.607422" xlink:href="#h"/>
<use x="144.970703" xlink:href="#k"/>
<use x="242.382812" xlink:href="#j"/>
<use x="270.166016" xlink:href="#g"/>
<use x="333.544922" xlink:href="#f"/>
<use x="394.824219" xlink:href="#i"/>
</g>
</g>
<path d="m1347.9 640.26v33.808q0 2.4 2.4 2.4h7.7425q2.4 0 2.4-2.4v-33.808q0-2.4-2.4-2.4h-7.7425q-2.4 0-2.4 2.4z" clip-path="url(#a)" fill="#fff" stroke="#fff"/>
<g clip-path="url(#a)">
<g transform="translate(1352 640.26) rotate(90) scale(.08 -.08)">
<use xlink:href="#l"/>
<use x="44.083984" xlink:href="#d"/>
<use x="105.607422" xlink:href="#h"/>
<use x="144.970703" xlink:href="#k"/>
<use x="242.382812" xlink:href="#j"/>
<use x="270.166016" xlink:href="#g"/>
<use x="333.544922" xlink:href="#f"/>
<use x="394.824219" xlink:href="#i"/>
</g>
</g>
<defs>
<path id="b" d="m0 8.6603c2.2967 0 4.4997-0.9125 6.1237-2.5365 1.624-1.624 2.5365-3.827 2.5365-6.1237s-0.9125-4.4997-2.5365-6.1237c-1.624-1.624-3.827-2.5365-6.1237-2.5365s-4.4997 0.9125-6.1237 2.5365c-1.624 1.624-2.5365 3.827-2.5365 6.1237s0.9125 4.4997 2.5365 6.1237c1.624 1.624 3.827 2.5365 6.1237 2.5365z"/>
</defs>
<g clip-path="url(#a)" fill="#ffffff" stroke="#ffffff">
<use x="64.484848" y="712.727273" xlink:href="#b"/>
<use x="73.441077" y="712.727273" xlink:href="#b"/>
<use x="85.382716" y="712.727273" xlink:href="#b"/>
<use x="100.309764" y="712.727273" xlink:href="#b"/>
<use x="118.222222" y="712.727273" xlink:href="#b"/>
<use x="139.12009" y="712.727273" xlink:href="#b"/>
<use x="163.003367" y="712.727273" xlink:href="#b"/>
<use x="189.872054" y="712.727273" xlink:href="#b"/>
<use x="219.72615" y="712.727273" xlink:href="#b"/>
<use x="252.565657" y="712.727273" xlink:href="#b"/>
<use x="288.390572" y="712.727273" xlink:href="#b"/>
<use x="327.200898" y="712.727273" xlink:href="#b"/>
<use x="368.996633" y="712.727273" xlink:href="#b"/>
<use x="413.777778" y="712.727273" xlink:href="#b"/>
<use x="461.544332" y="712.727273" xlink:href="#b"/>
<use x="512.296296" y="712.727273" xlink:href="#b"/>
<use x="566.03367" y="712.727273" xlink:href="#b"/>
<use x="622.756453" y="712.727273" xlink:href="#b"/>
<use x="682.464646" y="712.727273" xlink:href="#b"/>
<use x="745.158249" y="712.727273" xlink:href="#b"/>
<use x="810.837262" y="712.727273" xlink:href="#b"/>
<use x="879.501684" y="712.727273" xlink:href="#b"/>
<use x="951.151515" y="712.727273" xlink:href="#b"/>
<use x="1025.786756" y="712.727273" xlink:href="#b"/>
<use x="1103.407407" y="712.727273" xlink:href="#b"/>
<use x="1184.013468" y="712.727273" xlink:href="#b"/>
<use x="1267.604938" y="712.727273" xlink:href="#b"/>
<use x="1354.181818" y="712.727273" xlink:href="#b"/>
<use x="552.960409" y="33.939394" xlink:href="#b"/>
<use x="106.208022" y="148.101081" xlink:href="#b"/>
<use x="413.777778" y="601.604949" xlink:href="#b"/>
<use x="574.616723" y="375.677699" xlink:href="#b"/>
<use x="879.501684" y="601.604949" xlink:href="#b"/>
<use x="974.661616" y="375.677699" xlink:href="#b"/>
<use x="1149.681257" y="488.936791" xlink:href="#b"/>
<use x="1103.407407" y="601.604949" xlink:href="#b"/>
<use x="1184.013468" y="601.604949" xlink:href="#b"/>
<use x="951.151515" y="601.604949" xlink:href="#b"/>
<use x="1025.786756" y="601.604949" xlink:href="#b"/>
<use x="1267.604938" y="601.604949" xlink:href="#b"/>
<use x="461.544332" y="601.604949" xlink:href="#b"/>
<use x="512.296296" y="601.604949" xlink:href="#b"/>
<use x="594.395062" y="488.936791" xlink:href="#b"/>
<use x="730.231201" y="488.936791" xlink:href="#b"/>
<use x="682.464646" y="601.604949" xlink:href="#b"/>
<use x="777.997755" y="601.604949" xlink:href="#b"/>
<use x="566.03367" y="601.604949" xlink:href="#b"/>
<use x="622.756453" y="601.604949" xlink:href="#b"/>
<use x="64.484848" y="601.604949" xlink:href="#b"/>
<use x="73.441077" y="601.604949" xlink:href="#b"/>
<use x="180.698139" y="262.033137" xlink:href="#b"/>
<use x="85.382716" y="601.604949" xlink:href="#b"/>
<use x="100.309764" y="601.604949" xlink:href="#b"/>
<use x="209.899177" y="375.677699" xlink:href="#b"/>
<use x="327.200898" y="601.604949" xlink:href="#b"/>
<use x="203.306397" y="488.936791" xlink:href="#b"/>
<use x="163.998504" y="488.936791" xlink:href="#b"/>
<use x="252.565657" y="601.604949" xlink:href="#b"/>
<use x="139.12009" y="601.604949" xlink:href="#b"/>
<use x="163.003367" y="601.604949" xlink:href="#b"/>
<use x="189.872054" y="601.604949" xlink:href="#b"/>
<use x="118.222222" y="601.604949" xlink:href="#b"/>
<use x="288.390572" y="601.604949" xlink:href="#b"/>
<use x="219.72615" y="601.604949" xlink:href="#b"/>
<use x="368.996633" y="601.604949" xlink:href="#b"/>
<use x="1354.181818" y="601.604949" xlink:href="#b"/>
</g>
<g clip-path="url(#a)">
<defs>
<path id="aw" d="m9.8125 72.906h9.8594v-72.906h-9.8594z"/>
<path id="q" d="m18.312 70.219v-15.531h18.5v-6.9844h-18.5v-29.688q0-6.6875 1.8281-8.5938t7.4531-1.9062h9.2188v-7.5156h-9.2188q-10.406 0-14.359 3.875-3.9531 3.8906-3.9531 14.141v29.688h-6.5938v6.9844h6.5938v15.531z"/>
</defs>
<g transform="translate(61.05 715.49) scale(.1 -.1)">
<use xlink:href="#aw"/>
<use x="29.492188" xlink:href="#q"/>
</g>
</g>
<g clip-path="url(#a)">
<defs>
<path id="r" d="m45.406 46.391v29.594h8.9844v-75.984h-8.9844v8.2031q-2.8281-4.875-7.1562-7.25-4.3125-2.375-10.375-2.375-9.9062 0-16.141 7.9062-6.2188 7.9219-6.2188 20.812t6.2188 20.797q6.2344 7.9062 16.141 7.9062 6.0625 0 10.375-2.375 4.3281-2.3594 7.1562-7.2344zm-30.609-19.094q0-9.9062 4.0781-15.547t11.203-5.6406 11.219 5.6406q4.1094 5.6406 4.1094 15.547t-4.1094 15.547q-4.0938 5.6406-11.219 5.6406t-11.203-5.6406-4.0781-15.547z"/>
<path id="s" d="m30.609 48.391q-7.2188 0-11.422-5.6406t-4.2031-15.453 4.1719-15.453q4.1875-5.6406 11.453-5.6406 7.1875 0 11.375 5.6562 4.2031 5.6719 4.2031 15.438 0 9.7188-4.2031 15.406-4.1875 5.6875-11.375 5.6875zm0 7.6094q11.719 0 18.406-7.625 6.7031-7.6094 6.7031-21.078 0-13.422-6.7031-21.078-6.6875-7.6406-18.406-7.6406-11.766 0-18.438 7.6406-6.6562 7.6562-6.6562 21.078 0 13.469 6.6562 21.078 6.6719 7.625 18.438 7.625z"/>
<path id="v" d="m44.281 53.078v-8.5q-3.7969 1.9531-7.9062 2.9219-4.0938 0.98438-8.5 0.98438-6.6875 0-10.031-2.0469t-3.3438-6.1562q0-3.125 2.3906-4.9062t9.625-3.3906l3.0781-0.6875q9.5625-2.0469 13.594-5.7812t4.0312-10.422q0-7.625-6.0312-12.078-6.0312-4.4375-16.578-4.4375-4.3906 0-9.1562 0.85938t-10.031 2.5625v9.2812q4.9844-2.5938 9.8125-3.8906 4.8281-1.2812 9.5781-1.2812 6.3438 0 9.75 2.1719 3.4219 2.1719 3.4219 6.125 0 3.6562-2.4688 5.6094-2.4531 1.9531-10.812 3.7656l-3.125 0.73438q-8.3438 1.75-12.062 5.3906-3.7031 3.6406-3.7031 9.9844 0 7.7188 5.4688 11.906 5.4688 4.2031 15.531 4.2031 4.9688 0 9.3594-0.73438 4.4062-0.71875 8.1094-2.1875z"/>
</defs>
<g transform="translate(38.197 715.49) scale(.1 -.1)">
<use xlink:href="#r"/>
<use x="63.476562" xlink:href="#d"/>
<use x="125" xlink:href="#k"/>
<use x="222.412109" xlink:href="#s"/>
<use x="283.59375" xlink:href="#g"/>
<use x="346.972656" xlink:href="#v"/>
<use x="399.072266" xlink:href="#q"/>
<use x="438.28125" xlink:href="#h"/>
<use x="479.394531" xlink:href="#f"/>
<use x="540.673828" xlink:href="#q"/>
<use x="579.882812" xlink:href="#d"/>
<use x="641.40625" xlink:href="#r"/>
</g>
</g>
<g clip-path="url(#a)">
<defs>
<path id="ad" d="m54.891 33.016v-33.016h-8.9844v32.719q0 7.7656-3.0312 11.609-3.0312 3.8594-9.0781 3.8594-7.2812 0-11.484-4.6406-4.2031-4.625-4.2031-12.641v-30.906h-9.0312v75.984h9.0312v-29.797q3.2344 4.9375 7.5938 7.375 4.375 2.4375 10.094 2.4375 9.4219 0 14.25-5.8281 4.8438-5.8281 4.8438-17.156z"/>
<path id="aq" d="m4.2031 54.688h8.9844l11.234-42.672 11.172 42.672h10.594l11.234-42.672 11.188 42.672h8.9844l-14.312-54.688h-10.594l-11.766 44.828-11.812-44.828h-10.609z"/>
</defs>
<g transform="translate(75.066 715.49) scale(.1 -.1)">
<use xlink:href="#ad"/>
<use x="63.378906" xlink:href="#s"/>
<use x="124.560547" xlink:href="#aq"/>
</g>
</g>
<g clip-path="url(#a)">
<defs>
<path id="ae" d="m45.406 27.984q0 9.7656-4.0312 15.125-4.0156 5.375-11.297 5.375-7.2188 0-11.25-5.375-4.0312-5.3594-4.0312-15.125 0-9.7188 4.0312-15.094t11.25-5.375q7.2812 0 11.297 5.375 4.0312 5.375 4.0312 15.094zm8.9844-21.203q0-13.953-6.2031-20.766-6.1875-6.8125-18.984-6.8125-4.7344 0-8.9375 0.70312t-8.1562 2.1719v8.7344q3.9531-2.1406 7.8125-3.1562 3.8594-1.0312 7.8594-1.0312 8.8438 0 13.234 4.6094t4.3906 13.938v4.4531q-2.7812-4.8438-7.125-7.2344t-10.406-2.3906q-10.047 0-16.203 7.6562-6.1562 7.6719-6.1562 20.328 0 12.688 6.1562 20.344 6.1562 7.6719 16.203 7.6719 6.0625 0 10.406-2.3906t7.125-7.2188v8.2969h8.9844z"/>
<path id="af" d="m48.781 52.594v-8.4062q-3.8125 2.1094-7.6406 3.1562t-7.7344 1.0469q-8.75 0-13.594-5.5469-4.8281-5.5312-4.8281-15.547t4.8281-15.562q4.8438-5.5312 13.594-5.5312 3.9062 0 7.7344 1.0469t7.6406 3.1562v-8.3125q-3.7656-1.75-7.7969-2.625-4.0156-0.89062-8.5625-0.89062-12.359 0-19.641 7.7656-7.2656 7.7656-7.2656 20.953 0 13.375 7.3438 21.031 7.3594 7.6719 20.156 7.6719 4.1406 0 8.0938-0.85938 3.9531-0.84375 7.6719-2.5469z"/>
</defs>
<g transform="translate(76.671 715.49) scale(.1 -.1)">
<use xlink:href="#d"/>
<use x="61.523438" xlink:href="#g"/>
<use x="124.902344" xlink:href="#d"/>
<use x="186.425781" xlink:href="#h"/>
<use x="225.789062" xlink:href="#ae"/>
<use x="289.265625" xlink:href="#d"/>
<use x="350.789062" xlink:href="#q"/>
<use x="389.998047" xlink:href="#j"/>
<use x="417.78125" xlink:href="#af"/>
</g>
</g>
<g clip-path="url(#a)">
<g transform="translate(110.02 715.49) scale(.1 -.1)">
<use xlink:href="#q"/>
<use x="39.208984" xlink:href="#ad"/>
<use x="102.587891" xlink:href="#d"/>
</g>
</g>
<g clip-path="url(#a)">
<defs>
<path id="u" d="m8.2031 72.906h46.875v-4.2031l-26.469-68.703h-10.297l24.906 64.594h-35.016z"/>
<path id="p" d="m37.797 64.312-24.906-38.922h24.906zm-2.5938 8.5938h12.406v-47.516h10.406v-8.2031h-10.406v-17.188h-9.8125v17.188h-32.906v9.5156z"/>
</defs>
<g transform="translate(132.76 715.49) scale(.1 -.1)">
<use xlink:href="#u"/>
<use x="63.623047" xlink:href="#p"/>
</g>
</g>
<g clip-path="url(#a)">
<defs>
<path id="ap" d="m4.8906 31.391h26.312v-8h-26.312z"/>
</defs>
<g transform="translate(161.2 715.49) scale(.1 -.1)">
<use xlink:href="#ap"/>
</g>
</g>
<g clip-path="url(#a)">
<defs>
<path id="al" d="m32.172-5.0781q-3.7969-9.7656-7.4219-12.734-3.6094-2.9844-9.6562-2.9844h-7.1875v7.5156h5.2812q3.7031 0 5.75 1.7656 2.0625 1.75 4.5469 8.2969l1.6094 4.0938-22.109 53.812h9.5156l17.094-42.766 17.094 42.766h9.5156z"/>
</defs>
<g transform="translate(178.72 715.49) scale(.1 -.1)">
<use xlink:href="#al"/>
<use x="59.179688" xlink:href="#d"/>
<use x="120.703125" xlink:href="#f"/>
<use x="181.982422" xlink:href="#h"/>
</g>
</g>
<g clip-path="url(#a)">
<g transform="translate(217.92 715.49) scale(.1 -.1)">
<use xlink:href="#ap"/>
</g>
</g>
<g clip-path="url(#a)">
<g transform="translate(244.94 715.49) scale(.1 -.1)">
<use xlink:href="#s"/>
<use x="61.181641" xlink:href="#i"/>
<use x="88.964844" xlink:href="#r"/>
</g>
</g>
<g clip-path="url(#a)">
<defs>
<path id="ar" d="m18.109 8.2031v-29h-9.0312v75.484h9.0312v-8.2969q2.8438 4.875 7.1562 7.2344 4.3281 2.375 10.328 2.375 9.9688 0 16.188-7.9062 6.2344-7.9062 6.2344-20.797t-6.2344-20.812q-6.2188-7.9062-16.188-7.9062-6 0-10.328 2.375-4.3125 2.375-7.1562 7.25zm30.578 19.094q0 9.9062-4.0781 15.547t-11.203 5.6406q-7.1406 0-11.219-5.6406t-4.0781-15.547 4.0781-15.547 11.219-5.6406q7.125 0 11.203 5.6406t4.0781 15.547z"/>
<path id="at" d="m48.688 27.297q0 9.9062-4.0781 15.547t-11.203 5.6406q-7.1406 0-11.219-5.6406t-4.0781-15.547 4.0781-15.547 11.219-5.6406q7.125 0 11.203 5.6406t4.0781 15.547zm-30.578 19.094q2.8438 4.875 7.1562 7.2344 4.3281 2.375 10.328 2.375 9.9688 0 16.188-7.9062 6.2344-7.9062 6.2344-20.797t-6.2344-20.812q-6.2188-7.9062-16.188-7.9062-6 0-10.328 2.375-4.3125 2.375-7.1562 7.25v-8.2031h-9.0312v75.984h9.0312z"/>
<path id="an" d="m8.5 21.578v33.109h8.9844v-32.766q0-7.7656 3.0156-11.656 3.0312-3.875 9.0938-3.875 7.2656 0 11.484 4.6406 4.2344 4.6406 4.2344 12.656v31h8.9844v-54.688h-8.9844v8.4062q-3.2656-4.9844-7.5938-7.4062-4.3125-2.4219-10.031-2.4219-9.4219 0-14.312 5.8594-4.875 5.8594-4.875 17.141z"/>
</defs>
<g transform="translate(266.9 715.49) scale(.1 -.1)">
<use xlink:href="#x"/>
<use x="75.195312" xlink:href="#d"/>
<use x="136.71875" xlink:href="#ar"/>
<use x="200.195312" xlink:href="#at"/>
<use x="263.671875" xlink:href="#an"/>
<use x="327.050781" xlink:href="#h"/>
<use x="366.414062" xlink:href="#g"/>
</g>
</g>
<g clip-path="url(#a)">
<g transform="translate(317.44 715.49) scale(.1 -.1)">
<use xlink:href="#aq"/>
<use x="81.787109" xlink:href="#f"/>
<use x="143.066406" xlink:href="#v"/>
</g>
</g>
<g clip-path="url(#a)">
<defs>
<path id="ax" d="m11.719 12.406h10.297v-8.4062l-8-15.625h-6.2969l4 15.625z"/>
</defs>
<g transform="translate(367.41 715.49) scale(.1 -.1)">
<use xlink:href="#ax"/>
</g>
</g>
<g clip-path="url(#a)">
<g transform="translate(408.11 715.49) scale(.1 -.1)">
<use xlink:href="#f"/>
<use x="61.279297" xlink:href="#v"/>
</g>
</g>
<g clip-path="url(#a)">
<g transform="translate(452.69 715.49) scale(.1 -.1)">
<use xlink:href="#v"/>
<use x="52.099609" xlink:href="#ad"/>
<use x="115.478516" xlink:href="#d"/>
</g>
</g>
<g clip-path="url(#a)">
<defs>
<path id="am" d="m2.9844 54.688h9.5156l17.094-45.891 17.094 45.891h9.5156l-20.516-54.688h-12.203z"/>
</defs>
<g transform="translate(498.52 715.49) scale(.1 -.1)">
<use xlink:href="#r"/>
<use x="63.476562" xlink:href="#j"/>
<use x="91.259766" xlink:href="#am"/>
<use x="150.439453" xlink:href="#d"/>
<use x="211.962891" xlink:href="#r"/>
</g>
</g>
<g clip-path="url(#a)">
<defs>
<path id="as" d="m37.109 75.984v-7.4844h-8.5938q-4.8281 0-6.7188-1.9531-1.875-1.9531-1.875-7.0312v-4.8281h14.797v-6.9844h-14.797v-47.703h-9.0312v47.703h-8.5938v6.9844h8.5938v3.8125q0 9.125 4.25 13.297 4.25 4.1875 13.469 4.1875z"/>
</defs>
<g transform="translate(555.37 715.49) scale(.1 -.1)">
<use xlink:href="#as"/>
<use x="35.205078" xlink:href="#an"/>
<use x="98.583984" xlink:href="#i"/>
<use x="126.367188" xlink:href="#i"/>
<use x="154.150391" xlink:href="#al"/>
</g>
</g>
<g clip-path="url(#a)">
<g transform="translate(604.18 715.49) scale(.1 -.1)">
<use xlink:href="#af"/>
<use x="54.980469" xlink:href="#i"/>
<use x="82.763672" xlink:href="#s"/>
<use x="143.945312" xlink:href="#q"/>
<use x="183.154297" xlink:href="#ad"/>
<use x="246.533203" xlink:href="#d"/>
<use x="308.056641" xlink:href="#r"/>
</g>
</g>
<g clip-path="url(#a)">
<g transform="translate(672.89 715.49) scale(.1 -.1)">
<use xlink:href="#j"/>
<use x="27.783203" xlink:href="#g"/>
<use x="91.162109" xlink:href="#q"/>
<use x="130.371094" xlink:href="#s"/>
</g>
</g>
<g clip-path="url(#a)">
<defs>
<path id="ay" d="m14.797 27.297q0-9.9062 4.0781-15.547t11.203-5.6406 11.219 5.6406q4.1094 5.6406 4.1094 15.547t-4.1094 15.547q-4.0938 5.6406-11.219 5.6406t-11.203-5.6406-4.0781-15.547zm30.609-19.094q-2.8281-4.875-7.1562-7.25-4.3125-2.375-10.375-2.375-9.9062 0-16.141 7.9062-6.2188 7.9219-6.2188 20.812t6.2188 20.797q6.2344 7.9062 16.141 7.9062 6.0625 0 10.375-2.375 4.3281-2.3594 7.1562-7.2344v8.2969h8.9844v-75.484h-8.9844z"/>
</defs>
<g transform="translate(727.71 715.49) scale(.1 -.1)">
<use xlink:href="#ag"/>
<use x="63.476562" xlink:href="#ay"/>
<use x="126.953125" xlink:href="#an"/>
<use x="190.332031" xlink:href="#f"/>
<use x="251.611328" xlink:href="#k"/>
</g>
</g>
<g clip-path="url(#a)">
<defs>
<path id="az" d="m9.0781 75.984h9.0312v-44.875l26.812 23.578h11.469l-29-25.578 30.234-29.109h-11.719l-27.797 26.703v-26.703h-9.0312z"/>
</defs>
<g transform="translate(799.2 715.49) scale(.1 -.1)">
<use xlink:href="#ai"/>
<use x="55.712891" xlink:href="#f"/>
<use x="116.992188" xlink:href="#az"/>
<use x="171.277344" xlink:href="#d"/>
</g>
</g>
<g clip-path="url(#a)">
<g transform="translate(870.09 715.49) scale(.1 -.1)">
<use xlink:href="#f"/>
<use x="61.279297" xlink:href="#g"/>
<use x="124.658203" xlink:href="#r"/>
</g>
</g>
<g clip-path="url(#a)">
<g transform="translate(938.88 715.49) scale(.1 -.1)">
<use xlink:href="#ae"/>
<use x="63.476562" xlink:href="#f"/>
<use x="124.755859" xlink:href="#am"/>
<use x="183.935547" xlink:href="#d"/>
</g>
</g>
<g clip-path="url(#a)">
<g transform="translate(1022.7 715.49) scale(.1 -.1)">
<use xlink:href="#f"/>
</g>
</g>
<g clip-path="url(#a)">
<g transform="translate(1090.2 715.49) scale(.1 -.1)">
<use xlink:href="#i"/>
<use x="27.783203" xlink:href="#j"/>
<use x="55.566406" xlink:href="#am"/>
<use x="114.746094" xlink:href="#d"/>
<use x="176.269531" xlink:href="#i"/>
<use x="204.052734" xlink:href="#al"/>
</g>
</g>
<g clip-path="url(#a)">
<g transform="translate(1165.9 715.49) scale(.1 -.1)">
<use xlink:href="#v"/>
<use x="52.099609" xlink:href="#j"/>
<use x="79.882812" xlink:href="#g"/>
<use x="143.261719" xlink:href="#ae"/>
<use x="206.738281" xlink:href="#j"/>
<use x="234.521484" xlink:href="#g"/>
<use x="297.900391" xlink:href="#ae"/>
</g>
</g>
<g clip-path="url(#a)">
<g transform="translate(1235.6 715.49) scale(.1 -.1)">
<use xlink:href="#ar"/>
<use x="63.476562" xlink:href="#d"/>
<use x="125" xlink:href="#h"/>
<use x="166.113281" xlink:href="#as"/>
<use x="201.318359" xlink:href="#s"/>
<use x="262.5" xlink:href="#h"/>
<use x="301.863281" xlink:href="#k"/>
<use x="399.275391" xlink:href="#f"/>
<use x="460.554688" xlink:href="#g"/>
<use x="523.933594" xlink:href="#af"/>
<use x="578.914062" xlink:href="#d"/>
</g>
</g>
<g clip-path="url(#a)">
<defs>
<path id="e" d="m10.688 12.406h10.312v-12.406h-10.312z"/>
</defs>
<g transform="translate(1352.6 715.49) scale(.1 -.1)">
<use xlink:href="#e"/>
</g>
</g>
<g clip-path="url(#a)">
<defs>
<path id="c" d="m12.406 8.2969h16.109v55.625l-17.531-3.5156v8.9844l17.438 3.5156h9.8594v-64.609h16.109v-8.2969h-41.984z"/>
</defs>
<g transform="translate(545.01 36.699) scale(.1 -.1)">
<use xlink:href="#c"/>
<use x="63.623047" xlink:href="#e"/>
<use x="95.410156" xlink:href="#c"/>
</g>
</g>
<g clip-path="url(#a)">
<defs>
<path id="m" d="m19.188 8.2969h34.422v-8.2969h-46.281v8.2969q5.6094 5.8125 15.297 15.594 9.7031 9.7969 12.188 12.641 4.7344 5.3125 6.6094 9 1.8906 3.6875 1.8906 7.25 0 5.8125-4.0781 9.4688-4.0781 3.6719-10.625 3.6719-4.6406 0-9.7969-1.6094-5.1406-1.6094-11-4.8906v9.9688q5.9531 2.3906 11.125 3.6094 5.1875 1.2188 9.4844 1.2188 11.328 0 18.062-5.6719 6.7344-5.6562 6.7344-15.125 0-4.5-1.6875-8.5312-1.6719-4.0156-6.125-9.4844-1.2188-1.4219-7.7656-8.1875-6.5312-6.7656-18.453-18.922z"/>
</defs>
<g transform="translate(98.256 150.86) scale(.1 -.1)">
<use xlink:href="#c"/>
<use x="63.623047" xlink:href="#e"/>
<use x="95.410156" xlink:href="#m"/>
</g>
</g>
<g clip-path="url(#a)">
<g transform="translate(405.83 604.36) scale(.1 -.1)">
<use xlink:href="#c"/>
<use x="63.623047" xlink:href="#e"/>
<use x="95.410156" xlink:href="#p"/>
</g>
</g>
<g clip-path="url(#a)">
<defs>
<path id="ab" d="m10.797 72.906h38.719v-8.3125h-29.688v-17.859q2.1406 0.73438 4.2812 1.0938 2.1562 0.35938 4.3125 0.35938 12.203 0 19.328-6.6875 7.1406-6.6875 7.1406-18.109 0-11.766-7.3281-18.297-7.3281-6.5156-20.656-6.5156-4.5938 0-9.3594 0.78125-4.75 0.78125-9.8281 2.3438v9.9219q4.3906-2.3906 9.0781-3.5625t9.9062-1.1719q8.4531 0 13.375 4.4375 4.9375 4.4375 4.9375 12.062 0 7.6094-4.9375 12.047-4.9219 4.4531-13.375 4.4531-3.9531 0-7.8906-0.875-3.9219-0.875-8.0156-2.7344z"/>
</defs>
<g transform="translate(566.67 378.44) scale(.1 -.1)">
<use xlink:href="#c"/>
<use x="63.623047" xlink:href="#e"/>
<use x="95.410156" xlink:href="#ab"/>
</g>
</g>
<g clip-path="url(#a)">
<defs>
<path id="aa" d="m33.016 40.375q-6.6406 0-10.531-4.5469-3.875-4.5312-3.875-12.438 0-7.8594 3.875-12.438 3.8906-4.5625 10.531-4.5625t10.516 4.5625q3.875 4.5781 3.875 12.438 0 7.9062-3.875 12.438-3.875 4.5469-10.516 4.5469zm19.578 30.922v-8.9844q-3.7188 1.75-7.5 2.6719-3.7812 0.9375-7.5 0.9375-9.7656 0-14.922-6.5938-5.1406-6.5938-5.875-19.922 2.875 4.25 7.2188 6.5156 4.3594 2.2656 9.5781 2.2656 10.984 0 17.359-6.6719 6.375-6.6562 6.375-18.125 0-11.234-6.6406-18.031-6.6406-6.7812-17.672-6.7812-12.656 0-19.344 9.6875-6.6875 9.7031-6.6875 28.109 0 17.281 8.2031 27.562t22.016 10.281q3.7188 0 7.5-0.73438t7.8906-2.1875z"/>
</defs>
<g transform="translate(871.55 604.36) scale(.1 -.1)">
<use xlink:href="#c"/>
<use x="63.623047" xlink:href="#e"/>
<use x="95.410156" xlink:href="#aa"/>
</g>
</g>
<g clip-path="url(#a)">
<g transform="translate(966.71 378.44) scale(.1 -.1)">
<use xlink:href="#c"/>
<use x="63.623047" xlink:href="#e"/>
<use x="95.410156" xlink:href="#u"/>
</g>
</g>
<g clip-path="url(#a)">
<defs>
<path id="z" d="m10.984 1.5156v8.9844q3.7188-1.7656 7.5156-2.6875 3.8125-0.92188 7.4844-0.92188 9.7656 0 14.906 6.5625 5.1562 6.5625 5.8906 19.953-2.8281-4.2031-7.1875-6.4531-4.3438-2.25-9.6094-2.25-10.938 0-17.312 6.6094-6.375 6.625-6.375 18.109 0 11.219 6.6406 18 6.6406 6.7969 17.672 6.7969 12.656 0 19.312-9.7031 6.6719-9.6875 6.6719-28.141 0-17.234-8.1875-27.516-8.1719-10.281-21.984-10.281-3.7188 0-7.5312 0.73438-3.7969 0.73438-7.9062 2.2031zm19.625 30.906q6.6406 0 10.516 4.5312 3.8906 4.5469 3.8906 12.469 0 7.8594-3.8906 12.422-3.875 4.5625-10.516 4.5625t-10.516-4.5625-3.875-12.422q0-7.9219 3.875-12.469 3.875-4.5312 10.516-4.5312z"/>
</defs>
<g transform="translate(1141.7 491.7) scale(.1 -.1)">
<use xlink:href="#c"/>
<use x="63.623047" xlink:href="#e"/>
<use x="95.410156" xlink:href="#z"/>
</g>
</g>
<g clip-path="url(#a)">
<defs>
<path id="ac" d="m31.781 66.406q-7.6094 0-11.453-7.5-3.8281-7.4844-3.8281-22.531 0-14.984 3.8281-22.484 3.8438-7.5 11.453-7.5 7.6719 0 11.5 7.5 3.8438 7.5 3.8438 22.484 0 15.047-3.8438 22.531-3.8281 7.5-11.5 7.5zm0 7.8125q12.266 0 18.734-9.7031 6.4688-9.6875 6.4688-28.141 0-18.406-6.4688-28.109-6.4688-9.6875-18.734-9.6875-12.25 0-18.719 9.6875-6.4688 9.7031-6.4688 28.109 0 18.453 6.4688 28.141 6.4688 9.7031 18.719 9.7031z"/>
</defs>
<g transform="translate(1092.3 604.36) scale(.1 -.1)">
<use xlink:href="#c"/>
<use x="63.623047" xlink:href="#e"/>
<use x="95.410156" xlink:href="#c"/>
<use x="159.033203" xlink:href="#ac"/>
</g>
</g>
<g clip-path="url(#a)">
<g transform="translate(1172.9 604.36) scale(.1 -.1)">
<use xlink:href="#c"/>
<use x="63.623047" xlink:href="#e"/>
<use x="95.410156" xlink:href="#c"/>
<use x="159.033203" xlink:href="#c"/>
</g>
</g>
<g clip-path="url(#a)">
<g transform="translate(940.02 604.36) scale(.1 -.1)">
<use xlink:href="#c"/>
<use x="63.623047" xlink:href="#e"/>
<use x="95.410156" xlink:href="#c"/>
<use x="159.033203" xlink:href="#m"/>
</g>
</g>
<g clip-path="url(#a)">
<defs>
<path id="n" d="m40.578 39.312q7.0781-1.5156 11.047-6.3125 3.9844-4.7812 3.9844-11.812 0-10.781-7.4219-16.703-7.4219-5.9062-21.094-5.9062-4.5781 0-9.4375 0.90625t-10.031 2.7188v9.5156q4.0938-2.3906 8.9688-3.6094 4.8906-1.2188 10.219-1.2188 9.2656 0 14.125 3.6562t4.8594 10.641q0 6.4531-4.5156 10.078-4.5156 3.6406-12.562 3.6406h-8.5v8.1094h8.8906q7.2656 0 11.125 2.9062t3.8594 8.375q0 5.6094-3.9844 8.6094-3.9688 3.0156-11.391 3.0156-4.0625 0-8.7031-0.89062-4.6406-0.875-10.203-2.7188v8.7812q5.625 1.5625 10.531 2.3438t9.25 0.78125q11.234 0 17.766-5.1094 6.5469-5.0938 6.5469-13.781 0-6.0625-3.4688-10.234t-9.8594-5.7812z"/>
</defs>
<g transform="translate(1014.7 604.36) scale(.1 -.1)">
<use xlink:href="#c"/>
<use x="63.623047" xlink:href="#e"/>
<use x="95.410156" xlink:href="#c"/>
<use x="159.033203" xlink:href="#n"/>
</g>
</g>
<g clip-path="url(#a)">
<g transform="translate(1256.5 604.36) scale(.1 -.1)">
<use xlink:href="#c"/>
<use x="63.623047" xlink:href="#e"/>
<use x="95.410156" xlink:href="#c"/>
<use x="159.033203" xlink:href="#p"/>
</g>
</g>
<g clip-path="url(#a)">
<g transform="translate(450.41 604.36) scale(.1 -.1)">
<use xlink:href="#c"/>
<use x="63.623047" xlink:href="#e"/>
<use x="95.410156" xlink:href="#c"/>
<use x="159.033203" xlink:href="#ab"/>
</g>
</g>
<g clip-path="url(#a)">
<g transform="translate(501.16 604.36) scale(.1 -.1)">
<use xlink:href="#c"/>
<use x="63.623047" xlink:href="#e"/>
<use x="95.410156" xlink:href="#c"/>
<use x="159.033203" xlink:href="#aa"/>
</g>
</g>
<g clip-path="url(#a)">
<g transform="translate(583.26 491.7) scale(.1 -.1)">
<use xlink:href="#c"/>
<use x="63.623047" xlink:href="#e"/>
<use x="95.410156" xlink:href="#c"/>
<use x="159.033203" xlink:href="#u"/>
</g>
</g>
<g clip-path="url(#a)">
<defs>
<path id="ak" d="m31.781 34.625q-7.0312 0-11.062-3.7656-4.0156-3.7656-4.0156-10.344 0-6.5938 4.0156-10.359 4.0312-3.7656 11.062-3.7656t11.078 3.7812q4.0625 3.7969 4.0625 10.344 0 6.5781-4.0312 10.344-4.0156 3.7656-11.109 3.7656zm-9.8594 4.1875q-6.3438 1.5625-9.8906 5.9062-3.5312 4.3594-3.5312 10.609 0 8.7344 6.2188 13.812 6.2344 5.0781 17.062 5.0781 10.891 0 17.094-5.0781t6.2031-13.812q0-6.25-3.5469-10.609-3.5312-4.3438-9.8281-5.9062 7.125-1.6562 11.094-6.5 3.9844-4.8281 3.9844-11.797 0-10.609-6.4688-16.281-6.4688-5.6562-18.531-5.6562-12.047 0-18.531 5.6562-6.4688 5.6719-6.4688 16.281 0 6.9688 4 11.797 4.0156 4.8438 11.141 6.5zm-3.6094 15.578q0-5.6562 3.5312-8.8281 3.5469-3.1719 9.9375-3.1719 6.3594 0 9.9375 3.1719 3.5938 3.1719 3.5938 8.8281 0 5.6719-3.5938 8.8438-3.5781 3.1719-9.9375 3.1719-6.3906 0-9.9375-3.1719-3.5312-3.1719-3.5312-8.8438z"/>
</defs>
<g transform="translate(719.1 491.7) scale(.1 -.1)">
<use xlink:href="#c"/>
<use x="63.623047" xlink:href="#e"/>
<use x="95.410156" xlink:href="#c"/>
<use x="159.033203" xlink:href="#ak"/>
</g>
</g>
<g clip-path="url(#a)">
<g transform="translate(671.33 604.36) scale(.1 -.1)">
<use xlink:href="#c"/>
<use x="63.623047" xlink:href="#e"/>
<use x="95.410156" xlink:href="#c"/>
<use x="159.033203" xlink:href="#z"/>
</g>
</g>
<g clip-path="url(#a)">
<g transform="translate(766.86 604.36) scale(.1 -.1)">
<use xlink:href="#c"/>
<use x="63.623047" xlink:href="#e"/>
<use x="95.410156" xlink:href="#m"/>
<use x="159.033203" xlink:href="#ac"/>
</g>
</g>
<g clip-path="url(#a)">
<g transform="translate(554.9 604.36) scale(.1 -.1)">
<use xlink:href="#c"/>
<use x="63.623047" xlink:href="#e"/>
<use x="95.410156" xlink:href="#m"/>
<use x="159.033203" xlink:href="#c"/>
</g>
</g>
<g clip-path="url(#a)">
<g transform="translate(611.62 604.36) scale(.1 -.1)">
<use xlink:href="#c"/>
<use x="63.623047" xlink:href="#e"/>
<use x="95.410156" xlink:href="#m"/>
<use x="159.033203" xlink:href="#m"/>
</g>
</g>
<g clip-path="url(#a)">
<g transform="translate(53.352 604.36) scale(.1 -.1)">
<use xlink:href="#c"/>
<use x="63.623047" xlink:href="#e"/>
<use x="95.410156" xlink:href="#m"/>
<use x="159.033203" xlink:href="#n"/>
</g>
</g>
<g clip-path="url(#a)">
<g transform="translate(62.308 604.36) scale(.1 -.1)">
<use xlink:href="#c"/>
<use x="63.623047" xlink:href="#e"/>
<use x="95.410156" xlink:href="#m"/>
<use x="159.033203" xlink:href="#p"/>
</g>
</g>
<g clip-path="url(#a)">
<g transform="translate(169.57 264.79) scale(.1 -.1)">
<use xlink:href="#c"/>
<use x="63.623047" xlink:href="#e"/>
<use x="95.410156" xlink:href="#m"/>
<use x="159.033203" xlink:href="#ab"/>
</g>
</g>
<g clip-path="url(#a)">
<g transform="translate(74.25 604.36) scale(.1 -.1)">
<use xlink:href="#c"/>
<use x="63.623047" xlink:href="#e"/>
<use x="95.410156" xlink:href="#m"/>
<use x="159.033203" xlink:href="#aa"/>
</g>
</g>
<g clip-path="url(#a)">
<g transform="translate(89.177 604.36) scale(.1 -.1)">
<use xlink:href="#c"/>
<use x="63.623047" xlink:href="#e"/>
<use x="95.410156" xlink:href="#m"/>
<use x="159.033203" xlink:href="#u"/>
</g>
</g>
<g clip-path="url(#a)">
<g transform="translate(198.77 378.44) scale(.1 -.1)">
<use xlink:href="#c"/>
<use x="63.623047" xlink:href="#e"/>
<use x="95.410156" xlink:href="#m"/>
<use x="159.033203" xlink:href="#ak"/>
</g>
</g>
<g clip-path="url(#a)">
<g transform="translate(316.07 604.36) scale(.1 -.1)">
<use xlink:href="#c"/>
<use x="63.623047" xlink:href="#e"/>
<use x="95.410156" xlink:href="#m"/>
<use x="159.033203" xlink:href="#z"/>
</g>
</g>
<g clip-path="url(#a)">
<g transform="translate(192.17 491.7) scale(.1 -.1)">
<use xlink:href="#c"/>
<use x="63.623047" xlink:href="#e"/>
<use x="95.410156" xlink:href="#n"/>
<use x="159.033203" xlink:href="#ac"/>
</g>
</g>
<g clip-path="url(#a)">
<g transform="translate(152.87 491.7) scale(.1 -.1)">
<use xlink:href="#c"/>
<use x="63.623047" xlink:href="#e"/>
<use x="95.410156" xlink:href="#n"/>
<use x="159.033203" xlink:href="#c"/>
</g>
</g>
<g clip-path="url(#a)">
<g transform="translate(241.43 604.36) scale(.1 -.1)">
<use xlink:href="#c"/>
<use x="63.623047" xlink:href="#e"/>
<use x="95.410156" xlink:href="#n"/>
<use x="159.033203" xlink:href="#n"/>
</g>
</g>
<g clip-path="url(#a)">
<g transform="translate(127.99 604.36) scale(.1 -.1)">
<use xlink:href="#c"/>
<use x="63.623047" xlink:href="#e"/>
<use x="95.410156" xlink:href="#n"/>
<use x="159.033203" xlink:href="#p"/>
</g>
</g>
<g clip-path="url(#a)">
<g transform="translate(151.87 604.36) scale(.1 -.1)">
<use xlink:href="#c"/>
<use x="63.623047" xlink:href="#e"/>
<use x="95.410156" xlink:href="#n"/>
<use x="159.033203" xlink:href="#ab"/>
</g>
</g>
<g clip-path="url(#a)">
<g transform="translate(178.74 604.36) scale(.1 -.1)">
<use xlink:href="#c"/>
<use x="63.623047" xlink:href="#e"/>
<use x="95.410156" xlink:href="#n"/>
<use x="159.033203" xlink:href="#aa"/>
</g>
</g>
<g clip-path="url(#a)">
<g transform="translate(107.09 604.36) scale(.1 -.1)">
<use xlink:href="#c"/>
<use x="63.623047" xlink:href="#e"/>
<use x="95.410156" xlink:href="#n"/>
<use x="159.033203" xlink:href="#u"/>
</g>
</g>
<g clip-path="url(#a)">
<g transform="translate(277.26 604.36) scale(.1 -.1)">
<use xlink:href="#c"/>
<use x="63.623047" xlink:href="#e"/>
<use x="95.410156" xlink:href="#n"/>
<use x="159.033203" xlink:href="#ak"/>
</g>
</g>
<g clip-path="url(#a)">
<g transform="translate(208.59 604.36) scale(.1 -.1)">
<use xlink:href="#c"/>
<use x="63.623047" xlink:href="#e"/>
<use x="95.410156" xlink:href="#n"/>
<use x="159.033203" xlink:href="#z"/>
</g>
</g>
<g clip-path="url(#a)">
<g transform="translate(357.86 604.36) scale(.1 -.1)">
<use xlink:href="#c"/>
<use x="63.623047" xlink:href="#e"/>
<use x="95.410156" xlink:href="#p"/>
<use x="159.033203" xlink:href="#ac"/>
</g>
</g>
<g clip-path="url(#a)">
<g transform="translate(1343 604.36) scale(.1 -.1)">
<use xlink:href="#c"/>
<use x="63.623047" xlink:href="#e"/>
<use x="95.410156" xlink:href="#p"/>
<use x="159.033203" xlink:href="#c"/>
</g>
</g>
<defs>
<clipPath id="a">
<rect width="1418.7" height="746.67"/>
</clipPath>
</defs>
</svg>
