<?xml version="1.0" encoding="UTF-8"?>
<!DOCTYPE svg  PUBLIC '-//W3C//DTD SVG 1.1//EN'  'http://www.w3.org/Graphics/SVG/1.1/DTD/svg11.dtd'>
<svg width="1672pt" height="880pt" version="1.1" viewBox="0 0 1672 880" xmlns="http://www.w3.org/2000/svg" xmlns:xlink="http://www.w3.org/1999/xlink">
<defs>
<style type="text/css">*{stroke-linecap:butt;stroke-linejoin:round;}</style>
</defs>
<path d="m0 880h1672v-880h-1672z" fill="#fff"/>
<g fill="none" stroke="#000">
<path d="m160.89 40-84.886 687.92" clip-path="url(#a)"/>
<path d="m160.89 40-49.381 460.04" clip-path="url(#a)"/>
<path d="m160.89 40 134.27 115.34" clip-path="url(#a)"/>
<path d="m76 727.92v112.08" clip-path="url(#a)"/>
<path d="m111.51 500.04 28.468 227.88" clip-path="url(#a)" stroke-dasharray="3.7,1.6"/>
<path d="m111.51 500.04-27.828 227.88" clip-path="url(#a)"/>
<path d="m111.51 500.04-11.195 114.24" clip-path="url(#a)"/>
<path d="m111.51 500.04 10.556 227.88" clip-path="url(#a)"/>
<path d="m295.15 155.34-155.18 572.57" clip-path="url(#a)"/>
<path d="m295.15 155.34-134.71 572.57" clip-path="url(#a)"/>
<path d="m295.15 155.34-98.883 344.69" clip-path="url(#a)"/>
<path d="m295.15 155.34 473.95 115.15" clip-path="url(#a)"/>
<path d="m295.15 155.34-57.941 572.57" clip-path="url(#a)"/>
<path d="m295.15 155.34-27.234 572.57" clip-path="url(#a)"/>
<path d="m139.97 727.92v112.08" clip-path="url(#a)"/>
<path d="m160.44 727.92v112.08" clip-path="url(#a)"/>
<path d="m196.27 500.04v114.24" clip-path="url(#a)"/>
<path d="m769.1 270.49-367.66 114.92" clip-path="url(#a)"/>
<path d="m769.1 270.49 298.2 114.92" clip-path="url(#a)"/>
<path d="m769.1 270.49 69.461 457.43" clip-path="url(#a)"/>
<path d="m401.44 385.41-100.25 342.51" clip-path="url(#a)"/>
<path d="m401.44 385.41-64.428 342.51" clip-path="url(#a)"/>
<path d="m401.44 385.41-26.044 342.51" clip-path="url(#a)"/>
<path d="m401.44 385.41 14.899 342.51" clip-path="url(#a)"/>
<path d="m401.44 385.41 175.83 114.63" clip-path="url(#a)"/>
<path d="m1067.3 385.41 528.7 114.63" clip-path="url(#a)"/>
<path d="m1067.3 385.41-164.77 342.51" clip-path="url(#a)"/>
<path d="m1067.3 385.41-98.234 342.51" clip-path="url(#a)"/>
<path d="m1067.3 385.41-29.143 342.51" clip-path="url(#a)"/>
<path d="m1067.3 385.41 292.14 114.63" clip-path="url(#a)"/>
<path d="m902.53 727.92v112.08" clip-path="url(#a)"/>
<path d="m969.06 727.92v112.08" clip-path="url(#a)"/>
<path d="m1038.2 727.92v112.08" clip-path="url(#a)"/>
<path d="m1359.4 500.04-249.64 227.88" clip-path="url(#a)"/>
<path d="m1359.4 500.04-18.481 114.24" clip-path="url(#a)"/>
<path d="m1359.4 500.04 62.551 227.88" clip-path="url(#a)"/>
<path d="m1359.4 500.04-175.43 227.88" clip-path="url(#a)"/>
<path d="m1359.4 500.04 147 227.88" clip-path="url(#a)"/>
<path d="m1359.4 500.04 234 227.88" clip-path="url(#a)"/>
<path d="m1109.8 727.92v112.08" clip-path="url(#a)"/>
<path d="m1341 614.27 81.033 113.64" clip-path="url(#a)" stroke-dasharray="3.7,1.6"/>
<path d="m1341 614.27-80.18 113.64" clip-path="url(#a)"/>
<path d="m1341 614.27-0.85297 113.64" clip-path="url(#a)"/>
<path d="m1422 727.92v112.08" clip-path="url(#a)"/>
<path d="m1260.8 727.92v112.08" clip-path="url(#a)"/>
<path d="m301.19 727.92v112.08" clip-path="url(#a)"/>
<path d="m337.01 727.92v112.08" clip-path="url(#a)"/>
<path d="m375.39 727.92v112.08" clip-path="url(#a)"/>
<path d="m416.34 727.92v112.08" clip-path="url(#a)"/>
<path d="m577.26 500.04 199.88 114.24" clip-path="url(#a)"/>
<path d="m577.26 500.04-117.43 227.88" clip-path="url(#a)"/>
<path d="m577.26 500.04 34.403 114.24" clip-path="url(#a)"/>
<path d="m577.26 500.04 83.023 114.24" clip-path="url(#a)"/>
<path d="m459.84 727.92v112.08" clip-path="url(#a)"/>
<path d="m611.67 614.27-105.77 113.64" clip-path="url(#a)"/>
<path d="m611.67 614.27-57.149 113.64" clip-path="url(#a)"/>
<path d="m611.67 614.27 162.92 113.64" clip-path="url(#a)"/>
<path d="m660.29 614.27-54.59 113.64" clip-path="url(#a)"/>
<path d="m660.29 614.27-0.85298 113.64" clip-path="url(#a)"/>
<path d="m660.29 614.27 55.443 113.64" clip-path="url(#a)"/>
<path d="m605.7 727.92v112.08" clip-path="url(#a)"/>
<path d="m659.43 727.92v112.08" clip-path="url(#a)"/>
<path d="m715.73 727.92v112.08" clip-path="url(#a)"/>
<path d="m505.9 727.92v112.08" clip-path="url(#a)"/>
<path d="m554.52 727.92v112.08" clip-path="url(#a)"/>
<path d="m774.59 727.92v112.08" clip-path="url(#a)"/>
<path d="m196.27 614.27-12.795 113.64" clip-path="url(#a)"/>
<path d="m196.27 614.27 12.795 113.64" clip-path="url(#a)"/>
<path d="m183.47 727.92v112.08" clip-path="url(#a)"/>
<path d="m209.06 727.92v112.08" clip-path="url(#a)"/>
<path d="m83.677 727.92v112.08" clip-path="url(#a)"/>
<path d="m100.31 614.27-6.3973 113.64" clip-path="url(#a)"/>
<path d="m100.31 614.27 6.3973 113.64" clip-path="url(#a)"/>
<path d="m122.06 727.92v112.08" clip-path="url(#a)"/>
<path d="m93.912 727.92v112.08" clip-path="url(#a)"/>
<path d="m106.71 727.92v112.08" clip-path="url(#a)"/>
<path d="m237.21 727.92v112.08" clip-path="url(#a)"/>
<path d="m267.92 727.92v112.08" clip-path="url(#a)"/>
<path d="m838.56 727.92v112.08" clip-path="url(#a)"/>
<path d="m1184 727.92v112.08" clip-path="url(#a)"/>
<path d="m1340.1 727.92v112.08" clip-path="url(#a)"/>
<path d="m1506.4 727.92v112.08" clip-path="url(#a)"/>
<path d="m1593.4 727.92v112.08" clip-path="url(#a)"/>
</g>
<path d="m124.39 386.94 0.5459-4.4239q0.29392-2.3819-2.088-2.6759l-7.6842-0.9482q-2.3819-0.29392-2.6759 2.088l-0.5459 4.4239q-0.29392 2.3819 2.088 2.6759l7.6842 0.9482q2.3819 0.29392 2.6759-2.088z" clip-path="url(#a)" fill="#fff" stroke="#fff"/>
<g clip-path="url(#a)">
<defs>
<path id="ai" d="m9.8125 72.906h9.8594v-64.609h35.5v-8.2969h-45.359z"/>
</defs>
<g transform="translate(120.36 386.44) rotate(-82.966) scale(.08 -.08)">
<use xlink:href="#ai"/>
</g>
</g>
<path d="m142.11 273.68 0.6421-5.9819q0.25615-2.3863-2.1301-2.6424l-7.6983-0.82634q-2.3863-0.25615-2.6424 2.1301l-0.6421 5.9819q-0.25615 2.3863 2.1301 2.6424l7.6983 0.82634q2.3863 0.25615 2.6424-2.1301z" clip-path="url(#a)" fill="#fff" stroke="#fff"/>
<g clip-path="url(#a)">
<defs>
<path id="z" d="m9.8125 72.906h9.8594v-29.891h35.844v29.891h9.8594v-72.906h-9.8594v34.719h-35.844v-34.719h-9.8594z"/>
</defs>
<g transform="translate(138.07 273.24) rotate(-83.873) scale(.08 -.08)">
<use xlink:href="#z"/>
</g>
</g>
<path d="m221.65 100.47 4.5636 3.9203q1.8205 1.5639 3.3844-0.2566l5.0452-5.873q1.5639-1.8205-0.2566-3.3844l-4.5636-3.9203q-1.8205-1.5639-3.3844 0.2566l-5.0452 5.873q-1.5639 1.8205 0.2566 3.3844z" clip-path="url(#a)" fill="#fff" stroke="#fff"/>
<g clip-path="url(#a)">
<g transform="translate(224.3 97.385) rotate(40.664) scale(.08 -.08)">
<use xlink:href="#z"/>
</g>
</g>
<path d="m69.729 767.05v33.808q0 2.4 2.4 2.4h7.7425q2.4 0 2.4-2.4v-33.808q0-2.4-2.4-2.4h-7.7425q-2.4 0-2.4 2.4z" clip-path="url(#a)" fill="#fff" stroke="#fff"/>
<g clip-path="url(#a)">
<defs>
<path id="k" d="m-0.29688 72.906h61.672v-8.3125h-25.875v-64.594h-9.9062v64.594h-25.891z"/>
<path id="e" d="m56.203 29.594v-4.3906h-41.312q0.59375-9.2812 5.5938-14.141t13.938-4.8594q5.1719 0 10.031 1.2656t9.6562 3.8125v-8.5q-4.8438-2.0469-9.9219-3.125t-10.297-1.0781q-13.094 0-20.734 7.6094-7.6406 7.625-7.6406 20.625 0 13.422 7.25 21.297 7.25 7.8906 19.562 7.8906 11.031 0 17.453-7.1094 6.4219-7.0938 6.4219-19.297zm-8.9844 2.6406q-0.09375 7.3594-4.125 11.75-4.0312 4.4062-10.672 4.4062-7.5156 0-12.031-4.25t-5.2031-11.969z"/>
<path id="i" d="m41.109 46.297q-1.5156 0.875-3.2969 1.2812-1.7812 0.42188-3.9219 0.42188-7.625 0-11.703-4.9531t-4.0781-14.234v-28.812h-9.0312v54.688h9.0312v-8.5q2.8438 4.9844 7.375 7.3906 4.5469 2.4219 11.047 2.4219 0.92188 0 2.0469-0.125 1.125-0.10938 2.4844-0.35938z"/>
<path id="l" d="m52 44.188q3.375 6.0625 8.0625 8.9375t11.031 2.875q8.5469 0 13.188-5.9844 4.6406-5.9688 4.6406-17v-33.016h-9.0312v32.719q0 7.8594-2.7969 11.656-2.7812 3.8125-8.4844 3.8125-6.9844 0-11.047-4.6406-4.0469-4.625-4.0469-12.641v-30.906h-9.0312v32.719q0 7.9062-2.7812 11.688t-8.5938 3.7812q-6.8906 0-10.953-4.6562-4.0469-4.6562-4.0469-12.625v-30.906h-9.0312v54.688h9.0312v-8.5q3.0781 5.0312 7.375 7.4219t10.203 2.3906q5.9688 0 10.141-3.0312 4.1719-3.0156 6.1719-8.7812z"/>
<path id="h" d="m9.4219 54.688h8.9844v-54.688h-8.9844zm0 21.297h8.9844v-11.391h-8.9844z"/>
<path id="g" d="m54.891 33.016v-33.016h-8.9844v32.719q0 7.7656-3.0312 11.609-3.0312 3.8594-9.0781 3.8594-7.2812 0-11.484-4.6406-4.2031-4.625-4.2031-12.641v-30.906h-9.0312v54.688h9.0312v-8.5q3.2344 4.9375 7.5938 7.375 4.375 2.4375 10.094 2.4375 9.4219 0 14.25-5.8281 4.8438-5.8281 4.8438-17.156z"/>
<path id="f" d="m34.281 27.484q-10.891 0-15.094-2.4844t-4.2031-8.5q0-4.7812 3.1562-7.5938 3.1562-2.7969 8.5625-2.7969 7.4844 0 12 5.2969t4.5156 14.078v2zm17.922 3.7188v-31.203h-8.9844v8.2969q-3.0781-4.9688-7.6719-7.3438t-11.234-2.375q-8.3906 0-13.359 4.7188-4.9531 4.7188-4.9531 12.625 0 9.2188 6.1719 13.906 6.1875 4.6875 18.438 4.6875h12.609v0.89062q0 6.2031-4.0781 9.5938t-11.453 3.3906q-4.6875 0-9.1406-1.125-4.4375-1.125-8.5312-3.375v8.3125q4.9219 1.9062 9.5625 2.8438 4.6406 0.95312 9.0312 0.95312 11.875 0 17.734-6.1562 5.8594-6.1406 5.8594-18.641z"/>
<path id="j" d="m9.4219 75.984h8.9844v-75.984h-8.9844z"/>
</defs>
<g transform="translate(73.792 767.05) rotate(90) scale(.08 -.08)">
<use xlink:href="#k"/>
<use x="44.083984" xlink:href="#e"/>
<use x="105.607422" xlink:href="#i"/>
<use x="144.970703" xlink:href="#l"/>
<use x="242.382812" xlink:href="#h"/>
<use x="270.166016" xlink:href="#g"/>
<use x="333.544922" xlink:href="#f"/>
<use x="394.824219" xlink:href="#j"/>
</g>
</g>
<path d="m119.18 612.04 0.67838 5.4303q0.29751 2.3815 2.679 2.084l7.6828-0.95977q2.3815-0.29751 2.084-2.679l-0.67838-5.4303q-0.29751-2.3815-2.679-2.084l-7.6828 0.95977q-2.3815 0.29751-2.084 2.679z" clip-path="url(#a)" fill="#fff" stroke="#fff"/>
<g clip-path="url(#a)">
<defs>
<path id="o" d="m34.188 63.188-13.391-36.281h26.812zm-5.5781 9.7188h11.188l27.781-72.906h-10.25l-6.6406 18.703h-32.859l-6.6406-18.703h-10.406z"/>
</defs>
<g transform="translate(123.21 611.53) rotate(82.879) scale(.08 -.08)">
<use xlink:href="#o"/>
</g>
</g>
<path d="m103.52 617.13 0.58472-4.7882q0.29092-2.3823-2.0914-2.6732l-7.6854-0.93852q-2.3823-0.29092-2.6732 2.0914l-0.58472 4.7882q-0.29092 2.3823 2.0914 2.6732l7.6854 0.93852q2.3823 0.29092 2.6732-2.0914z" clip-path="url(#a)" fill="#fff" stroke="#fff"/>
<g clip-path="url(#a)">
<defs>
<path id="x" d="m19.672 64.797v-27.391h12.406q6.8906 0 10.641 3.5625 3.7656 3.5625 3.7656 10.156 0 6.5469-3.7656 10.109-3.75 3.5625-10.641 3.5625zm-9.8594 8.1094h22.266q12.266 0 18.531-5.5469 6.2812-5.5469 6.2812-16.234 0-10.797-6.2812-16.312-6.2656-5.5156-18.531-5.5156h-12.406v-29.297h-9.8594z"/>
</defs>
<g transform="translate(99.49 616.64) rotate(-83.038) scale(.08 -.08)">
<use xlink:href="#x"/>
</g>
</g>
<path d="m111.88 560.49 0.53374-5.4464q0.23408-2.3886-2.1545-2.6226l-7.7056-0.75514q-2.3886-0.23408-2.6226 2.1545l-0.53374 5.4464q-0.23408 2.3886 2.1545 2.6226l7.7056 0.75514q2.3886 0.23408 2.6226-2.1545z" clip-path="url(#a)" fill="#fff" stroke="#fff"/>
<g clip-path="url(#a)">
<g transform="translate(107.84 560.09) rotate(-84.403) scale(.08 -.08)">
<use xlink:href="#o"/>
</g>
</g>
<path d="m110.38 611.34 0.27092 5.8487q0.11105 2.3974 2.5085 2.2864l7.7342-0.35825q2.3974-0.11105 2.2864-2.5085l-0.27092-5.8487q-0.11105-2.3974-2.5085-2.2864l-7.7342 0.35825q-2.3974 0.11105-2.2864 2.5085z" clip-path="url(#a)" fill="#fff" stroke="#fff"/>
<g clip-path="url(#a)">
<defs>
<path id="s" d="m8.6875 72.906h9.9219v-44.297q0-11.719 4.2344-16.875 4.25-5.1406 13.781-5.1406 9.4688 0 13.719 5.1406 4.25 5.1562 4.25 16.875v44.297h9.9062v-45.516q0-14.25-7.0625-21.531-7.0469-7.2812-20.812-7.2812-13.828 0-20.891 7.2812-7.0469 7.2812-7.0469 21.531z"/>
</defs>
<g transform="translate(114.44 611.15) rotate(87.348) scale(.08 -.08)">
<use xlink:href="#s"/>
</g>
</g>
<path d="m222.9 445.91 1.4315-5.282q0.6278-2.3164-1.6886-2.9442l-7.4729-2.0253q-2.3164-0.6278-2.9442 1.6886l-1.4315 5.282q-0.6278 2.3164 1.6886 2.9442l7.4729 2.0253q2.3164 0.6278 2.9442-1.6886z" clip-path="url(#a)" fill="#fff" stroke="#fff"/>
<g clip-path="url(#a)">
<g transform="translate(218.98 444.85) rotate(-74.836) scale(.08 -.08)">
<use xlink:href="#o"/>
</g>
</g>
<path d="m233.35 445.41 1.1047-4.6955q0.54964-2.3362-1.7866-2.8859l-7.5367-1.7731q-2.3362-0.54964-2.8859 1.7866l-1.1047 4.6955q-0.54964 2.3362 1.7866 2.8859l7.5367 1.7731q2.3362 0.54964 2.8858-1.7866z" clip-path="url(#a)" fill="#fff" stroke="#fff"/>
<g clip-path="url(#a)">
<g transform="translate(229.4 444.48) rotate(-76.761) scale(.08 -.08)">
<use xlink:href="#x"/>
</g>
</g>
<path d="m250.98 332.05 1.509-5.2603q0.6618-2.307-1.6451-2.9688l-7.4423-2.135q-2.307-0.6618-2.9688 1.6451l-1.509 5.2603q-0.6618 2.307 1.6451 2.9688l7.4423 2.135q2.307 0.6618 2.9688-1.6451z" clip-path="url(#a)" fill="#fff" stroke="#fff"/>
<g clip-path="url(#a)">
<g transform="translate(247.08 330.93) rotate(-73.993) scale(.08 -.08)">
<use xlink:href="#o"/>
</g>
</g>
<path d="m527.99 218.36 5.3178 1.292q2.3322 0.56662 2.8988-1.7655l1.8279-7.5236q0.56662-2.3322-1.7655-2.8988l-5.3178-1.292q-2.3322-0.56662-2.8988 1.7655l-1.8279 7.5236q-0.56662 2.3322 1.7655 2.8988z" clip-path="url(#a)" fill="#fff" stroke="#fff"/>
<g clip-path="url(#a)">
<g transform="translate(528.95 214.42) rotate(13.656) scale(.08 -.08)">
<use xlink:href="#o"/>
</g>
</g>
<path d="m272.13 445.17 0.58948-5.8253q0.24163-2.3878-2.1462-2.6294l-7.7032-0.77951q-2.3878-0.24163-2.6294 2.1462l-0.58948 5.8252q-0.24163 2.3878 2.1462 2.6294l7.7032 0.77951q2.3878 0.24163 2.6294-2.1462z" clip-path="url(#a)" fill="#fff" stroke="#fff"/>
<g clip-path="url(#a)">
<g transform="translate(268.08 444.76) rotate(-84.222) scale(.08 -.08)">
<use xlink:href="#s"/>
</g>
</g>
<path d="m287.66 444.85 0.27817-5.8484q0.11402-2.3973-2.2833-2.5113l-7.7338-0.36784q-2.3973-0.11402-2.5113 2.2833l-0.27817 5.8484q-0.11402 2.3973 2.2833 2.5113l7.7338 0.36784q2.3973 0.11402 2.5113-2.2833z" clip-path="url(#a)" fill="#fff" stroke="#fff"/>
<g clip-path="url(#a)">
<g transform="translate(283.6 444.66) rotate(-87.277) scale(.08 -.08)">
<use xlink:href="#s"/>
</g>
</g>
<path d="m133.7 767.05v33.808q0 2.4 2.4 2.4h7.7425q2.4 0 2.4-2.4v-33.808q0-2.4-2.4-2.4h-7.7425q-2.4 0-2.4 2.4z" clip-path="url(#a)" fill="#fff" stroke="#fff"/>
<g clip-path="url(#a)">
<g transform="translate(137.77 767.05) rotate(90) scale(.08 -.08)">
<use xlink:href="#k"/>
<use x="44.083984" xlink:href="#e"/>
<use x="105.607422" xlink:href="#i"/>
<use x="144.970703" xlink:href="#l"/>
<use x="242.382812" xlink:href="#h"/>
<use x="270.166016" xlink:href="#g"/>
<use x="333.544922" xlink:href="#f"/>
<use x="394.824219" xlink:href="#j"/>
</g>
</g>
<path d="m154.17 767.05v33.808q0 2.4 2.4 2.4h7.7425q2.4 0 2.4-2.4v-33.808q0-2.4-2.4-2.4h-7.7425q-2.4 0-2.4 2.4z" clip-path="url(#a)" fill="#fff" stroke="#fff"/>
<g clip-path="url(#a)">
<g transform="translate(158.24 767.05) rotate(90) scale(.08 -.08)">
<use xlink:href="#k"/>
<use x="44.083984" xlink:href="#e"/>
<use x="105.607422" xlink:href="#i"/>
<use x="144.970703" xlink:href="#l"/>
<use x="242.382812" xlink:href="#h"/>
<use x="270.166016" xlink:href="#g"/>
<use x="333.544922" xlink:href="#f"/>
<use x="394.824219" xlink:href="#j"/>
</g>
</g>
<path d="m189.87 550.66v12.991q0 2.4 2.4 2.4h8q2.4 0 2.4-2.4v-12.991q0-2.4-2.4-2.4h-8q-2.4 0-2.4 2.4z" clip-path="url(#a)" fill="#fff" stroke="#fff"/>
<g clip-path="url(#a)">
<defs>
<path id="ba" d="m21 76.422v-100h-8.2969v100z"/>
</defs>
<g transform="translate(194.16 550.66) rotate(90) scale(.08 -.08)">
<use xlink:href="#o"/>
<use x="68.408203" xlink:href="#ba"/>
<use x="102.099609" xlink:href="#x"/>
</g>
</g>
<path d="m584.27 334.83 5.7423-1.7948q2.2907-0.71599 1.5747-3.0067l-2.3098-7.3899q-0.71599-2.2907-3.0067-1.5747l-5.7423 1.7948q-2.2907 0.71599-1.5747 3.0067l2.3098 7.3899q0.71599 2.2907 3.0067 1.5747z" clip-path="url(#a)" fill="#fff" stroke="#fff"/>
<g clip-path="url(#a)">
<g transform="translate(583.06 330.95) rotate(-17.357) scale(.08 -.08)">
<use xlink:href="#z"/>
</g>
</g>
<path d="m913.14 332.72 5.6138 2.1634q2.2395 0.86302 3.1025-1.3764l2.7841-7.2246q0.86302-2.2395-1.3764-3.1025l-5.6138-2.1634q-2.2395-0.86302-3.1025 1.3764l-2.7841 7.2246q-0.86302 2.2395 1.3764 3.1025z" clip-path="url(#a)" fill="#fff" stroke="#fff"/>
<g clip-path="url(#a)">
<g transform="translate(914.6 328.93) rotate(21.075) scale(.08 -.08)">
<use xlink:href="#z"/>
</g>
</g>
<path d="m797.19 497.25 0.87901 5.7886q0.36031 2.3728 2.7331 2.0125l7.6547-1.1624q2.3728-0.36031 2.0125-2.7331l-0.87901-5.7886q-0.36031-2.3728-2.7331-2.0125l-7.6547 1.1624q-2.3728 0.36031-2.0125 2.7331z" clip-path="url(#a)" fill="#fff" stroke="#fff"/>
<g clip-path="url(#a)">
<g transform="translate(801.21 496.64) rotate(81.366) scale(.08 -.08)">
<use xlink:href="#s"/>
</g>
</g>
<path d="m356.56 561.05 1.5373-5.2521q0.6742-2.3034-1.6292-2.9776l-7.4307-2.175q-2.3034-0.6742-2.9776 1.6292l-1.5373 5.2521q-0.6742 2.3034 1.6292 2.9776l7.4307 2.175q2.3034 0.6742 2.9776-1.6292z" clip-path="url(#a)" fill="#fff" stroke="#fff"/>
<g clip-path="url(#a)">
<g transform="translate(352.66 559.91) rotate(-73.685) scale(.08 -.08)">
<use xlink:href="#o"/>
</g>
</g>
<path d="m374.94 560.22 0.90329-4.802q0.44367-2.3586-1.915-2.8023l-7.6091-1.4313q-2.3586-0.44367-2.8023 1.915l-0.90329 4.802q-0.44367 2.3586 1.915 2.8023l7.6091 1.4313q2.3586 0.44367 2.8023-1.915z" clip-path="url(#a)" fill="#fff" stroke="#fff"/>
<g clip-path="url(#a)">
<g transform="translate(370.94 559.47) rotate(-79.347) scale(.08 -.08)">
<use xlink:href="#k"/>
</g>
</g>
<path d="m394.44 560.21 0.46705-6.1423q0.18197-2.3931-2.2111-2.5751l-7.7202-0.58704q-2.3931-0.18197-2.5751 2.2111l-0.46705 6.1423q-0.18197 2.3931 2.2111 2.5751l7.7202 0.58704q2.3931 0.18197 2.5751-2.2111z" clip-path="url(#a)" fill="#fff" stroke="#fff"/>
<g clip-path="url(#a)">
<defs>
<path id="aj" d="m19.672 64.797v-56.688h11.922q15.094 0 22.094 6.8281 7 6.8438 7 21.594 0 14.641-7 21.453t-22.094 6.8125zm-9.8594 8.1094h20.266q21.188 0 31.094-8.8125 9.9219-8.8125 9.9219-27.562 0-18.859-9.9688-27.703-9.9531-8.8281-31.047-8.8281h-20.266z"/>
</defs>
<g transform="translate(390.38 559.9) rotate(-85.652) scale(.08 -.08)">
<use xlink:href="#aj"/>
</g>
</g>
<path d="m402.52 554.53 0.20963 4.8192q0.1043 2.3977 2.502 2.2934l7.7352-0.33647q2.3977-0.1043 2.2934-2.502l-0.20963-4.8192q-0.1043-2.3977-2.502-2.2934l-7.7352 0.33647q-2.3977 0.1043-2.2934 2.502z" clip-path="url(#a)" fill="#fff" stroke="#fff"/>
<g clip-path="url(#a)">
<g transform="translate(406.58 554.35) rotate(87.509) scale(.08 -.08)">
<use xlink:href="#x"/>
</g>
</g>
<path d="m483.63 446.48 4.5843 2.9887q2.0105 1.3107 3.3212-0.69978l4.2284-6.4859q1.3107-2.0105-0.69978-3.3212l-4.5843-2.9887q-2.0105-1.3107-3.3212 0.69978l-4.2284 6.4859q-1.3107 2.0105 0.69978 3.3212z" clip-path="url(#a)" fill="#fff" stroke="#fff"/>
<g clip-path="url(#a)">
<g transform="translate(485.85 443.08) rotate(33.102) scale(.08 -.08)">
<use xlink:href="#o"/>
</g>
</g>
<path d="m1327.6 448.27 5.3482 1.1595q2.3455 0.50853 2.854-1.837l1.6405-7.5667q0.50853-2.3455-1.837-2.854l-5.3482-1.1595q-2.3455-0.50853-2.854 1.837l-1.6405 7.5667q-0.50853 2.3455 1.837 2.854z" clip-path="url(#a)" fill="#fff" stroke="#fff"/>
<g clip-path="url(#a)">
<g transform="translate(1328.5 444.3) rotate(12.233) scale(.08 -.08)">
<use xlink:href="#o"/>
</g>
</g>
<path d="m989.57 561.45 1.9947-4.1464q1.0404-2.1628-1.1224-3.2032l-6.9772-3.3564q-2.1628-1.0404-3.2032 1.1224l-1.9947 4.1464q-1.0404 2.1628 1.1224 3.2032l6.9772 3.3564q2.1628 1.0404 3.2032-1.1224z" clip-path="url(#a)" fill="#fff" stroke="#fff"/>
<g clip-path="url(#a)">
<defs>
<path id="ae" d="m9.8125 72.906h41.891v-8.3125h-32.031v-21.484h28.906v-8.2969h-28.906v-34.812h-9.8594z"/>
</defs>
<g transform="translate(985.91 559.69) rotate(-64.31) scale(.08 -.08)">
<use xlink:href="#ae"/>
</g>
</g>
<path d="m1023.4 561.35 1.6983-5.9213q0.66166-2.307-1.6453-2.9687l-7.4424-2.1346q-2.307-0.66166-2.9687 1.6453l-1.6983 5.9213q-0.66166 2.307 1.6453 2.9687l7.4424 2.1346q2.307 0.66166 2.9687-1.6453z" clip-path="url(#a)" fill="#fff" stroke="#fff"/>
<g clip-path="url(#a)">
<g transform="translate(1019.5 560.23) rotate(-73.997) scale(.08 -.08)">
<use xlink:href="#aj"/>
</g>
</g>
<path d="m1058.8 559.72 0.43058-5.0605q0.20348-2.3914-2.1879-2.5948l-7.7146-0.65642q-2.3914-0.20348-2.5948 2.1879l-0.43058 5.0605q-0.20348 2.3914 2.1879 2.5948l7.7146 0.65642q2.3914 0.20348 2.5948-2.1879z" clip-path="url(#a)" fill="#fff" stroke="#fff"/>
<g clip-path="url(#a)">
<defs>
<path id="ah" d="m53.516 70.516v-9.625q-5.6094 2.6875-10.594 4-4.9844 1.3281-9.625 1.3281-8.0469 0-12.422-3.125t-4.375-8.8906q0-4.8438 2.9062-7.3125 2.9062-2.4531 11.016-3.9688l5.9531-1.2188q11.031-2.1094 16.281-7.4062t5.25-14.172q0-10.609-7.1094-16.078-7.0938-5.4688-20.812-5.4688-5.1719 0-11.016 1.1719-5.8281 1.1719-12.078 3.4688v10.156q6-3.3594 11.766-5.0781 5.7656-1.7031 11.328-1.7031 8.4375 0 13.031 3.3125 4.5938 3.3281 4.5938 9.4844 0 5.3594-3.2969 8.3906t-10.812 4.5469l-6.0156 1.1719q-11.031 2.1875-15.969 6.875-4.9219 4.6875-4.9219 13.047 0 9.6719 6.8125 15.234t18.766 5.5625q5.1406 0 10.453-0.9375 5.3281-0.92188 10.891-2.7656z"/>
</defs>
<g transform="translate(1054.7 559.38) rotate(-85.137) scale(.08 -.08)">
<use xlink:href="#ah"/>
</g>
</g>
<path d="m1208.5 447.56 5.0944 1.9989q2.2342 0.87662 3.1108-1.3576l2.828-7.2075q0.87662-2.2342-1.3576-3.1108l-5.0944-1.9989q-2.2342-0.87662-3.1108 1.3576l-2.828 7.2075q-0.87662 2.2342 1.3576 3.1108z" clip-path="url(#a)" fill="#fff" stroke="#fff"/>
<g clip-path="url(#a)">
<g transform="translate(1210 443.78) rotate(21.423) scale(.08 -.08)">
<use xlink:href="#o"/>
</g>
</g>
<path d="m896.26 767.05v33.808q0 2.4 2.4 2.4h7.7425q2.4 0 2.4-2.4v-33.808q0-2.4-2.4-2.4h-7.7425q-2.4 0-2.4 2.4z" clip-path="url(#a)" fill="#fff" stroke="#fff"/>
<g clip-path="url(#a)">
<g transform="translate(900.32 767.05) rotate(90) scale(.08 -.08)">
<use xlink:href="#k"/>
<use x="44.083984" xlink:href="#e"/>
<use x="105.607422" xlink:href="#i"/>
<use x="144.970703" xlink:href="#l"/>
<use x="242.382812" xlink:href="#h"/>
<use x="270.166016" xlink:href="#g"/>
<use x="333.544922" xlink:href="#f"/>
<use x="394.824219" xlink:href="#j"/>
</g>
</g>
<path d="m962.79 767.05v33.808q0 2.4 2.4 2.4h7.7425q2.4 0 2.4-2.4v-33.808q0-2.4-2.4-2.4h-7.7425q-2.4 0-2.4 2.4z" clip-path="url(#a)" fill="#fff" stroke="#fff"/>
<g clip-path="url(#a)">
<g transform="translate(966.86 767.05) rotate(90) scale(.08 -.08)">
<use xlink:href="#k"/>
<use x="44.083984" xlink:href="#e"/>
<use x="105.607422" xlink:href="#i"/>
<use x="144.970703" xlink:href="#l"/>
<use x="242.382812" xlink:href="#h"/>
<use x="270.166016" xlink:href="#g"/>
<use x="333.544922" xlink:href="#f"/>
<use x="394.824219" xlink:href="#j"/>
</g>
</g>
<path d="m1031.9 767.05v33.808q0 2.4 2.4 2.4h7.7425q2.4 0 2.4-2.4v-33.808q0-2.4-2.4-2.4h-7.7425q-2.4 0-2.4 2.4z" clip-path="url(#a)" fill="#fff" stroke="#fff"/>
<g clip-path="url(#a)">
<g transform="translate(1035.9 767.05) rotate(90) scale(.08 -.08)">
<use xlink:href="#k"/>
<use x="44.083984" xlink:href="#e"/>
<use x="105.607422" xlink:href="#i"/>
<use x="144.970703" xlink:href="#l"/>
<use x="242.382812" xlink:href="#h"/>
<use x="270.166016" xlink:href="#g"/>
<use x="333.544922" xlink:href="#f"/>
<use x="394.824219" xlink:href="#j"/>
</g>
</g>
<path d="m1237.2 620.16 3.3983-3.1021q1.7725-1.6181 0.15448-3.3906l-5.2199-5.7183q-1.6181-1.7725-3.3906-0.15448l-3.3983 3.1021q-1.7725 1.6181-0.15448 3.3906l5.2199 5.7183q1.6181 1.7725 3.3906 0.15448z" clip-path="url(#a)" fill="#fff" stroke="#fff"/>
<g clip-path="url(#a)">
<g transform="translate(1234.4 617.16) rotate(-42.391) scale(.08 -.08)">
<use xlink:href="#ae"/>
</g>
</g>
<path d="m1356 560.65 0.80728-4.9901q0.38328-2.3692-1.9859-2.7525l-7.6431-1.2365q-2.3692-0.38328-2.7525 1.9859l-0.80728 4.9901q-0.38328 2.3692 1.9859 2.7525l7.6431 1.2365q2.3692 0.38328 2.7525-1.9859z" clip-path="url(#a)" fill="#fff" stroke="#fff"/>
<g clip-path="url(#a)">
<defs>
<path id="ap" d="m9.8125 72.906h46.094v-8.3125h-36.234v-21.578h34.719v-8.2969h-34.719v-26.422h37.109v-8.2969h-46.969z"/>
</defs>
<g transform="translate(1352 560) rotate(-80.811) scale(.08 -.08)">
<use xlink:href="#ap"/>
</g>
</g>
<path d="m1383.9 612.94 1.4787 5.387q0.63528 2.3144 2.9497 1.6791l7.4663-2.0494q2.3144-0.63528 1.6791-2.9497l-1.4787-5.387q-0.63528-2.3144-2.9497-1.6791l-7.4663 2.0494q-2.3144 0.63528-1.6791 2.9497z" clip-path="url(#a)" fill="#fff" stroke="#fff"/>
<g clip-path="url(#a)">
<defs>
<path id="t" d="m64.406 67.281v-10.391q-4.9844 4.6406-10.625 6.9219-5.6406 2.2969-11.984 2.2969-12.5 0-19.141-7.6406t-6.6406-22.094q0-14.406 6.6406-22.047t19.141-7.6406q6.3438 0 11.984 2.2969t10.625 6.9375v-10.312q-5.1719-3.5156-10.969-5.2812-5.7812-1.75-12.219-1.75-16.562 0-26.094 10.125-9.5156 10.141-9.5156 27.672 0 17.578 9.5156 27.703 9.5312 10.141 26.094 10.141 6.5312 0 12.312-1.7344 5.7969-1.7344 10.875-5.2031z"/>
</defs>
<g transform="translate(1387.8 611.87) rotate(74.651) scale(.08 -.08)">
<use xlink:href="#t"/>
</g>
</g>
<path d="m1274.9 620.12 3.5716-4.6395q1.464-1.9018-0.43774-3.3658l-6.1351-4.723q-1.9018-1.464-3.3658 0.43774l-3.5716 4.6395q-1.464 1.9018 0.43774 3.3658l6.1351 4.723q1.9018 1.464 3.3658-0.43774z" clip-path="url(#a)" fill="#fff" stroke="#fff"/>
<g clip-path="url(#a)">
<g transform="translate(1271.7 617.64) rotate(-52.41) scale(.08 -.08)">
<use xlink:href="#s"/>
</g>
</g>
<path d="m1426.1 614.92 3.1738 4.9202q1.301 2.0168 3.3178 0.71586l6.5063-4.1969q2.0168-1.301 0.71586-3.3178l-3.1738-4.9202q-1.301-2.0168-3.3178-0.71586l-6.5063 4.1969q-2.0168 1.301-0.71586 3.3178z" clip-path="url(#a)" fill="#fff" stroke="#fff"/>
<g clip-path="url(#a)">
<g transform="translate(1429.5 612.71) rotate(57.176) scale(.08 -.08)">
<use xlink:href="#s"/>
</g>
</g>
<path d="m1470 616.43 4.1946 4.0849q1.7194 1.6744 3.3938-0.044955l5.4018-5.5468q1.6744-1.7194-0.044955-3.3938l-4.1946-4.0849q-1.7194-1.6744-3.3938 0.044955l-5.4018 5.5468q-1.6744 1.7194 0.044955 3.3938z" clip-path="url(#a)" fill="#fff" stroke="#fff"/>
<g clip-path="url(#a)">
<g transform="translate(1472.8 613.52) rotate(44.241) scale(.08 -.08)">
<use xlink:href="#s"/>
</g>
</g>
<path d="m1103.5 767.05v33.808q0 2.4 2.4 2.4h7.7425q2.4 0 2.4-2.4v-33.808q0-2.4-2.4-2.4h-7.7425q-2.4 0-2.4 2.4z" clip-path="url(#a)" fill="#fff" stroke="#fff"/>
<g clip-path="url(#a)">
<g transform="translate(1107.6 767.05) rotate(90) scale(.08 -.08)">
<use xlink:href="#k"/>
<use x="44.083984" xlink:href="#e"/>
<use x="105.607422" xlink:href="#i"/>
<use x="144.970703" xlink:href="#l"/>
<use x="242.382812" xlink:href="#h"/>
<use x="270.166016" xlink:href="#g"/>
<use x="333.544922" xlink:href="#f"/>
<use x="394.824219" xlink:href="#j"/>
</g>
</g>
<path d="m1374.8 672.51 3.1772 4.4558q1.3934 1.9541 3.3475 0.56073l6.304-4.4951q1.9541-1.3934 0.56073-3.3475l-3.1772-4.4558q-1.3934-1.9541-3.3475-0.56073l-6.304 4.4951q-1.9541 1.3934-0.56073 3.3475z" clip-path="url(#a)" fill="#fff" stroke="#fff"/>
<g clip-path="url(#a)">
<g transform="translate(1378.1 670.15) rotate(54.509) scale(.08 -.08)">
<use xlink:href="#o"/>
</g>
</g>
<path d="m1304.5 676.79 2.9279-4.1498q1.3836-1.961-0.57744-3.3446l-6.3264-4.4635q-1.961-1.3836-3.3446 0.57744l-2.9279 4.1498q-1.3836 1.961 0.57744 3.3446l6.3264 4.4635q1.961 1.3836 3.3446-0.57744z" clip-path="url(#a)" fill="#fff" stroke="#fff"/>
<g clip-path="url(#a)">
<g transform="translate(1301.2 674.44) rotate(-54.795) scale(.08 -.08)">
<use xlink:href="#ah"/>
</g>
</g>
<path d="m1346.8 674.07 0.043945-5.8548q0.018013-2.3999-2.3819-2.4179l-7.7423-0.058112q-2.3999-0.018013-2.4179 2.3819l-0.043945 5.8548q-0.018013 2.3999 2.3819 2.4179l7.7423 0.058111q2.3999 0.018014 2.4179-2.3819z" clip-path="url(#a)" fill="#fff" stroke="#fff"/>
<g clip-path="url(#a)">
<g transform="translate(1342.7 674.04) rotate(-89.57) scale(.08 -.08)">
<use xlink:href="#s"/>
</g>
</g>
<path d="m1415.7 767.05v33.808q0 2.4 2.4 2.4h7.7425q2.4 0 2.4-2.4v-33.808q0-2.4-2.4-2.4h-7.7425q-2.4 0-2.4 2.4z" clip-path="url(#a)" fill="#fff" stroke="#fff"/>
<g clip-path="url(#a)">
<g transform="translate(1419.8 767.05) rotate(90) scale(.08 -.08)">
<use xlink:href="#k"/>
<use x="44.083984" xlink:href="#e"/>
<use x="105.607422" xlink:href="#i"/>
<use x="144.970703" xlink:href="#l"/>
<use x="242.382812" xlink:href="#h"/>
<use x="270.166016" xlink:href="#g"/>
<use x="333.544922" xlink:href="#f"/>
<use x="394.824219" xlink:href="#j"/>
</g>
</g>
<path d="m1254.5 767.05v33.808q0 2.4 2.4 2.4h7.7425q2.4 0 2.4-2.4v-33.808q0-2.4-2.4-2.4h-7.7425q-2.4 0-2.4 2.4z" clip-path="url(#a)" fill="#fff" stroke="#fff"/>
<g clip-path="url(#a)">
<g transform="translate(1258.6 767.05) rotate(90) scale(.08 -.08)">
<use xlink:href="#k"/>
<use x="44.083984" xlink:href="#e"/>
<use x="105.607422" xlink:href="#i"/>
<use x="144.970703" xlink:href="#l"/>
<use x="242.382812" xlink:href="#h"/>
<use x="270.166016" xlink:href="#g"/>
<use x="333.544922" xlink:href="#f"/>
<use x="394.824219" xlink:href="#j"/>
</g>
</g>
<path d="m294.91 767.05v33.808q0 2.4 2.4 2.4h7.7425q2.4 0 2.4-2.4v-33.808q0-2.4-2.4-2.4h-7.7425q-2.4 0-2.4 2.4z" clip-path="url(#a)" fill="#fff" stroke="#fff"/>
<g clip-path="url(#a)">
<g transform="translate(298.98 767.05) rotate(90) scale(.08 -.08)">
<use xlink:href="#k"/>
<use x="44.083984" xlink:href="#e"/>
<use x="105.607422" xlink:href="#i"/>
<use x="144.970703" xlink:href="#l"/>
<use x="242.382812" xlink:href="#h"/>
<use x="270.166016" xlink:href="#g"/>
<use x="333.544922" xlink:href="#f"/>
<use x="394.824219" xlink:href="#j"/>
</g>
</g>
<path d="m330.74 767.05v33.808q0 2.4 2.4 2.4h7.7425q2.4 0 2.4-2.4v-33.808q0-2.4-2.4-2.4h-7.7425q-2.4 0-2.4 2.4z" clip-path="url(#a)" fill="#fff" stroke="#fff"/>
<g clip-path="url(#a)">
<g transform="translate(334.8 767.05) rotate(90) scale(.08 -.08)">
<use xlink:href="#k"/>
<use x="44.083984" xlink:href="#e"/>
<use x="105.607422" xlink:href="#i"/>
<use x="144.970703" xlink:href="#l"/>
<use x="242.382812" xlink:href="#h"/>
<use x="270.166016" xlink:href="#g"/>
<use x="333.544922" xlink:href="#f"/>
<use x="394.824219" xlink:href="#j"/>
</g>
</g>
<path d="m369.12 767.05v33.808q0 2.4 2.4 2.4h7.7425q2.4 0 2.4-2.4v-33.808q0-2.4-2.4-2.4h-7.7425q-2.4 0-2.4 2.4z" clip-path="url(#a)" fill="#fff" stroke="#fff"/>
<g clip-path="url(#a)">
<g transform="translate(373.19 767.05) rotate(90) scale(.08 -.08)">
<use xlink:href="#k"/>
<use x="44.083984" xlink:href="#e"/>
<use x="105.607422" xlink:href="#i"/>
<use x="144.970703" xlink:href="#l"/>
<use x="242.382812" xlink:href="#h"/>
<use x="270.166016" xlink:href="#g"/>
<use x="333.544922" xlink:href="#f"/>
<use x="394.824219" xlink:href="#j"/>
</g>
</g>
<path d="m410.07 767.05v33.808q0 2.4 2.4 2.4h7.7425q2.4 0 2.4-2.4v-33.808q0-2.4-2.4-2.4h-7.7425q-2.4 0-2.4 2.4z" clip-path="url(#a)" fill="#fff" stroke="#fff"/>
<g clip-path="url(#a)">
<g transform="translate(414.13 767.05) rotate(90) scale(.08 -.08)">
<use xlink:href="#k"/>
<use x="44.083984" xlink:href="#e"/>
<use x="105.607422" xlink:href="#i"/>
<use x="144.970703" xlink:href="#l"/>
<use x="242.382812" xlink:href="#h"/>
<use x="270.166016" xlink:href="#g"/>
<use x="333.544922" xlink:href="#f"/>
<use x="394.824219" xlink:href="#j"/>
</g>
</g>
<path d="m671.72 561.24 4.7512 2.7155q2.0837 1.1909 3.2746-0.89279l3.8419-6.7221q1.1909-2.0837-0.89279-3.2746l-4.7512-2.7155q-2.0837-1.1909-3.2746 0.89279l-3.8419 6.7221q-1.1909 2.0837 0.89279 3.2746z" clip-path="url(#a)" fill="#fff" stroke="#fff"/>
<g clip-path="url(#a)">
<g transform="translate(673.73 557.71) rotate(29.749) scale(.08 -.08)">
<use xlink:href="#o"/>
</g>
</g>
<path d="m523.07 618.89 2.1076-4.0902q1.0993-2.1334-1.0341-3.2328l-6.8825-3.5465q-2.1334-1.0993-3.2328 1.0341l-2.1076 4.0902q-1.0993 2.1334 1.0341 3.2328l6.8825 3.5465q2.1334 1.0993 3.2328-1.0341z" clip-path="url(#a)" fill="#fff" stroke="#fff"/>
<g clip-path="url(#a)">
<g transform="translate(519.46 617.03) rotate(-62.738) scale(.08 -.08)">
<use xlink:href="#ae"/>
</g>
</g>
<path d="m587.73 556.53 1.4645 4.863q0.69206 2.2981 2.9901 1.606l7.4136-2.2326q2.2981-0.69207 1.606-2.9901l-1.4645-4.863q-0.69206-2.2981-2.9901-1.606l-7.4136 2.2326q-2.2981 0.69206-1.606 2.9901z" clip-path="url(#a)" fill="#fff" stroke="#fff"/>
<g clip-path="url(#a)">
<g transform="translate(591.62 555.36) rotate(73.24) scale(.08 -.08)">
<use xlink:href="#ah"/>
</g>
</g>
<path d="m612.09 558.63 3.2173 4.4269q1.4109 1.9414 3.3524 0.5305l6.2632-4.5518q1.9414-1.4109 0.5305-3.3524l-3.2173-4.4269q-1.4109-1.9414-3.3524-0.5305l-6.2632 4.5518q-1.9414 1.4109-0.5305 3.3524z" clip-path="url(#a)" fill="#fff" stroke="#fff"/>
<g clip-path="url(#a)">
<g transform="translate(615.38 556.24) rotate(53.992) scale(.08 -.08)">
<use xlink:href="#o"/>
</g>
</g>
<path d="m453.57 767.05v33.808q0 2.4 2.4 2.4h7.7425q2.4 0 2.4-2.4v-33.808q0-2.4-2.4-2.4h-7.7425q-2.4 0-2.4 2.4z" clip-path="url(#a)" fill="#fff" stroke="#fff"/>
<g clip-path="url(#a)">
<g transform="translate(457.63 767.05) rotate(90) scale(.08 -.08)">
<use xlink:href="#k"/>
<use x="44.083984" xlink:href="#e"/>
<use x="105.607422" xlink:href="#i"/>
<use x="144.970703" xlink:href="#l"/>
<use x="242.382812" xlink:href="#h"/>
<use x="270.166016" xlink:href="#g"/>
<use x="333.544922" xlink:href="#f"/>
<use x="394.824219" xlink:href="#j"/>
</g>
</g>
<path d="m561.48 677.4 3.7871-4.0691q1.6351-1.7568-0.12172-3.3919l-5.6676-5.2749q-1.7568-1.6351-3.3919 0.12172l-3.7871 4.0691q-1.6351 1.7568 0.12172 3.3919l5.6676 5.2749q1.7568 1.6351 3.3919-0.12172z" clip-path="url(#a)" fill="#fff" stroke="#fff"/>
<g clip-path="url(#a)">
<defs>
<path id="an" d="m44.391 34.188q3.1719-1.0781 6.1719-4.5938t6.0312-9.6719l10.016-19.922h-10.609l-9.3125 18.703q-3.625 7.3281-7.0156 9.7188t-9.25 2.3906h-10.75v-30.812h-9.8594v72.906h22.266q12.5 0 18.656-5.2344 6.1562-5.2188 6.1562-15.766 0-6.8906-3.2031-11.438-3.2031-4.5312-9.2969-6.2812zm-24.719 30.609v-25.875h12.406q7.125 0 10.766 3.2969t3.6406 9.6875-3.6406 9.6406-10.766 3.25z"/>
</defs>
<g transform="translate(558.51 674.63) rotate(-47.055) scale(.08 -.08)">
<use xlink:href="#an"/>
</g>
</g>
<path d="m587.66 675.97 2.0672-4.1107q1.0783-2.1441-1.0659-3.2224l-6.9171-3.4785q-2.1441-1.0783-3.2224 1.0659l-2.0672 4.1107q-1.0783 2.1441 1.0659 3.2224l6.9171 3.4785q2.1441 1.0783 3.2224-1.0659z" clip-path="url(#a)" fill="#fff" stroke="#fff"/>
<g clip-path="url(#a)">
<g transform="translate(584.03 674.14) rotate(-63.303) scale(.08 -.08)">
<use xlink:href="#ae"/>
</g>
</g>
<path d="m687.25 674.64 4.5817 3.1959q1.9684 1.3731 3.3415-0.59536l4.4296-6.3502q1.3731-1.9684-0.59536-3.3415l-4.5817-3.1959q-1.9684-1.3731-3.3415 0.59536l-4.4296 6.3502q-1.3731 1.9684 0.59536 3.3415z" clip-path="url(#a)" fill="#fff" stroke="#fff"/>
<g clip-path="url(#a)">
<g transform="translate(689.57 671.31) rotate(34.897) scale(.08 -.08)">
<use xlink:href="#t"/>
</g>
</g>
<path d="m637.44 676.33 2.4189-5.0354q1.0392-2.1633-1.1241-3.2025l-6.979-3.3525q-2.1633-1.0392-3.2025 1.1241l-2.4189 5.0354q-1.0392 2.1633 1.1241 3.2025l6.979 3.3525q2.1633 1.0392 3.2025-1.1241z" clip-path="url(#a)" fill="#fff" stroke="#fff"/>
<g clip-path="url(#a)">
<g transform="translate(633.77 674.57) rotate(-64.342) scale(.08 -.08)">
<use xlink:href="#t"/>
</g>
</g>
<path d="m666.11 674.13 0.04492-5.9848q0.018014-2.3999-2.3819-2.4179l-7.7423-0.058111q-2.3999-0.018014-2.4179 2.3819l-0.044921 5.9848q-0.018014 2.3999 2.3819 2.4179l7.7423 0.058112q2.3999 0.018013 2.4179-2.3819z" clip-path="url(#a)" fill="#fff" stroke="#fff"/>
<g clip-path="url(#a)">
<defs>
<path id="az" d="m9.8125 72.906h13.281l32.328-60.984v60.984h9.5625v-72.906h-13.281l-32.312 60.984v-60.984h-9.5781z"/>
</defs>
<g transform="translate(662.05 674.1) rotate(-89.57) scale(.08 -.08)">
<use xlink:href="#az"/>
</g>
</g>
<path d="m681.15 671.33 2.4494 5.0206q1.0523 2.157 3.2093 1.1046l6.9585-3.3949q2.157-1.0523 1.1046-3.2093l-2.4494-5.0206q-1.0523-2.157-3.2093-1.1046l-6.9585 3.3949q-2.157 1.0523-1.1046 3.2093z" clip-path="url(#a)" fill="#fff" stroke="#fff"/>
<g clip-path="url(#a)">
<g transform="translate(684.8 669.55) rotate(63.993) scale(.08 -.08)">
<use xlink:href="#t"/>
</g>
</g>
<path d="m599.43 767.05v33.808q0 2.4 2.4 2.4h7.7425q2.4 0 2.4-2.4v-33.808q0-2.4-2.4-2.4h-7.7425q-2.4 0-2.4 2.4z" clip-path="url(#a)" fill="#fff" stroke="#fff"/>
<g clip-path="url(#a)">
<g transform="translate(603.49 767.05) rotate(90) scale(.08 -.08)">
<use xlink:href="#k"/>
<use x="44.083984" xlink:href="#e"/>
<use x="105.607422" xlink:href="#i"/>
<use x="144.970703" xlink:href="#l"/>
<use x="242.382812" xlink:href="#h"/>
<use x="270.166016" xlink:href="#g"/>
<use x="333.544922" xlink:href="#f"/>
<use x="394.824219" xlink:href="#j"/>
</g>
</g>
<path d="m653.16 767.05v33.808q0 2.4 2.4 2.4h7.7425q2.4 0 2.4-2.4v-33.808q0-2.4-2.4-2.4h-7.7425q-2.4 0-2.4 2.4z" clip-path="url(#a)" fill="#fff" stroke="#fff"/>
<g clip-path="url(#a)">
<g transform="translate(657.23 767.05) rotate(90) scale(.08 -.08)">
<use xlink:href="#k"/>
<use x="44.083984" xlink:href="#e"/>
<use x="105.607422" xlink:href="#i"/>
<use x="144.970703" xlink:href="#l"/>
<use x="242.382812" xlink:href="#h"/>
<use x="270.166016" xlink:href="#g"/>
<use x="333.544922" xlink:href="#f"/>
<use x="394.824219" xlink:href="#j"/>
</g>
</g>
<path d="m709.46 767.05v33.808q0 2.4 2.4 2.4h7.7425q2.4 0 2.4-2.4v-33.808q0-2.4-2.4-2.4h-7.7425q-2.4 0-2.4 2.4z" clip-path="url(#a)" fill="#fff" stroke="#fff"/>
<g clip-path="url(#a)">
<g transform="translate(713.52 767.05) rotate(90) scale(.08 -.08)">
<use xlink:href="#k"/>
<use x="44.083984" xlink:href="#e"/>
<use x="105.607422" xlink:href="#i"/>
<use x="144.970703" xlink:href="#l"/>
<use x="242.382812" xlink:href="#h"/>
<use x="270.166016" xlink:href="#g"/>
<use x="333.544922" xlink:href="#f"/>
<use x="394.824219" xlink:href="#j"/>
</g>
</g>
<path d="m499.63 767.05v33.808q0 2.4 2.4 2.4h7.7425q2.4 0 2.4-2.4v-33.808q0-2.4-2.4-2.4h-7.7425q-2.4 0-2.4 2.4z" clip-path="url(#a)" fill="#fff" stroke="#fff"/>
<g clip-path="url(#a)">
<g transform="translate(503.69 767.05) rotate(90) scale(.08 -.08)">
<use xlink:href="#k"/>
<use x="44.083984" xlink:href="#e"/>
<use x="105.607422" xlink:href="#i"/>
<use x="144.970703" xlink:href="#l"/>
<use x="242.382812" xlink:href="#h"/>
<use x="270.166016" xlink:href="#g"/>
<use x="333.544922" xlink:href="#f"/>
<use x="394.824219" xlink:href="#j"/>
</g>
</g>
<path d="m548.25 767.05v33.808q0 2.4 2.4 2.4h7.7425q2.4 0 2.4-2.4v-33.808q0-2.4-2.4-2.4h-7.7425q-2.4 0-2.4 2.4z" clip-path="url(#a)" fill="#fff" stroke="#fff"/>
<g clip-path="url(#a)">
<g transform="translate(552.31 767.05) rotate(90) scale(.08 -.08)">
<use xlink:href="#k"/>
<use x="44.083984" xlink:href="#e"/>
<use x="105.607422" xlink:href="#i"/>
<use x="144.970703" xlink:href="#l"/>
<use x="242.382812" xlink:href="#h"/>
<use x="270.166016" xlink:href="#g"/>
<use x="333.544922" xlink:href="#f"/>
<use x="394.824219" xlink:href="#j"/>
</g>
</g>
<path d="m768.31 767.05v33.808q0 2.4 2.4 2.4h7.7425q2.4 0 2.4-2.4v-33.808q0-2.4-2.4-2.4h-7.7425q-2.4 0-2.4 2.4z" clip-path="url(#a)" fill="#fff" stroke="#fff"/>
<g clip-path="url(#a)">
<g transform="translate(772.38 767.05) rotate(90) scale(.08 -.08)">
<use xlink:href="#k"/>
<use x="44.083984" xlink:href="#e"/>
<use x="105.607422" xlink:href="#i"/>
<use x="144.970703" xlink:href="#l"/>
<use x="242.382812" xlink:href="#h"/>
<use x="270.166016" xlink:href="#g"/>
<use x="333.544922" xlink:href="#f"/>
<use x="394.824219" xlink:href="#j"/>
</g>
</g>
<path d="m195.82 674.31 0.56555-5.0233q0.26851-2.3849-2.1164-2.6534l-7.6939-0.86623q-2.3849-0.26851-2.6534 2.1164l-0.56555 5.0233q-0.26851 2.3849 2.1164 2.6534l7.6939 0.86623q2.3849 0.26851 2.6534-2.1164z" clip-path="url(#a)" fill="#fff" stroke="#fff"/>
<g clip-path="url(#a)">
<g transform="translate(191.78 673.85) rotate(-83.576) scale(.08 -.08)">
<use xlink:href="#ap"/>
</g>
</g>
<path d="m196.12 669.02 0.62499 5.5512q0.26851 2.3849 2.6534 2.1164l7.6939-0.86623q2.3849-0.26851 2.1164-2.6534l-0.62499-5.5512q-0.26851-2.3849-2.6534-2.1164l-7.6939 0.86623q-2.3849 0.26851-2.1164 2.6534z" clip-path="url(#a)" fill="#fff" stroke="#fff"/>
<g clip-path="url(#a)">
<g transform="translate(200.16 668.57) rotate(83.576) scale(.08 -.08)">
<use xlink:href="#t"/>
</g>
</g>
<path d="m177.2 767.05v33.808q0 2.4 2.4 2.4h7.7425q2.4 0 2.4-2.4v-33.808q0-2.4-2.4-2.4h-7.7425q-2.4 0-2.4 2.4z" clip-path="url(#a)" fill="#fff" stroke="#fff"/>
<g clip-path="url(#a)">
<g transform="translate(181.27 767.05) rotate(90) scale(.08 -.08)">
<use xlink:href="#k"/>
<use x="44.083984" xlink:href="#e"/>
<use x="105.607422" xlink:href="#i"/>
<use x="144.970703" xlink:href="#l"/>
<use x="242.382812" xlink:href="#h"/>
<use x="270.166016" xlink:href="#g"/>
<use x="333.544922" xlink:href="#f"/>
<use x="394.824219" xlink:href="#j"/>
</g>
</g>
<path d="m202.79 767.05v33.808q0 2.4 2.4 2.4h7.7425q2.4 0 2.4-2.4v-33.808q0-2.4-2.4-2.4h-7.7425q-2.4 0-2.4 2.4z" clip-path="url(#a)" fill="#fff" stroke="#fff"/>
<g clip-path="url(#a)">
<g transform="translate(206.86 767.05) rotate(90) scale(.08 -.08)">
<use xlink:href="#k"/>
<use x="44.083984" xlink:href="#e"/>
<use x="105.607422" xlink:href="#i"/>
<use x="144.970703" xlink:href="#l"/>
<use x="242.382812" xlink:href="#h"/>
<use x="270.166016" xlink:href="#g"/>
<use x="333.544922" xlink:href="#f"/>
<use x="394.824219" xlink:href="#j"/>
</g>
</g>
<path d="m77.406 767.05v33.808q0 2.4 2.4 2.4h7.7425q2.4 0 2.4-2.4v-33.808q0-2.4-2.4-2.4h-7.7425q-2.4 0-2.4 2.4z" clip-path="url(#a)" fill="#fff" stroke="#fff"/>
<g clip-path="url(#a)">
<g transform="translate(81.469 767.05) rotate(90) scale(.08 -.08)">
<use xlink:href="#k"/>
<use x="44.083984" xlink:href="#e"/>
<use x="105.607422" xlink:href="#i"/>
<use x="144.970703" xlink:href="#l"/>
<use x="242.382812" xlink:href="#h"/>
<use x="270.166016" xlink:href="#g"/>
<use x="333.544922" xlink:href="#f"/>
<use x="394.824219" xlink:href="#j"/>
</g>
</g>
<path d="m103.22 674.22 0.31243-5.55q0.13489-2.3962-2.2613-2.5311l-7.7303-0.43516q-2.3962-0.13489-2.5311 2.2613l-0.31243 5.55q-0.13489 2.3962 2.2613 2.5311l7.7303 0.43516q2.3962 0.13489 2.5311-2.2613z" clip-path="url(#a)" fill="#fff" stroke="#fff"/>
<g clip-path="url(#a)">
<g transform="translate(99.159 673.99) rotate(-86.778) scale(.08 -.08)">
<use xlink:href="#an"/>
</g>
</g>
<path d="m97.09 668.66 0.31397 5.5774q0.13489 2.3962 2.5311 2.2613l7.7303-0.43516q2.3962-0.13489 2.2613-2.5311l-0.31397-5.5774q-0.13489-2.3962-2.5311-2.2613l-7.7303 0.43516q-2.3962 0.13489-2.2613 2.5311z" clip-path="url(#a)" fill="#fff" stroke="#fff"/>
<g clip-path="url(#a)">
<g transform="translate(101.15 668.43) rotate(86.778) scale(.08 -.08)">
<use xlink:href="#t"/>
</g>
</g>
<path d="m115.79 767.05v33.808q0 2.4 2.4 2.4h7.7425q2.4 0 2.4-2.4v-33.808q0-2.4-2.4-2.4h-7.7425q-2.4 0-2.4 2.4z" clip-path="url(#a)" fill="#fff" stroke="#fff"/>
<g clip-path="url(#a)">
<g transform="translate(119.85 767.05) rotate(90) scale(.08 -.08)">
<use xlink:href="#k"/>
<use x="44.083984" xlink:href="#e"/>
<use x="105.607422" xlink:href="#i"/>
<use x="144.970703" xlink:href="#l"/>
<use x="242.382812" xlink:href="#h"/>
<use x="270.166016" xlink:href="#g"/>
<use x="333.544922" xlink:href="#f"/>
<use x="394.824219" xlink:href="#j"/>
</g>
</g>
<path d="m87.641 767.05v33.808q0 2.4 2.4 2.4h7.7425q2.4 0 2.4-2.4v-33.808q0-2.4-2.4-2.4h-7.7425q-2.4 0-2.4 2.4z" clip-path="url(#a)" fill="#fff" stroke="#fff"/>
<g clip-path="url(#a)">
<g transform="translate(91.705 767.05) rotate(90) scale(.08 -.08)">
<use xlink:href="#k"/>
<use x="44.083984" xlink:href="#e"/>
<use x="105.607422" xlink:href="#i"/>
<use x="144.970703" xlink:href="#l"/>
<use x="242.382812" xlink:href="#h"/>
<use x="270.166016" xlink:href="#g"/>
<use x="333.544922" xlink:href="#f"/>
<use x="394.824219" xlink:href="#j"/>
</g>
</g>
<path d="m100.44 767.05v33.808q0 2.4 2.4 2.4h7.7425q2.4 0 2.4-2.4v-33.808q0-2.4-2.4-2.4h-7.7425q-2.4 0-2.4 2.4z" clip-path="url(#a)" fill="#fff" stroke="#fff"/>
<g clip-path="url(#a)">
<g transform="translate(104.5 767.05) rotate(90) scale(.08 -.08)">
<use xlink:href="#k"/>
<use x="44.083984" xlink:href="#e"/>
<use x="105.607422" xlink:href="#i"/>
<use x="144.970703" xlink:href="#l"/>
<use x="242.382812" xlink:href="#h"/>
<use x="270.166016" xlink:href="#g"/>
<use x="333.544922" xlink:href="#f"/>
<use x="394.824219" xlink:href="#j"/>
</g>
</g>
<path d="m230.94 767.05v33.808q0 2.4 2.4 2.4h7.7425q2.4 0 2.4-2.4v-33.808q0-2.4-2.4-2.4h-7.7425q-2.4 0-2.4 2.4z" clip-path="url(#a)" fill="#fff" stroke="#fff"/>
<g clip-path="url(#a)">
<g transform="translate(235 767.05) rotate(90) scale(.08 -.08)">
<use xlink:href="#k"/>
<use x="44.083984" xlink:href="#e"/>
<use x="105.607422" xlink:href="#i"/>
<use x="144.970703" xlink:href="#l"/>
<use x="242.382812" xlink:href="#h"/>
<use x="270.166016" xlink:href="#g"/>
<use x="333.544922" xlink:href="#f"/>
<use x="394.824219" xlink:href="#j"/>
</g>
</g>
<path d="m261.65 767.05v33.808q0 2.4 2.4 2.4h7.7425q2.4 0 2.4-2.4v-33.808q0-2.4-2.4-2.4h-7.7425q-2.4 0-2.4 2.4z" clip-path="url(#a)" fill="#fff" stroke="#fff"/>
<g clip-path="url(#a)">
<g transform="translate(265.71 767.05) rotate(90) scale(.08 -.08)">
<use xlink:href="#k"/>
<use x="44.083984" xlink:href="#e"/>
<use x="105.607422" xlink:href="#i"/>
<use x="144.970703" xlink:href="#l"/>
<use x="242.382812" xlink:href="#h"/>
<use x="270.166016" xlink:href="#g"/>
<use x="333.544922" xlink:href="#f"/>
<use x="394.824219" xlink:href="#j"/>
</g>
</g>
<path d="m832.29 767.05v33.808q0 2.4 2.4 2.4h7.7425q2.4 0 2.4-2.4v-33.808q0-2.4-2.4-2.4h-7.7425q-2.4 0-2.4 2.4z" clip-path="url(#a)" fill="#fff" stroke="#fff"/>
<g clip-path="url(#a)">
<g transform="translate(836.35 767.05) rotate(90) scale(.08 -.08)">
<use xlink:href="#k"/>
<use x="44.083984" xlink:href="#e"/>
<use x="105.607422" xlink:href="#i"/>
<use x="144.970703" xlink:href="#l"/>
<use x="242.382812" xlink:href="#h"/>
<use x="270.166016" xlink:href="#g"/>
<use x="333.544922" xlink:href="#f"/>
<use x="394.824219" xlink:href="#j"/>
</g>
</g>
<path d="m1177.7 767.05v33.808q0 2.4 2.4 2.4h7.7425q2.4 0 2.4-2.4v-33.808q0-2.4-2.4-2.4h-7.7425q-2.4 0-2.4 2.4z" clip-path="url(#a)" fill="#fff" stroke="#fff"/>
<g clip-path="url(#a)">
<g transform="translate(1181.8 767.05) rotate(90) scale(.08 -.08)">
<use xlink:href="#k"/>
<use x="44.083984" xlink:href="#e"/>
<use x="105.607422" xlink:href="#i"/>
<use x="144.970703" xlink:href="#l"/>
<use x="242.382812" xlink:href="#h"/>
<use x="270.166016" xlink:href="#g"/>
<use x="333.544922" xlink:href="#f"/>
<use x="394.824219" xlink:href="#j"/>
</g>
</g>
<path d="m1333.8 767.05v33.808q0 2.4 2.4 2.4h7.7425q2.4 0 2.4-2.4v-33.808q0-2.4-2.4-2.4h-7.7425q-2.4 0-2.4 2.4z" clip-path="url(#a)" fill="#fff" stroke="#fff"/>
<g clip-path="url(#a)">
<g transform="translate(1337.9 767.05) rotate(90) scale(.08 -.08)">
<use xlink:href="#k"/>
<use x="44.083984" xlink:href="#e"/>
<use x="105.607422" xlink:href="#i"/>
<use x="144.970703" xlink:href="#l"/>
<use x="242.382812" xlink:href="#h"/>
<use x="270.166016" xlink:href="#g"/>
<use x="333.544922" xlink:href="#f"/>
<use x="394.824219" xlink:href="#j"/>
</g>
</g>
<path d="m1500.2 767.05v33.808q0 2.4 2.4 2.4h7.7425q2.4 0 2.4-2.4v-33.808q0-2.4-2.4-2.4h-7.7425q-2.4 0-2.4 2.4z" clip-path="url(#a)" fill="#fff" stroke="#fff"/>
<g clip-path="url(#a)">
<g transform="translate(1504.2 767.05) rotate(90) scale(.08 -.08)">
<use xlink:href="#k"/>
<use x="44.083984" xlink:href="#e"/>
<use x="105.607422" xlink:href="#i"/>
<use x="144.970703" xlink:href="#l"/>
<use x="242.382812" xlink:href="#h"/>
<use x="270.166016" xlink:href="#g"/>
<use x="333.544922" xlink:href="#f"/>
<use x="394.824219" xlink:href="#j"/>
</g>
</g>
<path d="m1587.2 767.05v33.808q0 2.4 2.4 2.4h7.7425q2.4 0 2.4-2.4v-33.808q0-2.4-2.4-2.4h-7.7425q-2.4 0-2.4 2.4z" clip-path="url(#a)" fill="#fff" stroke="#fff"/>
<g clip-path="url(#a)">
<g transform="translate(1591.2 767.05) rotate(90) scale(.08 -.08)">
<use xlink:href="#k"/>
<use x="44.083984" xlink:href="#e"/>
<use x="105.607422" xlink:href="#i"/>
<use x="144.970703" xlink:href="#l"/>
<use x="242.382812" xlink:href="#h"/>
<use x="270.166016" xlink:href="#g"/>
<use x="333.544922" xlink:href="#f"/>
<use x="394.824219" xlink:href="#j"/>
</g>
</g>
<defs>
<path id="b" d="m0 8.6603c2.2967 0 4.4997-0.9125 6.1237-2.5365 1.624-1.624 2.5365-3.827 2.5365-6.1237s-0.9125-4.4997-2.5365-6.1237c-1.624-1.624-3.827-2.5365-6.1237-2.5365s-4.4997 0.9125-6.1237 2.5365c-1.624 1.624-2.5365 3.827-2.5365 6.1237s0.9125 4.4997 2.5365 6.1237c1.624 1.624 3.827 2.5365 6.1237 2.5365z"/>
</defs>
<g clip-path="url(#a)" fill="#ffffff" stroke="#ffffff">
<use x="76" y="840" xlink:href="#b"/>
<use x="83.676768" y="840" xlink:href="#b"/>
<use x="93.912458" y="840" xlink:href="#b"/>
<use x="106.707071" y="840" xlink:href="#b"/>
<use x="122.060606" y="840" xlink:href="#b"/>
<use x="139.973064" y="840" xlink:href="#b"/>
<use x="160.444444" y="840" xlink:href="#b"/>
<use x="183.474747" y="840" xlink:href="#b"/>
<use x="209.063973" y="840" xlink:href="#b"/>
<use x="237.212121" y="840" xlink:href="#b"/>
<use x="267.919192" y="840" xlink:href="#b"/>
<use x="301.185185" y="840" xlink:href="#b"/>
<use x="337.010101" y="840" xlink:href="#b"/>
<use x="375.393939" y="840" xlink:href="#b"/>
<use x="416.3367" y="840" xlink:href="#b"/>
<use x="459.838384" y="840" xlink:href="#b"/>
<use x="505.89899" y="840" xlink:href="#b"/>
<use x="554.518519" y="840" xlink:href="#b"/>
<use x="605.69697" y="840" xlink:href="#b"/>
<use x="659.434343" y="840" xlink:href="#b"/>
<use x="715.73064" y="840" xlink:href="#b"/>
<use x="774.585859" y="840" xlink:href="#b"/>
<use x="838.558923" y="840" xlink:href="#b"/>
<use x="902.531987" y="840" xlink:href="#b"/>
<use x="969.063973" y="840" xlink:href="#b"/>
<use x="1038.154882" y="840" xlink:href="#b"/>
<use x="1109.804714" y="840" xlink:href="#b"/>
<use x="1184.013468" y="840" xlink:href="#b"/>
<use x="1260.781145" y="840" xlink:href="#b"/>
<use x="1340.107744" y="840" xlink:href="#b"/>
<use x="1421.993266" y="840" xlink:href="#b"/>
<use x="1506.43771" y="840" xlink:href="#b"/>
<use x="1593.441077" y="840" xlink:href="#b"/>
<use x="1596" y="500.035606" xlink:href="#b"/>
<use x="777.144781" y="614.274168" xlink:href="#b"/>
<use x="160.885938" y="40" xlink:href="#b"/>
<use x="76" y="727.916685" xlink:href="#b"/>
<use x="111.505051" y="500.035606" xlink:href="#b"/>
<use x="295.152762" y="155.341933" xlink:href="#b"/>
<use x="139.973064" y="727.916685" xlink:href="#b"/>
<use x="160.444444" y="727.916685" xlink:href="#b"/>
<use x="196.26936" y="500.035606" xlink:href="#b"/>
<use x="769.098391" y="270.490896" xlink:href="#b"/>
<use x="401.438085" y="385.408242" xlink:href="#b"/>
<use x="1067.298167" y="385.408242" xlink:href="#b"/>
<use x="902.531987" y="727.916685" xlink:href="#b"/>
<use x="969.063973" y="727.916685" xlink:href="#b"/>
<use x="1038.154882" y="727.916685" xlink:href="#b"/>
<use x="1359.441826" y="500.035606" xlink:href="#b"/>
<use x="1109.804714" y="727.916685" xlink:href="#b"/>
<use x="1340.960718" y="614.274168" xlink:href="#b"/>
<use x="1421.993266" y="727.916685" xlink:href="#b"/>
<use x="1260.781145" y="727.916685" xlink:href="#b"/>
<use x="301.185185" y="727.916685" xlink:href="#b"/>
<use x="337.010101" y="727.916685" xlink:href="#b"/>
<use x="375.393939" y="727.916685" xlink:href="#b"/>
<use x="416.3367" y="727.916685" xlink:href="#b"/>
<use x="577.264497" y="500.035606" xlink:href="#b"/>
<use x="459.838384" y="727.916685" xlink:href="#b"/>
<use x="611.667789" y="614.274168" xlink:href="#b"/>
<use x="660.287318" y="614.274168" xlink:href="#b"/>
<use x="605.69697" y="727.916685" xlink:href="#b"/>
<use x="659.434343" y="727.916685" xlink:href="#b"/>
<use x="715.73064" y="727.916685" xlink:href="#b"/>
<use x="505.89899" y="727.916685" xlink:href="#b"/>
<use x="554.518519" y="727.916685" xlink:href="#b"/>
<use x="774.585859" y="727.916685" xlink:href="#b"/>
<use x="196.26936" y="614.274168" xlink:href="#b"/>
<use x="183.474747" y="727.916685" xlink:href="#b"/>
<use x="209.063973" y="727.916685" xlink:href="#b"/>
<use x="83.676768" y="727.916685" xlink:href="#b"/>
<use x="100.309764" y="614.274168" xlink:href="#b"/>
<use x="122.060606" y="727.916685" xlink:href="#b"/>
<use x="93.912458" y="727.916685" xlink:href="#b"/>
<use x="106.707071" y="727.916685" xlink:href="#b"/>
<use x="237.212121" y="727.916685" xlink:href="#b"/>
<use x="267.919192" y="727.916685" xlink:href="#b"/>
<use x="838.558923" y="727.916685" xlink:href="#b"/>
<use x="1184.013468" y="727.916685" xlink:href="#b"/>
<use x="1340.107744" y="727.916685" xlink:href="#b"/>
<use x="1506.43771" y="727.916685" xlink:href="#b"/>
<use x="1593.441077" y="727.916685" xlink:href="#b"/>
</g>
<g clip-path="url(#a)">
<defs>
<path id="ay" d="m3.3281 72.906h9.9531l15.328-61.625 15.281 61.625h11.094l15.328-61.625 15.281 61.625h10.016l-18.312-72.906h-12.406l-15.375 63.281-15.531-63.281h-12.406z"/>
<path id="av" d="m54.891 33.016v-33.016h-8.9844v32.719q0 7.7656-3.0312 11.609-3.0312 3.8594-9.0781 3.8594-7.2812 0-11.484-4.6406-4.2031-4.625-4.2031-12.641v-30.906h-9.0312v75.984h9.0312v-29.797q3.2344 4.9375 7.5938 7.375 4.375 2.4375 10.094 2.4375 9.4219 0 14.25-5.8281 4.8438-5.8281 4.8438-17.156z"/>
</defs>
<g transform="translate(61.642 842.76) scale(.1 -.1)">
<use xlink:href="#ay"/>
<use x="98.876953" xlink:href="#av"/>
<use x="162.255859" xlink:href="#e"/>
<use x="223.779297" xlink:href="#g"/>
</g>
</g>
<g clip-path="url(#a)">
<defs>
<path id="bb" d="m14.797 27.297q0-9.9062 4.0781-15.547t11.203-5.6406 11.219 5.6406q4.1094 5.6406 4.1094 15.547t-4.1094 15.547q-4.0938 5.6406-11.219 5.6406t-11.203-5.6406-4.0781-15.547zm30.609-19.094q-2.8281-4.875-7.1562-7.25-4.3125-2.375-10.375-2.375-9.9062 0-16.141 7.9062-6.2188 7.9219-6.2188 20.812t6.2188 20.797q6.2344 7.9062 16.141 7.9062 6.0625 0 10.375-2.375 4.3281-2.3594 7.1562-7.2344v8.2969h8.9844v-75.484h-8.9844z"/>
<path id="af" d="m8.5 21.578v33.109h8.9844v-32.766q0-7.7656 3.0156-11.656 3.0312-3.875 9.0938-3.875 7.2656 0 11.484 4.6406 4.2344 4.6406 4.2344 12.656v31h8.9844v-54.688h-8.9844v8.4062q-3.2656-4.9844-7.5938-7.4062-4.3125-2.4219-10.031-2.4219-9.4219 0-14.312 5.8594-4.875 5.8594-4.875 17.141z"/>
<path id="w" d="m44.281 53.078v-8.5q-3.7969 1.9531-7.9062 2.9219-4.0938 0.98438-8.5 0.98438-6.6875 0-10.031-2.0469t-3.3438-6.1562q0-3.125 2.3906-4.9062t9.625-3.3906l3.0781-0.6875q9.5625-2.0469 13.594-5.7812t4.0312-10.422q0-7.625-6.0312-12.078-6.0312-4.4375-16.578-4.4375-4.3906 0-9.1562 0.85938t-10.031 2.5625v9.2812q4.9844-2.5938 9.8125-3.8906 4.8281-1.2812 9.5781-1.2812 6.3438 0 9.75 2.1719 3.4219 2.1719 3.4219 6.125 0 3.6562-2.4688 5.6094-2.4531 1.9531-10.812 3.7656l-3.125 0.73438q-8.3438 1.75-12.062 5.3906-3.7031 3.6406-3.7031 9.9844 0 7.7188 5.4688 11.906 5.4688 4.2031 15.531 4.2031 4.9688 0 9.3594-0.73438 4.4062-0.71875 8.1094-2.1875z"/>
<path id="r" d="m18.312 70.219v-15.531h18.5v-6.9844h-18.5v-29.688q0-6.6875 1.8281-8.5938t7.4531-1.9062h9.2188v-7.5156h-9.2188q-10.406 0-14.359 3.875-3.9531 3.8906-3.9531 14.141v29.688h-6.5938v6.9844h6.5938v15.531z"/>
<path id="u" d="m30.609 48.391q-7.2188 0-11.422-5.6406t-4.2031-15.453 4.1719-15.453q4.1875-5.6406 11.453-5.6406 7.1875 0 11.375 5.6562 4.2031 5.6719 4.2031 15.438 0 9.7188-4.2031 15.406-4.1875 5.6875-11.375 5.6875zm0 7.6094q11.719 0 18.406-7.625 6.7031-7.6094 6.7031-21.078 0-13.422-6.7031-21.078-6.6875-7.6406-18.406-7.6406-11.766 0-18.438 7.6406-6.6562 7.6562-6.6562 21.078 0 13.469 6.6562 21.078 6.6719 7.625 18.438 7.625z"/>
<path id="ag" d="m45.406 46.391v29.594h8.9844v-75.984h-8.9844v8.2031q-2.8281-4.875-7.1562-7.25-4.3125-2.375-10.375-2.375-9.9062 0-16.141 7.9062-6.2188 7.9219-6.2188 20.812t6.2188 20.797q6.2344 7.9062 16.141 7.9062 6.0625 0 10.375-2.375 4.3281-2.3594 7.1562-7.2344zm-30.609-19.094q0-9.9062 4.0781-15.547t11.203-5.6406 11.219 5.6406q4.1094 5.6406 4.1094 15.547t-4.1094 15.547q-4.0938 5.6406-11.219 5.6406t-11.203-5.6406-4.0781-15.547z"/>
</defs>
<g transform="translate(55.824 842.76) scale(.1 -.1)">
<use xlink:href="#bb"/>
<use x="63.476562" xlink:href="#af"/>
<use x="126.855469" xlink:href="#e"/>
<use x="188.378906" xlink:href="#w"/>
<use x="240.478516" xlink:href="#r"/>
<use x="279.6875" xlink:href="#h"/>
<use x="307.470703" xlink:href="#u"/>
<use x="368.652344" xlink:href="#g"/>
<use x="432.03125" xlink:href="#e"/>
<use x="493.554688" xlink:href="#ag"/>
</g>
</g>
<g clip-path="url(#a)">
<defs>
<path id="y" d="m48.688 27.297q0 9.9062-4.0781 15.547t-11.203 5.6406q-7.1406 0-11.219-5.6406t-4.0781-15.547 4.0781-15.547 11.219-5.6406q7.125 0 11.203 5.6406t4.0781 15.547zm-30.578 19.094q2.8438 4.875 7.1562 7.2344 4.3281 2.375 10.328 2.375 9.9688 0 16.188-7.9062 6.2344-7.9062 6.2344-20.797t-6.2344-20.812q-6.2188-7.9062-16.188-7.9062-6 0-10.328 2.375-4.3125 2.375-7.1562 7.25v-8.2031h-9.0312v75.984h9.0312z"/>
</defs>
<g transform="translate(79.486 842.76) scale(.1 -.1)">
<use xlink:href="#f"/>
<use x="61.279297" xlink:href="#y"/>
<use x="124.755859" xlink:href="#u"/>
<use x="185.9375" xlink:href="#af"/>
<use x="249.316406" xlink:href="#r"/>
</g>
</g>
<g clip-path="url(#a)">
<defs>
<path id="am" d="m18.109 8.2031v-29h-9.0312v75.484h9.0312v-8.2969q2.8438 4.875 7.1562 7.2344 4.3281 2.375 10.328 2.375 9.9688 0 16.188-7.9062 6.2344-7.9062 6.2344-20.797t-6.2344-20.812q-6.2188-7.9062-16.188-7.9062-6 0-10.328 2.375-4.3125 2.375-7.1562 7.25zm30.578 19.094q0 9.9062-4.0781 15.547t-11.203 5.6406q-7.1406 0-11.219-5.6406t-4.0781-15.547 4.0781-15.547 11.219-5.6406q7.125 0 11.203 5.6406t4.0781 15.547z"/>
<path id="ax" d="m48.781 52.594v-8.4062q-3.8125 2.1094-7.6406 3.1562t-7.7344 1.0469q-8.75 0-13.594-5.5469-4.8281-5.5312-4.8281-15.547t4.8281-15.562q4.8438-5.5312 13.594-5.5312 3.9062 0 7.7344 1.0469t7.6406 3.1562v-8.3125q-3.7656-1.75-7.7969-2.625-4.0156-0.89062-8.5625-0.89062-12.359 0-19.641 7.7656-7.2656 7.7656-7.2656 20.953 0 13.375 7.3438 21.031 7.3594 7.6719 20.156 7.6719 4.1406 0 8.0938-0.85938 3.9531-0.84375 7.6719-2.5469z"/>
</defs>
<g transform="translate(88.992 842.76) scale(.1 -.1)">
<use xlink:href="#am"/>
<use x="63.476562" xlink:href="#u"/>
<use x="124.658203" xlink:href="#j"/>
<use x="152.441406" xlink:href="#h"/>
<use x="180.224609" xlink:href="#r"/>
<use x="219.433594" xlink:href="#h"/>
<use x="247.216797" xlink:href="#ax"/>
<use x="302.197266" xlink:href="#w"/>
</g>
</g>
<g clip-path="url(#a)">
<defs>
<path id="aq" d="m11.719 12.406h10.297v-8.4062l-8-15.625h-6.2969l4 15.625z"/>
</defs>
<g transform="translate(120.47 842.76) scale(.1 -.1)">
<use xlink:href="#aq"/>
</g>
</g>
<g clip-path="url(#a)">
<g transform="translate(118.48 842.76) scale(.1 -.1)">
<use xlink:href="#z"/>
<use x="75.195312" xlink:href="#e"/>
<use x="136.71875" xlink:href="#am"/>
<use x="200.195312" xlink:href="#y"/>
<use x="263.671875" xlink:href="#af"/>
<use x="327.050781" xlink:href="#i"/>
<use x="366.414062" xlink:href="#g"/>
</g>
</g>
<g clip-path="url(#a)">
<g transform="translate(150.86 842.76) scale(.1 -.1)">
<use xlink:href="#r"/>
<use x="39.208984" xlink:href="#u"/>
<use x="100.390625" xlink:href="#j"/>
<use x="128.173828" xlink:href="#ag"/>
</g>
</g>
<g clip-path="url(#a)">
<g transform="translate(177.24 842.76) scale(.1 -.1)">
<use xlink:href="#f"/>
<use x="61.279297" xlink:href="#g"/>
</g>
</g>
<g clip-path="url(#a)">
<defs>
<path id="au" d="m2.9844 54.688h9.5156l17.094-45.891 17.094 45.891h9.5156l-20.516-54.688h-12.203z"/>
<path id="at" d="m4.2031 54.688h8.9844l11.234-42.672 11.172 42.672h10.594l11.234-42.672 11.188 42.672h8.9844l-14.312-54.688h-10.594l-11.766 44.828-11.812-44.828h-10.609z"/>
</defs>
<g transform="translate(180.77 842.76) scale(.1 -.1)">
<use xlink:href="#h"/>
<use x="27.783203" xlink:href="#g"/>
<use x="91.162109" xlink:href="#r"/>
<use x="130.371094" xlink:href="#e"/>
<use x="191.894531" xlink:href="#i"/>
<use x="233.007812" xlink:href="#au"/>
<use x="292.1875" xlink:href="#h"/>
<use x="319.970703" xlink:href="#e"/>
<use x="381.494141" xlink:href="#at"/>
<use x="463.28125" xlink:href="#e"/>
<use x="524.804688" xlink:href="#i"/>
</g>
</g>
<g clip-path="url(#a)">
<g transform="translate(235.62 842.76) scale(.1 -.1)">
<use xlink:href="#aq"/>
</g>
</g>
<g clip-path="url(#a)">
<defs>
<path id="ar" d="m17.922 72.906v-27.109h-8.2969v27.109zm18.453 0v-27.109h-8.2969v27.109z"/>
</defs>
<g transform="translate(265.62 842.76) scale(.1 -.1)">
<use xlink:href="#ar"/>
</g>
</g>
<g clip-path="url(#a)">
<defs>
<path id="v" d="m9.8125 72.906h9.8594v-72.906h-9.8594z"/>
</defs>
<g transform="translate(299.71 842.76) scale(.1 -.1)">
<use xlink:href="#v"/>
</g>
</g>
<g clip-path="url(#a)">
<defs>
<path id="as" d="m32.172-5.0781q-3.7969-9.7656-7.4219-12.734-3.6094-2.9844-9.6562-2.9844h-7.1875v7.5156h5.2812q3.7031 0 5.75 1.7656 2.0625 1.75 4.5469 8.2969l1.6094 4.0938-22.109 53.812h9.5156l17.094-42.766 17.094 42.766h9.5156z"/>
</defs>
<g transform="translate(319.84 842.76) scale(.1 -.1)">
<use xlink:href="#f"/>
<use x="61.279297" xlink:href="#j"/>
<use x="89.0625" xlink:href="#at"/>
<use x="170.849609" xlink:href="#f"/>
<use x="232.128906" xlink:href="#as"/>
<use x="291.308594" xlink:href="#w"/>
</g>
</g>
<g clip-path="url(#a)">
<defs>
<path id="bc" d="m9.4219 54.688h8.9844v-55.672q0-10.438-3.9844-15.125-3.9688-4.6875-12.812-4.6875h-3.4219v7.6094h2.4062q5.125 0 6.9688 2.375 1.8594 2.3594 1.8594 9.8281zm0 21.297h8.9844v-11.391h-8.9844z"/>
</defs>
<g transform="translate(366.27 842.76) scale(.1 -.1)">
<use xlink:href="#bc"/>
<use x="27.783203" xlink:href="#af"/>
<use x="91.162109" xlink:href="#w"/>
<use x="143.261719" xlink:href="#r"/>
</g>
</g>
<g clip-path="url(#a)">
<g transform="translate(407.71 842.76) scale(.1 -.1)">
<use xlink:href="#w"/>
<use x="52.099609" xlink:href="#f"/>
<use x="113.378906" xlink:href="#as"/>
</g>
</g>
<g clip-path="url(#a)">
<g transform="translate(453.59 842.76) scale(.1 -.1)">
<use xlink:href="#y"/>
<use x="63.476562" xlink:href="#e"/>
</g>
</g>
<g clip-path="url(#a)">
<g transform="translate(499.67 842.76) scale(.1 -.1)">
<use xlink:href="#u"/>
<use x="61.181641" xlink:href="#g"/>
</g>
</g>
<g clip-path="url(#a)">
<g transform="translate(546.31 842.76) scale(.1 -.1)">
<use xlink:href="#r"/>
<use x="39.208984" xlink:href="#av"/>
<use x="102.587891" xlink:href="#e"/>
</g>
</g>
<g clip-path="url(#a)">
<defs>
<path id="aw" d="m37.109 75.984v-7.4844h-8.5938q-4.8281 0-6.7188-1.9531-1.875-1.9531-1.875-7.0312v-4.8281h14.797v-6.9844h-14.797v-47.703h-9.0312v47.703h-8.5938v6.9844h8.5938v3.8125q0 9.125 4.25 13.297 4.25 4.1875 13.469 4.1875z"/>
</defs>
<g transform="translate(578.44 842.76) scale(.1 -.1)">
<use xlink:href="#f"/>
<use x="61.279297" xlink:href="#aw"/>
<use x="96.484375" xlink:href="#aw"/>
<use x="131.689453" xlink:href="#h"/>
<use x="159.472656" xlink:href="#i"/>
<use x="198.835938" xlink:href="#l"/>
<use x="296.248047" xlink:href="#f"/>
<use x="357.527344" xlink:href="#r"/>
<use x="396.736328" xlink:href="#h"/>
<use x="424.519531" xlink:href="#au"/>
<use x="483.699219" xlink:href="#e"/>
</g>
</g>
<g clip-path="url(#a)">
<g transform="translate(650.03 842.76) scale(.1 -.1)">
<use xlink:href="#f"/>
<use x="61.279297" xlink:href="#g"/>
<use x="124.658203" xlink:href="#ag"/>
</g>
</g>
<g clip-path="url(#a)">
<g transform="translate(700.19 842.76) scale(.1 -.1)">
<use xlink:href="#j"/>
<use x="27.783203" xlink:href="#h"/>
<use x="55.566406" xlink:href="#y"/>
<use x="119.042969" xlink:href="#e"/>
<use x="180.566406" xlink:href="#i"/>
<use x="221.679688" xlink:href="#f"/>
<use x="282.958984" xlink:href="#j"/>
</g>
</g>
<g clip-path="url(#a)">
<g transform="translate(764.34 842.76) scale(.1 -.1)">
<use xlink:href="#w"/>
<use x="52.099609" xlink:href="#h"/>
<use x="79.882812" xlink:href="#ag"/>
<use x="143.359375" xlink:href="#e"/>
</g>
</g>
<g clip-path="url(#a)">
<defs>
<path id="d" d="m10.688 12.406h10.312v-12.406h-10.312z"/>
</defs>
<g transform="translate(836.97 842.76) scale(.1 -.1)">
<use xlink:href="#d"/>
</g>
</g>
<g clip-path="url(#a)">
<g transform="translate(895.62 842.76) scale(.1 -.1)">
<use xlink:href="#aj"/>
<use x="77.001953" xlink:href="#u"/>
</g>
</g>
<g clip-path="url(#a)">
<defs>
<path id="al" d="m17.922 72.906v-27.109h-8.2969v27.109z"/>
</defs>
<g transform="translate(962.56 842.76) scale(.1 -.1)">
<use xlink:href="#g"/>
<use x="63.378906" xlink:href="#al"/>
<use x="90.869141" xlink:href="#r"/>
</g>
</g>
<g clip-path="url(#a)">
<g transform="translate(1031.9 842.76) scale(.1 -.1)">
<use xlink:href="#y"/>
<use x="63.476562" xlink:href="#e"/>
</g>
</g>
<g clip-path="url(#a)">
<g transform="translate(1106.7 842.76) scale(.1 -.1)">
<use xlink:href="#f"/>
</g>
</g>
<g clip-path="url(#a)">
<g transform="translate(1182.6 842.76) scale(.1 -.1)">
<use xlink:href="#al"/>
</g>
</g>
<g clip-path="url(#a)">
<g transform="translate(1254.6 842.76) scale(.1 -.1)">
<use xlink:href="#g"/>
<use x="63.378906" xlink:href="#u"/>
</g>
</g>
<g clip-path="url(#a)">
<g transform="translate(1338.7 842.76) scale(.1 -.1)">
<use xlink:href="#al"/>
</g>
</g>
<g clip-path="url(#a)">
<g transform="translate(1404.9 842.76) scale(.1 -.1)">
<use xlink:href="#am"/>
<use x="63.476562" xlink:href="#e"/>
<use x="125" xlink:href="#i"/>
<use x="166.113281" xlink:href="#w"/>
<use x="218.212891" xlink:href="#u"/>
<use x="279.394531" xlink:href="#g"/>
</g>
</g>
<g clip-path="url(#a)">
<g transform="translate(1504.8 842.76) scale(.1 -.1)">
<use xlink:href="#d"/>
</g>
</g>
<g clip-path="url(#a)">
<g transform="translate(1591.1 842.76) scale(.1 -.1)">
<use xlink:href="#ar"/>
</g>
</g>
<g clip-path="url(#a)">
<defs>
<path id="ao" d="m9.8125 72.906h14.703l18.594-49.609 18.703 49.609h14.703v-72.906h-9.625v64.016l-18.797-50h-9.9062l-18.797 50v-64.016h-9.5781z"/>
</defs>
<g transform="translate(1574.9 502.79) scale(.1 -.1)">
<use xlink:href="#v"/>
<use x="29.492188" xlink:href="#ao"/>
<use x="115.771484" xlink:href="#x"/>
<use x="176.074219" xlink:href="#ai"/>
<use x="231.787109" xlink:href="#v"/>
<use x="261.279297" xlink:href="#t"/>
<use x="331.103516" xlink:href="#v"/>
<use x="360.595703" xlink:href="#k"/>
</g>
</g>
<g clip-path="url(#a)">
<g transform="translate(756.06 617.03) scale(.1 -.1)">
<use xlink:href="#v"/>
<use x="29.492188" xlink:href="#ao"/>
<use x="115.771484" xlink:href="#x"/>
<use x="176.074219" xlink:href="#ai"/>
<use x="231.787109" xlink:href="#v"/>
<use x="261.279297" xlink:href="#t"/>
<use x="331.103516" xlink:href="#v"/>
<use x="360.595703" xlink:href="#k"/>
</g>
</g>
<g clip-path="url(#a)">
<defs>
<path id="c" d="m12.406 8.2969h16.109v55.625l-17.531-3.5156v8.9844l17.438 3.5156h9.8594v-64.609h16.109v-8.2969h-41.984z"/>
</defs>
<g transform="translate(152.93 42.759) scale(.1 -.1)">
<use xlink:href="#c"/>
<use x="63.623047" xlink:href="#d"/>
<use x="95.410156" xlink:href="#c"/>
</g>
</g>
<g clip-path="url(#a)">
<defs>
<path id="p" d="m19.188 8.2969h34.422v-8.2969h-46.281v8.2969q5.6094 5.8125 15.297 15.594 9.7031 9.7969 12.188 12.641 4.7344 5.3125 6.6094 9 1.8906 3.6875 1.8906 7.25 0 5.8125-4.0781 9.4688-4.0781 3.6719-10.625 3.6719-4.6406 0-9.7969-1.6094-5.1406-1.6094-11-4.8906v9.9688q5.9531 2.3906 11.125 3.6094 5.1875 1.2188 9.4844 1.2188 11.328 0 18.062-5.6719 6.7344-5.6562 6.7344-15.125 0-4.5-1.6875-8.5312-1.6719-4.0156-6.125-9.4844-1.2188-1.4219-7.7656-8.1875-6.5312-6.7656-18.453-18.922z"/>
</defs>
<g transform="translate(68.048 730.68) scale(.1 -.1)">
<use xlink:href="#c"/>
<use x="63.623047" xlink:href="#d"/>
<use x="95.410156" xlink:href="#p"/>
</g>
</g>
<g clip-path="url(#a)">
<defs>
<path id="n" d="m40.578 39.312q7.0781-1.5156 11.047-6.3125 3.9844-4.7812 3.9844-11.812 0-10.781-7.4219-16.703-7.4219-5.9062-21.094-5.9062-4.5781 0-9.4375 0.90625t-10.031 2.7188v9.5156q4.0938-2.3906 8.9688-3.6094 4.8906-1.2188 10.219-1.2188 9.2656 0 14.125 3.6562t4.8594 10.641q0 6.4531-4.5156 10.078-4.5156 3.6406-12.562 3.6406h-8.5v8.1094h8.8906q7.2656 0 11.125 2.9062t3.8594 8.375q0 5.6094-3.9844 8.6094-3.9688 3.0156-11.391 3.0156-4.0625 0-8.7031-0.89062-4.6406-0.875-10.203-2.7188v8.7812q5.625 1.5625 10.531 2.3438t9.25 0.78125q11.234 0 17.766-5.1094 6.5469-5.0938 6.5469-13.781 0-6.0625-3.4688-10.234t-9.8594-5.7812z"/>
</defs>
<g transform="translate(103.55 502.79) scale(.1 -.1)">
<use xlink:href="#c"/>
<use x="63.623047" xlink:href="#d"/>
<use x="95.410156" xlink:href="#n"/>
</g>
</g>
<g clip-path="url(#a)">
<defs>
<path id="m" d="m37.797 64.312-24.906-38.922h24.906zm-2.5938 8.5938h12.406v-47.516h10.406v-8.2031h-10.406v-17.188h-9.8125v17.188h-32.906v9.5156z"/>
</defs>
<g transform="translate(287.2 158.1) scale(.1 -.1)">
<use xlink:href="#c"/>
<use x="63.623047" xlink:href="#d"/>
<use x="95.410156" xlink:href="#m"/>
</g>
</g>
<g clip-path="url(#a)">
<defs>
<path id="ac" d="m8.2031 72.906h46.875v-4.2031l-26.469-68.703h-10.297l24.906 64.594h-35.016z"/>
</defs>
<g transform="translate(132.02 730.68) scale(.1 -.1)">
<use xlink:href="#c"/>
<use x="63.623047" xlink:href="#d"/>
<use x="95.410156" xlink:href="#ac"/>
</g>
</g>
<g clip-path="url(#a)">
<defs>
<path id="ab" d="m31.781 34.625q-7.0312 0-11.062-3.7656-4.0156-3.7656-4.0156-10.344 0-6.5938 4.0156-10.359 4.0312-3.7656 11.062-3.7656t11.078 3.7812q4.0625 3.7969 4.0625 10.344 0 6.5781-4.0312 10.344-4.0156 3.7656-11.109 3.7656zm-9.8594 4.1875q-6.3438 1.5625-9.8906 5.9062-3.5312 4.3594-3.5312 10.609 0 8.7344 6.2188 13.812 6.2344 5.0781 17.062 5.0781 10.891 0 17.094-5.0781t6.2031-13.812q0-6.25-3.5469-10.609-3.5312-4.3438-9.8281-5.9062 7.125-1.6562 11.094-6.5 3.9844-4.8281 3.9844-11.797 0-10.609-6.4688-16.281-6.4688-5.6562-18.531-5.6562-12.047 0-18.531 5.6562-6.4688 5.6719-6.4688 16.281 0 6.9688 4 11.797 4.0156 4.8438 11.141 6.5zm-3.6094 15.578q0-5.6562 3.5312-8.8281 3.5469-3.1719 9.9375-3.1719 6.3594 0 9.9375 3.1719 3.5938 3.1719 3.5938 8.8281 0 5.6719-3.5938 8.8438-3.5781 3.1719-9.9375 3.1719-6.3906 0-9.9375-3.1719-3.5312-3.1719-3.5312-8.8438z"/>
</defs>
<g transform="translate(152.49 730.68) scale(.1 -.1)">
<use xlink:href="#c"/>
<use x="63.623047" xlink:href="#d"/>
<use x="95.410156" xlink:href="#ab"/>
</g>
</g>
<g clip-path="url(#a)">
<defs>
<path id="aa" d="m10.984 1.5156v8.9844q3.7188-1.7656 7.5156-2.6875 3.8125-0.92188 7.4844-0.92188 9.7656 0 14.906 6.5625 5.1562 6.5625 5.8906 19.953-2.8281-4.2031-7.1875-6.4531-4.3438-2.25-9.6094-2.25-10.938 0-17.312 6.6094-6.375 6.625-6.375 18.109 0 11.219 6.6406 18 6.6406 6.7969 17.672 6.7969 12.656 0 19.312-9.7031 6.6719-9.6875 6.6719-28.141 0-17.234-8.1875-27.516-8.1719-10.281-21.984-10.281-3.7188 0-7.5312 0.73438-3.7969 0.73438-7.9062 2.2031zm19.625 30.906q6.6406 0 10.516 4.5312 3.8906 4.5469 3.8906 12.469 0 7.8594-3.8906 12.422-3.875 4.5625-10.516 4.5625t-10.516-4.5625-3.875-12.422q0-7.9219 3.875-12.469 3.875-4.5312 10.516-4.5312z"/>
</defs>
<g transform="translate(188.32 502.79) scale(.1 -.1)">
<use xlink:href="#c"/>
<use x="63.623047" xlink:href="#d"/>
<use x="95.410156" xlink:href="#aa"/>
</g>
</g>
<g clip-path="url(#a)">
<defs>
<path id="ad" d="m31.781 66.406q-7.6094 0-11.453-7.5-3.8281-7.4844-3.8281-22.531 0-14.984 3.8281-22.484 3.8438-7.5 11.453-7.5 7.6719 0 11.5 7.5 3.8438 7.5 3.8438 22.484 0 15.047-3.8438 22.531-3.8281 7.5-11.5 7.5zm0 7.8125q12.266 0 18.734-9.7031 6.4688-9.6875 6.4688-28.141 0-18.406-6.4688-28.109-6.4688-9.6875-18.734-9.6875-12.25 0-18.719 9.6875-6.4688 9.7031-6.4688 28.109 0 18.453 6.4688 28.141 6.4688 9.7031 18.719 9.7031z"/>
</defs>
<g transform="translate(757.97 273.25) scale(.1 -.1)">
<use xlink:href="#c"/>
<use x="63.623047" xlink:href="#d"/>
<use x="95.410156" xlink:href="#c"/>
<use x="159.033203" xlink:href="#ad"/>
</g>
</g>
<g clip-path="url(#a)">
<g transform="translate(390.31 388.17) scale(.1 -.1)">
<use xlink:href="#c"/>
<use x="63.623047" xlink:href="#d"/>
<use x="95.410156" xlink:href="#c"/>
<use x="159.033203" xlink:href="#n"/>
</g>
</g>
<g clip-path="url(#a)">
<g transform="translate(1056.2 388.17) scale(.1 -.1)">
<use xlink:href="#c"/>
<use x="63.623047" xlink:href="#d"/>
<use x="95.410156" xlink:href="#c"/>
<use x="159.033203" xlink:href="#m"/>
</g>
</g>
<g clip-path="url(#a)">
<g transform="translate(891.4 730.68) scale(.1 -.1)">
<use xlink:href="#c"/>
<use x="63.623047" xlink:href="#d"/>
<use x="95.410156" xlink:href="#c"/>
<use x="159.033203" xlink:href="#ac"/>
</g>
</g>
<g clip-path="url(#a)">
<g transform="translate(957.93 730.68) scale(.1 -.1)">
<use xlink:href="#c"/>
<use x="63.623047" xlink:href="#d"/>
<use x="95.410156" xlink:href="#c"/>
<use x="159.033203" xlink:href="#ab"/>
</g>
</g>
<g clip-path="url(#a)">
<g transform="translate(1027 730.68) scale(.1 -.1)">
<use xlink:href="#c"/>
<use x="63.623047" xlink:href="#d"/>
<use x="95.410156" xlink:href="#c"/>
<use x="159.033203" xlink:href="#aa"/>
</g>
</g>
<g clip-path="url(#a)">
<g transform="translate(1348.3 502.79) scale(.1 -.1)">
<use xlink:href="#c"/>
<use x="63.623047" xlink:href="#d"/>
<use x="95.410156" xlink:href="#p"/>
<use x="159.033203" xlink:href="#ad"/>
</g>
</g>
<g clip-path="url(#a)">
<g transform="translate(1098.7 730.68) scale(.1 -.1)">
<use xlink:href="#c"/>
<use x="63.623047" xlink:href="#d"/>
<use x="95.410156" xlink:href="#p"/>
<use x="159.033203" xlink:href="#c"/>
</g>
</g>
<g clip-path="url(#a)">
<g transform="translate(1329.8 617.03) scale(.1 -.1)">
<use xlink:href="#c"/>
<use x="63.623047" xlink:href="#d"/>
<use x="95.410156" xlink:href="#p"/>
<use x="159.033203" xlink:href="#p"/>
</g>
</g>
<g clip-path="url(#a)">
<g transform="translate(1410.9 730.68) scale(.1 -.1)">
<use xlink:href="#c"/>
<use x="63.623047" xlink:href="#d"/>
<use x="95.410156" xlink:href="#p"/>
<use x="159.033203" xlink:href="#n"/>
</g>
</g>
<g clip-path="url(#a)">
<defs>
<path id="q" d="m10.797 72.906h38.719v-8.3125h-29.688v-17.859q2.1406 0.73438 4.2812 1.0938 2.1562 0.35938 4.3125 0.35938 12.203 0 19.328-6.6875 7.1406-6.6875 7.1406-18.109 0-11.766-7.3281-18.297-7.3281-6.5156-20.656-6.5156-4.5938 0-9.3594 0.78125-4.75 0.78125-9.8281 2.3438v9.9219q4.3906-2.3906 9.0781-3.5625t9.9062-1.1719q8.4531 0 13.375 4.4375 4.9375 4.4375 4.9375 12.062 0 7.6094-4.9375 12.047-4.9219 4.4531-13.375 4.4531-3.9531 0-7.8906-0.875-3.9219-0.875-8.0156-2.7344z"/>
</defs>
<g transform="translate(1249.6 730.68) scale(.1 -.1)">
<use xlink:href="#c"/>
<use x="63.623047" xlink:href="#d"/>
<use x="95.410156" xlink:href="#p"/>
<use x="159.033203" xlink:href="#q"/>
</g>
</g>
<g clip-path="url(#a)">
<g transform="translate(290.05 730.68) scale(.1 -.1)">
<use xlink:href="#c"/>
<use x="63.623047" xlink:href="#d"/>
<use x="95.410156" xlink:href="#p"/>
<use x="159.033203" xlink:href="#ac"/>
</g>
</g>
<g clip-path="url(#a)">
<g transform="translate(325.88 730.68) scale(.1 -.1)">
<use xlink:href="#c"/>
<use x="63.623047" xlink:href="#d"/>
<use x="95.410156" xlink:href="#p"/>
<use x="159.033203" xlink:href="#ab"/>
</g>
</g>
<g clip-path="url(#a)">
<g transform="translate(364.26 730.68) scale(.1 -.1)">
<use xlink:href="#c"/>
<use x="63.623047" xlink:href="#d"/>
<use x="95.410156" xlink:href="#p"/>
<use x="159.033203" xlink:href="#aa"/>
</g>
</g>
<g clip-path="url(#a)">
<g transform="translate(405.2 730.68) scale(.1 -.1)">
<use xlink:href="#c"/>
<use x="63.623047" xlink:href="#d"/>
<use x="95.410156" xlink:href="#n"/>
<use x="159.033203" xlink:href="#ad"/>
</g>
</g>
<g clip-path="url(#a)">
<g transform="translate(566.13 502.79) scale(.1 -.1)">
<use xlink:href="#c"/>
<use x="63.623047" xlink:href="#d"/>
<use x="95.410156" xlink:href="#n"/>
<use x="159.033203" xlink:href="#c"/>
</g>
</g>
<g clip-path="url(#a)">
<g transform="translate(448.71 730.68) scale(.1 -.1)">
<use xlink:href="#c"/>
<use x="63.623047" xlink:href="#d"/>
<use x="95.410156" xlink:href="#n"/>
<use x="159.033203" xlink:href="#n"/>
</g>
</g>
<g clip-path="url(#a)">
<g transform="translate(600.53 617.03) scale(.1 -.1)">
<use xlink:href="#c"/>
<use x="63.623047" xlink:href="#d"/>
<use x="95.410156" xlink:href="#n"/>
<use x="159.033203" xlink:href="#m"/>
</g>
</g>
<g clip-path="url(#a)">
<g transform="translate(649.15 617.03) scale(.1 -.1)">
<use xlink:href="#c"/>
<use x="63.623047" xlink:href="#d"/>
<use x="95.410156" xlink:href="#n"/>
<use x="159.033203" xlink:href="#q"/>
</g>
</g>
<g clip-path="url(#a)">
<defs>
<path id="ak" d="m33.016 40.375q-6.6406 0-10.531-4.5469-3.875-4.5312-3.875-12.438 0-7.8594 3.875-12.438 3.8906-4.5625 10.531-4.5625t10.516 4.5625q3.875 4.5781 3.875 12.438 0 7.9062-3.875 12.438-3.875 4.5469-10.516 4.5469zm19.578 30.922v-8.9844q-3.7188 1.75-7.5 2.6719-3.7812 0.9375-7.5 0.9375-9.7656 0-14.922-6.5938-5.1406-6.5938-5.875-19.922 2.875 4.25 7.2188 6.5156 4.3594 2.2656 9.5781 2.2656 10.984 0 17.359-6.6719 6.375-6.6562 6.375-18.125 0-11.234-6.6406-18.031-6.6406-6.7812-17.672-6.7812-12.656 0-19.344 9.6875-6.6875 9.7031-6.6875 28.109 0 17.281 8.2031 27.562t22.016 10.281q3.7188 0 7.5-0.73438t7.8906-2.1875z"/>
</defs>
<g transform="translate(594.56 730.68) scale(.1 -.1)">
<use xlink:href="#c"/>
<use x="63.623047" xlink:href="#d"/>
<use x="95.410156" xlink:href="#n"/>
<use x="159.033203" xlink:href="#ak"/>
</g>
</g>
<g clip-path="url(#a)">
<g transform="translate(648.3 730.68) scale(.1 -.1)">
<use xlink:href="#c"/>
<use x="63.623047" xlink:href="#d"/>
<use x="95.410156" xlink:href="#n"/>
<use x="159.033203" xlink:href="#ac"/>
</g>
</g>
<g clip-path="url(#a)">
<g transform="translate(704.6 730.68) scale(.1 -.1)">
<use xlink:href="#c"/>
<use x="63.623047" xlink:href="#d"/>
<use x="95.410156" xlink:href="#n"/>
<use x="159.033203" xlink:href="#ab"/>
</g>
</g>
<g clip-path="url(#a)">
<g transform="translate(494.77 730.68) scale(.1 -.1)">
<use xlink:href="#c"/>
<use x="63.623047" xlink:href="#d"/>
<use x="95.410156" xlink:href="#n"/>
<use x="159.033203" xlink:href="#aa"/>
</g>
</g>
<g clip-path="url(#a)">
<g transform="translate(543.39 730.68) scale(.1 -.1)">
<use xlink:href="#c"/>
<use x="63.623047" xlink:href="#d"/>
<use x="95.410156" xlink:href="#m"/>
<use x="159.033203" xlink:href="#ad"/>
</g>
</g>
<g clip-path="url(#a)">
<g transform="translate(763.45 730.68) scale(.1 -.1)">
<use xlink:href="#c"/>
<use x="63.623047" xlink:href="#d"/>
<use x="95.410156" xlink:href="#m"/>
<use x="159.033203" xlink:href="#c"/>
</g>
</g>
<g clip-path="url(#a)">
<g transform="translate(185.14 617.03) scale(.1 -.1)">
<use xlink:href="#c"/>
<use x="63.623047" xlink:href="#d"/>
<use x="95.410156" xlink:href="#m"/>
<use x="159.033203" xlink:href="#p"/>
</g>
</g>
<g clip-path="url(#a)">
<g transform="translate(172.34 730.68) scale(.1 -.1)">
<use xlink:href="#c"/>
<use x="63.623047" xlink:href="#d"/>
<use x="95.410156" xlink:href="#m"/>
<use x="159.033203" xlink:href="#n"/>
</g>
</g>
<g clip-path="url(#a)">
<g transform="translate(197.93 730.68) scale(.1 -.1)">
<use xlink:href="#c"/>
<use x="63.623047" xlink:href="#d"/>
<use x="95.410156" xlink:href="#m"/>
<use x="159.033203" xlink:href="#m"/>
</g>
</g>
<g clip-path="url(#a)">
<g transform="translate(72.544 730.68) scale(.1 -.1)">
<use xlink:href="#c"/>
<use x="63.623047" xlink:href="#d"/>
<use x="95.410156" xlink:href="#m"/>
<use x="159.033203" xlink:href="#q"/>
</g>
</g>
<g clip-path="url(#a)">
<g transform="translate(89.177 617.03) scale(.1 -.1)">
<use xlink:href="#c"/>
<use x="63.623047" xlink:href="#d"/>
<use x="95.410156" xlink:href="#m"/>
<use x="159.033203" xlink:href="#ak"/>
</g>
</g>
<g clip-path="url(#a)">
<g transform="translate(110.93 730.68) scale(.1 -.1)">
<use xlink:href="#c"/>
<use x="63.623047" xlink:href="#d"/>
<use x="95.410156" xlink:href="#m"/>
<use x="159.033203" xlink:href="#ac"/>
</g>
</g>
<g clip-path="url(#a)">
<g transform="translate(82.78 730.68) scale(.1 -.1)">
<use xlink:href="#c"/>
<use x="63.623047" xlink:href="#d"/>
<use x="95.410156" xlink:href="#m"/>
<use x="159.033203" xlink:href="#ab"/>
</g>
</g>
<g clip-path="url(#a)">
<g transform="translate(95.574 730.68) scale(.1 -.1)">
<use xlink:href="#c"/>
<use x="63.623047" xlink:href="#d"/>
<use x="95.410156" xlink:href="#m"/>
<use x="159.033203" xlink:href="#aa"/>
</g>
</g>
<g clip-path="url(#a)">
<g transform="translate(226.08 730.68) scale(.1 -.1)">
<use xlink:href="#c"/>
<use x="63.623047" xlink:href="#d"/>
<use x="95.410156" xlink:href="#q"/>
<use x="159.033203" xlink:href="#ad"/>
</g>
</g>
<g clip-path="url(#a)">
<g transform="translate(256.79 730.68) scale(.1 -.1)">
<use xlink:href="#c"/>
<use x="63.623047" xlink:href="#d"/>
<use x="95.410156" xlink:href="#q"/>
<use x="159.033203" xlink:href="#c"/>
</g>
</g>
<g clip-path="url(#a)">
<g transform="translate(827.43 730.68) scale(.1 -.1)">
<use xlink:href="#c"/>
<use x="63.623047" xlink:href="#d"/>
<use x="95.410156" xlink:href="#q"/>
<use x="159.033203" xlink:href="#p"/>
</g>
</g>
<g clip-path="url(#a)">
<g transform="translate(1172.9 730.68) scale(.1 -.1)">
<use xlink:href="#c"/>
<use x="63.623047" xlink:href="#d"/>
<use x="95.410156" xlink:href="#q"/>
<use x="159.033203" xlink:href="#n"/>
</g>
</g>
<g clip-path="url(#a)">
<g transform="translate(1329 730.68) scale(.1 -.1)">
<use xlink:href="#c"/>
<use x="63.623047" xlink:href="#d"/>
<use x="95.410156" xlink:href="#q"/>
<use x="159.033203" xlink:href="#m"/>
</g>
</g>
<g clip-path="url(#a)">
<g transform="translate(1495.3 730.68) scale(.1 -.1)">
<use xlink:href="#c"/>
<use x="63.623047" xlink:href="#d"/>
<use x="95.410156" xlink:href="#q"/>
<use x="159.033203" xlink:href="#q"/>
</g>
</g>
<g clip-path="url(#a)">
<g transform="translate(1582.3 730.68) scale(.1 -.1)">
<use xlink:href="#c"/>
<use x="63.623047" xlink:href="#d"/>
<use x="95.410156" xlink:href="#q"/>
<use x="159.033203" xlink:href="#ak"/>
</g>
</g>
<defs>
<clipPath id="a">
<rect width="1672" height="880"/>
</clipPath>
</defs>
</svg>
