<?xml version="1.0" encoding="UTF-8"?>
<!DOCTYPE svg  PUBLIC '-//W3C//DTD SVG 1.1//EN'  'http://www.w3.org/Graphics/SVG/1.1/DTD/svg11.dtd'>
<svg width="1317.3pt" height="693.33pt" version="1.1" viewBox="0 0 1317.3 693.33" xmlns="http://www.w3.org/2000/svg" xmlns:xlink="http://www.w3.org/1999/xlink">
<defs>
<style type="text/css">*{stroke-linecap:butt;stroke-linejoin:round;}</style>
</defs>
<path d="m0 693.33h1317.3v-693.33h-1317.3z" fill="#fff"/>
<g fill="none" stroke="#000">
<path d="m401.91 31.515-184.66 127.18" clip-path="url(#a)"/>
<path d="m401.91 31.515-16.289 506.26" clip-path="url(#a)"/>
<path d="m401.91 31.515 261.95 127.18" clip-path="url(#a)"/>
<path d="m401.91 31.515-60.999 506.26" clip-path="url(#a)"/>
<path d="m217.25 158.7-118.69 126.86" clip-path="url(#a)"/>
<path d="m217.25 158.7-7.2742 253.3" clip-path="url(#a)"/>
<path d="m217.25 158.7 43.822 379.07" clip-path="url(#a)"/>
<path d="m217.25 158.7 82.145 379.07" clip-path="url(#a)"/>
<path d="m385.62 537.77v124.05" clip-path="url(#a)"/>
<path d="m663.86 158.7-204.79 253.3" clip-path="url(#a)"/>
<path d="m663.86 158.7-67.463 379.07" clip-path="url(#a)"/>
<path d="m663.86 158.7-6.7863 379.07" clip-path="url(#a)"/>
<path d="m663.86 158.7 90.617 253.3" clip-path="url(#a)"/>
<path d="m663.86 158.7 313.37 126.86" clip-path="url(#a)"/>
<path d="m663.86 158.7-124.95 379.07" clip-path="url(#a)"/>
<path d="m459.07 412-25.548 125.77" clip-path="url(#a)"/>
<path d="m459.07 412 25.548 125.77" clip-path="url(#a)"/>
<path d="m596.39 537.77v124.05" clip-path="url(#a)"/>
<path d="m657.07 537.77v124.05" clip-path="url(#a)"/>
<path d="m754.47 412-33.532 125.77" clip-path="url(#a)"/>
<path d="m754.47 412 33.532 125.77" clip-path="url(#a)"/>
<path d="m977.22 285.56-380.83 252.21" clip-path="url(#a)" stroke-dasharray="3.7,1.6"/>
<path d="m977.22 285.56-118.96 252.21" clip-path="url(#a)"/>
<path d="m977.22 285.56-45.508 252.21" clip-path="url(#a)"/>
<path d="m977.22 285.56 71.056 126.43" clip-path="url(#a)"/>
<path d="m977.22 285.56 194.01 252.21" clip-path="url(#a)"/>
<path d="m977.22 285.56 280.23 252.21" clip-path="url(#a)"/>
<path d="m858.26 537.77v124.05" clip-path="url(#a)"/>
<path d="m931.71 537.77v124.05" clip-path="url(#a)"/>
<path d="m1048.3 412-39.919 125.77" clip-path="url(#a)"/>
<path d="m1048.3 412 39.919 125.77" clip-path="url(#a)"/>
<path d="m1171.2 537.77v124.05" clip-path="url(#a)"/>
<path d="m1008.4 537.77v124.05" clip-path="url(#a)"/>
<path d="m1088.2 537.77v124.05" clip-path="url(#a)"/>
<path d="m720.94 537.77v124.05" clip-path="url(#a)"/>
<path d="m788 537.77v124.05" clip-path="url(#a)"/>
<path d="m433.52 537.77v124.05" clip-path="url(#a)"/>
<path d="m484.62 537.77v124.05" clip-path="url(#a)"/>
<path d="m98.556 285.56-33.887 126.43" clip-path="url(#a)"/>
<path d="m98.556 285.56-8.3387 126.43" clip-path="url(#a)"/>
<path d="m98.556 285.56 42.226 126.43" clip-path="url(#a)"/>
<path d="m209.97 412-15.968 125.77" clip-path="url(#a)"/>
<path d="m209.97 412 15.968 125.77" clip-path="url(#a)"/>
<path d="m261.07 537.77v124.05" clip-path="url(#a)"/>
<path d="m299.39 537.77v124.05" clip-path="url(#a)"/>
<path d="m194.01 537.77v124.05" clip-path="url(#a)"/>
<path d="m225.94 537.77v124.05" clip-path="url(#a)"/>
<path d="m64.669 412-4.7903 125.77" clip-path="url(#a)"/>
<path d="m64.669 412 4.7903 125.77" clip-path="url(#a)"/>
<path d="m90.217 412-7.9838 125.77" clip-path="url(#a)"/>
<path d="m90.217 412 7.9838 125.77" clip-path="url(#a)"/>
<path d="m140.78 412-23.419 125.77" clip-path="url(#a)"/>
<path d="m140.78 412-1.0645 125.77" clip-path="url(#a)"/>
<path d="m140.78 412 24.484 125.77" clip-path="url(#a)"/>
<path d="m117.36 537.77v124.05" clip-path="url(#a)"/>
<path d="m139.72 537.77v124.05" clip-path="url(#a)"/>
<path d="m165.27 537.77v124.05" clip-path="url(#a)"/>
<path d="m82.234 537.77v124.05" clip-path="url(#a)"/>
<path d="m98.201 537.77v124.05" clip-path="url(#a)"/>
<path d="m59.879 537.77v124.05" clip-path="url(#a)"/>
<path d="m69.459 537.77v124.05" clip-path="url(#a)"/>
<path d="m340.91 537.77v124.05" clip-path="url(#a)"/>
<path d="m538.91 537.77v124.05" clip-path="url(#a)"/>
<path d="m1257.5 537.77v124.05" clip-path="url(#a)"/>
</g>
<path d="m310.66 101.98 4.9547-3.4126q1.9765-1.3613 0.6152-3.3379l-4.3918-6.3764q-1.3613-1.9765-3.3379-0.6152l-4.9547 3.4126q-1.9765 1.3613-0.6152 3.3379l4.3918 6.3764q1.3613 1.9765 3.3379 0.6152z" clip-path="url(#a)" fill="#fff" stroke="#fff"/>
<g clip-path="url(#a)">
<defs>
<path id="ac" d="m9.8125 72.906h9.8594v-29.891h35.844v29.891h9.8594v-72.906h-9.8594v34.719h-35.844v-34.719h-9.8594z"/>
</defs>
<g transform="translate(308.35 98.632) rotate(-34.557) scale(.08 -.08)">
<use xlink:href="#ac"/>
</g>
</g>
<path d="m399.96 287.07 0.14335-4.4552q0.077183-2.3988-2.3216-2.4759l-7.7385-0.24899q-2.3988-0.077182-2.4759 2.3216l-0.14335 4.4552q-0.077183 2.3988 2.3216 2.4759l7.7385 0.24899q2.3988 0.077183 2.4759-2.3216z" clip-path="url(#a)" fill="#fff" stroke="#fff"/>
<g clip-path="url(#a)">
<defs>
<path id="ao" d="m9.8125 72.906h9.8594v-64.609h35.5v-8.2969h-45.359z"/>
</defs>
<g transform="translate(395.9 286.94) rotate(-88.157) scale(.08 -.08)">
<use xlink:href="#ao"/>
</g>
</g>
<path d="m527.44 99.435 5.412 2.6277q2.159 1.0483 3.2072-1.1107l3.3817-6.9649q1.0483-2.159-1.1107-3.2072l-5.412-2.6277q-2.159-1.0483-3.2072 1.1107l-3.3817 6.9649q-1.0483 2.159 1.1107 3.2072z" clip-path="url(#a)" fill="#fff" stroke="#fff"/>
<g clip-path="url(#a)">
<g transform="translate(529.21 95.779) rotate(25.898) scale(.08 -.08)">
<use xlink:href="#ac"/>
</g>
</g>
<path d="m377.29 288.3 0.7004-5.813q0.2871-2.3828-2.0957-2.6699l-7.6869-0.9262q-2.3828-0.2871-2.6699 2.0957l-0.7004 5.813q-0.2871 2.3828 2.0957 2.6699l7.6869 0.9262q2.3828 0.2871 2.6699-2.0957z" clip-path="url(#a)" fill="#fff" stroke="#fff"/>
<g clip-path="url(#a)">
<defs>
<path id="ab" d="m8.6875 72.906h9.9219v-44.297q0-11.719 4.2344-16.875 4.25-5.1406 13.781-5.1406 9.4688 0 13.719 5.1406 4.25 5.1562 4.25 16.875v44.297h9.9062v-45.516q0-14.25-7.0625-21.531-7.0469-7.2812-20.812-7.2812-13.828 0-20.891 7.2812-7.0469 7.2812-7.0469 21.531z"/>
</defs>
<g transform="translate(373.25 287.81) rotate(-83.13) scale(.08 -.08)">
<use xlink:href="#ab"/>
</g>
</g>
<path d="m160.61 228.41 3.7388-3.9962q1.6397-1.7526-0.11287-3.3922l-5.6538-5.2897q-1.7526-1.6397-3.3922 0.11287l-3.7388 3.9962q-1.6397 1.7526 0.11287 3.3922l5.6538 5.2897q1.7526 1.6397 3.3922-0.11287z" clip-path="url(#a)" fill="#fff" stroke="#fff"/>
<g clip-path="url(#a)">
<defs>
<path id="r" d="m34.188 63.188-13.391-36.281h26.812zm-5.5781 9.7188h11.188l27.781-72.906h-10.25l-6.6406 18.703h-32.859l-6.6406-18.703h-10.406z"/>
</defs>
<g transform="translate(157.65 225.64) rotate(-46.906) scale(.08 -.08)">
<use xlink:href="#r"/>
</g>
</g>
<path d="m219.81 287.97 0.14027-4.8842q0.068894-2.399-2.3301-2.4679l-7.7393-0.22226q-2.399-0.068895-2.4679 2.3301l-0.14026 4.8842q-0.068894 2.399 2.3301 2.4679l7.7393 0.22226q2.399 0.068895 2.4679-2.3301z" clip-path="url(#a)" fill="#fff" stroke="#fff"/>
<g clip-path="url(#a)">
<defs>
<path id="j" d="m-0.29688 72.906h61.672v-8.3125h-25.875v-64.594h-9.9062v64.594h-25.891z"/>
</defs>
<g transform="translate(215.75 287.85) rotate(-88.355) scale(.08 -.08)">
<use xlink:href="#j"/>
</g>
</g>
<path d="m232.58 345.9 0.70741 6.1192q0.27562 2.3841 2.6597 2.1085l7.6913-0.88915q2.3841-0.27562 2.1085-2.6597l-0.70742-6.1192q-0.27562-2.3841-2.6597-2.1085l-7.6913 0.88915q-2.3841 0.27562-2.1085 2.6597z" clip-path="url(#a)" fill="#fff" stroke="#fff"/>
<g clip-path="url(#a)">
<defs>
<path id="ae" d="m19.672 64.797v-56.688h11.922q15.094 0 22.094 6.8281 7 6.8438 7 21.594 0 14.641-7 21.453t-22.094 6.8125zm-9.8594 8.1094h20.266q21.188 0 31.094-8.8125 9.9219-8.8125 9.9219-27.562 0-18.859-9.9688-27.703-9.9531-8.8281-31.047-8.8281h-20.266z"/>
</defs>
<g transform="translate(236.61 345.43) rotate(83.406) scale(.08 -.08)">
<use xlink:href="#ae"/>
</g>
</g>
<path d="m251.68 347.21 1.0216 4.7143q0.50828 2.3456 2.8538 1.8373l7.5669-1.6397q2.3456-0.50828 1.8373-2.8538l-1.0216-4.7143q-0.50828-2.3456-2.8538-1.8373l-7.5669 1.6397q-2.3456 0.50828-1.8373 2.8538z" clip-path="url(#a)" fill="#fff" stroke="#fff"/>
<g clip-path="url(#a)">
<defs>
<path id="x" d="m19.672 64.797v-27.391h12.406q6.8906 0 10.641 3.5625 3.7656 3.5625 3.7656 10.156 0 6.5469-3.7656 10.109-3.75 3.5625-10.641 3.5625zm-9.8594 8.1094h22.266q12.266 0 18.531-5.5469 6.2812-5.5469 6.2812-16.234 0-10.797-6.2812-16.312-6.2656-5.5156-18.531-5.5156h-12.406v-29.297h-9.8594z"/>
</defs>
<g transform="translate(255.65 346.35) rotate(77.773) scale(.08 -.08)">
<use xlink:href="#x"/>
</g>
</g>
<path d="m379.35 582.89v33.808q0 2.4 2.4 2.4h7.7425q2.4 0 2.4-2.4v-33.808q0-2.4-2.4-2.4h-7.7425q-2.4 0-2.4 2.4z" clip-path="url(#a)" fill="#fff" stroke="#fff"/>
<g clip-path="url(#a)">
<defs>
<path id="d" d="m56.203 29.594v-4.3906h-41.312q0.59375-9.2812 5.5938-14.141t13.938-4.8594q5.1719 0 10.031 1.2656t9.6562 3.8125v-8.5q-4.8438-2.0469-9.9219-3.125t-10.297-1.0781q-13.094 0-20.734 7.6094-7.6406 7.625-7.6406 20.625 0 13.422 7.25 21.297 7.25 7.8906 19.562 7.8906 11.031 0 17.453-7.1094 6.4219-7.0938 6.4219-19.297zm-8.9844 2.6406q-0.09375 7.3594-4.125 11.75-4.0312 4.4062-10.672 4.4062-7.5156 0-12.031-4.25t-5.2031-11.969z"/>
<path id="k" d="m41.109 46.297q-1.5156 0.875-3.2969 1.2812-1.7812 0.42188-3.9219 0.42188-7.625 0-11.703-4.9531t-4.0781-14.234v-28.812h-9.0312v54.688h9.0312v-8.5q2.8438 4.9844 7.375 7.3906 4.5469 2.4219 11.047 2.4219 0.92188 0 2.0469-0.125 1.125-0.10938 2.4844-0.35938z"/>
<path id="l" d="m52 44.188q3.375 6.0625 8.0625 8.9375t11.031 2.875q8.5469 0 13.188-5.9844 4.6406-5.9688 4.6406-17v-33.016h-9.0312v32.719q0 7.8594-2.7969 11.656-2.7812 3.8125-8.4844 3.8125-6.9844 0-11.047-4.6406-4.0469-4.625-4.0469-12.641v-30.906h-9.0312v32.719q0 7.9062-2.7812 11.688t-8.5938 3.7812q-6.8906 0-10.953-4.6562-4.0469-4.6562-4.0469-12.625v-30.906h-9.0312v54.688h9.0312v-8.5q3.0781 5.0312 7.375 7.4219t10.203 2.3906q5.9688 0 10.141-3.0312 4.1719-3.0156 6.1719-8.7812z"/>
<path id="g" d="m9.4219 54.688h8.9844v-54.688h-8.9844zm0 21.297h8.9844v-11.391h-8.9844z"/>
<path id="f" d="m54.891 33.016v-33.016h-8.9844v32.719q0 7.7656-3.0312 11.609-3.0312 3.8594-9.0781 3.8594-7.2812 0-11.484-4.6406-4.2031-4.625-4.2031-12.641v-30.906h-9.0312v54.688h9.0312v-8.5q3.2344 4.9375 7.5938 7.375 4.375 2.4375 10.094 2.4375 9.4219 0 14.25-5.8281 4.8438-5.8281 4.8438-17.156z"/>
<path id="h" d="m34.281 27.484q-10.891 0-15.094-2.4844t-4.2031-8.5q0-4.7812 3.1562-7.5938 3.1562-2.7969 8.5625-2.7969 7.4844 0 12 5.2969t4.5156 14.078v2zm17.922 3.7188v-31.203h-8.9844v8.2969q-3.0781-4.9688-7.6719-7.3438t-11.234-2.375q-8.3906 0-13.359 4.7188-4.9531 4.7188-4.9531 12.625 0 9.2188 6.1719 13.906 6.1875 4.6875 18.438 4.6875h12.609v0.89062q0 6.2031-4.0781 9.5938t-11.453 3.3906q-4.6875 0-9.1406-1.125-4.4375-1.125-8.5312-3.375v8.3125q4.9219 1.9062 9.5625 2.8438 4.6406 0.95312 9.0312 0.95312 11.875 0 17.734-6.1562 5.8594-6.1406 5.8594-18.641z"/>
<path id="i" d="m9.4219 75.984h8.9844v-75.984h-8.9844z"/>
</defs>
<g transform="translate(383.41 582.89) rotate(90) scale(.08 -.08)">
<use xlink:href="#j"/>
<use x="44.083984" xlink:href="#d"/>
<use x="105.607422" xlink:href="#k"/>
<use x="144.970703" xlink:href="#l"/>
<use x="242.382812" xlink:href="#g"/>
<use x="270.166016" xlink:href="#f"/>
<use x="333.544922" xlink:href="#h"/>
<use x="394.824219" xlink:href="#i"/>
</g>
</g>
<path d="m564.8 291.19 3.072-3.7998q1.5089-1.8663-0.35744-3.3752l-6.0209-4.8678q-1.8663-1.5089-3.3752 0.35744l-3.072 3.7998q-1.5089 1.8663 0.35744 3.3752l6.0209 4.8678q1.8663 1.5089 3.3752-0.35744z" clip-path="url(#a)" fill="#fff" stroke="#fff"/>
<g clip-path="url(#a)">
<g transform="translate(561.64 288.64) rotate(-51.045) scale(.08 -.08)">
<use xlink:href="#j"/>
</g>
</g>
<path d="m635.82 352.03 0.95888-5.3878q0.42052-2.3629-1.9423-2.7834l-7.6227-1.3566q-2.3629-0.42052-2.7834 1.9424l-0.95888 5.3878q-0.42052 2.3629 1.9424 2.7834l7.6227 1.3566q2.3629 0.42052 2.7834-1.9424z" clip-path="url(#a)" fill="#fff" stroke="#fff"/>
<g clip-path="url(#a)">
<g transform="translate(631.82 351.32) rotate(-79.909) scale(.08 -.08)">
<use xlink:href="#r"/>
</g>
</g>
<path d="m666.69 350.76 0.086343-4.823q0.042959-2.3996-2.3567-2.4426l-7.7413-0.13859q-2.3996-0.042959-2.4426 2.3567l-0.086342 4.823q-0.042959 2.3996 2.3567 2.4426l7.7413 0.13859q2.3996 0.042959 2.4426-2.3567z" clip-path="url(#a)" fill="#fff" stroke="#fff"/>
<g clip-path="url(#a)">
<g transform="translate(662.63 350.69) rotate(-88.974) scale(.08 -.08)">
<use xlink:href="#x"/>
</g>
</g>
<path d="m702.34 284.88 1.8434 5.1527q0.80842 2.2597 3.0682 1.4513l7.29-2.608q2.2597-0.80842 1.4513-3.0682l-1.8434-5.1527q-0.80842-2.2597-3.0682-1.4513l-7.29 2.608q-2.2597 0.80842-1.4513 3.0682z" clip-path="url(#a)" fill="#fff" stroke="#fff"/>
<g clip-path="url(#a)">
<g transform="translate(706.16 283.52) rotate(70.315) scale(.08 -.08)">
<use xlink:href="#r"/>
</g>
</g>
<path d="m815.65 226.92 5.0726 2.0536q2.2246 0.90062 3.1252-1.324l2.9054-7.1767q0.90062-2.2246-1.324-3.1252l-5.0726-2.0536q-2.2246-0.90062-3.1252 1.324l-2.9054 7.1767q-0.90062 2.2246 1.324 3.1252z" clip-path="url(#a)" fill="#fff" stroke="#fff"/>
<g clip-path="url(#a)">
<g transform="translate(817.17 223.15) rotate(22.04) scale(.08 -.08)">
<use xlink:href="#r"/>
</g>
</g>
<path d="m606.42 352.98 1.8329-5.5607q0.75131-2.2794-1.5281-3.0307l-7.3533-2.4238q-2.2794-0.75131-3.0307 1.5281l-1.8329 5.5607q-0.75131 2.2794 1.5281 3.0307l7.3533 2.4238q2.2794 0.75131 3.0307-1.5281z" clip-path="url(#a)" fill="#fff" stroke="#fff"/>
<g clip-path="url(#a)">
<g transform="translate(602.56 351.71) rotate(-71.757) scale(.08 -.08)">
<use xlink:href="#ab"/>
</g>
</g>
<path d="m451.89 478.86 1.1065-5.4475q0.47775-2.352-1.8742-2.8297l-7.5875-1.5413q-2.352-0.47775-2.8297 1.8742l-1.1065 5.4475q-0.47775 2.352 1.8742 2.8297l7.5875 1.5413q2.352 0.47775 2.8297-1.8742z" clip-path="url(#a)" fill="#fff" stroke="#fff"/>
<g clip-path="url(#a)">
<defs>
<path id="t" d="m44.391 34.188q3.1719-1.0781 6.1719-4.5938t6.0312-9.6719l10.016-19.922h-10.609l-9.3125 18.703q-3.625 7.3281-7.0156 9.7188t-9.25 2.3906h-10.75v-30.812h-9.8594v72.906h22.266q12.5 0 18.656-5.2344 6.1562-5.2188 6.1562-15.766 0-6.8906-3.2031-11.438-3.2031-4.5312-9.2969-6.2812zm-24.719 30.609v-25.875h12.406q7.125 0 10.766 3.2969t3.6406 9.6875-3.6406 9.6406-10.766 3.25z"/>
</defs>
<g transform="translate(447.91 478.05) rotate(-78.518) scale(.08 -.08)">
<use xlink:href="#t"/>
</g>
</g>
<path d="m465.14 473.39 1.112 5.4744q0.47775 2.352 2.8297 1.8742l7.5875-1.5413q2.352-0.47775 1.8742-2.8297l-1.112-5.4744q-0.47775-2.352-2.8297-1.8742l-7.5875 1.5413q-2.352 0.47775-1.8742 2.8297z" clip-path="url(#a)" fill="#fff" stroke="#fff"/>
<g clip-path="url(#a)">
<defs>
<path id="q" d="m64.406 67.281v-10.391q-4.9844 4.6406-10.625 6.9219-5.6406 2.2969-11.984 2.2969-12.5 0-19.141-7.6406t-6.6406-22.094q0-14.406 6.6406-22.047t19.141-7.6406q6.3438 0 11.984 2.2969t10.625 6.9375v-10.312q-5.1719-3.5156-10.969-5.2812-5.7812-1.75-12.219-1.75-16.562 0-26.094 10.125-9.5156 10.141-9.5156 27.672 0 17.578 9.5156 27.703 9.5312 10.141 26.094 10.141 6.5312 0 12.312-1.7344 5.7969-1.7344 10.875-5.2031z"/>
</defs>
<g transform="translate(469.13 472.59) rotate(78.518) scale(.08 -.08)">
<use xlink:href="#q"/>
</g>
</g>
<path d="m590.12 582.89v33.808q0 2.4 2.4 2.4h7.7425q2.4 0 2.4-2.4v-33.808q0-2.4-2.4-2.4h-7.7425q-2.4 0-2.4 2.4z" clip-path="url(#a)" fill="#fff" stroke="#fff"/>
<g clip-path="url(#a)">
<g transform="translate(594.19 582.89) rotate(90) scale(.08 -.08)">
<use xlink:href="#j"/>
<use x="44.083984" xlink:href="#d"/>
<use x="105.607422" xlink:href="#k"/>
<use x="144.970703" xlink:href="#l"/>
<use x="242.382812" xlink:href="#g"/>
<use x="270.166016" xlink:href="#f"/>
<use x="333.544922" xlink:href="#h"/>
<use x="394.824219" xlink:href="#i"/>
</g>
</g>
<path d="m650.8 582.89v33.808q0 2.4 2.4 2.4h7.7425q2.4 0 2.4-2.4v-33.808q0-2.4-2.4-2.4h-7.7425q-2.4 0-2.4 2.4z" clip-path="url(#a)" fill="#fff" stroke="#fff"/>
<g clip-path="url(#a)">
<g transform="translate(654.86 582.89) rotate(90) scale(.08 -.08)">
<use xlink:href="#j"/>
<use x="44.083984" xlink:href="#d"/>
<use x="105.607422" xlink:href="#k"/>
<use x="144.970703" xlink:href="#l"/>
<use x="242.382812" xlink:href="#g"/>
<use x="270.166016" xlink:href="#f"/>
<use x="333.544922" xlink:href="#h"/>
<use x="394.824219" xlink:href="#i"/>
</g>
</g>
<path d="m743.05 479.18 1.432-5.3711q0.61826-2.319-1.7007-2.9373l-7.4812-1.9945q-2.319-0.61826-2.9373 1.7007l-1.432 5.3711q-0.61826 2.319 1.7007 2.9373l7.4812 1.9945q2.319 0.61826 2.9373-1.7007z" clip-path="url(#a)" fill="#fff" stroke="#fff"/>
<g clip-path="url(#a)">
<g transform="translate(739.12 478.14) rotate(-75.072) scale(.08 -.08)">
<use xlink:href="#t"/>
</g>
</g>
<path d="m764.46 473.8 1.4391 5.3977q0.61826 2.319 2.9373 1.7007l7.4812-1.9945q2.319-0.61826 1.7007-2.9373l-1.4391-5.3977q-0.61826-2.319-2.9373-1.7007l-7.4812 1.9945q-2.319 0.61826-1.7007 2.9373z" clip-path="url(#a)" fill="#fff" stroke="#fff"/>
<g clip-path="url(#a)">
<g transform="translate(768.39 472.75) rotate(75.072) scale(.08 -.08)">
<use xlink:href="#q"/>
</g>
</g>
<path d="m787.99 418.41 4.5627-3.0217q2.001-1.3252 0.67582-3.3261l-4.275-6.4553q-1.3252-2.001-3.3262-0.67582l-4.5627 3.0217q-2.001 1.3252-0.67582 3.3261l4.275 6.4553q1.3252 2.001 3.3261 0.67582z" clip-path="url(#a)" fill="#fff" stroke="#fff"/>
<g clip-path="url(#a)">
<g transform="translate(785.74 415.02) rotate(-33.515) scale(.08 -.08)">
<use xlink:href="#r"/>
</g>
</g>
<path d="m922.23 416.86 2.3714-5.0276q1.0238-2.1707-1.1468-3.1945l-7.0026-3.303q-2.1707-1.0238-3.1945 1.1468l-2.3714 5.0276q-1.0238 2.1707 1.1468 3.1945l7.0026 3.303q2.1707 1.0238 3.1945-1.1468z" clip-path="url(#a)" fill="#fff" stroke="#fff"/>
<g clip-path="url(#a)">
<g transform="translate(918.55 415.12) rotate(-64.748) scale(.08 -.08)">
<use xlink:href="#t"/>
</g>
</g>
<path d="m960.09 415.81 1.0938-6.0621q0.42617-2.3619-1.9357-2.788l-7.6195-1.3748q-2.3619-0.42617-2.788 1.9357l-1.0938 6.0621q-0.42617 2.3619 1.9357 2.788l7.6195 1.3748q2.3619 0.42617 2.788-1.9357z" clip-path="url(#a)" fill="#fff" stroke="#fff"/>
<g clip-path="url(#a)">
<g transform="translate(956.09 415.09) rotate(-79.772) scale(.08 -.08)">
<use xlink:href="#ae"/>
</g>
</g>
<path d="m1005.8 349.17 3.018 5.37q1.1758 2.0922 3.2681 0.91638l6.7496-3.7933q2.0922-1.1758 0.91638-3.2681l-3.018-5.37q-1.1758-2.0922-3.2681-0.91638l-6.7496 3.7933q-2.0922 1.1758-0.91638 3.2681z" clip-path="url(#a)" fill="#fff" stroke="#fff"/>
<g clip-path="url(#a)">
<g transform="translate(1009.3 347.18) rotate(60.664) scale(.08 -.08)">
<use xlink:href="#ae"/>
</g>
</g>
<path d="m1067.8 413.58 2.9411 3.8234q1.4633 1.9023 3.3656 0.43898l6.1369-4.7207q1.9023-1.4633 0.43898-3.3656l-2.9411-3.8234q-1.4633-1.9023-3.3656-0.43898l-6.1369 4.7207q-1.9023 1.4633-0.43898 3.3656z" clip-path="url(#a)" fill="#fff" stroke="#fff"/>
<g clip-path="url(#a)">
<g transform="translate(1071 411.1) rotate(52.431) scale(.08 -.08)">
<use xlink:href="#x"/>
</g>
</g>
<path d="m1111 414.37 4.352 3.9168q1.7839 1.6055 3.3894-0.17841l5.1794-5.755q1.6055-1.7839-0.17841-3.3894l-4.352-3.9168q-1.7839-1.6055-3.3894 0.17841l-5.1794 5.755q-1.6055 1.7839 0.17841 3.3894z" clip-path="url(#a)" fill="#fff" stroke="#fff"/>
<g clip-path="url(#a)">
<g transform="translate(1113.7 411.35) rotate(41.987) scale(.08 -.08)">
<use xlink:href="#ab"/>
</g>
</g>
<path d="m851.99 582.89v33.808q0 2.4 2.4 2.4h7.7425q2.4 0 2.4-2.4v-33.808q0-2.4-2.4-2.4h-7.7425q-2.4 0-2.4 2.4z" clip-path="url(#a)" fill="#fff" stroke="#fff"/>
<g clip-path="url(#a)">
<g transform="translate(856.06 582.89) rotate(90) scale(.08 -.08)">
<use xlink:href="#j"/>
<use x="44.083984" xlink:href="#d"/>
<use x="105.607422" xlink:href="#k"/>
<use x="144.970703" xlink:href="#l"/>
<use x="242.382812" xlink:href="#g"/>
<use x="270.166016" xlink:href="#f"/>
<use x="333.544922" xlink:href="#h"/>
<use x="394.824219" xlink:href="#i"/>
</g>
</g>
<path d="m925.44 582.89v33.808q0 2.4 2.4 2.4h7.7425q2.4 0 2.4-2.4v-33.808q0-2.4-2.4-2.4h-7.7425q-2.4 0-2.4 2.4z" clip-path="url(#a)" fill="#fff" stroke="#fff"/>
<g clip-path="url(#a)">
<g transform="translate(929.51 582.89) rotate(90) scale(.08 -.08)">
<use xlink:href="#j"/>
<use x="44.083984" xlink:href="#d"/>
<use x="105.607422" xlink:href="#k"/>
<use x="144.970703" xlink:href="#l"/>
<use x="242.382812" xlink:href="#g"/>
<use x="270.166016" xlink:href="#f"/>
<use x="333.544922" xlink:href="#h"/>
<use x="394.824219" xlink:href="#i"/>
</g>
</g>
<path d="m1033.5 479.19 1.5292-4.8181q0.72604-2.2875-1.5615-3.0136l-7.3797-2.3422q-2.2875-0.72604-3.0136 1.5615l-1.5292 4.8181q-0.72604 2.2875 1.5615 3.0136l7.3797 2.3422q2.2875 0.72604 3.0136-1.5615z" clip-path="url(#a)" fill="#fff" stroke="#fff"/>
<g clip-path="url(#a)">
<defs>
<path id="ad" d="m9.8125 72.906h46.094v-8.3125h-36.234v-21.578h34.719v-8.2969h-34.719v-26.422h37.109v-8.2969h-46.969z"/>
</defs>
<g transform="translate(1029.7 477.96) rotate(-72.391) scale(.08 -.08)">
<use xlink:href="#ad"/>
</g>
</g>
<path d="m1061.4 474.12 1.6899 5.3245q0.72604 2.2875 3.0136 1.5615l7.3797-2.3422q2.2875-0.72604 1.5615-3.0136l-1.6899-5.3245q-0.72604-2.2875-3.0136-1.5615l-7.3797 2.3422q-2.2875 0.72604-1.5615 3.0136z" clip-path="url(#a)" fill="#fff" stroke="#fff"/>
<g clip-path="url(#a)">
<g transform="translate(1065.3 472.89) rotate(72.391) scale(.08 -.08)">
<use xlink:href="#q"/>
</g>
</g>
<path d="m1165 582.89v33.808q0 2.4 2.4 2.4h7.7425q2.4 0 2.4-2.4v-33.808q0-2.4-2.4-2.4h-7.7425q-2.4 0-2.4 2.4z" clip-path="url(#a)" fill="#fff" stroke="#fff"/>
<g clip-path="url(#a)">
<g transform="translate(1169 582.89) rotate(90) scale(.08 -.08)">
<use xlink:href="#j"/>
<use x="44.083984" xlink:href="#d"/>
<use x="105.607422" xlink:href="#k"/>
<use x="144.970703" xlink:href="#l"/>
<use x="242.382812" xlink:href="#g"/>
<use x="270.166016" xlink:href="#f"/>
<use x="333.544922" xlink:href="#h"/>
<use x="394.824219" xlink:href="#i"/>
</g>
</g>
<path d="m1002.1 582.89v33.808q0 2.4 2.4 2.4h7.7425q2.4 0 2.4-2.4v-33.808q0-2.4-2.4-2.4h-7.7425q-2.4 0-2.4 2.4z" clip-path="url(#a)" fill="#fff" stroke="#fff"/>
<g clip-path="url(#a)">
<g transform="translate(1006.2 582.89) rotate(90) scale(.08 -.08)">
<use xlink:href="#j"/>
<use x="44.083984" xlink:href="#d"/>
<use x="105.607422" xlink:href="#k"/>
<use x="144.970703" xlink:href="#l"/>
<use x="242.382812" xlink:href="#g"/>
<use x="270.166016" xlink:href="#f"/>
<use x="333.544922" xlink:href="#h"/>
<use x="394.824219" xlink:href="#i"/>
</g>
</g>
<path d="m1081.9 582.89v33.808q0 2.4 2.4 2.4h7.7425q2.4 0 2.4-2.4v-33.808q0-2.4-2.4-2.4h-7.7425q-2.4 0-2.4 2.4z" clip-path="url(#a)" fill="#fff" stroke="#fff"/>
<g clip-path="url(#a)">
<g transform="translate(1086 582.89) rotate(90) scale(.08 -.08)">
<use xlink:href="#j"/>
<use x="44.083984" xlink:href="#d"/>
<use x="105.607422" xlink:href="#k"/>
<use x="144.970703" xlink:href="#l"/>
<use x="242.382812" xlink:href="#g"/>
<use x="270.166016" xlink:href="#f"/>
<use x="333.544922" xlink:href="#h"/>
<use x="394.824219" xlink:href="#i"/>
</g>
</g>
<path d="m714.67 582.89v33.808q0 2.4 2.4 2.4h7.7425q2.4 0 2.4-2.4v-33.808q0-2.4-2.4-2.4h-7.7425q-2.4 0-2.4 2.4z" clip-path="url(#a)" fill="#fff" stroke="#fff"/>
<g clip-path="url(#a)">
<g transform="translate(718.73 582.89) rotate(90) scale(.08 -.08)">
<use xlink:href="#j"/>
<use x="44.083984" xlink:href="#d"/>
<use x="105.607422" xlink:href="#k"/>
<use x="144.970703" xlink:href="#l"/>
<use x="242.382812" xlink:href="#g"/>
<use x="270.166016" xlink:href="#f"/>
<use x="333.544922" xlink:href="#h"/>
<use x="394.824219" xlink:href="#i"/>
</g>
</g>
<path d="m781.73 582.89v33.808q0 2.4 2.4 2.4h7.7425q2.4 0 2.4-2.4v-33.808q0-2.4-2.4-2.4h-7.7425q-2.4 0-2.4 2.4z" clip-path="url(#a)" fill="#fff" stroke="#fff"/>
<g clip-path="url(#a)">
<g transform="translate(785.8 582.89) rotate(90) scale(.08 -.08)">
<use xlink:href="#j"/>
<use x="44.083984" xlink:href="#d"/>
<use x="105.607422" xlink:href="#k"/>
<use x="144.970703" xlink:href="#l"/>
<use x="242.382812" xlink:href="#g"/>
<use x="270.166016" xlink:href="#f"/>
<use x="333.544922" xlink:href="#h"/>
<use x="394.824219" xlink:href="#i"/>
</g>
</g>
<path d="m427.25 582.89v33.808q0 2.4 2.4 2.4h7.7425q2.4 0 2.4-2.4v-33.808q0-2.4-2.4-2.4h-7.7425q-2.4 0-2.4 2.4z" clip-path="url(#a)" fill="#fff" stroke="#fff"/>
<g clip-path="url(#a)">
<g transform="translate(431.31 582.89) rotate(90) scale(.08 -.08)">
<use xlink:href="#j"/>
<use x="44.083984" xlink:href="#d"/>
<use x="105.607422" xlink:href="#k"/>
<use x="144.970703" xlink:href="#l"/>
<use x="242.382812" xlink:href="#g"/>
<use x="270.166016" xlink:href="#f"/>
<use x="333.544922" xlink:href="#h"/>
<use x="394.824219" xlink:href="#i"/>
</g>
</g>
<path d="m478.35 582.89v33.808q0 2.4 2.4 2.4h7.7425q2.4 0 2.4-2.4v-33.808q0-2.4-2.4-2.4h-7.7425q-2.4 0-2.4 2.4z" clip-path="url(#a)" fill="#fff" stroke="#fff"/>
<g clip-path="url(#a)">
<g transform="translate(482.41 582.89) rotate(90) scale(.08 -.08)">
<use xlink:href="#j"/>
<use x="44.083984" xlink:href="#d"/>
<use x="105.607422" xlink:href="#k"/>
<use x="144.970703" xlink:href="#l"/>
<use x="242.382812" xlink:href="#g"/>
<use x="270.166016" xlink:href="#f"/>
<use x="333.544922" xlink:href="#h"/>
<use x="394.824219" xlink:href="#i"/>
</g>
</g>
<path d="m87.046 352.73 1.2488-4.6593q0.62132-2.3182-1.6969-2.9395l-7.4785-2.0044q-2.3182-0.62132-2.9395 1.6969l-1.2488 4.6593q-0.62132 2.3182 1.6969 2.9395l7.4785 2.0044q2.3182 0.62132 2.9395-1.6969z" clip-path="url(#a)" fill="#fff" stroke="#fff"/>
<g clip-path="url(#a)">
<g transform="translate(83.12 351.68) rotate(-74.996) scale(.08 -.08)">
<use xlink:href="#x"/>
</g>
</g>
<path d="m100.46 351.92 0.36015-5.4606q0.15794-2.3948-2.2369-2.5527l-7.7257-0.50954q-2.3948-0.15794-2.5527 2.2369l-0.36015 5.4606q-0.15794 2.3948 2.2369 2.5527l7.7257 0.50954q2.3948 0.15794 2.5527-2.2369z" clip-path="url(#a)" fill="#fff" stroke="#fff"/>
<g clip-path="url(#a)">
<g transform="translate(96.409 351.66) rotate(-86.227) scale(.08 -.08)">
<use xlink:href="#r"/>
</g>
</g>
<path d="m112.85 348.17 1.7336 5.1907q0.76026 2.2764 3.0367 1.5161l7.3438-2.4526q2.2764-0.76026 1.5161-3.0367l-1.7336-5.1907q-0.76026-2.2764-3.0367-1.5161l-7.3438 2.4526q-2.2764 0.76026-1.5161 3.0367z" clip-path="url(#a)" fill="#fff" stroke="#fff"/>
<g clip-path="url(#a)">
<g transform="translate(116.71 346.88) rotate(71.532) scale(.08 -.08)">
<use xlink:href="#r"/>
</g>
</g>
<path d="m207.86 478.43 0.7001-5.5145q0.30227-2.3809-2.0786-2.6832l-7.6808-0.97513q-2.3809-0.30227-2.6832 2.0786l-0.7001 5.5145q-0.30227 2.3809 2.0786 2.6832l7.6808 0.97513q2.3809 0.30227 2.6832-2.0786z" clip-path="url(#a)" fill="#fff" stroke="#fff"/>
<g clip-path="url(#a)">
<g transform="translate(203.83 477.92) rotate(-82.765) scale(.08 -.08)">
<use xlink:href="#t"/>
</g>
</g>
<path d="m211.39 472.9 0.70356 5.5418q0.30227 2.3809 2.6832 2.0786l7.6808-0.97513q2.3809-0.30227 2.0786-2.6832l-0.70356-5.5418q-0.30227-2.3809-2.6832-2.0786l-7.6808 0.97513q-2.3809 0.30227-2.0786 2.6832z" clip-path="url(#a)" fill="#fff" stroke="#fff"/>
<g clip-path="url(#a)">
<g transform="translate(215.42 472.39) rotate(82.765) scale(.08 -.08)">
<use xlink:href="#q"/>
</g>
</g>
<path d="m254.8 582.89v33.808q0 2.4 2.4 2.4h7.7425q2.4 0 2.4-2.4v-33.808q0-2.4-2.4-2.4h-7.7425q-2.4 0-2.4 2.4z" clip-path="url(#a)" fill="#fff" stroke="#fff"/>
<g clip-path="url(#a)">
<g transform="translate(258.86 582.89) rotate(90) scale(.08 -.08)">
<use xlink:href="#j"/>
<use x="44.083984" xlink:href="#d"/>
<use x="105.607422" xlink:href="#k"/>
<use x="144.970703" xlink:href="#l"/>
<use x="242.382812" xlink:href="#g"/>
<use x="270.166016" xlink:href="#f"/>
<use x="333.544922" xlink:href="#h"/>
<use x="394.824219" xlink:href="#i"/>
</g>
</g>
<path d="m293.12 582.89v33.808q0 2.4 2.4 2.4h7.7425q2.4 0 2.4-2.4v-33.808q0-2.4-2.4-2.4h-7.7425q-2.4 0-2.4 2.4z" clip-path="url(#a)" fill="#fff" stroke="#fff"/>
<g clip-path="url(#a)">
<g transform="translate(297.19 582.89) rotate(90) scale(.08 -.08)">
<use xlink:href="#j"/>
<use x="44.083984" xlink:href="#d"/>
<use x="105.607422" xlink:href="#k"/>
<use x="144.970703" xlink:href="#l"/>
<use x="242.382812" xlink:href="#g"/>
<use x="270.166016" xlink:href="#f"/>
<use x="333.544922" xlink:href="#h"/>
<use x="394.824219" xlink:href="#i"/>
</g>
</g>
<path d="m187.74 582.89v33.808q0 2.4 2.4 2.4h7.7425q2.4 0 2.4-2.4v-33.808q0-2.4-2.4-2.4h-7.7425q-2.4 0-2.4 2.4z" clip-path="url(#a)" fill="#fff" stroke="#fff"/>
<g clip-path="url(#a)">
<g transform="translate(191.8 582.89) rotate(90) scale(.08 -.08)">
<use xlink:href="#j"/>
<use x="44.083984" xlink:href="#d"/>
<use x="105.607422" xlink:href="#k"/>
<use x="144.970703" xlink:href="#l"/>
<use x="242.382812" xlink:href="#g"/>
<use x="270.166016" xlink:href="#f"/>
<use x="333.544922" xlink:href="#h"/>
<use x="394.824219" xlink:href="#i"/>
</g>
</g>
<path d="m219.67 582.89v33.808q0 2.4 2.4 2.4h7.7425q2.4 0 2.4-2.4v-33.808q0-2.4-2.4-2.4h-7.7425q-2.4 0-2.4 2.4z" clip-path="url(#a)" fill="#fff" stroke="#fff"/>
<g clip-path="url(#a)">
<g transform="translate(223.74 582.89) rotate(90) scale(.08 -.08)">
<use xlink:href="#j"/>
<use x="44.083984" xlink:href="#d"/>
<use x="105.607422" xlink:href="#k"/>
<use x="144.970703" xlink:href="#l"/>
<use x="242.382812" xlink:href="#g"/>
<use x="270.166016" xlink:href="#f"/>
<use x="333.544922" xlink:href="#h"/>
<use x="394.824219" xlink:href="#i"/>
</g>
</g>
<path d="m68.444 477.65 0.19239-5.0513q0.091342-2.3983-2.3069-2.4896l-7.7369-0.29467q-2.3983-0.091342-2.4896 2.3069l-0.19239 5.0513q-0.091342 2.3983 2.3069 2.4896l7.7369 0.29467q2.3983 0.091342 2.4896-2.3069z" clip-path="url(#a)" fill="#fff" stroke="#fff"/>
<g clip-path="url(#a)">
<g transform="translate(64.384 477.49) rotate(-87.819) scale(.08 -.08)">
<use xlink:href="#ad"/>
</g>
</g>
<path d="m60.691 472.33 0.21261 5.5822q0.091342 2.3983 2.4896 2.3069l7.7369-0.29467q2.3983-0.091342 2.3069-2.4896l-0.21261-5.5822q-0.091342-2.3983-2.4896-2.3069l-7.7369 0.29467q-2.3983 0.091342-2.3069 2.4896z" clip-path="url(#a)" fill="#fff" stroke="#fff"/>
<g clip-path="url(#a)">
<g transform="translate(64.752 472.18) rotate(87.819) scale(.08 -.08)">
<use xlink:href="#q"/>
</g>
</g>
<path d="m92.308 478.05 0.35215-5.5476q0.15204-2.3952-2.2431-2.5472l-7.7269-0.49049q-2.3952-0.15204-2.5472 2.2431l-0.35215 5.5476q-0.15204 2.3952 2.2431 2.5472l7.7269 0.49049q2.3952 0.15204 2.5472-2.2431z" clip-path="url(#a)" fill="#fff" stroke="#fff"/>
<g clip-path="url(#a)">
<g transform="translate(88.252 477.8) rotate(-86.368) scale(.08 -.08)">
<use xlink:href="#t"/>
</g>
</g>
<path d="m87.774 472.49 0.35389 5.575q0.15204 2.3952 2.5472 2.2431l7.7269-0.49049q2.3952-0.15204 2.2431-2.5472l-0.35389-5.575q-0.15204-2.3952-2.5472-2.2431l-7.7269 0.49049q-2.3952 0.15204-2.2431 2.5472z" clip-path="url(#a)" fill="#fff" stroke="#fff"/>
<g clip-path="url(#a)">
<g transform="translate(91.829 472.24) rotate(86.368) scale(.08 -.08)">
<use xlink:href="#q"/>
</g>
</g>
<path d="m134.77 478.52 0.92534-4.9696q0.43933-2.3594-1.9201-2.7988l-7.6117-1.4173q-2.3594-0.43933-2.7988 1.9201l-0.92534 4.9696q-0.43933 2.3594 1.9201 2.7988l7.6117 1.4173q2.3594 0.43933 2.7988-1.9201z" clip-path="url(#a)" fill="#fff" stroke="#fff"/>
<g clip-path="url(#a)">
<g transform="translate(130.78 477.77) rotate(-79.452) scale(.08 -.08)">
<use xlink:href="#ad"/>
</g>
</g>
<path d="m146.5 477.73 0.047278-5.586q0.020313-2.3999-2.3796-2.4202l-7.7422-0.065528q-2.3999-0.020312-2.4202 2.3796l-0.047279 5.586q-0.020312 2.3999 2.3796 2.4202l7.7422 0.065528q2.3999 0.020313 2.4202-2.3796z" clip-path="url(#a)" fill="#fff" stroke="#fff"/>
<g clip-path="url(#a)">
<g transform="translate(142.43 477.7) rotate(-89.515) scale(.08 -.08)">
<use xlink:href="#q"/>
</g>
</g>
<path d="m146.34 473.35 1.0622 5.4563q0.45859 2.3558 2.8144 1.8972l7.5998-1.4794q2.3558-0.45859 1.8972-2.8144l-1.0622-5.4563q-0.45859-2.3558-2.8144-1.8972l-7.5998 1.4794q-2.3558 0.45859-1.8972 2.8144z" clip-path="url(#a)" fill="#fff" stroke="#fff"/>
<g clip-path="url(#a)">
<g transform="translate(150.33 472.58) rotate(78.984) scale(.08 -.08)">
<use xlink:href="#t"/>
</g>
</g>
<path d="m111.09 582.89v33.808q0 2.4 2.4 2.4h7.7425q2.4 0 2.4-2.4v-33.808q0-2.4-2.4-2.4h-7.7425q-2.4 0-2.4 2.4z" clip-path="url(#a)" fill="#fff" stroke="#fff"/>
<g clip-path="url(#a)">
<g transform="translate(115.15 582.89) rotate(90) scale(.08 -.08)">
<use xlink:href="#j"/>
<use x="44.083984" xlink:href="#d"/>
<use x="105.607422" xlink:href="#k"/>
<use x="144.970703" xlink:href="#l"/>
<use x="242.382812" xlink:href="#g"/>
<use x="270.166016" xlink:href="#f"/>
<use x="333.544922" xlink:href="#h"/>
<use x="394.824219" xlink:href="#i"/>
</g>
</g>
<path d="m133.45 582.89v33.808q0 2.4 2.4 2.4h7.7425q2.4 0 2.4-2.4v-33.808q0-2.4-2.4-2.4h-7.7425q-2.4 0-2.4 2.4z" clip-path="url(#a)" fill="#fff" stroke="#fff"/>
<g clip-path="url(#a)">
<g transform="translate(137.51 582.89) rotate(90) scale(.08 -.08)">
<use xlink:href="#j"/>
<use x="44.083984" xlink:href="#d"/>
<use x="105.607422" xlink:href="#k"/>
<use x="144.970703" xlink:href="#l"/>
<use x="242.382812" xlink:href="#g"/>
<use x="270.166016" xlink:href="#f"/>
<use x="333.544922" xlink:href="#h"/>
<use x="394.824219" xlink:href="#i"/>
</g>
</g>
<path d="m158.99 582.89v33.808q0 2.4 2.4 2.4h7.7425q2.4 0 2.4-2.4v-33.808q0-2.4-2.4-2.4h-7.7425q-2.4 0-2.4 2.4z" clip-path="url(#a)" fill="#fff" stroke="#fff"/>
<g clip-path="url(#a)">
<g transform="translate(163.06 582.89) rotate(90) scale(.08 -.08)">
<use xlink:href="#j"/>
<use x="44.083984" xlink:href="#d"/>
<use x="105.607422" xlink:href="#k"/>
<use x="144.970703" xlink:href="#l"/>
<use x="242.382812" xlink:href="#g"/>
<use x="270.166016" xlink:href="#f"/>
<use x="333.544922" xlink:href="#h"/>
<use x="394.824219" xlink:href="#i"/>
</g>
</g>
<path d="m75.962 582.89v33.808q0 2.4 2.4 2.4h7.7425q2.4 0 2.4-2.4v-33.808q0-2.4-2.4-2.4h-7.7425q-2.4 0-2.4 2.4z" clip-path="url(#a)" fill="#fff" stroke="#fff"/>
<g clip-path="url(#a)">
<g transform="translate(80.026 582.89) rotate(90) scale(.08 -.08)">
<use xlink:href="#j"/>
<use x="44.083984" xlink:href="#d"/>
<use x="105.607422" xlink:href="#k"/>
<use x="144.970703" xlink:href="#l"/>
<use x="242.382812" xlink:href="#g"/>
<use x="270.166016" xlink:href="#f"/>
<use x="333.544922" xlink:href="#h"/>
<use x="394.824219" xlink:href="#i"/>
</g>
</g>
<path d="m91.93 582.89v33.808q0 2.4 2.4 2.4h7.7425q2.4 0 2.4-2.4v-33.808q0-2.4-2.4-2.4h-7.7425q-2.4 0-2.4 2.4z" clip-path="url(#a)" fill="#fff" stroke="#fff"/>
<g clip-path="url(#a)">
<g transform="translate(95.994 582.89) rotate(90) scale(.08 -.08)">
<use xlink:href="#j"/>
<use x="44.083984" xlink:href="#d"/>
<use x="105.607422" xlink:href="#k"/>
<use x="144.970703" xlink:href="#l"/>
<use x="242.382812" xlink:href="#g"/>
<use x="270.166016" xlink:href="#f"/>
<use x="333.544922" xlink:href="#h"/>
<use x="394.824219" xlink:href="#i"/>
</g>
</g>
<path d="m53.608 582.89v33.808q0 2.4 2.4 2.4h7.7425q2.4 0 2.4-2.4v-33.808q0-2.4-2.4-2.4h-7.7425q-2.4 0-2.4 2.4z" clip-path="url(#a)" fill="#fff" stroke="#fff"/>
<g clip-path="url(#a)">
<g transform="translate(57.671 582.89) rotate(90) scale(.08 -.08)">
<use xlink:href="#j"/>
<use x="44.083984" xlink:href="#d"/>
<use x="105.607422" xlink:href="#k"/>
<use x="144.970703" xlink:href="#l"/>
<use x="242.382812" xlink:href="#g"/>
<use x="270.166016" xlink:href="#f"/>
<use x="333.544922" xlink:href="#h"/>
<use x="394.824219" xlink:href="#i"/>
</g>
</g>
<path d="m63.188 582.89v33.808q0 2.4 2.4 2.4h7.7425q2.4 0 2.4-2.4v-33.808q0-2.4-2.4-2.4h-7.7425q-2.4 0-2.4 2.4z" clip-path="url(#a)" fill="#fff" stroke="#fff"/>
<g clip-path="url(#a)">
<g transform="translate(67.252 582.89) rotate(90) scale(.08 -.08)">
<use xlink:href="#j"/>
<use x="44.083984" xlink:href="#d"/>
<use x="105.607422" xlink:href="#k"/>
<use x="144.970703" xlink:href="#l"/>
<use x="242.382812" xlink:href="#g"/>
<use x="270.166016" xlink:href="#f"/>
<use x="333.544922" xlink:href="#h"/>
<use x="394.824219" xlink:href="#i"/>
</g>
</g>
<path d="m334.64 582.89v33.808q0 2.4 2.4 2.4h7.7425q2.4 0 2.4-2.4v-33.808q0-2.4-2.4-2.4h-7.7425q-2.4 0-2.4 2.4z" clip-path="url(#a)" fill="#fff" stroke="#fff"/>
<g clip-path="url(#a)">
<g transform="translate(338.7 582.89) rotate(90) scale(.08 -.08)">
<use xlink:href="#j"/>
<use x="44.083984" xlink:href="#d"/>
<use x="105.607422" xlink:href="#k"/>
<use x="144.970703" xlink:href="#l"/>
<use x="242.382812" xlink:href="#g"/>
<use x="270.166016" xlink:href="#f"/>
<use x="333.544922" xlink:href="#h"/>
<use x="394.824219" xlink:href="#i"/>
</g>
</g>
<path d="m532.64 582.89v33.808q0 2.4 2.4 2.4h7.7425q2.4 0 2.4-2.4v-33.808q0-2.4-2.4-2.4h-7.7425q-2.4 0-2.4 2.4z" clip-path="url(#a)" fill="#fff" stroke="#fff"/>
<g clip-path="url(#a)">
<g transform="translate(536.7 582.89) rotate(90) scale(.08 -.08)">
<use xlink:href="#j"/>
<use x="44.083984" xlink:href="#d"/>
<use x="105.607422" xlink:href="#k"/>
<use x="144.970703" xlink:href="#l"/>
<use x="242.382812" xlink:href="#g"/>
<use x="270.166016" xlink:href="#f"/>
<use x="333.544922" xlink:href="#h"/>
<use x="394.824219" xlink:href="#i"/>
</g>
</g>
<path d="m1251.2 582.89v33.808q0 2.4 2.4 2.4h7.7425q2.4 0 2.4-2.4v-33.808q0-2.4-2.4-2.4h-7.7425q-2.4 0-2.4 2.4z" clip-path="url(#a)" fill="#fff" stroke="#fff"/>
<g clip-path="url(#a)">
<g transform="translate(1255.2 582.89) rotate(90) scale(.08 -.08)">
<use xlink:href="#j"/>
<use x="44.083984" xlink:href="#d"/>
<use x="105.607422" xlink:href="#k"/>
<use x="144.970703" xlink:href="#l"/>
<use x="242.382812" xlink:href="#g"/>
<use x="270.166016" xlink:href="#f"/>
<use x="333.544922" xlink:href="#h"/>
<use x="394.824219" xlink:href="#i"/>
</g>
</g>
<defs>
<path id="b" d="m0 8.6603c2.2967 0 4.4997-0.9125 6.1237-2.5365 1.624-1.624 2.5365-3.827 2.5365-6.1237s-0.9125-4.4997-2.5365-6.1237c-1.624-1.624-3.827-2.5365-6.1237-2.5365s-4.4997 0.9125-6.1237 2.5365c-1.624 1.624-2.5365 3.827-2.5365 6.1237s0.9125 4.4997 2.5365 6.1237c1.624 1.624 3.827 2.5365 6.1237 2.5365z"/>
</defs>
<g clip-path="url(#a)">
<use x="59.878788" y="661.818182" fill="#ffffff" stroke="#ffffff" xlink:href="#b"/>
</g>
<g clip-path="url(#a)">
<use x="69.459394" y="661.818182" fill="#ffffff" stroke="#ffffff" xlink:href="#b"/>
</g>
<g clip-path="url(#a)">
<use x="82.233535" y="661.818182" fill="#ffffff" stroke="#ffffff" xlink:href="#b"/>
</g>
<g clip-path="url(#a)">
<use x="98.201212" y="661.818182" fill="#ffffff" stroke="#ffffff" xlink:href="#b"/>
</g>
<g clip-path="url(#a)">
<use x="117.362424" y="661.818182" fill="#ffffff" stroke="#ffffff" xlink:href="#b"/>
</g>
<g clip-path="url(#a)">
<use x="139.717172" y="661.818182" fill="#ffffff" stroke="#ffffff" xlink:href="#b"/>
</g>
<g clip-path="url(#a)">
<use x="165.265455" y="661.818182" fill="#ffffff" stroke="#ffffff" xlink:href="#b"/>
</g>
<g clip-path="url(#a)">
<use x="194.007273" y="661.818182" fill="#ffffff" stroke="#ffffff" xlink:href="#b"/>
</g>
<g clip-path="url(#a)">
<use x="225.942626" y="661.818182" fill="#ffffff" stroke="#ffffff" xlink:href="#b"/>
</g>
<g clip-path="url(#a)">
<use x="261.071515" y="661.818182" fill="#ffffff" stroke="#ffffff" xlink:href="#b"/>
</g>
<g clip-path="url(#a)">
<use x="299.393939" y="661.818182" fill="#ffffff" stroke="#ffffff" xlink:href="#b"/>
</g>
<g clip-path="url(#a)">
<use x="340.909899" y="661.818182" fill="#ffffff" stroke="#ffffff" xlink:href="#b"/>
</g>
<g clip-path="url(#a)">
<use x="385.619394" y="661.818182" fill="#ffffff" stroke="#ffffff" xlink:href="#b"/>
</g>
<g clip-path="url(#a)">
<use x="433.522424" y="661.818182" fill="#ffffff" stroke="#ffffff" xlink:href="#b"/>
</g>
<g clip-path="url(#a)">
<use x="484.61899" y="661.818182" fill="#ffffff" stroke="#ffffff" xlink:href="#b"/>
</g>
<g clip-path="url(#a)">
<use x="538.909091" y="661.818182" fill="#ffffff" stroke="#ffffff" xlink:href="#b"/>
</g>
<g clip-path="url(#a)">
<use x="596.392727" y="661.818182" fill="#ffffff" stroke="#ffffff" xlink:href="#b"/>
</g>
<g clip-path="url(#a)">
<use x="657.069899" y="661.818182" fill="#ffffff" stroke="#ffffff" xlink:href="#b"/>
</g>
<g clip-path="url(#a)">
<use x="720.940606" y="661.818182" fill="#ffffff" stroke="#ffffff" xlink:href="#b"/>
</g>
<g clip-path="url(#a)">
<use x="788.004848" y="661.818182" fill="#ffffff" stroke="#ffffff" xlink:href="#b"/>
</g>
<g clip-path="url(#a)">
<use x="858.262626" y="661.818182" fill="#ffffff" stroke="#ffffff" xlink:href="#b"/>
</g>
<g clip-path="url(#a)">
<use x="931.713939" y="661.818182" fill="#ffffff" stroke="#ffffff" xlink:href="#b"/>
</g>
<g clip-path="url(#a)">
<use x="1008.358788" y="661.818182" fill="#ffffff" stroke="#ffffff" xlink:href="#b"/>
</g>
<g clip-path="url(#a)">
<use x="1088.197172" y="661.818182" fill="#ffffff" stroke="#ffffff" xlink:href="#b"/>
</g>
<g clip-path="url(#a)">
<use x="1171.229091" y="661.818182" fill="#ffffff" stroke="#ffffff" xlink:href="#b"/>
</g>
<g clip-path="url(#a)">
<use x="1257.454545" y="661.818182" fill="#ffffff" stroke="#ffffff" xlink:href="#b"/>
</g>
<g clip-path="url(#a)">
<use x="401.908642" y="31.515152" fill="#ffffff" stroke="#ffffff" xlink:href="#b"/>
</g>
<g clip-path="url(#a)">
<use x="217.249113" y="158.699688" fill="#ffffff" stroke="#ffffff" xlink:href="#b"/>
</g>
<g clip-path="url(#a)">
<use x="385.619394" y="537.770204" fill="#ffffff" stroke="#ffffff" xlink:href="#b"/>
</g>
<g clip-path="url(#a)">
<use x="663.856162" y="158.699688" fill="#ffffff" stroke="#ffffff" xlink:href="#b"/>
</g>
<g clip-path="url(#a)">
<use x="459.070707" y="411.996581" fill="#ffffff" stroke="#ffffff" xlink:href="#b"/>
</g>
<g clip-path="url(#a)">
<use x="596.392727" y="537.770204" fill="#ffffff" stroke="#ffffff" xlink:href="#b"/>
</g>
<g clip-path="url(#a)">
<use x="657.069899" y="537.770204" fill="#ffffff" stroke="#ffffff" xlink:href="#b"/>
</g>
<g clip-path="url(#a)">
<use x="754.472727" y="411.996581" fill="#ffffff" stroke="#ffffff" xlink:href="#b"/>
</g>
<g clip-path="url(#a)">
<use x="977.221818" y="285.563287" fill="#ffffff" stroke="#ffffff" xlink:href="#b"/>
</g>
<g clip-path="url(#a)">
<use x="858.262626" y="537.770204" fill="#ffffff" stroke="#ffffff" xlink:href="#b"/>
</g>
<g clip-path="url(#a)">
<use x="931.713939" y="537.770204" fill="#ffffff" stroke="#ffffff" xlink:href="#b"/>
</g>
<g clip-path="url(#a)">
<use x="1048.27798" y="411.996581" fill="#ffffff" stroke="#ffffff" xlink:href="#b"/>
</g>
<g clip-path="url(#a)">
<use x="1171.229091" y="537.770204" fill="#ffffff" stroke="#ffffff" xlink:href="#b"/>
</g>
<g clip-path="url(#a)">
<use x="1008.358788" y="537.770204" fill="#ffffff" stroke="#ffffff" xlink:href="#b"/>
</g>
<g clip-path="url(#a)">
<use x="1088.197172" y="537.770204" fill="#ffffff" stroke="#ffffff" xlink:href="#b"/>
</g>
<g clip-path="url(#a)">
<use x="720.940606" y="537.770204" fill="#ffffff" stroke="#ffffff" xlink:href="#b"/>
</g>
<g clip-path="url(#a)">
<use x="788.004848" y="537.770204" fill="#ffffff" stroke="#ffffff" xlink:href="#b"/>
</g>
<g clip-path="url(#a)">
<use x="433.522424" y="537.770204" fill="#ffffff" stroke="#ffffff" xlink:href="#b"/>
</g>
<g clip-path="url(#a)">
<use x="484.61899" y="537.770204" fill="#ffffff" stroke="#ffffff" xlink:href="#b"/>
</g>
<g clip-path="url(#a)">
<use x="98.556049" y="285.563287" fill="#ffffff" stroke="#ffffff" xlink:href="#b"/>
</g>
<g clip-path="url(#a)">
<use x="209.974949" y="411.996581" fill="#ffffff" stroke="#ffffff" xlink:href="#b"/>
</g>
<g clip-path="url(#a)">
<use x="261.071515" y="537.770204" fill="#ffffff" stroke="#ffffff" xlink:href="#b"/>
</g>
<g clip-path="url(#a)">
<use x="299.393939" y="537.770204" fill="#ffffff" stroke="#ffffff" xlink:href="#b"/>
</g>
<g clip-path="url(#a)">
<use x="194.007273" y="537.770204" fill="#ffffff" stroke="#ffffff" xlink:href="#b"/>
</g>
<g clip-path="url(#a)">
<use x="225.942626" y="537.770204" fill="#ffffff" stroke="#ffffff" xlink:href="#b"/>
</g>
<g clip-path="url(#a)">
<use x="64.669091" y="411.996581" fill="#ffffff" stroke="#ffffff" xlink:href="#b"/>
</g>
<g clip-path="url(#a)">
<use x="90.217374" y="411.996581" fill="#ffffff" stroke="#ffffff" xlink:href="#b"/>
</g>
<g clip-path="url(#a)">
<use x="140.781684" y="411.996581" fill="#ffffff" stroke="#ffffff" xlink:href="#b"/>
</g>
<g clip-path="url(#a)">
<use x="117.362424" y="537.770204" fill="#ffffff" stroke="#ffffff" xlink:href="#b"/>
</g>
<g clip-path="url(#a)">
<use x="139.717172" y="537.770204" fill="#ffffff" stroke="#ffffff" xlink:href="#b"/>
</g>
<g clip-path="url(#a)">
<use x="165.265455" y="537.770204" fill="#ffffff" stroke="#ffffff" xlink:href="#b"/>
</g>
<g clip-path="url(#a)">
<use x="82.233535" y="537.770204" fill="#ffffff" stroke="#ffffff" xlink:href="#b"/>
</g>
<g clip-path="url(#a)">
<use x="98.201212" y="537.770204" fill="#ffffff" stroke="#ffffff" xlink:href="#b"/>
</g>
<g clip-path="url(#a)">
<use x="59.878788" y="537.770204" fill="#ffffff" stroke="#ffffff" xlink:href="#b"/>
</g>
<g clip-path="url(#a)">
<use x="69.459394" y="537.770204" fill="#ffffff" stroke="#ffffff" xlink:href="#b"/>
</g>
<g clip-path="url(#a)">
<use x="340.909899" y="537.770204" fill="#ffffff" stroke="#ffffff" xlink:href="#b"/>
</g>
<g clip-path="url(#a)">
<use x="538.909091" y="537.770204" fill="#ffffff" stroke="#ffffff" xlink:href="#b"/>
</g>
<g clip-path="url(#a)">
<use x="1257.454545" y="537.770204" fill="#ffffff" stroke="#ffffff" xlink:href="#b"/>
</g>
<g clip-path="url(#a)">
<defs>
<path id="aj" d="m54.891 33.016v-33.016h-8.9844v32.719q0 7.7656-3.0312 11.609-3.0312 3.8594-9.0781 3.8594-7.2812 0-11.484-4.6406-4.2031-4.625-4.2031-12.641v-30.906h-9.0312v75.984h9.0312v-29.797q3.2344 4.9375 7.5938 7.375 4.375 2.4375 10.094 2.4375 9.4219 0 14.25-5.8281 4.8438-5.8281 4.8438-17.156z"/>
</defs>
<g transform="translate(50.58 664.58) scale(.1 -.1)">
<use xlink:href="#j"/>
<use x="61.083984" xlink:href="#aj"/>
<use x="124.462891" xlink:href="#d"/>
</g>
</g>
<g clip-path="url(#a)">
<defs>
<path id="o" d="m30.609 48.391q-7.2188 0-11.422-5.6406t-4.2031-15.453 4.1719-15.453q4.1875-5.6406 11.453-5.6406 7.1875 0 11.375 5.6562 4.2031 5.6719 4.2031 15.438 0 9.7188-4.2031 15.406-4.1875 5.6875-11.375 5.6875zm0 7.6094q11.719 0 18.406-7.625 6.7031-7.6094 6.7031-21.078 0-13.422-6.7031-21.078-6.6875-7.6406-18.406-7.6406-11.766 0-18.438 7.6406-6.6562 7.6562-6.6562 21.078 0 13.469 6.6562 21.078 6.6719 7.625 18.438 7.625z"/>
<path id="ah" d="m2.9844 54.688h9.5156l17.094-45.891 17.094 45.891h9.5156l-20.516-54.688h-12.203z"/>
</defs>
<g transform="translate(55.494 664.58) scale(.1 -.1)">
<use xlink:href="#l"/>
<use x="97.412109" xlink:href="#o"/>
<use x="158.59375" xlink:href="#ah"/>
<use x="217.773438" xlink:href="#d"/>
</g>
</g>
<g clip-path="url(#a)">
<defs>
<path id="p" d="m18.312 70.219v-15.531h18.5v-6.9844h-18.5v-29.688q0-6.6875 1.8281-8.5938t7.4531-1.9062h9.2188v-7.5156h-9.2188q-10.406 0-14.359 3.875-3.9531 3.8906-3.9531 14.141v29.688h-6.5938v6.9844h6.5938v15.531z"/>
</defs>
<g transform="translate(77.214 664.58) scale(.1 -.1)">
<use xlink:href="#p"/>
<use x="39.208984" xlink:href="#o"/>
</g>
</g>
<g clip-path="url(#a)">
<defs>
<path id="aq" d="m32.172-5.0781q-3.7969-9.7656-7.4219-12.734-3.6094-2.9844-9.6562-2.9844h-7.1875v7.5156h5.2812q3.7031 0 5.75 1.7656 2.0625 1.75 4.5469 8.2969l1.6094 4.0938-22.109 53.812h9.5156l17.094-42.766 17.094 42.766h9.5156z"/>
<path id="as" d="m4.2031 54.688h8.9844l11.234-42.672 11.172 42.672h10.594l11.234-42.672 11.188 42.672h8.9844l-14.312-54.688h-10.594l-11.766 44.828-11.812-44.828h-10.609z"/>
<path id="w" d="m45.406 46.391v29.594h8.9844v-75.984h-8.9844v8.2031q-2.8281-4.875-7.1562-7.25-4.3125-2.375-10.375-2.375-9.9062 0-16.141 7.9062-6.2188 7.9219-6.2188 20.812t6.2188 20.797q6.2344 7.9062 16.141 7.9062 6.0625 0 10.375-2.375 4.3281-2.3594 7.1562-7.2344zm-30.609-19.094q0-9.9062 4.0781-15.547t11.203-5.6406 11.219 5.6406q4.1094 5.6406 4.1094 15.547t-4.1094 15.547q-4.0938 5.6406-11.219 5.6406t-11.203-5.6406-4.0781-15.547z"/>
</defs>
<g transform="translate(72.262 664.58) scale(.1 -.1)">
<use xlink:href="#ac"/>
<use x="75.195312" xlink:href="#o"/>
<use x="136.376953" xlink:href="#i"/>
<use x="164.160156" xlink:href="#i"/>
<use x="191.943359" xlink:href="#aq"/>
<use x="251.123047" xlink:href="#as"/>
<use x="332.910156" xlink:href="#o"/>
<use x="394.091797" xlink:href="#o"/>
<use x="455.273438" xlink:href="#w"/>
</g>
</g>
<g clip-path="url(#a)">
<g transform="translate(109.16 664.58) scale(.1 -.1)">
<use xlink:href="#p"/>
<use x="39.208984" xlink:href="#aj"/>
<use x="102.587891" xlink:href="#d"/>
</g>
</g>
<g clip-path="url(#a)">
<defs>
<path id="v" d="m48.781 52.594v-8.4062q-3.8125 2.1094-7.6406 3.1562t-7.7344 1.0469q-8.75 0-13.594-5.5469-4.8281-5.5312-4.8281-15.547t4.8281-15.562q4.8438-5.5312 13.594-5.5312 3.9062 0 7.7344 1.0469t7.6406 3.1562v-8.3125q-3.7656-1.75-7.7969-2.625-4.0156-0.89062-8.5625-0.89062-12.359 0-19.641 7.7656-7.2656 7.7656-7.2656 20.953 0 13.375 7.3438 21.031 7.3594 7.6719 20.156 7.6719 4.1406 0 8.0938-0.85938 3.9531-0.84375 7.6719-2.5469z"/>
<path id="al" d="m8.5 21.578v33.109h8.9844v-32.766q0-7.7656 3.0156-11.656 3.0312-3.875 9.0938-3.875 7.2656 0 11.484 4.6406 4.2344 4.6406 4.2344 12.656v31h8.9844v-54.688h-8.9844v8.4062q-3.2656-4.9844-7.5938-7.4062-4.3125-2.4219-10.031-2.4219-9.4219 0-14.312 5.8594-4.875 5.8594-4.875 17.141z"/>
<path id="au" d="m18.109 8.2031v-29h-9.0312v75.484h9.0312v-8.2969q2.8438 4.875 7.1562 7.2344 4.3281 2.375 10.328 2.375 9.9688 0 16.188-7.9062 6.2344-7.9062 6.2344-20.797t-6.2344-20.812q-6.2188-7.9062-16.188-7.9062-6 0-10.328 2.375-4.3125 2.375-7.1562 7.25zm30.578 19.094q0 9.9062-4.0781 15.547t-11.203 5.6406q-7.1406 0-11.219-5.6406t-4.0781-15.547 4.0781-15.547 11.219-5.6406q7.125 0 11.203 5.6406t4.0781 15.547z"/>
</defs>
<g transform="translate(123.1 664.58) scale(.1 -.1)">
<use xlink:href="#v"/>
<use x="54.980469" xlink:href="#o"/>
<use x="116.162109" xlink:href="#al"/>
<use x="179.541016" xlink:href="#au"/>
<use x="243.017578" xlink:href="#i"/>
<use x="270.800781" xlink:href="#d"/>
</g>
</g>
<g clip-path="url(#a)">
<defs>
<path id="ap" d="m17.922 72.906v-27.109h-8.2969v27.109z"/>
<path id="ai" d="m44.281 53.078v-8.5q-3.7969 1.9531-7.9062 2.9219-4.0938 0.98438-8.5 0.98438-6.6875 0-10.031-2.0469t-3.3438-6.1562q0-3.125 2.3906-4.9062t9.625-3.3906l3.0781-0.6875q9.5625-2.0469 13.594-5.7812t4.0312-10.422q0-7.625-6.0312-12.078-6.0312-4.4375-16.578-4.4375-4.3906 0-9.1562 0.85938t-10.031 2.5625v9.2812q4.9844-2.5938 9.8125-3.8906 4.8281-1.2812 9.5781-1.2812 6.3438 0 9.75 2.1719 3.4219 2.1719 3.4219 6.125 0 3.6562-2.4688 5.6094-2.4531 1.9531-10.812 3.7656l-3.125 0.73438q-8.3438 1.75-12.062 5.3906-3.7031 3.6406-3.7031 9.9844 0 7.7188 5.4688 11.906 5.4688 4.2031 15.531 4.2031 4.9688 0 9.3594-0.73438 4.4062-0.71875 8.1094-2.1875z"/>
</defs>
<g transform="translate(161.29 664.58) scale(.1 -.1)">
<use xlink:href="#ap"/>
<use x="27.490234" xlink:href="#ai"/>
</g>
</g>
<g clip-path="url(#a)">
<g transform="translate(189.45 664.58) scale(.1 -.1)">
<use xlink:href="#g"/>
<use x="27.783203" xlink:href="#f"/>
</g>
</g>
<g clip-path="url(#a)">
<defs>
<path id="c" d="m12.406 8.2969h16.109v55.625l-17.531-3.5156v8.9844l17.438 3.5156h9.8594v-64.609h16.109v-8.2969h-41.984z"/>
<path id="u" d="m10.984 1.5156v8.9844q3.7188-1.7656 7.5156-2.6875 3.8125-0.92188 7.4844-0.92188 9.7656 0 14.906 6.5625 5.1562 6.5625 5.8906 19.953-2.8281-4.2031-7.1875-6.4531-4.3438-2.25-9.6094-2.25-10.938 0-17.312 6.6094-6.375 6.625-6.375 18.109 0 11.219 6.6406 18 6.6406 6.7969 17.672 6.7969 12.656 0 19.312-9.7031 6.6719-9.6875 6.6719-28.141 0-17.234-8.1875-27.516-8.1719-10.281-21.984-10.281-3.7188 0-7.5312 0.73438-3.7969 0.73438-7.9062 2.2031zm19.625 30.906q6.6406 0 10.516 4.5312 3.8906 4.5469 3.8906 12.469 0 7.8594-3.8906 12.422-3.875 4.5625-10.516 4.5625t-10.516-4.5625-3.875-12.422q0-7.9219 3.875-12.469 3.875-4.5312 10.516-4.5312z"/>
<path id="m" d="m40.578 39.312q7.0781-1.5156 11.047-6.3125 3.9844-4.7812 3.9844-11.812 0-10.781-7.4219-16.703-7.4219-5.9062-21.094-5.9062-4.5781 0-9.4375 0.90625t-10.031 2.7188v9.5156q4.0938-2.3906 8.9688-3.6094 4.8906-1.2188 10.219-1.2188 9.2656 0 14.125 3.6562t4.8594 10.641q0 6.4531-4.5156 10.078-4.5156 3.6406-12.562 3.6406h-8.5v8.1094h8.8906q7.2656 0 11.125 2.9062t3.8594 8.375q0 5.6094-3.9844 8.6094-3.9688 3.0156-11.391 3.0156-4.0625 0-8.7031-0.89062-4.6406-0.875-10.203-2.7188v8.7812q5.625 1.5625 10.531 2.3438t9.25 0.78125q11.234 0 17.766-5.1094 6.5469-5.0938 6.5469-13.781 0-6.0625-3.4688-10.234t-9.8594-5.7812z"/>
<path id="n" d="m19.188 8.2969h34.422v-8.2969h-46.281v8.2969q5.6094 5.8125 15.297 15.594 9.7031 9.7969 12.188 12.641 4.7344 5.3125 6.6094 9 1.8906 3.6875 1.8906 7.25 0 5.8125-4.0781 9.4688-4.0781 3.6719-10.625 3.6719-4.6406 0-9.7969-1.6094-5.1406-1.6094-11-4.8906v9.9688q5.9531 2.3906 11.125 3.6094 5.1875 1.2188 9.4844 1.2188 11.328 0 18.062-5.6719 6.7344-5.6562 6.7344-15.125 0-4.5-1.6875-8.5312-1.6719-4.0156-6.125-9.4844-1.2188-1.4219-7.7656-8.1875-6.5312-6.7656-18.453-18.922z"/>
</defs>
<g transform="translate(213.22 664.58) scale(.1 -.1)">
<use xlink:href="#c"/>
<use x="63.623047" xlink:href="#u"/>
<use x="127.246094" xlink:href="#m"/>
<use x="190.869141" xlink:href="#n"/>
</g>
</g>
<g clip-path="url(#a)">
<g transform="translate(235.92 664.58) scale(.1 -.1)">
<use xlink:href="#v"/>
<use x="54.980469" xlink:href="#d"/>
<use x="116.503906" xlink:href="#l"/>
<use x="213.916016" xlink:href="#d"/>
<use x="275.439453" xlink:href="#f"/>
<use x="338.818359" xlink:href="#p"/>
<use x="378.027344" xlink:href="#d"/>
<use x="439.550781" xlink:href="#w"/>
</g>
</g>
<g clip-path="url(#a)">
<defs>
<path id="am" d="m45.406 27.984q0 9.7656-4.0312 15.125-4.0156 5.375-11.297 5.375-7.2188 0-11.25-5.375-4.0312-5.3594-4.0312-15.125 0-9.7188 4.0312-15.094t11.25-5.375q7.2812 0 11.297 5.375 4.0312 5.375 4.0312 15.094zm8.9844-21.203q0-13.953-6.2031-20.766-6.1875-6.8125-18.984-6.8125-4.7344 0-8.9375 0.70312t-8.1562 2.1719v8.7344q3.9531-2.1406 7.8125-3.1562 3.8594-1.0312 7.8594-1.0312 8.8438 0 13.234 4.6094t4.3906 13.938v4.4531q-2.7812-4.8438-7.125-7.2344t-10.406-2.3906q-10.047 0-16.203 7.6562-6.1562 7.6719-6.1562 20.328 0 12.688 6.1562 20.344 6.1562 7.6719 16.203 7.6719 6.0625 0 10.406-2.3906t7.125-7.2188v8.2969h8.9844z"/>
</defs>
<g transform="translate(264.14 664.58) scale(.1 -.1)">
<use xlink:href="#d"/>
<use x="61.523438" xlink:href="#ai"/>
<use x="113.623047" xlink:href="#p"/>
<use x="152.832031" xlink:href="#k"/>
<use x="193.945312" xlink:href="#h"/>
<use x="255.224609" xlink:href="#f"/>
<use x="318.603516" xlink:href="#am"/>
<use x="382.080078" xlink:href="#d"/>
<use x="443.603516" xlink:href="#l"/>
<use x="541.015625" xlink:href="#d"/>
<use x="602.539062" xlink:href="#f"/>
<use x="665.917969" xlink:href="#p"/>
</g>
</g>
<g clip-path="url(#a)">
<defs>
<path id="ak" d="m11.719 12.406h10.297v-8.4062l-8-15.625h-6.2969l4 15.625z"/>
</defs>
<g transform="translate(339.32 664.58) scale(.1 -.1)">
<use xlink:href="#ak"/>
</g>
</g>
<g clip-path="url(#a)">
<g transform="translate(376.21 664.58) scale(.1 -.1)">
<use xlink:href="#h"/>
<use x="61.279297" xlink:href="#f"/>
<use x="124.658203" xlink:href="#w"/>
</g>
</g>
<g clip-path="url(#a)">
<g transform="translate(428.96 664.58) scale(.1 -.1)">
<use xlink:href="#g"/>
<use x="27.783203" xlink:href="#f"/>
</g>
</g>
<g clip-path="url(#a)">
<defs>
<path id="s" d="m37.797 64.312-24.906-38.922h24.906zm-2.5938 8.5938h12.406v-47.516h10.406v-8.2031h-10.406v-17.188h-9.8125v17.188h-32.906v9.5156z"/>
</defs>
<g transform="translate(471.89 664.58) scale(.1 -.1)">
<use xlink:href="#c"/>
<use x="63.623047" xlink:href="#u"/>
<use x="127.246094" xlink:href="#m"/>
<use x="190.869141" xlink:href="#s"/>
</g>
</g>
<g clip-path="url(#a)">
<g transform="translate(537.32 664.58) scale(.1 -.1)">
<use xlink:href="#ak"/>
</g>
</g>
<g clip-path="url(#a)">
<g transform="translate(587.54 664.58) scale(.1 -.1)">
<use xlink:href="#ai"/>
<use x="52.099609" xlink:href="#aj"/>
<use x="115.478516" xlink:href="#d"/>
</g>
</g>
<g clip-path="url(#a)">
<g transform="translate(636.31 664.58) scale(.1 -.1)">
<use xlink:href="#p"/>
<use x="39.208984" xlink:href="#k"/>
<use x="80.322266" xlink:href="#h"/>
<use x="141.601562" xlink:href="#ah"/>
<use x="200.78125" xlink:href="#d"/>
<use x="262.304688" xlink:href="#i"/>
<use x="290.087891" xlink:href="#d"/>
<use x="351.611328" xlink:href="#w"/>
</g>
</g>
<g clip-path="url(#a)">
<g transform="translate(715.92 664.58) scale(.1 -.1)">
<use xlink:href="#p"/>
<use x="39.208984" xlink:href="#o"/>
</g>
</g>
<g clip-path="url(#a)">
<defs>
<path id="an" d="m9.8125 72.906h14.703l18.594-49.609 18.703 49.609h14.703v-72.906h-9.625v64.016l-18.797-50h-9.9062l-18.797 50v-64.016h-9.5781z"/>
<path id="ar" d="m54.891 54.688-19.781-26.609 20.797-28.078h-10.594l-15.922 21.484-15.906-21.484h-10.609l21.25 28.609-19.438 26.078h10.594l14.5-19.484 14.5 19.484z"/>
</defs>
<g transform="translate(770.54 664.58) scale(.1 -.1)">
<use xlink:href="#an"/>
<use x="86.279297" xlink:href="#d"/>
<use x="146.052734" xlink:href="#ar"/>
<use x="205.232422" xlink:href="#g"/>
<use x="233.015625" xlink:href="#v"/>
<use x="287.996094" xlink:href="#o"/>
</g>
</g>
<g clip-path="url(#a)">
<g transform="translate(853.24 664.58) scale(.1 -.1)">
<use xlink:href="#p"/>
<use x="39.208984" xlink:href="#o"/>
</g>
</g>
<g clip-path="url(#a)">
<g transform="translate(923.5 664.58) scale(.1 -.1)">
<use xlink:href="#am"/>
<use x="63.476562" xlink:href="#d"/>
<use x="125" xlink:href="#p"/>
</g>
</g>
<g clip-path="url(#a)">
<g transform="translate(1005.3 664.58) scale(.1 -.1)">
<use xlink:href="#h"/>
</g>
</g>
<g clip-path="url(#a)">
<defs>
<path id="at" d="m14.797 27.297q0-9.9062 4.0781-15.547t11.203-5.6406 11.219 5.6406q4.1094 5.6406 4.1094 15.547t-4.1094 15.547q-4.0938 5.6406-11.219 5.6406t-11.203-5.6406-4.0781-15.547zm30.609-19.094q-2.8281-4.875-7.1562-7.25-4.3125-2.375-10.375-2.375-9.9062 0-16.141 7.9062-6.2188 7.9219-6.2188 20.812t6.2188 20.797q6.2344 7.9062 16.141 7.9062 6.0625 0 10.375-2.375 4.3281-2.3594 7.1562-7.2344v8.2969h8.9844v-75.484h-8.9844z"/>
<path id="av" d="m9.0781 75.984h9.0312v-44.875l26.812 23.578h11.469l-29-25.578 30.234-29.109h-11.719l-27.797 26.703v-26.703h-9.0312z"/>
</defs>
<g transform="translate(1074.8 664.58) scale(.1 -.1)">
<use xlink:href="#at"/>
<use x="63.476562" xlink:href="#al"/>
<use x="126.855469" xlink:href="#g"/>
<use x="154.638672" xlink:href="#v"/>
<use x="209.619141" xlink:href="#av"/>
</g>
</g>
<g clip-path="url(#a)">
<g transform="translate(1152.9 664.58) scale(.1 -.1)">
<use xlink:href="#w"/>
<use x="63.476562" xlink:href="#g"/>
<use x="91.259766" xlink:href="#ah"/>
<use x="150.439453" xlink:href="#o"/>
<use x="211.621094" xlink:href="#k"/>
<use x="250.484375" xlink:href="#v"/>
<use x="305.464844" xlink:href="#d"/>
</g>
</g>
<g clip-path="url(#a)">
<defs>
<path id="e" d="m10.688 12.406h10.312v-12.406h-10.312z"/>
</defs>
<g transform="translate(1255.9 664.58) scale(.1 -.1)">
<use xlink:href="#e"/>
</g>
</g>
<g clip-path="url(#a)">
<g transform="translate(393.96 34.275) scale(.1 -.1)">
<use xlink:href="#c"/>
<use x="63.623047" xlink:href="#e"/>
<use x="95.410156" xlink:href="#c"/>
</g>
</g>
<g clip-path="url(#a)">
<g transform="translate(209.3 161.46) scale(.1 -.1)">
<use xlink:href="#c"/>
<use x="63.623047" xlink:href="#e"/>
<use x="95.410156" xlink:href="#n"/>
</g>
</g>
<g clip-path="url(#a)">
<g transform="translate(377.67 540.53) scale(.1 -.1)">
<use xlink:href="#c"/>
<use x="63.623047" xlink:href="#e"/>
<use x="95.410156" xlink:href="#m"/>
</g>
</g>
<g clip-path="url(#a)">
<g transform="translate(655.9 161.46) scale(.1 -.1)">
<use xlink:href="#c"/>
<use x="63.623047" xlink:href="#e"/>
<use x="95.410156" xlink:href="#s"/>
</g>
</g>
<g clip-path="url(#a)">
<defs>
<path id="z" d="m8.2031 72.906h46.875v-4.2031l-26.469-68.703h-10.297l24.906 64.594h-35.016z"/>
</defs>
<g transform="translate(451.12 414.76) scale(.1 -.1)">
<use xlink:href="#c"/>
<use x="63.623047" xlink:href="#e"/>
<use x="95.410156" xlink:href="#z"/>
</g>
</g>
<g clip-path="url(#a)">
<defs>
<path id="y" d="m31.781 34.625q-7.0312 0-11.062-3.7656-4.0156-3.7656-4.0156-10.344 0-6.5938 4.0156-10.359 4.0312-3.7656 11.062-3.7656t11.078 3.7812q4.0625 3.7969 4.0625 10.344 0 6.5781-4.0312 10.344-4.0156 3.7656-11.109 3.7656zm-9.8594 4.1875q-6.3438 1.5625-9.8906 5.9062-3.5312 4.3594-3.5312 10.609 0 8.7344 6.2188 13.812 6.2344 5.0781 17.062 5.0781 10.891 0 17.094-5.0781t6.2031-13.812q0-6.25-3.5469-10.609-3.5312-4.3438-9.8281-5.9062 7.125-1.6562 11.094-6.5 3.9844-4.8281 3.9844-11.797 0-10.609-6.4688-16.281-6.4688-5.6562-18.531-5.6562-12.047 0-18.531 5.6562-6.4688 5.6719-6.4688 16.281 0 6.9688 4 11.797 4.0156 4.8438 11.141 6.5zm-3.6094 15.578q0-5.6562 3.5312-8.8281 3.5469-3.1719 9.9375-3.1719 6.3594 0 9.9375 3.1719 3.5938 3.1719 3.5938 8.8281 0 5.6719-3.5938 8.8438-3.5781 3.1719-9.9375 3.1719-6.3906 0-9.9375-3.1719-3.5312-3.1719-3.5312-8.8438z"/>
</defs>
<g transform="translate(588.44 540.53) scale(.1 -.1)">
<use xlink:href="#c"/>
<use x="63.623047" xlink:href="#e"/>
<use x="95.410156" xlink:href="#y"/>
</g>
</g>
<g clip-path="url(#a)">
<g transform="translate(649.12 540.53) scale(.1 -.1)">
<use xlink:href="#c"/>
<use x="63.623047" xlink:href="#e"/>
<use x="95.410156" xlink:href="#u"/>
</g>
</g>
<g clip-path="url(#a)">
<defs>
<path id="aa" d="m31.781 66.406q-7.6094 0-11.453-7.5-3.8281-7.4844-3.8281-22.531 0-14.984 3.8281-22.484 3.8438-7.5 11.453-7.5 7.6719 0 11.5 7.5 3.8438 7.5 3.8438 22.484 0 15.047-3.8438 22.531-3.8281 7.5-11.5 7.5zm0 7.8125q12.266 0 18.734-9.7031 6.4688-9.6875 6.4688-28.141 0-18.406-6.4688-28.109-6.4688-9.6875-18.734-9.6875-12.25 0-18.719 9.6875-6.4688 9.7031-6.4688 28.109 0 18.453 6.4688 28.141 6.4688 9.7031 18.719 9.7031z"/>
</defs>
<g transform="translate(743.34 414.76) scale(.1 -.1)">
<use xlink:href="#c"/>
<use x="63.623047" xlink:href="#e"/>
<use x="95.410156" xlink:href="#c"/>
<use x="159.033203" xlink:href="#aa"/>
</g>
</g>
<g clip-path="url(#a)">
<g transform="translate(966.09 288.32) scale(.1 -.1)">
<use xlink:href="#c"/>
<use x="63.623047" xlink:href="#e"/>
<use x="95.410156" xlink:href="#c"/>
<use x="159.033203" xlink:href="#c"/>
</g>
</g>
<g clip-path="url(#a)">
<g transform="translate(847.13 540.53) scale(.1 -.1)">
<use xlink:href="#c"/>
<use x="63.623047" xlink:href="#e"/>
<use x="95.410156" xlink:href="#c"/>
<use x="159.033203" xlink:href="#m"/>
</g>
</g>
<g clip-path="url(#a)">
<g transform="translate(920.58 540.53) scale(.1 -.1)">
<use xlink:href="#c"/>
<use x="63.623047" xlink:href="#e"/>
<use x="95.410156" xlink:href="#c"/>
<use x="159.033203" xlink:href="#s"/>
</g>
</g>
<g clip-path="url(#a)">
<defs>
<path id="ag" d="m10.797 72.906h38.719v-8.3125h-29.688v-17.859q2.1406 0.73438 4.2812 1.0938 2.1562 0.35938 4.3125 0.35938 12.203 0 19.328-6.6875 7.1406-6.6875 7.1406-18.109 0-11.766-7.3281-18.297-7.3281-6.5156-20.656-6.5156-4.5938 0-9.3594 0.78125-4.75 0.78125-9.8281 2.3438v9.9219q4.3906-2.3906 9.0781-3.5625t9.9062-1.1719q8.4531 0 13.375 4.4375 4.9375 4.4375 4.9375 12.062 0 7.6094-4.9375 12.047-4.9219 4.4531-13.375 4.4531-3.9531 0-7.8906-0.875-3.9219-0.875-8.0156-2.7344z"/>
</defs>
<g transform="translate(1037.1 414.76) scale(.1 -.1)">
<use xlink:href="#c"/>
<use x="63.623047" xlink:href="#e"/>
<use x="95.410156" xlink:href="#c"/>
<use x="159.033203" xlink:href="#ag"/>
</g>
</g>
<g clip-path="url(#a)">
<defs>
<path id="af" d="m33.016 40.375q-6.6406 0-10.531-4.5469-3.875-4.5312-3.875-12.438 0-7.8594 3.875-12.438 3.8906-4.5625 10.531-4.5625t10.516 4.5625q3.875 4.5781 3.875 12.438 0 7.9062-3.875 12.438-3.875 4.5469-10.516 4.5469zm19.578 30.922v-8.9844q-3.7188 1.75-7.5 2.6719-3.7812 0.9375-7.5 0.9375-9.7656 0-14.922-6.5938-5.1406-6.5938-5.875-19.922 2.875 4.25 7.2188 6.5156 4.3594 2.2656 9.5781 2.2656 10.984 0 17.359-6.6719 6.375-6.6562 6.375-18.125 0-11.234-6.6406-18.031-6.6406-6.7812-17.672-6.7812-12.656 0-19.344 9.6875-6.6875 9.7031-6.6875 28.109 0 17.281 8.2031 27.562t22.016 10.281q3.7188 0 7.5-0.73438t7.8906-2.1875z"/>
</defs>
<g transform="translate(1160.1 540.53) scale(.1 -.1)">
<use xlink:href="#c"/>
<use x="63.623047" xlink:href="#e"/>
<use x="95.410156" xlink:href="#c"/>
<use x="159.033203" xlink:href="#af"/>
</g>
</g>
<g clip-path="url(#a)">
<g transform="translate(997.23 540.53) scale(.1 -.1)">
<use xlink:href="#c"/>
<use x="63.623047" xlink:href="#e"/>
<use x="95.410156" xlink:href="#c"/>
<use x="159.033203" xlink:href="#z"/>
</g>
</g>
<g clip-path="url(#a)">
<g transform="translate(1077.1 540.53) scale(.1 -.1)">
<use xlink:href="#c"/>
<use x="63.623047" xlink:href="#e"/>
<use x="95.410156" xlink:href="#c"/>
<use x="159.033203" xlink:href="#y"/>
</g>
</g>
<g clip-path="url(#a)">
<g transform="translate(709.81 540.53) scale(.1 -.1)">
<use xlink:href="#c"/>
<use x="63.623047" xlink:href="#e"/>
<use x="95.410156" xlink:href="#c"/>
<use x="159.033203" xlink:href="#u"/>
</g>
</g>
<g clip-path="url(#a)">
<g transform="translate(776.87 540.53) scale(.1 -.1)">
<use xlink:href="#c"/>
<use x="63.623047" xlink:href="#e"/>
<use x="95.410156" xlink:href="#n"/>
<use x="159.033203" xlink:href="#aa"/>
</g>
</g>
<g clip-path="url(#a)">
<g transform="translate(422.39 540.53) scale(.1 -.1)">
<use xlink:href="#c"/>
<use x="63.623047" xlink:href="#e"/>
<use x="95.410156" xlink:href="#n"/>
<use x="159.033203" xlink:href="#c"/>
</g>
</g>
<g clip-path="url(#a)">
<g transform="translate(473.49 540.53) scale(.1 -.1)">
<use xlink:href="#c"/>
<use x="63.623047" xlink:href="#e"/>
<use x="95.410156" xlink:href="#n"/>
<use x="159.033203" xlink:href="#n"/>
</g>
</g>
<g clip-path="url(#a)">
<g transform="translate(87.423 288.32) scale(.1 -.1)">
<use xlink:href="#c"/>
<use x="63.623047" xlink:href="#e"/>
<use x="95.410156" xlink:href="#n"/>
<use x="159.033203" xlink:href="#m"/>
</g>
</g>
<g clip-path="url(#a)">
<g transform="translate(198.84 414.76) scale(.1 -.1)">
<use xlink:href="#c"/>
<use x="63.623047" xlink:href="#e"/>
<use x="95.410156" xlink:href="#n"/>
<use x="159.033203" xlink:href="#s"/>
</g>
</g>
<g clip-path="url(#a)">
<g transform="translate(249.94 540.53) scale(.1 -.1)">
<use xlink:href="#c"/>
<use x="63.623047" xlink:href="#e"/>
<use x="95.410156" xlink:href="#n"/>
<use x="159.033203" xlink:href="#ag"/>
</g>
</g>
<g clip-path="url(#a)">
<g transform="translate(288.26 540.53) scale(.1 -.1)">
<use xlink:href="#c"/>
<use x="63.623047" xlink:href="#e"/>
<use x="95.410156" xlink:href="#n"/>
<use x="159.033203" xlink:href="#af"/>
</g>
</g>
<g clip-path="url(#a)">
<g transform="translate(182.87 540.53) scale(.1 -.1)">
<use xlink:href="#c"/>
<use x="63.623047" xlink:href="#e"/>
<use x="95.410156" xlink:href="#n"/>
<use x="159.033203" xlink:href="#z"/>
</g>
</g>
<g clip-path="url(#a)">
<g transform="translate(214.81 540.53) scale(.1 -.1)">
<use xlink:href="#c"/>
<use x="63.623047" xlink:href="#e"/>
<use x="95.410156" xlink:href="#n"/>
<use x="159.033203" xlink:href="#y"/>
</g>
</g>
<g clip-path="url(#a)">
<g transform="translate(53.536 414.76) scale(.1 -.1)">
<use xlink:href="#c"/>
<use x="63.623047" xlink:href="#e"/>
<use x="95.410156" xlink:href="#n"/>
<use x="159.033203" xlink:href="#u"/>
</g>
</g>
<g clip-path="url(#a)">
<g transform="translate(79.085 414.76) scale(.1 -.1)">
<use xlink:href="#c"/>
<use x="63.623047" xlink:href="#e"/>
<use x="95.410156" xlink:href="#m"/>
<use x="159.033203" xlink:href="#aa"/>
</g>
</g>
<g clip-path="url(#a)">
<g transform="translate(129.65 414.76) scale(.1 -.1)">
<use xlink:href="#c"/>
<use x="63.623047" xlink:href="#e"/>
<use x="95.410156" xlink:href="#m"/>
<use x="159.033203" xlink:href="#c"/>
</g>
</g>
<g clip-path="url(#a)">
<g transform="translate(106.23 540.53) scale(.1 -.1)">
<use xlink:href="#c"/>
<use x="63.623047" xlink:href="#e"/>
<use x="95.410156" xlink:href="#m"/>
<use x="159.033203" xlink:href="#n"/>
</g>
</g>
<g clip-path="url(#a)">
<g transform="translate(128.58 540.53) scale(.1 -.1)">
<use xlink:href="#c"/>
<use x="63.623047" xlink:href="#e"/>
<use x="95.410156" xlink:href="#m"/>
<use x="159.033203" xlink:href="#m"/>
</g>
</g>
<g clip-path="url(#a)">
<g transform="translate(154.13 540.53) scale(.1 -.1)">
<use xlink:href="#c"/>
<use x="63.623047" xlink:href="#e"/>
<use x="95.410156" xlink:href="#m"/>
<use x="159.033203" xlink:href="#s"/>
</g>
</g>
<g clip-path="url(#a)">
<g transform="translate(71.101 540.53) scale(.1 -.1)">
<use xlink:href="#c"/>
<use x="63.623047" xlink:href="#e"/>
<use x="95.410156" xlink:href="#m"/>
<use x="159.033203" xlink:href="#ag"/>
</g>
</g>
<g clip-path="url(#a)">
<g transform="translate(87.068 540.53) scale(.1 -.1)">
<use xlink:href="#c"/>
<use x="63.623047" xlink:href="#e"/>
<use x="95.410156" xlink:href="#m"/>
<use x="159.033203" xlink:href="#af"/>
</g>
</g>
<g clip-path="url(#a)">
<g transform="translate(48.746 540.53) scale(.1 -.1)">
<use xlink:href="#c"/>
<use x="63.623047" xlink:href="#e"/>
<use x="95.410156" xlink:href="#m"/>
<use x="159.033203" xlink:href="#z"/>
</g>
</g>
<g clip-path="url(#a)">
<g transform="translate(58.327 540.53) scale(.1 -.1)">
<use xlink:href="#c"/>
<use x="63.623047" xlink:href="#e"/>
<use x="95.410156" xlink:href="#m"/>
<use x="159.033203" xlink:href="#y"/>
</g>
</g>
<g clip-path="url(#a)">
<g transform="translate(329.78 540.53) scale(.1 -.1)">
<use xlink:href="#c"/>
<use x="63.623047" xlink:href="#e"/>
<use x="95.410156" xlink:href="#m"/>
<use x="159.033203" xlink:href="#u"/>
</g>
</g>
<g clip-path="url(#a)">
<g transform="translate(527.78 540.53) scale(.1 -.1)">
<use xlink:href="#c"/>
<use x="63.623047" xlink:href="#e"/>
<use x="95.410156" xlink:href="#s"/>
<use x="159.033203" xlink:href="#aa"/>
</g>
</g>
<g clip-path="url(#a)">
<g transform="translate(1246.3 540.53) scale(.1 -.1)">
<use xlink:href="#c"/>
<use x="63.623047" xlink:href="#e"/>
<use x="95.410156" xlink:href="#s"/>
<use x="159.033203" xlink:href="#c"/>
</g>
</g>
<defs>
<clipPath id="a">
<rect width="1317.3" height="693.33"/>
</clipPath>
</defs>
</svg>
