<?xml version="1.0" encoding="UTF-8"?>
<!DOCTYPE svg  PUBLIC '-//W3C//DTD SVG 1.1//EN'  'http://www.w3.org/Graphics/SVG/1.1/DTD/svg11.dtd'>
<svg width="1621.3pt" height="853.33pt" version="1.1" viewBox="0 0 1621.3 853.33" xmlns="http://www.w3.org/2000/svg" xmlns:xlink="http://www.w3.org/1999/xlink">
<defs>
<style type="text/css">*{stroke-linecap:butt;stroke-linejoin:round;}</style>
</defs>
<path d="m0 853.33h1621.3v-853.33h-1621.3z" fill="#fff"/>
<g fill="none" stroke="#000">
<path d="m508.03 38.788-402.19 195.61" clip-path="url(#a)"/>
<path d="m508.03 38.788-267.92 584.49" clip-path="url(#a)"/>
<path d="m508.03 38.788-236.22 584.49" clip-path="url(#a)"/>
<path d="m508.03 38.788-60.561 195.61" clip-path="url(#a)"/>
<path d="m508.03 38.788 173.21 195.61" clip-path="url(#a)"/>
<path d="m508.03 38.788 556.22 584.49" clip-path="url(#a)"/>
<path d="m508.03 38.788 534.43 195.61" clip-path="url(#a)"/>
<path d="m508.03 38.788-296.97 584.49" clip-path="url(#a)"/>
<path d="m105.83 234.4-32.138 388.88" clip-path="url(#a)"/>
<path d="m105.83 234.4-24.213 388.88" clip-path="url(#a)"/>
<path d="m105.83 234.4 0.88049 194.95" clip-path="url(#a)"/>
<path d="m105.83 234.4-0.44024 388.88" clip-path="url(#a)"/>
<path d="m105.83 234.4 55.911 194.95" clip-path="url(#a)"/>
<path d="m240.11 623.28v191.27" clip-path="url(#a)"/>
<path d="m271.81 623.28v191.27" clip-path="url(#a)"/>
<path d="m447.46 234.4 120.19 388.88" clip-path="url(#a)" stroke-dasharray="3.7,1.6"/>
<path d="m447.46 234.4-81.886 194.95" clip-path="url(#a)"/>
<path d="m447.46 234.4-84.527 194.95" clip-path="url(#a)"/>
<path d="m447.46 234.4 46.226 194.95" clip-path="url(#a)"/>
<path d="m681.23 234.4-113.58 388.88" clip-path="url(#a)"/>
<path d="m681.23 234.4-60.754 388.88" clip-path="url(#a)"/>
<path d="m681.23 234.4-5.2829 388.88" clip-path="url(#a)"/>
<path d="m681.23 234.4 179.62 194.95" clip-path="url(#a)"/>
<path d="m1064.2 623.28v191.27" clip-path="url(#a)"/>
<path d="m1042.5 234.4 95.753 388.88" clip-path="url(#a)"/>
<path d="m1042.5 234.4 172.36 388.88" clip-path="url(#a)"/>
<path d="m1042.5 234.4 206.69 194.95" clip-path="url(#a)"/>
<path d="m1042.5 234.4-474.8 388.88" clip-path="url(#a)" stroke-dasharray="3.7,1.6"/>
<path d="m1138.2 623.28v191.27" clip-path="url(#a)"/>
<path d="m1214.8 623.28v191.27" clip-path="url(#a)"/>
<path d="m1249.2 429.35 44.905 193.93" clip-path="url(#a)"/>
<path d="m1249.2 429.35 126.79 193.93" clip-path="url(#a)"/>
<path d="m1249.2 429.35 211.32 193.93" clip-path="url(#a)"/>
<path d="m1249.2 429.35-681.5 193.93" clip-path="url(#a)" stroke-dasharray="3.7,1.6"/>
<path d="m1249.2 429.35 298.49 193.93" clip-path="url(#a)"/>
<path d="m1294.1 623.28v191.27" clip-path="url(#a)"/>
<path d="m1375.9 623.28v191.27" clip-path="url(#a)"/>
<path d="m1460.5 623.28v191.27" clip-path="url(#a)"/>
<path d="m567.65 623.28v191.27" clip-path="url(#a)"/>
<path d="m620.48 623.28v191.27" clip-path="url(#a)"/>
<path d="m675.95 623.28v191.27" clip-path="url(#a)"/>
<path d="m860.85 429.35-126.79 193.93" clip-path="url(#a)"/>
<path d="m860.85 429.35-66.037 193.93" clip-path="url(#a)"/>
<path d="m860.85 429.35-2.6415 193.93" clip-path="url(#a)"/>
<path d="m860.85 429.35 63.395 193.93" clip-path="url(#a)"/>
<path d="m860.85 429.35 132.07 193.93" clip-path="url(#a)"/>
<path d="m734.06 623.28v191.27" clip-path="url(#a)"/>
<path d="m794.82 623.28v191.27" clip-path="url(#a)"/>
<path d="m858.21 623.28v191.27" clip-path="url(#a)"/>
<path d="m924.25 623.28v191.27" clip-path="url(#a)"/>
<path d="m992.93 623.28v191.27" clip-path="url(#a)"/>
<path d="m365.58 429.35-59.433 193.93" clip-path="url(#a)"/>
<path d="m365.58 429.35 59.433 193.93" clip-path="url(#a)"/>
<path d="m362.94 429.35-19.811 193.93" clip-path="url(#a)"/>
<path d="m362.94 429.35 19.811 193.93" clip-path="url(#a)"/>
<path d="m493.69 429.35-23.773 193.93" clip-path="url(#a)"/>
<path d="m493.69 429.35 23.773 193.93" clip-path="url(#a)"/>
<path d="m469.92 623.28v191.27" clip-path="url(#a)"/>
<path d="m517.46 623.28v191.27" clip-path="url(#a)"/>
<path d="m343.13 623.28v191.27" clip-path="url(#a)"/>
<path d="m382.75 623.28v191.27" clip-path="url(#a)"/>
<path d="m306.15 623.28v191.27" clip-path="url(#a)"/>
<path d="m425.01 623.28v191.27" clip-path="url(#a)"/>
<path d="m73.697 623.28v191.27" clip-path="url(#a)"/>
<path d="m81.621 623.28v191.27" clip-path="url(#a)"/>
<path d="m106.72 429.35-14.528 193.93" clip-path="url(#a)"/>
<path d="m106.72 429.35 14.528 193.93" clip-path="url(#a)"/>
<path d="m105.39 623.28v191.27" clip-path="url(#a)"/>
<path d="m161.75 429.35-22.012 193.93" clip-path="url(#a)"/>
<path d="m161.75 429.35-0.88049 193.93" clip-path="url(#a)"/>
<path d="m161.75 429.35 22.893 193.93" clip-path="url(#a)"/>
<path d="m139.73 623.28v191.27" clip-path="url(#a)"/>
<path d="m160.87 623.28v191.27" clip-path="url(#a)"/>
<path d="m184.64 623.28v191.27" clip-path="url(#a)"/>
<path d="m92.187 623.28v191.27" clip-path="url(#a)"/>
<path d="m121.24 623.28v191.27" clip-path="url(#a)"/>
<path d="m211.05 623.28v191.27" clip-path="url(#a)"/>
<path d="m1547.6 623.28v191.27" clip-path="url(#a)"/>
</g>
<path d="m306.97 143.55 5.4103-2.6314q2.1583-1.0497 1.1086-3.208l-3.3864-6.9627q-1.0497-2.1583-3.208-1.1086l-5.4103 2.6314q-2.1583 1.0497-1.1086 3.208l3.3864 6.9627q1.0497 2.1583 3.208 1.1086z" clip-path="url(#a)" fill="#fff" stroke="#fff"/>
<g clip-path="url(#a)">
<defs>
<path id="w" d="m9.8125 72.906h9.8594v-29.891h35.844v29.891h9.8594v-72.906h-9.8594v34.719h-35.844v-34.719h-9.8594z"/>
</defs>
<g transform="translate(305.19 139.89) rotate(-25.937) scale(.08 -.08)">
<use xlink:href="#w"/>
</g>
</g>
<path d="m378.84 335.67 1.8574-4.0521q1.0001-2.1817-1.1817-3.1818l-7.0383-3.2262q-2.1817-1.0001-3.1818 1.1817l-1.8574 4.0521q-1.0001 2.1817 1.1817 3.1818l7.0383 3.2262q2.1817 1.0001 3.1818-1.1817z" clip-path="url(#a)" fill="#fff" stroke="#fff"/>
<g clip-path="url(#a)">
<defs>
<path id="ah" d="m9.8125 72.906h9.8594v-64.609h35.5v-8.2969h-45.359z"/>
</defs>
<g transform="translate(375.15 333.98) rotate(-65.374) scale(.08 -.08)">
<use xlink:href="#ah"/>
</g>
</g>
<path d="m394.9 335.45 1.6702-4.1327q0.89928-2.2251-1.3259-3.1244l-7.1784-2.9011q-2.2251-0.89928-3.1244 1.3259l-1.6702 4.1327q-0.89929 2.2251 1.3259 3.1244l7.1784 2.9011q2.2251 0.89929 3.1244-1.3259z" clip-path="url(#a)" fill="#fff" stroke="#fff"/>
<g clip-path="url(#a)">
<g transform="translate(391.13 333.93) rotate(-67.994) scale(.08 -.08)">
<use xlink:href="#ah"/>
</g>
</g>
<path d="m482.85 141.32 1.7793-5.7471q0.7098-2.2926-1.5828-3.0024l-7.3961-2.2898q-2.2926-0.7098-3.0024 1.5828l-1.7793 5.7471q-0.7098 2.2926 1.5828 3.0024l7.3961 2.2898q2.2926 0.7098 3.0024-1.5828z" clip-path="url(#a)" fill="#fff" stroke="#fff"/>
<g clip-path="url(#a)">
<g transform="translate(478.96 140.12) rotate(-72.797) scale(.08 -.08)">
<use xlink:href="#w"/>
</g>
</g>
<path d="m587.94 138.5 3.9884 4.5042q1.591 1.7968 3.3879 0.20578l5.7966-5.1328q1.7968-1.591 0.20578-3.3879l-3.9884-4.5042q-1.591-1.7968-3.3879-0.20578l-5.7966 5.1328q-1.7968 1.591-0.20578 3.3879z" clip-path="url(#a)" fill="#fff" stroke="#fff"/>
<g clip-path="url(#a)">
<g transform="translate(590.98 135.8) rotate(48.476) scale(.08 -.08)">
<use xlink:href="#w"/>
</g>
</g>
<path d="m780.06 333.74 3.0729 3.229q1.6545 1.7386 3.3931 0.084079l5.6087-5.3375q1.7386-1.6545 0.08408-3.3931l-3.0729-3.229q-1.6545-1.7386-3.3931-0.08408l-5.6087 5.3375q-1.7386 1.6545-0.08408 3.3931z" clip-path="url(#a)" fill="#fff" stroke="#fff"/>
<g clip-path="url(#a)">
<g transform="translate(783 330.94) rotate(46.419) scale(.08 -.08)">
<use xlink:href="#ah"/>
</g>
</g>
<path d="m770.26 141.45 5.6497 2.0679q2.2538 0.82492 3.0787-1.4289l2.6612-7.2708q0.82492-2.2538-1.4289-3.0787l-5.6497-2.0679q-2.2538-0.82492-3.0787 1.4289l-2.6612 7.2708q-0.82492 2.2538 1.4289 3.0787z" clip-path="url(#a)" fill="#fff" stroke="#fff"/>
<g clip-path="url(#a)">
<g transform="translate(771.66 137.63) rotate(20.104) scale(.08 -.08)">
<use xlink:href="#w"/>
</g>
</g>
<path d="m363.8 336.48 2.6522-5.2199q1.0871-2.1397-1.0525-3.2268l-6.9026-3.5072q-2.1397-1.0871-3.2268 1.0525l-2.6522 5.2199q-1.0871 2.1397 1.0525 3.2268l6.9026 3.5072q2.1397 1.0871 3.2268-1.0525z" clip-path="url(#a)" fill="#fff" stroke="#fff"/>
<g clip-path="url(#a)">
<defs>
<path id="ap" d="m8.6875 72.906h9.9219v-44.297q0-11.719 4.2344-16.875 4.25-5.1406 13.781-5.1406 9.4688 0 13.719 5.1406 4.25 5.1562 4.25 16.875v44.297h9.9062v-45.516q0-14.25-7.0625-21.531-7.0469-7.2812-20.812-7.2812-13.828 0-20.891 7.2812-7.0469 7.2812-7.0469 21.531z"/>
</defs>
<g transform="translate(360.18 334.64) rotate(-63.065) scale(.08 -.08)">
<use xlink:href="#ap"/>
</g>
</g>
<path d="m95.79 432.08 0.45073-5.4539q0.19767-2.3918-2.1942-2.5895l-7.7162-0.63769q-2.3918-0.19767-2.5895 2.1942l-0.45072 5.4539q-0.19767 2.3918 2.1942 2.5895l7.7162 0.63769q2.3918 0.19767 2.5895-2.1942z" clip-path="url(#a)" fill="#fff" stroke="#fff"/>
<g clip-path="url(#a)">
<defs>
<path id="r" d="m34.188 63.188-13.391-36.281h26.812zm-5.5781 9.7188h11.188l27.781-72.906h-10.25l-6.6406 18.703h-32.859l-6.6406-18.703h-10.406z"/>
</defs>
<g transform="translate(91.741 431.75) rotate(-85.276) scale(.08 -.08)">
<use xlink:href="#r"/>
</g>
</g>
<path d="m99.844 431.52 0.28594-4.5924q0.14915-2.3954-2.2462-2.5445l-7.7275-0.48116q-2.3954-0.14915-2.5445 2.2462l-0.28594 4.5924q-0.14915 2.3954 2.2462 2.5445l7.7275 0.48116q2.3954 0.14915 2.5445-2.2462z" clip-path="url(#a)" fill="#fff" stroke="#fff"/>
<g clip-path="url(#a)">
<defs>
<path id="ai" d="m9.8125 72.906h41.891v-8.3125h-32.031v-21.484h28.906v-8.2969h-28.906v-34.812h-9.8594z"/>
</defs>
<g transform="translate(95.788 431.27) rotate(-86.437) scale(.08 -.08)">
<use xlink:href="#ai"/>
</g>
</g>
<path d="m99.992 329.36 0.022939 5.0787q0.010839 2.4 2.4108 2.3891l7.7424-0.034969q2.4-0.01084 2.3891-2.4108l-0.022939-5.0787q-0.010839-2.4-2.4108-2.3891l-7.7424 0.03497q-2.4 0.010839-2.3891 2.4108z" clip-path="url(#a)" fill="#fff" stroke="#fff"/>
<g clip-path="url(#a)">
<defs>
<path id="as" d="m53.516 70.516v-9.625q-5.6094 2.6875-10.594 4-4.9844 1.3281-9.625 1.3281-8.0469 0-12.422-3.125t-4.375-8.8906q0-4.8438 2.9062-7.3125 2.9062-2.4531 11.016-3.9688l5.9531-1.2188q11.031-2.1094 16.281-7.4062t5.25-14.172q0-10.609-7.1094-16.078-7.0938-5.4688-20.812-5.4688-5.1719 0-11.016 1.1719-5.8281 1.1719-12.078 3.4688v10.156q6-3.3594 11.766-5.0781 5.7656-1.7031 11.328-1.7031 8.4375 0 13.031 3.3125 4.5938 3.3281 4.5938 9.4844 0 5.3594-3.2969 8.3906t-10.812 4.5469l-6.0156 1.1719q-11.031 2.1875-15.969 6.875-4.9219 4.6875-4.9219 13.047 0 9.6719 6.8125 15.234t18.766 5.5625q5.1406 0 10.453-0.9375 5.3281-0.92188 10.891-2.7656z"/>
</defs>
<g transform="translate(104.06 329.34) rotate(89.741) scale(.08 -.08)">
<use xlink:href="#as"/>
</g>
</g>
<path d="m111.88 431.58 0.006195-5.4725q0.002717-2.4-2.3973-2.4027l-7.7425-0.008766q-2.4-0.002717-2.4027 2.3973l-0.006195 5.4725q-0.002717 2.4 2.3973 2.4027l7.7425 0.008765q2.4 0.002717 2.4027-2.3973z" clip-path="url(#a)" fill="#fff" stroke="#fff"/>
<g clip-path="url(#a)">
<g transform="translate(107.82 431.58) rotate(-89.935) scale(.08 -.08)">
<use xlink:href="#r"/>
</g>
</g>
<path d="m127.09 331.25 1.3471 4.6969q0.66165 2.307 2.9686 1.6453l7.4425-2.1345q2.307-0.66165 1.6453-2.9686l-1.3471-4.6969q-0.66165-2.307-2.9686-1.6453l-7.4425 2.1345q-2.307 0.66165-1.6453 2.9686z" clip-path="url(#a)" fill="#fff" stroke="#fff"/>
<g clip-path="url(#a)">
<defs>
<path id="k" d="m-0.29688 72.906h61.672v-8.3125h-25.875v-64.594h-9.9062v64.594h-25.891z"/>
</defs>
<g transform="translate(130.99 330.13) rotate(73.997) scale(.08 -.08)">
<use xlink:href="#k"/>
</g>
</g>
<path d="m233.84 702.01v33.808q0 2.4 2.4 2.4h7.7425q2.4 0 2.4-2.4v-33.808q0-2.4-2.4-2.4h-7.7425q-2.4 0-2.4 2.4z" clip-path="url(#a)" fill="#fff" stroke="#fff"/>
<g clip-path="url(#a)">
<defs>
<path id="d" d="m56.203 29.594v-4.3906h-41.312q0.59375-9.2812 5.5938-14.141t13.938-4.8594q5.1719 0 10.031 1.2656t9.6562 3.8125v-8.5q-4.8438-2.0469-9.9219-3.125t-10.297-1.0781q-13.094 0-20.734 7.6094-7.6406 7.625-7.6406 20.625 0 13.422 7.25 21.297 7.25 7.8906 19.562 7.8906 11.031 0 17.453-7.1094 6.4219-7.0938 6.4219-19.297zm-8.9844 2.6406q-0.09375 7.3594-4.125 11.75-4.0312 4.4062-10.672 4.4062-7.5156 0-12.031-4.25t-5.2031-11.969z"/>
<path id="e" d="m41.109 46.297q-1.5156 0.875-3.2969 1.2812-1.7812 0.42188-3.9219 0.42188-7.625 0-11.703-4.9531t-4.0781-14.234v-28.812h-9.0312v54.688h9.0312v-8.5q2.8438 4.9844 7.375 7.3906 4.5469 2.4219 11.047 2.4219 0.92188 0 2.0469-0.125 1.125-0.10938 2.4844-0.35938z"/>
<path id="j" d="m52 44.188q3.375 6.0625 8.0625 8.9375t11.031 2.875q8.5469 0 13.188-5.9844 4.6406-5.9688 4.6406-17v-33.016h-9.0312v32.719q0 7.8594-2.7969 11.656-2.7812 3.8125-8.4844 3.8125-6.9844 0-11.047-4.6406-4.0469-4.625-4.0469-12.641v-30.906h-9.0312v32.719q0 7.9062-2.7812 11.688t-8.5938 3.7812q-6.8906 0-10.953-4.6562-4.0469-4.6562-4.0469-12.625v-30.906h-9.0312v54.688h9.0312v-8.5q3.0781 5.0312 7.375 7.4219t10.203 2.3906q5.9688 0 10.141-3.0312 4.1719-3.0156 6.1719-8.7812z"/>
<path id="h" d="m9.4219 54.688h8.9844v-54.688h-8.9844zm0 21.297h8.9844v-11.391h-8.9844z"/>
<path id="i" d="m54.891 33.016v-33.016h-8.9844v32.719q0 7.7656-3.0312 11.609-3.0312 3.8594-9.0781 3.8594-7.2812 0-11.484-4.6406-4.2031-4.625-4.2031-12.641v-30.906h-9.0312v54.688h9.0312v-8.5q3.2344 4.9375 7.5938 7.375 4.375 2.4375 10.094 2.4375 9.4219 0 14.25-5.8281 4.8438-5.8281 4.8438-17.156z"/>
<path id="f" d="m34.281 27.484q-10.891 0-15.094-2.4844t-4.2031-8.5q0-4.7812 3.1562-7.5938 3.1562-2.7969 8.5625-2.7969 7.4844 0 12 5.2969t4.5156 14.078v2zm17.922 3.7188v-31.203h-8.9844v8.2969q-3.0781-4.9688-7.6719-7.3438t-11.234-2.375q-8.3906 0-13.359 4.7188-4.9531 4.7188-4.9531 12.625 0 9.2188 6.1719 13.906 6.1875 4.6875 18.438 4.6875h12.609v0.89062q0 6.2031-4.0781 9.5938t-11.453 3.3906q-4.6875 0-9.1406-1.125-4.4375-1.125-8.5312-3.375v8.3125q4.9219 1.9062 9.5625 2.8438 4.6406 0.95312 9.0312 0.95312 11.875 0 17.734-6.1562 5.8594-6.1406 5.8594-18.641z"/>
<path id="l" d="m9.4219 75.984h8.9844v-75.984h-8.9844z"/>
</defs>
<g transform="translate(237.9 702.01) rotate(90) scale(.08 -.08)">
<use xlink:href="#k"/>
<use x="44.083984" xlink:href="#d"/>
<use x="105.607422" xlink:href="#e"/>
<use x="144.970703" xlink:href="#j"/>
<use x="242.382812" xlink:href="#h"/>
<use x="270.166016" xlink:href="#i"/>
<use x="333.544922" xlink:href="#f"/>
<use x="394.824219" xlink:href="#l"/>
</g>
</g>
<path d="m265.54 702.01v33.808q0 2.4 2.4 2.4h7.7425q2.4 0 2.4-2.4v-33.808q0-2.4-2.4-2.4h-7.7425q-2.4 0-2.4 2.4z" clip-path="url(#a)" fill="#fff" stroke="#fff"/>
<g clip-path="url(#a)">
<g transform="translate(269.6 702.01) rotate(90) scale(.08 -.08)">
<use xlink:href="#k"/>
<use x="44.083984" xlink:href="#d"/>
<use x="105.607422" xlink:href="#e"/>
<use x="144.970703" xlink:href="#j"/>
<use x="242.382812" xlink:href="#h"/>
<use x="270.166016" xlink:href="#i"/>
<use x="333.544922" xlink:href="#f"/>
<use x="394.824219" xlink:href="#l"/>
</g>
</g>
<path d="m500.76 428.07 1.6159 5.2285q0.70867 2.293 3.0017 1.5843l7.3973-2.2862q2.293-0.70867 1.5843-3.0017l-1.6159-5.2285q-0.70867-2.293-3.0017-1.5843l-7.3973 2.2862q-2.293 0.70867-1.5843 3.0017z" clip-path="url(#a)" fill="#fff" stroke="#fff"/>
<g clip-path="url(#a)">
<g transform="translate(504.64 426.87) rotate(72.826) scale(.08 -.08)">
<use xlink:href="#r"/>
</g>
</g>
<path d="m411.37 336.52 1.8681-4.4473q0.92943-2.2127-1.2833-3.1422l-7.1383-2.9984q-2.2127-0.92943-3.1422 1.2833l-1.8681 4.4473q-0.92943 2.2127 1.2833 3.1422l7.1383 2.9984q2.2127 0.92943 3.1422-1.2833z" clip-path="url(#a)" fill="#fff" stroke="#fff"/>
<g clip-path="url(#a)">
<defs>
<path id="ac" d="m19.672 64.797v-27.391h12.406q6.8906 0 10.641 3.5625 3.7656 3.5625 3.7656 10.156 0 6.5469-3.7656 10.109-3.75 3.5625-10.641 3.5625zm-9.8594 8.1094h22.266q12.266 0 18.531-5.5469 6.2812-5.5469 6.2812-16.234 0-10.797-6.2812-16.312-6.2656-5.5156-18.531-5.5156h-12.406v-29.297h-9.8594z"/>
</defs>
<g transform="translate(407.62 334.95) rotate(-67.216) scale(.08 -.08)">
<use xlink:href="#ac"/>
</g>
</g>
<path d="m409.73 337.19 2.4505-5.6516q0.95473-2.2019-1.2472-3.1567l-7.1035-3.08q-2.2019-0.95473-3.1567 1.2472l-2.4505 5.6516q-0.95473 2.2019 1.2472 3.1567l7.1035 3.08q2.2019 0.95473 3.1567-1.2472z" clip-path="url(#a)" fill="#fff" stroke="#fff"/>
<g clip-path="url(#a)">
<defs>
<path id="aq" d="m19.672 64.797v-56.688h11.922q15.094 0 22.094 6.8281 7 6.8438 7 21.594 0 14.641-7 21.453t-22.094 6.8125zm-9.8594 8.1094h20.266q21.188 0 31.094-8.8125 9.9219-8.8125 9.9219-27.562 0-18.859-9.9688-27.703-9.9531-8.8281-31.047-8.8281h-20.266z"/>
</defs>
<g transform="translate(406 335.58) rotate(-66.559) scale(.08 -.08)">
<use xlink:href="#aq"/>
</g>
</g>
<path d="m463.91 330.94 1.1274 4.7544q0.55373 2.3352 2.889 1.7815l7.5336-1.7864q2.3352-0.55373 1.7815-2.889l-1.1274-4.7544q-0.55373-2.3352-2.889-1.7815l-7.5336 1.7864q-2.3352 0.55373-1.7815 2.889z" clip-path="url(#a)" fill="#fff" stroke="#fff"/>
<g clip-path="url(#a)">
<g transform="translate(467.87 330) rotate(76.66) scale(.08 -.08)">
<use xlink:href="#k"/>
</g>
</g>
<path d="m629.7 433.22 1.5343-5.253q0.67288-2.3037-1.6309-2.9766l-7.432-2.1707q-2.3037-0.67288-2.9766 1.6309l-1.5343 5.253q-0.67288 2.3037 1.6309 2.9766l7.432 2.1707q2.3037 0.67288 2.9766-1.6309z" clip-path="url(#a)" fill="#fff" stroke="#fff"/>
<g clip-path="url(#a)">
<g transform="translate(625.79 432.08) rotate(-73.718) scale(.08 -.08)">
<use xlink:href="#r"/>
</g>
</g>
<path d="m656.58 432.85 0.95083-6.0862q0.37046-2.3712-2.0008-2.7417l-7.6497-1.1951q-2.3712-0.37046-2.7417 2.0008l-0.95083 6.0862q-0.37046 2.3712 2.0008 2.7417l7.6497 1.1951q2.3712 0.37046 2.7417-2.0008z" clip-path="url(#a)" fill="#fff" stroke="#fff"/>
<g clip-path="url(#a)">
<g transform="translate(652.56 432.22) rotate(-81.121) scale(.08 -.08)">
<use xlink:href="#aq"/>
</g>
</g>
<path d="m684.83 431.33 0.065525-4.8233q0.032601-2.3998-2.3672-2.4324l-7.7418-0.10517q-2.3998-0.032601-2.4324 2.3672l-0.065525 4.8233q-0.032601 2.3998 2.3672 2.4324l7.7418 0.10517q2.3998 0.032602 2.4324-2.3672z" clip-path="url(#a)" fill="#fff" stroke="#fff"/>
<g clip-path="url(#a)">
<g transform="translate(680.77 431.28) rotate(-89.222) scale(.08 -.08)">
<use xlink:href="#ac"/>
</g>
</g>
<path d="m764.58 334.11 3.7082 4.0246q1.6263 1.765 3.3913 0.13877l5.694-5.2464q1.765-1.6263 0.13877-3.3913l-3.7082-4.0246q-1.6263-1.765-3.3913-0.13877l-5.694 5.2464q-1.765 1.6263-0.13877 3.3913z" clip-path="url(#a)" fill="#fff" stroke="#fff"/>
<g clip-path="url(#a)">
<g transform="translate(767.57 331.36) rotate(47.343) scale(.08 -.08)">
<use xlink:href="#r"/>
</g>
</g>
<path d="m1058 702.01v33.808q0 2.4 2.4 2.4h7.7425q2.4 0 2.4-2.4v-33.808q0-2.4-2.4-2.4h-7.7425q-2.4 0-2.4 2.4z" clip-path="url(#a)" fill="#fff" stroke="#fff"/>
<g clip-path="url(#a)">
<g transform="translate(1062 702.01) rotate(90) scale(.08 -.08)">
<use xlink:href="#k"/>
<use x="44.083984" xlink:href="#d"/>
<use x="105.607422" xlink:href="#e"/>
<use x="144.970703" xlink:href="#j"/>
<use x="242.382812" xlink:href="#h"/>
<use x="270.166016" xlink:href="#i"/>
<use x="333.544922" xlink:href="#f"/>
<use x="394.824219" xlink:href="#l"/>
</g>
</g>
<path d="m1083.7 428.1 1.1001 4.4678q0.57381 2.3304 2.9042 1.7566l7.518-1.8511q2.3304-0.57381 1.7566-2.9042l-1.1001-4.4678q-0.57381-2.3304-2.9042-1.7566l-7.518 1.8511q-2.3304 0.57381-1.7566 2.9042z" clip-path="url(#a)" fill="#fff" stroke="#fff"/>
<g clip-path="url(#a)">
<g transform="translate(1087.6 427.13) rotate(76.167) scale(.08 -.08)">
<use xlink:href="#ai"/>
</g>
</g>
<path d="m1121.9 429.17 1.9546 4.41q0.97248 2.1941 3.1666 1.2217l7.0784-3.1373q2.1941-0.97248 1.2217-3.1666l-1.9546-4.41q-0.97248-2.1941-3.1666-1.2217l-7.0784 3.1373q-2.1941 0.97248-1.2217 3.1666z" clip-path="url(#a)" fill="#fff" stroke="#fff"/>
<g clip-path="url(#a)">
<g transform="translate(1125.6 427.53) rotate(66.096) scale(.08 -.08)">
<use xlink:href="#ac"/>
</g>
</g>
<path d="m1139.5 334.56 3.9811 3.7549q1.7459 1.6467 3.3927-0.099232l5.3124-5.6325q1.6467-1.7459-0.099232-3.3927l-3.9811-3.7549q-1.7459-1.6467-3.3927 0.099232l-5.3124 5.6325q-1.6467 1.7459 0.099231 3.3927z" clip-path="url(#a)" fill="#fff" stroke="#fff"/>
<g clip-path="url(#a)">
<g transform="translate(1142.3 331.6) rotate(43.325) scale(.08 -.08)">
<use xlink:href="#r"/>
</g>
</g>
<path d="m806.91 435.42 4.2337-3.4675q1.8567-1.5207 0.33602-3.3774l-4.9059-5.9899q-1.5207-1.8567-3.3774-0.33602l-4.2337 3.4675q-1.8567 1.5207-0.33602 3.3774l4.9059 5.9899q1.5207 1.8567 3.3774 0.33602z" clip-path="url(#a)" fill="#fff" stroke="#fff"/>
<g clip-path="url(#a)">
<g transform="translate(804.34 432.28) rotate(-39.318) scale(.08 -.08)">
<use xlink:href="#r"/>
</g>
</g>
<path d="m1131.9 702.01v33.808q0 2.4 2.4 2.4h7.7425q2.4 0 2.4-2.4v-33.808q0-2.4-2.4-2.4h-7.7425q-2.4 0-2.4 2.4z" clip-path="url(#a)" fill="#fff" stroke="#fff"/>
<g clip-path="url(#a)">
<g transform="translate(1136 702.01) rotate(90) scale(.08 -.08)">
<use xlink:href="#k"/>
<use x="44.083984" xlink:href="#d"/>
<use x="105.607422" xlink:href="#e"/>
<use x="144.970703" xlink:href="#j"/>
<use x="242.382812" xlink:href="#h"/>
<use x="270.166016" xlink:href="#i"/>
<use x="333.544922" xlink:href="#f"/>
<use x="394.824219" xlink:href="#l"/>
</g>
</g>
<path d="m1208.5 702.01v33.808q0 2.4 2.4 2.4h7.7425q2.4 0 2.4-2.4v-33.808q0-2.4-2.4-2.4h-7.7425q-2.4 0-2.4 2.4z" clip-path="url(#a)" fill="#fff" stroke="#fff"/>
<g clip-path="url(#a)">
<g transform="translate(1212.6 702.01) rotate(90) scale(.08 -.08)">
<use xlink:href="#k"/>
<use x="44.083984" xlink:href="#d"/>
<use x="105.607422" xlink:href="#e"/>
<use x="144.970703" xlink:href="#j"/>
<use x="242.382812" xlink:href="#h"/>
<use x="270.166016" xlink:href="#i"/>
<use x="333.544922" xlink:href="#f"/>
<use x="394.824219" xlink:href="#l"/>
</g>
</g>
<path d="m1264.9 525.02 1.254 5.4155q0.5414 2.3381 2.8795 1.7967l7.5429-1.7466q2.3381-0.5414 1.7967-2.8795l-1.254-5.4155q-0.5414-2.3381-2.8795-1.7967l-7.5429 1.7466q-2.3381 0.5414-1.7967 2.8795z" clip-path="url(#a)" fill="#fff" stroke="#fff"/>
<g clip-path="url(#a)">
<defs>
<path id="ab" d="m44.391 34.188q3.1719-1.0781 6.1719-4.5938t6.0312-9.6719l10.016-19.922h-10.609l-9.3125 18.703q-3.625 7.3281-7.0156 9.7188t-9.25 2.3906h-10.75v-30.812h-9.8594v72.906h22.266q12.5 0 18.656-5.2344 6.1562-5.2188 6.1562-15.766 0-6.8906-3.2031-11.438-3.2031-4.5312-9.2969-6.2812zm-24.719 30.609v-25.875h12.406q7.125 0 10.766 3.2969t3.6406 9.6875-3.6406 9.6406-10.766 3.25z"/>
</defs>
<g transform="translate(1268.8 524.1) rotate(76.963) scale(.08 -.08)">
<use xlink:href="#ab"/>
</g>
</g>
<path d="m1306 527.82 2.5179 3.8512q1.3133 2.0088 3.3221 0.69545l6.4804-4.2368q2.0088-1.3133 0.69545-3.3221l-2.5179-3.8512q-1.3133-2.0088-3.3221-0.69545l-6.4804 4.2368q-2.0088 1.3133-0.69545 3.3221z" clip-path="url(#a)" fill="#fff" stroke="#fff"/>
<g clip-path="url(#a)">
<g transform="translate(1309.4 525.59) rotate(56.824) scale(.08 -.08)">
<use xlink:href="#ai"/>
</g>
</g>
<path d="m1348.8 529.3 3.554 3.2616q1.7682 1.6228 3.391-0.14549l5.2351-5.7044q1.6228-1.7682-0.14549-3.391l-3.554-3.2616q-1.7682-1.6228-3.391 0.14549l-5.2351 5.7044q-1.6228 1.7682 0.14549 3.391z" clip-path="url(#a)" fill="#fff" stroke="#fff"/>
<g clip-path="url(#a)">
<g transform="translate(1351.5 526.31) rotate(42.543) scale(.08 -.08)">
<use xlink:href="#ac"/>
</g>
</g>
<path d="m907.49 533.09 5.2635-1.4978q2.3084-0.65688 1.6515-2.9652l-2.1191-7.4469q-0.65688-2.3084-2.9652-1.6515l-5.2635 1.4978q-2.3084 0.65688-1.6515 2.9652l2.1191 7.4469q0.65688 2.3084 2.9652 1.6515z" clip-path="url(#a)" fill="#fff" stroke="#fff"/>
<g clip-path="url(#a)">
<g transform="translate(906.37 529.18) rotate(-15.884) scale(.08 -.08)">
<use xlink:href="#r"/>
</g>
</g>
<path d="m1392.5 529.97 4.9097 3.1899q2.0125 1.3076 3.3201-0.70496l4.2183-6.4925q1.3076-2.0125-0.70496-3.3201l-4.9097-3.1899q-2.0125-1.3076-3.3201 0.70496l-4.2183 6.4925q-1.3076 2.0125 0.70496 3.3201z" clip-path="url(#a)" fill="#fff" stroke="#fff"/>
<g clip-path="url(#a)">
<g transform="translate(1394.7 526.57) rotate(33.012) scale(.08 -.08)">
<use xlink:href="#ap"/>
</g>
</g>
<path d="m1287.8 702.01v33.808q0 2.4 2.4 2.4h7.7425q2.4 0 2.4-2.4v-33.808q0-2.4-2.4-2.4h-7.7425q-2.4 0-2.4 2.4z" clip-path="url(#a)" fill="#fff" stroke="#fff"/>
<g clip-path="url(#a)">
<g transform="translate(1291.8 702.01) rotate(90) scale(.08 -.08)">
<use xlink:href="#k"/>
<use x="44.083984" xlink:href="#d"/>
<use x="105.607422" xlink:href="#e"/>
<use x="144.970703" xlink:href="#j"/>
<use x="242.382812" xlink:href="#h"/>
<use x="270.166016" xlink:href="#i"/>
<use x="333.544922" xlink:href="#f"/>
<use x="394.824219" xlink:href="#l"/>
</g>
</g>
<path d="m1369.7 702.01v33.808q0 2.4 2.4 2.4h7.7425q2.4 0 2.4-2.4v-33.808q0-2.4-2.4-2.4h-7.7425q-2.4 0-2.4 2.4z" clip-path="url(#a)" fill="#fff" stroke="#fff"/>
<g clip-path="url(#a)">
<g transform="translate(1373.7 702.01) rotate(90) scale(.08 -.08)">
<use xlink:href="#k"/>
<use x="44.083984" xlink:href="#d"/>
<use x="105.607422" xlink:href="#e"/>
<use x="144.970703" xlink:href="#j"/>
<use x="242.382812" xlink:href="#h"/>
<use x="270.166016" xlink:href="#i"/>
<use x="333.544922" xlink:href="#f"/>
<use x="394.824219" xlink:href="#l"/>
</g>
</g>
<path d="m1454.2 702.01v33.808q0 2.4 2.4 2.4h7.7425q2.4 0 2.4-2.4v-33.808q0-2.4-2.4-2.4h-7.7425q-2.4 0-2.4 2.4z" clip-path="url(#a)" fill="#fff" stroke="#fff"/>
<g clip-path="url(#a)">
<g transform="translate(1458.3 702.01) rotate(90) scale(.08 -.08)">
<use xlink:href="#k"/>
<use x="44.083984" xlink:href="#d"/>
<use x="105.607422" xlink:href="#e"/>
<use x="144.970703" xlink:href="#j"/>
<use x="242.382812" xlink:href="#h"/>
<use x="270.166016" xlink:href="#i"/>
<use x="333.544922" xlink:href="#f"/>
<use x="394.824219" xlink:href="#l"/>
</g>
</g>
<path d="m561.38 702.01v33.808q0 2.4 2.4 2.4h7.7425q2.4 0 2.4-2.4v-33.808q0-2.4-2.4-2.4h-7.7425q-2.4 0-2.4 2.4z" clip-path="url(#a)" fill="#fff" stroke="#fff"/>
<g clip-path="url(#a)">
<g transform="translate(565.44 702.01) rotate(90) scale(.08 -.08)">
<use xlink:href="#k"/>
<use x="44.083984" xlink:href="#d"/>
<use x="105.607422" xlink:href="#e"/>
<use x="144.970703" xlink:href="#j"/>
<use x="242.382812" xlink:href="#h"/>
<use x="270.166016" xlink:href="#i"/>
<use x="333.544922" xlink:href="#f"/>
<use x="394.824219" xlink:href="#l"/>
</g>
</g>
<path d="m614.21 702.01v33.808q0 2.4 2.4 2.4h7.7425q2.4 0 2.4-2.4v-33.808q0-2.4-2.4-2.4h-7.7425q-2.4 0-2.4 2.4z" clip-path="url(#a)" fill="#fff" stroke="#fff"/>
<g clip-path="url(#a)">
<g transform="translate(618.27 702.01) rotate(90) scale(.08 -.08)">
<use xlink:href="#k"/>
<use x="44.083984" xlink:href="#d"/>
<use x="105.607422" xlink:href="#e"/>
<use x="144.970703" xlink:href="#j"/>
<use x="242.382812" xlink:href="#h"/>
<use x="270.166016" xlink:href="#i"/>
<use x="333.544922" xlink:href="#f"/>
<use x="394.824219" xlink:href="#l"/>
</g>
</g>
<path d="m669.68 702.01v33.808q0 2.4 2.4 2.4h7.7425q2.4 0 2.4-2.4v-33.808q0-2.4-2.4-2.4h-7.7425q-2.4 0-2.4 2.4z" clip-path="url(#a)" fill="#fff" stroke="#fff"/>
<g clip-path="url(#a)">
<g transform="translate(673.74 702.01) rotate(90) scale(.08 -.08)">
<use xlink:href="#k"/>
<use x="44.083984" xlink:href="#d"/>
<use x="105.607422" xlink:href="#e"/>
<use x="144.970703" xlink:href="#j"/>
<use x="242.382812" xlink:href="#h"/>
<use x="270.166016" xlink:href="#i"/>
<use x="333.544922" xlink:href="#f"/>
<use x="394.824219" xlink:href="#l"/>
</g>
</g>
<path d="m801.19 532.07 3.0419-4.6526q1.3133-2.0088-0.69545-3.3221l-6.4804-4.2368q-2.0088-1.3133-3.3221 0.69545l-3.0419 4.6526q-1.3133 2.0088 0.69545 3.3221l6.4804 4.2368q2.0088 1.3133 3.3221-0.69545z" clip-path="url(#a)" fill="#fff" stroke="#fff"/>
<g clip-path="url(#a)">
<g transform="translate(797.79 529.85) rotate(-56.824) scale(.08 -.08)">
<use xlink:href="#ab"/>
</g>
</g>
<path d="m832.96 530.73 1.6294-4.7852q0.77362-2.2719-1.4983-3.0455l-7.3292-2.4957q-2.2719-0.77362-3.0455 1.4983l-1.6294 4.7852q-0.77362 2.2719 1.4983 3.0455l7.3292 2.4957q2.2719 0.77362 3.0455-1.4983z" clip-path="url(#a)" fill="#fff" stroke="#fff"/>
<g clip-path="url(#a)">
<defs>
<path id="u" d="m9.8125 72.906h46.094v-8.3125h-36.234v-21.578h34.719v-8.2969h-34.719v-26.422h37.109v-8.2969h-46.969z"/>
</defs>
<g transform="translate(829.11 529.42) rotate(-71.195) scale(.08 -.08)">
<use xlink:href="#u"/>
</g>
</g>
<path d="m865.77 529.19 0.076082-5.5857q0.032687-2.3998-2.3671-2.4325l-7.7418-0.10545q-2.3998-0.032687-2.4325 2.3671l-0.076081 5.5857q-0.032687 2.3998 2.3671 2.4325l7.7418 0.10545q2.3998 0.032687 2.4325-2.3671z" clip-path="url(#a)" fill="#fff" stroke="#fff"/>
<g clip-path="url(#a)">
<defs>
<path id="v" d="m64.406 67.281v-10.391q-4.9844 4.6406-10.625 6.9219-5.6406 2.2969-11.984 2.2969-12.5 0-19.141-7.6406t-6.6406-22.094q0-14.406 6.6406-22.047t19.141-7.6406q6.3438 0 11.984 2.2969t10.625 6.9375v-10.312q-5.1719-3.5156-10.969-5.2812-5.7812-1.75-12.219-1.75-16.562 0-26.094 10.125-9.5156 10.141-9.5156 27.672 0 17.578 9.5156 27.703 9.5312 10.141 26.094 10.141 6.5312 0 12.312-1.7344 5.7969-1.7344 10.875-5.2031z"/>
</defs>
<g transform="translate(861.7 529.13) rotate(-89.22) scale(.08 -.08)">
<use xlink:href="#v"/>
</g>
</g>
<path d="m885.81 525.86 1.5707 4.8048q0.74572 2.2812 3.0269 1.5355l7.3593-2.4057q2.2812-0.74572 1.5355-3.0269l-1.5707-4.8048q-0.74572-2.2812-3.0269-1.5355l-7.3593 2.4057q-2.2812 0.74572-1.5355 3.0269z" clip-path="url(#a)" fill="#fff" stroke="#fff"/>
<g clip-path="url(#a)">
<g transform="translate(889.67 524.59) rotate(71.898) scale(.08 -.08)">
<use xlink:href="#u"/>
</g>
</g>
<path d="m920.29 527.75 2.8454 4.1781q1.3509 1.9837 3.3346 0.63272l6.3994-4.3582q1.9837-1.351 0.63272-3.3346l-2.8454-4.1781q-1.3509-1.9837-3.3346-0.63272l-6.3994 4.3582q-1.9837 1.3509-0.63272 3.3346z" clip-path="url(#a)" fill="#fff" stroke="#fff"/>
<g clip-path="url(#a)">
<g transform="translate(923.64 525.46) rotate(55.744) scale(.08 -.08)">
<use xlink:href="#u"/>
</g>
</g>
<path d="m727.79 702.01v33.808q0 2.4 2.4 2.4h7.7425q2.4 0 2.4-2.4v-33.808q0-2.4-2.4-2.4h-7.7425q-2.4 0-2.4 2.4z" clip-path="url(#a)" fill="#fff" stroke="#fff"/>
<g clip-path="url(#a)">
<g transform="translate(731.86 702.01) rotate(90) scale(.08 -.08)">
<use xlink:href="#k"/>
<use x="44.083984" xlink:href="#d"/>
<use x="105.607422" xlink:href="#e"/>
<use x="144.970703" xlink:href="#j"/>
<use x="242.382812" xlink:href="#h"/>
<use x="270.166016" xlink:href="#i"/>
<use x="333.544922" xlink:href="#f"/>
<use x="394.824219" xlink:href="#l"/>
</g>
</g>
<path d="m788.55 702.01v33.808q0 2.4 2.4 2.4h7.7425q2.4 0 2.4-2.4v-33.808q0-2.4-2.4-2.4h-7.7425q-2.4 0-2.4 2.4z" clip-path="url(#a)" fill="#fff" stroke="#fff"/>
<g clip-path="url(#a)">
<g transform="translate(792.61 702.01) rotate(90) scale(.08 -.08)">
<use xlink:href="#k"/>
<use x="44.083984" xlink:href="#d"/>
<use x="105.607422" xlink:href="#e"/>
<use x="144.970703" xlink:href="#j"/>
<use x="242.382812" xlink:href="#h"/>
<use x="270.166016" xlink:href="#i"/>
<use x="333.544922" xlink:href="#f"/>
<use x="394.824219" xlink:href="#l"/>
</g>
</g>
<path d="m851.94 702.01v33.808q0 2.4 2.4 2.4h7.7425q2.4 0 2.4-2.4v-33.808q0-2.4-2.4-2.4h-7.7425q-2.4 0-2.4 2.4z" clip-path="url(#a)" fill="#fff" stroke="#fff"/>
<g clip-path="url(#a)">
<g transform="translate(856.01 702.01) rotate(90) scale(.08 -.08)">
<use xlink:href="#k"/>
<use x="44.083984" xlink:href="#d"/>
<use x="105.607422" xlink:href="#e"/>
<use x="144.970703" xlink:href="#j"/>
<use x="242.382812" xlink:href="#h"/>
<use x="270.166016" xlink:href="#i"/>
<use x="333.544922" xlink:href="#f"/>
<use x="394.824219" xlink:href="#l"/>
</g>
</g>
<path d="m917.98 702.01v33.808q0 2.4 2.4 2.4h7.7425q2.4 0 2.4-2.4v-33.808q0-2.4-2.4-2.4h-7.7425q-2.4 0-2.4 2.4z" clip-path="url(#a)" fill="#fff" stroke="#fff"/>
<g clip-path="url(#a)">
<g transform="translate(922.04 702.01) rotate(90) scale(.08 -.08)">
<use xlink:href="#k"/>
<use x="44.083984" xlink:href="#d"/>
<use x="105.607422" xlink:href="#e"/>
<use x="144.970703" xlink:href="#j"/>
<use x="242.382812" xlink:href="#h"/>
<use x="270.166016" xlink:href="#i"/>
<use x="333.544922" xlink:href="#f"/>
<use x="394.824219" xlink:href="#l"/>
</g>
</g>
<path d="m986.66 702.01v33.808q0 2.4 2.4 2.4h7.7425q2.4 0 2.4-2.4v-33.808q0-2.4-2.4-2.4h-7.7425q-2.4 0-2.4 2.4z" clip-path="url(#a)" fill="#fff" stroke="#fff"/>
<g clip-path="url(#a)">
<g transform="translate(990.72 702.01) rotate(90) scale(.08 -.08)">
<use xlink:href="#k"/>
<use x="44.083984" xlink:href="#d"/>
<use x="105.607422" xlink:href="#e"/>
<use x="144.970703" xlink:href="#j"/>
<use x="242.382812" xlink:href="#h"/>
<use x="270.166016" xlink:href="#i"/>
<use x="333.544922" xlink:href="#f"/>
<use x="394.824219" xlink:href="#l"/>
</g>
</g>
<path d="m341.12 530.57 1.4812-4.8331q0.70324-2.2947-1.5914-2.9979l-7.4027-2.2687q-2.2947-0.70324-2.9979 1.5914l-1.4812 4.8331q-0.70324 2.2947 1.5914 2.9979l7.4027 2.2687q2.2947 0.70324 2.9979-1.5914z" clip-path="url(#a)" fill="#fff" stroke="#fff"/>
<g clip-path="url(#a)">
<g transform="translate(337.23 529.37) rotate(-72.961) scale(.08 -.08)">
<use xlink:href="#u"/>
</g>
</g>
<path d="m388.48 525.48 1.6369 5.3411q0.70324 2.2947 2.9979 1.5914l7.4027-2.2687q2.2947-0.70324 1.5914-2.9979l-1.6369-5.3411q-0.70324-2.2947-2.9979-1.5914l-7.4027 2.2687q-2.2947 0.70324-1.5914 2.9979z" clip-path="url(#a)" fill="#fff" stroke="#fff"/>
<g clip-path="url(#a)">
<g transform="translate(392.37 524.29) rotate(72.961) scale(.08 -.08)">
<use xlink:href="#v"/>
</g>
</g>
<path d="m359.01 529.46 0.51372-5.0288q0.2439-2.3876-2.1437-2.6315l-7.7024-0.78684q-2.3876-0.2439-2.6315 2.1437l-0.51372 5.0288q-0.2439 2.3876 2.1437 2.6315l7.7024 0.78684q2.3876 0.2439 2.6315-2.1437z" clip-path="url(#a)" fill="#fff" stroke="#fff"/>
<g clip-path="url(#a)">
<g transform="translate(354.97 529.05) rotate(-84.167) scale(.08 -.08)">
<use xlink:href="#u"/>
</g>
</g>
<path d="m366.32 524.17 0.56771 5.5573q0.2439 2.3876 2.6315 2.1437l7.7024-0.78684q2.3876-0.2439 2.1437-2.6315l-0.56771-5.5573q-0.2439-2.3876-2.6315-2.1437l-7.7024 0.78684q-2.3876 0.2439-2.1437 2.6315z" clip-path="url(#a)" fill="#fff" stroke="#fff"/>
<g clip-path="url(#a)">
<g transform="translate(370.36 523.76) rotate(84.167) scale(.08 -.08)">
<use xlink:href="#v"/>
</g>
</g>
<path d="m487.69 529.83 0.67636-5.5174q0.29202-2.3822-2.0901-2.6742l-7.685-0.94207q-2.3822-0.29202-2.6742 2.0901l-0.67636 5.5174q-0.29202 2.3822 2.0901 2.6742l7.685 0.94207q2.3822 0.29202 2.6742-2.0901z" clip-path="url(#a)" fill="#fff" stroke="#fff"/>
<g clip-path="url(#a)">
<g transform="translate(483.66 529.34) rotate(-83.011) scale(.08 -.08)">
<use xlink:href="#ab"/>
</g>
</g>
<path d="m499.01 524.3 0.67971 5.5447q0.29202 2.3822 2.6742 2.0901l7.685-0.94207q2.3822-0.29202 2.0901-2.6742l-0.67971-5.5447q-0.29202-2.3822-2.6742-2.0901l-7.685 0.94207q-2.3822 0.29202-2.0901 2.6742z" clip-path="url(#a)" fill="#fff" stroke="#fff"/>
<g clip-path="url(#a)">
<g transform="translate(503.05 523.81) rotate(83.011) scale(.08 -.08)">
<use xlink:href="#v"/>
</g>
</g>
<path d="m463.65 702.01v33.808q0 2.4 2.4 2.4h7.7425q2.4 0 2.4-2.4v-33.808q0-2.4-2.4-2.4h-7.7425q-2.4 0-2.4 2.4z" clip-path="url(#a)" fill="#fff" stroke="#fff"/>
<g clip-path="url(#a)">
<g transform="translate(467.71 702.01) rotate(90) scale(.08 -.08)">
<use xlink:href="#k"/>
<use x="44.083984" xlink:href="#d"/>
<use x="105.607422" xlink:href="#e"/>
<use x="144.970703" xlink:href="#j"/>
<use x="242.382812" xlink:href="#h"/>
<use x="270.166016" xlink:href="#i"/>
<use x="333.544922" xlink:href="#f"/>
<use x="394.824219" xlink:href="#l"/>
</g>
</g>
<path d="m511.19 702.01v33.808q0 2.4 2.4 2.4h7.7425q2.4 0 2.4-2.4v-33.808q0-2.4-2.4-2.4h-7.7425q-2.4 0-2.4 2.4z" clip-path="url(#a)" fill="#fff" stroke="#fff"/>
<g clip-path="url(#a)">
<g transform="translate(515.26 702.01) rotate(90) scale(.08 -.08)">
<use xlink:href="#k"/>
<use x="44.083984" xlink:href="#d"/>
<use x="105.607422" xlink:href="#e"/>
<use x="144.970703" xlink:href="#j"/>
<use x="242.382812" xlink:href="#h"/>
<use x="270.166016" xlink:href="#i"/>
<use x="333.544922" xlink:href="#f"/>
<use x="394.824219" xlink:href="#l"/>
</g>
</g>
<path d="m336.86 702.01v33.808q0 2.4 2.4 2.4h7.7425q2.4 0 2.4-2.4v-33.808q0-2.4-2.4-2.4h-7.7425q-2.4 0-2.4 2.4z" clip-path="url(#a)" fill="#fff" stroke="#fff"/>
<g clip-path="url(#a)">
<g transform="translate(340.92 702.01) rotate(90) scale(.08 -.08)">
<use xlink:href="#k"/>
<use x="44.083984" xlink:href="#d"/>
<use x="105.607422" xlink:href="#e"/>
<use x="144.970703" xlink:href="#j"/>
<use x="242.382812" xlink:href="#h"/>
<use x="270.166016" xlink:href="#i"/>
<use x="333.544922" xlink:href="#f"/>
<use x="394.824219" xlink:href="#l"/>
</g>
</g>
<path d="m376.48 702.01v33.808q0 2.4 2.4 2.4h7.7425q2.4 0 2.4-2.4v-33.808q0-2.4-2.4-2.4h-7.7425q-2.4 0-2.4 2.4z" clip-path="url(#a)" fill="#fff" stroke="#fff"/>
<g clip-path="url(#a)">
<g transform="translate(380.54 702.01) rotate(90) scale(.08 -.08)">
<use xlink:href="#k"/>
<use x="44.083984" xlink:href="#d"/>
<use x="105.607422" xlink:href="#e"/>
<use x="144.970703" xlink:href="#j"/>
<use x="242.382812" xlink:href="#h"/>
<use x="270.166016" xlink:href="#i"/>
<use x="333.544922" xlink:href="#f"/>
<use x="394.824219" xlink:href="#l"/>
</g>
</g>
<path d="m299.87 702.01v33.808q0 2.4 2.4 2.4h7.7425q2.4 0 2.4-2.4v-33.808q0-2.4-2.4-2.4h-7.7425q-2.4 0-2.4 2.4z" clip-path="url(#a)" fill="#fff" stroke="#fff"/>
<g clip-path="url(#a)">
<g transform="translate(303.94 702.01) rotate(90) scale(.08 -.08)">
<use xlink:href="#k"/>
<use x="44.083984" xlink:href="#d"/>
<use x="105.607422" xlink:href="#e"/>
<use x="144.970703" xlink:href="#j"/>
<use x="242.382812" xlink:href="#h"/>
<use x="270.166016" xlink:href="#i"/>
<use x="333.544922" xlink:href="#f"/>
<use x="394.824219" xlink:href="#l"/>
</g>
</g>
<path d="m418.74 702.01v33.808q0 2.4 2.4 2.4h7.7425q2.4 0 2.4-2.4v-33.808q0-2.4-2.4-2.4h-7.7425q-2.4 0-2.4 2.4z" clip-path="url(#a)" fill="#fff" stroke="#fff"/>
<g clip-path="url(#a)">
<g transform="translate(422.8 702.01) rotate(90) scale(.08 -.08)">
<use xlink:href="#k"/>
<use x="44.083984" xlink:href="#d"/>
<use x="105.607422" xlink:href="#e"/>
<use x="144.970703" xlink:href="#j"/>
<use x="242.382812" xlink:href="#h"/>
<use x="270.166016" xlink:href="#i"/>
<use x="333.544922" xlink:href="#f"/>
<use x="394.824219" xlink:href="#l"/>
</g>
</g>
<path d="m67.426 702.01v33.808q0 2.4 2.4 2.4h7.7425q2.4 0 2.4-2.4v-33.808q0-2.4-2.4-2.4h-7.7425q-2.4 0-2.4 2.4z" clip-path="url(#a)" fill="#fff" stroke="#fff"/>
<g clip-path="url(#a)">
<g transform="translate(71.489 702.01) rotate(90) scale(.08 -.08)">
<use xlink:href="#k"/>
<use x="44.083984" xlink:href="#d"/>
<use x="105.607422" xlink:href="#e"/>
<use x="144.970703" xlink:href="#j"/>
<use x="242.382812" xlink:href="#h"/>
<use x="270.166016" xlink:href="#i"/>
<use x="333.544922" xlink:href="#f"/>
<use x="394.824219" xlink:href="#l"/>
</g>
</g>
<path d="m75.35 702.01v33.808q0 2.4 2.4 2.4h7.7425q2.4 0 2.4-2.4v-33.808q0-2.4-2.4-2.4h-7.7425q-2.4 0-2.4 2.4z" clip-path="url(#a)" fill="#fff" stroke="#fff"/>
<g clip-path="url(#a)">
<g transform="translate(79.414 702.01) rotate(90) scale(.08 -.08)">
<use xlink:href="#k"/>
<use x="44.083984" xlink:href="#d"/>
<use x="105.607422" xlink:href="#e"/>
<use x="144.970703" xlink:href="#j"/>
<use x="242.382812" xlink:href="#h"/>
<use x="270.166016" xlink:href="#i"/>
<use x="333.544922" xlink:href="#f"/>
<use x="394.824219" xlink:href="#l"/>
</g>
</g>
<path d="m105.52 529.3 0.37763-5.0409q0.17929-2.3933-2.214-2.5726l-7.7209-0.5784q-2.3933-0.17929-2.5726 2.214l-0.37763 5.0409q-0.17929 2.3933 2.214 2.5726l7.7209 0.5784q2.3933 0.17929 2.5726-2.214z" clip-path="url(#a)" fill="#fff" stroke="#fff"/>
<g clip-path="url(#a)">
<g transform="translate(101.46 529) rotate(-85.716) scale(.08 -.08)">
<use xlink:href="#u"/>
</g>
</g>
<path d="m107.52 523.99 0.41732 5.5706q0.17929 2.3933 2.5726 2.214l7.7209-0.5784q2.3933-0.17929 2.214-2.5726l-0.41732-5.5706q-0.17929-2.3933-2.5726-2.214l-7.7209 0.5784q-2.3933 0.17929-2.214 2.5726z" clip-path="url(#a)" fill="#fff" stroke="#fff"/>
<g clip-path="url(#a)">
<g transform="translate(111.57 523.69) rotate(85.716) scale(.08 -.08)">
<use xlink:href="#v"/>
</g>
</g>
<path d="m99.123 702.01v33.808q0 2.4 2.4 2.4h7.7425q2.4 0 2.4-2.4v-33.808q0-2.4-2.4-2.4h-7.7425q-2.4 0-2.4 2.4z" clip-path="url(#a)" fill="#fff" stroke="#fff"/>
<g clip-path="url(#a)">
<g transform="translate(103.19 702.01) rotate(90) scale(.08 -.08)">
<use xlink:href="#k"/>
<use x="44.083984" xlink:href="#d"/>
<use x="105.607422" xlink:href="#e"/>
<use x="144.970703" xlink:href="#j"/>
<use x="242.382812" xlink:href="#h"/>
<use x="270.166016" xlink:href="#i"/>
<use x="333.544922" xlink:href="#f"/>
<use x="394.824219" xlink:href="#l"/>
</g>
</g>
<path d="m156.66 529.78 0.62693-5.5233q0.27068-2.3847-2.114-2.6554l-7.6931-0.87321q-2.3847-0.27068-2.6554 2.114l-0.62693 5.5233q-0.27068 2.3847 2.114 2.6554l7.6931 0.87321q2.3847 0.27068 2.6554-2.114z" clip-path="url(#a)" fill="#fff" stroke="#fff"/>
<g clip-path="url(#a)">
<g transform="translate(152.62 529.32) rotate(-83.524) scale(.08 -.08)">
<use xlink:href="#ab"/>
</g>
</g>
<path d="m167.56 529.49 0.028592-6.2974q0.010896-2.4-2.3891-2.4109l-7.7424-0.035153q-2.4-0.010896-2.4109 2.3891l-0.028592 6.2974q-0.010897 2.4 2.3891 2.4109l7.7424 0.035152q2.4 0.010897 2.4109-2.3891z" clip-path="url(#a)" fill="#fff" stroke="#fff"/>
<g clip-path="url(#a)">
<defs>
<path id="at" d="m39.406 66.219q-10.75 0-17.078-8.0156-6.3125-8-6.3125-21.828 0-13.766 6.3125-21.781 6.3281-8 17.078-8 10.734 0 17.016 8 6.2812 8.0156 6.2812 21.781 0 13.828-6.2812 21.828-6.2812 8.0156-17.016 8.0156zm13.812-64.906 13-14.203h-11.922l-10.797 11.672q-1.6094-0.09375-2.4688-0.14062-0.84375-0.0625-1.625-0.0625-15.375 0-24.594 10.281-9.2031 10.281-9.2031 27.516 0 17.281 9.2031 27.562 9.2188 10.281 24.594 10.281 15.328 0 24.5-10.281 9.1875-10.281 9.1875-27.562 0-12.688-5.1094-21.734-5.0938-9.0312-14.766-13.328z"/>
</defs>
<g transform="translate(163.5 529.47) rotate(-89.74) scale(.08 -.08)">
<use xlink:href="#at"/>
</g>
</g>
<path d="m166.64 524.27 0.65489 5.5477q0.28136 2.3835 2.6648 2.1021l7.6891-0.90767q2.3835-0.28136 2.1021-2.6648l-0.65489-5.5477q-0.28136-2.3834-2.6648-2.1021l-7.6891 0.90767q-2.3835 0.28136-2.1021 2.6648z" clip-path="url(#a)" fill="#fff" stroke="#fff"/>
<g clip-path="url(#a)">
<g transform="translate(170.67 523.8) rotate(83.268) scale(.08 -.08)">
<use xlink:href="#v"/>
</g>
</g>
<path d="m133.46 702.01v33.808q0 2.4 2.4 2.4h7.7425q2.4 0 2.4-2.4v-33.808q0-2.4-2.4-2.4h-7.7425q-2.4 0-2.4 2.4z" clip-path="url(#a)" fill="#fff" stroke="#fff"/>
<g clip-path="url(#a)">
<g transform="translate(137.53 702.01) rotate(90) scale(.08 -.08)">
<use xlink:href="#k"/>
<use x="44.083984" xlink:href="#d"/>
<use x="105.607422" xlink:href="#e"/>
<use x="144.970703" xlink:href="#j"/>
<use x="242.382812" xlink:href="#h"/>
<use x="270.166016" xlink:href="#i"/>
<use x="333.544922" xlink:href="#f"/>
<use x="394.824219" xlink:href="#l"/>
</g>
</g>
<path d="m154.59 702.01v33.808q0 2.4 2.4 2.4h7.7425q2.4 0 2.4-2.4v-33.808q0-2.4-2.4-2.4h-7.7425q-2.4 0-2.4 2.4z" clip-path="url(#a)" fill="#fff" stroke="#fff"/>
<g clip-path="url(#a)">
<g transform="translate(158.66 702.01) rotate(90) scale(.08 -.08)">
<use xlink:href="#k"/>
<use x="44.083984" xlink:href="#d"/>
<use x="105.607422" xlink:href="#e"/>
<use x="144.970703" xlink:href="#j"/>
<use x="242.382812" xlink:href="#h"/>
<use x="270.166016" xlink:href="#i"/>
<use x="333.544922" xlink:href="#f"/>
<use x="394.824219" xlink:href="#l"/>
</g>
</g>
<path d="m178.37 702.01v33.808q0 2.4 2.4 2.4h7.7425q2.4 0 2.4-2.4v-33.808q0-2.4-2.4-2.4h-7.7425q-2.4 0-2.4 2.4z" clip-path="url(#a)" fill="#fff" stroke="#fff"/>
<g clip-path="url(#a)">
<g transform="translate(182.43 702.01) rotate(90) scale(.08 -.08)">
<use xlink:href="#k"/>
<use x="44.083984" xlink:href="#d"/>
<use x="105.607422" xlink:href="#e"/>
<use x="144.970703" xlink:href="#j"/>
<use x="242.382812" xlink:href="#h"/>
<use x="270.166016" xlink:href="#i"/>
<use x="333.544922" xlink:href="#f"/>
<use x="394.824219" xlink:href="#l"/>
</g>
</g>
<path d="m85.916 702.01v33.808q0 2.4 2.4 2.4h7.7425q2.4 0 2.4-2.4v-33.808q0-2.4-2.4-2.4h-7.7425q-2.4 0-2.4 2.4z" clip-path="url(#a)" fill="#fff" stroke="#fff"/>
<g clip-path="url(#a)">
<g transform="translate(89.98 702.01) rotate(90) scale(.08 -.08)">
<use xlink:href="#k"/>
<use x="44.083984" xlink:href="#d"/>
<use x="105.607422" xlink:href="#e"/>
<use x="144.970703" xlink:href="#j"/>
<use x="242.382812" xlink:href="#h"/>
<use x="270.166016" xlink:href="#i"/>
<use x="333.544922" xlink:href="#f"/>
<use x="394.824219" xlink:href="#l"/>
</g>
</g>
<path d="m114.97 702.01v33.808q0 2.4 2.4 2.4h7.7425q2.4 0 2.4-2.4v-33.808q0-2.4-2.4-2.4h-7.7425q-2.4 0-2.4 2.4z" clip-path="url(#a)" fill="#fff" stroke="#fff"/>
<g clip-path="url(#a)">
<g transform="translate(119.04 702.01) rotate(90) scale(.08 -.08)">
<use xlink:href="#k"/>
<use x="44.083984" xlink:href="#d"/>
<use x="105.607422" xlink:href="#e"/>
<use x="144.970703" xlink:href="#j"/>
<use x="242.382812" xlink:href="#h"/>
<use x="270.166016" xlink:href="#i"/>
<use x="333.544922" xlink:href="#f"/>
<use x="394.824219" xlink:href="#l"/>
</g>
</g>
<path d="m204.78 702.01v33.808q0 2.4 2.4 2.4h7.7425q2.4 0 2.4-2.4v-33.808q0-2.4-2.4-2.4h-7.7425q-2.4 0-2.4 2.4z" clip-path="url(#a)" fill="#fff" stroke="#fff"/>
<g clip-path="url(#a)">
<g transform="translate(208.85 702.01) rotate(90) scale(.08 -.08)">
<use xlink:href="#k"/>
<use x="44.083984" xlink:href="#d"/>
<use x="105.607422" xlink:href="#e"/>
<use x="144.970703" xlink:href="#j"/>
<use x="242.382812" xlink:href="#h"/>
<use x="270.166016" xlink:href="#i"/>
<use x="333.544922" xlink:href="#f"/>
<use x="394.824219" xlink:href="#l"/>
</g>
</g>
<path d="m1541.4 702.01v33.808q0 2.4 2.4 2.4h7.7425q2.4 0 2.4-2.4v-33.808q0-2.4-2.4-2.4h-7.7425q-2.4 0-2.4 2.4z" clip-path="url(#a)" fill="#fff" stroke="#fff"/>
<g clip-path="url(#a)">
<g transform="translate(1545.4 702.01) rotate(90) scale(.08 -.08)">
<use xlink:href="#k"/>
<use x="44.083984" xlink:href="#d"/>
<use x="105.607422" xlink:href="#e"/>
<use x="144.970703" xlink:href="#j"/>
<use x="242.382812" xlink:href="#h"/>
<use x="270.166016" xlink:href="#i"/>
<use x="333.544922" xlink:href="#f"/>
<use x="394.824219" xlink:href="#l"/>
</g>
</g>
<defs>
<path id="b" d="m0 8.6603c2.2967 0 4.4997-0.9125 6.1237-2.5365 1.624-1.624 2.5365-3.827 2.5365-6.1237s-0.9125-4.4997-2.5365-6.1237c-1.624-1.624-3.827-2.5365-6.1237-2.5365s-4.4997 0.9125-6.1237 2.5365c-1.624 1.624-2.5365 3.827-2.5365 6.1237s0.9125 4.4997 2.5365 6.1237c1.624 1.624 3.827 2.5365 6.1237 2.5365z"/>
</defs>
<g clip-path="url(#a)">
<use x="73.69697" y="814.545455" fill="#ffffff" stroke="#ffffff" xlink:href="#b"/>
</g>
<g clip-path="url(#a)">
<use x="81.621375" y="814.545455" fill="#ffffff" stroke="#ffffff" xlink:href="#b"/>
</g>
<g clip-path="url(#a)">
<use x="92.187249" y="814.545455" fill="#ffffff" stroke="#ffffff" xlink:href="#b"/>
</g>
<g clip-path="url(#a)">
<use x="105.394591" y="814.545455" fill="#ffffff" stroke="#ffffff" xlink:href="#b"/>
</g>
<g clip-path="url(#a)">
<use x="121.243402" y="814.545455" fill="#ffffff" stroke="#ffffff" xlink:href="#b"/>
</g>
<g clip-path="url(#a)">
<use x="139.733681" y="814.545455" fill="#ffffff" stroke="#ffffff" xlink:href="#b"/>
</g>
<g clip-path="url(#a)">
<use x="160.865428" y="814.545455" fill="#ffffff" stroke="#ffffff" xlink:href="#b"/>
</g>
<g clip-path="url(#a)">
<use x="184.638645" y="814.545455" fill="#ffffff" stroke="#ffffff" xlink:href="#b"/>
</g>
<g clip-path="url(#a)">
<use x="211.053329" y="814.545455" fill="#ffffff" stroke="#ffffff" xlink:href="#b"/>
</g>
<g clip-path="url(#a)">
<use x="240.109482" y="814.545455" fill="#ffffff" stroke="#ffffff" xlink:href="#b"/>
</g>
<g clip-path="url(#a)">
<use x="271.807103" y="814.545455" fill="#ffffff" stroke="#ffffff" xlink:href="#b"/>
</g>
<g clip-path="url(#a)">
<use x="306.146193" y="814.545455" fill="#ffffff" stroke="#ffffff" xlink:href="#b"/>
</g>
<g clip-path="url(#a)">
<use x="343.126751" y="814.545455" fill="#ffffff" stroke="#ffffff" xlink:href="#b"/>
</g>
<g clip-path="url(#a)">
<use x="382.748778" y="814.545455" fill="#ffffff" stroke="#ffffff" xlink:href="#b"/>
</g>
<g clip-path="url(#a)">
<use x="425.012273" y="814.545455" fill="#ffffff" stroke="#ffffff" xlink:href="#b"/>
</g>
<g clip-path="url(#a)">
<use x="469.917237" y="814.545455" fill="#ffffff" stroke="#ffffff" xlink:href="#b"/>
</g>
<g clip-path="url(#a)">
<use x="517.463669" y="814.545455" fill="#ffffff" stroke="#ffffff" xlink:href="#b"/>
</g>
<g clip-path="url(#a)">
<use x="567.651569" y="814.545455" fill="#ffffff" stroke="#ffffff" xlink:href="#b"/>
</g>
<g clip-path="url(#a)">
<use x="620.480938" y="814.545455" fill="#ffffff" stroke="#ffffff" xlink:href="#b"/>
</g>
<g clip-path="url(#a)">
<use x="675.951776" y="814.545455" fill="#ffffff" stroke="#ffffff" xlink:href="#b"/>
</g>
<g clip-path="url(#a)">
<use x="734.064082" y="814.545455" fill="#ffffff" stroke="#ffffff" xlink:href="#b"/>
</g>
<g clip-path="url(#a)">
<use x="794.817856" y="814.545455" fill="#ffffff" stroke="#ffffff" xlink:href="#b"/>
</g>
<g clip-path="url(#a)">
<use x="858.213099" y="814.545455" fill="#ffffff" stroke="#ffffff" xlink:href="#b"/>
</g>
<g clip-path="url(#a)">
<use x="924.24981" y="814.545455" fill="#ffffff" stroke="#ffffff" xlink:href="#b"/>
</g>
<g clip-path="url(#a)">
<use x="992.92799" y="814.545455" fill="#ffffff" stroke="#ffffff" xlink:href="#b"/>
</g>
<g clip-path="url(#a)">
<use x="1064.247638" y="814.545455" fill="#ffffff" stroke="#ffffff" xlink:href="#b"/>
</g>
<g clip-path="url(#a)">
<use x="1138.208754" y="814.545455" fill="#ffffff" stroke="#ffffff" xlink:href="#b"/>
</g>
<g clip-path="url(#a)">
<use x="1214.811339" y="814.545455" fill="#ffffff" stroke="#ffffff" xlink:href="#b"/>
</g>
<g clip-path="url(#a)">
<use x="1294.055393" y="814.545455" fill="#ffffff" stroke="#ffffff" xlink:href="#b"/>
</g>
<g clip-path="url(#a)">
<use x="1375.940915" y="814.545455" fill="#ffffff" stroke="#ffffff" xlink:href="#b"/>
</g>
<g clip-path="url(#a)">
<use x="1460.467905" y="814.545455" fill="#ffffff" stroke="#ffffff" xlink:href="#b"/>
</g>
<g clip-path="url(#a)">
<use x="1547.636364" y="814.545455" fill="#ffffff" stroke="#ffffff" xlink:href="#b"/>
</g>
<g clip-path="url(#a)">
<use x="508.025922" y="38.787879" fill="#ffffff" stroke="#ffffff" xlink:href="#b"/>
</g>
<g clip-path="url(#a)">
<use x="105.834836" y="234.398654" fill="#ffffff" stroke="#ffffff" xlink:href="#b"/>
</g>
<g clip-path="url(#a)">
<use x="240.109482" y="623.276082" fill="#ffffff" stroke="#ffffff" xlink:href="#b"/>
</g>
<g clip-path="url(#a)">
<use x="271.807103" y="623.276082" fill="#ffffff" stroke="#ffffff" xlink:href="#b"/>
</g>
<g clip-path="url(#a)">
<use x="447.464755" y="234.398654" fill="#ffffff" stroke="#ffffff" xlink:href="#b"/>
</g>
<g clip-path="url(#a)">
<use x="681.234713" y="234.398654" fill="#ffffff" stroke="#ffffff" xlink:href="#b"/>
</g>
<g clip-path="url(#a)">
<use x="1064.247638" y="623.276082" fill="#ffffff" stroke="#ffffff" xlink:href="#b"/>
</g>
<g clip-path="url(#a)">
<use x="1042.455523" y="234.398654" fill="#ffffff" stroke="#ffffff" xlink:href="#b"/>
</g>
<g clip-path="url(#a)">
<use x="1138.208754" y="623.276082" fill="#ffffff" stroke="#ffffff" xlink:href="#b"/>
</g>
<g clip-path="url(#a)">
<use x="1214.811339" y="623.276082" fill="#ffffff" stroke="#ffffff" xlink:href="#b"/>
</g>
<g clip-path="url(#a)">
<use x="1249.150429" y="429.345941" fill="#ffffff" stroke="#ffffff" xlink:href="#b"/>
</g>
<g clip-path="url(#a)">
<use x="1294.055393" y="623.276082" fill="#ffffff" stroke="#ffffff" xlink:href="#b"/>
</g>
<g clip-path="url(#a)">
<use x="1375.940915" y="623.276082" fill="#ffffff" stroke="#ffffff" xlink:href="#b"/>
</g>
<g clip-path="url(#a)">
<use x="1460.467905" y="623.276082" fill="#ffffff" stroke="#ffffff" xlink:href="#b"/>
</g>
<g clip-path="url(#a)">
<use x="567.651569" y="623.276082" fill="#ffffff" stroke="#ffffff" xlink:href="#b"/>
</g>
<g clip-path="url(#a)">
<use x="620.480938" y="623.276082" fill="#ffffff" stroke="#ffffff" xlink:href="#b"/>
</g>
<g clip-path="url(#a)">
<use x="675.951776" y="623.276082" fill="#ffffff" stroke="#ffffff" xlink:href="#b"/>
</g>
<g clip-path="url(#a)">
<use x="860.854567" y="429.345941" fill="#ffffff" stroke="#ffffff" xlink:href="#b"/>
</g>
<g clip-path="url(#a)">
<use x="734.064082" y="623.276082" fill="#ffffff" stroke="#ffffff" xlink:href="#b"/>
</g>
<g clip-path="url(#a)">
<use x="794.817856" y="623.276082" fill="#ffffff" stroke="#ffffff" xlink:href="#b"/>
</g>
<g clip-path="url(#a)">
<use x="858.213099" y="623.276082" fill="#ffffff" stroke="#ffffff" xlink:href="#b"/>
</g>
<g clip-path="url(#a)">
<use x="924.24981" y="623.276082" fill="#ffffff" stroke="#ffffff" xlink:href="#b"/>
</g>
<g clip-path="url(#a)">
<use x="992.92799" y="623.276082" fill="#ffffff" stroke="#ffffff" xlink:href="#b"/>
</g>
<g clip-path="url(#a)">
<use x="365.579233" y="429.345941" fill="#ffffff" stroke="#ffffff" xlink:href="#b"/>
</g>
<g clip-path="url(#a)">
<use x="362.937765" y="429.345941" fill="#ffffff" stroke="#ffffff" xlink:href="#b"/>
</g>
<g clip-path="url(#a)">
<use x="493.690453" y="429.345941" fill="#ffffff" stroke="#ffffff" xlink:href="#b"/>
</g>
<g clip-path="url(#a)">
<use x="469.917237" y="623.276082" fill="#ffffff" stroke="#ffffff" xlink:href="#b"/>
</g>
<g clip-path="url(#a)">
<use x="517.463669" y="623.276082" fill="#ffffff" stroke="#ffffff" xlink:href="#b"/>
</g>
<g clip-path="url(#a)">
<use x="343.126751" y="623.276082" fill="#ffffff" stroke="#ffffff" xlink:href="#b"/>
</g>
<g clip-path="url(#a)">
<use x="382.748778" y="623.276082" fill="#ffffff" stroke="#ffffff" xlink:href="#b"/>
</g>
<g clip-path="url(#a)">
<use x="306.146193" y="623.276082" fill="#ffffff" stroke="#ffffff" xlink:href="#b"/>
</g>
<g clip-path="url(#a)">
<use x="425.012273" y="623.276082" fill="#ffffff" stroke="#ffffff" xlink:href="#b"/>
</g>
<g clip-path="url(#a)">
<use x="73.69697" y="623.276082" fill="#ffffff" stroke="#ffffff" xlink:href="#b"/>
</g>
<g clip-path="url(#a)">
<use x="81.621375" y="623.276082" fill="#ffffff" stroke="#ffffff" xlink:href="#b"/>
</g>
<g clip-path="url(#a)">
<use x="106.715325" y="429.345941" fill="#ffffff" stroke="#ffffff" xlink:href="#b"/>
</g>
<g clip-path="url(#a)">
<use x="105.394591" y="623.276082" fill="#ffffff" stroke="#ffffff" xlink:href="#b"/>
</g>
<g clip-path="url(#a)">
<use x="161.745918" y="429.345941" fill="#ffffff" stroke="#ffffff" xlink:href="#b"/>
</g>
<g clip-path="url(#a)">
<use x="139.733681" y="623.276082" fill="#ffffff" stroke="#ffffff" xlink:href="#b"/>
</g>
<g clip-path="url(#a)">
<use x="160.865428" y="623.276082" fill="#ffffff" stroke="#ffffff" xlink:href="#b"/>
</g>
<g clip-path="url(#a)">
<use x="184.638645" y="623.276082" fill="#ffffff" stroke="#ffffff" xlink:href="#b"/>
</g>
<g clip-path="url(#a)">
<use x="92.187249" y="623.276082" fill="#ffffff" stroke="#ffffff" xlink:href="#b"/>
</g>
<g clip-path="url(#a)">
<use x="121.243402" y="623.276082" fill="#ffffff" stroke="#ffffff" xlink:href="#b"/>
</g>
<g clip-path="url(#a)">
<use x="211.053329" y="623.276082" fill="#ffffff" stroke="#ffffff" xlink:href="#b"/>
</g>
<g clip-path="url(#a)">
<use x="1547.636364" y="623.276082" fill="#ffffff" stroke="#ffffff" xlink:href="#b"/>
</g>
<g clip-path="url(#a)">
<g transform="translate(66.86 817.3) scale(.1 -.1)">
<use xlink:href="#w"/>
<use x="75.195312" xlink:href="#d"/>
</g>
</g>
<g clip-path="url(#a)">
<defs>
<path id="aw" d="m4.2031 54.688h8.9844l11.234-42.672 11.172 42.672h10.594l11.234-42.672 11.188 42.672h8.9844l-14.312-54.688h-10.594l-11.766 44.828-11.812-44.828h-10.609z"/>
<path id="aa" d="m44.281 53.078v-8.5q-3.7969 1.9531-7.9062 2.9219-4.0938 0.98438-8.5 0.98438-6.6875 0-10.031-2.0469t-3.3438-6.1562q0-3.125 2.3906-4.9062t9.625-3.3906l3.0781-0.6875q9.5625-2.0469 13.594-5.7812t4.0312-10.422q0-7.625-6.0312-12.078-6.0312-4.4375-16.578-4.4375-4.3906 0-9.1562 0.85938t-10.031 2.5625v9.2812q4.9844-2.5938 9.8125-3.8906 4.8281-1.2812 9.5781-1.2812 6.3438 0 9.75 2.1719 3.4219 2.1719 3.4219 6.125 0 3.6562-2.4688 5.6094-2.4531 1.9531-10.812 3.7656l-3.125 0.73438q-8.3438 1.75-12.062 5.3906-3.7031 3.6406-3.7031 9.9844 0 7.7188 5.4688 11.906 5.4688 4.2031 15.531 4.2031 4.9688 0 9.3594-0.73438 4.4062-0.71875 8.1094-2.1875z"/>
</defs>
<g transform="translate(71.864 817.3) scale(.1 -.1)">
<use xlink:href="#aw"/>
<use x="81.787109" xlink:href="#f"/>
<use x="143.066406" xlink:href="#aa"/>
</g>
</g>
<g clip-path="url(#a)">
<g transform="translate(89.123 817.3) scale(.1 -.1)">
<use xlink:href="#f"/>
</g>
</g>
<g clip-path="url(#a)">
<defs>
<path id="t" d="m48.781 52.594v-8.4062q-3.8125 2.1094-7.6406 3.1562t-7.7344 1.0469q-8.75 0-13.594-5.5469-4.8281-5.5312-4.8281-15.547t4.8281-15.562q4.8438-5.5312 13.594-5.5312 3.9062 0 7.7344 1.0469t7.6406 3.1562v-8.3125q-3.7656-1.75-7.7969-2.625-4.0156-0.89062-8.5625-0.89062-12.359 0-19.641 7.7656-7.2656 7.7656-7.2656 20.953 0 13.375 7.3438 21.031 7.3594 7.6719 20.156 7.6719 4.1406 0 8.0938-0.85938 3.9531-0.84375 7.6719-2.5469z"/>
<path id="s" d="m30.609 48.391q-7.2188 0-11.422-5.6406t-4.2031-15.453 4.1719-15.453q4.1875-5.6406 11.453-5.6406 7.1875 0 11.375 5.6562 4.2031 5.6719 4.2031 15.438 0 9.7188-4.2031 15.406-4.1875 5.6875-11.375 5.6875zm0 7.6094q11.719 0 18.406-7.625 6.7031-7.6094 6.7031-21.078 0-13.422-6.7031-21.078-6.6875-7.6406-18.406-7.6406-11.766 0-18.438 7.6406-6.6562 7.6562-6.6562 21.078 0 13.469 6.6562 21.078 6.6719 7.625 18.438 7.625z"/>
</defs>
<g transform="translate(86.138 817.3) scale(.1 -.1)">
<use xlink:href="#t"/>
<use x="54.980469" xlink:href="#s"/>
<use x="116.162109" xlink:href="#t"/>
<use x="171.142578" xlink:href="#f"/>
<use x="232.421875" xlink:href="#h"/>
<use x="260.205078" xlink:href="#i"/>
<use x="323.583984" xlink:href="#d"/>
</g>
</g>
<g clip-path="url(#a)">
<defs>
<path id="q" d="m45.406 46.391v29.594h8.9844v-75.984h-8.9844v8.2031q-2.8281-4.875-7.1562-7.25-4.3125-2.375-10.375-2.375-9.9062 0-16.141 7.9062-6.2188 7.9219-6.2188 20.812t6.2188 20.797q6.2344 7.9062 16.141 7.9062 6.0625 0 10.375-2.375 4.3281-2.3594 7.1562-7.2344zm-30.609-19.094q0-9.9062 4.0781-15.547t11.203-5.6406 11.219 5.6406q4.1094 5.6406 4.1094 15.547t-4.1094 15.547q-4.0938 5.6406-11.219 5.6406t-11.203-5.6406-4.0781-15.547z"/>
<path id="p" d="m18.312 70.219v-15.531h18.5v-6.9844h-18.5v-29.688q0-6.6875 1.8281-8.5938t7.4531-1.9062h9.2188v-7.5156h-9.2188q-10.406 0-14.359 3.875-3.9531 3.8906-3.9531 14.141v29.688h-6.5938v6.9844h6.5938v15.531z"/>
</defs>
<g transform="translate(105.73 817.3) scale(.1 -.1)">
<use xlink:href="#f"/>
<use x="61.279297" xlink:href="#q"/>
<use x="124.755859" xlink:href="#q"/>
<use x="188.232422" xlink:href="#h"/>
<use x="216.015625" xlink:href="#t"/>
<use x="270.996094" xlink:href="#p"/>
</g>
</g>
<g clip-path="url(#a)">
<defs>
<path id="ar" d="m37.109 75.984v-7.4844h-8.5938q-4.8281 0-6.7188-1.9531-1.875-1.9531-1.875-7.0312v-4.8281h14.797v-6.9844h-14.797v-47.703h-9.0312v47.703h-8.5938v6.9844h8.5938v3.8125q0 9.125 4.25 13.297 4.25 4.1875 13.469 4.1875z"/>
</defs>
<g transform="translate(132.86 817.3) scale(.1 -.1)">
<use xlink:href="#ar"/>
<use x="35.205078" xlink:href="#s"/>
<use x="96.386719" xlink:href="#e"/>
</g>
</g>
<g clip-path="url(#a)">
<defs>
<path id="ak" d="m32.172-5.0781q-3.7969-9.7656-7.4219-12.734-3.6094-2.9844-9.6562-2.9844h-7.1875v7.5156h5.2812q3.7031 0 5.75 1.7656 2.0625 1.75 4.5469 8.2969l1.6094 4.0938-22.109 53.812h9.5156l17.094-42.766 17.094 42.766h9.5156z"/>
</defs>
<g transform="translate(146.8 817.3) scale(.1 -.1)">
<use xlink:href="#j"/>
<use x="97.412109" xlink:href="#f"/>
<use x="158.691406" xlink:href="#i"/>
<use x="222.070312" xlink:href="#ak"/>
</g>
</g>
<g clip-path="url(#a)">
<g transform="translate(170.88 817.3) scale(.1 -.1)">
<use xlink:href="#ak"/>
<use x="59.179688" xlink:href="#d"/>
<use x="120.703125" xlink:href="#f"/>
<use x="181.982422" xlink:href="#e"/>
<use x="223.095703" xlink:href="#aa"/>
</g>
</g>
<g clip-path="url(#a)">
<defs>
<path id="au" d="m11.719 12.406h10.297v-8.4062l-8-15.625h-6.2969l4 15.625z"/>
</defs>
<g transform="translate(209.46 817.3) scale(.1 -.1)">
<use xlink:href="#au"/>
</g>
</g>
<g clip-path="url(#a)">
<defs>
<path id="ao" d="m48.688 27.297q0 9.9062-4.0781 15.547t-11.203 5.6406q-7.1406 0-11.219-5.6406t-4.0781-15.547 4.0781-15.547 11.219-5.6406q7.125 0 11.203 5.6406t4.0781 15.547zm-30.578 19.094q2.8438 4.875 7.1562 7.2344 4.3281 2.375 10.328 2.375 9.9688 0 16.188-7.9062 6.2344-7.9062 6.2344-20.797t-6.2344-20.812q-6.2188-7.9062-16.188-7.9062-6 0-10.328 2.375-4.3125 2.375-7.1562 7.25v-8.2031h-9.0312v75.984h9.0312z"/>
<path id="al" d="m8.5 21.578v33.109h8.9844v-32.766q0-7.7656 3.0156-11.656 3.0312-3.875 9.0938-3.875 7.2656 0 11.484 4.6406 4.2344 4.6406 4.2344 12.656v31h8.9844v-54.688h-8.9844v8.4062q-3.2656-4.9844-7.5938-7.4062-4.3125-2.4219-10.031-2.4219-9.4219 0-14.312 5.8594-4.875 5.8594-4.875 17.141z"/>
</defs>
<g transform="translate(231.81 817.3) scale(.1 -.1)">
<use xlink:href="#ao"/>
<use x="63.476562" xlink:href="#al"/>
<use x="126.855469" xlink:href="#p"/>
</g>
</g>
<g clip-path="url(#a)">
<g transform="translate(259.98 817.3) scale(.1 -.1)">
<use xlink:href="#f"/>
<use x="61.279297" xlink:href="#ar"/>
<use x="94.734375" xlink:href="#p"/>
<use x="133.943359" xlink:href="#d"/>
<use x="195.466797" xlink:href="#e"/>
</g>
</g>
<g clip-path="url(#a)">
<g transform="translate(303.08 817.3) scale(.1 -.1)">
<use xlink:href="#f"/>
</g>
</g>
<g clip-path="url(#a)">
<defs>
<path id="ag" d="m54.891 33.016v-33.016h-8.9844v32.719q0 7.7656-3.0312 11.609-3.0312 3.8594-9.0781 3.8594-7.2812 0-11.484-4.6406-4.2031-4.625-4.2031-12.641v-30.906h-9.0312v75.984h9.0312v-29.797q3.2344 4.9375 7.5938 7.375 4.375 2.4375 10.094 2.4375 9.4219 0 14.25-5.8281 4.8438-5.8281 4.8438-17.156z"/>
<path id="an" d="m45.406 27.984q0 9.7656-4.0312 15.125-4.0156 5.375-11.297 5.375-7.2188 0-11.25-5.375-4.0312-5.3594-4.0312-15.125 0-9.7188 4.0312-15.094t11.25-5.375q7.2812 0 11.297 5.375 4.0312 5.375 4.0312 15.094zm8.9844-21.203q0-13.953-6.2031-20.766-6.1875-6.8125-18.984-6.8125-4.7344 0-8.9375 0.70312t-8.1562 2.1719v8.7344q3.9531-2.1406 7.8125-3.1562 3.8594-1.0312 7.8594-1.0312 8.8438 0 13.234 4.6094t4.3906 13.938v4.4531q-2.7812-4.8438-7.125-7.2344t-10.406-2.3906q-10.047 0-16.203 7.6562-6.1562 7.6719-6.1562 20.328 0 12.688 6.1562 20.344 6.1562 7.6719 16.203 7.6719 6.0625 0 10.406-2.3906t7.125-7.2188v8.2969h8.9844z"/>
</defs>
<g transform="translate(327.88 817.3) scale(.1 -.1)">
<use xlink:href="#ag"/>
<use x="63.378906" xlink:href="#h"/>
<use x="91.162109" xlink:href="#an"/>
<use x="154.638672" xlink:href="#ag"/>
<use x="218.017578" xlink:href="#l"/>
<use x="245.800781" xlink:href="#ak"/>
</g>
</g>
<g clip-path="url(#a)">
<defs>
<path id="am" d="m18.109 8.2031v-29h-9.0312v75.484h9.0312v-8.2969q2.8438 4.875 7.1562 7.2344 4.3281 2.375 10.328 2.375 9.9688 0 16.188-7.9062 6.2344-7.9062 6.2344-20.797t-6.2344-20.812q-6.2188-7.9062-16.188-7.9062-6 0-10.328 2.375-4.3125 2.375-7.1562 7.25zm30.578 19.094q0 9.9062-4.0781 15.547t-11.203 5.6406q-7.1406 0-11.219-5.6406t-4.0781-15.547 4.0781-15.547 11.219-5.6406q7.125 0 11.203 5.6406t4.0781 15.547z"/>
<path id="av" d="m5.5156 54.688h42.672v-8.2031l-33.781-39.312h33.781v-7.1719h-43.891v8.2031l33.797 39.312h-32.578z"/>
</defs>
<g transform="translate(357.44 817.3) scale(.1 -.1)">
<use xlink:href="#am"/>
<use x="63.476562" xlink:href="#al"/>
<use x="126.855469" xlink:href="#ao"/>
<use x="190.332031" xlink:href="#l"/>
<use x="218.115234" xlink:href="#h"/>
<use x="245.898438" xlink:href="#t"/>
<use x="300.878906" xlink:href="#h"/>
<use x="328.662109" xlink:href="#av"/>
<use x="381.152344" xlink:href="#d"/>
<use x="442.675781" xlink:href="#q"/>
</g>
</g>
<g clip-path="url(#a)">
<g transform="translate(410.4 817.3) scale(.1 -.1)">
<use xlink:href="#f"/>
<use x="61.279297" xlink:href="#e"/>
<use x="100.642578" xlink:href="#e"/>
<use x="139.505859" xlink:href="#d"/>
<use x="201.029297" xlink:href="#aa"/>
<use x="253.128906" xlink:href="#p"/>
</g>
</g>
<g clip-path="url(#a)">
<g transform="translate(465.36 817.3) scale(.1 -.1)">
<use xlink:href="#h"/>
<use x="27.783203" xlink:href="#i"/>
</g>
</g>
<g clip-path="url(#a)">
<defs>
<path id="m" d="m19.188 8.2969h34.422v-8.2969h-46.281v8.2969q5.6094 5.8125 15.297 15.594 9.7031 9.7969 12.188 12.641 4.7344 5.3125 6.6094 9 1.8906 3.6875 1.8906 7.25 0 5.8125-4.0781 9.4688-4.0781 3.6719-10.625 3.6719-4.6406 0-9.7969-1.6094-5.1406-1.6094-11-4.8906v9.9688q5.9531 2.3906 11.125 3.6094 5.1875 1.2188 9.4844 1.2188 11.328 0 18.062-5.6719 6.7344-5.6562 6.7344-15.125 0-4.5-1.6875-8.5312-1.6719-4.0156-6.125-9.4844-1.2188-1.4219-7.7656-8.1875-6.5312-6.7656-18.453-18.922z"/>
<path id="z" d="m31.781 66.406q-7.6094 0-11.453-7.5-3.8281-7.4844-3.8281-22.531 0-14.984 3.8281-22.484 3.8438-7.5 11.453-7.5 7.6719 0 11.5 7.5 3.8438 7.5 3.8438 22.484 0 15.047-3.8438 22.531-3.8281 7.5-11.5 7.5zm0 7.8125q12.266 0 18.734-9.7031 6.4688-9.6875 6.4688-28.141 0-18.406-6.4688-28.109-6.4688-9.6875-18.734-9.6875-12.25 0-18.719 9.6875-6.4688 9.7031-6.4688 28.109 0 18.453 6.4688 28.141 6.4688 9.7031 18.719 9.7031z"/>
<path id="c" d="m12.406 8.2969h16.109v55.625l-17.531-3.5156v8.9844l17.438 3.5156h9.8594v-64.609h16.109v-8.2969h-41.984z"/>
</defs>
<g transform="translate(504.74 817.3) scale(.1 -.1)">
<use xlink:href="#m"/>
<use x="63.623047" xlink:href="#z"/>
<use x="127.246094" xlink:href="#z"/>
<use x="190.869141" xlink:href="#c"/>
</g>
</g>
<g clip-path="url(#a)">
<g transform="translate(561.41 817.3) scale(.1 -.1)">
<use xlink:href="#ag"/>
<use x="63.378906" xlink:href="#d"/>
</g>
</g>
<g clip-path="url(#a)">
<defs>
<path id="af" d="m2.9844 54.688h9.5156l17.094-45.891 17.094 45.891h9.5156l-20.516-54.688h-12.203z"/>
</defs>
<g transform="translate(599.04 817.3) scale(.1 -.1)">
<use xlink:href="#e"/>
<use x="38.863281" xlink:href="#d"/>
<use x="100.386719" xlink:href="#t"/>
<use x="155.367188" xlink:href="#d"/>
<use x="216.890625" xlink:href="#h"/>
<use x="244.673828" xlink:href="#af"/>
<use x="303.853516" xlink:href="#d"/>
<use x="365.376953" xlink:href="#q"/>
</g>
</g>
<g clip-path="url(#a)">
<g transform="translate(650.87 817.3) scale(.1 -.1)">
<use xlink:href="#p"/>
<use x="39.208984" xlink:href="#e"/>
<use x="78.072266" xlink:href="#d"/>
<use x="139.595703" xlink:href="#f"/>
<use x="200.875" xlink:href="#p"/>
<use x="240.083984" xlink:href="#j"/>
<use x="337.496094" xlink:href="#d"/>
<use x="399.019531" xlink:href="#i"/>
<use x="462.398438" xlink:href="#p"/>
</g>
</g>
<g clip-path="url(#a)">
<g transform="translate(729.51 817.3) scale(.1 -.1)">
<use xlink:href="#h"/>
<use x="27.783203" xlink:href="#i"/>
</g>
</g>
<g clip-path="url(#a)">
<g transform="translate(791.75 817.3) scale(.1 -.1)">
<use xlink:href="#f"/>
</g>
</g>
<g clip-path="url(#a)">
<g transform="translate(846.64 817.3) scale(.1 -.1)">
<use xlink:href="#q"/>
<use x="63.476562" xlink:href="#e"/>
<use x="104.589844" xlink:href="#al"/>
<use x="167.96875" xlink:href="#an"/>
</g>
</g>
<g clip-path="url(#a)">
<g transform="translate(901.37 817.3) scale(.1 -.1)">
<use xlink:href="#q"/>
<use x="63.476562" xlink:href="#h"/>
<use x="91.259766" xlink:href="#af"/>
<use x="150.439453" xlink:href="#d"/>
<use x="211.962891" xlink:href="#e"/>
<use x="253.076172" xlink:href="#aa"/>
<use x="305.175781" xlink:href="#h"/>
<use x="332.958984" xlink:href="#s"/>
<use x="394.140625" xlink:href="#i"/>
</g>
</g>
<g clip-path="url(#a)">
<g transform="translate(971.59 817.3) scale(.1 -.1)">
<use xlink:href="#am"/>
<use x="63.476562" xlink:href="#e"/>
<use x="102.339844" xlink:href="#s"/>
<use x="163.521484" xlink:href="#an"/>
<use x="226.998047" xlink:href="#e"/>
<use x="268.111328" xlink:href="#f"/>
<use x="329.390625" xlink:href="#j"/>
</g>
</g>
<g clip-path="url(#a)">
<g transform="translate(1054.8 817.3) scale(.1 -.1)">
<use xlink:href="#f"/>
<use x="61.279297" xlink:href="#i"/>
<use x="124.658203" xlink:href="#q"/>
</g>
</g>
<g clip-path="url(#a)">
<g transform="translate(1134.2 817.3) scale(.1 -.1)">
<use xlink:href="#h"/>
<use x="27.783203" xlink:href="#aa"/>
</g>
</g>
<g clip-path="url(#a)">
<g transform="translate(1193.3 817.3) scale(.1 -.1)">
<use xlink:href="#e"/>
<use x="38.863281" xlink:href="#d"/>
<use x="100.386719" xlink:href="#am"/>
<use x="163.863281" xlink:href="#s"/>
<use x="225.044922" xlink:href="#e"/>
<use x="266.158203" xlink:href="#p"/>
<use x="305.367188" xlink:href="#d"/>
<use x="366.890625" xlink:href="#q"/>
</g>
</g>
<g clip-path="url(#a)">
<g transform="translate(1289 817.3) scale(.1 -.1)">
<use xlink:href="#p"/>
<use x="39.208984" xlink:href="#s"/>
</g>
</g>
<g clip-path="url(#a)">
<g transform="translate(1363.7 817.3) scale(.1 -.1)">
<use xlink:href="#ag"/>
<use x="63.378906" xlink:href="#f"/>
<use x="124.658203" xlink:href="#af"/>
<use x="183.837891" xlink:href="#d"/>
</g>
</g>
<g clip-path="url(#a)">
<g transform="translate(1435.4 817.3) scale(.1 -.1)">
<use xlink:href="#e"/>
<use x="38.863281" xlink:href="#d"/>
<use x="100.386719" xlink:href="#t"/>
<use x="155.367188" xlink:href="#s"/>
<use x="216.548828" xlink:href="#af"/>
<use x="275.728516" xlink:href="#d"/>
<use x="337.251953" xlink:href="#e"/>
<use x="376.115234" xlink:href="#d"/>
<use x="437.638672" xlink:href="#q"/>
</g>
</g>
<g clip-path="url(#a)">
<defs>
<path id="g" d="m10.688 12.406h10.312v-12.406h-10.312z"/>
</defs>
<g transform="translate(1546 817.3) scale(.1 -.1)">
<use xlink:href="#g"/>
</g>
</g>
<g clip-path="url(#a)">
<g transform="translate(500.07 41.547) scale(.1 -.1)">
<use xlink:href="#c"/>
<use x="63.623047" xlink:href="#g"/>
<use x="95.410156" xlink:href="#c"/>
</g>
</g>
<g clip-path="url(#a)">
<g transform="translate(97.883 237.16) scale(.1 -.1)">
<use xlink:href="#c"/>
<use x="63.623047" xlink:href="#g"/>
<use x="95.410156" xlink:href="#m"/>
</g>
</g>
<g clip-path="url(#a)">
<defs>
<path id="n" d="m40.578 39.312q7.0781-1.5156 11.047-6.3125 3.9844-4.7812 3.9844-11.812 0-10.781-7.4219-16.703-7.4219-5.9062-21.094-5.9062-4.5781 0-9.4375 0.90625t-10.031 2.7188v9.5156q4.0938-2.3906 8.9688-3.6094 4.8906-1.2188 10.219-1.2188 9.2656 0 14.125 3.6562t4.8594 10.641q0 6.4531-4.5156 10.078-4.5156 3.6406-12.562 3.6406h-8.5v8.1094h8.8906q7.2656 0 11.125 2.9062t3.8594 8.375q0 5.6094-3.9844 8.6094-3.9688 3.0156-11.391 3.0156-4.0625 0-8.7031-0.89062-4.6406-0.875-10.203-2.7188v8.7812q5.625 1.5625 10.531 2.3438t9.25 0.78125q11.234 0 17.766-5.1094 6.5469-5.0938 6.5469-13.781 0-6.0625-3.4688-10.234t-9.8594-5.7812z"/>
</defs>
<g transform="translate(232.16 626.04) scale(.1 -.1)">
<use xlink:href="#c"/>
<use x="63.623047" xlink:href="#g"/>
<use x="95.410156" xlink:href="#n"/>
</g>
</g>
<g clip-path="url(#a)">
<defs>
<path id="o" d="m37.797 64.312-24.906-38.922h24.906zm-2.5938 8.5938h12.406v-47.516h10.406v-8.2031h-10.406v-17.188h-9.8125v17.188h-32.906v9.5156z"/>
</defs>
<g transform="translate(263.86 626.04) scale(.1 -.1)">
<use xlink:href="#c"/>
<use x="63.623047" xlink:href="#g"/>
<use x="95.410156" xlink:href="#o"/>
</g>
</g>
<g clip-path="url(#a)">
<defs>
<path id="y" d="m10.797 72.906h38.719v-8.3125h-29.688v-17.859q2.1406 0.73438 4.2812 1.0938 2.1562 0.35938 4.3125 0.35938 12.203 0 19.328-6.6875 7.1406-6.6875 7.1406-18.109 0-11.766-7.3281-18.297-7.3281-6.5156-20.656-6.5156-4.5938 0-9.3594 0.78125-4.75 0.78125-9.8281 2.3438v9.9219q4.3906-2.3906 9.0781-3.5625t9.9062-1.1719q8.4531 0 13.375 4.4375 4.9375 4.4375 4.9375 12.062 0 7.6094-4.9375 12.047-4.9219 4.4531-13.375 4.4531-3.9531 0-7.8906-0.875-3.9219-0.875-8.0156-2.7344z"/>
</defs>
<g transform="translate(439.51 237.16) scale(.1 -.1)">
<use xlink:href="#c"/>
<use x="63.623047" xlink:href="#g"/>
<use x="95.410156" xlink:href="#y"/>
</g>
</g>
<g clip-path="url(#a)">
<defs>
<path id="x" d="m33.016 40.375q-6.6406 0-10.531-4.5469-3.875-4.5312-3.875-12.438 0-7.8594 3.875-12.438 3.8906-4.5625 10.531-4.5625t10.516 4.5625q3.875 4.5781 3.875 12.438 0 7.9062-3.875 12.438-3.875 4.5469-10.516 4.5469zm19.578 30.922v-8.9844q-3.7188 1.75-7.5 2.6719-3.7812 0.9375-7.5 0.9375-9.7656 0-14.922-6.5938-5.1406-6.5938-5.875-19.922 2.875 4.25 7.2188 6.5156 4.3594 2.2656 9.5781 2.2656 10.984 0 17.359-6.6719 6.375-6.6562 6.375-18.125 0-11.234-6.6406-18.031-6.6406-6.7812-17.672-6.7812-12.656 0-19.344 9.6875-6.6875 9.7031-6.6875 28.109 0 17.281 8.2031 27.562t22.016 10.281q3.7188 0 7.5-0.73438t7.8906-2.1875z"/>
</defs>
<g transform="translate(673.28 237.16) scale(.1 -.1)">
<use xlink:href="#c"/>
<use x="63.623047" xlink:href="#g"/>
<use x="95.410156" xlink:href="#x"/>
</g>
</g>
<g clip-path="url(#a)">
<defs>
<path id="ae" d="m8.2031 72.906h46.875v-4.2031l-26.469-68.703h-10.297l24.906 64.594h-35.016z"/>
</defs>
<g transform="translate(1056.3 626.04) scale(.1 -.1)">
<use xlink:href="#c"/>
<use x="63.623047" xlink:href="#g"/>
<use x="95.410156" xlink:href="#ae"/>
</g>
</g>
<g clip-path="url(#a)">
<defs>
<path id="ad" d="m31.781 34.625q-7.0312 0-11.062-3.7656-4.0156-3.7656-4.0156-10.344 0-6.5938 4.0156-10.359 4.0312-3.7656 11.062-3.7656t11.078 3.7812q4.0625 3.7969 4.0625 10.344 0 6.5781-4.0312 10.344-4.0156 3.7656-11.109 3.7656zm-9.8594 4.1875q-6.3438 1.5625-9.8906 5.9062-3.5312 4.3594-3.5312 10.609 0 8.7344 6.2188 13.812 6.2344 5.0781 17.062 5.0781 10.891 0 17.094-5.0781t6.2031-13.812q0-6.25-3.5469-10.609-3.5312-4.3438-9.8281-5.9062 7.125-1.6562 11.094-6.5 3.9844-4.8281 3.9844-11.797 0-10.609-6.4688-16.281-6.4688-5.6562-18.531-5.6562-12.047 0-18.531 5.6562-6.4688 5.6719-6.4688 16.281 0 6.9688 4 11.797 4.0156 4.8438 11.141 6.5zm-3.6094 15.578q0-5.6562 3.5312-8.8281 3.5469-3.1719 9.9375-3.1719 6.3594 0 9.9375 3.1719 3.5938 3.1719 3.5938 8.8281 0 5.6719-3.5938 8.8438-3.5781 3.1719-9.9375 3.1719-6.3906 0-9.9375-3.1719-3.5312-3.1719-3.5312-8.8438z"/>
</defs>
<g transform="translate(1034.5 237.16) scale(.1 -.1)">
<use xlink:href="#c"/>
<use x="63.623047" xlink:href="#g"/>
<use x="95.410156" xlink:href="#ad"/>
</g>
</g>
<g clip-path="url(#a)">
<g transform="translate(1127.1 626.04) scale(.1 -.1)">
<use xlink:href="#c"/>
<use x="63.623047" xlink:href="#g"/>
<use x="95.410156" xlink:href="#c"/>
<use x="159.033203" xlink:href="#c"/>
</g>
</g>
<g clip-path="url(#a)">
<g transform="translate(1203.7 626.04) scale(.1 -.1)">
<use xlink:href="#c"/>
<use x="63.623047" xlink:href="#g"/>
<use x="95.410156" xlink:href="#c"/>
<use x="159.033203" xlink:href="#m"/>
</g>
</g>
<g clip-path="url(#a)">
<g transform="translate(1238 432.11) scale(.1 -.1)">
<use xlink:href="#c"/>
<use x="63.623047" xlink:href="#g"/>
<use x="95.410156" xlink:href="#c"/>
<use x="159.033203" xlink:href="#n"/>
</g>
</g>
<g clip-path="url(#a)">
<g transform="translate(1282.9 626.04) scale(.1 -.1)">
<use xlink:href="#c"/>
<use x="63.623047" xlink:href="#g"/>
<use x="95.410156" xlink:href="#c"/>
<use x="159.033203" xlink:href="#o"/>
</g>
</g>
<g clip-path="url(#a)">
<g transform="translate(1364.8 626.04) scale(.1 -.1)">
<use xlink:href="#c"/>
<use x="63.623047" xlink:href="#g"/>
<use x="95.410156" xlink:href="#c"/>
<use x="159.033203" xlink:href="#y"/>
</g>
</g>
<g clip-path="url(#a)">
<g transform="translate(1449.3 626.04) scale(.1 -.1)">
<use xlink:href="#c"/>
<use x="63.623047" xlink:href="#g"/>
<use x="95.410156" xlink:href="#c"/>
<use x="159.033203" xlink:href="#x"/>
</g>
</g>
<g clip-path="url(#a)">
<g transform="translate(556.52 626.04) scale(.1 -.1)">
<use xlink:href="#c"/>
<use x="63.623047" xlink:href="#g"/>
<use x="95.410156" xlink:href="#c"/>
<use x="159.033203" xlink:href="#ae"/>
</g>
</g>
<g clip-path="url(#a)">
<g transform="translate(609.35 626.04) scale(.1 -.1)">
<use xlink:href="#c"/>
<use x="63.623047" xlink:href="#g"/>
<use x="95.410156" xlink:href="#c"/>
<use x="159.033203" xlink:href="#ad"/>
</g>
</g>
<g clip-path="url(#a)">
<defs>
<path id="aj" d="m10.984 1.5156v8.9844q3.7188-1.7656 7.5156-2.6875 3.8125-0.92188 7.4844-0.92188 9.7656 0 14.906 6.5625 5.1562 6.5625 5.8906 19.953-2.8281-4.2031-7.1875-6.4531-4.3438-2.25-9.6094-2.25-10.938 0-17.312 6.6094-6.375 6.625-6.375 18.109 0 11.219 6.6406 18 6.6406 6.7969 17.672 6.7969 12.656 0 19.312-9.7031 6.6719-9.6875 6.6719-28.141 0-17.234-8.1875-27.516-8.1719-10.281-21.984-10.281-3.7188 0-7.5312 0.73438-3.7969 0.73438-7.9062 2.2031zm19.625 30.906q6.6406 0 10.516 4.5312 3.8906 4.5469 3.8906 12.469 0 7.8594-3.8906 12.422-3.875 4.5625-10.516 4.5625t-10.516-4.5625-3.875-12.422q0-7.9219 3.875-12.469 3.875-4.5312 10.516-4.5312z"/>
</defs>
<g transform="translate(664.82 626.04) scale(.1 -.1)">
<use xlink:href="#c"/>
<use x="63.623047" xlink:href="#g"/>
<use x="95.410156" xlink:href="#c"/>
<use x="159.033203" xlink:href="#aj"/>
</g>
</g>
<g clip-path="url(#a)">
<g transform="translate(849.72 432.11) scale(.1 -.1)">
<use xlink:href="#c"/>
<use x="63.623047" xlink:href="#g"/>
<use x="95.410156" xlink:href="#m"/>
<use x="159.033203" xlink:href="#z"/>
</g>
</g>
<g clip-path="url(#a)">
<g transform="translate(722.93 626.04) scale(.1 -.1)">
<use xlink:href="#c"/>
<use x="63.623047" xlink:href="#g"/>
<use x="95.410156" xlink:href="#m"/>
<use x="159.033203" xlink:href="#c"/>
</g>
</g>
<g clip-path="url(#a)">
<g transform="translate(783.69 626.04) scale(.1 -.1)">
<use xlink:href="#c"/>
<use x="63.623047" xlink:href="#g"/>
<use x="95.410156" xlink:href="#m"/>
<use x="159.033203" xlink:href="#m"/>
</g>
</g>
<g clip-path="url(#a)">
<g transform="translate(847.08 626.04) scale(.1 -.1)">
<use xlink:href="#c"/>
<use x="63.623047" xlink:href="#g"/>
<use x="95.410156" xlink:href="#m"/>
<use x="159.033203" xlink:href="#n"/>
</g>
</g>
<g clip-path="url(#a)">
<g transform="translate(913.12 626.04) scale(.1 -.1)">
<use xlink:href="#c"/>
<use x="63.623047" xlink:href="#g"/>
<use x="95.410156" xlink:href="#m"/>
<use x="159.033203" xlink:href="#o"/>
</g>
</g>
<g clip-path="url(#a)">
<g transform="translate(981.8 626.04) scale(.1 -.1)">
<use xlink:href="#c"/>
<use x="63.623047" xlink:href="#g"/>
<use x="95.410156" xlink:href="#m"/>
<use x="159.033203" xlink:href="#y"/>
</g>
</g>
<g clip-path="url(#a)">
<g transform="translate(354.45 432.11) scale(.1 -.1)">
<use xlink:href="#c"/>
<use x="63.623047" xlink:href="#g"/>
<use x="95.410156" xlink:href="#m"/>
<use x="159.033203" xlink:href="#x"/>
</g>
</g>
<g clip-path="url(#a)">
<g transform="translate(351.8 432.11) scale(.1 -.1)">
<use xlink:href="#c"/>
<use x="63.623047" xlink:href="#g"/>
<use x="95.410156" xlink:href="#m"/>
<use x="159.033203" xlink:href="#ae"/>
</g>
</g>
<g clip-path="url(#a)">
<g transform="translate(482.56 432.11) scale(.1 -.1)">
<use xlink:href="#c"/>
<use x="63.623047" xlink:href="#g"/>
<use x="95.410156" xlink:href="#m"/>
<use x="159.033203" xlink:href="#ad"/>
</g>
</g>
<g clip-path="url(#a)">
<g transform="translate(458.78 626.04) scale(.1 -.1)">
<use xlink:href="#c"/>
<use x="63.623047" xlink:href="#g"/>
<use x="95.410156" xlink:href="#m"/>
<use x="159.033203" xlink:href="#aj"/>
</g>
</g>
<g clip-path="url(#a)">
<g transform="translate(506.33 626.04) scale(.1 -.1)">
<use xlink:href="#c"/>
<use x="63.623047" xlink:href="#g"/>
<use x="95.410156" xlink:href="#n"/>
<use x="159.033203" xlink:href="#z"/>
</g>
</g>
<g clip-path="url(#a)">
<g transform="translate(331.99 626.04) scale(.1 -.1)">
<use xlink:href="#c"/>
<use x="63.623047" xlink:href="#g"/>
<use x="95.410156" xlink:href="#n"/>
<use x="159.033203" xlink:href="#c"/>
</g>
</g>
<g clip-path="url(#a)">
<g transform="translate(371.62 626.04) scale(.1 -.1)">
<use xlink:href="#c"/>
<use x="63.623047" xlink:href="#g"/>
<use x="95.410156" xlink:href="#n"/>
<use x="159.033203" xlink:href="#m"/>
</g>
</g>
<g clip-path="url(#a)">
<g transform="translate(295.01 626.04) scale(.1 -.1)">
<use xlink:href="#c"/>
<use x="63.623047" xlink:href="#g"/>
<use x="95.410156" xlink:href="#n"/>
<use x="159.033203" xlink:href="#n"/>
</g>
</g>
<g clip-path="url(#a)">
<g transform="translate(413.88 626.04) scale(.1 -.1)">
<use xlink:href="#c"/>
<use x="63.623047" xlink:href="#g"/>
<use x="95.410156" xlink:href="#n"/>
<use x="159.033203" xlink:href="#o"/>
</g>
</g>
<g clip-path="url(#a)">
<g transform="translate(62.564 626.04) scale(.1 -.1)">
<use xlink:href="#c"/>
<use x="63.623047" xlink:href="#g"/>
<use x="95.410156" xlink:href="#n"/>
<use x="159.033203" xlink:href="#y"/>
</g>
</g>
<g clip-path="url(#a)">
<g transform="translate(70.489 626.04) scale(.1 -.1)">
<use xlink:href="#c"/>
<use x="63.623047" xlink:href="#g"/>
<use x="95.410156" xlink:href="#n"/>
<use x="159.033203" xlink:href="#x"/>
</g>
</g>
<g clip-path="url(#a)">
<g transform="translate(95.583 432.11) scale(.1 -.1)">
<use xlink:href="#c"/>
<use x="63.623047" xlink:href="#g"/>
<use x="95.410156" xlink:href="#n"/>
<use x="159.033203" xlink:href="#ae"/>
</g>
</g>
<g clip-path="url(#a)">
<g transform="translate(94.262 626.04) scale(.1 -.1)">
<use xlink:href="#c"/>
<use x="63.623047" xlink:href="#g"/>
<use x="95.410156" xlink:href="#n"/>
<use x="159.033203" xlink:href="#ad"/>
</g>
</g>
<g clip-path="url(#a)">
<g transform="translate(150.61 432.11) scale(.1 -.1)">
<use xlink:href="#c"/>
<use x="63.623047" xlink:href="#g"/>
<use x="95.410156" xlink:href="#n"/>
<use x="159.033203" xlink:href="#aj"/>
</g>
</g>
<g clip-path="url(#a)">
<g transform="translate(128.6 626.04) scale(.1 -.1)">
<use xlink:href="#c"/>
<use x="63.623047" xlink:href="#g"/>
<use x="95.410156" xlink:href="#o"/>
<use x="159.033203" xlink:href="#z"/>
</g>
</g>
<g clip-path="url(#a)">
<g transform="translate(149.73 626.04) scale(.1 -.1)">
<use xlink:href="#c"/>
<use x="63.623047" xlink:href="#g"/>
<use x="95.410156" xlink:href="#o"/>
<use x="159.033203" xlink:href="#c"/>
</g>
</g>
<g clip-path="url(#a)">
<g transform="translate(173.51 626.04) scale(.1 -.1)">
<use xlink:href="#c"/>
<use x="63.623047" xlink:href="#g"/>
<use x="95.410156" xlink:href="#o"/>
<use x="159.033203" xlink:href="#m"/>
</g>
</g>
<g clip-path="url(#a)">
<g transform="translate(81.054 626.04) scale(.1 -.1)">
<use xlink:href="#c"/>
<use x="63.623047" xlink:href="#g"/>
<use x="95.410156" xlink:href="#o"/>
<use x="159.033203" xlink:href="#n"/>
</g>
</g>
<g clip-path="url(#a)">
<g transform="translate(110.11 626.04) scale(.1 -.1)">
<use xlink:href="#c"/>
<use x="63.623047" xlink:href="#g"/>
<use x="95.410156" xlink:href="#o"/>
<use x="159.033203" xlink:href="#o"/>
</g>
</g>
<g clip-path="url(#a)">
<g transform="translate(199.92 626.04) scale(.1 -.1)">
<use xlink:href="#c"/>
<use x="63.623047" xlink:href="#g"/>
<use x="95.410156" xlink:href="#o"/>
<use x="159.033203" xlink:href="#y"/>
</g>
</g>
<g clip-path="url(#a)">
<g transform="translate(1536.5 626.04) scale(.1 -.1)">
<use xlink:href="#c"/>
<use x="63.623047" xlink:href="#g"/>
<use x="95.410156" xlink:href="#o"/>
<use x="159.033203" xlink:href="#x"/>
</g>
</g>
<defs>
<clipPath id="a">
<rect width="1621.3" height="853.33"/>
</clipPath>
</defs>
</svg>
