<?xml version="1.0" encoding="UTF-8"?>
<!DOCTYPE svg  PUBLIC '-//W3C//DTD SVG 1.1//EN'  'http://www.w3.org/Graphics/SVG/1.1/DTD/svg11.dtd'>
<svg width="1621.3pt" height="853.33pt" version="1.1" viewBox="0 0 1621.3 853.33" xmlns="http://www.w3.org/2000/svg" xmlns:xlink="http://www.w3.org/1999/xlink">
<defs>
<style type="text/css">*{stroke-linecap:butt;stroke-linejoin:round;}</style>
</defs>
<path d="m0 853.33h1621.3v-853.33h-1621.3z" fill="#fff"/>
<g fill="none" stroke="#000">
<path d="m313.9 38.788-167.78 260.68" clip-path="url(#a)"/>
<path d="m313.9 38.788 68.848 648.76" clip-path="url(#a)"/>
<path d="m313.9 38.788 98.936 130.47" clip-path="url(#a)"/>
<path d="m146.12 299.47-59.213 129.88" clip-path="url(#a)"/>
<path d="m146.12 299.47-6.3835 388.08" clip-path="url(#a)"/>
<path d="m146.12 299.47 65.596 129.88" clip-path="url(#a)"/>
<path d="m382.75 687.55v127" clip-path="url(#a)"/>
<path d="m412.84 169.26 12.175 518.29" clip-path="url(#a)"/>
<path d="m412.84 169.26 57.08 518.29" clip-path="url(#a)"/>
<path d="m412.84 169.26 256.68 130.21" clip-path="url(#a)"/>
<path d="m412.84 169.26-325.93 260.09" clip-path="url(#a)" stroke-dasharray="3.7,1.6"/>
<path d="m425.01 687.55v127" clip-path="url(#a)"/>
<path d="m469.92 687.55v127" clip-path="url(#a)"/>
<path d="m669.52 299.47-199.6 388.08" clip-path="url(#a)" stroke-dasharray="3.7,1.6"/>
<path d="m669.52 299.47-152.05 388.08" clip-path="url(#a)"/>
<path d="m669.52 299.47-101.86 388.08" clip-path="url(#a)"/>
<path d="m669.52 299.47 36.813 259.32" clip-path="url(#a)"/>
<path d="m669.52 299.47 416.7 129.88" clip-path="url(#a)"/>
<path d="m517.46 687.55v127" clip-path="url(#a)"/>
<path d="m567.65 687.55v127" clip-path="url(#a)"/>
<path d="m706.33 558.78-85.848 128.76" clip-path="url(#a)"/>
<path d="m706.33 558.78-30.377 128.76" clip-path="url(#a)"/>
<path d="m706.33 558.78 88.489 128.76" clip-path="url(#a)"/>
<path d="m706.33 558.78 27.735 128.76" clip-path="url(#a)"/>
<path d="m1086.2 429.35-228 258.2" clip-path="url(#a)"/>
<path d="m1086.2 429.35-161.97 258.2" clip-path="url(#a)"/>
<path d="m1086.2 429.35-21.088 129.44" clip-path="url(#a)"/>
<path d="m1086.2 429.35 128.6 258.2" clip-path="url(#a)"/>
<path d="m1086.2 429.35 282.46 129.44" clip-path="url(#a)"/>
<path d="m858.21 687.55v127" clip-path="url(#a)"/>
<path d="m924.25 687.55v127" clip-path="url(#a)"/>
<path d="m1065.1 558.78-72.2 128.76" clip-path="url(#a)"/>
<path d="m1065.1 558.78 73.081 128.76" clip-path="url(#a)"/>
<path d="m1065.1 558.78-0.88049 128.76" clip-path="url(#a)"/>
<path d="m1214.8 687.55v127" clip-path="url(#a)"/>
<path d="m1368.7 558.78-153.87 128.76" clip-path="url(#a)" stroke-dasharray="3.7,1.6"/>
<path d="m1368.7 558.78-74.621 128.76" clip-path="url(#a)"/>
<path d="m1368.7 558.78 49.528 128.76" clip-path="url(#a)"/>
<path d="m1368.7 558.78 178.96 128.76" clip-path="url(#a)"/>
<path d="m1294.1 687.55v127" clip-path="url(#a)"/>
<path d="m1418.2 687.55-42.263 127" clip-path="url(#a)"/>
<path d="m1418.2 687.55 42.263 127" clip-path="url(#a)"/>
<path d="m992.93 687.55v127" clip-path="url(#a)"/>
<path d="m1138.2 687.55v127" clip-path="url(#a)"/>
<path d="m620.48 687.55v127" clip-path="url(#a)"/>
<path d="m675.95 687.55v127" clip-path="url(#a)"/>
<path d="m794.82 687.55v127" clip-path="url(#a)"/>
<path d="m86.904 429.35-13.207 258.2" clip-path="url(#a)"/>
<path d="m86.904 429.35 13.207 129.44" clip-path="url(#a)"/>
<path d="m139.73 687.55v127" clip-path="url(#a)"/>
<path d="m211.71 429.35-38.962 129.44" clip-path="url(#a)"/>
<path d="m211.71 429.35 38.962 129.44" clip-path="url(#a)"/>
<path d="m172.75 558.78-11.887 128.76" clip-path="url(#a)"/>
<path d="m172.75 558.78 11.887 128.76" clip-path="url(#a)"/>
<path d="m250.68 558.78-39.622 128.76" clip-path="url(#a)"/>
<path d="m250.68 558.78 39.622 128.76" clip-path="url(#a)"/>
<path d="m211.05 687.55v127" clip-path="url(#a)"/>
<path d="m290.3 687.55-50.188 127" clip-path="url(#a)"/>
<path d="m290.3 687.55-18.49 127" clip-path="url(#a)"/>
<path d="m290.3 687.55 15.849 127" clip-path="url(#a)"/>
<path d="m290.3 687.55 52.829 127" clip-path="url(#a)"/>
<path d="m160.87 687.55v127" clip-path="url(#a)"/>
<path d="m184.64 687.55v127" clip-path="url(#a)"/>
<path d="m73.697 687.55v127" clip-path="url(#a)"/>
<path d="m100.11 558.78-18.49 255.76" clip-path="url(#a)"/>
<path d="m100.11 558.78-7.9244 255.76" clip-path="url(#a)"/>
<path d="m100.11 558.78 21.132 255.76" clip-path="url(#a)"/>
<path d="m100.11 558.78 5.2829 128.76" clip-path="url(#a)"/>
<path d="m105.39 687.55v127" clip-path="url(#a)"/>
<path d="m734.06 687.55v127" clip-path="url(#a)"/>
<path d="m1064.2 687.55v127" clip-path="url(#a)"/>
<path d="m1547.6 687.55v127" clip-path="url(#a)"/>
</g>
<path d="m233.65 175.05 3.2561-5.0589q1.2989-2.0181-0.71917-3.317l-6.5105-4.1904q-2.0181-1.2989-3.317 0.71917l-3.2561 5.0589q-1.2989 2.0181 0.71917 3.317l6.5105 4.1904q2.0181 1.2989 3.317-0.71917z" clip-path="url(#a)" fill="#fff" stroke="#fff"/>
<g clip-path="url(#a)">
<defs>
<path id="ai" d="m9.8125 72.906h9.8594v-29.891h35.844v29.891h9.8594v-72.906h-9.8594v34.719h-35.844v-34.719h-9.8594z"/>
</defs>
<g transform="translate(230.24 172.85) rotate(-57.233) scale(.08 -.08)">
<use xlink:href="#ai"/>
</g>
</g>
<path d="m341.85 361.61 0.4704 4.4326q0.25327 2.3866 2.6399 2.1333l7.6993-0.81706q2.3866-0.25327 2.1333-2.6399l-0.4704-4.4326q-0.25327-2.3866-2.6399-2.1333l-7.6993 0.81706q-2.3866 0.25327-2.1333 2.6399z" clip-path="url(#a)" fill="#fff" stroke="#fff"/>
<g clip-path="url(#a)">
<defs>
<path id="ar" d="m9.8125 72.906h9.8594v-64.609h35.5v-8.2969h-45.359z"/>
</defs>
<g transform="translate(345.89 361.18) rotate(83.942) scale(.08 -.08)">
<use xlink:href="#ar"/>
</g>
</g>
<path d="m356.55 105.42 3.6352 4.7938q1.4501 1.9124 3.3625 0.46221l6.1693-4.6782q1.9124-1.4501 0.46221-3.3625l-3.6352-4.7938q-1.4501-1.9124-3.3625-0.46221l-6.1693 4.6782q-1.9124 1.4501-0.46221 3.3625z" clip-path="url(#a)" fill="#fff" stroke="#fff"/>
<g clip-path="url(#a)">
<g transform="translate(359.79 102.96) rotate(52.827) scale(.08 -.08)">
<use xlink:href="#ai"/>
</g>
</g>
<path d="m121.08 369.5 2.2702-4.9794q0.99559-2.1838-1.1882-3.1793l-7.0449-3.2118q-2.1838-0.99559-3.1793 1.1882l-2.2702 4.9794q-0.99559 2.1838 1.1882 3.1793l7.0449 3.2118q2.1838 0.99559 3.1793-1.1882z" clip-path="url(#a)" fill="#fff" stroke="#fff"/>
<g clip-path="url(#a)">
<defs>
<path id="n" d="m34.188 63.188-13.391-36.281h26.812zm-5.5781 9.7188h11.188l27.781-72.906h-10.25l-6.6406 18.703h-32.859l-6.6406-18.703h-10.406z"/>
</defs>
<g transform="translate(117.38 367.81) rotate(-65.491) scale(.08 -.08)">
<use xlink:href="#n"/>
</g>
</g>
<path d="m149.16 496.02 0.079335-4.8231q0.039472-2.3997-2.3602-2.4391l-7.7415-0.12734q-2.3997-0.039472-2.4391 2.3602l-0.079335 4.8231q-0.039472 2.3997 2.3602 2.4391l7.7415 0.12734q2.3997 0.039473 2.4391-2.3602z" clip-path="url(#a)" fill="#fff" stroke="#fff"/>
<g clip-path="url(#a)">
<defs>
<path id="r" d="m19.672 64.797v-27.391h12.406q6.8906 0 10.641 3.5625 3.7656 3.5625 3.7656 10.156 0 6.5469-3.7656 10.109-3.75 3.5625-10.641 3.5625zm-9.8594 8.1094h22.266q12.266 0 18.531-5.5469 6.2812-5.5469 6.2812-16.234 0-10.797-6.2812-16.312-6.2656-5.5156-18.531-5.5156h-12.406v-29.297h-9.8594z"/>
</defs>
<g transform="translate(145.09 495.96) rotate(-89.058) scale(.08 -.08)">
<use xlink:href="#r"/>
</g>
</g>
<path d="m172.08 364.79 2.4671 4.8848q1.082 2.1423 3.2242 1.0603l6.9111-3.4905q2.1423-1.082 1.0603-3.2242l-2.4671-4.8848q-1.082-2.1423-3.2242-1.0603l-6.9111 3.4905q-2.1423 1.082-1.0603 3.2242z" clip-path="url(#a)" fill="#fff" stroke="#fff"/>
<g clip-path="url(#a)">
<g transform="translate(175.71 362.96) rotate(63.204) scale(.08 -.08)">
<use xlink:href="#n"/>
</g>
</g>
<path d="m376.48 734.14v33.808q0 2.4 2.4 2.4h7.7425q2.4 0 2.4-2.4v-33.808q0-2.4-2.4-2.4h-7.7425q-2.4 0-2.4 2.4z" clip-path="url(#a)" fill="#fff" stroke="#fff"/>
<g clip-path="url(#a)">
<defs>
<path id="l" d="m-0.29688 72.906h61.672v-8.3125h-25.875v-64.594h-9.9062v64.594h-25.891z"/>
<path id="f" d="m56.203 29.594v-4.3906h-41.312q0.59375-9.2812 5.5938-14.141t13.938-4.8594q5.1719 0 10.031 1.2656t9.6562 3.8125v-8.5q-4.8438-2.0469-9.9219-3.125t-10.297-1.0781q-13.094 0-20.734 7.6094-7.6406 7.625-7.6406 20.625 0 13.422 7.25 21.297 7.25 7.8906 19.562 7.8906 11.031 0 17.453-7.1094 6.4219-7.0938 6.4219-19.297zm-8.9844 2.6406q-0.09375 7.3594-4.125 11.75-4.0312 4.4062-10.672 4.4062-7.5156 0-12.031-4.25t-5.2031-11.969z"/>
<path id="i" d="m41.109 46.297q-1.5156 0.875-3.2969 1.2812-1.7812 0.42188-3.9219 0.42188-7.625 0-11.703-4.9531t-4.0781-14.234v-28.812h-9.0312v54.688h9.0312v-8.5q2.8438 4.9844 7.375 7.3906 4.5469 2.4219 11.047 2.4219 0.92188 0 2.0469-0.125 1.125-0.10938 2.4844-0.35938z"/>
<path id="k" d="m52 44.188q3.375 6.0625 8.0625 8.9375t11.031 2.875q8.5469 0 13.188-5.9844 4.6406-5.9688 4.6406-17v-33.016h-9.0312v32.719q0 7.8594-2.7969 11.656-2.7812 3.8125-8.4844 3.8125-6.9844 0-11.047-4.6406-4.0469-4.625-4.0469-12.641v-30.906h-9.0312v32.719q0 7.9062-2.7812 11.688t-8.5938 3.7812q-6.8906 0-10.953-4.6562-4.0469-4.6562-4.0469-12.625v-30.906h-9.0312v54.688h9.0312v-8.5q3.0781 5.0312 7.375 7.4219t10.203 2.3906q5.9688 0 10.141-3.0312 4.1719-3.0156 6.1719-8.7812z"/>
<path id="e" d="m9.4219 54.688h8.9844v-54.688h-8.9844zm0 21.297h8.9844v-11.391h-8.9844z"/>
<path id="d" d="m54.891 33.016v-33.016h-8.9844v32.719q0 7.7656-3.0312 11.609-3.0312 3.8594-9.0781 3.8594-7.2812 0-11.484-4.6406-4.2031-4.625-4.2031-12.641v-30.906h-9.0312v54.688h9.0312v-8.5q3.2344 4.9375 7.5938 7.375 4.375 2.4375 10.094 2.4375 9.4219 0 14.25-5.8281 4.8438-5.8281 4.8438-17.156z"/>
<path id="g" d="m34.281 27.484q-10.891 0-15.094-2.4844t-4.2031-8.5q0-4.7812 3.1562-7.5938 3.1562-2.7969 8.5625-2.7969 7.4844 0 12 5.2969t4.5156 14.078v2zm17.922 3.7188v-31.203h-8.9844v8.2969q-3.0781-4.9688-7.6719-7.3438t-11.234-2.375q-8.3906 0-13.359 4.7188-4.9531 4.7188-4.9531 12.625 0 9.2188 6.1719 13.906 6.1875 4.6875 18.438 4.6875h12.609v0.89062q0 6.2031-4.0781 9.5938t-11.453 3.3906q-4.6875 0-9.1406-1.125-4.4375-1.125-8.5312-3.375v8.3125q4.9219 1.9062 9.5625 2.8438 4.6406 0.95312 9.0312 0.95312 11.875 0 17.734-6.1562 5.8594-6.1406 5.8594-18.641z"/>
<path id="j" d="m9.4219 75.984h8.9844v-75.984h-8.9844z"/>
</defs>
<g transform="translate(380.54 734.14) rotate(90) scale(.08 -.08)">
<use xlink:href="#l"/>
<use x="44.083984" xlink:href="#f"/>
<use x="105.607422" xlink:href="#i"/>
<use x="144.970703" xlink:href="#k"/>
<use x="242.382812" xlink:href="#e"/>
<use x="270.166016" xlink:href="#d"/>
<use x="333.544922" xlink:href="#g"/>
<use x="394.824219" xlink:href="#j"/>
</g>
</g>
<path d="m412.6 426.14 0.11328 4.8224q0.056362 2.3993 2.4557 2.343l7.7404-0.18183q2.3993-0.056362 2.343-2.4557l-0.11328-4.8224q-0.056362-2.3993-2.4557-2.343l-7.7404 0.18183q-2.3993 0.056362-2.343 2.4557z" clip-path="url(#a)" fill="#fff" stroke="#fff"/>
<g clip-path="url(#a)">
<g transform="translate(416.66 426.04) rotate(88.654) scale(.08 -.08)">
<use xlink:href="#r"/>
</g>
</g>
<path d="m434.84 426.37 0.59907 5.4396q0.26273 2.3856 2.6483 2.1228l7.696-0.84757q2.3856-0.26273 2.1228-2.6483l-0.59907-5.4396q-0.26273-2.3856-2.6483-2.1228l-7.696 0.84757q-2.3856 0.26273-2.1228 2.6483z" clip-path="url(#a)" fill="#fff" stroke="#fff"/>
<g clip-path="url(#a)">
<g transform="translate(438.88 425.93) rotate(83.715) scale(.08 -.08)">
<use xlink:href="#n"/>
</g>
</g>
<path d="m535.9 238.72 4.8805 2.4758q2.1404 1.0858 3.2261-1.0546l3.5027-6.9049q1.0858-2.1404-1.0546-3.2261l-4.8805-2.4758q-2.1404-1.0858-3.2261 1.0546l-3.5027 6.9049q-1.0858 2.1404 1.0546 3.2261z" clip-path="url(#a)" fill="#fff" stroke="#fff"/>
<g clip-path="url(#a)">
<g transform="translate(537.74 235.09) rotate(26.898) scale(.08 -.08)">
<use xlink:href="#n"/>
</g>
</g>
<path d="m251.64 305.91 4.2775-3.4134q1.8759-1.497 0.37898-3.3729l-4.8292-6.0518q-1.497-1.8759-3.3729-0.37898l-4.2775 3.4134q-1.8759 1.497-0.37898 3.3729l4.8292 6.0518q1.497 1.8759 3.3729 0.37898z" clip-path="url(#a)" fill="#fff" stroke="#fff"/>
<g clip-path="url(#a)">
<g transform="translate(249.11 302.73) rotate(-38.589) scale(.08 -.08)">
<use xlink:href="#n"/>
</g>
</g>
<path d="m418.74 734.14v33.808q0 2.4 2.4 2.4h7.7425q2.4 0 2.4-2.4v-33.808q0-2.4-2.4-2.4h-7.7425q-2.4 0-2.4 2.4z" clip-path="url(#a)" fill="#fff" stroke="#fff"/>
<g clip-path="url(#a)">
<g transform="translate(422.8 734.14) rotate(90) scale(.08 -.08)">
<use xlink:href="#l"/>
<use x="44.083984" xlink:href="#f"/>
<use x="105.607422" xlink:href="#i"/>
<use x="144.970703" xlink:href="#k"/>
<use x="242.382812" xlink:href="#e"/>
<use x="270.166016" xlink:href="#d"/>
<use x="333.544922" xlink:href="#g"/>
<use x="394.824219" xlink:href="#j"/>
</g>
</g>
<path d="m463.65 734.14v33.808q0 2.4 2.4 2.4h7.7425q2.4 0 2.4-2.4v-33.808q0-2.4-2.4-2.4h-7.7425q-2.4 0-2.4 2.4z" clip-path="url(#a)" fill="#fff" stroke="#fff"/>
<g clip-path="url(#a)">
<g transform="translate(467.71 734.14) rotate(90) scale(.08 -.08)">
<use xlink:href="#l"/>
<use x="44.083984" xlink:href="#f"/>
<use x="105.607422" xlink:href="#i"/>
<use x="144.970703" xlink:href="#k"/>
<use x="242.382812" xlink:href="#e"/>
<use x="270.166016" xlink:href="#d"/>
<use x="333.544922" xlink:href="#g"/>
<use x="394.824219" xlink:href="#j"/>
</g>
</g>
<path d="m574.04 498.81 2.503-4.8666q1.0977-2.1343-1.0366-3.232l-6.8852-3.5412q-2.1343-1.0977-3.232 1.0366l-2.503 4.8666q-1.0977 2.1343 1.0366 3.232l6.8852 3.5412q2.1343 1.0977 3.232-1.0366z" clip-path="url(#a)" fill="#fff" stroke="#fff"/>
<g clip-path="url(#a)">
<g transform="translate(570.43 496.95) rotate(-62.782) scale(.08 -.08)">
<use xlink:href="#n"/>
</g>
</g>
<path d="m598.31 498.38 2.0278-5.1757q0.87552-2.2346-1.3591-3.1101l-7.2089-2.8245q-2.2346-0.87552-3.1101 1.3591l-2.0278 5.1757q-0.87552 2.2346 1.3591 3.1101l7.2089 2.8245q2.2346 0.87552 3.1101-1.3591z" clip-path="url(#a)" fill="#fff" stroke="#fff"/>
<g clip-path="url(#a)">
<defs>
<path id="ag" d="m44.391 34.188q3.1719-1.0781 6.1719-4.5938t6.0312-9.6719l10.016-19.922h-10.609l-9.3125 18.703q-3.625 7.3281-7.0156 9.7188t-9.25 2.3906h-10.75v-30.812h-9.8594v72.906h22.266q12.5 0 18.656-5.2344 6.1562-5.2188 6.1562-15.766 0-6.8906-3.2031-11.438-3.2031-4.5312-9.2969-6.2812zm-24.719 30.609v-25.875h12.406q7.125 0 10.766 3.2969t3.6406 9.6875-3.6406 9.6406-10.766 3.25z"/>
</defs>
<g transform="translate(594.53 496.9) rotate(-68.605) scale(.08 -.08)">
<use xlink:href="#ag"/>
</g>
</g>
<path d="m624.04 497.43 1.2247-4.6657q0.60931-2.3214-1.7121-2.9307l-7.4888-1.9657q-2.3214-0.60931-2.9307 1.7121l-1.2247 4.6657q-0.60931 2.3214 1.7121 2.9307l7.4888 1.9657q2.3214 0.60931 2.9307-1.7121z" clip-path="url(#a)" fill="#fff" stroke="#fff"/>
<g clip-path="url(#a)">
<g transform="translate(620.11 496.4) rotate(-75.293) scale(.08 -.08)">
<use xlink:href="#r"/>
</g>
</g>
<path d="m681.33 427.3 0.76917 5.4182q0.33733 2.3762 2.7135 2.0388l7.6656-1.0882q2.3762-0.33733 2.0388-2.7135l-0.76917-5.4182q-0.33733-2.3762-2.7135-2.0388l-7.6656 1.0882q-2.3762 0.33733-2.0388 2.7135z" clip-path="url(#a)" fill="#fff" stroke="#fff"/>
<g clip-path="url(#a)">
<g transform="translate(685.35 426.73) rotate(81.92) scale(.08 -.08)">
<use xlink:href="#n"/>
</g>
</g>
<path d="m873.39 369.58 5.2246 1.6284q2.2913 0.71416 3.0054-1.5771l2.3039-7.3918q0.71416-2.2913-1.5771-3.0054l-5.2246-1.6284q-2.2913-0.71416-3.0054 1.5771l-2.3039 7.3918q-0.71416 2.2913 1.5771 3.0054z" clip-path="url(#a)" fill="#fff" stroke="#fff"/>
<g clip-path="url(#a)">
<g transform="translate(874.6 365.7) rotate(17.312) scale(.08 -.08)">
<use xlink:href="#n"/>
</g>
</g>
<path d="m511.19 734.14v33.808q0 2.4 2.4 2.4h7.7425q2.4 0 2.4-2.4v-33.808q0-2.4-2.4-2.4h-7.7425q-2.4 0-2.4 2.4z" clip-path="url(#a)" fill="#fff" stroke="#fff"/>
<g clip-path="url(#a)">
<g transform="translate(515.26 734.14) rotate(90) scale(.08 -.08)">
<use xlink:href="#l"/>
<use x="44.083984" xlink:href="#f"/>
<use x="105.607422" xlink:href="#i"/>
<use x="144.970703" xlink:href="#k"/>
<use x="242.382812" xlink:href="#e"/>
<use x="270.166016" xlink:href="#d"/>
<use x="333.544922" xlink:href="#g"/>
<use x="394.824219" xlink:href="#j"/>
</g>
</g>
<path d="m561.38 734.14v33.808q0 2.4 2.4 2.4h7.7425q2.4 0 2.4-2.4v-33.808q0-2.4-2.4-2.4h-7.7425q-2.4 0-2.4 2.4z" clip-path="url(#a)" fill="#fff" stroke="#fff"/>
<g clip-path="url(#a)">
<g transform="translate(565.44 734.14) rotate(90) scale(.08 -.08)">
<use xlink:href="#l"/>
<use x="44.083984" xlink:href="#f"/>
<use x="105.607422" xlink:href="#i"/>
<use x="144.970703" xlink:href="#k"/>
<use x="242.382812" xlink:href="#e"/>
<use x="270.166016" xlink:href="#d"/>
<use x="333.544922" xlink:href="#g"/>
<use x="394.824219" xlink:href="#j"/>
</g>
</g>
<path d="m667.22 628.75 2.8041-4.2059q1.3313-1.9969-0.66555-3.3282l-6.442-4.295q-1.9969-1.3313-3.3282 0.66554l-2.8041 4.2059q-1.3313 1.9969 0.66554 3.3282l6.442 4.295q1.9969 1.3313 3.3282-0.66554z" clip-path="url(#a)" fill="#fff" stroke="#fff"/>
<g clip-path="url(#a)">
<defs>
<path id="t" d="m9.8125 72.906h46.094v-8.3125h-36.234v-21.578h34.719v-8.2969h-34.719v-26.422h37.109v-8.2969h-46.969z"/>
</defs>
<g transform="translate(663.84 626.49) rotate(-56.308) scale(.08 -.08)">
<use xlink:href="#t"/>
</g>
</g>
<path d="m696.66 627.07 1.1607-4.9199q0.55106-2.3359-1.7848-2.8869l-7.5356-1.7777q-2.3359-0.55106-2.8869 1.7848l-1.1607 4.9199q-0.55106 2.3359 1.7848 2.8869l7.5356 1.7777q2.3359 0.55106 2.8869-1.7848z" clip-path="url(#a)" fill="#fff" stroke="#fff"/>
<g clip-path="url(#a)">
<g transform="translate(692.71 626.13) rotate(-76.726) scale(.08 -.08)">
<use xlink:href="#t"/>
</g>
</g>
<path d="m743.82 624.42 3.1639 4.6039q1.3593 1.978 3.3373 0.61866l6.381-4.3851q1.978-1.3593 0.61866-3.3373l-3.1639-4.6039q-1.3593-1.978-3.3373-0.61866l-6.381 4.3851q-1.978 1.3593-0.61866 3.3373z" clip-path="url(#a)" fill="#fff" stroke="#fff"/>
<g clip-path="url(#a)">
<defs>
<path id="x" d="m64.406 67.281v-10.391q-4.9844 4.6406-10.625 6.9219-5.6406 2.2969-11.984 2.2969-12.5 0-19.141-7.6406t-6.6406-22.094q0-14.406 6.6406-22.047t19.141-7.6406q6.3438 0 11.984 2.2969t10.625 6.9375v-10.312q-5.1719-3.5156-10.969-5.2812-5.7812-1.75-12.219-1.75-16.562 0-26.094 10.125-9.5156 10.141-9.5156 27.672 0 17.578 9.5156 27.703 9.5312 10.141 26.094 10.141 6.5312 0 12.312-1.7344 5.7969-1.7344 10.875-5.2031z"/>
</defs>
<g transform="translate(747.17 622.12) rotate(55.502) scale(.08 -.08)">
<use xlink:href="#x"/>
</g>
</g>
<path d="m713.45 621.63 1.2329 5.7237q0.50536 2.3462 2.8516 1.8408l7.5689-1.6303q2.3462-0.50536 1.8408-2.8516l-1.2329-5.7237q-0.50536-2.3462-2.8516-1.8408l-7.5689 1.6303q-2.3462 0.50536-1.8408 2.8516z" clip-path="url(#a)" fill="#fff" stroke="#fff"/>
<g clip-path="url(#a)">
<defs>
<path id="aa" d="m8.6875 72.906h9.9219v-44.297q0-11.719 4.2344-16.875 4.25-5.1406 13.781-5.1406 9.4688 0 13.719 5.1406 4.25 5.1562 4.25 16.875v44.297h9.9062v-45.516q0-14.25-7.0625-21.531-7.0469-7.2812-20.812-7.2812-13.828 0-20.891 7.2812-7.0469 7.2812-7.0469 21.531z"/>
</defs>
<g transform="translate(717.42 620.77) rotate(77.844) scale(.08 -.08)">
<use xlink:href="#aa"/>
</g>
</g>
<path d="m975.08 564.68 3.6794-4.1667q1.5886-1.799-0.21041-3.3876l-5.8036-5.1248q-1.799-1.5886-3.3876 0.21041l-3.6794 4.1667q-1.5886 1.799 0.21041 3.3876l5.8036 5.1248q1.799 1.5886 3.3876-0.21041z" clip-path="url(#a)" fill="#fff" stroke="#fff"/>
<g clip-path="url(#a)">
<g transform="translate(972.03 561.99) rotate(-48.554) scale(.08 -.08)">
<use xlink:href="#ag"/>
</g>
</g>
<path d="m1009.2 563.92 2.6862-4.2822q1.2753-2.0331-0.75777-3.3084l-6.5589-4.1143q-2.0331-1.2753-3.3084 0.75777l-2.6862 4.2822q-1.2753 2.0331 0.75777 3.3084l6.5589 4.1143q2.0331 1.2753 3.3084-0.75777z" clip-path="url(#a)" fill="#fff" stroke="#fff"/>
<g clip-path="url(#a)">
<g transform="translate(1005.8 561.76) rotate(-57.901) scale(.08 -.08)">
<use xlink:href="#t"/>
</g>
</g>
<path d="m1081.5 497.57 0.81283-4.9892q0.38591-2.3688-1.9829-2.7547l-7.6418-1.245q-2.3688-0.38591-2.7547 1.9829l-0.81283 4.9892q-0.38591 2.3688 1.9829 2.7547l7.6418 1.245q2.3688 0.38591 2.7547-1.9829z" clip-path="url(#a)" fill="#fff" stroke="#fff"/>
<g clip-path="url(#a)">
<g transform="translate(1077.4 496.91) rotate(-80.747) scale(.08 -.08)">
<use xlink:href="#t"/>
</g>
</g>
<path d="m1143.7 558.74 2.4904 5.0004q1.0699 2.1483 3.2183 1.0784l6.9305-3.4517q2.1483-1.0699 1.0784-3.2183l-2.4904-5.0004q-1.0699-2.1483-3.2182-1.0784l-6.9305 3.4517q-2.1483 1.0699-1.0784 3.2183z" clip-path="url(#a)" fill="#fff" stroke="#fff"/>
<g clip-path="url(#a)">
<g transform="translate(1147.3 556.93) rotate(63.525) scale(.08 -.08)">
<use xlink:href="#x"/>
</g>
</g>
<path d="m1222.5 498.71 4.5955 2.1059q2.1818 0.99983 3.1816-1.182l3.2255-7.0386q0.99983-2.1818-1.182-3.1816l-4.5955-2.1059q-2.1818-0.99983-3.1816 1.182l-3.2255 7.0386q-0.99983 2.1818 1.182 3.1816z" clip-path="url(#a)" fill="#fff" stroke="#fff"/>
<g clip-path="url(#a)">
<g transform="translate(1224.2 495.02) rotate(24.62) scale(.08 -.08)">
<use xlink:href="#t"/>
</g>
</g>
<path d="m851.94 734.14v33.808q0 2.4 2.4 2.4h7.7425q2.4 0 2.4-2.4v-33.808q0-2.4-2.4-2.4h-7.7425q-2.4 0-2.4 2.4z" clip-path="url(#a)" fill="#fff" stroke="#fff"/>
<g clip-path="url(#a)">
<g transform="translate(856.01 734.14) rotate(90) scale(.08 -.08)">
<use xlink:href="#l"/>
<use x="44.083984" xlink:href="#f"/>
<use x="105.607422" xlink:href="#i"/>
<use x="144.970703" xlink:href="#k"/>
<use x="242.382812" xlink:href="#e"/>
<use x="270.166016" xlink:href="#d"/>
<use x="333.544922" xlink:href="#g"/>
<use x="394.824219" xlink:href="#j"/>
</g>
</g>
<path d="m917.98 734.14v33.808q0 2.4 2.4 2.4h7.7425q2.4 0 2.4-2.4v-33.808q0-2.4-2.4-2.4h-7.7425q-2.4 0-2.4 2.4z" clip-path="url(#a)" fill="#fff" stroke="#fff"/>
<g clip-path="url(#a)">
<g transform="translate(922.04 734.14) rotate(90) scale(.08 -.08)">
<use xlink:href="#l"/>
<use x="44.083984" xlink:href="#f"/>
<use x="105.607422" xlink:href="#i"/>
<use x="144.970703" xlink:href="#k"/>
<use x="242.382812" xlink:href="#e"/>
<use x="270.166016" xlink:href="#d"/>
<use x="333.544922" xlink:href="#g"/>
<use x="394.824219" xlink:href="#j"/>
</g>
</g>
<path d="m1033.3 628.44 2.4723-4.4092q1.1738-2.0934-0.91958-3.2672l-6.7533-3.7867q-2.0934-1.1738-3.2672 0.91958l-2.4723 4.4092q-1.1738 2.0934 0.91958 3.2672l6.7533 3.7867q2.0934 1.1738 3.2672-0.91958z" clip-path="url(#a)" fill="#fff" stroke="#fff"/>
<g clip-path="url(#a)">
<g transform="translate(1029.7 626.45) rotate(-60.72) scale(.08 -.08)">
<use xlink:href="#t"/>
</g>
</g>
<path d="m1094.8 623.83 2.7574 4.8583q1.1846 2.0873 3.2719 0.90262l6.7336-3.8217q2.0873-1.1846 0.90262-3.2719l-2.7574-4.8583q-1.1846-2.0873-3.2719-0.90262l-6.7336 3.8217q-2.0873 1.1846-0.90262 3.2719z" clip-path="url(#a)" fill="#fff" stroke="#fff"/>
<g clip-path="url(#a)">
<g transform="translate(1098.4 621.83) rotate(60.423) scale(.08 -.08)">
<use xlink:href="#x"/>
</g>
</g>
<path d="m1070.9 626.14 0.040036-5.8549q0.016411-2.3999-2.3835-2.4164l-7.7423-0.052942q-2.3999-0.016411-2.4164 2.3835l-0.040036 5.8549q-0.016411 2.3999 2.3835 2.4164l7.7423 0.052942q2.3999 0.016411 2.4164-2.3835z" clip-path="url(#a)" fill="#fff" stroke="#fff"/>
<g clip-path="url(#a)">
<g transform="translate(1066.9 626.11) rotate(-89.608) scale(.08 -.08)">
<use xlink:href="#aa"/>
</g>
</g>
<path d="m1208.5 734.14v33.808q0 2.4 2.4 2.4h7.7425q2.4 0 2.4-2.4v-33.808q0-2.4-2.4-2.4h-7.7425q-2.4 0-2.4 2.4z" clip-path="url(#a)" fill="#fff" stroke="#fff"/>
<g clip-path="url(#a)">
<g transform="translate(1212.6 734.14) rotate(90) scale(.08 -.08)">
<use xlink:href="#l"/>
<use x="44.083984" xlink:href="#f"/>
<use x="105.607422" xlink:href="#i"/>
<use x="144.970703" xlink:href="#k"/>
<use x="242.382812" xlink:href="#e"/>
<use x="270.166016" xlink:href="#d"/>
<use x="333.544922" xlink:href="#g"/>
<use x="394.824219" xlink:href="#j"/>
</g>
</g>
<path d="m1293.7 629.73 4.1968-3.5121q1.8405-1.5403 0.30027-3.3808l-4.969-5.9376q-1.5403-1.8405-3.3808-0.30027l-4.1968 3.5121q-1.8405 1.5403-0.30027 3.3808l4.969 5.9376q1.5403 1.8405 3.3808 0.30027z" clip-path="url(#a)" fill="#fff" stroke="#fff"/>
<g clip-path="url(#a)">
<g transform="translate(1291.1 626.62) rotate(-39.925) scale(.08 -.08)">
<use xlink:href="#n"/>
</g>
</g>
<path d="m1335.6 628.4 2.4187-4.1736q1.2034-2.0765-0.87312-3.2799l-6.6989-3.8822q-2.0765-1.2034-3.2799 0.87312l-2.4187 4.1736q-1.2034 2.0765 0.87312 3.2799l6.6989 3.8822q2.0765 1.2034 3.2799-0.87312z" clip-path="url(#a)" fill="#fff" stroke="#fff"/>
<g clip-path="url(#a)">
<g transform="translate(1332.1 626.36) rotate(-59.907) scale(.08 -.08)">
<use xlink:href="#r"/>
</g>
</g>
<path d="m1386.6 622.86 1.9646 5.1077q0.8616 2.24 3.1016 1.3784l7.2264-2.7795q2.24-0.8616 1.3784-3.1016l-1.9646-5.1077q-0.8616-2.24-3.1016-1.3784l-7.2264 2.7795q-2.24 0.8616-1.3784 3.1016z" clip-path="url(#a)" fill="#fff" stroke="#fff"/>
<g clip-path="url(#a)">
<g transform="translate(1390.4 621.41) rotate(68.961) scale(.08 -.08)">
<use xlink:href="#n"/>
</g>
</g>
<path d="m1452.1 626.55 4.7526 3.4196q1.9481 1.4017 3.3498-0.54643l4.522-6.2848q1.4017-1.9481-0.54643-3.3498l-4.7526-3.4196q-1.9481-1.4017-3.3498 0.54643l-4.522 6.2848q-1.4017 1.9481 0.54643 3.3498z" clip-path="url(#a)" fill="#fff" stroke="#fff"/>
<g clip-path="url(#a)">
<g transform="translate(1454.5 623.25) rotate(35.735) scale(.08 -.08)">
<use xlink:href="#aa"/>
</g>
</g>
<path d="m1287.8 734.14v33.808q0 2.4 2.4 2.4h7.7425q2.4 0 2.4-2.4v-33.808q0-2.4-2.4-2.4h-7.7425q-2.4 0-2.4 2.4z" clip-path="url(#a)" fill="#fff" stroke="#fff"/>
<g clip-path="url(#a)">
<g transform="translate(1291.8 734.14) rotate(90) scale(.08 -.08)">
<use xlink:href="#l"/>
<use x="44.083984" xlink:href="#f"/>
<use x="105.607422" xlink:href="#i"/>
<use x="144.970703" xlink:href="#k"/>
<use x="242.382812" xlink:href="#e"/>
<use x="270.166016" xlink:href="#d"/>
<use x="333.544922" xlink:href="#g"/>
<use x="394.824219" xlink:href="#j"/>
</g>
</g>
<path d="m1397.7 769.07 10.675-32.078q0.75784-2.2772-1.5194-3.035l-7.3464-2.4448q-2.2772-0.75784-3.035 1.5194l-10.675 32.078q-0.75784 2.2772 1.5194 3.035l7.3464 2.4448q2.2772 0.75784 3.035-1.5194z" clip-path="url(#a)" fill="#fff" stroke="#fff"/>
<g clip-path="url(#a)">
<g transform="translate(1393.8 767.78) rotate(-71.593) scale(.08 -.08)">
<use xlink:href="#l"/>
<use x="44.083984" xlink:href="#f"/>
<use x="105.607422" xlink:href="#i"/>
<use x="144.970703" xlink:href="#k"/>
<use x="242.382812" xlink:href="#e"/>
<use x="270.166016" xlink:href="#d"/>
<use x="333.544922" xlink:href="#g"/>
<use x="394.824219" xlink:href="#j"/>
</g>
</g>
<path d="m1428 736.99 10.675 32.078q0.75784 2.2772 3.035 1.5194l7.3464-2.4448q2.2772-0.75784 1.5194-3.035l-10.675-32.078q-0.75784-2.2772-3.035-1.5194l-7.3464 2.4448q-2.2772 0.75784-1.5194 3.035z" clip-path="url(#a)" fill="#fff" stroke="#fff"/>
<g clip-path="url(#a)">
<g transform="translate(1431.9 735.71) rotate(71.593) scale(.08 -.08)">
<use xlink:href="#l"/>
<use x="44.083984" xlink:href="#f"/>
<use x="105.607422" xlink:href="#i"/>
<use x="144.970703" xlink:href="#k"/>
<use x="242.382812" xlink:href="#e"/>
<use x="270.166016" xlink:href="#d"/>
<use x="333.544922" xlink:href="#g"/>
<use x="394.824219" xlink:href="#j"/>
</g>
</g>
<path d="m986.66 734.14v33.808q0 2.4 2.4 2.4h7.7425q2.4 0 2.4-2.4v-33.808q0-2.4-2.4-2.4h-7.7425q-2.4 0-2.4 2.4z" clip-path="url(#a)" fill="#fff" stroke="#fff"/>
<g clip-path="url(#a)">
<g transform="translate(990.72 734.14) rotate(90) scale(.08 -.08)">
<use xlink:href="#l"/>
<use x="44.083984" xlink:href="#f"/>
<use x="105.607422" xlink:href="#i"/>
<use x="144.970703" xlink:href="#k"/>
<use x="242.382812" xlink:href="#e"/>
<use x="270.166016" xlink:href="#d"/>
<use x="333.544922" xlink:href="#g"/>
<use x="394.824219" xlink:href="#j"/>
</g>
</g>
<path d="m1131.9 734.14v33.808q0 2.4 2.4 2.4h7.7425q2.4 0 2.4-2.4v-33.808q0-2.4-2.4-2.4h-7.7425q-2.4 0-2.4 2.4z" clip-path="url(#a)" fill="#fff" stroke="#fff"/>
<g clip-path="url(#a)">
<g transform="translate(1136 734.14) rotate(90) scale(.08 -.08)">
<use xlink:href="#l"/>
<use x="44.083984" xlink:href="#f"/>
<use x="105.607422" xlink:href="#i"/>
<use x="144.970703" xlink:href="#k"/>
<use x="242.382812" xlink:href="#e"/>
<use x="270.166016" xlink:href="#d"/>
<use x="333.544922" xlink:href="#g"/>
<use x="394.824219" xlink:href="#j"/>
</g>
</g>
<path d="m614.21 734.14v33.808q0 2.4 2.4 2.4h7.7425q2.4 0 2.4-2.4v-33.808q0-2.4-2.4-2.4h-7.7425q-2.4 0-2.4 2.4z" clip-path="url(#a)" fill="#fff" stroke="#fff"/>
<g clip-path="url(#a)">
<g transform="translate(618.27 734.14) rotate(90) scale(.08 -.08)">
<use xlink:href="#l"/>
<use x="44.083984" xlink:href="#f"/>
<use x="105.607422" xlink:href="#i"/>
<use x="144.970703" xlink:href="#k"/>
<use x="242.382812" xlink:href="#e"/>
<use x="270.166016" xlink:href="#d"/>
<use x="333.544922" xlink:href="#g"/>
<use x="394.824219" xlink:href="#j"/>
</g>
</g>
<path d="m669.68 734.14v33.808q0 2.4 2.4 2.4h7.7425q2.4 0 2.4-2.4v-33.808q0-2.4-2.4-2.4h-7.7425q-2.4 0-2.4 2.4z" clip-path="url(#a)" fill="#fff" stroke="#fff"/>
<g clip-path="url(#a)">
<g transform="translate(673.74 734.14) rotate(90) scale(.08 -.08)">
<use xlink:href="#l"/>
<use x="44.083984" xlink:href="#f"/>
<use x="105.607422" xlink:href="#i"/>
<use x="144.970703" xlink:href="#k"/>
<use x="242.382812" xlink:href="#e"/>
<use x="270.166016" xlink:href="#d"/>
<use x="333.544922" xlink:href="#g"/>
<use x="394.824219" xlink:href="#j"/>
</g>
</g>
<path d="m788.55 734.14v33.808q0 2.4 2.4 2.4h7.7425q2.4 0 2.4-2.4v-33.808q0-2.4-2.4-2.4h-7.7425q-2.4 0-2.4 2.4z" clip-path="url(#a)" fill="#fff" stroke="#fff"/>
<g clip-path="url(#a)">
<g transform="translate(792.61 734.14) rotate(90) scale(.08 -.08)">
<use xlink:href="#l"/>
<use x="44.083984" xlink:href="#f"/>
<use x="105.607422" xlink:href="#i"/>
<use x="144.970703" xlink:href="#k"/>
<use x="242.382812" xlink:href="#e"/>
<use x="270.166016" xlink:href="#d"/>
<use x="333.544922" xlink:href="#g"/>
<use x="394.824219" xlink:href="#j"/>
</g>
</g>
<path d="m86.44 561.18 0.24642-4.8175q0.1226-2.3969-2.2743-2.5195l-7.7324-0.39552q-2.3969-0.1226-2.5195 2.2743l-0.24642 4.8175q-0.1226 2.3969 2.2743 2.5195l7.7324 0.39552q2.3969 0.1226 2.5195-2.2743z" clip-path="url(#a)" fill="#fff" stroke="#fff"/>
<g clip-path="url(#a)">
<g transform="translate(82.382 560.97) rotate(-87.072) scale(.08 -.08)">
<use xlink:href="#r"/>
</g>
</g>
<path d="m86.991 491.98 0.5555 5.4442q0.24362 2.3876 2.6312 2.144l7.7025-0.78593q2.3876-0.24362 2.144-2.6312l-0.5555-5.4442q-0.24362-2.3876-2.6312-2.144l-7.7025 0.78593q-2.3876 0.24362-2.144 2.6312z" clip-path="url(#a)" fill="#fff" stroke="#fff"/>
<g clip-path="url(#a)">
<g transform="translate(91.034 491.57) rotate(84.174) scale(.08 -.08)">
<use xlink:href="#n"/>
</g>
</g>
<path d="m133.46 734.14v33.808q0 2.4 2.4 2.4h7.7425q2.4 0 2.4-2.4v-33.808q0-2.4-2.4-2.4h-7.7425q-2.4 0-2.4 2.4z" clip-path="url(#a)" fill="#fff" stroke="#fff"/>
<g clip-path="url(#a)">
<g transform="translate(137.53 734.14) rotate(90) scale(.08 -.08)">
<use xlink:href="#l"/>
<use x="44.083984" xlink:href="#f"/>
<use x="105.607422" xlink:href="#i"/>
<use x="144.970703" xlink:href="#k"/>
<use x="242.382812" xlink:href="#e"/>
<use x="270.166016" xlink:href="#d"/>
<use x="333.544922" xlink:href="#g"/>
<use x="394.824219" xlink:href="#j"/>
</g>
</g>
<path d="m197.54 498.18 1.3903-4.619q0.69175-2.2981-1.6064-2.9899l-7.4139-2.2316q-2.2981-0.69175-2.9899 1.6064l-1.3903 4.619q-0.69175 2.2981 1.6064 2.9899l7.4139 2.2316q2.2981 0.69175 2.9899-1.6064z" clip-path="url(#a)" fill="#fff" stroke="#fff"/>
<g clip-path="url(#a)">
<g transform="translate(193.65 497.01) rotate(-73.248) scale(.08 -.08)">
<use xlink:href="#r"/>
</g>
</g>
<path d="m224.4 493.25 1.5773 5.2403q0.69175 2.2981 2.9899 1.6064l7.4139-2.2316q2.2981-0.69175 1.6064-2.9899l-1.5773-5.2403q-0.69175-2.2981-2.9899-1.6064l-7.4139 2.2316q-2.2981 0.69175-1.6064 2.9899z" clip-path="url(#a)" fill="#fff" stroke="#fff"/>
<g clip-path="url(#a)">
<g transform="translate(228.29 492.08) rotate(73.248) scale(.08 -.08)">
<use xlink:href="#n"/>
</g>
</g>
<path d="m172.82 626.26 0.46467-5.0336q0.22061-2.3898-2.1692-2.6105l-7.7097-0.71171q-2.3898-0.22061-2.6105 2.1692l-0.46467 5.0336q-0.22061 2.3898 2.1692 2.6105l7.7097 0.71171q2.3898 0.22062 2.6105-2.1692z" clip-path="url(#a)" fill="#fff" stroke="#fff"/>
<g clip-path="url(#a)">
<g transform="translate(168.77 625.89) rotate(-84.726) scale(.08 -.08)">
<use xlink:href="#t"/>
</g>
</g>
<path d="m172.19 620.96 0.5135 5.5626q0.22061 2.3898 2.6105 2.1692l7.7097-0.71171q2.3898-0.22061 2.1692-2.6105l-0.5135-5.5626q-0.22061-2.3898-2.6105-2.1692l-7.7097 0.71171q-2.3898 0.22061-2.1692 2.6105z" clip-path="url(#a)" fill="#fff" stroke="#fff"/>
<g clip-path="url(#a)">
<g transform="translate(176.24 620.59) rotate(84.726) scale(.08 -.08)">
<use xlink:href="#x"/>
</g>
</g>
<path d="m236.04 627.67 1.6348-5.3129q0.70585-2.2939-1.588-2.9997l-7.4001-2.2771q-2.2939-0.70585-2.9997 1.588l-1.6348 5.3129q-0.70585 2.2939 1.588 2.9997l7.4001 2.2771q2.2939 0.70585 2.9997-1.588z" clip-path="url(#a)" fill="#fff" stroke="#fff"/>
<g clip-path="url(#a)">
<g transform="translate(232.16 626.47) rotate(-72.896) scale(.08 -.08)">
<use xlink:href="#ag"/>
</g>
</g>
<path d="m263.67 622.34 1.6429 5.3392q0.70585 2.2939 2.9997 1.588l7.4001-2.2771q2.2939-0.70585 1.588-2.9997l-1.6429-5.3392q-0.70585-2.2939-2.9997-1.588l-7.4001 2.2771q-2.2939 0.70585-1.588 2.9997z" clip-path="url(#a)" fill="#fff" stroke="#fff"/>
<g clip-path="url(#a)">
<g transform="translate(267.56 621.15) rotate(72.896) scale(.08 -.08)">
<use xlink:href="#x"/>
</g>
</g>
<path d="m204.78 734.14v33.808q0 2.4 2.4 2.4h7.7425q2.4 0 2.4-2.4v-33.808q0-2.4-2.4-2.4h-7.7425q-2.4 0-2.4 2.4z" clip-path="url(#a)" fill="#fff" stroke="#fff"/>
<g clip-path="url(#a)">
<g transform="translate(208.85 734.14) rotate(90) scale(.08 -.08)">
<use xlink:href="#l"/>
<use x="44.083984" xlink:href="#f"/>
<use x="105.607422" xlink:href="#i"/>
<use x="144.970703" xlink:href="#k"/>
<use x="242.382812" xlink:href="#e"/>
<use x="270.166016" xlink:href="#d"/>
<use x="333.544922" xlink:href="#g"/>
<use x="394.824219" xlink:href="#j"/>
</g>
</g>
<path d="m264.82 769.07 12.425-31.441q0.88207-2.232-1.35-3.1141l-7.2006-2.8456q-2.232-0.88207-3.1141 1.35l-12.425 31.441q-0.88208 2.232 1.35 3.1141l7.2006 2.8456q2.232 0.88208 3.1141-1.35z" clip-path="url(#a)" fill="#fff" stroke="#fff"/>
<g clip-path="url(#a)">
<g transform="translate(261.04 767.58) rotate(-68.437) scale(.08 -.08)">
<use xlink:href="#l"/>
<use x="44.083984" xlink:href="#f"/>
<use x="105.607422" xlink:href="#i"/>
<use x="144.970703" xlink:href="#k"/>
<use x="242.382812" xlink:href="#e"/>
<use x="270.166016" xlink:href="#d"/>
<use x="333.544922" xlink:href="#g"/>
<use x="394.824219" xlink:href="#j"/>
</g>
</g>
<path d="m284.82 768.68 4.8709-33.455q0.34578-2.375-2.0292-2.7207l-7.6617-1.1155q-2.375-0.34578-2.7207 2.0292l-4.8709 33.455q-0.34578 2.375 2.0292 2.7207l7.6617 1.1155q2.375 0.34578 2.7207-2.0292z" clip-path="url(#a)" fill="#fff" stroke="#fff"/>
<g clip-path="url(#a)">
<g transform="translate(280.8 768.09) rotate(-81.716) scale(.08 -.08)">
<use xlink:href="#l"/>
<use x="44.083984" xlink:href="#f"/>
<use x="105.607422" xlink:href="#i"/>
<use x="144.970703" xlink:href="#k"/>
<use x="242.382812" xlink:href="#e"/>
<use x="270.166016" xlink:href="#d"/>
<use x="333.544922" xlink:href="#g"/>
<use x="394.824219" xlink:href="#j"/>
</g>
</g>
<path d="m289.91 735.05 4.1866 33.547q0.29721 2.3815 2.6787 2.0843l7.6829-0.9588q2.3815-0.29721 2.0843-2.6787l-4.1866-33.547q-0.29721-2.3815-2.6787-2.0843l-7.6829 0.9588q-2.3815 0.29721-2.0843 2.6787z" clip-path="url(#a)" fill="#fff" stroke="#fff"/>
<g clip-path="url(#a)">
<g transform="translate(293.94 734.55) rotate(82.886) scale(.08 -.08)">
<use xlink:href="#l"/>
<use x="44.083984" xlink:href="#f"/>
<use x="105.607422" xlink:href="#i"/>
<use x="144.970703" xlink:href="#k"/>
<use x="242.382812" xlink:href="#e"/>
<use x="270.166016" xlink:href="#d"/>
<use x="333.544922" xlink:href="#g"/>
<use x="394.824219" xlink:href="#j"/>
</g>
</g>
<path d="m304.43 737.85 12.985 31.214q0.9218 2.2159 3.1377 1.2941l7.1486-2.9738q2.2159-0.9218 1.2941-3.1377l-12.985-31.214q-0.9218-2.2159-3.1377-1.2941l-7.1486 2.9738q-2.2159 0.9218-1.2941 3.1377z" clip-path="url(#a)" fill="#fff" stroke="#fff"/>
<g clip-path="url(#a)">
<g transform="translate(308.18 736.29) rotate(67.413) scale(.08 -.08)">
<use xlink:href="#l"/>
<use x="44.083984" xlink:href="#f"/>
<use x="105.607422" xlink:href="#i"/>
<use x="144.970703" xlink:href="#k"/>
<use x="242.382812" xlink:href="#e"/>
<use x="270.166016" xlink:href="#d"/>
<use x="333.544922" xlink:href="#g"/>
<use x="394.824219" xlink:href="#j"/>
</g>
</g>
<path d="m154.59 734.14v33.808q0 2.4 2.4 2.4h7.7425q2.4 0 2.4-2.4v-33.808q0-2.4-2.4-2.4h-7.7425q-2.4 0-2.4 2.4z" clip-path="url(#a)" fill="#fff" stroke="#fff"/>
<g clip-path="url(#a)">
<g transform="translate(158.66 734.14) rotate(90) scale(.08 -.08)">
<use xlink:href="#l"/>
<use x="44.083984" xlink:href="#f"/>
<use x="105.607422" xlink:href="#i"/>
<use x="144.970703" xlink:href="#k"/>
<use x="242.382812" xlink:href="#e"/>
<use x="270.166016" xlink:href="#d"/>
<use x="333.544922" xlink:href="#g"/>
<use x="394.824219" xlink:href="#j"/>
</g>
</g>
<path d="m178.37 734.14v33.808q0 2.4 2.4 2.4h7.7425q2.4 0 2.4-2.4v-33.808q0-2.4-2.4-2.4h-7.7425q-2.4 0-2.4 2.4z" clip-path="url(#a)" fill="#fff" stroke="#fff"/>
<g clip-path="url(#a)">
<g transform="translate(182.43 734.14) rotate(90) scale(.08 -.08)">
<use xlink:href="#l"/>
<use x="44.083984" xlink:href="#f"/>
<use x="105.607422" xlink:href="#i"/>
<use x="144.970703" xlink:href="#k"/>
<use x="242.382812" xlink:href="#e"/>
<use x="270.166016" xlink:href="#d"/>
<use x="333.544922" xlink:href="#g"/>
<use x="394.824219" xlink:href="#j"/>
</g>
</g>
<path d="m67.426 734.14v33.808q0 2.4 2.4 2.4h7.7425q2.4 0 2.4-2.4v-33.808q0-2.4-2.4-2.4h-7.7425q-2.4 0-2.4 2.4z" clip-path="url(#a)" fill="#fff" stroke="#fff"/>
<g clip-path="url(#a)">
<g transform="translate(71.489 734.14) rotate(90) scale(.08 -.08)">
<use xlink:href="#l"/>
<use x="44.083984" xlink:href="#f"/>
<use x="105.607422" xlink:href="#i"/>
<use x="144.970703" xlink:href="#k"/>
<use x="242.382812" xlink:href="#e"/>
<use x="270.166016" xlink:href="#d"/>
<use x="333.544922" xlink:href="#g"/>
<use x="394.824219" xlink:href="#j"/>
</g>
</g>
<path d="m95.903 703.98 2.4378-33.719q0.17306-2.3938-2.2207-2.5668l-7.7223-0.55829q-2.3938-0.17306-2.5668 2.2207l-2.4378 33.719q-0.17306 2.3938 2.2207 2.5668l7.7223 0.55829q2.3938 0.17306 2.5668-2.2207z" clip-path="url(#a)" fill="#fff" stroke="#fff"/>
<g clip-path="url(#a)">
<g transform="translate(91.849 703.68) rotate(-85.865) scale(.08 -.08)">
<use xlink:href="#l"/>
<use x="44.083984" xlink:href="#f"/>
<use x="105.607422" xlink:href="#i"/>
<use x="144.970703" xlink:href="#k"/>
<use x="242.382812" xlink:href="#e"/>
<use x="270.166016" xlink:href="#d"/>
<use x="333.544922" xlink:href="#g"/>
<use x="394.824219" xlink:href="#j"/>
</g>
</g>
<path d="m101.89 703.76 1.047-33.791q0.074325-2.3988-2.3245-2.4732l-7.7388-0.23978q-2.3988-0.074325-2.4732 2.3245l-1.047 33.791q-0.074325 2.3988 2.3245 2.4732l7.7388 0.23978q2.3988 0.074325 2.4732-2.3245z" clip-path="url(#a)" fill="#fff" stroke="#fff"/>
<g clip-path="url(#a)">
<g transform="translate(97.832 703.63) rotate(-88.225) scale(.08 -.08)">
<use xlink:href="#l"/>
<use x="44.083984" xlink:href="#f"/>
<use x="105.607422" xlink:href="#i"/>
<use x="144.970703" xlink:href="#k"/>
<use x="242.382812" xlink:href="#e"/>
<use x="270.166016" xlink:href="#d"/>
<use x="333.544922" xlink:href="#g"/>
<use x="394.824219" xlink:href="#j"/>
</g>
</g>
<path d="m103.04 670.34 2.7838 33.693q0.19762 2.3918 2.5895 2.1942l7.7162-0.63754q2.3918-0.19762 2.1942-2.5895l-2.7838-33.693q-0.19762-2.3918-2.5895-2.1942l-7.7162 0.63754q-2.3918 0.19762-2.1942 2.5895z" clip-path="url(#a)" fill="#fff" stroke="#fff"/>
<g clip-path="url(#a)">
<g transform="translate(107.09 670) rotate(85.277) scale(.08 -.08)">
<use xlink:href="#l"/>
<use x="44.083984" xlink:href="#f"/>
<use x="105.607422" xlink:href="#i"/>
<use x="144.970703" xlink:href="#k"/>
<use x="242.382812" xlink:href="#e"/>
<use x="270.166016" xlink:href="#d"/>
<use x="333.544922" xlink:href="#g"/>
<use x="394.824219" xlink:href="#j"/>
</g>
</g>
<path d="m96.367 620.5 0.24002 5.8501q0.098385 2.398 2.4964 2.2996l7.736-0.31739q2.398-0.098385 2.2996-2.4964l-0.24002-5.8501q-0.098385-2.398-2.4964-2.2996l-7.736 0.31739q-2.398 0.098384-2.2996 2.4964z" clip-path="url(#a)" fill="#fff" stroke="#fff"/>
<g clip-path="url(#a)">
<g transform="translate(100.43 620.33) rotate(87.651) scale(.08 -.08)">
<use xlink:href="#aa"/>
</g>
</g>
<path d="m99.123 734.14v33.808q0 2.4 2.4 2.4h7.7425q2.4 0 2.4-2.4v-33.808q0-2.4-2.4-2.4h-7.7425q-2.4 0-2.4 2.4z" clip-path="url(#a)" fill="#fff" stroke="#fff"/>
<g clip-path="url(#a)">
<g transform="translate(103.19 734.14) rotate(90) scale(.08 -.08)">
<use xlink:href="#l"/>
<use x="44.083984" xlink:href="#f"/>
<use x="105.607422" xlink:href="#i"/>
<use x="144.970703" xlink:href="#k"/>
<use x="242.382812" xlink:href="#e"/>
<use x="270.166016" xlink:href="#d"/>
<use x="333.544922" xlink:href="#g"/>
<use x="394.824219" xlink:href="#j"/>
</g>
</g>
<path d="m727.79 734.14v33.808q0 2.4 2.4 2.4h7.7425q2.4 0 2.4-2.4v-33.808q0-2.4-2.4-2.4h-7.7425q-2.4 0-2.4 2.4z" clip-path="url(#a)" fill="#fff" stroke="#fff"/>
<g clip-path="url(#a)">
<g transform="translate(731.86 734.14) rotate(90) scale(.08 -.08)">
<use xlink:href="#l"/>
<use x="44.083984" xlink:href="#f"/>
<use x="105.607422" xlink:href="#i"/>
<use x="144.970703" xlink:href="#k"/>
<use x="242.382812" xlink:href="#e"/>
<use x="270.166016" xlink:href="#d"/>
<use x="333.544922" xlink:href="#g"/>
<use x="394.824219" xlink:href="#j"/>
</g>
</g>
<path d="m1058 734.14v33.808q0 2.4 2.4 2.4h7.7425q2.4 0 2.4-2.4v-33.808q0-2.4-2.4-2.4h-7.7425q-2.4 0-2.4 2.4z" clip-path="url(#a)" fill="#fff" stroke="#fff"/>
<g clip-path="url(#a)">
<g transform="translate(1062 734.14) rotate(90) scale(.08 -.08)">
<use xlink:href="#l"/>
<use x="44.083984" xlink:href="#f"/>
<use x="105.607422" xlink:href="#i"/>
<use x="144.970703" xlink:href="#k"/>
<use x="242.382812" xlink:href="#e"/>
<use x="270.166016" xlink:href="#d"/>
<use x="333.544922" xlink:href="#g"/>
<use x="394.824219" xlink:href="#j"/>
</g>
</g>
<path d="m1541.4 734.14v33.808q0 2.4 2.4 2.4h7.7425q2.4 0 2.4-2.4v-33.808q0-2.4-2.4-2.4h-7.7425q-2.4 0-2.4 2.4z" clip-path="url(#a)" fill="#fff" stroke="#fff"/>
<g clip-path="url(#a)">
<g transform="translate(1545.4 734.14) rotate(90) scale(.08 -.08)">
<use xlink:href="#l"/>
<use x="44.083984" xlink:href="#f"/>
<use x="105.607422" xlink:href="#i"/>
<use x="144.970703" xlink:href="#k"/>
<use x="242.382812" xlink:href="#e"/>
<use x="270.166016" xlink:href="#d"/>
<use x="333.544922" xlink:href="#g"/>
<use x="394.824219" xlink:href="#j"/>
</g>
</g>
<defs>
<path id="b" d="m0 8.6603c2.2967 0 4.4997-0.9125 6.1237-2.5365 1.624-1.624 2.5365-3.827 2.5365-6.1237s-0.9125-4.4997-2.5365-6.1237c-1.624-1.624-3.827-2.5365-6.1237-2.5365s-4.4997 0.9125-6.1237 2.5365c-1.624 1.624-2.5365 3.827-2.5365 6.1237s0.9125 4.4997 2.5365 6.1237c1.624 1.624 3.827 2.5365 6.1237 2.5365z"/>
</defs>
<g clip-path="url(#a)">
<use x="73.69697" y="814.545455" fill="#ffffff" stroke="#ffffff" xlink:href="#b"/>
</g>
<g clip-path="url(#a)">
<use x="81.621375" y="814.545455" fill="#ffffff" stroke="#ffffff" xlink:href="#b"/>
</g>
<g clip-path="url(#a)">
<use x="92.187249" y="814.545455" fill="#ffffff" stroke="#ffffff" xlink:href="#b"/>
</g>
<g clip-path="url(#a)">
<use x="105.394591" y="814.545455" fill="#ffffff" stroke="#ffffff" xlink:href="#b"/>
</g>
<g clip-path="url(#a)">
<use x="121.243402" y="814.545455" fill="#ffffff" stroke="#ffffff" xlink:href="#b"/>
</g>
<g clip-path="url(#a)">
<use x="139.733681" y="814.545455" fill="#ffffff" stroke="#ffffff" xlink:href="#b"/>
</g>
<g clip-path="url(#a)">
<use x="160.865428" y="814.545455" fill="#ffffff" stroke="#ffffff" xlink:href="#b"/>
</g>
<g clip-path="url(#a)">
<use x="184.638645" y="814.545455" fill="#ffffff" stroke="#ffffff" xlink:href="#b"/>
</g>
<g clip-path="url(#a)">
<use x="211.053329" y="814.545455" fill="#ffffff" stroke="#ffffff" xlink:href="#b"/>
</g>
<g clip-path="url(#a)">
<use x="240.109482" y="814.545455" fill="#ffffff" stroke="#ffffff" xlink:href="#b"/>
</g>
<g clip-path="url(#a)">
<use x="271.807103" y="814.545455" fill="#ffffff" stroke="#ffffff" xlink:href="#b"/>
</g>
<g clip-path="url(#a)">
<use x="306.146193" y="814.545455" fill="#ffffff" stroke="#ffffff" xlink:href="#b"/>
</g>
<g clip-path="url(#a)">
<use x="343.126751" y="814.545455" fill="#ffffff" stroke="#ffffff" xlink:href="#b"/>
</g>
<g clip-path="url(#a)">
<use x="382.748778" y="814.545455" fill="#ffffff" stroke="#ffffff" xlink:href="#b"/>
</g>
<g clip-path="url(#a)">
<use x="425.012273" y="814.545455" fill="#ffffff" stroke="#ffffff" xlink:href="#b"/>
</g>
<g clip-path="url(#a)">
<use x="469.917237" y="814.545455" fill="#ffffff" stroke="#ffffff" xlink:href="#b"/>
</g>
<g clip-path="url(#a)">
<use x="517.463669" y="814.545455" fill="#ffffff" stroke="#ffffff" xlink:href="#b"/>
</g>
<g clip-path="url(#a)">
<use x="567.651569" y="814.545455" fill="#ffffff" stroke="#ffffff" xlink:href="#b"/>
</g>
<g clip-path="url(#a)">
<use x="620.480938" y="814.545455" fill="#ffffff" stroke="#ffffff" xlink:href="#b"/>
</g>
<g clip-path="url(#a)">
<use x="675.951776" y="814.545455" fill="#ffffff" stroke="#ffffff" xlink:href="#b"/>
</g>
<g clip-path="url(#a)">
<use x="734.064082" y="814.545455" fill="#ffffff" stroke="#ffffff" xlink:href="#b"/>
</g>
<g clip-path="url(#a)">
<use x="794.817856" y="814.545455" fill="#ffffff" stroke="#ffffff" xlink:href="#b"/>
</g>
<g clip-path="url(#a)">
<use x="858.213099" y="814.545455" fill="#ffffff" stroke="#ffffff" xlink:href="#b"/>
</g>
<g clip-path="url(#a)">
<use x="924.24981" y="814.545455" fill="#ffffff" stroke="#ffffff" xlink:href="#b"/>
</g>
<g clip-path="url(#a)">
<use x="992.92799" y="814.545455" fill="#ffffff" stroke="#ffffff" xlink:href="#b"/>
</g>
<g clip-path="url(#a)">
<use x="1064.247638" y="814.545455" fill="#ffffff" stroke="#ffffff" xlink:href="#b"/>
</g>
<g clip-path="url(#a)">
<use x="1138.208754" y="814.545455" fill="#ffffff" stroke="#ffffff" xlink:href="#b"/>
</g>
<g clip-path="url(#a)">
<use x="1214.811339" y="814.545455" fill="#ffffff" stroke="#ffffff" xlink:href="#b"/>
</g>
<g clip-path="url(#a)">
<use x="1294.055393" y="814.545455" fill="#ffffff" stroke="#ffffff" xlink:href="#b"/>
</g>
<g clip-path="url(#a)">
<use x="1375.940915" y="814.545455" fill="#ffffff" stroke="#ffffff" xlink:href="#b"/>
</g>
<g clip-path="url(#a)">
<use x="1460.467905" y="814.545455" fill="#ffffff" stroke="#ffffff" xlink:href="#b"/>
</g>
<g clip-path="url(#a)">
<use x="1547.636364" y="814.545455" fill="#ffffff" stroke="#ffffff" xlink:href="#b"/>
</g>
<g clip-path="url(#a)">
<use x="313.901104" y="38.787879" fill="#ffffff" stroke="#ffffff" xlink:href="#b"/>
</g>
<g clip-path="url(#a)">
<use x="146.11723" y="299.466443" fill="#ffffff" stroke="#ffffff" xlink:href="#b"/>
</g>
<g clip-path="url(#a)">
<use x="382.748778" y="687.548513" fill="#ffffff" stroke="#ffffff" xlink:href="#b"/>
</g>
<g clip-path="url(#a)">
<use x="412.837305" y="169.258379" fill="#ffffff" stroke="#ffffff" xlink:href="#b"/>
</g>
<g clip-path="url(#a)">
<use x="425.012273" y="687.548513" fill="#ffffff" stroke="#ffffff" xlink:href="#b"/>
</g>
<g clip-path="url(#a)">
<use x="469.917237" y="687.548513" fill="#ffffff" stroke="#ffffff" xlink:href="#b"/>
</g>
<g clip-path="url(#a)">
<use x="669.515398" y="299.466443" fill="#ffffff" stroke="#ffffff" xlink:href="#b"/>
</g>
<g clip-path="url(#a)">
<use x="517.463669" y="687.548513" fill="#ffffff" stroke="#ffffff" xlink:href="#b"/>
</g>
<g clip-path="url(#a)">
<use x="567.651569" y="687.548513" fill="#ffffff" stroke="#ffffff" xlink:href="#b"/>
</g>
<g clip-path="url(#a)">
<use x="706.328663" y="558.784904" fill="#ffffff" stroke="#ffffff" xlink:href="#b"/>
</g>
<g clip-path="url(#a)">
<use x="1086.21585" y="429.345941" fill="#ffffff" stroke="#ffffff" xlink:href="#b"/>
</g>
<g clip-path="url(#a)">
<use x="858.213099" y="687.548513" fill="#ffffff" stroke="#ffffff" xlink:href="#b"/>
</g>
<g clip-path="url(#a)">
<use x="924.24981" y="687.548513" fill="#ffffff" stroke="#ffffff" xlink:href="#b"/>
</g>
<g clip-path="url(#a)">
<use x="1065.128127" y="558.784904" fill="#ffffff" stroke="#ffffff" xlink:href="#b"/>
</g>
<g clip-path="url(#a)">
<use x="1214.811339" y="687.548513" fill="#ffffff" stroke="#ffffff" xlink:href="#b"/>
</g>
<g clip-path="url(#a)">
<use x="1368.676876" y="558.784904" fill="#ffffff" stroke="#ffffff" xlink:href="#b"/>
</g>
<g clip-path="url(#a)">
<use x="1294.055393" y="687.548513" fill="#ffffff" stroke="#ffffff" xlink:href="#b"/>
</g>
<g clip-path="url(#a)">
<use x="1418.20441" y="687.548513" fill="#ffffff" stroke="#ffffff" xlink:href="#b"/>
</g>
<g clip-path="url(#a)">
<use x="992.92799" y="687.548513" fill="#ffffff" stroke="#ffffff" xlink:href="#b"/>
</g>
<g clip-path="url(#a)">
<use x="1138.208754" y="687.548513" fill="#ffffff" stroke="#ffffff" xlink:href="#b"/>
</g>
<g clip-path="url(#a)">
<use x="620.480938" y="687.548513" fill="#ffffff" stroke="#ffffff" xlink:href="#b"/>
</g>
<g clip-path="url(#a)">
<use x="675.951776" y="687.548513" fill="#ffffff" stroke="#ffffff" xlink:href="#b"/>
</g>
<g clip-path="url(#a)">
<use x="794.817856" y="687.548513" fill="#ffffff" stroke="#ffffff" xlink:href="#b"/>
</g>
<g clip-path="url(#a)">
<use x="86.904312" y="429.345941" fill="#ffffff" stroke="#ffffff" xlink:href="#b"/>
</g>
<g clip-path="url(#a)">
<use x="139.733681" y="687.548513" fill="#ffffff" stroke="#ffffff" xlink:href="#b"/>
</g>
<g clip-path="url(#a)">
<use x="211.713696" y="429.345941" fill="#ffffff" stroke="#ffffff" xlink:href="#b"/>
</g>
<g clip-path="url(#a)">
<use x="172.752036" y="558.784904" fill="#ffffff" stroke="#ffffff" xlink:href="#b"/>
</g>
<g clip-path="url(#a)">
<use x="250.675356" y="558.784904" fill="#ffffff" stroke="#ffffff" xlink:href="#b"/>
</g>
<g clip-path="url(#a)">
<use x="211.053329" y="687.548513" fill="#ffffff" stroke="#ffffff" xlink:href="#b"/>
</g>
<g clip-path="url(#a)">
<use x="290.297382" y="687.548513" fill="#ffffff" stroke="#ffffff" xlink:href="#b"/>
</g>
<g clip-path="url(#a)">
<use x="160.865428" y="687.548513" fill="#ffffff" stroke="#ffffff" xlink:href="#b"/>
</g>
<g clip-path="url(#a)">
<use x="184.638645" y="687.548513" fill="#ffffff" stroke="#ffffff" xlink:href="#b"/>
</g>
<g clip-path="url(#a)">
<use x="73.69697" y="687.548513" fill="#ffffff" stroke="#ffffff" xlink:href="#b"/>
</g>
<g clip-path="url(#a)">
<use x="100.111654" y="558.784904" fill="#ffffff" stroke="#ffffff" xlink:href="#b"/>
</g>
<g clip-path="url(#a)">
<use x="105.394591" y="687.548513" fill="#ffffff" stroke="#ffffff" xlink:href="#b"/>
</g>
<g clip-path="url(#a)">
<use x="734.064082" y="687.548513" fill="#ffffff" stroke="#ffffff" xlink:href="#b"/>
</g>
<g clip-path="url(#a)">
<use x="1064.247638" y="687.548513" fill="#ffffff" stroke="#ffffff" xlink:href="#b"/>
</g>
<g clip-path="url(#a)">
<use x="1547.636364" y="687.548513" fill="#ffffff" stroke="#ffffff" xlink:href="#b"/>
</g>
<g clip-path="url(#a)">
<defs>
<path id="o" d="m30.609 48.391q-7.2188 0-11.422-5.6406t-4.2031-15.453 4.1719-15.453q4.1875-5.6406 11.453-5.6406 7.1875 0 11.375 5.6562 4.2031 5.6719 4.2031 15.438 0 9.7188-4.2031 15.406-4.1875 5.6875-11.375 5.6875zm0 7.6094q11.719 0 18.406-7.625 6.7031-7.6094 6.7031-21.078 0-13.422-6.7031-21.078-6.6875-7.6406-18.406-7.6406-11.766 0-18.438 7.6406-6.6562 7.6562-6.6562 21.078 0 13.469 6.6562 21.078 6.6719 7.625 18.438 7.625z"/>
<path id="u" d="m45.406 46.391v29.594h8.9844v-75.984h-8.9844v8.2031q-2.8281-4.875-7.1562-7.25-4.3125-2.375-10.375-2.375-9.9062 0-16.141 7.9062-6.2188 7.9219-6.2188 20.812t6.2188 20.797q6.2344 7.9062 16.141 7.9062 6.0625 0 10.375-2.375 4.3281-2.3594 7.1562-7.2344zm-30.609-19.094q0-9.9062 4.0781-15.547t11.203-5.6406 11.219 5.6406q4.1094 5.6406 4.1094 15.547t-4.1094 15.547q-4.0938 5.6406-11.219 5.6406t-11.203-5.6406-4.0781-15.547z"/>
<path id="w" d="m8.5 21.578v33.109h8.9844v-32.766q0-7.7656 3.0156-11.656 3.0312-3.875 9.0938-3.875 7.2656 0 11.484 4.6406 4.2344 4.6406 4.2344 12.656v31h8.9844v-54.688h-8.9844v8.4062q-3.2656-4.9844-7.5938-7.4062-4.3125-2.4219-10.031-2.4219-9.4219 0-14.312 5.8594-4.875 5.8594-4.875 17.141z"/>
<path id="s" d="m48.781 52.594v-8.4062q-3.8125 2.1094-7.6406 3.1562t-7.7344 1.0469q-8.75 0-13.594-5.5469-4.8281-5.5312-4.8281-15.547t4.8281-15.562q4.8438-5.5312 13.594-5.5312 3.9062 0 7.7344 1.0469t7.6406 3.1562v-8.3125q-3.7656-1.75-7.7969-2.625-4.0156-0.89062-8.5625-0.89062-12.359 0-19.641 7.7656-7.2656 7.7656-7.2656 20.953 0 13.375 7.3438 21.031 7.3594 7.6719 20.156 7.6719 4.1406 0 8.0938-0.85938 3.9531-0.84375 7.6719-2.5469z"/>
</defs>
<g transform="translate(51.543 817.3) scale(.1 -.1)">
<use xlink:href="#r"/>
<use x="58.552734" xlink:href="#i"/>
<use x="97.416016" xlink:href="#o"/>
<use x="158.597656" xlink:href="#u"/>
<use x="222.074219" xlink:href="#w"/>
<use x="285.453125" xlink:href="#s"/>
<use x="340.433594" xlink:href="#f"/>
<use x="401.957031" xlink:href="#i"/>
</g>
</g>
<g clip-path="url(#a)">
<defs>
<path id="as" d="m9.8125 72.906h9.8594v-67.828q0-13.188-5-19.141t-16.094-5.9531h-3.75v8.2969h3.0781q6.5312 0 9.2188 3.6719 2.6875 3.6562 2.6875 13.125z"/>
<path id="z" d="m54.891 33.016v-33.016h-8.9844v32.719q0 7.7656-3.0312 11.609-3.0312 3.8594-9.0781 3.8594-7.2812 0-11.484-4.6406-4.2031-4.625-4.2031-12.641v-30.906h-9.0312v75.984h9.0312v-29.797q3.2344 4.9375 7.5938 7.375 4.375 2.4375 10.094 2.4375 9.4219 0 14.25-5.8281 4.8438-5.8281 4.8438-17.156z"/>
</defs>
<g transform="translate(70.75 817.3) scale(.1 -.1)">
<use xlink:href="#as"/>
<use x="29.492188" xlink:href="#o"/>
<use x="90.673828" xlink:href="#z"/>
<use x="154.052734" xlink:href="#d"/>
</g>
</g>
<g clip-path="url(#a)">
<g transform="translate(88.767 817.3) scale(.1 -.1)">
<use xlink:href="#n"/>
</g>
</g>
<g clip-path="url(#a)">
<defs>
<path id="h" d="m10.688 12.406h10.312v-12.406h-10.312z"/>
</defs>
<g transform="translate(103.81 817.3) scale(.1 -.1)">
<use xlink:href="#h"/>
</g>
</g>
<g clip-path="url(#a)">
<defs>
<path id="ah" d="m9.8125 72.906h14.703l18.594-49.609 18.703 49.609h14.703v-72.906h-9.625v64.016l-18.797-50h-9.9062l-18.797 50v-64.016h-9.5781z"/>
<path id="aq" d="m39.406 66.219q-10.75 0-17.078-8.0156-6.3125-8-6.3125-21.828 0-13.766 6.3125-21.781 6.3281-8 17.078-8 10.734 0 17.016 8 6.2812 8.0156 6.2812 21.781 0 13.828-6.2812 21.828-6.2812 8.0156-17.016 8.0156zm13.812-64.906 13-14.203h-11.922l-10.797 11.672q-1.6094-0.09375-2.4688-0.14062-0.84375-0.0625-1.625-0.0625-15.375 0-24.594 10.281-9.2031 10.281-9.2031 27.516 0 17.281 9.2031 27.562 9.2188 10.281 24.594 10.281 15.328 0 24.5-10.281 9.1875-10.281 9.1875-27.562 0-12.688-5.1094-21.734-5.0938-9.0312-14.766-13.328z"/>
<path id="af" d="m45.406 27.984q0 9.7656-4.0312 15.125-4.0156 5.375-11.297 5.375-7.2188 0-11.25-5.375-4.0312-5.3594-4.0312-15.125 0-9.7188 4.0312-15.094t11.25-5.375q7.2812 0 11.297 5.375 4.0312 5.375 4.0312 15.094zm8.9844-21.203q0-13.953-6.2031-20.766-6.1875-6.8125-18.984-6.8125-4.7344 0-8.9375 0.70312t-8.1562 2.1719v8.7344q3.9531-2.1406 7.8125-3.1562 3.8594-1.0312 7.8594-1.0312 8.8438 0 13.234 4.6094t4.3906 13.938v4.4531q-2.7812-4.8438-7.125-7.2344t-10.406-2.3906q-10.047 0-16.203 7.6562-6.1562 7.6719-6.1562 20.328 0 12.688 6.1562 20.344 6.1562 7.6719 16.203 7.6719 6.0625 0 10.406-2.3906t7.125-7.2188v8.2969h8.9844z"/>
</defs>
<g transform="translate(93.105 817.3) scale(.1 -.1)">
<use xlink:href="#ah"/>
<use x="86.279297" xlink:href="#s"/>
<use x="141.259766" xlink:href="#aq"/>
<use x="219.970703" xlink:href="#w"/>
<use x="283.349609" xlink:href="#e"/>
<use x="311.132812" xlink:href="#af"/>
<use x="374.609375" xlink:href="#af"/>
<use x="438.085938" xlink:href="#g"/>
<use x="499.365234" xlink:href="#d"/>
</g>
</g>
<g clip-path="url(#a)">
<defs>
<path id="y" d="m44.281 53.078v-8.5q-3.7969 1.9531-7.9062 2.9219-4.0938 0.98438-8.5 0.98438-6.6875 0-10.031-2.0469t-3.3438-6.1562q0-3.125 2.3906-4.9062t9.625-3.3906l3.0781-0.6875q9.5625-2.0469 13.594-5.7812t4.0312-10.422q0-7.625-6.0312-12.078-6.0312-4.4375-16.578-4.4375-4.3906 0-9.1562 0.85938t-10.031 2.5625v9.2812q4.9844-2.5938 9.8125-3.8906 4.8281-1.2812 9.5781-1.2812 6.3438 0 9.75 2.1719 3.4219 2.1719 3.4219 6.125 0 3.6562-2.4688 5.6094-2.4531 1.9531-10.812 3.7656l-3.125 0.73438q-8.3438 1.75-12.062 5.3906-3.7031 3.6406-3.7031 9.9844 0 7.7188 5.4688 11.906 5.4688 4.2031 15.531 4.2031 4.9688 0 9.3594-0.73438 4.4062-0.71875 8.1094-2.1875z"/>
<path id="au" d="m4.2031 54.688h8.9844l11.234-42.672 11.172 42.672h10.594l11.234-42.672 11.188 42.672h8.9844l-14.312-54.688h-10.594l-11.766 44.828-11.812-44.828h-10.609z"/>
</defs>
<g transform="translate(129.98 817.3) scale(.1 -.1)">
<use xlink:href="#y"/>
<use x="52.099609" xlink:href="#g"/>
<use x="113.378906" xlink:href="#au"/>
</g>
</g>
<g clip-path="url(#a)">
<defs>
<path id="q" d="m18.312 70.219v-15.531h18.5v-6.9844h-18.5v-29.688q0-6.6875 1.8281-8.5938t7.4531-1.9062h9.2188v-7.5156h-9.2188q-10.406 0-14.359 3.875-3.9531 3.8906-3.9531 14.141v29.688h-6.5938v6.9844h6.5938v15.531z"/>
</defs>
<g transform="translate(152.66 817.3) scale(.1 -.1)">
<use xlink:href="#q"/>
<use x="39.208984" xlink:href="#z"/>
<use x="102.587891" xlink:href="#f"/>
</g>
</g>
<g clip-path="url(#a)">
<defs>
<path id="am" d="m18.109 8.2031v-29h-9.0312v75.484h9.0312v-8.2969q2.8438 4.875 7.1562 7.2344 4.3281 2.375 10.328 2.375 9.9688 0 16.188-7.9062 6.2344-7.9062 6.2344-20.797t-6.2344-20.812q-6.2188-7.9062-16.188-7.9062-6 0-10.328 2.375-4.3125 2.375-7.1562 7.25zm30.578 19.094q0 9.9062-4.0781 15.547t-11.203 5.6406q-7.1406 0-11.219-5.6406t-4.0781-15.547 4.0781-15.547 11.219-5.6406q7.125 0 11.203 5.6406t4.0781 15.547z"/>
</defs>
<g transform="translate(157.79 817.3) scale(.1 -.1)">
<use xlink:href="#am"/>
<use x="63.476562" xlink:href="#i"/>
<use x="102.339844" xlink:href="#o"/>
<use x="163.521484" xlink:href="#u"/>
<use x="226.998047" xlink:href="#w"/>
<use x="290.376953" xlink:href="#s"/>
<use x="345.357422" xlink:href="#q"/>
<use x="384.566406" xlink:href="#e"/>
<use x="412.349609" xlink:href="#o"/>
<use x="473.53125" xlink:href="#d"/>
</g>
</g>
<g clip-path="url(#a)">
<defs>
<path id="ao" d="m37.109 75.984v-7.4844h-8.5938q-4.8281 0-6.7188-1.9531-1.875-1.9531-1.875-7.0312v-4.8281h14.797v-6.9844h-14.797v-47.703h-9.0312v47.703h-8.5938v6.9844h8.5938v3.8125q0 9.125 4.25 13.297 4.25 4.1875 13.469 4.1875z"/>
</defs>
<g transform="translate(206.23 817.3) scale(.1 -.1)">
<use xlink:href="#o"/>
<use x="61.181641" xlink:href="#ao"/>
</g>
</g>
<g clip-path="url(#a)">
<g transform="translate(222.37 817.3) scale(.1 -.1)">
<use xlink:href="#ai"/>
<use x="75.195312" xlink:href="#e"/>
<use x="102.978516" xlink:href="#u"/>
<use x="166.455078" xlink:href="#u"/>
<use x="229.931641" xlink:href="#f"/>
<use x="291.455078" xlink:href="#d"/>
</g>
</g>
<g clip-path="url(#a)">
<g transform="translate(267.25 817.3) scale(.1 -.1)">
<use xlink:href="#e"/>
<use x="27.783203" xlink:href="#d"/>
</g>
</g>
<g clip-path="url(#a)">
<g transform="translate(295.93 817.3) scale(.1 -.1)">
<use xlink:href="#l"/>
<use x="61.083984" xlink:href="#z"/>
<use x="124.462891" xlink:href="#e"/>
<use x="152.246094" xlink:href="#y"/>
</g>
</g>
<g clip-path="url(#a)">
<g transform="translate(325.94 817.3) scale(.1 -.1)">
<use xlink:href="#r"/>
<use x="58.052734" xlink:href="#e"/>
<use x="85.835938" xlink:href="#s"/>
<use x="140.816406" xlink:href="#q"/>
<use x="180.025391" xlink:href="#w"/>
<use x="243.404297" xlink:href="#i"/>
<use x="282.267578" xlink:href="#f"/>
</g>
</g>
<g clip-path="url(#a)">
<g transform="translate(373.34 817.3) scale(.1 -.1)">
<use xlink:href="#g"/>
<use x="61.279297" xlink:href="#d"/>
<use x="124.658203" xlink:href="#u"/>
</g>
</g>
<g clip-path="url(#a)">
<g transform="translate(389 817.3) scale(.1 -.1)">
<use xlink:href="#s"/>
<use x="54.980469" xlink:href="#o"/>
<use x="116.162109" xlink:href="#k"/>
<use x="213.574219" xlink:href="#k"/>
<use x="310.986328" xlink:href="#e"/>
<use x="338.769531" xlink:href="#y"/>
<use x="390.869141" xlink:href="#y"/>
<use x="442.96875" xlink:href="#e"/>
<use x="470.751953" xlink:href="#o"/>
<use x="531.933594" xlink:href="#d"/>
<use x="595.3125" xlink:href="#f"/>
<use x="656.835938" xlink:href="#u"/>
</g>
</g>
<g clip-path="url(#a)">
<defs>
<path id="ap" d="m53.516 70.516v-9.625q-5.6094 2.6875-10.594 4-4.9844 1.3281-9.625 1.3281-8.0469 0-12.422-3.125t-4.375-8.8906q0-4.8438 2.9062-7.3125 2.9062-2.4531 11.016-3.9688l5.9531-1.2188q11.031-2.1094 16.281-7.4062t5.25-14.172q0-10.609-7.1094-16.078-7.0938-5.4688-20.812-5.4688-5.1719 0-11.016 1.1719-5.8281 1.1719-12.078 3.4688v10.156q6-3.3594 11.766-5.0781 5.7656-1.7031 11.328-1.7031 8.4375 0 13.031 3.3125 4.5938 3.3281 4.5938 9.4844 0 5.3594-3.2969 8.3906t-10.812 4.5469l-6.0156 1.1719q-11.031 2.1875-15.969 6.875-4.9219 4.6875-4.9219 13.047 0 9.6719 6.8125 15.234t18.766 5.5625q5.1406 0 10.453-0.9375 5.3281-0.92188 10.891-2.7656z"/>
<path id="an" d="m9.0781 75.984h9.0312v-44.875l26.812 23.578h11.469l-29-25.578 30.234-29.109h-11.719l-27.797 26.703v-26.703h-9.0312z"/>
</defs>
<g transform="translate(454.18 817.3) scale(.1 -.1)">
<use xlink:href="#ap"/>
<use x="63.476562" xlink:href="#o"/>
<use x="124.658203" xlink:href="#i"/>
<use x="165.771484" xlink:href="#an"/>
<use x="223.681641" xlink:href="#e"/>
<use x="251.464844" xlink:href="#d"/>
</g>
</g>
<g clip-path="url(#a)">
<g transform="translate(512.44 817.3) scale(.1 -.1)">
<use xlink:href="#q"/>
<use x="39.208984" xlink:href="#o"/>
</g>
</g>
<g clip-path="url(#a)">
<g transform="translate(557.39 817.3) scale(.1 -.1)">
<use xlink:href="#q"/>
<use x="39.208984" xlink:href="#w"/>
<use x="102.587891" xlink:href="#i"/>
<use x="141.951172" xlink:href="#d"/>
</g>
</g>
<g clip-path="url(#a)">
<g transform="translate(612.28 817.3) scale(.1 -.1)">
<use xlink:href="#q"/>
<use x="39.208984" xlink:href="#z"/>
<use x="102.587891" xlink:href="#f"/>
</g>
</g>
<g clip-path="url(#a)">
<g transform="translate(666.65 817.3) scale(.1 -.1)">
<use xlink:href="#o"/>
<use x="61.181641" xlink:href="#d"/>
<use x="124.560547" xlink:href="#f"/>
</g>
</g>
<g clip-path="url(#a)">
<defs>
<path id="al" d="m4.8906 31.391h26.312v-8h-26.312z"/>
</defs>
<g transform="translate(732.26 817.3) scale(.1 -.1)">
<use xlink:href="#al"/>
</g>
</g>
<g clip-path="url(#a)">
<g transform="translate(787.04 817.3) scale(.1 -.1)">
<use xlink:href="#g"/>
<use x="61.279297" xlink:href="#s"/>
<use x="116.259766" xlink:href="#q"/>
</g>
</g>
<g clip-path="url(#a)">
<g transform="translate(848.64 817.3) scale(.1 -.1)">
<use xlink:href="#e"/>
<use x="27.783203" xlink:href="#d"/>
<use x="91.162109" xlink:href="#q"/>
<use x="130.371094" xlink:href="#o"/>
</g>
</g>
<g clip-path="url(#a)">
<g transform="translate(921.19 817.3) scale(.1 -.1)">
<use xlink:href="#g"/>
</g>
</g>
<g clip-path="url(#a)">
<g transform="translate(985.22 817.3) scale(.1 -.1)">
<use xlink:href="#ao"/>
<use x="35.205078" xlink:href="#w"/>
<use x="98.583984" xlink:href="#j"/>
<use x="126.367188" xlink:href="#j"/>
</g>
</g>
<g clip-path="url(#a)">
<g transform="translate(1062.4 817.3) scale(.1 -.1)">
<use xlink:href="#al"/>
</g>
</g>
<g clip-path="url(#a)">
<g transform="translate(1122.3 817.3) scale(.1 -.1)">
<use xlink:href="#j"/>
<use x="27.783203" xlink:href="#f"/>
<use x="89.306641" xlink:href="#d"/>
<use x="152.685547" xlink:href="#af"/>
<use x="216.162109" xlink:href="#q"/>
<use x="255.371094" xlink:href="#z"/>
</g>
</g>
<g clip-path="url(#a)">
<defs>
<path id="at" d="m32.172-5.0781q-3.7969-9.7656-7.4219-12.734-3.6094-2.9844-9.6562-2.9844h-7.1875v7.5156h5.2812q3.7031 0 5.75 1.7656 2.0625 1.75 4.5469 8.2969l1.6094 4.0938-22.109 53.812h9.5156l17.094-42.766 17.094 42.766h9.5156z"/>
</defs>
<g transform="translate(1204.2 817.3) scale(.1 -.1)">
<use xlink:href="#am"/>
<use x="63.476562" xlink:href="#j"/>
<use x="91.259766" xlink:href="#g"/>
<use x="152.539062" xlink:href="#at"/>
</g>
</g>
<g clip-path="url(#a)">
<g transform="translate(1279.2 817.3) scale(.1 -.1)">
<use xlink:href="#s"/>
<use x="54.980469" xlink:href="#g"/>
<use x="116.259766" xlink:href="#j"/>
<use x="144.042969" xlink:href="#j"/>
<use x="171.826172" xlink:href="#f"/>
<use x="233.349609" xlink:href="#u"/>
</g>
</g>
<g clip-path="url(#a)">
<g transform="translate(1357.9 817.3) scale(.1 -.1)">
<use xlink:href="#ah"/>
<use x="86.279297" xlink:href="#g"/>
<use x="147.558594" xlink:href="#an"/>
<use x="205.46875" xlink:href="#e"/>
<use x="233.251953" xlink:href="#d"/>
<use x="296.630859" xlink:href="#af"/>
</g>
</g>
<g clip-path="url(#a)">
<defs>
<path id="av" d="m2.9844 54.688h9.5156l17.094-45.891 17.094 45.891h9.5156l-20.516-54.688h-12.203z"/>
</defs>
<g transform="translate(1443.1 817.3) scale(.1 -.1)">
<use xlink:href="#ah"/>
<use x="86.279297" xlink:href="#o"/>
<use x="147.460938" xlink:href="#av"/>
<use x="206.640625" xlink:href="#e"/>
<use x="234.423828" xlink:href="#f"/>
<use x="295.947266" xlink:href="#y"/>
</g>
</g>
<g clip-path="url(#a)">
<g transform="translate(1546 817.3) scale(.1 -.1)">
<use xlink:href="#h"/>
</g>
</g>
<g clip-path="url(#a)">
<defs>
<path id="c" d="m12.406 8.2969h16.109v55.625l-17.531-3.5156v8.9844l17.438 3.5156h9.8594v-64.609h16.109v-8.2969h-41.984z"/>
</defs>
<g transform="translate(305.95 41.547) scale(.1 -.1)">
<use xlink:href="#c"/>
<use x="63.623047" xlink:href="#h"/>
<use x="95.410156" xlink:href="#c"/>
</g>
</g>
<g clip-path="url(#a)">
<defs>
<path id="p" d="m19.188 8.2969h34.422v-8.2969h-46.281v8.2969q5.6094 5.8125 15.297 15.594 9.7031 9.7969 12.188 12.641 4.7344 5.3125 6.6094 9 1.8906 3.6875 1.8906 7.25 0 5.8125-4.0781 9.4688-4.0781 3.6719-10.625 3.6719-4.6406 0-9.7969-1.6094-5.1406-1.6094-11-4.8906v9.9688q5.9531 2.3906 11.125 3.6094 5.1875 1.2188 9.4844 1.2188 11.328 0 18.062-5.6719 6.7344-5.6562 6.7344-15.125 0-4.5-1.6875-8.5312-1.6719-4.0156-6.125-9.4844-1.2188-1.4219-7.7656-8.1875-6.5312-6.7656-18.453-18.922z"/>
</defs>
<g transform="translate(138.17 302.23) scale(.1 -.1)">
<use xlink:href="#c"/>
<use x="63.623047" xlink:href="#h"/>
<use x="95.410156" xlink:href="#p"/>
</g>
</g>
<g clip-path="url(#a)">
<defs>
<path id="m" d="m40.578 39.312q7.0781-1.5156 11.047-6.3125 3.9844-4.7812 3.9844-11.812 0-10.781-7.4219-16.703-7.4219-5.9062-21.094-5.9062-4.5781 0-9.4375 0.90625t-10.031 2.7188v9.5156q4.0938-2.3906 8.9688-3.6094 4.8906-1.2188 10.219-1.2188 9.2656 0 14.125 3.6562t4.8594 10.641q0 6.4531-4.5156 10.078-4.5156 3.6406-12.562 3.6406h-8.5v8.1094h8.8906q7.2656 0 11.125 2.9062t3.8594 8.375q0 5.6094-3.9844 8.6094-3.9688 3.0156-11.391 3.0156-4.0625 0-8.7031-0.89062-4.6406-0.875-10.203-2.7188v8.7812q5.625 1.5625 10.531 2.3438t9.25 0.78125q11.234 0 17.766-5.1094 6.5469-5.0938 6.5469-13.781 0-6.0625-3.4688-10.234t-9.8594-5.7812z"/>
</defs>
<g transform="translate(374.8 690.31) scale(.1 -.1)">
<use xlink:href="#c"/>
<use x="63.623047" xlink:href="#h"/>
<use x="95.410156" xlink:href="#m"/>
</g>
</g>
<g clip-path="url(#a)">
<defs>
<path id="v" d="m37.797 64.312-24.906-38.922h24.906zm-2.5938 8.5938h12.406v-47.516h10.406v-8.2031h-10.406v-17.188h-9.8125v17.188h-32.906v9.5156z"/>
</defs>
<g transform="translate(404.89 172.02) scale(.1 -.1)">
<use xlink:href="#c"/>
<use x="63.623047" xlink:href="#h"/>
<use x="95.410156" xlink:href="#v"/>
</g>
</g>
<g clip-path="url(#a)">
<defs>
<path id="aj" d="m33.016 40.375q-6.6406 0-10.531-4.5469-3.875-4.5312-3.875-12.438 0-7.8594 3.875-12.438 3.8906-4.5625 10.531-4.5625t10.516 4.5625q3.875 4.5781 3.875 12.438 0 7.9062-3.875 12.438-3.875 4.5469-10.516 4.5469zm19.578 30.922v-8.9844q-3.7188 1.75-7.5 2.6719-3.7812 0.9375-7.5 0.9375-9.7656 0-14.922-6.5938-5.1406-6.5938-5.875-19.922 2.875 4.25 7.2188 6.5156 4.3594 2.2656 9.5781 2.2656 10.984 0 17.359-6.6719 6.375-6.6562 6.375-18.125 0-11.234-6.6406-18.031-6.6406-6.7812-17.672-6.7812-12.656 0-19.344 9.6875-6.6875 9.7031-6.6875 28.109 0 17.281 8.2031 27.562t22.016 10.281q3.7188 0 7.5-0.73438t7.8906-2.1875z"/>
</defs>
<g transform="translate(417.06 690.31) scale(.1 -.1)">
<use xlink:href="#c"/>
<use x="63.623047" xlink:href="#h"/>
<use x="95.410156" xlink:href="#aj"/>
</g>
</g>
<g clip-path="url(#a)">
<defs>
<path id="ad" d="m8.2031 72.906h46.875v-4.2031l-26.469-68.703h-10.297l24.906 64.594h-35.016z"/>
</defs>
<g transform="translate(461.97 690.31) scale(.1 -.1)">
<use xlink:href="#c"/>
<use x="63.623047" xlink:href="#h"/>
<use x="95.410156" xlink:href="#ad"/>
</g>
</g>
<g clip-path="url(#a)">
<defs>
<path id="ac" d="m31.781 34.625q-7.0312 0-11.062-3.7656-4.0156-3.7656-4.0156-10.344 0-6.5938 4.0156-10.359 4.0312-3.7656 11.062-3.7656t11.078 3.7812q4.0625 3.7969 4.0625 10.344 0 6.5781-4.0312 10.344-4.0156 3.7656-11.109 3.7656zm-9.8594 4.1875q-6.3438 1.5625-9.8906 5.9062-3.5312 4.3594-3.5312 10.609 0 8.7344 6.2188 13.812 6.2344 5.0781 17.062 5.0781 10.891 0 17.094-5.0781t6.2031-13.812q0-6.25-3.5469-10.609-3.5312-4.3438-9.8281-5.9062 7.125-1.6562 11.094-6.5 3.9844-4.8281 3.9844-11.797 0-10.609-6.4688-16.281-6.4688-5.6562-18.531-5.6562-12.047 0-18.531 5.6562-6.4688 5.6719-6.4688 16.281 0 6.9688 4 11.797 4.0156 4.8438 11.141 6.5zm-3.6094 15.578q0-5.6562 3.5312-8.8281 3.5469-3.1719 9.9375-3.1719 6.3594 0 9.9375 3.1719 3.5938 3.1719 3.5938 8.8281 0 5.6719-3.5938 8.8438-3.5781 3.1719-9.9375 3.1719-6.3906 0-9.9375-3.1719-3.5312-3.1719-3.5312-8.8438z"/>
</defs>
<g transform="translate(661.56 302.23) scale(.1 -.1)">
<use xlink:href="#c"/>
<use x="63.623047" xlink:href="#h"/>
<use x="95.410156" xlink:href="#ac"/>
</g>
</g>
<g clip-path="url(#a)">
<defs>
<path id="ab" d="m10.984 1.5156v8.9844q3.7188-1.7656 7.5156-2.6875 3.8125-0.92188 7.4844-0.92188 9.7656 0 14.906 6.5625 5.1562 6.5625 5.8906 19.953-2.8281-4.2031-7.1875-6.4531-4.3438-2.25-9.6094-2.25-10.938 0-17.312 6.6094-6.375 6.625-6.375 18.109 0 11.219 6.6406 18 6.6406 6.7969 17.672 6.7969 12.656 0 19.312-9.7031 6.6719-9.6875 6.6719-28.141 0-17.234-8.1875-27.516-8.1719-10.281-21.984-10.281-3.7188 0-7.5312 0.73438-3.7969 0.73438-7.9062 2.2031zm19.625 30.906q6.6406 0 10.516 4.5312 3.8906 4.5469 3.8906 12.469 0 7.8594-3.8906 12.422-3.875 4.5625-10.516 4.5625t-10.516-4.5625-3.875-12.422q0-7.9219 3.875-12.469 3.875-4.5312 10.516-4.5312z"/>
</defs>
<g transform="translate(509.51 690.31) scale(.1 -.1)">
<use xlink:href="#c"/>
<use x="63.623047" xlink:href="#h"/>
<use x="95.410156" xlink:href="#ab"/>
</g>
</g>
<g clip-path="url(#a)">
<defs>
<path id="ae" d="m31.781 66.406q-7.6094 0-11.453-7.5-3.8281-7.4844-3.8281-22.531 0-14.984 3.8281-22.484 3.8438-7.5 11.453-7.5 7.6719 0 11.5 7.5 3.8438 7.5 3.8438 22.484 0 15.047-3.8438 22.531-3.8281 7.5-11.5 7.5zm0 7.8125q12.266 0 18.734-9.7031 6.4688-9.6875 6.4688-28.141 0-18.406-6.4688-28.109-6.4688-9.6875-18.734-9.6875-12.25 0-18.719 9.6875-6.4688 9.7031-6.4688 28.109 0 18.453 6.4688 28.141 6.4688 9.7031 18.719 9.7031z"/>
</defs>
<g transform="translate(556.52 690.31) scale(.1 -.1)">
<use xlink:href="#c"/>
<use x="63.623047" xlink:href="#h"/>
<use x="95.410156" xlink:href="#c"/>
<use x="159.033203" xlink:href="#ae"/>
</g>
</g>
<g clip-path="url(#a)">
<g transform="translate(695.2 561.54) scale(.1 -.1)">
<use xlink:href="#c"/>
<use x="63.623047" xlink:href="#h"/>
<use x="95.410156" xlink:href="#c"/>
<use x="159.033203" xlink:href="#c"/>
</g>
</g>
<g clip-path="url(#a)">
<g transform="translate(1075.1 432.11) scale(.1 -.1)">
<use xlink:href="#c"/>
<use x="63.623047" xlink:href="#h"/>
<use x="95.410156" xlink:href="#c"/>
<use x="159.033203" xlink:href="#p"/>
</g>
</g>
<g clip-path="url(#a)">
<g transform="translate(847.08 690.31) scale(.1 -.1)">
<use xlink:href="#c"/>
<use x="63.623047" xlink:href="#h"/>
<use x="95.410156" xlink:href="#c"/>
<use x="159.033203" xlink:href="#m"/>
</g>
</g>
<g clip-path="url(#a)">
<g transform="translate(913.12 690.31) scale(.1 -.1)">
<use xlink:href="#c"/>
<use x="63.623047" xlink:href="#h"/>
<use x="95.410156" xlink:href="#c"/>
<use x="159.033203" xlink:href="#v"/>
</g>
</g>
<g clip-path="url(#a)">
<defs>
<path id="ak" d="m10.797 72.906h38.719v-8.3125h-29.688v-17.859q2.1406 0.73438 4.2812 1.0938 2.1562 0.35938 4.3125 0.35938 12.203 0 19.328-6.6875 7.1406-6.6875 7.1406-18.109 0-11.766-7.3281-18.297-7.3281-6.5156-20.656-6.5156-4.5938 0-9.3594 0.78125-4.75 0.78125-9.8281 2.3438v9.9219q4.3906-2.3906 9.0781-3.5625t9.9062-1.1719q8.4531 0 13.375 4.4375 4.9375 4.4375 4.9375 12.062 0 7.6094-4.9375 12.047-4.9219 4.4531-13.375 4.4531-3.9531 0-7.8906-0.875-3.9219-0.875-8.0156-2.7344z"/>
</defs>
<g transform="translate(1054 561.54) scale(.1 -.1)">
<use xlink:href="#c"/>
<use x="63.623047" xlink:href="#h"/>
<use x="95.410156" xlink:href="#c"/>
<use x="159.033203" xlink:href="#ak"/>
</g>
</g>
<g clip-path="url(#a)">
<g transform="translate(1203.7 690.31) scale(.1 -.1)">
<use xlink:href="#c"/>
<use x="63.623047" xlink:href="#h"/>
<use x="95.410156" xlink:href="#c"/>
<use x="159.033203" xlink:href="#aj"/>
</g>
</g>
<g clip-path="url(#a)">
<g transform="translate(1357.5 561.54) scale(.1 -.1)">
<use xlink:href="#c"/>
<use x="63.623047" xlink:href="#h"/>
<use x="95.410156" xlink:href="#c"/>
<use x="159.033203" xlink:href="#ad"/>
</g>
</g>
<g clip-path="url(#a)">
<g transform="translate(1282.9 690.31) scale(.1 -.1)">
<use xlink:href="#c"/>
<use x="63.623047" xlink:href="#h"/>
<use x="95.410156" xlink:href="#c"/>
<use x="159.033203" xlink:href="#ac"/>
</g>
</g>
<g clip-path="url(#a)">
<g transform="translate(1407.1 690.31) scale(.1 -.1)">
<use xlink:href="#c"/>
<use x="63.623047" xlink:href="#h"/>
<use x="95.410156" xlink:href="#c"/>
<use x="159.033203" xlink:href="#ab"/>
</g>
</g>
<g clip-path="url(#a)">
<g transform="translate(981.8 690.31) scale(.1 -.1)">
<use xlink:href="#c"/>
<use x="63.623047" xlink:href="#h"/>
<use x="95.410156" xlink:href="#p"/>
<use x="159.033203" xlink:href="#ae"/>
</g>
</g>
<g clip-path="url(#a)">
<g transform="translate(1127.1 690.31) scale(.1 -.1)">
<use xlink:href="#c"/>
<use x="63.623047" xlink:href="#h"/>
<use x="95.410156" xlink:href="#p"/>
<use x="159.033203" xlink:href="#c"/>
</g>
</g>
<g clip-path="url(#a)">
<g transform="translate(609.35 690.31) scale(.1 -.1)">
<use xlink:href="#c"/>
<use x="63.623047" xlink:href="#h"/>
<use x="95.410156" xlink:href="#p"/>
<use x="159.033203" xlink:href="#m"/>
</g>
</g>
<g clip-path="url(#a)">
<g transform="translate(664.82 690.31) scale(.1 -.1)">
<use xlink:href="#c"/>
<use x="63.623047" xlink:href="#h"/>
<use x="95.410156" xlink:href="#p"/>
<use x="159.033203" xlink:href="#v"/>
</g>
</g>
<g clip-path="url(#a)">
<g transform="translate(783.69 690.31) scale(.1 -.1)">
<use xlink:href="#c"/>
<use x="63.623047" xlink:href="#h"/>
<use x="95.410156" xlink:href="#p"/>
<use x="159.033203" xlink:href="#ak"/>
</g>
</g>
<g clip-path="url(#a)">
<g transform="translate(75.771 432.11) scale(.1 -.1)">
<use xlink:href="#c"/>
<use x="63.623047" xlink:href="#h"/>
<use x="95.410156" xlink:href="#p"/>
<use x="159.033203" xlink:href="#ad"/>
</g>
</g>
<g clip-path="url(#a)">
<g transform="translate(128.6 690.31) scale(.1 -.1)">
<use xlink:href="#c"/>
<use x="63.623047" xlink:href="#h"/>
<use x="95.410156" xlink:href="#p"/>
<use x="159.033203" xlink:href="#ac"/>
</g>
</g>
<g clip-path="url(#a)">
<g transform="translate(200.58 432.11) scale(.1 -.1)">
<use xlink:href="#c"/>
<use x="63.623047" xlink:href="#h"/>
<use x="95.410156" xlink:href="#p"/>
<use x="159.033203" xlink:href="#ab"/>
</g>
</g>
<g clip-path="url(#a)">
<g transform="translate(161.62 561.54) scale(.1 -.1)">
<use xlink:href="#c"/>
<use x="63.623047" xlink:href="#h"/>
<use x="95.410156" xlink:href="#m"/>
<use x="159.033203" xlink:href="#ae"/>
</g>
</g>
<g clip-path="url(#a)">
<g transform="translate(239.54 561.54) scale(.1 -.1)">
<use xlink:href="#c"/>
<use x="63.623047" xlink:href="#h"/>
<use x="95.410156" xlink:href="#m"/>
<use x="159.033203" xlink:href="#c"/>
</g>
</g>
<g clip-path="url(#a)">
<g transform="translate(199.92 690.31) scale(.1 -.1)">
<use xlink:href="#c"/>
<use x="63.623047" xlink:href="#h"/>
<use x="95.410156" xlink:href="#m"/>
<use x="159.033203" xlink:href="#p"/>
</g>
</g>
<g clip-path="url(#a)">
<g transform="translate(279.16 690.31) scale(.1 -.1)">
<use xlink:href="#c"/>
<use x="63.623047" xlink:href="#h"/>
<use x="95.410156" xlink:href="#m"/>
<use x="159.033203" xlink:href="#m"/>
</g>
</g>
<g clip-path="url(#a)">
<g transform="translate(149.73 690.31) scale(.1 -.1)">
<use xlink:href="#c"/>
<use x="63.623047" xlink:href="#h"/>
<use x="95.410156" xlink:href="#m"/>
<use x="159.033203" xlink:href="#v"/>
</g>
</g>
<g clip-path="url(#a)">
<g transform="translate(173.51 690.31) scale(.1 -.1)">
<use xlink:href="#c"/>
<use x="63.623047" xlink:href="#h"/>
<use x="95.410156" xlink:href="#m"/>
<use x="159.033203" xlink:href="#ak"/>
</g>
</g>
<g clip-path="url(#a)">
<g transform="translate(62.564 690.31) scale(.1 -.1)">
<use xlink:href="#c"/>
<use x="63.623047" xlink:href="#h"/>
<use x="95.410156" xlink:href="#m"/>
<use x="159.033203" xlink:href="#aj"/>
</g>
</g>
<g clip-path="url(#a)">
<g transform="translate(88.979 561.54) scale(.1 -.1)">
<use xlink:href="#c"/>
<use x="63.623047" xlink:href="#h"/>
<use x="95.410156" xlink:href="#m"/>
<use x="159.033203" xlink:href="#ad"/>
</g>
</g>
<g clip-path="url(#a)">
<g transform="translate(94.262 690.31) scale(.1 -.1)">
<use xlink:href="#c"/>
<use x="63.623047" xlink:href="#h"/>
<use x="95.410156" xlink:href="#m"/>
<use x="159.033203" xlink:href="#ac"/>
</g>
</g>
<g clip-path="url(#a)">
<g transform="translate(722.93 690.31) scale(.1 -.1)">
<use xlink:href="#c"/>
<use x="63.623047" xlink:href="#h"/>
<use x="95.410156" xlink:href="#m"/>
<use x="159.033203" xlink:href="#ab"/>
</g>
</g>
<g clip-path="url(#a)">
<g transform="translate(1053.1 690.31) scale(.1 -.1)">
<use xlink:href="#c"/>
<use x="63.623047" xlink:href="#h"/>
<use x="95.410156" xlink:href="#v"/>
<use x="159.033203" xlink:href="#ae"/>
</g>
</g>
<g clip-path="url(#a)">
<g transform="translate(1536.5 690.31) scale(.1 -.1)">
<use xlink:href="#c"/>
<use x="63.623047" xlink:href="#h"/>
<use x="95.410156" xlink:href="#v"/>
<use x="159.033203" xlink:href="#c"/>
</g>
</g>
<defs>
<clipPath id="a">
<rect width="1621.3" height="853.33"/>
</clipPath>
</defs>
</svg>
