<?xml version="1.0" encoding="UTF-8"?>
<!DOCTYPE svg  PUBLIC '-//W3C//DTD SVG 1.1//EN'  'http://www.w3.org/Graphics/SVG/1.1/DTD/svg11.dtd'>
<svg width="1469.3pt" height="773.33pt" version="1.1" viewBox="0 0 1469.3 773.33" xmlns="http://www.w3.org/2000/svg" xmlns:xlink="http://www.w3.org/1999/xlink">
<defs>
<style type="text/css">*{stroke-linecap:butt;stroke-linejoin:round;}</style>
</defs>
<path d="m0 773.33h1469.3v-773.33h-1469.3z" fill="#fff"/>
<g fill="none" stroke="#000">
<path d="m151.09 35.152-63.823 441.97" clip-path="url(#a)"/>
<path d="m151.09 35.152 11.109 616.96" clip-path="url(#a)"/>
<path d="m151.09 35.152 52.714 88.7" clip-path="url(#a)"/>
<path d="m87.268 477.12-20.48 174.99" clip-path="url(#a)"/>
<path d="m87.268 477.12-11.806 174.99" clip-path="url(#a)"/>
<path d="m87.268 477.12-0.24094 174.99" clip-path="url(#a)"/>
<path d="m87.268 477.12 32.527 87.725" clip-path="url(#a)"/>
<path d="m162.2 652.11v86.07" clip-path="url(#a)"/>
<path d="m203.8 123.85-15.584 528.26" clip-path="url(#a)"/>
<path d="m203.8 123.85 152.6 88.573" clip-path="url(#a)"/>
<path d="m203.8 123.85-137.02 528.26" clip-path="url(#a)" stroke-dasharray="3.7,1.6"/>
<path d="m188.22 652.11v86.07" clip-path="url(#a)"/>
<path d="m356.41 212.42-123.37 352.42" clip-path="url(#a)"/>
<path d="m356.41 212.42-53.981 352.42" clip-path="url(#a)"/>
<path d="m356.41 212.42 177.35 88.424" clip-path="url(#a)"/>
<path d="m233.03 564.84-15.902 87.268" clip-path="url(#a)"/>
<path d="m233.03 564.84 15.902 87.268" clip-path="url(#a)"/>
<path d="m302.42 564.84-18.793 87.268" clip-path="url(#a)"/>
<path d="m302.42 564.84 18.793 87.268" clip-path="url(#a)"/>
<path d="m533.76 300.85-172.06 351.26" clip-path="url(#a)"/>
<path d="m533.76 300.85-105.57 264" clip-path="url(#a)"/>
<path d="m533.76 300.85-33.284 351.26" clip-path="url(#a)"/>
<path d="m533.76 300.85 18.759 351.26" clip-path="url(#a)"/>
<path d="m533.76 300.85 132.48 264" clip-path="url(#a)"/>
<path d="m533.76 300.85 372.21 88.247" clip-path="url(#a)"/>
<path d="m533.76 300.85-212.54 351.26" clip-path="url(#a)" stroke-dasharray="3.7,1.6"/>
<path d="m361.7 652.11v86.07" clip-path="url(#a)"/>
<path d="m428.19 564.84-23.13 87.268" clip-path="url(#a)"/>
<path d="m428.19 564.84 23.13 87.268" clip-path="url(#a)"/>
<path d="m500.48 652.11v86.07" clip-path="url(#a)"/>
<path d="m552.52 652.11v86.07" clip-path="url(#a)"/>
<path d="m666.24 564.84-58.789 87.268" clip-path="url(#a)"/>
<path d="m666.24 564.84-0.96375 87.268" clip-path="url(#a)"/>
<path d="m666.24 564.84 59.753 87.268" clip-path="url(#a)"/>
<path d="m905.97 389.09-116.37 263.02" clip-path="url(#a)"/>
<path d="m905.97 389.09-49.874 263.02" clip-path="url(#a)"/>
<path d="m905.97 389.09 19.516 263.02" clip-path="url(#a)"/>
<path d="m905.97 389.09 146.73 88.024" clip-path="url(#a)"/>
<path d="m789.6 652.11v86.07" clip-path="url(#a)"/>
<path d="m856.1 652.11v86.07" clip-path="url(#a)"/>
<path d="m925.49 652.11v86.07" clip-path="url(#a)"/>
<path d="m1052.7 477.12-127.22 174.99" clip-path="url(#a)" stroke-dasharray="3.7,1.6"/>
<path d="m1052.7 477.12-54.934 174.99" clip-path="url(#a)"/>
<path d="m1052.7 477.12 182.15 87.725" clip-path="url(#a)"/>
<path d="m997.77 652.11v86.07" clip-path="url(#a)"/>
<path d="m1234.9 564.84-161.91 87.268" clip-path="url(#a)"/>
<path d="m1234.9 564.84-83.846 87.268" clip-path="url(#a)"/>
<path d="m1234.9 564.84-2.8912 87.268" clip-path="url(#a)"/>
<path d="m1234.9 564.84 80.955 87.268" clip-path="url(#a)"/>
<path d="m1234.9 564.84 167.69 87.268" clip-path="url(#a)"/>
<path d="m1072.9 652.11v86.07" clip-path="url(#a)"/>
<path d="m1151 652.11v86.07" clip-path="url(#a)"/>
<path d="m1232 652.11v86.07" clip-path="url(#a)"/>
<path d="m1315.8 652.11v86.07" clip-path="url(#a)"/>
<path d="m607.45 652.11v86.07" clip-path="url(#a)"/>
<path d="m665.28 652.11v86.07" clip-path="url(#a)"/>
<path d="m725.99 652.11v86.07" clip-path="url(#a)"/>
<path d="m405.06 652.11v86.07" clip-path="url(#a)"/>
<path d="m451.32 652.11v86.07" clip-path="url(#a)"/>
<path d="m283.63 652.11v86.07" clip-path="url(#a)"/>
<path d="m321.22 652.11v86.07" clip-path="url(#a)"/>
<path d="m217.13 652.11v86.07" clip-path="url(#a)"/>
<path d="m248.94 652.11v86.07" clip-path="url(#a)"/>
<path d="m66.788 652.11v86.07" clip-path="url(#a)"/>
<path d="m75.462 652.11v86.07" clip-path="url(#a)"/>
<path d="m87.027 652.11v86.07" clip-path="url(#a)"/>
<path d="m119.79 564.84-18.311 87.268" clip-path="url(#a)"/>
<path d="m119.79 564.84-0.96375 87.268" clip-path="url(#a)"/>
<path d="m119.79 564.84 19.275 87.268" clip-path="url(#a)"/>
<path d="m101.48 652.11v86.07" clip-path="url(#a)"/>
<path d="m118.83 652.11v86.07" clip-path="url(#a)"/>
<path d="m139.07 652.11v86.07" clip-path="url(#a)"/>
<path d="m1402.5 652.11v86.07" clip-path="url(#a)"/>
</g>
<path d="m124.96 260.01 0.85987-5.9545q0.34302-2.3754-2.0323-2.7184l-7.663-1.1066q-2.3754-0.34302-2.7184 2.0323l-0.85987 5.9545q-0.34302 2.3754 2.0323 2.7184l7.663 1.1066q2.3754 0.34302 2.7184-2.0323z" clip-path="url(#a)" fill="#fff" stroke="#fff"/>
<g clip-path="url(#a)">
<defs>
<path id="an" d="m9.8125 72.906h9.8594v-29.891h35.844v29.891h9.8594v-72.906h-9.8594v34.719h-35.844v-34.719h-9.8594z"/>
</defs>
<g transform="translate(120.93 259.43) rotate(-81.783) scale(.08 -.08)">
<use xlink:href="#an"/>
</g>
</g>
<path d="m150.33 341.52 0.080246 4.4568q0.043206 2.3996 2.4428 2.3564l7.7412-0.13938q2.3996-0.043206 2.3564-2.4428l-0.080246-4.4568q-0.043206-2.3996-2.4428-2.3564l-7.7412 0.13938q-2.3996 0.043206-2.3564 2.4428z" clip-path="url(#a)" fill="#fff" stroke="#fff"/>
<g clip-path="url(#a)">
<defs>
<path id="av" d="m9.8125 72.906h9.8594v-64.609h35.5v-8.2969h-45.359z"/>
</defs>
<g transform="translate(154.4 341.44) rotate(88.968) scale(.08 -.08)">
<use xlink:href="#av"/>
</g>
</g>
<path d="m170.52 80.119 3.0736 5.1718q1.2261 2.0632 3.2893 0.83702l6.6558-3.9556q2.0632-1.2261 0.83702-3.2893l-3.0736-5.1718q-1.2261-2.0632-3.2893-0.83702l-6.6558 3.9556q-2.0632 1.2261-0.83702 3.2893z" clip-path="url(#a)" fill="#fff" stroke="#fff"/>
<g clip-path="url(#a)">
<g transform="translate(174.01 78.043) rotate(59.277) scale(.08 -.08)">
<use xlink:href="#an"/>
</g>
</g>
<path d="m82.938 568.06 0.63611-5.4354q0.27897-2.3837-2.1048-2.6627l-7.69-0.89997q-2.3837-0.27897-2.6627 2.1048l-0.63611 5.4354q-0.27897 2.3837 2.1048 2.6627l7.69 0.89998q2.3837 0.27897 2.6627-2.1048z" clip-path="url(#a)" fill="#fff" stroke="#fff"/>
<g clip-path="url(#a)">
<defs>
<path id="p" d="m34.188 63.188-13.391-36.281h26.812zm-5.5781 9.7188h11.188l27.781-72.906h-10.25l-6.6406 18.703h-32.859l-6.6406-18.703h-10.406z"/>
</defs>
<g transform="translate(78.902 567.59) rotate(-83.325) scale(.08 -.08)">
<use xlink:href="#p"/>
</g>
</g>
<path d="m87.467 567.33 0.30972-4.5908q0.16155-2.3946-2.233-2.5561l-7.7249-0.52116q-2.3946-0.16155-2.5561 2.233l-0.30972 4.5908q-0.16155 2.3946 2.233 2.5561l7.7249 0.52116q2.3946 0.16155 2.5561-2.233z" clip-path="url(#a)" fill="#fff" stroke="#fff"/>
<g clip-path="url(#a)">
<defs>
<path id="x" d="m9.8125 72.906h41.891v-8.3125h-32.031v-21.484h28.906v-8.2969h-28.906v-34.812h-9.8594z"/>
</defs>
<g transform="translate(83.412 567.06) rotate(-86.14) scale(.08 -.08)">
<use xlink:href="#x"/>
</g>
</g>
<path d="m93.415 567.04 0.006642-4.8237q0.003304-2.4-2.3967-2.4033l-7.7425-0.01066q-2.4-0.003305-2.4033 2.3967l-0.006641 4.8237q-0.003305 2.4 2.3967 2.4033l7.7425 0.01066q2.4 0.003304 2.4033-2.3967z" clip-path="url(#a)" fill="#fff" stroke="#fff"/>
<g clip-path="url(#a)">
<defs>
<path id="w" d="m19.672 64.797v-27.391h12.406q6.8906 0 10.641 3.5625 3.7656 3.5625 3.7656 10.156 0 6.5469-3.7656 10.109-3.75 3.5625-10.641 3.5625zm-9.8594 8.1094h22.266q12.266 0 18.531-5.5469 6.2812-5.5469 6.2812-16.234 0-10.797-6.2812-16.312-6.2656-5.5156-18.531-5.5156h-12.406v-29.297h-9.8594z"/>
</defs>
<g transform="translate(89.351 567.03) rotate(-89.921) scale(.08 -.08)">
<use xlink:href="#w"/>
</g>
</g>
<path d="m96.7 520.6 1.9025 5.1312q0.83436 2.2503 3.0847 1.4159l7.2596-2.6917q2.2503-0.83436 1.4159-3.0847l-1.9025-5.1311q-0.83436-2.2503-3.0847-1.4159l-7.2596 2.6917q-2.2503 0.83436-1.4159 3.0847z" clip-path="url(#a)" fill="#fff" stroke="#fff"/>
<g clip-path="url(#a)">
<g transform="translate(100.51 519.18) rotate(69.656) scale(.08 -.08)">
<use xlink:href="#p"/>
</g>
</g>
<path d="m155.93 678.24v33.808q0 2.4 2.4 2.4h7.7425q2.4 0 2.4-2.4v-33.808q0-2.4-2.4-2.4h-7.7425q-2.4 0-2.4 2.4z" clip-path="url(#a)" fill="#fff" stroke="#fff"/>
<g clip-path="url(#a)">
<defs>
<path id="l" d="m-0.29688 72.906h61.672v-8.3125h-25.875v-64.594h-9.9062v64.594h-25.891z"/>
<path id="f" d="m56.203 29.594v-4.3906h-41.312q0.59375-9.2812 5.5938-14.141t13.938-4.8594q5.1719 0 10.031 1.2656t9.6562 3.8125v-8.5q-4.8438-2.0469-9.9219-3.125t-10.297-1.0781q-13.094 0-20.734 7.6094-7.6406 7.625-7.6406 20.625 0 13.422 7.25 21.297 7.25 7.8906 19.562 7.8906 11.031 0 17.453-7.1094 6.4219-7.0938 6.4219-19.297zm-8.9844 2.6406q-0.09375 7.3594-4.125 11.75-4.0312 4.4062-10.672 4.4062-7.5156 0-12.031-4.25t-5.2031-11.969z"/>
<path id="i" d="m41.109 46.297q-1.5156 0.875-3.2969 1.2812-1.7812 0.42188-3.9219 0.42188-7.625 0-11.703-4.9531t-4.0781-14.234v-28.812h-9.0312v54.688h9.0312v-8.5q2.8438 4.9844 7.375 7.3906 4.5469 2.4219 11.047 2.4219 0.92188 0 2.0469-0.125 1.125-0.10938 2.4844-0.35938z"/>
<path id="k" d="m52 44.188q3.375 6.0625 8.0625 8.9375t11.031 2.875q8.5469 0 13.188-5.9844 4.6406-5.9688 4.6406-17v-33.016h-9.0312v32.719q0 7.8594-2.7969 11.656-2.7812 3.8125-8.4844 3.8125-6.9844 0-11.047-4.6406-4.0469-4.625-4.0469-12.641v-30.906h-9.0312v32.719q0 7.9062-2.7812 11.688t-8.5938 3.7812q-6.8906 0-10.953-4.6562-4.0469-4.6562-4.0469-12.625v-30.906h-9.0312v54.688h9.0312v-8.5q3.0781 5.0312 7.375 7.4219t10.203 2.3906q5.9688 0 10.141-3.0312 4.1719-3.0156 6.1719-8.7812z"/>
<path id="h" d="m9.4219 54.688h8.9844v-54.688h-8.9844zm0 21.297h8.9844v-11.391h-8.9844z"/>
<path id="g" d="m54.891 33.016v-33.016h-8.9844v32.719q0 7.7656-3.0312 11.609-3.0312 3.8594-9.0781 3.8594-7.2812 0-11.484-4.6406-4.2031-4.625-4.2031-12.641v-30.906h-9.0312v54.688h9.0312v-8.5q3.2344 4.9375 7.5938 7.375 4.375 2.4375 10.094 2.4375 9.4219 0 14.25-5.8281 4.8438-5.8281 4.8438-17.156z"/>
<path id="e" d="m34.281 27.484q-10.891 0-15.094-2.4844t-4.2031-8.5q0-4.7812 3.1562-7.5938 3.1562-2.7969 8.5625-2.7969 7.4844 0 12 5.2969t4.5156 14.078v2zm17.922 3.7188v-31.203h-8.9844v8.2969q-3.0781-4.9688-7.6719-7.3438t-11.234-2.375q-8.3906 0-13.359 4.7188-4.9531 4.7188-4.9531 12.625 0 9.2188 6.1719 13.906 6.1875 4.6875 18.438 4.6875h12.609v0.89062q0 6.2031-4.0781 9.5938t-11.453 3.3906q-4.6875 0-9.1406-1.125-4.4375-1.125-8.5312-3.375v8.3125q4.9219 1.9062 9.5625 2.8438 4.6406 0.95312 9.0312 0.95312 11.875 0 17.734-6.1562 5.8594-6.1406 5.8594-18.641z"/>
<path id="j" d="m9.4219 75.984h8.9844v-75.984h-8.9844z"/>
</defs>
<g transform="translate(159.99 678.24) rotate(90) scale(.08 -.08)">
<use xlink:href="#l"/>
<use x="44.083984" xlink:href="#f"/>
<use x="105.607422" xlink:href="#i"/>
<use x="144.970703" xlink:href="#k"/>
<use x="242.382812" xlink:href="#h"/>
<use x="270.166016" xlink:href="#g"/>
<use x="333.544922" xlink:href="#e"/>
<use x="394.824219" xlink:href="#j"/>
</g>
</g>
<path d="m202.21 390.58 0.14224-4.8217q0.070773-2.399-2.3282-2.4697l-7.7391-0.22832q-2.399-0.070773-2.4697 2.3282l-0.14225 4.8217q-0.070772 2.399 2.3282 2.4697l7.7391 0.22832q2.399 0.070772 2.4697-2.3282z" clip-path="url(#a)" fill="#fff" stroke="#fff"/>
<g clip-path="url(#a)">
<g transform="translate(198.15 390.46) rotate(-88.31) scale(.08 -.08)">
<use xlink:href="#w"/>
</g>
</g>
<path d="m274.59 172.19 4.733 2.7471q2.0757 1.2048 3.2805-0.87093l3.8866-6.6963q1.2048-2.0757-0.87092-3.2805l-4.733-2.7471q-2.0757-1.2048-3.2805 0.87092l-3.8866 6.6963q-1.2048 2.0757 0.87093 3.2805z" clip-path="url(#a)" fill="#fff" stroke="#fff"/>
<g clip-path="url(#a)">
<g transform="translate(276.63 168.67) rotate(30.132) scale(.08 -.08)">
<use xlink:href="#p"/>
</g>
</g>
<path d="m140.68 392.2 1.374-5.2972q0.60256-2.3231-1.7206-2.9257l-7.4945-1.9439q-2.3231-0.60256-2.9257 1.7206l-1.374 5.2972q-0.60256 2.3231 1.7206 2.9257l7.4945 1.9439q2.3231 0.60256 2.9257-1.7206z" clip-path="url(#a)" fill="#fff" stroke="#fff"/>
<g clip-path="url(#a)">
<g transform="translate(136.75 391.18) rotate(-75.459) scale(.08 -.08)">
<use xlink:href="#p"/>
</g>
</g>
<path d="m181.95 678.24v33.808q0 2.4 2.4 2.4h7.7425q2.4 0 2.4-2.4v-33.808q0-2.4-2.4-2.4h-7.7425q-2.4 0-2.4 2.4z" clip-path="url(#a)" fill="#fff" stroke="#fff"/>
<g clip-path="url(#a)">
<g transform="translate(186.01 678.24) rotate(90) scale(.08 -.08)">
<use xlink:href="#l"/>
<use x="44.083984" xlink:href="#f"/>
<use x="105.607422" xlink:href="#i"/>
<use x="144.970703" xlink:href="#k"/>
<use x="242.382812" xlink:href="#h"/>
<use x="270.166016" xlink:href="#g"/>
<use x="333.544922" xlink:href="#e"/>
<use x="394.824219" xlink:href="#j"/>
</g>
</g>
<path d="m299.6 393.68 2.0807-5.9438q0.79298-2.2652-1.4722-3.0582l-7.3077-2.5582q-2.2652-0.79298-3.0582 1.4722l-2.0807 5.9438q-0.79298 2.2652 1.4722 3.0582l7.3077 2.5582q2.2652 0.79298 3.0582-1.4722z" clip-path="url(#a)" fill="#fff" stroke="#fff"/>
<g clip-path="url(#a)">
<defs>
<path id="au" d="m39.406 66.219q-10.75 0-17.078-8.0156-6.3125-8-6.3125-21.828 0-13.766 6.3125-21.781 6.3281-8 17.078-8 10.734 0 17.016 8 6.2812 8.0156 6.2812 21.781 0 13.828-6.2812 21.828-6.2812 8.0156-17.016 8.0156zm13.812-64.906 13-14.203h-11.922l-10.797 11.672q-1.6094-0.09375-2.4688-0.14062-0.84375-0.0625-1.625-0.0625-15.375 0-24.594 10.281-9.2031 10.281-9.2031 27.516 0 17.281 9.2031 27.562 9.2188 10.281 24.594 10.281 15.328 0 24.5-10.281 9.1875-10.281 9.1875-27.562 0-12.688-5.1094-21.734-5.0938-9.0312-14.766-13.328z"/>
</defs>
<g transform="translate(295.76 392.34) rotate(-70.706) scale(.08 -.08)">
<use xlink:href="#au"/>
</g>
</g>
<path d="m335.19 392.34 0.8458-5.5218q0.36338-2.3723-2.009-2.7357l-7.6532-1.1723q-2.3723-0.36338-2.7357 2.009l-0.8458 5.5218q-0.36338 2.3723 2.009 2.7357l7.6532 1.1723q2.3723 0.36338 2.7357-2.009z" clip-path="url(#a)" fill="#fff" stroke="#fff"/>
<g clip-path="url(#a)">
<defs>
<path id="s" d="m64.406 67.281v-10.391q-4.9844 4.6406-10.625 6.9219-5.6406 2.2969-11.984 2.2969-12.5 0-19.141-7.6406t-6.6406-22.094q0-14.406 6.6406-22.047t19.141-7.6406q6.3438 0 11.984 2.2969t10.625 6.9375v-10.312q-5.1719-3.5156-10.969-5.2812-5.7812-1.75-12.219-1.75-16.562 0-26.094 10.125-9.5156 10.141-9.5156 27.672 0 17.578 9.5156 27.703 9.5312 10.141 26.094 10.141 6.5312 0 12.312-1.7344 5.7969-1.7344 10.875-5.2031z"/>
</defs>
<g transform="translate(331.17 391.73) rotate(-81.291) scale(.08 -.08)">
<use xlink:href="#s"/>
</g>
</g>
<path d="m440.02 261.12 4.5239 2.2555q2.1478 1.0709 3.2187-1.077l3.4547-6.929q1.0709-2.1478-1.077-3.2187l-4.5239-2.2555q-2.1478-1.0709-3.2187 1.077l-3.4547 6.929q-1.0709 2.1478 1.077 3.2187z" clip-path="url(#a)" fill="#fff" stroke="#fff"/>
<g clip-path="url(#a)">
<defs>
<path id="r" d="m9.8125 72.906h46.094v-8.3125h-36.234v-21.578h34.719v-8.2969h-34.719v-26.422h37.109v-8.2969h-46.969z"/>
</defs>
<g transform="translate(441.84 257.48) rotate(26.5) scale(.08 -.08)">
<use xlink:href="#r"/>
</g>
</g>
<path d="m230.8 612.09 0.9062-4.9731q0.43024-2.3611-1.9309-2.7914l-7.6171-1.388q-2.3611-0.43024-2.7914 1.9309l-0.9062 4.9731q-0.43024 2.3611 1.9309 2.7914l7.6171 1.388q2.3611 0.43024 2.7914-1.9309z" clip-path="url(#a)" fill="#fff" stroke="#fff"/>
<g clip-path="url(#a)">
<g transform="translate(226.8 611.36) rotate(-79.673) scale(.08 -.08)">
<use xlink:href="#r"/>
</g>
</g>
<path d="m234.32 606.85 1.0014 5.4958q0.43024 2.3611 2.7914 1.9309l7.6171-1.388q2.3611-0.43024 1.9309-2.7914l-1.0014-5.4958q-0.43024-2.3611-2.7914-1.9309l-7.6171 1.388q-2.3611 0.43024-1.9309 2.7914z" clip-path="url(#a)" fill="#fff" stroke="#fff"/>
<g clip-path="url(#a)">
<g transform="translate(238.31 606.13) rotate(79.673) scale(.08 -.08)">
<use xlink:href="#s"/>
</g>
</g>
<path d="m298.57 612.52 1.1703-5.4342q0.50526-2.3462-1.841-2.8515l-7.569-1.63q-2.3462-0.50526-2.8515 1.841l-1.1703 5.4342q-0.50526 2.3462 1.841 2.8515l7.569 1.63q2.3462 0.50526 2.8515-1.841z" clip-path="url(#a)" fill="#fff" stroke="#fff"/>
<g clip-path="url(#a)">
<defs>
<path id="t" d="m44.391 34.188q3.1719-1.0781 6.1719-4.5938t6.0312-9.6719l10.016-19.922h-10.609l-9.3125 18.703q-3.625 7.3281-7.0156 9.7188t-9.25 2.3906h-10.75v-30.812h-9.8594v72.906h22.266q12.5 0 18.656-5.2344 6.1562-5.2188 6.1562-15.766 0-6.8906-3.2031-11.438-3.2031-4.5312-9.2969-6.2812zm-24.719 30.609v-25.875h12.406q7.125 0 10.766 3.2969t3.6406 9.6875-3.6406 9.6406-10.766 3.25z"/>
</defs>
<g transform="translate(294.6 611.66) rotate(-77.847) scale(.08 -.08)">
<use xlink:href="#t"/>
</g>
</g>
<path d="m304.17 603.35 2.7887 12.949q0.50526 2.3462 2.8515 1.841l7.8207-1.6842q2.3462-0.50526 1.841-2.8515l-2.7887-12.949q-0.50526-2.3462-2.8515-1.841l-7.8207 1.6842q-2.3462 0.50526-1.841 2.8515z" clip-path="url(#a)" fill="#fff" stroke="#fff"/>
<g clip-path="url(#a)">
<defs>
<path id="ah" d="m53.516 70.516v-9.625q-5.6094 2.6875-10.594 4-4.9844 1.3281-9.625 1.3281-8.0469 0-12.422-3.125t-4.375-8.8906q0-4.8438 2.9062-7.3125 2.9062-2.4531 11.016-3.9688l5.9531-1.2188q11.031-2.1094 16.281-7.4062t5.25-14.172q0-10.609-7.1094-16.078-7.0938-5.4688-20.812-5.4688-5.1719 0-11.016 1.1719-5.8281 1.1719-12.078 3.4688v10.156q6-3.3594 11.766-5.0781 5.7656-1.7031 11.328-1.7031 8.4375 0 13.031 3.3125 4.5938 3.3281 4.5938 9.4844 0 5.3594-3.2969 8.3906t-10.812 4.5469l-6.0156 1.1719q-11.031 2.1875-15.969 6.875-4.9219 4.6875-4.9219 13.047 0 9.6719 6.8125 15.234t18.766 5.5625q5.1406 0 10.453-0.9375 5.3281-0.92188 10.891-2.7656z"/>
<path id="ap" d="m21 76.422v-100h-8.2969v100z"/>
</defs>
<g transform="translate(308.36 602.45) rotate(77.847) scale(.08 -.08)">
<use xlink:href="#ah"/>
<use x="63.476562" xlink:href="#ap"/>
<use x="97.167969" xlink:href="#p"/>
</g>
</g>
<path d="m452.14 481.73 2.4453-4.992q1.0558-2.1553-1.0995-3.2111l-6.9531-3.4059q-2.1553-1.0558-3.2111 1.0995l-2.4453 4.992q-1.0558 2.1553 1.0995 3.2111l6.9531 3.4059q2.1553 1.0558 3.2111-1.0995z" clip-path="url(#a)" fill="#fff" stroke="#fff"/>
<g clip-path="url(#a)">
<g transform="translate(448.49 479.95) rotate(-63.902) scale(.08 -.08)">
<use xlink:href="#t"/>
</g>
</g>
<path d="m485.66 438.03 2.2871-5.7197q0.8911-2.2284-1.3373-3.1195l-7.189-2.8747q-2.2284-0.8911-3.1195 1.3373l-2.2871 5.7197q-0.8911 2.2284 1.3373 3.1195l7.189 2.8747q2.2284 0.8911 3.1195-1.3373z" clip-path="url(#a)" fill="#fff" stroke="#fff"/>
<g clip-path="url(#a)">
<defs>
<path id="ao" d="m19.672 64.797v-56.688h11.922q15.094 0 22.094 6.8281 7 6.8438 7 21.594 0 14.641-7 21.453t-22.094 6.8125zm-9.8594 8.1094h20.266q21.188 0 31.094-8.8125 9.9219-8.8125 9.9219-27.562 0-18.859-9.9688-27.703-9.9531-8.8281-31.047-8.8281h-20.266z"/>
</defs>
<g transform="translate(481.88 436.53) rotate(-68.205) scale(.08 -.08)">
<use xlink:href="#ao"/>
</g>
</g>
<path d="m523.14 479.36 0.43404-4.5807q0.2264-2.3893-2.1629-2.6157l-7.708-0.73037q-2.3893-0.2264-2.6157 2.1629l-0.43404 4.5807q-0.2264 2.3893 2.1629 2.6157l7.708 0.73037q2.3893 0.2264 2.6157-2.1629z" clip-path="url(#a)" fill="#fff" stroke="#fff"/>
<g clip-path="url(#a)">
<g transform="translate(519.1 478.98) rotate(-84.587) scale(.08 -.08)">
<use xlink:href="#x"/>
</g>
</g>
<path d="m536.75 474.41 0.25724 4.8169q0.12799 2.3966 2.5246 2.2686l7.7315-0.41289q2.3966-0.12799 2.2686-2.5246l-0.25724-4.8169q-0.12799-2.3966-2.5246-2.2686l-7.7315 0.41289q-2.3966 0.12799-2.2686 2.5246z" clip-path="url(#a)" fill="#fff" stroke="#fff"/>
<g clip-path="url(#a)">
<g transform="translate(540.81 474.19) rotate(86.943) scale(.08 -.08)">
<use xlink:href="#w"/>
</g>
</g>
<path d="m593.17 433.21 2.4545 4.8912q1.0765 2.1451 3.2215 1.0686l6.92-3.4727q2.1451-1.0765 1.0686-3.2215l-2.4545-4.8912q-1.0765-2.1451-3.2215-1.0686l-6.92 3.4727q-2.1451 1.0765-1.0686 3.2215z" clip-path="url(#a)" fill="#fff" stroke="#fff"/>
<g clip-path="url(#a)">
<g transform="translate(596.8 431.39) rotate(63.351) scale(.08 -.08)">
<use xlink:href="#p"/>
</g>
</g>
<path d="m715.76 350.44 5.3249 1.2625q2.3353 0.55366 2.8889-1.7816l1.7861-7.5337q0.55366-2.3353-1.7816-2.8889l-5.3249-1.2625q-2.3353-0.55366-2.8889 1.7816l-1.7861 7.5337q-0.55366 2.3353 1.7816 2.8889z" clip-path="url(#a)" fill="#fff" stroke="#fff"/>
<g clip-path="url(#a)">
<g transform="translate(716.69 346.49) rotate(13.338) scale(.08 -.08)">
<use xlink:href="#p"/>
</g>
</g>
<path d="m431.44 482.07 2.833-4.6821q1.2424-2.0534-0.81092-3.2958l-6.6243-4.0082q-2.0534-1.2424-3.2958 0.81092l-2.833 4.6821q-1.2424 2.0534 0.81092 3.2958l6.6243 4.0082q2.0534 1.2424 3.2958-0.81092z" clip-path="url(#a)" fill="#fff" stroke="#fff"/>
<g clip-path="url(#a)">
<g transform="translate(427.96 479.96) rotate(-58.823) scale(.08 -.08)">
<use xlink:href="#p"/>
</g>
</g>
<path d="m355.42 678.24v33.808q0 2.4 2.4 2.4h7.7425q2.4 0 2.4-2.4v-33.808q0-2.4-2.4-2.4h-7.7425q-2.4 0-2.4 2.4z" clip-path="url(#a)" fill="#fff" stroke="#fff"/>
<g clip-path="url(#a)">
<g transform="translate(359.49 678.24) rotate(90) scale(.08 -.08)">
<use xlink:href="#l"/>
<use x="44.083984" xlink:href="#f"/>
<use x="105.607422" xlink:href="#i"/>
<use x="144.970703" xlink:href="#k"/>
<use x="242.382812" xlink:href="#h"/>
<use x="270.166016" xlink:href="#g"/>
<use x="333.544922" xlink:href="#e"/>
<use x="394.824219" xlink:href="#j"/>
</g>
</g>
<path d="m422.1 612.31 1.1788-4.4477q0.61488-2.3199-1.705-2.9348l-7.4841-1.9836q-2.3199-0.61488-2.9348 1.705l-1.1788 4.4477q-0.61488 2.3199 1.705 2.9348l7.4841 1.9836q2.3199 0.61488 2.9348-1.705z" clip-path="url(#a)" fill="#fff" stroke="#fff"/>
<g clip-path="url(#a)">
<g transform="translate(418.17 611.27) rotate(-75.155) scale(.08 -.08)">
<use xlink:href="#x"/>
</g>
</g>
<path d="m432.98 607.38 1.4312 5.3998q0.61488 2.3199 2.9348 1.705l7.4841-1.9836q2.3199-0.61488 1.705-2.9348l-1.4312-5.3998q-0.61488-2.3199-2.9348-1.705l-7.4841 1.9836q-2.3199 0.61488-1.705 2.9348z" clip-path="url(#a)" fill="#fff" stroke="#fff"/>
<g clip-path="url(#a)">
<g transform="translate(436.91 606.34) rotate(75.155) scale(.08 -.08)">
<use xlink:href="#s"/>
</g>
</g>
<path d="m494.2 678.24v33.808q0 2.4 2.4 2.4h7.7425q2.4 0 2.4-2.4v-33.808q0-2.4-2.4-2.4h-7.7425q-2.4 0-2.4 2.4z" clip-path="url(#a)" fill="#fff" stroke="#fff"/>
<g clip-path="url(#a)">
<g transform="translate(498.27 678.24) rotate(90) scale(.08 -.08)">
<use xlink:href="#l"/>
<use x="44.083984" xlink:href="#f"/>
<use x="105.607422" xlink:href="#i"/>
<use x="144.970703" xlink:href="#k"/>
<use x="242.382812" xlink:href="#h"/>
<use x="270.166016" xlink:href="#g"/>
<use x="333.544922" xlink:href="#e"/>
<use x="394.824219" xlink:href="#j"/>
</g>
</g>
<path d="m546.25 678.24v33.808q0 2.4 2.4 2.4h7.7425q2.4 0 2.4-2.4v-33.808q0-2.4-2.4-2.4h-7.7425q-2.4 0-2.4 2.4z" clip-path="url(#a)" fill="#fff" stroke="#fff"/>
<g clip-path="url(#a)">
<g transform="translate(550.31 678.24) rotate(90) scale(.08 -.08)">
<use xlink:href="#l"/>
<use x="44.083984" xlink:href="#f"/>
<use x="105.607422" xlink:href="#i"/>
<use x="144.970703" xlink:href="#k"/>
<use x="242.382812" xlink:href="#h"/>
<use x="270.166016" xlink:href="#g"/>
<use x="333.544922" xlink:href="#e"/>
<use x="394.824219" xlink:href="#j"/>
</g>
</g>
<path d="m640.64 614.08 2.8243-4.1924q1.3409-1.9905-0.64957-3.3314l-6.4213-4.3258q-1.9905-1.3409-3.3314 0.64957l-2.8243 4.1924q-1.3409 1.9905 0.64957 3.3314l6.4213 4.3258q1.9905 1.3409 3.3314-0.64957z" clip-path="url(#a)" fill="#fff" stroke="#fff"/>
<g clip-path="url(#a)">
<g transform="translate(637.26 611.81) rotate(-56.033) scale(.08 -.08)">
<use xlink:href="#r"/>
</g>
</g>
<path d="m672 611.07 0.055822-5.0547q0.026503-2.3999-2.3734-2.4264l-7.742-0.0855q-2.3999-0.026503-2.4264 2.3734l-0.055822 5.0547q-0.026503 2.3999 2.3734 2.4264l7.742 0.0855q2.3999 0.026503 2.4264-2.3734z" clip-path="url(#a)" fill="#fff" stroke="#fff"/>
<g clip-path="url(#a)">
<g transform="translate(667.94 611.03) rotate(-89.367) scale(.08 -.08)">
<use xlink:href="#r"/>
</g>
</g>
<path d="m689.36 609.72 3.156 4.6093q1.3559 1.9803 3.3362 0.62438l6.3885-4.3742q1.9803-1.3559 0.62437-3.3362l-3.156-4.6093q-1.3559-1.9803-3.3362-0.62437l-6.3885 4.3742q-1.9803 1.3559-0.62437 3.3362z" clip-path="url(#a)" fill="#fff" stroke="#fff"/>
<g clip-path="url(#a)">
<g transform="translate(692.72 607.42) rotate(55.6) scale(.08 -.08)">
<use xlink:href="#s"/>
</g>
</g>
<path d="m852.4 525.68 2.2492-5.0834q0.97108-2.1948-1.2237-3.1658l-7.0804-3.1328q-2.1948-0.97108-3.1658 1.2237l-2.2492 5.0834q-0.97108 2.1948 1.2237 3.1658l7.0804 3.1328q2.1948 0.97108 3.1658-1.2237z" clip-path="url(#a)" fill="#fff" stroke="#fff"/>
<g clip-path="url(#a)">
<g transform="translate(848.68 524.04) rotate(-66.133) scale(.08 -.08)">
<use xlink:href="#t"/>
</g>
</g>
<path d="m886.73 524.25 0.94176-4.9665q0.44713-2.358-1.9109-2.8051l-7.6069-1.4425q-2.358-0.44713-2.8051 1.9109l-0.94176 4.9665q-0.44713 2.358 1.9109 2.8051l7.6069 1.4425q2.358 0.44713 2.8051-1.9109z" clip-path="url(#a)" fill="#fff" stroke="#fff"/>
<g clip-path="url(#a)">
<g transform="translate(882.73 523.5) rotate(-79.263) scale(.08 -.08)">
<use xlink:href="#r"/>
</g>
</g>
<path d="m909.27 518.28 0.41337 5.5709q0.17759 2.3934 2.571 2.2158l7.7213-0.57292q2.3934-0.17759 2.2158-2.571l-0.41336-5.5709q-0.17759-2.3934-2.571-2.2158l-7.7213 0.57292q-2.3934 0.17759-2.2158 2.571z" clip-path="url(#a)" fill="#fff" stroke="#fff"/>
<g clip-path="url(#a)">
<g transform="translate(913.32 517.98) rotate(85.756) scale(.08 -.08)">
<use xlink:href="#s"/>
</g>
</g>
<path d="m973.95 437.18 4.3348 2.6005q2.0581 1.2346 3.2927-0.82344l3.983-6.6394q1.2346-2.0581-0.82344-3.2927l-4.3348-2.6005q-2.0581-1.2346-3.2927 0.82344l-3.983 6.6394q-1.2346 2.0581 0.82344 3.2927z" clip-path="url(#a)" fill="#fff" stroke="#fff"/>
<g clip-path="url(#a)">
<g transform="translate(976.04 433.7) rotate(30.96) scale(.08 -.08)">
<use xlink:href="#r"/>
</g>
</g>
<path d="m783.33 678.24v33.808q0 2.4 2.4 2.4h7.7425q2.4 0 2.4-2.4v-33.808q0-2.4-2.4-2.4h-7.7425q-2.4 0-2.4 2.4z" clip-path="url(#a)" fill="#fff" stroke="#fff"/>
<g clip-path="url(#a)">
<g transform="translate(787.39 678.24) rotate(90) scale(.08 -.08)">
<use xlink:href="#l"/>
<use x="44.083984" xlink:href="#f"/>
<use x="105.607422" xlink:href="#i"/>
<use x="144.970703" xlink:href="#k"/>
<use x="242.382812" xlink:href="#h"/>
<use x="270.166016" xlink:href="#g"/>
<use x="333.544922" xlink:href="#e"/>
<use x="394.824219" xlink:href="#j"/>
</g>
</g>
<path d="m849.83 678.24v33.808q0 2.4 2.4 2.4h7.7425q2.4 0 2.4-2.4v-33.808q0-2.4-2.4-2.4h-7.7425q-2.4 0-2.4 2.4z" clip-path="url(#a)" fill="#fff" stroke="#fff"/>
<g clip-path="url(#a)">
<g transform="translate(853.89 678.24) rotate(90) scale(.08 -.08)">
<use xlink:href="#l"/>
<use x="44.083984" xlink:href="#f"/>
<use x="105.607422" xlink:href="#i"/>
<use x="144.970703" xlink:href="#k"/>
<use x="242.382812" xlink:href="#h"/>
<use x="270.166016" xlink:href="#g"/>
<use x="333.544922" xlink:href="#e"/>
<use x="394.824219" xlink:href="#j"/>
</g>
</g>
<path d="m919.22 678.24v33.808q0 2.4 2.4 2.4h7.7425q2.4 0 2.4-2.4v-33.808q0-2.4-2.4-2.4h-7.7425q-2.4 0-2.4 2.4z" clip-path="url(#a)" fill="#fff" stroke="#fff"/>
<g clip-path="url(#a)">
<g transform="translate(923.28 678.24) rotate(90) scale(.08 -.08)">
<use xlink:href="#l"/>
<use x="44.083984" xlink:href="#f"/>
<use x="105.607422" xlink:href="#i"/>
<use x="144.970703" xlink:href="#k"/>
<use x="242.382812" xlink:href="#h"/>
<use x="270.166016" xlink:href="#g"/>
<use x="333.544922" xlink:href="#e"/>
<use x="394.824219" xlink:href="#j"/>
</g>
</g>
<path d="m992.56 570.52 3.2179-4.4264q1.4112-1.9412-0.53001-3.3525l-6.2625-4.5527q-1.9412-1.4112-3.3525 0.53001l-3.2179 4.4264q-1.4112 1.9412 0.53001 3.3525l6.2625 4.5527q1.9412 1.4112 3.3525-0.53001z" clip-path="url(#a)" fill="#fff" stroke="#fff"/>
<g clip-path="url(#a)">
<g transform="translate(989.27 568.13) rotate(-53.984) scale(.08 -.08)">
<use xlink:href="#p"/>
</g>
</g>
<path d="m1030.5 568.79 1.4448-4.6023q0.71882-2.2898-1.571-3.0086l-7.3871-2.3189q-2.2898-0.71882-3.0086 1.571l-1.4448 4.6023q-0.71882 2.2898 1.571 3.0086l7.3871 2.3189q2.2898 0.71882 3.0086-1.571z" clip-path="url(#a)" fill="#fff" stroke="#fff"/>
<g clip-path="url(#a)">
<g transform="translate(1026.6 567.58) rotate(-72.572) scale(.08 -.08)">
<use xlink:href="#w"/>
</g>
</g>
<path d="m1138.6 525.44 4.9305 2.3746q2.1623 1.0414 3.2037-1.1209l3.3596-6.9756q1.0414-2.1623-1.1209-3.2037l-4.9305-2.3746q-2.1623-1.0414-3.2037 1.1209l-3.3596 6.9756q-1.0414 2.1623 1.1209 3.2037z" clip-path="url(#a)" fill="#fff" stroke="#fff"/>
<g clip-path="url(#a)">
<g transform="translate(1140.4 521.78) rotate(25.716) scale(.08 -.08)">
<use xlink:href="#p"/>
</g>
</g>
<path d="m991.5 678.24v33.808q0 2.4 2.4 2.4h7.7425q2.4 0 2.4-2.4v-33.808q0-2.4-2.4-2.4h-7.7425q-2.4 0-2.4 2.4z" clip-path="url(#a)" fill="#fff" stroke="#fff"/>
<g clip-path="url(#a)">
<g transform="translate(995.56 678.24) rotate(90) scale(.08 -.08)">
<use xlink:href="#l"/>
<use x="44.083984" xlink:href="#f"/>
<use x="105.607422" xlink:href="#i"/>
<use x="144.970703" xlink:href="#k"/>
<use x="242.382812" xlink:href="#h"/>
<use x="270.166016" xlink:href="#g"/>
<use x="333.544922" xlink:href="#e"/>
<use x="394.824219" xlink:href="#j"/>
</g>
</g>
<path d="m1154.4 615.32 4.8932-2.6374q2.1127-1.1387 0.97396-3.2514l-3.6735-6.8155q-1.1387-2.1127-3.2514-0.97396l-4.8932 2.6374q-2.1127 1.1387-0.97396 3.2514l3.6735 6.8155q1.1387 2.1127 3.2514 0.97396z" clip-path="url(#a)" fill="#fff" stroke="#fff"/>
<g clip-path="url(#a)">
<g transform="translate(1152.5 611.74) rotate(-28.324) scale(.08 -.08)">
<use xlink:href="#t"/>
</g>
</g>
<path d="m1195.9 614.48 3.1879-3.318q1.6628-1.7306-0.06785-3.3934l-5.5831-5.3642q-1.7306-1.6628-3.3934 0.06785l-3.1879 3.318q-1.6628 1.7306 0.067851 3.3934l5.5831 5.3642q1.7306 1.6628 3.3934-0.067851z" clip-path="url(#a)" fill="#fff" stroke="#fff"/>
<g clip-path="url(#a)">
<g transform="translate(1192.9 611.67) rotate(-46.145) scale(.08 -.08)">
<use xlink:href="#x"/>
</g>
</g>
<path d="m1239.6 611.76 0.20397-6.1566q0.07947-2.3987-2.3192-2.4782l-7.7383-0.25638q-2.3987-0.079471-2.4782 2.3192l-0.20397 6.1566q-0.079471 2.3987 2.3192 2.4782l7.7383 0.25638q2.3987 0.07947 2.4782-2.3192z" clip-path="url(#a)" fill="#fff" stroke="#fff"/>
<g clip-path="url(#a)">
<g transform="translate(1235.5 611.63) rotate(-88.102) scale(.08 -.08)">
<use xlink:href="#ao"/>
</g>
</g>
<path d="m1266.1 607.97 9.0087 9.7112q1.6322 1.7595 3.3917 0.12728l5.865-5.4408q1.7595-1.6322 0.12728-3.3917l-9.0087-9.7112q-1.6322-1.7595-3.3917-0.12728l-5.865 5.4408q-1.7595 1.6322-0.12728 3.3917z" clip-path="url(#a)" fill="#fff" stroke="#fff"/>
<g clip-path="url(#a)">
<g transform="translate(1269.3 605.06) rotate(47.149) scale(.08 -.08)">
<use xlink:href="#ah"/>
<use x="63.476562" xlink:href="#ap"/>
<use x="97.167969" xlink:href="#p"/>
</g>
</g>
<path d="m1313.2 612.69 5.1938 2.7029q2.129 1.1079 3.2369-1.021l3.5742-6.8681q1.1079-2.129-1.021-3.2369l-5.1938-2.7029q-2.129-1.1079-3.2369 1.021l-3.5742 6.8681q-1.1079 2.129 1.021 3.2369z" clip-path="url(#a)" fill="#fff" stroke="#fff"/>
<g clip-path="url(#a)">
<defs>
<path id="at" d="m8.6875 72.906h9.9219v-44.297q0-11.719 4.2344-16.875 4.25-5.1406 13.781-5.1406 9.4688 0 13.719 5.1406 4.25 5.1562 4.25 16.875v44.297h9.9062v-45.516q0-14.25-7.0625-21.531-7.0469-7.2812-20.812-7.2812-13.828 0-20.891 7.2812-7.0469 7.2812-7.0469 21.531z"/>
</defs>
<g transform="translate(1315.1 609.08) rotate(27.493) scale(.08 -.08)">
<use xlink:href="#at"/>
</g>
</g>
<path d="m1066.7 678.24v33.808q0 2.4 2.4 2.4h7.7425q2.4 0 2.4-2.4v-33.808q0-2.4-2.4-2.4h-7.7425q-2.4 0-2.4 2.4z" clip-path="url(#a)" fill="#fff" stroke="#fff"/>
<g clip-path="url(#a)">
<g transform="translate(1070.7 678.24) rotate(90) scale(.08 -.08)">
<use xlink:href="#l"/>
<use x="44.083984" xlink:href="#f"/>
<use x="105.607422" xlink:href="#i"/>
<use x="144.970703" xlink:href="#k"/>
<use x="242.382812" xlink:href="#h"/>
<use x="270.166016" xlink:href="#g"/>
<use x="333.544922" xlink:href="#e"/>
<use x="394.824219" xlink:href="#j"/>
</g>
</g>
<path d="m1144.7 678.24v33.808q0 2.4 2.4 2.4h7.7425q2.4 0 2.4-2.4v-33.808q0-2.4-2.4-2.4h-7.7425q-2.4 0-2.4 2.4z" clip-path="url(#a)" fill="#fff" stroke="#fff"/>
<g clip-path="url(#a)">
<g transform="translate(1148.8 678.24) rotate(90) scale(.08 -.08)">
<use xlink:href="#l"/>
<use x="44.083984" xlink:href="#f"/>
<use x="105.607422" xlink:href="#i"/>
<use x="144.970703" xlink:href="#k"/>
<use x="242.382812" xlink:href="#h"/>
<use x="270.166016" xlink:href="#g"/>
<use x="333.544922" xlink:href="#e"/>
<use x="394.824219" xlink:href="#j"/>
</g>
</g>
<path d="m1225.7 678.24v33.808q0 2.4 2.4 2.4h7.7425q2.4 0 2.4-2.4v-33.808q0-2.4-2.4-2.4h-7.7425q-2.4 0-2.4 2.4z" clip-path="url(#a)" fill="#fff" stroke="#fff"/>
<g clip-path="url(#a)">
<g transform="translate(1229.8 678.24) rotate(90) scale(.08 -.08)">
<use xlink:href="#l"/>
<use x="44.083984" xlink:href="#f"/>
<use x="105.607422" xlink:href="#i"/>
<use x="144.970703" xlink:href="#k"/>
<use x="242.382812" xlink:href="#h"/>
<use x="270.166016" xlink:href="#g"/>
<use x="333.544922" xlink:href="#e"/>
<use x="394.824219" xlink:href="#j"/>
</g>
</g>
<path d="m1309.5 678.24v33.808q0 2.4 2.4 2.4h7.7425q2.4 0 2.4-2.4v-33.808q0-2.4-2.4-2.4h-7.7425q-2.4 0-2.4 2.4z" clip-path="url(#a)" fill="#fff" stroke="#fff"/>
<g clip-path="url(#a)">
<g transform="translate(1313.6 678.24) rotate(90) scale(.08 -.08)">
<use xlink:href="#l"/>
<use x="44.083984" xlink:href="#f"/>
<use x="105.607422" xlink:href="#i"/>
<use x="144.970703" xlink:href="#k"/>
<use x="242.382812" xlink:href="#h"/>
<use x="270.166016" xlink:href="#g"/>
<use x="333.544922" xlink:href="#e"/>
<use x="394.824219" xlink:href="#j"/>
</g>
</g>
<path d="m601.18 678.24v33.808q0 2.4 2.4 2.4h7.7425q2.4 0 2.4-2.4v-33.808q0-2.4-2.4-2.4h-7.7425q-2.4 0-2.4 2.4z" clip-path="url(#a)" fill="#fff" stroke="#fff"/>
<g clip-path="url(#a)">
<g transform="translate(605.24 678.24) rotate(90) scale(.08 -.08)">
<use xlink:href="#l"/>
<use x="44.083984" xlink:href="#f"/>
<use x="105.607422" xlink:href="#i"/>
<use x="144.970703" xlink:href="#k"/>
<use x="242.382812" xlink:href="#h"/>
<use x="270.166016" xlink:href="#g"/>
<use x="333.544922" xlink:href="#e"/>
<use x="394.824219" xlink:href="#j"/>
</g>
</g>
<path d="m659.01 678.24v33.808q0 2.4 2.4 2.4h7.7425q2.4 0 2.4-2.4v-33.808q0-2.4-2.4-2.4h-7.7425q-2.4 0-2.4 2.4z" clip-path="url(#a)" fill="#fff" stroke="#fff"/>
<g clip-path="url(#a)">
<g transform="translate(663.07 678.24) rotate(90) scale(.08 -.08)">
<use xlink:href="#l"/>
<use x="44.083984" xlink:href="#f"/>
<use x="105.607422" xlink:href="#i"/>
<use x="144.970703" xlink:href="#k"/>
<use x="242.382812" xlink:href="#h"/>
<use x="270.166016" xlink:href="#g"/>
<use x="333.544922" xlink:href="#e"/>
<use x="394.824219" xlink:href="#j"/>
</g>
</g>
<path d="m719.72 678.24v33.808q0 2.4 2.4 2.4h7.7425q2.4 0 2.4-2.4v-33.808q0-2.4-2.4-2.4h-7.7425q-2.4 0-2.4 2.4z" clip-path="url(#a)" fill="#fff" stroke="#fff"/>
<g clip-path="url(#a)">
<g transform="translate(723.79 678.24) rotate(90) scale(.08 -.08)">
<use xlink:href="#l"/>
<use x="44.083984" xlink:href="#f"/>
<use x="105.607422" xlink:href="#i"/>
<use x="144.970703" xlink:href="#k"/>
<use x="242.382812" xlink:href="#h"/>
<use x="270.166016" xlink:href="#g"/>
<use x="333.544922" xlink:href="#e"/>
<use x="394.824219" xlink:href="#j"/>
</g>
</g>
<path d="m398.79 678.24v33.808q0 2.4 2.4 2.4h7.7425q2.4 0 2.4-2.4v-33.808q0-2.4-2.4-2.4h-7.7425q-2.4 0-2.4 2.4z" clip-path="url(#a)" fill="#fff" stroke="#fff"/>
<g clip-path="url(#a)">
<g transform="translate(402.86 678.24) rotate(90) scale(.08 -.08)">
<use xlink:href="#l"/>
<use x="44.083984" xlink:href="#f"/>
<use x="105.607422" xlink:href="#i"/>
<use x="144.970703" xlink:href="#k"/>
<use x="242.382812" xlink:href="#h"/>
<use x="270.166016" xlink:href="#g"/>
<use x="333.544922" xlink:href="#e"/>
<use x="394.824219" xlink:href="#j"/>
</g>
</g>
<path d="m445.05 678.24v33.808q0 2.4 2.4 2.4h7.7425q2.4 0 2.4-2.4v-33.808q0-2.4-2.4-2.4h-7.7425q-2.4 0-2.4 2.4z" clip-path="url(#a)" fill="#fff" stroke="#fff"/>
<g clip-path="url(#a)">
<g transform="translate(449.12 678.24) rotate(90) scale(.08 -.08)">
<use xlink:href="#l"/>
<use x="44.083984" xlink:href="#f"/>
<use x="105.607422" xlink:href="#i"/>
<use x="144.970703" xlink:href="#k"/>
<use x="242.382812" xlink:href="#h"/>
<use x="270.166016" xlink:href="#g"/>
<use x="333.544922" xlink:href="#e"/>
<use x="394.824219" xlink:href="#j"/>
</g>
</g>
<path d="m277.36 678.24v33.808q0 2.4 2.4 2.4h7.7425q2.4 0 2.4-2.4v-33.808q0-2.4-2.4-2.4h-7.7425q-2.4 0-2.4 2.4z" clip-path="url(#a)" fill="#fff" stroke="#fff"/>
<g clip-path="url(#a)">
<g transform="translate(281.42 678.24) rotate(90) scale(.08 -.08)">
<use xlink:href="#l"/>
<use x="44.083984" xlink:href="#f"/>
<use x="105.607422" xlink:href="#i"/>
<use x="144.970703" xlink:href="#k"/>
<use x="242.382812" xlink:href="#h"/>
<use x="270.166016" xlink:href="#g"/>
<use x="333.544922" xlink:href="#e"/>
<use x="394.824219" xlink:href="#j"/>
</g>
</g>
<path d="m314.95 678.24v33.808q0 2.4 2.4 2.4h7.7425q2.4 0 2.4-2.4v-33.808q0-2.4-2.4-2.4h-7.7425q-2.4 0-2.4 2.4z" clip-path="url(#a)" fill="#fff" stroke="#fff"/>
<g clip-path="url(#a)">
<g transform="translate(319.01 678.24) rotate(90) scale(.08 -.08)">
<use xlink:href="#l"/>
<use x="44.083984" xlink:href="#f"/>
<use x="105.607422" xlink:href="#i"/>
<use x="144.970703" xlink:href="#k"/>
<use x="242.382812" xlink:href="#h"/>
<use x="270.166016" xlink:href="#g"/>
<use x="333.544922" xlink:href="#e"/>
<use x="394.824219" xlink:href="#j"/>
</g>
</g>
<path d="m210.86 678.24v33.808q0 2.4 2.4 2.4h7.7425q2.4 0 2.4-2.4v-33.808q0-2.4-2.4-2.4h-7.7425q-2.4 0-2.4 2.4z" clip-path="url(#a)" fill="#fff" stroke="#fff"/>
<g clip-path="url(#a)">
<g transform="translate(214.93 678.24) rotate(90) scale(.08 -.08)">
<use xlink:href="#l"/>
<use x="44.083984" xlink:href="#f"/>
<use x="105.607422" xlink:href="#i"/>
<use x="144.970703" xlink:href="#k"/>
<use x="242.382812" xlink:href="#h"/>
<use x="270.166016" xlink:href="#g"/>
<use x="333.544922" xlink:href="#e"/>
<use x="394.824219" xlink:href="#j"/>
</g>
</g>
<path d="m242.67 678.24v33.808q0 2.4 2.4 2.4h7.7425q2.4 0 2.4-2.4v-33.808q0-2.4-2.4-2.4h-7.7425q-2.4 0-2.4 2.4z" clip-path="url(#a)" fill="#fff" stroke="#fff"/>
<g clip-path="url(#a)">
<g transform="translate(246.73 678.24) rotate(90) scale(.08 -.08)">
<use xlink:href="#l"/>
<use x="44.083984" xlink:href="#f"/>
<use x="105.607422" xlink:href="#i"/>
<use x="144.970703" xlink:href="#k"/>
<use x="242.382812" xlink:href="#h"/>
<use x="270.166016" xlink:href="#g"/>
<use x="333.544922" xlink:href="#e"/>
<use x="394.824219" xlink:href="#j"/>
</g>
</g>
<path d="m60.517 678.24v33.808q0 2.4 2.4 2.4h7.7425q2.4 0 2.4-2.4v-33.808q0-2.4-2.4-2.4h-7.7425q-2.4 0-2.4 2.4z" clip-path="url(#a)" fill="#fff" stroke="#fff"/>
<g clip-path="url(#a)">
<g transform="translate(64.58 678.24) rotate(90) scale(.08 -.08)">
<use xlink:href="#l"/>
<use x="44.083984" xlink:href="#f"/>
<use x="105.607422" xlink:href="#i"/>
<use x="144.970703" xlink:href="#k"/>
<use x="242.382812" xlink:href="#h"/>
<use x="270.166016" xlink:href="#g"/>
<use x="333.544922" xlink:href="#e"/>
<use x="394.824219" xlink:href="#j"/>
</g>
</g>
<path d="m69.19 678.24v33.808q0 2.4 2.4 2.4h7.7425q2.4 0 2.4-2.4v-33.808q0-2.4-2.4-2.4h-7.7425q-2.4 0-2.4 2.4z" clip-path="url(#a)" fill="#fff" stroke="#fff"/>
<g clip-path="url(#a)">
<g transform="translate(73.254 678.24) rotate(90) scale(.08 -.08)">
<use xlink:href="#l"/>
<use x="44.083984" xlink:href="#f"/>
<use x="105.607422" xlink:href="#i"/>
<use x="144.970703" xlink:href="#k"/>
<use x="242.382812" xlink:href="#h"/>
<use x="270.166016" xlink:href="#g"/>
<use x="333.544922" xlink:href="#e"/>
<use x="394.824219" xlink:href="#j"/>
</g>
</g>
<path d="m80.755 678.24v33.808q0 2.4 2.4 2.4h7.7425q2.4 0 2.4-2.4v-33.808q0-2.4-2.4-2.4h-7.7425q-2.4 0-2.4 2.4z" clip-path="url(#a)" fill="#fff" stroke="#fff"/>
<g clip-path="url(#a)">
<g transform="translate(84.819 678.24) rotate(90) scale(.08 -.08)">
<use xlink:href="#l"/>
<use x="44.083984" xlink:href="#f"/>
<use x="105.607422" xlink:href="#i"/>
<use x="144.970703" xlink:href="#k"/>
<use x="242.382812" xlink:href="#h"/>
<use x="270.166016" xlink:href="#g"/>
<use x="333.544922" xlink:href="#e"/>
<use x="394.824219" xlink:href="#j"/>
</g>
</g>
<path d="m116.21 612.49 1.1415-5.4403q0.49286-2.3488-1.856-2.8417l-7.5775-1.59q-2.3488-0.49286-2.8417 1.856l-1.1415 5.4403q-0.49286 2.3488 1.856 2.8417l7.5775 1.59q2.3488 0.49286 2.8417-1.856z" clip-path="url(#a)" fill="#fff" stroke="#fff"/>
<g clip-path="url(#a)">
<g transform="translate(112.23 611.65) rotate(-78.15) scale(.08 -.08)">
<use xlink:href="#t"/>
</g>
</g>
<path d="m125.56 611.07 0.055822-5.0547q0.026503-2.3999-2.3734-2.4264l-7.742-0.0855q-2.3999-0.026503-2.4264 2.3734l-0.055822 5.0547q-0.026503 2.3999 2.3734 2.4264l7.742 0.0855q2.3999 0.026503 2.4264-2.3734z" clip-path="url(#a)" fill="#fff" stroke="#fff"/>
<g clip-path="url(#a)">
<g transform="translate(121.49 611.03) rotate(-89.367) scale(.08 -.08)">
<use xlink:href="#r"/>
</g>
</g>
<path d="m122.71 607.1 1.2048 5.4548q0.51762 2.3435 2.8611 1.8259l7.5603-1.6699q2.3435-0.51762 1.8259-2.8611l-1.2048-5.4548q-0.51762-2.3435-2.8611-1.8259l-7.5603 1.6699q-2.3435 0.51762-1.8259 2.8611z" clip-path="url(#a)" fill="#fff" stroke="#fff"/>
<g clip-path="url(#a)">
<g transform="translate(126.67 606.23) rotate(77.545) scale(.08 -.08)">
<use xlink:href="#s"/>
</g>
</g>
<path d="m95.212 678.24v33.808q0 2.4 2.4 2.4h7.7425q2.4 0 2.4-2.4v-33.808q0-2.4-2.4-2.4h-7.7425q-2.4 0-2.4 2.4z" clip-path="url(#a)" fill="#fff" stroke="#fff"/>
<g clip-path="url(#a)">
<g transform="translate(99.275 678.24) rotate(90) scale(.08 -.08)">
<use xlink:href="#l"/>
<use x="44.083984" xlink:href="#f"/>
<use x="105.607422" xlink:href="#i"/>
<use x="144.970703" xlink:href="#k"/>
<use x="242.382812" xlink:href="#h"/>
<use x="270.166016" xlink:href="#g"/>
<use x="333.544922" xlink:href="#e"/>
<use x="394.824219" xlink:href="#j"/>
</g>
</g>
<path d="m112.56 678.24v33.808q0 2.4 2.4 2.4h7.7425q2.4 0 2.4-2.4v-33.808q0-2.4-2.4-2.4h-7.7425q-2.4 0-2.4 2.4z" clip-path="url(#a)" fill="#fff" stroke="#fff"/>
<g clip-path="url(#a)">
<g transform="translate(116.62 678.24) rotate(90) scale(.08 -.08)">
<use xlink:href="#l"/>
<use x="44.083984" xlink:href="#f"/>
<use x="105.607422" xlink:href="#i"/>
<use x="144.970703" xlink:href="#k"/>
<use x="242.382812" xlink:href="#h"/>
<use x="270.166016" xlink:href="#g"/>
<use x="333.544922" xlink:href="#e"/>
<use x="394.824219" xlink:href="#j"/>
</g>
</g>
<path d="m132.8 678.24v33.808q0 2.4 2.4 2.4h7.7425q2.4 0 2.4-2.4v-33.808q0-2.4-2.4-2.4h-7.7425q-2.4 0-2.4 2.4z" clip-path="url(#a)" fill="#fff" stroke="#fff"/>
<g clip-path="url(#a)">
<g transform="translate(136.86 678.24) rotate(90) scale(.08 -.08)">
<use xlink:href="#l"/>
<use x="44.083984" xlink:href="#f"/>
<use x="105.607422" xlink:href="#i"/>
<use x="144.970703" xlink:href="#k"/>
<use x="242.382812" xlink:href="#h"/>
<use x="270.166016" xlink:href="#g"/>
<use x="333.544922" xlink:href="#e"/>
<use x="394.824219" xlink:href="#j"/>
</g>
</g>
<path d="m1396.3 678.24v33.808q0 2.4 2.4 2.4h7.7425q2.4 0 2.4-2.4v-33.808q0-2.4-2.4-2.4h-7.7425q-2.4 0-2.4 2.4z" clip-path="url(#a)" fill="#fff" stroke="#fff"/>
<g clip-path="url(#a)">
<g transform="translate(1400.3 678.24) rotate(90) scale(.08 -.08)">
<use xlink:href="#l"/>
<use x="44.083984" xlink:href="#f"/>
<use x="105.607422" xlink:href="#i"/>
<use x="144.970703" xlink:href="#k"/>
<use x="242.382812" xlink:href="#h"/>
<use x="270.166016" xlink:href="#g"/>
<use x="333.544922" xlink:href="#e"/>
<use x="394.824219" xlink:href="#j"/>
</g>
</g>
<defs>
<path id="b" d="m0 8.6603c2.2967 0 4.4997-0.9125 6.1237-2.5365 1.624-1.624 2.5365-3.827 2.5365-6.1237s-0.9125-4.4997-2.5365-6.1237c-1.624-1.624-3.827-2.5365-6.1237-2.5365s-4.4997 0.9125-6.1237 2.5365c-1.624 1.624-2.5365 3.827-2.5365 6.1237s0.9125 4.4997 2.5365 6.1237c1.624 1.624 3.827 2.5365 6.1237 2.5365z"/>
</defs>
<g clip-path="url(#a)">
<use x="66.787879" y="738.181818" fill="#ffffff" stroke="#ffffff" xlink:href="#b"/>
</g>
<g clip-path="url(#a)">
<use x="75.461629" y="738.181818" fill="#ffffff" stroke="#ffffff" xlink:href="#b"/>
</g>
<g clip-path="url(#a)">
<use x="87.02663" y="738.181818" fill="#ffffff" stroke="#ffffff" xlink:href="#b"/>
</g>
<g clip-path="url(#a)">
<use x="101.482881" y="738.181818" fill="#ffffff" stroke="#ffffff" xlink:href="#b"/>
</g>
<g clip-path="url(#a)">
<use x="118.830382" y="738.181818" fill="#ffffff" stroke="#ffffff" xlink:href="#b"/>
</g>
<g clip-path="url(#a)">
<use x="139.069133" y="738.181818" fill="#ffffff" stroke="#ffffff" xlink:href="#b"/>
</g>
<g clip-path="url(#a)">
<use x="162.199134" y="738.181818" fill="#ffffff" stroke="#ffffff" xlink:href="#b"/>
</g>
<g clip-path="url(#a)">
<use x="188.220386" y="738.181818" fill="#ffffff" stroke="#ffffff" xlink:href="#b"/>
</g>
<g clip-path="url(#a)">
<use x="217.132887" y="738.181818" fill="#ffffff" stroke="#ffffff" xlink:href="#b"/>
</g>
<g clip-path="url(#a)">
<use x="248.936639" y="738.181818" fill="#ffffff" stroke="#ffffff" xlink:href="#b"/>
</g>
<g clip-path="url(#a)">
<use x="283.631641" y="738.181818" fill="#ffffff" stroke="#ffffff" xlink:href="#b"/>
</g>
<g clip-path="url(#a)">
<use x="321.217893" y="738.181818" fill="#ffffff" stroke="#ffffff" xlink:href="#b"/>
</g>
<g clip-path="url(#a)">
<use x="361.695396" y="738.181818" fill="#ffffff" stroke="#ffffff" xlink:href="#b"/>
</g>
<g clip-path="url(#a)">
<use x="405.064148" y="738.181818" fill="#ffffff" stroke="#ffffff" xlink:href="#b"/>
</g>
<g clip-path="url(#a)">
<use x="451.324151" y="738.181818" fill="#ffffff" stroke="#ffffff" xlink:href="#b"/>
</g>
<g clip-path="url(#a)">
<use x="500.475403" y="738.181818" fill="#ffffff" stroke="#ffffff" xlink:href="#b"/>
</g>
<g clip-path="url(#a)">
<use x="552.517906" y="738.181818" fill="#ffffff" stroke="#ffffff" xlink:href="#b"/>
</g>
<g clip-path="url(#a)">
<use x="607.451659" y="738.181818" fill="#ffffff" stroke="#ffffff" xlink:href="#b"/>
</g>
<g clip-path="url(#a)">
<use x="665.276663" y="738.181818" fill="#ffffff" stroke="#ffffff" xlink:href="#b"/>
</g>
<g clip-path="url(#a)">
<use x="725.992916" y="738.181818" fill="#ffffff" stroke="#ffffff" xlink:href="#b"/>
</g>
<g clip-path="url(#a)">
<use x="789.60042" y="738.181818" fill="#ffffff" stroke="#ffffff" xlink:href="#b"/>
</g>
<g clip-path="url(#a)">
<use x="856.099174" y="738.181818" fill="#ffffff" stroke="#ffffff" xlink:href="#b"/>
</g>
<g clip-path="url(#a)">
<use x="925.489177" y="738.181818" fill="#ffffff" stroke="#ffffff" xlink:href="#b"/>
</g>
<g clip-path="url(#a)">
<use x="997.770432" y="738.181818" fill="#ffffff" stroke="#ffffff" xlink:href="#b"/>
</g>
<g clip-path="url(#a)">
<use x="1072.942936" y="738.181818" fill="#ffffff" stroke="#ffffff" xlink:href="#b"/>
</g>
<g clip-path="url(#a)">
<use x="1151.00669" y="738.181818" fill="#ffffff" stroke="#ffffff" xlink:href="#b"/>
</g>
<g clip-path="url(#a)">
<use x="1231.961695" y="738.181818" fill="#ffffff" stroke="#ffffff" xlink:href="#b"/>
</g>
<g clip-path="url(#a)">
<use x="1315.80795" y="738.181818" fill="#ffffff" stroke="#ffffff" xlink:href="#b"/>
</g>
<g clip-path="url(#a)">
<use x="1402.545455" y="738.181818" fill="#ffffff" stroke="#ffffff" xlink:href="#b"/>
</g>
<g clip-path="url(#a)">
<use x="151.090513" y="35.151515" fill="#ffffff" stroke="#ffffff" xlink:href="#b"/>
</g>
<g clip-path="url(#a)">
<use x="87.267567" y="477.118637" fill="#ffffff" stroke="#ffffff" xlink:href="#b"/>
</g>
<g clip-path="url(#a)">
<use x="162.199134" y="652.11155" fill="#ffffff" stroke="#ffffff" xlink:href="#b"/>
</g>
<g clip-path="url(#a)">
<use x="203.804836" y="123.851175" fill="#ffffff" stroke="#ffffff" xlink:href="#b"/>
</g>
<g clip-path="url(#a)">
<use x="188.220386" y="652.11155" fill="#ffffff" stroke="#ffffff" xlink:href="#b"/>
</g>
<g clip-path="url(#a)">
<use x="356.406243" y="212.42378" fill="#ffffff" stroke="#ffffff" xlink:href="#b"/>
</g>
<g clip-path="url(#a)">
<use x="233.034763" y="564.843949" fill="#ffffff" stroke="#ffffff" xlink:href="#b"/>
</g>
<g clip-path="url(#a)">
<use x="302.424767" y="564.843949" fill="#ffffff" stroke="#ffffff" xlink:href="#b"/>
</g>
<g clip-path="url(#a)">
<use x="533.7592" y="300.848201" fill="#ffffff" stroke="#ffffff" xlink:href="#b"/>
</g>
<g clip-path="url(#a)">
<use x="361.695396" y="652.11155" fill="#ffffff" stroke="#ffffff" xlink:href="#b"/>
</g>
<g clip-path="url(#a)">
<use x="428.194149" y="564.843949" fill="#ffffff" stroke="#ffffff" xlink:href="#b"/>
</g>
<g clip-path="url(#a)">
<use x="500.475403" y="652.11155" fill="#ffffff" stroke="#ffffff" xlink:href="#b"/>
</g>
<g clip-path="url(#a)">
<use x="552.517906" y="652.11155" fill="#ffffff" stroke="#ffffff" xlink:href="#b"/>
</g>
<g clip-path="url(#a)">
<use x="666.240413" y="564.843949" fill="#ffffff" stroke="#ffffff" xlink:href="#b"/>
</g>
<g clip-path="url(#a)">
<use x="905.973239" y="389.094759" fill="#ffffff" stroke="#ffffff" xlink:href="#b"/>
</g>
<g clip-path="url(#a)">
<use x="789.60042" y="652.11155" fill="#ffffff" stroke="#ffffff" xlink:href="#b"/>
</g>
<g clip-path="url(#a)">
<use x="856.099174" y="652.11155" fill="#ffffff" stroke="#ffffff" xlink:href="#b"/>
</g>
<g clip-path="url(#a)">
<use x="925.489177" y="652.11155" fill="#ffffff" stroke="#ffffff" xlink:href="#b"/>
</g>
<g clip-path="url(#a)">
<use x="1052.704185" y="477.118637" fill="#ffffff" stroke="#ffffff" xlink:href="#b"/>
</g>
<g clip-path="url(#a)">
<use x="997.770432" y="652.11155" fill="#ffffff" stroke="#ffffff" xlink:href="#b"/>
</g>
<g clip-path="url(#a)">
<use x="1234.852945" y="564.843949" fill="#ffffff" stroke="#ffffff" xlink:href="#b"/>
</g>
<g clip-path="url(#a)">
<use x="1072.942936" y="652.11155" fill="#ffffff" stroke="#ffffff" xlink:href="#b"/>
</g>
<g clip-path="url(#a)">
<use x="1151.00669" y="652.11155" fill="#ffffff" stroke="#ffffff" xlink:href="#b"/>
</g>
<g clip-path="url(#a)">
<use x="1231.961695" y="652.11155" fill="#ffffff" stroke="#ffffff" xlink:href="#b"/>
</g>
<g clip-path="url(#a)">
<use x="1315.80795" y="652.11155" fill="#ffffff" stroke="#ffffff" xlink:href="#b"/>
</g>
<g clip-path="url(#a)">
<use x="607.451659" y="652.11155" fill="#ffffff" stroke="#ffffff" xlink:href="#b"/>
</g>
<g clip-path="url(#a)">
<use x="665.276663" y="652.11155" fill="#ffffff" stroke="#ffffff" xlink:href="#b"/>
</g>
<g clip-path="url(#a)">
<use x="725.992916" y="652.11155" fill="#ffffff" stroke="#ffffff" xlink:href="#b"/>
</g>
<g clip-path="url(#a)">
<use x="405.064148" y="652.11155" fill="#ffffff" stroke="#ffffff" xlink:href="#b"/>
</g>
<g clip-path="url(#a)">
<use x="451.324151" y="652.11155" fill="#ffffff" stroke="#ffffff" xlink:href="#b"/>
</g>
<g clip-path="url(#a)">
<use x="283.631641" y="652.11155" fill="#ffffff" stroke="#ffffff" xlink:href="#b"/>
</g>
<g clip-path="url(#a)">
<use x="321.217893" y="652.11155" fill="#ffffff" stroke="#ffffff" xlink:href="#b"/>
</g>
<g clip-path="url(#a)">
<use x="217.132887" y="652.11155" fill="#ffffff" stroke="#ffffff" xlink:href="#b"/>
</g>
<g clip-path="url(#a)">
<use x="248.936639" y="652.11155" fill="#ffffff" stroke="#ffffff" xlink:href="#b"/>
</g>
<g clip-path="url(#a)">
<use x="66.787879" y="652.11155" fill="#ffffff" stroke="#ffffff" xlink:href="#b"/>
</g>
<g clip-path="url(#a)">
<use x="75.461629" y="652.11155" fill="#ffffff" stroke="#ffffff" xlink:href="#b"/>
</g>
<g clip-path="url(#a)">
<use x="87.02663" y="652.11155" fill="#ffffff" stroke="#ffffff" xlink:href="#b"/>
</g>
<g clip-path="url(#a)">
<use x="119.794132" y="564.843949" fill="#ffffff" stroke="#ffffff" xlink:href="#b"/>
</g>
<g clip-path="url(#a)">
<use x="101.482881" y="652.11155" fill="#ffffff" stroke="#ffffff" xlink:href="#b"/>
</g>
<g clip-path="url(#a)">
<use x="118.830382" y="652.11155" fill="#ffffff" stroke="#ffffff" xlink:href="#b"/>
</g>
<g clip-path="url(#a)">
<use x="139.069133" y="652.11155" fill="#ffffff" stroke="#ffffff" xlink:href="#b"/>
</g>
<g clip-path="url(#a)">
<use x="1402.545455" y="652.11155" fill="#ffffff" stroke="#ffffff" xlink:href="#b"/>
</g>
<g clip-path="url(#a)">
<defs>
<path id="al" d="m54.891 33.016v-33.016h-8.9844v32.719q0 7.7656-3.0312 11.609-3.0312 3.8594-9.0781 3.8594-7.2812 0-11.484-4.6406-4.2031-4.625-4.2031-12.641v-30.906h-9.0312v75.984h9.0312v-29.797q3.2344 4.9375 7.5938 7.375 4.375 2.4375 10.094 2.4375 9.4219 0 14.25-5.8281 4.8438-5.8281 4.8438-17.156z"/>
</defs>
<g transform="translate(57.368 740.94) scale(.1 -.1)">
<use xlink:href="#ah"/>
<use x="63.476562" xlink:href="#al"/>
<use x="126.855469" xlink:href="#f"/>
</g>
</g>
<g clip-path="url(#a)">
<defs>
<path id="aj" d="m4.2031 54.688h8.9844l11.234-42.672 11.172 42.672h10.594l11.234-42.672 11.188 42.672h8.9844l-14.312-54.688h-10.594l-11.766 44.828-11.812-44.828h-10.609z"/>
<path id="ae" d="m44.281 53.078v-8.5q-3.7969 1.9531-7.9062 2.9219-4.0938 0.98438-8.5 0.98438-6.6875 0-10.031-2.0469t-3.3438-6.1562q0-3.125 2.3906-4.9062t9.625-3.3906l3.0781-0.6875q9.5625-2.0469 13.594-5.7812t4.0312-10.422q0-7.625-6.0312-12.078-6.0312-4.4375-16.578-4.4375-4.3906 0-9.1562 0.85938t-10.031 2.5625v9.2812q4.9844-2.5938 9.8125-3.8906 4.8281-1.2812 9.5781-1.2812 6.3438 0 9.75 2.1719 3.4219 2.1719 3.4219 6.125 0 3.6562-2.4688 5.6094-2.4531 1.9531-10.812 3.7656l-3.125 0.73438q-8.3438 1.75-12.062 5.3906-3.7031 3.6406-3.7031 9.9844 0 7.7188 5.4688 11.906 5.4688 4.2031 15.531 4.2031 4.9688 0 9.3594-0.73438 4.4062-0.71875 8.1094-2.1875z"/>
</defs>
<g transform="translate(65.704 740.94) scale(.1 -.1)">
<use xlink:href="#aj"/>
<use x="81.787109" xlink:href="#e"/>
<use x="143.066406" xlink:href="#ae"/>
</g>
</g>
<g clip-path="url(#a)">
<defs>
<path id="u" d="m45.406 27.984q0 9.7656-4.0312 15.125-4.0156 5.375-11.297 5.375-7.2188 0-11.25-5.375-4.0312-5.3594-4.0312-15.125 0-9.7188 4.0312-15.094t11.25-5.375q7.2812 0 11.297 5.375 4.0312 5.375 4.0312 15.094zm8.9844-21.203q0-13.953-6.2031-20.766-6.1875-6.8125-18.984-6.8125-4.7344 0-8.9375 0.70312t-8.1562 2.1719v8.7344q3.9531-2.1406 7.8125-3.1562 3.8594-1.0312 7.8594-1.0312 8.8438 0 13.234 4.6094t4.3906 13.938v4.4531q-2.7812-4.8438-7.125-7.2344t-10.406-2.3906q-10.047 0-16.203 7.6562-6.1562 7.6719-6.1562 20.328 0 12.688 6.1562 20.344 6.1562 7.6719 16.203 7.6719 6.0625 0 10.406-2.3906t7.125-7.2188v8.2969h8.9844z"/>
<path id="o" d="m30.609 48.391q-7.2188 0-11.422-5.6406t-4.2031-15.453 4.1719-15.453q4.1875-5.6406 11.453-5.6406 7.1875 0 11.375 5.6562 4.2031 5.6719 4.2031 15.438 0 9.7188-4.2031 15.406-4.1875 5.6875-11.375 5.6875zm0 7.6094q11.719 0 18.406-7.625 6.7031-7.6094 6.7031-21.078 0-13.422-6.7031-21.078-6.6875-7.6406-18.406-7.6406-11.766 0-18.438 7.6406-6.6562 7.6562-6.6562 21.078 0 13.469 6.6562 21.078 6.6719 7.625 18.438 7.625z"/>
</defs>
<g transform="translate(73.061 740.94) scale(.1 -.1)">
<use xlink:href="#u"/>
<use x="63.476562" xlink:href="#o"/>
<use x="124.658203" xlink:href="#h"/>
<use x="152.441406" xlink:href="#g"/>
<use x="215.820312" xlink:href="#u"/>
</g>
</g>
<g clip-path="url(#a)">
<defs>
<path id="ad" d="m18.312 70.219v-15.531h18.5v-6.9844h-18.5v-29.688q0-6.6875 1.8281-8.5938t7.4531-1.9062h9.2188v-7.5156h-9.2188q-10.406 0-14.359 3.875-3.9531 3.8906-3.9531 14.141v29.688h-6.5938v6.9844h6.5938v15.531z"/>
</defs>
<g transform="translate(96.463 740.94) scale(.1 -.1)">
<use xlink:href="#ad"/>
<use x="39.208984" xlink:href="#o"/>
</g>
</g>
<g clip-path="url(#a)">
<defs>
<path id="aw" d="m59.516 10.406v19.578h-16.109v8.1094h25.875v-31.312q-5.7031-4.0469-12.594-6.125-6.875-2.0781-14.688-2.0781-17.094 0-26.75 9.9844-9.6406 10-9.6406 27.812 0 17.875 9.6406 27.859 9.6562 9.9844 26.75 9.9844 7.125 0 13.547-1.7656 6.4219-1.75 11.844-5.1719v-10.5q-5.4688 4.6406-11.625 6.9844t-12.938 2.3438q-13.391 0-20.109-7.4688-6.7031-7.4688-6.7031-22.266 0-14.75 6.7031-22.219 6.7188-7.4688 20.109-7.4688 5.2188 0 9.3125 0.90625 4.1094 0.90625 7.375 2.8125z"/>
<path id="ak" d="m8.5 21.578v33.109h8.9844v-32.766q0-7.7656 3.0156-11.656 3.0312-3.875 9.0938-3.875 7.2656 0 11.484 4.6406 4.2344 4.6406 4.2344 12.656v31h8.9844v-54.688h-8.9844v8.4062q-3.2656-4.9844-7.5938-7.4062-4.3125-2.4219-10.031-2.4219-9.4219 0-14.312 5.8594-4.875 5.8594-4.875 17.141z"/>
</defs>
<g transform="translate(86.368 740.94) scale(.1 -.1)">
<use xlink:href="#aw"/>
<use x="77.490234" xlink:href="#ak"/>
<use x="140.869141" xlink:href="#e"/>
<use x="202.148438" xlink:href="#g"/>
<use x="265.527344" xlink:href="#ad"/>
<use x="304.736328" xlink:href="#e"/>
<use x="366.015625" xlink:href="#g"/>
<use x="429.394531" xlink:href="#e"/>
<use x="490.673828" xlink:href="#k"/>
<use x="588.085938" xlink:href="#o"/>
</g>
</g>
<g clip-path="url(#a)">
<defs>
<path id="ax" d="m19.672 34.812v-26.703h15.828q7.9531 0 11.781 3.2969 3.8438 3.2969 3.8438 10.078 0 6.8438-3.8438 10.078-3.8281 3.25-11.781 3.25zm0 29.984v-21.969h14.609q7.2188 0 10.75 2.7031 3.5469 2.7188 3.5469 8.2812 0 5.5156-3.5469 8.25-3.5312 2.7344-10.75 2.7344zm-9.8594 8.1094h25.203q11.281 0 17.375-4.6875 6.1094-4.6875 6.1094-13.328 0-6.7031-3.125-10.656t-9.1875-4.9219q7.2812-1.5625 11.312-6.5312 4.0312-4.9531 4.0312-12.375 0-9.7656-6.6406-15.094-6.6406-5.3125-18.906-5.3125h-26.172z"/>
<path id="aq" d="m32.172-5.0781q-3.7969-9.7656-7.4219-12.734-3.6094-2.9844-9.6562-2.9844h-7.1875v7.5156h5.2812q3.7031 0 5.75 1.7656 2.0625 1.75 4.5469 8.2969l1.6094 4.0938-22.109 53.812h9.5156l17.094-42.766 17.094 42.766h9.5156z"/>
</defs>
<g transform="translate(129.62 740.94) scale(.1 -.1)">
<use xlink:href="#ax"/>
<use x="68.603516" xlink:href="#e"/>
<use x="129.882812" xlink:href="#aq"/>
</g>
</g>
<g clip-path="url(#a)">
<g transform="translate(157.18 740.94) scale(.1 -.1)">
<use xlink:href="#ad"/>
<use x="39.208984" xlink:href="#o"/>
</g>
</g>
<g clip-path="url(#a)">
<defs>
<path id="af" d="m45.406 46.391v29.594h8.9844v-75.984h-8.9844v8.2031q-2.8281-4.875-7.1562-7.25-4.3125-2.375-10.375-2.375-9.9062 0-16.141 7.9062-6.2188 7.9219-6.2188 20.812t6.2188 20.797q6.2344 7.9062 16.141 7.9062 6.0625 0 10.375-2.375 4.3281-2.3594 7.1562-7.2344zm-30.609-19.094q0-9.9062 4.0781-15.547t11.203-5.6406 11.219 5.6406q4.1094 5.6406 4.1094 15.547t-4.1094 15.547q-4.0938 5.6406-11.219 5.6406t-11.203-5.6406-4.0781-15.547z"/>
<path id="v" d="m37.109 75.984v-7.4844h-8.5938q-4.8281 0-6.7188-1.9531-1.875-1.9531-1.875-7.0312v-4.8281h14.797v-6.9844h-14.797v-47.703h-9.0312v47.703h-8.5938v6.9844h8.5938v3.8125q0 9.125 4.25 13.297 4.25 4.1875 13.469 4.1875z"/>
</defs>
<g transform="translate(170.79 740.94) scale(.1 -.1)">
<use xlink:href="#af"/>
<use x="63.476562" xlink:href="#f"/>
<use x="125" xlink:href="#v"/>
<use x="160.205078" xlink:href="#f"/>
<use x="221.728516" xlink:href="#g"/>
<use x="285.107422" xlink:href="#af"/>
</g>
</g>
<g clip-path="url(#a)">
<g transform="translate(214.07 740.94) scale(.1 -.1)">
<use xlink:href="#e"/>
</g>
</g>
<g clip-path="url(#a)">
<defs>
<path id="ar" d="m18.109 8.2031v-29h-9.0312v75.484h9.0312v-8.2969q2.8438 4.875 7.1562 7.2344 4.3281 2.375 10.328 2.375 9.9688 0 16.188-7.9062 6.2344-7.9062 6.2344-20.797t-6.2344-20.812q-6.2188-7.9062-16.188-7.9062-6 0-10.328 2.375-4.3125 2.375-7.1562 7.25zm30.578 19.094q0 9.9062-4.0781 15.547t-11.203 5.6406q-7.1406 0-11.219-5.6406t-4.0781-15.547 4.0781-15.547 11.219-5.6406q7.125 0 11.203 5.6406t4.0781 15.547z"/>
</defs>
<g transform="translate(234.42 740.94) scale(.1 -.1)">
<use xlink:href="#u"/>
<use x="63.476562" xlink:href="#i"/>
<use x="102.339844" xlink:href="#o"/>
<use x="163.521484" xlink:href="#ak"/>
<use x="226.900391" xlink:href="#ar"/>
</g>
</g>
<g clip-path="url(#a)">
<g transform="translate(278.81 740.94) scale(.1 -.1)">
<use xlink:href="#o"/>
<use x="61.181641" xlink:href="#v"/>
</g>
</g>
<g clip-path="url(#a)">
<defs>
<path id="am" d="m9.8125 72.906h14.703l18.594-49.609 18.703 49.609h14.703v-72.906h-9.625v64.016l-18.797-50h-9.9062l-18.797 50v-64.016h-9.5781z"/>
</defs>
<g transform="translate(301.55 740.94) scale(.1 -.1)">
<use xlink:href="#am"/>
<use x="86.279297" xlink:href="#e"/>
<use x="147.558594" xlink:href="#i"/>
<use x="188.671875" xlink:href="#h"/>
<use x="216.455078" xlink:href="#g"/>
<use x="279.833984" xlink:href="#f"/>
<use x="341.357422" xlink:href="#ae"/>
</g>
</g>
<g clip-path="url(#a)">
<g transform="translate(351.38 740.94) scale(.1 -.1)">
<use xlink:href="#aj"/>
<use x="81.787109" xlink:href="#al"/>
<use x="145.166016" xlink:href="#o"/>
</g>
</g>
<g clip-path="url(#a)">
<defs>
<path id="ag" d="m48.781 52.594v-8.4062q-3.8125 2.1094-7.6406 3.1562t-7.7344 1.0469q-8.75 0-13.594-5.5469-4.8281-5.5312-4.8281-15.547t4.8281-15.562q4.8438-5.5312 13.594-5.5312 3.9062 0 7.7344 1.0469t7.6406 3.1562v-8.3125q-3.7656-1.75-7.7969-2.625-4.0156-0.89062-8.5625-0.89062-12.359 0-19.641 7.7656-7.2656 7.7656-7.2656 20.953 0 13.375 7.3438 21.031 7.3594 7.6719 20.156 7.6719 4.1406 0 8.0938-0.85938 3.9531-0.84375 7.6719-2.5469z"/>
</defs>
<g transform="translate(391.3 740.94) scale(.1 -.1)">
<use xlink:href="#ag"/>
<use x="54.980469" xlink:href="#e"/>
<use x="116.259766" xlink:href="#k"/>
<use x="213.671875" xlink:href="#f"/>
</g>
</g>
<g clip-path="url(#a)">
<g transform="translate(438.45 740.94) scale(.1 -.1)">
<use xlink:href="#ag"/>
<use x="54.980469" xlink:href="#j"/>
<use x="82.763672" xlink:href="#o"/>
<use x="143.945312" xlink:href="#ae"/>
<use x="196.044922" xlink:href="#f"/>
</g>
</g>
<g clip-path="url(#a)">
<g transform="translate(495.46 740.94) scale(.1 -.1)">
<use xlink:href="#ad"/>
<use x="39.208984" xlink:href="#o"/>
</g>
</g>
<g clip-path="url(#a)">
<defs>
<path id="az" d="m9.0781 75.984h9.0312v-44.875l26.812 23.578h11.469l-29-25.578 30.234-29.109h-11.719l-27.797 26.703v-26.703h-9.0312z"/>
</defs>
<g transform="translate(537.72 740.94) scale(.1 -.1)">
<use xlink:href="#az"/>
<use x="57.910156" xlink:href="#h"/>
<use x="85.693359" xlink:href="#j"/>
<use x="113.476562" xlink:href="#j"/>
<use x="141.259766" xlink:href="#h"/>
<use x="169.042969" xlink:href="#g"/>
<use x="232.421875" xlink:href="#u"/>
</g>
</g>
<g clip-path="url(#a)">
<g transform="translate(604.39 740.94) scale(.1 -.1)">
<use xlink:href="#e"/>
</g>
</g>
<g clip-path="url(#a)">
<g transform="translate(650.51 740.94) scale(.1 -.1)">
<use xlink:href="#v"/>
<use x="35.205078" xlink:href="#f"/>
<use x="96.728516" xlink:href="#j"/>
<use x="124.511719" xlink:href="#j"/>
<use x="152.294922" xlink:href="#o"/>
<use x="213.476562" xlink:href="#aj"/>
</g>
</g>
<g clip-path="url(#a)">
<g transform="translate(708.92 740.94) scale(.1 -.1)">
<use xlink:href="#am"/>
<use x="86.279297" xlink:href="#e"/>
<use x="147.558594" xlink:href="#i"/>
<use x="188.671875" xlink:href="#h"/>
<use x="216.455078" xlink:href="#g"/>
<use x="279.833984" xlink:href="#f"/>
</g>
</g>
<g clip-path="url(#a)">
<g transform="translate(785.04 740.94) scale(.1 -.1)">
<use xlink:href="#h"/>
<use x="27.783203" xlink:href="#g"/>
</g>
</g>
<g clip-path="url(#a)">
<g transform="translate(853.04 740.94) scale(.1 -.1)">
<use xlink:href="#e"/>
</g>
</g>
<g clip-path="url(#a)">
<defs>
<path id="ay" d="m5.5156 54.688h42.672v-8.2031l-33.781-39.312h33.781v-7.1719h-43.891v8.2031l33.797 39.312h-32.578z"/>
</defs>
<g transform="translate(908.9 740.94) scale(.1 -.1)">
<use xlink:href="#al"/>
<use x="63.378906" xlink:href="#e"/>
<use x="124.658203" xlink:href="#ay"/>
<use x="177.148438" xlink:href="#h"/>
<use x="204.931641" xlink:href="#g"/>
<use x="268.310547" xlink:href="#u"/>
</g>
</g>
<g clip-path="url(#a)">
<g transform="translate(978.3 740.94) scale(.1 -.1)">
<use xlink:href="#o"/>
<use x="61.181641" xlink:href="#i"/>
<use x="100.544922" xlink:href="#af"/>
<use x="164.021484" xlink:href="#f"/>
<use x="225.544922" xlink:href="#i"/>
<use x="264.408203" xlink:href="#f"/>
<use x="325.931641" xlink:href="#af"/>
</g>
</g>
<g clip-path="url(#a)">
<defs>
<path id="as" d="m48.688 27.297q0 9.9062-4.0781 15.547t-11.203 5.6406q-7.1406 0-11.219-5.6406t-4.0781-15.547 4.0781-15.547 11.219-5.6406q7.125 0 11.203 5.6406t4.0781 15.547zm-30.578 19.094q2.8438 4.875 7.1562 7.2344 4.3281 2.375 10.328 2.375 9.9688 0 16.188-7.9062 6.2344-7.9062 6.2344-20.797t-6.2344-20.812q-6.2188-7.9062-16.188-7.9062-6 0-10.328 2.375-4.3125 2.375-7.1562 7.25v-8.2031h-9.0312v75.984h9.0312z"/>
</defs>
<g transform="translate(1066.8 740.94) scale(.1 -.1)">
<use xlink:href="#as"/>
<use x="63.476562" xlink:href="#aq"/>
</g>
</g>
<g clip-path="url(#a)">
<g transform="translate(1147.9 740.94) scale(.1 -.1)">
<use xlink:href="#e"/>
</g>
</g>
<g clip-path="url(#a)">
<g transform="translate(1211.4 740.94) scale(.1 -.1)">
<use xlink:href="#ae"/>
<use x="52.099609" xlink:href="#ak"/>
<use x="115.478516" xlink:href="#ar"/>
<use x="178.955078" xlink:href="#f"/>
<use x="240.478516" xlink:href="#i"/>
<use x="281.591797" xlink:href="#h"/>
<use x="309.375" xlink:href="#o"/>
<use x="370.556641" xlink:href="#i"/>
</g>
</g>
<g clip-path="url(#a)">
<g transform="translate(1300 740.94) scale(.1 -.1)">
<use xlink:href="#o"/>
<use x="61.181641" xlink:href="#v"/>
<use x="96.386719" xlink:href="#v"/>
<use x="131.591797" xlink:href="#h"/>
<use x="159.375" xlink:href="#ag"/>
<use x="214.355469" xlink:href="#f"/>
<use x="275.878906" xlink:href="#i"/>
</g>
</g>
<g clip-path="url(#a)">
<defs>
<path id="d" d="m10.688 12.406h10.312v-12.406h-10.312z"/>
</defs>
<g transform="translate(1401 740.94) scale(.1 -.1)">
<use xlink:href="#d"/>
</g>
</g>
<g clip-path="url(#a)">
<defs>
<path id="c" d="m12.406 8.2969h16.109v55.625l-17.531-3.5156v8.9844l17.438 3.5156h9.8594v-64.609h16.109v-8.2969h-41.984z"/>
</defs>
<g transform="translate(143.14 37.911) scale(.1 -.1)">
<use xlink:href="#c"/>
<use x="63.623047" xlink:href="#d"/>
<use x="95.410156" xlink:href="#c"/>
</g>
</g>
<g clip-path="url(#a)">
<defs>
<path id="n" d="m19.188 8.2969h34.422v-8.2969h-46.281v8.2969q5.6094 5.8125 15.297 15.594 9.7031 9.7969 12.188 12.641 4.7344 5.3125 6.6094 9 1.8906 3.6875 1.8906 7.25 0 5.8125-4.0781 9.4688-4.0781 3.6719-10.625 3.6719-4.6406 0-9.7969-1.6094-5.1406-1.6094-11-4.8906v9.9688q5.9531 2.3906 11.125 3.6094 5.1875 1.2188 9.4844 1.2188 11.328 0 18.062-5.6719 6.7344-5.6562 6.7344-15.125 0-4.5-1.6875-8.5312-1.6719-4.0156-6.125-9.4844-1.2188-1.4219-7.7656-8.1875-6.5312-6.7656-18.453-18.922z"/>
</defs>
<g transform="translate(79.316 479.88) scale(.1 -.1)">
<use xlink:href="#c"/>
<use x="63.623047" xlink:href="#d"/>
<use x="95.410156" xlink:href="#n"/>
</g>
</g>
<g clip-path="url(#a)">
<defs>
<path id="m" d="m40.578 39.312q7.0781-1.5156 11.047-6.3125 3.9844-4.7812 3.9844-11.812 0-10.781-7.4219-16.703-7.4219-5.9062-21.094-5.9062-4.5781 0-9.4375 0.90625t-10.031 2.7188v9.5156q4.0938-2.3906 8.9688-3.6094 4.8906-1.2188 10.219-1.2188 9.2656 0 14.125 3.6562t4.8594 10.641q0 6.4531-4.5156 10.078-4.5156 3.6406-12.562 3.6406h-8.5v8.1094h8.8906q7.2656 0 11.125 2.9062t3.8594 8.375q0 5.6094-3.9844 8.6094-3.9688 3.0156-11.391 3.0156-4.0625 0-8.7031-0.89062-4.6406-0.875-10.203-2.7188v8.7812q5.625 1.5625 10.531 2.3438t9.25 0.78125q11.234 0 17.766-5.1094 6.5469-5.0938 6.5469-13.781 0-6.0625-3.4688-10.234t-9.8594-5.7812z"/>
</defs>
<g transform="translate(154.25 654.87) scale(.1 -.1)">
<use xlink:href="#c"/>
<use x="63.623047" xlink:href="#d"/>
<use x="95.410156" xlink:href="#m"/>
</g>
</g>
<g clip-path="url(#a)">
<defs>
<path id="q" d="m37.797 64.312-24.906-38.922h24.906zm-2.5938 8.5938h12.406v-47.516h10.406v-8.2031h-10.406v-17.188h-9.8125v17.188h-32.906v9.5156z"/>
</defs>
<g transform="translate(195.85 126.61) scale(.1 -.1)">
<use xlink:href="#c"/>
<use x="63.623047" xlink:href="#d"/>
<use x="95.410156" xlink:href="#q"/>
</g>
</g>
<g clip-path="url(#a)">
<defs>
<path id="ab" d="m33.016 40.375q-6.6406 0-10.531-4.5469-3.875-4.5312-3.875-12.438 0-7.8594 3.875-12.438 3.8906-4.5625 10.531-4.5625t10.516 4.5625q3.875 4.5781 3.875 12.438 0 7.9062-3.875 12.438-3.875 4.5469-10.516 4.5469zm19.578 30.922v-8.9844q-3.7188 1.75-7.5 2.6719-3.7812 0.9375-7.5 0.9375-9.7656 0-14.922-6.5938-5.1406-6.5938-5.875-19.922 2.875 4.25 7.2188 6.5156 4.3594 2.2656 9.5781 2.2656 10.984 0 17.359-6.6719 6.375-6.6562 6.375-18.125 0-11.234-6.6406-18.031-6.6406-6.7812-17.672-6.7812-12.656 0-19.344 9.6875-6.6875 9.7031-6.6875 28.109 0 17.281 8.2031 27.562t22.016 10.281q3.7188 0 7.5-0.73438t7.8906-2.1875z"/>
</defs>
<g transform="translate(180.27 654.87) scale(.1 -.1)">
<use xlink:href="#c"/>
<use x="63.623047" xlink:href="#d"/>
<use x="95.410156" xlink:href="#ab"/>
</g>
</g>
<g clip-path="url(#a)">
<defs>
<path id="aa" d="m8.2031 72.906h46.875v-4.2031l-26.469-68.703h-10.297l24.906 64.594h-35.016z"/>
</defs>
<g transform="translate(348.45 215.18) scale(.1 -.1)">
<use xlink:href="#c"/>
<use x="63.623047" xlink:href="#d"/>
<use x="95.410156" xlink:href="#aa"/>
</g>
</g>
<g clip-path="url(#a)">
<defs>
<path id="z" d="m31.781 34.625q-7.0312 0-11.062-3.7656-4.0156-3.7656-4.0156-10.344 0-6.5938 4.0156-10.359 4.0312-3.7656 11.062-3.7656t11.078 3.7812q4.0625 3.7969 4.0625 10.344 0 6.5781-4.0312 10.344-4.0156 3.7656-11.109 3.7656zm-9.8594 4.1875q-6.3438 1.5625-9.8906 5.9062-3.5312 4.3594-3.5312 10.609 0 8.7344 6.2188 13.812 6.2344 5.0781 17.062 5.0781 10.891 0 17.094-5.0781t6.2031-13.812q0-6.25-3.5469-10.609-3.5312-4.3438-9.8281-5.9062 7.125-1.6562 11.094-6.5 3.9844-4.8281 3.9844-11.797 0-10.609-6.4688-16.281-6.4688-5.6562-18.531-5.6562-12.047 0-18.531 5.6562-6.4688 5.6719-6.4688 16.281 0 6.9688 4 11.797 4.0156 4.8438 11.141 6.5zm-3.6094 15.578q0-5.6562 3.5312-8.8281 3.5469-3.1719 9.9375-3.1719 6.3594 0 9.9375 3.1719 3.5938 3.1719 3.5938 8.8281 0 5.6719-3.5938 8.8438-3.5781 3.1719-9.9375 3.1719-6.3906 0-9.9375-3.1719-3.5312-3.1719-3.5312-8.8438z"/>
</defs>
<g transform="translate(225.08 567.6) scale(.1 -.1)">
<use xlink:href="#c"/>
<use x="63.623047" xlink:href="#d"/>
<use x="95.410156" xlink:href="#z"/>
</g>
</g>
<g clip-path="url(#a)">
<defs>
<path id="y" d="m10.984 1.5156v8.9844q3.7188-1.7656 7.5156-2.6875 3.8125-0.92188 7.4844-0.92188 9.7656 0 14.906 6.5625 5.1562 6.5625 5.8906 19.953-2.8281-4.2031-7.1875-6.4531-4.3438-2.25-9.6094-2.25-10.938 0-17.312 6.6094-6.375 6.625-6.375 18.109 0 11.219 6.6406 18 6.6406 6.7969 17.672 6.7969 12.656 0 19.312-9.7031 6.6719-9.6875 6.6719-28.141 0-17.234-8.1875-27.516-8.1719-10.281-21.984-10.281-3.7188 0-7.5312 0.73438-3.7969 0.73438-7.9062 2.2031zm19.625 30.906q6.6406 0 10.516 4.5312 3.8906 4.5469 3.8906 12.469 0 7.8594-3.8906 12.422-3.875 4.5625-10.516 4.5625t-10.516-4.5625-3.875-12.422q0-7.9219 3.875-12.469 3.875-4.5312 10.516-4.5312z"/>
</defs>
<g transform="translate(294.47 567.6) scale(.1 -.1)">
<use xlink:href="#c"/>
<use x="63.623047" xlink:href="#d"/>
<use x="95.410156" xlink:href="#y"/>
</g>
</g>
<g clip-path="url(#a)">
<defs>
<path id="ac" d="m31.781 66.406q-7.6094 0-11.453-7.5-3.8281-7.4844-3.8281-22.531 0-14.984 3.8281-22.484 3.8438-7.5 11.453-7.5 7.6719 0 11.5 7.5 3.8438 7.5 3.8438 22.484 0 15.047-3.8438 22.531-3.8281 7.5-11.5 7.5zm0 7.8125q12.266 0 18.734-9.7031 6.4688-9.6875 6.4688-28.141 0-18.406-6.4688-28.109-6.4688-9.6875-18.734-9.6875-12.25 0-18.719 9.6875-6.4688 9.7031-6.4688 28.109 0 18.453 6.4688 28.141 6.4688 9.7031 18.719 9.7031z"/>
</defs>
<g transform="translate(522.63 303.61) scale(.1 -.1)">
<use xlink:href="#c"/>
<use x="63.623047" xlink:href="#d"/>
<use x="95.410156" xlink:href="#c"/>
<use x="159.033203" xlink:href="#ac"/>
</g>
</g>
<g clip-path="url(#a)">
<g transform="translate(350.56 654.87) scale(.1 -.1)">
<use xlink:href="#c"/>
<use x="63.623047" xlink:href="#d"/>
<use x="95.410156" xlink:href="#c"/>
<use x="159.033203" xlink:href="#c"/>
</g>
</g>
<g clip-path="url(#a)">
<g transform="translate(417.06 567.6) scale(.1 -.1)">
<use xlink:href="#c"/>
<use x="63.623047" xlink:href="#d"/>
<use x="95.410156" xlink:href="#c"/>
<use x="159.033203" xlink:href="#n"/>
</g>
</g>
<g clip-path="url(#a)">
<g transform="translate(489.34 654.87) scale(.1 -.1)">
<use xlink:href="#c"/>
<use x="63.623047" xlink:href="#d"/>
<use x="95.410156" xlink:href="#c"/>
<use x="159.033203" xlink:href="#m"/>
</g>
</g>
<g clip-path="url(#a)">
<g transform="translate(541.39 654.87) scale(.1 -.1)">
<use xlink:href="#c"/>
<use x="63.623047" xlink:href="#d"/>
<use x="95.410156" xlink:href="#c"/>
<use x="159.033203" xlink:href="#q"/>
</g>
</g>
<g clip-path="url(#a)">
<defs>
<path id="ai" d="m10.797 72.906h38.719v-8.3125h-29.688v-17.859q2.1406 0.73438 4.2812 1.0938 2.1562 0.35938 4.3125 0.35938 12.203 0 19.328-6.6875 7.1406-6.6875 7.1406-18.109 0-11.766-7.3281-18.297-7.3281-6.5156-20.656-6.5156-4.5938 0-9.3594 0.78125-4.75 0.78125-9.8281 2.3438v9.9219q4.3906-2.3906 9.0781-3.5625t9.9062-1.1719q8.4531 0 13.375 4.4375 4.9375 4.4375 4.9375 12.062 0 7.6094-4.9375 12.047-4.9219 4.4531-13.375 4.4531-3.9531 0-7.8906-0.875-3.9219-0.875-8.0156-2.7344z"/>
</defs>
<g transform="translate(655.11 567.6) scale(.1 -.1)">
<use xlink:href="#c"/>
<use x="63.623047" xlink:href="#d"/>
<use x="95.410156" xlink:href="#c"/>
<use x="159.033203" xlink:href="#ai"/>
</g>
</g>
<g clip-path="url(#a)">
<g transform="translate(894.84 391.85) scale(.1 -.1)">
<use xlink:href="#c"/>
<use x="63.623047" xlink:href="#d"/>
<use x="95.410156" xlink:href="#c"/>
<use x="159.033203" xlink:href="#ab"/>
</g>
</g>
<g clip-path="url(#a)">
<g transform="translate(778.47 654.87) scale(.1 -.1)">
<use xlink:href="#c"/>
<use x="63.623047" xlink:href="#d"/>
<use x="95.410156" xlink:href="#c"/>
<use x="159.033203" xlink:href="#aa"/>
</g>
</g>
<g clip-path="url(#a)">
<g transform="translate(844.97 654.87) scale(.1 -.1)">
<use xlink:href="#c"/>
<use x="63.623047" xlink:href="#d"/>
<use x="95.410156" xlink:href="#c"/>
<use x="159.033203" xlink:href="#z"/>
</g>
</g>
<g clip-path="url(#a)">
<g transform="translate(914.36 654.87) scale(.1 -.1)">
<use xlink:href="#c"/>
<use x="63.623047" xlink:href="#d"/>
<use x="95.410156" xlink:href="#c"/>
<use x="159.033203" xlink:href="#y"/>
</g>
</g>
<g clip-path="url(#a)">
<g transform="translate(1041.6 479.88) scale(.1 -.1)">
<use xlink:href="#c"/>
<use x="63.623047" xlink:href="#d"/>
<use x="95.410156" xlink:href="#n"/>
<use x="159.033203" xlink:href="#ac"/>
</g>
</g>
<g clip-path="url(#a)">
<g transform="translate(986.64 654.87) scale(.1 -.1)">
<use xlink:href="#c"/>
<use x="63.623047" xlink:href="#d"/>
<use x="95.410156" xlink:href="#n"/>
<use x="159.033203" xlink:href="#c"/>
</g>
</g>
<g clip-path="url(#a)">
<g transform="translate(1223.7 567.6) scale(.1 -.1)">
<use xlink:href="#c"/>
<use x="63.623047" xlink:href="#d"/>
<use x="95.410156" xlink:href="#n"/>
<use x="159.033203" xlink:href="#n"/>
</g>
</g>
<g clip-path="url(#a)">
<g transform="translate(1061.8 654.87) scale(.1 -.1)">
<use xlink:href="#c"/>
<use x="63.623047" xlink:href="#d"/>
<use x="95.410156" xlink:href="#n"/>
<use x="159.033203" xlink:href="#m"/>
</g>
</g>
<g clip-path="url(#a)">
<g transform="translate(1139.9 654.87) scale(.1 -.1)">
<use xlink:href="#c"/>
<use x="63.623047" xlink:href="#d"/>
<use x="95.410156" xlink:href="#n"/>
<use x="159.033203" xlink:href="#q"/>
</g>
</g>
<g clip-path="url(#a)">
<g transform="translate(1220.8 654.87) scale(.1 -.1)">
<use xlink:href="#c"/>
<use x="63.623047" xlink:href="#d"/>
<use x="95.410156" xlink:href="#n"/>
<use x="159.033203" xlink:href="#ai"/>
</g>
</g>
<g clip-path="url(#a)">
<g transform="translate(1304.7 654.87) scale(.1 -.1)">
<use xlink:href="#c"/>
<use x="63.623047" xlink:href="#d"/>
<use x="95.410156" xlink:href="#n"/>
<use x="159.033203" xlink:href="#ab"/>
</g>
</g>
<g clip-path="url(#a)">
<g transform="translate(596.32 654.87) scale(.1 -.1)">
<use xlink:href="#c"/>
<use x="63.623047" xlink:href="#d"/>
<use x="95.410156" xlink:href="#n"/>
<use x="159.033203" xlink:href="#aa"/>
</g>
</g>
<g clip-path="url(#a)">
<g transform="translate(654.14 654.87) scale(.1 -.1)">
<use xlink:href="#c"/>
<use x="63.623047" xlink:href="#d"/>
<use x="95.410156" xlink:href="#n"/>
<use x="159.033203" xlink:href="#z"/>
</g>
</g>
<g clip-path="url(#a)">
<g transform="translate(714.86 654.87) scale(.1 -.1)">
<use xlink:href="#c"/>
<use x="63.623047" xlink:href="#d"/>
<use x="95.410156" xlink:href="#n"/>
<use x="159.033203" xlink:href="#y"/>
</g>
</g>
<g clip-path="url(#a)">
<g transform="translate(393.93 654.87) scale(.1 -.1)">
<use xlink:href="#c"/>
<use x="63.623047" xlink:href="#d"/>
<use x="95.410156" xlink:href="#m"/>
<use x="159.033203" xlink:href="#ac"/>
</g>
</g>
<g clip-path="url(#a)">
<g transform="translate(440.19 654.87) scale(.1 -.1)">
<use xlink:href="#c"/>
<use x="63.623047" xlink:href="#d"/>
<use x="95.410156" xlink:href="#m"/>
<use x="159.033203" xlink:href="#c"/>
</g>
</g>
<g clip-path="url(#a)">
<g transform="translate(272.5 654.87) scale(.1 -.1)">
<use xlink:href="#c"/>
<use x="63.623047" xlink:href="#d"/>
<use x="95.410156" xlink:href="#m"/>
<use x="159.033203" xlink:href="#n"/>
</g>
</g>
<g clip-path="url(#a)">
<g transform="translate(310.09 654.87) scale(.1 -.1)">
<use xlink:href="#c"/>
<use x="63.623047" xlink:href="#d"/>
<use x="95.410156" xlink:href="#m"/>
<use x="159.033203" xlink:href="#m"/>
</g>
</g>
<g clip-path="url(#a)">
<g transform="translate(206 654.87) scale(.1 -.1)">
<use xlink:href="#c"/>
<use x="63.623047" xlink:href="#d"/>
<use x="95.410156" xlink:href="#m"/>
<use x="159.033203" xlink:href="#q"/>
</g>
</g>
<g clip-path="url(#a)">
<g transform="translate(237.8 654.87) scale(.1 -.1)">
<use xlink:href="#c"/>
<use x="63.623047" xlink:href="#d"/>
<use x="95.410156" xlink:href="#m"/>
<use x="159.033203" xlink:href="#ai"/>
</g>
</g>
<g clip-path="url(#a)">
<g transform="translate(55.655 654.87) scale(.1 -.1)">
<use xlink:href="#c"/>
<use x="63.623047" xlink:href="#d"/>
<use x="95.410156" xlink:href="#m"/>
<use x="159.033203" xlink:href="#ab"/>
</g>
</g>
<g clip-path="url(#a)">
<g transform="translate(64.329 654.87) scale(.1 -.1)">
<use xlink:href="#c"/>
<use x="63.623047" xlink:href="#d"/>
<use x="95.410156" xlink:href="#m"/>
<use x="159.033203" xlink:href="#aa"/>
</g>
</g>
<g clip-path="url(#a)">
<g transform="translate(75.894 654.87) scale(.1 -.1)">
<use xlink:href="#c"/>
<use x="63.623047" xlink:href="#d"/>
<use x="95.410156" xlink:href="#m"/>
<use x="159.033203" xlink:href="#z"/>
</g>
</g>
<g clip-path="url(#a)">
<g transform="translate(108.66 567.6) scale(.1 -.1)">
<use xlink:href="#c"/>
<use x="63.623047" xlink:href="#d"/>
<use x="95.410156" xlink:href="#m"/>
<use x="159.033203" xlink:href="#y"/>
</g>
</g>
<g clip-path="url(#a)">
<g transform="translate(90.35 654.87) scale(.1 -.1)">
<use xlink:href="#c"/>
<use x="63.623047" xlink:href="#d"/>
<use x="95.410156" xlink:href="#q"/>
<use x="159.033203" xlink:href="#ac"/>
</g>
</g>
<g clip-path="url(#a)">
<g transform="translate(107.7 654.87) scale(.1 -.1)">
<use xlink:href="#c"/>
<use x="63.623047" xlink:href="#d"/>
<use x="95.410156" xlink:href="#q"/>
<use x="159.033203" xlink:href="#c"/>
</g>
</g>
<g clip-path="url(#a)">
<g transform="translate(127.94 654.87) scale(.1 -.1)">
<use xlink:href="#c"/>
<use x="63.623047" xlink:href="#d"/>
<use x="95.410156" xlink:href="#q"/>
<use x="159.033203" xlink:href="#n"/>
</g>
</g>
<g clip-path="url(#a)">
<g transform="translate(1391.4 654.87) scale(.1 -.1)">
<use xlink:href="#c"/>
<use x="63.623047" xlink:href="#d"/>
<use x="95.410156" xlink:href="#q"/>
<use x="159.033203" xlink:href="#m"/>
</g>
</g>
<defs>
<clipPath id="a">
<rect width="1469.3" height="773.33"/>
</clipPath>
</defs>
</svg>
