<?xml version="1.0" encoding="UTF-8"?>
<!DOCTYPE svg  PUBLIC '-//W3C//DTD SVG 1.1//EN'  'http://www.w3.org/Graphics/SVG/1.1/DTD/svg11.dtd'>
<svg width="962.67pt" height="506.67pt" version="1.1" viewBox="0 0 962.67 506.67" xmlns="http://www.w3.org/2000/svg" xmlns:xlink="http://www.w3.org/1999/xlink">
<defs>
<style type="text/css">*{stroke-linecap:butt;stroke-linejoin:round;}</style>
</defs>
<path d="m0 506.67h962.67v-506.67h-962.67z" fill="#fff"/>
<g fill="none" stroke="#000">
<path d="m162.82 23.03-119.07 369.96" clip-path="url(#a)"/>
<path d="m162.82 23.03 119.07 92.943" clip-path="url(#a)"/>
<path d="m43.758 392.99v90.65" clip-path="url(#a)"/>
<path d="m281.89 115.97-216.99 185.1" clip-path="url(#a)"/>
<path d="m281.89 115.97-99.32 92.708" clip-path="url(#a)"/>
<path d="m281.89 115.97 53.585 185.1" clip-path="url(#a)"/>
<path d="m281.89 115.97 262.73 92.708" clip-path="url(#a)"/>
<path d="m64.897 301.07-8.4556 91.911" clip-path="url(#a)"/>
<path d="m64.897 301.07 8.4556 91.911" clip-path="url(#a)"/>
<path d="m182.57 208.68-88.079 184.31" clip-path="url(#a)"/>
<path d="m182.57 208.68-31.708 92.394" clip-path="url(#a)"/>
<path d="m182.57 208.68 38.755 184.31" clip-path="url(#a)"/>
<path d="m182.57 208.68 81.033 184.31" clip-path="url(#a)"/>
<path d="m335.47 301.07-25.367 91.911" clip-path="url(#a)"/>
<path d="m335.47 301.07 25.367 91.911" clip-path="url(#a)"/>
<path d="m544.62 208.68-128.82 184.31" clip-path="url(#a)"/>
<path d="m544.62 208.68-69.626 184.31" clip-path="url(#a)"/>
<path d="m544.62 208.68-6.2096 184.31" clip-path="url(#a)"/>
<path d="m544.62 208.68 204.65 92.394" clip-path="url(#a)"/>
<path d="m415.8 392.99v90.65" clip-path="url(#a)"/>
<path d="m474.99 392.99v90.65" clip-path="url(#a)"/>
<path d="m538.41 392.99v90.65" clip-path="url(#a)"/>
<path d="m749.27 301.07-143.22 91.911" clip-path="url(#a)"/>
<path d="m749.27 301.07-71.344 91.911" clip-path="url(#a)"/>
<path d="m749.27 301.07 44.92 91.911" clip-path="url(#a)"/>
<path d="m749.27 301.07 169.64 91.911" clip-path="url(#a)"/>
<path d="m606.05 392.99v90.65" clip-path="url(#a)"/>
<path d="m677.93 392.99v90.65" clip-path="url(#a)"/>
<path d="m794.19 392.99-40.164 90.65" clip-path="url(#a)"/>
<path d="m794.19 392.99 40.164 90.65" clip-path="url(#a)"/>
<path d="m310.11 392.99v90.65" clip-path="url(#a)"/>
<path d="m360.84 392.99v90.65" clip-path="url(#a)"/>
<path d="m94.491 392.99v90.65" clip-path="url(#a)"/>
<path d="m150.86 301.07-31.004 91.911" clip-path="url(#a)"/>
<path d="m150.86 301.07-1.4093 91.911" clip-path="url(#a)"/>
<path d="m150.86 301.07 32.413 91.911" clip-path="url(#a)"/>
<path d="m221.32 392.99v90.65" clip-path="url(#a)"/>
<path d="m263.6 392.99v90.65" clip-path="url(#a)"/>
<path d="m119.86 392.99v90.65" clip-path="url(#a)"/>
<path d="m149.45 392.99v90.65" clip-path="url(#a)"/>
<path d="m183.27 392.99v90.65" clip-path="url(#a)"/>
<path d="m56.441 392.99v90.65" clip-path="url(#a)"/>
<path d="m73.352 392.99v90.65" clip-path="url(#a)"/>
<path d="m918.91 392.99v90.65" clip-path="url(#a)"/>
</g>
<path d="m108.58 212.05 1.3656-4.2432q0.73527-2.2846-1.5493-3.0199l-7.3702-2.372q-2.2846-0.73527-3.0199 1.5493l-1.3656 4.2432q-0.73527 2.2846 1.5493 3.0199l7.3702 2.372q2.2846 0.73527 3.0199-1.5493z" clip-path="url(#a)" fill="#fff" stroke="#fff"/>
<g clip-path="url(#a)">
<defs>
<path id="aj" d="m9.8125 72.906h9.8594v-64.609h35.5v-8.2969h-45.359z"/>
</defs>
<g transform="translate(104.71 210.81) rotate(-72.16) scale(.08 -.08)">
<use xlink:href="#aj"/>
</g>
</g>
<path d="m216.13 72.594 4.7425 3.7019q1.8919 1.4768 3.3686-0.41508l4.7641-6.1032q1.4768-1.8919-0.41508-3.3686l-4.7425-3.7019q-1.8919-1.4768-3.3686 0.41508l-4.7641 6.1032q-1.4768 1.8919 0.41508 3.3686z" clip-path="url(#a)" fill="#fff" stroke="#fff"/>
<g clip-path="url(#a)">
<defs>
<path id="al" d="m9.8125 72.906h9.8594v-29.891h35.844v29.891h9.8594v-72.906h-9.8594v34.719h-35.844v-34.719h-9.8594z"/>
</defs>
<g transform="translate(218.63 69.391) rotate(37.975) scale(.08 -.08)">
<use xlink:href="#al"/>
</g>
</g>
<path d="m37.486 421.41v33.808q0 2.4 2.4 2.4h7.7425q2.4 0 2.4-2.4v-33.808q0-2.4-2.4-2.4h-7.7425q-2.4 0-2.4 2.4z" clip-path="url(#a)" fill="#fff" stroke="#fff"/>
<g clip-path="url(#a)">
<defs>
<path id="j" d="m-0.29688 72.906h61.672v-8.3125h-25.875v-64.594h-9.9062v64.594h-25.891z"/>
<path id="d" d="m56.203 29.594v-4.3906h-41.312q0.59375-9.2812 5.5938-14.141t13.938-4.8594q5.1719 0 10.031 1.2656t9.6562 3.8125v-8.5q-4.8438-2.0469-9.9219-3.125t-10.297-1.0781q-13.094 0-20.734 7.6094-7.6406 7.625-7.6406 20.625 0 13.422 7.25 21.297 7.25 7.8906 19.562 7.8906 11.031 0 17.453-7.1094 6.4219-7.0938 6.4219-19.297zm-8.9844 2.6406q-0.09375 7.3594-4.125 11.75-4.0312 4.4062-10.672 4.4062-7.5156 0-12.031-4.25t-5.2031-11.969z"/>
<path id="k" d="m41.109 46.297q-1.5156 0.875-3.2969 1.2812-1.7812 0.42188-3.9219 0.42188-7.625 0-11.703-4.9531t-4.0781-14.234v-28.812h-9.0312v54.688h9.0312v-8.5q2.8438 4.9844 7.375 7.3906 4.5469 2.4219 11.047 2.4219 0.92188 0 2.0469-0.125 1.125-0.10938 2.4844-0.35938z"/>
<path id="l" d="m52 44.188q3.375 6.0625 8.0625 8.9375t11.031 2.875q8.5469 0 13.188-5.9844 4.6406-5.9688 4.6406-17v-33.016h-9.0312v32.719q0 7.8594-2.7969 11.656-2.7812 3.8125-8.4844 3.8125-6.9844 0-11.047-4.6406-4.0469-4.625-4.0469-12.641v-30.906h-9.0312v32.719q0 7.9062-2.7812 11.688t-8.5938 3.7812q-6.8906 0-10.953-4.6562-4.0469-4.6562-4.0469-12.625v-30.906h-9.0312v54.688h9.0312v-8.5q3.0781 5.0312 7.375 7.4219t10.203 2.3906q5.9688 0 10.141-3.0312 4.1719-3.0156 6.1719-8.7812z"/>
<path id="i" d="m9.4219 54.688h8.9844v-54.688h-8.9844zm0 21.297h8.9844v-11.391h-8.9844z"/>
<path id="e" d="m54.891 33.016v-33.016h-8.9844v32.719q0 7.7656-3.0312 11.609-3.0312 3.8594-9.0781 3.8594-7.2812 0-11.484-4.6406-4.2031-4.625-4.2031-12.641v-30.906h-9.0312v54.688h9.0312v-8.5q3.2344 4.9375 7.5938 7.375 4.375 2.4375 10.094 2.4375 9.4219 0 14.25-5.8281 4.8438-5.8281 4.8438-17.156z"/>
<path id="g" d="m34.281 27.484q-10.891 0-15.094-2.4844t-4.2031-8.5q0-4.7812 3.1562-7.5938 3.1562-2.7969 8.5625-2.7969 7.4844 0 12 5.2969t4.5156 14.078v2zm17.922 3.7188v-31.203h-8.9844v8.2969q-3.0781-4.9688-7.6719-7.3438t-11.234-2.375q-8.3906 0-13.359 4.7188-4.9531 4.7188-4.9531 12.625 0 9.2188 6.1719 13.906 6.1875 4.6875 18.438 4.6875h12.609v0.89062q0 6.2031-4.0781 9.5938t-11.453 3.3906q-4.6875 0-9.1406-1.125-4.4375-1.125-8.5312-3.375v8.3125q4.9219 1.9062 9.5625 2.8438 4.6406 0.95312 9.0312 0.95312 11.875 0 17.734-6.1562 5.8594-6.1406 5.8594-18.641z"/>
<path id="h" d="m9.4219 75.984h8.9844v-75.984h-8.9844z"/>
</defs>
<g transform="translate(41.55 421.41) rotate(90) scale(.08 -.08)">
<use xlink:href="#j"/>
<use x="44.083984" xlink:href="#d"/>
<use x="105.607422" xlink:href="#k"/>
<use x="144.970703" xlink:href="#l"/>
<use x="242.382812" xlink:href="#i"/>
<use x="270.166016" xlink:href="#e"/>
<use x="333.544922" xlink:href="#g"/>
<use x="394.824219" xlink:href="#h"/>
</g>
</g>
<path d="m175.6 214.88 3.7175-3.1711q1.8259-1.5576 0.26836-3.3835l-5.0248-5.8905q-1.5576-1.8259-3.3835-0.26836l-3.7175 3.1711q-1.8259 1.5576-0.26836 3.3835l5.0248 5.8905q1.5576 1.8259 3.3835 0.26836z" clip-path="url(#a)" fill="#fff" stroke="#fff"/>
<g clip-path="url(#a)">
<g transform="translate(172.97 211.79) rotate(-40.465) scale(.08 -.08)">
<use xlink:href="#j"/>
</g>
</g>
<path d="m234.51 168.78 4.0005-3.7342q1.7544-1.6377 0.1168-3.3921l-5.2831-5.6599q-1.6377-1.7544-3.3921-0.1168l-4.0005 3.7342q-1.7544 1.6377-0.1168 3.3921l5.2831 5.6599q1.6377 1.7544 3.3921 0.1168z" clip-path="url(#a)" fill="#fff" stroke="#fff"/>
<g clip-path="url(#a)">
<defs>
<path id="v" d="m34.188 63.188-13.391-36.281h26.812zm-5.5781 9.7188h11.188l27.781-72.906h-10.25l-6.6406 18.703h-32.859l-6.6406-18.703h-10.406z"/>
</defs>
<g transform="translate(231.74 165.81) rotate(-43.028) scale(.08 -.08)">
<use xlink:href="#v"/>
</g>
</g>
<path d="m301.99 207.95 1.3414 4.6335q0.66737 2.3053 2.9727 1.638l7.4371-2.153q2.3053-0.66737 1.638-2.9727l-1.3414-4.6335q-0.66737-2.3053-2.9727-1.638l-7.4371 2.153q-2.3053 0.66737-1.638 2.9727z" clip-path="url(#a)" fill="#fff" stroke="#fff"/>
<g clip-path="url(#a)">
<defs>
<path id="ai" d="m19.672 64.797v-27.391h12.406q6.8906 0 10.641 3.5625 3.7656 3.5625 3.7656 10.156 0 6.5469-3.7656 10.109-3.75 3.5625-10.641 3.5625zm-9.8594 8.1094h22.266q12.266 0 18.531-5.5469 6.2812-5.5469 6.2812-16.234 0-10.797-6.2812-16.312-6.2656-5.5156-18.531-5.5156h-12.406v-29.297h-9.8594z"/>
</defs>
<g transform="translate(305.89 206.82) rotate(73.855) scale(.08 -.08)">
<use xlink:href="#ai"/>
</g>
</g>
<path d="m408.59 167.33 5.1606 1.821q2.2632 0.79862 3.0618-1.4646l2.5764-7.3013q0.79862-2.2632-1.4646-3.0618l-5.1606-1.821q-2.2632-0.79862-3.0618 1.4646l-2.5764 7.3013q-0.79862 2.2632 1.4646 3.0618z" clip-path="url(#a)" fill="#fff" stroke="#fff"/>
<g clip-path="url(#a)">
<g transform="translate(409.94 163.5) rotate(19.436) scale(.08 -.08)">
<use xlink:href="#v"/>
</g>
</g>
<path d="m66.659 350.37 0.50924-5.5354q0.21986-2.3899-2.17-2.6098l-7.7099-0.70929q-2.3899-0.21986-2.6098 2.17l-0.50924 5.5354q-0.21986 2.3899 2.17 2.6098l7.7099 0.70929q2.3899 0.21986 2.6098-2.17z" clip-path="url(#a)" fill="#fff" stroke="#fff"/>
<g clip-path="url(#a)">
<defs>
<path id="s" d="m44.391 34.188q3.1719-1.0781 6.1719-4.5938t6.0312-9.6719l10.016-19.922h-10.609l-9.3125 18.703q-3.625 7.3281-7.0156 9.7188t-9.25 2.3906h-10.75v-30.812h-9.8594v72.906h22.266q12.5 0 18.656-5.2344 6.1562-5.2188 6.1562-15.766 0-6.8906-3.2031-11.438-3.2031-4.5312-9.2969-6.2812zm-24.719 30.609v-25.875h12.406q7.125 0 10.766 3.2969t3.6406 9.6875-3.6406 9.6406-10.766 3.25z"/>
</defs>
<g transform="translate(62.612 350) rotate(-84.744) scale(.08 -.08)">
<use xlink:href="#s"/>
</g>
</g>
<path d="m62.624 344.82 0.51176 5.5628q0.21986 2.3899 2.6098 2.17l7.7099-0.70929q2.3899-0.21986 2.17-2.6098l-0.51176-5.5628q-0.21986-2.3899-2.6098-2.17l-7.7099 0.70929q-2.3899 0.21986-2.17 2.6098z" clip-path="url(#a)" fill="#fff" stroke="#fff"/>
<g clip-path="url(#a)">
<defs>
<path id="p" d="m64.406 67.281v-10.391q-4.9844 4.6406-10.625 6.9219-5.6406 2.2969-11.984 2.2969-12.5 0-19.141-7.6406t-6.6406-22.094q0-14.406 6.6406-22.047t19.141-7.6406q6.3438 0 11.984 2.2969t10.625 6.9375v-10.312q-5.1719-3.5156-10.969-5.2812-5.7812-1.75-12.219-1.75-16.562 0-26.094 10.125-9.5156 10.141-9.5156 27.672 0 17.578 9.5156 27.703 9.5312 10.141 26.094 10.141 6.5312 0 12.312-1.7344 5.7969-1.7344 10.875-5.2031z"/>
</defs>
<g transform="translate(66.67 344.45) rotate(84.744) scale(.08 -.08)">
<use xlink:href="#p"/>
</g>
</g>
<path d="m143.1 305.82 2.1797-4.5609q1.0349-2.1654-1.1306-3.2003l-6.9858-3.3385q-2.1654-1.0349-3.2003 1.1306l-2.1797 4.5609q-1.0349 2.1654 1.1306 3.2003l6.9858 3.3385q2.1654 1.0349 3.2003-1.1306z" clip-path="url(#a)" fill="#fff" stroke="#fff"/>
<g clip-path="url(#a)">
<defs>
<path id="o" d="m9.8125 72.906h46.094v-8.3125h-36.234v-21.578h34.719v-8.2969h-34.719v-26.422h37.109v-8.2969h-46.969z"/>
</defs>
<g transform="translate(139.43 304.07) rotate(-64.457) scale(.08 -.08)">
<use xlink:href="#o"/>
</g>
</g>
<path d="m171.83 259.3 1.6409-4.7813q0.77905-2.27-1.491-3.0491l-7.3232-2.5133q-2.27-0.77905-3.0491 1.491l-1.6409 4.7813q-0.77905 2.27 1.491 3.0491l7.3232 2.5133q2.27 0.77905 3.0491-1.491z" clip-path="url(#a)" fill="#fff" stroke="#fff"/>
<g clip-path="url(#a)">
<g transform="translate(167.98 257.98) rotate(-71.058) scale(.08 -.08)">
<use xlink:href="#o"/>
</g>
</g>
<path d="m195.29 299.65 1.0402 4.9468q0.49386 2.3486 2.8425 1.8548l7.5768-1.5932q2.3486-0.49386 1.8548-2.8425l-1.0402-4.9468q-0.49386-2.3486-2.8425-1.8548l-7.5768 1.5932q-2.3486 0.49386-1.8548 2.8425z" clip-path="url(#a)" fill="#fff" stroke="#fff"/>
<g clip-path="url(#a)">
<g transform="translate(199.27 298.81) rotate(78.125) scale(.08 -.08)">
<use xlink:href="#o"/>
</g>
</g>
<path d="m216.22 300.8 2.2484 5.1138q0.96596 2.197 3.163 1.2311l7.0877-3.1162q2.197-0.96596 1.2311-3.163l-2.2484-5.1138q-0.96596-2.197-3.163-1.2311l-7.0877 3.1162q-2.197 0.96596-1.2311 3.163z" clip-path="url(#a)" fill="#fff" stroke="#fff"/>
<g clip-path="url(#a)">
<g transform="translate(219.94 299.16) rotate(66.267) scale(.08 -.08)">
<use xlink:href="#p"/>
</g>
</g>
<path d="m328.09 351.39 1.4862-5.3849q0.63851-2.3135-1.675-2.952l-7.4635-2.0598q-2.3135-0.63851-2.952 1.675l-1.4862 5.3849q-0.63851 2.3135 1.675 2.952l7.4635 2.0598q2.3135 0.63851 2.952-1.675z" clip-path="url(#a)" fill="#fff" stroke="#fff"/>
<g clip-path="url(#a)">
<g transform="translate(324.18 350.31) rotate(-74.571) scale(.08 -.08)">
<use xlink:href="#p"/>
</g>
</g>
<path d="m341.44 346.26 1.3449 4.8728q0.63851 2.3135 2.952 1.675l7.4635-2.0598q2.3135-0.63851 1.675-2.952l-1.3449-4.8728q-0.63851-2.3135-2.952-1.675l-7.4635 2.0598q-2.3135 0.63851-1.675 2.952z" clip-path="url(#a)" fill="#fff" stroke="#fff"/>
<g clip-path="url(#a)">
<g transform="translate(345.36 345.18) rotate(74.571) scale(.08 -.08)">
<use xlink:href="#o"/>
</g>
</g>
<path d="m483.76 306.7 3.1844-4.5562q1.3749-1.9672-0.59226-3.342l-6.3461-4.4354q-1.9672-1.3749-3.342 0.59226l-3.1844 4.5562q-1.3749 1.9672 0.59226 3.342l6.3461 4.4354q1.9672 1.3749 3.342-0.59226z" clip-path="url(#a)" fill="#fff" stroke="#fff"/>
<g clip-path="url(#a)">
<g transform="translate(480.43 304.38) rotate(-55.049) scale(.08 -.08)">
<use xlink:href="#s"/>
</g>
</g>
<path d="m514.78 305.41 1.7864-4.7288q0.84816-2.2451-1.397-3.0933l-7.2429-2.7362q-2.2451-0.84816-3.0933 1.397l-1.7864 4.7288q-0.84816 2.2451 1.397 3.0933l7.2429 2.7362q2.2451 0.84816 3.0933-1.397z" clip-path="url(#a)" fill="#fff" stroke="#fff"/>
<g clip-path="url(#a)">
<g transform="translate(510.98 303.98) rotate(-69.305) scale(.08 -.08)">
<use xlink:href="#o"/>
</g>
</g>
<path d="m547.69 303.84 0.1881-5.5831q0.080815-2.3986-2.3178-2.4795l-7.7381-0.26071q-2.3986-0.080815-2.4795 2.3178l-0.1881 5.5831q-0.080814 2.3986 2.3178 2.4795l7.7381 0.26071q2.3986 0.080815 2.4795-2.3178z" clip-path="url(#a)" fill="#fff" stroke="#fff"/>
<g clip-path="url(#a)">
<g transform="translate(543.63 303.7) rotate(-88.07) scale(.08 -.08)">
<use xlink:href="#p"/>
</g>
</g>
<path d="m642.06 259.55 4.6072 2.08q2.1874 0.98755 3.175-1.1999l3.1859-7.0567q0.98755-2.1874-1.1999-3.175l-4.6072-2.08q-2.1874-0.98755-3.175 1.1999l-3.1859 7.0567q-0.98755 2.1874 1.1999 3.175z" clip-path="url(#a)" fill="#fff" stroke="#fff"/>
<g clip-path="url(#a)">
<g transform="translate(643.73 255.85) rotate(24.298) scale(.08 -.08)">
<use xlink:href="#o"/>
</g>
</g>
<path d="m409.53 421.41v33.808q0 2.4 2.4 2.4h7.7425q2.4 0 2.4-2.4v-33.808q0-2.4-2.4-2.4h-7.7425q-2.4 0-2.4 2.4z" clip-path="url(#a)" fill="#fff" stroke="#fff"/>
<g clip-path="url(#a)">
<g transform="translate(413.6 421.41) rotate(90) scale(.08 -.08)">
<use xlink:href="#j"/>
<use x="44.083984" xlink:href="#d"/>
<use x="105.607422" xlink:href="#k"/>
<use x="144.970703" xlink:href="#l"/>
<use x="242.382812" xlink:href="#i"/>
<use x="270.166016" xlink:href="#e"/>
<use x="333.544922" xlink:href="#g"/>
<use x="394.824219" xlink:href="#h"/>
</g>
</g>
<path d="m468.72 421.41v33.808q0 2.4 2.4 2.4h7.7425q2.4 0 2.4-2.4v-33.808q0-2.4-2.4-2.4h-7.7425q-2.4 0-2.4 2.4z" clip-path="url(#a)" fill="#fff" stroke="#fff"/>
<g clip-path="url(#a)">
<g transform="translate(472.78 421.41) rotate(90) scale(.08 -.08)">
<use xlink:href="#j"/>
<use x="44.083984" xlink:href="#d"/>
<use x="105.607422" xlink:href="#k"/>
<use x="144.970703" xlink:href="#l"/>
<use x="242.382812" xlink:href="#i"/>
<use x="270.166016" xlink:href="#e"/>
<use x="333.544922" xlink:href="#g"/>
<use x="394.824219" xlink:href="#h"/>
</g>
</g>
<path d="m532.14 421.41v33.808q0 2.4 2.4 2.4h7.7425q2.4 0 2.4-2.4v-33.808q0-2.4-2.4-2.4h-7.7425q-2.4 0-2.4 2.4z" clip-path="url(#a)" fill="#fff" stroke="#fff"/>
<g clip-path="url(#a)">
<g transform="translate(536.2 421.41) rotate(90) scale(.08 -.08)">
<use xlink:href="#j"/>
<use x="44.083984" xlink:href="#d"/>
<use x="105.607422" xlink:href="#k"/>
<use x="144.970703" xlink:href="#l"/>
<use x="242.382812" xlink:href="#i"/>
<use x="270.166016" xlink:href="#e"/>
<use x="333.544922" xlink:href="#g"/>
<use x="394.824219" xlink:href="#h"/>
</g>
</g>
<path d="m678.71 353.81 4.6782-3.0023q2.0198-1.2963 0.72357-3.3161l-4.1818-6.5161q-1.2963-2.0198-3.3161-0.72357l-4.6782 3.0023q-2.0198 1.2963-0.72357 3.3161l4.1818 6.5161q1.2963 2.0198 3.3161 0.72357z" clip-path="url(#a)" fill="#fff" stroke="#fff"/>
<g clip-path="url(#a)">
<g transform="translate(676.51 350.39) rotate(-32.691) scale(.08 -.08)">
<use xlink:href="#s"/>
</g>
</g>
<path d="m717 352.87 3.0996-3.9932q1.4716-1.8959-0.42425-3.3675l-6.1162-4.7475q-1.8959-1.4716-3.3675 0.42425l-3.0996 3.9932q-1.4716 1.8959 0.42425 3.3675l6.1162 4.7475q1.8959 1.4716 3.3675-0.42425z" clip-path="url(#a)" fill="#fff" stroke="#fff"/>
<g clip-path="url(#a)">
<g transform="translate(713.79 350.38) rotate(-52.181) scale(.08 -.08)">
<use xlink:href="#o"/>
</g>
</g>
<path d="m764.87 347.27 2.4529 5.0189q1.0538 2.1563 3.2101 1.1024l6.9562-3.3997q2.1563-1.0538 1.1024-3.2101l-2.4529-5.0189q-1.0538-2.1563-3.2101-1.1024l-6.9562 3.3997q-2.1563 1.0538-1.1024 3.2101z" clip-path="url(#a)" fill="#fff" stroke="#fff"/>
<g clip-path="url(#a)">
<g transform="translate(768.52 345.49) rotate(63.954) scale(.08 -.08)">
<use xlink:href="#p"/>
</g>
</g>
<path d="m828.53 351.15 5.148 2.7892q2.1102 1.1433 3.2535-0.96688l3.6883-6.8075q1.1433-2.1102-0.96688-3.2535l-5.148-2.7892q-2.1102-1.1433-3.2535 0.96688l-3.6883 6.8075q-1.1433 2.1102 0.96688 3.2535z" clip-path="url(#a)" fill="#fff" stroke="#fff"/>
<g clip-path="url(#a)">
<defs>
<path id="ah" d="m8.6875 72.906h9.9219v-44.297q0-11.719 4.2344-16.875 4.25-5.1406 13.781-5.1406 9.4688 0 13.719 5.1406 4.25 5.1562 4.25 16.875v44.297h9.9062v-45.516q0-14.25-7.0625-21.531-7.0469-7.2812-20.812-7.2812-13.828 0-20.891 7.2812-7.0469 7.2812-7.0469 21.531z"/>
</defs>
<g transform="translate(830.46 347.58) rotate(28.449) scale(.08 -.08)">
<use xlink:href="#ah"/>
</g>
</g>
<path d="m599.78 421.41v33.808q0 2.4 2.4 2.4h7.7425q2.4 0 2.4-2.4v-33.808q0-2.4-2.4-2.4h-7.7425q-2.4 0-2.4 2.4z" clip-path="url(#a)" fill="#fff" stroke="#fff"/>
<g clip-path="url(#a)">
<g transform="translate(603.85 421.41) rotate(90) scale(.08 -.08)">
<use xlink:href="#j"/>
<use x="44.083984" xlink:href="#d"/>
<use x="105.607422" xlink:href="#k"/>
<use x="144.970703" xlink:href="#l"/>
<use x="242.382812" xlink:href="#i"/>
<use x="270.166016" xlink:href="#e"/>
<use x="333.544922" xlink:href="#g"/>
<use x="394.824219" xlink:href="#h"/>
</g>
</g>
<path d="m671.65 421.41v33.808q0 2.4 2.4 2.4h7.7425q2.4 0 2.4-2.4v-33.808q0-2.4-2.4-2.4h-7.7425q-2.4 0-2.4 2.4z" clip-path="url(#a)" fill="#fff" stroke="#fff"/>
<g clip-path="url(#a)">
<g transform="translate(675.72 421.41) rotate(90) scale(.08 -.08)">
<use xlink:href="#j"/>
<use x="44.083984" xlink:href="#d"/>
<use x="105.607422" xlink:href="#k"/>
<use x="144.970703" xlink:href="#l"/>
<use x="242.382812" xlink:href="#i"/>
<use x="270.166016" xlink:href="#e"/>
<use x="333.544922" xlink:href="#g"/>
<use x="394.824219" xlink:href="#h"/>
</g>
</g>
<path d="m772.99 456.31 13.695-30.909q0.9722-2.1943-1.2221-3.1665l-7.0788-3.1364q-2.1943-0.9722-3.1665 1.2221l-13.695 30.909q-0.9722 2.1943 1.2221 3.1665l7.0788 3.1364q2.1943 0.9722 3.1665-1.2221z" clip-path="url(#a)" fill="#fff" stroke="#fff"/>
<g clip-path="url(#a)">
<g transform="translate(769.28 454.66) rotate(-66.104) scale(.08 -.08)">
<use xlink:href="#j"/>
<use x="44.083984" xlink:href="#d"/>
<use x="105.607422" xlink:href="#k"/>
<use x="144.970703" xlink:href="#l"/>
<use x="242.382812" xlink:href="#i"/>
<use x="270.166016" xlink:href="#e"/>
<use x="333.544922" xlink:href="#g"/>
<use x="394.824219" xlink:href="#h"/>
</g>
</g>
<path d="m801.69 425.4 13.695 30.909q0.9722 2.1943 3.1665 1.2221l7.0788-3.1364q2.1943-0.9722 1.2221-3.1665l-13.695-30.909q-0.9722-2.1943-3.1665-1.2221l-7.0788 3.1364q-2.1943 0.9722-1.2221 3.1665z" clip-path="url(#a)" fill="#fff" stroke="#fff"/>
<g clip-path="url(#a)">
<g transform="translate(805.41 423.75) rotate(66.104) scale(.08 -.08)">
<use xlink:href="#j"/>
<use x="44.083984" xlink:href="#d"/>
<use x="105.607422" xlink:href="#k"/>
<use x="144.970703" xlink:href="#l"/>
<use x="242.382812" xlink:href="#i"/>
<use x="270.166016" xlink:href="#e"/>
<use x="333.544922" xlink:href="#g"/>
<use x="394.824219" xlink:href="#h"/>
</g>
</g>
<path d="m303.84 421.41v33.808q0 2.4 2.4 2.4h7.7425q2.4 0 2.4-2.4v-33.808q0-2.4-2.4-2.4h-7.7425q-2.4 0-2.4 2.4z" clip-path="url(#a)" fill="#fff" stroke="#fff"/>
<g clip-path="url(#a)">
<g transform="translate(307.9 421.41) rotate(90) scale(.08 -.08)">
<use xlink:href="#j"/>
<use x="44.083984" xlink:href="#d"/>
<use x="105.607422" xlink:href="#k"/>
<use x="144.970703" xlink:href="#l"/>
<use x="242.382812" xlink:href="#i"/>
<use x="270.166016" xlink:href="#e"/>
<use x="333.544922" xlink:href="#g"/>
<use x="394.824219" xlink:href="#h"/>
</g>
</g>
<path d="m354.57 421.41v33.808q0 2.4 2.4 2.4h7.7425q2.4 0 2.4-2.4v-33.808q0-2.4-2.4-2.4h-7.7425q-2.4 0-2.4 2.4z" clip-path="url(#a)" fill="#fff" stroke="#fff"/>
<g clip-path="url(#a)">
<g transform="translate(358.63 421.41) rotate(90) scale(.08 -.08)">
<use xlink:href="#j"/>
<use x="44.083984" xlink:href="#d"/>
<use x="105.607422" xlink:href="#k"/>
<use x="144.970703" xlink:href="#l"/>
<use x="242.382812" xlink:href="#i"/>
<use x="270.166016" xlink:href="#e"/>
<use x="333.544922" xlink:href="#g"/>
<use x="394.824219" xlink:href="#h"/>
</g>
</g>
<path d="m88.22 421.41v33.808q0 2.4 2.4 2.4h7.7425q2.4 0 2.4-2.4v-33.808q0-2.4-2.4-2.4h-7.7425q-2.4 0-2.4 2.4z" clip-path="url(#a)" fill="#fff" stroke="#fff"/>
<g clip-path="url(#a)">
<g transform="translate(92.283 421.41) rotate(90) scale(.08 -.08)">
<use xlink:href="#j"/>
<use x="44.083984" xlink:href="#d"/>
<use x="105.607422" xlink:href="#k"/>
<use x="144.970703" xlink:href="#l"/>
<use x="242.382812" xlink:href="#i"/>
<use x="270.166016" xlink:href="#e"/>
<use x="333.544922" xlink:href="#g"/>
<use x="394.824219" xlink:href="#h"/>
</g>
</g>
<path d="m140.49 351.43 1.6157-4.7898q0.7671-2.2741-1.507-3.0412l-7.3364-2.4747q-2.2741-0.7671-3.0412 1.507l-1.6157 4.7898q-0.7671 2.2741 1.507 3.0412l7.3364 2.4747q2.2741 0.7671 3.0412-1.507z" clip-path="url(#a)" fill="#fff" stroke="#fff"/>
<g clip-path="url(#a)">
<g transform="translate(136.64 350.13) rotate(-71.36) scale(.08 -.08)">
<use xlink:href="#o"/>
</g>
</g>
<path d="m156.38 349.92 0.085642-5.5856q0.036795-2.3997-2.3629-2.4365l-7.7416-0.1187q-2.3997-0.036795-2.4365 2.3629l-0.085643 5.5856q-0.036795 2.3997 2.3629 2.4365l7.7416 0.1187q2.3997 0.036795 2.4365-2.3629z" clip-path="url(#a)" fill="#fff" stroke="#fff"/>
<g clip-path="url(#a)">
<g transform="translate(152.32 349.86) rotate(-89.122) scale(.08 -.08)">
<use xlink:href="#p"/>
</g>
</g>
<path d="m160.23 346.49 1.8487 5.2423q0.79819 2.2634 3.0616 1.4652l7.3018-2.575q2.2634-0.79819 1.4652-3.0616l-1.8487-5.2423q-0.79819-2.2634-3.0616-1.4652l-7.3018 2.575q-2.2634 0.79819-1.4652 3.0616z" clip-path="url(#a)" fill="#fff" stroke="#fff"/>
<g clip-path="url(#a)">
<g transform="translate(164.06 345.14) rotate(70.575) scale(.08 -.08)">
<use xlink:href="#s"/>
</g>
</g>
<path d="m215.05 421.41v33.808q0 2.4 2.4 2.4h7.7425q2.4 0 2.4-2.4v-33.808q0-2.4-2.4-2.4h-7.7425q-2.4 0-2.4 2.4z" clip-path="url(#a)" fill="#fff" stroke="#fff"/>
<g clip-path="url(#a)">
<g transform="translate(219.12 421.41) rotate(90) scale(.08 -.08)">
<use xlink:href="#j"/>
<use x="44.083984" xlink:href="#d"/>
<use x="105.607422" xlink:href="#k"/>
<use x="144.970703" xlink:href="#l"/>
<use x="242.382812" xlink:href="#i"/>
<use x="270.166016" xlink:href="#e"/>
<use x="333.544922" xlink:href="#g"/>
<use x="394.824219" xlink:href="#h"/>
</g>
</g>
<path d="m257.33 421.41v33.808q0 2.4 2.4 2.4h7.7425q2.4 0 2.4-2.4v-33.808q0-2.4-2.4-2.4h-7.7425q-2.4 0-2.4 2.4z" clip-path="url(#a)" fill="#fff" stroke="#fff"/>
<g clip-path="url(#a)">
<g transform="translate(261.39 421.41) rotate(90) scale(.08 -.08)">
<use xlink:href="#j"/>
<use x="44.083984" xlink:href="#d"/>
<use x="105.607422" xlink:href="#k"/>
<use x="144.970703" xlink:href="#l"/>
<use x="242.382812" xlink:href="#i"/>
<use x="270.166016" xlink:href="#e"/>
<use x="333.544922" xlink:href="#g"/>
<use x="394.824219" xlink:href="#h"/>
</g>
</g>
<path d="m113.59 421.41v33.808q0 2.4 2.4 2.4h7.7425q2.4 0 2.4-2.4v-33.808q0-2.4-2.4-2.4h-7.7425q-2.4 0-2.4 2.4z" clip-path="url(#a)" fill="#fff" stroke="#fff"/>
<g clip-path="url(#a)">
<g transform="translate(117.65 421.41) rotate(90) scale(.08 -.08)">
<use xlink:href="#j"/>
<use x="44.083984" xlink:href="#d"/>
<use x="105.607422" xlink:href="#k"/>
<use x="144.970703" xlink:href="#l"/>
<use x="242.382812" xlink:href="#i"/>
<use x="270.166016" xlink:href="#e"/>
<use x="333.544922" xlink:href="#g"/>
<use x="394.824219" xlink:href="#h"/>
</g>
</g>
<path d="m143.18 421.41v33.808q0 2.4 2.4 2.4h7.7425q2.4 0 2.4-2.4v-33.808q0-2.4-2.4-2.4h-7.7425q-2.4 0-2.4 2.4z" clip-path="url(#a)" fill="#fff" stroke="#fff"/>
<g clip-path="url(#a)">
<g transform="translate(147.24 421.41) rotate(90) scale(.08 -.08)">
<use xlink:href="#j"/>
<use x="44.083984" xlink:href="#d"/>
<use x="105.607422" xlink:href="#k"/>
<use x="144.970703" xlink:href="#l"/>
<use x="242.382812" xlink:href="#i"/>
<use x="270.166016" xlink:href="#e"/>
<use x="333.544922" xlink:href="#g"/>
<use x="394.824219" xlink:href="#h"/>
</g>
</g>
<path d="m177 421.41v33.808q0 2.4 2.4 2.4h7.7425q2.4 0 2.4-2.4v-33.808q0-2.4-2.4-2.4h-7.7425q-2.4 0-2.4 2.4z" clip-path="url(#a)" fill="#fff" stroke="#fff"/>
<g clip-path="url(#a)">
<g transform="translate(181.07 421.41) rotate(90) scale(.08 -.08)">
<use xlink:href="#j"/>
<use x="44.083984" xlink:href="#d"/>
<use x="105.607422" xlink:href="#k"/>
<use x="144.970703" xlink:href="#l"/>
<use x="242.382812" xlink:href="#i"/>
<use x="270.166016" xlink:href="#e"/>
<use x="333.544922" xlink:href="#g"/>
<use x="394.824219" xlink:href="#h"/>
</g>
</g>
<path d="m50.17 421.41v33.808q0 2.4 2.4 2.4h7.7425q2.4 0 2.4-2.4v-33.808q0-2.4-2.4-2.4h-7.7425q-2.4 0-2.4 2.4z" clip-path="url(#a)" fill="#fff" stroke="#fff"/>
<g clip-path="url(#a)">
<g transform="translate(54.233 421.41) rotate(90) scale(.08 -.08)">
<use xlink:href="#j"/>
<use x="44.083984" xlink:href="#d"/>
<use x="105.607422" xlink:href="#k"/>
<use x="144.970703" xlink:href="#l"/>
<use x="242.382812" xlink:href="#i"/>
<use x="270.166016" xlink:href="#e"/>
<use x="333.544922" xlink:href="#g"/>
<use x="394.824219" xlink:href="#h"/>
</g>
</g>
<path d="m67.081 421.41v33.808q0 2.4 2.4 2.4h7.7425q2.4 0 2.4-2.4v-33.808q0-2.4-2.4-2.4h-7.7425q-2.4 0-2.4 2.4z" clip-path="url(#a)" fill="#fff" stroke="#fff"/>
<g clip-path="url(#a)">
<g transform="translate(71.145 421.41) rotate(90) scale(.08 -.08)">
<use xlink:href="#j"/>
<use x="44.083984" xlink:href="#d"/>
<use x="105.607422" xlink:href="#k"/>
<use x="144.970703" xlink:href="#l"/>
<use x="242.382812" xlink:href="#i"/>
<use x="270.166016" xlink:href="#e"/>
<use x="333.544922" xlink:href="#g"/>
<use x="394.824219" xlink:href="#h"/>
</g>
</g>
<path d="m912.64 421.41v33.808q0 2.4 2.4 2.4h7.7425q2.4 0 2.4-2.4v-33.808q0-2.4-2.4-2.4h-7.7425q-2.4 0-2.4 2.4z" clip-path="url(#a)" fill="#fff" stroke="#fff"/>
<g clip-path="url(#a)">
<g transform="translate(916.7 421.41) rotate(90) scale(.08 -.08)">
<use xlink:href="#j"/>
<use x="44.083984" xlink:href="#d"/>
<use x="105.607422" xlink:href="#k"/>
<use x="144.970703" xlink:href="#l"/>
<use x="242.382812" xlink:href="#i"/>
<use x="270.166016" xlink:href="#e"/>
<use x="333.544922" xlink:href="#g"/>
<use x="394.824219" xlink:href="#h"/>
</g>
</g>
<defs>
<path id="b" d="m0 8.6603c2.2967 0 4.4997-0.9125 6.1237-2.5365 1.624-1.624 2.5365-3.827 2.5365-6.1237s-0.9125-4.4997-2.5365-6.1237c-1.624-1.624-3.827-2.5365-6.1237-2.5365s-4.4997 0.9125-6.1237 2.5365c-1.624 1.624-2.5365 3.827-2.5365 6.1237s0.9125 4.4997 2.5365 6.1237c1.624 1.624 3.827 2.5365 6.1237 2.5365z"/>
</defs>
<g clip-path="url(#a)">
<use x="43.757576" y="483.636364" fill="#ffffff" stroke="#ffffff" xlink:href="#b"/>
</g>
<g clip-path="url(#a)">
<use x="56.440931" y="483.636364" fill="#ffffff" stroke="#ffffff" xlink:href="#b"/>
</g>
<g clip-path="url(#a)">
<use x="73.352071" y="483.636364" fill="#ffffff" stroke="#ffffff" xlink:href="#b"/>
</g>
<g clip-path="url(#a)">
<use x="94.490997" y="483.636364" fill="#ffffff" stroke="#ffffff" xlink:href="#b"/>
</g>
<g clip-path="url(#a)">
<use x="119.857708" y="483.636364" fill="#ffffff" stroke="#ffffff" xlink:href="#b"/>
</g>
<g clip-path="url(#a)">
<use x="149.452203" y="483.636364" fill="#ffffff" stroke="#ffffff" xlink:href="#b"/>
</g>
<g clip-path="url(#a)">
<use x="183.274484" y="483.636364" fill="#ffffff" stroke="#ffffff" xlink:href="#b"/>
</g>
<g clip-path="url(#a)">
<use x="221.32455" y="483.636364" fill="#ffffff" stroke="#ffffff" xlink:href="#b"/>
</g>
<g clip-path="url(#a)">
<use x="263.602401" y="483.636364" fill="#ffffff" stroke="#ffffff" xlink:href="#b"/>
</g>
<g clip-path="url(#a)">
<use x="310.108037" y="483.636364" fill="#ffffff" stroke="#ffffff" xlink:href="#b"/>
</g>
<g clip-path="url(#a)">
<use x="360.841458" y="483.636364" fill="#ffffff" stroke="#ffffff" xlink:href="#b"/>
</g>
<g clip-path="url(#a)">
<use x="415.802664" y="483.636364" fill="#ffffff" stroke="#ffffff" xlink:href="#b"/>
</g>
<g clip-path="url(#a)">
<use x="474.991656" y="483.636364" fill="#ffffff" stroke="#ffffff" xlink:href="#b"/>
</g>
<g clip-path="url(#a)">
<use x="538.408432" y="483.636364" fill="#ffffff" stroke="#ffffff" xlink:href="#b"/>
</g>
<g clip-path="url(#a)">
<use x="606.052994" y="483.636364" fill="#ffffff" stroke="#ffffff" xlink:href="#b"/>
</g>
<g clip-path="url(#a)">
<use x="677.92534" y="483.636364" fill="#ffffff" stroke="#ffffff" xlink:href="#b"/>
</g>
<g clip-path="url(#a)">
<use x="754.025472" y="483.636364" fill="#ffffff" stroke="#ffffff" xlink:href="#b"/>
</g>
<g clip-path="url(#a)">
<use x="834.353389" y="483.636364" fill="#ffffff" stroke="#ffffff" xlink:href="#b"/>
</g>
<g clip-path="url(#a)">
<use x="918.909091" y="483.636364" fill="#ffffff" stroke="#ffffff" xlink:href="#b"/>
</g>
<g clip-path="url(#a)">
<use x="162.823675" y="23.030303" fill="#ffffff" stroke="#ffffff" xlink:href="#b"/>
</g>
<g clip-path="url(#a)">
<use x="43.757576" y="392.985918" fill="#ffffff" stroke="#ffffff" xlink:href="#b"/>
</g>
<g clip-path="url(#a)">
<use x="281.889773" y="115.972849" fill="#ffffff" stroke="#ffffff" xlink:href="#b"/>
</g>
<g clip-path="url(#a)">
<use x="64.896501" y="301.074425" fill="#ffffff" stroke="#ffffff" xlink:href="#b"/>
</g>
<g clip-path="url(#a)">
<use x="182.569853" y="208.680864" fill="#ffffff" stroke="#ffffff" xlink:href="#b"/>
</g>
<g clip-path="url(#a)">
<use x="335.474747" y="301.074425" fill="#ffffff" stroke="#ffffff" xlink:href="#b"/>
</g>
<g clip-path="url(#a)">
<use x="544.617992" y="208.680864" fill="#ffffff" stroke="#ffffff" xlink:href="#b"/>
</g>
<g clip-path="url(#a)">
<use x="415.802664" y="392.985918" fill="#ffffff" stroke="#ffffff" xlink:href="#b"/>
</g>
<g clip-path="url(#a)">
<use x="474.991656" y="392.985918" fill="#ffffff" stroke="#ffffff" xlink:href="#b"/>
</g>
<g clip-path="url(#a)">
<use x="538.408432" y="392.985918" fill="#ffffff" stroke="#ffffff" xlink:href="#b"/>
</g>
<g clip-path="url(#a)">
<use x="749.269214" y="301.074425" fill="#ffffff" stroke="#ffffff" xlink:href="#b"/>
</g>
<g clip-path="url(#a)">
<use x="606.052994" y="392.985918" fill="#ffffff" stroke="#ffffff" xlink:href="#b"/>
</g>
<g clip-path="url(#a)">
<use x="677.92534" y="392.985918" fill="#ffffff" stroke="#ffffff" xlink:href="#b"/>
</g>
<g clip-path="url(#a)">
<use x="794.189431" y="392.985918" fill="#ffffff" stroke="#ffffff" xlink:href="#b"/>
</g>
<g clip-path="url(#a)">
<use x="310.108037" y="392.985918" fill="#ffffff" stroke="#ffffff" xlink:href="#b"/>
</g>
<g clip-path="url(#a)">
<use x="360.841458" y="392.985918" fill="#ffffff" stroke="#ffffff" xlink:href="#b"/>
</g>
<g clip-path="url(#a)">
<use x="94.490997" y="392.985918" fill="#ffffff" stroke="#ffffff" xlink:href="#b"/>
</g>
<g clip-path="url(#a)">
<use x="150.861465" y="301.074425" fill="#ffffff" stroke="#ffffff" xlink:href="#b"/>
</g>
<g clip-path="url(#a)">
<use x="221.32455" y="392.985918" fill="#ffffff" stroke="#ffffff" xlink:href="#b"/>
</g>
<g clip-path="url(#a)">
<use x="263.602401" y="392.985918" fill="#ffffff" stroke="#ffffff" xlink:href="#b"/>
</g>
<g clip-path="url(#a)">
<use x="119.857708" y="392.985918" fill="#ffffff" stroke="#ffffff" xlink:href="#b"/>
</g>
<g clip-path="url(#a)">
<use x="149.452203" y="392.985918" fill="#ffffff" stroke="#ffffff" xlink:href="#b"/>
</g>
<g clip-path="url(#a)">
<use x="183.274484" y="392.985918" fill="#ffffff" stroke="#ffffff" xlink:href="#b"/>
</g>
<g clip-path="url(#a)">
<use x="56.440931" y="392.985918" fill="#ffffff" stroke="#ffffff" xlink:href="#b"/>
</g>
<g clip-path="url(#a)">
<use x="73.352071" y="392.985918" fill="#ffffff" stroke="#ffffff" xlink:href="#b"/>
</g>
<g clip-path="url(#a)">
<use x="918.909091" y="392.985918" fill="#ffffff" stroke="#ffffff" xlink:href="#b"/>
</g>
<g clip-path="url(#a)">
<defs>
<path id="an" d="m19.672 34.812v-26.703h15.828q7.9531 0 11.781 3.2969 3.8438 3.2969 3.8438 10.078 0 6.8438-3.8438 10.078-3.8281 3.25-11.781 3.25zm0 29.984v-21.969h14.609q7.2188 0 10.75 2.7031 3.5469 2.7188 3.5469 8.2812 0 5.5156-3.5469 8.25-3.5312 2.7344-10.75 2.7344zm-9.8594 8.1094h25.203q11.281 0 17.375-4.6875 6.1094-4.6875 6.1094-13.328 0-6.7031-3.125-10.656t-9.1875-4.9219q7.2812-1.5625 11.312-6.5312 4.0312-4.9531 4.0312-12.375 0-9.7656-6.6406-15.094-6.6406-5.3125-18.906-5.3125h-26.172z"/>
<path id="ab" d="m8.5 21.578v33.109h8.9844v-32.766q0-7.7656 3.0156-11.656 3.0312-3.875 9.0938-3.875 7.2656 0 11.484 4.6406 4.2344 4.6406 4.2344 12.656v31h8.9844v-54.688h-8.9844v8.4062q-3.2656-4.9844-7.5938-7.4062-4.3125-2.4219-10.031-2.4219-9.4219 0-14.312 5.8594-4.875 5.8594-4.875 17.141z"/>
<path id="n" d="m18.312 70.219v-15.531h18.5v-6.9844h-18.5v-29.688q0-6.6875 1.8281-8.5938t7.4531-1.9062h9.2188v-7.5156h-9.2188q-10.406 0-14.359 3.875-3.9531 3.8906-3.9531 14.141v29.688h-6.5938v6.9844h6.5938v15.531z"/>
</defs>
<g transform="translate(35.198 486.4) scale(.1 -.1)">
<use xlink:href="#an"/>
<use x="68.603516" xlink:href="#ab"/>
<use x="131.982422" xlink:href="#n"/>
</g>
</g>
<g clip-path="url(#a)">
<g transform="translate(51.883 486.4) scale(.1 -.1)">
<use xlink:href="#i"/>
<use x="27.783203" xlink:href="#e"/>
</g>
</g>
<g clip-path="url(#a)">
<defs>
<path id="m" d="m19.188 8.2969h34.422v-8.2969h-46.281v8.2969q5.6094 5.8125 15.297 15.594 9.7031 9.7969 12.188 12.641 4.7344 5.3125 6.6094 9 1.8906 3.6875 1.8906 7.25 0 5.8125-4.0781 9.4688-4.0781 3.6719-10.625 3.6719-4.6406 0-9.7969-1.6094-5.1406-1.6094-11-4.8906v9.9688q5.9531 2.3906 11.125 3.6094 5.1875 1.2188 9.4844 1.2188 11.328 0 18.062-5.6719 6.7344-5.6562 6.7344-15.125 0-4.5-1.6875-8.5312-1.6719-4.0156-6.125-9.4844-1.2188-1.4219-7.7656-8.1875-6.5312-6.7656-18.453-18.922z"/>
<path id="u" d="m31.781 66.406q-7.6094 0-11.453-7.5-3.8281-7.4844-3.8281-22.531 0-14.984 3.8281-22.484 3.8438-7.5 11.453-7.5 7.6719 0 11.5 7.5 3.8438 7.5 3.8438 22.484 0 15.047-3.8438 22.531-3.8281 7.5-11.5 7.5zm0 7.8125q12.266 0 18.734-9.7031 6.4688-9.6875 6.4688-28.141 0-18.406-6.4688-28.109-6.4688-9.6875-18.734-9.6875-12.25 0-18.719 9.6875-6.4688 9.7031-6.4688 28.109 0 18.453 6.4688 28.141 6.4688 9.7031 18.719 9.7031z"/>
<path id="t" d="m33.016 40.375q-6.6406 0-10.531-4.5469-3.875-4.5312-3.875-12.438 0-7.8594 3.875-12.438 3.8906-4.5625 10.531-4.5625t10.516 4.5625q3.875 4.5781 3.875 12.438 0 7.9062-3.875 12.438-3.875 4.5469-10.516 4.5469zm19.578 30.922v-8.9844q-3.7188 1.75-7.5 2.6719-3.7812 0.9375-7.5 0.9375-9.7656 0-14.922-6.5938-5.1406-6.5938-5.875-19.922 2.875 4.25 7.2188 6.5156 4.3594 2.2656 9.5781 2.2656 10.984 0 17.359-6.6719 6.375-6.6562 6.375-18.125 0-11.234-6.6406-18.031-6.6406-6.7812-17.672-6.7812-12.656 0-19.344 9.6875-6.6875 9.7031-6.6875 28.109 0 17.281 8.2031 27.562t22.016 10.281q3.7188 0 7.5-0.73438t7.8906-2.1875z"/>
</defs>
<g transform="translate(60.627 486.4) scale(.1 -.1)">
<use xlink:href="#m"/>
<use x="63.623047" xlink:href="#u"/>
<use x="127.246094" xlink:href="#u"/>
<use x="190.869141" xlink:href="#t"/>
</g>
</g>
<g clip-path="url(#a)">
<defs>
<path id="r" d="m54.891 33.016v-33.016h-8.9844v32.719q0 7.7656-3.0312 11.609-3.0312 3.8594-9.0781 3.8594-7.2812 0-11.484-4.6406-4.2031-4.625-4.2031-12.641v-30.906h-9.0312v75.984h9.0312v-29.797q3.2344 4.9375 7.5938 7.375 4.375 2.4375 10.094 2.4375 9.4219 0 14.25-5.8281 4.8438-5.8281 4.8438-17.156z"/>
</defs>
<g transform="translate(86.286 486.4) scale(.1 -.1)">
<use xlink:href="#n"/>
<use x="39.208984" xlink:href="#r"/>
<use x="102.587891" xlink:href="#d"/>
</g>
</g>
<g clip-path="url(#a)">
<defs>
<path id="ac" d="m48.688 27.297q0 9.9062-4.0781 15.547t-11.203 5.6406q-7.1406 0-11.219-5.6406t-4.0781-15.547 4.0781-15.547 11.219-5.6406q7.125 0 11.203 5.6406t4.0781 15.547zm-30.578 19.094q2.8438 4.875 7.1562 7.2344 4.3281 2.375 10.328 2.375 9.9688 0 16.188-7.9062 6.2344-7.9062 6.2344-20.797t-6.2344-20.812q-6.2188-7.9062-16.188-7.9062-6 0-10.328 2.375-4.3125 2.375-7.1562 7.25v-8.2031h-9.0312v75.984h9.0312z"/>
<path id="ap" d="m32.172-5.0781q-3.7969-9.7656-7.4219-12.734-3.6094-2.9844-9.6562-2.9844h-7.1875v7.5156h5.2812q3.7031 0 5.75 1.7656 2.0625 1.75 4.5469 8.2969l1.6094 4.0938-22.109 53.812h9.5156l17.094-42.766 17.094 42.766h9.5156z"/>
</defs>
<g transform="translate(104.05 486.4) scale(.1 -.1)">
<use xlink:href="#v"/>
<use x="68.408203" xlink:href="#ac"/>
<use x="131.884766" xlink:href="#ac"/>
<use x="195.361328" xlink:href="#d"/>
<use x="256.884766" xlink:href="#ap"/>
</g>
</g>
<g clip-path="url(#a)">
<g transform="translate(130.11 486.4) scale(.1 -.1)">
<use xlink:href="#j"/>
<use x="61.083984" xlink:href="#r"/>
<use x="124.462891" xlink:href="#d"/>
<use x="185.986328" xlink:href="#g"/>
<use x="247.265625" xlink:href="#n"/>
<use x="286.474609" xlink:href="#k"/>
<use x="325.337891" xlink:href="#d"/>
</g>
</g>
<g clip-path="url(#a)">
<defs>
<path id="ao" d="m17.922 72.906v-27.109h-8.2969v27.109z"/>
<path id="ag" d="m44.281 53.078v-8.5q-3.7969 1.9531-7.9062 2.9219-4.0938 0.98438-8.5 0.98438-6.6875 0-10.031-2.0469t-3.3438-6.1562q0-3.125 2.3906-4.9062t9.625-3.3906l3.0781-0.6875q9.5625-2.0469 13.594-5.7812t4.0312-10.422q0-7.625-6.0312-12.078-6.0312-4.4375-16.578-4.4375-4.3906 0-9.1562 0.85938t-10.031 2.5625v9.2812q4.9844-2.5938 9.8125-3.8906 4.8281-1.2812 9.5781-1.2812 6.3438 0 9.75 2.1719 3.4219 2.1719 3.4219 6.125 0 3.6562-2.4688 5.6094-2.4531 1.9531-10.812 3.7656l-3.125 0.73438q-8.3438 1.75-12.062 5.3906-3.7031 3.6406-3.7031 9.9844 0 7.7188 5.4688 11.906 5.4688 4.2031 15.531 4.2031 4.9688 0 9.3594-0.73438 4.4062-0.71875 8.1094-2.1875z"/>
</defs>
<g transform="translate(179.3 486.4) scale(.1 -.1)">
<use xlink:href="#ao"/>
<use x="27.490234" xlink:href="#ag"/>
</g>
</g>
<g clip-path="url(#a)">
<defs>
<path id="z" d="m4.2031 54.688h8.9844l11.234-42.672 11.172 42.672h10.594l11.234-42.672 11.188 42.672h8.9844l-14.312-54.688h-10.594l-11.766 44.828-11.812-44.828h-10.609z"/>
</defs>
<g transform="translate(210.99 486.4) scale(.1 -.1)">
<use xlink:href="#e"/>
<use x="63.378906" xlink:href="#d"/>
<use x="124.902344" xlink:href="#z"/>
</g>
</g>
<g clip-path="url(#a)">
<defs>
<path id="ar" d="m45.406 27.984q0 9.7656-4.0312 15.125-4.0156 5.375-11.297 5.375-7.2188 0-11.25-5.375-4.0312-5.3594-4.0312-15.125 0-9.7188 4.0312-15.094t11.25-5.375q7.2812 0 11.297 5.375 4.0312 5.375 4.0312 15.094zm8.9844-21.203q0-13.953-6.2031-20.766-6.1875-6.8125-18.984-6.8125-4.7344 0-8.9375 0.70312t-8.1562 2.1719v8.7344q3.9531-2.1406 7.8125-3.1562 3.8594-1.0312 7.8594-1.0312 8.8438 0 13.234 4.6094t4.3906 13.938v4.4531q-2.7812-4.8438-7.125-7.2344t-10.406-2.3906q-10.047 0-16.203 7.6562-6.1562 7.6719-6.1562 20.328 0 12.688 6.1562 20.344 6.1562 7.6719 16.203 7.6719 6.0625 0 10.406-2.3906t7.125-7.2188v8.2969h8.9844z"/>
</defs>
<g transform="translate(230.11 486.4) scale(.1 -.1)">
<use xlink:href="#l"/>
<use x="97.412109" xlink:href="#g"/>
<use x="158.691406" xlink:href="#e"/>
<use x="222.070312" xlink:href="#g"/>
<use x="283.349609" xlink:href="#ar"/>
<use x="346.826172" xlink:href="#d"/>
<use x="408.349609" xlink:href="#l"/>
<use x="505.761719" xlink:href="#d"/>
<use x="567.285156" xlink:href="#e"/>
<use x="630.664062" xlink:href="#n"/>
</g>
</g>
<g clip-path="url(#a)">
<defs>
<path id="aq" d="m18.109 8.2031v-29h-9.0312v75.484h9.0312v-8.2969q2.8438 4.875 7.1562 7.2344 4.3281 2.375 10.328 2.375 9.9688 0 16.188-7.9062 6.2344-7.9062 6.2344-20.797t-6.2344-20.812q-6.2188-7.9062-16.188-7.9062-6 0-10.328 2.375-4.3125 2.375-7.1562 7.25zm30.578 19.094q0 9.9062-4.0781 15.547t-11.203 5.6406q-7.1406 0-11.219-5.6406t-4.0781-15.547 4.0781-15.547 11.219-5.6406q7.125 0 11.203 5.6406t4.0781 15.547z"/>
<path id="at" d="m45.406 46.391v29.594h8.9844v-75.984h-8.9844v8.2031q-2.8281-4.875-7.1562-7.25-4.3125-2.375-10.375-2.375-9.9062 0-16.141 7.9062-6.2188 7.9219-6.2188 20.812t6.2188 20.797q6.2344 7.9062 16.141 7.9062 6.0625 0 10.375-2.375 4.3281-2.3594 7.1562-7.2344zm-30.609-19.094q0-9.9062 4.0781-15.547t11.203-5.6406 11.219 5.6406q4.1094 5.6406 4.1094 15.547t-4.1094 15.547q-4.0938 5.6406-11.219 5.6406t-11.203-5.6406-4.0781-15.547z"/>
</defs>
<g transform="translate(294.74 486.4) scale(.1 -.1)">
<use xlink:href="#aq"/>
<use x="63.476562" xlink:href="#ab"/>
<use x="126.855469" xlink:href="#h"/>
<use x="154.638672" xlink:href="#h"/>
<use x="182.421875" xlink:href="#d"/>
<use x="243.945312" xlink:href="#at"/>
</g>
</g>
<g clip-path="url(#a)">
<defs>
<path id="q" d="m30.609 48.391q-7.2188 0-11.422-5.6406t-4.2031-15.453 4.1719-15.453q4.1875-5.6406 11.453-5.6406 7.1875 0 11.375 5.6562 4.2031 5.6719 4.2031 15.438 0 9.7188-4.2031 15.406-4.1875 5.6875-11.375 5.6875zm0 7.6094q11.719 0 18.406-7.625 6.7031-7.6094 6.7031-21.078 0-13.422-6.7031-21.078-6.6875-7.6406-18.406-7.6406-11.766 0-18.438 7.6406-6.6562 7.6562-6.6562 21.078 0 13.469 6.6562 21.078 6.6719 7.625 18.438 7.625z"/>
</defs>
<g transform="translate(352.65 486.4) scale(.1 -.1)">
<use xlink:href="#q"/>
<use x="61.181641" xlink:href="#ab"/>
<use x="124.560547" xlink:href="#n"/>
</g>
</g>
<g clip-path="url(#a)">
<defs>
<path id="as" d="m37.109 75.984v-7.4844h-8.5938q-4.8281 0-6.7188-1.9531-1.875-1.9531-1.875-7.0312v-4.8281h14.797v-6.9844h-14.797v-47.703h-9.0312v47.703h-8.5938v6.9844h8.5938v3.8125q0 9.125 4.25 13.297 4.25 4.1875 13.469 4.1875z"/>
</defs>
<g transform="translate(410.98 486.4) scale(.1 -.1)">
<use xlink:href="#q"/>
<use x="61.181641" xlink:href="#as"/>
</g>
</g>
<g clip-path="url(#a)">
<g transform="translate(469.15 486.4) scale(.1 -.1)">
<use xlink:href="#g"/>
<use x="61.279297" xlink:href="#h"/>
<use x="89.0625" xlink:href="#h"/>
</g>
</g>
<g clip-path="url(#a)">
<defs>
<path id="aa" d="m2.9844 54.688h9.5156l17.094-45.891 17.094 45.891h9.5156l-20.516-54.688h-12.203z"/>
</defs>
<g transform="translate(507.33 486.4) scale(.1 -.1)">
<use xlink:href="#i"/>
<use x="27.783203" xlink:href="#e"/>
<use x="91.162109" xlink:href="#aa"/>
<use x="150.341797" xlink:href="#q"/>
<use x="211.523438" xlink:href="#h"/>
<use x="239.306641" xlink:href="#aa"/>
<use x="298.486328" xlink:href="#d"/>
<use x="360.009766" xlink:href="#l"/>
<use x="457.421875" xlink:href="#d"/>
<use x="518.945312" xlink:href="#e"/>
<use x="582.324219" xlink:href="#n"/>
</g>
</g>
<g clip-path="url(#a)">
<g transform="translate(595.45 486.4) scale(.1 -.1)">
<use xlink:href="#z"/>
<use x="81.787109" xlink:href="#i"/>
<use x="109.570312" xlink:href="#n"/>
<use x="148.779297" xlink:href="#r"/>
</g>
</g>
<g clip-path="url(#a)">
<g transform="translate(668.63 486.4) scale(.1 -.1)">
<use xlink:href="#j"/>
<use x="61.083984" xlink:href="#r"/>
<use x="124.462891" xlink:href="#d"/>
</g>
</g>
<g clip-path="url(#a)">
<defs>
<path id="am" d="m9.8125 72.906h41.891v-8.3125h-32.031v-21.484h28.906v-8.2969h-28.906v-34.812h-9.8594z"/>
</defs>
<g transform="translate(726.47 486.4) scale(.1 -.1)">
<use xlink:href="#am"/>
<use x="48.394531" xlink:href="#g"/>
<use x="109.673828" xlink:href="#k"/>
<use x="149.037109" xlink:href="#e"/>
<use x="212.416016" xlink:href="#ag"/>
<use x="264.515625" xlink:href="#z"/>
<use x="346.302734" xlink:href="#q"/>
<use x="407.484375" xlink:href="#k"/>
<use x="448.597656" xlink:href="#n"/>
<use x="487.806641" xlink:href="#r"/>
</g>
</g>
<g clip-path="url(#a)">
<defs>
<path id="ak" d="m9.8125 72.906h9.8594v-72.906h-9.8594z"/>
</defs>
<g transform="translate(810.93 486.4) scale(.1 -.1)">
<use xlink:href="#ak"/>
<use x="29.492188" xlink:href="#e"/>
<use x="92.871094" xlink:href="#aa"/>
<use x="152.050781" xlink:href="#d"/>
<use x="213.574219" xlink:href="#e"/>
<use x="276.953125" xlink:href="#n"/>
<use x="316.162109" xlink:href="#i"/>
<use x="343.945312" xlink:href="#q"/>
<use x="405.126953" xlink:href="#e"/>
</g>
</g>
<g clip-path="url(#a)">
<defs>
<path id="f" d="m10.688 12.406h10.312v-12.406h-10.312z"/>
</defs>
<g transform="translate(917.32 486.4) scale(.1 -.1)">
<use xlink:href="#f"/>
</g>
</g>
<g clip-path="url(#a)">
<defs>
<path id="c" d="m12.406 8.2969h16.109v55.625l-17.531-3.5156v8.9844l17.438 3.5156h9.8594v-64.609h16.109v-8.2969h-41.984z"/>
</defs>
<g transform="translate(154.87 25.79) scale(.1 -.1)">
<use xlink:href="#c"/>
<use x="63.623047" xlink:href="#f"/>
<use x="95.410156" xlink:href="#c"/>
</g>
</g>
<g clip-path="url(#a)">
<g transform="translate(35.806 395.75) scale(.1 -.1)">
<use xlink:href="#c"/>
<use x="63.623047" xlink:href="#f"/>
<use x="95.410156" xlink:href="#m"/>
</g>
</g>
<g clip-path="url(#a)">
<defs>
<path id="y" d="m40.578 39.312q7.0781-1.5156 11.047-6.3125 3.9844-4.7812 3.9844-11.812 0-10.781-7.4219-16.703-7.4219-5.9062-21.094-5.9062-4.5781 0-9.4375 0.90625t-10.031 2.7188v9.5156q4.0938-2.3906 8.9688-3.6094 4.8906-1.2188 10.219-1.2188 9.2656 0 14.125 3.6562t4.8594 10.641q0 6.4531-4.5156 10.078-4.5156 3.6406-12.562 3.6406h-8.5v8.1094h8.8906q7.2656 0 11.125 2.9062t3.8594 8.375q0 5.6094-3.9844 8.6094-3.9688 3.0156-11.391 3.0156-4.0625 0-8.7031-0.89062-4.6406-0.875-10.203-2.7188v8.7812q5.625 1.5625 10.531 2.3438t9.25 0.78125q11.234 0 17.766-5.1094 6.5469-5.0938 6.5469-13.781 0-6.0625-3.4688-10.234t-9.8594-5.7812z"/>
</defs>
<g transform="translate(273.94 118.73) scale(.1 -.1)">
<use xlink:href="#c"/>
<use x="63.623047" xlink:href="#f"/>
<use x="95.410156" xlink:href="#y"/>
</g>
</g>
<g clip-path="url(#a)">
<defs>
<path id="x" d="m10.797 72.906h38.719v-8.3125h-29.688v-17.859q2.1406 0.73438 4.2812 1.0938 2.1562 0.35938 4.3125 0.35938 12.203 0 19.328-6.6875 7.1406-6.6875 7.1406-18.109 0-11.766-7.3281-18.297-7.3281-6.5156-20.656-6.5156-4.5938 0-9.3594 0.78125-4.75 0.78125-9.8281 2.3438v9.9219q4.3906-2.3906 9.0781-3.5625t9.9062-1.1719q8.4531 0 13.375 4.4375 4.9375 4.4375 4.9375 12.062 0 7.6094-4.9375 12.047-4.9219 4.4531-13.375 4.4531-3.9531 0-7.8906-0.875-3.9219-0.875-8.0156-2.7344z"/>
</defs>
<g transform="translate(56.945 303.83) scale(.1 -.1)">
<use xlink:href="#c"/>
<use x="63.623047" xlink:href="#f"/>
<use x="95.410156" xlink:href="#x"/>
</g>
</g>
<g clip-path="url(#a)">
<g transform="translate(174.62 211.44) scale(.1 -.1)">
<use xlink:href="#c"/>
<use x="63.623047" xlink:href="#f"/>
<use x="95.410156" xlink:href="#t"/>
</g>
</g>
<g clip-path="url(#a)">
<defs>
<path id="w" d="m8.2031 72.906h46.875v-4.2031l-26.469-68.703h-10.297l24.906 64.594h-35.016z"/>
</defs>
<g transform="translate(327.52 303.83) scale(.1 -.1)">
<use xlink:href="#c"/>
<use x="63.623047" xlink:href="#f"/>
<use x="95.410156" xlink:href="#w"/>
</g>
</g>
<g clip-path="url(#a)">
<defs>
<path id="ae" d="m31.781 34.625q-7.0312 0-11.062-3.7656-4.0156-3.7656-4.0156-10.344 0-6.5938 4.0156-10.359 4.0312-3.7656 11.062-3.7656t11.078 3.7812q4.0625 3.7969 4.0625 10.344 0 6.5781-4.0312 10.344-4.0156 3.7656-11.109 3.7656zm-9.8594 4.1875q-6.3438 1.5625-9.8906 5.9062-3.5312 4.3594-3.5312 10.609 0 8.7344 6.2188 13.812 6.2344 5.0781 17.062 5.0781 10.891 0 17.094-5.0781t6.2031-13.812q0-6.25-3.5469-10.609-3.5312-4.3438-9.8281-5.9062 7.125-1.6562 11.094-6.5 3.9844-4.8281 3.9844-11.797 0-10.609-6.4688-16.281-6.4688-5.6562-18.531-5.6562-12.047 0-18.531 5.6562-6.4688 5.6719-6.4688 16.281 0 6.9688 4 11.797 4.0156 4.8438 11.141 6.5zm-3.6094 15.578q0-5.6562 3.5312-8.8281 3.5469-3.1719 9.9375-3.1719 6.3594 0 9.9375 3.1719 3.5938 3.1719 3.5938 8.8281 0 5.6719-3.5938 8.8438-3.5781 3.1719-9.9375 3.1719-6.3906 0-9.9375-3.1719-3.5312-3.1719-3.5312-8.8438z"/>
</defs>
<g transform="translate(536.67 211.44) scale(.1 -.1)">
<use xlink:href="#c"/>
<use x="63.623047" xlink:href="#f"/>
<use x="95.410156" xlink:href="#ae"/>
</g>
</g>
<g clip-path="url(#a)">
<defs>
<path id="ad" d="m10.984 1.5156v8.9844q3.7188-1.7656 7.5156-2.6875 3.8125-0.92188 7.4844-0.92188 9.7656 0 14.906 6.5625 5.1562 6.5625 5.8906 19.953-2.8281-4.2031-7.1875-6.4531-4.3438-2.25-9.6094-2.25-10.938 0-17.312 6.6094-6.375 6.625-6.375 18.109 0 11.219 6.6406 18 6.6406 6.7969 17.672 6.7969 12.656 0 19.312-9.7031 6.6719-9.6875 6.6719-28.141 0-17.234-8.1875-27.516-8.1719-10.281-21.984-10.281-3.7188 0-7.5312 0.73438-3.7969 0.73438-7.9062 2.2031zm19.625 30.906q6.6406 0 10.516 4.5312 3.8906 4.5469 3.8906 12.469 0 7.8594-3.8906 12.422-3.875 4.5625-10.516 4.5625t-10.516-4.5625-3.875-12.422q0-7.9219 3.875-12.469 3.875-4.5312 10.516-4.5312z"/>
</defs>
<g transform="translate(407.85 395.75) scale(.1 -.1)">
<use xlink:href="#c"/>
<use x="63.623047" xlink:href="#f"/>
<use x="95.410156" xlink:href="#ad"/>
</g>
</g>
<g clip-path="url(#a)">
<g transform="translate(463.86 395.75) scale(.1 -.1)">
<use xlink:href="#c"/>
<use x="63.623047" xlink:href="#f"/>
<use x="95.410156" xlink:href="#c"/>
<use x="159.033203" xlink:href="#u"/>
</g>
</g>
<g clip-path="url(#a)">
<g transform="translate(527.28 395.75) scale(.1 -.1)">
<use xlink:href="#c"/>
<use x="63.623047" xlink:href="#f"/>
<use x="95.410156" xlink:href="#c"/>
<use x="159.033203" xlink:href="#c"/>
</g>
</g>
<g clip-path="url(#a)">
<g transform="translate(738.14 303.83) scale(.1 -.1)">
<use xlink:href="#c"/>
<use x="63.623047" xlink:href="#f"/>
<use x="95.410156" xlink:href="#c"/>
<use x="159.033203" xlink:href="#m"/>
</g>
</g>
<g clip-path="url(#a)">
<g transform="translate(594.92 395.75) scale(.1 -.1)">
<use xlink:href="#c"/>
<use x="63.623047" xlink:href="#f"/>
<use x="95.410156" xlink:href="#c"/>
<use x="159.033203" xlink:href="#y"/>
</g>
</g>
<g clip-path="url(#a)">
<defs>
<path id="af" d="m37.797 64.312-24.906-38.922h24.906zm-2.5938 8.5938h12.406v-47.516h10.406v-8.2031h-10.406v-17.188h-9.8125v17.188h-32.906v9.5156z"/>
</defs>
<g transform="translate(666.79 395.75) scale(.1 -.1)">
<use xlink:href="#c"/>
<use x="63.623047" xlink:href="#f"/>
<use x="95.410156" xlink:href="#c"/>
<use x="159.033203" xlink:href="#af"/>
</g>
</g>
<g clip-path="url(#a)">
<g transform="translate(783.06 395.75) scale(.1 -.1)">
<use xlink:href="#c"/>
<use x="63.623047" xlink:href="#f"/>
<use x="95.410156" xlink:href="#c"/>
<use x="159.033203" xlink:href="#x"/>
</g>
</g>
<g clip-path="url(#a)">
<g transform="translate(298.98 395.75) scale(.1 -.1)">
<use xlink:href="#c"/>
<use x="63.623047" xlink:href="#f"/>
<use x="95.410156" xlink:href="#c"/>
<use x="159.033203" xlink:href="#t"/>
</g>
</g>
<g clip-path="url(#a)">
<g transform="translate(349.71 395.75) scale(.1 -.1)">
<use xlink:href="#c"/>
<use x="63.623047" xlink:href="#f"/>
<use x="95.410156" xlink:href="#c"/>
<use x="159.033203" xlink:href="#w"/>
</g>
</g>
<g clip-path="url(#a)">
<g transform="translate(83.358 395.75) scale(.1 -.1)">
<use xlink:href="#c"/>
<use x="63.623047" xlink:href="#f"/>
<use x="95.410156" xlink:href="#c"/>
<use x="159.033203" xlink:href="#ae"/>
</g>
</g>
<g clip-path="url(#a)">
<g transform="translate(139.73 303.83) scale(.1 -.1)">
<use xlink:href="#c"/>
<use x="63.623047" xlink:href="#f"/>
<use x="95.410156" xlink:href="#c"/>
<use x="159.033203" xlink:href="#ad"/>
</g>
</g>
<g clip-path="url(#a)">
<g transform="translate(210.19 395.75) scale(.1 -.1)">
<use xlink:href="#c"/>
<use x="63.623047" xlink:href="#f"/>
<use x="95.410156" xlink:href="#m"/>
<use x="159.033203" xlink:href="#u"/>
</g>
</g>
<g clip-path="url(#a)">
<g transform="translate(252.47 395.75) scale(.1 -.1)">
<use xlink:href="#c"/>
<use x="63.623047" xlink:href="#f"/>
<use x="95.410156" xlink:href="#m"/>
<use x="159.033203" xlink:href="#c"/>
</g>
</g>
<g clip-path="url(#a)">
<g transform="translate(108.72 395.75) scale(.1 -.1)">
<use xlink:href="#c"/>
<use x="63.623047" xlink:href="#f"/>
<use x="95.410156" xlink:href="#m"/>
<use x="159.033203" xlink:href="#m"/>
</g>
</g>
<g clip-path="url(#a)">
<g transform="translate(138.32 395.75) scale(.1 -.1)">
<use xlink:href="#c"/>
<use x="63.623047" xlink:href="#f"/>
<use x="95.410156" xlink:href="#m"/>
<use x="159.033203" xlink:href="#y"/>
</g>
</g>
<g clip-path="url(#a)">
<g transform="translate(172.14 395.75) scale(.1 -.1)">
<use xlink:href="#c"/>
<use x="63.623047" xlink:href="#f"/>
<use x="95.410156" xlink:href="#m"/>
<use x="159.033203" xlink:href="#af"/>
</g>
</g>
<g clip-path="url(#a)">
<g transform="translate(45.308 395.75) scale(.1 -.1)">
<use xlink:href="#c"/>
<use x="63.623047" xlink:href="#f"/>
<use x="95.410156" xlink:href="#m"/>
<use x="159.033203" xlink:href="#x"/>
</g>
</g>
<g clip-path="url(#a)">
<g transform="translate(62.219 395.75) scale(.1 -.1)">
<use xlink:href="#c"/>
<use x="63.623047" xlink:href="#f"/>
<use x="95.410156" xlink:href="#m"/>
<use x="159.033203" xlink:href="#t"/>
</g>
</g>
<g clip-path="url(#a)">
<g transform="translate(907.78 395.75) scale(.1 -.1)">
<use xlink:href="#c"/>
<use x="63.623047" xlink:href="#f"/>
<use x="95.410156" xlink:href="#m"/>
<use x="159.033203" xlink:href="#w"/>
</g>
</g>
<defs>
<clipPath id="a">
<rect width="962.67" height="506.67"/>
</clipPath>
</defs>
</svg>
