<?xml version="1.0" encoding="UTF-8"?>
<!DOCTYPE svg  PUBLIC '-//W3C//DTD SVG 1.1//EN'  'http://www.w3.org/Graphics/SVG/1.1/DTD/svg11.dtd'>
<svg width="2178.7pt" height="1146.7pt" version="1.1" viewBox="0 0 2178.7 1146.7" xmlns="http://www.w3.org/2000/svg" xmlns:xlink="http://www.w3.org/1999/xlink">
<defs>
<style type="text/css">*{stroke-linecap:butt;stroke-linejoin:round;}</style>
</defs>
<path d="m0 1146.7h2178.7v-1146.7h-2178.7z" fill="#fff"/>
<g fill="none" stroke="#000">
<path d="m616.22 52.121-404.41 175.32" clip-path="url(#a)"/>
<path d="m616.22 52.121 325.61 524.81" clip-path="url(#a)"/>
<path d="m616.22 52.121 78.802 871.77" clip-path="url(#a)"/>
<path d="m211.8 227.44-100.23 349.49" clip-path="url(#a)"/>
<path d="m211.8 227.44-62.607 696.45" clip-path="url(#a)"/>
<path d="m211.8 227.44 162.84 174.97" clip-path="url(#a)"/>
<path d="m941.82 576.93-196.64 346.96" clip-path="url(#a)"/>
<path d="m941.82 576.93-144.47 346.96" clip-path="url(#a)"/>
<path d="m941.82 576.93-90.284 346.96" clip-path="url(#a)"/>
<path d="m941.82 576.93-34.097 346.96" clip-path="url(#a)"/>
<path d="m941.82 576.93 465.49 173.93" clip-path="url(#a)"/>
<path d="m745.19 923.89v170.65" clip-path="url(#a)"/>
<path d="m797.36 923.89v170.65" clip-path="url(#a)"/>
<path d="m851.54 923.89v170.65" clip-path="url(#a)"/>
<path d="m907.73 923.89v170.65" clip-path="url(#a)"/>
<path d="m1407.3 750.87-441.39 173.03" clip-path="url(#a)"/>
<path d="m1407.3 750.87-350.08 173.03" clip-path="url(#a)"/>
<path d="m1407.3 750.87-119.65 173.03" clip-path="url(#a)"/>
<path d="m1407.3 750.87 96.405 173.03" clip-path="url(#a)"/>
<path d="m1407.3 750.87 375 173.03" clip-path="url(#a)"/>
<path d="m1407.3 750.87-254.77 173.03" clip-path="url(#a)"/>
<path d="m1407.3 750.87 22.157 173.03" clip-path="url(#a)"/>
<path d="m1407.3 750.87 672.33 173.03" clip-path="url(#a)"/>
<path d="m965.92 923.89v170.65" clip-path="url(#a)"/>
<path d="m1057.2 923.89-31.104 170.65" clip-path="url(#a)"/>
<path d="m1057.2 923.89 31.104 170.65" clip-path="url(#a)"/>
<path d="m1287.7 923.89-68.896 170.65" clip-path="url(#a)"/>
<path d="m1287.7 923.89-0.6689 170.65" clip-path="url(#a)"/>
<path d="m1287.7 923.89 69.565 170.65" clip-path="url(#a)"/>
<path d="m1503.7 923.89v170.65" clip-path="url(#a)"/>
<path d="m1782.3 923.89-202.34 170.65" clip-path="url(#a)"/>
<path d="m1782.3 923.89-124.08 170.65" clip-path="url(#a)"/>
<path d="m1782.3 923.89-43.813 170.65" clip-path="url(#a)"/>
<path d="m1782.3 923.89 38.462 170.65" clip-path="url(#a)"/>
<path d="m1782.3 923.89 122.74 170.65" clip-path="url(#a)"/>
<path d="m1782.3 923.89 209.03 170.65" clip-path="url(#a)"/>
<path d="m111.57 576.93-12.542 346.96" clip-path="url(#a)"/>
<path d="m111.57 576.93-6.5218 346.96" clip-path="url(#a)"/>
<path d="m111.57 576.93 1.505 346.96" clip-path="url(#a)"/>
<path d="m111.57 576.93 17.559 173.93" clip-path="url(#a)"/>
<path d="m149.2 923.89v170.65" clip-path="url(#a)"/>
<path d="m374.64 402.41-209.39 521.49" clip-path="url(#a)"/>
<path d="m374.64 402.41-181.3 521.49" clip-path="url(#a)"/>
<path d="m374.64 402.41-93.808 174.53" clip-path="url(#a)"/>
<path d="m374.64 402.41 25.389 521.49" clip-path="url(#a)"/>
<path d="m374.64 402.41 90.607 174.53" clip-path="url(#a)"/>
<path d="m374.64 402.41 181.91 521.49" clip-path="url(#a)"/>
<path d="m374.64 402.41 186.59 348.46" clip-path="url(#a)"/>
<path d="m165.25 923.89v170.65" clip-path="url(#a)"/>
<path d="m193.34 923.89-10.033 170.65" clip-path="url(#a)"/>
<path d="m193.34 923.89 10.033 170.65" clip-path="url(#a)"/>
<path d="m280.84 576.93-55.385 346.96" clip-path="url(#a)"/>
<path d="m280.84 576.93-31.304 346.96" clip-path="url(#a)"/>
<path d="m280.84 576.93-5.2174 346.96" clip-path="url(#a)"/>
<path d="m280.84 576.93 22.876 346.96" clip-path="url(#a)"/>
<path d="m280.84 576.93 69.03 173.93" clip-path="url(#a)"/>
<path d="m400.03 923.89v170.65" clip-path="url(#a)"/>
<path d="m465.25 576.93-29.097 346.96" clip-path="url(#a)"/>
<path d="m465.25 576.93 29.097 173.93" clip-path="url(#a)"/>
<path d="m556.56 923.89v170.65" clip-path="url(#a)"/>
<path d="m561.24 750.87 39.465 173.03" clip-path="url(#a)"/>
<path d="m561.24 750.87 85.619 173.03" clip-path="url(#a)"/>
<path d="m561.24 750.87-125.08 173.03" clip-path="url(#a)" stroke-dasharray="3.7,1.6"/>
<path d="m600.7 923.89v170.65" clip-path="url(#a)"/>
<path d="m646.86 923.89v170.65" clip-path="url(#a)"/>
<path d="m436.15 923.89v170.65" clip-path="url(#a)"/>
<path d="m494.35 750.87-20.067 173.03" clip-path="url(#a)"/>
<path d="m494.35 750.87 20.067 173.03" clip-path="url(#a)"/>
<path d="m474.28 923.89v170.65" clip-path="url(#a)"/>
<path d="m514.42 923.89v170.65" clip-path="url(#a)"/>
<path d="m225.45 923.89v170.65" clip-path="url(#a)"/>
<path d="m249.53 923.89v170.65" clip-path="url(#a)"/>
<path d="m275.62 923.89v170.65" clip-path="url(#a)"/>
<path d="m303.71 923.89v170.65" clip-path="url(#a)"/>
<path d="m349.87 750.87-16.054 173.03" clip-path="url(#a)"/>
<path d="m349.87 750.87 16.054 173.03" clip-path="url(#a)"/>
<path d="m333.81 923.89v170.65" clip-path="url(#a)"/>
<path d="m365.92 923.89v170.65" clip-path="url(#a)"/>
<path d="m99.03 923.89v170.65" clip-path="url(#a)"/>
<path d="m105.05 923.89v170.65" clip-path="url(#a)"/>
<path d="m113.08 923.89v170.65" clip-path="url(#a)"/>
<path d="m129.13 750.87-6.0201 173.03" clip-path="url(#a)"/>
<path d="m129.13 750.87 6.0201 173.03" clip-path="url(#a)"/>
<path d="m123.11 923.89v170.65" clip-path="url(#a)"/>
<path d="m135.15 923.89v170.65" clip-path="url(#a)"/>
<path d="m695.02 923.89v170.65" clip-path="url(#a)"/>
<path d="m1152.5 923.89v170.65" clip-path="url(#a)"/>
<path d="m1429.5 923.89v170.65" clip-path="url(#a)"/>
<path d="m2079.6 923.89v170.65" clip-path="url(#a)"/>
</g>
<path d="m413.74 146.73 5.5199-2.393q2.202-0.9546 1.2474-3.1566l-3.0796-7.1037q-0.9546-2.202-3.1566-1.2474l-5.5199 2.393q-2.202 0.9546-1.2474 3.1566l3.0796 7.1037q0.9546 2.202 3.1566 1.2474z" clip-path="url(#a)" fill="#fff" stroke="#fff"/>
<g clip-path="url(#a)">
<defs>
<path id="ab" d="m9.8125 72.906h9.8594v-29.891h35.844v29.891h9.8594v-72.906h-9.8594v34.719h-35.844v-34.719h-9.8594z"/>
</defs>
<g transform="translate(412.13 143) rotate(-23.438) scale(.08 -.08)">
<use xlink:href="#ab"/>
</g>
</g>
<path d="m772.11 315.28 3.1718 5.1122q1.2653 2.0394 3.3047 0.77409l6.5791-4.0819q2.0394-1.2653 0.77409-3.3047l-3.1718-5.1122q-1.2653-2.0394-3.3047-0.77409l-6.5791 4.0819q-2.0394 1.2653-0.77409 3.3047z" clip-path="url(#a)" fill="#fff" stroke="#fff"/>
<g clip-path="url(#a)">
<g transform="translate(775.56 313.14) rotate(58.183) scale(.08 -.08)">
<use xlink:href="#ab"/>
</g>
</g>
<path d="m649.11 485.66 0.5271 5.8312q0.21606 2.3903 2.6063 2.1742l7.7111-0.69703q2.3903-0.21606 2.1742-2.6063l-0.5271-5.8312q-0.21606-2.3903-2.6063-2.1742l-7.7111 0.69703q-2.3903 0.21606-2.1742 2.6063z" clip-path="url(#a)" fill="#fff" stroke="#fff"/>
<g clip-path="url(#a)">
<defs>
<path id="ag" d="m8.6875 72.906h9.9219v-44.297q0-11.719 4.2344-16.875 4.25-5.1406 13.781-5.1406 9.4688 0 13.719 5.1406 4.25 5.1562 4.25 16.875v44.297h9.9062v-45.516q0-14.25-7.0625-21.531-7.0469-7.2812-20.812-7.2812-13.828 0-20.891 7.2812-7.0469 7.2812-7.0469 21.531z"/>
</defs>
<g transform="translate(653.15 485.29) rotate(84.835) scale(.08 -.08)">
<use xlink:href="#ag"/>
</g>
</g>
<path d="m166.96 406.55 1.5087-5.2604q0.66164-2.307-1.6454-2.9686l-7.4425-2.1345q-2.307-0.66164-2.9686 1.6454l-1.5087 5.2604q-0.66164 2.307 1.6454 2.9686l7.4425 2.1345q2.307 0.66164 2.9686-1.6454z" clip-path="url(#a)" fill="#fff" stroke="#fff"/>
<g clip-path="url(#a)">
<defs>
<path id="u" d="m34.188 63.188-13.391-36.281h26.812zm-5.5781 9.7188h11.188l27.781-72.906h-10.25l-6.6406 18.703h-32.859l-6.6406-18.703h-10.406z"/>
</defs>
<g transform="translate(163.06 405.43) rotate(-73.997) scale(.08 -.08)">
<use xlink:href="#u"/>
</g>
</g>
<path d="m186.52 578.76 0.45472-5.0584q0.21488-2.3904-2.1755-2.6052l-7.7114-0.69321q-2.3904-0.21488-2.6052 2.1755l-0.45472 5.0584q-0.21488 2.3904 2.1755 2.6052l7.7114 0.69321q2.3904 0.21488 2.6052-2.1755z" clip-path="url(#a)" fill="#fff" stroke="#fff"/>
<g clip-path="url(#a)">
<defs>
<path id="v" d="m53.516 70.516v-9.625q-5.6094 2.6875-10.594 4-4.9844 1.3281-9.625 1.3281-8.0469 0-12.422-3.125t-4.375-8.8906q0-4.8438 2.9062-7.3125 2.9062-2.4531 11.016-3.9688l5.9531-1.2188q11.031-2.1094 16.281-7.4062t5.25-14.172q0-10.609-7.1094-16.078-7.0938-5.4688-20.812-5.4688-5.1719 0-11.016 1.1719-5.8281 1.1719-12.078 3.4688v10.156q6-3.3594 11.766-5.0781 5.7656-1.7031 11.328-1.7031 8.4375 0 13.031 3.3125 4.5938 3.3281 4.5938 9.4844 0 5.3594-3.2969 8.3906t-10.812 4.5469l-6.0156 1.1719q-11.031 2.1875-15.969 6.875-4.9219 4.6875-4.9219 13.047 0 9.6719 6.8125 15.234t18.766 5.5625q5.1406 0 10.453-0.9375 5.3281-0.92188 10.891-2.7656z"/>
</defs>
<g transform="translate(182.47 578.39) rotate(-84.863) scale(.08 -.08)">
<use xlink:href="#v"/>
</g>
</g>
<path d="m286.77 317.19 3.7283 4.006q1.6351 1.7568 3.3919 0.12177l5.6677-5.2748q1.7568-1.6351 0.12177-3.3919l-3.7283-4.006q-1.6351-1.7568-3.3919-0.12177l-5.6677 5.2748q-1.7568 1.6351-0.12177 3.3919z" clip-path="url(#a)" fill="#fff" stroke="#fff"/>
<g clip-path="url(#a)">
<g transform="translate(289.74 314.43) rotate(47.056) scale(.08 -.08)">
<use xlink:href="#u"/>
</g>
</g>
<path d="m847.61 755.89 2.6983-4.761q1.1834-2.088-0.90462-3.2713l-6.7359-3.8176q-2.088-1.1834-3.2713 0.90462l-2.6983 4.761q-1.1834 2.088 0.90462 3.2713l6.7359 3.8176q2.088 1.1834 3.2713-0.90462z" clip-path="url(#a)" fill="#fff" stroke="#fff"/>
<g clip-path="url(#a)">
<g transform="translate(844.08 753.88) rotate(-60.458) scale(.08 -.08)">
<use xlink:href="#u"/>
</g>
</g>
<path d="m874.5 754.95 1.7687-4.2477q0.92253-2.2156-1.2931-3.1381l-7.1477-2.9761q-2.2156-0.92252-3.1381 1.2931l-1.7687 4.2477q-0.92252 2.2156 1.2931 3.1381l7.1477 2.9761q2.2156 0.92253 3.1381-1.2931z" clip-path="url(#a)" fill="#fff" stroke="#fff"/>
<g clip-path="url(#a)">
<defs>
<path id="am" d="m9.8125 72.906h41.891v-8.3125h-32.031v-21.484h28.906v-8.2969h-28.906v-34.812h-9.8594z"/>
</defs>
<g transform="translate(870.75 753.39) rotate(-67.394) scale(.08 -.08)">
<use xlink:href="#am"/>
</g>
</g>
<path d="m902.14 754.33 1.2148-4.6683q0.60439-2.3227-1.7183-2.927l-7.493-1.9498q-2.3227-0.60439-2.927 1.7183l-1.2148 4.6683q-0.60439 2.3227 1.7183 2.927l7.493 1.9498q2.3227 0.60439 2.927-1.7183z" clip-path="url(#a)" fill="#fff" stroke="#fff"/>
<g clip-path="url(#a)">
<defs>
<path id="ah" d="m19.672 64.797v-27.391h12.406q6.8906 0 10.641 3.5625 3.7656 3.5625 3.7656 10.156 0 6.5469-3.7656 10.109-3.75 3.5625-10.641 3.5625zm-9.8594 8.1094h22.266q12.266 0 18.531-5.5469 6.2812-5.5469 6.2812-16.234 0-10.797-6.2812-16.312-6.2656-5.5156-18.531-5.5156h-12.406v-29.297h-9.8594z"/>
</defs>
<g transform="translate(898.21 753.3) rotate(-75.414) scale(.08 -.08)">
<use xlink:href="#ah"/>
</g>
</g>
<path d="m930.72 754.09 0.60246-6.1305q0.23473-2.3885-2.1538-2.6232l-7.7054-0.75724q-2.3885-0.23473-2.6232 2.1538l-0.60246 6.1305q-0.23473 2.3885 2.1538 2.6232l7.7054 0.75724q2.3885 0.23473 2.6232-2.1538z" clip-path="url(#a)" fill="#fff" stroke="#fff"/>
<g clip-path="url(#a)">
<defs>
<path id="an" d="m19.672 64.797v-56.688h11.922q15.094 0 22.094 6.8281 7 6.8438 7 21.594 0 14.641-7 21.453t-22.094 6.8125zm-9.8594 8.1094h20.266q21.188 0 31.094-8.8125 9.9219-8.8125 9.9219-27.562 0-18.859-9.9688-27.703-9.9531-8.8281-31.047-8.8281h-20.266z"/>
</defs>
<g transform="translate(926.67 753.69) rotate(-84.387) scale(.08 -.08)">
<use xlink:href="#an"/>
</g>
</g>
<path d="m1169.8 668.82 5.1263 1.9155q2.2482 0.84006 3.0882-1.4081l2.7101-7.2527q0.84006-2.2482-1.4081-3.0882l-5.1263-1.9155q-2.2482-0.84006-3.0882 1.4081l-2.7101 7.2527q-0.84006 2.2482 1.4081 3.0882z" clip-path="url(#a)" fill="#fff" stroke="#fff"/>
<g clip-path="url(#a)">
<g transform="translate(1171.2 665.01) rotate(20.489) scale(.08 -.08)">
<use xlink:href="#u"/>
</g>
</g>
<path d="m738.91 992.32v33.808q0 2.4 2.4 2.4h7.7425q2.4 0 2.4-2.4v-33.808q0-2.4-2.4-2.4h-7.7425q-2.4 0-2.4 2.4z" clip-path="url(#a)" fill="#fff" stroke="#fff"/>
<g clip-path="url(#a)">
<defs>
<path id="k" d="m-0.29688 72.906h61.672v-8.3125h-25.875v-64.594h-9.9062v64.594h-25.891z"/>
<path id="c" d="m56.203 29.594v-4.3906h-41.312q0.59375-9.2812 5.5938-14.141t13.938-4.8594q5.1719 0 10.031 1.2656t9.6562 3.8125v-8.5q-4.8438-2.0469-9.9219-3.125t-10.297-1.0781q-13.094 0-20.734 7.6094-7.6406 7.625-7.6406 20.625 0 13.422 7.25 21.297 7.25 7.8906 19.562 7.8906 11.031 0 17.453-7.1094 6.4219-7.0938 6.4219-19.297zm-8.9844 2.6406q-0.09375 7.3594-4.125 11.75-4.0312 4.4062-10.672 4.4062-7.5156 0-12.031-4.25t-5.2031-11.969z"/>
<path id="g" d="m41.109 46.297q-1.5156 0.875-3.2969 1.2812-1.7812 0.42188-3.9219 0.42188-7.625 0-11.703-4.9531t-4.0781-14.234v-28.812h-9.0312v54.688h9.0312v-8.5q2.8438 4.9844 7.375 7.3906 4.5469 2.4219 11.047 2.4219 0.92188 0 2.0469-0.125 1.125-0.10938 2.4844-0.35938z"/>
<path id="l" d="m52 44.188q3.375 6.0625 8.0625 8.9375t11.031 2.875q8.5469 0 13.188-5.9844 4.6406-5.9688 4.6406-17v-33.016h-9.0312v32.719q0 7.8594-2.7969 11.656-2.7812 3.8125-8.4844 3.8125-6.9844 0-11.047-4.6406-4.0469-4.625-4.0469-12.641v-30.906h-9.0312v32.719q0 7.9062-2.7812 11.688t-8.5938 3.7812q-6.8906 0-10.953-4.6562-4.0469-4.6562-4.0469-12.625v-30.906h-9.0312v54.688h9.0312v-8.5q3.0781 5.0312 7.375 7.4219t10.203 2.3906q5.9688 0 10.141-3.0312 4.1719-3.0156 6.1719-8.7812z"/>
<path id="d" d="m9.4219 54.688h8.9844v-54.688h-8.9844zm0 21.297h8.9844v-11.391h-8.9844z"/>
<path id="f" d="m54.891 33.016v-33.016h-8.9844v32.719q0 7.7656-3.0312 11.609-3.0312 3.8594-9.0781 3.8594-7.2812 0-11.484-4.6406-4.2031-4.625-4.2031-12.641v-30.906h-9.0312v54.688h9.0312v-8.5q3.2344 4.9375 7.5938 7.375 4.375 2.4375 10.094 2.4375 9.4219 0 14.25-5.8281 4.8438-5.8281 4.8438-17.156z"/>
<path id="h" d="m34.281 27.484q-10.891 0-15.094-2.4844t-4.2031-8.5q0-4.7812 3.1562-7.5938 3.1562-2.7969 8.5625-2.7969 7.4844 0 12 5.2969t4.5156 14.078v2zm17.922 3.7188v-31.203h-8.9844v8.2969q-3.0781-4.9688-7.6719-7.3438t-11.234-2.375q-8.3906 0-13.359 4.7188-4.9531 4.7188-4.9531 12.625 0 9.2188 6.1719 13.906 6.1875 4.6875 18.438 4.6875h12.609v0.89062q0 6.2031-4.0781 9.5938t-11.453 3.3906q-4.6875 0-9.1406-1.125-4.4375-1.125-8.5312-3.375v8.3125q4.9219 1.9062 9.5625 2.8438 4.6406 0.95312 9.0312 0.95312 11.875 0 17.734-6.1562 5.8594-6.1406 5.8594-18.641z"/>
<path id="i" d="m9.4219 75.984h8.9844v-75.984h-8.9844z"/>
</defs>
<g transform="translate(742.98 992.32) rotate(90) scale(.08 -.08)">
<use xlink:href="#k"/>
<use x="44.083984" xlink:href="#c"/>
<use x="105.607422" xlink:href="#g"/>
<use x="144.970703" xlink:href="#l"/>
<use x="242.382812" xlink:href="#d"/>
<use x="270.166016" xlink:href="#f"/>
<use x="333.544922" xlink:href="#h"/>
<use x="394.824219" xlink:href="#i"/>
</g>
</g>
<path d="m791.09 992.32v33.808q0 2.4 2.4 2.4h7.7425q2.4 0 2.4-2.4v-33.808q0-2.4-2.4-2.4h-7.7425q-2.4 0-2.4 2.4z" clip-path="url(#a)" fill="#fff" stroke="#fff"/>
<g clip-path="url(#a)">
<g transform="translate(795.15 992.32) rotate(90) scale(.08 -.08)">
<use xlink:href="#k"/>
<use x="44.083984" xlink:href="#c"/>
<use x="105.607422" xlink:href="#g"/>
<use x="144.970703" xlink:href="#l"/>
<use x="242.382812" xlink:href="#d"/>
<use x="270.166016" xlink:href="#f"/>
<use x="333.544922" xlink:href="#h"/>
<use x="394.824219" xlink:href="#i"/>
</g>
</g>
<path d="m845.27 992.32v33.808q0 2.4 2.4 2.4h7.7425q2.4 0 2.4-2.4v-33.808q0-2.4-2.4-2.4h-7.7425q-2.4 0-2.4 2.4z" clip-path="url(#a)" fill="#fff" stroke="#fff"/>
<g clip-path="url(#a)">
<g transform="translate(849.33 992.32) rotate(90) scale(.08 -.08)">
<use xlink:href="#k"/>
<use x="44.083984" xlink:href="#c"/>
<use x="105.607422" xlink:href="#g"/>
<use x="144.970703" xlink:href="#l"/>
<use x="242.382812" xlink:href="#d"/>
<use x="270.166016" xlink:href="#f"/>
<use x="333.544922" xlink:href="#h"/>
<use x="394.824219" xlink:href="#i"/>
</g>
</g>
<path d="m901.46 992.32v33.808q0 2.4 2.4 2.4h7.7425q2.4 0 2.4-2.4v-33.808q0-2.4-2.4-2.4h-7.7425q-2.4 0-2.4 2.4z" clip-path="url(#a)" fill="#fff" stroke="#fff"/>
<g clip-path="url(#a)">
<g transform="translate(905.52 992.32) rotate(90) scale(.08 -.08)">
<use xlink:href="#k"/>
<use x="44.083984" xlink:href="#c"/>
<use x="105.607422" xlink:href="#g"/>
<use x="144.970703" xlink:href="#l"/>
<use x="242.382812" xlink:href="#d"/>
<use x="270.166016" xlink:href="#f"/>
<use x="333.544922" xlink:href="#h"/>
<use x="394.824219" xlink:href="#i"/>
</g>
</g>
<path d="m1186.3 844.23 5.1753-2.0287q2.2345-0.87591 1.3585-3.1104l-2.8257-7.2084q-0.87591-2.2345-3.1104-1.3585l-5.1753 2.0287q-2.2345 0.87591-1.3585 3.1104l2.8257 7.2084q0.87591 2.2345 3.1104 1.3585z" clip-path="url(#a)" fill="#fff" stroke="#fff"/>
<g clip-path="url(#a)">
<defs>
<path id="al" d="m44.391 34.188q3.1719-1.0781 6.1719-4.5938t6.0312-9.6719l10.016-19.922h-10.609l-9.3125 18.703q-3.625 7.3281-7.0156 9.7188t-9.25 2.3906h-10.75v-30.812h-9.8594v72.906h22.266q12.5 0 18.656-5.2344 6.1562-5.2188 6.1562-15.766 0-6.8906-3.2031-11.438-3.2031-4.5312-9.2969-6.2812zm-24.719 30.609v-25.875h12.406q7.125 0 10.766 3.2969t3.6406 9.6875-3.6406 9.6406-10.766 3.25z"/>
</defs>
<g transform="translate(1184.8 840.45) rotate(-21.405) scale(.08 -.08)">
<use xlink:href="#al"/>
</g>
</g>
<path d="m1232.5 844.24 5.008-2.4751q2.1516-1.0634 1.0882-3.2149l-3.4305-6.941q-1.0634-2.1516-3.2149-1.0882l-5.008 2.4751q-2.1516 1.0634-1.0882 3.2149l3.4305 6.941q1.0634 2.1516 3.2149 1.0882z" clip-path="url(#a)" fill="#fff" stroke="#fff"/>
<g clip-path="url(#a)">
<defs>
<path id="x" d="m64.406 67.281v-10.391q-4.9844 4.6406-10.625 6.9219-5.6406 2.2969-11.984 2.2969-12.5 0-19.141-7.6406t-6.6406-22.094q0-14.406 6.6406-22.047t19.141-7.6406q6.3438 0 11.984 2.2969t10.625 6.9375v-10.312q-5.1719-3.5156-10.969-5.2812-5.7812-1.75-12.219-1.75-16.562 0-26.094 10.125-9.5156 10.141-9.5156 27.672 0 17.578 9.5156 27.703 9.5312 10.141 26.094 10.141 6.5312 0 12.312-1.7344 5.7969-1.7344 10.875-5.2031z"/>
</defs>
<g transform="translate(1230.7 840.6) rotate(-26.3) scale(.08 -.08)">
<use xlink:href="#x"/>
</g>
</g>
<path d="m1351.1 843.24 3.1773-4.5947q1.365-1.974-0.60896-3.339l-6.3682-4.4037q-1.974-1.365-3.339 0.60896l-3.1773 4.5947q-1.365 1.974 0.60896 3.339l6.3682 4.4037q1.974 1.365 3.339-0.60896z" clip-path="url(#a)" fill="#fff" stroke="#fff"/>
<g clip-path="url(#a)">
<g transform="translate(1347.7 840.93) rotate(-55.336) scale(.08 -.08)">
<use xlink:href="#x"/>
</g>
</g>
<path d="m1448.6 837.82 2.913 5.2282q1.1681 2.0965 3.2647 0.92841l6.7635-3.7684q2.0965-1.1681 0.92841-3.2647l-2.913-5.2282q-1.1681-2.0965-3.2647-0.92841l-6.7635 3.7684q-2.0965 1.1681-0.92841 3.2647z" clip-path="url(#a)" fill="#fff" stroke="#fff"/>
<g clip-path="url(#a)">
<defs>
<path id="aq" d="m9.8125 72.906h13.281l32.328-60.984v60.984h9.5625v-72.906h-13.281l-32.312 60.984v-60.984h-9.5781z"/>
</defs>
<g transform="translate(1452.1 835.84) rotate(60.875) scale(.08 -.08)">
<use xlink:href="#aq"/>
</g>
</g>
<path d="m1589.6 841.9 5.0724 2.3404q2.1792 1.0055 3.1847-1.1737l3.2438-7.0302q1.0055-2.1792-1.1737-3.1847l-5.0724-2.3404q-2.1792-1.0055-3.1847 1.1737l-3.2438 7.0302q-1.0055 2.1792 1.1737 3.1847z" clip-path="url(#a)" fill="#fff" stroke="#fff"/>
<g clip-path="url(#a)">
<g transform="translate(1591.3 838.21) rotate(24.769) scale(.08 -.08)">
<use xlink:href="#x"/>
</g>
</g>
<path d="m1281 844.21 4.8436-3.2895q1.9854-1.3484 0.637-3.3338l-4.35-6.405q-1.3484-1.9854-3.3338-0.637l-4.8436 3.2895q-1.9854 1.3484-0.637 3.3338l4.35 6.405q1.3484 1.9854 3.3338 0.637z" clip-path="url(#a)" fill="#fff" stroke="#fff"/>
<g clip-path="url(#a)">
<g transform="translate(1278.7 840.85) rotate(-34.183) scale(.08 -.08)">
<use xlink:href="#ag"/>
</g>
</g>
<path d="m1411.8 835.27 0.7437 5.8076q0.30485 2.3806 2.6854 2.0757l7.6798-0.98345q2.3806-0.30485 2.0757-2.6854l-0.7437-5.8076q-0.30485-2.3806-2.6854-2.0757l-7.6798 0.98345q-2.3806 0.30485-2.0757 2.6854z" clip-path="url(#a)" fill="#fff" stroke="#fff"/>
<g clip-path="url(#a)">
<g transform="translate(1415.8 834.76) rotate(82.703) scale(.08 -.08)">
<use xlink:href="#ag"/>
</g>
</g>
<path d="m1739.1 842.72 5.6702 1.4593q2.3243 0.59816 2.9224-1.7261l1.9297-7.4982q0.59816-2.3243-1.7261-2.9224l-5.6702-1.4593q-2.3243-0.59816-2.9224 1.7261l-1.9297 7.4982q-0.59816 2.3243 1.7261 2.9224z" clip-path="url(#a)" fill="#fff" stroke="#fff"/>
<g clip-path="url(#a)">
<g transform="translate(1740.1 838.79) rotate(14.432) scale(.08 -.08)">
<use xlink:href="#ag"/>
</g>
</g>
<path d="m959.65 992.32v33.808q0 2.4 2.4 2.4h7.7425q2.4 0 2.4-2.4v-33.808q0-2.4-2.4-2.4h-7.7425q-2.4 0-2.4 2.4z" clip-path="url(#a)" fill="#fff" stroke="#fff"/>
<g clip-path="url(#a)">
<g transform="translate(963.71 992.32) rotate(90) scale(.08 -.08)">
<use xlink:href="#k"/>
<use x="44.083984" xlink:href="#c"/>
<use x="105.607422" xlink:href="#g"/>
<use x="144.970703" xlink:href="#l"/>
<use x="242.382812" xlink:href="#d"/>
<use x="270.166016" xlink:href="#f"/>
<use x="333.544922" xlink:href="#h"/>
<use x="394.824219" xlink:href="#i"/>
</g>
</g>
<path d="m1044.8 1027 6.062-33.26q0.43034-2.3611-1.9308-2.7914l-7.617-1.3883q-2.3611-0.43034-2.7914 1.9308l-6.062 33.26q-0.43034 2.3611 1.9308 2.7914l7.617 1.3883q2.3611 0.43034 2.7914-1.9308z" clip-path="url(#a)" fill="#fff" stroke="#fff"/>
<g clip-path="url(#a)">
<g transform="translate(1040.8 1026.2) rotate(-79.67) scale(.08 -.08)">
<use xlink:href="#k"/>
<use x="44.083984" xlink:href="#c"/>
<use x="105.607422" xlink:href="#g"/>
<use x="144.970703" xlink:href="#l"/>
<use x="242.382812" xlink:href="#d"/>
<use x="270.166016" xlink:href="#f"/>
<use x="333.544922" xlink:href="#h"/>
<use x="394.824219" xlink:href="#i"/>
</g>
</g>
<path d="m1063.6 993.71 6.062 33.26q0.43034 2.3611 2.7914 1.9308l7.617-1.3883q2.3611-0.43034 1.9308-2.7914l-6.062-33.26q-0.43034-2.3611-2.7914-1.9308l-7.617 1.3883q-2.3611 0.43034-1.9308 2.7914z" clip-path="url(#a)" fill="#fff" stroke="#fff"/>
<g clip-path="url(#a)">
<g transform="translate(1067.6 992.99) rotate(79.67) scale(.08 -.08)">
<use xlink:href="#k"/>
<use x="44.083984" xlink:href="#c"/>
<use x="105.607422" xlink:href="#g"/>
<use x="144.970703" xlink:href="#l"/>
<use x="242.382812" xlink:href="#d"/>
<use x="270.166016" xlink:href="#f"/>
<use x="333.544922" xlink:href="#h"/>
<use x="394.824219" xlink:href="#i"/>
</g>
</g>
<path d="m1252.7 1027.2 12.656-31.349q0.89848-2.2255-1.327-3.124l-7.1795-2.8985q-2.2255-0.89848-3.124 1.327l-12.656 31.349q-0.89848 2.2255 1.327 3.124l7.1795 2.8985q2.2255 0.89848 3.124-1.327z" clip-path="url(#a)" fill="#fff" stroke="#fff"/>
<g clip-path="url(#a)">
<g transform="translate(1248.9 1025.7) rotate(-68.015) scale(.08 -.08)">
<use xlink:href="#k"/>
<use x="44.083984" xlink:href="#c"/>
<use x="105.607422" xlink:href="#g"/>
<use x="144.970703" xlink:href="#l"/>
<use x="242.382812" xlink:href="#d"/>
<use x="270.166016" xlink:href="#f"/>
<use x="333.544922" xlink:href="#h"/>
<use x="394.824219" xlink:href="#i"/>
</g>
</g>
<path d="m1293.5 1026.1 0.13251-33.807q0.009407-2.4-2.3906-2.4094l-7.7424-0.030347q-2.4-0.009407-2.4094 2.3906l-0.13251 33.807q-0.009407 2.4 2.3906 2.4094l7.7424 0.030348q2.4 0.009407 2.4094-2.3906z" clip-path="url(#a)" fill="#fff" stroke="#fff"/>
<g clip-path="url(#a)">
<g transform="translate(1289.5 1026.1) rotate(-89.775) scale(.08 -.08)">
<use xlink:href="#k"/>
<use x="44.083984" xlink:href="#c"/>
<use x="105.607422" xlink:href="#g"/>
<use x="144.970703" xlink:href="#l"/>
<use x="242.382812" xlink:href="#d"/>
<use x="270.166016" xlink:href="#f"/>
<use x="333.544922" xlink:href="#h"/>
<use x="394.824219" xlink:href="#i"/>
</g>
</g>
<path d="m1310.3 995.93 12.762 31.306q0.90596 2.2224 3.1284 1.3165l7.1697-2.9227q2.2224-0.90596 1.3165-3.1284l-12.762-31.306q-0.90596-2.2224-3.1284-1.3165l-7.1697 2.9227q-2.2224 0.90596-1.3165 3.1284z" clip-path="url(#a)" fill="#fff" stroke="#fff"/>
<g clip-path="url(#a)">
<g transform="translate(1314 994.4) rotate(67.822) scale(.08 -.08)">
<use xlink:href="#k"/>
<use x="44.083984" xlink:href="#c"/>
<use x="105.607422" xlink:href="#g"/>
<use x="144.970703" xlink:href="#l"/>
<use x="242.382812" xlink:href="#d"/>
<use x="270.166016" xlink:href="#f"/>
<use x="333.544922" xlink:href="#h"/>
<use x="394.824219" xlink:href="#i"/>
</g>
</g>
<path d="m1497.4 992.32v33.808q0 2.4 2.4 2.4h7.7425q2.4 0 2.4-2.4v-33.808q0-2.4-2.4-2.4h-7.7425q-2.4 0-2.4 2.4z" clip-path="url(#a)" fill="#fff" stroke="#fff"/>
<g clip-path="url(#a)">
<g transform="translate(1501.5 992.32) rotate(90) scale(.08 -.08)">
<use xlink:href="#k"/>
<use x="44.083984" xlink:href="#c"/>
<use x="105.607422" xlink:href="#g"/>
<use x="144.970703" xlink:href="#l"/>
<use x="242.382812" xlink:href="#d"/>
<use x="270.166016" xlink:href="#f"/>
<use x="333.544922" xlink:href="#h"/>
<use x="394.824219" xlink:href="#i"/>
</g>
</g>
<path d="m1672.3 1024.9 25.843-21.796q1.8346-1.5473 0.28733-3.3819l-4.9917-5.9186q-1.5473-1.8346-3.3819-0.28733l-25.843 21.796q-1.8346 1.5473-0.28733 3.3819l4.9917 5.9186q1.5473 1.8346 3.3819 0.28733z" clip-path="url(#a)" fill="#fff" stroke="#fff"/>
<g clip-path="url(#a)">
<g transform="translate(1669.6 1021.8) rotate(-40.144) scale(.08 -.08)">
<use xlink:href="#k"/>
<use x="44.083984" xlink:href="#c"/>
<use x="105.607422" xlink:href="#g"/>
<use x="144.970703" xlink:href="#l"/>
<use x="242.382812" xlink:href="#d"/>
<use x="270.166016" xlink:href="#f"/>
<use x="333.544922" xlink:href="#h"/>
<use x="394.824219" xlink:href="#i"/>
</g>
</g>
<path d="m1715.4 1026.6 19.881-27.344q1.4114-1.9411-0.52974-3.3525l-6.2622-4.5532q-1.9411-1.4114-3.3525 0.52974l-19.881 27.344q-1.4114 1.9411 0.52974 3.3525l6.2622 4.5532q1.9411 1.4114 3.3525-0.52974z" clip-path="url(#a)" fill="#fff" stroke="#fff"/>
<g clip-path="url(#a)">
<g transform="translate(1712.1 1024.2) rotate(-53.979) scale(.08 -.08)">
<use xlink:href="#k"/>
<use x="44.083984" xlink:href="#c"/>
<use x="105.607422" xlink:href="#g"/>
<use x="144.970703" xlink:href="#l"/>
<use x="242.382812" xlink:href="#d"/>
<use x="270.166016" xlink:href="#f"/>
<use x="333.544922" xlink:href="#h"/>
<use x="394.824219" xlink:href="#i"/>
</g>
</g>
<path d="m1762.3 1027.2 8.407-32.746q0.59682-2.3246-1.7278-2.9214l-7.4993-1.9253q-2.3246-0.59682-2.9214 1.7278l-8.407 32.746q-0.59682 2.3246 1.7278 2.9214l7.4993 1.9253q2.3246 0.59681 2.9214-1.7278z" clip-path="url(#a)" fill="#fff" stroke="#fff"/>
<g clip-path="url(#a)">
<g transform="translate(1758.3 1026.1) rotate(-75.601) scale(.08 -.08)">
<use xlink:href="#k"/>
<use x="44.083984" xlink:href="#c"/>
<use x="105.607422" xlink:href="#g"/>
<use x="144.970703" xlink:href="#l"/>
<use x="242.382812" xlink:href="#d"/>
<use x="270.166016" xlink:href="#f"/>
<use x="333.544922" xlink:href="#h"/>
<use x="394.824219" xlink:href="#i"/>
</g>
</g>
<path d="m1791.7 994.11 7.4331 32.98q0.52768 2.3413 2.8689 1.8136l7.553-1.7023q2.3413-0.52768 1.8136-2.8689l-7.4331-32.98q-0.52768-2.3413-2.8689-1.8136l-7.553 1.7023q-2.3413 0.52768-1.8136 2.869z" clip-path="url(#a)" fill="#fff" stroke="#fff"/>
<g clip-path="url(#a)">
<g transform="translate(1795.7 993.21) rotate(77.299) scale(.08 -.08)">
<use xlink:href="#k"/>
<use x="44.083984" xlink:href="#c"/>
<use x="105.607422" xlink:href="#g"/>
<use x="144.970703" xlink:href="#l"/>
<use x="242.382812" xlink:href="#d"/>
<use x="270.166016" xlink:href="#f"/>
<use x="333.544922" xlink:href="#h"/>
<use x="394.824219" xlink:href="#i"/>
</g>
</g>
<path d="m1828.7 999.16 19.74 27.446q1.4014 1.9484 3.3497 0.54699l6.2855-4.5209q1.9484-1.4014 0.54699-3.3497l-19.74-27.446q-1.4014-1.9484-3.3497-0.54699l-6.2855 4.5209q-1.9484 1.4014-0.54699 3.3497z" clip-path="url(#a)" fill="#fff" stroke="#fff"/>
<g clip-path="url(#a)">
<g transform="translate(1832 996.79) rotate(54.274) scale(.08 -.08)">
<use xlink:href="#k"/>
<use x="44.083984" xlink:href="#c"/>
<use x="105.607422" xlink:href="#g"/>
<use x="144.970703" xlink:href="#l"/>
<use x="242.382812" xlink:href="#d"/>
<use x="270.166016" xlink:href="#f"/>
<use x="333.544922" xlink:href="#h"/>
<use x="394.824219" xlink:href="#i"/>
</g>
</g>
<path d="m1869.8 1003.4 26.188 21.38q1.8591 1.5178 3.3769-0.34134l4.8964-5.9976q1.5178-1.8591-0.34134-3.3769l-26.188-21.38q-1.8591-1.5178-3.3769 0.34134l-4.8964 5.9976q-1.5178 1.8591 0.34134 3.3769z" clip-path="url(#a)" fill="#fff" stroke="#fff"/>
<g clip-path="url(#a)">
<g transform="translate(1872.3 1000.2) rotate(39.228) scale(.08 -.08)">
<use xlink:href="#k"/>
<use x="44.083984" xlink:href="#c"/>
<use x="105.607422" xlink:href="#g"/>
<use x="144.970703" xlink:href="#l"/>
<use x="242.382812" xlink:href="#d"/>
<use x="270.166016" xlink:href="#f"/>
<use x="333.544922" xlink:href="#h"/>
<use x="394.824219" xlink:href="#i"/>
</g>
</g>
<path d="m111.47 753.37 0.19769-5.4689q0.086698-2.3984-2.3117-2.4851l-7.7374-0.27969q-2.3984-0.086698-2.4851 2.3117l-0.19769 5.4689q-0.086698 2.3984 2.3117 2.4851l7.7374 0.27969q2.3984 0.086698 2.4851-2.3117z" clip-path="url(#a)" fill="#fff" stroke="#fff"/>
<g clip-path="url(#a)">
<g transform="translate(107.41 753.23) rotate(-87.93) scale(.08 -.08)">
<use xlink:href="#u"/>
</g>
</g>
<path d="m114.52 753.61 0.11577-6.1589q0.045104-2.3996-2.3545-2.4447l-7.7411-0.14551q-2.3996-0.045105-2.4447 2.3545l-0.11577 6.1589q-0.045105 2.3996 2.3545 2.4447l7.7411 0.14551q2.3996 0.045104 2.4447-2.3545z" clip-path="url(#a)" fill="#fff" stroke="#fff"/>
<g clip-path="url(#a)">
<g transform="translate(110.46 753.53) rotate(-88.923) scale(.08 -.08)">
<use xlink:href="#an"/>
</g>
</g>
<path d="m106.04 747.9 0.02203 5.0787q0.01041 2.4 2.4104 2.3896l7.7424-0.033584q2.4-0.010411 2.3896-2.4104l-0.02203-5.0787q-0.010411-2.4-2.4104-2.3896l-7.7424 0.033585q-2.4 0.010411-2.3896 2.4104z" clip-path="url(#a)" fill="#fff" stroke="#fff"/>
<g clip-path="url(#a)">
<g transform="translate(110.11 747.88) rotate(89.751) scale(.08 -.08)">
<use xlink:href="#v"/>
</g>
</g>
<path d="m113.84 661.81 0.54966 5.4448q0.24105 2.3879 2.6289 2.1468l7.7033-0.77765q2.3879-0.24106 2.1468-2.6289l-0.54965-5.4448q-0.24105-2.3879-2.6289-2.1468l-7.7033 0.77765q-2.3879 0.24106-2.1468 2.6289z" clip-path="url(#a)" fill="#fff" stroke="#fff"/>
<g clip-path="url(#a)">
<g transform="translate(117.88 661.4) rotate(84.236) scale(.08 -.08)">
<use xlink:href="#u"/>
</g>
</g>
<path d="m142.93 992.32v33.808q0 2.4 2.4 2.4h7.7425q2.4 0 2.4-2.4v-33.808q0-2.4-2.4-2.4h-7.7425q-2.4 0-2.4 2.4z" clip-path="url(#a)" fill="#fff" stroke="#fff"/>
<g clip-path="url(#a)">
<g transform="translate(146.99 992.32) rotate(90) scale(.08 -.08)">
<use xlink:href="#k"/>
<use x="44.083984" xlink:href="#c"/>
<use x="105.607422" xlink:href="#g"/>
<use x="144.970703" xlink:href="#l"/>
<use x="242.382812" xlink:href="#d"/>
<use x="270.166016" xlink:href="#f"/>
<use x="333.544922" xlink:href="#h"/>
<use x="394.824219" xlink:href="#i"/>
</g>
</g>
<path d="m274.91 667.62 1.7145-4.2699q0.89428-2.2272-1.3329-3.1214l-7.1849-2.885q-2.2272-0.89428-3.1214 1.3329l-1.7145 4.2699q-0.89428 2.2272 1.3329 3.1214l7.1849 2.885q2.2272 0.89428 3.1214-1.3329z" clip-path="url(#a)" fill="#fff" stroke="#fff"/>
<g clip-path="url(#a)">
<g transform="translate(271.14 666.11) rotate(-68.123) scale(.08 -.08)">
<use xlink:href="#am"/>
</g>
</g>
<path d="m289.01 667.84 1.8254-5.2505q0.78812-2.2669-1.4788-3.055l-7.3131-2.5425q-2.2669-0.78812-3.055 1.4788l-1.8254 5.2505q-0.78812 2.2669 1.4788 3.055l7.3131 2.5425q2.2669 0.78812 3.055-1.4788z" clip-path="url(#a)" fill="#fff" stroke="#fff"/>
<g clip-path="url(#a)">
<g transform="translate(285.17 666.5) rotate(-70.829) scale(.08 -.08)">
<use xlink:href="#al"/>
</g>
</g>
<path d="m331.84 495.29 2.8484-5.2993q1.1363-2.114-0.97771-3.2502l-6.8198-3.6657q-2.114-1.1363-3.2502 0.97771l-2.8484 5.2993q-1.1363 2.114 0.97771 3.2502l6.8198 3.6657q2.114 1.1363 3.2502-0.97771z" clip-path="url(#a)" fill="#fff" stroke="#fff"/>
<g clip-path="url(#a)">
<g transform="translate(328.26 493.37) rotate(-61.742) scale(.08 -.08)">
<use xlink:href="#ab"/>
</g>
</g>
<path d="m380.97 661.23 0.21676 4.4522q0.11671 2.3972 2.5139 2.2805l7.7333-0.37651q2.3972-0.11671 2.2805-2.5139l-0.21676-4.4522q-0.11671-2.3972-2.5139-2.2804l-7.7333 0.37651q-2.3972 0.11671-2.2805 2.5139z" clip-path="url(#a)" fill="#fff" stroke="#fff"/>
<g clip-path="url(#a)">
<defs>
<path id="ar" d="m9.8125 72.906h9.8594v-64.609h35.5v-8.2969h-45.359z"/>
</defs>
<g transform="translate(385.03 661.03) rotate(87.213) scale(.08 -.08)">
<use xlink:href="#ar"/>
</g>
</g>
<path d="m413 489.89 2.7721 5.3396q1.1058 2.13 3.2359 1.0242l6.8716-3.5675q2.1301-1.1058 1.0242-3.2359l-2.7721-5.3396q-1.1058-2.13-3.2359-1.0242l-6.8716 3.5675q-2.1301 1.1058-1.0242 3.2359z" clip-path="url(#a)" fill="#fff" stroke="#fff"/>
<g clip-path="url(#a)">
<g transform="translate(416.6 488.02) rotate(62.563) scale(.08 -.08)">
<use xlink:href="#ab"/>
</g>
</g>
<path d="m458.95 663.11 1.4682 4.2088q0.79048 2.2661 3.0566 1.4756l7.3105-2.5501q2.2661-0.79048 1.4756-3.0566l-1.4682-4.2088q-0.79049-2.2661-3.0566-1.4756l-7.3105 2.5501q-2.2661 0.79049-1.4756 3.0566z" clip-path="url(#a)" fill="#fff" stroke="#fff"/>
<g clip-path="url(#a)">
<g transform="translate(462.78 661.77) rotate(70.77) scale(.08 -.08)">
<use xlink:href="#ar"/>
</g>
</g>
<path d="m460.99 576.95 2.84 5.3037q1.133 2.1158 3.2487 0.98281l6.8255-3.6549q2.1158-1.133 0.98281-3.2487l-2.84-5.3037q-1.133-2.1158-3.2487-0.98281l-6.8255 3.6549q-2.1158 1.133-0.9828 3.2487z" clip-path="url(#a)" fill="#fff" stroke="#fff"/>
<g clip-path="url(#a)">
<g transform="translate(464.58 575.03) rotate(61.832) scale(.08 -.08)">
<use xlink:href="#ab"/>
</g>
</g>
<path d="m158.98 992.32v33.808q0 2.4 2.4 2.4h7.7425q2.4 0 2.4-2.4v-33.808q0-2.4-2.4-2.4h-7.7425q-2.4 0-2.4 2.4z" clip-path="url(#a)" fill="#fff" stroke="#fff"/>
<g clip-path="url(#a)">
<g transform="translate(163.04 992.32) rotate(90) scale(.08 -.08)">
<use xlink:href="#k"/>
<use x="44.083984" xlink:href="#c"/>
<use x="105.607422" xlink:href="#g"/>
<use x="144.970703" xlink:href="#l"/>
<use x="242.382812" xlink:href="#d"/>
<use x="270.166016" xlink:href="#f"/>
<use x="333.544922" xlink:href="#h"/>
<use x="394.824219" xlink:href="#i"/>
</g>
</g>
<path d="m193.6 1026.5 1.9843-33.749q0.14086-2.3959-2.255-2.5367l-7.7292-0.45443q-2.3959-0.14086-2.5367 2.255l-1.9843 33.749q-0.14086 2.3959 2.255 2.5367l7.7292 0.45443q2.3959 0.14086 2.5367-2.255z" clip-path="url(#a)" fill="#fff" stroke="#fff"/>
<g clip-path="url(#a)">
<g transform="translate(189.54 1026.2) rotate(-86.635) scale(.08 -.08)">
<use xlink:href="#k"/>
<use x="44.083984" xlink:href="#c"/>
<use x="105.607422" xlink:href="#g"/>
<use x="144.970703" xlink:href="#l"/>
<use x="242.382812" xlink:href="#d"/>
<use x="270.166016" xlink:href="#f"/>
<use x="333.544922" xlink:href="#h"/>
<use x="394.824219" xlink:href="#i"/>
</g>
</g>
<path d="m191.11 992.71 1.9843 33.749q0.14086 2.3959 2.5367 2.255l7.7292-0.45443q2.3959-0.14086 2.255-2.5367l-1.9843-33.749q-0.14086-2.3959-2.5367-2.255l-7.7292 0.45443q-2.3959 0.14086-2.255 2.5367z" clip-path="url(#a)" fill="#fff" stroke="#fff"/>
<g clip-path="url(#a)">
<g transform="translate(195.17 992.47) rotate(86.635) scale(.08 -.08)">
<use xlink:href="#k"/>
<use x="44.083984" xlink:href="#c"/>
<use x="105.607422" xlink:href="#g"/>
<use x="144.970703" xlink:href="#l"/>
<use x="242.382812" xlink:href="#d"/>
<use x="270.166016" xlink:href="#f"/>
<use x="333.544922" xlink:href="#h"/>
<use x="394.824219" xlink:href="#i"/>
</g>
</g>
<path d="m258.91 754.1 0.86265-5.4041q0.37832-2.37-1.9917-2.7483l-7.6457-1.2205q-2.37-0.37832-2.7483 1.9917l-0.86265 5.4041q-0.37832 2.37 1.9917 2.7483l7.6457 1.2205q2.37 0.37832 2.7483-1.9917z" clip-path="url(#a)" fill="#fff" stroke="#fff"/>
<g clip-path="url(#a)">
<g transform="translate(254.89 753.46) rotate(-80.93) scale(.08 -.08)">
<use xlink:href="#u"/>
</g>
</g>
<path d="m271.15 754.04 0.55354-6.1351q0.21566-2.3903-2.1746-2.606l-7.7112-0.69574q-2.3903-0.21566-2.606 2.1746l-0.55354 6.1351q-0.21566 2.3903 2.1746 2.606l7.7112 0.69574q2.3903 0.21566 2.606-2.1746z" clip-path="url(#a)" fill="#fff" stroke="#fff"/>
<g clip-path="url(#a)">
<g transform="translate(267.11 753.68) rotate(-84.844) scale(.08 -.08)">
<use xlink:href="#an"/>
</g>
</g>
<path d="m284.46 752.81 0.069183-4.6007q0.036086-2.3997-2.3636-2.4358l-7.7416-0.11642q-2.3997-0.036086-2.4358 2.3636l-0.069184 4.6007q-0.036085 2.3997 2.3636 2.4358l7.7416 0.11641q2.3997 0.036086 2.4358-2.3636z" clip-path="url(#a)" fill="#fff" stroke="#fff"/>
<g clip-path="url(#a)">
<g transform="translate(280.4 752.75) rotate(-89.138) scale(.08 -.08)">
<use xlink:href="#am"/>
</g>
</g>
<path d="m285.86 748.42 0.31736 4.8133q0.1579 2.3948 2.5527 2.2369l7.7257-0.50938q2.3948-0.1579 2.2369-2.5527l-0.31736-4.8133q-0.1579-2.3948-2.5527-2.2369l-7.7257 0.50938q-2.3948 0.1579-2.2369 2.5527z" clip-path="url(#a)" fill="#fff" stroke="#fff"/>
<g clip-path="url(#a)">
<g transform="translate(289.91 748.15) rotate(86.228) scale(.08 -.08)">
<use xlink:href="#ah"/>
</g>
</g>
<path d="m308.51 663.67 2.0187 5.0865q0.88533 2.2307 3.1161 1.3454l7.1965-2.8561q2.2307-0.88533 1.3454-3.1161l-2.0187-5.0865q-0.88533-2.2307-3.1161-1.3454l-7.1965 2.8561q-2.2307 0.88533-1.3454 3.1161z" clip-path="url(#a)" fill="#fff" stroke="#fff"/>
<g clip-path="url(#a)">
<g transform="translate(312.29 662.17) rotate(68.353) scale(.08 -.08)">
<use xlink:href="#u"/>
</g>
</g>
<path d="m393.76 992.32v33.808q0 2.4 2.4 2.4h7.7425q2.4 0 2.4-2.4v-33.808q0-2.4-2.4-2.4h-7.7425q-2.4 0-2.4 2.4z" clip-path="url(#a)" fill="#fff" stroke="#fff"/>
<g clip-path="url(#a)">
<g transform="translate(397.83 992.32) rotate(90) scale(.08 -.08)">
<use xlink:href="#k"/>
<use x="44.083984" xlink:href="#c"/>
<use x="105.607422" xlink:href="#g"/>
<use x="144.970703" xlink:href="#l"/>
<use x="242.382812" xlink:href="#d"/>
<use x="270.166016" xlink:href="#f"/>
<use x="333.544922" xlink:href="#h"/>
<use x="394.824219" xlink:href="#i"/>
</g>
</g>
<path d="m456.72 753.66 0.45734-5.4534q0.20057-2.3916-2.191-2.5922l-7.7154-0.64704q-2.3916-0.20057-2.5922 2.191l-0.45733 5.4534q-0.20057 2.3916 2.191 2.5922l7.7154 0.64704q2.3916 0.20057 2.5922-2.191z" clip-path="url(#a)" fill="#fff" stroke="#fff"/>
<g clip-path="url(#a)">
<g transform="translate(452.67 753.32) rotate(-85.206) scale(.08 -.08)">
<use xlink:href="#u"/>
</g>
</g>
<path d="m473.22 662.56 0.7959 4.7576q0.39599 2.3671 2.7631 1.9711l7.6364-1.2775q2.3671-0.39599 1.9711-2.7631l-0.7959-4.7576q-0.39599-2.3671-2.7631-1.9711l-7.6364 1.2775q-2.3671 0.39599-1.9711 2.7631z" clip-path="url(#a)" fill="#fff" stroke="#fff"/>
<g clip-path="url(#a)">
<g transform="translate(477.23 661.89) rotate(80.503) scale(.08 -.08)">
<use xlink:href="#ah"/>
</g>
</g>
<path d="m550.29 992.32v33.808q0 2.4 2.4 2.4h7.7425q2.4 0 2.4-2.4v-33.808q0-2.4-2.4-2.4h-7.7425q-2.4 0-2.4 2.4z" clip-path="url(#a)" fill="#fff" stroke="#fff"/>
<g clip-path="url(#a)">
<g transform="translate(554.35 992.32) rotate(90) scale(.08 -.08)">
<use xlink:href="#k"/>
<use x="44.083984" xlink:href="#c"/>
<use x="105.607422" xlink:href="#g"/>
<use x="144.970703" xlink:href="#l"/>
<use x="242.382812" xlink:href="#d"/>
<use x="270.166016" xlink:href="#f"/>
<use x="333.544922" xlink:href="#h"/>
<use x="394.824219" xlink:href="#i"/>
</g>
</g>
<path d="m574.31 836.39 1.0866 4.7639q0.5337 2.3399 2.8736 1.8062l7.5486-1.7217q2.3399-0.5337 1.8062-2.8736l-1.0866-4.7639q-0.5337-2.3399-2.8736-1.8062l-7.5486 1.7217q-2.3399 0.5337-1.8062 2.8736z" clip-path="url(#a)" fill="#fff" stroke="#fff"/>
<g clip-path="url(#a)">
<g transform="translate(578.28 835.49) rotate(77.151) scale(.08 -.08)">
<use xlink:href="#k"/>
</g>
</g>
<path d="m597.36 838 2.1394 4.3234q1.0644 2.1511 3.2155 1.0866l6.9394-3.4338q2.1511-1.0644 1.0866-3.2155l-2.1394-4.3234q-1.0644-2.1511-3.2155-1.0866l-6.9394 3.4338q-2.1511 1.0644-1.0866 3.2155z" clip-path="url(#a)" fill="#fff" stroke="#fff"/>
<g clip-path="url(#a)">
<g transform="translate(601 836.2) rotate(63.672) scale(.08 -.08)">
<use xlink:href="#ah"/>
</g>
</g>
<path d="m502.18 843.27 3.2061-4.435q1.4061-1.945-0.53892-3.3511l-6.2746-4.536q-1.945-1.4061-3.3511 0.53892l-3.2061 4.435q-1.4061 1.945 0.53892 3.3511l6.2746 4.536q1.945 1.4061 3.3511-0.53892z" clip-path="url(#a)" fill="#fff" stroke="#fff"/>
<g clip-path="url(#a)">
<g transform="translate(498.88 840.89) rotate(-54.136) scale(.08 -.08)">
<use xlink:href="#u"/>
</g>
</g>
<path d="m594.43 992.32v33.808q0 2.4 2.4 2.4h7.7425q2.4 0 2.4-2.4v-33.808q0-2.4-2.4-2.4h-7.7425q-2.4 0-2.4 2.4z" clip-path="url(#a)" fill="#fff" stroke="#fff"/>
<g clip-path="url(#a)">
<g transform="translate(598.5 992.32) rotate(90) scale(.08 -.08)">
<use xlink:href="#k"/>
<use x="44.083984" xlink:href="#c"/>
<use x="105.607422" xlink:href="#g"/>
<use x="144.970703" xlink:href="#l"/>
<use x="242.382812" xlink:href="#d"/>
<use x="270.166016" xlink:href="#f"/>
<use x="333.544922" xlink:href="#h"/>
<use x="394.824219" xlink:href="#i"/>
</g>
</g>
<path d="m640.59 992.32v33.808q0 2.4 2.4 2.4h7.7425q2.4 0 2.4-2.4v-33.808q0-2.4-2.4-2.4h-7.7425q-2.4 0-2.4 2.4z" clip-path="url(#a)" fill="#fff" stroke="#fff"/>
<g clip-path="url(#a)">
<g transform="translate(644.65 992.32) rotate(90) scale(.08 -.08)">
<use xlink:href="#k"/>
<use x="44.083984" xlink:href="#c"/>
<use x="105.607422" xlink:href="#g"/>
<use x="144.970703" xlink:href="#l"/>
<use x="242.382812" xlink:href="#d"/>
<use x="270.166016" xlink:href="#f"/>
<use x="333.544922" xlink:href="#h"/>
<use x="394.824219" xlink:href="#i"/>
</g>
</g>
<path d="m429.88 992.32v33.808q0 2.4 2.4 2.4h7.7425q2.4 0 2.4-2.4v-33.808q0-2.4-2.4-2.4h-7.7425q-2.4 0-2.4 2.4z" clip-path="url(#a)" fill="#fff" stroke="#fff"/>
<g clip-path="url(#a)">
<g transform="translate(433.95 992.32) rotate(90) scale(.08 -.08)">
<use xlink:href="#k"/>
<use x="44.083984" xlink:href="#c"/>
<use x="105.607422" xlink:href="#g"/>
<use x="144.970703" xlink:href="#l"/>
<use x="242.382812" xlink:href="#d"/>
<use x="270.166016" xlink:href="#f"/>
<use x="333.544922" xlink:href="#h"/>
<use x="394.824219" xlink:href="#i"/>
</g>
</g>
<path d="m490.25 840.61 0.58236-5.0213q0.27649-2.384-2.1075-2.6605l-7.691-0.89197q-2.384-0.27649-2.6605 2.1075l-0.58236 5.0213q-0.27649 2.384 2.1075 2.6605l7.6909 0.89197q2.384 0.27649 2.6605-2.1075z" clip-path="url(#a)" fill="#fff" stroke="#fff"/>
<g clip-path="url(#a)">
<defs>
<path id="as" d="m9.8125 72.906h46.094v-8.3125h-36.234v-21.578h34.719v-8.2969h-34.719v-26.422h37.109v-8.2969h-46.969z"/>
</defs>
<g transform="translate(486.22 840.15) rotate(-83.385) scale(.08 -.08)">
<use xlink:href="#as"/>
</g>
</g>
<path d="m497.83 835.33 0.64356 5.5491q0.27649 2.384 2.6605 2.1075l7.6909-0.89197q2.384-0.27649 2.1075-2.6605l-0.64356-5.5491q-0.27649-2.384-2.6605-2.1075l-7.6909 0.89197q-2.384 0.27649-2.1075 2.6605z" clip-path="url(#a)" fill="#fff" stroke="#fff"/>
<g clip-path="url(#a)">
<g transform="translate(501.87 834.86) rotate(83.385) scale(.08 -.08)">
<use xlink:href="#x"/>
</g>
</g>
<path d="m468.01 992.32v33.808q0 2.4 2.4 2.4h7.7425q2.4 0 2.4-2.4v-33.808q0-2.4-2.4-2.4h-7.7425q-2.4 0-2.4 2.4z" clip-path="url(#a)" fill="#fff" stroke="#fff"/>
<g clip-path="url(#a)">
<g transform="translate(472.07 992.32) rotate(90) scale(.08 -.08)">
<use xlink:href="#k"/>
<use x="44.083984" xlink:href="#c"/>
<use x="105.607422" xlink:href="#g"/>
<use x="144.970703" xlink:href="#l"/>
<use x="242.382812" xlink:href="#d"/>
<use x="270.166016" xlink:href="#f"/>
<use x="333.544922" xlink:href="#h"/>
<use x="394.824219" xlink:href="#i"/>
</g>
</g>
<path d="m508.14 992.32v33.808q0 2.4 2.4 2.4h7.7425q2.4 0 2.4-2.4v-33.808q0-2.4-2.4-2.4h-7.7425q-2.4 0-2.4 2.4z" clip-path="url(#a)" fill="#fff" stroke="#fff"/>
<g clip-path="url(#a)">
<g transform="translate(512.21 992.32) rotate(90) scale(.08 -.08)">
<use xlink:href="#k"/>
<use x="44.083984" xlink:href="#c"/>
<use x="105.607422" xlink:href="#g"/>
<use x="144.970703" xlink:href="#l"/>
<use x="242.382812" xlink:href="#d"/>
<use x="270.166016" xlink:href="#f"/>
<use x="333.544922" xlink:href="#h"/>
<use x="394.824219" xlink:href="#i"/>
</g>
</g>
<path d="m219.18 992.32v33.808q0 2.4 2.4 2.4h7.7425q2.4 0 2.4-2.4v-33.808q0-2.4-2.4-2.4h-7.7425q-2.4 0-2.4 2.4z" clip-path="url(#a)" fill="#fff" stroke="#fff"/>
<g clip-path="url(#a)">
<g transform="translate(223.24 992.32) rotate(90) scale(.08 -.08)">
<use xlink:href="#k"/>
<use x="44.083984" xlink:href="#c"/>
<use x="105.607422" xlink:href="#g"/>
<use x="144.970703" xlink:href="#l"/>
<use x="242.382812" xlink:href="#d"/>
<use x="270.166016" xlink:href="#f"/>
<use x="333.544922" xlink:href="#h"/>
<use x="394.824219" xlink:href="#i"/>
</g>
</g>
<path d="m243.26 992.32v33.808q0 2.4 2.4 2.4h7.7425q2.4 0 2.4-2.4v-33.808q0-2.4-2.4-2.4h-7.7425q-2.4 0-2.4 2.4z" clip-path="url(#a)" fill="#fff" stroke="#fff"/>
<g clip-path="url(#a)">
<g transform="translate(247.32 992.32) rotate(90) scale(.08 -.08)">
<use xlink:href="#k"/>
<use x="44.083984" xlink:href="#c"/>
<use x="105.607422" xlink:href="#g"/>
<use x="144.970703" xlink:href="#l"/>
<use x="242.382812" xlink:href="#d"/>
<use x="270.166016" xlink:href="#f"/>
<use x="333.544922" xlink:href="#h"/>
<use x="394.824219" xlink:href="#i"/>
</g>
</g>
<path d="m269.35 992.32v33.808q0 2.4 2.4 2.4h7.7425q2.4 0 2.4-2.4v-33.808q0-2.4-2.4-2.4h-7.7425q-2.4 0-2.4 2.4z" clip-path="url(#a)" fill="#fff" stroke="#fff"/>
<g clip-path="url(#a)">
<g transform="translate(273.41 992.32) rotate(90) scale(.08 -.08)">
<use xlink:href="#k"/>
<use x="44.083984" xlink:href="#c"/>
<use x="105.607422" xlink:href="#g"/>
<use x="144.970703" xlink:href="#l"/>
<use x="242.382812" xlink:href="#d"/>
<use x="270.166016" xlink:href="#f"/>
<use x="333.544922" xlink:href="#h"/>
<use x="394.824219" xlink:href="#i"/>
</g>
</g>
<path d="m297.44 992.32v33.808q0 2.4 2.4 2.4h7.7425q2.4 0 2.4-2.4v-33.808q0-2.4-2.4-2.4h-7.7425q-2.4 0-2.4 2.4z" clip-path="url(#a)" fill="#fff" stroke="#fff"/>
<g clip-path="url(#a)">
<g transform="translate(301.51 992.32) rotate(90) scale(.08 -.08)">
<use xlink:href="#k"/>
<use x="44.083984" xlink:href="#c"/>
<use x="105.607422" xlink:href="#g"/>
<use x="144.970703" xlink:href="#l"/>
<use x="242.382812" xlink:href="#d"/>
<use x="270.166016" xlink:href="#f"/>
<use x="333.544922" xlink:href="#h"/>
<use x="394.824219" xlink:href="#i"/>
</g>
</g>
<path d="m347.85 840.48 0.467-5.0334q0.22172-2.3897-2.168-2.6115l-7.7094-0.71528q-2.3897-0.22172-2.6115 2.168l-0.467 5.0334q-0.22172 2.3897 2.168 2.6115l7.7094 0.71528q2.3897 0.22172 2.6115-2.168z" clip-path="url(#a)" fill="#fff" stroke="#fff"/>
<g clip-path="url(#a)">
<g transform="translate(343.8 840.1) rotate(-84.699) scale(.08 -.08)">
<use xlink:href="#as"/>
</g>
</g>
<path d="m351.39 835.18 0.51608 5.5624q0.22172 2.3897 2.6115 2.168l7.7094-0.71528q2.3897-0.22172 2.168-2.6115l-0.51608-5.5624q-0.22172-2.3897-2.6115-2.168l-7.7094 0.71528q-2.3897 0.22172-2.168 2.6115z" clip-path="url(#a)" fill="#fff" stroke="#fff"/>
<g clip-path="url(#a)">
<g transform="translate(355.44 834.8) rotate(84.699) scale(.08 -.08)">
<use xlink:href="#x"/>
</g>
</g>
<path d="m327.54 992.32v33.808q0 2.4 2.4 2.4h7.7425q2.4 0 2.4-2.4v-33.808q0-2.4-2.4-2.4h-7.7425q-2.4 0-2.4 2.4z" clip-path="url(#a)" fill="#fff" stroke="#fff"/>
<g clip-path="url(#a)">
<g transform="translate(331.61 992.32) rotate(90) scale(.08 -.08)">
<use xlink:href="#k"/>
<use x="44.083984" xlink:href="#c"/>
<use x="105.607422" xlink:href="#g"/>
<use x="144.970703" xlink:href="#l"/>
<use x="242.382812" xlink:href="#d"/>
<use x="270.166016" xlink:href="#f"/>
<use x="333.544922" xlink:href="#h"/>
<use x="394.824219" xlink:href="#i"/>
</g>
</g>
<path d="m359.65 992.32v33.808q0 2.4 2.4 2.4h7.7425q2.4 0 2.4-2.4v-33.808q0-2.4-2.4-2.4h-7.7425q-2.4 0-2.4 2.4z" clip-path="url(#a)" fill="#fff" stroke="#fff"/>
<g clip-path="url(#a)">
<g transform="translate(363.71 992.32) rotate(90) scale(.08 -.08)">
<use xlink:href="#k"/>
<use x="44.083984" xlink:href="#c"/>
<use x="105.607422" xlink:href="#g"/>
<use x="144.970703" xlink:href="#l"/>
<use x="242.382812" xlink:href="#d"/>
<use x="270.166016" xlink:href="#f"/>
<use x="333.544922" xlink:href="#h"/>
<use x="394.824219" xlink:href="#i"/>
</g>
</g>
<path d="m92.759 992.32v33.808q0 2.4 2.4 2.4h7.7425q2.4 0 2.4-2.4v-33.808q0-2.4-2.4-2.4h-7.7425q-2.4 0-2.4 2.4z" clip-path="url(#a)" fill="#fff" stroke="#fff"/>
<g clip-path="url(#a)">
<g transform="translate(96.823 992.32) rotate(90) scale(.08 -.08)">
<use xlink:href="#k"/>
<use x="44.083984" xlink:href="#c"/>
<use x="105.607422" xlink:href="#g"/>
<use x="144.970703" xlink:href="#l"/>
<use x="242.382812" xlink:href="#d"/>
<use x="270.166016" xlink:href="#f"/>
<use x="333.544922" xlink:href="#h"/>
<use x="394.824219" xlink:href="#i"/>
</g>
</g>
<path d="m98.779 992.32v33.808q0 2.4 2.4 2.4h7.7425q2.4 0 2.4-2.4v-33.808q0-2.4-2.4-2.4h-7.7425q-2.4 0-2.4 2.4z" clip-path="url(#a)" fill="#fff" stroke="#fff"/>
<g clip-path="url(#a)">
<g transform="translate(102.84 992.32) rotate(90) scale(.08 -.08)">
<use xlink:href="#k"/>
<use x="44.083984" xlink:href="#c"/>
<use x="105.607422" xlink:href="#g"/>
<use x="144.970703" xlink:href="#l"/>
<use x="242.382812" xlink:href="#d"/>
<use x="270.166016" xlink:href="#f"/>
<use x="333.544922" xlink:href="#h"/>
<use x="394.824219" xlink:href="#i"/>
</g>
</g>
<path d="m106.81 992.32v33.808q0 2.4 2.4 2.4h7.7425q2.4 0 2.4-2.4v-33.808q0-2.4-2.4-2.4h-7.7425q-2.4 0-2.4 2.4z" clip-path="url(#a)" fill="#fff" stroke="#fff"/>
<g clip-path="url(#a)">
<g transform="translate(110.87 992.32) rotate(90) scale(.08 -.08)">
<use xlink:href="#k"/>
<use x="44.083984" xlink:href="#c"/>
<use x="105.607422" xlink:href="#g"/>
<use x="144.970703" xlink:href="#l"/>
<use x="242.382812" xlink:href="#d"/>
<use x="270.166016" xlink:href="#f"/>
<use x="333.544922" xlink:href="#h"/>
<use x="394.824219" xlink:href="#i"/>
</g>
</g>
<path d="m132.29 840.38 0.19329-5.5554q0.083453-2.3985-2.3151-2.482l-7.7378-0.26922q-2.3985-0.083452-2.482 2.3151l-0.19329 5.5554q-0.083453 2.3985 2.3151 2.482l7.7378 0.26922q2.3985 0.083452 2.482-2.3151z" clip-path="url(#a)" fill="#fff" stroke="#fff"/>
<g clip-path="url(#a)">
<g transform="translate(128.23 840.23) rotate(-88.007) scale(.08 -.08)">
<use xlink:href="#al"/>
</g>
</g>
<path d="m125.78 834.81 0.19424 5.5829q0.083453 2.3985 2.482 2.3151l7.7378-0.26922q2.3985-0.083452 2.3151-2.482l-0.19424-5.5829q-0.083452-2.3985-2.482-2.3151l-7.7378 0.26922q-2.3985 0.083453-2.3151 2.482z" clip-path="url(#a)" fill="#fff" stroke="#fff"/>
<g clip-path="url(#a)">
<g transform="translate(129.84 834.67) rotate(88.007) scale(.08 -.08)">
<use xlink:href="#x"/>
</g>
</g>
<path d="m116.84 992.32v33.808q0 2.4 2.4 2.4h7.7425q2.4 0 2.4-2.4v-33.808q0-2.4-2.4-2.4h-7.7425q-2.4 0-2.4 2.4z" clip-path="url(#a)" fill="#fff" stroke="#fff"/>
<g clip-path="url(#a)">
<g transform="translate(120.9 992.32) rotate(90) scale(.08 -.08)">
<use xlink:href="#k"/>
<use x="44.083984" xlink:href="#c"/>
<use x="105.607422" xlink:href="#g"/>
<use x="144.970703" xlink:href="#l"/>
<use x="242.382812" xlink:href="#d"/>
<use x="270.166016" xlink:href="#f"/>
<use x="333.544922" xlink:href="#h"/>
<use x="394.824219" xlink:href="#i"/>
</g>
</g>
<path d="m128.88 992.32v33.808q0 2.4 2.4 2.4h7.7425q2.4 0 2.4-2.4v-33.808q0-2.4-2.4-2.4h-7.7425q-2.4 0-2.4 2.4z" clip-path="url(#a)" fill="#fff" stroke="#fff"/>
<g clip-path="url(#a)">
<g transform="translate(132.94 992.32) rotate(90) scale(.08 -.08)">
<use xlink:href="#k"/>
<use x="44.083984" xlink:href="#c"/>
<use x="105.607422" xlink:href="#g"/>
<use x="144.970703" xlink:href="#l"/>
<use x="242.382812" xlink:href="#d"/>
<use x="270.166016" xlink:href="#f"/>
<use x="333.544922" xlink:href="#h"/>
<use x="394.824219" xlink:href="#i"/>
</g>
</g>
<path d="m688.75 992.32v33.808q0 2.4 2.4 2.4h7.7425q2.4 0 2.4-2.4v-33.808q0-2.4-2.4-2.4h-7.7425q-2.4 0-2.4 2.4z" clip-path="url(#a)" fill="#fff" stroke="#fff"/>
<g clip-path="url(#a)">
<g transform="translate(692.81 992.32) rotate(90) scale(.08 -.08)">
<use xlink:href="#k"/>
<use x="44.083984" xlink:href="#c"/>
<use x="105.607422" xlink:href="#g"/>
<use x="144.970703" xlink:href="#l"/>
<use x="242.382812" xlink:href="#d"/>
<use x="270.166016" xlink:href="#f"/>
<use x="333.544922" xlink:href="#h"/>
<use x="394.824219" xlink:href="#i"/>
</g>
</g>
<path d="m1146.3 992.32v33.808q0 2.4 2.4 2.4h7.7425q2.4 0 2.4-2.4v-33.808q0-2.4-2.4-2.4h-7.7425q-2.4 0-2.4 2.4z" clip-path="url(#a)" fill="#fff" stroke="#fff"/>
<g clip-path="url(#a)">
<g transform="translate(1150.3 992.32) rotate(90) scale(.08 -.08)">
<use xlink:href="#k"/>
<use x="44.083984" xlink:href="#c"/>
<use x="105.607422" xlink:href="#g"/>
<use x="144.970703" xlink:href="#l"/>
<use x="242.382812" xlink:href="#d"/>
<use x="270.166016" xlink:href="#f"/>
<use x="333.544922" xlink:href="#h"/>
<use x="394.824219" xlink:href="#i"/>
</g>
</g>
<path d="m1423.2 992.32v33.808q0 2.4 2.4 2.4h7.7425q2.4 0 2.4-2.4v-33.808q0-2.4-2.4-2.4h-7.7425q-2.4 0-2.4 2.4z" clip-path="url(#a)" fill="#fff" stroke="#fff"/>
<g clip-path="url(#a)">
<g transform="translate(1427.3 992.32) rotate(90) scale(.08 -.08)">
<use xlink:href="#k"/>
<use x="44.083984" xlink:href="#c"/>
<use x="105.607422" xlink:href="#g"/>
<use x="144.970703" xlink:href="#l"/>
<use x="242.382812" xlink:href="#d"/>
<use x="270.166016" xlink:href="#f"/>
<use x="333.544922" xlink:href="#h"/>
<use x="394.824219" xlink:href="#i"/>
</g>
</g>
<path d="m2073.4 992.32v33.808q0 2.4 2.4 2.4h7.7425q2.4 0 2.4-2.4v-33.808q0-2.4-2.4-2.4h-7.7425q-2.4 0-2.4 2.4z" clip-path="url(#a)" fill="#fff" stroke="#fff"/>
<g clip-path="url(#a)">
<g transform="translate(2077.4 992.32) rotate(90) scale(.08 -.08)">
<use xlink:href="#k"/>
<use x="44.083984" xlink:href="#c"/>
<use x="105.607422" xlink:href="#g"/>
<use x="144.970703" xlink:href="#l"/>
<use x="242.382812" xlink:href="#d"/>
<use x="270.166016" xlink:href="#f"/>
<use x="333.544922" xlink:href="#h"/>
<use x="394.824219" xlink:href="#i"/>
</g>
</g>
<defs>
<path id="b" d="m0 8.6603c2.2967 0 4.4997-0.9125 6.1237-2.5365 1.624-1.624 2.5365-3.827 2.5365-6.1237s-0.9125-4.4997-2.5365-6.1237c-1.624-1.624-3.827-2.5365-6.1237-2.5365s-4.4997 0.9125-6.1237 2.5365c-1.624 1.624-2.5365 3.827-2.5365 6.1237s0.9125 4.4997 2.5365 6.1237c1.624 1.624 3.827 2.5365 6.1237 2.5365z"/>
</defs>
<g clip-path="url(#a)">
<use x="99.030303" y="1094.545455" fill="#ffffff" stroke="#ffffff" xlink:href="#b"/>
</g>
<g clip-path="url(#a)">
<use x="105.050382" y="1094.545455" fill="#ffffff" stroke="#ffffff" xlink:href="#b"/>
</g>
<g clip-path="url(#a)">
<use x="113.077155" y="1094.545455" fill="#ffffff" stroke="#ffffff" xlink:href="#b"/>
</g>
<g clip-path="url(#a)">
<use x="123.11062" y="1094.545455" fill="#ffffff" stroke="#ffffff" xlink:href="#b"/>
</g>
<g clip-path="url(#a)">
<use x="135.150778" y="1094.545455" fill="#ffffff" stroke="#ffffff" xlink:href="#b"/>
</g>
<g clip-path="url(#a)">
<use x="149.19763" y="1094.545455" fill="#ffffff" stroke="#ffffff" xlink:href="#b"/>
</g>
<g clip-path="url(#a)">
<use x="165.251174" y="1094.545455" fill="#ffffff" stroke="#ffffff" xlink:href="#b"/>
</g>
<g clip-path="url(#a)">
<use x="183.311412" y="1094.545455" fill="#ffffff" stroke="#ffffff" xlink:href="#b"/>
</g>
<g clip-path="url(#a)">
<use x="203.378343" y="1094.545455" fill="#ffffff" stroke="#ffffff" xlink:href="#b"/>
</g>
<g clip-path="url(#a)">
<use x="225.451966" y="1094.545455" fill="#ffffff" stroke="#ffffff" xlink:href="#b"/>
</g>
<g clip-path="url(#a)">
<use x="249.532283" y="1094.545455" fill="#ffffff" stroke="#ffffff" xlink:href="#b"/>
</g>
<g clip-path="url(#a)">
<use x="275.619293" y="1094.545455" fill="#ffffff" stroke="#ffffff" xlink:href="#b"/>
</g>
<g clip-path="url(#a)">
<use x="303.712996" y="1094.545455" fill="#ffffff" stroke="#ffffff" xlink:href="#b"/>
</g>
<g clip-path="url(#a)">
<use x="333.813392" y="1094.545455" fill="#ffffff" stroke="#ffffff" xlink:href="#b"/>
</g>
<g clip-path="url(#a)">
<use x="365.920481" y="1094.545455" fill="#ffffff" stroke="#ffffff" xlink:href="#b"/>
</g>
<g clip-path="url(#a)">
<use x="400.034264" y="1094.545455" fill="#ffffff" stroke="#ffffff" xlink:href="#b"/>
</g>
<g clip-path="url(#a)">
<use x="436.154739" y="1094.545455" fill="#ffffff" stroke="#ffffff" xlink:href="#b"/>
</g>
<g clip-path="url(#a)">
<use x="474.281907" y="1094.545455" fill="#ffffff" stroke="#ffffff" xlink:href="#b"/>
</g>
<g clip-path="url(#a)">
<use x="514.415769" y="1094.545455" fill="#ffffff" stroke="#ffffff" xlink:href="#b"/>
</g>
<g clip-path="url(#a)">
<use x="556.556323" y="1094.545455" fill="#ffffff" stroke="#ffffff" xlink:href="#b"/>
</g>
<g clip-path="url(#a)">
<use x="600.703571" y="1094.545455" fill="#ffffff" stroke="#ffffff" xlink:href="#b"/>
</g>
<g clip-path="url(#a)">
<use x="646.857511" y="1094.545455" fill="#ffffff" stroke="#ffffff" xlink:href="#b"/>
</g>
<g clip-path="url(#a)">
<use x="695.018145" y="1094.545455" fill="#ffffff" stroke="#ffffff" xlink:href="#b"/>
</g>
<g clip-path="url(#a)">
<use x="745.185472" y="1094.545455" fill="#ffffff" stroke="#ffffff" xlink:href="#b"/>
</g>
<g clip-path="url(#a)">
<use x="797.359492" y="1094.545455" fill="#ffffff" stroke="#ffffff" xlink:href="#b"/>
</g>
<g clip-path="url(#a)">
<use x="851.540204" y="1094.545455" fill="#ffffff" stroke="#ffffff" xlink:href="#b"/>
</g>
<g clip-path="url(#a)">
<use x="907.72761" y="1094.545455" fill="#ffffff" stroke="#ffffff" xlink:href="#b"/>
</g>
<g clip-path="url(#a)">
<use x="965.921709" y="1094.545455" fill="#ffffff" stroke="#ffffff" xlink:href="#b"/>
</g>
<g clip-path="url(#a)">
<use x="1026.122502" y="1094.545455" fill="#ffffff" stroke="#ffffff" xlink:href="#b"/>
</g>
<g clip-path="url(#a)">
<use x="1088.329987" y="1094.545455" fill="#ffffff" stroke="#ffffff" xlink:href="#b"/>
</g>
<g clip-path="url(#a)">
<use x="1152.544165" y="1094.545455" fill="#ffffff" stroke="#ffffff" xlink:href="#b"/>
</g>
<g clip-path="url(#a)">
<use x="1218.765036" y="1094.545455" fill="#ffffff" stroke="#ffffff" xlink:href="#b"/>
</g>
<g clip-path="url(#a)">
<use x="1286.992601" y="1094.545455" fill="#ffffff" stroke="#ffffff" xlink:href="#b"/>
</g>
<g clip-path="url(#a)">
<use x="1357.226858" y="1094.545455" fill="#ffffff" stroke="#ffffff" xlink:href="#b"/>
</g>
<g clip-path="url(#a)">
<use x="1429.467809" y="1094.545455" fill="#ffffff" stroke="#ffffff" xlink:href="#b"/>
</g>
<g clip-path="url(#a)">
<use x="1503.715452" y="1094.545455" fill="#ffffff" stroke="#ffffff" xlink:href="#b"/>
</g>
<g clip-path="url(#a)">
<use x="1579.969789" y="1094.545455" fill="#ffffff" stroke="#ffffff" xlink:href="#b"/>
</g>
<g clip-path="url(#a)">
<use x="1658.230819" y="1094.545455" fill="#ffffff" stroke="#ffffff" xlink:href="#b"/>
</g>
<g clip-path="url(#a)">
<use x="1738.498542" y="1094.545455" fill="#ffffff" stroke="#ffffff" xlink:href="#b"/>
</g>
<g clip-path="url(#a)">
<use x="1820.772958" y="1094.545455" fill="#ffffff" stroke="#ffffff" xlink:href="#b"/>
</g>
<g clip-path="url(#a)">
<use x="1905.054067" y="1094.545455" fill="#ffffff" stroke="#ffffff" xlink:href="#b"/>
</g>
<g clip-path="url(#a)">
<use x="1991.341869" y="1094.545455" fill="#ffffff" stroke="#ffffff" xlink:href="#b"/>
</g>
<g clip-path="url(#a)">
<use x="2079.636364" y="1094.545455" fill="#ffffff" stroke="#ffffff" xlink:href="#b"/>
</g>
<g clip-path="url(#a)">
<use x="616.215892" y="52.121212" fill="#ffffff" stroke="#ffffff" xlink:href="#b"/>
</g>
<g clip-path="url(#a)">
<use x="211.804861" y="227.440946" fill="#ffffff" stroke="#ffffff" xlink:href="#b"/>
</g>
<g clip-path="url(#a)">
<use x="941.82467" y="576.933608" fill="#ffffff" stroke="#ffffff" xlink:href="#b"/>
</g>
<g clip-path="url(#a)">
<use x="745.185472" y="923.893314" fill="#ffffff" stroke="#ffffff" xlink:href="#b"/>
</g>
<g clip-path="url(#a)">
<use x="797.359492" y="923.893314" fill="#ffffff" stroke="#ffffff" xlink:href="#b"/>
</g>
<g clip-path="url(#a)">
<use x="851.540204" y="923.893314" fill="#ffffff" stroke="#ffffff" xlink:href="#b"/>
</g>
<g clip-path="url(#a)">
<use x="907.72761" y="923.893314" fill="#ffffff" stroke="#ffffff" xlink:href="#b"/>
</g>
<g clip-path="url(#a)">
<use x="1407.310573" y="750.867215" fill="#ffffff" stroke="#ffffff" xlink:href="#b"/>
</g>
<g clip-path="url(#a)">
<use x="965.921709" y="923.893314" fill="#ffffff" stroke="#ffffff" xlink:href="#b"/>
</g>
<g clip-path="url(#a)">
<use x="1057.226244" y="923.893314" fill="#ffffff" stroke="#ffffff" xlink:href="#b"/>
</g>
<g clip-path="url(#a)">
<use x="1287.661498" y="923.893314" fill="#ffffff" stroke="#ffffff" xlink:href="#b"/>
</g>
<g clip-path="url(#a)">
<use x="1503.715452" y="923.893314" fill="#ffffff" stroke="#ffffff" xlink:href="#b"/>
</g>
<g clip-path="url(#a)">
<use x="1782.31134" y="923.893314" fill="#ffffff" stroke="#ffffff" xlink:href="#b"/>
</g>
<g clip-path="url(#a)">
<use x="111.572135" y="576.933608" fill="#ffffff" stroke="#ffffff" xlink:href="#b"/>
</g>
<g clip-path="url(#a)">
<use x="149.19763" y="923.893314" fill="#ffffff" stroke="#ffffff" xlink:href="#b"/>
</g>
<g clip-path="url(#a)">
<use x="374.644818" y="402.408032" fill="#ffffff" stroke="#ffffff" xlink:href="#b"/>
</g>
<g clip-path="url(#a)">
<use x="165.251174" y="923.893314" fill="#ffffff" stroke="#ffffff" xlink:href="#b"/>
</g>
<g clip-path="url(#a)">
<use x="193.344877" y="923.893314" fill="#ffffff" stroke="#ffffff" xlink:href="#b"/>
</g>
<g clip-path="url(#a)">
<use x="280.836695" y="576.933608" fill="#ffffff" stroke="#ffffff" xlink:href="#b"/>
</g>
<g clip-path="url(#a)">
<use x="400.034264" y="923.893314" fill="#ffffff" stroke="#ffffff" xlink:href="#b"/>
</g>
<g clip-path="url(#a)">
<use x="465.251788" y="576.933608" fill="#ffffff" stroke="#ffffff" xlink:href="#b"/>
</g>
<g clip-path="url(#a)">
<use x="556.556323" y="923.893314" fill="#ffffff" stroke="#ffffff" xlink:href="#b"/>
</g>
<g clip-path="url(#a)">
<use x="561.238607" y="750.867215" fill="#ffffff" stroke="#ffffff" xlink:href="#b"/>
</g>
<g clip-path="url(#a)">
<use x="600.703571" y="923.893314" fill="#ffffff" stroke="#ffffff" xlink:href="#b"/>
</g>
<g clip-path="url(#a)">
<use x="646.857511" y="923.893314" fill="#ffffff" stroke="#ffffff" xlink:href="#b"/>
</g>
<g clip-path="url(#a)">
<use x="436.154739" y="923.893314" fill="#ffffff" stroke="#ffffff" xlink:href="#b"/>
</g>
<g clip-path="url(#a)">
<use x="494.348838" y="750.867215" fill="#ffffff" stroke="#ffffff" xlink:href="#b"/>
</g>
<g clip-path="url(#a)">
<use x="474.281907" y="923.893314" fill="#ffffff" stroke="#ffffff" xlink:href="#b"/>
</g>
<g clip-path="url(#a)">
<use x="514.415769" y="923.893314" fill="#ffffff" stroke="#ffffff" xlink:href="#b"/>
</g>
<g clip-path="url(#a)">
<use x="225.451966" y="923.893314" fill="#ffffff" stroke="#ffffff" xlink:href="#b"/>
</g>
<g clip-path="url(#a)">
<use x="249.532283" y="923.893314" fill="#ffffff" stroke="#ffffff" xlink:href="#b"/>
</g>
<g clip-path="url(#a)">
<use x="275.619293" y="923.893314" fill="#ffffff" stroke="#ffffff" xlink:href="#b"/>
</g>
<g clip-path="url(#a)">
<use x="303.712996" y="923.893314" fill="#ffffff" stroke="#ffffff" xlink:href="#b"/>
</g>
<g clip-path="url(#a)">
<use x="349.866937" y="750.867215" fill="#ffffff" stroke="#ffffff" xlink:href="#b"/>
</g>
<g clip-path="url(#a)">
<use x="333.813392" y="923.893314" fill="#ffffff" stroke="#ffffff" xlink:href="#b"/>
</g>
<g clip-path="url(#a)">
<use x="365.920481" y="923.893314" fill="#ffffff" stroke="#ffffff" xlink:href="#b"/>
</g>
<g clip-path="url(#a)">
<use x="99.030303" y="923.893314" fill="#ffffff" stroke="#ffffff" xlink:href="#b"/>
</g>
<g clip-path="url(#a)">
<use x="105.050382" y="923.893314" fill="#ffffff" stroke="#ffffff" xlink:href="#b"/>
</g>
<g clip-path="url(#a)">
<use x="113.077155" y="923.893314" fill="#ffffff" stroke="#ffffff" xlink:href="#b"/>
</g>
<g clip-path="url(#a)">
<use x="129.130699" y="750.867215" fill="#ffffff" stroke="#ffffff" xlink:href="#b"/>
</g>
<g clip-path="url(#a)">
<use x="123.11062" y="923.893314" fill="#ffffff" stroke="#ffffff" xlink:href="#b"/>
</g>
<g clip-path="url(#a)">
<use x="135.150778" y="923.893314" fill="#ffffff" stroke="#ffffff" xlink:href="#b"/>
</g>
<g clip-path="url(#a)">
<use x="695.018145" y="923.893314" fill="#ffffff" stroke="#ffffff" xlink:href="#b"/>
</g>
<g clip-path="url(#a)">
<use x="1152.544165" y="923.893314" fill="#ffffff" stroke="#ffffff" xlink:href="#b"/>
</g>
<g clip-path="url(#a)">
<use x="1429.467809" y="923.893314" fill="#ffffff" stroke="#ffffff" xlink:href="#b"/>
</g>
<g clip-path="url(#a)">
<use x="2079.636364" y="923.893314" fill="#ffffff" stroke="#ffffff" xlink:href="#b"/>
</g>
<g clip-path="url(#a)">
<defs>
<path id="s" d="m54.891 33.016v-33.016h-8.9844v32.719q0 7.7656-3.0312 11.609-3.0312 3.8594-9.0781 3.8594-7.2812 0-11.484-4.6406-4.2031-4.625-4.2031-12.641v-30.906h-9.0312v75.984h9.0312v-29.797q3.2344 4.9375 7.5938 7.375 4.375 2.4375 10.094 2.4375 9.4219 0 14.25-5.8281 4.8438-5.8281 4.8438-17.156z"/>
</defs>
<g transform="translate(86.287 1097.3) scale(.1 -.1)">
<use xlink:href="#k"/>
<use x="61.083984" xlink:href="#s"/>
<use x="124.462891" xlink:href="#c"/>
<use x="185.986328" xlink:href="#d"/>
<use x="213.769531" xlink:href="#g"/>
</g>
</g>
<g clip-path="url(#a)">
<defs>
<path id="n" d="m44.281 53.078v-8.5q-3.7969 1.9531-7.9062 2.9219-4.0938 0.98438-8.5 0.98438-6.6875 0-10.031-2.0469t-3.3438-6.1562q0-3.125 2.3906-4.9062t9.625-3.3906l3.0781-0.6875q9.5625-2.0469 13.594-5.7812t4.0312-10.422q0-7.625-6.0312-12.078-6.0312-4.4375-16.578-4.4375-4.3906 0-9.1562 0.85938t-10.031 2.5625v9.2812q4.9844-2.5938 9.8125-3.8906 4.8281-1.2812 9.5781-1.2812 6.3438 0 9.75 2.1719 3.4219 2.1719 3.4219 6.125 0 3.6562-2.4688 5.6094-2.4531 1.9531-10.812 3.7656l-3.125 0.73438q-8.3438 1.75-12.062 5.3906-3.7031 3.6406-3.7031 9.9844 0 7.7188 5.4688 11.906 5.4688 4.2031 15.531 4.2031 4.9688 0 9.3594-0.73438 4.4062-0.71875 8.1094-2.1875z"/>
<path id="w" d="m8.5 21.578v33.109h8.9844v-32.766q0-7.7656 3.0156-11.656 3.0312-3.875 9.0938-3.875 7.2656 0 11.484 4.6406 4.2344 4.6406 4.2344 12.656v31h8.9844v-54.688h-8.9844v8.4062q-3.2656-4.9844-7.5938-7.4062-4.3125-2.4219-10.031-2.4219-9.4219 0-14.312 5.8594-4.875 5.8594-4.875 17.141z"/>
<path id="t" d="m48.781 52.594v-8.4062q-3.8125 2.1094-7.6406 3.1562t-7.7344 1.0469q-8.75 0-13.594-5.5469-4.8281-5.5312-4.8281-15.547t4.8281-15.562q4.8438-5.5312 13.594-5.5312 3.9062 0 7.7344 1.0469t7.6406 3.1562v-8.3125q-3.7656-1.75-7.7969-2.625-4.0156-0.89062-8.5625-0.89062-12.359 0-19.641 7.7656-7.2656 7.7656-7.2656 20.953 0 13.375 7.3438 21.031 7.3594 7.6719 20.156 7.6719 4.1406 0 8.0938-0.85938 3.9531-0.84375 7.6719-2.5469z"/>
<path id="aw" d="m37.109 75.984v-7.4844h-8.5938q-4.8281 0-6.7188-1.9531-1.875-1.9531-1.875-7.0312v-4.8281h14.797v-6.9844h-14.797v-47.703h-9.0312v47.703h-8.5938v6.9844h8.5938v3.8125q0 9.125 4.25 13.297 4.25 4.1875 13.469 4.1875z"/>
</defs>
<g transform="translate(79.175 1097.3) scale(.1 -.1)">
<use xlink:href="#n"/>
<use x="52.099609" xlink:href="#w"/>
<use x="115.478516" xlink:href="#t"/>
<use x="170.458984" xlink:href="#t"/>
<use x="225.439453" xlink:href="#c"/>
<use x="286.962891" xlink:href="#n"/>
<use x="339.0625" xlink:href="#n"/>
<use x="391.162109" xlink:href="#aw"/>
<use x="426.367188" xlink:href="#w"/>
<use x="489.746094" xlink:href="#i"/>
</g>
</g>
<g clip-path="url(#a)">
<defs>
<path id="z" d="m18.109 8.2031v-29h-9.0312v75.484h9.0312v-8.2969q2.8438 4.875 7.1562 7.2344 4.3281 2.375 10.328 2.375 9.9688 0 16.188-7.9062 6.2344-7.9062 6.2344-20.797t-6.2344-20.812q-6.2188-7.9062-16.188-7.9062-6 0-10.328 2.375-4.3125 2.375-7.1562 7.25zm30.578 19.094q0 9.9062-4.0781 15.547t-11.203 5.6406q-7.1406 0-11.219-5.6406t-4.0781-15.547 4.0781-15.547 11.219-5.6406q7.125 0 11.203 5.6406t4.0781 15.547z"/>
<path id="m" d="m18.312 70.219v-15.531h18.5v-6.9844h-18.5v-29.688q0-6.6875 1.8281-8.5938t7.4531-1.9062h9.2188v-7.5156h-9.2188q-10.406 0-14.359 3.875-3.9531 3.8906-3.9531 14.141v29.688h-6.5938v6.9844h6.5938v15.531z"/>
</defs>
<g transform="translate(84.186 1097.3) scale(.1 -.1)">
<use xlink:href="#z"/>
<use x="63.476562" xlink:href="#h"/>
<use x="124.755859" xlink:href="#g"/>
<use x="165.869141" xlink:href="#m"/>
<use x="205.078125" xlink:href="#f"/>
<use x="268.457031" xlink:href="#c"/>
<use x="329.980469" xlink:href="#g"/>
<use x="371.09375" xlink:href="#n"/>
<use x="423.193359" xlink:href="#s"/>
<use x="486.572266" xlink:href="#d"/>
<use x="514.355469" xlink:href="#z"/>
</g>
</g>
<g clip-path="url(#a)">
<g transform="translate(118.55 1097.3) scale(.1 -.1)">
<use xlink:href="#d"/>
<use x="27.783203" xlink:href="#f"/>
</g>
</g>
<g clip-path="url(#a)">
<defs>
<path id="ao" d="m2.9844 54.688h9.5156l17.094-45.891 17.094 45.891h9.5156l-20.516-54.688h-12.203z"/>
<path id="r" d="m30.609 48.391q-7.2188 0-11.422-5.6406t-4.2031-15.453 4.1719-15.453q4.1875-5.6406 11.453-5.6406 7.1875 0 11.375 5.6562 4.2031 5.6719 4.2031 15.438 0 9.7188-4.2031 15.406-4.1875 5.6875-11.375 5.6875zm0 7.6094q11.719 0 18.406-7.625 6.7031-7.6094 6.7031-21.078 0-13.422-6.7031-21.078-6.6875-7.6406-18.406-7.6406-11.766 0-18.438 7.6406-6.6562 7.6562-6.6562 21.078 0 13.469 6.6562 21.078 6.6719 7.625 18.438 7.625z"/>
</defs>
<g transform="translate(111.08 1097.3) scale(.1 -.1)">
<use xlink:href="#m"/>
<use x="39.208984" xlink:href="#c"/>
<use x="100.732422" xlink:href="#i"/>
<use x="128.515625" xlink:href="#c"/>
<use x="190.039062" xlink:href="#ao"/>
<use x="249.21875" xlink:href="#d"/>
<use x="277.001953" xlink:href="#n"/>
<use x="329.101562" xlink:href="#d"/>
<use x="356.884766" xlink:href="#r"/>
<use x="418.066406" xlink:href="#f"/>
</g>
</g>
<g clip-path="url(#a)">
<g transform="translate(145.2 1097.3) scale(.1 -.1)">
<use xlink:href="#d"/>
<use x="27.783203" xlink:href="#n"/>
</g>
</g>
<g clip-path="url(#a)">
<g transform="translate(155.95 1097.3) scale(.1 -.1)">
<use xlink:href="#r"/>
<use x="61.181641" xlink:href="#f"/>
<use x="124.560547" xlink:href="#c"/>
</g>
</g>
<g clip-path="url(#a)">
<g transform="translate(178.75 1097.3) scale(.1 -.1)">
<use xlink:href="#d"/>
<use x="27.783203" xlink:href="#f"/>
</g>
</g>
<g clip-path="url(#a)">
<defs>
<path id="aj" d="m4.2031 54.688h8.9844l11.234-42.672 11.172 42.672h10.594l11.234-42.672 11.188 42.672h8.9844l-14.312-54.688h-10.594l-11.766 44.828-11.812-44.828h-10.609z"/>
</defs>
<g transform="translate(188.81 1097.3) scale(.1 -.1)">
<use xlink:href="#aj"/>
<use x="81.787109" xlink:href="#s"/>
<use x="145.166016" xlink:href="#d"/>
<use x="172.949219" xlink:href="#t"/>
<use x="227.929688" xlink:href="#s"/>
</g>
</g>
<g clip-path="url(#a)">
<defs>
<path id="av" d="m9.0781 75.984h9.0312v-44.875l26.812 23.578h11.469l-29-25.578 30.234-29.109h-11.719l-27.797 26.703v-26.703h-9.0312z"/>
</defs>
<g transform="translate(209.71 1097.3) scale(.1 -.1)">
<use xlink:href="#v"/>
<use x="63.476562" xlink:href="#r"/>
<use x="124.658203" xlink:href="#g"/>
<use x="165.771484" xlink:href="#av"/>
<use x="223.681641" xlink:href="#d"/>
<use x="251.464844" xlink:href="#f"/>
</g>
</g>
<g clip-path="url(#a)">
<g transform="translate(230.51 1097.3) scale(.1 -.1)">
<use xlink:href="#aw"/>
<use x="35.205078" xlink:href="#r"/>
<use x="96.386719" xlink:href="#t"/>
<use x="151.367188" xlink:href="#w"/>
<use x="214.746094" xlink:href="#n"/>
<use x="266.845703" xlink:href="#c"/>
<use x="328.369141" xlink:href="#n"/>
</g>
</g>
<g clip-path="url(#a)">
<g transform="translate(269.39 1097.3) scale(.1 -.1)">
<use xlink:href="#r"/>
<use x="61.181641" xlink:href="#f"/>
</g>
</g>
<g clip-path="url(#a)">
<defs>
<path id="ak" d="m45.406 27.984q0 9.7656-4.0312 15.125-4.0156 5.375-11.297 5.375-7.2188 0-11.25-5.375-4.0312-5.3594-4.0312-15.125 0-9.7188 4.0312-15.094t11.25-5.375q7.2812 0 11.297 5.375 4.0312 5.375 4.0312 15.094zm8.9844-21.203q0-13.953-6.2031-20.766-6.1875-6.8125-18.984-6.8125-4.7344 0-8.9375 0.70312t-8.1562 2.1719v8.7344q3.9531-2.1406 7.8125-3.1562 3.8594-1.0312 7.8594-1.0312 8.8438 0 13.234 4.6094t4.3906 13.938v4.4531q-2.7812-4.8438-7.125-7.2344t-10.406-2.3906q-10.047 0-16.203 7.6562-6.1562 7.6719-6.1562 20.328 0 12.688 6.1562 20.344 6.1562 7.6719 16.203 7.6719 6.0625 0 10.406-2.3906t7.125-7.2188v8.2969h8.9844z"/>
</defs>
<g transform="translate(286.49 1097.3) scale(.1 -.1)">
<use xlink:href="#aj"/>
<use x="81.787109" xlink:href="#g"/>
<use x="122.900391" xlink:href="#d"/>
<use x="150.683594" xlink:href="#m"/>
<use x="189.892578" xlink:href="#d"/>
<use x="217.675781" xlink:href="#f"/>
<use x="281.054688" xlink:href="#ak"/>
</g>
</g>
<g clip-path="url(#a)">
<g transform="translate(325.61 1097.3) scale(.1 -.1)">
<use xlink:href="#m"/>
<use x="39.208984" xlink:href="#s"/>
<use x="102.587891" xlink:href="#c"/>
</g>
</g>
<g clip-path="url(#a)">
<g transform="translate(349.38 1097.3) scale(.1 -.1)">
<use xlink:href="#n"/>
<use x="52.099609" xlink:href="#t"/>
<use x="107.080078" xlink:href="#g"/>
<use x="148.193359" xlink:href="#d"/>
<use x="175.976562" xlink:href="#z"/>
<use x="239.453125" xlink:href="#m"/>
<use x="278.662109" xlink:href="#n"/>
</g>
</g>
<g clip-path="url(#a)">
<g transform="translate(386.92 1097.3) scale(.1 -.1)">
<use xlink:href="#aj"/>
<use x="81.787109" xlink:href="#s"/>
<use x="145.166016" xlink:href="#d"/>
<use x="172.949219" xlink:href="#i"/>
<use x="200.732422" xlink:href="#c"/>
</g>
</g>
<g clip-path="url(#a)">
<g transform="translate(409.79 1097.3) scale(.1 -.1)">
<use xlink:href="#v"/>
<use x="63.476562" xlink:href="#t"/>
<use x="118.457031" xlink:href="#s"/>
<use x="181.835938" xlink:href="#i"/>
<use x="209.619141" xlink:href="#h"/>
<use x="270.898438" xlink:href="#l"/>
<use x="368.310547" xlink:href="#l"/>
<use x="465.722656" xlink:href="#c"/>
</g>
</g>
<g clip-path="url(#a)">
<defs>
<path id="ay" d="m54.891 54.688-19.781-26.609 20.797-28.078h-10.594l-15.922 21.484-15.906-21.484h-10.609l21.25 28.609-19.438 26.078h10.594l14.5-19.484 14.5 19.484z"/>
</defs>
<g transform="translate(450.11 1097.3) scale(.1 -.1)">
<use xlink:href="#c"/>
<use x="59.773438" xlink:href="#ay"/>
<use x="115.828125" xlink:href="#c"/>
<use x="177.351562" xlink:href="#t"/>
<use x="232.332031" xlink:href="#w"/>
<use x="295.710938" xlink:href="#m"/>
<use x="334.919922" xlink:href="#d"/>
<use x="362.703125" xlink:href="#ao"/>
<use x="421.882812" xlink:href="#c"/>
</g>
</g>
<g clip-path="url(#a)">
<defs>
<path id="aa" d="m45.406 46.391v29.594h8.9844v-75.984h-8.9844v8.2031q-2.8281-4.875-7.1562-7.25-4.3125-2.375-10.375-2.375-9.9062 0-16.141 7.9062-6.2188 7.9219-6.2188 20.812t6.2188 20.797q6.2344 7.9062 16.141 7.9062 6.0625 0 10.375-2.375 4.3281-2.3594 7.1562-7.2344zm-30.609-19.094q0-9.9062 4.0781-15.547t11.203-5.6406 11.219 5.6406q4.1094 5.6406 4.1094 15.547t-4.1094 15.547q-4.0938 5.6406-11.219 5.6406t-11.203-5.6406-4.0781-15.547z"/>
</defs>
<g transform="translate(491.47 1097.3) scale(.1 -.1)">
<use xlink:href="#z"/>
<use x="63.476562" xlink:href="#g"/>
<use x="102.339844" xlink:href="#r"/>
<use x="163.521484" xlink:href="#aa"/>
<use x="226.998047" xlink:href="#w"/>
<use x="290.376953" xlink:href="#t"/>
<use x="345.357422" xlink:href="#c"/>
<use x="406.880859" xlink:href="#n"/>
</g>
</g>
<g clip-path="url(#a)">
<g transform="translate(547.15 1097.3) scale(.1 -.1)">
<use xlink:href="#h"/>
<use x="61.279297" xlink:href="#f"/>
<use x="124.658203" xlink:href="#aa"/>
</g>
</g>
<g clip-path="url(#a)">
<defs>
<path id="au" d="m32.172-5.0781q-3.7969-9.7656-7.4219-12.734-3.6094-2.9844-9.6562-2.9844h-7.1875v7.5156h5.2812q3.7031 0 5.75 1.7656 2.0625 1.75 4.5469 8.2969l1.6094 4.0938-22.109 53.812h9.5156l17.094-42.766 17.094 42.766h9.5156z"/>
</defs>
<g transform="translate(570.06 1097.3) scale(.1 -.1)">
<use xlink:href="#r"/>
<use x="61.181641" xlink:href="#t"/>
<use x="116.162109" xlink:href="#t"/>
<use x="171.142578" xlink:href="#h"/>
<use x="232.421875" xlink:href="#n"/>
<use x="284.521484" xlink:href="#d"/>
<use x="312.304688" xlink:href="#r"/>
<use x="373.486328" xlink:href="#f"/>
<use x="436.865234" xlink:href="#h"/>
<use x="498.144531" xlink:href="#i"/>
<use x="525.927734" xlink:href="#i"/>
<use x="553.710938" xlink:href="#au"/>
</g>
</g>
<g clip-path="url(#a)">
<g transform="translate(629.96 1097.3) scale(.1 -.1)">
<use xlink:href="#aa"/>
<use x="63.476562" xlink:href="#d"/>
<use x="91.259766" xlink:href="#g"/>
<use x="130.123047" xlink:href="#c"/>
<use x="191.646484" xlink:href="#t"/>
<use x="246.626953" xlink:href="#m"/>
<use x="285.835938" xlink:href="#n"/>
</g>
</g>
<g clip-path="url(#a)">
<defs>
<path id="ax" d="m11.719 51.703h10.297v-12.391h-10.297zm0-39.297h10.297v-8.4062l-8-15.625h-6.2969l4 15.625z"/>
</defs>
<g transform="translate(693.33 1097.3) scale(.1 -.1)">
<use xlink:href="#ax"/>
</g>
</g>
<g clip-path="url(#a)">
<g transform="translate(734.02 1097.3) scale(.1 -.1)">
<use xlink:href="#m"/>
<use x="39.208984" xlink:href="#s"/>
<use x="102.587891" xlink:href="#c"/>
<use x="164.111328" xlink:href="#au"/>
</g>
</g>
<g clip-path="url(#a)">
<g transform="translate(785.09 1097.3) scale(.1 -.1)">
<use xlink:href="#s"/>
<use x="63.378906" xlink:href="#h"/>
<use x="124.658203" xlink:href="#ao"/>
<use x="183.837891" xlink:href="#c"/>
</g>
</g>
<g clip-path="url(#a)">
<g transform="translate(833.37 1097.3) scale(.1 -.1)">
<use xlink:href="#aj"/>
<use x="81.787109" xlink:href="#r"/>
<use x="142.96875" xlink:href="#g"/>
<use x="184.082031" xlink:href="#av"/>
<use x="238.367188" xlink:href="#c"/>
<use x="299.890625" xlink:href="#aa"/>
</g>
</g>
<g clip-path="url(#a)">
<g transform="translate(886.2 1097.3) scale(.1 -.1)">
<use xlink:href="#m"/>
<use x="39.208984" xlink:href="#r"/>
<use x="100.390625" xlink:href="#ak"/>
<use x="163.867188" xlink:href="#c"/>
<use x="225.390625" xlink:href="#m"/>
<use x="264.599609" xlink:href="#s"/>
<use x="327.978516" xlink:href="#c"/>
<use x="389.501953" xlink:href="#g"/>
</g>
</g>
<g clip-path="url(#a)">
<g transform="translate(959.69 1097.3) scale(.1 -.1)">
<use xlink:href="#r"/>
<use x="61.181641" xlink:href="#f"/>
</g>
</g>
<g clip-path="url(#a)">
<g transform="translate(1010.1 1097.3) scale(.1 -.1)">
<use xlink:href="#v"/>
<use x="63.476562" xlink:href="#z"/>
<use x="126.953125" xlink:href="#r"/>
<use x="188.134766" xlink:href="#g"/>
<use x="229.248047" xlink:href="#m"/>
<use x="268.457031" xlink:href="#n"/>
</g>
</g>
<g clip-path="url(#a)">
<g transform="translate(1074.9 1097.3) scale(.1 -.1)">
<use xlink:href="#aq"/>
<use x="74.804688" xlink:href="#d"/>
<use x="102.587891" xlink:href="#ak"/>
<use x="166.064453" xlink:href="#s"/>
<use x="229.443359" xlink:href="#m"/>
</g>
</g>
<g clip-path="url(#a)">
<defs>
<path id="at" d="m11.719 12.406h10.297v-8.4062l-8-15.625h-6.2969l4 15.625z"/>
</defs>
<g transform="translate(1151 1097.3) scale(.1 -.1)">
<use xlink:href="#at"/>
</g>
</g>
<g clip-path="url(#a)">
<g transform="translate(1209.5 1097.3) scale(.1 -.1)">
<use xlink:href="#k"/>
<use x="61.083984" xlink:href="#s"/>
<use x="124.462891" xlink:href="#c"/>
</g>
</g>
<g clip-path="url(#a)">
<defs>
<path id="ap" d="m3.3281 72.906h9.9531l15.328-61.625 15.281 61.625h11.094l15.328-61.625 15.281 61.625h10.016l-18.312-72.906h-12.406l-15.375 63.281-15.531-63.281h-12.406z"/>
</defs>
<g transform="translate(1274.7 1097.3) scale(.1 -.1)">
<use xlink:href="#ap"/>
<use x="93.001953" xlink:href="#c"/>
<use x="154.525391" xlink:href="#n"/>
<use x="206.625" xlink:href="#m"/>
</g>
</g>
<g clip-path="url(#a)">
<g transform="translate(1344.7 1097.3) scale(.1 -.1)">
<use xlink:href="#ap"/>
<use x="96.626953" xlink:href="#d"/>
<use x="124.410156" xlink:href="#f"/>
<use x="187.789062" xlink:href="#ak"/>
</g>
</g>
<g clip-path="url(#a)">
<g transform="translate(1427.9 1097.3) scale(.1 -.1)">
<use xlink:href="#at"/>
</g>
</g>
<g clip-path="url(#a)">
<g transform="translate(1494.3 1097.3) scale(.1 -.1)">
<use xlink:href="#h"/>
<use x="61.279297" xlink:href="#f"/>
<use x="124.658203" xlink:href="#aa"/>
</g>
</g>
<g clip-path="url(#a)">
<g transform="translate(1564 1097.3) scale(.1 -.1)">
<use xlink:href="#v"/>
<use x="63.476562" xlink:href="#m"/>
<use x="102.685547" xlink:href="#w"/>
<use x="166.064453" xlink:href="#aa"/>
<use x="229.541016" xlink:href="#d"/>
<use x="257.324219" xlink:href="#r"/>
</g>
</g>
<g clip-path="url(#a)">
<defs>
<path id="ae" d="m33.016 40.375q-6.6406 0-10.531-4.5469-3.875-4.5312-3.875-12.438 0-7.8594 3.875-12.438 3.8906-4.5625 10.531-4.5625t10.516 4.5625q3.875 4.5781 3.875 12.438 0 7.9062-3.875 12.438-3.875 4.5469-10.516 4.5469zm19.578 30.922v-8.9844q-3.7188 1.75-7.5 2.6719-3.7812 0.9375-7.5 0.9375-9.7656 0-14.922-6.5938-5.1406-6.5938-5.875-19.922 2.875 4.25 7.2188 6.5156 4.3594 2.2656 9.5781 2.2656 10.984 0 17.359-6.6719 6.375-6.6562 6.375-18.125 0-11.234-6.6406-18.031-6.6406-6.7812-17.672-6.7812-12.656 0-19.344 9.6875-6.6875 9.7031-6.6875 28.109 0 17.281 8.2031 27.562t22.016 10.281q3.7188 0 7.5-0.73438t7.8906-2.1875z"/>
<path id="y" d="m31.781 66.406q-7.6094 0-11.453-7.5-3.8281-7.4844-3.8281-22.531 0-14.984 3.8281-22.484 3.8438-7.5 11.453-7.5 7.6719 0 11.5 7.5 3.8438 7.5 3.8438 22.484 0 15.047-3.8438 22.531-3.8281 7.5-11.5 7.5zm0 7.8125q12.266 0 18.734-9.7031 6.4688-9.6875 6.4688-28.141 0-18.406-6.4688-28.109-6.4688-9.6875-18.734-9.6875-12.25 0-18.719 9.6875-6.4688 9.7031-6.4688 28.109 0 18.453 6.4688 28.141 6.4688 9.7031 18.719 9.7031z"/>
</defs>
<g transform="translate(1651.9 1097.3) scale(.1 -.1)">
<use xlink:href="#ae"/>
<use x="63.623047" xlink:href="#y"/>
</g>
</g>
<g clip-path="url(#a)">
<g transform="translate(1732.3 1097.3) scale(.1 -.1)">
<use xlink:href="#r"/>
<use x="61.181641" xlink:href="#f"/>
</g>
</g>
<g clip-path="url(#a)">
<g transform="translate(1812.6 1097.3) scale(.1 -.1)">
<use xlink:href="#m"/>
<use x="39.208984" xlink:href="#s"/>
<use x="102.587891" xlink:href="#c"/>
</g>
</g>
<g clip-path="url(#a)">
<g transform="translate(1887.9 1097.3) scale(.1 -.1)">
<use xlink:href="#v"/>
<use x="63.476562" xlink:href="#w"/>
<use x="126.855469" xlink:href="#f"/>
<use x="190.234375" xlink:href="#n"/>
<use x="242.333984" xlink:href="#c"/>
<use x="303.857422" xlink:href="#m"/>
</g>
</g>
<g clip-path="url(#a)">
<g transform="translate(1979.6 1097.3) scale(.1 -.1)">
<use xlink:href="#v"/>
<use x="63.476562" xlink:href="#m"/>
<use x="102.685547" xlink:href="#g"/>
<use x="143.798828" xlink:href="#d"/>
<use x="171.582031" xlink:href="#z"/>
</g>
</g>
<g clip-path="url(#a)">
<defs>
<path id="j" d="m10.688 12.406h10.312v-12.406h-10.312z"/>
</defs>
<g transform="translate(2078 1097.3) scale(.1 -.1)">
<use xlink:href="#j"/>
</g>
</g>
<g clip-path="url(#a)">
<defs>
<path id="e" d="m12.406 8.2969h16.109v55.625l-17.531-3.5156v8.9844l17.438 3.5156h9.8594v-64.609h16.109v-8.2969h-41.984z"/>
</defs>
<g transform="translate(608.26 54.881) scale(.1 -.1)">
<use xlink:href="#e"/>
<use x="63.623047" xlink:href="#j"/>
<use x="95.410156" xlink:href="#e"/>
</g>
</g>
<g clip-path="url(#a)">
<defs>
<path id="p" d="m19.188 8.2969h34.422v-8.2969h-46.281v8.2969q5.6094 5.8125 15.297 15.594 9.7031 9.7969 12.188 12.641 4.7344 5.3125 6.6094 9 1.8906 3.6875 1.8906 7.25 0 5.8125-4.0781 9.4688-4.0781 3.6719-10.625 3.6719-4.6406 0-9.7969-1.6094-5.1406-1.6094-11-4.8906v9.9688q5.9531 2.3906 11.125 3.6094 5.1875 1.2188 9.4844 1.2188 11.328 0 18.062-5.6719 6.7344-5.6562 6.7344-15.125 0-4.5-1.6875-8.5312-1.6719-4.0156-6.125-9.4844-1.2188-1.4219-7.7656-8.1875-6.5312-6.7656-18.453-18.922z"/>
</defs>
<g transform="translate(203.85 230.2) scale(.1 -.1)">
<use xlink:href="#e"/>
<use x="63.623047" xlink:href="#j"/>
<use x="95.410156" xlink:href="#p"/>
</g>
</g>
<g clip-path="url(#a)">
<defs>
<path id="o" d="m40.578 39.312q7.0781-1.5156 11.047-6.3125 3.9844-4.7812 3.9844-11.812 0-10.781-7.4219-16.703-7.4219-5.9062-21.094-5.9062-4.5781 0-9.4375 0.90625t-10.031 2.7188v9.5156q4.0938-2.3906 8.9688-3.6094 4.8906-1.2188 10.219-1.2188 9.2656 0 14.125 3.6562t4.8594 10.641q0 6.4531-4.5156 10.078-4.5156 3.6406-12.562 3.6406h-8.5v8.1094h8.8906q7.2656 0 11.125 2.9062t3.8594 8.375q0 5.6094-3.9844 8.6094-3.9688 3.0156-11.391 3.0156-4.0625 0-8.7031-0.89062-4.6406-0.875-10.203-2.7188v8.7812q5.625 1.5625 10.531 2.3438t9.25 0.78125q11.234 0 17.766-5.1094 6.5469-5.0938 6.5469-13.781 0-6.0625-3.4688-10.234t-9.8594-5.7812z"/>
</defs>
<g transform="translate(933.87 579.69) scale(.1 -.1)">
<use xlink:href="#e"/>
<use x="63.623047" xlink:href="#j"/>
<use x="95.410156" xlink:href="#o"/>
</g>
</g>
<g clip-path="url(#a)">
<g transform="translate(737.23 926.65) scale(.1 -.1)">
<use xlink:href="#e"/>
<use x="63.623047" xlink:href="#j"/>
<use x="95.410156" xlink:href="#ae"/>
</g>
</g>
<g clip-path="url(#a)">
<defs>
<path id="ai" d="m8.2031 72.906h46.875v-4.2031l-26.469-68.703h-10.297l24.906 64.594h-35.016z"/>
</defs>
<g transform="translate(789.41 926.65) scale(.1 -.1)">
<use xlink:href="#e"/>
<use x="63.623047" xlink:href="#j"/>
<use x="95.410156" xlink:href="#ai"/>
</g>
</g>
<g clip-path="url(#a)">
<defs>
<path id="ad" d="m31.781 34.625q-7.0312 0-11.062-3.7656-4.0156-3.7656-4.0156-10.344 0-6.5938 4.0156-10.359 4.0312-3.7656 11.062-3.7656t11.078 3.7812q4.0625 3.7969 4.0625 10.344 0 6.5781-4.0312 10.344-4.0156 3.7656-11.109 3.7656zm-9.8594 4.1875q-6.3438 1.5625-9.8906 5.9062-3.5312 4.3594-3.5312 10.609 0 8.7344 6.2188 13.812 6.2344 5.0781 17.062 5.0781 10.891 0 17.094-5.0781t6.2031-13.812q0-6.25-3.5469-10.609-3.5312-4.3438-9.8281-5.9062 7.125-1.6562 11.094-6.5 3.9844-4.8281 3.9844-11.797 0-10.609-6.4688-16.281-6.4688-5.6562-18.531-5.6562-12.047 0-18.531 5.6562-6.4688 5.6719-6.4688 16.281 0 6.9688 4 11.797 4.0156 4.8438 11.141 6.5zm-3.6094 15.578q0-5.6562 3.5312-8.8281 3.5469-3.1719 9.9375-3.1719 6.3594 0 9.9375 3.1719 3.5938 3.1719 3.5938 8.8281 0 5.6719-3.5938 8.8438-3.5781 3.1719-9.9375 3.1719-6.3906 0-9.9375-3.1719-3.5312-3.1719-3.5312-8.8438z"/>
</defs>
<g transform="translate(843.59 926.65) scale(.1 -.1)">
<use xlink:href="#e"/>
<use x="63.623047" xlink:href="#j"/>
<use x="95.410156" xlink:href="#ad"/>
</g>
</g>
<g clip-path="url(#a)">
<defs>
<path id="ac" d="m10.984 1.5156v8.9844q3.7188-1.7656 7.5156-2.6875 3.8125-0.92188 7.4844-0.92188 9.7656 0 14.906 6.5625 5.1562 6.5625 5.8906 19.953-2.8281-4.2031-7.1875-6.4531-4.3438-2.25-9.6094-2.25-10.938 0-17.312 6.6094-6.375 6.625-6.375 18.109 0 11.219 6.6406 18 6.6406 6.7969 17.672 6.7969 12.656 0 19.312-9.7031 6.6719-9.6875 6.6719-28.141 0-17.234-8.1875-27.516-8.1719-10.281-21.984-10.281-3.7188 0-7.5312 0.73438-3.7969 0.73438-7.9062 2.2031zm19.625 30.906q6.6406 0 10.516 4.5312 3.8906 4.5469 3.8906 12.469 0 7.8594-3.8906 12.422-3.875 4.5625-10.516 4.5625t-10.516-4.5625-3.875-12.422q0-7.9219 3.875-12.469 3.875-4.5312 10.516-4.5312z"/>
</defs>
<g transform="translate(899.78 926.65) scale(.1 -.1)">
<use xlink:href="#e"/>
<use x="63.623047" xlink:href="#j"/>
<use x="95.410156" xlink:href="#ac"/>
</g>
</g>
<g clip-path="url(#a)">
<g transform="translate(1396.2 753.63) scale(.1 -.1)">
<use xlink:href="#e"/>
<use x="63.623047" xlink:href="#j"/>
<use x="95.410156" xlink:href="#e"/>
<use x="159.033203" xlink:href="#y"/>
</g>
</g>
<g clip-path="url(#a)">
<g transform="translate(954.79 926.65) scale(.1 -.1)">
<use xlink:href="#e"/>
<use x="63.623047" xlink:href="#j"/>
<use x="95.410156" xlink:href="#e"/>
<use x="159.033203" xlink:href="#e"/>
</g>
</g>
<g clip-path="url(#a)">
<g transform="translate(1046.1 926.65) scale(.1 -.1)">
<use xlink:href="#e"/>
<use x="63.623047" xlink:href="#j"/>
<use x="95.410156" xlink:href="#e"/>
<use x="159.033203" xlink:href="#p"/>
</g>
</g>
<g clip-path="url(#a)">
<g transform="translate(1276.5 926.65) scale(.1 -.1)">
<use xlink:href="#e"/>
<use x="63.623047" xlink:href="#j"/>
<use x="95.410156" xlink:href="#e"/>
<use x="159.033203" xlink:href="#o"/>
</g>
</g>
<g clip-path="url(#a)">
<defs>
<path id="q" d="m37.797 64.312-24.906-38.922h24.906zm-2.5938 8.5938h12.406v-47.516h10.406v-8.2031h-10.406v-17.188h-9.8125v17.188h-32.906v9.5156z"/>
</defs>
<g transform="translate(1492.6 926.65) scale(.1 -.1)">
<use xlink:href="#e"/>
<use x="63.623047" xlink:href="#j"/>
<use x="95.410156" xlink:href="#e"/>
<use x="159.033203" xlink:href="#q"/>
</g>
</g>
<g clip-path="url(#a)">
<defs>
<path id="af" d="m10.797 72.906h38.719v-8.3125h-29.688v-17.859q2.1406 0.73438 4.2812 1.0938 2.1562 0.35938 4.3125 0.35938 12.203 0 19.328-6.6875 7.1406-6.6875 7.1406-18.109 0-11.766-7.3281-18.297-7.3281-6.5156-20.656-6.5156-4.5938 0-9.3594 0.78125-4.75 0.78125-9.8281 2.3438v9.9219q4.3906-2.3906 9.0781-3.5625t9.9062-1.1719q8.4531 0 13.375 4.4375 4.9375 4.4375 4.9375 12.062 0 7.6094-4.9375 12.047-4.9219 4.4531-13.375 4.4531-3.9531 0-7.8906-0.875-3.9219-0.875-8.0156-2.7344z"/>
</defs>
<g transform="translate(1771.2 926.65) scale(.1 -.1)">
<use xlink:href="#e"/>
<use x="63.623047" xlink:href="#j"/>
<use x="95.410156" xlink:href="#e"/>
<use x="159.033203" xlink:href="#af"/>
</g>
</g>
<g clip-path="url(#a)">
<g transform="translate(100.44 579.69) scale(.1 -.1)">
<use xlink:href="#e"/>
<use x="63.623047" xlink:href="#j"/>
<use x="95.410156" xlink:href="#e"/>
<use x="159.033203" xlink:href="#ad"/>
</g>
</g>
<g clip-path="url(#a)">
<g transform="translate(138.06 926.65) scale(.1 -.1)">
<use xlink:href="#e"/>
<use x="63.623047" xlink:href="#j"/>
<use x="95.410156" xlink:href="#e"/>
<use x="159.033203" xlink:href="#ac"/>
</g>
</g>
<g clip-path="url(#a)">
<g transform="translate(363.51 405.17) scale(.1 -.1)">
<use xlink:href="#e"/>
<use x="63.623047" xlink:href="#j"/>
<use x="95.410156" xlink:href="#p"/>
<use x="159.033203" xlink:href="#y"/>
</g>
</g>
<g clip-path="url(#a)">
<g transform="translate(154.12 926.65) scale(.1 -.1)">
<use xlink:href="#e"/>
<use x="63.623047" xlink:href="#j"/>
<use x="95.410156" xlink:href="#p"/>
<use x="159.033203" xlink:href="#e"/>
</g>
</g>
<g clip-path="url(#a)">
<g transform="translate(182.21 926.65) scale(.1 -.1)">
<use xlink:href="#e"/>
<use x="63.623047" xlink:href="#j"/>
<use x="95.410156" xlink:href="#p"/>
<use x="159.033203" xlink:href="#p"/>
</g>
</g>
<g clip-path="url(#a)">
<g transform="translate(269.7 579.69) scale(.1 -.1)">
<use xlink:href="#e"/>
<use x="63.623047" xlink:href="#j"/>
<use x="95.410156" xlink:href="#p"/>
<use x="159.033203" xlink:href="#o"/>
</g>
</g>
<g clip-path="url(#a)">
<g transform="translate(388.9 926.65) scale(.1 -.1)">
<use xlink:href="#e"/>
<use x="63.623047" xlink:href="#j"/>
<use x="95.410156" xlink:href="#p"/>
<use x="159.033203" xlink:href="#q"/>
</g>
</g>
<g clip-path="url(#a)">
<g transform="translate(454.12 579.69) scale(.1 -.1)">
<use xlink:href="#e"/>
<use x="63.623047" xlink:href="#j"/>
<use x="95.410156" xlink:href="#p"/>
<use x="159.033203" xlink:href="#af"/>
</g>
</g>
<g clip-path="url(#a)">
<g transform="translate(545.42 926.65) scale(.1 -.1)">
<use xlink:href="#e"/>
<use x="63.623047" xlink:href="#j"/>
<use x="95.410156" xlink:href="#p"/>
<use x="159.033203" xlink:href="#ae"/>
</g>
</g>
<g clip-path="url(#a)">
<g transform="translate(550.11 753.63) scale(.1 -.1)">
<use xlink:href="#e"/>
<use x="63.623047" xlink:href="#j"/>
<use x="95.410156" xlink:href="#p"/>
<use x="159.033203" xlink:href="#ai"/>
</g>
</g>
<g clip-path="url(#a)">
<g transform="translate(589.57 926.65) scale(.1 -.1)">
<use xlink:href="#e"/>
<use x="63.623047" xlink:href="#j"/>
<use x="95.410156" xlink:href="#p"/>
<use x="159.033203" xlink:href="#ad"/>
</g>
</g>
<g clip-path="url(#a)">
<g transform="translate(635.72 926.65) scale(.1 -.1)">
<use xlink:href="#e"/>
<use x="63.623047" xlink:href="#j"/>
<use x="95.410156" xlink:href="#p"/>
<use x="159.033203" xlink:href="#ac"/>
</g>
</g>
<g clip-path="url(#a)">
<g transform="translate(425.02 926.65) scale(.1 -.1)">
<use xlink:href="#e"/>
<use x="63.623047" xlink:href="#j"/>
<use x="95.410156" xlink:href="#o"/>
<use x="159.033203" xlink:href="#y"/>
</g>
</g>
<g clip-path="url(#a)">
<g transform="translate(483.22 753.63) scale(.1 -.1)">
<use xlink:href="#e"/>
<use x="63.623047" xlink:href="#j"/>
<use x="95.410156" xlink:href="#o"/>
<use x="159.033203" xlink:href="#e"/>
</g>
</g>
<g clip-path="url(#a)">
<g transform="translate(463.15 926.65) scale(.1 -.1)">
<use xlink:href="#e"/>
<use x="63.623047" xlink:href="#j"/>
<use x="95.410156" xlink:href="#o"/>
<use x="159.033203" xlink:href="#p"/>
</g>
</g>
<g clip-path="url(#a)">
<g transform="translate(503.28 926.65) scale(.1 -.1)">
<use xlink:href="#e"/>
<use x="63.623047" xlink:href="#j"/>
<use x="95.410156" xlink:href="#o"/>
<use x="159.033203" xlink:href="#o"/>
</g>
</g>
<g clip-path="url(#a)">
<g transform="translate(214.32 926.65) scale(.1 -.1)">
<use xlink:href="#e"/>
<use x="63.623047" xlink:href="#j"/>
<use x="95.410156" xlink:href="#o"/>
<use x="159.033203" xlink:href="#q"/>
</g>
</g>
<g clip-path="url(#a)">
<g transform="translate(238.4 926.65) scale(.1 -.1)">
<use xlink:href="#e"/>
<use x="63.623047" xlink:href="#j"/>
<use x="95.410156" xlink:href="#o"/>
<use x="159.033203" xlink:href="#af"/>
</g>
</g>
<g clip-path="url(#a)">
<g transform="translate(264.49 926.65) scale(.1 -.1)">
<use xlink:href="#e"/>
<use x="63.623047" xlink:href="#j"/>
<use x="95.410156" xlink:href="#o"/>
<use x="159.033203" xlink:href="#ae"/>
</g>
</g>
<g clip-path="url(#a)">
<g transform="translate(292.58 926.65) scale(.1 -.1)">
<use xlink:href="#e"/>
<use x="63.623047" xlink:href="#j"/>
<use x="95.410156" xlink:href="#o"/>
<use x="159.033203" xlink:href="#ai"/>
</g>
</g>
<g clip-path="url(#a)">
<g transform="translate(338.73 753.63) scale(.1 -.1)">
<use xlink:href="#e"/>
<use x="63.623047" xlink:href="#j"/>
<use x="95.410156" xlink:href="#o"/>
<use x="159.033203" xlink:href="#ad"/>
</g>
</g>
<g clip-path="url(#a)">
<g transform="translate(322.68 926.65) scale(.1 -.1)">
<use xlink:href="#e"/>
<use x="63.623047" xlink:href="#j"/>
<use x="95.410156" xlink:href="#o"/>
<use x="159.033203" xlink:href="#ac"/>
</g>
</g>
<g clip-path="url(#a)">
<g transform="translate(354.79 926.65) scale(.1 -.1)">
<use xlink:href="#e"/>
<use x="63.623047" xlink:href="#j"/>
<use x="95.410156" xlink:href="#q"/>
<use x="159.033203" xlink:href="#y"/>
</g>
</g>
<g clip-path="url(#a)">
<g transform="translate(87.897 926.65) scale(.1 -.1)">
<use xlink:href="#e"/>
<use x="63.623047" xlink:href="#j"/>
<use x="95.410156" xlink:href="#q"/>
<use x="159.033203" xlink:href="#e"/>
</g>
</g>
<g clip-path="url(#a)">
<g transform="translate(93.918 926.65) scale(.1 -.1)">
<use xlink:href="#e"/>
<use x="63.623047" xlink:href="#j"/>
<use x="95.410156" xlink:href="#q"/>
<use x="159.033203" xlink:href="#p"/>
</g>
</g>
<g clip-path="url(#a)">
<g transform="translate(101.94 926.65) scale(.1 -.1)">
<use xlink:href="#e"/>
<use x="63.623047" xlink:href="#j"/>
<use x="95.410156" xlink:href="#q"/>
<use x="159.033203" xlink:href="#o"/>
</g>
</g>
<g clip-path="url(#a)">
<g transform="translate(118 753.63) scale(.1 -.1)">
<use xlink:href="#e"/>
<use x="63.623047" xlink:href="#j"/>
<use x="95.410156" xlink:href="#q"/>
<use x="159.033203" xlink:href="#q"/>
</g>
</g>
<g clip-path="url(#a)">
<g transform="translate(111.98 926.65) scale(.1 -.1)">
<use xlink:href="#e"/>
<use x="63.623047" xlink:href="#j"/>
<use x="95.410156" xlink:href="#q"/>
<use x="159.033203" xlink:href="#af"/>
</g>
</g>
<g clip-path="url(#a)">
<g transform="translate(124.02 926.65) scale(.1 -.1)">
<use xlink:href="#e"/>
<use x="63.623047" xlink:href="#j"/>
<use x="95.410156" xlink:href="#q"/>
<use x="159.033203" xlink:href="#ae"/>
</g>
</g>
<g clip-path="url(#a)">
<g transform="translate(683.89 926.65) scale(.1 -.1)">
<use xlink:href="#e"/>
<use x="63.623047" xlink:href="#j"/>
<use x="95.410156" xlink:href="#q"/>
<use x="159.033203" xlink:href="#ai"/>
</g>
</g>
<g clip-path="url(#a)">
<g transform="translate(1141.4 926.65) scale(.1 -.1)">
<use xlink:href="#e"/>
<use x="63.623047" xlink:href="#j"/>
<use x="95.410156" xlink:href="#q"/>
<use x="159.033203" xlink:href="#ad"/>
</g>
</g>
<g clip-path="url(#a)">
<g transform="translate(1418.3 926.65) scale(.1 -.1)">
<use xlink:href="#e"/>
<use x="63.623047" xlink:href="#j"/>
<use x="95.410156" xlink:href="#q"/>
<use x="159.033203" xlink:href="#ac"/>
</g>
</g>
<g clip-path="url(#a)">
<g transform="translate(2068.5 926.65) scale(.1 -.1)">
<use xlink:href="#e"/>
<use x="63.623047" xlink:href="#j"/>
<use x="95.410156" xlink:href="#af"/>
<use x="159.033203" xlink:href="#y"/>
</g>
</g>
<defs>
<clipPath id="a">
<rect width="2178.7" height="1146.7"/>
</clipPath>
</defs>
</svg>
