<?xml version="1.0" encoding="UTF-8"?>
<!DOCTYPE svg  PUBLIC '-//W3C//DTD SVG 1.1//EN'  'http://www.w3.org/Graphics/SVG/1.1/DTD/svg11.dtd'>
<svg width="2128pt" height="1120pt" version="1.1" viewBox="0 0 2128 1120" xmlns="http://www.w3.org/2000/svg" xmlns:xlink="http://www.w3.org/1999/xlink">
<defs>
<style type="text/css">*{stroke-linecap:butt;stroke-linejoin:round;}</style>
</defs>
<path d="m0 1120h2128v-1120h-2128z" fill="#fff"/>
<g fill="none" stroke="#000">
<path d="m816.04 50.909-588.77 410.39" clip-path="url(#a)"/>
<path d="m816.04 50.909-220.46 410.39" clip-path="url(#a)"/>
<path d="m816.04 50.909 260.27 614.62" clip-path="url(#a)"/>
<path d="m816.04 50.909 658.99 205.45" clip-path="url(#a)"/>
<path d="m816.04 50.909-110.03 817.8" clip-path="url(#a)"/>
<path d="m227.27 461.29-123.7 204.24" clip-path="url(#a)"/>
<path d="m227.27 461.29-93.617 407.41" clip-path="url(#a)"/>
<path d="m227.27 461.29-79.256 407.41" clip-path="url(#a)"/>
<path d="m227.27 461.29-62.844 407.41" clip-path="url(#a)"/>
<path d="m227.27 461.29-1.8129 204.24" clip-path="url(#a)"/>
<path d="m227.27 461.29 122.02 204.24" clip-path="url(#a)"/>
<path d="m227.27 461.29 345.14 204.24" clip-path="url(#a)"/>
<path d="m227.27 461.29-105.93 407.41" clip-path="url(#a)"/>
<path d="m595.58 461.29 161.72 407.41" clip-path="url(#a)"/>
<path d="m595.58 461.29 300.2 204.24" clip-path="url(#a)"/>
<path d="m595.58 461.29-461.92 407.41" clip-path="url(#a)" stroke-dasharray="3.7,1.6"/>
<path d="m1076.3 665.53-31.798 203.17" clip-path="url(#a)"/>
<path d="m1076.3 665.53 31.798 203.17" clip-path="url(#a)"/>
<path d="m1475 256.36-267.43 409.17" clip-path="url(#a)"/>
<path d="m1475 256.36 267.43 204.93" clip-path="url(#a)"/>
<path d="m1207.6 665.53-33.849 203.17" clip-path="url(#a)"/>
<path d="m1207.6 665.53 33.849 203.17" clip-path="url(#a)"/>
<path d="m1742.5 461.29-321.17 204.24" clip-path="url(#a)"/>
<path d="m1742.5 461.29 32.368 407.41" clip-path="url(#a)"/>
<path d="m1742.5 461.29 288.8 407.41" clip-path="url(#a)"/>
<path d="m1421.3 665.53-110.1 203.17" clip-path="url(#a)"/>
<path d="m1421.3 665.53-1.3677 203.17" clip-path="url(#a)"/>
<path d="m1421.3 665.53 111.46 203.17" clip-path="url(#a)"/>
<path d="m1774.8 868.71-164.12 200.39" clip-path="url(#a)"/>
<path d="m1774.8 868.71-84.111 200.39" clip-path="url(#a)"/>
<path d="m1774.8 868.71-2.0515 200.39" clip-path="url(#a)"/>
<path d="m1774.8 868.71 82.059 200.39" clip-path="url(#a)"/>
<path d="m1774.8 868.71 168.22 200.39" clip-path="url(#a)"/>
<path d="m1311.2 868.71v200.39" clip-path="url(#a)"/>
<path d="m1419.9 868.71-36.927 200.39" clip-path="url(#a)"/>
<path d="m1419.9 868.71 36.927 200.39" clip-path="url(#a)"/>
<path d="m1532.8 868.71v200.39" clip-path="url(#a)"/>
<path d="m1173.8 868.71v200.39" clip-path="url(#a)"/>
<path d="m1241.5 868.71v200.39" clip-path="url(#a)"/>
<path d="m1044.5 868.71v200.39" clip-path="url(#a)"/>
<path d="m1108.1 868.71v200.39" clip-path="url(#a)"/>
<path d="m757.3 868.71v200.39" clip-path="url(#a)"/>
<path d="m895.78 665.53-85.136 203.17" clip-path="url(#a)"/>
<path d="m895.78 665.53-29.746 203.17" clip-path="url(#a)"/>
<path d="m895.78 665.53 27.695 203.17" clip-path="url(#a)"/>
<path d="m895.78 665.53 87.188 203.17" clip-path="url(#a)"/>
<path d="m810.64 868.71v200.39" clip-path="url(#a)"/>
<path d="m866.03 868.71v200.39" clip-path="url(#a)"/>
<path d="m923.47 868.71v200.39" clip-path="url(#a)"/>
<path d="m982.97 868.71v200.39" clip-path="url(#a)"/>
<path d="m103.57 665.53-6.8383 203.17" clip-path="url(#a)"/>
<path d="m103.57 665.53-0.68383 203.17" clip-path="url(#a)"/>
<path d="m103.57 665.53 7.5221 203.17" clip-path="url(#a)"/>
<path d="m133.65 868.71v200.39" clip-path="url(#a)"/>
<path d="m148.01 868.71v200.39" clip-path="url(#a)"/>
<path d="m164.43 868.71v200.39" clip-path="url(#a)"/>
<path d="m225.46 665.53-42.568 203.17" clip-path="url(#a)"/>
<path d="m225.46 665.53-22.053 203.17" clip-path="url(#a)"/>
<path d="m225.46 665.53 12.822 203.17" clip-path="url(#a)"/>
<path d="m225.46 665.53 51.8 203.17" clip-path="url(#a)"/>
<path d="m349.29 665.53-43.309 203.17" clip-path="url(#a)"/>
<path d="m349.29 665.53-12.537 203.17" clip-path="url(#a)"/>
<path d="m349.29 665.53 55.846 203.17" clip-path="url(#a)"/>
<path d="m572.41 665.53-92.06 203.17" clip-path="url(#a)"/>
<path d="m572.41 665.53-29.49 203.17" clip-path="url(#a)"/>
<path d="m572.41 665.53 84.367 203.17" clip-path="url(#a)"/>
<path d="m572.41 665.53 37.183 203.17" clip-path="url(#a)"/>
<path d="m480.35 868.71v200.39" clip-path="url(#a)"/>
<path d="m542.92 868.71-21.541 200.39" clip-path="url(#a)"/>
<path d="m542.92 868.71 21.541 200.39" clip-path="url(#a)"/>
<path d="m656.78 868.71v200.39" clip-path="url(#a)"/>
<path d="m305.98 868.71v200.39" clip-path="url(#a)"/>
<path d="m336.75 868.71v200.39" clip-path="url(#a)"/>
<path d="m405.13 868.71-35.559 200.39" clip-path="url(#a)"/>
<path d="m405.13 868.71-0.68383 200.39" clip-path="url(#a)"/>
<path d="m405.13 868.71 36.243 200.39" clip-path="url(#a)"/>
<path d="m182.89 868.71v200.39" clip-path="url(#a)"/>
<path d="m203.4 868.71v200.39" clip-path="url(#a)"/>
<path d="m238.28 868.71-12.309 200.39" clip-path="url(#a)"/>
<path d="m238.28 868.71 12.309 200.39" clip-path="url(#a)"/>
<path d="m277.26 868.71v200.39" clip-path="url(#a)"/>
<path d="m96.727 868.71v200.39" clip-path="url(#a)"/>
<path d="m102.88 868.71v200.39" clip-path="url(#a)"/>
<path d="m111.09 868.71v200.39" clip-path="url(#a)"/>
<path d="m121.35 868.71v200.39" clip-path="url(#a)"/>
<path d="m609.6 868.71v200.39" clip-path="url(#a)"/>
<path d="m706.02 868.71v200.39" clip-path="url(#a)"/>
<path d="m2031.3 868.71v200.39" clip-path="url(#a)"/>
</g>
<path d="m522.77 262.97 4.9356-3.4402q1.9689-1.3724 0.59654-3.3413l-4.4273-6.3518q-1.3724-1.9689-3.3413-0.59654l-4.9356 3.4402q-1.9689 1.3724-0.59654 3.3413l4.4273 6.3518q1.3724 1.9689 3.3413 0.59654z" clip-path="url(#a)" fill="#fff" stroke="#fff"/>
<g clip-path="url(#a)">
<defs>
<path id="ac" d="m9.8125 72.906h9.8594v-29.891h35.844v29.891h9.8594v-72.906h-9.8594v34.719h-35.844v-34.719h-9.8594z"/>
</defs>
<g transform="translate(520.45 259.63) rotate(-34.877) scale(.08 -.08)">
<use xlink:href="#ac"/>
</g>
</g>
<path d="m709.91 261.72 2.8472-5.2999q1.1358-2.1142-0.97844-3.25l-6.8206-3.6641q-2.1142-1.1358-3.25 0.97844l-2.8472 5.2999q-1.1358 2.1142 0.97844 3.25l6.8206 3.6641q2.1142 1.1358 3.25-0.97844z" clip-path="url(#a)" fill="#fff" stroke="#fff"/>
<g clip-path="url(#a)">
<g transform="translate(706.33 259.8) rotate(-61.755) scale(.08 -.08)">
<use xlink:href="#ac"/>
</g>
</g>
<path d="m939.53 358.61 1.7381 4.1047q0.93585 2.21 3.1459 1.2742l7.1296-3.0191q2.21-0.93585 1.2742-3.1459l-1.7381-4.1047q-0.93585-2.21-3.1459-1.2742l-7.1296 3.0191q-2.21 0.93585-1.2742 3.1459z" clip-path="url(#a)" fill="#fff" stroke="#fff"/>
<g clip-path="url(#a)">
<defs>
<path id="aw" d="m9.8125 72.906h9.8594v-64.609h35.5v-8.2969h-45.359z"/>
</defs>
<g transform="translate(943.27 357.03) rotate(67.049) scale(.08 -.08)">
<use xlink:href="#aw"/>
</g>
</g>
<path d="m1140.8 158.73 5.7436 1.7907q2.2912 0.71433 3.0056-1.5769l2.3044-7.3916q0.71433-2.2912-1.5769-3.0056l-5.7436-1.7907q-2.2912-0.71433-3.0056 1.5769l-2.3044 7.3916q-0.71433 2.2912 1.5769 3.0056z" clip-path="url(#a)" fill="#fff" stroke="#fff"/>
<g clip-path="url(#a)">
<g transform="translate(1142 154.85) rotate(17.316) scale(.08 -.08)">
<use xlink:href="#ac"/>
</g>
</g>
<path d="m766.85 463.54 0.78069-5.8027q0.32001-2.3786-2.0586-2.6986l-7.6734-1.0324q-2.3786-0.32001-2.6986 2.0586l-0.78069 5.8027q-0.32001 2.3786 2.0586 2.6986l7.6734 1.0324q2.3786 0.32001 2.6986-2.0586z" clip-path="url(#a)" fill="#fff" stroke="#fff"/>
<g clip-path="url(#a)">
<defs>
<path id="ab" d="m8.6875 72.906h9.9219v-44.297q0-11.719 4.2344-16.875 4.25-5.1406 13.781-5.1406 9.4688 0 13.719 5.1406 4.25 5.1562 4.25 16.875v44.297h9.9062v-45.516q0-14.25-7.0625-21.531-7.0469-7.2812-20.812-7.2812-13.828 0-20.891 7.2812-7.0469 7.2812-7.0469 21.531z"/>
</defs>
<g transform="translate(762.83 463) rotate(-82.337) scale(.08 -.08)">
<use xlink:href="#ab"/>
</g>
</g>
<path d="m169.52 568.75 2.5314-4.1794q1.2434-2.0528-0.80945-3.2962l-6.6225-4.0112q-2.0528-1.2434-3.2962 0.80945l-2.5314 4.1794q-1.2434 2.0528 0.80945 3.2962l6.6225 4.0112q2.0528 1.2434 3.2962-0.80945z" clip-path="url(#a)" fill="#fff" stroke="#fff"/>
<g clip-path="url(#a)">
<defs>
<path id="k" d="m-0.29688 72.906h61.672v-8.3125h-25.875v-64.594h-9.9062v64.594h-25.891z"/>
</defs>
<g transform="translate(166.04 566.65) rotate(-58.797) scale(.08 -.08)">
<use xlink:href="#k"/>
</g>
</g>
<path d="m185.96 669.07 1.2256-5.3335q0.53747-2.339-1.8016-2.8765l-7.5458-1.7339q-2.339-0.53747-2.8765 1.8016l-1.2256 5.3335q-0.53748 2.339 1.8016 2.8765l7.5458 1.7339q2.339 0.53748 2.8765-1.8016z" clip-path="url(#a)" fill="#fff" stroke="#fff"/>
<g clip-path="url(#a)">
<defs>
<path id="t" d="m34.188 63.188-13.391-36.281h26.812zm-5.5781 9.7188h11.188l27.781-72.906h-10.25l-6.6406 18.703h-32.859l-6.6406-18.703h-10.406z"/>
</defs>
<g transform="translate(182 668.16) rotate(-77.059) scale(.08 -.08)">
<use xlink:href="#t"/>
</g>
</g>
<path d="m193.36 668.46 0.87864-4.5166q0.4583-2.3558-1.8975-2.8141l-7.6-1.4785q-2.3558-0.4583-2.8141 1.8975l-0.87864 4.5166q-0.4583 2.3558 1.8975 2.8141l7.6 1.4785q2.3558 0.4583 2.8141-1.8975z" clip-path="url(#a)" fill="#fff" stroke="#fff"/>
<g clip-path="url(#a)">
<defs>
<path id="ad" d="m9.8125 72.906h41.891v-8.3125h-32.031v-21.484h28.906v-8.2969h-28.906v-34.812h-9.8594z"/>
</defs>
<g transform="translate(189.37 667.68) rotate(-78.991) scale(.08 -.08)">
<use xlink:href="#ad"/>
</g>
</g>
<path d="m201.68 668.34 0.73538-4.7674q0.36588-2.3719-2.0061-2.7378l-7.652-1.1803q-2.3719-0.36588-2.7378 2.0061l-0.73538 4.7674q-0.36588 2.3719 2.0061 2.7378l7.652 1.1803q2.3719 0.36588 2.7378-2.0061z" clip-path="url(#a)" fill="#fff" stroke="#fff"/>
<g clip-path="url(#a)">
<defs>
<path id="ak" d="m19.672 64.797v-27.391h12.406q6.8906 0 10.641 3.5625 3.7656 3.5625 3.7656 10.156 0 6.5469-3.7656 10.109-3.75 3.5625-10.641 3.5625zm-9.8594 8.1094h22.266q12.266 0 18.531-5.5469 6.2812-5.5469 6.2812-16.234 0-10.797-6.2812-16.312-6.2656-5.5156-18.531-5.5156h-12.406v-29.297h-9.8594z"/>
</defs>
<g transform="translate(197.66 667.72) rotate(-81.231) scale(.08 -.08)">
<use xlink:href="#ak"/>
</g>
</g>
<path d="m232.61 566.21 0.048573-5.4723q0.021302-2.3999-2.3786-2.4212l-7.7422-0.068721q-2.3999-0.021302-2.4212 2.3786l-0.048573 5.4723q-0.021302 2.3999 2.3786 2.4212l7.7422 0.068721q2.3999 0.021302 2.4212-2.3786z" clip-path="url(#a)" fill="#fff" stroke="#fff"/>
<g clip-path="url(#a)">
<g transform="translate(228.55 566.17) rotate(-89.491) scale(.08 -.08)">
<use xlink:href="#t"/>
</g>
</g>
<path d="m281.49 564.28 2.8067 4.698q1.2309 2.0603 3.2912 0.82944l6.6467-3.9709q2.0603-1.2309 0.82944-3.2912l-2.8067-4.698q-1.2309-2.0603-3.2912-0.82944l-6.6467 3.9709q-2.0603 1.2309-0.82944 3.2912z" clip-path="url(#a)" fill="#fff" stroke="#fff"/>
<g clip-path="url(#a)">
<g transform="translate(284.98 562.2) rotate(59.145) scale(.08 -.08)">
<use xlink:href="#t"/>
</g>
</g>
<path d="m394.29 567.42 4.7097 2.787q2.0655 1.2222 3.2877-0.84323l3.943-6.6633q1.2222-2.0655-0.84323-3.2877l-4.7097-2.787q-2.0655-1.2222-3.2877 0.84323l-3.943 6.6633q-1.2222 2.0655 0.84323 3.2877z" clip-path="url(#a)" fill="#fff" stroke="#fff"/>
<g clip-path="url(#a)">
<g transform="translate(396.36 563.92) rotate(30.615) scale(.08 -.08)">
<use xlink:href="#t"/>
</g>
</g>
<path d="m179.64 669.41 1.4733-5.6666q0.60391-2.3228-1.7189-2.9267l-7.4934-1.9482q-2.3228-0.60391-2.9267 1.7189l-1.4733 5.6666q-0.60391 2.3228 1.7189 2.9267l7.4934 1.9482q2.3228 0.60391 2.9267-1.7189z" clip-path="url(#a)" fill="#fff" stroke="#fff"/>
<g clip-path="url(#a)">
<g transform="translate(175.71 668.39) rotate(-75.426) scale(.08 -.08)">
<use xlink:href="#ab"/>
</g>
</g>
<path d="m669.72 665.07 1.7797 4.4834q0.88548 2.2307 3.1162 1.3452l7.1963-2.8566q2.2307-0.88548 1.3452-3.1162l-1.7797-4.4834q-0.88548-2.2307-3.1162-1.3452l-7.1963 2.8566q-2.2307 0.88548-1.3452 3.1162z" clip-path="url(#a)" fill="#fff" stroke="#fff"/>
<g clip-path="url(#a)">
<g transform="translate(673.5 663.57) rotate(68.349) scale(.08 -.08)">
<use xlink:href="#ak"/>
</g>
</g>
<path d="m739.89 567.06 4.5246 3.0783q1.9843 1.35 3.3343-0.6343l4.3552-6.4015q1.35-1.9843-0.6343-3.3343l-4.5246-3.0783q-1.9843-1.35-3.3343 0.6343l-4.3552 6.4015q-1.35 1.9843 0.6343 3.3343z" clip-path="url(#a)" fill="#fff" stroke="#fff"/>
<g clip-path="url(#a)">
<g transform="translate(742.17 563.7) rotate(34.229) scale(.08 -.08)">
<use xlink:href="#t"/>
</g>
</g>
<path d="m366.71 671.51 4.1042-3.6199q1.7999-1.5875 0.21242-3.3875l-5.1214-5.8067q-1.5875-1.7999-3.3875-0.21242l-4.1042 3.6199q-1.7999 1.5875-0.21242 3.3875l5.1214 5.8067q1.5875 1.7999 3.3875 0.21242z" clip-path="url(#a)" fill="#fff" stroke="#fff"/>
<g clip-path="url(#a)">
<g transform="translate(364.02 668.47) rotate(-41.412) scale(.08 -.08)">
<use xlink:href="#t"/>
</g>
</g>
<path d="m1066.2 770.85 0.86377-5.5191q0.3711-2.3711-2-2.7422l-7.6494-1.1972q-2.3711-0.3711-2.7422 2l-0.86377 5.5191q-0.3711 2.3711 2 2.7422l7.6494 1.1972q2.3711 0.3711 2.7422-2z" clip-path="url(#a)" fill="#fff" stroke="#fff"/>
<g clip-path="url(#a)">
<defs>
<path id="p" d="m64.406 67.281v-10.391q-4.9844 4.6406-10.625 6.9219-5.6406 2.2969-11.984 2.2969-12.5 0-19.141-7.6406t-6.6406-22.094q0-14.406 6.6406-22.047t19.141-7.6406q6.3438 0 11.984 2.2969t10.625 6.9375v-10.312q-5.1719-3.5156-10.969-5.2812-5.7812-1.75-12.219-1.75-16.562 0-26.094 10.125-9.5156 10.141-9.5156 27.672 0 17.578 9.5156 27.703 9.5312 10.141 26.094 10.141 6.5312 0 12.312-1.7344 5.7969-1.7344 10.875-5.2031z"/>
</defs>
<g transform="translate(1062.2 770.22) rotate(-81.105) scale(.08 -.08)">
<use xlink:href="#p"/>
</g>
</g>
<path d="m1085.7 765.82 0.71147 4.5459q0.3711 2.3711 2.7422 2l7.6494-1.1972q2.3711-0.3711 2-2.7422l-0.71147-4.5459q-0.3711-2.3711-2.7422-2l-7.6494 1.1972q-2.3711 0.3711-2 2.7422z" clip-path="url(#a)" fill="#fff" stroke="#fff"/>
<g clip-path="url(#a)">
<g transform="translate(1089.7 765.19) rotate(81.105) scale(.08 -.08)">
<use xlink:href="#ad"/>
</g>
</g>
<path d="m1345.3 466.4 2.6391-4.0378q1.313-2.009-0.69591-3.322l-6.481-4.2359q-2.009-1.313-3.322 0.69591l-2.6391 4.0378q-1.313 2.009 0.69591 3.322l6.481 4.2359q2.009 1.313 3.322-0.69591z" clip-path="url(#a)" fill="#fff" stroke="#fff"/>
<g clip-path="url(#a)">
<g transform="translate(1341.8 464.17) rotate(-56.832) scale(.08 -.08)">
<use xlink:href="#ak"/>
</g>
</g>
<path d="m1602.8 362.14 4.3438 3.3286q1.905 1.4598 3.3648-0.4452l4.7094-6.1456q1.4598-1.905-0.4452-3.3648l-4.3438-3.3286q-1.905-1.4598-3.3648 0.4452l-4.7094 6.1456q-1.4598 1.905 0.4452 3.3648z" clip-path="url(#a)" fill="#fff" stroke="#fff"/>
<g clip-path="url(#a)">
<g transform="translate(1605.2 358.92) rotate(37.463) scale(.08 -.08)">
<use xlink:href="#t"/>
</g>
</g>
<path d="m1196.4 770.64 0.83073-4.9863q0.39441-2.3674-1.973-2.7618l-7.6372-1.2724q-2.3674-0.39441-2.7618 1.973l-0.83073 4.9863q-0.39441 2.3674 1.973 2.7618l7.6372 1.2724q2.3674 0.39441 2.7618-1.973z" clip-path="url(#a)" fill="#fff" stroke="#fff"/>
<g clip-path="url(#a)">
<defs>
<path id="v" d="m9.8125 72.906h46.094v-8.3125h-36.234v-21.578h34.719v-8.2969h-34.719v-26.422h37.109v-8.2969h-46.969z"/>
</defs>
<g transform="translate(1192.4 769.98) rotate(-80.541) scale(.08 -.08)">
<use xlink:href="#v"/>
</g>
</g>
<path d="m1217.9 765.39 0.91804 5.5103q0.39441 2.3674 2.7618 1.973l7.6372-1.2724q2.3674-0.39441 1.973-2.7618l-0.91804-5.5103q-0.39441-2.3674-2.7618-1.973l-7.6372 1.2724q-2.3674 0.39441-1.973 2.7618z" clip-path="url(#a)" fill="#fff" stroke="#fff"/>
<g clip-path="url(#a)">
<g transform="translate(1221.9 764.73) rotate(80.541) scale(.08 -.08)">
<use xlink:href="#p"/>
</g>
</g>
<path d="m1583.1 570.06 4.2656-2.7126q2.0252-1.2879 0.73734-3.3131l-4.1547-6.5334q-1.2879-2.0252-3.3131-0.73734l-4.2656 2.7126q-2.0252 1.2879-0.73734 3.3131l4.1547 6.5334q1.2879 2.0252 3.3131 0.73734z" clip-path="url(#a)" fill="#fff" stroke="#fff"/>
<g clip-path="url(#a)">
<g transform="translate(1580.9 566.63) rotate(-32.453) scale(.08 -.08)">
<use xlink:href="#v"/>
</g>
</g>
<path d="m1752.2 662.71 0.44242 5.5687q0.19008 2.3925 2.5825 2.2024l7.7182-0.61319q2.3925-0.19008 2.2024-2.5825l-0.44242-5.5687q-0.19008-2.3925-2.5825-2.2024l-7.7182 0.61319q-2.3925 0.19008-2.2024 2.5825z" clip-path="url(#a)" fill="#fff" stroke="#fff"/>
<g clip-path="url(#a)">
<g transform="translate(1756.2 662.39) rotate(85.458) scale(.08 -.08)">
<use xlink:href="#p"/>
</g>
</g>
<path d="m1880.1 666.24 3.386 4.7766q1.3879 1.958 3.3459 0.57002l6.3165-4.4776q1.958-1.3879 0.57002-3.3459l-3.386-4.7766q-1.3879-1.958-3.3459-0.57002l-6.3165 4.4776q-1.958 1.3879-0.57002 3.3459z" clip-path="url(#a)" fill="#fff" stroke="#fff"/>
<g clip-path="url(#a)">
<g transform="translate(1883.4 663.89) rotate(54.668) scale(.08 -.08)">
<use xlink:href="#ab"/>
</g>
</g>
<path d="m1370.4 772.55 2.6484-4.8873q1.1434-2.1101-0.96668-3.2535l-6.8073-3.6888q-2.1101-1.1434-3.2535 0.96667l-2.6484 4.8873q-1.1434 2.1101 0.96667 3.2535l6.8073 3.6888q2.1101 1.1434 3.2535-0.96668z" clip-path="url(#a)" fill="#fff" stroke="#fff"/>
<g clip-path="url(#a)">
<defs>
<path id="u" d="m44.391 34.188q3.1719-1.0781 6.1719-4.5938t6.0312-9.6719l10.016-19.922h-10.609l-9.3125 18.703q-3.625 7.3281-7.0156 9.7188t-9.25 2.3906h-10.75v-30.812h-9.8594v72.906h22.266q12.5 0 18.656-5.2344 6.1562-5.2188 6.1562-15.766 0-6.8906-3.2031-11.438-3.2031-4.5312-9.2969-6.2812zm-24.719 30.609v-25.875h12.406q7.125 0 10.766 3.2969t3.6406 9.6875-3.6406 9.6406-10.766 3.25z"/>
</defs>
<g transform="translate(1366.9 770.61) rotate(-61.547) scale(.08 -.08)">
<use xlink:href="#u"/>
</g>
</g>
<path d="m1426.9 769.95 0.037603-5.5861q0.016155-2.3999-2.3838-2.4161l-7.7423-0.052118q-2.3999-0.016155-2.4161 2.3838l-0.037603 5.5861q-0.016155 2.3999 2.3838 2.4161l7.7423 0.052117q2.3999 0.016155 2.4161-2.3838z" clip-path="url(#a)" fill="#fff" stroke="#fff"/>
<g clip-path="url(#a)">
<g transform="translate(1422.8 769.93) rotate(-89.614) scale(.08 -.08)">
<use xlink:href="#p"/>
</g>
</g>
<path d="m1470.2 767.7 2.6737 4.8735q1.1544 2.1041 3.2585 0.94978l6.7881-3.724q2.1041-1.1544 0.94978-3.2585l-2.6737-4.8735q-1.1544-2.1041-3.2585-0.94978l-6.7881 3.724q-2.1041 1.1544-0.94978 3.2585z" clip-path="url(#a)" fill="#fff" stroke="#fff"/>
<g clip-path="url(#a)">
<g transform="translate(1473.8 765.74) rotate(61.25) scale(.08 -.08)">
<use xlink:href="#u"/>
</g>
</g>
<path d="m1686.9 985.95 21.421-26.155q1.5207-1.8567-0.33604-3.3774l-5.9899-4.9058q-1.8567-1.5207-3.3774 0.33604l-21.421 26.155q-1.5207 1.8567 0.33604 3.3774l5.9899 4.9058q1.8567 1.5207 3.3774-0.33604z" clip-path="url(#a)" fill="#fff" stroke="#fff"/>
<g clip-path="url(#a)">
<defs>
<path id="g" d="m56.203 29.594v-4.3906h-41.312q0.59375-9.2812 5.5938-14.141t13.938-4.8594q5.1719 0 10.031 1.2656t9.6562 3.8125v-8.5q-4.8438-2.0469-9.9219-3.125t-10.297-1.0781q-13.094 0-20.734 7.6094-7.6406 7.625-7.6406 20.625 0 13.422 7.25 21.297 7.25 7.8906 19.562 7.8906 11.031 0 17.453-7.1094 6.4219-7.0938 6.4219-19.297zm-8.9844 2.6406q-0.09375 7.3594-4.125 11.75-4.0312 4.4062-10.672 4.4062-7.5156 0-12.031-4.25t-5.2031-11.969z"/>
<path id="h" d="m41.109 46.297q-1.5156 0.875-3.2969 1.2812-1.7812 0.42188-3.9219 0.42188-7.625 0-11.703-4.9531t-4.0781-14.234v-28.812h-9.0312v54.688h9.0312v-8.5q2.8438 4.9844 7.375 7.3906 4.5469 2.4219 11.047 2.4219 0.92188 0 2.0469-0.125 1.125-0.10938 2.4844-0.35938z"/>
<path id="l" d="m52 44.188q3.375 6.0625 8.0625 8.9375t11.031 2.875q8.5469 0 13.188-5.9844 4.6406-5.9688 4.6406-17v-33.016h-9.0312v32.719q0 7.8594-2.7969 11.656-2.7812 3.8125-8.4844 3.8125-6.9844 0-11.047-4.6406-4.0469-4.625-4.0469-12.641v-30.906h-9.0312v32.719q0 7.9062-2.7812 11.688t-8.5938 3.7812q-6.8906 0-10.953-4.6562-4.0469-4.6562-4.0469-12.625v-30.906h-9.0312v54.688h9.0312v-8.5q3.0781 5.0312 7.375 7.4219t10.203 2.3906q5.9688 0 10.141-3.0312 4.1719-3.0156 6.1719-8.7812z"/>
<path id="f" d="m9.4219 54.688h8.9844v-54.688h-8.9844zm0 21.297h8.9844v-11.391h-8.9844z"/>
<path id="c" d="m54.891 33.016v-33.016h-8.9844v32.719q0 7.7656-3.0312 11.609-3.0312 3.8594-9.0781 3.8594-7.2812 0-11.484-4.6406-4.2031-4.625-4.2031-12.641v-30.906h-9.0312v54.688h9.0312v-8.5q3.2344 4.9375 7.5938 7.375 4.375 2.4375 10.094 2.4375 9.4219 0 14.25-5.8281 4.8438-5.8281 4.8438-17.156z"/>
<path id="e" d="m34.281 27.484q-10.891 0-15.094-2.4844t-4.2031-8.5q0-4.7812 3.1562-7.5938 3.1562-2.7969 8.5625-2.7969 7.4844 0 12 5.2969t4.5156 14.078v2zm17.922 3.7188v-31.203h-8.9844v8.2969q-3.0781-4.9688-7.6719-7.3438t-11.234-2.375q-8.3906 0-13.359 4.7188-4.9531 4.7188-4.9531 12.625 0 9.2188 6.1719 13.906 6.1875 4.6875 18.438 4.6875h12.609v0.89062q0 6.2031-4.0781 9.5938t-11.453 3.3906q-4.6875 0-9.1406-1.125-4.4375-1.125-8.5312-3.375v8.3125q4.9219 1.9062 9.5625 2.8438 4.6406 0.95312 9.0312 0.95312 11.875 0 17.734-6.1562 5.8594-6.1406 5.8594-18.641z"/>
<path id="i" d="m9.4219 75.984h8.9844v-75.984h-8.9844z"/>
</defs>
<g transform="translate(1683.8 983.37) rotate(-50.682) scale(.08 -.08)">
<use xlink:href="#k"/>
<use x="44.083984" xlink:href="#g"/>
<use x="105.607422" xlink:href="#h"/>
<use x="144.970703" xlink:href="#l"/>
<use x="242.382812" xlink:href="#f"/>
<use x="270.166016" xlink:href="#c"/>
<use x="333.544922" xlink:href="#e"/>
<use x="394.824219" xlink:href="#i"/>
</g>
</g>
<path d="m1732 986.91 13.085-31.173q0.92888-2.213-1.2841-3.1418l-7.1391-2.9966q-2.213-0.92888-3.1418 1.2841l-13.085 31.173q-0.92888 2.213 1.2841 3.1418l7.1391 2.9966q2.213 0.92888 3.1418-1.2841z" clip-path="url(#a)" fill="#fff" stroke="#fff"/>
<g clip-path="url(#a)">
<g transform="translate(1728.3 985.34) rotate(-67.23) scale(.08 -.08)">
<use xlink:href="#k"/>
<use x="44.083984" xlink:href="#g"/>
<use x="105.607422" xlink:href="#h"/>
<use x="144.970703" xlink:href="#l"/>
<use x="242.382812" xlink:href="#f"/>
<use x="270.166016" xlink:href="#c"/>
<use x="333.544922" xlink:href="#e"/>
<use x="394.824219" xlink:href="#i"/>
</g>
</g>
<path d="m1779.9 985.87 0.34609-33.806q0.02457-2.3999-2.3753-2.4244l-7.7421-0.079261q-2.3999-0.024569-2.4244 2.3753l-0.34609 33.806q-0.024569 2.3999 2.3753 2.4244l7.7421 0.079261q2.3999 0.024569 2.4244-2.3753z" clip-path="url(#a)" fill="#fff" stroke="#fff"/>
<g clip-path="url(#a)">
<g transform="translate(1775.8 985.82) rotate(-89.413) scale(.08 -.08)">
<use xlink:href="#k"/>
<use x="44.083984" xlink:href="#g"/>
<use x="105.607422" xlink:href="#h"/>
<use x="144.970703" xlink:href="#l"/>
<use x="242.382812" xlink:href="#f"/>
<use x="270.166016" xlink:href="#c"/>
<use x="333.544922" xlink:href="#e"/>
<use x="394.824219" xlink:href="#i"/>
</g>
</g>
<path d="m1803.7 955.63 12.812 31.286q0.90951 2.221 3.1305 1.3115l7.165-2.9341q2.221-0.90951 1.3115-3.1305l-12.812-31.286q-0.90951-2.221-3.1305-1.3115l-7.165 2.9341q-2.221 0.90951-1.3115 3.1305z" clip-path="url(#a)" fill="#fff" stroke="#fff"/>
<g clip-path="url(#a)">
<g transform="translate(1807.4 954.09) rotate(67.731) scale(.08 -.08)">
<use xlink:href="#k"/>
<use x="44.083984" xlink:href="#g"/>
<use x="105.607422" xlink:href="#h"/>
<use x="144.970703" xlink:href="#l"/>
<use x="242.382812" xlink:href="#f"/>
<use x="270.166016" xlink:href="#c"/>
<use x="333.544922" xlink:href="#e"/>
<use x="394.824219" xlink:href="#i"/>
</g>
</g>
<path d="m1843.3 959.98 21.737 25.893q1.5431 1.8382 3.3813 0.29504l5.93-4.9781q1.8382-1.5431 0.29504-3.3813l-21.737-25.893q-1.5431-1.8382-3.3813-0.29504l-5.93 4.9781q-1.8382 1.5431-0.29504 3.3813z" clip-path="url(#a)" fill="#fff" stroke="#fff"/>
<g clip-path="url(#a)">
<g transform="translate(1846.4 957.37) rotate(49.987) scale(.08 -.08)">
<use xlink:href="#k"/>
<use x="44.083984" xlink:href="#g"/>
<use x="105.607422" xlink:href="#h"/>
<use x="144.970703" xlink:href="#l"/>
<use x="242.382812" xlink:href="#f"/>
<use x="270.166016" xlink:href="#c"/>
<use x="333.544922" xlink:href="#e"/>
<use x="394.824219" xlink:href="#i"/>
</g>
</g>
<path d="m1304.9 951.99v33.808q0 2.4 2.4 2.4h7.7425q2.4 0 2.4-2.4v-33.808q0-2.4-2.4-2.4h-7.7425q-2.4 0-2.4 2.4z" clip-path="url(#a)" fill="#fff" stroke="#fff"/>
<g clip-path="url(#a)">
<g transform="translate(1309 951.99) rotate(90) scale(.08 -.08)">
<use xlink:href="#k"/>
<use x="44.083984" xlink:href="#g"/>
<use x="105.607422" xlink:href="#h"/>
<use x="144.970703" xlink:href="#l"/>
<use x="242.382812" xlink:href="#f"/>
<use x="270.166016" xlink:href="#c"/>
<use x="333.544922" xlink:href="#e"/>
<use x="394.824219" xlink:href="#i"/>
</g>
</g>
<path d="m1404.6 986.66 6.1268-33.248q0.43494-2.3603-1.9253-2.7952l-7.6143-1.4031q-2.3603-0.43494-2.7952 1.9253l-6.1268 33.248q-0.43494 2.3603 1.9253 2.7952l7.6143 1.4031q2.3603 0.43494 2.7952-1.9253z" clip-path="url(#a)" fill="#fff" stroke="#fff"/>
<g clip-path="url(#a)">
<g transform="translate(1400.6 985.92) rotate(-79.559) scale(.08 -.08)">
<use xlink:href="#k"/>
<use x="44.083984" xlink:href="#g"/>
<use x="105.607422" xlink:href="#h"/>
<use x="144.970703" xlink:href="#l"/>
<use x="242.382812" xlink:href="#f"/>
<use x="270.166016" xlink:href="#c"/>
<use x="333.544922" xlink:href="#e"/>
<use x="394.824219" xlink:href="#i"/>
</g>
</g>
<path d="m1429.2 953.41 6.1268 33.248q0.43494 2.3603 2.7952 1.9253l7.6143-1.4031q2.3603-0.43494 1.9253-2.7952l-6.1268-33.248q-0.43494-2.3603-2.7952-1.9253l-7.6143 1.4031q-2.3603 0.43494-1.9253 2.7952z" clip-path="url(#a)" fill="#fff" stroke="#fff"/>
<g clip-path="url(#a)">
<g transform="translate(1433.2 952.67) rotate(79.559) scale(.08 -.08)">
<use xlink:href="#k"/>
<use x="44.083984" xlink:href="#g"/>
<use x="105.607422" xlink:href="#h"/>
<use x="144.970703" xlink:href="#l"/>
<use x="242.382812" xlink:href="#f"/>
<use x="270.166016" xlink:href="#c"/>
<use x="333.544922" xlink:href="#e"/>
<use x="394.824219" xlink:href="#i"/>
</g>
</g>
<path d="m1526.5 951.99v33.808q0 2.4 2.4 2.4h7.7425q2.4 0 2.4-2.4v-33.808q0-2.4-2.4-2.4h-7.7425q-2.4 0-2.4 2.4z" clip-path="url(#a)" fill="#fff" stroke="#fff"/>
<g clip-path="url(#a)">
<g transform="translate(1530.6 951.99) rotate(90) scale(.08 -.08)">
<use xlink:href="#k"/>
<use x="44.083984" xlink:href="#g"/>
<use x="105.607422" xlink:href="#h"/>
<use x="144.970703" xlink:href="#l"/>
<use x="242.382812" xlink:href="#f"/>
<use x="270.166016" xlink:href="#c"/>
<use x="333.544922" xlink:href="#e"/>
<use x="394.824219" xlink:href="#i"/>
</g>
</g>
<path d="m1167.5 951.99v33.808q0 2.4 2.4 2.4h7.7425q2.4 0 2.4-2.4v-33.808q0-2.4-2.4-2.4h-7.7425q-2.4 0-2.4 2.4z" clip-path="url(#a)" fill="#fff" stroke="#fff"/>
<g clip-path="url(#a)">
<g transform="translate(1171.5 951.99) rotate(90) scale(.08 -.08)">
<use xlink:href="#k"/>
<use x="44.083984" xlink:href="#g"/>
<use x="105.607422" xlink:href="#h"/>
<use x="144.970703" xlink:href="#l"/>
<use x="242.382812" xlink:href="#f"/>
<use x="270.166016" xlink:href="#c"/>
<use x="333.544922" xlink:href="#e"/>
<use x="394.824219" xlink:href="#i"/>
</g>
</g>
<path d="m1235.2 951.99v33.808q0 2.4 2.4 2.4h7.7425q2.4 0 2.4-2.4v-33.808q0-2.4-2.4-2.4h-7.7425q-2.4 0-2.4 2.4z" clip-path="url(#a)" fill="#fff" stroke="#fff"/>
<g clip-path="url(#a)">
<g transform="translate(1239.2 951.99) rotate(90) scale(.08 -.08)">
<use xlink:href="#k"/>
<use x="44.083984" xlink:href="#g"/>
<use x="105.607422" xlink:href="#h"/>
<use x="144.970703" xlink:href="#l"/>
<use x="242.382812" xlink:href="#f"/>
<use x="270.166016" xlink:href="#c"/>
<use x="333.544922" xlink:href="#e"/>
<use x="394.824219" xlink:href="#i"/>
</g>
</g>
<path d="m1038.2 951.99v33.808q0 2.4 2.4 2.4h7.7425q2.4 0 2.4-2.4v-33.808q0-2.4-2.4-2.4h-7.7425q-2.4 0-2.4 2.4z" clip-path="url(#a)" fill="#fff" stroke="#fff"/>
<g clip-path="url(#a)">
<g transform="translate(1042.3 951.99) rotate(90) scale(.08 -.08)">
<use xlink:href="#k"/>
<use x="44.083984" xlink:href="#g"/>
<use x="105.607422" xlink:href="#h"/>
<use x="144.970703" xlink:href="#l"/>
<use x="242.382812" xlink:href="#f"/>
<use x="270.166016" xlink:href="#c"/>
<use x="333.544922" xlink:href="#e"/>
<use x="394.824219" xlink:href="#i"/>
</g>
</g>
<path d="m1101.8 951.99v33.808q0 2.4 2.4 2.4h7.7425q2.4 0 2.4-2.4v-33.808q0-2.4-2.4-2.4h-7.7425q-2.4 0-2.4 2.4z" clip-path="url(#a)" fill="#fff" stroke="#fff"/>
<g clip-path="url(#a)">
<g transform="translate(1105.9 951.99) rotate(90) scale(.08 -.08)">
<use xlink:href="#k"/>
<use x="44.083984" xlink:href="#g"/>
<use x="105.607422" xlink:href="#h"/>
<use x="144.970703" xlink:href="#l"/>
<use x="242.382812" xlink:href="#f"/>
<use x="270.166016" xlink:href="#c"/>
<use x="333.544922" xlink:href="#e"/>
<use x="394.824219" xlink:href="#i"/>
</g>
</g>
<path d="m751.03 951.99v33.808q0 2.4 2.4 2.4h7.7425q2.4 0 2.4-2.4v-33.808q0-2.4-2.4-2.4h-7.7425q-2.4 0-2.4 2.4z" clip-path="url(#a)" fill="#fff" stroke="#fff"/>
<g clip-path="url(#a)">
<g transform="translate(755.1 951.99) rotate(90) scale(.08 -.08)">
<use xlink:href="#k"/>
<use x="44.083984" xlink:href="#g"/>
<use x="105.607422" xlink:href="#h"/>
<use x="144.970703" xlink:href="#l"/>
<use x="242.382812" xlink:href="#f"/>
<use x="270.166016" xlink:href="#c"/>
<use x="333.544922" xlink:href="#e"/>
<use x="394.824219" xlink:href="#i"/>
</g>
</g>
<path d="m857.92 772.11 2.1483-5.1268q0.92754-2.2135-1.286-3.1411l-7.1409-2.9923q-2.2135-0.92754-3.1411 1.286l-2.1483 5.1268q-0.92754 2.2135 1.286 3.1411l7.1409 2.9923q2.2135 0.92754 3.1411-1.286z" clip-path="url(#a)" fill="#fff" stroke="#fff"/>
<g clip-path="url(#a)">
<g transform="translate(854.17 770.54) rotate(-67.265) scale(.08 -.08)">
<use xlink:href="#u"/>
</g>
</g>
<path d="m886.74 770.53 0.73229-5.0017q0.34768-2.3747-2.027-2.7224l-7.6608-1.1216q-2.3747-0.34768-2.7224 2.027l-0.73229 5.0017q-0.34768 2.3747 2.027 2.7224l7.6608 1.1216q2.3747 0.34768 2.7224-2.027z" clip-path="url(#a)" fill="#fff" stroke="#fff"/>
<g clip-path="url(#a)">
<g transform="translate(882.72 769.94) rotate(-81.671) scale(.08 -.08)">
<use xlink:href="#v"/>
</g>
</g>
<path d="m903.07 765.46 0.68274 5.0087q0.32415 2.378 2.7022 2.0539l7.6716-1.0457q2.378-0.32415 2.0539-2.7022l-0.68275-5.0087q-0.32415-2.378-2.7022-2.0539l-7.6716 1.0457q-2.378 0.32415-2.0539 2.7022z" clip-path="url(#a)" fill="#fff" stroke="#fff"/>
<g clip-path="url(#a)">
<g transform="translate(907.1 764.91) rotate(82.238) scale(.08 -.08)">
<use xlink:href="#v"/>
</g>
</g>
<path d="m932.51 767.03 2.203 5.1335q0.94645 2.2055 3.152 1.2591l7.115-3.0533q2.2055-0.94645 1.259-3.152l-2.203-5.1335q-0.94645-2.2055-3.152-1.259l-7.115 3.0533q-2.2055 0.94645-1.259 3.152z" clip-path="url(#a)" fill="#fff" stroke="#fff"/>
<g clip-path="url(#a)">
<g transform="translate(936.24 765.42) rotate(66.774) scale(.08 -.08)">
<use xlink:href="#p"/>
</g>
</g>
<path d="m804.37 951.99v33.808q0 2.4 2.4 2.4h7.7425q2.4 0 2.4-2.4v-33.808q0-2.4-2.4-2.4h-7.7425q-2.4 0-2.4 2.4z" clip-path="url(#a)" fill="#fff" stroke="#fff"/>
<g clip-path="url(#a)">
<g transform="translate(808.43 951.99) rotate(90) scale(.08 -.08)">
<use xlink:href="#k"/>
<use x="44.083984" xlink:href="#g"/>
<use x="105.607422" xlink:href="#h"/>
<use x="144.970703" xlink:href="#l"/>
<use x="242.382812" xlink:href="#f"/>
<use x="270.166016" xlink:href="#c"/>
<use x="333.544922" xlink:href="#e"/>
<use x="394.824219" xlink:href="#i"/>
</g>
</g>
<path d="m859.76 951.99v33.808q0 2.4 2.4 2.4h7.7425q2.4 0 2.4-2.4v-33.808q0-2.4-2.4-2.4h-7.7425q-2.4 0-2.4 2.4z" clip-path="url(#a)" fill="#fff" stroke="#fff"/>
<g clip-path="url(#a)">
<g transform="translate(863.82 951.99) rotate(90) scale(.08 -.08)">
<use xlink:href="#k"/>
<use x="44.083984" xlink:href="#g"/>
<use x="105.607422" xlink:href="#h"/>
<use x="144.970703" xlink:href="#l"/>
<use x="242.382812" xlink:href="#f"/>
<use x="270.166016" xlink:href="#c"/>
<use x="333.544922" xlink:href="#e"/>
<use x="394.824219" xlink:href="#i"/>
</g>
</g>
<path d="m917.2 951.99v33.808q0 2.4 2.4 2.4h7.7425q2.4 0 2.4-2.4v-33.808q0-2.4-2.4-2.4h-7.7425q-2.4 0-2.4 2.4z" clip-path="url(#a)" fill="#fff" stroke="#fff"/>
<g clip-path="url(#a)">
<g transform="translate(921.27 951.99) rotate(90) scale(.08 -.08)">
<use xlink:href="#k"/>
<use x="44.083984" xlink:href="#g"/>
<use x="105.607422" xlink:href="#h"/>
<use x="144.970703" xlink:href="#l"/>
<use x="242.382812" xlink:href="#f"/>
<use x="270.166016" xlink:href="#c"/>
<use x="333.544922" xlink:href="#e"/>
<use x="394.824219" xlink:href="#i"/>
</g>
</g>
<path d="m976.7 951.99v33.808q0 2.4 2.4 2.4h7.7425q2.4 0 2.4-2.4v-33.808q0-2.4-2.4-2.4h-7.7425q-2.4 0-2.4 2.4z" clip-path="url(#a)" fill="#fff" stroke="#fff"/>
<g clip-path="url(#a)">
<g transform="translate(980.76 951.99) rotate(90) scale(.08 -.08)">
<use xlink:href="#k"/>
<use x="44.083984" xlink:href="#g"/>
<use x="105.607422" xlink:href="#h"/>
<use x="144.970703" xlink:href="#l"/>
<use x="242.382812" xlink:href="#f"/>
<use x="270.166016" xlink:href="#c"/>
<use x="333.544922" xlink:href="#e"/>
<use x="394.824219" xlink:href="#i"/>
</g>
</g>
<path d="m106.32 770.11 0.18699-5.5556q0.080732-2.3986-2.3179-2.4794l-7.7381-0.26044q-2.3986-0.080732-2.4794 2.3179l-0.18699 5.5556q-0.080732 2.3986 2.3179 2.4794l7.7381 0.26044q2.3986 0.080732 2.4794-2.3179z" clip-path="url(#a)" fill="#fff" stroke="#fff"/>
<g clip-path="url(#a)">
<g transform="translate(102.26 769.97) rotate(-88.072) scale(.08 -.08)">
<use xlink:href="#u"/>
</g>
</g>
<path d="m109.49 769.93 0.018802-5.5862q0.008078-2.4-2.3919-2.4081l-7.7425-0.026059q-2.4-0.008078-2.4081 2.3919l-0.018802 5.5862q-0.008078 2.4 2.3919 2.4081l7.7425 0.026059q2.4 0.008078 2.4081-2.3919z" clip-path="url(#a)" fill="#fff" stroke="#fff"/>
<g clip-path="url(#a)">
<g transform="translate(105.42 769.92) rotate(-89.807) scale(.08 -.08)">
<use xlink:href="#p"/>
</g>
</g>
<path d="m100.96 764.56 0.20668 5.5824q0.088795 2.3984 2.4872 2.3096l7.7372-0.28646q2.3984-0.088795 2.3096-2.4872l-0.20668-5.5824q-0.088795-2.3984-2.4872-2.3096l-7.7372 0.28646q-2.3984 0.088795-2.3096 2.4872z" clip-path="url(#a)" fill="#fff" stroke="#fff"/>
<g clip-path="url(#a)">
<g transform="translate(105.02 764.41) rotate(87.88) scale(.08 -.08)">
<use xlink:href="#p"/>
</g>
</g>
<path d="m127.38 951.99v33.808q0 2.4 2.4 2.4h7.7425q2.4 0 2.4-2.4v-33.808q0-2.4-2.4-2.4h-7.7425q-2.4 0-2.4 2.4z" clip-path="url(#a)" fill="#fff" stroke="#fff"/>
<g clip-path="url(#a)">
<g transform="translate(131.45 951.99) rotate(90) scale(.08 -.08)">
<use xlink:href="#k"/>
<use x="44.083984" xlink:href="#g"/>
<use x="105.607422" xlink:href="#h"/>
<use x="144.970703" xlink:href="#l"/>
<use x="242.382812" xlink:href="#f"/>
<use x="270.166016" xlink:href="#c"/>
<use x="333.544922" xlink:href="#e"/>
<use x="394.824219" xlink:href="#i"/>
</g>
</g>
<path d="m141.74 951.99v33.808q0 2.4 2.4 2.4h7.7425q2.4 0 2.4-2.4v-33.808q0-2.4-2.4-2.4h-7.7425q-2.4 0-2.4 2.4z" clip-path="url(#a)" fill="#fff" stroke="#fff"/>
<g clip-path="url(#a)">
<g transform="translate(145.81 951.99) rotate(90) scale(.08 -.08)">
<use xlink:href="#k"/>
<use x="44.083984" xlink:href="#g"/>
<use x="105.607422" xlink:href="#h"/>
<use x="144.970703" xlink:href="#l"/>
<use x="242.382812" xlink:href="#f"/>
<use x="270.166016" xlink:href="#c"/>
<use x="333.544922" xlink:href="#e"/>
<use x="394.824219" xlink:href="#i"/>
</g>
</g>
<path d="m158.15 951.99v33.808q0 2.4 2.4 2.4h7.7425q2.4 0 2.4-2.4v-33.808q0-2.4-2.4-2.4h-7.7425q-2.4 0-2.4 2.4z" clip-path="url(#a)" fill="#fff" stroke="#fff"/>
<g clip-path="url(#a)">
<g transform="translate(162.22 951.99) rotate(90) scale(.08 -.08)">
<use xlink:href="#k"/>
<use x="44.083984" xlink:href="#g"/>
<use x="105.607422" xlink:href="#h"/>
<use x="144.970703" xlink:href="#l"/>
<use x="242.382812" xlink:href="#f"/>
<use x="270.166016" xlink:href="#c"/>
<use x="333.544922" xlink:href="#e"/>
<use x="394.824219" xlink:href="#i"/>
</g>
</g>
<path d="m209.74 771.13 1.1399-5.4406q0.49216-2.349-1.8568-2.8412l-7.578-1.5877q-2.349-0.49216-2.8412 1.8568l-1.1399 5.4406q-0.49216 2.349 1.8568 2.8412l7.578 1.5877q2.349 0.49216 2.8412-1.8568z" clip-path="url(#a)" fill="#fff" stroke="#fff"/>
<g clip-path="url(#a)">
<g transform="translate(205.76 770.29) rotate(-78.167) scale(.08 -.08)">
<use xlink:href="#u"/>
</g>
</g>
<path d="m220.39 770.31 0.54549-5.0255q0.25899-2.386-2.127-2.645l-7.6973-0.8355q-2.386-0.25899-2.645 2.127l-0.54549 5.0255q-0.25899 2.386 2.127 2.645l7.6973 0.8355q2.386 0.25899 2.645-2.127z" clip-path="url(#a)" fill="#fff" stroke="#fff"/>
<g clip-path="url(#a)">
<g transform="translate(216.35 769.87) rotate(-83.805) scale(.08 -.08)">
<use xlink:href="#v"/>
</g>
</g>
<path d="m225.45 764.99 0.31838 5.045q0.15116 2.3952 2.5464 2.2441l7.7271-0.48764q2.3952-0.15116 2.2441-2.5464l-0.31838-5.045q-0.15116-2.3952-2.5464-2.2441l-7.7271 0.48764q-2.3952 0.15116-2.2441 2.5464z" clip-path="url(#a)" fill="#fff" stroke="#fff"/>
<g clip-path="url(#a)">
<g transform="translate(229.51 764.74) rotate(86.389) scale(.08 -.08)">
<use xlink:href="#v"/>
</g>
</g>
<path d="m244.59 765.96 1.3801 5.4131q0.59292 2.3256 2.9185 1.7327l7.5025-1.9128q2.3256-0.59292 1.7327-2.9185l-1.3801-5.4131q-0.59292-2.3256-2.9185-1.7327l-7.5025 1.9128q-2.3256 0.59292-1.7327 2.9185z" clip-path="url(#a)" fill="#fff" stroke="#fff"/>
<g clip-path="url(#a)">
<g transform="translate(248.53 764.96) rotate(75.697) scale(.08 -.08)">
<use xlink:href="#p"/>
</g>
</g>
<path d="m333.19 771.15 1.1589-5.4366q0.50035-2.3473-1.8469-2.8476l-7.5724-1.6142q-2.3473-0.50035-2.8476 1.8469l-1.1589 5.4366q-0.50035 2.3473 1.8469 2.8476l7.5724 1.6142q2.3473 0.50035 2.8476-1.8469z" clip-path="url(#a)" fill="#fff" stroke="#fff"/>
<g clip-path="url(#a)">
<g transform="translate(329.21 770.3) rotate(-77.967) scale(.08 -.08)">
<use xlink:href="#u"/>
</g>
</g>
<path d="m349.12 770.03 0.31133-5.0454q0.14781-2.3954-2.2476-2.5433l-7.7278-0.47685q-2.3954-0.14781-2.5433 2.2476l-0.31133 5.0454q-0.14781 2.3954 2.2476 2.5433l7.7278 0.47685q2.3954 0.14781 2.5433-2.2476z" clip-path="url(#a)" fill="#fff" stroke="#fff"/>
<g clip-path="url(#a)">
<g transform="translate(345.07 769.78) rotate(-86.469) scale(.08 -.08)">
<use xlink:href="#v"/>
</g>
</g>
<path d="m370.42 766.09 1.4806 5.3865q0.63609 2.3142 2.9503 1.6781l7.4656-2.0521q2.3142-0.63609 1.6781-2.9503l-1.4806-5.3865q-0.63609-2.3142-2.9503-1.6781l-7.4656 2.0521q-2.3142 0.63609-1.6781 2.9503z" clip-path="url(#a)" fill="#fff" stroke="#fff"/>
<g clip-path="url(#a)">
<g transform="translate(374.34 765.01) rotate(74.631) scale(.08 -.08)">
<use xlink:href="#p"/>
</g>
</g>
<path d="m530.95 772.24 2.2942-5.0632q0.99053-2.1861-1.1955-3.1766l-7.0523-3.1955q-2.1861-0.99053-3.1766 1.1955l-2.2942 5.0632q-0.99053 2.1861 1.1955 3.1766l7.0523 3.1955q2.1861 0.99053 3.1766-1.1955z" clip-path="url(#a)" fill="#fff" stroke="#fff"/>
<g clip-path="url(#a)">
<g transform="translate(527.25 770.56) rotate(-65.624) scale(.08 -.08)">
<use xlink:href="#u"/>
</g>
</g>
<path d="m563.47 770.78 0.80242-5.5283q0.34474-2.3751-2.0304-2.7199l-7.6622-1.1122q-2.3751-0.34474-2.7199 2.0304l-0.80242 5.5283q-0.34474 2.3751 2.0304 2.7199l7.6622 1.1122q2.3751 0.34474 2.7199-2.0304z" clip-path="url(#a)" fill="#fff" stroke="#fff"/>
<g clip-path="url(#a)">
<g transform="translate(559.45 770.2) rotate(-81.741) scale(.08 -.08)">
<use xlink:href="#p"/>
</g>
</g>
<path d="m607.73 766.94 2.1423 5.1591q0.9204 2.2165 3.1369 1.2961l7.1505-2.9692q2.2165-0.9204 1.2961-3.1369l-2.1423-5.1591q-0.9204-2.2165-3.1369-1.2961l-7.1505 2.9692q-2.2165 0.9204-1.2961 3.1369z" clip-path="url(#a)" fill="#fff" stroke="#fff"/>
<g clip-path="url(#a)">
<g transform="translate(611.49 765.39) rotate(67.449) scale(.08 -.08)">
<use xlink:href="#p"/>
</g>
</g>
<path d="m584.31 765.37 1.054 5.7593q0.43205 2.3608 2.7928 1.9287l7.616-1.3938q2.3608-0.43205 1.9287-2.7928l-1.054-5.7593q-0.43205-2.3608-2.7928-1.9287l-7.616 1.3938q-2.3608 0.43205-1.9287 2.7928z" clip-path="url(#a)" fill="#fff" stroke="#fff"/>
<g clip-path="url(#a)">
<g transform="translate(588.31 764.64) rotate(79.629) scale(.08 -.08)">
<use xlink:href="#ab"/>
</g>
</g>
<path d="m474.08 951.99v33.808q0 2.4 2.4 2.4h7.7425q2.4 0 2.4-2.4v-33.808q0-2.4-2.4-2.4h-7.7425q-2.4 0-2.4 2.4z" clip-path="url(#a)" fill="#fff" stroke="#fff"/>
<g clip-path="url(#a)">
<g transform="translate(478.15 951.99) rotate(90) scale(.08 -.08)">
<use xlink:href="#k"/>
<use x="44.083984" xlink:href="#g"/>
<use x="105.607422" xlink:href="#h"/>
<use x="144.970703" xlink:href="#l"/>
<use x="242.382812" xlink:href="#f"/>
<use x="270.166016" xlink:href="#c"/>
<use x="333.544922" xlink:href="#e"/>
<use x="394.824219" xlink:href="#i"/>
</g>
</g>
<path d="m536.58 986.38 3.6133-33.614q0.25651-2.3863-2.1297-2.6428l-7.6982-0.82752q-2.3863-0.25651-2.6428 2.1297l-3.6133 33.614q-0.25651 2.3863 2.1297 2.6428l7.6982 0.82752q2.3863 0.25651 2.6428-2.1297z" clip-path="url(#a)" fill="#fff" stroke="#fff"/>
<g clip-path="url(#a)">
<g transform="translate(532.54 985.94) rotate(-83.865) scale(.08 -.08)">
<use xlink:href="#k"/>
<use x="44.083984" xlink:href="#g"/>
<use x="105.607422" xlink:href="#h"/>
<use x="144.970703" xlink:href="#l"/>
<use x="242.382812" xlink:href="#f"/>
<use x="270.166016" xlink:href="#c"/>
<use x="333.544922" xlink:href="#e"/>
<use x="394.824219" xlink:href="#i"/>
</g>
</g>
<path d="m545.65 952.76 3.6133 33.614q0.25651 2.3863 2.6428 2.1297l7.6982-0.82752q2.3863-0.25651 2.1297-2.6428l-3.6133-33.614q-0.25651-2.3863-2.6428-2.1297l-7.6982 0.82752q-2.3863 0.25651-2.1297 2.6428z" clip-path="url(#a)" fill="#fff" stroke="#fff"/>
<g clip-path="url(#a)">
<g transform="translate(549.69 952.33) rotate(83.865) scale(.08 -.08)">
<use xlink:href="#k"/>
<use x="44.083984" xlink:href="#g"/>
<use x="105.607422" xlink:href="#h"/>
<use x="144.970703" xlink:href="#l"/>
<use x="242.382812" xlink:href="#f"/>
<use x="270.166016" xlink:href="#c"/>
<use x="333.544922" xlink:href="#e"/>
<use x="394.824219" xlink:href="#i"/>
</g>
</g>
<path d="m650.51 951.99v33.808q0 2.4 2.4 2.4h7.7425q2.4 0 2.4-2.4v-33.808q0-2.4-2.4-2.4h-7.7425q-2.4 0-2.4 2.4z" clip-path="url(#a)" fill="#fff" stroke="#fff"/>
<g clip-path="url(#a)">
<g transform="translate(654.57 951.99) rotate(90) scale(.08 -.08)">
<use xlink:href="#k"/>
<use x="44.083984" xlink:href="#g"/>
<use x="105.607422" xlink:href="#h"/>
<use x="144.970703" xlink:href="#l"/>
<use x="242.382812" xlink:href="#f"/>
<use x="270.166016" xlink:href="#c"/>
<use x="333.544922" xlink:href="#e"/>
<use x="394.824219" xlink:href="#i"/>
</g>
</g>
<path d="m299.71 951.99v33.808q0 2.4 2.4 2.4h7.7425q2.4 0 2.4-2.4v-33.808q0-2.4-2.4-2.4h-7.7425q-2.4 0-2.4 2.4z" clip-path="url(#a)" fill="#fff" stroke="#fff"/>
<g clip-path="url(#a)">
<g transform="translate(303.77 951.99) rotate(90) scale(.08 -.08)">
<use xlink:href="#k"/>
<use x="44.083984" xlink:href="#g"/>
<use x="105.607422" xlink:href="#h"/>
<use x="144.970703" xlink:href="#l"/>
<use x="242.382812" xlink:href="#f"/>
<use x="270.166016" xlink:href="#c"/>
<use x="333.544922" xlink:href="#e"/>
<use x="394.824219" xlink:href="#i"/>
</g>
</g>
<path d="m330.48 951.99v33.808q0 2.4 2.4 2.4h7.7425q2.4 0 2.4-2.4v-33.808q0-2.4-2.4-2.4h-7.7425q-2.4 0-2.4 2.4z" clip-path="url(#a)" fill="#fff" stroke="#fff"/>
<g clip-path="url(#a)">
<g transform="translate(334.54 951.99) rotate(90) scale(.08 -.08)">
<use xlink:href="#k"/>
<use x="44.083984" xlink:href="#g"/>
<use x="105.607422" xlink:href="#h"/>
<use x="144.970703" xlink:href="#l"/>
<use x="242.382812" xlink:href="#f"/>
<use x="270.166016" xlink:href="#c"/>
<use x="333.544922" xlink:href="#e"/>
<use x="394.824219" xlink:href="#i"/>
</g>
</g>
<path d="m390.57 986.64 5.907-33.287q0.41934-2.3631-1.9437-2.7824l-7.6234-1.3528q-2.3631-0.41934-2.7824 1.9437l-5.907 33.287q-0.41934 2.3631 1.9437 2.7824l7.6234 1.3528q2.3631 0.41934 2.7824-1.9437z" clip-path="url(#a)" fill="#fff" stroke="#fff"/>
<g clip-path="url(#a)">
<g transform="translate(386.57 985.93) rotate(-79.937) scale(.08 -.08)">
<use xlink:href="#k"/>
<use x="44.083984" xlink:href="#g"/>
<use x="105.607422" xlink:href="#h"/>
<use x="144.970703" xlink:href="#l"/>
<use x="242.382812" xlink:href="#f"/>
<use x="270.166016" xlink:href="#c"/>
<use x="333.544922" xlink:href="#e"/>
<use x="394.824219" xlink:href="#i"/>
</g>
</g>
<path d="m411 985.82 0.11537-33.807q0.00819-2.4-2.3918-2.4082l-7.7425-0.026421q-2.4-0.00819-2.4082 2.3918l-0.11537 33.807q-0.00819 2.4 2.3918 2.4082l7.7425 0.026422q2.4 0.00819 2.4082-2.3918z" clip-path="url(#a)" fill="#fff" stroke="#fff"/>
<g clip-path="url(#a)">
<g transform="translate(406.94 985.81) rotate(-89.804) scale(.08 -.08)">
<use xlink:href="#k"/>
<use x="44.083984" xlink:href="#g"/>
<use x="105.607422" xlink:href="#h"/>
<use x="144.970703" xlink:href="#l"/>
<use x="242.382812" xlink:href="#f"/>
<use x="270.166016" xlink:href="#c"/>
<use x="333.544922" xlink:href="#e"/>
<use x="394.824219" xlink:href="#i"/>
</g>
</g>
<path d="m414.07 953.38 6.017 33.268q0.42715 2.3617 2.7888 1.9345l7.6189-1.378q2.3617-0.42715 1.9345-2.7888l-6.017-33.268q-0.42715-2.3617-2.7888-1.9345l-7.6189 1.378q-2.3617 0.42715-1.9345 2.7888z" clip-path="url(#a)" fill="#fff" stroke="#fff"/>
<g clip-path="url(#a)">
<g transform="translate(418.07 952.66) rotate(79.748) scale(.08 -.08)">
<use xlink:href="#k"/>
<use x="44.083984" xlink:href="#g"/>
<use x="105.607422" xlink:href="#h"/>
<use x="144.970703" xlink:href="#l"/>
<use x="242.382812" xlink:href="#f"/>
<use x="270.166016" xlink:href="#c"/>
<use x="333.544922" xlink:href="#e"/>
<use x="394.824219" xlink:href="#i"/>
</g>
</g>
<path d="m176.62 951.99v33.808q0 2.4 2.4 2.4h7.7425q2.4 0 2.4-2.4v-33.808q0-2.4-2.4-2.4h-7.7425q-2.4 0-2.4 2.4z" clip-path="url(#a)" fill="#fff" stroke="#fff"/>
<g clip-path="url(#a)">
<g transform="translate(180.68 951.99) rotate(90) scale(.08 -.08)">
<use xlink:href="#k"/>
<use x="44.083984" xlink:href="#g"/>
<use x="105.607422" xlink:href="#h"/>
<use x="144.970703" xlink:href="#l"/>
<use x="242.382812" xlink:href="#f"/>
<use x="270.166016" xlink:href="#c"/>
<use x="333.544922" xlink:href="#e"/>
<use x="394.824219" xlink:href="#i"/>
</g>
</g>
<path d="m197.13 951.99v33.808q0 2.4 2.4 2.4h7.7425q2.4 0 2.4-2.4v-33.808q0-2.4-2.4-2.4h-7.7425q-2.4 0-2.4 2.4z" clip-path="url(#a)" fill="#fff" stroke="#fff"/>
<g clip-path="url(#a)">
<g transform="translate(201.2 951.99) rotate(90) scale(.08 -.08)">
<use xlink:href="#k"/>
<use x="44.083984" xlink:href="#g"/>
<use x="105.607422" xlink:href="#h"/>
<use x="144.970703" xlink:href="#l"/>
<use x="242.382812" xlink:href="#f"/>
<use x="270.166016" xlink:href="#c"/>
<use x="333.544922" xlink:href="#e"/>
<use x="394.824219" xlink:href="#i"/>
</g>
</g>
<path d="m237.35 986.15 2.0728-33.744q0.14714-2.3955-2.2483-2.5426l-7.7279-0.4747q-2.3955-0.14714-2.5426 2.2483l-2.0728 33.744q-0.14715 2.3955 2.2483 2.5426l7.7279 0.4747q2.3955 0.14715 2.5426-2.2483z" clip-path="url(#a)" fill="#fff" stroke="#fff"/>
<g clip-path="url(#a)">
<g transform="translate(233.29 985.91) rotate(-86.485) scale(.08 -.08)">
<use xlink:href="#k"/>
<use x="44.083984" xlink:href="#g"/>
<use x="105.607422" xlink:href="#h"/>
<use x="144.970703" xlink:href="#l"/>
<use x="242.382812" xlink:href="#f"/>
<use x="270.166016" xlink:href="#c"/>
<use x="333.544922" xlink:href="#e"/>
<use x="394.824219" xlink:href="#i"/>
</g>
</g>
<path d="m237.14 952.41 2.0728 33.744q0.14715 2.3955 2.5426 2.2483l7.7279-0.4747q2.3955-0.14714 2.2483-2.5426l-2.0728-33.744q-0.14714-2.3955-2.5426-2.2483l-7.7279 0.4747q-2.3955 0.14714-2.2483 2.5426z" clip-path="url(#a)" fill="#fff" stroke="#fff"/>
<g clip-path="url(#a)">
<g transform="translate(241.19 952.16) rotate(86.485) scale(.08 -.08)">
<use xlink:href="#k"/>
<use x="44.083984" xlink:href="#g"/>
<use x="105.607422" xlink:href="#h"/>
<use x="144.970703" xlink:href="#l"/>
<use x="242.382812" xlink:href="#f"/>
<use x="270.166016" xlink:href="#c"/>
<use x="333.544922" xlink:href="#e"/>
<use x="394.824219" xlink:href="#i"/>
</g>
</g>
<path d="m270.99 951.99v33.808q0 2.4 2.4 2.4h7.7425q2.4 0 2.4-2.4v-33.808q0-2.4-2.4-2.4h-7.7425q-2.4 0-2.4 2.4z" clip-path="url(#a)" fill="#fff" stroke="#fff"/>
<g clip-path="url(#a)">
<g transform="translate(275.05 951.99) rotate(90) scale(.08 -.08)">
<use xlink:href="#k"/>
<use x="44.083984" xlink:href="#g"/>
<use x="105.607422" xlink:href="#h"/>
<use x="144.970703" xlink:href="#l"/>
<use x="242.382812" xlink:href="#f"/>
<use x="270.166016" xlink:href="#c"/>
<use x="333.544922" xlink:href="#e"/>
<use x="394.824219" xlink:href="#i"/>
</g>
</g>
<path d="m90.456 951.99v33.808q0 2.4 2.4 2.4h7.7425q2.4 0 2.4-2.4v-33.808q0-2.4-2.4-2.4h-7.7425q-2.4 0-2.4 2.4z" clip-path="url(#a)" fill="#fff" stroke="#fff"/>
<g clip-path="url(#a)">
<g transform="translate(94.52 951.99) rotate(90) scale(.08 -.08)">
<use xlink:href="#k"/>
<use x="44.083984" xlink:href="#g"/>
<use x="105.607422" xlink:href="#h"/>
<use x="144.970703" xlink:href="#l"/>
<use x="242.382812" xlink:href="#f"/>
<use x="270.166016" xlink:href="#c"/>
<use x="333.544922" xlink:href="#e"/>
<use x="394.824219" xlink:href="#i"/>
</g>
</g>
<path d="m96.61 951.99v33.808q0 2.4 2.4 2.4h7.7425q2.4 0 2.4-2.4v-33.808q0-2.4-2.4-2.4h-7.7425q-2.4 0-2.4 2.4z" clip-path="url(#a)" fill="#fff" stroke="#fff"/>
<g clip-path="url(#a)">
<g transform="translate(100.67 951.99) rotate(90) scale(.08 -.08)">
<use xlink:href="#k"/>
<use x="44.083984" xlink:href="#g"/>
<use x="105.607422" xlink:href="#h"/>
<use x="144.970703" xlink:href="#l"/>
<use x="242.382812" xlink:href="#f"/>
<use x="270.166016" xlink:href="#c"/>
<use x="333.544922" xlink:href="#e"/>
<use x="394.824219" xlink:href="#i"/>
</g>
</g>
<path d="m104.82 951.99v33.808q0 2.4 2.4 2.4h7.7425q2.4 0 2.4-2.4v-33.808q0-2.4-2.4-2.4h-7.7425q-2.4 0-2.4 2.4z" clip-path="url(#a)" fill="#fff" stroke="#fff"/>
<g clip-path="url(#a)">
<g transform="translate(108.88 951.99) rotate(90) scale(.08 -.08)">
<use xlink:href="#k"/>
<use x="44.083984" xlink:href="#g"/>
<use x="105.607422" xlink:href="#h"/>
<use x="144.970703" xlink:href="#l"/>
<use x="242.382812" xlink:href="#f"/>
<use x="270.166016" xlink:href="#c"/>
<use x="333.544922" xlink:href="#e"/>
<use x="394.824219" xlink:href="#i"/>
</g>
</g>
<path d="m115.07 951.99v33.808q0 2.4 2.4 2.4h7.7425q2.4 0 2.4-2.4v-33.808q0-2.4-2.4-2.4h-7.7425q-2.4 0-2.4 2.4z" clip-path="url(#a)" fill="#fff" stroke="#fff"/>
<g clip-path="url(#a)">
<g transform="translate(119.14 951.99) rotate(90) scale(.08 -.08)">
<use xlink:href="#k"/>
<use x="44.083984" xlink:href="#g"/>
<use x="105.607422" xlink:href="#h"/>
<use x="144.970703" xlink:href="#l"/>
<use x="242.382812" xlink:href="#f"/>
<use x="270.166016" xlink:href="#c"/>
<use x="333.544922" xlink:href="#e"/>
<use x="394.824219" xlink:href="#i"/>
</g>
</g>
<path d="m603.33 951.99v33.808q0 2.4 2.4 2.4h7.7425q2.4 0 2.4-2.4v-33.808q0-2.4-2.4-2.4h-7.7425q-2.4 0-2.4 2.4z" clip-path="url(#a)" fill="#fff" stroke="#fff"/>
<g clip-path="url(#a)">
<g transform="translate(607.39 951.99) rotate(90) scale(.08 -.08)">
<use xlink:href="#k"/>
<use x="44.083984" xlink:href="#g"/>
<use x="105.607422" xlink:href="#h"/>
<use x="144.970703" xlink:href="#l"/>
<use x="242.382812" xlink:href="#f"/>
<use x="270.166016" xlink:href="#c"/>
<use x="333.544922" xlink:href="#e"/>
<use x="394.824219" xlink:href="#i"/>
</g>
</g>
<path d="m699.75 951.99v33.808q0 2.4 2.4 2.4h7.7425q2.4 0 2.4-2.4v-33.808q0-2.4-2.4-2.4h-7.7425q-2.4 0-2.4 2.4z" clip-path="url(#a)" fill="#fff" stroke="#fff"/>
<g clip-path="url(#a)">
<g transform="translate(703.81 951.99) rotate(90) scale(.08 -.08)">
<use xlink:href="#k"/>
<use x="44.083984" xlink:href="#g"/>
<use x="105.607422" xlink:href="#h"/>
<use x="144.970703" xlink:href="#l"/>
<use x="242.382812" xlink:href="#f"/>
<use x="270.166016" xlink:href="#c"/>
<use x="333.544922" xlink:href="#e"/>
<use x="394.824219" xlink:href="#i"/>
</g>
</g>
<path d="m2025 951.99v33.808q0 2.4 2.4 2.4h7.7425q2.4 0 2.4-2.4v-33.808q0-2.4-2.4-2.4h-7.7425q-2.4 0-2.4 2.4z" clip-path="url(#a)" fill="#fff" stroke="#fff"/>
<g clip-path="url(#a)">
<g transform="translate(2029.1 951.99) rotate(90) scale(.08 -.08)">
<use xlink:href="#k"/>
<use x="44.083984" xlink:href="#g"/>
<use x="105.607422" xlink:href="#h"/>
<use x="144.970703" xlink:href="#l"/>
<use x="242.382812" xlink:href="#f"/>
<use x="270.166016" xlink:href="#c"/>
<use x="333.544922" xlink:href="#e"/>
<use x="394.824219" xlink:href="#i"/>
</g>
</g>
<defs>
<path id="b" d="m0 8.6603c2.2967 0 4.4997-0.9125 6.1237-2.5365 1.624-1.624 2.5365-3.827 2.5365-6.1237s-0.9125-4.4997-2.5365-6.1237c-1.624-1.624-3.827-2.5365-6.1237-2.5365s-4.4997 0.9125-6.1237 2.5365c-1.624 1.624-2.5365 3.827-2.5365 6.1237s0.9125 4.4997 2.5365 6.1237c1.624 1.624 3.827 2.5365 6.1237 2.5365z"/>
</defs>
<g clip-path="url(#a)">
<use x="96.727273" y="1069.090909" fill="#ffffff" stroke="#ffffff" xlink:href="#b"/>
</g>
<g clip-path="url(#a)">
<use x="102.881712" y="1069.090909" fill="#ffffff" stroke="#ffffff" xlink:href="#b"/>
</g>
<g clip-path="url(#a)">
<use x="111.087631" y="1069.090909" fill="#ffffff" stroke="#ffffff" xlink:href="#b"/>
</g>
<g clip-path="url(#a)">
<use x="121.34503" y="1069.090909" fill="#ffffff" stroke="#ffffff" xlink:href="#b"/>
</g>
<g clip-path="url(#a)">
<use x="133.653909" y="1069.090909" fill="#ffffff" stroke="#ffffff" xlink:href="#b"/>
</g>
<g clip-path="url(#a)">
<use x="148.014268" y="1069.090909" fill="#ffffff" stroke="#ffffff" xlink:href="#b"/>
</g>
<g clip-path="url(#a)">
<use x="164.426106" y="1069.090909" fill="#ffffff" stroke="#ffffff" xlink:href="#b"/>
</g>
<g clip-path="url(#a)">
<use x="182.889424" y="1069.090909" fill="#ffffff" stroke="#ffffff" xlink:href="#b"/>
</g>
<g clip-path="url(#a)">
<use x="203.404223" y="1069.090909" fill="#ffffff" stroke="#ffffff" xlink:href="#b"/>
</g>
<g clip-path="url(#a)">
<use x="225.9705" y="1069.090909" fill="#ffffff" stroke="#ffffff" xlink:href="#b"/>
</g>
<g clip-path="url(#a)">
<use x="250.588258" y="1069.090909" fill="#ffffff" stroke="#ffffff" xlink:href="#b"/>
</g>
<g clip-path="url(#a)">
<use x="277.257495" y="1069.090909" fill="#ffffff" stroke="#ffffff" xlink:href="#b"/>
</g>
<g clip-path="url(#a)">
<use x="305.978213" y="1069.090909" fill="#ffffff" stroke="#ffffff" xlink:href="#b"/>
</g>
<g clip-path="url(#a)">
<use x="336.75041" y="1069.090909" fill="#ffffff" stroke="#ffffff" xlink:href="#b"/>
</g>
<g clip-path="url(#a)">
<use x="369.574087" y="1069.090909" fill="#ffffff" stroke="#ffffff" xlink:href="#b"/>
</g>
<g clip-path="url(#a)">
<use x="404.449243" y="1069.090909" fill="#ffffff" stroke="#ffffff" xlink:href="#b"/>
</g>
<g clip-path="url(#a)">
<use x="441.37588" y="1069.090909" fill="#ffffff" stroke="#ffffff" xlink:href="#b"/>
</g>
<g clip-path="url(#a)">
<use x="480.353996" y="1069.090909" fill="#ffffff" stroke="#ffffff" xlink:href="#b"/>
</g>
<g clip-path="url(#a)">
<use x="521.383592" y="1069.090909" fill="#ffffff" stroke="#ffffff" xlink:href="#b"/>
</g>
<g clip-path="url(#a)">
<use x="564.464668" y="1069.090909" fill="#ffffff" stroke="#ffffff" xlink:href="#b"/>
</g>
<g clip-path="url(#a)">
<use x="609.597224" y="1069.090909" fill="#ffffff" stroke="#ffffff" xlink:href="#b"/>
</g>
<g clip-path="url(#a)">
<use x="656.781259" y="1069.090909" fill="#ffffff" stroke="#ffffff" xlink:href="#b"/>
</g>
<g clip-path="url(#a)">
<use x="706.016774" y="1069.090909" fill="#ffffff" stroke="#ffffff" xlink:href="#b"/>
</g>
<g clip-path="url(#a)">
<use x="757.303769" y="1069.090909" fill="#ffffff" stroke="#ffffff" xlink:href="#b"/>
</g>
<g clip-path="url(#a)">
<use x="810.642244" y="1069.090909" fill="#ffffff" stroke="#ffffff" xlink:href="#b"/>
</g>
<g clip-path="url(#a)">
<use x="866.032199" y="1069.090909" fill="#ffffff" stroke="#ffffff" xlink:href="#b"/>
</g>
<g clip-path="url(#a)">
<use x="923.473633" y="1069.090909" fill="#ffffff" stroke="#ffffff" xlink:href="#b"/>
</g>
<g clip-path="url(#a)">
<use x="982.966548" y="1069.090909" fill="#ffffff" stroke="#ffffff" xlink:href="#b"/>
</g>
<g clip-path="url(#a)">
<use x="1044.510942" y="1069.090909" fill="#ffffff" stroke="#ffffff" xlink:href="#b"/>
</g>
<g clip-path="url(#a)">
<use x="1108.106816" y="1069.090909" fill="#ffffff" stroke="#ffffff" xlink:href="#b"/>
</g>
<g clip-path="url(#a)">
<use x="1173.754169" y="1069.090909" fill="#ffffff" stroke="#ffffff" xlink:href="#b"/>
</g>
<g clip-path="url(#a)">
<use x="1241.453003" y="1069.090909" fill="#ffffff" stroke="#ffffff" xlink:href="#b"/>
</g>
<g clip-path="url(#a)">
<use x="1311.203316" y="1069.090909" fill="#ffffff" stroke="#ffffff" xlink:href="#b"/>
</g>
<g clip-path="url(#a)">
<use x="1383.005109" y="1069.090909" fill="#ffffff" stroke="#ffffff" xlink:href="#b"/>
</g>
<g clip-path="url(#a)">
<use x="1456.858382" y="1069.090909" fill="#ffffff" stroke="#ffffff" xlink:href="#b"/>
</g>
<g clip-path="url(#a)">
<use x="1532.763135" y="1069.090909" fill="#ffffff" stroke="#ffffff" xlink:href="#b"/>
</g>
<g clip-path="url(#a)">
<use x="1610.719368" y="1069.090909" fill="#ffffff" stroke="#ffffff" xlink:href="#b"/>
</g>
<g clip-path="url(#a)">
<use x="1690.72708" y="1069.090909" fill="#ffffff" stroke="#ffffff" xlink:href="#b"/>
</g>
<g clip-path="url(#a)">
<use x="1772.786272" y="1069.090909" fill="#ffffff" stroke="#ffffff" xlink:href="#b"/>
</g>
<g clip-path="url(#a)">
<use x="1856.896944" y="1069.090909" fill="#ffffff" stroke="#ffffff" xlink:href="#b"/>
</g>
<g clip-path="url(#a)">
<use x="1943.059096" y="1069.090909" fill="#ffffff" stroke="#ffffff" xlink:href="#b"/>
</g>
<g clip-path="url(#a)">
<use x="2031.272727" y="1069.090909" fill="#ffffff" stroke="#ffffff" xlink:href="#b"/>
</g>
<g clip-path="url(#a)">
<use x="816.042337" y="50.909091" fill="#ffffff" stroke="#ffffff" xlink:href="#b"/>
</g>
<g clip-path="url(#a)">
<use x="227.270483" y="461.294541" fill="#ffffff" stroke="#ffffff" xlink:href="#b"/>
</g>
<g clip-path="url(#a)">
<use x="595.578778" y="461.294541" fill="#ffffff" stroke="#ffffff" xlink:href="#b"/>
</g>
<g clip-path="url(#a)">
<use x="1076.308879" y="665.532939" fill="#ffffff" stroke="#ffffff" xlink:href="#b"/>
</g>
<g clip-path="url(#a)">
<use x="1475.036773" y="256.361034" fill="#ffffff" stroke="#ffffff" xlink:href="#b"/>
</g>
<g clip-path="url(#a)">
<use x="1207.603586" y="665.532939" fill="#ffffff" stroke="#ffffff" xlink:href="#b"/>
</g>
<g clip-path="url(#a)">
<use x="1742.469959" y="461.294541" fill="#ffffff" stroke="#ffffff" xlink:href="#b"/>
</g>
<g clip-path="url(#a)">
<use x="1421.299399" y="665.532939" fill="#ffffff" stroke="#ffffff" xlink:href="#b"/>
</g>
<g clip-path="url(#a)">
<use x="1774.837752" y="868.705713" fill="#ffffff" stroke="#ffffff" xlink:href="#b"/>
</g>
<g clip-path="url(#a)">
<use x="1311.203316" y="868.705713" fill="#ffffff" stroke="#ffffff" xlink:href="#b"/>
</g>
<g clip-path="url(#a)">
<use x="1419.931746" y="868.705713" fill="#ffffff" stroke="#ffffff" xlink:href="#b"/>
</g>
<g clip-path="url(#a)">
<use x="1532.763135" y="868.705713" fill="#ffffff" stroke="#ffffff" xlink:href="#b"/>
</g>
<g clip-path="url(#a)">
<use x="1173.754169" y="868.705713" fill="#ffffff" stroke="#ffffff" xlink:href="#b"/>
</g>
<g clip-path="url(#a)">
<use x="1241.453003" y="868.705713" fill="#ffffff" stroke="#ffffff" xlink:href="#b"/>
</g>
<g clip-path="url(#a)">
<use x="1044.510942" y="868.705713" fill="#ffffff" stroke="#ffffff" xlink:href="#b"/>
</g>
<g clip-path="url(#a)">
<use x="1108.106816" y="868.705713" fill="#ffffff" stroke="#ffffff" xlink:href="#b"/>
</g>
<g clip-path="url(#a)">
<use x="757.303769" y="868.705713" fill="#ffffff" stroke="#ffffff" xlink:href="#b"/>
</g>
<g clip-path="url(#a)">
<use x="895.778656" y="665.532939" fill="#ffffff" stroke="#ffffff" xlink:href="#b"/>
</g>
<g clip-path="url(#a)">
<use x="810.642244" y="868.705713" fill="#ffffff" stroke="#ffffff" xlink:href="#b"/>
</g>
<g clip-path="url(#a)">
<use x="866.032199" y="868.705713" fill="#ffffff" stroke="#ffffff" xlink:href="#b"/>
</g>
<g clip-path="url(#a)">
<use x="923.473633" y="868.705713" fill="#ffffff" stroke="#ffffff" xlink:href="#b"/>
</g>
<g clip-path="url(#a)">
<use x="982.966548" y="868.705713" fill="#ffffff" stroke="#ffffff" xlink:href="#b"/>
</g>
<g clip-path="url(#a)">
<use x="103.565539" y="665.532939" fill="#ffffff" stroke="#ffffff" xlink:href="#b"/>
</g>
<g clip-path="url(#a)">
<use x="133.653909" y="868.705713" fill="#ffffff" stroke="#ffffff" xlink:href="#b"/>
</g>
<g clip-path="url(#a)">
<use x="148.014268" y="868.705713" fill="#ffffff" stroke="#ffffff" xlink:href="#b"/>
</g>
<g clip-path="url(#a)">
<use x="164.426106" y="868.705713" fill="#ffffff" stroke="#ffffff" xlink:href="#b"/>
</g>
<g clip-path="url(#a)">
<use x="225.45763" y="665.532939" fill="#ffffff" stroke="#ffffff" xlink:href="#b"/>
</g>
<g clip-path="url(#a)">
<use x="349.287231" y="665.532939" fill="#ffffff" stroke="#ffffff" xlink:href="#b"/>
</g>
<g clip-path="url(#a)">
<use x="572.414152" y="665.532939" fill="#ffffff" stroke="#ffffff" xlink:href="#b"/>
</g>
<g clip-path="url(#a)">
<use x="480.353996" y="868.705713" fill="#ffffff" stroke="#ffffff" xlink:href="#b"/>
</g>
<g clip-path="url(#a)">
<use x="542.92413" y="868.705713" fill="#ffffff" stroke="#ffffff" xlink:href="#b"/>
</g>
<g clip-path="url(#a)">
<use x="656.781259" y="868.705713" fill="#ffffff" stroke="#ffffff" xlink:href="#b"/>
</g>
<g clip-path="url(#a)">
<use x="305.978213" y="868.705713" fill="#ffffff" stroke="#ffffff" xlink:href="#b"/>
</g>
<g clip-path="url(#a)">
<use x="336.75041" y="868.705713" fill="#ffffff" stroke="#ffffff" xlink:href="#b"/>
</g>
<g clip-path="url(#a)">
<use x="405.13307" y="868.705713" fill="#ffffff" stroke="#ffffff" xlink:href="#b"/>
</g>
<g clip-path="url(#a)">
<use x="182.889424" y="868.705713" fill="#ffffff" stroke="#ffffff" xlink:href="#b"/>
</g>
<g clip-path="url(#a)">
<use x="203.404223" y="868.705713" fill="#ffffff" stroke="#ffffff" xlink:href="#b"/>
</g>
<g clip-path="url(#a)">
<use x="238.279379" y="868.705713" fill="#ffffff" stroke="#ffffff" xlink:href="#b"/>
</g>
<g clip-path="url(#a)">
<use x="277.257495" y="868.705713" fill="#ffffff" stroke="#ffffff" xlink:href="#b"/>
</g>
<g clip-path="url(#a)">
<use x="96.727273" y="868.705713" fill="#ffffff" stroke="#ffffff" xlink:href="#b"/>
</g>
<g clip-path="url(#a)">
<use x="102.881712" y="868.705713" fill="#ffffff" stroke="#ffffff" xlink:href="#b"/>
</g>
<g clip-path="url(#a)">
<use x="111.087631" y="868.705713" fill="#ffffff" stroke="#ffffff" xlink:href="#b"/>
</g>
<g clip-path="url(#a)">
<use x="121.34503" y="868.705713" fill="#ffffff" stroke="#ffffff" xlink:href="#b"/>
</g>
<g clip-path="url(#a)">
<use x="609.597224" y="868.705713" fill="#ffffff" stroke="#ffffff" xlink:href="#b"/>
</g>
<g clip-path="url(#a)">
<use x="706.016774" y="868.705713" fill="#ffffff" stroke="#ffffff" xlink:href="#b"/>
</g>
<g clip-path="url(#a)">
<use x="2031.272727" y="868.705713" fill="#ffffff" stroke="#ffffff" xlink:href="#b"/>
</g>
<g clip-path="url(#a)">
<defs>
<path id="ax" d="m9.8125 72.906h9.8594v-72.906h-9.8594z"/>
</defs>
<g transform="translate(92.084 1071.9) scale(.1 -.1)">
<use xlink:href="#ax"/>
<use x="29.492188" xlink:href="#c"/>
</g>
</g>
<g clip-path="url(#a)">
<defs>
<path id="aa" d="m8.5 21.578v33.109h8.9844v-32.766q0-7.7656 3.0156-11.656 3.0312-3.875 9.0938-3.875 7.2656 0 11.484 4.6406 4.2344 4.6406 4.2344 12.656v31h8.9844v-54.688h-8.9844v8.4062q-3.2656-4.9844-7.5938-7.4062-4.3125-2.4219-10.031-2.4219-9.4219 0-14.312 5.8594-4.875 5.8594-4.875 17.141z"/>
<path id="ai" d="m45.406 27.984q0 9.7656-4.0312 15.125-4.0156 5.375-11.297 5.375-7.2188 0-11.25-5.375-4.0312-5.3594-4.0312-15.125 0-9.7188 4.0312-15.094t11.25-5.375q7.2812 0 11.297 5.375 4.0312 5.375 4.0312 15.094zm8.9844-21.203q0-13.953-6.2031-20.766-6.1875-6.8125-18.984-6.8125-4.7344 0-8.9375 0.70312t-8.1562 2.1719v8.7344q3.9531-2.1406 7.8125-3.1562 3.8594-1.0312 7.8594-1.0312 8.8438 0 13.234 4.6094t4.3906 13.938v4.4531q-2.7812-4.8438-7.125-7.2344t-10.406-2.3906q-10.047 0-16.203 7.6562-6.1562 7.6719-6.1562 20.328 0 12.688 6.1562 20.344 6.1562 7.6719 16.203 7.6719 6.0625 0 10.406-2.3906t7.125-7.2188v8.2969h8.9844z"/>
<path id="r" d="m44.281 53.078v-8.5q-3.7969 1.9531-7.9062 2.9219-4.0938 0.98438-8.5 0.98438-6.6875 0-10.031-2.0469t-3.3438-6.1562q0-3.125 2.3906-4.9062t9.625-3.3906l3.0781-0.6875q9.5625-2.0469 13.594-5.7812t4.0312-10.422q0-7.625-6.0312-12.078-6.0312-4.4375-16.578-4.4375-4.3906 0-9.1562 0.85938t-10.031 2.5625v9.2812q4.9844-2.5938 9.8125-3.8906 4.8281-1.2812 9.5781-1.2812 6.3438 0 9.75 2.1719 3.4219 2.1719 3.4219 6.125 0 3.6562-2.4688 5.6094-2.4531 1.9531-10.812 3.7656l-3.125 0.73438q-8.3438 1.75-12.062 5.3906-3.7031 3.6406-3.7031 9.9844 0 7.7188 5.4688 11.906 5.4688 4.2031 15.531 4.2031 4.9688 0 9.3594-0.73438 4.4062-0.71875 8.1094-2.1875z"/>
<path id="o" d="m18.312 70.219v-15.531h18.5v-6.9844h-18.5v-29.688q0-6.6875 1.8281-8.5938t7.4531-1.9062h9.2188v-7.5156h-9.2188q-10.406 0-14.359 3.875-3.9531 3.8906-3.9531 14.141v29.688h-6.5938v6.9844h6.5938v15.531z"/>
</defs>
<g transform="translate(85.385 1071.9) scale(.1 -.1)">
<use xlink:href="#t"/>
<use x="68.408203" xlink:href="#aa"/>
<use x="131.787109" xlink:href="#ai"/>
<use x="195.263672" xlink:href="#aa"/>
<use x="258.642578" xlink:href="#r"/>
<use x="310.742188" xlink:href="#o"/>
</g>
</g>
<g clip-path="url(#a)">
<defs>
<path id="n" d="m19.188 8.2969h34.422v-8.2969h-46.281v8.2969q5.6094 5.8125 15.297 15.594 9.7031 9.7969 12.188 12.641 4.7344 5.3125 6.6094 9 1.8906 3.6875 1.8906 7.25 0 5.8125-4.0781 9.4688-4.0781 3.6719-10.625 3.6719-4.6406 0-9.7969-1.6094-5.1406-1.6094-11-4.8906v9.9688q5.9531 2.3906 11.125 3.6094 5.1875 1.2188 9.4844 1.2188 11.328 0 18.062-5.6719 6.7344-5.6562 6.7344-15.125 0-4.5-1.6875-8.5312-1.6719-4.0156-6.125-9.4844-1.2188-1.4219-7.7656-8.1875-6.5312-6.7656-18.453-18.922z"/>
<path id="w" d="m31.781 66.406q-7.6094 0-11.453-7.5-3.8281-7.4844-3.8281-22.531 0-14.984 3.8281-22.484 3.8438-7.5 11.453-7.5 7.6719 0 11.5 7.5 3.8438 7.5 3.8438 22.484 0 15.047-3.8438 22.531-3.8281 7.5-11.5 7.5zm0 7.8125q12.266 0 18.734-9.7031 6.4688-9.6875 6.4688-28.141 0-18.406-6.4688-28.109-6.4688-9.6875-18.734-9.6875-12.25 0-18.719 9.6875-6.4688 9.7031-6.4688 28.109 0 18.453 6.4688 28.141 6.4688 9.7031 18.719 9.7031z"/>
<path id="x" d="m31.781 34.625q-7.0312 0-11.062-3.7656-4.0156-3.7656-4.0156-10.344 0-6.5938 4.0156-10.359 4.0312-3.7656 11.062-3.7656t11.078 3.7812q4.0625 3.7969 4.0625 10.344 0 6.5781-4.0312 10.344-4.0156 3.7656-11.109 3.7656zm-9.8594 4.1875q-6.3438 1.5625-9.8906 5.9062-3.5312 4.3594-3.5312 10.609 0 8.7344 6.2188 13.812 6.2344 5.0781 17.062 5.0781 10.891 0 17.094-5.0781t6.2031-13.812q0-6.25-3.5469-10.609-3.5312-4.3438-9.8281-5.9062 7.125-1.6562 11.094-6.5 3.9844-4.8281 3.9844-11.797 0-10.609-6.4688-16.281-6.4688-5.6562-18.531-5.6562-12.047 0-18.531 5.6562-6.4688 5.6719-6.4688 16.281 0 6.9688 4 11.797 4.0156 4.8438 11.141 6.5zm-3.6094 15.578q0-5.6562 3.5312-8.8281 3.5469-3.1719 9.9375-3.1719 6.3594 0 9.9375 3.1719 3.5938 3.1719 3.5938 8.8281 0 5.6719-3.5938 8.8438-3.5781 3.1719-9.9375 3.1719-6.3906 0-9.9375-3.1719-3.5312-3.1719-3.5312-8.8438z"/>
</defs>
<g transform="translate(98.363 1071.9) scale(.1 -.1)">
<use xlink:href="#n"/>
<use x="63.623047" xlink:href="#w"/>
<use x="127.246094" xlink:href="#w"/>
<use x="190.869141" xlink:href="#x"/>
</g>
</g>
<g clip-path="url(#a)">
<defs>
<path id="am" d="m11.719 12.406h10.297v-8.4062l-8-15.625h-6.2969l4 15.625z"/>
</defs>
<g transform="translate(119.76 1071.9) scale(.1 -.1)">
<use xlink:href="#am"/>
</g>
</g>
<g clip-path="url(#a)">
<defs>
<path id="ao" d="m53.516 70.516v-9.625q-5.6094 2.6875-10.594 4-4.9844 1.3281-9.625 1.3281-8.0469 0-12.422-3.125t-4.375-8.8906q0-4.8438 2.9062-7.3125 2.9062-2.4531 11.016-3.9688l5.9531-1.2188q11.031-2.1094 16.281-7.4062t5.25-14.172q0-10.609-7.1094-16.078-7.0938-5.4688-20.812-5.4688-5.1719 0-11.016 1.1719-5.8281 1.1719-12.078 3.4688v10.156q6-3.3594 11.766-5.0781 5.7656-1.7031 11.328-1.7031 8.4375 0 13.031 3.3125 4.5938 3.3281 4.5938 9.4844 0 5.3594-3.2969 8.3906t-10.812 4.5469l-6.0156 1.1719q-11.031 2.1875-15.969 6.875-4.9219 4.6875-4.9219 13.047 0 9.6719 6.8125 15.234t18.766 5.5625q5.1406 0 10.453-0.9375 5.3281-0.92188 10.891-2.7656z"/>
<path id="s" d="m30.609 48.391q-7.2188 0-11.422-5.6406t-4.2031-15.453 4.1719-15.453q4.1875-5.6406 11.453-5.6406 7.1875 0 11.375 5.6562 4.2031 5.6719 4.2031 15.438 0 9.7188-4.2031 15.406-4.1875 5.6875-11.375 5.6875zm0 7.6094q11.719 0 18.406-7.625 6.7031-7.6094 6.7031-21.078 0-13.422-6.7031-21.078-6.6875-7.6406-18.406-7.6406-11.766 0-18.438 7.6406-6.6562 7.6562-6.6562 21.078 0 13.469 6.6562 21.078 6.6719 7.625 18.438 7.625z"/>
<path id="aq" d="m9.0781 75.984h9.0312v-44.875l26.812 23.578h11.469l-29-25.578 30.234-29.109h-11.719l-27.797 26.703v-26.703h-9.0312z"/>
</defs>
<g transform="translate(117.91 1071.9) scale(.1 -.1)">
<use xlink:href="#ao"/>
<use x="63.476562" xlink:href="#s"/>
<use x="124.658203" xlink:href="#h"/>
<use x="165.771484" xlink:href="#aq"/>
<use x="223.681641" xlink:href="#f"/>
<use x="251.464844" xlink:href="#c"/>
</g>
</g>
<g clip-path="url(#a)">
<defs>
<path id="bb" d="m4.2031 54.688h8.9844l11.234-42.672 11.172 42.672h10.594l11.234-42.672 11.188 42.672h8.9844l-14.312-54.688h-10.594l-11.766 44.828-11.812-44.828h-10.609z"/>
</defs>
<g transform="translate(138.26 1071.9) scale(.1 -.1)">
<use xlink:href="#bb"/>
<use x="81.787109" xlink:href="#e"/>
<use x="143.066406" xlink:href="#r"/>
</g>
</g>
<g clip-path="url(#a)">
<defs>
<path id="af" d="m2.9844 54.688h9.5156l17.094-45.891 17.094 45.891h9.5156l-20.516-54.688h-12.203z"/>
<path id="as" d="m45.406 46.391v29.594h8.9844v-75.984h-8.9844v8.2031q-2.8281-4.875-7.1562-7.25-4.3125-2.375-10.375-2.375-9.9062 0-16.141 7.9062-6.2188 7.9219-6.2188 20.812t6.2188 20.797q6.2344 7.9062 16.141 7.9062 6.0625 0 10.375-2.375 4.3281-2.3594 7.1562-7.2344zm-30.609-19.094q0-9.9062 4.0781-15.547t11.203-5.6406 11.219 5.6406q4.1094 5.6406 4.1094 15.547t-4.1094 15.547q-4.0938 5.6406-11.219 5.6406t-11.203-5.6406-4.0781-15.547z"/>
</defs>
<g transform="translate(143.25 1071.9) scale(.1 -.1)">
<use xlink:href="#f"/>
<use x="27.783203" xlink:href="#c"/>
<use x="91.162109" xlink:href="#af"/>
<use x="150.341797" xlink:href="#s"/>
<use x="211.523438" xlink:href="#i"/>
<use x="239.306641" xlink:href="#af"/>
<use x="298.486328" xlink:href="#g"/>
<use x="360.009766" xlink:href="#as"/>
</g>
</g>
<g clip-path="url(#a)">
<g transform="translate(178.33 1071.9) scale(.1 -.1)">
<use xlink:href="#f"/>
<use x="27.783203" xlink:href="#c"/>
</g>
</g>
<g clip-path="url(#a)">
<g transform="translate(200.34 1071.9) scale(.1 -.1)">
<use xlink:href="#e"/>
</g>
</g>
<g clip-path="url(#a)">
<defs>
<path id="ap" d="m59.516 10.406v19.578h-16.109v8.1094h25.875v-31.312q-5.7031-4.0469-12.594-6.125-6.875-2.0781-14.688-2.0781-17.094 0-26.75 9.9844-9.6406 10-9.6406 27.812 0 17.875 9.6406 27.859 9.6562 9.9844 26.75 9.9844 7.125 0 13.547-1.7656 6.4219-1.75 11.844-5.1719v-10.5q-5.4688 4.6406-11.625 6.9844t-12.938 2.3438q-13.391 0-20.109-7.4688-6.7031-7.4688-6.7031-22.266 0-14.75 6.7031-22.219 6.7188-7.4688 20.109-7.4688 5.2188 0 9.3125 0.90625 4.1094 0.90625 7.375 2.8125z"/>
</defs>
<g transform="translate(198.08 1071.9) scale(.1 -.1)">
<use xlink:href="#ap"/>
<use x="77.490234" xlink:href="#g"/>
<use x="139.013672" xlink:href="#c"/>
<use x="202.392578" xlink:href="#g"/>
<use x="263.916016" xlink:href="#h"/>
<use x="305.029297" xlink:href="#e"/>
<use x="366.308594" xlink:href="#o"/>
<use x="405.517578" xlink:href="#f"/>
<use x="433.300781" xlink:href="#s"/>
<use x="494.482422" xlink:href="#c"/>
</g>
</g>
<g clip-path="url(#a)">
<defs>
<path id="au" d="m39.406 66.219q-10.75 0-17.078-8.0156-6.3125-8-6.3125-21.828 0-13.766 6.3125-21.781 6.3281-8 17.078-8 10.734 0 17.016 8 6.2812 8.0156 6.2812 21.781 0 13.828-6.2812 21.828-6.2812 8.0156-17.016 8.0156zm0 8q15.328 0 24.5-10.281 9.1875-10.281 9.1875-27.562 0-17.234-9.1875-27.516-9.1719-10.281-24.5-10.281-15.375 0-24.594 10.25-9.2031 10.266-9.2031 27.547t9.2031 27.562q9.2188 10.281 24.594 10.281z"/>
<path id="an" d="m48.688 27.297q0 9.9062-4.0781 15.547t-11.203 5.6406q-7.1406 0-11.219-5.6406t-4.0781-15.547 4.0781-15.547 11.219-5.6406q7.125 0 11.203 5.6406t4.0781 15.547zm-30.578 19.094q2.8438 4.875 7.1562 7.2344 4.3281 2.375 10.328 2.375 9.9688 0 16.188-7.9062 6.2344-7.9062 6.2344-20.797t-6.2344-20.812q-6.2188-7.9062-16.188-7.9062-6 0-10.328 2.375-4.3125 2.375-7.1562 7.25v-8.2031h-9.0312v75.984h9.0312z"/>
</defs>
<g transform="translate(232.48 1071.9) scale(.1 -.1)">
<use xlink:href="#au"/>
<use x="78.710938" xlink:href="#an"/>
<use x="142.1875" xlink:href="#e"/>
<use x="203.466797" xlink:href="#l"/>
<use x="300.878906" xlink:href="#e"/>
</g>
</g>
<g clip-path="url(#a)">
<g transform="translate(263.02 1071.9) scale(.1 -.1)">
<use xlink:href="#g"/>
<use x="61.523438" xlink:href="#af"/>
<use x="120.703125" xlink:href="#g"/>
<use x="182.226562" xlink:href="#c"/>
<use x="245.605469" xlink:href="#o"/>
</g>
</g>
<g clip-path="url(#a)">
<g transform="translate(300.95 1071.9) scale(.1 -.1)">
<use xlink:href="#e"/>
<use x="61.279297" xlink:href="#o"/>
</g>
</g>
<g clip-path="url(#a)">
<defs>
<path id="ah" d="m54.891 33.016v-33.016h-8.9844v32.719q0 7.7656-3.0312 11.609-3.0312 3.8594-9.0781 3.8594-7.2812 0-11.484-4.6406-4.2031-4.625-4.2031-12.641v-30.906h-9.0312v75.984h9.0312v-29.797q3.2344 4.9375 7.5938 7.375 4.375 2.4375 10.094 2.4375 9.4219 0 14.25-5.8281 4.8438-5.8281 4.8438-17.156z"/>
</defs>
<g transform="translate(328.54 1071.9) scale(.1 -.1)">
<use xlink:href="#o"/>
<use x="39.208984" xlink:href="#ah"/>
<use x="102.587891" xlink:href="#g"/>
</g>
</g>
<g clip-path="url(#a)">
<g transform="translate(359.43 1071.9) scale(.1 -.1)">
<use xlink:href="#ad"/>
<use x="50.269531" xlink:href="#f"/>
<use x="78.052734" xlink:href="#c"/>
<use x="141.431641" xlink:href="#g"/>
</g>
</g>
<g clip-path="url(#a)">
<g transform="translate(394.41 1071.9) scale(.1 -.1)">
<use xlink:href="#t"/>
<use x="68.408203" xlink:href="#h"/>
<use x="109.521484" xlink:href="#o"/>
<use x="148.730469" xlink:href="#r"/>
</g>
</g>
<g clip-path="url(#a)">
<g transform="translate(421.92 1071.9) scale(.1 -.1)">
<use xlink:href="#k"/>
<use x="61.083984" xlink:href="#ah"/>
<use x="124.462891" xlink:href="#g"/>
<use x="185.986328" xlink:href="#e"/>
<use x="247.265625" xlink:href="#o"/>
<use x="286.474609" xlink:href="#g"/>
<use x="347.998047" xlink:href="#h"/>
</g>
</g>
<g clip-path="url(#a)">
<g transform="translate(475.8 1071.9) scale(.1 -.1)">
<use xlink:href="#f"/>
<use x="27.783203" xlink:href="#c"/>
</g>
</g>
<g clip-path="url(#a)">
<defs>
<path id="ay" d="m19.672 34.812v-26.703h15.828q7.9531 0 11.781 3.2969 3.8438 3.2969 3.8438 10.078 0 6.8438-3.8438 10.078-3.8281 3.25-11.781 3.25zm0 29.984v-21.969h14.609q7.2188 0 10.75 2.7031 3.5469 2.7188 3.5469 8.2812 0 5.5156-3.5469 8.25-3.5312 2.7344-10.75 2.7344zm-9.8594 8.1094h25.203q11.281 0 17.375-4.6875 6.1094-4.6875 6.1094-13.328 0-6.7031-3.125-10.656t-9.1875-4.9219q7.2812-1.5625 11.312-6.5312 4.0312-4.9531 4.0312-12.375 0-9.7656-6.6406-15.094-6.6406-5.3125-18.906-5.3125h-26.172z"/>
<path id="ba" d="m32.172-5.0781q-3.7969-9.7656-7.4219-12.734-3.6094-2.9844-9.6562-2.9844h-7.1875v7.5156h5.2812q3.7031 0 5.75 1.7656 2.0625 1.75 4.5469 8.2969l1.6094 4.0938-22.109 53.812h9.5156l17.094-42.766 17.094 42.766h9.5156z"/>
</defs>
<g transform="translate(502.44 1071.9) scale(.1 -.1)">
<use xlink:href="#ay"/>
<use x="68.603516" xlink:href="#g"/>
<use x="130.126953" xlink:href="#af"/>
<use x="189.306641" xlink:href="#g"/>
<use x="250.830078" xlink:href="#h"/>
<use x="291.943359" xlink:href="#i"/>
<use x="319.726562" xlink:href="#ba"/>
</g>
</g>
<g clip-path="url(#a)">
<g transform="translate(553.93 1071.9) scale(.1 -.1)">
<use xlink:href="#ac"/>
<use x="75.195312" xlink:href="#f"/>
<use x="102.978516" xlink:href="#i"/>
<use x="130.761719" xlink:href="#i"/>
<use x="158.544922" xlink:href="#r"/>
</g>
</g>
<g clip-path="url(#a)">
<g transform="translate(608.01 1071.9) scale(.1 -.1)">
<use xlink:href="#am"/>
</g>
</g>
<g clip-path="url(#a)">
<defs>
<path id="ar" d="m37.109 75.984v-7.4844h-8.5938q-4.8281 0-6.7188-1.9531-1.875-1.9531-1.875-7.0312v-4.8281h14.797v-6.9844h-14.797v-47.703h-9.0312v47.703h-8.5938v6.9844h8.5938v3.8125q0 9.125 4.25 13.297 4.25 4.1875 13.469 4.1875z"/>
</defs>
<g transform="translate(633.04 1071.9) scale(.1 -.1)">
<use xlink:href="#p"/>
<use x="69.824219" xlink:href="#e"/>
<use x="131.103516" xlink:href="#i"/>
<use x="158.886719" xlink:href="#f"/>
<use x="186.669922" xlink:href="#ar"/>
<use x="221.875" xlink:href="#s"/>
<use x="283.056641" xlink:href="#h"/>
<use x="322.419922" xlink:href="#c"/>
<use x="385.798828" xlink:href="#f"/>
<use x="413.582031" xlink:href="#e"/>
</g>
</g>
<g clip-path="url(#a)">
<g transform="translate(704.43 1071.9) scale(.1 -.1)">
<use xlink:href="#am"/>
</g>
</g>
<g clip-path="url(#a)">
<defs>
<path id="ag" d="m18.109 8.2031v-29h-9.0312v75.484h9.0312v-8.2969q2.8438 4.875 7.1562 7.2344 4.3281 2.375 10.328 2.375 9.9688 0 16.188-7.9062 6.2344-7.9062 6.2344-20.797t-6.2344-20.812q-6.2188-7.9062-16.188-7.9062-6 0-10.328 2.375-4.3125 2.375-7.1562 7.25zm30.578 19.094q0 9.9062-4.0781 15.547t-11.203 5.6406q-7.1406 0-11.219-5.6406t-4.0781-15.547 4.0781-15.547 11.219-5.6406q7.125 0 11.203 5.6406t4.0781 15.547z"/>
<path id="aj" d="m48.781 52.594v-8.4062q-3.8125 2.1094-7.6406 3.1562t-7.7344 1.0469q-8.75 0-13.594-5.5469-4.8281-5.5312-4.8281-15.547t4.8281-15.562q4.8438-5.5312 13.594-5.5312 3.9062 0 7.7344 1.0469t7.6406 3.1562v-8.3125q-3.7656-1.75-7.7969-2.625-4.0156-0.89062-8.5625-0.89062-12.359 0-19.641 7.7656-7.2656 7.7656-7.2656 20.953 0 13.375 7.3438 21.031 7.3594 7.6719 20.156 7.6719 4.1406 0 8.0938-0.85938 3.9531-0.84375 7.6719-2.5469z"/>
</defs>
<g transform="translate(725.59 1071.9) scale(.1 -.1)">
<use xlink:href="#ag"/>
<use x="63.476562" xlink:href="#e"/>
<use x="124.755859" xlink:href="#h"/>
<use x="165.869141" xlink:href="#o"/>
<use x="205.078125" xlink:href="#f"/>
<use x="232.861328" xlink:href="#aj"/>
<use x="287.841797" xlink:href="#f"/>
<use x="315.625" xlink:href="#ag"/>
<use x="379.101562" xlink:href="#e"/>
<use x="440.380859" xlink:href="#o"/>
<use x="479.589844" xlink:href="#f"/>
<use x="507.373047" xlink:href="#c"/>
<use x="570.751953" xlink:href="#ai"/>
</g>
</g>
<g clip-path="url(#a)">
<g transform="translate(806.08 1071.9) scale(.1 -.1)">
<use xlink:href="#f"/>
<use x="27.783203" xlink:href="#c"/>
</g>
</g>
<g clip-path="url(#a)">
<g transform="translate(862.97 1071.9) scale(.1 -.1)">
<use xlink:href="#e"/>
</g>
</g>
<g clip-path="url(#a)">
<g transform="translate(909.6 1071.9) scale(.1 -.1)">
<use xlink:href="#ag"/>
<use x="63.476562" xlink:href="#e"/>
<use x="124.755859" xlink:href="#c"/>
<use x="188.134766" xlink:href="#g"/>
<use x="249.658203" xlink:href="#i"/>
</g>
</g>
<g clip-path="url(#a)">
<g transform="translate(957.05 1071.9) scale(.1 -.1)">
<use xlink:href="#as"/>
<use x="63.476562" xlink:href="#f"/>
<use x="91.259766" xlink:href="#r"/>
<use x="143.359375" xlink:href="#aj"/>
<use x="198.339844" xlink:href="#aa"/>
<use x="261.71875" xlink:href="#r"/>
<use x="313.818359" xlink:href="#r"/>
<use x="365.917969" xlink:href="#f"/>
<use x="393.701172" xlink:href="#s"/>
<use x="454.882812" xlink:href="#c"/>
</g>
</g>
<g clip-path="url(#a)">
<defs>
<path id="bc" d="m14.797 27.297q0-9.9062 4.0781-15.547t11.203-5.6406 11.219 5.6406q4.1094 5.6406 4.1094 15.547t-4.1094 15.547q-4.0938 5.6406-11.219 5.6406t-11.203-5.6406-4.0781-15.547zm30.609-19.094q-2.8281-4.875-7.1562-7.25-4.3125-2.375-10.375-2.375-9.9062 0-16.141 7.9062-6.2188 7.9219-6.2188 20.812t6.2188 20.797q6.2344 7.9062 16.141 7.9062 6.0625 0 10.375-2.375 4.3281-2.3594 7.1562-7.2344v8.2969h8.9844v-75.484h-8.9844z"/>
</defs>
<g transform="translate(1015.3 1071.9) scale(.1 -.1)">
<use xlink:href="#r"/>
<use x="52.099609" xlink:href="#aa"/>
<use x="115.478516" xlink:href="#an"/>
<use x="178.955078" xlink:href="#r"/>
<use x="231.054688" xlink:href="#g"/>
<use x="292.578125" xlink:href="#bc"/>
<use x="356.054688" xlink:href="#aa"/>
<use x="419.433594" xlink:href="#g"/>
<use x="480.957031" xlink:href="#c"/>
<use x="544.335938" xlink:href="#o"/>
</g>
</g>
<g clip-path="url(#a)">
<g transform="translate(1103.1 1071.9) scale(.1 -.1)">
<use xlink:href="#o"/>
<use x="39.208984" xlink:href="#s"/>
</g>
</g>
<g clip-path="url(#a)">
<g transform="translate(1170.7 1071.9) scale(.1 -.1)">
<use xlink:href="#e"/>
</g>
</g>
<g clip-path="url(#a)">
<g transform="translate(1217.1 1071.9) scale(.1 -.1)">
<use xlink:href="#r"/>
<use x="52.099609" xlink:href="#aj"/>
<use x="107.080078" xlink:href="#h"/>
<use x="145.943359" xlink:href="#g"/>
<use x="207.466797" xlink:href="#g"/>
<use x="268.990234" xlink:href="#c"/>
<use x="332.369141" xlink:href="#f"/>
<use x="360.152344" xlink:href="#c"/>
<use x="423.53125" xlink:href="#ai"/>
</g>
</g>
<g clip-path="url(#a)">
<g transform="translate(1306.4 1071.9) scale(.1 -.1)">
<use xlink:href="#s"/>
<use x="61.181641" xlink:href="#ar"/>
</g>
</g>
<g clip-path="url(#a)">
<g transform="translate(1369.3 1071.9) scale(.1 -.1)">
<use xlink:href="#ad"/>
<use x="50.269531" xlink:href="#h"/>
<use x="91.382812" xlink:href="#e"/>
<use x="152.662109" xlink:href="#c"/>
<use x="216.041016" xlink:href="#aq"/>
</g>
</g>
<g clip-path="url(#a)">
<g transform="translate(1442 1071.9) scale(.1 -.1)">
<use xlink:href="#p"/>
<use x="69.824219" xlink:href="#e"/>
<use x="131.103516" xlink:href="#ag"/>
<use x="194.580078" xlink:href="#h"/>
<use x="235.693359" xlink:href="#e"/>
</g>
</g>
<g clip-path="url(#a)">
<defs>
<path id="az" d="m17.922 72.906v-27.109h-8.2969v27.109z"/>
</defs>
<g transform="translate(1528.8 1071.9) scale(.1 -.1)">
<use xlink:href="#az"/>
<use x="27.490234" xlink:href="#r"/>
</g>
</g>
<g clip-path="url(#a)">
<defs>
<path id="av" d="m9.8125 72.906h14.703l18.594-49.609 18.703 49.609h14.703v-72.906h-9.625v64.016l-18.797-50h-9.9062l-18.797 50v-64.016h-9.5781z"/>
</defs>
<g transform="translate(1604.3 1071.9) scale(.1 -.1)">
<use xlink:href="#av"/>
<use x="86.279297" xlink:href="#h"/>
</g>
</g>
<g clip-path="url(#a)">
<g transform="translate(1676.2 1071.9) scale(.1 -.1)">
<use xlink:href="#ao"/>
<use x="63.476562" xlink:href="#l"/>
<use x="160.888672" xlink:href="#f"/>
<use x="188.671875" xlink:href="#o"/>
<use x="227.880859" xlink:href="#ah"/>
</g>
</g>
<g clip-path="url(#a)">
<g transform="translate(1760.2 1071.9) scale(.1 -.1)">
<use xlink:href="#ap"/>
<use x="77.490234" xlink:href="#s"/>
<use x="138.671875" xlink:href="#g"/>
<use x="200.195312" xlink:href="#r"/>
</g>
</g>
<g clip-path="url(#a)">
<g transform="translate(1851.9 1071.9) scale(.1 -.1)">
<use xlink:href="#o"/>
<use x="39.208984" xlink:href="#s"/>
</g>
</g>
<g clip-path="url(#a)">
<defs>
<path id="at" d="m3.3281 72.906h9.9531l15.328-61.625 15.281 61.625h11.094l15.328-61.625 15.281 61.625h10.016l-18.312-72.906h-12.406l-15.375 63.281-15.531-63.281h-12.406z"/>
</defs>
<g transform="translate(1913.7 1071.9) scale(.1 -.1)">
<use xlink:href="#at"/>
<use x="92.501953" xlink:href="#e"/>
<use x="153.78125" xlink:href="#r"/>
<use x="205.880859" xlink:href="#ah"/>
<use x="269.259766" xlink:href="#f"/>
<use x="297.042969" xlink:href="#c"/>
<use x="360.421875" xlink:href="#ai"/>
<use x="423.898438" xlink:href="#o"/>
<use x="463.107422" xlink:href="#s"/>
<use x="524.289062" xlink:href="#c"/>
</g>
</g>
<g clip-path="url(#a)">
<defs>
<path id="j" d="m10.688 12.406h10.312v-12.406h-10.312z"/>
</defs>
<g transform="translate(2029.7 1071.9) scale(.1 -.1)">
<use xlink:href="#j"/>
</g>
</g>
<g clip-path="url(#a)">
<defs>
<path id="d" d="m12.406 8.2969h16.109v55.625l-17.531-3.5156v8.9844l17.438 3.5156h9.8594v-64.609h16.109v-8.2969h-41.984z"/>
</defs>
<g transform="translate(808.09 53.668) scale(.1 -.1)">
<use xlink:href="#d"/>
<use x="63.623047" xlink:href="#j"/>
<use x="95.410156" xlink:href="#d"/>
</g>
</g>
<g clip-path="url(#a)">
<g transform="translate(219.32 464.05) scale(.1 -.1)">
<use xlink:href="#d"/>
<use x="63.623047" xlink:href="#j"/>
<use x="95.410156" xlink:href="#n"/>
</g>
</g>
<g clip-path="url(#a)">
<defs>
<path id="q" d="m40.578 39.312q7.0781-1.5156 11.047-6.3125 3.9844-4.7812 3.9844-11.812 0-10.781-7.4219-16.703-7.4219-5.9062-21.094-5.9062-4.5781 0-9.4375 0.90625t-10.031 2.7188v9.5156q4.0938-2.3906 8.9688-3.6094 4.8906-1.2188 10.219-1.2188 9.2656 0 14.125 3.6562t4.8594 10.641q0 6.4531-4.5156 10.078-4.5156 3.6406-12.562 3.6406h-8.5v8.1094h8.8906q7.2656 0 11.125 2.9062t3.8594 8.375q0 5.6094-3.9844 8.6094-3.9688 3.0156-11.391 3.0156-4.0625 0-8.7031-0.89062-4.6406-0.875-10.203-2.7188v8.7812q5.625 1.5625 10.531 2.3438t9.25 0.78125q11.234 0 17.766-5.1094 6.5469-5.0938 6.5469-13.781 0-6.0625-3.4688-10.234t-9.8594-5.7812z"/>
</defs>
<g transform="translate(587.63 464.05) scale(.1 -.1)">
<use xlink:href="#d"/>
<use x="63.623047" xlink:href="#j"/>
<use x="95.410156" xlink:href="#q"/>
</g>
</g>
<g clip-path="url(#a)">
<defs>
<path id="m" d="m37.797 64.312-24.906-38.922h24.906zm-2.5938 8.5938h12.406v-47.516h10.406v-8.2031h-10.406v-17.188h-9.8125v17.188h-32.906v9.5156z"/>
</defs>
<g transform="translate(1068.4 668.29) scale(.1 -.1)">
<use xlink:href="#d"/>
<use x="63.623047" xlink:href="#j"/>
<use x="95.410156" xlink:href="#m"/>
</g>
</g>
<g clip-path="url(#a)">
<defs>
<path id="y" d="m10.797 72.906h38.719v-8.3125h-29.688v-17.859q2.1406 0.73438 4.2812 1.0938 2.1562 0.35938 4.3125 0.35938 12.203 0 19.328-6.6875 7.1406-6.6875 7.1406-18.109 0-11.766-7.3281-18.297-7.3281-6.5156-20.656-6.5156-4.5938 0-9.3594 0.78125-4.75 0.78125-9.8281 2.3438v9.9219q4.3906-2.3906 9.0781-3.5625t9.9062-1.1719q8.4531 0 13.375 4.4375 4.9375 4.4375 4.9375 12.062 0 7.6094-4.9375 12.047-4.9219 4.4531-13.375 4.4531-3.9531 0-7.8906-0.875-3.9219-0.875-8.0156-2.7344z"/>
</defs>
<g transform="translate(1467.1 259.12) scale(.1 -.1)">
<use xlink:href="#d"/>
<use x="63.623047" xlink:href="#j"/>
<use x="95.410156" xlink:href="#y"/>
</g>
</g>
<g clip-path="url(#a)">
<g transform="translate(1199.7 668.29) scale(.1 -.1)">
<use xlink:href="#d"/>
<use x="63.623047" xlink:href="#j"/>
<use x="95.410156" xlink:href="#x"/>
</g>
</g>
<g clip-path="url(#a)">
<defs>
<path id="z" d="m10.984 1.5156v8.9844q3.7188-1.7656 7.5156-2.6875 3.8125-0.92188 7.4844-0.92188 9.7656 0 14.906 6.5625 5.1562 6.5625 5.8906 19.953-2.8281-4.2031-7.1875-6.4531-4.3438-2.25-9.6094-2.25-10.938 0-17.312 6.6094-6.375 6.625-6.375 18.109 0 11.219 6.6406 18 6.6406 6.7969 17.672 6.7969 12.656 0 19.312-9.7031 6.6719-9.6875 6.6719-28.141 0-17.234-8.1875-27.516-8.1719-10.281-21.984-10.281-3.7188 0-7.5312 0.73438-3.7969 0.73438-7.9062 2.2031zm19.625 30.906q6.6406 0 10.516 4.5312 3.8906 4.5469 3.8906 12.469 0 7.8594-3.8906 12.422-3.875 4.5625-10.516 4.5625t-10.516-4.5625-3.875-12.422q0-7.9219 3.875-12.469 3.875-4.5312 10.516-4.5312z"/>
</defs>
<g transform="translate(1734.5 464.05) scale(.1 -.1)">
<use xlink:href="#d"/>
<use x="63.623047" xlink:href="#j"/>
<use x="95.410156" xlink:href="#z"/>
</g>
</g>
<g clip-path="url(#a)">
<g transform="translate(1410.2 668.29) scale(.1 -.1)">
<use xlink:href="#d"/>
<use x="63.623047" xlink:href="#j"/>
<use x="95.410156" xlink:href="#d"/>
<use x="159.033203" xlink:href="#w"/>
</g>
</g>
<g clip-path="url(#a)">
<g transform="translate(1763.7 871.47) scale(.1 -.1)">
<use xlink:href="#d"/>
<use x="63.623047" xlink:href="#j"/>
<use x="95.410156" xlink:href="#d"/>
<use x="159.033203" xlink:href="#d"/>
</g>
</g>
<g clip-path="url(#a)">
<g transform="translate(1300.1 871.47) scale(.1 -.1)">
<use xlink:href="#d"/>
<use x="63.623047" xlink:href="#j"/>
<use x="95.410156" xlink:href="#d"/>
<use x="159.033203" xlink:href="#n"/>
</g>
</g>
<g clip-path="url(#a)">
<g transform="translate(1408.8 871.47) scale(.1 -.1)">
<use xlink:href="#d"/>
<use x="63.623047" xlink:href="#j"/>
<use x="95.410156" xlink:href="#d"/>
<use x="159.033203" xlink:href="#q"/>
</g>
</g>
<g clip-path="url(#a)">
<g transform="translate(1521.6 871.47) scale(.1 -.1)">
<use xlink:href="#d"/>
<use x="63.623047" xlink:href="#j"/>
<use x="95.410156" xlink:href="#d"/>
<use x="159.033203" xlink:href="#m"/>
</g>
</g>
<g clip-path="url(#a)">
<g transform="translate(1162.6 871.47) scale(.1 -.1)">
<use xlink:href="#d"/>
<use x="63.623047" xlink:href="#j"/>
<use x="95.410156" xlink:href="#d"/>
<use x="159.033203" xlink:href="#y"/>
</g>
</g>
<g clip-path="url(#a)">
<defs>
<path id="al" d="m33.016 40.375q-6.6406 0-10.531-4.5469-3.875-4.5312-3.875-12.438 0-7.8594 3.875-12.438 3.8906-4.5625 10.531-4.5625t10.516 4.5625q3.875 4.5781 3.875 12.438 0 7.9062-3.875 12.438-3.875 4.5469-10.516 4.5469zm19.578 30.922v-8.9844q-3.7188 1.75-7.5 2.6719-3.7812 0.9375-7.5 0.9375-9.7656 0-14.922-6.5938-5.1406-6.5938-5.875-19.922 2.875 4.25 7.2188 6.5156 4.3594 2.2656 9.5781 2.2656 10.984 0 17.359-6.6719 6.375-6.6562 6.375-18.125 0-11.234-6.6406-18.031-6.6406-6.7812-17.672-6.7812-12.656 0-19.344 9.6875-6.6875 9.7031-6.6875 28.109 0 17.281 8.2031 27.562t22.016 10.281q3.7188 0 7.5-0.73438t7.8906-2.1875z"/>
</defs>
<g transform="translate(1230.3 871.47) scale(.1 -.1)">
<use xlink:href="#d"/>
<use x="63.623047" xlink:href="#j"/>
<use x="95.410156" xlink:href="#d"/>
<use x="159.033203" xlink:href="#al"/>
</g>
</g>
<g clip-path="url(#a)">
<defs>
<path id="ae" d="m8.2031 72.906h46.875v-4.2031l-26.469-68.703h-10.297l24.906 64.594h-35.016z"/>
</defs>
<g transform="translate(1033.4 871.47) scale(.1 -.1)">
<use xlink:href="#d"/>
<use x="63.623047" xlink:href="#j"/>
<use x="95.410156" xlink:href="#d"/>
<use x="159.033203" xlink:href="#ae"/>
</g>
</g>
<g clip-path="url(#a)">
<g transform="translate(1097 871.47) scale(.1 -.1)">
<use xlink:href="#d"/>
<use x="63.623047" xlink:href="#j"/>
<use x="95.410156" xlink:href="#d"/>
<use x="159.033203" xlink:href="#x"/>
</g>
</g>
<g clip-path="url(#a)">
<g transform="translate(746.17 871.47) scale(.1 -.1)">
<use xlink:href="#d"/>
<use x="63.623047" xlink:href="#j"/>
<use x="95.410156" xlink:href="#d"/>
<use x="159.033203" xlink:href="#z"/>
</g>
</g>
<g clip-path="url(#a)">
<g transform="translate(884.65 668.29) scale(.1 -.1)">
<use xlink:href="#d"/>
<use x="63.623047" xlink:href="#j"/>
<use x="95.410156" xlink:href="#n"/>
<use x="159.033203" xlink:href="#w"/>
</g>
</g>
<g clip-path="url(#a)">
<g transform="translate(799.51 871.47) scale(.1 -.1)">
<use xlink:href="#d"/>
<use x="63.623047" xlink:href="#j"/>
<use x="95.410156" xlink:href="#n"/>
<use x="159.033203" xlink:href="#d"/>
</g>
</g>
<g clip-path="url(#a)">
<g transform="translate(854.9 871.47) scale(.1 -.1)">
<use xlink:href="#d"/>
<use x="63.623047" xlink:href="#j"/>
<use x="95.410156" xlink:href="#n"/>
<use x="159.033203" xlink:href="#n"/>
</g>
</g>
<g clip-path="url(#a)">
<g transform="translate(912.34 871.47) scale(.1 -.1)">
<use xlink:href="#d"/>
<use x="63.623047" xlink:href="#j"/>
<use x="95.410156" xlink:href="#n"/>
<use x="159.033203" xlink:href="#q"/>
</g>
</g>
<g clip-path="url(#a)">
<g transform="translate(971.83 871.47) scale(.1 -.1)">
<use xlink:href="#d"/>
<use x="63.623047" xlink:href="#j"/>
<use x="95.410156" xlink:href="#n"/>
<use x="159.033203" xlink:href="#m"/>
</g>
</g>
<g clip-path="url(#a)">
<g transform="translate(92.433 668.29) scale(.1 -.1)">
<use xlink:href="#d"/>
<use x="63.623047" xlink:href="#j"/>
<use x="95.410156" xlink:href="#n"/>
<use x="159.033203" xlink:href="#y"/>
</g>
</g>
<g clip-path="url(#a)">
<g transform="translate(122.52 871.47) scale(.1 -.1)">
<use xlink:href="#d"/>
<use x="63.623047" xlink:href="#j"/>
<use x="95.410156" xlink:href="#n"/>
<use x="159.033203" xlink:href="#al"/>
</g>
</g>
<g clip-path="url(#a)">
<g transform="translate(136.88 871.47) scale(.1 -.1)">
<use xlink:href="#d"/>
<use x="63.623047" xlink:href="#j"/>
<use x="95.410156" xlink:href="#n"/>
<use x="159.033203" xlink:href="#ae"/>
</g>
</g>
<g clip-path="url(#a)">
<g transform="translate(153.29 871.47) scale(.1 -.1)">
<use xlink:href="#d"/>
<use x="63.623047" xlink:href="#j"/>
<use x="95.410156" xlink:href="#n"/>
<use x="159.033203" xlink:href="#x"/>
</g>
</g>
<g clip-path="url(#a)">
<g transform="translate(214.32 668.29) scale(.1 -.1)">
<use xlink:href="#d"/>
<use x="63.623047" xlink:href="#j"/>
<use x="95.410156" xlink:href="#n"/>
<use x="159.033203" xlink:href="#z"/>
</g>
</g>
<g clip-path="url(#a)">
<g transform="translate(338.15 668.29) scale(.1 -.1)">
<use xlink:href="#d"/>
<use x="63.623047" xlink:href="#j"/>
<use x="95.410156" xlink:href="#q"/>
<use x="159.033203" xlink:href="#w"/>
</g>
</g>
<g clip-path="url(#a)">
<g transform="translate(561.28 668.29) scale(.1 -.1)">
<use xlink:href="#d"/>
<use x="63.623047" xlink:href="#j"/>
<use x="95.410156" xlink:href="#q"/>
<use x="159.033203" xlink:href="#d"/>
</g>
</g>
<g clip-path="url(#a)">
<g transform="translate(469.22 871.47) scale(.1 -.1)">
<use xlink:href="#d"/>
<use x="63.623047" xlink:href="#j"/>
<use x="95.410156" xlink:href="#q"/>
<use x="159.033203" xlink:href="#q"/>
</g>
</g>
<g clip-path="url(#a)">
<g transform="translate(531.79 871.47) scale(.1 -.1)">
<use xlink:href="#d"/>
<use x="63.623047" xlink:href="#j"/>
<use x="95.410156" xlink:href="#q"/>
<use x="159.033203" xlink:href="#m"/>
</g>
</g>
<g clip-path="url(#a)">
<g transform="translate(645.65 871.47) scale(.1 -.1)">
<use xlink:href="#d"/>
<use x="63.623047" xlink:href="#j"/>
<use x="95.410156" xlink:href="#q"/>
<use x="159.033203" xlink:href="#y"/>
</g>
</g>
<g clip-path="url(#a)">
<g transform="translate(294.85 871.47) scale(.1 -.1)">
<use xlink:href="#d"/>
<use x="63.623047" xlink:href="#j"/>
<use x="95.410156" xlink:href="#q"/>
<use x="159.033203" xlink:href="#ae"/>
</g>
</g>
<g clip-path="url(#a)">
<g transform="translate(325.62 871.47) scale(.1 -.1)">
<use xlink:href="#d"/>
<use x="63.623047" xlink:href="#j"/>
<use x="95.410156" xlink:href="#q"/>
<use x="159.033203" xlink:href="#x"/>
</g>
</g>
<g clip-path="url(#a)">
<g transform="translate(394 871.47) scale(.1 -.1)">
<use xlink:href="#d"/>
<use x="63.623047" xlink:href="#j"/>
<use x="95.410156" xlink:href="#q"/>
<use x="159.033203" xlink:href="#z"/>
</g>
</g>
<g clip-path="url(#a)">
<g transform="translate(171.76 871.47) scale(.1 -.1)">
<use xlink:href="#d"/>
<use x="63.623047" xlink:href="#j"/>
<use x="95.410156" xlink:href="#m"/>
<use x="159.033203" xlink:href="#w"/>
</g>
</g>
<g clip-path="url(#a)">
<g transform="translate(192.27 871.47) scale(.1 -.1)">
<use xlink:href="#d"/>
<use x="63.623047" xlink:href="#j"/>
<use x="95.410156" xlink:href="#m"/>
<use x="159.033203" xlink:href="#d"/>
</g>
</g>
<g clip-path="url(#a)">
<g transform="translate(227.15 871.47) scale(.1 -.1)">
<use xlink:href="#d"/>
<use x="63.623047" xlink:href="#j"/>
<use x="95.410156" xlink:href="#m"/>
<use x="159.033203" xlink:href="#n"/>
</g>
</g>
<g clip-path="url(#a)">
<g transform="translate(266.12 871.47) scale(.1 -.1)">
<use xlink:href="#d"/>
<use x="63.623047" xlink:href="#j"/>
<use x="95.410156" xlink:href="#m"/>
<use x="159.033203" xlink:href="#q"/>
</g>
</g>
<g clip-path="url(#a)">
<g transform="translate(85.594 871.47) scale(.1 -.1)">
<use xlink:href="#d"/>
<use x="63.623047" xlink:href="#j"/>
<use x="95.410156" xlink:href="#m"/>
<use x="159.033203" xlink:href="#m"/>
</g>
</g>
<g clip-path="url(#a)">
<g transform="translate(91.749 871.47) scale(.1 -.1)">
<use xlink:href="#d"/>
<use x="63.623047" xlink:href="#j"/>
<use x="95.410156" xlink:href="#m"/>
<use x="159.033203" xlink:href="#y"/>
</g>
</g>
<g clip-path="url(#a)">
<g transform="translate(99.955 871.47) scale(.1 -.1)">
<use xlink:href="#d"/>
<use x="63.623047" xlink:href="#j"/>
<use x="95.410156" xlink:href="#m"/>
<use x="159.033203" xlink:href="#al"/>
</g>
</g>
<g clip-path="url(#a)">
<g transform="translate(110.21 871.47) scale(.1 -.1)">
<use xlink:href="#d"/>
<use x="63.623047" xlink:href="#j"/>
<use x="95.410156" xlink:href="#m"/>
<use x="159.033203" xlink:href="#ae"/>
</g>
</g>
<g clip-path="url(#a)">
<g transform="translate(598.46 871.47) scale(.1 -.1)">
<use xlink:href="#d"/>
<use x="63.623047" xlink:href="#j"/>
<use x="95.410156" xlink:href="#m"/>
<use x="159.033203" xlink:href="#x"/>
</g>
</g>
<g clip-path="url(#a)">
<g transform="translate(694.88 871.47) scale(.1 -.1)">
<use xlink:href="#d"/>
<use x="63.623047" xlink:href="#j"/>
<use x="95.410156" xlink:href="#m"/>
<use x="159.033203" xlink:href="#z"/>
</g>
</g>
<g clip-path="url(#a)">
<g transform="translate(2020.1 871.47) scale(.1 -.1)">
<use xlink:href="#d"/>
<use x="63.623047" xlink:href="#j"/>
<use x="95.410156" xlink:href="#y"/>
<use x="159.033203" xlink:href="#w"/>
</g>
</g>
<defs>
<clipPath id="a">
<rect width="2128" height="1120"/>
</clipPath>
</defs>
</svg>
