<?xml version="1.0" encoding="UTF-8"?>
<!DOCTYPE svg  PUBLIC '-//W3C//DTD SVG 1.1//EN'  'http://www.w3.org/Graphics/SVG/1.1/DTD/svg11.dtd'>
<svg width="1621.3pt" height="853.33pt" version="1.1" viewBox="0 0 1621.3 853.33" xmlns="http://www.w3.org/2000/svg" xmlns:xlink="http://www.w3.org/1999/xlink">
<defs>
<style type="text/css">*{stroke-linecap:butt;stroke-linejoin:round;}</style>
</defs>
<path d="m0 853.33h1621.3v-853.33h-1621.3z" fill="#fff"/>
<g fill="none" stroke="#000">
<path d="m560.4 39.702-286.98 267.75" clip-path="url(#a)"/>
<path d="m560.4 39.702 200.88 135.56" clip-path="url(#a)"/>
<path d="m560.4 39.702 20.021 648.86" clip-path="url(#a)"/>
<path d="m560.4 39.702 66.071 648.86" clip-path="url(#a)"/>
<path d="m273.42 307.45-153.5 256.05" clip-path="url(#a)"/>
<path d="m273.42 307.45-61.399 381.12" clip-path="url(#a)"/>
<path d="m273.42 307.45-15.35 381.12" clip-path="url(#a)"/>
<path d="m273.42 307.45 230.25 129.25" clip-path="url(#a)"/>
<path d="m761.28 175.26-88.764 513.31" clip-path="url(#a)"/>
<path d="m761.28 175.26-42.715 513.31" clip-path="url(#a)"/>
<path d="m761.28 175.26 131.48 132.19" clip-path="url(#a)"/>
<path d="m672.52 688.57v125.07" clip-path="url(#a)"/>
<path d="m718.57 688.57v125.07" clip-path="url(#a)"/>
<path d="m892.76 307.45-128.14 381.12" clip-path="url(#a)"/>
<path d="m892.76 307.45-82.094 381.12" clip-path="url(#a)"/>
<path d="m892.76 307.45-36.045 381.12" clip-path="url(#a)"/>
<path d="m892.76 307.45 56.054 381.12" clip-path="url(#a)"/>
<path d="m892.76 307.45 10.005 381.12" clip-path="url(#a)"/>
<path d="m892.76 307.45 180.22 129.25" clip-path="url(#a)"/>
<path d="m764.62 688.57v125.07" clip-path="url(#a)"/>
<path d="m810.67 688.57v125.07" clip-path="url(#a)"/>
<path d="m856.72 688.57v125.07" clip-path="url(#a)"/>
<path d="m948.82 688.57v125.07" clip-path="url(#a)"/>
<path d="m902.77 688.57v125.07" clip-path="url(#a)"/>
<path d="m1073 436.7-124.17 251.87" clip-path="url(#a)" stroke-dasharray="3.7,1.6"/>
<path d="m1073 436.7-78.12 251.87" clip-path="url(#a)"/>
<path d="m1073 436.7-32.07 251.87" clip-path="url(#a)"/>
<path d="m1073 436.7 234.36 126.8" clip-path="url(#a)"/>
<path d="m994.86 688.57v125.07" clip-path="url(#a)"/>
<path d="m1040.9 688.57v125.07" clip-path="url(#a)"/>
<path d="m1307.3 563.5-197.36 125.07" clip-path="url(#a)"/>
<path d="m1307.3 563.5-59.207 125.07" clip-path="url(#a)"/>
<path d="m1307.3 563.5 55.917 125.07" clip-path="url(#a)"/>
<path d="m1307.3 563.5 124.99 125.07" clip-path="url(#a)"/>
<path d="m1307.3 563.5-128.28 125.07" clip-path="url(#a)"/>
<path d="m1307.3 563.5 9.8678 125.07" clip-path="url(#a)"/>
<path d="m1307.3 563.5 194.07 125.07" clip-path="url(#a)"/>
<path d="m1110 688.57-23.025 125.07" clip-path="url(#a)"/>
<path d="m1110 688.57 23.025 125.07" clip-path="url(#a)"/>
<path d="m1248.1 688.57-23.025 125.07" clip-path="url(#a)"/>
<path d="m1248.1 688.57 23.025 125.07" clip-path="url(#a)"/>
<path d="m1363.3 688.57v125.07" clip-path="url(#a)"/>
<path d="m1432.3 688.57-23.025 125.07" clip-path="url(#a)"/>
<path d="m1432.3 688.57 23.025 125.07" clip-path="url(#a)"/>
<path d="m119.92 563.5-46.05 125.07" clip-path="url(#a)"/>
<path d="m119.92 563.5v125.07" clip-path="url(#a)"/>
<path d="m119.92 563.5 46.05 125.07" clip-path="url(#a)"/>
<path d="m212.02 688.57v125.07" clip-path="url(#a)"/>
<path d="m258.07 688.57v125.07" clip-path="url(#a)"/>
<path d="m503.67 436.7-199.55 251.87" clip-path="url(#a)"/>
<path d="m503.67 436.7-107.45 251.87" clip-path="url(#a)"/>
<path d="m503.67 436.7 322.35 126.8" clip-path="url(#a)"/>
<path d="m503.67 436.7-15.35 251.87" clip-path="url(#a)"/>
<path d="m304.12 688.57v125.07" clip-path="url(#a)"/>
<path d="m396.22 688.57-46.05 125.07" clip-path="url(#a)"/>
<path d="m396.22 688.57v125.07" clip-path="url(#a)"/>
<path d="m396.22 688.57 46.05 125.07" clip-path="url(#a)"/>
<path d="m826.02 563.5-429.8 125.07" clip-path="url(#a)" stroke-dasharray="3.7,1.6"/>
<path d="m826.02 563.5 721.44 250.13" clip-path="url(#a)"/>
<path d="m826.02 563.5-291.65 125.07" clip-path="url(#a)"/>
<path d="m488.32 688.57v125.07" clip-path="url(#a)"/>
<path d="m534.37 688.57v125.07" clip-path="url(#a)"/>
<path d="m73.874 688.57v125.07" clip-path="url(#a)"/>
<path d="m119.92 688.57v125.07" clip-path="url(#a)"/>
<path d="m165.97 688.57v125.07" clip-path="url(#a)"/>
<path d="m580.42 688.57v125.07" clip-path="url(#a)"/>
<path d="m626.47 688.57v125.07" clip-path="url(#a)"/>
<path d="m1179.1 688.57v125.07" clip-path="url(#a)"/>
<path d="m1317.2 688.57v125.07" clip-path="url(#a)"/>
<path d="m1501.4 688.57v125.07" clip-path="url(#a)"/>
</g>
<path d="m418.99 180.21 4.3989-4.1042q1.7548-1.6372 0.11758-3.3921l-5.2818-5.6611q-1.6372-1.7548-3.3921-0.11758l-4.3989 4.1042q-1.7548 1.6372-0.11758 3.3921l5.2818 5.6611q1.6372 1.7548 3.3921 0.11758z" clip-path="url(#a)" fill="#fff" stroke="#fff"/>
<g clip-path="url(#a)">
<defs>
<path id="ao" d="m9.8125 72.906h9.8594v-29.891h35.844v29.891h9.8594v-72.906h-9.8594v34.719h-35.844v-34.719h-9.8594z"/>
</defs>
<g transform="translate(416.22 177.24) rotate(-43.015) scale(.08 -.08)">
<use xlink:href="#ao"/>
</g>
</g>
<path d="m654.84 111 4.987 3.3652q1.9894 1.3425 3.3319-0.64696l4.3308-6.418q1.3425-1.9894-0.64696-3.3319l-4.987-3.3652q-1.9894-1.3425-3.3319 0.64696l-4.3308 6.418q-1.3425 1.9894 0.64696 3.3319z" clip-path="url(#a)" fill="#fff" stroke="#fff"/>
<g clip-path="url(#a)">
<g transform="translate(657.11 107.63) rotate(34.011) scale(.08 -.08)">
<use xlink:href="#ao"/>
</g>
</g>
<path d="m564.05 361.4 0.18057 5.8522q0.074018 2.3989 2.4729 2.3248l7.7388-0.23878q2.3989-0.074018 2.3248-2.4729l-0.18057-5.8522q-0.074018-2.3989-2.4729-2.3248l-7.7388 0.23878q-2.3989 0.074018-2.3248 2.4729z" clip-path="url(#a)" fill="#fff" stroke="#fff"/>
<g clip-path="url(#a)">
<defs>
<path id="s" d="m8.6875 72.906h9.9219v-44.297q0-11.719 4.2344-16.875 4.25-5.1406 13.781-5.1406 9.4688 0 13.719 5.1406 4.25 5.1562 4.25 16.875v44.297h9.9062v-45.516q0-14.25-7.0625-21.531-7.0469-7.2812-20.812-7.2812-13.828 0-20.891 7.2812-7.0469 7.2812-7.0469 21.531z"/>
</defs>
<g transform="translate(568.11 361.28) rotate(88.233) scale(.08 -.08)">
<use xlink:href="#s"/>
</g>
</g>
<path d="m586.9 361.86 0.59312 5.8249q0.24312 2.3877 2.6308 2.1445l7.7027-0.78432q2.3877-0.24312 2.1445-2.6308l-0.59312-5.8249q-0.24312-2.3877-2.6308-2.1445l-7.7027 0.78432q-2.3877 0.24312-2.1445 2.6308z" clip-path="url(#a)" fill="#fff" stroke="#fff"/>
<g clip-path="url(#a)">
<g transform="translate(590.94 361.45) rotate(84.186) scale(.08 -.08)">
<use xlink:href="#s"/>
</g>
</g>
<path d="m200.8 440.8 2.5124-4.1909q1.234-2.0585-0.82445-3.2925l-6.6407-3.981q-2.0585-1.234-3.2925 0.82445l-2.5124 4.1909q-1.234 2.0585 0.82445 3.2925l6.6407 3.981q2.0585 1.234 3.2925-0.82445z" clip-path="url(#a)" fill="#fff" stroke="#fff"/>
<g clip-path="url(#a)">
<defs>
<path id="k" d="m-0.29688 72.906h61.672v-8.3125h-25.875v-64.594h-9.9062v64.594h-25.891z"/>
</defs>
<g transform="translate(197.31 438.71) rotate(-59.058) scale(.08 -.08)">
<use xlink:href="#k"/>
</g>
</g>
<path d="m248.48 501.71 0.87042-5.4028q0.38173-2.3694-1.9877-2.7512l-7.6439-1.2315q-2.3694-0.38173-2.7512 1.9877l-0.87042 5.4028q-0.38173 2.3694 1.9877 2.7512l7.6439 1.2315q2.3694 0.38173 2.7512-1.9877z" clip-path="url(#a)" fill="#fff" stroke="#fff"/>
<g clip-path="url(#a)">
<defs>
<path id="r" d="m34.188 63.188-13.391-36.281h26.812zm-5.5781 9.7188h11.188l27.781-72.906h-10.25l-6.6406 18.703h-32.859l-6.6406-18.703h-10.406z"/>
</defs>
<g transform="translate(244.47 501.06) rotate(-80.848) scale(.08 -.08)">
<use xlink:href="#r"/>
</g>
</g>
<path d="m271.92 500.67 0.19412-4.8198q0.096584-2.3981-2.3015-2.4946l-7.7362-0.31158q-2.3981-0.096584-2.4946 2.3015l-0.19412 4.8198q-0.096584 2.3981 2.3015 2.4946l7.7362 0.31158q2.3981 0.096584 2.4946-2.3015z" clip-path="url(#a)" fill="#fff" stroke="#fff"/>
<g clip-path="url(#a)">
<defs>
<path id="ad" d="m19.672 64.797v-27.391h12.406q6.8906 0 10.641 3.5625 3.7656 3.5625 3.7656 10.156 0 6.5469-3.7656 10.109-3.75 3.5625-10.641 3.5625zm-9.8594 8.1094h22.266q12.266 0 18.531-5.5469 6.2812-5.5469 6.2812-16.234 0-10.797-6.2812-16.312-6.2656-5.5156-18.531-5.5156h-12.406v-29.297h-9.8594z"/>
</defs>
<g transform="translate(267.86 500.51) rotate(-87.694) scale(.08 -.08)">
<use xlink:href="#ad"/>
</g>
</g>
<path d="m383.09 376.2 4.7721 2.6787q2.0928 1.1748 3.2676-0.91804l3.7899-6.7515q1.1748-2.0928-0.91804-3.2676l-4.7721-2.6787q-2.0928-1.1748-3.2676 0.91804l-3.7899 6.7515q-1.1748 2.0928 0.91804 3.2676z" clip-path="url(#a)" fill="#fff" stroke="#fff"/>
<g clip-path="url(#a)">
<g transform="translate(385.08 372.66) rotate(29.307) scale(.08 -.08)">
<use xlink:href="#r"/>
</g>
</g>
<path d="m722.61 435.68 0.9325-5.3925q0.40895-2.3649-1.956-2.7739l-7.6293-1.3193q-2.3649-0.40895-2.7739 1.9559l-0.9325 5.3925q-0.40895 2.3649 1.956 2.7739l7.6293 1.3193q2.3649 0.40895 2.7739-1.956z" clip-path="url(#a)" fill="#fff" stroke="#fff"/>
<g clip-path="url(#a)">
<g transform="translate(718.61 434.98) rotate(-80.189) scale(.08 -.08)">
<use xlink:href="#r"/>
</g>
</g>
<path d="m745.96 434.96 0.42117-5.0613q0.19903-2.3917-2.1927-2.5908l-7.7158-0.64207q-2.3917-0.19903-2.5908 2.1927l-0.42117 5.0613q-0.19903 2.3917 2.1927 2.5908l7.7158 0.64207q2.3917 0.19903 2.5908-2.1927z" clip-path="url(#a)" fill="#fff" stroke="#fff"/>
<g clip-path="url(#a)">
<defs>
<path id="v" d="m53.516 70.516v-9.625q-5.6094 2.6875-10.594 4-4.9844 1.3281-9.625 1.3281-8.0469 0-12.422-3.125t-4.375-8.8906q0-4.8438 2.9062-7.3125 2.9062-2.4531 11.016-3.9688l5.9531-1.2188q11.031-2.1094 16.281-7.4062t5.25-14.172q0-10.609-7.1094-16.078-7.0938-5.4688-20.812-5.4688-5.1719 0-11.016 1.1719-5.8281 1.1719-12.078 3.4688v10.156q6-3.3594 11.766-5.0781 5.7656-1.7031 11.328-1.7031 8.4375 0 13.031 3.3125 4.5938 3.3281 4.5938 9.4844 0 5.3594-3.2969 8.3906t-10.812 4.5469l-6.0156 1.1719q-11.031 2.1875-15.969 6.875-4.9219 4.6875-4.9219 13.047 0 9.6719 6.8125 15.234t18.766 5.5625q5.1406 0 10.453-0.9375 5.3281-0.92188 10.891-2.7656z"/>
</defs>
<g transform="translate(741.91 434.63) rotate(-85.243) scale(.08 -.08)">
<use xlink:href="#v"/>
</g>
</g>
<path d="m820.65 243.84 3.8592 3.8801q1.6925 1.7016 3.3941 0.009176l5.4896-5.46q1.7016-1.6925 0.009176-3.3941l-3.8592-3.8801q-1.6925-1.7016-3.3941-0.009176l-5.4896 5.46q-1.7016 1.6925-0.009176 3.3941z" clip-path="url(#a)" fill="#fff" stroke="#fff"/>
<g clip-path="url(#a)">
<g transform="translate(823.53 240.97) rotate(45.155) scale(.08 -.08)">
<use xlink:href="#r"/>
</g>
</g>
<path d="m666.25 733.46v35.285q0 2.4 2.4 2.4h7.7425q2.4 0 2.4-2.4v-35.285q0-2.4-2.4-2.4h-7.7425q-2.4 0-2.4 2.4z" clip-path="url(#a)" fill="#fff" stroke="#fff"/>
<g clip-path="url(#a)">
<defs>
<path id="e" d="m56.203 29.594v-4.3906h-41.312q0.59375-9.2812 5.5938-14.141t13.938-4.8594q5.1719 0 10.031 1.2656t9.6562 3.8125v-8.5q-4.8438-2.0469-9.9219-3.125t-10.297-1.0781q-13.094 0-20.734 7.6094-7.6406 7.625-7.6406 20.625 0 13.422 7.25 21.297 7.25 7.8906 19.562 7.8906 11.031 0 17.453-7.1094 6.4219-7.0938 6.4219-19.297zm-8.9844 2.6406q-0.09375 7.3594-4.125 11.75-4.0312 4.4062-10.672 4.4062-7.5156 0-12.031-4.25t-5.2031-11.969z"/>
<path id="j" d="m41.109 46.297q-1.5156 0.875-3.2969 1.2812-1.7812 0.42188-3.9219 0.42188-7.625 0-11.703-4.9531t-4.0781-14.234v-28.812h-9.0312v54.688h9.0312v-8.5q2.8438 4.9844 7.375 7.3906 4.5469 2.4219 11.047 2.4219 0.92188 0 2.0469-0.125 1.125-0.10938 2.4844-0.35938z"/>
<path id="l" d="m52 44.188q3.375 6.0625 8.0625 8.9375t11.031 2.875q8.5469 0 13.188-5.9844 4.6406-5.9688 4.6406-17v-33.016h-9.0312v32.719q0 7.8594-2.7969 11.656-2.7812 3.8125-8.4844 3.8125-6.9844 0-11.047-4.6406-4.0469-4.625-4.0469-12.641v-30.906h-9.0312v32.719q0 7.9062-2.7812 11.688t-8.5938 3.7812q-6.8906 0-10.953-4.6562-4.0469-4.6562-4.0469-12.625v-30.906h-9.0312v54.688h9.0312v-8.5q3.0781 5.0312 7.375 7.4219t10.203 2.3906q5.9688 0 10.141-3.0312 4.1719-3.0156 6.1719-8.7812z"/>
<path id="g" d="m9.4219 54.688h8.9844v-54.688h-8.9844zm0 21.297h8.9844v-11.391h-8.9844z"/>
<path id="h" d="m54.891 33.016v-33.016h-8.9844v32.719q0 7.7656-3.0312 11.609-3.0312 3.8594-9.0781 3.8594-7.2812 0-11.484-4.6406-4.2031-4.625-4.2031-12.641v-30.906h-9.0312v54.688h9.0312v-8.5q3.2344 4.9375 7.5938 7.375 4.375 2.4375 10.094 2.4375 9.4219 0 14.25-5.8281 4.8438-5.8281 4.8438-17.156z"/>
<path id="d" d="m34.281 27.484q-10.891 0-15.094-2.4844t-4.2031-8.5q0-4.7812 3.1562-7.5938 3.1562-2.7969 8.5625-2.7969 7.4844 0 12 5.2969t4.5156 14.078v2zm17.922 3.7188v-31.203h-8.9844v8.2969q-3.0781-4.9688-7.6719-7.3438t-11.234-2.375q-8.3906 0-13.359 4.7188-4.9531 4.7188-4.9531 12.625 0 9.2188 6.1719 13.906 6.1875 4.6875 18.438 4.6875h12.609v0.89062q0 6.2031-4.0781 9.5938t-11.453 3.3906q-4.6875 0-9.1406-1.125-4.4375-1.125-8.5312-3.375v8.3125q4.9219 1.9062 9.5625 2.8438 4.6406 0.95312 9.0312 0.95312 11.875 0 17.734-6.1562 5.8594-6.1406 5.8594-18.641z"/>
<path id="f" d="m9.4219 75.984h8.9844v-75.984h-8.9844z"/>
</defs>
<g transform="translate(670.31 733.46) rotate(90) scale(.08 -.08)">
<use xlink:href="#k"/>
<use x="60.818359" xlink:href="#e"/>
<use x="122.341797" xlink:href="#j"/>
<use x="163.439453" xlink:href="#l"/>
<use x="260.851562" xlink:href="#g"/>
<use x="288.634766" xlink:href="#h"/>
<use x="352.013672" xlink:href="#d"/>
<use x="413.292969" xlink:href="#f"/>
</g>
</g>
<path d="m712.3 733.46v35.285q0 2.4 2.4 2.4h7.7425q2.4 0 2.4-2.4v-35.285q0-2.4-2.4-2.4h-7.7425q-2.4 0-2.4 2.4z" clip-path="url(#a)" fill="#fff" stroke="#fff"/>
<g clip-path="url(#a)">
<g transform="translate(716.36 733.46) rotate(90) scale(.08 -.08)">
<use xlink:href="#k"/>
<use x="60.818359" xlink:href="#e"/>
<use x="122.341797" xlink:href="#j"/>
<use x="163.439453" xlink:href="#l"/>
<use x="260.851562" xlink:href="#g"/>
<use x="288.634766" xlink:href="#h"/>
<use x="352.013672" xlink:href="#d"/>
<use x="413.292969" xlink:href="#f"/>
</g>
</g>
<path d="m833.83 502.4 1.611-4.7914q0.76488-2.2749-1.51-3.0397l-7.3388-2.4675q-2.2749-0.76488-3.0397 1.51l-1.611 4.7914q-0.76488 2.2749 1.51 3.0397l7.3388 2.4675q2.2749 0.76488 3.0397-1.51z" clip-path="url(#a)" fill="#fff" stroke="#fff"/>
<g clip-path="url(#a)">
<defs>
<path id="t" d="m9.8125 72.906h46.094v-8.3125h-36.234v-21.578h34.719v-8.2969h-34.719v-26.422h37.109v-8.2969h-46.969z"/>
</defs>
<g transform="translate(829.98 501.11) rotate(-71.416) scale(.08 -.08)">
<use xlink:href="#t"/>
</g>
</g>
<path d="m857.26 502.05 1.1705-5.4341q0.50538-2.3462-1.8408-2.8516l-7.5689-1.6304q-2.3462-0.50538-2.8516 1.8408l-1.1705 5.4341q-0.50538 2.3462 1.8408 2.8516l7.5689 1.6304q2.3462 0.50538 2.8516-1.8408z" clip-path="url(#a)" fill="#fff" stroke="#fff"/>
<g clip-path="url(#a)">
<defs>
<path id="y" d="m44.391 34.188q3.1719-1.0781 6.1719-4.5938t6.0312-9.6719l10.016-19.922h-10.609l-9.3125 18.703q-3.625 7.3281-7.0156 9.7188t-9.25 2.3906h-10.75v-30.812h-9.8594v72.906h22.266q12.5 0 18.656-5.2344 6.1562-5.2188 6.1562-15.766 0-6.8906-3.2031-11.438-3.2031-4.5312-9.2969-6.2812zm-24.719 30.609v-25.875h12.406q7.125 0 10.766 3.2969t3.6406 9.6875-3.6406 9.6406-10.766 3.25z"/>
</defs>
<g transform="translate(853.29 501.19) rotate(-77.844) scale(.08 -.08)">
<use xlink:href="#y"/>
</g>
</g>
<path d="m880.77 500.89 0.43324-4.5808q0.22598-2.3893-2.1634-2.6153l-7.7081-0.72901q-2.3893-0.22598-2.6153 2.1634l-0.43324 4.5808q-0.22598 2.3893 2.1634 2.6153l7.7081 0.72901q2.3893 0.22598 2.6153-2.1634z" clip-path="url(#a)" fill="#fff" stroke="#fff"/>
<g clip-path="url(#a)">
<defs>
<path id="au" d="m9.8125 72.906h41.891v-8.3125h-32.031v-21.484h28.906v-8.2969h-28.906v-34.812h-9.8594z"/>
</defs>
<g transform="translate(876.72 500.51) rotate(-84.597) scale(.08 -.08)">
<use xlink:href="#au"/>
</g>
</g>
<path d="m914.18 496.16 0.81288 5.5268q0.34923 2.3745 2.7237 2.0252l7.6601-1.1266q2.3745-0.34923 2.0252-2.7237l-0.81288-5.5268q-0.34923-2.3745-2.7237-2.0252l-7.6601 1.1266q-2.3745 0.34923-2.0252 2.7237z" clip-path="url(#a)" fill="#fff" stroke="#fff"/>
<g clip-path="url(#a)">
<defs>
<path id="q" d="m64.406 67.281v-10.391q-4.9844 4.6406-10.625 6.9219-5.6406 2.2969-11.984 2.2969-12.5 0-19.141-7.6406t-6.6406-22.094q0-14.406 6.6406-22.047t19.141-7.6406q6.3438 0 11.984 2.2969t10.625 6.9375v-10.312q-5.1719-3.5156-10.969-5.2812-5.7812-1.75-12.219-1.75-16.562 0-26.094 10.125-9.5156 10.141-9.5156 27.672 0 17.578 9.5156 27.703 9.5312 10.141 26.094 10.141 6.5312 0 12.312-1.7344 5.7969-1.7344 10.875-5.2031z"/>
</defs>
<g transform="translate(918.2 495.57) rotate(81.633) scale(.08 -.08)">
<use xlink:href="#q"/>
</g>
</g>
<path d="m891.43 495.65 0.13265 5.0533q0.062982 2.3992 2.4622 2.3362l7.7398-0.20318q2.3992-0.062981 2.3362-2.4622l-0.13266-5.0533q-0.062981-2.3992-2.4622-2.3362l-7.7398 0.20318q-2.3992 0.062981-2.3362 2.4622z" clip-path="url(#a)" fill="#fff" stroke="#fff"/>
<g clip-path="url(#a)">
<g transform="translate(895.49 495.54) rotate(88.496) scale(.08 -.08)">
<use xlink:href="#t"/>
</g>
</g>
<path d="m977.16 375.7 4.1079 2.9459q1.9503 1.3987 3.349-0.55166l4.5121-6.2918q1.3987-1.9503-0.55166-3.349l-4.1079-2.9459q-1.9503-1.3987-3.349 0.55166l-4.5121 6.2918q-1.3987 1.9503 0.55166 3.349z" clip-path="url(#a)" fill="#fff" stroke="#fff"/>
<g clip-path="url(#a)">
<g transform="translate(979.53 372.39) rotate(35.646) scale(.08 -.08)">
<use xlink:href="#t"/>
</g>
</g>
<path d="m758.35 733.46v35.285q0 2.4 2.4 2.4h7.7425q2.4 0 2.4-2.4v-35.285q0-2.4-2.4-2.4h-7.7425q-2.4 0-2.4 2.4z" clip-path="url(#a)" fill="#fff" stroke="#fff"/>
<g clip-path="url(#a)">
<g transform="translate(762.41 733.46) rotate(90) scale(.08 -.08)">
<use xlink:href="#k"/>
<use x="60.818359" xlink:href="#e"/>
<use x="122.341797" xlink:href="#j"/>
<use x="163.439453" xlink:href="#l"/>
<use x="260.851562" xlink:href="#g"/>
<use x="288.634766" xlink:href="#h"/>
<use x="352.013672" xlink:href="#d"/>
<use x="413.292969" xlink:href="#f"/>
</g>
</g>
<path d="m804.4 733.46v35.285q0 2.4 2.4 2.4h7.7425q2.4 0 2.4-2.4v-35.285q0-2.4-2.4-2.4h-7.7425q-2.4 0-2.4 2.4z" clip-path="url(#a)" fill="#fff" stroke="#fff"/>
<g clip-path="url(#a)">
<g transform="translate(808.46 733.46) rotate(90) scale(.08 -.08)">
<use xlink:href="#k"/>
<use x="60.818359" xlink:href="#e"/>
<use x="122.341797" xlink:href="#j"/>
<use x="163.439453" xlink:href="#l"/>
<use x="260.851562" xlink:href="#g"/>
<use x="288.634766" xlink:href="#h"/>
<use x="352.013672" xlink:href="#d"/>
<use x="413.292969" xlink:href="#f"/>
</g>
</g>
<path d="m850.44 733.46v35.285q0 2.4 2.4 2.4h7.7425q2.4 0 2.4-2.4v-35.285q0-2.4-2.4-2.4h-7.7425q-2.4 0-2.4 2.4z" clip-path="url(#a)" fill="#fff" stroke="#fff"/>
<g clip-path="url(#a)">
<g transform="translate(854.51 733.46) rotate(90) scale(.08 -.08)">
<use xlink:href="#k"/>
<use x="60.818359" xlink:href="#e"/>
<use x="122.341797" xlink:href="#j"/>
<use x="163.439453" xlink:href="#l"/>
<use x="260.851562" xlink:href="#g"/>
<use x="288.634766" xlink:href="#h"/>
<use x="352.013672" xlink:href="#d"/>
<use x="413.292969" xlink:href="#f"/>
</g>
</g>
<path d="m942.54 733.46v35.285q0 2.4 2.4 2.4h7.7425q2.4 0 2.4-2.4v-35.285q0-2.4-2.4-2.4h-7.7425q-2.4 0-2.4 2.4z" clip-path="url(#a)" fill="#fff" stroke="#fff"/>
<g clip-path="url(#a)">
<g transform="translate(946.61 733.46) rotate(90) scale(.08 -.08)">
<use xlink:href="#k"/>
<use x="60.818359" xlink:href="#e"/>
<use x="122.341797" xlink:href="#j"/>
<use x="163.439453" xlink:href="#l"/>
<use x="260.851562" xlink:href="#g"/>
<use x="288.634766" xlink:href="#h"/>
<use x="352.013672" xlink:href="#d"/>
<use x="413.292969" xlink:href="#f"/>
</g>
</g>
<path d="m896.49 733.46v35.285q0 2.4 2.4 2.4h7.7425q2.4 0 2.4-2.4v-35.285q0-2.4-2.4-2.4h-7.7425q-2.4 0-2.4 2.4z" clip-path="url(#a)" fill="#fff" stroke="#fff"/>
<g clip-path="url(#a)">
<g transform="translate(900.56 733.46) rotate(90) scale(.08 -.08)">
<use xlink:href="#k"/>
<use x="60.818359" xlink:href="#e"/>
<use x="122.341797" xlink:href="#j"/>
<use x="163.439453" xlink:href="#l"/>
<use x="260.851562" xlink:href="#g"/>
<use x="288.634766" xlink:href="#h"/>
<use x="352.013672" xlink:href="#d"/>
<use x="413.292969" xlink:href="#f"/>
</g>
</g>
<path d="m1015.3 567.86 2.4198-4.9084q1.0612-2.1526-1.0914-3.2139l-6.9445-3.4235q-2.1526-1.0612-3.2139 1.0914l-2.4198 4.9084q-1.0612 2.1526 1.0914 3.2138l6.9445 3.4235q2.1526 1.0612 3.2138-1.0914z" clip-path="url(#a)" fill="#fff" stroke="#fff"/>
<g clip-path="url(#a)">
<g transform="translate(1011.7 566.06) rotate(-63.757) scale(.08 -.08)">
<use xlink:href="#r"/>
</g>
</g>
<path d="m1039.1 567.14 1.6467-5.3092q0.71097-2.2923-1.5813-3.0032l-7.395-2.2936q-2.2923-0.71097-3.0032 1.5813l-1.6467 5.3092q-0.71097 2.2923 1.5813 3.0032l7.395 2.2936q2.2923 0.71097 3.0032-1.5813z" clip-path="url(#a)" fill="#fff" stroke="#fff"/>
<g clip-path="url(#a)">
<g transform="translate(1035.2 565.94) rotate(-72.768) scale(.08 -.08)">
<use xlink:href="#y"/>
</g>
</g>
<path d="m1062.8 565.94 0.64149-5.0381q0.30314-2.3808-2.0776-2.6839l-7.6805-0.97794q-2.3808-0.30314-2.6839 2.0776l-0.64149 5.0381q-0.30314 2.3808 2.0776 2.6839l7.6805 0.97794q2.3808 0.30314 2.6839-2.0776z" clip-path="url(#a)" fill="#fff" stroke="#fff"/>
<g clip-path="url(#a)">
<g transform="translate(1058.8 565.43) rotate(-82.744) scale(.08 -.08)">
<use xlink:href="#v"/>
</g>
</g>
<path d="m1184.8 504.31 4.8131 2.6042q2.1108 1.1421 3.2529-0.96872l3.6845-6.8096q1.1421-2.1108-0.96872-3.2529l-4.8131-2.6042q-2.1108-1.1421-3.2529 0.96872l-3.6845 6.8096q-1.1421 2.1108 0.96872 3.2529z" clip-path="url(#a)" fill="#fff" stroke="#fff"/>
<g clip-path="url(#a)">
<g transform="translate(1186.7 500.74) rotate(28.417) scale(.08 -.08)">
<use xlink:href="#r"/>
</g>
</g>
<path d="m988.59 733.46v35.285q0 2.4 2.4 2.4h7.7425q2.4 0 2.4-2.4v-35.285q0-2.4-2.4-2.4h-7.7425q-2.4 0-2.4 2.4z" clip-path="url(#a)" fill="#fff" stroke="#fff"/>
<g clip-path="url(#a)">
<g transform="translate(992.66 733.46) rotate(90) scale(.08 -.08)">
<use xlink:href="#k"/>
<use x="60.818359" xlink:href="#e"/>
<use x="122.341797" xlink:href="#j"/>
<use x="163.439453" xlink:href="#l"/>
<use x="260.851562" xlink:href="#g"/>
<use x="288.634766" xlink:href="#h"/>
<use x="352.013672" xlink:href="#d"/>
<use x="413.292969" xlink:href="#f"/>
</g>
</g>
<path d="m1034.6 733.46v35.285q0 2.4 2.4 2.4h7.7425q2.4 0 2.4-2.4v-35.285q0-2.4-2.4-2.4h-7.7425q-2.4 0-2.4 2.4z" clip-path="url(#a)" fill="#fff" stroke="#fff"/>
<g clip-path="url(#a)">
<g transform="translate(1038.7 733.46) rotate(90) scale(.08 -.08)">
<use xlink:href="#k"/>
<use x="60.818359" xlink:href="#e"/>
<use x="122.341797" xlink:href="#j"/>
<use x="163.439453" xlink:href="#l"/>
<use x="260.851562" xlink:href="#g"/>
<use x="288.634766" xlink:href="#h"/>
<use x="352.013672" xlink:href="#d"/>
<use x="413.292969" xlink:href="#f"/>
</g>
</g>
<path d="m1209.7 632.83 4.7186-2.9902q2.0272-1.2847 0.74256-3.3119l-4.1444-6.5399q-1.2847-2.0272-3.3119-0.74256l-4.7186 2.9902q-2.0272 1.2847-0.74256 3.3119l4.1444 6.5399q1.2847 2.0272 3.3119 0.74256z" clip-path="url(#a)" fill="#fff" stroke="#fff"/>
<g clip-path="url(#a)">
<g transform="translate(1207.5 629.39) rotate(-32.363) scale(.08 -.08)">
<use xlink:href="#q"/>
</g>
</g>
<path d="m1282.2 631.24 2.3902-5.049q1.0269-2.1692-1.1423-3.1961l-6.9979-3.3129q-2.1692-1.0269-3.1961 1.1423l-2.3902 5.049q-1.0269 2.1692 1.1423 3.1961l6.9979 3.3129q2.1692 1.0269 3.1961-1.1423z" clip-path="url(#a)" fill="#fff" stroke="#fff"/>
<g clip-path="url(#a)">
<g transform="translate(1278.5 629.5) rotate(-64.667) scale(.08 -.08)">
<use xlink:href="#q"/>
</g>
</g>
<path d="m1328.4 625.86 2.4429 5.4638q0.9796 2.191 3.1706 1.2114l7.0682-3.1602q2.191-0.9796 1.2114-3.1706l-2.4429-5.4638q-0.9796-2.191-3.1706-1.2114l-7.0682 3.1602q-2.191 0.9796-1.2114 3.1706z" clip-path="url(#a)" fill="#fff" stroke="#fff"/>
<g clip-path="url(#a)">
<defs>
<path id="as" d="m9.8125 72.906h13.281l32.328-60.984v60.984h9.5625v-72.906h-13.281l-32.312 60.984v-60.984h-9.5781z"/>
</defs>
<g transform="translate(1332.1 624.2) rotate(65.91) scale(.08 -.08)">
<use xlink:href="#as"/>
</g>
</g>
<path d="m1363.4 628.49 3.9489 3.9512q1.6966 1.6976 3.3941 9.98e-4l5.4764-5.4732q1.6976-1.6966 9.98e-4 -3.3941l-3.9489-3.9512q-1.6966-1.6976-3.3941-9.98e-4l-5.4764 5.4732q-1.6976 1.6966-9.98e-4 3.3941z" clip-path="url(#a)" fill="#fff" stroke="#fff"/>
<g clip-path="url(#a)">
<g transform="translate(1366.3 625.62) rotate(45.017) scale(.08 -.08)">
<use xlink:href="#q"/>
</g>
</g>
<path d="m1245.5 632.57 4.1923-4.0872q1.7185-1.6754 0.043078-3.3938l-5.4048-5.5438q-1.6754-1.7185-3.3938-0.043079l-4.1923 4.0872q-1.7185 1.6754-0.043078 3.3938l5.4048 5.5438q1.6754 1.7185 3.3938 0.043078z" clip-path="url(#a)" fill="#fff" stroke="#fff"/>
<g clip-path="url(#a)">
<g transform="translate(1242.6 629.66) rotate(-44.273) scale(.08 -.08)">
<use xlink:href="#s"/>
</g>
</g>
<path d="m1305.8 623.61 0.46053 5.8369q0.18878 2.3926 2.5813 2.2038l7.7185-0.609q2.3926-0.18878 2.2038-2.5813l-0.46053-5.8369q-0.18878-2.3926-2.5813-2.2038l-7.7185 0.609q-2.3926 0.18878-2.2038 2.5813z" clip-path="url(#a)" fill="#fff" stroke="#fff"/>
<g clip-path="url(#a)">
<g transform="translate(1309.8 623.29) rotate(85.489) scale(.08 -.08)">
<use xlink:href="#s"/>
</g>
</g>
<path d="m1398.5 629.72 4.9215 3.1717q2.0174 1.3001 3.3175-0.71728l4.1941-6.5081q1.3001-2.0174-0.71728-3.3175l-4.9215-3.1717q-2.0174-1.3001-3.3175 0.71728l-4.1941 6.5081q-1.3001 2.0174 0.71728 3.3175z" clip-path="url(#a)" fill="#fff" stroke="#fff"/>
<g clip-path="url(#a)">
<g transform="translate(1400.7 626.3) rotate(32.8) scale(.08 -.08)">
<use xlink:href="#s"/>
</g>
</g>
<path d="m1101.4 769.59 6.3887-34.702q0.43454-2.3603-1.9258-2.7949l-7.6145-1.4019q-2.3603-0.43454-2.7949 1.9258l-6.3887 34.702q-0.43454 2.3603 1.9258 2.7949l7.6145 1.4019q2.3603 0.43454 2.7949-1.9258z" clip-path="url(#a)" fill="#fff" stroke="#fff"/>
<g clip-path="url(#a)">
<g transform="translate(1097.5 768.85) rotate(-79.569) scale(.08 -.08)">
<use xlink:href="#k"/>
<use x="60.818359" xlink:href="#e"/>
<use x="122.341797" xlink:href="#j"/>
<use x="163.439453" xlink:href="#l"/>
<use x="260.851562" xlink:href="#g"/>
<use x="288.634766" xlink:href="#h"/>
<use x="352.013672" xlink:href="#d"/>
<use x="413.292969" xlink:href="#f"/>
</g>
</g>
<path d="m1112.1 734.88 6.3887 34.702q0.43454 2.3603 2.7949 1.9258l7.6145-1.4019q2.3603-0.43454 1.9258-2.7949l-6.3887-34.702q-0.43454-2.3603-2.7949-1.9258l-7.6145 1.4019q-2.3603 0.43454-1.9258 2.7949z" clip-path="url(#a)" fill="#fff" stroke="#fff"/>
<g clip-path="url(#a)">
<g transform="translate(1116.1 734.15) rotate(79.569) scale(.08 -.08)">
<use xlink:href="#k"/>
<use x="60.818359" xlink:href="#e"/>
<use x="122.341797" xlink:href="#j"/>
<use x="163.439453" xlink:href="#l"/>
<use x="260.851562" xlink:href="#g"/>
<use x="288.634766" xlink:href="#h"/>
<use x="352.013672" xlink:href="#d"/>
<use x="413.292969" xlink:href="#f"/>
</g>
</g>
<path d="m1239.6 769.59 6.3887-34.702q0.43454-2.3603-1.9258-2.7949l-7.6145-1.4019q-2.3603-0.43454-2.7949 1.9258l-6.3887 34.702q-0.43454 2.3603 1.9258 2.7949l7.6145 1.4019q2.3603 0.43454 2.7949-1.9258z" clip-path="url(#a)" fill="#fff" stroke="#fff"/>
<g clip-path="url(#a)">
<g transform="translate(1235.6 768.85) rotate(-79.569) scale(.08 -.08)">
<use xlink:href="#k"/>
<use x="60.818359" xlink:href="#e"/>
<use x="122.341797" xlink:href="#j"/>
<use x="163.439453" xlink:href="#l"/>
<use x="260.851562" xlink:href="#g"/>
<use x="288.634766" xlink:href="#h"/>
<use x="352.013672" xlink:href="#d"/>
<use x="413.292969" xlink:href="#f"/>
</g>
</g>
<path d="m1250.3 734.88 6.3887 34.702q0.43454 2.3603 2.7949 1.9258l7.6145-1.4019q2.3603-0.43454 1.9258-2.7949l-6.3887-34.702q-0.43454-2.3603-2.7949-1.9258l-7.6145 1.4019q-2.3603 0.43454-1.9258 2.7949z" clip-path="url(#a)" fill="#fff" stroke="#fff"/>
<g clip-path="url(#a)">
<g transform="translate(1254.3 734.15) rotate(79.569) scale(.08 -.08)">
<use xlink:href="#k"/>
<use x="60.818359" xlink:href="#e"/>
<use x="122.341797" xlink:href="#j"/>
<use x="163.439453" xlink:href="#l"/>
<use x="260.851562" xlink:href="#g"/>
<use x="288.634766" xlink:href="#h"/>
<use x="352.013672" xlink:href="#d"/>
<use x="413.292969" xlink:href="#f"/>
</g>
</g>
<path d="m1357 733.46v35.285q0 2.4 2.4 2.4h7.7425q2.4 0 2.4-2.4v-35.285q0-2.4-2.4-2.4h-7.7425q-2.4 0-2.4 2.4z" clip-path="url(#a)" fill="#fff" stroke="#fff"/>
<g clip-path="url(#a)">
<g transform="translate(1361.1 733.46) rotate(90) scale(.08 -.08)">
<use xlink:href="#k"/>
<use x="60.818359" xlink:href="#e"/>
<use x="122.341797" xlink:href="#j"/>
<use x="163.439453" xlink:href="#l"/>
<use x="260.851562" xlink:href="#g"/>
<use x="288.634766" xlink:href="#h"/>
<use x="352.013672" xlink:href="#d"/>
<use x="413.292969" xlink:href="#f"/>
</g>
</g>
<path d="m1423.8 769.59 6.3887-34.702q0.43454-2.3603-1.9258-2.7949l-7.6145-1.4019q-2.3603-0.43454-2.7949 1.9258l-6.3887 34.702q-0.43454 2.3603 1.9258 2.7949l7.6145 1.4019q2.3603 0.43454 2.7949-1.9258z" clip-path="url(#a)" fill="#fff" stroke="#fff"/>
<g clip-path="url(#a)">
<g transform="translate(1419.8 768.85) rotate(-79.569) scale(.08 -.08)">
<use xlink:href="#k"/>
<use x="60.818359" xlink:href="#e"/>
<use x="122.341797" xlink:href="#j"/>
<use x="163.439453" xlink:href="#l"/>
<use x="260.851562" xlink:href="#g"/>
<use x="288.634766" xlink:href="#h"/>
<use x="352.013672" xlink:href="#d"/>
<use x="413.292969" xlink:href="#f"/>
</g>
</g>
<path d="m1434.5 734.88 6.3887 34.702q0.43454 2.3603 2.7949 1.9258l7.6145-1.4019q2.3603-0.43454 1.9258-2.7949l-6.3887-34.702q-0.43454-2.3603-2.7949-1.9258l-7.6145 1.4019q-2.3603 0.43454-1.9258 2.7949z" clip-path="url(#a)" fill="#fff" stroke="#fff"/>
<g clip-path="url(#a)">
<g transform="translate(1438.5 734.15) rotate(79.569) scale(.08 -.08)">
<use xlink:href="#k"/>
<use x="60.818359" xlink:href="#e"/>
<use x="122.341797" xlink:href="#j"/>
<use x="163.439453" xlink:href="#l"/>
<use x="260.851562" xlink:href="#g"/>
<use x="288.634766" xlink:href="#h"/>
<use x="352.013672" xlink:href="#d"/>
<use x="413.292969" xlink:href="#f"/>
</g>
</g>
<path d="m101.91 630.57 1.7466-4.7437q0.82926-2.2522-1.4229-3.0814l-7.2656-2.6752q-2.2522-0.82926-3.0814 1.4229l-1.7466 4.7437q-0.82926 2.2522 1.4229 3.0814l7.2656 2.6752q2.2522 0.82926 3.0814-1.4229z" clip-path="url(#a)" fill="#fff" stroke="#fff"/>
<g clip-path="url(#a)">
<g transform="translate(98.097 629.17) rotate(-69.786) scale(.08 -.08)">
<use xlink:href="#t"/>
</g>
</g>
<path d="m113.65 623.51v5.055q0 2.4 2.4 2.4h7.7425q2.4 0 2.4-2.4v-5.055q0-2.4-2.4-2.4h-7.7425q-2.4 0-2.4 2.4z" clip-path="url(#a)" fill="#fff" stroke="#fff"/>
<g clip-path="url(#a)">
<g transform="translate(117.72 623.51) rotate(90) scale(.08 -.08)">
<use xlink:href="#t"/>
</g>
</g>
<path d="m136.1 625.58 1.9302 5.2422q0.82926 2.2522 3.0814 1.4229l7.2656-2.6752q2.2522-0.82926 1.4229-3.0814l-1.9302-5.2422q-0.82926-2.2522-3.0814-1.4229l-7.2656 2.6752q-2.2522 0.82926-1.4229 3.0814z" clip-path="url(#a)" fill="#fff" stroke="#fff"/>
<g clip-path="url(#a)">
<g transform="translate(139.91 624.18) rotate(69.786) scale(.08 -.08)">
<use xlink:href="#q"/>
</g>
</g>
<path d="m205.75 733.46v35.285q0 2.4 2.4 2.4h7.7425q2.4 0 2.4-2.4v-35.285q0-2.4-2.4-2.4h-7.7425q-2.4 0-2.4 2.4z" clip-path="url(#a)" fill="#fff" stroke="#fff"/>
<g clip-path="url(#a)">
<g transform="translate(209.82 733.46) rotate(90) scale(.08 -.08)">
<use xlink:href="#k"/>
<use x="60.818359" xlink:href="#e"/>
<use x="122.341797" xlink:href="#j"/>
<use x="163.439453" xlink:href="#l"/>
<use x="260.851562" xlink:href="#g"/>
<use x="288.634766" xlink:href="#h"/>
<use x="352.013672" xlink:href="#d"/>
<use x="413.292969" xlink:href="#f"/>
</g>
</g>
<path d="m251.8 733.46v35.285q0 2.4 2.4 2.4h7.7425q2.4 0 2.4-2.4v-35.285q0-2.4-2.4-2.4h-7.7425q-2.4 0-2.4 2.4z" clip-path="url(#a)" fill="#fff" stroke="#fff"/>
<g clip-path="url(#a)">
<g transform="translate(255.86 733.46) rotate(90) scale(.08 -.08)">
<use xlink:href="#k"/>
<use x="60.818359" xlink:href="#e"/>
<use x="122.341797" xlink:href="#j"/>
<use x="163.439453" xlink:href="#l"/>
<use x="260.851562" xlink:href="#g"/>
<use x="288.634766" xlink:href="#h"/>
<use x="352.013672" xlink:href="#d"/>
<use x="413.292969" xlink:href="#f"/>
</g>
</g>
<path d="m407.09 568.7 3.4519-4.357q1.4904-1.8812-0.39078-3.3715l-6.0687-4.808q-1.8812-1.4904-3.3715 0.39078l-3.4519 4.357q-1.4904 1.8812 0.39078 3.3715l6.0687 4.808q1.8812 1.4904 3.3715-0.39078z" clip-path="url(#a)" fill="#fff" stroke="#fff"/>
<g clip-path="url(#a)">
<g transform="translate(403.9 566.18) rotate(-51.611) scale(.08 -.08)">
<use xlink:href="#y"/>
</g>
</g>
<path d="m454.62 567.66 2.192-5.1382q0.94174-2.2075-1.2658-3.1493l-7.1215-3.0381q-2.2075-0.94174-3.1493 1.2658l-2.192 5.1382q-0.94174 2.2075 1.2658 3.1493l7.1215 3.0381q2.2075 0.94174 3.1493-1.2658z" clip-path="url(#a)" fill="#fff" stroke="#fff"/>
<g clip-path="url(#a)">
<g transform="translate(450.88 566.07) rotate(-66.897) scale(.08 -.08)">
<use xlink:href="#q"/>
</g>
</g>
<path d="m660.2 505.01 4.7041 1.8505q2.2334 0.87858 3.112-1.3548l2.8343-7.2051q0.87858-2.2334-1.3548-3.112l-4.7041-1.8505q-2.2334-0.87858-3.112 1.3548l-2.8343 7.2051q-0.87858 2.2334 1.3548 3.112z" clip-path="url(#a)" fill="#fff" stroke="#fff"/>
<g clip-path="url(#a)">
<g transform="translate(661.68 501.23) rotate(21.474) scale(.08 -.08)">
<use xlink:href="#t"/>
</g>
</g>
<path d="m502.08 565.93 0.35616-5.8442q0.14599-2.3956-2.2496-2.5415l-7.7282-0.47098q-2.3956-0.14599-2.5415 2.2496l-0.35616 5.8442q-0.14599 2.3956 2.2496 2.5415l7.7282 0.47098q2.3956 0.14599 2.5415-2.2496z" clip-path="url(#a)" fill="#fff" stroke="#fff"/>
<g clip-path="url(#a)">
<g transform="translate(498.02 565.69) rotate(-86.513) scale(.08 -.08)">
<use xlink:href="#s"/>
</g>
</g>
<path d="m297.85 733.46v35.285q0 2.4 2.4 2.4h7.7425q2.4 0 2.4-2.4v-35.285q0-2.4-2.4-2.4h-7.7425q-2.4 0-2.4 2.4z" clip-path="url(#a)" fill="#fff" stroke="#fff"/>
<g clip-path="url(#a)">
<g transform="translate(301.91 733.46) rotate(90) scale(.08 -.08)">
<use xlink:href="#k"/>
<use x="60.818359" xlink:href="#e"/>
<use x="122.341797" xlink:href="#j"/>
<use x="163.439453" xlink:href="#l"/>
<use x="260.851562" xlink:href="#g"/>
<use x="288.634766" xlink:href="#h"/>
<use x="352.013672" xlink:href="#d"/>
<use x="413.292969" xlink:href="#f"/>
</g>
</g>
<path d="m372.99 769.82 12.192-33.112q0.82926-2.2522-1.4229-3.0814l-7.2656-2.6752q-2.2522-0.82926-3.0814 1.4229l-12.192 33.112q-0.82926 2.2522 1.4229 3.0814l7.2656 2.6752q2.2522 0.82926 3.0814-1.4229z" clip-path="url(#a)" fill="#fff" stroke="#fff"/>
<g clip-path="url(#a)">
<g transform="translate(369.17 768.42) rotate(-69.786) scale(.08 -.08)">
<use xlink:href="#k"/>
<use x="60.818359" xlink:href="#e"/>
<use x="122.341797" xlink:href="#j"/>
<use x="163.439453" xlink:href="#l"/>
<use x="260.851562" xlink:href="#g"/>
<use x="288.634766" xlink:href="#h"/>
<use x="352.013672" xlink:href="#d"/>
<use x="413.292969" xlink:href="#f"/>
</g>
</g>
<path d="m389.95 733.46v35.285q0 2.4 2.4 2.4h7.7425q2.4 0 2.4-2.4v-35.285q0-2.4-2.4-2.4h-7.7425q-2.4 0-2.4 2.4z" clip-path="url(#a)" fill="#fff" stroke="#fff"/>
<g clip-path="url(#a)">
<g transform="translate(394.01 733.46) rotate(90) scale(.08 -.08)">
<use xlink:href="#k"/>
<use x="60.818359" xlink:href="#e"/>
<use x="122.341797" xlink:href="#j"/>
<use x="163.439453" xlink:href="#l"/>
<use x="260.851562" xlink:href="#g"/>
<use x="288.634766" xlink:href="#h"/>
<use x="352.013672" xlink:href="#d"/>
<use x="413.292969" xlink:href="#f"/>
</g>
</g>
<path d="m407.26 736.71 12.192 33.112q0.82926 2.2522 3.0814 1.4229l7.2656-2.6752q2.2522-0.82926 1.4229-3.0814l-12.192-33.112q-0.82926-2.2522-3.0814-1.4229l-7.2656 2.6752q-2.2522 0.82926-1.4229 3.0814z" clip-path="url(#a)" fill="#fff" stroke="#fff"/>
<g clip-path="url(#a)">
<g transform="translate(411.08 735.31) rotate(69.786) scale(.08 -.08)">
<use xlink:href="#k"/>
<use x="60.818359" xlink:href="#e"/>
<use x="122.341797" xlink:href="#j"/>
<use x="163.439453" xlink:href="#l"/>
<use x="260.851562" xlink:href="#g"/>
<use x="288.634766" xlink:href="#h"/>
<use x="352.013672" xlink:href="#d"/>
<use x="413.292969" xlink:href="#f"/>
</g>
</g>
<path d="m610.24 632.82 5.2546-1.529q2.3044-0.67056 1.6339-2.975l-2.1632-7.4342q-0.67056-2.3044-2.975-1.6339l-5.2546 1.529q-2.3044 0.67056-1.6339 2.975l2.1632 7.4342q0.67056 2.3044 2.975 1.6339z" clip-path="url(#a)" fill="#fff" stroke="#fff"/>
<g clip-path="url(#a)">
<g transform="translate(609.11 628.92) rotate(-16.224) scale(.08 -.08)">
<use xlink:href="#r"/>
</g>
</g>
<path d="m1182.4 693.7 4.5576 1.5802q2.2676 0.78619 3.0538-1.4814l2.5363-7.3153q0.78619-2.2676-1.4814-3.0538l-4.5576-1.5802q-2.2676-0.78619-3.0538 1.4814l-2.5363 7.3153q-0.78619 2.2676 1.4814 3.0538z" clip-path="url(#a)" fill="#fff" stroke="#fff"/>
<g clip-path="url(#a)">
<g transform="translate(1183.7 689.86) rotate(19.122) scale(.08 -.08)">
<use xlink:href="#ad"/>
</g>
</g>
<path d="m680.42 632.76 4.4908-1.9257q2.2057-0.94588 1.2599-3.1516l-3.0514-7.1158q-0.94588-2.2057-3.1516-1.2599l-4.4908 1.9257q-2.2057 0.94588-1.2599 3.1516l3.0514 7.1158q0.94588 2.2057 3.1516 1.2599z" clip-path="url(#a)" fill="#fff" stroke="#fff"/>
<g clip-path="url(#a)">
<g transform="translate(678.82 629.03) rotate(-23.211) scale(.08 -.08)">
<use xlink:href="#k"/>
</g>
</g>
<path d="m482.05 733.46v35.285q0 2.4 2.4 2.4h7.7425q2.4 0 2.4-2.4v-35.285q0-2.4-2.4-2.4h-7.7425q-2.4 0-2.4 2.4z" clip-path="url(#a)" fill="#fff" stroke="#fff"/>
<g clip-path="url(#a)">
<g transform="translate(486.11 733.46) rotate(90) scale(.08 -.08)">
<use xlink:href="#k"/>
<use x="60.818359" xlink:href="#e"/>
<use x="122.341797" xlink:href="#j"/>
<use x="163.439453" xlink:href="#l"/>
<use x="260.851562" xlink:href="#g"/>
<use x="288.634766" xlink:href="#h"/>
<use x="352.013672" xlink:href="#d"/>
<use x="413.292969" xlink:href="#f"/>
</g>
</g>
<path d="m528.1 733.46v35.285q0 2.4 2.4 2.4h7.7425q2.4 0 2.4-2.4v-35.285q0-2.4-2.4-2.4h-7.7425q-2.4 0-2.4 2.4z" clip-path="url(#a)" fill="#fff" stroke="#fff"/>
<g clip-path="url(#a)">
<g transform="translate(532.16 733.46) rotate(90) scale(.08 -.08)">
<use xlink:href="#k"/>
<use x="60.818359" xlink:href="#e"/>
<use x="122.341797" xlink:href="#j"/>
<use x="163.439453" xlink:href="#l"/>
<use x="260.851562" xlink:href="#g"/>
<use x="288.634766" xlink:href="#h"/>
<use x="352.013672" xlink:href="#d"/>
<use x="413.292969" xlink:href="#f"/>
</g>
</g>
<path d="m67.603 733.46v35.285q0 2.4 2.4 2.4h7.7425q2.4 0 2.4-2.4v-35.285q0-2.4-2.4-2.4h-7.7425q-2.4 0-2.4 2.4z" clip-path="url(#a)" fill="#fff" stroke="#fff"/>
<g clip-path="url(#a)">
<g transform="translate(71.667 733.46) rotate(90) scale(.08 -.08)">
<use xlink:href="#k"/>
<use x="60.818359" xlink:href="#e"/>
<use x="122.341797" xlink:href="#j"/>
<use x="163.439453" xlink:href="#l"/>
<use x="260.851562" xlink:href="#g"/>
<use x="288.634766" xlink:href="#h"/>
<use x="352.013672" xlink:href="#d"/>
<use x="413.292969" xlink:href="#f"/>
</g>
</g>
<path d="m113.65 733.46v35.285q0 2.4 2.4 2.4h7.7425q2.4 0 2.4-2.4v-35.285q0-2.4-2.4-2.4h-7.7425q-2.4 0-2.4 2.4z" clip-path="url(#a)" fill="#fff" stroke="#fff"/>
<g clip-path="url(#a)">
<g transform="translate(117.72 733.46) rotate(90) scale(.08 -.08)">
<use xlink:href="#k"/>
<use x="60.818359" xlink:href="#e"/>
<use x="122.341797" xlink:href="#j"/>
<use x="163.439453" xlink:href="#l"/>
<use x="260.851562" xlink:href="#g"/>
<use x="288.634766" xlink:href="#h"/>
<use x="352.013672" xlink:href="#d"/>
<use x="413.292969" xlink:href="#f"/>
</g>
</g>
<path d="m159.7 733.46v35.285q0 2.4 2.4 2.4h7.7425q2.4 0 2.4-2.4v-35.285q0-2.4-2.4-2.4h-7.7425q-2.4 0-2.4 2.4z" clip-path="url(#a)" fill="#fff" stroke="#fff"/>
<g clip-path="url(#a)">
<g transform="translate(163.77 733.46) rotate(90) scale(.08 -.08)">
<use xlink:href="#k"/>
<use x="60.818359" xlink:href="#e"/>
<use x="122.341797" xlink:href="#j"/>
<use x="163.439453" xlink:href="#l"/>
<use x="260.851562" xlink:href="#g"/>
<use x="288.634766" xlink:href="#h"/>
<use x="352.013672" xlink:href="#d"/>
<use x="413.292969" xlink:href="#f"/>
</g>
</g>
<path d="m574.15 733.46v35.285q0 2.4 2.4 2.4h7.7425q2.4 0 2.4-2.4v-35.285q0-2.4-2.4-2.4h-7.7425q-2.4 0-2.4 2.4z" clip-path="url(#a)" fill="#fff" stroke="#fff"/>
<g clip-path="url(#a)">
<g transform="translate(578.21 733.46) rotate(90) scale(.08 -.08)">
<use xlink:href="#k"/>
<use x="60.818359" xlink:href="#e"/>
<use x="122.341797" xlink:href="#j"/>
<use x="163.439453" xlink:href="#l"/>
<use x="260.851562" xlink:href="#g"/>
<use x="288.634766" xlink:href="#h"/>
<use x="352.013672" xlink:href="#d"/>
<use x="413.292969" xlink:href="#f"/>
</g>
</g>
<path d="m620.2 733.46v35.285q0 2.4 2.4 2.4h7.7425q2.4 0 2.4-2.4v-35.285q0-2.4-2.4-2.4h-7.7425q-2.4 0-2.4 2.4z" clip-path="url(#a)" fill="#fff" stroke="#fff"/>
<g clip-path="url(#a)">
<g transform="translate(624.26 733.46) rotate(90) scale(.08 -.08)">
<use xlink:href="#k"/>
<use x="60.818359" xlink:href="#e"/>
<use x="122.341797" xlink:href="#j"/>
<use x="163.439453" xlink:href="#l"/>
<use x="260.851562" xlink:href="#g"/>
<use x="288.634766" xlink:href="#h"/>
<use x="352.013672" xlink:href="#d"/>
<use x="413.292969" xlink:href="#f"/>
</g>
</g>
<path d="m1172.8 733.46v35.285q0 2.4 2.4 2.4h7.7425q2.4 0 2.4-2.4v-35.285q0-2.4-2.4-2.4h-7.7425q-2.4 0-2.4 2.4z" clip-path="url(#a)" fill="#fff" stroke="#fff"/>
<g clip-path="url(#a)">
<g transform="translate(1176.9 733.46) rotate(90) scale(.08 -.08)">
<use xlink:href="#k"/>
<use x="60.818359" xlink:href="#e"/>
<use x="122.341797" xlink:href="#j"/>
<use x="163.439453" xlink:href="#l"/>
<use x="260.851562" xlink:href="#g"/>
<use x="288.634766" xlink:href="#h"/>
<use x="352.013672" xlink:href="#d"/>
<use x="413.292969" xlink:href="#f"/>
</g>
</g>
<path d="m1310.9 733.46v35.285q0 2.4 2.4 2.4h7.7425q2.4 0 2.4-2.4v-35.285q0-2.4-2.4-2.4h-7.7425q-2.4 0-2.4 2.4z" clip-path="url(#a)" fill="#fff" stroke="#fff"/>
<g clip-path="url(#a)">
<g transform="translate(1315 733.46) rotate(90) scale(.08 -.08)">
<use xlink:href="#k"/>
<use x="60.818359" xlink:href="#e"/>
<use x="122.341797" xlink:href="#j"/>
<use x="163.439453" xlink:href="#l"/>
<use x="260.851562" xlink:href="#g"/>
<use x="288.634766" xlink:href="#h"/>
<use x="352.013672" xlink:href="#d"/>
<use x="413.292969" xlink:href="#f"/>
</g>
</g>
<path d="m1495.1 733.46v35.285q0 2.4 2.4 2.4h7.7425q2.4 0 2.4-2.4v-35.285q0-2.4-2.4-2.4h-7.7425q-2.4 0-2.4 2.4z" clip-path="url(#a)" fill="#fff" stroke="#fff"/>
<g clip-path="url(#a)">
<g transform="translate(1499.2 733.46) rotate(90) scale(.08 -.08)">
<use xlink:href="#k"/>
<use x="60.818359" xlink:href="#e"/>
<use x="122.341797" xlink:href="#j"/>
<use x="163.439453" xlink:href="#l"/>
<use x="260.851562" xlink:href="#g"/>
<use x="288.634766" xlink:href="#h"/>
<use x="352.013672" xlink:href="#d"/>
<use x="413.292969" xlink:href="#f"/>
</g>
</g>
<defs>
<path id="b" d="m0 8.6603c2.2967 0 4.4997-0.9125 6.1237-2.5365 1.624-1.624 2.5365-3.827 2.5365-6.1237s-0.9125-4.4997-2.5365-6.1237c-1.624-1.624-3.827-2.5365-6.1237-2.5365s-4.4997 0.9125-6.1237 2.5365c-1.624 1.624-2.5365 3.827-2.5365 6.1237s0.9125 4.4997 2.5365 6.1237c1.624 1.624 3.827 2.5365 6.1237 2.5365z"/>
</defs>
<g clip-path="url(#a)">
<use x="73.874069" y="813.631592" fill="#ffffff" stroke="#ffffff" xlink:href="#b"/>
</g>
<g clip-path="url(#a)">
<use x="119.923606" y="813.631592" fill="#ffffff" stroke="#ffffff" xlink:href="#b"/>
</g>
<g clip-path="url(#a)">
<use x="165.973143" y="813.631592" fill="#ffffff" stroke="#ffffff" xlink:href="#b"/>
</g>
<g clip-path="url(#a)">
<use x="212.022681" y="813.631592" fill="#ffffff" stroke="#ffffff" xlink:href="#b"/>
</g>
<g clip-path="url(#a)">
<use x="258.072218" y="813.631592" fill="#ffffff" stroke="#ffffff" xlink:href="#b"/>
</g>
<g clip-path="url(#a)">
<use x="304.121756" y="813.631592" fill="#ffffff" stroke="#ffffff" xlink:href="#b"/>
</g>
<g clip-path="url(#a)">
<use x="350.171293" y="813.631592" fill="#ffffff" stroke="#ffffff" xlink:href="#b"/>
</g>
<g clip-path="url(#a)">
<use x="396.22083" y="813.631592" fill="#ffffff" stroke="#ffffff" xlink:href="#b"/>
</g>
<g clip-path="url(#a)">
<use x="442.270368" y="813.631592" fill="#ffffff" stroke="#ffffff" xlink:href="#b"/>
</g>
<g clip-path="url(#a)">
<use x="488.319905" y="813.631592" fill="#ffffff" stroke="#ffffff" xlink:href="#b"/>
</g>
<g clip-path="url(#a)">
<use x="534.369442" y="813.631592" fill="#ffffff" stroke="#ffffff" xlink:href="#b"/>
</g>
<g clip-path="url(#a)">
<use x="580.41898" y="813.631592" fill="#ffffff" stroke="#ffffff" xlink:href="#b"/>
</g>
<g clip-path="url(#a)">
<use x="626.468517" y="813.631592" fill="#ffffff" stroke="#ffffff" xlink:href="#b"/>
</g>
<g clip-path="url(#a)">
<use x="672.518055" y="813.631592" fill="#ffffff" stroke="#ffffff" xlink:href="#b"/>
</g>
<g clip-path="url(#a)">
<use x="718.567592" y="813.631592" fill="#ffffff" stroke="#ffffff" xlink:href="#b"/>
</g>
<g clip-path="url(#a)">
<use x="764.617129" y="813.631592" fill="#ffffff" stroke="#ffffff" xlink:href="#b"/>
</g>
<g clip-path="url(#a)">
<use x="810.666667" y="813.631592" fill="#ffffff" stroke="#ffffff" xlink:href="#b"/>
</g>
<g clip-path="url(#a)">
<use x="856.716204" y="813.631592" fill="#ffffff" stroke="#ffffff" xlink:href="#b"/>
</g>
<g clip-path="url(#a)">
<use x="902.765741" y="813.631592" fill="#ffffff" stroke="#ffffff" xlink:href="#b"/>
</g>
<g clip-path="url(#a)">
<use x="948.815279" y="813.631592" fill="#ffffff" stroke="#ffffff" xlink:href="#b"/>
</g>
<g clip-path="url(#a)">
<use x="994.864816" y="813.631592" fill="#ffffff" stroke="#ffffff" xlink:href="#b"/>
</g>
<g clip-path="url(#a)">
<use x="1040.914354" y="813.631592" fill="#ffffff" stroke="#ffffff" xlink:href="#b"/>
</g>
<g clip-path="url(#a)">
<use x="1086.963891" y="813.631592" fill="#ffffff" stroke="#ffffff" xlink:href="#b"/>
</g>
<g clip-path="url(#a)">
<use x="1133.013428" y="813.631592" fill="#ffffff" stroke="#ffffff" xlink:href="#b"/>
</g>
<g clip-path="url(#a)">
<use x="1179.062966" y="813.631592" fill="#ffffff" stroke="#ffffff" xlink:href="#b"/>
</g>
<g clip-path="url(#a)">
<use x="1225.112503" y="813.631592" fill="#ffffff" stroke="#ffffff" xlink:href="#b"/>
</g>
<g clip-path="url(#a)">
<use x="1271.16204" y="813.631592" fill="#ffffff" stroke="#ffffff" xlink:href="#b"/>
</g>
<g clip-path="url(#a)">
<use x="1317.211578" y="813.631592" fill="#ffffff" stroke="#ffffff" xlink:href="#b"/>
</g>
<g clip-path="url(#a)">
<use x="1363.261115" y="813.631592" fill="#ffffff" stroke="#ffffff" xlink:href="#b"/>
</g>
<g clip-path="url(#a)">
<use x="1409.310653" y="813.631592" fill="#ffffff" stroke="#ffffff" xlink:href="#b"/>
</g>
<g clip-path="url(#a)">
<use x="1455.36019" y="813.631592" fill="#ffffff" stroke="#ffffff" xlink:href="#b"/>
</g>
<g clip-path="url(#a)">
<use x="1501.409727" y="813.631592" fill="#ffffff" stroke="#ffffff" xlink:href="#b"/>
</g>
<g clip-path="url(#a)">
<use x="560.397938" y="39.701741" fill="#ffffff" stroke="#ffffff" xlink:href="#b"/>
</g>
<g clip-path="url(#a)">
<use x="273.422064" y="307.449762" fill="#ffffff" stroke="#ffffff" xlink:href="#b"/>
</g>
<g clip-path="url(#a)">
<use x="761.282193" y="175.2582" fill="#ffffff" stroke="#ffffff" xlink:href="#b"/>
</g>
<g clip-path="url(#a)">
<use x="672.518055" y="688.566463" fill="#ffffff" stroke="#ffffff" xlink:href="#b"/>
</g>
<g clip-path="url(#a)">
<use x="718.567592" y="688.566463" fill="#ffffff" stroke="#ffffff" xlink:href="#b"/>
</g>
<g clip-path="url(#a)">
<use x="892.760931" y="307.449762" fill="#ffffff" stroke="#ffffff" xlink:href="#b"/>
</g>
<g clip-path="url(#a)">
<use x="764.617129" y="688.566463" fill="#ffffff" stroke="#ffffff" xlink:href="#b"/>
</g>
<g clip-path="url(#a)">
<use x="810.666667" y="688.566463" fill="#ffffff" stroke="#ffffff" xlink:href="#b"/>
</g>
<g clip-path="url(#a)">
<use x="856.716204" y="688.566463" fill="#ffffff" stroke="#ffffff" xlink:href="#b"/>
</g>
<g clip-path="url(#a)">
<use x="948.815279" y="688.566463" fill="#ffffff" stroke="#ffffff" xlink:href="#b"/>
</g>
<g clip-path="url(#a)">
<use x="902.765741" y="688.566463" fill="#ffffff" stroke="#ffffff" xlink:href="#b"/>
</g>
<g clip-path="url(#a)">
<use x="1072.984567" y="436.69641" fill="#ffffff" stroke="#ffffff" xlink:href="#b"/>
</g>
<g clip-path="url(#a)">
<use x="994.864816" y="688.566463" fill="#ffffff" stroke="#ffffff" xlink:href="#b"/>
</g>
<g clip-path="url(#a)">
<use x="1040.914354" y="688.566463" fill="#ffffff" stroke="#ffffff" xlink:href="#b"/>
</g>
<g clip-path="url(#a)">
<use x="1307.34382" y="563.501333" fill="#ffffff" stroke="#ffffff" xlink:href="#b"/>
</g>
<g clip-path="url(#a)">
<use x="1109.98866" y="688.566463" fill="#ffffff" stroke="#ffffff" xlink:href="#b"/>
</g>
<g clip-path="url(#a)">
<use x="1248.137272" y="688.566463" fill="#ffffff" stroke="#ffffff" xlink:href="#b"/>
</g>
<g clip-path="url(#a)">
<use x="1363.261115" y="688.566463" fill="#ffffff" stroke="#ffffff" xlink:href="#b"/>
</g>
<g clip-path="url(#a)">
<use x="1432.335421" y="688.566463" fill="#ffffff" stroke="#ffffff" xlink:href="#b"/>
</g>
<g clip-path="url(#a)">
<use x="119.923606" y="563.501333" fill="#ffffff" stroke="#ffffff" xlink:href="#b"/>
</g>
<g clip-path="url(#a)">
<use x="212.022681" y="688.566463" fill="#ffffff" stroke="#ffffff" xlink:href="#b"/>
</g>
<g clip-path="url(#a)">
<use x="258.072218" y="688.566463" fill="#ffffff" stroke="#ffffff" xlink:href="#b"/>
</g>
<g clip-path="url(#a)">
<use x="503.669751" y="436.69641" fill="#ffffff" stroke="#ffffff" xlink:href="#b"/>
</g>
<g clip-path="url(#a)">
<use x="304.121756" y="688.566463" fill="#ffffff" stroke="#ffffff" xlink:href="#b"/>
</g>
<g clip-path="url(#a)">
<use x="396.22083" y="688.566463" fill="#ffffff" stroke="#ffffff" xlink:href="#b"/>
</g>
<g clip-path="url(#a)">
<use x="826.016512" y="563.501333" fill="#ffffff" stroke="#ffffff" xlink:href="#b"/>
</g>
<g clip-path="url(#a)">
<use x="488.319905" y="688.566463" fill="#ffffff" stroke="#ffffff" xlink:href="#b"/>
</g>
<g clip-path="url(#a)">
<use x="1547.459265" y="813.631592" fill="#ffffff" stroke="#ffffff" xlink:href="#b"/>
</g>
<g clip-path="url(#a)">
<use x="534.369442" y="688.566463" fill="#ffffff" stroke="#ffffff" xlink:href="#b"/>
</g>
<g clip-path="url(#a)">
<use x="73.874069" y="688.566463" fill="#ffffff" stroke="#ffffff" xlink:href="#b"/>
</g>
<g clip-path="url(#a)">
<use x="119.923606" y="688.566463" fill="#ffffff" stroke="#ffffff" xlink:href="#b"/>
</g>
<g clip-path="url(#a)">
<use x="165.973143" y="688.566463" fill="#ffffff" stroke="#ffffff" xlink:href="#b"/>
</g>
<g clip-path="url(#a)">
<use x="580.41898" y="688.566463" fill="#ffffff" stroke="#ffffff" xlink:href="#b"/>
</g>
<g clip-path="url(#a)">
<use x="626.468517" y="688.566463" fill="#ffffff" stroke="#ffffff" xlink:href="#b"/>
</g>
<g clip-path="url(#a)">
<use x="1179.062966" y="688.566463" fill="#ffffff" stroke="#ffffff" xlink:href="#b"/>
</g>
<g clip-path="url(#a)">
<use x="1317.211578" y="688.566463" fill="#ffffff" stroke="#ffffff" xlink:href="#b"/>
</g>
<g clip-path="url(#a)">
<use x="1501.409727" y="688.566463" fill="#ffffff" stroke="#ffffff" xlink:href="#b"/>
</g>
<g clip-path="url(#a)">
<defs>
<path id="x" d="m54.891 33.016v-33.016h-8.9844v32.719q0 7.7656-3.0312 11.609-3.0312 3.8594-9.0781 3.8594-7.2812 0-11.484-4.6406-4.2031-4.625-4.2031-12.641v-30.906h-9.0312v75.984h9.0312v-29.797q3.2344 4.9375 7.5938 7.375 4.375 2.4375 10.094 2.4375 9.4219 0 14.25-5.8281 4.8438-5.8281 4.8438-17.156z"/>
<path id="p" d="m18.312 70.219v-15.531h18.5v-6.9844h-18.5v-29.688q0-6.6875 1.8281-8.5938t7.4531-1.9062h9.2188v-7.5156h-9.2188q-10.406 0-14.359 3.875-3.9531 3.8906-3.9531 14.141v29.688h-6.5938v6.9844h6.5938v15.531z"/>
</defs>
<g transform="translate(62.627 816.39) scale(.1 -.1)">
<use xlink:href="#k"/>
<use x="61.083984" xlink:href="#x"/>
<use x="124.462891" xlink:href="#d"/>
<use x="185.742188" xlink:href="#p"/>
</g>
</g>
<g clip-path="url(#a)">
<defs>
<path id="o" d="m44.281 53.078v-8.5q-3.7969 1.9531-7.9062 2.9219-4.0938 0.98438-8.5 0.98438-6.6875 0-10.031-2.0469t-3.3438-6.1562q0-3.125 2.3906-4.9062t9.625-3.3906l3.0781-0.6875q9.5625-2.0469 13.594-5.7812t4.0312-10.422q0-7.625-6.0312-12.078-6.0312-4.4375-16.578-4.4375-4.3906 0-9.1562 0.85938t-10.031 2.5625v9.2812q4.9844-2.5938 9.8125-3.8906 4.8281-1.2812 9.5781-1.2812 6.3438 0 9.75 2.1719 3.4219 2.1719 3.4219 6.125 0 3.6562-2.4688 5.6094-2.4531 1.9531-10.812 3.7656l-3.125 0.73438q-8.3438 1.75-12.062 5.3906-3.7031 3.6406-3.7031 9.9844 0 7.7188 5.4688 11.906 5.4688 4.2031 15.531 4.2031 4.9688 0 9.3594-0.73438 4.4062-0.71875 8.1094-2.1875z"/>
</defs>
<g transform="translate(106.31 816.39) scale(.1 -.1)">
<use xlink:href="#o"/>
<use x="52.099609" xlink:href="#d"/>
<use x="113.378906" xlink:href="#l"/>
<use x="210.791016" xlink:href="#e"/>
</g>
</g>
<g clip-path="url(#a)">
<defs>
<path id="aq" d="m32.172-5.0781q-3.7969-9.7656-7.4219-12.734-3.6094-2.9844-9.6562-2.9844h-7.1875v7.5156h5.2812q3.7031 0 5.75 1.7656 2.0625 1.75 4.5469 8.2969l1.6094 4.0938-22.109 53.812h9.5156l17.094-42.766 17.094 42.766h9.5156z"/>
</defs>
<g transform="translate(154.82 816.39) scale(.1 -.1)">
<use xlink:href="#aq"/>
<use x="59.179688" xlink:href="#e"/>
<use x="120.703125" xlink:href="#d"/>
<use x="181.982422" xlink:href="#j"/>
</g>
</g>
<g clip-path="url(#a)">
<g transform="translate(203.17 816.39) scale(.1 -.1)">
<use xlink:href="#o"/>
<use x="52.099609" xlink:href="#x"/>
<use x="115.478516" xlink:href="#e"/>
</g>
</g>
<g clip-path="url(#a)">
<defs>
<path id="ac" d="m45.406 46.391v29.594h8.9844v-75.984h-8.9844v8.2031q-2.8281-4.875-7.1562-7.25-4.3125-2.375-10.375-2.375-9.9062 0-16.141 7.9062-6.2188 7.9219-6.2188 20.812t6.2188 20.797q6.2344 7.9062 16.141 7.9062 6.0625 0 10.375-2.375 4.3281-2.3594 7.1562-7.2344zm-30.609-19.094q0-9.9062 4.0781-15.547t11.203-5.6406 11.219 5.6406q4.1094 5.6406 4.1094 15.547t-4.1094 15.547q-4.0938 5.6406-11.219 5.6406t-11.203-5.6406-4.0781-15.547z"/>
</defs>
<g transform="translate(240.08 816.39) scale(.1 -.1)">
<use xlink:href="#o"/>
<use x="52.099609" xlink:href="#p"/>
<use x="91.308594" xlink:href="#d"/>
<use x="152.587891" xlink:href="#j"/>
<use x="193.685547" xlink:href="#j"/>
<use x="234.767578" xlink:href="#e"/>
<use x="296.291016" xlink:href="#ac"/>
</g>
</g>
<g clip-path="url(#a)">
<g transform="translate(299.56 816.39) scale(.1 -.1)">
<use xlink:href="#g"/>
<use x="27.783203" xlink:href="#h"/>
</g>
</g>
<g clip-path="url(#a)">
<defs>
<path id="ae" d="m9.8125 72.906h14.703l18.594-49.609 18.703 49.609h14.703v-72.906h-9.625v64.016l-18.797-50h-9.9062l-18.797 50v-64.016h-9.5781z"/>
<path id="aj" d="m30.609 48.391q-7.2188 0-11.422-5.6406t-4.2031-15.453 4.1719-15.453q4.1875-5.6406 11.453-5.6406 7.1875 0 11.375 5.6562 4.2031 5.6719 4.2031 15.438 0 9.7188-4.2031 15.406-4.1875 5.6875-11.375 5.6875zm0 7.6094q11.719 0 18.406-7.625 6.7031-7.6094 6.7031-21.078 0-13.422-6.7031-21.078-6.6875-7.6406-18.406-7.6406-11.766 0-18.438 7.6406-6.6562 7.6562-6.6562 21.078 0 13.469 6.6562 21.078 6.6719 7.625 18.438 7.625z"/>
</defs>
<g transform="translate(336.57 816.39) scale(.1 -.1)">
<use xlink:href="#ae"/>
<use x="86.279297" xlink:href="#aj"/>
<use x="147.460938" xlink:href="#h"/>
<use x="210.839844" xlink:href="#d"/>
</g>
</g>
<g clip-path="url(#a)">
<defs>
<path id="am" d="m9.8125 72.906h9.8594v-64.609h35.5v-8.2969h-45.359z"/>
</defs>
<g transform="translate(386.38 816.39) scale(.1 -.1)">
<use xlink:href="#am"/>
<use x="55.712891" xlink:href="#g"/>
<use x="83.496094" xlink:href="#o"/>
<use x="135.595703" xlink:href="#d"/>
</g>
</g>
<g clip-path="url(#a)">
<g transform="translate(428.37 816.39) scale(.1 -.1)">
<use xlink:href="#v"/>
<use x="63.476562" xlink:href="#l"/>
<use x="160.888672" xlink:href="#g"/>
<use x="188.671875" xlink:href="#f"/>
<use x="216.455078" xlink:href="#e"/>
</g>
</g>
<g clip-path="url(#a)">
<defs>
<path id="aw" d="m31 75.875q-6.5312-11.219-9.7188-22.219-3.1719-10.984-3.1719-22.266 0-11.266 3.2031-22.328t9.6875-22.25h-7.8125q-7.3125 11.484-10.953 22.562t-3.6406 22.016q0 10.891 3.6094 21.922 3.625 11.047 10.984 22.562z"/>
</defs>
<g transform="translate(486.37 816.39) scale(.1 -.1)">
<use xlink:href="#aw"/>
</g>
</g>
<g clip-path="url(#a)">
<defs>
<path id="m" d="m19.188 8.2969h34.422v-8.2969h-46.281v8.2969q5.6094 5.8125 15.297 15.594 9.7031 9.7969 12.188 12.641 4.7344 5.3125 6.6094 9 1.8906 3.6875 1.8906 7.25 0 5.8125-4.0781 9.4688-4.0781 3.6719-10.625 3.6719-4.6406 0-9.7969-1.6094-5.1406-1.6094-11-4.8906v9.9688q5.9531 2.3906 11.125 3.6094 5.1875 1.2188 9.4844 1.2188 11.328 0 18.062-5.6719 6.7344-5.6562 6.7344-15.125 0-4.5-1.6875-8.5312-1.6719-4.0156-6.125-9.4844-1.2188-1.4219-7.7656-8.1875-6.5312-6.7656-18.453-18.922z"/>
<path id="u" d="m31.781 66.406q-7.6094 0-11.453-7.5-3.8281-7.4844-3.8281-22.531 0-14.984 3.8281-22.484 3.8438-7.5 11.453-7.5 7.6719 0 11.5 7.5 3.8438 7.5 3.8438 22.484 0 15.047-3.8438 22.531-3.8281 7.5-11.5 7.5zm0 7.8125q12.266 0 18.734-9.7031 6.4688-9.6875 6.4688-28.141 0-18.406-6.4688-28.109-6.4688-9.6875-18.734-9.6875-12.25 0-18.719 9.6875-6.4688 9.7031-6.4688 28.109 0 18.453 6.4688 28.141 6.4688 9.7031 18.719 9.7031z"/>
<path id="n" d="m40.578 39.312q7.0781-1.5156 11.047-6.3125 3.9844-4.7812 3.9844-11.812 0-10.781-7.4219-16.703-7.4219-5.9062-21.094-5.9062-4.5781 0-9.4375 0.90625t-10.031 2.7188v9.5156q4.0938-2.3906 8.9688-3.6094 4.8906-1.2188 10.219-1.2188 9.2656 0 14.125 3.6562t4.8594 10.641q0 6.4531-4.5156 10.078-4.5156 3.6406-12.562 3.6406h-8.5v8.1094h8.8906q7.2656 0 11.125 2.9062t3.8594 8.375q0 5.6094-3.9844 8.6094-3.9688 3.0156-11.391 3.0156-4.0625 0-8.7031-0.89062-4.6406-0.875-10.203-2.7188v8.7812q5.625 1.5625 10.531 2.3438t9.25 0.78125q11.234 0 17.766-5.1094 6.5469-5.0938 6.5469-13.781 0-6.0625-3.4688-10.234t-9.8594-5.7812z"/>
</defs>
<g transform="translate(521.64 816.39) scale(.1 -.1)">
<use xlink:href="#m"/>
<use x="63.623047" xlink:href="#u"/>
<use x="127.246094" xlink:href="#u"/>
<use x="190.869141" xlink:href="#n"/>
</g>
</g>
<g clip-path="url(#a)">
<defs>
<path id="av" d="m8.0156 75.875h7.8125q7.3125-11.516 10.953-22.562 3.6406-11.031 3.6406-21.922 0-10.938-3.6406-22.016t-10.953-22.562h-7.8125q6.4844 11.188 9.6875 22.25t3.2031 22.328q0 11.281-3.2031 22.266-3.2031 11-9.6875 22.219z"/>
</defs>
<g transform="translate(578.47 816.39) scale(.1 -.1)">
<use xlink:href="#av"/>
</g>
</g>
<g clip-path="url(#a)">
<defs>
<path id="i" d="m10.688 12.406h10.312v-12.406h-10.312z"/>
</defs>
<g transform="translate(624.88 816.39) scale(.1 -.1)">
<use xlink:href="#i"/>
</g>
</g>
<g clip-path="url(#a)">
<g transform="translate(663.1 816.39) scale(.1 -.1)">
<use xlink:href="#v"/>
<use x="63.476562" xlink:href="#x"/>
<use x="126.855469" xlink:href="#e"/>
</g>
</g>
<g clip-path="url(#a)">
<defs>
<path id="ax" d="m4.2031 54.688h8.9844l11.234-42.672 11.172 42.672h10.594l11.234-42.672 11.188 42.672h8.9844l-14.312-54.688h-10.594l-11.766 44.828-11.812-44.828h-10.609z"/>
</defs>
<g transform="translate(708.81 816.39) scale(.1 -.1)">
<use xlink:href="#ax"/>
<use x="81.787109" xlink:href="#d"/>
<use x="143.066406" xlink:href="#o"/>
</g>
</g>
<g clip-path="url(#a)">
<defs>
<path id="ay" d="m18.109 8.2031v-29h-9.0312v75.484h9.0312v-8.2969q2.8438 4.875 7.1562 7.2344 4.3281 2.375 10.328 2.375 9.9688 0 16.188-7.9062 6.2344-7.9062 6.2344-20.797t-6.2344-20.812q-6.2188-7.9062-16.188-7.9062-6 0-10.328 2.375-4.3125 2.375-7.1562 7.25zm30.578 19.094q0 9.9062-4.0781 15.547t-11.203 5.6406q-7.1406 0-11.219-5.6406t-4.0781-15.547 4.0781-15.547 11.219-5.6406q7.125 0 11.203 5.6406t4.0781 15.547z"/>
</defs>
<g transform="translate(754.36 816.39) scale(.1 -.1)">
<use xlink:href="#ay"/>
<use x="63.476562" xlink:href="#d"/>
<use x="124.755859" xlink:href="#j"/>
<use x="165.869141" xlink:href="#p"/>
</g>
</g>
<g clip-path="url(#a)">
<defs>
<path id="az" d="m37.109 75.984v-7.4844h-8.5938q-4.8281 0-6.7188-1.9531-1.875-1.9531-1.875-7.0312v-4.8281h14.797v-6.9844h-14.797v-47.703h-9.0312v47.703h-8.5938v6.9844h8.5938v3.8125q0 9.125 4.25 13.297 4.25 4.1875 13.469 4.1875z"/>
</defs>
<g transform="translate(805.85 816.39) scale(.1 -.1)">
<use xlink:href="#aj"/>
<use x="61.181641" xlink:href="#az"/>
</g>
</g>
<g clip-path="url(#a)">
<g transform="translate(850.48 816.39) scale(.1 -.1)">
<use xlink:href="#d"/>
<use x="61.279297" xlink:href="#h"/>
</g>
</g>
<g clip-path="url(#a)">
<defs>
<path id="al" d="m48.688 27.297q0 9.9062-4.0781 15.547t-11.203 5.6406q-7.1406 0-11.219-5.6406t-4.0781-15.547 4.0781-15.547 11.219-5.6406q7.125 0 11.203 5.6406t4.0781 15.547zm-30.578 19.094q2.8438 4.875 7.1562 7.2344 4.3281 2.375 10.328 2.375 9.9688 0 16.188-7.9062 6.2344-7.9062 6.2344-20.797t-6.2344-20.812q-6.2188-7.9062-16.188-7.9062-6 0-10.328 2.375-4.3125 2.375-7.1562 7.25v-8.2031h-9.0312v75.984h9.0312z"/>
</defs>
<g transform="translate(878.33 816.39) scale(.1 -.1)">
<use xlink:href="#e"/>
<use x="61.523438" xlink:href="#h"/>
<use x="124.902344" xlink:href="#o"/>
<use x="177.001953" xlink:href="#e"/>
<use x="238.525391" xlink:href="#l"/>
<use x="335.9375" xlink:href="#al"/>
<use x="399.414062" xlink:href="#f"/>
<use x="427.197266" xlink:href="#e"/>
</g>
</g>
<g clip-path="url(#a)">
<defs>
<path id="ak" d="m48.781 52.594v-8.4062q-3.8125 2.1094-7.6406 3.1562t-7.7344 1.0469q-8.75 0-13.594-5.5469-4.8281-5.5312-4.8281-15.547t4.8281-15.562q4.8438-5.5312 13.594-5.5312 3.9062 0 7.7344 1.0469t7.6406 3.1562v-8.3125q-3.7656-1.75-7.7969-2.625-4.0156-0.89062-8.5625-0.89062-12.359 0-19.641 7.7656-7.2656 7.7656-7.2656 20.953 0 13.375 7.3438 21.031 7.3594 7.6719 20.156 7.6719 4.1406 0 8.0938-0.85938 3.9531-0.84375 7.6719-2.5469z"/>
</defs>
<g transform="translate(938.44 816.39) scale(.1 -.1)">
<use xlink:href="#ak"/>
<use x="54.980469" xlink:href="#d"/>
<use x="116.259766" xlink:href="#o"/>
<use x="168.359375" xlink:href="#p"/>
</g>
</g>
<g clip-path="url(#a)">
<g transform="translate(984.71 816.39) scale(.1 -.1)">
<use xlink:href="#p"/>
<use x="39.208984" xlink:href="#x"/>
<use x="102.587891" xlink:href="#d"/>
<use x="163.867188" xlink:href="#p"/>
</g>
</g>
<g clip-path="url(#a)">
<defs>
<path id="ai" d="m8.5 21.578v33.109h8.9844v-32.766q0-7.7656 3.0156-11.656 3.0312-3.875 9.0938-3.875 7.2656 0 11.484 4.6406 4.2344 4.6406 4.2344 12.656v31h8.9844v-54.688h-8.9844v8.4062q-3.2656-4.9844-7.5938-7.4062-4.3125-2.4219-10.031-2.4219-9.4219 0-14.312 5.8594-4.875 5.8594-4.875 17.141z"/>
</defs>
<g transform="translate(1019.6 816.39) scale(.1 -.1)">
<use xlink:href="#g"/>
<use x="27.783203" xlink:href="#h"/>
<use x="91.162109" xlink:href="#ak"/>
<use x="146.142578" xlink:href="#f"/>
<use x="173.925781" xlink:href="#ai"/>
<use x="237.304688" xlink:href="#ac"/>
<use x="300.78125" xlink:href="#e"/>
<use x="362.304688" xlink:href="#ac"/>
</g>
</g>
<g clip-path="url(#a)">
<defs>
<path id="an" d="m9.8125 72.906h9.8594v-67.828q0-13.188-5-19.141t-16.094-5.9531h-3.75v8.2969h3.0781q6.5312 0 9.2188 3.6719 2.6875 3.6562 2.6875 13.125z"/>
</defs>
<g transform="translate(1076.5 816.39) scale(.1 -.1)">
<use xlink:href="#an"/>
<use x="29.492188" xlink:href="#ai"/>
<use x="92.871094" xlink:href="#f"/>
<use x="120.654297" xlink:href="#g"/>
<use x="148.4375" xlink:href="#d"/>
</g>
</g>
<g clip-path="url(#a)">
<g transform="translate(1113.6 816.39) scale(.1 -.1)">
<use xlink:href="#y"/>
<use x="69.419922" xlink:href="#aj"/>
<use x="130.601562" xlink:href="#al"/>
<use x="194.078125" xlink:href="#e"/>
<use x="255.601562" xlink:href="#j"/>
<use x="296.714844" xlink:href="#p"/>
<use x="335.923828" xlink:href="#o"/>
</g>
</g>
<g clip-path="url(#a)">
<defs>
<path id="ap" d="m11.719 12.406h10.297v-8.4062l-8-15.625h-6.2969l4 15.625z"/>
</defs>
<g transform="translate(1177.5 816.39) scale(.1 -.1)">
<use xlink:href="#ap"/>
</g>
</g>
<g clip-path="url(#a)">
<defs>
<path id="ar" d="m45.406 27.984q0 9.7656-4.0312 15.125-4.0156 5.375-11.297 5.375-7.2188 0-11.25-5.375-4.0312-5.3594-4.0312-15.125 0-9.7188 4.0312-15.094t11.25-5.375q7.2812 0 11.297 5.375 4.0312 5.375 4.0312 15.094zm8.9844-21.203q0-13.953-6.2031-20.766-6.1875-6.8125-18.984-6.8125-4.7344 0-8.9375 0.70312t-8.1562 2.1719v8.7344q3.9531-2.1406 7.8125-3.1562 3.8594-1.0312 7.8594-1.0312 8.8438 0 13.234 4.6094t4.3906 13.938v4.4531q-2.7812-4.8438-7.125-7.2344t-10.406-2.3906q-10.047 0-16.203 7.6562-6.1562 7.6719-6.1562 20.328 0 12.688 6.1562 20.344 6.1562 7.6719 16.203 7.6719 6.0625 0 10.406-2.3906t7.125-7.2188v8.2969h8.9844z"/>
</defs>
<g transform="translate(1206.9 816.39) scale(.1 -.1)">
<use xlink:href="#ae"/>
<use x="86.279297" xlink:href="#d"/>
<use x="147.558594" xlink:href="#ar"/>
<use x="211.035156" xlink:href="#ar"/>
<use x="274.511719" xlink:href="#g"/>
<use x="302.294922" xlink:href="#e"/>
</g>
</g>
<g clip-path="url(#a)">
<defs>
<path id="at" d="m59.516 10.406v19.578h-16.109v8.1094h25.875v-31.312q-5.7031-4.0469-12.594-6.125-6.875-2.0781-14.688-2.0781-17.094 0-26.75 9.9844-9.6406 10-9.6406 27.812 0 17.875 9.6406 27.859 9.6562 9.9844 26.75 9.9844 7.125 0 13.547-1.7656 6.4219-1.75 11.844-5.1719v-10.5q-5.4688 4.6406-11.625 6.9844t-12.938 2.3438q-13.391 0-20.109-7.4688-6.7031-7.4688-6.7031-22.266 0-14.75 6.7031-22.219 6.7188-7.4688 20.109-7.4688 5.2188 0 9.3125 0.90625 4.1094 0.90625 7.375 2.8125z"/>
</defs>
<g transform="translate(1244.6 816.39) scale(.1 -.1)">
<use xlink:href="#at"/>
<use x="77.490234" xlink:href="#aq"/>
<use x="136.669922" xlink:href="#f"/>
<use x="164.453125" xlink:href="#f"/>
<use x="192.236328" xlink:href="#e"/>
<use x="253.759766" xlink:href="#h"/>
<use x="317.138672" xlink:href="#x"/>
<use x="380.517578" xlink:href="#d"/>
<use x="441.796875" xlink:href="#d"/>
<use x="503.076172" xlink:href="#f"/>
</g>
</g>
<g clip-path="url(#a)">
<g transform="translate(1315.6 816.39) scale(.1 -.1)">
<use xlink:href="#ap"/>
</g>
</g>
<g clip-path="url(#a)">
<g transform="translate(1353.9 816.39) scale(.1 -.1)">
<use xlink:href="#d"/>
<use x="61.279297" xlink:href="#h"/>
<use x="124.658203" xlink:href="#ac"/>
</g>
</g>
<g clip-path="url(#a)">
<g transform="translate(1398.8 816.39) scale(.1 -.1)">
<use xlink:href="#an"/>
<use x="29.492188" xlink:href="#ai"/>
<use x="92.871094" xlink:href="#f"/>
<use x="120.654297" xlink:href="#g"/>
<use x="148.4375" xlink:href="#d"/>
</g>
</g>
<g clip-path="url(#a)">
<g transform="translate(1441.8 816.39) scale(.1 -.1)">
<use xlink:href="#v"/>
<use x="63.476562" xlink:href="#p"/>
<use x="102.685547" xlink:href="#g"/>
<use x="130.46875" xlink:href="#f"/>
<use x="158.251953" xlink:href="#e"/>
<use x="219.775391" xlink:href="#o"/>
</g>
</g>
<g clip-path="url(#a)">
<g transform="translate(1499.8 816.39) scale(.1 -.1)">
<use xlink:href="#i"/>
</g>
</g>
<g clip-path="url(#a)">
<defs>
<path id="c" d="m12.406 8.2969h16.109v55.625l-17.531-3.5156v8.9844l17.438 3.5156h9.8594v-64.609h16.109v-8.2969h-41.984z"/>
</defs>
<g transform="translate(552.45 42.461) scale(.1 -.1)">
<use xlink:href="#c"/>
<use x="63.623047" xlink:href="#i"/>
<use x="95.410156" xlink:href="#c"/>
</g>
</g>
<g clip-path="url(#a)">
<g transform="translate(265.47 310.21) scale(.1 -.1)">
<use xlink:href="#c"/>
<use x="63.623047" xlink:href="#i"/>
<use x="95.410156" xlink:href="#m"/>
</g>
</g>
<g clip-path="url(#a)">
<g transform="translate(753.33 178.02) scale(.1 -.1)">
<use xlink:href="#c"/>
<use x="63.623047" xlink:href="#i"/>
<use x="95.410156" xlink:href="#n"/>
</g>
</g>
<g clip-path="url(#a)">
<defs>
<path id="ab" d="m8.2031 72.906h46.875v-4.2031l-26.469-68.703h-10.297l24.906 64.594h-35.016z"/>
</defs>
<g transform="translate(664.57 691.33) scale(.1 -.1)">
<use xlink:href="#c"/>
<use x="63.623047" xlink:href="#i"/>
<use x="95.410156" xlink:href="#ab"/>
</g>
</g>
<g clip-path="url(#a)">
<defs>
<path id="aa" d="m31.781 34.625q-7.0312 0-11.062-3.7656-4.0156-3.7656-4.0156-10.344 0-6.5938 4.0156-10.359 4.0312-3.7656 11.062-3.7656t11.078 3.7812q4.0625 3.7969 4.0625 10.344 0 6.5781-4.0312 10.344-4.0156 3.7656-11.109 3.7656zm-9.8594 4.1875q-6.3438 1.5625-9.8906 5.9062-3.5312 4.3594-3.5312 10.609 0 8.7344 6.2188 13.812 6.2344 5.0781 17.062 5.0781 10.891 0 17.094-5.0781t6.2031-13.812q0-6.25-3.5469-10.609-3.5312-4.3438-9.8281-5.9062 7.125-1.6562 11.094-6.5 3.9844-4.8281 3.9844-11.797 0-10.609-6.4688-16.281-6.4688-5.6562-18.531-5.6562-12.047 0-18.531 5.6562-6.4688 5.6719-6.4688 16.281 0 6.9688 4 11.797 4.0156 4.8438 11.141 6.5zm-3.6094 15.578q0-5.6562 3.5312-8.8281 3.5469-3.1719 9.9375-3.1719 6.3594 0 9.9375 3.1719 3.5938 3.1719 3.5938 8.8281 0 5.6719-3.5938 8.8438-3.5781 3.1719-9.9375 3.1719-6.3906 0-9.9375-3.1719-3.5312-3.1719-3.5312-8.8438z"/>
</defs>
<g transform="translate(710.62 691.33) scale(.1 -.1)">
<use xlink:href="#c"/>
<use x="63.623047" xlink:href="#i"/>
<use x="95.410156" xlink:href="#aa"/>
</g>
</g>
<g clip-path="url(#a)">
<defs>
<path id="z" d="m10.984 1.5156v8.9844q3.7188-1.7656 7.5156-2.6875 3.8125-0.92188 7.4844-0.92188 9.7656 0 14.906 6.5625 5.1562 6.5625 5.8906 19.953-2.8281-4.2031-7.1875-6.4531-4.3438-2.25-9.6094-2.25-10.938 0-17.312 6.6094-6.375 6.625-6.375 18.109 0 11.219 6.6406 18 6.6406 6.7969 17.672 6.7969 12.656 0 19.312-9.7031 6.6719-9.6875 6.6719-28.141 0-17.234-8.1875-27.516-8.1719-10.281-21.984-10.281-3.7188 0-7.5312 0.73438-3.7969 0.73438-7.9062 2.2031zm19.625 30.906q6.6406 0 10.516 4.5312 3.8906 4.5469 3.8906 12.469 0 7.8594-3.8906 12.422-3.875 4.5625-10.516 4.5625t-10.516-4.5625-3.875-12.422q0-7.9219 3.875-12.469 3.875-4.5312 10.516-4.5312z"/>
</defs>
<g transform="translate(884.81 310.21) scale(.1 -.1)">
<use xlink:href="#c"/>
<use x="63.623047" xlink:href="#i"/>
<use x="95.410156" xlink:href="#z"/>
</g>
</g>
<g clip-path="url(#a)">
<g transform="translate(753.48 691.33) scale(.1 -.1)">
<use xlink:href="#c"/>
<use x="63.623047" xlink:href="#i"/>
<use x="95.410156" xlink:href="#c"/>
<use x="159.033203" xlink:href="#u"/>
</g>
</g>
<g clip-path="url(#a)">
<g transform="translate(799.53 691.33) scale(.1 -.1)">
<use xlink:href="#c"/>
<use x="63.623047" xlink:href="#i"/>
<use x="95.410156" xlink:href="#c"/>
<use x="159.033203" xlink:href="#c"/>
</g>
</g>
<g clip-path="url(#a)">
<g transform="translate(845.58 691.33) scale(.1 -.1)">
<use xlink:href="#c"/>
<use x="63.623047" xlink:href="#i"/>
<use x="95.410156" xlink:href="#c"/>
<use x="159.033203" xlink:href="#m"/>
</g>
</g>
<g clip-path="url(#a)">
<g transform="translate(937.68 691.33) scale(.1 -.1)">
<use xlink:href="#c"/>
<use x="63.623047" xlink:href="#i"/>
<use x="95.410156" xlink:href="#c"/>
<use x="159.033203" xlink:href="#n"/>
</g>
</g>
<g clip-path="url(#a)">
<defs>
<path id="w" d="m37.797 64.312-24.906-38.922h24.906zm-2.5938 8.5938h12.406v-47.516h10.406v-8.2031h-10.406v-17.188h-9.8125v17.188h-32.906v9.5156z"/>
</defs>
<g transform="translate(891.63 691.33) scale(.1 -.1)">
<use xlink:href="#c"/>
<use x="63.623047" xlink:href="#i"/>
<use x="95.410156" xlink:href="#c"/>
<use x="159.033203" xlink:href="#w"/>
</g>
</g>
<g clip-path="url(#a)">
<defs>
<path id="ah" d="m10.797 72.906h38.719v-8.3125h-29.688v-17.859q2.1406 0.73438 4.2812 1.0938 2.1562 0.35938 4.3125 0.35938 12.203 0 19.328-6.6875 7.1406-6.6875 7.1406-18.109 0-11.766-7.3281-18.297-7.3281-6.5156-20.656-6.5156-4.5938 0-9.3594 0.78125-4.75 0.78125-9.8281 2.3438v9.9219q4.3906-2.3906 9.0781-3.5625t9.9062-1.1719q8.4531 0 13.375 4.4375 4.9375 4.4375 4.9375 12.062 0 7.6094-4.9375 12.047-4.9219 4.4531-13.375 4.4531-3.9531 0-7.8906-0.875-3.9219-0.875-8.0156-2.7344z"/>
</defs>
<g transform="translate(1061.9 439.46) scale(.1 -.1)">
<use xlink:href="#c"/>
<use x="63.623047" xlink:href="#i"/>
<use x="95.410156" xlink:href="#c"/>
<use x="159.033203" xlink:href="#ah"/>
</g>
</g>
<g clip-path="url(#a)">
<defs>
<path id="ag" d="m33.016 40.375q-6.6406 0-10.531-4.5469-3.875-4.5312-3.875-12.438 0-7.8594 3.875-12.438 3.8906-4.5625 10.531-4.5625t10.516 4.5625q3.875 4.5781 3.875 12.438 0 7.9062-3.875 12.438-3.875 4.5469-10.516 4.5469zm19.578 30.922v-8.9844q-3.7188 1.75-7.5 2.6719-3.7812 0.9375-7.5 0.9375-9.7656 0-14.922-6.5938-5.1406-6.5938-5.875-19.922 2.875 4.25 7.2188 6.5156 4.3594 2.2656 9.5781 2.2656 10.984 0 17.359-6.6719 6.375-6.6562 6.375-18.125 0-11.234-6.6406-18.031-6.6406-6.7812-17.672-6.7812-12.656 0-19.344 9.6875-6.6875 9.7031-6.6875 28.109 0 17.281 8.2031 27.562t22.016 10.281q3.7188 0 7.5-0.73438t7.8906-2.1875z"/>
</defs>
<g transform="translate(983.73 691.33) scale(.1 -.1)">
<use xlink:href="#c"/>
<use x="63.623047" xlink:href="#i"/>
<use x="95.410156" xlink:href="#c"/>
<use x="159.033203" xlink:href="#ag"/>
</g>
</g>
<g clip-path="url(#a)">
<g transform="translate(1029.8 691.33) scale(.1 -.1)">
<use xlink:href="#c"/>
<use x="63.623047" xlink:href="#i"/>
<use x="95.410156" xlink:href="#c"/>
<use x="159.033203" xlink:href="#ab"/>
</g>
</g>
<g clip-path="url(#a)">
<g transform="translate(1296.2 566.26) scale(.1 -.1)">
<use xlink:href="#c"/>
<use x="63.623047" xlink:href="#i"/>
<use x="95.410156" xlink:href="#c"/>
<use x="159.033203" xlink:href="#aa"/>
</g>
</g>
<g clip-path="url(#a)">
<g transform="translate(1098.9 691.33) scale(.1 -.1)">
<use xlink:href="#c"/>
<use x="63.623047" xlink:href="#i"/>
<use x="95.410156" xlink:href="#c"/>
<use x="159.033203" xlink:href="#z"/>
</g>
</g>
<g clip-path="url(#a)">
<g transform="translate(1237 691.33) scale(.1 -.1)">
<use xlink:href="#c"/>
<use x="63.623047" xlink:href="#i"/>
<use x="95.410156" xlink:href="#m"/>
<use x="159.033203" xlink:href="#u"/>
</g>
</g>
<g clip-path="url(#a)">
<g transform="translate(1352.1 691.33) scale(.1 -.1)">
<use xlink:href="#c"/>
<use x="63.623047" xlink:href="#i"/>
<use x="95.410156" xlink:href="#m"/>
<use x="159.033203" xlink:href="#c"/>
</g>
</g>
<g clip-path="url(#a)">
<g transform="translate(1421.2 691.33) scale(.1 -.1)">
<use xlink:href="#c"/>
<use x="63.623047" xlink:href="#i"/>
<use x="95.410156" xlink:href="#m"/>
<use x="159.033203" xlink:href="#m"/>
</g>
</g>
<g clip-path="url(#a)">
<g transform="translate(108.79 566.26) scale(.1 -.1)">
<use xlink:href="#c"/>
<use x="63.623047" xlink:href="#i"/>
<use x="95.410156" xlink:href="#m"/>
<use x="159.033203" xlink:href="#ah"/>
</g>
</g>
<g clip-path="url(#a)">
<g transform="translate(200.89 691.33) scale(.1 -.1)">
<use xlink:href="#c"/>
<use x="63.623047" xlink:href="#i"/>
<use x="95.410156" xlink:href="#m"/>
<use x="159.033203" xlink:href="#ag"/>
</g>
</g>
<g clip-path="url(#a)">
<g transform="translate(246.94 691.33) scale(.1 -.1)">
<use xlink:href="#c"/>
<use x="63.623047" xlink:href="#i"/>
<use x="95.410156" xlink:href="#m"/>
<use x="159.033203" xlink:href="#ab"/>
</g>
</g>
<g clip-path="url(#a)">
<g transform="translate(492.54 439.46) scale(.1 -.1)">
<use xlink:href="#c"/>
<use x="63.623047" xlink:href="#i"/>
<use x="95.410156" xlink:href="#m"/>
<use x="159.033203" xlink:href="#aa"/>
</g>
</g>
<g clip-path="url(#a)">
<g transform="translate(292.99 691.33) scale(.1 -.1)">
<use xlink:href="#c"/>
<use x="63.623047" xlink:href="#i"/>
<use x="95.410156" xlink:href="#m"/>
<use x="159.033203" xlink:href="#z"/>
</g>
</g>
<g clip-path="url(#a)">
<g transform="translate(385.09 691.33) scale(.1 -.1)">
<use xlink:href="#c"/>
<use x="63.623047" xlink:href="#i"/>
<use x="95.410156" xlink:href="#n"/>
<use x="159.033203" xlink:href="#u"/>
</g>
</g>
<g clip-path="url(#a)">
<g transform="translate(814.88 566.26) scale(.1 -.1)">
<use xlink:href="#c"/>
<use x="63.623047" xlink:href="#i"/>
<use x="95.410156" xlink:href="#n"/>
<use x="159.033203" xlink:href="#c"/>
</g>
</g>
<g clip-path="url(#a)">
<g transform="translate(477.19 691.33) scale(.1 -.1)">
<use xlink:href="#c"/>
<use x="63.623047" xlink:href="#i"/>
<use x="95.410156" xlink:href="#n"/>
<use x="159.033203" xlink:href="#m"/>
</g>
</g>
<g clip-path="url(#a)">
<defs>
<path id="af" d="m9.8125 72.906h9.8594v-72.906h-9.8594z"/>
</defs>
<g transform="translate(1526.4 816.39) scale(.1 -.1)">
<use xlink:href="#af"/>
<use x="29.492188" xlink:href="#ae"/>
<use x="115.771484" xlink:href="#ad"/>
<use x="176.074219" xlink:href="#am"/>
<use x="231.787109" xlink:href="#af"/>
<use x="261.279297" xlink:href="#q"/>
<use x="331.103516" xlink:href="#af"/>
<use x="360.595703" xlink:href="#k"/>
</g>
</g>
<g clip-path="url(#a)">
<g transform="translate(523.24 691.33) scale(.1 -.1)">
<use xlink:href="#c"/>
<use x="63.623047" xlink:href="#i"/>
<use x="95.410156" xlink:href="#n"/>
<use x="159.033203" xlink:href="#w"/>
</g>
</g>
<g clip-path="url(#a)">
<g transform="translate(62.741 691.33) scale(.1 -.1)">
<use xlink:href="#c"/>
<use x="63.623047" xlink:href="#i"/>
<use x="95.410156" xlink:href="#n"/>
<use x="159.033203" xlink:href="#ah"/>
</g>
</g>
<g clip-path="url(#a)">
<g transform="translate(108.79 691.33) scale(.1 -.1)">
<use xlink:href="#c"/>
<use x="63.623047" xlink:href="#i"/>
<use x="95.410156" xlink:href="#n"/>
<use x="159.033203" xlink:href="#ag"/>
</g>
</g>
<g clip-path="url(#a)">
<g transform="translate(154.84 691.33) scale(.1 -.1)">
<use xlink:href="#c"/>
<use x="63.623047" xlink:href="#i"/>
<use x="95.410156" xlink:href="#n"/>
<use x="159.033203" xlink:href="#ab"/>
</g>
</g>
<g clip-path="url(#a)">
<g transform="translate(569.29 691.33) scale(.1 -.1)">
<use xlink:href="#c"/>
<use x="63.623047" xlink:href="#i"/>
<use x="95.410156" xlink:href="#n"/>
<use x="159.033203" xlink:href="#aa"/>
</g>
</g>
<g clip-path="url(#a)">
<g transform="translate(615.34 691.33) scale(.1 -.1)">
<use xlink:href="#c"/>
<use x="63.623047" xlink:href="#i"/>
<use x="95.410156" xlink:href="#n"/>
<use x="159.033203" xlink:href="#z"/>
</g>
</g>
<g clip-path="url(#a)">
<g transform="translate(1167.9 691.33) scale(.1 -.1)">
<use xlink:href="#c"/>
<use x="63.623047" xlink:href="#i"/>
<use x="95.410156" xlink:href="#w"/>
<use x="159.033203" xlink:href="#u"/>
</g>
</g>
<g clip-path="url(#a)">
<g transform="translate(1306.1 691.33) scale(.1 -.1)">
<use xlink:href="#c"/>
<use x="63.623047" xlink:href="#i"/>
<use x="95.410156" xlink:href="#w"/>
<use x="159.033203" xlink:href="#c"/>
</g>
</g>
<g clip-path="url(#a)">
<g transform="translate(1490.3 691.33) scale(.1 -.1)">
<use xlink:href="#c"/>
<use x="63.623047" xlink:href="#i"/>
<use x="95.410156" xlink:href="#w"/>
<use x="159.033203" xlink:href="#m"/>
</g>
</g>
<defs>
<clipPath id="a">
<rect width="1621.3" height="853.33"/>
</clipPath>
</defs>
</svg>
