<?xml version="1.0" encoding="UTF-8"?>
<!DOCTYPE svg  PUBLIC '-//W3C//DTD SVG 1.1//EN'  'http://www.w3.org/Graphics/SVG/1.1/DTD/svg11.dtd'>
<svg width="1570.7pt" height="826.67pt" version="1.1" viewBox="0 0 1570.7 826.67" xmlns="http://www.w3.org/2000/svg" xmlns:xlink="http://www.w3.org/1999/xlink">
<defs>
<style type="text/css">*{stroke-linecap:butt;stroke-linejoin:round;}</style>
</defs>
<path d="m0 826.67h1570.7v-826.67h-1570.7z" fill="#fff"/>
<g fill="none" stroke="#000">
<path d="m893.2 38.971-691.15 191.18" clip-path="url(#a)"/>
<path d="m893.2 38.971-227.31 191.18" clip-path="url(#a)"/>
<path d="m893.2 38.971 191.45 563.73" clip-path="url(#a)"/>
<path d="m893.2 38.971 145.4 378.74" clip-path="url(#a)"/>
<path d="m893.2 38.971 375.65 563.73" clip-path="url(#a)"/>
<path d="m893.2 38.971 513.79 378.74" clip-path="url(#a)"/>
<path d="m893.2 38.971-453.23 563.73" clip-path="url(#a)"/>
<path d="m893.2 38.971 145.4 563.73" clip-path="url(#a)"/>
<path d="m202.05 230.15-130.47 372.56" clip-path="url(#a)"/>
<path d="m202.05 230.15-84.423 372.56" clip-path="url(#a)"/>
<path d="m202.05 230.15-38.374 372.56" clip-path="url(#a)"/>
<path d="m202.05 230.15 7.6748 372.56" clip-path="url(#a)"/>
<path d="m202.05 230.15 122.8 187.56" clip-path="url(#a)"/>
<path d="m202.05 230.15 122.8 187.56" clip-path="url(#a)"/>
<path d="m665.89 230.15-133.83 187.56" clip-path="url(#a)"/>
<path d="m665.89 230.15-41.732 372.56" clip-path="url(#a)"/>
<path d="m665.89 230.15 4.3171 372.56" clip-path="url(#a)"/>
<path d="m665.89 230.15 171.24 187.56" clip-path="url(#a)"/>
<path d="m1084.7 602.7v184.99" clip-path="url(#a)"/>
<path d="m1038.6 417.71 92.098 184.99" clip-path="url(#a)"/>
<path d="m1038.6 417.71 138.15 184.99" clip-path="url(#a)"/>
<path d="m1038.6 417.71 184.2 184.99" clip-path="url(#a)"/>
<path d="m1038.6 417.71-414.44 184.99" clip-path="url(#a)" stroke-dasharray="3.7,1.6"/>
<path d="m1268.8 602.7v184.99" clip-path="url(#a)"/>
<path d="m1407 417.71 92.098 369.98" clip-path="url(#a)"/>
<path d="m1407 417.71-92.098 184.99" clip-path="url(#a)"/>
<path d="m1407 417.71-46.049 184.99" clip-path="url(#a)"/>
<path d="m1407 417.71v184.99" clip-path="url(#a)"/>
<path d="m1407 417.71 46.049 184.99" clip-path="url(#a)"/>
<path d="m1314.9 602.7v184.99" clip-path="url(#a)"/>
<path d="m1360.9 602.7v184.99" clip-path="url(#a)"/>
<path d="m1407 602.7v184.99" clip-path="url(#a)"/>
<path d="m1130.7 602.7v184.99" clip-path="url(#a)"/>
<path d="m1176.7 602.7v184.99" clip-path="url(#a)"/>
<path d="m1222.8 602.7v184.99" clip-path="url(#a)"/>
<path d="m532.06 417.71-46.049 184.99" clip-path="url(#a)"/>
<path d="m532.06 417.71v184.99" clip-path="url(#a)"/>
<path d="m532.06 417.71 46.049 184.99" clip-path="url(#a)"/>
<path d="m624.16 602.7v184.99" clip-path="url(#a)"/>
<path d="m670.21 602.7v184.99" clip-path="url(#a)"/>
<path d="m837.14 417.71-120.88 184.99" clip-path="url(#a)"/>
<path d="m837.14 417.71-74.829 184.99" clip-path="url(#a)"/>
<path d="m837.14 417.71 40.293 184.99" clip-path="url(#a)"/>
<path d="m837.14 417.71 155.41 184.99" clip-path="url(#a)"/>
<path d="m716.26 602.7v184.99" clip-path="url(#a)"/>
<path d="m762.31 602.7v184.99" clip-path="url(#a)"/>
<path d="m877.43 602.7-69.073 184.99" clip-path="url(#a)"/>
<path d="m877.43 602.7-23.024 184.99" clip-path="url(#a)"/>
<path d="m877.43 602.7 23.024 184.99" clip-path="url(#a)"/>
<path d="m877.43 602.7 69.073 184.99" clip-path="url(#a)"/>
<path d="m992.55 602.7v184.99" clip-path="url(#a)"/>
<path d="m486.02 602.7v184.99" clip-path="url(#a)"/>
<path d="m532.06 602.7v184.99" clip-path="url(#a)"/>
<path d="m578.11 602.7v184.99" clip-path="url(#a)"/>
<path d="m71.577 602.7v184.99" clip-path="url(#a)"/>
<path d="m117.63 602.7v184.99" clip-path="url(#a)"/>
<path d="m163.67 602.7v184.99" clip-path="url(#a)"/>
<path d="m209.72 602.7v184.99" clip-path="url(#a)"/>
<path d="m324.85 417.71-69.073 184.99" clip-path="url(#a)"/>
<path d="m324.85 417.71 69.073 184.99" clip-path="url(#a)"/>
<path d="m324.85 417.71-23.024 184.99" clip-path="url(#a)"/>
<path d="m324.85 417.71 23.024 184.99" clip-path="url(#a)"/>
<path d="m301.82 602.7v184.99" clip-path="url(#a)"/>
<path d="m347.87 602.7v184.99" clip-path="url(#a)"/>
<path d="m255.77 602.7v184.99" clip-path="url(#a)"/>
<path d="m393.92 602.7v184.99" clip-path="url(#a)"/>
<path d="m439.97 602.7v184.99" clip-path="url(#a)"/>
<path d="m1038.6 602.7v184.99" clip-path="url(#a)"/>
<path d="m1453 602.7v184.99" clip-path="url(#a)"/>
</g>
<path d="m546.4 141.41 5.7985-1.6039q2.3131-0.63983 1.6733-2.953l-2.0641-7.4623q-0.63983-2.3131-2.953-1.6733l-5.7985 1.6039q-2.3131 0.63983-1.6733 2.953l2.0641 7.4623q0.63983 2.3131 2.953 1.6733z" clip-path="url(#a)" fill="#fff" stroke="#fff"/>
<g clip-path="url(#a)">
<defs>
<path id="aa" d="m9.8125 72.906h9.8594v-29.891h35.844v29.891h9.8594v-72.906h-9.8594v34.719h-35.844v-34.719h-9.8594z"/>
</defs>
<g transform="translate(545.31 137.49) rotate(-15.462) scale(.08 -.08)">
<use xlink:href="#aa"/>
</g>
</g>
<path d="m781.28 141.3 4.6043-3.8724q1.8367-1.5448 0.29194-3.3815l-4.9836-5.9254q-1.5448-1.8367-3.3815-0.29194l-4.6043 3.8724q-1.8367 1.5448-0.29194 3.3815l4.9836 5.9254q1.5448 1.8367 3.3815 0.29194z" clip-path="url(#a)" fill="#fff" stroke="#fff"/>
<g clip-path="url(#a)">
<g transform="translate(778.67 138.19) rotate(-40.066) scale(.08 -.08)">
<use xlink:href="#aa"/>
</g>
</g>
<path d="m982.27 320.74 1.4334 4.2207q0.77178 2.2725 3.0443 1.5007l7.3313-2.4898q2.2725-0.77178 1.5007-3.0443l-1.4334-4.2207q-0.77178-2.2725-3.0443-1.5007l-7.3313 2.4898q-2.2725 0.77178-1.5007 3.0443z" clip-path="url(#a)" fill="#fff" stroke="#fff"/>
<g clip-path="url(#a)">
<defs>
<path id="aj" d="m9.8125 72.906h9.8594v-64.609h35.5v-8.2969h-45.359z"/>
</defs>
<g transform="translate(986.12 319.44) rotate(71.242) scale(.08 -.08)">
<use xlink:href="#aj"/>
</g>
</g>
<path d="m958.97 227.78 2.1562 5.6166q0.86017 2.2406 3.1007 1.3804l7.2281-2.7749q2.2406-0.86017 1.3804-3.1007l-2.1562-5.6166q-0.86017-2.2406-3.1007-1.3804l-7.2281 2.7749q-2.2406 0.86017-1.3804 3.1007z" clip-path="url(#a)" fill="#fff" stroke="#fff"/>
<g clip-path="url(#a)">
<g transform="translate(962.76 226.32) rotate(68.998) scale(.08 -.08)">
<use xlink:href="#aa"/>
</g>
</g>
<path d="m1074.6 322.46 2.4718 3.7094q1.3308 1.9972 3.3281 0.66636l6.4431-4.2934q1.9972-1.3308 0.66636-3.3281l-2.4718-3.7094q-1.3308-1.9972-3.3281-0.66636l-6.4431 4.2934q-1.9972 1.3308-0.66636 3.3281z" clip-path="url(#a)" fill="#fff" stroke="#fff"/>
<g clip-path="url(#a)">
<g transform="translate(1078 320.21) rotate(56.322) scale(.08 -.08)">
<use xlink:href="#aj"/>
</g>
</g>
<path d="m1144 231.6 4.8427 3.5698q1.9318 1.4241 3.3559-0.50779l4.5941-6.2322q1.4241-1.9319-0.50779-3.3559l-4.8427-3.5698q-1.9318-1.4241-3.3559 0.50779l-4.5941 6.2322q-1.4241 1.9319 0.50779 3.3559z" clip-path="url(#a)" fill="#fff" stroke="#fff"/>
<g clip-path="url(#a)">
<g transform="translate(1146.4 228.33) rotate(36.396) scale(.08 -.08)">
<use xlink:href="#aa"/>
</g>
</g>
<path d="m669.64 327.05 3.6687-4.5631q1.5038-1.8704-0.36664-3.3743l-6.0341-4.8514q-1.8704-1.5038-3.3743 0.36663l-3.6687 4.5631q-1.5038 1.8704 0.36664 3.3743l6.0341 4.8514q1.8704 1.5038 3.3743-0.36663z" clip-path="url(#a)" fill="#fff" stroke="#fff"/>
<g clip-path="url(#a)">
<defs>
<path id="z" d="m8.6875 72.906h9.9219v-44.297q0-11.719 4.2344-16.875 4.25-5.1406 13.781-5.1406 9.4688 0 13.719 5.1406 4.25 5.1562 4.25 16.875v44.297h9.9062v-45.516q0-14.25-7.0625-21.531-7.0469-7.2812-20.812-7.2812-13.828 0-20.891 7.2812-7.0469 7.2812-7.0469 21.531z"/>
</defs>
<g transform="translate(666.47 324.5) rotate(-51.201) scale(.08 -.08)">
<use xlink:href="#z"/>
</g>
</g>
<path d="m959.1 319.57 1.4623 5.6695q0.59941 2.3239 2.9233 1.7245l7.4971-1.9337q2.3239-0.59941 1.7245-2.9233l-1.4623-5.6695q-0.59941-2.3239-2.9233-1.7245l-7.4971 1.9337q-2.3239 0.59941-1.7245 2.9233z" clip-path="url(#a)" fill="#fff" stroke="#fff"/>
<g clip-path="url(#a)">
<g transform="translate(963.03 318.55) rotate(75.537) scale(.08 -.08)">
<use xlink:href="#z"/>
</g>
</g>
<path d="m141.83 421.08 1.8088-5.1649q0.79326-2.2651-1.4719-3.0584l-7.3074-2.5591q-2.2651-0.79326-3.0584 1.4719l-1.8088 5.1649q-0.79326 2.2651 1.4719 3.0584l7.3074 2.5591q2.2651 0.79326 3.0584-1.4719z" clip-path="url(#a)" fill="#fff" stroke="#fff"/>
<g clip-path="url(#a)">
<defs>
<path id="s" d="m34.188 63.188-13.391-36.281h26.812zm-5.5781 9.7188h11.188l27.781-72.906h-10.25l-6.6406 18.703h-32.859l-6.6406-18.703h-10.406z"/>
</defs>
<g transform="translate(137.99 419.74) rotate(-70.699) scale(.08 -.08)">
<use xlink:href="#s"/>
</g>
</g>
<path d="m165.27 420.82 1.3614-6.0077q0.5304-2.3407-1.8103-2.8711l-7.5511-1.7111q-2.3407-0.5304-2.8711 1.8103l-1.3614 6.0077q-0.5304 2.3407 1.8103 2.8711l7.5511 1.7111q2.3407 0.5304 2.8711-1.8103z" clip-path="url(#a)" fill="#fff" stroke="#fff"/>
<g clip-path="url(#a)">
<defs>
<path id="ab" d="m19.672 64.797v-56.688h11.922q15.094 0 22.094 6.8281 7 6.8438 7 21.594 0 14.641-7 21.453t-22.094 6.8125zm-9.8594 8.1094h20.266q21.188 0 31.094-8.8125 9.9219-8.8125 9.9219-27.562 0-18.859-9.9688-27.703-9.9531-8.8281-31.047-8.8281h-20.266z"/>
</defs>
<g transform="translate(161.31 419.92) rotate(-77.232) scale(.08 -.08)">
<use xlink:href="#ab"/>
</g>
</g>
<path d="m188.86 419.36 0.47144-4.577q0.2459-2.3874-2.1415-2.6333l-7.7018-0.7933q-2.3874-0.2459-2.6333 2.1415l-0.47144 4.577q-0.2459 2.3874 2.1415 2.6333l7.7018 0.7933q2.3874 0.2459 2.6333-2.1415z" clip-path="url(#a)" fill="#fff" stroke="#fff"/>
<g clip-path="url(#a)">
<defs>
<path id="an" d="m9.8125 72.906h41.891v-8.3125h-32.031v-21.484h28.906v-8.2969h-28.906v-34.812h-9.8594z"/>
</defs>
<g transform="translate(184.82 418.94) rotate(-84.119) scale(.08 -.08)">
<use xlink:href="#an"/>
</g>
</g>
<path d="m199.55 413.48 0.12687 6.1587q0.049431 2.3995 2.4489 2.3501l7.7409-0.15946q2.3995-0.04943 2.3501-2.4489l-0.12687-6.1587q-0.04943-2.3995-2.4489-2.3501l-7.7409 0.15946q-2.3995 0.049431-2.3501 2.4489z" clip-path="url(#a)" fill="#fff" stroke="#fff"/>
<g clip-path="url(#a)">
<g transform="translate(203.62 413.39) rotate(88.82) scale(.08 -.08)">
<use xlink:href="#ab"/>
</g>
</g>
<path d="m256.88 325.35 2.6422 4.0358q1.3146 2.008 3.3225 0.69337l6.4777-4.2409q2.008-1.3146 0.69337-3.3225l-2.6422-4.0358q-1.3146-2.008-3.3225-0.69337l-6.4777 4.2409q-2.008 1.3146-0.69337 3.3225z" clip-path="url(#a)" fill="#fff" stroke="#fff"/>
<g clip-path="url(#a)">
<defs>
<path id="w" d="m19.672 64.797v-27.391h12.406q6.8906 0 10.641 3.5625 3.7656 3.5625 3.7656 10.156 0 6.5469-3.7656 10.109-3.75 3.5625-10.641 3.5625zm-9.8594 8.1094h22.266q12.266 0 18.531-5.5469 6.2812-5.5469 6.2812-16.234 0-10.797-6.2812-16.312-6.2656-5.5156-18.531-5.5156h-12.406v-29.297h-9.8594z"/>
</defs>
<g transform="translate(260.28 323.12) rotate(56.788) scale(.08 -.08)">
<use xlink:href="#w"/>
</g>
</g>
<path d="m256.7 325.08 2.9975 4.5785q1.3146 2.008 3.3225 0.69337l6.4777-4.2409q2.008-1.3146 0.69337-3.3225l-2.9975-4.5785q-1.3146-2.008-3.3225-0.69337l-6.4777 4.2409q-2.008 1.3146-0.69337 3.3225z" clip-path="url(#a)" fill="#fff" stroke="#fff"/>
<g clip-path="url(#a)">
<g transform="translate(260.1 322.85) rotate(56.788) scale(.08 -.08)">
<use xlink:href="#s"/>
</g>
</g>
<path d="m602.67 329.56 2.838-3.9776q1.394-1.9537-0.55971-3.3476l-6.3026-4.497q-1.9537-1.394-3.3476 0.55971l-2.838 3.9776q-1.394 1.9537 0.55971 3.3476l6.3026 4.497q1.9537 1.394 3.3476-0.55971z" clip-path="url(#a)" fill="#fff" stroke="#fff"/>
<g clip-path="url(#a)">
<defs>
<path id="k" d="m-0.29688 72.906h61.672v-8.3125h-25.875v-64.594h-9.9062v64.594h-25.891z"/>
</defs>
<g transform="translate(599.36 327.2) rotate(-54.492) scale(.08 -.08)">
<use xlink:href="#k"/>
</g>
</g>
<path d="m650.96 419.84 0.60919-5.4385q0.26716-2.3851-2.1179-2.6522l-7.6944-0.86188q-2.3851-0.26716-2.6522 2.1179l-0.60919 5.4385q-0.26716 2.3851 2.1179 2.6522l7.6944 0.86188q2.3851 0.26716 2.6522-2.1179z" clip-path="url(#a)" fill="#fff" stroke="#fff"/>
<g clip-path="url(#a)">
<g transform="translate(646.92 419.39) rotate(-83.609) scale(.08 -.08)">
<use xlink:href="#s"/>
</g>
</g>
<path d="m661.75 414.09 0.055893 4.8234q0.027808 2.3998 2.4276 2.372l7.742-0.089712q2.3998-0.027809 2.372-2.4276l-0.055893-4.8234q-0.027808-2.3998-2.4276-2.372l-7.742 0.089712q-2.3998 0.027808-2.372 2.4276z" clip-path="url(#a)" fill="#fff" stroke="#fff"/>
<g clip-path="url(#a)">
<g transform="translate(665.82 414.04) rotate(89.336) scale(.08 -.08)">
<use xlink:href="#w"/>
</g>
</g>
<path d="m745.04 326.14 3.6898 4.0415q1.6182 1.7724 3.3906 0.15423l5.7179-5.2203q1.7724-1.6182 0.15423-3.3906l-3.6898-4.0415q-1.6182-1.7724-3.3906-0.15423l-5.7179 5.2204q-1.7724 1.6182-0.15423 3.3906z" clip-path="url(#a)" fill="#fff" stroke="#fff"/>
<g clip-path="url(#a)">
<g transform="translate(748.04 323.4) rotate(47.604) scale(.08 -.08)">
<use xlink:href="#s"/>
</g>
</g>
<path d="m1078.4 677.56v35.285q0 2.4 2.4 2.4h7.7425q2.4 0 2.4-2.4v-35.285q0-2.4-2.4-2.4h-7.7425q-2.4 0-2.4 2.4z" clip-path="url(#a)" fill="#fff" stroke="#fff"/>
<g clip-path="url(#a)">
<defs>
<path id="c" d="m56.203 29.594v-4.3906h-41.312q0.59375-9.2812 5.5938-14.141t13.938-4.8594q5.1719 0 10.031 1.2656t9.6562 3.8125v-8.5q-4.8438-2.0469-9.9219-3.125t-10.297-1.0781q-13.094 0-20.734 7.6094-7.6406 7.625-7.6406 20.625 0 13.422 7.25 21.297 7.25 7.8906 19.562 7.8906 11.031 0 17.453-7.1094 6.4219-7.0938 6.4219-19.297zm-8.9844 2.6406q-0.09375 7.3594-4.125 11.75-4.0312 4.4062-10.672 4.4062-7.5156 0-12.031-4.25t-5.2031-11.969z"/>
<path id="f" d="m41.109 46.297q-1.5156 0.875-3.2969 1.2812-1.7812 0.42188-3.9219 0.42188-7.625 0-11.703-4.9531t-4.0781-14.234v-28.812h-9.0312v54.688h9.0312v-8.5q2.8438 4.9844 7.375 7.3906 4.5469 2.4219 11.047 2.4219 0.92188 0 2.0469-0.125 1.125-0.10938 2.4844-0.35938z"/>
<path id="l" d="m52 44.188q3.375 6.0625 8.0625 8.9375t11.031 2.875q8.5469 0 13.188-5.9844 4.6406-5.9688 4.6406-17v-33.016h-9.0312v32.719q0 7.8594-2.7969 11.656-2.7812 3.8125-8.4844 3.8125-6.9844 0-11.047-4.6406-4.0469-4.625-4.0469-12.641v-30.906h-9.0312v32.719q0 7.9062-2.7812 11.688t-8.5938 3.7812q-6.8906 0-10.953-4.6562-4.0469-4.6562-4.0469-12.625v-30.906h-9.0312v54.688h9.0312v-8.5q3.0781 5.0312 7.375 7.4219t10.203 2.3906q5.9688 0 10.141-3.0312 4.1719-3.0156 6.1719-8.7812z"/>
<path id="i" d="m9.4219 54.688h8.9844v-54.688h-8.9844zm0 21.297h8.9844v-11.391h-8.9844z"/>
<path id="g" d="m54.891 33.016v-33.016h-8.9844v32.719q0 7.7656-3.0312 11.609-3.0312 3.8594-9.0781 3.8594-7.2812 0-11.484-4.6406-4.2031-4.625-4.2031-12.641v-30.906h-9.0312v54.688h9.0312v-8.5q3.2344 4.9375 7.5938 7.375 4.375 2.4375 10.094 2.4375 9.4219 0 14.25-5.8281 4.8438-5.8281 4.8438-17.156z"/>
<path id="e" d="m34.281 27.484q-10.891 0-15.094-2.4844t-4.2031-8.5q0-4.7812 3.1562-7.5938 3.1562-2.7969 8.5625-2.7969 7.4844 0 12 5.2969t4.5156 14.078v2zm17.922 3.7188v-31.203h-8.9844v8.2969q-3.0781-4.9688-7.6719-7.3438t-11.234-2.375q-8.3906 0-13.359 4.7188-4.9531 4.7188-4.9531 12.625 0 9.2188 6.1719 13.906 6.1875 4.6875 18.438 4.6875h12.609v0.89062q0 6.2031-4.0781 9.5938t-11.453 3.3906q-4.6875 0-9.1406-1.125-4.4375-1.125-8.5312-3.375v8.3125q4.9219 1.9062 9.5625 2.8438 4.6406 0.95312 9.0312 0.95312 11.875 0 17.734-6.1562 5.8594-6.1406 5.8594-18.641z"/>
<path id="j" d="m9.4219 75.984h8.9844v-75.984h-8.9844z"/>
</defs>
<g transform="translate(1082.4 677.56) rotate(90) scale(.08 -.08)">
<use xlink:href="#k"/>
<use x="60.818359" xlink:href="#c"/>
<use x="122.341797" xlink:href="#f"/>
<use x="163.439453" xlink:href="#l"/>
<use x="260.851562" xlink:href="#i"/>
<use x="288.634766" xlink:href="#g"/>
<use x="352.013672" xlink:href="#e"/>
<use x="413.292969" xlink:href="#j"/>
</g>
</g>
<path d="m1077.7 510.25 2.7453 5.5144q1.0696 2.1485 3.2181 1.0789l6.9311-3.4506q2.1485-1.0696 1.0789-3.2181l-2.7453-5.5144q-1.0696-2.1485-3.2181-1.0789l-6.9311 3.4506q-2.1485 1.0696-1.0789 3.2181z" clip-path="url(#a)" fill="#fff" stroke="#fff"/>
<g clip-path="url(#a)">
<g transform="translate(1081.3 508.43) rotate(63.534) scale(.08 -.08)">
<use xlink:href="#ab"/>
</g>
</g>
<path d="m1101.2 512.03 2.8863 3.865q1.436 1.923 3.359 0.48695l6.2036-4.6327q1.923-1.436 0.48695-3.359l-2.8863-3.865q-1.436-1.923-3.359-0.48695l-6.2036 4.6327q-1.923 1.436-0.48695 3.359z" clip-path="url(#a)" fill="#fff" stroke="#fff"/>
<g clip-path="url(#a)">
<g transform="translate(1104.5 509.6) rotate(53.249) scale(.08 -.08)">
<use xlink:href="#w"/>
</g>
</g>
<path d="m1124.3 512.69 3.8613 3.878q1.6934 1.7007 3.3941 0.00732l5.4866-5.463q1.7007-1.6934 0.00732-3.3941l-3.8613-3.878q-1.6934-1.7007-3.3941-0.00732l-5.4866 5.463q-1.7007 1.6934-0.00732 3.3941z" clip-path="url(#a)" fill="#fff" stroke="#fff"/>
<g clip-path="url(#a)">
<g transform="translate(1127.2 509.83) rotate(45.124) scale(.08 -.08)">
<use xlink:href="#s"/>
</g>
</g>
<path d="m831.44 517.05 4.9973-2.2306q2.1916-0.97825 1.2133-3.1698l-3.1559-7.0701q-0.97825-2.1916-3.1698-1.2133l-4.9973 2.2306q-2.1916 0.97825-1.2133 3.1698l3.1559 7.0701q0.97825 2.1916 3.1698 1.2133z" clip-path="url(#a)" fill="#fff" stroke="#fff"/>
<g clip-path="url(#a)">
<g transform="translate(829.78 513.34) rotate(-24.054) scale(.08 -.08)">
<use xlink:href="#s"/>
</g>
</g>
<path d="m1262.6 677.56v35.285q0 2.4 2.4 2.4h7.7425q2.4 0 2.4-2.4v-35.285q0-2.4-2.4-2.4h-7.7425q-2.4 0-2.4 2.4z" clip-path="url(#a)" fill="#fff" stroke="#fff"/>
<g clip-path="url(#a)">
<g transform="translate(1266.6 677.56) rotate(90) scale(.08 -.08)">
<use xlink:href="#k"/>
<use x="60.818359" xlink:href="#c"/>
<use x="122.341797" xlink:href="#f"/>
<use x="163.439453" xlink:href="#l"/>
<use x="260.851562" xlink:href="#i"/>
<use x="288.634766" xlink:href="#g"/>
<use x="352.013672" xlink:href="#e"/>
<use x="413.292969" xlink:href="#j"/>
</g>
</g>
<path d="m1446.3 601.56 1.3219 5.3104q0.57973 2.3289 2.9087 1.7492l7.5132-1.8702q2.3289-0.57973 1.7492-2.9087l-1.3219-5.3104q-0.57973-2.3289-2.9087-1.7492l-7.5132 1.8702q-2.3289 0.57973-1.7492 2.9087z" clip-path="url(#a)" fill="#fff" stroke="#fff"/>
<g clip-path="url(#a)">
<g transform="translate(1450.2 600.58) rotate(76.022) scale(.08 -.08)">
<use xlink:href="#s"/>
</g>
</g>
<path d="m1365.2 515.76 2.7453-5.5144q1.0696-2.1485-1.0789-3.2181l-6.9311-3.4506q-2.1485-1.0696-3.2181 1.0789l-2.7453 5.5144q-1.0696 2.1485 1.0789 3.2181l6.9311 3.4506q2.1485 1.0696 3.2181-1.0789z" clip-path="url(#a)" fill="#fff" stroke="#fff"/>
<g clip-path="url(#a)">
<g transform="translate(1361.5 513.95) rotate(-63.534) scale(.08 -.08)">
<use xlink:href="#ab"/>
</g>
</g>
<path d="m1389.4 514.38 1.3219-5.3104q0.57973-2.3289-1.7492-2.9087l-7.5132-1.8702q-2.3289-0.57973-2.9087 1.7492l-1.3219 5.3104q-0.57973 2.3289 1.7492 2.9087l7.5132 1.8702q2.3289 0.57973 2.9087-1.7492z" clip-path="url(#a)" fill="#fff" stroke="#fff"/>
<g clip-path="url(#a)">
<g transform="translate(1385.4 513.4) rotate(-76.022) scale(.08 -.08)">
<use xlink:href="#s"/>
</g>
</g>
<path d="m1400.7 507.8v4.8238q0 2.4 2.4 2.4h7.7425q2.4 0 2.4-2.4v-4.8238q0-2.4-2.4-2.4h-7.7425q-2.4 0-2.4 2.4z" clip-path="url(#a)" fill="#fff" stroke="#fff"/>
<g clip-path="url(#a)">
<g transform="translate(1404.8 507.8) rotate(90) scale(.08 -.08)">
<use xlink:href="#w"/>
</g>
</g>
<path d="m1423.2 508.88 1.4143 5.6816q0.57973 2.3289 2.9087 1.7492l7.5132-1.8702q2.3289-0.57973 1.7492-2.9087l-1.4143-5.6816q-0.57973-2.3289-2.9087-1.7492l-7.5132 1.8702q-2.3289 0.57973-1.7492 2.9087z" clip-path="url(#a)" fill="#fff" stroke="#fff"/>
<g clip-path="url(#a)">
<g transform="translate(1427.2 507.9) rotate(76.022) scale(.08 -.08)">
<use xlink:href="#z"/>
</g>
</g>
<path d="m1308.6 677.56v35.285q0 2.4 2.4 2.4h7.7425q2.4 0 2.4-2.4v-35.285q0-2.4-2.4-2.4h-7.7425q-2.4 0-2.4 2.4z" clip-path="url(#a)" fill="#fff" stroke="#fff"/>
<g clip-path="url(#a)">
<g transform="translate(1312.7 677.56) rotate(90) scale(.08 -.08)">
<use xlink:href="#k"/>
<use x="60.818359" xlink:href="#c"/>
<use x="122.341797" xlink:href="#f"/>
<use x="163.439453" xlink:href="#l"/>
<use x="260.851562" xlink:href="#i"/>
<use x="288.634766" xlink:href="#g"/>
<use x="352.013672" xlink:href="#e"/>
<use x="413.292969" xlink:href="#j"/>
</g>
</g>
<path d="m1354.7 677.56v35.285q0 2.4 2.4 2.4h7.7425q2.4 0 2.4-2.4v-35.285q0-2.4-2.4-2.4h-7.7425q-2.4 0-2.4 2.4z" clip-path="url(#a)" fill="#fff" stroke="#fff"/>
<g clip-path="url(#a)">
<g transform="translate(1358.7 677.56) rotate(90) scale(.08 -.08)">
<use xlink:href="#k"/>
<use x="60.818359" xlink:href="#c"/>
<use x="122.341797" xlink:href="#f"/>
<use x="163.439453" xlink:href="#l"/>
<use x="260.851562" xlink:href="#i"/>
<use x="288.634766" xlink:href="#g"/>
<use x="352.013672" xlink:href="#e"/>
<use x="413.292969" xlink:href="#j"/>
</g>
</g>
<path d="m1400.7 677.56v35.285q0 2.4 2.4 2.4h7.7425q2.4 0 2.4-2.4v-35.285q0-2.4-2.4-2.4h-7.7425q-2.4 0-2.4 2.4z" clip-path="url(#a)" fill="#fff" stroke="#fff"/>
<g clip-path="url(#a)">
<g transform="translate(1404.8 677.56) rotate(90) scale(.08 -.08)">
<use xlink:href="#k"/>
<use x="60.818359" xlink:href="#c"/>
<use x="122.341797" xlink:href="#f"/>
<use x="163.439453" xlink:href="#l"/>
<use x="260.851562" xlink:href="#i"/>
<use x="288.634766" xlink:href="#g"/>
<use x="352.013672" xlink:href="#e"/>
<use x="413.292969" xlink:href="#j"/>
</g>
</g>
<path d="m1124.4 677.56v35.285q0 2.4 2.4 2.4h7.7425q2.4 0 2.4-2.4v-35.285q0-2.4-2.4-2.4h-7.7425q-2.4 0-2.4 2.4z" clip-path="url(#a)" fill="#fff" stroke="#fff"/>
<g clip-path="url(#a)">
<g transform="translate(1128.5 677.56) rotate(90) scale(.08 -.08)">
<use xlink:href="#k"/>
<use x="60.818359" xlink:href="#c"/>
<use x="122.341797" xlink:href="#f"/>
<use x="163.439453" xlink:href="#l"/>
<use x="260.851562" xlink:href="#i"/>
<use x="288.634766" xlink:href="#g"/>
<use x="352.013672" xlink:href="#e"/>
<use x="413.292969" xlink:href="#j"/>
</g>
</g>
<path d="m1170.5 677.56v35.285q0 2.4 2.4 2.4h7.7425q2.4 0 2.4-2.4v-35.285q0-2.4-2.4-2.4h-7.7425q-2.4 0-2.4 2.4z" clip-path="url(#a)" fill="#fff" stroke="#fff"/>
<g clip-path="url(#a)">
<g transform="translate(1174.5 677.56) rotate(90) scale(.08 -.08)">
<use xlink:href="#k"/>
<use x="60.818359" xlink:href="#c"/>
<use x="122.341797" xlink:href="#f"/>
<use x="163.439453" xlink:href="#l"/>
<use x="260.851562" xlink:href="#i"/>
<use x="288.634766" xlink:href="#g"/>
<use x="352.013672" xlink:href="#e"/>
<use x="413.292969" xlink:href="#j"/>
</g>
</g>
<path d="m1216.5 677.56v35.285q0 2.4 2.4 2.4h7.7425q2.4 0 2.4-2.4v-35.285q0-2.4-2.4-2.4h-7.7425q-2.4 0-2.4 2.4z" clip-path="url(#a)" fill="#fff" stroke="#fff"/>
<g clip-path="url(#a)">
<g transform="translate(1220.6 677.56) rotate(90) scale(.08 -.08)">
<use xlink:href="#k"/>
<use x="60.818359" xlink:href="#c"/>
<use x="122.341797" xlink:href="#f"/>
<use x="163.439453" xlink:href="#l"/>
<use x="260.851562" xlink:href="#i"/>
<use x="288.634766" xlink:href="#g"/>
<use x="352.013672" xlink:href="#e"/>
<use x="413.292969" xlink:href="#j"/>
</g>
</g>
<path d="m514.45 514.42 1.3427-5.3941q0.57973-2.3289-1.7492-2.9087l-7.5132-1.8702q-2.3289-0.57973-2.9087 1.7492l-1.3427 5.3941q-0.57973 2.3289 1.7492 2.9087l7.5132 1.8702q2.3289 0.57973 2.9087-1.7492z" clip-path="url(#a)" fill="#fff" stroke="#fff"/>
<g clip-path="url(#a)">
<defs>
<path id="ai" d="m44.391 34.188q3.1719-1.0781 6.1719-4.5938t6.0312-9.6719l10.016-19.922h-10.609l-9.3125 18.703q-3.625 7.3281-7.0156 9.7188t-9.25 2.3906h-10.75v-30.812h-9.8594v72.906h22.266q12.5 0 18.656-5.2344 6.1562-5.2188 6.1562-15.766 0-6.8906-3.2031-11.438-3.2031-4.5312-9.2969-6.2812zm-24.719 30.609v-25.875h12.406q7.125 0 10.766 3.2969t3.6406 9.6875-3.6406 9.6406-10.766 3.25z"/>
</defs>
<g transform="translate(510.51 513.44) rotate(-76.022) scale(.08 -.08)">
<use xlink:href="#ai"/>
</g>
</g>
<path d="m525.79 507.42v5.5862q0 2.4 2.4 2.4h7.7425q2.4 0 2.4-2.4v-5.5862q0-2.4-2.4-2.4h-7.7425q-2.4 0-2.4 2.4z" clip-path="url(#a)" fill="#fff" stroke="#fff"/>
<g clip-path="url(#a)">
<defs>
<path id="t" d="m64.406 67.281v-10.391q-4.9844 4.6406-10.625 6.9219-5.6406 2.2969-11.984 2.2969-12.5 0-19.141-7.6406t-6.6406-22.094q0-14.406 6.6406-22.047t19.141-7.6406q6.3438 0 11.984 2.2969t10.625 6.9375v-10.312q-5.1719-3.5156-10.969-5.2812-5.7812-1.75-12.219-1.75-16.562 0-26.094 10.125-9.5156 10.141-9.5156 27.672 0 17.578 9.5156 27.703 9.5312 10.141 26.094 10.141 6.5312 0 12.312-1.7344 5.7969-1.7344 10.875-5.2031z"/>
</defs>
<g transform="translate(529.86 507.42) rotate(90) scale(.08 -.08)">
<use xlink:href="#t"/>
</g>
</g>
<path d="m548.33 509.01 1.3494 5.4208q0.57973 2.3289 2.9087 1.7492l7.5132-1.8702q2.3289-0.57973 1.7492-2.9087l-1.3494-5.4208q-0.57973-2.3289-2.9087-1.7492l-7.5132 1.8702q-2.3289 0.57973-1.7492 2.9087z" clip-path="url(#a)" fill="#fff" stroke="#fff"/>
<g clip-path="url(#a)">
<g transform="translate(552.27 508.03) rotate(76.022) scale(.08 -.08)">
<use xlink:href="#t"/>
</g>
</g>
<path d="m617.89 677.56v35.285q0 2.4 2.4 2.4h7.7425q2.4 0 2.4-2.4v-35.285q0-2.4-2.4-2.4h-7.7425q-2.4 0-2.4 2.4z" clip-path="url(#a)" fill="#fff" stroke="#fff"/>
<g clip-path="url(#a)">
<g transform="translate(621.95 677.56) rotate(90) scale(.08 -.08)">
<use xlink:href="#k"/>
<use x="60.818359" xlink:href="#c"/>
<use x="122.341797" xlink:href="#f"/>
<use x="163.439453" xlink:href="#l"/>
<use x="260.851562" xlink:href="#i"/>
<use x="288.634766" xlink:href="#g"/>
<use x="352.013672" xlink:href="#e"/>
<use x="413.292969" xlink:href="#j"/>
</g>
</g>
<path d="m663.94 677.56v35.285q0 2.4 2.4 2.4h7.7425q2.4 0 2.4-2.4v-35.285q0-2.4-2.4-2.4h-7.7425q-2.4 0-2.4 2.4z" clip-path="url(#a)" fill="#fff" stroke="#fff"/>
<g clip-path="url(#a)">
<g transform="translate(668 677.56) rotate(90) scale(.08 -.08)">
<use xlink:href="#k"/>
<use x="60.818359" xlink:href="#c"/>
<use x="122.341797" xlink:href="#f"/>
<use x="163.439453" xlink:href="#l"/>
<use x="260.851562" xlink:href="#i"/>
<use x="288.634766" xlink:href="#g"/>
<use x="352.013672" xlink:href="#e"/>
<use x="413.292969" xlink:href="#j"/>
</g>
</g>
<path d="m780.43 515.97 3.0407-4.6534q1.3128-2.0091-0.69631-3.3219l-6.4815-4.2352q-2.0091-1.3128-3.3219 0.69631l-3.0406 4.6534q-1.3128 2.0091 0.69631 3.3219l6.4815 4.2352q2.0091 1.3128 3.3219-0.69631z" clip-path="url(#a)" fill="#fff" stroke="#fff"/>
<g clip-path="url(#a)">
<g transform="translate(777.03 513.74) rotate(-56.838) scale(.08 -.08)">
<use xlink:href="#ai"/>
</g>
</g>
<path d="m804.67 514.69 1.7254-4.2655q0.89996-2.2249-1.3249-3.1248l-7.1775-2.9033q-2.2249-0.89996-3.1248 1.3249l-1.7254 4.2655q-0.89996 2.2249 1.3249 3.1248l7.1775 2.9033q2.2249 0.89996 3.1248-1.3249z" clip-path="url(#a)" fill="#fff" stroke="#fff"/>
<g clip-path="url(#a)">
<g transform="translate(800.91 513.17) rotate(-67.977) scale(.08 -.08)">
<use xlink:href="#an"/>
</g>
</g>
<path d="m850.56 508.81 1.1889 5.4583q0.51077 2.345 2.8558 1.8343l7.5651-1.6478q2.345-0.51076 1.8343-2.8558l-1.1889-5.4583q-0.51076-2.345-2.8558-1.8343l-7.5651 1.6478q-2.345 0.51076-1.8343 2.8558z" clip-path="url(#a)" fill="#fff" stroke="#fff"/>
<g clip-path="url(#a)">
<g transform="translate(854.53 507.95) rotate(77.712) scale(.08 -.08)">
<use xlink:href="#t"/>
</g>
</g>
<path d="m908.42 512.31 3.2516 3.8704q1.5438 1.8376 3.3814 0.2938l5.9281-4.9803q1.8376-1.5438 0.2938-3.3814l-3.2516-3.8704q-1.5438-1.8376-3.3814-0.2938l-5.9281 4.9803q-1.8376 1.5438-0.2938 3.3814z" clip-path="url(#a)" fill="#fff" stroke="#fff"/>
<g clip-path="url(#a)">
<defs>
<path id="ao" d="m9.8125 72.906h46.094v-8.3125h-36.234v-21.578h34.719v-8.2969h-34.719v-26.422h37.109v-8.2969h-46.969z"/>
</defs>
<g transform="translate(911.53 509.69) rotate(49.966) scale(.08 -.08)">
<use xlink:href="#ao"/>
</g>
</g>
<path d="m709.99 677.56v35.285q0 2.4 2.4 2.4h7.7425q2.4 0 2.4-2.4v-35.285q0-2.4-2.4-2.4h-7.7425q-2.4 0-2.4 2.4z" clip-path="url(#a)" fill="#fff" stroke="#fff"/>
<g clip-path="url(#a)">
<g transform="translate(714.05 677.56) rotate(90) scale(.08 -.08)">
<use xlink:href="#k"/>
<use x="60.818359" xlink:href="#c"/>
<use x="122.341797" xlink:href="#f"/>
<use x="163.439453" xlink:href="#l"/>
<use x="260.851562" xlink:href="#i"/>
<use x="288.634766" xlink:href="#g"/>
<use x="352.013672" xlink:href="#e"/>
<use x="413.292969" xlink:href="#j"/>
</g>
</g>
<path d="m756.04 677.56v35.285q0 2.4 2.4 2.4h7.7425q2.4 0 2.4-2.4v-35.285q0-2.4-2.4-2.4h-7.7425q-2.4 0-2.4 2.4z" clip-path="url(#a)" fill="#fff" stroke="#fff"/>
<g clip-path="url(#a)">
<g transform="translate(760.1 677.56) rotate(90) scale(.08 -.08)">
<use xlink:href="#k"/>
<use x="60.818359" xlink:href="#c"/>
<use x="122.341797" xlink:href="#f"/>
<use x="163.439453" xlink:href="#l"/>
<use x="260.851562" xlink:href="#i"/>
<use x="288.634766" xlink:href="#g"/>
<use x="352.013672" xlink:href="#e"/>
<use x="413.292969" xlink:href="#j"/>
</g>
</g>
<path d="m842.6 713.92 12.343-33.056q0.83951-2.2484-1.4089-3.0879l-7.2534-2.7083q-2.2484-0.83951-3.0879 1.4089l-12.343 33.056q-0.83951 2.2484 1.4089 3.0879l7.2534 2.7083q2.2484 0.83951 3.0879-1.4089z" clip-path="url(#a)" fill="#fff" stroke="#fff"/>
<g clip-path="url(#a)">
<g transform="translate(838.79 712.5) rotate(-69.525) scale(.08 -.08)">
<use xlink:href="#k"/>
<use x="60.818359" xlink:href="#c"/>
<use x="122.341797" xlink:href="#f"/>
<use x="163.439453" xlink:href="#l"/>
<use x="260.851562" xlink:href="#i"/>
<use x="288.634766" xlink:href="#g"/>
<use x="352.013672" xlink:href="#e"/>
<use x="413.292969" xlink:href="#j"/>
</g>
</g>
<path d="m869.96 713.48 4.358-35.015q0.29642-2.3816-2.0852-2.678l-7.6832-0.95627q-2.3816-0.29642-2.678 2.0852l-4.358 35.015q-0.29642 2.3816 2.0852 2.678l7.6832 0.95627q2.3816 0.29642 2.678-2.0852z" clip-path="url(#a)" fill="#fff" stroke="#fff"/>
<g clip-path="url(#a)">
<g transform="translate(865.93 712.98) rotate(-82.905) scale(.08 -.08)">
<use xlink:href="#k"/>
<use x="60.818359" xlink:href="#c"/>
<use x="122.341797" xlink:href="#f"/>
<use x="163.439453" xlink:href="#l"/>
<use x="260.851562" xlink:href="#i"/>
<use x="288.634766" xlink:href="#g"/>
<use x="352.013672" xlink:href="#e"/>
<use x="413.292969" xlink:href="#j"/>
</g>
</g>
<path d="m880.54 678.47 4.358 35.015q0.29642 2.3816 2.678 2.0852l7.6832-0.95627q2.3816-0.29642 2.0852-2.678l-4.358-35.015q-0.29642-2.3816-2.678-2.0852l-7.6832 0.95627q-2.3816 0.29642-2.0852 2.678z" clip-path="url(#a)" fill="#fff" stroke="#fff"/>
<g clip-path="url(#a)">
<g transform="translate(884.57 677.97) rotate(82.905) scale(.08 -.08)">
<use xlink:href="#k"/>
<use x="60.818359" xlink:href="#c"/>
<use x="122.341797" xlink:href="#f"/>
<use x="163.439453" xlink:href="#l"/>
<use x="260.851562" xlink:href="#i"/>
<use x="288.634766" xlink:href="#g"/>
<use x="352.013672" xlink:href="#e"/>
<use x="413.292969" xlink:href="#j"/>
</g>
</g>
<path d="m899.92 680.87 12.343 33.056q0.83951 2.2484 3.0879 1.4089l7.2534-2.7083q2.2484-0.83951 1.4089-3.0879l-12.343-33.056q-0.83951-2.2484-3.0879-1.4089l-7.2534 2.7083q-2.2484 0.83951-1.4089 3.0879z" clip-path="url(#a)" fill="#fff" stroke="#fff"/>
<g clip-path="url(#a)">
<g transform="translate(903.73 679.44) rotate(69.525) scale(.08 -.08)">
<use xlink:href="#k"/>
<use x="60.818359" xlink:href="#c"/>
<use x="122.341797" xlink:href="#f"/>
<use x="163.439453" xlink:href="#l"/>
<use x="260.851562" xlink:href="#i"/>
<use x="288.634766" xlink:href="#g"/>
<use x="352.013672" xlink:href="#e"/>
<use x="413.292969" xlink:href="#j"/>
</g>
</g>
<path d="m986.28 677.56v35.285q0 2.4 2.4 2.4h7.7425q2.4 0 2.4-2.4v-35.285q0-2.4-2.4-2.4h-7.7425q-2.4 0-2.4 2.4z" clip-path="url(#a)" fill="#fff" stroke="#fff"/>
<g clip-path="url(#a)">
<g transform="translate(990.35 677.56) rotate(90) scale(.08 -.08)">
<use xlink:href="#k"/>
<use x="60.818359" xlink:href="#c"/>
<use x="122.341797" xlink:href="#f"/>
<use x="163.439453" xlink:href="#l"/>
<use x="260.851562" xlink:href="#i"/>
<use x="288.634766" xlink:href="#g"/>
<use x="352.013672" xlink:href="#e"/>
<use x="413.292969" xlink:href="#j"/>
</g>
</g>
<path d="m479.74 677.56v35.285q0 2.4 2.4 2.4h7.7425q2.4 0 2.4-2.4v-35.285q0-2.4-2.4-2.4h-7.7425q-2.4 0-2.4 2.4z" clip-path="url(#a)" fill="#fff" stroke="#fff"/>
<g clip-path="url(#a)">
<g transform="translate(483.81 677.56) rotate(90) scale(.08 -.08)">
<use xlink:href="#k"/>
<use x="60.818359" xlink:href="#c"/>
<use x="122.341797" xlink:href="#f"/>
<use x="163.439453" xlink:href="#l"/>
<use x="260.851562" xlink:href="#i"/>
<use x="288.634766" xlink:href="#g"/>
<use x="352.013672" xlink:href="#e"/>
<use x="413.292969" xlink:href="#j"/>
</g>
</g>
<path d="m525.79 677.56v35.285q0 2.4 2.4 2.4h7.7425q2.4 0 2.4-2.4v-35.285q0-2.4-2.4-2.4h-7.7425q-2.4 0-2.4 2.4z" clip-path="url(#a)" fill="#fff" stroke="#fff"/>
<g clip-path="url(#a)">
<g transform="translate(529.86 677.56) rotate(90) scale(.08 -.08)">
<use xlink:href="#k"/>
<use x="60.818359" xlink:href="#c"/>
<use x="122.341797" xlink:href="#f"/>
<use x="163.439453" xlink:href="#l"/>
<use x="260.851562" xlink:href="#i"/>
<use x="288.634766" xlink:href="#g"/>
<use x="352.013672" xlink:href="#e"/>
<use x="413.292969" xlink:href="#j"/>
</g>
</g>
<path d="m571.84 677.56v35.285q0 2.4 2.4 2.4h7.7425q2.4 0 2.4-2.4v-35.285q0-2.4-2.4-2.4h-7.7425q-2.4 0-2.4 2.4z" clip-path="url(#a)" fill="#fff" stroke="#fff"/>
<g clip-path="url(#a)">
<g transform="translate(575.91 677.56) rotate(90) scale(.08 -.08)">
<use xlink:href="#k"/>
<use x="60.818359" xlink:href="#c"/>
<use x="122.341797" xlink:href="#f"/>
<use x="163.439453" xlink:href="#l"/>
<use x="260.851562" xlink:href="#i"/>
<use x="288.634766" xlink:href="#g"/>
<use x="352.013672" xlink:href="#e"/>
<use x="413.292969" xlink:href="#j"/>
</g>
</g>
<path d="m65.305 677.56v35.285q0 2.4 2.4 2.4h7.7425q2.4 0 2.4-2.4v-35.285q0-2.4-2.4-2.4h-7.7425q-2.4 0-2.4 2.4z" clip-path="url(#a)" fill="#fff" stroke="#fff"/>
<g clip-path="url(#a)">
<g transform="translate(69.369 677.56) rotate(90) scale(.08 -.08)">
<use xlink:href="#k"/>
<use x="60.818359" xlink:href="#c"/>
<use x="122.341797" xlink:href="#f"/>
<use x="163.439453" xlink:href="#l"/>
<use x="260.851562" xlink:href="#i"/>
<use x="288.634766" xlink:href="#g"/>
<use x="352.013672" xlink:href="#e"/>
<use x="413.292969" xlink:href="#j"/>
</g>
</g>
<path d="m111.35 677.56v35.285q0 2.4 2.4 2.4h7.7425q2.4 0 2.4-2.4v-35.285q0-2.4-2.4-2.4h-7.7425q-2.4 0-2.4 2.4z" clip-path="url(#a)" fill="#fff" stroke="#fff"/>
<g clip-path="url(#a)">
<g transform="translate(115.42 677.56) rotate(90) scale(.08 -.08)">
<use xlink:href="#k"/>
<use x="60.818359" xlink:href="#c"/>
<use x="122.341797" xlink:href="#f"/>
<use x="163.439453" xlink:href="#l"/>
<use x="260.851562" xlink:href="#i"/>
<use x="288.634766" xlink:href="#g"/>
<use x="352.013672" xlink:href="#e"/>
<use x="413.292969" xlink:href="#j"/>
</g>
</g>
<path d="m157.4 677.56v35.285q0 2.4 2.4 2.4h7.7425q2.4 0 2.4-2.4v-35.285q0-2.4-2.4-2.4h-7.7425q-2.4 0-2.4 2.4z" clip-path="url(#a)" fill="#fff" stroke="#fff"/>
<g clip-path="url(#a)">
<g transform="translate(161.47 677.56) rotate(90) scale(.08 -.08)">
<use xlink:href="#k"/>
<use x="60.818359" xlink:href="#c"/>
<use x="122.341797" xlink:href="#f"/>
<use x="163.439453" xlink:href="#l"/>
<use x="260.851562" xlink:href="#i"/>
<use x="288.634766" xlink:href="#g"/>
<use x="352.013672" xlink:href="#e"/>
<use x="413.292969" xlink:href="#j"/>
</g>
</g>
<path d="m203.45 677.56v35.285q0 2.4 2.4 2.4h7.7425q2.4 0 2.4-2.4v-35.285q0-2.4-2.4-2.4h-7.7425q-2.4 0-2.4 2.4z" clip-path="url(#a)" fill="#fff" stroke="#fff"/>
<g clip-path="url(#a)">
<g transform="translate(207.52 677.56) rotate(90) scale(.08 -.08)">
<use xlink:href="#k"/>
<use x="60.818359" xlink:href="#c"/>
<use x="122.341797" xlink:href="#f"/>
<use x="163.439453" xlink:href="#l"/>
<use x="260.851562" xlink:href="#i"/>
<use x="288.634766" xlink:href="#g"/>
<use x="352.013672" xlink:href="#e"/>
<use x="413.292969" xlink:href="#j"/>
</g>
</g>
<path d="m295.21 515.01 1.9444-5.2076q0.83951-2.2484-1.4089-3.0879l-7.2534-2.7083q-2.2484-0.83951-3.0879 1.4089l-1.9444 5.2076q-0.83951 2.2484 1.4089 3.0879l7.2534 2.7083q2.2484 0.83951 3.0879-1.4089z" clip-path="url(#a)" fill="#fff" stroke="#fff"/>
<g clip-path="url(#a)">
<g transform="translate(291.4 513.58) rotate(-69.525) scale(.08 -.08)">
<use xlink:href="#ai"/>
</g>
</g>
<path d="m352.53 509.79 1.9541 5.2333q0.83951 2.2484 3.0879 1.4089l7.2534-2.7083q2.2484-0.83951 1.4089-3.0879l-1.9541-5.2333q-0.83951-2.2484-3.0879-1.4089l-7.2534 2.7083q-2.2484 0.83951-1.4089 3.0879z" clip-path="url(#a)" fill="#fff" stroke="#fff"/>
<g clip-path="url(#a)">
<g transform="translate(356.34 508.36) rotate(69.525) scale(.08 -.08)">
<use xlink:href="#t"/>
</g>
</g>
<path d="m319.24 513.49 0.62434-5.0163q0.29642-2.3816-2.0852-2.678l-7.6832-0.95627q-2.3816-0.29642-2.678 2.0852l-0.62434 5.0163q-0.29642 2.3816 2.0852 2.678l7.6832 0.95627q2.3816 0.29642 2.678-2.0852z" clip-path="url(#a)" fill="#fff" stroke="#fff"/>
<g clip-path="url(#a)">
<g transform="translate(315.21 512.99) rotate(-82.905) scale(.08 -.08)">
<use xlink:href="#ao"/>
</g>
</g>
<path d="m329.79 508.21 0.68995 5.5435q0.29642 2.3816 2.678 2.0852l7.6832-0.95627q2.3816-0.29642 2.0852-2.678l-0.68995-5.5435q-0.29642-2.3816-2.678-2.0852l-7.6832 0.95627q-2.3816 0.29642-2.0852 2.678z" clip-path="url(#a)" fill="#fff" stroke="#fff"/>
<g clip-path="url(#a)">
<g transform="translate(333.82 507.71) rotate(82.905) scale(.08 -.08)">
<use xlink:href="#t"/>
</g>
</g>
<path d="m295.55 677.56v35.285q0 2.4 2.4 2.4h7.7425q2.4 0 2.4-2.4v-35.285q0-2.4-2.4-2.4h-7.7425q-2.4 0-2.4 2.4z" clip-path="url(#a)" fill="#fff" stroke="#fff"/>
<g clip-path="url(#a)">
<g transform="translate(299.61 677.56) rotate(90) scale(.08 -.08)">
<use xlink:href="#k"/>
<use x="60.818359" xlink:href="#c"/>
<use x="122.341797" xlink:href="#f"/>
<use x="163.439453" xlink:href="#l"/>
<use x="260.851562" xlink:href="#i"/>
<use x="288.634766" xlink:href="#g"/>
<use x="352.013672" xlink:href="#e"/>
<use x="413.292969" xlink:href="#j"/>
</g>
</g>
<path d="m341.6 677.56v35.285q0 2.4 2.4 2.4h7.7425q2.4 0 2.4-2.4v-35.285q0-2.4-2.4-2.4h-7.7425q-2.4 0-2.4 2.4z" clip-path="url(#a)" fill="#fff" stroke="#fff"/>
<g clip-path="url(#a)">
<g transform="translate(345.66 677.56) rotate(90) scale(.08 -.08)">
<use xlink:href="#k"/>
<use x="60.818359" xlink:href="#c"/>
<use x="122.341797" xlink:href="#f"/>
<use x="163.439453" xlink:href="#l"/>
<use x="260.851562" xlink:href="#i"/>
<use x="288.634766" xlink:href="#g"/>
<use x="352.013672" xlink:href="#e"/>
<use x="413.292969" xlink:href="#j"/>
</g>
</g>
<path d="m249.5 677.56v35.285q0 2.4 2.4 2.4h7.7425q2.4 0 2.4-2.4v-35.285q0-2.4-2.4-2.4h-7.7425q-2.4 0-2.4 2.4z" clip-path="url(#a)" fill="#fff" stroke="#fff"/>
<g clip-path="url(#a)">
<g transform="translate(253.56 677.56) rotate(90) scale(.08 -.08)">
<use xlink:href="#k"/>
<use x="60.818359" xlink:href="#c"/>
<use x="122.341797" xlink:href="#f"/>
<use x="163.439453" xlink:href="#l"/>
<use x="260.851562" xlink:href="#i"/>
<use x="288.634766" xlink:href="#g"/>
<use x="352.013672" xlink:href="#e"/>
<use x="413.292969" xlink:href="#j"/>
</g>
</g>
<path d="m387.65 677.56v35.285q0 2.4 2.4 2.4h7.7425q2.4 0 2.4-2.4v-35.285q0-2.4-2.4-2.4h-7.7425q-2.4 0-2.4 2.4z" clip-path="url(#a)" fill="#fff" stroke="#fff"/>
<g clip-path="url(#a)">
<g transform="translate(391.71 677.56) rotate(90) scale(.08 -.08)">
<use xlink:href="#k"/>
<use x="60.818359" xlink:href="#c"/>
<use x="122.341797" xlink:href="#f"/>
<use x="163.439453" xlink:href="#l"/>
<use x="260.851562" xlink:href="#i"/>
<use x="288.634766" xlink:href="#g"/>
<use x="352.013672" xlink:href="#e"/>
<use x="413.292969" xlink:href="#j"/>
</g>
</g>
<path d="m433.7 677.56v35.285q0 2.4 2.4 2.4h7.7425q2.4 0 2.4-2.4v-35.285q0-2.4-2.4-2.4h-7.7425q-2.4 0-2.4 2.4z" clip-path="url(#a)" fill="#fff" stroke="#fff"/>
<g clip-path="url(#a)">
<g transform="translate(437.76 677.56) rotate(90) scale(.08 -.08)">
<use xlink:href="#k"/>
<use x="60.818359" xlink:href="#c"/>
<use x="122.341797" xlink:href="#f"/>
<use x="163.439453" xlink:href="#l"/>
<use x="260.851562" xlink:href="#i"/>
<use x="288.634766" xlink:href="#g"/>
<use x="352.013672" xlink:href="#e"/>
<use x="413.292969" xlink:href="#j"/>
</g>
</g>
<path d="m1032.3 677.56v35.285q0 2.4 2.4 2.4h7.7425q2.4 0 2.4-2.4v-35.285q0-2.4-2.4-2.4h-7.7425q-2.4 0-2.4 2.4z" clip-path="url(#a)" fill="#fff" stroke="#fff"/>
<g clip-path="url(#a)">
<g transform="translate(1036.4 677.56) rotate(90) scale(.08 -.08)">
<use xlink:href="#k"/>
<use x="60.818359" xlink:href="#c"/>
<use x="122.341797" xlink:href="#f"/>
<use x="163.439453" xlink:href="#l"/>
<use x="260.851562" xlink:href="#i"/>
<use x="288.634766" xlink:href="#g"/>
<use x="352.013672" xlink:href="#e"/>
<use x="413.292969" xlink:href="#j"/>
</g>
</g>
<path d="m1446.8 677.56v35.285q0 2.4 2.4 2.4h7.7425q2.4 0 2.4-2.4v-35.285q0-2.4-2.4-2.4h-7.7425q-2.4 0-2.4 2.4z" clip-path="url(#a)" fill="#fff" stroke="#fff"/>
<g clip-path="url(#a)">
<g transform="translate(1450.8 677.56) rotate(90) scale(.08 -.08)">
<use xlink:href="#k"/>
<use x="60.818359" xlink:href="#c"/>
<use x="122.341797" xlink:href="#f"/>
<use x="163.439453" xlink:href="#l"/>
<use x="260.851562" xlink:href="#i"/>
<use x="288.634766" xlink:href="#g"/>
<use x="352.013672" xlink:href="#e"/>
<use x="413.292969" xlink:href="#j"/>
</g>
</g>
<defs>
<path id="b" d="m0 8.6603c2.2967 0 4.4997-0.9125 6.1237-2.5365 1.624-1.624 2.5365-3.827 2.5365-6.1237s-0.9125-4.4997-2.5365-6.1237c-1.624-1.624-3.827-2.5365-6.1237-2.5365s-4.4997 0.9125-6.1237 2.5365c-1.624 1.624-2.5365 3.827-2.5365 6.1237s0.9125 4.4997 2.5365 6.1237c1.624 1.624 3.827 2.5365 6.1237 2.5365z"/>
</defs>
<g clip-path="url(#a)">
<use x="71.576748" y="787.695555" fill="#ffffff" stroke="#ffffff" xlink:href="#b"/>
</g>
<g clip-path="url(#a)">
<use x="117.62556" y="787.695555" fill="#ffffff" stroke="#ffffff" xlink:href="#b"/>
</g>
<g clip-path="url(#a)">
<use x="163.674372" y="787.695555" fill="#ffffff" stroke="#ffffff" xlink:href="#b"/>
</g>
<g clip-path="url(#a)">
<use x="209.723184" y="787.695555" fill="#ffffff" stroke="#ffffff" xlink:href="#b"/>
</g>
<g clip-path="url(#a)">
<use x="255.771996" y="787.695555" fill="#ffffff" stroke="#ffffff" xlink:href="#b"/>
</g>
<g clip-path="url(#a)">
<use x="301.820808" y="787.695555" fill="#ffffff" stroke="#ffffff" xlink:href="#b"/>
</g>
<g clip-path="url(#a)">
<use x="347.86962" y="787.695555" fill="#ffffff" stroke="#ffffff" xlink:href="#b"/>
</g>
<g clip-path="url(#a)">
<use x="393.918432" y="787.695555" fill="#ffffff" stroke="#ffffff" xlink:href="#b"/>
</g>
<g clip-path="url(#a)">
<use x="439.967244" y="787.695555" fill="#ffffff" stroke="#ffffff" xlink:href="#b"/>
</g>
<g clip-path="url(#a)">
<use x="486.016056" y="787.695555" fill="#ffffff" stroke="#ffffff" xlink:href="#b"/>
</g>
<g clip-path="url(#a)">
<use x="532.064868" y="787.695555" fill="#ffffff" stroke="#ffffff" xlink:href="#b"/>
</g>
<g clip-path="url(#a)">
<use x="578.11368" y="787.695555" fill="#ffffff" stroke="#ffffff" xlink:href="#b"/>
</g>
<g clip-path="url(#a)">
<use x="624.162492" y="787.695555" fill="#ffffff" stroke="#ffffff" xlink:href="#b"/>
</g>
<g clip-path="url(#a)">
<use x="670.211304" y="787.695555" fill="#ffffff" stroke="#ffffff" xlink:href="#b"/>
</g>
<g clip-path="url(#a)">
<use x="716.260115" y="787.695555" fill="#ffffff" stroke="#ffffff" xlink:href="#b"/>
</g>
<g clip-path="url(#a)">
<use x="762.308927" y="787.695555" fill="#ffffff" stroke="#ffffff" xlink:href="#b"/>
</g>
<g clip-path="url(#a)">
<use x="808.357739" y="787.695555" fill="#ffffff" stroke="#ffffff" xlink:href="#b"/>
</g>
<g clip-path="url(#a)">
<use x="854.406551" y="787.695555" fill="#ffffff" stroke="#ffffff" xlink:href="#b"/>
</g>
<g clip-path="url(#a)">
<use x="900.455363" y="787.695555" fill="#ffffff" stroke="#ffffff" xlink:href="#b"/>
</g>
<g clip-path="url(#a)">
<use x="946.504175" y="787.695555" fill="#ffffff" stroke="#ffffff" xlink:href="#b"/>
</g>
<g clip-path="url(#a)">
<use x="992.552987" y="787.695555" fill="#ffffff" stroke="#ffffff" xlink:href="#b"/>
</g>
<g clip-path="url(#a)">
<use x="1038.601799" y="787.695555" fill="#ffffff" stroke="#ffffff" xlink:href="#b"/>
</g>
<g clip-path="url(#a)">
<use x="1084.650611" y="787.695555" fill="#ffffff" stroke="#ffffff" xlink:href="#b"/>
</g>
<g clip-path="url(#a)">
<use x="1130.699423" y="787.695555" fill="#ffffff" stroke="#ffffff" xlink:href="#b"/>
</g>
<g clip-path="url(#a)">
<use x="1176.748235" y="787.695555" fill="#ffffff" stroke="#ffffff" xlink:href="#b"/>
</g>
<g clip-path="url(#a)">
<use x="1222.797047" y="787.695555" fill="#ffffff" stroke="#ffffff" xlink:href="#b"/>
</g>
<g clip-path="url(#a)">
<use x="1268.845859" y="787.695555" fill="#ffffff" stroke="#ffffff" xlink:href="#b"/>
</g>
<g clip-path="url(#a)">
<use x="1314.894671" y="787.695555" fill="#ffffff" stroke="#ffffff" xlink:href="#b"/>
</g>
<g clip-path="url(#a)">
<use x="1360.943482" y="787.695555" fill="#ffffff" stroke="#ffffff" xlink:href="#b"/>
</g>
<g clip-path="url(#a)">
<use x="1406.992294" y="787.695555" fill="#ffffff" stroke="#ffffff" xlink:href="#b"/>
</g>
<g clip-path="url(#a)">
<use x="1453.041106" y="787.695555" fill="#ffffff" stroke="#ffffff" xlink:href="#b"/>
</g>
<g clip-path="url(#a)">
<use x="893.200277" y="38.971112" fill="#ffffff" stroke="#ffffff" xlink:href="#b"/>
</g>
<g clip-path="url(#a)">
<use x="202.048382" y="230.147718" fill="#ffffff" stroke="#ffffff" xlink:href="#b"/>
</g>
<g clip-path="url(#a)">
<use x="665.894227" y="230.147718" fill="#ffffff" stroke="#ffffff" xlink:href="#b"/>
</g>
<g clip-path="url(#a)">
<use x="1084.650611" y="602.704088" fill="#ffffff" stroke="#ffffff" xlink:href="#b"/>
</g>
<g clip-path="url(#a)">
<use x="1038.601799" y="417.71262" fill="#ffffff" stroke="#ffffff" xlink:href="#b"/>
</g>
<g clip-path="url(#a)">
<use x="1268.845859" y="602.704088" fill="#ffffff" stroke="#ffffff" xlink:href="#b"/>
</g>
<g clip-path="url(#a)">
<use x="1406.992294" y="417.71262" fill="#ffffff" stroke="#ffffff" xlink:href="#b"/>
</g>
<g clip-path="url(#a)">
<use x="1499.089918" y="787.695555" fill="#ffffff" stroke="#ffffff" xlink:href="#b"/>
</g>
<g clip-path="url(#a)">
<use x="1314.894671" y="602.704088" fill="#ffffff" stroke="#ffffff" xlink:href="#b"/>
</g>
<g clip-path="url(#a)">
<use x="1360.943482" y="602.704088" fill="#ffffff" stroke="#ffffff" xlink:href="#b"/>
</g>
<g clip-path="url(#a)">
<use x="1406.992294" y="602.704088" fill="#ffffff" stroke="#ffffff" xlink:href="#b"/>
</g>
<g clip-path="url(#a)">
<use x="1130.699423" y="602.704088" fill="#ffffff" stroke="#ffffff" xlink:href="#b"/>
</g>
<g clip-path="url(#a)">
<use x="1176.748235" y="602.704088" fill="#ffffff" stroke="#ffffff" xlink:href="#b"/>
</g>
<g clip-path="url(#a)">
<use x="1222.797047" y="602.704088" fill="#ffffff" stroke="#ffffff" xlink:href="#b"/>
</g>
<g clip-path="url(#a)">
<use x="532.064868" y="417.71262" fill="#ffffff" stroke="#ffffff" xlink:href="#b"/>
</g>
<g clip-path="url(#a)">
<use x="624.162492" y="602.704088" fill="#ffffff" stroke="#ffffff" xlink:href="#b"/>
</g>
<g clip-path="url(#a)">
<use x="670.211304" y="602.704088" fill="#ffffff" stroke="#ffffff" xlink:href="#b"/>
</g>
<g clip-path="url(#a)">
<use x="837.138247" y="417.71262" fill="#ffffff" stroke="#ffffff" xlink:href="#b"/>
</g>
<g clip-path="url(#a)">
<use x="716.260115" y="602.704088" fill="#ffffff" stroke="#ffffff" xlink:href="#b"/>
</g>
<g clip-path="url(#a)">
<use x="762.308927" y="602.704088" fill="#ffffff" stroke="#ffffff" xlink:href="#b"/>
</g>
<g clip-path="url(#a)">
<use x="877.430957" y="602.704088" fill="#ffffff" stroke="#ffffff" xlink:href="#b"/>
</g>
<g clip-path="url(#a)">
<use x="992.552987" y="602.704088" fill="#ffffff" stroke="#ffffff" xlink:href="#b"/>
</g>
<g clip-path="url(#a)">
<use x="486.016056" y="602.704088" fill="#ffffff" stroke="#ffffff" xlink:href="#b"/>
</g>
<g clip-path="url(#a)">
<use x="532.064868" y="602.704088" fill="#ffffff" stroke="#ffffff" xlink:href="#b"/>
</g>
<g clip-path="url(#a)">
<use x="578.11368" y="602.704088" fill="#ffffff" stroke="#ffffff" xlink:href="#b"/>
</g>
<g clip-path="url(#a)">
<use x="71.576748" y="602.704088" fill="#ffffff" stroke="#ffffff" xlink:href="#b"/>
</g>
<g clip-path="url(#a)">
<use x="117.62556" y="602.704088" fill="#ffffff" stroke="#ffffff" xlink:href="#b"/>
</g>
<g clip-path="url(#a)">
<use x="163.674372" y="602.704088" fill="#ffffff" stroke="#ffffff" xlink:href="#b"/>
</g>
<g clip-path="url(#a)">
<use x="209.723184" y="602.704088" fill="#ffffff" stroke="#ffffff" xlink:href="#b"/>
</g>
<g clip-path="url(#a)">
<use x="324.845214" y="417.71262" fill="#ffffff" stroke="#ffffff" xlink:href="#b"/>
</g>
<g clip-path="url(#a)">
<use x="324.845214" y="417.71262" fill="#ffffff" stroke="#ffffff" xlink:href="#b"/>
</g>
<g clip-path="url(#a)">
<use x="301.820808" y="602.704088" fill="#ffffff" stroke="#ffffff" xlink:href="#b"/>
</g>
<g clip-path="url(#a)">
<use x="347.86962" y="602.704088" fill="#ffffff" stroke="#ffffff" xlink:href="#b"/>
</g>
<g clip-path="url(#a)">
<use x="255.771996" y="602.704088" fill="#ffffff" stroke="#ffffff" xlink:href="#b"/>
</g>
<g clip-path="url(#a)">
<use x="393.918432" y="602.704088" fill="#ffffff" stroke="#ffffff" xlink:href="#b"/>
</g>
<g clip-path="url(#a)">
<use x="439.967244" y="602.704088" fill="#ffffff" stroke="#ffffff" xlink:href="#b"/>
</g>
<g clip-path="url(#a)">
<use x="1038.601799" y="602.704088" fill="#ffffff" stroke="#ffffff" xlink:href="#b"/>
</g>
<g clip-path="url(#a)">
<use x="1453.041106" y="602.704088" fill="#ffffff" stroke="#ffffff" xlink:href="#b"/>
</g>
<g clip-path="url(#a)">
<defs>
<path id="ah" d="m53.516 70.516v-9.625q-5.6094 2.6875-10.594 4-4.9844 1.3281-9.625 1.3281-8.0469 0-12.422-3.125t-4.375-8.8906q0-4.8438 2.9062-7.3125 2.9062-2.4531 11.016-3.9688l5.9531-1.2188q11.031-2.1094 16.281-7.4062t5.25-14.172q0-10.609-7.1094-16.078-7.0938-5.4688-20.812-5.4688-5.1719 0-11.016 1.1719-5.8281 1.1719-12.078 3.4688v10.156q6-3.3594 11.766-5.0781 5.7656-1.7031 11.328-1.7031 8.4375 0 13.031 3.3125 4.5938 3.3281 4.5938 9.4844 0 5.3594-3.2969 8.3906t-10.812 4.5469l-6.0156 1.1719q-11.031 2.1875-15.969 6.875-4.9219 4.6875-4.9219 13.047 0 9.6719 6.8125 15.234t18.766 5.5625q5.1406 0 10.453-0.9375 5.3281-0.92188 10.891-2.7656z"/>
<path id="r" d="m54.891 33.016v-33.016h-8.9844v32.719q0 7.7656-3.0312 11.609-3.0312 3.8594-9.0781 3.8594-7.2812 0-11.484-4.6406-4.2031-4.625-4.2031-12.641v-30.906h-9.0312v75.984h9.0312v-29.797q3.2344 4.9375 7.5938 7.375 4.375 2.4375 10.094 2.4375 9.4219 0 14.25-5.8281 4.8438-5.8281 4.8438-17.156z"/>
</defs>
<g transform="translate(62.157 790.45) scale(.1 -.1)">
<use xlink:href="#ah"/>
<use x="63.476562" xlink:href="#r"/>
<use x="126.855469" xlink:href="#c"/>
</g>
</g>
<g clip-path="url(#a)">
<defs>
<path id="q" d="m44.281 53.078v-8.5q-3.7969 1.9531-7.9062 2.9219-4.0938 0.98438-8.5 0.98438-6.6875 0-10.031-2.0469t-3.3438-6.1562q0-3.125 2.3906-4.9062t9.625-3.3906l3.0781-0.6875q9.5625-2.0469 13.594-5.7812t4.0312-10.422q0-7.625-6.0312-12.078-6.0312-4.4375-16.578-4.4375-4.3906 0-9.1562 0.85938t-10.031 2.5625v9.2812q4.9844-2.5938 9.8125-3.8906 4.8281-1.2812 9.5781-1.2812 6.3438 0 9.75 2.1719 3.4219 2.1719 3.4219 6.125 0 3.6562-2.4688 5.6094-2.4531 1.9531-10.812 3.7656l-3.125 0.73438q-8.3438 1.75-12.062 5.3906-3.7031 3.6406-3.7031 9.9844 0 7.7188 5.4688 11.906 5.4688 4.2031 15.531 4.2031 4.9688 0 9.3594-0.73438 4.4062-0.71875 8.1094-2.1875z"/>
<path id="y" d="m30.609 48.391q-7.2188 0-11.422-5.6406t-4.2031-15.453 4.1719-15.453q4.1875-5.6406 11.453-5.6406 7.1875 0 11.375 5.6562 4.2031 5.6719 4.2031 15.438 0 9.7188-4.2031 15.406-4.1875 5.6875-11.375 5.6875zm0 7.6094q11.719 0 18.406-7.625 6.7031-7.6094 6.7031-21.078 0-13.422-6.7031-21.078-6.6875-7.6406-18.406-7.6406-11.766 0-18.438 7.6406-6.6562 7.6562-6.6562 21.078 0 13.469 6.6562 21.078 6.6719 7.625 18.438 7.625z"/>
</defs>
<g transform="translate(107.51 790.45) scale(.1 -.1)">
<use xlink:href="#e"/>
<use x="61.279297" xlink:href="#j"/>
<use x="89.0625" xlink:href="#q"/>
<use x="141.162109" xlink:href="#y"/>
</g>
</g>
<g clip-path="url(#a)">
<g transform="translate(154.84 790.45) scale(.1 -.1)">
<use xlink:href="#r"/>
<use x="63.378906" xlink:href="#e"/>
<use x="124.658203" xlink:href="#q"/>
</g>
</g>
<g clip-path="url(#a)">
<defs>
<path id="v" d="m18.109 8.2031v-29h-9.0312v75.484h9.0312v-8.2969q2.8438 4.875 7.1562 7.2344 4.3281 2.375 10.328 2.375 9.9688 0 16.188-7.9062 6.2344-7.9062 6.2344-20.797t-6.2344-20.812q-6.2188-7.9062-16.188-7.9062-6 0-10.328 2.375-4.3125 2.375-7.1562 7.25zm30.578 19.094q0 9.9062-4.0781 15.547t-11.203 5.6406q-7.1406 0-11.219-5.6406t-4.0781-15.547 4.0781-15.547 11.219-5.6406q7.125 0 11.203 5.6406t4.0781 15.547z"/>
<path id="ag" d="m45.406 46.391v29.594h8.9844v-75.984h-8.9844v8.2031q-2.8281-4.875-7.1562-7.25-4.3125-2.375-10.375-2.375-9.9062 0-16.141 7.9062-6.2188 7.9219-6.2188 20.812t6.2188 20.797q6.2344 7.9062 16.141 7.9062 6.0625 0 10.375-2.375 4.3281-2.3594 7.1562-7.2344zm-30.609-19.094q0-9.9062 4.0781-15.547t11.203-5.6406 11.219 5.6406q4.1094 5.6406 4.1094 15.547t-4.1094 15.547q-4.0938 5.6406-11.219 5.6406t-11.203-5.6406-4.0781-15.547z"/>
</defs>
<g transform="translate(192.66 790.45) scale(.1 -.1)">
<use xlink:href="#r"/>
<use x="63.378906" xlink:href="#c"/>
<use x="124.902344" xlink:href="#j"/>
<use x="152.685547" xlink:href="#v"/>
<use x="216.162109" xlink:href="#c"/>
<use x="277.685547" xlink:href="#ag"/>
</g>
</g>
<g clip-path="url(#a)">
<defs>
<path id="ap" d="m4.2031 54.688h8.9844l11.234-42.672 11.172 42.672h10.594l11.234-42.672 11.188 42.672h8.9844l-14.312-54.688h-10.594l-11.766 44.828-11.812-44.828h-10.609z"/>
<path id="o" d="m18.312 70.219v-15.531h18.5v-6.9844h-18.5v-29.688q0-6.6875 1.8281-8.5938t7.4531-1.9062h9.2188v-7.5156h-9.2188q-10.406 0-14.359 3.875-3.9531 3.8906-3.9531 14.141v29.688h-6.5938v6.9844h6.5938v15.531z"/>
</defs>
<g transform="translate(245.16 790.45) scale(.1 -.1)">
<use xlink:href="#ap"/>
<use x="81.787109" xlink:href="#i"/>
<use x="109.570312" xlink:href="#o"/>
<use x="148.779297" xlink:href="#r"/>
</g>
</g>
<g clip-path="url(#a)">
<defs>
<path id="am" d="m48.688 27.297q0 9.9062-4.0781 15.547t-11.203 5.6406q-7.1406 0-11.219-5.6406t-4.0781-15.547 4.0781-15.547 11.219-5.6406q7.125 0 11.203 5.6406t4.0781 15.547zm-30.578 19.094q2.8438 4.875 7.1562 7.2344 4.3281 2.375 10.328 2.375 9.9688 0 16.188-7.9062 6.2344-7.9062 6.2344-20.797t-6.2344-20.812q-6.2188-7.9062-16.188-7.9062-6 0-10.328 2.375-4.3125 2.375-7.1562 7.25v-8.2031h-9.0312v75.984h9.0312z"/>
</defs>
<g transform="translate(285.89 790.45) scale(.1 -.1)">
<use xlink:href="#am"/>
<use x="63.476562" xlink:href="#f"/>
<use x="104.558594" xlink:href="#c"/>
<use x="166.082031" xlink:href="#e"/>
<use x="227.361328" xlink:href="#q"/>
<use x="279.460938" xlink:href="#o"/>
</g>
</g>
<g clip-path="url(#a)">
<defs>
<path id="p" d="m48.781 52.594v-8.4062q-3.8125 2.1094-7.6406 3.1562t-7.7344 1.0469q-8.75 0-13.594-5.5469-4.8281-5.5312-4.8281-15.547t4.8281-15.562q4.8438-5.5312 13.594-5.5312 3.9062 0 7.7344 1.0469t7.6406 3.1562v-8.3125q-3.7656-1.75-7.7969-2.625-4.0156-0.89062-8.5625-0.89062-12.359 0-19.641 7.7656-7.2656 7.7656-7.2656 20.953 0 13.375 7.3438 21.031 7.3594 7.6719 20.156 7.6719 4.1406 0 8.0938-0.85938 3.9531-0.84375 7.6719-2.5469z"/>
</defs>
<g transform="translate(331.01 790.45) scale(.1 -.1)">
<use xlink:href="#p"/>
<use x="54.980469" xlink:href="#e"/>
<use x="116.259766" xlink:href="#g"/>
<use x="179.638672" xlink:href="#p"/>
<use x="234.619141" xlink:href="#c"/>
<use x="296.142578" xlink:href="#f"/>
</g>
</g>
<g clip-path="url(#a)">
<g transform="translate(367.12 790.45) scale(.1 -.1)">
<use xlink:href="#e"/>
<use x="61.279297" xlink:href="#ap"/>
<use x="143.066406" xlink:href="#e"/>
<use x="204.345703" xlink:href="#f"/>
<use x="245.427734" xlink:href="#c"/>
<use x="306.951172" xlink:href="#g"/>
<use x="370.330078" xlink:href="#c"/>
<use x="431.853516" xlink:href="#q"/>
<use x="483.953125" xlink:href="#q"/>
</g>
</g>
<g clip-path="url(#a)">
<defs>
<path id="ar" d="m11.719 51.703h10.297v-12.391h-10.297zm0-39.297h10.297v-8.4062l-8-15.625h-6.2969l4 15.625z"/>
</defs>
<g transform="translate(438.28 790.45) scale(.1 -.1)">
<use xlink:href="#ar"/>
</g>
</g>
<g clip-path="url(#a)">
<g transform="translate(481.46 790.45) scale(.1 -.1)">
<use xlink:href="#i"/>
<use x="27.783203" xlink:href="#g"/>
</g>
</g>
<g clip-path="url(#a)">
<g transform="translate(504.43 790.45) scale(.1 -.1)">
<use xlink:href="#ah"/>
<use x="63.476562" xlink:href="#c"/>
<use x="125" xlink:href="#v"/>
<use x="188.476562" xlink:href="#o"/>
<use x="227.685547" xlink:href="#c"/>
<use x="289.208984" xlink:href="#l"/>
<use x="386.621094" xlink:href="#am"/>
<use x="450.097656" xlink:href="#c"/>
<use x="511.621094" xlink:href="#f"/>
</g>
</g>
<g clip-path="url(#a)">
<defs>
<path id="m" d="m19.188 8.2969h34.422v-8.2969h-46.281v8.2969q5.6094 5.8125 15.297 15.594 9.7031 9.7969 12.188 12.641 4.7344 5.3125 6.6094 9 1.8906 3.6875 1.8906 7.25 0 5.8125-4.0781 9.4688-4.0781 3.6719-10.625 3.6719-4.6406 0-9.7969-1.6094-5.1406-1.6094-11-4.8906v9.9688q5.9531 2.3906 11.125 3.6094 5.1875 1.2188 9.4844 1.2188 11.328 0 18.062-5.6719 6.7344-5.6562 6.7344-15.125 0-4.5-1.6875-8.5312-1.6719-4.0156-6.125-9.4844-1.2188-1.4219-7.7656-8.1875-6.5312-6.7656-18.453-18.922z"/>
<path id="x" d="m31.781 66.406q-7.6094 0-11.453-7.5-3.8281-7.4844-3.8281-22.531 0-14.984 3.8281-22.484 3.8438-7.5 11.453-7.5 7.6719 0 11.5 7.5 3.8438 7.5 3.8438 22.484 0 15.047-3.8438 22.531-3.8281 7.5-11.5 7.5zm0 7.8125q12.266 0 18.734-9.7031 6.4688-9.6875 6.4688-28.141 0-18.406-6.4688-28.109-6.4688-9.6875-18.734-9.6875-12.25 0-18.719 9.6875-6.4688 9.7031-6.4688 28.109 0 18.453 6.4688 28.141 6.4688 9.7031 18.719 9.7031z"/>
<path id="ac" d="m31.781 34.625q-7.0312 0-11.062-3.7656-4.0156-3.7656-4.0156-10.344 0-6.5938 4.0156-10.359 4.0312-3.7656 11.062-3.7656t11.078 3.7812q4.0625 3.7969 4.0625 10.344 0 6.5781-4.0312 10.344-4.0156 3.7656-11.109 3.7656zm-9.8594 4.1875q-6.3438 1.5625-9.8906 5.9062-3.5312 4.3594-3.5312 10.609 0 8.7344 6.2188 13.812 6.2344 5.0781 17.062 5.0781 10.891 0 17.094-5.0781t6.2031-13.812q0-6.25-3.5469-10.609-3.5312-4.3438-9.8281-5.9062 7.125-1.6562 11.094-6.5 3.9844-4.8281 3.9844-11.797 0-10.609-6.4688-16.281-6.4688-5.6562-18.531-5.6562-12.047 0-18.531 5.6562-6.4688 5.6719-6.4688 16.281 0 6.9688 4 11.797 4.0156 4.8438 11.141 6.5zm-3.6094 15.578q0-5.6562 3.5312-8.8281 3.5469-3.1719 9.9375-3.1719 6.3594 0 9.9375 3.1719 3.5938 3.1719 3.5938 8.8281 0 5.6719-3.5938 8.8438-3.5781 3.1719-9.9375 3.1719-6.3906 0-9.9375-3.1719-3.5312-3.1719-3.5312-8.8438z"/>
</defs>
<g transform="translate(565.39 790.45) scale(.1 -.1)">
<use xlink:href="#m"/>
<use x="63.623047" xlink:href="#x"/>
<use x="127.246094" xlink:href="#x"/>
<use x="190.869141" xlink:href="#ac"/>
</g>
</g>
<g clip-path="url(#a)">
<g transform="translate(615.31 790.45) scale(.1 -.1)">
<use xlink:href="#q"/>
<use x="52.099609" xlink:href="#r"/>
<use x="115.478516" xlink:href="#c"/>
</g>
</g>
<g clip-path="url(#a)">
<g transform="translate(639.98 790.45) scale(.1 -.1)">
<use xlink:href="#v"/>
<use x="63.476562" xlink:href="#e"/>
<use x="124.755859" xlink:href="#f"/>
<use x="165.869141" xlink:href="#o"/>
<use x="205.078125" xlink:href="#i"/>
<use x="232.861328" xlink:href="#p"/>
<use x="287.841797" xlink:href="#i"/>
<use x="315.625" xlink:href="#v"/>
<use x="379.101562" xlink:href="#e"/>
<use x="440.380859" xlink:href="#o"/>
<use x="479.589844" xlink:href="#c"/>
<use x="541.113281" xlink:href="#ag"/>
</g>
</g>
<g clip-path="url(#a)">
<g transform="translate(711.7 790.45) scale(.1 -.1)">
<use xlink:href="#i"/>
<use x="27.783203" xlink:href="#g"/>
</g>
</g>
<g clip-path="url(#a)">
<g transform="translate(754.1 790.45) scale(.1 -.1)">
<use xlink:href="#o"/>
<use x="39.208984" xlink:href="#r"/>
<use x="102.587891" xlink:href="#c"/>
</g>
</g>
<g clip-path="url(#a)">
<g transform="translate(793.82 790.45) scale(.1 -.1)">
<use xlink:href="#ah"/>
<use x="63.476562" xlink:href="#o"/>
<use x="102.685547" xlink:href="#e"/>
<use x="163.964844" xlink:href="#g"/>
<use x="227.34375" xlink:href="#ag"/>
</g>
</g>
<g clip-path="url(#a)">
<g transform="translate(847.57 790.45) scale(.1 -.1)">
<use xlink:href="#z"/>
<use x="73.193359" xlink:href="#v"/>
</g>
</g>
<g clip-path="url(#a)">
<g transform="translate(895.44 790.45) scale(.1 -.1)">
<use xlink:href="#o"/>
<use x="39.208984" xlink:href="#y"/>
</g>
</g>
<g clip-path="url(#a)">
<g transform="translate(928.9 790.45) scale(.1 -.1)">
<use xlink:href="#t"/>
<use x="69.824219" xlink:href="#e"/>
<use x="131.103516" xlink:href="#g"/>
<use x="194.482422" xlink:href="#p"/>
<use x="249.462891" xlink:href="#c"/>
<use x="310.986328" xlink:href="#f"/>
</g>
</g>
<g clip-path="url(#a)">
<g transform="translate(971.69 790.45) scale(.1 -.1)">
<use xlink:href="#o"/>
<use x="39.208984" xlink:href="#c"/>
<use x="100.732422" xlink:href="#j"/>
<use x="128.515625" xlink:href="#c"/>
<use x="190.039062" xlink:href="#o"/>
<use x="229.248047" xlink:href="#r"/>
<use x="292.626953" xlink:href="#y"/>
<use x="353.808594" xlink:href="#g"/>
</g>
</g>
<g clip-path="url(#a)">
<defs>
<path id="as" d="m11.719 12.406h10.297v-8.4062l-8-15.625h-6.2969l4 15.625z"/>
</defs>
<g transform="translate(1037 790.45) scale(.1 -.1)">
<use xlink:href="#as"/>
</g>
</g>
<g clip-path="url(#a)">
<g transform="translate(1079.6 790.45) scale(.1 -.1)">
<use xlink:href="#o"/>
<use x="39.208984" xlink:href="#y"/>
</g>
</g>
<g clip-path="url(#a)">
<g transform="translate(1119.9 790.45) scale(.1 -.1)">
<use xlink:href="#r"/>
<use x="63.378906" xlink:href="#c"/>
<use x="124.902344" xlink:href="#j"/>
<use x="152.685547" xlink:href="#v"/>
</g>
</g>
<g clip-path="url(#a)">
<g transform="translate(1164.6 790.45) scale(.1 -.1)">
<use xlink:href="#f"/>
<use x="41.113281" xlink:href="#e"/>
<use x="102.392578" xlink:href="#i"/>
<use x="130.175781" xlink:href="#q"/>
<use x="182.275391" xlink:href="#c"/>
</g>
</g>
<g clip-path="url(#a)">
<defs>
<path id="au" d="m37.109 75.984v-7.4844h-8.5938q-4.8281 0-6.7188-1.9531-1.875-1.9531-1.875-7.0312v-4.8281h14.797v-6.9844h-14.797v-47.703h-9.0312v47.703h-8.5938v6.9844h8.5938v3.8125q0 9.125 4.25 13.297 4.25 4.1875 13.469 4.1875z"/>
<path id="at" d="m8.5 21.578v33.109h8.9844v-32.766q0-7.7656 3.0156-11.656 3.0312-3.875 9.0938-3.875 7.2656 0 11.484 4.6406 4.2344 4.6406 4.2344 12.656v31h8.9844v-54.688h-8.9844v8.4062q-3.2656-4.9844-7.5938-7.4062-4.3125-2.4219-10.031-2.4219-9.4219 0-14.312 5.8594-4.875 5.8594-4.875 17.141z"/>
</defs>
<g transform="translate(1208.9 790.45) scale(.1 -.1)">
<use xlink:href="#au"/>
<use x="35.205078" xlink:href="#at"/>
<use x="98.583984" xlink:href="#g"/>
<use x="161.962891" xlink:href="#ag"/>
<use x="225.439453" xlink:href="#q"/>
</g>
</g>
<g clip-path="url(#a)">
<g transform="translate(1263.8 790.45) scale(.1 -.1)">
<use xlink:href="#o"/>
<use x="39.208984" xlink:href="#y"/>
</g>
</g>
<g clip-path="url(#a)">
<g transform="translate(1288.6 790.45) scale(.1 -.1)">
<use xlink:href="#e"/>
<use x="61.279297" xlink:href="#p"/>
<use x="116.259766" xlink:href="#p"/>
<use x="171.240234" xlink:href="#c"/>
<use x="232.763672" xlink:href="#j"/>
<use x="260.546875" xlink:href="#c"/>
<use x="322.070312" xlink:href="#f"/>
<use x="363.183594" xlink:href="#e"/>
<use x="424.462891" xlink:href="#o"/>
<use x="463.671875" xlink:href="#c"/>
</g>
</g>
<g clip-path="url(#a)">
<g transform="translate(1344.1 790.45) scale(.1 -.1)">
<use xlink:href="#p"/>
<use x="54.980469" xlink:href="#e"/>
<use x="116.259766" xlink:href="#g"/>
<use x="179.638672" xlink:href="#p"/>
<use x="234.619141" xlink:href="#c"/>
<use x="296.142578" xlink:href="#f"/>
</g>
</g>
<g clip-path="url(#a)">
<g transform="translate(1385.1 790.45) scale(.1 -.1)">
<use xlink:href="#f"/>
<use x="41.082031" xlink:href="#c"/>
<use x="102.605469" xlink:href="#q"/>
<use x="154.705078" xlink:href="#c"/>
<use x="216.228516" xlink:href="#e"/>
<use x="277.507812" xlink:href="#f"/>
<use x="318.589844" xlink:href="#p"/>
<use x="373.570312" xlink:href="#r"/>
</g>
</g>
<g clip-path="url(#a)">
<defs>
<path id="h" d="m10.688 12.406h10.312v-12.406h-10.312z"/>
</defs>
<g transform="translate(1451.5 790.45) scale(.1 -.1)">
<use xlink:href="#h"/>
</g>
</g>
<g clip-path="url(#a)">
<defs>
<path id="d" d="m12.406 8.2969h16.109v55.625l-17.531-3.5156v8.9844l17.438 3.5156h9.8594v-64.609h16.109v-8.2969h-41.984z"/>
</defs>
<g transform="translate(885.25 41.73) scale(.1 -.1)">
<use xlink:href="#d"/>
<use x="63.623047" xlink:href="#h"/>
<use x="95.410156" xlink:href="#d"/>
</g>
</g>
<g clip-path="url(#a)">
<g transform="translate(194.1 232.91) scale(.1 -.1)">
<use xlink:href="#d"/>
<use x="63.623047" xlink:href="#h"/>
<use x="95.410156" xlink:href="#m"/>
</g>
</g>
<g clip-path="url(#a)">
<defs>
<path id="n" d="m40.578 39.312q7.0781-1.5156 11.047-6.3125 3.9844-4.7812 3.9844-11.812 0-10.781-7.4219-16.703-7.4219-5.9062-21.094-5.9062-4.5781 0-9.4375 0.90625t-10.031 2.7188v9.5156q4.0938-2.3906 8.9688-3.6094 4.8906-1.2188 10.219-1.2188 9.2656 0 14.125 3.6562t4.8594 10.641q0 6.4531-4.5156 10.078-4.5156 3.6406-12.562 3.6406h-8.5v8.1094h8.8906q7.2656 0 11.125 2.9062t3.8594 8.375q0 5.6094-3.9844 8.6094-3.9688 3.0156-11.391 3.0156-4.0625 0-8.7031-0.89062-4.6406-0.875-10.203-2.7188v8.7812q5.625 1.5625 10.531 2.3438t9.25 0.78125q11.234 0 17.766-5.1094 6.5469-5.0938 6.5469-13.781 0-6.0625-3.4688-10.234t-9.8594-5.7812z"/>
</defs>
<g transform="translate(657.94 232.91) scale(.1 -.1)">
<use xlink:href="#d"/>
<use x="63.623047" xlink:href="#h"/>
<use x="95.410156" xlink:href="#n"/>
</g>
</g>
<g clip-path="url(#a)">
<defs>
<path id="u" d="m37.797 64.312-24.906-38.922h24.906zm-2.5938 8.5938h12.406v-47.516h10.406v-8.2031h-10.406v-17.188h-9.8125v17.188h-32.906v9.5156z"/>
</defs>
<g transform="translate(1076.7 605.46) scale(.1 -.1)">
<use xlink:href="#d"/>
<use x="63.623047" xlink:href="#h"/>
<use x="95.410156" xlink:href="#u"/>
</g>
</g>
<g clip-path="url(#a)">
<defs>
<path id="af" d="m10.797 72.906h38.719v-8.3125h-29.688v-17.859q2.1406 0.73438 4.2812 1.0938 2.1562 0.35938 4.3125 0.35938 12.203 0 19.328-6.6875 7.1406-6.6875 7.1406-18.109 0-11.766-7.3281-18.297-7.3281-6.5156-20.656-6.5156-4.5938 0-9.3594 0.78125-4.75 0.78125-9.8281 2.3438v9.9219q4.3906-2.3906 9.0781-3.5625t9.9062-1.1719q8.4531 0 13.375 4.4375 4.9375 4.4375 4.9375 12.062 0 7.6094-4.9375 12.047-4.9219 4.4531-13.375 4.4531-3.9531 0-7.8906-0.875-3.9219-0.875-8.0156-2.7344z"/>
</defs>
<g transform="translate(1030.7 420.47) scale(.1 -.1)">
<use xlink:href="#d"/>
<use x="63.623047" xlink:href="#h"/>
<use x="95.410156" xlink:href="#af"/>
</g>
</g>
<g clip-path="url(#a)">
<defs>
<path id="ae" d="m33.016 40.375q-6.6406 0-10.531-4.5469-3.875-4.5312-3.875-12.438 0-7.8594 3.875-12.438 3.8906-4.5625 10.531-4.5625t10.516 4.5625q3.875 4.5781 3.875 12.438 0 7.9062-3.875 12.438-3.875 4.5469-10.516 4.5469zm19.578 30.922v-8.9844q-3.7188 1.75-7.5 2.6719-3.7812 0.9375-7.5 0.9375-9.7656 0-14.922-6.5938-5.1406-6.5938-5.875-19.922 2.875 4.25 7.2188 6.5156 4.3594 2.2656 9.5781 2.2656 10.984 0 17.359-6.6719 6.375-6.6562 6.375-18.125 0-11.234-6.6406-18.031-6.6406-6.7812-17.672-6.7812-12.656 0-19.344 9.6875-6.6875 9.7031-6.6875 28.109 0 17.281 8.2031 27.562t22.016 10.281q3.7188 0 7.5-0.73438t7.8906-2.1875z"/>
</defs>
<g transform="translate(1260.9 605.46) scale(.1 -.1)">
<use xlink:href="#d"/>
<use x="63.623047" xlink:href="#h"/>
<use x="95.410156" xlink:href="#ae"/>
</g>
</g>
<g clip-path="url(#a)">
<defs>
<path id="ad" d="m8.2031 72.906h46.875v-4.2031l-26.469-68.703h-10.297l24.906 64.594h-35.016z"/>
</defs>
<g transform="translate(1399 420.47) scale(.1 -.1)">
<use xlink:href="#d"/>
<use x="63.623047" xlink:href="#h"/>
<use x="95.410156" xlink:href="#ad"/>
</g>
</g>
<g clip-path="url(#a)">
<defs>
<path id="ak" d="m9.8125 72.906h9.8594v-72.906h-9.8594z"/>
<path id="aq" d="m9.8125 72.906h14.703l18.594-49.609 18.703 49.609h14.703v-72.906h-9.625v64.016l-18.797-50h-9.9062l-18.797 50v-64.016h-9.5781z"/>
</defs>
<g transform="translate(1478 790.45) scale(.1 -.1)">
<use xlink:href="#ak"/>
<use x="29.492188" xlink:href="#aq"/>
<use x="115.771484" xlink:href="#w"/>
<use x="176.074219" xlink:href="#aj"/>
<use x="231.787109" xlink:href="#ak"/>
<use x="261.279297" xlink:href="#t"/>
<use x="331.103516" xlink:href="#ak"/>
<use x="360.595703" xlink:href="#k"/>
</g>
</g>
<g clip-path="url(#a)">
<g transform="translate(1303.8 605.46) scale(.1 -.1)">
<use xlink:href="#d"/>
<use x="63.623047" xlink:href="#h"/>
<use x="95.410156" xlink:href="#d"/>
<use x="159.033203" xlink:href="#m"/>
</g>
</g>
<g clip-path="url(#a)">
<g transform="translate(1349.8 605.46) scale(.1 -.1)">
<use xlink:href="#d"/>
<use x="63.623047" xlink:href="#h"/>
<use x="95.410156" xlink:href="#d"/>
<use x="159.033203" xlink:href="#n"/>
</g>
</g>
<g clip-path="url(#a)">
<g transform="translate(1395.9 605.46) scale(.1 -.1)">
<use xlink:href="#d"/>
<use x="63.623047" xlink:href="#h"/>
<use x="95.410156" xlink:href="#d"/>
<use x="159.033203" xlink:href="#u"/>
</g>
</g>
<g clip-path="url(#a)">
<g transform="translate(1119.6 605.46) scale(.1 -.1)">
<use xlink:href="#d"/>
<use x="63.623047" xlink:href="#h"/>
<use x="95.410156" xlink:href="#d"/>
<use x="159.033203" xlink:href="#af"/>
</g>
</g>
<g clip-path="url(#a)">
<g transform="translate(1165.6 605.46) scale(.1 -.1)">
<use xlink:href="#d"/>
<use x="63.623047" xlink:href="#h"/>
<use x="95.410156" xlink:href="#d"/>
<use x="159.033203" xlink:href="#ae"/>
</g>
</g>
<g clip-path="url(#a)">
<g transform="translate(1211.7 605.46) scale(.1 -.1)">
<use xlink:href="#d"/>
<use x="63.623047" xlink:href="#h"/>
<use x="95.410156" xlink:href="#d"/>
<use x="159.033203" xlink:href="#ad"/>
</g>
</g>
<g clip-path="url(#a)">
<g transform="translate(520.93 420.47) scale(.1 -.1)">
<use xlink:href="#d"/>
<use x="63.623047" xlink:href="#h"/>
<use x="95.410156" xlink:href="#d"/>
<use x="159.033203" xlink:href="#ac"/>
</g>
</g>
<g clip-path="url(#a)">
<defs>
<path id="al" d="m10.984 1.5156v8.9844q3.7188-1.7656 7.5156-2.6875 3.8125-0.92188 7.4844-0.92188 9.7656 0 14.906 6.5625 5.1562 6.5625 5.8906 19.953-2.8281-4.2031-7.1875-6.4531-4.3438-2.25-9.6094-2.25-10.938 0-17.312 6.6094-6.375 6.625-6.375 18.109 0 11.219 6.6406 18 6.6406 6.7969 17.672 6.7969 12.656 0 19.312-9.7031 6.6719-9.6875 6.6719-28.141 0-17.234-8.1875-27.516-8.1719-10.281-21.984-10.281-3.7188 0-7.5312 0.73438-3.7969 0.73438-7.9062 2.2031zm19.625 30.906q6.6406 0 10.516 4.5312 3.8906 4.5469 3.8906 12.469 0 7.8594-3.8906 12.422-3.875 4.5625-10.516 4.5625t-10.516-4.5625-3.875-12.422q0-7.9219 3.875-12.469 3.875-4.5312 10.516-4.5312z"/>
</defs>
<g transform="translate(613.03 605.46) scale(.1 -.1)">
<use xlink:href="#d"/>
<use x="63.623047" xlink:href="#h"/>
<use x="95.410156" xlink:href="#d"/>
<use x="159.033203" xlink:href="#al"/>
</g>
</g>
<g clip-path="url(#a)">
<g transform="translate(659.08 605.46) scale(.1 -.1)">
<use xlink:href="#d"/>
<use x="63.623047" xlink:href="#h"/>
<use x="95.410156" xlink:href="#m"/>
<use x="159.033203" xlink:href="#x"/>
</g>
</g>
<g clip-path="url(#a)">
<g transform="translate(826.01 420.47) scale(.1 -.1)">
<use xlink:href="#d"/>
<use x="63.623047" xlink:href="#h"/>
<use x="95.410156" xlink:href="#m"/>
<use x="159.033203" xlink:href="#d"/>
</g>
</g>
<g clip-path="url(#a)">
<g transform="translate(705.13 605.46) scale(.1 -.1)">
<use xlink:href="#d"/>
<use x="63.623047" xlink:href="#h"/>
<use x="95.410156" xlink:href="#m"/>
<use x="159.033203" xlink:href="#m"/>
</g>
</g>
<g clip-path="url(#a)">
<g transform="translate(751.18 605.46) scale(.1 -.1)">
<use xlink:href="#d"/>
<use x="63.623047" xlink:href="#h"/>
<use x="95.410156" xlink:href="#m"/>
<use x="159.033203" xlink:href="#n"/>
</g>
</g>
<g clip-path="url(#a)">
<g transform="translate(866.3 605.46) scale(.1 -.1)">
<use xlink:href="#d"/>
<use x="63.623047" xlink:href="#h"/>
<use x="95.410156" xlink:href="#m"/>
<use x="159.033203" xlink:href="#u"/>
</g>
</g>
<g clip-path="url(#a)">
<g transform="translate(981.42 605.46) scale(.1 -.1)">
<use xlink:href="#d"/>
<use x="63.623047" xlink:href="#h"/>
<use x="95.410156" xlink:href="#m"/>
<use x="159.033203" xlink:href="#af"/>
</g>
</g>
<g clip-path="url(#a)">
<g transform="translate(474.88 605.46) scale(.1 -.1)">
<use xlink:href="#d"/>
<use x="63.623047" xlink:href="#h"/>
<use x="95.410156" xlink:href="#m"/>
<use x="159.033203" xlink:href="#ae"/>
</g>
</g>
<g clip-path="url(#a)">
<g transform="translate(520.93 605.46) scale(.1 -.1)">
<use xlink:href="#d"/>
<use x="63.623047" xlink:href="#h"/>
<use x="95.410156" xlink:href="#m"/>
<use x="159.033203" xlink:href="#ad"/>
</g>
</g>
<g clip-path="url(#a)">
<g transform="translate(566.98 605.46) scale(.1 -.1)">
<use xlink:href="#d"/>
<use x="63.623047" xlink:href="#h"/>
<use x="95.410156" xlink:href="#m"/>
<use x="159.033203" xlink:href="#ac"/>
</g>
</g>
<g clip-path="url(#a)">
<g transform="translate(60.444 605.46) scale(.1 -.1)">
<use xlink:href="#d"/>
<use x="63.623047" xlink:href="#h"/>
<use x="95.410156" xlink:href="#m"/>
<use x="159.033203" xlink:href="#al"/>
</g>
</g>
<g clip-path="url(#a)">
<g transform="translate(106.49 605.46) scale(.1 -.1)">
<use xlink:href="#d"/>
<use x="63.623047" xlink:href="#h"/>
<use x="95.410156" xlink:href="#n"/>
<use x="159.033203" xlink:href="#x"/>
</g>
</g>
<g clip-path="url(#a)">
<g transform="translate(152.54 605.46) scale(.1 -.1)">
<use xlink:href="#d"/>
<use x="63.623047" xlink:href="#h"/>
<use x="95.410156" xlink:href="#n"/>
<use x="159.033203" xlink:href="#d"/>
</g>
</g>
<g clip-path="url(#a)">
<g transform="translate(198.59 605.46) scale(.1 -.1)">
<use xlink:href="#d"/>
<use x="63.623047" xlink:href="#h"/>
<use x="95.410156" xlink:href="#n"/>
<use x="159.033203" xlink:href="#m"/>
</g>
</g>
<g clip-path="url(#a)">
<g transform="translate(313.71 420.47) scale(.1 -.1)">
<use xlink:href="#d"/>
<use x="63.623047" xlink:href="#h"/>
<use x="95.410156" xlink:href="#n"/>
<use x="159.033203" xlink:href="#n"/>
</g>
</g>
<g clip-path="url(#a)">
<g transform="translate(313.71 420.47) scale(.1 -.1)">
<use xlink:href="#d"/>
<use x="63.623047" xlink:href="#h"/>
<use x="95.410156" xlink:href="#n"/>
<use x="159.033203" xlink:href="#u"/>
</g>
</g>
<g clip-path="url(#a)">
<g transform="translate(290.69 605.46) scale(.1 -.1)">
<use xlink:href="#d"/>
<use x="63.623047" xlink:href="#h"/>
<use x="95.410156" xlink:href="#n"/>
<use x="159.033203" xlink:href="#af"/>
</g>
</g>
<g clip-path="url(#a)">
<g transform="translate(336.74 605.46) scale(.1 -.1)">
<use xlink:href="#d"/>
<use x="63.623047" xlink:href="#h"/>
<use x="95.410156" xlink:href="#n"/>
<use x="159.033203" xlink:href="#ae"/>
</g>
</g>
<g clip-path="url(#a)">
<g transform="translate(244.64 605.46) scale(.1 -.1)">
<use xlink:href="#d"/>
<use x="63.623047" xlink:href="#h"/>
<use x="95.410156" xlink:href="#n"/>
<use x="159.033203" xlink:href="#ad"/>
</g>
</g>
<g clip-path="url(#a)">
<g transform="translate(382.79 605.46) scale(.1 -.1)">
<use xlink:href="#d"/>
<use x="63.623047" xlink:href="#h"/>
<use x="95.410156" xlink:href="#n"/>
<use x="159.033203" xlink:href="#ac"/>
</g>
</g>
<g clip-path="url(#a)">
<g transform="translate(428.83 605.46) scale(.1 -.1)">
<use xlink:href="#d"/>
<use x="63.623047" xlink:href="#h"/>
<use x="95.410156" xlink:href="#n"/>
<use x="159.033203" xlink:href="#al"/>
</g>
</g>
<g clip-path="url(#a)">
<g transform="translate(1027.5 605.46) scale(.1 -.1)">
<use xlink:href="#d"/>
<use x="63.623047" xlink:href="#h"/>
<use x="95.410156" xlink:href="#u"/>
<use x="159.033203" xlink:href="#x"/>
</g>
</g>
<g clip-path="url(#a)">
<g transform="translate(1441.9 605.46) scale(.1 -.1)">
<use xlink:href="#d"/>
<use x="63.623047" xlink:href="#h"/>
<use x="95.410156" xlink:href="#u"/>
<use x="159.033203" xlink:href="#d"/>
</g>
</g>
<defs>
<clipPath id="a">
<rect width="1570.7" height="826.67"/>
</clipPath>
</defs>
</svg>
