<?xml version="1.0" encoding="UTF-8"?>
<!DOCTYPE svg  PUBLIC '-//W3C//DTD SVG 1.1//EN'  'http://www.w3.org/Graphics/SVG/1.1/DTD/svg11.dtd'>
<svg width="1672pt" height="880pt" version="1.1" viewBox="0 0 1672 880" xmlns="http://www.w3.org/2000/svg" xmlns:xlink="http://www.w3.org/1999/xlink">
<defs>
<style type="text/css">*{stroke-linecap:butt;stroke-linejoin:round;}</style>
</defs>
<path d="m0 880h1672v-880h-1672z" fill="#fff"/>
<g fill="none" stroke="#000">
<path d="m479.92 40-346 161.43" clip-path="url(#a)"/>
<path d="m479.92 40 79.715 642.55" clip-path="url(#a)"/>
<path d="m479.92 40 235.19 322.45" clip-path="url(#a)"/>
<path d="m479.92 40 31.095 642.55" clip-path="url(#a)"/>
<path d="m133.92 201.43-57.923 481.13" clip-path="url(#a)"/>
<path d="m133.92 201.43-50.246 481.13" clip-path="url(#a)"/>
<path d="m133.92 201.43-40.011 481.13" clip-path="url(#a)"/>
<path d="m133.92 201.43-6.7446 161.02" clip-path="url(#a)"/>
<path d="m133.92 201.43 154.92 161.02" clip-path="url(#a)"/>
<path d="m559.64 682.55v157.45" clip-path="url(#a)"/>
<path d="m715.11 362.45-104.29 320.11" clip-path="url(#a)"/>
<path d="m715.11 362.45-50.557 320.11" clip-path="url(#a)"/>
<path d="m715.11 362.45 5.7393 320.11" clip-path="url(#a)"/>
<path d="m715.11 362.45 64.595 320.11" clip-path="url(#a)"/>
<path d="m715.11 362.45 174.63 160.47" clip-path="url(#a)"/>
<path d="m715.11 362.45 549 160.47" clip-path="url(#a)"/>
<path d="m715.11 362.45-639.11 320.11" clip-path="url(#a)" stroke-dasharray="3.7,1.6"/>
<path d="m610.81 682.55v157.45" clip-path="url(#a)"/>
<path d="m664.55 682.55v157.45" clip-path="url(#a)"/>
<path d="m720.85 682.55v157.45" clip-path="url(#a)"/>
<path d="m779.7 682.55v157.45" clip-path="url(#a)"/>
<path d="m889.74 522.92-48.62 159.64" clip-path="url(#a)"/>
<path d="m889.74 522.92 48.62 159.64" clip-path="url(#a)"/>
<path d="m1264.1 522.92-223.39 159.64" clip-path="url(#a)"/>
<path d="m1264.1 522.92-151.74 159.64" clip-path="url(#a)"/>
<path d="m1264.1 522.92-77.535 159.64" clip-path="url(#a)"/>
<path d="m1264.1 522.92 120.78 159.64" clip-path="url(#a)"/>
<path d="m1264.1 522.92 331.89 159.64" clip-path="url(#a)"/>
<path d="m1040.7 682.55v157.45" clip-path="url(#a)"/>
<path d="m1112.4 682.55v157.45" clip-path="url(#a)"/>
<path d="m1186.6 682.55v157.45" clip-path="url(#a)"/>
<path d="m1384.9 682.55-121.55 157.45" clip-path="url(#a)"/>
<path d="m1384.9 682.55-42.222 157.45" clip-path="url(#a)"/>
<path d="m1384.9 682.55 39.663 157.45" clip-path="url(#a)"/>
<path d="m1384.9 682.55 124.11 157.45" clip-path="url(#a)"/>
<path d="m841.12 682.55v157.45" clip-path="url(#a)"/>
<path d="m938.36 682.55-33.266 157.45" clip-path="url(#a)"/>
<path d="m938.36 682.55 33.266 157.45" clip-path="url(#a)"/>
<path d="m76 682.55v157.45" clip-path="url(#a)"/>
<path d="m83.677 682.55v157.45" clip-path="url(#a)"/>
<path d="m93.912 682.55v157.45" clip-path="url(#a)"/>
<path d="m127.18 362.45-12.795 160.47" clip-path="url(#a)"/>
<path d="m127.18 362.45 12.795 320.11" clip-path="url(#a)"/>
<path d="m288.85 362.45-128.4 320.11" clip-path="url(#a)"/>
<path d="m288.85 362.45-105.37 320.11" clip-path="url(#a)"/>
<path d="m288.85 362.45-42.039 160.47" clip-path="url(#a)"/>
<path d="m288.85 362.45-18.369 320.11" clip-path="url(#a)"/>
<path d="m288.85 362.45 51.574 320.11" clip-path="url(#a)"/>
<path d="m288.85 362.45 112.56 160.47" clip-path="url(#a)"/>
<path d="m288.85 362.45 130.05 320.11" clip-path="url(#a)"/>
<path d="m160.44 682.55v157.45" clip-path="url(#a)"/>
<path d="m183.47 682.55v157.45" clip-path="url(#a)"/>
<path d="m246.81 522.92 23.67 159.64" clip-path="url(#a)" stroke-dasharray="3.7,1.6"/>
<path d="m246.81 522.92-7.037 159.64" clip-path="url(#a)"/>
<path d="m246.81 522.92-23.67 159.64" clip-path="url(#a)"/>
<path d="m270.48 682.55v157.45" clip-path="url(#a)"/>
<path d="m340.42 682.55-36.678 157.45" clip-path="url(#a)"/>
<path d="m340.42 682.55-0.85297 157.45" clip-path="url(#a)"/>
<path d="m340.42 682.55 37.531 157.45" clip-path="url(#a)"/>
<path d="m401.41 522.92-60.988 159.64" clip-path="url(#a)" stroke-dasharray="3.7,1.6"/>
<path d="m401.41 522.92 63.547 159.64" clip-path="url(#a)"/>
<path d="m401.41 522.92 60.988 159.64" clip-path="url(#a)"/>
<path d="m462.4 682.55v157.45" clip-path="url(#a)"/>
<path d="m223.14 682.55-14.074 157.45" clip-path="url(#a)"/>
<path d="m223.14 682.55 14.074 157.45" clip-path="url(#a)"/>
<path d="m114.38 522.92-7.6768 159.64" clip-path="url(#a)"/>
<path d="m114.38 522.92 7.6768 159.64" clip-path="url(#a)"/>
<path d="m139.97 682.55v157.45" clip-path="url(#a)"/>
<path d="m106.71 682.55v157.45" clip-path="url(#a)"/>
<path d="m122.06 682.55v157.45" clip-path="url(#a)"/>
<path d="m418.9 682.55v157.45" clip-path="url(#a)"/>
<path d="m511.02 682.55v157.45" clip-path="url(#a)"/>
<path d="m1596 682.55v157.45" clip-path="url(#a)"/>
</g>
<path d="m306.85 127.67 5.4521-2.5437q2.1749-1.0147 1.1602-3.1897l-3.2735-7.0164q-1.0147-2.1749-3.1897-1.1602l-5.4521 2.5437q-2.1749 1.0147-1.1602 3.1897l3.2735 7.0164q1.0147 2.1749 3.1897 1.1602z" clip-path="url(#a)" fill="#fff" stroke="#fff"/>
<g clip-path="url(#a)">
<defs>
<path id="ah" d="m9.8125 72.906h9.8594v-29.891h35.844v29.891h9.8594v-72.906h-9.8594v34.719h-35.844v-34.719h-9.8594z"/>
</defs>
<g transform="translate(305.13 123.99) rotate(-25.012) scale(.08 -.08)">
<use xlink:href="#ah"/>
</g>
</g>
<path d="m513.28 359.84 0.54879 4.4236q0.29548 2.3817 2.6772 2.0863l7.6836-0.95322q2.3817-0.29548 2.0863-2.6772l-0.54879-4.4236q-0.29548-2.3817-2.6772-2.0863l-7.6836 0.95322q-2.3817 0.29548-2.0863 2.6772z" clip-path="url(#a)" fill="#fff" stroke="#fff"/>
<g clip-path="url(#a)">
<defs>
<path id="y" d="m9.8125 72.906h9.8594v-64.609h35.5v-8.2969h-45.359z"/>
</defs>
<g transform="translate(517.31 359.34) rotate(82.928) scale(.08 -.08)">
<use xlink:href="#y"/>
</g>
</g>
<path d="m590.68 202.49 3.5453 4.8607q1.4143 1.939 3.3533 0.52472l6.2553-4.5626q1.939-1.4143 0.52472-3.3533l-3.5453-4.8607q-1.4143-1.939-3.3533-0.52472l-6.2553 4.5626q-1.939 1.4143-0.52472 3.3533z" clip-path="url(#a)" fill="#fff" stroke="#fff"/>
<g clip-path="url(#a)">
<g transform="translate(593.96 200.09) rotate(53.893) scale(.08 -.08)">
<use xlink:href="#ah"/>
</g>
</g>
<path d="m489.06 358.66 0.28301 5.8482q0.11601 2.3972 2.5132 2.2812l7.7334-0.37425q2.3972-0.11601 2.2812-2.5132l-0.28301-5.8482q-0.11601-2.3972-2.5132-2.2812l-7.7334 0.37425q-2.3972 0.11601-2.2812 2.5132z" clip-path="url(#a)" fill="#fff" stroke="#fff"/>
<g clip-path="url(#a)">
<defs>
<path id="ag" d="m8.6875 72.906h9.9219v-44.297q0-11.719 4.2344-16.875 4.25-5.1406 13.781-5.1406 9.4688 0 13.719 5.1406 4.25 5.1562 4.25 16.875v44.297h9.9062v-45.516q0-14.25-7.0625-21.531-7.0469-7.2812-20.812-7.2812-13.828 0-20.891 7.2812-7.0469 7.2812-7.0469 21.531z"/>
</defs>
<g transform="translate(493.12 358.46) rotate(87.229) scale(.08 -.08)">
<use xlink:href="#ag"/>
</g>
</g>
<path d="m110.86 445.46 0.65411-5.4333q0.28686-2.3828-2.0959-2.6697l-7.687-0.92544q-2.3828-0.28686-2.6697 2.0959l-0.65411 5.4333q-0.28686 2.3828 2.0959 2.6697l7.687 0.92544q2.3828 0.28686 2.6697-2.0959z" clip-path="url(#a)" fill="#fff" stroke="#fff"/>
<g clip-path="url(#a)">
<defs>
<path id="n" d="m34.188 63.188-13.391-36.281h26.812zm-5.5781 9.7188h11.188l27.781-72.906h-10.25l-6.6406 18.703h-32.859l-6.6406-18.703h-10.406z"/>
</defs>
<g transform="translate(106.83 444.97) rotate(-83.135) scale(.08 -.08)">
<use xlink:href="#n"/>
</g>
</g>
<path d="m114.8 444.93 0.47793-4.5764q0.24929-2.387-2.1377-2.6363l-7.7006-0.80421q-2.387-0.24929-2.6363 2.1377l-0.47793 4.5764q-0.24929 2.387 2.1377 2.6363l7.7006 0.80421q2.387 0.24929 2.6363-2.1377z" clip-path="url(#a)" fill="#fff" stroke="#fff"/>
<g clip-path="url(#a)">
<defs>
<path id="v" d="m9.8125 72.906h41.891v-8.3125h-32.031v-21.484h28.906v-8.2969h-28.906v-34.812h-9.8594z"/>
</defs>
<g transform="translate(110.76 444.51) rotate(-84.038) scale(.08 -.08)">
<use xlink:href="#v"/>
</g>
</g>
<path d="m119.97 444.91 0.39976-4.8072q0.1989-2.3917-2.1928-2.5906l-7.7159-0.64165q-2.3917-0.1989-2.5906 2.1928l-0.39976 4.8072q-0.1989 2.3917 2.1928 2.5906l7.7159 0.64165q2.3917 0.1989 2.5906-2.1928z" clip-path="url(#a)" fill="#fff" stroke="#fff"/>
<g clip-path="url(#a)">
<defs>
<path id="t" d="m19.672 64.797v-27.391h12.406q6.8906 0 10.641 3.5625 3.7656 3.5625 3.7656 10.156 0 6.5469-3.7656 10.109-3.75 3.5625-10.641 3.5625zm-9.8594 8.1094h22.266q12.266 0 18.531-5.5469 6.2812-5.5469 6.2812-16.234 0-10.797-6.2812-16.312-6.2656-5.5156-18.531-5.5156h-12.406v-29.297h-9.8594z"/>
</defs>
<g transform="translate(115.92 444.58) rotate(-85.246) scale(.08 -.08)">
<use xlink:href="#t"/>
</g>
</g>
<path d="m136.7 284.93 0.22902-5.4677q0.10044-2.3979-2.2975-2.4983l-7.7357-0.32402q-2.3979-0.10044-2.4983 2.2975l-0.22902 5.4677q-0.10044 2.3979 2.2975 2.4983l7.7357 0.32402q2.3979 0.10044 2.4983-2.2975z" clip-path="url(#a)" fill="#fff" stroke="#fff"/>
<g clip-path="url(#a)">
<g transform="translate(132.64 284.76) rotate(-87.601) scale(.08 -.08)">
<use xlink:href="#n"/>
</g>
</g>
<path d="m204.97 284.31 3.7943 3.9436q1.664 1.7295 3.3935 0.065462l5.5793-5.3682q1.7295-1.664 0.065462-3.3935l-3.7943-3.9436q-1.664-1.7295-3.3935-0.065462l-5.5793 5.3682q-1.7295 1.664-0.065462 3.3935z" clip-path="url(#a)" fill="#fff" stroke="#fff"/>
<g clip-path="url(#a)">
<g transform="translate(207.9 281.49) rotate(46.105) scale(.08 -.08)">
<use xlink:href="#n"/>
</g>
</g>
<path d="m553.37 744.37v33.808q0 2.4 2.4 2.4h7.7425q2.4 0 2.4-2.4v-33.808q0-2.4-2.4-2.4h-7.7425q-2.4 0-2.4 2.4z" clip-path="url(#a)" fill="#fff" stroke="#fff"/>
<g clip-path="url(#a)">
<defs>
<path id="l" d="m-0.29688 72.906h61.672v-8.3125h-25.875v-64.594h-9.9062v64.594h-25.891z"/>
<path id="d" d="m56.203 29.594v-4.3906h-41.312q0.59375-9.2812 5.5938-14.141t13.938-4.8594q5.1719 0 10.031 1.2656t9.6562 3.8125v-8.5q-4.8438-2.0469-9.9219-3.125t-10.297-1.0781q-13.094 0-20.734 7.6094-7.6406 7.625-7.6406 20.625 0 13.422 7.25 21.297 7.25 7.8906 19.562 7.8906 11.031 0 17.453-7.1094 6.4219-7.0938 6.4219-19.297zm-8.9844 2.6406q-0.09375 7.3594-4.125 11.75-4.0312 4.4062-10.672 4.4062-7.5156 0-12.031-4.25t-5.2031-11.969z"/>
<path id="h" d="m41.109 46.297q-1.5156 0.875-3.2969 1.2812-1.7812 0.42188-3.9219 0.42188-7.625 0-11.703-4.9531t-4.0781-14.234v-28.812h-9.0312v54.688h9.0312v-8.5q2.8438 4.9844 7.375 7.3906 4.5469 2.4219 11.047 2.4219 0.92188 0 2.0469-0.125 1.125-0.10938 2.4844-0.35938z"/>
<path id="i" d="m52 44.188q3.375 6.0625 8.0625 8.9375t11.031 2.875q8.5469 0 13.188-5.9844 4.6406-5.9688 4.6406-17v-33.016h-9.0312v32.719q0 7.8594-2.7969 11.656-2.7812 3.8125-8.4844 3.8125-6.9844 0-11.047-4.6406-4.0469-4.625-4.0469-12.641v-30.906h-9.0312v32.719q0 7.9062-2.7812 11.688t-8.5938 3.7812q-6.8906 0-10.953-4.6562-4.0469-4.6562-4.0469-12.625v-30.906h-9.0312v54.688h9.0312v-8.5q3.0781 5.0312 7.375 7.4219t10.203 2.3906q5.9688 0 10.141-3.0312 4.1719-3.0156 6.1719-8.7812z"/>
<path id="g" d="m9.4219 54.688h8.9844v-54.688h-8.9844zm0 21.297h8.9844v-11.391h-8.9844z"/>
<path id="e" d="m54.891 33.016v-33.016h-8.9844v32.719q0 7.7656-3.0312 11.609-3.0312 3.8594-9.0781 3.8594-7.2812 0-11.484-4.6406-4.2031-4.625-4.2031-12.641v-30.906h-9.0312v54.688h9.0312v-8.5q3.2344 4.9375 7.5938 7.375 4.375 2.4375 10.094 2.4375 9.4219 0 14.25-5.8281 4.8438-5.8281 4.8438-17.156z"/>
<path id="f" d="m34.281 27.484q-10.891 0-15.094-2.4844t-4.2031-8.5q0-4.7812 3.1562-7.5938 3.1562-2.7969 8.5625-2.7969 7.4844 0 12 5.2969t4.5156 14.078v2zm17.922 3.7188v-31.203h-8.9844v8.2969q-3.0781-4.9688-7.6719-7.3438t-11.234-2.375q-8.3906 0-13.359 4.7188-4.9531 4.7188-4.9531 12.625 0 9.2188 6.1719 13.906 6.1875 4.6875 18.438 4.6875h12.609v0.89062q0 6.2031-4.0781 9.5938t-11.453 3.3906q-4.6875 0-9.1406-1.125-4.4375-1.125-8.5312-3.375v8.3125q4.9219 1.9062 9.5625 2.8438 4.6406 0.95312 9.0312 0.95312 11.875 0 17.734-6.1562 5.8594-6.1406 5.8594-18.641z"/>
<path id="k" d="m9.4219 75.984h8.9844v-75.984h-8.9844z"/>
</defs>
<g transform="translate(557.43 744.37) rotate(90) scale(.08 -.08)">
<use xlink:href="#l"/>
<use x="44.083984" xlink:href="#d"/>
<use x="105.607422" xlink:href="#h"/>
<use x="144.970703" xlink:href="#i"/>
<use x="242.382812" xlink:href="#g"/>
<use x="270.166016" xlink:href="#e"/>
<use x="333.544922" xlink:href="#f"/>
<use x="394.824219" xlink:href="#k"/>
</g>
</g>
<path d="m667.97 527.37 1.9083-5.857q0.74348-2.2819-1.5385-3.0254l-7.3616-2.3985q-2.2819-0.74348-3.0254 1.5385l-1.9083 5.857q-0.74348 2.2819 1.5385 3.0254l7.3616 2.3985q2.2819 0.74348 3.0254-1.5385z" clip-path="url(#a)" fill="#fff" stroke="#fff"/>
<g clip-path="url(#a)">
<defs>
<path id="an" d="m19.672 64.797v-56.688h11.922q15.094 0 22.094 6.8281 7 6.8438 7 21.594 0 14.641-7 21.453t-22.094 6.8125zm-9.8594 8.1094h20.266q21.188 0 31.094-8.8125 9.9219-8.8125 9.9219-27.562 0-18.859-9.9688-27.703-9.9531-8.8281-31.047-8.8281h-20.266z"/>
</defs>
<g transform="translate(664.11 526.11) rotate(-71.954) scale(.08 -.08)">
<use xlink:href="#an"/>
</g>
</g>
<path d="m695.67 525.75 0.71781-4.5449q0.37441-2.3706-1.9962-2.745l-7.6477-1.2079q-2.3706-0.37441-2.745 1.9962l-0.71781 4.5449q-0.37441 2.3706 1.9962 2.745l7.6477 1.2079q2.3706 0.37441 2.745-1.9962z" clip-path="url(#a)" fill="#fff" stroke="#fff"/>
<g clip-path="url(#a)">
<g transform="translate(691.65 525.12) rotate(-81.025) scale(.08 -.08)">
<use xlink:href="#v"/>
</g>
</g>
<path d="m711.67 520.2 0.086472 4.823q0.043023 2.3996 2.4426 2.3566l7.7413-0.13879q2.3996-0.043024 2.3566-2.4426l-0.086472-4.823q-0.043023-2.3996-2.4426-2.3566l-7.7413 0.1388q-2.3996 0.043023-2.3566 2.4426z" clip-path="url(#a)" fill="#fff" stroke="#fff"/>
<g clip-path="url(#a)">
<g transform="translate(715.73 520.13) rotate(88.973) scale(.08 -.08)">
<use xlink:href="#t"/>
</g>
</g>
<path d="m740.72 521.06 1.0825 5.3644q0.47472 2.3526 2.8273 1.8779l7.5895-1.5315q2.3526-0.47473 1.8779-2.8273l-1.0825-5.3644q-0.47472-2.3526-2.8273-1.8779l-7.5895 1.5315q-2.3526 0.47472-1.8779 2.8273z" clip-path="url(#a)" fill="#fff" stroke="#fff"/>
<g clip-path="url(#a)">
<g transform="translate(744.7 520.25) rotate(78.592) scale(.08 -.08)">
<use xlink:href="#n"/>
</g>
</g>
<path d="m796.17 445.45 4.0295 3.7029q1.7672 1.6239 3.3911-0.14324l5.2388-5.701q1.6239-1.7672-0.14324-3.3911l-4.0295-3.7029q-1.7672-1.6239-3.3911 0.14324l-5.2388 5.701q-1.6239 1.7672 0.14324 3.3911z" clip-path="url(#a)" fill="#fff" stroke="#fff"/>
<g clip-path="url(#a)">
<g transform="translate(798.91 442.46) rotate(42.581) scale(.08 -.08)">
<use xlink:href="#n"/>
</g>
</g>
<path d="m985.22 447.93 5.2527 1.5354q2.3036 0.67335 2.977-1.6303l2.1722-7.4315q0.67335-2.3036-1.6303-2.977l-5.2527-1.5354q-2.3036-0.67335-2.977 1.6303l-2.1722 7.4315q-0.67335 2.3036 1.6303 2.977z" clip-path="url(#a)" fill="#fff" stroke="#fff"/>
<g clip-path="url(#a)">
<g transform="translate(986.36 444.03) rotate(16.294) scale(.08 -.08)">
<use xlink:href="#n"/>
</g>
</g>
<path d="m395.92 529.33 4.8931-2.4508q2.1459-1.0748 1.0711-3.2207l-3.4674-6.9227q-1.0748-2.1459-3.2207-1.0711l-4.8931 2.4508q-2.1459 1.0748-1.0711 3.2207l3.4674 6.9227q1.0748 2.1459 3.2207 1.0711z" clip-path="url(#a)" fill="#fff" stroke="#fff"/>
<g clip-path="url(#a)">
<g transform="translate(394.1 525.7) rotate(-26.605) scale(.08 -.08)">
<use xlink:href="#n"/>
</g>
</g>
<path d="m604.54 744.37v33.808q0 2.4 2.4 2.4h7.7425q2.4 0 2.4-2.4v-33.808q0-2.4-2.4-2.4h-7.7425q-2.4 0-2.4 2.4z" clip-path="url(#a)" fill="#fff" stroke="#fff"/>
<g clip-path="url(#a)">
<g transform="translate(608.61 744.37) rotate(90) scale(.08 -.08)">
<use xlink:href="#l"/>
<use x="44.083984" xlink:href="#d"/>
<use x="105.607422" xlink:href="#h"/>
<use x="144.970703" xlink:href="#i"/>
<use x="242.382812" xlink:href="#g"/>
<use x="270.166016" xlink:href="#e"/>
<use x="333.544922" xlink:href="#f"/>
<use x="394.824219" xlink:href="#k"/>
</g>
</g>
<path d="m658.28 744.37v33.808q0 2.4 2.4 2.4h7.7425q2.4 0 2.4-2.4v-33.808q0-2.4-2.4-2.4h-7.7425q-2.4 0-2.4 2.4z" clip-path="url(#a)" fill="#fff" stroke="#fff"/>
<g clip-path="url(#a)">
<g transform="translate(662.34 744.37) rotate(90) scale(.08 -.08)">
<use xlink:href="#l"/>
<use x="44.083984" xlink:href="#d"/>
<use x="105.607422" xlink:href="#h"/>
<use x="144.970703" xlink:href="#i"/>
<use x="242.382812" xlink:href="#g"/>
<use x="270.166016" xlink:href="#e"/>
<use x="333.544922" xlink:href="#f"/>
<use x="394.824219" xlink:href="#k"/>
</g>
</g>
<path d="m714.58 744.37v33.808q0 2.4 2.4 2.4h7.7425q2.4 0 2.4-2.4v-33.808q0-2.4-2.4-2.4h-7.7425q-2.4 0-2.4 2.4z" clip-path="url(#a)" fill="#fff" stroke="#fff"/>
<g clip-path="url(#a)">
<g transform="translate(718.64 744.37) rotate(90) scale(.08 -.08)">
<use xlink:href="#l"/>
<use x="44.083984" xlink:href="#d"/>
<use x="105.607422" xlink:href="#h"/>
<use x="144.970703" xlink:href="#i"/>
<use x="242.382812" xlink:href="#g"/>
<use x="270.166016" xlink:href="#e"/>
<use x="333.544922" xlink:href="#f"/>
<use x="394.824219" xlink:href="#k"/>
</g>
</g>
<path d="m773.43 744.37v33.808q0 2.4 2.4 2.4h7.7425q2.4 0 2.4-2.4v-33.808q0-2.4-2.4-2.4h-7.7425q-2.4 0-2.4 2.4z" clip-path="url(#a)" fill="#fff" stroke="#fff"/>
<g clip-path="url(#a)">
<g transform="translate(777.5 744.37) rotate(90) scale(.08 -.08)">
<use xlink:href="#l"/>
<use x="44.083984" xlink:href="#d"/>
<use x="105.607422" xlink:href="#h"/>
<use x="144.970703" xlink:href="#i"/>
<use x="242.382812" xlink:href="#g"/>
<use x="270.166016" xlink:href="#e"/>
<use x="333.544922" xlink:href="#f"/>
<use x="394.824219" xlink:href="#k"/>
</g>
</g>
<path d="m870.62 607.22 1.6196-5.3176q0.69924-2.2959-1.5966-2.9951l-7.4066-2.2558q-2.2959-0.69924-2.9951 1.5966l-1.6196 5.3176q-0.69924 2.2959 1.5966 2.9951l7.4066 2.2558q2.2959 0.69924 2.9951-1.5966z" clip-path="url(#a)" fill="#fff" stroke="#fff"/>
<g clip-path="url(#a)">
<defs>
<path id="ac" d="m44.391 34.188q3.1719-1.0781 6.1719-4.5938t6.0312-9.6719l10.016-19.922h-10.609l-9.3125 18.703q-3.625 7.3281-7.0156 9.7188t-9.25 2.3906h-10.75v-30.812h-9.8594v72.906h22.266q12.5 0 18.656-5.2344 6.1562-5.2188 6.1562-15.766 0-6.8906-3.2031-11.438-3.2031-4.5312-9.2969-6.2812zm-24.719 30.609v-25.875h12.406q7.125 0 10.766 3.2969t3.6406 9.6875-3.6406 9.6406-10.766 3.25z"/>
</defs>
<g transform="translate(866.73 606.04) rotate(-73.061) scale(.08 -.08)">
<use xlink:href="#ac"/>
</g>
</g>
<path d="m907.23 601.89 1.6276 5.3439q0.69924 2.2959 2.9951 1.5966l7.4066-2.2558q2.2959-0.69924 1.5966-2.9951l-1.6276-5.3439q-0.69925-2.2959-2.9951-1.5966l-7.4066 2.2558q-2.2959 0.69925-1.5966 2.9951z" clip-path="url(#a)" fill="#fff" stroke="#fff"/>
<g clip-path="url(#a)">
<defs>
<path id="r" d="m64.406 67.281v-10.391q-4.9844 4.6406-10.625 6.9219-5.6406 2.2969-11.984 2.2969-12.5 0-19.141-7.6406t-6.6406-22.094q0-14.406 6.6406-22.047t19.141-7.6406q6.3438 0 11.984 2.2969t10.625 6.9375v-10.312q-5.1719-3.5156-10.969-5.2812-5.7812-1.75-12.219-1.75-16.562 0-26.094 10.125-9.5156 10.141-9.5156 27.672 0 17.578 9.5156 27.703 9.5312 10.141 26.094 10.141 6.5312 0 12.312-1.7344 5.7969-1.7344 10.875-5.2031z"/>
</defs>
<g transform="translate(911.12 600.71) rotate(73.061) scale(.08 -.08)">
<use xlink:href="#r"/>
</g>
</g>
<path d="m1153.8 609.45 4.5227-3.2319q1.9527-1.3954 0.55731-3.348l-4.5015-6.2994q-1.3954-1.9527-3.348-0.55731l-4.5227 3.2319q-1.9527 1.3954-0.55731 3.348l4.5015 6.2994q1.3954 1.9527 3.348 0.55731z" clip-path="url(#a)" fill="#fff" stroke="#fff"/>
<g clip-path="url(#a)">
<g transform="translate(1151.4 606.15) rotate(-35.549) scale(.08 -.08)">
<use xlink:href="#ac"/>
</g>
</g>
<path d="m1191.2 608.72 3.1701-3.335q1.6535-1.7395-0.085993-3.393l-5.6117-5.3343q-1.7395-1.6535-3.393 0.085993l-3.1701 3.335q-1.6535 1.7395 0.085993 3.393l5.6117 5.3343q1.7395 1.6535 3.393-0.085993z" clip-path="url(#a)" fill="#fff" stroke="#fff"/>
<g clip-path="url(#a)">
<g transform="translate(1188.3 605.92) rotate(-46.452) scale(.08 -.08)">
<use xlink:href="#v"/>
</g>
</g>
<path d="m1229.9 607.75 2.2085-4.547q1.0485-2.1588-1.1103-3.2074l-6.9645-3.3827q-2.1588-1.0485-3.2074 1.1103l-2.2085 4.547q-1.0485 2.1588 1.1103 3.2074l6.9645 3.3827q2.1588 1.0485 3.2074-1.1103z" clip-path="url(#a)" fill="#fff" stroke="#fff"/>
<g clip-path="url(#a)">
<defs>
<path id="ad" d="m9.8125 72.906h46.094v-8.3125h-36.234v-21.578h34.719v-8.2969h-34.719v-26.422h37.109v-8.2969h-46.969z"/>
</defs>
<g transform="translate(1226.2 605.97) rotate(-64.094) scale(.08 -.08)">
<use xlink:href="#ad"/>
</g>
</g>
<path d="m1317.8 604.29 3.3706 4.4548q1.4481 1.9139 3.362 0.46584l6.1744-4.6716q1.9139-1.4481 0.46584-3.362l-3.3706-4.4548q-1.4481-1.9139-3.362-0.46584l-6.1744 4.6716q-1.9139 1.4481-0.46584 3.362z" clip-path="url(#a)" fill="#fff" stroke="#fff"/>
<g clip-path="url(#a)">
<g transform="translate(1321.1 601.84) rotate(52.889) scale(.08 -.08)">
<use xlink:href="#r"/>
</g>
</g>
<path d="m1424.7 607.12 5.2764 2.5379q2.1628 1.0403 3.2031-1.1225l3.356-6.9774q1.0403-2.1628-1.1225-3.2031l-5.2764-2.5379q-2.1628-1.0403-3.2031 1.1225l-3.356 6.9774q-1.0403 2.1628 1.1225 3.2031z" clip-path="url(#a)" fill="#fff" stroke="#fff"/>
<g clip-path="url(#a)">
<g transform="translate(1426.5 603.46) rotate(25.687) scale(.08 -.08)">
<use xlink:href="#ag"/>
</g>
</g>
<path d="m1034.4 744.37v33.808q0 2.4 2.4 2.4h7.7425q2.4 0 2.4-2.4v-33.808q0-2.4-2.4-2.4h-7.7425q-2.4 0-2.4 2.4z" clip-path="url(#a)" fill="#fff" stroke="#fff"/>
<g clip-path="url(#a)">
<g transform="translate(1038.5 744.37) rotate(90) scale(.08 -.08)">
<use xlink:href="#l"/>
<use x="44.083984" xlink:href="#d"/>
<use x="105.607422" xlink:href="#h"/>
<use x="144.970703" xlink:href="#i"/>
<use x="242.382812" xlink:href="#g"/>
<use x="270.166016" xlink:href="#e"/>
<use x="333.544922" xlink:href="#f"/>
<use x="394.824219" xlink:href="#k"/>
</g>
</g>
<path d="m1106.1 744.37v33.808q0 2.4 2.4 2.4h7.7425q2.4 0 2.4-2.4v-33.808q0-2.4-2.4-2.4h-7.7425q-2.4 0-2.4 2.4z" clip-path="url(#a)" fill="#fff" stroke="#fff"/>
<g clip-path="url(#a)">
<g transform="translate(1110.2 744.37) rotate(90) scale(.08 -.08)">
<use xlink:href="#l"/>
<use x="44.083984" xlink:href="#d"/>
<use x="105.607422" xlink:href="#h"/>
<use x="144.970703" xlink:href="#i"/>
<use x="242.382812" xlink:href="#g"/>
<use x="270.166016" xlink:href="#e"/>
<use x="333.544922" xlink:href="#f"/>
<use x="394.824219" xlink:href="#k"/>
</g>
</g>
<path d="m1180.3 744.37v33.808q0 2.4 2.4 2.4h7.7425q2.4 0 2.4-2.4v-33.808q0-2.4-2.4-2.4h-7.7425q-2.4 0-2.4 2.4z" clip-path="url(#a)" fill="#fff" stroke="#fff"/>
<g clip-path="url(#a)">
<g transform="translate(1184.4 744.37) rotate(90) scale(.08 -.08)">
<use xlink:href="#l"/>
<use x="44.083984" xlink:href="#d"/>
<use x="105.607422" xlink:href="#h"/>
<use x="144.970703" xlink:href="#i"/>
<use x="242.382812" xlink:href="#g"/>
<use x="270.166016" xlink:href="#e"/>
<use x="333.544922" xlink:href="#f"/>
<use x="394.824219" xlink:href="#k"/>
</g>
</g>
<path d="m1318.7 778.49 20.659-26.761q1.4666-1.8997-0.43313-3.3664l-6.1287-4.7314q-1.8997-1.4666-3.3664 0.43313l-20.659 26.761q-1.4666 1.8997 0.43313 3.3664l6.1287 4.7314q1.8997 1.4666 3.3664-0.43313z" clip-path="url(#a)" fill="#fff" stroke="#fff"/>
<g clip-path="url(#a)">
<g transform="translate(1315.5 776.01) rotate(-52.332) scale(.08 -.08)">
<use xlink:href="#l"/>
<use x="44.083984" xlink:href="#d"/>
<use x="105.607422" xlink:href="#h"/>
<use x="144.970703" xlink:href="#i"/>
<use x="242.382812" xlink:href="#g"/>
<use x="270.166016" xlink:href="#e"/>
<use x="333.544922" xlink:href="#f"/>
<use x="394.824219" xlink:href="#k"/>
</g>
</g>
<path d="m1365.5 779.23 8.7568-32.654q0.62164-2.3181-1.6964-2.9397l-7.4783-2.0054q-2.3181-0.62164-2.9397 1.6964l-8.7568 32.654q-0.62164 2.3181 1.6964 2.9397l7.4783 2.0054q2.3181 0.62164 2.9397-1.6964z" clip-path="url(#a)" fill="#fff" stroke="#fff"/>
<g clip-path="url(#a)">
<g transform="translate(1361.5 778.18) rotate(-74.988) scale(.08 -.08)">
<use xlink:href="#l"/>
<use x="44.083984" xlink:href="#d"/>
<use x="105.607422" xlink:href="#h"/>
<use x="144.970703" xlink:href="#i"/>
<use x="242.382812" xlink:href="#g"/>
<use x="270.166016" xlink:href="#e"/>
<use x="333.544922" xlink:href="#f"/>
<use x="394.824219" xlink:href="#k"/>
</g>
</g>
<path d="m1394.5 746.42 8.2587 32.783q0.58628 2.3273 2.9136 1.741l7.5079-1.8914q2.3273-0.58628 1.741-2.9136l-8.2587-32.783q-0.58628-2.3273-2.9136-1.741l-7.5079 1.8914q-2.3273 0.58628-1.741 2.9136z" clip-path="url(#a)" fill="#fff" stroke="#fff"/>
<g clip-path="url(#a)">
<g transform="translate(1398.5 745.42) rotate(75.86) scale(.08 -.08)">
<use xlink:href="#l"/>
<use x="44.083984" xlink:href="#d"/>
<use x="105.607422" xlink:href="#h"/>
<use x="144.970703" xlink:href="#i"/>
<use x="242.382812" xlink:href="#g"/>
<use x="270.166016" xlink:href="#e"/>
<use x="333.544922" xlink:href="#f"/>
<use x="394.824219" xlink:href="#k"/>
</g>
</g>
<path d="m1431.6 751.88 20.929 26.551q1.4857 1.8848 3.3706 0.3991l6.0805-4.793q1.8848-1.4857 0.3991-3.3706l-20.929-26.551q-1.4857-1.8848-3.3706-0.3991l-6.0805 4.793q-1.8848 1.4857-0.3991 3.3706z" clip-path="url(#a)" fill="#fff" stroke="#fff"/>
<g clip-path="url(#a)">
<g transform="translate(1434.7 749.37) rotate(51.753) scale(.08 -.08)">
<use xlink:href="#l"/>
<use x="44.083984" xlink:href="#d"/>
<use x="105.607422" xlink:href="#h"/>
<use x="144.970703" xlink:href="#i"/>
<use x="242.382812" xlink:href="#g"/>
<use x="270.166016" xlink:href="#e"/>
<use x="333.544922" xlink:href="#f"/>
<use x="394.824219" xlink:href="#k"/>
</g>
</g>
<path d="m834.85 744.37v33.808q0 2.4 2.4 2.4h7.7425q2.4 0 2.4-2.4v-33.808q0-2.4-2.4-2.4h-7.7425q-2.4 0-2.4 2.4z" clip-path="url(#a)" fill="#fff" stroke="#fff"/>
<g clip-path="url(#a)">
<g transform="translate(838.91 744.37) rotate(90) scale(.08 -.08)">
<use xlink:href="#l"/>
<use x="44.083984" xlink:href="#d"/>
<use x="105.607422" xlink:href="#h"/>
<use x="144.970703" xlink:href="#i"/>
<use x="242.382812" xlink:href="#g"/>
<use x="270.166016" xlink:href="#e"/>
<use x="333.544922" xlink:href="#f"/>
<use x="394.824219" xlink:href="#k"/>
</g>
</g>
<path d="m924.37 779.11 6.9888-33.077q0.49613-2.3482-1.852-2.8443l-7.5753-1.6005q-2.3482-0.49613-2.8443 1.852l-6.9888 33.077q-0.49613 2.3482 1.852 2.8443l7.5753 1.6005q2.3482 0.49613 2.8443-1.852z" clip-path="url(#a)" fill="#fff" stroke="#fff"/>
<g clip-path="url(#a)">
<g transform="translate(920.39 778.27) rotate(-78.07) scale(.08 -.08)">
<use xlink:href="#l"/>
<use x="44.083984" xlink:href="#d"/>
<use x="105.607422" xlink:href="#h"/>
<use x="144.970703" xlink:href="#i"/>
<use x="242.382812" xlink:href="#g"/>
<use x="270.166016" xlink:href="#e"/>
<use x="333.544922" xlink:href="#f"/>
<use x="394.824219" xlink:href="#k"/>
</g>
</g>
<path d="m945.36 746.04 6.9888 33.077q0.49613 2.3482 2.8443 1.852l7.5753-1.6005q2.3482-0.49613 1.852-2.8443l-6.9888-33.077q-0.49613-2.3482-2.8443-1.852l-7.5753 1.6005q-2.3482 0.49613-1.852 2.8443z" clip-path="url(#a)" fill="#fff" stroke="#fff"/>
<g clip-path="url(#a)">
<g transform="translate(949.34 745.19) rotate(78.07) scale(.08 -.08)">
<use xlink:href="#l"/>
<use x="44.083984" xlink:href="#d"/>
<use x="105.607422" xlink:href="#h"/>
<use x="144.970703" xlink:href="#i"/>
<use x="242.382812" xlink:href="#g"/>
<use x="270.166016" xlink:href="#e"/>
<use x="333.544922" xlink:href="#f"/>
<use x="394.824219" xlink:href="#k"/>
</g>
</g>
<path d="m69.729 744.37v33.808q0 2.4 2.4 2.4h7.7425q2.4 0 2.4-2.4v-33.808q0-2.4-2.4-2.4h-7.7425q-2.4 0-2.4 2.4z" clip-path="url(#a)" fill="#fff" stroke="#fff"/>
<g clip-path="url(#a)">
<g transform="translate(73.792 744.37) rotate(90) scale(.08 -.08)">
<use xlink:href="#l"/>
<use x="44.083984" xlink:href="#d"/>
<use x="105.607422" xlink:href="#h"/>
<use x="144.970703" xlink:href="#i"/>
<use x="242.382812" xlink:href="#g"/>
<use x="270.166016" xlink:href="#e"/>
<use x="333.544922" xlink:href="#f"/>
<use x="394.824219" xlink:href="#k"/>
</g>
</g>
<path d="m77.406 744.37v33.808q0 2.4 2.4 2.4h7.7425q2.4 0 2.4-2.4v-33.808q0-2.4-2.4-2.4h-7.7425q-2.4 0-2.4 2.4z" clip-path="url(#a)" fill="#fff" stroke="#fff"/>
<g clip-path="url(#a)">
<g transform="translate(81.469 744.37) rotate(90) scale(.08 -.08)">
<use xlink:href="#l"/>
<use x="44.083984" xlink:href="#d"/>
<use x="105.607422" xlink:href="#h"/>
<use x="144.970703" xlink:href="#i"/>
<use x="242.382812" xlink:href="#g"/>
<use x="270.166016" xlink:href="#e"/>
<use x="333.544922" xlink:href="#f"/>
<use x="394.824219" xlink:href="#k"/>
</g>
</g>
<path d="m87.641 744.37v33.808q0 2.4 2.4 2.4h7.7425q2.4 0 2.4-2.4v-33.808q0-2.4-2.4-2.4h-7.7425q-2.4 0-2.4 2.4z" clip-path="url(#a)" fill="#fff" stroke="#fff"/>
<g clip-path="url(#a)">
<g transform="translate(91.705 744.37) rotate(90) scale(.08 -.08)">
<use xlink:href="#l"/>
<use x="44.083984" xlink:href="#d"/>
<use x="105.607422" xlink:href="#h"/>
<use x="144.970703" xlink:href="#i"/>
<use x="242.382812" xlink:href="#g"/>
<use x="270.166016" xlink:href="#e"/>
<use x="333.544922" xlink:href="#f"/>
<use x="394.824219" xlink:href="#k"/>
</g>
</g>
<path d="m126.82 445.91 0.43495-5.4552q0.19075-2.3924-2.2017-2.5832l-7.718-0.61536q-2.3924-0.19075-2.5832 2.2017l-0.43494 5.4552q-0.19075 2.3924 2.2017 2.5832l7.718 0.61536q2.3924 0.19075 2.5832-2.2017z" clip-path="url(#a)" fill="#fff" stroke="#fff"/>
<g clip-path="url(#a)">
<g transform="translate(122.76 445.59) rotate(-85.441) scale(.08 -.08)">
<use xlink:href="#n"/>
</g>
</g>
<path d="m127.21 520.34 0.19265 4.8199q0.09585 2.3981 2.4939 2.3022l7.7363-0.30922q2.3981-0.09585 2.3022-2.4939l-0.19265-4.8199q-0.09585-2.3981-2.4939-2.3022l-7.7363 0.30922q-2.3981 0.09585-2.3022 2.4939z" clip-path="url(#a)" fill="#fff" stroke="#fff"/>
<g clip-path="url(#a)">
<g transform="translate(131.27 520.18) rotate(87.711) scale(.08 -.08)">
<use xlink:href="#t"/>
</g>
</g>
<path d="m229.43 527.41 2.0695-5.1592q0.89349-2.2275-1.334-3.121l-7.1859-2.8824q-2.2275-0.8935-3.121 1.334l-2.0695 5.1592q-0.89349 2.2275 1.334 3.121l7.1859 2.8824q2.2275 0.8935 3.121-1.334z" clip-path="url(#a)" fill="#fff" stroke="#fff"/>
<g clip-path="url(#a)">
<g transform="translate(225.66 525.9) rotate(-68.143) scale(.08 -.08)">
<use xlink:href="#ac"/>
</g>
</g>
<path d="m241.4 526.65 1.4387-4.3705q0.75042-2.2797-1.5292-3.0301l-7.3543-2.4209q-2.2797-0.75042-3.0301 1.5292l-1.4387 4.3705q-0.75042 2.2797 1.5292 3.0301l7.3543 2.4209q2.2797 0.75042 3.0301-1.5292z" clip-path="url(#a)" fill="#fff" stroke="#fff"/>
<g clip-path="url(#a)">
<g transform="translate(237.54 525.38) rotate(-71.78) scale(.08 -.08)">
<use xlink:href="#v"/>
</g>
</g>
<path d="m273.25 446.72 1.281-4.89q0.60821-2.3217-1.7134-2.9299l-7.4898-1.9621q-2.3217-0.60821-2.9299 1.7134l-1.281 4.89q-0.60821 2.3217 1.7134 2.9299l7.4898 1.9621q2.3217 0.60821 2.9299-1.7134z" clip-path="url(#a)" fill="#fff" stroke="#fff"/>
<g clip-path="url(#a)">
<g transform="translate(269.32 445.69) rotate(-75.32) scale(.08 -.08)">
<use xlink:href="#ad"/>
</g>
</g>
<path d="m285.78 525.38 0.2896-5.0467q0.1375-2.3961-2.2586-2.5336l-7.7298-0.44357q-2.3961-0.1375-2.5336 2.2586l-0.2896 5.0467q-0.1375 2.3961 2.2586 2.5336l7.7298 0.44357q2.3961 0.1375 2.5336-2.2586z" clip-path="url(#a)" fill="#fff" stroke="#fff"/>
<g clip-path="url(#a)">
<g transform="translate(281.72 525.15) rotate(-86.716) scale(.08 -.08)">
<use xlink:href="#ad"/>
</g>
</g>
<path d="m308 520.74 0.88857 5.5151q0.38176 2.3694 2.7512 1.9877l7.6439-1.2316q2.3694-0.38175 1.9877-2.7512l-0.88857-5.5151q-0.38175-2.3694-2.7512-1.9877l-7.6439 1.2316q-2.3694 0.38175-1.9877 2.7512z" clip-path="url(#a)" fill="#fff" stroke="#fff"/>
<g clip-path="url(#a)">
<g transform="translate(312.01 520.09) rotate(80.847) scale(.08 -.08)">
<use xlink:href="#r"/>
</g>
</g>
<path d="m338.54 444.21 2.9028 4.1384q1.3782 1.9648 3.343 0.58662l6.3386-4.4462q1.9648-1.3782 0.58662-3.343l-2.9028-4.1384q-1.3782-1.9648-3.343-0.58662l-6.3386 4.4462q-1.9648 1.3782-0.58662 3.343z" clip-path="url(#a)" fill="#fff" stroke="#fff"/>
<g clip-path="url(#a)">
<g transform="translate(341.87 441.88) rotate(54.953) scale(.08 -.08)">
<use xlink:href="#ad"/>
</g>
</g>
<path d="m346.96 522.15 2.2037 5.4244q0.90333 2.2235 3.1268 1.3202l7.1731-2.9142q2.2235-0.90333 1.3202-3.1268l-2.2037-5.4244q-0.90333-2.2235-3.1268-1.3202l-7.1731 2.9142q-2.2235 0.90333-1.3202 3.1268z" clip-path="url(#a)" fill="#fff" stroke="#fff"/>
<g clip-path="url(#a)">
<g transform="translate(350.72 520.62) rotate(67.89) scale(.08 -.08)">
<use xlink:href="#ag"/>
</g>
</g>
<path d="m154.17 744.37v33.808q0 2.4 2.4 2.4h7.7425q2.4 0 2.4-2.4v-33.808q0-2.4-2.4-2.4h-7.7425q-2.4 0-2.4 2.4z" clip-path="url(#a)" fill="#fff" stroke="#fff"/>
<g clip-path="url(#a)">
<g transform="translate(158.24 744.37) rotate(90) scale(.08 -.08)">
<use xlink:href="#l"/>
<use x="44.083984" xlink:href="#d"/>
<use x="105.607422" xlink:href="#h"/>
<use x="144.970703" xlink:href="#i"/>
<use x="242.382812" xlink:href="#g"/>
<use x="270.166016" xlink:href="#e"/>
<use x="333.544922" xlink:href="#f"/>
<use x="394.824219" xlink:href="#k"/>
</g>
</g>
<path d="m177.2 744.37v33.808q0 2.4 2.4 2.4h7.7425q2.4 0 2.4-2.4v-33.808q0-2.4-2.4-2.4h-7.7425q-2.4 0-2.4 2.4z" clip-path="url(#a)" fill="#fff" stroke="#fff"/>
<g clip-path="url(#a)">
<g transform="translate(181.27 744.37) rotate(90) scale(.08 -.08)">
<use xlink:href="#l"/>
<use x="44.083984" xlink:href="#d"/>
<use x="105.607422" xlink:href="#h"/>
<use x="144.970703" xlink:href="#i"/>
<use x="242.382812" xlink:href="#g"/>
<use x="270.166016" xlink:href="#e"/>
<use x="333.544922" xlink:href="#f"/>
<use x="394.824219" xlink:href="#k"/>
</g>
</g>
<path d="m252.04 600.95 0.80266 5.4133q0.35201 2.374 2.7261 2.022l7.6588-1.1356q2.374-0.35201 2.022-2.7261l-0.80266-5.4133q-0.35201-2.374-2.7261-2.022l-7.6588 1.1356q-2.374 0.35201-2.022 2.7261z" clip-path="url(#a)" fill="#fff" stroke="#fff"/>
<g clip-path="url(#a)">
<g transform="translate(256.06 600.35) rotate(81.566) scale(.08 -.08)">
<use xlink:href="#n"/>
</g>
</g>
<path d="m249.44 605.55 0.22366-5.0738q0.10569-2.3977-2.292-2.5034l-7.735-0.34097q-2.3977-0.10569-2.5034 2.292l-0.22366 5.0738q-0.10569 2.3977 2.292 2.5034l7.735 0.34097q2.3977 0.10569 2.5034-2.292z" clip-path="url(#a)" fill="#fff" stroke="#fff"/>
<g clip-path="url(#a)">
<defs>
<path id="as" d="m53.516 70.516v-9.625q-5.6094 2.6875-10.594 4-4.9844 1.3281-9.625 1.3281-8.0469 0-12.422-3.125t-4.375-8.8906q0-4.8438 2.9062-7.3125 2.9062-2.4531 11.016-3.9688l5.9531-1.2188q11.031-2.1094 16.281-7.4062t5.25-14.172q0-10.609-7.1094-16.078-7.0938-5.4688-20.812-5.4688-5.1719 0-11.016 1.1719-5.8281 1.1719-12.078 3.4688v10.156q6-3.3594 11.766-5.0781 5.7656-1.7031 11.328-1.7031 8.4375 0 13.031 3.3125 4.5938 3.3281 4.5938 9.4844 0 5.3594-3.2969 8.3906t-10.812 4.5469l-6.0156 1.1719q-11.031 2.1875-15.969 6.875-4.9219 4.6875-4.9219 13.047 0 9.6719 6.8125 15.234t18.766 5.5625q5.1406 0 10.453-0.9375 5.3281-0.92188 10.891-2.7656z"/>
</defs>
<g transform="translate(245.38 605.37) rotate(-87.476) scale(.08 -.08)">
<use xlink:href="#as"/>
</g>
</g>
<path d="m240.78 606.36 0.80266-5.4133q0.35201-2.374-2.022-2.7261l-7.6588-1.1356q-2.374-0.35201-2.7261 2.022l-0.80266 5.4133q-0.35201 2.374 2.022 2.7261l7.6588 1.1356q2.374 0.35201 2.7261-2.022z" clip-path="url(#a)" fill="#fff" stroke="#fff"/>
<g clip-path="url(#a)">
<g transform="translate(236.76 605.77) rotate(-81.566) scale(.08 -.08)">
<use xlink:href="#n"/>
</g>
</g>
<path d="m264.21 744.37v33.808q0 2.4 2.4 2.4h7.7425q2.4 0 2.4-2.4v-33.808q0-2.4-2.4-2.4h-7.7425q-2.4 0-2.4 2.4z" clip-path="url(#a)" fill="#fff" stroke="#fff"/>
<g clip-path="url(#a)">
<g transform="translate(268.27 744.37) rotate(90) scale(.08 -.08)">
<use xlink:href="#l"/>
<use x="44.083984" xlink:href="#d"/>
<use x="105.607422" xlink:href="#h"/>
<use x="144.970703" xlink:href="#i"/>
<use x="242.382812" xlink:href="#g"/>
<use x="270.166016" xlink:href="#e"/>
<use x="333.544922" xlink:href="#f"/>
<use x="394.824219" xlink:href="#k"/>
</g>
</g>
<path d="m324.36 779.16 7.6703-32.926q0.54452-2.3374-1.7929-2.8819l-7.5406-1.7566q-2.3374-0.54451-2.8819 1.7929l-7.6703 32.926q-0.54452 2.3374 1.7929 2.8819l7.5406 1.7566q2.3374 0.54452 2.8819-1.7929z" clip-path="url(#a)" fill="#fff" stroke="#fff"/>
<g clip-path="url(#a)">
<g transform="translate(320.4 778.24) rotate(-76.886) scale(.08 -.08)">
<use xlink:href="#l"/>
<use x="44.083984" xlink:href="#d"/>
<use x="105.607422" xlink:href="#h"/>
<use x="144.970703" xlink:href="#i"/>
<use x="242.382812" xlink:href="#g"/>
<use x="270.166016" xlink:href="#e"/>
<use x="333.544922" xlink:href="#f"/>
<use x="394.824219" xlink:href="#k"/>
</g>
</g>
<path d="m346.18 778.21 0.18315-33.807q0.013002-2.4-2.387-2.413l-7.7424-0.041945q-2.4-0.013002-2.413 2.387l-0.18315 33.807q-0.013002 2.4 2.387 2.413l7.7424 0.041945q2.4 0.013002 2.413-2.387z" clip-path="url(#a)" fill="#fff" stroke="#fff"/>
<g clip-path="url(#a)">
<g transform="translate(342.11 778.19) rotate(-89.69) scale(.08 -.08)">
<use xlink:href="#l"/>
<use x="44.083984" xlink:href="#d"/>
<use x="105.607422" xlink:href="#h"/>
<use x="144.970703" xlink:href="#i"/>
<use x="242.382812" xlink:href="#g"/>
<use x="270.166016" xlink:href="#e"/>
<use x="333.544922" xlink:href="#f"/>
<use x="394.824219" xlink:href="#k"/>
</g>
</g>
<path d="m349.17 746.29 7.8392 32.886q0.5565 2.3346 2.8911 1.7781l7.5315-1.7953q2.3346-0.5565 1.7781-2.8911l-7.8392-32.886q-0.5565-2.3346-2.8911-1.7781l-7.5315 1.7953q-2.3346 0.5565-1.7781 2.8911z" clip-path="url(#a)" fill="#fff" stroke="#fff"/>
<g clip-path="url(#a)">
<g transform="translate(353.12 745.35) rotate(76.592) scale(.08 -.08)">
<use xlink:href="#l"/>
<use x="44.083984" xlink:href="#d"/>
<use x="105.607422" xlink:href="#h"/>
<use x="144.970703" xlink:href="#i"/>
<use x="242.382812" xlink:href="#g"/>
<use x="270.166016" xlink:href="#e"/>
<use x="333.544922" xlink:href="#f"/>
<use x="394.824219" xlink:href="#k"/>
</g>
</g>
<path d="m375.8 607.53 1.953-5.1121q0.85652-2.242-1.3854-3.0985l-7.2326-2.7632q-2.242-0.85652-3.0985 1.3854l-1.953 5.1121q-0.85652 2.242 1.3854 3.0985l7.2326 2.7632q2.242 0.85652 3.0985-1.3854z" clip-path="url(#a)" fill="#fff" stroke="#fff"/>
<g clip-path="url(#a)">
<g transform="translate(372 606.08) rotate(-69.091) scale(.08 -.08)">
<use xlink:href="#n"/>
</g>
</g>
<path d="m426.46 602.82 1.784 4.4817q0.88763 2.2298 3.1175 1.3422l7.1935-2.8635q2.2298-0.88763 1.3422-3.1175l-1.784-4.4817q-0.88763-2.2298-3.1175-1.3422l-7.1935 2.8635q-2.2298 0.88763-1.3422 3.1175z" clip-path="url(#a)" fill="#fff" stroke="#fff"/>
<g clip-path="url(#a)">
<g transform="translate(430.24 601.31) rotate(68.294) scale(.08 -.08)">
<use xlink:href="#t"/>
</g>
</g>
<path d="m425.17 602.69 1.7438 4.5645q0.85652 2.242 3.0985 1.3854l7.2326-2.7632q2.242-0.85652 1.3854-3.0985l-1.7438-4.5645q-0.85652-2.242-3.0985-1.3854l-7.2326 2.7632q-2.242 0.85652-1.3854 3.0985z" clip-path="url(#a)" fill="#fff" stroke="#fff"/>
<g clip-path="url(#a)">
<g transform="translate(428.97 601.24) rotate(69.091) scale(.08 -.08)">
<use xlink:href="#l"/>
</g>
</g>
<path d="m456.13 744.37v33.808q0 2.4 2.4 2.4h7.7425q2.4 0 2.4-2.4v-33.808q0-2.4-2.4-2.4h-7.7425q-2.4 0-2.4 2.4z" clip-path="url(#a)" fill="#fff" stroke="#fff"/>
<g clip-path="url(#a)">
<g transform="translate(460.19 744.37) rotate(90) scale(.08 -.08)">
<use xlink:href="#l"/>
<use x="44.083984" xlink:href="#d"/>
<use x="105.607422" xlink:href="#h"/>
<use x="144.970703" xlink:href="#i"/>
<use x="242.382812" xlink:href="#g"/>
<use x="270.166016" xlink:href="#e"/>
<use x="333.544922" xlink:href="#f"/>
<use x="394.824219" xlink:href="#k"/>
</g>
</g>
<path d="m220.84 778.67 3.0101-33.673q0.21368-2.3905-2.1768-2.6042l-7.7118-0.68936q-2.3905-0.21368-2.6042 2.1768l-3.0101 33.673q-0.21368 2.3905 2.1768 2.6042l7.7118 0.68936q2.3905 0.21368 2.6042-2.1768z" clip-path="url(#a)" fill="#fff" stroke="#fff"/>
<g clip-path="url(#a)">
<g transform="translate(216.79 778.31) rotate(-84.892) scale(.08 -.08)">
<use xlink:href="#l"/>
<use x="44.083984" xlink:href="#d"/>
<use x="105.607422" xlink:href="#h"/>
<use x="144.970703" xlink:href="#i"/>
<use x="242.382812" xlink:href="#g"/>
<use x="270.166016" xlink:href="#e"/>
<use x="333.544922" xlink:href="#f"/>
<use x="394.824219" xlink:href="#k"/>
</g>
</g>
<path d="m222.42 745 3.0101 33.673q0.21368 2.3905 2.6042 2.1768l7.7118-0.68936q2.3905-0.21368 2.1768-2.6042l-3.0101-33.673q-0.21368-2.3905-2.6042-2.1768l-7.7118 0.68936q-2.3905 0.21368-2.1768 2.6042z" clip-path="url(#a)" fill="#fff" stroke="#fff"/>
<g clip-path="url(#a)">
<g transform="translate(226.47 744.64) rotate(84.892) scale(.08 -.08)">
<use xlink:href="#l"/>
<use x="44.083984" xlink:href="#d"/>
<use x="105.607422" xlink:href="#h"/>
<use x="144.970703" xlink:href="#i"/>
<use x="242.382812" xlink:href="#g"/>
<use x="270.166016" xlink:href="#e"/>
<use x="333.544922" xlink:href="#f"/>
<use x="394.824219" xlink:href="#k"/>
</g>
</g>
<path d="m116.68 605.83 0.26833-5.5798q0.11528-2.3972-2.2819-2.5125l-7.7336-0.3719q-2.3972-0.11528-2.5125 2.2819l-0.26833 5.5798q-0.11528 2.3972 2.2819 2.5125l7.7336 0.3719q2.3972 0.11528 2.5125-2.2819z" clip-path="url(#a)" fill="#fff" stroke="#fff"/>
<g clip-path="url(#a)">
<g transform="translate(112.62 605.63) rotate(-87.247) scale(.08 -.08)">
<use xlink:href="#r"/>
</g>
</g>
<path d="m111.82 600.26 0.26701 5.5523q0.11528 2.3972 2.5125 2.2819l7.7336-0.3719q2.3972-0.11528 2.2819-2.5125l-0.26701-5.5523q-0.11528-2.3972-2.5125-2.2819l-7.7336 0.3719q-2.3972 0.11528-2.2819 2.5125z" clip-path="url(#a)" fill="#fff" stroke="#fff"/>
<g clip-path="url(#a)">
<g transform="translate(115.88 600.07) rotate(87.247) scale(.08 -.08)">
<use xlink:href="#ac"/>
</g>
</g>
<path d="m133.7 744.37v33.808q0 2.4 2.4 2.4h7.7425q2.4 0 2.4-2.4v-33.808q0-2.4-2.4-2.4h-7.7425q-2.4 0-2.4 2.4z" clip-path="url(#a)" fill="#fff" stroke="#fff"/>
<g clip-path="url(#a)">
<g transform="translate(137.77 744.37) rotate(90) scale(.08 -.08)">
<use xlink:href="#l"/>
<use x="44.083984" xlink:href="#d"/>
<use x="105.607422" xlink:href="#h"/>
<use x="144.970703" xlink:href="#i"/>
<use x="242.382812" xlink:href="#g"/>
<use x="270.166016" xlink:href="#e"/>
<use x="333.544922" xlink:href="#f"/>
<use x="394.824219" xlink:href="#k"/>
</g>
</g>
<path d="m100.44 744.37v33.808q0 2.4 2.4 2.4h7.7425q2.4 0 2.4-2.4v-33.808q0-2.4-2.4-2.4h-7.7425q-2.4 0-2.4 2.4z" clip-path="url(#a)" fill="#fff" stroke="#fff"/>
<g clip-path="url(#a)">
<g transform="translate(104.5 744.37) rotate(90) scale(.08 -.08)">
<use xlink:href="#l"/>
<use x="44.083984" xlink:href="#d"/>
<use x="105.607422" xlink:href="#h"/>
<use x="144.970703" xlink:href="#i"/>
<use x="242.382812" xlink:href="#g"/>
<use x="270.166016" xlink:href="#e"/>
<use x="333.544922" xlink:href="#f"/>
<use x="394.824219" xlink:href="#k"/>
</g>
</g>
<path d="m115.79 744.37v33.808q0 2.4 2.4 2.4h7.7425q2.4 0 2.4-2.4v-33.808q0-2.4-2.4-2.4h-7.7425q-2.4 0-2.4 2.4z" clip-path="url(#a)" fill="#fff" stroke="#fff"/>
<g clip-path="url(#a)">
<g transform="translate(119.85 744.37) rotate(90) scale(.08 -.08)">
<use xlink:href="#l"/>
<use x="44.083984" xlink:href="#d"/>
<use x="105.607422" xlink:href="#h"/>
<use x="144.970703" xlink:href="#i"/>
<use x="242.382812" xlink:href="#g"/>
<use x="270.166016" xlink:href="#e"/>
<use x="333.544922" xlink:href="#f"/>
<use x="394.824219" xlink:href="#k"/>
</g>
</g>
<path d="m412.62 744.37v33.808q0 2.4 2.4 2.4h7.7425q2.4 0 2.4-2.4v-33.808q0-2.4-2.4-2.4h-7.7425q-2.4 0-2.4 2.4z" clip-path="url(#a)" fill="#fff" stroke="#fff"/>
<g clip-path="url(#a)">
<g transform="translate(416.69 744.37) rotate(90) scale(.08 -.08)">
<use xlink:href="#l"/>
<use x="44.083984" xlink:href="#d"/>
<use x="105.607422" xlink:href="#h"/>
<use x="144.970703" xlink:href="#i"/>
<use x="242.382812" xlink:href="#g"/>
<use x="270.166016" xlink:href="#e"/>
<use x="333.544922" xlink:href="#f"/>
<use x="394.824219" xlink:href="#k"/>
</g>
</g>
<path d="m504.75 744.37v33.808q0 2.4 2.4 2.4h7.7425q2.4 0 2.4-2.4v-33.808q0-2.4-2.4-2.4h-7.7425q-2.4 0-2.4 2.4z" clip-path="url(#a)" fill="#fff" stroke="#fff"/>
<g clip-path="url(#a)">
<g transform="translate(508.81 744.37) rotate(90) scale(.08 -.08)">
<use xlink:href="#l"/>
<use x="44.083984" xlink:href="#d"/>
<use x="105.607422" xlink:href="#h"/>
<use x="144.970703" xlink:href="#i"/>
<use x="242.382812" xlink:href="#g"/>
<use x="270.166016" xlink:href="#e"/>
<use x="333.544922" xlink:href="#f"/>
<use x="394.824219" xlink:href="#k"/>
</g>
</g>
<path d="m1589.7 744.37v33.808q0 2.4 2.4 2.4h7.7425q2.4 0 2.4-2.4v-33.808q0-2.4-2.4-2.4h-7.7425q-2.4 0-2.4 2.4z" clip-path="url(#a)" fill="#fff" stroke="#fff"/>
<g clip-path="url(#a)">
<g transform="translate(1593.8 744.37) rotate(90) scale(.08 -.08)">
<use xlink:href="#l"/>
<use x="44.083984" xlink:href="#d"/>
<use x="105.607422" xlink:href="#h"/>
<use x="144.970703" xlink:href="#i"/>
<use x="242.382812" xlink:href="#g"/>
<use x="270.166016" xlink:href="#e"/>
<use x="333.544922" xlink:href="#f"/>
<use x="394.824219" xlink:href="#k"/>
</g>
</g>
<defs>
<path id="b" d="m0 8.6603c2.2967 0 4.4997-0.9125 6.1237-2.5365 1.624-1.624 2.5365-3.827 2.5365-6.1237s-0.9125-4.4997-2.5365-6.1237c-1.624-1.624-3.827-2.5365-6.1237-2.5365s-4.4997 0.9125-6.1237 2.5365c-1.624 1.624-2.5365 3.827-2.5365 6.1237s0.9125 4.4997 2.5365 6.1237c1.624 1.624 3.827 2.5365 6.1237 2.5365z"/>
</defs>
<g clip-path="url(#a)">
<use x="76" y="840" fill="#ffffff" stroke="#ffffff" xlink:href="#b"/>
</g>
<g clip-path="url(#a)">
<use x="83.676768" y="840" fill="#ffffff" stroke="#ffffff" xlink:href="#b"/>
</g>
<g clip-path="url(#a)">
<use x="93.912458" y="840" fill="#ffffff" stroke="#ffffff" xlink:href="#b"/>
</g>
<g clip-path="url(#a)">
<use x="106.707071" y="840" fill="#ffffff" stroke="#ffffff" xlink:href="#b"/>
</g>
<g clip-path="url(#a)">
<use x="122.060606" y="840" fill="#ffffff" stroke="#ffffff" xlink:href="#b"/>
</g>
<g clip-path="url(#a)">
<use x="139.973064" y="840" fill="#ffffff" stroke="#ffffff" xlink:href="#b"/>
</g>
<g clip-path="url(#a)">
<use x="160.444444" y="840" fill="#ffffff" stroke="#ffffff" xlink:href="#b"/>
</g>
<g clip-path="url(#a)">
<use x="183.474747" y="840" fill="#ffffff" stroke="#ffffff" xlink:href="#b"/>
</g>
<g clip-path="url(#a)">
<use x="209.063973" y="840" fill="#ffffff" stroke="#ffffff" xlink:href="#b"/>
</g>
<g clip-path="url(#a)">
<use x="237.212121" y="840" fill="#ffffff" stroke="#ffffff" xlink:href="#b"/>
</g>
<g clip-path="url(#a)">
<use x="270.478114" y="840" fill="#ffffff" stroke="#ffffff" xlink:href="#b"/>
</g>
<g clip-path="url(#a)">
<use x="303.744108" y="840" fill="#ffffff" stroke="#ffffff" xlink:href="#b"/>
</g>
<g clip-path="url(#a)">
<use x="339.569024" y="840" fill="#ffffff" stroke="#ffffff" xlink:href="#b"/>
</g>
<g clip-path="url(#a)">
<use x="377.952862" y="840" fill="#ffffff" stroke="#ffffff" xlink:href="#b"/>
</g>
<g clip-path="url(#a)">
<use x="418.895623" y="840" fill="#ffffff" stroke="#ffffff" xlink:href="#b"/>
</g>
<g clip-path="url(#a)">
<use x="462.397306" y="840" fill="#ffffff" stroke="#ffffff" xlink:href="#b"/>
</g>
<g clip-path="url(#a)">
<use x="511.016835" y="840" fill="#ffffff" stroke="#ffffff" xlink:href="#b"/>
</g>
<g clip-path="url(#a)">
<use x="559.636364" y="840" fill="#ffffff" stroke="#ffffff" xlink:href="#b"/>
</g>
<g clip-path="url(#a)">
<use x="610.814815" y="840" fill="#ffffff" stroke="#ffffff" xlink:href="#b"/>
</g>
<g clip-path="url(#a)">
<use x="664.552189" y="840" fill="#ffffff" stroke="#ffffff" xlink:href="#b"/>
</g>
<g clip-path="url(#a)">
<use x="720.848485" y="840" fill="#ffffff" stroke="#ffffff" xlink:href="#b"/>
</g>
<g clip-path="url(#a)">
<use x="779.703704" y="840" fill="#ffffff" stroke="#ffffff" xlink:href="#b"/>
</g>
<g clip-path="url(#a)">
<use x="841.117845" y="840" fill="#ffffff" stroke="#ffffff" xlink:href="#b"/>
</g>
<g clip-path="url(#a)">
<use x="905.090909" y="840" fill="#ffffff" stroke="#ffffff" xlink:href="#b"/>
</g>
<g clip-path="url(#a)">
<use x="971.622896" y="840" fill="#ffffff" stroke="#ffffff" xlink:href="#b"/>
</g>
<g clip-path="url(#a)">
<use x="1040.713805" y="840" fill="#ffffff" stroke="#ffffff" xlink:href="#b"/>
</g>
<g clip-path="url(#a)">
<use x="1112.363636" y="840" fill="#ffffff" stroke="#ffffff" xlink:href="#b"/>
</g>
<g clip-path="url(#a)">
<use x="1186.572391" y="840" fill="#ffffff" stroke="#ffffff" xlink:href="#b"/>
</g>
<g clip-path="url(#a)">
<use x="1263.340067" y="840" fill="#ffffff" stroke="#ffffff" xlink:href="#b"/>
</g>
<g clip-path="url(#a)">
<use x="1342.666667" y="840" fill="#ffffff" stroke="#ffffff" xlink:href="#b"/>
</g>
<g clip-path="url(#a)">
<use x="1424.552189" y="840" fill="#ffffff" stroke="#ffffff" xlink:href="#b"/>
</g>
<g clip-path="url(#a)">
<use x="1508.996633" y="840" fill="#ffffff" stroke="#ffffff" xlink:href="#b"/>
</g>
<g clip-path="url(#a)">
<use x="1596" y="840" fill="#ffffff" stroke="#ffffff" xlink:href="#b"/>
</g>
<g clip-path="url(#a)">
<use x="464.956229" y="682.554489" fill="#ffffff" stroke="#ffffff" xlink:href="#b"/>
</g>
<g clip-path="url(#a)">
<use x="239.771044" y="682.554489" fill="#ffffff" stroke="#ffffff" xlink:href="#b"/>
</g>
<g clip-path="url(#a)">
<use x="479.921356" y="40" fill="#ffffff" stroke="#ffffff" xlink:href="#b"/>
</g>
<g clip-path="url(#a)">
<use x="133.92304" y="201.426527" fill="#ffffff" stroke="#ffffff" xlink:href="#b"/>
</g>
<g clip-path="url(#a)">
<use x="559.636364" y="682.554489" fill="#ffffff" stroke="#ffffff" xlink:href="#b"/>
</g>
<g clip-path="url(#a)">
<use x="715.109187" y="362.445711" fill="#ffffff" stroke="#ffffff" xlink:href="#b"/>
</g>
<g clip-path="url(#a)">
<use x="610.814815" y="682.554489" fill="#ffffff" stroke="#ffffff" xlink:href="#b"/>
</g>
<g clip-path="url(#a)">
<use x="664.552189" y="682.554489" fill="#ffffff" stroke="#ffffff" xlink:href="#b"/>
</g>
<g clip-path="url(#a)">
<use x="720.848485" y="682.554489" fill="#ffffff" stroke="#ffffff" xlink:href="#b"/>
</g>
<g clip-path="url(#a)">
<use x="779.703704" y="682.554489" fill="#ffffff" stroke="#ffffff" xlink:href="#b"/>
</g>
<g clip-path="url(#a)">
<use x="889.737374" y="522.918738" fill="#ffffff" stroke="#ffffff" xlink:href="#b"/>
</g>
<g clip-path="url(#a)">
<use x="1264.107744" y="522.918738" fill="#ffffff" stroke="#ffffff" xlink:href="#b"/>
</g>
<g clip-path="url(#a)">
<use x="1040.713805" y="682.554489" fill="#ffffff" stroke="#ffffff" xlink:href="#b"/>
</g>
<g clip-path="url(#a)">
<use x="1112.363636" y="682.554489" fill="#ffffff" stroke="#ffffff" xlink:href="#b"/>
</g>
<g clip-path="url(#a)">
<use x="1186.572391" y="682.554489" fill="#ffffff" stroke="#ffffff" xlink:href="#b"/>
</g>
<g clip-path="url(#a)">
<use x="1384.888889" y="682.554489" fill="#ffffff" stroke="#ffffff" xlink:href="#b"/>
</g>
<g clip-path="url(#a)">
<use x="841.117845" y="682.554489" fill="#ffffff" stroke="#ffffff" xlink:href="#b"/>
</g>
<g clip-path="url(#a)">
<use x="938.356902" y="682.554489" fill="#ffffff" stroke="#ffffff" xlink:href="#b"/>
</g>
<g clip-path="url(#a)">
<use x="76" y="682.554489" fill="#ffffff" stroke="#ffffff" xlink:href="#b"/>
</g>
<g clip-path="url(#a)">
<use x="83.676768" y="682.554489" fill="#ffffff" stroke="#ffffff" xlink:href="#b"/>
</g>
<g clip-path="url(#a)">
<use x="93.912458" y="682.554489" fill="#ffffff" stroke="#ffffff" xlink:href="#b"/>
</g>
<g clip-path="url(#a)">
<use x="127.178451" y="362.445711" fill="#ffffff" stroke="#ffffff" xlink:href="#b"/>
</g>
<g clip-path="url(#a)">
<use x="288.847523" y="362.445711" fill="#ffffff" stroke="#ffffff" xlink:href="#b"/>
</g>
<g clip-path="url(#a)">
<use x="160.444444" y="682.554489" fill="#ffffff" stroke="#ffffff" xlink:href="#b"/>
</g>
<g clip-path="url(#a)">
<use x="183.474747" y="682.554489" fill="#ffffff" stroke="#ffffff" xlink:href="#b"/>
</g>
<g clip-path="url(#a)">
<use x="246.808081" y="522.918738" fill="#ffffff" stroke="#ffffff" xlink:href="#b"/>
</g>
<g clip-path="url(#a)">
<use x="270.478114" y="682.554489" fill="#ffffff" stroke="#ffffff" xlink:href="#b"/>
</g>
<g clip-path="url(#a)">
<use x="340.421998" y="682.554489" fill="#ffffff" stroke="#ffffff" xlink:href="#b"/>
</g>
<g clip-path="url(#a)">
<use x="401.409652" y="522.918738" fill="#ffffff" stroke="#ffffff" xlink:href="#b"/>
</g>
<g clip-path="url(#a)">
<use x="462.397306" y="682.554489" fill="#ffffff" stroke="#ffffff" xlink:href="#b"/>
</g>
<g clip-path="url(#a)">
<use x="223.138047" y="682.554489" fill="#ffffff" stroke="#ffffff" xlink:href="#b"/>
</g>
<g clip-path="url(#a)">
<use x="114.383838" y="522.918738" fill="#ffffff" stroke="#ffffff" xlink:href="#b"/>
</g>
<g clip-path="url(#a)">
<use x="139.973064" y="682.554489" fill="#ffffff" stroke="#ffffff" xlink:href="#b"/>
</g>
<g clip-path="url(#a)">
<use x="106.707071" y="682.554489" fill="#ffffff" stroke="#ffffff" xlink:href="#b"/>
</g>
<g clip-path="url(#a)">
<use x="122.060606" y="682.554489" fill="#ffffff" stroke="#ffffff" xlink:href="#b"/>
</g>
<g clip-path="url(#a)">
<use x="418.895623" y="682.554489" fill="#ffffff" stroke="#ffffff" xlink:href="#b"/>
</g>
<g clip-path="url(#a)">
<use x="511.016835" y="682.554489" fill="#ffffff" stroke="#ffffff" xlink:href="#b"/>
</g>
<g clip-path="url(#a)">
<use x="1596" y="682.554489" fill="#ffffff" stroke="#ffffff" xlink:href="#b"/>
</g>
<g clip-path="url(#a)">
<defs>
<path id="p" d="m30.609 48.391q-7.2188 0-11.422-5.6406t-4.2031-15.453 4.1719-15.453q4.1875-5.6406 11.453-5.6406 7.1875 0 11.375 5.6562 4.2031 5.6719 4.2031 15.438 0 9.7188-4.2031 15.406-4.1875 5.6875-11.375 5.6875zm0 7.6094q11.719 0 18.406-7.625 6.7031-7.6094 6.7031-21.078 0-13.422-6.7031-21.078-6.6875-7.6406-18.406-7.6406-11.766 0-18.438 7.6406-6.6562 7.6562-6.6562 21.078 0 13.469 6.6562 21.078 6.6719 7.625 18.438 7.625z"/>
</defs>
<g transform="translate(70.242 842.76) scale(.1 -.1)">
<use xlink:href="#y"/>
<use x="53.962891" xlink:href="#p"/>
</g>
</g>
<g clip-path="url(#a)">
<defs>
<path id="q" d="m54.891 33.016v-33.016h-8.9844v32.719q0 7.7656-3.0312 11.609-3.0312 3.8594-9.0781 3.8594-7.2812 0-11.484-4.6406-4.2031-4.625-4.2031-12.641v-30.906h-9.0312v75.984h9.0312v-29.797q3.2344 4.9375 7.5938 7.375 4.375 2.4375 10.094 2.4375 9.4219 0 14.25-5.8281 4.8438-5.8281 4.8438-17.156z"/>
<path id="ab" d="m45.406 46.391v29.594h8.9844v-75.984h-8.9844v8.2031q-2.8281-4.875-7.1562-7.25-4.3125-2.375-10.375-2.375-9.9062 0-16.141 7.9062-6.2188 7.9219-6.2188 20.812t6.2188 20.797q6.2344 7.9062 16.141 7.9062 6.0625 0 10.375-2.375 4.3281-2.3594 7.1562-7.2344zm-30.609-19.094q0-9.9062 4.0781-15.547t11.203-5.6406 11.219 5.6406q4.1094 5.6406 4.1094 15.547t-4.1094 15.547q-4.0938 5.6406-11.219 5.6406t-11.203-5.6406-4.0781-15.547z"/>
</defs>
<g transform="translate(74.27 842.76) scale(.1 -.1)">
<use xlink:href="#q"/>
<use x="63.378906" xlink:href="#f"/>
<use x="124.658203" xlink:href="#ab"/>
</g>
</g>
<g clip-path="url(#a)">
<defs>
<path id="ak" d="m44.281 53.078v-8.5q-3.7969 1.9531-7.9062 2.9219-4.0938 0.98438-8.5 0.98438-6.6875 0-10.031-2.0469t-3.3438-6.1562q0-3.125 2.3906-4.9062t9.625-3.3906l3.0781-0.6875q9.5625-2.0469 13.594-5.7812t4.0312-10.422q0-7.625-6.0312-12.078-6.0312-4.4375-16.578-4.4375-4.3906 0-9.1562 0.85938t-10.031 2.5625v9.2812q4.9844-2.5938 9.8125-3.8906 4.8281-1.2812 9.5781-1.2812 6.3438 0 9.75 2.1719 3.4219 2.1719 3.4219 6.125 0 3.6562-2.4688 5.6094-2.4531 1.9531-10.812 3.7656l-3.125 0.73438q-8.3438 1.75-12.062 5.3906-3.7031 3.6406-3.7031 9.9844 0 7.7188 5.4688 11.906 5.4688 4.2031 15.531 4.2031 4.9688 0 9.3594-0.73438 4.4062-0.71875 8.1094-2.1875z"/>
</defs>
<g transform="translate(81.986 842.76) scale(.1 -.1)">
<use xlink:href="#ak"/>
<use x="52.099609" xlink:href="#d"/>
<use x="113.623047" xlink:href="#d"/>
<use x="175.146484" xlink:href="#e"/>
</g>
</g>
<g clip-path="url(#a)">
<g transform="translate(93.814 842.76) scale(.1 -.1)">
<use xlink:href="#r"/>
<use x="69.824219" xlink:href="#q"/>
<use x="133.203125" xlink:href="#f"/>
<use x="194.482422" xlink:href="#e"/>
</g>
</g>
<g clip-path="url(#a)">
<defs>
<path id="ay" d="m17.922 72.906v-27.109h-8.2969v27.109z"/>
</defs>
<g transform="translate(118.08 842.76) scale(.1 -.1)">
<use xlink:href="#ay"/>
<use x="27.490234" xlink:href="#ak"/>
</g>
</g>
<g clip-path="url(#a)">
<defs>
<path id="aq" d="m18.109 8.2031v-29h-9.0312v75.484h9.0312v-8.2969q2.8438 4.875 7.1562 7.2344 4.3281 2.375 10.328 2.375 9.9688 0 16.188-7.9062 6.2344-7.9062 6.2344-20.797t-6.2344-20.812q-6.2188-7.9062-16.188-7.9062-6 0-10.328 2.375-4.3125 2.375-7.1562 7.25zm30.578 19.094q0 9.9062-4.0781 15.547t-11.203 5.6406q-7.1406 0-11.219-5.6406t-4.0781-15.547 4.0781-15.547 11.219-5.6406q7.125 0 11.203 5.6406t4.0781 15.547z"/>
<path id="x" d="m37.109 75.984v-7.4844h-8.5938q-4.8281 0-6.7188-1.9531-1.875-1.9531-1.875-7.0312v-4.8281h14.797v-6.9844h-14.797v-47.703h-9.0312v47.703h-8.5938v6.9844h8.5938v3.8125q0 9.125 4.25 13.297 4.25 4.1875 13.469 4.1875z"/>
<path id="al" d="m48.781 52.594v-8.4062q-3.8125 2.1094-7.6406 3.1562t-7.7344 1.0469q-8.75 0-13.594-5.5469-4.8281-5.5312-4.8281-15.547t4.8281-15.562q4.8438-5.5312 13.594-5.5312 3.9062 0 7.7344 1.0469t7.6406 3.1562v-8.3125q-3.7656-1.75-7.7969-2.625-4.0156-0.89062-8.5625-0.89062-12.359 0-19.641 7.7656-7.2656 7.7656-7.2656 20.953 0 13.375 7.3438 21.031 7.3594 7.6719 20.156 7.6719 4.1406 0 8.0938-0.85938 3.9531-0.84375 7.6719-2.5469z"/>
</defs>
<g transform="translate(107.95 842.76) scale(.1 -.1)">
<use xlink:href="#aq"/>
<use x="63.476562" xlink:href="#d"/>
<use x="125" xlink:href="#h"/>
<use x="166.113281" xlink:href="#x"/>
<use x="201.318359" xlink:href="#p"/>
<use x="262.5" xlink:href="#h"/>
<use x="301.863281" xlink:href="#i"/>
<use x="399.275391" xlink:href="#f"/>
<use x="460.554688" xlink:href="#e"/>
<use x="523.933594" xlink:href="#al"/>
<use x="578.914062" xlink:href="#d"/>
</g>
</g>
<g clip-path="url(#a)">
<g transform="translate(155.89 842.76) scale(.1 -.1)">
<use xlink:href="#g"/>
<use x="27.783203" xlink:href="#e"/>
</g>
</g>
<g clip-path="url(#a)">
<defs>
<path id="s" d="m18.312 70.219v-15.531h18.5v-6.9844h-18.5v-29.688q0-6.6875 1.8281-8.5938t7.4531-1.9062h9.2188v-7.5156h-9.2188q-10.406 0-14.359 3.875-3.9531 3.8906-3.9531 14.141v29.688h-6.5938v6.9844h6.5938v15.531z"/>
</defs>
<g transform="translate(175.27 842.76) scale(.1 -.1)">
<use xlink:href="#s"/>
<use x="39.208984" xlink:href="#q"/>
<use x="102.587891" xlink:href="#d"/>
</g>
</g>
<g clip-path="url(#a)">
<defs>
<path id="au" d="m9.8125 72.906h9.8594v-67.828q0-13.188-5-19.141t-16.094-5.9531h-3.75v8.2969h3.0781q6.5312 0 9.2188 3.6719 2.6875 3.6562 2.6875 13.125z"/>
</defs>
<g transform="translate(198.19 842.76) scale(.1 -.1)">
<use xlink:href="#au"/>
<use x="29.492188" xlink:href="#p"/>
<use x="90.673828" xlink:href="#q"/>
<use x="154.052734" xlink:href="#e"/>
</g>
</g>
<g clip-path="url(#a)">
<defs>
<path id="ar" d="m3.3281 72.906h9.9531l15.328-61.625 15.281 61.625h11.094l15.328-61.625 15.281 61.625h10.016l-18.312-72.906h-12.406l-15.375 63.281-15.531-63.281h-12.406z"/>
</defs>
<g transform="translate(226.44 842.76) scale(.1 -.1)">
<use xlink:href="#ar"/>
<use x="93.001953" xlink:href="#p"/>
<use x="154.183594" xlink:href="#p"/>
</g>
</g>
<g clip-path="url(#a)">
<g transform="translate(261.07 842.76) scale(.1 -.1)">
<use xlink:href="#x"/>
<use x="35.205078" xlink:href="#g"/>
<use x="62.988281" xlink:href="#k"/>
<use x="90.771484" xlink:href="#i"/>
</g>
</g>
<g clip-path="url(#a)">
<g transform="translate(290.58 842.76) scale(.1 -.1)">
<use xlink:href="#ah"/>
<use x="75.195312" xlink:href="#f"/>
<use x="136.474609" xlink:href="#e"/>
<use x="199.853516" xlink:href="#ab"/>
</g>
</g>
<g clip-path="url(#a)">
<g transform="translate(334.75 842.76) scale(.1 -.1)">
<use xlink:href="#p"/>
<use x="61.181641" xlink:href="#x"/>
</g>
</g>
<g clip-path="url(#a)">
<g transform="translate(362.83 842.76) scale(.1 -.1)">
<use xlink:href="#an"/>
<use x="77.001953" xlink:href="#d"/>
<use x="138.525391" xlink:href="#f"/>
<use x="199.804688" xlink:href="#s"/>
<use x="239.013672" xlink:href="#q"/>
</g>
</g>
<g clip-path="url(#a)">
<defs>
<path id="ax" d="m31 75.875q-6.5312-11.219-9.7188-22.219-3.1719-10.984-3.1719-22.266 0-11.266 3.2031-22.328t9.6875-22.25h-7.8125q-7.3125 11.484-10.953 22.562t-3.6406 22.016q0 10.891 3.6094 21.922 3.625 11.047 10.984 22.562z"/>
</defs>
<g transform="translate(416.94 842.76) scale(.1 -.1)">
<use xlink:href="#ax"/>
</g>
</g>
<g clip-path="url(#a)">
<defs>
<path id="c" d="m12.406 8.2969h16.109v55.625l-17.531-3.5156v8.9844l17.438 3.5156h9.8594v-64.609h16.109v-8.2969h-41.984z"/>
<path id="z" d="m10.984 1.5156v8.9844q3.7188-1.7656 7.5156-2.6875 3.8125-0.92188 7.4844-0.92188 9.7656 0 14.906 6.5625 5.1562 6.5625 5.8906 19.953-2.8281-4.2031-7.1875-6.4531-4.3438-2.25-9.6094-2.25-10.938 0-17.312 6.6094-6.375 6.625-6.375 18.109 0 11.219 6.6406 18 6.6406 6.7969 17.672 6.7969 12.656 0 19.312-9.7031 6.6719-9.6875 6.6719-28.141 0-17.234-8.1875-27.516-8.1719-10.281-21.984-10.281-3.7188 0-7.5312 0.73438-3.7969 0.73438-7.9062 2.2031zm19.625 30.906q6.6406 0 10.516 4.5312 3.8906 4.5469 3.8906 12.469 0 7.8594-3.8906 12.422-3.875 4.5625-10.516 4.5625t-10.516-4.5625-3.875-12.422q0-7.9219 3.875-12.469 3.875-4.5312 10.516-4.5312z"/>
<path id="aa" d="m8.2031 72.906h46.875v-4.2031l-26.469-68.703h-10.297l24.906 64.594h-35.016z"/>
<path id="af" d="m33.016 40.375q-6.6406 0-10.531-4.5469-3.875-4.5312-3.875-12.438 0-7.8594 3.875-12.438 3.8906-4.5625 10.531-4.5625t10.516 4.5625q3.875 4.5781 3.875 12.438 0 7.9062-3.875 12.438-3.875 4.5469-10.516 4.5469zm19.578 30.922v-8.9844q-3.7188 1.75-7.5 2.6719-3.7812 0.9375-7.5 0.9375-9.7656 0-14.922-6.5938-5.1406-6.5938-5.875-19.922 2.875 4.25 7.2188 6.5156 4.3594 2.2656 9.5781 2.2656 10.984 0 17.359-6.6719 6.375-6.6562 6.375-18.125 0-11.234-6.6406-18.031-6.6406-6.7812-17.672-6.7812-12.656 0-19.344 9.6875-6.6875 9.7031-6.6875 28.109 0 17.281 8.2031 27.562t22.016 10.281q3.7188 0 7.5-0.73438t7.8906-2.1875z"/>
</defs>
<g transform="translate(449.67 842.76) scale(.1 -.1)">
<use xlink:href="#c"/>
<use x="63.623047" xlink:href="#z"/>
<use x="127.246094" xlink:href="#aa"/>
<use x="190.869141" xlink:href="#af"/>
</g>
</g>
<g clip-path="url(#a)">
<defs>
<path id="aw" d="m8.0156 75.875h7.8125q7.3125-11.516 10.953-22.562 3.6406-11.031 3.6406-21.922 0-10.938-3.6406-22.016t-10.953-22.562h-7.8125q6.4844 11.188 9.6875 22.25t3.2031 22.328q0 11.281-3.2031 22.266-3.2031 11-9.6875 22.219z"/>
</defs>
<g transform="translate(509.07 842.76) scale(.1 -.1)">
<use xlink:href="#aw"/>
</g>
</g>
<g clip-path="url(#a)">
<g transform="translate(550.23 842.76) scale(.1 -.1)">
<use xlink:href="#f"/>
<use x="61.279297" xlink:href="#e"/>
<use x="124.658203" xlink:href="#ab"/>
</g>
</g>
<g clip-path="url(#a)">
<g transform="translate(590.6 842.76) scale(.1 -.1)">
<use xlink:href="#aq"/>
<use x="63.476562" xlink:href="#k"/>
<use x="91.259766" xlink:href="#f"/>
<use x="152.539062" xlink:href="#e"/>
<use x="215.917969" xlink:href="#e"/>
<use x="279.296875" xlink:href="#d"/>
<use x="340.820312" xlink:href="#ab"/>
</g>
</g>
<g clip-path="url(#a)">
<g transform="translate(659.53 842.76) scale(.1 -.1)">
<use xlink:href="#s"/>
<use x="39.208984" xlink:href="#p"/>
</g>
</g>
<g clip-path="url(#a)">
<g transform="translate(705.28 842.76) scale(.1 -.1)">
<use xlink:href="#i"/>
<use x="97.412109" xlink:href="#p"/>
<use x="158.59375" xlink:href="#ab"/>
<use x="222.070312" xlink:href="#d"/>
<use x="283.59375" xlink:href="#k"/>
</g>
</g>
<g clip-path="url(#a)">
<g transform="translate(770.28 842.76) scale(.1 -.1)">
<use xlink:href="#q"/>
<use x="63.378906" xlink:href="#g"/>
<use x="91.162109" xlink:href="#i"/>
</g>
</g>
<g clip-path="url(#a)">
<g transform="translate(829.29 842.76) scale(.1 -.1)">
<use xlink:href="#f"/>
<use x="61.279297" xlink:href="#x"/>
<use x="94.734375" xlink:href="#s"/>
<use x="133.943359" xlink:href="#d"/>
<use x="195.466797" xlink:href="#h"/>
</g>
</g>
<g clip-path="url(#a)">
<defs>
<path id="av" d="m19.672 34.812v-26.703h15.828q7.9531 0 11.781 3.2969 3.8438 3.2969 3.8438 10.078 0 6.8438-3.8438 10.078-3.8281 3.25-11.781 3.25zm0 29.984v-21.969h14.609q7.2188 0 10.75 2.7031 3.5469 2.7188 3.5469 8.2812 0 5.5156-3.5469 8.25-3.5312 2.7344-10.75 2.7344zm-9.8594 8.1094h25.203q11.281 0 17.375-4.6875 6.1094-4.6875 6.1094-13.328 0-6.7031-3.125-10.656t-9.1875-4.9219q7.2812-1.5625 11.312-6.5312 4.0312-4.9531 4.0312-12.375 0-9.7656-6.6406-15.094-6.6406-5.3125-18.906-5.3125h-26.172z"/>
<path id="ap" d="m8.5 21.578v33.109h8.9844v-32.766q0-7.7656 3.0156-11.656 3.0312-3.875 9.0938-3.875 7.2656 0 11.484 4.6406 4.2344 4.6406 4.2344 12.656v31h8.9844v-54.688h-8.9844v8.4062q-3.2656-4.9844-7.5938-7.4062-4.3125-2.4219-10.031-2.4219-9.4219 0-14.312 5.8594-4.875 5.8594-4.875 17.141z"/>
</defs>
<g transform="translate(890.61 842.76) scale(.1 -.1)">
<use xlink:href="#av"/>
<use x="68.603516" xlink:href="#h"/>
<use x="109.716797" xlink:href="#ap"/>
<use x="173.095703" xlink:href="#al"/>
<use x="228.076172" xlink:href="#d"/>
</g>
</g>
<g clip-path="url(#a)">
<g transform="translate(962.77 842.76) scale(.1 -.1)">
<use xlink:href="#y"/>
<use x="53.962891" xlink:href="#d"/>
<use x="115.486328" xlink:href="#d"/>
</g>
</g>
<g clip-path="url(#a)">
<defs>
<path id="ao" d="m4.2031 54.688h8.9844l11.234-42.672 11.172 42.672h10.594l11.234-42.672 11.188 42.672h8.9844l-14.312-54.688h-10.594l-11.766 44.828-11.812-44.828h-10.609z"/>
</defs>
<g transform="translate(1030.1 842.76) scale(.1 -.1)">
<use xlink:href="#ao"/>
<use x="81.787109" xlink:href="#g"/>
<use x="109.570312" xlink:href="#s"/>
<use x="148.779297" xlink:href="#q"/>
</g>
</g>
<g clip-path="url(#a)">
<g transform="translate(1104.2 842.76) scale(.1 -.1)">
<use xlink:href="#s"/>
<use x="39.208984" xlink:href="#q"/>
<use x="102.587891" xlink:href="#d"/>
</g>
</g>
<g clip-path="url(#a)">
<g transform="translate(1177.2 842.76) scale(.1 -.1)">
<use xlink:href="#x"/>
<use x="35.205078" xlink:href="#g"/>
<use x="62.988281" xlink:href="#k"/>
<use x="90.771484" xlink:href="#i"/>
</g>
</g>
<g clip-path="url(#a)">
<defs>
<path id="at" d="m9.8125 72.906h13.281l32.328-60.984v60.984h9.5625v-72.906h-13.281l-32.312 60.984v-60.984h-9.5781z"/>
</defs>
<g transform="translate(1252.4 842.76) scale(.1 -.1)">
<use xlink:href="#at"/>
<use x="74.804688" xlink:href="#d"/>
<use x="136.328125" xlink:href="#ao"/>
</g>
</g>
<g clip-path="url(#a)">
<g transform="translate(1334.2 842.76) scale(.1 -.1)">
<use xlink:href="#v"/>
<use x="50.269531" xlink:href="#g"/>
<use x="78.052734" xlink:href="#ak"/>
<use x="130.152344" xlink:href="#s"/>
</g>
</g>
<g clip-path="url(#a)">
<g transform="translate(1419.7 842.76) scale(.1 -.1)">
<use xlink:href="#p"/>
<use x="61.181641" xlink:href="#x"/>
</g>
</g>
<g clip-path="url(#a)">
<defs>
<path id="az" d="m32.172-5.0781q-3.7969-9.7656-7.4219-12.734-3.6094-2.9844-9.6562-2.9844h-7.1875v7.5156h5.2812q3.7031 0 5.75 1.7656 2.0625 1.75 4.5469 8.2969l1.6094 4.0938-22.109 53.812h9.5156l17.094-42.766 17.094 42.766h9.5156z"/>
</defs>
<g transform="translate(1498.2 842.76) scale(.1 -.1)">
<use xlink:href="#v"/>
<use x="52.019531" xlink:href="#ap"/>
<use x="115.398438" xlink:href="#h"/>
<use x="156.511719" xlink:href="#az"/>
</g>
</g>
<g clip-path="url(#a)">
<defs>
<path id="j" d="m10.688 12.406h10.312v-12.406h-10.312z"/>
</defs>
<g transform="translate(1594.4 842.76) scale(.1 -.1)">
<use xlink:href="#j"/>
</g>
</g>
<g clip-path="url(#a)">
<defs>
<path id="u" d="m9.8125 72.906h9.8594v-72.906h-9.8594z"/>
<path id="am" d="m9.8125 72.906h14.703l18.594-49.609 18.703 49.609h14.703v-72.906h-9.625v64.016l-18.797-50h-9.9062l-18.797 50v-64.016h-9.5781z"/>
</defs>
<g transform="translate(443.87 685.31) scale(.1 -.1)">
<use xlink:href="#u"/>
<use x="29.492188" xlink:href="#am"/>
<use x="115.771484" xlink:href="#t"/>
<use x="176.074219" xlink:href="#y"/>
<use x="231.787109" xlink:href="#u"/>
<use x="261.279297" xlink:href="#r"/>
<use x="331.103516" xlink:href="#u"/>
<use x="360.595703" xlink:href="#l"/>
</g>
</g>
<g clip-path="url(#a)">
<g transform="translate(218.69 685.31) scale(.1 -.1)">
<use xlink:href="#u"/>
<use x="29.492188" xlink:href="#am"/>
<use x="115.771484" xlink:href="#t"/>
<use x="176.074219" xlink:href="#y"/>
<use x="231.787109" xlink:href="#u"/>
<use x="261.279297" xlink:href="#r"/>
<use x="331.103516" xlink:href="#u"/>
<use x="360.595703" xlink:href="#l"/>
</g>
</g>
<g clip-path="url(#a)">
<g transform="translate(471.97 42.759) scale(.1 -.1)">
<use xlink:href="#c"/>
<use x="63.623047" xlink:href="#j"/>
<use x="95.410156" xlink:href="#c"/>
</g>
</g>
<g clip-path="url(#a)">
<defs>
<path id="m" d="m19.188 8.2969h34.422v-8.2969h-46.281v8.2969q5.6094 5.8125 15.297 15.594 9.7031 9.7969 12.188 12.641 4.7344 5.3125 6.6094 9 1.8906 3.6875 1.8906 7.25 0 5.8125-4.0781 9.4688-4.0781 3.6719-10.625 3.6719-4.6406 0-9.7969-1.6094-5.1406-1.6094-11-4.8906v9.9688q5.9531 2.3906 11.125 3.6094 5.1875 1.2188 9.4844 1.2188 11.328 0 18.062-5.6719 6.7344-5.6562 6.7344-15.125 0-4.5-1.6875-8.5312-1.6719-4.0156-6.125-9.4844-1.2188-1.4219-7.7656-8.1875-6.5312-6.7656-18.453-18.922z"/>
</defs>
<g transform="translate(125.97 204.19) scale(.1 -.1)">
<use xlink:href="#c"/>
<use x="63.623047" xlink:href="#j"/>
<use x="95.410156" xlink:href="#m"/>
</g>
</g>
<g clip-path="url(#a)">
<defs>
<path id="o" d="m40.578 39.312q7.0781-1.5156 11.047-6.3125 3.9844-4.7812 3.9844-11.812 0-10.781-7.4219-16.703-7.4219-5.9062-21.094-5.9062-4.5781 0-9.4375 0.90625t-10.031 2.7188v9.5156q4.0938-2.3906 8.9688-3.6094 4.8906-1.2188 10.219-1.2188 9.2656 0 14.125 3.6562t4.8594 10.641q0 6.4531-4.5156 10.078-4.5156 3.6406-12.562 3.6406h-8.5v8.1094h8.8906q7.2656 0 11.125 2.9062t3.8594 8.375q0 5.6094-3.9844 8.6094-3.9688 3.0156-11.391 3.0156-4.0625 0-8.7031-0.89062-4.6406-0.875-10.203-2.7188v8.7812q5.625 1.5625 10.531 2.3438t9.25 0.78125q11.234 0 17.766-5.1094 6.5469-5.0938 6.5469-13.781 0-6.0625-3.4688-10.234t-9.8594-5.7812z"/>
</defs>
<g transform="translate(551.68 685.31) scale(.1 -.1)">
<use xlink:href="#c"/>
<use x="63.623047" xlink:href="#j"/>
<use x="95.410156" xlink:href="#o"/>
</g>
</g>
<g clip-path="url(#a)">
<defs>
<path id="w" d="m37.797 64.312-24.906-38.922h24.906zm-2.5938 8.5938h12.406v-47.516h10.406v-8.2031h-10.406v-17.188h-9.8125v17.188h-32.906v9.5156z"/>
</defs>
<g transform="translate(707.16 365.21) scale(.1 -.1)">
<use xlink:href="#c"/>
<use x="63.623047" xlink:href="#j"/>
<use x="95.410156" xlink:href="#w"/>
</g>
</g>
<g clip-path="url(#a)">
<g transform="translate(602.86 685.31) scale(.1 -.1)">
<use xlink:href="#c"/>
<use x="63.623047" xlink:href="#j"/>
<use x="95.410156" xlink:href="#aa"/>
</g>
</g>
<g clip-path="url(#a)">
<defs>
<path id="ae" d="m31.781 34.625q-7.0312 0-11.062-3.7656-4.0156-3.7656-4.0156-10.344 0-6.5938 4.0156-10.359 4.0312-3.7656 11.062-3.7656t11.078 3.7812q4.0625 3.7969 4.0625 10.344 0 6.5781-4.0312 10.344-4.0156 3.7656-11.109 3.7656zm-9.8594 4.1875q-6.3438 1.5625-9.8906 5.9062-3.5312 4.3594-3.5312 10.609 0 8.7344 6.2188 13.812 6.2344 5.0781 17.062 5.0781 10.891 0 17.094-5.0781t6.2031-13.812q0-6.25-3.5469-10.609-3.5312-4.3438-9.8281-5.9062 7.125-1.6562 11.094-6.5 3.9844-4.8281 3.9844-11.797 0-10.609-6.4688-16.281-6.4688-5.6562-18.531-5.6562-12.047 0-18.531 5.6562-6.4688 5.6719-6.4688 16.281 0 6.9688 4 11.797 4.0156 4.8438 11.141 6.5zm-3.6094 15.578q0-5.6562 3.5312-8.8281 3.5469-3.1719 9.9375-3.1719 6.3594 0 9.9375 3.1719 3.5938 3.1719 3.5938 8.8281 0 5.6719-3.5938 8.8438-3.5781 3.1719-9.9375 3.1719-6.3906 0-9.9375-3.1719-3.5312-3.1719-3.5312-8.8438z"/>
</defs>
<g transform="translate(656.6 685.31) scale(.1 -.1)">
<use xlink:href="#c"/>
<use x="63.623047" xlink:href="#j"/>
<use x="95.410156" xlink:href="#ae"/>
</g>
</g>
<g clip-path="url(#a)">
<g transform="translate(712.9 685.31) scale(.1 -.1)">
<use xlink:href="#c"/>
<use x="63.623047" xlink:href="#j"/>
<use x="95.410156" xlink:href="#z"/>
</g>
</g>
<g clip-path="url(#a)">
<defs>
<path id="aj" d="m31.781 66.406q-7.6094 0-11.453-7.5-3.8281-7.4844-3.8281-22.531 0-14.984 3.8281-22.484 3.8438-7.5 11.453-7.5 7.6719 0 11.5 7.5 3.8438 7.5 3.8438 22.484 0 15.047-3.8438 22.531-3.8281 7.5-11.5 7.5zm0 7.8125q12.266 0 18.734-9.7031 6.4688-9.6875 6.4688-28.141 0-18.406-6.4688-28.109-6.4688-9.6875-18.734-9.6875-12.25 0-18.719 9.6875-6.4688 9.7031-6.4688 28.109 0 18.453 6.4688 28.141 6.4688 9.7031 18.719 9.7031z"/>
</defs>
<g transform="translate(768.57 685.31) scale(.1 -.1)">
<use xlink:href="#c"/>
<use x="63.623047" xlink:href="#j"/>
<use x="95.410156" xlink:href="#c"/>
<use x="159.033203" xlink:href="#aj"/>
</g>
</g>
<g clip-path="url(#a)">
<g transform="translate(878.6 525.68) scale(.1 -.1)">
<use xlink:href="#c"/>
<use x="63.623047" xlink:href="#j"/>
<use x="95.410156" xlink:href="#c"/>
<use x="159.033203" xlink:href="#c"/>
</g>
</g>
<g clip-path="url(#a)">
<g transform="translate(1253 525.68) scale(.1 -.1)">
<use xlink:href="#c"/>
<use x="63.623047" xlink:href="#j"/>
<use x="95.410156" xlink:href="#c"/>
<use x="159.033203" xlink:href="#m"/>
</g>
</g>
<g clip-path="url(#a)">
<g transform="translate(1029.6 685.31) scale(.1 -.1)">
<use xlink:href="#c"/>
<use x="63.623047" xlink:href="#j"/>
<use x="95.410156" xlink:href="#c"/>
<use x="159.033203" xlink:href="#o"/>
</g>
</g>
<g clip-path="url(#a)">
<g transform="translate(1101.2 685.31) scale(.1 -.1)">
<use xlink:href="#c"/>
<use x="63.623047" xlink:href="#j"/>
<use x="95.410156" xlink:href="#c"/>
<use x="159.033203" xlink:href="#w"/>
</g>
</g>
<g clip-path="url(#a)">
<defs>
<path id="ai" d="m10.797 72.906h38.719v-8.3125h-29.688v-17.859q2.1406 0.73438 4.2812 1.0938 2.1562 0.35938 4.3125 0.35938 12.203 0 19.328-6.6875 7.1406-6.6875 7.1406-18.109 0-11.766-7.3281-18.297-7.3281-6.5156-20.656-6.5156-4.5938 0-9.3594 0.78125-4.75 0.78125-9.8281 2.3438v9.9219q4.3906-2.3906 9.0781-3.5625t9.9062-1.1719q8.4531 0 13.375 4.4375 4.9375 4.4375 4.9375 12.062 0 7.6094-4.9375 12.047-4.9219 4.4531-13.375 4.4531-3.9531 0-7.8906-0.875-3.9219-0.875-8.0156-2.7344z"/>
</defs>
<g transform="translate(1175.4 685.31) scale(.1 -.1)">
<use xlink:href="#c"/>
<use x="63.623047" xlink:href="#j"/>
<use x="95.410156" xlink:href="#c"/>
<use x="159.033203" xlink:href="#ai"/>
</g>
</g>
<g clip-path="url(#a)">
<g transform="translate(1373.8 685.31) scale(.1 -.1)">
<use xlink:href="#c"/>
<use x="63.623047" xlink:href="#j"/>
<use x="95.410156" xlink:href="#c"/>
<use x="159.033203" xlink:href="#af"/>
</g>
</g>
<g clip-path="url(#a)">
<g transform="translate(829.99 685.31) scale(.1 -.1)">
<use xlink:href="#c"/>
<use x="63.623047" xlink:href="#j"/>
<use x="95.410156" xlink:href="#c"/>
<use x="159.033203" xlink:href="#aa"/>
</g>
</g>
<g clip-path="url(#a)">
<g transform="translate(927.22 685.31) scale(.1 -.1)">
<use xlink:href="#c"/>
<use x="63.623047" xlink:href="#j"/>
<use x="95.410156" xlink:href="#c"/>
<use x="159.033203" xlink:href="#ae"/>
</g>
</g>
<g clip-path="url(#a)">
<g transform="translate(64.867 685.31) scale(.1 -.1)">
<use xlink:href="#c"/>
<use x="63.623047" xlink:href="#j"/>
<use x="95.410156" xlink:href="#c"/>
<use x="159.033203" xlink:href="#z"/>
</g>
</g>
<g clip-path="url(#a)">
<g transform="translate(72.544 685.31) scale(.1 -.1)">
<use xlink:href="#c"/>
<use x="63.623047" xlink:href="#j"/>
<use x="95.410156" xlink:href="#m"/>
<use x="159.033203" xlink:href="#aj"/>
</g>
</g>
<g clip-path="url(#a)">
<g transform="translate(82.78 685.31) scale(.1 -.1)">
<use xlink:href="#c"/>
<use x="63.623047" xlink:href="#j"/>
<use x="95.410156" xlink:href="#m"/>
<use x="159.033203" xlink:href="#c"/>
</g>
</g>
<g clip-path="url(#a)">
<g transform="translate(116.05 365.21) scale(.1 -.1)">
<use xlink:href="#c"/>
<use x="63.623047" xlink:href="#j"/>
<use x="95.410156" xlink:href="#m"/>
<use x="159.033203" xlink:href="#m"/>
</g>
</g>
<g clip-path="url(#a)">
<g transform="translate(277.71 365.21) scale(.1 -.1)">
<use xlink:href="#c"/>
<use x="63.623047" xlink:href="#j"/>
<use x="95.410156" xlink:href="#m"/>
<use x="159.033203" xlink:href="#o"/>
</g>
</g>
<g clip-path="url(#a)">
<g transform="translate(149.31 685.31) scale(.1 -.1)">
<use xlink:href="#c"/>
<use x="63.623047" xlink:href="#j"/>
<use x="95.410156" xlink:href="#m"/>
<use x="159.033203" xlink:href="#w"/>
</g>
</g>
<g clip-path="url(#a)">
<g transform="translate(172.34 685.31) scale(.1 -.1)">
<use xlink:href="#c"/>
<use x="63.623047" xlink:href="#j"/>
<use x="95.410156" xlink:href="#m"/>
<use x="159.033203" xlink:href="#ai"/>
</g>
</g>
<g clip-path="url(#a)">
<g transform="translate(235.68 525.68) scale(.1 -.1)">
<use xlink:href="#c"/>
<use x="63.623047" xlink:href="#j"/>
<use x="95.410156" xlink:href="#m"/>
<use x="159.033203" xlink:href="#af"/>
</g>
</g>
<g clip-path="url(#a)">
<g transform="translate(259.35 685.31) scale(.1 -.1)">
<use xlink:href="#c"/>
<use x="63.623047" xlink:href="#j"/>
<use x="95.410156" xlink:href="#m"/>
<use x="159.033203" xlink:href="#aa"/>
</g>
</g>
<g clip-path="url(#a)">
<g transform="translate(329.29 685.31) scale(.1 -.1)">
<use xlink:href="#c"/>
<use x="63.623047" xlink:href="#j"/>
<use x="95.410156" xlink:href="#m"/>
<use x="159.033203" xlink:href="#ae"/>
</g>
</g>
<g clip-path="url(#a)">
<g transform="translate(390.28 525.68) scale(.1 -.1)">
<use xlink:href="#c"/>
<use x="63.623047" xlink:href="#j"/>
<use x="95.410156" xlink:href="#m"/>
<use x="159.033203" xlink:href="#z"/>
</g>
</g>
<g clip-path="url(#a)">
<g transform="translate(451.26 685.31) scale(.1 -.1)">
<use xlink:href="#c"/>
<use x="63.623047" xlink:href="#j"/>
<use x="95.410156" xlink:href="#o"/>
<use x="159.033203" xlink:href="#m"/>
</g>
</g>
<g clip-path="url(#a)">
<g transform="translate(212.01 685.31) scale(.1 -.1)">
<use xlink:href="#c"/>
<use x="63.623047" xlink:href="#j"/>
<use x="95.410156" xlink:href="#o"/>
<use x="159.033203" xlink:href="#w"/>
</g>
</g>
<g clip-path="url(#a)">
<g transform="translate(103.25 525.68) scale(.1 -.1)">
<use xlink:href="#c"/>
<use x="63.623047" xlink:href="#j"/>
<use x="95.410156" xlink:href="#o"/>
<use x="159.033203" xlink:href="#ai"/>
</g>
</g>
<g clip-path="url(#a)">
<g transform="translate(128.84 685.31) scale(.1 -.1)">
<use xlink:href="#c"/>
<use x="63.623047" xlink:href="#j"/>
<use x="95.410156" xlink:href="#o"/>
<use x="159.033203" xlink:href="#af"/>
</g>
</g>
<g clip-path="url(#a)">
<g transform="translate(95.574 685.31) scale(.1 -.1)">
<use xlink:href="#c"/>
<use x="63.623047" xlink:href="#j"/>
<use x="95.410156" xlink:href="#o"/>
<use x="159.033203" xlink:href="#aa"/>
</g>
</g>
<g clip-path="url(#a)">
<g transform="translate(110.93 685.31) scale(.1 -.1)">
<use xlink:href="#c"/>
<use x="63.623047" xlink:href="#j"/>
<use x="95.410156" xlink:href="#o"/>
<use x="159.033203" xlink:href="#ae"/>
</g>
</g>
<g clip-path="url(#a)">
<g transform="translate(407.76 685.31) scale(.1 -.1)">
<use xlink:href="#c"/>
<use x="63.623047" xlink:href="#j"/>
<use x="95.410156" xlink:href="#o"/>
<use x="159.033203" xlink:href="#z"/>
</g>
</g>
<g clip-path="url(#a)">
<g transform="translate(499.88 685.31) scale(.1 -.1)">
<use xlink:href="#c"/>
<use x="63.623047" xlink:href="#j"/>
<use x="95.410156" xlink:href="#w"/>
<use x="159.033203" xlink:href="#aj"/>
</g>
</g>
<g clip-path="url(#a)">
<g transform="translate(1584.9 685.31) scale(.1 -.1)">
<use xlink:href="#c"/>
<use x="63.623047" xlink:href="#j"/>
<use x="95.410156" xlink:href="#w"/>
<use x="159.033203" xlink:href="#c"/>
</g>
</g>
<defs>
<clipPath id="a">
<rect width="1672" height="880"/>
</clipPath>
</defs>
</svg>
