<?xml version="1.0" encoding="UTF-8"?>
<!DOCTYPE svg  PUBLIC '-//W3C//DTD SVG 1.1//EN'  'http://www.w3.org/Graphics/SVG/1.1/DTD/svg11.dtd'>
<svg width="1672pt" height="880pt" version="1.1" viewBox="0 0 1672 880" xmlns="http://www.w3.org/2000/svg" xmlns:xlink="http://www.w3.org/1999/xlink">
<defs>
<style type="text/css">*{stroke-linecap:butt;stroke-linejoin:round;}</style>
</defs>
<path d="m0 880h1672v-880h-1672z" fill="#fff"/>
<g fill="none" stroke="#000">
<path d="m461.63 40-385.63 642.55" clip-path="url(#a)"/>
<path d="m461.63 40-354.07 161.43" clip-path="url(#a)"/>
<path d="m461.63 40-277.97 642.55" clip-path="url(#a)"/>
<path d="m461.63 40-238.24 482.92" clip-path="url(#a)"/>
<path d="m461.63 40-33.079 161.43" clip-path="url(#a)"/>
<path d="m461.63 40 375.65 642.55" clip-path="url(#a)"/>
<path d="m461.63 40 792.6 322.45" clip-path="url(#a)"/>
<path d="m461.63 40-193.39 642.55" clip-path="url(#a)"/>
<path d="m461.63 40 314.13 642.55" clip-path="url(#a)"/>
<path d="m76 682.55v157.45" clip-path="url(#a)"/>
<path d="m107.56 201.43-23.87 481.13" clip-path="url(#a)"/>
<path d="m107.56 201.43-13.617 481.13" clip-path="url(#a)"/>
<path d="m107.56 201.43-0.80101 481.13" clip-path="url(#a)"/>
<path d="m107.56 201.43 38.288 161.02" clip-path="url(#a)"/>
<path d="m183.66 682.55v157.45" clip-path="url(#a)"/>
<path d="m223.39 522.92-14.098 159.64" clip-path="url(#a)"/>
<path d="m223.39 522.92 14.098 159.64" clip-path="url(#a)"/>
<path d="m428.55 201.43-126.99 481.13" clip-path="url(#a)"/>
<path d="m428.55 201.43-91.102 481.13" clip-path="url(#a)"/>
<path d="m428.55 201.43 11.428 321.49" clip-path="url(#a)"/>
<path d="m428.55 201.43 206.66 161.02" clip-path="url(#a)"/>
<path d="m837.28 682.55v157.45" clip-path="url(#a)"/>
<path d="m1254.2 362.45 341.77 160.47" clip-path="url(#a)"/>
<path d="m1254.2 362.45-268.29 160.47" clip-path="url(#a)"/>
<path d="m1254.2 362.45-70.062 320.11" clip-path="url(#a)"/>
<path d="m1254.2 362.45 252.91 160.47" clip-path="url(#a)"/>
<path d="m1254.2 362.45 85.441 320.11" clip-path="url(#a)"/>
<path d="m985.95 522.92-51.265 159.64" clip-path="url(#a)"/>
<path d="m985.95 522.92 51.265 159.64" clip-path="url(#a)"/>
<path d="m1184.2 682.55-75.188 157.45" clip-path="url(#a)"/>
<path d="m1184.2 682.55-0.85441 157.45" clip-path="url(#a)"/>
<path d="m1184.2 682.55 76.043 157.45" clip-path="url(#a)"/>
<path d="m1507.1 522.92-85.441 159.64" clip-path="url(#a)"/>
<path d="m1507.1 522.92-0.85441 159.64" clip-path="url(#a)"/>
<path d="m1507.1 522.92 86.296 159.64" clip-path="url(#a)"/>
<path d="m1421.7 682.55v157.45" clip-path="url(#a)"/>
<path d="m1506.3 682.55v157.45" clip-path="url(#a)"/>
<path d="m934.68 682.55-33.322 157.45" clip-path="url(#a)"/>
<path d="m934.68 682.55 33.322 157.45" clip-path="url(#a)"/>
<path d="m1037.2 682.55v157.45" clip-path="url(#a)"/>
<path d="m301.56 682.55v157.45" clip-path="url(#a)"/>
<path d="m337.45 682.55v157.45" clip-path="url(#a)"/>
<path d="m439.98 522.92-64.081 159.64" clip-path="url(#a)"/>
<path d="m439.98 522.92-23.069 159.64" clip-path="url(#a)"/>
<path d="m439.98 522.92 20.506 159.64" clip-path="url(#a)"/>
<path d="m439.98 522.92 66.644 159.64" clip-path="url(#a)"/>
<path d="m635.21 362.45-79.888 320.11" clip-path="url(#a)"/>
<path d="m635.21 362.45-1.7088 160.47" clip-path="url(#a)"/>
<path d="m635.21 362.45 81.596 320.11" clip-path="url(#a)"/>
<path d="m555.33 682.55v157.45" clip-path="url(#a)"/>
<path d="m633.5 522.92-26.914 159.64" clip-path="url(#a)"/>
<path d="m633.5 522.92 26.914 159.64" clip-path="url(#a)"/>
<path d="m716.81 682.55v157.45" clip-path="url(#a)"/>
<path d="m606.59 682.55v157.45" clip-path="url(#a)"/>
<path d="m660.42 682.55v157.45" clip-path="url(#a)"/>
<path d="m375.9 682.55v157.45" clip-path="url(#a)"/>
<path d="m416.91 682.55v157.45" clip-path="url(#a)"/>
<path d="m460.49 682.55v157.45" clip-path="url(#a)"/>
<path d="m506.62 682.55v157.45" clip-path="url(#a)"/>
<path d="m209.29 682.55v157.45" clip-path="url(#a)"/>
<path d="m237.48 682.55v157.45" clip-path="url(#a)"/>
<path d="m83.69 682.55v157.45" clip-path="url(#a)"/>
<path d="m93.943 682.55v157.45" clip-path="url(#a)"/>
<path d="m106.76 682.55v157.45" clip-path="url(#a)"/>
<path d="m145.85 362.45-14.739 160.47" clip-path="url(#a)"/>
<path d="m145.85 362.45 14.739 320.11" clip-path="url(#a)"/>
<path d="m131.11 522.92-8.9713 159.64" clip-path="url(#a)"/>
<path d="m131.11 522.92 8.9713 159.64" clip-path="url(#a)"/>
<path d="m160.59 682.55v157.45" clip-path="url(#a)"/>
<path d="m122.14 682.55v157.45" clip-path="url(#a)"/>
<path d="m140.08 682.55v157.45" clip-path="url(#a)"/>
<path d="m268.24 682.55v157.45" clip-path="url(#a)"/>
<path d="m775.76 682.55v157.45" clip-path="url(#a)"/>
<path d="m1339.7 682.55v157.45" clip-path="url(#a)"/>
<path d="m1593.4 682.55v157.45" clip-path="url(#a)"/>
</g>
<path d="m273.05 366.42 2.2938-3.822q1.235-2.0578-0.82282-3.2929l-6.6387-3.9842q-2.0578-1.235-3.2929 0.82282l-2.2938 3.822q-1.235 2.0578 0.82282 3.2929l6.6387 3.9842q2.0578 1.235 3.2929-0.82282z" clip-path="url(#a)" fill="#fff" stroke="#fff"/>
<g clip-path="url(#a)">
<defs>
<path id="ad" d="m9.8125 72.906h9.8594v-64.609h35.5v-8.2969h-45.359z"/>
</defs>
<g transform="translate(269.56 364.32) rotate(-59.03) scale(.08 -.08)">
<use xlink:href="#ad"/>
</g>
</g>
<path d="m284.46 127.67 5.4742-2.4958q2.1838-0.99561 1.1881-3.1794l-3.2119-7.0449q-0.99561-2.1838-3.1794-1.1881l-5.4742 2.4958q-2.1838 0.99561-1.1881 3.1794l3.2119 7.0449q0.99561 2.1838 3.1794 1.1881z" clip-path="url(#a)" fill="#fff" stroke="#fff"/>
<g clip-path="url(#a)">
<defs>
<path id="af" d="m9.8125 72.906h9.8594v-29.891h35.844v29.891h9.8594v-72.906h-9.8594v34.719h-35.844v-34.719h-9.8594z"/>
</defs>
<g transform="translate(282.77 123.97) rotate(-24.509) scale(.08 -.08)">
<use xlink:href="#af"/>
</g>
</g>
<path d="m327.51 365.81 1.7698-4.0911q0.95291-2.2027-1.2498-3.1556l-7.1061-3.0741q-2.2027-0.95291-3.1556 1.2498l-1.7698 4.0911q-0.95292 2.2027 1.2498 3.1556l7.1061 3.0741q2.2027 0.95291 3.1556-1.2498z" clip-path="url(#a)" fill="#fff" stroke="#fff"/>
<g clip-path="url(#a)">
<g transform="translate(323.78 364.2) rotate(-66.606) scale(.08 -.08)">
<use xlink:href="#ad"/>
</g>
</g>
<path d="m346.8 286.93 2.6618-5.3954q1.0618-2.1523-1.0905-3.2142l-6.9435-3.4255q-2.1523-1.0618-3.2142 1.0905l-2.6618 5.3954q-1.0618 2.1523 1.0905 3.2142l6.9435 3.4255q2.1523 1.0618 3.2142-1.0905z" clip-path="url(#a)" fill="#fff" stroke="#fff"/>
<g clip-path="url(#a)">
<g transform="translate(343.16 285.13) rotate(-63.741) scale(.08 -.08)">
<use xlink:href="#af"/>
</g>
</g>
<path d="m450.63 124.92 1.2077-5.8938q0.48179-2.3511-1.8694-2.8329l-7.5849-1.5543q-2.3511-0.48179-2.8329 1.8694l-1.2077 5.8938q-0.48179 2.3511 1.8694 2.8329l7.5849 1.5543q2.3511 0.48179 2.8329-1.8694z" clip-path="url(#a)" fill="#fff" stroke="#fff"/>
<g clip-path="url(#a)">
<g transform="translate(446.65 124.1) rotate(-78.42) scale(.08 -.08)">
<use xlink:href="#af"/>
</g>
</g>
<path d="m642.92 362.52 2.2497 3.8481q1.2113 2.0719 3.2832 0.86063l6.6841-3.9076q2.0719-1.2113 0.86063-3.2832l-2.2497-3.8481q-1.2113-2.0719-3.2832-0.86063l-6.6841 3.9076q-2.0719 1.2113-0.86063 3.2832z" clip-path="url(#a)" fill="#fff" stroke="#fff"/>
<g clip-path="url(#a)">
<g transform="translate(646.43 360.47) rotate(59.689) scale(.08 -.08)">
<use xlink:href="#ad"/>
</g>
</g>
<path d="m852.78 205.9 5.5728 2.2671q2.2231 0.90439 3.1275-1.3187l2.9176-7.1717q0.90439-2.2231-1.3187-3.1275l-5.5728-2.2671q-2.2231-0.90439-3.1275 1.3187l-2.9176 7.1717q-0.90439 2.2231 1.3187 3.1275z" clip-path="url(#a)" fill="#fff" stroke="#fff"/>
<g clip-path="url(#a)">
<g transform="translate(854.31 202.13) rotate(22.137) scale(.08 -.08)">
<use xlink:href="#af"/>
</g>
</g>
<path d="m370.1 365.89 1.6874-5.6066q0.69168-2.2982-1.6065-2.9898l-7.414-2.2314q-2.2982-0.69167-2.9898 1.6065l-1.6874 5.6066q-0.69167 2.2982 1.6065 2.9898l7.414 2.2314q2.2982 0.69167 2.9898-1.6065z" clip-path="url(#a)" fill="#fff" stroke="#fff"/>
<g clip-path="url(#a)">
<defs>
<path id="ac" d="m8.6875 72.906h9.9219v-44.297q0-11.719 4.2344-16.875 4.25-5.1406 13.781-5.1406 9.4688 0 13.719 5.1406 4.25 5.1562 4.25 16.875v44.297h9.9062v-45.516q0-14.25-7.0625-21.531-7.0469-7.2812-20.812-7.2812-13.828 0-20.891 7.2812-7.0469 7.2812-7.0469 21.531z"/>
</defs>
<g transform="translate(366.21 364.72) rotate(-73.25) scale(.08 -.08)">
<use xlink:href="#ac"/>
</g>
</g>
<path d="m611.78 361.4 2.5715 5.2601q1.0541 2.1561 3.2102 1.102l6.9558-3.4005q2.1561-1.0541 1.102-3.2102l-2.5715-5.2601q-1.0541-2.1561-3.2102-1.102l-6.9558 3.4005q-2.1561 1.0541-1.102 3.2102z" clip-path="url(#a)" fill="#fff" stroke="#fff"/>
<g clip-path="url(#a)">
<g transform="translate(615.43 359.62) rotate(63.947) scale(.08 -.08)">
<use xlink:href="#ac"/>
</g>
</g>
<path d="m69.729 744.37v33.808q0 2.4 2.4 2.4h7.7425q2.4 0 2.4-2.4v-33.808q0-2.4-2.4-2.4h-7.7425q-2.4 0-2.4 2.4z" clip-path="url(#a)" fill="#fff" stroke="#fff"/>
<g clip-path="url(#a)">
<defs>
<path id="j" d="m-0.29688 72.906h61.672v-8.3125h-25.875v-64.594h-9.9062v64.594h-25.891z"/>
<path id="e" d="m56.203 29.594v-4.3906h-41.312q0.59375-9.2812 5.5938-14.141t13.938-4.8594q5.1719 0 10.031 1.2656t9.6562 3.8125v-8.5q-4.8438-2.0469-9.9219-3.125t-10.297-1.0781q-13.094 0-20.734 7.6094-7.6406 7.625-7.6406 20.625 0 13.422 7.25 21.297 7.25 7.8906 19.562 7.8906 11.031 0 17.453-7.1094 6.4219-7.0938 6.4219-19.297zm-8.9844 2.6406q-0.09375 7.3594-4.125 11.75-4.0312 4.4062-10.672 4.4062-7.5156 0-12.031-4.25t-5.2031-11.969z"/>
<path id="f" d="m41.109 46.297q-1.5156 0.875-3.2969 1.2812-1.7812 0.42188-3.9219 0.42188-7.625 0-11.703-4.9531t-4.0781-14.234v-28.812h-9.0312v54.688h9.0312v-8.5q2.8438 4.9844 7.375 7.3906 4.5469 2.4219 11.047 2.4219 0.92188 0 2.0469-0.125 1.125-0.10938 2.4844-0.35938z"/>
<path id="l" d="m52 44.188q3.375 6.0625 8.0625 8.9375t11.031 2.875q8.5469 0 13.188-5.9844 4.6406-5.9688 4.6406-17v-33.016h-9.0312v32.719q0 7.8594-2.7969 11.656-2.7812 3.8125-8.4844 3.8125-6.9844 0-11.047-4.6406-4.0469-4.625-4.0469-12.641v-30.906h-9.0312v32.719q0 7.9062-2.7812 11.688t-8.5938 3.7812q-6.8906 0-10.953-4.6562-4.0469-4.6562-4.0469-12.625v-30.906h-9.0312v54.688h9.0312v-8.5q3.0781 5.0312 7.375 7.4219t10.203 2.3906q5.9688 0 10.141-3.0312 4.1719-3.0156 6.1719-8.7812z"/>
<path id="d" d="m9.4219 54.688h8.9844v-54.688h-8.9844zm0 21.297h8.9844v-11.391h-8.9844z"/>
<path id="i" d="m54.891 33.016v-33.016h-8.9844v32.719q0 7.7656-3.0312 11.609-3.0312 3.8594-9.0781 3.8594-7.2812 0-11.484-4.6406-4.2031-4.625-4.2031-12.641v-30.906h-9.0312v54.688h9.0312v-8.5q3.2344 4.9375 7.5938 7.375 4.375 2.4375 10.094 2.4375 9.4219 0 14.25-5.8281 4.8438-5.8281 4.8438-17.156z"/>
<path id="h" d="m34.281 27.484q-10.891 0-15.094-2.4844t-4.2031-8.5q0-4.7812 3.1562-7.5938 3.1562-2.7969 8.5625-2.7969 7.4844 0 12 5.2969t4.5156 14.078v2zm17.922 3.7188v-31.203h-8.9844v8.2969q-3.0781-4.9688-7.6719-7.3438t-11.234-2.375q-8.3906 0-13.359 4.7188-4.9531 4.7188-4.9531 12.625 0 9.2188 6.1719 13.906 6.1875 4.6875 18.438 4.6875h12.609v0.89062q0 6.2031-4.0781 9.5938t-11.453 3.3906q-4.6875 0-9.1406-1.125-4.4375-1.125-8.5312-3.375v8.3125q4.9219 1.9062 9.5625 2.8438 4.6406 0.95312 9.0312 0.95312 11.875 0 17.734-6.1562 5.8594-6.1406 5.8594-18.641z"/>
<path id="k" d="m9.4219 75.984h8.9844v-75.984h-8.9844z"/>
</defs>
<g transform="translate(73.792 744.37) rotate(90) scale(.08 -.08)">
<use xlink:href="#j"/>
<use x="44.083984" xlink:href="#e"/>
<use x="105.607422" xlink:href="#f"/>
<use x="144.970703" xlink:href="#l"/>
<use x="242.382812" xlink:href="#d"/>
<use x="270.166016" xlink:href="#i"/>
<use x="333.544922" xlink:href="#h"/>
<use x="394.824219" xlink:href="#k"/>
</g>
</g>
<path d="m101.75 445.03 0.27117-5.4658q0.11892-2.3971-2.2781-2.516l-7.733-0.38366q-2.3971-0.11892-2.516 2.2781l-0.27117 5.4658q-0.11892 2.3971 2.2781 2.516l7.733 0.38366q2.3971 0.11892 2.516-2.2781z" clip-path="url(#a)" fill="#fff" stroke="#fff"/>
<g clip-path="url(#a)">
<defs>
<path id="r" d="m34.188 63.188-13.391-36.281h26.812zm-5.5781 9.7188h11.188l27.781-72.906h-10.25l-6.6406 18.703h-32.859l-6.6406-18.703h-10.406z"/>
</defs>
<g transform="translate(97.694 444.83) rotate(-87.16) scale(.08 -.08)">
<use xlink:href="#r"/>
</g>
</g>
<path d="m106.95 444.47 0.13018-4.5994q0.067899-2.399-2.3311-2.4669l-7.7394-0.21904q-2.399-0.0679-2.4669 2.3311l-0.13018 4.5994q-0.067899 2.399 2.3311 2.4669l7.7394 0.21905q2.399 0.067899 2.4669-2.3311z" clip-path="url(#a)" fill="#fff" stroke="#fff"/>
<g clip-path="url(#a)">
<defs>
<path id="at" d="m9.8125 72.906h41.891v-8.3125h-32.031v-21.484h28.906v-8.2969h-28.906v-34.812h-9.8594z"/>
</defs>
<g transform="translate(102.89 444.35) rotate(-88.379) scale(.08 -.08)">
<use xlink:href="#at"/>
</g>
</g>
<path d="m113.43 444.41 0.008031-4.8237q0.003996-2.4-2.396-2.404l-7.7425-0.012891q-2.4-0.003995-2.404 2.396l-0.008031 4.8237q-0.003995 2.4 2.396 2.404l7.7425 0.01289q2.4 0.003996 2.404-2.396z" clip-path="url(#a)" fill="#fff" stroke="#fff"/>
<g clip-path="url(#a)">
<defs>
<path id="x" d="m19.672 64.797v-27.391h12.406q6.8906 0 10.641 3.5625 3.7656 3.5625 3.7656 10.156 0 6.5469-3.7656 10.109-3.75 3.5625-10.641 3.5625zm-9.8594 8.1094h22.266q12.266 0 18.531-5.5469 6.2812-5.5469 6.2812-16.234 0-10.797-6.2812-16.312-6.2656-5.5156-18.531-5.5156h-12.406v-29.297h-9.8594z"/>
</defs>
<g transform="translate(109.36 444.41) rotate(-89.905) scale(.08 -.08)">
<use xlink:href="#x"/>
</g>
</g>
<path d="m119.97 280.72 1.266 5.3241q0.55521 2.3349 2.8901 1.7797l7.5325-1.7911q2.3349-0.55521 1.7797-2.8901l-1.266-5.3241q-0.55521-2.3349-2.8901-1.7797l-7.5325 1.7911q-2.3349 0.55521-1.7797 2.8901z" clip-path="url(#a)" fill="#fff" stroke="#fff"/>
<g clip-path="url(#a)">
<g transform="translate(123.92 279.78) rotate(76.624) scale(.08 -.08)">
<use xlink:href="#r"/>
</g>
</g>
<path d="m177.38 744.37v33.808q0 2.4 2.4 2.4h7.7425q2.4 0 2.4-2.4v-33.808q0-2.4-2.4-2.4h-7.7425q-2.4 0-2.4 2.4z" clip-path="url(#a)" fill="#fff" stroke="#fff"/>
<g clip-path="url(#a)">
<g transform="translate(181.45 744.37) rotate(90) scale(.08 -.08)">
<use xlink:href="#j"/>
<use x="44.083984" xlink:href="#e"/>
<use x="105.607422" xlink:href="#f"/>
<use x="144.970703" xlink:href="#l"/>
<use x="242.382812" xlink:href="#d"/>
<use x="270.166016" xlink:href="#i"/>
<use x="333.544922" xlink:href="#h"/>
<use x="394.824219" xlink:href="#k"/>
</g>
</g>
<path d="m222.34 606.01 0.48142-5.4513q0.21113-2.3907-2.1796-2.6018l-7.7125-0.68111q-2.3907-0.21113-2.6018 2.1796l-0.48142 5.4513q-0.21113 2.3907 2.1796 2.6018l7.7125 0.68111q2.3907 0.21113 2.6018-2.1796z" clip-path="url(#a)" fill="#fff" stroke="#fff"/>
<g clip-path="url(#a)">
<g transform="translate(218.3 605.66) rotate(-84.953) scale(.08 -.08)">
<use xlink:href="#r"/>
</g>
</g>
<path d="m223.98 600.89 0.42434 4.805q0.21113 2.3907 2.6018 2.1796l7.7125-0.68111q2.3907-0.21113 2.1796-2.6018l-0.42435-4.805q-0.21113-2.3907-2.6018-2.1796l-7.7125 0.68111q-2.3907 0.21113-2.1796 2.6018z" clip-path="url(#a)" fill="#fff" stroke="#fff"/>
<g clip-path="url(#a)">
<g transform="translate(228.02 600.53) rotate(84.953) scale(.08 -.08)">
<use xlink:href="#x"/>
</g>
</g>
<path d="m370.42 446.24 1.3966-5.2913q0.61247-2.3205-1.7081-2.933l-7.4861-1.9759q-2.3205-0.61247-2.933 1.7081l-1.3966 5.2913q-0.61247 2.3205 1.7081 2.933l7.4861 1.9759q2.3205 0.61247 2.933-1.7081z" clip-path="url(#a)" fill="#fff" stroke="#fff"/>
<g clip-path="url(#a)">
<g transform="translate(366.49 445.2) rotate(-75.215) scale(.08 -.08)">
<use xlink:href="#r"/>
</g>
</g>
<path d="m388.69 445.65 0.94487-4.9901q0.44651-2.3581-1.9116-2.8046l-7.6073-1.4404q-2.3581-0.44651-2.8046 1.9116l-0.94487 4.9901q-0.44651 2.3581 1.9116 2.8046l7.6073 1.4404q2.3581 0.44651 2.8046-1.9116z" clip-path="url(#a)" fill="#fff" stroke="#fff"/>
<g clip-path="url(#a)">
<defs>
<path id="aq" d="m53.516 70.516v-9.625q-5.6094 2.6875-10.594 4-4.9844 1.3281-9.625 1.3281-8.0469 0-12.422-3.125t-4.375-8.8906q0-4.8438 2.9062-7.3125 2.9062-2.4531 11.016-3.9688l5.9531-1.2188q11.031-2.1094 16.281-7.4062t5.25-14.172q0-10.609-7.1094-16.078-7.0938-5.4688-20.812-5.4688-5.1719 0-11.016 1.1719-5.8281 1.1719-12.078 3.4688v10.156q6-3.3594 11.766-5.0781 5.7656-1.7031 11.328-1.7031 8.4375 0 13.031 3.3125 4.5938 3.3281 4.5938 9.4844 0 5.3594-3.2969 8.3906t-10.812 4.5469l-6.0156 1.1719q-11.031 2.1875-15.969 6.875-4.9219 4.6875-4.9219 13.047 0 9.6719 6.8125 15.234t18.766 5.5625q5.1406 0 10.453-0.9375 5.3281-0.92188 10.891-2.7656z"/>
</defs>
<g transform="translate(384.7 444.9) rotate(-79.278) scale(.08 -.08)">
<use xlink:href="#aq"/>
</g>
</g>
<path d="m427.9 359.66 0.1944 5.469q0.085257 2.3985 2.4837 2.3132l7.7376-0.27504q2.3985-0.085257 2.3132-2.4837l-0.1944-5.469q-0.085256-2.3985-2.4837-2.3132l-7.7376 0.27504q-2.3985 0.085256-2.3132 2.4837z" clip-path="url(#a)" fill="#fff" stroke="#fff"/>
<g clip-path="url(#a)">
<g transform="translate(431.96 359.52) rotate(87.964) scale(.08 -.08)">
<use xlink:href="#r"/>
</g>
</g>
<path d="m526.1 285.38 3.8544 3.0032q1.8932 1.4751 3.3683-0.41812l4.7586-6.1075q1.4751-1.8932-0.41812-3.3683l-3.8544-3.0032q-1.8932-1.4751-3.3683 0.41812l-4.7586 6.1075q-1.4751 1.8932 0.41812 3.3683z" clip-path="url(#a)" fill="#fff" stroke="#fff"/>
<g clip-path="url(#a)">
<g transform="translate(528.6 282.18) rotate(37.924) scale(.08 -.08)">
<use xlink:href="#j"/>
</g>
</g>
<path d="m831.01 744.37v33.808q0 2.4 2.4 2.4h7.7425q2.4 0 2.4-2.4v-33.808q0-2.4-2.4-2.4h-7.7425q-2.4 0-2.4 2.4z" clip-path="url(#a)" fill="#fff" stroke="#fff"/>
<g clip-path="url(#a)">
<g transform="translate(835.07 744.37) rotate(90) scale(.08 -.08)">
<use xlink:href="#j"/>
<use x="44.083984" xlink:href="#e"/>
<use x="105.607422" xlink:href="#f"/>
<use x="144.970703" xlink:href="#l"/>
<use x="242.382812" xlink:href="#d"/>
<use x="270.166016" xlink:href="#i"/>
<use x="333.544922" xlink:href="#h"/>
<use x="394.824219" xlink:href="#k"/>
</g>
</g>
<path d="m1420.3 447.33 4.3664 2.0502q2.1724 1.0201 3.1925-1.1524l3.2907-7.0084q1.0201-2.1724-1.1524-3.1925l-4.3664-2.0502q-2.1724-1.0201-3.1925 1.1524l-3.2907 7.0084q-1.0201 2.1724 1.1524 3.1925z" clip-path="url(#a)" fill="#fff" stroke="#fff"/>
<g clip-path="url(#a)">
<g transform="translate(1422 443.66) rotate(25.152) scale(.08 -.08)">
<use xlink:href="#x"/>
</g>
</g>
<path d="m1121 449.47 4.6965-2.8092q2.0597-1.232 0.82769-3.2916l-3.9744-6.6446q-1.232-2.0597-3.2916-0.82769l-4.6965 2.8092q-2.0597 1.232-0.82769 3.2916l3.9744 6.6446q1.232 2.0597 3.2916 0.82769z" clip-path="url(#a)" fill="#fff" stroke="#fff"/>
<g clip-path="url(#a)">
<g transform="translate(1118.9 445.98) rotate(-30.885) scale(.08 -.08)">
<use xlink:href="#r"/>
</g>
</g>
<path d="m1224.7 526.51 1.1701-5.346q0.51314-2.3445-1.8314-2.8576l-7.5635-1.6554q-2.3445-0.51314-2.8576 1.8314l-1.1701 5.346q-0.51314 2.3445 1.8314 2.8576l7.5635 1.6554q2.3445 0.51314 2.8576-1.8314z" clip-path="url(#a)" fill="#fff" stroke="#fff"/>
<g clip-path="url(#a)">
<g transform="translate(1220.8 525.65) rotate(-77.654) scale(.08 -.08)">
<use xlink:href="#r"/>
</g>
</g>
<path d="m1375.3 446.67 4.1258 2.6179q2.0265 1.2858 3.3123-0.74065l4.1482-6.5375q1.2858-2.0265-0.74065-3.3123l-4.1258-2.6179q-2.0265-1.2858-3.3123 0.74065l-4.1482 6.5375q-1.2858 2.0265 0.74065 3.3123z" clip-path="url(#a)" fill="#fff" stroke="#fff"/>
<g clip-path="url(#a)">
<g transform="translate(1377.4 443.24) rotate(32.396) scale(.08 -.08)">
<use xlink:href="#j"/>
</g>
</g>
<path d="m1290.1 521.29 1.5099 5.657q0.61892 2.3188 2.9377 1.6999l7.4806-1.9967q2.3188-0.61892 1.6999-2.9377l-1.5099-5.657q-0.61892-2.3188-2.9377-1.6999l-7.4806 1.9967q-2.3188 0.61892-1.6999 2.9377z" clip-path="url(#a)" fill="#fff" stroke="#fff"/>
<g clip-path="url(#a)">
<g transform="translate(1294.1 520.24) rotate(75.055) scale(.08 -.08)">
<use xlink:href="#ac"/>
</g>
</g>
<path d="m965.43 607.31 1.708-5.3187q0.73382-2.2851-1.5512-3.0189l-7.3717-2.3673q-2.2851-0.73382-3.0189 1.5512l-1.708 5.3187q-0.73382 2.2851 1.5512 3.0189l7.3717 2.3673q2.2851 0.73382 3.0189-1.5512z" clip-path="url(#a)" fill="#fff" stroke="#fff"/>
<g clip-path="url(#a)">
<defs>
<path id="q" d="m64.406 67.281v-10.391q-4.9844 4.6406-10.625 6.9219-5.6406 2.2969-11.984 2.2969-12.5 0-19.141-7.6406t-6.6406-22.094q0-14.406 6.6406-22.047t19.141-7.6406q6.3438 0 11.984 2.2969t10.625 6.9375v-10.312q-5.1719-3.5156-10.969-5.2812-5.7812-1.75-12.219-1.75-16.562 0-26.094 10.125-9.5156 10.141-9.5156 27.672 0 17.578 9.5156 27.703 9.5312 10.141 26.094 10.141 6.5312 0 12.312-1.7344 5.7969-1.7344 10.875-5.2031z"/>
</defs>
<g transform="translate(961.56 606.07) rotate(-72.196) scale(.08 -.08)">
<use xlink:href="#q"/>
</g>
</g>
<path d="m1004.8 602.01 1.6996 5.2925q0.73382 2.2851 3.0189 1.5512l7.3717-2.3673q2.2851-0.73382 1.5512-3.0189l-1.6996-5.2925q-0.73382-2.2851-3.0189-1.5512l-7.3717 2.3673q-2.2851 0.73382-1.5512 3.0189z" clip-path="url(#a)" fill="#fff" stroke="#fff"/>
<g clip-path="url(#a)">
<defs>
<path id="w" d="m44.391 34.188q3.1719-1.0781 6.1719-4.5938t6.0312-9.6719l10.016-19.922h-10.609l-9.3125 18.703q-3.625 7.3281-7.0156 9.7188t-9.25 2.3906h-10.75v-30.812h-9.8594v72.906h22.266q12.5 0 18.656-5.2344 6.1562-5.2188 6.1562-15.766 0-6.8906-3.2031-11.438-3.2031-4.5312-9.2969-6.2812zm-24.719 30.609v-25.875h12.406q7.125 0 10.766 3.2969t3.6406 9.6875-3.6406 9.6406-10.766 3.25z"/>
</defs>
<g transform="translate(1008.6 600.77) rotate(72.196) scale(.08 -.08)">
<use xlink:href="#w"/>
</g>
</g>
<path d="m1145 779.23 14.569-30.507q1.0342-2.1657-1.1315-3.2l-6.9867-3.3365q-2.1657-1.0342-3.2 1.1315l-14.569 30.507q-1.0342 2.1657 1.1315 3.2l6.9867 3.3365q2.1657 1.0342 3.2-1.1315z" clip-path="url(#a)" fill="#fff" stroke="#fff"/>
<g clip-path="url(#a)">
<g transform="translate(1141.3 777.48) rotate(-64.473) scale(.08 -.08)">
<use xlink:href="#j"/>
<use x="44.083984" xlink:href="#e"/>
<use x="105.607422" xlink:href="#f"/>
<use x="144.970703" xlink:href="#l"/>
<use x="242.382812" xlink:href="#d"/>
<use x="270.166016" xlink:href="#i"/>
<use x="333.544922" xlink:href="#h"/>
<use x="394.824219" xlink:href="#k"/>
</g>
</g>
<path d="m1189.9 778.21 0.18346-33.807q0.013024-2.4-2.3869-2.413l-7.7424-0.042016q-2.4-0.013024-2.413 2.3869l-0.18346 33.807q-0.013023 2.4 2.3869 2.413l7.7424 0.042016q2.4 0.013024 2.413-2.3869z" clip-path="url(#a)" fill="#fff" stroke="#fff"/>
<g clip-path="url(#a)">
<g transform="translate(1185.9 778.19) rotate(-89.689) scale(.08 -.08)">
<use xlink:href="#j"/>
<use x="44.083984" xlink:href="#e"/>
<use x="105.607422" xlink:href="#f"/>
<use x="144.970703" xlink:href="#l"/>
<use x="242.382812" xlink:href="#d"/>
<use x="270.166016" xlink:href="#i"/>
<use x="333.544922" xlink:href="#h"/>
<use x="394.824219" xlink:href="#k"/>
</g>
</g>
<path d="m1209.2 748.78 14.703 30.443q1.0438 2.1611 3.2049 1.1174l6.9719-3.3673q2.1611-1.0438 1.1174-3.2049l-14.703-30.443q-1.0438-2.1611-3.2049-1.1174l-6.9719 3.3673q-2.1611 1.0438-1.1174 3.2049z" clip-path="url(#a)" fill="#fff" stroke="#fff"/>
<g clip-path="url(#a)">
<g transform="translate(1212.9 747.02) rotate(64.22) scale(.08 -.08)">
<use xlink:href="#j"/>
<use x="44.083984" xlink:href="#e"/>
<use x="105.607422" xlink:href="#f"/>
<use x="144.970703" xlink:href="#l"/>
<use x="242.382812" xlink:href="#d"/>
<use x="270.166016" xlink:href="#i"/>
<use x="333.544922" xlink:href="#h"/>
<use x="394.824219" xlink:href="#k"/>
</g>
</g>
<path d="m1468.6 608.15 2.6231-4.9009q1.1325-2.116-0.98345-3.2485l-6.8262-3.6536q-2.116-1.1325-3.2485 0.98345l-2.6231 4.9009q-1.1325 2.116 0.98345 3.2485l6.8262 3.6536q2.116 1.1325 3.2485-0.98345z" clip-path="url(#a)" fill="#fff" stroke="#fff"/>
<g clip-path="url(#a)">
<g transform="translate(1465.1 606.23) rotate(-61.843) scale(.08 -.08)">
<use xlink:href="#w"/>
</g>
</g>
<path d="m1513 605.56 0.029899-5.5862q0.012845-2.4-2.3871-2.4128l-7.7424-0.041439q-2.4-0.012845-2.4128 2.3871l-0.029898 5.5862q-0.012846 2.4 2.3871 2.4128l7.7424 0.04144q2.4 0.012845 2.4128-2.3871z" clip-path="url(#a)" fill="#fff" stroke="#fff"/>
<g clip-path="url(#a)">
<g transform="translate(1508.9 605.54) rotate(-89.693) scale(.08 -.08)">
<use xlink:href="#q"/>
</g>
</g>
<path d="m1543.4 603.14 2.7843 5.1506q1.1413 2.1113 3.2526 0.96996l6.811-3.6819q2.1113-1.1413 0.96996-3.2526l-2.7843-5.1506q-1.1413-2.1113-3.2526-0.96996l-6.811 3.6819q-2.1113 1.1413-0.96996 3.2526z" clip-path="url(#a)" fill="#fff" stroke="#fff"/>
<g clip-path="url(#a)">
<g transform="translate(1547 601.21) rotate(61.605) scale(.08 -.08)">
<use xlink:href="#ac"/>
</g>
</g>
<path d="m1415.4 744.37v33.808q0 2.4 2.4 2.4h7.7425q2.4 0 2.4-2.4v-33.808q0-2.4-2.4-2.4h-7.7425q-2.4 0-2.4 2.4z" clip-path="url(#a)" fill="#fff" stroke="#fff"/>
<g clip-path="url(#a)">
<g transform="translate(1419.5 744.37) rotate(90) scale(.08 -.08)">
<use xlink:href="#j"/>
<use x="44.083984" xlink:href="#e"/>
<use x="105.607422" xlink:href="#f"/>
<use x="144.970703" xlink:href="#l"/>
<use x="242.382812" xlink:href="#d"/>
<use x="270.166016" xlink:href="#i"/>
<use x="333.544922" xlink:href="#h"/>
<use x="394.824219" xlink:href="#k"/>
</g>
</g>
<path d="m1500 744.37v33.808q0 2.4 2.4 2.4h7.7425q2.4 0 2.4-2.4v-33.808q0-2.4-2.4-2.4h-7.7425q-2.4 0-2.4 2.4z" clip-path="url(#a)" fill="#fff" stroke="#fff"/>
<g clip-path="url(#a)">
<g transform="translate(1504.1 744.37) rotate(90) scale(.08 -.08)">
<use xlink:href="#j"/>
<use x="44.083984" xlink:href="#e"/>
<use x="105.607422" xlink:href="#f"/>
<use x="144.970703" xlink:href="#l"/>
<use x="242.382812" xlink:href="#d"/>
<use x="270.166016" xlink:href="#i"/>
<use x="333.544922" xlink:href="#h"/>
<use x="394.824219" xlink:href="#k"/>
</g>
</g>
<path d="m920.66 779.11 7-33.075q0.49693-2.348-1.8511-2.8449l-7.5747-1.6031q-2.348-0.49693-2.8449 1.8511l-7 33.075q-0.49693 2.348 1.8511 2.8449l7.5747 1.6031q2.348 0.49693 2.8449-1.8511z" clip-path="url(#a)" fill="#fff" stroke="#fff"/>
<g clip-path="url(#a)">
<g transform="translate(916.68 778.27) rotate(-78.05) scale(.08 -.08)">
<use xlink:href="#j"/>
<use x="44.083984" xlink:href="#e"/>
<use x="105.607422" xlink:href="#f"/>
<use x="144.970703" xlink:href="#l"/>
<use x="242.382812" xlink:href="#d"/>
<use x="270.166016" xlink:href="#i"/>
<use x="333.544922" xlink:href="#h"/>
<use x="394.824219" xlink:href="#k"/>
</g>
</g>
<path d="m941.71 746.04 7 33.075q0.49693 2.348 2.8449 1.8511l7.5747-1.6031q2.348-0.49693 1.8511-2.8449l-7-33.075q-0.49693-2.348-2.8449-1.8511l-7.5747 1.6031q-2.348 0.49693-1.8511 2.8449z" clip-path="url(#a)" fill="#fff" stroke="#fff"/>
<g clip-path="url(#a)">
<g transform="translate(945.69 745.2) rotate(78.05) scale(.08 -.08)">
<use xlink:href="#j"/>
<use x="44.083984" xlink:href="#e"/>
<use x="105.607422" xlink:href="#f"/>
<use x="144.970703" xlink:href="#l"/>
<use x="242.382812" xlink:href="#d"/>
<use x="270.166016" xlink:href="#i"/>
<use x="333.544922" xlink:href="#h"/>
<use x="394.824219" xlink:href="#k"/>
</g>
</g>
<path d="m1030.9 744.37v33.808q0 2.4 2.4 2.4h7.7425q2.4 0 2.4-2.4v-33.808q0-2.4-2.4-2.4h-7.7425q-2.4 0-2.4 2.4z" clip-path="url(#a)" fill="#fff" stroke="#fff"/>
<g clip-path="url(#a)">
<g transform="translate(1035 744.37) rotate(90) scale(.08 -.08)">
<use xlink:href="#j"/>
<use x="44.083984" xlink:href="#e"/>
<use x="105.607422" xlink:href="#f"/>
<use x="144.970703" xlink:href="#l"/>
<use x="242.382812" xlink:href="#d"/>
<use x="270.166016" xlink:href="#i"/>
<use x="333.544922" xlink:href="#h"/>
<use x="394.824219" xlink:href="#k"/>
</g>
</g>
<path d="m295.29 744.37v33.808q0 2.4 2.4 2.4h7.7425q2.4 0 2.4-2.4v-33.808q0-2.4-2.4-2.4h-7.7425q-2.4 0-2.4 2.4z" clip-path="url(#a)" fill="#fff" stroke="#fff"/>
<g clip-path="url(#a)">
<g transform="translate(299.36 744.37) rotate(90) scale(.08 -.08)">
<use xlink:href="#j"/>
<use x="44.083984" xlink:href="#e"/>
<use x="105.607422" xlink:href="#f"/>
<use x="144.970703" xlink:href="#l"/>
<use x="242.382812" xlink:href="#d"/>
<use x="270.166016" xlink:href="#i"/>
<use x="333.544922" xlink:href="#h"/>
<use x="394.824219" xlink:href="#k"/>
</g>
</g>
<path d="m331.18 744.37v33.808q0 2.4 2.4 2.4h7.7425q2.4 0 2.4-2.4v-33.808q0-2.4-2.4-2.4h-7.7425q-2.4 0-2.4 2.4z" clip-path="url(#a)" fill="#fff" stroke="#fff"/>
<g clip-path="url(#a)">
<g transform="translate(335.24 744.37) rotate(90) scale(.08 -.08)">
<use xlink:href="#j"/>
<use x="44.083984" xlink:href="#e"/>
<use x="105.607422" xlink:href="#f"/>
<use x="144.970703" xlink:href="#l"/>
<use x="242.382812" xlink:href="#d"/>
<use x="270.166016" xlink:href="#i"/>
<use x="333.544922" xlink:href="#h"/>
<use x="394.824219" xlink:href="#k"/>
</g>
</g>
<path d="m412.74 607.61 2.0386-5.0786q0.89406-2.2273-1.3332-3.1213l-7.1852-2.8843q-2.2273-0.89406-3.1213 1.3332l-2.0386 5.0786q-0.89406 2.2273 1.3332 3.1213l7.1852 2.8843q2.2273 0.89406 3.1213-1.3332z" clip-path="url(#a)" fill="#fff" stroke="#fff"/>
<g clip-path="url(#a)">
<g transform="translate(408.97 606.1) rotate(-68.128) scale(.08 -.08)">
<use xlink:href="#r"/>
</g>
</g>
<path d="m434.21 606.68 0.88104-6.0967q0.34326-2.3753-2.0321-2.7186l-7.6629-1.1074q-2.3753-0.34326-2.7186 2.0321l-0.88104 6.0967q-0.34326 2.3753 2.0321 2.7186l7.6629 1.1074q2.3753 0.34326 2.7186-2.0321z" clip-path="url(#a)" fill="#fff" stroke="#fff"/>
<g clip-path="url(#a)">
<defs>
<path id="am" d="m19.672 64.797v-56.688h11.922q15.094 0 22.094 6.8281 7 6.8438 7 21.594 0 14.641-7 21.453t-22.094 6.8125zm-9.8594 8.1094h20.266q21.188 0 31.094-8.8125 9.9219-8.8125 9.9219-27.562 0-18.859-9.9688-27.703-9.9531-8.8281-31.047-8.8281h-20.266z"/>
</defs>
<g transform="translate(430.19 606.1) rotate(-81.777) scale(.08 -.08)">
<use xlink:href="#am"/>
</g>
</g>
<path d="m443.71 601.14 0.61458 4.7844q0.30578 2.3804 2.6862 2.0747l7.6794-0.98645q2.3804-0.30578 2.0747-2.6862l-0.61458-4.7844q-0.30578-2.3804-2.6862-2.0747l-7.6794 0.98645q-2.3804 0.30578-2.0747 2.6862z" clip-path="url(#a)" fill="#fff" stroke="#fff"/>
<g clip-path="url(#a)">
<g transform="translate(447.74 600.63) rotate(82.68) scale(.08 -.08)">
<use xlink:href="#x"/>
</g>
</g>
<path d="m466.33 602.31 2.3732 5.6845q0.9246 2.2147 3.1394 1.2901l7.1449-2.9828q2.2147-0.9246 1.2901-3.1394l-2.3732-5.6845q-0.9246-2.2147-3.1394-1.2901l-7.1449 2.9828q-2.2147 0.9246-1.2901 3.1394z" clip-path="url(#a)" fill="#fff" stroke="#fff"/>
<g clip-path="url(#a)">
<g transform="translate(470.08 600.74) rotate(67.341) scale(.08 -.08)">
<use xlink:href="#am"/>
</g>
</g>
<path d="m600.68 526.72 1.346-5.3933q0.58113-2.3286-1.7475-2.9097l-7.5121-1.8747q-2.3286-0.58113-2.9097 1.7475l-1.346 5.3933q-0.58113 2.3286 1.7475 2.9097l7.5121 1.8747q2.3286 0.58113 2.9097-1.7475z" clip-path="url(#a)" fill="#fff" stroke="#fff"/>
<g clip-path="url(#a)">
<g transform="translate(596.74 525.73) rotate(-75.987) scale(.08 -.08)">
<use xlink:href="#w"/>
</g>
</g>
<path d="m640.6 445.9 0.067056-6.2971q0.025555-2.3999-2.3743-2.4254l-7.7421-0.082442q-2.3999-0.025556-2.4254 2.3743l-0.067056 6.2971q-0.025556 2.3999 2.3743 2.4254l7.7421 0.082442q2.3999 0.025556 2.4254-2.3743z" clip-path="url(#a)" fill="#fff" stroke="#fff"/>
<g clip-path="url(#a)">
<defs>
<path id="al" d="m39.406 66.219q-10.75 0-17.078-8.0156-6.3125-8-6.3125-21.828 0-13.766 6.3125-21.781 6.3281-8 17.078-8 10.734 0 17.016 8 6.2812 8.0156 6.2812 21.781 0 13.828-6.2812 21.828-6.2812 8.0156-17.016 8.0156zm13.812-64.906 13-14.203h-11.922l-10.797 11.672q-1.6094-0.09375-2.4688-0.14062-0.84375-0.0625-1.625-0.0625-15.375 0-24.594 10.281-9.2031 10.281-9.2031 27.516 0 17.281 9.2031 27.562 9.2188 10.281 24.594 10.281 15.328 0 24.5-10.281 9.1875-10.281 9.1875-27.562 0-12.688-5.1094-21.734-5.0938-9.0312-14.766-13.328z"/>
</defs>
<g transform="translate(636.53 445.85) rotate(-89.39) scale(.08 -.08)">
<use xlink:href="#al"/>
</g>
</g>
<path d="m669.24 521.34 1.3798 5.4132q0.59281 2.3256 2.9184 1.7328l7.5026-1.9124q2.3256-0.59281 1.7328-2.9184l-1.3798-5.4132q-0.59281-2.3256-2.9184-1.7328l-7.5026 1.9124q-2.3256 0.59281-1.7328 2.9184z" clip-path="url(#a)" fill="#fff" stroke="#fff"/>
<g clip-path="url(#a)">
<g transform="translate(673.18 520.34) rotate(75.7) scale(.08 -.08)">
<use xlink:href="#q"/>
</g>
</g>
<path d="m549.05 744.37v33.808q0 2.4 2.4 2.4h7.7425q2.4 0 2.4-2.4v-33.808q0-2.4-2.4-2.4h-7.7425q-2.4 0-2.4 2.4z" clip-path="url(#a)" fill="#fff" stroke="#fff"/>
<g clip-path="url(#a)">
<g transform="translate(553.12 744.37) rotate(90) scale(.08 -.08)">
<use xlink:href="#j"/>
<use x="44.083984" xlink:href="#e"/>
<use x="105.607422" xlink:href="#f"/>
<use x="144.970703" xlink:href="#l"/>
<use x="242.382812" xlink:href="#d"/>
<use x="270.166016" xlink:href="#i"/>
<use x="333.544922" xlink:href="#h"/>
<use x="394.824219" xlink:href="#k"/>
</g>
</g>
<path d="m625.77 606.52 0.92414-5.4814q0.399-2.3666-1.9676-2.7656l-7.6348-1.2872q-2.3666-0.399-2.7656 1.9676l-0.92414 5.4814q-0.399 2.3666 1.9676 2.7656l7.6348 1.2872q2.3666 0.399 2.7656-1.9676z" clip-path="url(#a)" fill="#fff" stroke="#fff"/>
<g clip-path="url(#a)">
<g transform="translate(621.76 605.84) rotate(-80.43) scale(.08 -.08)">
<use xlink:href="#w"/>
</g>
</g>
<path d="m640.31 601.02 0.92871 5.5085q0.399 2.3666 2.7656 1.9676l7.6348-1.2872q2.3666-0.399 1.9676-2.7656l-0.92871-5.5085q-0.399-2.3666-2.7656-1.9676l-7.6348 1.2872q-2.3666 0.399-1.9676 2.7656z" clip-path="url(#a)" fill="#fff" stroke="#fff"/>
<g clip-path="url(#a)">
<g transform="translate(644.32 600.35) rotate(80.43) scale(.08 -.08)">
<use xlink:href="#q"/>
</g>
</g>
<path d="m710.54 744.37v33.808q0 2.4 2.4 2.4h7.7425q2.4 0 2.4-2.4v-33.808q0-2.4-2.4-2.4h-7.7425q-2.4 0-2.4 2.4z" clip-path="url(#a)" fill="#fff" stroke="#fff"/>
<g clip-path="url(#a)">
<g transform="translate(714.6 744.37) rotate(90) scale(.08 -.08)">
<use xlink:href="#j"/>
<use x="44.083984" xlink:href="#e"/>
<use x="105.607422" xlink:href="#f"/>
<use x="144.970703" xlink:href="#l"/>
<use x="242.382812" xlink:href="#d"/>
<use x="270.166016" xlink:href="#i"/>
<use x="333.544922" xlink:href="#h"/>
<use x="394.824219" xlink:href="#k"/>
</g>
</g>
<path d="m600.32 744.37v33.808q0 2.4 2.4 2.4h7.7425q2.4 0 2.4-2.4v-33.808q0-2.4-2.4-2.4h-7.7425q-2.4 0-2.4 2.4z" clip-path="url(#a)" fill="#fff" stroke="#fff"/>
<g clip-path="url(#a)">
<g transform="translate(604.38 744.37) rotate(90) scale(.08 -.08)">
<use xlink:href="#j"/>
<use x="44.083984" xlink:href="#e"/>
<use x="105.607422" xlink:href="#f"/>
<use x="144.970703" xlink:href="#l"/>
<use x="242.382812" xlink:href="#d"/>
<use x="270.166016" xlink:href="#i"/>
<use x="333.544922" xlink:href="#h"/>
<use x="394.824219" xlink:href="#k"/>
</g>
</g>
<path d="m654.15 744.37v33.808q0 2.4 2.4 2.4h7.7425q2.4 0 2.4-2.4v-33.808q0-2.4-2.4-2.4h-7.7425q-2.4 0-2.4 2.4z" clip-path="url(#a)" fill="#fff" stroke="#fff"/>
<g clip-path="url(#a)">
<g transform="translate(658.21 744.37) rotate(90) scale(.08 -.08)">
<use xlink:href="#j"/>
<use x="44.083984" xlink:href="#e"/>
<use x="105.607422" xlink:href="#f"/>
<use x="144.970703" xlink:href="#l"/>
<use x="242.382812" xlink:href="#d"/>
<use x="270.166016" xlink:href="#i"/>
<use x="333.544922" xlink:href="#h"/>
<use x="394.824219" xlink:href="#k"/>
</g>
</g>
<path d="m369.63 744.37v33.808q0 2.4 2.4 2.4h7.7425q2.4 0 2.4-2.4v-33.808q0-2.4-2.4-2.4h-7.7425q-2.4 0-2.4 2.4z" clip-path="url(#a)" fill="#fff" stroke="#fff"/>
<g clip-path="url(#a)">
<g transform="translate(373.69 744.37) rotate(90) scale(.08 -.08)">
<use xlink:href="#j"/>
<use x="44.083984" xlink:href="#e"/>
<use x="105.607422" xlink:href="#f"/>
<use x="144.970703" xlink:href="#l"/>
<use x="242.382812" xlink:href="#d"/>
<use x="270.166016" xlink:href="#i"/>
<use x="333.544922" xlink:href="#h"/>
<use x="394.824219" xlink:href="#k"/>
</g>
</g>
<path d="m410.64 744.37v33.808q0 2.4 2.4 2.4h7.7425q2.4 0 2.4-2.4v-33.808q0-2.4-2.4-2.4h-7.7425q-2.4 0-2.4 2.4z" clip-path="url(#a)" fill="#fff" stroke="#fff"/>
<g clip-path="url(#a)">
<g transform="translate(414.7 744.37) rotate(90) scale(.08 -.08)">
<use xlink:href="#j"/>
<use x="44.083984" xlink:href="#e"/>
<use x="105.607422" xlink:href="#f"/>
<use x="144.970703" xlink:href="#l"/>
<use x="242.382812" xlink:href="#d"/>
<use x="270.166016" xlink:href="#i"/>
<use x="333.544922" xlink:href="#h"/>
<use x="394.824219" xlink:href="#k"/>
</g>
</g>
<path d="m454.21 744.37v33.808q0 2.4 2.4 2.4h7.7425q2.4 0 2.4-2.4v-33.808q0-2.4-2.4-2.4h-7.7425q-2.4 0-2.4 2.4z" clip-path="url(#a)" fill="#fff" stroke="#fff"/>
<g clip-path="url(#a)">
<g transform="translate(458.28 744.37) rotate(90) scale(.08 -.08)">
<use xlink:href="#j"/>
<use x="44.083984" xlink:href="#e"/>
<use x="105.607422" xlink:href="#f"/>
<use x="144.970703" xlink:href="#l"/>
<use x="242.382812" xlink:href="#d"/>
<use x="270.166016" xlink:href="#i"/>
<use x="333.544922" xlink:href="#h"/>
<use x="394.824219" xlink:href="#k"/>
</g>
</g>
<path d="m500.35 744.37v33.808q0 2.4 2.4 2.4h7.7425q2.4 0 2.4-2.4v-33.808q0-2.4-2.4-2.4h-7.7425q-2.4 0-2.4 2.4z" clip-path="url(#a)" fill="#fff" stroke="#fff"/>
<g clip-path="url(#a)">
<g transform="translate(504.42 744.37) rotate(90) scale(.08 -.08)">
<use xlink:href="#j"/>
<use x="44.083984" xlink:href="#e"/>
<use x="105.607422" xlink:href="#f"/>
<use x="144.970703" xlink:href="#l"/>
<use x="242.382812" xlink:href="#d"/>
<use x="270.166016" xlink:href="#i"/>
<use x="333.544922" xlink:href="#h"/>
<use x="394.824219" xlink:href="#k"/>
</g>
</g>
<path d="m203.02 744.37v33.808q0 2.4 2.4 2.4h7.7425q2.4 0 2.4-2.4v-33.808q0-2.4-2.4-2.4h-7.7425q-2.4 0-2.4 2.4z" clip-path="url(#a)" fill="#fff" stroke="#fff"/>
<g clip-path="url(#a)">
<g transform="translate(207.08 744.37) rotate(90) scale(.08 -.08)">
<use xlink:href="#j"/>
<use x="44.083984" xlink:href="#e"/>
<use x="105.607422" xlink:href="#f"/>
<use x="144.970703" xlink:href="#l"/>
<use x="242.382812" xlink:href="#d"/>
<use x="270.166016" xlink:href="#i"/>
<use x="333.544922" xlink:href="#h"/>
<use x="394.824219" xlink:href="#k"/>
</g>
</g>
<path d="m231.21 744.37v33.808q0 2.4 2.4 2.4h7.7425q2.4 0 2.4-2.4v-33.808q0-2.4-2.4-2.4h-7.7425q-2.4 0-2.4 2.4z" clip-path="url(#a)" fill="#fff" stroke="#fff"/>
<g clip-path="url(#a)">
<g transform="translate(235.28 744.37) rotate(90) scale(.08 -.08)">
<use xlink:href="#j"/>
<use x="44.083984" xlink:href="#e"/>
<use x="105.607422" xlink:href="#f"/>
<use x="144.970703" xlink:href="#l"/>
<use x="242.382812" xlink:href="#d"/>
<use x="270.166016" xlink:href="#i"/>
<use x="333.544922" xlink:href="#h"/>
<use x="394.824219" xlink:href="#k"/>
</g>
</g>
<path d="m77.418 744.37v33.808q0 2.4 2.4 2.4h7.7425q2.4 0 2.4-2.4v-33.808q0-2.4-2.4-2.4h-7.7425q-2.4 0-2.4 2.4z" clip-path="url(#a)" fill="#fff" stroke="#fff"/>
<g clip-path="url(#a)">
<g transform="translate(81.482 744.37) rotate(90) scale(.08 -.08)">
<use xlink:href="#j"/>
<use x="44.083984" xlink:href="#e"/>
<use x="105.607422" xlink:href="#f"/>
<use x="144.970703" xlink:href="#l"/>
<use x="242.382812" xlink:href="#d"/>
<use x="270.166016" xlink:href="#i"/>
<use x="333.544922" xlink:href="#h"/>
<use x="394.824219" xlink:href="#k"/>
</g>
</g>
<path d="m87.671 744.37v33.808q0 2.4 2.4 2.4h7.7425q2.4 0 2.4-2.4v-33.808q0-2.4-2.4-2.4h-7.7425q-2.4 0-2.4 2.4z" clip-path="url(#a)" fill="#fff" stroke="#fff"/>
<g clip-path="url(#a)">
<g transform="translate(91.735 744.37) rotate(90) scale(.08 -.08)">
<use xlink:href="#j"/>
<use x="44.083984" xlink:href="#e"/>
<use x="105.607422" xlink:href="#f"/>
<use x="144.970703" xlink:href="#l"/>
<use x="242.382812" xlink:href="#d"/>
<use x="270.166016" xlink:href="#i"/>
<use x="333.544922" xlink:href="#h"/>
<use x="394.824219" xlink:href="#k"/>
</g>
</g>
<path d="m100.49 744.37v33.808q0 2.4 2.4 2.4h7.7425q2.4 0 2.4-2.4v-33.808q0-2.4-2.4-2.4h-7.7425q-2.4 0-2.4 2.4z" clip-path="url(#a)" fill="#fff" stroke="#fff"/>
<g clip-path="url(#a)">
<g transform="translate(104.55 744.37) rotate(90) scale(.08 -.08)">
<use xlink:href="#j"/>
<use x="44.083984" xlink:href="#e"/>
<use x="105.607422" xlink:href="#f"/>
<use x="144.970703" xlink:href="#l"/>
<use x="242.382812" xlink:href="#d"/>
<use x="270.166016" xlink:href="#i"/>
<use x="333.544922" xlink:href="#h"/>
<use x="394.824219" xlink:href="#k"/>
</g>
</g>
<path d="m144.44 446.39 0.57597-6.2711q0.2195-2.3899-2.1704-2.6094l-7.71-0.70813q-2.3899-0.2195-2.6094 2.1704l-0.57597 6.2711q-0.2195 2.3899 2.1704 2.6094l7.71 0.70813q2.3899 0.2195 2.6094-2.1704z" clip-path="url(#a)" fill="#fff" stroke="#fff"/>
<g clip-path="url(#a)">
<g transform="translate(140.39 446.02) rotate(-84.752) scale(.08 -.08)">
<use xlink:href="#al"/>
</g>
</g>
<path d="m146.82 520 0.25693 5.5803q0.11038 2.3975 2.5078 2.2871l7.7343-0.35611q2.3975-0.11038 2.2871-2.5078l-0.25693-5.5803q-0.11038-2.3975-2.5078-2.2871l-7.7343 0.35611q-2.3975 0.11038-2.2871 2.5078z" clip-path="url(#a)" fill="#fff" stroke="#fff"/>
<g clip-path="url(#a)">
<g transform="translate(150.88 519.81) rotate(87.364) scale(.08 -.08)">
<use xlink:href="#q"/>
</g>
</g>
<path d="m132.73 605.86 0.3119-5.55q0.13466-2.3962-2.2616-2.5309l-7.7303-0.43443q-2.3962-0.13466-2.5309 2.2616l-0.3119 5.55q-0.13466 2.3962 2.2616 2.5309l7.7303 0.43443q2.3962 0.13466 2.5309-2.2616z" clip-path="url(#a)" fill="#fff" stroke="#fff"/>
<g clip-path="url(#a)">
<g transform="translate(128.67 605.64) rotate(-86.783) scale(.08 -.08)">
<use xlink:href="#w"/>
</g>
</g>
<path d="m129.18 600.3 0.31345 5.5774q0.13466 2.3962 2.5309 2.2616l7.7303-0.43443q2.3962-0.13466 2.2616-2.5309l-0.31344-5.5774q-0.13466-2.3962-2.5309-2.2616l-7.7303 0.43443q-2.3962 0.13466-2.2616 2.5309z" clip-path="url(#a)" fill="#fff" stroke="#fff"/>
<g clip-path="url(#a)">
<g transform="translate(133.23 600.07) rotate(86.783) scale(.08 -.08)">
<use xlink:href="#q"/>
</g>
</g>
<path d="m154.32 744.37v33.808q0 2.4 2.4 2.4h7.7425q2.4 0 2.4-2.4v-33.808q0-2.4-2.4-2.4h-7.7425q-2.4 0-2.4 2.4z" clip-path="url(#a)" fill="#fff" stroke="#fff"/>
<g clip-path="url(#a)">
<g transform="translate(158.38 744.37) rotate(90) scale(.08 -.08)">
<use xlink:href="#j"/>
<use x="44.083984" xlink:href="#e"/>
<use x="105.607422" xlink:href="#f"/>
<use x="144.970703" xlink:href="#l"/>
<use x="242.382812" xlink:href="#d"/>
<use x="270.166016" xlink:href="#i"/>
<use x="333.544922" xlink:href="#h"/>
<use x="394.824219" xlink:href="#k"/>
</g>
</g>
<path d="m115.87 744.37v33.808q0 2.4 2.4 2.4h7.7425q2.4 0 2.4-2.4v-33.808q0-2.4-2.4-2.4h-7.7425q-2.4 0-2.4 2.4z" clip-path="url(#a)" fill="#fff" stroke="#fff"/>
<g clip-path="url(#a)">
<g transform="translate(119.93 744.37) rotate(90) scale(.08 -.08)">
<use xlink:href="#j"/>
<use x="44.083984" xlink:href="#e"/>
<use x="105.607422" xlink:href="#f"/>
<use x="144.970703" xlink:href="#l"/>
<use x="242.382812" xlink:href="#d"/>
<use x="270.166016" xlink:href="#i"/>
<use x="333.544922" xlink:href="#h"/>
<use x="394.824219" xlink:href="#k"/>
</g>
</g>
<path d="m133.81 744.37v33.808q0 2.4 2.4 2.4h7.7425q2.4 0 2.4-2.4v-33.808q0-2.4-2.4-2.4h-7.7425q-2.4 0-2.4 2.4z" clip-path="url(#a)" fill="#fff" stroke="#fff"/>
<g clip-path="url(#a)">
<g transform="translate(137.87 744.37) rotate(90) scale(.08 -.08)">
<use xlink:href="#j"/>
<use x="44.083984" xlink:href="#e"/>
<use x="105.607422" xlink:href="#f"/>
<use x="144.970703" xlink:href="#l"/>
<use x="242.382812" xlink:href="#d"/>
<use x="270.166016" xlink:href="#i"/>
<use x="333.544922" xlink:href="#h"/>
<use x="394.824219" xlink:href="#k"/>
</g>
</g>
<path d="m261.97 744.37v33.808q0 2.4 2.4 2.4h7.7425q2.4 0 2.4-2.4v-33.808q0-2.4-2.4-2.4h-7.7425q-2.4 0-2.4 2.4z" clip-path="url(#a)" fill="#fff" stroke="#fff"/>
<g clip-path="url(#a)">
<g transform="translate(266.04 744.37) rotate(90) scale(.08 -.08)">
<use xlink:href="#j"/>
<use x="44.083984" xlink:href="#e"/>
<use x="105.607422" xlink:href="#f"/>
<use x="144.970703" xlink:href="#l"/>
<use x="242.382812" xlink:href="#d"/>
<use x="270.166016" xlink:href="#i"/>
<use x="333.544922" xlink:href="#h"/>
<use x="394.824219" xlink:href="#k"/>
</g>
</g>
<path d="m769.49 744.37v33.808q0 2.4 2.4 2.4h7.7425q2.4 0 2.4-2.4v-33.808q0-2.4-2.4-2.4h-7.7425q-2.4 0-2.4 2.4z" clip-path="url(#a)" fill="#fff" stroke="#fff"/>
<g clip-path="url(#a)">
<g transform="translate(773.56 744.37) rotate(90) scale(.08 -.08)">
<use xlink:href="#j"/>
<use x="44.083984" xlink:href="#e"/>
<use x="105.607422" xlink:href="#f"/>
<use x="144.970703" xlink:href="#l"/>
<use x="242.382812" xlink:href="#d"/>
<use x="270.166016" xlink:href="#i"/>
<use x="333.544922" xlink:href="#h"/>
<use x="394.824219" xlink:href="#k"/>
</g>
</g>
<path d="m1333.4 744.37v33.808q0 2.4 2.4 2.4h7.7425q2.4 0 2.4-2.4v-33.808q0-2.4-2.4-2.4h-7.7425q-2.4 0-2.4 2.4z" clip-path="url(#a)" fill="#fff" stroke="#fff"/>
<g clip-path="url(#a)">
<g transform="translate(1337.5 744.37) rotate(90) scale(.08 -.08)">
<use xlink:href="#j"/>
<use x="44.083984" xlink:href="#e"/>
<use x="105.607422" xlink:href="#f"/>
<use x="144.970703" xlink:href="#l"/>
<use x="242.382812" xlink:href="#d"/>
<use x="270.166016" xlink:href="#i"/>
<use x="333.544922" xlink:href="#h"/>
<use x="394.824219" xlink:href="#k"/>
</g>
</g>
<path d="m1587.2 744.37v33.808q0 2.4 2.4 2.4h7.7425q2.4 0 2.4-2.4v-33.808q0-2.4-2.4-2.4h-7.7425q-2.4 0-2.4 2.4z" clip-path="url(#a)" fill="#fff" stroke="#fff"/>
<g clip-path="url(#a)">
<g transform="translate(1591.2 744.37) rotate(90) scale(.08 -.08)">
<use xlink:href="#j"/>
<use x="44.083984" xlink:href="#e"/>
<use x="105.607422" xlink:href="#f"/>
<use x="144.970703" xlink:href="#l"/>
<use x="242.382812" xlink:href="#d"/>
<use x="270.166016" xlink:href="#i"/>
<use x="333.544922" xlink:href="#h"/>
<use x="394.824219" xlink:href="#k"/>
</g>
</g>
<defs>
<path id="b" d="m0 8.6603c2.2967 0 4.4997-0.9125 6.1237-2.5365 1.624-1.624 2.5365-3.827 2.5365-6.1237s-0.9125-4.4997-2.5365-6.1237c-1.624-1.624-3.827-2.5365-6.1237-2.5365s-4.4997 0.9125-6.1237 2.5365c-1.624 1.624-2.5365 3.827-2.5365 6.1237s0.9125 4.4997 2.5365 6.1237c1.624 1.624 3.827 2.5365 6.1237 2.5365z"/>
</defs>
<g clip-path="url(#a)" fill="#ffffff" stroke="#ffffff">
<use x="76" y="840" xlink:href="#b"/>
<use x="83.689713" y="840" xlink:href="#b"/>
<use x="93.942664" y="840" xlink:href="#b"/>
<use x="106.758853" y="840" xlink:href="#b"/>
<use x="122.13828" y="840" xlink:href="#b"/>
<use x="140.080944" y="840" xlink:href="#b"/>
<use x="160.586847" y="840" xlink:href="#b"/>
<use x="183.655987" y="840" xlink:href="#b"/>
<use x="209.288364" y="840" xlink:href="#b"/>
<use x="237.48398" y="840" xlink:href="#b"/>
<use x="268.242833" y="840" xlink:href="#b"/>
<use x="301.564924" y="840" xlink:href="#b"/>
<use x="337.450253" y="840" xlink:href="#b"/>
<use x="375.89882" y="840" xlink:href="#b"/>
<use x="416.910624" y="840" xlink:href="#b"/>
<use x="460.485666" y="840" xlink:href="#b"/>
<use x="506.623946" y="840" xlink:href="#b"/>
<use x="555.325464" y="840" xlink:href="#b"/>
<use x="606.590219" y="840" xlink:href="#b"/>
<use x="660.418212" y="840" xlink:href="#b"/>
<use x="716.809444" y="840" xlink:href="#b"/>
<use x="775.763912" y="840" xlink:href="#b"/>
<use x="837.281619" y="840" xlink:href="#b"/>
<use x="901.362563" y="840" xlink:href="#b"/>
<use x="968.006745" y="840" xlink:href="#b"/>
<use x="1037.214165" y="840" xlink:href="#b"/>
<use x="1108.984823" y="840" xlink:href="#b"/>
<use x="1183.318718" y="840" xlink:href="#b"/>
<use x="1260.215852" y="840" xlink:href="#b"/>
<use x="1339.676223" y="840" xlink:href="#b"/>
<use x="1421.699831" y="840" xlink:href="#b"/>
<use x="1506.286678" y="840" xlink:href="#b"/>
<use x="1593.436762" y="840" xlink:href="#b"/>
<use x="1596" y="522.918738" xlink:href="#b"/>
<use x="461.630816" y="40" xlink:href="#b"/>
<use x="76" y="682.554489" xlink:href="#b"/>
<use x="107.559865" y="201.426527" xlink:href="#b"/>
<use x="183.655987" y="682.554489" xlink:href="#b"/>
<use x="223.386172" y="522.918738" xlink:href="#b"/>
<use x="428.551996" y="201.426527" xlink:href="#b"/>
<use x="837.281619" y="682.554489" xlink:href="#b"/>
<use x="1254.234963" y="362.445711" xlink:href="#b"/>
<use x="985.94941" y="522.918738" xlink:href="#b"/>
<use x="1184.173131" y="682.554489" xlink:href="#b"/>
<use x="1507.141091" y="522.918738" xlink:href="#b"/>
<use x="1421.699831" y="682.554489" xlink:href="#b"/>
<use x="1506.286678" y="682.554489" xlink:href="#b"/>
<use x="934.684654" y="682.554489" xlink:href="#b"/>
<use x="1037.214165" y="682.554489" xlink:href="#b"/>
<use x="301.564924" y="682.554489" xlink:href="#b"/>
<use x="337.450253" y="682.554489" xlink:href="#b"/>
<use x="439.979764" y="522.918738" xlink:href="#b"/>
<use x="635.213041" y="362.445711" xlink:href="#b"/>
<use x="555.325464" y="682.554489" xlink:href="#b"/>
<use x="633.504216" y="522.918738" xlink:href="#b"/>
<use x="716.809444" y="682.554489" xlink:href="#b"/>
<use x="606.590219" y="682.554489" xlink:href="#b"/>
<use x="660.418212" y="682.554489" xlink:href="#b"/>
<use x="375.89882" y="682.554489" xlink:href="#b"/>
<use x="416.910624" y="682.554489" xlink:href="#b"/>
<use x="460.485666" y="682.554489" xlink:href="#b"/>
<use x="506.623946" y="682.554489" xlink:href="#b"/>
<use x="209.288364" y="682.554489" xlink:href="#b"/>
<use x="237.48398" y="682.554489" xlink:href="#b"/>
<use x="83.689713" y="682.554489" xlink:href="#b"/>
<use x="93.942664" y="682.554489" xlink:href="#b"/>
<use x="106.758853" y="682.554489" xlink:href="#b"/>
<use x="145.848229" y="362.445711" xlink:href="#b"/>
<use x="131.109612" y="522.918738" xlink:href="#b"/>
<use x="160.586847" y="682.554489" xlink:href="#b"/>
<use x="122.13828" y="682.554489" xlink:href="#b"/>
<use x="140.080944" y="682.554489" xlink:href="#b"/>
<use x="268.242833" y="682.554489" xlink:href="#b"/>
<use x="775.763912" y="682.554489" xlink:href="#b"/>
<use x="1339.676223" y="682.554489" xlink:href="#b"/>
<use x="1593.436762" y="682.554489" xlink:href="#b"/>
</g>
<g clip-path="url(#a)">
<defs>
<path id="ak" d="m3.3281 72.906h9.9531l15.328-61.625 15.281 61.625h11.094l15.328-61.625 15.281 61.625h10.016l-18.312-72.906h-12.406l-15.375 63.281-15.531-63.281h-12.406z"/>
<path id="s" d="m54.891 33.016v-33.016h-8.9844v32.719q0 7.7656-3.0312 11.609-3.0312 3.8594-9.0781 3.8594-7.2812 0-11.484-4.6406-4.2031-4.625-4.2031-12.641v-30.906h-9.0312v75.984h9.0312v-29.797q3.2344 4.9375 7.5938 7.375 4.375 2.4375 10.094 2.4375 9.4219 0 14.25-5.8281 4.8438-5.8281 4.8438-17.156z"/>
</defs>
<g transform="translate(62.033 842.76) scale(.1 -.1)">
<use xlink:href="#ak"/>
<use x="98.876953" xlink:href="#s"/>
<use x="162.255859" xlink:href="#d"/>
<use x="190.039062" xlink:href="#k"/>
<use x="217.822266" xlink:href="#e"/>
</g>
</g>
<g clip-path="url(#a)">
<g transform="translate(70.797 842.76) scale(.1 -.1)">
<use xlink:href="#q"/>
<use x="69.824219" xlink:href="#s"/>
<use x="133.203125" xlink:href="#h"/>
<use x="194.482422" xlink:href="#i"/>
</g>
</g>
<g clip-path="url(#a)">
<defs>
<path id="p" d="m44.281 53.078v-8.5q-3.7969 1.9531-7.9062 2.9219-4.0938 0.98438-8.5 0.98438-6.6875 0-10.031-2.0469t-3.3438-6.1562q0-3.125 2.3906-4.9062t9.625-3.3906l3.0781-0.6875q9.5625-2.0469 13.594-5.7812t4.0312-10.422q0-7.625-6.0312-12.078-6.0312-4.4375-16.578-4.4375-4.3906 0-9.1562 0.85938t-10.031 2.5625v9.2812q4.9844-2.5938 9.8125-3.8906 4.8281-1.2812 9.5781-1.2812 6.3438 0 9.75 2.1719 3.4219 2.1719 3.4219 6.125 0 3.6562-2.4688 5.6094-2.4531 1.9531-10.812 3.7656l-3.125 0.73438q-8.3438 1.75-12.062 5.3906-3.7031 3.6406-3.7031 9.9844 0 7.7188 5.4688 11.906 5.4688 4.2031 15.531 4.2031 4.9688 0 9.3594-0.73438 4.4062-0.71875 8.1094-2.1875z"/>
</defs>
<g transform="translate(85.105 842.76) scale(.1 -.1)">
<use xlink:href="#s"/>
<use x="63.378906" xlink:href="#h"/>
<use x="124.658203" xlink:href="#p"/>
</g>
</g>
<g clip-path="url(#a)">
<defs>
<path id="aj" d="m45.406 46.391v29.594h8.9844v-75.984h-8.9844v8.2031q-2.8281-4.875-7.1562-7.25-4.3125-2.375-10.375-2.375-9.9062 0-16.141 7.9062-6.2188 7.9219-6.2188 20.812t6.2188 20.797q6.2344 7.9062 16.141 7.9062 6.0625 0 10.375-2.375 4.3281-2.3594 7.1562-7.2344zm-30.609-19.094q0-9.9062 4.0781-15.547t11.203-5.6406 11.219 5.6406q4.1094 5.6406 4.1094 15.547t-4.1094 15.547q-4.0938 5.6406-11.219 5.6406t-11.203-5.6406-4.0781-15.547z"/>
<path id="v" d="m48.781 52.594v-8.4062q-3.8125 2.1094-7.6406 3.1562t-7.7344 1.0469q-8.75 0-13.594-5.5469-4.8281-5.5312-4.8281-15.547t4.8281-15.562q4.8438-5.5312 13.594-5.5312 3.9062 0 7.7344 1.0469t7.6406 3.1562v-8.3125q-3.7656-1.75-7.7969-2.625-4.0156-0.89062-8.5625-0.89062-12.359 0-19.641 7.7656-7.2656 7.7656-7.2656 20.953 0 13.375 7.3438 21.031 7.3594 7.6719 20.156 7.6719 4.1406 0 8.0938-0.85938 3.9531-0.84375 7.6719-2.5469z"/>
<path id="t" d="m18.312 70.219v-15.531h18.5v-6.9844h-18.5v-29.688q0-6.6875 1.8281-8.5938t7.4531-1.9062h9.2188v-7.5156h-9.2188q-10.406 0-14.359 3.875-3.9531 3.8906-3.9531 14.141v29.688h-6.5938v6.9844h6.5938v15.531z"/>
</defs>
<g transform="translate(86.216 842.76) scale(.1 -.1)">
<use xlink:href="#aj"/>
<use x="63.476562" xlink:href="#d"/>
<use x="91.259766" xlink:href="#f"/>
<use x="130.123047" xlink:href="#e"/>
<use x="191.646484" xlink:href="#v"/>
<use x="246.626953" xlink:href="#t"/>
<use x="285.835938" xlink:href="#e"/>
<use x="347.359375" xlink:href="#aj"/>
</g>
</g>
<g clip-path="url(#a)">
<defs>
<path id="u" d="m30.609 48.391q-7.2188 0-11.422-5.6406t-4.2031-15.453 4.1719-15.453q4.1875-5.6406 11.453-5.6406 7.1875 0 11.375 5.6562 4.2031 5.6719 4.2031 15.438 0 9.7188-4.2031 15.406-4.1875 5.6875-11.375 5.6875zm0 7.6094q11.719 0 18.406-7.625 6.7031-7.6094 6.7031-21.078 0-13.422-6.7031-21.078-6.6875-7.6406-18.406-7.6406-11.766 0-18.438 7.6406-6.6562 7.6562-6.6562 21.078 0 13.469 6.6562 21.078 6.6719 7.625 18.438 7.625z"/>
<path id="ai" d="m2.9844 54.688h9.5156l17.094-45.891 17.094 45.891h9.5156l-20.516-54.688h-12.203z"/>
</defs>
<g transform="translate(110.99 842.76) scale(.1 -.1)">
<use xlink:href="#u"/>
<use x="61.181641" xlink:href="#ai"/>
<use x="120.361328" xlink:href="#e"/>
<use x="181.884766" xlink:href="#f"/>
</g>
</g>
<g clip-path="url(#a)">
<g transform="translate(131.88 842.76) scale(.1 -.1)">
<use xlink:href="#t"/>
<use x="39.208984" xlink:href="#e"/>
<use x="100.732422" xlink:href="#i"/>
</g>
</g>
<g clip-path="url(#a)">
<defs>
<path id="ap" d="m37.109 75.984v-7.4844h-8.5938q-4.8281 0-6.7188-1.9531-1.875-1.9531-1.875-7.0312v-4.8281h14.797v-6.9844h-14.797v-47.703h-9.0312v47.703h-8.5938v6.9844h8.5938v3.8125q0 9.125 4.25 13.297 4.25 4.1875 13.469 4.1875z"/>
</defs>
<g transform="translate(148.57 842.76) scale(.1 -.1)">
<use xlink:href="#ap"/>
<use x="35.205078" xlink:href="#d"/>
<use x="62.988281" xlink:href="#k"/>
<use x="90.771484" xlink:href="#l"/>
<use x="188.183594" xlink:href="#p"/>
</g>
</g>
<g clip-path="url(#a)">
<g transform="translate(172.51 842.76) scale(.1 -.1)">
<use xlink:href="#u"/>
<use x="61.181641" xlink:href="#ai"/>
<use x="120.361328" xlink:href="#e"/>
<use x="181.884766" xlink:href="#f"/>
</g>
</g>
<g clip-path="url(#a)">
<g transform="translate(202.13 842.76) scale(.1 -.1)">
<use xlink:href="#s"/>
<use x="63.378906" xlink:href="#d"/>
<use x="91.162109" xlink:href="#p"/>
</g>
</g>
<g clip-path="url(#a)">
<g transform="translate(221.52 842.76) scale(.1 -.1)">
<use xlink:href="#v"/>
<use x="54.980469" xlink:href="#h"/>
<use x="116.259766" xlink:href="#f"/>
<use x="155.123047" xlink:href="#e"/>
<use x="216.646484" xlink:href="#e"/>
<use x="278.169922" xlink:href="#f"/>
</g>
</g>
<g clip-path="url(#a)">
<defs>
<path id="an" d="m11.719 12.406h10.297v-8.4062l-8-15.625h-6.2969l4 15.625z"/>
</defs>
<g transform="translate(266.65 842.76) scale(.1 -.1)">
<use xlink:href="#an"/>
</g>
</g>
<g clip-path="url(#a)">
<g transform="translate(292.44 842.76) scale(.1 -.1)">
<use xlink:href="#t"/>
<use x="39.208984" xlink:href="#s"/>
<use x="102.587891" xlink:href="#d"/>
<use x="130.371094" xlink:href="#p"/>
</g>
</g>
<g clip-path="url(#a)">
<g transform="translate(333.46 842.76) scale(.1 -.1)">
<use xlink:href="#d"/>
<use x="27.783203" xlink:href="#p"/>
</g>
</g>
<g clip-path="url(#a)">
<g transform="translate(368.74 842.76) scale(.1 -.1)">
<use xlink:href="#s"/>
<use x="63.378906" xlink:href="#d"/>
<use x="91.162109" xlink:href="#p"/>
</g>
</g>
<g clip-path="url(#a)">
<g transform="translate(407.14 842.76) scale(.1 -.1)">
<use xlink:href="#ap"/>
<use x="35.205078" xlink:href="#d"/>
<use x="62.988281" xlink:href="#f"/>
<use x="104.101562" xlink:href="#p"/>
<use x="156.201172" xlink:href="#t"/>
</g>
</g>
<g clip-path="url(#a)">
<g transform="translate(435.24 842.76) scale(.1 -.1)">
<use xlink:href="#aj"/>
<use x="63.476562" xlink:href="#d"/>
<use x="91.259766" xlink:href="#f"/>
<use x="130.123047" xlink:href="#e"/>
<use x="191.646484" xlink:href="#v"/>
<use x="246.626953" xlink:href="#t"/>
<use x="285.835938" xlink:href="#u"/>
<use x="347.017578" xlink:href="#f"/>
<use x="388.130859" xlink:href="#d"/>
<use x="415.914062" xlink:href="#h"/>
<use x="477.193359" xlink:href="#k"/>
</g>
</g>
<g clip-path="url(#a)">
<defs>
<path id="ax" d="m4.2031 54.688h8.9844l11.234-42.672 11.172 42.672h10.594l11.234-42.672 11.188 42.672h8.9844l-14.312-54.688h-10.594l-11.766 44.828-11.812-44.828h-10.609z"/>
<path id="ao" d="m9.0781 75.984h9.0312v-44.875l26.812 23.578h11.469l-29-25.578 30.234-29.109h-11.719l-27.797 26.703v-26.703h-9.0312z"/>
</defs>
<g transform="translate(494.52 842.76) scale(.1 -.1)">
<use xlink:href="#ax"/>
<use x="81.787109" xlink:href="#u"/>
<use x="142.96875" xlink:href="#f"/>
<use x="184.082031" xlink:href="#ao"/>
</g>
</g>
<g clip-path="url(#a)">
<g transform="translate(550.77 842.76) scale(.1 -.1)">
<use xlink:href="#d"/>
<use x="27.783203" xlink:href="#i"/>
</g>
</g>
<g clip-path="url(#a)">
<g transform="translate(595.44 842.76) scale(.1 -.1)">
<use xlink:href="#u"/>
<use x="61.181641" xlink:href="#ai"/>
<use x="120.361328" xlink:href="#e"/>
<use x="181.884766" xlink:href="#f"/>
</g>
</g>
<g clip-path="url(#a)">
<g transform="translate(652.21 842.76) scale(.1 -.1)">
<use xlink:href="#t"/>
<use x="39.208984" xlink:href="#e"/>
<use x="100.732422" xlink:href="#i"/>
</g>
</g>
<g clip-path="url(#a)">
<defs>
<path id="aw" d="m32.172-5.0781q-3.7969-9.7656-7.4219-12.734-3.6094-2.9844-9.6562-2.9844h-7.1875v7.5156h5.2812q3.7031 0 5.75 1.7656 2.0625 1.75 4.5469 8.2969l1.6094 4.0938-22.109 53.812h9.5156l17.094-42.766 17.094 42.766h9.5156z"/>
</defs>
<g transform="translate(703.05 842.76) scale(.1 -.1)">
<use xlink:href="#aw"/>
<use x="59.179688" xlink:href="#e"/>
<use x="120.703125" xlink:href="#h"/>
<use x="181.982422" xlink:href="#f"/>
<use x="223.095703" xlink:href="#p"/>
</g>
</g>
<g clip-path="url(#a)">
<g transform="translate(774.17 842.76) scale(.1 -.1)">
<use xlink:href="#an"/>
</g>
</g>
<g clip-path="url(#a)">
<g transform="translate(824.29 842.76) scale(.1 -.1)">
<use xlink:href="#p"/>
<use x="52.099609" xlink:href="#d"/>
<use x="79.882812" xlink:href="#i"/>
<use x="143.261719" xlink:href="#v"/>
<use x="198.242188" xlink:href="#e"/>
</g>
</g>
<g clip-path="url(#a)">
<defs>
<path id="as" d="m9.8125 72.906h9.8594v-67.828q0-13.188-5-19.141t-16.094-5.9531h-3.75v8.2969h3.0781q6.5312 0 9.2188 3.6719 2.6875 3.6562 2.6875 13.125z"/>
</defs>
<g transform="translate(886.71 842.76) scale(.1 -.1)">
<use xlink:href="#as"/>
<use x="29.492188" xlink:href="#h"/>
<use x="90.771484" xlink:href="#v"/>
<use x="145.751953" xlink:href="#ao"/>
<use x="203.662109" xlink:href="#d"/>
<use x="231.445312" xlink:href="#e"/>
</g>
</g>
<g clip-path="url(#a)">
<g transform="translate(955.11 842.76) scale(.1 -.1)">
<use xlink:href="#q"/>
<use x="69.824219" xlink:href="#s"/>
<use x="133.203125" xlink:href="#h"/>
<use x="194.482422" xlink:href="#i"/>
</g>
</g>
<g clip-path="url(#a)">
<defs>
<path id="av" d="m17.922 72.906v-27.109h-8.2969v27.109z"/>
</defs>
<g transform="translate(1033.2 842.76) scale(.1 -.1)">
<use xlink:href="#av"/>
<use x="27.490234" xlink:href="#p"/>
</g>
</g>
<g clip-path="url(#a)">
<g transform="translate(1097.8 842.76) scale(.1 -.1)">
<use xlink:href="#ak"/>
<use x="98.876953" xlink:href="#s"/>
<use x="162.255859" xlink:href="#u"/>
</g>
</g>
<g clip-path="url(#a)">
<g transform="translate(1175 842.76) scale(.1 -.1)">
<use xlink:href="#r"/>
<use x="68.408203" xlink:href="#l"/>
</g>
</g>
<g clip-path="url(#a)">
<defs>
<path id="ae" d="m9.8125 72.906h9.8594v-72.906h-9.8594z"/>
</defs>
<g transform="translate(1258.7 842.76) scale(.1 -.1)">
<use xlink:href="#ae"/>
</g>
</g>
<g clip-path="url(#a)">
<defs>
<path id="au" d="m19.094 12.406h9.9062v-12.406h-9.9062zm9.625 7.1719h-9.3281v7.5156q0 4.9375 1.3594 8.1094 1.375 3.1719 5.7656 7.375l4.3906 4.3438q2.7812 2.5938 4.0312 4.8906t1.25 4.6875q0 4.3438-3.2031 7.0312t-8.4688 2.6875q-3.8594 0-8.2344-1.7188-4.3594-1.7031-9.1094-4.9844v9.1875q4.5938 2.7812 9.2969 4.1406 4.7188 1.375 9.75 1.375 8.9844 0 14.422-4.7344 5.4531-4.7344 5.4531-12.5 0-3.7188-1.7656-7.0625-1.75-3.3438-6.1406-7.5312l-4.2969-4.2031q-2.2969-2.2969-3.25-3.5938t-1.3438-2.5156q-0.29688-1.0156-0.4375-2.4844t-0.14062-4z"/>
</defs>
<g transform="translate(1337 842.76) scale(.1 -.1)">
<use xlink:href="#au"/>
</g>
</g>
<g clip-path="url(#a)">
<g transform="translate(1417.1 842.76) scale(.1 -.1)">
<use xlink:href="#d"/>
<use x="27.783203" xlink:href="#i"/>
</g>
</g>
<g clip-path="url(#a)">
<defs>
<path id="c" d="m12.406 8.2969h16.109v55.625l-17.531-3.5156v8.9844l17.438 3.5156h9.8594v-64.609h16.109v-8.2969h-41.984z"/>
<path id="y" d="m10.984 1.5156v8.9844q3.7188-1.7656 7.5156-2.6875 3.8125-0.92188 7.4844-0.92188 9.7656 0 14.906 6.5625 5.1562 6.5625 5.8906 19.953-2.8281-4.2031-7.1875-6.4531-4.3438-2.25-9.6094-2.25-10.938 0-17.312 6.6094-6.375 6.625-6.375 18.109 0 11.219 6.6406 18 6.6406 6.7969 17.672 6.7969 12.656 0 19.312-9.7031 6.6719-9.6875 6.6719-28.141 0-17.234-8.1875-27.516-8.1719-10.281-21.984-10.281-3.7188 0-7.5312 0.73438-3.7969 0.73438-7.9062 2.2031zm19.625 30.906q6.6406 0 10.516 4.5312 3.8906 4.5469 3.8906 12.469 0 7.8594-3.8906 12.422-3.875 4.5625-10.516 4.5625t-10.516-4.5625-3.875-12.422q0-7.9219 3.875-12.469 3.875-4.5312 10.516-4.5312z"/>
<path id="z" d="m31.781 34.625q-7.0312 0-11.062-3.7656-4.0156-3.7656-4.0156-10.344 0-6.5938 4.0156-10.359 4.0312-3.7656 11.062-3.7656t11.078 3.7812q4.0625 3.7969 4.0625 10.344 0 6.5781-4.0312 10.344-4.0156 3.7656-11.109 3.7656zm-9.8594 4.1875q-6.3438 1.5625-9.8906 5.9062-3.5312 4.3594-3.5312 10.609 0 8.7344 6.2188 13.812 6.2344 5.0781 17.062 5.0781 10.891 0 17.094-5.0781t6.2031-13.812q0-6.25-3.5469-10.609-3.5312-4.3438-9.8281-5.9062 7.125-1.6562 11.094-6.5 3.9844-4.8281 3.9844-11.797 0-10.609-6.4688-16.281-6.4688-5.6562-18.531-5.6562-12.047 0-18.531 5.6562-6.4688 5.6719-6.4688 16.281 0 6.9688 4 11.797 4.0156 4.8438 11.141 6.5zm-3.6094 15.578q0-5.6562 3.5312-8.8281 3.5469-3.1719 9.9375-3.1719 6.3594 0 9.9375 3.1719 3.5938 3.1719 3.5938 8.8281 0 5.6719-3.5938 8.8438-3.5781 3.1719-9.9375 3.1719-6.3906 0-9.9375-3.1719-3.5312-3.1719-3.5312-8.8438z"/>
</defs>
<g transform="translate(1493.6 842.76) scale(.1 -.1)">
<use xlink:href="#c"/>
<use x="63.623047" xlink:href="#y"/>
<use x="127.246094" xlink:href="#y"/>
<use x="190.869141" xlink:href="#z"/>
</g>
</g>
<g clip-path="url(#a)">
<defs>
<path id="g" d="m10.688 12.406h10.312v-12.406h-10.312z"/>
</defs>
<g transform="translate(1591.8 842.76) scale(.1 -.1)">
<use xlink:href="#g"/>
</g>
</g>
<g clip-path="url(#a)">
<defs>
<path id="ar" d="m9.8125 72.906h14.703l18.594-49.609 18.703 49.609h14.703v-72.906h-9.625v64.016l-18.797-50h-9.9062l-18.797 50v-64.016h-9.5781z"/>
</defs>
<g transform="translate(1574.9 525.68) scale(.1 -.1)">
<use xlink:href="#ae"/>
<use x="29.492188" xlink:href="#ar"/>
<use x="115.771484" xlink:href="#x"/>
<use x="176.074219" xlink:href="#ad"/>
<use x="231.787109" xlink:href="#ae"/>
<use x="261.279297" xlink:href="#q"/>
<use x="331.103516" xlink:href="#ae"/>
<use x="360.595703" xlink:href="#j"/>
</g>
</g>
<g clip-path="url(#a)">
<g transform="translate(453.68 42.759) scale(.1 -.1)">
<use xlink:href="#c"/>
<use x="63.623047" xlink:href="#g"/>
<use x="95.410156" xlink:href="#c"/>
</g>
</g>
<g clip-path="url(#a)">
<defs>
<path id="n" d="m19.188 8.2969h34.422v-8.2969h-46.281v8.2969q5.6094 5.8125 15.297 15.594 9.7031 9.7969 12.188 12.641 4.7344 5.3125 6.6094 9 1.8906 3.6875 1.8906 7.25 0 5.8125-4.0781 9.4688-4.0781 3.6719-10.625 3.6719-4.6406 0-9.7969-1.6094-5.1406-1.6094-11-4.8906v9.9688q5.9531 2.3906 11.125 3.6094 5.1875 1.2188 9.4844 1.2188 11.328 0 18.062-5.6719 6.7344-5.6562 6.7344-15.125 0-4.5-1.6875-8.5312-1.6719-4.0156-6.125-9.4844-1.2188-1.4219-7.7656-8.1875-6.5312-6.7656-18.453-18.922z"/>
</defs>
<g transform="translate(68.048 685.31) scale(.1 -.1)">
<use xlink:href="#c"/>
<use x="63.623047" xlink:href="#g"/>
<use x="95.410156" xlink:href="#n"/>
</g>
</g>
<g clip-path="url(#a)">
<defs>
<path id="m" d="m40.578 39.312q7.0781-1.5156 11.047-6.3125 3.9844-4.7812 3.9844-11.812 0-10.781-7.4219-16.703-7.4219-5.9062-21.094-5.9062-4.5781 0-9.4375 0.90625t-10.031 2.7188v9.5156q4.0938-2.3906 8.9688-3.6094 4.8906-1.2188 10.219-1.2188 9.2656 0 14.125 3.6562t4.8594 10.641q0 6.4531-4.5156 10.078-4.5156 3.6406-12.562 3.6406h-8.5v8.1094h8.8906q7.2656 0 11.125 2.9062t3.8594 8.375q0 5.6094-3.9844 8.6094-3.9688 3.0156-11.391 3.0156-4.0625 0-8.7031-0.89062-4.6406-0.875-10.203-2.7188v8.7812q5.625 1.5625 10.531 2.3438t9.25 0.78125q11.234 0 17.766-5.1094 6.5469-5.0938 6.5469-13.781 0-6.0625-3.4688-10.234t-9.8594-5.7812z"/>
</defs>
<g transform="translate(99.608 204.19) scale(.1 -.1)">
<use xlink:href="#c"/>
<use x="63.623047" xlink:href="#g"/>
<use x="95.410156" xlink:href="#m"/>
</g>
</g>
<g clip-path="url(#a)">
<defs>
<path id="o" d="m37.797 64.312-24.906-38.922h24.906zm-2.5938 8.5938h12.406v-47.516h10.406v-8.2031h-10.406v-17.188h-9.8125v17.188h-32.906v9.5156z"/>
</defs>
<g transform="translate(175.7 685.31) scale(.1 -.1)">
<use xlink:href="#c"/>
<use x="63.623047" xlink:href="#g"/>
<use x="95.410156" xlink:href="#o"/>
</g>
</g>
<g clip-path="url(#a)">
<defs>
<path id="ab" d="m10.797 72.906h38.719v-8.3125h-29.688v-17.859q2.1406 0.73438 4.2812 1.0938 2.1562 0.35938 4.3125 0.35938 12.203 0 19.328-6.6875 7.1406-6.6875 7.1406-18.109 0-11.766-7.3281-18.297-7.3281-6.5156-20.656-6.5156-4.5938 0-9.3594 0.78125-4.75 0.78125-9.8281 2.3438v9.9219q4.3906-2.3906 9.0781-3.5625t9.9062-1.1719q8.4531 0 13.375 4.4375 4.9375 4.4375 4.9375 12.062 0 7.6094-4.9375 12.047-4.9219 4.4531-13.375 4.4531-3.9531 0-7.8906-0.875-3.9219-0.875-8.0156-2.7344z"/>
</defs>
<g transform="translate(215.43 525.68) scale(.1 -.1)">
<use xlink:href="#c"/>
<use x="63.623047" xlink:href="#g"/>
<use x="95.410156" xlink:href="#ab"/>
</g>
</g>
<g clip-path="url(#a)">
<defs>
<path id="ag" d="m33.016 40.375q-6.6406 0-10.531-4.5469-3.875-4.5312-3.875-12.438 0-7.8594 3.875-12.438 3.8906-4.5625 10.531-4.5625t10.516 4.5625q3.875 4.5781 3.875 12.438 0 7.9062-3.875 12.438-3.875 4.5469-10.516 4.5469zm19.578 30.922v-8.9844q-3.7188 1.75-7.5 2.6719-3.7812 0.9375-7.5 0.9375-9.7656 0-14.922-6.5938-5.1406-6.5938-5.875-19.922 2.875 4.25 7.2188 6.5156 4.3594 2.2656 9.5781 2.2656 10.984 0 17.359-6.6719 6.375-6.6562 6.375-18.125 0-11.234-6.6406-18.031-6.6406-6.7812-17.672-6.7812-12.656 0-19.344 9.6875-6.6875 9.7031-6.6875 28.109 0 17.281 8.2031 27.562t22.016 10.281q3.7188 0 7.5-0.73438t7.8906-2.1875z"/>
</defs>
<g transform="translate(420.6 204.19) scale(.1 -.1)">
<use xlink:href="#c"/>
<use x="63.623047" xlink:href="#g"/>
<use x="95.410156" xlink:href="#ag"/>
</g>
</g>
<g clip-path="url(#a)">
<defs>
<path id="aa" d="m8.2031 72.906h46.875v-4.2031l-26.469-68.703h-10.297l24.906 64.594h-35.016z"/>
</defs>
<g transform="translate(829.33 685.31) scale(.1 -.1)">
<use xlink:href="#c"/>
<use x="63.623047" xlink:href="#g"/>
<use x="95.410156" xlink:href="#aa"/>
</g>
</g>
<g clip-path="url(#a)">
<g transform="translate(1246.3 365.21) scale(.1 -.1)">
<use xlink:href="#c"/>
<use x="63.623047" xlink:href="#g"/>
<use x="95.410156" xlink:href="#z"/>
</g>
</g>
<g clip-path="url(#a)">
<g transform="translate(974.82 525.68) scale(.1 -.1)">
<use xlink:href="#c"/>
<use x="63.623047" xlink:href="#g"/>
<use x="95.410156" xlink:href="#c"/>
<use x="159.033203" xlink:href="#m"/>
</g>
</g>
<g clip-path="url(#a)">
<g transform="translate(1173 685.31) scale(.1 -.1)">
<use xlink:href="#c"/>
<use x="63.623047" xlink:href="#g"/>
<use x="95.410156" xlink:href="#c"/>
<use x="159.033203" xlink:href="#o"/>
</g>
</g>
<g clip-path="url(#a)">
<g transform="translate(1496 525.68) scale(.1 -.1)">
<use xlink:href="#c"/>
<use x="63.623047" xlink:href="#g"/>
<use x="95.410156" xlink:href="#c"/>
<use x="159.033203" xlink:href="#ab"/>
</g>
</g>
<g clip-path="url(#a)">
<g transform="translate(1410.6 685.31) scale(.1 -.1)">
<use xlink:href="#c"/>
<use x="63.623047" xlink:href="#g"/>
<use x="95.410156" xlink:href="#c"/>
<use x="159.033203" xlink:href="#aa"/>
</g>
</g>
<g clip-path="url(#a)">
<g transform="translate(1495.2 685.31) scale(.1 -.1)">
<use xlink:href="#c"/>
<use x="63.623047" xlink:href="#g"/>
<use x="95.410156" xlink:href="#c"/>
<use x="159.033203" xlink:href="#z"/>
</g>
</g>
<g clip-path="url(#a)">
<g transform="translate(923.55 685.31) scale(.1 -.1)">
<use xlink:href="#c"/>
<use x="63.623047" xlink:href="#g"/>
<use x="95.410156" xlink:href="#c"/>
<use x="159.033203" xlink:href="#y"/>
</g>
</g>
<g clip-path="url(#a)">
<defs>
<path id="ah" d="m31.781 66.406q-7.6094 0-11.453-7.5-3.8281-7.4844-3.8281-22.531 0-14.984 3.8281-22.484 3.8438-7.5 11.453-7.5 7.6719 0 11.5 7.5 3.8438 7.5 3.8438 22.484 0 15.047-3.8438 22.531-3.8281 7.5-11.5 7.5zm0 7.8125q12.266 0 18.734-9.7031 6.4688-9.6875 6.4688-28.141 0-18.406-6.4688-28.109-6.4688-9.6875-18.734-9.6875-12.25 0-18.719 9.6875-6.4688 9.7031-6.4688 28.109 0 18.453 6.4688 28.141 6.4688 9.7031 18.719 9.7031z"/>
</defs>
<g transform="translate(1026.1 685.31) scale(.1 -.1)">
<use xlink:href="#c"/>
<use x="63.623047" xlink:href="#g"/>
<use x="95.410156" xlink:href="#n"/>
<use x="159.033203" xlink:href="#ah"/>
</g>
</g>
<g clip-path="url(#a)">
<g transform="translate(290.43 685.31) scale(.1 -.1)">
<use xlink:href="#c"/>
<use x="63.623047" xlink:href="#g"/>
<use x="95.410156" xlink:href="#n"/>
<use x="159.033203" xlink:href="#c"/>
</g>
</g>
<g clip-path="url(#a)">
<g transform="translate(326.32 685.31) scale(.1 -.1)">
<use xlink:href="#c"/>
<use x="63.623047" xlink:href="#g"/>
<use x="95.410156" xlink:href="#n"/>
<use x="159.033203" xlink:href="#n"/>
</g>
</g>
<g clip-path="url(#a)">
<g transform="translate(428.85 525.68) scale(.1 -.1)">
<use xlink:href="#c"/>
<use x="63.623047" xlink:href="#g"/>
<use x="95.410156" xlink:href="#n"/>
<use x="159.033203" xlink:href="#m"/>
</g>
</g>
<g clip-path="url(#a)">
<g transform="translate(624.08 365.21) scale(.1 -.1)">
<use xlink:href="#c"/>
<use x="63.623047" xlink:href="#g"/>
<use x="95.410156" xlink:href="#n"/>
<use x="159.033203" xlink:href="#o"/>
</g>
</g>
<g clip-path="url(#a)">
<g transform="translate(544.19 685.31) scale(.1 -.1)">
<use xlink:href="#c"/>
<use x="63.623047" xlink:href="#g"/>
<use x="95.410156" xlink:href="#n"/>
<use x="159.033203" xlink:href="#ab"/>
</g>
</g>
<g clip-path="url(#a)">
<g transform="translate(622.37 525.68) scale(.1 -.1)">
<use xlink:href="#c"/>
<use x="63.623047" xlink:href="#g"/>
<use x="95.410156" xlink:href="#n"/>
<use x="159.033203" xlink:href="#ag"/>
</g>
</g>
<g clip-path="url(#a)">
<g transform="translate(705.68 685.31) scale(.1 -.1)">
<use xlink:href="#c"/>
<use x="63.623047" xlink:href="#g"/>
<use x="95.410156" xlink:href="#n"/>
<use x="159.033203" xlink:href="#aa"/>
</g>
</g>
<g clip-path="url(#a)">
<g transform="translate(595.46 685.31) scale(.1 -.1)">
<use xlink:href="#c"/>
<use x="63.623047" xlink:href="#g"/>
<use x="95.410156" xlink:href="#n"/>
<use x="159.033203" xlink:href="#z"/>
</g>
</g>
<g clip-path="url(#a)">
<g transform="translate(649.29 685.31) scale(.1 -.1)">
<use xlink:href="#c"/>
<use x="63.623047" xlink:href="#g"/>
<use x="95.410156" xlink:href="#n"/>
<use x="159.033203" xlink:href="#y"/>
</g>
</g>
<g clip-path="url(#a)">
<g transform="translate(364.77 685.31) scale(.1 -.1)">
<use xlink:href="#c"/>
<use x="63.623047" xlink:href="#g"/>
<use x="95.410156" xlink:href="#m"/>
<use x="159.033203" xlink:href="#ah"/>
</g>
</g>
<g clip-path="url(#a)">
<g transform="translate(405.78 685.31) scale(.1 -.1)">
<use xlink:href="#c"/>
<use x="63.623047" xlink:href="#g"/>
<use x="95.410156" xlink:href="#m"/>
<use x="159.033203" xlink:href="#c"/>
</g>
</g>
<g clip-path="url(#a)">
<g transform="translate(449.35 685.31) scale(.1 -.1)">
<use xlink:href="#c"/>
<use x="63.623047" xlink:href="#g"/>
<use x="95.410156" xlink:href="#m"/>
<use x="159.033203" xlink:href="#n"/>
</g>
</g>
<g clip-path="url(#a)">
<g transform="translate(495.49 685.31) scale(.1 -.1)">
<use xlink:href="#c"/>
<use x="63.623047" xlink:href="#g"/>
<use x="95.410156" xlink:href="#m"/>
<use x="159.033203" xlink:href="#m"/>
</g>
</g>
<g clip-path="url(#a)">
<g transform="translate(198.16 685.31) scale(.1 -.1)">
<use xlink:href="#c"/>
<use x="63.623047" xlink:href="#g"/>
<use x="95.410156" xlink:href="#m"/>
<use x="159.033203" xlink:href="#o"/>
</g>
</g>
<g clip-path="url(#a)">
<g transform="translate(226.35 685.31) scale(.1 -.1)">
<use xlink:href="#c"/>
<use x="63.623047" xlink:href="#g"/>
<use x="95.410156" xlink:href="#m"/>
<use x="159.033203" xlink:href="#ab"/>
</g>
</g>
<g clip-path="url(#a)">
<g transform="translate(72.557 685.31) scale(.1 -.1)">
<use xlink:href="#c"/>
<use x="63.623047" xlink:href="#g"/>
<use x="95.410156" xlink:href="#m"/>
<use x="159.033203" xlink:href="#ag"/>
</g>
</g>
<g clip-path="url(#a)">
<g transform="translate(82.81 685.31) scale(.1 -.1)">
<use xlink:href="#c"/>
<use x="63.623047" xlink:href="#g"/>
<use x="95.410156" xlink:href="#m"/>
<use x="159.033203" xlink:href="#aa"/>
</g>
</g>
<g clip-path="url(#a)">
<g transform="translate(95.626 685.31) scale(.1 -.1)">
<use xlink:href="#c"/>
<use x="63.623047" xlink:href="#g"/>
<use x="95.410156" xlink:href="#m"/>
<use x="159.033203" xlink:href="#z"/>
</g>
</g>
<g clip-path="url(#a)">
<g transform="translate(134.72 365.21) scale(.1 -.1)">
<use xlink:href="#c"/>
<use x="63.623047" xlink:href="#g"/>
<use x="95.410156" xlink:href="#m"/>
<use x="159.033203" xlink:href="#y"/>
</g>
</g>
<g clip-path="url(#a)">
<g transform="translate(119.98 525.68) scale(.1 -.1)">
<use xlink:href="#c"/>
<use x="63.623047" xlink:href="#g"/>
<use x="95.410156" xlink:href="#o"/>
<use x="159.033203" xlink:href="#ah"/>
</g>
</g>
<g clip-path="url(#a)">
<g transform="translate(149.45 685.31) scale(.1 -.1)">
<use xlink:href="#c"/>
<use x="63.623047" xlink:href="#g"/>
<use x="95.410156" xlink:href="#o"/>
<use x="159.033203" xlink:href="#c"/>
</g>
</g>
<g clip-path="url(#a)">
<g transform="translate(111.01 685.31) scale(.1 -.1)">
<use xlink:href="#c"/>
<use x="63.623047" xlink:href="#g"/>
<use x="95.410156" xlink:href="#o"/>
<use x="159.033203" xlink:href="#n"/>
</g>
</g>
<g clip-path="url(#a)">
<g transform="translate(128.95 685.31) scale(.1 -.1)">
<use xlink:href="#c"/>
<use x="63.623047" xlink:href="#g"/>
<use x="95.410156" xlink:href="#o"/>
<use x="159.033203" xlink:href="#m"/>
</g>
</g>
<g clip-path="url(#a)">
<g transform="translate(257.11 685.31) scale(.1 -.1)">
<use xlink:href="#c"/>
<use x="63.623047" xlink:href="#g"/>
<use x="95.410156" xlink:href="#o"/>
<use x="159.033203" xlink:href="#o"/>
</g>
</g>
<g clip-path="url(#a)">
<g transform="translate(764.63 685.31) scale(.1 -.1)">
<use xlink:href="#c"/>
<use x="63.623047" xlink:href="#g"/>
<use x="95.410156" xlink:href="#o"/>
<use x="159.033203" xlink:href="#ab"/>
</g>
</g>
<g clip-path="url(#a)">
<g transform="translate(1328.5 685.31) scale(.1 -.1)">
<use xlink:href="#c"/>
<use x="63.623047" xlink:href="#g"/>
<use x="95.410156" xlink:href="#o"/>
<use x="159.033203" xlink:href="#ag"/>
</g>
</g>
<g clip-path="url(#a)">
<g transform="translate(1582.3 685.31) scale(.1 -.1)">
<use xlink:href="#c"/>
<use x="63.623047" xlink:href="#g"/>
<use x="95.410156" xlink:href="#o"/>
<use x="159.033203" xlink:href="#aa"/>
</g>
</g>
<defs>
<clipPath id="a">
<rect width="1672" height="880"/>
</clipPath>
</defs>
</svg>
