<?xml version="1.0" encoding="UTF-8"?>
<!DOCTYPE svg  PUBLIC '-//W3C//DTD SVG 1.1//EN'  'http://www.w3.org/Graphics/SVG/1.1/DTD/svg11.dtd'>
<svg width="1317.3pt" height="693.33pt" version="1.1" viewBox="0 0 1317.3 693.33" xmlns="http://www.w3.org/2000/svg" xmlns:xlink="http://www.w3.org/1999/xlink">
<defs>
<style type="text/css">*{stroke-linecap:butt;stroke-linejoin:round;}</style>
</defs>
<path d="m0 693.33h1317.3v-693.33h-1317.3z" fill="#fff"/>
<g fill="none" stroke="#000">
<path d="m216.28 31.515v79.524" clip-path="url(#a)"/>
<path d="m216.28 111.04-156.4 473.61" clip-path="url(#a)"/>
<path d="m216.28 111.04-146.82 473.61" clip-path="url(#a)"/>
<path d="m216.28 111.04 303.22 79.41" clip-path="url(#a)"/>
<path d="m59.879 584.65v77.166" clip-path="url(#a)"/>
<path d="m69.459 584.65v77.166" clip-path="url(#a)"/>
<path d="m519.5 190.45-317.93 237.31" clip-path="url(#a)"/>
<path d="m519.5 190.45 19.406 394.2" clip-path="url(#a)"/>
<path d="m519.5 190.45 298.52 79.277" clip-path="url(#a)"/>
<path d="m201.58 427.76-111.36 78.65" clip-path="url(#a)"/>
<path d="m201.58 427.76-45.36 78.65" clip-path="url(#a)"/>
<path d="m201.58 427.76 156.72 78.65" clip-path="url(#a)"/>
<path d="m538.91 584.65v77.166" clip-path="url(#a)"/>
<path d="m818.02 269.73-191.29 236.69" clip-path="url(#a)"/>
<path d="m818.02 269.73-63.551 236.69" clip-path="url(#a)"/>
<path d="m818.02 269.73 254.84 79.118" clip-path="url(#a)"/>
<path d="m626.73 506.41-30.339 78.24" clip-path="url(#a)"/>
<path d="m626.73 506.41 30.339 78.24" clip-path="url(#a)"/>
<path d="m754.47 506.41-33.532 78.24" clip-path="url(#a)"/>
<path d="m754.47 506.41 33.532 78.24" clip-path="url(#a)"/>
<path d="m1072.9 348.84-214.61 235.81" clip-path="url(#a)"/>
<path d="m1072.9 348.84-83.671 78.918" clip-path="url(#a)"/>
<path d="m1072.9 348.84 15.329 235.81" clip-path="url(#a)"/>
<path d="m1072.9 348.84 98.361 235.81" clip-path="url(#a)"/>
<path d="m1072.9 348.84 184.59 235.81" clip-path="url(#a)"/>
<path d="m858.26 584.65v77.166" clip-path="url(#a)"/>
<path d="m989.2 427.76-19.161 78.65" clip-path="url(#a)"/>
<path d="m989.2 427.76 19.161 156.89" clip-path="url(#a)"/>
<path d="m1088.2 584.65v77.166" clip-path="url(#a)"/>
<path d="m1171.2 584.65v77.166" clip-path="url(#a)"/>
<path d="m970.04 506.41 38.322 78.24" clip-path="url(#a)" stroke-dasharray="3.7,1.6"/>
<path d="m970.04 506.41-38.322 78.24" clip-path="url(#a)"/>
<path d="m1008.4 584.65v77.166" clip-path="url(#a)"/>
<path d="m931.71 584.65v77.166" clip-path="url(#a)"/>
<path d="m720.94 584.65v77.166" clip-path="url(#a)"/>
<path d="m788 584.65v77.166" clip-path="url(#a)"/>
<path d="m596.39 584.65v77.166" clip-path="url(#a)"/>
<path d="m657.07 584.65v77.166" clip-path="url(#a)"/>
<path d="m90.217 506.41-7.9838 78.24" clip-path="url(#a)"/>
<path d="m90.217 506.41 7.9838 78.24" clip-path="url(#a)"/>
<path d="m156.22 506.41-38.855 78.24" clip-path="url(#a)"/>
<path d="m156.22 506.41-16.5 78.24" clip-path="url(#a)"/>
<path d="m156.22 506.41 55.355 78.24" clip-path="url(#a)"/>
<path d="m358.3 506.41-58.903 78.24" clip-path="url(#a)"/>
<path d="m358.3 506.41-17.387 78.24" clip-path="url(#a)"/>
<path d="m358.3 506.41 76.29 78.24" clip-path="url(#a)"/>
<path d="m299.39 584.65v77.166" clip-path="url(#a)"/>
<path d="m340.91 584.65v77.166" clip-path="url(#a)"/>
<path d="m434.59 584.65-48.968 77.166" clip-path="url(#a)"/>
<path d="m434.59 584.65-1.0645 77.166" clip-path="url(#a)"/>
<path d="m434.59 584.65 50.032 77.166" clip-path="url(#a)"/>
<path d="m117.36 584.65v77.166" clip-path="url(#a)"/>
<path d="m139.72 584.65v77.166" clip-path="url(#a)"/>
<path d="m211.57 584.65-46.306 77.166" clip-path="url(#a)"/>
<path d="m211.57 584.65-17.564 77.166" clip-path="url(#a)"/>
<path d="m211.57 584.65 14.371 77.166" clip-path="url(#a)"/>
<path d="m211.57 584.65 49.5 77.166" clip-path="url(#a)"/>
<path d="m82.234 584.65v77.166" clip-path="url(#a)"/>
<path d="m98.201 584.65v77.166" clip-path="url(#a)"/>
<path d="m1257.5 584.65v77.166" clip-path="url(#a)"/>
</g>
<path d="m210.01 68.269v6.0162q0 2.4 2.4 2.4h7.7425q2.4 0 2.4-2.4v-6.0162q0-2.4-2.4-2.4h-7.7425q-2.4 0-2.4 2.4z" clip-path="url(#a)" fill="#fff" stroke="#fff"/>
<g clip-path="url(#a)">
<defs>
<path id="ak" d="m9.8125 72.906h9.8594v-29.891h35.844v29.891h9.8594v-72.906h-9.8594v34.719h-35.844v-34.719h-9.8594z"/>
</defs>
<g transform="translate(214.07 68.269) rotate(90) scale(.08 -.08)">
<use xlink:href="#ak"/>
</g>
</g>
<path d="m143.18 352.41 1.716-5.1965q0.75258-2.279-1.5264-3.0315l-7.352-2.4279q-2.279-0.75258-3.0315 1.5264l-1.716 5.1965q-0.75258 2.279 1.5264 3.0315l7.352 2.4279q2.279 0.75258 3.0315-1.5264z" clip-path="url(#a)" fill="#fff" stroke="#fff"/>
<g clip-path="url(#a)">
<defs>
<path id="r" d="m34.188 63.188-13.391-36.281h26.812zm-5.5781 9.7188h11.188l27.781-72.906h-10.25l-6.6406 18.703h-32.859l-6.6406-18.703h-10.406z"/>
</defs>
<g transform="translate(139.32 351.14) rotate(-71.725) scale(.08 -.08)">
<use xlink:href="#r"/>
</g>
</g>
<path d="m148.15 352.01 1.4283-4.6074q0.71064-2.2924-1.5817-3.003l-7.3953-2.2926q-2.2924-0.71064-3.003 1.5817l-1.4283 4.6074q-0.71064 2.2924 1.5817 3.003l7.3953 2.2926q2.2924 0.71064 3.003-1.5817z" clip-path="url(#a)" fill="#fff" stroke="#fff"/>
<g clip-path="url(#a)">
<defs>
<path id="aa" d="m19.672 64.797v-27.391h12.406q6.8906 0 10.641 3.5625 3.7656 3.5625 3.7656 10.156 0 6.5469-3.7656 10.109-3.75 3.5625-10.641 3.5625zm-9.8594 8.1094h22.266q12.266 0 18.531-5.5469 6.2812-5.5469 6.2812-16.234 0-10.797-6.2812-16.312-6.2656-5.5156-18.531-5.5156h-12.406v-29.297h-9.8594z"/>
</defs>
<g transform="translate(144.26 350.8) rotate(-72.776) scale(.08 -.08)">
<use xlink:href="#aa"/>
</g>
</g>
<path d="m363.66 156.12 5.294 1.3864q2.3217 0.60802 2.9297-1.7137l1.9615-7.4899q0.60802-2.3217-1.7137-2.9297l-5.294-1.3864q-2.3217-0.60802-2.9297 1.7137l-1.9615 7.4899q-0.60802 2.3217 1.7137 2.9297z" clip-path="url(#a)" fill="#fff" stroke="#fff"/>
<g clip-path="url(#a)">
<g transform="translate(364.69 152.19) rotate(14.675) scale(.08 -.08)">
<use xlink:href="#r"/>
</g>
</g>
<path d="m53.608 606.33v33.808q0 2.4 2.4 2.4h7.7425q2.4 0 2.4-2.4v-33.808q0-2.4-2.4-2.4h-7.7425q-2.4 0-2.4 2.4z" clip-path="url(#a)" fill="#fff" stroke="#fff"/>
<g clip-path="url(#a)">
<defs>
<path id="l" d="m-0.29688 72.906h61.672v-8.3125h-25.875v-64.594h-9.9062v64.594h-25.891z"/>
<path id="d" d="m56.203 29.594v-4.3906h-41.312q0.59375-9.2812 5.5938-14.141t13.938-4.8594q5.1719 0 10.031 1.2656t9.6562 3.8125v-8.5q-4.8438-2.0469-9.9219-3.125t-10.297-1.0781q-13.094 0-20.734 7.6094-7.6406 7.625-7.6406 20.625 0 13.422 7.25 21.297 7.25 7.8906 19.562 7.8906 11.031 0 17.453-7.1094 6.4219-7.0938 6.4219-19.297zm-8.9844 2.6406q-0.09375 7.3594-4.125 11.75-4.0312 4.4062-10.672 4.4062-7.5156 0-12.031-4.25t-5.2031-11.969z"/>
<path id="i" d="m41.109 46.297q-1.5156 0.875-3.2969 1.2812-1.7812 0.42188-3.9219 0.42188-7.625 0-11.703-4.9531t-4.0781-14.234v-28.812h-9.0312v54.688h9.0312v-8.5q2.8438 4.9844 7.375 7.3906 4.5469 2.4219 11.047 2.4219 0.92188 0 2.0469-0.125 1.125-0.10938 2.4844-0.35938z"/>
<path id="k" d="m52 44.188q3.375 6.0625 8.0625 8.9375t11.031 2.875q8.5469 0 13.188-5.9844 4.6406-5.9688 4.6406-17v-33.016h-9.0312v32.719q0 7.8594-2.7969 11.656-2.7812 3.8125-8.4844 3.8125-6.9844 0-11.047-4.6406-4.0469-4.625-4.0469-12.641v-30.906h-9.0312v32.719q0 7.9062-2.7812 11.688t-8.5938 3.7812q-6.8906 0-10.953-4.6562-4.0469-4.6562-4.0469-12.625v-30.906h-9.0312v54.688h9.0312v-8.5q3.0781 5.0312 7.375 7.4219t10.203 2.3906q5.9688 0 10.141-3.0312 4.1719-3.0156 6.1719-8.7812z"/>
<path id="f" d="m9.4219 54.688h8.9844v-54.688h-8.9844zm0 21.297h8.9844v-11.391h-8.9844z"/>
<path id="e" d="m54.891 33.016v-33.016h-8.9844v32.719q0 7.7656-3.0312 11.609-3.0312 3.8594-9.0781 3.8594-7.2812 0-11.484-4.6406-4.2031-4.625-4.2031-12.641v-30.906h-9.0312v54.688h9.0312v-8.5q3.2344 4.9375 7.5938 7.375 4.375 2.4375 10.094 2.4375 9.4219 0 14.25-5.8281 4.8438-5.8281 4.8438-17.156z"/>
<path id="g" d="m34.281 27.484q-10.891 0-15.094-2.4844t-4.2031-8.5q0-4.7812 3.1562-7.5938 3.1562-2.7969 8.5625-2.7969 7.4844 0 12 5.2969t4.5156 14.078v2zm17.922 3.7188v-31.203h-8.9844v8.2969q-3.0781-4.9688-7.6719-7.3438t-11.234-2.375q-8.3906 0-13.359 4.7188-4.9531 4.7188-4.9531 12.625 0 9.2188 6.1719 13.906 6.1875 4.6875 18.438 4.6875h12.609v0.89062q0 6.2031-4.0781 9.5938t-11.453 3.3906q-4.6875 0-9.1406-1.125-4.4375-1.125-8.5312-3.375v8.3125q4.9219 1.9062 9.5625 2.8438 4.6406 0.95312 9.0312 0.95312 11.875 0 17.734-6.1562 5.8594-6.1406 5.8594-18.641z"/>
<path id="j" d="m9.4219 75.984h8.9844v-75.984h-8.9844z"/>
</defs>
<g transform="translate(57.671 606.33) rotate(90) scale(.08 -.08)">
<use xlink:href="#l"/>
<use x="44.083984" xlink:href="#d"/>
<use x="105.607422" xlink:href="#i"/>
<use x="144.970703" xlink:href="#k"/>
<use x="242.382812" xlink:href="#f"/>
<use x="270.166016" xlink:href="#e"/>
<use x="333.544922" xlink:href="#g"/>
<use x="394.824219" xlink:href="#j"/>
</g>
</g>
<path d="m63.188 606.33v33.808q0 2.4 2.4 2.4h7.7425q2.4 0 2.4-2.4v-33.808q0-2.4-2.4-2.4h-7.7425q-2.4 0-2.4 2.4z" clip-path="url(#a)" fill="#fff" stroke="#fff"/>
<g clip-path="url(#a)">
<g transform="translate(67.252 606.33) rotate(90) scale(.08 -.08)">
<use xlink:href="#l"/>
<use x="44.083984" xlink:href="#d"/>
<use x="105.607422" xlink:href="#i"/>
<use x="144.970703" xlink:href="#k"/>
<use x="242.382812" xlink:href="#f"/>
<use x="270.166016" xlink:href="#e"/>
<use x="333.544922" xlink:href="#g"/>
<use x="394.824219" xlink:href="#j"/>
</g>
</g>
<path d="m362.05 315.8 4.4766-3.3415q1.9233-1.4356 0.48767-3.3589l-4.6313-6.2046q-1.4356-1.9233-3.3589-0.48767l-4.4766 3.3415q-1.9233 1.4356-0.48767 3.3589l4.6313 6.2046q1.4356 1.9233 3.3589 0.48767z" clip-path="url(#a)" fill="#fff" stroke="#fff"/>
<g clip-path="url(#a)">
<defs>
<path id="o" d="m64.406 67.281v-10.391q-4.9844 4.6406-10.625 6.9219-5.6406 2.2969-11.984 2.2969-12.5 0-19.141-7.6406t-6.6406-22.094q0-14.406 6.6406-22.047t19.141-7.6406q6.3438 0 11.984 2.2969t10.625 6.9375v-10.312q-5.1719-3.5156-10.969-5.2812-5.7812-1.75-12.219-1.75-16.562 0-26.094 10.125-9.5156 10.141-9.5156 27.672 0 17.578 9.5156 27.703 9.5312 10.141 26.094 10.141 6.5312 0 12.312-1.7344 5.7969-1.7344 10.875-5.2031z"/>
</defs>
<g transform="translate(359.62 312.55) rotate(-36.739) scale(.08 -.08)">
<use xlink:href="#o"/>
</g>
</g>
<path d="m522.8 384.87 0.29427 5.9778q0.118 2.3971 2.5151 2.2791l7.7331-0.38068q2.3971-0.118 2.2791-2.5151l-0.29427-5.9778q-0.118-2.3971-2.5151-2.2791l-7.7331 0.38068q-2.3971 0.118-2.2791 2.5151z" clip-path="url(#a)" fill="#fff" stroke="#fff"/>
<g clip-path="url(#a)">
<defs>
<path id="aj" d="m9.8125 72.906h13.281l32.328-60.984v60.984h9.5625v-72.906h-13.281l-32.312 60.984v-60.984h-9.5781z"/>
</defs>
<g transform="translate(526.85 384.67) rotate(87.182) scale(.08 -.08)">
<use xlink:href="#aj"/>
</g>
</g>
<path d="m664.45 235.43 5.3991 1.4338q2.3196 0.61601 2.9356-1.7036l1.9873-7.4831q0.61601-2.3196-1.7036-2.9356l-5.3991-1.4338q-2.3196-0.61601-2.9356 1.7036l-1.9873 7.4831q-0.61601 2.3196 1.7036 2.9356z" clip-path="url(#a)" fill="#fff" stroke="#fff"/>
<g clip-path="url(#a)">
<g transform="translate(665.5 231.5) rotate(14.873) scale(.08 -.08)">
<use xlink:href="#o"/>
</g>
</g>
<path d="m147.55 473.6 3.9401-2.7828q1.9604-1.3846 0.57581-3.3449l-4.4666-6.3242q-1.3846-1.9604-3.3449-0.57581l-3.9401 2.7828q-1.9604 1.3846-0.57581 3.3449l4.4666 6.3242q1.3845 1.9604 3.3449 0.57581z" clip-path="url(#a)" fill="#fff" stroke="#fff"/>
<g clip-path="url(#a)">
<g transform="translate(145.2 470.28) rotate(-35.232) scale(.08 -.08)">
<use xlink:href="#aa"/>
</g>
</g>
<path d="m182.96 472.59 2.734-4.7406q1.199-2.079-0.87998-3.2781l-6.707-3.8681q-2.079-1.199-3.2781 0.87998l-2.734 4.7406q-1.199 2.079 0.87998 3.2781l6.707 3.8681q2.079 1.199 3.2781-0.87998z" clip-path="url(#a)" fill="#fff" stroke="#fff"/>
<g clip-path="url(#a)">
<g transform="translate(179.44 470.56) rotate(-60.027) scale(.08 -.08)">
<use xlink:href="#r"/>
</g>
</g>
<path d="m274.68 471.46 4.8911 2.4546q2.145 1.0765 3.2215-1.0685l3.4728-6.92q1.0765-2.145-1.0685-3.2215l-4.8911-2.4546q-2.145-1.0765-3.2215 1.0685l-3.4728 6.92q-1.0765 2.145 1.0685 3.2215z" clip-path="url(#a)" fill="#fff" stroke="#fff"/>
<g clip-path="url(#a)">
<g transform="translate(276.5 467.83) rotate(26.65) scale(.08 -.08)">
<use xlink:href="#r"/>
</g>
</g>
<path d="m532.64 606.33v33.808q0 2.4 2.4 2.4h7.7425q2.4 0 2.4-2.4v-33.808q0-2.4-2.4-2.4h-7.7425q-2.4 0-2.4 2.4z" clip-path="url(#a)" fill="#fff" stroke="#fff"/>
<g clip-path="url(#a)">
<g transform="translate(536.7 606.33) rotate(90) scale(.08 -.08)">
<use xlink:href="#l"/>
<use x="44.083984" xlink:href="#d"/>
<use x="105.607422" xlink:href="#i"/>
<use x="144.970703" xlink:href="#k"/>
<use x="242.382812" xlink:href="#f"/>
<use x="270.166016" xlink:href="#e"/>
<use x="333.544922" xlink:href="#g"/>
<use x="394.824219" xlink:href="#j"/>
</g>
</g>
<path d="m725.74 393.89 3.0321-3.7516q1.5086-1.8666-0.35798-3.3752l-6.0217-4.8668q-1.8666-1.5086-3.3752 0.35798l-3.0321 3.7516q-1.5086 1.8666 0.35798 3.3752l6.0217 4.8668q1.8666 1.5086 3.3752-0.35798z" clip-path="url(#a)" fill="#fff" stroke="#fff"/>
<g clip-path="url(#a)">
<g transform="translate(722.58 391.33) rotate(-51.054) scale(.08 -.08)">
<use xlink:href="#aa"/>
</g>
</g>
<path d="m791.6 392.34 1.4191-5.2853q0.62237-2.3179-1.6955-2.9403l-7.4776-2.0078q-2.3179-0.62237-2.9403 1.6955l-1.4191 5.2853q-0.62237 2.3179 1.6955 2.9403l7.4776 2.0078q2.3179 0.62237 2.9403-1.6955z" clip-path="url(#a)" fill="#fff" stroke="#fff"/>
<g clip-path="url(#a)">
<g transform="translate(787.67 391.28) rotate(-74.97) scale(.08 -.08)">
<use xlink:href="#r"/>
</g>
</g>
<path d="m940.97 314.46 5.2264 1.6226q2.2921 0.71159 3.0037-1.5805l2.2956-7.3944q0.71159-2.2921-1.5805-3.0037l-5.2264-1.6226q-2.2921-0.71159-3.0037 1.5805l-2.2956 7.3944q-0.71159 2.2921 1.5805 3.0037z" clip-path="url(#a)" fill="#fff" stroke="#fff"/>
<g clip-path="url(#a)">
<g transform="translate(942.18 310.58) rotate(17.247) scale(.08 -.08)">
<use xlink:href="#r"/>
</g>
</g>
<path d="m616.58 549.94 1.6635-4.29q0.86768-2.2377-1.37-3.1053l-7.2188-2.7992q-2.2377-0.86768-3.1053 1.37l-1.6635 4.29q-0.86768 2.2377 1.37 3.1053l7.2188 2.7992q2.2377 0.86768 3.1053-1.37z" clip-path="url(#a)" fill="#fff" stroke="#fff"/>
<g clip-path="url(#a)">
<defs>
<path id="w" d="m9.8125 72.906h41.891v-8.3125h-32.031v-21.484h28.906v-8.2969h-28.906v-34.812h-9.8594z"/>
</defs>
<g transform="translate(612.79 548.47) rotate(-68.806) scale(.08 -.08)">
<use xlink:href="#w"/>
</g>
</g>
<path d="m635.04 545.19 2.0196 5.2084q0.86768 2.2377 3.1053 1.37l7.2188-2.7992q2.2377-0.86768 1.37-3.1053l-2.0196-5.2084q-0.86768-2.2377-3.1053-1.37l-7.2188 2.7992q-2.2377 0.86768-1.37 3.1053z" clip-path="url(#a)" fill="#fff" stroke="#fff"/>
<g clip-path="url(#a)">
<g transform="translate(638.83 543.73) rotate(68.806) scale(.08 -.08)">
<use xlink:href="#o"/>
</g>
</g>
<path d="m742.38 550.56 2.1897-5.1093q0.94542-2.2059-1.2605-3.1514l-7.1165-3.05q-2.2059-0.94542-3.1514 1.2605l-2.1897 5.1093q-0.94542 2.2059 1.2605 3.1514l7.1165 3.05q2.2059 0.94542 3.1514-1.2605z" clip-path="url(#a)" fill="#fff" stroke="#fff"/>
<g clip-path="url(#a)">
<defs>
<path id="v" d="m44.391 34.188q3.1719-1.0781 6.1719-4.5938t6.0312-9.6719l10.016-19.922h-10.609l-9.3125 18.703q-3.625 7.3281-7.0156 9.7188t-9.25 2.3906h-10.75v-30.812h-9.8594v72.906h22.266q12.5 0 18.656-5.2344 6.1562-5.2188 6.1562-15.766 0-6.8906-3.2031-11.438-3.2031-4.5312-9.2969-6.2812zm-24.719 30.609v-25.875h12.406q7.125 0 10.766 3.2969t3.6406 9.6875-3.6406 9.6406-10.766 3.25z"/>
</defs>
<g transform="translate(738.64 548.96) rotate(-66.801) scale(.08 -.08)">
<use xlink:href="#v"/>
</g>
</g>
<path d="m764.37 545.43 2.2006 5.1346q0.94542 2.2059 3.1514 1.2605l7.1165-3.05q2.2059-0.94542 1.2605-3.1514l-2.2006-5.1346q-0.94542-2.2059-3.1514-1.2605l-7.1165 3.05q-2.2059 0.94542-1.2605 3.1514z" clip-path="url(#a)" fill="#fff" stroke="#fff"/>
<g clip-path="url(#a)">
<g transform="translate(768.11 543.83) rotate(66.801) scale(.08 -.08)">
<use xlink:href="#o"/>
</g>
</g>
<path d="m968.33 473.02 3.7415-4.1111q1.6154-1.775-0.1596-3.3904l-5.7262-5.2113q-1.775-1.6154-3.3904 0.1596l-3.7415 4.1111q-1.6154 1.775 0.1596 3.3904l5.7262 5.2113q1.775 1.6154 3.3904-0.1596z" clip-path="url(#a)" fill="#fff" stroke="#fff"/>
<g clip-path="url(#a)">
<g transform="translate(965.33 470.29) rotate(-47.695) scale(.08 -.08)">
<use xlink:href="#v"/>
</g>
</g>
<path d="m1033.5 394.6 3.6773-3.4685q1.7459-1.6467 0.099172-3.3927l-5.3125-5.6324q-1.6467-1.7459-3.3927-0.099172l-3.6773 3.4685q-1.7459 1.6467-0.099171 3.3927l5.3125 5.6324q1.6467 1.7459 3.3927 0.099172z" clip-path="url(#a)" fill="#fff" stroke="#fff"/>
<g clip-path="url(#a)">
<defs>
<path id="al" d="m9.8125 72.906h46.094v-8.3125h-36.234v-21.578h34.719v-8.2969h-34.719v-26.422h37.109v-8.2969h-46.969z"/>
</defs>
<g transform="translate(1030.7 391.64) rotate(-43.326) scale(.08 -.08)">
<use xlink:href="#al"/>
</g>
</g>
<path d="m1074.1 464.38 0.36059 5.547q0.15569 2.3949 2.5506 2.2393l7.7262-0.50225q2.3949-0.15569 2.2393-2.5506l-0.36059-5.547q-0.15569-2.3949-2.5506-2.2393l-7.7262 0.50225q-2.3949 0.15569-2.2393 2.5506z" clip-path="url(#a)" fill="#fff" stroke="#fff"/>
<g clip-path="url(#a)">
<g transform="translate(1078.1 464.12) rotate(86.281) scale(.08 -.08)">
<use xlink:href="#v"/>
</g>
</g>
<path d="m1115.2 466.58 2.1506 5.1557q0.92394 2.215 3.139 1.2911l7.1458-2.9807q2.215-0.92394 1.2911-3.139l-2.1506-5.1557q-0.92394-2.215-3.139-1.2911l-7.1458 2.9807q-2.215 0.92394-1.2911 3.139z" clip-path="url(#a)" fill="#fff" stroke="#fff"/>
<g clip-path="url(#a)">
<g transform="translate(1118.9 465.02) rotate(67.358) scale(.08 -.08)">
<use xlink:href="#o"/>
</g>
</g>
<path d="m1158.4 468.31 3.609 4.6105q1.4793 1.8899 3.3692 0.41051l6.0967-4.7724q1.8899-1.4793 0.41051-3.3692l-3.609-4.6105q-1.4793-1.8899-3.3692-0.41051l-6.0967 4.7724q-1.8899 1.4793-0.41051 3.3692z" clip-path="url(#a)" fill="#fff" stroke="#fff"/>
<g clip-path="url(#a)">
<defs>
<path id="ah" d="m8.6875 72.906h9.9219v-44.297q0-11.719 4.2344-16.875 4.25-5.1406 13.781-5.1406 9.4688 0 13.719 5.1406 4.25 5.1562 4.25 16.875v44.297h9.9062v-45.516q0-14.25-7.0625-21.531-7.0469-7.2812-20.812-7.2812-13.828 0-20.891 7.2812-7.0469 7.2812-7.0469 21.531z"/>
</defs>
<g transform="translate(1161.6 465.8) rotate(51.947) scale(.08 -.08)">
<use xlink:href="#ah"/>
</g>
</g>
<path d="m851.99 606.33v33.808q0 2.4 2.4 2.4h7.7425q2.4 0 2.4-2.4v-33.808q0-2.4-2.4-2.4h-7.7425q-2.4 0-2.4 2.4z" clip-path="url(#a)" fill="#fff" stroke="#fff"/>
<g clip-path="url(#a)">
<g transform="translate(856.06 606.33) rotate(90) scale(.08 -.08)">
<use xlink:href="#l"/>
<use x="44.083984" xlink:href="#d"/>
<use x="105.607422" xlink:href="#i"/>
<use x="144.970703" xlink:href="#k"/>
<use x="242.382812" xlink:href="#f"/>
<use x="270.166016" xlink:href="#e"/>
<use x="333.544922" xlink:href="#g"/>
<use x="394.824219" xlink:href="#j"/>
</g>
</g>
<path d="m985.11 471.03 1.1965-4.9113q0.56808-2.3318-1.7637-2.8999l-7.5225-1.8327q-2.3318-0.56809-2.8999 1.7637l-1.1965 4.9113q-0.56809 2.3318 1.7637 2.8999l7.5225 1.8327q2.3318 0.56809 2.8999-1.7637z" clip-path="url(#a)" fill="#fff" stroke="#fff"/>
<g clip-path="url(#a)">
<g transform="translate(981.16 470.06) rotate(-76.308) scale(.08 -.08)">
<use xlink:href="#al"/>
</g>
</g>
<path d="m992.21 504.19 0.67722 5.545q0.29095 2.3823 2.6733 2.0913l7.6854-0.93863q2.3823-0.29095 2.0913-2.6733l-0.67722-5.545q-0.29095-2.3823-2.6733-2.0913l-7.6854 0.93863q-2.3823 0.29095-2.0913 2.6733z" clip-path="url(#a)" fill="#fff" stroke="#fff"/>
<g clip-path="url(#a)">
<g transform="translate(996.25 503.7) rotate(83.037) scale(.08 -.08)">
<use xlink:href="#o"/>
</g>
</g>
<path d="m1081.9 606.33v33.808q0 2.4 2.4 2.4h7.7425q2.4 0 2.4-2.4v-33.808q0-2.4-2.4-2.4h-7.7425q-2.4 0-2.4 2.4z" clip-path="url(#a)" fill="#fff" stroke="#fff"/>
<g clip-path="url(#a)">
<g transform="translate(1086 606.33) rotate(90) scale(.08 -.08)">
<use xlink:href="#l"/>
<use x="44.083984" xlink:href="#d"/>
<use x="105.607422" xlink:href="#i"/>
<use x="144.970703" xlink:href="#k"/>
<use x="242.382812" xlink:href="#f"/>
<use x="270.166016" xlink:href="#e"/>
<use x="333.544922" xlink:href="#g"/>
<use x="394.824219" xlink:href="#j"/>
</g>
</g>
<path d="m1165 606.33v33.808q0 2.4 2.4 2.4h7.7425q2.4 0 2.4-2.4v-33.808q0-2.4-2.4-2.4h-7.7425q-2.4 0-2.4 2.4z" clip-path="url(#a)" fill="#fff" stroke="#fff"/>
<g clip-path="url(#a)">
<g transform="translate(1169 606.33) rotate(90) scale(.08 -.08)">
<use xlink:href="#l"/>
<use x="44.083984" xlink:href="#d"/>
<use x="105.607422" xlink:href="#i"/>
<use x="144.970703" xlink:href="#k"/>
<use x="242.382812" xlink:href="#f"/>
<use x="270.166016" xlink:href="#e"/>
<use x="333.544922" xlink:href="#g"/>
<use x="394.824219" xlink:href="#j"/>
</g>
</g>
<path d="m982.36 545.83 2.4072 4.9146q1.0557 2.1553 3.211 1.0996l6.9532-3.4057q2.1553-1.0557 1.0996-3.211l-2.4072-4.9146q-1.0557-2.1553-3.211-1.0996l-6.9532 3.4057q-2.1553 1.0557-1.0996 3.211z" clip-path="url(#a)" fill="#fff" stroke="#fff"/>
<g clip-path="url(#a)">
<g transform="translate(986.01 544.05) rotate(63.904) scale(.08 -.08)">
<use xlink:href="#r"/>
</g>
</g>
<path d="m955.39 550.57 2.234-4.561q1.0557-2.1553-1.0996-3.211l-6.9532-3.4057q-2.1553-1.0557-3.211 1.0996l-2.234 4.561q-1.0557 2.1553 1.0996 3.211l6.9532 3.4057q2.1553 1.0557 3.211-1.0996z" clip-path="url(#a)" fill="#fff" stroke="#fff"/>
<g clip-path="url(#a)">
<defs>
<path id="ai" d="m53.516 70.516v-9.625q-5.6094 2.6875-10.594 4-4.9844 1.3281-9.625 1.3281-8.0469 0-12.422-3.125t-4.375-8.8906q0-4.8438 2.9062-7.3125 2.9062-2.4531 11.016-3.9688l5.9531-1.2188q11.031-2.1094 16.281-7.4062t5.25-14.172q0-10.609-7.1094-16.078-7.0938-5.4688-20.812-5.4688-5.1719 0-11.016 1.1719-5.8281 1.1719-12.078 3.4688v10.156q6-3.3594 11.766-5.0781 5.7656-1.7031 11.328-1.7031 8.4375 0 13.031 3.3125 4.5938 3.3281 4.5938 9.4844 0 5.3594-3.2969 8.3906t-10.812 4.5469l-6.0156 1.1719q-11.031 2.1875-15.969 6.875-4.9219 4.6875-4.9219 13.047 0 9.6719 6.8125 15.234t18.766 5.5625q5.1406 0 10.453-0.9375 5.3281-0.92188 10.891-2.7656z"/>
</defs>
<g transform="translate(951.74 548.78) rotate(-63.904) scale(.08 -.08)">
<use xlink:href="#ai"/>
</g>
</g>
<path d="m1002.1 606.33v33.808q0 2.4 2.4 2.4h7.7425q2.4 0 2.4-2.4v-33.808q0-2.4-2.4-2.4h-7.7425q-2.4 0-2.4 2.4z" clip-path="url(#a)" fill="#fff" stroke="#fff"/>
<g clip-path="url(#a)">
<g transform="translate(1006.2 606.33) rotate(90) scale(.08 -.08)">
<use xlink:href="#l"/>
<use x="44.083984" xlink:href="#d"/>
<use x="105.607422" xlink:href="#i"/>
<use x="144.970703" xlink:href="#k"/>
<use x="242.382812" xlink:href="#f"/>
<use x="270.166016" xlink:href="#e"/>
<use x="333.544922" xlink:href="#g"/>
<use x="394.824219" xlink:href="#j"/>
</g>
</g>
<path d="m925.44 606.33v33.808q0 2.4 2.4 2.4h7.7425q2.4 0 2.4-2.4v-33.808q0-2.4-2.4-2.4h-7.7425q-2.4 0-2.4 2.4z" clip-path="url(#a)" fill="#fff" stroke="#fff"/>
<g clip-path="url(#a)">
<g transform="translate(929.51 606.33) rotate(90) scale(.08 -.08)">
<use xlink:href="#l"/>
<use x="44.083984" xlink:href="#d"/>
<use x="105.607422" xlink:href="#i"/>
<use x="144.970703" xlink:href="#k"/>
<use x="242.382812" xlink:href="#f"/>
<use x="270.166016" xlink:href="#e"/>
<use x="333.544922" xlink:href="#g"/>
<use x="394.824219" xlink:href="#j"/>
</g>
</g>
<path d="m714.67 606.33v33.808q0 2.4 2.4 2.4h7.7425q2.4 0 2.4-2.4v-33.808q0-2.4-2.4-2.4h-7.7425q-2.4 0-2.4 2.4z" clip-path="url(#a)" fill="#fff" stroke="#fff"/>
<g clip-path="url(#a)">
<g transform="translate(718.73 606.33) rotate(90) scale(.08 -.08)">
<use xlink:href="#l"/>
<use x="44.083984" xlink:href="#d"/>
<use x="105.607422" xlink:href="#i"/>
<use x="144.970703" xlink:href="#k"/>
<use x="242.382812" xlink:href="#f"/>
<use x="270.166016" xlink:href="#e"/>
<use x="333.544922" xlink:href="#g"/>
<use x="394.824219" xlink:href="#j"/>
</g>
</g>
<path d="m781.73 606.33v33.808q0 2.4 2.4 2.4h7.7425q2.4 0 2.4-2.4v-33.808q0-2.4-2.4-2.4h-7.7425q-2.4 0-2.4 2.4z" clip-path="url(#a)" fill="#fff" stroke="#fff"/>
<g clip-path="url(#a)">
<g transform="translate(785.8 606.33) rotate(90) scale(.08 -.08)">
<use xlink:href="#l"/>
<use x="44.083984" xlink:href="#d"/>
<use x="105.607422" xlink:href="#i"/>
<use x="144.970703" xlink:href="#k"/>
<use x="242.382812" xlink:href="#f"/>
<use x="270.166016" xlink:href="#e"/>
<use x="333.544922" xlink:href="#g"/>
<use x="394.824219" xlink:href="#j"/>
</g>
</g>
<path d="m590.12 606.33v33.808q0 2.4 2.4 2.4h7.7425q2.4 0 2.4-2.4v-33.808q0-2.4-2.4-2.4h-7.7425q-2.4 0-2.4 2.4z" clip-path="url(#a)" fill="#fff" stroke="#fff"/>
<g clip-path="url(#a)">
<g transform="translate(594.19 606.33) rotate(90) scale(.08 -.08)">
<use xlink:href="#l"/>
<use x="44.083984" xlink:href="#d"/>
<use x="105.607422" xlink:href="#i"/>
<use x="144.970703" xlink:href="#k"/>
<use x="242.382812" xlink:href="#f"/>
<use x="270.166016" xlink:href="#e"/>
<use x="333.544922" xlink:href="#g"/>
<use x="394.824219" xlink:href="#j"/>
</g>
</g>
<path d="m650.8 606.33v33.808q0 2.4 2.4 2.4h7.7425q2.4 0 2.4-2.4v-33.808q0-2.4-2.4-2.4h-7.7425q-2.4 0-2.4 2.4z" clip-path="url(#a)" fill="#fff" stroke="#fff"/>
<g clip-path="url(#a)">
<g transform="translate(654.86 606.33) rotate(90) scale(.08 -.08)">
<use xlink:href="#l"/>
<use x="44.083984" xlink:href="#d"/>
<use x="105.607422" xlink:href="#i"/>
<use x="144.970703" xlink:href="#k"/>
<use x="242.382812" xlink:href="#f"/>
<use x="270.166016" xlink:href="#e"/>
<use x="333.544922" xlink:href="#g"/>
<use x="394.824219" xlink:href="#j"/>
</g>
</g>
<path d="m92.231 548.46 0.4671-4.5775q0.24364-2.3876-2.144-2.6312l-7.7025-0.78599q-2.3876-0.24364-2.6312 2.144l-0.4671 4.5775q-0.24364 2.3876 2.144 2.6312l7.7025 0.78599q2.3876 0.24364 2.6312-2.144z" clip-path="url(#a)" fill="#fff" stroke="#fff"/>
<g clip-path="url(#a)">
<g transform="translate(88.188 548.04) rotate(-84.174) scale(.08 -.08)">
<use xlink:href="#w"/>
</g>
</g>
<path d="m87.687 543.39 0.56709 5.5574q0.24364 2.3876 2.6312 2.144l7.7025-0.78599q2.3876-0.24364 2.144-2.6312l-0.56709-5.5574q-0.24364-2.3876-2.6312-2.144l-7.7025 0.78599q-2.3876 0.24364-2.144 2.6312z" clip-path="url(#a)" fill="#fff" stroke="#fff"/>
<g clip-path="url(#a)">
<g transform="translate(91.73 542.98) rotate(84.174) scale(.08 -.08)">
<use xlink:href="#o"/>
</g>
</g>
<path d="m141.17 550.81 2.4724-4.9786q1.0675-2.1495-1.0821-3.217l-6.9345-3.4437q-2.1495-1.0675-3.217 1.0821l-2.4724 4.9786q-1.0675 2.1495 1.0821 3.217l6.9345 3.4437q2.1495 1.0675 3.217-1.0821z" clip-path="url(#a)" fill="#fff" stroke="#fff"/>
<g clip-path="url(#a)">
<g transform="translate(137.53 549) rotate(-63.591) scale(.08 -.08)">
<use xlink:href="#v"/>
</g>
</g>
<path d="m153.63 549.08 0.94947-4.5022q0.49524-2.3483-1.8531-2.8436l-7.5759-1.5977q-2.3483-0.49524-2.8436 1.8531l-0.94947 4.5022q-0.49524 2.3483 1.8531 2.8436l7.5759 1.5977q2.3483 0.49524 2.8436-1.8531z" clip-path="url(#a)" fill="#fff" stroke="#fff"/>
<g clip-path="url(#a)">
<g transform="translate(149.65 548.24) rotate(-78.091) scale(.08 -.08)">
<use xlink:href="#w"/>
</g>
</g>
<path d="m177.16 546.87 3.2264 4.5603q1.3862 1.9592 3.3454 0.57308l6.3206-4.4718q1.9592-1.3862 0.57308-3.3454l-3.2264-4.5603q-1.3862-1.9592-3.3454-0.57308l-6.3206 4.4718q-1.9592 1.3862-0.57308 3.3454z" clip-path="url(#a)" fill="#fff" stroke="#fff"/>
<g clip-path="url(#a)">
<g transform="translate(180.48 544.53) rotate(54.721) scale(.08 -.08)">
<use xlink:href="#o"/>
</g>
</g>
<path d="m332.18 551.52 3.3433-4.4409q1.4435-1.9174-0.47388-3.3609l-6.1855-4.6568q-1.9174-1.4435-3.3609 0.47388l-3.3433 4.4409q-1.4435 1.9174 0.47388 3.3609l6.1855 4.6568q1.9174 1.4435 3.3609-0.47388z" clip-path="url(#a)" fill="#fff" stroke="#fff"/>
<g clip-path="url(#a)">
<g transform="translate(328.94 549.08) rotate(-53.026) scale(.08 -.08)">
<use xlink:href="#v"/>
</g>
</g>
<path d="m355.23 549.14 0.99817-4.4917q0.52064-2.3428-1.8222-2.8635l-7.5581-1.6796q-2.3428-0.52064-2.8635 1.8222l-0.99817 4.4917q-0.52064 2.3428 1.8222 2.8635l7.5581 1.6796q2.3428 0.52064 2.8635-1.8222z" clip-path="url(#a)" fill="#fff" stroke="#fff"/>
<g clip-path="url(#a)">
<g transform="translate(351.26 548.26) rotate(-77.471) scale(.08 -.08)">
<use xlink:href="#w"/>
</g>
</g>
<path d="m390 547.91 3.8999 3.9996q1.6755 1.7183 3.3938 0.042825l5.5434-5.4053q1.7183-1.6755 0.042824-3.3938l-3.8999-3.9996q-1.6755-1.7183-3.3938-0.042824l-5.5434 5.4053q-1.7183 1.6755-0.042824 3.3938z" clip-path="url(#a)" fill="#fff" stroke="#fff"/>
<g clip-path="url(#a)">
<g transform="translate(392.91 545.07) rotate(45.723) scale(.08 -.08)">
<use xlink:href="#o"/>
</g>
</g>
<path d="m293.12 606.33v33.808q0 2.4 2.4 2.4h7.7425q2.4 0 2.4-2.4v-33.808q0-2.4-2.4-2.4h-7.7425q-2.4 0-2.4 2.4z" clip-path="url(#a)" fill="#fff" stroke="#fff"/>
<g clip-path="url(#a)">
<g transform="translate(297.19 606.33) rotate(90) scale(.08 -.08)">
<use xlink:href="#l"/>
<use x="44.083984" xlink:href="#d"/>
<use x="105.607422" xlink:href="#i"/>
<use x="144.970703" xlink:href="#k"/>
<use x="242.382812" xlink:href="#f"/>
<use x="270.166016" xlink:href="#e"/>
<use x="333.544922" xlink:href="#g"/>
<use x="394.824219" xlink:href="#j"/>
</g>
</g>
<path d="m334.64 606.33v33.808q0 2.4 2.4 2.4h7.7425q2.4 0 2.4-2.4v-33.808q0-2.4-2.4-2.4h-7.7425q-2.4 0-2.4 2.4z" clip-path="url(#a)" fill="#fff" stroke="#fff"/>
<g clip-path="url(#a)">
<g transform="translate(338.7 606.33) rotate(90) scale(.08 -.08)">
<use xlink:href="#l"/>
<use x="44.083984" xlink:href="#d"/>
<use x="105.607422" xlink:href="#i"/>
<use x="144.970703" xlink:href="#k"/>
<use x="242.382812" xlink:href="#f"/>
<use x="270.166016" xlink:href="#e"/>
<use x="333.544922" xlink:href="#g"/>
<use x="394.824219" xlink:href="#j"/>
</g>
</g>
<path d="m406.34 640.87 18.114-28.545q1.2859-2.0264-0.74052-3.3123l-6.5374-4.1484q-2.0264-1.2859-3.3123 0.74052l-18.114 28.545q-1.2859 2.0264 0.74052 3.3123l6.5374 4.1484q2.0264 1.2859 3.3123-0.74052z" clip-path="url(#a)" fill="#fff" stroke="#fff"/>
<g clip-path="url(#a)">
<g transform="translate(402.91 638.69) rotate(-57.602) scale(.08 -.08)">
<use xlink:href="#l"/>
<use x="44.083984" xlink:href="#d"/>
<use x="105.607422" xlink:href="#i"/>
<use x="144.970703" xlink:href="#k"/>
<use x="242.382812" xlink:href="#f"/>
<use x="270.166016" xlink:href="#e"/>
<use x="333.544922" xlink:href="#g"/>
<use x="394.824219" xlink:href="#j"/>
</g>
</g>
<path d="m440.09 640.22 0.46633-33.804q0.033105-2.3998-2.3667-2.4329l-7.7418-0.1068q-2.3998-0.033105-2.4329 2.3667l-0.46633 33.804q-0.033105 2.3998 2.3667 2.4329l7.7418 0.1068q2.3998 0.033105 2.4329-2.3667z" clip-path="url(#a)" fill="#fff" stroke="#fff"/>
<g clip-path="url(#a)">
<g transform="translate(436.03 640.17) rotate(-89.21) scale(.08 -.08)">
<use xlink:href="#l"/>
<use x="44.083984" xlink:href="#d"/>
<use x="105.607422" xlink:href="#i"/>
<use x="144.970703" xlink:href="#k"/>
<use x="242.382812" xlink:href="#f"/>
<use x="270.166016" xlink:href="#e"/>
<use x="333.544922" xlink:href="#g"/>
<use x="394.824219" xlink:href="#j"/>
</g>
</g>
<path d="m445.14 612.46 18.392 28.367q1.3057 2.0138 3.3194 0.70811l6.4965-4.2121q2.0138-1.3057 0.70811-3.3194l-18.392-28.367q-1.3057-2.0138-3.3194-0.70811l-6.4965 4.2121q-2.0138 1.3057-0.70811 3.3194z" clip-path="url(#a)" fill="#fff" stroke="#fff"/>
<g clip-path="url(#a)">
<g transform="translate(448.55 610.25) rotate(57.042) scale(.08 -.08)">
<use xlink:href="#l"/>
<use x="44.083984" xlink:href="#d"/>
<use x="105.607422" xlink:href="#i"/>
<use x="144.970703" xlink:href="#k"/>
<use x="242.382812" xlink:href="#f"/>
<use x="270.166016" xlink:href="#e"/>
<use x="333.544922" xlink:href="#g"/>
<use x="394.824219" xlink:href="#j"/>
</g>
</g>
<path d="m111.09 606.33v33.808q0 2.4 2.4 2.4h7.7425q2.4 0 2.4-2.4v-33.808q0-2.4-2.4-2.4h-7.7425q-2.4 0-2.4 2.4z" clip-path="url(#a)" fill="#fff" stroke="#fff"/>
<g clip-path="url(#a)">
<g transform="translate(115.15 606.33) rotate(90) scale(.08 -.08)">
<use xlink:href="#l"/>
<use x="44.083984" xlink:href="#d"/>
<use x="105.607422" xlink:href="#i"/>
<use x="144.970703" xlink:href="#k"/>
<use x="242.382812" xlink:href="#f"/>
<use x="270.166016" xlink:href="#e"/>
<use x="333.544922" xlink:href="#g"/>
<use x="394.824219" xlink:href="#j"/>
</g>
</g>
<path d="m133.45 606.33v33.808q0 2.4 2.4 2.4h7.7425q2.4 0 2.4-2.4v-33.808q0-2.4-2.4-2.4h-7.7425q-2.4 0-2.4 2.4z" clip-path="url(#a)" fill="#fff" stroke="#fff"/>
<g clip-path="url(#a)">
<g transform="translate(137.51 606.33) rotate(90) scale(.08 -.08)">
<use xlink:href="#l"/>
<use x="44.083984" xlink:href="#d"/>
<use x="105.607422" xlink:href="#i"/>
<use x="144.970703" xlink:href="#k"/>
<use x="242.382812" xlink:href="#f"/>
<use x="270.166016" xlink:href="#e"/>
<use x="333.544922" xlink:href="#g"/>
<use x="394.824219" xlink:href="#j"/>
</g>
</g>
<path d="m185.1 640.96 17.396-28.989q1.2349-2.0579-0.82299-3.2928l-6.6389-3.9839q-2.0579-1.2349-3.2928 0.82299l-17.396 28.989q-1.2349 2.0579 0.82299 3.2928l6.6389 3.9839q2.0579 1.2349 3.2928-0.82299z" clip-path="url(#a)" fill="#fff" stroke="#fff"/>
<g clip-path="url(#a)">
<g transform="translate(181.61 638.87) rotate(-59.033) scale(.08 -.08)">
<use xlink:href="#l"/>
<use x="44.083984" xlink:href="#d"/>
<use x="105.607422" xlink:href="#i"/>
<use x="144.970703" xlink:href="#k"/>
<use x="242.382812" xlink:href="#f"/>
<use x="270.166016" xlink:href="#e"/>
<use x="333.544922" xlink:href="#g"/>
<use x="394.824219" xlink:href="#j"/>
</g>
</g>
<path d="m205.15 641.11 7.5033-32.964q0.53266-2.3401-1.8075-2.8728l-7.5494-1.7184q-2.3401-0.53266-2.8728 1.8075l-7.5033 32.964q-0.53266 2.3401 1.8075 2.8728l7.5494 1.7184q2.3401 0.53266 2.8728-1.8075z" clip-path="url(#a)" fill="#fff" stroke="#fff"/>
<g clip-path="url(#a)">
<g transform="translate(201.19 640.21) rotate(-77.177) scale(.08 -.08)">
<use xlink:href="#l"/>
<use x="44.083984" xlink:href="#d"/>
<use x="105.607422" xlink:href="#i"/>
<use x="144.970703" xlink:href="#k"/>
<use x="242.382812" xlink:href="#f"/>
<use x="270.166016" xlink:href="#e"/>
<use x="333.544922" xlink:href="#g"/>
<use x="394.824219" xlink:href="#j"/>
</g>
</g>
<path d="m209.5 607.77 6.1896 33.236q0.4394 2.3594 2.7988 1.92l7.6116-1.4175q2.3594-0.4394 1.92-2.7988l-6.1896-33.236q-0.4394-2.3594-2.7988-1.92l-7.6116 1.4175q-2.3594 0.4394-1.92 2.7988z" clip-path="url(#a)" fill="#fff" stroke="#fff"/>
<g clip-path="url(#a)">
<g transform="translate(213.49 607.02) rotate(79.451) scale(.08 -.08)">
<use xlink:href="#l"/>
<use x="44.083984" xlink:href="#d"/>
<use x="105.607422" xlink:href="#i"/>
<use x="144.970703" xlink:href="#k"/>
<use x="242.382812" xlink:href="#f"/>
<use x="270.166016" xlink:href="#e"/>
<use x="333.544922" xlink:href="#g"/>
<use x="394.824219" xlink:href="#j"/>
</g>
</g>
<path d="m221.92 612.39 18.254 28.456q1.2958 2.0201 3.3159 0.72427l6.5169-4.1804q2.0201-1.2958 0.72427-3.3159l-18.254-28.456q-1.2958-2.0201-3.3159-0.72427l-6.5169 4.1804q-2.0201 1.2958-0.72427 3.3159z" clip-path="url(#a)" fill="#fff" stroke="#fff"/>
<g clip-path="url(#a)">
<g transform="translate(225.34 610.2) rotate(57.321) scale(.08 -.08)">
<use xlink:href="#l"/>
<use x="44.083984" xlink:href="#d"/>
<use x="105.607422" xlink:href="#i"/>
<use x="144.970703" xlink:href="#k"/>
<use x="242.382812" xlink:href="#f"/>
<use x="270.166016" xlink:href="#e"/>
<use x="333.544922" xlink:href="#g"/>
<use x="394.824219" xlink:href="#j"/>
</g>
</g>
<path d="m75.962 606.33v33.808q0 2.4 2.4 2.4h7.7425q2.4 0 2.4-2.4v-33.808q0-2.4-2.4-2.4h-7.7425q-2.4 0-2.4 2.4z" clip-path="url(#a)" fill="#fff" stroke="#fff"/>
<g clip-path="url(#a)">
<g transform="translate(80.026 606.33) rotate(90) scale(.08 -.08)">
<use xlink:href="#l"/>
<use x="44.083984" xlink:href="#d"/>
<use x="105.607422" xlink:href="#i"/>
<use x="144.970703" xlink:href="#k"/>
<use x="242.382812" xlink:href="#f"/>
<use x="270.166016" xlink:href="#e"/>
<use x="333.544922" xlink:href="#g"/>
<use x="394.824219" xlink:href="#j"/>
</g>
</g>
<path d="m91.93 606.33v33.808q0 2.4 2.4 2.4h7.7425q2.4 0 2.4-2.4v-33.808q0-2.4-2.4-2.4h-7.7425q-2.4 0-2.4 2.4z" clip-path="url(#a)" fill="#fff" stroke="#fff"/>
<g clip-path="url(#a)">
<g transform="translate(95.994 606.33) rotate(90) scale(.08 -.08)">
<use xlink:href="#l"/>
<use x="44.083984" xlink:href="#d"/>
<use x="105.607422" xlink:href="#i"/>
<use x="144.970703" xlink:href="#k"/>
<use x="242.382812" xlink:href="#f"/>
<use x="270.166016" xlink:href="#e"/>
<use x="333.544922" xlink:href="#g"/>
<use x="394.824219" xlink:href="#j"/>
</g>
</g>
<path d="m1251.2 606.33v33.808q0 2.4 2.4 2.4h7.7425q2.4 0 2.4-2.4v-33.808q0-2.4-2.4-2.4h-7.7425q-2.4 0-2.4 2.4z" clip-path="url(#a)" fill="#fff" stroke="#fff"/>
<g clip-path="url(#a)">
<g transform="translate(1255.2 606.33) rotate(90) scale(.08 -.08)">
<use xlink:href="#l"/>
<use x="44.083984" xlink:href="#d"/>
<use x="105.607422" xlink:href="#i"/>
<use x="144.970703" xlink:href="#k"/>
<use x="242.382812" xlink:href="#f"/>
<use x="270.166016" xlink:href="#e"/>
<use x="333.544922" xlink:href="#g"/>
<use x="394.824219" xlink:href="#j"/>
</g>
</g>
<defs>
<path id="b" d="m0 8.6603c2.2967 0 4.4997-0.9125 6.1237-2.5365 1.624-1.624 2.5365-3.827 2.5365-6.1237s-0.9125-4.4997-2.5365-6.1237c-1.624-1.624-3.827-2.5365-6.1237-2.5365s-4.4997 0.9125-6.1237 2.5365c-1.624 1.624-2.5365 3.827-2.5365 6.1237s0.9125 4.4997 2.5365 6.1237c1.624 1.624 3.827 2.5365 6.1237 2.5365z"/>
</defs>
<g clip-path="url(#a)" fill="#ffffff" stroke="#ffffff">
<use x="59.878788" y="661.818182" xlink:href="#b"/>
<use x="69.459394" y="661.818182" xlink:href="#b"/>
<use x="82.233535" y="661.818182" xlink:href="#b"/>
<use x="98.201212" y="661.818182" xlink:href="#b"/>
<use x="117.362424" y="661.818182" xlink:href="#b"/>
<use x="139.717172" y="661.818182" xlink:href="#b"/>
<use x="165.265455" y="661.818182" xlink:href="#b"/>
<use x="194.007273" y="661.818182" xlink:href="#b"/>
<use x="225.942626" y="661.818182" xlink:href="#b"/>
<use x="261.071515" y="661.818182" xlink:href="#b"/>
<use x="299.393939" y="661.818182" xlink:href="#b"/>
<use x="340.909899" y="661.818182" xlink:href="#b"/>
<use x="385.619394" y="661.818182" xlink:href="#b"/>
<use x="433.522424" y="661.818182" xlink:href="#b"/>
<use x="484.61899" y="661.818182" xlink:href="#b"/>
<use x="538.909091" y="661.818182" xlink:href="#b"/>
<use x="596.392727" y="661.818182" xlink:href="#b"/>
<use x="657.069899" y="661.818182" xlink:href="#b"/>
<use x="720.940606" y="661.818182" xlink:href="#b"/>
<use x="788.004848" y="661.818182" xlink:href="#b"/>
<use x="858.262626" y="661.818182" xlink:href="#b"/>
<use x="931.713939" y="661.818182" xlink:href="#b"/>
<use x="1008.358788" y="661.818182" xlink:href="#b"/>
<use x="1088.197172" y="661.818182" xlink:href="#b"/>
<use x="1171.229091" y="661.818182" xlink:href="#b"/>
<use x="1257.454545" y="661.818182" xlink:href="#b"/>
<use x="216.280539" y="31.515152" xlink:href="#b"/>
<use x="216.280539" y="111.038985" xlink:href="#b"/>
<use x="59.878788" y="584.651734" xlink:href="#b"/>
<use x="69.459394" y="584.651734" xlink:href="#b"/>
<use x="519.503435" y="190.448906" xlink:href="#b"/>
<use x="201.577134" y="427.761537" xlink:href="#b"/>
<use x="538.909091" y="584.651734" xlink:href="#b"/>
<use x="818.024081" y="269.725973" xlink:href="#b"/>
<use x="626.731313" y="506.411816" xlink:href="#b"/>
<use x="754.472727" y="506.411816" xlink:href="#b"/>
<use x="1072.868202" y="348.843577" xlink:href="#b"/>
<use x="858.262626" y="584.651734" xlink:href="#b"/>
<use x="989.197576" y="427.761537" xlink:href="#b"/>
<use x="1088.197172" y="584.651734" xlink:href="#b"/>
<use x="1171.229091" y="584.651734" xlink:href="#b"/>
<use x="970.036364" y="506.411816" xlink:href="#b"/>
<use x="1008.358788" y="584.651734" xlink:href="#b"/>
<use x="931.713939" y="584.651734" xlink:href="#b"/>
<use x="720.940606" y="584.651734" xlink:href="#b"/>
<use x="788.004848" y="584.651734" xlink:href="#b"/>
<use x="596.392727" y="584.651734" xlink:href="#b"/>
<use x="657.069899" y="584.651734" xlink:href="#b"/>
<use x="90.217374" y="506.411816" xlink:href="#b"/>
<use x="156.217104" y="506.411816" xlink:href="#b"/>
<use x="358.296925" y="506.411816" xlink:href="#b"/>
<use x="299.393939" y="584.651734" xlink:href="#b"/>
<use x="340.909899" y="584.651734" xlink:href="#b"/>
<use x="434.586936" y="584.651734" xlink:href="#b"/>
<use x="117.362424" y="584.651734" xlink:href="#b"/>
<use x="139.717172" y="584.651734" xlink:href="#b"/>
<use x="211.571717" y="584.651734" xlink:href="#b"/>
<use x="82.233535" y="584.651734" xlink:href="#b"/>
<use x="98.201212" y="584.651734" xlink:href="#b"/>
<use x="1257.454545" y="584.651734" xlink:href="#b"/>
</g>
<g clip-path="url(#a)">
<g transform="translate(53.042 664.58) scale(.1 -.1)">
<use xlink:href="#ak"/>
<use x="75.195312" xlink:href="#d"/>
</g>
</g>
<g clip-path="url(#a)">
<defs>
<path id="z" d="m37.109 75.984v-7.4844h-8.5938q-4.8281 0-6.7188-1.9531-1.875-1.9531-1.875-7.0312v-4.8281h14.797v-6.9844h-14.797v-47.703h-9.0312v47.703h-8.5938v6.9844h8.5938v3.8125q0 9.125 4.25 13.297 4.25 4.1875 13.469 4.1875z"/>
<path id="af" d="m8.5 21.578v33.109h8.9844v-32.766q0-7.7656 3.0156-11.656 3.0312-3.875 9.0938-3.875 7.2656 0 11.484 4.6406 4.2344 4.6406 4.2344 12.656v31h8.9844v-54.688h-8.9844v8.4062q-3.2656-4.9844-7.5938-7.4062-4.3125-2.4219-10.031-2.4219-9.4219 0-14.312 5.8594-4.875 5.8594-4.875 17.141z"/>
<path id="ag" d="m45.406 46.391v29.594h8.9844v-75.984h-8.9844v8.2031q-2.8281-4.875-7.1562-7.25-4.3125-2.375-10.375-2.375-9.9062 0-16.141 7.9062-6.2188 7.9219-6.2188 20.812t6.2188 20.797q6.2344 7.9062 16.141 7.9062 6.0625 0 10.375-2.375 4.3281-2.3594 7.1562-7.2344zm-30.609-19.094q0-9.9062 4.0781-15.547t11.203-5.6406 11.219 5.6406q4.1094 5.6406 4.1094 15.547t-4.1094 15.547q-4.0938 5.6406-11.219 5.6406t-11.203-5.6406-4.0781-15.547z"/>
</defs>
<g transform="translate(51.937 664.58) scale(.1 -.1)">
<use xlink:href="#z"/>
<use x="35.205078" xlink:href="#af"/>
<use x="98.583984" xlink:href="#e"/>
<use x="161.962891" xlink:href="#ag"/>
<use x="225.439453" xlink:href="#d"/>
<use x="286.962891" xlink:href="#ag"/>
</g>
</g>
<g clip-path="url(#a)">
<defs>
<path id="n" d="m18.312 70.219v-15.531h18.5v-6.9844h-18.5v-29.688q0-6.6875 1.8281-8.5938t7.4531-1.9062h9.2188v-7.5156h-9.2188q-10.406 0-14.359 3.875-3.9531 3.8906-3.9531 14.141v29.688h-6.5938v6.9844h6.5938v15.531z"/>
<path id="t" d="m54.891 33.016v-33.016h-8.9844v32.719q0 7.7656-3.0312 11.609-3.0312 3.8594-9.0781 3.8594-7.2812 0-11.484-4.6406-4.2031-4.625-4.2031-12.641v-30.906h-9.0312v75.984h9.0312v-29.797q3.2344 4.9375 7.5938 7.375 4.375 2.4375 10.094 2.4375 9.4219 0 14.25-5.8281 4.8438-5.8281 4.8438-17.156z"/>
</defs>
<g transform="translate(74.028 664.58) scale(.1 -.1)">
<use xlink:href="#n"/>
<use x="39.208984" xlink:href="#t"/>
<use x="102.587891" xlink:href="#d"/>
</g>
</g>
<g clip-path="url(#a)">
<defs>
<path id="u" d="m48.781 52.594v-8.4062q-3.8125 2.1094-7.6406 3.1562t-7.7344 1.0469q-8.75 0-13.594-5.5469-4.8281-5.5312-4.8281-15.547t4.8281-15.562q4.8438-5.5312 13.594-5.5312 3.9062 0 7.7344 1.0469t7.6406 3.1562v-8.3125q-3.7656-1.75-7.7969-2.625-4.0156-0.89062-8.5625-0.89062-12.359 0-19.641 7.7656-7.2656 7.7656-7.2656 20.953 0 13.375 7.3438 21.031 7.3594 7.6719 20.156 7.6719 4.1406 0 8.0938-0.85938 3.9531-0.84375 7.6719-2.5469z"/>
<path id="p" d="m30.609 48.391q-7.2188 0-11.422-5.6406t-4.2031-15.453 4.1719-15.453q4.1875-5.6406 11.453-5.6406 7.1875 0 11.375 5.6562 4.2031 5.6719 4.2031 15.438 0 9.7188-4.2031 15.406-4.1875 5.6875-11.375 5.6875zm0 7.6094q11.719 0 18.406-7.625 6.7031-7.6094 6.7031-21.078 0-13.422-6.7031-21.078-6.6875-7.6406-18.406-7.6406-11.766 0-18.438 7.6406-6.6562 7.6562-6.6562 21.078 0 13.469 6.6562 21.078 6.6719 7.625 18.438 7.625z"/>
<path id="s" d="m44.281 53.078v-8.5q-3.7969 1.9531-7.9062 2.9219-4.0938 0.98438-8.5 0.98438-6.6875 0-10.031-2.0469t-3.3438-6.1562q0-3.125 2.3906-4.9062t9.625-3.3906l3.0781-0.6875q9.5625-2.0469 13.594-5.7812t4.0312-10.422q0-7.625-6.0312-12.078-6.0312-4.4375-16.578-4.4375-4.3906 0-9.1562 0.85938t-10.031 2.5625v9.2812q4.9844-2.5938 9.8125-3.8906 4.8281-1.2812 9.5781-1.2812 6.3438 0 9.75 2.1719 3.4219 2.1719 3.4219 6.125 0 3.6562-2.4688 5.6094-2.4531 1.9531-10.812 3.7656l-3.125 0.73438q-8.3438 1.75-12.062 5.3906-3.7031 3.6406-3.7031 9.9844 0 7.7188 5.4688 11.906 5.4688 4.2031 15.531 4.2031 4.9688 0 9.3594-0.73438 4.4062-0.71875 8.1094-2.1875z"/>
</defs>
<g transform="translate(67.108 664.58) scale(.1 -.1)">
<use xlink:href="#u"/>
<use x="54.980469" xlink:href="#p"/>
<use x="116.162109" xlink:href="#e"/>
<use x="179.541016" xlink:href="#s"/>
<use x="231.640625" xlink:href="#n"/>
<use x="270.849609" xlink:href="#i"/>
<use x="311.962891" xlink:href="#af"/>
<use x="375.341797" xlink:href="#u"/>
<use x="430.322266" xlink:href="#n"/>
<use x="469.53125" xlink:href="#f"/>
<use x="497.314453" xlink:href="#p"/>
<use x="558.496094" xlink:href="#e"/>
</g>
</g>
<g clip-path="url(#a)">
<g transform="translate(112.54 664.58) scale(.1 -.1)">
<use xlink:href="#p"/>
<use x="61.181641" xlink:href="#z"/>
</g>
</g>
<g clip-path="url(#a)">
<g transform="translate(131.51 664.58) scale(.1 -.1)">
<use xlink:href="#n"/>
<use x="39.208984" xlink:href="#t"/>
<use x="102.587891" xlink:href="#d"/>
</g>
</g>
<g clip-path="url(#a)">
<defs>
<path id="ao" d="m9.8125 72.906h9.8594v-67.828q0-13.188-5-19.141t-16.094-5.9531h-3.75v8.2969h3.0781q6.5312 0 9.2188 3.6719 2.6875 3.6562 2.6875 13.125z"/>
<path id="as" d="m9.0781 75.984h9.0312v-44.875l26.812 23.578h11.469l-29-25.578 30.234-29.109h-11.719l-27.797 26.703v-26.703h-9.0312z"/>
</defs>
<g transform="translate(150.62 664.58) scale(.1 -.1)">
<use xlink:href="#ao"/>
<use x="29.492188" xlink:href="#g"/>
<use x="90.771484" xlink:href="#u"/>
<use x="145.751953" xlink:href="#as"/>
<use x="203.662109" xlink:href="#f"/>
<use x="231.445312" xlink:href="#d"/>
</g>
</g>
<g clip-path="url(#a)">
<g transform="translate(181.11 664.58) scale(.1 -.1)">
<use xlink:href="#o"/>
<use x="69.824219" xlink:href="#t"/>
<use x="133.203125" xlink:href="#g"/>
<use x="194.482422" xlink:href="#e"/>
</g>
</g>
<g clip-path="url(#a)">
<g transform="translate(206.56 664.58) scale(.1 -.1)">
<use xlink:href="#ai"/>
<use x="63.476562" xlink:href="#u"/>
<use x="118.457031" xlink:href="#f"/>
<use x="146.240234" xlink:href="#d"/>
<use x="207.763672" xlink:href="#e"/>
<use x="271.142578" xlink:href="#u"/>
<use x="326.123047" xlink:href="#d"/>
</g>
</g>
<g clip-path="url(#a)">
<g transform="translate(244.36 664.58) scale(.1 -.1)">
<use xlink:href="#o"/>
<use x="69.824219" xlink:href="#d"/>
<use x="131.347656" xlink:href="#e"/>
<use x="194.726562" xlink:href="#n"/>
<use x="233.935547" xlink:href="#i"/>
<use x="272.798828" xlink:href="#d"/>
</g>
</g>
<g clip-path="url(#a)">
<g transform="translate(294.37 664.58) scale(.1 -.1)">
<use xlink:href="#g"/>
<use x="61.279297" xlink:href="#n"/>
</g>
</g>
<g clip-path="url(#a)">
<g transform="translate(332.7 664.58) scale(.1 -.1)">
<use xlink:href="#n"/>
<use x="39.208984" xlink:href="#t"/>
<use x="102.587891" xlink:href="#d"/>
</g>
</g>
<g clip-path="url(#a)">
<g transform="translate(360.34 664.58) scale(.1 -.1)">
<use xlink:href="#r"/>
<use x="68.408203" xlink:href="#af"/>
<use x="131.787109" xlink:href="#s"/>
<use x="183.886719" xlink:href="#n"/>
<use x="223.095703" xlink:href="#i"/>
<use x="264.208984" xlink:href="#g"/>
<use x="325.488281" xlink:href="#j"/>
<use x="353.271484" xlink:href="#f"/>
<use x="381.054688" xlink:href="#g"/>
<use x="442.333984" xlink:href="#e"/>
</g>
</g>
<g clip-path="url(#a)">
<g transform="translate(412.69 664.58) scale(.1 -.1)">
<use xlink:href="#aj"/>
<use x="74.804688" xlink:href="#g"/>
<use x="136.083984" xlink:href="#n"/>
<use x="175.292969" xlink:href="#f"/>
<use x="203.076172" xlink:href="#p"/>
<use x="264.257812" xlink:href="#e"/>
<use x="327.636719" xlink:href="#g"/>
<use x="388.916016" xlink:href="#j"/>
</g>
</g>
<g clip-path="url(#a)">
<defs>
<path id="aq" d="m2.9844 54.688h9.5156l17.094-45.891 17.094 45.891h9.5156l-20.516-54.688h-12.203z"/>
<path id="ap" d="m32.172-5.0781q-3.7969-9.7656-7.4219-12.734-3.6094-2.9844-9.6562-2.9844h-7.1875v7.5156h5.2812q3.7031 0 5.75 1.7656 2.0625 1.75 4.5469 8.2969l1.6094 4.0938-22.109 53.812h9.5156l17.094-42.766 17.094 42.766h9.5156z"/>
</defs>
<g transform="translate(459.4 664.58) scale(.1 -.1)">
<use xlink:href="#ah"/>
<use x="73.193359" xlink:href="#e"/>
<use x="136.572266" xlink:href="#f"/>
<use x="164.355469" xlink:href="#aq"/>
<use x="223.535156" xlink:href="#d"/>
<use x="285.058594" xlink:href="#i"/>
<use x="326.171875" xlink:href="#s"/>
<use x="378.271484" xlink:href="#f"/>
<use x="406.054688" xlink:href="#n"/>
<use x="445.263672" xlink:href="#ap"/>
</g>
</g>
<g clip-path="url(#a)">
<g transform="translate(529.5 664.58) scale(.1 -.1)">
<use xlink:href="#g"/>
<use x="61.279297" xlink:href="#e"/>
<use x="124.658203" xlink:href="#ag"/>
</g>
</g>
<g clip-path="url(#a)">
<g transform="translate(588.19 664.58) scale(.1 -.1)">
<use xlink:href="#n"/>
<use x="39.208984" xlink:href="#t"/>
<use x="102.587891" xlink:href="#d"/>
</g>
</g>
<g clip-path="url(#a)">
<defs>
<path id="an" d="m48.688 27.297q0 9.9062-4.0781 15.547t-11.203 5.6406q-7.1406 0-11.219-5.6406t-4.0781-15.547 4.0781-15.547 11.219-5.6406q7.125 0 11.203 5.6406t4.0781 15.547zm-30.578 19.094q2.8438 4.875 7.1562 7.2344 4.3281 2.375 10.328 2.375 9.9688 0 16.188-7.9062 6.2344-7.9062 6.2344-20.797t-6.2344-20.812q-6.2188-7.9062-16.188-7.9062-6 0-10.328 2.375-4.3125 2.375-7.1562 7.25v-8.2031h-9.0312v75.984h9.0312z"/>
</defs>
<g transform="translate(621.56 664.58) scale(.1 -.1)">
<use xlink:href="#d"/>
<use x="61.523438" xlink:href="#s"/>
<use x="113.623047" xlink:href="#n"/>
<use x="152.832031" xlink:href="#g"/>
<use x="214.111328" xlink:href="#an"/>
<use x="277.587891" xlink:href="#j"/>
<use x="305.371094" xlink:href="#f"/>
<use x="333.154297" xlink:href="#s"/>
<use x="385.253906" xlink:href="#t"/>
<use x="448.632812" xlink:href="#k"/>
<use x="546.044922" xlink:href="#d"/>
<use x="607.568359" xlink:href="#e"/>
<use x="670.947266" xlink:href="#n"/>
</g>
</g>
<g clip-path="url(#a)">
<g transform="translate(716.12 664.58) scale(.1 -.1)">
<use xlink:href="#p"/>
<use x="61.181641" xlink:href="#z"/>
</g>
</g>
<g clip-path="url(#a)">
<g transform="translate(769.37 664.58) scale(.1 -.1)">
<use xlink:href="#s"/>
<use x="52.099609" xlink:href="#u"/>
<use x="107.080078" xlink:href="#t"/>
<use x="170.458984" xlink:href="#p"/>
<use x="231.640625" xlink:href="#p"/>
<use x="292.822266" xlink:href="#j"/>
<use x="320.605469" xlink:href="#s"/>
</g>
</g>
<g clip-path="url(#a)">
<g transform="translate(853.7 664.58) scale(.1 -.1)">
<use xlink:href="#f"/>
<use x="27.783203" xlink:href="#e"/>
</g>
</g>
<g clip-path="url(#a)">
<defs>
<path id="ar" d="m18.109 8.2031v-29h-9.0312v75.484h9.0312v-8.2969q2.8438 4.875 7.1562 7.2344 4.3281 2.375 10.328 2.375 9.9688 0 16.188-7.9062 6.2344-7.9062 6.2344-20.797t-6.2344-20.812q-6.2188-7.9062-16.188-7.9062-6 0-10.328 2.375-4.3125 2.375-7.1562 7.25zm30.578 19.094q0 9.9062-4.0781 15.547t-11.203 5.6406q-7.1406 0-11.219-5.6406t-4.0781-15.547 4.0781-15.547 11.219-5.6406q7.125 0 11.203 5.6406t4.0781 15.547z"/>
</defs>
<g transform="translate(920.37 664.58) scale(.1 -.1)">
<use xlink:href="#ar"/>
<use x="63.476562" xlink:href="#p"/>
<use x="124.658203" xlink:href="#p"/>
<use x="185.839844" xlink:href="#i"/>
</g>
</g>
<g clip-path="url(#a)">
<defs>
<path id="at" d="m45.406 27.984q0 9.7656-4.0312 15.125-4.0156 5.375-11.297 5.375-7.2188 0-11.25-5.375-4.0312-5.3594-4.0312-15.125 0-9.7188 4.0312-15.094t11.25-5.375q7.2812 0 11.297 5.375 4.0312 5.375 4.0312 15.094zm8.9844-21.203q0-13.953-6.2031-20.766-6.1875-6.8125-18.984-6.8125-4.7344 0-8.9375 0.70312t-8.1562 2.1719v8.7344q3.9531-2.1406 7.8125-3.1562 3.8594-1.0312 7.8594-1.0312 8.8438 0 13.234 4.6094t4.3906 13.938v4.4531q-2.7812-4.8438-7.125-7.2344t-10.406-2.3906q-10.047 0-16.203 7.6562-6.1562 7.6719-6.1562 20.328 0 12.688 6.1562 20.344 6.1562 7.6719 16.203 7.6719 6.0625 0 10.406-2.3906t7.125-7.2188v8.2969h8.9844z"/>
</defs>
<g transform="translate(989.94 664.58) scale(.1 -.1)">
<use xlink:href="#i"/>
<use x="38.863281" xlink:href="#d"/>
<use x="100.386719" xlink:href="#at"/>
<use x="163.863281" xlink:href="#f"/>
<use x="191.646484" xlink:href="#p"/>
<use x="252.828125" xlink:href="#e"/>
<use x="316.207031" xlink:href="#s"/>
</g>
</g>
<g clip-path="url(#a)">
<g transform="translate(1083.4 664.58) scale(.1 -.1)">
<use xlink:href="#p"/>
<use x="61.181641" xlink:href="#z"/>
</g>
</g>
<g clip-path="url(#a)">
<g transform="translate(1156.9 664.58) scale(.1 -.1)">
<use xlink:href="#o"/>
<use x="69.824219" xlink:href="#t"/>
<use x="133.203125" xlink:href="#f"/>
<use x="160.986328" xlink:href="#e"/>
<use x="224.365234" xlink:href="#g"/>
</g>
</g>
<g clip-path="url(#a)">
<defs>
<path id="h" d="m10.688 12.406h10.312v-12.406h-10.312z"/>
</defs>
<g transform="translate(1255.9 664.58) scale(.1 -.1)">
<use xlink:href="#h"/>
</g>
</g>
<g clip-path="url(#a)">
<defs>
<path id="c" d="m12.406 8.2969h16.109v55.625l-17.531-3.5156v8.9844l17.438 3.5156h9.8594v-64.609h16.109v-8.2969h-41.984z"/>
</defs>
<g transform="translate(208.33 34.275) scale(.1 -.1)">
<use xlink:href="#c"/>
<use x="63.623047" xlink:href="#h"/>
<use x="95.410156" xlink:href="#c"/>
</g>
</g>
<g clip-path="url(#a)">
<defs>
<path id="m" d="m19.188 8.2969h34.422v-8.2969h-46.281v8.2969q5.6094 5.8125 15.297 15.594 9.7031 9.7969 12.188 12.641 4.7344 5.3125 6.6094 9 1.8906 3.6875 1.8906 7.25 0 5.8125-4.0781 9.4688-4.0781 3.6719-10.625 3.6719-4.6406 0-9.7969-1.6094-5.1406-1.6094-11-4.8906v9.9688q5.9531 2.3906 11.125 3.6094 5.1875 1.2188 9.4844 1.2188 11.328 0 18.062-5.6719 6.7344-5.6562 6.7344-15.125 0-4.5-1.6875-8.5312-1.6719-4.0156-6.125-9.4844-1.2188-1.4219-7.7656-8.1875-6.5312-6.7656-18.453-18.922z"/>
</defs>
<g transform="translate(208.33 113.8) scale(.1 -.1)">
<use xlink:href="#c"/>
<use x="63.623047" xlink:href="#h"/>
<use x="95.410156" xlink:href="#m"/>
</g>
</g>
<g clip-path="url(#a)">
<defs>
<path id="q" d="m40.578 39.312q7.0781-1.5156 11.047-6.3125 3.9844-4.7812 3.9844-11.812 0-10.781-7.4219-16.703-7.4219-5.9062-21.094-5.9062-4.5781 0-9.4375 0.90625t-10.031 2.7188v9.5156q4.0938-2.3906 8.9688-3.6094 4.8906-1.2188 10.219-1.2188 9.2656 0 14.125 3.6562t4.8594 10.641q0 6.4531-4.5156 10.078-4.5156 3.6406-12.562 3.6406h-8.5v8.1094h8.8906q7.2656 0 11.125 2.9062t3.8594 8.375q0 5.6094-3.9844 8.6094-3.9688 3.0156-11.391 3.0156-4.0625 0-8.7031-0.89062-4.6406-0.875-10.203-2.7188v8.7812q5.625 1.5625 10.531 2.3438t9.25 0.78125q11.234 0 17.766-5.1094 6.5469-5.0938 6.5469-13.781 0-6.0625-3.4688-10.234t-9.8594-5.7812z"/>
</defs>
<g transform="translate(51.927 587.41) scale(.1 -.1)">
<use xlink:href="#c"/>
<use x="63.623047" xlink:href="#h"/>
<use x="95.410156" xlink:href="#q"/>
</g>
</g>
<g clip-path="url(#a)">
<defs>
<path id="y" d="m37.797 64.312-24.906-38.922h24.906zm-2.5938 8.5938h12.406v-47.516h10.406v-8.2031h-10.406v-17.188h-9.8125v17.188h-32.906v9.5156z"/>
</defs>
<g transform="translate(61.508 587.41) scale(.1 -.1)">
<use xlink:href="#c"/>
<use x="63.623047" xlink:href="#h"/>
<use x="95.410156" xlink:href="#y"/>
</g>
</g>
<g clip-path="url(#a)">
<defs>
<path id="x" d="m10.797 72.906h38.719v-8.3125h-29.688v-17.859q2.1406 0.73438 4.2812 1.0938 2.1562 0.35938 4.3125 0.35938 12.203 0 19.328-6.6875 7.1406-6.6875 7.1406-18.109 0-11.766-7.3281-18.297-7.3281-6.5156-20.656-6.5156-4.5938 0-9.3594 0.78125-4.75 0.78125-9.8281 2.3438v9.9219q4.3906-2.3906 9.0781-3.5625t9.9062-1.1719q8.4531 0 13.375 4.4375 4.9375 4.4375 4.9375 12.062 0 7.6094-4.9375 12.047-4.9219 4.4531-13.375 4.4531-3.9531 0-7.8906-0.875-3.9219-0.875-8.0156-2.7344z"/>
</defs>
<g transform="translate(511.55 193.21) scale(.1 -.1)">
<use xlink:href="#c"/>
<use x="63.623047" xlink:href="#h"/>
<use x="95.410156" xlink:href="#x"/>
</g>
</g>
<g clip-path="url(#a)">
<defs>
<path id="am" d="m33.016 40.375q-6.6406 0-10.531-4.5469-3.875-4.5312-3.875-12.438 0-7.8594 3.875-12.438 3.8906-4.5625 10.531-4.5625t10.516 4.5625q3.875 4.5781 3.875 12.438 0 7.9062-3.875 12.438-3.875 4.5469-10.516 4.5469zm19.578 30.922v-8.9844q-3.7188 1.75-7.5 2.6719-3.7812 0.9375-7.5 0.9375-9.7656 0-14.922-6.5938-5.1406-6.5938-5.875-19.922 2.875 4.25 7.2188 6.5156 4.3594 2.2656 9.5781 2.2656 10.984 0 17.359-6.6719 6.375-6.6562 6.375-18.125 0-11.234-6.6406-18.031-6.6406-6.7812-17.672-6.7812-12.656 0-19.344 9.6875-6.6875 9.7031-6.6875 28.109 0 17.281 8.2031 27.562t22.016 10.281q3.7188 0 7.5-0.73438t7.8906-2.1875z"/>
</defs>
<g transform="translate(193.63 430.52) scale(.1 -.1)">
<use xlink:href="#c"/>
<use x="63.623047" xlink:href="#h"/>
<use x="95.410156" xlink:href="#am"/>
</g>
</g>
<g clip-path="url(#a)">
<defs>
<path id="ad" d="m8.2031 72.906h46.875v-4.2031l-26.469-68.703h-10.297l24.906 64.594h-35.016z"/>
</defs>
<g transform="translate(530.96 587.41) scale(.1 -.1)">
<use xlink:href="#c"/>
<use x="63.623047" xlink:href="#h"/>
<use x="95.410156" xlink:href="#ad"/>
</g>
</g>
<g clip-path="url(#a)">
<defs>
<path id="ac" d="m31.781 34.625q-7.0312 0-11.062-3.7656-4.0156-3.7656-4.0156-10.344 0-6.5938 4.0156-10.359 4.0312-3.7656 11.062-3.7656t11.078 3.7812q4.0625 3.7969 4.0625 10.344 0 6.5781-4.0312 10.344-4.0156 3.7656-11.109 3.7656zm-9.8594 4.1875q-6.3438 1.5625-9.8906 5.9062-3.5312 4.3594-3.5312 10.609 0 8.7344 6.2188 13.812 6.2344 5.0781 17.062 5.0781 10.891 0 17.094-5.0781t6.2031-13.812q0-6.25-3.5469-10.609-3.5312-4.3438-9.8281-5.9062 7.125-1.6562 11.094-6.5 3.9844-4.8281 3.9844-11.797 0-10.609-6.4688-16.281-6.4688-5.6562-18.531-5.6562-12.047 0-18.531 5.6562-6.4688 5.6719-6.4688 16.281 0 6.9688 4 11.797 4.0156 4.8438 11.141 6.5zm-3.6094 15.578q0-5.6562 3.5312-8.8281 3.5469-3.1719 9.9375-3.1719 6.3594 0 9.9375 3.1719 3.5938 3.1719 3.5938 8.8281 0 5.6719-3.5938 8.8438-3.5781 3.1719-9.9375 3.1719-6.3906 0-9.9375-3.1719-3.5312-3.1719-3.5312-8.8438z"/>
</defs>
<g transform="translate(810.07 272.49) scale(.1 -.1)">
<use xlink:href="#c"/>
<use x="63.623047" xlink:href="#h"/>
<use x="95.410156" xlink:href="#ac"/>
</g>
</g>
<g clip-path="url(#a)">
<defs>
<path id="ab" d="m10.984 1.5156v8.9844q3.7188-1.7656 7.5156-2.6875 3.8125-0.92188 7.4844-0.92188 9.7656 0 14.906 6.5625 5.1562 6.5625 5.8906 19.953-2.8281-4.2031-7.1875-6.4531-4.3438-2.25-9.6094-2.25-10.938 0-17.312 6.6094-6.375 6.625-6.375 18.109 0 11.219 6.6406 18 6.6406 6.7969 17.672 6.7969 12.656 0 19.312-9.7031 6.6719-9.6875 6.6719-28.141 0-17.234-8.1875-27.516-8.1719-10.281-21.984-10.281-3.7188 0-7.5312 0.73438-3.7969 0.73438-7.9062 2.2031zm19.625 30.906q6.6406 0 10.516 4.5312 3.8906 4.5469 3.8906 12.469 0 7.8594-3.8906 12.422-3.875 4.5625-10.516 4.5625t-10.516-4.5625-3.875-12.422q0-7.9219 3.875-12.469 3.875-4.5312 10.516-4.5312z"/>
</defs>
<g transform="translate(618.78 509.17) scale(.1 -.1)">
<use xlink:href="#c"/>
<use x="63.623047" xlink:href="#h"/>
<use x="95.410156" xlink:href="#ab"/>
</g>
</g>
<g clip-path="url(#a)">
<defs>
<path id="ae" d="m31.781 66.406q-7.6094 0-11.453-7.5-3.8281-7.4844-3.8281-22.531 0-14.984 3.8281-22.484 3.8438-7.5 11.453-7.5 7.6719 0 11.5 7.5 3.8438 7.5 3.8438 22.484 0 15.047-3.8438 22.531-3.8281 7.5-11.5 7.5zm0 7.8125q12.266 0 18.734-9.7031 6.4688-9.6875 6.4688-28.141 0-18.406-6.4688-28.109-6.4688-9.6875-18.734-9.6875-12.25 0-18.719 9.6875-6.4688 9.7031-6.4688 28.109 0 18.453 6.4688 28.141 6.4688 9.7031 18.719 9.7031z"/>
</defs>
<g transform="translate(743.34 509.17) scale(.1 -.1)">
<use xlink:href="#c"/>
<use x="63.623047" xlink:href="#h"/>
<use x="95.410156" xlink:href="#c"/>
<use x="159.033203" xlink:href="#ae"/>
</g>
</g>
<g clip-path="url(#a)">
<g transform="translate(1061.7 351.6) scale(.1 -.1)">
<use xlink:href="#c"/>
<use x="63.623047" xlink:href="#h"/>
<use x="95.410156" xlink:href="#c"/>
<use x="159.033203" xlink:href="#c"/>
</g>
</g>
<g clip-path="url(#a)">
<g transform="translate(847.13 587.41) scale(.1 -.1)">
<use xlink:href="#c"/>
<use x="63.623047" xlink:href="#h"/>
<use x="95.410156" xlink:href="#c"/>
<use x="159.033203" xlink:href="#m"/>
</g>
</g>
<g clip-path="url(#a)">
<g transform="translate(978.06 430.52) scale(.1 -.1)">
<use xlink:href="#c"/>
<use x="63.623047" xlink:href="#h"/>
<use x="95.410156" xlink:href="#c"/>
<use x="159.033203" xlink:href="#q"/>
</g>
</g>
<g clip-path="url(#a)">
<g transform="translate(1077.1 587.41) scale(.1 -.1)">
<use xlink:href="#c"/>
<use x="63.623047" xlink:href="#h"/>
<use x="95.410156" xlink:href="#c"/>
<use x="159.033203" xlink:href="#y"/>
</g>
</g>
<g clip-path="url(#a)">
<g transform="translate(1160.1 587.41) scale(.1 -.1)">
<use xlink:href="#c"/>
<use x="63.623047" xlink:href="#h"/>
<use x="95.410156" xlink:href="#c"/>
<use x="159.033203" xlink:href="#x"/>
</g>
</g>
<g clip-path="url(#a)">
<g transform="translate(958.9 509.17) scale(.1 -.1)">
<use xlink:href="#c"/>
<use x="63.623047" xlink:href="#h"/>
<use x="95.410156" xlink:href="#c"/>
<use x="159.033203" xlink:href="#ad"/>
</g>
</g>
<g clip-path="url(#a)">
<g transform="translate(997.23 587.41) scale(.1 -.1)">
<use xlink:href="#c"/>
<use x="63.623047" xlink:href="#h"/>
<use x="95.410156" xlink:href="#c"/>
<use x="159.033203" xlink:href="#ac"/>
</g>
</g>
<g clip-path="url(#a)">
<g transform="translate(920.58 587.41) scale(.1 -.1)">
<use xlink:href="#c"/>
<use x="63.623047" xlink:href="#h"/>
<use x="95.410156" xlink:href="#c"/>
<use x="159.033203" xlink:href="#ab"/>
</g>
</g>
<g clip-path="url(#a)">
<g transform="translate(709.81 587.41) scale(.1 -.1)">
<use xlink:href="#c"/>
<use x="63.623047" xlink:href="#h"/>
<use x="95.410156" xlink:href="#m"/>
<use x="159.033203" xlink:href="#ae"/>
</g>
</g>
<g clip-path="url(#a)">
<g transform="translate(776.87 587.41) scale(.1 -.1)">
<use xlink:href="#c"/>
<use x="63.623047" xlink:href="#h"/>
<use x="95.410156" xlink:href="#m"/>
<use x="159.033203" xlink:href="#c"/>
</g>
</g>
<g clip-path="url(#a)">
<g transform="translate(585.26 587.41) scale(.1 -.1)">
<use xlink:href="#c"/>
<use x="63.623047" xlink:href="#h"/>
<use x="95.410156" xlink:href="#m"/>
<use x="159.033203" xlink:href="#m"/>
</g>
</g>
<g clip-path="url(#a)">
<g transform="translate(645.94 587.41) scale(.1 -.1)">
<use xlink:href="#c"/>
<use x="63.623047" xlink:href="#h"/>
<use x="95.410156" xlink:href="#m"/>
<use x="159.033203" xlink:href="#q"/>
</g>
</g>
<g clip-path="url(#a)">
<g transform="translate(79.085 509.17) scale(.1 -.1)">
<use xlink:href="#c"/>
<use x="63.623047" xlink:href="#h"/>
<use x="95.410156" xlink:href="#m"/>
<use x="159.033203" xlink:href="#y"/>
</g>
</g>
<g clip-path="url(#a)">
<g transform="translate(145.08 509.17) scale(.1 -.1)">
<use xlink:href="#c"/>
<use x="63.623047" xlink:href="#h"/>
<use x="95.410156" xlink:href="#m"/>
<use x="159.033203" xlink:href="#x"/>
</g>
</g>
<g clip-path="url(#a)">
<g transform="translate(347.16 509.17) scale(.1 -.1)">
<use xlink:href="#c"/>
<use x="63.623047" xlink:href="#h"/>
<use x="95.410156" xlink:href="#m"/>
<use x="159.033203" xlink:href="#am"/>
</g>
</g>
<g clip-path="url(#a)">
<g transform="translate(288.26 587.41) scale(.1 -.1)">
<use xlink:href="#c"/>
<use x="63.623047" xlink:href="#h"/>
<use x="95.410156" xlink:href="#m"/>
<use x="159.033203" xlink:href="#ad"/>
</g>
</g>
<g clip-path="url(#a)">
<g transform="translate(329.78 587.41) scale(.1 -.1)">
<use xlink:href="#c"/>
<use x="63.623047" xlink:href="#h"/>
<use x="95.410156" xlink:href="#m"/>
<use x="159.033203" xlink:href="#ac"/>
</g>
</g>
<g clip-path="url(#a)">
<g transform="translate(423.45 587.41) scale(.1 -.1)">
<use xlink:href="#c"/>
<use x="63.623047" xlink:href="#h"/>
<use x="95.410156" xlink:href="#m"/>
<use x="159.033203" xlink:href="#ab"/>
</g>
</g>
<g clip-path="url(#a)">
<g transform="translate(106.23 587.41) scale(.1 -.1)">
<use xlink:href="#c"/>
<use x="63.623047" xlink:href="#h"/>
<use x="95.410156" xlink:href="#q"/>
<use x="159.033203" xlink:href="#ae"/>
</g>
</g>
<g clip-path="url(#a)">
<g transform="translate(128.58 587.41) scale(.1 -.1)">
<use xlink:href="#c"/>
<use x="63.623047" xlink:href="#h"/>
<use x="95.410156" xlink:href="#q"/>
<use x="159.033203" xlink:href="#c"/>
</g>
</g>
<g clip-path="url(#a)">
<g transform="translate(200.44 587.41) scale(.1 -.1)">
<use xlink:href="#c"/>
<use x="63.623047" xlink:href="#h"/>
<use x="95.410156" xlink:href="#q"/>
<use x="159.033203" xlink:href="#m"/>
</g>
</g>
<g clip-path="url(#a)">
<g transform="translate(71.101 587.41) scale(.1 -.1)">
<use xlink:href="#c"/>
<use x="63.623047" xlink:href="#h"/>
<use x="95.410156" xlink:href="#q"/>
<use x="159.033203" xlink:href="#q"/>
</g>
</g>
<g clip-path="url(#a)">
<g transform="translate(87.068 587.41) scale(.1 -.1)">
<use xlink:href="#c"/>
<use x="63.623047" xlink:href="#h"/>
<use x="95.410156" xlink:href="#q"/>
<use x="159.033203" xlink:href="#y"/>
</g>
</g>
<g clip-path="url(#a)">
<g transform="translate(1246.3 587.41) scale(.1 -.1)">
<use xlink:href="#c"/>
<use x="63.623047" xlink:href="#h"/>
<use x="95.410156" xlink:href="#q"/>
<use x="159.033203" xlink:href="#x"/>
</g>
</g>
<defs>
<clipPath id="a">
<rect width="1317.3" height="693.33"/>
</clipPath>
</defs>
</svg>
