<?xml version="1.0" encoding="UTF-8"?>
<!DOCTYPE svg  PUBLIC '-//W3C//DTD SVG 1.1//EN'  'http://www.w3.org/Graphics/SVG/1.1/DTD/svg11.dtd'>
<svg width="1621.3pt" height="853.33pt" version="1.1" viewBox="0 0 1621.3 853.33" xmlns="http://www.w3.org/2000/svg" xmlns:xlink="http://www.w3.org/1999/xlink">
<defs>
<style type="text/css">*{stroke-linecap:butt;stroke-linejoin:round;}</style>
</defs>
<path d="m0 853.33h1621.3v-853.33h-1621.3z" fill="#fff"/>
<g fill="none" stroke="#000">
<path d="m135.07 38.788v87.007" clip-path="url(#a)"/>
<path d="m135.07 125.79-61.37 604.43" clip-path="url(#a)"/>
<path d="m135.07 125.79-53.46 604.43" clip-path="url(#a)"/>
<path d="m135.07 125.79-20.501 518.93" clip-path="url(#a)"/>
<path d="m135.07 125.79 135.33 86.898" clip-path="url(#a)"/>
<path d="m73.697 730.22v84.322" clip-path="url(#a)"/>
<path d="m81.607 730.22v84.322" clip-path="url(#a)"/>
<path d="m114.57 644.73-22.412 85.495" clip-path="url(#a)"/>
<path d="m114.57 644.73-9.2286 85.495" clip-path="url(#a)"/>
<path d="m114.57 644.73 6.5919 85.495" clip-path="url(#a)"/>
<path d="m114.57 644.73 25.049 85.495" clip-path="url(#a)"/>
<path d="m270.4 212.69-109.69 517.53" clip-path="url(#a)"/>
<path d="m270.4 212.69-57.832 432.04" clip-path="url(#a)"/>
<path d="m270.4 212.69-27.949 517.53" clip-path="url(#a)"/>
<path d="m270.4 212.69 191.78 86.774" clip-path="url(#a)"/>
<path d="m270.4 212.69 3.6917 517.53" clip-path="url(#a)"/>
<path d="m160.71 730.22v84.322" clip-path="url(#a)"/>
<path d="m212.57 644.73 29.883 85.495" clip-path="url(#a)" stroke-dasharray="3.7,1.6"/>
<path d="m212.57 644.73 0.87891 85.495" clip-path="url(#a)"/>
<path d="m212.57 644.73-28.125 85.495" clip-path="url(#a)"/>
<path d="m212.57 644.73-1.7578 85.495" clip-path="url(#a)"/>
<path d="m242.45 730.22v84.322" clip-path="url(#a)"/>
<path d="m462.18 299.47-186.77 345.26" clip-path="url(#a)"/>
<path d="m462.18 299.47-116.89 430.76" clip-path="url(#a)"/>
<path d="m462.18 299.47-77.343 430.76" clip-path="url(#a)"/>
<path d="m462.18 299.47-35.155 430.76" clip-path="url(#a)"/>
<path d="m462.18 299.47 45.925 345.26" clip-path="url(#a)"/>
<path d="m462.18 299.47 370.24 86.628" clip-path="url(#a)"/>
<path d="m275.41 644.73-32.959 85.495" clip-path="url(#a)" stroke-dasharray="3.7,1.6"/>
<path d="m275.41 644.73 32.959 85.495" clip-path="url(#a)"/>
<path d="m345.28 730.22v84.322" clip-path="url(#a)"/>
<path d="m384.83 730.22v84.322" clip-path="url(#a)"/>
<path d="m427.02 730.22v84.322" clip-path="url(#a)"/>
<path d="m508.1 644.73-36.255 85.495" clip-path="url(#a)"/>
<path d="m508.1 644.73 36.255 85.495" clip-path="url(#a)"/>
<path d="m832.41 386.09-210.27 344.13" clip-path="url(#a)"/>
<path d="m832.41 386.09-154.9 344.13" clip-path="url(#a)"/>
<path d="m832.41 386.09-3.2871 258.63" clip-path="url(#a)"/>
<path d="m832.41 386.09 92.954 344.13" clip-path="url(#a)"/>
<path d="m832.41 386.09 275.5 86.454" clip-path="url(#a)"/>
<path d="m622.14 730.22v84.322" clip-path="url(#a)"/>
<path d="m677.51 730.22v84.322" clip-path="url(#a)"/>
<path d="m829.12 644.73 96.241 85.495" clip-path="url(#a)" stroke-dasharray="3.7,1.6"/>
<path d="m829.12 644.73-93.604 85.495" clip-path="url(#a)"/>
<path d="m829.12 644.73 30.323 85.495" clip-path="url(#a)"/>
<path d="m829.12 644.73-32.959 85.495" clip-path="url(#a)"/>
<path d="m925.36 730.22v84.322" clip-path="url(#a)"/>
<path d="m1107.9 472.55-182.55 257.67" clip-path="url(#a)" stroke-dasharray="3.7,1.6"/>
<path d="m1107.9 472.55-114 257.67" clip-path="url(#a)"/>
<path d="m1107.9 472.55-42.803 257.67" clip-path="url(#a)"/>
<path d="m1107.9 472.55 69.258 172.18" clip-path="url(#a)"/>
<path d="m1107.9 472.55 270.09 86.236" clip-path="url(#a)"/>
<path d="m993.92 730.22v84.322" clip-path="url(#a)"/>
<path d="m1065.1 730.22v84.322" clip-path="url(#a)"/>
<path d="m1177.2 644.73-38.233 85.495" clip-path="url(#a)"/>
<path d="m1177.2 644.73 38.233 85.495" clip-path="url(#a)"/>
<path d="m1378 558.78-83.497 171.44" clip-path="url(#a)"/>
<path d="m1378 558.78 83.497 85.943" clip-path="url(#a)"/>
<path d="m1294.5 730.22v84.322" clip-path="url(#a)"/>
<path d="m1461.5 644.73-85.255 85.495" clip-path="url(#a)"/>
<path d="m1461.5 644.73-0.87892 85.495" clip-path="url(#a)"/>
<path d="m1461.5 644.73 86.134 85.495" clip-path="url(#a)"/>
<path d="m1376.2 730.22v84.322" clip-path="url(#a)"/>
<path d="m1460.6 730.22v84.322" clip-path="url(#a)"/>
<path d="m1138.9 730.22v84.322" clip-path="url(#a)"/>
<path d="m1215.4 730.22v84.322" clip-path="url(#a)"/>
<path d="m735.52 730.22v84.322" clip-path="url(#a)"/>
<path d="m859.45 730.22v84.322" clip-path="url(#a)"/>
<path d="m471.85 730.22v84.322" clip-path="url(#a)"/>
<path d="m544.36 730.22-25.049 84.322" clip-path="url(#a)"/>
<path d="m544.36 730.22 25.049 84.322" clip-path="url(#a)"/>
<path d="m308.37 730.22v84.322" clip-path="url(#a)"/>
<path d="m184.44 730.22v84.322" clip-path="url(#a)"/>
<path d="m210.81 730.22v84.322" clip-path="url(#a)"/>
<path d="m92.154 730.22v84.322" clip-path="url(#a)"/>
<path d="m105.34 730.22v84.322" clip-path="url(#a)"/>
<path d="m121.16 730.22v84.322" clip-path="url(#a)"/>
<path d="m139.62 730.22v84.322" clip-path="url(#a)"/>
<path d="m274.09 730.22v84.322" clip-path="url(#a)"/>
<path d="m796.16 730.22v84.322" clip-path="url(#a)"/>
<path d="m1547.6 730.22v84.322" clip-path="url(#a)"/>
</g>
<path d="m128.8 79.283v6.0162q0 2.4 2.4 2.4h7.7425q2.4 0 2.4-2.4v-6.0162q0-2.4-2.4-2.4h-7.7425q-2.4 0-2.4 2.4z" clip-path="url(#a)" fill="#fff" stroke="#fff"/>
<g clip-path="url(#a)">
<defs>
<path id="an" d="m9.8125 72.906h9.8594v-29.891h35.844v29.891h9.8594v-72.906h-9.8594v34.719h-35.844v-34.719h-9.8594z"/>
</defs>
<g transform="translate(132.86 79.283) rotate(90) scale(.08 -.08)">
<use xlink:href="#an"/>
</g>
</g>
<path d="m110.34 431.36 0.5528-5.4445q0.24244-2.3877-2.1453-2.6302l-7.7029-0.78211q-2.3877-0.24244-2.6302 2.1453l-0.5528 5.4445q-0.24244 2.3877 2.1453 2.6302l7.7029 0.78211q2.3877 0.24244 2.6302-2.1453z" clip-path="url(#a)" fill="#fff" stroke="#fff"/>
<g clip-path="url(#a)">
<defs>
<path id="m" d="m34.188 63.188-13.391-36.281h26.812zm-5.5781 9.7188h11.188l27.781-72.906h-10.25l-6.6406 18.703h-32.859l-6.6406-18.703h-10.406z"/>
</defs>
<g transform="translate(106.3 430.95) rotate(-84.202) scale(.08 -.08)">
<use xlink:href="#m"/>
</g>
</g>
<path d="m114.37 430.96 0.42499-4.805q0.21145-2.3907-2.1792-2.6021l-7.7124-0.68214q-2.3907-0.21145-2.6021 2.1792l-0.42499 4.805q-0.21145 2.3907 2.1792 2.6021l7.7124 0.68214q2.3907 0.21145 2.6021-2.1792z" clip-path="url(#a)" fill="#fff" stroke="#fff"/>
<g clip-path="url(#a)">
<defs>
<path id="w" d="m19.672 64.797v-27.391h12.406q6.8906 0 10.641 3.5625 3.7656 3.5625 3.7656 10.156 0 6.5469-3.7656 10.109-3.75 3.5625-10.641 3.5625zm-9.8594 8.1094h22.266q12.266 0 18.531-5.5469 6.2812-5.5469 6.2812-16.234 0-10.797-6.2812-16.312-6.2656-5.5156-18.531-5.5156h-12.406v-29.297h-9.8594z"/>
</defs>
<g transform="translate(110.32 430.61) rotate(-84.946) scale(.08 -.08)">
<use xlink:href="#w"/>
</g>
</g>
<path d="m130.98 388.24 0.21602-5.4682q0.094739-2.3981-2.3034-2.4929l-7.7365-0.30563q-2.3981-0.094739-2.4929 2.3034l-0.21602 5.4682q-0.094739 2.3981 2.3034 2.4929l7.7365 0.30563q2.3981 0.094739 2.4929-2.3034z" clip-path="url(#a)" fill="#fff" stroke="#fff"/>
<g clip-path="url(#a)">
<g transform="translate(126.91 388.08) rotate(-87.738) scale(.08 -.08)">
<use xlink:href="#m"/>
</g>
</g>
<path d="m197.04 173.04 4.6049 2.9569q2.0195 1.2968 3.3163-0.72275l4.1834-6.515q1.2968-2.0195-0.72275-3.3163l-4.6049-2.9569q-2.0195-1.2968-3.3163 0.72275l-4.1834 6.515q-1.2968 2.0195 0.72275 3.3163z" clip-path="url(#a)" fill="#fff" stroke="#fff"/>
<g clip-path="url(#a)">
<g transform="translate(199.24 169.62) rotate(32.705) scale(.08 -.08)">
<use xlink:href="#m"/>
</g>
</g>
<path d="m67.426 755.48v33.808q0 2.4 2.4 2.4h7.7425q2.4 0 2.4-2.4v-33.808q0-2.4-2.4-2.4h-7.7425q-2.4 0-2.4 2.4z" clip-path="url(#a)" fill="#fff" stroke="#fff"/>
<g clip-path="url(#a)">
<defs>
<path id="k" d="m-0.29688 72.906h61.672v-8.3125h-25.875v-64.594h-9.9062v64.594h-25.891z"/>
<path id="d" d="m56.203 29.594v-4.3906h-41.312q0.59375-9.2812 5.5938-14.141t13.938-4.8594q5.1719 0 10.031 1.2656t9.6562 3.8125v-8.5q-4.8438-2.0469-9.9219-3.125t-10.297-1.0781q-13.094 0-20.734 7.6094-7.6406 7.625-7.6406 20.625 0 13.422 7.25 21.297 7.25 7.8906 19.562 7.8906 11.031 0 17.453-7.1094 6.4219-7.0938 6.4219-19.297zm-8.9844 2.6406q-0.09375 7.3594-4.125 11.75-4.0312 4.4062-10.672 4.4062-7.5156 0-12.031-4.25t-5.2031-11.969z"/>
<path id="h" d="m41.109 46.297q-1.5156 0.875-3.2969 1.2812-1.7812 0.42188-3.9219 0.42188-7.625 0-11.703-4.9531t-4.0781-14.234v-28.812h-9.0312v54.688h9.0312v-8.5q2.8438 4.9844 7.375 7.3906 4.5469 2.4219 11.047 2.4219 0.92188 0 2.0469-0.125 1.125-0.10938 2.4844-0.35938z"/>
<path id="l" d="m52 44.188q3.375 6.0625 8.0625 8.9375t11.031 2.875q8.5469 0 13.188-5.9844 4.6406-5.9688 4.6406-17v-33.016h-9.0312v32.719q0 7.8594-2.7969 11.656-2.7812 3.8125-8.4844 3.8125-6.9844 0-11.047-4.6406-4.0469-4.625-4.0469-12.641v-30.906h-9.0312v32.719q0 7.9062-2.7812 11.688t-8.5938 3.7812q-6.8906 0-10.953-4.6562-4.0469-4.6562-4.0469-12.625v-30.906h-9.0312v54.688h9.0312v-8.5q3.0781 5.0312 7.375 7.4219t10.203 2.3906q5.9688 0 10.141-3.0312 4.1719-3.0156 6.1719-8.7812z"/>
<path id="f" d="m9.4219 54.688h8.9844v-54.688h-8.9844zm0 21.297h8.9844v-11.391h-8.9844z"/>
<path id="j" d="m54.891 33.016v-33.016h-8.9844v32.719q0 7.7656-3.0312 11.609-3.0312 3.8594-9.0781 3.8594-7.2812 0-11.484-4.6406-4.2031-4.625-4.2031-12.641v-30.906h-9.0312v54.688h9.0312v-8.5q3.2344 4.9375 7.5938 7.375 4.375 2.4375 10.094 2.4375 9.4219 0 14.25-5.8281 4.8438-5.8281 4.8438-17.156z"/>
<path id="g" d="m34.281 27.484q-10.891 0-15.094-2.4844t-4.2031-8.5q0-4.7812 3.1562-7.5938 3.1562-2.7969 8.5625-2.7969 7.4844 0 12 5.2969t4.5156 14.078v2zm17.922 3.7188v-31.203h-8.9844v8.2969q-3.0781-4.9688-7.6719-7.3438t-11.234-2.375q-8.3906 0-13.359 4.7188-4.9531 4.7188-4.9531 12.625 0 9.2188 6.1719 13.906 6.1875 4.6875 18.438 4.6875h12.609v0.89062q0 6.2031-4.0781 9.5938t-11.453 3.3906q-4.6875 0-9.1406-1.125-4.4375-1.125-8.5312-3.375v8.3125q4.9219 1.9062 9.5625 2.8438 4.6406 0.95312 9.0312 0.95312 11.875 0 17.734-6.1562 5.8594-6.1406 5.8594-18.641z"/>
<path id="i" d="m9.4219 75.984h8.9844v-75.984h-8.9844z"/>
</defs>
<g transform="translate(71.489 755.48) rotate(90) scale(.08 -.08)">
<use xlink:href="#k"/>
<use x="44.083984" xlink:href="#d"/>
<use x="105.607422" xlink:href="#h"/>
<use x="144.970703" xlink:href="#l"/>
<use x="242.382812" xlink:href="#f"/>
<use x="270.166016" xlink:href="#j"/>
<use x="333.544922" xlink:href="#g"/>
<use x="394.824219" xlink:href="#i"/>
</g>
</g>
<path d="m75.336 755.48v33.808q0 2.4 2.4 2.4h7.7425q2.4 0 2.4-2.4v-33.808q0-2.4-2.4-2.4h-7.7425q-2.4 0-2.4 2.4z" clip-path="url(#a)" fill="#fff" stroke="#fff"/>
<g clip-path="url(#a)">
<g transform="translate(79.4 755.48) rotate(90) scale(.08 -.08)">
<use xlink:href="#k"/>
<use x="44.083984" xlink:href="#d"/>
<use x="105.607422" xlink:href="#h"/>
<use x="144.970703" xlink:href="#l"/>
<use x="242.382812" xlink:href="#f"/>
<use x="270.166016" xlink:href="#j"/>
<use x="333.544922" xlink:href="#g"/>
<use x="394.824219" xlink:href="#i"/>
</g>
</g>
<path d="m108.79 691.51 1.2818-4.8898q0.60859-2.3216-1.713-2.9301l-7.4894-1.9633q-2.3216-0.60859-2.9301 1.713l-1.2818 4.8898q-0.60859 2.3216 1.713 2.9301l7.4894 1.9633q2.3216 0.60859 2.9301-1.713z" clip-path="url(#a)" fill="#fff" stroke="#fff"/>
<g clip-path="url(#a)">
<defs>
<path id="v" d="m9.8125 72.906h46.094v-8.3125h-36.234v-21.578h34.719v-8.2969h-34.719v-26.422h37.109v-8.2969h-46.969z"/>
</defs>
<g transform="translate(104.85 690.48) rotate(-75.311) scale(.08 -.08)">
<use xlink:href="#v"/>
</g>
</g>
<path d="m115.85 691.28 0.67585-6.2611q0.25757-2.3861-2.1286-2.6437l-7.6978-0.83092q-2.3861-0.25757-2.6437 2.1286l-0.67584 6.2611q-0.25757 2.3861 2.1286 2.6437l7.6978 0.83092q2.3861 0.25757 2.6437-2.1286z" clip-path="url(#a)" fill="#fff" stroke="#fff"/>
<g clip-path="url(#a)">
<defs>
<path id="as" d="m39.406 66.219q-10.75 0-17.078-8.0156-6.3125-8-6.3125-21.828 0-13.766 6.3125-21.781 6.3281-8 17.078-8 10.734 0 17.016 8 6.2812 8.0156 6.2812 21.781 0 13.828-6.2812 21.828-6.2812 8.0156-17.016 8.0156zm13.812-64.906 13-14.203h-11.922l-10.797 11.672q-1.6094-0.09375-2.4688-0.14062-0.84375-0.0625-1.625-0.0625-15.375 0-24.594 10.281-9.2031 10.281-9.2031 27.516 0 17.281 9.2031 27.562 9.2188 10.281 24.594 10.281 15.328 0 24.5-10.281 9.1875-10.281 9.1875-27.562 0-12.688-5.1094-21.734-5.0938-9.0312-14.766-13.328z"/>
</defs>
<g transform="translate(111.81 690.84) rotate(-83.839) scale(.08 -.08)">
<use xlink:href="#as"/>
</g>
</g>
<path d="m111.42 685.44 0.3886 5.04q0.1845 2.3929 2.5774 2.2084l7.7196-0.5952q2.3929-0.1845 2.2084-2.5774l-0.3886-5.04q-0.1845-2.3929-2.5774-2.2084l-7.7196 0.5952q-2.3929 0.1845-2.2084 2.5774z" clip-path="url(#a)" fill="#fff" stroke="#fff"/>
<g clip-path="url(#a)">
<g transform="translate(115.47 685.13) rotate(85.591) scale(.08 -.08)">
<use xlink:href="#v"/>
</g>
</g>
<path d="m120.29 686.56 1.5707 5.3609q0.6748 2.3032 2.978 1.6284l7.4302-2.1769q2.3032-0.67481 1.6284-2.978l-1.5707-5.3609q-0.6748-2.3032-2.978-1.6284l-7.4302 2.1769q-2.3032 0.6748-1.6284 2.978z" clip-path="url(#a)" fill="#fff" stroke="#fff"/>
<g clip-path="url(#a)">
<defs>
<path id="u" d="m64.406 67.281v-10.391q-4.9844 4.6406-10.625 6.9219-5.6406 2.2969-11.984 2.2969-12.5 0-19.141-7.6406t-6.6406-22.094q0-14.406 6.6406-22.047t19.141-7.6406q6.3438 0 11.984 2.2969t10.625 6.9375v-10.312q-5.1719-3.5156-10.969-5.2812-5.7812-1.75-12.219-1.75-16.562 0-26.094 10.125-9.5156 10.141-9.5156 27.672 0 17.578 9.5156 27.703 9.5312 10.141 26.094 10.141 6.5312 0 12.312-1.7344 5.7969-1.7344 10.875-5.2031z"/>
</defs>
<g transform="translate(124.19 685.42) rotate(73.67) scale(.08 -.08)">
<use xlink:href="#u"/>
</g>
</g>
<path d="m221.11 475.48 1.1525-5.438q0.49762-2.3478-1.8502-2.8455l-7.5742-1.6053q-2.3478-0.49762-2.8455 1.8502l-1.1525 5.438q-0.49762 2.3478 1.8502 2.8455l7.5742 1.6053q2.3478 0.49762 2.8455-1.8502z" clip-path="url(#a)" fill="#fff" stroke="#fff"/>
<g clip-path="url(#a)">
<defs>
<path id="r" d="m44.391 34.188q3.1719-1.0781 6.1719-4.5938t6.0312-9.6719l10.016-19.922h-10.609l-9.3125 18.703q-3.625 7.3281-7.0156 9.7188t-9.25 2.3906h-10.75v-30.812h-9.8594v72.906h22.266q12.5 0 18.656-5.2344 6.1562-5.2188 6.1562-15.766 0-6.8906-3.2031-11.438-3.2031-4.5312-9.2969-6.2812zm-24.719 30.609v-25.875h12.406q7.125 0 10.766 3.2969t3.6406 9.6875-3.6406 9.6406-10.766 3.25z"/>
</defs>
<g transform="translate(217.14 474.63) rotate(-78.034) scale(.08 -.08)">
<use xlink:href="#r"/>
</g>
</g>
<path d="m247.36 432.05 0.67068-5.0103q0.31842-2.3788-2.0604-2.6972l-7.6741-1.0272q-2.3788-0.31842-2.6972 2.0604l-0.67068 5.0103q-0.31842 2.3788 2.0604 2.6972l7.6741 1.0272q2.3788 0.31842 2.6972-2.0604z" clip-path="url(#a)" fill="#fff" stroke="#fff"/>
<g clip-path="url(#a)">
<g transform="translate(243.33 431.51) rotate(-82.376) scale(.08 -.08)">
<use xlink:href="#v"/>
</g>
</g>
<path d="m262.53 474.59 0.30125-5.5781q0.12942-2.3965-2.2671-2.5259l-7.7312-0.41752q-2.3965-0.12942-2.5259 2.2671l-0.30125 5.5781q-0.12942 2.3965 2.2671 2.5259l7.7312 0.41752q2.3965 0.12942 2.5259-2.2671z" clip-path="url(#a)" fill="#fff" stroke="#fff"/>
<g clip-path="url(#a)">
<g transform="translate(258.48 474.37) rotate(-86.909) scale(.08 -.08)">
<use xlink:href="#u"/>
</g>
</g>
<path d="m361.4 260.75 4.6055 2.0838q2.1866 0.98936 3.176-1.1972l3.1917-7.054q0.98936-2.1866-1.1972-3.1759l-4.6055-2.0838q-2.1866-0.98936-3.1759 1.1972l-3.1917 7.054q-0.98936 2.1866 1.1972 3.1759z" clip-path="url(#a)" fill="#fff" stroke="#fff"/>
<g clip-path="url(#a)">
<g transform="translate(363.07 257.05) rotate(24.345) scale(.08 -.08)">
<use xlink:href="#v"/>
</g>
</g>
<path d="m265.95 468.58 0.041765 5.8549q0.017119 2.3999 2.4171 2.3828l7.7423-0.055228q2.3999-0.01712 2.3828-2.4171l-0.041765-5.8549q-0.01712-2.3999-2.4171-2.3828l-7.7423 0.055228q-2.3999 0.01712-2.3828 2.4171z" clip-path="url(#a)" fill="#fff" stroke="#fff"/>
<g clip-path="url(#a)">
<defs>
<path id="ag" d="m8.6875 72.906h9.9219v-44.297q0-11.719 4.2344-16.875 4.25-5.1406 13.781-5.1406 9.4688 0 13.719 5.1406 4.25 5.1562 4.25 16.875v44.297h9.9062v-45.516q0-14.25-7.0625-21.531-7.0469-7.2812-20.812-7.2812-13.828 0-20.891 7.2812-7.0469 7.2812-7.0469 21.531z"/>
</defs>
<g transform="translate(270.02 468.55) rotate(89.591) scale(.08 -.08)">
<use xlink:href="#ag"/>
</g>
</g>
<path d="m154.44 755.48v33.808q0 2.4 2.4 2.4h7.7425q2.4 0 2.4-2.4v-33.808q0-2.4-2.4-2.4h-7.7425q-2.4 0-2.4 2.4z" clip-path="url(#a)" fill="#fff" stroke="#fff"/>
<g clip-path="url(#a)">
<g transform="translate(158.5 755.48) rotate(90) scale(.08 -.08)">
<use xlink:href="#k"/>
<use x="44.083984" xlink:href="#d"/>
<use x="105.607422" xlink:href="#h"/>
<use x="144.970703" xlink:href="#l"/>
<use x="242.382812" xlink:href="#f"/>
<use x="270.166016" xlink:href="#j"/>
<use x="333.544922" xlink:href="#g"/>
<use x="394.824219" xlink:href="#i"/>
</g>
</g>
<path d="m220.68 686.96 1.8057 5.166q0.79189 2.2656 3.0575 1.4737l7.3089-2.5547q2.2656-0.79189 1.4737-3.0575l-1.8057-5.166q-0.79189-2.2656-3.0575-1.4737l-7.3089 2.5547q-2.2656 0.79189-1.4737 3.0575z" clip-path="url(#a)" fill="#fff" stroke="#fff"/>
<g clip-path="url(#a)">
<g transform="translate(224.52 685.62) rotate(70.734) scale(.08 -.08)">
<use xlink:href="#m"/>
</g>
</g>
<path d="m206.71 685.13 0.049587 4.8235q0.024671 2.3999 2.4245 2.3752l7.7421-0.079591q2.3999-0.024672 2.3752-2.4245l-0.049587-4.8235q-0.024671-2.3999-2.4245-2.3752l-7.7421 0.079591q-2.3999 0.024672-2.3752 2.4245z" clip-path="url(#a)" fill="#fff" stroke="#fff"/>
<g clip-path="url(#a)">
<g transform="translate(210.77 685.09) rotate(89.411) scale(.08 -.08)">
<use xlink:href="#w"/>
</g>
</g>
<path d="m203.7 691.76 1.5269-4.6415q0.74999-2.2798-1.5298-3.0298l-7.3548-2.4195q-2.2798-0.74999-3.0298 1.5298l-1.5269 4.6415q-0.74999 2.2798 1.5298 3.0298l7.3548 2.4195q2.2798 0.74999 3.0298-1.5298z" clip-path="url(#a)" fill="#fff" stroke="#fff"/>
<g clip-path="url(#a)">
<g transform="translate(199.84 690.49) rotate(-71.79) scale(.08 -.08)">
<use xlink:href="#k"/>
</g>
</g>
<path d="m217.9 690.38 0.11427-5.5576q0.049335-2.3995-2.3502-2.4488l-7.7409-0.15916q-2.3995-0.049335-2.4488 2.3502l-0.11427 5.5576q-0.049335 2.3995 2.3502 2.4488l7.7409 0.15916q2.3995 0.049335 2.4488-2.3502z" clip-path="url(#a)" fill="#fff" stroke="#fff"/>
<g clip-path="url(#a)">
<g transform="translate(213.84 690.3) rotate(-88.822) scale(.08 -.08)">
<use xlink:href="#r"/>
</g>
</g>
<path d="m236.18 755.48v33.808q0 2.4 2.4 2.4h7.7425q2.4 0 2.4-2.4v-33.808q0-2.4-2.4-2.4h-7.7425q-2.4 0-2.4 2.4z" clip-path="url(#a)" fill="#fff" stroke="#fff"/>
<g clip-path="url(#a)">
<g transform="translate(240.24 755.48) rotate(90) scale(.08 -.08)">
<use xlink:href="#k"/>
<use x="44.083984" xlink:href="#d"/>
<use x="105.607422" xlink:href="#h"/>
<use x="144.970703" xlink:href="#l"/>
<use x="242.382812" xlink:href="#f"/>
<use x="270.166016" xlink:href="#j"/>
<use x="333.544922" xlink:href="#g"/>
<use x="394.824219" xlink:href="#i"/>
</g>
</g>
<path d="m373.01 477.49 2.6038-4.8134q1.1419-2.1109-0.96904-3.2528l-6.81-3.6838q-2.1109-1.1419-3.2528 0.96904l-2.6038 4.8134q-1.1419 2.1109 0.96904 3.2528l6.81 3.6838q2.1109 1.1419 3.2528-0.96904z" clip-path="url(#a)" fill="#fff" stroke="#fff"/>
<g clip-path="url(#a)">
<g transform="translate(369.43 475.55) rotate(-61.589) scale(.08 -.08)">
<use xlink:href="#m"/>
</g>
</g>
<path d="m409.05 519.17 1.4558-5.3647q0.62855-2.3162-1.6877-2.9448l-7.4723-2.0277q-2.3162-0.62855-2.9448 1.6877l-1.4558 5.3647q-0.62855 2.3162 1.6877 2.9448l7.4723 2.0277q2.3162 0.62855 2.9448-1.6877z" clip-path="url(#a)" fill="#fff" stroke="#fff"/>
<g clip-path="url(#a)">
<g transform="translate(405.13 518.11) rotate(-74.817) scale(.08 -.08)">
<use xlink:href="#r"/>
</g>
</g>
<path d="m429.19 518.65 0.96713-5.3864q0.42414-2.3622-1.9381-2.7864l-7.6206-1.3683q-2.3622-0.42414-2.7864 1.9381l-0.96713 5.3864q-0.42414 2.3622 1.9381 2.7864l7.6206 1.3683q2.3622 0.42414 2.7864-1.9381z" clip-path="url(#a)" fill="#fff" stroke="#fff"/>
<g clip-path="url(#a)">
<g transform="translate(425.19 517.93) rotate(-79.821) scale(.08 -.08)">
<use xlink:href="#m"/>
</g>
</g>
<path d="m450.65 517.76 0.39237-4.8078q0.19522-2.392-2.1968-2.5873l-7.7168-0.62979q-2.392-0.19522-2.5873 2.1968l-0.39237 4.8078q-0.19522 2.392 2.1968 2.5873l7.7168 0.62979q2.392 0.19522 2.5873-2.1968z" clip-path="url(#a)" fill="#fff" stroke="#fff"/>
<g clip-path="url(#a)">
<g transform="translate(446.6 517.43) rotate(-85.334) scale(.08 -.08)">
<use xlink:href="#w"/>
</g>
</g>
<path d="m478.56 470.21 0.72156 5.4247q0.31645 2.379 2.6955 2.0626l7.6749-1.0209q2.379-0.31645 2.0626-2.6955l-0.72156-5.4247q-0.31645-2.379-2.6955-2.0626l-7.6749 1.0209q-2.379 0.31645-2.0626 2.6955z" clip-path="url(#a)" fill="#fff" stroke="#fff"/>
<g clip-path="url(#a)">
<g transform="translate(482.59 469.68) rotate(82.423) scale(.08 -.08)">
<use xlink:href="#m"/>
</g>
</g>
<path d="m643.2 348.26 5.3286 1.2468q2.3369 0.54679 2.8837-1.7901l1.764-7.5389q0.54679-2.3369-1.7901-2.8837l-5.3286-1.2468q-2.3369-0.54679-2.8837 1.7901l-1.764 7.5389q-0.54679 2.3369 1.7901 2.8837z" clip-path="url(#a)" fill="#fff" stroke="#fff"/>
<g clip-path="url(#a)">
<g transform="translate(644.13 344.31) rotate(13.169) scale(.08 -.08)">
<use xlink:href="#m"/>
</g>
</g>
<path d="m263.77 692.34 2.0094-5.2123q0.8633-2.2394-1.3761-3.1027l-7.2243-2.785q-2.2394-0.8633-3.1027 1.3761l-2.0094 5.2123q-0.8633 2.2394 1.3761 3.1027l7.2243 2.785q2.2394 0.8633 3.1027-1.3761z" clip-path="url(#a)" fill="#fff" stroke="#fff"/>
<g clip-path="url(#a)">
<g transform="translate(259.98 690.88) rotate(-68.918) scale(.08 -.08)">
<use xlink:href="#u"/>
</g>
</g>
<path d="m285.04 687.14 1.9995 5.1867q0.8633 2.2394 3.1027 1.3761l7.2243-2.785q2.2394-0.8633 1.3761-3.1027l-1.9995-5.1867q-0.8633-2.2394-3.1027-1.3761l-7.2243 2.785q-2.2394 0.8633-1.3761 3.1027z" clip-path="url(#a)" fill="#fff" stroke="#fff"/>
<g clip-path="url(#a)">
<g transform="translate(288.83 685.68) rotate(68.918) scale(.08 -.08)">
<use xlink:href="#r"/>
</g>
</g>
<path d="m339.01 755.48v33.808q0 2.4 2.4 2.4h7.7425q2.4 0 2.4-2.4v-33.808q0-2.4-2.4-2.4h-7.7425q-2.4 0-2.4 2.4z" clip-path="url(#a)" fill="#fff" stroke="#fff"/>
<g clip-path="url(#a)">
<g transform="translate(343.07 755.48) rotate(90) scale(.08 -.08)">
<use xlink:href="#k"/>
<use x="44.083984" xlink:href="#d"/>
<use x="105.607422" xlink:href="#h"/>
<use x="144.970703" xlink:href="#l"/>
<use x="242.382812" xlink:href="#f"/>
<use x="270.166016" xlink:href="#j"/>
<use x="333.544922" xlink:href="#g"/>
<use x="394.824219" xlink:href="#i"/>
</g>
</g>
<path d="m378.56 755.48v33.808q0 2.4 2.4 2.4h7.7425q2.4 0 2.4-2.4v-33.808q0-2.4-2.4-2.4h-7.7425q-2.4 0-2.4 2.4z" clip-path="url(#a)" fill="#fff" stroke="#fff"/>
<g clip-path="url(#a)">
<g transform="translate(382.63 755.48) rotate(90) scale(.08 -.08)">
<use xlink:href="#k"/>
<use x="44.083984" xlink:href="#d"/>
<use x="105.607422" xlink:href="#h"/>
<use x="144.970703" xlink:href="#l"/>
<use x="242.382812" xlink:href="#f"/>
<use x="270.166016" xlink:href="#j"/>
<use x="333.544922" xlink:href="#g"/>
<use x="394.824219" xlink:href="#i"/>
</g>
</g>
<path d="m420.75 755.48v33.808q0 2.4 2.4 2.4h7.7425q2.4 0 2.4-2.4v-33.808q0-2.4-2.4-2.4h-7.7425q-2.4 0-2.4 2.4z" clip-path="url(#a)" fill="#fff" stroke="#fff"/>
<g clip-path="url(#a)">
<g transform="translate(424.81 755.48) rotate(90) scale(.08 -.08)">
<use xlink:href="#k"/>
<use x="44.083984" xlink:href="#d"/>
<use x="105.607422" xlink:href="#h"/>
<use x="144.970703" xlink:href="#l"/>
<use x="242.382812" xlink:href="#f"/>
<use x="270.166016" xlink:href="#j"/>
<use x="333.544922" xlink:href="#g"/>
<use x="394.824219" xlink:href="#i"/>
</g>
</g>
<path d="m494.66 692.48 2.1702-5.1176q0.93698-2.2095-1.2726-3.1465l-7.1281-3.0227q-2.2095-0.93698-3.1465 1.2726l-2.1702 5.1176q-0.93698 2.2095 1.2726 3.1465l7.1281 3.0227q2.2095 0.93698 3.1465-1.2726z" clip-path="url(#a)" fill="#fff" stroke="#fff"/>
<g clip-path="url(#a)">
<g transform="translate(490.92 690.9) rotate(-67.02) scale(.08 -.08)">
<use xlink:href="#r"/>
</g>
</g>
<path d="m519.36 687.35 2.1809 5.1429q0.93698 2.2095 3.1465 1.2726l7.1281-3.0227q2.2095-0.93698 1.2726-3.1465l-2.1809-5.1429q-0.93698-2.2095-3.1465-1.2726l-7.1281 3.0227q-2.2095 0.93698-1.2726 3.1465z" clip-path="url(#a)" fill="#fff" stroke="#fff"/>
<g clip-path="url(#a)">
<g transform="translate(523.11 685.77) rotate(67.02) scale(.08 -.08)">
<use xlink:href="#u"/>
</g>
</g>
<path d="m731.18 563.8 2.8983-4.7434q1.2514-2.048-0.7966-3.2993l-6.6068-4.0369q-2.048-1.2514-3.2993 0.7966l-2.8983 4.7434q-1.2514 2.048 0.7966 3.2993l6.6068 4.0369q2.048 1.2514 3.2993-0.7966z" clip-path="url(#a)" fill="#fff" stroke="#fff"/>
<g clip-path="url(#a)">
<g transform="translate(727.71 561.68) rotate(-58.574) scale(.08 -.08)">
<use xlink:href="#r"/>
</g>
</g>
<path d="m759.74 562.83 1.8886-4.1958q0.9851-2.1885-1.2034-3.1736l-7.0602-3.178q-2.1885-0.9851-3.1736 1.2034l-1.8886 4.1958q-0.9851 2.1885 1.2034 3.1736l7.0602 3.178q2.1885 0.9851 3.1736-1.2034z" clip-path="url(#a)" fill="#fff" stroke="#fff"/>
<g clip-path="url(#a)">
<defs>
<path id="ao" d="m9.8125 72.906h41.891v-8.3125h-32.031v-21.484h28.906v-8.2969h-28.906v-34.812h-9.8594z"/>
</defs>
<g transform="translate(756.03 561.16) rotate(-65.766) scale(.08 -.08)">
<use xlink:href="#ao"/>
</g>
</g>
<path d="m837.01 518.02 0.064242-5.0546q0.0305-2.3998-2.3693-2.4303l-7.7419-0.098397q-2.3998-0.030501-2.4303 2.3693l-0.064242 5.0546q-0.030501 2.3998 2.3693 2.4303l7.7419 0.098397q2.3998 0.0305 2.4303-2.3693z" clip-path="url(#a)" fill="#fff" stroke="#fff"/>
<g clip-path="url(#a)">
<g transform="translate(832.94 517.97) rotate(-89.272) scale(.08 -.08)">
<use xlink:href="#v"/>
</g>
</g>
<path d="m872.11 557.1 1.4567 5.393q0.62584 2.317 2.9428 1.6911l7.4746-2.019q2.317-0.62584 1.6911-2.9428l-1.4567-5.393q-0.62584-2.317-2.9428-1.6911l-7.4746 2.019q-2.317 0.62584-1.6911 2.9428z" clip-path="url(#a)" fill="#fff" stroke="#fff"/>
<g clip-path="url(#a)">
<g transform="translate(876.03 556.04) rotate(74.884) scale(.08 -.08)">
<use xlink:href="#u"/>
</g>
</g>
<path d="m965.87 434.55 4.8231 1.5135q2.2899 0.71858 3.0085-1.5713l2.3182-7.3873q0.71858-2.2899-1.5713-3.0085l-4.8231-1.5135q-2.2899-0.71858-3.0085 1.5713l-2.3182 7.3873q-0.71858 2.2899 1.5713 3.0085z" clip-path="url(#a)" fill="#fff" stroke="#fff"/>
<g clip-path="url(#a)">
<g transform="translate(967.09 430.67) rotate(17.422) scale(.08 -.08)">
<use xlink:href="#v"/>
</g>
</g>
<path d="m615.87 755.48v33.808q0 2.4 2.4 2.4h7.7425q2.4 0 2.4-2.4v-33.808q0-2.4-2.4-2.4h-7.7425q-2.4 0-2.4 2.4z" clip-path="url(#a)" fill="#fff" stroke="#fff"/>
<g clip-path="url(#a)">
<g transform="translate(619.93 755.48) rotate(90) scale(.08 -.08)">
<use xlink:href="#k"/>
<use x="44.083984" xlink:href="#d"/>
<use x="105.607422" xlink:href="#h"/>
<use x="144.970703" xlink:href="#l"/>
<use x="242.382812" xlink:href="#f"/>
<use x="270.166016" xlink:href="#j"/>
<use x="333.544922" xlink:href="#g"/>
<use x="394.824219" xlink:href="#i"/>
</g>
</g>
<path d="m671.24 755.48v33.808q0 2.4 2.4 2.4h7.7425q2.4 0 2.4-2.4v-33.808q0-2.4-2.4-2.4h-7.7425q-2.4 0-2.4 2.4z" clip-path="url(#a)" fill="#fff" stroke="#fff"/>
<g clip-path="url(#a)">
<g transform="translate(675.3 755.48) rotate(90) scale(.08 -.08)">
<use xlink:href="#k"/>
<use x="44.083984" xlink:href="#d"/>
<use x="105.607422" xlink:href="#h"/>
<use x="144.970703" xlink:href="#l"/>
<use x="242.382812" xlink:href="#f"/>
<use x="270.166016" xlink:href="#j"/>
<use x="333.544922" xlink:href="#g"/>
<use x="394.824219" xlink:href="#i"/>
</g>
</g>
<path d="m871.03 690.35 4.0913 3.6345q1.7943 1.5939 3.3882-0.20034l5.1421-5.7884q1.5939-1.7943-0.20034-3.3882l-4.0913-3.6345q-1.7943-1.5939-3.3882 0.20034l-5.1421 5.7884q-1.5939 1.7943 0.20034 3.3882z" clip-path="url(#a)" fill="#fff" stroke="#fff"/>
<g clip-path="url(#a)">
<g transform="translate(873.73 687.31) rotate(41.616) scale(.08 -.08)">
<use xlink:href="#m"/>
</g>
</g>
<path d="m784.53 693.95 4.0407-3.6906q1.7721-1.6186 0.15352-3.3906l-5.2215-5.7168q-1.6186-1.7721-3.3906-0.15352l-4.0407 3.6906q-1.7721 1.6186-0.15352 3.3906l5.2215 5.7168q1.6186 1.7721 3.3906 0.15352z" clip-path="url(#a)" fill="#fff" stroke="#fff"/>
<g clip-path="url(#a)">
<g transform="translate(781.79 690.95) rotate(-42.408) scale(.08 -.08)">
<use xlink:href="#m"/>
</g>
</g>
<path d="m837.53 687.18 1.6977 4.7866q0.80224 2.2619 3.0642 1.4597l7.2971-2.5881q2.2619-0.80224 1.4597-3.0642l-1.6977-4.7866q-0.80224-2.2619-3.0642-1.4597l-7.2971 2.5881q-2.2619 0.80224-1.4597 3.0642z" clip-path="url(#a)" fill="#fff" stroke="#fff"/>
<g clip-path="url(#a)">
<defs>
<path id="am" d="m53.516 70.516v-9.625q-5.6094 2.6875-10.594 4-4.9844 1.3281-9.625 1.3281-8.0469 0-12.422-3.125t-4.375-8.8906q0-4.8438 2.9062-7.3125 2.9062-2.4531 11.016-3.9688l5.9531-1.2188q11.031-2.1094 16.281-7.4062t5.25-14.172q0-10.609-7.1094-16.078-7.0938-5.4688-20.812-5.4688-5.1719 0-11.016 1.1719-5.8281 1.1719-12.078 3.4688v10.156q6-3.3594 11.766-5.0781 5.7656-1.7031 11.328-1.7031 8.4375 0 13.031 3.3125 4.5938 3.3281 4.5938 9.4844 0 5.3594-3.2969 8.3906t-10.812 4.5469l-6.0156 1.1719q-11.031 2.1875-15.969 6.875-4.9219 4.6875-4.9219 13.047 0 9.6719 6.8125 15.234t18.766 5.5625q5.1406 0 10.453-0.9375 5.3281-0.92188 10.891-2.7656z"/>
</defs>
<g transform="translate(841.36 685.82) rotate(70.472) scale(.08 -.08)">
<use xlink:href="#am"/>
</g>
</g>
<path d="m817.44 692.46 2.1061-5.4631q0.8633-2.2394-1.3761-3.1027l-7.2243-2.785q-2.2394-0.8633-3.1027 1.3761l-2.1061 5.4631q-0.8633 2.2394 1.3761 3.1027l7.2243 2.785q2.2394 0.8633 3.1027-1.3761z" clip-path="url(#a)" fill="#fff" stroke="#fff"/>
<g clip-path="url(#a)">
<g transform="translate(813.65 691) rotate(-68.918) scale(.08 -.08)">
<use xlink:href="#ag"/>
</g>
</g>
<path d="m919.09 755.48v33.808q0 2.4 2.4 2.4h7.7425q2.4 0 2.4-2.4v-33.808q0-2.4-2.4-2.4h-7.7425q-2.4 0-2.4 2.4z" clip-path="url(#a)" fill="#fff" stroke="#fff"/>
<g clip-path="url(#a)">
<g transform="translate(923.16 755.48) rotate(90) scale(.08 -.08)">
<use xlink:href="#k"/>
<use x="44.083984" xlink:href="#d"/>
<use x="105.607422" xlink:href="#h"/>
<use x="144.970703" xlink:href="#l"/>
<use x="242.382812" xlink:href="#f"/>
<use x="270.166016" xlink:href="#j"/>
<use x="333.544922" xlink:href="#g"/>
<use x="394.824219" xlink:href="#i"/>
</g>
</g>
<path d="m1020.2 607.24 3.1636-4.4654q1.3874-1.9583-0.57095-3.3457l-6.3177-4.4758q-1.9583-1.3874-3.3457 0.57095l-3.1636 4.4654q-1.3874 1.9583 0.57095 3.3457l6.3177 4.4758q1.9583 1.3874 3.3457-0.57095z" clip-path="url(#a)" fill="#fff" stroke="#fff"/>
<g clip-path="url(#a)">
<g transform="translate(1016.9 604.9) rotate(-54.684) scale(.08 -.08)">
<use xlink:href="#m"/>
</g>
</g>
<path d="m1055.5 606.47 2.2489-5.0835q0.97098-2.1948-1.2238-3.1658l-7.0805-3.1324q-2.1948-0.97098-3.1658 1.2238l-2.2489 5.0835q-0.97098 2.1948 1.2238 3.1658l7.0805 3.1324q2.1948 0.97098 3.1658-1.2238z" clip-path="url(#a)" fill="#fff" stroke="#fff"/>
<g clip-path="url(#a)">
<g transform="translate(1051.8 604.82) rotate(-66.135) scale(.08 -.08)">
<use xlink:href="#r"/>
</g>
</g>
<path d="m1092.3 604.79 0.79046-4.7585q0.39328-2.3676-1.9743-2.7608l-7.6378-1.2687q-2.3676-0.39328-2.7608 1.9743l-0.79046 4.7585q-0.39328 2.3676 1.9743 2.7608l7.6378 1.2687q2.3676 0.39328 2.7608-1.9743z" clip-path="url(#a)" fill="#fff" stroke="#fff"/>
<g clip-path="url(#a)">
<g transform="translate(1088.3 604.13) rotate(-80.569) scale(.08 -.08)">
<use xlink:href="#w"/>
</g>
</g>
<path d="m1135.7 558.44 2.0423 5.0771q0.89565 2.2266 3.1223 1.331l7.1832-2.8894q2.2266-0.89565 1.331-3.1223l-2.0423-5.0771q-0.89565-2.2266-3.1223-1.331l-7.1832 2.8894q-2.2266 0.89565-1.331 3.1223z" clip-path="url(#a)" fill="#fff" stroke="#fff"/>
<g clip-path="url(#a)">
<g transform="translate(1139.5 556.92) rotate(68.088) scale(.08 -.08)">
<use xlink:href="#m"/>
</g>
</g>
<path d="m1238.4 520.81 5.2132 1.6645q2.2863 0.72998 3.0163-1.5563l2.3549-7.3757q0.72998-2.2863-1.5563-3.0163l-5.2132-1.6645q-2.2863-0.72998-3.0163 1.5563l-2.3549 7.3757q-0.72998 2.2863 1.5563 3.0163z" clip-path="url(#a)" fill="#fff" stroke="#fff"/>
<g clip-path="url(#a)">
<g transform="translate(1239.7 516.94) rotate(17.708) scale(.08 -.08)">
<use xlink:href="#m"/>
</g>
</g>
<path d="m987.65 755.48v33.808q0 2.4 2.4 2.4h7.7425q2.4 0 2.4-2.4v-33.808q0-2.4-2.4-2.4h-7.7425q-2.4 0-2.4 2.4z" clip-path="url(#a)" fill="#fff" stroke="#fff"/>
<g clip-path="url(#a)">
<g transform="translate(991.71 755.48) rotate(90) scale(.08 -.08)">
<use xlink:href="#k"/>
<use x="44.083984" xlink:href="#d"/>
<use x="105.607422" xlink:href="#h"/>
<use x="144.970703" xlink:href="#l"/>
<use x="242.382812" xlink:href="#f"/>
<use x="270.166016" xlink:href="#j"/>
<use x="333.544922" xlink:href="#g"/>
<use x="394.824219" xlink:href="#i"/>
</g>
</g>
<path d="m1058.8 755.48v33.808q0 2.4 2.4 2.4h7.7425q2.4 0 2.4-2.4v-33.808q0-2.4-2.4-2.4h-7.7425q-2.4 0-2.4 2.4z" clip-path="url(#a)" fill="#fff" stroke="#fff"/>
<g clip-path="url(#a)">
<g transform="translate(1062.9 755.48) rotate(90) scale(.08 -.08)">
<use xlink:href="#k"/>
<use x="44.083984" xlink:href="#d"/>
<use x="105.607422" xlink:href="#h"/>
<use x="144.970703" xlink:href="#l"/>
<use x="242.382812" xlink:href="#f"/>
<use x="270.166016" xlink:href="#j"/>
<use x="333.544922" xlink:href="#g"/>
<use x="394.824219" xlink:href="#i"/>
</g>
</g>
<path d="m1162.8 692.14 1.8784-4.2004q0.97976-2.1909-1.2111-3.1707l-7.068-3.1607q-2.1909-0.97976-3.1707 1.2111l-1.8784 4.2004q-0.97976 2.1909 1.2111 3.1707l7.068 3.1607q2.1909 0.97976 3.1707-1.2111z" clip-path="url(#a)" fill="#fff" stroke="#fff"/>
<g clip-path="url(#a)">
<g transform="translate(1159.1 690.48) rotate(-65.906) scale(.08 -.08)">
<use xlink:href="#ao"/>
</g>
</g>
<path d="m1189.4 687.49 2.2805 5.0996q0.97976 2.1909 3.1707 1.2111l7.068-3.1607q2.1909-0.97976 1.2111-3.1707l-2.2805-5.0996q-0.97976-2.1909-3.1707-1.2111l-7.068 3.1607q-2.1909 0.97976-1.2111 3.1707z" clip-path="url(#a)" fill="#fff" stroke="#fff"/>
<g clip-path="url(#a)">
<g transform="translate(1193.1 685.83) rotate(65.906) scale(.08 -.08)">
<use xlink:href="#u"/>
</g>
</g>
<path d="m1340.7 649.75 2.434-4.9975q1.0509-2.1577-1.1068-3.2086l-6.9608-3.3902q-2.1577-1.0509-3.2086 1.1068l-2.434 4.9975q-1.0509 2.1577 1.1068 3.2086l6.9608 3.3902q2.1577 1.0509 3.2086-1.1068z" clip-path="url(#a)" fill="#fff" stroke="#fff"/>
<g clip-path="url(#a)">
<g transform="translate(1337 647.97) rotate(-64.032) scale(.08 -.08)">
<use xlink:href="#r"/>
</g>
</g>
<path d="m1413.3 604.12 3.8926 4.0067q1.6724 1.7214 3.3938 0.049004l5.5532-5.3952q1.7214-1.6724 0.049004-3.3938l-3.8926-4.0067q-1.6724-1.7214-3.3938-0.049003l-5.5532 5.3952q-1.7214 1.6724-0.049003 3.3938z" clip-path="url(#a)" fill="#fff" stroke="#fff"/>
<g clip-path="url(#a)">
<g transform="translate(1416.2 601.29) rotate(45.827) scale(.08 -.08)">
<use xlink:href="#u"/>
</g>
</g>
<path d="m1288.2 755.48v33.808q0 2.4 2.4 2.4h7.7425q2.4 0 2.4-2.4v-33.808q0-2.4-2.4-2.4h-7.7425q-2.4 0-2.4 2.4z" clip-path="url(#a)" fill="#fff" stroke="#fff"/>
<g clip-path="url(#a)">
<g transform="translate(1292.3 755.48) rotate(90) scale(.08 -.08)">
<use xlink:href="#k"/>
<use x="44.083984" xlink:href="#d"/>
<use x="105.607422" xlink:href="#h"/>
<use x="144.970703" xlink:href="#l"/>
<use x="242.382812" xlink:href="#f"/>
<use x="270.166016" xlink:href="#j"/>
<use x="333.544922" xlink:href="#g"/>
<use x="394.824219" xlink:href="#i"/>
</g>
</g>
<path d="m1421.4 693.84 3.8642-3.8751q1.6947-1.6994-0.004777-3.3941l-5.4825-5.4671q-1.6994-1.6947-3.3941 0.004778l-3.8642 3.8751q-1.6947 1.6994 0.004778 3.3941l5.4825 5.4671q1.6994 1.6947 3.3941-0.004778z" clip-path="url(#a)" fill="#fff" stroke="#fff"/>
<g clip-path="url(#a)">
<g transform="translate(1418.5 690.97) rotate(-45.081) scale(.08 -.08)">
<use xlink:href="#m"/>
</g>
</g>
<path d="m1467.4 694.16 0.13617-13.246q0.024672-2.3999-2.3752-2.4245l-7.9996-0.082238q-2.3999-0.024671-2.4245 2.3752l-0.13617 13.246q-0.024672 2.3999 2.3752 2.4245l7.9996 0.082238q2.3999 0.024671 2.4245-2.3752z" clip-path="url(#a)" fill="#fff" stroke="#fff"/>
<g clip-path="url(#a)">
<defs>
<path id="ay" d="m21 76.422v-100h-8.2969v100z"/>
</defs>
<g transform="translate(1463.1 694.12) rotate(-89.411) scale(.08 -.08)">
<use xlink:href="#m"/>
<use x="68.408203" xlink:href="#ay"/>
<use x="102.099609" xlink:href="#am"/>
</g>
</g>
<path d="m1498.1 689.86 4.1555 4.1247q1.7034 1.6907 3.3941-0.012628l5.4544-5.4951q1.6907-1.7034-0.012628-3.3941l-4.1555-4.1247q-1.7034-1.6907-3.3941 0.012628l-5.4544 5.4951q-1.6907 1.7034 0.012628 3.3941z" clip-path="url(#a)" fill="#fff" stroke="#fff"/>
<g clip-path="url(#a)">
<g transform="translate(1500.9 686.98) rotate(44.787) scale(.08 -.08)">
<use xlink:href="#ag"/>
</g>
</g>
<path d="m1370 755.48v33.808q0 2.4 2.4 2.4h7.7425q2.4 0 2.4-2.4v-33.808q0-2.4-2.4-2.4h-7.7425q-2.4 0-2.4 2.4z" clip-path="url(#a)" fill="#fff" stroke="#fff"/>
<g clip-path="url(#a)">
<g transform="translate(1374 755.48) rotate(90) scale(.08 -.08)">
<use xlink:href="#k"/>
<use x="44.083984" xlink:href="#d"/>
<use x="105.607422" xlink:href="#h"/>
<use x="144.970703" xlink:href="#l"/>
<use x="242.382812" xlink:href="#f"/>
<use x="270.166016" xlink:href="#j"/>
<use x="333.544922" xlink:href="#g"/>
<use x="394.824219" xlink:href="#i"/>
</g>
</g>
<path d="m1454.4 755.48v33.808q0 2.4 2.4 2.4h7.7425q2.4 0 2.4-2.4v-33.808q0-2.4-2.4-2.4h-7.7425q-2.4 0-2.4 2.4z" clip-path="url(#a)" fill="#fff" stroke="#fff"/>
<g clip-path="url(#a)">
<g transform="translate(1458.4 755.48) rotate(90) scale(.08 -.08)">
<use xlink:href="#k"/>
<use x="44.083984" xlink:href="#d"/>
<use x="105.607422" xlink:href="#h"/>
<use x="144.970703" xlink:href="#l"/>
<use x="242.382812" xlink:href="#f"/>
<use x="270.166016" xlink:href="#j"/>
<use x="333.544922" xlink:href="#g"/>
<use x="394.824219" xlink:href="#i"/>
</g>
</g>
<path d="m1132.7 755.48v33.808q0 2.4 2.4 2.4h7.7425q2.4 0 2.4-2.4v-33.808q0-2.4-2.4-2.4h-7.7425q-2.4 0-2.4 2.4z" clip-path="url(#a)" fill="#fff" stroke="#fff"/>
<g clip-path="url(#a)">
<g transform="translate(1136.7 755.48) rotate(90) scale(.08 -.08)">
<use xlink:href="#k"/>
<use x="44.083984" xlink:href="#d"/>
<use x="105.607422" xlink:href="#h"/>
<use x="144.970703" xlink:href="#l"/>
<use x="242.382812" xlink:href="#f"/>
<use x="270.166016" xlink:href="#j"/>
<use x="333.544922" xlink:href="#g"/>
<use x="394.824219" xlink:href="#i"/>
</g>
</g>
<path d="m1209.1 755.48v33.808q0 2.4 2.4 2.4h7.7425q2.4 0 2.4-2.4v-33.808q0-2.4-2.4-2.4h-7.7425q-2.4 0-2.4 2.4z" clip-path="url(#a)" fill="#fff" stroke="#fff"/>
<g clip-path="url(#a)">
<g transform="translate(1213.2 755.48) rotate(90) scale(.08 -.08)">
<use xlink:href="#k"/>
<use x="44.083984" xlink:href="#d"/>
<use x="105.607422" xlink:href="#h"/>
<use x="144.970703" xlink:href="#l"/>
<use x="242.382812" xlink:href="#f"/>
<use x="270.166016" xlink:href="#j"/>
<use x="333.544922" xlink:href="#g"/>
<use x="394.824219" xlink:href="#i"/>
</g>
</g>
<path d="m729.25 755.48v33.808q0 2.4 2.4 2.4h7.7425q2.4 0 2.4-2.4v-33.808q0-2.4-2.4-2.4h-7.7425q-2.4 0-2.4 2.4z" clip-path="url(#a)" fill="#fff" stroke="#fff"/>
<g clip-path="url(#a)">
<g transform="translate(733.31 755.48) rotate(90) scale(.08 -.08)">
<use xlink:href="#k"/>
<use x="44.083984" xlink:href="#d"/>
<use x="105.607422" xlink:href="#h"/>
<use x="144.970703" xlink:href="#l"/>
<use x="242.382812" xlink:href="#f"/>
<use x="270.166016" xlink:href="#j"/>
<use x="333.544922" xlink:href="#g"/>
<use x="394.824219" xlink:href="#i"/>
</g>
</g>
<path d="m853.18 755.48v33.808q0 2.4 2.4 2.4h7.7425q2.4 0 2.4-2.4v-33.808q0-2.4-2.4-2.4h-7.7425q-2.4 0-2.4 2.4z" clip-path="url(#a)" fill="#fff" stroke="#fff"/>
<g clip-path="url(#a)">
<g transform="translate(857.24 755.48) rotate(90) scale(.08 -.08)">
<use xlink:href="#k"/>
<use x="44.083984" xlink:href="#d"/>
<use x="105.607422" xlink:href="#h"/>
<use x="144.970703" xlink:href="#l"/>
<use x="242.382812" xlink:href="#f"/>
<use x="270.166016" xlink:href="#j"/>
<use x="333.544922" xlink:href="#g"/>
<use x="394.824219" xlink:href="#i"/>
</g>
</g>
<path d="m465.57 755.48v33.808q0 2.4 2.4 2.4h7.7425q2.4 0 2.4-2.4v-33.808q0-2.4-2.4-2.4h-7.7425q-2.4 0-2.4 2.4z" clip-path="url(#a)" fill="#fff" stroke="#fff"/>
<g clip-path="url(#a)">
<g transform="translate(469.64 755.48) rotate(90) scale(.08 -.08)">
<use xlink:href="#k"/>
<use x="44.083984" xlink:href="#d"/>
<use x="105.607422" xlink:href="#h"/>
<use x="144.970703" xlink:href="#l"/>
<use x="242.382812" xlink:href="#f"/>
<use x="270.166016" xlink:href="#j"/>
<use x="333.544922" xlink:href="#g"/>
<use x="394.824219" xlink:href="#i"/>
</g>
</g>
<path d="m533.03 790.37 9.6272-32.408q0.68344-2.3006-1.6172-2.9841l-7.4219-2.2048q-2.3006-0.68344-2.9841 1.6172l-9.6272 32.408q-0.68344 2.3006 1.6172 2.9841l7.4219 2.2048q2.3006 0.68344 2.9841-1.6172z" clip-path="url(#a)" fill="#fff" stroke="#fff"/>
<g clip-path="url(#a)">
<g transform="translate(529.13 789.22) rotate(-73.455) scale(.08 -.08)">
<use xlink:href="#k"/>
<use x="44.083984" xlink:href="#d"/>
<use x="105.607422" xlink:href="#h"/>
<use x="144.970703" xlink:href="#l"/>
<use x="242.382812" xlink:href="#f"/>
<use x="270.166016" xlink:href="#j"/>
<use x="333.544922" xlink:href="#g"/>
<use x="394.824219" xlink:href="#i"/>
</g>
</g>
<path d="m546.05 757.97 9.6272 32.408q0.68344 2.3006 2.9841 1.6172l7.4219-2.2048q2.3006-0.68344 1.6172-2.9841l-9.6272-32.408q-0.68344-2.3006-2.9841-1.6172l-7.4219 2.2048q-2.3006 0.68344-1.6172 2.9841z" clip-path="url(#a)" fill="#fff" stroke="#fff"/>
<g clip-path="url(#a)">
<g transform="translate(549.95 756.81) rotate(73.455) scale(.08 -.08)">
<use xlink:href="#k"/>
<use x="44.083984" xlink:href="#d"/>
<use x="105.607422" xlink:href="#h"/>
<use x="144.970703" xlink:href="#l"/>
<use x="242.382812" xlink:href="#f"/>
<use x="270.166016" xlink:href="#j"/>
<use x="333.544922" xlink:href="#g"/>
<use x="394.824219" xlink:href="#i"/>
</g>
</g>
<path d="m302.1 755.48v33.808q0 2.4 2.4 2.4h7.7425q2.4 0 2.4-2.4v-33.808q0-2.4-2.4-2.4h-7.7425q-2.4 0-2.4 2.4z" clip-path="url(#a)" fill="#fff" stroke="#fff"/>
<g clip-path="url(#a)">
<g transform="translate(306.16 755.48) rotate(90) scale(.08 -.08)">
<use xlink:href="#k"/>
<use x="44.083984" xlink:href="#d"/>
<use x="105.607422" xlink:href="#h"/>
<use x="144.970703" xlink:href="#l"/>
<use x="242.382812" xlink:href="#f"/>
<use x="270.166016" xlink:href="#j"/>
<use x="333.544922" xlink:href="#g"/>
<use x="394.824219" xlink:href="#i"/>
</g>
</g>
<path d="m178.17 755.48v33.808q0 2.4 2.4 2.4h7.7425q2.4 0 2.4-2.4v-33.808q0-2.4-2.4-2.4h-7.7425q-2.4 0-2.4 2.4z" clip-path="url(#a)" fill="#fff" stroke="#fff"/>
<g clip-path="url(#a)">
<g transform="translate(182.23 755.48) rotate(90) scale(.08 -.08)">
<use xlink:href="#k"/>
<use x="44.083984" xlink:href="#d"/>
<use x="105.607422" xlink:href="#h"/>
<use x="144.970703" xlink:href="#l"/>
<use x="242.382812" xlink:href="#f"/>
<use x="270.166016" xlink:href="#j"/>
<use x="333.544922" xlink:href="#g"/>
<use x="394.824219" xlink:href="#i"/>
</g>
</g>
<path d="m204.54 755.48v33.808q0 2.4 2.4 2.4h7.7425q2.4 0 2.4-2.4v-33.808q0-2.4-2.4-2.4h-7.7425q-2.4 0-2.4 2.4z" clip-path="url(#a)" fill="#fff" stroke="#fff"/>
<g clip-path="url(#a)">
<g transform="translate(208.6 755.48) rotate(90) scale(.08 -.08)">
<use xlink:href="#k"/>
<use x="44.083984" xlink:href="#d"/>
<use x="105.607422" xlink:href="#h"/>
<use x="144.970703" xlink:href="#l"/>
<use x="242.382812" xlink:href="#f"/>
<use x="270.166016" xlink:href="#j"/>
<use x="333.544922" xlink:href="#g"/>
<use x="394.824219" xlink:href="#i"/>
</g>
</g>
<path d="m85.883 755.48v33.808q0 2.4 2.4 2.4h7.7425q2.4 0 2.4-2.4v-33.808q0-2.4-2.4-2.4h-7.7425q-2.4 0-2.4 2.4z" clip-path="url(#a)" fill="#fff" stroke="#fff"/>
<g clip-path="url(#a)">
<g transform="translate(89.947 755.48) rotate(90) scale(.08 -.08)">
<use xlink:href="#k"/>
<use x="44.083984" xlink:href="#d"/>
<use x="105.607422" xlink:href="#h"/>
<use x="144.970703" xlink:href="#l"/>
<use x="242.382812" xlink:href="#f"/>
<use x="270.166016" xlink:href="#j"/>
<use x="333.544922" xlink:href="#g"/>
<use x="394.824219" xlink:href="#i"/>
</g>
</g>
<path d="m99.067 755.48v33.808q0 2.4 2.4 2.4h7.7425q2.4 0 2.4-2.4v-33.808q0-2.4-2.4-2.4h-7.7425q-2.4 0-2.4 2.4z" clip-path="url(#a)" fill="#fff" stroke="#fff"/>
<g clip-path="url(#a)">
<g transform="translate(103.13 755.48) rotate(90) scale(.08 -.08)">
<use xlink:href="#k"/>
<use x="44.083984" xlink:href="#d"/>
<use x="105.607422" xlink:href="#h"/>
<use x="144.970703" xlink:href="#l"/>
<use x="242.382812" xlink:href="#f"/>
<use x="270.166016" xlink:href="#j"/>
<use x="333.544922" xlink:href="#g"/>
<use x="394.824219" xlink:href="#i"/>
</g>
</g>
<path d="m114.89 755.48v33.808q0 2.4 2.4 2.4h7.7425q2.4 0 2.4-2.4v-33.808q0-2.4-2.4-2.4h-7.7425q-2.4 0-2.4 2.4z" clip-path="url(#a)" fill="#fff" stroke="#fff"/>
<g clip-path="url(#a)">
<g transform="translate(118.95 755.48) rotate(90) scale(.08 -.08)">
<use xlink:href="#k"/>
<use x="44.083984" xlink:href="#d"/>
<use x="105.607422" xlink:href="#h"/>
<use x="144.970703" xlink:href="#l"/>
<use x="242.382812" xlink:href="#f"/>
<use x="270.166016" xlink:href="#j"/>
<use x="333.544922" xlink:href="#g"/>
<use x="394.824219" xlink:href="#i"/>
</g>
</g>
<path d="m133.34 755.48v33.808q0 2.4 2.4 2.4h7.7425q2.4 0 2.4-2.4v-33.808q0-2.4-2.4-2.4h-7.7425q-2.4 0-2.4 2.4z" clip-path="url(#a)" fill="#fff" stroke="#fff"/>
<g clip-path="url(#a)">
<g transform="translate(137.41 755.48) rotate(90) scale(.08 -.08)">
<use xlink:href="#k"/>
<use x="44.083984" xlink:href="#d"/>
<use x="105.607422" xlink:href="#h"/>
<use x="144.970703" xlink:href="#l"/>
<use x="242.382812" xlink:href="#f"/>
<use x="270.166016" xlink:href="#j"/>
<use x="333.544922" xlink:href="#g"/>
<use x="394.824219" xlink:href="#i"/>
</g>
</g>
<path d="m267.82 755.48v33.808q0 2.4 2.4 2.4h7.7425q2.4 0 2.4-2.4v-33.808q0-2.4-2.4-2.4h-7.7425q-2.4 0-2.4 2.4z" clip-path="url(#a)" fill="#fff" stroke="#fff"/>
<g clip-path="url(#a)">
<g transform="translate(271.88 755.48) rotate(90) scale(.08 -.08)">
<use xlink:href="#k"/>
<use x="44.083984" xlink:href="#d"/>
<use x="105.607422" xlink:href="#h"/>
<use x="144.970703" xlink:href="#l"/>
<use x="242.382812" xlink:href="#f"/>
<use x="270.166016" xlink:href="#j"/>
<use x="333.544922" xlink:href="#g"/>
<use x="394.824219" xlink:href="#i"/>
</g>
</g>
<path d="m789.89 755.48v33.808q0 2.4 2.4 2.4h7.7425q2.4 0 2.4-2.4v-33.808q0-2.4-2.4-2.4h-7.7425q-2.4 0-2.4 2.4z" clip-path="url(#a)" fill="#fff" stroke="#fff"/>
<g clip-path="url(#a)">
<g transform="translate(793.96 755.48) rotate(90) scale(.08 -.08)">
<use xlink:href="#k"/>
<use x="44.083984" xlink:href="#d"/>
<use x="105.607422" xlink:href="#h"/>
<use x="144.970703" xlink:href="#l"/>
<use x="242.382812" xlink:href="#f"/>
<use x="270.166016" xlink:href="#j"/>
<use x="333.544922" xlink:href="#g"/>
<use x="394.824219" xlink:href="#i"/>
</g>
</g>
<path d="m1541.4 755.48v33.808q0 2.4 2.4 2.4h7.7425q2.4 0 2.4-2.4v-33.808q0-2.4-2.4-2.4h-7.7425q-2.4 0-2.4 2.4z" clip-path="url(#a)" fill="#fff" stroke="#fff"/>
<g clip-path="url(#a)">
<g transform="translate(1545.4 755.48) rotate(90) scale(.08 -.08)">
<use xlink:href="#k"/>
<use x="44.083984" xlink:href="#d"/>
<use x="105.607422" xlink:href="#h"/>
<use x="144.970703" xlink:href="#l"/>
<use x="242.382812" xlink:href="#f"/>
<use x="270.166016" xlink:href="#j"/>
<use x="333.544922" xlink:href="#g"/>
<use x="394.824219" xlink:href="#i"/>
</g>
</g>
<defs>
<path id="b" d="m0 8.6603c2.2967 0 4.4997-0.9125 6.1237-2.5365 1.624-1.624 2.5365-3.827 2.5365-6.1237s-0.9125-4.4997-2.5365-6.1237c-1.624-1.624-3.827-2.5365-6.1237-2.5365s-4.4997 0.9125-6.1237 2.5365c-1.624 1.624-2.5365 3.827-2.5365 6.1237s0.9125 4.4997 2.5365 6.1237c1.624 1.624 3.827 2.5365 6.1237 2.5365z"/>
</defs>
<g clip-path="url(#a)" fill="#ffffff" stroke="#ffffff">
<use x="73.69697" y="814.545455" xlink:href="#b"/>
<use x="81.607199" y="814.545455" xlink:href="#b"/>
<use x="92.154171" y="814.545455" xlink:href="#b"/>
<use x="105.337887" y="814.545455" xlink:href="#b"/>
<use x="121.158346" y="814.545455" xlink:href="#b"/>
<use x="139.615547" y="814.545455" xlink:href="#b"/>
<use x="160.709492" y="814.545455" xlink:href="#b"/>
<use x="184.44018" y="814.545455" xlink:href="#b"/>
<use x="210.807611" y="814.545455" xlink:href="#b"/>
<use x="242.448528" y="814.545455" xlink:href="#b"/>
<use x="274.089445" y="814.545455" xlink:href="#b"/>
<use x="308.367106" y="814.545455" xlink:href="#b"/>
<use x="345.281509" y="814.545455" xlink:href="#b"/>
<use x="384.832656" y="814.545455" xlink:href="#b"/>
<use x="427.020545" y="814.545455" xlink:href="#b"/>
<use x="471.845178" y="814.545455" xlink:href="#b"/>
<use x="519.306554" y="814.545455" xlink:href="#b"/>
<use x="569.404673" y="814.545455" xlink:href="#b"/>
<use x="622.139535" y="814.545455" xlink:href="#b"/>
<use x="677.51114" y="814.545455" xlink:href="#b"/>
<use x="735.519488" y="814.545455" xlink:href="#b"/>
<use x="796.16458" y="814.545455" xlink:href="#b"/>
<use x="859.446414" y="814.545455" xlink:href="#b"/>
<use x="925.364992" y="814.545455" xlink:href="#b"/>
<use x="993.920312" y="814.545455" xlink:href="#b"/>
<use x="1065.112376" y="814.545455" xlink:href="#b"/>
<use x="1138.941183" y="814.545455" xlink:href="#b"/>
<use x="1215.406733" y="814.545455" xlink:href="#b"/>
<use x="1294.509026" y="814.545455" xlink:href="#b"/>
<use x="1376.248062" y="814.545455" xlink:href="#b"/>
<use x="1460.623841" y="814.545455" xlink:href="#b"/>
<use x="1547.636364" y="814.545455" xlink:href="#b"/>
<use x="213.444354" y="730.223417" xlink:href="#b"/>
<use x="135.067092" y="38.787879" xlink:href="#b"/>
<use x="135.067092" y="125.794874" xlink:href="#b"/>
<use x="73.69697" y="730.223417" xlink:href="#b"/>
<use x="81.607199" y="730.223417" xlink:href="#b"/>
<use x="114.566488" y="644.728368" xlink:href="#b"/>
<use x="270.397712" y="212.692896" xlink:href="#b"/>
<use x="160.709492" y="730.223417" xlink:href="#b"/>
<use x="212.56544" y="644.728368" xlink:href="#b"/>
<use x="242.448528" y="730.223417" xlink:href="#b"/>
<use x="462.175655" y="299.466443" xlink:href="#b"/>
<use x="275.407817" y="644.728368" xlink:href="#b"/>
<use x="345.281509" y="730.223417" xlink:href="#b"/>
<use x="384.832656" y="730.223417" xlink:href="#b"/>
<use x="427.020545" y="730.223417" xlink:href="#b"/>
<use x="508.100396" y="644.728368" xlink:href="#b"/>
<use x="832.411008" y="386.094815" xlink:href="#b"/>
<use x="622.139535" y="730.223417" xlink:href="#b"/>
<use x="677.51114" y="730.223417" xlink:href="#b"/>
<use x="829.123868" y="644.728368" xlink:href="#b"/>
<use x="925.364992" y="730.223417" xlink:href="#b"/>
<use x="1107.915506" y="472.548938" xlink:href="#b"/>
<use x="993.920312" y="730.223417" xlink:href="#b"/>
<use x="1065.112376" y="730.223417" xlink:href="#b"/>
<use x="1177.173958" y="644.728368" xlink:href="#b"/>
<use x="1378.005891" y="558.784904" xlink:href="#b"/>
<use x="1294.509026" y="730.223417" xlink:href="#b"/>
<use x="1461.502756" y="644.728368" xlink:href="#b"/>
<use x="1376.248062" y="730.223417" xlink:href="#b"/>
<use x="1460.623841" y="730.223417" xlink:href="#b"/>
<use x="1138.941183" y="730.223417" xlink:href="#b"/>
<use x="1215.406733" y="730.223417" xlink:href="#b"/>
<use x="735.519488" y="730.223417" xlink:href="#b"/>
<use x="859.446414" y="730.223417" xlink:href="#b"/>
<use x="471.845178" y="730.223417" xlink:href="#b"/>
<use x="544.355613" y="730.223417" xlink:href="#b"/>
<use x="308.367106" y="730.223417" xlink:href="#b"/>
<use x="184.44018" y="730.223417" xlink:href="#b"/>
<use x="210.807611" y="730.223417" xlink:href="#b"/>
<use x="92.154171" y="730.223417" xlink:href="#b"/>
<use x="105.337887" y="730.223417" xlink:href="#b"/>
<use x="121.158346" y="730.223417" xlink:href="#b"/>
<use x="139.615547" y="730.223417" xlink:href="#b"/>
<use x="274.089445" y="730.223417" xlink:href="#b"/>
<use x="796.16458" y="730.223417" xlink:href="#b"/>
<use x="1547.636364" y="730.223417" xlink:href="#b"/>
</g>
<g clip-path="url(#a)">
<g transform="translate(66.86 817.3) scale(.1 -.1)">
<use xlink:href="#an"/>
<use x="75.195312" xlink:href="#d"/>
</g>
</g>
<g clip-path="url(#a)">
<defs>
<path id="n" d="m44.281 53.078v-8.5q-3.7969 1.9531-7.9062 2.9219-4.0938 0.98438-8.5 0.98438-6.6875 0-10.031-2.0469t-3.3438-6.1562q0-3.125 2.3906-4.9062t9.625-3.3906l3.0781-0.6875q9.5625-2.0469 13.594-5.7812t4.0312-10.422q0-7.625-6.0312-12.078-6.0312-4.4375-16.578-4.4375-4.3906 0-9.1562 0.85938t-10.031 2.5625v9.2812q4.9844-2.5938 9.8125-3.8906 4.8281-1.2812 9.5781-1.2812 6.3438 0 9.75 2.1719 3.4219 2.1719 3.4219 6.125 0 3.6562-2.4688 5.6094-2.4531 1.9531-10.812 3.7656l-3.125 0.73438q-8.3438 1.75-12.062 5.3906-3.7031 3.6406-3.7031 9.9844 0 7.7188 5.4688 11.906 5.4688 4.2031 15.531 4.2031 4.9688 0 9.3594-0.73438 4.4062-0.71875 8.1094-2.1875z"/>
<path id="ab" d="m48.781 52.594v-8.4062q-3.8125 2.1094-7.6406 3.1562t-7.7344 1.0469q-8.75 0-13.594-5.5469-4.8281-5.5312-4.8281-15.547t4.8281-15.562q4.8438-5.5312 13.594-5.5312 3.9062 0 7.7344 1.0469t7.6406 3.1562v-8.3125q-3.7656-1.75-7.7969-2.625-4.0156-0.89062-8.5625-0.89062-12.359 0-19.641 7.7656-7.2656 7.7656-7.2656 20.953 0 13.375 7.3438 21.031 7.3594 7.6719 20.156 7.6719 4.1406 0 8.0938-0.85938 3.9531-0.84375 7.6719-2.5469z"/>
<path id="ar" d="m8.5 21.578v33.109h8.9844v-32.766q0-7.7656 3.0156-11.656 3.0312-3.875 9.0938-3.875 7.2656 0 11.484 4.6406 4.2344 4.6406 4.2344 12.656v31h8.9844v-54.688h-8.9844v8.4062q-3.2656-4.9844-7.5938-7.4062-4.3125-2.4219-10.031-2.4219-9.4219 0-14.312 5.8594-4.875 5.8594-4.875 17.141z"/>
<path id="aa" d="m45.406 46.391v29.594h8.9844v-75.984h-8.9844v8.2031q-2.8281-4.875-7.1562-7.25-4.3125-2.375-10.375-2.375-9.9062 0-16.141 7.9062-6.2188 7.9219-6.2188 20.812t6.2188 20.797q6.2344 7.9062 16.141 7.9062 6.0625 0 10.375-2.375 4.3281-2.3594 7.1562-7.2344zm-30.609-19.094q0-9.9062 4.0781-15.547t11.203-5.6406 11.219 5.6406q4.1094 5.6406 4.1094 15.547t-4.1094 15.547q-4.0938 5.6406-11.219 5.6406t-11.203-5.6406-4.0781-15.547z"/>
</defs>
<g transform="translate(61.814 817.3) scale(.1 -.1)">
<use xlink:href="#n"/>
<use x="52.099609" xlink:href="#d"/>
<use x="113.623047" xlink:href="#ab"/>
<use x="168.603516" xlink:href="#ar"/>
<use x="231.982422" xlink:href="#h"/>
<use x="270.845703" xlink:href="#d"/>
<use x="332.369141" xlink:href="#aa"/>
</g>
</g>
<g clip-path="url(#a)">
<defs>
<path id="t" d="m54.891 33.016v-33.016h-8.9844v32.719q0 7.7656-3.0312 11.609-3.0312 3.8594-9.0781 3.8594-7.2812 0-11.484-4.6406-4.2031-4.625-4.2031-12.641v-30.906h-9.0312v75.984h9.0312v-29.797q3.2344 4.9375 7.5938 7.375 4.375 2.4375 10.094 2.4375 9.4219 0 14.25-5.8281 4.8438-5.8281 4.8438-17.156z"/>
</defs>
<g transform="translate(84.992 817.3) scale(.1 -.1)">
<use xlink:href="#t"/>
<use x="63.378906" xlink:href="#f"/>
<use x="91.162109" xlink:href="#n"/>
</g>
</g>
<g clip-path="url(#a)">
<defs>
<path id="ae" d="m37.109 75.984v-7.4844h-8.5938q-4.8281 0-6.7188-1.9531-1.875-1.9531-1.875-7.0312v-4.8281h14.797v-6.9844h-14.797v-47.703h-9.0312v47.703h-8.5938v6.9844h8.5938v3.8125q0 9.125 4.25 13.297 4.25 4.1875 13.469 4.1875z"/>
<path id="ak" d="m18.312 70.219v-15.531h18.5v-6.9844h-18.5v-29.688q0-6.6875 1.8281-8.5938t7.4531-1.9062h9.2188v-7.5156h-9.2188q-10.406 0-14.359 3.875-3.9531 3.8906-3.9531 14.141v29.688h-6.5938v6.9844h6.5938v15.531z"/>
</defs>
<g transform="translate(95.568 817.3) scale(.1 -.1)">
<use xlink:href="#ae"/>
<use x="35.205078" xlink:href="#f"/>
<use x="62.988281" xlink:href="#h"/>
<use x="104.101562" xlink:href="#n"/>
<use x="156.201172" xlink:href="#ak"/>
</g>
</g>
<g clip-path="url(#a)">
<g transform="translate(111.75 817.3) scale(.1 -.1)">
<use xlink:href="#ae"/>
<use x="35.205078" xlink:href="#f"/>
<use x="62.988281" xlink:href="#i"/>
<use x="90.771484" xlink:href="#l"/>
</g>
</g>
<g clip-path="url(#a)">
<defs>
<path id="s" d="m30.609 48.391q-7.2188 0-11.422-5.6406t-4.2031-15.453 4.1719-15.453q4.1875-5.6406 11.453-5.6406 7.1875 0 11.375 5.6562 4.2031 5.6719 4.2031 15.438 0 9.7188-4.2031 15.406-4.1875 5.6875-11.375 5.6875zm0 7.6094q11.719 0 18.406-7.625 6.7031-7.6094 6.7031-21.078 0-13.422-6.7031-21.078-6.6875-7.6406-18.406-7.6406-11.766 0-18.438 7.6406-6.6562 7.6562-6.6562 21.078 0 13.469 6.6562 21.078 6.6719 7.625 18.438 7.625z"/>
</defs>
<g transform="translate(130.15 817.3) scale(.1 -.1)">
<use xlink:href="#h"/>
<use x="38.863281" xlink:href="#s"/>
<use x="100.044922" xlink:href="#i"/>
<use x="127.828125" xlink:href="#d"/>
</g>
</g>
<g clip-path="url(#a)">
<g transform="translate(156.15 817.3) scale(.1 -.1)">
<use xlink:href="#f"/>
<use x="27.783203" xlink:href="#j"/>
</g>
</g>
<g clip-path="url(#a)">
<defs>
<path id="c" d="m12.406 8.2969h16.109v55.625l-17.531-3.5156v8.9844l17.438 3.5156h9.8594v-64.609h16.109v-8.2969h-41.984z"/>
<path id="x" d="m10.984 1.5156v8.9844q3.7188-1.7656 7.5156-2.6875 3.8125-0.92188 7.4844-0.92188 9.7656 0 14.906 6.5625 5.1562 6.5625 5.8906 19.953-2.8281-4.2031-7.1875-6.4531-4.3438-2.25-9.6094-2.25-10.938 0-17.312 6.6094-6.375 6.625-6.375 18.109 0 11.219 6.6406 18 6.6406 6.7969 17.672 6.7969 12.656 0 19.312-9.7031 6.6719-9.6875 6.6719-28.141 0-17.234-8.1875-27.516-8.1719-10.281-21.984-10.281-3.7188 0-7.5312 0.73438-3.7969 0.73438-7.9062 2.2031zm19.625 30.906q6.6406 0 10.516 4.5312 3.8906 4.5469 3.8906 12.469 0 7.8594-3.8906 12.422-3.875 4.5625-10.516 4.5625t-10.516-4.5625-3.875-12.422q0-7.9219 3.875-12.469 3.875-4.5312 10.516-4.5312z"/>
<path id="y" d="m31.781 34.625q-7.0312 0-11.062-3.7656-4.0156-3.7656-4.0156-10.344 0-6.5938 4.0156-10.359 4.0312-3.7656 11.062-3.7656t11.078 3.7812q4.0625 3.7969 4.0625 10.344 0 6.5781-4.0312 10.344-4.0156 3.7656-11.109 3.7656zm-9.8594 4.1875q-6.3438 1.5625-9.8906 5.9062-3.5312 4.3594-3.5312 10.609 0 8.7344 6.2188 13.812 6.2344 5.0781 17.062 5.0781 10.891 0 17.094-5.0781t6.2031-13.812q0-6.25-3.5469-10.609-3.5312-4.3438-9.8281-5.9062 7.125-1.6562 11.094-6.5 3.9844-4.8281 3.9844-11.797 0-10.609-6.4688-16.281-6.4688-5.6562-18.531-5.6562-12.047 0-18.531 5.6562-6.4688 5.6719-6.4688 16.281 0 6.9688 4 11.797 4.0156 4.8438 11.141 6.5zm-3.6094 15.578q0-5.6562 3.5312-8.8281 3.5469-3.1719 9.9375-3.1719 6.3594 0 9.9375 3.1719 3.5938 3.1719 3.5938 8.8281 0 5.6719-3.5938 8.8438-3.5781 3.1719-9.9375 3.1719-6.3906 0-9.9375-3.1719-3.5312-3.1719-3.5312-8.8438z"/>
<path id="z" d="m10.797 72.906h38.719v-8.3125h-29.688v-17.859q2.1406 0.73438 4.2812 1.0938 2.1562 0.35938 4.3125 0.35938 12.203 0 19.328-6.6875 7.1406-6.6875 7.1406-18.109 0-11.766-7.3281-18.297-7.3281-6.5156-20.656-6.5156-4.5938 0-9.3594 0.78125-4.75 0.78125-9.8281 2.3438v9.9219q4.3906-2.3906 9.0781-3.5625t9.9062-1.1719q8.4531 0 13.375 4.4375 4.9375 4.4375 4.9375 12.062 0 7.6094-4.9375 12.047-4.9219 4.4531-13.375 4.4531-3.9531 0-7.8906-0.875-3.9219-0.875-8.0156-2.7344z"/>
</defs>
<g transform="translate(171.72 817.3) scale(.1 -.1)">
<use xlink:href="#c"/>
<use x="63.623047" xlink:href="#x"/>
<use x="127.246094" xlink:href="#y"/>
<use x="190.869141" xlink:href="#z"/>
</g>
</g>
<g clip-path="url(#a)">
<defs>
<path id="ax" d="m17.922 72.906v-27.109h-8.2969v27.109z"/>
</defs>
<g transform="translate(206.83 817.3) scale(.1 -.1)">
<use xlink:href="#ax"/>
<use x="27.490234" xlink:href="#n"/>
</g>
</g>
<g clip-path="url(#a)">
<defs>
<path id="aq" d="m54.891 54.688-19.781-26.609 20.797-28.078h-10.594l-15.922 21.484-15.906-21.484h-10.609l21.25 28.609-19.438 26.078h10.594l14.5-19.484 14.5 19.484z"/>
<path id="al" d="m18.109 8.2031v-29h-9.0312v75.484h9.0312v-8.2969q2.8438 4.875 7.1562 7.2344 4.3281 2.375 10.328 2.375 9.9688 0 16.188-7.9062 6.2344-7.9062 6.2344-20.797t-6.2344-20.812q-6.2188-7.9062-16.188-7.9062-6 0-10.328 2.375-4.3125 2.375-7.1562 7.25zm30.578 19.094q0 9.9062-4.0781 15.547t-11.203 5.6406q-7.1406 0-11.219-5.6406t-4.0781-15.547 4.0781-15.547 11.219-5.6406q7.125 0 11.203 5.6406t4.0781 15.547z"/>
</defs>
<g transform="translate(219.03 817.3) scale(.1 -.1)">
<use xlink:href="#v"/>
<use x="63.183594" xlink:href="#aq"/>
<use x="122.363281" xlink:href="#al"/>
<use x="185.839844" xlink:href="#i"/>
<use x="213.623047" xlink:href="#s"/>
<use x="274.804688" xlink:href="#h"/>
<use x="313.667969" xlink:href="#d"/>
<use x="375.191406" xlink:href="#h"/>
<use x="416.304688" xlink:href="#n"/>
</g>
</g>
<g clip-path="url(#a)">
<defs>
<path id="aw" d="m11.719 12.406h10.297v-8.4062l-8-15.625h-6.2969l4 15.625z"/>
</defs>
<g transform="translate(272.5 817.3) scale(.1 -.1)">
<use xlink:href="#aw"/>
</g>
</g>
<g clip-path="url(#a)">
<g transform="translate(303.81 817.3) scale(.1 -.1)">
<use xlink:href="#f"/>
<use x="27.783203" xlink:href="#j"/>
</g>
</g>
<g clip-path="url(#a)">
<defs>
<path id="aj" d="m4.2031 54.688h8.9844l11.234-42.672 11.172 42.672h10.594l11.234-42.672 11.188 42.672h8.9844l-14.312-54.688h-10.594l-11.766 44.828-11.812-44.828h-10.609z"/>
</defs>
<g transform="translate(330.72 817.3) scale(.1 -.1)">
<use xlink:href="#aj"/>
<use x="81.787109" xlink:href="#t"/>
<use x="145.166016" xlink:href="#f"/>
<use x="172.949219" xlink:href="#ab"/>
<use x="227.929688" xlink:href="#t"/>
</g>
</g>
<g clip-path="url(#a)">
<g transform="translate(378.59 817.3) scale(.1 -.1)">
<use xlink:href="#t"/>
<use x="63.378906" xlink:href="#d"/>
</g>
</g>
<g clip-path="url(#a)">
<defs>
<path id="ap" d="m32.172-5.0781q-3.7969-9.7656-7.4219-12.734-3.6094-2.9844-9.6562-2.9844h-7.1875v7.5156h5.2812q3.7031 0 5.75 1.7656 2.0625 1.75 4.5469 8.2969l1.6094 4.0938-22.109 53.812h9.5156l17.094-42.766 17.094 42.766h9.5156z"/>
</defs>
<g transform="translate(410.18 817.3) scale(.1 -.1)">
<use xlink:href="#al"/>
<use x="63.476562" xlink:href="#i"/>
<use x="91.259766" xlink:href="#g"/>
<use x="152.539062" xlink:href="#ap"/>
<use x="211.71875" xlink:href="#d"/>
<use x="273.242188" xlink:href="#aa"/>
</g>
</g>
<g clip-path="url(#a)">
<defs>
<path id="ba" d="m45.406 27.984q0 9.7656-4.0312 15.125-4.0156 5.375-11.297 5.375-7.2188 0-11.25-5.375-4.0312-5.3594-4.0312-15.125 0-9.7188 4.0312-15.094t11.25-5.375q7.2812 0 11.297 5.375 4.0312 5.375 4.0312 15.094zm8.9844-21.203q0-13.953-6.2031-20.766-6.1875-6.8125-18.984-6.8125-4.7344 0-8.9375 0.70312t-8.1562 2.1719v8.7344q3.9531-2.1406 7.8125-3.1562 3.8594-1.0312 7.8594-1.0312 8.8438 0 13.234 4.6094t4.3906 13.938v4.4531q-2.7812-4.8438-7.125-7.2344t-10.406-2.3906q-10.047 0-16.203 7.6562-6.1562 7.6719-6.1562 20.328 0 12.688 6.1562 20.344 6.1562 7.6719 16.203 7.6719 6.0625 0 10.406-2.3906t7.125-7.2188v8.2969h8.9844z"/>
</defs>
<g transform="translate(447.75 817.3) scale(.1 -.1)">
<use xlink:href="#g"/>
<use x="61.279297" xlink:href="#i"/>
<use x="89.0625" xlink:href="#s"/>
<use x="150.244141" xlink:href="#j"/>
<use x="213.623047" xlink:href="#ba"/>
<use x="277.099609" xlink:href="#n"/>
<use x="329.199219" xlink:href="#f"/>
<use x="356.982422" xlink:href="#aa"/>
<use x="420.458984" xlink:href="#d"/>
</g>
</g>
<g clip-path="url(#a)">
<defs>
<path id="az" d="m2.9844 54.688h9.5156l17.094-45.891 17.094 45.891h9.5156l-20.516-54.688h-12.203z"/>
</defs>
<g transform="translate(506.35 817.3) scale(.1 -.1)">
<use xlink:href="#r"/>
<use x="69.482422" xlink:href="#f"/>
<use x="97.265625" xlink:href="#az"/>
<use x="156.445312" xlink:href="#d"/>
<use x="217.96875" xlink:href="#h"/>
</g>
</g>
<g clip-path="url(#a)">
<g transform="translate(549.57 817.3) scale(.1 -.1)">
<use xlink:href="#w"/>
<use x="60.302734" xlink:href="#t"/>
<use x="123.681641" xlink:href="#s"/>
<use x="184.863281" xlink:href="#d"/>
<use x="246.386719" xlink:href="#j"/>
<use x="309.765625" xlink:href="#f"/>
<use x="337.548828" xlink:href="#aq"/>
</g>
</g>
<g clip-path="url(#a)">
<g transform="translate(616.47 817.3) scale(.1 -.1)">
<use xlink:href="#g"/>
<use x="61.279297" xlink:href="#n"/>
</g>
</g>
<g clip-path="url(#a)">
<g transform="translate(671.28 817.3) scale(.1 -.1)">
<use xlink:href="#g"/>
<use x="61.279297" xlink:href="#j"/>
</g>
</g>
<g clip-path="url(#a)">
<g transform="translate(723.43 817.3) scale(.1 -.1)">
<use xlink:href="#g"/>
<use x="61.279297" xlink:href="#i"/>
<use x="89.0625" xlink:href="#f"/>
<use x="116.845703" xlink:href="#d"/>
<use x="178.369141" xlink:href="#j"/>
</g>
</g>
<g clip-path="url(#a)">
<defs>
<path id="av" d="m4.8906 31.391h26.312v-8h-26.312z"/>
</defs>
<g transform="translate(794.36 817.3) scale(.1 -.1)">
<use xlink:href="#av"/>
</g>
</g>
<g clip-path="url(#a)">
<defs>
<path id="af" d="m48.688 27.297q0 9.9062-4.0781 15.547t-11.203 5.6406q-7.1406 0-11.219-5.6406t-4.0781-15.547 4.0781-15.547 11.219-5.6406q7.125 0 11.203 5.6406t4.0781 15.547zm-30.578 19.094q2.8438 4.875 7.1562 7.2344 4.3281 2.375 10.328 2.375 9.9688 0 16.188-7.9062 6.2344-7.9062 6.2344-20.797t-6.2344-20.812q-6.2188-7.9062-16.188-7.9062-6 0-10.328 2.375-4.3125 2.375-7.1562 7.25v-8.2031h-9.0312v75.984h9.0312z"/>
</defs>
<g transform="translate(836.07 817.3) scale(.1 -.1)">
<use xlink:href="#s"/>
<use x="61.181641" xlink:href="#af"/>
<use x="124.658203" xlink:href="#n"/>
<use x="176.757812" xlink:href="#d"/>
<use x="238.28125" xlink:href="#n"/>
<use x="290.380859" xlink:href="#n"/>
<use x="342.480469" xlink:href="#d"/>
<use x="404.003906" xlink:href="#aa"/>
</g>
</g>
<g clip-path="url(#a)">
<g transform="translate(900.14 817.3) scale(.1 -.1)">
<use xlink:href="#n"/>
<use x="52.099609" xlink:href="#ab"/>
<use x="107.080078" xlink:href="#t"/>
<use x="170.458984" xlink:href="#s"/>
<use x="231.640625" xlink:href="#s"/>
<use x="292.822266" xlink:href="#i"/>
<use x="320.605469" xlink:href="#af"/>
<use x="384.082031" xlink:href="#s"/>
<use x="445.263672" xlink:href="#ap"/>
</g>
</g>
<g clip-path="url(#a)">
<g transform="translate(983.6 817.3) scale(.1 -.1)">
<use xlink:href="#aj"/>
<use x="81.787109" xlink:href="#t"/>
<use x="145.166016" xlink:href="#s"/>
</g>
</g>
<g clip-path="url(#a)">
<g transform="translate(1050.2 817.3) scale(.1 -.1)">
<use xlink:href="#af"/>
<use x="63.476562" xlink:href="#ar"/>
<use x="126.855469" xlink:href="#f"/>
<use x="154.638672" xlink:href="#i"/>
<use x="182.421875" xlink:href="#aa"/>
<use x="245.898438" xlink:href="#n"/>
</g>
</g>
<g clip-path="url(#a)">
<g transform="translate(1135.9 817.3) scale(.1 -.1)">
<use xlink:href="#g"/>
</g>
</g>
<g clip-path="url(#a)">
<g transform="translate(1189.2 817.3) scale(.1 -.1)">
<use xlink:href="#n"/>
<use x="52.099609" xlink:href="#al"/>
<use x="115.576172" xlink:href="#g"/>
<use x="176.855469" xlink:href="#ab"/>
<use x="231.835938" xlink:href="#d"/>
<use x="293.359375" xlink:href="#ab"/>
<use x="348.339844" xlink:href="#h"/>
<use x="389.453125" xlink:href="#g"/>
<use x="450.732422" xlink:href="#ae"/>
<use x="484.1875" xlink:href="#ak"/>
</g>
</g>
<g clip-path="url(#a)">
<g transform="translate(1283.9 817.3) scale(.1 -.1)">
<use xlink:href="#aj"/>
<use x="81.787109" xlink:href="#f"/>
<use x="109.570312" xlink:href="#ak"/>
<use x="148.779297" xlink:href="#t"/>
</g>
</g>
<g clip-path="url(#a)">
<g transform="translate(1369.1 817.3) scale(.1 -.1)">
<use xlink:href="#t"/>
<use x="63.378906" xlink:href="#f"/>
<use x="91.162109" xlink:href="#n"/>
</g>
</g>
<g clip-path="url(#a)">
<g transform="translate(1443.4 817.3) scale(.1 -.1)">
<use xlink:href="#ae"/>
<use x="35.205078" xlink:href="#h"/>
<use x="76.318359" xlink:href="#f"/>
<use x="104.101562" xlink:href="#d"/>
<use x="165.625" xlink:href="#j"/>
<use x="229.003906" xlink:href="#aa"/>
<use x="292.480469" xlink:href="#n"/>
</g>
</g>
<g clip-path="url(#a)">
<defs>
<path id="e" d="m10.688 12.406h10.312v-12.406h-10.312z"/>
</defs>
<g transform="translate(1546 817.3) scale(.1 -.1)">
<use xlink:href="#e"/>
</g>
</g>
<g clip-path="url(#a)">
<defs>
<path id="ah" d="m9.8125 72.906h9.8594v-72.906h-9.8594z"/>
<path id="at" d="m9.8125 72.906h14.703l18.594-49.609 18.703 49.609h14.703v-72.906h-9.625v64.016l-18.797-50h-9.9062l-18.797 50v-64.016h-9.5781z"/>
<path id="au" d="m9.8125 72.906h9.8594v-64.609h35.5v-8.2969h-45.359z"/>
</defs>
<g transform="translate(192.36 732.98) scale(.1 -.1)">
<use xlink:href="#ah"/>
<use x="29.492188" xlink:href="#at"/>
<use x="115.771484" xlink:href="#w"/>
<use x="176.074219" xlink:href="#au"/>
<use x="231.787109" xlink:href="#ah"/>
<use x="261.279297" xlink:href="#u"/>
<use x="331.103516" xlink:href="#ah"/>
<use x="360.595703" xlink:href="#k"/>
</g>
</g>
<g clip-path="url(#a)">
<g transform="translate(127.12 41.547) scale(.1 -.1)">
<use xlink:href="#c"/>
<use x="63.623047" xlink:href="#e"/>
<use x="95.410156" xlink:href="#c"/>
</g>
</g>
<g clip-path="url(#a)">
<defs>
<path id="p" d="m19.188 8.2969h34.422v-8.2969h-46.281v8.2969q5.6094 5.8125 15.297 15.594 9.7031 9.7969 12.188 12.641 4.7344 5.3125 6.6094 9 1.8906 3.6875 1.8906 7.25 0 5.8125-4.0781 9.4688-4.0781 3.6719-10.625 3.6719-4.6406 0-9.7969-1.6094-5.1406-1.6094-11-4.8906v9.9688q5.9531 2.3906 11.125 3.6094 5.1875 1.2188 9.4844 1.2188 11.328 0 18.062-5.6719 6.7344-5.6562 6.7344-15.125 0-4.5-1.6875-8.5312-1.6719-4.0156-6.125-9.4844-1.2188-1.4219-7.7656-8.1875-6.5312-6.7656-18.453-18.922z"/>
</defs>
<g transform="translate(127.12 128.55) scale(.1 -.1)">
<use xlink:href="#c"/>
<use x="63.623047" xlink:href="#e"/>
<use x="95.410156" xlink:href="#p"/>
</g>
</g>
<g clip-path="url(#a)">
<defs>
<path id="o" d="m37.797 64.312-24.906-38.922h24.906zm-2.5938 8.5938h12.406v-47.516h10.406v-8.2031h-10.406v-17.188h-9.8125v17.188h-32.906v9.5156z"/>
</defs>
<g transform="translate(65.745 732.98) scale(.1 -.1)">
<use xlink:href="#c"/>
<use x="63.623047" xlink:href="#e"/>
<use x="95.410156" xlink:href="#o"/>
</g>
</g>
<g clip-path="url(#a)">
<g transform="translate(73.656 732.98) scale(.1 -.1)">
<use xlink:href="#c"/>
<use x="63.623047" xlink:href="#e"/>
<use x="95.410156" xlink:href="#z"/>
</g>
</g>
<g clip-path="url(#a)">
<defs>
<path id="ad" d="m33.016 40.375q-6.6406 0-10.531-4.5469-3.875-4.5312-3.875-12.438 0-7.8594 3.875-12.438 3.8906-4.5625 10.531-4.5625t10.516 4.5625q3.875 4.5781 3.875 12.438 0 7.9062-3.875 12.438-3.875 4.5469-10.516 4.5469zm19.578 30.922v-8.9844q-3.7188 1.75-7.5 2.6719-3.7812 0.9375-7.5 0.9375-9.7656 0-14.922-6.5938-5.1406-6.5938-5.875-19.922 2.875 4.25 7.2188 6.5156 4.3594 2.2656 9.5781 2.2656 10.984 0 17.359-6.6719 6.375-6.6562 6.375-18.125 0-11.234-6.6406-18.031-6.6406-6.7812-17.672-6.7812-12.656 0-19.344 9.6875-6.6875 9.7031-6.6875 28.109 0 17.281 8.2031 27.562t22.016 10.281q3.7188 0 7.5-0.73438t7.8906-2.1875z"/>
</defs>
<g transform="translate(106.61 647.49) scale(.1 -.1)">
<use xlink:href="#c"/>
<use x="63.623047" xlink:href="#e"/>
<use x="95.410156" xlink:href="#ad"/>
</g>
</g>
<g clip-path="url(#a)">
<defs>
<path id="ac" d="m8.2031 72.906h46.875v-4.2031l-26.469-68.703h-10.297l24.906 64.594h-35.016z"/>
</defs>
<g transform="translate(262.45 215.45) scale(.1 -.1)">
<use xlink:href="#c"/>
<use x="63.623047" xlink:href="#e"/>
<use x="95.410156" xlink:href="#ac"/>
</g>
</g>
<g clip-path="url(#a)">
<g transform="translate(152.76 732.98) scale(.1 -.1)">
<use xlink:href="#c"/>
<use x="63.623047" xlink:href="#e"/>
<use x="95.410156" xlink:href="#y"/>
</g>
</g>
<g clip-path="url(#a)">
<g transform="translate(204.61 647.49) scale(.1 -.1)">
<use xlink:href="#c"/>
<use x="63.623047" xlink:href="#e"/>
<use x="95.410156" xlink:href="#x"/>
</g>
</g>
<g clip-path="url(#a)">
<defs>
<path id="ai" d="m31.781 66.406q-7.6094 0-11.453-7.5-3.8281-7.4844-3.8281-22.531 0-14.984 3.8281-22.484 3.8438-7.5 11.453-7.5 7.6719 0 11.5 7.5 3.8438 7.5 3.8438 22.484 0 15.047-3.8438 22.531-3.8281 7.5-11.5 7.5zm0 7.8125q12.266 0 18.734-9.7031 6.4688-9.6875 6.4688-28.141 0-18.406-6.4688-28.109-6.4688-9.6875-18.734-9.6875-12.25 0-18.719 9.6875-6.4688 9.7031-6.4688 28.109 0 18.453 6.4688 28.141 6.4688 9.7031 18.719 9.7031z"/>
</defs>
<g transform="translate(231.32 732.98) scale(.1 -.1)">
<use xlink:href="#c"/>
<use x="63.623047" xlink:href="#e"/>
<use x="95.410156" xlink:href="#c"/>
<use x="159.033203" xlink:href="#ai"/>
</g>
</g>
<g clip-path="url(#a)">
<g transform="translate(451.04 302.23) scale(.1 -.1)">
<use xlink:href="#c"/>
<use x="63.623047" xlink:href="#e"/>
<use x="95.410156" xlink:href="#c"/>
<use x="159.033203" xlink:href="#c"/>
</g>
</g>
<g clip-path="url(#a)">
<defs>
<path id="q" d="m40.578 39.312q7.0781-1.5156 11.047-6.3125 3.9844-4.7812 3.9844-11.812 0-10.781-7.4219-16.703-7.4219-5.9062-21.094-5.9062-4.5781 0-9.4375 0.90625t-10.031 2.7188v9.5156q4.0938-2.3906 8.9688-3.6094 4.8906-1.2188 10.219-1.2188 9.2656 0 14.125 3.6562t4.8594 10.641q0 6.4531-4.5156 10.078-4.5156 3.6406-12.562 3.6406h-8.5v8.1094h8.8906q7.2656 0 11.125 2.9062t3.8594 8.375q0 5.6094-3.9844 8.6094-3.9688 3.0156-11.391 3.0156-4.0625 0-8.7031-0.89062-4.6406-0.875-10.203-2.7188v8.7812q5.625 1.5625 10.531 2.3438t9.25 0.78125q11.234 0 17.766-5.1094 6.5469-5.0938 6.5469-13.781 0-6.0625-3.4688-10.234t-9.8594-5.7812z"/>
</defs>
<g transform="translate(264.28 647.49) scale(.1 -.1)">
<use xlink:href="#c"/>
<use x="63.623047" xlink:href="#e"/>
<use x="95.410156" xlink:href="#c"/>
<use x="159.033203" xlink:href="#q"/>
</g>
</g>
<g clip-path="url(#a)">
<g transform="translate(334.15 732.98) scale(.1 -.1)">
<use xlink:href="#c"/>
<use x="63.623047" xlink:href="#e"/>
<use x="95.410156" xlink:href="#c"/>
<use x="159.033203" xlink:href="#o"/>
</g>
</g>
<g clip-path="url(#a)">
<g transform="translate(373.7 732.98) scale(.1 -.1)">
<use xlink:href="#c"/>
<use x="63.623047" xlink:href="#e"/>
<use x="95.410156" xlink:href="#c"/>
<use x="159.033203" xlink:href="#z"/>
</g>
</g>
<g clip-path="url(#a)">
<g transform="translate(415.89 732.98) scale(.1 -.1)">
<use xlink:href="#c"/>
<use x="63.623047" xlink:href="#e"/>
<use x="95.410156" xlink:href="#c"/>
<use x="159.033203" xlink:href="#ad"/>
</g>
</g>
<g clip-path="url(#a)">
<g transform="translate(496.97 647.49) scale(.1 -.1)">
<use xlink:href="#c"/>
<use x="63.623047" xlink:href="#e"/>
<use x="95.410156" xlink:href="#c"/>
<use x="159.033203" xlink:href="#ac"/>
</g>
</g>
<g clip-path="url(#a)">
<g transform="translate(821.28 388.85) scale(.1 -.1)">
<use xlink:href="#c"/>
<use x="63.623047" xlink:href="#e"/>
<use x="95.410156" xlink:href="#c"/>
<use x="159.033203" xlink:href="#y"/>
</g>
</g>
<g clip-path="url(#a)">
<g transform="translate(611.01 732.98) scale(.1 -.1)">
<use xlink:href="#c"/>
<use x="63.623047" xlink:href="#e"/>
<use x="95.410156" xlink:href="#c"/>
<use x="159.033203" xlink:href="#x"/>
</g>
</g>
<g clip-path="url(#a)">
<g transform="translate(666.38 732.98) scale(.1 -.1)">
<use xlink:href="#c"/>
<use x="63.623047" xlink:href="#e"/>
<use x="95.410156" xlink:href="#p"/>
<use x="159.033203" xlink:href="#ai"/>
</g>
</g>
<g clip-path="url(#a)">
<g transform="translate(817.99 647.49) scale(.1 -.1)">
<use xlink:href="#c"/>
<use x="63.623047" xlink:href="#e"/>
<use x="95.410156" xlink:href="#p"/>
<use x="159.033203" xlink:href="#c"/>
</g>
</g>
<g clip-path="url(#a)">
<g transform="translate(914.23 732.98) scale(.1 -.1)">
<use xlink:href="#c"/>
<use x="63.623047" xlink:href="#e"/>
<use x="95.410156" xlink:href="#p"/>
<use x="159.033203" xlink:href="#p"/>
</g>
</g>
<g clip-path="url(#a)">
<g transform="translate(1096.8 475.31) scale(.1 -.1)">
<use xlink:href="#c"/>
<use x="63.623047" xlink:href="#e"/>
<use x="95.410156" xlink:href="#p"/>
<use x="159.033203" xlink:href="#q"/>
</g>
</g>
<g clip-path="url(#a)">
<g transform="translate(982.79 732.98) scale(.1 -.1)">
<use xlink:href="#c"/>
<use x="63.623047" xlink:href="#e"/>
<use x="95.410156" xlink:href="#p"/>
<use x="159.033203" xlink:href="#o"/>
</g>
</g>
<g clip-path="url(#a)">
<g transform="translate(1054 732.98) scale(.1 -.1)">
<use xlink:href="#c"/>
<use x="63.623047" xlink:href="#e"/>
<use x="95.410156" xlink:href="#p"/>
<use x="159.033203" xlink:href="#z"/>
</g>
</g>
<g clip-path="url(#a)">
<g transform="translate(1166 647.49) scale(.1 -.1)">
<use xlink:href="#c"/>
<use x="63.623047" xlink:href="#e"/>
<use x="95.410156" xlink:href="#p"/>
<use x="159.033203" xlink:href="#ad"/>
</g>
</g>
<g clip-path="url(#a)">
<g transform="translate(1366.9 561.54) scale(.1 -.1)">
<use xlink:href="#c"/>
<use x="63.623047" xlink:href="#e"/>
<use x="95.410156" xlink:href="#p"/>
<use x="159.033203" xlink:href="#ac"/>
</g>
</g>
<g clip-path="url(#a)">
<g transform="translate(1283.4 732.98) scale(.1 -.1)">
<use xlink:href="#c"/>
<use x="63.623047" xlink:href="#e"/>
<use x="95.410156" xlink:href="#p"/>
<use x="159.033203" xlink:href="#y"/>
</g>
</g>
<g clip-path="url(#a)">
<g transform="translate(1450.4 647.49) scale(.1 -.1)">
<use xlink:href="#c"/>
<use x="63.623047" xlink:href="#e"/>
<use x="95.410156" xlink:href="#p"/>
<use x="159.033203" xlink:href="#x"/>
</g>
</g>
<g clip-path="url(#a)">
<g transform="translate(1365.1 732.98) scale(.1 -.1)">
<use xlink:href="#c"/>
<use x="63.623047" xlink:href="#e"/>
<use x="95.410156" xlink:href="#q"/>
<use x="159.033203" xlink:href="#ai"/>
</g>
</g>
<g clip-path="url(#a)">
<g transform="translate(1449.5 732.98) scale(.1 -.1)">
<use xlink:href="#c"/>
<use x="63.623047" xlink:href="#e"/>
<use x="95.410156" xlink:href="#q"/>
<use x="159.033203" xlink:href="#c"/>
</g>
</g>
<g clip-path="url(#a)">
<g transform="translate(1127.8 732.98) scale(.1 -.1)">
<use xlink:href="#c"/>
<use x="63.623047" xlink:href="#e"/>
<use x="95.410156" xlink:href="#q"/>
<use x="159.033203" xlink:href="#p"/>
</g>
</g>
<g clip-path="url(#a)">
<g transform="translate(1204.3 732.98) scale(.1 -.1)">
<use xlink:href="#c"/>
<use x="63.623047" xlink:href="#e"/>
<use x="95.410156" xlink:href="#q"/>
<use x="159.033203" xlink:href="#q"/>
</g>
</g>
<g clip-path="url(#a)">
<g transform="translate(724.39 732.98) scale(.1 -.1)">
<use xlink:href="#c"/>
<use x="63.623047" xlink:href="#e"/>
<use x="95.410156" xlink:href="#q"/>
<use x="159.033203" xlink:href="#o"/>
</g>
</g>
<g clip-path="url(#a)">
<g transform="translate(848.31 732.98) scale(.1 -.1)">
<use xlink:href="#c"/>
<use x="63.623047" xlink:href="#e"/>
<use x="95.410156" xlink:href="#q"/>
<use x="159.033203" xlink:href="#z"/>
</g>
</g>
<g clip-path="url(#a)">
<g transform="translate(460.71 732.98) scale(.1 -.1)">
<use xlink:href="#c"/>
<use x="63.623047" xlink:href="#e"/>
<use x="95.410156" xlink:href="#q"/>
<use x="159.033203" xlink:href="#ac"/>
</g>
</g>
<g clip-path="url(#a)">
<g transform="translate(533.22 732.98) scale(.1 -.1)">
<use xlink:href="#c"/>
<use x="63.623047" xlink:href="#e"/>
<use x="95.410156" xlink:href="#q"/>
<use x="159.033203" xlink:href="#y"/>
</g>
</g>
<g clip-path="url(#a)">
<g transform="translate(297.23 732.98) scale(.1 -.1)">
<use xlink:href="#c"/>
<use x="63.623047" xlink:href="#e"/>
<use x="95.410156" xlink:href="#q"/>
<use x="159.033203" xlink:href="#x"/>
</g>
</g>
<g clip-path="url(#a)">
<g transform="translate(173.31 732.98) scale(.1 -.1)">
<use xlink:href="#c"/>
<use x="63.623047" xlink:href="#e"/>
<use x="95.410156" xlink:href="#o"/>
<use x="159.033203" xlink:href="#c"/>
</g>
</g>
<g clip-path="url(#a)">
<g transform="translate(199.67 732.98) scale(.1 -.1)">
<use xlink:href="#c"/>
<use x="63.623047" xlink:href="#e"/>
<use x="95.410156" xlink:href="#o"/>
<use x="159.033203" xlink:href="#p"/>
</g>
</g>
<g clip-path="url(#a)">
<g transform="translate(81.021 732.98) scale(.1 -.1)">
<use xlink:href="#c"/>
<use x="63.623047" xlink:href="#e"/>
<use x="95.410156" xlink:href="#o"/>
<use x="159.033203" xlink:href="#q"/>
</g>
</g>
<g clip-path="url(#a)">
<g transform="translate(94.205 732.98) scale(.1 -.1)">
<use xlink:href="#c"/>
<use x="63.623047" xlink:href="#e"/>
<use x="95.410156" xlink:href="#o"/>
<use x="159.033203" xlink:href="#o"/>
</g>
</g>
<g clip-path="url(#a)">
<g transform="translate(110.03 732.98) scale(.1 -.1)">
<use xlink:href="#c"/>
<use x="63.623047" xlink:href="#e"/>
<use x="95.410156" xlink:href="#o"/>
<use x="159.033203" xlink:href="#z"/>
</g>
</g>
<g clip-path="url(#a)">
<g transform="translate(128.48 732.98) scale(.1 -.1)">
<use xlink:href="#c"/>
<use x="63.623047" xlink:href="#e"/>
<use x="95.410156" xlink:href="#o"/>
<use x="159.033203" xlink:href="#ad"/>
</g>
</g>
<g clip-path="url(#a)">
<g transform="translate(262.96 732.98) scale(.1 -.1)">
<use xlink:href="#c"/>
<use x="63.623047" xlink:href="#e"/>
<use x="95.410156" xlink:href="#o"/>
<use x="159.033203" xlink:href="#ac"/>
</g>
</g>
<g clip-path="url(#a)">
<g transform="translate(785.03 732.98) scale(.1 -.1)">
<use xlink:href="#c"/>
<use x="63.623047" xlink:href="#e"/>
<use x="95.410156" xlink:href="#o"/>
<use x="159.033203" xlink:href="#y"/>
</g>
</g>
<g clip-path="url(#a)">
<g transform="translate(1536.5 732.98) scale(.1 -.1)">
<use xlink:href="#c"/>
<use x="63.623047" xlink:href="#e"/>
<use x="95.410156" xlink:href="#o"/>
<use x="159.033203" xlink:href="#x"/>
</g>
</g>
<defs>
<clipPath id="a">
<rect width="1621.3" height="853.33"/>
</clipPath>
</defs>
</svg>
