<?xml version="1.0" encoding="UTF-8"?>
<!DOCTYPE svg  PUBLIC '-//W3C//DTD SVG 1.1//EN'  'http://www.w3.org/Graphics/SVG/1.1/DTD/svg11.dtd'>
<svg width="1621.3pt" height="853.33pt" version="1.1" viewBox="0 0 1621.3 853.33" xmlns="http://www.w3.org/2000/svg" xmlns:xlink="http://www.w3.org/1999/xlink">
<defs>
<style type="text/css">*{stroke-linecap:butt;stroke-linejoin:round;}</style>
</defs>
<path d="m0 853.33h1621.3v-853.33h-1621.3z" fill="#fff"/>
<g fill="none" stroke="#000">
<path d="m377.94 38.788v130.47" clip-path="url(#a)"/>
<path d="m377.94 169.26-295.45 389.53" clip-path="url(#a)"/>
<path d="m377.94 169.26-272.6 518.29" clip-path="url(#a)"/>
<path d="m377.94 169.26-256.78 518.29" clip-path="url(#a)"/>
<path d="m377.94 169.26-128.39 130.21" clip-path="url(#a)"/>
<path d="m377.94 169.26 709.02 260.09" clip-path="url(#a)"/>
<path d="m377.94 169.26 244.2 518.29" clip-path="url(#a)"/>
<path d="m82.486 558.78-8.7891 128.76" clip-path="url(#a)"/>
<path d="m82.486 558.78-0.87891 128.76" clip-path="url(#a)"/>
<path d="m82.486 558.78 9.6681 128.76" clip-path="url(#a)"/>
<path d="m105.34 687.55v127" clip-path="url(#a)"/>
<path d="m121.16 687.55v127" clip-path="url(#a)"/>
<path d="m249.55 299.47-87.965 388.08" clip-path="url(#a)"/>
<path d="m249.55 299.47 59.986 129.88" clip-path="url(#a)"/>
<path d="m249.55 299.47 66.724 129.88" clip-path="url(#a)"/>
<path d="m249.55 299.47-38.745 388.08" clip-path="url(#a)"/>
<path d="m1087 429.35-409.45 258.2" clip-path="url(#a)"/>
<path d="m1087 429.35-351.44 258.2" clip-path="url(#a)"/>
<path d="m1087 429.35-97.434 129.44" clip-path="url(#a)"/>
<path d="m1087 429.35-20.968 129.44" clip-path="url(#a)"/>
<path d="m1087 429.35 128.45 258.2" clip-path="url(#a)"/>
<path d="m1087 429.35 290.17 258.2" clip-path="url(#a)"/>
<path d="m1087 429.35 460.68 258.2" clip-path="url(#a)"/>
<path d="m677.51 687.55v127" clip-path="url(#a)"/>
<path d="m735.52 687.55v127" clip-path="url(#a)"/>
<path d="m989.53 558.78 387.6 128.76" clip-path="url(#a)" stroke-dasharray="3.7,1.6"/>
<path d="m989.53 558.78-193.36 128.76" clip-path="url(#a)"/>
<path d="m989.53 558.78-64.161 128.76" clip-path="url(#a)"/>
<path d="m989.53 558.78-130.08 128.76" clip-path="url(#a)"/>
<path d="m1066 558.78-72.071 128.76" clip-path="url(#a)"/>
<path d="m1066 558.78 72.95 128.76" clip-path="url(#a)"/>
<path d="m1066 558.78-0.87891 128.76" clip-path="url(#a)"/>
<path d="m1215.4 687.55v127" clip-path="url(#a)"/>
<path d="m1377.1 687.55-82.618 127" clip-path="url(#a)"/>
<path d="m1377.1 687.55-0.87891 127" clip-path="url(#a)"/>
<path d="m1377.1 687.55 83.497 127" clip-path="url(#a)"/>
<path d="m993.92 687.55v127" clip-path="url(#a)"/>
<path d="m1138.9 687.55v127" clip-path="url(#a)"/>
<path d="m796.16 687.55v127" clip-path="url(#a)"/>
<path d="m925.36 687.55v127" clip-path="url(#a)"/>
<path d="m161.59 687.55-21.973 127" clip-path="url(#a)"/>
<path d="m161.59 687.55-0.87891 127" clip-path="url(#a)"/>
<path d="m161.59 687.55 22.852 127" clip-path="url(#a)"/>
<path d="m309.54 429.35-69.727 258.2" clip-path="url(#a)"/>
<path d="m309.54 429.35-2.9297 129.44" clip-path="url(#a)"/>
<path d="m309.54 429.35 72.657 258.2" clip-path="url(#a)"/>
<path d="m316.28 429.35-154.69 258.2" clip-path="url(#a)" stroke-dasharray="3.7,1.6"/>
<path d="m316.28 429.35 253.13 129.44" clip-path="url(#a)"/>
<path d="m316.28 429.35 154.69 129.44" clip-path="url(#a)"/>
<path d="m470.97 558.78-46.582 128.76" clip-path="url(#a)"/>
<path d="m470.97 558.78 46.582 128.76" clip-path="url(#a)"/>
<path d="m424.38 687.55v127" clip-path="url(#a)"/>
<path d="m517.55 687.55-48.34 127" clip-path="url(#a)"/>
<path d="m517.55 687.55-0.87891 127" clip-path="url(#a)"/>
<path d="m517.55 687.55 49.219 127" clip-path="url(#a)"/>
<path d="m239.81 687.55v127" clip-path="url(#a)"/>
<path d="m306.61 558.78-35.157 128.76" clip-path="url(#a)"/>
<path d="m306.61 558.78 36.035 128.76" clip-path="url(#a)"/>
<path d="m306.61 558.78-0.87891 128.76" clip-path="url(#a)"/>
<path d="m382.2 687.55v127" clip-path="url(#a)"/>
<path d="m271.45 687.55v127" clip-path="url(#a)"/>
<path d="m342.64 687.55v127" clip-path="url(#a)"/>
<path d="m210.81 687.55v127" clip-path="url(#a)"/>
<path d="m73.697 687.55v127" clip-path="url(#a)"/>
<path d="m81.607 687.55v127" clip-path="url(#a)"/>
<path d="m92.154 687.55v127" clip-path="url(#a)"/>
<path d="m305.73 687.55v127" clip-path="url(#a)"/>
<path d="m622.14 687.55v127" clip-path="url(#a)"/>
<path d="m859.45 687.55v127" clip-path="url(#a)"/>
<path d="m1065.1 687.55v127" clip-path="url(#a)"/>
<path d="m1547.6 687.55v127" clip-path="url(#a)"/>
</g>
<path d="m371.67 101.02v6.0162q0 2.4 2.4 2.4h7.7425q2.4 0 2.4-2.4v-6.0162q0-2.4-2.4-2.4h-7.7425q-2.4 0-2.4 2.4z" clip-path="url(#a)" fill="#fff" stroke="#fff"/>
<g clip-path="url(#a)">
<defs>
<path id="az" d="m9.8125 72.906h9.8594v-29.891h35.844v29.891h9.8594v-72.906h-9.8594v34.719h-35.844v-34.719h-9.8594z"/>
</defs>
<g transform="translate(375.73 101.02) rotate(90) scale(.08 -.08)">
<use xlink:href="#az"/>
</g>
</g>
<path d="m233.73 369.76 2.9529-3.8931q1.4504-1.9122-0.4618-3.3625l-6.1688-4.679q-1.9122-1.4504-3.3626 0.4618l-2.9529 3.8931q-1.4504 1.9122 0.4618 3.3625l6.1688 4.679q1.9122 1.4504 3.3625-0.4618z" clip-path="url(#a)" fill="#fff" stroke="#fff"/>
<g clip-path="url(#a)">
<defs>
<path id="i" d="m-0.29688 72.906h61.672v-8.3125h-25.875v-64.594h-9.9062v64.594h-25.891z"/>
</defs>
<g transform="translate(230.49 367.3) rotate(-52.82) scale(.08 -.08)">
<use xlink:href="#i"/>
</g>
</g>
<path d="m245.92 433.74 2.5475-4.8434q1.1172-2.1241-1.0069-3.2413l-6.8525-3.6041q-2.1241-1.1172-3.2413 1.0069l-2.5475 4.8434q-1.1172 2.1241 1.0069 3.2413l6.8525 3.6041q2.1241 1.1172 3.2413-1.0069z" clip-path="url(#a)" fill="#fff" stroke="#fff"/>
<g clip-path="url(#a)">
<defs>
<path id="s" d="m34.188 63.188-13.391-36.281h26.812zm-5.5781 9.7188h11.188l27.781-72.906h-10.25l-6.6406 18.703h-32.859l-6.6406-18.703h-10.406z"/>
</defs>
<g transform="translate(242.32 431.85) rotate(-62.257) scale(.08 -.08)">
<use xlink:href="#s"/>
</g>
</g>
<path d="m254.1 433.35 2.1415-4.3224q1.0655-2.1505-1.0851-3.216l-6.9377-3.4372q-2.1505-1.0655-3.216 1.0851l-2.1415 4.3224q-1.0655 2.1505 1.0851 3.216l6.9377 3.4372q2.1505 1.0655 3.216-1.0851z" clip-path="url(#a)" fill="#fff" stroke="#fff"/>
<g clip-path="url(#a)">
<defs>
<path id="z" d="m19.672 64.797v-27.391h12.406q6.8906 0 10.641 3.5625 3.7656 3.5625 3.7656 10.156 0 6.5469-3.7656 10.109-3.75 3.5625-10.641 3.5625zm-9.8594 8.1094h22.266q12.266 0 18.531-5.5469 6.2812-5.5469 6.2812-16.234 0-10.797-6.2812-16.312-6.2656-5.5156-18.531-5.5156h-12.406v-29.297h-9.8594z"/>
</defs>
<g transform="translate(250.46 431.54) rotate(-63.644) scale(.08 -.08)">
<use xlink:href="#z"/>
</g>
</g>
<path d="m316.29 240.71 3.8423-3.8968q1.6851-1.709-0.023915-3.394l-5.5132-5.4361q-1.709-1.6851-3.394 0.023914l-3.8423 3.8968q-1.6851 1.709 0.023914 3.394l5.5132 5.4361q1.709 1.6851 3.394-0.023914z" clip-path="url(#a)" fill="#fff" stroke="#fff"/>
<g clip-path="url(#a)">
<g transform="translate(313.4 237.86) rotate(-45.404) scale(.08 -.08)">
<use xlink:href="#s"/>
</g>
</g>
<path d="m727.72 304.25 5.1377 1.8847q2.2532 0.82653 3.0797-1.4267l2.6664-7.2689q0.82653-2.2532-1.4267-3.0797l-5.1377-1.8847q-2.2532-0.82653-3.0797 1.4267l-2.6664 7.2689q-0.82653 2.2532 1.4267 3.0797z" clip-path="url(#a)" fill="#fff" stroke="#fff"/>
<g clip-path="url(#a)">
<g transform="translate(729.12 300.43) rotate(20.144) scale(.08 -.08)">
<use xlink:href="#s"/>
</g>
</g>
<path d="m493.12 428.43 2.4955 5.2965q1.0229 2.1711 3.194 1.1481l7.004-3.3q2.1711-1.0229 1.1481-3.194l-2.4955-5.2965q-1.0229-2.1711-3.194-1.1481l-7.004 3.3q-2.1711 1.0229-1.1481 3.194z" clip-path="url(#a)" fill="#fff" stroke="#fff"/>
<g clip-path="url(#a)">
<defs>
<path id="u" d="m8.6875 72.906h9.9219v-44.297q0-11.719 4.2344-16.875 4.25-5.1406 13.781-5.1406 9.4688 0 13.719 5.1406 4.25 5.1562 4.25 16.875v44.297h9.9062v-45.516q0-14.25-7.0625-21.531-7.0469-7.2812-20.812-7.2812-13.828 0-20.891 7.2812-7.0469 7.2812-7.0469 21.531z"/>
</defs>
<g transform="translate(496.79 426.7) rotate(64.772) scale(.08 -.08)">
<use xlink:href="#u"/>
</g>
</g>
<path d="m84.159 626.37 0.37855-5.5458q0.16344-2.3944-2.231-2.5579l-7.7245-0.52726q-2.3944-0.16344-2.5579 2.231l-0.37855 5.5458q-0.16344 2.3944 2.231 2.5579l7.7245 0.52726q2.3944 0.16344 2.5579-2.231z" clip-path="url(#a)" fill="#fff" stroke="#fff"/>
<g clip-path="url(#a)">
<defs>
<path id="ad" d="m44.391 34.188q3.1719-1.0781 6.1719-4.5938t6.0312-9.6719l10.016-19.922h-10.609l-9.3125 18.703q-3.625 7.3281-7.0156 9.7188t-9.25 2.3906h-10.75v-30.812h-9.8594v72.906h22.266q12.5 0 18.656-5.2344 6.1562-5.2188 6.1562-15.766 0-6.8906-3.2031-11.438-3.2031-4.5312-9.2969-6.2812zm-24.719 30.609v-25.875h12.406q7.125 0 10.766 3.2969t3.6406 9.6875-3.6406 9.6406-10.766 3.25z"/>
</defs>
<g transform="translate(80.105 626.09) rotate(-86.095) scale(.08 -.08)">
<use xlink:href="#ad"/>
</g>
</g>
<path d="m88.299 626 0.03813-5.5861q0.016381-2.3999-2.3836-2.4163l-7.7423-0.052847q-2.3999-0.016382-2.4163 2.3836l-0.03813 5.5861q-0.016381 2.3999 2.3836 2.4163l7.7423 0.052847q2.3999 0.016382 2.4163-2.3836z" clip-path="url(#a)" fill="#fff" stroke="#fff"/>
<g clip-path="url(#a)">
<defs>
<path id="o" d="m64.406 67.281v-10.391q-4.9844 4.6406-10.625 6.9219-5.6406 2.2969-11.984 2.2969-12.5 0-19.141-7.6406t-6.6406-22.094q0-14.406 6.6406-22.047t19.141-7.6406q6.3438 0 11.984 2.2969t10.625 6.9375v-10.312q-5.1719-3.5156-10.969-5.2812-5.7812-1.75-12.219-1.75-16.562 0-26.094 10.125-9.5156 10.141-9.5156 27.672 0 17.578 9.5156 27.703 9.5312 10.141 26.094 10.141 6.5312 0 12.312-1.7344 5.7969-1.7344 10.875-5.2031z"/>
</defs>
<g transform="translate(84.235 625.97) rotate(-89.609) scale(.08 -.08)">
<use xlink:href="#o"/>
</g>
</g>
<path d="m80.857 620.85 0.41826 5.5706q0.1797 2.3933 2.573 2.2136l7.7208-0.5797q2.3933-0.1797 2.2136-2.573l-0.41826-5.5706q-0.1797-2.3933-2.573-2.2136l-7.7208 0.5797q-2.3933 0.1797-2.2136 2.573z" clip-path="url(#a)" fill="#fff" stroke="#fff"/>
<g clip-path="url(#a)">
<g transform="translate(84.91 620.55) rotate(85.706) scale(.08 -.08)">
<use xlink:href="#o"/>
</g>
</g>
<path d="m99.067 734.14v33.808q0 2.4 2.4 2.4h7.7425q2.4 0 2.4-2.4v-33.808q0-2.4-2.4-2.4h-7.7425q-2.4 0-2.4 2.4z" clip-path="url(#a)" fill="#fff" stroke="#fff"/>
<g clip-path="url(#a)">
<defs>
<path id="e" d="m56.203 29.594v-4.3906h-41.312q0.59375-9.2812 5.5938-14.141t13.938-4.8594q5.1719 0 10.031 1.2656t9.6562 3.8125v-8.5q-4.8438-2.0469-9.9219-3.125t-10.297-1.0781q-13.094 0-20.734 7.6094-7.6406 7.625-7.6406 20.625 0 13.422 7.25 21.297 7.25 7.8906 19.562 7.8906 11.031 0 17.453-7.1094 6.4219-7.0938 6.4219-19.297zm-8.9844 2.6406q-0.09375 7.3594-4.125 11.75-4.0312 4.4062-10.672 4.4062-7.5156 0-12.031-4.25t-5.2031-11.969z"/>
<path id="f" d="m41.109 46.297q-1.5156 0.875-3.2969 1.2812-1.7812 0.42188-3.9219 0.42188-7.625 0-11.703-4.9531t-4.0781-14.234v-28.812h-9.0312v54.688h9.0312v-8.5q2.8438 4.9844 7.375 7.3906 4.5469 2.4219 11.047 2.4219 0.92188 0 2.0469-0.125 1.125-0.10938 2.4844-0.35938z"/>
<path id="k" d="m52 44.188q3.375 6.0625 8.0625 8.9375t11.031 2.875q8.5469 0 13.188-5.9844 4.6406-5.9688 4.6406-17v-33.016h-9.0312v32.719q0 7.8594-2.7969 11.656-2.7812 3.8125-8.4844 3.8125-6.9844 0-11.047-4.6406-4.0469-4.625-4.0469-12.641v-30.906h-9.0312v32.719q0 7.9062-2.7812 11.688t-8.5938 3.7812q-6.8906 0-10.953-4.6562-4.0469-4.6562-4.0469-12.625v-30.906h-9.0312v54.688h9.0312v-8.5q3.0781 5.0312 7.375 7.4219t10.203 2.3906q5.9688 0 10.141-3.0312 4.1719-3.0156 6.1719-8.7812z"/>
<path id="j" d="m9.4219 54.688h8.9844v-54.688h-8.9844zm0 21.297h8.9844v-11.391h-8.9844z"/>
<path id="g" d="m54.891 33.016v-33.016h-8.9844v32.719q0 7.7656-3.0312 11.609-3.0312 3.8594-9.0781 3.8594-7.2812 0-11.484-4.6406-4.2031-4.625-4.2031-12.641v-30.906h-9.0312v54.688h9.0312v-8.5q3.2344 4.9375 7.5938 7.375 4.375 2.4375 10.094 2.4375 9.4219 0 14.25-5.8281 4.8438-5.8281 4.8438-17.156z"/>
<path id="d" d="m34.281 27.484q-10.891 0-15.094-2.4844t-4.2031-8.5q0-4.7812 3.1562-7.5938 3.1562-2.7969 8.5625-2.7969 7.4844 0 12 5.2969t4.5156 14.078v2zm17.922 3.7188v-31.203h-8.9844v8.2969q-3.0781-4.9688-7.6719-7.3438t-11.234-2.375q-8.3906 0-13.359 4.7188-4.9531 4.7188-4.9531 12.625 0 9.2188 6.1719 13.906 6.1875 4.6875 18.438 4.6875h12.609v0.89062q0 6.2031-4.0781 9.5938t-11.453 3.3906q-4.6875 0-9.1406-1.125-4.4375-1.125-8.5312-3.375v8.3125q4.9219 1.9062 9.5625 2.8438 4.6406 0.95312 9.0312 0.95312 11.875 0 17.734-6.1562 5.8594-6.1406 5.8594-18.641z"/>
<path id="l" d="m9.4219 75.984h8.9844v-75.984h-8.9844z"/>
</defs>
<g transform="translate(103.13 734.14) rotate(90) scale(.08 -.08)">
<use xlink:href="#i"/>
<use x="44.083984" xlink:href="#e"/>
<use x="105.607422" xlink:href="#f"/>
<use x="144.970703" xlink:href="#k"/>
<use x="242.382812" xlink:href="#j"/>
<use x="270.166016" xlink:href="#g"/>
<use x="333.544922" xlink:href="#d"/>
<use x="394.824219" xlink:href="#l"/>
</g>
</g>
<path d="m114.89 734.14v33.808q0 2.4 2.4 2.4h7.7425q2.4 0 2.4-2.4v-33.808q0-2.4-2.4-2.4h-7.7425q-2.4 0-2.4 2.4z" clip-path="url(#a)" fill="#fff" stroke="#fff"/>
<g clip-path="url(#a)">
<g transform="translate(118.95 734.14) rotate(90) scale(.08 -.08)">
<use xlink:href="#i"/>
<use x="44.083984" xlink:href="#e"/>
<use x="105.607422" xlink:href="#f"/>
<use x="144.970703" xlink:href="#k"/>
<use x="242.382812" xlink:href="#j"/>
<use x="270.166016" xlink:href="#g"/>
<use x="333.544922" xlink:href="#d"/>
<use x="394.824219" xlink:href="#l"/>
</g>
</g>
<path d="m211.07 497.62 1.2349-5.4481q0.53054-2.3406-1.8101-2.8712l-7.551-1.7115q-2.3406-0.53054-2.8712 1.8101l-1.2349 5.448q-0.53054 2.3406 1.8101 2.8712l7.551 1.7115q2.3406 0.53054 2.8712-1.8101z" clip-path="url(#a)" fill="#fff" stroke="#fff"/>
<g clip-path="url(#a)">
<g transform="translate(207.11 496.72) rotate(-77.229) scale(.08 -.08)">
<use xlink:href="#o"/>
</g>
</g>
<path d="m272.79 364.74 2.1195 4.5892q1.0063 2.1788 3.1852 1.1725l7.029-3.2464q2.1788-1.0063 1.1725-3.1852l-2.1195-4.5892q-1.0063-2.1788-3.1852-1.1725l-7.029 3.2464q-2.1788 1.0063-1.1725 3.1852z" clip-path="url(#a)" fill="#fff" stroke="#fff"/>
<g clip-path="url(#a)">
<defs>
<path id="r" d="m9.8125 72.906h46.094v-8.3125h-36.234v-21.578h34.719v-8.2969h-34.719v-26.422h37.109v-8.2969h-46.969z"/>
</defs>
<g transform="translate(276.48 363.04) rotate(65.21) scale(.08 -.08)">
<use xlink:href="#r"/>
</g>
</g>
<path d="m276.18 365.02 2.31 4.4963q1.0967 2.1348 3.2315 1.0381l6.8868-3.538q2.1348-1.0967 1.0381-3.2315l-2.31-4.4963q-1.0967-2.1348-3.2315-1.0381l-6.8868 3.538q-2.1348 1.0967-1.0381 3.2315z" clip-path="url(#a)" fill="#fff" stroke="#fff"/>
<g clip-path="url(#a)">
<g transform="translate(279.8 363.17) rotate(62.809) scale(.08 -.08)">
<use xlink:href="#r"/>
</g>
</g>
<path d="m236.13 497.04 0.58166-5.826q0.23843-2.3881-2.1497-2.6266l-7.7042-0.76918q-2.3881-0.23843-2.6266 2.1497l-0.58166 5.826q-0.23843 2.3881 2.1497 2.6266l7.7042 0.76917q2.3881 0.23843 2.6266-2.1497z" clip-path="url(#a)" fill="#fff" stroke="#fff"/>
<g clip-path="url(#a)">
<g transform="translate(232.09 496.64) rotate(-84.299) scale(.08 -.08)">
<use xlink:href="#u"/>
</g>
</g>
<path d="m883.23 565.23 4.7019-2.9651q2.0301-1.2802 0.74988-3.3102l-4.1299-6.5491q-1.2802-2.0301-3.3102-0.74988l-4.7019 2.9651q-2.0301 1.2802-0.74988 3.3102l4.1299 6.5491q1.2802 2.0301 3.3102 0.74988z" clip-path="url(#a)" fill="#fff" stroke="#fff"/>
<g clip-path="url(#a)">
<g transform="translate(881.06 561.8) rotate(-32.236) scale(.08 -.08)">
<use xlink:href="#ad"/>
</g>
</g>
<path d="m913.1 564.86 3.7081-2.7243q1.9341-1.421 0.51312-3.3551l-4.5842-6.2395q-1.421-1.9341-3.3551-0.51312l-3.7081 2.7243q-1.9341 1.421-0.51312 3.3551l4.5842 6.2395q1.421 1.9341 3.3551 0.51312z" clip-path="url(#a)" fill="#fff" stroke="#fff"/>
<g clip-path="url(#a)">
<defs>
<path id="aq" d="m9.8125 72.906h41.891v-8.3125h-32.031v-21.484h28.906v-8.2969h-28.906v-34.812h-9.8594z"/>
</defs>
<g transform="translate(910.69 561.59) rotate(-36.305) scale(.08 -.08)">
<use xlink:href="#aq"/>
</g>
</g>
<path d="m1041.7 499.86 3.0401-4.0387q1.4434-1.9175-0.47411-3.3608l-6.1859-4.6563q-1.9175-1.4434-3.3608 0.47411l-3.0401 4.0387q-1.4434 1.9175 0.47411 3.3608l6.1859 4.6563q1.9175 1.4434 3.3608-0.47411z" clip-path="url(#a)" fill="#fff" stroke="#fff"/>
<g clip-path="url(#a)">
<g transform="translate(1038.5 497.41) rotate(-53.03) scale(.08 -.08)">
<use xlink:href="#r"/>
</g>
</g>
<path d="m1082.3 497.56 0.80834-4.99q0.38378-2.3691-1.9853-2.7529l-7.6429-1.2381q-2.3691-0.38378-2.7529 1.9853l-0.80834 4.99q-0.38378 2.3691 1.9853 2.7529l7.6429 1.2381q2.3691 0.38378 2.7529-1.9853z" clip-path="url(#a)" fill="#fff" stroke="#fff"/>
<g clip-path="url(#a)">
<g transform="translate(1078.3 496.91) rotate(-80.798) scale(.08 -.08)">
<use xlink:href="#r"/>
</g>
</g>
<path d="m1144.4 558.98 2.2515 4.5259q1.069 2.1488 3.2178 1.0798l6.9321-3.4485q2.1488-1.069 1.0798-3.2178l-2.2515-4.5259q-1.069-2.1488-3.2178-1.0798l-6.9321 3.4485q-2.1488 1.069-1.0798 3.2178z" clip-path="url(#a)" fill="#fff" stroke="#fff"/>
<g clip-path="url(#a)">
<g transform="translate(1148.1 557.17) rotate(63.551) scale(.08 -.08)">
<use xlink:href="#r"/>
</g>
</g>
<path d="m1225.8 561.28 4.1732 3.7135q1.7929 1.5954 3.3884-0.19751l5.1469-5.7841q1.5954-1.7929-0.19751-3.3884l-4.1732-3.7135q-1.7929-1.5954-3.3884 0.19751l-5.1469 5.7841q-1.5954 1.7929 0.19751 3.3884z" clip-path="url(#a)" fill="#fff" stroke="#fff"/>
<g clip-path="url(#a)">
<g transform="translate(1228.5 558.24) rotate(41.664) scale(.08 -.08)">
<use xlink:href="#o"/>
</g>
</g>
<path d="m1311.7 562.49 5.1075 2.8627q2.0936 1.1734 3.267-0.92016l3.7855-6.754q1.1734-2.0936-0.92016-3.267l-5.1075-2.8627q-2.0936-1.1734-3.267 0.92016l-3.7855 6.754q-1.1734 2.0936 0.92016 3.267z" clip-path="url(#a)" fill="#fff" stroke="#fff"/>
<g clip-path="url(#a)">
<g transform="translate(1313.7 558.94) rotate(29.27) scale(.08 -.08)">
<use xlink:href="#u"/>
</g>
</g>
<path d="m671.24 734.14v33.808q0 2.4 2.4 2.4h7.7425q2.4 0 2.4-2.4v-33.808q0-2.4-2.4-2.4h-7.7425q-2.4 0-2.4 2.4z" clip-path="url(#a)" fill="#fff" stroke="#fff"/>
<g clip-path="url(#a)">
<g transform="translate(675.3 734.14) rotate(90) scale(.08 -.08)">
<use xlink:href="#i"/>
<use x="44.083984" xlink:href="#e"/>
<use x="105.607422" xlink:href="#f"/>
<use x="144.970703" xlink:href="#k"/>
<use x="242.382812" xlink:href="#j"/>
<use x="270.166016" xlink:href="#g"/>
<use x="333.544922" xlink:href="#d"/>
<use x="394.824219" xlink:href="#l"/>
</g>
</g>
<path d="m729.25 734.14v33.808q0 2.4 2.4 2.4h7.7425q2.4 0 2.4-2.4v-33.808q0-2.4-2.4-2.4h-7.7425q-2.4 0-2.4 2.4z" clip-path="url(#a)" fill="#fff" stroke="#fff"/>
<g clip-path="url(#a)">
<g transform="translate(733.31 734.14) rotate(90) scale(.08 -.08)">
<use xlink:href="#i"/>
<use x="44.083984" xlink:href="#e"/>
<use x="105.607422" xlink:href="#f"/>
<use x="144.970703" xlink:href="#k"/>
<use x="242.382812" xlink:href="#j"/>
<use x="270.166016" xlink:href="#g"/>
<use x="333.544922" xlink:href="#d"/>
<use x="394.824219" xlink:href="#l"/>
</g>
</g>
<path d="m1178.8 628.26 5.1934 1.7253q2.2776 0.75664 3.0342-1.521l2.4409-7.3477q0.75664-2.2776-1.521-3.0342l-5.1934-1.7253q-2.2776-0.75664-3.0342 1.521l-2.4409 7.3477q-0.75664 2.2776 1.521 3.0342z" clip-path="url(#a)" fill="#fff" stroke="#fff"/>
<g clip-path="url(#a)">
<g transform="translate(1180 624.4) rotate(18.377) scale(.08 -.08)">
<use xlink:href="#s"/>
</g>
</g>
<path d="m894.04 629.9 4.555-3.0333q1.9976-1.3303 0.66736-3.3279l-4.2914-6.4444q-1.3303-1.9976-3.3279-0.66736l-4.555 3.0333q-1.9976 1.3303-0.66736 3.3279l4.2914 6.4444q1.3303 1.9976 3.3279 0.66736z" clip-path="url(#a)" fill="#fff" stroke="#fff"/>
<g clip-path="url(#a)">
<g transform="translate(891.79 626.52) rotate(-33.661) scale(.08 -.08)">
<use xlink:href="#s"/>
</g>
</g>
<path d="m961.98 628.12 2.1513-4.3175q1.0704-2.1481-1.0777-3.2185l-6.9299-3.453q-2.1481-1.0704-3.2185 1.0777l-2.1513 4.3175q-1.0704 2.1481 1.0777 3.2185l6.9299 3.453q2.1481 1.0704 3.2185-1.0777z" clip-path="url(#a)" fill="#fff" stroke="#fff"/>
<g clip-path="url(#a)">
<g transform="translate(958.35 626.31) rotate(-63.514) scale(.08 -.08)">
<use xlink:href="#z"/>
</g>
</g>
<path d="m926.82 629.68 4.1611-4.119q1.7057-1.6884 0.017252-3.3941l-5.4469-5.5025q-1.6884-1.7057-3.3941-0.017252l-4.1611 4.119q-1.7057 1.6884-0.017252 3.3941l5.4469 5.5025q1.6884 1.7057 3.3941 0.017252z" clip-path="url(#a)" fill="#fff" stroke="#fff"/>
<g clip-path="url(#a)">
<g transform="translate(923.96 626.8) rotate(-44.709) scale(.08 -.08)">
<use xlink:href="#u"/>
</g>
</g>
<path d="m1034.2 628.44 2.4689-4.4111q1.1722-2.0943-0.92207-3.2665l-6.7562-3.7815q-2.0943-1.1722-3.2665 0.92207l-2.4689 4.4111q-1.1722 2.0943 0.92207 3.2665l6.7562 3.7815q2.0943 1.1722 3.2665-0.92207z" clip-path="url(#a)" fill="#fff" stroke="#fff"/>
<g clip-path="url(#a)">
<g transform="translate(1030.6 626.45) rotate(-60.764) scale(.08 -.08)">
<use xlink:href="#r"/>
</g>
</g>
<path d="m1095.6 623.83 2.7536 4.8604q1.183 2.0882 3.2712 0.90513l6.7365-3.8165q2.0882-1.183 0.90513-3.2712l-2.7536-4.8604q-1.183-2.0882-3.2712-0.90513l-6.7365 3.8165q-2.0882 1.183-0.90513 3.2712z" clip-path="url(#a)" fill="#fff" stroke="#fff"/>
<g clip-path="url(#a)">
<g transform="translate(1099.2 621.82) rotate(60.467) scale(.08 -.08)">
<use xlink:href="#o"/>
</g>
</g>
<path d="m1071.8 626.14 0.039964-5.8549q0.016382-2.3999-2.3836-2.4163l-7.7423-0.052847q-2.3999-0.016382-2.4163 2.3836l-0.039964 5.8549q-0.016381 2.3999 2.3836 2.4163l7.7423 0.052847q2.3999 0.016382 2.4163-2.3836z" clip-path="url(#a)" fill="#fff" stroke="#fff"/>
<g clip-path="url(#a)">
<g transform="translate(1067.7 626.11) rotate(-89.609) scale(.08 -.08)">
<use xlink:href="#u"/>
</g>
</g>
<path d="m1209.1 734.14v33.808q0 2.4 2.4 2.4h7.7425q2.4 0 2.4-2.4v-33.808q0-2.4-2.4-2.4h-7.7425q-2.4 0-2.4 2.4z" clip-path="url(#a)" fill="#fff" stroke="#fff"/>
<g clip-path="url(#a)">
<g transform="translate(1213.2 734.14) rotate(90) scale(.08 -.08)">
<use xlink:href="#i"/>
<use x="44.083984" xlink:href="#e"/>
<use x="105.607422" xlink:href="#f"/>
<use x="144.970703" xlink:href="#k"/>
<use x="242.382812" xlink:href="#j"/>
<use x="270.166016" xlink:href="#g"/>
<use x="333.544922" xlink:href="#d"/>
<use x="394.824219" xlink:href="#l"/>
</g>
</g>
<path d="m1331.9 768.64 18.436-28.339q1.3088-2.0118-0.70301-3.3205l-6.49-4.2221q-2.0118-1.3088-3.3205 0.70301l-18.436 28.339q-1.3088 2.0118 0.70301 3.3205l6.49 4.2221q2.0118 1.3088 3.3205-0.70301z" clip-path="url(#a)" fill="#fff" stroke="#fff"/>
<g clip-path="url(#a)">
<g transform="translate(1328.5 766.42) rotate(-56.954) scale(.08 -.08)">
<use xlink:href="#i"/>
<use x="44.083984" xlink:href="#e"/>
<use x="105.607422" xlink:href="#f"/>
<use x="144.970703" xlink:href="#k"/>
<use x="242.382812" xlink:href="#j"/>
<use x="270.166016" xlink:href="#g"/>
<use x="333.544922" xlink:href="#d"/>
<use x="394.824219" xlink:href="#l"/>
</g>
</g>
<path d="m1382.8 767.99 0.23397-33.807q0.016609-2.3999-2.3833-2.4166l-7.7423-0.053582q-2.3999-0.01661-2.4166 2.3833l-0.23397 33.807q-0.01661 2.3999 2.3833 2.4166l7.7423 0.053583q2.3999 0.016609 2.4166-2.3833z" clip-path="url(#a)" fill="#fff" stroke="#fff"/>
<g clip-path="url(#a)">
<g transform="translate(1378.8 767.97) rotate(-89.603) scale(.08 -.08)">
<use xlink:href="#i"/>
<use x="44.083984" xlink:href="#e"/>
<use x="105.607422" xlink:href="#f"/>
<use x="144.970703" xlink:href="#k"/>
<use x="242.382812" xlink:href="#j"/>
<use x="270.166016" xlink:href="#g"/>
<use x="333.544922" xlink:href="#d"/>
<use x="394.824219" xlink:href="#l"/>
</g>
</g>
<path d="m1404.3 740.37 18.573 28.249q1.3185 2.0054 3.3239 0.6869l6.4695-4.2535q2.0054-1.3185 0.6869-3.3239l-18.573-28.249q-1.3185-2.0054-3.3239-0.6869l-6.4695 4.2535q-2.0054 1.3185-0.6869 3.3239z" clip-path="url(#a)" fill="#fff" stroke="#fff"/>
<g clip-path="url(#a)">
<g transform="translate(1407.7 738.14) rotate(56.676) scale(.08 -.08)">
<use xlink:href="#i"/>
<use x="44.083984" xlink:href="#e"/>
<use x="105.607422" xlink:href="#f"/>
<use x="144.970703" xlink:href="#k"/>
<use x="242.382812" xlink:href="#j"/>
<use x="270.166016" xlink:href="#g"/>
<use x="333.544922" xlink:href="#d"/>
<use x="394.824219" xlink:href="#l"/>
</g>
</g>
<path d="m987.65 734.14v33.808q0 2.4 2.4 2.4h7.7425q2.4 0 2.4-2.4v-33.808q0-2.4-2.4-2.4h-7.7425q-2.4 0-2.4 2.4z" clip-path="url(#a)" fill="#fff" stroke="#fff"/>
<g clip-path="url(#a)">
<g transform="translate(991.71 734.14) rotate(90) scale(.08 -.08)">
<use xlink:href="#i"/>
<use x="44.083984" xlink:href="#e"/>
<use x="105.607422" xlink:href="#f"/>
<use x="144.970703" xlink:href="#k"/>
<use x="242.382812" xlink:href="#j"/>
<use x="270.166016" xlink:href="#g"/>
<use x="333.544922" xlink:href="#d"/>
<use x="394.824219" xlink:href="#l"/>
</g>
</g>
<path d="m1132.7 734.14v33.808q0 2.4 2.4 2.4h7.7425q2.4 0 2.4-2.4v-33.808q0-2.4-2.4-2.4h-7.7425q-2.4 0-2.4 2.4z" clip-path="url(#a)" fill="#fff" stroke="#fff"/>
<g clip-path="url(#a)">
<g transform="translate(1136.7 734.14) rotate(90) scale(.08 -.08)">
<use xlink:href="#i"/>
<use x="44.083984" xlink:href="#e"/>
<use x="105.607422" xlink:href="#f"/>
<use x="144.970703" xlink:href="#k"/>
<use x="242.382812" xlink:href="#j"/>
<use x="270.166016" xlink:href="#g"/>
<use x="333.544922" xlink:href="#d"/>
<use x="394.824219" xlink:href="#l"/>
</g>
</g>
<path d="m789.89 734.14v33.808q0 2.4 2.4 2.4h7.7425q2.4 0 2.4-2.4v-33.808q0-2.4-2.4-2.4h-7.7425q-2.4 0-2.4 2.4z" clip-path="url(#a)" fill="#fff" stroke="#fff"/>
<g clip-path="url(#a)">
<g transform="translate(793.96 734.14) rotate(90) scale(.08 -.08)">
<use xlink:href="#i"/>
<use x="44.083984" xlink:href="#e"/>
<use x="105.607422" xlink:href="#f"/>
<use x="144.970703" xlink:href="#k"/>
<use x="242.382812" xlink:href="#j"/>
<use x="270.166016" xlink:href="#g"/>
<use x="333.544922" xlink:href="#d"/>
<use x="394.824219" xlink:href="#l"/>
</g>
</g>
<path d="m919.09 734.14v33.808q0 2.4 2.4 2.4h7.7425q2.4 0 2.4-2.4v-33.808q0-2.4-2.4-2.4h-7.7425q-2.4 0-2.4 2.4z" clip-path="url(#a)" fill="#fff" stroke="#fff"/>
<g clip-path="url(#a)">
<g transform="translate(923.16 734.14) rotate(90) scale(.08 -.08)">
<use xlink:href="#i"/>
<use x="44.083984" xlink:href="#e"/>
<use x="105.607422" xlink:href="#f"/>
<use x="144.970703" xlink:href="#k"/>
<use x="242.382812" xlink:href="#j"/>
<use x="270.166016" xlink:href="#g"/>
<use x="333.544922" xlink:href="#d"/>
<use x="394.824219" xlink:href="#l"/>
</g>
</g>
<path d="m153.9 768.77 5.7637-33.313q0.40917-2.3649-1.9557-2.774l-7.6292-1.32q-2.3649-0.40917-2.774 1.9557l-5.7637 33.313q-0.40917 2.3649 1.9557 2.774l7.6292 1.32q2.3649 0.40917 2.774-1.9557z" clip-path="url(#a)" fill="#fff" stroke="#fff"/>
<g clip-path="url(#a)">
<g transform="translate(149.9 768.08) rotate(-80.184) scale(.08 -.08)">
<use xlink:href="#i"/>
<use x="44.083984" xlink:href="#e"/>
<use x="105.607422" xlink:href="#f"/>
<use x="144.970703" xlink:href="#k"/>
<use x="242.382812" xlink:href="#j"/>
<use x="270.166016" xlink:href="#g"/>
<use x="333.544922" xlink:href="#d"/>
<use x="394.824219" xlink:href="#l"/>
</g>
</g>
<path d="m167.3 767.99 0.23397-33.807q0.016609-2.3999-2.3833-2.4166l-7.7423-0.053582q-2.3999-0.01661-2.4166 2.3833l-0.23397 33.807q-0.01661 2.3999 2.3833 2.4166l7.7423 0.053583q2.3999 0.016609 2.4166-2.3833z" clip-path="url(#a)" fill="#fff" stroke="#fff"/>
<g clip-path="url(#a)">
<g transform="translate(163.24 767.97) rotate(-89.603) scale(.08 -.08)">
<use xlink:href="#i"/>
<use x="44.083984" xlink:href="#e"/>
<use x="105.607422" xlink:href="#f"/>
<use x="144.970703" xlink:href="#k"/>
<use x="242.382812" xlink:href="#j"/>
<use x="270.166016" xlink:href="#g"/>
<use x="333.544922" xlink:href="#d"/>
<use x="394.824219" xlink:href="#l"/>
</g>
</g>
<path d="m163.85 735.52 5.9872 33.273q0.42503 2.3621 2.7871 1.937l7.6201-1.3712q2.3621-0.42503 1.937-2.7871l-5.9872-33.273q-0.42503-2.3621-2.7871-1.937l-7.6201 1.3712q-2.3621 0.42503-1.937 2.7871z" clip-path="url(#a)" fill="#fff" stroke="#fff"/>
<g clip-path="url(#a)">
<g transform="translate(167.85 734.8) rotate(79.799) scale(.08 -.08)">
<use xlink:href="#i"/>
<use x="44.083984" xlink:href="#e"/>
<use x="105.607422" xlink:href="#f"/>
<use x="144.970703" xlink:href="#k"/>
<use x="242.382812" xlink:href="#j"/>
<use x="270.166016" xlink:href="#g"/>
<use x="333.544922" xlink:href="#d"/>
<use x="394.824219" xlink:href="#l"/>
</g>
</g>
<path d="m280.13 562.3 1.1996-4.4421q0.6257-2.317-1.6913-2.9427l-7.4747-2.0185q-2.317-0.6257-2.9427 1.6913l-1.1996 4.4421q-0.6257 2.317 1.6913 2.9427l7.4747 2.0185q2.317 0.6257 2.9427-1.6913z" clip-path="url(#a)" fill="#fff" stroke="#fff"/>
<g clip-path="url(#a)">
<g transform="translate(276.21 561.24) rotate(-74.888) scale(.08 -.08)">
<use xlink:href="#aq"/>
</g>
</g>
<path d="m314.29 496.73 0.11438-5.0537q0.054308-2.3994-2.3451-2.4537l-7.7405-0.1752q-2.3994-0.054308-2.4537 2.3451l-0.11439 5.0537q-0.054307 2.3994 2.3451 2.4537l7.7405 0.1752q2.3994 0.054308 2.4537-2.3451z" clip-path="url(#a)" fill="#fff" stroke="#fff"/>
<g clip-path="url(#a)">
<g transform="translate(310.22 496.64) rotate(-88.703) scale(.08 -.08)">
<use xlink:href="#r"/>
</g>
</g>
<path d="m339.07 557.46 1.5132 5.3774q0.6501 2.3103 2.9604 1.6602l7.453-2.0972q2.3103-0.6501 1.6602-2.9604l-1.5132-5.3774q-0.6501-2.3103-2.9604-1.6602l-7.453 2.0972q-2.3103 0.6501-1.6602 2.9604z" clip-path="url(#a)" fill="#fff" stroke="#fff"/>
<g clip-path="url(#a)">
<g transform="translate(342.99 556.36) rotate(74.284) scale(.08 -.08)">
<use xlink:href="#o"/>
</g>
</g>
<path d="m242.91 564.02 2.8125-4.6945q1.2334-2.0588-0.82538-3.2922l-6.6418-3.9791q-2.0588-1.2334-3.2922 0.82538l-2.8125 4.6945q-1.2334 2.0588 0.82538 3.2922l6.6418 3.9791q2.0588 1.2334 3.2922-0.82538z" clip-path="url(#a)" fill="#fff" stroke="#fff"/>
<g clip-path="url(#a)">
<g transform="translate(239.42 561.93) rotate(-59.074) scale(.08 -.08)">
<use xlink:href="#s"/>
</g>
</g>
<path d="m437.84 498.55 4.2948 2.1962q2.1368 1.0927 3.2295-1.0441l3.5251-6.8935q1.0927-2.1368-1.0441-3.2295l-4.2948-2.1962q-2.1368-1.0927-3.2295 1.0441l-3.5251 6.8935q-1.0927 2.1368 1.0441 3.2295z" clip-path="url(#a)" fill="#fff" stroke="#fff"/>
<g clip-path="url(#a)">
<g transform="translate(439.69 494.93) rotate(27.083) scale(.08 -.08)">
<use xlink:href="#z"/>
</g>
</g>
<path d="m387.5 497.12 4.197 3.5119q1.8406 1.5402 3.3808-0.30044l4.9687-5.9379q1.5402-1.8406-0.30044-3.3808l-4.197-3.5119q-1.8406-1.5402-3.3808 0.30044l-4.9687 5.9379q-1.5402 1.8406 0.30044 3.3808z" clip-path="url(#a)" fill="#fff" stroke="#fff"/>
<g clip-path="url(#a)">
<g transform="translate(390.11 494) rotate(39.922) scale(.08 -.08)">
<use xlink:href="#s"/>
</g>
</g>
<path d="m452.63 627.91 1.891-5.2272q0.81646-2.2569-1.4404-3.0733l-7.2807-2.6339q-2.2569-0.81646-3.0733 1.4404l-1.891 5.2272q-0.81646 2.2569 1.4404 3.0733l7.2807 2.6339q2.2569 0.81646 3.0733-1.4404z" clip-path="url(#a)" fill="#fff" stroke="#fff"/>
<g clip-path="url(#a)">
<g transform="translate(448.81 626.53) rotate(-70.112) scale(.08 -.08)">
<use xlink:href="#ad"/>
</g>
</g>
<path d="m487.41 622.67 1.9004 5.2531q0.81646 2.2569 3.0733 1.4404l7.2807-2.6339q2.2569-0.81646 1.4404-3.0733l-1.9004-5.2531q-0.81646-2.2569-3.0733-1.4404l-7.2807 2.6339q-2.2569 0.81646-1.4404 3.0733z" clip-path="url(#a)" fill="#fff" stroke="#fff"/>
<g clip-path="url(#a)">
<g transform="translate(491.23 621.29) rotate(70.112) scale(.08 -.08)">
<use xlink:href="#o"/>
</g>
</g>
<path d="m418.11 734.14v33.808q0 2.4 2.4 2.4h7.7425q2.4 0 2.4-2.4v-33.808q0-2.4-2.4-2.4h-7.7425q-2.4 0-2.4 2.4z" clip-path="url(#a)" fill="#fff" stroke="#fff"/>
<g clip-path="url(#a)">
<g transform="translate(422.18 734.14) rotate(90) scale(.08 -.08)">
<use xlink:href="#i"/>
<use x="44.083984" xlink:href="#e"/>
<use x="105.607422" xlink:href="#f"/>
<use x="144.970703" xlink:href="#k"/>
<use x="242.382812" xlink:href="#j"/>
<use x="270.166016" xlink:href="#g"/>
<use x="333.544922" xlink:href="#d"/>
<use x="394.824219" xlink:href="#l"/>
</g>
</g>
<path d="m493.23 769.08 12.027-31.596q0.85378-2.243-1.3892-3.0968l-7.236-2.7543q-2.243-0.85378-3.0968 1.3892l-12.027 31.596q-0.85378 2.243 1.3892 3.0968l7.236 2.7543q2.243 0.85378 3.0968-1.3892z" clip-path="url(#a)" fill="#fff" stroke="#fff"/>
<g clip-path="url(#a)">
<g transform="translate(489.43 767.63) rotate(-69.161) scale(.08 -.08)">
<use xlink:href="#i"/>
<use x="44.083984" xlink:href="#e"/>
<use x="105.607422" xlink:href="#f"/>
<use x="144.970703" xlink:href="#k"/>
<use x="242.382812" xlink:href="#j"/>
<use x="270.166016" xlink:href="#g"/>
<use x="333.544922" xlink:href="#d"/>
<use x="394.824219" xlink:href="#l"/>
</g>
</g>
<path d="m523.26 767.99 0.23397-33.807q0.016609-2.3999-2.3833-2.4166l-7.7423-0.053582q-2.3999-0.01661-2.4166 2.3833l-0.23397 33.807q-0.016609 2.3999 2.3833 2.4166l7.7423 0.053583q2.3999 0.016609 2.4166-2.3833z" clip-path="url(#a)" fill="#fff" stroke="#fff"/>
<g clip-path="url(#a)">
<g transform="translate(519.2 767.97) rotate(-89.603) scale(.08 -.08)">
<use xlink:href="#i"/>
<use x="44.083984" xlink:href="#e"/>
<use x="105.607422" xlink:href="#f"/>
<use x="144.970703" xlink:href="#k"/>
<use x="242.382812" xlink:href="#j"/>
<use x="270.166016" xlink:href="#g"/>
<use x="333.544922" xlink:href="#d"/>
<use x="394.824219" xlink:href="#l"/>
</g>
</g>
<path d="m530.2 737.55 12.217 31.523q0.86729 2.2378 3.1051 1.3705l7.2193-2.7979q2.2378-0.86729 1.3705-3.1051l-12.217-31.523q-0.86729-2.2378-3.1051-1.3705l-7.2193 2.7979q-2.2378 0.86729-1.3705 3.1051z" clip-path="url(#a)" fill="#fff" stroke="#fff"/>
<g clip-path="url(#a)">
<g transform="translate(533.99 736.08) rotate(68.816) scale(.08 -.08)">
<use xlink:href="#i"/>
<use x="44.083984" xlink:href="#e"/>
<use x="105.607422" xlink:href="#f"/>
<use x="144.970703" xlink:href="#k"/>
<use x="242.382812" xlink:href="#j"/>
<use x="270.166016" xlink:href="#g"/>
<use x="333.544922" xlink:href="#d"/>
<use x="394.824219" xlink:href="#l"/>
</g>
</g>
<path d="m233.54 734.14v33.808q0 2.4 2.4 2.4h7.7425q2.4 0 2.4-2.4v-33.808q0-2.4-2.4-2.4h-7.7425q-2.4 0-2.4 2.4z" clip-path="url(#a)" fill="#fff" stroke="#fff"/>
<g clip-path="url(#a)">
<g transform="translate(237.6 734.14) rotate(90) scale(.08 -.08)">
<use xlink:href="#i"/>
<use x="44.083984" xlink:href="#e"/>
<use x="105.607422" xlink:href="#f"/>
<use x="144.970703" xlink:href="#k"/>
<use x="242.382812" xlink:href="#j"/>
<use x="270.166016" xlink:href="#g"/>
<use x="333.544922" xlink:href="#d"/>
<use x="394.824219" xlink:href="#l"/>
</g>
</g>
<path d="m294.25 627.86 1.6587-6.0751q0.63214-2.3153-1.6831-2.9474l-7.4691-2.0393q-2.3153-0.63214-2.9474 1.6831l-1.6587 6.0751q-0.63214 2.3153 1.6831 2.9474l7.4691 2.0393q2.3153 0.63214 2.9474-1.6831z" clip-path="url(#a)" fill="#fff" stroke="#fff"/>
<g clip-path="url(#a)">
<defs>
<path id="av" d="m39.406 66.219q-10.75 0-17.078-8.0156-6.3125-8-6.3125-21.828 0-13.766 6.3125-21.781 6.3281-8 17.078-8 10.734 0 17.016 8 6.2812 8.0156 6.2812 21.781 0 13.828-6.2812 21.828-6.2812 8.0156-17.016 8.0156zm13.812-64.906 13-14.203h-11.922l-10.797 11.672q-1.6094-0.09375-2.4688-0.14062-0.84375-0.0625-1.625-0.0625-15.375 0-24.594 10.281-9.2031 10.281-9.2031 27.516 0 17.281 9.2031 27.562 9.2188 10.281 24.594 10.281 15.328 0 24.5-10.281 9.1875-10.281 9.1875-27.562 0-12.688-5.1094-21.734-5.0938-9.0312-14.766-13.328z"/>
</defs>
<g transform="translate(290.33 626.79) rotate(-74.729) scale(.08 -.08)">
<use xlink:href="#av"/>
</g>
</g>
<path d="m317.84 622.17 1.5055 5.3796q0.64681 2.3112 2.958 1.6644l7.456-2.0866q2.3112-0.64681 1.6644-2.958l-1.5055-5.3796q-0.64681-2.3112-2.958-1.6644l-7.456 2.0866q-2.3112 0.64681-1.6644 2.958z" clip-path="url(#a)" fill="#fff" stroke="#fff"/>
<g clip-path="url(#a)">
<g transform="translate(321.75 621.07) rotate(74.365) scale(.08 -.08)">
<use xlink:href="#o"/>
</g>
</g>
<path d="m312.42 626.14 0.039964-5.8549q0.016381-2.3999-2.3836-2.4163l-7.7423-0.052847q-2.3999-0.016382-2.4163 2.3836l-0.039964 5.8549q-0.016382 2.3999 2.3836 2.4163l7.7423 0.052847q2.3999 0.016382 2.4163-2.3836z" clip-path="url(#a)" fill="#fff" stroke="#fff"/>
<g clip-path="url(#a)">
<g transform="translate(308.36 626.11) rotate(-89.609) scale(.08 -.08)">
<use xlink:href="#u"/>
</g>
</g>
<path d="m375.92 734.14v33.808q0 2.4 2.4 2.4h7.7425q2.4 0 2.4-2.4v-33.808q0-2.4-2.4-2.4h-7.7425q-2.4 0-2.4 2.4z" clip-path="url(#a)" fill="#fff" stroke="#fff"/>
<g clip-path="url(#a)">
<g transform="translate(379.99 734.14) rotate(90) scale(.08 -.08)">
<use xlink:href="#i"/>
<use x="44.083984" xlink:href="#e"/>
<use x="105.607422" xlink:href="#f"/>
<use x="144.970703" xlink:href="#k"/>
<use x="242.382812" xlink:href="#j"/>
<use x="270.166016" xlink:href="#g"/>
<use x="333.544922" xlink:href="#d"/>
<use x="394.824219" xlink:href="#l"/>
</g>
</g>
<path d="m265.18 734.14v33.808q0 2.4 2.4 2.4h7.7425q2.4 0 2.4-2.4v-33.808q0-2.4-2.4-2.4h-7.7425q-2.4 0-2.4 2.4z" clip-path="url(#a)" fill="#fff" stroke="#fff"/>
<g clip-path="url(#a)">
<g transform="translate(269.25 734.14) rotate(90) scale(.08 -.08)">
<use xlink:href="#i"/>
<use x="44.083984" xlink:href="#e"/>
<use x="105.607422" xlink:href="#f"/>
<use x="144.970703" xlink:href="#k"/>
<use x="242.382812" xlink:href="#j"/>
<use x="270.166016" xlink:href="#g"/>
<use x="333.544922" xlink:href="#d"/>
<use x="394.824219" xlink:href="#l"/>
</g>
</g>
<path d="m336.37 734.14v33.808q0 2.4 2.4 2.4h7.7425q2.4 0 2.4-2.4v-33.808q0-2.4-2.4-2.4h-7.7425q-2.4 0-2.4 2.4z" clip-path="url(#a)" fill="#fff" stroke="#fff"/>
<g clip-path="url(#a)">
<g transform="translate(340.44 734.14) rotate(90) scale(.08 -.08)">
<use xlink:href="#i"/>
<use x="44.083984" xlink:href="#e"/>
<use x="105.607422" xlink:href="#f"/>
<use x="144.970703" xlink:href="#k"/>
<use x="242.382812" xlink:href="#j"/>
<use x="270.166016" xlink:href="#g"/>
<use x="333.544922" xlink:href="#d"/>
<use x="394.824219" xlink:href="#l"/>
</g>
</g>
<path d="m204.54 734.14v33.808q0 2.4 2.4 2.4h7.7425q2.4 0 2.4-2.4v-33.808q0-2.4-2.4-2.4h-7.7425q-2.4 0-2.4 2.4z" clip-path="url(#a)" fill="#fff" stroke="#fff"/>
<g clip-path="url(#a)">
<g transform="translate(208.6 734.14) rotate(90) scale(.08 -.08)">
<use xlink:href="#i"/>
<use x="44.083984" xlink:href="#e"/>
<use x="105.607422" xlink:href="#f"/>
<use x="144.970703" xlink:href="#k"/>
<use x="242.382812" xlink:href="#j"/>
<use x="270.166016" xlink:href="#g"/>
<use x="333.544922" xlink:href="#d"/>
<use x="394.824219" xlink:href="#l"/>
</g>
</g>
<path d="m67.426 734.14v33.808q0 2.4 2.4 2.4h7.7425q2.4 0 2.4-2.4v-33.808q0-2.4-2.4-2.4h-7.7425q-2.4 0-2.4 2.4z" clip-path="url(#a)" fill="#fff" stroke="#fff"/>
<g clip-path="url(#a)">
<g transform="translate(71.489 734.14) rotate(90) scale(.08 -.08)">
<use xlink:href="#i"/>
<use x="44.083984" xlink:href="#e"/>
<use x="105.607422" xlink:href="#f"/>
<use x="144.970703" xlink:href="#k"/>
<use x="242.382812" xlink:href="#j"/>
<use x="270.166016" xlink:href="#g"/>
<use x="333.544922" xlink:href="#d"/>
<use x="394.824219" xlink:href="#l"/>
</g>
</g>
<path d="m75.336 734.14v33.808q0 2.4 2.4 2.4h7.7425q2.4 0 2.4-2.4v-33.808q0-2.4-2.4-2.4h-7.7425q-2.4 0-2.4 2.4z" clip-path="url(#a)" fill="#fff" stroke="#fff"/>
<g clip-path="url(#a)">
<g transform="translate(79.4 734.14) rotate(90) scale(.08 -.08)">
<use xlink:href="#i"/>
<use x="44.083984" xlink:href="#e"/>
<use x="105.607422" xlink:href="#f"/>
<use x="144.970703" xlink:href="#k"/>
<use x="242.382812" xlink:href="#j"/>
<use x="270.166016" xlink:href="#g"/>
<use x="333.544922" xlink:href="#d"/>
<use x="394.824219" xlink:href="#l"/>
</g>
</g>
<path d="m85.883 734.14v33.808q0 2.4 2.4 2.4h7.7425q2.4 0 2.4-2.4v-33.808q0-2.4-2.4-2.4h-7.7425q-2.4 0-2.4 2.4z" clip-path="url(#a)" fill="#fff" stroke="#fff"/>
<g clip-path="url(#a)">
<g transform="translate(89.947 734.14) rotate(90) scale(.08 -.08)">
<use xlink:href="#i"/>
<use x="44.083984" xlink:href="#e"/>
<use x="105.607422" xlink:href="#f"/>
<use x="144.970703" xlink:href="#k"/>
<use x="242.382812" xlink:href="#j"/>
<use x="270.166016" xlink:href="#g"/>
<use x="333.544922" xlink:href="#d"/>
<use x="394.824219" xlink:href="#l"/>
</g>
</g>
<path d="m299.46 734.14v33.808q0 2.4 2.4 2.4h7.7425q2.4 0 2.4-2.4v-33.808q0-2.4-2.4-2.4h-7.7425q-2.4 0-2.4 2.4z" clip-path="url(#a)" fill="#fff" stroke="#fff"/>
<g clip-path="url(#a)">
<g transform="translate(303.52 734.14) rotate(90) scale(.08 -.08)">
<use xlink:href="#i"/>
<use x="44.083984" xlink:href="#e"/>
<use x="105.607422" xlink:href="#f"/>
<use x="144.970703" xlink:href="#k"/>
<use x="242.382812" xlink:href="#j"/>
<use x="270.166016" xlink:href="#g"/>
<use x="333.544922" xlink:href="#d"/>
<use x="394.824219" xlink:href="#l"/>
</g>
</g>
<path d="m615.87 734.14v33.808q0 2.4 2.4 2.4h7.7425q2.4 0 2.4-2.4v-33.808q0-2.4-2.4-2.4h-7.7425q-2.4 0-2.4 2.4z" clip-path="url(#a)" fill="#fff" stroke="#fff"/>
<g clip-path="url(#a)">
<g transform="translate(619.93 734.14) rotate(90) scale(.08 -.08)">
<use xlink:href="#i"/>
<use x="44.083984" xlink:href="#e"/>
<use x="105.607422" xlink:href="#f"/>
<use x="144.970703" xlink:href="#k"/>
<use x="242.382812" xlink:href="#j"/>
<use x="270.166016" xlink:href="#g"/>
<use x="333.544922" xlink:href="#d"/>
<use x="394.824219" xlink:href="#l"/>
</g>
</g>
<path d="m853.18 734.14v33.808q0 2.4 2.4 2.4h7.7425q2.4 0 2.4-2.4v-33.808q0-2.4-2.4-2.4h-7.7425q-2.4 0-2.4 2.4z" clip-path="url(#a)" fill="#fff" stroke="#fff"/>
<g clip-path="url(#a)">
<g transform="translate(857.24 734.14) rotate(90) scale(.08 -.08)">
<use xlink:href="#i"/>
<use x="44.083984" xlink:href="#e"/>
<use x="105.607422" xlink:href="#f"/>
<use x="144.970703" xlink:href="#k"/>
<use x="242.382812" xlink:href="#j"/>
<use x="270.166016" xlink:href="#g"/>
<use x="333.544922" xlink:href="#d"/>
<use x="394.824219" xlink:href="#l"/>
</g>
</g>
<path d="m1058.8 734.14v33.808q0 2.4 2.4 2.4h7.7425q2.4 0 2.4-2.4v-33.808q0-2.4-2.4-2.4h-7.7425q-2.4 0-2.4 2.4z" clip-path="url(#a)" fill="#fff" stroke="#fff"/>
<g clip-path="url(#a)">
<g transform="translate(1062.9 734.14) rotate(90) scale(.08 -.08)">
<use xlink:href="#i"/>
<use x="44.083984" xlink:href="#e"/>
<use x="105.607422" xlink:href="#f"/>
<use x="144.970703" xlink:href="#k"/>
<use x="242.382812" xlink:href="#j"/>
<use x="270.166016" xlink:href="#g"/>
<use x="333.544922" xlink:href="#d"/>
<use x="394.824219" xlink:href="#l"/>
</g>
</g>
<path d="m1541.4 734.14v33.808q0 2.4 2.4 2.4h7.7425q2.4 0 2.4-2.4v-33.808q0-2.4-2.4-2.4h-7.7425q-2.4 0-2.4 2.4z" clip-path="url(#a)" fill="#fff" stroke="#fff"/>
<g clip-path="url(#a)">
<g transform="translate(1545.4 734.14) rotate(90) scale(.08 -.08)">
<use xlink:href="#i"/>
<use x="44.083984" xlink:href="#e"/>
<use x="105.607422" xlink:href="#f"/>
<use x="144.970703" xlink:href="#k"/>
<use x="242.382812" xlink:href="#j"/>
<use x="270.166016" xlink:href="#g"/>
<use x="333.544922" xlink:href="#d"/>
<use x="394.824219" xlink:href="#l"/>
</g>
</g>
<defs>
<path id="b" d="m0 8.6603c2.2967 0 4.4997-0.9125 6.1237-2.5365 1.624-1.624 2.5365-3.827 2.5365-6.1237s-0.9125-4.4997-2.5365-6.1237c-1.624-1.624-3.827-2.5365-6.1237-2.5365s-4.4997 0.9125-6.1237 2.5365c-1.624 1.624-2.5365 3.827-2.5365 6.1237s0.9125 4.4997 2.5365 6.1237c1.624 1.624 3.827 2.5365 6.1237 2.5365z"/>
</defs>
<g clip-path="url(#a)" fill="#ffffff" stroke="#ffffff">
<use x="73.69697" y="814.545455" xlink:href="#b"/>
<use x="81.607199" y="814.545455" xlink:href="#b"/>
<use x="92.154171" y="814.545455" xlink:href="#b"/>
<use x="105.337887" y="814.545455" xlink:href="#b"/>
<use x="121.158346" y="814.545455" xlink:href="#b"/>
<use x="139.615547" y="814.545455" xlink:href="#b"/>
<use x="160.709492" y="814.545455" xlink:href="#b"/>
<use x="184.44018" y="814.545455" xlink:href="#b"/>
<use x="210.807611" y="814.545455" xlink:href="#b"/>
<use x="239.811785" y="814.545455" xlink:href="#b"/>
<use x="271.452702" y="814.545455" xlink:href="#b"/>
<use x="305.730363" y="814.545455" xlink:href="#b"/>
<use x="342.644766" y="814.545455" xlink:href="#b"/>
<use x="382.195913" y="814.545455" xlink:href="#b"/>
<use x="424.383802" y="814.545455" xlink:href="#b"/>
<use x="469.208435" y="814.545455" xlink:href="#b"/>
<use x="516.669811" y="814.545455" xlink:href="#b"/>
<use x="566.76793" y="814.545455" xlink:href="#b"/>
<use x="622.139535" y="814.545455" xlink:href="#b"/>
<use x="677.51114" y="814.545455" xlink:href="#b"/>
<use x="735.519488" y="814.545455" xlink:href="#b"/>
<use x="796.16458" y="814.545455" xlink:href="#b"/>
<use x="859.446414" y="814.545455" xlink:href="#b"/>
<use x="925.364992" y="814.545455" xlink:href="#b"/>
<use x="993.920312" y="814.545455" xlink:href="#b"/>
<use x="1065.112376" y="814.545455" xlink:href="#b"/>
<use x="1138.941183" y="814.545455" xlink:href="#b"/>
<use x="1215.406733" y="814.545455" xlink:href="#b"/>
<use x="1294.509026" y="814.545455" xlink:href="#b"/>
<use x="1376.248062" y="814.545455" xlink:href="#b"/>
<use x="1460.623841" y="814.545455" xlink:href="#b"/>
<use x="1547.636364" y="814.545455" xlink:href="#b"/>
<use x="569.404673" y="558.784904" xlink:href="#b"/>
<use x="377.939107" y="38.787879" xlink:href="#b"/>
<use x="377.939107" y="169.258379" xlink:href="#b"/>
<use x="82.486113" y="558.784904" xlink:href="#b"/>
<use x="105.337887" y="687.548513" xlink:href="#b"/>
<use x="121.158346" y="687.548513" xlink:href="#b"/>
<use x="249.553086" y="299.466443" xlink:href="#b"/>
<use x="1086.959676" y="429.345941" xlink:href="#b"/>
<use x="677.51114" y="687.548513" xlink:href="#b"/>
<use x="735.519488" y="687.548513" xlink:href="#b"/>
<use x="989.52574" y="558.784904" xlink:href="#b"/>
<use x="1065.99129" y="558.784904" xlink:href="#b"/>
<use x="1215.406733" y="687.548513" xlink:href="#b"/>
<use x="1377.126976" y="687.548513" xlink:href="#b"/>
<use x="993.920312" y="687.548513" xlink:href="#b"/>
<use x="1138.941183" y="687.548513" xlink:href="#b"/>
<use x="796.16458" y="687.548513" xlink:href="#b"/>
<use x="925.364992" y="687.548513" xlink:href="#b"/>
<use x="161.588406" y="687.548513" xlink:href="#b"/>
<use x="309.538992" y="429.345941" xlink:href="#b"/>
<use x="316.277335" y="429.345941" xlink:href="#b"/>
<use x="470.966264" y="558.784904" xlink:href="#b"/>
<use x="424.383802" y="687.548513" xlink:href="#b"/>
<use x="517.548725" y="687.548513" xlink:href="#b"/>
<use x="239.811785" y="687.548513" xlink:href="#b"/>
<use x="306.609277" y="558.784904" xlink:href="#b"/>
<use x="382.195913" y="687.548513" xlink:href="#b"/>
<use x="271.452702" y="687.548513" xlink:href="#b"/>
<use x="342.644766" y="687.548513" xlink:href="#b"/>
<use x="210.807611" y="687.548513" xlink:href="#b"/>
<use x="73.69697" y="687.548513" xlink:href="#b"/>
<use x="81.607199" y="687.548513" xlink:href="#b"/>
<use x="92.154171" y="687.548513" xlink:href="#b"/>
<use x="305.730363" y="687.548513" xlink:href="#b"/>
<use x="622.139535" y="687.548513" xlink:href="#b"/>
<use x="859.446414" y="687.548513" xlink:href="#b"/>
<use x="1065.112376" y="687.548513" xlink:href="#b"/>
<use x="1547.636364" y="687.548513" xlink:href="#b"/>
</g>
<g clip-path="url(#a)">
<defs>
<path id="aa" d="m9.8125 72.906h9.8594v-72.906h-9.8594z"/>
</defs>
<g transform="translate(69.053 817.3) scale(.1 -.1)">
<use xlink:href="#aa"/>
<use x="29.492188" xlink:href="#g"/>
</g>
</g>
<g clip-path="url(#a)">
<defs>
<path id="ao" d="m9.8125 72.906h13.281l32.328-60.984v60.984h9.5625v-72.906h-13.281l-32.312 60.984v-60.984h-9.5781z"/>
<path id="t" d="m30.609 48.391q-7.2188 0-11.422-5.6406t-4.2031-15.453 4.1719-15.453q4.1875-5.6406 11.453-5.6406 7.1875 0 11.375 5.6562 4.2031 5.6719 4.2031 15.438 0 9.7188-4.2031 15.406-4.1875 5.6875-11.375 5.6875zm0 7.6094q11.719 0 18.406-7.625 6.7031-7.6094 6.7031-21.078 0-13.422-6.7031-21.078-6.6875-7.6406-18.406-7.6406-11.766 0-18.438 7.6406-6.6562 7.6562-6.6562 21.078 0 13.469 6.6562 21.078 6.6719 7.625 18.438 7.625z"/>
<path id="as" d="m2.9844 54.688h9.5156l17.094-45.891 17.094 45.891h9.5156l-20.516-54.688h-12.203z"/>
<path id="am" d="m48.688 27.297q0 9.9062-4.0781 15.547t-11.203 5.6406q-7.1406 0-11.219-5.6406t-4.0781-15.547 4.0781-15.547 11.219-5.6406q7.125 0 11.203 5.6406t4.0781 15.547zm-30.578 19.094q2.8438 4.875 7.1562 7.2344 4.3281 2.375 10.328 2.375 9.9688 0 16.188-7.9062 6.2344-7.9062 6.2344-20.797t-6.2344-20.812q-6.2188-7.9062-16.188-7.9062-6 0-10.328 2.375-4.3125 2.375-7.1562 7.25v-8.2031h-9.0312v75.984h9.0312z"/>
</defs>
<g transform="translate(55.595 817.3) scale(.1 -.1)">
<use xlink:href="#ao"/>
<use x="74.804688" xlink:href="#t"/>
<use x="135.986328" xlink:href="#as"/>
<use x="195.166016" xlink:href="#e"/>
<use x="256.689453" xlink:href="#k"/>
<use x="354.101562" xlink:href="#am"/>
<use x="417.578125" xlink:href="#e"/>
<use x="479.101562" xlink:href="#f"/>
</g>
</g>
<g clip-path="url(#a)">
<defs>
<path id="n" d="m19.188 8.2969h34.422v-8.2969h-46.281v8.2969q5.6094 5.8125 15.297 15.594 9.7031 9.7969 12.188 12.641 4.7344 5.3125 6.6094 9 1.8906 3.6875 1.8906 7.25 0 5.8125-4.0781 9.4688-4.0781 3.6719-10.625 3.6719-4.6406 0-9.7969-1.6094-5.1406-1.6094-11-4.8906v9.9688q5.9531 2.3906 11.125 3.6094 5.1875 1.2188 9.4844 1.2188 11.328 0 18.062-5.6719 6.7344-5.6562 6.7344-15.125 0-4.5-1.6875-8.5312-1.6719-4.0156-6.125-9.4844-1.2188-1.4219-7.7656-8.1875-6.5312-6.7656-18.453-18.922z"/>
<path id="v" d="m31.781 66.406q-7.6094 0-11.453-7.5-3.8281-7.4844-3.8281-22.531 0-14.984 3.8281-22.484 3.8438-7.5 11.453-7.5 7.6719 0 11.5 7.5 3.8438 7.5 3.8438 22.484 0 15.047-3.8438 22.531-3.8281 7.5-11.5 7.5zm0 7.8125q12.266 0 18.734-9.7031 6.4688-9.6875 6.4688-28.141 0-18.406-6.4688-28.109-6.4688-9.6875-18.734-9.6875-12.25 0-18.719 9.6875-6.4688 9.7031-6.4688 28.109 0 18.453 6.4688 28.141 6.4688 9.7031 18.719 9.7031z"/>
<path id="x" d="m8.2031 72.906h46.875v-4.2031l-26.469-68.703h-10.297l24.906 64.594h-35.016z"/>
</defs>
<g transform="translate(79.429 817.3) scale(.1 -.1)">
<use xlink:href="#n"/>
<use x="63.623047" xlink:href="#v"/>
<use x="127.246094" xlink:href="#v"/>
<use x="190.869141" xlink:href="#x"/>
</g>
</g>
<g clip-path="url(#a)">
<defs>
<path id="w" d="m54.891 33.016v-33.016h-8.9844v32.719q0 7.7656-3.0312 11.609-3.0312 3.8594-9.0781 3.8594-7.2812 0-11.484-4.6406-4.2031-4.625-4.2031-12.641v-30.906h-9.0312v75.984h9.0312v-29.797q3.2344 4.9375 7.5938 7.375 4.375 2.4375 10.094 2.4375 9.4219 0 14.25-5.8281 4.8438-5.8281 4.8438-17.156z"/>
</defs>
<g transform="translate(99.093 817.3) scale(.1 -.1)">
<use xlink:href="#w"/>
<use x="63.378906" xlink:href="#e"/>
</g>
</g>
<g clip-path="url(#a)">
<defs>
<path id="ac" d="m45.406 46.391v29.594h8.9844v-75.984h-8.9844v8.2031q-2.8281-4.875-7.1562-7.25-4.3125-2.375-10.375-2.375-9.9062 0-16.141 7.9062-6.2188 7.9219-6.2188 20.812t6.2188 20.797q6.2344 7.9062 16.141 7.9062 6.0625 0 10.375-2.375 4.3281-2.3594 7.1562-7.2344zm-30.609-19.094q0-9.9062 4.0781-15.547t11.203-5.6406 11.219 5.6406q4.1094 5.6406 4.1094 15.547t-4.1094 15.547q-4.0938 5.6406-11.219 5.6406t-11.203-5.6406-4.0781-15.547z"/>
<path id="y" d="m48.781 52.594v-8.4062q-3.8125 2.1094-7.6406 3.1562t-7.7344 1.0469q-8.75 0-13.594-5.5469-4.8281-5.5312-4.8281-15.547t4.8281-15.562q4.8438-5.5312 13.594-5.5312 3.9062 0 7.7344 1.0469t7.6406 3.1562v-8.3125q-3.7656-1.75-7.7969-2.625-4.0156-0.89062-8.5625-0.89062-12.359 0-19.641 7.7656-7.2656 7.7656-7.2656 20.953 0 13.375 7.3438 21.031 7.3594 7.6719 20.156 7.6719 4.1406 0 8.0938-0.85938 3.9531-0.84375 7.6719-2.5469z"/>
<path id="q" d="m18.312 70.219v-15.531h18.5v-6.9844h-18.5v-29.688q0-6.6875 1.8281-8.5938t7.4531-1.9062h9.2188v-7.5156h-9.2188q-10.406 0-14.359 3.875-3.9531 3.8906-3.9531 14.141v29.688h-6.5938v6.9844h6.5938v15.531z"/>
</defs>
<g transform="translate(100.62 817.3) scale(.1 -.1)">
<use xlink:href="#ac"/>
<use x="63.476562" xlink:href="#j"/>
<use x="91.259766" xlink:href="#f"/>
<use x="130.123047" xlink:href="#e"/>
<use x="191.646484" xlink:href="#y"/>
<use x="246.626953" xlink:href="#q"/>
<use x="285.835938" xlink:href="#e"/>
<use x="347.359375" xlink:href="#ac"/>
</g>
</g>
<g clip-path="url(#a)">
<defs>
<path id="bd" d="m45.406 27.984q0 9.7656-4.0312 15.125-4.0156 5.375-11.297 5.375-7.2188 0-11.25-5.375-4.0312-5.3594-4.0312-15.125 0-9.7188 4.0312-15.094t11.25-5.375q7.2812 0 11.297 5.375 4.0312 5.375 4.0312 15.094zm8.9844-21.203q0-13.953-6.2031-20.766-6.1875-6.8125-18.984-6.8125-4.7344 0-8.9375 0.70312t-8.1562 2.1719v8.7344q3.9531-2.1406 7.8125-3.1562 3.8594-1.0312 7.8594-1.0312 8.8438 0 13.234 4.6094t4.3906 13.938v4.4531q-2.7812-4.8438-7.125-7.2344t-10.406-2.3906q-10.047 0-16.203 7.6562-6.1562 7.6719-6.1562 20.328 0 12.688 6.1562 20.344 6.1562 7.6719 16.203 7.6719 6.0625 0 10.406-2.3906t7.125-7.2188v8.2969h8.9844z"/>
<path id="at" d="m44.281 53.078v-8.5q-3.7969 1.9531-7.9062 2.9219-4.0938 0.98438-8.5 0.98438-6.6875 0-10.031-2.0469t-3.3438-6.1562q0-3.125 2.3906-4.9062t9.625-3.3906l3.0781-0.6875q9.5625-2.0469 13.594-5.7812t4.0312-10.422q0-7.625-6.0312-12.078-6.0312-4.4375-16.578-4.4375-4.3906 0-9.1562 0.85938t-10.031 2.5625v9.2812q4.9844-2.5938 9.8125-3.8906 4.8281-1.2812 9.5781-1.2812 6.3438 0 9.75 2.1719 3.4219 2.1719 3.4219 6.125 0 3.6562-2.4688 5.6094-2.4531 1.9531-10.812 3.7656l-3.125 0.73438q-8.3438 1.75-12.062 5.3906-3.7031 3.6406-3.7031 9.9844 0 7.7188 5.4688 11.906 5.4688 4.2031 15.531 4.2031 4.9688 0 9.3594-0.73438 4.4062-0.71875 8.1094-2.1875z"/>
</defs>
<g transform="translate(123.06 817.3) scale(.1 -.1)">
<use xlink:href="#i"/>
<use x="61.083984" xlink:href="#w"/>
<use x="124.462891" xlink:href="#j"/>
<use x="152.246094" xlink:href="#g"/>
<use x="215.625" xlink:href="#bd"/>
<use x="279.101562" xlink:href="#at"/>
</g>
</g>
<g clip-path="url(#a)">
<defs>
<path id="an" d="m3.3281 72.906h9.9531l15.328-61.625 15.281 61.625h11.094l15.328-61.625 15.281 61.625h10.016l-18.312-72.906h-12.406l-15.375 63.281-15.531-63.281h-12.406z"/>
</defs>
<g transform="translate(152.98 817.3) scale(.1 -.1)">
<use xlink:href="#an"/>
<use x="93.001953" xlink:href="#e"/>
</g>
</g>
<g clip-path="url(#a)">
<g transform="translate(171.62 817.3) scale(.1 -.1)">
<use xlink:href="#an"/>
<use x="92.501953" xlink:href="#d"/>
<use x="153.78125" xlink:href="#g"/>
<use x="217.160156" xlink:href="#q"/>
</g>
</g>
<g clip-path="url(#a)">
<defs>
<path id="ar" d="m11.719 12.406h10.297v-8.4062l-8-15.625h-6.2969l4 15.625z"/>
</defs>
<g transform="translate(209.22 817.3) scale(.1 -.1)">
<use xlink:href="#ar"/>
</g>
</g>
<g clip-path="url(#a)">
<g transform="translate(236.75 817.3) scale(.1 -.1)">
<use xlink:href="#d"/>
</g>
</g>
<g clip-path="url(#a)">
<defs>
<path id="aj" d="m4.2031 54.688h8.9844l11.234-42.672 11.172 42.672h10.594l11.234-42.672 11.188 42.672h8.9844l-14.312-54.688h-10.594l-11.766 44.828-11.812-44.828h-10.609z"/>
</defs>
<g transform="translate(262.34 817.3) scale(.1 -.1)">
<use xlink:href="#q"/>
<use x="39.208984" xlink:href="#aj"/>
<use x="120.996094" xlink:href="#t"/>
</g>
</g>
<g clip-path="url(#a)">
<defs>
<path id="ai" d="m4.8906 31.391h26.312v-8h-26.312z"/>
</defs>
<g transform="translate(303.93 817.3) scale(.1 -.1)">
<use xlink:href="#ai"/>
</g>
</g>
<g clip-path="url(#a)">
<g transform="translate(334.87 817.3) scale(.1 -.1)">
<use xlink:href="#d"/>
<use x="61.279297" xlink:href="#y"/>
<use x="116.259766" xlink:href="#q"/>
</g>
</g>
<g clip-path="url(#a)">
<defs>
<path id="ak" d="m18.109 8.2031v-29h-9.0312v75.484h9.0312v-8.2969q2.8438 4.875 7.1562 7.2344 4.3281 2.375 10.328 2.375 9.9688 0 16.188-7.9062 6.2344-7.9062 6.2344-20.797t-6.2344-20.812q-6.2188-7.9062-16.188-7.9062-6 0-10.328 2.375-4.3125 2.375-7.1562 7.25zm30.578 19.094q0 9.9062-4.0781 15.547t-11.203 5.6406q-7.1406 0-11.219-5.6406t-4.0781-15.547 4.0781-15.547 11.219-5.6406q7.125 0 11.203 5.6406t4.0781 15.547z"/>
<path id="ab" d="m32.172-5.0781q-3.7969-9.7656-7.4219-12.734-3.6094-2.9844-9.6562-2.9844h-7.1875v7.5156h5.2812q3.7031 0 5.75 1.7656 2.0625 1.75 4.5469 8.2969l1.6094 4.0938-22.109 53.812h9.5156l17.094-42.766 17.094 42.766h9.5156z"/>
</defs>
<g transform="translate(371.61 817.3) scale(.1 -.1)">
<use xlink:href="#ak"/>
<use x="63.476562" xlink:href="#l"/>
<use x="91.259766" xlink:href="#d"/>
<use x="152.539062" xlink:href="#ab"/>
</g>
</g>
<g clip-path="url(#a)">
<g transform="translate(418.25 817.3) scale(.1 -.1)">
<use xlink:href="#am"/>
<use x="63.476562" xlink:href="#ab"/>
</g>
</g>
<g clip-path="url(#a)">
<defs>
<path id="ay" d="m9.8125 72.906h9.8594v-67.828q0-13.188-5-19.141t-16.094-5.9531h-3.75v8.2969h3.0781q6.5312 0 9.2188 3.6719 2.6875 3.6562 2.6875 13.125z"/>
</defs>
<g transform="translate(447.08 817.3) scale(.1 -.1)">
<use xlink:href="#ay"/>
<use x="29.492188" xlink:href="#t"/>
<use x="90.673828" xlink:href="#g"/>
<use x="154.052734" xlink:href="#d"/>
<use x="215.332031" xlink:href="#q"/>
<use x="254.541016" xlink:href="#w"/>
<use x="317.919922" xlink:href="#d"/>
<use x="379.199219" xlink:href="#g"/>
</g>
</g>
<g clip-path="url(#a)">
<defs>
<path id="ap" d="m9.8125 72.906h14.703l18.594-49.609 18.703 49.609h14.703v-72.906h-9.625v64.016l-18.797-50h-9.9062l-18.797 50v-64.016h-9.5781z"/>
</defs>
<g transform="translate(504.6 817.3) scale(.1 -.1)">
<use xlink:href="#ap"/>
<use x="86.279297" xlink:href="#d"/>
<use x="147.558594" xlink:href="#f"/>
<use x="186.421875" xlink:href="#y"/>
</g>
</g>
<g clip-path="url(#a)">
<defs>
<path id="au" d="m53.516 70.516v-9.625q-5.6094 2.6875-10.594 4-4.9844 1.3281-9.625 1.3281-8.0469 0-12.422-3.125t-4.375-8.8906q0-4.8438 2.9062-7.3125 2.9062-2.4531 11.016-3.9688l5.9531-1.2188q11.031-2.1094 16.281-7.4062t5.25-14.172q0-10.609-7.1094-16.078-7.0938-5.4688-20.812-5.4688-5.1719 0-11.016 1.1719-5.8281 1.1719-12.078 3.4688v10.156q6-3.3594 11.766-5.0781 5.7656-1.7031 11.328-1.7031 8.4375 0 13.031 3.3125 4.5938 3.3281 4.5938 9.4844 0 5.3594-3.2969 8.3906t-10.812 4.5469l-6.0156 1.1719q-11.031 2.1875-15.969 6.875-4.9219 4.6875-4.9219 13.047 0 9.6719 6.8125 15.234t18.766 5.5625q5.1406 0 10.453-0.9375 5.3281-0.92188 10.891-2.7656z"/>
</defs>
<g transform="translate(544.28 817.3) scale(.1 -.1)">
<use xlink:href="#au"/>
<use x="63.476562" xlink:href="#w"/>
<use x="126.855469" xlink:href="#e"/>
<use x="188.378906" xlink:href="#f"/>
<use x="227.742188" xlink:href="#k"/>
<use x="325.154297" xlink:href="#d"/>
<use x="386.433594" xlink:href="#g"/>
</g>
</g>
<g clip-path="url(#a)">
<g transform="translate(620.55 817.3) scale(.1 -.1)">
<use xlink:href="#ar"/>
</g>
</g>
<g clip-path="url(#a)">
<defs>
<path id="al" d="m37.109 75.984v-7.4844h-8.5938q-4.8281 0-6.7188-1.9531-1.875-1.9531-1.875-7.0312v-4.8281h14.797v-6.9844h-14.797v-47.703h-9.0312v47.703h-8.5938v6.9844h8.5938v3.8125q0 9.125 4.25 13.297 4.25 4.1875 13.469 4.1875z"/>
</defs>
<g transform="translate(670.64 817.3) scale(.1 -.1)">
<use xlink:href="#al"/>
<use x="35.205078" xlink:href="#t"/>
<use x="96.386719" xlink:href="#f"/>
</g>
</g>
<g clip-path="url(#a)">
<g transform="translate(727.31 817.3) scale(.1 -.1)">
<use xlink:href="#q"/>
<use x="39.208984" xlink:href="#w"/>
<use x="102.587891" xlink:href="#e"/>
</g>
</g>
<g clip-path="url(#a)">
<g transform="translate(783.13 817.3) scale(.1 -.1)">
<use xlink:href="#d"/>
<use x="61.279297" xlink:href="#f"/>
<use x="102.392578" xlink:href="#q"/>
<use x="141.601562" xlink:href="#j"/>
<use x="169.384766" xlink:href="#at"/>
<use x="221.484375" xlink:href="#q"/>
</g>
</g>
<g clip-path="url(#a)">
<g transform="translate(857.64 817.3) scale(.1 -.1)">
<use xlink:href="#ai"/>
</g>
</g>
<g clip-path="url(#a)">
<g transform="translate(909.54 817.3) scale(.1 -.1)">
<use xlink:href="#ac"/>
<use x="63.476562" xlink:href="#f"/>
<use x="104.589844" xlink:href="#j"/>
<use x="132.373047" xlink:href="#as"/>
<use x="191.552734" xlink:href="#e"/>
<use x="253.076172" xlink:href="#g"/>
</g>
</g>
<g clip-path="url(#a)">
<defs>
<path id="aw" d="m39.406 66.219q-10.75 0-17.078-8.0156-6.3125-8-6.3125-21.828 0-13.766 6.3125-21.781 6.3281-8 17.078-8 10.734 0 17.016 8 6.2812 8.0156 6.2812 21.781 0 13.828-6.2812 21.828-6.2812 8.0156-17.016 8.0156zm0 8q15.328 0 24.5-10.281 9.1875-10.281 9.1875-27.562 0-17.234-9.1875-27.516-9.1719-10.281-24.5-10.281-15.375 0-24.594 10.25-9.2031 10.266-9.2031 27.547t9.2031 27.562q9.2188 10.281 24.594 10.281z"/>
</defs>
<g transform="translate(986.46 817.3) scale(.1 -.1)">
<use xlink:href="#aw"/>
<use x="78.710938" xlink:href="#al"/>
<use x="113.916016" xlink:href="#al"/>
</g>
</g>
<g clip-path="url(#a)">
<g transform="translate(1063.3 817.3) scale(.1 -.1)">
<use xlink:href="#ai"/>
</g>
</g>
<g clip-path="url(#a)">
<defs>
<path id="bb" d="m19.672 34.812v-26.703h15.828q7.9531 0 11.781 3.2969 3.8438 3.2969 3.8438 10.078 0 6.8438-3.8438 10.078-3.8281 3.25-11.781 3.25zm0 29.984v-21.969h14.609q7.2188 0 10.75 2.7031 3.5469 2.7188 3.5469 8.2812 0 5.5156-3.5469 8.25-3.5312 2.7344-10.75 2.7344zm-9.8594 8.1094h25.203q11.281 0 17.375-4.6875 6.1094-4.6875 6.1094-13.328 0-6.7031-3.125-10.656t-9.1875-4.9219q7.2812-1.5625 11.312-6.5312 4.0312-4.9531 4.0312-12.375 0-9.7656-6.6406-15.094-6.6406-5.3125-18.906-5.3125h-26.172z"/>
</defs>
<g transform="translate(1114.2 817.3) scale(.1 -.1)">
<use xlink:href="#bb"/>
<use x="68.603516" xlink:href="#f"/>
<use x="107.466797" xlink:href="#t"/>
<use x="168.648438" xlink:href="#d"/>
<use x="229.927734" xlink:href="#ac"/>
<use x="293.404297" xlink:href="#aj"/>
<use x="375.191406" xlink:href="#d"/>
<use x="436.470703" xlink:href="#ab"/>
</g>
</g>
<g clip-path="url(#a)">
<g transform="translate(1192.4 817.3) scale(.1 -.1)">
<use xlink:href="#y"/>
<use x="54.980469" xlink:href="#t"/>
<use x="116.162109" xlink:href="#k"/>
<use x="213.574219" xlink:href="#ak"/>
<use x="277.050781" xlink:href="#d"/>
<use x="338.330078" xlink:href="#g"/>
<use x="401.708984" xlink:href="#ab"/>
</g>
</g>
<g clip-path="url(#a)">
<g transform="translate(1285.2 817.3) scale(.1 -.1)">
<use xlink:href="#i"/>
<use x="61.083984" xlink:href="#w"/>
<use x="124.462891" xlink:href="#e"/>
</g>
</g>
<g clip-path="url(#a)">
<g transform="translate(1365.3 817.3) scale(.1 -.1)">
<use xlink:href="#ao"/>
<use x="74.804688" xlink:href="#e"/>
<use x="136.328125" xlink:href="#aj"/>
</g>
</g>
<g clip-path="url(#a)">
<defs>
<path id="ba" d="m59.516 10.406v19.578h-16.109v8.1094h25.875v-31.312q-5.7031-4.0469-12.594-6.125-6.875-2.0781-14.688-2.0781-17.094 0-26.75 9.9844-9.6406 10-9.6406 27.812 0 17.875 9.6406 27.859 9.6562 9.9844 26.75 9.9844 7.125 0 13.547-1.7656 6.4219-1.75 11.844-5.1719v-10.5q-5.4688 4.6406-11.625 6.9844t-12.938 2.3438q-13.391 0-20.109-7.4688-6.7031-7.4688-6.7031-22.266 0-14.75 6.7031-22.219 6.7188-7.4688 20.109-7.4688 5.2188 0 9.3125 0.90625 4.1094 0.90625 7.375 2.8125z"/>
<path id="bc" d="m8.5 21.578v33.109h8.9844v-32.766q0-7.7656 3.0156-11.656 3.0312-3.875 9.0938-3.875 7.2656 0 11.484 4.6406 4.2344 4.6406 4.2344 12.656v31h8.9844v-54.688h-8.9844v8.4062q-3.2656-4.9844-7.5938-7.4062-4.3125-2.4219-10.031-2.4219-9.4219 0-14.312 5.8594-4.875 5.8594-4.875 17.141z"/>
</defs>
<g transform="translate(1445.4 817.3) scale(.1 -.1)">
<use xlink:href="#ba"/>
<use x="77.490234" xlink:href="#f"/>
<use x="116.353516" xlink:href="#t"/>
<use x="177.535156" xlink:href="#bc"/>
<use x="240.914062" xlink:href="#ak"/>
</g>
</g>
<g clip-path="url(#a)">
<defs>
<path id="h" d="m10.688 12.406h10.312v-12.406h-10.312z"/>
</defs>
<g transform="translate(1546 817.3) scale(.1 -.1)">
<use xlink:href="#h"/>
</g>
</g>
<g clip-path="url(#a)">
<defs>
<path id="ax" d="m9.8125 72.906h9.8594v-64.609h35.5v-8.2969h-45.359z"/>
</defs>
<g transform="translate(548.32 561.54) scale(.1 -.1)">
<use xlink:href="#aa"/>
<use x="29.492188" xlink:href="#ap"/>
<use x="115.771484" xlink:href="#z"/>
<use x="176.074219" xlink:href="#ax"/>
<use x="231.787109" xlink:href="#aa"/>
<use x="261.279297" xlink:href="#o"/>
<use x="331.103516" xlink:href="#aa"/>
<use x="360.595703" xlink:href="#i"/>
</g>
</g>
<g clip-path="url(#a)">
<defs>
<path id="c" d="m12.406 8.2969h16.109v55.625l-17.531-3.5156v8.9844l17.438 3.5156h9.8594v-64.609h16.109v-8.2969h-41.984z"/>
</defs>
<g transform="translate(369.99 41.547) scale(.1 -.1)">
<use xlink:href="#c"/>
<use x="63.623047" xlink:href="#h"/>
<use x="95.410156" xlink:href="#c"/>
</g>
</g>
<g clip-path="url(#a)">
<g transform="translate(369.99 172.02) scale(.1 -.1)">
<use xlink:href="#c"/>
<use x="63.623047" xlink:href="#h"/>
<use x="95.410156" xlink:href="#n"/>
</g>
</g>
<g clip-path="url(#a)">
<defs>
<path id="p" d="m37.797 64.312-24.906-38.922h24.906zm-2.5938 8.5938h12.406v-47.516h10.406v-8.2031h-10.406v-17.188h-9.8125v17.188h-32.906v9.5156z"/>
</defs>
<g transform="translate(74.535 561.54) scale(.1 -.1)">
<use xlink:href="#c"/>
<use x="63.623047" xlink:href="#h"/>
<use x="95.410156" xlink:href="#p"/>
</g>
</g>
<g clip-path="url(#a)">
<defs>
<path id="ah" d="m10.797 72.906h38.719v-8.3125h-29.688v-17.859q2.1406 0.73438 4.2812 1.0938 2.1562 0.35938 4.3125 0.35938 12.203 0 19.328-6.6875 7.1406-6.6875 7.1406-18.109 0-11.766-7.3281-18.297-7.3281-6.5156-20.656-6.5156-4.5938 0-9.3594 0.78125-4.75 0.78125-9.8281 2.3438v9.9219q4.3906-2.3906 9.0781-3.5625t9.9062-1.1719q8.4531 0 13.375 4.4375 4.9375 4.4375 4.9375 12.062 0 7.6094-4.9375 12.047-4.9219 4.4531-13.375 4.4531-3.9531 0-7.8906-0.875-3.9219-0.875-8.0156-2.7344z"/>
</defs>
<g transform="translate(97.386 690.31) scale(.1 -.1)">
<use xlink:href="#c"/>
<use x="63.623047" xlink:href="#h"/>
<use x="95.410156" xlink:href="#ah"/>
</g>
</g>
<g clip-path="url(#a)">
<defs>
<path id="ag" d="m33.016 40.375q-6.6406 0-10.531-4.5469-3.875-4.5312-3.875-12.438 0-7.8594 3.875-12.438 3.8906-4.5625 10.531-4.5625t10.516 4.5625q3.875 4.5781 3.875 12.438 0 7.9062-3.875 12.438-3.875 4.5469-10.516 4.5469zm19.578 30.922v-8.9844q-3.7188 1.75-7.5 2.6719-3.7812 0.9375-7.5 0.9375-9.7656 0-14.922-6.5938-5.1406-6.5938-5.875-19.922 2.875 4.25 7.2188 6.5156 4.3594 2.2656 9.5781 2.2656 10.984 0 17.359-6.6719 6.375-6.6562 6.375-18.125 0-11.234-6.6406-18.031-6.6406-6.7812-17.672-6.7812-12.656 0-19.344 9.6875-6.6875 9.7031-6.6875 28.109 0 17.281 8.2031 27.562t22.016 10.281q3.7188 0 7.5-0.73438t7.8906-2.1875z"/>
</defs>
<g transform="translate(113.21 690.31) scale(.1 -.1)">
<use xlink:href="#c"/>
<use x="63.623047" xlink:href="#h"/>
<use x="95.410156" xlink:href="#ag"/>
</g>
</g>
<g clip-path="url(#a)">
<g transform="translate(241.6 302.23) scale(.1 -.1)">
<use xlink:href="#c"/>
<use x="63.623047" xlink:href="#h"/>
<use x="95.410156" xlink:href="#x"/>
</g>
</g>
<g clip-path="url(#a)">
<defs>
<path id="af" d="m31.781 34.625q-7.0312 0-11.062-3.7656-4.0156-3.7656-4.0156-10.344 0-6.5938 4.0156-10.359 4.0312-3.7656 11.062-3.7656t11.078 3.7812q4.0625 3.7969 4.0625 10.344 0 6.5781-4.0312 10.344-4.0156 3.7656-11.109 3.7656zm-9.8594 4.1875q-6.3438 1.5625-9.8906 5.9062-3.5312 4.3594-3.5312 10.609 0 8.7344 6.2188 13.812 6.2344 5.0781 17.062 5.0781 10.891 0 17.094-5.0781t6.2031-13.812q0-6.25-3.5469-10.609-3.5312-4.3438-9.8281-5.9062 7.125-1.6562 11.094-6.5 3.9844-4.8281 3.9844-11.797 0-10.609-6.4688-16.281-6.4688-5.6562-18.531-5.6562-12.047 0-18.531 5.6562-6.4688 5.6719-6.4688 16.281 0 6.9688 4 11.797 4.0156 4.8438 11.141 6.5zm-3.6094 15.578q0-5.6562 3.5312-8.8281 3.5469-3.1719 9.9375-3.1719 6.3594 0 9.9375 3.1719 3.5938 3.1719 3.5938 8.8281 0 5.6719-3.5938 8.8438-3.5781 3.1719-9.9375 3.1719-6.3906 0-9.9375-3.1719-3.5312-3.1719-3.5312-8.8438z"/>
</defs>
<g transform="translate(1079 432.11) scale(.1 -.1)">
<use xlink:href="#c"/>
<use x="63.623047" xlink:href="#h"/>
<use x="95.410156" xlink:href="#af"/>
</g>
</g>
<g clip-path="url(#a)">
<g transform="translate(666.38 690.31) scale(.1 -.1)">
<use xlink:href="#c"/>
<use x="63.623047" xlink:href="#h"/>
<use x="95.410156" xlink:href="#c"/>
<use x="159.033203" xlink:href="#v"/>
</g>
</g>
<g clip-path="url(#a)">
<g transform="translate(724.39 690.31) scale(.1 -.1)">
<use xlink:href="#c"/>
<use x="63.623047" xlink:href="#h"/>
<use x="95.410156" xlink:href="#c"/>
<use x="159.033203" xlink:href="#c"/>
</g>
</g>
<g clip-path="url(#a)">
<g transform="translate(978.39 561.54) scale(.1 -.1)">
<use xlink:href="#c"/>
<use x="63.623047" xlink:href="#h"/>
<use x="95.410156" xlink:href="#c"/>
<use x="159.033203" xlink:href="#n"/>
</g>
</g>
<g clip-path="url(#a)">
<defs>
<path id="m" d="m40.578 39.312q7.0781-1.5156 11.047-6.3125 3.9844-4.7812 3.9844-11.812 0-10.781-7.4219-16.703-7.4219-5.9062-21.094-5.9062-4.5781 0-9.4375 0.90625t-10.031 2.7188v9.5156q4.0938-2.3906 8.9688-3.6094 4.8906-1.2188 10.219-1.2188 9.2656 0 14.125 3.6562t4.8594 10.641q0 6.4531-4.5156 10.078-4.5156 3.6406-12.562 3.6406h-8.5v8.1094h8.8906q7.2656 0 11.125 2.9062t3.8594 8.375q0 5.6094-3.9844 8.6094-3.9688 3.0156-11.391 3.0156-4.0625 0-8.7031-0.89062-4.6406-0.875-10.203-2.7188v8.7812q5.625 1.5625 10.531 2.3438t9.25 0.78125q11.234 0 17.766-5.1094 6.5469-5.0938 6.5469-13.781 0-6.0625-3.4688-10.234t-9.8594-5.7812z"/>
</defs>
<g transform="translate(1054.9 561.54) scale(.1 -.1)">
<use xlink:href="#c"/>
<use x="63.623047" xlink:href="#h"/>
<use x="95.410156" xlink:href="#c"/>
<use x="159.033203" xlink:href="#m"/>
</g>
</g>
<g clip-path="url(#a)">
<g transform="translate(1204.3 690.31) scale(.1 -.1)">
<use xlink:href="#c"/>
<use x="63.623047" xlink:href="#h"/>
<use x="95.410156" xlink:href="#c"/>
<use x="159.033203" xlink:href="#p"/>
</g>
</g>
<g clip-path="url(#a)">
<g transform="translate(1366 690.31) scale(.1 -.1)">
<use xlink:href="#c"/>
<use x="63.623047" xlink:href="#h"/>
<use x="95.410156" xlink:href="#c"/>
<use x="159.033203" xlink:href="#ah"/>
</g>
</g>
<g clip-path="url(#a)">
<g transform="translate(982.79 690.31) scale(.1 -.1)">
<use xlink:href="#c"/>
<use x="63.623047" xlink:href="#h"/>
<use x="95.410156" xlink:href="#c"/>
<use x="159.033203" xlink:href="#ag"/>
</g>
</g>
<g clip-path="url(#a)">
<g transform="translate(1127.8 690.31) scale(.1 -.1)">
<use xlink:href="#c"/>
<use x="63.623047" xlink:href="#h"/>
<use x="95.410156" xlink:href="#c"/>
<use x="159.033203" xlink:href="#x"/>
</g>
</g>
<g clip-path="url(#a)">
<defs>
<path id="ae" d="m10.984 1.5156v8.9844q3.7188-1.7656 7.5156-2.6875 3.8125-0.92188 7.4844-0.92188 9.7656 0 14.906 6.5625 5.1562 6.5625 5.8906 19.953-2.8281-4.2031-7.1875-6.4531-4.3438-2.25-9.6094-2.25-10.938 0-17.312 6.6094-6.375 6.625-6.375 18.109 0 11.219 6.6406 18 6.6406 6.7969 17.672 6.7969 12.656 0 19.312-9.7031 6.6719-9.6875 6.6719-28.141 0-17.234-8.1875-27.516-8.1719-10.281-21.984-10.281-3.7188 0-7.5312 0.73438-3.7969 0.73438-7.9062 2.2031zm19.625 30.906q6.6406 0 10.516 4.5312 3.8906 4.5469 3.8906 12.469 0 7.8594-3.8906 12.422-3.875 4.5625-10.516 4.5625t-10.516-4.5625-3.875-12.422q0-7.9219 3.875-12.469 3.875-4.5312 10.516-4.5312z"/>
</defs>
<g transform="translate(785.03 690.31) scale(.1 -.1)">
<use xlink:href="#c"/>
<use x="63.623047" xlink:href="#h"/>
<use x="95.410156" xlink:href="#c"/>
<use x="159.033203" xlink:href="#ae"/>
</g>
</g>
<g clip-path="url(#a)">
<g transform="translate(914.23 690.31) scale(.1 -.1)">
<use xlink:href="#c"/>
<use x="63.623047" xlink:href="#h"/>
<use x="95.410156" xlink:href="#n"/>
<use x="159.033203" xlink:href="#v"/>
</g>
</g>
<g clip-path="url(#a)">
<g transform="translate(150.46 690.31) scale(.1 -.1)">
<use xlink:href="#c"/>
<use x="63.623047" xlink:href="#h"/>
<use x="95.410156" xlink:href="#n"/>
<use x="159.033203" xlink:href="#n"/>
</g>
</g>
<g clip-path="url(#a)">
<g transform="translate(298.41 432.11) scale(.1 -.1)">
<use xlink:href="#c"/>
<use x="63.623047" xlink:href="#h"/>
<use x="95.410156" xlink:href="#n"/>
<use x="159.033203" xlink:href="#m"/>
</g>
</g>
<g clip-path="url(#a)">
<g transform="translate(305.14 432.11) scale(.1 -.1)">
<use xlink:href="#c"/>
<use x="63.623047" xlink:href="#h"/>
<use x="95.410156" xlink:href="#n"/>
<use x="159.033203" xlink:href="#p"/>
</g>
</g>
<g clip-path="url(#a)">
<g transform="translate(459.83 561.54) scale(.1 -.1)">
<use xlink:href="#c"/>
<use x="63.623047" xlink:href="#h"/>
<use x="95.410156" xlink:href="#n"/>
<use x="159.033203" xlink:href="#x"/>
</g>
</g>
<g clip-path="url(#a)">
<g transform="translate(413.25 690.31) scale(.1 -.1)">
<use xlink:href="#c"/>
<use x="63.623047" xlink:href="#h"/>
<use x="95.410156" xlink:href="#n"/>
<use x="159.033203" xlink:href="#af"/>
</g>
</g>
<g clip-path="url(#a)">
<g transform="translate(506.42 690.31) scale(.1 -.1)">
<use xlink:href="#c"/>
<use x="63.623047" xlink:href="#h"/>
<use x="95.410156" xlink:href="#n"/>
<use x="159.033203" xlink:href="#ae"/>
</g>
</g>
<g clip-path="url(#a)">
<g transform="translate(228.68 690.31) scale(.1 -.1)">
<use xlink:href="#c"/>
<use x="63.623047" xlink:href="#h"/>
<use x="95.410156" xlink:href="#m"/>
<use x="159.033203" xlink:href="#v"/>
</g>
</g>
<g clip-path="url(#a)">
<g transform="translate(295.48 561.54) scale(.1 -.1)">
<use xlink:href="#c"/>
<use x="63.623047" xlink:href="#h"/>
<use x="95.410156" xlink:href="#m"/>
<use x="159.033203" xlink:href="#c"/>
</g>
</g>
<g clip-path="url(#a)">
<g transform="translate(371.06 690.31) scale(.1 -.1)">
<use xlink:href="#c"/>
<use x="63.623047" xlink:href="#h"/>
<use x="95.410156" xlink:href="#m"/>
<use x="159.033203" xlink:href="#n"/>
</g>
</g>
<g clip-path="url(#a)">
<g transform="translate(260.32 690.31) scale(.1 -.1)">
<use xlink:href="#c"/>
<use x="63.623047" xlink:href="#h"/>
<use x="95.410156" xlink:href="#m"/>
<use x="159.033203" xlink:href="#m"/>
</g>
</g>
<g clip-path="url(#a)">
<g transform="translate(331.51 690.31) scale(.1 -.1)">
<use xlink:href="#c"/>
<use x="63.623047" xlink:href="#h"/>
<use x="95.410156" xlink:href="#m"/>
<use x="159.033203" xlink:href="#p"/>
</g>
</g>
<g clip-path="url(#a)">
<g transform="translate(199.67 690.31) scale(.1 -.1)">
<use xlink:href="#c"/>
<use x="63.623047" xlink:href="#h"/>
<use x="95.410156" xlink:href="#m"/>
<use x="159.033203" xlink:href="#ah"/>
</g>
</g>
<g clip-path="url(#a)">
<g transform="translate(62.564 690.31) scale(.1 -.1)">
<use xlink:href="#c"/>
<use x="63.623047" xlink:href="#h"/>
<use x="95.410156" xlink:href="#m"/>
<use x="159.033203" xlink:href="#ag"/>
</g>
</g>
<g clip-path="url(#a)">
<g transform="translate(70.474 690.31) scale(.1 -.1)">
<use xlink:href="#c"/>
<use x="63.623047" xlink:href="#h"/>
<use x="95.410156" xlink:href="#m"/>
<use x="159.033203" xlink:href="#x"/>
</g>
</g>
<g clip-path="url(#a)">
<g transform="translate(81.021 690.31) scale(.1 -.1)">
<use xlink:href="#c"/>
<use x="63.623047" xlink:href="#h"/>
<use x="95.410156" xlink:href="#m"/>
<use x="159.033203" xlink:href="#af"/>
</g>
</g>
<g clip-path="url(#a)">
<g transform="translate(294.6 690.31) scale(.1 -.1)">
<use xlink:href="#c"/>
<use x="63.623047" xlink:href="#h"/>
<use x="95.410156" xlink:href="#m"/>
<use x="159.033203" xlink:href="#ae"/>
</g>
</g>
<g clip-path="url(#a)">
<g transform="translate(611.01 690.31) scale(.1 -.1)">
<use xlink:href="#c"/>
<use x="63.623047" xlink:href="#h"/>
<use x="95.410156" xlink:href="#p"/>
<use x="159.033203" xlink:href="#v"/>
</g>
</g>
<g clip-path="url(#a)">
<g transform="translate(848.31 690.31) scale(.1 -.1)">
<use xlink:href="#c"/>
<use x="63.623047" xlink:href="#h"/>
<use x="95.410156" xlink:href="#p"/>
<use x="159.033203" xlink:href="#c"/>
</g>
</g>
<g clip-path="url(#a)">
<g transform="translate(1054 690.31) scale(.1 -.1)">
<use xlink:href="#c"/>
<use x="63.623047" xlink:href="#h"/>
<use x="95.410156" xlink:href="#p"/>
<use x="159.033203" xlink:href="#n"/>
</g>
</g>
<g clip-path="url(#a)">
<g transform="translate(1536.5 690.31) scale(.1 -.1)">
<use xlink:href="#c"/>
<use x="63.623047" xlink:href="#h"/>
<use x="95.410156" xlink:href="#p"/>
<use x="159.033203" xlink:href="#m"/>
</g>
</g>
<defs>
<clipPath id="a">
<rect width="1621.3" height="853.33"/>
</clipPath>
</defs>
</svg>
