<?xml version="1.0" encoding="UTF-8"?>
<!DOCTYPE svg  PUBLIC '-//W3C//DTD SVG 1.1//EN'  'http://www.w3.org/Graphics/SVG/1.1/DTD/svg11.dtd'>
<svg width="1317.3pt" height="693.33pt" version="1.1" viewBox="0 0 1317.3 693.33" xmlns="http://www.w3.org/2000/svg" xmlns:xlink="http://www.w3.org/1999/xlink">
<defs>
<style type="text/css">*{stroke-linecap:butt;stroke-linejoin:round;}</style>
</defs>
<path d="m0 693.33h1317.3v-693.33h-1317.3z" fill="#fff"/>
<g fill="none" stroke="#000">
<path d="m587.05 31.515v127.18" clip-path="url(#a)"/>
<path d="m587.05 158.7-509.61 253.3" clip-path="url(#a)"/>
<path d="m587.05 158.7-279.58 126.86" clip-path="url(#a)"/>
<path d="m587.05 158.7 133.89 379.07" clip-path="url(#a)"/>
<path d="m587.05 158.7 236.08 253.3" clip-path="url(#a)"/>
<path d="m587.05 158.7 344.66 379.07" clip-path="url(#a)"/>
<path d="m587.05 158.7 544.26 253.3" clip-path="url(#a)"/>
<path d="m587.05 158.7-469.69 379.07" clip-path="url(#a)"/>
<path d="m77.443 412-17.564 125.77" clip-path="url(#a)"/>
<path d="m77.443 412-7.9838 125.77" clip-path="url(#a)"/>
<path d="m77.443 412 4.7903 125.77" clip-path="url(#a)"/>
<path d="m77.443 412 20.758 125.77" clip-path="url(#a)"/>
<path d="m307.48 285.56-154.99 126.43" clip-path="url(#a)"/>
<path d="m307.48 285.56-113.47 252.21" clip-path="url(#a)"/>
<path d="m307.48 285.56 6.6865 126.43" clip-path="url(#a)"/>
<path d="m307.48 285.56 261.77 126.43" clip-path="url(#a)"/>
<path d="m720.94 537.77v124.05" clip-path="url(#a)"/>
<path d="m823.13 412-35.129 125.77" clip-path="url(#a)"/>
<path d="m823.13 412 35.129 125.77" clip-path="url(#a)"/>
<path d="m931.71 537.77v124.05" clip-path="url(#a)"/>
<path d="m1131.3 412-122.95 125.77" clip-path="url(#a)"/>
<path d="m1131.3 412-43.113 125.77" clip-path="url(#a)"/>
<path d="m1131.3 412 39.919 125.77" clip-path="url(#a)"/>
<path d="m1131.3 412 126.14 125.77" clip-path="url(#a)"/>
<path d="m1008.4 537.77v124.05" clip-path="url(#a)"/>
<path d="m1088.2 537.77v124.05" clip-path="url(#a)"/>
<path d="m1171.2 537.77v124.05" clip-path="url(#a)"/>
<path d="m788 537.77v124.05" clip-path="url(#a)"/>
<path d="m858.26 537.77v124.05" clip-path="url(#a)"/>
<path d="m152.49 412-12.774 125.77" clip-path="url(#a)"/>
<path d="m152.49 412 12.774 125.77" clip-path="url(#a)"/>
<path d="m194.01 537.77v124.05" clip-path="url(#a)"/>
<path d="m314.16 412-88.221 125.77" clip-path="url(#a)"/>
<path d="m314.16 412-33.931 125.77" clip-path="url(#a)"/>
<path d="m314.16 412 26.746 125.77" clip-path="url(#a)"/>
<path d="m314.16 412 95.407 125.77" clip-path="url(#a)"/>
<path d="m569.25 412-84.629 125.77" clip-path="url(#a)"/>
<path d="m569.25 412-30.339 125.77" clip-path="url(#a)"/>
<path d="m569.25 412 27.145 125.77" clip-path="url(#a)"/>
<path d="m569.25 412 87.822 125.77" clip-path="url(#a)"/>
<path d="m484.62 537.77v124.05" clip-path="url(#a)"/>
<path d="m538.91 537.77v124.05" clip-path="url(#a)"/>
<path d="m596.39 537.77v124.05" clip-path="url(#a)"/>
<path d="m657.07 537.77v124.05" clip-path="url(#a)"/>
<path d="m225.94 537.77v124.05" clip-path="url(#a)"/>
<path d="m280.23 537.77-19.161 124.05" clip-path="url(#a)"/>
<path d="m280.23 537.77 19.161 124.05" clip-path="url(#a)"/>
<path d="m340.91 537.77v124.05" clip-path="url(#a)"/>
<path d="m409.57 537.77-23.952 124.05" clip-path="url(#a)"/>
<path d="m409.57 537.77 23.952 124.05" clip-path="url(#a)"/>
<path d="m139.72 537.77v124.05" clip-path="url(#a)"/>
<path d="m165.27 537.77v124.05" clip-path="url(#a)"/>
<path d="m59.879 537.77v124.05" clip-path="url(#a)"/>
<path d="m69.459 537.77v124.05" clip-path="url(#a)"/>
<path d="m82.234 537.77v124.05" clip-path="url(#a)"/>
<path d="m98.201 537.77v124.05" clip-path="url(#a)"/>
<path d="m117.36 537.77v124.05" clip-path="url(#a)"/>
<path d="m1257.5 537.77v124.05" clip-path="url(#a)"/>
</g>
<path d="m580.78 92.099v6.0162q0 2.4 2.4 2.4h7.7425q2.4 0 2.4-2.4v-6.0162q0-2.4-2.4-2.4h-7.7425q-2.4 0-2.4 2.4z" clip-path="url(#a)" fill="#fff" stroke="#fff"/>
<g clip-path="url(#a)">
<defs>
<path id="ah" d="m9.8125 72.906h9.8594v-29.891h35.844v29.891h9.8594v-72.906h-9.8594v34.719h-35.844v-34.719h-9.8594z"/>
</defs>
<g transform="translate(584.85 92.099) rotate(90) scale(.08 -.08)">
<use xlink:href="#ah"/>
</g>
</g>
<path d="m332.85 292.05 4.3756-2.1748q2.1492-1.0682 1.0809-3.2174l-3.4461-6.9333q-1.0682-2.1492-3.2174-1.0809l-4.3756 2.1748q-2.1492 1.0682-1.0809 3.2174l3.4461 6.9333q1.0682 2.1492 3.2174 1.0809z" clip-path="url(#a)" fill="#fff" stroke="#fff"/>
<g clip-path="url(#a)">
<defs>
<path id="k" d="m-0.29688 72.906h61.672v-8.3125h-25.875v-64.594h-9.9062v64.594h-25.891z"/>
</defs>
<g transform="translate(331.04 288.41) rotate(-26.429) scale(.08 -.08)">
<use xlink:href="#k"/>
</g>
</g>
<path d="m447.37 228.97 4.9834-2.2613q2.1855-0.99172 1.1938-3.1772l-3.1993-7.0506q-0.99172-2.1855-3.1772-1.1938l-4.9834 2.2613q-2.1855 0.99172-1.1938 3.1772l3.1993 7.0506q0.99172 2.1855 3.1772 1.1938z" clip-path="url(#a)" fill="#fff" stroke="#fff"/>
<g clip-path="url(#a)">
<defs>
<path id="u" d="m34.188 63.188-13.391-36.281h26.812zm-5.5781 9.7188h11.188l27.781-72.906h-10.25l-6.6406 18.703h-32.859l-6.6406-18.703h-10.406z"/>
</defs>
<g transform="translate(445.69 225.27) rotate(-24.407) scale(.08 -.08)">
<use xlink:href="#u"/>
</g>
</g>
<path d="m647.06 347.42 2.0515 5.8084q0.79928 2.263 3.0623 1.4637l7.3005-2.5785q2.263-0.79928 1.4637-3.0623l-2.0515-5.8084q-0.79928-2.263-3.0623-1.4637l-7.3005 2.5785q-2.263 0.79928-1.4637 3.0623z" clip-path="url(#a)" fill="#fff" stroke="#fff"/>
<g clip-path="url(#a)">
<defs>
<path id="ai" d="m19.672 64.797v-56.688h11.922q15.094 0 22.094 6.8281 7 6.8438 7 21.594 0 14.641-7 21.453t-22.094 6.8125zm-9.8594 8.1094h20.266q21.188 0 31.094-8.8125 9.9219-8.8125 9.9219-27.562 0-18.859-9.9688-27.703-9.9531-8.8281-31.047-8.8281h-20.266z"/>
</defs>
<g transform="translate(650.89 346.07) rotate(70.547) scale(.08 -.08)">
<use xlink:href="#ai"/>
</g>
</g>
<path d="m698.64 287.62 3.7312 4.0033q1.6363 1.7557 3.392 0.11934l5.6639-5.2789q1.7557-1.6363 0.11934-3.392l-3.7312-4.0033q-1.6363-1.7557-3.392-0.11934l-5.6639 5.2789q-1.7557 1.6363-0.11934 3.392z" clip-path="url(#a)" fill="#fff" stroke="#fff"/>
<g clip-path="url(#a)">
<g transform="translate(701.61 284.85) rotate(47.015) scale(.08 -.08)">
<use xlink:href="#u"/>
</g>
</g>
<path d="m753.04 350.57 3.4166 3.7577q1.6145 1.7757 3.3903 0.1612l5.7286-5.2086q1.7757-1.6145 0.1612-3.3903l-3.4166-3.7577q-1.6145-1.7757-3.3903-0.1612l-5.7286 5.2086q-1.7757 1.6145-0.1612 3.3903z" clip-path="url(#a)" fill="#fff" stroke="#fff"/>
<g clip-path="url(#a)">
<defs>
<path id="ao" d="m53.516 70.516v-9.625q-5.6094 2.6875-10.594 4-4.9844 1.3281-9.625 1.3281-8.0469 0-12.422-3.125t-4.375-8.8906q0-4.8438 2.9062-7.3125 2.9062-2.4531 11.016-3.9688l5.9531-1.2188q11.031-2.1094 16.281-7.4062t5.25-14.172q0-10.609-7.1094-16.078-7.0938-5.4688-20.812-5.4688-5.1719 0-11.016 1.1719-5.8281 1.1719-12.078 3.4688v10.156q6-3.3594 11.766-5.0781 5.7656-1.7031 11.328-1.7031 8.4375 0 13.031 3.3125 4.5938 3.3281 4.5938 9.4844 0 5.3594-3.2969 8.3906t-10.812 4.5469l-6.0156 1.1719q-11.031 2.1875-15.969 6.875-4.9219 4.6875-4.9219 13.047 0 9.6719 6.8125 15.234t18.766 5.5625q5.1406 0 10.453-0.9375 5.3281-0.92188 10.891-2.7656z"/>
</defs>
<g transform="translate(756.04 347.84) rotate(47.722) scale(.08 -.08)">
<use xlink:href="#ao"/>
</g>
</g>
<path d="m854.06 289.88 4.9615 2.3091q2.1759 1.0127 3.1886-1.1632l3.2669-7.0195q1.0127-2.1759-1.1632-3.1886l-4.9615-2.3091q-2.1759-1.0127-3.1886 1.1632l-3.2669 7.0195q-1.0127 2.1759 1.1632 3.1886z" clip-path="url(#a)" fill="#fff" stroke="#fff"/>
<g clip-path="url(#a)">
<g transform="translate(855.77 286.19) rotate(24.957) scale(.08 -.08)">
<use xlink:href="#u"/>
</g>
</g>
<path d="m353.87 354.95 4.5562-3.6772q1.8676-1.5073 0.36034-3.3749l-4.8626-6.0251q-1.5073-1.8676-3.3749-0.36034l-4.5562 3.6772q-1.8676 1.5073-0.36034 3.3749l4.8626 6.0251q1.5073 1.8676 3.3749 0.36034z" clip-path="url(#a)" fill="#fff" stroke="#fff"/>
<g clip-path="url(#a)">
<defs>
<path id="ag" d="m8.6875 72.906h9.9219v-44.297q0-11.719 4.2344-16.875 4.25-5.1406 13.781-5.1406 9.4688 0 13.719 5.1406 4.25 5.1562 4.25 16.875v44.297h9.9062v-45.516q0-14.25-7.0625-21.531-7.0469-7.2812-20.812-7.2812-13.828 0-20.891 7.2812-7.0469 7.2812-7.0469 21.531z"/>
</defs>
<g transform="translate(351.32 351.79) rotate(-38.906) scale(.08 -.08)">
<use xlink:href="#ag"/>
</g>
</g>
<path d="m74.488 478.5 0.76883-5.5053q0.33194-2.3769-2.045-2.7089l-7.6681-1.0709q-2.3769-0.33194-2.7089 2.045l-0.76882 5.5053q-0.33194 2.3769 2.045 2.7089l7.6681 1.0709q2.3769 0.33194 2.7089-2.045z" clip-path="url(#a)" fill="#fff" stroke="#fff"/>
<g clip-path="url(#a)">
<defs>
<path id="t" d="m44.391 34.188q3.1719-1.0781 6.1719-4.5938t6.0312-9.6719l10.016-19.922h-10.609l-9.3125 18.703q-3.625 7.3281-7.0156 9.7188t-9.25 2.3906h-10.75v-30.812h-9.8594v72.906h22.266q12.5 0 18.656-5.2344 6.1562-5.2188 6.1562-15.766 0-6.8906-3.2031-11.438-3.2031-4.5312-9.2969-6.2812zm-24.719 30.609v-25.875h12.406q7.125 0 10.766 3.2969t3.6406 9.6875-3.6406 9.6406-10.766 3.25z"/>
</defs>
<g transform="translate(70.463 477.94) rotate(-82.05) scale(.08 -.08)">
<use xlink:href="#t"/>
</g>
</g>
<path d="m79.55 477.8 0.32024-5.0448q0.15204-2.3952-2.2431-2.5472l-7.7269-0.49049q-2.3952-0.15204-2.5472 2.2431l-0.32024 5.0448q-0.15204 2.3952 2.2431 2.5472l7.7269 0.49049q2.3952 0.15204 2.5472-2.2431z" clip-path="url(#a)" fill="#fff" stroke="#fff"/>
<g clip-path="url(#a)">
<defs>
<path id="q" d="m9.8125 72.906h46.094v-8.3125h-36.234v-21.578h34.719v-8.2969h-34.719v-26.422h37.109v-8.2969h-46.969z"/>
</defs>
<g transform="translate(75.494 477.55) rotate(-86.368) scale(.08 -.08)">
<use xlink:href="#q"/>
</g>
</g>
<path d="m73.475 472.6 0.19239 5.0513q0.091342 2.3983 2.4896 2.3069l7.7369-0.29467q2.3983-0.091342 2.3069-2.4896l-0.19239-5.0513q-0.091342-2.3983-2.4896-2.3069l-7.7369 0.29467q-2.3983 0.091342-2.3069 2.4896z" clip-path="url(#a)" fill="#fff" stroke="#fff"/>
<g clip-path="url(#a)">
<g transform="translate(77.536 472.44) rotate(87.819) scale(.08 -.08)">
<use xlink:href="#q"/>
</g>
</g>
<path d="m81.18 473.15 0.90966 5.5117q0.39082 2.368 2.7588 1.9772l7.6392-1.2608q2.368-0.39082 1.9772-2.7588l-0.90966-5.5117q-0.39082-2.368-2.7588-1.9772l-7.6392 1.2608q-2.368 0.39082-1.9772 2.7588z" clip-path="url(#a)" fill="#fff" stroke="#fff"/>
<g clip-path="url(#a)">
<defs>
<path id="r" d="m64.406 67.281v-10.391q-4.9844 4.6406-10.625 6.9219-5.6406 2.2969-11.984 2.2969-12.5 0-19.141-7.6406t-6.6406-22.094q0-14.406 6.6406-22.047t19.141-7.6406q6.3438 0 11.984 2.2969t10.625 6.9375v-10.312q-5.1719-3.5156-10.969-5.2812-5.7812-1.75-12.219-1.75-16.562 0-26.094 10.125-9.5156 10.141-9.5156 27.672 0 17.578 9.5156 27.703 9.5312 10.141 26.094 10.141 6.5312 0 12.312-1.7344 5.7969-1.7344 10.875-5.2031z"/>
</defs>
<g transform="translate(85.189 472.49) rotate(80.628) scale(.08 -.08)">
<use xlink:href="#r"/>
</g>
</g>
<path d="m231.56 355.59 4.7732-3.8938q1.8597-1.5171 0.34261-3.3768l-4.8942-5.9994q-1.5171-1.8597-3.3768-0.34261l-4.7732 3.8938q-1.8597 1.5171-0.34261 3.3768l4.8942 5.9994q1.5171 1.8597 3.3768 0.34261z" clip-path="url(#a)" fill="#fff" stroke="#fff"/>
<g clip-path="url(#a)">
<g transform="translate(228.99 352.44) rotate(-39.207) scale(.08 -.08)">
<use xlink:href="#ai"/>
</g>
</g>
<path d="m255.47 416.44 1.9792-4.399q0.98471-2.1887-1.204-3.1734l-7.0608-3.1767q-2.1887-0.98471-3.1734 1.204l-1.9792 4.399q-0.98471 2.1887 1.204 3.1734l7.0608 3.1767q2.1887 0.98471 3.1734-1.204z" clip-path="url(#a)" fill="#fff" stroke="#fff"/>
<g clip-path="url(#a)">
<defs>
<path id="ap" d="m19.672 64.797v-27.391h12.406q6.8906 0 10.641 3.5625 3.7656 3.5625 3.7656 10.156 0 6.5469-3.7656 10.109-3.75 3.5625-10.641 3.5625zm-9.8594 8.1094h22.266q12.266 0 18.531-5.5469 6.2812-5.5469 6.2812-16.234 0-10.797-6.2812-16.312-6.2656-5.5156-18.531-5.5156h-12.406v-29.297h-9.8594z"/>
</defs>
<g transform="translate(251.77 414.77) rotate(-65.777) scale(.08 -.08)">
<use xlink:href="#ap"/>
</g>
</g>
<path d="m304.41 346.38 0.28901 5.4649q0.12675 2.3967 2.5234 2.2699l7.7317-0.40889q2.3967-0.12675 2.2699-2.5234l-0.28901-5.4649q-0.12675-2.3967-2.5234-2.2699l-7.7317 0.40889q-2.3967 0.12675-2.2699 2.5234z" clip-path="url(#a)" fill="#fff" stroke="#fff"/>
<g clip-path="url(#a)">
<g transform="translate(308.47 346.16) rotate(86.973) scale(.08 -.08)">
<use xlink:href="#u"/>
</g>
</g>
<path d="m433.17 353.24 4.9278 2.3801q2.1611 1.0438 3.2049-1.1173l3.3674-6.9719q1.0438-2.1611-1.1173-3.2049l-4.9278-2.3801q-2.1611-1.0438-3.2049 1.1173l-3.3674 6.9719q-1.0438 2.1611 1.1173 3.2049z" clip-path="url(#a)" fill="#fff" stroke="#fff"/>
<g clip-path="url(#a)">
<g transform="translate(434.94 349.58) rotate(25.78) scale(.08 -.08)">
<use xlink:href="#u"/>
</g>
</g>
<path d="m714.67 582.89v33.808q0 2.4 2.4 2.4h7.7425q2.4 0 2.4-2.4v-33.808q0-2.4-2.4-2.4h-7.7425q-2.4 0-2.4 2.4z" clip-path="url(#a)" fill="#fff" stroke="#fff"/>
<g clip-path="url(#a)">
<defs>
<path id="e" d="m56.203 29.594v-4.3906h-41.312q0.59375-9.2812 5.5938-14.141t13.938-4.8594q5.1719 0 10.031 1.2656t9.6562 3.8125v-8.5q-4.8438-2.0469-9.9219-3.125t-10.297-1.0781q-13.094 0-20.734 7.6094-7.6406 7.625-7.6406 20.625 0 13.422 7.25 21.297 7.25 7.8906 19.562 7.8906 11.031 0 17.453-7.1094 6.4219-7.0938 6.4219-19.297zm-8.9844 2.6406q-0.09375 7.3594-4.125 11.75-4.0312 4.4062-10.672 4.4062-7.5156 0-12.031-4.25t-5.2031-11.969z"/>
<path id="f" d="m41.109 46.297q-1.5156 0.875-3.2969 1.2812-1.7812 0.42188-3.9219 0.42188-7.625 0-11.703-4.9531t-4.0781-14.234v-28.812h-9.0312v54.688h9.0312v-8.5q2.8438 4.9844 7.375 7.3906 4.5469 2.4219 11.047 2.4219 0.92188 0 2.0469-0.125 1.125-0.10938 2.4844-0.35938z"/>
<path id="l" d="m52 44.188q3.375 6.0625 8.0625 8.9375t11.031 2.875q8.5469 0 13.188-5.9844 4.6406-5.9688 4.6406-17v-33.016h-9.0312v32.719q0 7.8594-2.7969 11.656-2.7812 3.8125-8.4844 3.8125-6.9844 0-11.047-4.6406-4.0469-4.625-4.0469-12.641v-30.906h-9.0312v32.719q0 7.9062-2.7812 11.688t-8.5938 3.7812q-6.8906 0-10.953-4.6562-4.0469-4.6562-4.0469-12.625v-30.906h-9.0312v54.688h9.0312v-8.5q3.0781 5.0312 7.375 7.4219t10.203 2.3906q5.9688 0 10.141-3.0312 4.1719-3.0156 6.1719-8.7812z"/>
<path id="i" d="m9.4219 54.688h8.9844v-54.688h-8.9844zm0 21.297h8.9844v-11.391h-8.9844z"/>
<path id="h" d="m54.891 33.016v-33.016h-8.9844v32.719q0 7.7656-3.0312 11.609-3.0312 3.8594-9.0781 3.8594-7.2812 0-11.484-4.6406-4.2031-4.625-4.2031-12.641v-30.906h-9.0312v54.688h9.0312v-8.5q3.2344 4.9375 7.5938 7.375 4.375 2.4375 10.094 2.4375 9.4219 0 14.25-5.8281 4.8438-5.8281 4.8438-17.156z"/>
<path id="d" d="m34.281 27.484q-10.891 0-15.094-2.4844t-4.2031-8.5q0-4.7812 3.1562-7.5938 3.1562-2.7969 8.5625-2.7969 7.4844 0 12 5.2969t4.5156 14.078v2zm17.922 3.7188v-31.203h-8.9844v8.2969q-3.0781-4.9688-7.6719-7.3438t-11.234-2.375q-8.3906 0-13.359 4.7188-4.9531 4.7188-4.9531 12.625 0 9.2188 6.1719 13.906 6.1875 4.6875 18.438 4.6875h12.609v0.89062q0 6.2031-4.0781 9.5938t-11.453 3.3906q-4.6875 0-9.1406-1.125-4.4375-1.125-8.5312-3.375v8.3125q4.9219 1.9062 9.5625 2.8438 4.6406 0.95312 9.0312 0.95312 11.875 0 17.734-6.1562 5.8594-6.1406 5.8594-18.641z"/>
<path id="j" d="m9.4219 75.984h8.9844v-75.984h-8.9844z"/>
</defs>
<g transform="translate(718.73 582.89) rotate(90) scale(.08 -.08)">
<use xlink:href="#k"/>
<use x="44.083984" xlink:href="#e"/>
<use x="105.607422" xlink:href="#f"/>
<use x="144.970703" xlink:href="#l"/>
<use x="242.382812" xlink:href="#i"/>
<use x="270.166016" xlink:href="#h"/>
<use x="333.544922" xlink:href="#d"/>
<use x="394.824219" xlink:href="#j"/>
</g>
</g>
<path d="m810.93 479 1.3598-4.8687q0.64562-2.3115-1.6659-2.9571l-7.4571-2.0828q-2.3115-0.64562-2.9571 1.6659l-1.3598 4.8687q-0.64562 2.3115 1.6659 2.9571l7.4571 2.0828q2.3115 0.64562 2.9571-1.6659z" clip-path="url(#a)" fill="#fff" stroke="#fff"/>
<g clip-path="url(#a)">
<g transform="translate(807.02 477.91) rotate(-74.395) scale(.08 -.08)">
<use xlink:href="#q"/>
</g>
</g>
<path d="m833.91 473.88 1.5027 5.3803q0.64562 2.3115 2.9571 1.6659l7.4571-2.0828q2.3115-0.64562 1.6659-2.9571l-1.5027-5.3803q-0.64562-2.3115-2.9571-1.6659l-7.4571 2.0828q-2.3115 0.64562-1.6659 2.9571z" clip-path="url(#a)" fill="#fff" stroke="#fff"/>
<g clip-path="url(#a)">
<g transform="translate(837.82 472.79) rotate(74.395) scale(.08 -.08)">
<use xlink:href="#r"/>
</g>
</g>
<path d="m925.44 582.89v33.808q0 2.4 2.4 2.4h7.7425q2.4 0 2.4-2.4v-33.808q0-2.4-2.4-2.4h-7.7425q-2.4 0-2.4 2.4z" clip-path="url(#a)" fill="#fff" stroke="#fff"/>
<g clip-path="url(#a)">
<g transform="translate(929.51 582.89) rotate(90) scale(.08 -.08)">
<use xlink:href="#k"/>
<use x="44.083984" xlink:href="#e"/>
<use x="105.607422" xlink:href="#f"/>
<use x="144.970703" xlink:href="#l"/>
<use x="242.382812" xlink:href="#i"/>
<use x="270.166016" xlink:href="#h"/>
<use x="333.544922" xlink:href="#d"/>
<use x="394.824219" xlink:href="#j"/>
</g>
</g>
<path d="m1072.4 481.25 3.8858-3.975q1.6777-1.7162-0.038513-3.3939l-5.5365-5.4123q-1.7162-1.6777-3.3939 0.038514l-3.8858 3.975q-1.6777 1.7162 0.038514 3.3939l5.5365 5.4123q1.7162 1.6777 3.3939-0.038514z" clip-path="url(#a)" fill="#fff" stroke="#fff"/>
<g clip-path="url(#a)">
<g transform="translate(1069.5 478.41) rotate(-45.65) scale(.08 -.08)">
<use xlink:href="#t"/>
</g>
</g>
<path d="m1114.9 479.31 1.6391-4.7819q0.77822-2.2703-1.4921-3.0485l-7.3242-2.5106q-2.2703-0.77822-3.0485 1.4921l-1.6391 4.7819q-0.77822 2.2703 1.4921 3.0485l7.3242 2.5106q2.2703 0.77822 3.0485-1.4921z" clip-path="url(#a)" fill="#fff" stroke="#fff"/>
<g clip-path="url(#a)">
<g transform="translate(1111 477.99) rotate(-71.079) scale(.08 -.08)">
<use xlink:href="#q"/>
</g>
</g>
<path d="m1144.4 474.12 1.6899 5.3245q0.72604 2.2875 3.0136 1.5615l7.3797-2.3422q2.2875-0.72604 1.5615-3.0136l-1.6899-5.3245q-0.72604-2.2875-3.0136-1.5615l-7.3797 2.3422q-2.2875 0.72604-1.5615 3.0136z" clip-path="url(#a)" fill="#fff" stroke="#fff"/>
<g clip-path="url(#a)">
<g transform="translate(1148.3 472.89) rotate(72.391) scale(.08 -.08)">
<use xlink:href="#r"/>
</g>
</g>
<path d="m1187.9 477.26 4.1462 4.134q1.6996 1.6946 3.3941-0.004999l5.4667-5.4828q1.6946-1.6996-0.004999-3.3941l-4.1462-4.134q-1.6996-1.6946-3.3941 0.004999l-5.4667 5.4828q-1.6946 1.6996 0.004999 3.3941z" clip-path="url(#a)" fill="#fff" stroke="#fff"/>
<g clip-path="url(#a)">
<g transform="translate(1190.8 474.38) rotate(44.916) scale(.08 -.08)">
<use xlink:href="#ag"/>
</g>
</g>
<path d="m1002.1 582.89v33.808q0 2.4 2.4 2.4h7.7425q2.4 0 2.4-2.4v-33.808q0-2.4-2.4-2.4h-7.7425q-2.4 0-2.4 2.4z" clip-path="url(#a)" fill="#fff" stroke="#fff"/>
<g clip-path="url(#a)">
<g transform="translate(1006.2 582.89) rotate(90) scale(.08 -.08)">
<use xlink:href="#k"/>
<use x="44.083984" xlink:href="#e"/>
<use x="105.607422" xlink:href="#f"/>
<use x="144.970703" xlink:href="#l"/>
<use x="242.382812" xlink:href="#i"/>
<use x="270.166016" xlink:href="#h"/>
<use x="333.544922" xlink:href="#d"/>
<use x="394.824219" xlink:href="#j"/>
</g>
</g>
<path d="m1081.9 582.89v33.808q0 2.4 2.4 2.4h7.7425q2.4 0 2.4-2.4v-33.808q0-2.4-2.4-2.4h-7.7425q-2.4 0-2.4 2.4z" clip-path="url(#a)" fill="#fff" stroke="#fff"/>
<g clip-path="url(#a)">
<g transform="translate(1086 582.89) rotate(90) scale(.08 -.08)">
<use xlink:href="#k"/>
<use x="44.083984" xlink:href="#e"/>
<use x="105.607422" xlink:href="#f"/>
<use x="144.970703" xlink:href="#l"/>
<use x="242.382812" xlink:href="#i"/>
<use x="270.166016" xlink:href="#h"/>
<use x="333.544922" xlink:href="#d"/>
<use x="394.824219" xlink:href="#j"/>
</g>
</g>
<path d="m1165 582.89v33.808q0 2.4 2.4 2.4h7.7425q2.4 0 2.4-2.4v-33.808q0-2.4-2.4-2.4h-7.7425q-2.4 0-2.4 2.4z" clip-path="url(#a)" fill="#fff" stroke="#fff"/>
<g clip-path="url(#a)">
<g transform="translate(1169 582.89) rotate(90) scale(.08 -.08)">
<use xlink:href="#k"/>
<use x="44.083984" xlink:href="#e"/>
<use x="105.607422" xlink:href="#f"/>
<use x="144.970703" xlink:href="#l"/>
<use x="242.382812" xlink:href="#i"/>
<use x="270.166016" xlink:href="#h"/>
<use x="333.544922" xlink:href="#d"/>
<use x="394.824219" xlink:href="#j"/>
</g>
</g>
<path d="m781.73 582.89v33.808q0 2.4 2.4 2.4h7.7425q2.4 0 2.4-2.4v-33.808q0-2.4-2.4-2.4h-7.7425q-2.4 0-2.4 2.4z" clip-path="url(#a)" fill="#fff" stroke="#fff"/>
<g clip-path="url(#a)">
<g transform="translate(785.8 582.89) rotate(90) scale(.08 -.08)">
<use xlink:href="#k"/>
<use x="44.083984" xlink:href="#e"/>
<use x="105.607422" xlink:href="#f"/>
<use x="144.970703" xlink:href="#l"/>
<use x="242.382812" xlink:href="#i"/>
<use x="270.166016" xlink:href="#h"/>
<use x="333.544922" xlink:href="#d"/>
<use x="394.824219" xlink:href="#j"/>
</g>
</g>
<path d="m851.99 582.89v33.808q0 2.4 2.4 2.4h7.7425q2.4 0 2.4-2.4v-33.808q0-2.4-2.4-2.4h-7.7425q-2.4 0-2.4 2.4z" clip-path="url(#a)" fill="#fff" stroke="#fff"/>
<g clip-path="url(#a)">
<g transform="translate(856.06 582.89) rotate(90) scale(.08 -.08)">
<use xlink:href="#k"/>
<use x="44.083984" xlink:href="#e"/>
<use x="105.607422" xlink:href="#f"/>
<use x="144.970703" xlink:href="#l"/>
<use x="242.382812" xlink:href="#i"/>
<use x="270.166016" xlink:href="#h"/>
<use x="333.544922" xlink:href="#d"/>
<use x="394.824219" xlink:href="#j"/>
</g>
</g>
<path d="m152.09 478.03 0.51078-5.0291q0.24251-2.3877-2.1452-2.6302l-7.7029-0.78234q-2.3877-0.24251-2.6302 2.1452l-0.51078 5.0291q-0.24251 2.3877 2.1452 2.6302l7.7029 0.78234q2.3877 0.24251 2.6302-2.1452z" clip-path="url(#a)" fill="#fff" stroke="#fff"/>
<g clip-path="url(#a)">
<g transform="translate(148.05 477.62) rotate(-84.201) scale(.08 -.08)">
<use xlink:href="#q"/>
</g>
</g>
<path d="m152.36 472.74 0.56446 5.5577q0.24251 2.3877 2.6302 2.1452l7.7029-0.78234q2.3877-0.24251 2.1452-2.6302l-0.56446-5.5577q-0.24251-2.3877-2.6302-2.1452l-7.7029 0.78234q-2.3877 0.24251-2.1452 2.6302z" clip-path="url(#a)" fill="#fff" stroke="#fff"/>
<g clip-path="url(#a)">
<g transform="translate(156.4 472.33) rotate(84.201) scale(.08 -.08)">
<use xlink:href="#r"/>
</g>
</g>
<path d="m187.74 582.89v33.808q0 2.4 2.4 2.4h7.7425q2.4 0 2.4-2.4v-33.808q0-2.4-2.4-2.4h-7.7425q-2.4 0-2.4 2.4z" clip-path="url(#a)" fill="#fff" stroke="#fff"/>
<g clip-path="url(#a)">
<g transform="translate(191.8 582.89) rotate(90) scale(.08 -.08)">
<use xlink:href="#k"/>
<use x="44.083984" xlink:href="#e"/>
<use x="105.607422" xlink:href="#f"/>
<use x="144.970703" xlink:href="#l"/>
<use x="242.382812" xlink:href="#i"/>
<use x="270.166016" xlink:href="#h"/>
<use x="333.544922" xlink:href="#d"/>
<use x="394.824219" xlink:href="#j"/>
</g>
</g>
<path d="m273.59 480.76 3.1921-4.5508q1.3782-1.9648-0.58664-3.343l-6.3386-4.4461q-1.9648-1.3782-3.343 0.58664l-3.1921 4.5508q-1.3782 1.9648 0.58664 3.343l6.3386 4.4461q1.9648 1.3782 3.343-0.58664z" clip-path="url(#a)" fill="#fff" stroke="#fff"/>
<g clip-path="url(#a)">
<g transform="translate(270.26 478.43) rotate(-54.953) scale(.08 -.08)">
<use xlink:href="#t"/>
</g>
</g>
<path d="m302.53 479.21 1.455-5.3934q0.62512-2.3172-1.692-2.9423l-7.4752-2.0167q-2.3172-0.62512-2.9423 1.692l-1.455 5.3934q-0.62512 2.3172 1.692 2.9423l7.4752 2.0167q2.3172 0.62512 2.9423-1.692z" clip-path="url(#a)" fill="#fff" stroke="#fff"/>
<g clip-path="url(#a)">
<g transform="translate(298.6 478.16) rotate(-74.902) scale(.08 -.08)">
<use xlink:href="#r"/>
</g>
</g>
<path d="m320.78 473.26 1.2449 5.8541q0.4992 2.3475 2.8467 1.8483l7.5732-1.6104q2.3475-0.4992 1.8483-2.8467l-1.2449-5.8541q-0.4992-2.3475-2.8467-1.8483l-7.5732 1.6104q-2.3475 0.4992-1.8483 2.8467z" clip-path="url(#a)" fill="#fff" stroke="#fff"/>
<g clip-path="url(#a)">
<defs>
<path id="aq" d="m9.8125 72.906h13.281l32.328-60.984v60.984h9.5625v-72.906h-13.281l-32.312 60.984v-60.984h-9.5781z"/>
</defs>
<g transform="translate(324.76 472.42) rotate(77.995) scale(.08 -.08)">
<use xlink:href="#aq"/>
</g>
</g>
<path d="m355.18 476.45 3.3761 4.4506q1.4505 1.9121 3.3626 0.46166l6.1686-4.6792q1.9121-1.4505 0.46166-3.3626l-3.3761-4.4506q-1.4505-1.9121-3.3626-0.46166l-6.1686 4.6792q-1.9121 1.4505-0.46166 3.3626z" clip-path="url(#a)" fill="#fff" stroke="#fff"/>
<g clip-path="url(#a)">
<g transform="translate(358.42 473.99) rotate(52.817) scale(.08 -.08)">
<use xlink:href="#r"/>
</g>
</g>
<path d="m530.58 480.69 3.1032-4.6119q1.3398-1.9912-0.65139-3.331l-6.4237-4.3223q-1.9912-1.3398-3.331 0.65139l-3.1032 4.6119q-1.3398 1.9912 0.65139 3.331l6.4237 4.3223q1.9912 1.3398 3.331-0.65139z" clip-path="url(#a)" fill="#fff" stroke="#fff"/>
<g clip-path="url(#a)">
<g transform="translate(527.21 478.42) rotate(-56.065) scale(.08 -.08)">
<use xlink:href="#t"/>
</g>
</g>
<path d="m559.58 478.81 1.1853-4.9141q0.56278-2.3331-1.7703-2.8959l-7.5266-1.8155q-2.3331-0.56278-2.8959 1.7703l-1.1853 4.9141q-0.56278 2.3331 1.7703 2.8959l7.5266 1.8155q2.3331 0.56278 2.8959-1.7703z" clip-path="url(#a)" fill="#fff" stroke="#fff"/>
<g clip-path="url(#a)">
<g transform="translate(555.63 477.86) rotate(-76.438) scale(.08 -.08)">
<use xlink:href="#q"/>
</g>
</g>
<path d="m576.16 473.74 1.0664 4.9412q0.50632 2.346 2.8523 1.8397l7.5682-1.6334q2.346-0.50632 1.8397-2.8523l-1.0664-4.9412q-0.50632-2.346-2.8523-1.8397l-7.5682 1.6334q-2.346 0.50632-1.8397 2.8523z" clip-path="url(#a)" fill="#fff" stroke="#fff"/>
<g clip-path="url(#a)">
<g transform="translate(580.13 472.88) rotate(77.821) scale(.08 -.08)">
<use xlink:href="#q"/>
</g>
</g>
<path d="m606.42 476.18 3.1981 4.5802q1.374 1.9678 3.3418 0.59376l6.3481-4.4326q1.9678-1.374 0.59376-3.3418l-3.1981-4.5802q-1.374-1.9678-3.3418-0.59376l-6.3481 4.4326q-1.9678 1.374-0.59376 3.3418z" clip-path="url(#a)" fill="#fff" stroke="#fff"/>
<g clip-path="url(#a)">
<g transform="translate(609.75 473.86) rotate(55.075) scale(.08 -.08)">
<use xlink:href="#r"/>
</g>
</g>
<path d="m478.35 582.89v33.808q0 2.4 2.4 2.4h7.7425q2.4 0 2.4-2.4v-33.808q0-2.4-2.4-2.4h-7.7425q-2.4 0-2.4 2.4z" clip-path="url(#a)" fill="#fff" stroke="#fff"/>
<g clip-path="url(#a)">
<g transform="translate(482.41 582.89) rotate(90) scale(.08 -.08)">
<use xlink:href="#k"/>
<use x="44.083984" xlink:href="#e"/>
<use x="105.607422" xlink:href="#f"/>
<use x="144.970703" xlink:href="#l"/>
<use x="242.382812" xlink:href="#i"/>
<use x="270.166016" xlink:href="#h"/>
<use x="333.544922" xlink:href="#d"/>
<use x="394.824219" xlink:href="#j"/>
</g>
</g>
<path d="m532.64 582.89v33.808q0 2.4 2.4 2.4h7.7425q2.4 0 2.4-2.4v-33.808q0-2.4-2.4-2.4h-7.7425q-2.4 0-2.4 2.4z" clip-path="url(#a)" fill="#fff" stroke="#fff"/>
<g clip-path="url(#a)">
<g transform="translate(536.7 582.89) rotate(90) scale(.08 -.08)">
<use xlink:href="#k"/>
<use x="44.083984" xlink:href="#e"/>
<use x="105.607422" xlink:href="#f"/>
<use x="144.970703" xlink:href="#l"/>
<use x="242.382812" xlink:href="#i"/>
<use x="270.166016" xlink:href="#h"/>
<use x="333.544922" xlink:href="#d"/>
<use x="394.824219" xlink:href="#j"/>
</g>
</g>
<path d="m590.12 582.89v33.808q0 2.4 2.4 2.4h7.7425q2.4 0 2.4-2.4v-33.808q0-2.4-2.4-2.4h-7.7425q-2.4 0-2.4 2.4z" clip-path="url(#a)" fill="#fff" stroke="#fff"/>
<g clip-path="url(#a)">
<g transform="translate(594.19 582.89) rotate(90) scale(.08 -.08)">
<use xlink:href="#k"/>
<use x="44.083984" xlink:href="#e"/>
<use x="105.607422" xlink:href="#f"/>
<use x="144.970703" xlink:href="#l"/>
<use x="242.382812" xlink:href="#i"/>
<use x="270.166016" xlink:href="#h"/>
<use x="333.544922" xlink:href="#d"/>
<use x="394.824219" xlink:href="#j"/>
</g>
</g>
<path d="m650.8 582.89v33.808q0 2.4 2.4 2.4h7.7425q2.4 0 2.4-2.4v-33.808q0-2.4-2.4-2.4h-7.7425q-2.4 0-2.4 2.4z" clip-path="url(#a)" fill="#fff" stroke="#fff"/>
<g clip-path="url(#a)">
<g transform="translate(654.86 582.89) rotate(90) scale(.08 -.08)">
<use xlink:href="#k"/>
<use x="44.083984" xlink:href="#e"/>
<use x="105.607422" xlink:href="#f"/>
<use x="144.970703" xlink:href="#l"/>
<use x="242.382812" xlink:href="#i"/>
<use x="270.166016" xlink:href="#h"/>
<use x="333.544922" xlink:href="#d"/>
<use x="394.824219" xlink:href="#j"/>
</g>
</g>
<path d="m219.67 582.89v33.808q0 2.4 2.4 2.4h7.7425q2.4 0 2.4-2.4v-33.808q0-2.4-2.4-2.4h-7.7425q-2.4 0-2.4 2.4z" clip-path="url(#a)" fill="#fff" stroke="#fff"/>
<g clip-path="url(#a)">
<g transform="translate(223.74 582.89) rotate(90) scale(.08 -.08)">
<use xlink:href="#k"/>
<use x="44.083984" xlink:href="#e"/>
<use x="105.607422" xlink:href="#f"/>
<use x="144.970703" xlink:href="#l"/>
<use x="242.382812" xlink:href="#i"/>
<use x="270.166016" xlink:href="#h"/>
<use x="333.544922" xlink:href="#d"/>
<use x="394.824219" xlink:href="#j"/>
</g>
</g>
<path d="m274.27 617.46 5.1609-33.411q0.36637-2.3719-2.0055-2.7382l-7.6518-1.1819q-2.3719-0.36637-2.7382 2.0055l-5.1609 33.411q-0.36637 2.3719 2.0055 2.7382l7.6518 1.1819q2.3719 0.36637 2.7382-2.0055z" clip-path="url(#a)" fill="#fff" stroke="#fff"/>
<g clip-path="url(#a)">
<g transform="translate(270.25 616.84) rotate(-81.219) scale(.08 -.08)">
<use xlink:href="#k"/>
<use x="44.083984" xlink:href="#e"/>
<use x="105.607422" xlink:href="#f"/>
<use x="144.970703" xlink:href="#l"/>
<use x="242.382812" xlink:href="#i"/>
<use x="270.166016" xlink:href="#h"/>
<use x="333.544922" xlink:href="#d"/>
<use x="394.824219" xlink:href="#j"/>
</g>
</g>
<path d="m281.04 584.05 5.1609 33.411q0.36637 2.3719 2.7382 2.0055l7.6518-1.1819q2.3719-0.36637 2.0055-2.7382l-5.1609-33.411q-0.36637-2.3719-2.7382-2.0055l-7.6518 1.1819q-2.3719 0.36637-2.0055 2.7382z" clip-path="url(#a)" fill="#fff" stroke="#fff"/>
<g clip-path="url(#a)">
<g transform="translate(285.05 583.43) rotate(81.219) scale(.08 -.08)">
<use xlink:href="#k"/>
<use x="44.083984" xlink:href="#e"/>
<use x="105.607422" xlink:href="#f"/>
<use x="144.970703" xlink:href="#l"/>
<use x="242.382812" xlink:href="#i"/>
<use x="270.166016" xlink:href="#h"/>
<use x="333.544922" xlink:href="#d"/>
<use x="394.824219" xlink:href="#j"/>
</g>
</g>
<path d="m334.64 582.89v33.808q0 2.4 2.4 2.4h7.7425q2.4 0 2.4-2.4v-33.808q0-2.4-2.4-2.4h-7.7425q-2.4 0-2.4 2.4z" clip-path="url(#a)" fill="#fff" stroke="#fff"/>
<g clip-path="url(#a)">
<g transform="translate(338.7 582.89) rotate(90) scale(.08 -.08)">
<use xlink:href="#k"/>
<use x="44.083984" xlink:href="#e"/>
<use x="105.607422" xlink:href="#f"/>
<use x="144.970703" xlink:href="#l"/>
<use x="242.382812" xlink:href="#i"/>
<use x="270.166016" xlink:href="#h"/>
<use x="333.544922" xlink:href="#d"/>
<use x="394.824219" xlink:href="#j"/>
</g>
</g>
<path d="m400.55 617.58 6.4093-33.194q0.455-2.3565-1.9015-2.8115l-7.6021-1.4678q-2.3565-0.455-2.8115 1.9015l-6.4093 33.194q-0.45499 2.3565 1.9015 2.8115l7.6021 1.4678q2.3565 0.455 2.8115-1.9015z" clip-path="url(#a)" fill="#fff" stroke="#fff"/>
<g clip-path="url(#a)">
<g transform="translate(396.56 616.81) rotate(-79.072) scale(.08 -.08)">
<use xlink:href="#k"/>
<use x="44.083984" xlink:href="#e"/>
<use x="105.607422" xlink:href="#f"/>
<use x="144.970703" xlink:href="#l"/>
<use x="242.382812" xlink:href="#i"/>
<use x="270.166016" xlink:href="#h"/>
<use x="333.544922" xlink:href="#d"/>
<use x="394.824219" xlink:href="#j"/>
</g>
</g>
<path d="m412.18 584.39 6.4093 33.194q0.455 2.3565 2.8115 1.9015l7.6021-1.4678q2.3565-0.45499 1.9015-2.8115l-6.4093-33.194q-0.455-2.3565-2.8115-1.9015l-7.6021 1.4678q-2.3565 0.455-1.9015 2.8115z" clip-path="url(#a)" fill="#fff" stroke="#fff"/>
<g clip-path="url(#a)">
<g transform="translate(416.17 583.62) rotate(79.072) scale(.08 -.08)">
<use xlink:href="#k"/>
<use x="44.083984" xlink:href="#e"/>
<use x="105.607422" xlink:href="#f"/>
<use x="144.970703" xlink:href="#l"/>
<use x="242.382812" xlink:href="#i"/>
<use x="270.166016" xlink:href="#h"/>
<use x="333.544922" xlink:href="#d"/>
<use x="394.824219" xlink:href="#j"/>
</g>
</g>
<path d="m133.45 582.89v33.808q0 2.4 2.4 2.4h7.7425q2.4 0 2.4-2.4v-33.808q0-2.4-2.4-2.4h-7.7425q-2.4 0-2.4 2.4z" clip-path="url(#a)" fill="#fff" stroke="#fff"/>
<g clip-path="url(#a)">
<g transform="translate(137.51 582.89) rotate(90) scale(.08 -.08)">
<use xlink:href="#k"/>
<use x="44.083984" xlink:href="#e"/>
<use x="105.607422" xlink:href="#f"/>
<use x="144.970703" xlink:href="#l"/>
<use x="242.382812" xlink:href="#i"/>
<use x="270.166016" xlink:href="#h"/>
<use x="333.544922" xlink:href="#d"/>
<use x="394.824219" xlink:href="#j"/>
</g>
</g>
<path d="m158.99 582.89v33.808q0 2.4 2.4 2.4h7.7425q2.4 0 2.4-2.4v-33.808q0-2.4-2.4-2.4h-7.7425q-2.4 0-2.4 2.4z" clip-path="url(#a)" fill="#fff" stroke="#fff"/>
<g clip-path="url(#a)">
<g transform="translate(163.06 582.89) rotate(90) scale(.08 -.08)">
<use xlink:href="#k"/>
<use x="44.083984" xlink:href="#e"/>
<use x="105.607422" xlink:href="#f"/>
<use x="144.970703" xlink:href="#l"/>
<use x="242.382812" xlink:href="#i"/>
<use x="270.166016" xlink:href="#h"/>
<use x="333.544922" xlink:href="#d"/>
<use x="394.824219" xlink:href="#j"/>
</g>
</g>
<path d="m53.608 582.89v33.808q0 2.4 2.4 2.4h7.7425q2.4 0 2.4-2.4v-33.808q0-2.4-2.4-2.4h-7.7425q-2.4 0-2.4 2.4z" clip-path="url(#a)" fill="#fff" stroke="#fff"/>
<g clip-path="url(#a)">
<g transform="translate(57.671 582.89) rotate(90) scale(.08 -.08)">
<use xlink:href="#k"/>
<use x="44.083984" xlink:href="#e"/>
<use x="105.607422" xlink:href="#f"/>
<use x="144.970703" xlink:href="#l"/>
<use x="242.382812" xlink:href="#i"/>
<use x="270.166016" xlink:href="#h"/>
<use x="333.544922" xlink:href="#d"/>
<use x="394.824219" xlink:href="#j"/>
</g>
</g>
<path d="m63.188 582.89v33.808q0 2.4 2.4 2.4h7.7425q2.4 0 2.4-2.4v-33.808q0-2.4-2.4-2.4h-7.7425q-2.4 0-2.4 2.4z" clip-path="url(#a)" fill="#fff" stroke="#fff"/>
<g clip-path="url(#a)">
<g transform="translate(67.252 582.89) rotate(90) scale(.08 -.08)">
<use xlink:href="#k"/>
<use x="44.083984" xlink:href="#e"/>
<use x="105.607422" xlink:href="#f"/>
<use x="144.970703" xlink:href="#l"/>
<use x="242.382812" xlink:href="#i"/>
<use x="270.166016" xlink:href="#h"/>
<use x="333.544922" xlink:href="#d"/>
<use x="394.824219" xlink:href="#j"/>
</g>
</g>
<path d="m75.962 582.89v33.808q0 2.4 2.4 2.4h7.7425q2.4 0 2.4-2.4v-33.808q0-2.4-2.4-2.4h-7.7425q-2.4 0-2.4 2.4z" clip-path="url(#a)" fill="#fff" stroke="#fff"/>
<g clip-path="url(#a)">
<g transform="translate(80.026 582.89) rotate(90) scale(.08 -.08)">
<use xlink:href="#k"/>
<use x="44.083984" xlink:href="#e"/>
<use x="105.607422" xlink:href="#f"/>
<use x="144.970703" xlink:href="#l"/>
<use x="242.382812" xlink:href="#i"/>
<use x="270.166016" xlink:href="#h"/>
<use x="333.544922" xlink:href="#d"/>
<use x="394.824219" xlink:href="#j"/>
</g>
</g>
<path d="m91.93 582.89v33.808q0 2.4 2.4 2.4h7.7425q2.4 0 2.4-2.4v-33.808q0-2.4-2.4-2.4h-7.7425q-2.4 0-2.4 2.4z" clip-path="url(#a)" fill="#fff" stroke="#fff"/>
<g clip-path="url(#a)">
<g transform="translate(95.994 582.89) rotate(90) scale(.08 -.08)">
<use xlink:href="#k"/>
<use x="44.083984" xlink:href="#e"/>
<use x="105.607422" xlink:href="#f"/>
<use x="144.970703" xlink:href="#l"/>
<use x="242.382812" xlink:href="#i"/>
<use x="270.166016" xlink:href="#h"/>
<use x="333.544922" xlink:href="#d"/>
<use x="394.824219" xlink:href="#j"/>
</g>
</g>
<path d="m111.09 582.89v33.808q0 2.4 2.4 2.4h7.7425q2.4 0 2.4-2.4v-33.808q0-2.4-2.4-2.4h-7.7425q-2.4 0-2.4 2.4z" clip-path="url(#a)" fill="#fff" stroke="#fff"/>
<g clip-path="url(#a)">
<g transform="translate(115.15 582.89) rotate(90) scale(.08 -.08)">
<use xlink:href="#k"/>
<use x="44.083984" xlink:href="#e"/>
<use x="105.607422" xlink:href="#f"/>
<use x="144.970703" xlink:href="#l"/>
<use x="242.382812" xlink:href="#i"/>
<use x="270.166016" xlink:href="#h"/>
<use x="333.544922" xlink:href="#d"/>
<use x="394.824219" xlink:href="#j"/>
</g>
</g>
<path d="m1251.2 582.89v33.808q0 2.4 2.4 2.4h7.7425q2.4 0 2.4-2.4v-33.808q0-2.4-2.4-2.4h-7.7425q-2.4 0-2.4 2.4z" clip-path="url(#a)" fill="#fff" stroke="#fff"/>
<g clip-path="url(#a)">
<g transform="translate(1255.2 582.89) rotate(90) scale(.08 -.08)">
<use xlink:href="#k"/>
<use x="44.083984" xlink:href="#e"/>
<use x="105.607422" xlink:href="#f"/>
<use x="144.970703" xlink:href="#l"/>
<use x="242.382812" xlink:href="#i"/>
<use x="270.166016" xlink:href="#h"/>
<use x="333.544922" xlink:href="#d"/>
<use x="394.824219" xlink:href="#j"/>
</g>
</g>
<defs>
<path id="b" d="m0 8.6603c2.2967 0 4.4997-0.9125 6.1237-2.5365 1.624-1.624 2.5365-3.827 2.5365-6.1237s-0.9125-4.4997-2.5365-6.1237c-1.624-1.624-3.827-2.5365-6.1237-2.5365s-4.4997 0.9125-6.1237 2.5365c-1.624 1.624-2.5365 3.827-2.5365 6.1237s0.9125 4.4997 2.5365 6.1237c1.624 1.624 3.827 2.5365 6.1237 2.5365z"/>
</defs>
<g clip-path="url(#a)" fill="#ffffff" stroke="#ffffff">
<use x="59.878788" y="661.818182" xlink:href="#b"/>
<use x="69.459394" y="661.818182" xlink:href="#b"/>
<use x="82.233535" y="661.818182" xlink:href="#b"/>
<use x="98.201212" y="661.818182" xlink:href="#b"/>
<use x="117.362424" y="661.818182" xlink:href="#b"/>
<use x="139.717172" y="661.818182" xlink:href="#b"/>
<use x="165.265455" y="661.818182" xlink:href="#b"/>
<use x="194.007273" y="661.818182" xlink:href="#b"/>
<use x="225.942626" y="661.818182" xlink:href="#b"/>
<use x="261.071515" y="661.818182" xlink:href="#b"/>
<use x="299.393939" y="661.818182" xlink:href="#b"/>
<use x="340.909899" y="661.818182" xlink:href="#b"/>
<use x="385.619394" y="661.818182" xlink:href="#b"/>
<use x="433.522424" y="661.818182" xlink:href="#b"/>
<use x="484.61899" y="661.818182" xlink:href="#b"/>
<use x="538.909091" y="661.818182" xlink:href="#b"/>
<use x="596.392727" y="661.818182" xlink:href="#b"/>
<use x="657.069899" y="661.818182" xlink:href="#b"/>
<use x="720.940606" y="661.818182" xlink:href="#b"/>
<use x="788.004848" y="661.818182" xlink:href="#b"/>
<use x="858.262626" y="661.818182" xlink:href="#b"/>
<use x="931.713939" y="661.818182" xlink:href="#b"/>
<use x="1008.358788" y="661.818182" xlink:href="#b"/>
<use x="1088.197172" y="661.818182" xlink:href="#b"/>
<use x="1171.229091" y="661.818182" xlink:href="#b"/>
<use x="1257.454545" y="661.818182" xlink:href="#b"/>
<use x="587.054488" y="31.515152" xlink:href="#b"/>
<use x="587.054488" y="158.699688" xlink:href="#b"/>
<use x="77.443232" y="411.996581" xlink:href="#b"/>
<use x="307.477576" y="285.563287" xlink:href="#b"/>
<use x="720.940606" y="537.770204" xlink:href="#b"/>
<use x="823.133737" y="411.996581" xlink:href="#b"/>
<use x="931.713939" y="537.770204" xlink:href="#b"/>
<use x="1131.309899" y="411.996581" xlink:href="#b"/>
<use x="1008.358788" y="537.770204" xlink:href="#b"/>
<use x="1088.197172" y="537.770204" xlink:href="#b"/>
<use x="1171.229091" y="537.770204" xlink:href="#b"/>
<use x="788.004848" y="537.770204" xlink:href="#b"/>
<use x="858.262626" y="537.770204" xlink:href="#b"/>
<use x="152.491313" y="411.996581" xlink:href="#b"/>
<use x="194.007273" y="537.770204" xlink:href="#b"/>
<use x="314.16404" y="411.996581" xlink:href="#b"/>
<use x="569.247677" y="411.996581" xlink:href="#b"/>
<use x="484.61899" y="537.770204" xlink:href="#b"/>
<use x="538.909091" y="537.770204" xlink:href="#b"/>
<use x="596.392727" y="537.770204" xlink:href="#b"/>
<use x="657.069899" y="537.770204" xlink:href="#b"/>
<use x="225.942626" y="537.770204" xlink:href="#b"/>
<use x="280.232727" y="537.770204" xlink:href="#b"/>
<use x="340.909899" y="537.770204" xlink:href="#b"/>
<use x="409.570909" y="537.770204" xlink:href="#b"/>
<use x="139.717172" y="537.770204" xlink:href="#b"/>
<use x="165.265455" y="537.770204" xlink:href="#b"/>
<use x="59.878788" y="537.770204" xlink:href="#b"/>
<use x="69.459394" y="537.770204" xlink:href="#b"/>
<use x="82.233535" y="537.770204" xlink:href="#b"/>
<use x="98.201212" y="537.770204" xlink:href="#b"/>
<use x="117.362424" y="537.770204" xlink:href="#b"/>
<use x="1257.454545" y="537.770204" xlink:href="#b"/>
</g>
<g clip-path="url(#a)">
<defs>
<path id="ar" d="m9.8125 72.906h9.8594v-72.906h-9.8594z"/>
</defs>
<g transform="translate(55.235 664.58) scale(.1 -.1)">
<use xlink:href="#ar"/>
<use x="29.492188" xlink:href="#h"/>
</g>
</g>
<g clip-path="url(#a)">
<defs>
<path id="o" d="m18.312 70.219v-15.531h18.5v-6.9844h-18.5v-29.688q0-6.6875 1.8281-8.5938t7.4531-1.9062h9.2188v-7.5156h-9.2188q-10.406 0-14.359 3.875-3.9531 3.8906-3.9531 14.141v29.688h-6.5938v6.9844h6.5938v15.531z"/>
<path id="v" d="m54.891 33.016v-33.016h-8.9844v32.719q0 7.7656-3.0312 11.609-3.0312 3.8594-9.0781 3.8594-7.2812 0-11.484-4.6406-4.2031-4.625-4.2031-12.641v-30.906h-9.0312v75.984h9.0312v-29.797q3.2344 4.9375 7.5938 7.375 4.375 2.4375 10.094 2.4375 9.4219 0 14.25-5.8281 4.8438-5.8281 4.8438-17.156z"/>
</defs>
<g transform="translate(61.254 664.58) scale(.1 -.1)">
<use xlink:href="#o"/>
<use x="39.208984" xlink:href="#v"/>
<use x="102.587891" xlink:href="#e"/>
</g>
</g>
<g clip-path="url(#a)">
<g transform="translate(72.744 664.58) scale(.1 -.1)">
<use xlink:href="#j"/>
<use x="27.783203" xlink:href="#d"/>
<use x="89.0625" xlink:href="#o"/>
<use x="128.271484" xlink:href="#e"/>
</g>
</g>
<g clip-path="url(#a)">
<defs>
<path id="c" d="m12.406 8.2969h16.109v55.625l-17.531-3.5156v8.9844l17.438 3.5156h9.8594v-64.609h16.109v-8.2969h-41.984z"/>
<path id="w" d="m10.984 1.5156v8.9844q3.7188-1.7656 7.5156-2.6875 3.8125-0.92188 7.4844-0.92188 9.7656 0 14.906 6.5625 5.1562 6.5625 5.8906 19.953-2.8281-4.2031-7.1875-6.4531-4.3438-2.25-9.6094-2.25-10.938 0-17.312 6.6094-6.375 6.625-6.375 18.109 0 11.219 6.6406 18 6.6406 6.7969 17.672 6.7969 12.656 0 19.312-9.7031 6.6719-9.6875 6.6719-28.141 0-17.234-8.1875-27.516-8.1719-10.281-21.984-10.281-3.7188 0-7.5312 0.73438-3.7969 0.73438-7.9062 2.2031zm19.625 30.906q6.6406 0 10.516 4.5312 3.8906 4.5469 3.8906 12.469 0 7.8594-3.8906 12.422-3.875 4.5625-10.516 4.5625t-10.516-4.5625-3.875-12.422q0-7.9219 3.875-12.469 3.875-4.5312 10.516-4.5312z"/>
<path id="x" d="m8.2031 72.906h46.875v-4.2031l-26.469-68.703h-10.297l24.906 64.594h-35.016z"/>
<path id="ad" d="m31.781 66.406q-7.6094 0-11.453-7.5-3.8281-7.4844-3.8281-22.531 0-14.984 3.8281-22.484 3.8438-7.5 11.453-7.5 7.6719 0 11.5 7.5 3.8438 7.5 3.8438 22.484 0 15.047-3.8438 22.531-3.8281 7.5-11.5 7.5zm0 7.8125q12.266 0 18.734-9.7031 6.4688-9.6875 6.4688-28.141 0-18.406-6.4688-28.109-6.4688-9.6875-18.734-9.6875-12.25 0-18.719 9.6875-6.4688 9.7031-6.4688 28.109 0 18.453 6.4688 28.141 6.4688 9.7031 18.719 9.7031z"/>
<path id="p" d="m44.281 53.078v-8.5q-3.7969 1.9531-7.9062 2.9219-4.0938 0.98438-8.5 0.98438-6.6875 0-10.031-2.0469t-3.3438-6.1562q0-3.125 2.3906-4.9062t9.625-3.3906l3.0781-0.6875q9.5625-2.0469 13.594-5.7812t4.0312-10.422q0-7.625-6.0312-12.078-6.0312-4.4375-16.578-4.4375-4.3906 0-9.1562 0.85938t-10.031 2.5625v9.2812q4.9844-2.5938 9.8125-3.8906 4.8281-1.2812 9.5781-1.2812 6.3438 0 9.75 2.1719 3.4219 2.1719 3.4219 6.125 0 3.6562-2.4688 5.6094-2.4531 1.9531-10.812 3.7656l-3.125 0.73438q-8.3438 1.75-12.062 5.3906-3.7031 3.6406-3.7031 9.9844 0 7.7188 5.4688 11.906 5.4688 4.2031 15.531 4.2031 4.9688 0 9.3594-0.73438 4.4062-0.71875 8.1094-2.1875z"/>
</defs>
<g transform="translate(82.872 664.58) scale(.1 -.1)">
<use xlink:href="#c"/>
<use x="63.623047" xlink:href="#w"/>
<use x="127.246094" xlink:href="#x"/>
<use x="190.869141" xlink:href="#ad"/>
<use x="254.492188" xlink:href="#p"/>
</g>
</g>
<g clip-path="url(#a)">
<defs>
<path id="at" d="m11.719 12.406h10.297v-8.4062l-8-15.625h-6.2969l4 15.625z"/>
</defs>
<g transform="translate(115.77 664.58) scale(.1 -.1)">
<use xlink:href="#at"/>
</g>
</g>
<g clip-path="url(#a)">
<g transform="translate(136.65 664.58) scale(.1 -.1)">
<use xlink:href="#d"/>
</g>
</g>
<g clip-path="url(#a)">
<defs>
<path id="aa" d="m45.406 46.391v29.594h8.9844v-75.984h-8.9844v8.2031q-2.8281-4.875-7.1562-7.25-4.3125-2.375-10.375-2.375-9.9062 0-16.141 7.9062-6.2188 7.9219-6.2188 20.812t6.2188 20.797q6.2344 7.9062 16.141 7.9062 6.0625 0 10.375-2.375 4.3281-2.3594 7.1562-7.2344zm-30.609-19.094q0-9.9062 4.0781-15.547t11.203-5.6406 11.219 5.6406q4.1094 5.6406 4.1094 15.547t-4.1094 15.547q-4.0938 5.6406-11.219 5.6406t-11.203-5.6406-4.0781-15.547z"/>
<path id="s" d="m30.609 48.391q-7.2188 0-11.422-5.6406t-4.2031-15.453 4.1719-15.453q4.1875-5.6406 11.453-5.6406 7.1875 0 11.375 5.6562 4.2031 5.6719 4.2031 15.438 0 9.7188-4.2031 15.406-4.1875 5.6875-11.375 5.6875zm0 7.6094q11.719 0 18.406-7.625 6.7031-7.6094 6.7031-21.078 0-13.422-6.7031-21.078-6.6875-7.6406-18.406-7.6406-11.766 0-18.438 7.6406-6.6562 7.6562-6.6562 21.078 0 13.469 6.6562 21.078 6.6719 7.625 18.438 7.625z"/>
<path id="av" d="m8.5 21.578v33.109h8.9844v-32.766q0-7.7656 3.0156-11.656 3.0312-3.875 9.0938-3.875 7.2656 0 11.484 4.6406 4.2344 4.6406 4.2344 12.656v31h8.9844v-54.688h-8.9844v8.4062q-3.2656-4.9844-7.5938-7.4062-4.3125-2.4219-10.031-2.4219-9.4219 0-14.312 5.8594-4.875 5.8594-4.875 17.141z"/>
</defs>
<g transform="translate(139.69 664.58) scale(.1 -.1)">
<use xlink:href="#aa"/>
<use x="63.476562" xlink:href="#i"/>
<use x="91.259766" xlink:href="#p"/>
<use x="143.359375" xlink:href="#d"/>
<use x="204.638672" xlink:href="#p"/>
<use x="256.738281" xlink:href="#o"/>
<use x="295.947266" xlink:href="#f"/>
<use x="334.810547" xlink:href="#s"/>
<use x="395.992188" xlink:href="#av"/>
<use x="459.371094" xlink:href="#p"/>
</g>
</g>
<g clip-path="url(#a)">
<defs>
<path id="aw" d="m18.109 8.2031v-29h-9.0312v75.484h9.0312v-8.2969q2.8438 4.875 7.1562 7.2344 4.3281 2.375 10.328 2.375 9.9688 0 16.188-7.9062 6.2344-7.9062 6.2344-20.797t-6.2344-20.812q-6.2188-7.9062-16.188-7.9062-6 0-10.328 2.375-4.3125 2.375-7.1562 7.25zm30.578 19.094q0 9.9062-4.0781 15.547t-11.203 5.6406q-7.1406 0-11.219-5.6406t-4.0781-15.547 4.0781-15.547 11.219-5.6406q7.125 0 11.203 5.6406t4.0781 15.547z"/>
<path id="al" d="m45.406 27.984q0 9.7656-4.0312 15.125-4.0156 5.375-11.297 5.375-7.2188 0-11.25-5.375-4.0312-5.3594-4.0312-15.125 0-9.7188 4.0312-15.094t11.25-5.375q7.2812 0 11.297 5.375 4.0312 5.375 4.0312 15.094zm8.9844-21.203q0-13.953-6.2031-20.766-6.1875-6.8125-18.984-6.8125-4.7344 0-8.9375 0.70312t-8.1562 2.1719v8.7344q3.9531-2.1406 7.8125-3.1562 3.8594-1.0312 7.8594-1.0312 8.8438 0 13.234 4.6094t4.3906 13.938v4.4531q-2.7812-4.8438-7.125-7.2344t-10.406-2.3906q-10.047 0-16.203 7.6562-6.1562 7.6719-6.1562 20.328 0 12.688 6.1562 20.344 6.1562 7.6719 16.203 7.6719 6.0625 0 10.406-2.3906t7.125-7.2188v8.2969h8.9844z"/>
</defs>
<g transform="translate(176.59 664.58) scale(.1 -.1)">
<use xlink:href="#aw"/>
<use x="63.476562" xlink:href="#d"/>
<use x="124.755859" xlink:href="#i"/>
<use x="152.539062" xlink:href="#f"/>
<use x="193.652344" xlink:href="#i"/>
<use x="221.435547" xlink:href="#h"/>
<use x="284.814453" xlink:href="#al"/>
</g>
</g>
<g clip-path="url(#a)">
<defs>
<path id="ae" d="m37.109 75.984v-7.4844h-8.5938q-4.8281 0-6.7188-1.9531-1.875-1.9531-1.875-7.0312v-4.8281h14.797v-6.9844h-14.797v-47.703h-9.0312v47.703h-8.5938v6.9844h8.5938v3.8125q0 9.125 4.25 13.297 4.25 4.1875 13.469 4.1875z"/>
</defs>
<g transform="translate(221.12 664.58) scale(.1 -.1)">
<use xlink:href="#s"/>
<use x="61.181641" xlink:href="#ae"/>
</g>
</g>
<g clip-path="url(#a)">
<defs>
<path id="au" d="m32.172-5.0781q-3.7969-9.7656-7.4219-12.734-3.6094-2.9844-9.6562-2.9844h-7.1875v7.5156h5.2812q3.7031 0 5.75 1.7656 2.0625 1.75 4.5469 8.2969l1.6094 4.0938-22.109 53.812h9.5156l17.094-42.766 17.094 42.766h9.5156z"/>
</defs>
<g transform="translate(247.26 664.58) scale(.1 -.1)">
<use xlink:href="#ah"/>
<use x="75.195312" xlink:href="#d"/>
<use x="136.474609" xlink:href="#f"/>
<use x="175.837891" xlink:href="#f"/>
<use x="216.951172" xlink:href="#au"/>
</g>
</g>
<g clip-path="url(#a)">
<g transform="translate(276.04 664.58) scale(.1 -.1)">
<use xlink:href="#t"/>
<use x="64.982422" xlink:href="#e"/>
<use x="126.505859" xlink:href="#d"/>
<use x="187.785156" xlink:href="#p"/>
<use x="239.884766" xlink:href="#s"/>
<use x="301.066406" xlink:href="#h"/>
<use x="364.445312" xlink:href="#e"/>
<use x="425.96875" xlink:href="#f"/>
</g>
</g>
<g clip-path="url(#a)">
<g transform="translate(331.5 664.58) scale(.1 -.1)">
<use xlink:href="#d"/>
<use x="61.279297" xlink:href="#h"/>
<use x="124.658203" xlink:href="#aa"/>
</g>
</g>
<g clip-path="url(#a)">
<defs>
<path id="as" d="m19.672 34.812v-26.703h15.828q7.9531 0 11.781 3.2969 3.8438 3.2969 3.8438 10.078 0 6.8438-3.8438 10.078-3.8281 3.25-11.781 3.25zm0 29.984v-21.969h14.609q7.2188 0 10.75 2.7031 3.5469 2.7188 3.5469 8.2812 0 5.5156-3.5469 8.25-3.5312 2.7344-10.75 2.7344zm-9.8594 8.1094h25.203q11.281 0 17.375-4.6875 6.1094-4.6875 6.1094-13.328 0-6.7031-3.125-10.656t-9.1875-4.9219q7.2812-1.5625 11.312-6.5312 4.0312-4.9531 4.0312-12.375 0-9.7656-6.6406-15.094-6.6406-5.3125-18.906-5.3125h-26.172z"/>
<path id="am" d="m48.688 27.297q0 9.9062-4.0781 15.547t-11.203 5.6406q-7.1406 0-11.219-5.6406t-4.0781-15.547 4.0781-15.547 11.219-5.6406q7.125 0 11.203 5.6406t4.0781 15.547zm-30.578 19.094q2.8438 4.875 7.1562 7.2344 4.3281 2.375 10.328 2.375 9.9688 0 16.188-7.9062 6.2344-7.9062 6.2344-20.797t-6.2344-20.812q-6.2188-7.9062-16.188-7.9062-6 0-10.328 2.375-4.3125 2.375-7.1562 7.25v-8.2031h-9.0312v75.984h9.0312z"/>
</defs>
<g transform="translate(365.71 664.58) scale(.1 -.1)">
<use xlink:href="#as"/>
<use x="68.603516" xlink:href="#d"/>
<use x="129.882812" xlink:href="#f"/>
<use x="170.996094" xlink:href="#am"/>
<use x="234.472656" xlink:href="#d"/>
<use x="295.751953" xlink:href="#f"/>
<use x="336.865234" xlink:href="#d"/>
</g>
</g>
<g clip-path="url(#a)">
<defs>
<path id="an" d="m3.3281 72.906h9.9531l15.328-61.625 15.281 61.625h11.094l15.328-61.625 15.281 61.625h10.016l-18.312-72.906h-12.406l-15.375 63.281-15.531-63.281h-12.406z"/>
</defs>
<g transform="translate(414.75 664.58) scale(.1 -.1)">
<use xlink:href="#an"/>
<use x="92.501953" xlink:href="#d"/>
<use x="153.78125" xlink:href="#j"/>
<use x="181.564453" xlink:href="#o"/>
<use x="220.773438" xlink:href="#e"/>
<use x="282.296875" xlink:href="#f"/>
<use x="323.410156" xlink:href="#p"/>
</g>
</g>
<g clip-path="url(#a)">
<g transform="translate(479.59 664.58) scale(.1 -.1)">
<use xlink:href="#d"/>
<use x="61.279297" xlink:href="#o"/>
</g>
</g>
<g clip-path="url(#a)">
<g transform="translate(530.7 664.58) scale(.1 -.1)">
<use xlink:href="#o"/>
<use x="39.208984" xlink:href="#v"/>
<use x="102.587891" xlink:href="#e"/>
</g>
</g>
<g clip-path="url(#a)">
<defs>
<path id="af" d="m48.781 52.594v-8.4062q-3.8125 2.1094-7.6406 3.1562t-7.7344 1.0469q-8.75 0-13.594-5.5469-4.8281-5.5312-4.8281-15.547t4.8281-15.562q4.8438-5.5312 13.594-5.5312 3.9062 0 7.7344 1.0469t7.6406 3.1562v-8.3125q-3.7656-1.75-7.7969-2.625-4.0156-0.89062-8.5625-0.89062-12.359 0-19.641 7.7656-7.2656 7.7656-7.2656 20.953 0 13.375 7.3438 21.031 7.3594 7.6719 20.156 7.6719 4.1406 0 8.0938-0.85938 3.9531-0.84375 7.6719-2.5469z"/>
</defs>
<g transform="translate(579.13 664.58) scale(.1 -.1)">
<use xlink:href="#d"/>
<use x="61.279297" xlink:href="#h"/>
<use x="124.658203" xlink:href="#af"/>
<use x="179.638672" xlink:href="#v"/>
<use x="243.017578" xlink:href="#s"/>
<use x="304.199219" xlink:href="#f"/>
</g>
</g>
<g clip-path="url(#a)">
<defs>
<path id="ak" d="m9.0781 75.984h9.0312v-44.875l26.812 23.578h11.469l-29-25.578 30.234-29.109h-11.719l-27.797 26.703v-26.703h-9.0312z"/>
</defs>
<g transform="translate(645.32 664.58) scale(.1 -.1)">
<use xlink:href="#aa"/>
<use x="63.476562" xlink:href="#e"/>
<use x="125" xlink:href="#p"/>
<use x="177.099609" xlink:href="#ak"/>
</g>
</g>
<g clip-path="url(#a)">
<g transform="translate(712.84 664.58) scale(.1 -.1)">
<use xlink:href="#j"/>
<use x="27.783203" xlink:href="#e"/>
<use x="89.306641" xlink:href="#ae"/>
<use x="122.761719" xlink:href="#o"/>
</g>
</g>
<g clip-path="url(#a)">
<g transform="translate(779.8 664.58) scale(.1 -.1)">
<use xlink:href="#o"/>
<use x="39.208984" xlink:href="#v"/>
<use x="102.587891" xlink:href="#e"/>
</g>
</g>
<g clip-path="url(#a)">
<defs>
<path id="aj" d="m4.2031 54.688h8.9844l11.234-42.672 11.172 42.672h10.594l11.234-42.672 11.188 42.672h8.9844l-14.312-54.688h-10.594l-11.766 44.828-11.812-44.828h-10.609z"/>
</defs>
<g transform="translate(837.96 664.58) scale(.1 -.1)">
<use xlink:href="#h"/>
<use x="63.378906" xlink:href="#e"/>
<use x="124.902344" xlink:href="#o"/>
<use x="164.111328" xlink:href="#aj"/>
<use x="245.898438" xlink:href="#s"/>
<use x="307.080078" xlink:href="#f"/>
<use x="348.193359" xlink:href="#ak"/>
</g>
</g>
<g clip-path="url(#a)">
<g transform="translate(907.38 664.58) scale(.1 -.1)">
<use xlink:href="#p"/>
<use x="52.099609" xlink:href="#e"/>
<use x="113.623047" xlink:href="#d"/>
<use x="174.902344" xlink:href="#f"/>
<use x="213.765625" xlink:href="#af"/>
<use x="268.746094" xlink:href="#v"/>
<use x="332.125" xlink:href="#i"/>
<use x="359.908203" xlink:href="#h"/>
<use x="423.287109" xlink:href="#al"/>
</g>
</g>
<g clip-path="url(#a)">
<g transform="translate(1001.5 664.58) scale(.1 -.1)">
<use xlink:href="#ae"/>
<use x="35.205078" xlink:href="#s"/>
<use x="96.386719" xlink:href="#f"/>
</g>
</g>
<g clip-path="url(#a)">
<g transform="translate(1077.9 664.58) scale(.1 -.1)">
<use xlink:href="#h"/>
<use x="63.378906" xlink:href="#e"/>
<use x="124.902344" xlink:href="#aj"/>
</g>
</g>
<g clip-path="url(#a)">
<g transform="translate(1157.9 664.58) scale(.1 -.1)">
<use xlink:href="#i"/>
<use x="27.783203" xlink:href="#aa"/>
<use x="91.259766" xlink:href="#e"/>
<use x="152.783203" xlink:href="#d"/>
<use x="214.0625" xlink:href="#p"/>
</g>
</g>
<g clip-path="url(#a)">
<defs>
<path id="g" d="m10.688 12.406h10.312v-12.406h-10.312z"/>
</defs>
<g transform="translate(1255.9 664.58) scale(.1 -.1)">
<use xlink:href="#g"/>
</g>
</g>
<g clip-path="url(#a)">
<g transform="translate(579.1 34.275) scale(.1 -.1)">
<use xlink:href="#c"/>
<use x="63.623047" xlink:href="#g"/>
<use x="95.410156" xlink:href="#c"/>
</g>
</g>
<g clip-path="url(#a)">
<defs>
<path id="m" d="m19.188 8.2969h34.422v-8.2969h-46.281v8.2969q5.6094 5.8125 15.297 15.594 9.7031 9.7969 12.188 12.641 4.7344 5.3125 6.6094 9 1.8906 3.6875 1.8906 7.25 0 5.8125-4.0781 9.4688-4.0781 3.6719-10.625 3.6719-4.6406 0-9.7969-1.6094-5.1406-1.6094-11-4.8906v9.9688q5.9531 2.3906 11.125 3.6094 5.1875 1.2188 9.4844 1.2188 11.328 0 18.062-5.6719 6.7344-5.6562 6.7344-15.125 0-4.5-1.6875-8.5312-1.6719-4.0156-6.125-9.4844-1.2188-1.4219-7.7656-8.1875-6.5312-6.7656-18.453-18.922z"/>
</defs>
<g transform="translate(579.1 161.46) scale(.1 -.1)">
<use xlink:href="#c"/>
<use x="63.623047" xlink:href="#g"/>
<use x="95.410156" xlink:href="#m"/>
</g>
</g>
<g clip-path="url(#a)">
<defs>
<path id="z" d="m37.797 64.312-24.906-38.922h24.906zm-2.5938 8.5938h12.406v-47.516h10.406v-8.2031h-10.406v-17.188h-9.8125v17.188h-32.906v9.5156z"/>
</defs>
<g transform="translate(69.492 414.76) scale(.1 -.1)">
<use xlink:href="#c"/>
<use x="63.623047" xlink:href="#g"/>
<use x="95.410156" xlink:href="#z"/>
</g>
</g>
<g clip-path="url(#a)">
<defs>
<path id="y" d="m10.797 72.906h38.719v-8.3125h-29.688v-17.859q2.1406 0.73438 4.2812 1.0938 2.1562 0.35938 4.3125 0.35938 12.203 0 19.328-6.6875 7.1406-6.6875 7.1406-18.109 0-11.766-7.3281-18.297-7.3281-6.5156-20.656-6.5156-4.5938 0-9.3594 0.78125-4.75 0.78125-9.8281 2.3438v9.9219q4.3906-2.3906 9.0781-3.5625t9.9062-1.1719q8.4531 0 13.375 4.4375 4.9375 4.4375 4.9375 12.062 0 7.6094-4.9375 12.047-4.9219 4.4531-13.375 4.4531-3.9531 0-7.8906-0.875-3.9219-0.875-8.0156-2.7344z"/>
</defs>
<g transform="translate(299.53 288.32) scale(.1 -.1)">
<use xlink:href="#c"/>
<use x="63.623047" xlink:href="#g"/>
<use x="95.410156" xlink:href="#y"/>
</g>
</g>
<g clip-path="url(#a)">
<defs>
<path id="ac" d="m33.016 40.375q-6.6406 0-10.531-4.5469-3.875-4.5312-3.875-12.438 0-7.8594 3.875-12.438 3.8906-4.5625 10.531-4.5625t10.516 4.5625q3.875 4.5781 3.875 12.438 0 7.9062-3.875 12.438-3.875 4.5469-10.516 4.5469zm19.578 30.922v-8.9844q-3.7188 1.75-7.5 2.6719-3.7812 0.9375-7.5 0.9375-9.7656 0-14.922-6.5938-5.1406-6.5938-5.875-19.922 2.875 4.25 7.2188 6.5156 4.3594 2.2656 9.5781 2.2656 10.984 0 17.359-6.6719 6.375-6.6562 6.375-18.125 0-11.234-6.6406-18.031-6.6406-6.7812-17.672-6.7812-12.656 0-19.344 9.6875-6.6875 9.7031-6.6875 28.109 0 17.281 8.2031 27.562t22.016 10.281q3.7188 0 7.5-0.73438t7.8906-2.1875z"/>
</defs>
<g transform="translate(712.99 540.53) scale(.1 -.1)">
<use xlink:href="#c"/>
<use x="63.623047" xlink:href="#g"/>
<use x="95.410156" xlink:href="#ac"/>
</g>
</g>
<g clip-path="url(#a)">
<g transform="translate(815.18 414.76) scale(.1 -.1)">
<use xlink:href="#c"/>
<use x="63.623047" xlink:href="#g"/>
<use x="95.410156" xlink:href="#x"/>
</g>
</g>
<g clip-path="url(#a)">
<defs>
<path id="ab" d="m31.781 34.625q-7.0312 0-11.062-3.7656-4.0156-3.7656-4.0156-10.344 0-6.5938 4.0156-10.359 4.0312-3.7656 11.062-3.7656t11.078 3.7812q4.0625 3.7969 4.0625 10.344 0 6.5781-4.0312 10.344-4.0156 3.7656-11.109 3.7656zm-9.8594 4.1875q-6.3438 1.5625-9.8906 5.9062-3.5312 4.3594-3.5312 10.609 0 8.7344 6.2188 13.812 6.2344 5.0781 17.062 5.0781 10.891 0 17.094-5.0781t6.2031-13.812q0-6.25-3.5469-10.609-3.5312-4.3438-9.8281-5.9062 7.125-1.6562 11.094-6.5 3.9844-4.8281 3.9844-11.797 0-10.609-6.4688-16.281-6.4688-5.6562-18.531-5.6562-12.047 0-18.531 5.6562-6.4688 5.6719-6.4688 16.281 0 6.9688 4 11.797 4.0156 4.8438 11.141 6.5zm-3.6094 15.578q0-5.6562 3.5312-8.8281 3.5469-3.1719 9.9375-3.1719 6.3594 0 9.9375 3.1719 3.5938 3.1719 3.5938 8.8281 0 5.6719-3.5938 8.8438-3.5781 3.1719-9.9375 3.1719-6.3906 0-9.9375-3.1719-3.5312-3.1719-3.5312-8.8438z"/>
</defs>
<g transform="translate(923.76 540.53) scale(.1 -.1)">
<use xlink:href="#c"/>
<use x="63.623047" xlink:href="#g"/>
<use x="95.410156" xlink:href="#ab"/>
</g>
</g>
<g clip-path="url(#a)">
<g transform="translate(1123.4 414.76) scale(.1 -.1)">
<use xlink:href="#c"/>
<use x="63.623047" xlink:href="#g"/>
<use x="95.410156" xlink:href="#w"/>
</g>
</g>
<g clip-path="url(#a)">
<g transform="translate(997.23 540.53) scale(.1 -.1)">
<use xlink:href="#c"/>
<use x="63.623047" xlink:href="#g"/>
<use x="95.410156" xlink:href="#c"/>
<use x="159.033203" xlink:href="#c"/>
</g>
</g>
<g clip-path="url(#a)">
<g transform="translate(1077.1 540.53) scale(.1 -.1)">
<use xlink:href="#c"/>
<use x="63.623047" xlink:href="#g"/>
<use x="95.410156" xlink:href="#c"/>
<use x="159.033203" xlink:href="#m"/>
</g>
</g>
<g clip-path="url(#a)">
<defs>
<path id="n" d="m40.578 39.312q7.0781-1.5156 11.047-6.3125 3.9844-4.7812 3.9844-11.812 0-10.781-7.4219-16.703-7.4219-5.9062-21.094-5.9062-4.5781 0-9.4375 0.90625t-10.031 2.7188v9.5156q4.0938-2.3906 8.9688-3.6094 4.8906-1.2188 10.219-1.2188 9.2656 0 14.125 3.6562t4.8594 10.641q0 6.4531-4.5156 10.078-4.5156 3.6406-12.562 3.6406h-8.5v8.1094h8.8906q7.2656 0 11.125 2.9062t3.8594 8.375q0 5.6094-3.9844 8.6094-3.9688 3.0156-11.391 3.0156-4.0625 0-8.7031-0.89062-4.6406-0.875-10.203-2.7188v8.7812q5.625 1.5625 10.531 2.3438t9.25 0.78125q11.234 0 17.766-5.1094 6.5469-5.0938 6.5469-13.781 0-6.0625-3.4688-10.234t-9.8594-5.7812z"/>
</defs>
<g transform="translate(1160.1 540.53) scale(.1 -.1)">
<use xlink:href="#c"/>
<use x="63.623047" xlink:href="#g"/>
<use x="95.410156" xlink:href="#c"/>
<use x="159.033203" xlink:href="#n"/>
</g>
</g>
<g clip-path="url(#a)">
<g transform="translate(776.87 540.53) scale(.1 -.1)">
<use xlink:href="#c"/>
<use x="63.623047" xlink:href="#g"/>
<use x="95.410156" xlink:href="#c"/>
<use x="159.033203" xlink:href="#z"/>
</g>
</g>
<g clip-path="url(#a)">
<g transform="translate(847.13 540.53) scale(.1 -.1)">
<use xlink:href="#c"/>
<use x="63.623047" xlink:href="#g"/>
<use x="95.410156" xlink:href="#c"/>
<use x="159.033203" xlink:href="#y"/>
</g>
</g>
<g clip-path="url(#a)">
<g transform="translate(141.36 414.76) scale(.1 -.1)">
<use xlink:href="#c"/>
<use x="63.623047" xlink:href="#g"/>
<use x="95.410156" xlink:href="#c"/>
<use x="159.033203" xlink:href="#ac"/>
</g>
</g>
<g clip-path="url(#a)">
<g transform="translate(182.87 540.53) scale(.1 -.1)">
<use xlink:href="#c"/>
<use x="63.623047" xlink:href="#g"/>
<use x="95.410156" xlink:href="#c"/>
<use x="159.033203" xlink:href="#x"/>
</g>
</g>
<g clip-path="url(#a)">
<g transform="translate(303.03 414.76) scale(.1 -.1)">
<use xlink:href="#c"/>
<use x="63.623047" xlink:href="#g"/>
<use x="95.410156" xlink:href="#c"/>
<use x="159.033203" xlink:href="#ab"/>
</g>
</g>
<g clip-path="url(#a)">
<g transform="translate(558.11 414.76) scale(.1 -.1)">
<use xlink:href="#c"/>
<use x="63.623047" xlink:href="#g"/>
<use x="95.410156" xlink:href="#c"/>
<use x="159.033203" xlink:href="#w"/>
</g>
</g>
<g clip-path="url(#a)">
<g transform="translate(473.49 540.53) scale(.1 -.1)">
<use xlink:href="#c"/>
<use x="63.623047" xlink:href="#g"/>
<use x="95.410156" xlink:href="#m"/>
<use x="159.033203" xlink:href="#ad"/>
</g>
</g>
<g clip-path="url(#a)">
<g transform="translate(527.78 540.53) scale(.1 -.1)">
<use xlink:href="#c"/>
<use x="63.623047" xlink:href="#g"/>
<use x="95.410156" xlink:href="#m"/>
<use x="159.033203" xlink:href="#c"/>
</g>
</g>
<g clip-path="url(#a)">
<g transform="translate(585.26 540.53) scale(.1 -.1)">
<use xlink:href="#c"/>
<use x="63.623047" xlink:href="#g"/>
<use x="95.410156" xlink:href="#m"/>
<use x="159.033203" xlink:href="#m"/>
</g>
</g>
<g clip-path="url(#a)">
<g transform="translate(645.94 540.53) scale(.1 -.1)">
<use xlink:href="#c"/>
<use x="63.623047" xlink:href="#g"/>
<use x="95.410156" xlink:href="#m"/>
<use x="159.033203" xlink:href="#n"/>
</g>
</g>
<g clip-path="url(#a)">
<g transform="translate(214.81 540.53) scale(.1 -.1)">
<use xlink:href="#c"/>
<use x="63.623047" xlink:href="#g"/>
<use x="95.410156" xlink:href="#m"/>
<use x="159.033203" xlink:href="#z"/>
</g>
</g>
<g clip-path="url(#a)">
<g transform="translate(269.1 540.53) scale(.1 -.1)">
<use xlink:href="#c"/>
<use x="63.623047" xlink:href="#g"/>
<use x="95.410156" xlink:href="#m"/>
<use x="159.033203" xlink:href="#y"/>
</g>
</g>
<g clip-path="url(#a)">
<g transform="translate(329.78 540.53) scale(.1 -.1)">
<use xlink:href="#c"/>
<use x="63.623047" xlink:href="#g"/>
<use x="95.410156" xlink:href="#m"/>
<use x="159.033203" xlink:href="#ac"/>
</g>
</g>
<g clip-path="url(#a)">
<g transform="translate(398.44 540.53) scale(.1 -.1)">
<use xlink:href="#c"/>
<use x="63.623047" xlink:href="#g"/>
<use x="95.410156" xlink:href="#m"/>
<use x="159.033203" xlink:href="#x"/>
</g>
</g>
<g clip-path="url(#a)">
<g transform="translate(128.58 540.53) scale(.1 -.1)">
<use xlink:href="#c"/>
<use x="63.623047" xlink:href="#g"/>
<use x="95.410156" xlink:href="#m"/>
<use x="159.033203" xlink:href="#ab"/>
</g>
</g>
<g clip-path="url(#a)">
<g transform="translate(154.13 540.53) scale(.1 -.1)">
<use xlink:href="#c"/>
<use x="63.623047" xlink:href="#g"/>
<use x="95.410156" xlink:href="#m"/>
<use x="159.033203" xlink:href="#w"/>
</g>
</g>
<g clip-path="url(#a)">
<g transform="translate(48.746 540.53) scale(.1 -.1)">
<use xlink:href="#c"/>
<use x="63.623047" xlink:href="#g"/>
<use x="95.410156" xlink:href="#n"/>
<use x="159.033203" xlink:href="#ad"/>
</g>
</g>
<g clip-path="url(#a)">
<g transform="translate(58.327 540.53) scale(.1 -.1)">
<use xlink:href="#c"/>
<use x="63.623047" xlink:href="#g"/>
<use x="95.410156" xlink:href="#n"/>
<use x="159.033203" xlink:href="#c"/>
</g>
</g>
<g clip-path="url(#a)">
<g transform="translate(71.101 540.53) scale(.1 -.1)">
<use xlink:href="#c"/>
<use x="63.623047" xlink:href="#g"/>
<use x="95.410156" xlink:href="#n"/>
<use x="159.033203" xlink:href="#m"/>
</g>
</g>
<g clip-path="url(#a)">
<g transform="translate(87.068 540.53) scale(.1 -.1)">
<use xlink:href="#c"/>
<use x="63.623047" xlink:href="#g"/>
<use x="95.410156" xlink:href="#n"/>
<use x="159.033203" xlink:href="#n"/>
</g>
</g>
<g clip-path="url(#a)">
<g transform="translate(106.23 540.53) scale(.1 -.1)">
<use xlink:href="#c"/>
<use x="63.623047" xlink:href="#g"/>
<use x="95.410156" xlink:href="#n"/>
<use x="159.033203" xlink:href="#z"/>
</g>
</g>
<g clip-path="url(#a)">
<g transform="translate(1246.3 540.53) scale(.1 -.1)">
<use xlink:href="#c"/>
<use x="63.623047" xlink:href="#g"/>
<use x="95.410156" xlink:href="#n"/>
<use x="159.033203" xlink:href="#y"/>
</g>
</g>
<defs>
<clipPath id="a">
<rect width="1317.3" height="693.33"/>
</clipPath>
</defs>
</svg>
