<?xml version="1.0" encoding="UTF-8"?>
<!DOCTYPE svg  PUBLIC '-//W3C//DTD SVG 1.1//EN'  'http://www.w3.org/Graphics/SVG/1.1/DTD/svg11.dtd'>
<svg width="2026.7pt" height="1066.7pt" version="1.1" viewBox="0 0 2026.7 1066.7" xmlns="http://www.w3.org/2000/svg" xmlns:xlink="http://www.w3.org/1999/xlink">
<defs>
<style type="text/css">*{stroke-linecap:butt;stroke-linejoin:round;}</style>
</defs>
<path d="m0 1066.7h2026.7v-1066.7h-2026.7z" fill="#fff"/>
<g fill="none" stroke="#000">
<path d="m685.97 48.485-581.33 195.67" clip-path="url(#a)"/>
<path d="m685.97 48.485-503.66 778.85" clip-path="url(#a)"/>
<path d="m685.97 48.485-480.85 390.84" clip-path="url(#a)"/>
<path d="m685.97 48.485-308.25 778.85" clip-path="url(#a)"/>
<path d="m685.97 48.485-293.94 390.84" clip-path="url(#a)"/>
<path d="m685.97 48.485-104.26 778.85" clip-path="url(#a)"/>
<path d="m685.97 48.485-6.9101 585.36" clip-path="url(#a)"/>
<path d="m685.97 48.485 322.08 195.67" clip-path="url(#a)"/>
<path d="m685.97 48.485 752.54 778.85" clip-path="url(#a)"/>
<path d="m685.97 48.485 952.6 390.84" clip-path="url(#a)"/>
<path d="m685.97 48.485-522.99 778.85" clip-path="url(#a)"/>
<path d="m685.97 48.485 97.594 778.85" clip-path="url(#a)"/>
<path d="m685.97 48.485 677.38 778.85" clip-path="url(#a)"/>
<path d="m104.65 244.15-12.526 583.19" clip-path="url(#a)"/>
<path d="m104.65 244.15-6.0842 583.19" clip-path="url(#a)"/>
<path d="m104.65 244.15 2.5052 583.19" clip-path="url(#a)"/>
<path d="m104.65 244.15 16.105 195.17" clip-path="url(#a)"/>
<path d="m182.31 827.34v190.84" clip-path="url(#a)"/>
<path d="m205.13 439.33-1.3421 388.01" clip-path="url(#a)"/>
<path d="m205.13 439.33 22.279 388.01" clip-path="url(#a)"/>
<path d="m205.13 439.33 92.068 194.51" clip-path="url(#a)"/>
<path d="m205.13 439.33-113 388.01" clip-path="url(#a)" stroke-dasharray="3.7,1.6"/>
<path d="m377.72 827.34v190.84" clip-path="url(#a)"/>
<path d="m392.03 439.33 41.515 388.01" clip-path="url(#a)"/>
<path d="m392.03 439.33 123.11 194.51" clip-path="url(#a)"/>
<path d="m392.03 439.33-164.63 388.01" clip-path="url(#a)" stroke-dasharray="3.7,1.6"/>
<path d="m581.72 827.34v190.84" clip-path="url(#a)"/>
<path d="m679.06 633.84-50.105 193.5" clip-path="url(#a)"/>
<path d="m679.06 633.84-0.71578 193.5" clip-path="url(#a)"/>
<path d="m679.06 633.84 50.821 193.5" clip-path="url(#a)"/>
<path d="m1008.1 244.15-139.67 195.17" clip-path="url(#a)"/>
<path d="m1008.1 244.15-50.552 583.19" clip-path="url(#a)"/>
<path d="m1008.1 244.15 11.721 583.19" clip-path="url(#a)"/>
<path d="m1008.1 244.15 178.5 195.17" clip-path="url(#a)"/>
<path d="m1438.5 827.34v190.84" clip-path="url(#a)"/>
<path d="m1638.6 439.33-122.76 388.01" clip-path="url(#a)"/>
<path d="m1638.6 439.33-43.305 388.01" clip-path="url(#a)"/>
<path d="m1638.6 439.33 166.06 194.51" clip-path="url(#a)"/>
<path d="m1515.8 827.34v190.84" clip-path="url(#a)"/>
<path d="m1595.3 827.34v190.84" clip-path="url(#a)"/>
<path d="m1804.6 633.84-127.77 193.5" clip-path="url(#a)"/>
<path d="m1804.6 633.84-44.021 193.5" clip-path="url(#a)"/>
<path d="m1804.6 633.84 41.873 193.5" clip-path="url(#a)"/>
<path d="m1804.6 633.84 129.91 193.5" clip-path="url(#a)"/>
<path d="m1676.9 827.34v190.84" clip-path="url(#a)"/>
<path d="m1760.6 827.34v190.84" clip-path="url(#a)"/>
<path d="m1846.5 827.34v190.84" clip-path="url(#a)"/>
<path d="m868.39 439.33v194.51" clip-path="url(#a)"/>
<path d="m957.5 827.34v190.84" clip-path="url(#a)"/>
<path d="m1019.8 827.34v190.84" clip-path="url(#a)"/>
<path d="m1186.6 439.33-102.36 388.01" clip-path="url(#a)"/>
<path d="m1186.6 439.33-1.4316 194.51" clip-path="url(#a)"/>
<path d="m1186.6 439.33 103.79 388.01" clip-path="url(#a)"/>
<path d="m1084.2 827.34v190.84" clip-path="url(#a)"/>
<path d="m1185.1 633.84-34.358 193.5" clip-path="url(#a)"/>
<path d="m1185.1 633.84 34.358 193.5" clip-path="url(#a)"/>
<path d="m1290.3 827.34v190.84" clip-path="url(#a)"/>
<path d="m1150.8 827.34v190.84" clip-path="url(#a)"/>
<path d="m1219.5 827.34v190.84" clip-path="url(#a)"/>
<path d="m868.39 633.84-28.989 193.5" clip-path="url(#a)"/>
<path d="m868.39 633.84 28.989 193.5" clip-path="url(#a)"/>
<path d="m839.4 827.34v190.84" clip-path="url(#a)"/>
<path d="m897.38 827.34v190.84" clip-path="url(#a)"/>
<path d="m628.96 827.34v190.84" clip-path="url(#a)"/>
<path d="m678.35 827.34v190.84" clip-path="url(#a)"/>
<path d="m729.88 827.34v190.84" clip-path="url(#a)"/>
<path d="m433.55 827.34-19.326 190.84" clip-path="url(#a)"/>
<path d="m433.55 827.34 19.326 190.84" clip-path="url(#a)"/>
<path d="m515.15 633.84-21.473 193.5" clip-path="url(#a)"/>
<path d="m515.15 633.84 21.473 193.5" clip-path="url(#a)"/>
<path d="m493.68 827.34v190.84" clip-path="url(#a)"/>
<path d="m536.62 827.34v190.84" clip-path="url(#a)"/>
<path d="m203.78 827.34v190.84" clip-path="url(#a)"/>
<path d="m227.4 827.34v190.84" clip-path="url(#a)"/>
<path d="m297.19 633.84-44.021 193.5" clip-path="url(#a)"/>
<path d="m297.19 633.84-16.105 193.5" clip-path="url(#a)"/>
<path d="m297.19 633.84 13.958 193.5" clip-path="url(#a)"/>
<path d="m297.19 633.84 46.168 193.5" clip-path="url(#a)"/>
<path d="m253.17 827.34v190.84" clip-path="url(#a)"/>
<path d="m281.09 827.34v190.84" clip-path="url(#a)"/>
<path d="m311.15 827.34v190.84" clip-path="url(#a)"/>
<path d="m343.36 827.34v190.84" clip-path="url(#a)"/>
<path d="m92.121 827.34v190.84" clip-path="url(#a)"/>
<path d="m98.563 827.34v190.84" clip-path="url(#a)"/>
<path d="m107.15 827.34v190.84" clip-path="url(#a)"/>
<path d="m120.75 439.33-28.631 388.01" clip-path="url(#a)" stroke-dasharray="3.7,1.6"/>
<path d="m120.75 439.33 3.5789 194.51" clip-path="url(#a)"/>
<path d="m120.75 439.33 25.052 388.01" clip-path="url(#a)"/>
<path d="m124.33 633.84-6.442 193.5" clip-path="url(#a)"/>
<path d="m124.33 633.84 6.442 193.5" clip-path="url(#a)"/>
<path d="m145.8 827.34v190.84" clip-path="url(#a)"/>
<path d="m117.89 827.34v190.84" clip-path="url(#a)"/>
<path d="m130.77 827.34v190.84" clip-path="url(#a)"/>
<path d="m162.98 827.34v190.84" clip-path="url(#a)"/>
<path d="m783.57 827.34v190.84" clip-path="url(#a)"/>
<path d="m1363.4 827.34v190.84" clip-path="url(#a)"/>
<path d="m1934.5 827.34v190.84" clip-path="url(#a)"/>
</g>
<path d="m394.46 153.22 5.7019-1.9192q2.2746-0.76561 1.509-3.0402l-2.4699-7.338q-0.76561-2.2746-3.0402-1.509l-5.7019 1.9192q-2.2746 0.76561-1.509 3.0402l2.4699 7.338q0.76561 2.2746 3.0402 1.509z" clip-path="url(#a)" fill="#fff" stroke="#fff"/>
<g clip-path="url(#a)">
<defs>
<path id="y" d="m9.8125 72.906h9.8594v-29.891h35.844v29.891h9.8594v-72.906h-9.8594v34.719h-35.844v-34.719h-9.8594z"/>
</defs>
<g transform="translate(393.16 149.37) rotate(-18.603) scale(.08 -.08)">
<use xlink:href="#y"/>
</g>
</g>
<path d="m438.2 443.19 2.4205-3.743q1.3033-2.0153-0.71207-3.3186l-6.5015-4.2044q-2.0153-1.3033-3.3186 0.71207l-2.4205 3.743q-1.3033 2.0153 0.71207 3.3186l6.5015 4.2044q2.0153 1.3033 3.3186-0.71207z" clip-path="url(#a)" fill="#fff" stroke="#fff"/>
<g clip-path="url(#a)">
<defs>
<path id="al" d="m9.8125 72.906h9.8594v-64.609h35.5v-8.2969h-45.359z"/>
</defs>
<g transform="translate(434.78 440.98) rotate(-57.11) scale(.08 -.08)">
<use xlink:href="#al"/>
</g>
</g>
<path d="m447.17 250.67 4.6686-3.7947q1.8624-1.5138 0.3486-3.3762l-4.8835-6.0081q-1.5138-1.8624-3.3762-0.3486l-4.6686 3.7947q-1.8624 1.5138-0.3486 3.3762l4.8835 6.0081q1.5138 1.8624 3.3762 0.3486z" clip-path="url(#a)" fill="#fff" stroke="#fff"/>
<g clip-path="url(#a)">
<g transform="translate(444.61 247.52) rotate(-39.105) scale(.08 -.08)">
<use xlink:href="#y"/>
</g>
</g>
<path d="m536.86 442.29 1.6404-4.1447q0.88321-2.2316-1.3484-3.1148l-7.1992-2.8493q-2.2316-0.88321-3.1148 1.3484l-1.6404 4.1447q-0.88321 2.2316 1.3484 3.1148l7.1992 2.8493q2.2316 0.88321 3.1148-1.3484z" clip-path="url(#a)" fill="#fff" stroke="#fff"/>
<g clip-path="url(#a)">
<g transform="translate(533.08 440.8) rotate(-68.407) scale(.08 -.08)">
<use xlink:href="#al"/>
</g>
</g>
<path d="m542.21 250.08 3.6161-4.8082q1.4425-1.9181-0.47557-3.3606l-6.1879-4.6537q-1.9181-1.4425-3.3606 0.47557l-3.6161 4.8082q-1.4425 1.9181 0.47557 3.3606l6.1879 4.6537q1.9181 1.4425 3.3606-0.47557z" clip-path="url(#a)" fill="#fff" stroke="#fff"/>
<g clip-path="url(#a)">
<g transform="translate(538.96 247.64) rotate(-53.055) scale(.08 -.08)">
<use xlink:href="#y"/>
</g>
</g>
<path d="m639.76 440.95 0.5914-4.4181q0.31842-2.3788-2.0604-2.6972l-7.6741-1.0272q-2.3788-0.31842-2.6972 2.0604l-0.5914 4.4181q-0.31842 2.3788 2.0604 2.6972l7.6741 1.0272q2.3788 0.31842 2.6972-2.0604z" clip-path="url(#a)" fill="#fff" stroke="#fff"/>
<g clip-path="url(#a)">
<g transform="translate(635.74 440.41) rotate(-82.376) scale(.08 -.08)">
<use xlink:href="#al"/>
</g>
</g>
<path d="m688.75 344.24 0.071016-6.0158q0.02833-2.3998-2.3715-2.4282l-7.742-0.091393q-2.3998-0.02833-2.4282 2.3715l-0.071016 6.0158q-0.02833 2.3998 2.3715 2.4282l7.742 0.091393q2.3998 0.02833 2.4282-2.3715z" clip-path="url(#a)" fill="#fff" stroke="#fff"/>
<g clip-path="url(#a)">
<g transform="translate(684.69 344.2) rotate(-89.324) scale(.08 -.08)">
<use xlink:href="#y"/>
</g>
</g>
<path d="m841.19 150.12 5.1418 3.1237q2.0512 1.2461 3.2973-0.80505l4.02-6.6171q1.2461-2.0512-0.80505-3.2973l-5.1418-3.1237q-2.0512-1.2461-3.2973 0.80505l-4.02 6.6171q-1.2461 2.0512 0.80505 3.2973z" clip-path="url(#a)" fill="#fff" stroke="#fff"/>
<g clip-path="url(#a)">
<g transform="translate(843.3 146.64) rotate(31.279) scale(.08 -.08)">
<use xlink:href="#y"/>
</g>
</g>
<path d="m1056.2 440.67 3.0973 3.2056q1.6676 1.726 3.3936 0.058323l5.568-5.3799q1.726-1.6676 0.058323-3.3936l-3.0973-3.2056q-1.6676-1.726-3.3936-0.058323l-5.568 5.3799q-1.726 1.6676-0.058323 3.3936z" clip-path="url(#a)" fill="#fff" stroke="#fff"/>
<g clip-path="url(#a)">
<g transform="translate(1059.1 437.84) rotate(45.985) scale(.08 -.08)">
<use xlink:href="#al"/>
</g>
</g>
<path d="m1157.1 248.57 5.566 2.2837q2.2204 0.911 3.1314-1.3094l2.9389-7.163q0.911-2.2204-1.3094-3.1314l-5.566-2.2837q-2.2204-0.911-3.1314 1.3094l-2.9389 7.163q-0.911 2.2204 1.3094 3.1314z" clip-path="url(#a)" fill="#fff" stroke="#fff"/>
<g clip-path="url(#a)">
<g transform="translate(1158.7 244.81) rotate(22.308) scale(.08 -.08)">
<use xlink:href="#y"/>
</g>
</g>
<path d="m428.05 443.84 3.264-4.8608q1.3379-1.9925-0.65456-3.3304l-6.4278-4.3162q-1.9925-1.3379-3.3304 0.65456l-3.264 4.8608q-1.3379 1.9925 0.65456 3.3304l6.4278 4.3162q1.9925 1.3379 3.3304-0.65456z" clip-path="url(#a)" fill="#fff" stroke="#fff"/>
<g clip-path="url(#a)">
<defs>
<path id="ai" d="m8.6875 72.906h9.9219v-44.297q0-11.719 4.2344-16.875 4.25-5.1406 13.781-5.1406 9.4688 0 13.719 5.1406 4.25 5.1562 4.25 16.875v44.297h9.9062v-45.516q0-14.25-7.0625-21.531-7.0469-7.2812-20.812-7.2812-13.828 0-20.891 7.2812-7.0469 7.2812-7.0469 21.531z"/>
</defs>
<g transform="translate(424.68 441.57) rotate(-56.119) scale(.08 -.08)">
<use xlink:href="#ai"/>
</g>
</g>
<path d="m728.18 435.79 0.72797 5.8096q0.2984 2.3814 2.6798 2.083l7.6824-0.96264q2.3814-0.2984 2.083-2.6798l-0.72797-5.8096q-0.2984-2.3814-2.6798-2.083l-7.6824 0.96264q-2.3814 0.2984-2.083 2.6798z" clip-path="url(#a)" fill="#fff" stroke="#fff"/>
<g clip-path="url(#a)">
<g transform="translate(732.22 435.28) rotate(82.858) scale(.08 -.08)">
<use xlink:href="#ai"/>
</g>
</g>
<path d="m1018 439.82 3.8423 4.4179q1.575 1.8109 3.3859 0.23594l5.8421-5.081q1.8109-1.575 0.23594-3.3859l-3.8423-4.4179q-1.575-1.8109-3.3859-0.23594l-5.8421 5.0809q-1.8109 1.575-0.23594 3.3859z" clip-path="url(#a)" fill="#fff" stroke="#fff"/>
<g clip-path="url(#a)">
<g transform="translate(1021.1 437.15) rotate(48.986) scale(.08 -.08)">
<use xlink:href="#ai"/>
</g>
</g>
<path d="m104.6 538.62 0.11752-5.4712q0.051538-2.3994-2.3479-2.451l-7.7407-0.16626q-2.3994-0.051537-2.451 2.3479l-0.11752 5.4712q-0.051537 2.3994 2.3479 2.451l7.7407 0.16626q2.3994 0.051537 2.451-2.3479z" clip-path="url(#a)" fill="#fff" stroke="#fff"/>
<g clip-path="url(#a)">
<defs>
<path id="q" d="m34.188 63.188-13.391-36.281h26.812zm-5.5781 9.7188h11.188l27.781-72.906h-10.25l-6.6406 18.703h-32.859l-6.6406-18.703h-10.406z"/>
</defs>
<g transform="translate(100.53 538.53) rotate(-88.77) scale(.08 -.08)">
<use xlink:href="#q"/>
</g>
</g>
<path d="m107.84 538.89 0.064261-6.1597q0.025037-2.3999-2.3748-2.4249l-7.7421-0.08077q-2.3999-0.025037-2.4249 2.3748l-0.064262 6.1597q-0.025037 2.3999 2.3748 2.4249l7.7421 0.08077q2.3999 0.025037 2.4249-2.3748z" clip-path="url(#a)" fill="#fff" stroke="#fff"/>
<g clip-path="url(#a)">
<defs>
<path id="an" d="m19.672 64.797v-56.688h11.922q15.094 0 22.094 6.8281 7 6.8438 7 21.594 0 14.641-7 21.453t-22.094 6.8125zm-9.8594 8.1094h20.266q21.188 0 31.094-8.8125 9.9219-8.8125 9.9219-27.562 0-18.859-9.9688-27.703-9.9531-8.8281-31.047-8.8281h-20.266z"/>
</defs>
<g transform="translate(103.78 538.85) rotate(-89.402) scale(.08 -.08)">
<use xlink:href="#an"/>
</g>
</g>
<path d="m99.618 533.23 0.021817 5.0787q0.01031 2.4 2.4103 2.3897l7.7424-0.033259q2.4-0.01031 2.3897-2.4103l-0.021817-5.0787q-0.01031-2.4-2.4103-2.3897l-7.7424 0.03326q-2.4 0.010309-2.3897 2.4103z" clip-path="url(#a)" fill="#fff" stroke="#fff"/>
<g clip-path="url(#a)">
<defs>
<path id="aj" d="m53.516 70.516v-9.625q-5.6094 2.6875-10.594 4-4.9844 1.3281-9.625 1.3281-8.0469 0-12.422-3.125t-4.375-8.8906q0-4.8438 2.9062-7.3125 2.9062-2.4531 11.016-3.9688l5.9531-1.2188q11.031-2.1094 16.281-7.4062t5.25-14.172q0-10.609-7.1094-16.078-7.0938-5.4688-20.812-5.4688-5.1719 0-11.016 1.1719-5.8281 1.1719-12.078 3.4688v10.156q6-3.3594 11.766-5.0781 5.7656-1.7031 11.328-1.7031 8.4375 0 13.031 3.3125 4.5938 3.3281 4.5938 9.4844 0 5.3594-3.2969 8.3906t-10.812 4.5469l-6.0156 1.1719q-11.031 2.1875-15.969 6.875-4.9219 4.6875-4.9219 13.047 0 9.6719 6.8125 15.234t18.766 5.5625q5.1406 0 10.453-0.9375 5.3281-0.92188 10.891-2.7656z"/>
</defs>
<g transform="translate(103.68 533.22) rotate(89.754) scale(.08 -.08)">
<use xlink:href="#aj"/>
</g>
</g>
<path d="m106.22 339.53 0.45004 5.454q0.19737 2.3919 2.5892 2.1945l7.7163-0.63672q2.3919-0.19737 2.1945-2.5892l-0.45004-5.454q-0.19737-2.3919-2.5892-2.1945l-7.7163 0.63672q-2.3919 0.19737-2.1945 2.5892z" clip-path="url(#a)" fill="#fff" stroke="#fff"/>
<g clip-path="url(#a)">
<g transform="translate(110.27 339.2) rotate(85.283) scale(.08 -.08)">
<use xlink:href="#q"/>
</g>
</g>
<path d="m176.04 905.86v33.808q0 2.4 2.4 2.4h7.7425q2.4 0 2.4-2.4v-33.808q0-2.4-2.4-2.4h-7.7425q-2.4 0-2.4 2.4z" clip-path="url(#a)" fill="#fff" stroke="#fff"/>
<g clip-path="url(#a)">
<defs>
<path id="l" d="m-0.29688 72.906h61.672v-8.3125h-25.875v-64.594h-9.9062v64.594h-25.891z"/>
<path id="d" d="m56.203 29.594v-4.3906h-41.312q0.59375-9.2812 5.5938-14.141t13.938-4.8594q5.1719 0 10.031 1.2656t9.6562 3.8125v-8.5q-4.8438-2.0469-9.9219-3.125t-10.297-1.0781q-13.094 0-20.734 7.6094-7.6406 7.625-7.6406 20.625 0 13.422 7.25 21.297 7.25 7.8906 19.562 7.8906 11.031 0 17.453-7.1094 6.4219-7.0938 6.4219-19.297zm-8.9844 2.6406q-0.09375 7.3594-4.125 11.75-4.0312 4.4062-10.672 4.4062-7.5156 0-12.031-4.25t-5.2031-11.969z"/>
<path id="j" d="m41.109 46.297q-1.5156 0.875-3.2969 1.2812-1.7812 0.42188-3.9219 0.42188-7.625 0-11.703-4.9531t-4.0781-14.234v-28.812h-9.0312v54.688h9.0312v-8.5q2.8438 4.9844 7.375 7.3906 4.5469 2.4219 11.047 2.4219 0.92188 0 2.0469-0.125 1.125-0.10938 2.4844-0.35938z"/>
<path id="k" d="m52 44.188q3.375 6.0625 8.0625 8.9375t11.031 2.875q8.5469 0 13.188-5.9844 4.6406-5.9688 4.6406-17v-33.016h-9.0312v32.719q0 7.8594-2.7969 11.656-2.7812 3.8125-8.4844 3.8125-6.9844 0-11.047-4.6406-4.0469-4.625-4.0469-12.641v-30.906h-9.0312v32.719q0 7.9062-2.7812 11.688t-8.5938 3.7812q-6.8906 0-10.953-4.6562-4.0469-4.6562-4.0469-12.625v-30.906h-9.0312v54.688h9.0312v-8.5q3.0781 5.0312 7.375 7.4219t10.203 2.3906q5.9688 0 10.141-3.0312 4.1719-3.0156 6.1719-8.7812z"/>
<path id="f" d="m9.4219 54.688h8.9844v-54.688h-8.9844zm0 21.297h8.9844v-11.391h-8.9844z"/>
<path id="g" d="m54.891 33.016v-33.016h-8.9844v32.719q0 7.7656-3.0312 11.609-3.0312 3.8594-9.0781 3.8594-7.2812 0-11.484-4.6406-4.2031-4.625-4.2031-12.641v-30.906h-9.0312v54.688h9.0312v-8.5q3.2344 4.9375 7.5938 7.375 4.375 2.4375 10.094 2.4375 9.4219 0 14.25-5.8281 4.8438-5.8281 4.8438-17.156z"/>
<path id="h" d="m34.281 27.484q-10.891 0-15.094-2.4844t-4.2031-8.5q0-4.7812 3.1562-7.5938 3.1562-2.7969 8.5625-2.7969 7.4844 0 12 5.2969t4.5156 14.078v2zm17.922 3.7188v-31.203h-8.9844v8.2969q-3.0781-4.9688-7.6719-7.3438t-11.234-2.375q-8.3906 0-13.359 4.7188-4.9531 4.7188-4.9531 12.625 0 9.2188 6.1719 13.906 6.1875 4.6875 18.438 4.6875h12.609v0.89062q0 6.2031-4.0781 9.5938t-11.453 3.3906q-4.6875 0-9.1406-1.125-4.4375-1.125-8.5312-3.375v8.3125q4.9219 1.9062 9.5625 2.8438 4.6406 0.95312 9.0312 0.95312 11.875 0 17.734-6.1562 5.8594-6.1406 5.8594-18.641z"/>
<path id="i" d="m9.4219 75.984h8.9844v-75.984h-8.9844z"/>
</defs>
<g transform="translate(180.1 905.86) rotate(90) scale(.08 -.08)">
<use xlink:href="#l"/>
<use x="44.083984" xlink:href="#d"/>
<use x="105.607422" xlink:href="#j"/>
<use x="144.970703" xlink:href="#k"/>
<use x="242.382812" xlink:href="#f"/>
<use x="270.166016" xlink:href="#g"/>
<use x="333.544922" xlink:href="#h"/>
<use x="394.824219" xlink:href="#i"/>
</g>
</g>
<path d="m210.72 635.77 0.016684-4.8237q0.008302-2.4-2.3917-2.4083l-7.7425-0.026781q-2.4-0.008301-2.4083 2.3917l-0.016684 4.8237q-0.008302 2.4 2.3917 2.4083l7.7425 0.02678q2.4 0.008301 2.4083-2.3917z" clip-path="url(#a)" fill="#fff" stroke="#fff"/>
<g clip-path="url(#a)">
<defs>
<path id="ak" d="m19.672 64.797v-27.391h12.406q6.8906 0 10.641 3.5625 3.7656 3.5625 3.7656 10.156 0 6.5469-3.7656 10.109-3.75 3.5625-10.641 3.5625zm-9.8594 8.1094h22.266q12.266 0 18.531-5.5469 6.2812-5.5469 6.2812-16.234 0-10.797-6.2812-16.312-6.2656-5.5156-18.531-5.5156h-12.406v-29.297h-9.8594z"/>
</defs>
<g transform="translate(206.65 635.75) rotate(-89.802) scale(.08 -.08)">
<use xlink:href="#ak"/>
</g>
</g>
<path d="m209.85 630.96 0.3137 5.4635q0.13758 2.3961 2.5336 2.2585l7.7298-0.44383q2.3961-0.13758 2.2585-2.5336l-0.3137-5.4635q-0.13758-2.3961-2.5336-2.2585l-7.7298 0.44383q-2.3961 0.13758-2.2585 2.5336z" clip-path="url(#a)" fill="#fff" stroke="#fff"/>
<g clip-path="url(#a)">
<g transform="translate(213.9 630.73) rotate(86.714) scale(.08 -.08)">
<use xlink:href="#q"/>
</g>
</g>
<path d="m244.32 536.79 2.3412 4.9464q1.0268 2.1693 3.196 1.1425l6.9982-3.3124q2.1693-1.0268 1.1425-3.196l-2.3412-4.9464q-1.0268-2.1693-3.196-1.1425l-6.9982 3.3124q-2.1693 1.0268-1.1425 3.196z" clip-path="url(#a)" fill="#fff" stroke="#fff"/>
<g clip-path="url(#a)">
<g transform="translate(247.99 535.06) rotate(64.671) scale(.08 -.08)">
<use xlink:href="#q"/>
</g>
</g>
<path d="m153.88 637.71 1.5302-5.2542q0.67109-2.3043-1.6332-2.9754l-7.4337-2.165q-2.3043-0.67109-2.9754 1.6332l-1.5302 5.2542q-0.67109 2.3043 1.6332 2.9754l7.4337 2.165q2.3043 0.67109 2.9754-1.6332z" clip-path="url(#a)" fill="#fff" stroke="#fff"/>
<g clip-path="url(#a)">
<g transform="translate(149.98 636.58) rotate(-73.762) scale(.08 -.08)">
<use xlink:href="#q"/>
</g>
</g>
<path d="m371.45 905.86v33.808q0 2.4 2.4 2.4h7.7425q2.4 0 2.4-2.4v-33.808q0-2.4-2.4-2.4h-7.7425q-2.4 0-2.4 2.4z" clip-path="url(#a)" fill="#fff" stroke="#fff"/>
<g clip-path="url(#a)">
<g transform="translate(375.51 905.86) rotate(90) scale(.08 -.08)">
<use xlink:href="#l"/>
<use x="44.083984" xlink:href="#d"/>
<use x="105.607422" xlink:href="#j"/>
<use x="144.970703" xlink:href="#k"/>
<use x="242.382812" xlink:href="#f"/>
<use x="270.166016" xlink:href="#g"/>
<use x="333.544922" xlink:href="#h"/>
<use x="394.824219" xlink:href="#i"/>
</g>
</g>
<path d="m406.3 631.6 0.51319 4.7964q0.25533 2.3864 2.6417 2.131l7.6986-0.82371q2.3864-0.25533 2.131-2.6417l-0.51319-4.7964q-0.25533-2.3864-2.6417-2.131l-7.6986 0.82371q-2.3864 0.25533-2.131 2.6417z" clip-path="url(#a)" fill="#fff" stroke="#fff"/>
<g clip-path="url(#a)">
<g transform="translate(410.34 631.17) rotate(83.893) scale(.08 -.08)">
<use xlink:href="#ak"/>
</g>
</g>
<path d="m446.83 537.63 2.9268 4.6241q1.2836 2.0279 3.3115 0.74437l6.5422-4.1408q2.0279-1.2836 0.74438-3.3115l-2.9268-4.6241q-1.2836-2.0279-3.3115-0.74437l-6.5422 4.1408q-2.0279 1.2836-0.74437 3.3115z" clip-path="url(#a)" fill="#fff" stroke="#fff"/>
<g clip-path="url(#a)">
<g transform="translate(450.26 535.45) rotate(57.669) scale(.08 -.08)">
<use xlink:href="#q"/>
</g>
</g>
<path d="m314.42 638.3 2.1375-5.0378q0.93741-2.2094-1.2719-3.1468l-7.1275-3.0241q-2.2094-0.93741-3.1468 1.2719l-2.1375 5.0378q-0.93741 2.2094 1.2719 3.1468l7.1275 3.0241q2.2094 0.93741 3.1468-1.2719z" clip-path="url(#a)" fill="#fff" stroke="#fff"/>
<g clip-path="url(#a)">
<g transform="translate(310.68 636.71) rotate(-67.009) scale(.08 -.08)">
<use xlink:href="#q"/>
</g>
</g>
<path d="m575.45 905.86v33.808q0 2.4 2.4 2.4h7.7425q2.4 0 2.4-2.4v-33.808q0-2.4-2.4-2.4h-7.7425q-2.4 0-2.4 2.4z" clip-path="url(#a)" fill="#fff" stroke="#fff"/>
<g clip-path="url(#a)">
<g transform="translate(579.51 905.86) rotate(90) scale(.08 -.08)">
<use xlink:href="#l"/>
<use x="44.083984" xlink:href="#d"/>
<use x="105.607422" xlink:href="#j"/>
<use x="144.970703" xlink:href="#k"/>
<use x="242.382812" xlink:href="#f"/>
<use x="270.166016" xlink:href="#g"/>
<use x="333.544922" xlink:href="#h"/>
<use x="394.824219" xlink:href="#i"/>
</g>
</g>
<path d="m659.4 734.81 1.3718-5.2978q0.60162-2.3234-1.7218-2.925l-7.4953-1.9408q-2.3234-0.60162-2.925 1.7218l-1.3718 5.2978q-0.60162 2.3234 1.7218 2.925l7.4953 1.9408q2.3234 0.60162 2.925-1.7218z" clip-path="url(#a)" fill="#fff" stroke="#fff"/>
<g clip-path="url(#a)">
<g transform="translate(655.46 733.79) rotate(-75.483) scale(.08 -.08)">
<use xlink:href="#q"/>
</g>
</g>
<path d="m684.97 732.91 0.017021-4.6012q0.008878-2.4-2.3911-2.4089l-7.7424-0.028641q-2.4-0.008878-2.4089 2.3911l-0.017021 4.6012q-0.008878 2.4 2.3911 2.4089l7.7424 0.028641q2.4 0.008878 2.4089-2.3911z" clip-path="url(#a)" fill="#fff" stroke="#fff"/>
<g clip-path="url(#a)">
<defs>
<path id="ax" d="m9.8125 72.906h41.891v-8.3125h-32.031v-21.484h28.906v-8.2969h-28.906v-34.812h-9.8594z"/>
</defs>
<g transform="translate(680.9 732.9) rotate(-89.788) scale(.08 -.08)">
<use xlink:href="#ax"/>
</g>
</g>
<path d="m697.76 729.73 1.2901 4.9122q0.60966 2.3213 2.9309 1.7116l7.4885-1.9668q2.3213-0.60966 1.7116-2.9309l-1.2901-4.9122q-0.60966-2.3213-2.9309-1.7116l-7.4885 1.9668q-2.3213 0.60966-1.7116 2.9309z" clip-path="url(#a)" fill="#fff" stroke="#fff"/>
<g clip-path="url(#a)">
<g transform="translate(701.69 728.69) rotate(75.284) scale(.08 -.08)">
<use xlink:href="#aj"/>
</g>
</g>
<path d="m941.73 347.62 3.1847-4.4504q1.3967-1.9517-0.55508-3.3484l-6.2964-4.5057q-1.9517-1.3967-3.3484 0.55508l-3.1847 4.4504q-1.3967 1.9517 0.55508 3.3484l6.2964 4.5057q1.9517 1.3967 3.3484-0.55508z" clip-path="url(#a)" fill="#fff" stroke="#fff"/>
<g clip-path="url(#a)">
<g transform="translate(938.42 345.25) rotate(-54.412) scale(.08 -.08)">
<use xlink:href="#q"/>
</g>
</g>
<path d="m988.76 539.36 0.53197-6.137q0.20726-2.391-2.1838-2.5983l-7.7136-0.66863q-2.391-0.20726-2.5983 2.1838l-0.53197 6.137q-0.20726 2.391 2.1838 2.5983l7.7136 0.66863q2.391 0.20726 2.5983-2.1838z" clip-path="url(#a)" fill="#fff" stroke="#fff"/>
<g clip-path="url(#a)">
<g transform="translate(984.71 539.01) rotate(-85.046) scale(.08 -.08)">
<use xlink:href="#an"/>
</g>
</g>
<path d="m1007.6 533.33 0.10205 5.0777q0.048226 2.3995 2.4477 2.3513l7.7409-0.15558q2.3995-0.048226 2.3513-2.4477l-0.10205-5.0777q-0.048226-2.3995-2.4477-2.3513l-7.7409 0.15558q-2.3995 0.048225-2.3513 2.4477z" clip-path="url(#a)" fill="#fff" stroke="#fff"/>
<g clip-path="url(#a)">
<g transform="translate(1011.7 533.25) rotate(88.849) scale(.08 -.08)">
<use xlink:href="#aj"/>
</g>
</g>
<path d="m1090.8 343.95 3.6933 4.0383q1.6197 1.771 3.3907 0.15132l5.7134-5.2252q1.771-1.6197 0.15132-3.3907l-3.6933-4.0383q-1.6197-1.771-3.3907-0.15132l-5.7134 5.2252q-1.771 1.6197-0.15132 3.3907z" clip-path="url(#a)" fill="#fff" stroke="#fff"/>
<g clip-path="url(#a)">
<g transform="translate(1093.8 341.21) rotate(47.555) scale(.08 -.08)">
<use xlink:href="#q"/>
</g>
</g>
<path d="m1432.2 905.86v33.808q0 2.4 2.4 2.4h7.7425q2.4 0 2.4-2.4v-33.808q0-2.4-2.4-2.4h-7.7425q-2.4 0-2.4 2.4z" clip-path="url(#a)" fill="#fff" stroke="#fff"/>
<g clip-path="url(#a)">
<g transform="translate(1436.3 905.86) rotate(90) scale(.08 -.08)">
<use xlink:href="#l"/>
<use x="44.083984" xlink:href="#d"/>
<use x="105.607422" xlink:href="#j"/>
<use x="144.970703" xlink:href="#k"/>
<use x="242.382812" xlink:href="#f"/>
<use x="270.166016" xlink:href="#g"/>
<use x="333.544922" xlink:href="#h"/>
<use x="394.824219" xlink:href="#i"/>
</g>
</g>
<path d="m1582.3 637.83 1.6507-5.2176q0.72393-2.2882-1.5643-3.0121l-7.3819-2.3354q-2.2882-0.72393-3.0121 1.5643l-1.6507 5.2176q-0.72393 2.2882 1.5643 3.0121l7.3819 2.3354q2.2882 0.72393 3.0121-1.5643z" clip-path="url(#a)" fill="#fff" stroke="#fff"/>
<g clip-path="url(#a)">
<g transform="translate(1578.5 636.61) rotate(-72.444) scale(.08 -.08)">
<use xlink:href="#q"/>
</g>
</g>
<path d="m1622.9 636.55 0.56333-5.0474q0.2662-2.3852-2.119-2.6514l-7.6947-0.85879q-2.3852-0.2662-2.6514 2.119l-0.56333 5.0474q-0.2662 2.3852 2.119 2.6514l7.6947 0.85879q2.3852 0.2662 2.6514-2.119z" clip-path="url(#a)" fill="#fff" stroke="#fff"/>
<g clip-path="url(#a)">
<g transform="translate(1618.8 636.1) rotate(-83.632) scale(.08 -.08)">
<use xlink:href="#aj"/>
</g>
</g>
<path d="m1715.1 538.58 3.5533 4.162q1.5583 1.8253 3.3836 0.26698l5.8885-5.0272q1.8253-1.5583 0.26698-3.3836l-3.5533-4.162q-1.5583-1.8253-3.3836-0.26698l-5.8885 5.0272q-1.8253 1.5583-0.26698 3.3836z" clip-path="url(#a)" fill="#fff" stroke="#fff"/>
<g clip-path="url(#a)">
<g transform="translate(1718.1 535.94) rotate(49.512) scale(.08 -.08)">
<use xlink:href="#q"/>
</g>
</g>
<path d="m1509.5 905.86v33.808q0 2.4 2.4 2.4h7.7425q2.4 0 2.4-2.4v-33.808q0-2.4-2.4-2.4h-7.7425q-2.4 0-2.4 2.4z" clip-path="url(#a)" fill="#fff" stroke="#fff"/>
<g clip-path="url(#a)">
<g transform="translate(1513.6 905.86) rotate(90) scale(.08 -.08)">
<use xlink:href="#l"/>
<use x="44.083984" xlink:href="#d"/>
<use x="105.607422" xlink:href="#j"/>
<use x="144.970703" xlink:href="#k"/>
<use x="242.382812" xlink:href="#f"/>
<use x="270.166016" xlink:href="#g"/>
<use x="333.544922" xlink:href="#h"/>
<use x="394.824219" xlink:href="#i"/>
</g>
</g>
<path d="m1589 905.86v33.808q0 2.4 2.4 2.4h7.7425q2.4 0 2.4-2.4v-33.808q0-2.4-2.4-2.4h-7.7425q-2.4 0-2.4 2.4z" clip-path="url(#a)" fill="#fff" stroke="#fff"/>
<g clip-path="url(#a)">
<g transform="translate(1593.1 905.86) rotate(90) scale(.08 -.08)">
<use xlink:href="#l"/>
<use x="44.083984" xlink:href="#d"/>
<use x="105.607422" xlink:href="#j"/>
<use x="144.970703" xlink:href="#k"/>
<use x="242.382812" xlink:href="#f"/>
<use x="270.166016" xlink:href="#g"/>
<use x="333.544922" xlink:href="#h"/>
<use x="394.824219" xlink:href="#i"/>
</g>
</g>
<path d="m1744.4 736.36 3.063-4.6387q1.3224-2.0028-0.68034-3.3252l-6.4611-4.2663q-2.0028-1.3224-3.3252 0.68034l-3.063 4.6387q-1.3224 2.0028 0.68034 3.3252l6.4611 4.2663q2.0028 1.3224 3.3252-0.68034z" clip-path="url(#a)" fill="#fff" stroke="#fff"/>
<g clip-path="url(#a)">
<defs>
<path id="ae" d="m44.391 34.188q3.1719-1.0781 6.1719-4.5938t6.0312-9.6719l10.016-19.922h-10.609l-9.3125 18.703q-3.625 7.3281-7.0156 9.7188t-9.25 2.3906h-10.75v-30.812h-9.8594v72.906h22.266q12.5 0 18.656-5.2344 6.1562-5.2188 6.1562-15.766 0-6.8906-3.2031-11.438-3.2031-4.5312-9.2969-6.2812zm-24.719 30.609v-25.875h12.406q7.125 0 10.766 3.2969t3.6406 9.6875-3.6406 9.6406-10.766 3.25z"/>
</defs>
<g transform="translate(1741.1 734.13) rotate(-56.563) scale(.08 -.08)">
<use xlink:href="#ae"/>
</g>
</g>
<path d="m1788 735.05 1.397-6.1406q0.5324-2.3402-1.8078-2.8726l-7.5496-1.7175q-2.3402-0.53239-2.8726 1.8078l-1.397 6.1406q-0.53239 2.3402 1.8078 2.8726l7.5496 1.7175q2.3402 0.53239 2.8726-1.8078z" clip-path="url(#a)" fill="#fff" stroke="#fff"/>
<g clip-path="url(#a)">
<defs>
<path id="av" d="m39.406 66.219q-10.75 0-17.078-8.0156-6.3125-8-6.3125-21.828 0-13.766 6.3125-21.781 6.3281-8 17.078-8 10.734 0 17.016 8 6.2812 8.0156 6.2812 21.781 0 13.828-6.2812 21.828-6.2812 8.0156-17.016 8.0156zm13.812-64.906 13-14.203h-11.922l-10.797 11.672q-1.6094-0.09375-2.4688-0.14062-0.84375-0.0625-1.625-0.0625-15.375 0-24.594 10.281-9.2031 10.281-9.2031 27.516 0 17.281 9.2031 27.562 9.2188 10.281 24.594 10.281 15.328 0 24.5-10.281 9.1875-10.281 9.1875-27.562 0-12.688-5.1094-21.734-5.0938-9.0312-14.766-13.328z"/>
</defs>
<g transform="translate(1784.1 734.15) rotate(-77.183) scale(.08 -.08)">
<use xlink:href="#av"/>
</g>
</g>
<path d="m1818.8 729.19 1.1815 5.4599q0.50761 2.3457 2.8533 1.8381l7.5673-1.6376q2.3457-0.50761 1.8381-2.8533l-1.1815-5.4599q-0.50762-2.3457-2.8533-1.8381l-7.5673 1.6376q-2.3457 0.50761-1.8381 2.8533z" clip-path="url(#a)" fill="#fff" stroke="#fff"/>
<g clip-path="url(#a)">
<defs>
<path id="v" d="m64.406 67.281v-10.391q-4.9844 4.6406-10.625 6.9219-5.6406 2.2969-11.984 2.2969-12.5 0-19.141-7.6406t-6.6406-22.094q0-14.406 6.6406-22.047t19.141-7.6406q6.3438 0 11.984 2.2969t10.625 6.9375v-10.312q-5.1719-3.5156-10.969-5.2812-5.7812-1.75-12.219-1.75-16.562 0-26.094 10.125-9.5156 10.141-9.5156 27.672 0 17.578 9.5156 27.703 9.5312 10.141 26.094 10.141 6.5312 0 12.312-1.7344 5.7969-1.7344 10.875-5.2031z"/>
</defs>
<g transform="translate(1822.8 728.33) rotate(77.789) scale(.08 -.08)">
<use xlink:href="#v"/>
</g>
</g>
<path d="m1862.7 731.66 3.2637 4.861q1.3378 1.9926 3.3304 0.65475l6.4281-4.3158q1.9926-1.3378 0.65475-3.3304l-3.2637-4.861q-1.3378-1.9926-3.3304-0.65475l-6.4281 4.3158q-1.9926 1.3378-0.65475 3.3304z" clip-path="url(#a)" fill="#fff" stroke="#fff"/>
<g clip-path="url(#a)">
<g transform="translate(1866.1 729.39) rotate(56.123) scale(.08 -.08)">
<use xlink:href="#ai"/>
</g>
</g>
<path d="m1670.6 905.86v33.808q0 2.4 2.4 2.4h7.7425q2.4 0 2.4-2.4v-33.808q0-2.4-2.4-2.4h-7.7425q-2.4 0-2.4 2.4z" clip-path="url(#a)" fill="#fff" stroke="#fff"/>
<g clip-path="url(#a)">
<g transform="translate(1674.7 905.86) rotate(90) scale(.08 -.08)">
<use xlink:href="#l"/>
<use x="44.083984" xlink:href="#d"/>
<use x="105.607422" xlink:href="#j"/>
<use x="144.970703" xlink:href="#k"/>
<use x="242.382812" xlink:href="#f"/>
<use x="270.166016" xlink:href="#g"/>
<use x="333.544922" xlink:href="#h"/>
<use x="394.824219" xlink:href="#i"/>
</g>
</g>
<path d="m1754.3 905.86v33.808q0 2.4 2.4 2.4h7.7425q2.4 0 2.4-2.4v-33.808q0-2.4-2.4-2.4h-7.7425q-2.4 0-2.4 2.4z" clip-path="url(#a)" fill="#fff" stroke="#fff"/>
<g clip-path="url(#a)">
<g transform="translate(1758.4 905.86) rotate(90) scale(.08 -.08)">
<use xlink:href="#l"/>
<use x="44.083984" xlink:href="#d"/>
<use x="105.607422" xlink:href="#j"/>
<use x="144.970703" xlink:href="#k"/>
<use x="242.382812" xlink:href="#f"/>
<use x="270.166016" xlink:href="#g"/>
<use x="333.544922" xlink:href="#h"/>
<use x="394.824219" xlink:href="#i"/>
</g>
</g>
<path d="m1840.2 905.86v33.808q0 2.4 2.4 2.4h7.7425q2.4 0 2.4-2.4v-33.808q0-2.4-2.4-2.4h-7.7425q-2.4 0-2.4 2.4z" clip-path="url(#a)" fill="#fff" stroke="#fff"/>
<g clip-path="url(#a)">
<g transform="translate(1844.3 905.86) rotate(90) scale(.08 -.08)">
<use xlink:href="#l"/>
<use x="44.083984" xlink:href="#d"/>
<use x="105.607422" xlink:href="#j"/>
<use x="144.970703" xlink:href="#k"/>
<use x="242.382812" xlink:href="#f"/>
<use x="270.166016" xlink:href="#g"/>
<use x="333.544922" xlink:href="#h"/>
<use x="394.824219" xlink:href="#i"/>
</g>
</g>
<path d="m862.12 534.17v4.8238q0 2.4 2.4 2.4h7.7425q2.4 0 2.4-2.4v-4.8238q0-2.4-2.4-2.4h-7.7425q-2.4 0-2.4 2.4z" clip-path="url(#a)" fill="#fff" stroke="#fff"/>
<g clip-path="url(#a)">
<g transform="translate(866.18 534.17) rotate(90) scale(.08 -.08)">
<use xlink:href="#ak"/>
</g>
</g>
<path d="m951.23 905.86v33.808q0 2.4 2.4 2.4h7.7425q2.4 0 2.4-2.4v-33.808q0-2.4-2.4-2.4h-7.7425q-2.4 0-2.4 2.4z" clip-path="url(#a)" fill="#fff" stroke="#fff"/>
<g clip-path="url(#a)">
<g transform="translate(955.29 905.86) rotate(90) scale(.08 -.08)">
<use xlink:href="#l"/>
<use x="44.083984" xlink:href="#d"/>
<use x="105.607422" xlink:href="#j"/>
<use x="144.970703" xlink:href="#k"/>
<use x="242.382812" xlink:href="#f"/>
<use x="270.166016" xlink:href="#g"/>
<use x="333.544922" xlink:href="#h"/>
<use x="394.824219" xlink:href="#i"/>
</g>
</g>
<path d="m1013.5 905.86v33.808q0 2.4 2.4 2.4h7.7425q2.4 0 2.4-2.4v-33.808q0-2.4-2.4-2.4h-7.7425q-2.4 0-2.4 2.4z" clip-path="url(#a)" fill="#fff" stroke="#fff"/>
<g clip-path="url(#a)">
<g transform="translate(1017.6 905.86) rotate(90) scale(.08 -.08)">
<use xlink:href="#l"/>
<use x="44.083984" xlink:href="#d"/>
<use x="105.607422" xlink:href="#j"/>
<use x="144.970703" xlink:href="#k"/>
<use x="242.382812" xlink:href="#f"/>
<use x="270.166016" xlink:href="#g"/>
<use x="333.544922" xlink:href="#h"/>
<use x="394.824219" xlink:href="#i"/>
</g>
</g>
<path d="m1140.8 637.38 1.2894-4.8878q0.61218-2.3206-1.7084-2.9328l-7.4864-1.9749q-2.3206-0.61218-2.9328 1.7084l-1.2894 4.8878q-0.61218 2.3206 1.7084 2.9328l7.4864 1.9749q2.3206 0.61218 2.9328-1.7084z" clip-path="url(#a)" fill="#fff" stroke="#fff"/>
<g clip-path="url(#a)">
<defs>
<path id="z" d="m9.8125 72.906h46.094v-8.3125h-36.234v-21.578h34.719v-8.2969h-34.719v-26.422h37.109v-8.2969h-46.969z"/>
</defs>
<g transform="translate(1136.9 636.34) rotate(-75.222) scale(.08 -.08)">
<use xlink:href="#z"/>
</g>
</g>
<path d="m1192.1 539.16 0.037202-5.0549q0.017663-2.3999-2.3823-2.4176l-7.7423-0.056982q-2.3999-0.017663-2.4176 2.3823l-0.037202 5.0549q-0.017663 2.3999 2.3823 2.4176l7.7423 0.056982q2.3999 0.017663 2.4176-2.3823z" clip-path="url(#a)" fill="#fff" stroke="#fff"/>
<g clip-path="url(#a)">
<g transform="translate(1188 539.13) rotate(-89.578) scale(.08 -.08)">
<use xlink:href="#z"/>
</g>
</g>
<path d="m1231.7 632.26 1.4435 5.3965q0.62017 2.3185 2.9387 1.6983l7.4795-2.0007q2.3185-0.62017 1.6983-2.9387l-1.4435-5.3965q-0.62017-2.3185-2.9387-1.6983l-7.4795 2.0007q-2.3185 0.62017-1.6983 2.9387z" clip-path="url(#a)" fill="#fff" stroke="#fff"/>
<g clip-path="url(#a)">
<g transform="translate(1235.6 631.21) rotate(75.025) scale(.08 -.08)">
<use xlink:href="#v"/>
</g>
</g>
<path d="m1077.9 905.86v33.808q0 2.4 2.4 2.4h7.7425q2.4 0 2.4-2.4v-33.808q0-2.4-2.4-2.4h-7.7425q-2.4 0-2.4 2.4z" clip-path="url(#a)" fill="#fff" stroke="#fff"/>
<g clip-path="url(#a)">
<g transform="translate(1082 905.86) rotate(90) scale(.08 -.08)">
<use xlink:href="#l"/>
<use x="44.083984" xlink:href="#d"/>
<use x="105.607422" xlink:href="#j"/>
<use x="144.970703" xlink:href="#k"/>
<use x="242.382812" xlink:href="#f"/>
<use x="270.166016" xlink:href="#g"/>
<use x="333.544922" xlink:href="#h"/>
<use x="394.824219" xlink:href="#i"/>
</g>
</g>
<path d="m1173.6 734.44 0.97662-5.5002q0.41958-2.363-1.9435-2.7826l-7.6233-1.3536q-2.363-0.41958-2.7826 1.9435l-0.97662 5.5002q-0.41958 2.363 1.9435 2.7826l7.6233 1.3536q2.363 0.41958 2.7826-1.9435z" clip-path="url(#a)" fill="#fff" stroke="#fff"/>
<g clip-path="url(#a)">
<g transform="translate(1169.6 733.73) rotate(-79.931) scale(.08 -.08)">
<use xlink:href="#v"/>
</g>
</g>
<path d="m1195.6 728.95 0.97181 5.4731q0.41958 2.363 2.7826 1.9435l7.6233-1.3536q2.363-0.41958 1.9435-2.7826l-0.97181-5.4731q-0.41958-2.363-2.7826-1.9435l-7.6233 1.3536q-2.363 0.41958-1.9435 2.7826z" clip-path="url(#a)" fill="#fff" stroke="#fff"/>
<g clip-path="url(#a)">
<g transform="translate(1199.6 728.24) rotate(79.931) scale(.08 -.08)">
<use xlink:href="#ae"/>
</g>
</g>
<path d="m1284.1 905.86v33.808q0 2.4 2.4 2.4h7.7425q2.4 0 2.4-2.4v-33.808q0-2.4-2.4-2.4h-7.7425q-2.4 0-2.4 2.4z" clip-path="url(#a)" fill="#fff" stroke="#fff"/>
<g clip-path="url(#a)">
<g transform="translate(1288.1 905.86) rotate(90) scale(.08 -.08)">
<use xlink:href="#l"/>
<use x="44.083984" xlink:href="#d"/>
<use x="105.607422" xlink:href="#j"/>
<use x="144.970703" xlink:href="#k"/>
<use x="242.382812" xlink:href="#f"/>
<use x="270.166016" xlink:href="#g"/>
<use x="333.544922" xlink:href="#h"/>
<use x="394.824219" xlink:href="#i"/>
</g>
</g>
<path d="m1144.5 905.86v33.808q0 2.4 2.4 2.4h7.7425q2.4 0 2.4-2.4v-33.808q0-2.4-2.4-2.4h-7.7425q-2.4 0-2.4 2.4z" clip-path="url(#a)" fill="#fff" stroke="#fff"/>
<g clip-path="url(#a)">
<g transform="translate(1148.6 905.86) rotate(90) scale(.08 -.08)">
<use xlink:href="#l"/>
<use x="44.083984" xlink:href="#d"/>
<use x="105.607422" xlink:href="#j"/>
<use x="144.970703" xlink:href="#k"/>
<use x="242.382812" xlink:href="#f"/>
<use x="270.166016" xlink:href="#g"/>
<use x="333.544922" xlink:href="#h"/>
<use x="394.824219" xlink:href="#i"/>
</g>
</g>
<path d="m1213.2 905.86v33.808q0 2.4 2.4 2.4h7.7425q2.4 0 2.4-2.4v-33.808q0-2.4-2.4-2.4h-7.7425q-2.4 0-2.4 2.4z" clip-path="url(#a)" fill="#fff" stroke="#fff"/>
<g clip-path="url(#a)">
<g transform="translate(1217.3 905.86) rotate(90) scale(.08 -.08)">
<use xlink:href="#l"/>
<use x="44.083984" xlink:href="#d"/>
<use x="105.607422" xlink:href="#j"/>
<use x="144.970703" xlink:href="#k"/>
<use x="242.382812" xlink:href="#f"/>
<use x="270.166016" xlink:href="#g"/>
<use x="333.544922" xlink:href="#h"/>
<use x="394.824219" xlink:href="#i"/>
</g>
</g>
<path d="m859.72 734.02 0.74896-4.9992q0.35559-2.3735-2.0179-2.7291l-7.657-1.1472q-2.3735-0.35559-2.7291 2.0179l-0.74896 4.9992q-0.35559 2.3735 2.0179 2.7291l7.657 1.1472q2.3735 0.35559 2.7291-2.0179z" clip-path="url(#a)" fill="#fff" stroke="#fff"/>
<g clip-path="url(#a)">
<g transform="translate(855.7 733.42) rotate(-81.48) scale(.08 -.08)">
<use xlink:href="#z"/>
</g>
</g>
<path d="m876.27 728.76 0.82768 5.5246q0.35559 2.3735 2.7291 2.0179l7.657-1.1472q2.3735-0.35559 2.0179-2.7291l-0.82768-5.5246q-0.35559-2.3735-2.7291-2.0179l-7.657 1.1472q-2.3735 0.35559-2.0179 2.7291z" clip-path="url(#a)" fill="#fff" stroke="#fff"/>
<g clip-path="url(#a)">
<g transform="translate(880.28 728.15) rotate(81.48) scale(.08 -.08)">
<use xlink:href="#v"/>
</g>
</g>
<path d="m833.13 905.86v33.808q0 2.4 2.4 2.4h7.7425q2.4 0 2.4-2.4v-33.808q0-2.4-2.4-2.4h-7.7425q-2.4 0-2.4 2.4z" clip-path="url(#a)" fill="#fff" stroke="#fff"/>
<g clip-path="url(#a)">
<g transform="translate(837.19 905.86) rotate(90) scale(.08 -.08)">
<use xlink:href="#l"/>
<use x="44.083984" xlink:href="#d"/>
<use x="105.607422" xlink:href="#j"/>
<use x="144.970703" xlink:href="#k"/>
<use x="242.382812" xlink:href="#f"/>
<use x="270.166016" xlink:href="#g"/>
<use x="333.544922" xlink:href="#h"/>
<use x="394.824219" xlink:href="#i"/>
</g>
</g>
<path d="m891.11 905.86v33.808q0 2.4 2.4 2.4h7.7425q2.4 0 2.4-2.4v-33.808q0-2.4-2.4-2.4h-7.7425q-2.4 0-2.4 2.4z" clip-path="url(#a)" fill="#fff" stroke="#fff"/>
<g clip-path="url(#a)">
<g transform="translate(895.17 905.86) rotate(90) scale(.08 -.08)">
<use xlink:href="#l"/>
<use x="44.083984" xlink:href="#d"/>
<use x="105.607422" xlink:href="#j"/>
<use x="144.970703" xlink:href="#k"/>
<use x="242.382812" xlink:href="#f"/>
<use x="270.166016" xlink:href="#g"/>
<use x="333.544922" xlink:href="#h"/>
<use x="394.824219" xlink:href="#i"/>
</g>
</g>
<path d="m622.69 905.86v33.808q0 2.4 2.4 2.4h7.7425q2.4 0 2.4-2.4v-33.808q0-2.4-2.4-2.4h-7.7425q-2.4 0-2.4 2.4z" clip-path="url(#a)" fill="#fff" stroke="#fff"/>
<g clip-path="url(#a)">
<g transform="translate(626.75 905.86) rotate(90) scale(.08 -.08)">
<use xlink:href="#l"/>
<use x="44.083984" xlink:href="#d"/>
<use x="105.607422" xlink:href="#j"/>
<use x="144.970703" xlink:href="#k"/>
<use x="242.382812" xlink:href="#f"/>
<use x="270.166016" xlink:href="#g"/>
<use x="333.544922" xlink:href="#h"/>
<use x="394.824219" xlink:href="#i"/>
</g>
</g>
<path d="m672.08 905.86v33.808q0 2.4 2.4 2.4h7.7425q2.4 0 2.4-2.4v-33.808q0-2.4-2.4-2.4h-7.7425q-2.4 0-2.4 2.4z" clip-path="url(#a)" fill="#fff" stroke="#fff"/>
<g clip-path="url(#a)">
<g transform="translate(676.14 905.86) rotate(90) scale(.08 -.08)">
<use xlink:href="#l"/>
<use x="44.083984" xlink:href="#d"/>
<use x="105.607422" xlink:href="#j"/>
<use x="144.970703" xlink:href="#k"/>
<use x="242.382812" xlink:href="#f"/>
<use x="270.166016" xlink:href="#g"/>
<use x="333.544922" xlink:href="#h"/>
<use x="394.824219" xlink:href="#i"/>
</g>
</g>
<path d="m723.61 905.86v33.808q0 2.4 2.4 2.4h7.7425q2.4 0 2.4-2.4v-33.808q0-2.4-2.4-2.4h-7.7425q-2.4 0-2.4 2.4z" clip-path="url(#a)" fill="#fff" stroke="#fff"/>
<g clip-path="url(#a)">
<g transform="translate(727.68 905.86) rotate(90) scale(.08 -.08)">
<use xlink:href="#l"/>
<use x="44.083984" xlink:href="#d"/>
<use x="105.607422" xlink:href="#j"/>
<use x="144.970703" xlink:href="#k"/>
<use x="242.382812" xlink:href="#f"/>
<use x="270.166016" xlink:href="#g"/>
<use x="333.544922" xlink:href="#h"/>
<use x="394.824219" xlink:href="#i"/>
</g>
</g>
<path d="m428.42 940.21 3.4062-33.635q0.2418-2.3878-2.146-2.6296l-7.7031-0.78007q-2.3878-0.2418-2.6296 2.146l-3.4062 33.635q-0.2418 2.3878 2.146 2.6296l7.7031 0.78007q2.3878 0.2418 2.6296-2.146z" clip-path="url(#a)" fill="#fff" stroke="#fff"/>
<g clip-path="url(#a)">
<g transform="translate(424.38 939.8) rotate(-84.218) scale(.08 -.08)">
<use xlink:href="#l"/>
<use x="44.083984" xlink:href="#d"/>
<use x="105.607422" xlink:href="#j"/>
<use x="144.970703" xlink:href="#k"/>
<use x="242.382812" xlink:href="#f"/>
<use x="270.166016" xlink:href="#g"/>
<use x="333.544922" xlink:href="#h"/>
<use x="394.824219" xlink:href="#i"/>
</g>
</g>
<path d="m435.27 906.57 3.4062 33.635q0.2418 2.3878 2.6296 2.146l7.7031-0.78007q2.3878-0.2418 2.146-2.6296l-3.4062-33.635q-0.2418-2.3878-2.6296-2.146l-7.7031 0.78007q-2.3878 0.2418-2.146 2.6296z" clip-path="url(#a)" fill="#fff" stroke="#fff"/>
<g clip-path="url(#a)">
<g transform="translate(439.31 906.16) rotate(84.218) scale(.08 -.08)">
<use xlink:href="#l"/>
<use x="44.083984" xlink:href="#d"/>
<use x="105.607422" xlink:href="#j"/>
<use x="144.970703" xlink:href="#k"/>
<use x="242.382812" xlink:href="#f"/>
<use x="270.166016" xlink:href="#g"/>
<use x="333.544922" xlink:href="#h"/>
<use x="394.824219" xlink:href="#i"/>
</g>
</g>
<path d="m510.34 734.04 0.61312-5.5248q0.26472-2.3854-2.1206-2.6501l-7.6953-0.85398q-2.3854-0.26472-2.6501 2.1206l-0.61312 5.5248q-0.26472 2.3854 2.1206 2.6501l7.6953 0.85398q2.3854 0.26472 2.6501-2.1206z" clip-path="url(#a)" fill="#fff" stroke="#fff"/>
<g clip-path="url(#a)">
<g transform="translate(506.3 733.6) rotate(-83.667) scale(.08 -.08)">
<use xlink:href="#ae"/>
</g>
</g>
<path d="m519.34 728.51 0.61615 5.5522q0.26472 2.3854 2.6501 2.1206l7.6953-0.85398q2.3854-0.26472 2.1206-2.6501l-0.61615-5.5522q-0.26472-2.3854-2.6501-2.1206l-7.6953 0.85398q-2.3854 0.26472-2.1206 2.6501z" clip-path="url(#a)" fill="#fff" stroke="#fff"/>
<g clip-path="url(#a)">
<g transform="translate(523.38 728.06) rotate(83.667) scale(.08 -.08)">
<use xlink:href="#v"/>
</g>
</g>
<path d="m487.4 905.86v33.808q0 2.4 2.4 2.4h7.7425q2.4 0 2.4-2.4v-33.808q0-2.4-2.4-2.4h-7.7425q-2.4 0-2.4 2.4z" clip-path="url(#a)" fill="#fff" stroke="#fff"/>
<g clip-path="url(#a)">
<g transform="translate(491.47 905.86) rotate(90) scale(.08 -.08)">
<use xlink:href="#l"/>
<use x="44.083984" xlink:href="#d"/>
<use x="105.607422" xlink:href="#j"/>
<use x="144.970703" xlink:href="#k"/>
<use x="242.382812" xlink:href="#f"/>
<use x="270.166016" xlink:href="#g"/>
<use x="333.544922" xlink:href="#h"/>
<use x="394.824219" xlink:href="#i"/>
</g>
</g>
<path d="m530.35 905.86v33.808q0 2.4 2.4 2.4h7.7425q2.4 0 2.4-2.4v-33.808q0-2.4-2.4-2.4h-7.7425q-2.4 0-2.4 2.4z" clip-path="url(#a)" fill="#fff" stroke="#fff"/>
<g clip-path="url(#a)">
<g transform="translate(534.41 905.86) rotate(90) scale(.08 -.08)">
<use xlink:href="#l"/>
<use x="44.083984" xlink:href="#d"/>
<use x="105.607422" xlink:href="#j"/>
<use x="144.970703" xlink:href="#k"/>
<use x="242.382812" xlink:href="#f"/>
<use x="270.166016" xlink:href="#g"/>
<use x="333.544922" xlink:href="#h"/>
<use x="394.824219" xlink:href="#i"/>
</g>
</g>
<path d="m197.51 905.86v33.808q0 2.4 2.4 2.4h7.7425q2.4 0 2.4-2.4v-33.808q0-2.4-2.4-2.4h-7.7425q-2.4 0-2.4 2.4z" clip-path="url(#a)" fill="#fff" stroke="#fff"/>
<g clip-path="url(#a)">
<g transform="translate(201.58 905.86) rotate(90) scale(.08 -.08)">
<use xlink:href="#l"/>
<use x="44.083984" xlink:href="#d"/>
<use x="105.607422" xlink:href="#j"/>
<use x="144.970703" xlink:href="#k"/>
<use x="242.382812" xlink:href="#f"/>
<use x="270.166016" xlink:href="#g"/>
<use x="333.544922" xlink:href="#h"/>
<use x="394.824219" xlink:href="#i"/>
</g>
</g>
<path d="m221.13 905.86v33.808q0 2.4 2.4 2.4h7.7425q2.4 0 2.4-2.4v-33.808q0-2.4-2.4-2.4h-7.7425q-2.4 0-2.4 2.4z" clip-path="url(#a)" fill="#fff" stroke="#fff"/>
<g clip-path="url(#a)">
<g transform="translate(225.2 905.86) rotate(90) scale(.08 -.08)">
<use xlink:href="#l"/>
<use x="44.083984" xlink:href="#d"/>
<use x="105.607422" xlink:href="#j"/>
<use x="144.970703" xlink:href="#k"/>
<use x="242.382812" xlink:href="#f"/>
<use x="270.166016" xlink:href="#g"/>
<use x="333.544922" xlink:href="#h"/>
<use x="394.824219" xlink:href="#i"/>
</g>
</g>
<path d="m280.68 734.69 1.2331-5.4203q0.53239-2.3402-1.8078-2.8726l-7.5496-1.7175q-2.3402-0.53239-2.8726 1.8078l-1.2331 5.4203q-0.5324 2.3402 1.8078 2.8726l7.5496 1.7175q2.3402 0.53239 2.8726-1.8078z" clip-path="url(#a)" fill="#fff" stroke="#fff"/>
<g clip-path="url(#a)">
<g transform="translate(276.72 733.79) rotate(-77.183) scale(.08 -.08)">
<use xlink:href="#ae"/>
</g>
</g>
<path d="m295.18 733.63 0.41928-5.0376q0.19907-2.3917-2.1927-2.5908l-7.7158-0.6422q-2.3917-0.19907-2.5908 2.1927l-0.41928 5.0376q-0.19907 2.3917 2.1927 2.5908l7.7158 0.6422q2.3917 0.19907 2.5908-2.1927z" clip-path="url(#a)" fill="#fff" stroke="#fff"/>
<g clip-path="url(#a)">
<g transform="translate(291.13 733.29) rotate(-85.242) scale(.08 -.08)">
<use xlink:href="#z"/>
</g>
</g>
<path d="m297.73 728.52 0.36369 5.0419q0.17267 2.3938 2.5665 2.2211l7.7224-0.55705q2.3938-0.17267 2.2211-2.5665l-0.36369-5.0419q-0.17267-2.3938-2.5665-2.2211l-7.7224 0.55705q-2.3938 0.17267-2.2211 2.5665z" clip-path="url(#a)" fill="#fff" stroke="#fff"/>
<g clip-path="url(#a)">
<g transform="translate(301.79 728.23) rotate(85.874) scale(.08 -.08)">
<use xlink:href="#z"/>
</g>
</g>
<path d="m313.53 729.33 1.2965 5.4337q0.557 2.3345 2.8915 1.7775l7.5311-1.7969q2.3345-0.557 1.7775-2.8915l-1.2965-5.4337q-0.557-2.3345-2.8915-1.7775l-7.5311 1.7969q-2.3345 0.557-1.7775 2.8915z" clip-path="url(#a)" fill="#fff" stroke="#fff"/>
<g clip-path="url(#a)">
<g transform="translate(317.48 728.39) rotate(76.58) scale(.08 -.08)">
<use xlink:href="#v"/>
</g>
</g>
<path d="m246.9 905.86v33.808q0 2.4 2.4 2.4h7.7425q2.4 0 2.4-2.4v-33.808q0-2.4-2.4-2.4h-7.7425q-2.4 0-2.4 2.4z" clip-path="url(#a)" fill="#fff" stroke="#fff"/>
<g clip-path="url(#a)">
<g transform="translate(250.96 905.86) rotate(90) scale(.08 -.08)">
<use xlink:href="#l"/>
<use x="44.083984" xlink:href="#d"/>
<use x="105.607422" xlink:href="#j"/>
<use x="144.970703" xlink:href="#k"/>
<use x="242.382812" xlink:href="#f"/>
<use x="270.166016" xlink:href="#g"/>
<use x="333.544922" xlink:href="#h"/>
<use x="394.824219" xlink:href="#i"/>
</g>
</g>
<path d="m274.82 905.86v33.808q0 2.4 2.4 2.4h7.7425q2.4 0 2.4-2.4v-33.808q0-2.4-2.4-2.4h-7.7425q-2.4 0-2.4 2.4z" clip-path="url(#a)" fill="#fff" stroke="#fff"/>
<g clip-path="url(#a)">
<g transform="translate(278.88 905.86) rotate(90) scale(.08 -.08)">
<use xlink:href="#l"/>
<use x="44.083984" xlink:href="#d"/>
<use x="105.607422" xlink:href="#j"/>
<use x="144.970703" xlink:href="#k"/>
<use x="242.382812" xlink:href="#f"/>
<use x="270.166016" xlink:href="#g"/>
<use x="333.544922" xlink:href="#h"/>
<use x="394.824219" xlink:href="#i"/>
</g>
</g>
<path d="m304.88 905.86v33.808q0 2.4 2.4 2.4h7.7425q2.4 0 2.4-2.4v-33.808q0-2.4-2.4-2.4h-7.7425q-2.4 0-2.4 2.4z" clip-path="url(#a)" fill="#fff" stroke="#fff"/>
<g clip-path="url(#a)">
<g transform="translate(308.94 905.86) rotate(90) scale(.08 -.08)">
<use xlink:href="#l"/>
<use x="44.083984" xlink:href="#d"/>
<use x="105.607422" xlink:href="#j"/>
<use x="144.970703" xlink:href="#k"/>
<use x="242.382812" xlink:href="#f"/>
<use x="270.166016" xlink:href="#g"/>
<use x="333.544922" xlink:href="#h"/>
<use x="394.824219" xlink:href="#i"/>
</g>
</g>
<path d="m337.09 905.86v33.808q0 2.4 2.4 2.4h7.7425q2.4 0 2.4-2.4v-33.808q0-2.4-2.4-2.4h-7.7425q-2.4 0-2.4 2.4z" clip-path="url(#a)" fill="#fff" stroke="#fff"/>
<g clip-path="url(#a)">
<g transform="translate(341.15 905.86) rotate(90) scale(.08 -.08)">
<use xlink:href="#l"/>
<use x="44.083984" xlink:href="#d"/>
<use x="105.607422" xlink:href="#j"/>
<use x="144.970703" xlink:href="#k"/>
<use x="242.382812" xlink:href="#f"/>
<use x="270.166016" xlink:href="#g"/>
<use x="333.544922" xlink:href="#h"/>
<use x="394.824219" xlink:href="#i"/>
</g>
</g>
<path d="m85.85 905.86v33.808q0 2.4 2.4 2.4h7.7425q2.4 0 2.4-2.4v-33.808q0-2.4-2.4-2.4h-7.7425q-2.4 0-2.4 2.4z" clip-path="url(#a)" fill="#fff" stroke="#fff"/>
<g clip-path="url(#a)">
<g transform="translate(89.914 905.86) rotate(90) scale(.08 -.08)">
<use xlink:href="#l"/>
<use x="44.083984" xlink:href="#d"/>
<use x="105.607422" xlink:href="#j"/>
<use x="144.970703" xlink:href="#k"/>
<use x="242.382812" xlink:href="#f"/>
<use x="270.166016" xlink:href="#g"/>
<use x="333.544922" xlink:href="#h"/>
<use x="394.824219" xlink:href="#i"/>
</g>
</g>
<path d="m92.292 905.86v33.808q0 2.4 2.4 2.4h7.7425q2.4 0 2.4-2.4v-33.808q0-2.4-2.4-2.4h-7.7425q-2.4 0-2.4 2.4z" clip-path="url(#a)" fill="#fff" stroke="#fff"/>
<g clip-path="url(#a)">
<g transform="translate(96.356 905.86) rotate(90) scale(.08 -.08)">
<use xlink:href="#l"/>
<use x="44.083984" xlink:href="#d"/>
<use x="105.607422" xlink:href="#j"/>
<use x="144.970703" xlink:href="#k"/>
<use x="242.382812" xlink:href="#f"/>
<use x="270.166016" xlink:href="#g"/>
<use x="333.544922" xlink:href="#h"/>
<use x="394.824219" xlink:href="#i"/>
</g>
</g>
<path d="m100.88 905.86v33.808q0 2.4 2.4 2.4h7.7425q2.4 0 2.4-2.4v-33.808q0-2.4-2.4-2.4h-7.7425q-2.4 0-2.4 2.4z" clip-path="url(#a)" fill="#fff" stroke="#fff"/>
<g clip-path="url(#a)">
<g transform="translate(104.95 905.86) rotate(90) scale(.08 -.08)">
<use xlink:href="#l"/>
<use x="44.083984" xlink:href="#d"/>
<use x="105.607422" xlink:href="#j"/>
<use x="144.970703" xlink:href="#k"/>
<use x="242.382812" xlink:href="#f"/>
<use x="270.166016" xlink:href="#g"/>
<use x="333.544922" xlink:href="#h"/>
<use x="394.824219" xlink:href="#i"/>
</g>
</g>
<path d="m112.49 636.52 0.40272-5.4577q0.17662-2.3935-2.2169-2.5701l-7.7215-0.56977q-2.3935-0.17662-2.5701 2.2169l-0.40272 5.4577q-0.17662 2.3935 2.2169 2.5701l7.7215 0.56977q2.3935 0.17662 2.5701-2.2169z" clip-path="url(#a)" fill="#fff" stroke="#fff"/>
<g clip-path="url(#a)">
<g transform="translate(108.44 636.22) rotate(-85.78) scale(.08 -.08)">
<use xlink:href="#q"/>
</g>
</g>
<path d="m116.22 533.62 0.11332 6.159q0.044151 2.3996 2.4437 2.3554l7.7412-0.14243q2.3996-0.044151 2.3554-2.4437l-0.11332-6.159q-0.044151-2.3996-2.4437-2.3554l-7.7412 0.14243q-2.3996 0.044151-2.3554 2.4437z" clip-path="url(#a)" fill="#fff" stroke="#fff"/>
<g clip-path="url(#a)">
<g transform="translate(120.28 533.55) rotate(88.946) scale(.08 -.08)">
<use xlink:href="#an"/>
</g>
</g>
<path d="m126.87 631.33 0.3108 4.8137q0.15464 2.395 2.5496 2.2404l7.7264-0.49887q2.395-0.15464 2.2404-2.5496l-0.3108-4.8137q-0.15464-2.395-2.5496-2.2404l-7.7264 0.49886q-2.395 0.15464-2.2404 2.5496z" clip-path="url(#a)" fill="#fff" stroke="#fff"/>
<g clip-path="url(#a)">
<g transform="translate(130.92 631.07) rotate(86.306) scale(.08 -.08)">
<use xlink:href="#ak"/>
</g>
</g>
<path d="m127.29 733.32 0.1682-5.0522q0.079857-2.3987-2.3188-2.4785l-7.7382-0.25762q-2.3987-0.079858-2.4785 2.3188l-0.1682 5.0522q-0.079858 2.3987 2.3188 2.4785l7.7382 0.25762q2.3987 0.079858 2.4785-2.3188z" clip-path="url(#a)" fill="#fff" stroke="#fff"/>
<g clip-path="url(#a)">
<g transform="translate(123.23 733.19) rotate(-88.093) scale(.08 -.08)">
<use xlink:href="#z"/>
</g>
</g>
<path d="m121.19 728.01 0.18588 5.5832q0.079858 2.3987 2.4785 2.3188l7.7382-0.25762q2.3987-0.079858 2.3188-2.4785l-0.18588-5.5832q-0.079858-2.3987-2.4785-2.3188l-7.7382 0.25762q-2.3987 0.079858-2.3188 2.4785z" clip-path="url(#a)" fill="#fff" stroke="#fff"/>
<g clip-path="url(#a)">
<g transform="translate(125.25 727.87) rotate(88.093) scale(.08 -.08)">
<use xlink:href="#v"/>
</g>
</g>
<path d="m139.53 905.86v33.808q0 2.4 2.4 2.4h7.7425q2.4 0 2.4-2.4v-33.808q0-2.4-2.4-2.4h-7.7425q-2.4 0-2.4 2.4z" clip-path="url(#a)" fill="#fff" stroke="#fff"/>
<g clip-path="url(#a)">
<g transform="translate(143.6 905.86) rotate(90) scale(.08 -.08)">
<use xlink:href="#l"/>
<use x="44.083984" xlink:href="#d"/>
<use x="105.607422" xlink:href="#j"/>
<use x="144.970703" xlink:href="#k"/>
<use x="242.382812" xlink:href="#f"/>
<use x="270.166016" xlink:href="#g"/>
<use x="333.544922" xlink:href="#h"/>
<use x="394.824219" xlink:href="#i"/>
</g>
</g>
<path d="m111.62 905.86v33.808q0 2.4 2.4 2.4h7.7425q2.4 0 2.4-2.4v-33.808q0-2.4-2.4-2.4h-7.7425q-2.4 0-2.4 2.4z" clip-path="url(#a)" fill="#fff" stroke="#fff"/>
<g clip-path="url(#a)">
<g transform="translate(115.68 905.86) rotate(90) scale(.08 -.08)">
<use xlink:href="#l"/>
<use x="44.083984" xlink:href="#d"/>
<use x="105.607422" xlink:href="#j"/>
<use x="144.970703" xlink:href="#k"/>
<use x="242.382812" xlink:href="#f"/>
<use x="270.166016" xlink:href="#g"/>
<use x="333.544922" xlink:href="#h"/>
<use x="394.824219" xlink:href="#i"/>
</g>
</g>
<path d="m124.5 905.86v33.808q0 2.4 2.4 2.4h7.7425q2.4 0 2.4-2.4v-33.808q0-2.4-2.4-2.4h-7.7425q-2.4 0-2.4 2.4z" clip-path="url(#a)" fill="#fff" stroke="#fff"/>
<g clip-path="url(#a)">
<g transform="translate(128.57 905.86) rotate(90) scale(.08 -.08)">
<use xlink:href="#l"/>
<use x="44.083984" xlink:href="#d"/>
<use x="105.607422" xlink:href="#j"/>
<use x="144.970703" xlink:href="#k"/>
<use x="242.382812" xlink:href="#f"/>
<use x="270.166016" xlink:href="#g"/>
<use x="333.544922" xlink:href="#h"/>
<use x="394.824219" xlink:href="#i"/>
</g>
</g>
<path d="m156.71 905.86v33.808q0 2.4 2.4 2.4h7.7425q2.4 0 2.4-2.4v-33.808q0-2.4-2.4-2.4h-7.7425q-2.4 0-2.4 2.4z" clip-path="url(#a)" fill="#fff" stroke="#fff"/>
<g clip-path="url(#a)">
<g transform="translate(160.78 905.86) rotate(90) scale(.08 -.08)">
<use xlink:href="#l"/>
<use x="44.083984" xlink:href="#d"/>
<use x="105.607422" xlink:href="#j"/>
<use x="144.970703" xlink:href="#k"/>
<use x="242.382812" xlink:href="#f"/>
<use x="270.166016" xlink:href="#g"/>
<use x="333.544922" xlink:href="#h"/>
<use x="394.824219" xlink:href="#i"/>
</g>
</g>
<path d="m777.3 905.86v33.808q0 2.4 2.4 2.4h7.7425q2.4 0 2.4-2.4v-33.808q0-2.4-2.4-2.4h-7.7425q-2.4 0-2.4 2.4z" clip-path="url(#a)" fill="#fff" stroke="#fff"/>
<g clip-path="url(#a)">
<g transform="translate(781.36 905.86) rotate(90) scale(.08 -.08)">
<use xlink:href="#l"/>
<use x="44.083984" xlink:href="#d"/>
<use x="105.607422" xlink:href="#j"/>
<use x="144.970703" xlink:href="#k"/>
<use x="242.382812" xlink:href="#f"/>
<use x="270.166016" xlink:href="#g"/>
<use x="333.544922" xlink:href="#h"/>
<use x="394.824219" xlink:href="#i"/>
</g>
</g>
<path d="m1357.1 905.86v33.808q0 2.4 2.4 2.4h7.7425q2.4 0 2.4-2.4v-33.808q0-2.4-2.4-2.4h-7.7425q-2.4 0-2.4 2.4z" clip-path="url(#a)" fill="#fff" stroke="#fff"/>
<g clip-path="url(#a)">
<g transform="translate(1361.1 905.86) rotate(90) scale(.08 -.08)">
<use xlink:href="#l"/>
<use x="44.083984" xlink:href="#d"/>
<use x="105.607422" xlink:href="#j"/>
<use x="144.970703" xlink:href="#k"/>
<use x="242.382812" xlink:href="#f"/>
<use x="270.166016" xlink:href="#g"/>
<use x="333.544922" xlink:href="#h"/>
<use x="394.824219" xlink:href="#i"/>
</g>
</g>
<path d="m1928.3 905.86v33.808q0 2.4 2.4 2.4h7.7425q2.4 0 2.4-2.4v-33.808q0-2.4-2.4-2.4h-7.7425q-2.4 0-2.4 2.4z" clip-path="url(#a)" fill="#fff" stroke="#fff"/>
<g clip-path="url(#a)">
<g transform="translate(1932.3 905.86) rotate(90) scale(.08 -.08)">
<use xlink:href="#l"/>
<use x="44.083984" xlink:href="#d"/>
<use x="105.607422" xlink:href="#j"/>
<use x="144.970703" xlink:href="#k"/>
<use x="242.382812" xlink:href="#f"/>
<use x="270.166016" xlink:href="#g"/>
<use x="333.544922" xlink:href="#h"/>
<use x="394.824219" xlink:href="#i"/>
</g>
</g>
<defs>
<path id="b" d="m0 8.6603c2.2967 0 4.4997-0.9125 6.1237-2.5365 1.624-1.624 2.5365-3.827 2.5365-6.1237s-0.9125-4.4997-2.5365-6.1237c-1.624-1.624-3.827-2.5365-6.1237-2.5365s-4.4997 0.9125-6.1237 2.5365c-1.624 1.624-2.5365 3.827-2.5365 6.1237s0.9125 4.4997 2.5365 6.1237c1.624 1.624 3.827 2.5365 6.1237 2.5365z"/>
</defs>
<g clip-path="url(#a)" fill="#ffffff" stroke="#ffffff">
<use x="92.121212" y="1018.181818" xlink:href="#b"/>
<use x="98.563255" y="1018.181818" xlink:href="#b"/>
<use x="107.152645" y="1018.181818" xlink:href="#b"/>
<use x="117.889383" y="1018.181818" xlink:href="#b"/>
<use x="130.773469" y="1018.181818" xlink:href="#b"/>
<use x="145.804902" y="1018.181818" xlink:href="#b"/>
<use x="162.983683" y="1018.181818" xlink:href="#b"/>
<use x="182.309811" y="1018.181818" xlink:href="#b"/>
<use x="203.783287" y="1018.181818" xlink:href="#b"/>
<use x="227.404111" y="1018.181818" xlink:href="#b"/>
<use x="253.172282" y="1018.181818" xlink:href="#b"/>
<use x="281.087801" y="1018.181818" xlink:href="#b"/>
<use x="311.150668" y="1018.181818" xlink:href="#b"/>
<use x="343.360882" y="1018.181818" xlink:href="#b"/>
<use x="377.718443" y="1018.181818" xlink:href="#b"/>
<use x="414.223352" y="1018.181818" xlink:href="#b"/>
<use x="452.875609" y="1018.181818" xlink:href="#b"/>
<use x="493.675214" y="1018.181818" xlink:href="#b"/>
<use x="536.622166" y="1018.181818" xlink:href="#b"/>
<use x="581.716465" y="1018.181818" xlink:href="#b"/>
<use x="628.958113" y="1018.181818" xlink:href="#b"/>
<use x="678.347107" y="1018.181818" xlink:href="#b"/>
<use x="729.88345" y="1018.181818" xlink:href="#b"/>
<use x="783.56714" y="1018.181818" xlink:href="#b"/>
<use x="839.398178" y="1018.181818" xlink:href="#b"/>
<use x="897.376563" y="1018.181818" xlink:href="#b"/>
<use x="957.502296" y="1018.181818" xlink:href="#b"/>
<use x="1019.775376" y="1018.181818" xlink:href="#b"/>
<use x="1084.195804" y="1018.181818" xlink:href="#b"/>
<use x="1150.76358" y="1018.181818" xlink:href="#b"/>
<use x="1219.478703" y="1018.181818" xlink:href="#b"/>
<use x="1290.341174" y="1018.181818" xlink:href="#b"/>
<use x="1363.350992" y="1018.181818" xlink:href="#b"/>
<use x="1438.508159" y="1018.181818" xlink:href="#b"/>
<use x="1515.812672" y="1018.181818" xlink:href="#b"/>
<use x="1595.264533" y="1018.181818" xlink:href="#b"/>
<use x="1676.863742" y="1018.181818" xlink:href="#b"/>
<use x="1760.610299" y="1018.181818" xlink:href="#b"/>
<use x="1846.504203" y="1018.181818" xlink:href="#b"/>
<use x="1934.545455" y="1018.181818" xlink:href="#b"/>
<use x="685.972944" y="48.484848" xlink:href="#b"/>
<use x="104.647406" y="244.153365" xlink:href="#b"/>
<use x="182.309811" y="827.338775" xlink:href="#b"/>
<use x="205.12538" y="439.328135" xlink:href="#b"/>
<use x="377.718443" y="827.338775" xlink:href="#b"/>
<use x="392.034094" y="439.328135" xlink:href="#b"/>
<use x="581.716465" y="827.338775" xlink:href="#b"/>
<use x="679.06289" y="633.840894" xlink:href="#b"/>
<use x="1008.054437" y="244.153365" xlink:href="#b"/>
<use x="1438.508159" y="827.338775" xlink:href="#b"/>
<use x="1638.569377" y="439.328135" xlink:href="#b"/>
<use x="1515.812672" y="827.338775" xlink:href="#b"/>
<use x="1595.264533" y="827.338775" xlink:href="#b"/>
<use x="1804.630925" y="633.840894" xlink:href="#b"/>
<use x="1676.863742" y="827.338775" xlink:href="#b"/>
<use x="1760.610299" y="827.338775" xlink:href="#b"/>
<use x="1846.504203" y="827.338775" xlink:href="#b"/>
<use x="868.38737" y="439.328135" xlink:href="#b"/>
<use x="957.502296" y="827.338775" xlink:href="#b"/>
<use x="1019.775376" y="827.338775" xlink:href="#b"/>
<use x="1186.552707" y="439.328135" xlink:href="#b"/>
<use x="1084.195804" y="827.338775" xlink:href="#b"/>
<use x="1185.121141" y="633.840894" xlink:href="#b"/>
<use x="1290.341174" y="827.338775" xlink:href="#b"/>
<use x="1150.76358" y="827.338775" xlink:href="#b"/>
<use x="1219.478703" y="827.338775" xlink:href="#b"/>
<use x="868.38737" y="633.840894" xlink:href="#b"/>
<use x="839.398178" y="827.338775" xlink:href="#b"/>
<use x="897.376563" y="827.338775" xlink:href="#b"/>
<use x="628.958113" y="827.338775" xlink:href="#b"/>
<use x="678.347107" y="827.338775" xlink:href="#b"/>
<use x="729.88345" y="827.338775" xlink:href="#b"/>
<use x="433.549481" y="827.338775" xlink:href="#b"/>
<use x="515.14869" y="633.840894" xlink:href="#b"/>
<use x="493.675214" y="827.338775" xlink:href="#b"/>
<use x="536.622166" y="827.338775" xlink:href="#b"/>
<use x="203.783287" y="827.338775" xlink:href="#b"/>
<use x="227.404111" y="827.338775" xlink:href="#b"/>
<use x="297.192908" y="633.840894" xlink:href="#b"/>
<use x="253.172282" y="827.338775" xlink:href="#b"/>
<use x="281.087801" y="827.338775" xlink:href="#b"/>
<use x="311.150668" y="827.338775" xlink:href="#b"/>
<use x="343.360882" y="827.338775" xlink:href="#b"/>
<use x="92.121212" y="827.338775" xlink:href="#b"/>
<use x="98.563255" y="827.338775" xlink:href="#b"/>
<use x="107.152645" y="827.338775" xlink:href="#b"/>
<use x="120.752513" y="439.328135" xlink:href="#b"/>
<use x="124.331426" y="633.840894" xlink:href="#b"/>
<use x="145.804902" y="827.338775" xlink:href="#b"/>
<use x="117.889383" y="827.338775" xlink:href="#b"/>
<use x="130.773469" y="827.338775" xlink:href="#b"/>
<use x="162.983683" y="827.338775" xlink:href="#b"/>
<use x="783.56714" y="827.338775" xlink:href="#b"/>
<use x="1363.350992" y="827.338775" xlink:href="#b"/>
<use x="1934.545455" y="827.338775" xlink:href="#b"/>
</g>
<g clip-path="url(#a)">
<defs>
<path id="ay" d="m19.672 34.812v-26.703h15.828q7.9531 0 11.781 3.2969 3.8438 3.2969 3.8438 10.078 0 6.8438-3.8438 10.078-3.8281 3.25-11.781 3.25zm0 29.984v-21.969h14.609q7.2188 0 10.75 2.7031 3.5469 2.7188 3.5469 8.2812 0 5.5156-3.5469 8.25-3.5312 2.7344-10.75 2.7344zm-9.8594 8.1094h25.203q11.281 0 17.375-4.6875 6.1094-4.6875 6.1094-13.328 0-6.7031-3.125-10.656t-9.1875-4.9219q7.2812-1.5625 11.312-6.5312 4.0312-4.9531 4.0312-12.375 0-9.7656-6.6406-15.094-6.6406-5.3125-18.906-5.3125h-26.172z"/>
</defs>
<g transform="translate(81.867 1020.9) scale(.1 -.1)">
<use xlink:href="#q"/>
<use x="68.408203" xlink:href="#ay"/>
<use x="135.261719" xlink:href="#v"/>
</g>
</g>
<g clip-path="url(#a)">
<defs>
<path id="s" d="m30.609 48.391q-7.2188 0-11.422-5.6406t-4.2031-15.453 4.1719-15.453q4.1875-5.6406 11.453-5.6406 7.1875 0 11.375 5.6562 4.2031 5.6719 4.2031 15.438 0 9.7188-4.2031 15.406-4.1875 5.6875-11.375 5.6875zm0 7.6094q11.719 0 18.406-7.625 6.7031-7.6094 6.7031-21.078 0-13.422-6.7031-21.078-6.6875-7.6406-18.406-7.6406-11.766 0-18.438 7.6406-6.6562 7.6562-6.6562 21.078 0 13.469 6.6562 21.078 6.6719 7.625 18.438 7.625z"/>
<path id="ah" d="m45.406 27.984q0 9.7656-4.0312 15.125-4.0156 5.375-11.297 5.375-7.2188 0-11.25-5.375-4.0312-5.3594-4.0312-15.125 0-9.7188 4.0312-15.094t11.25-5.375q7.2812 0 11.297 5.375 4.0312 5.375 4.0312 15.094zm8.9844-21.203q0-13.953-6.2031-20.766-6.1875-6.8125-18.984-6.8125-4.7344 0-8.9375 0.70312t-8.1562 2.1719v8.7344q3.9531-2.1406 7.8125-3.1562 3.8594-1.0312 7.8594-1.0312 8.8438 0 13.234 4.6094t4.3906 13.938v4.4531q-2.7812-4.8438-7.125-7.2344t-10.406-2.3906q-10.047 0-16.203 7.6562-6.1562 7.6719-6.1562 20.328 0 12.688 6.1562 20.344 6.1562 7.6719 16.203 7.6719 6.0625 0 10.406-2.3906t7.125-7.2188v8.2969h8.9844z"/>
<path id="am" d="m32.172-5.0781q-3.7969-9.7656-7.4219-12.734-3.6094-2.9844-9.6562-2.9844h-7.1875v7.5156h5.2812q3.7031 0 5.75 1.7656 2.0625 1.75 4.5469 8.2969l1.6094 4.0938-22.109 53.812h9.5156l17.094-42.766 17.094 42.766h9.5156z"/>
</defs>
<g transform="translate(75.526 1020.9) scale(.1 -.1)">
<use xlink:href="#s"/>
<use x="61.181641" xlink:href="#j"/>
<use x="102.294922" xlink:href="#f"/>
<use x="130.078125" xlink:href="#ah"/>
<use x="193.554688" xlink:href="#f"/>
<use x="221.337891" xlink:href="#g"/>
<use x="284.716797" xlink:href="#h"/>
<use x="345.996094" xlink:href="#i"/>
<use x="373.779297" xlink:href="#i"/>
<use x="401.5625" xlink:href="#am"/>
</g>
</g>
<g clip-path="url(#a)">
<defs>
<path id="bb" d="m54.891 54.688-19.781-26.609 20.797-28.078h-10.594l-15.922 21.484-15.906-21.484h-10.609l21.25 28.609-19.438 26.078h10.594l14.5-19.484 14.5 19.484z"/>
<path id="ap" d="m18.109 8.2031v-29h-9.0312v75.484h9.0312v-8.2969q2.8438 4.875 7.1562 7.2344 4.3281 2.375 10.328 2.375 9.9688 0 16.188-7.9062 6.2344-7.9062 6.2344-20.797t-6.2344-20.812q-6.2188-7.9062-16.188-7.9062-6 0-10.328 2.375-4.3125 2.375-7.1562 7.25zm30.578 19.094q0 9.9062-4.0781 15.547t-11.203 5.6406q-7.1406 0-11.219-5.6406t-4.0781-15.547 4.0781-15.547 11.219-5.6406q7.125 0 11.203 5.6406t4.0781 15.547z"/>
<path id="x" d="m48.781 52.594v-8.4062q-3.8125 2.1094-7.6406 3.1562t-7.7344 1.0469q-8.75 0-13.594-5.5469-4.8281-5.5312-4.8281-15.547t4.8281-15.562q4.8438-5.5312 13.594-5.5312 3.9062 0 7.7344 1.0469t7.6406 3.1562v-8.3125q-3.7656-1.75-7.7969-2.625-4.0156-0.89062-8.5625-0.89062-12.359 0-19.641 7.7656-7.2656 7.7656-7.2656 20.953 0 13.375 7.3438 21.031 7.3594 7.6719 20.156 7.6719 4.1406 0 8.0938-0.85938 3.9531-0.84375 7.6719-2.5469z"/>
<path id="r" d="m18.312 70.219v-15.531h18.5v-6.9844h-18.5v-29.688q0-6.6875 1.8281-8.5938t7.4531-1.9062h9.2188v-7.5156h-9.2188q-10.406 0-14.359 3.875-3.9531 3.8906-3.9531 14.141v29.688h-6.5938v6.9844h6.5938v15.531z"/>
<path id="w" d="m45.406 46.391v29.594h8.9844v-75.984h-8.9844v8.2031q-2.8281-4.875-7.1562-7.25-4.3125-2.375-10.375-2.375-9.9062 0-16.141 7.9062-6.2188 7.9219-6.2188 20.812t6.2188 20.797q6.2344 7.9062 16.141 7.9062 6.0625 0 10.375-2.375 4.3281-2.3594 7.1562-7.2344zm-30.609-19.094q0-9.9062 4.0781-15.547t11.203-5.6406 11.219 5.6406q4.1094 5.6406 4.1094 15.547t-4.1094 15.547q-4.0938 5.6406-11.219 5.6406t-11.203-5.6406-4.0781-15.547z"/>
</defs>
<g transform="translate(83.993 1020.9) scale(.1 -.1)">
<use xlink:href="#d"/>
<use x="59.773438" xlink:href="#bb"/>
<use x="118.953125" xlink:href="#ap"/>
<use x="182.429688" xlink:href="#d"/>
<use x="243.953125" xlink:href="#x"/>
<use x="298.933594" xlink:href="#r"/>
<use x="338.142578" xlink:href="#d"/>
<use x="399.666016" xlink:href="#w"/>
</g>
</g>
<g clip-path="url(#a)">
<g transform="translate(114.83 1020.9) scale(.1 -.1)">
<use xlink:href="#h"/>
</g>
</g>
<g clip-path="url(#a)">
<defs>
<path id="aq" d="m37.109 75.984v-7.4844h-8.5938q-4.8281 0-6.7188-1.9531-1.875-1.9531-1.875-7.0312v-4.8281h14.797v-6.9844h-14.797v-47.703h-9.0312v47.703h-8.5938v6.9844h8.5938v3.8125q0 9.125 4.25 13.297 4.25 4.1875 13.469 4.1875z"/>
<path id="ag" d="m8.5 21.578v33.109h8.9844v-32.766q0-7.7656 3.0156-11.656 3.0312-3.875 9.0938-3.875 7.2656 0 11.484 4.6406 4.2344 4.6406 4.2344 12.656v31h8.9844v-54.688h-8.9844v8.4062q-3.2656-4.9844-7.5938-7.4062-4.3125-2.4219-10.031-2.4219-9.4219 0-14.312 5.8594-4.875 5.8594-4.875 17.141z"/>
</defs>
<g transform="translate(123.07 1020.9) scale(.1 -.1)">
<use xlink:href="#aq"/>
<use x="35.205078" xlink:href="#ag"/>
<use x="98.583984" xlink:href="#i"/>
<use x="126.367188" xlink:href="#i"/>
</g>
</g>
<g clip-path="url(#a)">
<defs>
<path id="at" d="m2.9844 54.688h9.5156l17.094-45.891 17.094 45.891h9.5156l-20.516-54.688h-12.203z"/>
</defs>
<g transform="translate(123.93 1020.9) scale(.1 -.1)">
<use xlink:href="#j"/>
<use x="38.863281" xlink:href="#d"/>
<use x="100.386719" xlink:href="#x"/>
<use x="155.367188" xlink:href="#s"/>
<use x="216.548828" xlink:href="#at"/>
<use x="275.728516" xlink:href="#d"/>
<use x="337.251953" xlink:href="#j"/>
<use x="378.365234" xlink:href="#am"/>
</g>
</g>
<g clip-path="url(#a)">
<defs>
<path id="as" d="m11.719 12.406h10.297v-8.4062l-8-15.625h-6.2969l4 15.625z"/>
</defs>
<g transform="translate(161.39 1020.9) scale(.1 -.1)">
<use xlink:href="#as"/>
</g>
</g>
<g clip-path="url(#a)">
<g transform="translate(172.9 1020.9) scale(.1 -.1)">
<use xlink:href="#h"/>
<use x="61.279297" xlink:href="#g"/>
<use x="124.658203" xlink:href="#w"/>
</g>
</g>
<g clip-path="url(#a)">
<g transform="translate(180.29 1020.9) scale(.1 -.1)">
<use xlink:href="#j"/>
<use x="38.863281" xlink:href="#d"/>
<use x="100.386719" xlink:href="#i"/>
<use x="128.169922" xlink:href="#s"/>
<use x="189.351562" xlink:href="#x"/>
<use x="244.332031" xlink:href="#h"/>
<use x="305.611328" xlink:href="#r"/>
<use x="344.820312" xlink:href="#d"/>
<use x="406.34375" xlink:href="#w"/>
</g>
</g>
<g clip-path="url(#a)">
<defs>
<path id="aw" d="m9.8125 72.906h9.8594v-67.828q0-13.188-5-19.141t-16.094-5.9531h-3.75v8.2969h3.0781q6.5312 0 9.2188 3.6719 2.6875 3.6562 2.6875 13.125z"/>
<path id="t" d="m44.281 53.078v-8.5q-3.7969 1.9531-7.9062 2.9219-4.0938 0.98438-8.5 0.98438-6.6875 0-10.031-2.0469t-3.3438-6.1562q0-3.125 2.3906-4.9062t9.625-3.3906l3.0781-0.6875q9.5625-2.0469 13.594-5.7812t4.0312-10.422q0-7.625-6.0312-12.078-6.0312-4.4375-16.578-4.4375-4.3906 0-9.1562 0.85938t-10.031 2.5625v9.2812q4.9844-2.5938 9.8125-3.8906 4.8281-1.2812 9.5781-1.2812 6.3438 0 9.75 2.1719 3.4219 2.1719 3.4219 6.125 0 3.6562-2.4688 5.6094-2.4531 1.9531-10.812 3.7656l-3.125 0.73438q-8.3438 1.75-12.062 5.3906-3.7031 3.6406-3.7031 9.9844 0 7.7188 5.4688 11.906 5.4688 4.2031 15.531 4.2031 4.9688 0 9.3594-0.73438 4.4062-0.71875 8.1094-2.1875z"/>
</defs>
<g transform="translate(206.18 1020.9) scale(.1 -.1)">
<use xlink:href="#aw"/>
<use x="29.492188" xlink:href="#d"/>
<use x="91.015625" xlink:href="#g"/>
<use x="154.394531" xlink:href="#g"/>
<use x="217.773438" xlink:href="#f"/>
<use x="245.556641" xlink:href="#g"/>
<use x="308.935547" xlink:href="#ah"/>
<use x="372.412109" xlink:href="#t"/>
</g>
</g>
<g clip-path="url(#a)">
<g transform="translate(248.15 1020.9) scale(.1 -.1)">
<use xlink:href="#r"/>
<use x="39.208984" xlink:href="#s"/>
</g>
</g>
<g clip-path="url(#a)">
<g transform="translate(275.13 1020.9) scale(.1 -.1)">
<use xlink:href="#f"/>
<use x="27.783203" xlink:href="#r"/>
<use x="66.992188" xlink:href="#t"/>
</g>
</g>
<g clip-path="url(#a)">
<defs>
<path id="au" d="m3.3281 72.906h9.9531l15.328-61.625 15.281 61.625h11.094l15.328-61.625 15.281 61.625h10.016l-18.312-72.906h-12.406l-15.375 63.281-15.531-63.281h-12.406z"/>
<path id="u" d="m54.891 33.016v-33.016h-8.9844v32.719q0 7.7656-3.0312 11.609-3.0312 3.8594-9.0781 3.8594-7.2812 0-11.484-4.6406-4.2031-4.625-4.2031-12.641v-30.906h-9.0312v75.984h9.0312v-29.797q3.2344 4.9375 7.5938 7.375 4.375 2.4375 10.094 2.4375 9.4219 0 14.25-5.8281 4.8438-5.8281 4.8438-17.156z"/>
</defs>
<g transform="translate(281.77 1020.9) scale(.1 -.1)">
<use xlink:href="#au"/>
<use x="92.501953" xlink:href="#h"/>
<use x="153.78125" xlink:href="#t"/>
<use x="205.880859" xlink:href="#u"/>
<use x="269.259766" xlink:href="#f"/>
<use x="297.042969" xlink:href="#g"/>
<use x="360.421875" xlink:href="#ah"/>
<use x="423.898438" xlink:href="#r"/>
<use x="463.107422" xlink:href="#s"/>
<use x="524.289062" xlink:href="#g"/>
</g>
</g>
<g clip-path="url(#a)">
<defs>
<path id="ar" d="m48.688 27.297q0 9.9062-4.0781 15.547t-11.203 5.6406q-7.1406 0-11.219-5.6406t-4.0781-15.547 4.0781-15.547 11.219-5.6406q7.125 0 11.203 5.6406t4.0781 15.547zm-30.578 19.094q2.8438 4.875 7.1562 7.2344 4.3281 2.375 10.328 2.375 9.9688 0 16.188-7.9062 6.2344-7.9062 6.2344-20.797t-6.2344-20.812q-6.2188-7.9062-16.188-7.9062-6 0-10.328 2.375-4.3125 2.375-7.1562 7.25v-8.2031h-9.0312v75.984h9.0312z"/>
</defs>
<g transform="translate(325.77 1020.9) scale(.1 -.1)">
<use xlink:href="#ar"/>
<use x="63.476562" xlink:href="#ag"/>
<use x="126.855469" xlink:href="#j"/>
<use x="165.71875" xlink:href="#d"/>
<use x="227.242188" xlink:href="#h"/>
<use x="288.521484" xlink:href="#ag"/>
</g>
</g>
<g clip-path="url(#a)">
<g transform="translate(372.7 1020.9) scale(.1 -.1)">
<use xlink:href="#r"/>
<use x="39.208984" xlink:href="#s"/>
</g>
</g>
<g clip-path="url(#a)">
<g transform="translate(408.3 1020.9) scale(.1 -.1)">
<use xlink:href="#aq"/>
<use x="35.205078" xlink:href="#f"/>
<use x="62.988281" xlink:href="#i"/>
<use x="90.771484" xlink:href="#i"/>
</g>
</g>
<g clip-path="url(#a)">
<g transform="translate(448.32 1020.9) scale(.1 -.1)">
<use xlink:href="#f"/>
<use x="27.783203" xlink:href="#g"/>
</g>
</g>
<g clip-path="url(#a)">
<g transform="translate(486.8 1020.9) scale(.1 -.1)">
<use xlink:href="#aq"/>
<use x="35.205078" xlink:href="#s"/>
<use x="96.386719" xlink:href="#j"/>
</g>
</g>
<g clip-path="url(#a)">
<g transform="translate(513.94 1020.9) scale(.1 -.1)">
<use xlink:href="#ae"/>
<use x="64.982422" xlink:href="#d"/>
<use x="126.505859" xlink:href="#am"/>
<use x="185.685547" xlink:href="#g"/>
<use x="249.064453" xlink:href="#s"/>
<use x="310.246094" xlink:href="#i"/>
<use x="338.029297" xlink:href="#w"/>
<use x="401.505859" xlink:href="#t"/>
</g>
</g>
<g clip-path="url(#a)">
<defs>
<path id="ao" d="m4.2031 54.688h8.9844l11.234-42.672 11.172 42.672h10.594l11.234-42.672 11.188 42.672h8.9844l-14.312-54.688h-10.594l-11.766 44.828-11.812-44.828h-10.609z"/>
</defs>
<g transform="translate(568.6 1020.9) scale(.1 -.1)">
<use xlink:href="#ao"/>
<use x="81.787109" xlink:href="#u"/>
<use x="145.166016" xlink:href="#f"/>
<use x="172.949219" xlink:href="#i"/>
<use x="200.732422" xlink:href="#d"/>
</g>
</g>
<g clip-path="url(#a)">
<g transform="translate(622.71 1020.9) scale(.1 -.1)">
<use xlink:href="#u"/>
<use x="63.378906" xlink:href="#d"/>
</g>
</g>
<g clip-path="url(#a)">
<g transform="translate(668.59 1020.9) scale(.1 -.1)">
<use xlink:href="#ao"/>
<use x="81.787109" xlink:href="#h"/>
<use x="143.066406" xlink:href="#t"/>
</g>
</g>
<g clip-path="url(#a)">
<defs>
<path id="bc" d="m9.0781 75.984h9.0312v-44.875l26.812 23.578h11.469l-29-25.578 30.234-29.109h-11.719l-27.797 26.703v-26.703h-9.0312z"/>
</defs>
<g transform="translate(720.25 1020.9) scale(.1 -.1)">
<use xlink:href="#t"/>
<use x="52.099609" xlink:href="#f"/>
<use x="79.882812" xlink:href="#x"/>
<use x="134.863281" xlink:href="#bc"/>
</g>
</g>
<g clip-path="url(#a)">
<defs>
<path id="az" d="m11.719 51.703h10.297v-12.391h-10.297zm0-39.297h10.297v-8.4062l-8-15.625h-6.2969l4 15.625z"/>
</defs>
<g transform="translate(781.88 1020.9) scale(.1 -.1)">
<use xlink:href="#az"/>
</g>
</g>
<g clip-path="url(#a)">
<g transform="translate(831.19 1020.9) scale(.1 -.1)">
<use xlink:href="#r"/>
<use x="39.208984" xlink:href="#u"/>
<use x="102.587891" xlink:href="#d"/>
</g>
</g>
<g clip-path="url(#a)">
<g transform="translate(883.41 1020.9) scale(.1 -.1)">
<use xlink:href="#k"/>
<use x="97.412109" xlink:href="#s"/>
<use x="158.59375" xlink:href="#at"/>
<use x="217.773438" xlink:href="#d"/>
</g>
</g>
<g clip-path="url(#a)">
<g transform="translate(940.44 1020.9) scale(.1 -.1)">
<use xlink:href="#u"/>
<use x="63.378906" xlink:href="#d"/>
<use x="124.902344" xlink:href="#i"/>
<use x="152.685547" xlink:href="#ap"/>
<use x="216.162109" xlink:href="#d"/>
<use x="277.685547" xlink:href="#w"/>
</g>
</g>
<g clip-path="url(#a)">
<g transform="translate(1007.4 1020.9) scale(.1 -.1)">
<use xlink:href="#ar"/>
<use x="63.476562" xlink:href="#ag"/>
<use x="126.855469" xlink:href="#s"/>
<use x="188.037109" xlink:href="#am"/>
</g>
</g>
<g clip-path="url(#a)">
<g transform="translate(1076 1020.9) scale(.1 -.1)">
<use xlink:href="#r"/>
<use x="39.208984" xlink:href="#u"/>
<use x="102.587891" xlink:href="#d"/>
</g>
</g>
<g clip-path="url(#a)">
<g transform="translate(1127.4 1020.9) scale(.1 -.1)">
<use xlink:href="#g"/>
<use x="63.378906" xlink:href="#d"/>
<use x="124.902344" xlink:href="#ao"/>
<use x="206.689453" xlink:href="#t"/>
<use x="258.789062" xlink:href="#x"/>
<use x="313.769531" xlink:href="#h"/>
<use x="375.048828" xlink:href="#t"/>
<use x="427.148438" xlink:href="#r"/>
</g>
</g>
<g clip-path="url(#a)">
<defs>
<path id="ba" d="m17.922 72.906v-27.109h-8.2969v27.109z"/>
</defs>
<g transform="translate(1215.5 1020.9) scale(.1 -.1)">
<use xlink:href="#ba"/>
<use x="27.490234" xlink:href="#t"/>
</g>
</g>
<g clip-path="url(#a)">
<g transform="translate(1272.9 1020.9) scale(.1 -.1)">
<use xlink:href="#j"/>
<use x="41.113281" xlink:href="#h"/>
<use x="102.392578" xlink:href="#r"/>
<use x="141.601562" xlink:href="#f"/>
<use x="169.384766" xlink:href="#g"/>
<use x="232.763672" xlink:href="#ah"/>
<use x="296.240234" xlink:href="#t"/>
</g>
</g>
<g clip-path="url(#a)">
<g transform="translate(1361.8 1020.9) scale(.1 -.1)">
<use xlink:href="#as"/>
</g>
</g>
<g clip-path="url(#a)">
<g transform="translate(1416.4 1020.9) scale(.1 -.1)">
<use xlink:href="#h"/>
<use x="61.279297" xlink:href="#i"/>
<use x="89.0625" xlink:href="#r"/>
<use x="128.271484" xlink:href="#u"/>
<use x="191.650391" xlink:href="#s"/>
<use x="252.832031" xlink:href="#ag"/>
<use x="316.210938" xlink:href="#ah"/>
<use x="379.6875" xlink:href="#u"/>
</g>
</g>
<g clip-path="url(#a)">
<g transform="translate(1512.5 1020.9) scale(.1 -.1)">
<use xlink:href="#f"/>
<use x="27.783203" xlink:href="#r"/>
</g>
</g>
<g clip-path="url(#a)">
<g transform="translate(1571.5 1020.9) scale(.1 -.1)">
<use xlink:href="#j"/>
<use x="38.863281" xlink:href="#d"/>
<use x="100.386719" xlink:href="#k"/>
<use x="197.798828" xlink:href="#h"/>
<use x="259.078125" xlink:href="#f"/>
<use x="286.861328" xlink:href="#g"/>
<use x="350.240234" xlink:href="#d"/>
<use x="411.763672" xlink:href="#w"/>
</g>
</g>
<g clip-path="url(#a)">
<g transform="translate(1672.3 1020.9) scale(.1 -.1)">
<use xlink:href="#f"/>
<use x="27.783203" xlink:href="#g"/>
</g>
</g>
<g clip-path="url(#a)">
<g transform="translate(1749 1020.9) scale(.1 -.1)">
<use xlink:href="#r"/>
<use x="39.208984" xlink:href="#u"/>
<use x="102.587891" xlink:href="#f"/>
<use x="130.371094" xlink:href="#j"/>
<use x="169.734375" xlink:href="#w"/>
</g>
</g>
<g clip-path="url(#a)">
<g transform="translate(1833.1 1020.9) scale(.1 -.1)">
<use xlink:href="#ap"/>
<use x="63.476562" xlink:href="#i"/>
<use x="91.259766" xlink:href="#h"/>
<use x="152.539062" xlink:href="#x"/>
<use x="207.519531" xlink:href="#d"/>
</g>
</g>
<g clip-path="url(#a)">
<defs>
<path id="e" d="m10.688 12.406h10.312v-12.406h-10.312z"/>
</defs>
<g transform="translate(1933 1020.9) scale(.1 -.1)">
<use xlink:href="#e"/>
</g>
</g>
<g clip-path="url(#a)">
<defs>
<path id="c" d="m12.406 8.2969h16.109v55.625l-17.531-3.5156v8.9844l17.438 3.5156h9.8594v-64.609h16.109v-8.2969h-41.984z"/>
</defs>
<g transform="translate(678.02 51.244) scale(.1 -.1)">
<use xlink:href="#c"/>
<use x="63.623047" xlink:href="#e"/>
<use x="95.410156" xlink:href="#c"/>
</g>
</g>
<g clip-path="url(#a)">
<defs>
<path id="p" d="m19.188 8.2969h34.422v-8.2969h-46.281v8.2969q5.6094 5.8125 15.297 15.594 9.7031 9.7969 12.188 12.641 4.7344 5.3125 6.6094 9 1.8906 3.6875 1.8906 7.25 0 5.8125-4.0781 9.4688-4.0781 3.6719-10.625 3.6719-4.6406 0-9.7969-1.6094-5.1406-1.6094-11-4.8906v9.9688q5.9531 2.3906 11.125 3.6094 5.1875 1.2188 9.4844 1.2188 11.328 0 18.062-5.6719 6.7344-5.6562 6.7344-15.125 0-4.5-1.6875-8.5312-1.6719-4.0156-6.125-9.4844-1.2188-1.4219-7.7656-8.1875-6.5312-6.7656-18.453-18.922z"/>
</defs>
<g transform="translate(96.696 246.91) scale(.1 -.1)">
<use xlink:href="#c"/>
<use x="63.623047" xlink:href="#e"/>
<use x="95.410156" xlink:href="#p"/>
</g>
</g>
<g clip-path="url(#a)">
<defs>
<path id="o" d="m40.578 39.312q7.0781-1.5156 11.047-6.3125 3.9844-4.7812 3.9844-11.812 0-10.781-7.4219-16.703-7.4219-5.9062-21.094-5.9062-4.5781 0-9.4375 0.90625t-10.031 2.7188v9.5156q4.0938-2.3906 8.9688-3.6094 4.8906-1.2188 10.219-1.2188 9.2656 0 14.125 3.6562t4.8594 10.641q0 6.4531-4.5156 10.078-4.5156 3.6406-12.562 3.6406h-8.5v8.1094h8.8906q7.2656 0 11.125 2.9062t3.8594 8.375q0 5.6094-3.9844 8.6094-3.9688 3.0156-11.391 3.0156-4.0625 0-8.7031-0.89062-4.6406-0.875-10.203-2.7188v8.7812q5.625 1.5625 10.531 2.3438t9.25 0.78125q11.234 0 17.766-5.1094 6.5469-5.0938 6.5469-13.781 0-6.0625-3.4688-10.234t-9.8594-5.7812z"/>
</defs>
<g transform="translate(174.36 830.1) scale(.1 -.1)">
<use xlink:href="#c"/>
<use x="63.623047" xlink:href="#e"/>
<use x="95.410156" xlink:href="#o"/>
</g>
</g>
<g clip-path="url(#a)">
<defs>
<path id="n" d="m37.797 64.312-24.906-38.922h24.906zm-2.5938 8.5938h12.406v-47.516h10.406v-8.2031h-10.406v-17.188h-9.8125v17.188h-32.906v9.5156z"/>
</defs>
<g transform="translate(197.17 442.09) scale(.1 -.1)">
<use xlink:href="#c"/>
<use x="63.623047" xlink:href="#e"/>
<use x="95.410156" xlink:href="#n"/>
</g>
</g>
<g clip-path="url(#a)">
<defs>
<path id="m" d="m10.797 72.906h38.719v-8.3125h-29.688v-17.859q2.1406 0.73438 4.2812 1.0938 2.1562 0.35938 4.3125 0.35938 12.203 0 19.328-6.6875 7.1406-6.6875 7.1406-18.109 0-11.766-7.3281-18.297-7.3281-6.5156-20.656-6.5156-4.5938 0-9.3594 0.78125-4.75 0.78125-9.8281 2.3438v9.9219q4.3906-2.3906 9.0781-3.5625t9.9062-1.1719q8.4531 0 13.375 4.4375 4.9375 4.4375 4.9375 12.062 0 7.6094-4.9375 12.047-4.9219 4.4531-13.375 4.4531-3.9531 0-7.8906-0.875-3.9219-0.875-8.0156-2.7344z"/>
</defs>
<g transform="translate(369.77 830.1) scale(.1 -.1)">
<use xlink:href="#c"/>
<use x="63.623047" xlink:href="#e"/>
<use x="95.410156" xlink:href="#m"/>
</g>
</g>
<g clip-path="url(#a)">
<defs>
<path id="ad" d="m33.016 40.375q-6.6406 0-10.531-4.5469-3.875-4.5312-3.875-12.438 0-7.8594 3.875-12.438 3.8906-4.5625 10.531-4.5625t10.516 4.5625q3.875 4.5781 3.875 12.438 0 7.9062-3.875 12.438-3.875 4.5469-10.516 4.5469zm19.578 30.922v-8.9844q-3.7188 1.75-7.5 2.6719-3.7812 0.9375-7.5 0.9375-9.7656 0-14.922-6.5938-5.1406-6.5938-5.875-19.922 2.875 4.25 7.2188 6.5156 4.3594 2.2656 9.5781 2.2656 10.984 0 17.359-6.6719 6.375-6.6562 6.375-18.125 0-11.234-6.6406-18.031-6.6406-6.7812-17.672-6.7812-12.656 0-19.344 9.6875-6.6875 9.7031-6.6875 28.109 0 17.281 8.2031 27.562t22.016 10.281q3.7188 0 7.5-0.73438t7.8906-2.1875z"/>
</defs>
<g transform="translate(384.08 442.09) scale(.1 -.1)">
<use xlink:href="#c"/>
<use x="63.623047" xlink:href="#e"/>
<use x="95.410156" xlink:href="#ad"/>
</g>
</g>
<g clip-path="url(#a)">
<defs>
<path id="ac" d="m8.2031 72.906h46.875v-4.2031l-26.469-68.703h-10.297l24.906 64.594h-35.016z"/>
</defs>
<g transform="translate(573.76 830.1) scale(.1 -.1)">
<use xlink:href="#c"/>
<use x="63.623047" xlink:href="#e"/>
<use x="95.410156" xlink:href="#ac"/>
</g>
</g>
<g clip-path="url(#a)">
<defs>
<path id="ab" d="m31.781 34.625q-7.0312 0-11.062-3.7656-4.0156-3.7656-4.0156-10.344 0-6.5938 4.0156-10.359 4.0312-3.7656 11.062-3.7656t11.078 3.7812q4.0625 3.7969 4.0625 10.344 0 6.5781-4.0312 10.344-4.0156 3.7656-11.109 3.7656zm-9.8594 4.1875q-6.3438 1.5625-9.8906 5.9062-3.5312 4.3594-3.5312 10.609 0 8.7344 6.2188 13.812 6.2344 5.0781 17.062 5.0781 10.891 0 17.094-5.0781t6.2031-13.812q0-6.25-3.5469-10.609-3.5312-4.3438-9.8281-5.9062 7.125-1.6562 11.094-6.5 3.9844-4.8281 3.9844-11.797 0-10.609-6.4688-16.281-6.4688-5.6562-18.531-5.6562-12.047 0-18.531 5.6562-6.4688 5.6719-6.4688 16.281 0 6.9688 4 11.797 4.0156 4.8438 11.141 6.5zm-3.6094 15.578q0-5.6562 3.5312-8.8281 3.5469-3.1719 9.9375-3.1719 6.3594 0 9.9375 3.1719 3.5938 3.1719 3.5938 8.8281 0 5.6719-3.5938 8.8438-3.5781 3.1719-9.9375 3.1719-6.3906 0-9.9375-3.1719-3.5312-3.1719-3.5312-8.8438z"/>
</defs>
<g transform="translate(671.11 636.6) scale(.1 -.1)">
<use xlink:href="#c"/>
<use x="63.623047" xlink:href="#e"/>
<use x="95.410156" xlink:href="#ab"/>
</g>
</g>
<g clip-path="url(#a)">
<defs>
<path id="aa" d="m10.984 1.5156v8.9844q3.7188-1.7656 7.5156-2.6875 3.8125-0.92188 7.4844-0.92188 9.7656 0 14.906 6.5625 5.1562 6.5625 5.8906 19.953-2.8281-4.2031-7.1875-6.4531-4.3438-2.25-9.6094-2.25-10.938 0-17.312 6.6094-6.375 6.625-6.375 18.109 0 11.219 6.6406 18 6.6406 6.7969 17.672 6.7969 12.656 0 19.312-9.7031 6.6719-9.6875 6.6719-28.141 0-17.234-8.1875-27.516-8.1719-10.281-21.984-10.281-3.7188 0-7.5312 0.73438-3.7969 0.73438-7.9062 2.2031zm19.625 30.906q6.6406 0 10.516 4.5312 3.8906 4.5469 3.8906 12.469 0 7.8594-3.8906 12.422-3.875 4.5625-10.516 4.5625t-10.516-4.5625-3.875-12.422q0-7.9219 3.875-12.469 3.875-4.5312 10.516-4.5312z"/>
</defs>
<g transform="translate(1000.1 246.91) scale(.1 -.1)">
<use xlink:href="#c"/>
<use x="63.623047" xlink:href="#e"/>
<use x="95.410156" xlink:href="#aa"/>
</g>
</g>
<g clip-path="url(#a)">
<defs>
<path id="af" d="m31.781 66.406q-7.6094 0-11.453-7.5-3.8281-7.4844-3.8281-22.531 0-14.984 3.8281-22.484 3.8438-7.5 11.453-7.5 7.6719 0 11.5 7.5 3.8438 7.5 3.8438 22.484 0 15.047-3.8438 22.531-3.8281 7.5-11.5 7.5zm0 7.8125q12.266 0 18.734-9.7031 6.4688-9.6875 6.4688-28.141 0-18.406-6.4688-28.109-6.4688-9.6875-18.734-9.6875-12.25 0-18.719 9.6875-6.4688 9.7031-6.4688 28.109 0 18.453 6.4688 28.141 6.4688 9.7031 18.719 9.7031z"/>
</defs>
<g transform="translate(1427.4 830.1) scale(.1 -.1)">
<use xlink:href="#c"/>
<use x="63.623047" xlink:href="#e"/>
<use x="95.410156" xlink:href="#c"/>
<use x="159.033203" xlink:href="#af"/>
</g>
</g>
<g clip-path="url(#a)">
<g transform="translate(1627.4 442.09) scale(.1 -.1)">
<use xlink:href="#c"/>
<use x="63.623047" xlink:href="#e"/>
<use x="95.410156" xlink:href="#c"/>
<use x="159.033203" xlink:href="#c"/>
</g>
</g>
<g clip-path="url(#a)">
<g transform="translate(1504.7 830.1) scale(.1 -.1)">
<use xlink:href="#c"/>
<use x="63.623047" xlink:href="#e"/>
<use x="95.410156" xlink:href="#c"/>
<use x="159.033203" xlink:href="#ad"/>
</g>
</g>
<g clip-path="url(#a)">
<g transform="translate(1584.1 830.1) scale(.1 -.1)">
<use xlink:href="#c"/>
<use x="63.623047" xlink:href="#e"/>
<use x="95.410156" xlink:href="#c"/>
<use x="159.033203" xlink:href="#ac"/>
</g>
</g>
<g clip-path="url(#a)">
<g transform="translate(1793.5 636.6) scale(.1 -.1)">
<use xlink:href="#c"/>
<use x="63.623047" xlink:href="#e"/>
<use x="95.410156" xlink:href="#c"/>
<use x="159.033203" xlink:href="#ab"/>
</g>
</g>
<g clip-path="url(#a)">
<g transform="translate(1665.7 830.1) scale(.1 -.1)">
<use xlink:href="#c"/>
<use x="63.623047" xlink:href="#e"/>
<use x="95.410156" xlink:href="#c"/>
<use x="159.033203" xlink:href="#aa"/>
</g>
</g>
<g clip-path="url(#a)">
<g transform="translate(1749.5 830.1) scale(.1 -.1)">
<use xlink:href="#c"/>
<use x="63.623047" xlink:href="#e"/>
<use x="95.410156" xlink:href="#p"/>
<use x="159.033203" xlink:href="#af"/>
</g>
</g>
<g clip-path="url(#a)">
<g transform="translate(1835.4 830.1) scale(.1 -.1)">
<use xlink:href="#c"/>
<use x="63.623047" xlink:href="#e"/>
<use x="95.410156" xlink:href="#p"/>
<use x="159.033203" xlink:href="#c"/>
</g>
</g>
<g clip-path="url(#a)">
<g transform="translate(857.25 442.09) scale(.1 -.1)">
<use xlink:href="#c"/>
<use x="63.623047" xlink:href="#e"/>
<use x="95.410156" xlink:href="#p"/>
<use x="159.033203" xlink:href="#p"/>
</g>
</g>
<g clip-path="url(#a)">
<g transform="translate(946.37 830.1) scale(.1 -.1)">
<use xlink:href="#c"/>
<use x="63.623047" xlink:href="#e"/>
<use x="95.410156" xlink:href="#p"/>
<use x="159.033203" xlink:href="#o"/>
</g>
</g>
<g clip-path="url(#a)">
<g transform="translate(1008.6 830.1) scale(.1 -.1)">
<use xlink:href="#c"/>
<use x="63.623047" xlink:href="#e"/>
<use x="95.410156" xlink:href="#p"/>
<use x="159.033203" xlink:href="#n"/>
</g>
</g>
<g clip-path="url(#a)">
<g transform="translate(1175.4 442.09) scale(.1 -.1)">
<use xlink:href="#c"/>
<use x="63.623047" xlink:href="#e"/>
<use x="95.410156" xlink:href="#p"/>
<use x="159.033203" xlink:href="#m"/>
</g>
</g>
<g clip-path="url(#a)">
<g transform="translate(1073.1 830.1) scale(.1 -.1)">
<use xlink:href="#c"/>
<use x="63.623047" xlink:href="#e"/>
<use x="95.410156" xlink:href="#p"/>
<use x="159.033203" xlink:href="#ad"/>
</g>
</g>
<g clip-path="url(#a)">
<g transform="translate(1174 636.6) scale(.1 -.1)">
<use xlink:href="#c"/>
<use x="63.623047" xlink:href="#e"/>
<use x="95.410156" xlink:href="#p"/>
<use x="159.033203" xlink:href="#ac"/>
</g>
</g>
<g clip-path="url(#a)">
<g transform="translate(1279.2 830.1) scale(.1 -.1)">
<use xlink:href="#c"/>
<use x="63.623047" xlink:href="#e"/>
<use x="95.410156" xlink:href="#p"/>
<use x="159.033203" xlink:href="#ab"/>
</g>
</g>
<g clip-path="url(#a)">
<g transform="translate(1139.6 830.1) scale(.1 -.1)">
<use xlink:href="#c"/>
<use x="63.623047" xlink:href="#e"/>
<use x="95.410156" xlink:href="#p"/>
<use x="159.033203" xlink:href="#aa"/>
</g>
</g>
<g clip-path="url(#a)">
<g transform="translate(1208.3 830.1) scale(.1 -.1)">
<use xlink:href="#c"/>
<use x="63.623047" xlink:href="#e"/>
<use x="95.410156" xlink:href="#o"/>
<use x="159.033203" xlink:href="#af"/>
</g>
</g>
<g clip-path="url(#a)">
<g transform="translate(857.25 636.6) scale(.1 -.1)">
<use xlink:href="#c"/>
<use x="63.623047" xlink:href="#e"/>
<use x="95.410156" xlink:href="#o"/>
<use x="159.033203" xlink:href="#c"/>
</g>
</g>
<g clip-path="url(#a)">
<g transform="translate(828.27 830.1) scale(.1 -.1)">
<use xlink:href="#c"/>
<use x="63.623047" xlink:href="#e"/>
<use x="95.410156" xlink:href="#o"/>
<use x="159.033203" xlink:href="#p"/>
</g>
</g>
<g clip-path="url(#a)">
<g transform="translate(886.24 830.1) scale(.1 -.1)">
<use xlink:href="#c"/>
<use x="63.623047" xlink:href="#e"/>
<use x="95.410156" xlink:href="#o"/>
<use x="159.033203" xlink:href="#o"/>
</g>
</g>
<g clip-path="url(#a)">
<g transform="translate(617.83 830.1) scale(.1 -.1)">
<use xlink:href="#c"/>
<use x="63.623047" xlink:href="#e"/>
<use x="95.410156" xlink:href="#o"/>
<use x="159.033203" xlink:href="#n"/>
</g>
</g>
<g clip-path="url(#a)">
<g transform="translate(667.21 830.1) scale(.1 -.1)">
<use xlink:href="#c"/>
<use x="63.623047" xlink:href="#e"/>
<use x="95.410156" xlink:href="#o"/>
<use x="159.033203" xlink:href="#m"/>
</g>
</g>
<g clip-path="url(#a)">
<g transform="translate(718.75 830.1) scale(.1 -.1)">
<use xlink:href="#c"/>
<use x="63.623047" xlink:href="#e"/>
<use x="95.410156" xlink:href="#o"/>
<use x="159.033203" xlink:href="#ad"/>
</g>
</g>
<g clip-path="url(#a)">
<g transform="translate(422.42 830.1) scale(.1 -.1)">
<use xlink:href="#c"/>
<use x="63.623047" xlink:href="#e"/>
<use x="95.410156" xlink:href="#o"/>
<use x="159.033203" xlink:href="#ac"/>
</g>
</g>
<g clip-path="url(#a)">
<g transform="translate(504.02 636.6) scale(.1 -.1)">
<use xlink:href="#c"/>
<use x="63.623047" xlink:href="#e"/>
<use x="95.410156" xlink:href="#o"/>
<use x="159.033203" xlink:href="#ab"/>
</g>
</g>
<g clip-path="url(#a)">
<g transform="translate(482.54 830.1) scale(.1 -.1)">
<use xlink:href="#c"/>
<use x="63.623047" xlink:href="#e"/>
<use x="95.410156" xlink:href="#o"/>
<use x="159.033203" xlink:href="#aa"/>
</g>
</g>
<g clip-path="url(#a)">
<g transform="translate(525.49 830.1) scale(.1 -.1)">
<use xlink:href="#c"/>
<use x="63.623047" xlink:href="#e"/>
<use x="95.410156" xlink:href="#n"/>
<use x="159.033203" xlink:href="#af"/>
</g>
</g>
<g clip-path="url(#a)">
<g transform="translate(192.65 830.1) scale(.1 -.1)">
<use xlink:href="#c"/>
<use x="63.623047" xlink:href="#e"/>
<use x="95.410156" xlink:href="#n"/>
<use x="159.033203" xlink:href="#c"/>
</g>
</g>
<g clip-path="url(#a)">
<g transform="translate(216.27 830.1) scale(.1 -.1)">
<use xlink:href="#c"/>
<use x="63.623047" xlink:href="#e"/>
<use x="95.410156" xlink:href="#n"/>
<use x="159.033203" xlink:href="#p"/>
</g>
</g>
<g clip-path="url(#a)">
<g transform="translate(286.06 636.6) scale(.1 -.1)">
<use xlink:href="#c"/>
<use x="63.623047" xlink:href="#e"/>
<use x="95.410156" xlink:href="#n"/>
<use x="159.033203" xlink:href="#o"/>
</g>
</g>
<g clip-path="url(#a)">
<g transform="translate(242.04 830.1) scale(.1 -.1)">
<use xlink:href="#c"/>
<use x="63.623047" xlink:href="#e"/>
<use x="95.410156" xlink:href="#n"/>
<use x="159.033203" xlink:href="#n"/>
</g>
</g>
<g clip-path="url(#a)">
<g transform="translate(269.95 830.1) scale(.1 -.1)">
<use xlink:href="#c"/>
<use x="63.623047" xlink:href="#e"/>
<use x="95.410156" xlink:href="#n"/>
<use x="159.033203" xlink:href="#m"/>
</g>
</g>
<g clip-path="url(#a)">
<g transform="translate(300.02 830.1) scale(.1 -.1)">
<use xlink:href="#c"/>
<use x="63.623047" xlink:href="#e"/>
<use x="95.410156" xlink:href="#n"/>
<use x="159.033203" xlink:href="#ad"/>
</g>
</g>
<g clip-path="url(#a)">
<g transform="translate(332.23 830.1) scale(.1 -.1)">
<use xlink:href="#c"/>
<use x="63.623047" xlink:href="#e"/>
<use x="95.410156" xlink:href="#n"/>
<use x="159.033203" xlink:href="#ac"/>
</g>
</g>
<g clip-path="url(#a)">
<g transform="translate(80.988 830.1) scale(.1 -.1)">
<use xlink:href="#c"/>
<use x="63.623047" xlink:href="#e"/>
<use x="95.410156" xlink:href="#n"/>
<use x="159.033203" xlink:href="#ab"/>
</g>
</g>
<g clip-path="url(#a)">
<g transform="translate(87.43 830.1) scale(.1 -.1)">
<use xlink:href="#c"/>
<use x="63.623047" xlink:href="#e"/>
<use x="95.410156" xlink:href="#n"/>
<use x="159.033203" xlink:href="#aa"/>
</g>
</g>
<g clip-path="url(#a)">
<g transform="translate(96.02 830.1) scale(.1 -.1)">
<use xlink:href="#c"/>
<use x="63.623047" xlink:href="#e"/>
<use x="95.410156" xlink:href="#m"/>
<use x="159.033203" xlink:href="#af"/>
</g>
</g>
<g clip-path="url(#a)">
<g transform="translate(109.62 442.09) scale(.1 -.1)">
<use xlink:href="#c"/>
<use x="63.623047" xlink:href="#e"/>
<use x="95.410156" xlink:href="#m"/>
<use x="159.033203" xlink:href="#c"/>
</g>
</g>
<g clip-path="url(#a)">
<g transform="translate(113.2 636.6) scale(.1 -.1)">
<use xlink:href="#c"/>
<use x="63.623047" xlink:href="#e"/>
<use x="95.410156" xlink:href="#m"/>
<use x="159.033203" xlink:href="#p"/>
</g>
</g>
<g clip-path="url(#a)">
<g transform="translate(134.67 830.1) scale(.1 -.1)">
<use xlink:href="#c"/>
<use x="63.623047" xlink:href="#e"/>
<use x="95.410156" xlink:href="#m"/>
<use x="159.033203" xlink:href="#o"/>
</g>
</g>
<g clip-path="url(#a)">
<g transform="translate(106.76 830.1) scale(.1 -.1)">
<use xlink:href="#c"/>
<use x="63.623047" xlink:href="#e"/>
<use x="95.410156" xlink:href="#m"/>
<use x="159.033203" xlink:href="#n"/>
</g>
</g>
<g clip-path="url(#a)">
<g transform="translate(119.64 830.1) scale(.1 -.1)">
<use xlink:href="#c"/>
<use x="63.623047" xlink:href="#e"/>
<use x="95.410156" xlink:href="#m"/>
<use x="159.033203" xlink:href="#m"/>
</g>
</g>
<g clip-path="url(#a)">
<g transform="translate(151.85 830.1) scale(.1 -.1)">
<use xlink:href="#c"/>
<use x="63.623047" xlink:href="#e"/>
<use x="95.410156" xlink:href="#m"/>
<use x="159.033203" xlink:href="#ad"/>
</g>
</g>
<g clip-path="url(#a)">
<g transform="translate(772.43 830.1) scale(.1 -.1)">
<use xlink:href="#c"/>
<use x="63.623047" xlink:href="#e"/>
<use x="95.410156" xlink:href="#m"/>
<use x="159.033203" xlink:href="#ac"/>
</g>
</g>
<g clip-path="url(#a)">
<g transform="translate(1352.2 830.1) scale(.1 -.1)">
<use xlink:href="#c"/>
<use x="63.623047" xlink:href="#e"/>
<use x="95.410156" xlink:href="#m"/>
<use x="159.033203" xlink:href="#ab"/>
</g>
</g>
<g clip-path="url(#a)">
<g transform="translate(1923.4 830.1) scale(.1 -.1)">
<use xlink:href="#c"/>
<use x="63.623047" xlink:href="#e"/>
<use x="95.410156" xlink:href="#m"/>
<use x="159.033203" xlink:href="#aa"/>
</g>
</g>
<defs>
<clipPath id="a">
<rect width="2026.7" height="1066.7"/>
</clipPath>
</defs>
</svg>
