<?xml version="1.0" encoding="UTF-8"?>
<!DOCTYPE svg  PUBLIC '-//W3C//DTD SVG 1.1//EN'  'http://www.w3.org/Graphics/SVG/1.1/DTD/svg11.dtd'>
<svg width="1672pt" height="880pt" version="1.1" viewBox="0 0 1672 880" xmlns="http://www.w3.org/2000/svg" xmlns:xlink="http://www.w3.org/1999/xlink">
<defs>
<style type="text/css">*{stroke-linecap:butt;stroke-linejoin:round;}</style>
</defs>
<path d="m0 880h1672v-880h-1672z" fill="#fff"/>
<g fill="none" stroke="#000">
<path d="m440.91 40-292.97 345.41" clip-path="url(#a)"/>
<path d="m440.91 40 66.444 687.92" clip-path="url(#a)"/>
<path d="m440.91 40 206.3 115.34" clip-path="url(#a)"/>
<path d="m440.91 40 20.228 687.92" clip-path="url(#a)"/>
<path d="m147.93 385.41-63.376 228.87" clip-path="url(#a)"/>
<path d="m147.93 385.41-33.421 228.87" clip-path="url(#a)"/>
<path d="m147.93 385.41-7.7455 342.51" clip-path="url(#a)"/>
<path d="m147.93 385.41 104.54 114.63" clip-path="url(#a)"/>
<path d="m507.35 727.92v112.08" clip-path="url(#a)"/>
<path d="m647.21 155.34-91.074 572.57" clip-path="url(#a)"/>
<path d="m647.21 155.34-39.722 572.57" clip-path="url(#a)"/>
<path d="m647.21 155.34 130.8 115.15" clip-path="url(#a)"/>
<path d="m556.14 727.92v112.08" clip-path="url(#a)"/>
<path d="m607.49 727.92v112.08" clip-path="url(#a)"/>
<path d="m778.01 270.49-116.6 457.43" clip-path="url(#a)"/>
<path d="m778.01 270.49-60.113 457.43" clip-path="url(#a)"/>
<path d="m778.01 270.49-1.0591 457.43" clip-path="url(#a)"/>
<path d="m778.01 270.49 177.77 114.92" clip-path="url(#a)"/>
<path d="m661.41 727.92v112.08" clip-path="url(#a)"/>
<path d="m717.89 727.92v112.08" clip-path="url(#a)"/>
<path d="m776.95 727.92v112.08" clip-path="url(#a)"/>
<path d="m955.78 385.41-178.83 342.51" clip-path="url(#a)" stroke-dasharray="3.7,1.6"/>
<path d="m955.78 385.41-117.21 342.51" clip-path="url(#a)"/>
<path d="m955.78 385.41-53.02 342.51" clip-path="url(#a)"/>
<path d="m955.78 385.41 48.399 228.87" clip-path="url(#a)"/>
<path d="m955.78 385.41 300.66 114.63" clip-path="url(#a)"/>
<path d="m838.57 727.92v112.08" clip-path="url(#a)"/>
<path d="m902.76 727.92v112.08" clip-path="url(#a)"/>
<path d="m1004.2 614.27-34.662 113.64" clip-path="url(#a)"/>
<path d="m1004.2 614.27 34.662 113.64" clip-path="url(#a)"/>
<path d="m1256.4 500.04-145.71 227.88" clip-path="url(#a)"/>
<path d="m1256.4 500.04-71.25 227.88" clip-path="url(#a)"/>
<path d="m1256.4 500.04 5.777 227.88" clip-path="url(#a)"/>
<path d="m1256.4 500.04 211.18 114.24" clip-path="url(#a)"/>
<path d="m1110.7 727.92v112.08" clip-path="url(#a)"/>
<path d="m1185.2 727.92v112.08" clip-path="url(#a)"/>
<path d="m1262.2 727.92v112.08" clip-path="url(#a)"/>
<path d="m1467.6 614.27-125.81 113.64" clip-path="url(#a)"/>
<path d="m1467.6 614.27-43.649 113.64" clip-path="url(#a)"/>
<path d="m1467.6 614.27 41.081 113.64" clip-path="url(#a)"/>
<path d="m1467.6 614.27 128.38 113.64" clip-path="url(#a)"/>
<path d="m1341.8 727.92v112.08" clip-path="url(#a)"/>
<path d="m1424 727.92v112.08" clip-path="url(#a)"/>
<path d="m1508.7 727.92v112.08" clip-path="url(#a)"/>
<path d="m969.51 727.92v112.08" clip-path="url(#a)"/>
<path d="m1038.8 727.92v112.08" clip-path="url(#a)"/>
<path d="m84.559 614.27-8.5586 113.64" clip-path="url(#a)"/>
<path d="m84.559 614.27-0.85586 113.64" clip-path="url(#a)"/>
<path d="m84.559 614.27 9.4144 113.64" clip-path="url(#a)"/>
<path d="m114.51 614.27-7.7027 113.64" clip-path="url(#a)"/>
<path d="m114.51 614.27 7.7027 113.64" clip-path="url(#a)"/>
<path d="m140.19 727.92v112.08" clip-path="url(#a)"/>
<path d="m252.48 500.04-91.748 227.88" clip-path="url(#a)"/>
<path d="m252.48 500.04-68.64 227.88" clip-path="url(#a)"/>
<path d="m252.48 500.04-13.865 114.24" clip-path="url(#a)"/>
<path d="m252.48 500.04 49.468 227.88" clip-path="url(#a)"/>
<path d="m252.48 500.04 124.78 114.24" clip-path="url(#a)"/>
<path d="m160.73 727.92v112.08" clip-path="url(#a)"/>
<path d="m183.84 727.92v112.08" clip-path="url(#a)"/>
<path d="m238.61 614.27-29.099 113.64" clip-path="url(#a)"/>
<path d="m238.61 614.27 29.955 113.64" clip-path="url(#a)"/>
<path d="m238.61 614.27-0.85586 113.64" clip-path="url(#a)"/>
<path d="m301.95 727.92v112.08" clip-path="url(#a)"/>
<path d="m377.26 614.27-39.369 113.64" clip-path="url(#a)"/>
<path d="m377.26 614.27-0.85586 113.64" clip-path="url(#a)"/>
<path d="m377.26 614.27 40.225 113.64" clip-path="url(#a)"/>
<path d="m337.89 727.92v112.08" clip-path="url(#a)"/>
<path d="m376.41 727.92v112.08" clip-path="url(#a)"/>
<path d="m417.49 727.92v112.08" clip-path="url(#a)"/>
<path d="m209.51 727.92v112.08" clip-path="url(#a)"/>
<path d="m268.57 727.92v112.08" clip-path="url(#a)"/>
<path d="m106.81 727.92v112.08" clip-path="url(#a)"/>
<path d="m122.22 727.92v112.08" clip-path="url(#a)"/>
<path d="m76 727.92v112.08" clip-path="url(#a)"/>
<path d="m83.703 727.92v112.08" clip-path="url(#a)"/>
<path d="m93.973 727.92v112.08" clip-path="url(#a)"/>
<path d="m237.76 727.92v112.08" clip-path="url(#a)"/>
<path d="m461.14 727.92v112.08" clip-path="url(#a)"/>
<path d="m1596 727.92v112.08" clip-path="url(#a)"/>
</g>
<path d="m297.26 219.05 3.8916-4.5881q1.5524-1.8303-0.27785-3.3827l-5.9046-5.0082q-1.8303-1.5524-3.3827 0.27785l-3.8916 4.5881q-1.5524 1.8303 0.27785 3.3827l5.9046 5.0082q1.8303 1.5524 3.3827-0.27785z" clip-path="url(#a)" fill="#fff" stroke="#fff"/>
<g clip-path="url(#a)">
<defs>
<path id="am" d="m9.8125 72.906h9.8594v-29.891h35.844v29.891h9.8594v-72.906h-9.8594v34.719h-35.844v-34.719h-9.8594z"/>
</defs>
<g transform="translate(294.16 216.43) rotate(-49.696) scale(.08 -.08)">
<use xlink:href="#am"/>
</g>
</g>
<path d="m467.67 382.34 0.42854 4.4369q0.23074 2.3889 2.6196 2.1581l7.7066-0.74436q2.3889-0.23074 2.1581-2.6196l-0.42854-4.4369q-0.23074-2.3889-2.6196-2.1581l-7.7066 0.74436q-2.3889 0.23074-2.1581 2.6196z" clip-path="url(#a)" fill="#fff" stroke="#fff"/>
<g clip-path="url(#a)">
<defs>
<path id="ap" d="m9.8125 72.906h9.8594v-64.609h35.5v-8.2969h-45.359z"/>
</defs>
<g transform="translate(471.72 381.95) rotate(84.483) scale(.08 -.08)">
<use xlink:href="#ap"/>
</g>
</g>
<path d="m538.37 101.68 5.2512 2.9359q2.0948 1.1712 3.266-0.92362l3.7784-6.758q1.1712-2.0948-0.92362-3.266l-5.2512-2.9359q-2.0948-1.1712-3.266 0.92362l-3.7784 6.758q-1.1712 2.0948 0.92362 3.266z" clip-path="url(#a)" fill="#fff" stroke="#fff"/>
<g clip-path="url(#a)">
<g transform="translate(540.36 98.13) rotate(29.209) scale(.08 -.08)">
<use xlink:href="#am"/>
</g>
</g>
<path d="m444.67 381.22 0.17209 5.8525q0.070539 2.399 2.4695 2.3284l7.7392-0.22756q2.399-0.070539 2.3284-2.4695l-0.17209-5.8525q-0.070539-2.399-2.4695-2.3284l-7.7392 0.22756q-2.399 0.070539-2.3284 2.4695z" clip-path="url(#a)" fill="#fff" stroke="#fff"/>
<g clip-path="url(#a)">
<defs>
<path id="ag" d="m8.6875 72.906h9.9219v-44.297q0-11.719 4.2344-16.875 4.25-5.1406 13.781-5.1406 9.4688 0 13.719 5.1406 4.25 5.1562 4.25 16.875v44.297h9.9062v-45.516q0-14.25-7.0625-21.531-7.0469-7.2812-20.812-7.2812-13.828 0-20.891 7.2812-7.0469 7.2812-7.0469 21.531z"/>
</defs>
<g transform="translate(448.73 381.1) rotate(88.316) scale(.08 -.08)">
<use xlink:href="#ag"/>
</g>
</g>
<path d="m121.56 504.15 1.4604-5.274q0.64049-2.313-1.6725-2.9534l-7.4617-2.0662q-2.313-0.64049-2.9534 1.6725l-1.4604 5.274q-0.64049 2.313 1.6725 2.9534l7.4617 2.0662q2.313 0.64049 2.9534-1.6725z" clip-path="url(#a)" fill="#fff" stroke="#fff"/>
<g clip-path="url(#a)">
<defs>
<path id="v" d="m34.188 63.188-13.391-36.281h26.812zm-5.5781 9.7188h11.188l27.781-72.906h-10.25l-6.6406 18.703h-32.859l-6.6406-18.703h-10.406z"/>
</defs>
<g transform="translate(117.64 503.07) rotate(-74.522) scale(.08 -.08)">
<use xlink:href="#v"/>
</g>
</g>
<path d="m136.98 503.8 0.8901-6.0954q0.34679-2.3748-2.028-2.7216l-7.6612-1.1188q-2.3748-0.34679-2.7216 2.028l-0.8901 6.0954q-0.34679 2.3748 2.028 2.7216l7.6612 1.1188q2.3748 0.34679 2.7216-2.028z" clip-path="url(#a)" fill="#fff" stroke="#fff"/>
<g clip-path="url(#a)">
<defs>
<path id="an" d="m19.672 64.797v-56.688h11.922q15.094 0 22.094 6.8281 7 6.8438 7 21.594 0 14.641-7 21.453t-22.094 6.8125zm-9.8594 8.1094h20.266q21.188 0 31.094-8.8125 9.9219-8.8125 9.9219-27.562 0-18.859-9.9688-27.703-9.9531-8.8281-31.047-8.8281h-20.266z"/>
</defs>
<g transform="translate(132.96 503.21) rotate(-81.692) scale(.08 -.08)">
<use xlink:href="#an"/>
</g>
</g>
<path d="m150.28 559.22 0.10906-4.8225q0.05426-2.3994-2.3451-2.4536l-7.7405-0.17504q-2.3994-0.05426-2.4536 2.3451l-0.10906 4.8225q-0.05426 2.3994 2.3451 2.4536l7.7405 0.17504q2.3994 0.054259 2.4536-2.3451z" clip-path="url(#a)" fill="#fff" stroke="#fff"/>
<g clip-path="url(#a)">
<defs>
<path id="ah" d="m19.672 64.797v-27.391h12.406q6.8906 0 10.641 3.5625 3.7656 3.5625 3.7656 10.156 0 6.5469-3.7656 10.109-3.75 3.5625-10.641 3.5625zm-9.8594 8.1094h22.266q12.266 0 18.531-5.5469 6.2812-5.5469 6.2812-16.234 0-10.797-6.2812-16.312-6.2656-5.5156-18.531-5.5156h-12.406v-29.297h-9.8594z"/>
</defs>
<g transform="translate(146.21 559.12) rotate(-88.705) scale(.08 -.08)">
<use xlink:href="#ah"/>
</g>
</g>
<path d="m193.73 444.93 3.6877 4.0434q1.6173 1.7733 3.3905 0.15601l5.7206-5.2173q1.7733-1.6173 0.15601-3.3905l-3.6877-4.0434q-1.6173-1.7733-3.3905-0.15601l-5.7206 5.2173q-1.7733 1.6173-0.15601 3.3905z" clip-path="url(#a)" fill="#fff" stroke="#fff"/>
<g clip-path="url(#a)">
<g transform="translate(196.73 442.19) rotate(47.634) scale(.08 -.08)">
<use xlink:href="#v"/>
</g>
</g>
<path d="m501.08 767.05v33.808q0 2.4 2.4 2.4h7.7425q2.4 0 2.4-2.4v-33.808q0-2.4-2.4-2.4h-7.7425q-2.4 0-2.4 2.4z" clip-path="url(#a)" fill="#fff" stroke="#fff"/>
<g clip-path="url(#a)">
<defs>
<path id="j" d="m-0.29688 72.906h61.672v-8.3125h-25.875v-64.594h-9.9062v64.594h-25.891z"/>
<path id="d" d="m56.203 29.594v-4.3906h-41.312q0.59375-9.2812 5.5938-14.141t13.938-4.8594q5.1719 0 10.031 1.2656t9.6562 3.8125v-8.5q-4.8438-2.0469-9.9219-3.125t-10.297-1.0781q-13.094 0-20.734 7.6094-7.6406 7.625-7.6406 20.625 0 13.422 7.25 21.297 7.25 7.8906 19.562 7.8906 11.031 0 17.453-7.1094 6.4219-7.0938 6.4219-19.297zm-8.9844 2.6406q-0.09375 7.3594-4.125 11.75-4.0312 4.4062-10.672 4.4062-7.5156 0-12.031-4.25t-5.2031-11.969z"/>
<path id="g" d="m41.109 46.297q-1.5156 0.875-3.2969 1.2812-1.7812 0.42188-3.9219 0.42188-7.625 0-11.703-4.9531t-4.0781-14.234v-28.812h-9.0312v54.688h9.0312v-8.5q2.8438 4.9844 7.375 7.3906 4.5469 2.4219 11.047 2.4219 0.92188 0 2.0469-0.125 1.125-0.10938 2.4844-0.35938z"/>
<path id="k" d="m52 44.188q3.375 6.0625 8.0625 8.9375t11.031 2.875q8.5469 0 13.188-5.9844 4.6406-5.9688 4.6406-17v-33.016h-9.0312v32.719q0 7.8594-2.7969 11.656-2.7812 3.8125-8.4844 3.8125-6.9844 0-11.047-4.6406-4.0469-4.625-4.0469-12.641v-30.906h-9.0312v32.719q0 7.9062-2.7812 11.688t-8.5938 3.7812q-6.8906 0-10.953-4.6562-4.0469-4.6562-4.0469-12.625v-30.906h-9.0312v54.688h9.0312v-8.5q3.0781 5.0312 7.375 7.4219t10.203 2.3906q5.9688 0 10.141-3.0312 4.1719-3.0156 6.1719-8.7812z"/>
<path id="i" d="m9.4219 54.688h8.9844v-54.688h-8.9844zm0 21.297h8.9844v-11.391h-8.9844z"/>
<path id="h" d="m54.891 33.016v-33.016h-8.9844v32.719q0 7.7656-3.0312 11.609-3.0312 3.8594-9.0781 3.8594-7.2812 0-11.484-4.6406-4.2031-4.625-4.2031-12.641v-30.906h-9.0312v54.688h9.0312v-8.5q3.2344 4.9375 7.5938 7.375 4.375 2.4375 10.094 2.4375 9.4219 0 14.25-5.8281 4.8438-5.8281 4.8438-17.156z"/>
<path id="e" d="m34.281 27.484q-10.891 0-15.094-2.4844t-4.2031-8.5q0-4.7812 3.1562-7.5938 3.1562-2.7969 8.5625-2.7969 7.4844 0 12 5.2969t4.5156 14.078v2zm17.922 3.7188v-31.203h-8.9844v8.2969q-3.0781-4.9688-7.6719-7.3438t-11.234-2.375q-8.3906 0-13.359 4.7188-4.9531 4.7188-4.9531 12.625 0 9.2188 6.1719 13.906 6.1875 4.6875 18.438 4.6875h12.609v0.89062q0 6.2031-4.0781 9.5938t-11.453 3.3906q-4.6875 0-9.1406-1.125-4.4375-1.125-8.5312-3.375v8.3125q4.9219 1.9062 9.5625 2.8438 4.6406 0.95312 9.0312 0.95312 11.875 0 17.734-6.1562 5.8594-6.1406 5.8594-18.641z"/>
<path id="l" d="m9.4219 75.984h8.9844v-75.984h-8.9844z"/>
</defs>
<g transform="translate(505.14 767.05) rotate(90) scale(.08 -.08)">
<use xlink:href="#j"/>
<use x="44.083984" xlink:href="#d"/>
<use x="105.607422" xlink:href="#g"/>
<use x="144.970703" xlink:href="#k"/>
<use x="242.382812" xlink:href="#i"/>
<use x="270.166016" xlink:href="#h"/>
<use x="333.544922" xlink:href="#e"/>
<use x="394.824219" xlink:href="#l"/>
</g>
</g>
<path d="m607.44 445.32 0.85965-5.4046q0.377-2.3702-1.9932-2.7472l-7.6464-1.2162q-2.3702-0.377-2.7472 1.9932l-0.85965 5.4046q-0.377 2.3702 1.9932 2.7472l7.6464 1.2162q2.3702 0.377 2.7472-1.9932z" clip-path="url(#a)" fill="#fff" stroke="#fff"/>
<g clip-path="url(#a)">
<g transform="translate(603.42 444.68) rotate(-80.962) scale(.08 -.08)">
<use xlink:href="#v"/>
</g>
</g>
<path d="m633.43 444.6 0.35149-5.0666q0.1661-2.3942-2.2281-2.5603l-7.7239-0.53585q-2.3942-0.1661-2.5603 2.2281l-0.35149 5.0666q-0.1661 2.3942 2.2281 2.5603l7.7239 0.53585q2.3942 0.1661 2.5603-2.2281z" clip-path="url(#a)" fill="#fff" stroke="#fff"/>
<g clip-path="url(#a)">
<defs>
<path id="ao" d="m53.516 70.516v-9.625q-5.6094 2.6875-10.594 4-4.9844 1.3281-9.625 1.3281-8.0469 0-12.422-3.125t-4.375-8.8906q0-4.8438 2.9062-7.3125 2.9062-2.4531 11.016-3.9688l5.9531-1.2188q11.031-2.1094 16.281-7.4062t5.25-14.172q0-10.609-7.1094-16.078-7.0938-5.4688-20.812-5.4688-5.1719 0-11.016 1.1719-5.8281 1.1719-12.078 3.4688v10.156q6-3.3594 11.766-5.0781 5.7656-1.7031 11.328-1.7031 8.4375 0 13.031 3.3125 4.5938 3.3281 4.5938 9.4844 0 5.3594-3.2969 8.3906t-10.812 4.5469l-6.0156 1.1719q-11.031 2.1875-15.969 6.875-4.9219 4.6875-4.9219 13.047 0 9.6719 6.8125 15.234t18.766 5.5625q5.1406 0 10.453-0.9375 5.3281-0.92188 10.891-2.7656z"/>
</defs>
<g transform="translate(629.37 444.32) rotate(-86.031) scale(.08 -.08)">
<use xlink:href="#ao"/>
</g>
</g>
<path d="m706.41 215.82 4.1075 3.6161q1.8014 1.5859 3.3873-0.2155l5.1161-5.8113q1.5859-1.8014-0.2155-3.3873l-4.1075-3.6161q-1.8014-1.5859-3.3873 0.2155l-5.1161 5.8113q-1.5859 1.8014 0.2155 3.3873z" clip-path="url(#a)" fill="#fff" stroke="#fff"/>
<g clip-path="url(#a)">
<g transform="translate(709.09 212.77) rotate(41.36) scale(.08 -.08)">
<use xlink:href="#v"/>
</g>
</g>
<path d="m549.86 767.05v33.808q0 2.4 2.4 2.4h7.7425q2.4 0 2.4-2.4v-33.808q0-2.4-2.4-2.4h-7.7425q-2.4 0-2.4 2.4z" clip-path="url(#a)" fill="#fff" stroke="#fff"/>
<g clip-path="url(#a)">
<g transform="translate(553.93 767.05) rotate(90) scale(.08 -.08)">
<use xlink:href="#j"/>
<use x="44.083984" xlink:href="#d"/>
<use x="105.607422" xlink:href="#g"/>
<use x="144.970703" xlink:href="#k"/>
<use x="242.382812" xlink:href="#i"/>
<use x="270.166016" xlink:href="#h"/>
<use x="333.544922" xlink:href="#e"/>
<use x="394.824219" xlink:href="#l"/>
</g>
</g>
<path d="m601.22 767.05v33.808q0 2.4 2.4 2.4h7.7425q2.4 0 2.4-2.4v-33.808q0-2.4-2.4-2.4h-7.7425q-2.4 0-2.4 2.4z" clip-path="url(#a)" fill="#fff" stroke="#fff"/>
<g clip-path="url(#a)">
<g transform="translate(605.28 767.05) rotate(90) scale(.08 -.08)">
<use xlink:href="#j"/>
<use x="44.083984" xlink:href="#d"/>
<use x="105.607422" xlink:href="#g"/>
<use x="144.970703" xlink:href="#k"/>
<use x="242.382812" xlink:href="#i"/>
<use x="270.166016" xlink:href="#h"/>
<use x="333.544922" xlink:href="#e"/>
<use x="394.824219" xlink:href="#l"/>
</g>
</g>
<path d="m725.16 503.2 1.2486-4.8984q0.59281-2.3256-1.7328-2.9184l-7.5026-1.9124q-2.3256-0.59281-2.9184 1.7328l-1.2486 4.8984q-0.59281 2.3256 1.7328 2.9184l7.5026 1.9124q2.3256 0.59281 2.9184-1.7328z" clip-path="url(#a)" fill="#fff" stroke="#fff"/>
<g clip-path="url(#a)">
<defs>
<path id="r" d="m9.8125 72.906h46.094v-8.3125h-36.234v-21.578h34.719v-8.2969h-34.719v-26.422h37.109v-8.2969h-46.969z"/>
</defs>
<g transform="translate(721.22 502.2) rotate(-75.7) scale(.08 -.08)">
<use xlink:href="#r"/>
</g>
</g>
<path d="m753.84 502.53 0.65865-5.0119q0.31271-2.3795-2.0668-2.6923l-7.6765-1.0088q-2.3795-0.31271-2.6923 2.0668l-0.65865 5.0119q-0.31271 2.3795 2.0668 2.6922l7.6765 1.0088q2.3795 0.31271 2.6922-2.0668z" clip-path="url(#a)" fill="#fff" stroke="#fff"/>
<g clip-path="url(#a)">
<g transform="translate(749.81 502) rotate(-82.513) scale(.08 -.08)">
<use xlink:href="#r"/>
</g>
</g>
<path d="m783.74 502.01 0.012934-5.5862q0.005557-2.4-2.3944-2.4056l-7.7425-0.017927q-2.4-0.005557-2.4056 2.3944l-0.012935 5.5862q-0.005557 2.4 2.3944 2.4056l7.7425 0.017927q2.4 0.005557 2.4056-2.3944z" clip-path="url(#a)" fill="#fff" stroke="#fff"/>
<g clip-path="url(#a)">
<defs>
<path id="p" d="m64.406 67.281v-10.391q-4.9844 4.6406-10.625 6.9219-5.6406 2.2969-11.984 2.2969-12.5 0-19.141-7.6406t-6.6406-22.094q0-14.406 6.6406-22.047t19.141-7.6406q6.3438 0 11.984 2.2969t10.625 6.9375v-10.312q-5.1719-3.5156-10.969-5.2812-5.7812-1.75-12.219-1.75-16.562 0-26.094 10.125-9.5156 10.141-9.5156 27.672 0 17.578 9.5156 27.703 9.5312 10.141 26.094 10.141 6.5312 0 12.312-1.7344 5.7969-1.7344 10.875-5.2031z"/>
</defs>
<g transform="translate(779.68 502) rotate(-89.867) scale(.08 -.08)">
<use xlink:href="#p"/>
</g>
</g>
<path d="m861.36 331.84 4.2452 2.7443q2.0155 1.3029 3.3185-0.71263l4.2032-6.5022q1.3029-2.0155-0.71263-3.3185l-4.2452-2.7443q-2.0155-1.3029-3.3185 0.71263l-4.2032 6.5022q-1.3029 2.0155 0.71263 3.3185z" clip-path="url(#a)" fill="#fff" stroke="#fff"/>
<g clip-path="url(#a)">
<g transform="translate(863.57 328.43) rotate(32.88) scale(.08 -.08)">
<use xlink:href="#r"/>
</g>
</g>
<path d="m655.13 767.05v33.808q0 2.4 2.4 2.4h7.7425q2.4 0 2.4-2.4v-33.808q0-2.4-2.4-2.4h-7.7425q-2.4 0-2.4 2.4z" clip-path="url(#a)" fill="#fff" stroke="#fff"/>
<g clip-path="url(#a)">
<g transform="translate(659.2 767.05) rotate(90) scale(.08 -.08)">
<use xlink:href="#j"/>
<use x="44.083984" xlink:href="#d"/>
<use x="105.607422" xlink:href="#g"/>
<use x="144.970703" xlink:href="#k"/>
<use x="242.382812" xlink:href="#i"/>
<use x="270.166016" xlink:href="#h"/>
<use x="333.544922" xlink:href="#e"/>
<use x="394.824219" xlink:href="#l"/>
</g>
</g>
<path d="m711.62 767.05v33.808q0 2.4 2.4 2.4h7.7425q2.4 0 2.4-2.4v-33.808q0-2.4-2.4-2.4h-7.7425q-2.4 0-2.4 2.4z" clip-path="url(#a)" fill="#fff" stroke="#fff"/>
<g clip-path="url(#a)">
<g transform="translate(715.68 767.05) rotate(90) scale(.08 -.08)">
<use xlink:href="#j"/>
<use x="44.083984" xlink:href="#d"/>
<use x="105.607422" xlink:href="#g"/>
<use x="144.970703" xlink:href="#k"/>
<use x="242.382812" xlink:href="#i"/>
<use x="270.166016" xlink:href="#h"/>
<use x="333.544922" xlink:href="#e"/>
<use x="394.824219" xlink:href="#l"/>
</g>
</g>
<path d="m770.67 767.05v33.808q0 2.4 2.4 2.4h7.7425q2.4 0 2.4-2.4v-33.808q0-2.4-2.4-2.4h-7.7425q-2.4 0-2.4 2.4z" clip-path="url(#a)" fill="#fff" stroke="#fff"/>
<g clip-path="url(#a)">
<g transform="translate(774.74 767.05) rotate(90) scale(.08 -.08)">
<use xlink:href="#j"/>
<use x="44.083984" xlink:href="#d"/>
<use x="105.607422" xlink:href="#g"/>
<use x="144.970703" xlink:href="#k"/>
<use x="242.382812" xlink:href="#i"/>
<use x="270.166016" xlink:href="#h"/>
<use x="333.544922" xlink:href="#e"/>
<use x="394.824219" xlink:href="#l"/>
</g>
</g>
<path d="m870.65 561.99 2.5329-4.8511q1.1108-2.1275-1.0167-3.2383l-6.8633-3.5835q-2.1275-1.1108-3.2383 1.0167l-2.5329 4.8511q-1.1108 2.1275 1.0167 3.2383l6.8633 3.5835q2.1275 1.1108 3.2383-1.0167z" clip-path="url(#a)" fill="#fff" stroke="#fff"/>
<g clip-path="url(#a)">
<g transform="translate(867.05 560.11) rotate(-62.43) scale(.08 -.08)">
<use xlink:href="#v"/>
</g>
</g>
<path d="m902.21 561.32 1.7998-5.2593q0.77706-2.2707-1.4937-3.0478l-7.3254-2.5068q-2.2707-0.77706-3.0478 1.4937l-1.7998 5.2593q-0.77706 2.2707 1.4937 3.0478l7.3254 2.5068q2.2707 0.77706 3.0478-1.4937z" clip-path="url(#a)" fill="#fff" stroke="#fff"/>
<g clip-path="url(#a)">
<defs>
<path id="u" d="m44.391 34.188q3.1719-1.0781 6.1719-4.5938t6.0312-9.6719l10.016-19.922h-10.609l-9.3125 18.703q-3.625 7.3281-7.0156 9.7188t-9.25 2.3906h-10.75v-30.812h-9.8594v72.906h22.266q12.5 0 18.656-5.2344 6.1562-5.2188 6.1562-15.766 0-6.8906-3.2031-11.438-3.2031-4.5312-9.2969-6.2812zm-24.719 30.609v-25.875h12.406q7.125 0 10.766 3.2969t3.6406 9.6875-3.6406 9.6406-10.766 3.25z"/>
</defs>
<g transform="translate(898.36 560.01) rotate(-71.109) scale(.08 -.08)">
<use xlink:href="#u"/>
</g>
</g>
<path d="m935.1 560.01 0.73793-4.767q0.36715-2.3718-2.0046-2.7389l-7.6514-1.1844q-2.3718-0.36715-2.7389 2.0046l-0.73793 4.767q-0.36715 2.3718 2.0046 2.7389l7.6514 1.1844q2.3718 0.36715 2.7389-2.0046z" clip-path="url(#a)" fill="#fff" stroke="#fff"/>
<g clip-path="url(#a)">
<g transform="translate(931.08 559.38) rotate(-81.2) scale(.08 -.08)">
<use xlink:href="#ah"/>
</g>
</g>
<path d="m973.27 498.46 1.1322 5.3541q0.49655 2.3481 2.8446 1.8515l7.575-1.6019q2.3481-0.49655 1.8515-2.8446l-1.1322-5.3541q-0.49655-2.3481-2.8446-1.8515l-7.575 1.6019q-2.3481 0.49655-1.8515 2.8446z" clip-path="url(#a)" fill="#fff" stroke="#fff"/>
<g clip-path="url(#a)">
<g transform="translate(977.25 497.62) rotate(78.059) scale(.08 -.08)">
<use xlink:href="#v"/>
</g>
</g>
<path d="m1101.6 447.71 4.5657 1.7407q2.2425 0.85497 3.0975-1.3876l2.7582-7.2346q0.85497-2.2425-1.3876-3.0975l-4.5657-1.7407q-2.2425-0.85497-3.0975 1.3876l-2.7582 7.2346q-0.85497 2.2425 1.3876 3.0975z" clip-path="url(#a)" fill="#fff" stroke="#fff"/>
<g clip-path="url(#a)">
<g transform="translate(1103 443.91) rotate(20.869) scale(.08 -.08)">
<use xlink:href="#j"/>
</g>
</g>
<path d="m832.3 767.05v33.808q0 2.4 2.4 2.4h7.7425q2.4 0 2.4-2.4v-33.808q0-2.4-2.4-2.4h-7.7425q-2.4 0-2.4 2.4z" clip-path="url(#a)" fill="#fff" stroke="#fff"/>
<g clip-path="url(#a)">
<g transform="translate(836.36 767.05) rotate(90) scale(.08 -.08)">
<use xlink:href="#j"/>
<use x="44.083984" xlink:href="#d"/>
<use x="105.607422" xlink:href="#g"/>
<use x="144.970703" xlink:href="#k"/>
<use x="242.382812" xlink:href="#i"/>
<use x="270.166016" xlink:href="#h"/>
<use x="333.544922" xlink:href="#e"/>
<use x="394.824219" xlink:href="#l"/>
</g>
</g>
<path d="m896.49 767.05v33.808q0 2.4 2.4 2.4h7.7425q2.4 0 2.4-2.4v-33.808q0-2.4-2.4-2.4h-7.7425q-2.4 0-2.4 2.4z" clip-path="url(#a)" fill="#fff" stroke="#fff"/>
<g clip-path="url(#a)">
<g transform="translate(900.55 767.05) rotate(90) scale(.08 -.08)">
<use xlink:href="#j"/>
<use x="44.083984" xlink:href="#d"/>
<use x="105.607422" xlink:href="#g"/>
<use x="144.970703" xlink:href="#k"/>
<use x="242.382812" xlink:href="#i"/>
<use x="270.166016" xlink:href="#h"/>
<use x="333.544922" xlink:href="#e"/>
<use x="394.824219" xlink:href="#l"/>
</g>
</g>
<path d="m992.03 675.58 1.6217-5.3169q0.70018-2.2956-1.5954-2.9958l-7.4057-2.2588q-2.2956-0.70018-2.9958 1.5954l-1.6217 5.3169q-0.70018 2.2956 1.5954 2.9958l7.4057 2.2588q2.2956 0.70018 2.9958-1.5954z" clip-path="url(#a)" fill="#fff" stroke="#fff"/>
<g clip-path="url(#a)">
<g transform="translate(988.15 674.4) rotate(-73.038) scale(.08 -.08)">
<use xlink:href="#u"/>
</g>
</g>
<path d="m1014.7 670.25 1.6297 5.3432q0.70018 2.2956 2.9958 1.5954l7.4057-2.2588q2.2956-0.70018 1.5954-2.9958l-1.6297-5.3432q-0.70018-2.2956-2.9958-1.5954l-7.4057 2.2588q-2.2956 0.70018-1.5954 2.9958z" clip-path="url(#a)" fill="#fff" stroke="#fff"/>
<g clip-path="url(#a)">
<g transform="translate(1018.6 669.07) rotate(73.038) scale(.08 -.08)">
<use xlink:href="#p"/>
</g>
</g>
<path d="m1187.4 619.7 2.9945-4.6832q1.2929-2.022-0.72911-3.3149l-6.523-4.1709q-2.022-1.2929-3.3149 0.72911l-2.9945 4.6832q-1.2929 2.022 0.72911 3.3149l6.523 4.1709q2.022 1.2929 3.3149-0.72911z" clip-path="url(#a)" fill="#fff" stroke="#fff"/>
<g clip-path="url(#a)">
<g transform="translate(1183.9 617.51) rotate(-57.405) scale(.08 -.08)">
<use xlink:href="#u"/>
</g>
</g>
<path d="m1226 618.26 1.5085-4.8247q0.7162-2.2906-1.5744-3.0068l-7.3897-2.3105q-2.2906-0.7162-3.0068 1.5744l-1.5085 4.8247q-0.7162 2.2906 1.5744 3.0068l7.3897 2.3105q2.2906 0.7162 3.0068-1.5744z" clip-path="url(#a)" fill="#fff" stroke="#fff"/>
<g clip-path="url(#a)">
<g transform="translate(1222.2 617.05) rotate(-72.637) scale(.08 -.08)">
<use xlink:href="#r"/>
</g>
</g>
<path d="m1253 611.34 0.14157 5.5845q0.060823 2.3992 2.4601 2.3384l7.74-0.19622q2.3992-0.060823 2.3384-2.4601l-0.14157-5.5845q-0.060823-2.3992-2.4601-2.3384l-7.74 0.19622q-2.3992 0.060823-2.3384 2.4601z" clip-path="url(#a)" fill="#fff" stroke="#fff"/>
<g clip-path="url(#a)">
<g transform="translate(1257.1 611.24) rotate(88.548) scale(.08 -.08)">
<use xlink:href="#p"/>
</g>
</g>
<path d="m1356.8 561.47 4.4462 2.4051q2.1109 1.1419 3.2528-0.96903l3.6838-6.81q1.1419-2.1109-0.96903-3.2528l-4.4462-2.4051q-2.1109-1.1419-3.2528 0.96903l-3.6838 6.81q-1.1419 2.1109 0.96903 3.2528z" clip-path="url(#a)" fill="#fff" stroke="#fff"/>
<g clip-path="url(#a)">
<g transform="translate(1358.8 557.89) rotate(28.411) scale(.08 -.08)">
<use xlink:href="#r"/>
</g>
</g>
<path d="m1104.5 767.05v33.808q0 2.4 2.4 2.4h7.7425q2.4 0 2.4-2.4v-33.808q0-2.4-2.4-2.4h-7.7425q-2.4 0-2.4 2.4z" clip-path="url(#a)" fill="#fff" stroke="#fff"/>
<g clip-path="url(#a)">
<g transform="translate(1108.5 767.05) rotate(90) scale(.08 -.08)">
<use xlink:href="#j"/>
<use x="44.083984" xlink:href="#d"/>
<use x="105.607422" xlink:href="#g"/>
<use x="144.970703" xlink:href="#k"/>
<use x="242.382812" xlink:href="#i"/>
<use x="270.166016" xlink:href="#h"/>
<use x="333.544922" xlink:href="#e"/>
<use x="394.824219" xlink:href="#l"/>
</g>
</g>
<path d="m1178.9 767.05v33.808q0 2.4 2.4 2.4h7.7425q2.4 0 2.4-2.4v-33.808q0-2.4-2.4-2.4h-7.7425q-2.4 0-2.4 2.4z" clip-path="url(#a)" fill="#fff" stroke="#fff"/>
<g clip-path="url(#a)">
<g transform="translate(1183 767.05) rotate(90) scale(.08 -.08)">
<use xlink:href="#j"/>
<use x="44.083984" xlink:href="#d"/>
<use x="105.607422" xlink:href="#g"/>
<use x="144.970703" xlink:href="#k"/>
<use x="242.382812" xlink:href="#i"/>
<use x="270.166016" xlink:href="#h"/>
<use x="333.544922" xlink:href="#e"/>
<use x="394.824219" xlink:href="#l"/>
</g>
</g>
<path d="m1255.9 767.05v33.808q0 2.4 2.4 2.4h7.7425q2.4 0 2.4-2.4v-33.808q0-2.4-2.4-2.4h-7.7425q-2.4 0-2.4 2.4z" clip-path="url(#a)" fill="#fff" stroke="#fff"/>
<g clip-path="url(#a)">
<g transform="translate(1260 767.05) rotate(90) scale(.08 -.08)">
<use xlink:href="#j"/>
<use x="44.083984" xlink:href="#d"/>
<use x="105.607422" xlink:href="#g"/>
<use x="144.970703" xlink:href="#k"/>
<use x="242.382812" xlink:href="#i"/>
<use x="270.166016" xlink:href="#h"/>
<use x="333.544922" xlink:href="#e"/>
<use x="394.824219" xlink:href="#l"/>
</g>
</g>
<path d="m1406.9 677.61 4.125-3.7261q1.781-1.6087 0.17226-3.3897l-5.1899-5.7456q-1.6087-1.781-3.3897-0.17226l-4.125 3.7261q-1.781 1.6087-0.17226 3.3897l5.1899 5.7456q1.6087 1.781 3.3897 0.17226z" clip-path="url(#a)" fill="#fff" stroke="#fff"/>
<g clip-path="url(#a)">
<g transform="translate(1404.1 674.6) rotate(-42.091) scale(.08 -.08)">
<use xlink:href="#u"/>
</g>
</g>
<path d="m1450.7 675.7 1.8125-4.7189q0.86052-2.2404-1.3799-3.1009l-7.2277-2.7761q-2.2404-0.86052-3.1009 1.3799l-1.8125 4.7189q-0.86052 2.2404 1.3799 3.1009l7.2277 2.7761q2.2404 0.86052 3.1009-1.3799z" clip-path="url(#a)" fill="#fff" stroke="#fff"/>
<g clip-path="url(#a)">
<g transform="translate(1447 674.25) rotate(-68.989) scale(.08 -.08)">
<use xlink:href="#r"/>
</g>
</g>
<path d="m1481.3 670.6 1.8991 5.2535q0.81591 2.2571 3.073 1.4411l7.2813-2.6322q2.2571-0.81591 1.4411-3.073l-1.8991-5.2535q-0.81591-2.2571-3.073-1.4411l-7.2813 2.6322q-2.2571 0.81591-1.4411 3.073z" clip-path="url(#a)" fill="#fff" stroke="#fff"/>
<g clip-path="url(#a)">
<g transform="translate(1485.1 669.22) rotate(70.125) scale(.08 -.08)">
<use xlink:href="#p"/>
</g>
</g>
<path d="m1525.5 673.85 4.3841 3.8808q1.7971 1.5908 3.3878-0.20628l5.1319-5.7974q1.5908-1.7971-0.20628-3.3878l-4.3841-3.8808q-1.7971-1.5908-3.3878 0.20627l-5.1319 5.7974q-1.5908 1.7971 0.20627 3.3878z" clip-path="url(#a)" fill="#fff" stroke="#fff"/>
<g clip-path="url(#a)">
<g transform="translate(1528.2 670.81) rotate(41.516) scale(.08 -.08)">
<use xlink:href="#ag"/>
</g>
</g>
<path d="m1335.5 767.05v33.808q0 2.4 2.4 2.4h7.7425q2.4 0 2.4-2.4v-33.808q0-2.4-2.4-2.4h-7.7425q-2.4 0-2.4 2.4z" clip-path="url(#a)" fill="#fff" stroke="#fff"/>
<g clip-path="url(#a)">
<g transform="translate(1339.6 767.05) rotate(90) scale(.08 -.08)">
<use xlink:href="#j"/>
<use x="44.083984" xlink:href="#d"/>
<use x="105.607422" xlink:href="#g"/>
<use x="144.970703" xlink:href="#k"/>
<use x="242.382812" xlink:href="#i"/>
<use x="270.166016" xlink:href="#h"/>
<use x="333.544922" xlink:href="#e"/>
<use x="394.824219" xlink:href="#l"/>
</g>
</g>
<path d="m1417.7 767.05v33.808q0 2.4 2.4 2.4h7.7425q2.4 0 2.4-2.4v-33.808q0-2.4-2.4-2.4h-7.7425q-2.4 0-2.4 2.4z" clip-path="url(#a)" fill="#fff" stroke="#fff"/>
<g clip-path="url(#a)">
<g transform="translate(1421.8 767.05) rotate(90) scale(.08 -.08)">
<use xlink:href="#j"/>
<use x="44.083984" xlink:href="#d"/>
<use x="105.607422" xlink:href="#g"/>
<use x="144.970703" xlink:href="#k"/>
<use x="242.382812" xlink:href="#i"/>
<use x="270.166016" xlink:href="#h"/>
<use x="333.544922" xlink:href="#e"/>
<use x="394.824219" xlink:href="#l"/>
</g>
</g>
<path d="m1502.4 767.05v33.808q0 2.4 2.4 2.4h7.7425q2.4 0 2.4-2.4v-33.808q0-2.4-2.4-2.4h-7.7425q-2.4 0-2.4 2.4z" clip-path="url(#a)" fill="#fff" stroke="#fff"/>
<g clip-path="url(#a)">
<g transform="translate(1506.5 767.05) rotate(90) scale(.08 -.08)">
<use xlink:href="#j"/>
<use x="44.083984" xlink:href="#d"/>
<use x="105.607422" xlink:href="#g"/>
<use x="144.970703" xlink:href="#k"/>
<use x="242.382812" xlink:href="#i"/>
<use x="270.166016" xlink:href="#h"/>
<use x="333.544922" xlink:href="#e"/>
<use x="394.824219" xlink:href="#l"/>
</g>
</g>
<path d="m963.24 767.05v33.808q0 2.4 2.4 2.4h7.7425q2.4 0 2.4-2.4v-33.808q0-2.4-2.4-2.4h-7.7425q-2.4 0-2.4 2.4z" clip-path="url(#a)" fill="#fff" stroke="#fff"/>
<g clip-path="url(#a)">
<g transform="translate(967.31 767.05) rotate(90) scale(.08 -.08)">
<use xlink:href="#j"/>
<use x="44.083984" xlink:href="#d"/>
<use x="105.607422" xlink:href="#g"/>
<use x="144.970703" xlink:href="#k"/>
<use x="242.382812" xlink:href="#i"/>
<use x="270.166016" xlink:href="#h"/>
<use x="333.544922" xlink:href="#e"/>
<use x="394.824219" xlink:href="#l"/>
</g>
</g>
<path d="m1032.6 767.05v33.808q0 2.4 2.4 2.4h7.7425q2.4 0 2.4-2.4v-33.808q0-2.4-2.4-2.4h-7.7425q-2.4 0-2.4 2.4z" clip-path="url(#a)" fill="#fff" stroke="#fff"/>
<g clip-path="url(#a)">
<g transform="translate(1036.6 767.05) rotate(90) scale(.08 -.08)">
<use xlink:href="#j"/>
<use x="44.083984" xlink:href="#d"/>
<use x="105.607422" xlink:href="#g"/>
<use x="144.970703" xlink:href="#k"/>
<use x="242.382812" xlink:href="#i"/>
<use x="270.166016" xlink:href="#h"/>
<use x="333.544922" xlink:href="#e"/>
<use x="394.824219" xlink:href="#l"/>
</g>
</g>
<path d="m86.343 674.09 0.37962-5.0407q0.18024-2.3932-2.213-2.5735l-7.7206-0.58145q-2.3932-0.18024-2.5735 2.213l-0.37962 5.0407q-0.18024 2.3932 2.213 2.5735l7.7206 0.58145q2.3932 0.18024 2.5735-2.213z" clip-path="url(#a)" fill="#fff" stroke="#fff"/>
<g clip-path="url(#a)">
<g transform="translate(82.291 673.78) rotate(-85.693) scale(.08 -.08)">
<use xlink:href="#r"/>
</g>
</g>
<path d="m90.383 673.67 0.038069-5.0549q0.018074-2.3999-2.3819-2.418l-7.7423-0.058308q-2.3999-0.018074-2.418 2.3819l-0.038069 5.0549q-0.018074 2.3999 2.3819 2.418l7.7423 0.058308q2.3999 0.018074 2.418-2.3819z" clip-path="url(#a)" fill="#fff" stroke="#fff"/>
<g clip-path="url(#a)">
<g transform="translate(86.319 673.64) rotate(-89.569) scale(.08 -.08)">
<use xlink:href="#r"/>
</g>
</g>
<path d="m82.785 668.83 0.4612 5.5672q0.19814 2.3918 2.59 2.1937l7.7161-0.63922q2.3918-0.19814 2.1937-2.5899l-0.4612-5.5672q-0.19814-2.3918-2.5899-2.1937l-7.7161 0.63922q-2.3918 0.19814-2.1937 2.59z" clip-path="url(#a)" fill="#fff" stroke="#fff"/>
<g clip-path="url(#a)">
<g transform="translate(86.835 668.49) rotate(85.264) scale(.08 -.08)">
<use xlink:href="#p"/>
</g>
</g>
<path d="m116.73 674.29 0.37591-5.546q0.1623-2.3945-2.2322-2.5568l-7.7248-0.52359q-2.3945-0.1623-2.5568 2.2322l-0.37591 5.546q-0.1623 2.3945 2.2322 2.5568l7.7248 0.52359q2.3945 0.1623 2.5568-2.2322z" clip-path="url(#a)" fill="#fff" stroke="#fff"/>
<g clip-path="url(#a)">
<g transform="translate(112.68 674.02) rotate(-86.122) scale(.08 -.08)">
<use xlink:href="#u"/>
</g>
</g>
<path d="m111.92 668.73 0.37777 5.5735q0.1623 2.3945 2.5568 2.2322l7.7248-0.52359q2.3945-0.1623 2.2322-2.5568l-0.37777-5.5735q-0.1623-2.3945-2.5568-2.2322l-7.7248 0.52359q-2.3945 0.1623-2.2322 2.5568z" clip-path="url(#a)" fill="#fff" stroke="#fff"/>
<g clip-path="url(#a)">
<g transform="translate(115.97 668.46) rotate(86.122) scale(.08 -.08)">
<use xlink:href="#p"/>
</g>
</g>
<path d="m133.92 767.05v33.808q0 2.4 2.4 2.4h7.7425q2.4 0 2.4-2.4v-33.808q0-2.4-2.4-2.4h-7.7425q-2.4 0-2.4 2.4z" clip-path="url(#a)" fill="#fff" stroke="#fff"/>
<g clip-path="url(#a)">
<g transform="translate(137.98 767.05) rotate(90) scale(.08 -.08)">
<use xlink:href="#j"/>
<use x="44.083984" xlink:href="#d"/>
<use x="105.607422" xlink:href="#g"/>
<use x="144.970703" xlink:href="#k"/>
<use x="242.382812" xlink:href="#i"/>
<use x="270.166016" xlink:href="#h"/>
<use x="333.544922" xlink:href="#e"/>
<use x="394.824219" xlink:href="#l"/>
</g>
</g>
<path d="m211.38 618.9 2.0761-5.1565q0.89635-2.2263-1.33-3.1227l-7.1822-2.8917q-2.2263-0.89635-3.1227 1.33l-2.0761 5.1565q-0.89635 2.2263 1.33 3.1227l7.1822 2.8917q2.2263 0.89635 3.1227-1.33z" clip-path="url(#a)" fill="#fff" stroke="#fff"/>
<g clip-path="url(#a)">
<g transform="translate(207.61 617.38) rotate(-68.07) scale(.08 -.08)">
<use xlink:href="#u"/>
</g>
</g>
<path d="m223.37 618.4 1.5783-5.24q0.69218-2.298-1.6058-2.9902l-7.4135-2.233q-2.298-0.69218-2.9902 1.6058l-1.5783 5.24q-0.69218 2.298 1.6058 2.9902l7.4135 2.233q2.298 0.69218 2.9902-1.6058z" clip-path="url(#a)" fill="#fff" stroke="#fff"/>
<g clip-path="url(#a)">
<g transform="translate(219.48 617.23) rotate(-73.237) scale(.08 -.08)">
<use xlink:href="#v"/>
</g>
</g>
<path d="m251.4 560.97 0.74218-6.1151q0.28916-2.3825-2.0934-2.6717l-7.6861-0.93284q-2.3825-0.28916-2.6717 2.0934l-0.74218 6.1151q-0.28916 2.3825 2.0934 2.6717l7.6861 0.93284q2.3825 0.28916 2.6717-2.0934z" clip-path="url(#a)" fill="#fff" stroke="#fff"/>
<g clip-path="url(#a)">
<g transform="translate(247.37 560.48) rotate(-83.08) scale(.08 -.08)">
<use xlink:href="#an"/>
</g>
</g>
<path d="m270.57 612.95 1.0233 4.714q0.50914 2.3454 2.8545 1.8362l7.5663-1.6425q2.3454-0.50913 1.8362-2.8545l-1.0233-4.714q-0.50913-2.3454-2.8545-1.8362l-7.5663 1.6425q-2.3454 0.50913-1.8362 2.8545z" clip-path="url(#a)" fill="#fff" stroke="#fff"/>
<g clip-path="url(#a)">
<g transform="translate(274.54 612.09) rotate(77.752) scale(.08 -.08)">
<use xlink:href="#ah"/>
</g>
</g>
<path d="m308.62 559.93 4.0364 3.6953q1.7702 1.6206 3.3908-0.1496l5.2282-5.7108q1.6206-1.7702-0.1496-3.3908l-4.0364-3.6953q-1.7702-1.6206-3.3908 0.1496l-5.2282 5.7108q-1.6206 1.7702 0.1496 3.3908z" clip-path="url(#a)" fill="#fff" stroke="#fff"/>
<g clip-path="url(#a)">
<g transform="translate(311.36 556.94) rotate(42.474) scale(.08 -.08)">
<use xlink:href="#v"/>
</g>
</g>
<path d="m154.46 767.05v33.808q0 2.4 2.4 2.4h7.7425q2.4 0 2.4-2.4v-33.808q0-2.4-2.4-2.4h-7.7425q-2.4 0-2.4 2.4z" clip-path="url(#a)" fill="#fff" stroke="#fff"/>
<g clip-path="url(#a)">
<g transform="translate(158.52 767.05) rotate(90) scale(.08 -.08)">
<use xlink:href="#j"/>
<use x="44.083984" xlink:href="#d"/>
<use x="105.607422" xlink:href="#g"/>
<use x="144.970703" xlink:href="#k"/>
<use x="242.382812" xlink:href="#i"/>
<use x="270.166016" xlink:href="#h"/>
<use x="333.544922" xlink:href="#e"/>
<use x="394.824219" xlink:href="#l"/>
</g>
</g>
<path d="m177.57 767.05v33.808q0 2.4 2.4 2.4h7.7425q2.4 0 2.4-2.4v-33.808q0-2.4-2.4-2.4h-7.7425q-2.4 0-2.4 2.4z" clip-path="url(#a)" fill="#fff" stroke="#fff"/>
<g clip-path="url(#a)">
<g transform="translate(181.63 767.05) rotate(90) scale(.08 -.08)">
<use xlink:href="#j"/>
<use x="44.083984" xlink:href="#d"/>
<use x="105.607422" xlink:href="#g"/>
<use x="144.970703" xlink:href="#k"/>
<use x="242.382812" xlink:href="#i"/>
<use x="270.166016" xlink:href="#h"/>
<use x="333.544922" xlink:href="#e"/>
<use x="394.824219" xlink:href="#l"/>
</g>
</g>
<path d="m229.45 675.34 1.3789-5.385q0.59533-2.325-1.7297-2.9203l-7.5005-1.9206q-2.325-0.59533-2.9203 1.7297l-1.3789 5.385q-0.59533 2.325 1.7297 2.9203l7.5005 1.9206q2.325 0.59533 2.9203-1.7297z" clip-path="url(#a)" fill="#fff" stroke="#fff"/>
<g clip-path="url(#a)">
<g transform="translate(225.51 674.34) rotate(-75.638) scale(.08 -.08)">
<use xlink:href="#u"/>
</g>
</g>
<path d="m246.81 669.99 1.4238 5.4017q0.61172 2.3207 2.9325 1.709l7.4868-1.9734q2.3207-0.61172 1.709-2.9325l-1.4238-5.4017q-0.61172-2.3207-2.9325-1.709l-7.4868 1.9734q-2.3207 0.61172-1.709 2.9325z" clip-path="url(#a)" fill="#fff" stroke="#fff"/>
<g clip-path="url(#a)">
<g transform="translate(250.74 668.96) rotate(75.233) scale(.08 -.08)">
<use xlink:href="#p"/>
</g>
</g>
<path d="m244.43 674.07 0.044094-5.8548q0.018074-2.3999-2.3819-2.418l-7.7423-0.058308q-2.3999-0.018074-2.418 2.3819l-0.044093 5.8548q-0.018074 2.3999 2.3819 2.418l7.7423 0.058308q2.3999 0.018074 2.418-2.3819z" clip-path="url(#a)" fill="#fff" stroke="#fff"/>
<g clip-path="url(#a)">
<g transform="translate(240.37 674.04) rotate(-89.569) scale(.08 -.08)">
<use xlink:href="#ag"/>
</g>
</g>
<path d="m295.67 767.05v33.808q0 2.4 2.4 2.4h7.7425q2.4 0 2.4-2.4v-33.808q0-2.4-2.4-2.4h-7.7425q-2.4 0-2.4 2.4z" clip-path="url(#a)" fill="#fff" stroke="#fff"/>
<g clip-path="url(#a)">
<g transform="translate(299.74 767.05) rotate(90) scale(.08 -.08)">
<use xlink:href="#j"/>
<use x="44.083984" xlink:href="#d"/>
<use x="105.607422" xlink:href="#g"/>
<use x="144.970703" xlink:href="#k"/>
<use x="242.382812" xlink:href="#i"/>
<use x="270.166016" xlink:href="#h"/>
<use x="333.544922" xlink:href="#e"/>
<use x="394.824219" xlink:href="#l"/>
</g>
</g>
<path d="m362.59 675.77 1.8196-5.2525q0.78563-2.2678-1.4821-3.0534l-7.3159-2.5345q-2.2678-0.78563-3.0534 1.4821l-1.8196 5.2525q-0.78563 2.2678 1.4821 3.0534l7.3159 2.5345q2.2678 0.78563 3.0534-1.4821z" clip-path="url(#a)" fill="#fff" stroke="#fff"/>
<g clip-path="url(#a)">
<g transform="translate(358.75 674.44) rotate(-70.892) scale(.08 -.08)">
<use xlink:href="#u"/>
</g>
</g>
<path d="m383.09 673.67 0.038069-5.0549q0.018074-2.3999-2.3819-2.418l-7.7423-0.058308q-2.3999-0.018074-2.418 2.3819l-0.038069 5.0549q-0.018074 2.3999 2.3819 2.418l7.7423 0.058308q2.3999 0.018074 2.418-2.3819z" clip-path="url(#a)" fill="#fff" stroke="#fff"/>
<g clip-path="url(#a)">
<g transform="translate(379.02 673.64) rotate(-89.569) scale(.08 -.08)">
<use xlink:href="#r"/>
</g>
</g>
<path d="m390.53 670.55 1.864 5.2661q0.80082 2.2625 3.0633 1.4616l7.2988-2.5835q2.2624-0.80082 1.4616-3.0633l-1.864-5.2661q-0.80082-2.2624-3.0633-1.4616l-7.2988 2.5835q-2.2624 0.80082-1.4616 3.0633z" clip-path="url(#a)" fill="#fff" stroke="#fff"/>
<g clip-path="url(#a)">
<g transform="translate(394.36 669.2) rotate(70.508) scale(.08 -.08)">
<use xlink:href="#p"/>
</g>
</g>
<path d="m331.62 767.05v33.808q0 2.4 2.4 2.4h7.7425q2.4 0 2.4-2.4v-33.808q0-2.4-2.4-2.4h-7.7425q-2.4 0-2.4 2.4z" clip-path="url(#a)" fill="#fff" stroke="#fff"/>
<g clip-path="url(#a)">
<g transform="translate(335.68 767.05) rotate(90) scale(.08 -.08)">
<use xlink:href="#j"/>
<use x="44.083984" xlink:href="#d"/>
<use x="105.607422" xlink:href="#g"/>
<use x="144.970703" xlink:href="#k"/>
<use x="242.382812" xlink:href="#i"/>
<use x="270.166016" xlink:href="#h"/>
<use x="333.544922" xlink:href="#e"/>
<use x="394.824219" xlink:href="#l"/>
</g>
</g>
<path d="m370.13 767.05v33.808q0 2.4 2.4 2.4h7.7425q2.4 0 2.4-2.4v-33.808q0-2.4-2.4-2.4h-7.7425q-2.4 0-2.4 2.4z" clip-path="url(#a)" fill="#fff" stroke="#fff"/>
<g clip-path="url(#a)">
<g transform="translate(374.2 767.05) rotate(90) scale(.08 -.08)">
<use xlink:href="#j"/>
<use x="44.083984" xlink:href="#d"/>
<use x="105.607422" xlink:href="#g"/>
<use x="144.970703" xlink:href="#k"/>
<use x="242.382812" xlink:href="#i"/>
<use x="270.166016" xlink:href="#h"/>
<use x="333.544922" xlink:href="#e"/>
<use x="394.824219" xlink:href="#l"/>
</g>
</g>
<path d="m411.22 767.05v33.808q0 2.4 2.4 2.4h7.7425q2.4 0 2.4-2.4v-33.808q0-2.4-2.4-2.4h-7.7425q-2.4 0-2.4 2.4z" clip-path="url(#a)" fill="#fff" stroke="#fff"/>
<g clip-path="url(#a)">
<g transform="translate(415.28 767.05) rotate(90) scale(.08 -.08)">
<use xlink:href="#j"/>
<use x="44.083984" xlink:href="#d"/>
<use x="105.607422" xlink:href="#g"/>
<use x="144.970703" xlink:href="#k"/>
<use x="242.382812" xlink:href="#i"/>
<use x="270.166016" xlink:href="#h"/>
<use x="333.544922" xlink:href="#e"/>
<use x="394.824219" xlink:href="#l"/>
</g>
</g>
<path d="m203.24 767.05v33.808q0 2.4 2.4 2.4h7.7425q2.4 0 2.4-2.4v-33.808q0-2.4-2.4-2.4h-7.7425q-2.4 0-2.4 2.4z" clip-path="url(#a)" fill="#fff" stroke="#fff"/>
<g clip-path="url(#a)">
<g transform="translate(207.31 767.05) rotate(90) scale(.08 -.08)">
<use xlink:href="#j"/>
<use x="44.083984" xlink:href="#d"/>
<use x="105.607422" xlink:href="#g"/>
<use x="144.970703" xlink:href="#k"/>
<use x="242.382812" xlink:href="#i"/>
<use x="270.166016" xlink:href="#h"/>
<use x="333.544922" xlink:href="#e"/>
<use x="394.824219" xlink:href="#l"/>
</g>
</g>
<path d="m262.3 767.05v33.808q0 2.4 2.4 2.4h7.7425q2.4 0 2.4-2.4v-33.808q0-2.4-2.4-2.4h-7.7425q-2.4 0-2.4 2.4z" clip-path="url(#a)" fill="#fff" stroke="#fff"/>
<g clip-path="url(#a)">
<g transform="translate(266.36 767.05) rotate(90) scale(.08 -.08)">
<use xlink:href="#j"/>
<use x="44.083984" xlink:href="#d"/>
<use x="105.607422" xlink:href="#g"/>
<use x="144.970703" xlink:href="#k"/>
<use x="242.382812" xlink:href="#i"/>
<use x="270.166016" xlink:href="#h"/>
<use x="333.544922" xlink:href="#e"/>
<use x="394.824219" xlink:href="#l"/>
</g>
</g>
<path d="m100.54 767.05v33.808q0 2.4 2.4 2.4h7.7425q2.4 0 2.4-2.4v-33.808q0-2.4-2.4-2.4h-7.7425q-2.4 0-2.4 2.4z" clip-path="url(#a)" fill="#fff" stroke="#fff"/>
<g clip-path="url(#a)">
<g transform="translate(104.6 767.05) rotate(90) scale(.08 -.08)">
<use xlink:href="#j"/>
<use x="44.083984" xlink:href="#d"/>
<use x="105.607422" xlink:href="#g"/>
<use x="144.970703" xlink:href="#k"/>
<use x="242.382812" xlink:href="#i"/>
<use x="270.166016" xlink:href="#h"/>
<use x="333.544922" xlink:href="#e"/>
<use x="394.824219" xlink:href="#l"/>
</g>
</g>
<path d="m115.94 767.05v33.808q0 2.4 2.4 2.4h7.7425q2.4 0 2.4-2.4v-33.808q0-2.4-2.4-2.4h-7.7425q-2.4 0-2.4 2.4z" clip-path="url(#a)" fill="#fff" stroke="#fff"/>
<g clip-path="url(#a)">
<g transform="translate(120.01 767.05) rotate(90) scale(.08 -.08)">
<use xlink:href="#j"/>
<use x="44.083984" xlink:href="#d"/>
<use x="105.607422" xlink:href="#g"/>
<use x="144.970703" xlink:href="#k"/>
<use x="242.382812" xlink:href="#i"/>
<use x="270.166016" xlink:href="#h"/>
<use x="333.544922" xlink:href="#e"/>
<use x="394.824219" xlink:href="#l"/>
</g>
</g>
<path d="m69.729 767.05v33.808q0 2.4 2.4 2.4h7.7425q2.4 0 2.4-2.4v-33.808q0-2.4-2.4-2.4h-7.7425q-2.4 0-2.4 2.4z" clip-path="url(#a)" fill="#fff" stroke="#fff"/>
<g clip-path="url(#a)">
<g transform="translate(73.792 767.05) rotate(90) scale(.08 -.08)">
<use xlink:href="#j"/>
<use x="44.083984" xlink:href="#d"/>
<use x="105.607422" xlink:href="#g"/>
<use x="144.970703" xlink:href="#k"/>
<use x="242.382812" xlink:href="#i"/>
<use x="270.166016" xlink:href="#h"/>
<use x="333.544922" xlink:href="#e"/>
<use x="394.824219" xlink:href="#l"/>
</g>
</g>
<path d="m77.431 767.05v33.808q0 2.4 2.4 2.4h7.7425q2.4 0 2.4-2.4v-33.808q0-2.4-2.4-2.4h-7.7425q-2.4 0-2.4 2.4z" clip-path="url(#a)" fill="#fff" stroke="#fff"/>
<g clip-path="url(#a)">
<g transform="translate(81.495 767.05) rotate(90) scale(.08 -.08)">
<use xlink:href="#j"/>
<use x="44.083984" xlink:href="#d"/>
<use x="105.607422" xlink:href="#g"/>
<use x="144.970703" xlink:href="#k"/>
<use x="242.382812" xlink:href="#i"/>
<use x="270.166016" xlink:href="#h"/>
<use x="333.544922" xlink:href="#e"/>
<use x="394.824219" xlink:href="#l"/>
</g>
</g>
<path d="m87.702 767.05v33.808q0 2.4 2.4 2.4h7.7425q2.4 0 2.4-2.4v-33.808q0-2.4-2.4-2.4h-7.7425q-2.4 0-2.4 2.4z" clip-path="url(#a)" fill="#fff" stroke="#fff"/>
<g clip-path="url(#a)">
<g transform="translate(91.765 767.05) rotate(90) scale(.08 -.08)">
<use xlink:href="#j"/>
<use x="44.083984" xlink:href="#d"/>
<use x="105.607422" xlink:href="#g"/>
<use x="144.970703" xlink:href="#k"/>
<use x="242.382812" xlink:href="#i"/>
<use x="270.166016" xlink:href="#h"/>
<use x="333.544922" xlink:href="#e"/>
<use x="394.824219" xlink:href="#l"/>
</g>
</g>
<path d="m231.49 767.05v33.808q0 2.4 2.4 2.4h7.7425q2.4 0 2.4-2.4v-33.808q0-2.4-2.4-2.4h-7.7425q-2.4 0-2.4 2.4z" clip-path="url(#a)" fill="#fff" stroke="#fff"/>
<g clip-path="url(#a)">
<g transform="translate(235.55 767.05) rotate(90) scale(.08 -.08)">
<use xlink:href="#j"/>
<use x="44.083984" xlink:href="#d"/>
<use x="105.607422" xlink:href="#g"/>
<use x="144.970703" xlink:href="#k"/>
<use x="242.382812" xlink:href="#i"/>
<use x="270.166016" xlink:href="#h"/>
<use x="333.544922" xlink:href="#e"/>
<use x="394.824219" xlink:href="#l"/>
</g>
</g>
<path d="m454.86 767.05v33.808q0 2.4 2.4 2.4h7.7425q2.4 0 2.4-2.4v-33.808q0-2.4-2.4-2.4h-7.7425q-2.4 0-2.4 2.4z" clip-path="url(#a)" fill="#fff" stroke="#fff"/>
<g clip-path="url(#a)">
<g transform="translate(458.93 767.05) rotate(90) scale(.08 -.08)">
<use xlink:href="#j"/>
<use x="44.083984" xlink:href="#d"/>
<use x="105.607422" xlink:href="#g"/>
<use x="144.970703" xlink:href="#k"/>
<use x="242.382812" xlink:href="#i"/>
<use x="270.166016" xlink:href="#h"/>
<use x="333.544922" xlink:href="#e"/>
<use x="394.824219" xlink:href="#l"/>
</g>
</g>
<path d="m1589.7 767.05v33.808q0 2.4 2.4 2.4h7.7425q2.4 0 2.4-2.4v-33.808q0-2.4-2.4-2.4h-7.7425q-2.4 0-2.4 2.4z" clip-path="url(#a)" fill="#fff" stroke="#fff"/>
<g clip-path="url(#a)">
<g transform="translate(1593.8 767.05) rotate(90) scale(.08 -.08)">
<use xlink:href="#j"/>
<use x="44.083984" xlink:href="#d"/>
<use x="105.607422" xlink:href="#g"/>
<use x="144.970703" xlink:href="#k"/>
<use x="242.382812" xlink:href="#i"/>
<use x="270.166016" xlink:href="#h"/>
<use x="333.544922" xlink:href="#e"/>
<use x="394.824219" xlink:href="#l"/>
</g>
</g>
<defs>
<path id="b" d="m0 8.6603c2.2967 0 4.4997-0.9125 6.1237-2.5365 1.624-1.624 2.5365-3.827 2.5365-6.1237s-0.9125-4.4997-2.5365-6.1237c-1.624-1.624-3.827-2.5365-6.1237-2.5365s-4.4997 0.9125-6.1237 2.5365c-1.624 1.624-2.5365 3.827-2.5365 6.1237s0.9125 4.4997 2.5365 6.1237c1.624 1.624 3.827 2.5365 6.1237 2.5365z"/>
</defs>
<g clip-path="url(#a)">
<use x="76" y="840" fill="#ffffff" stroke="#ffffff" xlink:href="#b"/>
</g>
<g clip-path="url(#a)">
<use x="83.702703" y="840" fill="#ffffff" stroke="#ffffff" xlink:href="#b"/>
</g>
<g clip-path="url(#a)">
<use x="93.972973" y="840" fill="#ffffff" stroke="#ffffff" xlink:href="#b"/>
</g>
<g clip-path="url(#a)">
<use x="106.810811" y="840" fill="#ffffff" stroke="#ffffff" xlink:href="#b"/>
</g>
<g clip-path="url(#a)">
<use x="122.216216" y="840" fill="#ffffff" stroke="#ffffff" xlink:href="#b"/>
</g>
<g clip-path="url(#a)">
<use x="140.189189" y="840" fill="#ffffff" stroke="#ffffff" xlink:href="#b"/>
</g>
<g clip-path="url(#a)">
<use x="160.72973" y="840" fill="#ffffff" stroke="#ffffff" xlink:href="#b"/>
</g>
<g clip-path="url(#a)">
<use x="183.837838" y="840" fill="#ffffff" stroke="#ffffff" xlink:href="#b"/>
</g>
<g clip-path="url(#a)">
<use x="209.513514" y="840" fill="#ffffff" stroke="#ffffff" xlink:href="#b"/>
</g>
<g clip-path="url(#a)">
<use x="237.756757" y="840" fill="#ffffff" stroke="#ffffff" xlink:href="#b"/>
</g>
<g clip-path="url(#a)">
<use x="268.567568" y="840" fill="#ffffff" stroke="#ffffff" xlink:href="#b"/>
</g>
<g clip-path="url(#a)">
<use x="301.945946" y="840" fill="#ffffff" stroke="#ffffff" xlink:href="#b"/>
</g>
<g clip-path="url(#a)">
<use x="337.891892" y="840" fill="#ffffff" stroke="#ffffff" xlink:href="#b"/>
</g>
<g clip-path="url(#a)">
<use x="376.405405" y="840" fill="#ffffff" stroke="#ffffff" xlink:href="#b"/>
</g>
<g clip-path="url(#a)">
<use x="417.486486" y="840" fill="#ffffff" stroke="#ffffff" xlink:href="#b"/>
</g>
<g clip-path="url(#a)">
<use x="461.135135" y="840" fill="#ffffff" stroke="#ffffff" xlink:href="#b"/>
</g>
<g clip-path="url(#a)">
<use x="507.351351" y="840" fill="#ffffff" stroke="#ffffff" xlink:href="#b"/>
</g>
<g clip-path="url(#a)">
<use x="556.135135" y="840" fill="#ffffff" stroke="#ffffff" xlink:href="#b"/>
</g>
<g clip-path="url(#a)">
<use x="607.486486" y="840" fill="#ffffff" stroke="#ffffff" xlink:href="#b"/>
</g>
<g clip-path="url(#a)">
<use x="661.405405" y="840" fill="#ffffff" stroke="#ffffff" xlink:href="#b"/>
</g>
<g clip-path="url(#a)">
<use x="717.891892" y="840" fill="#ffffff" stroke="#ffffff" xlink:href="#b"/>
</g>
<g clip-path="url(#a)">
<use x="776.945946" y="840" fill="#ffffff" stroke="#ffffff" xlink:href="#b"/>
</g>
<g clip-path="url(#a)">
<use x="838.567568" y="840" fill="#ffffff" stroke="#ffffff" xlink:href="#b"/>
</g>
<g clip-path="url(#a)">
<use x="902.756757" y="840" fill="#ffffff" stroke="#ffffff" xlink:href="#b"/>
</g>
<g clip-path="url(#a)">
<use x="969.513514" y="840" fill="#ffffff" stroke="#ffffff" xlink:href="#b"/>
</g>
<g clip-path="url(#a)">
<use x="1038.837838" y="840" fill="#ffffff" stroke="#ffffff" xlink:href="#b"/>
</g>
<g clip-path="url(#a)">
<use x="1110.72973" y="840" fill="#ffffff" stroke="#ffffff" xlink:href="#b"/>
</g>
<g clip-path="url(#a)">
<use x="1185.189189" y="840" fill="#ffffff" stroke="#ffffff" xlink:href="#b"/>
</g>
<g clip-path="url(#a)">
<use x="1262.216216" y="840" fill="#ffffff" stroke="#ffffff" xlink:href="#b"/>
</g>
<g clip-path="url(#a)">
<use x="1341.810811" y="840" fill="#ffffff" stroke="#ffffff" xlink:href="#b"/>
</g>
<g clip-path="url(#a)">
<use x="1423.972973" y="840" fill="#ffffff" stroke="#ffffff" xlink:href="#b"/>
</g>
<g clip-path="url(#a)">
<use x="1508.702703" y="840" fill="#ffffff" stroke="#ffffff" xlink:href="#b"/>
</g>
<g clip-path="url(#a)">
<use x="1596" y="840" fill="#ffffff" stroke="#ffffff" xlink:href="#b"/>
</g>
<g clip-path="url(#a)">
<use x="440.907517" y="40" fill="#ffffff" stroke="#ffffff" xlink:href="#b"/>
</g>
<g clip-path="url(#a)">
<use x="147.934685" y="385.408242" fill="#ffffff" stroke="#ffffff" xlink:href="#b"/>
</g>
<g clip-path="url(#a)">
<use x="507.351351" y="727.916685" fill="#ffffff" stroke="#ffffff" xlink:href="#b"/>
</g>
<g clip-path="url(#a)">
<use x="647.208896" y="155.341933" fill="#ffffff" stroke="#ffffff" xlink:href="#b"/>
</g>
<g clip-path="url(#a)">
<use x="556.135135" y="727.916685" fill="#ffffff" stroke="#ffffff" xlink:href="#b"/>
</g>
<g clip-path="url(#a)">
<use x="607.486486" y="727.916685" fill="#ffffff" stroke="#ffffff" xlink:href="#b"/>
</g>
<g clip-path="url(#a)">
<use x="778.005068" y="270.490896" fill="#ffffff" stroke="#ffffff" xlink:href="#b"/>
</g>
<g clip-path="url(#a)">
<use x="661.405405" y="727.916685" fill="#ffffff" stroke="#ffffff" xlink:href="#b"/>
</g>
<g clip-path="url(#a)">
<use x="717.891892" y="727.916685" fill="#ffffff" stroke="#ffffff" xlink:href="#b"/>
</g>
<g clip-path="url(#a)">
<use x="776.945946" y="727.916685" fill="#ffffff" stroke="#ffffff" xlink:href="#b"/>
</g>
<g clip-path="url(#a)">
<use x="955.777027" y="385.408242" fill="#ffffff" stroke="#ffffff" xlink:href="#b"/>
</g>
<g clip-path="url(#a)">
<use x="838.567568" y="727.916685" fill="#ffffff" stroke="#ffffff" xlink:href="#b"/>
</g>
<g clip-path="url(#a)">
<use x="902.756757" y="727.916685" fill="#ffffff" stroke="#ffffff" xlink:href="#b"/>
</g>
<g clip-path="url(#a)">
<use x="1004.175676" y="614.274168" fill="#ffffff" stroke="#ffffff" xlink:href="#b"/>
</g>
<g clip-path="url(#a)">
<use x="1256.439189" y="500.035606" fill="#ffffff" stroke="#ffffff" xlink:href="#b"/>
</g>
<g clip-path="url(#a)">
<use x="1110.72973" y="727.916685" fill="#ffffff" stroke="#ffffff" xlink:href="#b"/>
</g>
<g clip-path="url(#a)">
<use x="1185.189189" y="727.916685" fill="#ffffff" stroke="#ffffff" xlink:href="#b"/>
</g>
<g clip-path="url(#a)">
<use x="1262.216216" y="727.916685" fill="#ffffff" stroke="#ffffff" xlink:href="#b"/>
</g>
<g clip-path="url(#a)">
<use x="1467.621622" y="614.274168" fill="#ffffff" stroke="#ffffff" xlink:href="#b"/>
</g>
<g clip-path="url(#a)">
<use x="1341.810811" y="727.916685" fill="#ffffff" stroke="#ffffff" xlink:href="#b"/>
</g>
<g clip-path="url(#a)">
<use x="1423.972973" y="727.916685" fill="#ffffff" stroke="#ffffff" xlink:href="#b"/>
</g>
<g clip-path="url(#a)">
<use x="1508.702703" y="727.916685" fill="#ffffff" stroke="#ffffff" xlink:href="#b"/>
</g>
<g clip-path="url(#a)">
<use x="969.513514" y="727.916685" fill="#ffffff" stroke="#ffffff" xlink:href="#b"/>
</g>
<g clip-path="url(#a)">
<use x="1038.837838" y="727.916685" fill="#ffffff" stroke="#ffffff" xlink:href="#b"/>
</g>
<g clip-path="url(#a)">
<use x="84.558559" y="614.274168" fill="#ffffff" stroke="#ffffff" xlink:href="#b"/>
</g>
<g clip-path="url(#a)">
<use x="114.513514" y="614.274168" fill="#ffffff" stroke="#ffffff" xlink:href="#b"/>
</g>
<g clip-path="url(#a)">
<use x="140.189189" y="727.916685" fill="#ffffff" stroke="#ffffff" xlink:href="#b"/>
</g>
<g clip-path="url(#a)">
<use x="252.477477" y="500.035606" fill="#ffffff" stroke="#ffffff" xlink:href="#b"/>
</g>
<g clip-path="url(#a)">
<use x="160.72973" y="727.916685" fill="#ffffff" stroke="#ffffff" xlink:href="#b"/>
</g>
<g clip-path="url(#a)">
<use x="183.837838" y="727.916685" fill="#ffffff" stroke="#ffffff" xlink:href="#b"/>
</g>
<g clip-path="url(#a)">
<use x="238.612613" y="614.274168" fill="#ffffff" stroke="#ffffff" xlink:href="#b"/>
</g>
<g clip-path="url(#a)">
<use x="301.945946" y="727.916685" fill="#ffffff" stroke="#ffffff" xlink:href="#b"/>
</g>
<g clip-path="url(#a)">
<use x="377.261261" y="614.274168" fill="#ffffff" stroke="#ffffff" xlink:href="#b"/>
</g>
<g clip-path="url(#a)">
<use x="337.891892" y="727.916685" fill="#ffffff" stroke="#ffffff" xlink:href="#b"/>
</g>
<g clip-path="url(#a)">
<use x="376.405405" y="727.916685" fill="#ffffff" stroke="#ffffff" xlink:href="#b"/>
</g>
<g clip-path="url(#a)">
<use x="417.486486" y="727.916685" fill="#ffffff" stroke="#ffffff" xlink:href="#b"/>
</g>
<g clip-path="url(#a)">
<use x="209.513514" y="727.916685" fill="#ffffff" stroke="#ffffff" xlink:href="#b"/>
</g>
<g clip-path="url(#a)">
<use x="268.567568" y="727.916685" fill="#ffffff" stroke="#ffffff" xlink:href="#b"/>
</g>
<g clip-path="url(#a)">
<use x="106.810811" y="727.916685" fill="#ffffff" stroke="#ffffff" xlink:href="#b"/>
</g>
<g clip-path="url(#a)">
<use x="122.216216" y="727.916685" fill="#ffffff" stroke="#ffffff" xlink:href="#b"/>
</g>
<g clip-path="url(#a)">
<use x="76" y="727.916685" fill="#ffffff" stroke="#ffffff" xlink:href="#b"/>
</g>
<g clip-path="url(#a)">
<use x="83.702703" y="727.916685" fill="#ffffff" stroke="#ffffff" xlink:href="#b"/>
</g>
<g clip-path="url(#a)">
<use x="93.972973" y="727.916685" fill="#ffffff" stroke="#ffffff" xlink:href="#b"/>
</g>
<g clip-path="url(#a)">
<use x="237.756757" y="727.916685" fill="#ffffff" stroke="#ffffff" xlink:href="#b"/>
</g>
<g clip-path="url(#a)">
<use x="461.135135" y="727.916685" fill="#ffffff" stroke="#ffffff" xlink:href="#b"/>
</g>
<g clip-path="url(#a)">
<use x="1596" y="727.916685" fill="#ffffff" stroke="#ffffff" xlink:href="#b"/>
</g>
<g clip-path="url(#a)">
<defs>
<path id="t" d="m54.891 33.016v-33.016h-8.9844v32.719q0 7.7656-3.0312 11.609-3.0312 3.8594-9.0781 3.8594-7.2812 0-11.484-4.6406-4.2031-4.625-4.2031-12.641v-30.906h-9.0312v75.984h9.0312v-29.797q3.2344 4.9375 7.5938 7.375 4.375 2.4375 10.094 2.4375 9.4219 0 14.25-5.8281 4.8438-5.8281 4.8438-17.156z"/>
</defs>
<g transform="translate(66.701 842.76) scale(.1 -.1)">
<use xlink:href="#j"/>
<use x="61.083984" xlink:href="#t"/>
<use x="124.462891" xlink:href="#d"/>
</g>
</g>
<g clip-path="url(#a)">
<defs>
<path id="x" d="m45.406 46.391v29.594h8.9844v-75.984h-8.9844v8.2031q-2.8281-4.875-7.1562-7.25-4.3125-2.375-10.375-2.375-9.9062 0-16.141 7.9062-6.2188 7.9219-6.2188 20.812t6.2188 20.797q6.2344 7.9062 16.141 7.9062 6.0625 0 10.375-2.375 4.3281-2.3594 7.1562-7.2344zm-30.609-19.094q0-9.9062 4.0781-15.547t11.203-5.6406 11.219 5.6406q4.1094 5.6406 4.1094 15.547t-4.1094 15.547q-4.0938 5.6406-11.219 5.6406t-11.203-5.6406-4.0781-15.547z"/>
</defs>
<g transform="translate(60.118 842.76) scale(.1 -.1)">
<use xlink:href="#p"/>
<use x="69.824219" xlink:href="#e"/>
<use x="131.103516" xlink:href="#h"/>
<use x="194.482422" xlink:href="#e"/>
<use x="255.761719" xlink:href="#x"/>
<use x="319.238281" xlink:href="#i"/>
<use x="347.021484" xlink:href="#e"/>
<use x="408.300781" xlink:href="#h"/>
</g>
</g>
<g clip-path="url(#a)">
<defs>
<path id="ak" d="m18.109 8.2031v-29h-9.0312v75.484h9.0312v-8.2969q2.8438 4.875 7.1562 7.2344 4.3281 2.375 10.328 2.375 9.9688 0 16.188-7.9062 6.2344-7.9062 6.2344-20.797t-6.2344-20.812q-6.2188-7.9062-16.188-7.9062-6 0-10.328 2.375-4.3125 2.375-7.1562 7.25zm30.578 19.094q0 9.9062-4.0781 15.547t-11.203 5.6406q-7.1406 0-11.219-5.6406t-4.0781-15.547 4.0781-15.547 11.219-5.6406q7.125 0 11.203 5.6406t4.0781 15.547z"/>
<path id="w" d="m44.281 53.078v-8.5q-3.7969 1.9531-7.9062 2.9219-4.0938 0.98438-8.5 0.98438-6.6875 0-10.031-2.0469t-3.3438-6.1562q0-3.125 2.3906-4.9062t9.625-3.3906l3.0781-0.6875q9.5625-2.0469 13.594-5.7812t4.0312-10.422q0-7.625-6.0312-12.078-6.0312-4.4375-16.578-4.4375-4.3906 0-9.1562 0.85938t-10.031 2.5625v9.2812q4.9844-2.5938 9.8125-3.8906 4.8281-1.2812 9.5781-1.2812 6.3438 0 9.75 2.1719 3.4219 2.1719 3.4219 6.125 0 3.6562-2.4688 5.6094-2.4531 1.9531-10.812 3.7656l-3.125 0.73438q-8.3438 1.75-12.062 5.3906-3.7031 3.6406-3.7031 9.9844 0 7.7188 5.4688 11.906 5.4688 4.2031 15.531 4.2031 4.9688 0 9.3594-0.73438 4.4062-0.71875 8.1094-2.1875z"/>
</defs>
<g transform="translate(80.57 842.76) scale(.1 -.1)">
<use xlink:href="#ak"/>
<use x="63.476562" xlink:href="#g"/>
<use x="102.339844" xlink:href="#d"/>
<use x="163.863281" xlink:href="#w"/>
<use x="215.962891" xlink:href="#w"/>
</g>
</g>
<g clip-path="url(#a)">
<g transform="translate(102.25 842.76) scale(.1 -.1)">
<use xlink:href="#i"/>
<use x="27.783203" xlink:href="#h"/>
</g>
</g>
<g clip-path="url(#a)">
<defs>
<path id="s" d="m18.312 70.219v-15.531h18.5v-6.9844h-18.5v-29.688q0-6.6875 1.8281-8.5938t7.4531-1.9062h9.2188v-7.5156h-9.2188q-10.406 0-14.359 3.875-3.9531 3.8906-3.9531 14.141v29.688h-6.5938v6.9844h6.5938v15.531z"/>
<path id="ac" d="m48.781 52.594v-8.4062q-3.8125 2.1094-7.6406 3.1562t-7.7344 1.0469q-8.75 0-13.594-5.5469-4.8281-5.5312-4.8281-15.547t4.8281-15.562q4.8438-5.5312 13.594-5.5312 3.9062 0 7.7344 1.0469t7.6406 3.1562v-8.3125q-3.7656-1.75-7.7969-2.625-4.0156-0.89062-8.5625-0.89062-12.359 0-19.641 7.7656-7.2656 7.7656-7.2656 20.953 0 13.375 7.3438 21.031 7.3594 7.6719 20.156 7.6719 4.1406 0 8.0938-0.85938 3.9531-0.84375 7.6719-2.5469z"/>
<path id="ae" d="m8.5 21.578v33.109h8.9844v-32.766q0-7.7656 3.0156-11.656 3.0312-3.875 9.0938-3.875 7.2656 0 11.484 4.6406 4.2344 4.6406 4.2344 12.656v31h8.9844v-54.688h-8.9844v8.4062q-3.2656-4.9844-7.5938-7.4062-4.3125-2.4219-10.031-2.4219-9.4219 0-14.312 5.8594-4.875 5.8594-4.875 17.141z"/>
</defs>
<g transform="translate(98.147 842.76) scale(.1 -.1)">
<use xlink:href="#ak"/>
<use x="63.476562" xlink:href="#e"/>
<use x="124.755859" xlink:href="#g"/>
<use x="165.869141" xlink:href="#s"/>
<use x="205.078125" xlink:href="#i"/>
<use x="232.861328" xlink:href="#ac"/>
<use x="287.841797" xlink:href="#ae"/>
<use x="351.220703" xlink:href="#l"/>
<use x="379.003906" xlink:href="#e"/>
<use x="440.283203" xlink:href="#g"/>
</g>
</g>
<g clip-path="url(#a)">
<defs>
<path id="aj" d="m2.9844 54.688h9.5156l17.094-45.891 17.094 45.891h9.5156l-20.516-54.688h-12.203z"/>
</defs>
<g transform="translate(125.86 842.76) scale(.1 -.1)">
<use xlink:href="#g"/>
<use x="41.113281" xlink:href="#e"/>
<use x="102.392578" xlink:href="#aj"/>
<use x="161.572266" xlink:href="#d"/>
<use x="223.095703" xlink:href="#x"/>
</g>
</g>
<g clip-path="url(#a)">
<defs>
<path id="al" d="m48.688 27.297q0 9.9062-4.0781 15.547t-11.203 5.6406q-7.1406 0-11.219-5.6406t-4.0781-15.547 4.0781-15.547 11.219-5.6406q7.125 0 11.203 5.6406t4.0781 15.547zm-30.578 19.094q2.8438 4.875 7.1562 7.2344 4.3281 2.375 10.328 2.375 9.9688 0 16.188-7.9062 6.2344-7.9062 6.2344-20.797t-6.2344-20.812q-6.2188-7.9062-16.188-7.9062-6 0-10.328 2.375-4.3125 2.375-7.1562 7.25v-8.2031h-9.0312v75.984h9.0312z"/>
<path id="q" d="m30.609 48.391q-7.2188 0-11.422-5.6406t-4.2031-15.453 4.1719-15.453q4.1875-5.6406 11.453-5.6406 7.1875 0 11.375 5.6562 4.2031 5.6719 4.2031 15.438 0 9.7188-4.2031 15.406-4.1875 5.6875-11.375 5.6875zm0 7.6094q11.719 0 18.406-7.625 6.7031-7.6094 6.7031-21.078 0-13.422-6.7031-21.078-6.6875-7.6406-18.406-7.6406-11.766 0-18.438 7.6406-6.6562 7.6562-6.6562 21.078 0 13.469 6.6562 21.078 6.6719 7.625 18.438 7.625z"/>
</defs>
<g transform="translate(146.3 842.76) scale(.1 -.1)">
<use xlink:href="#e"/>
<use x="61.279297" xlink:href="#al"/>
<use x="124.755859" xlink:href="#q"/>
<use x="185.9375" xlink:href="#ae"/>
<use x="249.316406" xlink:href="#s"/>
</g>
</g>
<g clip-path="url(#a)">
<g transform="translate(176.68 842.76) scale(.1 -.1)">
<use xlink:href="#t"/>
<use x="63.378906" xlink:href="#i"/>
<use x="91.162109" xlink:href="#w"/>
</g>
</g>
<g clip-path="url(#a)">
<g transform="translate(204.96 842.76) scale(.1 -.1)">
<use xlink:href="#i"/>
<use x="27.783203" xlink:href="#h"/>
</g>
</g>
<g clip-path="url(#a)">
<defs>
<path id="aq" d="m4.8906 31.391h26.312v-8h-26.312z"/>
</defs>
<g transform="translate(235.95 842.76) scale(.1 -.1)">
<use xlink:href="#aq"/>
</g>
</g>
<g clip-path="url(#a)">
<g transform="translate(254.01 842.76) scale(.1 -.1)">
<use xlink:href="#x"/>
<use x="63.476562" xlink:href="#d"/>
<use x="125" xlink:href="#ak"/>
<use x="188.476562" xlink:href="#s"/>
<use x="227.685547" xlink:href="#t"/>
</g>
</g>
<g clip-path="url(#a)">
<defs>
<path id="au" d="m45.406 27.984q0 9.7656-4.0312 15.125-4.0156 5.375-11.297 5.375-7.2188 0-11.25-5.375-4.0312-5.3594-4.0312-15.125 0-9.7188 4.0312-15.094t11.25-5.375q7.2812 0 11.297 5.375 4.0312 5.375 4.0312 15.094zm8.9844-21.203q0-13.953-6.2031-20.766-6.1875-6.8125-18.984-6.8125-4.7344 0-8.9375 0.70312t-8.1562 2.1719v8.7344q3.9531-2.1406 7.8125-3.1562 3.8594-1.0312 7.8594-1.0312 8.8438 0 13.234 4.6094t4.3906 13.938v4.4531q-2.7812-4.8438-7.125-7.2344t-10.406-2.3906q-10.047 0-16.203 7.6562-6.1562 7.6719-6.1562 20.328 0 12.688 6.1562 20.344 6.1562 7.6719 16.203 7.6719 6.0625 0 10.406-2.3906t7.125-7.2188v8.2969h8.9844z"/>
</defs>
<g transform="translate(278.73 842.76) scale(.1 -.1)">
<use xlink:href="#ac"/>
<use x="54.980469" xlink:href="#q"/>
<use x="116.162109" xlink:href="#aj"/>
<use x="175.341797" xlink:href="#d"/>
<use x="236.865234" xlink:href="#g"/>
<use x="277.978516" xlink:href="#e"/>
<use x="339.257812" xlink:href="#au"/>
<use x="402.734375" xlink:href="#d"/>
</g>
</g>
<g clip-path="url(#a)">
<defs>
<path id="af" d="m37.109 75.984v-7.4844h-8.5938q-4.8281 0-6.7188-1.9531-1.875-1.9531-1.875-7.0312v-4.8281h14.797v-6.9844h-14.797v-47.703h-9.0312v47.703h-8.5938v6.9844h8.5938v3.8125q0 9.125 4.25 13.297 4.25 4.1875 13.469 4.1875z"/>
</defs>
<g transform="translate(333.07 842.76) scale(.1 -.1)">
<use xlink:href="#q"/>
<use x="61.181641" xlink:href="#af"/>
</g>
</g>
<g clip-path="url(#a)">
<g transform="translate(368.2 842.76) scale(.1 -.1)">
<use xlink:href="#s"/>
<use x="39.208984" xlink:href="#t"/>
<use x="102.587891" xlink:href="#d"/>
</g>
</g>
<g clip-path="url(#a)">
<g transform="translate(404.64 842.76) scale(.1 -.1)">
<use xlink:href="#i"/>
<use x="27.783203" xlink:href="#w"/>
<use x="79.882812" xlink:href="#w"/>
<use x="131.982422" xlink:href="#ae"/>
<use x="195.361328" xlink:href="#d"/>
</g>
</g>
<g clip-path="url(#a)">
<defs>
<path id="ar" d="m11.719 12.406h10.297v-8.4062l-8-15.625h-6.2969l4 15.625z"/>
</defs>
<g transform="translate(459.55 842.76) scale(.1 -.1)">
<use xlink:href="#ar"/>
</g>
</g>
<g clip-path="url(#a)">
<g transform="translate(497.94 842.76) scale(.1 -.1)">
<use xlink:href="#e"/>
<use x="61.279297" xlink:href="#h"/>
<use x="124.658203" xlink:href="#x"/>
</g>
</g>
<g clip-path="url(#a)">
<g transform="translate(549.89 842.76) scale(.1 -.1)">
<use xlink:href="#t"/>
<use x="63.378906" xlink:href="#d"/>
</g>
</g>
<g clip-path="url(#a)">
<defs>
<path id="at" d="m4.2031 54.688h8.9844l11.234-42.672 11.172 42.672h10.594l11.234-42.672 11.188 42.672h8.9844l-14.312-54.688h-10.594l-11.766 44.828-11.812-44.828h-10.609z"/>
</defs>
<g transform="translate(597.73 842.76) scale(.1 -.1)">
<use xlink:href="#at"/>
<use x="81.787109" xlink:href="#e"/>
<use x="143.066406" xlink:href="#w"/>
</g>
</g>
<g clip-path="url(#a)">
<g transform="translate(653.2 842.76) scale(.1 -.1)">
<use xlink:href="#s"/>
<use x="39.208984" xlink:href="#t"/>
<use x="102.587891" xlink:href="#d"/>
</g>
</g>
<g clip-path="url(#a)">
<defs>
<path id="as" d="m32.172-5.0781q-3.7969-9.7656-7.4219-12.734-3.6094-2.9844-9.6562-2.9844h-7.1875v7.5156h5.2812q3.7031 0 5.75 1.7656 2.0625 1.75 4.5469 8.2969l1.6094 4.0938-22.109 53.812h9.5156l17.094-42.766 17.094 42.766h9.5156z"/>
</defs>
<g transform="translate(707.32 842.76) scale(.1 -.1)">
<use xlink:href="#q"/>
<use x="61.181641" xlink:href="#h"/>
<use x="124.560547" xlink:href="#l"/>
<use x="152.34375" xlink:href="#as"/>
</g>
</g>
<g clip-path="url(#a)">
<g transform="translate(759.68 842.76) scale(.1 -.1)">
<use xlink:href="#e"/>
<use x="61.279297" xlink:href="#h"/>
<use x="124.658203" xlink:href="#ac"/>
<use x="179.638672" xlink:href="#t"/>
<use x="243.017578" xlink:href="#q"/>
<use x="304.199219" xlink:href="#g"/>
</g>
</g>
<g clip-path="url(#a)">
<g transform="translate(833.55 842.76) scale(.1 -.1)">
<use xlink:href="#s"/>
<use x="39.208984" xlink:href="#q"/>
</g>
</g>
<g clip-path="url(#a)">
<g transform="translate(877.96 842.76) scale(.1 -.1)">
<use xlink:href="#al"/>
<use x="63.476562" xlink:href="#g"/>
<use x="102.339844" xlink:href="#q"/>
<use x="163.521484" xlink:href="#e"/>
<use x="224.800781" xlink:href="#x"/>
<use x="288.277344" xlink:href="#ac"/>
<use x="343.257812" xlink:href="#e"/>
<use x="404.537109" xlink:href="#w"/>
<use x="456.636719" xlink:href="#s"/>
</g>
</g>
<g clip-path="url(#a)">
<g transform="translate(957.88 842.76) scale(.1 -.1)">
<use xlink:href="#af"/>
<use x="35.205078" xlink:href="#g"/>
<use x="74.068359" xlink:href="#q"/>
<use x="135.25" xlink:href="#k"/>
</g>
</g>
<g clip-path="url(#a)">
<g transform="translate(1019.8 842.76) scale(.1 -.1)">
<use xlink:href="#p"/>
<use x="69.824219" xlink:href="#e"/>
<use x="131.103516" xlink:href="#h"/>
<use x="194.482422" xlink:href="#e"/>
<use x="255.761719" xlink:href="#x"/>
<use x="319.238281" xlink:href="#e"/>
</g>
</g>
<g clip-path="url(#a)">
<g transform="translate(1104.5 842.76) scale(.1 -.1)">
<use xlink:href="#q"/>
<use x="61.181641" xlink:href="#h"/>
</g>
</g>
<g clip-path="url(#a)">
<g transform="translate(1177 842.76) scale(.1 -.1)">
<use xlink:href="#s"/>
<use x="39.208984" xlink:href="#t"/>
<use x="102.587891" xlink:href="#d"/>
</g>
</g>
<g clip-path="url(#a)">
<g transform="translate(1253.1 842.76) scale(.1 -.1)">
<use xlink:href="#d"/>
<use x="61.523438" xlink:href="#aj"/>
<use x="120.703125" xlink:href="#d"/>
</g>
</g>
<g clip-path="url(#a)">
<g transform="translate(1337 842.76) scale(.1 -.1)">
<use xlink:href="#q"/>
<use x="61.181641" xlink:href="#af"/>
</g>
</g>
<g clip-path="url(#a)">
<g transform="translate(1415.8 842.76) scale(.1 -.1)">
<use xlink:href="#s"/>
<use x="39.208984" xlink:href="#t"/>
<use x="102.587891" xlink:href="#d"/>
</g>
</g>
<g clip-path="url(#a)">
<g transform="translate(1479.4 842.76) scale(.1 -.1)">
<use xlink:href="#g"/>
<use x="38.863281" xlink:href="#d"/>
<use x="100.386719" xlink:href="#af"/>
<use x="135.591797" xlink:href="#d"/>
<use x="197.115234" xlink:href="#g"/>
<use x="235.978516" xlink:href="#d"/>
<use x="297.501953" xlink:href="#h"/>
<use x="360.880859" xlink:href="#x"/>
<use x="424.357422" xlink:href="#ae"/>
<use x="487.736328" xlink:href="#k"/>
</g>
</g>
<g clip-path="url(#a)">
<defs>
<path id="f" d="m10.688 12.406h10.312v-12.406h-10.312z"/>
</defs>
<g transform="translate(1594.4 842.76) scale(.1 -.1)">
<use xlink:href="#f"/>
</g>
</g>
<g clip-path="url(#a)">
<defs>
<path id="c" d="m12.406 8.2969h16.109v55.625l-17.531-3.5156v8.9844l17.438 3.5156h9.8594v-64.609h16.109v-8.2969h-41.984z"/>
</defs>
<g transform="translate(432.96 42.759) scale(.1 -.1)">
<use xlink:href="#c"/>
<use x="63.623047" xlink:href="#f"/>
<use x="95.410156" xlink:href="#c"/>
</g>
</g>
<g clip-path="url(#a)">
<defs>
<path id="m" d="m19.188 8.2969h34.422v-8.2969h-46.281v8.2969q5.6094 5.8125 15.297 15.594 9.7031 9.7969 12.188 12.641 4.7344 5.3125 6.6094 9 1.8906 3.6875 1.8906 7.25 0 5.8125-4.0781 9.4688-4.0781 3.6719-10.625 3.6719-4.6406 0-9.7969-1.6094-5.1406-1.6094-11-4.8906v9.9688q5.9531 2.3906 11.125 3.6094 5.1875 1.2188 9.4844 1.2188 11.328 0 18.062-5.6719 6.7344-5.6562 6.7344-15.125 0-4.5-1.6875-8.5312-1.6719-4.0156-6.125-9.4844-1.2188-1.4219-7.7656-8.1875-6.5312-6.7656-18.453-18.922z"/>
</defs>
<g transform="translate(139.98 388.17) scale(.1 -.1)">
<use xlink:href="#c"/>
<use x="63.623047" xlink:href="#f"/>
<use x="95.410156" xlink:href="#m"/>
</g>
</g>
<g clip-path="url(#a)">
<defs>
<path id="n" d="m37.797 64.312-24.906-38.922h24.906zm-2.5938 8.5938h12.406v-47.516h10.406v-8.2031h-10.406v-17.188h-9.8125v17.188h-32.906v9.5156z"/>
</defs>
<g transform="translate(499.4 730.68) scale(.1 -.1)">
<use xlink:href="#c"/>
<use x="63.623047" xlink:href="#f"/>
<use x="95.410156" xlink:href="#n"/>
</g>
</g>
<g clip-path="url(#a)">
<defs>
<path id="ab" d="m10.797 72.906h38.719v-8.3125h-29.688v-17.859q2.1406 0.73438 4.2812 1.0938 2.1562 0.35938 4.3125 0.35938 12.203 0 19.328-6.6875 7.1406-6.6875 7.1406-18.109 0-11.766-7.3281-18.297-7.3281-6.5156-20.656-6.5156-4.5938 0-9.3594 0.78125-4.75 0.78125-9.8281 2.3438v9.9219q4.3906-2.3906 9.0781-3.5625t9.9062-1.1719q8.4531 0 13.375 4.4375 4.9375 4.4375 4.9375 12.062 0 7.6094-4.9375 12.047-4.9219 4.4531-13.375 4.4531-3.9531 0-7.8906-0.875-3.9219-0.875-8.0156-2.7344z"/>
</defs>
<g transform="translate(639.26 158.1) scale(.1 -.1)">
<use xlink:href="#c"/>
<use x="63.623047" xlink:href="#f"/>
<use x="95.410156" xlink:href="#ab"/>
</g>
</g>
<g clip-path="url(#a)">
<defs>
<path id="aa" d="m8.2031 72.906h46.875v-4.2031l-26.469-68.703h-10.297l24.906 64.594h-35.016z"/>
</defs>
<g transform="translate(548.18 730.68) scale(.1 -.1)">
<use xlink:href="#c"/>
<use x="63.623047" xlink:href="#f"/>
<use x="95.410156" xlink:href="#aa"/>
</g>
</g>
<g clip-path="url(#a)">
<defs>
<path id="z" d="m31.781 34.625q-7.0312 0-11.062-3.7656-4.0156-3.7656-4.0156-10.344 0-6.5938 4.0156-10.359 4.0312-3.7656 11.062-3.7656t11.078 3.7812q4.0625 3.7969 4.0625 10.344 0 6.5781-4.0312 10.344-4.0156 3.7656-11.109 3.7656zm-9.8594 4.1875q-6.3438 1.5625-9.8906 5.9062-3.5312 4.3594-3.5312 10.609 0 8.7344 6.2188 13.812 6.2344 5.0781 17.062 5.0781 10.891 0 17.094-5.0781t6.2031-13.812q0-6.25-3.5469-10.609-3.5312-4.3438-9.8281-5.9062 7.125-1.6562 11.094-6.5 3.9844-4.8281 3.9844-11.797 0-10.609-6.4688-16.281-6.4688-5.6562-18.531-5.6562-12.047 0-18.531 5.6562-6.4688 5.6719-6.4688 16.281 0 6.9688 4 11.797 4.0156 4.8438 11.141 6.5zm-3.6094 15.578q0-5.6562 3.5312-8.8281 3.5469-3.1719 9.9375-3.1719 6.3594 0 9.9375 3.1719 3.5938 3.1719 3.5938 8.8281 0 5.6719-3.5938 8.8438-3.5781 3.1719-9.9375 3.1719-6.3906 0-9.9375-3.1719-3.5312-3.1719-3.5312-8.8438z"/>
</defs>
<g transform="translate(599.53 730.68) scale(.1 -.1)">
<use xlink:href="#c"/>
<use x="63.623047" xlink:href="#f"/>
<use x="95.410156" xlink:href="#z"/>
</g>
</g>
<g clip-path="url(#a)">
<defs>
<path id="y" d="m10.984 1.5156v8.9844q3.7188-1.7656 7.5156-2.6875 3.8125-0.92188 7.4844-0.92188 9.7656 0 14.906 6.5625 5.1562 6.5625 5.8906 19.953-2.8281-4.2031-7.1875-6.4531-4.3438-2.25-9.6094-2.25-10.938 0-17.312 6.6094-6.375 6.625-6.375 18.109 0 11.219 6.6406 18 6.6406 6.7969 17.672 6.7969 12.656 0 19.312-9.7031 6.6719-9.6875 6.6719-28.141 0-17.234-8.1875-27.516-8.1719-10.281-21.984-10.281-3.7188 0-7.5312 0.73438-3.7969 0.73438-7.9062 2.2031zm19.625 30.906q6.6406 0 10.516 4.5312 3.8906 4.5469 3.8906 12.469 0 7.8594-3.8906 12.422-3.875 4.5625-10.516 4.5625t-10.516-4.5625-3.875-12.422q0-7.9219 3.875-12.469 3.875-4.5312 10.516-4.5312z"/>
</defs>
<g transform="translate(770.05 273.25) scale(.1 -.1)">
<use xlink:href="#c"/>
<use x="63.623047" xlink:href="#f"/>
<use x="95.410156" xlink:href="#y"/>
</g>
</g>
<g clip-path="url(#a)">
<defs>
<path id="ai" d="m31.781 66.406q-7.6094 0-11.453-7.5-3.8281-7.4844-3.8281-22.531 0-14.984 3.8281-22.484 3.8438-7.5 11.453-7.5 7.6719 0 11.5 7.5 3.8438 7.5 3.8438 22.484 0 15.047-3.8438 22.531-3.8281 7.5-11.5 7.5zm0 7.8125q12.266 0 18.734-9.7031 6.4688-9.6875 6.4688-28.141 0-18.406-6.4688-28.109-6.4688-9.6875-18.734-9.6875-12.25 0-18.719 9.6875-6.4688 9.7031-6.4688 28.109 0 18.453 6.4688 28.141 6.4688 9.7031 18.719 9.7031z"/>
</defs>
<g transform="translate(650.27 730.68) scale(.1 -.1)">
<use xlink:href="#c"/>
<use x="63.623047" xlink:href="#f"/>
<use x="95.410156" xlink:href="#c"/>
<use x="159.033203" xlink:href="#ai"/>
</g>
</g>
<g clip-path="url(#a)">
<g transform="translate(706.76 730.68) scale(.1 -.1)">
<use xlink:href="#c"/>
<use x="63.623047" xlink:href="#f"/>
<use x="95.410156" xlink:href="#c"/>
<use x="159.033203" xlink:href="#c"/>
</g>
</g>
<g clip-path="url(#a)">
<g transform="translate(765.81 730.68) scale(.1 -.1)">
<use xlink:href="#c"/>
<use x="63.623047" xlink:href="#f"/>
<use x="95.410156" xlink:href="#c"/>
<use x="159.033203" xlink:href="#m"/>
</g>
</g>
<g clip-path="url(#a)">
<defs>
<path id="o" d="m40.578 39.312q7.0781-1.5156 11.047-6.3125 3.9844-4.7812 3.9844-11.812 0-10.781-7.4219-16.703-7.4219-5.9062-21.094-5.9062-4.5781 0-9.4375 0.90625t-10.031 2.7188v9.5156q4.0938-2.3906 8.9688-3.6094 4.8906-1.2188 10.219-1.2188 9.2656 0 14.125 3.6562t4.8594 10.641q0 6.4531-4.5156 10.078-4.5156 3.6406-12.562 3.6406h-8.5v8.1094h8.8906q7.2656 0 11.125 2.9062t3.8594 8.375q0 5.6094-3.9844 8.6094-3.9688 3.0156-11.391 3.0156-4.0625 0-8.7031-0.89062-4.6406-0.875-10.203-2.7188v8.7812q5.625 1.5625 10.531 2.3438t9.25 0.78125q11.234 0 17.766-5.1094 6.5469-5.0938 6.5469-13.781 0-6.0625-3.4688-10.234t-9.8594-5.7812z"/>
</defs>
<g transform="translate(944.64 388.17) scale(.1 -.1)">
<use xlink:href="#c"/>
<use x="63.623047" xlink:href="#f"/>
<use x="95.410156" xlink:href="#c"/>
<use x="159.033203" xlink:href="#o"/>
</g>
</g>
<g clip-path="url(#a)">
<g transform="translate(827.43 730.68) scale(.1 -.1)">
<use xlink:href="#c"/>
<use x="63.623047" xlink:href="#f"/>
<use x="95.410156" xlink:href="#c"/>
<use x="159.033203" xlink:href="#n"/>
</g>
</g>
<g clip-path="url(#a)">
<g transform="translate(891.62 730.68) scale(.1 -.1)">
<use xlink:href="#c"/>
<use x="63.623047" xlink:href="#f"/>
<use x="95.410156" xlink:href="#c"/>
<use x="159.033203" xlink:href="#ab"/>
</g>
</g>
<g clip-path="url(#a)">
<defs>
<path id="ad" d="m33.016 40.375q-6.6406 0-10.531-4.5469-3.875-4.5312-3.875-12.438 0-7.8594 3.875-12.438 3.8906-4.5625 10.531-4.5625t10.516 4.5625q3.875 4.5781 3.875 12.438 0 7.9062-3.875 12.438-3.875 4.5469-10.516 4.5469zm19.578 30.922v-8.9844q-3.7188 1.75-7.5 2.6719-3.7812 0.9375-7.5 0.9375-9.7656 0-14.922-6.5938-5.1406-6.5938-5.875-19.922 2.875 4.25 7.2188 6.5156 4.3594 2.2656 9.5781 2.2656 10.984 0 17.359-6.6719 6.375-6.6562 6.375-18.125 0-11.234-6.6406-18.031-6.6406-6.7812-17.672-6.7812-12.656 0-19.344 9.6875-6.6875 9.7031-6.6875 28.109 0 17.281 8.2031 27.562t22.016 10.281q3.7188 0 7.5-0.73438t7.8906-2.1875z"/>
</defs>
<g transform="translate(993.04 617.03) scale(.1 -.1)">
<use xlink:href="#c"/>
<use x="63.623047" xlink:href="#f"/>
<use x="95.410156" xlink:href="#c"/>
<use x="159.033203" xlink:href="#ad"/>
</g>
</g>
<g clip-path="url(#a)">
<g transform="translate(1245.3 502.79) scale(.1 -.1)">
<use xlink:href="#c"/>
<use x="63.623047" xlink:href="#f"/>
<use x="95.410156" xlink:href="#c"/>
<use x="159.033203" xlink:href="#aa"/>
</g>
</g>
<g clip-path="url(#a)">
<g transform="translate(1099.6 730.68) scale(.1 -.1)">
<use xlink:href="#c"/>
<use x="63.623047" xlink:href="#f"/>
<use x="95.410156" xlink:href="#c"/>
<use x="159.033203" xlink:href="#z"/>
</g>
</g>
<g clip-path="url(#a)">
<g transform="translate(1174.1 730.68) scale(.1 -.1)">
<use xlink:href="#c"/>
<use x="63.623047" xlink:href="#f"/>
<use x="95.410156" xlink:href="#c"/>
<use x="159.033203" xlink:href="#y"/>
</g>
</g>
<g clip-path="url(#a)">
<g transform="translate(1251.1 730.68) scale(.1 -.1)">
<use xlink:href="#c"/>
<use x="63.623047" xlink:href="#f"/>
<use x="95.410156" xlink:href="#m"/>
<use x="159.033203" xlink:href="#ai"/>
</g>
</g>
<g clip-path="url(#a)">
<g transform="translate(1456.5 617.03) scale(.1 -.1)">
<use xlink:href="#c"/>
<use x="63.623047" xlink:href="#f"/>
<use x="95.410156" xlink:href="#m"/>
<use x="159.033203" xlink:href="#c"/>
</g>
</g>
<g clip-path="url(#a)">
<g transform="translate(1330.7 730.68) scale(.1 -.1)">
<use xlink:href="#c"/>
<use x="63.623047" xlink:href="#f"/>
<use x="95.410156" xlink:href="#m"/>
<use x="159.033203" xlink:href="#m"/>
</g>
</g>
<g clip-path="url(#a)">
<g transform="translate(1412.8 730.68) scale(.1 -.1)">
<use xlink:href="#c"/>
<use x="63.623047" xlink:href="#f"/>
<use x="95.410156" xlink:href="#m"/>
<use x="159.033203" xlink:href="#o"/>
</g>
</g>
<g clip-path="url(#a)">
<g transform="translate(1497.6 730.68) scale(.1 -.1)">
<use xlink:href="#c"/>
<use x="63.623047" xlink:href="#f"/>
<use x="95.410156" xlink:href="#m"/>
<use x="159.033203" xlink:href="#n"/>
</g>
</g>
<g clip-path="url(#a)">
<g transform="translate(958.38 730.68) scale(.1 -.1)">
<use xlink:href="#c"/>
<use x="63.623047" xlink:href="#f"/>
<use x="95.410156" xlink:href="#m"/>
<use x="159.033203" xlink:href="#ab"/>
</g>
</g>
<g clip-path="url(#a)">
<g transform="translate(1027.7 730.68) scale(.1 -.1)">
<use xlink:href="#c"/>
<use x="63.623047" xlink:href="#f"/>
<use x="95.410156" xlink:href="#m"/>
<use x="159.033203" xlink:href="#ad"/>
</g>
</g>
<g clip-path="url(#a)">
<g transform="translate(73.426 617.03) scale(.1 -.1)">
<use xlink:href="#c"/>
<use x="63.623047" xlink:href="#f"/>
<use x="95.410156" xlink:href="#m"/>
<use x="159.033203" xlink:href="#aa"/>
</g>
</g>
<g clip-path="url(#a)">
<g transform="translate(103.38 617.03) scale(.1 -.1)">
<use xlink:href="#c"/>
<use x="63.623047" xlink:href="#f"/>
<use x="95.410156" xlink:href="#m"/>
<use x="159.033203" xlink:href="#z"/>
</g>
</g>
<g clip-path="url(#a)">
<g transform="translate(129.06 730.68) scale(.1 -.1)">
<use xlink:href="#c"/>
<use x="63.623047" xlink:href="#f"/>
<use x="95.410156" xlink:href="#m"/>
<use x="159.033203" xlink:href="#y"/>
</g>
</g>
<g clip-path="url(#a)">
<g transform="translate(241.34 502.79) scale(.1 -.1)">
<use xlink:href="#c"/>
<use x="63.623047" xlink:href="#f"/>
<use x="95.410156" xlink:href="#o"/>
<use x="159.033203" xlink:href="#ai"/>
</g>
</g>
<g clip-path="url(#a)">
<g transform="translate(149.6 730.68) scale(.1 -.1)">
<use xlink:href="#c"/>
<use x="63.623047" xlink:href="#f"/>
<use x="95.410156" xlink:href="#o"/>
<use x="159.033203" xlink:href="#c"/>
</g>
</g>
<g clip-path="url(#a)">
<g transform="translate(172.71 730.68) scale(.1 -.1)">
<use xlink:href="#c"/>
<use x="63.623047" xlink:href="#f"/>
<use x="95.410156" xlink:href="#o"/>
<use x="159.033203" xlink:href="#m"/>
</g>
</g>
<g clip-path="url(#a)">
<g transform="translate(227.48 617.03) scale(.1 -.1)">
<use xlink:href="#c"/>
<use x="63.623047" xlink:href="#f"/>
<use x="95.410156" xlink:href="#o"/>
<use x="159.033203" xlink:href="#o"/>
</g>
</g>
<g clip-path="url(#a)">
<g transform="translate(290.81 730.68) scale(.1 -.1)">
<use xlink:href="#c"/>
<use x="63.623047" xlink:href="#f"/>
<use x="95.410156" xlink:href="#o"/>
<use x="159.033203" xlink:href="#n"/>
</g>
</g>
<g clip-path="url(#a)">
<g transform="translate(366.13 617.03) scale(.1 -.1)">
<use xlink:href="#c"/>
<use x="63.623047" xlink:href="#f"/>
<use x="95.410156" xlink:href="#o"/>
<use x="159.033203" xlink:href="#ab"/>
</g>
</g>
<g clip-path="url(#a)">
<g transform="translate(326.76 730.68) scale(.1 -.1)">
<use xlink:href="#c"/>
<use x="63.623047" xlink:href="#f"/>
<use x="95.410156" xlink:href="#o"/>
<use x="159.033203" xlink:href="#ad"/>
</g>
</g>
<g clip-path="url(#a)">
<g transform="translate(365.27 730.68) scale(.1 -.1)">
<use xlink:href="#c"/>
<use x="63.623047" xlink:href="#f"/>
<use x="95.410156" xlink:href="#o"/>
<use x="159.033203" xlink:href="#aa"/>
</g>
</g>
<g clip-path="url(#a)">
<g transform="translate(406.35 730.68) scale(.1 -.1)">
<use xlink:href="#c"/>
<use x="63.623047" xlink:href="#f"/>
<use x="95.410156" xlink:href="#o"/>
<use x="159.033203" xlink:href="#z"/>
</g>
</g>
<g clip-path="url(#a)">
<g transform="translate(198.38 730.68) scale(.1 -.1)">
<use xlink:href="#c"/>
<use x="63.623047" xlink:href="#f"/>
<use x="95.410156" xlink:href="#o"/>
<use x="159.033203" xlink:href="#y"/>
</g>
</g>
<g clip-path="url(#a)">
<g transform="translate(257.43 730.68) scale(.1 -.1)">
<use xlink:href="#c"/>
<use x="63.623047" xlink:href="#f"/>
<use x="95.410156" xlink:href="#n"/>
<use x="159.033203" xlink:href="#c"/>
</g>
</g>
<g clip-path="url(#a)">
<g transform="translate(95.678 730.68) scale(.1 -.1)">
<use xlink:href="#c"/>
<use x="63.623047" xlink:href="#f"/>
<use x="95.410156" xlink:href="#n"/>
<use x="159.033203" xlink:href="#m"/>
</g>
</g>
<g clip-path="url(#a)">
<g transform="translate(111.08 730.68) scale(.1 -.1)">
<use xlink:href="#c"/>
<use x="63.623047" xlink:href="#f"/>
<use x="95.410156" xlink:href="#n"/>
<use x="159.033203" xlink:href="#o"/>
</g>
</g>
<g clip-path="url(#a)">
<g transform="translate(64.867 730.68) scale(.1 -.1)">
<use xlink:href="#c"/>
<use x="63.623047" xlink:href="#f"/>
<use x="95.410156" xlink:href="#n"/>
<use x="159.033203" xlink:href="#n"/>
</g>
</g>
<g clip-path="url(#a)">
<g transform="translate(72.57 730.68) scale(.1 -.1)">
<use xlink:href="#c"/>
<use x="63.623047" xlink:href="#f"/>
<use x="95.410156" xlink:href="#n"/>
<use x="159.033203" xlink:href="#ab"/>
</g>
</g>
<g clip-path="url(#a)">
<g transform="translate(82.84 730.68) scale(.1 -.1)">
<use xlink:href="#c"/>
<use x="63.623047" xlink:href="#f"/>
<use x="95.410156" xlink:href="#n"/>
<use x="159.033203" xlink:href="#ad"/>
</g>
</g>
<g clip-path="url(#a)">
<g transform="translate(226.62 730.68) scale(.1 -.1)">
<use xlink:href="#c"/>
<use x="63.623047" xlink:href="#f"/>
<use x="95.410156" xlink:href="#n"/>
<use x="159.033203" xlink:href="#aa"/>
</g>
</g>
<g clip-path="url(#a)">
<g transform="translate(450 730.68) scale(.1 -.1)">
<use xlink:href="#c"/>
<use x="63.623047" xlink:href="#f"/>
<use x="95.410156" xlink:href="#n"/>
<use x="159.033203" xlink:href="#z"/>
</g>
</g>
<g clip-path="url(#a)">
<g transform="translate(1584.9 730.68) scale(.1 -.1)">
<use xlink:href="#c"/>
<use x="63.623047" xlink:href="#f"/>
<use x="95.410156" xlink:href="#n"/>
<use x="159.033203" xlink:href="#y"/>
</g>
</g>
<defs>
<clipPath id="a">
<rect width="1672" height="880"/>
</clipPath>
</defs>
</svg>
