<?xml version="1.0" encoding="UTF-8"?>
<!DOCTYPE svg  PUBLIC '-//W3C//DTD SVG 1.1//EN'  'http://www.w3.org/Graphics/SVG/1.1/DTD/svg11.dtd'>
<svg width="2178.7pt" height="1146.7pt" version="1.1" viewBox="0 0 2178.7 1146.7" xmlns="http://www.w3.org/2000/svg" xmlns:xlink="http://www.w3.org/1999/xlink">
<defs>
<style type="text/css">*{stroke-linecap:butt;stroke-linejoin:round;}</style>
</defs>
<path d="m0 1146.7h2178.7v-1146.7h-2178.7z" fill="#fff"/>
<g fill="none" stroke="#000">
<path d="m342.17 52.121-212.37 524.81" clip-path="url(#a)"/>
<path d="m342.17 52.121-92.638 914.8" clip-path="url(#a)"/>
<path d="m342.17 52.121-59.527 524.81" clip-path="url(#a)"/>
<path d="m342.17 52.121 309.01 131.52" clip-path="url(#a)"/>
<path d="m342.17 52.121-116.72 914.8" clip-path="url(#a)"/>
<path d="m342.17 52.121 172.25 914.8" clip-path="url(#a)"/>
<path d="m129.8 576.93-27.759 260.59" clip-path="url(#a)"/>
<path d="m129.8 576.93-6.689 389.99" clip-path="url(#a)"/>
<path d="m129.8 576.93 5.3512 389.99" clip-path="url(#a)"/>
<path d="m129.8 576.93 45.819 130.52" clip-path="url(#a)"/>
<path d="m129.8 576.93-16.722 389.99" clip-path="url(#a)"/>
<path d="m249.53 966.92v127.62" clip-path="url(#a)"/>
<path d="m282.64 576.93-7.0234 389.99" clip-path="url(#a)"/>
<path d="m282.64 576.93 36.12 260.59" clip-path="url(#a)"/>
<path d="m282.64 576.93 130.44 130.52" clip-path="url(#a)"/>
<path d="m282.64 576.93-159.53 389.99" clip-path="url(#a)" stroke-dasharray="3.7,1.6"/>
<path d="m651.18 183.64-94.622 783.28" clip-path="url(#a)"/>
<path d="m651.18 183.64-50.475 783.28" clip-path="url(#a)"/>
<path d="m651.18 183.64-4.3207 783.28" clip-path="url(#a)"/>
<path d="m651.18 183.64 149.42 131.33" clip-path="url(#a)"/>
<path d="m556.56 966.92v127.62" clip-path="url(#a)"/>
<path d="m600.7 966.92v127.62" clip-path="url(#a)"/>
<path d="m646.86 966.92v127.62" clip-path="url(#a)"/>
<path d="m800.6 314.97-153.74 651.95" clip-path="url(#a)" stroke-dasharray="3.7,1.6"/>
<path d="m800.6 314.97-105.58 651.95" clip-path="url(#a)"/>
<path d="m800.6 314.97-55.41 651.95" clip-path="url(#a)"/>
<path d="m800.6 314.97 23.855 522.55" clip-path="url(#a)"/>
<path d="m800.6 314.97 290.87 131.11" clip-path="url(#a)"/>
<path d="m695.02 966.92v127.62" clip-path="url(#a)"/>
<path d="m745.19 966.92v127.62" clip-path="url(#a)"/>
<path d="m824.45 837.53-27.09 129.4" clip-path="url(#a)"/>
<path d="m824.45 837.53 27.09 129.4" clip-path="url(#a)"/>
<path d="m1091.5 446.09-183.74 520.84" clip-path="url(#a)"/>
<path d="m1091.5 446.09-125.54 520.84" clip-path="url(#a)"/>
<path d="m1091.5 446.09-65.343 520.84" clip-path="url(#a)"/>
<path d="m1091.5 446.09 316.68 130.85" clip-path="url(#a)"/>
<path d="m1091.5 446.09-3.1355 520.84" clip-path="url(#a)"/>
<path d="m1091.5 446.09 61.079 520.84" clip-path="url(#a)"/>
<path d="m907.73 966.92v127.62" clip-path="url(#a)"/>
<path d="m965.92 966.92v127.62" clip-path="url(#a)"/>
<path d="m1026.1 966.92v127.62" clip-path="url(#a)"/>
<path d="m1408.1 576.93-189.38 389.99" clip-path="url(#a)"/>
<path d="m1408.1 576.93-86.037 389.99" clip-path="url(#a)"/>
<path d="m1408.1 576.93 21.321 389.99" clip-path="url(#a)"/>
<path d="m1408.1 576.93 254.1 130.52" clip-path="url(#a)"/>
<path d="m1218.8 966.92v127.62" clip-path="url(#a)"/>
<path d="m1322.1 966.92-35.117 127.62" clip-path="url(#a)"/>
<path d="m1322.1 966.92 35.117 127.62" clip-path="url(#a)"/>
<path d="m1429.5 966.92v127.62" clip-path="url(#a)"/>
<path d="m1662.2 707.45-158.53 259.47" clip-path="url(#a)"/>
<path d="m1662.2 707.45-82.274 259.47" clip-path="url(#a)"/>
<path d="m1662.2 707.45-4.0134 259.47" clip-path="url(#a)"/>
<path d="m1662.2 707.45 244.82 130.08" clip-path="url(#a)"/>
<path d="m1503.7 966.92v127.62" clip-path="url(#a)"/>
<path d="m1580 966.92v127.62" clip-path="url(#a)"/>
<path d="m1658.2 966.92v127.62" clip-path="url(#a)"/>
<path d="m1907.1 837.53-168.56 129.4" clip-path="url(#a)"/>
<path d="m1907.1 837.53-86.288 129.4" clip-path="url(#a)"/>
<path d="m1907.1 837.53-2.0067 129.4" clip-path="url(#a)"/>
<path d="m1907.1 837.53 84.281 129.4" clip-path="url(#a)"/>
<path d="m1907.1 837.53 172.58 129.4" clip-path="url(#a)"/>
<path d="m1738.5 966.92v127.62" clip-path="url(#a)"/>
<path d="m1820.8 966.92v127.62" clip-path="url(#a)"/>
<path d="m1905.1 966.92v127.62" clip-path="url(#a)"/>
<path d="m797.36 966.92v127.62" clip-path="url(#a)"/>
<path d="m851.54 966.92v127.62" clip-path="url(#a)"/>
<path d="m275.62 966.92v127.62" clip-path="url(#a)"/>
<path d="m318.76 837.53-15.05 129.4" clip-path="url(#a)"/>
<path d="m318.76 837.53 15.05 129.4" clip-path="url(#a)"/>
<path d="m413.08 707.45-47.157 259.47" clip-path="url(#a)"/>
<path d="m413.08 707.45 24.08 130.08" clip-path="url(#a)"/>
<path d="m413.08 707.45 23.077 259.47" clip-path="url(#a)"/>
<path d="m365.92 966.92v127.62" clip-path="url(#a)"/>
<path d="m437.16 837.53-37.124 129.4" clip-path="url(#a)"/>
<path d="m437.16 837.53 37.124 129.4" clip-path="url(#a)"/>
<path d="m436.15 966.92v127.62" clip-path="url(#a)"/>
<path d="m400.03 966.92v127.62" clip-path="url(#a)"/>
<path d="m474.28 966.92v127.62" clip-path="url(#a)"/>
<path d="m303.71 966.92v127.62" clip-path="url(#a)"/>
<path d="m333.81 966.92v127.62" clip-path="url(#a)"/>
<path d="m102.04 837.53-3.01 129.4" clip-path="url(#a)"/>
<path d="m102.04 837.53 3.01 129.4" clip-path="url(#a)"/>
<path d="m123.11 966.92v127.62" clip-path="url(#a)"/>
<path d="m135.15 966.92v127.62" clip-path="url(#a)"/>
<path d="m175.62 707.45-26.421 259.47" clip-path="url(#a)"/>
<path d="m175.62 707.45-1.3378 130.08" clip-path="url(#a)"/>
<path d="m175.62 707.45 27.759 259.47" clip-path="url(#a)"/>
<path d="m149.2 966.92v127.62" clip-path="url(#a)"/>
<path d="m174.28 837.53-9.0301 129.4" clip-path="url(#a)"/>
<path d="m174.28 837.53 9.0301 129.4" clip-path="url(#a)"/>
<path d="m203.38 966.92v127.62" clip-path="url(#a)"/>
<path d="m165.25 966.92v127.62" clip-path="url(#a)"/>
<path d="m183.31 966.92v127.62" clip-path="url(#a)"/>
<path d="m99.03 966.92v127.62" clip-path="url(#a)"/>
<path d="m105.05 966.92v127.62" clip-path="url(#a)"/>
<path d="m113.08 966.92v127.62" clip-path="url(#a)"/>
<path d="m225.45 966.92v127.62" clip-path="url(#a)"/>
<path d="m514.42 966.92v127.62" clip-path="url(#a)"/>
<path d="m1088.3 966.92v127.62" clip-path="url(#a)"/>
<path d="m1152.5 966.92v127.62" clip-path="url(#a)"/>
<path d="m1991.3 966.92v127.62" clip-path="url(#a)"/>
<path d="m2079.6 966.92v127.62" clip-path="url(#a)"/>
</g>
<path d="m240.67 319.67 2.2568-5.5769q0.90027-2.2248-1.3245-3.125l-7.1771-2.9043q-2.2248-0.90027-3.125 1.3245l-2.2568 5.5769q-0.90027 2.2248 1.3245 3.125l7.1771 2.9043q2.2248 0.90027 3.125-1.3245z" clip-path="url(#a)" fill="#fff" stroke="#fff"/>
<g clip-path="url(#a)">
<defs>
<path id="al" d="m9.8125 72.906h9.8594v-29.891h35.844v29.891h9.8594v-72.906h-9.8594v34.719h-35.844v-34.719h-9.8594z"/>
</defs>
<g transform="translate(236.9 318.14) rotate(-67.969) scale(.08 -.08)">
<use xlink:href="#al"/>
</g>
</g>
<path d="m301.87 512.37 0.44909-4.4348q0.2418-2.3878-2.146-2.6296l-7.7031-0.78006q-2.3878-0.2418-2.6296 2.146l-0.44909 4.4348q-0.2418 2.3878 2.146 2.6296l7.7031 0.78006q2.3878 0.2418 2.6296-2.146z" clip-path="url(#a)" fill="#fff" stroke="#fff"/>
<g clip-path="url(#a)">
<defs>
<path id="at" d="m9.8125 72.906h9.8594v-64.609h35.5v-8.2969h-45.359z"/>
</defs>
<g transform="translate(297.82 511.96) rotate(-84.218) scale(.08 -.08)">
<use xlink:href="#at"/>
</g>
</g>
<path d="m318.3 318.22 0.67805-5.9779q0.27049-2.3847-2.1142-2.6552l-7.6932-0.87261q-2.3847-0.27049-2.6552 2.1142l-0.67805 5.9779q-0.27049 2.3847 2.1142 2.6552l7.6932 0.8726q2.3847 0.27049 2.6552-2.1142z" clip-path="url(#a)" fill="#fff" stroke="#fff"/>
<g clip-path="url(#a)">
<g transform="translate(314.26 317.77) rotate(-83.529) scale(.08 -.08)">
<use xlink:href="#al"/>
</g>
</g>
<path d="m491.45 122.47 5.5357 2.3561q2.2083 0.9399 3.1482-1.2684l3.0322-7.1241q0.9399-2.2083-1.2684-3.1482l-5.5357-2.3561q-2.2083-0.9399-3.1482 1.2684l-3.0322 7.1241q-0.9399 2.2083 1.2684 3.1482z" clip-path="url(#a)" fill="#fff" stroke="#fff"/>
<g clip-path="url(#a)">
<g transform="translate(493.04 118.73) rotate(23.056) scale(.08 -.08)">
<use xlink:href="#al"/>
</g>
</g>
<path d="m289.66 513.22 0.74102-5.8079q0.30375-2.3807-2.077-2.6844l-7.6802-0.97991q-2.3807-0.30375-2.6844 2.077l-0.74102 5.8079q-0.30375 2.3807 2.077 2.6844l7.6802 0.97991q2.3807 0.30375 2.6844-2.077z" clip-path="url(#a)" fill="#fff" stroke="#fff"/>
<g clip-path="url(#a)">
<defs>
<path id="z" d="m8.6875 72.906h9.9219v-44.297q0-11.719 4.2344-16.875 4.25-5.1406 13.781-5.1406 9.4688 0 13.719 5.1406 4.25 5.1562 4.25 16.875v44.297h9.9062v-45.516q0-14.25-7.0625-21.531-7.0469-7.2812-20.812-7.2812-13.828 0-20.891 7.2812-7.0469 7.2812-7.0469 21.531z"/>
</defs>
<g transform="translate(285.63 512.71) rotate(-82.729) scale(.08 -.08)">
<use xlink:href="#z"/>
</g>
</g>
<path d="m421.59 507.81 1.0834 5.7539q0.44409 2.3586 2.8026 1.9145l7.6088-1.4326q2.3586-0.44409 1.9145-2.8026l-1.0834-5.7539q-0.44409-2.3586-2.8026-1.9145l-7.6088 1.4326q-2.3586 0.44409-1.9145 2.8026z" clip-path="url(#a)" fill="#fff" stroke="#fff"/>
<g clip-path="url(#a)">
<g transform="translate(425.58 507.05) rotate(79.337) scale(.08 -.08)">
<use xlink:href="#z"/>
</g>
</g>
<path d="m121.9 710.32 0.51757-4.8588q0.25422-2.3865-2.1323-2.6407l-7.6989-0.82012q-2.3865-0.25422-2.6407 2.1323l-0.51757 4.8588q-0.25422 2.3865 2.1323 2.6407l7.6989 0.82012q2.3865 0.25422 2.6407-2.1323z" clip-path="url(#a)" fill="#fff" stroke="#fff"/>
<g clip-path="url(#a)">
<defs>
<path id="l" d="m-0.29688 72.906h61.672v-8.3125h-25.875v-64.594h-9.9062v64.594h-25.891z"/>
</defs>
<g transform="translate(117.86 709.89) rotate(-83.92) scale(.08 -.08)">
<use xlink:href="#l"/>
</g>
</g>
<path d="m132.68 774.77 0.093848-5.4717q0.041158-2.3996-2.3585-2.4408l-7.7414-0.13278q-2.3996-0.041158-2.4408 2.3585l-0.093849 5.4717q-0.041158 2.3996 2.3585 2.4408l7.7414 0.13278q2.3996 0.041158 2.4408-2.3585z" clip-path="url(#a)" fill="#fff" stroke="#fff"/>
<g clip-path="url(#a)">
<defs>
<path id="s" d="m34.188 63.188-13.391-36.281h26.812zm-5.5781 9.7188h11.188l27.781-72.906h-10.25l-6.6406 18.703h-32.859l-6.6406-18.703h-10.406z"/>
</defs>
<g transform="translate(128.62 774.7) rotate(-89.017) scale(.08 -.08)">
<use xlink:href="#s"/>
</g>
</g>
<path d="m126.17 769.6 0.066182 4.8233q0.032928 2.3998 2.4327 2.3668l7.7418-0.10623q2.3998-0.032928 2.3668-2.4327l-0.066182-4.8233q-0.032928-2.3998-2.4327-2.3668l-7.7418 0.10623q-2.3998 0.032928-2.3668 2.4327z" clip-path="url(#a)" fill="#fff" stroke="#fff"/>
<g clip-path="url(#a)">
<defs>
<path id="ab" d="m19.672 64.797v-27.391h12.406q6.8906 0 10.641 3.5625 3.7656 3.5625 3.7656 10.156 0 6.5469-3.7656 10.109-3.75 3.5625-10.641 3.5625zm-9.8594 8.1094h22.266q12.266 0 18.531-5.5469 6.2812-5.5469 6.2812-16.234 0-10.797-6.2812-16.312-6.2656-5.5156-18.531-5.5156h-12.406v-29.297h-9.8594z"/>
</defs>
<g transform="translate(130.23 769.55) rotate(89.214) scale(.08 -.08)">
<use xlink:href="#ab"/>
</g>
</g>
<path d="m145.89 641.69 1.8127 5.1636q0.79498 2.2645 3.0595 1.4695l7.3054-2.5646q2.2645-0.79498 1.4695-3.0595l-1.8127-5.1636q-0.79498-2.2645-3.0595-1.4695l-7.3054 2.5646q-2.2645 0.79498-1.4695 3.0595z" clip-path="url(#a)" fill="#fff" stroke="#fff"/>
<g clip-path="url(#a)">
<g transform="translate(149.72 640.34) rotate(70.656) scale(.08 -.08)">
<use xlink:href="#s"/>
</g>
</g>
<path d="m127.58 775.12 0.25083-5.8496q0.10282-2.3978-2.295-2.5006l-7.7354-0.33169q-2.3978-0.10282-2.5006 2.295l-0.25083 5.8496q-0.10282 2.3978 2.295 2.5006l7.7354 0.33169q2.3978 0.10282 2.5006-2.295z" clip-path="url(#a)" fill="#fff" stroke="#fff"/>
<g clip-path="url(#a)">
<g transform="translate(123.52 774.95) rotate(-87.545) scale(.08 -.08)">
<use xlink:href="#z"/>
</g>
</g>
<path d="m243.26 1013.8v33.808q0 2.4 2.4 2.4h7.7425q2.4 0 2.4-2.4v-33.808q0-2.4-2.4-2.4h-7.7425q-2.4 0-2.4 2.4z" clip-path="url(#a)" fill="#fff" stroke="#fff"/>
<g clip-path="url(#a)">
<defs>
<path id="d" d="m56.203 29.594v-4.3906h-41.312q0.59375-9.2812 5.5938-14.141t13.938-4.8594q5.1719 0 10.031 1.2656t9.6562 3.8125v-8.5q-4.8438-2.0469-9.9219-3.125t-10.297-1.0781q-13.094 0-20.734 7.6094-7.6406 7.625-7.6406 20.625 0 13.422 7.25 21.297 7.25 7.8906 19.562 7.8906 11.031 0 17.453-7.1094 6.4219-7.0938 6.4219-19.297zm-8.9844 2.6406q-0.09375 7.3594-4.125 11.75-4.0312 4.4062-10.672 4.4062-7.5156 0-12.031-4.25t-5.2031-11.969z"/>
<path id="h" d="m41.109 46.297q-1.5156 0.875-3.2969 1.2812-1.7812 0.42188-3.9219 0.42188-7.625 0-11.703-4.9531t-4.0781-14.234v-28.812h-9.0312v54.688h9.0312v-8.5q2.8438 4.9844 7.375 7.3906 4.5469 2.4219 11.047 2.4219 0.92188 0 2.0469-0.125 1.125-0.10938 2.4844-0.35938z"/>
<path id="k" d="m52 44.188q3.375 6.0625 8.0625 8.9375t11.031 2.875q8.5469 0 13.188-5.9844 4.6406-5.9688 4.6406-17v-33.016h-9.0312v32.719q0 7.8594-2.7969 11.656-2.7812 3.8125-8.4844 3.8125-6.9844 0-11.047-4.6406-4.0469-4.625-4.0469-12.641v-30.906h-9.0312v32.719q0 7.9062-2.7812 11.688t-8.5938 3.7812q-6.8906 0-10.953-4.6562-4.0469-4.6562-4.0469-12.625v-30.906h-9.0312v54.688h9.0312v-8.5q3.0781 5.0312 7.375 7.4219t10.203 2.3906q5.9688 0 10.141-3.0312 4.1719-3.0156 6.1719-8.7812z"/>
<path id="i" d="m9.4219 54.688h8.9844v-54.688h-8.9844zm0 21.297h8.9844v-11.391h-8.9844z"/>
<path id="f" d="m54.891 33.016v-33.016h-8.9844v32.719q0 7.7656-3.0312 11.609-3.0312 3.8594-9.0781 3.8594-7.2812 0-11.484-4.6406-4.2031-4.625-4.2031-12.641v-30.906h-9.0312v54.688h9.0312v-8.5q3.2344 4.9375 7.5938 7.375 4.375 2.4375 10.094 2.4375 9.4219 0 14.25-5.8281 4.8438-5.8281 4.8438-17.156z"/>
<path id="g" d="m34.281 27.484q-10.891 0-15.094-2.4844t-4.2031-8.5q0-4.7812 3.1562-7.5938 3.1562-2.7969 8.5625-2.7969 7.4844 0 12 5.2969t4.5156 14.078v2zm17.922 3.7188v-31.203h-8.9844v8.2969q-3.0781-4.9688-7.6719-7.3438t-11.234-2.375q-8.3906 0-13.359 4.7188-4.9531 4.7188-4.9531 12.625 0 9.2188 6.1719 13.906 6.1875 4.6875 18.438 4.6875h12.609v0.89062q0 6.2031-4.0781 9.5938t-11.453 3.3906q-4.6875 0-9.1406-1.125-4.4375-1.125-8.5312-3.375v8.3125q4.9219 1.9062 9.5625 2.8438 4.6406 0.95312 9.0312 0.95312 11.875 0 17.734-6.1562 5.8594-6.1406 5.8594-18.641z"/>
<path id="j" d="m9.4219 75.984h8.9844v-75.984h-8.9844z"/>
</defs>
<g transform="translate(247.32 1013.8) rotate(90) scale(.08 -.08)">
<use xlink:href="#l"/>
<use x="44.083984" xlink:href="#d"/>
<use x="105.607422" xlink:href="#h"/>
<use x="144.970703" xlink:href="#k"/>
<use x="242.382812" xlink:href="#i"/>
<use x="270.166016" xlink:href="#f"/>
<use x="333.544922" xlink:href="#g"/>
<use x="394.824219" xlink:href="#j"/>
</g>
</g>
<path d="m285.36 774.45 0.086858-4.823q0.043215-2.3996-2.3564-2.4428l-7.7412-0.13941q-2.3996-0.043215-2.4428 2.3564l-0.086858 4.823q-0.043215 2.3996 2.3564 2.4428l7.7412 0.13941q2.3996 0.043215 2.4428-2.3564z" clip-path="url(#a)" fill="#fff" stroke="#fff"/>
<g clip-path="url(#a)">
<g transform="translate(281.29 774.38) rotate(-88.968) scale(.08 -.08)">
<use xlink:href="#ab"/>
</g>
</g>
<path d="m294.12 705.38 0.75135 5.4207q0.32951 2.3773 2.7068 2.0478l7.6692-1.063q2.3773-0.32951 2.0478-2.7068l-0.75135-5.4207q-0.32951-2.3773-2.7068-2.0478l-7.6692 1.063q-2.3773 0.32951-2.0478 2.7068z" clip-path="url(#a)" fill="#fff" stroke="#fff"/>
<g clip-path="url(#a)">
<g transform="translate(298.14 704.82) rotate(82.109) scale(.08 -.08)">
<use xlink:href="#s"/>
</g>
</g>
<path d="m341.49 644.69 3.8684 3.8709q1.6965 1.6976 3.3941 0.001081l5.4765-5.473q1.6976-1.6965 0.001081-3.3941l-3.8684-3.8709q-1.6965-1.6976-3.3941-0.001081l-5.4765 5.473q-1.6976 1.6965-0.001081 3.3941z" clip-path="url(#a)" fill="#fff" stroke="#fff"/>
<g clip-path="url(#a)">
<g transform="translate(344.36 641.82) rotate(45.018) scale(.08 -.08)">
<use xlink:href="#s"/>
</g>
</g>
<path d="m207.65 776.84 2.072-5.0651q0.90867-2.2213-1.3127-3.13l-7.1661-2.9314q-2.2213-0.90867-3.13 1.3127l-2.072 5.0651q-0.90867 2.2213 1.3127 3.13l7.1661 2.9314q2.2213 0.90867 3.13-1.3127z" clip-path="url(#a)" fill="#fff" stroke="#fff"/>
<g clip-path="url(#a)">
<g transform="translate(203.88 775.3) rotate(-67.752) scale(.08 -.08)">
<use xlink:href="#s"/>
</g>
</g>
<path d="m609.77 578.75 0.65632-5.433q0.28783-2.3827-2.0948-2.6705l-7.6866-0.92856q-2.3827-0.28783-2.6705 2.0948l-0.65632 5.433q-0.28783 2.3827 2.0948 2.6705l7.6866 0.92856q2.3827 0.28783 2.6705-2.0948z" clip-path="url(#a)" fill="#fff" stroke="#fff"/>
<g clip-path="url(#a)">
<g transform="translate(605.73 578.26) rotate(-83.112) scale(.08 -.08)">
<use xlink:href="#s"/>
</g>
</g>
<path d="m632.04 578.09 0.3102-4.8138q0.15434-2.395-2.2407-2.5494l-7.7265-0.49789q-2.395-0.15434-2.5494 2.2407l-0.3102 4.8138q-0.15434 2.395 2.2407 2.5494l7.7265 0.49789q2.395 0.15434 2.5494-2.2407z" clip-path="url(#a)" fill="#fff" stroke="#fff"/>
<g clip-path="url(#a)">
<g transform="translate(627.99 577.83) rotate(-86.313) scale(.08 -.08)">
<use xlink:href="#ab"/>
</g>
</g>
<path d="m655.27 578.05 0.030187-5.4724q0.013238-2.4-2.3867-2.4132l-7.7424-0.042708q-2.4-0.013238-2.4132 2.3867l-0.030186 5.4724q-0.013238 2.4 2.3867 2.4132l7.7424 0.042708q2.4 0.013238 2.4132-2.3867z" clip-path="url(#a)" fill="#fff" stroke="#fff"/>
<g clip-path="url(#a)">
<g transform="translate(651.21 578.03) rotate(-89.684) scale(.08 -.08)">
<use xlink:href="#s"/>
</g>
</g>
<path d="m719.69 252.21 4.1104 3.6129q1.8026 1.5845 3.3871-0.21819l5.1115-5.8154q1.5845-1.8026-0.21819-3.3871l-4.1104-3.6129q-1.8026-1.5845-3.3871 0.21819l-5.1115 5.8154q-1.5845 1.8026 0.21819 3.3871z" clip-path="url(#a)" fill="#fff" stroke="#fff"/>
<g clip-path="url(#a)">
<g transform="translate(722.37 249.16) rotate(41.314) scale(.08 -.08)">
<use xlink:href="#s"/>
</g>
</g>
<path d="m550.29 1013.8v33.808q0 2.4 2.4 2.4h7.7425q2.4 0 2.4-2.4v-33.808q0-2.4-2.4-2.4h-7.7425q-2.4 0-2.4 2.4z" clip-path="url(#a)" fill="#fff" stroke="#fff"/>
<g clip-path="url(#a)">
<g transform="translate(554.35 1013.8) rotate(90) scale(.08 -.08)">
<use xlink:href="#l"/>
<use x="44.083984" xlink:href="#d"/>
<use x="105.607422" xlink:href="#h"/>
<use x="144.970703" xlink:href="#k"/>
<use x="242.382812" xlink:href="#i"/>
<use x="270.166016" xlink:href="#f"/>
<use x="333.544922" xlink:href="#g"/>
<use x="394.824219" xlink:href="#j"/>
</g>
</g>
<path d="m594.43 1013.8v33.808q0 2.4 2.4 2.4h7.7425q2.4 0 2.4-2.4v-33.808q0-2.4-2.4-2.4h-7.7425q-2.4 0-2.4 2.4z" clip-path="url(#a)" fill="#fff" stroke="#fff"/>
<g clip-path="url(#a)">
<g transform="translate(598.5 1013.8) rotate(90) scale(.08 -.08)">
<use xlink:href="#l"/>
<use x="44.083984" xlink:href="#d"/>
<use x="105.607422" xlink:href="#h"/>
<use x="144.970703" xlink:href="#k"/>
<use x="242.382812" xlink:href="#i"/>
<use x="270.166016" xlink:href="#f"/>
<use x="333.544922" xlink:href="#g"/>
<use x="394.824219" xlink:href="#j"/>
</g>
</g>
<path d="m640.59 1013.8v33.808q0 2.4 2.4 2.4h7.7425q2.4 0 2.4-2.4v-33.808q0-2.4-2.4-2.4h-7.7425q-2.4 0-2.4 2.4z" clip-path="url(#a)" fill="#fff" stroke="#fff"/>
<g clip-path="url(#a)">
<g transform="translate(644.65 1013.8) rotate(90) scale(.08 -.08)">
<use xlink:href="#l"/>
<use x="44.083984" xlink:href="#d"/>
<use x="105.607422" xlink:href="#h"/>
<use x="144.970703" xlink:href="#k"/>
<use x="242.382812" xlink:href="#i"/>
<use x="270.166016" xlink:href="#f"/>
<use x="333.544922" xlink:href="#g"/>
<use x="394.824219" xlink:href="#j"/>
</g>
</g>
<path d="m729.2 645.05 1.256-5.3264q0.55084-2.3359-1.7851-2.8868l-7.5358-1.777q-2.3359-0.55084-2.8868 1.7851l-1.256 5.3264q-0.55084 2.3359 1.7851 2.8868l7.5358 1.777q2.3359 0.55084 2.8868-1.7851z" clip-path="url(#a)" fill="#fff" stroke="#fff"/>
<g clip-path="url(#a)">
<g transform="translate(725.25 644.12) rotate(-76.731) scale(.08 -.08)">
<use xlink:href="#s"/>
</g>
</g>
<path d="m753.55 644.69 0.88861-5.4873q0.38366-2.3691-1.9855-2.7528l-7.6429-1.2377q-2.3691-0.38366-2.7528 1.9855l-0.88861 5.4873q-0.38366 2.3691 1.9855 2.7528l7.6429 1.2377q2.3691 0.38366 2.7528-1.9855z" clip-path="url(#a)" fill="#fff" stroke="#fff"/>
<g clip-path="url(#a)">
<defs>
<path id="aa" d="m44.391 34.188q3.1719-1.0781 6.1719-4.5938t6.0312-9.6719l10.016-19.922h-10.609l-9.3125 18.703q-3.625 7.3281-7.0156 9.7188t-9.25 2.3906h-10.75v-30.812h-9.8594v72.906h22.266q12.5 0 18.656-5.2344 6.1562-5.2188 6.1562-15.766 0-6.8906-3.2031-11.438-3.2031-4.5312-9.2969-6.2812zm-24.719 30.609v-25.875h12.406q7.125 0 10.766 3.2969t3.6406 9.6875-3.6406 9.6406-10.766 3.25z"/>
</defs>
<g transform="translate(749.54 644.05) rotate(-80.801) scale(.08 -.08)">
<use xlink:href="#aa"/>
</g>
</g>
<path d="m778.93 643.88 0.4085-4.8064q0.20324-2.3914-2.1881-2.5946l-7.7147-0.65568q-2.3914-0.20324-2.5946 2.1881l-0.4085 4.8064q-0.20324 2.3914 2.1881 2.5946l7.7147 0.65568q2.3914 0.20324 2.5946-2.1881z" clip-path="url(#a)" fill="#fff" stroke="#fff"/>
<g clip-path="url(#a)">
<g transform="translate(774.89 643.54) rotate(-85.142) scale(.08 -.08)">
<use xlink:href="#ab"/>
</g>
</g>
<path d="m806.13 573.8 0.24956 5.4668q0.10945 2.3975 2.5069 2.2881l7.7344-0.35308q2.3975-0.10945 2.2881-2.5069l-0.24956-5.4668q-0.10945-2.3975-2.5069-2.2881l-7.7344 0.35308q-2.3975 0.10945-2.2881 2.5069z" clip-path="url(#a)" fill="#fff" stroke="#fff"/>
<g clip-path="url(#a)">
<g transform="translate(810.19 573.62) rotate(87.386) scale(.08 -.08)">
<use xlink:href="#s"/>
</g>
</g>
<path d="m940.96 385.12 4.9891 2.2489q2.188 0.98625 3.1742-1.2017l3.1817-7.0585q0.98625-2.188-1.2017-3.1742l-4.9891-2.2489q-2.188-0.98626-3.1742 1.2017l-3.1817 7.0585q-0.98625 2.188 1.2017 3.1742z" clip-path="url(#a)" fill="#fff" stroke="#fff"/>
<g clip-path="url(#a)">
<g transform="translate(942.63 381.42) rotate(24.264) scale(.08 -.08)">
<use xlink:href="#s"/>
</g>
</g>
<path d="m688.75 1013.8v33.808q0 2.4 2.4 2.4h7.7425q2.4 0 2.4-2.4v-33.808q0-2.4-2.4-2.4h-7.7425q-2.4 0-2.4 2.4z" clip-path="url(#a)" fill="#fff" stroke="#fff"/>
<g clip-path="url(#a)">
<g transform="translate(692.81 1013.8) rotate(90) scale(.08 -.08)">
<use xlink:href="#l"/>
<use x="44.083984" xlink:href="#d"/>
<use x="105.607422" xlink:href="#h"/>
<use x="144.970703" xlink:href="#k"/>
<use x="242.382812" xlink:href="#i"/>
<use x="270.166016" xlink:href="#f"/>
<use x="333.544922" xlink:href="#g"/>
<use x="394.824219" xlink:href="#j"/>
</g>
</g>
<path d="m738.91 1013.8v33.808q0 2.4 2.4 2.4h7.7425q2.4 0 2.4-2.4v-33.808q0-2.4-2.4-2.4h-7.7425q-2.4 0-2.4 2.4z" clip-path="url(#a)" fill="#fff" stroke="#fff"/>
<g clip-path="url(#a)">
<g transform="translate(742.98 1013.8) rotate(90) scale(.08 -.08)">
<use xlink:href="#l"/>
<use x="44.083984" xlink:href="#d"/>
<use x="105.607422" xlink:href="#h"/>
<use x="144.970703" xlink:href="#k"/>
<use x="242.382812" xlink:href="#i"/>
<use x="270.166016" xlink:href="#f"/>
<use x="333.544922" xlink:href="#g"/>
<use x="394.824219" xlink:href="#j"/>
</g>
</g>
<path d="m816.52 905.98 1.0358-4.9477q0.4918-2.3491-1.8573-2.8409l-7.5782-1.5866q-2.3491-0.4918-2.8409 1.8573l-1.0359 4.9477q-0.4918 2.3491 1.8573 2.8409l7.5782 1.5866q2.3491 0.4918 2.8409-1.8573z" clip-path="url(#a)" fill="#fff" stroke="#fff"/>
<g clip-path="url(#a)">
<defs>
<path id="t" d="m9.8125 72.906h46.094v-8.3125h-36.234v-21.578h34.719v-8.2969h-34.719v-26.422h37.109v-8.2969h-46.969z"/>
</defs>
<g transform="translate(812.55 905.15) rotate(-78.175) scale(.08 -.08)">
<use xlink:href="#t"/>
</g>
</g>
<path d="m831.28 900.78 1.1447 5.4677q0.4918 2.3491 2.8409 1.8573l7.5782-1.5866q2.3491-0.4918 1.8573-2.8409l-1.1447-5.4677q-0.4918-2.3491-2.8409-1.8573l-7.5782 1.5866q-2.3491 0.4918-1.8573 2.8409z" clip-path="url(#a)" fill="#fff" stroke="#fff"/>
<g clip-path="url(#a)">
<defs>
<path id="r" d="m64.406 67.281v-10.391q-4.9844 4.6406-10.625 6.9219-5.6406 2.2969-11.984 2.2969-12.5 0-19.141-7.6406t-6.6406-22.094q0-14.406 6.6406-22.047t19.141-7.6406q6.3438 0 11.984 2.2969t10.625 6.9375v-10.312q-5.1719-3.5156-10.969-5.2812-5.7812-1.75-12.219-1.75-16.562 0-26.094 10.125-9.5156 10.141-9.5156 27.672 0 17.578 9.5156 27.703 9.5312 10.141 26.094 10.141 6.5312 0 12.312-1.7344 5.7969-1.7344 10.875-5.2031z"/>
</defs>
<g transform="translate(835.26 899.94) rotate(78.175) scale(.08 -.08)">
<use xlink:href="#r"/>
</g>
</g>
<path d="m1004.6 711.21 1.8493-5.2421q0.79843-2.2633-1.4649-3.0617l-7.3015-2.5758q-2.2633-0.79843-3.0617 1.4649l-1.8493 5.2421q-0.79843 2.2633 1.4649 3.0617l7.3015 2.5758q2.2633 0.79843 3.0617-1.4649z" clip-path="url(#a)" fill="#fff" stroke="#fff"/>
<g clip-path="url(#a)">
<g transform="translate(1000.8 709.86) rotate(-70.569) scale(.08 -.08)">
<use xlink:href="#aa"/>
</g>
</g>
<path d="m1034.2 710.43 1.1845-4.9143q0.56239-2.3332-1.7708-2.8956l-7.5269-1.8143q-2.3332-0.56239-2.8956 1.7708l-1.1845 4.9143q-0.56239 2.3332 1.7708 2.8956l7.5269 1.8143q2.3332 0.56239 2.8956-1.7708z" clip-path="url(#a)" fill="#fff" stroke="#fff"/>
<g clip-path="url(#a)">
<g transform="translate(1030.2 709.48) rotate(-76.448) scale(.08 -.08)">
<use xlink:href="#t"/>
</g>
</g>
<path d="m1064.7 710.06 0.69538-5.5428q0.29876-2.3813-2.0826-2.6801l-7.6823-0.9638q-2.3813-0.29876-2.6801 2.0826l-0.69538 5.5428q-0.29876 2.3813 2.0826 2.6801l7.6823 0.9638q2.3813 0.29876 2.6801-2.0826z" clip-path="url(#a)" fill="#fff" stroke="#fff"/>
<g clip-path="url(#a)">
<g transform="translate(1060.6 709.55) rotate(-82.849) scale(.08 -.08)">
<use xlink:href="#r"/>
</g>
</g>
<path d="m1245.1 516.34 4.6719 1.9304q2.2181 0.9165 3.1346-1.3016l2.9567-7.1557q0.9165-2.2181-1.3016-3.1346l-4.6719-1.9304q-2.2181-0.9165-3.1346 1.3016l-2.9567 7.1557q-0.9165 2.2181 1.3016 3.1346z" clip-path="url(#a)" fill="#fff" stroke="#fff"/>
<g clip-path="url(#a)">
<g transform="translate(1246.6 512.58) rotate(22.45) scale(.08 -.08)">
<use xlink:href="#t"/>
</g>
</g>
<path d="m1096.2 709.47 0.035246-5.8549q0.014448-2.4-2.3855-2.4144l-7.7424-0.04661q-2.4-0.014447-2.4144 2.3855l-0.035247 5.8549q-0.014448 2.4 2.3855 2.4144l7.7424 0.046609q2.4 0.014448 2.4144-2.3855z" clip-path="url(#a)" fill="#fff" stroke="#fff"/>
<g clip-path="url(#a)">
<g transform="translate(1092.1 709.45) rotate(-89.655) scale(.08 -.08)">
<use xlink:href="#z"/>
</g>
</g>
<path d="m1115.4 704.33 0.68194 5.8152q0.27953 2.3837 2.6632 2.1041l7.6898-0.90178q2.3837-0.27953 2.1041-2.6632l-0.68194-5.8152q-0.27953-2.3837-2.6632-2.1041l-7.6898 0.90178q-2.3837 0.27953-2.1041 2.6632z" clip-path="url(#a)" fill="#fff" stroke="#fff"/>
<g clip-path="url(#a)">
<g transform="translate(1119.5 703.85) rotate(83.311) scale(.08 -.08)">
<use xlink:href="#z"/>
</g>
</g>
<path d="m901.46 1013.8v33.808q0 2.4 2.4 2.4h7.7425q2.4 0 2.4-2.4v-33.808q0-2.4-2.4-2.4h-7.7425q-2.4 0-2.4 2.4z" clip-path="url(#a)" fill="#fff" stroke="#fff"/>
<g clip-path="url(#a)">
<g transform="translate(905.52 1013.8) rotate(90) scale(.08 -.08)">
<use xlink:href="#l"/>
<use x="44.083984" xlink:href="#d"/>
<use x="105.607422" xlink:href="#h"/>
<use x="144.970703" xlink:href="#k"/>
<use x="242.382812" xlink:href="#i"/>
<use x="270.166016" xlink:href="#f"/>
<use x="333.544922" xlink:href="#g"/>
<use x="394.824219" xlink:href="#j"/>
</g>
</g>
<path d="m959.65 1013.8v33.808q0 2.4 2.4 2.4h7.7425q2.4 0 2.4-2.4v-33.808q0-2.4-2.4-2.4h-7.7425q-2.4 0-2.4 2.4z" clip-path="url(#a)" fill="#fff" stroke="#fff"/>
<g clip-path="url(#a)">
<g transform="translate(963.71 1013.8) rotate(90) scale(.08 -.08)">
<use xlink:href="#l"/>
<use x="44.083984" xlink:href="#d"/>
<use x="105.607422" xlink:href="#h"/>
<use x="144.970703" xlink:href="#k"/>
<use x="242.382812" xlink:href="#i"/>
<use x="270.166016" xlink:href="#f"/>
<use x="333.544922" xlink:href="#g"/>
<use x="394.824219" xlink:href="#j"/>
</g>
</g>
<path d="m1019.9 1013.8v33.808q0 2.4 2.4 2.4h7.7425q2.4 0 2.4-2.4v-33.808q0-2.4-2.4-2.4h-7.7425q-2.4 0-2.4 2.4z" clip-path="url(#a)" fill="#fff" stroke="#fff"/>
<g clip-path="url(#a)">
<g transform="translate(1023.9 1013.8) rotate(90) scale(.08 -.08)">
<use xlink:href="#l"/>
<use x="44.083984" xlink:href="#d"/>
<use x="105.607422" xlink:href="#h"/>
<use x="144.970703" xlink:href="#k"/>
<use x="242.382812" xlink:href="#i"/>
<use x="270.166016" xlink:href="#f"/>
<use x="333.544922" xlink:href="#g"/>
<use x="394.824219" xlink:href="#j"/>
</g>
</g>
<path d="m1317.9 777.17 2.4282-5.0004q1.0484-2.1589-1.1105-3.2073l-6.9647-3.3821q-2.1589-1.0484-3.2073 1.1105l-2.4282 5.0004q-1.0484 2.1589 1.1105 3.2073l6.9647 3.3821q2.1589 1.0484 3.2073-1.1105z" clip-path="url(#a)" fill="#fff" stroke="#fff"/>
<g clip-path="url(#a)">
<g transform="translate(1314.2 775.39) rotate(-64.099) scale(.08 -.08)">
<use xlink:href="#aa"/>
</g>
</g>
<path d="m1370.7 776.01 1.2035-5.4551q0.51704-2.3436-1.8266-2.8607l-7.5607-1.668q-2.3436-0.51704-2.8607 1.8266l-1.2035 5.4551q-0.51704 2.3436 1.8266 2.8607l7.5607 1.668q2.3436 0.51704 2.8607-1.8266z" clip-path="url(#a)" fill="#fff" stroke="#fff"/>
<g clip-path="url(#a)">
<g transform="translate(1366.7 775.13) rotate(-77.559) scale(.08 -.08)">
<use xlink:href="#r"/>
</g>
</g>
<path d="m1412.4 769.28 0.32672 5.9761q0.13101 2.3964 2.5274 2.2654l7.731-0.42266q2.3964-0.13101 2.2654-2.5274l-0.32672-5.9761q-0.13101-2.3964-2.5274-2.2654l-7.731 0.42266q-2.3964 0.13101-2.2654 2.5274z" clip-path="url(#a)" fill="#fff" stroke="#fff"/>
<g clip-path="url(#a)">
<defs>
<path id="aj" d="m9.8125 72.906h13.281l32.328-60.984v60.984h9.5625v-72.906h-13.281l-32.312 60.984v-60.984h-9.5781z"/>
</defs>
<g transform="translate(1416.4 769.06) rotate(86.871) scale(.08 -.08)">
<use xlink:href="#aj"/>
</g>
</g>
<path d="m1529.8 646.49 4.9691 2.5524q2.1348 1.0966 3.2314-1.0383l3.5376-6.8871q1.0966-2.1348-1.0383-3.2314l-4.9691-2.5524q-2.1348-1.0966-3.2314 1.0383l-3.5376 6.8871q-1.0966 2.1348 1.0383 3.2314z" clip-path="url(#a)" fill="#fff" stroke="#fff"/>
<g clip-path="url(#a)">
<g transform="translate(1531.7 642.88) rotate(27.187) scale(.08 -.08)">
<use xlink:href="#r"/>
</g>
</g>
<path d="m1212.5 1013.8v33.808q0 2.4 2.4 2.4h7.7425q2.4 0 2.4-2.4v-33.808q0-2.4-2.4-2.4h-7.7425q-2.4 0-2.4 2.4z" clip-path="url(#a)" fill="#fff" stroke="#fff"/>
<g clip-path="url(#a)">
<g transform="translate(1216.6 1013.8) rotate(90) scale(.08 -.08)">
<use xlink:href="#l"/>
<use x="44.083984" xlink:href="#d"/>
<use x="105.607422" xlink:href="#h"/>
<use x="144.970703" xlink:href="#k"/>
<use x="242.382812" xlink:href="#i"/>
<use x="270.166016" xlink:href="#f"/>
<use x="333.544922" xlink:href="#g"/>
<use x="394.824219" xlink:href="#j"/>
</g>
</g>
<path d="m1306.1 1048.7 8.9693-32.596q0.63673-2.314-1.6773-2.9507l-7.465-2.0541q-2.314-0.63673-2.9507 1.6773l-8.9693 32.596q-0.63673 2.314 1.6773 2.9507l7.465 2.0541q2.314 0.63673 2.9507-1.6773z" clip-path="url(#a)" fill="#fff" stroke="#fff"/>
<g clip-path="url(#a)">
<g transform="translate(1302.2 1047.6) rotate(-74.615) scale(.08 -.08)">
<use xlink:href="#l"/>
<use x="44.083984" xlink:href="#d"/>
<use x="105.607422" xlink:href="#h"/>
<use x="144.970703" xlink:href="#k"/>
<use x="242.382812" xlink:href="#i"/>
<use x="270.166016" xlink:href="#f"/>
<use x="333.544922" xlink:href="#g"/>
<use x="394.824219" xlink:href="#j"/>
</g>
</g>
<path d="m1329.1 1016.1 8.9693 32.596q0.63673 2.314 2.9507 1.6773l7.465-2.0541q2.314-0.63673 1.6773-2.9507l-8.9693-32.596q-0.63673-2.314-2.9507-1.6773l-7.465 2.0541q-2.314 0.63673-1.6773 2.9507z" clip-path="url(#a)" fill="#fff" stroke="#fff"/>
<g clip-path="url(#a)">
<g transform="translate(1333.1 1015) rotate(74.615) scale(.08 -.08)">
<use xlink:href="#l"/>
<use x="44.083984" xlink:href="#d"/>
<use x="105.607422" xlink:href="#h"/>
<use x="144.970703" xlink:href="#k"/>
<use x="242.382812" xlink:href="#i"/>
<use x="270.166016" xlink:href="#f"/>
<use x="333.544922" xlink:href="#g"/>
<use x="394.824219" xlink:href="#j"/>
</g>
</g>
<path d="m1423.2 1013.8v33.808q0 2.4 2.4 2.4h7.7425q2.4 0 2.4-2.4v-33.808q0-2.4-2.4-2.4h-7.7425q-2.4 0-2.4 2.4z" clip-path="url(#a)" fill="#fff" stroke="#fff"/>
<g clip-path="url(#a)">
<g transform="translate(1427.3 1013.8) rotate(90) scale(.08 -.08)">
<use xlink:href="#l"/>
<use x="44.083984" xlink:href="#d"/>
<use x="105.607422" xlink:href="#h"/>
<use x="144.970703" xlink:href="#k"/>
<use x="242.382812" xlink:href="#i"/>
<use x="270.166016" xlink:href="#f"/>
<use x="333.544922" xlink:href="#g"/>
<use x="394.824219" xlink:href="#j"/>
</g>
</g>
<path d="m1587 842.61 2.6355-4.3136q1.2513-2.048-0.79674-3.2993l-6.607-4.0366q-2.048-1.2513-3.2993 0.79674l-2.6355 4.3136q-1.2513 2.048 0.79674 3.2993l6.607 4.0366q2.048 1.2513 3.2993-0.79674z" clip-path="url(#a)" fill="#fff" stroke="#fff"/>
<g clip-path="url(#a)">
<g transform="translate(1583.5 840.5) rotate(-58.576) scale(.08 -.08)">
<use xlink:href="#t"/>
</g>
</g>
<path d="m1626.2 841.73 1.6801-5.2988q0.72541-2.2877-1.5623-3.0132l-7.3804-2.3402q-2.2877-0.72541-3.0132 1.5623l-1.6801 5.2988q-0.72541 2.2877 1.5623 3.0132l7.3804 2.3402q2.2877 0.72541 3.0132-1.5623z" clip-path="url(#a)" fill="#fff" stroke="#fff"/>
<g clip-path="url(#a)">
<g transform="translate(1622.4 840.5) rotate(-72.407) scale(.08 -.08)">
<use xlink:href="#aa"/>
</g>
</g>
<path d="m1666.5 840.08 0.086395-5.5856q0.037118-2.3997-2.3626-2.4368l-7.7416-0.11974q-2.3997-0.037118-2.4368 2.3626l-0.086395 5.5856q-0.037117 2.3997 2.3626 2.4368l7.7416 0.11974q2.3997 0.037118 2.4368-2.3626z" clip-path="url(#a)" fill="#fff" stroke="#fff"/>
<g clip-path="url(#a)">
<g transform="translate(1662.4 840.01) rotate(-89.114) scale(.08 -.08)">
<use xlink:href="#r"/>
</g>
</g>
<path d="m1779.5 776.84 4.464 2.3718q2.1194 1.1261 3.2455-0.99333l3.6328-6.8373q1.1261-2.1194-0.99333-3.2455l-4.464-2.3718q-2.1194-1.1261-3.2455 0.99333l-3.6328 6.8373q-1.1261 2.1194 0.99333 3.2455z" clip-path="url(#a)" fill="#fff" stroke="#fff"/>
<g clip-path="url(#a)">
<g transform="translate(1781.4 773.25) rotate(27.983) scale(.08 -.08)">
<use xlink:href="#t"/>
</g>
</g>
<path d="m1497.4 1013.8v33.808q0 2.4 2.4 2.4h7.7425q2.4 0 2.4-2.4v-33.808q0-2.4-2.4-2.4h-7.7425q-2.4 0-2.4 2.4z" clip-path="url(#a)" fill="#fff" stroke="#fff"/>
<g clip-path="url(#a)">
<g transform="translate(1501.5 1013.8) rotate(90) scale(.08 -.08)">
<use xlink:href="#l"/>
<use x="44.083984" xlink:href="#d"/>
<use x="105.607422" xlink:href="#h"/>
<use x="144.970703" xlink:href="#k"/>
<use x="242.382812" xlink:href="#i"/>
<use x="270.166016" xlink:href="#f"/>
<use x="333.544922" xlink:href="#g"/>
<use x="394.824219" xlink:href="#j"/>
</g>
</g>
<path d="m1573.7 1013.8v33.808q0 2.4 2.4 2.4h7.7425q2.4 0 2.4-2.4v-33.808q0-2.4-2.4-2.4h-7.7425q-2.4 0-2.4 2.4z" clip-path="url(#a)" fill="#fff" stroke="#fff"/>
<g clip-path="url(#a)">
<g transform="translate(1577.8 1013.8) rotate(90) scale(.08 -.08)">
<use xlink:href="#l"/>
<use x="44.083984" xlink:href="#d"/>
<use x="105.607422" xlink:href="#h"/>
<use x="144.970703" xlink:href="#k"/>
<use x="242.382812" xlink:href="#i"/>
<use x="270.166016" xlink:href="#f"/>
<use x="333.544922" xlink:href="#g"/>
<use x="394.824219" xlink:href="#j"/>
</g>
</g>
<path d="m1652 1013.8v33.808q0 2.4 2.4 2.4h7.7425q2.4 0 2.4-2.4v-33.808q0-2.4-2.4-2.4h-7.7425q-2.4 0-2.4 2.4z" clip-path="url(#a)" fill="#fff" stroke="#fff"/>
<g clip-path="url(#a)">
<g transform="translate(1656 1013.8) rotate(90) scale(.08 -.08)">
<use xlink:href="#l"/>
<use x="44.083984" xlink:href="#d"/>
<use x="105.607422" xlink:href="#h"/>
<use x="144.970703" xlink:href="#k"/>
<use x="242.382812" xlink:href="#i"/>
<use x="270.166016" xlink:href="#f"/>
<use x="333.544922" xlink:href="#g"/>
<use x="394.824219" xlink:href="#j"/>
</g>
</g>
<path d="m1824.4 908.89 4.4094-3.3848q1.9038-1.4614 0.44234-3.3652l-4.7146-6.1416q-1.4614-1.9038-3.3652-0.44234l-4.4094 3.3848q-1.9038 1.4614-0.44234 3.3652l4.7146 6.1416q1.4614 1.9038 3.3652 0.44234z" clip-path="url(#a)" fill="#fff" stroke="#fff"/>
<g clip-path="url(#a)">
<g transform="translate(1821.9 905.67) rotate(-37.512) scale(.08 -.08)">
<use xlink:href="#aa"/>
</g>
</g>
<path d="m1867.7 907.81 2.8045-4.2057q1.3315-1.9968-0.66522-3.3283l-6.4416-4.2956q-1.9968-1.3315-3.3283 0.66522l-2.8045 4.2057q-1.3315 1.9968 0.66523 3.3283l6.4416 4.2956q1.9968 1.3315 3.3283-0.66523z" clip-path="url(#a)" fill="#fff" stroke="#fff"/>
<g clip-path="url(#a)">
<g transform="translate(1864.4 905.55) rotate(-56.303) scale(.08 -.08)">
<use xlink:href="#t"/>
</g>
</g>
<path d="m1912.3 905.12 0.086622-5.5856q0.037215-2.3997-2.3625-2.4369l-7.7416-0.12006q-2.3997-0.037215-2.4369 2.3625l-0.086622 5.5856q-0.037215 2.3997 2.3625 2.4369l7.7416 0.12006q2.3997 0.037215 2.4369-2.3625z" clip-path="url(#a)" fill="#fff" stroke="#fff"/>
<g clip-path="url(#a)">
<g transform="translate(1908.2 905.05) rotate(-89.112) scale(.08 -.08)">
<use xlink:href="#r"/>
</g>
</g>
<path d="m1942.3 903.2 3.1955 4.9061q1.3099 2.011 3.3209 0.70117l6.4877-4.2257q2.011-1.3099 0.70117-3.3209l-3.1955-4.9061q-1.3099-2.011-3.3209-0.70117l-6.4877 4.2257q-2.011 1.3099-0.70117 3.3209z" clip-path="url(#a)" fill="#fff" stroke="#fff"/>
<g clip-path="url(#a)">
<g transform="translate(1945.8 900.98) rotate(56.922) scale(.08 -.08)">
<use xlink:href="#z"/>
</g>
</g>
<path d="m1987.2 905.49 4.6845 3.5124q1.9202 1.4398 3.3599-0.48044l4.6447-6.1946q1.4398-1.9202-0.48044-3.3599l-4.6845-3.5124q-1.9202-1.4398-3.3599 0.48044l-4.6447 6.1946q-1.4398 1.9202 0.48044 3.3599z" clip-path="url(#a)" fill="#fff" stroke="#fff"/>
<g clip-path="url(#a)">
<g transform="translate(1989.7 902.24) rotate(36.862) scale(.08 -.08)">
<use xlink:href="#z"/>
</g>
</g>
<path d="m1732.2 1013.8v33.808q0 2.4 2.4 2.4h7.7425q2.4 0 2.4-2.4v-33.808q0-2.4-2.4-2.4h-7.7425q-2.4 0-2.4 2.4z" clip-path="url(#a)" fill="#fff" stroke="#fff"/>
<g clip-path="url(#a)">
<g transform="translate(1736.3 1013.8) rotate(90) scale(.08 -.08)">
<use xlink:href="#l"/>
<use x="44.083984" xlink:href="#d"/>
<use x="105.607422" xlink:href="#h"/>
<use x="144.970703" xlink:href="#k"/>
<use x="242.382812" xlink:href="#i"/>
<use x="270.166016" xlink:href="#f"/>
<use x="333.544922" xlink:href="#g"/>
<use x="394.824219" xlink:href="#j"/>
</g>
</g>
<path d="m1814.5 1013.8v33.808q0 2.4 2.4 2.4h7.7425q2.4 0 2.4-2.4v-33.808q0-2.4-2.4-2.4h-7.7425q-2.4 0-2.4 2.4z" clip-path="url(#a)" fill="#fff" stroke="#fff"/>
<g clip-path="url(#a)">
<g transform="translate(1818.6 1013.8) rotate(90) scale(.08 -.08)">
<use xlink:href="#l"/>
<use x="44.083984" xlink:href="#d"/>
<use x="105.607422" xlink:href="#h"/>
<use x="144.970703" xlink:href="#k"/>
<use x="242.382812" xlink:href="#i"/>
<use x="270.166016" xlink:href="#f"/>
<use x="333.544922" xlink:href="#g"/>
<use x="394.824219" xlink:href="#j"/>
</g>
</g>
<path d="m1898.8 1013.8v33.808q0 2.4 2.4 2.4h7.7425q2.4 0 2.4-2.4v-33.808q0-2.4-2.4-2.4h-7.7425q-2.4 0-2.4 2.4z" clip-path="url(#a)" fill="#fff" stroke="#fff"/>
<g clip-path="url(#a)">
<g transform="translate(1902.8 1013.8) rotate(90) scale(.08 -.08)">
<use xlink:href="#l"/>
<use x="44.083984" xlink:href="#d"/>
<use x="105.607422" xlink:href="#h"/>
<use x="144.970703" xlink:href="#k"/>
<use x="242.382812" xlink:href="#i"/>
<use x="270.166016" xlink:href="#f"/>
<use x="333.544922" xlink:href="#g"/>
<use x="394.824219" xlink:href="#j"/>
</g>
</g>
<path d="m791.09 1013.8v33.808q0 2.4 2.4 2.4h7.7425q2.4 0 2.4-2.4v-33.808q0-2.4-2.4-2.4h-7.7425q-2.4 0-2.4 2.4z" clip-path="url(#a)" fill="#fff" stroke="#fff"/>
<g clip-path="url(#a)">
<g transform="translate(795.15 1013.8) rotate(90) scale(.08 -.08)">
<use xlink:href="#l"/>
<use x="44.083984" xlink:href="#d"/>
<use x="105.607422" xlink:href="#h"/>
<use x="144.970703" xlink:href="#k"/>
<use x="242.382812" xlink:href="#i"/>
<use x="270.166016" xlink:href="#f"/>
<use x="333.544922" xlink:href="#g"/>
<use x="394.824219" xlink:href="#j"/>
</g>
</g>
<path d="m845.27 1013.8v33.808q0 2.4 2.4 2.4h7.7425q2.4 0 2.4-2.4v-33.808q0-2.4-2.4-2.4h-7.7425q-2.4 0-2.4 2.4z" clip-path="url(#a)" fill="#fff" stroke="#fff"/>
<g clip-path="url(#a)">
<g transform="translate(849.33 1013.8) rotate(90) scale(.08 -.08)">
<use xlink:href="#l"/>
<use x="44.083984" xlink:href="#d"/>
<use x="105.607422" xlink:href="#h"/>
<use x="144.970703" xlink:href="#k"/>
<use x="242.382812" xlink:href="#i"/>
<use x="270.166016" xlink:href="#f"/>
<use x="333.544922" xlink:href="#g"/>
<use x="394.824219" xlink:href="#j"/>
</g>
</g>
<path d="m269.35 1013.8v33.808q0 2.4 2.4 2.4h7.7425q2.4 0 2.4-2.4v-33.808q0-2.4-2.4-2.4h-7.7425q-2.4 0-2.4 2.4z" clip-path="url(#a)" fill="#fff" stroke="#fff"/>
<g clip-path="url(#a)">
<g transform="translate(273.41 1013.8) rotate(90) scale(.08 -.08)">
<use xlink:href="#l"/>
<use x="44.083984" xlink:href="#d"/>
<use x="105.607422" xlink:href="#h"/>
<use x="144.970703" xlink:href="#k"/>
<use x="242.382812" xlink:href="#i"/>
<use x="270.166016" xlink:href="#f"/>
<use x="333.544922" xlink:href="#g"/>
<use x="394.824219" xlink:href="#j"/>
</g>
</g>
<path d="m317.18 905.46 0.58401-5.0212q0.27728-2.3839-2.1067-2.6612l-7.6907-0.8945q-2.3839-0.27728-2.6612 2.1067l-0.58401 5.0212q-0.27728 2.3839 2.1067 2.6612l7.6907 0.8945q2.3839 0.27728 2.6612-2.1067z" clip-path="url(#a)" fill="#fff" stroke="#fff"/>
<g clip-path="url(#a)">
<g transform="translate(313.14 904.99) rotate(-83.366) scale(.08 -.08)">
<use xlink:href="#t"/>
</g>
</g>
<path d="m319.74 900.18 0.64539 5.5488q0.27728 2.3839 2.6612 2.1067l7.6907-0.8945q2.3839-0.27728 2.1067-2.6612l-0.64539-5.5488q-0.27728-2.3839-2.6612-2.1067l-7.6907 0.8945q-2.3839 0.27728-2.1067 2.6612z" clip-path="url(#a)" fill="#fff" stroke="#fff"/>
<g clip-path="url(#a)">
<g transform="translate(323.77 899.71) rotate(83.366) scale(.08 -.08)">
<use xlink:href="#r"/>
</g>
</g>
<path d="m395.17 841.04 0.99398-5.4692q0.42915-2.3613-1.9322-2.7905l-7.6177-1.3845q-2.3613-0.42915-2.7905 1.9322l-0.99398 5.4692q-0.42915 2.3613 1.9322 2.7905l7.6177 1.3845q2.3613 0.42915 2.7905-1.9322z" clip-path="url(#a)" fill="#fff" stroke="#fff"/>
<g clip-path="url(#a)">
<g transform="translate(391.17 840.32) rotate(-79.699) scale(.08 -.08)">
<use xlink:href="#aa"/>
</g>
</g>
<path d="m418.51 771.26 0.87808 4.7432q0.43688 2.3599 2.7968 1.923l7.6131-1.4094q2.3599-0.43688 1.923-2.7968l-0.87808-4.7432q-0.43688-2.3599-2.7968-1.923l-7.6131 1.4094q-2.3599 0.43688-1.923 2.7968z" clip-path="url(#a)" fill="#fff" stroke="#fff"/>
<g clip-path="url(#a)">
<g transform="translate(422.51 770.52) rotate(79.512) scale(.08 -.08)">
<use xlink:href="#ab"/>
</g>
</g>
<path d="m418.1 834.68 0.5457 6.1358q0.21261 2.3906 2.6032 2.178l7.7121-0.6859q2.3906-0.21261 2.178-2.6032l-0.5457-6.1358q-0.21261-2.3906-2.6032-2.178l-7.7121 0.6859q-2.3906 0.21261-2.178 2.6032z" clip-path="url(#a)" fill="#fff" stroke="#fff"/>
<g clip-path="url(#a)">
<defs>
<path id="aw" d="m19.672 64.797v-56.688h11.922q15.094 0 22.094 6.8281 7 6.8438 7 21.594 0 14.641-7 21.453t-22.094 6.8125zm-9.8594 8.1094h20.266q21.188 0 31.094-8.8125 9.9219-8.8125 9.9219-27.562 0-18.859-9.9688-27.703-9.9531-8.8281-31.047-8.8281h-20.266z"/>
</defs>
<g transform="translate(422.14 834.32) rotate(84.918) scale(.08 -.08)">
<use xlink:href="#aw"/>
</g>
</g>
<path d="m359.65 1013.8v33.808q0 2.4 2.4 2.4h7.7425q2.4 0 2.4-2.4v-33.808q0-2.4-2.4-2.4h-7.7425q-2.4 0-2.4 2.4z" clip-path="url(#a)" fill="#fff" stroke="#fff"/>
<g clip-path="url(#a)">
<g transform="translate(363.71 1013.8) rotate(90) scale(.08 -.08)">
<use xlink:href="#l"/>
<use x="44.083984" xlink:href="#d"/>
<use x="105.607422" xlink:href="#h"/>
<use x="144.970703" xlink:href="#k"/>
<use x="242.382812" xlink:href="#i"/>
<use x="270.166016" xlink:href="#f"/>
<use x="333.544922" xlink:href="#g"/>
<use x="394.824219" xlink:href="#j"/>
</g>
</g>
<path d="m423.93 906.38 1.394-4.859q0.66186-2.3069-1.6451-2.9688l-7.4423-2.1352q-2.3069-0.66186-2.9688 1.6451l-1.394 4.859q-0.66186 2.3069 1.6451 2.9688l7.4423 2.1352q2.3069 0.66186 2.9688-1.6451z" clip-path="url(#a)" fill="#fff" stroke="#fff"/>
<g clip-path="url(#a)">
<g transform="translate(420.02 905.26) rotate(-73.992) scale(.08 -.08)">
<use xlink:href="#t"/>
</g>
</g>
<path d="m448.92 901.27 1.5405 5.3696q0.66186 2.3069 2.9688 1.6451l7.4423-2.1352q2.3069-0.66186 1.6451-2.9688l-1.5405-5.3696q-0.66186-2.3069-2.9688-1.6451l-7.4423 2.1352q-2.3069 0.66186-1.6451 2.9688z" clip-path="url(#a)" fill="#fff" stroke="#fff"/>
<g clip-path="url(#a)">
<g transform="translate(452.83 900.15) rotate(73.992) scale(.08 -.08)">
<use xlink:href="#r"/>
</g>
</g>
<path d="m429.88 1013.8v33.808q0 2.4 2.4 2.4h7.7425q2.4 0 2.4-2.4v-33.808q0-2.4-2.4-2.4h-7.7425q-2.4 0-2.4 2.4z" clip-path="url(#a)" fill="#fff" stroke="#fff"/>
<g clip-path="url(#a)">
<g transform="translate(433.95 1013.8) rotate(90) scale(.08 -.08)">
<use xlink:href="#l"/>
<use x="44.083984" xlink:href="#d"/>
<use x="105.607422" xlink:href="#h"/>
<use x="144.970703" xlink:href="#k"/>
<use x="242.382812" xlink:href="#i"/>
<use x="270.166016" xlink:href="#f"/>
<use x="333.544922" xlink:href="#g"/>
<use x="394.824219" xlink:href="#j"/>
</g>
</g>
<path d="m393.76 1013.8v33.808q0 2.4 2.4 2.4h7.7425q2.4 0 2.4-2.4v-33.808q0-2.4-2.4-2.4h-7.7425q-2.4 0-2.4 2.4z" clip-path="url(#a)" fill="#fff" stroke="#fff"/>
<g clip-path="url(#a)">
<g transform="translate(397.83 1013.8) rotate(90) scale(.08 -.08)">
<use xlink:href="#l"/>
<use x="44.083984" xlink:href="#d"/>
<use x="105.607422" xlink:href="#h"/>
<use x="144.970703" xlink:href="#k"/>
<use x="242.382812" xlink:href="#i"/>
<use x="270.166016" xlink:href="#f"/>
<use x="333.544922" xlink:href="#g"/>
<use x="394.824219" xlink:href="#j"/>
</g>
</g>
<path d="m468.01 1013.8v33.808q0 2.4 2.4 2.4h7.7425q2.4 0 2.4-2.4v-33.808q0-2.4-2.4-2.4h-7.7425q-2.4 0-2.4 2.4z" clip-path="url(#a)" fill="#fff" stroke="#fff"/>
<g clip-path="url(#a)">
<g transform="translate(472.07 1013.8) rotate(90) scale(.08 -.08)">
<use xlink:href="#l"/>
<use x="44.083984" xlink:href="#d"/>
<use x="105.607422" xlink:href="#h"/>
<use x="144.970703" xlink:href="#k"/>
<use x="242.382812" xlink:href="#i"/>
<use x="270.166016" xlink:href="#f"/>
<use x="333.544922" xlink:href="#g"/>
<use x="394.824219" xlink:href="#j"/>
</g>
</g>
<path d="m297.44 1013.8v33.808q0 2.4 2.4 2.4h7.7425q2.4 0 2.4-2.4v-33.808q0-2.4-2.4-2.4h-7.7425q-2.4 0-2.4 2.4z" clip-path="url(#a)" fill="#fff" stroke="#fff"/>
<g clip-path="url(#a)">
<g transform="translate(301.51 1013.8) rotate(90) scale(.08 -.08)">
<use xlink:href="#l"/>
<use x="44.083984" xlink:href="#d"/>
<use x="105.607422" xlink:href="#h"/>
<use x="144.970703" xlink:href="#k"/>
<use x="242.382812" xlink:href="#i"/>
<use x="270.166016" xlink:href="#f"/>
<use x="333.544922" xlink:href="#g"/>
<use x="394.824219" xlink:href="#j"/>
</g>
</g>
<path d="m327.54 1013.8v33.808q0 2.4 2.4 2.4h7.7425q2.4 0 2.4-2.4v-33.808q0-2.4-2.4-2.4h-7.7425q-2.4 0-2.4 2.4z" clip-path="url(#a)" fill="#fff" stroke="#fff"/>
<g clip-path="url(#a)">
<g transform="translate(331.61 1013.8) rotate(90) scale(.08 -.08)">
<use xlink:href="#l"/>
<use x="44.083984" xlink:href="#d"/>
<use x="105.607422" xlink:href="#h"/>
<use x="144.970703" xlink:href="#k"/>
<use x="242.382812" xlink:href="#i"/>
<use x="270.166016" xlink:href="#f"/>
<use x="333.544922" xlink:href="#g"/>
<use x="394.824219" xlink:href="#j"/>
</g>
</g>
<path d="m106.74 905.15 0.12927-5.5572q0.055814-2.3994-2.3435-2.4552l-7.7404-0.18006q-2.3994-0.055814-2.4552 2.3435l-0.12927 5.5572q-0.055814 2.3994 2.3435 2.4552l7.7404 0.18006q2.3994 0.055814 2.4552-2.3435z" clip-path="url(#a)" fill="#fff" stroke="#fff"/>
<g clip-path="url(#a)">
<g transform="translate(102.68 905.06) rotate(-88.667) scale(.08 -.08)">
<use xlink:href="#aa"/>
</g>
</g>
<path d="m97.211 899.58 0.12991 5.5847q0.055814 2.3994 2.4552 2.3435l7.7404-0.18006q2.3994-0.055814 2.3435-2.4552l-0.12991-5.5847q-0.055814-2.3994-2.4552-2.3435l-7.7404 0.18006q-2.3994 0.055814-2.3435 2.4552z" clip-path="url(#a)" fill="#fff" stroke="#fff"/>
<g clip-path="url(#a)">
<g transform="translate(101.27 899.48) rotate(88.667) scale(.08 -.08)">
<use xlink:href="#r"/>
</g>
</g>
<path d="m116.84 1013.8v33.808q0 2.4 2.4 2.4h7.7425q2.4 0 2.4-2.4v-33.808q0-2.4-2.4-2.4h-7.7425q-2.4 0-2.4 2.4z" clip-path="url(#a)" fill="#fff" stroke="#fff"/>
<g clip-path="url(#a)">
<g transform="translate(120.9 1013.8) rotate(90) scale(.08 -.08)">
<use xlink:href="#l"/>
<use x="44.083984" xlink:href="#d"/>
<use x="105.607422" xlink:href="#h"/>
<use x="144.970703" xlink:href="#k"/>
<use x="242.382812" xlink:href="#i"/>
<use x="270.166016" xlink:href="#f"/>
<use x="333.544922" xlink:href="#g"/>
<use x="394.824219" xlink:href="#j"/>
</g>
</g>
<path d="m128.88 1013.8v33.808q0 2.4 2.4 2.4h7.7425q2.4 0 2.4-2.4v-33.808q0-2.4-2.4-2.4h-7.7425q-2.4 0-2.4 2.4z" clip-path="url(#a)" fill="#fff" stroke="#fff"/>
<g clip-path="url(#a)">
<g transform="translate(132.94 1013.8) rotate(90) scale(.08 -.08)">
<use xlink:href="#l"/>
<use x="44.083984" xlink:href="#d"/>
<use x="105.607422" xlink:href="#h"/>
<use x="144.970703" xlink:href="#k"/>
<use x="242.382812" xlink:href="#i"/>
<use x="270.166016" xlink:href="#f"/>
<use x="333.544922" xlink:href="#g"/>
<use x="394.824219" xlink:href="#j"/>
</g>
</g>
<path d="m168.39 840.34 0.51209-5.029q0.24313-2.3877-2.1445-2.6308l-7.7027-0.78434q-2.3877-0.24313-2.6308 2.1445l-0.51209 5.029q-0.24313 2.3877 2.1445 2.6308l7.7027 0.78434q2.3877 0.24313 2.6308-2.1445z" clip-path="url(#a)" fill="#fff" stroke="#fff"/>
<g clip-path="url(#a)">
<g transform="translate(164.35 839.93) rotate(-84.186) scale(.08 -.08)">
<use xlink:href="#t"/>
</g>
</g>
<path d="m181.2 775.08 0.051987-5.0547q0.024682-2.3999-2.3752-2.4246l-7.7421-0.079626q-2.3999-0.024682-2.4246 2.3752l-0.051987 5.0547q-0.024682 2.3999 2.3752 2.4246l7.7421 0.079626q2.3999 0.024682 2.4246-2.3752z" clip-path="url(#a)" fill="#fff" stroke="#fff"/>
<g clip-path="url(#a)">
<g transform="translate(177.13 775.04) rotate(-89.411) scale(.08 -.08)">
<use xlink:href="#t"/>
</g>
</g>
<path d="m182.97 835.08 0.59425 5.5546q0.2553 2.3864 2.6417 2.1311l7.6986-0.82362q2.3864-0.2553 2.1311-2.6417l-0.59425-5.5546q-0.2553-2.3864-2.6417-2.1311l-7.6986 0.82362q-2.3864 0.2553-2.1311 2.6417z" clip-path="url(#a)" fill="#fff" stroke="#fff"/>
<g clip-path="url(#a)">
<g transform="translate(187.01 834.65) rotate(83.894) scale(.08 -.08)">
<use xlink:href="#r"/>
</g>
</g>
<path d="m142.93 1013.8v33.808q0 2.4 2.4 2.4h7.7425q2.4 0 2.4-2.4v-33.808q0-2.4-2.4-2.4h-7.7425q-2.4 0-2.4 2.4z" clip-path="url(#a)" fill="#fff" stroke="#fff"/>
<g clip-path="url(#a)">
<g transform="translate(146.99 1013.8) rotate(90) scale(.08 -.08)">
<use xlink:href="#l"/>
<use x="44.083984" xlink:href="#d"/>
<use x="105.607422" xlink:href="#h"/>
<use x="144.970703" xlink:href="#k"/>
<use x="242.382812" xlink:href="#i"/>
<use x="270.166016" xlink:href="#f"/>
<use x="333.544922" xlink:href="#g"/>
<use x="394.824219" xlink:href="#j"/>
</g>
</g>
<path d="m175.85 905.18 0.35191-5.0427q0.16708-2.3942-2.2271-2.5613l-7.7237-0.53901q-2.3942-0.16708-2.5613 2.2271l-0.35191 5.0427q-0.16708 2.3942 2.2271 2.5613l7.7237 0.53901q2.3942 0.16708 2.5613-2.2271z" clip-path="url(#a)" fill="#fff" stroke="#fff"/>
<g clip-path="url(#a)">
<g transform="translate(171.79 904.9) rotate(-86.008) scale(.08 -.08)">
<use xlink:href="#t"/>
</g>
</g>
<path d="m172.35 899.88 0.3889 5.5727q0.16708 2.3942 2.5613 2.2271l7.7237-0.53901q2.3942-0.16708 2.2271-2.5613l-0.3889-5.5727q-0.16708-2.3942-2.5613-2.2271l-7.7237 0.53901q-2.3942 0.16708-2.2271 2.5613z" clip-path="url(#a)" fill="#fff" stroke="#fff"/>
<g clip-path="url(#a)">
<g transform="translate(176.4 899.59) rotate(86.008) scale(.08 -.08)">
<use xlink:href="#r"/>
</g>
</g>
<path d="m197.11 1013.8v33.808q0 2.4 2.4 2.4h7.7425q2.4 0 2.4-2.4v-33.808q0-2.4-2.4-2.4h-7.7425q-2.4 0-2.4 2.4z" clip-path="url(#a)" fill="#fff" stroke="#fff"/>
<g clip-path="url(#a)">
<g transform="translate(201.17 1013.8) rotate(90) scale(.08 -.08)">
<use xlink:href="#l"/>
<use x="44.083984" xlink:href="#d"/>
<use x="105.607422" xlink:href="#h"/>
<use x="144.970703" xlink:href="#k"/>
<use x="242.382812" xlink:href="#i"/>
<use x="270.166016" xlink:href="#f"/>
<use x="333.544922" xlink:href="#g"/>
<use x="394.824219" xlink:href="#j"/>
</g>
</g>
<path d="m158.98 1013.8v33.808q0 2.4 2.4 2.4h7.7425q2.4 0 2.4-2.4v-33.808q0-2.4-2.4-2.4h-7.7425q-2.4 0-2.4 2.4z" clip-path="url(#a)" fill="#fff" stroke="#fff"/>
<g clip-path="url(#a)">
<g transform="translate(163.04 1013.8) rotate(90) scale(.08 -.08)">
<use xlink:href="#l"/>
<use x="44.083984" xlink:href="#d"/>
<use x="105.607422" xlink:href="#h"/>
<use x="144.970703" xlink:href="#k"/>
<use x="242.382812" xlink:href="#i"/>
<use x="270.166016" xlink:href="#f"/>
<use x="333.544922" xlink:href="#g"/>
<use x="394.824219" xlink:href="#j"/>
</g>
</g>
<path d="m177.04 1013.8v33.808q0 2.4 2.4 2.4h7.7425q2.4 0 2.4-2.4v-33.808q0-2.4-2.4-2.4h-7.7425q-2.4 0-2.4 2.4z" clip-path="url(#a)" fill="#fff" stroke="#fff"/>
<g clip-path="url(#a)">
<g transform="translate(181.1 1013.8) rotate(90) scale(.08 -.08)">
<use xlink:href="#l"/>
<use x="44.083984" xlink:href="#d"/>
<use x="105.607422" xlink:href="#h"/>
<use x="144.970703" xlink:href="#k"/>
<use x="242.382812" xlink:href="#i"/>
<use x="270.166016" xlink:href="#f"/>
<use x="333.544922" xlink:href="#g"/>
<use x="394.824219" xlink:href="#j"/>
</g>
</g>
<path d="m92.759 1013.8v33.808q0 2.4 2.4 2.4h7.7425q2.4 0 2.4-2.4v-33.808q0-2.4-2.4-2.4h-7.7425q-2.4 0-2.4 2.4z" clip-path="url(#a)" fill="#fff" stroke="#fff"/>
<g clip-path="url(#a)">
<g transform="translate(96.823 1013.8) rotate(90) scale(.08 -.08)">
<use xlink:href="#l"/>
<use x="44.083984" xlink:href="#d"/>
<use x="105.607422" xlink:href="#h"/>
<use x="144.970703" xlink:href="#k"/>
<use x="242.382812" xlink:href="#i"/>
<use x="270.166016" xlink:href="#f"/>
<use x="333.544922" xlink:href="#g"/>
<use x="394.824219" xlink:href="#j"/>
</g>
</g>
<path d="m98.779 1013.8v33.808q0 2.4 2.4 2.4h7.7425q2.4 0 2.4-2.4v-33.808q0-2.4-2.4-2.4h-7.7425q-2.4 0-2.4 2.4z" clip-path="url(#a)" fill="#fff" stroke="#fff"/>
<g clip-path="url(#a)">
<g transform="translate(102.84 1013.8) rotate(90) scale(.08 -.08)">
<use xlink:href="#l"/>
<use x="44.083984" xlink:href="#d"/>
<use x="105.607422" xlink:href="#h"/>
<use x="144.970703" xlink:href="#k"/>
<use x="242.382812" xlink:href="#i"/>
<use x="270.166016" xlink:href="#f"/>
<use x="333.544922" xlink:href="#g"/>
<use x="394.824219" xlink:href="#j"/>
</g>
</g>
<path d="m106.81 1013.8v33.808q0 2.4 2.4 2.4h7.7425q2.4 0 2.4-2.4v-33.808q0-2.4-2.4-2.4h-7.7425q-2.4 0-2.4 2.4z" clip-path="url(#a)" fill="#fff" stroke="#fff"/>
<g clip-path="url(#a)">
<g transform="translate(110.87 1013.8) rotate(90) scale(.08 -.08)">
<use xlink:href="#l"/>
<use x="44.083984" xlink:href="#d"/>
<use x="105.607422" xlink:href="#h"/>
<use x="144.970703" xlink:href="#k"/>
<use x="242.382812" xlink:href="#i"/>
<use x="270.166016" xlink:href="#f"/>
<use x="333.544922" xlink:href="#g"/>
<use x="394.824219" xlink:href="#j"/>
</g>
</g>
<path d="m219.18 1013.8v33.808q0 2.4 2.4 2.4h7.7425q2.4 0 2.4-2.4v-33.808q0-2.4-2.4-2.4h-7.7425q-2.4 0-2.4 2.4z" clip-path="url(#a)" fill="#fff" stroke="#fff"/>
<g clip-path="url(#a)">
<g transform="translate(223.24 1013.8) rotate(90) scale(.08 -.08)">
<use xlink:href="#l"/>
<use x="44.083984" xlink:href="#d"/>
<use x="105.607422" xlink:href="#h"/>
<use x="144.970703" xlink:href="#k"/>
<use x="242.382812" xlink:href="#i"/>
<use x="270.166016" xlink:href="#f"/>
<use x="333.544922" xlink:href="#g"/>
<use x="394.824219" xlink:href="#j"/>
</g>
</g>
<path d="m508.14 1013.8v33.808q0 2.4 2.4 2.4h7.7425q2.4 0 2.4-2.4v-33.808q0-2.4-2.4-2.4h-7.7425q-2.4 0-2.4 2.4z" clip-path="url(#a)" fill="#fff" stroke="#fff"/>
<g clip-path="url(#a)">
<g transform="translate(512.21 1013.8) rotate(90) scale(.08 -.08)">
<use xlink:href="#l"/>
<use x="44.083984" xlink:href="#d"/>
<use x="105.607422" xlink:href="#h"/>
<use x="144.970703" xlink:href="#k"/>
<use x="242.382812" xlink:href="#i"/>
<use x="270.166016" xlink:href="#f"/>
<use x="333.544922" xlink:href="#g"/>
<use x="394.824219" xlink:href="#j"/>
</g>
</g>
<path d="m1082.1 1013.8v33.808q0 2.4 2.4 2.4h7.7425q2.4 0 2.4-2.4v-33.808q0-2.4-2.4-2.4h-7.7425q-2.4 0-2.4 2.4z" clip-path="url(#a)" fill="#fff" stroke="#fff"/>
<g clip-path="url(#a)">
<g transform="translate(1086.1 1013.8) rotate(90) scale(.08 -.08)">
<use xlink:href="#l"/>
<use x="44.083984" xlink:href="#d"/>
<use x="105.607422" xlink:href="#h"/>
<use x="144.970703" xlink:href="#k"/>
<use x="242.382812" xlink:href="#i"/>
<use x="270.166016" xlink:href="#f"/>
<use x="333.544922" xlink:href="#g"/>
<use x="394.824219" xlink:href="#j"/>
</g>
</g>
<path d="m1146.3 1013.8v33.808q0 2.4 2.4 2.4h7.7425q2.4 0 2.4-2.4v-33.808q0-2.4-2.4-2.4h-7.7425q-2.4 0-2.4 2.4z" clip-path="url(#a)" fill="#fff" stroke="#fff"/>
<g clip-path="url(#a)">
<g transform="translate(1150.3 1013.8) rotate(90) scale(.08 -.08)">
<use xlink:href="#l"/>
<use x="44.083984" xlink:href="#d"/>
<use x="105.607422" xlink:href="#h"/>
<use x="144.970703" xlink:href="#k"/>
<use x="242.382812" xlink:href="#i"/>
<use x="270.166016" xlink:href="#f"/>
<use x="333.544922" xlink:href="#g"/>
<use x="394.824219" xlink:href="#j"/>
</g>
</g>
<path d="m1985.1 1013.8v33.808q0 2.4 2.4 2.4h7.7425q2.4 0 2.4-2.4v-33.808q0-2.4-2.4-2.4h-7.7425q-2.4 0-2.4 2.4z" clip-path="url(#a)" fill="#fff" stroke="#fff"/>
<g clip-path="url(#a)">
<g transform="translate(1989.1 1013.8) rotate(90) scale(.08 -.08)">
<use xlink:href="#l"/>
<use x="44.083984" xlink:href="#d"/>
<use x="105.607422" xlink:href="#h"/>
<use x="144.970703" xlink:href="#k"/>
<use x="242.382812" xlink:href="#i"/>
<use x="270.166016" xlink:href="#f"/>
<use x="333.544922" xlink:href="#g"/>
<use x="394.824219" xlink:href="#j"/>
</g>
</g>
<path d="m2073.4 1013.8v33.808q0 2.4 2.4 2.4h7.7425q2.4 0 2.4-2.4v-33.808q0-2.4-2.4-2.4h-7.7425q-2.4 0-2.4 2.4z" clip-path="url(#a)" fill="#fff" stroke="#fff"/>
<g clip-path="url(#a)">
<g transform="translate(2077.4 1013.8) rotate(90) scale(.08 -.08)">
<use xlink:href="#l"/>
<use x="44.083984" xlink:href="#d"/>
<use x="105.607422" xlink:href="#h"/>
<use x="144.970703" xlink:href="#k"/>
<use x="242.382812" xlink:href="#i"/>
<use x="270.166016" xlink:href="#f"/>
<use x="333.544922" xlink:href="#g"/>
<use x="394.824219" xlink:href="#j"/>
</g>
</g>
<defs>
<path id="b" d="m0 8.6603c2.2967 0 4.4997-0.9125 6.1237-2.5365 1.624-1.624 2.5365-3.827 2.5365-6.1237s-0.9125-4.4997-2.5365-6.1237c-1.624-1.624-3.827-2.5365-6.1237-2.5365s-4.4997 0.9125-6.1237 2.5365c-1.624 1.624-2.5365 3.827-2.5365 6.1237s0.9125 4.4997 2.5365 6.1237c1.624 1.624 3.827 2.5365 6.1237 2.5365z"/>
</defs>
<g clip-path="url(#a)" fill="#ffffff" stroke="#ffffff">
<use x="99.030303" y="1094.545455" xlink:href="#b"/>
<use x="105.050382" y="1094.545455" xlink:href="#b"/>
<use x="113.077155" y="1094.545455" xlink:href="#b"/>
<use x="123.11062" y="1094.545455" xlink:href="#b"/>
<use x="135.150778" y="1094.545455" xlink:href="#b"/>
<use x="149.19763" y="1094.545455" xlink:href="#b"/>
<use x="165.251174" y="1094.545455" xlink:href="#b"/>
<use x="183.311412" y="1094.545455" xlink:href="#b"/>
<use x="203.378343" y="1094.545455" xlink:href="#b"/>
<use x="225.451966" y="1094.545455" xlink:href="#b"/>
<use x="249.532283" y="1094.545455" xlink:href="#b"/>
<use x="275.619293" y="1094.545455" xlink:href="#b"/>
<use x="303.712996" y="1094.545455" xlink:href="#b"/>
<use x="333.813392" y="1094.545455" xlink:href="#b"/>
<use x="365.920481" y="1094.545455" xlink:href="#b"/>
<use x="400.034264" y="1094.545455" xlink:href="#b"/>
<use x="436.154739" y="1094.545455" xlink:href="#b"/>
<use x="474.281907" y="1094.545455" xlink:href="#b"/>
<use x="514.415769" y="1094.545455" xlink:href="#b"/>
<use x="556.556323" y="1094.545455" xlink:href="#b"/>
<use x="600.703571" y="1094.545455" xlink:href="#b"/>
<use x="646.857511" y="1094.545455" xlink:href="#b"/>
<use x="695.018145" y="1094.545455" xlink:href="#b"/>
<use x="745.185472" y="1094.545455" xlink:href="#b"/>
<use x="797.359492" y="1094.545455" xlink:href="#b"/>
<use x="851.540204" y="1094.545455" xlink:href="#b"/>
<use x="907.72761" y="1094.545455" xlink:href="#b"/>
<use x="965.921709" y="1094.545455" xlink:href="#b"/>
<use x="1026.122502" y="1094.545455" xlink:href="#b"/>
<use x="1088.329987" y="1094.545455" xlink:href="#b"/>
<use x="1152.544165" y="1094.545455" xlink:href="#b"/>
<use x="1218.765036" y="1094.545455" xlink:href="#b"/>
<use x="1286.992601" y="1094.545455" xlink:href="#b"/>
<use x="1357.226858" y="1094.545455" xlink:href="#b"/>
<use x="1429.467809" y="1094.545455" xlink:href="#b"/>
<use x="1503.715452" y="1094.545455" xlink:href="#b"/>
<use x="1579.969789" y="1094.545455" xlink:href="#b"/>
<use x="1658.230819" y="1094.545455" xlink:href="#b"/>
<use x="1738.498542" y="1094.545455" xlink:href="#b"/>
<use x="1820.772958" y="1094.545455" xlink:href="#b"/>
<use x="1905.054067" y="1094.545455" xlink:href="#b"/>
<use x="1991.341869" y="1094.545455" xlink:href="#b"/>
<use x="2079.636364" y="1094.545455" xlink:href="#b"/>
<use x="342.170084" y="52.121212" xlink:href="#b"/>
<use x="129.799597" y="576.933608" xlink:href="#b"/>
<use x="249.532283" y="966.924022" xlink:href="#b"/>
<use x="282.642719" y="576.933608" xlink:href="#b"/>
<use x="651.178172" y="183.641398" xlink:href="#b"/>
<use x="556.556323" y="966.924022" xlink:href="#b"/>
<use x="600.703571" y="966.924022" xlink:href="#b"/>
<use x="646.857511" y="966.924022" xlink:href="#b"/>
<use x="800.595284" y="314.973191" xlink:href="#b"/>
<use x="695.018145" y="966.924022" xlink:href="#b"/>
<use x="745.185472" y="966.924022" xlink:href="#b"/>
<use x="824.449848" y="837.527235" xlink:href="#b"/>
<use x="1091.465445" y="446.085263" xlink:href="#b"/>
<use x="907.72761" y="966.924022" xlink:href="#b"/>
<use x="965.921709" y="966.924022" xlink:href="#b"/>
<use x="1026.122502" y="966.924022" xlink:href="#b"/>
<use x="1408.146695" y="576.933608" xlink:href="#b"/>
<use x="1218.765036" y="966.924022" xlink:href="#b"/>
<use x="1322.10973" y="966.924022" xlink:href="#b"/>
<use x="1429.467809" y="966.924022" xlink:href="#b"/>
<use x="1662.244205" y="707.451772" xlink:href="#b"/>
<use x="1503.715452" y="966.924022" xlink:href="#b"/>
<use x="1579.969789" y="966.924022" xlink:href="#b"/>
<use x="1658.230819" y="966.924022" xlink:href="#b"/>
<use x="1907.06076" y="837.527235" xlink:href="#b"/>
<use x="1738.498542" y="966.924022" xlink:href="#b"/>
<use x="1820.772958" y="966.924022" xlink:href="#b"/>
<use x="1905.054067" y="966.924022" xlink:href="#b"/>
<use x="797.359492" y="966.924022" xlink:href="#b"/>
<use x="851.540204" y="966.924022" xlink:href="#b"/>
<use x="275.619293" y="966.924022" xlink:href="#b"/>
<use x="318.763194" y="837.527235" xlink:href="#b"/>
<use x="413.077769" y="707.451772" xlink:href="#b"/>
<use x="365.920481" y="966.924022" xlink:href="#b"/>
<use x="437.158085" y="837.527235" xlink:href="#b"/>
<use x="436.154739" y="966.924022" xlink:href="#b"/>
<use x="400.034264" y="966.924022" xlink:href="#b"/>
<use x="474.281907" y="966.924022" xlink:href="#b"/>
<use x="303.712996" y="966.924022" xlink:href="#b"/>
<use x="333.813392" y="966.924022" xlink:href="#b"/>
<use x="102.040343" y="837.527235" xlink:href="#b"/>
<use x="123.11062" y="966.924022" xlink:href="#b"/>
<use x="135.150778" y="966.924022" xlink:href="#b"/>
<use x="175.619089" y="707.451772" xlink:href="#b"/>
<use x="149.19763" y="966.924022" xlink:href="#b"/>
<use x="174.281293" y="837.527235" xlink:href="#b"/>
<use x="203.378343" y="966.924022" xlink:href="#b"/>
<use x="165.251174" y="966.924022" xlink:href="#b"/>
<use x="183.311412" y="966.924022" xlink:href="#b"/>
<use x="99.030303" y="966.924022" xlink:href="#b"/>
<use x="105.050382" y="966.924022" xlink:href="#b"/>
<use x="113.077155" y="966.924022" xlink:href="#b"/>
<use x="225.451966" y="966.924022" xlink:href="#b"/>
<use x="514.415769" y="966.924022" xlink:href="#b"/>
<use x="1088.329987" y="966.924022" xlink:href="#b"/>
<use x="1152.544165" y="966.924022" xlink:href="#b"/>
<use x="1991.341869" y="966.924022" xlink:href="#b"/>
<use x="2079.636364" y="966.924022" xlink:href="#b"/>
</g>
<g clip-path="url(#a)">
<defs>
<path id="au" d="m9.8125 72.906h9.8594v-72.906h-9.8594z"/>
</defs>
<g transform="translate(94.387 1097.3) scale(.1 -.1)">
<use xlink:href="#au"/>
<use x="29.492188" xlink:href="#f"/>
</g>
</g>
<g clip-path="url(#a)">
<defs>
<path id="ak" d="m9.8125 72.906h9.8594v-67.828q0-13.188-5-19.141t-16.094-5.9531h-3.75v8.2969h3.0781q6.5312 0 9.2188 3.6719 2.6875 3.6562 2.6875 13.125z"/>
<path id="ao" d="m8.5 21.578v33.109h8.9844v-32.766q0-7.7656 3.0156-11.656 3.0312-3.875 9.0938-3.875 7.2656 0 11.484 4.6406 4.2344 4.6406 4.2344 12.656v31h8.9844v-54.688h-8.9844v8.4062q-3.2656-4.9844-7.5938-7.4062-4.3125-2.4219-10.031-2.4219-9.4219 0-14.312 5.8594-4.875 5.8594-4.875 17.141z"/>
</defs>
<g transform="translate(94.161 1097.3) scale(.1 -.1)">
<use xlink:href="#ak"/>
<use x="29.492188" xlink:href="#ao"/>
<use x="92.871094" xlink:href="#f"/>
<use x="156.25" xlink:href="#d"/>
</g>
</g>
<g clip-path="url(#a)">
<defs>
<path id="am" d="m11.719 12.406h10.297v-8.4062l-8-15.625h-6.2969l4 15.625z"/>
</defs>
<g transform="translate(111.49 1097.3) scale(.1 -.1)">
<use xlink:href="#am"/>
</g>
</g>
<g clip-path="url(#a)">
<defs>
<path id="ap" d="m45.406 27.984q0 9.7656-4.0312 15.125-4.0156 5.375-11.297 5.375-7.2188 0-11.25-5.375-4.0312-5.3594-4.0312-15.125 0-9.7188 4.0312-15.094t11.25-5.375q7.2812 0 11.297 5.375 4.0312 5.375 4.0312 15.094zm8.9844-21.203q0-13.953-6.2031-20.766-6.1875-6.8125-18.984-6.8125-4.7344 0-8.9375 0.70312t-8.1562 2.1719v8.7344q3.9531-2.1406 7.8125-3.1562 3.8594-1.0312 7.8594-1.0312 8.8438 0 13.234 4.6094t4.3906 13.938v4.4531q-2.7812-4.8438-7.125-7.2344t-10.406-2.3906q-10.047 0-16.203 7.6562-6.1562 7.6719-6.1562 20.328 0 12.688 6.1562 20.344 6.1562 7.6719 16.203 7.6719 6.0625 0 10.406-2.3906t7.125-7.2188v8.2969h8.9844z"/>
<path id="p" d="m44.281 53.078v-8.5q-3.7969 1.9531-7.9062 2.9219-4.0938 0.98438-8.5 0.98438-6.6875 0-10.031-2.0469t-3.3438-6.1562q0-3.125 2.3906-4.9062t9.625-3.3906l3.0781-0.6875q9.5625-2.0469 13.594-5.7812t4.0312-10.422q0-7.625-6.0312-12.078-6.0312-4.4375-16.578-4.4375-4.3906 0-9.1562 0.85938t-10.031 2.5625v9.2812q4.9844-2.5938 9.8125-3.8906 4.8281-1.2812 9.5781-1.2812 6.3438 0 9.75 2.1719 3.4219 2.1719 3.4219 6.125 0 3.6562-2.4688 5.6094-2.4531 1.9531-10.812 3.7656l-3.125 0.73438q-8.3438 1.75-12.062 5.3906-3.7031 3.6406-3.7031 9.9844 0 7.7188 5.4688 11.906 5.4688 4.2031 15.531 4.2031 4.9688 0 9.3594-0.73438 4.4062-0.71875 8.1094-2.1875z"/>
</defs>
<g transform="translate(101.88 1097.3) scale(.1 -.1)">
<use xlink:href="#ak"/>
<use x="29.492188" xlink:href="#d"/>
<use x="91.015625" xlink:href="#f"/>
<use x="154.394531" xlink:href="#f"/>
<use x="217.773438" xlink:href="#i"/>
<use x="245.556641" xlink:href="#f"/>
<use x="308.935547" xlink:href="#ap"/>
<use x="372.412109" xlink:href="#p"/>
</g>
</g>
<g clip-path="url(#a)">
<defs>
<path id="ay" d="m2.9844 54.688h9.5156l17.094-45.891 17.094 45.891h9.5156l-20.516-54.688h-12.203z"/>
<path id="v" d="m18.312 70.219v-15.531h18.5v-6.9844h-18.5v-29.688q0-6.6875 1.8281-8.5938t7.4531-1.9062h9.2188v-7.5156h-9.2188q-10.406 0-14.359 3.875-3.9531 3.8906-3.9531 14.141v29.688h-6.5938v6.9844h6.5938v15.531z"/>
<path id="x" d="m45.406 46.391v29.594h8.9844v-75.984h-8.9844v8.2031q-2.8281-4.875-7.1562-7.25-4.3125-2.375-10.375-2.375-9.9062 0-16.141 7.9062-6.2188 7.9219-6.2188 20.812t6.2188 20.797q6.2344 7.9062 16.141 7.9062 6.0625 0 10.375-2.375 4.3281-2.3594 7.1562-7.2344zm-30.609-19.094q0-9.9062 4.0781-15.547t11.203-5.6406 11.219 5.6406q4.1094 5.6406 4.1094 15.547t-4.1094 15.547q-4.0938 5.6406-11.219 5.6406t-11.203-5.6406-4.0781-15.547z"/>
</defs>
<g transform="translate(118.6 1097.3) scale(.1 -.1)">
<use xlink:href="#ay"/>
<use x="59.179688" xlink:href="#i"/>
<use x="86.962891" xlink:href="#p"/>
<use x="139.0625" xlink:href="#i"/>
<use x="166.845703" xlink:href="#v"/>
<use x="206.054688" xlink:href="#d"/>
<use x="267.578125" xlink:href="#x"/>
</g>
</g>
<g clip-path="url(#a)">
<defs>
<path id="w" d="m54.891 33.016v-33.016h-8.9844v32.719q0 7.7656-3.0312 11.609-3.0312 3.8594-9.0781 3.8594-7.2812 0-11.484-4.6406-4.2031-4.625-4.2031-12.641v-30.906h-9.0312v75.984h9.0312v-29.797q3.2344 4.9375 7.5938 7.375 4.375 2.4375 10.094 2.4375 9.4219 0 14.25-5.8281 4.8438-5.8281 4.8438-17.156z"/>
</defs>
<g transform="translate(140.99 1097.3) scale(.1 -.1)">
<use xlink:href="#v"/>
<use x="39.208984" xlink:href="#w"/>
<use x="102.587891" xlink:href="#d"/>
</g>
</g>
<g clip-path="url(#a)">
<defs>
<path id="aq" d="m19.672 34.812v-26.703h15.828q7.9531 0 11.781 3.2969 3.8438 3.2969 3.8438 10.078 0 6.8438-3.8438 10.078-3.8281 3.25-11.781 3.25zm0 29.984v-21.969h14.609q7.2188 0 10.75 2.7031 3.5469 2.7188 3.5469 8.2812 0 5.5156-3.5469 8.25-3.5312 2.7344-10.75 2.7344zm-9.8594 8.1094h25.203q11.281 0 17.375-4.6875 6.1094-4.6875 6.1094-13.328 0-6.7031-3.125-10.656t-9.1875-4.9219q7.2812-1.5625 11.312-6.5312 4.0312-4.9531 4.0312-12.375 0-9.7656-6.6406-15.094-6.6406-5.3125-18.906-5.3125h-26.172z"/>
</defs>
<g transform="translate(155 1097.3) scale(.1 -.1)">
<use xlink:href="#s"/>
<use x="68.408203" xlink:href="#aq"/>
<use x="135.261719" xlink:href="#r"/>
</g>
</g>
<g clip-path="url(#a)">
<defs>
<path id="an" d="m4.2031 54.688h8.9844l11.234-42.672 11.172 42.672h10.594l11.234-42.672 11.188 42.672h8.9844l-14.312-54.688h-10.594l-11.766 44.828-11.812-44.828h-10.609z"/>
</defs>
<g transform="translate(169.8 1097.3) scale(.1 -.1)">
<use xlink:href="#aj"/>
<use x="74.804688" xlink:href="#d"/>
<use x="136.328125" xlink:href="#an"/>
<use x="218.115234" xlink:href="#p"/>
</g>
</g>
<g clip-path="url(#a)">
<defs>
<path id="az" d="m14.797 27.297q0-9.9062 4.0781-15.547t11.203-5.6406 11.219 5.6406q4.1094 5.6406 4.1094 15.547t-4.1094 15.547q-4.0938 5.6406-11.219 5.6406t-11.203-5.6406-4.0781-15.547zm30.609-19.094q-2.8281-4.875-7.1562-7.25-4.3125-2.375-10.375-2.375-9.9062 0-16.141 7.9062-6.2188 7.9219-6.2188 20.812t6.2188 20.797q6.2344 7.9062 16.141 7.9062 6.0625 0 10.375-2.375 4.3281-2.3594 7.1562-7.2344v8.2969h8.9844v-75.484h-8.9844z"/>
</defs>
<g transform="translate(169.74 1097.3) scale(.1 -.1)">
<use xlink:href="#w"/>
<use x="63.378906" xlink:href="#d"/>
<use x="124.902344" xlink:href="#g"/>
<use x="186.181641" xlink:href="#x"/>
<use x="249.658203" xlink:href="#az"/>
<use x="313.134766" xlink:href="#ao"/>
<use x="376.513672" xlink:href="#g"/>
<use x="437.792969" xlink:href="#h"/>
<use x="478.90625" xlink:href="#v"/>
<use x="518.115234" xlink:href="#d"/>
<use x="579.638672" xlink:href="#h"/>
<use x="620.751953" xlink:href="#p"/>
</g>
</g>
<g clip-path="url(#a)">
<g transform="translate(223.86 1097.3) scale(.1 -.1)">
<use xlink:href="#am"/>
</g>
</g>
<g clip-path="url(#a)">
<g transform="translate(240.13 1097.3) scale(.1 -.1)">
<use xlink:href="#g"/>
<use x="61.279297" xlink:href="#f"/>
<use x="124.658203" xlink:href="#x"/>
</g>
</g>
<g clip-path="url(#a)">
<g transform="translate(249.73 1097.3) scale(.1 -.1)">
<use xlink:href="#g"/>
<use x="61.279297" xlink:href="#x"/>
<use x="124.755859" xlink:href="#x"/>
<use x="188.232422" xlink:href="#h"/>
<use x="227.095703" xlink:href="#d"/>
<use x="288.619141" xlink:href="#p"/>
<use x="340.71875" xlink:href="#p"/>
<use x="392.818359" xlink:href="#d"/>
<use x="454.341797" xlink:href="#x"/>
</g>
</g>
<g clip-path="url(#a)">
<defs>
<path id="ag" d="m37.109 75.984v-7.4844h-8.5938q-4.8281 0-6.7188-1.9531-1.875-1.9531-1.875-7.0312v-4.8281h14.797v-6.9844h-14.797v-47.703h-9.0312v47.703h-8.5938v6.9844h8.5938v3.8125q0 9.125 4.25 13.297 4.25 4.1875 13.469 4.1875z"/>
</defs>
<g transform="translate(292.56 1097.3) scale(.1 -.1)">
<use xlink:href="#p"/>
<use x="52.099609" xlink:href="#v"/>
<use x="91.308594" xlink:href="#g"/>
<use x="152.587891" xlink:href="#ag"/>
<use x="187.792969" xlink:href="#ag"/>
</g>
</g>
<g clip-path="url(#a)">
<defs>
<path id="ai" d="m48.688 27.297q0 9.9062-4.0781 15.547t-11.203 5.6406q-7.1406 0-11.219-5.6406t-4.0781-15.547 4.0781-15.547 11.219-5.6406q7.125 0 11.203 5.6406t4.0781 15.547zm-30.578 19.094q2.8438 4.875 7.1562 7.2344 4.3281 2.375 10.328 2.375 9.9688 0 16.188-7.9062 6.2344-7.9062 6.2344-20.797t-6.2344-20.812q-6.2188-7.9062-16.188-7.9062-6 0-10.328 2.375-4.3125 2.375-7.1562 7.25v-8.2031h-9.0312v75.984h9.0312z"/>
</defs>
<g transform="translate(310.09 1097.3) scale(.1 -.1)">
<use xlink:href="#k"/>
<use x="97.412109" xlink:href="#d"/>
<use x="158.935547" xlink:href="#k"/>
<use x="256.347656" xlink:href="#ai"/>
<use x="319.824219" xlink:href="#d"/>
<use x="381.347656" xlink:href="#h"/>
<use x="422.460938" xlink:href="#p"/>
</g>
</g>
<g clip-path="url(#a)">
<g transform="translate(361.36 1097.3) scale(.1 -.1)">
<use xlink:href="#i"/>
<use x="27.783203" xlink:href="#f"/>
</g>
</g>
<g clip-path="url(#a)">
<g transform="translate(393.8 1097.3) scale(.1 -.1)">
<use xlink:href="#g"/>
<use x="61.279297" xlink:href="#f"/>
</g>
</g>
<g clip-path="url(#a)">
<defs>
<path id="y" d="m30.609 48.391q-7.2188 0-11.422-5.6406t-4.2031-15.453 4.1719-15.453q4.1875-5.6406 11.453-5.6406 7.1875 0 11.375 5.6562 4.2031 5.6719 4.2031 15.438 0 9.7188-4.2031 15.406-4.1875 5.6875-11.375 5.6875zm0 7.6094q11.719 0 18.406-7.625 6.7031-7.6094 6.7031-21.078 0-13.422-6.7031-21.078-6.6875-7.6406-18.406-7.6406-11.766 0-18.438 7.6406-6.6562 7.6562-6.6562 21.078 0 13.469 6.6562 21.078 6.6719 7.625 18.438 7.625z"/>
</defs>
<g transform="translate(411.12 1097.3) scale(.1 -.1)">
<use xlink:href="#d"/>
<use x="61.523438" xlink:href="#k"/>
<use x="158.935547" xlink:href="#y"/>
<use x="220.117188" xlink:href="#v"/>
<use x="259.326172" xlink:href="#i"/>
<use x="287.109375" xlink:href="#y"/>
<use x="348.291016" xlink:href="#f"/>
<use x="411.669922" xlink:href="#g"/>
<use x="472.949219" xlink:href="#j"/>
</g>
</g>
<g clip-path="url(#a)">
<defs>
<path id="as" d="m18.109 8.2031v-29h-9.0312v75.484h9.0312v-8.2969q2.8438 4.875 7.1562 7.2344 4.3281 2.375 10.328 2.375 9.9688 0 16.188-7.9062 6.2344-7.9062 6.2344-20.797t-6.2344-20.812q-6.2188-7.9062-16.188-7.9062-6 0-10.328 2.375-4.3125 2.375-7.1562 7.25zm30.578 19.094q0 9.9062-4.0781 15.547t-11.203 5.6406q-7.1406 0-11.219-5.6406t-4.0781-15.547 4.0781-15.547 11.219-5.6406q7.125 0 11.203 5.6406t4.0781 15.547z"/>
<path id="ah" d="m48.781 52.594v-8.4062q-3.8125 2.1094-7.6406 3.1562t-7.7344 1.0469q-8.75 0-13.594-5.5469-4.8281-5.5312-4.8281-15.547t4.8281-15.562q4.8438-5.5312 13.594-5.5312 3.9062 0 7.7344 1.0469t7.6406 3.1562v-8.3125q-3.7656-1.75-7.7969-2.625-4.0156-0.89062-8.5625-0.89062-12.359 0-19.641 7.7656-7.2656 7.7656-7.2656 20.953 0 13.375 7.3438 21.031 7.3594 7.6719 20.156 7.6719 4.1406 0 8.0938-0.85938 3.9531-0.84375 7.6719-2.5469z"/>
</defs>
<g transform="translate(456.43 1097.3) scale(.1 -.1)">
<use xlink:href="#p"/>
<use x="52.099609" xlink:href="#as"/>
<use x="115.576172" xlink:href="#d"/>
<use x="177.099609" xlink:href="#d"/>
<use x="238.623047" xlink:href="#ah"/>
<use x="293.603516" xlink:href="#w"/>
</g>
</g>
<g clip-path="url(#a)">
<defs>
<path id="ax" d="m11.719 51.703h10.297v-12.391h-10.297zm0-39.297h10.297v-8.4062l-8-15.625h-6.2969l4 15.625z"/>
</defs>
<g transform="translate(512.73 1097.3) scale(.1 -.1)">
<use xlink:href="#ax"/>
</g>
</g>
<g clip-path="url(#a)">
<g transform="translate(550.31 1097.3) scale(.1 -.1)">
<use xlink:href="#w"/>
<use x="63.378906" xlink:href="#d"/>
</g>
</g>
<g clip-path="url(#a)">
<defs>
<path id="ba" d="m9.0781 75.984h9.0312v-44.875l26.812 23.578h11.469l-29-25.578 30.234-29.109h-11.719l-27.797 26.703v-26.703h-9.0312z"/>
</defs>
<g transform="translate(580.38 1097.3) scale(.1 -.1)">
<use xlink:href="#v"/>
<use x="39.208984" xlink:href="#w"/>
<use x="102.587891" xlink:href="#g"/>
<use x="163.867188" xlink:href="#f"/>
<use x="227.246094" xlink:href="#ba"/>
<use x="281.53125" xlink:href="#d"/>
<use x="343.054688" xlink:href="#x"/>
</g>
</g>
<g clip-path="url(#a)">
<defs>
<path id="av" d="m59.516 10.406v19.578h-16.109v8.1094h25.875v-31.312q-5.7031-4.0469-12.594-6.125-6.875-2.0781-14.688-2.0781-17.094 0-26.75 9.9844-9.6406 10-9.6406 27.812 0 17.875 9.6406 27.859 9.6562 9.9844 26.75 9.9844 7.125 0 13.547-1.7656 6.4219-1.75 11.844-5.1719v-10.5q-5.4688 4.6406-11.625 6.9844t-12.938 2.3438q-13.391 0-20.109-7.4688-6.7031-7.4688-6.7031-22.266 0-14.75 6.7031-22.219 6.7188-7.4688 20.109-7.4688 5.2188 0 9.3125 0.90625 4.1094 0.90625 7.375 2.8125z"/>
</defs>
<g transform="translate(629.59 1097.3) scale(.1 -.1)">
<use xlink:href="#av"/>
<use x="77.490234" xlink:href="#i"/>
<use x="105.273438" xlink:href="#ai"/>
<use x="168.75" xlink:href="#p"/>
<use x="220.849609" xlink:href="#y"/>
<use x="282.03125" xlink:href="#f"/>
</g>
</g>
<g clip-path="url(#a)">
<g transform="translate(688.14 1097.3) scale(.1 -.1)">
<use xlink:href="#ag"/>
<use x="35.205078" xlink:href="#y"/>
<use x="96.386719" xlink:href="#h"/>
</g>
</g>
<g clip-path="url(#a)">
<g transform="translate(727.65 1097.3) scale(.1 -.1)">
<use xlink:href="#ah"/>
<use x="54.980469" xlink:href="#j"/>
<use x="82.763672" xlink:href="#y"/>
<use x="143.945312" xlink:href="#p"/>
<use x="196.044922" xlink:href="#i"/>
<use x="223.828125" xlink:href="#f"/>
<use x="287.207031" xlink:href="#ap"/>
</g>
</g>
<g clip-path="url(#a)">
<g transform="translate(785.3 1097.3) scale(.1 -.1)">
<use xlink:href="#d"/>
<use x="61.523438" xlink:href="#g"/>
<use x="122.802734" xlink:href="#ah"/>
<use x="177.783203" xlink:href="#w"/>
</g>
</g>
<g clip-path="url(#a)">
<g transform="translate(826.75 1097.3) scale(.1 -.1)">
<use xlink:href="#ai"/>
<use x="63.476562" xlink:href="#h"/>
<use x="102.339844" xlink:href="#y"/>
<use x="163.521484" xlink:href="#g"/>
<use x="224.800781" xlink:href="#x"/>
<use x="288.277344" xlink:href="#ah"/>
<use x="343.257812" xlink:href="#g"/>
<use x="404.537109" xlink:href="#p"/>
<use x="456.636719" xlink:href="#v"/>
</g>
</g>
<g clip-path="url(#a)">
<g transform="translate(897.12 1097.3) scale(.1 -.1)">
<use xlink:href="#an"/>
<use x="81.787109" xlink:href="#i"/>
<use x="109.570312" xlink:href="#v"/>
<use x="148.779297" xlink:href="#w"/>
</g>
</g>
<g clip-path="url(#a)">
<g transform="translate(957.72 1097.3) scale(.1 -.1)">
<use xlink:href="#v"/>
<use x="39.208984" xlink:href="#w"/>
<use x="102.587891" xlink:href="#d"/>
</g>
</g>
<g clip-path="url(#a)">
<g transform="translate(1009 1097.3) scale(.1 -.1)">
<use xlink:href="#as"/>
<use x="63.476562" xlink:href="#w"/>
<use x="126.855469" xlink:href="#h"/>
<use x="167.96875" xlink:href="#g"/>
<use x="229.248047" xlink:href="#p"/>
<use x="281.347656" xlink:href="#d"/>
</g>
</g>
<g clip-path="url(#a)">
<g transform="translate(1086.7 1097.3) scale(.1 -.1)">
<use xlink:href="#am"/>
</g>
</g>
<g clip-path="url(#a)">
<defs>
<path id="ar" d="m17.922 72.906v-27.109h-8.2969v27.109zm18.453 0v-27.109h-8.2969v27.109z"/>
</defs>
<g transform="translate(1150.2 1097.3) scale(.1 -.1)">
<use xlink:href="#ar"/>
</g>
</g>
<g clip-path="url(#a)">
<g transform="translate(1211.9 1097.3) scale(.1 -.1)">
<use xlink:href="#ag"/>
<use x="35.205078" xlink:href="#y"/>
<use x="96.386719" xlink:href="#h"/>
</g>
</g>
<g clip-path="url(#a)">
<g transform="translate(1274 1097.3) scale(.1 -.1)">
<use xlink:href="#ab"/>
<use x="56.677734" xlink:href="#d"/>
<use x="118.201172" xlink:href="#v"/>
<use x="157.410156" xlink:href="#d"/>
<use x="218.933594" xlink:href="#h"/>
</g>
</g>
<g clip-path="url(#a)">
<g transform="translate(1336 1097.3) scale(.1 -.1)">
<use xlink:href="#ak"/>
<use x="29.492188" xlink:href="#d"/>
<use x="91.015625" xlink:href="#f"/>
<use x="154.394531" xlink:href="#f"/>
<use x="217.773438" xlink:href="#i"/>
<use x="245.556641" xlink:href="#f"/>
<use x="308.935547" xlink:href="#ap"/>
<use x="372.412109" xlink:href="#p"/>
</g>
</g>
<g clip-path="url(#a)">
<g transform="translate(1420.1 1097.3) scale(.1 -.1)">
<use xlink:href="#g"/>
<use x="61.279297" xlink:href="#f"/>
<use x="124.658203" xlink:href="#x"/>
</g>
</g>
<g clip-path="url(#a)">
<g transform="translate(1497.9 1097.3) scale(.1 -.1)">
<use xlink:href="#g"/>
<use x="61.279297" xlink:href="#j"/>
<use x="89.0625" xlink:href="#j"/>
</g>
</g>
<g clip-path="url(#a)">
<g transform="translate(1575.2 1097.3) scale(.1 -.1)">
<use xlink:href="#y"/>
<use x="61.181641" xlink:href="#ag"/>
</g>
</g>
<g clip-path="url(#a)">
<g transform="translate(1652.5 1097.3) scale(.1 -.1)">
<use xlink:href="#ao"/>
<use x="63.378906" xlink:href="#p"/>
</g>
</g>
<g clip-path="url(#a)">
<g transform="translate(1733.5 1097.3) scale(.1 -.1)">
<use xlink:href="#g"/>
<use x="61.279297" xlink:href="#v"/>
</g>
</g>
<g clip-path="url(#a)">
<g transform="translate(1810.5 1097.3) scale(.1 -.1)">
<use xlink:href="#s"/>
<use x="68.408203" xlink:href="#aq"/>
<use x="135.261719" xlink:href="#r"/>
</g>
</g>
<g clip-path="url(#a)">
<g transform="translate(1891.5 1097.3) scale(.1 -.1)">
<use xlink:href="#aj"/>
<use x="74.804688" xlink:href="#d"/>
<use x="136.328125" xlink:href="#an"/>
<use x="218.115234" xlink:href="#p"/>
</g>
</g>
<g clip-path="url(#a)">
<defs>
<path id="e" d="m10.688 12.406h10.312v-12.406h-10.312z"/>
</defs>
<g transform="translate(1989.8 1097.3) scale(.1 -.1)">
<use xlink:href="#e"/>
</g>
</g>
<g clip-path="url(#a)">
<g transform="translate(2077.3 1097.3) scale(.1 -.1)">
<use xlink:href="#ar"/>
</g>
</g>
<g clip-path="url(#a)">
<defs>
<path id="c" d="m12.406 8.2969h16.109v55.625l-17.531-3.5156v8.9844l17.438 3.5156h9.8594v-64.609h16.109v-8.2969h-41.984z"/>
</defs>
<g transform="translate(334.22 54.881) scale(.1 -.1)">
<use xlink:href="#c"/>
<use x="63.623047" xlink:href="#e"/>
<use x="95.410156" xlink:href="#c"/>
</g>
</g>
<g clip-path="url(#a)">
<defs>
<path id="q" d="m19.188 8.2969h34.422v-8.2969h-46.281v8.2969q5.6094 5.8125 15.297 15.594 9.7031 9.7969 12.188 12.641 4.7344 5.3125 6.6094 9 1.8906 3.6875 1.8906 7.25 0 5.8125-4.0781 9.4688-4.0781 3.6719-10.625 3.6719-4.6406 0-9.7969-1.6094-5.1406-1.6094-11-4.8906v9.9688q5.9531 2.3906 11.125 3.6094 5.1875 1.2188 9.4844 1.2188 11.328 0 18.062-5.6719 6.7344-5.6562 6.7344-15.125 0-4.5-1.6875-8.5312-1.6719-4.0156-6.125-9.4844-1.2188-1.4219-7.7656-8.1875-6.5312-6.7656-18.453-18.922z"/>
</defs>
<g transform="translate(121.85 579.69) scale(.1 -.1)">
<use xlink:href="#c"/>
<use x="63.623047" xlink:href="#e"/>
<use x="95.410156" xlink:href="#q"/>
</g>
</g>
<g clip-path="url(#a)">
<defs>
<path id="o" d="m40.578 39.312q7.0781-1.5156 11.047-6.3125 3.9844-4.7812 3.9844-11.812 0-10.781-7.4219-16.703-7.4219-5.9062-21.094-5.9062-4.5781 0-9.4375 0.90625t-10.031 2.7188v9.5156q4.0938-2.3906 8.9688-3.6094 4.8906-1.2188 10.219-1.2188 9.2656 0 14.125 3.6562t4.8594 10.641q0 6.4531-4.5156 10.078-4.5156 3.6406-12.562 3.6406h-8.5v8.1094h8.8906q7.2656 0 11.125 2.9062t3.8594 8.375q0 5.6094-3.9844 8.6094-3.9688 3.0156-11.391 3.0156-4.0625 0-8.7031-0.89062-4.6406-0.875-10.203-2.7188v8.7812q5.625 1.5625 10.531 2.3438t9.25 0.78125q11.234 0 17.766-5.1094 6.5469-5.0938 6.5469-13.781 0-6.0625-3.4688-10.234t-9.8594-5.7812z"/>
</defs>
<g transform="translate(241.58 969.68) scale(.1 -.1)">
<use xlink:href="#c"/>
<use x="63.623047" xlink:href="#e"/>
<use x="95.410156" xlink:href="#o"/>
</g>
</g>
<g clip-path="url(#a)">
<defs>
<path id="m" d="m37.797 64.312-24.906-38.922h24.906zm-2.5938 8.5938h12.406v-47.516h10.406v-8.2031h-10.406v-17.188h-9.8125v17.188h-32.906v9.5156z"/>
</defs>
<g transform="translate(274.69 579.69) scale(.1 -.1)">
<use xlink:href="#c"/>
<use x="63.623047" xlink:href="#e"/>
<use x="95.410156" xlink:href="#m"/>
</g>
</g>
<g clip-path="url(#a)">
<defs>
<path id="n" d="m10.797 72.906h38.719v-8.3125h-29.688v-17.859q2.1406 0.73438 4.2812 1.0938 2.1562 0.35938 4.3125 0.35938 12.203 0 19.328-6.6875 7.1406-6.6875 7.1406-18.109 0-11.766-7.3281-18.297-7.3281-6.5156-20.656-6.5156-4.5938 0-9.3594 0.78125-4.75 0.78125-9.8281 2.3438v9.9219q4.3906-2.3906 9.0781-3.5625t9.9062-1.1719q8.4531 0 13.375 4.4375 4.9375 4.4375 4.9375 12.062 0 7.6094-4.9375 12.047-4.9219 4.4531-13.375 4.4531-3.9531 0-7.8906-0.875-3.9219-0.875-8.0156-2.7344z"/>
</defs>
<g transform="translate(643.23 186.4) scale(.1 -.1)">
<use xlink:href="#c"/>
<use x="63.623047" xlink:href="#e"/>
<use x="95.410156" xlink:href="#n"/>
</g>
</g>
<g clip-path="url(#a)">
<defs>
<path id="ac" d="m31.781 66.406q-7.6094 0-11.453-7.5-3.8281-7.4844-3.8281-22.531 0-14.984 3.8281-22.484 3.8438-7.5 11.453-7.5 7.6719 0 11.5 7.5 3.8438 7.5 3.8438 22.484 0 15.047-3.8438 22.531-3.8281 7.5-11.5 7.5zm0 7.8125q12.266 0 18.734-9.7031 6.4688-9.6875 6.4688-28.141 0-18.406-6.4688-28.109-6.4688-9.6875-18.734-9.6875-12.25 0-18.719 9.6875-6.4688 9.7031-6.4688 28.109 0 18.453 6.4688 28.141 6.4688 9.7031 18.719 9.7031z"/>
</defs>
<g transform="translate(545.42 969.68) scale(.1 -.1)">
<use xlink:href="#c"/>
<use x="63.623047" xlink:href="#e"/>
<use x="95.410156" xlink:href="#c"/>
<use x="159.033203" xlink:href="#ac"/>
</g>
</g>
<g clip-path="url(#a)">
<g transform="translate(589.57 969.68) scale(.1 -.1)">
<use xlink:href="#c"/>
<use x="63.623047" xlink:href="#e"/>
<use x="95.410156" xlink:href="#c"/>
<use x="159.033203" xlink:href="#c"/>
</g>
</g>
<g clip-path="url(#a)">
<g transform="translate(635.72 969.68) scale(.1 -.1)">
<use xlink:href="#c"/>
<use x="63.623047" xlink:href="#e"/>
<use x="95.410156" xlink:href="#c"/>
<use x="159.033203" xlink:href="#q"/>
</g>
</g>
<g clip-path="url(#a)">
<g transform="translate(789.46 317.73) scale(.1 -.1)">
<use xlink:href="#c"/>
<use x="63.623047" xlink:href="#e"/>
<use x="95.410156" xlink:href="#c"/>
<use x="159.033203" xlink:href="#o"/>
</g>
</g>
<g clip-path="url(#a)">
<g transform="translate(683.89 969.68) scale(.1 -.1)">
<use xlink:href="#c"/>
<use x="63.623047" xlink:href="#e"/>
<use x="95.410156" xlink:href="#c"/>
<use x="159.033203" xlink:href="#m"/>
</g>
</g>
<g clip-path="url(#a)">
<g transform="translate(734.05 969.68) scale(.1 -.1)">
<use xlink:href="#c"/>
<use x="63.623047" xlink:href="#e"/>
<use x="95.410156" xlink:href="#c"/>
<use x="159.033203" xlink:href="#n"/>
</g>
</g>
<g clip-path="url(#a)">
<defs>
<path id="u" d="m33.016 40.375q-6.6406 0-10.531-4.5469-3.875-4.5312-3.875-12.438 0-7.8594 3.875-12.438 3.8906-4.5625 10.531-4.5625t10.516 4.5625q3.875 4.5781 3.875 12.438 0 7.9062-3.875 12.438-3.875 4.5469-10.516 4.5469zm19.578 30.922v-8.9844q-3.7188 1.75-7.5 2.6719-3.7812 0.9375-7.5 0.9375-9.7656 0-14.922-6.5938-5.1406-6.5938-5.875-19.922 2.875 4.25 7.2188 6.5156 4.3594 2.2656 9.5781 2.2656 10.984 0 17.359-6.6719 6.375-6.6562 6.375-18.125 0-11.234-6.6406-18.031-6.6406-6.7812-17.672-6.7812-12.656 0-19.344 9.6875-6.6875 9.7031-6.6875 28.109 0 17.281 8.2031 27.562t22.016 10.281q3.7188 0 7.5-0.73438t7.8906-2.1875z"/>
</defs>
<g transform="translate(813.32 840.29) scale(.1 -.1)">
<use xlink:href="#c"/>
<use x="63.623047" xlink:href="#e"/>
<use x="95.410156" xlink:href="#c"/>
<use x="159.033203" xlink:href="#u"/>
</g>
</g>
<g clip-path="url(#a)">
<defs>
<path id="af" d="m8.2031 72.906h46.875v-4.2031l-26.469-68.703h-10.297l24.906 64.594h-35.016z"/>
</defs>
<g transform="translate(1080.3 448.84) scale(.1 -.1)">
<use xlink:href="#c"/>
<use x="63.623047" xlink:href="#e"/>
<use x="95.410156" xlink:href="#c"/>
<use x="159.033203" xlink:href="#af"/>
</g>
</g>
<g clip-path="url(#a)">
<defs>
<path id="ae" d="m31.781 34.625q-7.0312 0-11.062-3.7656-4.0156-3.7656-4.0156-10.344 0-6.5938 4.0156-10.359 4.0312-3.7656 11.062-3.7656t11.078 3.7812q4.0625 3.7969 4.0625 10.344 0 6.5781-4.0312 10.344-4.0156 3.7656-11.109 3.7656zm-9.8594 4.1875q-6.3438 1.5625-9.8906 5.9062-3.5312 4.3594-3.5312 10.609 0 8.7344 6.2188 13.812 6.2344 5.0781 17.062 5.0781 10.891 0 17.094-5.0781t6.2031-13.812q0-6.25-3.5469-10.609-3.5312-4.3438-9.8281-5.9062 7.125-1.6562 11.094-6.5 3.9844-4.8281 3.9844-11.797 0-10.609-6.4688-16.281-6.4688-5.6562-18.531-5.6562-12.047 0-18.531 5.6562-6.4688 5.6719-6.4688 16.281 0 6.9688 4 11.797 4.0156 4.8438 11.141 6.5zm-3.6094 15.578q0-5.6562 3.5312-8.8281 3.5469-3.1719 9.9375-3.1719 6.3594 0 9.9375 3.1719 3.5938 3.1719 3.5938 8.8281 0 5.6719-3.5938 8.8438-3.5781 3.1719-9.9375 3.1719-6.3906 0-9.9375-3.1719-3.5312-3.1719-3.5312-8.8438z"/>
</defs>
<g transform="translate(896.59 969.68) scale(.1 -.1)">
<use xlink:href="#c"/>
<use x="63.623047" xlink:href="#e"/>
<use x="95.410156" xlink:href="#c"/>
<use x="159.033203" xlink:href="#ae"/>
</g>
</g>
<g clip-path="url(#a)">
<defs>
<path id="ad" d="m10.984 1.5156v8.9844q3.7188-1.7656 7.5156-2.6875 3.8125-0.92188 7.4844-0.92188 9.7656 0 14.906 6.5625 5.1562 6.5625 5.8906 19.953-2.8281-4.2031-7.1875-6.4531-4.3438-2.25-9.6094-2.25-10.938 0-17.312 6.6094-6.375 6.625-6.375 18.109 0 11.219 6.6406 18 6.6406 6.7969 17.672 6.7969 12.656 0 19.312-9.7031 6.6719-9.6875 6.6719-28.141 0-17.234-8.1875-27.516-8.1719-10.281-21.984-10.281-3.7188 0-7.5312 0.73438-3.7969 0.73438-7.9062 2.2031zm19.625 30.906q6.6406 0 10.516 4.5312 3.8906 4.5469 3.8906 12.469 0 7.8594-3.8906 12.422-3.875 4.5625-10.516 4.5625t-10.516-4.5625-3.875-12.422q0-7.9219 3.875-12.469 3.875-4.5312 10.516-4.5312z"/>
</defs>
<g transform="translate(954.79 969.68) scale(.1 -.1)">
<use xlink:href="#c"/>
<use x="63.623047" xlink:href="#e"/>
<use x="95.410156" xlink:href="#c"/>
<use x="159.033203" xlink:href="#ad"/>
</g>
</g>
<g clip-path="url(#a)">
<g transform="translate(1015 969.68) scale(.1 -.1)">
<use xlink:href="#c"/>
<use x="63.623047" xlink:href="#e"/>
<use x="95.410156" xlink:href="#q"/>
<use x="159.033203" xlink:href="#ac"/>
</g>
</g>
<g clip-path="url(#a)">
<g transform="translate(1397 579.69) scale(.1 -.1)">
<use xlink:href="#c"/>
<use x="63.623047" xlink:href="#e"/>
<use x="95.410156" xlink:href="#q"/>
<use x="159.033203" xlink:href="#c"/>
</g>
</g>
<g clip-path="url(#a)">
<g transform="translate(1207.6 969.68) scale(.1 -.1)">
<use xlink:href="#c"/>
<use x="63.623047" xlink:href="#e"/>
<use x="95.410156" xlink:href="#q"/>
<use x="159.033203" xlink:href="#m"/>
</g>
</g>
<g clip-path="url(#a)">
<g transform="translate(1311 969.68) scale(.1 -.1)">
<use xlink:href="#c"/>
<use x="63.623047" xlink:href="#e"/>
<use x="95.410156" xlink:href="#q"/>
<use x="159.033203" xlink:href="#n"/>
</g>
</g>
<g clip-path="url(#a)">
<g transform="translate(1418.3 969.68) scale(.1 -.1)">
<use xlink:href="#c"/>
<use x="63.623047" xlink:href="#e"/>
<use x="95.410156" xlink:href="#q"/>
<use x="159.033203" xlink:href="#u"/>
</g>
</g>
<g clip-path="url(#a)">
<g transform="translate(1651.1 710.21) scale(.1 -.1)">
<use xlink:href="#c"/>
<use x="63.623047" xlink:href="#e"/>
<use x="95.410156" xlink:href="#q"/>
<use x="159.033203" xlink:href="#af"/>
</g>
</g>
<g clip-path="url(#a)">
<g transform="translate(1492.6 969.68) scale(.1 -.1)">
<use xlink:href="#c"/>
<use x="63.623047" xlink:href="#e"/>
<use x="95.410156" xlink:href="#q"/>
<use x="159.033203" xlink:href="#ae"/>
</g>
</g>
<g clip-path="url(#a)">
<g transform="translate(1568.8 969.68) scale(.1 -.1)">
<use xlink:href="#c"/>
<use x="63.623047" xlink:href="#e"/>
<use x="95.410156" xlink:href="#q"/>
<use x="159.033203" xlink:href="#ad"/>
</g>
</g>
<g clip-path="url(#a)">
<g transform="translate(1647.1 969.68) scale(.1 -.1)">
<use xlink:href="#c"/>
<use x="63.623047" xlink:href="#e"/>
<use x="95.410156" xlink:href="#o"/>
<use x="159.033203" xlink:href="#ac"/>
</g>
</g>
<g clip-path="url(#a)">
<g transform="translate(1895.9 840.29) scale(.1 -.1)">
<use xlink:href="#c"/>
<use x="63.623047" xlink:href="#e"/>
<use x="95.410156" xlink:href="#o"/>
<use x="159.033203" xlink:href="#c"/>
</g>
</g>
<g clip-path="url(#a)">
<g transform="translate(1727.4 969.68) scale(.1 -.1)">
<use xlink:href="#c"/>
<use x="63.623047" xlink:href="#e"/>
<use x="95.410156" xlink:href="#o"/>
<use x="159.033203" xlink:href="#q"/>
</g>
</g>
<g clip-path="url(#a)">
<g transform="translate(1809.6 969.68) scale(.1 -.1)">
<use xlink:href="#c"/>
<use x="63.623047" xlink:href="#e"/>
<use x="95.410156" xlink:href="#o"/>
<use x="159.033203" xlink:href="#o"/>
</g>
</g>
<g clip-path="url(#a)">
<g transform="translate(1893.9 969.68) scale(.1 -.1)">
<use xlink:href="#c"/>
<use x="63.623047" xlink:href="#e"/>
<use x="95.410156" xlink:href="#o"/>
<use x="159.033203" xlink:href="#m"/>
</g>
</g>
<g clip-path="url(#a)">
<g transform="translate(786.23 969.68) scale(.1 -.1)">
<use xlink:href="#c"/>
<use x="63.623047" xlink:href="#e"/>
<use x="95.410156" xlink:href="#o"/>
<use x="159.033203" xlink:href="#n"/>
</g>
</g>
<g clip-path="url(#a)">
<g transform="translate(840.41 969.68) scale(.1 -.1)">
<use xlink:href="#c"/>
<use x="63.623047" xlink:href="#e"/>
<use x="95.410156" xlink:href="#o"/>
<use x="159.033203" xlink:href="#u"/>
</g>
</g>
<g clip-path="url(#a)">
<g transform="translate(264.49 969.68) scale(.1 -.1)">
<use xlink:href="#c"/>
<use x="63.623047" xlink:href="#e"/>
<use x="95.410156" xlink:href="#o"/>
<use x="159.033203" xlink:href="#af"/>
</g>
</g>
<g clip-path="url(#a)">
<g transform="translate(307.63 840.29) scale(.1 -.1)">
<use xlink:href="#c"/>
<use x="63.623047" xlink:href="#e"/>
<use x="95.410156" xlink:href="#o"/>
<use x="159.033203" xlink:href="#ae"/>
</g>
</g>
<g clip-path="url(#a)">
<g transform="translate(401.94 710.21) scale(.1 -.1)">
<use xlink:href="#c"/>
<use x="63.623047" xlink:href="#e"/>
<use x="95.410156" xlink:href="#o"/>
<use x="159.033203" xlink:href="#ad"/>
</g>
</g>
<g clip-path="url(#a)">
<g transform="translate(354.79 969.68) scale(.1 -.1)">
<use xlink:href="#c"/>
<use x="63.623047" xlink:href="#e"/>
<use x="95.410156" xlink:href="#m"/>
<use x="159.033203" xlink:href="#ac"/>
</g>
</g>
<g clip-path="url(#a)">
<g transform="translate(426.03 840.29) scale(.1 -.1)">
<use xlink:href="#c"/>
<use x="63.623047" xlink:href="#e"/>
<use x="95.410156" xlink:href="#m"/>
<use x="159.033203" xlink:href="#c"/>
</g>
</g>
<g clip-path="url(#a)">
<g transform="translate(425.02 969.68) scale(.1 -.1)">
<use xlink:href="#c"/>
<use x="63.623047" xlink:href="#e"/>
<use x="95.410156" xlink:href="#m"/>
<use x="159.033203" xlink:href="#q"/>
</g>
</g>
<g clip-path="url(#a)">
<g transform="translate(388.9 969.68) scale(.1 -.1)">
<use xlink:href="#c"/>
<use x="63.623047" xlink:href="#e"/>
<use x="95.410156" xlink:href="#m"/>
<use x="159.033203" xlink:href="#o"/>
</g>
</g>
<g clip-path="url(#a)">
<g transform="translate(463.15 969.68) scale(.1 -.1)">
<use xlink:href="#c"/>
<use x="63.623047" xlink:href="#e"/>
<use x="95.410156" xlink:href="#m"/>
<use x="159.033203" xlink:href="#m"/>
</g>
</g>
<g clip-path="url(#a)">
<g transform="translate(292.58 969.68) scale(.1 -.1)">
<use xlink:href="#c"/>
<use x="63.623047" xlink:href="#e"/>
<use x="95.410156" xlink:href="#m"/>
<use x="159.033203" xlink:href="#n"/>
</g>
</g>
<g clip-path="url(#a)">
<g transform="translate(322.68 969.68) scale(.1 -.1)">
<use xlink:href="#c"/>
<use x="63.623047" xlink:href="#e"/>
<use x="95.410156" xlink:href="#m"/>
<use x="159.033203" xlink:href="#u"/>
</g>
</g>
<g clip-path="url(#a)">
<g transform="translate(90.908 840.29) scale(.1 -.1)">
<use xlink:href="#c"/>
<use x="63.623047" xlink:href="#e"/>
<use x="95.410156" xlink:href="#m"/>
<use x="159.033203" xlink:href="#af"/>
</g>
</g>
<g clip-path="url(#a)">
<g transform="translate(111.98 969.68) scale(.1 -.1)">
<use xlink:href="#c"/>
<use x="63.623047" xlink:href="#e"/>
<use x="95.410156" xlink:href="#m"/>
<use x="159.033203" xlink:href="#ae"/>
</g>
</g>
<g clip-path="url(#a)">
<g transform="translate(124.02 969.68) scale(.1 -.1)">
<use xlink:href="#c"/>
<use x="63.623047" xlink:href="#e"/>
<use x="95.410156" xlink:href="#m"/>
<use x="159.033203" xlink:href="#ad"/>
</g>
</g>
<g clip-path="url(#a)">
<g transform="translate(164.49 710.21) scale(.1 -.1)">
<use xlink:href="#c"/>
<use x="63.623047" xlink:href="#e"/>
<use x="95.410156" xlink:href="#n"/>
<use x="159.033203" xlink:href="#ac"/>
</g>
</g>
<g clip-path="url(#a)">
<g transform="translate(138.06 969.68) scale(.1 -.1)">
<use xlink:href="#c"/>
<use x="63.623047" xlink:href="#e"/>
<use x="95.410156" xlink:href="#n"/>
<use x="159.033203" xlink:href="#q"/>
</g>
</g>
<g clip-path="url(#a)">
<g transform="translate(163.15 840.29) scale(.1 -.1)">
<use xlink:href="#c"/>
<use x="63.623047" xlink:href="#e"/>
<use x="95.410156" xlink:href="#n"/>
<use x="159.033203" xlink:href="#o"/>
</g>
</g>
<g clip-path="url(#a)">
<g transform="translate(192.25 969.68) scale(.1 -.1)">
<use xlink:href="#c"/>
<use x="63.623047" xlink:href="#e"/>
<use x="95.410156" xlink:href="#n"/>
<use x="159.033203" xlink:href="#m"/>
</g>
</g>
<g clip-path="url(#a)">
<g transform="translate(154.12 969.68) scale(.1 -.1)">
<use xlink:href="#c"/>
<use x="63.623047" xlink:href="#e"/>
<use x="95.410156" xlink:href="#n"/>
<use x="159.033203" xlink:href="#n"/>
</g>
</g>
<g clip-path="url(#a)">
<g transform="translate(172.18 969.68) scale(.1 -.1)">
<use xlink:href="#c"/>
<use x="63.623047" xlink:href="#e"/>
<use x="95.410156" xlink:href="#n"/>
<use x="159.033203" xlink:href="#u"/>
</g>
</g>
<g clip-path="url(#a)">
<g transform="translate(87.897 969.68) scale(.1 -.1)">
<use xlink:href="#c"/>
<use x="63.623047" xlink:href="#e"/>
<use x="95.410156" xlink:href="#n"/>
<use x="159.033203" xlink:href="#af"/>
</g>
</g>
<g clip-path="url(#a)">
<g transform="translate(93.918 969.68) scale(.1 -.1)">
<use xlink:href="#c"/>
<use x="63.623047" xlink:href="#e"/>
<use x="95.410156" xlink:href="#n"/>
<use x="159.033203" xlink:href="#ae"/>
</g>
</g>
<g clip-path="url(#a)">
<g transform="translate(101.94 969.68) scale(.1 -.1)">
<use xlink:href="#c"/>
<use x="63.623047" xlink:href="#e"/>
<use x="95.410156" xlink:href="#n"/>
<use x="159.033203" xlink:href="#ad"/>
</g>
</g>
<g clip-path="url(#a)">
<g transform="translate(214.32 969.68) scale(.1 -.1)">
<use xlink:href="#c"/>
<use x="63.623047" xlink:href="#e"/>
<use x="95.410156" xlink:href="#u"/>
<use x="159.033203" xlink:href="#ac"/>
</g>
</g>
<g clip-path="url(#a)">
<g transform="translate(503.28 969.68) scale(.1 -.1)">
<use xlink:href="#c"/>
<use x="63.623047" xlink:href="#e"/>
<use x="95.410156" xlink:href="#u"/>
<use x="159.033203" xlink:href="#c"/>
</g>
</g>
<g clip-path="url(#a)">
<g transform="translate(1077.2 969.68) scale(.1 -.1)">
<use xlink:href="#c"/>
<use x="63.623047" xlink:href="#e"/>
<use x="95.410156" xlink:href="#u"/>
<use x="159.033203" xlink:href="#q"/>
</g>
</g>
<g clip-path="url(#a)">
<g transform="translate(1141.4 969.68) scale(.1 -.1)">
<use xlink:href="#c"/>
<use x="63.623047" xlink:href="#e"/>
<use x="95.410156" xlink:href="#u"/>
<use x="159.033203" xlink:href="#o"/>
</g>
</g>
<g clip-path="url(#a)">
<g transform="translate(1980.2 969.68) scale(.1 -.1)">
<use xlink:href="#c"/>
<use x="63.623047" xlink:href="#e"/>
<use x="95.410156" xlink:href="#u"/>
<use x="159.033203" xlink:href="#m"/>
</g>
</g>
<g clip-path="url(#a)">
<g transform="translate(2068.5 969.68) scale(.1 -.1)">
<use xlink:href="#c"/>
<use x="63.623047" xlink:href="#e"/>
<use x="95.410156" xlink:href="#u"/>
<use x="159.033203" xlink:href="#n"/>
</g>
</g>
<defs>
<clipPath id="a">
<rect width="2178.7" height="1146.7"/>
</clipPath>
</defs>
</svg>
