<?xml version="1.0" encoding="UTF-8"?>
<!DOCTYPE svg  PUBLIC '-//W3C//DTD SVG 1.1//EN'  'http://www.w3.org/Graphics/SVG/1.1/DTD/svg11.dtd'>
<svg width="1672pt" height="880pt" version="1.1" viewBox="0 0 1672 880" xmlns="http://www.w3.org/2000/svg" xmlns:xlink="http://www.w3.org/1999/xlink">
<defs>
<style type="text/css">*{stroke-linecap:butt;stroke-linejoin:round;}</style>
</defs>
<path d="m0 880h1672v-880h-1672z" fill="#fff"/>
<g fill="none" stroke="#000">
<path d="m362.92 40 341.47 161.43" clip-path="url(#a)"/>
<path d="m362.92 40-202.33 642.55" clip-path="url(#a)"/>
<path d="m362.92 40-166.45 482.92" clip-path="url(#a)"/>
<path d="m362.92 40-20.342 482.92" clip-path="url(#a)"/>
<path d="m362.92 40 147.12 482.92" clip-path="url(#a)"/>
<path d="m362.92 40-222.84 642.55" clip-path="url(#a)"/>
<path d="m362.92 40-122.87 642.55" clip-path="url(#a)"/>
<path d="m362.92 40 246.23 642.55" clip-path="url(#a)"/>
<path d="m704.39 201.43-607.89 321.49" clip-path="url(#a)"/>
<path d="m704.39 201.43-41.411 481.13" clip-path="url(#a)"/>
<path d="m704.39 201.43 14.981 481.13" clip-path="url(#a)"/>
<path d="m704.39 201.43 147.41 321.49" clip-path="url(#a)"/>
<path d="m704.39 201.43 486.9 161.02" clip-path="url(#a)"/>
<path d="m160.59 682.55v157.45" clip-path="url(#a)"/>
<path d="m196.47 522.92 15.379 159.64" clip-path="url(#a)"/>
<path d="m196.47 522.92-12.816 159.64" clip-path="url(#a)"/>
<path d="m196.47 522.92 12.816 159.64" clip-path="url(#a)"/>
<path d="m342.58 522.92-71.771 159.64" clip-path="url(#a)"/>
<path d="m342.58 522.92-38.449 159.64" clip-path="url(#a)"/>
<path d="m342.58 522.92-2.5632 159.64" clip-path="url(#a)"/>
<path d="m342.58 522.92 35.885 159.64" clip-path="url(#a)"/>
<path d="m342.58 522.92 76.897 159.64" clip-path="url(#a)"/>
<path d="m510.04 522.92-46.993 159.64" clip-path="url(#a)"/>
<path d="m510.04 522.92-0.85441 159.64" clip-path="url(#a)"/>
<path d="m510.04 522.92 47.847 159.64" clip-path="url(#a)"/>
<path d="m463.05 682.55v157.45" clip-path="url(#a)"/>
<path d="m509.19 682.55v157.45" clip-path="url(#a)"/>
<path d="m557.89 682.55v157.45" clip-path="url(#a)"/>
<path d="m270.81 682.55v157.45" clip-path="url(#a)"/>
<path d="m304.13 682.55v157.45" clip-path="url(#a)"/>
<path d="m340.01 682.55v157.45" clip-path="url(#a)"/>
<path d="m378.46 682.55v157.45" clip-path="url(#a)"/>
<path d="m419.47 682.55v157.45" clip-path="url(#a)"/>
<path d="m183.66 682.55v157.45" clip-path="url(#a)"/>
<path d="m209.29 682.55v157.45" clip-path="url(#a)"/>
<path d="m96.506 522.92-20.506 159.64" clip-path="url(#a)"/>
<path d="m96.506 522.92-12.816 159.64" clip-path="url(#a)"/>
<path d="m96.506 522.92-2.5632 159.64" clip-path="url(#a)"/>
<path d="m96.506 522.92 25.632 159.64" clip-path="url(#a)"/>
<path d="m96.506 522.92 10.253 159.64" clip-path="url(#a)"/>
<path d="m662.98 682.55v157.45" clip-path="url(#a)"/>
<path d="m719.37 682.55v157.45" clip-path="url(#a)"/>
<path d="m851.81 522.92-73.479 159.64" clip-path="url(#a)"/>
<path d="m851.81 522.92-11.962 159.64" clip-path="url(#a)"/>
<path d="m851.81 522.92 85.441 159.64" clip-path="url(#a)"/>
<path d="m1191.3 362.45-151.52 320.11" clip-path="url(#a)"/>
<path d="m1191.3 362.45-5.4113 320.11" clip-path="url(#a)"/>
<path d="m1191.3 362.45 236.67 160.47" clip-path="url(#a)"/>
<path d="m1191.3 362.45-79.745 320.11" clip-path="url(#a)"/>
<path d="m1039.8 682.55v157.45" clip-path="url(#a)"/>
<path d="m1185.9 682.55v157.45" clip-path="url(#a)"/>
<path d="m1428 522.92-165.19 159.64" clip-path="url(#a)"/>
<path d="m1428 522.92-2.848 159.64" clip-path="url(#a)"/>
<path d="m1428 522.92 168.03 159.64" clip-path="url(#a)"/>
<path d="m1262.8 682.55v157.45" clip-path="url(#a)"/>
<path d="m1425.1 682.55-82.878 157.45" clip-path="url(#a)"/>
<path d="m1425.1 682.55-0.85441 157.45" clip-path="url(#a)"/>
<path d="m1425.1 682.55 83.732 157.45" clip-path="url(#a)"/>
<path d="m778.33 682.55v157.45" clip-path="url(#a)"/>
<path d="m839.84 682.55v157.45" clip-path="url(#a)"/>
<path d="m937.25 682.55-33.322 157.45" clip-path="url(#a)"/>
<path d="m937.25 682.55 33.322 157.45" clip-path="url(#a)"/>
<path d="m76 682.55v157.45" clip-path="url(#a)"/>
<path d="m83.69 682.55v157.45" clip-path="url(#a)"/>
<path d="m93.943 682.55v157.45" clip-path="url(#a)"/>
<path d="m122.14 682.55v157.45" clip-path="url(#a)"/>
<path d="m106.76 682.55v157.45" clip-path="url(#a)"/>
<path d="m140.08 682.55v157.45" clip-path="url(#a)"/>
<path d="m240.05 682.55v157.45" clip-path="url(#a)"/>
<path d="m609.15 682.55v157.45" clip-path="url(#a)"/>
<path d="m1111.5 682.55v157.45" clip-path="url(#a)"/>
<path d="m1596 682.55v157.45" clip-path="url(#a)"/>
</g>
<path d="m528.26 125.1 5.4391 2.5713q2.1698 1.0257 3.1955-1.144l3.309-6.9998q1.0257-2.1698-1.144-3.1955l-5.4391-2.5713q-2.1698-1.0257-3.1955 1.144l-3.309 6.9998q-1.0257 2.1698 1.144 3.1955z" clip-path="url(#a)" fill="#fff" stroke="#fff"/>
<g clip-path="url(#a)">
<defs>
<path id="ai" d="m9.8125 72.906h9.8594v-29.891h35.844v29.891h9.8594v-72.906h-9.8594v34.719h-35.844v-34.719h-9.8594z"/>
</defs>
<g transform="translate(529.99 121.42) rotate(25.302) scale(.08 -.08)">
<use xlink:href="#ai"/>
</g>
</g>
<path d="m267.07 365.29 1.3388-4.2517q0.72084-2.2892-1.5684-3.01l-7.385-2.3254q-2.2892-0.72084-3.01 1.5684l-1.3388 4.2517q-0.72084 2.2892 1.5684 3.01l7.385 2.3254q2.2892 0.72084 3.01-1.5684z" clip-path="url(#a)" fill="#fff" stroke="#fff"/>
<g clip-path="url(#a)">
<defs>
<path id="ag" d="m9.8125 72.906h9.8594v-64.609h35.5v-8.2969h-45.359z"/>
</defs>
<g transform="translate(263.19 364.07) rotate(-72.521) scale(.08 -.08)">
<use xlink:href="#ag"/>
</g>
</g>
<path d="m284.64 286.35 1.9604-5.6879q0.78205-2.269-1.487-3.0511l-7.3199-2.5229q-2.269-0.78206-3.0511 1.487l-1.9604 5.6879q-0.78205 2.269 1.487 3.0511l7.3199 2.5229q2.269 0.78205 3.0511-1.487z" clip-path="url(#a)" fill="#fff" stroke="#fff"/>
<g clip-path="url(#a)">
<g transform="translate(280.8 285.02) rotate(-70.983) scale(.08 -.08)">
<use xlink:href="#ai"/>
</g>
</g>
<path d="m358.92 283.95 0.1876-4.4536q0.10101-2.3979-2.2969-2.4989l-7.7356-0.32585q-2.3979-0.10101-2.4989 2.2969l-0.1876 4.4536q-0.10101 2.3979 2.2969 2.4989l7.7356 0.32585q2.3979 0.10101 2.4989-2.2969z" clip-path="url(#a)" fill="#fff" stroke="#fff"/>
<g clip-path="url(#a)">
<g transform="translate(354.86 283.78) rotate(-87.588) scale(.08 -.08)">
<use xlink:href="#ag"/>
</g>
</g>
<path d="m429.6 280.41 1.7533 5.7551q0.69943 2.2958 2.9953 1.5964l7.4064-2.2564q2.2958-0.69943 1.5964-2.9953l-1.7533-5.7551q-0.69943-2.2958-2.9953-1.5964l-7.4064 2.2564q-2.2958 0.69943-1.5964 2.9953z" clip-path="url(#a)" fill="#fff" stroke="#fff"/>
<g clip-path="url(#a)">
<g transform="translate(433.49 279.23) rotate(73.056) scale(.08 -.08)">
<use xlink:href="#ai"/>
</g>
</g>
<path d="m256.47 366.1 1.9184-5.5318q0.78637-2.2675-1.4811-3.0539l-7.3151-2.5369q-2.2675-0.78637-3.0539 1.4811l-1.9184 5.5318q-0.78637 2.2675 1.4811 3.0539l7.3151 2.5369q2.2675 0.78637 3.0539-1.4811z" clip-path="url(#a)" fill="#fff" stroke="#fff"/>
<g clip-path="url(#a)">
<defs>
<path id="v" d="m8.6875 72.906h9.9219v-44.297q0-11.719 4.2344-16.875 4.25-5.1406 13.781-5.1406 9.4688 0 13.719 5.1406 4.25 5.1562 4.25 16.875v44.297h9.9062v-45.516q0-14.25-7.0625-21.531-7.0469-7.2812-20.812-7.2812-13.828 0-20.891 7.2812-7.0469 7.2812-7.0469 21.531z"/>
</defs>
<g transform="translate(252.63 364.77) rotate(-70.873) scale(.08 -.08)">
<use xlink:href="#v"/>
</g>
</g>
<path d="m307.09 365.33 1.0997-5.7508q0.45077-2.3573-1.9065-2.8081l-7.6047-1.4542q-2.3573-0.45077-2.8081 1.9065l-1.0997 5.7508q-0.45077 2.3573 1.9065 2.8081l7.6047 1.4542q2.3573 0.45077 2.8081-1.9065z" clip-path="url(#a)" fill="#fff" stroke="#fff"/>
<g clip-path="url(#a)">
<g transform="translate(303.1 364.57) rotate(-79.174) scale(.08 -.08)">
<use xlink:href="#v"/>
</g>
</g>
<path d="m479.13 360.79 2.0951 5.4673q0.85881 2.2411 3.0999 1.3823l7.2298-2.7706q2.2411-0.85881 1.3823-3.0999l-2.0951-5.4673q-0.85881-2.2411-3.0999-1.3823l-7.2298 2.7706q-2.2411 0.85881-1.3823 3.0999z" clip-path="url(#a)" fill="#fff" stroke="#fff"/>
<g clip-path="url(#a)">
<g transform="translate(482.93 359.33) rotate(69.033) scale(.08 -.08)">
<use xlink:href="#v"/>
</g>
</g>
<path d="m401.22 368.86 4.3194-2.2844q2.1216-1.122 0.99954-3.2436l-3.6197-6.8443q-1.122-2.1216-3.2436-0.99954l-4.3194 2.2844q-2.1216 1.122-0.99954 3.2436l3.6197 6.8443q1.122 2.1216 3.2436 0.99954z" clip-path="url(#a)" fill="#fff" stroke="#fff"/>
<g clip-path="url(#a)">
<defs>
<path id="k" d="m-0.29688 72.906h61.672v-8.3125h-25.875v-64.594h-9.9062v64.594h-25.891z"/>
</defs>
<g transform="translate(399.32 365.27) rotate(-27.873) scale(.08 -.08)">
<use xlink:href="#k"/>
</g>
</g>
<path d="m689.7 445.25 0.46928-5.4523q0.20581-2.3912-2.1854-2.597l-7.714-0.66394q-2.3912-0.20581-2.597 2.1854l-0.46928 5.4523q-0.20581 2.3912 2.1854 2.597l7.714 0.66394q2.3912 0.20581 2.597-2.1854z" clip-path="url(#a)" fill="#fff" stroke="#fff"/>
<g clip-path="url(#a)">
<defs>
<path id="w" d="m34.188 63.188-13.391-36.281h26.812zm-5.5781 9.7188h11.188l27.781-72.906h-10.25l-6.6406 18.703h-32.859l-6.6406-18.703h-10.406z"/>
</defs>
<g transform="translate(685.65 444.91) rotate(-85.081) scale(.08 -.08)">
<use xlink:href="#w"/>
</g>
</g>
<path d="m705.54 439.77 0.15012 4.8214q0.074692 2.3988 2.4735 2.3241l7.7388-0.24096q2.3988-0.074692 2.3241-2.4735l-0.15012-4.8214q-0.074692-2.3988-2.4735-2.3241l-7.7388 0.24096q-2.3988 0.074692-2.3241 2.4735z" clip-path="url(#a)" fill="#fff" stroke="#fff"/>
<g clip-path="url(#a)">
<defs>
<path id="ad" d="m19.672 64.797v-27.391h12.406q6.8906 0 10.641 3.5625 3.7656 3.5625 3.7656 10.156 0 6.5469-3.7656 10.109-3.75 3.5625-10.641 3.5625zm-9.8594 8.1094h22.266q12.266 0 18.531-5.5469 6.2812-5.5469 6.2812-16.234 0-10.797-6.2812-16.312-6.2656-5.5156-18.531-5.5156h-12.406v-29.297h-9.8594z"/>
</defs>
<g transform="translate(709.6 439.65) rotate(88.217) scale(.08 -.08)">
<use xlink:href="#ad"/>
</g>
</g>
<path d="m771.26 362.3 2.281 4.9745q1.0003 2.1816 3.1819 1.1813l7.0379-3.2271q2.1816-1.0003 1.1813-3.1819l-2.281-4.9745q-1.0003-2.1816-3.1819-1.1813l-7.0379 3.2271q-2.1816 1.0003-1.1813 3.1819z" clip-path="url(#a)" fill="#fff" stroke="#fff"/>
<g clip-path="url(#a)">
<g transform="translate(774.95 360.61) rotate(65.367) scale(.08 -.08)">
<use xlink:href="#w"/>
</g>
</g>
<path d="m943.28 287.03 5.1958 1.7182q2.2786 0.75355 3.0322-1.5251l2.431-7.351q0.75355-2.2786-1.5251-3.0322l-5.1958-1.7182q-2.2786-0.75355-3.0322 1.5251l-2.431 7.351q-0.75355 2.2786 1.5251 3.0322z" clip-path="url(#a)" fill="#fff" stroke="#fff"/>
<g clip-path="url(#a)">
<g transform="translate(944.55 283.17) rotate(18.299) scale(.08 -.08)">
<use xlink:href="#w"/>
</g>
</g>
<path d="m154.32 744.37v33.808q0 2.4 2.4 2.4h7.7425q2.4 0 2.4-2.4v-33.808q0-2.4-2.4-2.4h-7.7425q-2.4 0-2.4 2.4z" clip-path="url(#a)" fill="#fff" stroke="#fff"/>
<g clip-path="url(#a)">
<defs>
<path id="e" d="m56.203 29.594v-4.3906h-41.312q0.59375-9.2812 5.5938-14.141t13.938-4.8594q5.1719 0 10.031 1.2656t9.6562 3.8125v-8.5q-4.8438-2.0469-9.9219-3.125t-10.297-1.0781q-13.094 0-20.734 7.6094-7.6406 7.625-7.6406 20.625 0 13.422 7.25 21.297 7.25 7.8906 19.562 7.8906 11.031 0 17.453-7.1094 6.4219-7.0938 6.4219-19.297zm-8.9844 2.6406q-0.09375 7.3594-4.125 11.75-4.0312 4.4062-10.672 4.4062-7.5156 0-12.031-4.25t-5.2031-11.969z"/>
<path id="g" d="m41.109 46.297q-1.5156 0.875-3.2969 1.2812-1.7812 0.42188-3.9219 0.42188-7.625 0-11.703-4.9531t-4.0781-14.234v-28.812h-9.0312v54.688h9.0312v-8.5q2.8438 4.9844 7.375 7.3906 4.5469 2.4219 11.047 2.4219 0.92188 0 2.0469-0.125 1.125-0.10938 2.4844-0.35938z"/>
<path id="j" d="m52 44.188q3.375 6.0625 8.0625 8.9375t11.031 2.875q8.5469 0 13.188-5.9844 4.6406-5.9688 4.6406-17v-33.016h-9.0312v32.719q0 7.8594-2.7969 11.656-2.7812 3.8125-8.4844 3.8125-6.9844 0-11.047-4.6406-4.0469-4.625-4.0469-12.641v-30.906h-9.0312v32.719q0 7.9062-2.7812 11.688t-8.5938 3.7812q-6.8906 0-10.953-4.6562-4.0469-4.6562-4.0469-12.625v-30.906h-9.0312v54.688h9.0312v-8.5q3.0781 5.0312 7.375 7.4219t10.203 2.3906q5.9688 0 10.141-3.0312 4.1719-3.0156 6.1719-8.7812z"/>
<path id="i" d="m9.4219 54.688h8.9844v-54.688h-8.9844zm0 21.297h8.9844v-11.391h-8.9844z"/>
<path id="d" d="m54.891 33.016v-33.016h-8.9844v32.719q0 7.7656-3.0312 11.609-3.0312 3.8594-9.0781 3.8594-7.2812 0-11.484-4.6406-4.2031-4.625-4.2031-12.641v-30.906h-9.0312v54.688h9.0312v-8.5q3.2344 4.9375 7.5938 7.375 4.375 2.4375 10.094 2.4375 9.4219 0 14.25-5.8281 4.8438-5.8281 4.8438-17.156z"/>
<path id="f" d="m34.281 27.484q-10.891 0-15.094-2.4844t-4.2031-8.5q0-4.7812 3.1562-7.5938 3.1562-2.7969 8.5625-2.7969 7.4844 0 12 5.2969t4.5156 14.078v2zm17.922 3.7188v-31.203h-8.9844v8.2969q-3.0781-4.9688-7.6719-7.3438t-11.234-2.375q-8.3906 0-13.359 4.7188-4.9531 4.7188-4.9531 12.625 0 9.2188 6.1719 13.906 6.1875 4.6875 18.438 4.6875h12.609v0.89062q0 6.2031-4.0781 9.5938t-11.453 3.3906q-4.6875 0-9.1406-1.125-4.4375-1.125-8.5312-3.375v8.3125q4.9219 1.9062 9.5625 2.8438 4.6406 0.95312 9.0312 0.95312 11.875 0 17.734-6.1562 5.8594-6.1406 5.8594-18.641z"/>
<path id="l" d="m9.4219 75.984h8.9844v-75.984h-8.9844z"/>
</defs>
<g transform="translate(158.38 744.37) rotate(90) scale(.08 -.08)">
<use xlink:href="#k"/>
<use x="44.083984" xlink:href="#e"/>
<use x="105.607422" xlink:href="#g"/>
<use x="144.970703" xlink:href="#j"/>
<use x="242.382812" xlink:href="#i"/>
<use x="270.166016" xlink:href="#d"/>
<use x="333.544922" xlink:href="#f"/>
<use x="394.824219" xlink:href="#l"/>
</g>
</g>
<path d="m197.66 600.61 0.5248 5.4473q0.23015 2.3889 2.6191 2.1588l7.7068-0.74248q2.3889-0.23015 2.1588-2.6191l-0.5248-5.4473q-0.23015-2.3889-2.6191-2.1588l-7.7068 0.74248q-2.3889 0.23015-2.1588 2.6191z" clip-path="url(#a)" fill="#fff" stroke="#fff"/>
<g clip-path="url(#a)">
<g transform="translate(201.7 600.22) rotate(84.497) scale(.08 -.08)">
<use xlink:href="#w"/>
</g>
</g>
<path d="m196.07 606.31 0.49296-6.1402q0.19206-2.3923-2.2002-2.5844l-7.7177-0.6196q-2.3923-0.19206-2.5844 2.2002l-0.49296 6.1402q-0.19206 2.3923 2.2002 2.5844l7.7177 0.6196q2.3923 0.19206 2.5844-2.2002z" clip-path="url(#a)" fill="#fff" stroke="#fff"/>
<g clip-path="url(#a)">
<defs>
<path id="ak" d="m19.672 64.797v-56.688h11.922q15.094 0 22.094 6.8281 7 6.8438 7 21.594 0 14.641-7 21.453t-22.094 6.8125zm-9.8594 8.1094h20.266q21.188 0 31.094-8.8125 9.9219-8.8125 9.9219-27.562 0-18.859-9.9688-27.703-9.9531-8.8281-31.047-8.8281h-20.266z"/>
</defs>
<g transform="translate(192.02 605.98) rotate(-85.41) scale(.08 -.08)">
<use xlink:href="#ak"/>
</g>
</g>
<path d="m196.44 600.83 0.38603 4.8083q0.19206 2.3923 2.5844 2.2002l7.7177-0.6196q2.3923-0.19206 2.2002-2.5844l-0.38603-4.8083q-0.19206-2.3923-2.5844-2.2002l-7.7177 0.6196q-2.3923 0.19206-2.2002 2.5844z" clip-path="url(#a)" fill="#fff" stroke="#fff"/>
<g clip-path="url(#a)">
<g transform="translate(200.49 600.51) rotate(85.41) scale(.08 -.08)">
<use xlink:href="#ad"/>
</g>
</g>
<path d="m311.27 607.84 2.2794-5.0699q0.98413-2.1889-1.2048-3.1731l-7.0616-3.1748q-2.1889-0.98413-3.1731 1.2048l-2.2794 5.0699q-0.98413 2.1889 1.2048 3.1731l7.0616 3.1748q2.1889 0.98413 3.1731-1.2048z" clip-path="url(#a)" fill="#fff" stroke="#fff"/>
<g clip-path="url(#a)">
<defs>
<path id="ac" d="m44.391 34.188q3.1719-1.0781 6.1719-4.5938t6.0312-9.6719l10.016-19.922h-10.609l-9.3125 18.703q-3.625 7.3281-7.0156 9.7188t-9.25 2.3906h-10.75v-30.812h-9.8594v72.906h22.266q12.5 0 18.656-5.2344 6.1562-5.2188 6.1562-15.766 0-6.8906-3.2031-11.438-3.2031-4.5312-9.2969-6.2812zm-24.719 30.609v-25.875h12.406q7.125 0 10.766 3.2969t3.6406 9.6875-3.6406 9.6406-10.766 3.25z"/>
</defs>
<g transform="translate(307.57 606.18) rotate(-65.792) scale(.08 -.08)">
<use xlink:href="#ac"/>
</g>
</g>
<path d="m328.86 606.66 1.1837-4.9145q0.56197-2.3333-1.7713-2.8953l-7.5273-1.813q-2.3333-0.56197-2.8953 1.7713l-1.1837 4.9145q-0.56198 2.3333 1.7713 2.8953l7.5273 1.813q2.3333 0.56198 2.8953-1.7713z" clip-path="url(#a)" fill="#fff" stroke="#fff"/>
<g clip-path="url(#a)">
<defs>
<path id="aj" d="m9.8125 72.906h46.094v-8.3125h-36.234v-21.578h34.719v-8.2969h-34.719v-26.422h37.109v-8.2969h-46.969z"/>
</defs>
<g transform="translate(324.91 605.71) rotate(-76.458) scale(.08 -.08)">
<use xlink:href="#aj"/>
</g>
</g>
<path d="m347.51 605.99 0.1011-6.2967q0.038531-2.3997-2.3612-2.4382l-7.7415-0.1243q-2.3997-0.038532-2.4382 2.3612l-0.1011 6.2967q-0.038532 2.3997 2.3612 2.4382l7.7415 0.1243q2.3997 0.038531 2.4382-2.3612z" clip-path="url(#a)" fill="#fff" stroke="#fff"/>
<g clip-path="url(#a)">
<defs>
<path id="av" d="m39.406 66.219q-10.75 0-17.078-8.0156-6.3125-8-6.3125-21.828 0-13.766 6.3125-21.781 6.3281-8 17.078-8 10.734 0 17.016 8 6.2812 8.0156 6.2812 21.781 0 13.828-6.2812 21.828-6.2812 8.0156-17.016 8.0156zm13.812-64.906 13-14.203h-11.922l-10.797 11.672q-1.6094-0.09375-2.4688-0.14062-0.84375-0.0625-1.625-0.0625-15.375 0-24.594 10.281-9.2031 10.281-9.2031 27.516 0 17.281 9.2031 27.562 9.2188 10.281 24.594 10.281 15.328 0 24.5-10.281 9.1875-10.281 9.1875-27.562 0-12.688-5.1094-21.734-5.0938-9.0312-14.766-13.328z"/>
</defs>
<g transform="translate(343.45 605.92) rotate(-89.08) scale(.08 -.08)">
<use xlink:href="#av"/>
</g>
</g>
<path d="m353.79 601.39 1.2252 5.4502q0.52637 2.3416 2.8679 1.8152l7.554-1.6981q2.3416-0.52637 1.8152-2.8679l-1.2252-5.4502q-0.52637-2.3416-2.8679-1.8152l-7.554 1.6981q-2.3416 0.52637-1.8152 2.8679z" clip-path="url(#a)" fill="#fff" stroke="#fff"/>
<g clip-path="url(#a)">
<defs>
<path id="q" d="m64.406 67.281v-10.391q-4.9844 4.6406-10.625 6.9219-5.6406 2.2969-11.984 2.2969-12.5 0-19.141-7.6406t-6.6406-22.094q0-14.406 6.6406-22.047t19.141-7.6406q6.3438 0 11.984 2.2969t10.625 6.9375v-10.312q-5.1719-3.5156-10.969-5.2812-5.7812-1.75-12.219-1.75-16.562 0-26.094 10.125-9.5156 10.141-9.5156 27.672 0 17.578 9.5156 27.703 9.5312 10.141 26.094 10.141 6.5312 0 12.312-1.7344 5.7969-1.7344 10.875-5.2031z"/>
</defs>
<g transform="translate(357.75 600.5) rotate(77.331) scale(.08 -.08)">
<use xlink:href="#q"/>
</g>
</g>
<path d="m374.17 602.95 2.4124 5.008q1.0415 2.1622 3.2038 1.1207l6.9754-3.3601q2.1622-1.0415 1.1207-3.2038l-2.4124-5.008q-1.0415-2.1622-3.2038-1.1207l-6.9754 3.3601q-2.1622 1.0415-1.1207 3.2038z" clip-path="url(#a)" fill="#fff" stroke="#fff"/>
<g clip-path="url(#a)">
<g transform="translate(377.83 601.19) rotate(64.28) scale(.08 -.08)">
<use xlink:href="#ac"/>
</g>
</g>
<path d="m491.79 607.13 1.5454-5.2498q0.67774-2.3023-1.6246-2.9801l-7.4274-2.1864q-2.3023-0.67774-2.9801 1.6246l-1.5454 5.2498q-0.67774 2.3023 1.6246 2.9801l7.4274 2.1864q2.3023 0.67774 2.9801-1.6246z" clip-path="url(#a)" fill="#fff" stroke="#fff"/>
<g clip-path="url(#a)">
<g transform="translate(487.89 605.98) rotate(-73.597) scale(.08 -.08)">
<use xlink:href="#w"/>
</g>
</g>
<path d="m515.87 605.85 0.032969-6.1599q0.012845-2.4-2.3871-2.4128l-7.7424-0.04144q-2.4-0.012845-2.4128 2.3871l-0.03297 6.1599q-0.012845 2.4 2.3871 2.4128l7.7424 0.04144q2.4 0.012845 2.4128-2.3871z" clip-path="url(#a)" fill="#fff" stroke="#fff"/>
<g clip-path="url(#a)">
<g transform="translate(511.81 605.83) rotate(-89.693) scale(.08 -.08)">
<use xlink:href="#ak"/>
</g>
</g>
<path d="m527.27 602.23 1.3849 4.6207q0.68906 2.299 2.988 1.6099l7.4165-2.2229q2.299-0.68906 1.6099-2.988l-1.3849-4.6207q-0.68906-2.299-2.988-1.6099l-7.4165 2.2229q-2.299 0.68906-1.6099 2.988z" clip-path="url(#a)" fill="#fff" stroke="#fff"/>
<g clip-path="url(#a)">
<g transform="translate(531.16 601.06) rotate(73.315) scale(.08 -.08)">
<use xlink:href="#ad"/>
</g>
</g>
<path d="m456.78 744.37v33.808q0 2.4 2.4 2.4h7.7425q2.4 0 2.4-2.4v-33.808q0-2.4-2.4-2.4h-7.7425q-2.4 0-2.4 2.4z" clip-path="url(#a)" fill="#fff" stroke="#fff"/>
<g clip-path="url(#a)">
<g transform="translate(460.84 744.37) rotate(90) scale(.08 -.08)">
<use xlink:href="#k"/>
<use x="44.083984" xlink:href="#e"/>
<use x="105.607422" xlink:href="#g"/>
<use x="144.970703" xlink:href="#j"/>
<use x="242.382812" xlink:href="#i"/>
<use x="270.166016" xlink:href="#d"/>
<use x="333.544922" xlink:href="#f"/>
<use x="394.824219" xlink:href="#l"/>
</g>
</g>
<path d="m502.92 744.37v33.808q0 2.4 2.4 2.4h7.7425q2.4 0 2.4-2.4v-33.808q0-2.4-2.4-2.4h-7.7425q-2.4 0-2.4 2.4z" clip-path="url(#a)" fill="#fff" stroke="#fff"/>
<g clip-path="url(#a)">
<g transform="translate(506.98 744.37) rotate(90) scale(.08 -.08)">
<use xlink:href="#k"/>
<use x="44.083984" xlink:href="#e"/>
<use x="105.607422" xlink:href="#g"/>
<use x="144.970703" xlink:href="#j"/>
<use x="242.382812" xlink:href="#i"/>
<use x="270.166016" xlink:href="#d"/>
<use x="333.544922" xlink:href="#f"/>
<use x="394.824219" xlink:href="#l"/>
</g>
</g>
<path d="m551.62 744.37v33.808q0 2.4 2.4 2.4h7.7425q2.4 0 2.4-2.4v-33.808q0-2.4-2.4-2.4h-7.7425q-2.4 0-2.4 2.4z" clip-path="url(#a)" fill="#fff" stroke="#fff"/>
<g clip-path="url(#a)">
<g transform="translate(555.68 744.37) rotate(90) scale(.08 -.08)">
<use xlink:href="#k"/>
<use x="44.083984" xlink:href="#e"/>
<use x="105.607422" xlink:href="#g"/>
<use x="144.970703" xlink:href="#j"/>
<use x="242.382812" xlink:href="#i"/>
<use x="270.166016" xlink:href="#d"/>
<use x="333.544922" xlink:href="#f"/>
<use x="394.824219" xlink:href="#l"/>
</g>
</g>
<path d="m264.53 744.37v33.808q0 2.4 2.4 2.4h7.7425q2.4 0 2.4-2.4v-33.808q0-2.4-2.4-2.4h-7.7425q-2.4 0-2.4 2.4z" clip-path="url(#a)" fill="#fff" stroke="#fff"/>
<g clip-path="url(#a)">
<g transform="translate(268.6 744.37) rotate(90) scale(.08 -.08)">
<use xlink:href="#k"/>
<use x="44.083984" xlink:href="#e"/>
<use x="105.607422" xlink:href="#g"/>
<use x="144.970703" xlink:href="#j"/>
<use x="242.382812" xlink:href="#i"/>
<use x="270.166016" xlink:href="#d"/>
<use x="333.544922" xlink:href="#f"/>
<use x="394.824219" xlink:href="#l"/>
</g>
</g>
<path d="m297.86 744.37v33.808q0 2.4 2.4 2.4h7.7425q2.4 0 2.4-2.4v-33.808q0-2.4-2.4-2.4h-7.7425q-2.4 0-2.4 2.4z" clip-path="url(#a)" fill="#fff" stroke="#fff"/>
<g clip-path="url(#a)">
<g transform="translate(301.92 744.37) rotate(90) scale(.08 -.08)">
<use xlink:href="#k"/>
<use x="44.083984" xlink:href="#e"/>
<use x="105.607422" xlink:href="#g"/>
<use x="144.970703" xlink:href="#j"/>
<use x="242.382812" xlink:href="#i"/>
<use x="270.166016" xlink:href="#d"/>
<use x="333.544922" xlink:href="#f"/>
<use x="394.824219" xlink:href="#l"/>
</g>
</g>
<path d="m333.74 744.37v33.808q0 2.4 2.4 2.4h7.7425q2.4 0 2.4-2.4v-33.808q0-2.4-2.4-2.4h-7.7425q-2.4 0-2.4 2.4z" clip-path="url(#a)" fill="#fff" stroke="#fff"/>
<g clip-path="url(#a)">
<g transform="translate(337.81 744.37) rotate(90) scale(.08 -.08)">
<use xlink:href="#k"/>
<use x="44.083984" xlink:href="#e"/>
<use x="105.607422" xlink:href="#g"/>
<use x="144.970703" xlink:href="#j"/>
<use x="242.382812" xlink:href="#i"/>
<use x="270.166016" xlink:href="#d"/>
<use x="333.544922" xlink:href="#f"/>
<use x="394.824219" xlink:href="#l"/>
</g>
</g>
<path d="m372.19 744.37v33.808q0 2.4 2.4 2.4h7.7425q2.4 0 2.4-2.4v-33.808q0-2.4-2.4-2.4h-7.7425q-2.4 0-2.4 2.4z" clip-path="url(#a)" fill="#fff" stroke="#fff"/>
<g clip-path="url(#a)">
<g transform="translate(376.25 744.37) rotate(90) scale(.08 -.08)">
<use xlink:href="#k"/>
<use x="44.083984" xlink:href="#e"/>
<use x="105.607422" xlink:href="#g"/>
<use x="144.970703" xlink:href="#j"/>
<use x="242.382812" xlink:href="#i"/>
<use x="270.166016" xlink:href="#d"/>
<use x="333.544922" xlink:href="#f"/>
<use x="394.824219" xlink:href="#l"/>
</g>
</g>
<path d="m413.2 744.37v33.808q0 2.4 2.4 2.4h7.7425q2.4 0 2.4-2.4v-33.808q0-2.4-2.4-2.4h-7.7425q-2.4 0-2.4 2.4z" clip-path="url(#a)" fill="#fff" stroke="#fff"/>
<g clip-path="url(#a)">
<g transform="translate(417.27 744.37) rotate(90) scale(.08 -.08)">
<use xlink:href="#k"/>
<use x="44.083984" xlink:href="#e"/>
<use x="105.607422" xlink:href="#g"/>
<use x="144.970703" xlink:href="#j"/>
<use x="242.382812" xlink:href="#i"/>
<use x="270.166016" xlink:href="#d"/>
<use x="333.544922" xlink:href="#f"/>
<use x="394.824219" xlink:href="#l"/>
</g>
</g>
<path d="m177.38 744.37v33.808q0 2.4 2.4 2.4h7.7425q2.4 0 2.4-2.4v-33.808q0-2.4-2.4-2.4h-7.7425q-2.4 0-2.4 2.4z" clip-path="url(#a)" fill="#fff" stroke="#fff"/>
<g clip-path="url(#a)">
<g transform="translate(181.45 744.37) rotate(90) scale(.08 -.08)">
<use xlink:href="#k"/>
<use x="44.083984" xlink:href="#e"/>
<use x="105.607422" xlink:href="#g"/>
<use x="144.970703" xlink:href="#j"/>
<use x="242.382812" xlink:href="#i"/>
<use x="270.166016" xlink:href="#d"/>
<use x="333.544922" xlink:href="#f"/>
<use x="394.824219" xlink:href="#l"/>
</g>
</g>
<path d="m203.02 744.37v33.808q0 2.4 2.4 2.4h7.7425q2.4 0 2.4-2.4v-33.808q0-2.4-2.4-2.4h-7.7425q-2.4 0-2.4 2.4z" clip-path="url(#a)" fill="#fff" stroke="#fff"/>
<g clip-path="url(#a)">
<g transform="translate(207.08 744.37) rotate(90) scale(.08 -.08)">
<use xlink:href="#k"/>
<use x="44.083984" xlink:href="#e"/>
<use x="105.607422" xlink:href="#g"/>
<use x="144.970703" xlink:href="#j"/>
<use x="242.382812" xlink:href="#i"/>
<use x="270.166016" xlink:href="#d"/>
<use x="333.544922" xlink:href="#f"/>
<use x="394.824219" xlink:href="#l"/>
</g>
</g>
<path d="m92.119 606.29 0.70823-5.5134q0.30578-2.3804-2.0747-2.6862l-7.6794-0.98645q-2.3804-0.30578-2.6862 2.0747l-0.70823 5.5134q-0.30578 2.3804 2.0747 2.6862l7.6794 0.98645q2.3804 0.30578 2.6862-2.0747z" clip-path="url(#a)" fill="#fff" stroke="#fff"/>
<g clip-path="url(#a)">
<g transform="translate(88.088 605.77) rotate(-82.68) scale(.08 -.08)">
<use xlink:href="#ac"/>
</g>
</g>
<path d="m96.125 606.02 0.44705-5.5683q0.19206-2.3923-2.2002-2.5844l-7.7177-0.6196q-2.3923-0.19206-2.5844 2.2002l-0.44705 5.5683q-0.19206 2.3923 2.2002 2.5844l7.7177 0.6196q2.3923 0.19206 2.5844-2.2002z" clip-path="url(#a)" fill="#fff" stroke="#fff"/>
<g clip-path="url(#a)">
<g transform="translate(92.075 605.7) rotate(-85.41) scale(.08 -.08)">
<use xlink:href="#q"/>
</g>
</g>
<path d="m101.45 605.63 0.089686-5.5855q0.038531-2.3997-2.3612-2.4382l-7.7415-0.1243q-2.3997-0.038531-2.4382 2.3612l-0.089685 5.5855q-0.038532 2.3997 2.3612 2.4382l7.7415 0.1243q2.3997 0.038531 2.4382-2.3612z" clip-path="url(#a)" fill="#fff" stroke="#fff"/>
<g clip-path="url(#a)">
<g transform="translate(97.387 605.56) rotate(-89.08) scale(.08 -.08)">
<use xlink:href="#q"/>
</g>
</g>
<path d="m102.69 600.97 0.88563 5.5156q0.38049 2.3696 2.7501 1.9892l7.6446-1.2275q2.3696-0.38049 1.9892-2.7501l-0.88563-5.5156q-0.38049-2.3696-2.7501-1.9892l-7.6446 1.2275q-2.3696 0.38049-1.9892 2.7501z" clip-path="url(#a)" fill="#fff" stroke="#fff"/>
<g clip-path="url(#a)">
<g transform="translate(106.7 600.33) rotate(80.878) scale(.08 -.08)">
<use xlink:href="#q"/>
</g>
</g>
<path d="m95.186 600.22 0.37528 5.843q0.15383 2.3951 2.5489 2.2412l7.7266-0.49626q2.3951-0.15383 2.2412-2.5489l-0.37528-5.843q-0.15383-2.3951-2.5489-2.2412l-7.7266 0.49626q-2.3951 0.15383-2.2412 2.5489z" clip-path="url(#a)" fill="#fff" stroke="#fff"/>
<g clip-path="url(#a)">
<g transform="translate(99.242 599.96) rotate(86.325) scale(.08 -.08)">
<use xlink:href="#v"/>
</g>
</g>
<path d="m656.71 744.37v33.808q0 2.4 2.4 2.4h7.7425q2.4 0 2.4-2.4v-33.808q0-2.4-2.4-2.4h-7.7425q-2.4 0-2.4 2.4z" clip-path="url(#a)" fill="#fff" stroke="#fff"/>
<g clip-path="url(#a)">
<g transform="translate(660.77 744.37) rotate(90) scale(.08 -.08)">
<use xlink:href="#k"/>
<use x="44.083984" xlink:href="#e"/>
<use x="105.607422" xlink:href="#g"/>
<use x="144.970703" xlink:href="#j"/>
<use x="242.382812" xlink:href="#i"/>
<use x="270.166016" xlink:href="#d"/>
<use x="333.544922" xlink:href="#f"/>
<use x="394.824219" xlink:href="#l"/>
</g>
</g>
<path d="m713.1 744.37v33.808q0 2.4 2.4 2.4h7.7425q2.4 0 2.4-2.4v-33.808q0-2.4-2.4-2.4h-7.7425q-2.4 0-2.4 2.4z" clip-path="url(#a)" fill="#fff" stroke="#fff"/>
<g clip-path="url(#a)">
<g transform="translate(717.17 744.37) rotate(90) scale(.08 -.08)">
<use xlink:href="#k"/>
<use x="44.083984" xlink:href="#e"/>
<use x="105.607422" xlink:href="#g"/>
<use x="144.970703" xlink:href="#j"/>
<use x="242.382812" xlink:href="#i"/>
<use x="270.166016" xlink:href="#d"/>
<use x="333.544922" xlink:href="#f"/>
<use x="394.824219" xlink:href="#l"/>
</g>
</g>
<path d="m819.6 607.9 2.3358-5.0745q1.0035-2.1801-1.1766-3.1836l-7.0332-3.2373q-2.1801-1.0035-3.1836 1.1766l-2.3358 5.0745q-1.0035 2.1801 1.1766 3.1836l7.0332 3.2373q2.1801 1.0035 3.1836-1.1766z" clip-path="url(#a)" fill="#fff" stroke="#fff"/>
<g clip-path="url(#a)">
<g transform="translate(815.9 606.2) rotate(-65.284) scale(.08 -.08)">
<use xlink:href="#q"/>
</g>
</g>
<path d="m851.86 606.19 0.44721-5.9683q0.17933-2.3933-2.214-2.5726l-7.7209-0.57854q-2.3933-0.17933-2.5726 2.214l-0.44721 5.9683q-0.17933 2.3933 2.214 2.5726l7.7209 0.57854q2.3933 0.17933 2.5726-2.214z" clip-path="url(#a)" fill="#fff" stroke="#fff"/>
<g clip-path="url(#a)">
<defs>
<path id="aq" d="m9.8125 72.906h13.281l32.328-60.984v60.984h9.5625v-72.906h-13.281l-32.312 60.984v-60.984h-9.5781z"/>
</defs>
<g transform="translate(847.8 605.89) rotate(-85.715) scale(.08 -.08)">
<use xlink:href="#aq"/>
</g>
</g>
<path d="m887.68 603.23 2.6361 4.9252q1.1325 2.116 3.2485 0.98345l6.8262-3.6536q2.116-1.1325 0.98345-3.2485l-2.6361-4.9252q-1.1325-2.116-3.2485-0.98345l-6.8262 3.6536q-2.116 1.1325-0.98345 3.2485z" clip-path="url(#a)" fill="#fff" stroke="#fff"/>
<g clip-path="url(#a)">
<g transform="translate(891.26 601.32) rotate(61.843) scale(.08 -.08)">
<use xlink:href="#q"/>
</g>
</g>
<path d="m1120.1 527.47 2.1626-4.569q1.0268-2.1693-1.1425-3.196l-6.9982-3.3124q-2.1693-1.0268-3.196 1.1425l-2.1626 4.569q-1.0268 2.1693 1.1425 3.196l6.9982 3.3124q2.1693 1.0268 3.196-1.1425z" clip-path="url(#a)" fill="#fff" stroke="#fff"/>
<g clip-path="url(#a)">
<g transform="translate(1116.4 525.73) rotate(-64.671) scale(.08 -.08)">
<use xlink:href="#aj"/>
</g>
</g>
<path d="m1194.8 525.4 0.094419-5.5855q0.040565-2.3997-2.3591-2.4402l-7.7414-0.13086q-2.3997-0.040565-2.4402 2.3591l-0.09442 5.5855q-0.040565 2.3997 2.3591 2.4402l7.7414 0.13086q2.3997 0.040565 2.4402-2.3591z" clip-path="url(#a)" fill="#fff" stroke="#fff"/>
<g clip-path="url(#a)">
<g transform="translate(1190.7 525.33) rotate(-89.032) scale(.08 -.08)">
<use xlink:href="#q"/>
</g>
</g>
<path d="m1304 446.45 4.1839 2.8369q1.9864 1.3469 3.3333-0.63955l4.3451-6.4083q1.3469-1.9864-0.63955-3.3333l-4.1839-2.8369q-1.9864-1.3469-3.3333 0.63955l-4.3451 6.4083q-1.3469 1.9864 0.63955 3.3333z" clip-path="url(#a)" fill="#fff" stroke="#fff"/>
<g clip-path="url(#a)">
<g transform="translate(1306.3 443.09) rotate(34.139) scale(.08 -.08)">
<use xlink:href="#aj"/>
</g>
</g>
<path d="m1156.8 526.86 1.4153-5.6814q0.58015-2.3288-1.7487-2.909l-7.5129-1.8716q-2.3288-0.58015-2.909 1.7487l-1.4153 5.6814q-0.58015 2.3288 1.7487 2.909l7.5129 1.8716q2.3288 0.58015 2.909-1.7487z" clip-path="url(#a)" fill="#fff" stroke="#fff"/>
<g clip-path="url(#a)">
<g transform="translate(1152.9 525.87) rotate(-76.011) scale(.08 -.08)">
<use xlink:href="#v"/>
</g>
</g>
<path d="m1033.5 744.37v33.808q0 2.4 2.4 2.4h7.7425q2.4 0 2.4-2.4v-33.808q0-2.4-2.4-2.4h-7.7425q-2.4 0-2.4 2.4z" clip-path="url(#a)" fill="#fff" stroke="#fff"/>
<g clip-path="url(#a)">
<g transform="translate(1037.6 744.37) rotate(90) scale(.08 -.08)">
<use xlink:href="#k"/>
<use x="44.083984" xlink:href="#e"/>
<use x="105.607422" xlink:href="#g"/>
<use x="144.970703" xlink:href="#j"/>
<use x="242.382812" xlink:href="#i"/>
<use x="270.166016" xlink:href="#d"/>
<use x="333.544922" xlink:href="#f"/>
<use x="394.824219" xlink:href="#l"/>
</g>
</g>
<path d="m1179.6 744.37v33.808q0 2.4 2.4 2.4h7.7425q2.4 0 2.4-2.4v-33.808q0-2.4-2.4-2.4h-7.7425q-2.4 0-2.4 2.4z" clip-path="url(#a)" fill="#fff" stroke="#fff"/>
<g clip-path="url(#a)">
<g transform="translate(1183.7 744.37) rotate(90) scale(.08 -.08)">
<use xlink:href="#k"/>
<use x="44.083984" xlink:href="#e"/>
<use x="105.607422" xlink:href="#g"/>
<use x="144.970703" xlink:href="#j"/>
<use x="242.382812" xlink:href="#i"/>
<use x="270.166016" xlink:href="#d"/>
<use x="333.544922" xlink:href="#f"/>
<use x="394.824219" xlink:href="#l"/>
</g>
</g>
<path d="m1347.7 609.18 3.9972-3.8629q1.7258-1.6678 0.057992-3.3936l-5.3804-5.5675q-1.6678-1.7258-3.3936-0.057992l-3.9972 3.8629q-1.7258 1.6678-0.057992 3.3936l5.3804 5.5675q1.6678 1.7258 3.3936 0.057992z" clip-path="url(#a)" fill="#fff" stroke="#fff"/>
<g clip-path="url(#a)">
<g transform="translate(1344.9 606.26) rotate(-44.021) scale(.08 -.08)">
<use xlink:href="#ac"/>
</g>
</g>
<path d="m1432.8 605.64 0.099648-5.5854q0.042811-2.3996-2.3568-2.4424l-7.7413-0.13811q-2.3996-0.042811-2.4424 2.3568l-0.099647 5.5854q-0.042812 2.3996 2.3568 2.4424l7.7413 0.13811q2.3996 0.042811 2.4424-2.3568z" clip-path="url(#a)" fill="#fff" stroke="#fff"/>
<g clip-path="url(#a)">
<g transform="translate(1428.7 605.57) rotate(-88.978) scale(.08 -.08)">
<use xlink:href="#q"/>
</g>
</g>
<path d="m1505.5 605.27 4.2448 4.0327q1.74 1.653 3.393-0.086969l5.3327-5.6133q1.653-1.74-0.086969-3.393l-4.2448-4.0327q-1.74-1.653-3.393 0.086968l-5.3327 5.6133q-1.653 1.74 0.086968 3.393z" clip-path="url(#a)" fill="#fff" stroke="#fff"/>
<g clip-path="url(#a)">
<g transform="translate(1508.3 602.32) rotate(43.532) scale(.08 -.08)">
<use xlink:href="#v"/>
</g>
</g>
<path d="m1256.5 744.37v33.808q0 2.4 2.4 2.4h7.7425q2.4 0 2.4-2.4v-33.808q0-2.4-2.4-2.4h-7.7425q-2.4 0-2.4 2.4z" clip-path="url(#a)" fill="#fff" stroke="#fff"/>
<g clip-path="url(#a)">
<g transform="translate(1260.6 744.37) rotate(90) scale(.08 -.08)">
<use xlink:href="#k"/>
<use x="44.083984" xlink:href="#e"/>
<use x="105.607422" xlink:href="#g"/>
<use x="144.970703" xlink:href="#j"/>
<use x="242.382812" xlink:href="#i"/>
<use x="270.166016" xlink:href="#d"/>
<use x="333.544922" xlink:href="#f"/>
<use x="394.824219" xlink:href="#l"/>
</g>
</g>
<path d="m1381.4 779.16 15.748-29.916q1.1179-2.1237-1.0058-3.2417l-6.8513-3.6064q-2.1237-1.1179-3.2417 1.0058l-15.748 29.916q-1.1179 2.1237 1.0058 3.2417l6.8513 3.6064q2.1237 1.1179 3.2417-1.0058z" clip-path="url(#a)" fill="#fff" stroke="#fff"/>
<g clip-path="url(#a)">
<g transform="translate(1377.8 777.26) rotate(-62.238) scale(.08 -.08)">
<use xlink:href="#k"/>
<use x="44.083984" xlink:href="#e"/>
<use x="105.607422" xlink:href="#g"/>
<use x="144.970703" xlink:href="#j"/>
<use x="242.382812" xlink:href="#i"/>
<use x="270.166016" xlink:href="#d"/>
<use x="333.544922" xlink:href="#f"/>
<use x="394.824219" xlink:href="#l"/>
</g>
</g>
<path d="m1430.9 778.21 0.18346-33.807q0.013024-2.4-2.3869-2.413l-7.7424-0.042016q-2.4-0.013024-2.413 2.3869l-0.18346 33.807q-0.013024 2.4 2.3869 2.413l7.7424 0.042016q2.4 0.013024 2.413-2.3869z" clip-path="url(#a)" fill="#fff" stroke="#fff"/>
<g clip-path="url(#a)">
<g transform="translate(1426.8 778.19) rotate(-89.689) scale(.08 -.08)">
<use xlink:href="#k"/>
<use x="44.083984" xlink:href="#e"/>
<use x="105.607422" xlink:href="#g"/>
<use x="144.970703" xlink:href="#j"/>
<use x="242.382812" xlink:href="#i"/>
<use x="270.166016" xlink:href="#d"/>
<use x="333.544922" xlink:href="#f"/>
<use x="394.824219" xlink:href="#l"/>
</g>
</g>
<path d="m1453.5 749.3 15.874 29.849q1.1269 2.119 3.2459 0.99207l6.8359-3.6355q2.119-1.1269 0.99207-3.2459l-15.874-29.849q-1.1269-2.119-3.2459-0.99207l-6.8359 3.6355q-2.119 1.1269-0.99207 3.2459z" clip-path="url(#a)" fill="#fff" stroke="#fff"/>
<g clip-path="url(#a)">
<g transform="translate(1457.1 747.39) rotate(61.995) scale(.08 -.08)">
<use xlink:href="#k"/>
<use x="44.083984" xlink:href="#e"/>
<use x="105.607422" xlink:href="#g"/>
<use x="144.970703" xlink:href="#j"/>
<use x="242.382812" xlink:href="#i"/>
<use x="270.166016" xlink:href="#d"/>
<use x="333.544922" xlink:href="#f"/>
<use x="394.824219" xlink:href="#l"/>
</g>
</g>
<path d="m772.06 744.37v33.808q0 2.4 2.4 2.4h7.7425q2.4 0 2.4-2.4v-33.808q0-2.4-2.4-2.4h-7.7425q-2.4 0-2.4 2.4z" clip-path="url(#a)" fill="#fff" stroke="#fff"/>
<g clip-path="url(#a)">
<g transform="translate(776.12 744.37) rotate(90) scale(.08 -.08)">
<use xlink:href="#k"/>
<use x="44.083984" xlink:href="#e"/>
<use x="105.607422" xlink:href="#g"/>
<use x="144.970703" xlink:href="#j"/>
<use x="242.382812" xlink:href="#i"/>
<use x="270.166016" xlink:href="#d"/>
<use x="333.544922" xlink:href="#f"/>
<use x="394.824219" xlink:href="#l"/>
</g>
</g>
<path d="m833.57 744.37v33.808q0 2.4 2.4 2.4h7.7425q2.4 0 2.4-2.4v-33.808q0-2.4-2.4-2.4h-7.7425q-2.4 0-2.4 2.4z" clip-path="url(#a)" fill="#fff" stroke="#fff"/>
<g clip-path="url(#a)">
<g transform="translate(837.64 744.37) rotate(90) scale(.08 -.08)">
<use xlink:href="#k"/>
<use x="44.083984" xlink:href="#e"/>
<use x="105.607422" xlink:href="#g"/>
<use x="144.970703" xlink:href="#j"/>
<use x="242.382812" xlink:href="#i"/>
<use x="270.166016" xlink:href="#d"/>
<use x="333.544922" xlink:href="#f"/>
<use x="394.824219" xlink:href="#l"/>
</g>
</g>
<path d="m923.22 779.11 7-33.075q0.49693-2.348-1.8511-2.8449l-7.5747-1.6031q-2.348-0.49693-2.8449 1.8511l-7 33.075q-0.49693 2.348 1.8511 2.8449l7.5747 1.6031q2.348 0.49693 2.8449-1.8511z" clip-path="url(#a)" fill="#fff" stroke="#fff"/>
<g clip-path="url(#a)">
<g transform="translate(919.25 778.27) rotate(-78.05) scale(.08 -.08)">
<use xlink:href="#k"/>
<use x="44.083984" xlink:href="#e"/>
<use x="105.607422" xlink:href="#g"/>
<use x="144.970703" xlink:href="#j"/>
<use x="242.382812" xlink:href="#i"/>
<use x="270.166016" xlink:href="#d"/>
<use x="333.544922" xlink:href="#f"/>
<use x="394.824219" xlink:href="#l"/>
</g>
</g>
<path d="m944.27 746.04 7 33.075q0.49693 2.348 2.8449 1.8511l7.5747-1.6031q2.348-0.49693 1.8511-2.8449l-7-33.075q-0.49693-2.348-2.8449-1.8511l-7.5747 1.6031q-2.348 0.49693-1.8511 2.8449z" clip-path="url(#a)" fill="#fff" stroke="#fff"/>
<g clip-path="url(#a)">
<g transform="translate(948.25 745.2) rotate(78.05) scale(.08 -.08)">
<use xlink:href="#k"/>
<use x="44.083984" xlink:href="#e"/>
<use x="105.607422" xlink:href="#g"/>
<use x="144.970703" xlink:href="#j"/>
<use x="242.382812" xlink:href="#i"/>
<use x="270.166016" xlink:href="#d"/>
<use x="333.544922" xlink:href="#f"/>
<use x="394.824219" xlink:href="#l"/>
</g>
</g>
<path d="m69.729 744.37v33.808q0 2.4 2.4 2.4h7.7425q2.4 0 2.4-2.4v-33.808q0-2.4-2.4-2.4h-7.7425q-2.4 0-2.4 2.4z" clip-path="url(#a)" fill="#fff" stroke="#fff"/>
<g clip-path="url(#a)">
<g transform="translate(73.792 744.37) rotate(90) scale(.08 -.08)">
<use xlink:href="#k"/>
<use x="44.083984" xlink:href="#e"/>
<use x="105.607422" xlink:href="#g"/>
<use x="144.970703" xlink:href="#j"/>
<use x="242.382812" xlink:href="#i"/>
<use x="270.166016" xlink:href="#d"/>
<use x="333.544922" xlink:href="#f"/>
<use x="394.824219" xlink:href="#l"/>
</g>
</g>
<path d="m77.418 744.37v33.808q0 2.4 2.4 2.4h7.7425q2.4 0 2.4-2.4v-33.808q0-2.4-2.4-2.4h-7.7425q-2.4 0-2.4 2.4z" clip-path="url(#a)" fill="#fff" stroke="#fff"/>
<g clip-path="url(#a)">
<g transform="translate(81.482 744.37) rotate(90) scale(.08 -.08)">
<use xlink:href="#k"/>
<use x="44.083984" xlink:href="#e"/>
<use x="105.607422" xlink:href="#g"/>
<use x="144.970703" xlink:href="#j"/>
<use x="242.382812" xlink:href="#i"/>
<use x="270.166016" xlink:href="#d"/>
<use x="333.544922" xlink:href="#f"/>
<use x="394.824219" xlink:href="#l"/>
</g>
</g>
<path d="m87.671 744.37v33.808q0 2.4 2.4 2.4h7.7425q2.4 0 2.4-2.4v-33.808q0-2.4-2.4-2.4h-7.7425q-2.4 0-2.4 2.4z" clip-path="url(#a)" fill="#fff" stroke="#fff"/>
<g clip-path="url(#a)">
<g transform="translate(91.735 744.37) rotate(90) scale(.08 -.08)">
<use xlink:href="#k"/>
<use x="44.083984" xlink:href="#e"/>
<use x="105.607422" xlink:href="#g"/>
<use x="144.970703" xlink:href="#j"/>
<use x="242.382812" xlink:href="#i"/>
<use x="270.166016" xlink:href="#d"/>
<use x="333.544922" xlink:href="#f"/>
<use x="394.824219" xlink:href="#l"/>
</g>
</g>
<path d="m115.87 744.37v33.808q0 2.4 2.4 2.4h7.7425q2.4 0 2.4-2.4v-33.808q0-2.4-2.4-2.4h-7.7425q-2.4 0-2.4 2.4z" clip-path="url(#a)" fill="#fff" stroke="#fff"/>
<g clip-path="url(#a)">
<g transform="translate(119.93 744.37) rotate(90) scale(.08 -.08)">
<use xlink:href="#k"/>
<use x="44.083984" xlink:href="#e"/>
<use x="105.607422" xlink:href="#g"/>
<use x="144.970703" xlink:href="#j"/>
<use x="242.382812" xlink:href="#i"/>
<use x="270.166016" xlink:href="#d"/>
<use x="333.544922" xlink:href="#f"/>
<use x="394.824219" xlink:href="#l"/>
</g>
</g>
<path d="m100.49 744.37v33.808q0 2.4 2.4 2.4h7.7425q2.4 0 2.4-2.4v-33.808q0-2.4-2.4-2.4h-7.7425q-2.4 0-2.4 2.4z" clip-path="url(#a)" fill="#fff" stroke="#fff"/>
<g clip-path="url(#a)">
<g transform="translate(104.55 744.37) rotate(90) scale(.08 -.08)">
<use xlink:href="#k"/>
<use x="44.083984" xlink:href="#e"/>
<use x="105.607422" xlink:href="#g"/>
<use x="144.970703" xlink:href="#j"/>
<use x="242.382812" xlink:href="#i"/>
<use x="270.166016" xlink:href="#d"/>
<use x="333.544922" xlink:href="#f"/>
<use x="394.824219" xlink:href="#l"/>
</g>
</g>
<path d="m133.81 744.37v33.808q0 2.4 2.4 2.4h7.7425q2.4 0 2.4-2.4v-33.808q0-2.4-2.4-2.4h-7.7425q-2.4 0-2.4 2.4z" clip-path="url(#a)" fill="#fff" stroke="#fff"/>
<g clip-path="url(#a)">
<g transform="translate(137.87 744.37) rotate(90) scale(.08 -.08)">
<use xlink:href="#k"/>
<use x="44.083984" xlink:href="#e"/>
<use x="105.607422" xlink:href="#g"/>
<use x="144.970703" xlink:href="#j"/>
<use x="242.382812" xlink:href="#i"/>
<use x="270.166016" xlink:href="#d"/>
<use x="333.544922" xlink:href="#f"/>
<use x="394.824219" xlink:href="#l"/>
</g>
</g>
<path d="m233.78 744.37v33.808q0 2.4 2.4 2.4h7.7425q2.4 0 2.4-2.4v-33.808q0-2.4-2.4-2.4h-7.7425q-2.4 0-2.4 2.4z" clip-path="url(#a)" fill="#fff" stroke="#fff"/>
<g clip-path="url(#a)">
<g transform="translate(237.84 744.37) rotate(90) scale(.08 -.08)">
<use xlink:href="#k"/>
<use x="44.083984" xlink:href="#e"/>
<use x="105.607422" xlink:href="#g"/>
<use x="144.970703" xlink:href="#j"/>
<use x="242.382812" xlink:href="#i"/>
<use x="270.166016" xlink:href="#d"/>
<use x="333.544922" xlink:href="#f"/>
<use x="394.824219" xlink:href="#l"/>
</g>
</g>
<path d="m602.88 744.37v33.808q0 2.4 2.4 2.4h7.7425q2.4 0 2.4-2.4v-33.808q0-2.4-2.4-2.4h-7.7425q-2.4 0-2.4 2.4z" clip-path="url(#a)" fill="#fff" stroke="#fff"/>
<g clip-path="url(#a)">
<g transform="translate(606.95 744.37) rotate(90) scale(.08 -.08)">
<use xlink:href="#k"/>
<use x="44.083984" xlink:href="#e"/>
<use x="105.607422" xlink:href="#g"/>
<use x="144.970703" xlink:href="#j"/>
<use x="242.382812" xlink:href="#i"/>
<use x="270.166016" xlink:href="#d"/>
<use x="333.544922" xlink:href="#f"/>
<use x="394.824219" xlink:href="#l"/>
</g>
</g>
<path d="m1105.3 744.37v33.808q0 2.4 2.4 2.4h7.7425q2.4 0 2.4-2.4v-33.808q0-2.4-2.4-2.4h-7.7425q-2.4 0-2.4 2.4z" clip-path="url(#a)" fill="#fff" stroke="#fff"/>
<g clip-path="url(#a)">
<g transform="translate(1109.3 744.37) rotate(90) scale(.08 -.08)">
<use xlink:href="#k"/>
<use x="44.083984" xlink:href="#e"/>
<use x="105.607422" xlink:href="#g"/>
<use x="144.970703" xlink:href="#j"/>
<use x="242.382812" xlink:href="#i"/>
<use x="270.166016" xlink:href="#d"/>
<use x="333.544922" xlink:href="#f"/>
<use x="394.824219" xlink:href="#l"/>
</g>
</g>
<path d="m1589.7 744.37v33.808q0 2.4 2.4 2.4h7.7425q2.4 0 2.4-2.4v-33.808q0-2.4-2.4-2.4h-7.7425q-2.4 0-2.4 2.4z" clip-path="url(#a)" fill="#fff" stroke="#fff"/>
<g clip-path="url(#a)">
<g transform="translate(1593.8 744.37) rotate(90) scale(.08 -.08)">
<use xlink:href="#k"/>
<use x="44.083984" xlink:href="#e"/>
<use x="105.607422" xlink:href="#g"/>
<use x="144.970703" xlink:href="#j"/>
<use x="242.382812" xlink:href="#i"/>
<use x="270.166016" xlink:href="#d"/>
<use x="333.544922" xlink:href="#f"/>
<use x="394.824219" xlink:href="#l"/>
</g>
</g>
<defs>
<path id="b" d="m0 8.6603c2.2967 0 4.4997-0.9125 6.1237-2.5365 1.624-1.624 2.5365-3.827 2.5365-6.1237s-0.9125-4.4997-2.5365-6.1237c-1.624-1.624-3.827-2.5365-6.1237-2.5365s-4.4997 0.9125-6.1237 2.5365c-1.624 1.624-2.5365 3.827-2.5365 6.1237s0.9125 4.4997 2.5365 6.1237c1.624 1.624 3.827 2.5365 6.1237 2.5365z"/>
</defs>
<g clip-path="url(#a)" fill="#ffffff" stroke="#ffffff">
<use x="76" y="840" xlink:href="#b"/>
<use x="83.689713" y="840" xlink:href="#b"/>
<use x="93.942664" y="840" xlink:href="#b"/>
<use x="106.758853" y="840" xlink:href="#b"/>
<use x="122.13828" y="840" xlink:href="#b"/>
<use x="140.080944" y="840" xlink:href="#b"/>
<use x="160.586847" y="840" xlink:href="#b"/>
<use x="183.655987" y="840" xlink:href="#b"/>
<use x="209.288364" y="840" xlink:href="#b"/>
<use x="240.047218" y="840" xlink:href="#b"/>
<use x="270.806071" y="840" xlink:href="#b"/>
<use x="304.128162" y="840" xlink:href="#b"/>
<use x="340.013491" y="840" xlink:href="#b"/>
<use x="378.462057" y="840" xlink:href="#b"/>
<use x="419.473862" y="840" xlink:href="#b"/>
<use x="463.048904" y="840" xlink:href="#b"/>
<use x="509.187184" y="840" xlink:href="#b"/>
<use x="557.888702" y="840" xlink:href="#b"/>
<use x="609.153457" y="840" xlink:href="#b"/>
<use x="662.98145" y="840" xlink:href="#b"/>
<use x="719.372681" y="840" xlink:href="#b"/>
<use x="778.32715" y="840" xlink:href="#b"/>
<use x="839.844857" y="840" xlink:href="#b"/>
<use x="903.925801" y="840" xlink:href="#b"/>
<use x="970.569983" y="840" xlink:href="#b"/>
<use x="1039.777403" y="840" xlink:href="#b"/>
<use x="1111.548061" y="840" xlink:href="#b"/>
<use x="1185.881956" y="840" xlink:href="#b"/>
<use x="1262.779089" y="840" xlink:href="#b"/>
<use x="1342.23946" y="840" xlink:href="#b"/>
<use x="1424.263069" y="840" xlink:href="#b"/>
<use x="1508.849916" y="840" xlink:href="#b"/>
<use x="1596" y="840" xlink:href="#b"/>
<use x="211.851602" y="682.554489" xlink:href="#b"/>
<use x="362.918868" y="40" xlink:href="#b"/>
<use x="704.391981" y="201.426527" xlink:href="#b"/>
<use x="160.586847" y="682.554489" xlink:href="#b"/>
<use x="196.472175" y="522.918738" xlink:href="#b"/>
<use x="342.576728" y="522.918738" xlink:href="#b"/>
<use x="510.041596" y="522.918738" xlink:href="#b"/>
<use x="463.048904" y="682.554489" xlink:href="#b"/>
<use x="509.187184" y="682.554489" xlink:href="#b"/>
<use x="557.888702" y="682.554489" xlink:href="#b"/>
<use x="270.806071" y="682.554489" xlink:href="#b"/>
<use x="304.128162" y="682.554489" xlink:href="#b"/>
<use x="340.013491" y="682.554489" xlink:href="#b"/>
<use x="378.462057" y="682.554489" xlink:href="#b"/>
<use x="419.473862" y="682.554489" xlink:href="#b"/>
<use x="183.655987" y="682.554489" xlink:href="#b"/>
<use x="209.288364" y="682.554489" xlink:href="#b"/>
<use x="96.505902" y="522.918738" xlink:href="#b"/>
<use x="662.98145" y="682.554489" xlink:href="#b"/>
<use x="719.372681" y="682.554489" xlink:href="#b"/>
<use x="851.806633" y="522.918738" xlink:href="#b"/>
<use x="1191.293236" y="362.445711" xlink:href="#b"/>
<use x="1039.777403" y="682.554489" xlink:href="#b"/>
<use x="1185.881956" y="682.554489" xlink:href="#b"/>
<use x="1427.965524" y="522.918738" xlink:href="#b"/>
<use x="1262.779089" y="682.554489" xlink:href="#b"/>
<use x="1425.117482" y="682.554489" xlink:href="#b"/>
<use x="778.32715" y="682.554489" xlink:href="#b"/>
<use x="839.844857" y="682.554489" xlink:href="#b"/>
<use x="937.247892" y="682.554489" xlink:href="#b"/>
<use x="76" y="682.554489" xlink:href="#b"/>
<use x="83.689713" y="682.554489" xlink:href="#b"/>
<use x="93.942664" y="682.554489" xlink:href="#b"/>
<use x="122.13828" y="682.554489" xlink:href="#b"/>
<use x="106.758853" y="682.554489" xlink:href="#b"/>
<use x="140.080944" y="682.554489" xlink:href="#b"/>
<use x="240.047218" y="682.554489" xlink:href="#b"/>
<use x="609.153457" y="682.554489" xlink:href="#b"/>
<use x="1111.548061" y="682.554489" xlink:href="#b"/>
<use x="1596" y="682.554489" xlink:href="#b"/>
</g>
<g clip-path="url(#a)">
<defs>
<path id="aw" d="m39.406 66.219q-10.75 0-17.078-8.0156-6.3125-8-6.3125-21.828 0-13.766 6.3125-21.781 6.3281-8 17.078-8 10.734 0 17.016 8 6.2812 8.0156 6.2812 21.781 0 13.828-6.2812 21.828-6.2812 8.0156-17.016 8.0156zm0 8q15.328 0 24.5-10.281 9.1875-10.281 9.1875-27.562 0-17.234-9.1875-27.516-9.1719-10.281-24.5-10.281-15.375 0-24.594 10.25-9.2031 10.266-9.2031 27.547t9.2031 27.562q9.2188 10.281 24.594 10.281z"/>
</defs>
<g transform="translate(68.895 842.76) scale(.1 -.1)">
<use xlink:href="#aw"/>
<use x="78.710938" xlink:href="#d"/>
</g>
</g>
<g clip-path="url(#a)">
<defs>
<path id="u" d="m48.781 52.594v-8.4062q-3.8125 2.1094-7.6406 3.1562t-7.7344 1.0469q-8.75 0-13.594-5.5469-4.8281-5.5312-4.8281-15.547t4.8281-15.562q4.8438-5.5312 13.594-5.5312 3.9062 0 7.7344 1.0469t7.6406 3.1562v-8.3125q-3.7656-1.75-7.7969-2.625-4.0156-0.89062-8.5625-0.89062-12.359 0-19.641 7.7656-7.2656 7.7656-7.2656 20.953 0 13.375 7.3438 21.031 7.3594 7.6719 20.156 7.6719 4.1406 0 8.0938-0.85938 3.9531-0.84375 7.6719-2.5469z"/>
<path id="ao" d="m48.688 27.297q0 9.9062-4.0781 15.547t-11.203 5.6406q-7.1406 0-11.219-5.6406t-4.0781-15.547 4.0781-15.547 11.219-5.6406q7.125 0 11.203 5.6406t4.0781 15.547zm-30.578 19.094q2.8438 4.875 7.1562 7.2344 4.3281 2.375 10.328 2.375 9.9688 0 16.188-7.9062 6.2344-7.9062 6.2344-20.797t-6.2344-20.812q-6.2188-7.9062-16.188-7.9062-6 0-10.328 2.375-4.3125 2.375-7.1562 7.25v-8.2031h-9.0312v75.984h9.0312z"/>
</defs>
<g transform="translate(57.761 842.76) scale(.1 -.1)">
<use xlink:href="#ak"/>
<use x="77.001953" xlink:href="#e"/>
<use x="138.525391" xlink:href="#u"/>
<use x="193.505859" xlink:href="#e"/>
<use x="255.029297" xlink:href="#j"/>
<use x="352.441406" xlink:href="#ao"/>
<use x="415.917969" xlink:href="#e"/>
<use x="477.441406" xlink:href="#g"/>
</g>
</g>
<g clip-path="url(#a)">
<defs>
<path id="r" d="m10.797 72.906h38.719v-8.3125h-29.688v-17.859q2.1406 0.73438 4.2812 1.0938 2.1562 0.35938 4.3125 0.35938 12.203 0 19.328-6.6875 7.1406-6.6875 7.1406-18.109 0-11.766-7.3281-18.297-7.3281-6.5156-20.656-6.5156-4.5938 0-9.3594 0.78125-4.75 0.78125-9.8281 2.3438v9.9219q4.3906-2.3906 9.0781-3.5625t9.9062-1.1719q8.4531 0 13.375 4.4375 4.9375 4.4375 4.9375 12.062 0 7.6094-4.9375 12.047-4.9219 4.4531-13.375 4.4531-3.9531 0-7.8906-0.875-3.9219-0.875-8.0156-2.7344z"/>
</defs>
<g transform="translate(90.761 842.76) scale(.1 -.1)">
<use xlink:href="#r"/>
</g>
</g>
<g clip-path="url(#a)">
<defs>
<path id="af" d="m11.719 12.406h10.297v-8.4062l-8-15.625h-6.2969l4 15.625z"/>
</defs>
<g transform="translate(105.17 842.76) scale(.1 -.1)">
<use xlink:href="#af"/>
</g>
</g>
<g clip-path="url(#a)">
<defs>
<path id="n" d="m19.188 8.2969h34.422v-8.2969h-46.281v8.2969q5.6094 5.8125 15.297 15.594 9.7031 9.7969 12.188 12.641 4.7344 5.3125 6.6094 9 1.8906 3.6875 1.8906 7.25 0 5.8125-4.0781 9.4688-4.0781 3.6719-10.625 3.6719-4.6406 0-9.7969-1.6094-5.1406-1.6094-11-4.8906v9.9688q5.9531 2.3906 11.125 3.6094 5.1875 1.2188 9.4844 1.2188 11.328 0 18.062-5.6719 6.7344-5.6562 6.7344-15.125 0-4.5-1.6875-8.5312-1.6719-4.0156-6.125-9.4844-1.2188-1.4219-7.7656-8.1875-6.5312-6.7656-18.453-18.922z"/>
<path id="x" d="m31.781 66.406q-7.6094 0-11.453-7.5-3.8281-7.4844-3.8281-22.531 0-14.984 3.8281-22.484 3.8438-7.5 11.453-7.5 7.6719 0 11.5 7.5 3.8438 7.5 3.8438 22.484 0 15.047-3.8438 22.531-3.8281 7.5-11.5 7.5zm0 7.8125q12.266 0 18.734-9.7031 6.4688-9.6875 6.4688-28.141 0-18.406-6.4688-28.109-6.4688-9.6875-18.734-9.6875-12.25 0-18.719 9.6875-6.4688 9.7031-6.4688 28.109 0 18.453 6.4688 28.141 6.4688 9.7031 18.719 9.7031z"/>
</defs>
<g transform="translate(109.41 842.76) scale(.1 -.1)">
<use xlink:href="#n"/>
<use x="63.623047" xlink:href="#x"/>
<use x="127.246094" xlink:href="#x"/>
<use x="190.869141" xlink:href="#r"/>
</g>
</g>
<g clip-path="url(#a)">
<g transform="translate(138.49 842.76) scale(.1 -.1)">
<use xlink:href="#af"/>
</g>
</g>
<g clip-path="url(#a)">
<defs>
<path id="ab" d="m37.109 75.984v-7.4844h-8.5938q-4.8281 0-6.7188-1.9531-1.875-1.9531-1.875-7.0312v-4.8281h14.797v-6.9844h-14.797v-47.703h-9.0312v47.703h-8.5938v6.9844h8.5938v3.8125q0 9.125 4.25 13.297 4.25 4.1875 13.469 4.1875z"/>
<path id="s" d="m18.312 70.219v-15.531h18.5v-6.9844h-18.5v-29.688q0-6.6875 1.8281-8.5938t7.4531-1.9062h9.2188v-7.5156h-9.2188q-10.406 0-14.359 3.875-3.9531 3.8906-3.9531 14.141v29.688h-6.5938v6.9844h6.5938v15.531z"/>
</defs>
<g transform="translate(148.76 842.76) scale(.1 -.1)">
<use xlink:href="#f"/>
<use x="61.279297" xlink:href="#ab"/>
<use x="94.734375" xlink:href="#s"/>
<use x="133.943359" xlink:href="#e"/>
<use x="195.466797" xlink:href="#g"/>
</g>
</g>
<g clip-path="url(#a)">
<defs>
<path id="am" d="m8.5 21.578v33.109h8.9844v-32.766q0-7.7656 3.0156-11.656 3.0312-3.875 9.0938-3.875 7.2656 0 11.484 4.6406 4.2344 4.6406 4.2344 12.656v31h8.9844v-54.688h-8.9844v8.4062q-3.2656-4.9844-7.5938-7.4062-4.3125-2.4219-10.031-2.4219-9.4219 0-14.312 5.8594-4.875 5.8594-4.875 17.141z"/>
<path id="y" d="m54.891 33.016v-33.016h-8.9844v32.719q0 7.7656-3.0312 11.609-3.0312 3.8594-9.0781 3.8594-7.2812 0-11.484-4.6406-4.2031-4.625-4.2031-12.641v-30.906h-9.0312v75.984h9.0312v-29.797q3.2344 4.9375 7.5938 7.375 4.375 2.4375 10.094 2.4375 9.4219 0 14.25-5.8281 4.8438-5.8281 4.8438-17.156z"/>
</defs>
<g transform="translate(169.7 842.76) scale(.1 -.1)">
<use xlink:href="#j"/>
<use x="97.412109" xlink:href="#am"/>
<use x="160.791016" xlink:href="#u"/>
<use x="215.771484" xlink:href="#y"/>
</g>
</g>
<g clip-path="url(#a)">
<defs>
<path id="t" d="m44.281 53.078v-8.5q-3.7969 1.9531-7.9062 2.9219-4.0938 0.98438-8.5 0.98438-6.6875 0-10.031-2.0469t-3.3438-6.1562q0-3.125 2.3906-4.9062t9.625-3.3906l3.0781-0.6875q9.5625-2.0469 13.594-5.7812t4.0312-10.422q0-7.625-6.0312-12.078-6.0312-4.4375-16.578-4.4375-4.3906 0-9.1562 0.85938t-10.031 2.5625v9.2812q4.9844-2.5938 9.8125-3.8906 4.8281-1.2812 9.5781-1.2812 6.3438 0 9.75 2.1719 3.4219 2.1719 3.4219 6.125 0 3.6562-2.4688 5.6094-2.4531 1.9531-10.812 3.7656l-3.125 0.73438q-8.3438 1.75-12.062 5.3906-3.7031 3.6406-3.7031 9.9844 0 7.7188 5.4688 11.906 5.4688 4.2031 15.531 4.2031 4.9688 0 9.3594-0.73438 4.4062-0.71875 8.1094-2.1875z"/>
<path id="an" d="m18.109 8.2031v-29h-9.0312v75.484h9.0312v-8.2969q2.8438 4.875 7.1562 7.2344 4.3281 2.375 10.328 2.375 9.9688 0 16.188-7.9062 6.2344-7.9062 6.2344-20.797t-6.2344-20.812q-6.2188-7.9062-16.188-7.9062-6 0-10.328 2.375-4.3125 2.375-7.1562 7.25zm30.578 19.094q0 9.9062-4.0781 15.547t-11.203 5.6406q-7.1406 0-11.219-5.6406t-4.0781-15.547 4.0781-15.547 11.219-5.6406q7.125 0 11.203 5.6406t4.0781 15.547z"/>
<path id="o" d="m30.609 48.391q-7.2188 0-11.422-5.6406t-4.2031-15.453 4.1719-15.453q4.1875-5.6406 11.453-5.6406 7.1875 0 11.375 5.6562 4.2031 5.6719 4.2031 15.438 0 9.7188-4.2031 15.406-4.1875 5.6875-11.375 5.6875zm0 7.6094q11.719 0 18.406-7.625 6.7031-7.6094 6.7031-21.078 0-13.422-6.7031-21.078-6.6875-7.6406-18.406-7.6406-11.766 0-18.438 7.6406-6.6562 7.6562-6.6562 21.078 0 13.469 6.6562 21.078 6.6719 7.625 18.438 7.625z"/>
</defs>
<g transform="translate(180.48 842.76) scale(.1 -.1)">
<use xlink:href="#t"/>
<use x="52.099609" xlink:href="#an"/>
<use x="115.576172" xlink:href="#e"/>
<use x="177.099609" xlink:href="#u"/>
<use x="232.080078" xlink:href="#am"/>
<use x="295.458984" xlink:href="#l"/>
<use x="323.242188" xlink:href="#f"/>
<use x="384.521484" xlink:href="#s"/>
<use x="423.730469" xlink:href="#i"/>
<use x="451.513672" xlink:href="#o"/>
<use x="512.695312" xlink:href="#d"/>
</g>
</g>
<g clip-path="url(#a)">
<g transform="translate(238.46 842.76) scale(.1 -.1)">
<use xlink:href="#af"/>
</g>
</g>
<g clip-path="url(#a)">
<defs>
<path id="z" d="m45.406 46.391v29.594h8.9844v-75.984h-8.9844v8.2031q-2.8281-4.875-7.1562-7.25-4.3125-2.375-10.375-2.375-9.9062 0-16.141 7.9062-6.2188 7.9219-6.2188 20.812t6.2188 20.797q6.2344 7.9062 16.141 7.9062 6.0625 0 10.375-2.375 4.3281-2.3594 7.1562-7.2344zm-30.609-19.094q0-9.9062 4.0781-15.547t11.203-5.6406 11.219 5.6406q4.1094 5.6406 4.1094 15.547t-4.1094 15.547q-4.0938 5.6406-11.219 5.6406t-11.203-5.6406-4.0781-15.547z"/>
</defs>
<g transform="translate(261.4 842.76) scale(.1 -.1)">
<use xlink:href="#f"/>
<use x="61.279297" xlink:href="#d"/>
<use x="124.658203" xlink:href="#z"/>
</g>
</g>
<g clip-path="url(#a)">
<defs>
<path id="ba" d="m32.172-5.0781q-3.7969-9.7656-7.4219-12.734-3.6094-2.9844-9.6562-2.9844h-7.1875v7.5156h5.2812q3.7031 0 5.75 1.7656 2.0625 1.75 4.5469 8.2969l1.6094 4.0938-22.109 53.812h9.5156l17.094-42.766 17.094 42.766h9.5156z"/>
</defs>
<g transform="translate(288.41 842.76) scale(.1 -.1)">
<use xlink:href="#d"/>
<use x="63.378906" xlink:href="#e"/>
<use x="124.902344" xlink:href="#f"/>
<use x="186.181641" xlink:href="#g"/>
<use x="227.294922" xlink:href="#l"/>
<use x="255.078125" xlink:href="#ba"/>
</g>
</g>
<g clip-path="url(#a)">
<defs>
<path id="aa" d="m45.406 27.984q0 9.7656-4.0312 15.125-4.0156 5.375-11.297 5.375-7.2188 0-11.25-5.375-4.0312-5.3594-4.0312-15.125 0-9.7188 4.0312-15.094t11.25-5.375q7.2812 0 11.297 5.375 4.0312 5.375 4.0312 15.094zm8.9844-21.203q0-13.953-6.2031-20.766-6.1875-6.8125-18.984-6.8125-4.7344 0-8.9375 0.70312t-8.1562 2.1719v8.7344q3.9531-2.1406 7.8125-3.1562 3.8594-1.0312 7.8594-1.0312 8.8438 0 13.234 4.6094t4.3906 13.938v4.4531q-2.7812-4.8438-7.125-7.2344t-10.406-2.3906q-10.047 0-16.203 7.6562-6.1562 7.6719-6.1562 20.328 0 12.688 6.1562 20.344 6.1562 7.6719 16.203 7.6719 6.0625 0 10.406-2.3906t7.125-7.2188v8.2969h8.9844z"/>
</defs>
<g transform="translate(327.24 842.76) scale(.1 -.1)">
<use xlink:href="#e"/>
<use x="61.523438" xlink:href="#i"/>
<use x="89.306641" xlink:href="#aa"/>
<use x="152.783203" xlink:href="#y"/>
<use x="216.162109" xlink:href="#s"/>
</g>
</g>
<g clip-path="url(#a)">
<g transform="translate(359.63 842.76) scale(.1 -.1)">
<use xlink:href="#j"/>
<use x="97.412109" xlink:href="#o"/>
<use x="158.59375" xlink:href="#d"/>
<use x="221.972656" xlink:href="#s"/>
<use x="261.181641" xlink:href="#y"/>
<use x="324.560547" xlink:href="#t"/>
</g>
</g>
<g clip-path="url(#a)">
<g transform="translate(407.64 842.76) scale(.1 -.1)">
<use xlink:href="#f"/>
<use x="61.279297" xlink:href="#ab"/>
<use x="94.734375" xlink:href="#s"/>
<use x="133.943359" xlink:href="#e"/>
<use x="195.466797" xlink:href="#g"/>
</g>
</g>
<g clip-path="url(#a)">
<defs>
<path id="ay" d="m9.8125 72.906h9.8594v-67.828q0-13.188-5-19.141t-16.094-5.9531h-3.75v8.2969h3.0781q6.5312 0 9.2188 3.6719 2.6875 3.6562 2.6875 13.125z"/>
</defs>
<g transform="translate(441.82 842.76) scale(.1 -.1)">
<use xlink:href="#ay"/>
<use x="29.492188" xlink:href="#e"/>
<use x="91.015625" xlink:href="#d"/>
<use x="154.394531" xlink:href="#d"/>
<use x="217.773438" xlink:href="#i"/>
<use x="245.556641" xlink:href="#d"/>
<use x="308.935547" xlink:href="#aa"/>
<use x="372.412109" xlink:href="#t"/>
</g>
</g>
<g clip-path="url(#a)">
<g transform="translate(488.96 842.76) scale(.1 -.1)">
<use xlink:href="#t"/>
<use x="52.099609" xlink:href="#s"/>
<use x="91.308594" xlink:href="#o"/>
<use x="152.490234" xlink:href="#an"/>
<use x="215.966797" xlink:href="#an"/>
<use x="279.443359" xlink:href="#e"/>
<use x="340.966797" xlink:href="#z"/>
</g>
</g>
<g clip-path="url(#a)">
<g transform="translate(532.89 842.76) scale(.1 -.1)">
<use xlink:href="#f"/>
<use x="61.279297" xlink:href="#d"/>
<use x="124.658203" xlink:href="#u"/>
<use x="179.638672" xlink:href="#y"/>
<use x="243.017578" xlink:href="#o"/>
<use x="304.199219" xlink:href="#g"/>
<use x="345.3125" xlink:href="#i"/>
<use x="373.095703" xlink:href="#d"/>
<use x="436.474609" xlink:href="#aa"/>
</g>
</g>
<g clip-path="url(#a)">
<g transform="translate(607.56 842.76) scale(.1 -.1)">
<use xlink:href="#af"/>
</g>
</g>
<g clip-path="url(#a)">
<defs>
<path id="ar" d="m19.672 34.812v-26.703h15.828q7.9531 0 11.781 3.2969 3.8438 3.2969 3.8438 10.078 0 6.8438-3.8438 10.078-3.8281 3.25-11.781 3.25zm0 29.984v-21.969h14.609q7.2188 0 10.75 2.7031 3.5469 2.7188 3.5469 8.2812 0 5.5156-3.5469 8.25-3.5312 2.7344-10.75 2.7344zm-9.8594 8.1094h25.203q11.281 0 17.375-4.6875 6.1094-4.6875 6.1094-13.328 0-6.7031-3.125-10.656t-9.1875-4.9219q7.2812-1.5625 11.312-6.5312 4.0312-4.9531 4.0312-12.375 0-9.7656-6.6406-15.094-6.6406-5.3125-18.906-5.3125h-26.172z"/>
</defs>
<g transform="translate(652.73 842.76) scale(.1 -.1)">
<use xlink:href="#w"/>
<use x="68.408203" xlink:href="#ar"/>
<use x="135.261719" xlink:href="#q"/>
</g>
</g>
<g clip-path="url(#a)">
<g transform="translate(702.02 842.76) scale(.1 -.1)">
<use xlink:href="#d"/>
<use x="63.378906" xlink:href="#f"/>
<use x="124.658203" xlink:href="#j"/>
<use x="222.070312" xlink:href="#e"/>
<use x="283.59375" xlink:href="#z"/>
</g>
</g>
<g clip-path="url(#a)">
<defs>
<path id="au" d="m28.609 0-27.828 72.906h10.297l23.109-61.375 23.141 61.375h10.25l-27.781-72.906z"/>
</defs>
<g transform="translate(761.42 842.76) scale(.1 -.1)">
<use xlink:href="#au"/>
<use x="60.658203" xlink:href="#f"/>
<use x="121.9375" xlink:href="#g"/>
<use x="161.300781" xlink:href="#aa"/>
<use x="224.777344" xlink:href="#f"/>
<use x="286.056641" xlink:href="#t"/>
</g>
</g>
<g clip-path="url(#a)">
<g transform="translate(830.44 842.76) scale(.1 -.1)">
<use xlink:href="#f"/>
<use x="61.279297" xlink:href="#d"/>
<use x="124.658203" xlink:href="#z"/>
</g>
</g>
<g clip-path="url(#a)">
<g transform="translate(894.26 842.76) scale(.1 -.1)">
<use xlink:href="#ar"/>
<use x="68.603516" xlink:href="#o"/>
<use x="129.785156" xlink:href="#ao"/>
</g>
</g>
<g clip-path="url(#a)">
<defs>
<path id="ap" d="m3.3281 72.906h9.9531l15.328-61.625 15.281 61.625h11.094l15.328-61.625 15.281 61.625h10.016l-18.312-72.906h-12.406l-15.375 63.281-15.531-63.281h-12.406z"/>
</defs>
<g transform="translate(947.88 842.76) scale(.1 -.1)">
<use xlink:href="#ap"/>
<use x="93.001953" xlink:href="#o"/>
<use x="154.183594" xlink:href="#o"/>
<use x="215.365234" xlink:href="#z"/>
<use x="278.841797" xlink:href="#g"/>
<use x="319.955078" xlink:href="#am"/>
<use x="383.333984" xlink:href="#ab"/>
<use x="418.539062" xlink:href="#ab"/>
</g>
</g>
<g clip-path="url(#a)">
<g transform="translate(1034 842.76) scale(.1 -.1)">
<use xlink:href="#u"/>
<use x="54.980469" xlink:href="#o"/>
</g>
</g>
<g clip-path="url(#a)">
<defs>
<path id="az" d="m4.8906 31.391h26.312v-8h-26.312z"/>
</defs>
<g transform="translate(1109.7 842.76) scale(.1 -.1)">
<use xlink:href="#az"/>
</g>
</g>
<g clip-path="url(#a)">
<g transform="translate(1166 842.76) scale(.1 -.1)">
<use xlink:href="#f"/>
<use x="61.279297" xlink:href="#d"/>
<use x="124.658203" xlink:href="#u"/>
<use x="179.638672" xlink:href="#y"/>
<use x="243.017578" xlink:href="#o"/>
<use x="304.199219" xlink:href="#g"/>
<use x="345.3125" xlink:href="#t"/>
</g>
</g>
<g clip-path="url(#a)">
<g transform="translate(1255.9 842.76) scale(.1 -.1)">
<use xlink:href="#ab"/>
<use x="35.205078" xlink:href="#o"/>
<use x="96.386719" xlink:href="#g"/>
</g>
</g>
<g clip-path="url(#a)">
<g transform="translate(1327.9 842.76) scale(.1 -.1)">
<use xlink:href="#ap"/>
<use x="93.001953" xlink:href="#o"/>
<use x="154.183594" xlink:href="#g"/>
<use x="195.296875" xlink:href="#l"/>
<use x="223.080078" xlink:href="#z"/>
</g>
</g>
<g clip-path="url(#a)">
<defs>
<path id="bb" d="m4.2031 54.688h8.9844l11.234-42.672 11.172 42.672h10.594l11.234-42.672 11.188 42.672h8.9844l-14.312-54.688h-10.594l-11.766 44.828-11.812-44.828h-10.609z"/>
</defs>
<g transform="translate(1410.8 842.76) scale(.1 -.1)">
<use xlink:href="#aq"/>
<use x="74.804688" xlink:href="#e"/>
<use x="136.328125" xlink:href="#bb"/>
<use x="218.115234" xlink:href="#t"/>
</g>
</g>
<g clip-path="url(#a)">
<g transform="translate(1490.7 842.76) scale(.1 -.1)">
<use xlink:href="#k"/>
<use x="44.083984" xlink:href="#o"/>
<use x="105.265625" xlink:href="#d"/>
<use x="168.644531" xlink:href="#i"/>
<use x="196.427734" xlink:href="#aa"/>
<use x="259.904297" xlink:href="#y"/>
<use x="323.283203" xlink:href="#s"/>
</g>
</g>
<g clip-path="url(#a)">
<defs>
<path id="h" d="m10.688 12.406h10.312v-12.406h-10.312z"/>
</defs>
<g transform="translate(1594.4 842.76) scale(.1 -.1)">
<use xlink:href="#h"/>
</g>
</g>
<g clip-path="url(#a)">
<defs>
<path id="ah" d="m9.8125 72.906h9.8594v-72.906h-9.8594z"/>
<path id="ax" d="m9.8125 72.906h14.703l18.594-49.609 18.703 49.609h14.703v-72.906h-9.625v64.016l-18.797-50h-9.9062l-18.797 50v-64.016h-9.5781z"/>
</defs>
<g transform="translate(190.77 685.31) scale(.1 -.1)">
<use xlink:href="#ah"/>
<use x="29.492188" xlink:href="#ax"/>
<use x="115.771484" xlink:href="#ad"/>
<use x="176.074219" xlink:href="#ag"/>
<use x="231.787109" xlink:href="#ah"/>
<use x="261.279297" xlink:href="#q"/>
<use x="331.103516" xlink:href="#ah"/>
<use x="360.595703" xlink:href="#k"/>
</g>
</g>
<g clip-path="url(#a)">
<defs>
<path id="c" d="m12.406 8.2969h16.109v55.625l-17.531-3.5156v8.9844l17.438 3.5156h9.8594v-64.609h16.109v-8.2969h-41.984z"/>
</defs>
<g transform="translate(354.97 42.759) scale(.1 -.1)">
<use xlink:href="#c"/>
<use x="63.623047" xlink:href="#h"/>
<use x="95.410156" xlink:href="#c"/>
</g>
</g>
<g clip-path="url(#a)">
<g transform="translate(696.44 204.19) scale(.1 -.1)">
<use xlink:href="#c"/>
<use x="63.623047" xlink:href="#h"/>
<use x="95.410156" xlink:href="#n"/>
</g>
</g>
<g clip-path="url(#a)">
<defs>
<path id="m" d="m40.578 39.312q7.0781-1.5156 11.047-6.3125 3.9844-4.7812 3.9844-11.812 0-10.781-7.4219-16.703-7.4219-5.9062-21.094-5.9062-4.5781 0-9.4375 0.90625t-10.031 2.7188v9.5156q4.0938-2.3906 8.9688-3.6094 4.8906-1.2188 10.219-1.2188 9.2656 0 14.125 3.6562t4.8594 10.641q0 6.4531-4.5156 10.078-4.5156 3.6406-12.562 3.6406h-8.5v8.1094h8.8906q7.2656 0 11.125 2.9062t3.8594 8.375q0 5.6094-3.9844 8.6094-3.9688 3.0156-11.391 3.0156-4.0625 0-8.7031-0.89062-4.6406-0.875-10.203-2.7188v8.7812q5.625 1.5625 10.531 2.3438t9.25 0.78125q11.234 0 17.766-5.1094 6.5469-5.0938 6.5469-13.781 0-6.0625-3.4688-10.234t-9.8594-5.7812z"/>
</defs>
<g transform="translate(152.64 685.31) scale(.1 -.1)">
<use xlink:href="#c"/>
<use x="63.623047" xlink:href="#h"/>
<use x="95.410156" xlink:href="#m"/>
</g>
</g>
<g clip-path="url(#a)">
<defs>
<path id="p" d="m37.797 64.312-24.906-38.922h24.906zm-2.5938 8.5938h12.406v-47.516h10.406v-8.2031h-10.406v-17.188h-9.8125v17.188h-32.906v9.5156z"/>
</defs>
<g transform="translate(188.52 525.68) scale(.1 -.1)">
<use xlink:href="#c"/>
<use x="63.623047" xlink:href="#h"/>
<use x="95.410156" xlink:href="#p"/>
</g>
</g>
<g clip-path="url(#a)">
<g transform="translate(334.63 525.68) scale(.1 -.1)">
<use xlink:href="#c"/>
<use x="63.623047" xlink:href="#h"/>
<use x="95.410156" xlink:href="#r"/>
</g>
</g>
<g clip-path="url(#a)">
<defs>
<path id="ae" d="m33.016 40.375q-6.6406 0-10.531-4.5469-3.875-4.5312-3.875-12.438 0-7.8594 3.875-12.438 3.8906-4.5625 10.531-4.5625t10.516 4.5625q3.875 4.5781 3.875 12.438 0 7.9062-3.875 12.438-3.875 4.5469-10.516 4.5469zm19.578 30.922v-8.9844q-3.7188 1.75-7.5 2.6719-3.7812 0.9375-7.5 0.9375-9.7656 0-14.922-6.5938-5.1406-6.5938-5.875-19.922 2.875 4.25 7.2188 6.5156 4.3594 2.2656 9.5781 2.2656 10.984 0 17.359-6.6719 6.375-6.6562 6.375-18.125 0-11.234-6.6406-18.031-6.6406-6.7812-17.672-6.7812-12.656 0-19.344 9.6875-6.6875 9.7031-6.6875 28.109 0 17.281 8.2031 27.562t22.016 10.281q3.7188 0 7.5-0.73438t7.8906-2.1875z"/>
</defs>
<g transform="translate(502.09 525.68) scale(.1 -.1)">
<use xlink:href="#c"/>
<use x="63.623047" xlink:href="#h"/>
<use x="95.410156" xlink:href="#ae"/>
</g>
</g>
<g clip-path="url(#a)">
<g transform="translate(451.92 685.31) scale(.1 -.1)">
<use xlink:href="#c"/>
<use x="63.623047" xlink:href="#h"/>
<use x="95.410156" xlink:href="#c"/>
<use x="159.033203" xlink:href="#x"/>
</g>
</g>
<g clip-path="url(#a)">
<g transform="translate(498.05 685.31) scale(.1 -.1)">
<use xlink:href="#c"/>
<use x="63.623047" xlink:href="#h"/>
<use x="95.410156" xlink:href="#c"/>
<use x="159.033203" xlink:href="#c"/>
</g>
</g>
<g clip-path="url(#a)">
<g transform="translate(546.76 685.31) scale(.1 -.1)">
<use xlink:href="#c"/>
<use x="63.623047" xlink:href="#h"/>
<use x="95.410156" xlink:href="#c"/>
<use x="159.033203" xlink:href="#n"/>
</g>
</g>
<g clip-path="url(#a)">
<g transform="translate(259.67 685.31) scale(.1 -.1)">
<use xlink:href="#c"/>
<use x="63.623047" xlink:href="#h"/>
<use x="95.410156" xlink:href="#c"/>
<use x="159.033203" xlink:href="#m"/>
</g>
</g>
<g clip-path="url(#a)">
<g transform="translate(293 685.31) scale(.1 -.1)">
<use xlink:href="#c"/>
<use x="63.623047" xlink:href="#h"/>
<use x="95.410156" xlink:href="#c"/>
<use x="159.033203" xlink:href="#p"/>
</g>
</g>
<g clip-path="url(#a)">
<g transform="translate(328.88 685.31) scale(.1 -.1)">
<use xlink:href="#c"/>
<use x="63.623047" xlink:href="#h"/>
<use x="95.410156" xlink:href="#c"/>
<use x="159.033203" xlink:href="#r"/>
</g>
</g>
<g clip-path="url(#a)">
<g transform="translate(367.33 685.31) scale(.1 -.1)">
<use xlink:href="#c"/>
<use x="63.623047" xlink:href="#h"/>
<use x="95.410156" xlink:href="#c"/>
<use x="159.033203" xlink:href="#ae"/>
</g>
</g>
<g clip-path="url(#a)">
<defs>
<path id="al" d="m8.2031 72.906h46.875v-4.2031l-26.469-68.703h-10.297l24.906 64.594h-35.016z"/>
</defs>
<g transform="translate(408.34 685.31) scale(.1 -.1)">
<use xlink:href="#c"/>
<use x="63.623047" xlink:href="#h"/>
<use x="95.410156" xlink:href="#c"/>
<use x="159.033203" xlink:href="#al"/>
</g>
</g>
<g clip-path="url(#a)">
<defs>
<path id="as" d="m10.984 1.5156v8.9844q3.7188-1.7656 7.5156-2.6875 3.8125-0.92188 7.4844-0.92188 9.7656 0 14.906 6.5625 5.1562 6.5625 5.8906 19.953-2.8281-4.2031-7.1875-6.4531-4.3438-2.25-9.6094-2.25-10.938 0-17.312 6.6094-6.375 6.625-6.375 18.109 0 11.219 6.6406 18 6.6406 6.7969 17.672 6.7969 12.656 0 19.312-9.7031 6.6719-9.6875 6.6719-28.141 0-17.234-8.1875-27.516-8.1719-10.281-21.984-10.281-3.7188 0-7.5312 0.73438-3.7969 0.73438-7.9062 2.2031zm19.625 30.906q6.6406 0 10.516 4.5312 3.8906 4.5469 3.8906 12.469 0 7.8594-3.8906 12.422-3.875 4.5625-10.516 4.5625t-10.516-4.5625-3.875-12.422q0-7.9219 3.875-12.469 3.875-4.5312 10.516-4.5312z"/>
</defs>
<g transform="translate(172.52 685.31) scale(.1 -.1)">
<use xlink:href="#c"/>
<use x="63.623047" xlink:href="#h"/>
<use x="95.410156" xlink:href="#c"/>
<use x="159.033203" xlink:href="#as"/>
</g>
</g>
<g clip-path="url(#a)">
<g transform="translate(198.16 685.31) scale(.1 -.1)">
<use xlink:href="#c"/>
<use x="63.623047" xlink:href="#h"/>
<use x="95.410156" xlink:href="#n"/>
<use x="159.033203" xlink:href="#x"/>
</g>
</g>
<g clip-path="url(#a)">
<g transform="translate(85.373 525.68) scale(.1 -.1)">
<use xlink:href="#c"/>
<use x="63.623047" xlink:href="#h"/>
<use x="95.410156" xlink:href="#n"/>
<use x="159.033203" xlink:href="#c"/>
</g>
</g>
<g clip-path="url(#a)">
<g transform="translate(651.85 685.31) scale(.1 -.1)">
<use xlink:href="#c"/>
<use x="63.623047" xlink:href="#h"/>
<use x="95.410156" xlink:href="#n"/>
<use x="159.033203" xlink:href="#n"/>
</g>
</g>
<g clip-path="url(#a)">
<g transform="translate(708.24 685.31) scale(.1 -.1)">
<use xlink:href="#c"/>
<use x="63.623047" xlink:href="#h"/>
<use x="95.410156" xlink:href="#n"/>
<use x="159.033203" xlink:href="#m"/>
</g>
</g>
<g clip-path="url(#a)">
<g transform="translate(840.67 525.68) scale(.1 -.1)">
<use xlink:href="#c"/>
<use x="63.623047" xlink:href="#h"/>
<use x="95.410156" xlink:href="#n"/>
<use x="159.033203" xlink:href="#p"/>
</g>
</g>
<g clip-path="url(#a)">
<g transform="translate(1180.2 365.21) scale(.1 -.1)">
<use xlink:href="#c"/>
<use x="63.623047" xlink:href="#h"/>
<use x="95.410156" xlink:href="#n"/>
<use x="159.033203" xlink:href="#r"/>
</g>
</g>
<g clip-path="url(#a)">
<g transform="translate(1028.6 685.31) scale(.1 -.1)">
<use xlink:href="#c"/>
<use x="63.623047" xlink:href="#h"/>
<use x="95.410156" xlink:href="#n"/>
<use x="159.033203" xlink:href="#ae"/>
</g>
</g>
<g clip-path="url(#a)">
<g transform="translate(1174.7 685.31) scale(.1 -.1)">
<use xlink:href="#c"/>
<use x="63.623047" xlink:href="#h"/>
<use x="95.410156" xlink:href="#n"/>
<use x="159.033203" xlink:href="#al"/>
</g>
</g>
<g clip-path="url(#a)">
<defs>
<path id="at" d="m31.781 34.625q-7.0312 0-11.062-3.7656-4.0156-3.7656-4.0156-10.344 0-6.5938 4.0156-10.359 4.0312-3.7656 11.062-3.7656t11.078 3.7812q4.0625 3.7969 4.0625 10.344 0 6.5781-4.0312 10.344-4.0156 3.7656-11.109 3.7656zm-9.8594 4.1875q-6.3438 1.5625-9.8906 5.9062-3.5312 4.3594-3.5312 10.609 0 8.7344 6.2188 13.812 6.2344 5.0781 17.062 5.0781 10.891 0 17.094-5.0781t6.2031-13.812q0-6.25-3.5469-10.609-3.5312-4.3438-9.8281-5.9062 7.125-1.6562 11.094-6.5 3.9844-4.8281 3.9844-11.797 0-10.609-6.4688-16.281-6.4688-5.6562-18.531-5.6562-12.047 0-18.531 5.6562-6.4688 5.6719-6.4688 16.281 0 6.9688 4 11.797 4.0156 4.8438 11.141 6.5zm-3.6094 15.578q0-5.6562 3.5312-8.8281 3.5469-3.1719 9.9375-3.1719 6.3594 0 9.9375 3.1719 3.5938 3.1719 3.5938 8.8281 0 5.6719-3.5938 8.8438-3.5781 3.1719-9.9375 3.1719-6.3906 0-9.9375-3.1719-3.5312-3.1719-3.5312-8.8438z"/>
</defs>
<g transform="translate(1416.8 525.68) scale(.1 -.1)">
<use xlink:href="#c"/>
<use x="63.623047" xlink:href="#h"/>
<use x="95.410156" xlink:href="#n"/>
<use x="159.033203" xlink:href="#at"/>
</g>
</g>
<g clip-path="url(#a)">
<g transform="translate(1251.6 685.31) scale(.1 -.1)">
<use xlink:href="#c"/>
<use x="63.623047" xlink:href="#h"/>
<use x="95.410156" xlink:href="#m"/>
<use x="159.033203" xlink:href="#x"/>
</g>
</g>
<g clip-path="url(#a)">
<g transform="translate(1414 685.31) scale(.1 -.1)">
<use xlink:href="#c"/>
<use x="63.623047" xlink:href="#h"/>
<use x="95.410156" xlink:href="#m"/>
<use x="159.033203" xlink:href="#c"/>
</g>
</g>
<g clip-path="url(#a)">
<g transform="translate(767.19 685.31) scale(.1 -.1)">
<use xlink:href="#c"/>
<use x="63.623047" xlink:href="#h"/>
<use x="95.410156" xlink:href="#m"/>
<use x="159.033203" xlink:href="#m"/>
</g>
</g>
<g clip-path="url(#a)">
<g transform="translate(828.71 685.31) scale(.1 -.1)">
<use xlink:href="#c"/>
<use x="63.623047" xlink:href="#h"/>
<use x="95.410156" xlink:href="#m"/>
<use x="159.033203" xlink:href="#p"/>
</g>
</g>
<g clip-path="url(#a)">
<g transform="translate(926.12 685.31) scale(.1 -.1)">
<use xlink:href="#c"/>
<use x="63.623047" xlink:href="#h"/>
<use x="95.410156" xlink:href="#m"/>
<use x="159.033203" xlink:href="#r"/>
</g>
</g>
<g clip-path="url(#a)">
<g transform="translate(64.867 685.31) scale(.1 -.1)">
<use xlink:href="#c"/>
<use x="63.623047" xlink:href="#h"/>
<use x="95.410156" xlink:href="#m"/>
<use x="159.033203" xlink:href="#ae"/>
</g>
</g>
<g clip-path="url(#a)">
<g transform="translate(72.557 685.31) scale(.1 -.1)">
<use xlink:href="#c"/>
<use x="63.623047" xlink:href="#h"/>
<use x="95.410156" xlink:href="#m"/>
<use x="159.033203" xlink:href="#al"/>
</g>
</g>
<g clip-path="url(#a)">
<g transform="translate(82.81 685.31) scale(.1 -.1)">
<use xlink:href="#c"/>
<use x="63.623047" xlink:href="#h"/>
<use x="95.410156" xlink:href="#m"/>
<use x="159.033203" xlink:href="#at"/>
</g>
</g>
<g clip-path="url(#a)">
<g transform="translate(111.01 685.31) scale(.1 -.1)">
<use xlink:href="#c"/>
<use x="63.623047" xlink:href="#h"/>
<use x="95.410156" xlink:href="#m"/>
<use x="159.033203" xlink:href="#as"/>
</g>
</g>
<g clip-path="url(#a)">
<g transform="translate(95.626 685.31) scale(.1 -.1)">
<use xlink:href="#c"/>
<use x="63.623047" xlink:href="#h"/>
<use x="95.410156" xlink:href="#p"/>
<use x="159.033203" xlink:href="#x"/>
</g>
</g>
<g clip-path="url(#a)">
<g transform="translate(128.95 685.31) scale(.1 -.1)">
<use xlink:href="#c"/>
<use x="63.623047" xlink:href="#h"/>
<use x="95.410156" xlink:href="#p"/>
<use x="159.033203" xlink:href="#c"/>
</g>
</g>
<g clip-path="url(#a)">
<g transform="translate(228.91 685.31) scale(.1 -.1)">
<use xlink:href="#c"/>
<use x="63.623047" xlink:href="#h"/>
<use x="95.410156" xlink:href="#p"/>
<use x="159.033203" xlink:href="#n"/>
</g>
</g>
<g clip-path="url(#a)">
<g transform="translate(598.02 685.31) scale(.1 -.1)">
<use xlink:href="#c"/>
<use x="63.623047" xlink:href="#h"/>
<use x="95.410156" xlink:href="#p"/>
<use x="159.033203" xlink:href="#m"/>
</g>
</g>
<g clip-path="url(#a)">
<g transform="translate(1100.4 685.31) scale(.1 -.1)">
<use xlink:href="#c"/>
<use x="63.623047" xlink:href="#h"/>
<use x="95.410156" xlink:href="#p"/>
<use x="159.033203" xlink:href="#p"/>
</g>
</g>
<g clip-path="url(#a)">
<g transform="translate(1584.9 685.31) scale(.1 -.1)">
<use xlink:href="#c"/>
<use x="63.623047" xlink:href="#h"/>
<use x="95.410156" xlink:href="#p"/>
<use x="159.033203" xlink:href="#r"/>
</g>
</g>
<defs>
<clipPath id="a">
<rect width="1672" height="880"/>
</clipPath>
</defs>
</svg>
