<?xml version="1.0" encoding="UTF-8"?>
<!DOCTYPE svg  PUBLIC '-//W3C//DTD SVG 1.1//EN'  'http://www.w3.org/Graphics/SVG/1.1/DTD/svg11.dtd'>
<svg width="1672pt" height="880pt" version="1.1" viewBox="0 0 1672 880" xmlns="http://www.w3.org/2000/svg" xmlns:xlink="http://www.w3.org/1999/xlink">
<defs>
<style type="text/css">*{stroke-linecap:butt;stroke-linejoin:round;}</style>
</defs>
<path d="m0 880h1672v-880h-1672z" fill="#fff"/>
<g fill="none" stroke="#000">
<path d="m494.42 40-418.42 642.55" clip-path="url(#a)"/>
<path d="m494.42 40-333.59 161.43" clip-path="url(#a)"/>
<path d="m494.42 40-27.617 322.45" clip-path="url(#a)"/>
<path d="m494.42 40 282.52 642.55" clip-path="url(#a)"/>
<path d="m494.42 40 466.11 161.43" clip-path="url(#a)"/>
<path d="m494.42 40-192.48 642.55" clip-path="url(#a)"/>
<path d="m494.42 40 223.47 642.55" clip-path="url(#a)"/>
<path d="m76 682.55v157.45" clip-path="url(#a)"/>
<path d="m160.84 201.43-71.999 481.13" clip-path="url(#a)"/>
<path d="m160.84 201.43 23.643 161.02" clip-path="url(#a)"/>
<path d="m160.84 201.43-38.62 481.13" clip-path="url(#a)"/>
<path d="m160.84 201.43-0.10698 481.13" clip-path="url(#a)"/>
<path d="m160.84 201.43 107.73 481.13" clip-path="url(#a)"/>
<path d="m160.84 201.43-20.648 481.13" clip-path="url(#a)"/>
<path d="m466.81 362.45-109.66 320.11" clip-path="url(#a)"/>
<path d="m466.81 362.45-49.319 320.11" clip-path="url(#a)"/>
<path d="m466.81 362.45 17.438 320.11" clip-path="url(#a)"/>
<path d="m466.81 362.45 141.54 160.47" clip-path="url(#a)"/>
<path d="m776.95 682.55v157.45" clip-path="url(#a)"/>
<path d="m960.53 201.43-121.96 481.13" clip-path="url(#a)"/>
<path d="m960.53 201.43-57.77 481.13" clip-path="url(#a)"/>
<path d="m960.53 201.43 8.9865 481.13" clip-path="url(#a)"/>
<path d="m960.53 201.43 170.74 161.02" clip-path="url(#a)"/>
<path d="m838.57 682.55v157.45" clip-path="url(#a)"/>
<path d="m902.76 682.55v157.45" clip-path="url(#a)"/>
<path d="m969.51 682.55v157.45" clip-path="url(#a)"/>
<path d="m1131.3 362.45-292.7 320.11" clip-path="url(#a)" stroke-dasharray="3.7,1.6"/>
<path d="m1131.3 362.45-56.486 160.47" clip-path="url(#a)"/>
<path d="m1131.3 362.45 53.919 320.11" clip-path="url(#a)"/>
<path d="m1131.3 362.45 295.27 160.47" clip-path="url(#a)"/>
<path d="m1074.8 522.92-35.946 159.64" clip-path="url(#a)"/>
<path d="m1074.8 522.92 35.946 159.64" clip-path="url(#a)"/>
<path d="m1185.2 682.55v157.45" clip-path="url(#a)"/>
<path d="m1426.5 522.92-164.32 159.64" clip-path="url(#a)"/>
<path d="m1426.5 522.92-84.73 159.64" clip-path="url(#a)"/>
<path d="m1426.5 522.92-2.5676 159.64" clip-path="url(#a)"/>
<path d="m1426.5 522.92 82.162 159.64" clip-path="url(#a)"/>
<path d="m1426.5 522.92 169.46 159.64" clip-path="url(#a)"/>
<path d="m1262.2 682.55v157.45" clip-path="url(#a)"/>
<path d="m1341.8 682.55v157.45" clip-path="url(#a)"/>
<path d="m1424 682.55v157.45" clip-path="url(#a)"/>
<path d="m1508.7 682.55v157.45" clip-path="url(#a)"/>
<path d="m1038.8 682.55v157.45" clip-path="url(#a)"/>
<path d="m1110.7 682.55v157.45" clip-path="url(#a)"/>
<path d="m357.15 682.55-19.257 157.45" clip-path="url(#a)"/>
<path d="m357.15 682.55 19.257 157.45" clip-path="url(#a)"/>
<path d="m417.49 682.55v157.45" clip-path="url(#a)"/>
<path d="m484.24 682.55-23.108 157.45" clip-path="url(#a)"/>
<path d="m484.24 682.55 23.108 157.45" clip-path="url(#a)"/>
<path d="m608.34 522.92-52.207 317.08" clip-path="url(#a)"/>
<path d="m608.34 522.92 53.063 317.08" clip-path="url(#a)"/>
<path d="m608.34 522.92-0.85586 159.64" clip-path="url(#a)"/>
<path d="m88.838 682.55-5.1351 157.45" clip-path="url(#a)"/>
<path d="m88.838 682.55 5.1351 157.45" clip-path="url(#a)"/>
<path d="m184.48 362.45-12.196 160.47" clip-path="url(#a)"/>
<path d="m184.48 362.45 12.196 160.47" clip-path="url(#a)"/>
<path d="m122.22 682.55v157.45" clip-path="url(#a)"/>
<path d="m160.73 682.55v157.45" clip-path="url(#a)"/>
<path d="m268.57 682.55v157.45" clip-path="url(#a)"/>
<path d="m172.28 522.92-65.473 159.64" clip-path="url(#a)"/>
<path d="m172.28 522.92 65.473 159.64" clip-path="url(#a)"/>
<path d="m196.68 522.92-12.838 159.64" clip-path="url(#a)"/>
<path d="m196.68 522.92 12.838 159.64" clip-path="url(#a)"/>
<path d="m183.84 682.55v157.45" clip-path="url(#a)"/>
<path d="m209.51 682.55v157.45" clip-path="url(#a)"/>
<path d="m106.81 682.55v157.45" clip-path="url(#a)"/>
<path d="m237.76 682.55v157.45" clip-path="url(#a)"/>
<path d="m140.19 682.55v157.45" clip-path="url(#a)"/>
<path d="m301.95 682.55v157.45" clip-path="url(#a)"/>
<path d="m607.49 682.55v157.45" clip-path="url(#a)"/>
<path d="m717.89 682.55v157.45" clip-path="url(#a)"/>
<path d="m1596 682.55v157.45" clip-path="url(#a)"/>
</g>
<path d="m289.25 366.57 2.4324-3.7353q1.3096-2.0112-0.70153-3.3208l-6.4881-4.225q-2.0112-1.3096-3.3208 0.70153l-2.4324 3.7353q-1.3096 2.0112 0.70153 3.3208l6.4881 4.225q2.0112 1.3096 3.3208-0.70153z" clip-path="url(#a)" fill="#fff" stroke="#fff"/>
<g clip-path="url(#a)">
<defs>
<path id="an" d="m9.8125 72.906h9.8594v-64.609h35.5v-8.2969h-45.359z"/>
</defs>
<g transform="translate(285.84 364.35) rotate(-56.928) scale(.08 -.08)">
<use xlink:href="#an"/>
</g>
</g>
<path d="m327.65 127.67 5.4155-2.6206q2.1603-1.0454 1.1149-3.2058l-3.3726-6.9694q-1.0454-2.1603-3.2058-1.1149l-5.4155 2.6206q-2.1603 1.0454-1.1149 3.2058l3.3726 6.9694q1.0454 2.1603 3.2058 1.1149z" clip-path="url(#a)" fill="#fff" stroke="#fff"/>
<g clip-path="url(#a)">
<defs>
<path id="ae" d="m9.8125 72.906h9.8594v-29.891h35.844v29.891h9.8594v-72.906h-9.8594v34.719h-35.844v-34.719h-9.8594z"/>
</defs>
<g transform="translate(325.88 124.01) rotate(-25.823) scale(.08 -.08)">
<use xlink:href="#ae"/>
</g>
</g>
<path d="m486.61 204.76 0.5134-5.9943q0.2048-2.3912-2.1864-2.596l-7.7143-0.66071q-2.3912-0.2048-2.596 2.1864l-0.5134 5.9943q-0.2048 2.3912 2.1864 2.596l7.7143 0.66071q2.3912 0.2048 2.596-2.1864z" clip-path="url(#a)" fill="#fff" stroke="#fff"/>
<g clip-path="url(#a)">
<g transform="translate(482.56 204.41) rotate(-85.105) scale(.08 -.08)">
<use xlink:href="#ae"/>
</g>
</g>
<path d="m629.05 361.76 1.7941 4.0805q0.966 2.197 3.163 1.231l7.0876-3.1164q2.197-0.966 1.231-3.163l-1.7941-4.0805q-0.966-2.197-3.163-1.231l-7.0876 3.1164q-2.197 0.966-1.231 3.163z" clip-path="url(#a)" fill="#fff" stroke="#fff"/>
<g clip-path="url(#a)">
<g transform="translate(632.77 360.13) rotate(66.265) scale(.08 -.08)">
<use xlink:href="#an"/>
</g>
</g>
<path d="m722.58 125.65 5.685 1.9689q2.2678 0.78542 3.0533-1.4824l2.5338-7.3162q0.78542-2.2678-1.4824-3.0533l-5.685-1.9689q-2.2678-0.78542-3.0533 1.4824l-2.5338 7.3162q-0.78542 2.2678 1.4824 3.0533z" clip-path="url(#a)" fill="#fff" stroke="#fff"/>
<g clip-path="url(#a)">
<g transform="translate(723.91 121.81) rotate(19.103) scale(.08 -.08)">
<use xlink:href="#ae"/>
</g>
</g>
<path d="m403.35 365.88 1.6801-5.6088q0.68868-2.2991-1.6104-2.9878l-7.4169-2.2217q-2.2991-0.68868-2.9878 1.6104l-1.6801 5.6088q-0.68868 2.2991 1.6104 2.9878l7.4169 2.2217q2.2991 0.68868 2.9878-1.6104z" clip-path="url(#a)" fill="#fff" stroke="#fff"/>
<g clip-path="url(#a)">
<defs>
<path id="w" d="m8.6875 72.906h9.9219v-44.297q0-11.719 4.2344-16.875 4.25-5.1406 13.781-5.1406 9.4688 0 13.719 5.1406 4.25 5.1562 4.25 16.875v44.297h9.9062v-45.516q0-14.25-7.0625-21.531-7.0469-7.2812-20.812-7.2812-13.828 0-20.891 7.2812-7.0469 7.2812-7.0469 21.531z"/>
</defs>
<g transform="translate(399.46 364.72) rotate(-73.325) scale(.08 -.08)">
<use xlink:href="#w"/>
</g>
</g>
<path d="m599.27 360.57 1.9233 5.5301q0.78836 2.2668 3.0552 1.4785l7.3129-2.5433q2.2668-0.78836 1.4785-3.0552l-1.9233-5.5301q-0.78836-2.2668-3.0552-1.4785l-7.3129 2.5433q-2.2668 0.78836-1.4785 3.0552z" clip-path="url(#a)" fill="#fff" stroke="#fff"/>
<g clip-path="url(#a)">
<g transform="translate(603.11 359.24) rotate(70.823) scale(.08 -.08)">
<use xlink:href="#w"/>
</g>
</g>
<path d="m69.729 744.37v33.808q0 2.4 2.4 2.4h7.7425q2.4 0 2.4-2.4v-33.808q0-2.4-2.4-2.4h-7.7425q-2.4 0-2.4 2.4z" clip-path="url(#a)" fill="#fff" stroke="#fff"/>
<g clip-path="url(#a)">
<defs>
<path id="l" d="m-0.29688 72.906h61.672v-8.3125h-25.875v-64.594h-9.9062v64.594h-25.891z"/>
<path id="e" d="m56.203 29.594v-4.3906h-41.312q0.59375-9.2812 5.5938-14.141t13.938-4.8594q5.1719 0 10.031 1.2656t9.6562 3.8125v-8.5q-4.8438-2.0469-9.9219-3.125t-10.297-1.0781q-13.094 0-20.734 7.6094-7.6406 7.625-7.6406 20.625 0 13.422 7.25 21.297 7.25 7.8906 19.562 7.8906 11.031 0 17.453-7.1094 6.4219-7.0938 6.4219-19.297zm-8.9844 2.6406q-0.09375 7.3594-4.125 11.75-4.0312 4.4062-10.672 4.4062-7.5156 0-12.031-4.25t-5.2031-11.969z"/>
<path id="j" d="m41.109 46.297q-1.5156 0.875-3.2969 1.2812-1.7812 0.42188-3.9219 0.42188-7.625 0-11.703-4.9531t-4.0781-14.234v-28.812h-9.0312v54.688h9.0312v-8.5q2.8438 4.9844 7.375 7.3906 4.5469 2.4219 11.047 2.4219 0.92188 0 2.0469-0.125 1.125-0.10938 2.4844-0.35938z"/>
<path id="k" d="m52 44.188q3.375 6.0625 8.0625 8.9375t11.031 2.875q8.5469 0 13.188-5.9844 4.6406-5.9688 4.6406-17v-33.016h-9.0312v32.719q0 7.8594-2.7969 11.656-2.7812 3.8125-8.4844 3.8125-6.9844 0-11.047-4.6406-4.0469-4.625-4.0469-12.641v-30.906h-9.0312v32.719q0 7.9062-2.7812 11.688t-8.5938 3.7812q-6.8906 0-10.953-4.6562-4.0469-4.6562-4.0469-12.625v-30.906h-9.0312v54.688h9.0312v-8.5q3.0781 5.0312 7.375 7.4219t10.203 2.3906q5.9688 0 10.141-3.0312 4.1719-3.0156 6.1719-8.7812z"/>
<path id="i" d="m9.4219 54.688h8.9844v-54.688h-8.9844zm0 21.297h8.9844v-11.391h-8.9844z"/>
<path id="f" d="m54.891 33.016v-33.016h-8.9844v32.719q0 7.7656-3.0312 11.609-3.0312 3.8594-9.0781 3.8594-7.2812 0-11.484-4.6406-4.2031-4.625-4.2031-12.641v-30.906h-9.0312v54.688h9.0312v-8.5q3.2344 4.9375 7.5938 7.375 4.375 2.4375 10.094 2.4375 9.4219 0 14.25-5.8281 4.8438-5.8281 4.8438-17.156z"/>
<path id="d" d="m34.281 27.484q-10.891 0-15.094-2.4844t-4.2031-8.5q0-4.7812 3.1562-7.5938 3.1562-2.7969 8.5625-2.7969 7.4844 0 12 5.2969t4.5156 14.078v2zm17.922 3.7188v-31.203h-8.9844v8.2969q-3.0781-4.9688-7.6719-7.3438t-11.234-2.375q-8.3906 0-13.359 4.7188-4.9531 4.7188-4.9531 12.625 0 9.2188 6.1719 13.906 6.1875 4.6875 18.438 4.6875h12.609v0.89062q0 6.2031-4.0781 9.5938t-11.453 3.3906q-4.6875 0-9.1406-1.125-4.4375-1.125-8.5312-3.375v8.3125q4.9219 1.9062 9.5625 2.8438 4.6406 0.95312 9.0312 0.95312 11.875 0 17.734-6.1562 5.8594-6.1406 5.8594-18.641z"/>
<path id="h" d="m9.4219 75.984h8.9844v-75.984h-8.9844z"/>
</defs>
<g transform="translate(73.792 744.37) rotate(90) scale(.08 -.08)">
<use xlink:href="#l"/>
<use x="44.083984" xlink:href="#e"/>
<use x="105.607422" xlink:href="#j"/>
<use x="144.970703" xlink:href="#k"/>
<use x="242.382812" xlink:href="#i"/>
<use x="270.166016" xlink:href="#f"/>
<use x="333.544922" xlink:href="#d"/>
<use x="394.824219" xlink:href="#h"/>
</g>
</g>
<path d="m130.7 445.19 0.68098-4.5506q0.3552-2.3736-2.0184-2.7288l-7.6572-1.1459q-2.3736-0.3552-2.7288 2.0184l-0.68098 4.5506q-0.3552 2.3736 2.0184 2.7288l7.6572 1.1459q2.3736 0.3552 2.7288-2.0184z" clip-path="url(#a)" fill="#fff" stroke="#fff"/>
<g clip-path="url(#a)">
<defs>
<path id="x" d="m9.8125 72.906h41.891v-8.3125h-32.031v-21.484h28.906v-8.2969h-28.906v-34.812h-9.8594z"/>
</defs>
<g transform="translate(126.68 444.59) rotate(-81.489) scale(.08 -.08)">
<use xlink:href="#x"/>
</g>
</g>
<path d="m166.06 280.14 0.79502 5.4144q0.34866 2.3745 2.7232 2.0259l7.6604-1.1248q2.3745-0.34866 2.0259-2.7232l-0.79502-5.4144q-0.34866-2.3745-2.7232-2.0259l-7.6604 1.1248q-2.3745 0.34866-2.0259 2.7232z" clip-path="url(#a)" fill="#fff" stroke="#fff"/>
<g clip-path="url(#a)">
<defs>
<path id="q" d="m34.188 63.188-13.391-36.281h26.812zm-5.5781 9.7188h11.188l27.781-72.906h-10.25l-6.6406 18.703h-32.859l-6.6406-18.703h-10.406z"/>
</defs>
<g transform="translate(170.08 279.55) rotate(81.647) scale(.08 -.08)">
<use xlink:href="#q"/>
</g>
</g>
<path d="m147.53 445.56 0.49288-6.1402q0.19203-2.3923-2.2003-2.5843l-7.7177-0.6195q-2.3923-0.19203-2.5843 2.2003l-0.49288 6.1402q-0.19203 2.3923 2.2003 2.5843l7.7177 0.6195q2.3923 0.19203 2.5843-2.2003z" clip-path="url(#a)" fill="#fff" stroke="#fff"/>
<g clip-path="url(#a)">
<defs>
<path id="ap" d="m19.672 64.797v-56.688h11.922q15.094 0 22.094 6.8281 7 6.8438 7 21.594 0 14.641-7 21.453t-22.094 6.8125zm-9.8594 8.1094h20.266q21.188 0 31.094-8.8125 9.9219-8.8125 9.9219-27.562 0-18.859-9.9688-27.703-9.9531-8.8281-31.047-8.8281h-20.266z"/>
</defs>
<g transform="translate(143.48 445.24) rotate(-85.411) scale(.08 -.08)">
<use xlink:href="#ap"/>
</g>
</g>
<path d="m167.05 444.4 0.001073-4.8238q5.34e-4 -2.4-2.3995-2.4005l-7.7425-0.001722q-2.4-5.34e-4 -2.4005 2.3995l-0.001072 4.8238q-5.34e-4 2.4 2.3995 2.4005l7.7425 0.001721q2.4 5.34e-4 2.4005-2.3995z" clip-path="url(#a)" fill="#fff" stroke="#fff"/>
<g clip-path="url(#a)">
<defs>
<path id="s" d="m19.672 64.797v-27.391h12.406q6.8906 0 10.641 3.5625 3.7656 3.5625 3.7656 10.156 0 6.5469-3.7656 10.109-3.75 3.5625-10.641 3.5625zm-9.8594 8.1094h22.266q12.266 0 18.531-5.5469 6.2812-5.5469 6.2812-16.234 0-10.797-6.2812-16.312-6.2656-5.5156-18.531-5.5156h-12.406v-29.297h-9.8594z"/>
</defs>
<g transform="translate(162.99 444.4) rotate(-89.987) scale(.08 -.08)">
<use xlink:href="#s"/>
</g>
</g>
<path d="m208.05 440.98 1.0677 4.7682q0.52441 2.342 2.8664 1.8176l7.5554-1.6918q2.342-0.52441 1.8176-2.8664l-1.0677-4.7682q-0.52441-2.342-2.8664-1.8176l-7.5554 1.6918q-2.342 0.52441-1.8176 2.8664z" clip-path="url(#a)" fill="#fff" stroke="#fff"/>
<g clip-path="url(#a)">
<g transform="translate(212.01 440.09) rotate(77.379) scale(.08 -.08)">
<use xlink:href="#l"/>
</g>
</g>
<path d="m156.65 445.18 0.25104-5.8496q0.1029-2.3978-2.2949-2.5007l-7.7354-0.33196q-2.3978-0.1029-2.5007 2.2949l-0.25104 5.8496q-0.1029 2.3978 2.2949 2.5007l7.7354 0.33196q2.3978 0.1029 2.5007-2.2949z" clip-path="url(#a)" fill="#fff" stroke="#fff"/>
<g clip-path="url(#a)">
<g transform="translate(152.59 445.01) rotate(-87.543) scale(.08 -.08)">
<use xlink:href="#w"/>
</g>
</g>
<path d="m417.02 527.12 1.7735-5.1772q0.77778-2.2705-1.4927-3.0483l-7.3247-2.5091q-2.2705-0.77778-3.0483 1.4927l-1.7735 5.1772q-0.77778 2.2705 1.4927 3.0483l7.3247 2.5091q2.2705 0.77778 3.0483-1.4927z" clip-path="url(#a)" fill="#fff" stroke="#fff"/>
<g clip-path="url(#a)">
<g transform="translate(413.18 525.8) rotate(-71.091) scale(.08 -.08)">
<use xlink:href="#q"/>
</g>
</g>
<path d="m447.98 525.84 0.73452-4.7675q0.36545-2.372-2.0066-2.7375l-7.6522-1.179q-2.372-0.36545-2.7375 2.0066l-0.73452 4.7675q-0.36545 2.372 2.0066 2.7375l7.6522 1.179q2.372 0.36545 2.7375-2.0066z" clip-path="url(#a)" fill="#fff" stroke="#fff"/>
<g clip-path="url(#a)">
<g transform="translate(443.96 525.22) rotate(-81.241) scale(.08 -.08)">
<use xlink:href="#s"/>
</g>
</g>
<path d="m469.11 520.11 0.29768 5.4644q0.13055 2.3964 2.527 2.2659l7.731-0.42115q2.3964-0.13055 2.2659-2.527l-0.29768-5.4644q-0.13055-2.3964-2.527-2.2659l-7.731 0.42115q-2.3964 0.13055-2.2659 2.527z" clip-path="url(#a)" fill="#fff" stroke="#fff"/>
<g clip-path="url(#a)">
<g transform="translate(473.17 519.89) rotate(86.882) scale(.08 -.08)">
<use xlink:href="#q"/>
</g>
</g>
<path d="m531.06 444.78 3.6199 4.1042q1.5875 1.7999 3.3875 0.21239l5.8066-5.1215q1.7999-1.5875 0.21239-3.3875l-3.6199-4.1042q-1.5875-1.7999-3.3875-0.21239l-5.8066 5.1215q-1.7999 1.5875-0.21239 3.3875z" clip-path="url(#a)" fill="#fff" stroke="#fff"/>
<g clip-path="url(#a)">
<g transform="translate(534.11 442.09) rotate(48.588) scale(.08 -.08)">
<use xlink:href="#q"/>
</g>
</g>
<path d="m770.67 744.37v33.808q0 2.4 2.4 2.4h7.7425q2.4 0 2.4-2.4v-33.808q0-2.4-2.4-2.4h-7.7425q-2.4 0-2.4 2.4z" clip-path="url(#a)" fill="#fff" stroke="#fff"/>
<g clip-path="url(#a)">
<g transform="translate(774.74 744.37) rotate(90) scale(.08 -.08)">
<use xlink:href="#l"/>
<use x="44.083984" xlink:href="#e"/>
<use x="105.607422" xlink:href="#j"/>
<use x="144.970703" xlink:href="#k"/>
<use x="242.382812" xlink:href="#i"/>
<use x="270.166016" xlink:href="#f"/>
<use x="333.544922" xlink:href="#d"/>
<use x="394.824219" xlink:href="#h"/>
</g>
</g>
<path d="m904.95 446.18 1.3447-5.3047q0.58972-2.3264-1.7367-2.9161l-7.5051-1.9024q-2.3264-0.58972-2.9161 1.7367l-1.3447 5.3047q-0.58972 2.3264 1.7367 2.9161l7.5051 1.9024q2.3264 0.58972 2.9161-1.7367z" clip-path="url(#a)" fill="#fff" stroke="#fff"/>
<g clip-path="url(#a)">
<g transform="translate(901.01 445.19) rotate(-75.776) scale(.08 -.08)">
<use xlink:href="#q"/>
</g>
</g>
<path d="m937.59 445.02 0.54854-4.5684q0.28612-2.3829-2.0968-2.669l-7.6873-0.92303q-2.3829-0.28612-2.669 2.0968l-0.54854 4.5684q-0.28612 2.3829 2.0968 2.669l7.6873 0.92303q2.3829 0.28612 2.669-2.0968z" clip-path="url(#a)" fill="#fff" stroke="#fff"/>
<g clip-path="url(#a)">
<g transform="translate(933.56 444.54) rotate(-83.153) scale(.08 -.08)">
<use xlink:href="#x"/>
</g>
</g>
<path d="m958.71 439.7 0.090082 4.8229q0.044819 2.3996 2.4444 2.3548l7.7411-0.14459q2.3996-0.044819 2.3548-2.4444l-0.090082-4.8229q-0.04482-2.3996-2.4444-2.3548l-7.7412 0.14459q-2.3996 0.04482-2.3548 2.4444z" clip-path="url(#a)" fill="#fff" stroke="#fff"/>
<g clip-path="url(#a)">
<g transform="translate(962.77 439.62) rotate(88.93) scale(.08 -.08)">
<use xlink:href="#s"/>
</g>
</g>
<path d="m1039.6 284.62 3.9814 3.7546q1.746 1.6466 3.3927-0.09944l5.312-5.6328q1.6466-1.746-0.099439-3.3927l-3.9814-3.7546q-1.746-1.6466-3.3927 0.09944l-5.312 5.6328q-1.6466 1.746 0.09944 3.3927z" clip-path="url(#a)" fill="#fff" stroke="#fff"/>
<g clip-path="url(#a)">
<g transform="translate(1042.4 281.66) rotate(43.321) scale(.08 -.08)">
<use xlink:href="#q"/>
</g>
</g>
<path d="m832.3 744.37v33.808q0 2.4 2.4 2.4h7.7425q2.4 0 2.4-2.4v-33.808q0-2.4-2.4-2.4h-7.7425q-2.4 0-2.4 2.4z" clip-path="url(#a)" fill="#fff" stroke="#fff"/>
<g clip-path="url(#a)">
<g transform="translate(836.36 744.37) rotate(90) scale(.08 -.08)">
<use xlink:href="#l"/>
<use x="44.083984" xlink:href="#e"/>
<use x="105.607422" xlink:href="#j"/>
<use x="144.970703" xlink:href="#k"/>
<use x="242.382812" xlink:href="#i"/>
<use x="270.166016" xlink:href="#f"/>
<use x="333.544922" xlink:href="#d"/>
<use x="394.824219" xlink:href="#h"/>
</g>
</g>
<path d="m896.49 744.37v33.808q0 2.4 2.4 2.4h7.7425q2.4 0 2.4-2.4v-33.808q0-2.4-2.4-2.4h-7.7425q-2.4 0-2.4 2.4z" clip-path="url(#a)" fill="#fff" stroke="#fff"/>
<g clip-path="url(#a)">
<g transform="translate(900.55 744.37) rotate(90) scale(.08 -.08)">
<use xlink:href="#l"/>
<use x="44.083984" xlink:href="#e"/>
<use x="105.607422" xlink:href="#j"/>
<use x="144.970703" xlink:href="#k"/>
<use x="242.382812" xlink:href="#i"/>
<use x="270.166016" xlink:href="#f"/>
<use x="333.544922" xlink:href="#d"/>
<use x="394.824219" xlink:href="#h"/>
</g>
</g>
<path d="m963.24 744.37v33.808q0 2.4 2.4 2.4h7.7425q2.4 0 2.4-2.4v-33.808q0-2.4-2.4-2.4h-7.7425q-2.4 0-2.4 2.4z" clip-path="url(#a)" fill="#fff" stroke="#fff"/>
<g clip-path="url(#a)">
<g transform="translate(967.31 744.37) rotate(90) scale(.08 -.08)">
<use xlink:href="#l"/>
<use x="44.083984" xlink:href="#e"/>
<use x="105.607422" xlink:href="#j"/>
<use x="144.970703" xlink:href="#k"/>
<use x="242.382812" xlink:href="#i"/>
<use x="270.166016" xlink:href="#f"/>
<use x="333.544922" xlink:href="#d"/>
<use x="394.824219" xlink:href="#h"/>
</g>
</g>
<path d="m987.7 528.75 3.6929-4.0387q1.6195-1.7712-0.15164-3.3907l-5.7139-5.2247q-1.7712-1.6195-3.3907 0.15164l-3.6929 4.0387q-1.6195 1.7712 0.15164 3.3907l5.7139 5.2247q1.7712 1.6195 3.3907-0.15164z" clip-path="url(#a)" fill="#fff" stroke="#fff"/>
<g clip-path="url(#a)">
<g transform="translate(984.7 526.01) rotate(-47.561) scale(.08 -.08)">
<use xlink:href="#q"/>
</g>
</g>
<path d="m1107.9 447.67 2.0453-5.8105q0.79687-2.2638-1.467-3.0607l-7.3033-2.5707q-2.2638-0.79687-3.0607 1.467l-2.0453 5.8105q-0.79687 2.2638 1.467 3.0607l7.3033 2.5707q2.2638 0.79687 3.0607-1.467z" clip-path="url(#a)" fill="#fff" stroke="#fff"/>
<g clip-path="url(#a)">
<g transform="translate(1104.1 446.32) rotate(-70.608) scale(.08 -.08)">
<use xlink:href="#ap"/>
</g>
</g>
<path d="m1151.6 521.16 0.80122 4.7567q0.39864 2.3667 2.7653 1.968l7.6349-1.286q2.3667-0.39864 1.968-2.7653l-0.80122-4.7567q-0.39864-2.3667-2.7653-1.968l-7.6349 1.286q-2.3667 0.39864-1.968 2.7653z" clip-path="url(#a)" fill="#fff" stroke="#fff"/>
<g clip-path="url(#a)">
<g transform="translate(1155.7 520.49) rotate(80.439) scale(.08 -.08)">
<use xlink:href="#s"/>
</g>
</g>
<path d="m1273.5 446.89 4.8083 2.6132q2.1087 1.146 3.2547-0.96267l3.6971-6.8028q1.146-2.1087-0.96267-3.2547l-4.8083-2.6132q-2.1087-1.146-3.2547 0.96267l-3.6971 6.8028q-1.146 2.1087 0.96267 3.2547z" clip-path="url(#a)" fill="#fff" stroke="#fff"/>
<g clip-path="url(#a)">
<g transform="translate(1275.4 443.32) rotate(28.523) scale(.08 -.08)">
<use xlink:href="#q"/>
</g>
</g>
<path d="m1062.4 606.58 1.1105-4.9315q0.52722-2.3414-1.8142-2.8686l-7.5534-1.7008q-2.3414-0.52722-2.8686 1.8142l-1.1105 4.9315q-0.52722 2.3414 1.8142 2.8686l7.5534 1.7008q2.3414 0.52722 2.8686-1.8142z" clip-path="url(#a)" fill="#fff" stroke="#fff"/>
<g clip-path="url(#a)">
<defs>
<path id="af" d="m9.8125 72.906h46.094v-8.3125h-36.234v-21.578h34.719v-8.2969h-34.719v-26.422h37.109v-8.2969h-46.969z"/>
</defs>
<g transform="translate(1058.4 605.69) rotate(-77.31) scale(.08 -.08)">
<use xlink:href="#af"/>
</g>
</g>
<path d="m1086 601.39 1.2272 5.4498q0.52722 2.3414 2.8686 1.8142l7.5534-1.7008q2.3414-0.52722 1.8142-2.8686l-1.2272-5.4498q-0.52722-2.3414-2.8686-1.8142l-7.5534 1.7008q-2.3414 0.52722-1.8142 2.8686z" clip-path="url(#a)" fill="#fff" stroke="#fff"/>
<g clip-path="url(#a)">
<defs>
<path id="ag" d="m64.406 67.281v-10.391q-4.9844 4.6406-10.625 6.9219-5.6406 2.2969-11.984 2.2969-12.5 0-19.141-7.6406t-6.6406-22.094q0-14.406 6.6406-22.047t19.141-7.6406q6.3438 0 11.984 2.2969t10.625 6.9375v-10.312q-5.1719-3.5156-10.969-5.2812-5.7812-1.75-12.219-1.75-16.562 0-26.094 10.125-9.5156 10.141-9.5156 27.672 0 17.578 9.5156 27.703 9.5312 10.141 26.094 10.141 6.5312 0 12.312-1.7344 5.7969-1.7344 10.875-5.2031z"/>
</defs>
<g transform="translate(1090 600.5) rotate(77.31) scale(.08 -.08)">
<use xlink:href="#ag"/>
</g>
</g>
<path d="m1178.9 744.37v33.808q0 2.4 2.4 2.4h7.7425q2.4 0 2.4-2.4v-33.808q0-2.4-2.4-2.4h-7.7425q-2.4 0-2.4 2.4z" clip-path="url(#a)" fill="#fff" stroke="#fff"/>
<g clip-path="url(#a)">
<g transform="translate(1183 744.37) rotate(90) scale(.08 -.08)">
<use xlink:href="#l"/>
<use x="44.083984" xlink:href="#e"/>
<use x="105.607422" xlink:href="#j"/>
<use x="144.970703" xlink:href="#k"/>
<use x="242.382812" xlink:href="#i"/>
<use x="270.166016" xlink:href="#f"/>
<use x="333.544922" xlink:href="#d"/>
<use x="394.824219" xlink:href="#h"/>
</g>
</g>
<path d="m1346.8 609.17 3.9871-3.8733q1.7214-1.6723 0.049117-3.3938l-5.395-5.5534q-1.6723-1.7214-3.3938-0.049117l-3.9871 3.8733q-1.7214 1.6723-0.049116 3.3938l5.395 5.5534q1.6723 1.7214 3.3938 0.049117z" clip-path="url(#a)" fill="#fff" stroke="#fff"/>
<g clip-path="url(#a)">
<defs>
<path id="av" d="m44.391 34.188q3.1719-1.0781 6.1719-4.5938t6.0312-9.6719l10.016-19.922h-10.609l-9.3125 18.703q-3.625 7.3281-7.0156 9.7188t-9.25 2.3906h-10.75v-30.812h-9.8594v72.906h22.266q12.5 0 18.656-5.2344 6.1562-5.2188 6.1562-15.766 0-6.8906-3.2031-11.438-3.2031-4.5312-9.2969-6.2812zm-24.719 30.609v-25.875h12.406q7.125 0 10.766 3.2969t3.6406 9.6875-3.6406 9.6406-10.766 3.25z"/>
</defs>
<g transform="translate(1343.9 606.26) rotate(-44.171) scale(.08 -.08)">
<use xlink:href="#av"/>
</g>
</g>
<path d="m1388.5 607.91 2.3699-4.465q1.1252-2.1199-0.99472-3.2451l-6.8389-3.6299q-2.1199-1.1252-3.2451 0.99472l-2.3699 4.465q-1.1252 2.1199 0.99472 3.2451l6.8389 3.6299q2.1199 1.1252 3.2451-0.99472z" clip-path="url(#a)" fill="#fff" stroke="#fff"/>
<g clip-path="url(#a)">
<g transform="translate(1384.9 606) rotate(-62.042) scale(.08 -.08)">
<use xlink:href="#af"/>
</g>
</g>
<path d="m1431.5 605.36 0.081294-5.0543q0.038596-2.3997-2.3611-2.4383l-7.7415-0.12451q-2.3997-0.038597-2.4383 2.3611l-0.081294 5.0543q-0.038596 2.3997 2.3611 2.4383l7.7415 0.12451q2.3997 0.038596 2.4383-2.3611z" clip-path="url(#a)" fill="#fff" stroke="#fff"/>
<g clip-path="url(#a)">
<g transform="translate(1427.4 605.3) rotate(-89.079) scale(.08 -.08)">
<use xlink:href="#af"/>
</g>
</g>
<path d="m1460.8 603.12 2.5564 4.967q1.0983 2.1339 3.2323 1.0356l6.8842-3.5432q2.1339-1.0983 1.0356-3.2323l-2.5564-4.967q-1.0983-2.1339-3.2323-1.0356l-6.8842 3.5432q-2.1339 1.0983-1.0356 3.2323z" clip-path="url(#a)" fill="#fff" stroke="#fff"/>
<g clip-path="url(#a)">
<g transform="translate(1464.4 601.26) rotate(62.766) scale(.08 -.08)">
<use xlink:href="#ag"/>
</g>
</g>
<path d="m1504.8 605.29 4.2618 4.0147q1.7469 1.6457 3.3926-0.10127l5.309-5.6357q1.6457-1.7469-0.10127-3.3926l-4.2618-4.0147q-1.7469-1.6457-3.3926 0.10127l-5.309 5.6357q-1.6457 1.7469 0.10127 3.3926z" clip-path="url(#a)" fill="#fff" stroke="#fff"/>
<g clip-path="url(#a)">
<g transform="translate(1507.6 602.34) rotate(43.29) scale(.08 -.08)">
<use xlink:href="#w"/>
</g>
</g>
<path d="m1255.9 744.37v33.808q0 2.4 2.4 2.4h7.7425q2.4 0 2.4-2.4v-33.808q0-2.4-2.4-2.4h-7.7425q-2.4 0-2.4 2.4z" clip-path="url(#a)" fill="#fff" stroke="#fff"/>
<g clip-path="url(#a)">
<g transform="translate(1260 744.37) rotate(90) scale(.08 -.08)">
<use xlink:href="#l"/>
<use x="44.083984" xlink:href="#e"/>
<use x="105.607422" xlink:href="#j"/>
<use x="144.970703" xlink:href="#k"/>
<use x="242.382812" xlink:href="#i"/>
<use x="270.166016" xlink:href="#f"/>
<use x="333.544922" xlink:href="#d"/>
<use x="394.824219" xlink:href="#h"/>
</g>
</g>
<path d="m1335.5 744.37v33.808q0 2.4 2.4 2.4h7.7425q2.4 0 2.4-2.4v-33.808q0-2.4-2.4-2.4h-7.7425q-2.4 0-2.4 2.4z" clip-path="url(#a)" fill="#fff" stroke="#fff"/>
<g clip-path="url(#a)">
<g transform="translate(1339.6 744.37) rotate(90) scale(.08 -.08)">
<use xlink:href="#l"/>
<use x="44.083984" xlink:href="#e"/>
<use x="105.607422" xlink:href="#j"/>
<use x="144.970703" xlink:href="#k"/>
<use x="242.382812" xlink:href="#i"/>
<use x="270.166016" xlink:href="#f"/>
<use x="333.544922" xlink:href="#d"/>
<use x="394.824219" xlink:href="#h"/>
</g>
</g>
<path d="m1417.7 744.37v33.808q0 2.4 2.4 2.4h7.7425q2.4 0 2.4-2.4v-33.808q0-2.4-2.4-2.4h-7.7425q-2.4 0-2.4 2.4z" clip-path="url(#a)" fill="#fff" stroke="#fff"/>
<g clip-path="url(#a)">
<g transform="translate(1421.8 744.37) rotate(90) scale(.08 -.08)">
<use xlink:href="#l"/>
<use x="44.083984" xlink:href="#e"/>
<use x="105.607422" xlink:href="#j"/>
<use x="144.970703" xlink:href="#k"/>
<use x="242.382812" xlink:href="#i"/>
<use x="270.166016" xlink:href="#f"/>
<use x="333.544922" xlink:href="#d"/>
<use x="394.824219" xlink:href="#h"/>
</g>
</g>
<path d="m1502.4 744.37v33.808q0 2.4 2.4 2.4h7.7425q2.4 0 2.4-2.4v-33.808q0-2.4-2.4-2.4h-7.7425q-2.4 0-2.4 2.4z" clip-path="url(#a)" fill="#fff" stroke="#fff"/>
<g clip-path="url(#a)">
<g transform="translate(1506.5 744.37) rotate(90) scale(.08 -.08)">
<use xlink:href="#l"/>
<use x="44.083984" xlink:href="#e"/>
<use x="105.607422" xlink:href="#j"/>
<use x="144.970703" xlink:href="#k"/>
<use x="242.382812" xlink:href="#i"/>
<use x="270.166016" xlink:href="#f"/>
<use x="333.544922" xlink:href="#d"/>
<use x="394.824219" xlink:href="#h"/>
</g>
</g>
<path d="m1032.6 744.37v33.808q0 2.4 2.4 2.4h7.7425q2.4 0 2.4-2.4v-33.808q0-2.4-2.4-2.4h-7.7425q-2.4 0-2.4 2.4z" clip-path="url(#a)" fill="#fff" stroke="#fff"/>
<g clip-path="url(#a)">
<g transform="translate(1036.6 744.37) rotate(90) scale(.08 -.08)">
<use xlink:href="#l"/>
<use x="44.083984" xlink:href="#e"/>
<use x="105.607422" xlink:href="#j"/>
<use x="144.970703" xlink:href="#k"/>
<use x="242.382812" xlink:href="#i"/>
<use x="270.166016" xlink:href="#f"/>
<use x="333.544922" xlink:href="#d"/>
<use x="394.824219" xlink:href="#h"/>
</g>
</g>
<path d="m1104.5 744.37v33.808q0 2.4 2.4 2.4h7.7425q2.4 0 2.4-2.4v-33.808q0-2.4-2.4-2.4h-7.7425q-2.4 0-2.4 2.4z" clip-path="url(#a)" fill="#fff" stroke="#fff"/>
<g clip-path="url(#a)">
<g transform="translate(1108.5 744.37) rotate(90) scale(.08 -.08)">
<use xlink:href="#l"/>
<use x="44.083984" xlink:href="#e"/>
<use x="105.607422" xlink:href="#j"/>
<use x="144.970703" xlink:href="#k"/>
<use x="242.382812" xlink:href="#i"/>
<use x="270.166016" xlink:href="#f"/>
<use x="333.544922" xlink:href="#d"/>
<use x="394.824219" xlink:href="#h"/>
</g>
</g>
<path d="m351.69 778.82 4.1043-33.557q0.29137-2.3822-2.0909-2.6736l-7.6852-0.93996q-2.3822-0.29137-2.6736 2.0909l-4.1043 33.557q-0.29137 2.3822 2.0909 2.6736l7.6852 0.93996q2.3822 0.29137 2.6736-2.0909z" clip-path="url(#a)" fill="#fff" stroke="#fff"/>
<g clip-path="url(#a)">
<g transform="translate(347.66 778.32) rotate(-83.027) scale(.08 -.08)">
<use xlink:href="#l"/>
<use x="44.083984" xlink:href="#e"/>
<use x="105.607422" xlink:href="#j"/>
<use x="144.970703" xlink:href="#k"/>
<use x="242.382812" xlink:href="#i"/>
<use x="270.166016" xlink:href="#f"/>
<use x="333.544922" xlink:href="#d"/>
<use x="394.824219" xlink:href="#h"/>
</g>
</g>
<path d="m358.5 745.26 4.1043 33.557q0.29137 2.3822 2.6736 2.0909l7.6852-0.93996q2.3822-0.29137 2.0909-2.6736l-4.1043-33.557q-0.29137-2.3822-2.6736-2.0909l-7.6852 0.93996q-2.3822 0.29137-2.0909 2.6736z" clip-path="url(#a)" fill="#fff" stroke="#fff"/>
<g clip-path="url(#a)">
<g transform="translate(362.53 744.77) rotate(83.027) scale(.08 -.08)">
<use xlink:href="#l"/>
<use x="44.083984" xlink:href="#e"/>
<use x="105.607422" xlink:href="#j"/>
<use x="144.970703" xlink:href="#k"/>
<use x="242.382812" xlink:href="#i"/>
<use x="270.166016" xlink:href="#f"/>
<use x="333.544922" xlink:href="#d"/>
<use x="394.824219" xlink:href="#h"/>
</g>
</g>
<path d="m411.22 744.37v33.808q0 2.4 2.4 2.4h7.7425q2.4 0 2.4-2.4v-33.808q0-2.4-2.4-2.4h-7.7425q-2.4 0-2.4 2.4z" clip-path="url(#a)" fill="#fff" stroke="#fff"/>
<g clip-path="url(#a)">
<g transform="translate(415.28 744.37) rotate(90) scale(.08 -.08)">
<use xlink:href="#l"/>
<use x="44.083984" xlink:href="#e"/>
<use x="105.607422" xlink:href="#j"/>
<use x="144.970703" xlink:href="#k"/>
<use x="242.382812" xlink:href="#i"/>
<use x="270.166016" xlink:href="#f"/>
<use x="333.544922" xlink:href="#d"/>
<use x="394.824219" xlink:href="#h"/>
</g>
</g>
<path d="m476.44 778.91 4.9093-33.449q0.34851-2.3746-2.026-2.7231l-7.6604-1.1243q-2.3746-0.34851-2.7231 2.026l-4.9093 33.449q-0.34851 2.3746 2.026 2.7231l7.6604 1.1243q2.3746 0.34851 2.7231-2.026z" clip-path="url(#a)" fill="#fff" stroke="#fff"/>
<g clip-path="url(#a)">
<g transform="translate(472.42 778.32) rotate(-81.65) scale(.08 -.08)">
<use xlink:href="#l"/>
<use x="44.083984" xlink:href="#e"/>
<use x="105.607422" xlink:href="#j"/>
<use x="144.970703" xlink:href="#k"/>
<use x="242.382812" xlink:href="#i"/>
<use x="270.166016" xlink:href="#f"/>
<use x="333.544922" xlink:href="#d"/>
<use x="394.824219" xlink:href="#h"/>
</g>
</g>
<path d="m487.14 745.46 4.9093 33.449q0.34851 2.3746 2.7231 2.026l7.6604-1.1243q2.3746-0.34851 2.026-2.7231l-4.9093-33.449q-0.34851-2.3746-2.7231-2.026l-7.6604 1.1243q-2.3746 0.34851-2.026 2.7231z" clip-path="url(#a)" fill="#fff" stroke="#fff"/>
<g clip-path="url(#a)">
<g transform="translate(491.16 744.87) rotate(81.65) scale(.08 -.08)">
<use xlink:href="#l"/>
<use x="44.083984" xlink:href="#e"/>
<use x="105.607422" xlink:href="#j"/>
<use x="144.970703" xlink:href="#k"/>
<use x="242.382812" xlink:href="#i"/>
<use x="270.166016" xlink:href="#f"/>
<use x="333.544922" xlink:href="#d"/>
<use x="394.824219" xlink:href="#h"/>
</g>
</g>
<path d="m585.68 699.16 5.4924-33.358q0.38991-2.3681-1.9782-2.758l-7.6396-1.2579q-2.3681-0.38991-2.758 1.9782l-5.4924 33.358q-0.38991 2.3681 1.9782 2.758l7.6396 1.2579q2.3681 0.38991 2.758-1.9782z" clip-path="url(#a)" fill="#fff" stroke="#fff"/>
<g clip-path="url(#a)">
<g transform="translate(581.67 698.5) rotate(-80.65) scale(.08 -.08)">
<use xlink:href="#l"/>
<use x="44.083984" xlink:href="#e"/>
<use x="105.607422" xlink:href="#j"/>
<use x="144.970703" xlink:href="#k"/>
<use x="242.382812" xlink:href="#i"/>
<use x="270.166016" xlink:href="#f"/>
<use x="333.544922" xlink:href="#d"/>
<use x="394.824219" xlink:href="#h"/>
</g>
</g>
<path d="m625.9 665.82 5.58 33.344q0.39613 2.3671 2.7632 1.971l7.6363-1.2779q2.3671-0.39613 1.971-2.7632l-5.58-33.344q-0.39613-2.3671-2.7632-1.971l-7.6363 1.2779q-2.3671 0.39613-1.971 2.7632z" clip-path="url(#a)" fill="#fff" stroke="#fff"/>
<g clip-path="url(#a)">
<g transform="translate(629.91 665.15) rotate(80.5) scale(.08 -.08)">
<use xlink:href="#l"/>
<use x="44.083984" xlink:href="#e"/>
<use x="105.607422" xlink:href="#j"/>
<use x="144.970703" xlink:href="#k"/>
<use x="242.382812" xlink:href="#i"/>
<use x="270.166016" xlink:href="#f"/>
<use x="333.544922" xlink:href="#d"/>
<use x="394.824219" xlink:href="#h"/>
</g>
</g>
<path d="m614.17 605.7 0.03139-5.8549q0.012867-2.4-2.3871-2.4128l-7.7424-0.04151q-2.4-0.012867-2.4128 2.3871l-0.03139 5.8549q-0.012867 2.4 2.3871 2.4128l7.7424 0.04151q2.4 0.012866 2.4128-2.3871z" clip-path="url(#a)" fill="#fff" stroke="#fff"/>
<g clip-path="url(#a)">
<g transform="translate(610.11 605.68) rotate(-89.693) scale(.08 -.08)">
<use xlink:href="#w"/>
</g>
</g>
<path d="m91.987 778.38 1.1021-33.79q0.078235-2.3987-2.3205-2.477l-7.7384-0.25239q-2.3987-0.078235-2.477 2.3205l-1.1021 33.79q-0.078235 2.3987 2.3205 2.477l7.7384 0.25239q2.3987 0.078236 2.477-2.3205z" clip-path="url(#a)" fill="#fff" stroke="#fff"/>
<g clip-path="url(#a)">
<g transform="translate(87.926 778.24) rotate(-88.132) scale(.08 -.08)">
<use xlink:href="#l"/>
<use x="44.083984" xlink:href="#e"/>
<use x="105.607422" xlink:href="#j"/>
<use x="144.970703" xlink:href="#k"/>
<use x="242.382812" xlink:href="#i"/>
<use x="270.166016" xlink:href="#f"/>
<use x="333.544922" xlink:href="#d"/>
<use x="394.824219" xlink:href="#h"/>
</g>
</g>
<path d="m84.586 744.59 1.1021 33.79q0.078236 2.3987 2.477 2.3205l7.7384-0.25239q2.3987-0.078236 2.3205-2.477l-1.1021-33.79q-0.078235-2.3987-2.477-2.3205l-7.7384 0.25239q-2.3987 0.078235-2.3205 2.477z" clip-path="url(#a)" fill="#fff" stroke="#fff"/>
<g clip-path="url(#a)">
<g transform="translate(88.648 744.45) rotate(88.132) scale(.08 -.08)">
<use xlink:href="#l"/>
<use x="44.083984" xlink:href="#e"/>
<use x="105.607422" xlink:href="#j"/>
<use x="144.970703" xlink:href="#k"/>
<use x="242.382812" xlink:href="#i"/>
<use x="270.166016" xlink:href="#f"/>
<use x="333.544922" xlink:href="#d"/>
<use x="394.824219" xlink:href="#h"/>
</g>
</g>
<path d="m184.45 445.56 0.36555-4.8099q0.18188-2.3931-2.2112-2.575l-7.7202-0.58674q-2.3931-0.18188-2.575 2.2112l-0.36555 4.8099q-0.18188 2.3931 2.2112 2.575l7.7202 0.58674q2.3931 0.18188 2.575-2.2112z" clip-path="url(#a)" fill="#fff" stroke="#fff"/>
<g clip-path="url(#a)">
<g transform="translate(180.4 445.25) rotate(-85.654) scale(.08 -.08)">
<use xlink:href="#s"/>
</g>
</g>
<path d="m184.12 440.43 0.41471 5.4568q0.18188 2.3931 2.575 2.2112l7.7202-0.58674q2.3931-0.18188 2.2112-2.575l-0.41471-5.4568q-0.18188-2.3931-2.575-2.2112l-7.7202 0.58674q-2.3931 0.18188-2.2112 2.575z" clip-path="url(#a)" fill="#fff" stroke="#fff"/>
<g clip-path="url(#a)">
<g transform="translate(188.17 440.12) rotate(85.654) scale(.08 -.08)">
<use xlink:href="#q"/>
</g>
</g>
<path d="m115.94 744.37v33.808q0 2.4 2.4 2.4h7.7425q2.4 0 2.4-2.4v-33.808q0-2.4-2.4-2.4h-7.7425q-2.4 0-2.4 2.4z" clip-path="url(#a)" fill="#fff" stroke="#fff"/>
<g clip-path="url(#a)">
<g transform="translate(120.01 744.37) rotate(90) scale(.08 -.08)">
<use xlink:href="#l"/>
<use x="44.083984" xlink:href="#e"/>
<use x="105.607422" xlink:href="#j"/>
<use x="144.970703" xlink:href="#k"/>
<use x="242.382812" xlink:href="#i"/>
<use x="270.166016" xlink:href="#f"/>
<use x="333.544922" xlink:href="#d"/>
<use x="394.824219" xlink:href="#h"/>
</g>
</g>
<path d="m154.46 744.37v33.808q0 2.4 2.4 2.4h7.7425q2.4 0 2.4-2.4v-33.808q0-2.4-2.4-2.4h-7.7425q-2.4 0-2.4 2.4z" clip-path="url(#a)" fill="#fff" stroke="#fff"/>
<g clip-path="url(#a)">
<g transform="translate(158.52 744.37) rotate(90) scale(.08 -.08)">
<use xlink:href="#l"/>
<use x="44.083984" xlink:href="#e"/>
<use x="105.607422" xlink:href="#j"/>
<use x="144.970703" xlink:href="#k"/>
<use x="242.382812" xlink:href="#i"/>
<use x="270.166016" xlink:href="#f"/>
<use x="333.544922" xlink:href="#d"/>
<use x="394.824219" xlink:href="#h"/>
</g>
</g>
<path d="m262.3 744.37v33.808q0 2.4 2.4 2.4h7.7425q2.4 0 2.4-2.4v-33.808q0-2.4-2.4-2.4h-7.7425q-2.4 0-2.4 2.4z" clip-path="url(#a)" fill="#fff" stroke="#fff"/>
<g clip-path="url(#a)">
<g transform="translate(266.36 744.37) rotate(90) scale(.08 -.08)">
<use xlink:href="#l"/>
<use x="44.083984" xlink:href="#e"/>
<use x="105.607422" xlink:href="#j"/>
<use x="144.970703" xlink:href="#k"/>
<use x="242.382812" xlink:href="#i"/>
<use x="270.166016" xlink:href="#f"/>
<use x="333.544922" xlink:href="#d"/>
<use x="394.824219" xlink:href="#h"/>
</g>
</g>
<path d="m144.48 607.24 1.746-4.2571q0.91071-2.2205-1.3098-3.1312l-7.1634-2.938q-2.2205-0.91071-3.1312 1.3098l-1.746 4.2571q-0.91071 2.2205 1.3098 3.1312l7.1634 2.938q2.2205 0.91071 3.1312-1.3098z" clip-path="url(#a)" fill="#fff" stroke="#fff"/>
<g clip-path="url(#a)">
<g transform="translate(140.72 605.7) rotate(-67.7) scale(.08 -.08)">
<use xlink:href="#x"/>
</g>
</g>
<path d="m198.16 602.53 2.1198 5.1684q0.91071 2.2205 3.1312 1.3098l7.1634-2.938q2.2205-0.91071 1.3098-3.1312l-2.1198-5.1684q-0.91071-2.2205-3.1312-1.3098l-7.1634 2.938q-2.2205 0.91071-1.3098 3.1312z" clip-path="url(#a)" fill="#fff" stroke="#fff"/>
<g clip-path="url(#a)">
<g transform="translate(201.92 600.99) rotate(67.7) scale(.08 -.08)">
<use xlink:href="#ag"/>
</g>
</g>
<path d="m196.29 605.97 0.43868-5.4549q0.19239-2.3923-2.1999-2.5847l-7.7176-0.62064q-2.3923-0.19239-2.5847 2.1999l-0.43868 5.4549q-0.19239 2.3923 2.1999 2.5847l7.7176 0.62064q2.3923 0.19239 2.5847-2.1999z" clip-path="url(#a)" fill="#fff" stroke="#fff"/>
<g clip-path="url(#a)">
<g transform="translate(192.24 605.64) rotate(-85.402) scale(.08 -.08)">
<use xlink:href="#q"/>
</g>
</g>
<path d="m196.65 600.84 0.38668 4.8082q0.19238 2.3923 2.5847 2.1999l7.7176-0.62064q2.3923-0.19239 2.1999-2.5847l-0.38668-4.8082q-0.19239-2.3923-2.5847-2.1999l-7.7176 0.62064q-2.3923 0.19239-2.1999 2.5847z" clip-path="url(#a)" fill="#fff" stroke="#fff"/>
<g clip-path="url(#a)">
<g transform="translate(200.7 600.51) rotate(85.402) scale(.08 -.08)">
<use xlink:href="#s"/>
</g>
</g>
<path d="m177.57 744.37v33.808q0 2.4 2.4 2.4h7.7425q2.4 0 2.4-2.4v-33.808q0-2.4-2.4-2.4h-7.7425q-2.4 0-2.4 2.4z" clip-path="url(#a)" fill="#fff" stroke="#fff"/>
<g clip-path="url(#a)">
<g transform="translate(181.63 744.37) rotate(90) scale(.08 -.08)">
<use xlink:href="#l"/>
<use x="44.083984" xlink:href="#e"/>
<use x="105.607422" xlink:href="#j"/>
<use x="144.970703" xlink:href="#k"/>
<use x="242.382812" xlink:href="#i"/>
<use x="270.166016" xlink:href="#f"/>
<use x="333.544922" xlink:href="#d"/>
<use x="394.824219" xlink:href="#h"/>
</g>
</g>
<path d="m203.24 744.37v33.808q0 2.4 2.4 2.4h7.7425q2.4 0 2.4-2.4v-33.808q0-2.4-2.4-2.4h-7.7425q-2.4 0-2.4 2.4z" clip-path="url(#a)" fill="#fff" stroke="#fff"/>
<g clip-path="url(#a)">
<g transform="translate(207.31 744.37) rotate(90) scale(.08 -.08)">
<use xlink:href="#l"/>
<use x="44.083984" xlink:href="#e"/>
<use x="105.607422" xlink:href="#j"/>
<use x="144.970703" xlink:href="#k"/>
<use x="242.382812" xlink:href="#i"/>
<use x="270.166016" xlink:href="#f"/>
<use x="333.544922" xlink:href="#d"/>
<use x="394.824219" xlink:href="#h"/>
</g>
</g>
<path d="m100.54 744.37v33.808q0 2.4 2.4 2.4h7.7425q2.4 0 2.4-2.4v-33.808q0-2.4-2.4-2.4h-7.7425q-2.4 0-2.4 2.4z" clip-path="url(#a)" fill="#fff" stroke="#fff"/>
<g clip-path="url(#a)">
<g transform="translate(104.6 744.37) rotate(90) scale(.08 -.08)">
<use xlink:href="#l"/>
<use x="44.083984" xlink:href="#e"/>
<use x="105.607422" xlink:href="#j"/>
<use x="144.970703" xlink:href="#k"/>
<use x="242.382812" xlink:href="#i"/>
<use x="270.166016" xlink:href="#f"/>
<use x="333.544922" xlink:href="#d"/>
<use x="394.824219" xlink:href="#h"/>
</g>
</g>
<path d="m231.49 744.37v33.808q0 2.4 2.4 2.4h7.7425q2.4 0 2.4-2.4v-33.808q0-2.4-2.4-2.4h-7.7425q-2.4 0-2.4 2.4z" clip-path="url(#a)" fill="#fff" stroke="#fff"/>
<g clip-path="url(#a)">
<g transform="translate(235.55 744.37) rotate(90) scale(.08 -.08)">
<use xlink:href="#l"/>
<use x="44.083984" xlink:href="#e"/>
<use x="105.607422" xlink:href="#j"/>
<use x="144.970703" xlink:href="#k"/>
<use x="242.382812" xlink:href="#i"/>
<use x="270.166016" xlink:href="#f"/>
<use x="333.544922" xlink:href="#d"/>
<use x="394.824219" xlink:href="#h"/>
</g>
</g>
<path d="m133.92 744.37v33.808q0 2.4 2.4 2.4h7.7425q2.4 0 2.4-2.4v-33.808q0-2.4-2.4-2.4h-7.7425q-2.4 0-2.4 2.4z" clip-path="url(#a)" fill="#fff" stroke="#fff"/>
<g clip-path="url(#a)">
<g transform="translate(137.98 744.37) rotate(90) scale(.08 -.08)">
<use xlink:href="#l"/>
<use x="44.083984" xlink:href="#e"/>
<use x="105.607422" xlink:href="#j"/>
<use x="144.970703" xlink:href="#k"/>
<use x="242.382812" xlink:href="#i"/>
<use x="270.166016" xlink:href="#f"/>
<use x="333.544922" xlink:href="#d"/>
<use x="394.824219" xlink:href="#h"/>
</g>
</g>
<path d="m295.67 744.37v33.808q0 2.4 2.4 2.4h7.7425q2.4 0 2.4-2.4v-33.808q0-2.4-2.4-2.4h-7.7425q-2.4 0-2.4 2.4z" clip-path="url(#a)" fill="#fff" stroke="#fff"/>
<g clip-path="url(#a)">
<g transform="translate(299.74 744.37) rotate(90) scale(.08 -.08)">
<use xlink:href="#l"/>
<use x="44.083984" xlink:href="#e"/>
<use x="105.607422" xlink:href="#j"/>
<use x="144.970703" xlink:href="#k"/>
<use x="242.382812" xlink:href="#i"/>
<use x="270.166016" xlink:href="#f"/>
<use x="333.544922" xlink:href="#d"/>
<use x="394.824219" xlink:href="#h"/>
</g>
</g>
<path d="m601.22 744.37v33.808q0 2.4 2.4 2.4h7.7425q2.4 0 2.4-2.4v-33.808q0-2.4-2.4-2.4h-7.7425q-2.4 0-2.4 2.4z" clip-path="url(#a)" fill="#fff" stroke="#fff"/>
<g clip-path="url(#a)">
<g transform="translate(605.28 744.37) rotate(90) scale(.08 -.08)">
<use xlink:href="#l"/>
<use x="44.083984" xlink:href="#e"/>
<use x="105.607422" xlink:href="#j"/>
<use x="144.970703" xlink:href="#k"/>
<use x="242.382812" xlink:href="#i"/>
<use x="270.166016" xlink:href="#f"/>
<use x="333.544922" xlink:href="#d"/>
<use x="394.824219" xlink:href="#h"/>
</g>
</g>
<path d="m711.62 744.37v33.808q0 2.4 2.4 2.4h7.7425q2.4 0 2.4-2.4v-33.808q0-2.4-2.4-2.4h-7.7425q-2.4 0-2.4 2.4z" clip-path="url(#a)" fill="#fff" stroke="#fff"/>
<g clip-path="url(#a)">
<g transform="translate(715.68 744.37) rotate(90) scale(.08 -.08)">
<use xlink:href="#l"/>
<use x="44.083984" xlink:href="#e"/>
<use x="105.607422" xlink:href="#j"/>
<use x="144.970703" xlink:href="#k"/>
<use x="242.382812" xlink:href="#i"/>
<use x="270.166016" xlink:href="#f"/>
<use x="333.544922" xlink:href="#d"/>
<use x="394.824219" xlink:href="#h"/>
</g>
</g>
<path d="m1589.7 744.37v33.808q0 2.4 2.4 2.4h7.7425q2.4 0 2.4-2.4v-33.808q0-2.4-2.4-2.4h-7.7425q-2.4 0-2.4 2.4z" clip-path="url(#a)" fill="#fff" stroke="#fff"/>
<g clip-path="url(#a)">
<g transform="translate(1593.8 744.37) rotate(90) scale(.08 -.08)">
<use xlink:href="#l"/>
<use x="44.083984" xlink:href="#e"/>
<use x="105.607422" xlink:href="#j"/>
<use x="144.970703" xlink:href="#k"/>
<use x="242.382812" xlink:href="#i"/>
<use x="270.166016" xlink:href="#f"/>
<use x="333.544922" xlink:href="#d"/>
<use x="394.824219" xlink:href="#h"/>
</g>
</g>
<defs>
<path id="b" d="m0 8.6603c2.2967 0 4.4997-0.9125 6.1237-2.5365 1.624-1.624 2.5365-3.827 2.5365-6.1237s-0.9125-4.4997-2.5365-6.1237c-1.624-1.624-3.827-2.5365-6.1237-2.5365s-4.4997 0.9125-6.1237 2.5365c-1.624 1.624-2.5365 3.827-2.5365 6.1237s0.9125 4.4997 2.5365 6.1237c1.624 1.624 3.827 2.5365 6.1237 2.5365z"/>
</defs>
<g clip-path="url(#a)">
<use x="76" y="840" fill="#ffffff" stroke="#ffffff" xlink:href="#b"/>
</g>
<g clip-path="url(#a)">
<use x="83.702703" y="840" fill="#ffffff" stroke="#ffffff" xlink:href="#b"/>
</g>
<g clip-path="url(#a)">
<use x="93.972973" y="840" fill="#ffffff" stroke="#ffffff" xlink:href="#b"/>
</g>
<g clip-path="url(#a)">
<use x="106.810811" y="840" fill="#ffffff" stroke="#ffffff" xlink:href="#b"/>
</g>
<g clip-path="url(#a)">
<use x="122.216216" y="840" fill="#ffffff" stroke="#ffffff" xlink:href="#b"/>
</g>
<g clip-path="url(#a)">
<use x="140.189189" y="840" fill="#ffffff" stroke="#ffffff" xlink:href="#b"/>
</g>
<g clip-path="url(#a)">
<use x="160.72973" y="840" fill="#ffffff" stroke="#ffffff" xlink:href="#b"/>
</g>
<g clip-path="url(#a)">
<use x="183.837838" y="840" fill="#ffffff" stroke="#ffffff" xlink:href="#b"/>
</g>
<g clip-path="url(#a)">
<use x="209.513514" y="840" fill="#ffffff" stroke="#ffffff" xlink:href="#b"/>
</g>
<g clip-path="url(#a)">
<use x="237.756757" y="840" fill="#ffffff" stroke="#ffffff" xlink:href="#b"/>
</g>
<g clip-path="url(#a)">
<use x="268.567568" y="840" fill="#ffffff" stroke="#ffffff" xlink:href="#b"/>
</g>
<g clip-path="url(#a)">
<use x="301.945946" y="840" fill="#ffffff" stroke="#ffffff" xlink:href="#b"/>
</g>
<g clip-path="url(#a)">
<use x="337.891892" y="840" fill="#ffffff" stroke="#ffffff" xlink:href="#b"/>
</g>
<g clip-path="url(#a)">
<use x="376.405405" y="840" fill="#ffffff" stroke="#ffffff" xlink:href="#b"/>
</g>
<g clip-path="url(#a)">
<use x="417.486486" y="840" fill="#ffffff" stroke="#ffffff" xlink:href="#b"/>
</g>
<g clip-path="url(#a)">
<use x="461.135135" y="840" fill="#ffffff" stroke="#ffffff" xlink:href="#b"/>
</g>
<g clip-path="url(#a)">
<use x="507.351351" y="840" fill="#ffffff" stroke="#ffffff" xlink:href="#b"/>
</g>
<g clip-path="url(#a)">
<use x="556.135135" y="840" fill="#ffffff" stroke="#ffffff" xlink:href="#b"/>
</g>
<g clip-path="url(#a)">
<use x="607.486486" y="840" fill="#ffffff" stroke="#ffffff" xlink:href="#b"/>
</g>
<g clip-path="url(#a)">
<use x="661.405405" y="840" fill="#ffffff" stroke="#ffffff" xlink:href="#b"/>
</g>
<g clip-path="url(#a)">
<use x="717.891892" y="840" fill="#ffffff" stroke="#ffffff" xlink:href="#b"/>
</g>
<g clip-path="url(#a)">
<use x="776.945946" y="840" fill="#ffffff" stroke="#ffffff" xlink:href="#b"/>
</g>
<g clip-path="url(#a)">
<use x="838.567568" y="840" fill="#ffffff" stroke="#ffffff" xlink:href="#b"/>
</g>
<g clip-path="url(#a)">
<use x="902.756757" y="840" fill="#ffffff" stroke="#ffffff" xlink:href="#b"/>
</g>
<g clip-path="url(#a)">
<use x="969.513514" y="840" fill="#ffffff" stroke="#ffffff" xlink:href="#b"/>
</g>
<g clip-path="url(#a)">
<use x="1038.837838" y="840" fill="#ffffff" stroke="#ffffff" xlink:href="#b"/>
</g>
<g clip-path="url(#a)">
<use x="1110.72973" y="840" fill="#ffffff" stroke="#ffffff" xlink:href="#b"/>
</g>
<g clip-path="url(#a)">
<use x="1185.189189" y="840" fill="#ffffff" stroke="#ffffff" xlink:href="#b"/>
</g>
<g clip-path="url(#a)">
<use x="1262.216216" y="840" fill="#ffffff" stroke="#ffffff" xlink:href="#b"/>
</g>
<g clip-path="url(#a)">
<use x="1341.810811" y="840" fill="#ffffff" stroke="#ffffff" xlink:href="#b"/>
</g>
<g clip-path="url(#a)">
<use x="1423.972973" y="840" fill="#ffffff" stroke="#ffffff" xlink:href="#b"/>
</g>
<g clip-path="url(#a)">
<use x="1508.702703" y="840" fill="#ffffff" stroke="#ffffff" xlink:href="#b"/>
</g>
<g clip-path="url(#a)">
<use x="1596" y="840" fill="#ffffff" stroke="#ffffff" xlink:href="#b"/>
</g>
<g clip-path="url(#a)">
<use x="494.421815" y="40" fill="#ffffff" stroke="#ffffff" xlink:href="#b"/>
</g>
<g clip-path="url(#a)">
<use x="76" y="682.554489" fill="#ffffff" stroke="#ffffff" xlink:href="#b"/>
</g>
<g clip-path="url(#a)">
<use x="160.836712" y="201.426527" fill="#ffffff" stroke="#ffffff" xlink:href="#b"/>
</g>
<g clip-path="url(#a)">
<use x="466.80518" y="362.445711" fill="#ffffff" stroke="#ffffff" xlink:href="#b"/>
</g>
<g clip-path="url(#a)">
<use x="776.945946" y="682.554489" fill="#ffffff" stroke="#ffffff" xlink:href="#b"/>
</g>
<g clip-path="url(#a)">
<use x="960.527027" y="201.426527" fill="#ffffff" stroke="#ffffff" xlink:href="#b"/>
</g>
<g clip-path="url(#a)">
<use x="838.567568" y="682.554489" fill="#ffffff" stroke="#ffffff" xlink:href="#b"/>
</g>
<g clip-path="url(#a)">
<use x="902.756757" y="682.554489" fill="#ffffff" stroke="#ffffff" xlink:href="#b"/>
</g>
<g clip-path="url(#a)">
<use x="969.513514" y="682.554489" fill="#ffffff" stroke="#ffffff" xlink:href="#b"/>
</g>
<g clip-path="url(#a)">
<use x="1131.27027" y="362.445711" fill="#ffffff" stroke="#ffffff" xlink:href="#b"/>
</g>
<g clip-path="url(#a)">
<use x="1074.783784" y="522.918738" fill="#ffffff" stroke="#ffffff" xlink:href="#b"/>
</g>
<g clip-path="url(#a)">
<use x="1185.189189" y="682.554489" fill="#ffffff" stroke="#ffffff" xlink:href="#b"/>
</g>
<g clip-path="url(#a)">
<use x="1426.540541" y="522.918738" fill="#ffffff" stroke="#ffffff" xlink:href="#b"/>
</g>
<g clip-path="url(#a)">
<use x="1262.216216" y="682.554489" fill="#ffffff" stroke="#ffffff" xlink:href="#b"/>
</g>
<g clip-path="url(#a)">
<use x="1341.810811" y="682.554489" fill="#ffffff" stroke="#ffffff" xlink:href="#b"/>
</g>
<g clip-path="url(#a)">
<use x="1423.972973" y="682.554489" fill="#ffffff" stroke="#ffffff" xlink:href="#b"/>
</g>
<g clip-path="url(#a)">
<use x="1508.702703" y="682.554489" fill="#ffffff" stroke="#ffffff" xlink:href="#b"/>
</g>
<g clip-path="url(#a)">
<use x="1038.837838" y="682.554489" fill="#ffffff" stroke="#ffffff" xlink:href="#b"/>
</g>
<g clip-path="url(#a)">
<use x="1110.72973" y="682.554489" fill="#ffffff" stroke="#ffffff" xlink:href="#b"/>
</g>
<g clip-path="url(#a)">
<use x="357.148649" y="682.554489" fill="#ffffff" stroke="#ffffff" xlink:href="#b"/>
</g>
<g clip-path="url(#a)">
<use x="417.486486" y="682.554489" fill="#ffffff" stroke="#ffffff" xlink:href="#b"/>
</g>
<g clip-path="url(#a)">
<use x="484.243243" y="682.554489" fill="#ffffff" stroke="#ffffff" xlink:href="#b"/>
</g>
<g clip-path="url(#a)">
<use x="608.342342" y="522.918738" fill="#ffffff" stroke="#ffffff" xlink:href="#b"/>
</g>
<g clip-path="url(#a)">
<use x="88.837838" y="682.554489" fill="#ffffff" stroke="#ffffff" xlink:href="#b"/>
</g>
<g clip-path="url(#a)">
<use x="184.47973" y="362.445711" fill="#ffffff" stroke="#ffffff" xlink:href="#b"/>
</g>
<g clip-path="url(#a)">
<use x="122.216216" y="682.554489" fill="#ffffff" stroke="#ffffff" xlink:href="#b"/>
</g>
<g clip-path="url(#a)">
<use x="160.72973" y="682.554489" fill="#ffffff" stroke="#ffffff" xlink:href="#b"/>
</g>
<g clip-path="url(#a)">
<use x="268.567568" y="682.554489" fill="#ffffff" stroke="#ffffff" xlink:href="#b"/>
</g>
<g clip-path="url(#a)">
<use x="172.283784" y="522.918738" fill="#ffffff" stroke="#ffffff" xlink:href="#b"/>
</g>
<g clip-path="url(#a)">
<use x="196.675676" y="522.918738" fill="#ffffff" stroke="#ffffff" xlink:href="#b"/>
</g>
<g clip-path="url(#a)">
<use x="183.837838" y="682.554489" fill="#ffffff" stroke="#ffffff" xlink:href="#b"/>
</g>
<g clip-path="url(#a)">
<use x="209.513514" y="682.554489" fill="#ffffff" stroke="#ffffff" xlink:href="#b"/>
</g>
<g clip-path="url(#a)">
<use x="106.810811" y="682.554489" fill="#ffffff" stroke="#ffffff" xlink:href="#b"/>
</g>
<g clip-path="url(#a)">
<use x="237.756757" y="682.554489" fill="#ffffff" stroke="#ffffff" xlink:href="#b"/>
</g>
<g clip-path="url(#a)">
<use x="140.189189" y="682.554489" fill="#ffffff" stroke="#ffffff" xlink:href="#b"/>
</g>
<g clip-path="url(#a)">
<use x="301.945946" y="682.554489" fill="#ffffff" stroke="#ffffff" xlink:href="#b"/>
</g>
<g clip-path="url(#a)">
<use x="607.486486" y="682.554489" fill="#ffffff" stroke="#ffffff" xlink:href="#b"/>
</g>
<g clip-path="url(#a)">
<use x="717.891892" y="682.554489" fill="#ffffff" stroke="#ffffff" xlink:href="#b"/>
</g>
<g clip-path="url(#a)">
<use x="1596" y="682.554489" fill="#ffffff" stroke="#ffffff" xlink:href="#b"/>
</g>
<g clip-path="url(#a)">
<defs>
<path id="ao" d="m9.8125 72.906h9.8594v-72.906h-9.8594z"/>
</defs>
<g transform="translate(71.356 842.76) scale(.1 -.1)">
<use xlink:href="#ao"/>
<use x="29.492188" xlink:href="#f"/>
</g>
</g>
<g clip-path="url(#a)">
<defs>
<path id="ab" d="m4.2031 54.688h8.9844l11.234-42.672 11.172 42.672h10.594l11.234-42.672 11.188 42.672h8.9844l-14.312-54.688h-10.594l-11.766 44.828-11.812-44.828h-10.609z"/>
<path id="v" d="m54.891 33.016v-33.016h-8.9844v32.719q0 7.7656-3.0312 11.609-3.0312 3.8594-9.0781 3.8594-7.2812 0-11.484-4.6406-4.2031-4.625-4.2031-12.641v-30.906h-9.0312v75.984h9.0312v-29.797q3.2344 4.9375 7.5938 7.375 4.375 2.4375 10.094 2.4375 9.4219 0 14.25-5.8281 4.8438-5.8281 4.8438-17.156z"/>
<path id="m" d="m18.312 70.219v-15.531h18.5v-6.9844h-18.5v-29.688q0-6.6875 1.8281-8.5938t7.4531-1.9062h9.2188v-7.5156h-9.2188q-10.406 0-14.359 3.875-3.9531 3.8906-3.9531 14.141v29.688h-6.5938v6.9844h6.5938v15.531z"/>
</defs>
<g transform="translate(71.421 842.76) scale(.1 -.1)">
<use xlink:href="#ab"/>
<use x="81.787109" xlink:href="#v"/>
<use x="145.166016" xlink:href="#d"/>
<use x="206.445312" xlink:href="#m"/>
</g>
</g>
<g clip-path="url(#a)">
<defs>
<path id="t" d="m44.281 53.078v-8.5q-3.7969 1.9531-7.9062 2.9219-4.0938 0.98438-8.5 0.98438-6.6875 0-10.031-2.0469t-3.3438-6.1562q0-3.125 2.3906-4.9062t9.625-3.3906l3.0781-0.6875q9.5625-2.0469 13.594-5.7812t4.0312-10.422q0-7.625-6.0312-12.078-6.0312-4.4375-16.578-4.4375-4.3906 0-9.1562 0.85938t-10.031 2.5625v9.2812q4.9844-2.5938 9.8125-3.8906 4.8281-1.2812 9.5781-1.2812 6.3438 0 9.75 2.1719 3.4219 2.1719 3.4219 6.125 0 3.6562-2.4688 5.6094-2.4531 1.9531-10.812 3.7656l-3.125 0.73438q-8.3438 1.75-12.062 5.3906-3.7031 3.6406-3.7031 9.9844 0 7.7188 5.4688 11.906 5.4688 4.2031 15.531 4.2031 4.9688 0 9.3594-0.73438 4.4062-0.71875 8.1094-2.1875z"/>
</defs>
<g transform="translate(84.215 842.76) scale(.1 -.1)">
<use xlink:href="#ab"/>
<use x="81.787109" xlink:href="#d"/>
<use x="143.066406" xlink:href="#t"/>
</g>
</g>
<g clip-path="url(#a)">
<g transform="translate(98.605 842.76) scale(.1 -.1)">
<use xlink:href="#m"/>
<use x="39.208984" xlink:href="#v"/>
<use x="102.587891" xlink:href="#e"/>
</g>
</g>
<g clip-path="url(#a)">
<defs>
<path id="r" d="m30.609 48.391q-7.2188 0-11.422-5.6406t-4.2031-15.453 4.1719-15.453q4.1875-5.6406 11.453-5.6406 7.1875 0 11.375 5.6562 4.2031 5.6719 4.2031 15.438 0 9.7188-4.2031 15.406-4.1875 5.6875-11.375 5.6875zm0 7.6094q11.719 0 18.406-7.625 6.7031-7.6094 6.7031-21.078 0-13.422-6.7031-21.078-6.6875-7.6406-18.406-7.6406-11.766 0-18.438 7.6406-6.6562 7.6562-6.6562 21.078 0 13.469 6.6562 21.078 6.6719 7.625 18.438 7.625z"/>
</defs>
<g transform="translate(109.72 842.76) scale(.1 -.1)">
<use xlink:href="#k"/>
<use x="97.412109" xlink:href="#r"/>
<use x="158.59375" xlink:href="#t"/>
<use x="210.693359" xlink:href="#m"/>
</g>
</g>
<g clip-path="url(#a)">
<defs>
<path id="aq" d="m4.8906 31.391h26.312v-8h-26.312z"/>
</defs>
<g transform="translate(138.39 842.76) scale(.1 -.1)">
<use xlink:href="#aq"/>
</g>
</g>
<g clip-path="url(#a)">
<defs>
<path id="ad" d="m48.781 52.594v-8.4062q-3.8125 2.1094-7.6406 3.1562t-7.7344 1.0469q-8.75 0-13.594-5.5469-4.8281-5.5312-4.8281-15.547t4.8281-15.562q4.8438-5.5312 13.594-5.5312 3.9062 0 7.7344 1.0469t7.6406 3.1562v-8.3125q-3.7656-1.75-7.7969-2.625-4.0156-0.89062-8.5625-0.89062-12.359 0-19.641 7.7656-7.2656 7.7656-7.2656 20.953 0 13.375 7.3438 21.031 7.3594 7.6719 20.156 7.6719 4.1406 0 8.0938-0.85938 3.9531-0.84375 7.6719-2.5469z"/>
<path id="u" d="m45.406 46.391v29.594h8.9844v-75.984h-8.9844v8.2031q-2.8281-4.875-7.1562-7.25-4.3125-2.375-10.375-2.375-9.9062 0-16.141 7.9062-6.2188 7.9219-6.2188 20.812t6.2188 20.797q6.2344 7.9062 16.141 7.9062 6.0625 0 10.375-2.375 4.3281-2.3594 7.1562-7.2344zm-30.609-19.094q0-9.9062 4.0781-15.547t11.203-5.6406 11.219 5.6406q4.1094 5.6406 4.1094 15.547t-4.1094 15.547q-4.0938 5.6406-11.219 5.6406t-11.203-5.6406-4.0781-15.547z"/>
</defs>
<g transform="translate(139.45 842.76) scale(.1 -.1)">
<use xlink:href="#ab"/>
<use x="81.787109" xlink:href="#d"/>
<use x="143.066406" xlink:href="#m"/>
<use x="182.275391" xlink:href="#ad"/>
<use x="237.255859" xlink:href="#v"/>
<use x="300.634766" xlink:href="#e"/>
<use x="362.158203" xlink:href="#u"/>
</g>
</g>
<g clip-path="url(#a)">
<defs>
<path id="ac" d="m45.406 27.984q0 9.7656-4.0312 15.125-4.0156 5.375-11.297 5.375-7.2188 0-11.25-5.375-4.0312-5.3594-4.0312-15.125 0-9.7188 4.0312-15.094t11.25-5.375q7.2812 0 11.297 5.375 4.0312 5.375 4.0312 15.094zm8.9844-21.203q0-13.953-6.2031-20.766-6.1875-6.8125-18.984-6.8125-4.7344 0-8.9375 0.70312t-8.1562 2.1719v8.7344q3.9531-2.1406 7.8125-3.1562 3.8594-1.0312 7.8594-1.0312 8.8438 0 13.234 4.6094t4.3906 13.938v4.4531q-2.7812-4.8438-7.125-7.2344t-10.406-2.3906q-10.047 0-16.203 7.6562-6.1562 7.6719-6.1562 20.328 0 12.688 6.1562 20.344 6.1562 7.6719 16.203 7.6719 6.0625 0 10.406-2.3906t7.125-7.2188v8.2969h8.9844z"/>
</defs>
<g transform="translate(165.92 842.76) scale(.1 -.1)">
<use xlink:href="#ad"/>
<use x="54.980469" xlink:href="#r"/>
<use x="116.162109" xlink:href="#h"/>
<use x="143.945312" xlink:href="#h"/>
<use x="171.728516" xlink:href="#e"/>
<use x="233.251953" xlink:href="#ac"/>
<use x="296.728516" xlink:href="#e"/>
</g>
</g>
<g clip-path="url(#a)">
<defs>
<path id="ak" d="m48.688 27.297q0 9.9062-4.0781 15.547t-11.203 5.6406q-7.1406 0-11.219-5.6406t-4.0781-15.547 4.0781-15.547 11.219-5.6406q7.125 0 11.203 5.6406t4.0781 15.547zm-30.578 19.094q2.8438 4.875 7.1562 7.2344 4.3281 2.375 10.328 2.375 9.9688 0 16.188-7.9062 6.2344-7.9062 6.2344-20.797t-6.2344-20.812q-6.2188-7.9062-16.188-7.9062-6 0-10.328 2.375-4.3125 2.375-7.1562 7.25v-8.2031h-9.0312v75.984h9.0312z"/>
<path id="az" d="m9.0781 75.984h9.0312v-44.875l26.812 23.578h11.469l-29-25.578 30.234-29.109h-11.719l-27.797 26.703v-26.703h-9.0312z"/>
</defs>
<g transform="translate(183.9 842.76) scale(.1 -.1)">
<use xlink:href="#ak"/>
<use x="63.476562" xlink:href="#d"/>
<use x="124.755859" xlink:href="#t"/>
<use x="176.855469" xlink:href="#az"/>
<use x="231.140625" xlink:href="#e"/>
<use x="292.664062" xlink:href="#m"/>
<use x="331.873047" xlink:href="#ak"/>
<use x="395.349609" xlink:href="#d"/>
<use x="456.628906" xlink:href="#h"/>
<use x="484.412109" xlink:href="#h"/>
</g>
</g>
<g clip-path="url(#a)">
<g transform="translate(223.57 842.76) scale(.1 -.1)">
<use xlink:href="#ac"/>
<use x="63.476562" xlink:href="#d"/>
<use x="124.755859" xlink:href="#k"/>
<use x="222.167969" xlink:href="#e"/>
</g>
</g>
<g clip-path="url(#a)">
<defs>
<path id="as" d="m2.9844 54.688h9.5156l17.094-45.891 17.094 45.891h9.5156l-20.516-54.688h-12.203z"/>
</defs>
<g transform="translate(257.4 842.76) scale(.1 -.1)">
<use xlink:href="#e"/>
<use x="61.523438" xlink:href="#as"/>
<use x="120.703125" xlink:href="#e"/>
<use x="182.226562" xlink:href="#j"/>
</g>
</g>
<g clip-path="url(#a)">
<defs>
<path id="ar" d="m11.719 12.406h10.297v-8.4062l-8-15.625h-6.2969l4 15.625z"/>
</defs>
<g transform="translate(300.36 842.76) scale(.1 -.1)">
<use xlink:href="#ar"/>
</g>
</g>
<g clip-path="url(#a)">
<defs>
<path id="am" d="m9.8125 72.906h14.703l18.594-49.609 18.703 49.609h14.703v-72.906h-9.625v64.016l-18.797-50h-9.9062l-18.797 50v-64.016h-9.5781z"/>
</defs>
<g transform="translate(315.47 842.76) scale(.1 -.1)">
<use xlink:href="#am"/>
<use x="86.279297" xlink:href="#i"/>
<use x="114.0625" xlink:href="#ad"/>
<use x="169.042969" xlink:href="#v"/>
<use x="232.421875" xlink:href="#i"/>
<use x="260.205078" xlink:href="#ac"/>
<use x="323.681641" xlink:href="#d"/>
<use x="384.960938" xlink:href="#f"/>
</g>
</g>
<g clip-path="url(#a)">
<defs>
<path id="al" d="m53.516 70.516v-9.625q-5.6094 2.6875-10.594 4-4.9844 1.3281-9.625 1.3281-8.0469 0-12.422-3.125t-4.375-8.8906q0-4.8438 2.9062-7.3125 2.9062-2.4531 11.016-3.9688l5.9531-1.2188q11.031-2.1094 16.281-7.4062t5.25-14.172q0-10.609-7.1094-16.078-7.0938-5.4688-20.812-5.4688-5.1719 0-11.016 1.1719-5.8281 1.1719-12.078 3.4688v10.156q6-3.3594 11.766-5.0781 5.7656-1.7031 11.328-1.7031 8.4375 0 13.031 3.3125 4.5938 3.3281 4.5938 9.4844 0 5.3594-3.2969 8.3906t-10.812 4.5469l-6.0156 1.1719q-11.031 2.1875-15.969 6.875-4.9219 4.6875-4.9219 13.047 0 9.6719 6.8125 15.234t18.766 5.5625q5.1406 0 10.453-0.9375 5.3281-0.92188 10.891-2.7656z"/>
</defs>
<g transform="translate(363.17 842.76) scale(.1 -.1)">
<use xlink:href="#al"/>
<use x="63.476562" xlink:href="#m"/>
<use x="102.685547" xlink:href="#d"/>
<use x="163.964844" xlink:href="#m"/>
<use x="203.173828" xlink:href="#e"/>
</g>
</g>
<g clip-path="url(#a)">
<defs>
<path id="au" d="m37.109 75.984v-7.4844h-8.5938q-4.8281 0-6.7188-1.9531-1.875-1.9531-1.875-7.0312v-4.8281h14.797v-6.9844h-14.797v-47.703h-9.0312v47.703h-8.5938v6.9844h8.5938v3.8125q0 9.125 4.25 13.297 4.25 4.1875 13.469 4.1875z"/>
</defs>
<g transform="translate(395.12 842.76) scale(.1 -.1)">
<use xlink:href="#u"/>
<use x="63.476562" xlink:href="#e"/>
<use x="125" xlink:href="#au"/>
<use x="160.205078" xlink:href="#e"/>
<use x="221.728516" xlink:href="#d"/>
<use x="283.007812" xlink:href="#m"/>
<use x="322.216797" xlink:href="#e"/>
<use x="383.740234" xlink:href="#u"/>
</g>
</g>
<g clip-path="url(#a)">
<g transform="translate(442.63 842.76) scale(.1 -.1)">
<use xlink:href="#ao"/>
<use x="29.492188" xlink:href="#f"/>
<use x="92.871094" xlink:href="#u"/>
<use x="156.347656" xlink:href="#i"/>
<use x="184.130859" xlink:href="#d"/>
<use x="245.410156" xlink:href="#f"/>
<use x="308.789062" xlink:href="#d"/>
</g>
</g>
<g clip-path="url(#a)">
<g transform="translate(494.12 842.76) scale(.1 -.1)">
<use xlink:href="#al"/>
<use x="63.476562" xlink:href="#m"/>
<use x="102.685547" xlink:href="#d"/>
<use x="163.964844" xlink:href="#m"/>
<use x="203.173828" xlink:href="#e"/>
</g>
</g>
<g clip-path="url(#a)">
<defs>
<path id="aj" d="m8.2031 72.906h46.875v-4.2031l-26.469-68.703h-10.297l24.906 64.594h-35.016z"/>
<path id="z" d="m10.797 72.906h38.719v-8.3125h-29.688v-17.859q2.1406 0.73438 4.2812 1.0938 2.1562 0.35938 4.3125 0.35938 12.203 0 19.328-6.6875 7.1406-6.6875 7.1406-18.109 0-11.766-7.3281-18.297-7.3281-6.5156-20.656-6.5156-4.5938 0-9.3594 0.78125-4.75 0.78125-9.8281 2.3438v9.9219q4.3906-2.3906 9.0781-3.5625t9.9062-1.1719q8.4531 0 13.375 4.4375 4.9375 4.4375 4.9375 12.062 0 7.6094-4.9375 12.047-4.9219 4.4531-13.375 4.4531-3.9531 0-7.8906-0.875-3.9219-0.875-8.0156-2.7344z"/>
</defs>
<g transform="translate(549.77 842.76) scale(.1 -.1)">
<use xlink:href="#aj"/>
<use x="63.623047" xlink:href="#z"/>
</g>
</g>
<g clip-path="url(#a)">
<g transform="translate(605.68 842.76) scale(.1 -.1)">
<use xlink:href="#aq"/>
</g>
</g>
<g clip-path="url(#a)">
<defs>
<path id="y" d="m33.016 40.375q-6.6406 0-10.531-4.5469-3.875-4.5312-3.875-12.438 0-7.8594 3.875-12.438 3.8906-4.5625 10.531-4.5625t10.516 4.5625q3.875 4.5781 3.875 12.438 0 7.9062-3.875 12.438-3.875 4.5469-10.516 4.5469zm19.578 30.922v-8.9844q-3.7188 1.75-7.5 2.6719-3.7812 0.9375-7.5 0.9375-9.7656 0-14.922-6.5938-5.1406-6.5938-5.875-19.922 2.875 4.25 7.2188 6.5156 4.3594 2.2656 9.5781 2.2656 10.984 0 17.359-6.6719 6.375-6.6562 6.375-18.125 0-11.234-6.6406-18.031-6.6406-6.7812-17.672-6.7812-12.656 0-19.344 9.6875-6.6875 9.7031-6.6875 28.109 0 17.281 8.2031 27.562t22.016 10.281q3.7188 0 7.5-0.73438t7.8906-2.1875z"/>
<path id="p" d="m37.797 64.312-24.906-38.922h24.906zm-2.5938 8.5938h12.406v-47.516h10.406v-8.2031h-10.406v-17.188h-9.8125v17.188h-32.906v9.5156z"/>
</defs>
<g transform="translate(655.04 842.76) scale(.1 -.1)">
<use xlink:href="#y"/>
<use x="63.623047" xlink:href="#p"/>
</g>
</g>
<g clip-path="url(#a)">
<g transform="translate(716.3 842.76) scale(.1 -.1)">
<use xlink:href="#ar"/>
</g>
</g>
<g clip-path="url(#a)">
<g transform="translate(767.54 842.76) scale(.1 -.1)">
<use xlink:href="#d"/>
<use x="61.279297" xlink:href="#f"/>
<use x="124.658203" xlink:href="#u"/>
</g>
</g>
<g clip-path="url(#a)">
<defs>
<path id="ax" d="m9.8125 72.906h9.8594v-67.828q0-13.188-5-19.141t-16.094-5.9531h-3.75v8.2969h3.0781q6.5312 0 9.2188 3.6719 2.6875 3.6562 2.6875 13.125z"/>
</defs>
<g transform="translate(818.86 842.76) scale(.1 -.1)">
<use xlink:href="#ax"/>
<use x="29.492188" xlink:href="#r"/>
<use x="90.673828" xlink:href="#v"/>
<use x="154.052734" xlink:href="#f"/>
<use x="217.431641" xlink:href="#t"/>
<use x="269.53125" xlink:href="#r"/>
<use x="330.712891" xlink:href="#f"/>
</g>
</g>
<g clip-path="url(#a)">
<g transform="translate(893 842.76) scale(.1 -.1)">
<use xlink:href="#ab"/>
<use x="81.787109" xlink:href="#d"/>
<use x="143.066406" xlink:href="#t"/>
</g>
</g>
<g clip-path="url(#a)">
<g transform="translate(955.28 842.76) scale(.1 -.1)">
<use xlink:href="#as"/>
<use x="59.179688" xlink:href="#r"/>
<use x="120.361328" xlink:href="#m"/>
<use x="159.570312" xlink:href="#e"/>
<use x="221.09375" xlink:href="#u"/>
</g>
</g>
<g clip-path="url(#a)">
<g transform="translate(1026.9 842.76) scale(.1 -.1)">
<use xlink:href="#am"/>
<use x="86.279297" xlink:href="#r"/>
<use x="147.460938" xlink:href="#t"/>
<use x="199.560547" xlink:href="#m"/>
</g>
</g>
<g clip-path="url(#a)">
<defs>
<path id="aw" d="m39.406 66.219q-10.75 0-17.078-8.0156-6.3125-8-6.3125-21.828 0-13.766 6.3125-21.781 6.3281-8 17.078-8 10.734 0 17.016 8 6.2812 8.0156 6.2812 21.781 0 13.828-6.2812 21.828-6.2812 8.0156-17.016 8.0156zm0 8q15.328 0 24.5-10.281 9.1875-10.281 9.1875-27.562 0-17.234-9.1875-27.516-9.1719-10.281-24.5-10.281-15.375 0-24.594 10.25-9.2031 10.266-9.2031 27.547t9.2031 27.562q9.2188 10.281 24.594 10.281z"/>
<path id="at" d="m8.5 21.578v33.109h8.9844v-32.766q0-7.7656 3.0156-11.656 3.0312-3.875 9.0938-3.875 7.2656 0 11.484 4.6406 4.2344 4.6406 4.2344 12.656v31h8.9844v-54.688h-8.9844v8.4062q-3.2656-4.9844-7.5938-7.4062-4.3125-2.4219-10.031-2.4219-9.4219 0-14.312 5.8594-4.875 5.8594-4.875 17.141z"/>
</defs>
<g transform="translate(1080 842.76) scale(.1 -.1)">
<use xlink:href="#aw"/>
<use x="78.710938" xlink:href="#at"/>
<use x="142.089844" xlink:href="#m"/>
<use x="181.298828" xlink:href="#t"/>
<use x="233.398438" xlink:href="#m"/>
<use x="272.607422" xlink:href="#d"/>
<use x="333.886719" xlink:href="#f"/>
<use x="397.265625" xlink:href="#u"/>
<use x="460.742188" xlink:href="#i"/>
<use x="488.525391" xlink:href="#f"/>
<use x="551.904297" xlink:href="#ac"/>
</g>
</g>
<g clip-path="url(#a)">
<defs>
<path id="ay" d="m32.172-5.0781q-3.7969-9.7656-7.4219-12.734-3.6094-2.9844-9.6562-2.9844h-7.1875v7.5156h5.2812q3.7031 0 5.75 1.7656 2.0625 1.75 4.5469 8.2969l1.6094 4.0938-22.109 53.812h9.5156l17.094-42.766 17.094 42.766h9.5156z"/>
</defs>
<g transform="translate(1169.6 842.76) scale(.1 -.1)">
<use xlink:href="#s"/>
<use x="60.302734" xlink:href="#h"/>
<use x="88.085938" xlink:href="#d"/>
<use x="149.365234" xlink:href="#ay"/>
<use x="208.544922" xlink:href="#e"/>
<use x="270.068359" xlink:href="#j"/>
</g>
</g>
<g clip-path="url(#a)">
<g transform="translate(1257.4 842.76) scale(.1 -.1)">
<use xlink:href="#r"/>
<use x="61.181641" xlink:href="#au"/>
</g>
</g>
<g clip-path="url(#a)">
<g transform="translate(1333.6 842.76) scale(.1 -.1)">
<use xlink:href="#m"/>
<use x="39.208984" xlink:href="#v"/>
<use x="102.587891" xlink:href="#e"/>
</g>
</g>
<g clip-path="url(#a)">
<g transform="translate(1412.4 842.76) scale(.1 -.1)">
<use xlink:href="#x"/>
<use x="50.269531" xlink:href="#i"/>
<use x="78.052734" xlink:href="#f"/>
<use x="141.431641" xlink:href="#d"/>
<use x="202.710938" xlink:href="#h"/>
</g>
</g>
<g clip-path="url(#a)">
<g transform="translate(1497.7 842.76) scale(.1 -.1)">
<use xlink:href="#x"/>
<use x="53.894531" xlink:href="#r"/>
<use x="115.076172" xlink:href="#at"/>
<use x="178.455078" xlink:href="#j"/>
</g>
</g>
<g clip-path="url(#a)">
<defs>
<path id="g" d="m10.688 12.406h10.312v-12.406h-10.312z"/>
</defs>
<g transform="translate(1594.4 842.76) scale(.1 -.1)">
<use xlink:href="#g"/>
</g>
</g>
<g clip-path="url(#a)">
<defs>
<path id="c" d="m12.406 8.2969h16.109v55.625l-17.531-3.5156v8.9844l17.438 3.5156h9.8594v-64.609h16.109v-8.2969h-41.984z"/>
</defs>
<g transform="translate(486.47 42.759) scale(.1 -.1)">
<use xlink:href="#c"/>
<use x="63.623047" xlink:href="#g"/>
<use x="95.410156" xlink:href="#c"/>
</g>
</g>
<g clip-path="url(#a)">
<defs>
<path id="n" d="m19.188 8.2969h34.422v-8.2969h-46.281v8.2969q5.6094 5.8125 15.297 15.594 9.7031 9.7969 12.188 12.641 4.7344 5.3125 6.6094 9 1.8906 3.6875 1.8906 7.25 0 5.8125-4.0781 9.4688-4.0781 3.6719-10.625 3.6719-4.6406 0-9.7969-1.6094-5.1406-1.6094-11-4.8906v9.9688q5.9531 2.3906 11.125 3.6094 5.1875 1.2188 9.4844 1.2188 11.328 0 18.062-5.6719 6.7344-5.6562 6.7344-15.125 0-4.5-1.6875-8.5312-1.6719-4.0156-6.125-9.4844-1.2188-1.4219-7.7656-8.1875-6.5312-6.7656-18.453-18.922z"/>
</defs>
<g transform="translate(68.048 685.31) scale(.1 -.1)">
<use xlink:href="#c"/>
<use x="63.623047" xlink:href="#g"/>
<use x="95.410156" xlink:href="#n"/>
</g>
</g>
<g clip-path="url(#a)">
<defs>
<path id="o" d="m40.578 39.312q7.0781-1.5156 11.047-6.3125 3.9844-4.7812 3.9844-11.812 0-10.781-7.4219-16.703-7.4219-5.9062-21.094-5.9062-4.5781 0-9.4375 0.90625t-10.031 2.7188v9.5156q4.0938-2.3906 8.9688-3.6094 4.8906-1.2188 10.219-1.2188 9.2656 0 14.125 3.6562t4.8594 10.641q0 6.4531-4.5156 10.078-4.5156 3.6406-12.562 3.6406h-8.5v8.1094h8.8906q7.2656 0 11.125 2.9062t3.8594 8.375q0 5.6094-3.9844 8.6094-3.9688 3.0156-11.391 3.0156-4.0625 0-8.7031-0.89062-4.6406-0.875-10.203-2.7188v8.7812q5.625 1.5625 10.531 2.3438t9.25 0.78125q11.234 0 17.766-5.1094 6.5469-5.0938 6.5469-13.781 0-6.0625-3.4688-10.234t-9.8594-5.7812z"/>
</defs>
<g transform="translate(152.89 204.19) scale(.1 -.1)">
<use xlink:href="#c"/>
<use x="63.623047" xlink:href="#g"/>
<use x="95.410156" xlink:href="#o"/>
</g>
</g>
<g clip-path="url(#a)">
<g transform="translate(458.85 365.21) scale(.1 -.1)">
<use xlink:href="#c"/>
<use x="63.623047" xlink:href="#g"/>
<use x="95.410156" xlink:href="#p"/>
</g>
</g>
<g clip-path="url(#a)">
<g transform="translate(768.99 685.31) scale(.1 -.1)">
<use xlink:href="#c"/>
<use x="63.623047" xlink:href="#g"/>
<use x="95.410156" xlink:href="#z"/>
</g>
</g>
<g clip-path="url(#a)">
<g transform="translate(952.58 204.19) scale(.1 -.1)">
<use xlink:href="#c"/>
<use x="63.623047" xlink:href="#g"/>
<use x="95.410156" xlink:href="#y"/>
</g>
</g>
<g clip-path="url(#a)">
<defs>
<path id="aa" d="m31.781 66.406q-7.6094 0-11.453-7.5-3.8281-7.4844-3.8281-22.531 0-14.984 3.8281-22.484 3.8438-7.5 11.453-7.5 7.6719 0 11.5 7.5 3.8438 7.5 3.8438 22.484 0 15.047-3.8438 22.531-3.8281 7.5-11.5 7.5zm0 7.8125q12.266 0 18.734-9.7031 6.4688-9.6875 6.4688-28.141 0-18.406-6.4688-28.109-6.4688-9.6875-18.734-9.6875-12.25 0-18.719 9.6875-6.4688 9.7031-6.4688 28.109 0 18.453 6.4688 28.141 6.4688 9.7031 18.719 9.7031z"/>
</defs>
<g transform="translate(827.43 685.31) scale(.1 -.1)">
<use xlink:href="#c"/>
<use x="63.623047" xlink:href="#g"/>
<use x="95.410156" xlink:href="#c"/>
<use x="159.033203" xlink:href="#aa"/>
</g>
</g>
<g clip-path="url(#a)">
<g transform="translate(891.62 685.31) scale(.1 -.1)">
<use xlink:href="#c"/>
<use x="63.623047" xlink:href="#g"/>
<use x="95.410156" xlink:href="#c"/>
<use x="159.033203" xlink:href="#c"/>
</g>
</g>
<g clip-path="url(#a)">
<g transform="translate(958.38 685.31) scale(.1 -.1)">
<use xlink:href="#c"/>
<use x="63.623047" xlink:href="#g"/>
<use x="95.410156" xlink:href="#c"/>
<use x="159.033203" xlink:href="#n"/>
</g>
</g>
<g clip-path="url(#a)">
<g transform="translate(1120.1 365.21) scale(.1 -.1)">
<use xlink:href="#c"/>
<use x="63.623047" xlink:href="#g"/>
<use x="95.410156" xlink:href="#c"/>
<use x="159.033203" xlink:href="#o"/>
</g>
</g>
<g clip-path="url(#a)">
<g transform="translate(1063.7 525.68) scale(.1 -.1)">
<use xlink:href="#c"/>
<use x="63.623047" xlink:href="#g"/>
<use x="95.410156" xlink:href="#c"/>
<use x="159.033203" xlink:href="#p"/>
</g>
</g>
<g clip-path="url(#a)">
<g transform="translate(1174.1 685.31) scale(.1 -.1)">
<use xlink:href="#c"/>
<use x="63.623047" xlink:href="#g"/>
<use x="95.410156" xlink:href="#c"/>
<use x="159.033203" xlink:href="#z"/>
</g>
</g>
<g clip-path="url(#a)">
<g transform="translate(1415.4 525.68) scale(.1 -.1)">
<use xlink:href="#c"/>
<use x="63.623047" xlink:href="#g"/>
<use x="95.410156" xlink:href="#c"/>
<use x="159.033203" xlink:href="#y"/>
</g>
</g>
<g clip-path="url(#a)">
<g transform="translate(1251.1 685.31) scale(.1 -.1)">
<use xlink:href="#c"/>
<use x="63.623047" xlink:href="#g"/>
<use x="95.410156" xlink:href="#c"/>
<use x="159.033203" xlink:href="#aj"/>
</g>
</g>
<g clip-path="url(#a)">
<defs>
<path id="ai" d="m31.781 34.625q-7.0312 0-11.062-3.7656-4.0156-3.7656-4.0156-10.344 0-6.5938 4.0156-10.359 4.0312-3.7656 11.062-3.7656t11.078 3.7812q4.0625 3.7969 4.0625 10.344 0 6.5781-4.0312 10.344-4.0156 3.7656-11.109 3.7656zm-9.8594 4.1875q-6.3438 1.5625-9.8906 5.9062-3.5312 4.3594-3.5312 10.609 0 8.7344 6.2188 13.812 6.2344 5.0781 17.062 5.0781 10.891 0 17.094-5.0781t6.2031-13.812q0-6.25-3.5469-10.609-3.5312-4.3438-9.8281-5.9062 7.125-1.6562 11.094-6.5 3.9844-4.8281 3.9844-11.797 0-10.609-6.4688-16.281-6.4688-5.6562-18.531-5.6562-12.047 0-18.531 5.6562-6.4688 5.6719-6.4688 16.281 0 6.9688 4 11.797 4.0156 4.8438 11.141 6.5zm-3.6094 15.578q0-5.6562 3.5312-8.8281 3.5469-3.1719 9.9375-3.1719 6.3594 0 9.9375 3.1719 3.5938 3.1719 3.5938 8.8281 0 5.6719-3.5938 8.8438-3.5781 3.1719-9.9375 3.1719-6.3906 0-9.9375-3.1719-3.5312-3.1719-3.5312-8.8438z"/>
</defs>
<g transform="translate(1330.7 685.31) scale(.1 -.1)">
<use xlink:href="#c"/>
<use x="63.623047" xlink:href="#g"/>
<use x="95.410156" xlink:href="#c"/>
<use x="159.033203" xlink:href="#ai"/>
</g>
</g>
<g clip-path="url(#a)">
<defs>
<path id="ah" d="m10.984 1.5156v8.9844q3.7188-1.7656 7.5156-2.6875 3.8125-0.92188 7.4844-0.92188 9.7656 0 14.906 6.5625 5.1562 6.5625 5.8906 19.953-2.8281-4.2031-7.1875-6.4531-4.3438-2.25-9.6094-2.25-10.938 0-17.312 6.6094-6.375 6.625-6.375 18.109 0 11.219 6.6406 18 6.6406 6.7969 17.672 6.7969 12.656 0 19.312-9.7031 6.6719-9.6875 6.6719-28.141 0-17.234-8.1875-27.516-8.1719-10.281-21.984-10.281-3.7188 0-7.5312 0.73438-3.7969 0.73438-7.9062 2.2031zm19.625 30.906q6.6406 0 10.516 4.5312 3.8906 4.5469 3.8906 12.469 0 7.8594-3.8906 12.422-3.875 4.5625-10.516 4.5625t-10.516-4.5625-3.875-12.422q0-7.9219 3.875-12.469 3.875-4.5312 10.516-4.5312z"/>
</defs>
<g transform="translate(1412.8 685.31) scale(.1 -.1)">
<use xlink:href="#c"/>
<use x="63.623047" xlink:href="#g"/>
<use x="95.410156" xlink:href="#c"/>
<use x="159.033203" xlink:href="#ah"/>
</g>
</g>
<g clip-path="url(#a)">
<g transform="translate(1497.6 685.31) scale(.1 -.1)">
<use xlink:href="#c"/>
<use x="63.623047" xlink:href="#g"/>
<use x="95.410156" xlink:href="#n"/>
<use x="159.033203" xlink:href="#aa"/>
</g>
</g>
<g clip-path="url(#a)">
<g transform="translate(1027.7 685.31) scale(.1 -.1)">
<use xlink:href="#c"/>
<use x="63.623047" xlink:href="#g"/>
<use x="95.410156" xlink:href="#n"/>
<use x="159.033203" xlink:href="#c"/>
</g>
</g>
<g clip-path="url(#a)">
<g transform="translate(1099.6 685.31) scale(.1 -.1)">
<use xlink:href="#c"/>
<use x="63.623047" xlink:href="#g"/>
<use x="95.410156" xlink:href="#n"/>
<use x="159.033203" xlink:href="#n"/>
</g>
</g>
<g clip-path="url(#a)">
<g transform="translate(346.02 685.31) scale(.1 -.1)">
<use xlink:href="#c"/>
<use x="63.623047" xlink:href="#g"/>
<use x="95.410156" xlink:href="#n"/>
<use x="159.033203" xlink:href="#o"/>
</g>
</g>
<g clip-path="url(#a)">
<g transform="translate(406.35 685.31) scale(.1 -.1)">
<use xlink:href="#c"/>
<use x="63.623047" xlink:href="#g"/>
<use x="95.410156" xlink:href="#n"/>
<use x="159.033203" xlink:href="#p"/>
</g>
</g>
<g clip-path="url(#a)">
<g transform="translate(473.11 685.31) scale(.1 -.1)">
<use xlink:href="#c"/>
<use x="63.623047" xlink:href="#g"/>
<use x="95.410156" xlink:href="#n"/>
<use x="159.033203" xlink:href="#z"/>
</g>
</g>
<g clip-path="url(#a)">
<g transform="translate(597.21 525.68) scale(.1 -.1)">
<use xlink:href="#c"/>
<use x="63.623047" xlink:href="#g"/>
<use x="95.410156" xlink:href="#n"/>
<use x="159.033203" xlink:href="#y"/>
</g>
</g>
<g clip-path="url(#a)">
<g transform="translate(77.705 685.31) scale(.1 -.1)">
<use xlink:href="#c"/>
<use x="63.623047" xlink:href="#g"/>
<use x="95.410156" xlink:href="#n"/>
<use x="159.033203" xlink:href="#ai"/>
</g>
</g>
<g clip-path="url(#a)">
<g transform="translate(173.35 365.21) scale(.1 -.1)">
<use xlink:href="#c"/>
<use x="63.623047" xlink:href="#g"/>
<use x="95.410156" xlink:href="#n"/>
<use x="159.033203" xlink:href="#ah"/>
</g>
</g>
<g clip-path="url(#a)">
<g transform="translate(111.08 685.31) scale(.1 -.1)">
<use xlink:href="#c"/>
<use x="63.623047" xlink:href="#g"/>
<use x="95.410156" xlink:href="#o"/>
<use x="159.033203" xlink:href="#aa"/>
</g>
</g>
<g clip-path="url(#a)">
<g transform="translate(149.6 685.31) scale(.1 -.1)">
<use xlink:href="#c"/>
<use x="63.623047" xlink:href="#g"/>
<use x="95.410156" xlink:href="#o"/>
<use x="159.033203" xlink:href="#c"/>
</g>
</g>
<g clip-path="url(#a)">
<g transform="translate(257.43 685.31) scale(.1 -.1)">
<use xlink:href="#c"/>
<use x="63.623047" xlink:href="#g"/>
<use x="95.410156" xlink:href="#o"/>
<use x="159.033203" xlink:href="#n"/>
</g>
</g>
<g clip-path="url(#a)">
<g transform="translate(161.15 525.68) scale(.1 -.1)">
<use xlink:href="#c"/>
<use x="63.623047" xlink:href="#g"/>
<use x="95.410156" xlink:href="#o"/>
<use x="159.033203" xlink:href="#p"/>
</g>
</g>
<g clip-path="url(#a)">
<g transform="translate(185.54 525.68) scale(.1 -.1)">
<use xlink:href="#c"/>
<use x="63.623047" xlink:href="#g"/>
<use x="95.410156" xlink:href="#o"/>
<use x="159.033203" xlink:href="#z"/>
</g>
</g>
<g clip-path="url(#a)">
<g transform="translate(172.71 685.31) scale(.1 -.1)">
<use xlink:href="#c"/>
<use x="63.623047" xlink:href="#g"/>
<use x="95.410156" xlink:href="#o"/>
<use x="159.033203" xlink:href="#y"/>
</g>
</g>
<g clip-path="url(#a)">
<g transform="translate(198.38 685.31) scale(.1 -.1)">
<use xlink:href="#c"/>
<use x="63.623047" xlink:href="#g"/>
<use x="95.410156" xlink:href="#o"/>
<use x="159.033203" xlink:href="#aj"/>
</g>
</g>
<g clip-path="url(#a)">
<g transform="translate(95.678 685.31) scale(.1 -.1)">
<use xlink:href="#c"/>
<use x="63.623047" xlink:href="#g"/>
<use x="95.410156" xlink:href="#o"/>
<use x="159.033203" xlink:href="#ai"/>
</g>
</g>
<g clip-path="url(#a)">
<g transform="translate(226.62 685.31) scale(.1 -.1)">
<use xlink:href="#c"/>
<use x="63.623047" xlink:href="#g"/>
<use x="95.410156" xlink:href="#o"/>
<use x="159.033203" xlink:href="#ah"/>
</g>
</g>
<g clip-path="url(#a)">
<g transform="translate(129.06 685.31) scale(.1 -.1)">
<use xlink:href="#c"/>
<use x="63.623047" xlink:href="#g"/>
<use x="95.410156" xlink:href="#p"/>
<use x="159.033203" xlink:href="#aa"/>
</g>
</g>
<g clip-path="url(#a)">
<g transform="translate(290.81 685.31) scale(.1 -.1)">
<use xlink:href="#c"/>
<use x="63.623047" xlink:href="#g"/>
<use x="95.410156" xlink:href="#p"/>
<use x="159.033203" xlink:href="#c"/>
</g>
</g>
<g clip-path="url(#a)">
<g transform="translate(596.35 685.31) scale(.1 -.1)">
<use xlink:href="#c"/>
<use x="63.623047" xlink:href="#g"/>
<use x="95.410156" xlink:href="#p"/>
<use x="159.033203" xlink:href="#n"/>
</g>
</g>
<g clip-path="url(#a)">
<g transform="translate(706.76 685.31) scale(.1 -.1)">
<use xlink:href="#c"/>
<use x="63.623047" xlink:href="#g"/>
<use x="95.410156" xlink:href="#p"/>
<use x="159.033203" xlink:href="#o"/>
</g>
</g>
<g clip-path="url(#a)">
<g transform="translate(1584.9 685.31) scale(.1 -.1)">
<use xlink:href="#c"/>
<use x="63.623047" xlink:href="#g"/>
<use x="95.410156" xlink:href="#p"/>
<use x="159.033203" xlink:href="#p"/>
</g>
</g>
<defs>
<clipPath id="a">
<rect width="1672" height="880"/>
</clipPath>
</defs>
</svg>
