<?xml version="1.0" encoding="UTF-8"?>
<!DOCTYPE svg  PUBLIC '-//W3C//DTD SVG 1.1//EN'  'http://www.w3.org/Graphics/SVG/1.1/DTD/svg11.dtd'>
<svg width="2077.3pt" height="1093.3pt" version="1.1" viewBox="0 0 2077.3 1093.3" xmlns="http://www.w3.org/2000/svg" xmlns:xlink="http://www.w3.org/1999/xlink">
<defs>
<style type="text/css">*{stroke-linecap:butt;stroke-linejoin:round;}</style>
</defs>
<path d="m0 1093.3h2077.3v-1093.3h-2077.3z" fill="#fff"/>
<g fill="none" stroke="#000">
<path d="m509.36 49.697-414.94 831.22" clip-path="url(#a)"/>
<path d="m509.36 49.697-386.12 333.99" clip-path="url(#a)"/>
<path d="m509.36 49.697-274.16 333.99" clip-path="url(#a)"/>
<path d="m509.36 49.697-57.319 831.22" clip-path="url(#a)"/>
<path d="m509.36 49.697 259.83 333.99" clip-path="url(#a)"/>
<path d="m509.36 49.697 622.37 831.22" clip-path="url(#a)"/>
<path d="m509.36 49.697 684.95 167.17" clip-path="url(#a)"/>
<path d="m509.36 49.697-339.65 831.22" clip-path="url(#a)"/>
<path d="m509.36 49.697-94.963 831.22" clip-path="url(#a)"/>
<path d="m94.424 880.92v162.71" clip-path="url(#a)"/>
<path d="m123.24 383.69 29.744 166.41" clip-path="url(#a)"/>
<path d="m123.24 383.69 29.744 166.41" clip-path="url(#a)"/>
<path d="m123.24 383.69v166.41" clip-path="url(#a)"/>
<path d="m235.2 383.69-46.668 497.23" clip-path="url(#a)"/>
<path d="m235.2 383.69-14.252 497.23" clip-path="url(#a)"/>
<path d="m235.2 383.69 60.92 166.41" clip-path="url(#a)"/>
<path d="m452.04 880.92v162.71" clip-path="url(#a)"/>
<path d="m769.2 383.69-222.52 166.41" clip-path="url(#a)"/>
<path d="m769.2 383.69 4.9147 497.23" clip-path="url(#a)"/>
<path d="m769.2 383.69 59.29 497.23" clip-path="url(#a)"/>
<path d="m769.2 383.69 205.68 332.25" clip-path="url(#a)"/>
<path d="m769.2 383.69-47.369 497.23" clip-path="url(#a)"/>
<path d="m1131.7 880.92v162.71" clip-path="url(#a)"/>
<path d="m1194.3 216.86 4.3376 664.06" clip-path="url(#a)"/>
<path d="m1194.3 216.86 415.87 166.83" clip-path="url(#a)"/>
<path d="m1194.3 216.86-420.21 664.06" clip-path="url(#a)" stroke-dasharray="3.7,1.6"/>
<path d="m1198.7 880.92v162.71" clip-path="url(#a)"/>
<path d="m1610.2 383.69-342.52 497.23" clip-path="url(#a)"/>
<path d="m1610.2 383.69-271.41 497.23" clip-path="url(#a)"/>
<path d="m1610.2 383.69-160.57 497.23" clip-path="url(#a)"/>
<path d="m1610.2 383.69 116.88 166.41" clip-path="url(#a)"/>
<path d="m1610.2 383.69 284.89 497.23" clip-path="url(#a)"/>
<path d="m1610.2 383.69 372.72 497.23" clip-path="url(#a)"/>
<path d="m1267.7 880.92v162.71" clip-path="url(#a)"/>
<path d="m1338.8 880.92v162.71" clip-path="url(#a)"/>
<path d="m1449.6 880.92-37.644 162.71" clip-path="url(#a)"/>
<path d="m1449.6 880.92 37.644 162.71" clip-path="url(#a)"/>
<path d="m1727.1 550.1-82.26 165.84" clip-path="url(#a)"/>
<path d="m1727.1 550.1 82.26 330.82" clip-path="url(#a)"/>
<path d="m1895.1 880.92v162.71" clip-path="url(#a)"/>
<path d="m1644.8 715.94-80.168 327.69" clip-path="url(#a)"/>
<path d="m1644.8 715.94 80.865 327.69" clip-path="url(#a)"/>
<path d="m1644.8 715.94-0.69712 164.98" clip-path="url(#a)"/>
<path d="m1809.3 880.92v162.71" clip-path="url(#a)"/>
<path d="m546.68 550.1-54.898 330.82" clip-path="url(#a)"/>
<path d="m546.68 550.1 54.898 165.84" clip-path="url(#a)"/>
<path d="m774.11 880.92v162.71" clip-path="url(#a)"/>
<path d="m828.49 880.92v162.71" clip-path="url(#a)"/>
<path d="m974.88 715.94-89.928 164.98" clip-path="url(#a)"/>
<path d="m974.88 715.94-31.37 164.98" clip-path="url(#a)"/>
<path d="m974.88 715.94 29.279 164.98" clip-path="url(#a)"/>
<path d="m974.88 715.94 92.019 164.98" clip-path="url(#a)"/>
<path d="m884.95 880.92v162.71" clip-path="url(#a)"/>
<path d="m943.51 880.92v162.71" clip-path="url(#a)"/>
<path d="m1004.2 880.92v162.71" clip-path="url(#a)"/>
<path d="m1066.9 880.92v162.71" clip-path="url(#a)"/>
<path d="m491.78 880.92v162.71" clip-path="url(#a)"/>
<path d="m601.58 715.94-67.969 327.69" clip-path="url(#a)"/>
<path d="m601.58 715.94-24.05 327.69" clip-path="url(#a)"/>
<path d="m601.58 715.94 70.06 327.69" clip-path="url(#a)"/>
<path d="m601.58 715.94 21.959 164.98" clip-path="url(#a)"/>
<path d="m188.53 880.92v162.71" clip-path="url(#a)"/>
<path d="m220.95 880.92-11.502 162.71" clip-path="url(#a)"/>
<path d="m220.95 880.92 11.502 162.71" clip-path="url(#a)"/>
<path d="m296.12 550.1-38.574 330.82" clip-path="url(#a)"/>
<path d="m296.12 550.1-11.386 330.82" clip-path="url(#a)"/>
<path d="m296.12 550.1 49.96 165.84" clip-path="url(#a)"/>
<path d="m257.55 880.92v162.71" clip-path="url(#a)"/>
<path d="m284.74 880.92v162.71" clip-path="url(#a)"/>
<path d="m346.08 715.94-32.067 164.98" clip-path="url(#a)"/>
<path d="m346.08 715.94-0.69712 164.98" clip-path="url(#a)"/>
<path d="m346.08 715.94 32.764 164.98" clip-path="url(#a)"/>
<path d="m314.02 880.92v162.71" clip-path="url(#a)"/>
<path d="m345.39 880.92v162.71" clip-path="url(#a)"/>
<path d="m378.85 880.92v162.71" clip-path="url(#a)"/>
<path d="m123.24 550.1-22.54 330.82" clip-path="url(#a)"/>
<path d="m123.24 550.1-3.0208 165.84" clip-path="url(#a)"/>
<path d="m123.24 550.1 25.561 330.82" clip-path="url(#a)"/>
<path d="m100.7 880.92v162.71" clip-path="url(#a)"/>
<path d="m120.22 715.94 13.942 164.98" clip-path="url(#a)"/>
<path d="m120.22 715.94-11.154 164.98" clip-path="url(#a)"/>
<path d="m120.22 715.94 11.851 164.98" clip-path="url(#a)"/>
<path d="m120.22 715.94-0.69712 164.98" clip-path="url(#a)"/>
<path d="m148.8 880.92v162.71" clip-path="url(#a)"/>
<path d="m109.06 880.92v162.71" clip-path="url(#a)"/>
<path d="m132.07 880.92v162.71" clip-path="url(#a)"/>
<path d="m119.52 880.92v162.71" clip-path="url(#a)"/>
<path d="m169.71 880.92v162.71" clip-path="url(#a)"/>
<path d="m414.4 880.92v162.71" clip-path="url(#a)"/>
<path d="m623.53 880.92v162.71" clip-path="url(#a)"/>
<path d="m721.83 880.92v162.71" clip-path="url(#a)"/>
<path d="m1644.1 880.92v162.71" clip-path="url(#a)"/>
<path d="m1982.9 880.92v162.71" clip-path="url(#a)"/>
</g>
<path d="m306.51 470.1 1.9909-3.9882q1.0719-2.1473-1.0754-3.2192l-6.9273-3.4581q-2.1473-1.0719-3.2192 1.0754l-1.9909 3.9882q-1.0719 2.1473 1.0754 3.2192l6.9273 3.4581q2.1473 1.0719 3.2192-1.0754z" clip-path="url(#a)" fill="#fff" stroke="#fff"/>
<g clip-path="url(#a)">
<defs>
<path id="ac" d="m9.8125 72.906h9.8594v-64.609h35.5v-8.2969h-45.359z"/>
</defs>
<g transform="translate(302.87 468.29) rotate(-63.472) scale(.08 -.08)">
<use xlink:href="#ac"/>
</g>
</g>
<path d="m318.13 223.41 4.5502-3.9359q1.8152-1.5701 0.24506-3.3853l-5.0652-5.8558q-1.5701-1.8152-3.3853-0.24506l-4.5502 3.9359q-1.8152 1.5701-0.24506 3.3853l5.0652 5.8558q1.5701 1.8152 3.3853 0.24506z" clip-path="url(#a)" fill="#fff" stroke="#fff"/>
<g clip-path="url(#a)">
<defs>
<path id="ad" d="m9.8125 72.906h9.8594v-29.891h35.844v29.891h9.8594v-72.906h-9.8594v34.719h-35.844v-34.719h-9.8594z"/>
</defs>
<g transform="translate(315.47 220.33) rotate(-40.86) scale(.08 -.08)">
<use xlink:href="#ad"/>
</g>
</g>
<path d="m375.22 223 3.8172-4.6502q1.5227-1.8551-0.33233-3.3778l-5.9845-4.9124q-1.8551-1.5227-3.3778 0.33233l-3.8172 4.6502q-1.5227 1.8551 0.33233 3.3778l5.9845 4.9124q1.8551 1.5227 3.3778-0.33233z" clip-path="url(#a)" fill="#fff" stroke="#fff"/>
<g clip-path="url(#a)">
<g transform="translate(372.08 220.42) rotate(-50.619) scale(.08 -.08)">
<use xlink:href="#ad"/>
</g>
</g>
<path d="m486.81 467.96 0.30665-4.4469q0.1651-2.3943-2.2292-2.5594l-7.7242-0.53264q-2.3943-0.1651-2.5594 2.2292l-0.30665 4.4469q-0.1651 2.3943 2.2292 2.5594l7.7242 0.53264q2.3943 0.1651 2.5594-2.2292z" clip-path="url(#a)" fill="#fff" stroke="#fff"/>
<g clip-path="url(#a)">
<g transform="translate(482.75 467.68) rotate(-86.055) scale(.08 -.08)">
<use xlink:href="#ac"/>
</g>
</g>
<path d="m632.48 218.17 3.6942 4.7485q1.4737 1.8943 3.368 0.42061l6.111-4.7541q1.8943-1.4737 0.42061-3.368l-3.6942-4.7485q-1.4737-1.8943-3.368-0.42061l-6.111 4.7541q-1.8943 1.4737-0.42061 3.368z" clip-path="url(#a)" fill="#fff" stroke="#fff"/>
<g clip-path="url(#a)">
<g transform="translate(635.69 215.68) rotate(52.119) scale(.08 -.08)">
<use xlink:href="#ad"/>
</g>
</g>
<path d="m814.19 467.28 2.6716 3.5682q1.4384 1.9212 3.3596 0.48272l6.1978-4.6405q1.9212-1.4384 0.48272-3.3596l-2.6716-3.5682q-1.4384-1.9212-3.3596-0.48272l-6.1978 4.6405q-1.9212 1.4384-0.48272 3.3596z" clip-path="url(#a)" fill="#fff" stroke="#fff"/>
<g clip-path="url(#a)">
<g transform="translate(817.44 464.85) rotate(53.176) scale(.08 -.08)">
<use xlink:href="#ac"/>
</g>
</g>
<path d="m847.43 138.66 5.8447 1.4264q2.3316 0.56903 2.9006-1.7625l1.8357-7.5217q0.56903-2.3316-1.7625-2.9006l-5.8447-1.4264q-2.3316-0.56903-2.9006 1.7625l-1.8357 7.5217q-0.56903 2.3316 1.7625 2.9006z" clip-path="url(#a)" fill="#fff" stroke="#fff"/>
<g clip-path="url(#a)">
<g transform="translate(848.39 134.71) rotate(13.715) scale(.08 -.08)">
<use xlink:href="#ad"/>
</g>
</g>
<path d="m344.24 470.39 2.2147-5.42q0.90781-2.2217-1.3139-3.1295l-7.1672-2.9286q-2.2217-0.90781-3.1295 1.3139l-2.2147 5.42q-0.90781 2.2217 1.3139 3.1295l7.1672 2.9286q2.2217 0.90781 3.1295-1.3139z" clip-path="url(#a)" fill="#fff" stroke="#fff"/>
<g clip-path="url(#a)">
<defs>
<path id="y" d="m8.6875 72.906h9.9219v-44.297q0-11.719 4.2344-16.875 4.25-5.1406 13.781-5.1406 9.4688 0 13.719 5.1406 4.25 5.1562 4.25 16.875v44.297h9.9062v-45.516q0-14.25-7.0625-21.531-7.0469-7.2812-20.812-7.2812-13.828 0-20.891 7.2812-7.0469 7.2812-7.0469 21.531z"/>
</defs>
<g transform="translate(340.47 468.85) rotate(-67.774) scale(.08 -.08)">
<use xlink:href="#y"/>
</g>
</g>
<path d="m467.78 468.93 0.66458-5.8172q0.27242-2.3845-2.1121-2.6569l-7.6925-0.87882q-2.3845-0.27242-2.6569 2.1121l-0.66458 5.8172q-0.27242 2.3845 2.1121 2.6569l7.6925 0.87882q2.3845 0.27242 2.6569-2.1121z" clip-path="url(#a)" fill="#fff" stroke="#fff"/>
<g clip-path="url(#a)">
<g transform="translate(463.74 468.47) rotate(-83.483) scale(.08 -.08)">
<use xlink:href="#y"/>
</g>
</g>
<path d="m88.153 945.38v33.808q0 2.4 2.4 2.4h7.7425q2.4 0 2.4-2.4v-33.808q0-2.4-2.4-2.4h-7.7425q-2.4 0-2.4 2.4z" clip-path="url(#a)" fill="#fff" stroke="#fff"/>
<g clip-path="url(#a)">
<defs>
<path id="i" d="m-0.29688 72.906h61.672v-8.3125h-25.875v-64.594h-9.9062v64.594h-25.891z"/>
<path id="d" d="m56.203 29.594v-4.3906h-41.312q0.59375-9.2812 5.5938-14.141t13.938-4.8594q5.1719 0 10.031 1.2656t9.6562 3.8125v-8.5q-4.8438-2.0469-9.9219-3.125t-10.297-1.0781q-13.094 0-20.734 7.6094-7.6406 7.625-7.6406 20.625 0 13.422 7.25 21.297 7.25 7.8906 19.562 7.8906 11.031 0 17.453-7.1094 6.4219-7.0938 6.4219-19.297zm-8.9844 2.6406q-0.09375 7.3594-4.125 11.75-4.0312 4.4062-10.672 4.4062-7.5156 0-12.031-4.25t-5.2031-11.969z"/>
<path id="h" d="m41.109 46.297q-1.5156 0.875-3.2969 1.2812-1.7812 0.42188-3.9219 0.42188-7.625 0-11.703-4.9531t-4.0781-14.234v-28.812h-9.0312v54.688h9.0312v-8.5q2.8438 4.9844 7.375 7.3906 4.5469 2.4219 11.047 2.4219 0.92188 0 2.0469-0.125 1.125-0.10938 2.4844-0.35938z"/>
<path id="l" d="m52 44.188q3.375 6.0625 8.0625 8.9375t11.031 2.875q8.5469 0 13.188-5.9844 4.6406-5.9688 4.6406-17v-33.016h-9.0312v32.719q0 7.8594-2.7969 11.656-2.7812 3.8125-8.4844 3.8125-6.9844 0-11.047-4.6406-4.0469-4.625-4.0469-12.641v-30.906h-9.0312v32.719q0 7.9062-2.7812 11.688t-8.5938 3.7812q-6.8906 0-10.953-4.6562-4.0469-4.6562-4.0469-12.625v-30.906h-9.0312v54.688h9.0312v-8.5q3.0781 5.0312 7.375 7.4219t10.203 2.3906q5.9688 0 10.141-3.0312 4.1719-3.0156 6.1719-8.7812z"/>
<path id="k" d="m9.4219 54.688h8.9844v-54.688h-8.9844zm0 21.297h8.9844v-11.391h-8.9844z"/>
<path id="e" d="m54.891 33.016v-33.016h-8.9844v32.719q0 7.7656-3.0312 11.609-3.0312 3.8594-9.0781 3.8594-7.2812 0-11.484-4.6406-4.2031-4.625-4.2031-12.641v-30.906h-9.0312v54.688h9.0312v-8.5q3.2344 4.9375 7.5938 7.375 4.375 2.4375 10.094 2.4375 9.4219 0 14.25-5.8281 4.8438-5.8281 4.8438-17.156z"/>
<path id="f" d="m34.281 27.484q-10.891 0-15.094-2.4844t-4.2031-8.5q0-4.7812 3.1562-7.5938 3.1562-2.7969 8.5625-2.7969 7.4844 0 12 5.2969t4.5156 14.078v2zm17.922 3.7188v-31.203h-8.9844v8.2969q-3.0781-4.9688-7.6719-7.3438t-11.234-2.375q-8.3906 0-13.359 4.7188-4.9531 4.7188-4.9531 12.625 0 9.2188 6.1719 13.906 6.1875 4.6875 18.438 4.6875h12.609v0.89062q0 6.2031-4.0781 9.5938t-11.453 3.3906q-4.6875 0-9.1406-1.125-4.4375-1.125-8.5312-3.375v8.3125q4.9219 1.9062 9.5625 2.8438 4.6406 0.95312 9.0312 0.95312 11.875 0 17.734-6.1562 5.8594-6.1406 5.8594-18.641z"/>
<path id="j" d="m9.4219 75.984h8.9844v-75.984h-8.9844z"/>
</defs>
<g transform="translate(92.217 945.38) rotate(90) scale(.08 -.08)">
<use xlink:href="#i"/>
<use x="44.083984" xlink:href="#d"/>
<use x="105.607422" xlink:href="#h"/>
<use x="144.970703" xlink:href="#l"/>
<use x="242.382812" xlink:href="#k"/>
<use x="270.166016" xlink:href="#e"/>
<use x="333.544922" xlink:href="#f"/>
<use x="394.824219" xlink:href="#j"/>
</g>
</g>
<path d="m131.51 465.62 0.84874 4.7485q0.42228 2.3626 2.7848 1.9403l7.6217-1.3623q2.3626-0.42228 1.9403-2.7848l-0.84874-4.7485q-0.42228-2.3626-2.7848-1.9403l-7.6217 1.3623q-2.3626 0.42228-1.9403 2.7848z" clip-path="url(#a)" fill="#fff" stroke="#fff"/>
<g clip-path="url(#a)">
<defs>
<path id="v" d="m19.672 64.797v-27.391h12.406q6.8906 0 10.641 3.5625 3.7656 3.5625 3.7656 10.156 0 6.5469-3.7656 10.109-3.75 3.5625-10.641 3.5625zm-9.8594 8.1094h22.266q12.266 0 18.531-5.5469 6.2812-5.5469 6.2812-16.234 0-10.797-6.2812-16.312-6.2656-5.5156-18.531-5.5156h-12.406v-29.297h-9.8594z"/>
</defs>
<g transform="translate(135.51 464.91) rotate(79.866) scale(.08 -.08)">
<use xlink:href="#v"/>
</g>
</g>
<path d="m131.46 465.31 0.96289 5.3871q0.42228 2.3626 2.7848 1.9403l7.6217-1.3623q2.3626-0.42228 1.9403-2.7848l-0.96289-5.3871q-0.42228-2.3626-2.7848-1.9403l-7.6217 1.3623q-2.3626 0.42228-1.9403 2.7848z" clip-path="url(#a)" fill="#fff" stroke="#fff"/>
<g clip-path="url(#a)">
<defs>
<path id="t" d="m34.188 63.188-13.391-36.281h26.812zm-5.5781 9.7188h11.188l27.781-72.906h-10.25l-6.6406 18.703h-32.859l-6.6406-18.703h-10.406z"/>
</defs>
<g transform="translate(135.46 464.59) rotate(79.866) scale(.08 -.08)">
<use xlink:href="#t"/>
</g>
</g>
<path d="m116.97 464.45v4.8862q0 2.4 2.4 2.4h7.7425q2.4 0 2.4-2.4v-4.8862q0-2.4-2.4-2.4h-7.7425q-2.4 0-2.4 2.4z" clip-path="url(#a)" fill="#fff" stroke="#fff"/>
<g clip-path="url(#a)">
<g transform="translate(121.03 464.45) rotate(90) scale(.08 -.08)">
<use xlink:href="#i"/>
</g>
</g>
<path d="m217.86 635.62 0.51138-5.4486q0.22427-2.3895-2.1652-2.6138l-7.7086-0.7235q-2.3895-0.22427-2.6138 2.1652l-0.51138 5.4486q-0.22427 2.3895 2.1652 2.6138l7.7086 0.7235q2.3895 0.22427 2.6138-2.1652z" clip-path="url(#a)" fill="#fff" stroke="#fff"/>
<g clip-path="url(#a)">
<g transform="translate(213.81 635.24) rotate(-84.638) scale(.08 -.08)">
<use xlink:href="#t"/>
</g>
</g>
<path d="m234.28 634.9 0.13821-4.8218q0.068763-2.399-2.3303-2.4678l-7.7393-0.22183q-2.399-0.068763-2.4678 2.3303l-0.13821 4.8218q-0.068763 2.399 2.3303 2.4678l7.7393 0.22183q2.399 0.068763 2.4678-2.3303z" clip-path="url(#a)" fill="#fff" stroke="#fff"/>
<g clip-path="url(#a)">
<g transform="translate(230.21 634.78) rotate(-88.358) scale(.08 -.08)">
<use xlink:href="#v"/>
</g>
</g>
<path d="m258.83 466.48 1.8813 5.139q0.82506 2.2537 3.0788 1.4287l7.2706-2.6617q2.2537-0.82506 1.4287-3.0788l-1.8813-5.139q-0.82506-2.2537-3.0788-1.4287l-7.2706 2.6617q-2.2537 0.82506-1.4287 3.0788z" clip-path="url(#a)" fill="#fff" stroke="#fff"/>
<g clip-path="url(#a)">
<g transform="translate(262.65 465.08) rotate(69.893) scale(.08 -.08)">
<use xlink:href="#t"/>
</g>
</g>
<path d="m445.77 945.38v33.808q0 2.4 2.4 2.4h7.7425q2.4 0 2.4-2.4v-33.808q0-2.4-2.4-2.4h-7.7425q-2.4 0-2.4 2.4z" clip-path="url(#a)" fill="#fff" stroke="#fff"/>
<g clip-path="url(#a)">
<g transform="translate(449.84 945.38) rotate(90) scale(.08 -.08)">
<use xlink:href="#i"/>
<use x="44.083984" xlink:href="#d"/>
<use x="105.607422" xlink:href="#h"/>
<use x="144.970703" xlink:href="#l"/>
<use x="242.382812" xlink:href="#k"/>
<use x="270.166016" xlink:href="#e"/>
<use x="333.544922" xlink:href="#f"/>
<use x="394.824219" xlink:href="#j"/>
</g>
</g>
<path d="m659.74 473.38 3.9131-2.9263q1.922-1.4373 0.48466-3.3593l-4.6369-6.2004q-1.4373-1.922-3.3593-0.48466l-3.9131 2.9263q-1.922 1.4373-0.48466 3.3593l4.6369 6.2004q1.4373 1.922 3.3593 0.48466z" clip-path="url(#a)" fill="#fff" stroke="#fff"/>
<g clip-path="url(#a)">
<g transform="translate(657.3 470.13) rotate(-36.791) scale(.08 -.08)">
<use xlink:href="#i"/>
</g>
</g>
<path d="m765.36 629.63 0.054088 5.4722q0.02372 2.3999 2.4236 2.3762l7.7421-0.076524q2.3999-0.02372 2.3762-2.4236l-0.054088-5.4722q-0.02372-2.3999-2.4236-2.3762l-7.7421 0.076524q-2.3999 0.02372-2.3762 2.4236z" clip-path="url(#a)" fill="#fff" stroke="#fff"/>
<g clip-path="url(#a)">
<g transform="translate(769.42 629.59) rotate(89.434) scale(.08 -.08)">
<use xlink:href="#t"/>
</g>
</g>
<path d="m792.33 630.65 0.57114 4.7898q0.28416 2.3831 2.6673 2.099l7.688-0.91672q2.3831-0.28416 2.099-2.6673l-0.57114-4.7898q-0.28416-2.3831-2.6673-2.099l-7.688 0.91672q-2.3831 0.28416-2.099 2.6673z" clip-path="url(#a)" fill="#fff" stroke="#fff"/>
<g clip-path="url(#a)">
<g transform="translate(796.36 630.17) rotate(83.2) scale(.08 -.08)">
<use xlink:href="#v"/>
</g>
</g>
<path d="m865.27 550.79 2.8805 4.653q1.2633 2.0406 3.3039 0.77736l6.5831-4.0754q2.0406-1.2633 0.77736-3.3039l-2.8805-4.653q-1.2633-2.0406-3.3039-0.77736l-6.5831 4.0754q-2.0406 1.2633-0.77736 3.3039z" clip-path="url(#a)" fill="#fff" stroke="#fff"/>
<g clip-path="url(#a)">
<g transform="translate(868.72 548.65) rotate(58.24) scale(.08 -.08)">
<use xlink:href="#t"/>
</g>
</g>
<path d="m751.48 635.82 0.55527-5.8286q0.22761-2.3892-2.1616-2.6168l-7.7076-0.73427q-2.3892-0.22761-2.6168 2.1616l-0.55527 5.8286q-0.22761 2.3892 2.1616 2.6168l7.7076 0.73427q2.3892 0.22761 2.6168-2.1616z" clip-path="url(#a)" fill="#fff" stroke="#fff"/>
<g clip-path="url(#a)">
<g transform="translate(747.43 635.43) rotate(-84.558) scale(.08 -.08)">
<use xlink:href="#y"/>
</g>
</g>
<path d="m1125.5 945.38v33.808q0 2.4 2.4 2.4h7.7425q2.4 0 2.4-2.4v-33.808q0-2.4-2.4-2.4h-7.7425q-2.4 0-2.4 2.4z" clip-path="url(#a)" fill="#fff" stroke="#fff"/>
<g clip-path="url(#a)">
<g transform="translate(1129.5 945.38) rotate(90) scale(.08 -.08)">
<use xlink:href="#i"/>
<use x="44.083984" xlink:href="#d"/>
<use x="105.607422" xlink:href="#h"/>
<use x="144.970703" xlink:href="#l"/>
<use x="242.382812" xlink:href="#k"/>
<use x="270.166016" xlink:href="#e"/>
<use x="333.544922" xlink:href="#f"/>
<use x="394.824219" xlink:href="#j"/>
</g>
</g>
<path d="m1190.2 546.52 0.031508 4.8236q0.015676 2.3999 2.4156 2.3843l7.7423-0.050573q2.3999-0.015676 2.3843-2.4156l-0.031508-4.8236q-0.015676-2.3999-2.4156-2.3843l-7.7423 0.050573q-2.3999 0.015676-2.3843 2.4156z" clip-path="url(#a)" fill="#fff" stroke="#fff"/>
<g clip-path="url(#a)">
<g transform="translate(1194.3 546.49) rotate(89.626) scale(.08 -.08)">
<use xlink:href="#v"/>
</g>
</g>
<path d="m1397.4 305.08 5.0791 2.0375q2.2275 0.89356 3.121-1.3339l2.8827-7.1859q0.89356-2.2275-1.3339-3.121l-5.0791-2.0375q-2.2275-0.89356-3.121 1.3339l-2.8827 7.1859q-0.89356 2.2275 1.3339 3.121z" clip-path="url(#a)" fill="#fff" stroke="#fff"/>
<g clip-path="url(#a)">
<g transform="translate(1398.9 301.31) rotate(21.859) scale(.08 -.08)">
<use xlink:href="#t"/>
</g>
</g>
<path d="m988.05 554.56 2.9263-4.6244q1.2833-2.0281-0.74474-3.3114l-6.5426-4.1401q-2.0281-1.2833-3.3114 0.74474l-2.9263 4.6244q-1.2833 2.0281 0.74474 3.3114l6.5426 4.1401q2.0281 1.2833 3.3114-0.74474z" clip-path="url(#a)" fill="#fff" stroke="#fff"/>
<g clip-path="url(#a)">
<g transform="translate(984.62 552.38) rotate(-57.675) scale(.08 -.08)">
<use xlink:href="#t"/>
</g>
</g>
<path d="m1192.4 945.38v33.808q0 2.4 2.4 2.4h7.7425q2.4 0 2.4-2.4v-33.808q0-2.4-2.4-2.4h-7.7425q-2.4 0-2.4 2.4z" clip-path="url(#a)" fill="#fff" stroke="#fff"/>
<g clip-path="url(#a)">
<g transform="translate(1196.4 945.38) rotate(90) scale(.08 -.08)">
<use xlink:href="#i"/>
<use x="44.083984" xlink:href="#d"/>
<use x="105.607422" xlink:href="#h"/>
<use x="144.970703" xlink:href="#l"/>
<use x="242.382812" xlink:href="#k"/>
<use x="270.166016" xlink:href="#e"/>
<use x="333.544922" xlink:href="#f"/>
<use x="394.824219" xlink:href="#j"/>
</g>
</g>
<path d="m1442.5 638.15 3.1534-4.5778q1.3615-1.9765-0.61498-3.3379l-6.3761-4.3922q-1.9765-1.3615-3.3379 0.61498l-3.1534 4.5778q-1.3615 1.9765 0.61498 3.3379l6.3761 4.3922q1.9765 1.3615 3.3379-0.61498z" clip-path="url(#a)" fill="#fff" stroke="#fff"/>
<g clip-path="url(#a)">
<defs>
<path id="af" d="m44.391 34.188q3.1719-1.0781 6.1719-4.5938t6.0312-9.6719l10.016-19.922h-10.609l-9.3125 18.703q-3.625 7.3281-7.0156 9.7188t-9.25 2.3906h-10.75v-30.812h-9.8594v72.906h22.266q12.5 0 18.656-5.2344 6.1562-5.2188 6.1562-15.766 0-6.8906-3.2031-11.438-3.2031-4.5312-9.2969-6.2812zm-24.719 30.609v-25.875h12.406q7.125 0 10.766 3.2969t3.6406 9.6875-3.6406 9.6406-10.766 3.25z"/>
</defs>
<g transform="translate(1439.2 635.85) rotate(-55.439) scale(.08 -.08)">
<use xlink:href="#af"/>
</g>
</g>
<path d="m1478.8 637.53 2.4219-4.437q1.1499-2.1066-0.95673-3.2565l-6.796-3.7096q-2.1066-1.1499-3.2565 0.95673l-2.4219 4.437q-1.1499 2.1066 0.95673 3.2565l6.796 3.7096q2.1066 1.1499 3.2565-0.95673z" clip-path="url(#a)" fill="#fff" stroke="#fff"/>
<g clip-path="url(#a)">
<defs>
<path id="z" d="m9.8125 72.906h46.094v-8.3125h-36.234v-21.578h34.719v-8.2969h-34.719v-26.422h37.109v-8.2969h-46.969z"/>
</defs>
<g transform="translate(1475.2 635.58) rotate(-61.372) scale(.08 -.08)">
<use xlink:href="#z"/>
</g>
</g>
<path d="m1535.1 636.64 1.5534-4.8104q0.73752-2.2839-1.5463-3.0214l-7.3679-2.3793q-2.2839-0.73752-3.0214 1.5463l-1.5534 4.8104q-0.73752 2.2839 1.5463 3.0214l7.3679 2.3793q2.2839 0.73752 3.0214-1.5463z" clip-path="url(#a)" fill="#fff" stroke="#fff"/>
<g clip-path="url(#a)">
<g transform="translate(1531.2 635.39) rotate(-72.103) scale(.08 -.08)">
<use xlink:href="#z"/>
</g>
</g>
<path d="m1662 468.43 2.9055 4.1366q1.3795 1.964 3.3434 0.5845l6.3358-4.4502q1.964-1.3795 0.5845-3.3434l-2.9055-4.1366q-1.3795-1.964-3.3434-0.5845l-6.3358 4.4502q-1.964 1.3795-0.5845 3.3434z" clip-path="url(#a)" fill="#fff" stroke="#fff"/>
<g clip-path="url(#a)">
<g transform="translate(1665.4 466.1) rotate(54.916) scale(.08 -.08)">
<use xlink:href="#z"/>
</g>
</g>
<path d="m1745.8 633 2.7771 4.847q1.1931 2.0824 3.2755 0.8893l6.718-3.8491q2.0824-1.1931 0.8893-3.2755l-2.7771-4.847q-1.1931-2.0824-3.2755-0.8893l-6.718 3.8491q-2.0824 1.1931-0.8893 3.2755z" clip-path="url(#a)" fill="#fff" stroke="#fff"/>
<g clip-path="url(#a)">
<defs>
<path id="p" d="m64.406 67.281v-10.391q-4.9844 4.6406-10.625 6.9219-5.6406 2.2969-11.984 2.2969-12.5 0-19.141-7.6406t-6.6406-22.094q0-14.406 6.6406-22.047t19.141-7.6406q6.3438 0 11.984 2.2969t10.625 6.9375v-10.312q-5.1719-3.5156-10.969-5.2812-5.7812-1.75-12.219-1.75-16.562 0-26.094 10.125-9.5156 10.141-9.5156 27.672 0 17.578 9.5156 27.703 9.5312 10.141 26.094 10.141 6.5312 0 12.312-1.7344 5.7969-1.7344 10.875-5.2031z"/>
</defs>
<g transform="translate(1749.3 630.98) rotate(60.189) scale(.08 -.08)">
<use xlink:href="#p"/>
</g>
</g>
<path d="m1789.8 633.73 3.5118 4.6849q1.4395 1.9204 3.3599 0.48086l6.1952-4.6439q1.9204-1.4395 0.48086-3.3599l-3.5118-4.6849q-1.4395-1.9204-3.3599-0.48086l-6.1952 4.6439q-1.9204 1.4395-0.48086 3.3599z" clip-path="url(#a)" fill="#fff" stroke="#fff"/>
<g clip-path="url(#a)">
<g transform="translate(1793 631.29) rotate(53.145) scale(.08 -.08)">
<use xlink:href="#y"/>
</g>
</g>
<path d="m1261.4 945.38v33.808q0 2.4 2.4 2.4h7.7425q2.4 0 2.4-2.4v-33.808q0-2.4-2.4-2.4h-7.7425q-2.4 0-2.4 2.4z" clip-path="url(#a)" fill="#fff" stroke="#fff"/>
<g clip-path="url(#a)">
<g transform="translate(1265.5 945.38) rotate(90) scale(.08 -.08)">
<use xlink:href="#i"/>
<use x="44.083984" xlink:href="#d"/>
<use x="105.607422" xlink:href="#h"/>
<use x="144.970703" xlink:href="#l"/>
<use x="242.382812" xlink:href="#k"/>
<use x="270.166016" xlink:href="#e"/>
<use x="333.544922" xlink:href="#f"/>
<use x="394.824219" xlink:href="#j"/>
</g>
</g>
<path d="m1332.5 945.38v33.808q0 2.4 2.4 2.4h7.7425q2.4 0 2.4-2.4v-33.808q0-2.4-2.4-2.4h-7.7425q-2.4 0-2.4 2.4z" clip-path="url(#a)" fill="#fff" stroke="#fff"/>
<g clip-path="url(#a)">
<g transform="translate(1336.6 945.38) rotate(90) scale(.08 -.08)">
<use xlink:href="#i"/>
<use x="44.083984" xlink:href="#d"/>
<use x="105.607422" xlink:href="#h"/>
<use x="144.970703" xlink:href="#l"/>
<use x="242.382812" xlink:href="#k"/>
<use x="270.166016" xlink:href="#e"/>
<use x="333.544922" xlink:href="#f"/>
<use x="394.824219" xlink:href="#j"/>
</g>
</g>
<path d="m1433.1 980.16 7.6201-32.938q0.54095-2.3382-1.7973-2.8792l-7.5433-1.7451q-2.3382-0.54095-2.8792 1.7973l-7.6201 32.938q-0.54095 2.3382 1.7973 2.8792l7.5433 1.7451q2.3382 0.54095 2.8792-1.7973z" clip-path="url(#a)" fill="#fff" stroke="#fff"/>
<g clip-path="url(#a)">
<g transform="translate(1429.1 979.25) rotate(-76.974) scale(.08 -.08)">
<use xlink:href="#i"/>
<use x="44.083984" xlink:href="#d"/>
<use x="105.607422" xlink:href="#h"/>
<use x="144.970703" xlink:href="#l"/>
<use x="242.382812" xlink:href="#k"/>
<use x="270.166016" xlink:href="#e"/>
<use x="333.544922" xlink:href="#f"/>
<use x="394.824219" xlink:href="#j"/>
</g>
</g>
<path d="m1458.5 947.22 7.6201 32.938q0.54095 2.3382 2.8792 1.7973l7.5433-1.7451q2.3382-0.54095 1.7973-2.8792l-7.6201-32.938q-0.54095-2.3382-2.8792-1.7973l-7.5433 1.7451q-2.3382 0.54095-1.7973 2.8792z" clip-path="url(#a)" fill="#fff" stroke="#fff"/>
<g clip-path="url(#a)">
<g transform="translate(1462.5 946.31) rotate(76.974) scale(.08 -.08)">
<use xlink:href="#i"/>
<use x="44.083984" xlink:href="#d"/>
<use x="105.607422" xlink:href="#h"/>
<use x="144.970703" xlink:href="#l"/>
<use x="242.382812" xlink:href="#k"/>
<use x="270.166016" xlink:href="#e"/>
<use x="333.544922" xlink:href="#f"/>
<use x="394.824219" xlink:href="#j"/>
</g>
</g>
<path d="m1690.4 638.07 2.2462-4.5285q1.0664-2.15-1.0836-3.2165l-6.9361-3.4404q-2.15-1.0664-3.2165 1.0836l-2.2462 4.5285q-1.0664 2.15 1.0836 3.2165l6.9361 3.4404q2.15 1.0664 3.2165-1.0836z" clip-path="url(#a)" fill="#fff" stroke="#fff"/>
<g clip-path="url(#a)">
<g transform="translate(1686.8 636.27) rotate(-63.618) scale(.08 -.08)">
<use xlink:href="#z"/>
</g>
</g>
<path d="m1761.4 714.31 1.348 5.4212q0.57913 2.3291 2.9082 1.7499l7.5137-1.8683q2.3291-0.57913 1.7499-2.9082l-1.348-5.4212q-0.57913-2.3291-2.9082-1.7499l-7.5137 1.8683q-2.3291 0.57913-1.7499 2.9082z" clip-path="url(#a)" fill="#fff" stroke="#fff"/>
<g clip-path="url(#a)">
<g transform="translate(1765.4 713.33) rotate(76.036) scale(.08 -.08)">
<use xlink:href="#p"/>
</g>
</g>
<path d="m1888.8 945.38v33.808q0 2.4 2.4 2.4h7.7425q2.4 0 2.4-2.4v-33.808q0-2.4-2.4-2.4h-7.7425q-2.4 0-2.4 2.4z" clip-path="url(#a)" fill="#fff" stroke="#fff"/>
<g clip-path="url(#a)">
<g transform="translate(1892.9 945.38) rotate(90) scale(.08 -.08)">
<use xlink:href="#i"/>
<use x="44.083984" xlink:href="#d"/>
<use x="105.607422" xlink:href="#h"/>
<use x="144.970703" xlink:href="#l"/>
<use x="242.382812" xlink:href="#k"/>
<use x="270.166016" xlink:href="#e"/>
<use x="333.544922" xlink:href="#f"/>
<use x="394.824219" xlink:href="#j"/>
</g>
</g>
<path d="m1606.8 897.7 8.0339-32.839q0.57033-2.3313-1.7609-2.9016l-7.5207-1.8399q-2.3312-0.57033-2.9016 1.7609l-8.0339 32.839q-0.57033 2.3312 1.7609 2.9016l7.5207 1.8399q2.3313 0.57033 2.9016-1.7609z" clip-path="url(#a)" fill="#fff" stroke="#fff"/>
<g clip-path="url(#a)">
<g transform="translate(1602.9 896.73) rotate(-76.253) scale(.08 -.08)">
<use xlink:href="#i"/>
<use x="44.083984" xlink:href="#d"/>
<use x="105.607422" xlink:href="#h"/>
<use x="144.970703" xlink:href="#l"/>
<use x="242.382812" xlink:href="#k"/>
<use x="270.166016" xlink:href="#e"/>
<use x="333.544922" xlink:href="#f"/>
<use x="394.824219" xlink:href="#j"/>
</g>
</g>
<path d="m1675.1 864.88 8.0998 32.823q0.575 2.3301 2.9051 1.7551l7.517-1.855q2.3301-0.575 1.7551-2.9051l-8.0998-32.823q-0.575-2.3301-2.9051-1.7551l-7.517 1.855q-2.3301 0.575-1.7551 2.9051z" clip-path="url(#a)" fill="#fff" stroke="#fff"/>
<g clip-path="url(#a)">
<g transform="translate(1679 863.91) rotate(76.138) scale(.08 -.08)">
<use xlink:href="#i"/>
<use x="44.083984" xlink:href="#d"/>
<use x="105.607422" xlink:href="#h"/>
<use x="144.970703" xlink:href="#l"/>
<use x="242.382812" xlink:href="#k"/>
<use x="270.166016" xlink:href="#e"/>
<use x="333.544922" xlink:href="#f"/>
<use x="394.824219" xlink:href="#j"/>
</g>
</g>
<path d="m1650.7 801.39 0.02474-5.8549q0.010141-2.4-2.3898-2.4101l-7.7424-0.032716q-2.4-0.010141-2.4101 2.3898l-0.02474 5.8549q-0.010141 2.4 2.3898 2.4101l7.7424 0.032715q2.4 0.010141 2.4101-2.3898z" clip-path="url(#a)" fill="#fff" stroke="#fff"/>
<g clip-path="url(#a)">
<g transform="translate(1646.7 801.37) rotate(-89.758) scale(.08 -.08)">
<use xlink:href="#y"/>
</g>
</g>
<path d="m1803.1 945.38v33.808q0 2.4 2.4 2.4h7.7425q2.4 0 2.4-2.4v-33.808q0-2.4-2.4-2.4h-7.7425q-2.4 0-2.4 2.4z" clip-path="url(#a)" fill="#fff" stroke="#fff"/>
<g clip-path="url(#a)">
<g transform="translate(1807.1 945.38) rotate(90) scale(.08 -.08)">
<use xlink:href="#i"/>
<use x="44.083984" xlink:href="#d"/>
<use x="105.607422" xlink:href="#h"/>
<use x="144.970703" xlink:href="#l"/>
<use x="242.382812" xlink:href="#k"/>
<use x="270.166016" xlink:href="#e"/>
<use x="333.544922" xlink:href="#f"/>
<use x="394.824219" xlink:href="#j"/>
</g>
</g>
<path d="m524.96 719.28 0.91-5.4838q0.39289-2.3676-1.9747-2.7605l-7.638-1.2675q-2.3676-0.39289-2.7605 1.9747l-0.91 5.4838q-0.39289 2.3676 1.9747 2.7605l7.638 1.2675q2.3676 0.39289 2.7605-1.9747z" clip-path="url(#a)" fill="#fff" stroke="#fff"/>
<g clip-path="url(#a)">
<g transform="translate(520.95 718.61) rotate(-80.578) scale(.08 -.08)">
<use xlink:href="#af"/>
</g>
</g>
<path d="m567.3 632.34 1.7555 5.3032q0.7542 2.2784 3.0326 1.5242l7.3503-2.4331q2.2784-0.7542 1.5242-3.0326l-1.7555-5.3032q-0.7542-2.2784-3.0326-1.5242l-7.3503 2.4331q-2.2784 0.7542-1.5242 3.0326z" clip-path="url(#a)" fill="#fff" stroke="#fff"/>
<g clip-path="url(#a)">
<g transform="translate(571.15 631.06) rotate(71.684) scale(.08 -.08)">
<use xlink:href="#p"/>
</g>
</g>
<path d="m767.84 945.38v33.808q0 2.4 2.4 2.4h7.7425q2.4 0 2.4-2.4v-33.808q0-2.4-2.4-2.4h-7.7425q-2.4 0-2.4 2.4z" clip-path="url(#a)" fill="#fff" stroke="#fff"/>
<g clip-path="url(#a)">
<g transform="translate(771.9 945.38) rotate(90) scale(.08 -.08)">
<use xlink:href="#i"/>
<use x="44.083984" xlink:href="#d"/>
<use x="105.607422" xlink:href="#h"/>
<use x="144.970703" xlink:href="#l"/>
<use x="242.382812" xlink:href="#k"/>
<use x="270.166016" xlink:href="#e"/>
<use x="333.544922" xlink:href="#f"/>
<use x="394.824219" xlink:href="#j"/>
</g>
</g>
<path d="m822.22 945.38v33.808q0 2.4 2.4 2.4h7.7425q2.4 0 2.4-2.4v-33.808q0-2.4-2.4-2.4h-7.7425q-2.4 0-2.4 2.4z" clip-path="url(#a)" fill="#fff" stroke="#fff"/>
<g clip-path="url(#a)">
<g transform="translate(826.28 945.38) rotate(90) scale(.08 -.08)">
<use xlink:href="#i"/>
<use x="44.083984" xlink:href="#d"/>
<use x="105.607422" xlink:href="#h"/>
<use x="144.970703" xlink:href="#l"/>
<use x="242.382812" xlink:href="#k"/>
<use x="270.166016" xlink:href="#e"/>
<use x="333.544922" xlink:href="#f"/>
<use x="394.824219" xlink:href="#j"/>
</g>
</g>
<path d="m934.09 803.87 2.6604-4.8808q1.1487-2.1073-0.95862-3.2559l-6.7982-3.7056q-2.1073-1.1487-3.2559 0.95862l-2.6604 4.8808q-1.1487 2.1073 0.95862 3.2559l6.7982 3.7056q2.1073 1.1487 3.2559-0.95862z" clip-path="url(#a)" fill="#fff" stroke="#fff"/>
<g clip-path="url(#a)">
<g transform="translate(930.52 801.93) rotate(-61.406) scale(.08 -.08)">
<use xlink:href="#af"/>
</g>
</g>
<path d="m964.88 802.09 0.94428-4.966q0.44832-2.3578-1.9094-2.8061l-7.6062-1.4463q-2.3578-0.44832-2.8061 1.9094l-0.94428 4.966q-0.44832 2.3578 1.9094 2.8061l7.6062 1.4463q2.3578 0.44832 2.8061-1.9094z" clip-path="url(#a)" fill="#fff" stroke="#fff"/>
<g clip-path="url(#a)">
<g transform="translate(960.89 801.33) rotate(-79.234) scale(.08 -.08)">
<use xlink:href="#z"/>
</g>
</g>
<path d="m982.9 797.04 0.88331 4.9772q0.41938 2.3631 2.7825 1.9437l7.6234-1.3529q2.3631-0.41938 1.9437-2.7825l-0.88331-4.9772q-0.41938-2.3631-2.7825-1.9437l-7.6234 1.3529q-2.3631 0.41938-1.9437 2.7825z" clip-path="url(#a)" fill="#fff" stroke="#fff"/>
<g clip-path="url(#a)">
<g transform="translate(986.9 796.33) rotate(79.936) scale(.08 -.08)">
<use xlink:href="#z"/>
</g>
</g>
<path d="m1014.1 799.05 2.7212 4.8787q1.1691 2.096 3.2651 0.92693l6.7618-3.7715q2.096-1.1691 0.92693-3.2651l-2.7212-4.8787q-1.1691-2.096-3.2651-0.92693l-6.7618 3.7715q-2.096 1.1691-0.92693 3.2651z" clip-path="url(#a)" fill="#fff" stroke="#fff"/>
<g clip-path="url(#a)">
<g transform="translate(1017.6 797.07) rotate(60.849) scale(.08 -.08)">
<use xlink:href="#p"/>
</g>
</g>
<path d="m878.68 945.38v33.808q0 2.4 2.4 2.4h7.7425q2.4 0 2.4-2.4v-33.808q0-2.4-2.4-2.4h-7.7425q-2.4 0-2.4 2.4z" clip-path="url(#a)" fill="#fff" stroke="#fff"/>
<g clip-path="url(#a)">
<g transform="translate(882.75 945.38) rotate(90) scale(.08 -.08)">
<use xlink:href="#i"/>
<use x="44.083984" xlink:href="#d"/>
<use x="105.607422" xlink:href="#h"/>
<use x="144.970703" xlink:href="#l"/>
<use x="242.382812" xlink:href="#k"/>
<use x="270.166016" xlink:href="#e"/>
<use x="333.544922" xlink:href="#f"/>
<use x="394.824219" xlink:href="#j"/>
</g>
</g>
<path d="m937.24 945.38v33.808q0 2.4 2.4 2.4h7.7425q2.4 0 2.4-2.4v-33.808q0-2.4-2.4-2.4h-7.7425q-2.4 0-2.4 2.4z" clip-path="url(#a)" fill="#fff" stroke="#fff"/>
<g clip-path="url(#a)">
<g transform="translate(941.3 945.38) rotate(90) scale(.08 -.08)">
<use xlink:href="#i"/>
<use x="44.083984" xlink:href="#d"/>
<use x="105.607422" xlink:href="#h"/>
<use x="144.970703" xlink:href="#l"/>
<use x="242.382812" xlink:href="#k"/>
<use x="270.166016" xlink:href="#e"/>
<use x="333.544922" xlink:href="#f"/>
<use x="394.824219" xlink:href="#j"/>
</g>
</g>
<path d="m997.89 945.38v33.808q0 2.4 2.4 2.4h7.7425q2.4 0 2.4-2.4v-33.808q0-2.4-2.4-2.4h-7.7425q-2.4 0-2.4 2.4z" clip-path="url(#a)" fill="#fff" stroke="#fff"/>
<g clip-path="url(#a)">
<g transform="translate(1002 945.38) rotate(90) scale(.08 -.08)">
<use xlink:href="#i"/>
<use x="44.083984" xlink:href="#d"/>
<use x="105.607422" xlink:href="#h"/>
<use x="144.970703" xlink:href="#l"/>
<use x="242.382812" xlink:href="#k"/>
<use x="270.166016" xlink:href="#e"/>
<use x="333.544922" xlink:href="#f"/>
<use x="394.824219" xlink:href="#j"/>
</g>
</g>
<path d="m1060.6 945.38v33.808q0 2.4 2.4 2.4h7.7425q2.4 0 2.4-2.4v-33.808q0-2.4-2.4-2.4h-7.7425q-2.4 0-2.4 2.4z" clip-path="url(#a)" fill="#fff" stroke="#fff"/>
<g clip-path="url(#a)">
<g transform="translate(1064.7 945.38) rotate(90) scale(.08 -.08)">
<use xlink:href="#i"/>
<use x="44.083984" xlink:href="#d"/>
<use x="105.607422" xlink:href="#h"/>
<use x="144.970703" xlink:href="#l"/>
<use x="242.382812" xlink:href="#k"/>
<use x="270.166016" xlink:href="#e"/>
<use x="333.544922" xlink:href="#f"/>
<use x="394.824219" xlink:href="#j"/>
</g>
</g>
<path d="m485.51 945.38v33.808q0 2.4 2.4 2.4h7.7425q2.4 0 2.4-2.4v-33.808q0-2.4-2.4-2.4h-7.7425q-2.4 0-2.4 2.4z" clip-path="url(#a)" fill="#fff" stroke="#fff"/>
<g clip-path="url(#a)">
<g transform="translate(489.57 945.38) rotate(90) scale(.08 -.08)">
<use xlink:href="#i"/>
<use x="44.083984" xlink:href="#d"/>
<use x="105.607422" xlink:href="#h"/>
<use x="144.970703" xlink:href="#l"/>
<use x="242.382812" xlink:href="#k"/>
<use x="270.166016" xlink:href="#e"/>
<use x="333.544922" xlink:href="#f"/>
<use x="394.824219" xlink:href="#j"/>
</g>
</g>
<path d="m570.3 897.61 6.8661-33.103q0.48742-2.35-1.8626-2.8374l-7.5811-1.5724q-2.35-0.48742-2.8374 1.8626l-6.8661 33.103q-0.48742 2.35 1.8626 2.8374l7.5811 1.5724q2.35 0.48742 2.8374-1.8626z" clip-path="url(#a)" fill="#fff" stroke="#fff"/>
<g clip-path="url(#a)">
<g transform="translate(566.32 896.79) rotate(-78.282) scale(.08 -.08)">
<use xlink:href="#i"/>
<use x="44.083984" xlink:href="#d"/>
<use x="105.607422" xlink:href="#h"/>
<use x="144.970703" xlink:href="#l"/>
<use x="242.382812" xlink:href="#k"/>
<use x="270.166016" xlink:href="#e"/>
<use x="333.544922" xlink:href="#f"/>
<use x="394.824219" xlink:href="#j"/>
</g>
</g>
<path d="m594.57 897.11 2.4746-33.717q0.17567-2.3936-2.2179-2.5692l-7.7217-0.56672q-2.3936-0.17567-2.5692 2.2179l-2.4746 33.717q-0.17567 2.3936 2.2179 2.5692l7.7217 0.56672q2.3936 0.17567 2.5692-2.2179z" clip-path="url(#a)" fill="#fff" stroke="#fff"/>
<g clip-path="url(#a)">
<g transform="translate(590.51 896.81) rotate(-85.802) scale(.08 -.08)">
<use xlink:href="#i"/>
<use x="44.083984" xlink:href="#d"/>
<use x="105.607422" xlink:href="#h"/>
<use x="144.970703" xlink:href="#l"/>
<use x="242.382812" xlink:href="#k"/>
<use x="270.166016" xlink:href="#e"/>
<use x="333.544922" xlink:href="#f"/>
<use x="394.824219" xlink:href="#j"/>
</g>
</g>
<path d="m626.94 864.57 7.0682 33.06q0.50178 2.347 2.8487 1.8452l7.5714-1.6187q2.347-0.50178 1.8452-2.8487l-7.0682-33.06q-0.50178-2.347-2.8487-1.8452l-7.5714 1.6187q-2.347 0.50177-1.8452 2.8487z" clip-path="url(#a)" fill="#fff" stroke="#fff"/>
<g clip-path="url(#a)">
<g transform="translate(630.91 863.72) rotate(77.932) scale(.08 -.08)">
<use xlink:href="#i"/>
<use x="44.083984" xlink:href="#d"/>
<use x="105.607422" xlink:href="#h"/>
<use x="144.970703" xlink:href="#l"/>
<use x="242.382812" xlink:href="#k"/>
<use x="270.166016" xlink:href="#e"/>
<use x="333.544922" xlink:href="#f"/>
<use x="394.824219" xlink:href="#j"/>
</g>
</g>
<path d="m605.95 796.36 0.77251 5.8038q0.31665 2.379 2.6957 2.0624l7.6748-1.0215q2.379-0.31665 2.0624-2.6957l-0.7725-5.8038q-0.31666-2.379-2.6957-2.0624l-7.6748 1.0215q-2.379 0.31666-2.0624 2.6957z" clip-path="url(#a)" fill="#fff" stroke="#fff"/>
<g clip-path="url(#a)">
<g transform="translate(609.98 795.82) rotate(82.418) scale(.08 -.08)">
<use xlink:href="#y"/>
</g>
</g>
<path d="m182.26 945.38v33.808q0 2.4 2.4 2.4h7.7425q2.4 0 2.4-2.4v-33.808q0-2.4-2.4-2.4h-7.7425q-2.4 0-2.4 2.4z" clip-path="url(#a)" fill="#fff" stroke="#fff"/>
<g clip-path="url(#a)">
<g transform="translate(186.33 945.38) rotate(90) scale(.08 -.08)">
<use xlink:href="#i"/>
<use x="44.083984" xlink:href="#d"/>
<use x="105.607422" xlink:href="#h"/>
<use x="144.970703" xlink:href="#l"/>
<use x="242.382812" xlink:href="#k"/>
<use x="270.166016" xlink:href="#e"/>
<use x="333.544922" xlink:href="#f"/>
<use x="394.824219" xlink:href="#j"/>
</g>
</g>
<path d="m220.26 979.58 2.3839-33.723q0.16924-2.394-2.2248-2.5633l-7.7232-0.54596q-2.394-0.16924-2.5633 2.2248l-2.3839 33.723q-0.16924 2.394 2.2248 2.5633l7.7232 0.54596q2.394 0.16924 2.5633-2.2248z" clip-path="url(#a)" fill="#fff" stroke="#fff"/>
<g clip-path="url(#a)">
<g transform="translate(216.21 979.3) rotate(-85.956) scale(.08 -.08)">
<use xlink:href="#i"/>
<use x="44.083984" xlink:href="#d"/>
<use x="105.607422" xlink:href="#h"/>
<use x="144.970703" xlink:href="#l"/>
<use x="242.382812" xlink:href="#k"/>
<use x="270.166016" xlink:href="#e"/>
<use x="333.544922" xlink:href="#f"/>
<use x="394.824219" xlink:href="#j"/>
</g>
</g>
<path d="m219.25 945.86 2.3839 33.723q0.16924 2.394 2.5633 2.2248l7.7232-0.54596q2.394-0.16924 2.2248-2.5633l-2.3839-33.723q-0.16924-2.394-2.5633-2.2248l-7.7232 0.54596q-2.394 0.16924-2.2248 2.5633z" clip-path="url(#a)" fill="#fff" stroke="#fff"/>
<g clip-path="url(#a)">
<g transform="translate(223.31 945.57) rotate(85.956) scale(.08 -.08)">
<use xlink:href="#i"/>
<use x="44.083984" xlink:href="#d"/>
<use x="105.607422" xlink:href="#h"/>
<use x="144.970703" xlink:href="#l"/>
<use x="242.382812" xlink:href="#k"/>
<use x="270.166016" xlink:href="#e"/>
<use x="333.544922" xlink:href="#f"/>
<use x="394.824219" xlink:href="#j"/>
</g>
</g>
<path d="m282.74 719 0.64379-5.5213q0.27796-2.3838-2.1059-2.6618l-7.6904-0.8967q-2.3838-0.27796-2.6618 2.1059l-0.64379 5.5213q-0.27796 2.3838 2.1059 2.6618l7.6904 0.8967q2.3838 0.27796 2.6618-2.1059z" clip-path="url(#a)" fill="#fff" stroke="#fff"/>
<g clip-path="url(#a)">
<g transform="translate(278.71 718.53) rotate(-83.349) scale(.08 -.08)">
<use xlink:href="#af"/>
</g>
</g>
<path d="m296.61 718.14 0.16592-4.8209q0.082554-2.3986-2.316-2.4811l-7.7379-0.26632q-2.3986-0.082555-2.4811 2.316l-0.16593 4.8209q-0.082554 2.3986 2.316 2.4811l7.7379 0.26632q2.3986 0.082554 2.4811-2.316z" clip-path="url(#a)" fill="#fff" stroke="#fff"/>
<g clip-path="url(#a)">
<g transform="translate(292.55 718) rotate(-88.029) scale(.08 -.08)">
<use xlink:href="#v"/>
</g>
</g>
<path d="m314.31 632.21 1.5785 5.2399q0.69226 2.298 2.9903 1.6057l7.4134-2.2333q2.298-0.69226 1.6057-2.9903l-1.5785-5.2399q-0.69226-2.298-2.9903-1.6057l-7.4134 2.2333q-2.298 0.69226-1.6057 2.9903z" clip-path="url(#a)" fill="#fff" stroke="#fff"/>
<g clip-path="url(#a)">
<g transform="translate(318.2 631.04) rotate(73.235) scale(.08 -.08)">
<use xlink:href="#t"/>
</g>
</g>
<path d="m251.28 945.38v33.808q0 2.4 2.4 2.4h7.7425q2.4 0 2.4-2.4v-33.808q0-2.4-2.4-2.4h-7.7425q-2.4 0-2.4 2.4z" clip-path="url(#a)" fill="#fff" stroke="#fff"/>
<g clip-path="url(#a)">
<g transform="translate(255.34 945.38) rotate(90) scale(.08 -.08)">
<use xlink:href="#i"/>
<use x="44.083984" xlink:href="#d"/>
<use x="105.607422" xlink:href="#h"/>
<use x="144.970703" xlink:href="#l"/>
<use x="242.382812" xlink:href="#k"/>
<use x="270.166016" xlink:href="#e"/>
<use x="333.544922" xlink:href="#f"/>
<use x="394.824219" xlink:href="#j"/>
</g>
</g>
<path d="m278.47 945.38v33.808q0 2.4 2.4 2.4h7.7425q2.4 0 2.4-2.4v-33.808q0-2.4-2.4-2.4h-7.7425q-2.4 0-2.4 2.4z" clip-path="url(#a)" fill="#fff" stroke="#fff"/>
<g clip-path="url(#a)">
<g transform="translate(282.53 945.38) rotate(90) scale(.08 -.08)">
<use xlink:href="#i"/>
<use x="44.083984" xlink:href="#d"/>
<use x="105.607422" xlink:href="#h"/>
<use x="144.970703" xlink:href="#l"/>
<use x="242.382812" xlink:href="#k"/>
<use x="270.166016" xlink:href="#e"/>
<use x="333.544922" xlink:href="#f"/>
<use x="394.824219" xlink:href="#j"/>
</g>
</g>
<path d="m335.67 802.36 1.0606-5.4566q0.45792-2.3559-1.898-2.8138l-7.6003-1.4773q-2.3559-0.45792-2.8138 1.898l-1.0606 5.4566q-0.45792 2.3559 1.898 2.8138l7.6003 1.4773q2.3559 0.45792 2.8138-1.898z" clip-path="url(#a)" fill="#fff" stroke="#fff"/>
<g clip-path="url(#a)">
<g transform="translate(331.69 801.58) rotate(-79) scale(.08 -.08)">
<use xlink:href="#af"/>
</g>
</g>
<path d="m351.99 800.99 0.021359-5.055q0.010142-2.4-2.3898-2.4101l-7.7424-0.032716q-2.4-0.010141-2.4101 2.3898l-0.021359 5.055q-0.010141 2.4 2.3898 2.4101l7.7424 0.032716q2.4 0.010141 2.4101-2.3898z" clip-path="url(#a)" fill="#fff" stroke="#fff"/>
<g clip-path="url(#a)">
<g transform="translate(347.93 800.97) rotate(-89.758) scale(.08 -.08)">
<use xlink:href="#z"/>
</g>
</g>
<path d="m355.77 796.91 1.0882 5.4792q0.4675 2.354 2.8215 1.8865l7.5942-1.5082q2.354-0.46751 1.8865-2.8215l-1.0882-5.4792q-0.46751-2.354-2.8215-1.8865l-7.5942 1.5082q-2.354 0.4675-1.8865 2.8215z" clip-path="url(#a)" fill="#fff" stroke="#fff"/>
<g clip-path="url(#a)">
<g transform="translate(359.76 796.12) rotate(78.767) scale(.08 -.08)">
<use xlink:href="#p"/>
</g>
</g>
<path d="m307.74 945.38v33.808q0 2.4 2.4 2.4h7.7425q2.4 0 2.4-2.4v-33.808q0-2.4-2.4-2.4h-7.7425q-2.4 0-2.4 2.4z" clip-path="url(#a)" fill="#fff" stroke="#fff"/>
<g clip-path="url(#a)">
<g transform="translate(311.81 945.38) rotate(90) scale(.08 -.08)">
<use xlink:href="#i"/>
<use x="44.083984" xlink:href="#d"/>
<use x="105.607422" xlink:href="#h"/>
<use x="144.970703" xlink:href="#l"/>
<use x="242.382812" xlink:href="#k"/>
<use x="270.166016" xlink:href="#e"/>
<use x="333.544922" xlink:href="#f"/>
<use x="394.824219" xlink:href="#j"/>
</g>
</g>
<path d="m339.11 945.38v33.808q0 2.4 2.4 2.4h7.7425q2.4 0 2.4-2.4v-33.808q0-2.4-2.4-2.4h-7.7425q-2.4 0-2.4 2.4z" clip-path="url(#a)" fill="#fff" stroke="#fff"/>
<g clip-path="url(#a)">
<g transform="translate(343.18 945.38) rotate(90) scale(.08 -.08)">
<use xlink:href="#i"/>
<use x="44.083984" xlink:href="#d"/>
<use x="105.607422" xlink:href="#h"/>
<use x="144.970703" xlink:href="#l"/>
<use x="242.382812" xlink:href="#k"/>
<use x="270.166016" xlink:href="#e"/>
<use x="333.544922" xlink:href="#f"/>
<use x="394.824219" xlink:href="#j"/>
</g>
</g>
<path d="m372.58 945.38v33.808q0 2.4 2.4 2.4h7.7425q2.4 0 2.4-2.4v-33.808q0-2.4-2.4-2.4h-7.7425q-2.4 0-2.4 2.4z" clip-path="url(#a)" fill="#fff" stroke="#fff"/>
<g clip-path="url(#a)">
<g transform="translate(376.64 945.38) rotate(90) scale(.08 -.08)">
<use xlink:href="#i"/>
<use x="44.083984" xlink:href="#d"/>
<use x="105.607422" xlink:href="#h"/>
<use x="144.970703" xlink:href="#l"/>
<use x="242.382812" xlink:href="#k"/>
<use x="270.166016" xlink:href="#e"/>
<use x="333.544922" xlink:href="#f"/>
<use x="394.824219" xlink:href="#j"/>
</g>
</g>
<path d="m118.07 718.23 0.31277-4.5906q0.16314-2.3944-2.2313-2.5576l-7.7246-0.5263q-2.3944-0.16314-2.5576 2.2313l-0.31277 4.5906q-0.16314 2.3944 2.2313 2.5576l7.7246 0.5263q2.3944 0.16314 2.5576-2.2313z" clip-path="url(#a)" fill="#fff" stroke="#fff"/>
<g clip-path="url(#a)">
<defs>
<path id="av" d="m9.8125 72.906h41.891v-8.3125h-32.031v-21.484h28.906v-8.2969h-28.906v-34.812h-9.8594z"/>
</defs>
<g transform="translate(114.01 717.96) rotate(-86.102) scale(.08 -.08)">
<use xlink:href="#av"/>
</g>
</g>
<path d="m127.95 635.93 0.10174-5.5853q0.043708-2.3996-2.3559-2.4433l-7.7412-0.14101q-2.3996-0.043709-2.4433 2.3559l-0.10174 5.5853q-0.043709 2.3996 2.3559 2.4433l7.7412 0.14101q2.3996 0.043709 2.4433-2.3559z" clip-path="url(#a)" fill="#fff" stroke="#fff"/>
<g clip-path="url(#a)">
<g transform="translate(123.88 635.85) rotate(-88.956) scale(.08 -.08)">
<use xlink:href="#p"/>
</g>
</g>
<path d="m129.55 713.21 0.43034 5.5696q0.18488 2.3929 2.5778 2.208l7.7195-0.59644q2.3929-0.18488 2.208-2.5778l-0.43034-5.5696q-0.18488-2.3929-2.5778-2.208l-7.7195 0.59644q-2.3929 0.18488-2.208 2.5778z" clip-path="url(#a)" fill="#fff" stroke="#fff"/>
<g clip-path="url(#a)">
<g transform="translate(133.6 712.9) rotate(85.582) scale(.08 -.08)">
<use xlink:href="#p"/>
</g>
</g>
<path d="m94.427 945.38v33.808q0 2.4 2.4 2.4h7.7425q2.4 0 2.4-2.4v-33.808q0-2.4-2.4-2.4h-7.7425q-2.4 0-2.4 2.4z" clip-path="url(#a)" fill="#fff" stroke="#fff"/>
<g clip-path="url(#a)">
<g transform="translate(98.491 945.38) rotate(90) scale(.08 -.08)">
<use xlink:href="#i"/>
<use x="44.083984" xlink:href="#d"/>
<use x="105.607422" xlink:href="#h"/>
<use x="144.970703" xlink:href="#l"/>
<use x="242.382812" xlink:href="#k"/>
<use x="270.166016" xlink:href="#e"/>
<use x="333.544922" xlink:href="#f"/>
<use x="394.824219" xlink:href="#j"/>
</g>
</g>
<path d="m120.69 795.98 0.504 5.9637q0.2021 2.3915 2.5936 2.1894l7.715-0.65199q2.3915-0.2021 2.1894-2.5936l-0.504-5.9637q-0.2021-2.3915-2.5936-2.1894l-7.715 0.65199q-2.3915 0.2021-2.1894 2.5936z" clip-path="url(#a)" fill="#fff" stroke="#fff"/>
<g clip-path="url(#a)">
<defs>
<path id="at" d="m9.8125 72.906h13.281l32.328-60.984v60.984h9.5625v-72.906h-13.281l-32.312 60.984v-60.984h-9.5781z"/>
</defs>
<g transform="translate(124.74 795.64) rotate(85.169) scale(.08 -.08)">
<use xlink:href="#at"/>
</g>
</g>
<path d="m120.71 801.64 0.37682-5.5735q0.16189-2.3945-2.2326-2.5564l-7.7249-0.52226q-2.3945-0.16189-2.5564 2.2326l-0.37681 5.5735q-0.16189 2.3945 2.2326 2.5564l7.7249 0.52226q2.3945 0.16189 2.5564-2.2326z" clip-path="url(#a)" fill="#fff" stroke="#fff"/>
<g clip-path="url(#a)">
<g transform="translate(116.65 801.37) rotate(-86.132) scale(.08 -.08)">
<use xlink:href="#p"/>
</g>
</g>
<path d="m119.69 796.1 0.40025 5.5719q0.17196 2.3938 2.5658 2.2219l7.7226-0.55474q2.3938-0.17196 2.2219-2.5658l-0.40025-5.5719q-0.17196-2.3938-2.5658-2.2219l-7.7226 0.55474q-2.3938 0.17196-2.2219 2.5658z" clip-path="url(#a)" fill="#fff" stroke="#fff"/>
<g clip-path="url(#a)">
<g transform="translate(123.74 795.8) rotate(85.891) scale(.08 -.08)">
<use xlink:href="#p"/>
</g>
</g>
<path d="m126.13 801.39 0.02474-5.8549q0.010141-2.4-2.3898-2.4101l-7.7424-0.032716q-2.4-0.010141-2.4101 2.3898l-0.02474 5.8549q-0.010141 2.4 2.3898 2.4101l7.7424 0.032715q2.4 0.010141 2.4101-2.3898z" clip-path="url(#a)" fill="#fff" stroke="#fff"/>
<g clip-path="url(#a)">
<g transform="translate(122.06 801.37) rotate(-89.758) scale(.08 -.08)">
<use xlink:href="#y"/>
</g>
</g>
<path d="m142.53 945.38v33.808q0 2.4 2.4 2.4h7.7425q2.4 0 2.4-2.4v-33.808q0-2.4-2.4-2.4h-7.7425q-2.4 0-2.4 2.4z" clip-path="url(#a)" fill="#fff" stroke="#fff"/>
<g clip-path="url(#a)">
<g transform="translate(146.59 945.38) rotate(90) scale(.08 -.08)">
<use xlink:href="#i"/>
<use x="44.083984" xlink:href="#d"/>
<use x="105.607422" xlink:href="#h"/>
<use x="144.970703" xlink:href="#l"/>
<use x="242.382812" xlink:href="#k"/>
<use x="270.166016" xlink:href="#e"/>
<use x="333.544922" xlink:href="#f"/>
<use x="394.824219" xlink:href="#j"/>
</g>
</g>
<path d="m102.79 945.38v33.808q0 2.4 2.4 2.4h7.7425q2.4 0 2.4-2.4v-33.808q0-2.4-2.4-2.4h-7.7425q-2.4 0-2.4 2.4z" clip-path="url(#a)" fill="#fff" stroke="#fff"/>
<g clip-path="url(#a)">
<g transform="translate(106.86 945.38) rotate(90) scale(.08 -.08)">
<use xlink:href="#i"/>
<use x="44.083984" xlink:href="#d"/>
<use x="105.607422" xlink:href="#h"/>
<use x="144.970703" xlink:href="#l"/>
<use x="242.382812" xlink:href="#k"/>
<use x="270.166016" xlink:href="#e"/>
<use x="333.544922" xlink:href="#f"/>
<use x="394.824219" xlink:href="#j"/>
</g>
</g>
<path d="m125.8 945.38v33.808q0 2.4 2.4 2.4h7.7425q2.4 0 2.4-2.4v-33.808q0-2.4-2.4-2.4h-7.7425q-2.4 0-2.4 2.4z" clip-path="url(#a)" fill="#fff" stroke="#fff"/>
<g clip-path="url(#a)">
<g transform="translate(129.86 945.38) rotate(90) scale(.08 -.08)">
<use xlink:href="#i"/>
<use x="44.083984" xlink:href="#d"/>
<use x="105.607422" xlink:href="#h"/>
<use x="144.970703" xlink:href="#l"/>
<use x="242.382812" xlink:href="#k"/>
<use x="270.166016" xlink:href="#e"/>
<use x="333.544922" xlink:href="#f"/>
<use x="394.824219" xlink:href="#j"/>
</g>
</g>
<path d="m113.25 945.38v33.808q0 2.4 2.4 2.4h7.7425q2.4 0 2.4-2.4v-33.808q0-2.4-2.4-2.4h-7.7425q-2.4 0-2.4 2.4z" clip-path="url(#a)" fill="#fff" stroke="#fff"/>
<g clip-path="url(#a)">
<g transform="translate(117.31 945.38) rotate(90) scale(.08 -.08)">
<use xlink:href="#i"/>
<use x="44.083984" xlink:href="#d"/>
<use x="105.607422" xlink:href="#h"/>
<use x="144.970703" xlink:href="#l"/>
<use x="242.382812" xlink:href="#k"/>
<use x="270.166016" xlink:href="#e"/>
<use x="333.544922" xlink:href="#f"/>
<use x="394.824219" xlink:href="#j"/>
</g>
</g>
<path d="m163.44 945.38v33.808q0 2.4 2.4 2.4h7.7425q2.4 0 2.4-2.4v-33.808q0-2.4-2.4-2.4h-7.7425q-2.4 0-2.4 2.4z" clip-path="url(#a)" fill="#fff" stroke="#fff"/>
<g clip-path="url(#a)">
<g transform="translate(167.51 945.38) rotate(90) scale(.08 -.08)">
<use xlink:href="#i"/>
<use x="44.083984" xlink:href="#d"/>
<use x="105.607422" xlink:href="#h"/>
<use x="144.970703" xlink:href="#l"/>
<use x="242.382812" xlink:href="#k"/>
<use x="270.166016" xlink:href="#e"/>
<use x="333.544922" xlink:href="#f"/>
<use x="394.824219" xlink:href="#j"/>
</g>
</g>
<path d="m408.13 945.38v33.808q0 2.4 2.4 2.4h7.7425q2.4 0 2.4-2.4v-33.808q0-2.4-2.4-2.4h-7.7425q-2.4 0-2.4 2.4z" clip-path="url(#a)" fill="#fff" stroke="#fff"/>
<g clip-path="url(#a)">
<g transform="translate(412.19 945.38) rotate(90) scale(.08 -.08)">
<use xlink:href="#i"/>
<use x="44.083984" xlink:href="#d"/>
<use x="105.607422" xlink:href="#h"/>
<use x="144.970703" xlink:href="#l"/>
<use x="242.382812" xlink:href="#k"/>
<use x="270.166016" xlink:href="#e"/>
<use x="333.544922" xlink:href="#f"/>
<use x="394.824219" xlink:href="#j"/>
</g>
</g>
<path d="m617.26 945.38v33.808q0 2.4 2.4 2.4h7.7425q2.4 0 2.4-2.4v-33.808q0-2.4-2.4-2.4h-7.7425q-2.4 0-2.4 2.4z" clip-path="url(#a)" fill="#fff" stroke="#fff"/>
<g clip-path="url(#a)">
<g transform="translate(621.33 945.38) rotate(90) scale(.08 -.08)">
<use xlink:href="#i"/>
<use x="44.083984" xlink:href="#d"/>
<use x="105.607422" xlink:href="#h"/>
<use x="144.970703" xlink:href="#l"/>
<use x="242.382812" xlink:href="#k"/>
<use x="270.166016" xlink:href="#e"/>
<use x="333.544922" xlink:href="#f"/>
<use x="394.824219" xlink:href="#j"/>
</g>
</g>
<path d="m715.56 945.38v33.808q0 2.4 2.4 2.4h7.7425q2.4 0 2.4-2.4v-33.808q0-2.4-2.4-2.4h-7.7425q-2.4 0-2.4 2.4z" clip-path="url(#a)" fill="#fff" stroke="#fff"/>
<g clip-path="url(#a)">
<g transform="translate(719.62 945.38) rotate(90) scale(.08 -.08)">
<use xlink:href="#i"/>
<use x="44.083984" xlink:href="#d"/>
<use x="105.607422" xlink:href="#h"/>
<use x="144.970703" xlink:href="#l"/>
<use x="242.382812" xlink:href="#k"/>
<use x="270.166016" xlink:href="#e"/>
<use x="333.544922" xlink:href="#f"/>
<use x="394.824219" xlink:href="#j"/>
</g>
</g>
<path d="m1637.8 945.38v33.808q0 2.4 2.4 2.4h7.7425q2.4 0 2.4-2.4v-33.808q0-2.4-2.4-2.4h-7.7425q-2.4 0-2.4 2.4z" clip-path="url(#a)" fill="#fff" stroke="#fff"/>
<g clip-path="url(#a)">
<g transform="translate(1641.9 945.38) rotate(90) scale(.08 -.08)">
<use xlink:href="#i"/>
<use x="44.083984" xlink:href="#d"/>
<use x="105.607422" xlink:href="#h"/>
<use x="144.970703" xlink:href="#l"/>
<use x="242.382812" xlink:href="#k"/>
<use x="270.166016" xlink:href="#e"/>
<use x="333.544922" xlink:href="#f"/>
<use x="394.824219" xlink:href="#j"/>
</g>
</g>
<path d="m1976.6 945.38v33.808q0 2.4 2.4 2.4h7.7425q2.4 0 2.4-2.4v-33.808q0-2.4-2.4-2.4h-7.7425q-2.4 0-2.4 2.4z" clip-path="url(#a)" fill="#fff" stroke="#fff"/>
<g clip-path="url(#a)">
<g transform="translate(1980.7 945.38) rotate(90) scale(.08 -.08)">
<use xlink:href="#i"/>
<use x="44.083984" xlink:href="#d"/>
<use x="105.607422" xlink:href="#h"/>
<use x="144.970703" xlink:href="#l"/>
<use x="242.382812" xlink:href="#k"/>
<use x="270.166016" xlink:href="#e"/>
<use x="333.544922" xlink:href="#f"/>
<use x="394.824219" xlink:href="#j"/>
</g>
</g>
<defs>
<path id="b" d="m0 8.6603c2.2967 0 4.4997-0.9125 6.1237-2.5365 1.624-1.624 2.5365-3.827 2.5365-6.1237s-0.9125-4.4997-2.5365-6.1237c-1.624-1.624-3.827-2.5365-6.1237-2.5365s-4.4997 0.9125-6.1237 2.5365c-1.624 1.624-2.5365 3.827-2.5365 6.1237s0.9125 4.4997 2.5365 6.1237c1.624 1.624 3.827 2.5365 6.1237 2.5365z"/>
</defs>
<g clip-path="url(#a)">
<use x="94.424242" y="1043.636364" fill="#ffffff" stroke="#ffffff" xlink:href="#b"/>
</g>
<g clip-path="url(#a)">
<use x="100.698278" y="1043.636364" fill="#ffffff" stroke="#ffffff" xlink:href="#b"/>
</g>
<g clip-path="url(#a)">
<use x="109.06366" y="1043.636364" fill="#ffffff" stroke="#ffffff" xlink:href="#b"/>
</g>
<g clip-path="url(#a)">
<use x="119.520387" y="1043.636364" fill="#ffffff" stroke="#ffffff" xlink:href="#b"/>
</g>
<g clip-path="url(#a)">
<use x="132.068459" y="1043.636364" fill="#ffffff" stroke="#ffffff" xlink:href="#b"/>
</g>
<g clip-path="url(#a)">
<use x="148.799221" y="1043.636364" fill="#ffffff" stroke="#ffffff" xlink:href="#b"/>
</g>
<g clip-path="url(#a)">
<use x="169.712675" y="1043.636364" fill="#ffffff" stroke="#ffffff" xlink:href="#b"/>
</g>
<g clip-path="url(#a)">
<use x="188.534783" y="1043.636364" fill="#ffffff" stroke="#ffffff" xlink:href="#b"/>
</g>
<g clip-path="url(#a)">
<use x="209.448237" y="1043.636364" fill="#ffffff" stroke="#ffffff" xlink:href="#b"/>
</g>
<g clip-path="url(#a)">
<use x="232.453035" y="1043.636364" fill="#ffffff" stroke="#ffffff" xlink:href="#b"/>
</g>
<g clip-path="url(#a)">
<use x="257.54918" y="1043.636364" fill="#ffffff" stroke="#ffffff" xlink:href="#b"/>
</g>
<g clip-path="url(#a)">
<use x="284.736669" y="1043.636364" fill="#ffffff" stroke="#ffffff" xlink:href="#b"/>
</g>
<g clip-path="url(#a)">
<use x="314.015504" y="1043.636364" fill="#ffffff" stroke="#ffffff" xlink:href="#b"/>
</g>
<g clip-path="url(#a)">
<use x="345.385684" y="1043.636364" fill="#ffffff" stroke="#ffffff" xlink:href="#b"/>
</g>
<g clip-path="url(#a)">
<use x="378.84721" y="1043.636364" fill="#ffffff" stroke="#ffffff" xlink:href="#b"/>
</g>
<g clip-path="url(#a)">
<use x="414.400081" y="1043.636364" fill="#ffffff" stroke="#ffffff" xlink:href="#b"/>
</g>
<g clip-path="url(#a)">
<use x="452.044297" y="1043.636364" fill="#ffffff" stroke="#ffffff" xlink:href="#b"/>
</g>
<g clip-path="url(#a)">
<use x="491.779858" y="1043.636364" fill="#ffffff" stroke="#ffffff" xlink:href="#b"/>
</g>
<g clip-path="url(#a)">
<use x="533.606765" y="1043.636364" fill="#ffffff" stroke="#ffffff" xlink:href="#b"/>
</g>
<g clip-path="url(#a)">
<use x="577.525018" y="1043.636364" fill="#ffffff" stroke="#ffffff" xlink:href="#b"/>
</g>
<g clip-path="url(#a)">
<use x="623.534615" y="1043.636364" fill="#ffffff" stroke="#ffffff" xlink:href="#b"/>
</g>
<g clip-path="url(#a)">
<use x="671.635558" y="1043.636364" fill="#ffffff" stroke="#ffffff" xlink:href="#b"/>
</g>
<g clip-path="url(#a)">
<use x="721.827847" y="1043.636364" fill="#ffffff" stroke="#ffffff" xlink:href="#b"/>
</g>
<g clip-path="url(#a)">
<use x="774.11148" y="1043.636364" fill="#ffffff" stroke="#ffffff" xlink:href="#b"/>
</g>
<g clip-path="url(#a)">
<use x="828.486459" y="1043.636364" fill="#ffffff" stroke="#ffffff" xlink:href="#b"/>
</g>
<g clip-path="url(#a)">
<use x="884.952784" y="1043.636364" fill="#ffffff" stroke="#ffffff" xlink:href="#b"/>
</g>
<g clip-path="url(#a)">
<use x="943.510453" y="1043.636364" fill="#ffffff" stroke="#ffffff" xlink:href="#b"/>
</g>
<g clip-path="url(#a)">
<use x="1004.159468" y="1043.636364" fill="#ffffff" stroke="#ffffff" xlink:href="#b"/>
</g>
<g clip-path="url(#a)">
<use x="1066.899829" y="1043.636364" fill="#ffffff" stroke="#ffffff" xlink:href="#b"/>
</g>
<g clip-path="url(#a)">
<use x="1131.731535" y="1043.636364" fill="#ffffff" stroke="#ffffff" xlink:href="#b"/>
</g>
<g clip-path="url(#a)">
<use x="1198.654586" y="1043.636364" fill="#ffffff" stroke="#ffffff" xlink:href="#b"/>
</g>
<g clip-path="url(#a)">
<use x="1267.668982" y="1043.636364" fill="#ffffff" stroke="#ffffff" xlink:href="#b"/>
</g>
<g clip-path="url(#a)">
<use x="1338.774724" y="1043.636364" fill="#ffffff" stroke="#ffffff" xlink:href="#b"/>
</g>
<g clip-path="url(#a)">
<use x="1411.971811" y="1043.636364" fill="#ffffff" stroke="#ffffff" xlink:href="#b"/>
</g>
<g clip-path="url(#a)">
<use x="1487.260244" y="1043.636364" fill="#ffffff" stroke="#ffffff" xlink:href="#b"/>
</g>
<g clip-path="url(#a)">
<use x="1564.640021" y="1043.636364" fill="#ffffff" stroke="#ffffff" xlink:href="#b"/>
</g>
<g clip-path="url(#a)">
<use x="1644.111145" y="1043.636364" fill="#ffffff" stroke="#ffffff" xlink:href="#b"/>
</g>
<g clip-path="url(#a)">
<use x="1725.673613" y="1043.636364" fill="#ffffff" stroke="#ffffff" xlink:href="#b"/>
</g>
<g clip-path="url(#a)">
<use x="1809.327427" y="1043.636364" fill="#ffffff" stroke="#ffffff" xlink:href="#b"/>
</g>
<g clip-path="url(#a)">
<use x="1895.072586" y="1043.636364" fill="#ffffff" stroke="#ffffff" xlink:href="#b"/>
</g>
<g clip-path="url(#a)">
<use x="1982.909091" y="1043.636364" fill="#ffffff" stroke="#ffffff" xlink:href="#b"/>
</g>
<g clip-path="url(#a)">
<use x="152.981912" y="550.099487" fill="#ffffff" stroke="#ffffff" xlink:href="#b"/>
</g>
<g clip-path="url(#a)">
<use x="152.981912" y="550.099487" fill="#ffffff" stroke="#ffffff" xlink:href="#b"/>
</g>
<g clip-path="url(#a)">
<use x="134.159804" y="880.921532" fill="#ffffff" stroke="#ffffff" xlink:href="#b"/>
</g>
<g clip-path="url(#a)">
<use x="509.363081" y="49.69697" fill="#ffffff" stroke="#ffffff" xlink:href="#b"/>
</g>
<g clip-path="url(#a)">
<use x="94.424242" y="880.921532" fill="#ffffff" stroke="#ffffff" xlink:href="#b"/>
</g>
<g clip-path="url(#a)">
<use x="123.238334" y="383.69138" fill="#ffffff" stroke="#ffffff" xlink:href="#b"/>
</g>
<g clip-path="url(#a)">
<use x="235.202767" y="383.69138" fill="#ffffff" stroke="#ffffff" xlink:href="#b"/>
</g>
<g clip-path="url(#a)">
<use x="452.044297" y="880.921532" fill="#ffffff" stroke="#ffffff" xlink:href="#b"/>
</g>
<g clip-path="url(#a)">
<use x="769.196819" y="383.69138" fill="#ffffff" stroke="#ffffff" xlink:href="#b"/>
</g>
<g clip-path="url(#a)">
<use x="1131.731535" y="880.921532" fill="#ffffff" stroke="#ffffff" xlink:href="#b"/>
</g>
<g clip-path="url(#a)">
<use x="1194.316981" y="216.862298" fill="#ffffff" stroke="#ffffff" xlink:href="#b"/>
</g>
<g clip-path="url(#a)">
<use x="1198.654586" y="880.921532" fill="#ffffff" stroke="#ffffff" xlink:href="#b"/>
</g>
<g clip-path="url(#a)">
<use x="1610.184876" y="383.69138" fill="#ffffff" stroke="#ffffff" xlink:href="#b"/>
</g>
<g clip-path="url(#a)">
<use x="1267.668982" y="880.921532" fill="#ffffff" stroke="#ffffff" xlink:href="#b"/>
</g>
<g clip-path="url(#a)">
<use x="1338.774724" y="880.921532" fill="#ffffff" stroke="#ffffff" xlink:href="#b"/>
</g>
<g clip-path="url(#a)">
<use x="1449.616027" y="880.921532" fill="#ffffff" stroke="#ffffff" xlink:href="#b"/>
</g>
<g clip-path="url(#a)">
<use x="1727.067843" y="550.099487" fill="#ffffff" stroke="#ffffff" xlink:href="#b"/>
</g>
<g clip-path="url(#a)">
<use x="1895.072586" y="880.921532" fill="#ffffff" stroke="#ffffff" xlink:href="#b"/>
</g>
<g clip-path="url(#a)">
<use x="1644.80826" y="715.943158" fill="#ffffff" stroke="#ffffff" xlink:href="#b"/>
</g>
<g clip-path="url(#a)">
<use x="1809.327427" y="880.921532" fill="#ffffff" stroke="#ffffff" xlink:href="#b"/>
</g>
<g clip-path="url(#a)">
<use x="546.677674" y="550.099487" fill="#ffffff" stroke="#ffffff" xlink:href="#b"/>
</g>
<g clip-path="url(#a)">
<use x="774.11148" y="880.921532" fill="#ffffff" stroke="#ffffff" xlink:href="#b"/>
</g>
<g clip-path="url(#a)">
<use x="828.486459" y="880.921532" fill="#ffffff" stroke="#ffffff" xlink:href="#b"/>
</g>
<g clip-path="url(#a)">
<use x="974.880634" y="715.943158" fill="#ffffff" stroke="#ffffff" xlink:href="#b"/>
</g>
<g clip-path="url(#a)">
<use x="884.952784" y="880.921532" fill="#ffffff" stroke="#ffffff" xlink:href="#b"/>
</g>
<g clip-path="url(#a)">
<use x="943.510453" y="880.921532" fill="#ffffff" stroke="#ffffff" xlink:href="#b"/>
</g>
<g clip-path="url(#a)">
<use x="1004.159468" y="880.921532" fill="#ffffff" stroke="#ffffff" xlink:href="#b"/>
</g>
<g clip-path="url(#a)">
<use x="1066.899829" y="880.921532" fill="#ffffff" stroke="#ffffff" xlink:href="#b"/>
</g>
<g clip-path="url(#a)">
<use x="491.779858" y="880.921532" fill="#ffffff" stroke="#ffffff" xlink:href="#b"/>
</g>
<g clip-path="url(#a)">
<use x="601.575489" y="715.943158" fill="#ffffff" stroke="#ffffff" xlink:href="#b"/>
</g>
<g clip-path="url(#a)">
<use x="188.534783" y="880.921532" fill="#ffffff" stroke="#ffffff" xlink:href="#b"/>
</g>
<g clip-path="url(#a)">
<use x="220.950636" y="880.921532" fill="#ffffff" stroke="#ffffff" xlink:href="#b"/>
</g>
<g clip-path="url(#a)">
<use x="296.122883" y="550.099487" fill="#ffffff" stroke="#ffffff" xlink:href="#b"/>
</g>
<g clip-path="url(#a)">
<use x="257.54918" y="880.921532" fill="#ffffff" stroke="#ffffff" xlink:href="#b"/>
</g>
<g clip-path="url(#a)">
<use x="284.736669" y="880.921532" fill="#ffffff" stroke="#ffffff" xlink:href="#b"/>
</g>
<g clip-path="url(#a)">
<use x="346.082799" y="715.943158" fill="#ffffff" stroke="#ffffff" xlink:href="#b"/>
</g>
<g clip-path="url(#a)">
<use x="314.015504" y="880.921532" fill="#ffffff" stroke="#ffffff" xlink:href="#b"/>
</g>
<g clip-path="url(#a)">
<use x="345.385684" y="880.921532" fill="#ffffff" stroke="#ffffff" xlink:href="#b"/>
</g>
<g clip-path="url(#a)">
<use x="378.84721" y="880.921532" fill="#ffffff" stroke="#ffffff" xlink:href="#b"/>
</g>
<g clip-path="url(#a)">
<use x="123.238334" y="550.099487" fill="#ffffff" stroke="#ffffff" xlink:href="#b"/>
</g>
<g clip-path="url(#a)">
<use x="100.698278" y="880.921532" fill="#ffffff" stroke="#ffffff" xlink:href="#b"/>
</g>
<g clip-path="url(#a)">
<use x="120.217502" y="715.943158" fill="#ffffff" stroke="#ffffff" xlink:href="#b"/>
</g>
<g clip-path="url(#a)">
<use x="148.799221" y="880.921532" fill="#ffffff" stroke="#ffffff" xlink:href="#b"/>
</g>
<g clip-path="url(#a)">
<use x="109.06366" y="880.921532" fill="#ffffff" stroke="#ffffff" xlink:href="#b"/>
</g>
<g clip-path="url(#a)">
<use x="132.068459" y="880.921532" fill="#ffffff" stroke="#ffffff" xlink:href="#b"/>
</g>
<g clip-path="url(#a)">
<use x="119.520387" y="880.921532" fill="#ffffff" stroke="#ffffff" xlink:href="#b"/>
</g>
<g clip-path="url(#a)">
<use x="169.712675" y="880.921532" fill="#ffffff" stroke="#ffffff" xlink:href="#b"/>
</g>
<g clip-path="url(#a)">
<use x="414.400081" y="880.921532" fill="#ffffff" stroke="#ffffff" xlink:href="#b"/>
</g>
<g clip-path="url(#a)">
<use x="623.534615" y="880.921532" fill="#ffffff" stroke="#ffffff" xlink:href="#b"/>
</g>
<g clip-path="url(#a)">
<use x="721.827847" y="880.921532" fill="#ffffff" stroke="#ffffff" xlink:href="#b"/>
</g>
<g clip-path="url(#a)">
<use x="1644.111145" y="880.921532" fill="#ffffff" stroke="#ffffff" xlink:href="#b"/>
</g>
<g clip-path="url(#a)">
<use x="1982.909091" y="880.921532" fill="#ffffff" stroke="#ffffff" xlink:href="#b"/>
</g>
<g clip-path="url(#a)">
<defs>
<path id="ar" d="m37.109 75.984v-7.4844h-8.5938q-4.8281 0-6.7188-1.9531-1.875-1.9531-1.875-7.0312v-4.8281h14.797v-6.9844h-14.797v-47.703h-9.0312v47.703h-8.5938v6.9844h8.5938v3.8125q0 9.125 4.25 13.297 4.25 4.1875 13.469 4.1875z"/>
<path id="n" d="m18.312 70.219v-15.531h18.5v-6.9844h-18.5v-29.688q0-6.6875 1.8281-8.5938t7.4531-1.9062h9.2188v-7.5156h-9.2188q-10.406 0-14.359 3.875-3.9531 3.8906-3.9531 14.141v29.688h-6.5938v6.9844h6.5938v15.531z"/>
</defs>
<g transform="translate(82.42 1046.4) scale(.1 -.1)">
<use xlink:href="#t"/>
<use x="64.783203" xlink:href="#ar"/>
<use x="98.238281" xlink:href="#n"/>
<use x="137.447266" xlink:href="#d"/>
<use x="198.970703" xlink:href="#h"/>
</g>
</g>
<g clip-path="url(#a)">
<defs>
<path id="x" d="m54.891 33.016v-33.016h-8.9844v32.719q0 7.7656-3.0312 11.609-3.0312 3.8594-9.0781 3.8594-7.2812 0-11.484-4.6406-4.2031-4.625-4.2031-12.641v-30.906h-9.0312v75.984h9.0312v-29.797q3.2344 4.9375 7.5938 7.375 4.375 2.4375 10.094 2.4375 9.4219 0 14.25-5.8281 4.8438-5.8281 4.8438-17.156z"/>
</defs>
<g transform="translate(92.493 1046.4) scale(.1 -.1)">
<use xlink:href="#n"/>
<use x="39.208984" xlink:href="#x"/>
<use x="102.587891" xlink:href="#d"/>
</g>
</g>
<g clip-path="url(#a)">
<defs>
<path id="c" d="m12.406 8.2969h16.109v55.625l-17.531-3.5156v8.9844l17.438 3.5156h9.8594v-64.609h16.109v-8.2969h-41.984z"/>
<path id="w" d="m10.984 1.5156v8.9844q3.7188-1.7656 7.5156-2.6875 3.8125-0.92188 7.4844-0.92188 9.7656 0 14.906 6.5625 5.1562 6.5625 5.8906 19.953-2.8281-4.2031-7.1875-6.4531-4.3438-2.25-9.6094-2.25-10.938 0-17.312 6.6094-6.375 6.625-6.375 18.109 0 11.219 6.6406 18 6.6406 6.7969 17.672 6.7969 12.656 0 19.312-9.7031 6.6719-9.6875 6.6719-28.141 0-17.234-8.1875-27.516-8.1719-10.281-21.984-10.281-3.7188 0-7.5312 0.73438-3.7969 0.73438-7.9062 2.2031zm19.625 30.906q6.6406 0 10.516 4.5312 3.8906 4.5469 3.8906 12.469 0 7.8594-3.8906 12.422-3.875 4.5625-10.516 4.5625t-10.516-4.5625-3.875-12.422q0-7.9219 3.875-12.469 3.875-4.5312 10.516-4.5312z"/>
<path id="q" d="m37.797 64.312-24.906-38.922h24.906zm-2.5938 8.5938h12.406v-47.516h10.406v-8.2031h-10.406v-17.188h-9.8125v17.188h-32.906v9.5156z"/>
</defs>
<g transform="translate(96.339 1046.4) scale(.1 -.1)">
<use xlink:href="#c"/>
<use x="63.623047" xlink:href="#w"/>
<use x="127.246094" xlink:href="#w"/>
<use x="190.869141" xlink:href="#q"/>
</g>
</g>
<g clip-path="url(#a)">
<defs>
<path id="aq" d="m4.8906 31.391h26.312v-8h-26.312z"/>
</defs>
<g transform="translate(117.72 1046.4) scale(.1 -.1)">
<use xlink:href="#aq"/>
</g>
</g>
<g clip-path="url(#a)">
<defs>
<path id="m" d="m10.797 72.906h38.719v-8.3125h-29.688v-17.859q2.1406 0.73438 4.2812 1.0938 2.1562 0.35938 4.3125 0.35938 12.203 0 19.328-6.6875 7.1406-6.6875 7.1406-18.109 0-11.766-7.3281-18.297-7.3281-6.5156-20.656-6.5156-4.5938 0-9.3594 0.78125-4.75 0.78125-9.8281 2.3438v9.9219q4.3906-2.3906 9.0781-3.5625t9.9062-1.1719q8.4531 0 13.375 4.4375 4.9375 4.4375 4.9375 12.062 0 7.6094-4.9375 12.047-4.9219 4.4531-13.375 4.4531-3.9531 0-7.8906-0.875-3.9219-0.875-8.0156-2.7344z"/>
</defs>
<g transform="translate(125.71 1046.4) scale(.1 -.1)">
<use xlink:href="#w"/>
<use x="63.623047" xlink:href="#m"/>
</g>
</g>
<g clip-path="url(#a)">
<defs>
<path id="ab" d="m44.281 53.078v-8.5q-3.7969 1.9531-7.9062 2.9219-4.0938 0.98438-8.5 0.98438-6.6875 0-10.031-2.0469t-3.3438-6.1562q0-3.125 2.3906-4.9062t9.625-3.3906l3.0781-0.6875q9.5625-2.0469 13.594-5.7812t4.0312-10.422q0-7.625-6.0312-12.078-6.0312-4.4375-16.578-4.4375-4.3906 0-9.1562 0.85938t-10.031 2.5625v9.2812q4.9844-2.5938 9.8125-3.8906 4.8281-1.2812 9.5781-1.2812 6.3438 0 9.75 2.1719 3.4219 2.1719 3.4219 6.125 0 3.6562-2.4688 5.6094-2.4531 1.9531-10.812 3.7656l-3.125 0.73438q-8.3438 1.75-12.062 5.3906-3.7031 3.6406-3.7031 9.9844 0 7.7188 5.4688 11.906 5.4688 4.2031 15.531 4.2031 4.9688 0 9.3594-0.73438 4.4062-0.71875 8.1094-2.1875z"/>
<path id="s" d="m30.609 48.391q-7.2188 0-11.422-5.6406t-4.2031-15.453 4.1719-15.453q4.1875-5.6406 11.453-5.6406 7.1875 0 11.375 5.6562 4.2031 5.6719 4.2031 15.438 0 9.7188-4.2031 15.406-4.1875 5.6875-11.375 5.6875zm0 7.6094q11.719 0 18.406-7.625 6.7031-7.6094 6.7031-21.078 0-13.422-6.7031-21.078-6.6875-7.6406-18.406-7.6406-11.766 0-18.438 7.6406-6.6562 7.6562-6.6562 21.078 0 13.469 6.6562 21.078 6.6719 7.625 18.438 7.625z"/>
</defs>
<g transform="translate(131.22 1046.4) scale(.1 -.1)">
<use xlink:href="#ab"/>
<use x="52.099609" xlink:href="#d"/>
<use x="113.623047" xlink:href="#f"/>
<use x="174.902344" xlink:href="#ab"/>
<use x="227.001953" xlink:href="#s"/>
<use x="288.183594" xlink:href="#e"/>
</g>
</g>
<g clip-path="url(#a)">
<defs>
<path id="ak" d="m11.719 12.406h10.297v-8.4062l-8-15.625h-6.2969l4 15.625z"/>
</defs>
<g transform="translate(168.12 1046.4) scale(.1 -.1)">
<use xlink:href="#ak"/>
</g>
</g>
<g clip-path="url(#a)">
<defs>
<path id="ai" d="m48.781 52.594v-8.4062q-3.8125 2.1094-7.6406 3.1562t-7.7344 1.0469q-8.75 0-13.594-5.5469-4.8281-5.5312-4.8281-15.547t4.8281-15.562q4.8438-5.5312 13.594-5.5312 3.9062 0 7.7344 1.0469t7.6406 3.1562v-8.3125q-3.7656-1.75-7.7969-2.625-4.0156-0.89062-8.5625-0.89062-12.359 0-19.641 7.7656-7.2656 7.7656-7.2656 20.953 0 13.375 7.3438 21.031 7.3594 7.6719 20.156 7.6719 4.1406 0 8.0938-0.85938 3.9531-0.84375 7.6719-2.5469z"/>
</defs>
<g transform="translate(162.66 1046.4) scale(.1 -.1)">
<use xlink:href="#ad"/>
<use x="75.195312" xlink:href="#d"/>
<use x="136.71875" xlink:href="#f"/>
<use x="197.998047" xlink:href="#n"/>
<use x="237.207031" xlink:href="#x"/>
<use x="300.585938" xlink:href="#ai"/>
<use x="355.566406" xlink:href="#s"/>
<use x="416.748047" xlink:href="#n"/>
<use x="455.957031" xlink:href="#d"/>
</g>
</g>
<g clip-path="url(#a)">
<defs>
<path id="am" d="m18.109 8.2031v-29h-9.0312v75.484h9.0312v-8.2969q2.8438 4.875 7.1562 7.2344 4.3281 2.375 10.328 2.375 9.9688 0 16.188-7.9062 6.2344-7.9062 6.2344-20.797t-6.2344-20.812q-6.2188-7.9062-16.188-7.9062-6 0-10.328 2.375-4.3125 2.375-7.1562 7.25zm30.578 19.094q0 9.9062-4.0781 15.547t-11.203 5.6406q-7.1406 0-11.219-5.6406t-4.0781-15.547 4.0781-15.547 11.219-5.6406q7.125 0 11.203 5.6406t4.0781 15.547z"/>
<path id="ah" d="m45.406 46.391v29.594h8.9844v-75.984h-8.9844v8.2031q-2.8281-4.875-7.1562-7.25-4.3125-2.375-10.375-2.375-9.9062 0-16.141 7.9062-6.2188 7.9219-6.2188 20.812t6.2188 20.797q6.2344 7.9062 16.141 7.9062 6.0625 0 10.375-2.375 4.3281-2.3594 7.1562-7.2344zm-30.609-19.094q0-9.9062 4.0781-15.547t11.203-5.6406 11.219 5.6406q4.1094 5.6406 4.1094 15.547t-4.1094 15.547q-4.0938 5.6406-11.219 5.6406t-11.203-5.6406-4.0781-15.547z"/>
</defs>
<g transform="translate(189.21 1046.4) scale(.1 -.1)">
<use xlink:href="#ab"/>
<use x="52.099609" xlink:href="#n"/>
<use x="91.308594" xlink:href="#d"/>
<use x="152.832031" xlink:href="#am"/>
<use x="216.308594" xlink:href="#am"/>
<use x="279.785156" xlink:href="#d"/>
<use x="341.308594" xlink:href="#ah"/>
</g>
</g>
<g clip-path="url(#a)">
<defs>
<path id="ay" d="m4.2031 54.688h8.9844l11.234-42.672 11.172 42.672h10.594l11.234-42.672 11.188 42.672h8.9844l-14.312-54.688h-10.594l-11.766 44.828-11.812-44.828h-10.609z"/>
</defs>
<g transform="translate(218.96 1046.4) scale(.1 -.1)">
<use xlink:href="#ah"/>
<use x="63.476562" xlink:href="#s"/>
<use x="124.658203" xlink:href="#ay"/>
<use x="206.445312" xlink:href="#e"/>
</g>
</g>
<g clip-path="url(#a)">
<g transform="translate(251.88 1046.4) scale(.1 -.1)">
<use xlink:href="#f"/>
<use x="61.279297" xlink:href="#ab"/>
</g>
</g>
<g clip-path="url(#a)">
<g transform="translate(269.95 1046.4) scale(.1 -.1)">
<use xlink:href="#ai"/>
<use x="54.980469" xlink:href="#s"/>
<use x="116.162109" xlink:href="#f"/>
<use x="177.441406" xlink:href="#ai"/>
<use x="232.421875" xlink:href="#x"/>
</g>
</g>
<g clip-path="url(#a)">
<g transform="translate(309.2 1046.4) scale(.1 -.1)">
<use xlink:href="#s"/>
<use x="61.181641" xlink:href="#ar"/>
</g>
</g>
<g clip-path="url(#a)">
<g transform="translate(337.18 1046.4) scale(.1 -.1)">
<use xlink:href="#n"/>
<use x="39.208984" xlink:href="#x"/>
<use x="102.587891" xlink:href="#d"/>
</g>
</g>
<g clip-path="url(#a)">
<defs>
<path id="ap" d="m53.516 70.516v-9.625q-5.6094 2.6875-10.594 4-4.9844 1.3281-9.625 1.3281-8.0469 0-12.422-3.125t-4.375-8.8906q0-4.8438 2.9062-7.3125 2.9062-2.4531 11.016-3.9688l5.9531-1.2188q11.031-2.1094 16.281-7.4062t5.25-14.172q0-10.609-7.1094-16.078-7.0938-5.4688-20.812-5.4688-5.1719 0-11.016 1.1719-5.8281 1.1719-12.078 3.4688v10.156q6-3.3594 11.766-5.0781 5.7656-1.7031 11.328-1.7031 8.4375 0 13.031 3.3125 4.5938 3.3281 4.5938 9.4844 0 5.3594-3.2969 8.3906t-10.812 4.5469l-6.0156 1.1719q-11.031 2.1875-15.969 6.875-4.9219 4.6875-4.9219 13.047 0 9.6719 6.8125 15.234t18.766 5.5625q5.1406 0 10.453-0.9375 5.3281-0.92188 10.891-2.7656z"/>
</defs>
<g transform="translate(356.58 1046.4) scale(.1 -.1)">
<use xlink:href="#ap"/>
<use x="63.476562" xlink:href="#am"/>
<use x="126.953125" xlink:href="#f"/>
<use x="188.232422" xlink:href="#h"/>
<use x="229.345703" xlink:href="#n"/>
<use x="268.554688" xlink:href="#f"/>
<use x="329.833984" xlink:href="#e"/>
<use x="393.212891" xlink:href="#ab"/>
</g>
</g>
<g clip-path="url(#a)">
<g transform="translate(412.81 1046.4) scale(.1 -.1)">
<use xlink:href="#ak"/>
</g>
</g>
<g clip-path="url(#a)">
<g transform="translate(442.64 1046.4) scale(.1 -.1)">
<use xlink:href="#f"/>
<use x="61.279297" xlink:href="#e"/>
<use x="124.658203" xlink:href="#ah"/>
</g>
</g>
<g clip-path="url(#a)">
<g transform="translate(485.55 1046.4) scale(.1 -.1)">
<use xlink:href="#s"/>
<use x="61.181641" xlink:href="#e"/>
</g>
</g>
<g clip-path="url(#a)">
<defs>
<path id="ao" d="m9.8125 72.906h9.8594v-67.828q0-13.188-5-19.141t-16.094-5.9531h-3.75v8.2969h3.0781q6.5312 0 9.2188 3.6719 2.6875 3.6562 2.6875 13.125z"/>
<path id="al" d="m8.5 21.578v33.109h8.9844v-32.766q0-7.7656 3.0156-11.656 3.0312-3.875 9.0938-3.875 7.2656 0 11.484 4.6406 4.2344 4.6406 4.2344 12.656v31h8.9844v-54.688h-8.9844v8.4062q-3.2656-4.9844-7.5938-7.4062-4.3125-2.4219-10.031-2.4219-9.4219 0-14.312 5.8594-4.875 5.8594-4.875 17.141z"/>
</defs>
<g transform="translate(522.72 1046.4) scale(.1 -.1)">
<use xlink:href="#ao"/>
<use x="29.492188" xlink:href="#al"/>
<use x="92.871094" xlink:href="#e"/>
<use x="156.25" xlink:href="#d"/>
</g>
</g>
<g clip-path="url(#a)">
<defs>
<path id="aa" d="m31.781 34.625q-7.0312 0-11.062-3.7656-4.0156-3.7656-4.0156-10.344 0-6.5938 4.0156-10.359 4.0312-3.7656 11.062-3.7656t11.078 3.7812q4.0625 3.7969 4.0625 10.344 0 6.5781-4.0312 10.344-4.0156 3.7656-11.109 3.7656zm-9.8594 4.1875q-6.3438 1.5625-9.8906 5.9062-3.5312 4.3594-3.5312 10.609 0 8.7344 6.2188 13.812 6.2344 5.0781 17.062 5.0781 10.891 0 17.094-5.0781t6.2031-13.812q0-6.25-3.5469-10.609-3.5312-4.3438-9.8281-5.9062 7.125-1.6562 11.094-6.5 3.9844-4.8281 3.9844-11.797 0-10.609-6.4688-16.281-6.4688-5.6562-18.531-5.6562-12.047 0-18.531 5.6562-6.4688 5.6719-6.4688 16.281 0 6.9688 4 11.797 4.0156 4.8438 11.141 6.5zm-3.6094 15.578q0-5.6562 3.5312-8.8281 3.5469-3.1719 9.9375-3.1719 6.3594 0 9.9375 3.1719 3.5938 3.1719 3.5938 8.8281 0 5.6719-3.5938 8.8438-3.5781 3.1719-9.9375 3.1719-6.3906 0-9.9375-3.1719-3.5312-3.1719-3.5312-8.8438z"/>
</defs>
<g transform="translate(574.34 1046.4) scale(.1 -.1)">
<use xlink:href="#aa"/>
</g>
</g>
<g clip-path="url(#a)">
<g transform="translate(621.95 1046.4) scale(.1 -.1)">
<use xlink:href="#ak"/>
</g>
</g>
<g clip-path="url(#a)">
<g transform="translate(658.91 1046.4) scale(.1 -.1)">
<use xlink:href="#c"/>
<use x="63.623047" xlink:href="#w"/>
<use x="127.246094" xlink:href="#w"/>
<use x="190.869141" xlink:href="#m"/>
</g>
</g>
<g clip-path="url(#a)">
<g transform="translate(720.24 1046.4) scale(.1 -.1)">
<use xlink:href="#ak"/>
</g>
</g>
<g clip-path="url(#a)">
<g transform="translate(754.41 1046.4) scale(.1 -.1)">
<use xlink:href="#ao"/>
<use x="29.492188" xlink:href="#s"/>
<use x="90.673828" xlink:href="#x"/>
<use x="154.052734" xlink:href="#e"/>
<use x="217.431641" xlink:href="#ab"/>
<use x="269.53125" xlink:href="#s"/>
<use x="330.712891" xlink:href="#e"/>
</g>
</g>
<g clip-path="url(#a)">
<g transform="translate(806.95 1046.4) scale(.1 -.1)">
<use xlink:href="#h"/>
<use x="38.863281" xlink:href="#d"/>
<use x="100.386719" xlink:href="#n"/>
<use x="139.595703" xlink:href="#al"/>
<use x="202.974609" xlink:href="#h"/>
<use x="242.337891" xlink:href="#e"/>
<use x="305.716797" xlink:href="#d"/>
<use x="367.240234" xlink:href="#ah"/>
</g>
</g>
<g clip-path="url(#a)">
<g transform="translate(879.93 1046.4) scale(.1 -.1)">
<use xlink:href="#n"/>
<use x="39.208984" xlink:href="#s"/>
</g>
</g>
<g clip-path="url(#a)">
<g transform="translate(935.3 1046.4) scale(.1 -.1)">
<use xlink:href="#n"/>
<use x="39.208984" xlink:href="#x"/>
<use x="102.587891" xlink:href="#d"/>
</g>
</g>
<g clip-path="url(#a)">
<defs>
<path id="aw" d="m19.672 34.812v-26.703h15.828q7.9531 0 11.781 3.2969 3.8438 3.2969 3.8438 10.078 0 6.8438-3.8438 10.078-3.8281 3.25-11.781 3.25zm0 29.984v-21.969h14.609q7.2188 0 10.75 2.7031 3.5469 2.7188 3.5469 8.2812 0 5.5156-3.5469 8.25-3.5312 2.7344-10.75 2.7344zm-9.8594 8.1094h25.203q11.281 0 17.375-4.6875 6.1094-4.6875 6.1094-13.328 0-6.7031-3.125-10.656t-9.1875-4.9219q7.2812-1.5625 11.312-6.5312 4.0312-4.9531 4.0312-12.375 0-9.7656-6.6406-15.094-6.6406-5.3125-18.906-5.3125h-26.172z"/>
</defs>
<g transform="translate(987.16 1046.4) scale(.1 -.1)">
<use xlink:href="#aw"/>
<use x="68.603516" xlink:href="#h"/>
<use x="107.466797" xlink:href="#d"/>
<use x="168.990234" xlink:href="#ab"/>
<use x="221.089844" xlink:href="#j"/>
<use x="248.873047" xlink:href="#k"/>
<use x="276.65625" xlink:href="#e"/>
</g>
</g>
<g clip-path="url(#a)">
<g transform="translate(1050.1 1046.4) scale(.1 -.1)">
<use xlink:href="#p"/>
<use x="69.824219" xlink:href="#d"/>
<use x="131.347656" xlink:href="#e"/>
<use x="194.726562" xlink:href="#n"/>
<use x="233.935547" xlink:href="#d"/>
<use x="295.458984" xlink:href="#h"/>
</g>
</g>
<g clip-path="url(#a)">
<g transform="translate(1126.7 1046.4) scale(.1 -.1)">
<use xlink:href="#n"/>
<use x="39.208984" xlink:href="#s"/>
</g>
</g>
<g clip-path="url(#a)">
<defs>
<path id="ax" d="m32.172-5.0781q-3.7969-9.7656-7.4219-12.734-3.6094-2.9844-9.6562-2.9844h-7.1875v7.5156h5.2812q3.7031 0 5.75 1.7656 2.0625 1.75 4.5469 8.2969l1.6094 4.0938-22.109 53.812h9.5156l17.094-42.766 17.094 42.766h9.5156z"/>
</defs>
<g transform="translate(1188.1 1046.4) scale(.1 -.1)">
<use xlink:href="#am"/>
<use x="63.476562" xlink:href="#j"/>
<use x="91.259766" xlink:href="#f"/>
<use x="152.539062" xlink:href="#ax"/>
</g>
</g>
<g clip-path="url(#a)">
<g transform="translate(1263.1 1046.4) scale(.1 -.1)">
<use xlink:href="#k"/>
<use x="27.783203" xlink:href="#e"/>
</g>
</g>
<g clip-path="url(#a)">
<g transform="translate(1330.6 1046.4) scale(.1 -.1)">
<use xlink:href="#n"/>
<use x="39.208984" xlink:href="#x"/>
<use x="102.587891" xlink:href="#d"/>
</g>
</g>
<g clip-path="url(#a)">
<g transform="translate(1404.2 1046.4) scale(.1 -.1)">
<use xlink:href="#ao"/>
<use x="29.492188" xlink:href="#al"/>
<use x="92.871094" xlink:href="#ah"/>
</g>
</g>
<g clip-path="url(#a)">
<g transform="translate(1461.4 1046.4) scale(.1 -.1)">
<use xlink:href="#ad"/>
<use x="75.195312" xlink:href="#d"/>
<use x="136.71875" xlink:href="#f"/>
<use x="197.998047" xlink:href="#n"/>
<use x="237.207031" xlink:href="#x"/>
<use x="300.585938" xlink:href="#ai"/>
<use x="355.566406" xlink:href="#s"/>
<use x="416.748047" xlink:href="#n"/>
<use x="455.957031" xlink:href="#d"/>
</g>
</g>
<g clip-path="url(#a)">
<g transform="translate(1558.4 1046.4) scale(.1 -.1)">
<use xlink:href="#t"/>
<use x="68.408203" xlink:href="#j"/>
<use x="96.191406" xlink:href="#j"/>
</g>
</g>
<g clip-path="url(#a)">
<g transform="translate(1642.3 1046.4) scale(.1 -.1)">
<use xlink:href="#aq"/>
</g>
</g>
<g clip-path="url(#a)">
<g transform="translate(1715.4 1046.4) scale(.1 -.1)">
<use xlink:href="#ap"/>
<use x="63.476562" xlink:href="#n"/>
<use x="102.685547" xlink:href="#f"/>
<use x="163.964844" xlink:href="#h"/>
</g>
</g>
<g clip-path="url(#a)">
<defs>
<path id="as" d="m48.688 27.297q0 9.9062-4.0781 15.547t-11.203 5.6406q-7.1406 0-11.219-5.6406t-4.0781-15.547 4.0781-15.547 11.219-5.6406q7.125 0 11.203 5.6406t4.0781 15.547zm-30.578 19.094q2.8438 4.875 7.1562 7.2344 4.3281 2.375 10.328 2.375 9.9688 0 16.188-7.9062 6.2344-7.9062 6.2344-20.797t-6.2344-20.812q-6.2188-7.9062-16.188-7.9062-6 0-10.328 2.375-4.3125 2.375-7.1562 7.25v-8.2031h-9.0312v75.984h9.0312z"/>
</defs>
<g transform="translate(1792.2 1046.4) scale(.1 -.1)">
<use xlink:href="#i"/>
<use x="46.333984" xlink:href="#h"/>
<use x="87.447266" xlink:href="#k"/>
<use x="115.230469" xlink:href="#as"/>
<use x="178.707031" xlink:href="#al"/>
<use x="242.085938" xlink:href="#n"/>
<use x="281.294922" xlink:href="#d"/>
</g>
</g>
<g clip-path="url(#a)">
<defs>
<path id="au" d="m59.516 10.406v19.578h-16.109v8.1094h25.875v-31.312q-5.7031-4.0469-12.594-6.125-6.875-2.0781-14.688-2.0781-17.094 0-26.75 9.9844-9.6406 10-9.6406 27.812 0 17.875 9.6406 27.859 9.6562 9.9844 26.75 9.9844 7.125 0 13.547-1.7656 6.4219-1.75 11.844-5.1719v-10.5q-5.4688 4.6406-11.625 6.9844t-12.938 2.3438q-13.391 0-20.109-7.4688-6.7031-7.4688-6.7031-22.266 0-14.75 6.7031-22.219 6.7188-7.4688 20.109-7.4688 5.2188 0 9.3125 0.90625 4.1094 0.90625 7.375 2.8125z"/>
</defs>
<g transform="translate(1880.2 1046.4) scale(.1 -.1)">
<use xlink:href="#au"/>
<use x="77.490234" xlink:href="#f"/>
<use x="138.769531" xlink:href="#l"/>
<use x="236.181641" xlink:href="#d"/>
</g>
</g>
<g clip-path="url(#a)">
<defs>
<path id="g" d="m10.688 12.406h10.312v-12.406h-10.312z"/>
</defs>
<g transform="translate(1981.3 1046.4) scale(.1 -.1)">
<use xlink:href="#g"/>
</g>
</g>
<g clip-path="url(#a)">
<defs>
<path id="u" d="m9.8125 72.906h9.8594v-72.906h-9.8594z"/>
<path id="an" d="m9.8125 72.906h14.703l18.594-49.609 18.703 49.609h14.703v-72.906h-9.625v64.016l-18.797-50h-9.9062l-18.797 50v-64.016h-9.5781z"/>
</defs>
<g transform="translate(131.9 552.86) scale(.1 -.1)">
<use xlink:href="#u"/>
<use x="29.492188" xlink:href="#an"/>
<use x="115.771484" xlink:href="#v"/>
<use x="176.074219" xlink:href="#ac"/>
<use x="231.787109" xlink:href="#u"/>
<use x="261.279297" xlink:href="#p"/>
<use x="331.103516" xlink:href="#u"/>
<use x="360.595703" xlink:href="#i"/>
</g>
</g>
<g clip-path="url(#a)">
<g transform="translate(131.9 552.86) scale(.1 -.1)">
<use xlink:href="#u"/>
<use x="29.492188" xlink:href="#an"/>
<use x="115.771484" xlink:href="#v"/>
<use x="176.074219" xlink:href="#ac"/>
<use x="231.787109" xlink:href="#u"/>
<use x="261.279297" xlink:href="#p"/>
<use x="331.103516" xlink:href="#u"/>
<use x="360.595703" xlink:href="#i"/>
</g>
</g>
<g clip-path="url(#a)">
<g transform="translate(113.07 883.68) scale(.1 -.1)">
<use xlink:href="#u"/>
<use x="29.492188" xlink:href="#an"/>
<use x="115.771484" xlink:href="#v"/>
<use x="176.074219" xlink:href="#ac"/>
<use x="231.787109" xlink:href="#u"/>
<use x="261.279297" xlink:href="#p"/>
<use x="331.103516" xlink:href="#u"/>
<use x="360.595703" xlink:href="#i"/>
</g>
</g>
<g clip-path="url(#a)">
<g transform="translate(501.41 52.456) scale(.1 -.1)">
<use xlink:href="#c"/>
<use x="63.623047" xlink:href="#g"/>
<use x="95.410156" xlink:href="#c"/>
</g>
</g>
<g clip-path="url(#a)">
<defs>
<path id="o" d="m19.188 8.2969h34.422v-8.2969h-46.281v8.2969q5.6094 5.8125 15.297 15.594 9.7031 9.7969 12.188 12.641 4.7344 5.3125 6.6094 9 1.8906 3.6875 1.8906 7.25 0 5.8125-4.0781 9.4688-4.0781 3.6719-10.625 3.6719-4.6406 0-9.7969-1.6094-5.1406-1.6094-11-4.8906v9.9688q5.9531 2.3906 11.125 3.6094 5.1875 1.2188 9.4844 1.2188 11.328 0 18.062-5.6719 6.7344-5.6562 6.7344-15.125 0-4.5-1.6875-8.5312-1.6719-4.0156-6.125-9.4844-1.2188-1.4219-7.7656-8.1875-6.5312-6.7656-18.453-18.922z"/>
</defs>
<g transform="translate(86.473 883.68) scale(.1 -.1)">
<use xlink:href="#c"/>
<use x="63.623047" xlink:href="#g"/>
<use x="95.410156" xlink:href="#o"/>
</g>
</g>
<g clip-path="url(#a)">
<defs>
<path id="r" d="m40.578 39.312q7.0781-1.5156 11.047-6.3125 3.9844-4.7812 3.9844-11.812 0-10.781-7.4219-16.703-7.4219-5.9062-21.094-5.9062-4.5781 0-9.4375 0.90625t-10.031 2.7188v9.5156q4.0938-2.3906 8.9688-3.6094 4.8906-1.2188 10.219-1.2188 9.2656 0 14.125 3.6562t4.8594 10.641q0 6.4531-4.5156 10.078-4.5156 3.6406-12.562 3.6406h-8.5v8.1094h8.8906q7.2656 0 11.125 2.9062t3.8594 8.375q0 5.6094-3.9844 8.6094-3.9688 3.0156-11.391 3.0156-4.0625 0-8.7031-0.89062-4.6406-0.875-10.203-2.7188v8.7812q5.625 1.5625 10.531 2.3438t9.25 0.78125q11.234 0 17.766-5.1094 6.5469-5.0938 6.5469-13.781 0-6.0625-3.4688-10.234t-9.8594-5.7812z"/>
</defs>
<g transform="translate(115.29 386.45) scale(.1 -.1)">
<use xlink:href="#c"/>
<use x="63.623047" xlink:href="#g"/>
<use x="95.410156" xlink:href="#r"/>
</g>
</g>
<g clip-path="url(#a)">
<g transform="translate(227.25 386.45) scale(.1 -.1)">
<use xlink:href="#c"/>
<use x="63.623047" xlink:href="#g"/>
<use x="95.410156" xlink:href="#q"/>
</g>
</g>
<g clip-path="url(#a)">
<g transform="translate(444.09 883.68) scale(.1 -.1)">
<use xlink:href="#c"/>
<use x="63.623047" xlink:href="#g"/>
<use x="95.410156" xlink:href="#m"/>
</g>
</g>
<g clip-path="url(#a)">
<defs>
<path id="ag" d="m33.016 40.375q-6.6406 0-10.531-4.5469-3.875-4.5312-3.875-12.438 0-7.8594 3.875-12.438 3.8906-4.5625 10.531-4.5625t10.516 4.5625q3.875 4.5781 3.875 12.438 0 7.9062-3.875 12.438-3.875 4.5469-10.516 4.5469zm19.578 30.922v-8.9844q-3.7188 1.75-7.5 2.6719-3.7812 0.9375-7.5 0.9375-9.7656 0-14.922-6.5938-5.1406-6.5938-5.875-19.922 2.875 4.25 7.2188 6.5156 4.3594 2.2656 9.5781 2.2656 10.984 0 17.359-6.6719 6.375-6.6562 6.375-18.125 0-11.234-6.6406-18.031-6.6406-6.7812-17.672-6.7812-12.656 0-19.344 9.6875-6.6875 9.7031-6.6875 28.109 0 17.281 8.2031 27.562t22.016 10.281q3.7188 0 7.5-0.73438t7.8906-2.1875z"/>
</defs>
<g transform="translate(761.25 386.45) scale(.1 -.1)">
<use xlink:href="#c"/>
<use x="63.623047" xlink:href="#g"/>
<use x="95.410156" xlink:href="#ag"/>
</g>
</g>
<g clip-path="url(#a)">
<defs>
<path id="ae" d="m8.2031 72.906h46.875v-4.2031l-26.469-68.703h-10.297l24.906 64.594h-35.016z"/>
</defs>
<g transform="translate(1123.8 883.68) scale(.1 -.1)">
<use xlink:href="#c"/>
<use x="63.623047" xlink:href="#g"/>
<use x="95.410156" xlink:href="#ae"/>
</g>
</g>
<g clip-path="url(#a)">
<g transform="translate(1186.4 219.62) scale(.1 -.1)">
<use xlink:href="#c"/>
<use x="63.623047" xlink:href="#g"/>
<use x="95.410156" xlink:href="#aa"/>
</g>
</g>
<g clip-path="url(#a)">
<g transform="translate(1187.5 883.68) scale(.1 -.1)">
<use xlink:href="#c"/>
<use x="63.623047" xlink:href="#g"/>
<use x="95.410156" xlink:href="#c"/>
<use x="159.033203" xlink:href="#o"/>
</g>
</g>
<g clip-path="url(#a)">
<g transform="translate(1599.1 386.45) scale(.1 -.1)">
<use xlink:href="#c"/>
<use x="63.623047" xlink:href="#g"/>
<use x="95.410156" xlink:href="#c"/>
<use x="159.033203" xlink:href="#r"/>
</g>
</g>
<g clip-path="url(#a)">
<g transform="translate(1256.5 883.68) scale(.1 -.1)">
<use xlink:href="#c"/>
<use x="63.623047" xlink:href="#g"/>
<use x="95.410156" xlink:href="#c"/>
<use x="159.033203" xlink:href="#q"/>
</g>
</g>
<g clip-path="url(#a)">
<g transform="translate(1327.6 883.68) scale(.1 -.1)">
<use xlink:href="#c"/>
<use x="63.623047" xlink:href="#g"/>
<use x="95.410156" xlink:href="#c"/>
<use x="159.033203" xlink:href="#m"/>
</g>
</g>
<g clip-path="url(#a)">
<g transform="translate(1438.5 883.68) scale(.1 -.1)">
<use xlink:href="#c"/>
<use x="63.623047" xlink:href="#g"/>
<use x="95.410156" xlink:href="#c"/>
<use x="159.033203" xlink:href="#ag"/>
</g>
</g>
<g clip-path="url(#a)">
<g transform="translate(1715.9 552.86) scale(.1 -.1)">
<use xlink:href="#c"/>
<use x="63.623047" xlink:href="#g"/>
<use x="95.410156" xlink:href="#c"/>
<use x="159.033203" xlink:href="#ae"/>
</g>
</g>
<g clip-path="url(#a)">
<g transform="translate(1883.9 883.68) scale(.1 -.1)">
<use xlink:href="#c"/>
<use x="63.623047" xlink:href="#g"/>
<use x="95.410156" xlink:href="#c"/>
<use x="159.033203" xlink:href="#aa"/>
</g>
</g>
<g clip-path="url(#a)">
<g transform="translate(1633.7 718.7) scale(.1 -.1)">
<use xlink:href="#c"/>
<use x="63.623047" xlink:href="#g"/>
<use x="95.410156" xlink:href="#c"/>
<use x="159.033203" xlink:href="#w"/>
</g>
</g>
<g clip-path="url(#a)">
<defs>
<path id="aj" d="m31.781 66.406q-7.6094 0-11.453-7.5-3.8281-7.4844-3.8281-22.531 0-14.984 3.8281-22.484 3.8438-7.5 11.453-7.5 7.6719 0 11.5 7.5 3.8438 7.5 3.8438 22.484 0 15.047-3.8438 22.531-3.8281 7.5-11.5 7.5zm0 7.8125q12.266 0 18.734-9.7031 6.4688-9.6875 6.4688-28.141 0-18.406-6.4688-28.109-6.4688-9.6875-18.734-9.6875-12.25 0-18.719 9.6875-6.4688 9.7031-6.4688 28.109 0 18.453 6.4688 28.141 6.4688 9.7031 18.719 9.7031z"/>
</defs>
<g transform="translate(1798.2 883.68) scale(.1 -.1)">
<use xlink:href="#c"/>
<use x="63.623047" xlink:href="#g"/>
<use x="95.410156" xlink:href="#o"/>
<use x="159.033203" xlink:href="#aj"/>
</g>
</g>
<g clip-path="url(#a)">
<g transform="translate(535.54 552.86) scale(.1 -.1)">
<use xlink:href="#c"/>
<use x="63.623047" xlink:href="#g"/>
<use x="95.410156" xlink:href="#o"/>
<use x="159.033203" xlink:href="#o"/>
</g>
</g>
<g clip-path="url(#a)">
<g transform="translate(762.98 883.68) scale(.1 -.1)">
<use xlink:href="#c"/>
<use x="63.623047" xlink:href="#g"/>
<use x="95.410156" xlink:href="#o"/>
<use x="159.033203" xlink:href="#r"/>
</g>
</g>
<g clip-path="url(#a)">
<g transform="translate(817.35 883.68) scale(.1 -.1)">
<use xlink:href="#c"/>
<use x="63.623047" xlink:href="#g"/>
<use x="95.410156" xlink:href="#o"/>
<use x="159.033203" xlink:href="#q"/>
</g>
</g>
<g clip-path="url(#a)">
<g transform="translate(963.75 718.7) scale(.1 -.1)">
<use xlink:href="#c"/>
<use x="63.623047" xlink:href="#g"/>
<use x="95.410156" xlink:href="#o"/>
<use x="159.033203" xlink:href="#m"/>
</g>
</g>
<g clip-path="url(#a)">
<g transform="translate(873.82 883.68) scale(.1 -.1)">
<use xlink:href="#c"/>
<use x="63.623047" xlink:href="#g"/>
<use x="95.410156" xlink:href="#o"/>
<use x="159.033203" xlink:href="#ae"/>
</g>
</g>
<g clip-path="url(#a)">
<g transform="translate(932.38 883.68) scale(.1 -.1)">
<use xlink:href="#c"/>
<use x="63.623047" xlink:href="#g"/>
<use x="95.410156" xlink:href="#o"/>
<use x="159.033203" xlink:href="#aa"/>
</g>
</g>
<g clip-path="url(#a)">
<g transform="translate(993.03 883.68) scale(.1 -.1)">
<use xlink:href="#c"/>
<use x="63.623047" xlink:href="#g"/>
<use x="95.410156" xlink:href="#o"/>
<use x="159.033203" xlink:href="#w"/>
</g>
</g>
<g clip-path="url(#a)">
<g transform="translate(1055.8 883.68) scale(.1 -.1)">
<use xlink:href="#c"/>
<use x="63.623047" xlink:href="#g"/>
<use x="95.410156" xlink:href="#r"/>
<use x="159.033203" xlink:href="#aj"/>
</g>
</g>
<g clip-path="url(#a)">
<g transform="translate(480.65 883.68) scale(.1 -.1)">
<use xlink:href="#c"/>
<use x="63.623047" xlink:href="#g"/>
<use x="95.410156" xlink:href="#r"/>
<use x="159.033203" xlink:href="#c"/>
</g>
</g>
<g clip-path="url(#a)">
<g transform="translate(590.44 718.7) scale(.1 -.1)">
<use xlink:href="#c"/>
<use x="63.623047" xlink:href="#g"/>
<use x="95.410156" xlink:href="#r"/>
<use x="159.033203" xlink:href="#o"/>
</g>
</g>
<g clip-path="url(#a)">
<g transform="translate(177.4 883.68) scale(.1 -.1)">
<use xlink:href="#c"/>
<use x="63.623047" xlink:href="#g"/>
<use x="95.410156" xlink:href="#r"/>
<use x="159.033203" xlink:href="#q"/>
</g>
</g>
<g clip-path="url(#a)">
<g transform="translate(209.82 883.68) scale(.1 -.1)">
<use xlink:href="#c"/>
<use x="63.623047" xlink:href="#g"/>
<use x="95.410156" xlink:href="#r"/>
<use x="159.033203" xlink:href="#m"/>
</g>
</g>
<g clip-path="url(#a)">
<g transform="translate(284.99 552.86) scale(.1 -.1)">
<use xlink:href="#c"/>
<use x="63.623047" xlink:href="#g"/>
<use x="95.410156" xlink:href="#r"/>
<use x="159.033203" xlink:href="#ag"/>
</g>
</g>
<g clip-path="url(#a)">
<g transform="translate(246.42 883.68) scale(.1 -.1)">
<use xlink:href="#c"/>
<use x="63.623047" xlink:href="#g"/>
<use x="95.410156" xlink:href="#r"/>
<use x="159.033203" xlink:href="#ae"/>
</g>
</g>
<g clip-path="url(#a)">
<g transform="translate(273.6 883.68) scale(.1 -.1)">
<use xlink:href="#c"/>
<use x="63.623047" xlink:href="#g"/>
<use x="95.410156" xlink:href="#r"/>
<use x="159.033203" xlink:href="#aa"/>
</g>
</g>
<g clip-path="url(#a)">
<g transform="translate(334.95 718.7) scale(.1 -.1)">
<use xlink:href="#c"/>
<use x="63.623047" xlink:href="#g"/>
<use x="95.410156" xlink:href="#r"/>
<use x="159.033203" xlink:href="#w"/>
</g>
</g>
<g clip-path="url(#a)">
<g transform="translate(302.88 883.68) scale(.1 -.1)">
<use xlink:href="#c"/>
<use x="63.623047" xlink:href="#g"/>
<use x="95.410156" xlink:href="#q"/>
<use x="159.033203" xlink:href="#aj"/>
</g>
</g>
<g clip-path="url(#a)">
<g transform="translate(334.25 883.68) scale(.1 -.1)">
<use xlink:href="#c"/>
<use x="63.623047" xlink:href="#g"/>
<use x="95.410156" xlink:href="#q"/>
<use x="159.033203" xlink:href="#c"/>
</g>
</g>
<g clip-path="url(#a)">
<g transform="translate(367.71 883.68) scale(.1 -.1)">
<use xlink:href="#c"/>
<use x="63.623047" xlink:href="#g"/>
<use x="95.410156" xlink:href="#q"/>
<use x="159.033203" xlink:href="#o"/>
</g>
</g>
<g clip-path="url(#a)">
<g transform="translate(112.11 552.86) scale(.1 -.1)">
<use xlink:href="#c"/>
<use x="63.623047" xlink:href="#g"/>
<use x="95.410156" xlink:href="#q"/>
<use x="159.033203" xlink:href="#m"/>
</g>
</g>
<g clip-path="url(#a)">
<g transform="translate(89.565 883.68) scale(.1 -.1)">
<use xlink:href="#c"/>
<use x="63.623047" xlink:href="#g"/>
<use x="95.410156" xlink:href="#q"/>
<use x="159.033203" xlink:href="#ag"/>
</g>
</g>
<g clip-path="url(#a)">
<g transform="translate(109.08 718.7) scale(.1 -.1)">
<use xlink:href="#c"/>
<use x="63.623047" xlink:href="#g"/>
<use x="95.410156" xlink:href="#q"/>
<use x="159.033203" xlink:href="#ae"/>
</g>
</g>
<g clip-path="url(#a)">
<g transform="translate(137.67 883.68) scale(.1 -.1)">
<use xlink:href="#c"/>
<use x="63.623047" xlink:href="#g"/>
<use x="95.410156" xlink:href="#q"/>
<use x="159.033203" xlink:href="#aa"/>
</g>
</g>
<g clip-path="url(#a)">
<g transform="translate(97.931 883.68) scale(.1 -.1)">
<use xlink:href="#c"/>
<use x="63.623047" xlink:href="#g"/>
<use x="95.410156" xlink:href="#m"/>
<use x="159.033203" xlink:href="#aj"/>
</g>
</g>
<g clip-path="url(#a)">
<g transform="translate(120.94 883.68) scale(.1 -.1)">
<use xlink:href="#c"/>
<use x="63.623047" xlink:href="#g"/>
<use x="95.410156" xlink:href="#m"/>
<use x="159.033203" xlink:href="#c"/>
</g>
</g>
<g clip-path="url(#a)">
<g transform="translate(108.39 883.68) scale(.1 -.1)">
<use xlink:href="#c"/>
<use x="63.623047" xlink:href="#g"/>
<use x="95.410156" xlink:href="#m"/>
<use x="159.033203" xlink:href="#o"/>
</g>
</g>
<g clip-path="url(#a)">
<g transform="translate(158.58 883.68) scale(.1 -.1)">
<use xlink:href="#c"/>
<use x="63.623047" xlink:href="#g"/>
<use x="95.410156" xlink:href="#m"/>
<use x="159.033203" xlink:href="#r"/>
</g>
</g>
<g clip-path="url(#a)">
<g transform="translate(403.27 883.68) scale(.1 -.1)">
<use xlink:href="#c"/>
<use x="63.623047" xlink:href="#g"/>
<use x="95.410156" xlink:href="#m"/>
<use x="159.033203" xlink:href="#q"/>
</g>
</g>
<g clip-path="url(#a)">
<g transform="translate(612.4 883.68) scale(.1 -.1)">
<use xlink:href="#c"/>
<use x="63.623047" xlink:href="#g"/>
<use x="95.410156" xlink:href="#m"/>
<use x="159.033203" xlink:href="#m"/>
</g>
</g>
<g clip-path="url(#a)">
<g transform="translate(710.7 883.68) scale(.1 -.1)">
<use xlink:href="#c"/>
<use x="63.623047" xlink:href="#g"/>
<use x="95.410156" xlink:href="#m"/>
<use x="159.033203" xlink:href="#ag"/>
</g>
</g>
<g clip-path="url(#a)">
<g transform="translate(1633 883.68) scale(.1 -.1)">
<use xlink:href="#c"/>
<use x="63.623047" xlink:href="#g"/>
<use x="95.410156" xlink:href="#m"/>
<use x="159.033203" xlink:href="#ae"/>
</g>
</g>
<g clip-path="url(#a)">
<g transform="translate(1971.8 883.68) scale(.1 -.1)">
<use xlink:href="#c"/>
<use x="63.623047" xlink:href="#g"/>
<use x="95.410156" xlink:href="#m"/>
<use x="159.033203" xlink:href="#aa"/>
</g>
</g>
<defs>
<clipPath id="a">
<rect width="2077.3" height="1093.3"/>
</clipPath>
</defs>
</svg>
