<?xml version="1.0" encoding="UTF-8"?>
<!DOCTYPE svg  PUBLIC '-//W3C//DTD SVG 1.1//EN'  'http://www.w3.org/Graphics/SVG/1.1/DTD/svg11.dtd'>
<svg width="1114.7pt" height="586.67pt" version="1.1" viewBox="0 0 1114.7 586.67" xmlns="http://www.w3.org/2000/svg" xmlns:xlink="http://www.w3.org/1999/xlink">
<defs>
<style type="text/css">*{stroke-linecap:butt;stroke-linejoin:round;}</style>
</defs>
<path d="m0 586.67h1114.7v-586.67h-1114.7z" fill="#fff"/>
<g fill="none" stroke="#000">
<path d="m267.92 27.773 200.45 109.98" clip-path="url(#a)"/>
<path d="m267.92 27.773-124.92 427.07" clip-path="url(#a)"/>
<path d="m267.92 27.773-9.8309 217.51" clip-path="url(#a)"/>
<path d="m267.92 27.773-170.96 427.07" clip-path="url(#a)"/>
<path d="m267.92 27.773 105.26 427.07" clip-path="url(#a)"/>
<path d="m468.38 137.75-417.45 317.09" clip-path="url(#a)"/>
<path d="m468.38 137.75-49.154 317.09" clip-path="url(#a)"/>
<path d="m468.38 137.75 58.266 107.53" clip-path="url(#a)"/>
<path d="m468.38 137.75 408.34 107.53" clip-path="url(#a)"/>
<path d="m143 454.84v104.05" clip-path="url(#a)"/>
<path d="m258.09 245.29-69.056 209.55" clip-path="url(#a)"/>
<path d="m258.09 245.29-23.019 209.55" clip-path="url(#a)"/>
<path d="m258.09 245.29 299.24 105.5" clip-path="url(#a)"/>
<path d="m258.09 245.29-207.17 209.55" clip-path="url(#a)" stroke-dasharray="3.7,1.6"/>
<path d="m189.04 454.84v104.05" clip-path="url(#a)"/>
<path d="m235.07 454.84v104.05" clip-path="url(#a)"/>
<path d="m557.33 350.79 506.41 208.11" clip-path="url(#a)"/>
<path d="m557.33 350.79-276.22 104.05" clip-path="url(#a)"/>
<path d="m557.33 350.79-230.19 104.05" clip-path="url(#a)"/>
<path d="m281.11 454.84v104.05" clip-path="url(#a)"/>
<path d="m327.15 454.84v104.05" clip-path="url(#a)"/>
<path d="m50.924 454.84v104.05" clip-path="url(#a)"/>
<path d="m419.22 454.84v104.05" clip-path="url(#a)"/>
<path d="m526.64 245.29-61.383 209.55" clip-path="url(#a)"/>
<path d="m526.64 245.29-15.346 209.55" clip-path="url(#a)"/>
<path d="m526.64 245.29 76.729 105.5" clip-path="url(#a)"/>
<path d="m876.72 245.29-181.27 209.55" clip-path="url(#a)"/>
<path d="m876.72 245.29-31.651 105.5" clip-path="url(#a)"/>
<path d="m876.72 245.29 71.933 209.55" clip-path="url(#a)"/>
<path d="m876.72 245.29 140.99 209.55" clip-path="url(#a)"/>
<path d="m695.44 454.84v104.05" clip-path="url(#a)"/>
<path d="m845.07 350.79 103.58 104.05" clip-path="url(#a)" stroke-dasharray="3.7,1.6"/>
<path d="m845.07 350.79-103.58 104.05" clip-path="url(#a)"/>
<path d="m845.07 350.79-34.528 104.05" clip-path="url(#a)"/>
<path d="m845.07 350.79 34.528 104.05" clip-path="url(#a)"/>
<path d="m948.65 454.84-23.019 104.05" clip-path="url(#a)"/>
<path d="m948.65 454.84 23.019 104.05" clip-path="url(#a)"/>
<path d="m741.48 454.84v104.05" clip-path="url(#a)"/>
<path d="m810.54 454.84-23.019 104.05" clip-path="url(#a)"/>
<path d="m810.54 454.84 23.019 104.05" clip-path="url(#a)"/>
<path d="m96.961 454.84v104.05" clip-path="url(#a)"/>
<path d="m465.26 454.84v104.05" clip-path="url(#a)"/>
<path d="m511.3 454.84v104.05" clip-path="url(#a)"/>
<path d="m603.37 350.79-46.037 208.11" clip-path="url(#a)"/>
<path d="m603.37 350.79 46.037 208.11" clip-path="url(#a)"/>
<path d="m603.37 350.79v104.05" clip-path="url(#a)"/>
<path d="m373.18 454.84v104.05" clip-path="url(#a)"/>
<path d="m603.37 454.84v104.05" clip-path="url(#a)"/>
<path d="m879.59 454.84v104.05" clip-path="url(#a)"/>
<path d="m1017.7 454.84v104.05" clip-path="url(#a)"/>
</g>
<path d="m362.5 86.815 5.2745 2.8939q2.1041 1.1545 3.2586-0.94965l3.7243-6.7879q1.1545-2.1041-0.94965-3.2586l-5.2745-2.8939q-2.1041-1.1545-3.2586 0.94965l-3.7243 6.7879q-1.1545 2.1041 0.94965 3.2586z" clip-path="url(#a)" fill="#fff" stroke="#fff"/>
<g clip-path="url(#a)">
<defs>
<path id="ah" d="m9.8125 72.906h9.8594v-29.891h35.844v29.891h9.8594v-72.906h-9.8594v34.719h-35.844v-34.719h-9.8594z"/>
</defs>
<g transform="translate(364.45 83.252) rotate(28.752) scale(.08 -.08)">
<use xlink:href="#ah"/>
</g>
</g>
<path d="m210.85 245.21 1.2514-4.2782q0.6738-2.3035-1.6297-2.9773l-7.4311-2.1737q-2.3035-0.6738-2.9773 1.6297l-1.2514 4.2782q-0.6738 2.3035 1.6297 2.9773l7.4311 2.1737q2.3035 0.6738 2.9773-1.6297z" clip-path="url(#a)" fill="#fff" stroke="#fff"/>
<g clip-path="url(#a)">
<defs>
<path id="ag" d="m9.8125 72.906h9.8594v-64.609h35.5v-8.2969h-45.359z"/>
</defs>
<g transform="translate(206.95 244.07) rotate(-73.695) scale(.08 -.08)">
<use xlink:href="#ag"/>
</g>
</g>
<path d="m269.14 139.82 0.27164-6.0101q0.10836-2.3976-2.2892-2.5059l-7.7346-0.34958q-2.3976-0.10836-2.5059 2.2892l-0.27164 6.0101q-0.10836 2.3976 2.2892 2.5059l7.7346 0.34958q2.3976 0.10836 2.5059-2.2892z" clip-path="url(#a)" fill="#fff" stroke="#fff"/>
<g clip-path="url(#a)">
<g transform="translate(265.08 139.63) rotate(-87.412) scale(.08 -.08)">
<use xlink:href="#ah"/>
</g>
</g>
<path d="m187.18 246.36 2.176-5.4356q0.89194-2.2281-1.3362-3.12l-7.188-2.8774q-2.2281-0.89194-3.12 1.3362l-2.176 5.4356q-0.89194 2.2281 1.3362 3.12l7.188 2.8774q2.2281 0.89194 3.12-1.3362z" clip-path="url(#a)" fill="#fff" stroke="#fff"/>
<g clip-path="url(#a)">
<defs>
<path id="p" d="m8.6875 72.906h9.9219v-44.297q0-11.719 4.2344-16.875 4.25-5.1406 13.781-5.1406 9.4688 0 13.719 5.1406 4.25 5.1562 4.25 16.875v44.297h9.9062v-45.516q0-14.25-7.0625-21.531-7.0469-7.2812-20.812-7.2812-13.828 0-20.891 7.2812-7.0469 7.2812-7.0469 21.531z"/>
</defs>
<g transform="translate(183.4 244.84) rotate(-68.183) scale(.08 -.08)">
<use xlink:href="#p"/>
</g>
</g>
<path d="m313.76 239.97 1.4012 5.6849q0.57435 2.3303 2.9046 1.7559l7.5175-1.8529q2.3303-0.57435 1.7559-2.9046l-1.4012-5.6849q-0.57435-2.3303-2.9046-1.7559l-7.5175 1.8529q-2.3303 0.57435-1.7559 2.9046z" clip-path="url(#a)" fill="#fff" stroke="#fff"/>
<g clip-path="url(#a)">
<g transform="translate(317.71 238.99) rotate(76.154) scale(.08 -.08)">
<use xlink:href="#p"/>
</g>
</g>
<path d="m261.26 302.95 4.3579-3.3101q1.9112-1.4517 0.4595-3.3629l-4.6832-6.1655q-1.4517-1.9112-3.3629-0.4595l-4.3579 3.3101q-1.9112 1.4517-0.4595 3.3629l4.6832 6.1655q1.4517 1.9112 3.3629 0.4595z" clip-path="url(#a)" fill="#fff" stroke="#fff"/>
<g clip-path="url(#a)">
<defs>
<path id="o" d="m34.188 63.188-13.391-36.281h26.812zm-5.5781 9.7188h11.188l27.781-72.906h-10.25l-6.6406 18.703h-32.859l-6.6406-18.703h-10.406z"/>
</defs>
<g transform="translate(258.81 299.71) rotate(-37.219) scale(.08 -.08)">
<use xlink:href="#o"/>
</g>
</g>
<path d="m449.63 299.64 0.73895-4.7668q0.36765-2.3717-2.004-2.7393l-7.6511-1.1861q-2.3717-0.36765-2.7393 2.004l-0.73895 4.7668q-0.36765 2.3717 2.004 2.7393l7.6511 1.1861q2.3717 0.36765 2.7393-2.004z" clip-path="url(#a)" fill="#fff" stroke="#fff"/>
<g clip-path="url(#a)">
<defs>
<path id="af" d="m19.672 64.797v-27.391h12.406q6.8906 0 10.641 3.5625 3.7656 3.5625 3.7656 10.156 0 6.5469-3.7656 10.109-3.75 3.5625-10.641 3.5625zm-9.8594 8.1094h22.266q12.266 0 18.531-5.5469 6.2812-5.5469 6.2812-16.234 0-10.797-6.2812-16.312-6.2656-5.5156-18.531-5.5156h-12.406v-29.297h-9.8594z"/>
</defs>
<g transform="translate(445.61 299.02) rotate(-81.188) scale(.08 -.08)">
<use xlink:href="#af"/>
</g>
</g>
<path d="m490.69 192.1 2.6071 4.8116q1.1434 2.1101 3.2535 0.96677l6.8074-3.6886q2.1101-1.1434 0.96677-3.2535l-2.6071-4.8116q-1.1434-2.1101-3.2535-0.96677l-6.8074 3.6886q-2.1101 1.1434-0.96677 3.2535z" clip-path="url(#a)" fill="#fff" stroke="#fff"/>
<g clip-path="url(#a)">
<g transform="translate(494.26 190.17) rotate(61.549) scale(.08 -.08)">
<use xlink:href="#o"/>
</g>
</g>
<path d="m668.3 196.89 5.2921 1.3936q2.3209 0.61118 2.9321-1.7097l1.9717-7.4872q0.61118-2.3209-1.7097-2.9321l-5.2921-1.3936q-2.3209-0.61118-2.9321 1.7097l-1.9717 7.4872q-0.61118 2.3209 1.7097 2.9321z" clip-path="url(#a)" fill="#fff" stroke="#fff"/>
<g clip-path="url(#a)">
<g transform="translate(669.34 192.96) rotate(14.753) scale(.08 -.08)">
<use xlink:href="#o"/>
</g>
</g>
<path d="m136.73 489.22v35.285q0 2.4 2.4 2.4h7.7425q2.4 0 2.4-2.4v-35.285q0-2.4-2.4-2.4h-7.7425q-2.4 0-2.4 2.4z" clip-path="url(#a)" fill="#fff" stroke="#fff"/>
<g clip-path="url(#a)">
<defs>
<path id="l" d="m-0.29688 72.906h61.672v-8.3125h-25.875v-64.594h-9.9062v64.594h-25.891z"/>
<path id="f" d="m56.203 29.594v-4.3906h-41.312q0.59375-9.2812 5.5938-14.141t13.938-4.8594q5.1719 0 10.031 1.2656t9.6562 3.8125v-8.5q-4.8438-2.0469-9.9219-3.125t-10.297-1.0781q-13.094 0-20.734 7.6094-7.6406 7.625-7.6406 20.625 0 13.422 7.25 21.297 7.25 7.8906 19.562 7.8906 11.031 0 17.453-7.1094 6.4219-7.0938 6.4219-19.297zm-8.9844 2.6406q-0.09375 7.3594-4.125 11.75-4.0312 4.4062-10.672 4.4062-7.5156 0-12.031-4.25t-5.2031-11.969z"/>
<path id="i" d="m41.109 46.297q-1.5156 0.875-3.2969 1.2812-1.7812 0.42188-3.9219 0.42188-7.625 0-11.703-4.9531t-4.0781-14.234v-28.812h-9.0312v54.688h9.0312v-8.5q2.8438 4.9844 7.375 7.3906 4.5469 2.4219 11.047 2.4219 0.92188 0 2.0469-0.125 1.125-0.10938 2.4844-0.35938z"/>
<path id="k" d="m52 44.188q3.375 6.0625 8.0625 8.9375t11.031 2.875q8.5469 0 13.188-5.9844 4.6406-5.9688 4.6406-17v-33.016h-9.0312v32.719q0 7.8594-2.7969 11.656-2.7812 3.8125-8.4844 3.8125-6.9844 0-11.047-4.6406-4.0469-4.625-4.0469-12.641v-30.906h-9.0312v32.719q0 7.9062-2.7812 11.688t-8.5938 3.7812q-6.8906 0-10.953-4.6562-4.0469-4.6562-4.0469-12.625v-30.906h-9.0312v54.688h9.0312v-8.5q3.0781 5.0312 7.375 7.4219t10.203 2.3906q5.9688 0 10.141-3.0312 4.1719-3.0156 6.1719-8.7812z"/>
<path id="e" d="m9.4219 54.688h8.9844v-54.688h-8.9844zm0 21.297h8.9844v-11.391h-8.9844z"/>
<path id="j" d="m54.891 33.016v-33.016h-8.9844v32.719q0 7.7656-3.0312 11.609-3.0312 3.8594-9.0781 3.8594-7.2812 0-11.484-4.6406-4.2031-4.625-4.2031-12.641v-30.906h-9.0312v54.688h9.0312v-8.5q3.2344 4.9375 7.5938 7.375 4.375 2.4375 10.094 2.4375 9.4219 0 14.25-5.8281 4.8438-5.8281 4.8438-17.156z"/>
<path id="d" d="m34.281 27.484q-10.891 0-15.094-2.4844t-4.2031-8.5q0-4.7812 3.1562-7.5938 3.1562-2.7969 8.5625-2.7969 7.4844 0 12 5.2969t4.5156 14.078v2zm17.922 3.7188v-31.203h-8.9844v8.2969q-3.0781-4.9688-7.6719-7.3438t-11.234-2.375q-8.3906 0-13.359 4.7188-4.9531 4.7188-4.9531 12.625 0 9.2188 6.1719 13.906 6.1875 4.6875 18.438 4.6875h12.609v0.89062q0 6.2031-4.0781 9.5938t-11.453 3.3906q-4.6875 0-9.1406-1.125-4.4375-1.125-8.5312-3.375v8.3125q4.9219 1.9062 9.5625 2.8438 4.6406 0.95312 9.0312 0.95312 11.875 0 17.734-6.1562 5.8594-6.1406 5.8594-18.641z"/>
<path id="h" d="m9.4219 75.984h8.9844v-75.984h-8.9844z"/>
</defs>
<g transform="translate(140.79 489.22) rotate(90) scale(.08 -.08)">
<use xlink:href="#l"/>
<use x="60.818359" xlink:href="#f"/>
<use x="122.341797" xlink:href="#i"/>
<use x="163.439453" xlink:href="#k"/>
<use x="260.851562" xlink:href="#e"/>
<use x="288.634766" xlink:href="#j"/>
<use x="352.013672" xlink:href="#d"/>
<use x="413.292969" xlink:href="#h"/>
</g>
</g>
<path d="m228.8 354.21 1.4401-4.3701q0.75116-2.2794-1.5283-3.0306l-7.3535-2.4233q-2.2794-0.75115-3.0306 1.5283l-1.4401 4.3701q-0.75115 2.2794 1.5283 3.0306l7.3535 2.4233q2.2794 0.75116 3.0306-1.5283z" clip-path="url(#a)" fill="#fff" stroke="#fff"/>
<g clip-path="url(#a)">
<defs>
<path id="ai" d="m9.8125 72.906h41.891v-8.3125h-32.031v-21.484h28.906v-8.2969h-28.906v-34.812h-9.8594z"/>
</defs>
<g transform="translate(224.94 352.94) rotate(-71.761) scale(.08 -.08)">
<use xlink:href="#ai"/>
</g>
</g>
<path d="m252.54 353.27 0.55454-5.0484q0.26205-2.3856-2.1236-2.6477l-7.6962-0.8454q-2.3856-0.26205-2.6477 2.1236l-0.55454 5.0484q-0.26205 2.3857 2.1236 2.6477l7.6962 0.8454q2.3857 0.26205 2.6477-2.1236z" clip-path="url(#a)" fill="#fff" stroke="#fff"/>
<g clip-path="url(#a)">
<defs>
<path id="r" d="m53.516 70.516v-9.625q-5.6094 2.6875-10.594 4-4.9844 1.3281-9.625 1.3281-8.0469 0-12.422-3.125t-4.375-8.8906q0-4.8438 2.9062-7.3125 2.9062-2.4531 11.016-3.9688l5.9531-1.2188q11.031-2.1094 16.281-7.4062t5.25-14.172q0-10.609-7.1094-16.078-7.0938-5.4688-20.812-5.4688-5.1719 0-11.016 1.1719-5.8281 1.1719-12.078 3.4688v10.156q6-3.3594 11.766-5.0781 5.7656-1.7031 11.328-1.7031 8.4375 0 13.031 3.3125 4.5938 3.3281 4.5938 9.4844 0 5.3594-3.2969 8.3906t-10.812 4.5469l-6.0156 1.1719q-11.031 2.1875-15.969 6.875-4.9219 4.6875-4.9219 13.047 0 9.6719 6.8125 15.234t18.766 5.5625q5.1406 0 10.453-0.9375 5.3281-0.92188 10.891-2.7656z"/>
</defs>
<g transform="translate(248.5 352.83) rotate(-83.731) scale(.08 -.08)">
<use xlink:href="#r"/>
</g>
</g>
<path d="m402.72 302.93 5.8095 2.0482q2.2634 0.798 3.0614-1.4654l2.5744-7.302q0.798-2.2634-1.4654-3.0614l-5.8095-2.0482q-2.2634-0.798-3.0614 1.4654l-2.5744 7.302q-0.798 2.2634 1.4654 3.0614z" clip-path="url(#a)" fill="#fff" stroke="#fff"/>
<g clip-path="url(#a)">
<defs>
<path id="ao" d="m19.672 64.797v-56.688h11.922q15.094 0 22.094 6.8281 7 6.8438 7 21.594 0 14.641-7 21.453t-22.094 6.8125zm-9.8594 8.1094h20.266q21.188 0 31.094-8.8125 9.9219-8.8125 9.9219-27.562 0-18.859-9.9688-27.703-9.9531-8.8281-31.047-8.8281h-20.266z"/>
</defs>
<g transform="translate(404.07 299.1) rotate(19.421) scale(.08 -.08)">
<use xlink:href="#ao"/>
</g>
</g>
<path d="m157.04 356.42 3.8474-3.8917q1.6873-1.7067-0.019437-3.3941l-5.506-5.4433q-1.7067-1.6873-3.3941 0.019437l-3.8474 3.8917q-1.6873 1.7067 0.019437 3.3941l5.506 5.4433q1.7067 1.6873 3.3941-0.019437z" clip-path="url(#a)" fill="#fff" stroke="#fff"/>
<g clip-path="url(#a)">
<g transform="translate(154.15 353.56) rotate(-45.328) scale(.08 -.08)">
<use xlink:href="#o"/>
</g>
</g>
<path d="m182.76 489.22v35.285q0 2.4 2.4 2.4h7.7425q2.4 0 2.4-2.4v-35.285q0-2.4-2.4-2.4h-7.7425q-2.4 0-2.4 2.4z" clip-path="url(#a)" fill="#fff" stroke="#fff"/>
<g clip-path="url(#a)">
<g transform="translate(186.83 489.22) rotate(90) scale(.08 -.08)">
<use xlink:href="#l"/>
<use x="60.818359" xlink:href="#f"/>
<use x="122.341797" xlink:href="#i"/>
<use x="163.439453" xlink:href="#k"/>
<use x="260.851562" xlink:href="#e"/>
<use x="288.634766" xlink:href="#j"/>
<use x="352.013672" xlink:href="#d"/>
<use x="413.292969" xlink:href="#h"/>
</g>
</g>
<path d="m228.8 489.22v35.285q0 2.4 2.4 2.4h7.7425q2.4 0 2.4-2.4v-35.285q0-2.4-2.4-2.4h-7.7425q-2.4 0-2.4 2.4z" clip-path="url(#a)" fill="#fff" stroke="#fff"/>
<g clip-path="url(#a)">
<g transform="translate(232.87 489.22) rotate(90) scale(.08 -.08)">
<use xlink:href="#l"/>
<use x="60.818359" xlink:href="#f"/>
<use x="122.341797" xlink:href="#i"/>
<use x="163.439453" xlink:href="#k"/>
<use x="260.851562" xlink:href="#e"/>
<use x="288.634766" xlink:href="#j"/>
<use x="352.013672" xlink:href="#d"/>
<use x="413.292969" xlink:href="#h"/>
</g>
</g>
<path d="m805.57 459.58 5.167 2.1233q2.2199 0.91224 3.1321-1.3076l2.9429-7.1614q0.91224-2.2199-1.3076-3.1321l-5.167-2.1233q-2.2199-0.91224-3.1321 1.3076l-2.9429 7.1614q-0.91224 2.2199 1.3076 3.1321z" clip-path="url(#a)" fill="#fff" stroke="#fff"/>
<g clip-path="url(#a)">
<defs>
<path id="s" d="m64.406 67.281v-10.391q-4.9844 4.6406-10.625 6.9219-5.6406 2.2969-11.984 2.2969-12.5 0-19.141-7.6406t-6.6406-22.094q0-14.406 6.6406-22.047t19.141-7.6406q6.3438 0 11.984 2.2969t10.625 6.9375v-10.312q-5.1719-3.5156-10.969-5.2812-5.7812-1.75-12.219-1.75-16.562 0-26.094 10.125-9.5156 10.141-9.5156 27.672 0 17.578 9.5156 27.703 9.5312 10.141 26.094 10.141 6.5312 0 12.312-1.7344 5.7969-1.7344 10.875-5.2031z"/>
</defs>
<g transform="translate(807.12 455.82) rotate(22.34) scale(.08 -.08)">
<use xlink:href="#s"/>
</g>
</g>
<path d="m418.83 409.66 5.2019-1.9596q2.2459-0.84604 1.3999-3.092l-2.7294-7.2455q-0.84604-2.2459-3.092-1.3999l-5.2019 1.9596q-2.2459 0.84604-1.3999 3.092l2.7294 7.2455q0.84604 2.2459 3.092 1.3999z" clip-path="url(#a)" fill="#fff" stroke="#fff"/>
<g clip-path="url(#a)">
<defs>
<path id="w" d="m44.391 34.188q3.1719-1.0781 6.1719-4.5938t6.0312-9.6719l10.016-19.922h-10.609l-9.3125 18.703q-3.625 7.3281-7.0156 9.7188t-9.25 2.3906h-10.75v-30.812h-9.8594v72.906h22.266q12.5 0 18.656-5.2344 6.1562-5.2188 6.1562-15.766 0-6.8906-3.2031-11.438-3.2031-4.5312-9.2969-6.2812zm-24.719 30.609v-25.875h12.406q7.125 0 10.766 3.2969t3.6406 9.6875-3.6406 9.6406-10.766 3.25z"/>
</defs>
<g transform="translate(417.4 405.86) rotate(-20.641) scale(.08 -.08)">
<use xlink:href="#w"/>
</g>
</g>
<path d="m441.95 409.83 5.7384-2.594q2.1869-0.98858 1.1984-3.1755l-3.1892-7.0552q-0.98858-2.1869-3.1755-1.1984l-5.7384 2.594q-2.1869 0.98858-1.1984 3.1755l3.1892 7.0552q0.98858 2.1869 3.1755 1.1984z" clip-path="url(#a)" fill="#fff" stroke="#fff"/>
<g clip-path="url(#a)">
<defs>
<path id="am" d="m39.406 66.219q-10.75 0-17.078-8.0156-6.3125-8-6.3125-21.828 0-13.766 6.3125-21.781 6.3281-8 17.078-8 10.734 0 17.016 8 6.2812 8.0156 6.2812 21.781 0 13.828-6.2812 21.828-6.2812 8.0156-17.016 8.0156zm13.812-64.906 13-14.203h-11.922l-10.797 11.672q-1.6094-0.09375-2.4688-0.14062-0.84375-0.0625-1.625-0.0625-15.375 0-24.594 10.281-9.2031 10.281-9.2031 27.516 0 17.281 9.2031 27.562 9.2188 10.281 24.594 10.281 15.328 0 24.5-10.281 9.1875-10.281 9.1875-27.562 0-12.688-5.1094-21.734-5.0938-9.0312-14.766-13.328z"/>
</defs>
<g transform="translate(440.28 406.12) rotate(-24.325) scale(.08 -.08)">
<use xlink:href="#am"/>
</g>
</g>
<path d="m274.84 489.22v35.285q0 2.4 2.4 2.4h7.7425q2.4 0 2.4-2.4v-35.285q0-2.4-2.4-2.4h-7.7425q-2.4 0-2.4 2.4z" clip-path="url(#a)" fill="#fff" stroke="#fff"/>
<g clip-path="url(#a)">
<g transform="translate(278.9 489.22) rotate(90) scale(.08 -.08)">
<use xlink:href="#l"/>
<use x="60.818359" xlink:href="#f"/>
<use x="122.341797" xlink:href="#i"/>
<use x="163.439453" xlink:href="#k"/>
<use x="260.851562" xlink:href="#e"/>
<use x="288.634766" xlink:href="#j"/>
<use x="352.013672" xlink:href="#d"/>
<use x="413.292969" xlink:href="#h"/>
</g>
</g>
<path d="m320.88 489.22v35.285q0 2.4 2.4 2.4h7.7425q2.4 0 2.4-2.4v-35.285q0-2.4-2.4-2.4h-7.7425q-2.4 0-2.4 2.4z" clip-path="url(#a)" fill="#fff" stroke="#fff"/>
<g clip-path="url(#a)">
<g transform="translate(324.94 489.22) rotate(90) scale(.08 -.08)">
<use xlink:href="#l"/>
<use x="60.818359" xlink:href="#f"/>
<use x="122.341797" xlink:href="#i"/>
<use x="163.439453" xlink:href="#k"/>
<use x="260.851562" xlink:href="#e"/>
<use x="288.634766" xlink:href="#j"/>
<use x="352.013672" xlink:href="#d"/>
<use x="413.292969" xlink:href="#h"/>
</g>
</g>
<path d="m44.653 489.22v35.285q0 2.4 2.4 2.4h7.7425q2.4 0 2.4-2.4v-35.285q0-2.4-2.4-2.4h-7.7425q-2.4 0-2.4 2.4z" clip-path="url(#a)" fill="#fff" stroke="#fff"/>
<g clip-path="url(#a)">
<g transform="translate(48.717 489.22) rotate(90) scale(.08 -.08)">
<use xlink:href="#l"/>
<use x="60.818359" xlink:href="#f"/>
<use x="122.341797" xlink:href="#i"/>
<use x="163.439453" xlink:href="#k"/>
<use x="260.851562" xlink:href="#e"/>
<use x="288.634766" xlink:href="#j"/>
<use x="352.013672" xlink:href="#d"/>
<use x="413.292969" xlink:href="#h"/>
</g>
</g>
<path d="m412.95 489.22v35.285q0 2.4 2.4 2.4h7.7425q2.4 0 2.4-2.4v-35.285q0-2.4-2.4-2.4h-7.7425q-2.4 0-2.4 2.4z" clip-path="url(#a)" fill="#fff" stroke="#fff"/>
<g clip-path="url(#a)">
<g transform="translate(417.01 489.22) rotate(90) scale(.08 -.08)">
<use xlink:href="#l"/>
<use x="60.818359" xlink:href="#f"/>
<use x="122.341797" xlink:href="#i"/>
<use x="163.439453" xlink:href="#k"/>
<use x="260.851562" xlink:href="#e"/>
<use x="288.634766" xlink:href="#j"/>
<use x="352.013672" xlink:href="#d"/>
<use x="413.292969" xlink:href="#h"/>
</g>
</g>
<path d="m501.19 354.49 1.5626-5.3346q0.67466-2.3032-1.6286-2.9779l-7.4303-2.1765q-2.3032-0.67466-2.9779 1.6286l-1.5626 5.3346q-0.67466 2.3032 1.6286 2.9779l7.4303 2.1765q2.3032 0.67466 2.9779-1.6286z" clip-path="url(#a)" fill="#fff" stroke="#fff"/>
<g clip-path="url(#a)">
<g transform="translate(497.29 353.35) rotate(-73.674) scale(.08 -.08)">
<use xlink:href="#w"/>
</g>
</g>
<path d="m525.06 352.82 0.33605-4.589q0.17528-2.3936-2.2183-2.5689l-7.7218-0.56547q-2.3936-0.17528-2.5689 2.2183l-0.33605 4.589q-0.17528 2.3936 2.2183 2.5689l7.7218 0.56547q2.3936 0.17528 2.5689-2.2183z" clip-path="url(#a)" fill="#fff" stroke="#fff"/>
<g clip-path="url(#a)">
<g transform="translate(521 352.52) rotate(-85.812) scale(.08 -.08)">
<use xlink:href="#ai"/>
</g>
</g>
<path d="m558.29 299.47 3.2857 4.5178q1.4116 1.941 3.3526 0.52934l6.2616-4.554q1.941-1.4116 0.52934-3.3526l-3.2857-4.5178q-1.4116-1.941-3.3526-0.52934l-6.2616 4.554q-1.941 1.4116-0.52934 3.3526z" clip-path="url(#a)" fill="#fff" stroke="#fff"/>
<g clip-path="url(#a)">
<g transform="translate(561.58 297.08) rotate(53.972) scale(.08 -.08)">
<use xlink:href="#s"/>
</g>
</g>
<path d="m789.01 356.27 3.6367-4.2041q1.5701-1.8151-0.24498-3.3853l-5.8556-5.0653q-1.8151-1.5701-3.3853 0.24498l-3.6367 4.2041q-1.5701 1.8151 0.24498 3.3853l5.8556 5.0653q1.8151 1.5701 3.3853-0.24498z" clip-path="url(#a)" fill="#fff" stroke="#fff"/>
<g clip-path="url(#a)">
<g transform="translate(785.93 353.61) rotate(-49.139) scale(.08 -.08)">
<use xlink:href="#w"/>
</g>
</g>
<path d="m866.17 302.26 1.4526-4.8418q0.68964-2.2988-1.6091-2.9884l-7.416-2.2248q-2.2988-0.68964-2.9884 1.6091l-1.4526 4.8418q-0.68964 2.2988 1.6091 2.9884l7.416 2.2248q2.2988 0.68964 2.9884-1.6091z" clip-path="url(#a)" fill="#fff" stroke="#fff"/>
<g clip-path="url(#a)">
<defs>
<path id="an" d="m9.8125 72.906h46.094v-8.3125h-36.234v-21.578h34.719v-8.2969h-34.719v-26.422h37.109v-8.2969h-46.969z"/>
</defs>
<g transform="translate(862.28 301.09) rotate(-73.301) scale(.08 -.08)">
<use xlink:href="#an"/>
</g>
</g>
<path d="m905.84 349.46 1.8137 5.2836q0.77921 2.27 3.0492 1.4908l7.3231-2.5138q2.27-0.77921 1.4908-3.0492l-1.8137-5.2836q-0.77921-2.27-3.0492-1.4908l-7.3231 2.5138q-2.27 0.77921-1.4908 3.0492z" clip-path="url(#a)" fill="#fff" stroke="#fff"/>
<g clip-path="url(#a)">
<g transform="translate(909.69 348.14) rotate(71.054) scale(.08 -.08)">
<use xlink:href="#s"/>
</g>
</g>
<path d="m940.37 351.14 3.2684 4.8578q1.3397 1.9913 3.331 0.65153l6.4239-4.322q1.9913-1.3397 0.65153-3.331l-3.2684-4.8578q-1.3397-1.9913-3.331-0.65153l-6.4239 4.322q-1.9913 1.3397-0.65153 3.331z" clip-path="url(#a)" fill="#fff" stroke="#fff"/>
<g clip-path="url(#a)">
<g transform="translate(943.75 348.87) rotate(56.067) scale(.08 -.08)">
<use xlink:href="#p"/>
</g>
</g>
<path d="m689.17 489.22v35.285q0 2.4 2.4 2.4h7.7425q2.4 0 2.4-2.4v-35.285q0-2.4-2.4-2.4h-7.7425q-2.4 0-2.4 2.4z" clip-path="url(#a)" fill="#fff" stroke="#fff"/>
<g clip-path="url(#a)">
<g transform="translate(693.24 489.22) rotate(90) scale(.08 -.08)">
<use xlink:href="#l"/>
<use x="60.818359" xlink:href="#f"/>
<use x="122.341797" xlink:href="#i"/>
<use x="163.439453" xlink:href="#k"/>
<use x="260.851562" xlink:href="#e"/>
<use x="288.634766" xlink:href="#j"/>
<use x="352.013672" xlink:href="#d"/>
<use x="413.292969" xlink:href="#h"/>
</g>
</g>
<path d="m890.48 405.3 3.8609 3.8784q1.6932 1.7009 3.3941 0.007674l5.4871-5.4624q1.7009-1.6932 0.007674-3.3941l-3.8609-3.8784q-1.6932-1.7009-3.3941-0.007674l-5.4871 5.4624q-1.7009 1.6932-0.007675 3.3941z" clip-path="url(#a)" fill="#fff" stroke="#fff"/>
<g clip-path="url(#a)">
<g transform="translate(893.36 402.43) rotate(45.13) scale(.08 -.08)">
<use xlink:href="#o"/>
</g>
</g>
<path d="m795.79 409.18 3.8609-3.8784q1.6932-1.7009-0.007674-3.3941l-5.4871-5.4624q-1.7009-1.6932-3.3941 0.007674l-3.8609 3.8784q-1.6932 1.7009 0.007675 3.3941l5.4871 5.4624q1.7009 1.6932 3.3941-0.007674z" clip-path="url(#a)" fill="#fff" stroke="#fff"/>
<g clip-path="url(#a)">
<g transform="translate(792.91 406.31) rotate(-45.13) scale(.08 -.08)">
<use xlink:href="#o"/>
</g>
</g>
<path d="m832.95 407.2 1.5995-4.8203q0.75586-2.2779-1.522-3.0337l-7.3485-2.4384q-2.2779-0.75586-3.0337 1.522l-1.5995 4.8203q-0.75586 2.2779 1.522 3.0337l7.3485 2.4384q2.2779 0.75586 3.0337-1.522z" clip-path="url(#a)" fill="#fff" stroke="#fff"/>
<g clip-path="url(#a)">
<g transform="translate(829.1 405.92) rotate(-71.643) scale(.08 -.08)">
<use xlink:href="#r"/>
</g>
</g>
<path d="m855.46 402.01 1.844 5.557q0.75586 2.2779 3.0337 1.522l7.3485-2.4384q2.2779-0.75586 1.522-3.0337l-1.844-5.557q-0.75586-2.2779-3.0337-1.522l-7.3485 2.4384q-2.2779 0.75586-1.522 3.0337z" clip-path="url(#a)" fill="#fff" stroke="#fff"/>
<g clip-path="url(#a)">
<g transform="translate(859.31 400.73) rotate(71.643) scale(.08 -.08)">
<use xlink:href="#p"/>
</g>
</g>
<path d="m939.45 525.45 7.6215-34.452q0.51839-2.3433-1.825-2.8617l-7.5597-1.6724q-2.3433-0.51839-2.8617 1.825l-7.6215 34.452q-0.51839 2.3433 1.825 2.8617l7.5597 1.6724q2.3433 0.51839 2.8617-1.825z" clip-path="url(#a)" fill="#fff" stroke="#fff"/>
<g clip-path="url(#a)">
<g transform="translate(935.48 524.57) rotate(-77.526) scale(.08 -.08)">
<use xlink:href="#l"/>
<use x="60.818359" xlink:href="#f"/>
<use x="122.341797" xlink:href="#i"/>
<use x="163.439453" xlink:href="#k"/>
<use x="260.851562" xlink:href="#e"/>
<use x="288.634766" xlink:href="#j"/>
<use x="352.013672" xlink:href="#d"/>
<use x="413.292969" xlink:href="#h"/>
</g>
</g>
<path d="m950.22 491 7.6215 34.452q0.51839 2.3433 2.8617 1.825l7.5597-1.6724q2.3433-0.51839 1.825-2.8617l-7.6215-34.452q-0.51839-2.3433-2.8617-1.825l-7.5597 1.6724q-2.3433 0.51839-1.825 2.8617z" clip-path="url(#a)" fill="#fff" stroke="#fff"/>
<g clip-path="url(#a)">
<g transform="translate(954.19 490.12) rotate(77.526) scale(.08 -.08)">
<use xlink:href="#l"/>
<use x="60.818359" xlink:href="#f"/>
<use x="122.341797" xlink:href="#i"/>
<use x="163.439453" xlink:href="#k"/>
<use x="260.851562" xlink:href="#e"/>
<use x="288.634766" xlink:href="#j"/>
<use x="352.013672" xlink:href="#d"/>
<use x="413.292969" xlink:href="#h"/>
</g>
</g>
<path d="m735.21 489.22v35.285q0 2.4 2.4 2.4h7.7425q2.4 0 2.4-2.4v-35.285q0-2.4-2.4-2.4h-7.7425q-2.4 0-2.4 2.4z" clip-path="url(#a)" fill="#fff" stroke="#fff"/>
<g clip-path="url(#a)">
<g transform="translate(739.27 489.22) rotate(90) scale(.08 -.08)">
<use xlink:href="#l"/>
<use x="60.818359" xlink:href="#f"/>
<use x="122.341797" xlink:href="#i"/>
<use x="163.439453" xlink:href="#k"/>
<use x="260.851562" xlink:href="#e"/>
<use x="288.634766" xlink:href="#j"/>
<use x="352.013672" xlink:href="#d"/>
<use x="413.292969" xlink:href="#h"/>
</g>
</g>
<path d="m801.34 525.45 7.6215-34.452q0.51839-2.3433-1.825-2.8617l-7.5597-1.6724q-2.3433-0.51839-2.8617 1.825l-7.6215 34.452q-0.51839 2.3433 1.825 2.8617l7.5597 1.6724q2.3433 0.51839 2.8617-1.825z" clip-path="url(#a)" fill="#fff" stroke="#fff"/>
<g clip-path="url(#a)">
<g transform="translate(797.37 524.57) rotate(-77.526) scale(.08 -.08)">
<use xlink:href="#l"/>
<use x="60.818359" xlink:href="#f"/>
<use x="122.341797" xlink:href="#i"/>
<use x="163.439453" xlink:href="#k"/>
<use x="260.851562" xlink:href="#e"/>
<use x="288.634766" xlink:href="#j"/>
<use x="352.013672" xlink:href="#d"/>
<use x="413.292969" xlink:href="#h"/>
</g>
</g>
<path d="m812.11 491 7.6215 34.452q0.51839 2.3433 2.8617 1.825l7.5597-1.6724q2.3433-0.51839 1.825-2.8617l-7.6215-34.452q-0.51839-2.3433-2.8617-1.825l-7.5597 1.6724q-2.3433 0.51839-1.825 2.8617z" clip-path="url(#a)" fill="#fff" stroke="#fff"/>
<g clip-path="url(#a)">
<g transform="translate(816.08 490.12) rotate(77.526) scale(.08 -.08)">
<use xlink:href="#l"/>
<use x="60.818359" xlink:href="#f"/>
<use x="122.341797" xlink:href="#i"/>
<use x="163.439453" xlink:href="#k"/>
<use x="260.851562" xlink:href="#e"/>
<use x="288.634766" xlink:href="#j"/>
<use x="352.013672" xlink:href="#d"/>
<use x="413.292969" xlink:href="#h"/>
</g>
</g>
<path d="m90.69 489.22v35.285q0 2.4 2.4 2.4h7.7425q2.4 0 2.4-2.4v-35.285q0-2.4-2.4-2.4h-7.7425q-2.4 0-2.4 2.4z" clip-path="url(#a)" fill="#fff" stroke="#fff"/>
<g clip-path="url(#a)">
<g transform="translate(94.754 489.22) rotate(90) scale(.08 -.08)">
<use xlink:href="#l"/>
<use x="60.818359" xlink:href="#f"/>
<use x="122.341797" xlink:href="#i"/>
<use x="163.439453" xlink:href="#k"/>
<use x="260.851562" xlink:href="#e"/>
<use x="288.634766" xlink:href="#j"/>
<use x="352.013672" xlink:href="#d"/>
<use x="413.292969" xlink:href="#h"/>
</g>
</g>
<path d="m458.99 489.22v35.285q0 2.4 2.4 2.4h7.7425q2.4 0 2.4-2.4v-35.285q0-2.4-2.4-2.4h-7.7425q-2.4 0-2.4 2.4z" clip-path="url(#a)" fill="#fff" stroke="#fff"/>
<g clip-path="url(#a)">
<g transform="translate(463.05 489.22) rotate(90) scale(.08 -.08)">
<use xlink:href="#l"/>
<use x="60.818359" xlink:href="#f"/>
<use x="122.341797" xlink:href="#i"/>
<use x="163.439453" xlink:href="#k"/>
<use x="260.851562" xlink:href="#e"/>
<use x="288.634766" xlink:href="#j"/>
<use x="352.013672" xlink:href="#d"/>
<use x="413.292969" xlink:href="#h"/>
</g>
</g>
<path d="m505.02 489.22v35.285q0 2.4 2.4 2.4h7.7425q2.4 0 2.4-2.4v-35.285q0-2.4-2.4-2.4h-7.7425q-2.4 0-2.4 2.4z" clip-path="url(#a)" fill="#fff" stroke="#fff"/>
<g clip-path="url(#a)">
<g transform="translate(509.09 489.22) rotate(90) scale(.08 -.08)">
<use xlink:href="#l"/>
<use x="60.818359" xlink:href="#f"/>
<use x="122.341797" xlink:href="#i"/>
<use x="163.439453" xlink:href="#k"/>
<use x="260.851562" xlink:href="#e"/>
<use x="288.634766" xlink:href="#j"/>
<use x="352.013672" xlink:href="#d"/>
<use x="413.292969" xlink:href="#h"/>
</g>
</g>
<path d="m582.66 473.42 7.6215-34.452q0.51839-2.3433-1.825-2.8617l-7.5597-1.6724q-2.3433-0.51839-2.8617 1.825l-7.6215 34.452q-0.51839 2.3433 1.825 2.8617l7.5597 1.6724q2.3433 0.51839 2.8617-1.825z" clip-path="url(#a)" fill="#fff" stroke="#fff"/>
<g clip-path="url(#a)">
<g transform="translate(578.7 472.54) rotate(-77.526) scale(.08 -.08)">
<use xlink:href="#l"/>
<use x="60.818359" xlink:href="#f"/>
<use x="122.341797" xlink:href="#i"/>
<use x="163.439453" xlink:href="#k"/>
<use x="260.851562" xlink:href="#e"/>
<use x="288.634766" xlink:href="#j"/>
<use x="352.013672" xlink:href="#d"/>
<use x="413.292969" xlink:href="#h"/>
</g>
</g>
<path d="m616.46 438.97 7.6215 34.452q0.51839 2.3433 2.8617 1.825l7.5597-1.6724q2.3433-0.51839 1.825-2.8617l-7.6215-34.452q-0.51839-2.3433-2.8617-1.825l-7.5597 1.6724q-2.3433 0.51839-1.825 2.8617z" clip-path="url(#a)" fill="#fff" stroke="#fff"/>
<g clip-path="url(#a)">
<g transform="translate(620.42 438.09) rotate(77.526) scale(.08 -.08)">
<use xlink:href="#l"/>
<use x="60.818359" xlink:href="#f"/>
<use x="122.341797" xlink:href="#i"/>
<use x="163.439453" xlink:href="#k"/>
<use x="260.851562" xlink:href="#e"/>
<use x="288.634766" xlink:href="#j"/>
<use x="352.013672" xlink:href="#d"/>
<use x="413.292969" xlink:href="#h"/>
</g>
</g>
<path d="m597.1 399.89v5.855q0 2.4 2.4 2.4h7.7425q2.4 0 2.4-2.4v-5.855q0-2.4-2.4-2.4h-7.7425q-2.4 0-2.4 2.4z" clip-path="url(#a)" fill="#fff" stroke="#fff"/>
<g clip-path="url(#a)">
<g transform="translate(601.16 399.89) rotate(90) scale(.08 -.08)">
<use xlink:href="#p"/>
</g>
</g>
<path d="m366.91 489.22v35.285q0 2.4 2.4 2.4h7.7425q2.4 0 2.4-2.4v-35.285q0-2.4-2.4-2.4h-7.7425q-2.4 0-2.4 2.4z" clip-path="url(#a)" fill="#fff" stroke="#fff"/>
<g clip-path="url(#a)">
<g transform="translate(370.98 489.22) rotate(90) scale(.08 -.08)">
<use xlink:href="#l"/>
<use x="60.818359" xlink:href="#f"/>
<use x="122.341797" xlink:href="#i"/>
<use x="163.439453" xlink:href="#k"/>
<use x="260.851562" xlink:href="#e"/>
<use x="288.634766" xlink:href="#j"/>
<use x="352.013672" xlink:href="#d"/>
<use x="413.292969" xlink:href="#h"/>
</g>
</g>
<path d="m597.1 489.22v35.285q0 2.4 2.4 2.4h7.7425q2.4 0 2.4-2.4v-35.285q0-2.4-2.4-2.4h-7.7425q-2.4 0-2.4 2.4z" clip-path="url(#a)" fill="#fff" stroke="#fff"/>
<g clip-path="url(#a)">
<g transform="translate(601.16 489.22) rotate(90) scale(.08 -.08)">
<use xlink:href="#l"/>
<use x="60.818359" xlink:href="#f"/>
<use x="122.341797" xlink:href="#i"/>
<use x="163.439453" xlink:href="#k"/>
<use x="260.851562" xlink:href="#e"/>
<use x="288.634766" xlink:href="#j"/>
<use x="352.013672" xlink:href="#d"/>
<use x="413.292969" xlink:href="#h"/>
</g>
</g>
<path d="m873.32 489.22v35.285q0 2.4 2.4 2.4h7.7425q2.4 0 2.4-2.4v-35.285q0-2.4-2.4-2.4h-7.7425q-2.4 0-2.4 2.4z" clip-path="url(#a)" fill="#fff" stroke="#fff"/>
<g clip-path="url(#a)">
<g transform="translate(877.39 489.22) rotate(90) scale(.08 -.08)">
<use xlink:href="#l"/>
<use x="60.818359" xlink:href="#f"/>
<use x="122.341797" xlink:href="#i"/>
<use x="163.439453" xlink:href="#k"/>
<use x="260.851562" xlink:href="#e"/>
<use x="288.634766" xlink:href="#j"/>
<use x="352.013672" xlink:href="#d"/>
<use x="413.292969" xlink:href="#h"/>
</g>
</g>
<path d="m1011.4 489.22v35.285q0 2.4 2.4 2.4h7.7425q2.4 0 2.4-2.4v-35.285q0-2.4-2.4-2.4h-7.7425q-2.4 0-2.4 2.4z" clip-path="url(#a)" fill="#fff" stroke="#fff"/>
<g clip-path="url(#a)">
<g transform="translate(1015.5 489.22) rotate(90) scale(.08 -.08)">
<use xlink:href="#l"/>
<use x="60.818359" xlink:href="#f"/>
<use x="122.341797" xlink:href="#i"/>
<use x="163.439453" xlink:href="#k"/>
<use x="260.851562" xlink:href="#e"/>
<use x="288.634766" xlink:href="#j"/>
<use x="352.013672" xlink:href="#d"/>
<use x="413.292969" xlink:href="#h"/>
</g>
</g>
<defs>
<path id="b" d="m0 8.6603c2.2967 0 4.4997-0.9125 6.1237-2.5365 1.624-1.624 2.5365-3.827 2.5365-6.1237s-0.9125-4.4997-2.5365-6.1237c-1.624-1.624-3.827-2.5365-6.1237-2.5365s-4.4997 0.9125-6.1237 2.5365c-1.624 1.624-2.5365 3.827-2.5365 6.1237s0.9125 4.4997 2.5365 6.1237c1.624 1.624 3.827 2.5365 6.1237 2.5365z"/>
</defs>
<g clip-path="url(#a)">
<use x="50.924196" y="558.894072" fill="#ffffff" stroke="#ffffff" xlink:href="#b"/>
</g>
<g clip-path="url(#a)">
<use x="96.96139" y="558.894072" fill="#ffffff" stroke="#ffffff" xlink:href="#b"/>
</g>
<g clip-path="url(#a)">
<use x="142.998585" y="558.894072" fill="#ffffff" stroke="#ffffff" xlink:href="#b"/>
</g>
<g clip-path="url(#a)">
<use x="189.035779" y="558.894072" fill="#ffffff" stroke="#ffffff" xlink:href="#b"/>
</g>
<g clip-path="url(#a)">
<use x="235.072973" y="558.894072" fill="#ffffff" stroke="#ffffff" xlink:href="#b"/>
</g>
<g clip-path="url(#a)">
<use x="281.110168" y="558.894072" fill="#ffffff" stroke="#ffffff" xlink:href="#b"/>
</g>
<g clip-path="url(#a)">
<use x="327.147362" y="558.894072" fill="#ffffff" stroke="#ffffff" xlink:href="#b"/>
</g>
<g clip-path="url(#a)">
<use x="373.184556" y="558.894072" fill="#ffffff" stroke="#ffffff" xlink:href="#b"/>
</g>
<g clip-path="url(#a)">
<use x="419.22175" y="558.894072" fill="#ffffff" stroke="#ffffff" xlink:href="#b"/>
</g>
<g clip-path="url(#a)">
<use x="465.258945" y="558.894072" fill="#ffffff" stroke="#ffffff" xlink:href="#b"/>
</g>
<g clip-path="url(#a)">
<use x="511.296139" y="558.894072" fill="#ffffff" stroke="#ffffff" xlink:href="#b"/>
</g>
<g clip-path="url(#a)">
<use x="557.333333" y="558.894072" fill="#ffffff" stroke="#ffffff" xlink:href="#b"/>
</g>
<g clip-path="url(#a)">
<use x="603.370528" y="558.894072" fill="#ffffff" stroke="#ffffff" xlink:href="#b"/>
</g>
<g clip-path="url(#a)">
<use x="649.407722" y="558.894072" fill="#ffffff" stroke="#ffffff" xlink:href="#b"/>
</g>
<g clip-path="url(#a)">
<use x="695.444916" y="558.894072" fill="#ffffff" stroke="#ffffff" xlink:href="#b"/>
</g>
<g clip-path="url(#a)">
<use x="741.48211" y="558.894072" fill="#ffffff" stroke="#ffffff" xlink:href="#b"/>
</g>
<g clip-path="url(#a)">
<use x="787.519305" y="558.894072" fill="#ffffff" stroke="#ffffff" xlink:href="#b"/>
</g>
<g clip-path="url(#a)">
<use x="833.556499" y="558.894072" fill="#ffffff" stroke="#ffffff" xlink:href="#b"/>
</g>
<g clip-path="url(#a)">
<use x="879.593693" y="558.894072" fill="#ffffff" stroke="#ffffff" xlink:href="#b"/>
</g>
<g clip-path="url(#a)">
<use x="925.630888" y="558.894072" fill="#ffffff" stroke="#ffffff" xlink:href="#b"/>
</g>
<g clip-path="url(#a)">
<use x="971.668082" y="558.894072" fill="#ffffff" stroke="#ffffff" xlink:href="#b"/>
</g>
<g clip-path="url(#a)">
<use x="1017.705276" y="558.894072" fill="#ffffff" stroke="#ffffff" xlink:href="#b"/>
</g>
<g clip-path="url(#a)">
<use x="267.92243" y="27.772595" fill="#ffffff" stroke="#ffffff" xlink:href="#b"/>
</g>
<g clip-path="url(#a)">
<use x="468.376046" y="137.754901" fill="#ffffff" stroke="#ffffff" xlink:href="#b"/>
</g>
<g clip-path="url(#a)">
<use x="142.998585" y="454.8409" fill="#ffffff" stroke="#ffffff" xlink:href="#b"/>
</g>
<g clip-path="url(#a)">
<use x="258.09157" y="245.287062" fill="#ffffff" stroke="#ffffff" xlink:href="#b"/>
</g>
<g clip-path="url(#a)">
<use x="189.035779" y="454.8409" fill="#ffffff" stroke="#ffffff" xlink:href="#b"/>
</g>
<g clip-path="url(#a)">
<use x="235.072973" y="454.8409" fill="#ffffff" stroke="#ffffff" xlink:href="#b"/>
</g>
<g clip-path="url(#a)">
<use x="557.333333" y="350.787728" fill="#ffffff" stroke="#ffffff" xlink:href="#b"/>
</g>
<g clip-path="url(#a)">
<use x="1063.742471" y="558.894072" fill="#ffffff" stroke="#ffffff" xlink:href="#b"/>
</g>
<g clip-path="url(#a)">
<use x="281.110168" y="454.8409" fill="#ffffff" stroke="#ffffff" xlink:href="#b"/>
</g>
<g clip-path="url(#a)">
<use x="327.147362" y="454.8409" fill="#ffffff" stroke="#ffffff" xlink:href="#b"/>
</g>
<g clip-path="url(#a)">
<use x="50.924196" y="454.8409" fill="#ffffff" stroke="#ffffff" xlink:href="#b"/>
</g>
<g clip-path="url(#a)">
<use x="419.22175" y="454.8409" fill="#ffffff" stroke="#ffffff" xlink:href="#b"/>
</g>
<g clip-path="url(#a)">
<use x="526.64187" y="245.287062" fill="#ffffff" stroke="#ffffff" xlink:href="#b"/>
</g>
<g clip-path="url(#a)">
<use x="876.716369" y="245.287062" fill="#ffffff" stroke="#ffffff" xlink:href="#b"/>
</g>
<g clip-path="url(#a)">
<use x="695.444916" y="454.8409" fill="#ffffff" stroke="#ffffff" xlink:href="#b"/>
</g>
<g clip-path="url(#a)">
<use x="845.065798" y="350.787728" fill="#ffffff" stroke="#ffffff" xlink:href="#b"/>
</g>
<g clip-path="url(#a)">
<use x="948.649485" y="454.8409" fill="#ffffff" stroke="#ffffff" xlink:href="#b"/>
</g>
<g clip-path="url(#a)">
<use x="741.48211" y="454.8409" fill="#ffffff" stroke="#ffffff" xlink:href="#b"/>
</g>
<g clip-path="url(#a)">
<use x="810.537902" y="454.8409" fill="#ffffff" stroke="#ffffff" xlink:href="#b"/>
</g>
<g clip-path="url(#a)">
<use x="96.96139" y="454.8409" fill="#ffffff" stroke="#ffffff" xlink:href="#b"/>
</g>
<g clip-path="url(#a)">
<use x="465.258945" y="454.8409" fill="#ffffff" stroke="#ffffff" xlink:href="#b"/>
</g>
<g clip-path="url(#a)">
<use x="511.296139" y="454.8409" fill="#ffffff" stroke="#ffffff" xlink:href="#b"/>
</g>
<g clip-path="url(#a)">
<use x="603.370528" y="350.787728" fill="#ffffff" stroke="#ffffff" xlink:href="#b"/>
</g>
<g clip-path="url(#a)">
<use x="373.184556" y="454.8409" fill="#ffffff" stroke="#ffffff" xlink:href="#b"/>
</g>
<g clip-path="url(#a)">
<use x="603.370528" y="454.8409" fill="#ffffff" stroke="#ffffff" xlink:href="#b"/>
</g>
<g clip-path="url(#a)">
<use x="879.593693" y="454.8409" fill="#ffffff" stroke="#ffffff" xlink:href="#b"/>
</g>
<g clip-path="url(#a)">
<use x="1017.705276" y="454.8409" fill="#ffffff" stroke="#ffffff" xlink:href="#b"/>
</g>
<g clip-path="url(#a)">
<defs>
<path id="x" d="m9.8125 72.906h14.703l18.594-49.609 18.703 49.609h14.703v-72.906h-9.625v64.016l-18.797-50h-9.9062l-18.797 50v-64.016h-9.5781z"/>
<path id="v" d="m45.406 27.984q0 9.7656-4.0312 15.125-4.0156 5.375-11.297 5.375-7.2188 0-11.25-5.375-4.0312-5.3594-4.0312-15.125 0-9.7188 4.0312-15.094t11.25-5.375q7.2812 0 11.297 5.375 4.0312 5.375 4.0312 15.094zm8.9844-21.203q0-13.953-6.2031-20.766-6.1875-6.8125-18.984-6.8125-4.7344 0-8.9375 0.70312t-8.1562 2.1719v8.7344q3.9531-2.1406 7.8125-3.1562 3.8594-1.0312 7.8594-1.0312 8.8438 0 13.234 4.6094t4.3906 13.938v4.4531q-2.7812-4.8438-7.125-7.2344t-10.406-2.3906q-10.047 0-16.203 7.6562-6.1562 7.6719-6.1562 20.328 0 12.688 6.1562 20.344 6.1562 7.6719 16.203 7.6719 6.0625 0 10.406-2.3906t7.125-7.2188v8.2969h8.9844z"/>
<path id="ae" d="m48.781 52.594v-8.4062q-3.8125 2.1094-7.6406 3.1562t-7.7344 1.0469q-8.75 0-13.594-5.5469-4.8281-5.5312-4.8281-15.547t4.8281-15.562q4.8438-5.5312 13.594-5.5312 3.9062 0 7.7344 1.0469t7.6406 3.1562v-8.3125q-3.7656-1.75-7.7969-2.625-4.0156-0.89062-8.5625-0.89062-12.359 0-19.641 7.7656-7.2656 7.7656-7.2656 20.953 0 13.375 7.3438 21.031 7.3594 7.6719 20.156 7.6719 4.1406 0 8.0938-0.85938 3.9531-0.84375 7.6719-2.5469z"/>
</defs>
<g transform="translate(36.234 561.65) scale(.1 -.1)">
<use xlink:href="#x"/>
<use x="86.279297" xlink:href="#d"/>
<use x="147.558594" xlink:href="#v"/>
<use x="211.035156" xlink:href="#e"/>
<use x="238.818359" xlink:href="#ae"/>
</g>
</g>
<g clip-path="url(#a)">
<defs>
<path id="ac" d="m11.719 12.406h10.297v-8.4062l-8-15.625h-6.2969l4 15.625z"/>
</defs>
<g transform="translate(95.372 561.65) scale(.1 -.1)">
<use xlink:href="#ac"/>
</g>
</g>
<g clip-path="url(#a)">
<defs>
<path id="n" d="m18.312 70.219v-15.531h18.5v-6.9844h-18.5v-29.688q0-6.6875 1.8281-8.5938t7.4531-1.9062h9.2188v-7.5156h-9.2188q-10.406 0-14.359 3.875-3.9531 3.8906-3.9531 14.141v29.688h-6.5938v6.9844h6.5938v15.531z"/>
</defs>
<g transform="translate(137.97 561.65) scale(.1 -.1)">
<use xlink:href="#d"/>
<use x="61.279297" xlink:href="#n"/>
</g>
</g>
<g clip-path="url(#a)">
<defs>
<path id="q" d="m54.891 33.016v-33.016h-8.9844v32.719q0 7.7656-3.0312 11.609-3.0312 3.8594-9.0781 3.8594-7.2812 0-11.484-4.6406-4.2031-4.625-4.2031-12.641v-30.906h-9.0312v75.984h9.0312v-29.797q3.2344 4.9375 7.5938 7.375 4.375 2.4375 10.094 2.4375 9.4219 0 14.25-5.8281 4.8438-5.8281 4.8438-17.156z"/>
</defs>
<g transform="translate(180.83 561.65) scale(.1 -.1)">
<use xlink:href="#n"/>
<use x="39.208984" xlink:href="#q"/>
<use x="102.587891" xlink:href="#f"/>
</g>
</g>
<g clip-path="url(#a)">
<g transform="translate(225.76 561.65) scale(.1 -.1)">
<use xlink:href="#d"/>
<use x="61.279297" xlink:href="#v"/>
<use x="124.755859" xlink:href="#f"/>
</g>
</g>
<g clip-path="url(#a)">
<defs>
<path id="at" d="m30.609 48.391q-7.2188 0-11.422-5.6406t-4.2031-15.453 4.1719-15.453q4.1875-5.6406 11.453-5.6406 7.1875 0 11.375 5.6562 4.2031 5.6719 4.2031 15.438 0 9.7188-4.2031 15.406-4.1875 5.6875-11.375 5.6875zm0 7.6094q11.719 0 18.406-7.625 6.7031-7.6094 6.7031-21.078 0-13.422-6.7031-21.078-6.6875-7.6406-18.406-7.6406-11.766 0-18.438 7.6406-6.6562 7.6562-6.6562 21.078 0 13.469 6.6562 21.078 6.6719 7.625 18.438 7.625z"/>
<path id="au" d="m37.109 75.984v-7.4844h-8.5938q-4.8281 0-6.7188-1.9531-1.875-1.9531-1.875-7.0312v-4.8281h14.797v-6.9844h-14.797v-47.703h-9.0312v47.703h-8.5938v6.9844h8.5938v3.8125q0 9.125 4.25 13.297 4.25 4.1875 13.469 4.1875z"/>
</defs>
<g transform="translate(276.29 561.65) scale(.1 -.1)">
<use xlink:href="#at"/>
<use x="61.181641" xlink:href="#au"/>
</g>
</g>
<g clip-path="url(#a)">
<defs>
<path id="t" d="m37.797 64.312-24.906-38.922h24.906zm-2.5938 8.5938h12.406v-47.516h10.406v-8.2031h-10.406v-17.188h-9.8125v17.188h-32.906v9.5156z"/>
<path id="m" d="m19.188 8.2969h34.422v-8.2969h-46.281v8.2969q5.6094 5.8125 15.297 15.594 9.7031 9.7969 12.188 12.641 4.7344 5.3125 6.6094 9 1.8906 3.6875 1.8906 7.25 0 5.8125-4.0781 9.4688-4.0781 3.6719-10.625 3.6719-4.6406 0-9.7969-1.6094-5.1406-1.6094-11-4.8906v9.9688q5.9531 2.3906 11.125 3.6094 5.1875 1.2188 9.4844 1.2188 11.328 0 18.062-5.6719 6.7344-5.6562 6.7344-15.125 0-4.5-1.6875-8.5312-1.6719-4.0156-6.125-9.4844-1.2188-1.4219-7.7656-8.1875-6.5312-6.7656-18.453-18.922z"/>
</defs>
<g transform="translate(320.78 561.65) scale(.1 -.1)">
<use xlink:href="#t"/>
<use x="63.623047" xlink:href="#m"/>
</g>
</g>
<g clip-path="url(#a)">
<g transform="translate(371.6 561.65) scale(.1 -.1)">
<use xlink:href="#ac"/>
</g>
</g>
<g clip-path="url(#a)">
<defs>
<path id="as" d="m18.109 8.2031v-29h-9.0312v75.484h9.0312v-8.2969q2.8438 4.875 7.1562 7.2344 4.3281 2.375 10.328 2.375 9.9688 0 16.188-7.9062 6.2344-7.9062 6.2344-20.797t-6.2344-20.812q-6.2188-7.9062-16.188-7.9062-6 0-10.328 2.375-4.3125 2.375-7.1562 7.25zm30.578 19.094q0 9.9062-4.0781 15.547t-11.203 5.6406q-7.1406 0-11.219-5.6406t-4.0781-15.547 4.0781-15.547 11.219-5.6406q7.125 0 11.203 5.6406t4.0781 15.547z"/>
<path id="aq" d="m32.172-5.0781q-3.7969-9.7656-7.4219-12.734-3.6094-2.9844-9.6562-2.9844h-7.1875v7.5156h5.2812q3.7031 0 5.75 1.7656 2.0625 1.75 4.5469 8.2969l1.6094 4.0938-22.109 53.812h9.5156l17.094-42.766 17.094 42.766h9.5156z"/>
<path id="av" d="m45.406 46.391v29.594h8.9844v-75.984h-8.9844v8.2031q-2.8281-4.875-7.1562-7.25-4.3125-2.375-10.375-2.375-9.9062 0-16.141 7.9062-6.2188 7.9219-6.2188 20.812t6.2188 20.797q6.2344 7.9062 16.141 7.9062 6.0625 0 10.375-2.375 4.3281-2.3594 7.1562-7.2344zm-30.609-19.094q0-9.9062 4.0781-15.547t11.203-5.6406 11.219 5.6406q4.1094 5.6406 4.1094 15.547t-4.1094 15.547q-4.0938 5.6406-11.219 5.6406t-11.203-5.6406-4.0781-15.547z"/>
</defs>
<g transform="translate(402.38 561.65) scale(.1 -.1)">
<use xlink:href="#as"/>
<use x="63.476562" xlink:href="#h"/>
<use x="91.259766" xlink:href="#d"/>
<use x="152.539062" xlink:href="#aq"/>
<use x="211.71875" xlink:href="#f"/>
<use x="273.242188" xlink:href="#av"/>
</g>
</g>
<g clip-path="url(#a)">
<defs>
<path id="ar" d="m4.2031 54.688h8.9844l11.234-42.672 11.172 42.672h10.594l11.234-42.672 11.188 42.672h8.9844l-14.312-54.688h-10.594l-11.766 44.828-11.812-44.828h-10.609z"/>
</defs>
<g transform="translate(454.65 561.65) scale(.1 -.1)">
<use xlink:href="#ar"/>
<use x="81.787109" xlink:href="#e"/>
<use x="109.570312" xlink:href="#n"/>
<use x="148.779297" xlink:href="#q"/>
</g>
</g>
<g clip-path="url(#a)">
<g transform="translate(503.09 561.65) scale(.1 -.1)">
<use xlink:href="#n"/>
<use x="39.208984" xlink:href="#q"/>
<use x="102.587891" xlink:href="#f"/>
</g>
</g>
<g clip-path="url(#a)">
<g transform="translate(551.13 561.65) scale(.1 -.1)">
<use xlink:href="#o"/>
<use x="68.408203" xlink:href="#h"/>
<use x="96.191406" xlink:href="#h"/>
</g>
</g>
<g clip-path="url(#a)">
<defs>
<path id="ap" d="m4.8906 31.391h26.312v-8h-26.312z"/>
</defs>
<g transform="translate(601.57 561.65) scale(.1 -.1)">
<use xlink:href="#ap"/>
</g>
</g>
<g clip-path="url(#a)">
<defs>
<path id="ad" d="m44.281 53.078v-8.5q-3.7969 1.9531-7.9062 2.9219-4.0938 0.98438-8.5 0.98438-6.6875 0-10.031-2.0469t-3.3438-6.1562q0-3.125 2.3906-4.9062t9.625-3.3906l3.0781-0.6875q9.5625-2.0469 13.594-5.7812t4.0312-10.422q0-7.625-6.0312-12.078-6.0312-4.4375-16.578-4.4375-4.3906 0-9.1562 0.85938t-10.031 2.5625v9.2812q4.9844-2.5938 9.8125-3.8906 4.8281-1.2812 9.5781-1.2812 6.3438 0 9.75 2.1719 3.4219 2.1719 3.4219 6.125 0 3.6562-2.4688 5.6094-2.4531 1.9531-10.812 3.7656l-3.125 0.73438q-8.3438 1.75-12.062 5.3906-3.7031 3.6406-3.7031 9.9844 0 7.7188 5.4688 11.906 5.4688 4.2031 15.531 4.2031 4.9688 0 9.3594-0.73438 4.4062-0.71875 8.1094-2.1875z"/>
</defs>
<g transform="translate(636.55 561.65) scale(.1 -.1)">
<use xlink:href="#r"/>
<use x="63.476562" xlink:href="#n"/>
<use x="102.685547" xlink:href="#d"/>
<use x="163.964844" xlink:href="#i"/>
<use x="205.078125" xlink:href="#ad"/>
</g>
</g>
<g clip-path="url(#a)">
<g transform="translate(677.02 561.65) scale(.1 -.1)">
<use xlink:href="#d"/>
<use x="61.279297" xlink:href="#v"/>
<use x="124.755859" xlink:href="#d"/>
<use x="186.035156" xlink:href="#e"/>
<use x="213.818359" xlink:href="#j"/>
<use x="277.197266" xlink:href="#ad"/>
<use x="329.296875" xlink:href="#n"/>
</g>
</g>
<g clip-path="url(#a)">
<g transform="translate(734.32 561.65) scale(.1 -.1)">
<use xlink:href="#q"/>
<use x="63.378906" xlink:href="#e"/>
<use x="91.162109" xlink:href="#ad"/>
</g>
</g>
<g clip-path="url(#a)">
<g transform="translate(775.13 561.65) scale(.1 -.1)">
<use xlink:href="#d"/>
<use x="61.279297" xlink:href="#h"/>
<use x="89.0625" xlink:href="#k"/>
<use x="186.474609" xlink:href="#d"/>
</g>
</g>
<g clip-path="url(#a)">
<g transform="translate(818.53 561.65) scale(.1 -.1)">
<use xlink:href="#k"/>
<use x="97.412109" xlink:href="#d"/>
<use x="158.691406" xlink:href="#n"/>
<use x="197.900391" xlink:href="#f"/>
<use x="259.423828" xlink:href="#i"/>
</g>
</g>
<g clip-path="url(#a)">
<g transform="translate(878 561.65) scale(.1 -.1)">
<use xlink:href="#ac"/>
</g>
</g>
<g clip-path="url(#a)">
<g transform="translate(903.21 561.65) scale(.1 -.1)">
<use xlink:href="#x"/>
<use x="86.279297" xlink:href="#e"/>
<use x="114.0625" xlink:href="#ae"/>
<use x="169.042969" xlink:href="#q"/>
<use x="232.421875" xlink:href="#e"/>
<use x="260.205078" xlink:href="#v"/>
<use x="323.681641" xlink:href="#d"/>
<use x="384.960938" xlink:href="#j"/>
</g>
</g>
<g clip-path="url(#a)">
<g transform="translate(958.43 561.65) scale(.1 -.1)">
<use xlink:href="#r"/>
<use x="63.476562" xlink:href="#n"/>
<use x="102.685547" xlink:href="#d"/>
<use x="163.964844" xlink:href="#n"/>
<use x="203.173828" xlink:href="#f"/>
</g>
</g>
<g clip-path="url(#a)">
<defs>
<path id="g" d="m10.688 12.406h10.312v-12.406h-10.312z"/>
</defs>
<g transform="translate(1016.1 561.65) scale(.1 -.1)">
<use xlink:href="#g"/>
</g>
</g>
<g clip-path="url(#a)">
<defs>
<path id="c" d="m12.406 8.2969h16.109v55.625l-17.531-3.5156v8.9844l17.438 3.5156h9.8594v-64.609h16.109v-8.2969h-41.984z"/>
</defs>
<g transform="translate(259.97 30.532) scale(.1 -.1)">
<use xlink:href="#c"/>
<use x="63.623047" xlink:href="#g"/>
<use x="95.410156" xlink:href="#c"/>
</g>
</g>
<g clip-path="url(#a)">
<g transform="translate(460.42 140.51) scale(.1 -.1)">
<use xlink:href="#c"/>
<use x="63.623047" xlink:href="#g"/>
<use x="95.410156" xlink:href="#m"/>
</g>
</g>
<g clip-path="url(#a)">
<defs>
<path id="u" d="m40.578 39.312q7.0781-1.5156 11.047-6.3125 3.9844-4.7812 3.9844-11.812 0-10.781-7.4219-16.703-7.4219-5.9062-21.094-5.9062-4.5781 0-9.4375 0.90625t-10.031 2.7188v9.5156q4.0938-2.3906 8.9688-3.6094 4.8906-1.2188 10.219-1.2188 9.2656 0 14.125 3.6562t4.8594 10.641q0 6.4531-4.5156 10.078-4.5156 3.6406-12.562 3.6406h-8.5v8.1094h8.8906q7.2656 0 11.125 2.9062t3.8594 8.375q0 5.6094-3.9844 8.6094-3.9688 3.0156-11.391 3.0156-4.0625 0-8.7031-0.89062-4.6406-0.875-10.203-2.7188v8.7812q5.625 1.5625 10.531 2.3438t9.25 0.78125q11.234 0 17.766-5.1094 6.5469-5.0938 6.5469-13.781 0-6.0625-3.4688-10.234t-9.8594-5.7812z"/>
</defs>
<g transform="translate(135.05 457.6) scale(.1 -.1)">
<use xlink:href="#c"/>
<use x="63.623047" xlink:href="#g"/>
<use x="95.410156" xlink:href="#u"/>
</g>
</g>
<g clip-path="url(#a)">
<g transform="translate(250.14 248.05) scale(.1 -.1)">
<use xlink:href="#c"/>
<use x="63.623047" xlink:href="#g"/>
<use x="95.410156" xlink:href="#t"/>
</g>
</g>
<g clip-path="url(#a)">
<defs>
<path id="aa" d="m31.781 34.625q-7.0312 0-11.062-3.7656-4.0156-3.7656-4.0156-10.344 0-6.5938 4.0156-10.359 4.0312-3.7656 11.062-3.7656t11.078 3.7812q4.0625 3.7969 4.0625 10.344 0 6.5781-4.0312 10.344-4.0156 3.7656-11.109 3.7656zm-9.8594 4.1875q-6.3438 1.5625-9.8906 5.9062-3.5312 4.3594-3.5312 10.609 0 8.7344 6.2188 13.812 6.2344 5.0781 17.062 5.0781 10.891 0 17.094-5.0781t6.2031-13.812q0-6.25-3.5469-10.609-3.5312-4.3438-9.8281-5.9062 7.125-1.6562 11.094-6.5 3.9844-4.8281 3.9844-11.797 0-10.609-6.4688-16.281-6.4688-5.6562-18.531-5.6562-12.047 0-18.531 5.6562-6.4688 5.6719-6.4688 16.281 0 6.9688 4 11.797 4.0156 4.8438 11.141 6.5zm-3.6094 15.578q0-5.6562 3.5312-8.8281 3.5469-3.1719 9.9375-3.1719 6.3594 0 9.9375 3.1719 3.5938 3.1719 3.5938 8.8281 0 5.6719-3.5938 8.8438-3.5781 3.1719-9.9375 3.1719-6.3906 0-9.9375-3.1719-3.5312-3.1719-3.5312-8.8438z"/>
</defs>
<g transform="translate(181.08 457.6) scale(.1 -.1)">
<use xlink:href="#c"/>
<use x="63.623047" xlink:href="#g"/>
<use x="95.410156" xlink:href="#aa"/>
</g>
</g>
<g clip-path="url(#a)">
<defs>
<path id="z" d="m10.984 1.5156v8.9844q3.7188-1.7656 7.5156-2.6875 3.8125-0.92188 7.4844-0.92188 9.7656 0 14.906 6.5625 5.1562 6.5625 5.8906 19.953-2.8281-4.2031-7.1875-6.4531-4.3438-2.25-9.6094-2.25-10.938 0-17.312 6.6094-6.375 6.625-6.375 18.109 0 11.219 6.6406 18 6.6406 6.7969 17.672 6.7969 12.656 0 19.312-9.7031 6.6719-9.6875 6.6719-28.141 0-17.234-8.1875-27.516-8.1719-10.281-21.984-10.281-3.7188 0-7.5312 0.73438-3.7969 0.73438-7.9062 2.2031zm19.625 30.906q6.6406 0 10.516 4.5312 3.8906 4.5469 3.8906 12.469 0 7.8594-3.8906 12.422-3.875 4.5625-10.516 4.5625t-10.516-4.5625-3.875-12.422q0-7.9219 3.875-12.469 3.875-4.5312 10.516-4.5312z"/>
</defs>
<g transform="translate(227.12 457.6) scale(.1 -.1)">
<use xlink:href="#c"/>
<use x="63.623047" xlink:href="#g"/>
<use x="95.410156" xlink:href="#z"/>
</g>
</g>
<g clip-path="url(#a)">
<defs>
<path id="ab" d="m31.781 66.406q-7.6094 0-11.453-7.5-3.8281-7.4844-3.8281-22.531 0-14.984 3.8281-22.484 3.8438-7.5 11.453-7.5 7.6719 0 11.5 7.5 3.8438 7.5 3.8438 22.484 0 15.047-3.8438 22.531-3.8281 7.5-11.5 7.5zm0 7.8125q12.266 0 18.734-9.7031 6.4688-9.6875 6.4688-28.141 0-18.406-6.4688-28.109-6.4688-9.6875-18.734-9.6875-12.25 0-18.719 9.6875-6.4688 9.7031-6.4688 28.109 0 18.453 6.4688 28.141 6.4688 9.7031 18.719 9.7031z"/>
</defs>
<g transform="translate(546.2 353.55) scale(.1 -.1)">
<use xlink:href="#c"/>
<use x="63.623047" xlink:href="#g"/>
<use x="95.410156" xlink:href="#c"/>
<use x="159.033203" xlink:href="#ab"/>
</g>
</g>
<g clip-path="url(#a)">
<defs>
<path id="y" d="m9.8125 72.906h9.8594v-72.906h-9.8594z"/>
</defs>
<g transform="translate(1042.7 561.65) scale(.1 -.1)">
<use xlink:href="#y"/>
<use x="29.492188" xlink:href="#x"/>
<use x="115.771484" xlink:href="#af"/>
<use x="176.074219" xlink:href="#ag"/>
<use x="231.787109" xlink:href="#y"/>
<use x="261.279297" xlink:href="#s"/>
<use x="331.103516" xlink:href="#y"/>
<use x="360.595703" xlink:href="#l"/>
</g>
</g>
<g clip-path="url(#a)">
<g transform="translate(269.98 457.6) scale(.1 -.1)">
<use xlink:href="#c"/>
<use x="63.623047" xlink:href="#g"/>
<use x="95.410156" xlink:href="#c"/>
<use x="159.033203" xlink:href="#m"/>
</g>
</g>
<g clip-path="url(#a)">
<g transform="translate(316.01 457.6) scale(.1 -.1)">
<use xlink:href="#c"/>
<use x="63.623047" xlink:href="#g"/>
<use x="95.410156" xlink:href="#c"/>
<use x="159.033203" xlink:href="#u"/>
</g>
</g>
<g clip-path="url(#a)">
<g transform="translate(39.791 457.6) scale(.1 -.1)">
<use xlink:href="#c"/>
<use x="63.623047" xlink:href="#g"/>
<use x="95.410156" xlink:href="#c"/>
<use x="159.033203" xlink:href="#t"/>
</g>
</g>
<g clip-path="url(#a)">
<defs>
<path id="al" d="m10.797 72.906h38.719v-8.3125h-29.688v-17.859q2.1406 0.73438 4.2812 1.0938 2.1562 0.35938 4.3125 0.35938 12.203 0 19.328-6.6875 7.1406-6.6875 7.1406-18.109 0-11.766-7.3281-18.297-7.3281-6.5156-20.656-6.5156-4.5938 0-9.3594 0.78125-4.75 0.78125-9.8281 2.3438v9.9219q4.3906-2.3906 9.0781-3.5625t9.9062-1.1719q8.4531 0 13.375 4.4375 4.9375 4.4375 4.9375 12.062 0 7.6094-4.9375 12.047-4.9219 4.4531-13.375 4.4531-3.9531 0-7.8906-0.875-3.9219-0.875-8.0156-2.7344z"/>
</defs>
<g transform="translate(408.09 457.6) scale(.1 -.1)">
<use xlink:href="#c"/>
<use x="63.623047" xlink:href="#g"/>
<use x="95.410156" xlink:href="#c"/>
<use x="159.033203" xlink:href="#al"/>
</g>
</g>
<g clip-path="url(#a)">
<defs>
<path id="ak" d="m33.016 40.375q-6.6406 0-10.531-4.5469-3.875-4.5312-3.875-12.438 0-7.8594 3.875-12.438 3.8906-4.5625 10.531-4.5625t10.516 4.5625q3.875 4.5781 3.875 12.438 0 7.9062-3.875 12.438-3.875 4.5469-10.516 4.5469zm19.578 30.922v-8.9844q-3.7188 1.75-7.5 2.6719-3.7812 0.9375-7.5 0.9375-9.7656 0-14.922-6.5938-5.1406-6.5938-5.875-19.922 2.875 4.25 7.2188 6.5156 4.3594 2.2656 9.5781 2.2656 10.984 0 17.359-6.6719 6.375-6.6562 6.375-18.125 0-11.234-6.6406-18.031-6.6406-6.7812-17.672-6.7812-12.656 0-19.344 9.6875-6.6875 9.7031-6.6875 28.109 0 17.281 8.2031 27.562t22.016 10.281q3.7188 0 7.5-0.73438t7.8906-2.1875z"/>
</defs>
<g transform="translate(515.51 248.05) scale(.1 -.1)">
<use xlink:href="#c"/>
<use x="63.623047" xlink:href="#g"/>
<use x="95.410156" xlink:href="#c"/>
<use x="159.033203" xlink:href="#ak"/>
</g>
</g>
<g clip-path="url(#a)">
<defs>
<path id="aj" d="m8.2031 72.906h46.875v-4.2031l-26.469-68.703h-10.297l24.906 64.594h-35.016z"/>
</defs>
<g transform="translate(865.58 248.05) scale(.1 -.1)">
<use xlink:href="#c"/>
<use x="63.623047" xlink:href="#g"/>
<use x="95.410156" xlink:href="#c"/>
<use x="159.033203" xlink:href="#aj"/>
</g>
</g>
<g clip-path="url(#a)">
<g transform="translate(684.31 457.6) scale(.1 -.1)">
<use xlink:href="#c"/>
<use x="63.623047" xlink:href="#g"/>
<use x="95.410156" xlink:href="#c"/>
<use x="159.033203" xlink:href="#aa"/>
</g>
</g>
<g clip-path="url(#a)">
<g transform="translate(833.93 353.55) scale(.1 -.1)">
<use xlink:href="#c"/>
<use x="63.623047" xlink:href="#g"/>
<use x="95.410156" xlink:href="#c"/>
<use x="159.033203" xlink:href="#z"/>
</g>
</g>
<g clip-path="url(#a)">
<g transform="translate(937.52 457.6) scale(.1 -.1)">
<use xlink:href="#c"/>
<use x="63.623047" xlink:href="#g"/>
<use x="95.410156" xlink:href="#m"/>
<use x="159.033203" xlink:href="#ab"/>
</g>
</g>
<g clip-path="url(#a)">
<g transform="translate(730.35 457.6) scale(.1 -.1)">
<use xlink:href="#c"/>
<use x="63.623047" xlink:href="#g"/>
<use x="95.410156" xlink:href="#m"/>
<use x="159.033203" xlink:href="#c"/>
</g>
</g>
<g clip-path="url(#a)">
<g transform="translate(799.41 457.6) scale(.1 -.1)">
<use xlink:href="#c"/>
<use x="63.623047" xlink:href="#g"/>
<use x="95.410156" xlink:href="#m"/>
<use x="159.033203" xlink:href="#m"/>
</g>
</g>
<g clip-path="url(#a)">
<g transform="translate(85.829 457.6) scale(.1 -.1)">
<use xlink:href="#c"/>
<use x="63.623047" xlink:href="#g"/>
<use x="95.410156" xlink:href="#m"/>
<use x="159.033203" xlink:href="#u"/>
</g>
</g>
<g clip-path="url(#a)">
<g transform="translate(454.13 457.6) scale(.1 -.1)">
<use xlink:href="#c"/>
<use x="63.623047" xlink:href="#g"/>
<use x="95.410156" xlink:href="#m"/>
<use x="159.033203" xlink:href="#t"/>
</g>
</g>
<g clip-path="url(#a)">
<g transform="translate(500.16 457.6) scale(.1 -.1)">
<use xlink:href="#c"/>
<use x="63.623047" xlink:href="#g"/>
<use x="95.410156" xlink:href="#m"/>
<use x="159.033203" xlink:href="#al"/>
</g>
</g>
<g clip-path="url(#a)">
<g transform="translate(592.24 353.55) scale(.1 -.1)">
<use xlink:href="#c"/>
<use x="63.623047" xlink:href="#g"/>
<use x="95.410156" xlink:href="#m"/>
<use x="159.033203" xlink:href="#ak"/>
</g>
</g>
<g clip-path="url(#a)">
<g transform="translate(362.05 457.6) scale(.1 -.1)">
<use xlink:href="#c"/>
<use x="63.623047" xlink:href="#g"/>
<use x="95.410156" xlink:href="#m"/>
<use x="159.033203" xlink:href="#aj"/>
</g>
</g>
<g clip-path="url(#a)">
<g transform="translate(592.24 457.6) scale(.1 -.1)">
<use xlink:href="#c"/>
<use x="63.623047" xlink:href="#g"/>
<use x="95.410156" xlink:href="#m"/>
<use x="159.033203" xlink:href="#aa"/>
</g>
</g>
<g clip-path="url(#a)">
<g transform="translate(868.46 457.6) scale(.1 -.1)">
<use xlink:href="#c"/>
<use x="63.623047" xlink:href="#g"/>
<use x="95.410156" xlink:href="#m"/>
<use x="159.033203" xlink:href="#z"/>
</g>
</g>
<g clip-path="url(#a)">
<g transform="translate(1006.6 457.6) scale(.1 -.1)">
<use xlink:href="#c"/>
<use x="63.623047" xlink:href="#g"/>
<use x="95.410156" xlink:href="#u"/>
<use x="159.033203" xlink:href="#ab"/>
</g>
</g>
<defs>
<clipPath id="a">
<rect width="1114.7" height="586.67"/>
</clipPath>
</defs>
</svg>
