<?xml version="1.0" encoding="UTF-8"?>
<!DOCTYPE svg  PUBLIC '-//W3C//DTD SVG 1.1//EN'  'http://www.w3.org/Graphics/SVG/1.1/DTD/svg11.dtd'>
<svg width="1925.3pt" height="1013.3pt" version="1.1" viewBox="0 0 1925.3 1013.3" xmlns="http://www.w3.org/2000/svg" xmlns:xlink="http://www.w3.org/1999/xlink">
<defs>
<style type="text/css">*{stroke-linecap:butt;stroke-linejoin:round;}</style>
</defs>
<path d="m0 1013.3h1925.3v-1013.3h-1925.3z" fill="#fff"/>
<g fill="none" stroke="#000">
<path d="m289.86 46.061v116.23" clip-path="url(#a)"/>
<path d="m289.86 162.29-198.97 577.85" clip-path="url(#a)"/>
<path d="m289.86 162.29-177.63 577.85" clip-path="url(#a)"/>
<path d="m289.86 162.29 650.96 116.06" clip-path="url(#a)"/>
<path d="m289.86 162.29-146.17 692.2" clip-path="url(#a)"/>
<path d="m289.86 162.29-128.19 692.2" clip-path="url(#a)"/>
<path d="m90.885 740.14-3.3703 114.35" clip-path="url(#a)"/>
<path d="m90.885 740.14 3.3703 114.35" clip-path="url(#a)"/>
<path d="m112.23 740.14-8.9874 114.35" clip-path="url(#a)"/>
<path d="m112.23 740.14 8.9874 114.35" clip-path="url(#a)"/>
<path d="m940.81 278.35-462.8 115.87" clip-path="url(#a)"/>
<path d="m940.81 278.35-71.393 576.14" clip-path="url(#a)"/>
<path d="m940.81 278.35 37.018 461.79" clip-path="url(#a)"/>
<path d="m940.81 278.35 442.24 115.87" clip-path="url(#a)"/>
<path d="m940.81 278.35-129.81 576.14" clip-path="url(#a)"/>
<path d="m940.81 278.35 184.75 576.14" clip-path="url(#a)"/>
<path d="m478.01 394.21-203.13 115.63" clip-path="url(#a)"/>
<path d="m478.01 394.21 29.667 460.28" clip-path="url(#a)"/>
<path d="m478.01 394.21 173.47 345.93" clip-path="url(#a)"/>
<path d="m869.42 854.49v112.78" clip-path="url(#a)"/>
<path d="m977.83 740.14-47.746 114.35" clip-path="url(#a)"/>
<path d="m977.83 740.14 47.746 114.35" clip-path="url(#a)"/>
<path d="m1383.1 394.21-187.84 460.28" clip-path="url(#a)"/>
<path d="m1383.1 394.21-115.94 460.28" clip-path="url(#a)"/>
<path d="m1383.1 394.21-41.792 460.28" clip-path="url(#a)"/>
<path d="m1383.1 394.21 34.602 460.28" clip-path="url(#a)"/>
<path d="m1383.1 394.21 310.97 115.63" clip-path="url(#a)"/>
<path d="m1195.2 854.49v112.78" clip-path="url(#a)"/>
<path d="m1267.1 854.49v112.78" clip-path="url(#a)"/>
<path d="m1341.3 854.49v112.78" clip-path="url(#a)"/>
<path d="m1417.7 854.49v112.78" clip-path="url(#a)"/>
<path d="m1694 509.85 143.8 115.34" clip-path="url(#a)"/>
<path d="m1694 509.85 143.8 115.34" clip-path="url(#a)"/>
<path d="m1694 509.85v115.34" clip-path="url(#a)"/>
<path d="m1694 625.19-157.28 114.95" clip-path="url(#a)"/>
<path d="m1694 625.19-33.703 229.3" clip-path="url(#a)"/>
<path d="m1694 625.19 51.678 229.3" clip-path="url(#a)"/>
<path d="m1694 625.19 139.31 229.3" clip-path="url(#a)"/>
<path d="m1536.7 740.14-40.443 114.35" clip-path="url(#a)"/>
<path d="m1536.7 740.14 40.443 114.35" clip-path="url(#a)"/>
<path d="m1660.3 854.49v112.78" clip-path="url(#a)"/>
<path d="m1496.3 854.49v112.78" clip-path="url(#a)"/>
<path d="m1577.2 854.49v112.78" clip-path="url(#a)"/>
<path d="m930.09 854.49v112.78" clip-path="url(#a)"/>
<path d="m1025.6 854.49-32.579 112.78" clip-path="url(#a)"/>
<path d="m1025.6 854.49 32.579 112.78" clip-path="url(#a)"/>
<path d="m274.88 509.85-60.79 230.29" clip-path="url(#a)"/>
<path d="m274.88 509.85-45.811 344.64" clip-path="url(#a)"/>
<path d="m274.88 509.85 106.6 115.34" clip-path="url(#a)"/>
<path d="m507.68 854.49v112.78" clip-path="url(#a)"/>
<path d="m651.48 740.14-98.862 114.35" clip-path="url(#a)"/>
<path d="m651.48 740.14-51.678 114.35" clip-path="url(#a)"/>
<path d="m651.48 740.14-2.2469 114.35" clip-path="url(#a)"/>
<path d="m651.48 740.14 49.431 114.35" clip-path="url(#a)"/>
<path d="m651.48 740.14 103.36 114.35" clip-path="url(#a)"/>
<path d="m552.61 854.49v112.78" clip-path="url(#a)"/>
<path d="m599.8 854.49v112.78" clip-path="url(#a)"/>
<path d="m649.23 854.49v112.78" clip-path="url(#a)"/>
<path d="m700.91 854.49v112.78" clip-path="url(#a)"/>
<path d="m754.83 854.49v112.78" clip-path="url(#a)"/>
<path d="m214.09 740.14-32.205 114.35" clip-path="url(#a)"/>
<path d="m214.09 740.14-9.7364 114.35" clip-path="url(#a)"/>
<path d="m214.09 740.14 41.941 114.35" clip-path="url(#a)"/>
<path d="m229.07 854.49v112.78" clip-path="url(#a)"/>
<path d="m381.48 625.19-96.24 229.3" clip-path="url(#a)"/>
<path d="m381.48 625.19-30.333 114.95" clip-path="url(#a)"/>
<path d="m381.48 625.19 43.065 229.3" clip-path="url(#a)"/>
<path d="m381.48 625.19 83.508 229.3" clip-path="url(#a)"/>
<path d="m285.24 854.49v112.78" clip-path="url(#a)"/>
<path d="m351.15 740.14-34.452 114.35" clip-path="url(#a)"/>
<path d="m351.15 740.14 35.201 114.35" clip-path="url(#a)"/>
<path d="m351.15 740.14-0.74895 114.35" clip-path="url(#a)"/>
<path d="m424.54 854.49v112.78" clip-path="url(#a)"/>
<path d="m464.99 854.49v112.78" clip-path="url(#a)"/>
<path d="m316.69 854.49v112.78" clip-path="url(#a)"/>
<path d="m386.35 854.49v112.78" clip-path="url(#a)"/>
<path d="m181.88 854.49v112.78" clip-path="url(#a)"/>
<path d="m204.35 854.49v112.78" clip-path="url(#a)"/>
<path d="m256.03 854.49v112.78" clip-path="url(#a)"/>
<path d="m103.24 854.49v112.78" clip-path="url(#a)"/>
<path d="m121.22 854.49-6.7406 112.78" clip-path="url(#a)"/>
<path d="m121.22 854.49 6.7406 112.78" clip-path="url(#a)"/>
<path d="m87.515 854.49v112.78" clip-path="url(#a)"/>
<path d="m94.256 854.49v112.78" clip-path="url(#a)"/>
<path d="m143.69 854.49v112.78" clip-path="url(#a)"/>
<path d="m161.66 854.49v112.78" clip-path="url(#a)"/>
<path d="m350.4 854.49v112.78" clip-path="url(#a)"/>
<path d="m811 854.49v112.78" clip-path="url(#a)"/>
<path d="m1125.6 854.49v112.78" clip-path="url(#a)"/>
<path d="m1745.7 854.49v112.78" clip-path="url(#a)"/>
<path d="m1833.3 854.49v112.78" clip-path="url(#a)"/>
</g>
<path d="m283.58 101.17v6.0162q0 2.4 2.4 2.4h7.7425q2.4 0 2.4-2.4v-6.0162q0-2.4-2.4-2.4h-7.7425q-2.4 0-2.4 2.4z" clip-path="url(#a)" fill="#fff" stroke="#fff"/>
<g clip-path="url(#a)">
<defs>
<path id="aj" d="m9.8125 72.906h9.8594v-29.891h35.844v29.891h9.8594v-72.906h-9.8594v34.719h-35.844v-34.719h-9.8594z"/>
</defs>
<g transform="translate(287.65 101.17) rotate(90) scale(.08 -.08)">
<use xlink:href="#aj"/>
</g>
</g>
<path d="m195.51 455.54 1.5705-4.5609q0.78136-2.2692-1.4879-3.0506l-7.3207-2.5207q-2.2692-0.78136-3.0506 1.4879l-1.5705 4.5609q-0.78136 2.2692 1.4879 3.0506l7.3207 2.5207q2.2692 0.78136 3.0506-1.4879z" clip-path="url(#a)" fill="#fff" stroke="#fff"/>
<g clip-path="url(#a)">
<defs>
<path id="u" d="m19.672 64.797v-27.391h12.406q6.8906 0 10.641 3.5625 3.7656 3.5625 3.7656 10.156 0 6.5469-3.7656 10.109-3.75 3.5625-10.641 3.5625zm-9.8594 8.1094h22.266q12.266 0 18.531-5.5469 6.2812-5.5469 6.2812-16.234 0-10.797-6.2812-16.312-6.2656-5.5156-18.531-5.5156h-12.406v-29.297h-9.8594z"/>
</defs>
<g transform="translate(191.67 454.21) rotate(-71) scale(.08 -.08)">
<use xlink:href="#u"/>
</g>
</g>
<path d="m206.23 455.67 1.6079-5.2309q0.70517-2.2941-1.5889-2.9992l-7.4008-2.2749q-2.2941-0.70517-2.9992 1.5889l-1.6079 5.2309q-0.70517 2.2941 1.5889 2.9992l7.4008 2.2749q2.2941 0.70517 2.9992-1.5889z" clip-path="url(#a)" fill="#fff" stroke="#fff"/>
<g clip-path="url(#a)">
<defs>
<path id="q" d="m34.188 63.188-13.391-36.281h26.812zm-5.5781 9.7188h11.188l27.781-72.906h-10.25l-6.6406 18.703h-32.859l-6.6406-18.703h-10.406z"/>
</defs>
<g transform="translate(202.35 454.48) rotate(-72.913) scale(.08 -.08)">
<use xlink:href="#q"/>
</g>
</g>
<path d="m611.54 226.01 5.3875 0.96055q2.3627 0.42126 2.784-1.9415l1.359-7.6223q0.42126-2.3627-1.9415-2.784l-5.3875-0.96056q-2.3627-0.42126-2.784 1.9415l-1.359 7.6223q-0.42126 2.3627 1.9415 2.784z" clip-path="url(#a)" fill="#fff" stroke="#fff"/>
<g clip-path="url(#a)">
<g transform="translate(612.25 222.01) rotate(10.109) scale(.08 -.08)">
<use xlink:href="#q"/>
</g>
</g>
<path d="m222.3 512.55 1.2097-5.7287q0.49586-2.3482-1.8524-2.8441l-7.5754-1.5997q-2.3482-0.49586-2.8441 1.8524l-1.2097 5.7287q-0.49586 2.3482 1.8524 2.8441l7.5754 1.5997q2.3482 0.49586 2.8441-1.8524z" clip-path="url(#a)" fill="#fff" stroke="#fff"/>
<g clip-path="url(#a)">
<defs>
<path id="x" d="m8.6875 72.906h9.9219v-44.297q0-11.719 4.2344-16.875 4.25-5.1406 13.781-5.1406 9.4688 0 13.719 5.1406 4.25 5.1562 4.25 16.875v44.297h9.9062v-45.516q0-14.25-7.0625-21.531-7.0469-7.2812-20.812-7.2812-13.828 0-20.891 7.2812-7.0469 7.2812-7.0469 21.531z"/>
</defs>
<g transform="translate(218.33 511.71) rotate(-78.076) scale(.08 -.08)">
<use xlink:href="#x"/>
</g>
</g>
<path d="m231.39 512.41 1.0662-5.7571q0.43704-2.3599-1.9228-2.7969l-7.613-1.4099q-2.3599-0.43704-2.7969 1.9228l-1.0662 5.7571q-0.43704 2.3599 1.9228 2.7969l7.613 1.4099q2.3599 0.43704 2.7969-1.9228z" clip-path="url(#a)" fill="#fff" stroke="#fff"/>
<g clip-path="url(#a)">
<g transform="translate(227.4 511.67) rotate(-79.508) scale(.08 -.08)">
<use xlink:href="#x"/>
</g>
</g>
<path d="m95.387 800.28 0.16376-5.5563q0.070705-2.399-2.3283-2.4697l-7.7391-0.2281q-2.399-0.070705-2.4697 2.3283l-0.16376 5.5563q-0.070705 2.399 2.3283 2.4697l7.7391 0.2281q2.399 0.070705 2.4697-2.3283z" clip-path="url(#a)" fill="#fff" stroke="#fff"/>
<g clip-path="url(#a)">
<defs>
<path id="ai" d="m44.391 34.188q3.1719-1.0781 6.1719-4.5938t6.0312-9.6719l10.016-19.922h-10.609l-9.3125 18.703q-3.625 7.3281-7.0156 9.7188t-9.25 2.3906h-10.75v-30.812h-9.8594v72.906h22.266q12.5 0 18.656-5.2344 6.1562-5.2188 6.1562-15.766 0-6.8906-3.2031-11.438-3.2031-4.5312-9.2969-6.2812zm-24.719 30.609v-25.875h12.406q7.125 0 10.766 3.2969t3.6406 9.6875-3.6406 9.6406-10.766 3.25z"/>
</defs>
<g transform="translate(91.325 800.16) rotate(-88.312) scale(.08 -.08)">
<use xlink:href="#ai"/>
</g>
</g>
<path d="m86.22 794.71 0.16457 5.5838q0.070705 2.399 2.4697 2.3283l7.7391-0.2281q2.399-0.070705 2.3283-2.4697l-0.16457-5.5838q-0.070705-2.399-2.4697-2.3283l-7.7391 0.2281q-2.399 0.070706-2.3283 2.4697z" clip-path="url(#a)" fill="#fff" stroke="#fff"/>
<g clip-path="url(#a)">
<defs>
<path id="v" d="m64.406 67.281v-10.391q-4.9844 4.6406-10.625 6.9219-5.6406 2.2969-11.984 2.2969-12.5 0-19.141-7.6406t-6.6406-22.094q0-14.406 6.6406-22.047t19.141-7.6406q6.3438 0 11.984 2.2969t10.625 6.9375v-10.312q-5.1719-3.5156-10.969-5.2812-5.7812-1.75-12.219-1.75-16.562 0-26.094 10.125-9.5156 10.141-9.5156 27.672 0 17.578 9.5156 27.703 9.5312 10.141 26.094 10.141 6.5312 0 12.312-1.7344 5.7969-1.7344 10.875-5.2031z"/>
</defs>
<g transform="translate(90.282 794.59) rotate(88.312) scale(.08 -.08)">
<use xlink:href="#v"/>
</g>
</g>
<path d="m113.77 800.58 0.43555-5.5417q0.18805-2.3926-2.2046-2.5807l-7.7187-0.60665q-2.3926-0.18805-2.5807 2.2046l-0.43555 5.5417q-0.18805 2.3926 2.2046 2.5807l7.7187 0.60665q2.3926 0.18805 2.5807-2.2046z" clip-path="url(#a)" fill="#fff" stroke="#fff"/>
<g clip-path="url(#a)">
<g transform="translate(109.72 800.26) rotate(-85.506) scale(.08 -.08)">
<use xlink:href="#ai"/>
</g>
</g>
<path d="m110.25 795.02 0.4377 5.5691q0.18805 2.3926 2.5807 2.2046l7.7187-0.60665q2.3926-0.18805 2.2046-2.5807l-0.4377-5.5691q-0.18805-2.3926-2.5807-2.2046l-7.7187 0.60665q-2.3926 0.18805-2.2046 2.5807z" clip-path="url(#a)" fill="#fff" stroke="#fff"/>
<g clip-path="url(#a)">
<g transform="translate(114.3 794.7) rotate(85.506) scale(.08 -.08)">
<use xlink:href="#v"/>
</g>
</g>
<path d="m708.02 343.1 5.8361-1.4611q2.3281-0.58287 1.7453-2.911l-1.8804-7.5107q-0.58287-2.3281-2.911-1.7453l-5.8361 1.4611q-2.3281 0.58287-1.7453 2.911l1.8804 7.5107q0.58287 2.3281 2.911 1.7453z" clip-path="url(#a)" fill="#fff" stroke="#fff"/>
<g clip-path="url(#a)">
<g transform="translate(707.03 339.15) rotate(-14.056) scale(.08 -.08)">
<use xlink:href="#aj"/>
</g>
</g>
<path d="m911.07 569.4 0.54816-4.4237q0.29514-2.3818-2.0866-2.6769l-7.6837-0.95213q-2.3818-0.29514-2.6769 2.0866l-0.54816 4.4237q-0.29514 2.3818 2.0866 2.6769l7.6837 0.95213q2.3818 0.29514 2.6769-2.0866z" clip-path="url(#a)" fill="#fff" stroke="#fff"/>
<g clip-path="url(#a)">
<defs>
<path id="an" d="m9.8125 72.906h9.8594v-64.609h35.5v-8.2969h-45.359z"/>
</defs>
<g transform="translate(907.03 568.9) rotate(-82.936) scale(.08 -.08)">
<use xlink:href="#an"/>
</g>
</g>
<path d="m952.83 506.75 0.48074 5.997q0.19178 2.3923 2.5841 2.2006l7.7177-0.61867q2.3923-0.19178 2.2006-2.5841l-0.48074-5.997q-0.19178-2.3923-2.5841-2.2006l-7.7177 0.61867q-2.3923 0.19178-2.2006 2.5841z" clip-path="url(#a)" fill="#fff" stroke="#fff"/>
<g clip-path="url(#a)">
<g transform="translate(956.88 506.42) rotate(85.417) scale(.08 -.08)">
<use xlink:href="#aj"/>
</g>
</g>
<path d="m1157.4 341.59 5.8198 1.5248q2.3216 0.60827 2.9299-1.7134l1.9623-7.4897q0.60827-2.3216-1.7134-2.9299l-5.8198-1.5248q-2.3216-0.60827-2.9299 1.7134l-1.9623 7.4897q-0.60827 2.3216 1.7134 2.9299z" clip-path="url(#a)" fill="#fff" stroke="#fff"/>
<g clip-path="url(#a)">
<g transform="translate(1158.5 337.65) rotate(14.681) scale(.08 -.08)">
<use xlink:href="#aj"/>
</g>
</g>
<path d="m881.38 570.65 1.2869-5.7118q0.52752-2.3413-1.8138-2.8688l-7.5532-1.7018q-2.3413-0.52752-2.8688 1.8138l-1.2869 5.7118q-0.52752 2.3413 1.8138 2.8688l7.5532 1.7018q2.3413 0.52752 2.8688-1.8138z" clip-path="url(#a)" fill="#fff" stroke="#fff"/>
<g clip-path="url(#a)">
<g transform="translate(877.42 569.76) rotate(-77.303) scale(.08 -.08)">
<use xlink:href="#x"/>
</g>
</g>
<path d="m1026.3 565.55 1.7878 5.5754q0.73284 2.2854 3.0182 1.5525l7.3727-2.3642q2.2854-0.73284 1.5525-3.0182l-1.7878-5.5754q-0.73284-2.2854-3.0182-1.5525l-7.3727 2.3642q-2.2854 0.73284-1.5525 3.0182z" clip-path="url(#a)" fill="#fff" stroke="#fff"/>
<g clip-path="url(#a)">
<g transform="translate(1030.2 564.31) rotate(72.221) scale(.08 -.08)">
<use xlink:href="#x"/>
</g>
</g>
<path d="m377.17 458.84 4.7559-2.7073q2.0857-1.1873 0.89843-3.273l-3.8303-6.7287q-1.1873-2.0857-3.273-0.89843l-4.7559 2.7073q-2.0857 1.1873-0.89843 3.273l3.8303 6.7287q1.1873 2.0857 3.273 0.89843z" clip-path="url(#a)" fill="#fff" stroke="#fff"/>
<g clip-path="url(#a)">
<g transform="translate(375.16 455.3) rotate(-29.651) scale(.08 -.08)">
<use xlink:href="#q"/>
</g>
</g>
<path d="m486.42 622.22 0.32667 5.0682q0.15437 2.395 2.5494 2.2407l7.7265-0.498q2.395-0.15437 2.2407-2.5494l-0.32667-5.0682q-0.15437-2.395-2.5494-2.2407l-7.7265 0.49801q-2.395 0.15437-2.2407 2.5494z" clip-path="url(#a)" fill="#fff" stroke="#fff"/>
<g clip-path="url(#a)">
<defs>
<path id="ay" d="m53.516 70.516v-9.625q-5.6094 2.6875-10.594 4-4.9844 1.3281-9.625 1.3281-8.0469 0-12.422-3.125t-4.375-8.8906q0-4.8438 2.9062-7.3125 2.9062-2.4531 11.016-3.9688l5.9531-1.2188q11.031-2.1094 16.281-7.4062t5.25-14.172q0-10.609-7.1094-16.078-7.0938-5.4688-20.812-5.4688-5.1719 0-11.016 1.1719-5.8281 1.1719-12.078 3.4688v10.156q6-3.3594 11.766-5.0781 5.7656-1.7031 11.328-1.7031 8.4375 0 13.031 3.3125 4.5938 3.3281 4.5938 9.4844 0 5.3594-3.2969 8.3906t-10.812 4.5469l-6.0156 1.1719q-11.031 2.1875-15.969 6.875-4.9219 4.6875-4.9219 13.047 0 9.6719 6.8125 15.234t18.766 5.5625q5.1406 0 10.453-0.9375 5.3281-0.92188 10.891-2.7656z"/>
</defs>
<g transform="translate(490.48 621.96) rotate(86.312) scale(.08 -.08)">
<use xlink:href="#ay"/>
</g>
</g>
<path d="m557.91 567.54 2.4531 4.8919q1.0758 2.1454 3.2212 1.0696l6.9211-3.4706q2.1454-1.0758 1.0696-3.2212l-2.4531-4.8919q-1.0758-2.1454-3.2212-1.0696l-6.9211 3.4706q-2.1454 1.0758-1.0696 3.2212z" clip-path="url(#a)" fill="#fff" stroke="#fff"/>
<g clip-path="url(#a)">
<g transform="translate(561.54 565.72) rotate(63.368) scale(.08 -.08)">
<use xlink:href="#q"/>
</g>
</g>
<path d="m863.15 893.98v33.808q0 2.4 2.4 2.4h7.7425q2.4 0 2.4-2.4v-33.808q0-2.4-2.4-2.4h-7.7425q-2.4 0-2.4 2.4z" clip-path="url(#a)" fill="#fff" stroke="#fff"/>
<g clip-path="url(#a)">
<defs>
<path id="k" d="m-0.29688 72.906h61.672v-8.3125h-25.875v-64.594h-9.9062v64.594h-25.891z"/>
<path id="d" d="m56.203 29.594v-4.3906h-41.312q0.59375-9.2812 5.5938-14.141t13.938-4.8594q5.1719 0 10.031 1.2656t9.6562 3.8125v-8.5q-4.8438-2.0469-9.9219-3.125t-10.297-1.0781q-13.094 0-20.734 7.6094-7.6406 7.625-7.6406 20.625 0 13.422 7.25 21.297 7.25 7.8906 19.562 7.8906 11.031 0 17.453-7.1094 6.4219-7.0938 6.4219-19.297zm-8.9844 2.6406q-0.09375 7.3594-4.125 11.75-4.0312 4.4062-10.672 4.4062-7.5156 0-12.031-4.25t-5.2031-11.969z"/>
<path id="h" d="m41.109 46.297q-1.5156 0.875-3.2969 1.2812-1.7812 0.42188-3.9219 0.42188-7.625 0-11.703-4.9531t-4.0781-14.234v-28.812h-9.0312v54.688h9.0312v-8.5q2.8438 4.9844 7.375 7.3906 4.5469 2.4219 11.047 2.4219 0.92188 0 2.0469-0.125 1.125-0.10938 2.4844-0.35938z"/>
<path id="l" d="m52 44.188q3.375 6.0625 8.0625 8.9375t11.031 2.875q8.5469 0 13.188-5.9844 4.6406-5.9688 4.6406-17v-33.016h-9.0312v32.719q0 7.8594-2.7969 11.656-2.7812 3.8125-8.4844 3.8125-6.9844 0-11.047-4.6406-4.0469-4.625-4.0469-12.641v-30.906h-9.0312v32.719q0 7.9062-2.7812 11.688t-8.5938 3.7812q-6.8906 0-10.953-4.6562-4.0469-4.6562-4.0469-12.625v-30.906h-9.0312v54.688h9.0312v-8.5q3.0781 5.0312 7.375 7.4219t10.203 2.3906q5.9688 0 10.141-3.0312 4.1719-3.0156 6.1719-8.7812z"/>
<path id="f" d="m9.4219 54.688h8.9844v-54.688h-8.9844zm0 21.297h8.9844v-11.391h-8.9844z"/>
<path id="i" d="m54.891 33.016v-33.016h-8.9844v32.719q0 7.7656-3.0312 11.609-3.0312 3.8594-9.0781 3.8594-7.2812 0-11.484-4.6406-4.2031-4.625-4.2031-12.641v-30.906h-9.0312v54.688h9.0312v-8.5q3.2344 4.9375 7.5938 7.375 4.375 2.4375 10.094 2.4375 9.4219 0 14.25-5.8281 4.8438-5.8281 4.8438-17.156z"/>
<path id="g" d="m34.281 27.484q-10.891 0-15.094-2.4844t-4.2031-8.5q0-4.7812 3.1562-7.5938 3.1562-2.7969 8.5625-2.7969 7.4844 0 12 5.2969t4.5156 14.078v2zm17.922 3.7188v-31.203h-8.9844v8.2969q-3.0781-4.9688-7.6719-7.3438t-11.234-2.375q-8.3906 0-13.359 4.7188-4.9531 4.7188-4.9531 12.625 0 9.2188 6.1719 13.906 6.1875 4.6875 18.438 4.6875h12.609v0.89062q0 6.2031-4.0781 9.5938t-11.453 3.3906q-4.6875 0-9.1406-1.125-4.4375-1.125-8.5312-3.375v8.3125q4.9219 1.9062 9.5625 2.8438 4.6406 0.95312 9.0312 0.95312 11.875 0 17.734-6.1562 5.8594-6.1406 5.8594-18.641z"/>
<path id="j" d="m9.4219 75.984h8.9844v-75.984h-8.9844z"/>
</defs>
<g transform="translate(867.21 893.98) rotate(90) scale(.08 -.08)">
<use xlink:href="#k"/>
<use x="44.083984" xlink:href="#d"/>
<use x="105.607422" xlink:href="#h"/>
<use x="144.970703" xlink:href="#l"/>
<use x="242.382812" xlink:href="#f"/>
<use x="270.166016" xlink:href="#i"/>
<use x="333.544922" xlink:href="#g"/>
<use x="394.824219" xlink:href="#j"/>
</g>
</g>
<path d="m958.69 802.26 2.1086-5.05q0.92472-2.2147-1.29-3.1394l-7.1447-2.9832q-2.2147-0.92472-3.1394 1.29l-2.1086 5.05q-0.92472 2.2147 1.29 3.1394l7.1447 2.9832q2.2147 0.92472 3.1394-1.29z" clip-path="url(#a)" fill="#fff" stroke="#fff"/>
<g clip-path="url(#a)">
<g transform="translate(954.94 800.69) rotate(-67.338) scale(.08 -.08)">
<use xlink:href="#q"/>
</g>
</g>
<path d="m994.99 797.51 1.8586 4.4513q0.92472 2.2147 3.1394 1.29l7.1447-2.9832q2.2147-0.92472 1.29-3.1394l-1.8586-4.4513q-0.92472-2.2147-3.1394-1.29l-7.1447 2.9832q-2.2147 0.92472-1.29 3.1394z" clip-path="url(#a)" fill="#fff" stroke="#fff"/>
<g clip-path="url(#a)">
<g transform="translate(998.74 795.94) rotate(67.338) scale(.08 -.08)">
<use xlink:href="#u"/>
</g>
</g>
<path d="m1293.9 629.26 2.0678-5.0668q0.90683-2.2221-1.3153-3.1289l-7.1685-2.9255q-2.2221-0.90683-3.1289 1.3153l-2.0678 5.0668q-0.90683 2.2221 1.3153 3.1289l7.1685 2.9255q2.2221 0.90683 3.1289-1.3153z" clip-path="url(#a)" fill="#fff" stroke="#fff"/>
<g clip-path="url(#a)">
<g transform="translate(1290.1 627.72) rotate(-67.8) scale(.08 -.08)">
<use xlink:href="#q"/>
</g>
</g>
<path d="m1330.6 628.12 1.1239-4.4619q0.58622-2.3273-1.7411-2.9135l-7.508-1.8912q-2.3273-0.58622-2.9135 1.7411l-1.1239 4.4619q-0.58622 2.3273 1.7411 2.9135l7.508 1.8912q2.3273 0.58622 2.9135-1.7411z" clip-path="url(#a)" fill="#fff" stroke="#fff"/>
<g clip-path="url(#a)">
<defs>
<path id="ao" d="m9.8125 72.906h41.891v-8.3125h-32.031v-21.484h28.906v-8.2969h-28.906v-34.812h-9.8594z"/>
</defs>
<g transform="translate(1326.7 627.12) rotate(-75.862) scale(.08 -.08)">
<use xlink:href="#ao"/>
</g>
</g>
<path d="m1368.1 627.99 0.55702-6.1348q0.21702-2.3902-2.1731-2.6072l-7.7108-0.70011q-2.3902-0.21702-2.6072 2.1731l-0.55702 6.1348q-0.21702 2.3902 2.1731 2.6072l7.7108 0.70011q2.3902 0.21702 2.6072-2.1731z" clip-path="url(#a)" fill="#fff" stroke="#fff"/>
<g clip-path="url(#a)">
<defs>
<path id="ap" d="m19.672 64.797v-56.688h11.922q15.094 0 22.094 6.8281 7 6.8438 7 21.594 0 14.641-7 21.453t-22.094 6.8125zm-9.8594 8.1094h20.266q21.188 0 31.094-8.8125 9.9219-8.8125 9.9219-27.562 0-18.859-9.9688-27.703-9.9531-8.8281-31.047-8.8281h-20.266z"/>
</defs>
<g transform="translate(1364.1 627.62) rotate(-84.812) scale(.08 -.08)">
<use xlink:href="#ap"/>
</g>
</g>
<path d="m1393.9 622.42 0.36161 4.8102q0.17991 2.3932 2.5732 2.2133l7.7207-0.58041q2.3932-0.17991 2.2133-2.5732l-0.36161-4.8102q-0.17991-2.3932-2.5732-2.2133l-7.7207 0.58041q-2.3932 0.17991-2.2133 2.5732z" clip-path="url(#a)" fill="#fff" stroke="#fff"/>
<g clip-path="url(#a)">
<g transform="translate(1398 622.11) rotate(85.701) scale(.08 -.08)">
<use xlink:href="#u"/>
</g>
</g>
<path d="m1533.8 456.96 5.1293 1.9074q2.2495 0.83649 3.086-1.413l2.6985-7.257q0.83649-2.2495-1.413-3.086l-5.1293-1.9074q-2.2495-0.83649-3.086 1.413l-2.6985 7.257q-0.83649 2.2495 1.413 3.086z" clip-path="url(#a)" fill="#fff" stroke="#fff"/>
<g clip-path="url(#a)">
<g transform="translate(1535.2 453.15) rotate(20.398) scale(.08 -.08)">
<use xlink:href="#q"/>
</g>
</g>
<path d="m1188.9 893.98v33.808q0 2.4 2.4 2.4h7.7425q2.4 0 2.4-2.4v-33.808q0-2.4-2.4-2.4h-7.7425q-2.4 0-2.4 2.4z" clip-path="url(#a)" fill="#fff" stroke="#fff"/>
<g clip-path="url(#a)">
<g transform="translate(1193 893.98) rotate(90) scale(.08 -.08)">
<use xlink:href="#k"/>
<use x="44.083984" xlink:href="#d"/>
<use x="105.607422" xlink:href="#h"/>
<use x="144.970703" xlink:href="#l"/>
<use x="242.382812" xlink:href="#f"/>
<use x="270.166016" xlink:href="#i"/>
<use x="333.544922" xlink:href="#g"/>
<use x="394.824219" xlink:href="#j"/>
</g>
</g>
<path d="m1260.8 893.98v33.808q0 2.4 2.4 2.4h7.7425q2.4 0 2.4-2.4v-33.808q0-2.4-2.4-2.4h-7.7425q-2.4 0-2.4 2.4z" clip-path="url(#a)" fill="#fff" stroke="#fff"/>
<g clip-path="url(#a)">
<g transform="translate(1264.9 893.98) rotate(90) scale(.08 -.08)">
<use xlink:href="#k"/>
<use x="44.083984" xlink:href="#d"/>
<use x="105.607422" xlink:href="#h"/>
<use x="144.970703" xlink:href="#l"/>
<use x="242.382812" xlink:href="#f"/>
<use x="270.166016" xlink:href="#i"/>
<use x="333.544922" xlink:href="#g"/>
<use x="394.824219" xlink:href="#j"/>
</g>
</g>
<path d="m1335 893.98v33.808q0 2.4 2.4 2.4h7.7425q2.4 0 2.4-2.4v-33.808q0-2.4-2.4-2.4h-7.7425q-2.4 0-2.4 2.4z" clip-path="url(#a)" fill="#fff" stroke="#fff"/>
<g clip-path="url(#a)">
<g transform="translate(1339.1 893.98) rotate(90) scale(.08 -.08)">
<use xlink:href="#k"/>
<use x="44.083984" xlink:href="#d"/>
<use x="105.607422" xlink:href="#h"/>
<use x="144.970703" xlink:href="#l"/>
<use x="242.382812" xlink:href="#f"/>
<use x="270.166016" xlink:href="#i"/>
<use x="333.544922" xlink:href="#g"/>
<use x="394.824219" xlink:href="#j"/>
</g>
</g>
<path d="m1411.4 893.98v33.808q0 2.4 2.4 2.4h7.7425q2.4 0 2.4-2.4v-33.808q0-2.4-2.4-2.4h-7.7425q-2.4 0-2.4 2.4z" clip-path="url(#a)" fill="#fff" stroke="#fff"/>
<g clip-path="url(#a)">
<g transform="translate(1415.4 893.98) rotate(90) scale(.08 -.08)">
<use xlink:href="#k"/>
<use x="44.083984" xlink:href="#d"/>
<use x="105.607422" xlink:href="#h"/>
<use x="144.970703" xlink:href="#l"/>
<use x="242.382812" xlink:href="#f"/>
<use x="270.166016" xlink:href="#i"/>
<use x="333.544922" xlink:href="#g"/>
<use x="394.824219" xlink:href="#j"/>
</g>
</g>
<path d="m1759.9 570.7 4.2689 3.4241q1.8722 1.5017 3.3738-0.3705l4.8444-6.0397q1.5017-1.8722-0.3705-3.3738l-4.2689-3.4241q-1.8722-1.5017-3.3738 0.37049l-4.8444 6.0397q-1.5017 1.8722 0.3705 3.3738z" clip-path="url(#a)" fill="#fff" stroke="#fff"/>
<g clip-path="url(#a)">
<g transform="translate(1762.4 567.53) rotate(38.733) scale(.08 -.08)">
<use xlink:href="#q"/>
</g>
</g>
<path d="m1760.1 570.9 3.7629 3.0182q1.8722 1.5017 3.3738-0.3705l4.8444-6.0397q1.5017-1.8722-0.3705-3.3738l-3.7629-3.0182q-1.8722-1.5017-3.3738 0.3705l-4.8444 6.0397q-1.5017 1.8722 0.37049 3.3738z" clip-path="url(#a)" fill="#fff" stroke="#fff"/>
<g clip-path="url(#a)">
<g transform="translate(1762.7 567.73) rotate(38.733) scale(.08 -.08)">
<use xlink:href="#u"/>
</g>
</g>
<path d="m1687.7 564.44v6.16q0 2.4 2.4 2.4h7.7425q2.4 0 2.4-2.4v-6.16q0-2.4-2.4-2.4h-7.7425q-2.4 0-2.4 2.4z" clip-path="url(#a)" fill="#fff" stroke="#fff"/>
<g clip-path="url(#a)">
<g transform="translate(1691.8 564.44) rotate(90) scale(.08 -.08)">
<use xlink:href="#ap"/>
</g>
</g>
<path d="m1617 689.22 4.0812-2.9828q1.9377-1.4162 0.52149-3.3538l-4.5686-6.2509q-1.4162-1.9377-3.3538-0.52149l-4.0812 2.9828q-1.9377 1.4162-0.52149 3.3538l4.5686 6.2509q1.4162 1.9377 3.3538 0.52149z" clip-path="url(#a)" fill="#fff" stroke="#fff"/>
<g clip-path="url(#a)">
<defs>
<path id="af" d="m9.8125 72.906h46.094v-8.3125h-36.234v-21.578h34.719v-8.2969h-34.719v-26.422h37.109v-8.2969h-46.969z"/>
</defs>
<g transform="translate(1614.6 685.94) rotate(-36.162) scale(.08 -.08)">
<use xlink:href="#af"/>
</g>
</g>
<path d="m1683 743.52 0.81234-5.5269q0.349-2.3745-2.0255-2.7235l-7.6602-1.1259q-2.3745-0.349-2.7235 2.0255l-0.81234 5.5269q-0.349 2.3745 2.0255 2.7235l7.6602 1.1259q2.3745 0.349 2.7235-2.0255z" clip-path="url(#a)" fill="#fff" stroke="#fff"/>
<g clip-path="url(#a)">
<g transform="translate(1678.9 742.92) rotate(-81.638) scale(.08 -.08)">
<use xlink:href="#v"/>
</g>
</g>
<path d="m1713.1 738.36 1.2873 5.7117q0.52766 2.3413 2.8689 1.8136l7.5531-1.7022q2.3413-0.52766 1.8136-2.8689l-1.2873-5.7117q-0.52766-2.3413-2.8689-1.8136l-7.5531 1.7022q-2.3413 0.52766-1.8136 2.8689z" clip-path="url(#a)" fill="#fff" stroke="#fff"/>
<g clip-path="url(#a)">
<g transform="translate(1717.1 737.47) rotate(77.299) scale(.08 -.08)">
<use xlink:href="#x"/>
</g>
</g>
<path d="m1756.8 740.59 3.04 5.0039q1.2461 2.0511 3.2973 0.80503l6.6171-4.02q2.0511-1.2461 0.80503-3.2973l-3.04-5.0039q-1.2461-2.0511-3.2973-0.80503l-6.6171 4.02q-2.0511 1.2461-0.80503 3.2973z" clip-path="url(#a)" fill="#fff" stroke="#fff"/>
<g clip-path="url(#a)">
<g transform="translate(1760.3 738.48) rotate(58.72) scale(.08 -.08)">
<use xlink:href="#x"/>
</g>
</g>
<path d="m1521.6 801.79 1.6855-4.7657q0.80025-2.2627-1.4624-3.0629l-7.2994-2.5816q-2.2627-0.80025-3.0629 1.4624l-1.6855 4.7657q-0.80025 2.2627 1.4624 3.0629l7.2994 2.5816q2.2627 0.80025 3.0629-1.4624z" clip-path="url(#a)" fill="#fff" stroke="#fff"/>
<g clip-path="url(#a)">
<g transform="translate(1517.8 800.43) rotate(-70.522) scale(.08 -.08)">
<use xlink:href="#af"/>
</g>
</g>
<path d="m1550.1 796.77 1.8627 5.2666q0.80025 2.2627 3.0629 1.4624l7.2994-2.5816q2.2627-0.80025 1.4624-3.0629l-1.8627-5.2666q-0.80025-2.2627-3.0629-1.4624l-7.2994 2.5816q-2.2627 0.80025-1.4624 3.0629z" clip-path="url(#a)" fill="#fff" stroke="#fff"/>
<g clip-path="url(#a)">
<g transform="translate(1553.9 795.42) rotate(70.522) scale(.08 -.08)">
<use xlink:href="#v"/>
</g>
</g>
<path d="m1654 893.98v33.808q0 2.4 2.4 2.4h7.7425q2.4 0 2.4-2.4v-33.808q0-2.4-2.4-2.4h-7.7425q-2.4 0-2.4 2.4z" clip-path="url(#a)" fill="#fff" stroke="#fff"/>
<g clip-path="url(#a)">
<g transform="translate(1658.1 893.98) rotate(90) scale(.08 -.08)">
<use xlink:href="#k"/>
<use x="44.083984" xlink:href="#d"/>
<use x="105.607422" xlink:href="#h"/>
<use x="144.970703" xlink:href="#l"/>
<use x="242.382812" xlink:href="#f"/>
<use x="270.166016" xlink:href="#i"/>
<use x="333.544922" xlink:href="#g"/>
<use x="394.824219" xlink:href="#j"/>
</g>
</g>
<path d="m1490 893.98v33.808q0 2.4 2.4 2.4h7.7425q2.4 0 2.4-2.4v-33.808q0-2.4-2.4-2.4h-7.7425q-2.4 0-2.4 2.4z" clip-path="url(#a)" fill="#fff" stroke="#fff"/>
<g clip-path="url(#a)">
<g transform="translate(1494.1 893.98) rotate(90) scale(.08 -.08)">
<use xlink:href="#k"/>
<use x="44.083984" xlink:href="#d"/>
<use x="105.607422" xlink:href="#h"/>
<use x="144.970703" xlink:href="#l"/>
<use x="242.382812" xlink:href="#f"/>
<use x="270.166016" xlink:href="#i"/>
<use x="333.544922" xlink:href="#g"/>
<use x="394.824219" xlink:href="#j"/>
</g>
</g>
<path d="m1570.9 893.98v33.808q0 2.4 2.4 2.4h7.7425q2.4 0 2.4-2.4v-33.808q0-2.4-2.4-2.4h-7.7425q-2.4 0-2.4 2.4z" clip-path="url(#a)" fill="#fff" stroke="#fff"/>
<g clip-path="url(#a)">
<g transform="translate(1575 893.98) rotate(90) scale(.08 -.08)">
<use xlink:href="#k"/>
<use x="44.083984" xlink:href="#d"/>
<use x="105.607422" xlink:href="#h"/>
<use x="144.970703" xlink:href="#l"/>
<use x="242.382812" xlink:href="#f"/>
<use x="270.166016" xlink:href="#i"/>
<use x="333.544922" xlink:href="#g"/>
<use x="394.824219" xlink:href="#j"/>
</g>
</g>
<path d="m923.82 893.98v33.808q0 2.4 2.4 2.4h7.7425q2.4 0 2.4-2.4v-33.808q0-2.4-2.4-2.4h-7.7425q-2.4 0-2.4 2.4z" clip-path="url(#a)" fill="#fff" stroke="#fff"/>
<g clip-path="url(#a)">
<g transform="translate(927.88 893.98) rotate(90) scale(.08 -.08)">
<use xlink:href="#k"/>
<use x="44.083984" xlink:href="#d"/>
<use x="105.607422" xlink:href="#h"/>
<use x="144.970703" xlink:href="#l"/>
<use x="242.382812" xlink:href="#f"/>
<use x="270.166016" xlink:href="#i"/>
<use x="333.544922" xlink:href="#g"/>
<use x="394.824219" xlink:href="#j"/>
</g>
</g>
<path d="m1010.6 928.86 9.3824-32.479q0.66606-2.3057-1.6397-2.9718l-7.4384-2.1487q-2.3057-0.66606-2.9718 1.6397l-9.3824 32.479q-0.66606 2.3057 1.6397 2.9718l7.4384 2.1487q2.3057 0.66606 2.9718-1.6397z" clip-path="url(#a)" fill="#fff" stroke="#fff"/>
<g clip-path="url(#a)">
<g transform="translate(1006.7 927.73) rotate(-73.887) scale(.08 -.08)">
<use xlink:href="#k"/>
<use x="44.083984" xlink:href="#d"/>
<use x="105.607422" xlink:href="#h"/>
<use x="144.970703" xlink:href="#l"/>
<use x="242.382812" xlink:href="#f"/>
<use x="270.166016" xlink:href="#i"/>
<use x="333.544922" xlink:href="#g"/>
<use x="394.824219" xlink:href="#j"/>
</g>
</g>
<path d="m1031.2 896.38 9.3824 32.479q0.66606 2.3057 2.9718 1.6397l7.4384-2.1487q2.3057-0.66606 1.6397-2.9718l-9.3824-32.479q-0.66606-2.3057-2.9718-1.6397l-7.4384 2.1487q-2.3057 0.66606-1.6397 2.9718z" clip-path="url(#a)" fill="#fff" stroke="#fff"/>
<g clip-path="url(#a)">
<g transform="translate(1035.1 895.25) rotate(73.887) scale(.08 -.08)">
<use xlink:href="#k"/>
<use x="44.083984" xlink:href="#d"/>
<use x="105.607422" xlink:href="#h"/>
<use x="144.970703" xlink:href="#l"/>
<use x="242.382812" xlink:href="#f"/>
<use x="270.166016" xlink:href="#i"/>
<use x="333.544922" xlink:href="#g"/>
<use x="394.824219" xlink:href="#j"/>
</g>
</g>
<path d="m249.85 629.24 1.3967-5.2913q0.61254-2.3205-1.708-2.9331l-7.4861-1.9761q-2.3205-0.61254-2.9331 1.708l-1.3967 5.2913q-0.61254 2.3205 1.708 2.9331l7.4861 1.9761q2.3205 0.61254 2.9331-1.708z" clip-path="url(#a)" fill="#fff" stroke="#fff"/>
<g clip-path="url(#a)">
<g transform="translate(245.92 628.2) rotate(-75.213) scale(.08 -.08)">
<use xlink:href="#q"/>
</g>
</g>
<path d="m257.87 685.39 0.6356-4.7817q0.31623-2.3791-2.0628-2.6953l-7.675-1.0202q-2.3791-0.31623-2.6953 2.0628l-0.6356 4.7817q-0.31623 2.3791 2.0628 2.6953l7.675 1.0202q2.3791 0.31623 2.6953-2.0628z" clip-path="url(#a)" fill="#fff" stroke="#fff"/>
<g clip-path="url(#a)">
<g transform="translate(253.84 684.85) rotate(-82.428) scale(.08 -.08)">
<use xlink:href="#u"/>
</g>
</g>
<path d="m321.72 569.77 3.7144 4.0189q1.629 1.7625 3.3915 0.13357l5.686-5.2551q1.7625-1.629 0.13357-3.3915l-3.7144-4.0189q-1.629-1.7625-3.3915-0.13356l-5.686 5.2551q-1.7625 1.629-0.13356 3.3915z" clip-path="url(#a)" fill="#fff" stroke="#fff"/>
<g clip-path="url(#a)">
<g transform="translate(324.7 567.01) rotate(47.255) scale(.08 -.08)">
<use xlink:href="#q"/>
</g>
</g>
<path d="m501.41 893.98v33.808q0 2.4 2.4 2.4h7.7425q2.4 0 2.4-2.4v-33.808q0-2.4-2.4-2.4h-7.7425q-2.4 0-2.4 2.4z" clip-path="url(#a)" fill="#fff" stroke="#fff"/>
<g clip-path="url(#a)">
<g transform="translate(505.47 893.98) rotate(90) scale(.08 -.08)">
<use xlink:href="#k"/>
<use x="44.083984" xlink:href="#d"/>
<use x="105.607422" xlink:href="#h"/>
<use x="144.970703" xlink:href="#l"/>
<use x="242.382812" xlink:href="#f"/>
<use x="270.166016" xlink:href="#i"/>
<use x="333.544922" xlink:href="#g"/>
<use x="394.824219" xlink:href="#j"/>
</g>
</g>
<path d="m604.97 803.52 3.6355-4.2051q1.5696-1.8156-0.24592-3.3852l-5.8571-5.0637q-1.8156-1.5696-3.3852 0.24592l-3.6355 4.2051q-1.5696 1.8156 0.24592 3.3852l5.8571 5.0637q1.8156 1.5696 3.3852-0.24592z" clip-path="url(#a)" fill="#fff" stroke="#fff"/>
<g clip-path="url(#a)">
<g transform="translate(601.9 800.86) rotate(-49.155) scale(.08 -.08)">
<use xlink:href="#ai"/>
</g>
</g>
<path d="m630.23 802.39 2.2537-4.9869q0.98837-2.187-1.1987-3.1754l-7.0555-3.1885q-2.187-0.98837-3.1754 1.1987l-2.2537 4.9869q-0.98837 2.187 1.1987 3.1754l7.0555 3.1885q2.187 0.98837 3.1754-1.1987z" clip-path="url(#a)" fill="#fff" stroke="#fff"/>
<g clip-path="url(#a)">
<g transform="translate(626.52 800.72) rotate(-65.681) scale(.08 -.08)">
<use xlink:href="#q"/>
</g>
</g>
<path d="m656.58 799.74 0.090392-4.6004q0.047148-2.3995-2.3524-2.4467l-7.741-0.1521q-2.3995-0.047148-2.4467 2.3524l-0.090392 4.6004q-0.047148 2.3995 2.3524 2.4467l7.741 0.1521q2.3995 0.047148 2.4467-2.3524z" clip-path="url(#a)" fill="#fff" stroke="#fff"/>
<g clip-path="url(#a)">
<g transform="translate(652.52 799.66) rotate(-88.874) scale(.08 -.08)">
<use xlink:href="#ao"/>
</g>
</g>
<path d="m669.21 796.98 2.4442 5.6543q0.95229 2.203 3.1553 1.2507l7.1069-3.0721q2.203-0.95229 1.2507-3.1553l-2.4442-5.6543q-0.9523-2.203-3.1553-1.2507l-7.1069 3.0721q-2.203 0.95229-1.2507 3.1553z" clip-path="url(#a)" fill="#fff" stroke="#fff"/>
<g clip-path="url(#a)">
<g transform="translate(672.94 795.36) rotate(66.622) scale(.08 -.08)">
<use xlink:href="#ap"/>
</g>
</g>
<path d="m696.88 799.73 3.2345 3.5786q1.6093 1.7805 3.3898 0.1712l5.744-5.1917q1.7805-1.6093 0.1712-3.3898l-3.2345-3.5786q-1.6093-1.7805-3.3898-0.1712l-5.744 5.1917q-1.7805 1.6093-0.1712 3.3898z" clip-path="url(#a)" fill="#fff" stroke="#fff"/>
<g clip-path="url(#a)">
<g transform="translate(699.9 797.01) rotate(47.891) scale(.08 -.08)">
<use xlink:href="#u"/>
</g>
</g>
<path d="m546.34 893.98v33.808q0 2.4 2.4 2.4h7.7425q2.4 0 2.4-2.4v-33.808q0-2.4-2.4-2.4h-7.7425q-2.4 0-2.4 2.4z" clip-path="url(#a)" fill="#fff" stroke="#fff"/>
<g clip-path="url(#a)">
<g transform="translate(550.41 893.98) rotate(90) scale(.08 -.08)">
<use xlink:href="#k"/>
<use x="44.083984" xlink:href="#d"/>
<use x="105.607422" xlink:href="#h"/>
<use x="144.970703" xlink:href="#l"/>
<use x="242.382812" xlink:href="#f"/>
<use x="270.166016" xlink:href="#i"/>
<use x="333.544922" xlink:href="#g"/>
<use x="394.824219" xlink:href="#j"/>
</g>
</g>
<path d="m593.53 893.98v33.808q0 2.4 2.4 2.4h7.7425q2.4 0 2.4-2.4v-33.808q0-2.4-2.4-2.4h-7.7425q-2.4 0-2.4 2.4z" clip-path="url(#a)" fill="#fff" stroke="#fff"/>
<g clip-path="url(#a)">
<g transform="translate(597.59 893.98) rotate(90) scale(.08 -.08)">
<use xlink:href="#k"/>
<use x="44.083984" xlink:href="#d"/>
<use x="105.607422" xlink:href="#h"/>
<use x="144.970703" xlink:href="#l"/>
<use x="242.382812" xlink:href="#f"/>
<use x="270.166016" xlink:href="#i"/>
<use x="333.544922" xlink:href="#g"/>
<use x="394.824219" xlink:href="#j"/>
</g>
</g>
<path d="m642.96 893.98v33.808q0 2.4 2.4 2.4h7.7425q2.4 0 2.4-2.4v-33.808q0-2.4-2.4-2.4h-7.7425q-2.4 0-2.4 2.4z" clip-path="url(#a)" fill="#fff" stroke="#fff"/>
<g clip-path="url(#a)">
<g transform="translate(647.02 893.98) rotate(90) scale(.08 -.08)">
<use xlink:href="#k"/>
<use x="44.083984" xlink:href="#d"/>
<use x="105.607422" xlink:href="#h"/>
<use x="144.970703" xlink:href="#l"/>
<use x="242.382812" xlink:href="#f"/>
<use x="270.166016" xlink:href="#i"/>
<use x="333.544922" xlink:href="#g"/>
<use x="394.824219" xlink:href="#j"/>
</g>
</g>
<path d="m694.64 893.98v33.808q0 2.4 2.4 2.4h7.7425q2.4 0 2.4-2.4v-33.808q0-2.4-2.4-2.4h-7.7425q-2.4 0-2.4 2.4z" clip-path="url(#a)" fill="#fff" stroke="#fff"/>
<g clip-path="url(#a)">
<g transform="translate(698.7 893.98) rotate(90) scale(.08 -.08)">
<use xlink:href="#k"/>
<use x="44.083984" xlink:href="#d"/>
<use x="105.607422" xlink:href="#h"/>
<use x="144.970703" xlink:href="#l"/>
<use x="242.382812" xlink:href="#f"/>
<use x="270.166016" xlink:href="#i"/>
<use x="333.544922" xlink:href="#g"/>
<use x="394.824219" xlink:href="#j"/>
</g>
</g>
<path d="m748.56 893.98v33.808q0 2.4 2.4 2.4h7.7425q2.4 0 2.4-2.4v-33.808q0-2.4-2.4-2.4h-7.7425q-2.4 0-2.4 2.4z" clip-path="url(#a)" fill="#fff" stroke="#fff"/>
<g clip-path="url(#a)">
<g transform="translate(752.62 893.98) rotate(90) scale(.08 -.08)">
<use xlink:href="#k"/>
<use x="44.083984" xlink:href="#d"/>
<use x="105.607422" xlink:href="#h"/>
<use x="144.970703" xlink:href="#l"/>
<use x="242.382812" xlink:href="#f"/>
<use x="270.166016" xlink:href="#i"/>
<use x="333.544922" xlink:href="#g"/>
<use x="394.824219" xlink:href="#j"/>
</g>
</g>
<path d="m203.4 801.23 1.2473-4.429q0.65061-2.3101-1.6595-2.9607l-7.4526-2.0989q-2.3101-0.65061-2.9607 1.6595l-1.2473 4.429q-0.65061 2.3101 1.6595 2.9607l7.4526 2.0989q2.3101 0.65061 2.9607-1.6595z" clip-path="url(#a)" fill="#fff" stroke="#fff"/>
<g clip-path="url(#a)">
<g transform="translate(199.49 800.13) rotate(-74.271) scale(.08 -.08)">
<use xlink:href="#ao"/>
</g>
</g>
<path d="m215.2 800.99 0.53427-6.2748q0.20361-2.3913-2.1877-2.595l-7.7146-0.65686q-2.3913-0.20361-2.595 2.1877l-0.53427 6.2748q-0.20361 2.3913 2.1877 2.595l7.7146 0.65686q2.3913 0.20361 2.595-2.1877z" clip-path="url(#a)" fill="#fff" stroke="#fff"/>
<g clip-path="url(#a)">
<defs>
<path id="az" d="m39.406 66.219q-10.75 0-17.078-8.0156-6.3125-8-6.3125-21.828 0-13.766 6.3125-21.781 6.3281-8 17.078-8 10.734 0 17.016 8 6.2812 8.0156 6.2812 21.781 0 13.828-6.2812 21.828-6.2812 8.0156-17.016 8.0156zm13.812-64.906 13-14.203h-11.922l-10.797 11.672q-1.6094-0.09375-2.4688-0.14062-0.84375-0.0625-1.625-0.0625-15.375 0-24.594 10.281-9.2031 10.281-9.2031 27.516 0 17.281 9.2031 27.562 9.2188 10.281 24.594 10.281 15.328 0 24.5-10.281 9.1875-10.281 9.1875-27.562 0-12.688-5.1094-21.734-5.0938-9.0312-14.766-13.328z"/>
</defs>
<g transform="translate(211.15 800.64) rotate(-85.133) scale(.08 -.08)">
<use xlink:href="#az"/>
</g>
</g>
<path d="m228.21 796.85 1.9236 5.2446q0.82643 2.2532 3.0797 1.4268l7.269-2.6661q2.2532-0.82643 1.4268-3.0797l-1.9236-5.2446q-0.82643-2.2532-3.0797-1.4268l-7.269 2.6661q-2.2532 0.82643-1.4268 3.0797z" clip-path="url(#a)" fill="#fff" stroke="#fff"/>
<g clip-path="url(#a)">
<g transform="translate(232.02 795.45) rotate(69.858) scale(.08 -.08)">
<use xlink:href="#v"/>
</g>
</g>
<path d="m222.8 893.98v33.808q0 2.4 2.4 2.4h7.7425q2.4 0 2.4-2.4v-33.808q0-2.4-2.4-2.4h-7.7425q-2.4 0-2.4 2.4z" clip-path="url(#a)" fill="#fff" stroke="#fff"/>
<g clip-path="url(#a)">
<g transform="translate(226.86 893.98) rotate(90) scale(.08 -.08)">
<use xlink:href="#k"/>
<use x="44.083984" xlink:href="#d"/>
<use x="105.607422" xlink:href="#h"/>
<use x="144.970703" xlink:href="#l"/>
<use x="242.382812" xlink:href="#f"/>
<use x="270.166016" xlink:href="#i"/>
<use x="333.544922" xlink:href="#g"/>
<use x="394.824219" xlink:href="#j"/>
</g>
</g>
<path d="m338.07 744.83 2.1513-5.1256q0.92882-2.213-1.2842-3.1418l-7.1392-2.9964q-2.213-0.92882-3.1418 1.2842l-2.1513 5.1256q-0.92882 2.213 1.2842 3.1418l7.1392 2.9964q2.213 0.92882 3.1418-1.2842z" clip-path="url(#a)" fill="#fff" stroke="#fff"/>
<g clip-path="url(#a)">
<g transform="translate(334.32 743.26) rotate(-67.232) scale(.08 -.08)">
<use xlink:href="#ai"/>
</g>
</g>
<path d="m371.73 686.71 1.2897-4.8877q0.61234-2.3206-1.7082-2.9329l-7.4863-1.9754q-2.3206-0.61234-2.9329 1.7082l-1.2897 4.8877q-0.61234 2.3206 1.7082 2.9329l7.4862 1.9754q2.3206 0.61234 2.9329-1.7082z" clip-path="url(#a)" fill="#fff" stroke="#fff"/>
<g clip-path="url(#a)">
<g transform="translate(367.8 685.67) rotate(-75.218) scale(.08 -.08)">
<use xlink:href="#af"/>
</g>
</g>
<path d="m396.38 738.51 0.93306 4.9681q0.443 2.3588 2.8018 1.9158l7.6095-1.4291q2.3588-0.443 1.9158-2.8018l-0.93306-4.9681q-0.443-2.3588-2.8018-1.9158l-7.6095 1.4291q-2.3588 0.443-1.9158 2.8018z" clip-path="url(#a)" fill="#fff" stroke="#fff"/>
<g clip-path="url(#a)">
<g transform="translate(400.38 737.76) rotate(79.363) scale(.08 -.08)">
<use xlink:href="#af"/>
</g>
</g>
<path d="m416.38 739.36 1.9116 5.249q0.82128 2.2551 3.0764 1.4338l7.2751-2.6495q2.2551-0.82128 1.4338-3.0764l-1.9116-5.249q-0.82128-2.2551-3.0764-1.4338l-7.2751 2.6495q-2.2551 0.82128-1.4338 3.0764z" clip-path="url(#a)" fill="#fff" stroke="#fff"/>
<g clip-path="url(#a)">
<g transform="translate(420.2 737.97) rotate(69.989) scale(.08 -.08)">
<use xlink:href="#v"/>
</g>
</g>
<path d="m278.97 893.98v33.808q0 2.4 2.4 2.4h7.7425q2.4 0 2.4-2.4v-33.808q0-2.4-2.4-2.4h-7.7425q-2.4 0-2.4 2.4z" clip-path="url(#a)" fill="#fff" stroke="#fff"/>
<g clip-path="url(#a)">
<g transform="translate(283.03 893.98) rotate(90) scale(.08 -.08)">
<use xlink:href="#k"/>
<use x="44.083984" xlink:href="#d"/>
<use x="105.607422" xlink:href="#h"/>
<use x="144.970703" xlink:href="#l"/>
<use x="242.382812" xlink:href="#f"/>
<use x="270.166016" xlink:href="#i"/>
<use x="333.544922" xlink:href="#g"/>
<use x="394.824219" xlink:href="#j"/>
</g>
</g>
<path d="m339.2 801.54 1.4582-4.8401q0.69234-2.298-1.6056-2.9903l-7.4133-2.2335q-2.298-0.69234-2.9903 1.6056l-1.4582 4.8401q-0.69234 2.298 1.6056 2.9903l7.4133 2.2335q2.298 0.69234 2.9903-1.6056z" clip-path="url(#a)" fill="#fff" stroke="#fff"/>
<g clip-path="url(#a)">
<g transform="translate(335.31 800.37) rotate(-73.233) scale(.08 -.08)">
<use xlink:href="#af"/>
</g>
</g>
<path d="m361.93 796.49 1.6435 5.339q0.7061 2.2938 2.9999 1.5877l7.3998-2.2779q2.2938-0.7061 1.5877-2.9999l-1.6435-5.339q-0.7061-2.2938-2.9999-1.5877l-7.3998 2.2779q-2.2938 0.7061-1.5877 2.9999z" clip-path="url(#a)" fill="#fff" stroke="#fff"/>
<g clip-path="url(#a)">
<g transform="translate(365.82 795.3) rotate(72.89) scale(.08 -.08)">
<use xlink:href="#v"/>
</g>
</g>
<path d="m357.02 800.28 0.038347-5.8549q0.015719-2.3999-2.3842-2.4157l-7.7423-0.050709q-2.3999-0.015719-2.4157 2.3842l-0.038347 5.8549q-0.015718 2.3999 2.3842 2.4157l7.7423 0.050709q2.3999 0.015719 2.4157-2.3842z" clip-path="url(#a)" fill="#fff" stroke="#fff"/>
<g clip-path="url(#a)">
<g transform="translate(352.96 800.26) rotate(-89.625) scale(.08 -.08)">
<use xlink:href="#x"/>
</g>
</g>
<path d="m418.27 893.98v33.808q0 2.4 2.4 2.4h7.7425q2.4 0 2.4-2.4v-33.808q0-2.4-2.4-2.4h-7.7425q-2.4 0-2.4 2.4z" clip-path="url(#a)" fill="#fff" stroke="#fff"/>
<g clip-path="url(#a)">
<g transform="translate(422.34 893.98) rotate(90) scale(.08 -.08)">
<use xlink:href="#k"/>
<use x="44.083984" xlink:href="#d"/>
<use x="105.607422" xlink:href="#h"/>
<use x="144.970703" xlink:href="#l"/>
<use x="242.382812" xlink:href="#f"/>
<use x="270.166016" xlink:href="#i"/>
<use x="333.544922" xlink:href="#g"/>
<use x="394.824219" xlink:href="#j"/>
</g>
</g>
<path d="m458.72 893.98v33.808q0 2.4 2.4 2.4h7.7425q2.4 0 2.4-2.4v-33.808q0-2.4-2.4-2.4h-7.7425q-2.4 0-2.4 2.4z" clip-path="url(#a)" fill="#fff" stroke="#fff"/>
<g clip-path="url(#a)">
<g transform="translate(462.78 893.98) rotate(90) scale(.08 -.08)">
<use xlink:href="#k"/>
<use x="44.083984" xlink:href="#d"/>
<use x="105.607422" xlink:href="#h"/>
<use x="144.970703" xlink:href="#l"/>
<use x="242.382812" xlink:href="#f"/>
<use x="270.166016" xlink:href="#i"/>
<use x="333.544922" xlink:href="#g"/>
<use x="394.824219" xlink:href="#j"/>
</g>
</g>
<path d="m310.42 893.98v33.808q0 2.4 2.4 2.4h7.7425q2.4 0 2.4-2.4v-33.808q0-2.4-2.4-2.4h-7.7425q-2.4 0-2.4 2.4z" clip-path="url(#a)" fill="#fff" stroke="#fff"/>
<g clip-path="url(#a)">
<g transform="translate(314.49 893.98) rotate(90) scale(.08 -.08)">
<use xlink:href="#k"/>
<use x="44.083984" xlink:href="#d"/>
<use x="105.607422" xlink:href="#h"/>
<use x="144.970703" xlink:href="#l"/>
<use x="242.382812" xlink:href="#f"/>
<use x="270.166016" xlink:href="#i"/>
<use x="333.544922" xlink:href="#g"/>
<use x="394.824219" xlink:href="#j"/>
</g>
</g>
<path d="m380.08 893.98v33.808q0 2.4 2.4 2.4h7.7425q2.4 0 2.4-2.4v-33.808q0-2.4-2.4-2.4h-7.7425q-2.4 0-2.4 2.4z" clip-path="url(#a)" fill="#fff" stroke="#fff"/>
<g clip-path="url(#a)">
<g transform="translate(384.14 893.98) rotate(90) scale(.08 -.08)">
<use xlink:href="#k"/>
<use x="44.083984" xlink:href="#d"/>
<use x="105.607422" xlink:href="#h"/>
<use x="144.970703" xlink:href="#l"/>
<use x="242.382812" xlink:href="#f"/>
<use x="270.166016" xlink:href="#i"/>
<use x="333.544922" xlink:href="#g"/>
<use x="394.824219" xlink:href="#j"/>
</g>
</g>
<path d="m175.61 893.98v33.808q0 2.4 2.4 2.4h7.7425q2.4 0 2.4-2.4v-33.808q0-2.4-2.4-2.4h-7.7425q-2.4 0-2.4 2.4z" clip-path="url(#a)" fill="#fff" stroke="#fff"/>
<g clip-path="url(#a)">
<g transform="translate(179.68 893.98) rotate(90) scale(.08 -.08)">
<use xlink:href="#k"/>
<use x="44.083984" xlink:href="#d"/>
<use x="105.607422" xlink:href="#h"/>
<use x="144.970703" xlink:href="#l"/>
<use x="242.382812" xlink:href="#f"/>
<use x="270.166016" xlink:href="#i"/>
<use x="333.544922" xlink:href="#g"/>
<use x="394.824219" xlink:href="#j"/>
</g>
</g>
<path d="m198.08 893.98v33.808q0 2.4 2.4 2.4h7.7425q2.4 0 2.4-2.4v-33.808q0-2.4-2.4-2.4h-7.7425q-2.4 0-2.4 2.4z" clip-path="url(#a)" fill="#fff" stroke="#fff"/>
<g clip-path="url(#a)">
<g transform="translate(202.14 893.98) rotate(90) scale(.08 -.08)">
<use xlink:href="#k"/>
<use x="44.083984" xlink:href="#d"/>
<use x="105.607422" xlink:href="#h"/>
<use x="144.970703" xlink:href="#l"/>
<use x="242.382812" xlink:href="#f"/>
<use x="270.166016" xlink:href="#i"/>
<use x="333.544922" xlink:href="#g"/>
<use x="394.824219" xlink:href="#j"/>
</g>
</g>
<path d="m249.76 893.98v33.808q0 2.4 2.4 2.4h7.7425q2.4 0 2.4-2.4v-33.808q0-2.4-2.4-2.4h-7.7425q-2.4 0-2.4 2.4z" clip-path="url(#a)" fill="#fff" stroke="#fff"/>
<g clip-path="url(#a)">
<g transform="translate(253.82 893.98) rotate(90) scale(.08 -.08)">
<use xlink:href="#k"/>
<use x="44.083984" xlink:href="#d"/>
<use x="105.607422" xlink:href="#h"/>
<use x="144.970703" xlink:href="#l"/>
<use x="242.382812" xlink:href="#f"/>
<use x="270.166016" xlink:href="#i"/>
<use x="333.544922" xlink:href="#g"/>
<use x="394.824219" xlink:href="#j"/>
</g>
</g>
<path d="m96.972 893.98v33.808q0 2.4 2.4 2.4h7.7425q2.4 0 2.4-2.4v-33.808q0-2.4-2.4-2.4h-7.7425q-2.4 0-2.4 2.4z" clip-path="url(#a)" fill="#fff" stroke="#fff"/>
<g clip-path="url(#a)">
<g transform="translate(101.04 893.98) rotate(90) scale(.08 -.08)">
<use xlink:href="#k"/>
<use x="44.083984" xlink:href="#d"/>
<use x="105.607422" xlink:href="#h"/>
<use x="144.970703" xlink:href="#l"/>
<use x="242.382812" xlink:href="#f"/>
<use x="270.166016" xlink:href="#i"/>
<use x="333.544922" xlink:href="#g"/>
<use x="394.824219" xlink:href="#j"/>
</g>
</g>
<path d="m123.1 928.13 2.017-33.747q0.14318-2.3957-2.2525-2.5389l-7.7287-0.46192q-2.3957-0.14318-2.5389 2.2525l-2.017 33.747q-0.14318 2.3957 2.2525 2.5389l7.7287 0.46192q2.3957 0.14318 2.5389-2.2525z" clip-path="url(#a)" fill="#fff" stroke="#fff"/>
<g clip-path="url(#a)">
<g transform="translate(119.04 927.89) rotate(-86.58) scale(.08 -.08)">
<use xlink:href="#k"/>
<use x="44.083984" xlink:href="#d"/>
<use x="105.607422" xlink:href="#h"/>
<use x="144.970703" xlink:href="#l"/>
<use x="242.382812" xlink:href="#f"/>
<use x="270.166016" xlink:href="#i"/>
<use x="333.544922" xlink:href="#g"/>
<use x="394.824219" xlink:href="#j"/>
</g>
</g>
<path d="m117.32 894.38 2.017 33.747q0.14318 2.3957 2.5389 2.2525l7.7287-0.46192q2.3957-0.14318 2.2525-2.5389l-2.017-33.747q-0.14318-2.3957-2.5389-2.2525l-7.7287 0.46192q-2.3957 0.14318-2.2525 2.5389z" clip-path="url(#a)" fill="#fff" stroke="#fff"/>
<g clip-path="url(#a)">
<g transform="translate(121.38 894.14) rotate(86.58) scale(.08 -.08)">
<use xlink:href="#k"/>
<use x="44.083984" xlink:href="#d"/>
<use x="105.607422" xlink:href="#h"/>
<use x="144.970703" xlink:href="#l"/>
<use x="242.382812" xlink:href="#f"/>
<use x="270.166016" xlink:href="#i"/>
<use x="333.544922" xlink:href="#g"/>
<use x="394.824219" xlink:href="#j"/>
</g>
</g>
<path d="m81.244 893.98v33.808q0 2.4 2.4 2.4h7.7425q2.4 0 2.4-2.4v-33.808q0-2.4-2.4-2.4h-7.7425q-2.4 0-2.4 2.4z" clip-path="url(#a)" fill="#fff" stroke="#fff"/>
<g clip-path="url(#a)">
<g transform="translate(85.308 893.98) rotate(90) scale(.08 -.08)">
<use xlink:href="#k"/>
<use x="44.083984" xlink:href="#d"/>
<use x="105.607422" xlink:href="#h"/>
<use x="144.970703" xlink:href="#l"/>
<use x="242.382812" xlink:href="#f"/>
<use x="270.166016" xlink:href="#i"/>
<use x="333.544922" xlink:href="#g"/>
<use x="394.824219" xlink:href="#j"/>
</g>
</g>
<path d="m87.984 893.98v33.808q0 2.4 2.4 2.4h7.7425q2.4 0 2.4-2.4v-33.808q0-2.4-2.4-2.4h-7.7425q-2.4 0-2.4 2.4z" clip-path="url(#a)" fill="#fff" stroke="#fff"/>
<g clip-path="url(#a)">
<g transform="translate(92.048 893.98) rotate(90) scale(.08 -.08)">
<use xlink:href="#k"/>
<use x="44.083984" xlink:href="#d"/>
<use x="105.607422" xlink:href="#h"/>
<use x="144.970703" xlink:href="#l"/>
<use x="242.382812" xlink:href="#f"/>
<use x="270.166016" xlink:href="#i"/>
<use x="333.544922" xlink:href="#g"/>
<use x="394.824219" xlink:href="#j"/>
</g>
</g>
<path d="m137.42 893.98v33.808q0 2.4 2.4 2.4h7.7425q2.4 0 2.4-2.4v-33.808q0-2.4-2.4-2.4h-7.7425q-2.4 0-2.4 2.4z" clip-path="url(#a)" fill="#fff" stroke="#fff"/>
<g clip-path="url(#a)">
<g transform="translate(141.48 893.98) rotate(90) scale(.08 -.08)">
<use xlink:href="#k"/>
<use x="44.083984" xlink:href="#d"/>
<use x="105.607422" xlink:href="#h"/>
<use x="144.970703" xlink:href="#l"/>
<use x="242.382812" xlink:href="#f"/>
<use x="270.166016" xlink:href="#i"/>
<use x="333.544922" xlink:href="#g"/>
<use x="394.824219" xlink:href="#j"/>
</g>
</g>
<path d="m155.39 893.98v33.808q0 2.4 2.4 2.4h7.7425q2.4 0 2.4-2.4v-33.808q0-2.4-2.4-2.4h-7.7425q-2.4 0-2.4 2.4z" clip-path="url(#a)" fill="#fff" stroke="#fff"/>
<g clip-path="url(#a)">
<g transform="translate(159.45 893.98) rotate(90) scale(.08 -.08)">
<use xlink:href="#k"/>
<use x="44.083984" xlink:href="#d"/>
<use x="105.607422" xlink:href="#h"/>
<use x="144.970703" xlink:href="#l"/>
<use x="242.382812" xlink:href="#f"/>
<use x="270.166016" xlink:href="#i"/>
<use x="333.544922" xlink:href="#g"/>
<use x="394.824219" xlink:href="#j"/>
</g>
</g>
<path d="m344.13 893.98v33.808q0 2.4 2.4 2.4h7.7425q2.4 0 2.4-2.4v-33.808q0-2.4-2.4-2.4h-7.7425q-2.4 0-2.4 2.4z" clip-path="url(#a)" fill="#fff" stroke="#fff"/>
<g clip-path="url(#a)">
<g transform="translate(348.19 893.98) rotate(90) scale(.08 -.08)">
<use xlink:href="#k"/>
<use x="44.083984" xlink:href="#d"/>
<use x="105.607422" xlink:href="#h"/>
<use x="144.970703" xlink:href="#l"/>
<use x="242.382812" xlink:href="#f"/>
<use x="270.166016" xlink:href="#i"/>
<use x="333.544922" xlink:href="#g"/>
<use x="394.824219" xlink:href="#j"/>
</g>
</g>
<path d="m804.73 893.98v33.808q0 2.4 2.4 2.4h7.7425q2.4 0 2.4-2.4v-33.808q0-2.4-2.4-2.4h-7.7425q-2.4 0-2.4 2.4z" clip-path="url(#a)" fill="#fff" stroke="#fff"/>
<g clip-path="url(#a)">
<g transform="translate(808.8 893.98) rotate(90) scale(.08 -.08)">
<use xlink:href="#k"/>
<use x="44.083984" xlink:href="#d"/>
<use x="105.607422" xlink:href="#h"/>
<use x="144.970703" xlink:href="#l"/>
<use x="242.382812" xlink:href="#f"/>
<use x="270.166016" xlink:href="#i"/>
<use x="333.544922" xlink:href="#g"/>
<use x="394.824219" xlink:href="#j"/>
</g>
</g>
<path d="m1119.3 893.98v33.808q0 2.4 2.4 2.4h7.7425q2.4 0 2.4-2.4v-33.808q0-2.4-2.4-2.4h-7.7425q-2.4 0-2.4 2.4z" clip-path="url(#a)" fill="#fff" stroke="#fff"/>
<g clip-path="url(#a)">
<g transform="translate(1123.4 893.98) rotate(90) scale(.08 -.08)">
<use xlink:href="#k"/>
<use x="44.083984" xlink:href="#d"/>
<use x="105.607422" xlink:href="#h"/>
<use x="144.970703" xlink:href="#l"/>
<use x="242.382812" xlink:href="#f"/>
<use x="270.166016" xlink:href="#i"/>
<use x="333.544922" xlink:href="#g"/>
<use x="394.824219" xlink:href="#j"/>
</g>
</g>
<path d="m1739.4 893.98v33.808q0 2.4 2.4 2.4h7.7425q2.4 0 2.4-2.4v-33.808q0-2.4-2.4-2.4h-7.7425q-2.4 0-2.4 2.4z" clip-path="url(#a)" fill="#fff" stroke="#fff"/>
<g clip-path="url(#a)">
<g transform="translate(1743.5 893.98) rotate(90) scale(.08 -.08)">
<use xlink:href="#k"/>
<use x="44.083984" xlink:href="#d"/>
<use x="105.607422" xlink:href="#h"/>
<use x="144.970703" xlink:href="#l"/>
<use x="242.382812" xlink:href="#f"/>
<use x="270.166016" xlink:href="#i"/>
<use x="333.544922" xlink:href="#g"/>
<use x="394.824219" xlink:href="#j"/>
</g>
</g>
<path d="m1827.1 893.98v33.808q0 2.4 2.4 2.4h7.7425q2.4 0 2.4-2.4v-33.808q0-2.4-2.4-2.4h-7.7425q-2.4 0-2.4 2.4z" clip-path="url(#a)" fill="#fff" stroke="#fff"/>
<g clip-path="url(#a)">
<g transform="translate(1831.1 893.98) rotate(90) scale(.08 -.08)">
<use xlink:href="#k"/>
<use x="44.083984" xlink:href="#d"/>
<use x="105.607422" xlink:href="#h"/>
<use x="144.970703" xlink:href="#l"/>
<use x="242.382812" xlink:href="#f"/>
<use x="270.166016" xlink:href="#i"/>
<use x="333.544922" xlink:href="#g"/>
<use x="394.824219" xlink:href="#j"/>
</g>
</g>
<defs>
<path id="b" d="m0 8.6603c2.2967 0 4.4997-0.9125 6.1237-2.5365 1.624-1.624 2.5365-3.827 2.5365-6.1237s-0.9125-4.4997-2.5365-6.1237c-1.624-1.624-3.827-2.5365-6.1237-2.5365s-4.4997 0.9125-6.1237 2.5365c-1.624 1.624-2.5365 3.827-2.5365 6.1237s0.9125 4.4997 2.5365 6.1237c1.624 1.624 3.827 2.5365 6.1237 2.5365z"/>
</defs>
<g clip-path="url(#a)" fill="#ffffff" stroke="#ffffff">
<use x="87.515152" y="967.272727" xlink:href="#b"/>
<use x="94.255728" y="967.272727" xlink:href="#b"/>
<use x="103.243163" y="967.272727" xlink:href="#b"/>
<use x="114.477458" y="967.272727" xlink:href="#b"/>
<use x="127.95861" y="967.272727" xlink:href="#b"/>
<use x="143.686622" y="967.272727" xlink:href="#b"/>
<use x="161.661493" y="967.272727" xlink:href="#b"/>
<use x="181.883222" y="967.272727" xlink:href="#b"/>
<use x="204.351811" y="967.272727" xlink:href="#b"/>
<use x="229.067258" y="967.272727" xlink:href="#b"/>
<use x="256.029564" y="967.272727" xlink:href="#b"/>
<use x="285.238729" y="967.272727" xlink:href="#b"/>
<use x="316.694752" y="967.272727" xlink:href="#b"/>
<use x="350.397635" y="967.272727" xlink:href="#b"/>
<use x="386.347376" y="967.272727" xlink:href="#b"/>
<use x="424.543976" y="967.272727" xlink:href="#b"/>
<use x="464.987435" y="967.272727" xlink:href="#b"/>
<use x="507.677753" y="967.272727" xlink:href="#b"/>
<use x="552.61493" y="967.272727" xlink:href="#b"/>
<use x="599.798965" y="967.272727" xlink:href="#b"/>
<use x="649.22986" y="967.272727" xlink:href="#b"/>
<use x="700.907613" y="967.272727" xlink:href="#b"/>
<use x="754.832225" y="967.272727" xlink:href="#b"/>
<use x="811.003695" y="967.272727" xlink:href="#b"/>
<use x="869.422025" y="967.272727" xlink:href="#b"/>
<use x="930.087214" y="967.272727" xlink:href="#b"/>
<use x="992.999261" y="967.272727" xlink:href="#b"/>
<use x="1058.158167" y="967.272727" xlink:href="#b"/>
<use x="1125.563932" y="967.272727" xlink:href="#b"/>
<use x="1195.216556" y="967.272727" xlink:href="#b"/>
<use x="1267.116038" y="967.272727" xlink:href="#b"/>
<use x="1341.26238" y="967.272727" xlink:href="#b"/>
<use x="1417.65558" y="967.272727" xlink:href="#b"/>
<use x="1496.295639" y="967.272727" xlink:href="#b"/>
<use x="1577.182557" y="967.272727" xlink:href="#b"/>
<use x="1660.316334" y="967.272727" xlink:href="#b"/>
<use x="1745.69697" y="967.272727" xlink:href="#b"/>
<use x="1833.324464" y="967.272727" xlink:href="#b"/>
<use x="1837.818182" y="625.189938" xlink:href="#b"/>
<use x="1837.818182" y="625.189938" xlink:href="#b"/>
<use x="289.855746" y="46.060606" xlink:href="#b"/>
<use x="289.855746" y="162.287747" xlink:href="#b"/>
<use x="90.88544" y="740.140347" xlink:href="#b"/>
<use x="112.230599" y="740.140347" xlink:href="#b"/>
<use x="940.814578" y="278.348402" xlink:href="#b"/>
<use x="478.010895" y="394.214884" xlink:href="#b"/>
<use x="869.422025" y="854.490996" xlink:href="#b"/>
<use x="977.832964" y="740.140347" xlink:href="#b"/>
<use x="1383.053954" y="394.214884" xlink:href="#b"/>
<use x="1195.216556" y="854.490996" xlink:href="#b"/>
<use x="1267.116038" y="854.490996" xlink:href="#b"/>
<use x="1341.26238" y="854.490996" xlink:href="#b"/>
<use x="1417.65558" y="854.490996" xlink:href="#b"/>
<use x="1694.019217" y="509.848305" xlink:href="#b"/>
<use x="1694.019217" y="625.189938" xlink:href="#b"/>
<use x="1536.739098" y="740.140347" xlink:href="#b"/>
<use x="1660.316334" y="854.490996" xlink:href="#b"/>
<use x="1496.295639" y="854.490996" xlink:href="#b"/>
<use x="1577.182557" y="854.490996" xlink:href="#b"/>
<use x="930.087214" y="854.490996" xlink:href="#b"/>
<use x="1025.578714" y="854.490996" xlink:href="#b"/>
<use x="274.878213" y="509.848305" xlink:href="#b"/>
<use x="507.677753" y="854.490996" xlink:href="#b"/>
<use x="651.476718" y="740.140347" xlink:href="#b"/>
<use x="552.61493" y="854.490996" xlink:href="#b"/>
<use x="599.798965" y="854.490996" xlink:href="#b"/>
<use x="649.22986" y="854.490996" xlink:href="#b"/>
<use x="700.907613" y="854.490996" xlink:href="#b"/>
<use x="754.832225" y="854.490996" xlink:href="#b"/>
<use x="214.088199" y="740.140347" xlink:href="#b"/>
<use x="229.067258" y="854.490996" xlink:href="#b"/>
<use x="381.479182" y="625.189938" xlink:href="#b"/>
<use x="285.238729" y="854.490996" xlink:href="#b"/>
<use x="351.146588" y="740.140347" xlink:href="#b"/>
<use x="424.543976" y="854.490996" xlink:href="#b"/>
<use x="464.987435" y="854.490996" xlink:href="#b"/>
<use x="316.694752" y="854.490996" xlink:href="#b"/>
<use x="386.347376" y="854.490996" xlink:href="#b"/>
<use x="181.883222" y="854.490996" xlink:href="#b"/>
<use x="204.351811" y="854.490996" xlink:href="#b"/>
<use x="256.029564" y="854.490996" xlink:href="#b"/>
<use x="103.243163" y="854.490996" xlink:href="#b"/>
<use x="121.218034" y="854.490996" xlink:href="#b"/>
<use x="87.515152" y="854.490996" xlink:href="#b"/>
<use x="94.255728" y="854.490996" xlink:href="#b"/>
<use x="143.686622" y="854.490996" xlink:href="#b"/>
<use x="161.661493" y="854.490996" xlink:href="#b"/>
<use x="350.397635" y="854.490996" xlink:href="#b"/>
<use x="811.003695" y="854.490996" xlink:href="#b"/>
<use x="1125.563932" y="854.490996" xlink:href="#b"/>
<use x="1745.69697" y="854.490996" xlink:href="#b"/>
<use x="1833.324464" y="854.490996" xlink:href="#b"/>
</g>
<g clip-path="url(#a)">
<defs>
<path id="t" d="m44.281 53.078v-8.5q-3.7969 1.9531-7.9062 2.9219-4.0938 0.98438-8.5 0.98438-6.6875 0-10.031-2.0469t-3.3438-6.1562q0-3.125 2.3906-4.9062t9.625-3.3906l3.0781-0.6875q9.5625-2.0469 13.594-5.7812t4.0312-10.422q0-7.625-6.0312-12.078-6.0312-4.4375-16.578-4.4375-4.3906 0-9.1562 0.85938t-10.031 2.5625v9.2812q4.9844-2.5938 9.8125-3.8906 4.8281-1.2812 9.5781-1.2812 6.3438 0 9.75 2.1719 3.4219 2.1719 3.4219 6.125 0 3.6562-2.4688 5.6094-2.4531 1.9531-10.812 3.7656l-3.125 0.73438q-8.3438 1.75-12.062 5.3906-3.7031 3.6406-3.7031 9.9844 0 7.7188 5.4688 11.906 5.4688 4.2031 15.531 4.2031 4.9688 0 9.3594-0.73438 4.4062-0.71875 8.1094-2.1875z"/>
</defs>
<g transform="translate(81.49 970.03) scale(.1 -.1)">
<use xlink:href="#q"/>
<use x="68.408203" xlink:href="#t"/>
</g>
</g>
<g clip-path="url(#a)">
<defs>
<path id="z" d="m45.406 46.391v29.594h8.9844v-75.984h-8.9844v8.2031q-2.8281-4.875-7.1562-7.25-4.3125-2.375-10.375-2.375-9.9062 0-16.141 7.9062-6.2188 7.9219-6.2188 20.812t6.2188 20.797q6.2344 7.9062 16.141 7.9062 6.0625 0 10.375-2.375 4.3281-2.3594 7.1562-7.2344zm-30.609-19.094q0-9.9062 4.0781-15.547t11.203-5.6406 11.219 5.6406q4.1094 5.6406 4.1094 15.547t-4.1094 15.547q-4.0938 5.6406-11.219 5.6406t-11.203-5.6406-4.0781-15.547z"/>
<path id="ae" d="m48.781 52.594v-8.4062q-3.8125 2.1094-7.6406 3.1562t-7.7344 1.0469q-8.75 0-13.594-5.5469-4.8281-5.5312-4.8281-15.547t4.8281-15.562q4.8438-5.5312 13.594-5.5312 3.9062 0 7.7344 1.0469t7.6406 3.1562v-8.3125q-3.7656-1.75-7.7969-2.625-4.0156-0.89062-8.5625-0.89062-12.359 0-19.641 7.7656-7.2656 7.7656-7.2656 20.953 0 13.375 7.3438 21.031 7.3594 7.6719 20.156 7.6719 4.1406 0 8.0938-0.85938 3.9531-0.84375 7.6719-2.5469z"/>
<path id="am" d="m48.688 27.297q0 9.9062-4.0781 15.547t-11.203 5.6406q-7.1406 0-11.219-5.6406t-4.0781-15.547 4.0781-15.547 11.219-5.6406q7.125 0 11.203 5.6406t4.0781 15.547zm-30.578 19.094q2.8438 4.875 7.1562 7.2344 4.3281 2.375 10.328 2.375 9.9688 0 16.188-7.9062 6.2344-7.9062 6.2344-20.797t-6.2344-20.812q-6.2188-7.9062-16.188-7.9062-6 0-10.328 2.375-4.3125 2.375-7.1562 7.25v-8.2031h-9.0312v75.984h9.0312z"/>
</defs>
<g transform="translate(69.782 970.03) scale(.1 -.1)">
<use xlink:href="#z"/>
<use x="63.476562" xlink:href="#d"/>
<use x="125" xlink:href="#t"/>
<use x="177.099609" xlink:href="#ae"/>
<use x="232.080078" xlink:href="#h"/>
<use x="273.193359" xlink:href="#f"/>
<use x="300.976562" xlink:href="#am"/>
<use x="364.453125" xlink:href="#d"/>
<use x="425.976562" xlink:href="#z"/>
</g>
</g>
<g clip-path="url(#a)">
<defs>
<path id="aw" d="m32.172-5.0781q-3.7969-9.7656-7.4219-12.734-3.6094-2.9844-9.6562-2.9844h-7.1875v7.5156h5.2812q3.7031 0 5.75 1.7656 2.0625 1.75 4.5469 8.2969l1.6094 4.0938-22.109 53.812h9.5156l17.094-42.766 17.094 42.766h9.5156z"/>
</defs>
<g transform="translate(97.11 970.03) scale(.1 -.1)">
<use xlink:href="#am"/>
<use x="63.476562" xlink:href="#aw"/>
</g>
</g>
<g clip-path="url(#a)">
<defs>
<path id="ba" d="m9.8125 72.906h9.8594v-67.828q0-13.188-5-19.141t-16.094-5.9531h-3.75v8.2969h3.0781q6.5312 0 9.2188 3.6719 2.6875 3.6562 2.6875 13.125z"/>
<path id="r" d="m30.609 48.391q-7.2188 0-11.422-5.6406t-4.2031-15.453 4.1719-15.453q4.1875-5.6406 11.453-5.6406 7.1875 0 11.375 5.6562 4.2031 5.6719 4.2031 15.438 0 9.7188-4.2031 15.406-4.1875 5.6875-11.375 5.6875zm0 7.6094q11.719 0 18.406-7.625 6.7031-7.6094 6.7031-21.078 0-13.422-6.7031-21.078-6.6875-7.6406-18.406-7.6406-11.766 0-18.438 7.6406-6.6562 7.6562-6.6562 21.078 0 13.469 6.6562 21.078 6.6719 7.625 18.438 7.625z"/>
<path id="ac" d="m54.891 33.016v-33.016h-8.9844v32.719q0 7.7656-3.0312 11.609-3.0312 3.8594-9.0781 3.8594-7.2812 0-11.484-4.6406-4.2031-4.625-4.2031-12.641v-30.906h-9.0312v75.984h9.0312v-29.797q3.2344 4.9375 7.5938 7.375 4.375 2.4375 10.094 2.4375 9.4219 0 14.25-5.8281 4.8438-5.8281 4.8438-17.156z"/>
</defs>
<g transform="translate(103.61 970.03) scale(.1 -.1)">
<use xlink:href="#ba"/>
<use x="29.492188" xlink:href="#r"/>
<use x="90.673828" xlink:href="#ac"/>
<use x="154.052734" xlink:href="#i"/>
</g>
</g>
<g clip-path="url(#a)">
<g transform="translate(117.58 970.03) scale(.1 -.1)">
<use xlink:href="#u"/>
<use x="56.677734" xlink:href="#d"/>
<use x="118.201172" xlink:href="#d"/>
<use x="179.724609" xlink:href="#j"/>
</g>
</g>
<g clip-path="url(#a)">
<defs>
<path id="at" d="m11.719 12.406h10.297v-8.4062l-8-15.625h-6.2969l4 15.625z"/>
</defs>
<g transform="translate(142.1 970.03) scale(.1 -.1)">
<use xlink:href="#at"/>
</g>
</g>
<g clip-path="url(#a)">
<defs>
<path id="av" d="m17.922 72.906v-27.109h-8.2969v27.109zm18.453 0v-27.109h-8.2969v27.109z"/>
</defs>
<g transform="translate(159.36 970.03) scale(.1 -.1)">
<use xlink:href="#av"/>
</g>
</g>
<g clip-path="url(#a)">
<g transform="translate(172.58 970.03) scale(.1 -.1)">
<use xlink:href="#k"/>
<use x="61.083984" xlink:href="#ac"/>
<use x="124.462891" xlink:href="#d"/>
</g>
</g>
<g clip-path="url(#a)">
<g transform="translate(195.05 970.03) scale(.1 -.1)">
<use xlink:href="#r"/>
<use x="61.181641" xlink:href="#i"/>
<use x="124.560547" xlink:href="#d"/>
</g>
</g>
<g clip-path="url(#a)">
<defs>
<path id="s" d="m18.312 70.219v-15.531h18.5v-6.9844h-18.5v-29.688q0-6.6875 1.8281-8.5938t7.4531-1.9062h9.2188v-7.5156h-9.2188q-10.406 0-14.359 3.875-3.9531 3.8906-3.9531 14.141v29.688h-6.5938v6.9844h6.5938v15.531z"/>
<path id="ad" d="m45.406 27.984q0 9.7656-4.0312 15.125-4.0156 5.375-11.297 5.375-7.2188 0-11.25-5.375-4.0312-5.3594-4.0312-15.125 0-9.7188 4.0312-15.094t11.25-5.375q7.2812 0 11.297 5.375 4.0312 5.375 4.0312 15.094zm8.9844-21.203q0-13.953-6.2031-20.766-6.1875-6.8125-18.984-6.8125-4.7344 0-8.9375 0.70312t-8.1562 2.1719v8.7344q3.9531-2.1406 7.8125-3.1562 3.8594-1.0312 7.8594-1.0312 8.8438 0 13.234 4.6094t4.3906 13.938v4.4531q-2.7812-4.8438-7.125-7.2344t-10.406-2.3906q-10.047 0-16.203 7.6562-6.1562 7.6719-6.1562 20.328 0 12.688 6.1562 20.344 6.1562 7.6719 16.203 7.6719 6.0625 0 10.406-2.3906t7.125-7.2188v8.2969h8.9844z"/>
<path id="ak" d="m8.5 21.578v33.109h8.9844v-32.766q0-7.7656 3.0156-11.656 3.0312-3.875 9.0938-3.875 7.2656 0 11.484 4.6406 4.2344 4.6406 4.2344 12.656v31h8.9844v-54.688h-8.9844v8.4062q-3.2656-4.9844-7.5938-7.4062-4.3125-2.4219-10.031-2.4219-9.4219 0-14.312 5.8594-4.875 5.8594-4.875 17.141z"/>
</defs>
<g transform="translate(194.14 970.03) scale(.1 -.1)">
<use xlink:href="#z"/>
<use x="63.476562" xlink:href="#f"/>
<use x="91.259766" xlink:href="#t"/>
<use x="143.359375" xlink:href="#s"/>
<use x="182.568359" xlink:href="#f"/>
<use x="210.351562" xlink:href="#i"/>
<use x="273.730469" xlink:href="#ad"/>
<use x="337.207031" xlink:href="#ak"/>
<use x="400.585938" xlink:href="#f"/>
<use x="428.369141" xlink:href="#t"/>
<use x="480.46875" xlink:href="#ac"/>
<use x="543.847656" xlink:href="#f"/>
<use x="571.630859" xlink:href="#i"/>
<use x="635.009766" xlink:href="#ad"/>
</g>
</g>
<g clip-path="url(#a)">
<defs>
<path id="ax" d="m37.109 75.984v-7.4844h-8.5938q-4.8281 0-6.7188-1.9531-1.875-1.9531-1.875-7.0312v-4.8281h14.797v-6.9844h-14.797v-47.703h-9.0312v47.703h-8.5938v6.9844h8.5938v3.8125q0 9.125 4.25 13.297 4.25 4.1875 13.469 4.1875z"/>
</defs>
<g transform="translate(237.98 970.03) scale(.1 -.1)">
<use xlink:href="#ax"/>
<use x="35.205078" xlink:href="#d"/>
<use x="96.728516" xlink:href="#g"/>
<use x="158.007812" xlink:href="#s"/>
<use x="197.216797" xlink:href="#ak"/>
<use x="260.595703" xlink:href="#h"/>
<use x="299.458984" xlink:href="#d"/>
</g>
</g>
<g clip-path="url(#a)">
<g transform="translate(270.81 970.03) scale(.1 -.1)">
<use xlink:href="#g"/>
<use x="61.279297" xlink:href="#am"/>
<use x="124.755859" xlink:href="#r"/>
<use x="185.9375" xlink:href="#ak"/>
<use x="249.316406" xlink:href="#s"/>
</g>
</g>
<g clip-path="url(#a)">
<g transform="translate(304.15 970.03) scale(.1 -.1)">
<use xlink:href="#d"/>
<use x="61.523438" xlink:href="#g"/>
<use x="122.802734" xlink:href="#h"/>
<use x="163.916016" xlink:href="#j"/>
<use x="191.699219" xlink:href="#aw"/>
</g>
</g>
<g clip-path="url(#a)">
<defs>
<path id="bb" d="m4.8906 31.391h26.312v-8h-26.312z"/>
</defs>
<g transform="translate(348.59 970.03) scale(.1 -.1)">
<use xlink:href="#bb"/>
</g>
</g>
<g clip-path="url(#a)">
<defs>
<path id="ab" d="m8.2031 72.906h46.875v-4.2031l-26.469-68.703h-10.297l24.906 64.594h-35.016z"/>
<path id="y" d="m31.781 66.406q-7.6094 0-11.453-7.5-3.8281-7.4844-3.8281-22.531 0-14.984 3.8281-22.484 3.8438-7.5 11.453-7.5 7.6719 0 11.5 7.5 3.8438 7.5 3.8438 22.484 0 15.047-3.8438 22.531-3.8281 7.5-11.5 7.5zm0 7.8125q12.266 0 18.734-9.7031 6.4688-9.6875 6.4688-28.141 0-18.406-6.4688-28.109-6.4688-9.6875-18.734-9.6875-12.25 0-18.719 9.6875-6.4688 9.7031-6.4688 28.109 0 18.453 6.4688 28.141 6.4688 9.7031 18.719 9.7031z"/>
</defs>
<g transform="translate(377.38 970.03) scale(.1 -.1)">
<use xlink:href="#ab"/>
<use x="63.623047" xlink:href="#y"/>
<use x="127.246094" xlink:href="#t"/>
</g>
</g>
<g clip-path="url(#a)">
<defs>
<path id="al" d="m18.109 8.2031v-29h-9.0312v75.484h9.0312v-8.2969q2.8438 4.875 7.1562 7.2344 4.3281 2.375 10.328 2.375 9.9688 0 16.188-7.9062 6.2344-7.9062 6.2344-20.797t-6.2344-20.812q-6.2188-7.9062-16.188-7.9062-6 0-10.328 2.375-4.3125 2.375-7.1562 7.25zm30.578 19.094q0 9.9062-4.0781 15.547t-11.203 5.6406q-7.1406 0-11.219-5.6406t-4.0781-15.547 4.0781-15.547 11.219-5.6406q7.125 0 11.203 5.6406t4.0781 15.547z"/>
<path id="bc" d="m2.9844 54.688h9.5156l17.094-45.891 17.094 45.891h9.5156l-20.516-54.688h-12.203z"/>
</defs>
<g transform="translate(395.54 970.03) scale(.1 -.1)">
<use xlink:href="#al"/>
<use x="63.476562" xlink:href="#h"/>
<use x="102.339844" xlink:href="#r"/>
<use x="163.521484" xlink:href="#ad"/>
<use x="226.998047" xlink:href="#h"/>
<use x="265.861328" xlink:href="#d"/>
<use x="327.384766" xlink:href="#t"/>
<use x="379.484375" xlink:href="#t"/>
<use x="431.583984" xlink:href="#f"/>
<use x="459.367188" xlink:href="#bc"/>
<use x="518.546875" xlink:href="#d"/>
</g>
</g>
<g clip-path="url(#a)">
<defs>
<path id="bd" d="m9.0781 75.984h9.0312v-44.875l26.812 23.578h11.469l-29-25.578 30.234-29.109h-11.719l-27.797 26.703v-26.703h-9.0312z"/>
</defs>
<g transform="translate(454.34 970.03) scale(.1 -.1)">
<use xlink:href="#h"/>
<use x="38.863281" xlink:href="#r"/>
<use x="100.044922" xlink:href="#ae"/>
<use x="155.025391" xlink:href="#bd"/>
</g>
</g>
<g clip-path="url(#a)">
<defs>
<path id="aq" d="m4.2031 54.688h8.9844l11.234-42.672 11.172 42.672h10.594l11.234-42.672 11.188 42.672h8.9844l-14.312-54.688h-10.594l-11.766 44.828-11.812-44.828h-10.609z"/>
</defs>
<g transform="translate(497.92 970.03) scale(.1 -.1)">
<use xlink:href="#aq"/>
<use x="81.787109" xlink:href="#g"/>
<use x="143.066406" xlink:href="#t"/>
</g>
</g>
<g clip-path="url(#a)">
<g transform="translate(542.46 970.03) scale(.1 -.1)">
<use xlink:href="#s"/>
<use x="39.208984" xlink:href="#ac"/>
<use x="102.587891" xlink:href="#g"/>
<use x="163.867188" xlink:href="#s"/>
</g>
</g>
<g clip-path="url(#a)">
<g transform="translate(596.45 970.03) scale(.1 -.1)">
<use xlink:href="#f"/>
<use x="27.783203" xlink:href="#s"/>
</g>
</g>
<g clip-path="url(#a)">
<g transform="translate(641.49 970.03) scale(.1 -.1)">
<use xlink:href="#z"/>
<use x="63.476562" xlink:href="#f"/>
<use x="91.259766" xlink:href="#z"/>
</g>
</g>
<g clip-path="url(#a)">
<defs>
<path id="au" d="m17.922 72.906v-27.109h-8.2969v27.109z"/>
</defs>
<g transform="translate(694.4 970.03) scale(.1 -.1)">
<use xlink:href="#i"/>
<use x="63.378906" xlink:href="#au"/>
<use x="90.869141" xlink:href="#s"/>
</g>
</g>
<g clip-path="url(#a)">
<g transform="translate(733.25 970.03) scale(.1 -.1)">
<use xlink:href="#al"/>
<use x="63.476562" xlink:href="#h"/>
<use x="102.339844" xlink:href="#r"/>
<use x="163.521484" xlink:href="#ad"/>
<use x="226.998047" xlink:href="#h"/>
<use x="265.861328" xlink:href="#d"/>
<use x="327.384766" xlink:href="#t"/>
<use x="379.484375" xlink:href="#t"/>
</g>
</g>
<g clip-path="url(#a)">
<defs>
<path id="e" d="m10.688 12.406h10.312v-12.406h-10.312z"/>
</defs>
<g transform="translate(809.41 970.03) scale(.1 -.1)">
<use xlink:href="#e"/>
</g>
</g>
<g clip-path="url(#a)">
<defs>
<path id="as" d="m19.672 34.812v-26.703h15.828q7.9531 0 11.781 3.2969 3.8438 3.2969 3.8438 10.078 0 6.8438-3.8438 10.078-3.8281 3.25-11.781 3.25zm0 29.984v-21.969h14.609q7.2188 0 10.75 2.7031 3.5469 2.7188 3.5469 8.2812 0 5.5156-3.5469 8.25-3.5312 2.7344-10.75 2.7344zm-9.8594 8.1094h25.203q11.281 0 17.375-4.6875 6.1094-4.6875 6.1094-13.328 0-6.7031-3.125-10.656t-9.1875-4.9219q7.2812-1.5625 11.312-6.5312 4.0312-4.9531 4.0312-12.375 0-9.7656-6.6406-15.094-6.6406-5.3125-18.906-5.3125h-26.172z"/>
</defs>
<g transform="translate(853.08 970.03) scale(.1 -.1)">
<use xlink:href="#as"/>
<use x="68.603516" xlink:href="#d"/>
<use x="130.126953" xlink:href="#ax"/>
<use x="165.332031" xlink:href="#r"/>
<use x="226.513672" xlink:href="#h"/>
<use x="265.376953" xlink:href="#d"/>
</g>
</g>
<g clip-path="url(#a)">
<g transform="translate(915.04 970.03) scale(.1 -.1)">
<use xlink:href="#as"/>
<use x="68.603516" xlink:href="#r"/>
<use x="129.785156" xlink:href="#aq"/>
<use x="211.572266" xlink:href="#f"/>
<use x="239.355469" xlink:href="#d"/>
</g>
</g>
<g clip-path="url(#a)">
<g transform="translate(979.24 970.03) scale(.1 -.1)">
<use xlink:href="#ae"/>
<use x="54.980469" xlink:href="#g"/>
<use x="116.259766" xlink:href="#l"/>
<use x="213.671875" xlink:href="#d"/>
</g>
</g>
<g clip-path="url(#a)">
<g transform="translate(1044.3 970.03) scale(.1 -.1)">
<use xlink:href="#g"/>
<use x="61.279297" xlink:href="#j"/>
<use x="89.0625" xlink:href="#r"/>
<use x="150.244141" xlink:href="#i"/>
<use x="213.623047" xlink:href="#ad"/>
</g>
</g>
<g clip-path="url(#a)">
<g transform="translate(1124 970.03) scale(.1 -.1)">
<use xlink:href="#at"/>
</g>
</g>
<g clip-path="url(#a)">
<g transform="translate(1178.3 970.03) scale(.1 -.1)">
<use xlink:href="#al"/>
<use x="63.476562" xlink:href="#d"/>
<use x="125" xlink:href="#r"/>
<use x="186.181641" xlink:href="#al"/>
<use x="249.658203" xlink:href="#j"/>
<use x="277.441406" xlink:href="#d"/>
</g>
</g>
<g clip-path="url(#a)">
<g transform="translate(1259.4 970.03) scale(.1 -.1)">
<use xlink:href="#z"/>
<use x="63.476562" xlink:href="#f"/>
<use x="91.259766" xlink:href="#z"/>
</g>
</g>
<g clip-path="url(#a)">
<g transform="translate(1334.8 970.03) scale(.1 -.1)">
<use xlink:href="#i"/>
<use x="63.378906" xlink:href="#au"/>
<use x="90.869141" xlink:href="#s"/>
</g>
</g>
<g clip-path="url(#a)">
<g transform="translate(1405.4 970.03) scale(.1 -.1)">
<use xlink:href="#aq"/>
<use x="81.787109" xlink:href="#g"/>
<use x="143.066406" xlink:href="#i"/>
<use x="206.445312" xlink:href="#s"/>
</g>
</g>
<g clip-path="url(#a)">
<g transform="translate(1488.2 970.03) scale(.1 -.1)">
<use xlink:href="#s"/>
<use x="39.208984" xlink:href="#r"/>
<use x="100.390625" xlink:href="#r"/>
</g>
</g>
<g clip-path="url(#a)">
<g transform="translate(1563.2 970.03) scale(.1 -.1)">
<use xlink:href="#l"/>
<use x="97.412109" xlink:href="#ak"/>
<use x="160.791016" xlink:href="#ae"/>
<use x="215.771484" xlink:href="#ac"/>
</g>
</g>
<g clip-path="url(#a)">
<g transform="translate(1641.9 970.03) scale(.1 -.1)">
<use xlink:href="#ae"/>
<use x="54.980469" xlink:href="#ac"/>
<use x="118.359375" xlink:href="#g"/>
<use x="179.638672" xlink:href="#i"/>
<use x="243.017578" xlink:href="#ad"/>
<use x="306.494141" xlink:href="#d"/>
</g>
</g>
<g clip-path="url(#a)">
<g transform="translate(1744.1 970.03) scale(.1 -.1)">
<use xlink:href="#e"/>
</g>
</g>
<g clip-path="url(#a)">
<g transform="translate(1831 970.03) scale(.1 -.1)">
<use xlink:href="#av"/>
</g>
</g>
<g clip-path="url(#a)">
<defs>
<path id="aa" d="m9.8125 72.906h9.8594v-72.906h-9.8594z"/>
<path id="ar" d="m9.8125 72.906h14.703l18.594-49.609 18.703 49.609h14.703v-72.906h-9.625v64.016l-18.797-50h-9.9062l-18.797 50v-64.016h-9.5781z"/>
</defs>
<g transform="translate(1816.7 627.95) scale(.1 -.1)">
<use xlink:href="#aa"/>
<use x="29.492188" xlink:href="#ar"/>
<use x="115.771484" xlink:href="#u"/>
<use x="176.074219" xlink:href="#an"/>
<use x="231.787109" xlink:href="#aa"/>
<use x="261.279297" xlink:href="#v"/>
<use x="331.103516" xlink:href="#aa"/>
<use x="360.595703" xlink:href="#k"/>
</g>
</g>
<g clip-path="url(#a)">
<g transform="translate(1816.7 627.95) scale(.1 -.1)">
<use xlink:href="#aa"/>
<use x="29.492188" xlink:href="#ar"/>
<use x="115.771484" xlink:href="#u"/>
<use x="176.074219" xlink:href="#an"/>
<use x="231.787109" xlink:href="#aa"/>
<use x="261.279297" xlink:href="#v"/>
<use x="331.103516" xlink:href="#aa"/>
<use x="360.595703" xlink:href="#k"/>
</g>
</g>
<g clip-path="url(#a)">
<defs>
<path id="c" d="m12.406 8.2969h16.109v55.625l-17.531-3.5156v8.9844l17.438 3.5156h9.8594v-64.609h16.109v-8.2969h-41.984z"/>
</defs>
<g transform="translate(281.9 48.82) scale(.1 -.1)">
<use xlink:href="#c"/>
<use x="63.623047" xlink:href="#e"/>
<use x="95.410156" xlink:href="#c"/>
</g>
</g>
<g clip-path="url(#a)">
<defs>
<path id="p" d="m19.188 8.2969h34.422v-8.2969h-46.281v8.2969q5.6094 5.8125 15.297 15.594 9.7031 9.7969 12.188 12.641 4.7344 5.3125 6.6094 9 1.8906 3.6875 1.8906 7.25 0 5.8125-4.0781 9.4688-4.0781 3.6719-10.625 3.6719-4.6406 0-9.7969-1.6094-5.1406-1.6094-11-4.8906v9.9688q5.9531 2.3906 11.125 3.6094 5.1875 1.2188 9.4844 1.2188 11.328 0 18.062-5.6719 6.7344-5.6562 6.7344-15.125 0-4.5-1.6875-8.5312-1.6719-4.0156-6.125-9.4844-1.2188-1.4219-7.7656-8.1875-6.5312-6.7656-18.453-18.922z"/>
</defs>
<g transform="translate(281.9 165.05) scale(.1 -.1)">
<use xlink:href="#c"/>
<use x="63.623047" xlink:href="#e"/>
<use x="95.410156" xlink:href="#p"/>
</g>
</g>
<g clip-path="url(#a)">
<defs>
<path id="m" d="m10.797 72.906h38.719v-8.3125h-29.688v-17.859q2.1406 0.73438 4.2812 1.0938 2.1562 0.35938 4.3125 0.35938 12.203 0 19.328-6.6875 7.1406-6.6875 7.1406-18.109 0-11.766-7.3281-18.297-7.3281-6.5156-20.656-6.5156-4.5938 0-9.3594 0.78125-4.75 0.78125-9.8281 2.3438v9.9219q4.3906-2.3906 9.0781-3.5625t9.9062-1.1719q8.4531 0 13.375 4.4375 4.9375 4.4375 4.9375 12.062 0 7.6094-4.9375 12.047-4.9219 4.4531-13.375 4.4531-3.9531 0-7.8906-0.875-3.9219-0.875-8.0156-2.7344z"/>
</defs>
<g transform="translate(82.934 742.9) scale(.1 -.1)">
<use xlink:href="#c"/>
<use x="63.623047" xlink:href="#e"/>
<use x="95.410156" xlink:href="#m"/>
</g>
</g>
<g clip-path="url(#a)">
<defs>
<path id="w" d="m33.016 40.375q-6.6406 0-10.531-4.5469-3.875-4.5312-3.875-12.438 0-7.8594 3.875-12.438 3.8906-4.5625 10.531-4.5625t10.516 4.5625q3.875 4.5781 3.875 12.438 0 7.9062-3.875 12.438-3.875 4.5469-10.516 4.5469zm19.578 30.922v-8.9844q-3.7188 1.75-7.5 2.6719-3.7812 0.9375-7.5 0.9375-9.7656 0-14.922-6.5938-5.1406-6.5938-5.875-19.922 2.875 4.25 7.2188 6.5156 4.3594 2.2656 9.5781 2.2656 10.984 0 17.359-6.6719 6.375-6.6562 6.375-18.125 0-11.234-6.6406-18.031-6.6406-6.7812-17.672-6.7812-12.656 0-19.344 9.6875-6.6875 9.7031-6.6875 28.109 0 17.281 8.2031 27.562t22.016 10.281q3.7188 0 7.5-0.73438t7.8906-2.1875z"/>
</defs>
<g transform="translate(104.28 742.9) scale(.1 -.1)">
<use xlink:href="#c"/>
<use x="63.623047" xlink:href="#e"/>
<use x="95.410156" xlink:href="#w"/>
</g>
</g>
<g clip-path="url(#a)">
<g transform="translate(932.86 281.11) scale(.1 -.1)">
<use xlink:href="#c"/>
<use x="63.623047" xlink:href="#e"/>
<use x="95.410156" xlink:href="#ab"/>
</g>
</g>
<g clip-path="url(#a)">
<g transform="translate(466.88 396.97) scale(.1 -.1)">
<use xlink:href="#c"/>
<use x="63.623047" xlink:href="#e"/>
<use x="95.410156" xlink:href="#c"/>
<use x="159.033203" xlink:href="#y"/>
</g>
</g>
<g clip-path="url(#a)">
<g transform="translate(858.29 857.25) scale(.1 -.1)">
<use xlink:href="#c"/>
<use x="63.623047" xlink:href="#e"/>
<use x="95.410156" xlink:href="#c"/>
<use x="159.033203" xlink:href="#c"/>
</g>
</g>
<g clip-path="url(#a)">
<g transform="translate(966.7 742.9) scale(.1 -.1)">
<use xlink:href="#c"/>
<use x="63.623047" xlink:href="#e"/>
<use x="95.410156" xlink:href="#c"/>
<use x="159.033203" xlink:href="#p"/>
</g>
</g>
<g clip-path="url(#a)">
<defs>
<path id="n" d="m40.578 39.312q7.0781-1.5156 11.047-6.3125 3.9844-4.7812 3.9844-11.812 0-10.781-7.4219-16.703-7.4219-5.9062-21.094-5.9062-4.5781 0-9.4375 0.90625t-10.031 2.7188v9.5156q4.0938-2.3906 8.9688-3.6094 4.8906-1.2188 10.219-1.2188 9.2656 0 14.125 3.6562t4.8594 10.641q0 6.4531-4.5156 10.078-4.5156 3.6406-12.562 3.6406h-8.5v8.1094h8.8906q7.2656 0 11.125 2.9062t3.8594 8.375q0 5.6094-3.9844 8.6094-3.9688 3.0156-11.391 3.0156-4.0625 0-8.7031-0.89062-4.6406-0.875-10.203-2.7188v8.7812q5.625 1.5625 10.531 2.3438t9.25 0.78125q11.234 0 17.766-5.1094 6.5469-5.0938 6.5469-13.781 0-6.0625-3.4688-10.234t-9.8594-5.7812z"/>
</defs>
<g transform="translate(1371.9 396.97) scale(.1 -.1)">
<use xlink:href="#c"/>
<use x="63.623047" xlink:href="#e"/>
<use x="95.410156" xlink:href="#c"/>
<use x="159.033203" xlink:href="#n"/>
</g>
</g>
<g clip-path="url(#a)">
<g transform="translate(1184.1 857.25) scale(.1 -.1)">
<use xlink:href="#c"/>
<use x="63.623047" xlink:href="#e"/>
<use x="95.410156" xlink:href="#c"/>
<use x="159.033203" xlink:href="#w"/>
</g>
</g>
<g clip-path="url(#a)">
<g transform="translate(1256 857.25) scale(.1 -.1)">
<use xlink:href="#c"/>
<use x="63.623047" xlink:href="#e"/>
<use x="95.410156" xlink:href="#c"/>
<use x="159.033203" xlink:href="#ab"/>
</g>
</g>
<g clip-path="url(#a)">
<defs>
<path id="ah" d="m31.781 34.625q-7.0312 0-11.062-3.7656-4.0156-3.7656-4.0156-10.344 0-6.5938 4.0156-10.359 4.0312-3.7656 11.062-3.7656t11.078 3.7812q4.0625 3.7969 4.0625 10.344 0 6.5781-4.0312 10.344-4.0156 3.7656-11.109 3.7656zm-9.8594 4.1875q-6.3438 1.5625-9.8906 5.9062-3.5312 4.3594-3.5312 10.609 0 8.7344 6.2188 13.812 6.2344 5.0781 17.062 5.0781 10.891 0 17.094-5.0781t6.2031-13.812q0-6.25-3.5469-10.609-3.5312-4.3438-9.8281-5.9062 7.125-1.6562 11.094-6.5 3.9844-4.8281 3.9844-11.797 0-10.609-6.4688-16.281-6.4688-5.6562-18.531-5.6562-12.047 0-18.531 5.6562-6.4688 5.6719-6.4688 16.281 0 6.9688 4 11.797 4.0156 4.8438 11.141 6.5zm-3.6094 15.578q0-5.6562 3.5312-8.8281 3.5469-3.1719 9.9375-3.1719 6.3594 0 9.9375 3.1719 3.5938 3.1719 3.5938 8.8281 0 5.6719-3.5938 8.8438-3.5781 3.1719-9.9375 3.1719-6.3906 0-9.9375-3.1719-3.5312-3.1719-3.5312-8.8438z"/>
</defs>
<g transform="translate(1330.1 857.25) scale(.1 -.1)">
<use xlink:href="#c"/>
<use x="63.623047" xlink:href="#e"/>
<use x="95.410156" xlink:href="#c"/>
<use x="159.033203" xlink:href="#ah"/>
</g>
</g>
<g clip-path="url(#a)">
<defs>
<path id="ag" d="m10.984 1.5156v8.9844q3.7188-1.7656 7.5156-2.6875 3.8125-0.92188 7.4844-0.92188 9.7656 0 14.906 6.5625 5.1562 6.5625 5.8906 19.953-2.8281-4.2031-7.1875-6.4531-4.3438-2.25-9.6094-2.25-10.938 0-17.312 6.6094-6.375 6.625-6.375 18.109 0 11.219 6.6406 18 6.6406 6.7969 17.672 6.7969 12.656 0 19.312-9.7031 6.6719-9.6875 6.6719-28.141 0-17.234-8.1875-27.516-8.1719-10.281-21.984-10.281-3.7188 0-7.5312 0.73438-3.7969 0.73438-7.9062 2.2031zm19.625 30.906q6.6406 0 10.516 4.5312 3.8906 4.5469 3.8906 12.469 0 7.8594-3.8906 12.422-3.875 4.5625-10.516 4.5625t-10.516-4.5625-3.875-12.422q0-7.9219 3.875-12.469 3.875-4.5312 10.516-4.5312z"/>
</defs>
<g transform="translate(1406.5 857.25) scale(.1 -.1)">
<use xlink:href="#c"/>
<use x="63.623047" xlink:href="#e"/>
<use x="95.410156" xlink:href="#c"/>
<use x="159.033203" xlink:href="#ag"/>
</g>
</g>
<g clip-path="url(#a)">
<g transform="translate(1682.9 512.61) scale(.1 -.1)">
<use xlink:href="#c"/>
<use x="63.623047" xlink:href="#e"/>
<use x="95.410156" xlink:href="#p"/>
<use x="159.033203" xlink:href="#y"/>
</g>
</g>
<g clip-path="url(#a)">
<g transform="translate(1682.9 627.95) scale(.1 -.1)">
<use xlink:href="#c"/>
<use x="63.623047" xlink:href="#e"/>
<use x="95.410156" xlink:href="#p"/>
<use x="159.033203" xlink:href="#n"/>
</g>
</g>
<g clip-path="url(#a)">
<defs>
<path id="o" d="m37.797 64.312-24.906-38.922h24.906zm-2.5938 8.5938h12.406v-47.516h10.406v-8.2031h-10.406v-17.188h-9.8125v17.188h-32.906v9.5156z"/>
</defs>
<g transform="translate(1525.6 742.9) scale(.1 -.1)">
<use xlink:href="#c"/>
<use x="63.623047" xlink:href="#e"/>
<use x="95.410156" xlink:href="#p"/>
<use x="159.033203" xlink:href="#o"/>
</g>
</g>
<g clip-path="url(#a)">
<g transform="translate(1649.2 857.25) scale(.1 -.1)">
<use xlink:href="#c"/>
<use x="63.623047" xlink:href="#e"/>
<use x="95.410156" xlink:href="#p"/>
<use x="159.033203" xlink:href="#m"/>
</g>
</g>
<g clip-path="url(#a)">
<g transform="translate(1485.2 857.25) scale(.1 -.1)">
<use xlink:href="#c"/>
<use x="63.623047" xlink:href="#e"/>
<use x="95.410156" xlink:href="#p"/>
<use x="159.033203" xlink:href="#w"/>
</g>
</g>
<g clip-path="url(#a)">
<g transform="translate(1566 857.25) scale(.1 -.1)">
<use xlink:href="#c"/>
<use x="63.623047" xlink:href="#e"/>
<use x="95.410156" xlink:href="#p"/>
<use x="159.033203" xlink:href="#ab"/>
</g>
</g>
<g clip-path="url(#a)">
<g transform="translate(918.95 857.25) scale(.1 -.1)">
<use xlink:href="#c"/>
<use x="63.623047" xlink:href="#e"/>
<use x="95.410156" xlink:href="#p"/>
<use x="159.033203" xlink:href="#ah"/>
</g>
</g>
<g clip-path="url(#a)">
<g transform="translate(1014.4 857.25) scale(.1 -.1)">
<use xlink:href="#c"/>
<use x="63.623047" xlink:href="#e"/>
<use x="95.410156" xlink:href="#p"/>
<use x="159.033203" xlink:href="#ag"/>
</g>
</g>
<g clip-path="url(#a)">
<g transform="translate(263.75 512.61) scale(.1 -.1)">
<use xlink:href="#c"/>
<use x="63.623047" xlink:href="#e"/>
<use x="95.410156" xlink:href="#n"/>
<use x="159.033203" xlink:href="#y"/>
</g>
</g>
<g clip-path="url(#a)">
<g transform="translate(496.54 857.25) scale(.1 -.1)">
<use xlink:href="#c"/>
<use x="63.623047" xlink:href="#e"/>
<use x="95.410156" xlink:href="#n"/>
<use x="159.033203" xlink:href="#c"/>
</g>
</g>
<g clip-path="url(#a)">
<g transform="translate(640.34 742.9) scale(.1 -.1)">
<use xlink:href="#c"/>
<use x="63.623047" xlink:href="#e"/>
<use x="95.410156" xlink:href="#n"/>
<use x="159.033203" xlink:href="#p"/>
</g>
</g>
<g clip-path="url(#a)">
<g transform="translate(541.48 857.25) scale(.1 -.1)">
<use xlink:href="#c"/>
<use x="63.623047" xlink:href="#e"/>
<use x="95.410156" xlink:href="#n"/>
<use x="159.033203" xlink:href="#n"/>
</g>
</g>
<g clip-path="url(#a)">
<g transform="translate(588.67 857.25) scale(.1 -.1)">
<use xlink:href="#c"/>
<use x="63.623047" xlink:href="#e"/>
<use x="95.410156" xlink:href="#n"/>
<use x="159.033203" xlink:href="#o"/>
</g>
</g>
<g clip-path="url(#a)">
<g transform="translate(638.1 857.25) scale(.1 -.1)">
<use xlink:href="#c"/>
<use x="63.623047" xlink:href="#e"/>
<use x="95.410156" xlink:href="#n"/>
<use x="159.033203" xlink:href="#m"/>
</g>
</g>
<g clip-path="url(#a)">
<g transform="translate(689.77 857.25) scale(.1 -.1)">
<use xlink:href="#c"/>
<use x="63.623047" xlink:href="#e"/>
<use x="95.410156" xlink:href="#n"/>
<use x="159.033203" xlink:href="#w"/>
</g>
</g>
<g clip-path="url(#a)">
<g transform="translate(743.7 857.25) scale(.1 -.1)">
<use xlink:href="#c"/>
<use x="63.623047" xlink:href="#e"/>
<use x="95.410156" xlink:href="#n"/>
<use x="159.033203" xlink:href="#ab"/>
</g>
</g>
<g clip-path="url(#a)">
<g transform="translate(202.96 742.9) scale(.1 -.1)">
<use xlink:href="#c"/>
<use x="63.623047" xlink:href="#e"/>
<use x="95.410156" xlink:href="#n"/>
<use x="159.033203" xlink:href="#ah"/>
</g>
</g>
<g clip-path="url(#a)">
<g transform="translate(217.93 857.25) scale(.1 -.1)">
<use xlink:href="#c"/>
<use x="63.623047" xlink:href="#e"/>
<use x="95.410156" xlink:href="#n"/>
<use x="159.033203" xlink:href="#ag"/>
</g>
</g>
<g clip-path="url(#a)">
<g transform="translate(370.35 627.95) scale(.1 -.1)">
<use xlink:href="#c"/>
<use x="63.623047" xlink:href="#e"/>
<use x="95.410156" xlink:href="#o"/>
<use x="159.033203" xlink:href="#y"/>
</g>
</g>
<g clip-path="url(#a)">
<g transform="translate(274.11 857.25) scale(.1 -.1)">
<use xlink:href="#c"/>
<use x="63.623047" xlink:href="#e"/>
<use x="95.410156" xlink:href="#o"/>
<use x="159.033203" xlink:href="#c"/>
</g>
</g>
<g clip-path="url(#a)">
<g transform="translate(340.01 742.9) scale(.1 -.1)">
<use xlink:href="#c"/>
<use x="63.623047" xlink:href="#e"/>
<use x="95.410156" xlink:href="#o"/>
<use x="159.033203" xlink:href="#p"/>
</g>
</g>
<g clip-path="url(#a)">
<g transform="translate(413.41 857.25) scale(.1 -.1)">
<use xlink:href="#c"/>
<use x="63.623047" xlink:href="#e"/>
<use x="95.410156" xlink:href="#o"/>
<use x="159.033203" xlink:href="#n"/>
</g>
</g>
<g clip-path="url(#a)">
<g transform="translate(453.85 857.25) scale(.1 -.1)">
<use xlink:href="#c"/>
<use x="63.623047" xlink:href="#e"/>
<use x="95.410156" xlink:href="#o"/>
<use x="159.033203" xlink:href="#o"/>
</g>
</g>
<g clip-path="url(#a)">
<g transform="translate(305.56 857.25) scale(.1 -.1)">
<use xlink:href="#c"/>
<use x="63.623047" xlink:href="#e"/>
<use x="95.410156" xlink:href="#o"/>
<use x="159.033203" xlink:href="#m"/>
</g>
</g>
<g clip-path="url(#a)">
<g transform="translate(375.21 857.25) scale(.1 -.1)">
<use xlink:href="#c"/>
<use x="63.623047" xlink:href="#e"/>
<use x="95.410156" xlink:href="#o"/>
<use x="159.033203" xlink:href="#w"/>
</g>
</g>
<g clip-path="url(#a)">
<g transform="translate(170.75 857.25) scale(.1 -.1)">
<use xlink:href="#c"/>
<use x="63.623047" xlink:href="#e"/>
<use x="95.410156" xlink:href="#o"/>
<use x="159.033203" xlink:href="#ah"/>
</g>
</g>
<g clip-path="url(#a)">
<g transform="translate(193.22 857.25) scale(.1 -.1)">
<use xlink:href="#c"/>
<use x="63.623047" xlink:href="#e"/>
<use x="95.410156" xlink:href="#o"/>
<use x="159.033203" xlink:href="#ag"/>
</g>
</g>
<g clip-path="url(#a)">
<g transform="translate(244.9 857.25) scale(.1 -.1)">
<use xlink:href="#c"/>
<use x="63.623047" xlink:href="#e"/>
<use x="95.410156" xlink:href="#m"/>
<use x="159.033203" xlink:href="#y"/>
</g>
</g>
<g clip-path="url(#a)">
<g transform="translate(92.11 857.25) scale(.1 -.1)">
<use xlink:href="#c"/>
<use x="63.623047" xlink:href="#e"/>
<use x="95.410156" xlink:href="#m"/>
<use x="159.033203" xlink:href="#c"/>
</g>
</g>
<g clip-path="url(#a)">
<g transform="translate(110.09 857.25) scale(.1 -.1)">
<use xlink:href="#c"/>
<use x="63.623047" xlink:href="#e"/>
<use x="95.410156" xlink:href="#m"/>
<use x="159.033203" xlink:href="#p"/>
</g>
</g>
<g clip-path="url(#a)">
<g transform="translate(76.382 857.25) scale(.1 -.1)">
<use xlink:href="#c"/>
<use x="63.623047" xlink:href="#e"/>
<use x="95.410156" xlink:href="#m"/>
<use x="159.033203" xlink:href="#n"/>
</g>
</g>
<g clip-path="url(#a)">
<g transform="translate(83.123 857.25) scale(.1 -.1)">
<use xlink:href="#c"/>
<use x="63.623047" xlink:href="#e"/>
<use x="95.410156" xlink:href="#m"/>
<use x="159.033203" xlink:href="#o"/>
</g>
</g>
<g clip-path="url(#a)">
<g transform="translate(132.55 857.25) scale(.1 -.1)">
<use xlink:href="#c"/>
<use x="63.623047" xlink:href="#e"/>
<use x="95.410156" xlink:href="#m"/>
<use x="159.033203" xlink:href="#m"/>
</g>
</g>
<g clip-path="url(#a)">
<g transform="translate(150.53 857.25) scale(.1 -.1)">
<use xlink:href="#c"/>
<use x="63.623047" xlink:href="#e"/>
<use x="95.410156" xlink:href="#m"/>
<use x="159.033203" xlink:href="#w"/>
</g>
</g>
<g clip-path="url(#a)">
<g transform="translate(339.26 857.25) scale(.1 -.1)">
<use xlink:href="#c"/>
<use x="63.623047" xlink:href="#e"/>
<use x="95.410156" xlink:href="#m"/>
<use x="159.033203" xlink:href="#ab"/>
</g>
</g>
<g clip-path="url(#a)">
<g transform="translate(799.87 857.25) scale(.1 -.1)">
<use xlink:href="#c"/>
<use x="63.623047" xlink:href="#e"/>
<use x="95.410156" xlink:href="#m"/>
<use x="159.033203" xlink:href="#ah"/>
</g>
</g>
<g clip-path="url(#a)">
<g transform="translate(1114.4 857.25) scale(.1 -.1)">
<use xlink:href="#c"/>
<use x="63.623047" xlink:href="#e"/>
<use x="95.410156" xlink:href="#m"/>
<use x="159.033203" xlink:href="#ag"/>
</g>
</g>
<g clip-path="url(#a)">
<g transform="translate(1734.6 857.25) scale(.1 -.1)">
<use xlink:href="#c"/>
<use x="63.623047" xlink:href="#e"/>
<use x="95.410156" xlink:href="#w"/>
<use x="159.033203" xlink:href="#y"/>
</g>
</g>
<g clip-path="url(#a)">
<g transform="translate(1822.2 857.25) scale(.1 -.1)">
<use xlink:href="#c"/>
<use x="63.623047" xlink:href="#e"/>
<use x="95.410156" xlink:href="#w"/>
<use x="159.033203" xlink:href="#c"/>
</g>
</g>
<defs>
<clipPath id="a">
<rect width="1925.3" height="1013.3"/>
</clipPath>
</defs>
</svg>
