<?xml version="1.0" encoding="UTF-8"?>
<!DOCTYPE svg  PUBLIC '-//W3C//DTD SVG 1.1//EN'  'http://www.w3.org/Graphics/SVG/1.1/DTD/svg11.dtd'>
<svg width="1621.3pt" height="853.33pt" version="1.1" viewBox="0 0 1621.3 853.33" xmlns="http://www.w3.org/2000/svg" xmlns:xlink="http://www.w3.org/1999/xlink">
<defs>
<style type="text/css">*{stroke-linecap:butt;stroke-linejoin:round;}</style>
</defs>
<path d="m0 853.33h1621.3v-853.33h-1621.3z" fill="#fff"/>
<g fill="none" stroke="#000">
<path d="m637.57 38.788-500.62 195.61" clip-path="url(#a)"/>
<path d="m637.57 38.788-365.76 584.49" clip-path="url(#a)"/>
<path d="m637.57 38.788-349.25 390.56" clip-path="url(#a)"/>
<path d="m637.57 38.788-212.56 584.49" clip-path="url(#a)"/>
<path d="m637.57 38.788-153.56 195.61" clip-path="url(#a)"/>
<path d="m637.57 38.788 157.25 584.49" clip-path="url(#a)"/>
<path d="m637.57 38.788 129.85 195.61" clip-path="url(#a)"/>
<path d="m637.57 38.788 458.91 390.56" clip-path="url(#a)"/>
<path d="m637.57 38.788 739.25 390.56" clip-path="url(#a)"/>
<path d="m637.57 38.788 96.497 584.49" clip-path="url(#a)"/>
<path d="m136.95 234.4-54.444 194.95" clip-path="url(#a)"/>
<path d="m136.95 234.4-15.702 388.88" clip-path="url(#a)"/>
<path d="m136.95 234.4 2.7882 388.88" clip-path="url(#a)"/>
<path d="m136.95 234.4 23.92 388.88" clip-path="url(#a)"/>
<path d="m136.95 234.4 74.988 194.95" clip-path="url(#a)"/>
<path d="m136.95 234.4-31.551 388.88" clip-path="url(#a)"/>
<path d="m271.81 623.28v191.27" clip-path="url(#a)"/>
<path d="m288.32 429.35 17.83 193.93" clip-path="url(#a)"/>
<path d="m288.32 429.35 54.81 193.93" clip-path="url(#a)"/>
<path d="m288.32 429.35 94.432 193.93" clip-path="url(#a)"/>
<path d="m288.32 429.35-167.07 193.93" clip-path="url(#a)" stroke-dasharray="3.7,1.6"/>
<path d="m425.01 623.28v191.27" clip-path="url(#a)"/>
<path d="m484.01 234.4 34.339 194.95" clip-path="url(#a)"/>
<path d="m484.01 234.4 136.48 388.88" clip-path="url(#a)"/>
<path d="m484.01 234.4 191.95 388.88" clip-path="url(#a)"/>
<path d="m484.01 234.4-362.76 388.88" clip-path="url(#a)" stroke-dasharray="3.7,1.6"/>
<path d="m794.82 623.28v191.27" clip-path="url(#a)"/>
<path d="m767.41 234.4 123.82 194.95" clip-path="url(#a)"/>
<path d="m767.41 234.4 225.52 388.88" clip-path="url(#a)"/>
<path d="m767.41 234.4 296.84 388.88" clip-path="url(#a)"/>
<path d="m767.41 234.4-646.17 388.88" clip-path="url(#a)" stroke-dasharray="3.7,1.6"/>
<path d="m1096.5 429.35 41.735 193.93" clip-path="url(#a)"/>
<path d="m1096.5 429.35 118.34 193.93" clip-path="url(#a)"/>
<path d="m1096.5 429.35 363.99 193.93" clip-path="url(#a)"/>
<path d="m1096.5 429.35-975.23 193.93" clip-path="url(#a)" stroke-dasharray="3.7,1.6"/>
<path d="m1096.5 429.35 451.16 193.93" clip-path="url(#a)"/>
<path d="m1376.8 429.35-82.766 193.93" clip-path="url(#a)"/>
<path d="m1376.8 429.35-0.88049 193.93" clip-path="url(#a)"/>
<path d="m1376.8 429.35 83.647 193.93" clip-path="url(#a)" stroke-dasharray="3.7,1.6"/>
<path d="m1294.1 623.28v191.27" clip-path="url(#a)"/>
<path d="m1375.9 623.28v191.27" clip-path="url(#a)"/>
<path d="m1138.2 623.28v191.27" clip-path="url(#a)"/>
<path d="m1214.8 623.28v191.27" clip-path="url(#a)"/>
<path d="m1460.5 623.28v191.27" clip-path="url(#a)"/>
<path d="m891.23 429.35-33.018 193.93" clip-path="url(#a)"/>
<path d="m891.23 429.35 33.018 193.93" clip-path="url(#a)"/>
<path d="m992.93 623.28v191.27" clip-path="url(#a)"/>
<path d="m1064.2 623.28v191.27" clip-path="url(#a)"/>
<path d="m858.21 623.28v191.27" clip-path="url(#a)"/>
<path d="m924.25 623.28v191.27" clip-path="url(#a)"/>
<path d="m518.34 429.35-48.427 193.93" clip-path="url(#a)"/>
<path d="m518.34 429.35 49.307 193.93" clip-path="url(#a)"/>
<path d="m518.34 429.35-0.88049 193.93" clip-path="url(#a)"/>
<path d="m620.48 623.28v191.27" clip-path="url(#a)"/>
<path d="m675.95 623.28v191.27" clip-path="url(#a)"/>
<path d="m469.92 623.28v191.27" clip-path="url(#a)"/>
<path d="m567.65 623.28v191.27" clip-path="url(#a)"/>
<path d="m306.15 623.28v191.27" clip-path="url(#a)"/>
<path d="m343.13 623.28v191.27" clip-path="url(#a)"/>
<path d="m382.75 623.28v191.27" clip-path="url(#a)"/>
<path d="m82.502 429.35-8.8049 193.93" clip-path="url(#a)"/>
<path d="m82.502 429.35-0.88049 193.93" clip-path="url(#a)"/>
<path d="m82.502 429.35 9.6854 193.93" clip-path="url(#a)"/>
<path d="m121.24 623.28v191.27" clip-path="url(#a)"/>
<path d="m139.73 623.28v191.27" clip-path="url(#a)"/>
<path d="m160.87 623.28v191.27" clip-path="url(#a)"/>
<path d="m211.93 429.35-27.295 193.93" clip-path="url(#a)"/>
<path d="m211.93 429.35-0.88049 193.93" clip-path="url(#a)"/>
<path d="m211.93 429.35 28.176 193.93" clip-path="url(#a)"/>
<path d="m184.64 623.28v191.27" clip-path="url(#a)"/>
<path d="m211.05 623.28v191.27" clip-path="url(#a)"/>
<path d="m240.11 623.28v191.27" clip-path="url(#a)"/>
<path d="m73.697 623.28v191.27" clip-path="url(#a)"/>
<path d="m81.621 623.28v191.27" clip-path="url(#a)"/>
<path d="m92.187 623.28v191.27" clip-path="url(#a)"/>
<path d="m105.39 623.28v191.27" clip-path="url(#a)"/>
<path d="m517.46 623.28v191.27" clip-path="url(#a)"/>
<path d="m734.06 623.28v191.27" clip-path="url(#a)"/>
<path d="m1547.6 623.28v191.27" clip-path="url(#a)"/>
</g>
<path d="m386.74 143.53 5.6037-2.1896q2.2354-0.87346 1.362-3.1089l-2.8178-7.2115q-0.87346-2.2354-3.1089-1.362l-5.6037 2.1896q-2.2354 0.87346-1.362 3.1089l2.8178 7.2115q0.87346 2.2354 3.1089 1.362z" clip-path="url(#a)" fill="#fff" stroke="#fff"/>
<g clip-path="url(#a)">
<defs>
<path id="x" d="m9.8125 72.906h9.8594v-29.891h35.844v29.891h9.8594v-72.906h-9.8594v34.719h-35.844v-34.719h-9.8594z"/>
</defs>
<g transform="translate(385.26 139.74) rotate(-21.342) scale(.08 -.08)">
<use xlink:href="#x"/>
</g>
</g>
<path d="m458.82 336.25 2.3646-3.7786q1.2731-2.0345-0.76135-3.3076l-6.5633-4.1072q-2.0345-1.2731-3.3076 0.76135l-2.3646 3.7786q-1.2731 2.0345 0.76135 3.3076l6.5633 4.1072q2.0345 1.2731 3.3076-0.76135z" clip-path="url(#a)" fill="#fff" stroke="#fff"/>
<g clip-path="url(#a)">
<defs>
<path id="al" d="m9.8125 72.906h9.8594v-64.609h35.5v-8.2969h-45.359z"/>
</defs>
<g transform="translate(455.38 334.09) rotate(-57.963) scale(.08 -.08)">
<use xlink:href="#al"/>
</g>
</g>
<path d="m465.61 240.49 4.0104-4.4847q1.5998-1.789-0.18921-3.3888l-5.7715-5.1611q-1.789-1.5998-3.3888 0.18921l-4.0104 4.4847q-1.5998 1.789 0.18921 3.3888l5.7715 5.1611q1.789 1.5998 3.3888-0.18921z" clip-path="url(#a)" fill="#fff" stroke="#fff"/>
<g clip-path="url(#a)">
<g transform="translate(462.58 237.78) rotate(-48.196) scale(.08 -.08)">
<use xlink:href="#x"/>
</g>
</g>
<path d="m536.42 335.27 1.5234-4.1891q0.82023-2.2555-1.4353-3.0757l-7.2763-2.6461q-2.2555-0.82023-3.0757 1.4353l-1.5234 4.1891q-0.82023 2.2555 1.4353 3.0757l7.2763 2.6461q2.2555 0.82023 3.0757-1.4353z" clip-path="url(#a)" fill="#fff" stroke="#fff"/>
<g clip-path="url(#a)">
<g transform="translate(532.6 333.88) rotate(-70.016) scale(.08 -.08)">
<use xlink:href="#al"/>
</g>
</g>
<path d="m563.86 142.83 3.715-4.7322q1.482-1.8878-0.4058-3.3698l-6.0901-4.7809q-1.8878-1.482-3.3698 0.4058l-3.715 4.7322q-1.482 1.8878 0.4058 3.3698l6.0901 4.7809q1.8878 1.482 3.3698-0.4058z" clip-path="url(#a)" fill="#fff" stroke="#fff"/>
<g clip-path="url(#a)">
<g transform="translate(560.67 140.32) rotate(-51.867) scale(.08 -.08)">
<use xlink:href="#x"/>
</g>
</g>
<path d="m709.56 330.51 1.1581 4.3044q0.62352 2.3176 2.9411 1.6941l7.4766-2.0115q2.3176-0.62352 1.6941-2.9411l-1.1581-4.3044q-0.62352-2.3176-2.9411-1.6941l-7.4766 2.0115q-2.3176 0.62352-1.6941 2.9411z" clip-path="url(#a)" fill="#fff" stroke="#fff"/>
<g clip-path="url(#a)">
<g transform="translate(713.48 329.45) rotate(74.942) scale(.08 -.08)">
<use xlink:href="#al"/>
</g>
</g>
<path d="m695.6 137.56 3.3272 5.0125q1.3273 1.9996 3.3269 0.67227l6.4507-4.2819q1.9996-1.3273 0.67227-3.3269l-3.3272-5.0125q-1.3273-1.9996-3.3269-0.67227l-6.4507 4.2819q-1.9996 1.3273-0.67227 3.3269z" clip-path="url(#a)" fill="#fff" stroke="#fff"/>
<g clip-path="url(#a)">
<g transform="translate(698.99 135.31) rotate(56.424) scale(.08 -.08)">
<use xlink:href="#x"/>
</g>
</g>
<path d="m860.67 236.89 4.5816 3.8992q1.8277 1.5555 3.3832-0.27221l5.0181-5.8962q1.5555-1.8277-0.27221-3.3832l-4.5816-3.8992q-1.8277-1.5555-3.3832 0.27221l-5.0181 5.8962q-1.5555 1.8277 0.27221 3.3832z" clip-path="url(#a)" fill="#fff" stroke="#fff"/>
<g clip-path="url(#a)">
<g transform="translate(863.3 233.8) rotate(40.4) scale(.08 -.08)">
<use xlink:href="#x"/>
</g>
</g>
<path d="m1001.6 238.21 5.3195 2.8104q2.1221 1.1211 3.2432-1.0009l3.6167-6.8458q1.1211-2.1221-1.0009-3.2432l-5.3195-2.8104q-2.1221-1.1211-3.2432 1.0009l-3.6167 6.8458q-1.1211 2.1221 1.0009 3.2432z" clip-path="url(#a)" fill="#fff" stroke="#fff"/>
<g clip-path="url(#a)">
<g transform="translate(1003.5 234.61) rotate(27.848) scale(.08 -.08)">
<use xlink:href="#x"/>
</g>
</g>
<path d="m679.15 329.17 0.95372 5.7768q0.39094 2.3679 2.7589 1.977l7.6391-1.2612q2.3679-0.39094 1.977-2.7589l-0.95373-5.7768q-0.39094-2.3679-2.7589-1.977l-7.6391 1.2612q-2.3679 0.39094-1.977 2.7589z" clip-path="url(#a)" fill="#fff" stroke="#fff"/>
<g clip-path="url(#a)">
<defs>
<path id="ad" d="m8.6875 72.906h9.9219v-44.297q0-11.719 4.2344-16.875 4.25-5.1406 13.781-5.1406 9.4688 0 13.719 5.1406 4.25 5.1562 4.25 16.875v44.297h9.9062v-45.516q0-14.25-7.0625-21.531-7.0469-7.2812-20.812-7.2812-13.828 0-20.891 7.2812-7.0469 7.2812-7.0469 21.531z"/>
</defs>
<g transform="translate(683.16 328.5) rotate(80.625) scale(.08 -.08)">
<use xlink:href="#ad"/>
</g>
</g>
<path d="m115.11 335.91 1.3143-4.7062q0.64555-2.3116-1.666-2.9571l-7.4572-2.0826q-2.3115-0.64555-2.9571 1.666l-1.3143 4.7062q-0.64555 2.3115 1.666 2.9571l7.4572 2.0826q2.3115 0.64555 2.9571-1.666z" clip-path="url(#a)" fill="#fff" stroke="#fff"/>
<g clip-path="url(#a)">
<defs>
<path id="l" d="m-0.29688 72.906h61.672v-8.3125h-25.875v-64.594h-9.9062v64.594h-25.891z"/>
</defs>
<g transform="translate(111.19 334.82) rotate(-74.396) scale(.08 -.08)">
<use xlink:href="#l"/>
</g>
</g>
<path d="m135.25 431.82 0.22079-5.468q0.096828-2.398-2.3012-2.4949l-7.7362-0.31237q-2.398-0.096828-2.4949 2.3012l-0.22079 5.468q-0.096828 2.398 2.3012 2.4949l7.7362 0.31237q2.398 0.096828 2.4949-2.3012z" clip-path="url(#a)" fill="#fff" stroke="#fff"/>
<g clip-path="url(#a)">
<defs>
<path id="r" d="m34.188 63.188-13.391-36.281h26.812zm-5.5781 9.7188h11.188l27.781-72.906h-10.25l-6.6406 18.703h-32.859l-6.6406-18.703h-10.406z"/>
</defs>
<g transform="translate(131.19 431.66) rotate(-87.688) scale(.08 -.08)">
<use xlink:href="#r"/>
</g>
</g>
<path d="m132.05 426.58 0.03299 4.6011q0.017207 2.3999 2.4171 2.3827l7.7423-0.055512q2.3999-0.017207 2.3827-2.4171l-0.032989-4.6011q-0.017208-2.3999-2.4171-2.3827l-7.7423 0.055511q-2.3999 0.017208-2.3827 2.4171z" clip-path="url(#a)" fill="#fff" stroke="#fff"/>
<g clip-path="url(#a)">
<defs>
<path id="ae" d="m9.8125 72.906h41.891v-8.3125h-32.031v-21.484h28.906v-8.2969h-28.906v-34.812h-9.8594z"/>
</defs>
<g transform="translate(136.12 426.55) rotate(89.589) scale(.08 -.08)">
<use xlink:href="#ae"/>
</g>
</g>
<path d="m142.5 426.82 0.29615 4.8147q0.14735 2.3955 2.5428 2.2481l7.7279-0.47534q2.3955-0.14735 2.2481-2.5428l-0.29615-4.8146q-0.14735-2.3955-2.5428-2.2481l-7.7279 0.47534q-2.3955 0.14735-2.2481 2.5428z" clip-path="url(#a)" fill="#fff" stroke="#fff"/>
<g clip-path="url(#a)">
<defs>
<path id="w" d="m19.672 64.797v-27.391h12.406q6.8906 0 10.641 3.5625 3.7656 3.5625 3.7656 10.156 0 6.5469-3.7656 10.109-3.75 3.5625-10.641 3.5625zm-9.8594 8.1094h22.266q12.266 0 18.531-5.5469 6.2812-5.5469 6.2812-16.234 0-10.797-6.2812-16.312-6.2656-5.5156-18.531-5.5156h-12.406v-29.297h-9.8594z"/>
</defs>
<g transform="translate(146.55 426.57) rotate(86.48) scale(.08 -.08)">
<use xlink:href="#w"/>
</g>
</g>
<path d="m167.6 331.57 1.9647 5.1077q0.86164 2.24 3.1016 1.3784l7.2263-2.7797q2.24-0.86164 1.3784-3.1016l-1.9647-5.1077q-0.86164-2.24-3.1016-1.3784l-7.2263 2.7797q-2.24 0.86164-1.3784 3.1016z" clip-path="url(#a)" fill="#fff" stroke="#fff"/>
<g clip-path="url(#a)">
<g transform="translate(171.4 330.11) rotate(68.96) scale(.08 -.08)">
<use xlink:href="#r"/>
</g>
</g>
<path d="m127.18 432.26 0.47348-5.8358q0.19408-2.3921-2.1981-2.5862l-7.7171-0.62612q-2.3921-0.19408-2.5862 2.1981l-0.47348 5.8358q-0.19408 2.3921 2.1981 2.5862l7.7171 0.62612q2.3921 0.19408 2.5862-2.1981z" clip-path="url(#a)" fill="#fff" stroke="#fff"/>
<g clip-path="url(#a)">
<g transform="translate(123.13 431.93) rotate(-85.362) scale(.08 -.08)">
<use xlink:href="#ad"/>
</g>
</g>
<path d="m265.54 702.01v33.808q0 2.4 2.4 2.4h7.7425q2.4 0 2.4-2.4v-33.808q0-2.4-2.4-2.4h-7.7425q-2.4 0-2.4 2.4z" clip-path="url(#a)" fill="#fff" stroke="#fff"/>
<g clip-path="url(#a)">
<defs>
<path id="d" d="m56.203 29.594v-4.3906h-41.312q0.59375-9.2812 5.5938-14.141t13.938-4.8594q5.1719 0 10.031 1.2656t9.6562 3.8125v-8.5q-4.8438-2.0469-9.9219-3.125t-10.297-1.0781q-13.094 0-20.734 7.6094-7.6406 7.625-7.6406 20.625 0 13.422 7.25 21.297 7.25 7.8906 19.562 7.8906 11.031 0 17.453-7.1094 6.4219-7.0938 6.4219-19.297zm-8.9844 2.6406q-0.09375 7.3594-4.125 11.75-4.0312 4.4062-10.672 4.4062-7.5156 0-12.031-4.25t-5.2031-11.969z"/>
<path id="e" d="m41.109 46.297q-1.5156 0.875-3.2969 1.2812-1.7812 0.42188-3.9219 0.42188-7.625 0-11.703-4.9531t-4.0781-14.234v-28.812h-9.0312v54.688h9.0312v-8.5q2.8438 4.9844 7.375 7.3906 4.5469 2.4219 11.047 2.4219 0.92188 0 2.0469-0.125 1.125-0.10938 2.4844-0.35938z"/>
<path id="k" d="m52 44.188q3.375 6.0625 8.0625 8.9375t11.031 2.875q8.5469 0 13.188-5.9844 4.6406-5.9688 4.6406-17v-33.016h-9.0312v32.719q0 7.8594-2.7969 11.656-2.7812 3.8125-8.4844 3.8125-6.9844 0-11.047-4.6406-4.0469-4.625-4.0469-12.641v-30.906h-9.0312v32.719q0 7.9062-2.7812 11.688t-8.5938 3.7812q-6.8906 0-10.953-4.6562-4.0469-4.6562-4.0469-12.625v-30.906h-9.0312v54.688h9.0312v-8.5q3.0781 5.0312 7.375 7.4219t10.203 2.3906q5.9688 0 10.141-3.0312 4.1719-3.0156 6.1719-8.7812z"/>
<path id="i" d="m9.4219 54.688h8.9844v-54.688h-8.9844zm0 21.297h8.9844v-11.391h-8.9844z"/>
<path id="g" d="m54.891 33.016v-33.016h-8.9844v32.719q0 7.7656-3.0312 11.609-3.0312 3.8594-9.0781 3.8594-7.2812 0-11.484-4.6406-4.2031-4.625-4.2031-12.641v-30.906h-9.0312v54.688h9.0312v-8.5q3.2344 4.9375 7.5938 7.375 4.375 2.4375 10.094 2.4375 9.4219 0 14.25-5.8281 4.8438-5.8281 4.8438-17.156z"/>
<path id="f" d="m34.281 27.484q-10.891 0-15.094-2.4844t-4.2031-8.5q0-4.7812 3.1562-7.5938 3.1562-2.7969 8.5625-2.7969 7.4844 0 12 5.2969t4.5156 14.078v2zm17.922 3.7188v-31.203h-8.9844v8.2969q-3.0781-4.9688-7.6719-7.3438t-11.234-2.375q-8.3906 0-13.359 4.7188-4.9531 4.7188-4.9531 12.625 0 9.2188 6.1719 13.906 6.1875 4.6875 18.438 4.6875h12.609v0.89062q0 6.2031-4.0781 9.5938t-11.453 3.3906q-4.6875 0-9.1406-1.125-4.4375-1.125-8.5312-3.375v8.3125q4.9219 1.9062 9.5625 2.8438 4.6406 0.95312 9.0312 0.95312 11.875 0 17.734-6.1562 5.8594-6.1406 5.8594-18.641z"/>
<path id="j" d="m9.4219 75.984h8.9844v-75.984h-8.9844z"/>
</defs>
<g transform="translate(269.6 702.01) rotate(90) scale(.08 -.08)">
<use xlink:href="#l"/>
<use x="44.083984" xlink:href="#d"/>
<use x="105.607422" xlink:href="#e"/>
<use x="144.970703" xlink:href="#k"/>
<use x="242.382812" xlink:href="#i"/>
<use x="270.166016" xlink:href="#g"/>
<use x="333.544922" xlink:href="#f"/>
<use x="394.824219" xlink:href="#j"/>
</g>
</g>
<path d="m290.7 523.82 0.56397 6.1341q0.21973 2.3899 2.6096 2.1702l7.71-0.70886q2.3899-0.21973 2.1702-2.6096l-0.56397-6.1341q-0.21973-2.3899-2.6096-2.1702l-7.71 0.70886q-2.3899 0.21973-2.1702 2.6096z" clip-path="url(#a)" fill="#fff" stroke="#fff"/>
<g clip-path="url(#a)">
<defs>
<path id="aa" d="m19.672 64.797v-56.688h11.922q15.094 0 22.094 6.8281 7 6.8438 7 21.594 0 14.641-7 21.453t-22.094 6.8125zm-9.8594 8.1094h20.266q21.188 0 31.094-8.8125 9.9219-8.8125 9.9219-27.562 0-18.859-9.9688-27.703-9.9531-8.8281-31.047-8.8281h-20.266z"/>
</defs>
<g transform="translate(294.75 523.45) rotate(84.747) scale(.08 -.08)">
<use xlink:href="#aa"/>
</g>
</g>
<path d="m308.85 525.05 1.6754 5.9278q0.65274 2.3095 2.9623 1.6568l7.4506-2.1058q2.3095-0.65274 1.6568-2.9623l-1.6754-5.9278q-0.65274-2.3095-2.9623-1.6568l-7.4506 2.1058q-2.3095 0.65274-1.6568 2.9623z" clip-path="url(#a)" fill="#fff" stroke="#fff"/>
<g clip-path="url(#a)">
<g transform="translate(312.76 523.95) rotate(74.218) scale(.08 -.08)">
<use xlink:href="#aa"/>
</g>
</g>
<path d="m328.84 526.89 2.1118 4.3369q1.0507 2.1578 3.2085 1.1071l6.9611-3.3896q2.1578-1.0507 1.1071-3.2085l-2.1118-4.3369q-1.0507-2.1578-3.2085-1.1071l-6.9611 3.3896q-2.1578 1.0507-1.1071 3.2085z" clip-path="url(#a)" fill="#fff" stroke="#fff"/>
<g clip-path="url(#a)">
<g transform="translate(332.49 525.11) rotate(64.037) scale(.08 -.08)">
<use xlink:href="#w"/>
</g>
</g>
<path d="m207.75 532.48 3.5719-4.1461q1.5665-1.8183-0.25181-3.3848l-5.8659-5.0535q-1.8183-1.5665-3.3848 0.25181l-3.5719 4.1461q-1.5665 1.8183 0.25181 3.3848l5.8659 5.0535q1.8183 1.5665 3.3848-0.25181z" clip-path="url(#a)" fill="#fff" stroke="#fff"/>
<g clip-path="url(#a)">
<g transform="translate(204.67 529.82) rotate(-49.255) scale(.08 -.08)">
<use xlink:href="#r"/>
</g>
</g>
<path d="m418.74 702.01v33.808q0 2.4 2.4 2.4h7.7425q2.4 0 2.4-2.4v-33.808q0-2.4-2.4-2.4h-7.7425q-2.4 0-2.4 2.4z" clip-path="url(#a)" fill="#fff" stroke="#fff"/>
<g clip-path="url(#a)">
<g transform="translate(422.8 702.01) rotate(90) scale(.08 -.08)">
<use xlink:href="#l"/>
<use x="44.083984" xlink:href="#d"/>
<use x="105.607422" xlink:href="#e"/>
<use x="144.970703" xlink:href="#k"/>
<use x="242.382812" xlink:href="#i"/>
<use x="270.166016" xlink:href="#g"/>
<use x="333.544922" xlink:href="#f"/>
<use x="394.824219" xlink:href="#j"/>
</g>
</g>
<path d="m494.46 329.93 1.0686 6.0666q0.41634 2.3636 2.78 1.9473l7.6251-1.3431q2.3636-0.41634 1.9473-2.78l-1.0686-6.0666q-0.41634-2.3636-2.78-1.9473l-7.6251 1.3431q-2.3636 0.41634-1.9473 2.78z" clip-path="url(#a)" fill="#fff" stroke="#fff"/>
<g clip-path="url(#a)">
<g transform="translate(498.47 329.22) rotate(80.01) scale(.08 -.08)">
<use xlink:href="#aa"/>
</g>
</g>
<path d="m545.42 428.33 1.8122 5.1637q0.79475 2.2646 3.0593 1.4698l7.3057-2.5639q2.2646-0.79475 1.4698-3.0593l-1.8122-5.1637q-0.79475-2.2646-3.0593-1.4698l-7.3057 2.5639q-2.2646 0.79475-1.4698 3.0593z" clip-path="url(#a)" fill="#fff" stroke="#fff"/>
<g clip-path="url(#a)">
<g transform="translate(549.25 426.99) rotate(70.662) scale(.08 -.08)">
<use xlink:href="#r"/>
</g>
</g>
<path d="m573.29 429.45 2.135 4.3255q1.0623 2.1521 3.2144 1.0898l6.9428-3.4269q2.1521-1.0623 1.0898-3.2144l-2.135-4.3255q-1.0623-2.1521-3.2144-1.0898l-6.9428 3.4269q-2.1521 1.0623-1.0898 3.2144z" clip-path="url(#a)" fill="#fff" stroke="#fff"/>
<g clip-path="url(#a)">
<g transform="translate(576.93 427.65) rotate(63.729) scale(.08 -.08)">
<use xlink:href="#w"/>
</g>
</g>
<path d="m305.34 435.12 3.7329-4.0017q1.6371-1.755-0.11786-3.3921l-5.6616-5.2814q-1.755-1.6371-3.3921 0.11786l-3.7329 4.0017q-1.6371 1.755 0.11786 3.3921l5.6616 5.2814q1.755 1.6371 3.3921-0.11786z" clip-path="url(#a)" fill="#fff" stroke="#fff"/>
<g clip-path="url(#a)">
<g transform="translate(302.37 432.34) rotate(-46.99) scale(.08 -.08)">
<use xlink:href="#r"/>
</g>
</g>
<path d="m788.55 702.01v33.808q0 2.4 2.4 2.4h7.7425q2.4 0 2.4-2.4v-33.808q0-2.4-2.4-2.4h-7.7425q-2.4 0-2.4 2.4z" clip-path="url(#a)" fill="#fff" stroke="#fff"/>
<g clip-path="url(#a)">
<g transform="translate(792.61 702.01) rotate(90) scale(.08 -.08)">
<use xlink:href="#l"/>
<use x="44.083984" xlink:href="#d"/>
<use x="105.607422" xlink:href="#e"/>
<use x="144.970703" xlink:href="#k"/>
<use x="242.382812" xlink:href="#i"/>
<use x="270.166016" xlink:href="#g"/>
<use x="333.544922" xlink:href="#f"/>
<use x="394.824219" xlink:href="#j"/>
</g>
</g>
<path d="m822.38 332.63 3.3026 5.1998q1.2867 2.0259 3.3126 0.73917l6.5357-4.1511q2.0259-1.2867 0.73917-3.3126l-3.3026-5.1998q-1.2867-2.0259-3.3126-0.73917l-6.5357 4.1511q-2.0259 1.2867-0.73917 3.3126z" clip-path="url(#a)" fill="#fff" stroke="#fff"/>
<g clip-path="url(#a)">
<g transform="translate(825.81 330.46) rotate(57.579) scale(.08 -.08)">
<use xlink:href="#aa"/>
</g>
</g>
<path d="m873.59 429.99 2.3083 3.9804q1.204 2.0762 3.2801 0.87216l6.6978-3.8841q2.0762-1.204 0.87216-3.2801l-2.3083-3.9804q-1.204-2.0762-3.2801-0.87216l-6.6978 3.8841q-2.0762 1.204-0.87216 3.2801z" clip-path="url(#a)" fill="#fff" stroke="#fff"/>
<g clip-path="url(#a)">
<g transform="translate(877.11 427.95) rotate(59.89) scale(.08 -.08)">
<use xlink:href="#ae"/>
</g>
</g>
<path d="m909.38 430.73 2.9268 3.8344q1.4562 1.9077 3.3639 0.45154l6.1545-4.6978q1.9077-1.4562 0.45154-3.3639l-2.9268-3.8344q-1.4562-1.9077-3.3639-0.45154l-6.1545 4.6978q-1.9077 1.4562-0.45154 3.3639z" clip-path="url(#a)" fill="#fff" stroke="#fff"/>
<g clip-path="url(#a)">
<g transform="translate(912.61 428.26) rotate(52.645) scale(.08 -.08)">
<use xlink:href="#w"/>
</g>
</g>
<path d="m445.22 435.62 4.6889-2.8218q2.0563-1.2375 0.81879-3.2939l-3.9924-6.6338q-1.2375-2.0563-3.2939-0.81879l-4.6889 2.8218q-2.0563 1.2375-0.81879 3.2939l3.9924 6.6338q1.2375 2.0563 3.2939 0.81879z" clip-path="url(#a)" fill="#fff" stroke="#fff"/>
<g clip-path="url(#a)">
<g transform="translate(443.12 432.14) rotate(-31.04) scale(.08 -.08)">
<use xlink:href="#r"/>
</g>
</g>
<path d="m1110.6 524.62 1.296 6.0221q0.50494 2.3463 2.8512 1.8413l7.5692-1.6289q2.3463-0.50494 1.8413-2.8512l-1.296-6.0221q-0.50494-2.3463-2.8512-1.8413l-7.5692 1.6289q-2.3463 0.50494-1.8413 2.8512z" clip-path="url(#a)" fill="#fff" stroke="#fff"/>
<g clip-path="url(#a)">
<g transform="translate(1114.5 523.76) rotate(77.855) scale(.08 -.08)">
<use xlink:href="#aa"/>
</g>
</g>
<path d="m1148.8 527.21 2.8955 4.7451q1.2501 2.0487 3.2988 0.79857l6.6092-4.033q2.0487-1.2501 0.79857-3.2988l-2.8955-4.7451q-1.2501-2.0487-3.2988-0.79857l-6.6092 4.033q-2.0487 1.2501-0.79857 3.2988z" clip-path="url(#a)" fill="#fff" stroke="#fff"/>
<g clip-path="url(#a)">
<defs>
<path id="ak" d="m44.391 34.188q3.1719-1.0781 6.1719-4.5938t6.0312-9.6719l10.016-19.922h-10.609l-9.3125 18.703q-3.625 7.3281-7.0156 9.7188t-9.25 2.3906h-10.75v-30.812h-9.8594v72.906h22.266q12.5 0 18.656-5.2344 6.1562-5.2188 6.1562-15.766 0-6.8906-3.2031-11.438-3.2031-4.5312-9.2969-6.2812zm-24.719 30.609v-25.875h12.406q7.125 0 10.766 3.2969t3.6406 9.6875-3.6406 9.6406-10.766 3.25z"/>
</defs>
<g transform="translate(1152.3 525.09) rotate(58.608) scale(.08 -.08)">
<use xlink:href="#ak"/>
</g>
</g>
<path d="m1273.4 530.71 4.2572 2.2682q2.1181 1.1285 3.2466-0.98963l3.6406-6.8332q1.1285-2.1181-0.98963-3.2466l-4.2572-2.2682q-2.1181-1.1285-3.2466 0.98962l-3.6406 6.8332q-1.1285 2.1181 0.98962 3.2466z" clip-path="url(#a)" fill="#fff" stroke="#fff"/>
<g clip-path="url(#a)">
<g transform="translate(1275.3 527.13) rotate(28.048) scale(.08 -.08)">
<use xlink:href="#w"/>
</g>
</g>
<path d="m607.4 533 5.3674-1.0673q2.3539-0.46809 1.8858-2.822l-1.5101-7.5938q-0.46809-2.3539-2.822-1.8858l-5.3674 1.0673q-2.3539 0.46809-1.8858 2.822l1.5101 7.5938q0.46809 2.3539 2.822 1.8858z" clip-path="url(#a)" fill="#fff" stroke="#fff"/>
<g clip-path="url(#a)">
<g transform="translate(606.61 529.01) rotate(-11.247) scale(.08 -.08)">
<use xlink:href="#r"/>
</g>
</g>
<path d="m1316.9 530.92 5.3791 2.3122q2.2049 0.94778 3.1527-1.2572l3.0576-7.1132q0.94778-2.2049-1.2572-3.1527l-5.3791-2.3122q-2.2049-0.94778-3.1527 1.2572l-3.0576 7.1132q-0.94778 2.2049 1.2572 3.1527z" clip-path="url(#a)" fill="#fff" stroke="#fff"/>
<g clip-path="url(#a)">
<g transform="translate(1318.5 527.18) rotate(23.26) scale(.08 -.08)">
<use xlink:href="#ad"/>
</g>
</g>
<path d="m1340.1 531.29 2.1481-5.0333q0.94207-2.2074-1.2653-3.1494l-7.1211-3.0392q-2.2074-0.94207-3.1494 1.2653l-2.1481 5.0333q-0.94207 2.2074 1.2653 3.1494l7.1211 3.0392q2.2074 0.94207 3.1494-1.2653z" clip-path="url(#a)" fill="#fff" stroke="#fff"/>
<g clip-path="url(#a)">
<g transform="translate(1336.4 529.69) rotate(-66.888) scale(.08 -.08)">
<use xlink:href="#r"/>
</g>
</g>
<path d="m1382.6 528.75 0.021901-4.8237q0.010896-2.4-2.3891-2.4109l-7.7424-0.035152q-2.4-0.010897-2.4109 2.3891l-0.0219 4.8237q-0.010897 2.4 2.3891 2.4109l7.7424 0.035152q2.4 0.010896 2.4109-2.3891z" clip-path="url(#a)" fill="#fff" stroke="#fff"/>
<g clip-path="url(#a)">
<g transform="translate(1378.6 528.73) rotate(-89.74) scale(.08 -.08)">
<use xlink:href="#w"/>
</g>
</g>
<path d="m1411.8 526.28 2.1674 5.025q0.95053 2.2037 3.1543 1.2532l7.1094-3.0664q2.2037-0.95053 1.2532-3.1543l-2.1674-5.025q-0.95053-2.2037-3.1543-1.2532l-7.1094 3.0664q-2.2037 0.95053-1.2532 3.1543z" clip-path="url(#a)" fill="#fff" stroke="#fff"/>
<g clip-path="url(#a)">
<g transform="translate(1415.5 524.67) rotate(66.668) scale(.08 -.08)">
<use xlink:href="#r"/>
</g>
</g>
<path d="m1287.8 702.01v33.808q0 2.4 2.4 2.4h7.7425q2.4 0 2.4-2.4v-33.808q0-2.4-2.4-2.4h-7.7425q-2.4 0-2.4 2.4z" clip-path="url(#a)" fill="#fff" stroke="#fff"/>
<g clip-path="url(#a)">
<g transform="translate(1291.8 702.01) rotate(90) scale(.08 -.08)">
<use xlink:href="#l"/>
<use x="44.083984" xlink:href="#d"/>
<use x="105.607422" xlink:href="#e"/>
<use x="144.970703" xlink:href="#k"/>
<use x="242.382812" xlink:href="#i"/>
<use x="270.166016" xlink:href="#g"/>
<use x="333.544922" xlink:href="#f"/>
<use x="394.824219" xlink:href="#j"/>
</g>
</g>
<path d="m1369.7 702.01v33.808q0 2.4 2.4 2.4h7.7425q2.4 0 2.4-2.4v-33.808q0-2.4-2.4-2.4h-7.7425q-2.4 0-2.4 2.4z" clip-path="url(#a)" fill="#fff" stroke="#fff"/>
<g clip-path="url(#a)">
<g transform="translate(1373.7 702.01) rotate(90) scale(.08 -.08)">
<use xlink:href="#l"/>
<use x="44.083984" xlink:href="#d"/>
<use x="105.607422" xlink:href="#e"/>
<use x="144.970703" xlink:href="#k"/>
<use x="242.382812" xlink:href="#i"/>
<use x="270.166016" xlink:href="#g"/>
<use x="333.544922" xlink:href="#f"/>
<use x="394.824219" xlink:href="#j"/>
</g>
</g>
<path d="m1131.9 702.01v33.808q0 2.4 2.4 2.4h7.7425q2.4 0 2.4-2.4v-33.808q0-2.4-2.4-2.4h-7.7425q-2.4 0-2.4 2.4z" clip-path="url(#a)" fill="#fff" stroke="#fff"/>
<g clip-path="url(#a)">
<g transform="translate(1136 702.01) rotate(90) scale(.08 -.08)">
<use xlink:href="#l"/>
<use x="44.083984" xlink:href="#d"/>
<use x="105.607422" xlink:href="#e"/>
<use x="144.970703" xlink:href="#k"/>
<use x="242.382812" xlink:href="#i"/>
<use x="270.166016" xlink:href="#g"/>
<use x="333.544922" xlink:href="#f"/>
<use x="394.824219" xlink:href="#j"/>
</g>
</g>
<path d="m1208.5 702.01v33.808q0 2.4 2.4 2.4h7.7425q2.4 0 2.4-2.4v-33.808q0-2.4-2.4-2.4h-7.7425q-2.4 0-2.4 2.4z" clip-path="url(#a)" fill="#fff" stroke="#fff"/>
<g clip-path="url(#a)">
<g transform="translate(1212.6 702.01) rotate(90) scale(.08 -.08)">
<use xlink:href="#l"/>
<use x="44.083984" xlink:href="#d"/>
<use x="105.607422" xlink:href="#e"/>
<use x="144.970703" xlink:href="#k"/>
<use x="242.382812" xlink:href="#i"/>
<use x="270.166016" xlink:href="#g"/>
<use x="333.544922" xlink:href="#f"/>
<use x="394.824219" xlink:href="#j"/>
</g>
</g>
<path d="m1454.2 702.01v33.808q0 2.4 2.4 2.4h7.7425q2.4 0 2.4-2.4v-33.808q0-2.4-2.4-2.4h-7.7425q-2.4 0-2.4 2.4z" clip-path="url(#a)" fill="#fff" stroke="#fff"/>
<g clip-path="url(#a)">
<g transform="translate(1458.3 702.01) rotate(90) scale(.08 -.08)">
<use xlink:href="#l"/>
<use x="44.083984" xlink:href="#d"/>
<use x="105.607422" xlink:href="#e"/>
<use x="144.970703" xlink:href="#k"/>
<use x="242.382812" xlink:href="#i"/>
<use x="270.166016" xlink:href="#g"/>
<use x="333.544922" xlink:href="#f"/>
<use x="394.824219" xlink:href="#j"/>
</g>
</g>
<path d="m880.52 529.63 0.77229-4.536q0.40282-2.366-1.9631-2.7688l-7.6327-1.2995q-2.366-0.40282-2.7688 1.9631l-0.77229 4.536q-0.40282 2.366 1.9631 2.7688l7.6327 1.2995q2.366 0.40282 2.7688-1.9631z" clip-path="url(#a)" fill="#fff" stroke="#fff"/>
<g clip-path="url(#a)">
<g transform="translate(876.51 528.95) rotate(-80.338) scale(.08 -.08)">
<use xlink:href="#ae"/>
</g>
</g>
<path d="m901.09 524.61 0.93762 5.507q0.40282 2.366 2.7688 1.9631l7.6327-1.2995q2.366-0.40282 1.9631-2.7688l-0.93762-5.507q-0.40282-2.366-2.7688-1.9631l-7.6327 1.2995q-2.366 0.40282-1.9631 2.7688z" clip-path="url(#a)" fill="#fff" stroke="#fff"/>
<g clip-path="url(#a)">
<defs>
<path id="af" d="m64.406 67.281v-10.391q-4.9844 4.6406-10.625 6.9219-5.6406 2.2969-11.984 2.2969-12.5 0-19.141-7.6406t-6.6406-22.094q0-14.406 6.6406-22.047t19.141-7.6406q6.3438 0 11.984 2.2969t10.625 6.9375v-10.312q-5.1719-3.5156-10.969-5.2812-5.7812-1.75-12.219-1.75-16.562 0-26.094 10.125-9.5156 10.141-9.5156 27.672 0 17.578 9.5156 27.703 9.5312 10.141 26.094 10.141 6.5312 0 12.312-1.7344 5.7969-1.7344 10.875-5.2031z"/>
</defs>
<g transform="translate(905.1 523.93) rotate(80.338) scale(.08 -.08)">
<use xlink:href="#af"/>
</g>
</g>
<path d="m986.66 702.01v33.808q0 2.4 2.4 2.4h7.7425q2.4 0 2.4-2.4v-33.808q0-2.4-2.4-2.4h-7.7425q-2.4 0-2.4 2.4z" clip-path="url(#a)" fill="#fff" stroke="#fff"/>
<g clip-path="url(#a)">
<g transform="translate(990.72 702.01) rotate(90) scale(.08 -.08)">
<use xlink:href="#l"/>
<use x="44.083984" xlink:href="#d"/>
<use x="105.607422" xlink:href="#e"/>
<use x="144.970703" xlink:href="#k"/>
<use x="242.382812" xlink:href="#i"/>
<use x="270.166016" xlink:href="#g"/>
<use x="333.544922" xlink:href="#f"/>
<use x="394.824219" xlink:href="#j"/>
</g>
</g>
<path d="m1058 702.01v33.808q0 2.4 2.4 2.4h7.7425q2.4 0 2.4-2.4v-33.808q0-2.4-2.4-2.4h-7.7425q-2.4 0-2.4 2.4z" clip-path="url(#a)" fill="#fff" stroke="#fff"/>
<g clip-path="url(#a)">
<g transform="translate(1062 702.01) rotate(90) scale(.08 -.08)">
<use xlink:href="#l"/>
<use x="44.083984" xlink:href="#d"/>
<use x="105.607422" xlink:href="#e"/>
<use x="144.970703" xlink:href="#k"/>
<use x="242.382812" xlink:href="#i"/>
<use x="270.166016" xlink:href="#g"/>
<use x="333.544922" xlink:href="#f"/>
<use x="394.824219" xlink:href="#j"/>
</g>
</g>
<path d="m851.94 702.01v33.808q0 2.4 2.4 2.4h7.7425q2.4 0 2.4-2.4v-33.808q0-2.4-2.4-2.4h-7.7425q-2.4 0-2.4 2.4z" clip-path="url(#a)" fill="#fff" stroke="#fff"/>
<g clip-path="url(#a)">
<g transform="translate(856.01 702.01) rotate(90) scale(.08 -.08)">
<use xlink:href="#l"/>
<use x="44.083984" xlink:href="#d"/>
<use x="105.607422" xlink:href="#e"/>
<use x="144.970703" xlink:href="#k"/>
<use x="242.382812" xlink:href="#i"/>
<use x="270.166016" xlink:href="#g"/>
<use x="333.544922" xlink:href="#f"/>
<use x="394.824219" xlink:href="#j"/>
</g>
</g>
<path d="m917.98 702.01v33.808q0 2.4 2.4 2.4h7.7425q2.4 0 2.4-2.4v-33.808q0-2.4-2.4-2.4h-7.7425q-2.4 0-2.4 2.4z" clip-path="url(#a)" fill="#fff" stroke="#fff"/>
<g clip-path="url(#a)">
<g transform="translate(922.04 702.01) rotate(90) scale(.08 -.08)">
<use xlink:href="#l"/>
<use x="44.083984" xlink:href="#d"/>
<use x="105.607422" xlink:href="#e"/>
<use x="144.970703" xlink:href="#k"/>
<use x="242.382812" xlink:href="#i"/>
<use x="270.166016" xlink:href="#g"/>
<use x="333.544922" xlink:href="#f"/>
<use x="394.824219" xlink:href="#j"/>
</g>
</g>
<path d="m499.54 530.54 1.3534-5.4198q0.58146-2.3285-1.747-2.91l-7.5118-1.8758q-2.3285-0.58146-2.91 1.747l-1.3534 5.4198q-0.58146 2.3285 1.747 2.91l7.5118 1.8758q2.3285 0.58146 2.91-1.747z" clip-path="url(#a)" fill="#fff" stroke="#fff"/>
<g clip-path="url(#a)">
<g transform="translate(495.6 529.56) rotate(-75.979) scale(.08 -.08)">
<use xlink:href="#af"/>
</g>
</g>
<path d="m536.3 525.41 1.2456 4.8991q0.59139 2.326 2.9174 1.7346l7.5038-1.9079q2.326-0.59139 1.7346-2.9174l-1.2456-4.8991q-0.59139-2.326-2.9174-1.7346l-7.5038 1.9079q-2.326 0.59139-1.7346 2.9174z" clip-path="url(#a)" fill="#fff" stroke="#fff"/>
<g clip-path="url(#a)">
<defs>
<path id="at" d="m9.8125 72.906h46.094v-8.3125h-36.234v-21.578h34.719v-8.2969h-34.719v-26.422h37.109v-8.2969h-46.969z"/>
</defs>
<g transform="translate(540.24 524.41) rotate(75.735) scale(.08 -.08)">
<use xlink:href="#at"/>
</g>
</g>
<path d="m524.16 529.27 0.026582-5.8549q0.010897-2.4-2.3891-2.4109l-7.7424-0.035152q-2.4-0.010896-2.4109 2.3891l-0.026583 5.8549q-0.010897 2.4 2.3891 2.4109l7.7424 0.035153q2.4 0.010896 2.4109-2.3891z" clip-path="url(#a)" fill="#fff" stroke="#fff"/>
<g clip-path="url(#a)">
<g transform="translate(520.1 529.25) rotate(-89.74) scale(.08 -.08)">
<use xlink:href="#ad"/>
</g>
</g>
<path d="m614.21 702.01v33.808q0 2.4 2.4 2.4h7.7425q2.4 0 2.4-2.4v-33.808q0-2.4-2.4-2.4h-7.7425q-2.4 0-2.4 2.4z" clip-path="url(#a)" fill="#fff" stroke="#fff"/>
<g clip-path="url(#a)">
<g transform="translate(618.27 702.01) rotate(90) scale(.08 -.08)">
<use xlink:href="#l"/>
<use x="44.083984" xlink:href="#d"/>
<use x="105.607422" xlink:href="#e"/>
<use x="144.970703" xlink:href="#k"/>
<use x="242.382812" xlink:href="#i"/>
<use x="270.166016" xlink:href="#g"/>
<use x="333.544922" xlink:href="#f"/>
<use x="394.824219" xlink:href="#j"/>
</g>
</g>
<path d="m669.68 702.01v33.808q0 2.4 2.4 2.4h7.7425q2.4 0 2.4-2.4v-33.808q0-2.4-2.4-2.4h-7.7425q-2.4 0-2.4 2.4z" clip-path="url(#a)" fill="#fff" stroke="#fff"/>
<g clip-path="url(#a)">
<g transform="translate(673.74 702.01) rotate(90) scale(.08 -.08)">
<use xlink:href="#l"/>
<use x="44.083984" xlink:href="#d"/>
<use x="105.607422" xlink:href="#e"/>
<use x="144.970703" xlink:href="#k"/>
<use x="242.382812" xlink:href="#i"/>
<use x="270.166016" xlink:href="#g"/>
<use x="333.544922" xlink:href="#f"/>
<use x="394.824219" xlink:href="#j"/>
</g>
</g>
<path d="m463.65 702.01v33.808q0 2.4 2.4 2.4h7.7425q2.4 0 2.4-2.4v-33.808q0-2.4-2.4-2.4h-7.7425q-2.4 0-2.4 2.4z" clip-path="url(#a)" fill="#fff" stroke="#fff"/>
<g clip-path="url(#a)">
<g transform="translate(467.71 702.01) rotate(90) scale(.08 -.08)">
<use xlink:href="#l"/>
<use x="44.083984" xlink:href="#d"/>
<use x="105.607422" xlink:href="#e"/>
<use x="144.970703" xlink:href="#k"/>
<use x="242.382812" xlink:href="#i"/>
<use x="270.166016" xlink:href="#g"/>
<use x="333.544922" xlink:href="#f"/>
<use x="394.824219" xlink:href="#j"/>
</g>
</g>
<path d="m561.38 702.01v33.808q0 2.4 2.4 2.4h7.7425q2.4 0 2.4-2.4v-33.808q0-2.4-2.4-2.4h-7.7425q-2.4 0-2.4 2.4z" clip-path="url(#a)" fill="#fff" stroke="#fff"/>
<g clip-path="url(#a)">
<g transform="translate(565.44 702.01) rotate(90) scale(.08 -.08)">
<use xlink:href="#l"/>
<use x="44.083984" xlink:href="#d"/>
<use x="105.607422" xlink:href="#e"/>
<use x="144.970703" xlink:href="#k"/>
<use x="242.382812" xlink:href="#i"/>
<use x="270.166016" xlink:href="#g"/>
<use x="333.544922" xlink:href="#f"/>
<use x="394.824219" xlink:href="#j"/>
</g>
</g>
<path d="m299.87 702.01v33.808q0 2.4 2.4 2.4h7.7425q2.4 0 2.4-2.4v-33.808q0-2.4-2.4-2.4h-7.7425q-2.4 0-2.4 2.4z" clip-path="url(#a)" fill="#fff" stroke="#fff"/>
<g clip-path="url(#a)">
<g transform="translate(303.94 702.01) rotate(90) scale(.08 -.08)">
<use xlink:href="#l"/>
<use x="44.083984" xlink:href="#d"/>
<use x="105.607422" xlink:href="#e"/>
<use x="144.970703" xlink:href="#k"/>
<use x="242.382812" xlink:href="#i"/>
<use x="270.166016" xlink:href="#g"/>
<use x="333.544922" xlink:href="#f"/>
<use x="394.824219" xlink:href="#j"/>
</g>
</g>
<path d="m336.86 702.01v33.808q0 2.4 2.4 2.4h7.7425q2.4 0 2.4-2.4v-33.808q0-2.4-2.4-2.4h-7.7425q-2.4 0-2.4 2.4z" clip-path="url(#a)" fill="#fff" stroke="#fff"/>
<g clip-path="url(#a)">
<g transform="translate(340.92 702.01) rotate(90) scale(.08 -.08)">
<use xlink:href="#l"/>
<use x="44.083984" xlink:href="#d"/>
<use x="105.607422" xlink:href="#e"/>
<use x="144.970703" xlink:href="#k"/>
<use x="242.382812" xlink:href="#i"/>
<use x="270.166016" xlink:href="#g"/>
<use x="333.544922" xlink:href="#f"/>
<use x="394.824219" xlink:href="#j"/>
</g>
</g>
<path d="m376.48 702.01v33.808q0 2.4 2.4 2.4h7.7425q2.4 0 2.4-2.4v-33.808q0-2.4-2.4-2.4h-7.7425q-2.4 0-2.4 2.4z" clip-path="url(#a)" fill="#fff" stroke="#fff"/>
<g clip-path="url(#a)">
<g transform="translate(380.54 702.01) rotate(90) scale(.08 -.08)">
<use xlink:href="#l"/>
<use x="44.083984" xlink:href="#d"/>
<use x="105.607422" xlink:href="#e"/>
<use x="144.970703" xlink:href="#k"/>
<use x="242.382812" xlink:href="#i"/>
<use x="270.166016" xlink:href="#g"/>
<use x="333.544922" xlink:href="#f"/>
<use x="394.824219" xlink:href="#j"/>
</g>
</g>
<path d="m84.238 529.37 0.25212-5.553q0.10885-2.3975-2.2887-2.5064l-7.7345-0.35117q-2.3975-0.10885-2.5064 2.2887l-0.25212 5.553q-0.10885 2.3975 2.2887 2.5064l7.7345 0.35117q2.3975 0.10885 2.5064-2.2887z" clip-path="url(#a)" fill="#fff" stroke="#fff"/>
<g clip-path="url(#a)">
<g transform="translate(80.179 529.19) rotate(-87.4) scale(.08 -.08)">
<use xlink:href="#ak"/>
</g>
</g>
<path d="m88.319 529.49 0.028592-6.2974q0.010897-2.4-2.3891-2.4109l-7.7424-0.035153q-2.4-0.010896-2.4109 2.3891l-0.028592 6.2974q-0.010896 2.4 2.3891 2.4109l7.7424 0.035152q2.4 0.010897 2.4109-2.3891z" clip-path="url(#a)" fill="#fff" stroke="#fff"/>
<g clip-path="url(#a)">
<defs>
<path id="as" d="m39.406 66.219q-10.75 0-17.078-8.0156-6.3125-8-6.3125-21.828 0-13.766 6.3125-21.781 6.3281-8 17.078-8 10.734 0 17.016 8 6.2812 8.0156 6.2812 21.781 0 13.828-6.2812 21.828-6.2812 8.0156-17.016 8.0156zm13.812-64.906 13-14.203h-11.922l-10.797 11.672q-1.6094-0.09375-2.4688-0.14062-0.84375-0.0625-1.625-0.0625-15.375 0-24.594 10.281-9.2031 10.281-9.2031 27.516 0 17.281 9.2031 27.562 9.2188 10.281 24.594 10.281 15.328 0 24.5-10.281 9.1875-10.281 9.1875-27.562 0-12.688-5.1094-21.734-5.0938-9.0312-14.766-13.328z"/>
</defs>
<g transform="translate(84.255 529.47) rotate(-89.74) scale(.08 -.08)">
<use xlink:href="#as"/>
</g>
</g>
<path d="m80.942 523.83 0.27864 5.5793q0.11971 2.397 2.5167 2.2773l7.7329-0.3862q2.397-0.11971 2.2773-2.5167l-0.27864-5.5793q-0.11971-2.397-2.5167-2.2773l-7.7329 0.3862q-2.397 0.11971-2.2773 2.5167z" clip-path="url(#a)" fill="#fff" stroke="#fff"/>
<g clip-path="url(#a)">
<g transform="translate(85 523.63) rotate(87.141) scale(.08 -.08)">
<use xlink:href="#af"/>
</g>
</g>
<path d="m114.97 702.01v33.808q0 2.4 2.4 2.4h7.7425q2.4 0 2.4-2.4v-33.808q0-2.4-2.4-2.4h-7.7425q-2.4 0-2.4 2.4z" clip-path="url(#a)" fill="#fff" stroke="#fff"/>
<g clip-path="url(#a)">
<g transform="translate(119.04 702.01) rotate(90) scale(.08 -.08)">
<use xlink:href="#l"/>
<use x="44.083984" xlink:href="#d"/>
<use x="105.607422" xlink:href="#e"/>
<use x="144.970703" xlink:href="#k"/>
<use x="242.382812" xlink:href="#i"/>
<use x="270.166016" xlink:href="#g"/>
<use x="333.544922" xlink:href="#f"/>
<use x="394.824219" xlink:href="#j"/>
</g>
</g>
<path d="m133.46 702.01v33.808q0 2.4 2.4 2.4h7.7425q2.4 0 2.4-2.4v-33.808q0-2.4-2.4-2.4h-7.7425q-2.4 0-2.4 2.4z" clip-path="url(#a)" fill="#fff" stroke="#fff"/>
<g clip-path="url(#a)">
<g transform="translate(137.53 702.01) rotate(90) scale(.08 -.08)">
<use xlink:href="#l"/>
<use x="44.083984" xlink:href="#d"/>
<use x="105.607422" xlink:href="#e"/>
<use x="144.970703" xlink:href="#k"/>
<use x="242.382812" xlink:href="#i"/>
<use x="270.166016" xlink:href="#g"/>
<use x="333.544922" xlink:href="#f"/>
<use x="394.824219" xlink:href="#j"/>
</g>
</g>
<path d="m154.59 702.01v33.808q0 2.4 2.4 2.4h7.7425q2.4 0 2.4-2.4v-33.808q0-2.4-2.4-2.4h-7.7425q-2.4 0-2.4 2.4z" clip-path="url(#a)" fill="#fff" stroke="#fff"/>
<g clip-path="url(#a)">
<g transform="translate(158.66 702.01) rotate(90) scale(.08 -.08)">
<use xlink:href="#l"/>
<use x="44.083984" xlink:href="#d"/>
<use x="105.607422" xlink:href="#e"/>
<use x="144.970703" xlink:href="#k"/>
<use x="242.382812" xlink:href="#i"/>
<use x="270.166016" xlink:href="#g"/>
<use x="333.544922" xlink:href="#f"/>
<use x="394.824219" xlink:href="#j"/>
</g>
</g>
<path d="m204.11 529.94 0.77474-5.5045q0.3345-2.3766-2.0421-2.7111l-7.6669-1.0791q-2.3766-0.3345-2.7111 2.0421l-0.77474 5.5045q-0.3345 2.3766 2.0421 2.7111l7.6669 1.0791q2.3766 0.3345 2.7111-2.0421z" clip-path="url(#a)" fill="#fff" stroke="#fff"/>
<g clip-path="url(#a)">
<g transform="translate(200.08 529.37) rotate(-81.988) scale(.08 -.08)">
<use xlink:href="#ak"/>
</g>
</g>
<path d="m217.75 528.64 0.02089-4.6012q0.010897-2.4-2.3891-2.4109l-7.7424-0.035152q-2.4-0.010897-2.4109 2.3891l-0.020891 4.6012q-0.010896 2.4 2.3891 2.4109l7.7424 0.035152q2.4 0.010897 2.4109-2.3891z" clip-path="url(#a)" fill="#fff" stroke="#fff"/>
<g clip-path="url(#a)">
<g transform="translate(213.69 528.62) rotate(-89.74) scale(.08 -.08)">
<use xlink:href="#ae"/>
</g>
</g>
<path d="m219.41 524.45 0.80318 5.5282q0.34507 2.3751 2.7201 2.03l7.6621-1.1132q2.3751-0.34507 2.03-2.7201l-0.80318-5.5282q-0.34507-2.3751-2.7201-2.03l-7.6621 1.1132q-2.3751 0.34507-2.03 2.7201z" clip-path="url(#a)" fill="#fff" stroke="#fff"/>
<g clip-path="url(#a)">
<g transform="translate(223.44 523.86) rotate(81.733) scale(.08 -.08)">
<use xlink:href="#af"/>
</g>
</g>
<path d="m178.37 702.01v33.808q0 2.4 2.4 2.4h7.7425q2.4 0 2.4-2.4v-33.808q0-2.4-2.4-2.4h-7.7425q-2.4 0-2.4 2.4z" clip-path="url(#a)" fill="#fff" stroke="#fff"/>
<g clip-path="url(#a)">
<g transform="translate(182.43 702.01) rotate(90) scale(.08 -.08)">
<use xlink:href="#l"/>
<use x="44.083984" xlink:href="#d"/>
<use x="105.607422" xlink:href="#e"/>
<use x="144.970703" xlink:href="#k"/>
<use x="242.382812" xlink:href="#i"/>
<use x="270.166016" xlink:href="#g"/>
<use x="333.544922" xlink:href="#f"/>
<use x="394.824219" xlink:href="#j"/>
</g>
</g>
<path d="m204.78 702.01v33.808q0 2.4 2.4 2.4h7.7425q2.4 0 2.4-2.4v-33.808q0-2.4-2.4-2.4h-7.7425q-2.4 0-2.4 2.4z" clip-path="url(#a)" fill="#fff" stroke="#fff"/>
<g clip-path="url(#a)">
<g transform="translate(208.85 702.01) rotate(90) scale(.08 -.08)">
<use xlink:href="#l"/>
<use x="44.083984" xlink:href="#d"/>
<use x="105.607422" xlink:href="#e"/>
<use x="144.970703" xlink:href="#k"/>
<use x="242.382812" xlink:href="#i"/>
<use x="270.166016" xlink:href="#g"/>
<use x="333.544922" xlink:href="#f"/>
<use x="394.824219" xlink:href="#j"/>
</g>
</g>
<path d="m233.84 702.01v33.808q0 2.4 2.4 2.4h7.7425q2.4 0 2.4-2.4v-33.808q0-2.4-2.4-2.4h-7.7425q-2.4 0-2.4 2.4z" clip-path="url(#a)" fill="#fff" stroke="#fff"/>
<g clip-path="url(#a)">
<g transform="translate(237.9 702.01) rotate(90) scale(.08 -.08)">
<use xlink:href="#l"/>
<use x="44.083984" xlink:href="#d"/>
<use x="105.607422" xlink:href="#e"/>
<use x="144.970703" xlink:href="#k"/>
<use x="242.382812" xlink:href="#i"/>
<use x="270.166016" xlink:href="#g"/>
<use x="333.544922" xlink:href="#f"/>
<use x="394.824219" xlink:href="#j"/>
</g>
</g>
<path d="m67.426 702.01v33.808q0 2.4 2.4 2.4h7.7425q2.4 0 2.4-2.4v-33.808q0-2.4-2.4-2.4h-7.7425q-2.4 0-2.4 2.4z" clip-path="url(#a)" fill="#fff" stroke="#fff"/>
<g clip-path="url(#a)">
<g transform="translate(71.489 702.01) rotate(90) scale(.08 -.08)">
<use xlink:href="#l"/>
<use x="44.083984" xlink:href="#d"/>
<use x="105.607422" xlink:href="#e"/>
<use x="144.970703" xlink:href="#k"/>
<use x="242.382812" xlink:href="#i"/>
<use x="270.166016" xlink:href="#g"/>
<use x="333.544922" xlink:href="#f"/>
<use x="394.824219" xlink:href="#j"/>
</g>
</g>
<path d="m75.35 702.01v33.808q0 2.4 2.4 2.4h7.7425q2.4 0 2.4-2.4v-33.808q0-2.4-2.4-2.4h-7.7425q-2.4 0-2.4 2.4z" clip-path="url(#a)" fill="#fff" stroke="#fff"/>
<g clip-path="url(#a)">
<g transform="translate(79.414 702.01) rotate(90) scale(.08 -.08)">
<use xlink:href="#l"/>
<use x="44.083984" xlink:href="#d"/>
<use x="105.607422" xlink:href="#e"/>
<use x="144.970703" xlink:href="#k"/>
<use x="242.382812" xlink:href="#i"/>
<use x="270.166016" xlink:href="#g"/>
<use x="333.544922" xlink:href="#f"/>
<use x="394.824219" xlink:href="#j"/>
</g>
</g>
<path d="m85.916 702.01v33.808q0 2.4 2.4 2.4h7.7425q2.4 0 2.4-2.4v-33.808q0-2.4-2.4-2.4h-7.7425q-2.4 0-2.4 2.4z" clip-path="url(#a)" fill="#fff" stroke="#fff"/>
<g clip-path="url(#a)">
<g transform="translate(89.98 702.01) rotate(90) scale(.08 -.08)">
<use xlink:href="#l"/>
<use x="44.083984" xlink:href="#d"/>
<use x="105.607422" xlink:href="#e"/>
<use x="144.970703" xlink:href="#k"/>
<use x="242.382812" xlink:href="#i"/>
<use x="270.166016" xlink:href="#g"/>
<use x="333.544922" xlink:href="#f"/>
<use x="394.824219" xlink:href="#j"/>
</g>
</g>
<path d="m99.123 702.01v33.808q0 2.4 2.4 2.4h7.7425q2.4 0 2.4-2.4v-33.808q0-2.4-2.4-2.4h-7.7425q-2.4 0-2.4 2.4z" clip-path="url(#a)" fill="#fff" stroke="#fff"/>
<g clip-path="url(#a)">
<g transform="translate(103.19 702.01) rotate(90) scale(.08 -.08)">
<use xlink:href="#l"/>
<use x="44.083984" xlink:href="#d"/>
<use x="105.607422" xlink:href="#e"/>
<use x="144.970703" xlink:href="#k"/>
<use x="242.382812" xlink:href="#i"/>
<use x="270.166016" xlink:href="#g"/>
<use x="333.544922" xlink:href="#f"/>
<use x="394.824219" xlink:href="#j"/>
</g>
</g>
<path d="m511.19 702.01v33.808q0 2.4 2.4 2.4h7.7425q2.4 0 2.4-2.4v-33.808q0-2.4-2.4-2.4h-7.7425q-2.4 0-2.4 2.4z" clip-path="url(#a)" fill="#fff" stroke="#fff"/>
<g clip-path="url(#a)">
<g transform="translate(515.26 702.01) rotate(90) scale(.08 -.08)">
<use xlink:href="#l"/>
<use x="44.083984" xlink:href="#d"/>
<use x="105.607422" xlink:href="#e"/>
<use x="144.970703" xlink:href="#k"/>
<use x="242.382812" xlink:href="#i"/>
<use x="270.166016" xlink:href="#g"/>
<use x="333.544922" xlink:href="#f"/>
<use x="394.824219" xlink:href="#j"/>
</g>
</g>
<path d="m727.79 702.01v33.808q0 2.4 2.4 2.4h7.7425q2.4 0 2.4-2.4v-33.808q0-2.4-2.4-2.4h-7.7425q-2.4 0-2.4 2.4z" clip-path="url(#a)" fill="#fff" stroke="#fff"/>
<g clip-path="url(#a)">
<g transform="translate(731.86 702.01) rotate(90) scale(.08 -.08)">
<use xlink:href="#l"/>
<use x="44.083984" xlink:href="#d"/>
<use x="105.607422" xlink:href="#e"/>
<use x="144.970703" xlink:href="#k"/>
<use x="242.382812" xlink:href="#i"/>
<use x="270.166016" xlink:href="#g"/>
<use x="333.544922" xlink:href="#f"/>
<use x="394.824219" xlink:href="#j"/>
</g>
</g>
<path d="m1541.4 702.01v33.808q0 2.4 2.4 2.4h7.7425q2.4 0 2.4-2.4v-33.808q0-2.4-2.4-2.4h-7.7425q-2.4 0-2.4 2.4z" clip-path="url(#a)" fill="#fff" stroke="#fff"/>
<g clip-path="url(#a)">
<g transform="translate(1545.4 702.01) rotate(90) scale(.08 -.08)">
<use xlink:href="#l"/>
<use x="44.083984" xlink:href="#d"/>
<use x="105.607422" xlink:href="#e"/>
<use x="144.970703" xlink:href="#k"/>
<use x="242.382812" xlink:href="#i"/>
<use x="270.166016" xlink:href="#g"/>
<use x="333.544922" xlink:href="#f"/>
<use x="394.824219" xlink:href="#j"/>
</g>
</g>
<defs>
<path id="b" d="m0 8.6603c2.2967 0 4.4997-0.9125 6.1237-2.5365 1.624-1.624 2.5365-3.827 2.5365-6.1237s-0.9125-4.4997-2.5365-6.1237c-1.624-1.624-3.827-2.5365-6.1237-2.5365s-4.4997 0.9125-6.1237 2.5365c-1.624 1.624-2.5365 3.827-2.5365 6.1237s0.9125 4.4997 2.5365 6.1237c1.624 1.624 3.827 2.5365 6.1237 2.5365z"/>
</defs>
<g clip-path="url(#a)">
<use x="73.69697" y="814.545455" fill="#ffffff" stroke="#ffffff" xlink:href="#b"/>
</g>
<g clip-path="url(#a)">
<use x="81.621375" y="814.545455" fill="#ffffff" stroke="#ffffff" xlink:href="#b"/>
</g>
<g clip-path="url(#a)">
<use x="92.187249" y="814.545455" fill="#ffffff" stroke="#ffffff" xlink:href="#b"/>
</g>
<g clip-path="url(#a)">
<use x="105.394591" y="814.545455" fill="#ffffff" stroke="#ffffff" xlink:href="#b"/>
</g>
<g clip-path="url(#a)">
<use x="121.243402" y="814.545455" fill="#ffffff" stroke="#ffffff" xlink:href="#b"/>
</g>
<g clip-path="url(#a)">
<use x="139.733681" y="814.545455" fill="#ffffff" stroke="#ffffff" xlink:href="#b"/>
</g>
<g clip-path="url(#a)">
<use x="160.865428" y="814.545455" fill="#ffffff" stroke="#ffffff" xlink:href="#b"/>
</g>
<g clip-path="url(#a)">
<use x="184.638645" y="814.545455" fill="#ffffff" stroke="#ffffff" xlink:href="#b"/>
</g>
<g clip-path="url(#a)">
<use x="211.053329" y="814.545455" fill="#ffffff" stroke="#ffffff" xlink:href="#b"/>
</g>
<g clip-path="url(#a)">
<use x="240.109482" y="814.545455" fill="#ffffff" stroke="#ffffff" xlink:href="#b"/>
</g>
<g clip-path="url(#a)">
<use x="271.807103" y="814.545455" fill="#ffffff" stroke="#ffffff" xlink:href="#b"/>
</g>
<g clip-path="url(#a)">
<use x="306.146193" y="814.545455" fill="#ffffff" stroke="#ffffff" xlink:href="#b"/>
</g>
<g clip-path="url(#a)">
<use x="343.126751" y="814.545455" fill="#ffffff" stroke="#ffffff" xlink:href="#b"/>
</g>
<g clip-path="url(#a)">
<use x="382.748778" y="814.545455" fill="#ffffff" stroke="#ffffff" xlink:href="#b"/>
</g>
<g clip-path="url(#a)">
<use x="425.012273" y="814.545455" fill="#ffffff" stroke="#ffffff" xlink:href="#b"/>
</g>
<g clip-path="url(#a)">
<use x="469.917237" y="814.545455" fill="#ffffff" stroke="#ffffff" xlink:href="#b"/>
</g>
<g clip-path="url(#a)">
<use x="517.463669" y="814.545455" fill="#ffffff" stroke="#ffffff" xlink:href="#b"/>
</g>
<g clip-path="url(#a)">
<use x="567.651569" y="814.545455" fill="#ffffff" stroke="#ffffff" xlink:href="#b"/>
</g>
<g clip-path="url(#a)">
<use x="620.480938" y="814.545455" fill="#ffffff" stroke="#ffffff" xlink:href="#b"/>
</g>
<g clip-path="url(#a)">
<use x="675.951776" y="814.545455" fill="#ffffff" stroke="#ffffff" xlink:href="#b"/>
</g>
<g clip-path="url(#a)">
<use x="734.064082" y="814.545455" fill="#ffffff" stroke="#ffffff" xlink:href="#b"/>
</g>
<g clip-path="url(#a)">
<use x="794.817856" y="814.545455" fill="#ffffff" stroke="#ffffff" xlink:href="#b"/>
</g>
<g clip-path="url(#a)">
<use x="858.213099" y="814.545455" fill="#ffffff" stroke="#ffffff" xlink:href="#b"/>
</g>
<g clip-path="url(#a)">
<use x="924.24981" y="814.545455" fill="#ffffff" stroke="#ffffff" xlink:href="#b"/>
</g>
<g clip-path="url(#a)">
<use x="992.92799" y="814.545455" fill="#ffffff" stroke="#ffffff" xlink:href="#b"/>
</g>
<g clip-path="url(#a)">
<use x="1064.247638" y="814.545455" fill="#ffffff" stroke="#ffffff" xlink:href="#b"/>
</g>
<g clip-path="url(#a)">
<use x="1138.208754" y="814.545455" fill="#ffffff" stroke="#ffffff" xlink:href="#b"/>
</g>
<g clip-path="url(#a)">
<use x="1214.811339" y="814.545455" fill="#ffffff" stroke="#ffffff" xlink:href="#b"/>
</g>
<g clip-path="url(#a)">
<use x="1294.055393" y="814.545455" fill="#ffffff" stroke="#ffffff" xlink:href="#b"/>
</g>
<g clip-path="url(#a)">
<use x="1375.940915" y="814.545455" fill="#ffffff" stroke="#ffffff" xlink:href="#b"/>
</g>
<g clip-path="url(#a)">
<use x="1460.467905" y="814.545455" fill="#ffffff" stroke="#ffffff" xlink:href="#b"/>
</g>
<g clip-path="url(#a)">
<use x="1547.636364" y="814.545455" fill="#ffffff" stroke="#ffffff" xlink:href="#b"/>
</g>
<g clip-path="url(#a)">
<use x="637.567571" y="38.787879" fill="#ffffff" stroke="#ffffff" xlink:href="#b"/>
</g>
<g clip-path="url(#a)">
<use x="136.945464" y="234.398654" fill="#ffffff" stroke="#ffffff" xlink:href="#b"/>
</g>
<g clip-path="url(#a)">
<use x="271.807103" y="623.276082" fill="#ffffff" stroke="#ffffff" xlink:href="#b"/>
</g>
<g clip-path="url(#a)">
<use x="288.316281" y="429.345941" fill="#ffffff" stroke="#ffffff" xlink:href="#b"/>
</g>
<g clip-path="url(#a)">
<use x="425.012273" y="623.276082" fill="#ffffff" stroke="#ffffff" xlink:href="#b"/>
</g>
<g clip-path="url(#a)">
<use x="484.005069" y="234.398654" fill="#ffffff" stroke="#ffffff" xlink:href="#b"/>
</g>
<g clip-path="url(#a)">
<use x="794.817856" y="623.276082" fill="#ffffff" stroke="#ffffff" xlink:href="#b"/>
</g>
<g clip-path="url(#a)">
<use x="767.412621" y="234.398654" fill="#ffffff" stroke="#ffffff" xlink:href="#b"/>
</g>
<g clip-path="url(#a)">
<use x="1096.473553" y="429.345941" fill="#ffffff" stroke="#ffffff" xlink:href="#b"/>
</g>
<g clip-path="url(#a)">
<use x="1376.821404" y="429.345941" fill="#ffffff" stroke="#ffffff" xlink:href="#b"/>
</g>
<g clip-path="url(#a)">
<use x="1294.055393" y="623.276082" fill="#ffffff" stroke="#ffffff" xlink:href="#b"/>
</g>
<g clip-path="url(#a)">
<use x="1375.940915" y="623.276082" fill="#ffffff" stroke="#ffffff" xlink:href="#b"/>
</g>
<g clip-path="url(#a)">
<use x="1138.208754" y="623.276082" fill="#ffffff" stroke="#ffffff" xlink:href="#b"/>
</g>
<g clip-path="url(#a)">
<use x="1214.811339" y="623.276082" fill="#ffffff" stroke="#ffffff" xlink:href="#b"/>
</g>
<g clip-path="url(#a)">
<use x="1460.467905" y="623.276082" fill="#ffffff" stroke="#ffffff" xlink:href="#b"/>
</g>
<g clip-path="url(#a)">
<use x="891.231454" y="429.345941" fill="#ffffff" stroke="#ffffff" xlink:href="#b"/>
</g>
<g clip-path="url(#a)">
<use x="992.92799" y="623.276082" fill="#ffffff" stroke="#ffffff" xlink:href="#b"/>
</g>
<g clip-path="url(#a)">
<use x="1064.247638" y="623.276082" fill="#ffffff" stroke="#ffffff" xlink:href="#b"/>
</g>
<g clip-path="url(#a)">
<use x="858.213099" y="623.276082" fill="#ffffff" stroke="#ffffff" xlink:href="#b"/>
</g>
<g clip-path="url(#a)">
<use x="924.24981" y="623.276082" fill="#ffffff" stroke="#ffffff" xlink:href="#b"/>
</g>
<g clip-path="url(#a)">
<use x="518.344158" y="429.345941" fill="#ffffff" stroke="#ffffff" xlink:href="#b"/>
</g>
<g clip-path="url(#a)">
<use x="620.480938" y="623.276082" fill="#ffffff" stroke="#ffffff" xlink:href="#b"/>
</g>
<g clip-path="url(#a)">
<use x="675.951776" y="623.276082" fill="#ffffff" stroke="#ffffff" xlink:href="#b"/>
</g>
<g clip-path="url(#a)">
<use x="469.917237" y="623.276082" fill="#ffffff" stroke="#ffffff" xlink:href="#b"/>
</g>
<g clip-path="url(#a)">
<use x="567.651569" y="623.276082" fill="#ffffff" stroke="#ffffff" xlink:href="#b"/>
</g>
<g clip-path="url(#a)">
<use x="306.146193" y="623.276082" fill="#ffffff" stroke="#ffffff" xlink:href="#b"/>
</g>
<g clip-path="url(#a)">
<use x="343.126751" y="623.276082" fill="#ffffff" stroke="#ffffff" xlink:href="#b"/>
</g>
<g clip-path="url(#a)">
<use x="382.748778" y="623.276082" fill="#ffffff" stroke="#ffffff" xlink:href="#b"/>
</g>
<g clip-path="url(#a)">
<use x="82.501865" y="429.345941" fill="#ffffff" stroke="#ffffff" xlink:href="#b"/>
</g>
<g clip-path="url(#a)">
<use x="121.243402" y="623.276082" fill="#ffffff" stroke="#ffffff" xlink:href="#b"/>
</g>
<g clip-path="url(#a)">
<use x="139.733681" y="623.276082" fill="#ffffff" stroke="#ffffff" xlink:href="#b"/>
</g>
<g clip-path="url(#a)">
<use x="160.865428" y="623.276082" fill="#ffffff" stroke="#ffffff" xlink:href="#b"/>
</g>
<g clip-path="url(#a)">
<use x="211.933818" y="429.345941" fill="#ffffff" stroke="#ffffff" xlink:href="#b"/>
</g>
<g clip-path="url(#a)">
<use x="184.638645" y="623.276082" fill="#ffffff" stroke="#ffffff" xlink:href="#b"/>
</g>
<g clip-path="url(#a)">
<use x="211.053329" y="623.276082" fill="#ffffff" stroke="#ffffff" xlink:href="#b"/>
</g>
<g clip-path="url(#a)">
<use x="240.109482" y="623.276082" fill="#ffffff" stroke="#ffffff" xlink:href="#b"/>
</g>
<g clip-path="url(#a)">
<use x="73.69697" y="623.276082" fill="#ffffff" stroke="#ffffff" xlink:href="#b"/>
</g>
<g clip-path="url(#a)">
<use x="81.621375" y="623.276082" fill="#ffffff" stroke="#ffffff" xlink:href="#b"/>
</g>
<g clip-path="url(#a)">
<use x="92.187249" y="623.276082" fill="#ffffff" stroke="#ffffff" xlink:href="#b"/>
</g>
<g clip-path="url(#a)">
<use x="105.394591" y="623.276082" fill="#ffffff" stroke="#ffffff" xlink:href="#b"/>
</g>
<g clip-path="url(#a)">
<use x="517.463669" y="623.276082" fill="#ffffff" stroke="#ffffff" xlink:href="#b"/>
</g>
<g clip-path="url(#a)">
<use x="734.064082" y="623.276082" fill="#ffffff" stroke="#ffffff" xlink:href="#b"/>
</g>
<g clip-path="url(#a)">
<use x="1547.636364" y="623.276082" fill="#ffffff" stroke="#ffffff" xlink:href="#b"/>
</g>
<g clip-path="url(#a)">
<defs>
<path id="ap" d="m37.109 75.984v-7.4844h-8.5938q-4.8281 0-6.7188-1.9531-1.875-1.9531-1.875-7.0312v-4.8281h14.797v-6.9844h-14.797v-47.703h-9.0312v47.703h-8.5938v6.9844h8.5938v3.8125q0 9.125 4.25 13.297 4.25 4.1875 13.469 4.1875z"/>
<path id="q" d="m18.312 70.219v-15.531h18.5v-6.9844h-18.5v-29.688q0-6.6875 1.8281-8.5938t7.4531-1.9062h9.2188v-7.5156h-9.2188q-10.406 0-14.359 3.875-3.9531 3.8906-3.9531 14.141v29.688h-6.5938v6.9844h6.5938v15.531z"/>
</defs>
<g transform="translate(61.693 817.3) scale(.1 -.1)">
<use xlink:href="#r"/>
<use x="64.783203" xlink:href="#ap"/>
<use x="98.238281" xlink:href="#q"/>
<use x="137.447266" xlink:href="#d"/>
<use x="198.970703" xlink:href="#e"/>
</g>
</g>
<g clip-path="url(#a)">
<defs>
<path id="c" d="m12.406 8.2969h16.109v55.625l-17.531-3.5156v8.9844l17.438 3.5156h9.8594v-64.609h16.109v-8.2969h-41.984z"/>
<path id="y" d="m10.797 72.906h38.719v-8.3125h-29.688v-17.859q2.1406 0.73438 4.2812 1.0938 2.1562 0.35938 4.3125 0.35938 12.203 0 19.328-6.6875 7.1406-6.6875 7.1406-18.109 0-11.766-7.3281-18.297-7.3281-6.5156-20.656-6.5156-4.5938 0-9.3594 0.78125-4.75 0.78125-9.8281 2.3438v9.9219q4.3906-2.3906 9.0781-3.5625t9.9062-1.1719q8.4531 0 13.375 4.4375 4.9375 4.4375 4.9375 12.062 0 7.6094-4.9375 12.047-4.9219 4.4531-13.375 4.4531-3.9531 0-7.8906-0.875-3.9219-0.875-8.0156-2.7344z"/>
</defs>
<g transform="translate(75.259 817.3) scale(.1 -.1)">
<use xlink:href="#c"/>
<use x="63.623047" xlink:href="#y"/>
</g>
</g>
<g clip-path="url(#a)">
<defs>
<path id="ar" d="m32.172-5.0781q-3.7969-9.7656-7.4219-12.734-3.6094-2.9844-9.6562-2.9844h-7.1875v7.5156h5.2812q3.7031 0 5.75 1.7656 2.0625 1.75 4.5469 8.2969l1.6094 4.0938-22.109 53.812h9.5156l17.094-42.766 17.094 42.766h9.5156z"/>
<path id="s" d="m44.281 53.078v-8.5q-3.7969 1.9531-7.9062 2.9219-4.0938 0.98438-8.5 0.98438-6.6875 0-10.031-2.0469t-3.3438-6.1562q0-3.125 2.3906-4.9062t9.625-3.3906l3.0781-0.6875q9.5625-2.0469 13.594-5.7812t4.0312-10.422q0-7.625-6.0312-12.078-6.0312-4.4375-16.578-4.4375-4.3906 0-9.1562 0.85938t-10.031 2.5625v9.2812q4.9844-2.5938 9.8125-3.8906 4.8281-1.2812 9.5781-1.2812 6.3438 0 9.75 2.1719 3.4219 2.1719 3.4219 6.125 0 3.6562-2.4688 5.6094-2.4531 1.9531-10.812 3.7656l-3.125 0.73438q-8.3438 1.75-12.062 5.3906-3.7031 3.6406-3.7031 9.9844 0 7.7188 5.4688 11.906 5.4688 4.2031 15.531 4.2031 4.9688 0 9.3594-0.73438 4.4062-0.71875 8.1094-2.1875z"/>
</defs>
<g transform="translate(78.427 817.3) scale(.1 -.1)">
<use xlink:href="#ar"/>
<use x="59.179688" xlink:href="#d"/>
<use x="120.703125" xlink:href="#f"/>
<use x="181.982422" xlink:href="#e"/>
<use x="223.095703" xlink:href="#s"/>
</g>
</g>
<g clip-path="url(#a)">
<defs>
<path id="aq" d="m11.719 12.406h10.297v-8.4062l-8-15.625h-6.2969l4 15.625z"/>
</defs>
<g transform="translate(103.81 817.3) scale(.1 -.1)">
<use xlink:href="#aq"/>
</g>
</g>
<g clip-path="url(#a)">
<defs>
<path id="ac" d="m54.891 33.016v-33.016h-8.9844v32.719q0 7.7656-3.0312 11.609-3.0312 3.8594-9.0781 3.8594-7.2812 0-11.484-4.6406-4.2031-4.625-4.2031-12.641v-30.906h-9.0312v75.984h9.0312v-29.797q3.2344 4.9375 7.5938 7.375 4.375 2.4375 10.094 2.4375 9.4219 0 14.25-5.8281 4.8438-5.8281 4.8438-17.156z"/>
</defs>
<g transform="translate(112.39 817.3) scale(.1 -.1)">
<use xlink:href="#s"/>
<use x="52.099609" xlink:href="#ac"/>
<use x="115.478516" xlink:href="#d"/>
</g>
</g>
<g clip-path="url(#a)">
<defs>
<path id="an" d="m4.2031 54.688h8.9844l11.234-42.672 11.172 42.672h10.594l11.234-42.672 11.188 42.672h8.9844l-14.312-54.688h-10.594l-11.766 44.828-11.812-44.828h-10.609z"/>
</defs>
<g transform="translate(129.98 817.3) scale(.1 -.1)">
<use xlink:href="#an"/>
<use x="81.787109" xlink:href="#f"/>
<use x="143.066406" xlink:href="#s"/>
</g>
</g>
<g clip-path="url(#a)">
<defs>
<path id="v" d="m45.406 46.391v29.594h8.9844v-75.984h-8.9844v8.2031q-2.8281-4.875-7.1562-7.25-4.3125-2.375-10.375-2.375-9.9062 0-16.141 7.9062-6.2188 7.9219-6.2188 20.812t6.2188 20.797q6.2344 7.9062 16.141 7.9062 6.0625 0 10.375-2.375 4.3281-2.3594 7.1562-7.2344zm-30.609-19.094q0-9.9062 4.0781-15.547t11.203-5.6406 11.219 5.6406q4.1094 5.6406 4.1094 15.547t-4.1094 15.547q-4.0938 5.6406-11.219 5.6406t-11.203-5.6406-4.0781-15.547z"/>
</defs>
<g transform="translate(139.46 817.3) scale(.1 -.1)">
<use xlink:href="#e"/>
<use x="38.863281" xlink:href="#d"/>
<use x="100.386719" xlink:href="#j"/>
<use x="128.169922" xlink:href="#d"/>
<use x="189.693359" xlink:href="#f"/>
<use x="250.972656" xlink:href="#s"/>
<use x="303.072266" xlink:href="#d"/>
<use x="364.595703" xlink:href="#v"/>
</g>
</g>
<g clip-path="url(#a)">
<defs>
<path id="t" d="m30.609 48.391q-7.2188 0-11.422-5.6406t-4.2031-15.453 4.1719-15.453q4.1875-5.6406 11.453-5.6406 7.1875 0 11.375 5.6562 4.2031 5.6719 4.2031 15.438 0 9.7188-4.2031 15.406-4.1875 5.6875-11.375 5.6875zm0 7.6094q11.719 0 18.406-7.625 6.7031-7.6094 6.7031-21.078 0-13.422-6.7031-21.078-6.6875-7.6406-18.406-7.6406-11.766 0-18.438 7.6406-6.6562 7.6562-6.6562 21.078 0 13.469 6.6562 21.078 6.6719 7.625 18.438 7.625z"/>
</defs>
<g transform="translate(173.01 817.3) scale(.1 -.1)">
<use xlink:href="#ap"/>
<use x="35.205078" xlink:href="#e"/>
<use x="74.068359" xlink:href="#t"/>
<use x="135.25" xlink:href="#k"/>
</g>
</g>
<g clip-path="url(#a)">
<g transform="translate(202.85 817.3) scale(.1 -.1)">
<use xlink:href="#q"/>
<use x="39.208984" xlink:href="#ac"/>
<use x="102.587891" xlink:href="#d"/>
</g>
</g>
<g clip-path="url(#a)">
<defs>
<path id="z" d="m8.5 21.578v33.109h8.9844v-32.766q0-7.7656 3.0156-11.656 3.0312-3.875 9.0938-3.875 7.2656 0 11.484 4.6406 4.2344 4.6406 4.2344 12.656v31h8.9844v-54.688h-8.9844v8.4062q-3.2656-4.9844-7.5938-7.4062-4.3125-2.4219-10.031-2.4219-9.4219 0-14.312 5.8594-4.875 5.8594-4.875 17.141z"/>
</defs>
<g transform="translate(224.75 817.3) scale(.1 -.1)">
<use xlink:href="#s"/>
<use x="52.099609" xlink:href="#q"/>
<use x="91.308594" xlink:href="#z"/>
<use x="154.6875" xlink:href="#v"/>
<use x="218.164062" xlink:href="#i"/>
<use x="245.947266" xlink:href="#t"/>
</g>
</g>
<g clip-path="url(#a)">
<defs>
<path id="aj" d="m48.688 27.297q0 9.9062-4.0781 15.547t-11.203 5.6406q-7.1406 0-11.219-5.6406t-4.0781-15.547 4.0781-15.547 11.219-5.6406q7.125 0 11.203 5.6406t4.0781 15.547zm-30.578 19.094q2.8438 4.875 7.1562 7.2344 4.3281 2.375 10.328 2.375 9.9688 0 16.188-7.9062 6.2344-7.9062 6.2344-20.797t-6.2344-20.812q-6.2188-7.9062-16.188-7.9062-6 0-10.328 2.375-4.3125 2.375-7.1562 7.25v-8.2031h-9.0312v75.984h9.0312z"/>
</defs>
<g transform="translate(263.5 817.3) scale(.1 -.1)">
<use xlink:href="#aj"/>
<use x="63.476562" xlink:href="#z"/>
<use x="126.855469" xlink:href="#q"/>
</g>
</g>
<g clip-path="url(#a)">
<defs>
<path id="u" d="m45.406 27.984q0 9.7656-4.0312 15.125-4.0156 5.375-11.297 5.375-7.2188 0-11.25-5.375-4.0312-5.3594-4.0312-15.125 0-9.7188 4.0312-15.094t11.25-5.375q7.2812 0 11.297 5.375 4.0312 5.375 4.0312 15.094zm8.9844-21.203q0-13.953-6.2031-20.766-6.1875-6.8125-18.984-6.8125-4.7344 0-8.9375 0.70312t-8.1562 2.1719v8.7344q3.9531-2.1406 7.8125-3.1562 3.8594-1.0312 7.8594-1.0312 8.8438 0 13.234 4.6094t4.3906 13.938v4.4531q-2.7812-4.8438-7.125-7.2344t-10.406-2.3906q-10.047 0-16.203 7.6562-6.1562 7.6719-6.1562 20.328 0 12.688 6.1562 20.344 6.1562 7.6719 16.203 7.6719 6.0625 0 10.406-2.3906t7.125-7.2188v8.2969h8.9844z"/>
</defs>
<g transform="translate(289.1 817.3) scale(.1 -.1)">
<use xlink:href="#u"/>
<use x="63.476562" xlink:href="#f"/>
<use x="124.755859" xlink:href="#i"/>
<use x="152.539062" xlink:href="#g"/>
<use x="215.917969" xlink:href="#d"/>
<use x="277.441406" xlink:href="#v"/>
</g>
</g>
<g clip-path="url(#a)">
<g transform="translate(321.52 817.3) scale(.1 -.1)">
<use xlink:href="#e"/>
<use x="38.863281" xlink:href="#d"/>
<use x="100.386719" xlink:href="#g"/>
<use x="163.765625" xlink:href="#d"/>
<use x="225.289062" xlink:href="#an"/>
<use x="307.076172" xlink:href="#d"/>
<use x="368.599609" xlink:href="#v"/>
</g>
</g>
<g clip-path="url(#a)">
<defs>
<path id="n" d="m48.781 52.594v-8.4062q-3.8125 2.1094-7.6406 3.1562t-7.7344 1.0469q-8.75 0-13.594-5.5469-4.8281-5.5312-4.8281-15.547t4.8281-15.562q4.8438-5.5312 13.594-5.5312 3.9062 0 7.7344 1.0469t7.6406 3.1562v-8.3125q-3.7656-1.75-7.7969-2.625-4.0156-0.89062-8.5625-0.89062-12.359 0-19.641 7.7656-7.2656 7.7656-7.2656 20.953 0 13.375 7.3438 21.031 7.3594 7.6719 20.156 7.6719 4.1406 0 8.0938-0.85938 3.9531-0.84375 7.6719-2.5469z"/>
</defs>
<g transform="translate(363.19 817.3) scale(.1 -.1)">
<use xlink:href="#s"/>
<use x="52.099609" xlink:href="#z"/>
<use x="115.478516" xlink:href="#n"/>
<use x="170.458984" xlink:href="#n"/>
<use x="225.439453" xlink:href="#d"/>
<use x="286.962891" xlink:href="#s"/>
<use x="339.0625" xlink:href="#s"/>
</g>
</g>
<g clip-path="url(#a)">
<g transform="translate(405.37 817.3) scale(.1 -.1)">
<use xlink:href="#q"/>
<use x="39.208984" xlink:href="#ac"/>
<use x="102.587891" xlink:href="#e"/>
<use x="141.451172" xlink:href="#t"/>
<use x="202.632812" xlink:href="#z"/>
<use x="266.011719" xlink:href="#u"/>
<use x="329.488281" xlink:href="#ac"/>
</g>
</g>
<g clip-path="url(#a)">
<g transform="translate(453.95 817.3) scale(.1 -.1)">
<use xlink:href="#e"/>
<use x="38.863281" xlink:href="#d"/>
<use x="100.386719" xlink:href="#n"/>
<use x="155.367188" xlink:href="#t"/>
<use x="216.548828" xlink:href="#e"/>
<use x="255.912109" xlink:href="#v"/>
</g>
</g>
<g clip-path="url(#a)">
<defs>
<path id="au" d="m4.8906 31.391h26.312v-8h-26.312z"/>
</defs>
<g transform="translate(515.66 817.3) scale(.1 -.1)">
<use xlink:href="#au"/>
</g>
</g>
<g clip-path="url(#a)">
<defs>
<path id="av" d="m9.0781 75.984h9.0312v-44.875l26.812 23.578h11.469l-29-25.578 30.234-29.109h-11.719l-27.797 26.703v-26.703h-9.0312z"/>
</defs>
<g transform="translate(545.77 817.3) scale(.1 -.1)">
<use xlink:href="#aj"/>
<use x="63.476562" xlink:href="#e"/>
<use x="102.339844" xlink:href="#d"/>
<use x="163.863281" xlink:href="#f"/>
<use x="225.142578" xlink:href="#av"/>
<use x="283.052734" xlink:href="#i"/>
<use x="310.835938" xlink:href="#g"/>
<use x="374.214844" xlink:href="#u"/>
</g>
</g>
<g clip-path="url(#a)">
<g transform="translate(601.66 817.3) scale(.1 -.1)">
<use xlink:href="#n"/>
<use x="54.980469" xlink:href="#t"/>
<use x="116.162109" xlink:href="#g"/>
<use x="179.541016" xlink:href="#n"/>
<use x="234.521484" xlink:href="#d"/>
<use x="296.044922" xlink:href="#e"/>
<use x="337.158203" xlink:href="#q"/>
</g>
</g>
<g clip-path="url(#a)">
<defs>
<path id="ao" d="m18.109 8.2031v-29h-9.0312v75.484h9.0312v-8.2969q2.8438 4.875 7.1562 7.2344 4.3281 2.375 10.328 2.375 9.9688 0 16.188-7.9062 6.2344-7.9062 6.2344-20.797t-6.2344-20.812q-6.2188-7.9062-16.188-7.9062-6 0-10.328 2.375-4.3125 2.375-7.1562 7.25zm30.578 19.094q0 9.9062-4.0781 15.547t-11.203 5.6406q-7.1406 0-11.219-5.6406t-4.0781-15.547 4.0781-15.547 11.219-5.6406q7.125 0 11.203 5.6406t4.0781 15.547z"/>
</defs>
<g transform="translate(643.68 817.3) scale(.1 -.1)">
<use xlink:href="#f"/>
<use x="61.279297" xlink:href="#ao"/>
<use x="124.755859" xlink:href="#ao"/>
<use x="188.232422" xlink:href="#d"/>
<use x="249.755859" xlink:href="#f"/>
<use x="311.035156" xlink:href="#e"/>
<use x="352.148438" xlink:href="#f"/>
<use x="413.427734" xlink:href="#g"/>
<use x="476.806641" xlink:href="#n"/>
<use x="531.787109" xlink:href="#d"/>
<use x="593.310547" xlink:href="#s"/>
</g>
</g>
<g clip-path="url(#a)">
<g transform="translate(732.48 817.3) scale(.1 -.1)">
<use xlink:href="#aq"/>
</g>
</g>
<g clip-path="url(#a)">
<g transform="translate(772.05 817.3) scale(.1 -.1)">
<use xlink:href="#i"/>
<use x="27.783203" xlink:href="#g"/>
<use x="91.162109" xlink:href="#n"/>
<use x="146.142578" xlink:href="#j"/>
<use x="173.925781" xlink:href="#z"/>
<use x="237.304688" xlink:href="#v"/>
<use x="300.78125" xlink:href="#i"/>
<use x="328.564453" xlink:href="#g"/>
<use x="391.943359" xlink:href="#u"/>
</g>
</g>
<g clip-path="url(#a)">
<g transform="translate(855.15 817.3) scale(.1 -.1)">
<use xlink:href="#f"/>
</g>
</g>
<g clip-path="url(#a)">
<g transform="translate(908.96 817.3) scale(.1 -.1)">
<use xlink:href="#e"/>
<use x="38.863281" xlink:href="#d"/>
<use x="100.386719" xlink:href="#q"/>
<use x="139.595703" xlink:href="#z"/>
<use x="202.974609" xlink:href="#e"/>
<use x="242.337891" xlink:href="#g"/>
</g>
</g>
<g clip-path="url(#a)">
<g transform="translate(987.91 817.3) scale(.1 -.1)">
<use xlink:href="#q"/>
<use x="39.208984" xlink:href="#t"/>
</g>
</g>
<g clip-path="url(#a)">
<g transform="translate(1048.7 817.3) scale(.1 -.1)">
<use xlink:href="#f"/>
<use x="61.279297" xlink:href="#n"/>
<use x="116.259766" xlink:href="#q"/>
<use x="155.46875" xlink:href="#i"/>
<use x="183.251953" xlink:href="#g"/>
<use x="246.630859" xlink:href="#u"/>
</g>
</g>
<g clip-path="url(#a)">
<g transform="translate(1113.3 817.3) scale(.1 -.1)">
<use xlink:href="#aj"/>
<use x="63.476562" xlink:href="#d"/>
<use x="125" xlink:href="#u"/>
<use x="188.476562" xlink:href="#i"/>
<use x="216.259766" xlink:href="#g"/>
<use x="279.638672" xlink:href="#g"/>
<use x="343.017578" xlink:href="#i"/>
<use x="370.800781" xlink:href="#g"/>
<use x="434.179688" xlink:href="#u"/>
</g>
</g>
<g clip-path="url(#a)">
<g transform="translate(1204.2 817.3) scale(.1 -.1)">
<use xlink:href="#an"/>
<use x="81.787109" xlink:href="#i"/>
<use x="109.570312" xlink:href="#q"/>
<use x="148.779297" xlink:href="#ac"/>
</g>
</g>
<g clip-path="url(#a)">
<g transform="translate(1273 817.3) scale(.1 -.1)">
<use xlink:href="#n"/>
<use x="54.980469" xlink:href="#e"/>
<use x="96.09375" xlink:href="#i"/>
<use x="123.876953" xlink:href="#q"/>
<use x="163.085938" xlink:href="#i"/>
<use x="190.869141" xlink:href="#n"/>
<use x="245.849609" xlink:href="#f"/>
<use x="307.128906" xlink:href="#j"/>
<use x="334.912109" xlink:href="#j"/>
<use x="362.695312" xlink:href="#ar"/>
</g>
</g>
<g clip-path="url(#a)">
<g transform="translate(1350.4 817.3) scale(.1 -.1)">
<use xlink:href="#f"/>
<use x="61.279297" xlink:href="#n"/>
<use x="116.259766" xlink:href="#n"/>
<use x="171.240234" xlink:href="#j"/>
<use x="199.023438" xlink:href="#f"/>
<use x="260.302734" xlink:href="#i"/>
<use x="288.085938" xlink:href="#k"/>
<use x="385.498047" xlink:href="#d"/>
<use x="447.021484" xlink:href="#v"/>
</g>
</g>
<g clip-path="url(#a)">
<g transform="translate(1425.8 817.3) scale(.1 -.1)">
<use xlink:href="#ao"/>
<use x="63.476562" xlink:href="#d"/>
<use x="125" xlink:href="#e"/>
<use x="166.113281" xlink:href="#ap"/>
<use x="201.318359" xlink:href="#t"/>
<use x="262.5" xlink:href="#e"/>
<use x="301.863281" xlink:href="#k"/>
<use x="399.275391" xlink:href="#f"/>
<use x="460.554688" xlink:href="#g"/>
<use x="523.933594" xlink:href="#n"/>
<use x="578.914062" xlink:href="#d"/>
<use x="640.4375" xlink:href="#s"/>
</g>
</g>
<g clip-path="url(#a)">
<defs>
<path id="h" d="m10.688 12.406h10.312v-12.406h-10.312z"/>
</defs>
<g transform="translate(1546 817.3) scale(.1 -.1)">
<use xlink:href="#h"/>
</g>
</g>
<g clip-path="url(#a)">
<g transform="translate(629.62 41.547) scale(.1 -.1)">
<use xlink:href="#c"/>
<use x="63.623047" xlink:href="#h"/>
<use x="95.410156" xlink:href="#c"/>
</g>
</g>
<g clip-path="url(#a)">
<defs>
<path id="p" d="m19.188 8.2969h34.422v-8.2969h-46.281v8.2969q5.6094 5.8125 15.297 15.594 9.7031 9.7969 12.188 12.641 4.7344 5.3125 6.6094 9 1.8906 3.6875 1.8906 7.25 0 5.8125-4.0781 9.4688-4.0781 3.6719-10.625 3.6719-4.6406 0-9.7969-1.6094-5.1406-1.6094-11-4.8906v9.9688q5.9531 2.3906 11.125 3.6094 5.1875 1.2188 9.4844 1.2188 11.328 0 18.062-5.6719 6.7344-5.6562 6.7344-15.125 0-4.5-1.6875-8.5312-1.6719-4.0156-6.125-9.4844-1.2188-1.4219-7.7656-8.1875-6.5312-6.7656-18.453-18.922z"/>
</defs>
<g transform="translate(128.99 237.16) scale(.1 -.1)">
<use xlink:href="#c"/>
<use x="63.623047" xlink:href="#h"/>
<use x="95.410156" xlink:href="#p"/>
</g>
</g>
<g clip-path="url(#a)">
<defs>
<path id="m" d="m40.578 39.312q7.0781-1.5156 11.047-6.3125 3.9844-4.7812 3.9844-11.812 0-10.781-7.4219-16.703-7.4219-5.9062-21.094-5.9062-4.5781 0-9.4375 0.90625t-10.031 2.7188v9.5156q4.0938-2.3906 8.9688-3.6094 4.8906-1.2188 10.219-1.2188 9.2656 0 14.125 3.6562t4.8594 10.641q0 6.4531-4.5156 10.078-4.5156 3.6406-12.562 3.6406h-8.5v8.1094h8.8906q7.2656 0 11.125 2.9062t3.8594 8.375q0 5.6094-3.9844 8.6094-3.9688 3.0156-11.391 3.0156-4.0625 0-8.7031-0.89062-4.6406-0.875-10.203-2.7188v8.7812q5.625 1.5625 10.531 2.3438t9.25 0.78125q11.234 0 17.766-5.1094 6.5469-5.0938 6.5469-13.781 0-6.0625-3.4688-10.234t-9.8594-5.7812z"/>
</defs>
<g transform="translate(263.86 626.04) scale(.1 -.1)">
<use xlink:href="#c"/>
<use x="63.623047" xlink:href="#h"/>
<use x="95.410156" xlink:href="#m"/>
</g>
</g>
<g clip-path="url(#a)">
<defs>
<path id="o" d="m37.797 64.312-24.906-38.922h24.906zm-2.5938 8.5938h12.406v-47.516h10.406v-8.2031h-10.406v-17.188h-9.8125v17.188h-32.906v9.5156z"/>
</defs>
<g transform="translate(280.36 432.11) scale(.1 -.1)">
<use xlink:href="#c"/>
<use x="63.623047" xlink:href="#h"/>
<use x="95.410156" xlink:href="#o"/>
</g>
</g>
<g clip-path="url(#a)">
<g transform="translate(417.06 626.04) scale(.1 -.1)">
<use xlink:href="#c"/>
<use x="63.623047" xlink:href="#h"/>
<use x="95.410156" xlink:href="#y"/>
</g>
</g>
<g clip-path="url(#a)">
<defs>
<path id="ab" d="m33.016 40.375q-6.6406 0-10.531-4.5469-3.875-4.5312-3.875-12.438 0-7.8594 3.875-12.438 3.8906-4.5625 10.531-4.5625t10.516 4.5625q3.875 4.5781 3.875 12.438 0 7.9062-3.875 12.438-3.875 4.5469-10.516 4.5469zm19.578 30.922v-8.9844q-3.7188 1.75-7.5 2.6719-3.7812 0.9375-7.5 0.9375-9.7656 0-14.922-6.5938-5.1406-6.5938-5.875-19.922 2.875 4.25 7.2188 6.5156 4.3594 2.2656 9.5781 2.2656 10.984 0 17.359-6.6719 6.375-6.6562 6.375-18.125 0-11.234-6.6406-18.031-6.6406-6.7812-17.672-6.7812-12.656 0-19.344 9.6875-6.6875 9.7031-6.6875 28.109 0 17.281 8.2031 27.562t22.016 10.281q3.7188 0 7.5-0.73438t7.8906-2.1875z"/>
</defs>
<g transform="translate(476.05 237.16) scale(.1 -.1)">
<use xlink:href="#c"/>
<use x="63.623047" xlink:href="#h"/>
<use x="95.410156" xlink:href="#ab"/>
</g>
</g>
<g clip-path="url(#a)">
<defs>
<path id="ah" d="m8.2031 72.906h46.875v-4.2031l-26.469-68.703h-10.297l24.906 64.594h-35.016z"/>
</defs>
<g transform="translate(786.87 626.04) scale(.1 -.1)">
<use xlink:href="#c"/>
<use x="63.623047" xlink:href="#h"/>
<use x="95.410156" xlink:href="#ah"/>
</g>
</g>
<g clip-path="url(#a)">
<defs>
<path id="am" d="m31.781 34.625q-7.0312 0-11.062-3.7656-4.0156-3.7656-4.0156-10.344 0-6.5938 4.0156-10.359 4.0312-3.7656 11.062-3.7656t11.078 3.7812q4.0625 3.7969 4.0625 10.344 0 6.5781-4.0312 10.344-4.0156 3.7656-11.109 3.7656zm-9.8594 4.1875q-6.3438 1.5625-9.8906 5.9062-3.5312 4.3594-3.5312 10.609 0 8.7344 6.2188 13.812 6.2344 5.0781 17.062 5.0781 10.891 0 17.094-5.0781t6.2031-13.812q0-6.25-3.5469-10.609-3.5312-4.3438-9.8281-5.9062 7.125-1.6562 11.094-6.5 3.9844-4.8281 3.9844-11.797 0-10.609-6.4688-16.281-6.4688-5.6562-18.531-5.6562-12.047 0-18.531 5.6562-6.4688 5.6719-6.4688 16.281 0 6.9688 4 11.797 4.0156 4.8438 11.141 6.5zm-3.6094 15.578q0-5.6562 3.5312-8.8281 3.5469-3.1719 9.9375-3.1719 6.3594 0 9.9375 3.1719 3.5938 3.1719 3.5938 8.8281 0 5.6719-3.5938 8.8438-3.5781 3.1719-9.9375 3.1719-6.3906 0-9.9375-3.1719-3.5312-3.1719-3.5312-8.8438z"/>
</defs>
<g transform="translate(759.46 237.16) scale(.1 -.1)">
<use xlink:href="#c"/>
<use x="63.623047" xlink:href="#h"/>
<use x="95.410156" xlink:href="#am"/>
</g>
</g>
<g clip-path="url(#a)">
<defs>
<path id="ag" d="m10.984 1.5156v8.9844q3.7188-1.7656 7.5156-2.6875 3.8125-0.92188 7.4844-0.92188 9.7656 0 14.906 6.5625 5.1562 6.5625 5.8906 19.953-2.8281-4.2031-7.1875-6.4531-4.3438-2.25-9.6094-2.25-10.938 0-17.312 6.6094-6.375 6.625-6.375 18.109 0 11.219 6.6406 18 6.6406 6.7969 17.672 6.7969 12.656 0 19.312-9.7031 6.6719-9.6875 6.6719-28.141 0-17.234-8.1875-27.516-8.1719-10.281-21.984-10.281-3.7188 0-7.5312 0.73438-3.7969 0.73438-7.9062 2.2031zm19.625 30.906q6.6406 0 10.516 4.5312 3.8906 4.5469 3.8906 12.469 0 7.8594-3.8906 12.422-3.875 4.5625-10.516 4.5625t-10.516-4.5625-3.875-12.422q0-7.9219 3.875-12.469 3.875-4.5312 10.516-4.5312z"/>
</defs>
<g transform="translate(1088.5 432.11) scale(.1 -.1)">
<use xlink:href="#c"/>
<use x="63.623047" xlink:href="#h"/>
<use x="95.410156" xlink:href="#ag"/>
</g>
</g>
<g clip-path="url(#a)">
<defs>
<path id="ai" d="m31.781 66.406q-7.6094 0-11.453-7.5-3.8281-7.4844-3.8281-22.531 0-14.984 3.8281-22.484 3.8438-7.5 11.453-7.5 7.6719 0 11.5 7.5 3.8438 7.5 3.8438 22.484 0 15.047-3.8438 22.531-3.8281 7.5-11.5 7.5zm0 7.8125q12.266 0 18.734-9.7031 6.4688-9.6875 6.4688-28.141 0-18.406-6.4688-28.109-6.4688-9.6875-18.734-9.6875-12.25 0-18.719 9.6875-6.4688 9.7031-6.4688 28.109 0 18.453 6.4688 28.141 6.4688 9.7031 18.719 9.7031z"/>
</defs>
<g transform="translate(1365.7 432.11) scale(.1 -.1)">
<use xlink:href="#c"/>
<use x="63.623047" xlink:href="#h"/>
<use x="95.410156" xlink:href="#c"/>
<use x="159.033203" xlink:href="#ai"/>
</g>
</g>
<g clip-path="url(#a)">
<g transform="translate(1282.9 626.04) scale(.1 -.1)">
<use xlink:href="#c"/>
<use x="63.623047" xlink:href="#h"/>
<use x="95.410156" xlink:href="#c"/>
<use x="159.033203" xlink:href="#m"/>
</g>
</g>
<g clip-path="url(#a)">
<g transform="translate(1364.8 626.04) scale(.1 -.1)">
<use xlink:href="#c"/>
<use x="63.623047" xlink:href="#h"/>
<use x="95.410156" xlink:href="#c"/>
<use x="159.033203" xlink:href="#o"/>
</g>
</g>
<g clip-path="url(#a)">
<g transform="translate(1127.1 626.04) scale(.1 -.1)">
<use xlink:href="#c"/>
<use x="63.623047" xlink:href="#h"/>
<use x="95.410156" xlink:href="#c"/>
<use x="159.033203" xlink:href="#y"/>
</g>
</g>
<g clip-path="url(#a)">
<g transform="translate(1203.7 626.04) scale(.1 -.1)">
<use xlink:href="#c"/>
<use x="63.623047" xlink:href="#h"/>
<use x="95.410156" xlink:href="#c"/>
<use x="159.033203" xlink:href="#ab"/>
</g>
</g>
<g clip-path="url(#a)">
<g transform="translate(1449.3 626.04) scale(.1 -.1)">
<use xlink:href="#c"/>
<use x="63.623047" xlink:href="#h"/>
<use x="95.410156" xlink:href="#c"/>
<use x="159.033203" xlink:href="#ah"/>
</g>
</g>
<g clip-path="url(#a)">
<g transform="translate(880.1 432.11) scale(.1 -.1)">
<use xlink:href="#c"/>
<use x="63.623047" xlink:href="#h"/>
<use x="95.410156" xlink:href="#c"/>
<use x="159.033203" xlink:href="#am"/>
</g>
</g>
<g clip-path="url(#a)">
<g transform="translate(981.8 626.04) scale(.1 -.1)">
<use xlink:href="#c"/>
<use x="63.623047" xlink:href="#h"/>
<use x="95.410156" xlink:href="#c"/>
<use x="159.033203" xlink:href="#ag"/>
</g>
</g>
<g clip-path="url(#a)">
<g transform="translate(1053.1 626.04) scale(.1 -.1)">
<use xlink:href="#c"/>
<use x="63.623047" xlink:href="#h"/>
<use x="95.410156" xlink:href="#p"/>
<use x="159.033203" xlink:href="#ai"/>
</g>
</g>
<g clip-path="url(#a)">
<g transform="translate(847.08 626.04) scale(.1 -.1)">
<use xlink:href="#c"/>
<use x="63.623047" xlink:href="#h"/>
<use x="95.410156" xlink:href="#p"/>
<use x="159.033203" xlink:href="#c"/>
</g>
</g>
<g clip-path="url(#a)">
<g transform="translate(913.12 626.04) scale(.1 -.1)">
<use xlink:href="#c"/>
<use x="63.623047" xlink:href="#h"/>
<use x="95.410156" xlink:href="#p"/>
<use x="159.033203" xlink:href="#p"/>
</g>
</g>
<g clip-path="url(#a)">
<g transform="translate(507.21 432.11) scale(.1 -.1)">
<use xlink:href="#c"/>
<use x="63.623047" xlink:href="#h"/>
<use x="95.410156" xlink:href="#p"/>
<use x="159.033203" xlink:href="#m"/>
</g>
</g>
<g clip-path="url(#a)">
<g transform="translate(609.35 626.04) scale(.1 -.1)">
<use xlink:href="#c"/>
<use x="63.623047" xlink:href="#h"/>
<use x="95.410156" xlink:href="#p"/>
<use x="159.033203" xlink:href="#o"/>
</g>
</g>
<g clip-path="url(#a)">
<g transform="translate(664.82 626.04) scale(.1 -.1)">
<use xlink:href="#c"/>
<use x="63.623047" xlink:href="#h"/>
<use x="95.410156" xlink:href="#p"/>
<use x="159.033203" xlink:href="#y"/>
</g>
</g>
<g clip-path="url(#a)">
<g transform="translate(458.78 626.04) scale(.1 -.1)">
<use xlink:href="#c"/>
<use x="63.623047" xlink:href="#h"/>
<use x="95.410156" xlink:href="#p"/>
<use x="159.033203" xlink:href="#ab"/>
</g>
</g>
<g clip-path="url(#a)">
<g transform="translate(556.52 626.04) scale(.1 -.1)">
<use xlink:href="#c"/>
<use x="63.623047" xlink:href="#h"/>
<use x="95.410156" xlink:href="#p"/>
<use x="159.033203" xlink:href="#ah"/>
</g>
</g>
<g clip-path="url(#a)">
<g transform="translate(295.01 626.04) scale(.1 -.1)">
<use xlink:href="#c"/>
<use x="63.623047" xlink:href="#h"/>
<use x="95.410156" xlink:href="#p"/>
<use x="159.033203" xlink:href="#ag"/>
</g>
</g>
<g clip-path="url(#a)">
<g transform="translate(331.99 626.04) scale(.1 -.1)">
<use xlink:href="#c"/>
<use x="63.623047" xlink:href="#h"/>
<use x="95.410156" xlink:href="#m"/>
<use x="159.033203" xlink:href="#ai"/>
</g>
</g>
<g clip-path="url(#a)">
<g transform="translate(371.62 626.04) scale(.1 -.1)">
<use xlink:href="#c"/>
<use x="63.623047" xlink:href="#h"/>
<use x="95.410156" xlink:href="#m"/>
<use x="159.033203" xlink:href="#c"/>
</g>
</g>
<g clip-path="url(#a)">
<g transform="translate(71.369 432.11) scale(.1 -.1)">
<use xlink:href="#c"/>
<use x="63.623047" xlink:href="#h"/>
<use x="95.410156" xlink:href="#m"/>
<use x="159.033203" xlink:href="#p"/>
</g>
</g>
<g clip-path="url(#a)">
<g transform="translate(110.11 626.04) scale(.1 -.1)">
<use xlink:href="#c"/>
<use x="63.623047" xlink:href="#h"/>
<use x="95.410156" xlink:href="#m"/>
<use x="159.033203" xlink:href="#m"/>
</g>
</g>
<g clip-path="url(#a)">
<g transform="translate(128.6 626.04) scale(.1 -.1)">
<use xlink:href="#c"/>
<use x="63.623047" xlink:href="#h"/>
<use x="95.410156" xlink:href="#m"/>
<use x="159.033203" xlink:href="#o"/>
</g>
</g>
<g clip-path="url(#a)">
<g transform="translate(149.73 626.04) scale(.1 -.1)">
<use xlink:href="#c"/>
<use x="63.623047" xlink:href="#h"/>
<use x="95.410156" xlink:href="#m"/>
<use x="159.033203" xlink:href="#y"/>
</g>
</g>
<g clip-path="url(#a)">
<g transform="translate(200.8 432.11) scale(.1 -.1)">
<use xlink:href="#c"/>
<use x="63.623047" xlink:href="#h"/>
<use x="95.410156" xlink:href="#m"/>
<use x="159.033203" xlink:href="#ab"/>
</g>
</g>
<g clip-path="url(#a)">
<g transform="translate(173.51 626.04) scale(.1 -.1)">
<use xlink:href="#c"/>
<use x="63.623047" xlink:href="#h"/>
<use x="95.410156" xlink:href="#m"/>
<use x="159.033203" xlink:href="#am"/>
</g>
</g>
<g clip-path="url(#a)">
<g transform="translate(199.92 626.04) scale(.1 -.1)">
<use xlink:href="#c"/>
<use x="63.623047" xlink:href="#h"/>
<use x="95.410156" xlink:href="#m"/>
<use x="159.033203" xlink:href="#ag"/>
</g>
</g>
<g clip-path="url(#a)">
<g transform="translate(228.98 626.04) scale(.1 -.1)">
<use xlink:href="#c"/>
<use x="63.623047" xlink:href="#h"/>
<use x="95.410156" xlink:href="#o"/>
<use x="159.033203" xlink:href="#ai"/>
</g>
</g>
<g clip-path="url(#a)">
<g transform="translate(62.564 626.04) scale(.1 -.1)">
<use xlink:href="#c"/>
<use x="63.623047" xlink:href="#h"/>
<use x="95.410156" xlink:href="#o"/>
<use x="159.033203" xlink:href="#c"/>
</g>
</g>
<g clip-path="url(#a)">
<g transform="translate(70.489 626.04) scale(.1 -.1)">
<use xlink:href="#c"/>
<use x="63.623047" xlink:href="#h"/>
<use x="95.410156" xlink:href="#o"/>
<use x="159.033203" xlink:href="#p"/>
</g>
</g>
<g clip-path="url(#a)">
<g transform="translate(81.054 626.04) scale(.1 -.1)">
<use xlink:href="#c"/>
<use x="63.623047" xlink:href="#h"/>
<use x="95.410156" xlink:href="#o"/>
<use x="159.033203" xlink:href="#m"/>
</g>
</g>
<g clip-path="url(#a)">
<g transform="translate(94.262 626.04) scale(.1 -.1)">
<use xlink:href="#c"/>
<use x="63.623047" xlink:href="#h"/>
<use x="95.410156" xlink:href="#o"/>
<use x="159.033203" xlink:href="#o"/>
</g>
</g>
<g clip-path="url(#a)">
<g transform="translate(506.33 626.04) scale(.1 -.1)">
<use xlink:href="#c"/>
<use x="63.623047" xlink:href="#h"/>
<use x="95.410156" xlink:href="#o"/>
<use x="159.033203" xlink:href="#y"/>
</g>
</g>
<g clip-path="url(#a)">
<g transform="translate(722.93 626.04) scale(.1 -.1)">
<use xlink:href="#c"/>
<use x="63.623047" xlink:href="#h"/>
<use x="95.410156" xlink:href="#o"/>
<use x="159.033203" xlink:href="#ab"/>
</g>
</g>
<g clip-path="url(#a)">
<g transform="translate(1536.5 626.04) scale(.1 -.1)">
<use xlink:href="#c"/>
<use x="63.623047" xlink:href="#h"/>
<use x="95.410156" xlink:href="#o"/>
<use x="159.033203" xlink:href="#ah"/>
</g>
</g>
<defs>
<clipPath id="a">
<rect width="1621.3" height="853.33"/>
</clipPath>
</defs>
</svg>
