<?xml version="1.0" encoding="UTF-8"?>
<!DOCTYPE svg  PUBLIC '-//W3C//DTD SVG 1.1//EN'  'http://www.w3.org/Graphics/SVG/1.1/DTD/svg11.dtd'>
<svg width="2077.3pt" height="1093.3pt" version="1.1" viewBox="0 0 2077.3 1093.3" xmlns="http://www.w3.org/2000/svg" xmlns:xlink="http://www.w3.org/1999/xlink">
<defs>
<style type="text/css">*{stroke-linecap:butt;stroke-linejoin:round;}</style>
</defs>
<path d="m0 1093.3h2077.3v-1093.3h-2077.3z" fill="#fff"/>
<g fill="none" stroke="#000">
<path d="m498.05 49.697-403.63 798.33" clip-path="url(#a)"/>
<path d="m498.05 49.697-251.14 400.61" clip-path="url(#a)"/>
<path d="m498.05 49.697-96.908 599.99" clip-path="url(#a)"/>
<path d="m498.05 49.697-130.76 599.99" clip-path="url(#a)"/>
<path d="m498.05 49.697-217.29 798.33" clip-path="url(#a)"/>
<path d="m498.05 49.697-92.197 400.61" clip-path="url(#a)"/>
<path d="m498.05 49.697 275.07 400.61" clip-path="url(#a)"/>
<path d="m498.05 49.697 697.64 798.33" clip-path="url(#a)"/>
<path d="m498.05 49.697 770.6 200.56" clip-path="url(#a)"/>
<path d="m498.05 49.697-334.54 798.33" clip-path="url(#a)"/>
<path d="m498.05 49.697-292.67 798.33" clip-path="url(#a)"/>
<path d="m498.05 49.697 75.82 798.33" clip-path="url(#a)"/>
<path d="m94.424 848.02v195.61" clip-path="url(#a)"/>
<path d="m246.91 450.31 373.02 397.71" clip-path="url(#a)" stroke-dasharray="3.7,1.6"/>
<path d="m246.91 450.31-146.21 397.71" clip-path="url(#a)"/>
<path d="m246.91 450.31-126.67 199.38" clip-path="url(#a)"/>
<path d="m246.91 450.31-100.15 397.71" clip-path="url(#a)"/>
<path d="m401.15 649.69 218.79 198.34" clip-path="url(#a)" stroke-dasharray="3.7,1.6"/>
<path d="m401.15 649.69-216.69 198.34" clip-path="url(#a)"/>
<path d="m401.15 649.69-218.79 198.34" clip-path="url(#a)"/>
<path d="m367.3 649.69 252.64 198.34" clip-path="url(#a)" stroke-dasharray="3.7,1.6"/>
<path d="m367.3 649.69-138.88 198.34" clip-path="url(#a)"/>
<path d="m367.3 649.69-113.76 198.34" clip-path="url(#a)"/>
<path d="m280.76 848.02v195.61" clip-path="url(#a)"/>
<path d="m405.86 450.31-95.785 397.71" clip-path="url(#a)"/>
<path d="m405.86 450.31-64.38 397.71" clip-path="url(#a)"/>
<path d="m405.86 450.31-30.882 397.71" clip-path="url(#a)"/>
<path d="m405.86 450.31 4.7107 397.71" clip-path="url(#a)"/>
<path d="m405.86 450.31 62.287 199.38" clip-path="url(#a)"/>
<path d="m405.86 450.31 124.05 397.71" clip-path="url(#a)"/>
<path d="m773.12 450.31-153.19 397.71" clip-path="url(#a)"/>
<path d="m773.12 450.31-105.03 397.71" clip-path="url(#a)"/>
<path d="m773.12 450.31-54.784 397.71" clip-path="url(#a)"/>
<path d="m773.12 450.31 52.691 199.38" clip-path="url(#a)"/>
<path d="m773.12 450.31 260.31 199.38" clip-path="url(#a)"/>
<path d="m1195.7 848.02v195.61" clip-path="url(#a)"/>
<path d="m1268.7 250.26 714.25 200.05" clip-path="url(#a)"/>
<path d="m1268.7 250.26-3.8733 597.77" clip-path="url(#a)"/>
<path d="m1268.7 250.26 67.311 597.77" clip-path="url(#a)"/>
<path d="m1268.7 250.26 140.59 597.77" clip-path="url(#a)"/>
<path d="m1268.7 250.26 444.69 200.05" clip-path="url(#a)"/>
<path d="m1268.7 250.26-648.72 597.77" clip-path="url(#a)" stroke-dasharray="3.7,1.6"/>
<path d="m1264.8 848.02v195.61" clip-path="url(#a)"/>
<path d="m1336 848.02v195.61" clip-path="url(#a)"/>
<path d="m1409.2 848.02v195.61" clip-path="url(#a)"/>
<path d="m1713.3 450.31 93.691 397.71" clip-path="url(#a)"/>
<path d="m1713.3 450.31-110.44 199.38" clip-path="url(#a)"/>
<path d="m1713.3 450.31 16.749 199.38" clip-path="url(#a)"/>
<path d="m1807 848.02v195.61" clip-path="url(#a)"/>
<path d="m1602.9 649.69-118.29 198.34" clip-path="url(#a)"/>
<path d="m1602.9 649.69-40.826 198.34" clip-path="url(#a)"/>
<path d="m1602.9 649.69 38.733 198.34" clip-path="url(#a)"/>
<path d="m1602.9 649.69 120.39 198.34" clip-path="url(#a)"/>
<path d="m1730.1 649.69 162.78 198.34" clip-path="url(#a)"/>
<path d="m1730.1 649.69-245.48 198.34" clip-path="url(#a)" stroke-dasharray="3.7,1.6"/>
<path d="m1730.1 649.69-168.02 198.34" clip-path="url(#a)" stroke-dasharray="3.7,1.6"/>
<path d="m1730.1 649.69 250.72 198.34" clip-path="url(#a)"/>
<path d="m1892.9 848.02v195.61" clip-path="url(#a)"/>
<path d="m1484.6 848.02v195.61" clip-path="url(#a)"/>
<path d="m1562.1 848.02v195.61" clip-path="url(#a)"/>
<path d="m1641.6 848.02v195.61" clip-path="url(#a)"/>
<path d="m1723.3 848.02v195.61" clip-path="url(#a)"/>
<path d="m619.93 848.02v195.61" clip-path="url(#a)"/>
<path d="m668.09 848.02v195.61" clip-path="url(#a)"/>
<path d="m718.34 848.02v195.61" clip-path="url(#a)"/>
<path d="m825.81 649.69-55.133 198.34" clip-path="url(#a)"/>
<path d="m825.81 649.69-0.69789 198.34" clip-path="url(#a)"/>
<path d="m825.81 649.69 55.831 198.34" clip-path="url(#a)"/>
<path d="m1033.4 649.69-93.168 198.34" clip-path="url(#a)"/>
<path d="m1033.4 649.69-32.452 198.34" clip-path="url(#a)"/>
<path d="m1033.4 649.69 95.262 198.34" clip-path="url(#a)"/>
<path d="m1033.4 649.69 30.358 198.34" clip-path="url(#a)"/>
<path d="m940.26 848.02v195.61" clip-path="url(#a)"/>
<path d="m1001 848.02v195.61" clip-path="url(#a)"/>
<path d="m1128.7 848.02v195.61" clip-path="url(#a)"/>
<path d="m770.68 848.02v195.61" clip-path="url(#a)"/>
<path d="m825.11 848.02v195.61" clip-path="url(#a)"/>
<path d="m881.64 848.02v195.61" clip-path="url(#a)"/>
<path d="m310.07 848.02v195.61" clip-path="url(#a)"/>
<path d="m341.48 848.02v195.61" clip-path="url(#a)"/>
<path d="m374.98 848.02v195.61" clip-path="url(#a)"/>
<path d="m410.57 848.02v195.61" clip-path="url(#a)"/>
<path d="m468.14 649.69-19.89 198.34" clip-path="url(#a)"/>
<path d="m468.14 649.69 19.89 198.34" clip-path="url(#a)"/>
<path d="m529.91 848.02v195.61" clip-path="url(#a)"/>
<path d="m448.25 848.02v195.61" clip-path="url(#a)"/>
<path d="m488.03 848.02v195.61" clip-path="url(#a)"/>
<path d="m228.42 848.02v195.61" clip-path="url(#a)"/>
<path d="m253.54 848.02v195.61" clip-path="url(#a)"/>
<path d="m182.36 848.02v195.61" clip-path="url(#a)"/>
<path d="m100.71 848.02v195.61" clip-path="url(#a)"/>
<path d="m120.25 649.69-11.166 198.34" clip-path="url(#a)"/>
<path d="m120.25 649.69-0.69789 198.34" clip-path="url(#a)"/>
<path d="m120.25 649.69 11.864 198.34" clip-path="url(#a)"/>
<path d="m146.77 848.02v195.61" clip-path="url(#a)"/>
<path d="m109.08 848.02v195.61" clip-path="url(#a)"/>
<path d="m119.55 848.02v195.61" clip-path="url(#a)"/>
<path d="m132.11 848.02v195.61" clip-path="url(#a)"/>
<path d="m163.52 848.02v195.61" clip-path="url(#a)"/>
<path d="m205.39 848.02v195.61" clip-path="url(#a)"/>
<path d="m573.87 848.02v195.61" clip-path="url(#a)"/>
<path d="m1063.8 848.02v195.61" clip-path="url(#a)"/>
<path d="m1980.8 848.02v195.61" clip-path="url(#a)"/>
</g>
<path d="m300.83 453.68 2.0112-3.978q1.0829-2.1418-1.0589-3.2247l-6.9096-3.4934q-2.1418-1.0829-3.2247 1.0589l-2.0112 3.978q-1.0829 2.1418 1.0589 3.2247l6.9096 3.4934q2.1418 1.0829 3.2247-1.0589z" clip-path="url(#a)" fill="#fff" stroke="#fff"/>
<g clip-path="url(#a)">
<defs>
<path id="ac" d="m9.8125 72.906h9.8594v-64.609h35.5v-8.2969h-45.359z"/>
</defs>
<g transform="translate(297.2 451.84) rotate(-63.179) scale(.08 -.08)">
<use xlink:href="#ac"/>
</g>
</g>
<path d="m376.2 255.88 3.1955-5.0974q1.2748-2.0335-0.75871-3.3082l-6.5601-4.1124q-2.0335-1.2748-3.3082 0.75871l-3.1955 5.0974q-1.2748 2.0335 0.75871 3.3082l6.5601 4.1124q2.0335 1.2748 3.3082-0.75871z" clip-path="url(#a)" fill="#fff" stroke="#fff"/>
<g clip-path="url(#a)">
<defs>
<path id="w" d="m9.8125 72.906h9.8594v-29.891h35.844v29.891h9.8594v-72.906h-9.8594v34.719h-35.844v-34.719h-9.8594z"/>
</defs>
<g transform="translate(372.76 253.73) rotate(-57.917) scale(.08 -.08)">
<use xlink:href="#w"/>
</g>
</g>
<path d="m455.31 353.66 0.95928-5.9393q0.38268-2.3693-1.9866-2.752l-7.6434-1.2345q-2.3693-0.38268-2.752 1.9866l-0.95928 5.9393q-0.38268 2.3693 1.9866 2.752l7.6434 1.2345q2.3693 0.38268 2.752-1.9866z" clip-path="url(#a)" fill="#fff" stroke="#fff"/>
<g clip-path="url(#a)">
<g transform="translate(451.3 353.01) rotate(-80.825) scale(.08 -.08)">
<use xlink:href="#w"/>
</g>
</g>
<path d="m438.16 353.97 1.281-5.8783q0.51103-2.345-1.8339-2.856l-7.5649-1.6486q-2.345-0.51104-2.856 1.8339l-1.281 5.8783q-0.51104 2.345 1.8339 2.856l7.5649 1.6486q2.345 0.51103 2.856-1.8339z" clip-path="url(#a)" fill="#fff" stroke="#fff"/>
<g clip-path="url(#a)">
<g transform="translate(434.19 353.1) rotate(-77.706) scale(.08 -.08)">
<use xlink:href="#w"/>
</g>
</g>
<path d="m394.87 452.66 1.1707-4.301q0.63032-2.3158-1.6854-2.9461l-7.4707-2.0334q-2.3158-0.63032-2.9461 1.6854l-1.1707 4.301q-0.63032 2.3158 1.6854 2.9461l7.4707 2.0334q2.3158 0.63032 2.9461-1.6854z" clip-path="url(#a)" fill="#fff" stroke="#fff"/>
<g clip-path="url(#a)">
<g transform="translate(390.95 451.59) rotate(-74.774) scale(.08 -.08)">
<use xlink:href="#ac"/>
</g>
</g>
<path d="m457.39 254.34 1.3493-5.863q0.53826-2.3389-1.8006-2.8771l-7.5453-1.7365q-2.3389-0.53826-2.8771 1.8006l-1.3493 5.863q-0.53826 2.3389 1.8006 2.8771l7.5453 1.7365q2.3389 0.53826 2.8771-1.8006z" clip-path="url(#a)" fill="#fff" stroke="#fff"/>
<g clip-path="url(#a)">
<g transform="translate(453.43 253.43) rotate(-77.04) scale(.08 -.08)">
<use xlink:href="#w"/>
</g>
</g>
<path d="m628.71 251.07 3.4054 4.9597q1.3585 1.9785 3.337 0.62004l6.3828-4.3825q1.9785-1.3585 0.62004-3.337l-3.4054-4.9597q-1.3585-1.9785-3.337-0.62004l-6.3828 4.3825q-1.9785 1.3585-0.62004 3.337z" clip-path="url(#a)" fill="#fff" stroke="#fff"/>
<g clip-path="url(#a)">
<g transform="translate(632.06 248.77) rotate(55.526) scale(.08 -.08)">
<use xlink:href="#w"/>
</g>
</g>
<path d="m840.68 451.31 2.9331 3.3565q1.5793 1.8072 3.3865 0.22793l5.8301-5.0948q1.8072-1.5793 0.22793-3.3865l-2.9331-3.3565q-1.5793-1.8072-3.3865-0.22793l-5.8301 5.0948q-1.8072 1.5793-0.22793 3.3865z" clip-path="url(#a)" fill="#fff" stroke="#fff"/>
<g clip-path="url(#a)">
<g transform="translate(843.74 448.63) rotate(48.851) scale(.08 -.08)">
<use xlink:href="#ac"/>
</g>
</g>
<path d="m878.86 155.29 5.8223 1.5153q2.3226 0.6045 2.9271-1.7181l1.9501-7.4929q0.6045-2.3226-1.7181-2.9271l-5.8223-1.5153q-2.3226-0.6045-2.9271 1.7181l-1.9501 7.4929q-0.6045 2.3226 1.7181 2.9271z" clip-path="url(#a)" fill="#fff" stroke="#fff"/>
<g clip-path="url(#a)">
<g transform="translate(879.89 151.36) rotate(14.588) scale(.08 -.08)">
<use xlink:href="#w"/>
</g>
</g>
<path d="m335.44 453.98 2.2629-5.4q0.92757-2.2135-1.2859-3.1411l-7.1409-2.9924q-2.2135-0.92757-3.1411 1.2859l-2.2629 5.4q-0.92757 2.2135 1.2859 3.1411l7.1409 2.9924q2.2135 0.92757 3.1411-1.2859z" clip-path="url(#a)" fill="#fff" stroke="#fff"/>
<g clip-path="url(#a)">
<defs>
<path id="ai" d="m8.6875 72.906h9.9219v-44.297q0-11.719 4.2344-16.875 4.25-5.1406 13.781-5.1406 9.4688 0 13.719 5.1406 4.25 5.1562 4.25 16.875v44.297h9.9062v-45.516q0-14.25-7.0625-21.531-7.0469-7.2812-20.812-7.2812-13.828 0-20.891 7.2812-7.0469 7.2812-7.0469 21.531z"/>
</defs>
<g transform="translate(331.69 452.41) rotate(-67.264) scale(.08 -.08)">
<use xlink:href="#ai"/>
</g>
</g>
<path d="m356.6 453.77 2.0153-5.4972q0.82608-2.2534-1.4273-3.0794l-7.2694-2.665q-2.2534-0.82608-3.0794 1.4273l-2.0153 5.4972q-0.82608 2.2534 1.4273 3.0794l7.2694 2.665q2.2534 0.82608 3.0794-1.4273z" clip-path="url(#a)" fill="#fff" stroke="#fff"/>
<g clip-path="url(#a)">
<g transform="translate(352.79 452.37) rotate(-69.867) scale(.08 -.08)">
<use xlink:href="#ai"/>
</g>
</g>
<path d="m529.44 446.54 0.55358 5.8288q0.22692 2.3892 2.6162 2.1623l7.7078-0.73204q2.3892-0.22692 2.1623-2.6162l-0.55358-5.8288q-0.22692-2.3892-2.6162-2.1623l-7.7078 0.73204q-2.3892 0.22692-2.1623 2.6162z" clip-path="url(#a)" fill="#fff" stroke="#fff"/>
<g clip-path="url(#a)">
<g transform="translate(533.49 446.15) rotate(84.575) scale(.08 -.08)">
<use xlink:href="#ai"/>
</g>
</g>
<path d="m88.153 928.93v33.808q0 2.4 2.4 2.4h7.7425q2.4 0 2.4-2.4v-33.808q0-2.4-2.4-2.4h-7.7425q-2.4 0-2.4 2.4z" clip-path="url(#a)" fill="#fff" stroke="#fff"/>
<g clip-path="url(#a)">
<defs>
<path id="k" d="m-0.29688 72.906h61.672v-8.3125h-25.875v-64.594h-9.9062v64.594h-25.891z"/>
<path id="d" d="m56.203 29.594v-4.3906h-41.312q0.59375-9.2812 5.5938-14.141t13.938-4.8594q5.1719 0 10.031 1.2656t9.6562 3.8125v-8.5q-4.8438-2.0469-9.9219-3.125t-10.297-1.0781q-13.094 0-20.734 7.6094-7.6406 7.625-7.6406 20.625 0 13.422 7.25 21.297 7.25 7.8906 19.562 7.8906 11.031 0 17.453-7.1094 6.4219-7.0938 6.4219-19.297zm-8.9844 2.6406q-0.09375 7.3594-4.125 11.75-4.0312 4.4062-10.672 4.4062-7.5156 0-12.031-4.25t-5.2031-11.969z"/>
<path id="f" d="m41.109 46.297q-1.5156 0.875-3.2969 1.2812-1.7812 0.42188-3.9219 0.42188-7.625 0-11.703-4.9531t-4.0781-14.234v-28.812h-9.0312v54.688h9.0312v-8.5q2.8438 4.9844 7.375 7.3906 4.5469 2.4219 11.047 2.4219 0.92188 0 2.0469-0.125 1.125-0.10938 2.4844-0.35938z"/>
<path id="l" d="m52 44.188q3.375 6.0625 8.0625 8.9375t11.031 2.875q8.5469 0 13.188-5.9844 4.6406-5.9688 4.6406-17v-33.016h-9.0312v32.719q0 7.8594-2.7969 11.656-2.7812 3.8125-8.4844 3.8125-6.9844 0-11.047-4.6406-4.0469-4.625-4.0469-12.641v-30.906h-9.0312v32.719q0 7.9062-2.7812 11.688t-8.5938 3.7812q-6.8906 0-10.953-4.6562-4.0469-4.6562-4.0469-12.625v-30.906h-9.0312v54.688h9.0312v-8.5q3.0781 5.0312 7.375 7.4219t10.203 2.3906q5.9688 0 10.141-3.0312 4.1719-3.0156 6.1719-8.7812z"/>
<path id="h" d="m9.4219 54.688h8.9844v-54.688h-8.9844zm0 21.297h8.9844v-11.391h-8.9844z"/>
<path id="j" d="m54.891 33.016v-33.016h-8.9844v32.719q0 7.7656-3.0312 11.609-3.0312 3.8594-9.0781 3.8594-7.2812 0-11.484-4.6406-4.2031-4.625-4.2031-12.641v-30.906h-9.0312v54.688h9.0312v-8.5q3.2344 4.9375 7.5938 7.375 4.375 2.4375 10.094 2.4375 9.4219 0 14.25-5.8281 4.8438-5.8281 4.8438-17.156z"/>
<path id="e" d="m34.281 27.484q-10.891 0-15.094-2.4844t-4.2031-8.5q0-4.7812 3.1562-7.5938 3.1562-2.7969 8.5625-2.7969 7.4844 0 12 5.2969t4.5156 14.078v2zm17.922 3.7188v-31.203h-8.9844v8.2969q-3.0781-4.9688-7.6719-7.3438t-11.234-2.375q-8.3906 0-13.359 4.7188-4.9531 4.7188-4.9531 12.625 0 9.2188 6.1719 13.906 6.1875 4.6875 18.438 4.6875h12.609v0.89062q0 6.2031-4.0781 9.5938t-11.453 3.3906q-4.6875 0-9.1406-1.125-4.4375-1.125-8.5312-3.375v8.3125q4.9219 1.9062 9.5625 2.8438 4.6406 0.95312 9.0312 0.95312 11.875 0 17.734-6.1562 5.8594-6.1406 5.8594-18.641z"/>
<path id="i" d="m9.4219 75.984h8.9844v-75.984h-8.9844z"/>
</defs>
<g transform="translate(92.217 928.93) rotate(90) scale(.08 -.08)">
<use xlink:href="#k"/>
<use x="44.083984" xlink:href="#d"/>
<use x="105.607422" xlink:href="#f"/>
<use x="144.970703" xlink:href="#l"/>
<use x="242.382812" xlink:href="#h"/>
<use x="270.166016" xlink:href="#j"/>
<use x="333.544922" xlink:href="#e"/>
<use x="394.824219" xlink:href="#i"/>
</g>
</g>
<path d="m426.98 651.46 3.7438 3.9916q1.6418 1.7505 3.3924 0.10867l5.6473-5.2967q1.7505-1.6418 0.10867-3.3924l-3.7438-3.9916q-1.6418-1.7505-3.3924-0.10867l-5.6473 5.2967q-1.7505 1.6418-0.10867 3.3924z" clip-path="url(#a)" fill="#fff" stroke="#fff"/>
<g clip-path="url(#a)">
<defs>
<path id="o" d="m34.188 63.188-13.391-36.281h26.812zm-5.5781 9.7188h11.188l27.781-72.906h-10.25l-6.6406 18.703h-32.859l-6.6406-18.703h-10.406z"/>
</defs>
<g transform="translate(429.94 648.68) rotate(46.835) scale(.08 -.08)">
<use xlink:href="#o"/>
</g>
</g>
<path d="m178.63 654.22 2.1255-5.7817q0.82811-2.2526-1.4245-3.0807l-7.267-2.6715q-2.2526-0.82811-3.0807 1.4245l-2.1255 5.7817q-0.82811 2.2526 1.4245 3.0807l7.267 2.6715q2.2526 0.82811 3.0807-1.4245z" clip-path="url(#a)" fill="#fff" stroke="#fff"/>
<g clip-path="url(#a)">
<defs>
<path id="aj" d="m19.672 64.797v-56.688h11.922q15.094 0 22.094 6.8281 7 6.8438 7 21.594 0 14.641-7 21.453t-22.094 6.8125zm-9.8594 8.1094h20.266q21.188 0 31.094-8.8125 9.9219-8.8125 9.9219-27.562 0-18.859-9.9688-27.703-9.9531-8.8281-31.047-8.8281h-20.266z"/>
</defs>
<g transform="translate(174.82 652.82) rotate(-69.815) scale(.08 -.08)">
<use xlink:href="#aj"/>
</g>
</g>
<path d="m187.41 555.67 2.9346-4.6191q1.287-2.0257-0.73876-3.3127l-6.5351-4.1519q-2.0257-1.287-3.3127 0.73876l-2.9346 4.6191q-1.287 2.0257 0.73876 3.3127l6.5351 4.1519q2.0257 1.287 3.3127-0.73876z" clip-path="url(#a)" fill="#fff" stroke="#fff"/>
<g clip-path="url(#a)">
<g transform="translate(183.98 553.49) rotate(-57.572) scale(.08 -.08)">
<use xlink:href="#o"/>
</g>
</g>
<path d="m202.33 653.04 1.1779-4.6777q0.58605-2.3273-1.7413-2.9134l-7.5081-1.8906q-2.3273-0.58605-2.9134 1.7413l-1.1779 4.6777q-0.58605 2.3273 1.7413 2.9134l7.5081 1.8906q2.3273 0.58605 2.9134-1.7413z" clip-path="url(#a)" fill="#fff" stroke="#fff"/>
<g clip-path="url(#a)">
<defs>
<path id="aa" d="m19.672 64.797v-27.391h12.406q6.8906 0 10.641 3.5625 3.7656 3.5625 3.7656 10.156 0 6.5469-3.7656 10.109-3.75 3.5625-10.641 3.5625zm-9.8594 8.1094h22.266q12.266 0 18.531-5.5469 6.2812-5.5469 6.2812-16.234 0-10.797-6.2812-16.312-6.2656-5.5156-18.531-5.5156h-12.406v-29.297h-9.8594z"/>
</defs>
<g transform="translate(198.39 652.04) rotate(-75.866) scale(.08 -.08)">
<use xlink:href="#aa"/>
</g>
</g>
<path d="m504.3 751.66 4.0545 3.6755q1.7781 1.6119 3.39-0.16622l5.2001-5.7363q1.6119-1.7781-0.16622-3.39l-4.0545-3.6755q-1.7781-1.6119-3.39 0.16622l-5.2001 5.7363q-1.6119 1.7781 0.16622 3.39z" clip-path="url(#a)" fill="#fff" stroke="#fff"/>
<g clip-path="url(#a)">
<g transform="translate(507.03 748.65) rotate(42.193) scale(.08 -.08)">
<use xlink:href="#o"/>
</g>
</g>
<path d="m295.25 755.11 3.5583-3.2568q1.7704-1.6204 0.14999-3.3908l-5.2275-5.7114q-1.6204-1.7704-3.3908-0.14999l-3.5583 3.2568q-1.7704 1.6204-0.14999 3.3908l5.2275 5.7114q1.6204 1.7704 3.3908 0.14999z" clip-path="url(#a)" fill="#fff" stroke="#fff"/>
<g clip-path="url(#a)">
<g transform="translate(292.51 752.11) rotate(-42.467) scale(.08 -.08)">
<use xlink:href="#aa"/>
</g>
</g>
<path d="m293.94 755.34 4.0545-3.6755q1.7781-1.6119 0.16622-3.39l-5.2001-5.7363q-1.6119-1.7781-3.39-0.16622l-4.0545 3.6755q-1.7781 1.6119-0.16622 3.39l5.2001 5.7363q1.6119 1.7781 3.39 0.16622z" clip-path="url(#a)" fill="#fff" stroke="#fff"/>
<g clip-path="url(#a)">
<g transform="translate(291.21 752.33) rotate(-42.193) scale(.08 -.08)">
<use xlink:href="#o"/>
</g>
</g>
<path d="m487.59 752.1 4.3045 3.3793q1.8878 1.482 3.3698-0.40574l4.781-6.09q1.482-1.8878-0.40574-3.3698l-4.3045-3.3793q-1.8878-1.482-3.3698 0.40574l-4.781 6.09q-1.482 1.8878 0.40574 3.3698z" clip-path="url(#a)" fill="#fff" stroke="#fff"/>
<g clip-path="url(#a)">
<g transform="translate(490.1 748.9) rotate(38.134) scale(.08 -.08)">
<use xlink:href="#o"/>
</g>
</g>
<path d="m301.43 754.69 3.139-4.4828q1.3766-1.9659-0.58934-3.3426l-6.3422-4.441q-1.9659-1.3766-3.3426 0.58934l-3.139 4.4828q-1.3766 1.9659 0.58934 3.3426l6.3422 4.441q1.9659 1.3766 3.3426-0.58934z" clip-path="url(#a)" fill="#fff" stroke="#fff"/>
<g clip-path="url(#a)">
<g transform="translate(298.1 752.36) rotate(-54.999) scale(.08 -.08)">
<use xlink:href="#o"/>
</g>
</g>
<path d="m314.66 754.07 2.3999-4.1844q1.1941-2.0819-0.88781-3.2759l-6.7162-3.8521q-2.0819-1.1941-3.2759 0.88781l-2.3999 4.1844q-1.1941 2.0819 0.88781 3.2759l6.7162 3.8521q2.0819 1.1941 3.2759-0.88781z" clip-path="url(#a)" fill="#fff" stroke="#fff"/>
<g clip-path="url(#a)">
<g transform="translate(311.14 752.05) rotate(-60.163) scale(.08 -.08)">
<use xlink:href="#aa"/>
</g>
</g>
<path d="m274.49 928.93v33.808q0 2.4 2.4 2.4h7.7425q2.4 0 2.4-2.4v-33.808q0-2.4-2.4-2.4h-7.7425q-2.4 0-2.4 2.4z" clip-path="url(#a)" fill="#fff" stroke="#fff"/>
<g clip-path="url(#a)">
<g transform="translate(278.55 928.93) rotate(90) scale(.08 -.08)">
<use xlink:href="#k"/>
<use x="44.083984" xlink:href="#d"/>
<use x="105.607422" xlink:href="#f"/>
<use x="144.970703" xlink:href="#l"/>
<use x="242.382812" xlink:href="#h"/>
<use x="270.166016" xlink:href="#j"/>
<use x="333.544922" xlink:href="#e"/>
<use x="394.824219" xlink:href="#i"/>
</g>
</g>
<path d="m363.42 653.3 1.2814-5.3204q0.56195-2.3333-1.7713-2.8952l-7.5273-1.8129q-2.3333-0.56195-2.8952 1.7713l-1.2814 5.3204q-0.56195 2.3333 1.7713 2.8952l7.5273 1.8129q2.3333 0.56195 2.8952-1.7713z" clip-path="url(#a)" fill="#fff" stroke="#fff"/>
<g clip-path="url(#a)">
<g transform="translate(359.47 652.34) rotate(-76.459) scale(.08 -.08)">
<use xlink:href="#o"/>
</g>
</g>
<path d="m379.37 653.21 0.98435-6.0808q0.38351-2.3692-1.9856-2.7527l-7.643-1.2372q-2.3692-0.38351-2.7527 1.9856l-0.98435 6.0808q-0.38351 2.3692 1.9856 2.7527l7.643 1.2372q2.3692 0.38351 2.7527-1.9856z" clip-path="url(#a)" fill="#fff" stroke="#fff"/>
<g clip-path="url(#a)">
<g transform="translate(375.35 652.56) rotate(-80.805) scale(.08 -.08)">
<use xlink:href="#aj"/>
</g>
</g>
<path d="m396.49 651.95 0.35621-4.5874q0.1858-2.3928-2.207-2.5786l-7.7193-0.59939q-2.3928-0.1858-2.5786 2.207l-0.35621 4.5874q-0.1858 2.3928 2.207 2.5786l7.7193 0.59939q2.3928 0.1858 2.5786-2.207z" clip-path="url(#a)" fill="#fff" stroke="#fff"/>
<g clip-path="url(#a)">
<defs>
<path id="ao" d="m9.8125 72.906h41.891v-8.3125h-32.031v-21.484h28.906v-8.2969h-28.906v-34.812h-9.8594z"/>
</defs>
<g transform="translate(392.44 651.63) rotate(-85.56) scale(.08 -.08)">
<use xlink:href="#ao"/>
</g>
</g>
<path d="m401.91 646.83 0.057132 4.8234q0.028425 2.3998 2.4283 2.3714l7.742-0.091701q2.3998-0.028425 2.3714-2.4283l-0.057131-4.8234q-0.028426-2.3998-2.4283-2.3714l-7.742 0.091701q-2.3998 0.028425-2.3714 2.4283z" clip-path="url(#a)" fill="#fff" stroke="#fff"/>
<g clip-path="url(#a)">
<g transform="translate(405.98 646.78) rotate(89.321) scale(.08 -.08)">
<use xlink:href="#aa"/>
</g>
</g>
<path d="m430.2 549.26 1.6319 5.2235q0.71567 2.2908 3.0065 1.5751l7.3903-2.3088q2.2908-0.71567 1.5751-3.0065l-1.6319-5.2235q-0.71567-2.2908-3.0065-1.5751l-7.3903 2.3088q-2.2908 0.71567-1.5751 3.0065z" clip-path="url(#a)" fill="#fff" stroke="#fff"/>
<g clip-path="url(#a)">
<g transform="translate(434.08 548.05) rotate(72.651) scale(.08 -.08)">
<use xlink:href="#o"/>
</g>
</g>
<path d="m461.08 648.42 1.6295 5.2243q0.71463 2.2911 3.0058 1.5765l7.3913-2.3054q2.2911-0.71463 1.5765-3.0058l-1.6295-5.2243q-0.71463-2.2911-3.0058-1.5765l-7.3913 2.3054q-2.2911 0.71463-1.5765 3.0058z" clip-path="url(#a)" fill="#fff" stroke="#fff"/>
<g clip-path="url(#a)">
<g transform="translate(464.96 647.21) rotate(72.677) scale(.08 -.08)">
<use xlink:href="#o"/>
</g>
</g>
<path d="m701.4 653.97 1.967-5.1068q0.86263-2.2396-1.377-3.1022l-7.2251-2.7829q-2.2396-0.86263-3.1022 1.377l-1.967 5.1068q-0.86263 2.2396 1.377 3.1022l7.2251 2.7829q2.2396 0.86263 3.1022-1.377z" clip-path="url(#a)" fill="#fff" stroke="#fff"/>
<g clip-path="url(#a)">
<g transform="translate(697.6 652.51) rotate(-68.935) scale(.08 -.08)">
<use xlink:href="#o"/>
</g>
</g>
<path d="m726.08 652.99 1.1749-4.4487q0.61281-2.3204-1.7076-2.9333l-7.4859-1.977q-2.3204-0.61281-2.9333 1.7076l-1.1749 4.4487q-0.61281 2.3204 1.7076 2.9333l7.4859 1.977q2.3204 0.61281 2.9333-1.7076z" clip-path="url(#a)" fill="#fff" stroke="#fff"/>
<g clip-path="url(#a)">
<g transform="translate(722.15 651.95) rotate(-75.206) scale(.08 -.08)">
<use xlink:href="#ao"/>
</g>
</g>
<path d="m751.52 653.07 0.8406-6.1024q0.3275-2.3775-2.05-2.7051l-7.6701-1.0565q-2.3776-0.3275-2.7051 2.05l-0.8406 6.1024q-0.3275 2.3775 2.05 2.7051l7.6701 1.0565q2.3776 0.3275 2.7051-2.05z" clip-path="url(#a)" fill="#fff" stroke="#fff"/>
<g clip-path="url(#a)">
<g transform="translate(747.49 652.52) rotate(-82.157) scale(.08 -.08)">
<use xlink:href="#aj"/>
</g>
</g>
<path d="m792.78 549.24 1.2485 4.7241q0.61321 2.3203 2.9336 1.7071l7.4855-1.9783q2.3203-0.61321 1.7071-2.9336l-1.2485-4.7241q-0.61321-2.3203-2.9336-1.7071l-7.4855 1.9783q-2.3203 0.61321-1.7071 2.9336z" clip-path="url(#a)" fill="#fff" stroke="#fff"/>
<g clip-path="url(#a)">
<g transform="translate(796.71 548.2) rotate(75.196) scale(.08 -.08)">
<use xlink:href="#k"/>
</g>
</g>
<path d="m897.45 553.43 4.032 3.0881q1.9054 1.4593 3.3647-0.44602l4.7078-6.1467q1.4593-1.9054-0.44602-3.3647l-4.032-3.0881q-1.9054-1.4593-3.3647 0.44602l-4.7078 6.1467q-1.4593 1.9054 0.44602 3.3647z" clip-path="url(#a)" fill="#fff" stroke="#fff"/>
<g clip-path="url(#a)">
<defs>
<path id="an" d="m53.516 70.516v-9.625q-5.6094 2.6875-10.594 4-4.9844 1.3281-9.625 1.3281-8.0469 0-12.422-3.125t-4.375-8.8906q0-4.8438 2.9062-7.3125 2.9062-2.4531 11.016-3.9688l5.9531-1.2188q11.031-2.1094 16.281-7.4062t5.25-14.172q0-10.609-7.1094-16.078-7.0938-5.4688-20.812-5.4688-5.1719 0-11.016 1.1719-5.8281 1.1719-12.078 3.4688v10.156q6-3.3594 11.766-5.0781 5.7656-1.7031 11.328-1.7031 8.4375 0 13.031 3.3125 4.5938 3.3281 4.5938 9.4844 0 5.3594-3.2969 8.3906t-10.812 4.5469l-6.0156 1.1719q-11.031 2.1875-15.969 6.875-4.9219 4.6875-4.9219 13.047 0 9.6719 6.8125 15.234t18.766 5.5625q5.1406 0 10.453-0.9375 5.3281-0.92188 10.891-2.7656z"/>
</defs>
<g transform="translate(899.92 550.21) rotate(37.449) scale(.08 -.08)">
<use xlink:href="#an"/>
</g>
</g>
<path d="m1189.4 928.93v33.808q0 2.4 2.4 2.4h7.7425q2.4 0 2.4-2.4v-33.808q0-2.4-2.4-2.4h-7.7425q-2.4 0-2.4 2.4z" clip-path="url(#a)" fill="#fff" stroke="#fff"/>
<g clip-path="url(#a)">
<g transform="translate(1193.5 928.93) rotate(90) scale(.08 -.08)">
<use xlink:href="#k"/>
<use x="44.083984" xlink:href="#d"/>
<use x="105.607422" xlink:href="#f"/>
<use x="144.970703" xlink:href="#l"/>
<use x="242.382812" xlink:href="#h"/>
<use x="270.166016" xlink:href="#j"/>
<use x="333.544922" xlink:href="#e"/>
<use x="394.824219" xlink:href="#i"/>
</g>
</g>
<path d="m1621.5 355.59 5.2697 1.476q2.3111 0.6473 2.9584-1.6638l2.0882-7.4556q0.6473-2.3111-1.6638-2.9584l-5.2697-1.476q-2.3111-0.6473-2.9584 1.6638l-2.0882 7.4556q-0.6473 2.3111 1.6638 2.9584z" clip-path="url(#a)" fill="#fff" stroke="#fff"/>
<g clip-path="url(#a)">
<g transform="translate(1622.6 351.67) rotate(15.647) scale(.08 -.08)">
<use xlink:href="#o"/>
</g>
</g>
<path d="m1273 552.26 0.039913-6.1599q0.015551-2.4-2.3844-2.4155l-7.7423-0.050167q-2.4-0.01555-2.4155 2.3844l-0.039914 6.1599q-0.015551 2.3999 2.3844 2.4155l7.7423 0.050167q2.3999 0.015551 2.4155-2.3844z" clip-path="url(#a)" fill="#fff" stroke="#fff"/>
<g clip-path="url(#a)">
<g transform="translate(1268.9 552.23) rotate(-89.629) scale(.08 -.08)">
<use xlink:href="#aj"/>
</g>
</g>
<path d="m1295.8 547.41 0.54676 4.8556q0.26856 2.3849 2.6535 2.1164l7.6939-0.86637q2.3849-0.26856 2.1164-2.6535l-0.54676-4.8556q-0.26855-2.3849-2.6535-2.1164l-7.6939 0.86637q-2.3849 0.26856-2.1164 2.6535z" clip-path="url(#a)" fill="#fff" stroke="#fff"/>
<g clip-path="url(#a)">
<g transform="translate(1299.8 546.96) rotate(83.575) scale(.08 -.08)">
<use xlink:href="#k"/>
</g>
</g>
<path d="m1332.3 548.23 1.1044 4.6956q0.54947 2.3363 2.8857 1.7868l7.5369-1.7726q2.3363-0.54947 1.7868-2.8857l-1.1044-4.6956q-0.54947-2.3363-2.8857-1.7868l-7.5369 1.7726q-2.3363 0.54947-1.7868 2.8857z" clip-path="url(#a)" fill="#fff" stroke="#fff"/>
<g clip-path="url(#a)">
<g transform="translate(1336.2 547.3) rotate(76.765) scale(.08 -.08)">
<use xlink:href="#aa"/>
</g>
</g>
<path d="m1485.9 354.88 4.9907 2.2452q2.1887 0.98464 3.1734-1.2041l3.1765-7.0609q0.98464-2.1887-1.2041-3.1734l-4.9907-2.2452q-2.1887-0.98464-3.1734 1.2041l-3.1765 7.0609q-0.98464 2.1887 1.2041 3.1734z" clip-path="url(#a)" fill="#fff" stroke="#fff"/>
<g clip-path="url(#a)">
<g transform="translate(1487.6 351.17) rotate(24.222) scale(.08 -.08)">
<use xlink:href="#o"/>
</g>
</g>
<path d="m946.53 555.61 4.0245-3.7084q1.765-1.6263 0.13864-3.3913l-5.2466-5.6938q-1.6263-1.765-3.3913-0.13864l-4.0245 3.7084q-1.765 1.6263-0.13864 3.3913l5.2466 5.6938q1.6263 1.765 3.3913 0.13864z" clip-path="url(#a)" fill="#fff" stroke="#fff"/>
<g clip-path="url(#a)">
<g transform="translate(943.78 552.62) rotate(-42.659) scale(.08 -.08)">
<use xlink:href="#o"/>
</g>
</g>
<path d="m1258.5 928.93v33.808q0 2.4 2.4 2.4h7.7425q2.4 0 2.4-2.4v-33.808q0-2.4-2.4-2.4h-7.7425q-2.4 0-2.4 2.4z" clip-path="url(#a)" fill="#fff" stroke="#fff"/>
<g clip-path="url(#a)">
<g transform="translate(1262.6 928.93) rotate(90) scale(.08 -.08)">
<use xlink:href="#k"/>
<use x="44.083984" xlink:href="#d"/>
<use x="105.607422" xlink:href="#f"/>
<use x="144.970703" xlink:href="#l"/>
<use x="242.382812" xlink:href="#h"/>
<use x="270.166016" xlink:href="#j"/>
<use x="333.544922" xlink:href="#e"/>
<use x="394.824219" xlink:href="#i"/>
</g>
</g>
<path d="m1329.7 928.93v33.808q0 2.4 2.4 2.4h7.7425q2.4 0 2.4-2.4v-33.808q0-2.4-2.4-2.4h-7.7425q-2.4 0-2.4 2.4z" clip-path="url(#a)" fill="#fff" stroke="#fff"/>
<g clip-path="url(#a)">
<g transform="translate(1333.8 928.93) rotate(90) scale(.08 -.08)">
<use xlink:href="#k"/>
<use x="44.083984" xlink:href="#d"/>
<use x="105.607422" xlink:href="#f"/>
<use x="144.970703" xlink:href="#l"/>
<use x="242.382812" xlink:href="#h"/>
<use x="270.166016" xlink:href="#j"/>
<use x="333.544922" xlink:href="#e"/>
<use x="394.824219" xlink:href="#i"/>
</g>
</g>
<path d="m1403 928.93v33.808q0 2.4 2.4 2.4h7.7425q2.4 0 2.4-2.4v-33.808q0-2.4-2.4-2.4h-7.7425q-2.4 0-2.4 2.4z" clip-path="url(#a)" fill="#fff" stroke="#fff"/>
<g clip-path="url(#a)">
<g transform="translate(1407 928.93) rotate(90) scale(.08 -.08)">
<use xlink:href="#k"/>
<use x="44.083984" xlink:href="#d"/>
<use x="105.607422" xlink:href="#f"/>
<use x="144.970703" xlink:href="#l"/>
<use x="242.382812" xlink:href="#h"/>
<use x="270.166016" xlink:href="#j"/>
<use x="333.544922" xlink:href="#e"/>
<use x="394.824219" xlink:href="#i"/>
</g>
</g>
<path d="m1753.6 648.44 1.0221 4.3387q0.55032 2.3361 2.8864 1.7857l7.5362-1.7754q2.3361-0.55032 1.7857-2.8864l-1.0221-4.3387q-0.55032-2.3361-2.8864-1.7857l-7.5362 1.7754q-2.3361 0.55032-1.7857 2.8864z" clip-path="url(#a)" fill="#fff" stroke="#fff"/>
<g clip-path="url(#a)">
<g transform="translate(1757.5 647.5) rotate(76.744) scale(.08 -.08)">
<use xlink:href="#ac"/>
</g>
</g>
<path d="m1662.2 555.67 2.9152-5.2628q1.1629-2.0994-0.93648-3.2624l-6.7728-3.7517q-2.0994-1.1629-3.2624 0.93648l-2.9152 5.2628q-1.1629 2.0994 0.93648 3.2624l6.7728 3.7517q2.0994 1.1629 3.2624-0.93648z" clip-path="url(#a)" fill="#fff" stroke="#fff"/>
<g clip-path="url(#a)">
<g transform="translate(1658.6 553.7) rotate(-61.016) scale(.08 -.08)">
<use xlink:href="#w"/>
</g>
</g>
<path d="m1715.2 547.53 0.50364 5.9951q0.20091 2.3916 2.5925 2.1907l7.7153-0.64816q2.3916-0.20091 2.1907-2.5925l-0.50364-5.9951q-0.20091-2.3916-2.5925-2.1907l-7.7153 0.64816q-2.3916 0.20091-2.1907 2.5925z" clip-path="url(#a)" fill="#fff" stroke="#fff"/>
<g clip-path="url(#a)">
<g transform="translate(1719.3 547.19) rotate(85.198) scale(.08 -.08)">
<use xlink:href="#w"/>
</g>
</g>
<path d="m1800.8 928.93v33.808q0 2.4 2.4 2.4h7.7425q2.4 0 2.4-2.4v-33.808q0-2.4-2.4-2.4h-7.7425q-2.4 0-2.4 2.4z" clip-path="url(#a)" fill="#fff" stroke="#fff"/>
<g clip-path="url(#a)">
<g transform="translate(1804.8 928.93) rotate(90) scale(.08 -.08)">
<use xlink:href="#k"/>
<use x="44.083984" xlink:href="#d"/>
<use x="105.607422" xlink:href="#f"/>
<use x="144.970703" xlink:href="#l"/>
<use x="242.382812" xlink:href="#h"/>
<use x="270.166016" xlink:href="#j"/>
<use x="333.544922" xlink:href="#e"/>
<use x="394.824219" xlink:href="#i"/>
</g>
</g>
<path d="m1547.7 754.45 2.8474-4.7741q1.2294-2.0612-0.83186-3.2906l-6.6496-3.966q-2.0612-1.2294-3.2906 0.83186l-2.8474 4.7741q-1.2294 2.0612 0.83186 3.2906l6.6496 3.966q2.0612 1.2294 3.2906-0.83186z" clip-path="url(#a)" fill="#fff" stroke="#fff"/>
<g clip-path="url(#a)">
<defs>
<path id="am" d="m44.391 34.188q3.1719-1.0781 6.1719-4.5938t6.0312-9.6719l10.016-19.922h-10.609l-9.3125 18.703q-3.625 7.3281-7.0156 9.7188t-9.25 2.3906h-10.75v-30.812h-9.8594v72.906h22.266q12.5 0 18.656-5.2344 6.1562-5.2188 6.1562-15.766 0-6.8906-3.2031-11.438-3.2031-4.5312-9.2969-6.2812zm-24.719 30.609v-25.875h12.406q7.125 0 10.766 3.2969t3.6406 9.6875-3.6406 9.6406-10.766 3.25z"/>
</defs>
<g transform="translate(1544.2 752.37) rotate(-59.187) scale(.08 -.08)">
<use xlink:href="#am"/>
</g>
</g>
<path d="m1588.1 752.8 1.1034-5.3601q0.48388-2.3507-1.8668-2.8346l-7.5835-1.561q-2.3507-0.48388-2.8346 1.8668l-1.1034 5.3601q-0.48388 2.3507 1.8668 2.8346l7.5835 1.561q2.3507 0.48388 2.8346-1.8668z" clip-path="url(#a)" fill="#fff" stroke="#fff"/>
<g clip-path="url(#a)">
<g transform="translate(1584.1 751.98) rotate(-78.368) scale(.08 -.08)">
<use xlink:href="#o"/>
</g>
</g>
<path d="m1615.7 747.8 0.88192 4.5159q0.46 2.3555 2.8155 1.8955l7.599-1.484q2.3555-0.46 1.8955-2.8155l-0.88192-4.5159q-0.46-2.3555-2.8155-1.8955l-7.599 1.484q-2.3555 0.46-1.8955 2.8155z" clip-path="url(#a)" fill="#fff" stroke="#fff"/>
<g clip-path="url(#a)">
<g transform="translate(1619.7 747.02) rotate(78.95) scale(.08 -.08)">
<use xlink:href="#ao"/>
</g>
</g>
<path d="m1656.4 749.94 2.6352 4.3416q1.2453 2.0516 3.2969 0.80633l6.6187-4.0174q2.0516-1.2453 0.80633-3.2969l-2.6352-4.3416q-1.2453-2.0516-3.2969-0.80633l-6.6187 4.0174q-2.0516 1.2453-0.80633 3.2969z" clip-path="url(#a)" fill="#fff" stroke="#fff"/>
<g clip-path="url(#a)">
<g transform="translate(1659.9 747.83) rotate(58.743) scale(.08 -.08)">
<use xlink:href="#an"/>
</g>
</g>
<path d="m1805 750.87 3.2221 3.9258q1.5226 1.8552 3.3778 0.33255l5.9848-4.912q1.8552-1.5226 0.33255-3.3778l-3.2221-3.9258q-1.5226-1.8552-3.3778-0.33255l-5.9848 4.912q-1.8552 1.5226-0.33255 3.3778z" clip-path="url(#a)" fill="#fff" stroke="#fff"/>
<g clip-path="url(#a)">
<g transform="translate(1808.2 748.29) rotate(50.623) scale(.08 -.08)">
<use xlink:href="#an"/>
</g>
</g>
<path d="m1609.1 755.48 4.3239-3.4934q1.8668-1.5083 0.35854-3.3751l-4.8658-6.0225q-1.5083-1.8668-3.3751-0.35854l-4.3239 3.4934q-1.8668 1.5083-0.35854 3.3751l4.8658 6.0225q1.5083 1.8668 3.3751 0.35854z" clip-path="url(#a)" fill="#fff" stroke="#fff"/>
<g clip-path="url(#a)">
<g transform="translate(1606.6 752.32) rotate(-38.936) scale(.08 -.08)">
<use xlink:href="#am"/>
</g>
</g>
<path d="m1649.1 755 3.5373-4.1756q1.5513-1.8312-0.27994-3.3825l-5.9077-5.0046q-1.8312-1.5513-3.3825 0.27994l-3.5373 4.1756q-1.5513 1.8312 0.27994 3.3825l5.9077 5.0046q1.8312 1.5513 3.3825-0.27994z" clip-path="url(#a)" fill="#fff" stroke="#fff"/>
<g clip-path="url(#a)">
<g transform="translate(1646 752.37) rotate(-49.731) scale(.08 -.08)">
<use xlink:href="#o"/>
</g>
</g>
<path d="m1849.3 751.96 4.5919 3.6325q1.8823 1.489 3.3713-0.39325l4.8036-6.0722q1.489-1.8823-0.39325-3.3713l-4.5919-3.6325q-1.8823-1.489-3.3713 0.39325l-4.8036 6.0722q-1.489 1.8823 0.39325 3.3713z" clip-path="url(#a)" fill="#fff" stroke="#fff"/>
<g clip-path="url(#a)">
<g transform="translate(1851.8 748.77) rotate(38.347) scale(.08 -.08)">
<use xlink:href="#ai"/>
</g>
</g>
<path d="m1886.6 928.93v33.808q0 2.4 2.4 2.4h7.7425q2.4 0 2.4-2.4v-33.808q0-2.4-2.4-2.4h-7.7425q-2.4 0-2.4 2.4z" clip-path="url(#a)" fill="#fff" stroke="#fff"/>
<g clip-path="url(#a)">
<g transform="translate(1890.7 928.93) rotate(90) scale(.08 -.08)">
<use xlink:href="#k"/>
<use x="44.083984" xlink:href="#d"/>
<use x="105.607422" xlink:href="#f"/>
<use x="144.970703" xlink:href="#l"/>
<use x="242.382812" xlink:href="#h"/>
<use x="270.166016" xlink:href="#j"/>
<use x="333.544922" xlink:href="#e"/>
<use x="394.824219" xlink:href="#i"/>
</g>
</g>
<path d="m1478.3 928.93v33.808q0 2.4 2.4 2.4h7.7425q2.4 0 2.4-2.4v-33.808q0-2.4-2.4-2.4h-7.7425q-2.4 0-2.4 2.4z" clip-path="url(#a)" fill="#fff" stroke="#fff"/>
<g clip-path="url(#a)">
<g transform="translate(1482.4 928.93) rotate(90) scale(.08 -.08)">
<use xlink:href="#k"/>
<use x="44.083984" xlink:href="#d"/>
<use x="105.607422" xlink:href="#f"/>
<use x="144.970703" xlink:href="#l"/>
<use x="242.382812" xlink:href="#h"/>
<use x="270.166016" xlink:href="#j"/>
<use x="333.544922" xlink:href="#e"/>
<use x="394.824219" xlink:href="#i"/>
</g>
</g>
<path d="m1555.8 928.93v33.808q0 2.4 2.4 2.4h7.7425q2.4 0 2.4-2.4v-33.808q0-2.4-2.4-2.4h-7.7425q-2.4 0-2.4 2.4z" clip-path="url(#a)" fill="#fff" stroke="#fff"/>
<g clip-path="url(#a)">
<g transform="translate(1559.9 928.93) rotate(90) scale(.08 -.08)">
<use xlink:href="#k"/>
<use x="44.083984" xlink:href="#d"/>
<use x="105.607422" xlink:href="#f"/>
<use x="144.970703" xlink:href="#l"/>
<use x="242.382812" xlink:href="#h"/>
<use x="270.166016" xlink:href="#j"/>
<use x="333.544922" xlink:href="#e"/>
<use x="394.824219" xlink:href="#i"/>
</g>
</g>
<path d="m1635.4 928.93v33.808q0 2.4 2.4 2.4h7.7425q2.4 0 2.4-2.4v-33.808q0-2.4-2.4-2.4h-7.7425q-2.4 0-2.4 2.4z" clip-path="url(#a)" fill="#fff" stroke="#fff"/>
<g clip-path="url(#a)">
<g transform="translate(1639.4 928.93) rotate(90) scale(.08 -.08)">
<use xlink:href="#k"/>
<use x="44.083984" xlink:href="#d"/>
<use x="105.607422" xlink:href="#f"/>
<use x="144.970703" xlink:href="#l"/>
<use x="242.382812" xlink:href="#h"/>
<use x="270.166016" xlink:href="#j"/>
<use x="333.544922" xlink:href="#e"/>
<use x="394.824219" xlink:href="#i"/>
</g>
</g>
<path d="m1717 928.93v33.808q0 2.4 2.4 2.4h7.7425q2.4 0 2.4-2.4v-33.808q0-2.4-2.4-2.4h-7.7425q-2.4 0-2.4 2.4z" clip-path="url(#a)" fill="#fff" stroke="#fff"/>
<g clip-path="url(#a)">
<g transform="translate(1721.1 928.93) rotate(90) scale(.08 -.08)">
<use xlink:href="#k"/>
<use x="44.083984" xlink:href="#d"/>
<use x="105.607422" xlink:href="#f"/>
<use x="144.970703" xlink:href="#l"/>
<use x="242.382812" xlink:href="#h"/>
<use x="270.166016" xlink:href="#j"/>
<use x="333.544922" xlink:href="#e"/>
<use x="394.824219" xlink:href="#i"/>
</g>
</g>
<path d="m613.66 928.93v33.808q0 2.4 2.4 2.4h7.7425q2.4 0 2.4-2.4v-33.808q0-2.4-2.4-2.4h-7.7425q-2.4 0-2.4 2.4z" clip-path="url(#a)" fill="#fff" stroke="#fff"/>
<g clip-path="url(#a)">
<g transform="translate(617.73 928.93) rotate(90) scale(.08 -.08)">
<use xlink:href="#k"/>
<use x="44.083984" xlink:href="#d"/>
<use x="105.607422" xlink:href="#f"/>
<use x="144.970703" xlink:href="#l"/>
<use x="242.382812" xlink:href="#h"/>
<use x="270.166016" xlink:href="#j"/>
<use x="333.544922" xlink:href="#e"/>
<use x="394.824219" xlink:href="#i"/>
</g>
</g>
<path d="m661.82 928.93v33.808q0 2.4 2.4 2.4h7.7425q2.4 0 2.4-2.4v-33.808q0-2.4-2.4-2.4h-7.7425q-2.4 0-2.4 2.4z" clip-path="url(#a)" fill="#fff" stroke="#fff"/>
<g clip-path="url(#a)">
<g transform="translate(665.88 928.93) rotate(90) scale(.08 -.08)">
<use xlink:href="#k"/>
<use x="44.083984" xlink:href="#d"/>
<use x="105.607422" xlink:href="#f"/>
<use x="144.970703" xlink:href="#l"/>
<use x="242.382812" xlink:href="#h"/>
<use x="270.166016" xlink:href="#j"/>
<use x="333.544922" xlink:href="#e"/>
<use x="394.824219" xlink:href="#i"/>
</g>
</g>
<path d="m712.06 928.93v33.808q0 2.4 2.4 2.4h7.7425q2.4 0 2.4-2.4v-33.808q0-2.4-2.4-2.4h-7.7425q-2.4 0-2.4 2.4z" clip-path="url(#a)" fill="#fff" stroke="#fff"/>
<g clip-path="url(#a)">
<g transform="translate(716.13 928.93) rotate(90) scale(.08 -.08)">
<use xlink:href="#k"/>
<use x="44.083984" xlink:href="#d"/>
<use x="105.607422" xlink:href="#f"/>
<use x="144.970703" xlink:href="#l"/>
<use x="242.382812" xlink:href="#h"/>
<use x="270.166016" xlink:href="#j"/>
<use x="333.544922" xlink:href="#e"/>
<use x="394.824219" xlink:href="#i"/>
</g>
</g>
<path d="m803.54 753.21 1.4888-5.3557q0.64278-2.3123-1.6695-2.9551l-7.4596-2.0736q-2.3123-0.64278-2.9551 1.6695l-1.4888 5.3557q-0.64278 2.3123 1.6695 2.9551l7.4596 2.0736q2.3123 0.64278 2.9551-1.6695z" clip-path="url(#a)" fill="#fff" stroke="#fff"/>
<g clip-path="url(#a)">
<g transform="translate(799.63 752.12) rotate(-74.465) scale(.08 -.08)">
<use xlink:href="#am"/>
</g>
</g>
<path d="m831.72 751.4 0.017787-5.055q0.008445-2.4-2.3915-2.4084l-7.7425-0.027244q-2.4-0.008445-2.4084 2.3915l-0.017787 5.055q-0.008445 2.4 2.3915 2.4084l7.7425 0.027244q2.4 0.008445 2.4084-2.3915z" clip-path="url(#a)" fill="#fff" stroke="#fff"/>
<g clip-path="url(#a)">
<defs>
<path id="ap" d="m9.8125 72.906h46.094v-8.3125h-36.234v-21.578h34.719v-8.2969h-34.719v-26.422h37.109v-8.2969h-46.969z"/>
</defs>
<g transform="translate(827.66 751.39) rotate(-89.798) scale(.08 -.08)">
<use xlink:href="#ap"/>
</g>
</g>
<path d="m846.93 747.87 1.5137 5.3773q0.65032 2.3102 2.9605 1.6599l7.4528-2.098q2.3102-0.65032 1.6599-2.9605l-1.5137-5.3773q-0.65032-2.3102-2.9605-1.6599l-7.4528 2.098q-2.3102 0.65032-1.6599 2.9605z" clip-path="url(#a)" fill="#fff" stroke="#fff"/>
<g clip-path="url(#a)">
<defs>
<path id="ab" d="m64.406 67.281v-10.391q-4.9844 4.6406-10.625 6.9219-5.6406 2.2969-11.984 2.2969-12.5 0-19.141-7.6406t-6.6406-22.094q0-14.406 6.6406-22.047t19.141-7.6406q6.3438 0 11.984 2.2969t10.625 6.9375v-10.312q-5.1719-3.5156-10.969-5.2812-5.7812-1.75-12.219-1.75-16.562 0-26.094 10.125-9.5156 10.141-9.5156 27.672 0 17.578 9.5156 27.703 9.5312 10.141 26.094 10.141 6.5312 0 12.312-1.7344 5.7969-1.7344 10.875-5.2031z"/>
</defs>
<g transform="translate(850.84 746.76) rotate(74.278) scale(.08 -.08)">
<use xlink:href="#ab"/>
</g>
</g>
<path d="m991.34 754.04 2.3634-5.0313q1.0204-2.1723-1.1518-3.1927l-7.0078-3.2919q-2.1723-1.0204-3.1927 1.1518l-2.3634 5.0313q-1.0204 2.1723 1.1518 3.1927l7.0078 3.2919q2.1723 1.0204 3.1927-1.1518z" clip-path="url(#a)" fill="#fff" stroke="#fff"/>
<g clip-path="url(#a)">
<g transform="translate(987.66 752.31) rotate(-64.838) scale(.08 -.08)">
<use xlink:href="#am"/>
</g>
</g>
<path d="m1023 752.36 0.81625-4.9887q0.38754-2.3685-1.981-2.756l-7.6409-1.2502q-2.3685-0.38754-2.756 1.981l-0.81625 4.9887q-0.38754 2.3685 1.981 2.756l7.6409 1.2502q2.3685 0.38754 2.756-1.981z" clip-path="url(#a)" fill="#fff" stroke="#fff"/>
<g clip-path="url(#a)">
<g transform="translate(1019 751.71) rotate(-80.708) scale(.08 -.08)">
<use xlink:href="#ap"/>
</g>
</g>
<path d="m1074.2 749.05 2.4186 5.0355q1.0391 2.1634 3.2025 1.1243l6.9792-3.3522q2.1634-1.0391 1.1243-3.2025l-2.4186-5.0355q-1.0391-2.1634-3.2025-1.1243l-6.9792 3.3522q-2.1634 1.0391-1.1243 3.2025z" clip-path="url(#a)" fill="#fff" stroke="#fff"/>
<g clip-path="url(#a)">
<g transform="translate(1077.9 747.29) rotate(64.345) scale(.08 -.08)">
<use xlink:href="#ab"/>
</g>
</g>
<path d="m1042 746.91 0.88588 5.7876q0.36313 2.3724 2.7355 2.0092l7.6534-1.1715q2.3724-0.36313 2.0092-2.7355l-0.88588-5.7876q-0.36312-2.3724-2.7355-2.0092l-7.6534 1.1715q-2.3724 0.36313-2.0092 2.7355z" clip-path="url(#a)" fill="#fff" stroke="#fff"/>
<g clip-path="url(#a)">
<g transform="translate(1046 746.29) rotate(81.298) scale(.08 -.08)">
<use xlink:href="#ai"/>
</g>
</g>
<path d="m933.99 928.93v33.808q0 2.4 2.4 2.4h7.7425q2.4 0 2.4-2.4v-33.808q0-2.4-2.4-2.4h-7.7425q-2.4 0-2.4 2.4z" clip-path="url(#a)" fill="#fff" stroke="#fff"/>
<g clip-path="url(#a)">
<g transform="translate(938.06 928.93) rotate(90) scale(.08 -.08)">
<use xlink:href="#k"/>
<use x="44.083984" xlink:href="#d"/>
<use x="105.607422" xlink:href="#f"/>
<use x="144.970703" xlink:href="#l"/>
<use x="242.382812" xlink:href="#h"/>
<use x="270.166016" xlink:href="#j"/>
<use x="333.544922" xlink:href="#e"/>
<use x="394.824219" xlink:href="#i"/>
</g>
</g>
<path d="m994.71 928.93v33.808q0 2.4 2.4 2.4h7.7425q2.4 0 2.4-2.4v-33.808q0-2.4-2.4-2.4h-7.7425q-2.4 0-2.4 2.4z" clip-path="url(#a)" fill="#fff" stroke="#fff"/>
<g clip-path="url(#a)">
<g transform="translate(998.77 928.93) rotate(90) scale(.08 -.08)">
<use xlink:href="#k"/>
<use x="44.083984" xlink:href="#d"/>
<use x="105.607422" xlink:href="#f"/>
<use x="144.970703" xlink:href="#l"/>
<use x="242.382812" xlink:href="#h"/>
<use x="270.166016" xlink:href="#j"/>
<use x="333.544922" xlink:href="#e"/>
<use x="394.824219" xlink:href="#i"/>
</g>
</g>
<path d="m1122.4 928.93v33.808q0 2.4 2.4 2.4h7.7425q2.4 0 2.4-2.4v-33.808q0-2.4-2.4-2.4h-7.7425q-2.4 0-2.4 2.4z" clip-path="url(#a)" fill="#fff" stroke="#fff"/>
<g clip-path="url(#a)">
<g transform="translate(1126.5 928.93) rotate(90) scale(.08 -.08)">
<use xlink:href="#k"/>
<use x="44.083984" xlink:href="#d"/>
<use x="105.607422" xlink:href="#f"/>
<use x="144.970703" xlink:href="#l"/>
<use x="242.382812" xlink:href="#h"/>
<use x="270.166016" xlink:href="#j"/>
<use x="333.544922" xlink:href="#e"/>
<use x="394.824219" xlink:href="#i"/>
</g>
</g>
<path d="m764.41 928.93v33.808q0 2.4 2.4 2.4h7.7425q2.4 0 2.4-2.4v-33.808q0-2.4-2.4-2.4h-7.7425q-2.4 0-2.4 2.4z" clip-path="url(#a)" fill="#fff" stroke="#fff"/>
<g clip-path="url(#a)">
<g transform="translate(768.47 928.93) rotate(90) scale(.08 -.08)">
<use xlink:href="#k"/>
<use x="44.083984" xlink:href="#d"/>
<use x="105.607422" xlink:href="#f"/>
<use x="144.970703" xlink:href="#l"/>
<use x="242.382812" xlink:href="#h"/>
<use x="270.166016" xlink:href="#j"/>
<use x="333.544922" xlink:href="#e"/>
<use x="394.824219" xlink:href="#i"/>
</g>
</g>
<path d="m818.84 928.93v33.808q0 2.4 2.4 2.4h7.7425q2.4 0 2.4-2.4v-33.808q0-2.4-2.4-2.4h-7.7425q-2.4 0-2.4 2.4z" clip-path="url(#a)" fill="#fff" stroke="#fff"/>
<g clip-path="url(#a)">
<g transform="translate(822.91 928.93) rotate(90) scale(.08 -.08)">
<use xlink:href="#k"/>
<use x="44.083984" xlink:href="#d"/>
<use x="105.607422" xlink:href="#f"/>
<use x="144.970703" xlink:href="#l"/>
<use x="242.382812" xlink:href="#h"/>
<use x="270.166016" xlink:href="#j"/>
<use x="333.544922" xlink:href="#e"/>
<use x="394.824219" xlink:href="#i"/>
</g>
</g>
<path d="m875.37 928.93v33.808q0 2.4 2.4 2.4h7.7425q2.4 0 2.4-2.4v-33.808q0-2.4-2.4-2.4h-7.7425q-2.4 0-2.4 2.4z" clip-path="url(#a)" fill="#fff" stroke="#fff"/>
<g clip-path="url(#a)">
<g transform="translate(879.43 928.93) rotate(90) scale(.08 -.08)">
<use xlink:href="#k"/>
<use x="44.083984" xlink:href="#d"/>
<use x="105.607422" xlink:href="#f"/>
<use x="144.970703" xlink:href="#l"/>
<use x="242.382812" xlink:href="#h"/>
<use x="270.166016" xlink:href="#j"/>
<use x="333.544922" xlink:href="#e"/>
<use x="394.824219" xlink:href="#i"/>
</g>
</g>
<path d="m303.8 928.93v33.808q0 2.4 2.4 2.4h7.7425q2.4 0 2.4-2.4v-33.808q0-2.4-2.4-2.4h-7.7425q-2.4 0-2.4 2.4z" clip-path="url(#a)" fill="#fff" stroke="#fff"/>
<g clip-path="url(#a)">
<g transform="translate(307.86 928.93) rotate(90) scale(.08 -.08)">
<use xlink:href="#k"/>
<use x="44.083984" xlink:href="#d"/>
<use x="105.607422" xlink:href="#f"/>
<use x="144.970703" xlink:href="#l"/>
<use x="242.382812" xlink:href="#h"/>
<use x="270.166016" xlink:href="#j"/>
<use x="333.544922" xlink:href="#e"/>
<use x="394.824219" xlink:href="#i"/>
</g>
</g>
<path d="m335.21 928.93v33.808q0 2.4 2.4 2.4h7.7425q2.4 0 2.4-2.4v-33.808q0-2.4-2.4-2.4h-7.7425q-2.4 0-2.4 2.4z" clip-path="url(#a)" fill="#fff" stroke="#fff"/>
<g clip-path="url(#a)">
<g transform="translate(339.27 928.93) rotate(90) scale(.08 -.08)">
<use xlink:href="#k"/>
<use x="44.083984" xlink:href="#d"/>
<use x="105.607422" xlink:href="#f"/>
<use x="144.970703" xlink:href="#l"/>
<use x="242.382812" xlink:href="#h"/>
<use x="270.166016" xlink:href="#j"/>
<use x="333.544922" xlink:href="#e"/>
<use x="394.824219" xlink:href="#i"/>
</g>
</g>
<path d="m368.7 928.93v33.808q0 2.4 2.4 2.4h7.7425q2.4 0 2.4-2.4v-33.808q0-2.4-2.4-2.4h-7.7425q-2.4 0-2.4 2.4z" clip-path="url(#a)" fill="#fff" stroke="#fff"/>
<g clip-path="url(#a)">
<g transform="translate(372.77 928.93) rotate(90) scale(.08 -.08)">
<use xlink:href="#k"/>
<use x="44.083984" xlink:href="#d"/>
<use x="105.607422" xlink:href="#f"/>
<use x="144.970703" xlink:href="#l"/>
<use x="242.382812" xlink:href="#h"/>
<use x="270.166016" xlink:href="#j"/>
<use x="333.544922" xlink:href="#e"/>
<use x="394.824219" xlink:href="#i"/>
</g>
</g>
<path d="m404.3 928.93v33.808q0 2.4 2.4 2.4h7.7425q2.4 0 2.4-2.4v-33.808q0-2.4-2.4-2.4h-7.7425q-2.4 0-2.4 2.4z" clip-path="url(#a)" fill="#fff" stroke="#fff"/>
<g clip-path="url(#a)">
<g transform="translate(408.36 928.93) rotate(90) scale(.08 -.08)">
<use xlink:href="#k"/>
<use x="44.083984" xlink:href="#d"/>
<use x="105.607422" xlink:href="#f"/>
<use x="144.970703" xlink:href="#l"/>
<use x="242.382812" xlink:href="#h"/>
<use x="270.166016" xlink:href="#j"/>
<use x="333.544922" xlink:href="#e"/>
<use x="394.824219" xlink:href="#i"/>
</g>
</g>
<path d="m464.19 752 0.5044-5.0298q0.23948-2.388-2.1485-2.6275l-7.7039-0.77257q-2.388-0.23948-2.6275 2.1485l-0.5044 5.0298q-0.23948 2.388 2.1485 2.6275l7.7039 0.77257q2.388 0.23948 2.6275-2.1485z" clip-path="url(#a)" fill="#fff" stroke="#fff"/>
<g clip-path="url(#a)">
<g transform="translate(460.14 751.59) rotate(-84.273) scale(.08 -.08)">
<use xlink:href="#ap"/>
</g>
</g>
<path d="m471.57 746.7 0.55741 5.5584q0.23948 2.388 2.6275 2.1485l7.7039-0.77257q2.388-0.23948 2.1485-2.6275l-0.55741-5.5584q-0.23948-2.388-2.6275-2.1485l-7.7039 0.77257q-2.388 0.23948-2.1485 2.6275z" clip-path="url(#a)" fill="#fff" stroke="#fff"/>
<g clip-path="url(#a)">
<g transform="translate(475.61 746.3) rotate(84.273) scale(.08 -.08)">
<use xlink:href="#ab"/>
</g>
</g>
<path d="m523.64 928.93v33.808q0 2.4 2.4 2.4h7.7425q2.4 0 2.4-2.4v-33.808q0-2.4-2.4-2.4h-7.7425q-2.4 0-2.4 2.4z" clip-path="url(#a)" fill="#fff" stroke="#fff"/>
<g clip-path="url(#a)">
<g transform="translate(527.7 928.93) rotate(90) scale(.08 -.08)">
<use xlink:href="#k"/>
<use x="44.083984" xlink:href="#d"/>
<use x="105.607422" xlink:href="#f"/>
<use x="144.970703" xlink:href="#l"/>
<use x="242.382812" xlink:href="#h"/>
<use x="270.166016" xlink:href="#j"/>
<use x="333.544922" xlink:href="#e"/>
<use x="394.824219" xlink:href="#i"/>
</g>
</g>
<path d="m441.98 928.93v33.808q0 2.4 2.4 2.4h7.7425q2.4 0 2.4-2.4v-33.808q0-2.4-2.4-2.4h-7.7425q-2.4 0-2.4 2.4z" clip-path="url(#a)" fill="#fff" stroke="#fff"/>
<g clip-path="url(#a)">
<g transform="translate(446.05 928.93) rotate(90) scale(.08 -.08)">
<use xlink:href="#k"/>
<use x="44.083984" xlink:href="#d"/>
<use x="105.607422" xlink:href="#f"/>
<use x="144.970703" xlink:href="#l"/>
<use x="242.382812" xlink:href="#h"/>
<use x="270.166016" xlink:href="#j"/>
<use x="333.544922" xlink:href="#e"/>
<use x="394.824219" xlink:href="#i"/>
</g>
</g>
<path d="m481.76 928.93v33.808q0 2.4 2.4 2.4h7.7425q2.4 0 2.4-2.4v-33.808q0-2.4-2.4-2.4h-7.7425q-2.4 0-2.4 2.4z" clip-path="url(#a)" fill="#fff" stroke="#fff"/>
<g clip-path="url(#a)">
<g transform="translate(485.83 928.93) rotate(90) scale(.08 -.08)">
<use xlink:href="#k"/>
<use x="44.083984" xlink:href="#d"/>
<use x="105.607422" xlink:href="#f"/>
<use x="144.970703" xlink:href="#l"/>
<use x="242.382812" xlink:href="#h"/>
<use x="270.166016" xlink:href="#j"/>
<use x="333.544922" xlink:href="#e"/>
<use x="394.824219" xlink:href="#i"/>
</g>
</g>
<path d="m222.15 928.93v33.808q0 2.4 2.4 2.4h7.7425q2.4 0 2.4-2.4v-33.808q0-2.4-2.4-2.4h-7.7425q-2.4 0-2.4 2.4z" clip-path="url(#a)" fill="#fff" stroke="#fff"/>
<g clip-path="url(#a)">
<g transform="translate(226.21 928.93) rotate(90) scale(.08 -.08)">
<use xlink:href="#k"/>
<use x="44.083984" xlink:href="#d"/>
<use x="105.607422" xlink:href="#f"/>
<use x="144.970703" xlink:href="#l"/>
<use x="242.382812" xlink:href="#h"/>
<use x="270.166016" xlink:href="#j"/>
<use x="333.544922" xlink:href="#e"/>
<use x="394.824219" xlink:href="#i"/>
</g>
</g>
<path d="m247.27 928.93v33.808q0 2.4 2.4 2.4h7.7425q2.4 0 2.4-2.4v-33.808q0-2.4-2.4-2.4h-7.7425q-2.4 0-2.4 2.4z" clip-path="url(#a)" fill="#fff" stroke="#fff"/>
<g clip-path="url(#a)">
<g transform="translate(251.34 928.93) rotate(90) scale(.08 -.08)">
<use xlink:href="#k"/>
<use x="44.083984" xlink:href="#d"/>
<use x="105.607422" xlink:href="#f"/>
<use x="144.970703" xlink:href="#l"/>
<use x="242.382812" xlink:href="#h"/>
<use x="270.166016" xlink:href="#j"/>
<use x="333.544922" xlink:href="#e"/>
<use x="394.824219" xlink:href="#i"/>
</g>
</g>
<path d="m176.09 928.93v33.808q0 2.4 2.4 2.4h7.7425q2.4 0 2.4-2.4v-33.808q0-2.4-2.4-2.4h-7.7425q-2.4 0-2.4 2.4z" clip-path="url(#a)" fill="#fff" stroke="#fff"/>
<g clip-path="url(#a)">
<g transform="translate(180.15 928.93) rotate(90) scale(.08 -.08)">
<use xlink:href="#k"/>
<use x="44.083984" xlink:href="#d"/>
<use x="105.607422" xlink:href="#f"/>
<use x="144.970703" xlink:href="#l"/>
<use x="242.382812" xlink:href="#h"/>
<use x="270.166016" xlink:href="#j"/>
<use x="333.544922" xlink:href="#e"/>
<use x="394.824219" xlink:href="#i"/>
</g>
</g>
<path d="m94.434 928.93v33.808q0 2.4 2.4 2.4h7.7425q2.4 0 2.4-2.4v-33.808q0-2.4-2.4-2.4h-7.7425q-2.4 0-2.4 2.4z" clip-path="url(#a)" fill="#fff" stroke="#fff"/>
<g clip-path="url(#a)">
<g transform="translate(98.498 928.93) rotate(90) scale(.08 -.08)">
<use xlink:href="#k"/>
<use x="44.083984" xlink:href="#d"/>
<use x="105.607422" xlink:href="#f"/>
<use x="144.970703" xlink:href="#l"/>
<use x="242.382812" xlink:href="#h"/>
<use x="270.166016" xlink:href="#j"/>
<use x="333.544922" xlink:href="#e"/>
<use x="394.824219" xlink:href="#i"/>
</g>
</g>
<path d="m120.77 752 0.31401-5.5774q0.1349-2.3962-2.2613-2.5311l-7.7303-0.43521q-2.3962-0.13491-2.5311 2.2613l-0.31401 5.5774q-0.13491 2.3962 2.2613 2.5311l7.7303 0.43521q2.3962 0.13491 2.5311-2.2613z" clip-path="url(#a)" fill="#fff" stroke="#fff"/>
<g clip-path="url(#a)">
<g transform="translate(116.71 751.77) rotate(-86.778) scale(.08 -.08)">
<use xlink:href="#ab"/>
</g>
</g>
<path d="m126.16 751.87 0.021059-5.985q0.008445-2.4-2.3915-2.4084l-7.7425-0.027244q-2.4-0.008445-2.4084 2.3915l-0.02106 5.985q-0.008444 2.4 2.3915 2.4084l7.7425 0.027244q2.4 0.008445 2.4084-2.3915z" clip-path="url(#a)" fill="#fff" stroke="#fff"/>
<g clip-path="url(#a)">
<defs>
<path id="av" d="m9.8125 72.906h13.281l32.328-60.984v60.984h9.5625v-72.906h-13.281l-32.312 60.984v-60.984h-9.5781z"/>
</defs>
<g transform="translate(122.09 751.85) rotate(-89.798) scale(.08 -.08)">
<use xlink:href="#av"/>
</g>
</g>
<path d="m119.75 746.44 0.33356 5.5763q0.14331 2.3957 2.539 2.2524l7.7287-0.46232q2.3957-0.14331 2.2524-2.539l-0.33356-5.5763q-0.14331-2.3957-2.539-2.2524l-7.7287 0.46232q-2.3957 0.14331-2.2524 2.539z" clip-path="url(#a)" fill="#fff" stroke="#fff"/>
<g clip-path="url(#a)">
<g transform="translate(123.81 746.2) rotate(86.577) scale(.08 -.08)">
<use xlink:href="#ab"/>
</g>
</g>
<path d="m140.49 928.93v33.808q0 2.4 2.4 2.4h7.7425q2.4 0 2.4-2.4v-33.808q0-2.4-2.4-2.4h-7.7425q-2.4 0-2.4 2.4z" clip-path="url(#a)" fill="#fff" stroke="#fff"/>
<g clip-path="url(#a)">
<g transform="translate(144.56 928.93) rotate(90) scale(.08 -.08)">
<use xlink:href="#k"/>
<use x="44.083984" xlink:href="#d"/>
<use x="105.607422" xlink:href="#f"/>
<use x="144.970703" xlink:href="#l"/>
<use x="242.382812" xlink:href="#h"/>
<use x="270.166016" xlink:href="#j"/>
<use x="333.544922" xlink:href="#e"/>
<use x="394.824219" xlink:href="#i"/>
</g>
</g>
<path d="m102.81 928.93v33.808q0 2.4 2.4 2.4h7.7425q2.4 0 2.4-2.4v-33.808q0-2.4-2.4-2.4h-7.7425q-2.4 0-2.4 2.4z" clip-path="url(#a)" fill="#fff" stroke="#fff"/>
<g clip-path="url(#a)">
<g transform="translate(106.87 928.93) rotate(90) scale(.08 -.08)">
<use xlink:href="#k"/>
<use x="44.083984" xlink:href="#d"/>
<use x="105.607422" xlink:href="#f"/>
<use x="144.970703" xlink:href="#l"/>
<use x="242.382812" xlink:href="#h"/>
<use x="270.166016" xlink:href="#j"/>
<use x="333.544922" xlink:href="#e"/>
<use x="394.824219" xlink:href="#i"/>
</g>
</g>
<path d="m113.28 928.93v33.808q0 2.4 2.4 2.4h7.7425q2.4 0 2.4-2.4v-33.808q0-2.4-2.4-2.4h-7.7425q-2.4 0-2.4 2.4z" clip-path="url(#a)" fill="#fff" stroke="#fff"/>
<g clip-path="url(#a)">
<g transform="translate(117.34 928.93) rotate(90) scale(.08 -.08)">
<use xlink:href="#k"/>
<use x="44.083984" xlink:href="#d"/>
<use x="105.607422" xlink:href="#f"/>
<use x="144.970703" xlink:href="#l"/>
<use x="242.382812" xlink:href="#h"/>
<use x="270.166016" xlink:href="#j"/>
<use x="333.544922" xlink:href="#e"/>
<use x="394.824219" xlink:href="#i"/>
</g>
</g>
<path d="m125.84 928.93v33.808q0 2.4 2.4 2.4h7.7425q2.4 0 2.4-2.4v-33.808q0-2.4-2.4-2.4h-7.7425q-2.4 0-2.4 2.4z" clip-path="url(#a)" fill="#fff" stroke="#fff"/>
<g clip-path="url(#a)">
<g transform="translate(129.9 928.93) rotate(90) scale(.08 -.08)">
<use xlink:href="#k"/>
<use x="44.083984" xlink:href="#d"/>
<use x="105.607422" xlink:href="#f"/>
<use x="144.970703" xlink:href="#l"/>
<use x="242.382812" xlink:href="#h"/>
<use x="270.166016" xlink:href="#j"/>
<use x="333.544922" xlink:href="#e"/>
<use x="394.824219" xlink:href="#i"/>
</g>
</g>
<path d="m157.24 928.93v33.808q0 2.4 2.4 2.4h7.7425q2.4 0 2.4-2.4v-33.808q0-2.4-2.4-2.4h-7.7425q-2.4 0-2.4 2.4z" clip-path="url(#a)" fill="#fff" stroke="#fff"/>
<g clip-path="url(#a)">
<g transform="translate(161.31 928.93) rotate(90) scale(.08 -.08)">
<use xlink:href="#k"/>
<use x="44.083984" xlink:href="#d"/>
<use x="105.607422" xlink:href="#f"/>
<use x="144.970703" xlink:href="#l"/>
<use x="242.382812" xlink:href="#h"/>
<use x="270.166016" xlink:href="#j"/>
<use x="333.544922" xlink:href="#e"/>
<use x="394.824219" xlink:href="#i"/>
</g>
</g>
<path d="m199.12 928.93v33.808q0 2.4 2.4 2.4h7.7425q2.4 0 2.4-2.4v-33.808q0-2.4-2.4-2.4h-7.7425q-2.4 0-2.4 2.4z" clip-path="url(#a)" fill="#fff" stroke="#fff"/>
<g clip-path="url(#a)">
<g transform="translate(203.18 928.93) rotate(90) scale(.08 -.08)">
<use xlink:href="#k"/>
<use x="44.083984" xlink:href="#d"/>
<use x="105.607422" xlink:href="#f"/>
<use x="144.970703" xlink:href="#l"/>
<use x="242.382812" xlink:href="#h"/>
<use x="270.166016" xlink:href="#j"/>
<use x="333.544922" xlink:href="#e"/>
<use x="394.824219" xlink:href="#i"/>
</g>
</g>
<path d="m567.6 928.93v33.808q0 2.4 2.4 2.4h7.7425q2.4 0 2.4-2.4v-33.808q0-2.4-2.4-2.4h-7.7425q-2.4 0-2.4 2.4z" clip-path="url(#a)" fill="#fff" stroke="#fff"/>
<g clip-path="url(#a)">
<g transform="translate(571.67 928.93) rotate(90) scale(.08 -.08)">
<use xlink:href="#k"/>
<use x="44.083984" xlink:href="#d"/>
<use x="105.607422" xlink:href="#f"/>
<use x="144.970703" xlink:href="#l"/>
<use x="242.382812" xlink:href="#h"/>
<use x="270.166016" xlink:href="#j"/>
<use x="333.544922" xlink:href="#e"/>
<use x="394.824219" xlink:href="#i"/>
</g>
</g>
<path d="m1057.5 928.93v33.808q0 2.4 2.4 2.4h7.7425q2.4 0 2.4-2.4v-33.808q0-2.4-2.4-2.4h-7.7425q-2.4 0-2.4 2.4z" clip-path="url(#a)" fill="#fff" stroke="#fff"/>
<g clip-path="url(#a)">
<g transform="translate(1061.6 928.93) rotate(90) scale(.08 -.08)">
<use xlink:href="#k"/>
<use x="44.083984" xlink:href="#d"/>
<use x="105.607422" xlink:href="#f"/>
<use x="144.970703" xlink:href="#l"/>
<use x="242.382812" xlink:href="#h"/>
<use x="270.166016" xlink:href="#j"/>
<use x="333.544922" xlink:href="#e"/>
<use x="394.824219" xlink:href="#i"/>
</g>
</g>
<path d="m1974.5 928.93v33.808q0 2.4 2.4 2.4h7.7425q2.4 0 2.4-2.4v-33.808q0-2.4-2.4-2.4h-7.7425q-2.4 0-2.4 2.4z" clip-path="url(#a)" fill="#fff" stroke="#fff"/>
<g clip-path="url(#a)">
<g transform="translate(1978.6 928.93) rotate(90) scale(.08 -.08)">
<use xlink:href="#k"/>
<use x="44.083984" xlink:href="#d"/>
<use x="105.607422" xlink:href="#f"/>
<use x="144.970703" xlink:href="#l"/>
<use x="242.382812" xlink:href="#h"/>
<use x="270.166016" xlink:href="#j"/>
<use x="333.544922" xlink:href="#e"/>
<use x="394.824219" xlink:href="#i"/>
</g>
</g>
<defs>
<path id="b" d="m0 8.6603c2.2967 0 4.4997-0.9125 6.1237-2.5365 1.624-1.624 2.5365-3.827 2.5365-6.1237s-0.9125-4.4997-2.5365-6.1237c-1.624-1.624-3.827-2.5365-6.1237-2.5365s-4.4997 0.9125-6.1237 2.5365c-1.624 1.624-2.5365 3.827-2.5365 6.1237s0.9125 4.4997 2.5365 6.1237c1.624 1.624 3.827 2.5365 6.1237 2.5365z"/>
</defs>
<g clip-path="url(#a)" fill="#ffffff" stroke="#ffffff">
<use x="94.424242" y="1043.636364" xlink:href="#b"/>
<use x="100.705234" y="1043.636364" xlink:href="#b"/>
<use x="109.07989" y="1043.636364" xlink:href="#b"/>
<use x="119.548209" y="1043.636364" xlink:href="#b"/>
<use x="132.110193" y="1043.636364" xlink:href="#b"/>
<use x="146.76584" y="1043.636364" xlink:href="#b"/>
<use x="163.515152" y="1043.636364" xlink:href="#b"/>
<use x="182.358127" y="1043.636364" xlink:href="#b"/>
<use x="205.38843" y="1043.636364" xlink:href="#b"/>
<use x="228.418733" y="1043.636364" xlink:href="#b"/>
<use x="253.5427" y="1043.636364" xlink:href="#b"/>
<use x="280.760331" y="1043.636364" xlink:href="#b"/>
<use x="310.071625" y="1043.636364" xlink:href="#b"/>
<use x="341.476584" y="1043.636364" xlink:href="#b"/>
<use x="374.975207" y="1043.636364" xlink:href="#b"/>
<use x="410.567493" y="1043.636364" xlink:href="#b"/>
<use x="448.253444" y="1043.636364" xlink:href="#b"/>
<use x="488.033058" y="1043.636364" xlink:href="#b"/>
<use x="529.906336" y="1043.636364" xlink:href="#b"/>
<use x="573.873278" y="1043.636364" xlink:href="#b"/>
<use x="619.933884" y="1043.636364" xlink:href="#b"/>
<use x="668.088154" y="1043.636364" xlink:href="#b"/>
<use x="718.336088" y="1043.636364" xlink:href="#b"/>
<use x="770.677686" y="1043.636364" xlink:href="#b"/>
<use x="825.112948" y="1043.636364" xlink:href="#b"/>
<use x="881.641873" y="1043.636364" xlink:href="#b"/>
<use x="940.264463" y="1043.636364" xlink:href="#b"/>
<use x="1000.980716" y="1043.636364" xlink:href="#b"/>
<use x="1063.790634" y="1043.636364" xlink:href="#b"/>
<use x="1128.694215" y="1043.636364" xlink:href="#b"/>
<use x="1195.69146" y="1043.636364" xlink:href="#b"/>
<use x="1264.782369" y="1043.636364" xlink:href="#b"/>
<use x="1335.966942" y="1043.636364" xlink:href="#b"/>
<use x="1409.245179" y="1043.636364" xlink:href="#b"/>
<use x="1484.61708" y="1043.636364" xlink:href="#b"/>
<use x="1562.082645" y="1043.636364" xlink:href="#b"/>
<use x="1641.641873" y="1043.636364" xlink:href="#b"/>
<use x="1723.294766" y="1043.636364" xlink:href="#b"/>
<use x="1807.041322" y="1043.636364" xlink:href="#b"/>
<use x="1892.881543" y="1043.636364" xlink:href="#b"/>
<use x="1980.815427" y="1043.636364" xlink:href="#b"/>
<use x="1982.909091" y="450.311338" xlink:href="#b"/>
<use x="184.451791" y="848.022244" xlink:href="#b"/>
<use x="498.053566" y="49.69697" xlink:href="#b"/>
<use x="94.424242" y="848.022244" xlink:href="#b"/>
<use x="246.912764" y="450.311338" xlink:href="#b"/>
<use x="401.146006" y="649.686917" xlink:href="#b"/>
<use x="367.298439" y="649.686917" xlink:href="#b"/>
<use x="280.760331" y="848.022244" xlink:href="#b"/>
<use x="405.856749" y="450.311338" xlink:href="#b"/>
<use x="773.120294" y="450.311338" xlink:href="#b"/>
<use x="1195.69146" y="848.022244" xlink:href="#b"/>
<use x="1268.655647" y="250.2572" xlink:href="#b"/>
<use x="1264.782369" y="848.022244" xlink:href="#b"/>
<use x="1335.966942" y="848.022244" xlink:href="#b"/>
<use x="1409.245179" y="848.022244" xlink:href="#b"/>
<use x="1713.349862" y="450.311338" xlink:href="#b"/>
<use x="1807.041322" y="848.022244" xlink:href="#b"/>
<use x="1602.909091" y="649.686917" xlink:href="#b"/>
<use x="1730.099174" y="649.686917" xlink:href="#b"/>
<use x="1892.881543" y="848.022244" xlink:href="#b"/>
<use x="1484.61708" y="848.022244" xlink:href="#b"/>
<use x="1562.082645" y="848.022244" xlink:href="#b"/>
<use x="1641.641873" y="848.022244" xlink:href="#b"/>
<use x="1723.294766" y="848.022244" xlink:href="#b"/>
<use x="619.933884" y="848.022244" xlink:href="#b"/>
<use x="668.088154" y="848.022244" xlink:href="#b"/>
<use x="718.336088" y="848.022244" xlink:href="#b"/>
<use x="825.810836" y="649.686917" xlink:href="#b"/>
<use x="1033.432507" y="649.686917" xlink:href="#b"/>
<use x="940.264463" y="848.022244" xlink:href="#b"/>
<use x="1000.980716" y="848.022244" xlink:href="#b"/>
<use x="1128.694215" y="848.022244" xlink:href="#b"/>
<use x="770.677686" y="848.022244" xlink:href="#b"/>
<use x="825.112948" y="848.022244" xlink:href="#b"/>
<use x="881.641873" y="848.022244" xlink:href="#b"/>
<use x="310.071625" y="848.022244" xlink:href="#b"/>
<use x="341.476584" y="848.022244" xlink:href="#b"/>
<use x="374.975207" y="848.022244" xlink:href="#b"/>
<use x="410.567493" y="848.022244" xlink:href="#b"/>
<use x="468.143251" y="649.686917" xlink:href="#b"/>
<use x="529.906336" y="848.022244" xlink:href="#b"/>
<use x="448.253444" y="848.022244" xlink:href="#b"/>
<use x="488.033058" y="848.022244" xlink:href="#b"/>
<use x="228.418733" y="848.022244" xlink:href="#b"/>
<use x="253.5427" y="848.022244" xlink:href="#b"/>
<use x="182.358127" y="848.022244" xlink:href="#b"/>
<use x="100.705234" y="848.022244" xlink:href="#b"/>
<use x="120.246097" y="649.686917" xlink:href="#b"/>
<use x="146.76584" y="848.022244" xlink:href="#b"/>
<use x="109.07989" y="848.022244" xlink:href="#b"/>
<use x="119.548209" y="848.022244" xlink:href="#b"/>
<use x="132.110193" y="848.022244" xlink:href="#b"/>
<use x="163.515152" y="848.022244" xlink:href="#b"/>
<use x="205.38843" y="848.022244" xlink:href="#b"/>
<use x="573.873278" y="848.022244" xlink:href="#b"/>
<use x="1063.790634" y="848.022244" xlink:href="#b"/>
<use x="1980.815427" y="848.022244" xlink:href="#b"/>
</g>
<g clip-path="url(#a)">
<defs>
<path id="n" d="m44.281 53.078v-8.5q-3.7969 1.9531-7.9062 2.9219-4.0938 0.98438-8.5 0.98438-6.6875 0-10.031-2.0469t-3.3438-6.1562q0-3.125 2.3906-4.9062t9.625-3.3906l3.0781-0.6875q9.5625-2.0469 13.594-5.7812t4.0312-10.422q0-7.625-6.0312-12.078-6.0312-4.4375-16.578-4.4375-4.3906 0-9.1562 0.85938t-10.031 2.5625v9.2812q4.9844-2.5938 9.8125-3.8906 4.8281-1.2812 9.5781-1.2812 6.3438 0 9.75 2.1719 3.4219 2.1719 3.4219 6.125 0 3.6562-2.4688 5.6094-2.4531 1.9531-10.812 3.7656l-3.125 0.73438q-8.3438 1.75-12.062 5.3906-3.7031 3.6406-3.7031 9.9844 0 7.7188 5.4688 11.906 5.4688 4.2031 15.531 4.2031 4.9688 0 9.3594-0.73438 4.4062-0.71875 8.1094-2.1875z"/>
<path id="ar" d="m18.109 8.2031v-29h-9.0312v75.484h9.0312v-8.2969q2.8438 4.875 7.1562 7.2344 4.3281 2.375 10.328 2.375 9.9688 0 16.188-7.9062 6.2344-7.9062 6.2344-20.797t-6.2344-20.812q-6.2188-7.9062-16.188-7.9062-6 0-10.328 2.375-4.3125 2.375-7.1562 7.25zm30.578 19.094q0 9.9062-4.0781 15.547t-11.203 5.6406q-7.1406 0-11.219-5.6406t-4.0781-15.547 4.0781-15.547 11.219-5.6406q7.125 0 11.203 5.6406t4.0781 15.547z"/>
<path id="m" d="m18.312 70.219v-15.531h18.5v-6.9844h-18.5v-29.688q0-6.6875 1.8281-8.5938t7.4531-1.9062h9.2188v-7.5156h-9.2188q-10.406 0-14.359 3.875-3.9531 3.8906-3.9531 14.141v29.688h-6.5938v6.9844h6.5938v15.531z"/>
</defs>
<g transform="translate(75.293 1046.4) scale(.1 -.1)">
<use xlink:href="#aj"/>
<use x="77.001953" xlink:href="#d"/>
<use x="138.525391" xlink:href="#n"/>
<use x="190.625" xlink:href="#ar"/>
<use x="254.101562" xlink:href="#h"/>
<use x="281.884766" xlink:href="#m"/>
<use x="321.09375" xlink:href="#d"/>
</g>
</g>
<g clip-path="url(#a)">
<defs>
<path id="y" d="m8.5 21.578v33.109h8.9844v-32.766q0-7.7656 3.0156-11.656 3.0312-3.875 9.0938-3.875 7.2656 0 11.484 4.6406 4.2344 4.6406 4.2344 12.656v31h8.9844v-54.688h-8.9844v8.4062q-3.2656-4.9844-7.5938-7.4062-4.3125-2.4219-10.031-2.4219-9.4219 0-14.312 5.8594-4.875 5.8594-4.875 17.141z"/>
<path id="u" d="m48.781 52.594v-8.4062q-3.8125 2.1094-7.6406 3.1562t-7.7344 1.0469q-8.75 0-13.594-5.5469-4.8281-5.5312-4.8281-15.547t4.8281-15.562q4.8438-5.5312 13.594-5.5312 3.9062 0 7.7344 1.0469t7.6406 3.1562v-8.3125q-3.7656-1.75-7.7969-2.625-4.0156-0.89062-8.5625-0.89062-12.359 0-19.641 7.7656-7.2656 7.7656-7.2656 20.953 0 13.375 7.3438 21.031 7.3594 7.6719 20.156 7.6719 4.1406 0 8.0938-0.85938 3.9531-0.84375 7.6719-2.5469z"/>
<path id="al" d="m37.109 75.984v-7.4844h-8.5938q-4.8281 0-6.7188-1.9531-1.875-1.9531-1.875-7.0312v-4.8281h14.797v-6.9844h-14.797v-47.703h-9.0312v47.703h-8.5938v6.9844h8.5938v3.8125q0 9.125 4.25 13.297 4.25 4.1875 13.469 4.1875z"/>
</defs>
<g transform="translate(74.829 1046.4) scale(.1 -.1)">
<use xlink:href="#n"/>
<use x="52.099609" xlink:href="#y"/>
<use x="115.478516" xlink:href="#u"/>
<use x="170.458984" xlink:href="#u"/>
<use x="225.439453" xlink:href="#d"/>
<use x="286.962891" xlink:href="#n"/>
<use x="339.0625" xlink:href="#n"/>
<use x="391.162109" xlink:href="#al"/>
<use x="426.367188" xlink:href="#y"/>
<use x="489.746094" xlink:href="#i"/>
</g>
</g>
<g clip-path="url(#a)">
<g transform="translate(99.671 1046.4) scale(.1 -.1)">
<use xlink:href="#al"/>
<use x="35.205078" xlink:href="#h"/>
<use x="62.988281" xlink:href="#i"/>
<use x="90.771484" xlink:href="#l"/>
</g>
</g>
<g clip-path="url(#a)">
<defs>
<path id="t" d="m45.406 46.391v29.594h8.9844v-75.984h-8.9844v8.2031q-2.8281-4.875-7.1562-7.25-4.3125-2.375-10.375-2.375-9.9062 0-16.141 7.9062-6.2188 7.9219-6.2188 20.812t6.2188 20.797q6.2344 7.9062 16.141 7.9062 6.0625 0 10.375-2.375 4.3281-2.3594 7.1562-7.2344zm-30.609-19.094q0-9.9062 4.0781-15.547t11.203-5.6406 11.219 5.6406q4.1094 5.6406 4.1094 15.547t-4.1094 15.547q-4.0938 5.6406-11.219 5.6406t-11.203-5.6406-4.0781-15.547z"/>
</defs>
<g transform="translate(110.14 1046.4) scale(.1 -.1)">
<use xlink:href="#e"/>
<use x="61.279297" xlink:href="#j"/>
<use x="124.658203" xlink:href="#t"/>
</g>
</g>
<g clip-path="url(#a)">
<defs>
<path id="z" d="m30.609 48.391q-7.2188 0-11.422-5.6406t-4.2031-15.453 4.1719-15.453q4.1875-5.6406 11.453-5.6406 7.1875 0 11.375 5.6562 4.2031 5.6719 4.2031 15.438 0 9.7188-4.2031 15.406-4.1875 5.6875-11.375 5.6875zm0 7.6094q11.719 0 18.406-7.625 6.7031-7.6094 6.7031-21.078 0-13.422-6.7031-21.078-6.6875-7.6406-18.406-7.6406-11.766 0-18.438 7.6406-6.6562 7.6562-6.6562 21.078 0 13.469 6.6562 21.078 6.6719 7.625 18.438 7.625z"/>
<path id="as" d="m45.406 27.984q0 9.7656-4.0312 15.125-4.0156 5.375-11.297 5.375-7.2188 0-11.25-5.375-4.0312-5.3594-4.0312-15.125 0-9.7188 4.0312-15.094t11.25-5.375q7.2812 0 11.297 5.375 4.0312 5.375 4.0312 15.094zm8.9844-21.203q0-13.953-6.2031-20.766-6.1875-6.8125-18.984-6.8125-4.7344 0-8.9375 0.70312t-8.1562 2.1719v8.7344q3.9531-2.1406 7.8125-3.1562 3.8594-1.0312 7.8594-1.0312 8.8438 0 13.234 4.6094t4.3906 13.938v4.4531q-2.7812-4.8438-7.125-7.2344t-10.406-2.3906q-10.047 0-16.203 7.6562-6.1562 7.6719-6.1562 20.328 0 12.688 6.1562 20.344 6.1562 7.6719 16.203 7.6719 6.0625 0 10.406-2.3906t7.125-7.2188v8.2969h8.9844z"/>
</defs>
<g transform="translate(108.41 1046.4) scale(.1 -.1)">
<use xlink:href="#f"/>
<use x="38.863281" xlink:href="#d"/>
<use x="100.386719" xlink:href="#u"/>
<use x="155.367188" xlink:href="#z"/>
<use x="216.548828" xlink:href="#f"/>
<use x="255.912109" xlink:href="#t"/>
<use x="319.388672" xlink:href="#h"/>
<use x="347.171875" xlink:href="#j"/>
<use x="410.550781" xlink:href="#as"/>
</g>
</g>
<g clip-path="url(#a)">
<g transform="translate(128.2 1046.4) scale(.1 -.1)">
<use xlink:href="#u"/>
<use x="54.980469" xlink:href="#e"/>
<use x="116.259766" xlink:href="#f"/>
<use x="155.123047" xlink:href="#d"/>
<use x="216.646484" xlink:href="#d"/>
<use x="278.169922" xlink:href="#f"/>
<use x="319.283203" xlink:href="#n"/>
</g>
</g>
<g clip-path="url(#a)">
<defs>
<path id="aq" d="m11.719 12.406h10.297v-8.4062l-8-15.625h-6.2969l4 15.625z"/>
</defs>
<g transform="translate(161.93 1046.4) scale(.1 -.1)">
<use xlink:href="#aq"/>
</g>
</g>
<g clip-path="url(#a)">
<defs>
<path id="ah" d="m4.2031 54.688h8.9844l11.234-42.672 11.172 42.672h10.594l11.234-42.672 11.188 42.672h8.9844l-14.312-54.688h-10.594l-11.766 44.828-11.812-44.828h-10.609z"/>
</defs>
<g transform="translate(164.39 1046.4) scale(.1 -.1)">
<use xlink:href="#e"/>
<use x="61.279297" xlink:href="#ah"/>
<use x="143.066406" xlink:href="#e"/>
<use x="204.345703" xlink:href="#f"/>
<use x="243.708984" xlink:href="#t"/>
<use x="307.185547" xlink:href="#n"/>
</g>
</g>
<g clip-path="url(#a)">
<g transform="translate(203.8 1046.4) scale(.1 -.1)">
<use xlink:href="#aq"/>
</g>
</g>
<g clip-path="url(#a)">
<g transform="translate(211.67 1046.4) scale(.1 -.1)">
<use xlink:href="#u"/>
<use x="54.980469" xlink:href="#f"/>
<use x="96.09375" xlink:href="#h"/>
<use x="123.876953" xlink:href="#m"/>
<use x="163.085938" xlink:href="#h"/>
<use x="190.869141" xlink:href="#u"/>
<use x="245.849609" xlink:href="#e"/>
<use x="307.128906" xlink:href="#i"/>
</g>
</g>
<g clip-path="url(#a)">
<g transform="translate(238.18 1046.4) scale(.1 -.1)">
<use xlink:href="#ar"/>
<use x="63.476562" xlink:href="#f"/>
<use x="104.589844" xlink:href="#e"/>
<use x="165.869141" xlink:href="#h"/>
<use x="193.652344" xlink:href="#n"/>
<use x="245.751953" xlink:href="#d"/>
</g>
</g>
<g clip-path="url(#a)">
<g transform="translate(271.35 1046.4) scale(.1 -.1)">
<use xlink:href="#e"/>
<use x="61.279297" xlink:href="#j"/>
<use x="124.658203" xlink:href="#t"/>
</g>
</g>
<g clip-path="url(#a)">
<defs>
<path id="v" d="m54.891 33.016v-33.016h-8.9844v32.719q0 7.7656-3.0312 11.609-3.0312 3.8594-9.0781 3.8594-7.2812 0-11.484-4.6406-4.2031-4.625-4.2031-12.641v-30.906h-9.0312v75.984h9.0312v-29.797q3.2344 4.9375 7.5938 7.375 4.375 2.4375 10.094 2.4375 9.4219 0 14.25-5.8281 4.8438-5.8281 4.8438-17.156z"/>
</defs>
<g transform="translate(301.77 1046.4) scale(.1 -.1)">
<use xlink:href="#v"/>
<use x="63.378906" xlink:href="#d"/>
<use x="124.902344" xlink:href="#f"/>
</g>
</g>
<g clip-path="url(#a)">
<defs>
<path id="at" d="m48.688 27.297q0 9.9062-4.0781 15.547t-11.203 5.6406q-7.1406 0-11.219-5.6406t-4.0781-15.547 4.0781-15.547 11.219-5.6406q7.125 0 11.203 5.6406t4.0781 15.547zm-30.578 19.094q2.8438 4.875 7.1562 7.2344 4.3281 2.375 10.328 2.375 9.9688 0 16.188-7.9062 6.2344-7.9062 6.2344-20.797t-6.2344-20.812q-6.2188-7.9062-16.188-7.9062-6 0-10.328 2.375-4.3125 2.375-7.1562 7.25v-8.2031h-9.0312v75.984h9.0312z"/>
<path id="ax" d="m32.172-5.0781q-3.7969-9.7656-7.4219-12.734-3.6094-2.9844-9.6562-2.9844h-7.1875v7.5156h5.2812q3.7031 0 5.75 1.7656 2.0625 1.75 4.5469 8.2969l1.6094 4.0938-22.109 53.812h9.5156l17.094-42.766 17.094 42.766h9.5156z"/>
</defs>
<g transform="translate(326.15 1046.4) scale(.1 -.1)">
<use xlink:href="#e"/>
<use x="61.279297" xlink:href="#at"/>
<use x="124.755859" xlink:href="#h"/>
<use x="152.539062" xlink:href="#i"/>
<use x="180.322266" xlink:href="#h"/>
<use x="208.105469" xlink:href="#m"/>
<use x="247.314453" xlink:href="#ax"/>
</g>
</g>
<g clip-path="url(#a)">
<g transform="translate(369.96 1046.4) scale(.1 -.1)">
<use xlink:href="#m"/>
<use x="39.208984" xlink:href="#z"/>
</g>
</g>
<g clip-path="url(#a)">
<g transform="translate(404.64 1046.4) scale(.1 -.1)">
<use xlink:href="#al"/>
<use x="35.205078" xlink:href="#h"/>
<use x="62.988281" xlink:href="#i"/>
<use x="90.771484" xlink:href="#i"/>
</g>
</g>
<g clip-path="url(#a)">
<g transform="translate(429.43 1046.4) scale(.1 -.1)">
<use xlink:href="#u"/>
<use x="54.980469" xlink:href="#z"/>
<use x="116.162109" xlink:href="#j"/>
<use x="179.541016" xlink:href="#u"/>
<use x="234.521484" xlink:href="#d"/>
<use x="296.044922" xlink:href="#f"/>
<use x="337.158203" xlink:href="#m"/>
</g>
</g>
<g clip-path="url(#a)">
<g transform="translate(476.42 1046.4) scale(.1 -.1)">
<use xlink:href="#v"/>
<use x="63.378906" xlink:href="#e"/>
<use x="124.658203" xlink:href="#i"/>
<use x="152.441406" xlink:href="#i"/>
<use x="180.224609" xlink:href="#n"/>
</g>
</g>
<g clip-path="url(#a)">
<g transform="translate(504.41 1046.4) scale(.1 -.1)">
<use xlink:href="#ah"/>
<use x="81.787109" xlink:href="#z"/>
<use x="142.96875" xlink:href="#f"/>
<use x="184.082031" xlink:href="#i"/>
<use x="211.865234" xlink:href="#t"/>
<use x="275.341797" xlink:href="#ah"/>
<use x="357.128906" xlink:href="#h"/>
<use x="384.912109" xlink:href="#t"/>
<use x="448.388672" xlink:href="#d"/>
</g>
</g>
<g clip-path="url(#a)">
<g transform="translate(572.28 1046.4) scale(.1 -.1)">
<use xlink:href="#aq"/>
</g>
</g>
<g clip-path="url(#a)">
<g transform="translate(611.08 1046.4) scale(.1 -.1)">
<use xlink:href="#n"/>
<use x="52.099609" xlink:href="#v"/>
<use x="115.478516" xlink:href="#d"/>
</g>
</g>
<g clip-path="url(#a)">
<g transform="translate(658.33 1046.4) scale(.1 -.1)">
<use xlink:href="#ah"/>
<use x="81.787109" xlink:href="#e"/>
<use x="143.066406" xlink:href="#n"/>
</g>
</g>
<g clip-path="url(#a)">
<g transform="translate(698.11 1046.4) scale(.1 -.1)">
<use xlink:href="#ar"/>
<use x="63.476562" xlink:href="#i"/>
<use x="91.259766" xlink:href="#e"/>
<use x="152.539062" xlink:href="#as"/>
<use x="216.015625" xlink:href="#y"/>
<use x="279.394531" xlink:href="#d"/>
<use x="340.917969" xlink:href="#t"/>
</g>
</g>
<g clip-path="url(#a)">
<g transform="translate(742.85 1046.4) scale(.1 -.1)">
<use xlink:href="#m"/>
<use x="39.208984" xlink:href="#v"/>
<use x="102.587891" xlink:href="#f"/>
<use x="141.451172" xlink:href="#z"/>
<use x="202.632812" xlink:href="#y"/>
<use x="266.011719" xlink:href="#as"/>
<use x="329.488281" xlink:href="#v"/>
<use x="392.867188" xlink:href="#z"/>
<use x="454.048828" xlink:href="#y"/>
<use x="517.427734" xlink:href="#m"/>
</g>
</g>
<g clip-path="url(#a)">
<g transform="translate(816.81 1046.4) scale(.1 -.1)">
<use xlink:href="#v"/>
<use x="63.378906" xlink:href="#d"/>
<use x="124.902344" xlink:href="#f"/>
</g>
</g>
<g clip-path="url(#a)">
<g transform="translate(874.03 1046.4) scale(.1 -.1)">
<use xlink:href="#i"/>
<use x="27.783203" xlink:href="#h"/>
<use x="55.566406" xlink:href="#al"/>
<use x="90.771484" xlink:href="#d"/>
</g>
</g>
<g clip-path="url(#a)">
<g transform="translate(929.66 1046.4) scale(.1 -.1)">
<use xlink:href="#ah"/>
<use x="81.787109" xlink:href="#h"/>
<use x="109.570312" xlink:href="#m"/>
<use x="148.779297" xlink:href="#v"/>
</g>
</g>
<g clip-path="url(#a)">
<g transform="translate(992.15 1046.4) scale(.1 -.1)">
<use xlink:href="#n"/>
<use x="52.099609" xlink:href="#d"/>
<use x="113.623047" xlink:href="#i"/>
<use x="141.40625" xlink:href="#al"/>
</g>
</g>
<g clip-path="url(#a)">
<defs>
<path id="aw" d="m4.8906 31.391h26.312v-8h-26.312z"/>
</defs>
<g transform="translate(1062 1046.4) scale(.1 -.1)">
<use xlink:href="#aw"/>
</g>
</g>
<g clip-path="url(#a)">
<g transform="translate(1114.2 1046.4) scale(.1 -.1)">
<use xlink:href="#t"/>
<use x="63.476562" xlink:href="#z"/>
<use x="124.658203" xlink:href="#y"/>
<use x="188.037109" xlink:href="#at"/>
<use x="251.513672" xlink:href="#m"/>
</g>
</g>
<g clip-path="url(#a)">
<g transform="translate(1186.3 1046.4) scale(.1 -.1)">
<use xlink:href="#e"/>
<use x="61.279297" xlink:href="#j"/>
<use x="124.658203" xlink:href="#t"/>
</g>
</g>
<g clip-path="url(#a)">
<defs>
<path id="az" d="m14.797 27.297q0-9.9062 4.0781-15.547t11.203-5.6406 11.219 5.6406q4.1094 5.6406 4.1094 15.547t-4.1094 15.547q-4.0938 5.6406-11.219 5.6406t-11.203-5.6406-4.0781-15.547zm30.609-19.094q-2.8281-4.875-7.1562-7.25-4.3125-2.375-10.375-2.375-9.9062 0-16.141 7.9062-6.2188 7.9219-6.2188 20.812t6.2188 20.797q6.2344 7.9062 16.141 7.9062 6.0625 0 10.375-2.375 4.3281-2.3594 7.1562-7.2344v8.2969h8.9844v-75.484h-8.9844z"/>
</defs>
<g transform="translate(1243.8 1046.4) scale(.1 -.1)">
<use xlink:href="#f"/>
<use x="38.863281" xlink:href="#d"/>
<use x="100.386719" xlink:href="#az"/>
<use x="163.863281" xlink:href="#y"/>
<use x="227.242188" xlink:href="#h"/>
<use x="255.025391" xlink:href="#f"/>
<use x="293.888672" xlink:href="#d"/>
<use x="355.412109" xlink:href="#t"/>
</g>
</g>
<g clip-path="url(#a)">
<g transform="translate(1314.2 1046.4) scale(.1 -.1)">
<use xlink:href="#u"/>
<use x="54.980469" xlink:href="#z"/>
<use x="116.162109" xlink:href="#j"/>
<use x="179.541016" xlink:href="#n"/>
<use x="231.640625" xlink:href="#m"/>
<use x="270.849609" xlink:href="#e"/>
<use x="332.128906" xlink:href="#j"/>
<use x="395.507812" xlink:href="#m"/>
</g>
</g>
<g clip-path="url(#a)">
<g transform="translate(1378.7 1046.4) scale(.1 -.1)">
<use xlink:href="#f"/>
<use x="38.863281" xlink:href="#d"/>
<use x="100.386719" xlink:href="#e"/>
<use x="161.666016" xlink:href="#n"/>
<use x="213.765625" xlink:href="#n"/>
<use x="265.865234" xlink:href="#y"/>
<use x="329.244141" xlink:href="#f"/>
<use x="370.357422" xlink:href="#e"/>
<use x="431.636719" xlink:href="#j"/>
<use x="495.015625" xlink:href="#u"/>
<use x="549.996094" xlink:href="#d"/>
</g>
</g>
<g clip-path="url(#a)">
<g transform="translate(1474.5 1046.4) scale(.1 -.1)">
<use xlink:href="#m"/>
<use x="39.208984" xlink:href="#v"/>
<use x="102.587891" xlink:href="#e"/>
<use x="163.867188" xlink:href="#m"/>
</g>
</g>
<g clip-path="url(#a)">
<g transform="translate(1553.2 1046.4) scale(.1 -.1)">
<use xlink:href="#n"/>
<use x="52.099609" xlink:href="#v"/>
<use x="115.478516" xlink:href="#d"/>
</g>
</g>
<g clip-path="url(#a)">
<g transform="translate(1631.9 1046.4) scale(.1 -.1)">
<use xlink:href="#ah"/>
<use x="81.787109" xlink:href="#e"/>
<use x="143.066406" xlink:href="#n"/>
</g>
</g>
<g clip-path="url(#a)">
<g transform="translate(1702.4 1046.4) scale(.1 -.1)">
<use xlink:href="#m"/>
<use x="39.208984" xlink:href="#e"/>
<use x="100.488281" xlink:href="#i"/>
<use x="128.271484" xlink:href="#d"/>
<use x="189.794922" xlink:href="#j"/>
<use x="253.173828" xlink:href="#m"/>
<use x="292.382812" xlink:href="#d"/>
<use x="353.90625" xlink:href="#t"/>
</g>
</g>
<g clip-path="url(#a)">
<g transform="translate(1797.6 1046.4) scale(.1 -.1)">
<use xlink:href="#e"/>
<use x="61.279297" xlink:href="#j"/>
<use x="124.658203" xlink:href="#t"/>
</g>
</g>
<g clip-path="url(#a)">
<defs>
<path id="ay" d="m2.9844 54.688h9.5156l17.094-45.891 17.094 45.891h9.5156l-20.516-54.688h-12.203z"/>
</defs>
<g transform="translate(1868.6 1046.4) scale(.1 -.1)">
<use xlink:href="#e"/>
<use x="61.279297" xlink:href="#m"/>
<use x="100.488281" xlink:href="#m"/>
<use x="139.697266" xlink:href="#f"/>
<use x="180.810547" xlink:href="#e"/>
<use x="242.089844" xlink:href="#u"/>
<use x="297.070312" xlink:href="#m"/>
<use x="336.279297" xlink:href="#h"/>
<use x="364.0625" xlink:href="#ay"/>
<use x="423.242188" xlink:href="#d"/>
</g>
</g>
<g clip-path="url(#a)">
<defs>
<path id="g" d="m10.688 12.406h10.312v-12.406h-10.312z"/>
</defs>
<g transform="translate(1979.2 1046.4) scale(.1 -.1)">
<use xlink:href="#g"/>
</g>
</g>
<g clip-path="url(#a)">
<defs>
<path id="ad" d="m9.8125 72.906h9.8594v-72.906h-9.8594z"/>
<path id="au" d="m9.8125 72.906h14.703l18.594-49.609 18.703 49.609h14.703v-72.906h-9.625v64.016l-18.797-50h-9.9062l-18.797 50v-64.016h-9.5781z"/>
</defs>
<g transform="translate(1961.8 453.07) scale(.1 -.1)">
<use xlink:href="#ad"/>
<use x="29.492188" xlink:href="#au"/>
<use x="115.771484" xlink:href="#aa"/>
<use x="176.074219" xlink:href="#ac"/>
<use x="231.787109" xlink:href="#ad"/>
<use x="261.279297" xlink:href="#ab"/>
<use x="331.103516" xlink:href="#ad"/>
<use x="360.595703" xlink:href="#k"/>
</g>
</g>
<g clip-path="url(#a)">
<g transform="translate(163.37 850.78) scale(.1 -.1)">
<use xlink:href="#ad"/>
<use x="29.492188" xlink:href="#au"/>
<use x="115.771484" xlink:href="#aa"/>
<use x="176.074219" xlink:href="#ac"/>
<use x="231.787109" xlink:href="#ad"/>
<use x="261.279297" xlink:href="#ab"/>
<use x="331.103516" xlink:href="#ad"/>
<use x="360.595703" xlink:href="#k"/>
</g>
</g>
<g clip-path="url(#a)">
<defs>
<path id="c" d="m12.406 8.2969h16.109v55.625l-17.531-3.5156v8.9844l17.438 3.5156h9.8594v-64.609h16.109v-8.2969h-41.984z"/>
</defs>
<g transform="translate(490.1 52.456) scale(.1 -.1)">
<use xlink:href="#c"/>
<use x="63.623047" xlink:href="#g"/>
<use x="95.410156" xlink:href="#c"/>
</g>
</g>
<g clip-path="url(#a)">
<defs>
<path id="r" d="m19.188 8.2969h34.422v-8.2969h-46.281v8.2969q5.6094 5.8125 15.297 15.594 9.7031 9.7969 12.188 12.641 4.7344 5.3125 6.6094 9 1.8906 3.6875 1.8906 7.25 0 5.8125-4.0781 9.4688-4.0781 3.6719-10.625 3.6719-4.6406 0-9.7969-1.6094-5.1406-1.6094-11-4.8906v9.9688q5.9531 2.3906 11.125 3.6094 5.1875 1.2188 9.4844 1.2188 11.328 0 18.062-5.6719 6.7344-5.6562 6.7344-15.125 0-4.5-1.6875-8.5312-1.6719-4.0156-6.125-9.4844-1.2188-1.4219-7.7656-8.1875-6.5312-6.7656-18.453-18.922z"/>
</defs>
<g transform="translate(86.473 850.78) scale(.1 -.1)">
<use xlink:href="#c"/>
<use x="63.623047" xlink:href="#g"/>
<use x="95.410156" xlink:href="#r"/>
</g>
</g>
<g clip-path="url(#a)">
<defs>
<path id="s" d="m40.578 39.312q7.0781-1.5156 11.047-6.3125 3.9844-4.7812 3.9844-11.812 0-10.781-7.4219-16.703-7.4219-5.9062-21.094-5.9062-4.5781 0-9.4375 0.90625t-10.031 2.7188v9.5156q4.0938-2.3906 8.9688-3.6094 4.8906-1.2188 10.219-1.2188 9.2656 0 14.125 3.6562t4.8594 10.641q0 6.4531-4.5156 10.078-4.5156 3.6406-12.562 3.6406h-8.5v8.1094h8.8906q7.2656 0 11.125 2.9062t3.8594 8.375q0 5.6094-3.9844 8.6094-3.9688 3.0156-11.391 3.0156-4.0625 0-8.7031-0.89062-4.6406-0.875-10.203-2.7188v8.7812q5.625 1.5625 10.531 2.3438t9.25 0.78125q11.234 0 17.766-5.1094 6.5469-5.0938 6.5469-13.781 0-6.0625-3.4688-10.234t-9.8594-5.7812z"/>
</defs>
<g transform="translate(238.96 453.07) scale(.1 -.1)">
<use xlink:href="#c"/>
<use x="63.623047" xlink:href="#g"/>
<use x="95.410156" xlink:href="#s"/>
</g>
</g>
<g clip-path="url(#a)">
<defs>
<path id="q" d="m37.797 64.312-24.906-38.922h24.906zm-2.5938 8.5938h12.406v-47.516h10.406v-8.2031h-10.406v-17.188h-9.8125v17.188h-32.906v9.5156z"/>
</defs>
<g transform="translate(393.19 652.45) scale(.1 -.1)">
<use xlink:href="#c"/>
<use x="63.623047" xlink:href="#g"/>
<use x="95.410156" xlink:href="#q"/>
</g>
</g>
<g clip-path="url(#a)">
<defs>
<path id="p" d="m10.797 72.906h38.719v-8.3125h-29.688v-17.859q2.1406 0.73438 4.2812 1.0938 2.1562 0.35938 4.3125 0.35938 12.203 0 19.328-6.6875 7.1406-6.6875 7.1406-18.109 0-11.766-7.3281-18.297-7.3281-6.5156-20.656-6.5156-4.5938 0-9.3594 0.78125-4.75 0.78125-9.8281 2.3438v9.9219q4.3906-2.3906 9.0781-3.5625t9.9062-1.1719q8.4531 0 13.375 4.4375 4.9375 4.4375 4.9375 12.062 0 7.6094-4.9375 12.047-4.9219 4.4531-13.375 4.4531-3.9531 0-7.8906-0.875-3.9219-0.875-8.0156-2.7344z"/>
</defs>
<g transform="translate(359.35 652.45) scale(.1 -.1)">
<use xlink:href="#c"/>
<use x="63.623047" xlink:href="#g"/>
<use x="95.410156" xlink:href="#p"/>
</g>
</g>
<g clip-path="url(#a)">
<defs>
<path id="x" d="m33.016 40.375q-6.6406 0-10.531-4.5469-3.875-4.5312-3.875-12.438 0-7.8594 3.875-12.438 3.8906-4.5625 10.531-4.5625t10.516 4.5625q3.875 4.5781 3.875 12.438 0 7.9062-3.875 12.438-3.875 4.5469-10.516 4.5469zm19.578 30.922v-8.9844q-3.7188 1.75-7.5 2.6719-3.7812 0.9375-7.5 0.9375-9.7656 0-14.922-6.5938-5.1406-6.5938-5.875-19.922 2.875 4.25 7.2188 6.5156 4.3594 2.2656 9.5781 2.2656 10.984 0 17.359-6.6719 6.375-6.6562 6.375-18.125 0-11.234-6.6406-18.031-6.6406-6.7812-17.672-6.7812-12.656 0-19.344 9.6875-6.6875 9.7031-6.6875 28.109 0 17.281 8.2031 27.562t22.016 10.281q3.7188 0 7.5-0.73438t7.8906-2.1875z"/>
</defs>
<g transform="translate(272.81 850.78) scale(.1 -.1)">
<use xlink:href="#c"/>
<use x="63.623047" xlink:href="#g"/>
<use x="95.410156" xlink:href="#x"/>
</g>
</g>
<g clip-path="url(#a)">
<defs>
<path id="ag" d="m8.2031 72.906h46.875v-4.2031l-26.469-68.703h-10.297l24.906 64.594h-35.016z"/>
</defs>
<g transform="translate(397.91 453.07) scale(.1 -.1)">
<use xlink:href="#c"/>
<use x="63.623047" xlink:href="#g"/>
<use x="95.410156" xlink:href="#ag"/>
</g>
</g>
<g clip-path="url(#a)">
<defs>
<path id="af" d="m31.781 34.625q-7.0312 0-11.062-3.7656-4.0156-3.7656-4.0156-10.344 0-6.5938 4.0156-10.359 4.0312-3.7656 11.062-3.7656t11.078 3.7812q4.0625 3.7969 4.0625 10.344 0 6.5781-4.0312 10.344-4.0156 3.7656-11.109 3.7656zm-9.8594 4.1875q-6.3438 1.5625-9.8906 5.9062-3.5312 4.3594-3.5312 10.609 0 8.7344 6.2188 13.812 6.2344 5.0781 17.062 5.0781 10.891 0 17.094-5.0781t6.2031-13.812q0-6.25-3.5469-10.609-3.5312-4.3438-9.8281-5.9062 7.125-1.6562 11.094-6.5 3.9844-4.8281 3.9844-11.797 0-10.609-6.4688-16.281-6.4688-5.6562-18.531-5.6562-12.047 0-18.531 5.6562-6.4688 5.6719-6.4688 16.281 0 6.9688 4 11.797 4.0156 4.8438 11.141 6.5zm-3.6094 15.578q0-5.6562 3.5312-8.8281 3.5469-3.1719 9.9375-3.1719 6.3594 0 9.9375 3.1719 3.5938 3.1719 3.5938 8.8281 0 5.6719-3.5938 8.8438-3.5781 3.1719-9.9375 3.1719-6.3906 0-9.9375-3.1719-3.5312-3.1719-3.5312-8.8438z"/>
</defs>
<g transform="translate(765.17 453.07) scale(.1 -.1)">
<use xlink:href="#c"/>
<use x="63.623047" xlink:href="#g"/>
<use x="95.410156" xlink:href="#af"/>
</g>
</g>
<g clip-path="url(#a)">
<defs>
<path id="ae" d="m10.984 1.5156v8.9844q3.7188-1.7656 7.5156-2.6875 3.8125-0.92188 7.4844-0.92188 9.7656 0 14.906 6.5625 5.1562 6.5625 5.8906 19.953-2.8281-4.2031-7.1875-6.4531-4.3438-2.25-9.6094-2.25-10.938 0-17.312 6.6094-6.375 6.625-6.375 18.109 0 11.219 6.6406 18 6.6406 6.7969 17.672 6.7969 12.656 0 19.312-9.7031 6.6719-9.6875 6.6719-28.141 0-17.234-8.1875-27.516-8.1719-10.281-21.984-10.281-3.7188 0-7.5312 0.73438-3.7969 0.73438-7.9062 2.2031zm19.625 30.906q6.6406 0 10.516 4.5312 3.8906 4.5469 3.8906 12.469 0 7.8594-3.8906 12.422-3.875 4.5625-10.516 4.5625t-10.516-4.5625-3.875-12.422q0-7.9219 3.875-12.469 3.875-4.5312 10.516-4.5312z"/>
</defs>
<g transform="translate(1187.7 850.78) scale(.1 -.1)">
<use xlink:href="#c"/>
<use x="63.623047" xlink:href="#g"/>
<use x="95.410156" xlink:href="#ae"/>
</g>
</g>
<g clip-path="url(#a)">
<defs>
<path id="ak" d="m31.781 66.406q-7.6094 0-11.453-7.5-3.8281-7.4844-3.8281-22.531 0-14.984 3.8281-22.484 3.8438-7.5 11.453-7.5 7.6719 0 11.5 7.5 3.8438 7.5 3.8438 22.484 0 15.047-3.8438 22.531-3.8281 7.5-11.5 7.5zm0 7.8125q12.266 0 18.734-9.7031 6.4688-9.6875 6.4688-28.141 0-18.406-6.4688-28.109-6.4688-9.6875-18.734-9.6875-12.25 0-18.719 9.6875-6.4688 9.7031-6.4688 28.109 0 18.453 6.4688 28.141 6.4688 9.7031 18.719 9.7031z"/>
</defs>
<g transform="translate(1257.5 253.02) scale(.1 -.1)">
<use xlink:href="#c"/>
<use x="63.623047" xlink:href="#g"/>
<use x="95.410156" xlink:href="#c"/>
<use x="159.033203" xlink:href="#ak"/>
</g>
</g>
<g clip-path="url(#a)">
<g transform="translate(1253.6 850.78) scale(.1 -.1)">
<use xlink:href="#c"/>
<use x="63.623047" xlink:href="#g"/>
<use x="95.410156" xlink:href="#c"/>
<use x="159.033203" xlink:href="#p"/>
</g>
</g>
<g clip-path="url(#a)">
<g transform="translate(1324.8 850.78) scale(.1 -.1)">
<use xlink:href="#c"/>
<use x="63.623047" xlink:href="#g"/>
<use x="95.410156" xlink:href="#c"/>
<use x="159.033203" xlink:href="#x"/>
</g>
</g>
<g clip-path="url(#a)">
<g transform="translate(1398.1 850.78) scale(.1 -.1)">
<use xlink:href="#c"/>
<use x="63.623047" xlink:href="#g"/>
<use x="95.410156" xlink:href="#c"/>
<use x="159.033203" xlink:href="#ag"/>
</g>
</g>
<g clip-path="url(#a)">
<g transform="translate(1702.2 453.07) scale(.1 -.1)">
<use xlink:href="#c"/>
<use x="63.623047" xlink:href="#g"/>
<use x="95.410156" xlink:href="#c"/>
<use x="159.033203" xlink:href="#af"/>
</g>
</g>
<g clip-path="url(#a)">
<g transform="translate(1795.9 850.78) scale(.1 -.1)">
<use xlink:href="#c"/>
<use x="63.623047" xlink:href="#g"/>
<use x="95.410156" xlink:href="#c"/>
<use x="159.033203" xlink:href="#ae"/>
</g>
</g>
<g clip-path="url(#a)">
<g transform="translate(1591.8 652.45) scale(.1 -.1)">
<use xlink:href="#c"/>
<use x="63.623047" xlink:href="#g"/>
<use x="95.410156" xlink:href="#r"/>
<use x="159.033203" xlink:href="#ak"/>
</g>
</g>
<g clip-path="url(#a)">
<g transform="translate(1719 652.45) scale(.1 -.1)">
<use xlink:href="#c"/>
<use x="63.623047" xlink:href="#g"/>
<use x="95.410156" xlink:href="#r"/>
<use x="159.033203" xlink:href="#c"/>
</g>
</g>
<g clip-path="url(#a)">
<g transform="translate(1881.7 850.78) scale(.1 -.1)">
<use xlink:href="#c"/>
<use x="63.623047" xlink:href="#g"/>
<use x="95.410156" xlink:href="#r"/>
<use x="159.033203" xlink:href="#r"/>
</g>
</g>
<g clip-path="url(#a)">
<g transform="translate(1473.5 850.78) scale(.1 -.1)">
<use xlink:href="#c"/>
<use x="63.623047" xlink:href="#g"/>
<use x="95.410156" xlink:href="#r"/>
<use x="159.033203" xlink:href="#q"/>
</g>
</g>
<g clip-path="url(#a)">
<g transform="translate(1550.9 850.78) scale(.1 -.1)">
<use xlink:href="#c"/>
<use x="63.623047" xlink:href="#g"/>
<use x="95.410156" xlink:href="#r"/>
<use x="159.033203" xlink:href="#p"/>
</g>
</g>
<g clip-path="url(#a)">
<g transform="translate(1630.5 850.78) scale(.1 -.1)">
<use xlink:href="#c"/>
<use x="63.623047" xlink:href="#g"/>
<use x="95.410156" xlink:href="#r"/>
<use x="159.033203" xlink:href="#x"/>
</g>
</g>
<g clip-path="url(#a)">
<g transform="translate(1712.2 850.78) scale(.1 -.1)">
<use xlink:href="#c"/>
<use x="63.623047" xlink:href="#g"/>
<use x="95.410156" xlink:href="#r"/>
<use x="159.033203" xlink:href="#ag"/>
</g>
</g>
<g clip-path="url(#a)">
<g transform="translate(608.8 850.78) scale(.1 -.1)">
<use xlink:href="#c"/>
<use x="63.623047" xlink:href="#g"/>
<use x="95.410156" xlink:href="#r"/>
<use x="159.033203" xlink:href="#af"/>
</g>
</g>
<g clip-path="url(#a)">
<g transform="translate(656.96 850.78) scale(.1 -.1)">
<use xlink:href="#c"/>
<use x="63.623047" xlink:href="#g"/>
<use x="95.410156" xlink:href="#r"/>
<use x="159.033203" xlink:href="#ae"/>
</g>
</g>
<g clip-path="url(#a)">
<g transform="translate(707.2 850.78) scale(.1 -.1)">
<use xlink:href="#c"/>
<use x="63.623047" xlink:href="#g"/>
<use x="95.410156" xlink:href="#s"/>
<use x="159.033203" xlink:href="#ak"/>
</g>
</g>
<g clip-path="url(#a)">
<g transform="translate(814.68 652.45) scale(.1 -.1)">
<use xlink:href="#c"/>
<use x="63.623047" xlink:href="#g"/>
<use x="95.410156" xlink:href="#s"/>
<use x="159.033203" xlink:href="#c"/>
</g>
</g>
<g clip-path="url(#a)">
<g transform="translate(1022.3 652.45) scale(.1 -.1)">
<use xlink:href="#c"/>
<use x="63.623047" xlink:href="#g"/>
<use x="95.410156" xlink:href="#s"/>
<use x="159.033203" xlink:href="#r"/>
</g>
</g>
<g clip-path="url(#a)">
<g transform="translate(929.13 850.78) scale(.1 -.1)">
<use xlink:href="#c"/>
<use x="63.623047" xlink:href="#g"/>
<use x="95.410156" xlink:href="#s"/>
<use x="159.033203" xlink:href="#s"/>
</g>
</g>
<g clip-path="url(#a)">
<g transform="translate(989.85 850.78) scale(.1 -.1)">
<use xlink:href="#c"/>
<use x="63.623047" xlink:href="#g"/>
<use x="95.410156" xlink:href="#s"/>
<use x="159.033203" xlink:href="#q"/>
</g>
</g>
<g clip-path="url(#a)">
<g transform="translate(1117.6 850.78) scale(.1 -.1)">
<use xlink:href="#c"/>
<use x="63.623047" xlink:href="#g"/>
<use x="95.410156" xlink:href="#s"/>
<use x="159.033203" xlink:href="#p"/>
</g>
</g>
<g clip-path="url(#a)">
<g transform="translate(759.54 850.78) scale(.1 -.1)">
<use xlink:href="#c"/>
<use x="63.623047" xlink:href="#g"/>
<use x="95.410156" xlink:href="#s"/>
<use x="159.033203" xlink:href="#ag"/>
</g>
</g>
<g clip-path="url(#a)">
<g transform="translate(813.98 850.78) scale(.1 -.1)">
<use xlink:href="#c"/>
<use x="63.623047" xlink:href="#g"/>
<use x="95.410156" xlink:href="#s"/>
<use x="159.033203" xlink:href="#af"/>
</g>
</g>
<g clip-path="url(#a)">
<g transform="translate(870.51 850.78) scale(.1 -.1)">
<use xlink:href="#c"/>
<use x="63.623047" xlink:href="#g"/>
<use x="95.410156" xlink:href="#s"/>
<use x="159.033203" xlink:href="#ae"/>
</g>
</g>
<g clip-path="url(#a)">
<g transform="translate(298.94 850.78) scale(.1 -.1)">
<use xlink:href="#c"/>
<use x="63.623047" xlink:href="#g"/>
<use x="95.410156" xlink:href="#q"/>
<use x="159.033203" xlink:href="#ak"/>
</g>
</g>
<g clip-path="url(#a)">
<g transform="translate(330.34 850.78) scale(.1 -.1)">
<use xlink:href="#c"/>
<use x="63.623047" xlink:href="#g"/>
<use x="95.410156" xlink:href="#q"/>
<use x="159.033203" xlink:href="#c"/>
</g>
</g>
<g clip-path="url(#a)">
<g transform="translate(363.84 850.78) scale(.1 -.1)">
<use xlink:href="#c"/>
<use x="63.623047" xlink:href="#g"/>
<use x="95.410156" xlink:href="#q"/>
<use x="159.033203" xlink:href="#r"/>
</g>
</g>
<g clip-path="url(#a)">
<g transform="translate(399.43 850.78) scale(.1 -.1)">
<use xlink:href="#c"/>
<use x="63.623047" xlink:href="#g"/>
<use x="95.410156" xlink:href="#q"/>
<use x="159.033203" xlink:href="#s"/>
</g>
</g>
<g clip-path="url(#a)">
<g transform="translate(457.01 652.45) scale(.1 -.1)">
<use xlink:href="#c"/>
<use x="63.623047" xlink:href="#g"/>
<use x="95.410156" xlink:href="#q"/>
<use x="159.033203" xlink:href="#q"/>
</g>
</g>
<g clip-path="url(#a)">
<g transform="translate(518.77 850.78) scale(.1 -.1)">
<use xlink:href="#c"/>
<use x="63.623047" xlink:href="#g"/>
<use x="95.410156" xlink:href="#q"/>
<use x="159.033203" xlink:href="#p"/>
</g>
</g>
<g clip-path="url(#a)">
<g transform="translate(437.12 850.78) scale(.1 -.1)">
<use xlink:href="#c"/>
<use x="63.623047" xlink:href="#g"/>
<use x="95.410156" xlink:href="#q"/>
<use x="159.033203" xlink:href="#x"/>
</g>
</g>
<g clip-path="url(#a)">
<g transform="translate(476.9 850.78) scale(.1 -.1)">
<use xlink:href="#c"/>
<use x="63.623047" xlink:href="#g"/>
<use x="95.410156" xlink:href="#q"/>
<use x="159.033203" xlink:href="#ag"/>
</g>
</g>
<g clip-path="url(#a)">
<g transform="translate(217.29 850.78) scale(.1 -.1)">
<use xlink:href="#c"/>
<use x="63.623047" xlink:href="#g"/>
<use x="95.410156" xlink:href="#q"/>
<use x="159.033203" xlink:href="#af"/>
</g>
</g>
<g clip-path="url(#a)">
<g transform="translate(242.41 850.78) scale(.1 -.1)">
<use xlink:href="#c"/>
<use x="63.623047" xlink:href="#g"/>
<use x="95.410156" xlink:href="#q"/>
<use x="159.033203" xlink:href="#ae"/>
</g>
</g>
<g clip-path="url(#a)">
<g transform="translate(171.23 850.78) scale(.1 -.1)">
<use xlink:href="#c"/>
<use x="63.623047" xlink:href="#g"/>
<use x="95.410156" xlink:href="#p"/>
<use x="159.033203" xlink:href="#c"/>
</g>
</g>
<g clip-path="url(#a)">
<g transform="translate(89.572 850.78) scale(.1 -.1)">
<use xlink:href="#c"/>
<use x="63.623047" xlink:href="#g"/>
<use x="95.410156" xlink:href="#p"/>
<use x="159.033203" xlink:href="#r"/>
</g>
</g>
<g clip-path="url(#a)">
<g transform="translate(109.11 652.45) scale(.1 -.1)">
<use xlink:href="#c"/>
<use x="63.623047" xlink:href="#g"/>
<use x="95.410156" xlink:href="#p"/>
<use x="159.033203" xlink:href="#s"/>
</g>
</g>
<g clip-path="url(#a)">
<g transform="translate(135.63 850.78) scale(.1 -.1)">
<use xlink:href="#c"/>
<use x="63.623047" xlink:href="#g"/>
<use x="95.410156" xlink:href="#p"/>
<use x="159.033203" xlink:href="#q"/>
</g>
</g>
<g clip-path="url(#a)">
<g transform="translate(97.947 850.78) scale(.1 -.1)">
<use xlink:href="#c"/>
<use x="63.623047" xlink:href="#g"/>
<use x="95.410156" xlink:href="#p"/>
<use x="159.033203" xlink:href="#p"/>
</g>
</g>
<g clip-path="url(#a)">
<g transform="translate(108.42 850.78) scale(.1 -.1)">
<use xlink:href="#c"/>
<use x="63.623047" xlink:href="#g"/>
<use x="95.410156" xlink:href="#p"/>
<use x="159.033203" xlink:href="#x"/>
</g>
</g>
<g clip-path="url(#a)">
<g transform="translate(120.98 850.78) scale(.1 -.1)">
<use xlink:href="#c"/>
<use x="63.623047" xlink:href="#g"/>
<use x="95.410156" xlink:href="#p"/>
<use x="159.033203" xlink:href="#ag"/>
</g>
</g>
<g clip-path="url(#a)">
<g transform="translate(152.38 850.78) scale(.1 -.1)">
<use xlink:href="#c"/>
<use x="63.623047" xlink:href="#g"/>
<use x="95.410156" xlink:href="#p"/>
<use x="159.033203" xlink:href="#af"/>
</g>
</g>
<g clip-path="url(#a)">
<g transform="translate(194.26 850.78) scale(.1 -.1)">
<use xlink:href="#c"/>
<use x="63.623047" xlink:href="#g"/>
<use x="95.410156" xlink:href="#p"/>
<use x="159.033203" xlink:href="#ae"/>
</g>
</g>
<g clip-path="url(#a)">
<g transform="translate(562.74 850.78) scale(.1 -.1)">
<use xlink:href="#c"/>
<use x="63.623047" xlink:href="#g"/>
<use x="95.410156" xlink:href="#x"/>
<use x="159.033203" xlink:href="#ak"/>
</g>
</g>
<g clip-path="url(#a)">
<g transform="translate(1052.7 850.78) scale(.1 -.1)">
<use xlink:href="#c"/>
<use x="63.623047" xlink:href="#g"/>
<use x="95.410156" xlink:href="#x"/>
<use x="159.033203" xlink:href="#c"/>
</g>
</g>
<g clip-path="url(#a)">
<g transform="translate(1969.7 850.78) scale(.1 -.1)">
<use xlink:href="#c"/>
<use x="63.623047" xlink:href="#g"/>
<use x="95.410156" xlink:href="#x"/>
<use x="159.033203" xlink:href="#r"/>
</g>
</g>
<defs>
<clipPath id="a">
<rect width="2077.3" height="1093.3"/>
</clipPath>
</defs>
</svg>
