<?xml version="1.0" encoding="UTF-8"?>
<!DOCTYPE svg  PUBLIC '-//W3C//DTD SVG 1.1//EN'  'http://www.w3.org/Graphics/SVG/1.1/DTD/svg11.dtd'>
<svg width="1469.3pt" height="773.33pt" version="1.1" viewBox="0 0 1469.3 773.33" xmlns="http://www.w3.org/2000/svg" xmlns:xlink="http://www.w3.org/1999/xlink">
<defs>
<style type="text/css">*{stroke-linecap:butt;stroke-linejoin:round;}</style>
</defs>
<path d="m0 773.33h1469.3v-773.33h-1469.3z" fill="#fff"/>
<g fill="none" stroke="#000">
<path d="m292.03 35.152-146.63 202.55" clip-path="url(#a)"/>
<path d="m292.03 35.152 69.668 604.53" clip-path="url(#a)"/>
<path d="m292.03 35.152 76.959 101.36" clip-path="url(#a)"/>
<path d="m145.4 237.7-54.198 201.72" clip-path="url(#a)"/>
<path d="m145.4 237.7-6.3313 401.98" clip-path="url(#a)"/>
<path d="m145.4 237.7 60.529 100.99" clip-path="url(#a)"/>
<path d="m361.7 639.68v98.497" clip-path="url(#a)"/>
<path d="m368.99 136.51 36.077 503.17" clip-path="url(#a)"/>
<path d="m368.99 136.51 82.337 503.17" clip-path="url(#a)"/>
<path d="m368.99 136.51 131.74 101.19" clip-path="url(#a)"/>
<path d="m368.99 136.51-250.16 503.17" clip-path="url(#a)" stroke-dasharray="3.7,1.6"/>
<path d="m405.06 639.68v98.497" clip-path="url(#a)"/>
<path d="m451.32 639.68v98.497" clip-path="url(#a)"/>
<path d="m500.73 237.7-0.25298 401.98" clip-path="url(#a)"/>
<path d="m500.73 237.7 330.36 100.99" clip-path="url(#a)"/>
<path d="m500.73 237.7-381.9 401.98" clip-path="url(#a)" stroke-dasharray="3.7,1.6"/>
<path d="m500.73 237.7 51.79 401.98" clip-path="url(#a)"/>
<path d="m500.48 639.68v98.497" clip-path="url(#a)"/>
<path d="m831.09 338.69-223.64 300.99" clip-path="url(#a)"/>
<path d="m831.09 338.69-35.707 201.12" clip-path="url(#a)"/>
<path d="m831.09 338.69-105.1 300.99" clip-path="url(#a)"/>
<path d="m831.09 338.69-41.489 300.99" clip-path="url(#a)"/>
<path d="m831.09 338.69 25.009 300.99" clip-path="url(#a)"/>
<path d="m831.09 338.69 380.92 100.73" clip-path="url(#a)"/>
<path d="m607.45 639.68v98.497" clip-path="url(#a)"/>
<path d="m795.38 539.82-130.11 99.868" clip-path="url(#a)"/>
<path d="m795.38 539.82 130.11 99.868" clip-path="url(#a)"/>
<path d="m725.99 639.68v98.497" clip-path="url(#a)"/>
<path d="m789.6 639.68v98.497" clip-path="url(#a)"/>
<path d="m856.1 639.68v98.497" clip-path="url(#a)"/>
<path d="m1212 439.43-214.24 200.26" clip-path="url(#a)"/>
<path d="m1212 439.43-100.04 100.39" clip-path="url(#a)"/>
<path d="m1212 439.43 19.95 200.26" clip-path="url(#a)"/>
<path d="m1212 439.43 103.8 200.26" clip-path="url(#a)"/>
<path d="m1212 439.43 190.53 200.26" clip-path="url(#a)"/>
<path d="m997.77 639.68v98.497" clip-path="url(#a)"/>
<path d="m1112 539.82v99.868" clip-path="url(#a)"/>
<path d="m1232 639.68v98.497" clip-path="url(#a)"/>
<path d="m1112 639.68-39.032 98.497" clip-path="url(#a)"/>
<path d="m1112 639.68 39.032 98.497" clip-path="url(#a)"/>
<path d="m665.28 639.68v98.497" clip-path="url(#a)"/>
<path d="m925.49 639.68v98.497" clip-path="url(#a)"/>
<path d="m91.203 439.43-24.415 200.26" clip-path="url(#a)"/>
<path d="m91.203 439.43-3.2125 100.39" clip-path="url(#a)"/>
<path d="m91.203 439.43 27.628 200.26" clip-path="url(#a)"/>
<path d="m139.07 639.68v98.497" clip-path="url(#a)"/>
<path d="m205.93 338.69-43.73 300.99" clip-path="url(#a)"/>
<path d="m205.93 338.69-17.709 300.99" clip-path="url(#a)"/>
<path d="m205.93 338.69 11.204 300.99" clip-path="url(#a)"/>
<path d="m205.93 338.69 50.235 100.73" clip-path="url(#a)"/>
<path d="m162.2 639.68v98.497" clip-path="url(#a)"/>
<path d="m188.22 639.68v98.497" clip-path="url(#a)"/>
<path d="m217.13 639.68v98.497" clip-path="url(#a)"/>
<path d="m256.16 439.43-39.032 200.26" clip-path="url(#a)" stroke-dasharray="3.7,1.6"/>
<path d="m256.16 439.43-7.2281 200.26" clip-path="url(#a)"/>
<path d="m256.16 439.43 46.26 100.39" clip-path="url(#a)"/>
<path d="m248.94 639.68v98.497" clip-path="url(#a)"/>
<path d="m302.42 539.82-18.793 99.868" clip-path="url(#a)"/>
<path d="m302.42 539.82 18.793 99.868" clip-path="url(#a)"/>
<path d="m283.63 639.68v98.497" clip-path="url(#a)"/>
<path d="m321.22 639.68v98.497" clip-path="url(#a)"/>
<path d="m66.788 639.68v98.497" clip-path="url(#a)"/>
<path d="m87.99 539.82-12.529 99.868" clip-path="url(#a)"/>
<path d="m87.99 539.82 13.493 99.868" clip-path="url(#a)"/>
<path d="m87.99 539.82-0.96375 99.868" clip-path="url(#a)"/>
<path d="m118.83 639.68v98.497" clip-path="url(#a)"/>
<path d="m75.462 639.68v98.497" clip-path="url(#a)"/>
<path d="m101.48 639.68v98.497" clip-path="url(#a)"/>
<path d="m87.027 639.68v98.497" clip-path="url(#a)"/>
<path d="m552.52 639.68v98.497" clip-path="url(#a)"/>
<path d="m1315.8 639.68v98.497" clip-path="url(#a)"/>
<path d="m1402.5 639.68v98.497" clip-path="url(#a)"/>
</g>
<path d="m222.03 142.54 3.5278-4.8734q1.4073-1.9441-0.53677-3.3514l-6.2717-4.5401q-1.9441-1.4073-3.3514 0.53677l-3.5278 4.8734q-1.4073 1.9441 0.53677 3.3514l6.2717 4.5401q1.9441 1.4073 3.3514-0.53677z" clip-path="url(#a)" fill="#fff" stroke="#fff"/>
<g clip-path="url(#a)">
<defs>
<path id="ad" d="m9.8125 72.906h9.8594v-29.891h35.844v29.891h9.8594v-72.906h-9.8594v34.719h-35.844v-34.719h-9.8594z"/>
</defs>
<g transform="translate(218.74 140.16) rotate(-54.099) scale(.08 -.08)">
<use xlink:href="#ad"/>
</g>
</g>
<path d="m320.38 335.92 0.51032 4.4282q0.27476 2.3842 2.659 2.1095l7.6916-0.8864q2.3842-0.27476 2.1095-2.659l-0.51032-4.4282q-0.27476-2.3842-2.659-2.1095l-7.6916 0.8864q-2.3842 0.27476-2.1095 2.659z" clip-path="url(#a)" fill="#fff" stroke="#fff"/>
<g clip-path="url(#a)">
<defs>
<path id="at" d="m9.8125 72.906h9.8594v-64.609h35.5v-8.2969h-45.359z"/>
</defs>
<g transform="translate(324.41 335.46) rotate(83.426) scale(.08 -.08)">
<use xlink:href="#at"/>
</g>
</g>
<path d="m323.69 87.229 3.6381 4.7916q1.4513 1.9115 3.3628 0.46017l6.1665-4.682q1.9115-1.4513 0.46017-3.3628l-3.6381-4.7916q-1.4513-1.9115-3.3628-0.46017l-6.1665 4.682q-1.9115 1.4513-0.46017 3.3628z" clip-path="url(#a)" fill="#fff" stroke="#fff"/>
<g clip-path="url(#a)">
<g transform="translate(326.93 84.771) rotate(52.792) scale(.08 -.08)">
<use xlink:href="#ad"/>
</g>
</g>
<path d="m123.65 342.83 1.42-5.2851q0.62274-2.3178-1.6951-2.9405l-7.4773-2.009q-2.3178-0.62274-2.9405 1.6951l-1.42 5.2851q-0.62274 2.3178 1.6951 2.9405l7.4773 2.009q2.3178 0.62274 2.9405-1.6951z" clip-path="url(#a)" fill="#fff" stroke="#fff"/>
<g clip-path="url(#a)">
<defs>
<path id="p" d="m34.188 63.188-13.391-36.281h26.812zm-5.5781 9.7188h11.188l27.781-72.906h-10.25l-6.6406 18.703h-32.859l-6.6406-18.703h-10.406z"/>
</defs>
<g transform="translate(119.72 341.78) rotate(-74.961) scale(.08 -.08)">
<use xlink:href="#p"/>
</g>
</g>
<path d="m148.47 441.2 0.075966-4.8232q0.037796-2.3997-2.3619-2.4375l-7.7415-0.12193q-2.3997-0.037796-2.4375 2.3619l-0.075966 4.8232q-0.037796 2.3997 2.3619 2.4375l7.7415 0.12193q2.3997 0.037796 2.4375-2.3619z" clip-path="url(#a)" fill="#fff" stroke="#fff"/>
<g clip-path="url(#a)">
<defs>
<path id="v" d="m19.672 64.797v-27.391h12.406q6.8906 0 10.641 3.5625 3.7656 3.5625 3.7656 10.156 0 6.5469-3.7656 10.109-3.75 3.5625-10.641 3.5625zm-9.8594 8.1094h22.266q12.266 0 18.531-5.5469 6.2812-5.5469 6.2812-16.234 0-10.797-6.2812-16.312-6.2656-5.5156-18.531-5.5156h-12.406v-29.297h-9.8594z"/>
</defs>
<g transform="translate(144.4 441.14) rotate(-89.098) scale(.08 -.08)">
<use xlink:href="#v"/>
</g>
</g>
<path d="m168.88 289.08 2.8134 4.6939q1.2338 2.0586 3.2924 0.82473l6.641-3.9804q2.0586-1.2338 0.82473-3.2924l-2.8134-4.6939q-1.2338-2.0586-3.2924-0.82473l-6.641 3.9804q-2.0586 1.2338-0.82473 3.2924z" clip-path="url(#a)" fill="#fff" stroke="#fff"/>
<g clip-path="url(#a)">
<g transform="translate(172.36 286.99) rotate(59.063) scale(.08 -.08)">
<use xlink:href="#p"/>
</g>
</g>
<path d="m355.42 672.03v33.808q0 2.4 2.4 2.4h7.7425q2.4 0 2.4-2.4v-33.808q0-2.4-2.4-2.4h-7.7425q-2.4 0-2.4 2.4z" clip-path="url(#a)" fill="#fff" stroke="#fff"/>
<g clip-path="url(#a)">
<defs>
<path id="k" d="m-0.29688 72.906h61.672v-8.3125h-25.875v-64.594h-9.9062v64.594h-25.891z"/>
<path id="d" d="m56.203 29.594v-4.3906h-41.312q0.59375-9.2812 5.5938-14.141t13.938-4.8594q5.1719 0 10.031 1.2656t9.6562 3.8125v-8.5q-4.8438-2.0469-9.9219-3.125t-10.297-1.0781q-13.094 0-20.734 7.6094-7.6406 7.625-7.6406 20.625 0 13.422 7.25 21.297 7.25 7.8906 19.562 7.8906 11.031 0 17.453-7.1094 6.4219-7.0938 6.4219-19.297zm-8.9844 2.6406q-0.09375 7.3594-4.125 11.75-4.0312 4.4062-10.672 4.4062-7.5156 0-12.031-4.25t-5.2031-11.969z"/>
<path id="f" d="m41.109 46.297q-1.5156 0.875-3.2969 1.2812-1.7812 0.42188-3.9219 0.42188-7.625 0-11.703-4.9531t-4.0781-14.234v-28.812h-9.0312v54.688h9.0312v-8.5q2.8438 4.9844 7.375 7.3906 4.5469 2.4219 11.047 2.4219 0.92188 0 2.0469-0.125 1.125-0.10938 2.4844-0.35938z"/>
<path id="l" d="m52 44.188q3.375 6.0625 8.0625 8.9375t11.031 2.875q8.5469 0 13.188-5.9844 4.6406-5.9688 4.6406-17v-33.016h-9.0312v32.719q0 7.8594-2.7969 11.656-2.7812 3.8125-8.4844 3.8125-6.9844 0-11.047-4.6406-4.0469-4.625-4.0469-12.641v-30.906h-9.0312v32.719q0 7.9062-2.7812 11.688t-8.5938 3.7812q-6.8906 0-10.953-4.6562-4.0469-4.6562-4.0469-12.625v-30.906h-9.0312v54.688h9.0312v-8.5q3.0781 5.0312 7.375 7.4219t10.203 2.3906q5.9688 0 10.141-3.0312 4.1719-3.0156 6.1719-8.7812z"/>
<path id="i" d="m9.4219 54.688h8.9844v-54.688h-8.9844zm0 21.297h8.9844v-11.391h-8.9844z"/>
<path id="h" d="m54.891 33.016v-33.016h-8.9844v32.719q0 7.7656-3.0312 11.609-3.0312 3.8594-9.0781 3.8594-7.2812 0-11.484-4.6406-4.2031-4.625-4.2031-12.641v-30.906h-9.0312v54.688h9.0312v-8.5q3.2344 4.9375 7.5938 7.375 4.375 2.4375 10.094 2.4375 9.4219 0 14.25-5.8281 4.8438-5.8281 4.8438-17.156z"/>
<path id="g" d="m34.281 27.484q-10.891 0-15.094-2.4844t-4.2031-8.5q0-4.7812 3.1562-7.5938 3.1562-2.7969 8.5625-2.7969 7.4844 0 12 5.2969t4.5156 14.078v2zm17.922 3.7188v-31.203h-8.9844v8.2969q-3.0781-4.9688-7.6719-7.3438t-11.234-2.375q-8.3906 0-13.359 4.7188-4.9531 4.7188-4.9531 12.625 0 9.2188 6.1719 13.906 6.1875 4.6875 18.438 4.6875h12.609v0.89062q0 6.2031-4.0781 9.5938t-11.453 3.3906q-4.6875 0-9.1406-1.125-4.4375-1.125-8.5312-3.375v8.3125q4.9219 1.9062 9.5625 2.8438 4.6406 0.95312 9.0312 0.95312 11.875 0 17.734-6.1562 5.8594-6.1406 5.8594-18.641z"/>
<path id="j" d="m9.4219 75.984h8.9844v-75.984h-8.9844z"/>
</defs>
<g transform="translate(359.49 672.03) rotate(90) scale(.08 -.08)">
<use xlink:href="#k"/>
<use x="44.083984" xlink:href="#d"/>
<use x="105.607422" xlink:href="#f"/>
<use x="144.970703" xlink:href="#l"/>
<use x="242.382812" xlink:href="#i"/>
<use x="270.166016" xlink:href="#h"/>
<use x="333.544922" xlink:href="#g"/>
<use x="394.824219" xlink:href="#j"/>
</g>
</g>
<path d="m380.61 386.25 0.32906 4.5895q0.17164 2.3939 2.5655 2.2222l7.7227-0.55372q2.3939-0.17164 2.2222-2.5655l-0.32906-4.5895q-0.17164-2.3939-2.5655-2.2222l-7.7227 0.55372q-2.3939 0.17164-2.2222 2.5655z" clip-path="url(#a)" fill="#fff" stroke="#fff"/>
<g clip-path="url(#a)">
<defs>
<path id="ae" d="m9.8125 72.906h41.891v-8.3125h-32.031v-21.484h28.906v-8.2969h-28.906v-34.812h-9.8594z"/>
</defs>
<g transform="translate(384.66 385.96) rotate(85.899) scale(.08 -.08)">
<use xlink:href="#ae"/>
</g>
</g>
<path d="m403.58 386.73 0.77898 4.7604q0.38757 2.3685 2.7561 1.9809l7.6409-1.2503q2.3685-0.38757 1.9809-2.7561l-0.77898-4.7604q-0.38757-2.3685-2.7561-1.9809l-7.6409 1.2503q-2.3685 0.38757-1.9809 2.7561z" clip-path="url(#a)" fill="#fff" stroke="#fff"/>
<g clip-path="url(#a)">
<g transform="translate(407.59 386.07) rotate(80.707) scale(.08 -.08)">
<use xlink:href="#v"/>
</g>
</g>
<path d="m428.87 190.42 4.34 3.3336q1.9033 1.462 3.3653-0.44137l4.7163-6.1402q1.462-1.9033-0.44137-3.3653l-4.34-3.3336q-1.9033-1.462-3.3653 0.44137l-4.7163 6.1402q-1.462 1.9033 0.44137 3.3653z" clip-path="url(#a)" fill="#fff" stroke="#fff"/>
<g clip-path="url(#a)">
<g transform="translate(431.34 187.19) rotate(37.528) scale(.08 -.08)">
<use xlink:href="#p"/>
</g>
</g>
<path d="m248.31 393.34 2.4362-4.9003q1.0684-2.1491-1.0806-3.2175l-6.933-3.4468q-2.1491-1.0684-3.2175 1.0806l-2.4362 4.9003q-1.0684 2.1491 1.0806 3.2175l6.933 3.4468q2.1491 1.0684 3.2175-1.0806z" clip-path="url(#a)" fill="#fff" stroke="#fff"/>
<g clip-path="url(#a)">
<g transform="translate(244.67 391.53) rotate(-63.565) scale(.08 -.08)">
<use xlink:href="#p"/>
</g>
</g>
<path d="m398.79 672.03v33.808q0 2.4 2.4 2.4h7.7425q2.4 0 2.4-2.4v-33.808q0-2.4-2.4-2.4h-7.7425q-2.4 0-2.4 2.4z" clip-path="url(#a)" fill="#fff" stroke="#fff"/>
<g clip-path="url(#a)">
<g transform="translate(402.86 672.03) rotate(90) scale(.08 -.08)">
<use xlink:href="#k"/>
<use x="44.083984" xlink:href="#d"/>
<use x="105.607422" xlink:href="#f"/>
<use x="144.970703" xlink:href="#l"/>
<use x="242.382812" xlink:href="#i"/>
<use x="270.166016" xlink:href="#h"/>
<use x="333.544922" xlink:href="#g"/>
<use x="394.824219" xlink:href="#j"/>
</g>
</g>
<path d="m445.05 672.03v33.808q0 2.4 2.4 2.4h7.7425q2.4 0 2.4-2.4v-33.808q0-2.4-2.4-2.4h-7.7425q-2.4 0-2.4 2.4z" clip-path="url(#a)" fill="#fff" stroke="#fff"/>
<g clip-path="url(#a)">
<g transform="translate(449.12 672.03) rotate(90) scale(.08 -.08)">
<use xlink:href="#k"/>
<use x="44.083984" xlink:href="#d"/>
<use x="105.607422" xlink:href="#f"/>
<use x="144.970703" xlink:href="#l"/>
<use x="242.382812" xlink:href="#i"/>
<use x="270.166016" xlink:href="#h"/>
<use x="333.544922" xlink:href="#g"/>
<use x="394.824219" xlink:href="#j"/>
</g>
</g>
<path d="m506.87 441.24 0.003196-5.0787q0.001511-2.4-2.3985-2.4015l-7.7425-0.004873q-2.4-0.001511-2.4015 2.3985l-0.003196 5.0787q-0.001511 2.4 2.3985 2.4015l7.7425 0.004873q2.4 0.00151 2.4015-2.3985z" clip-path="url(#a)" fill="#fff" stroke="#fff"/>
<g clip-path="url(#a)">
<defs>
<path id="an" d="m53.516 70.516v-9.625q-5.6094 2.6875-10.594 4-4.9844 1.3281-9.625 1.3281-8.0469 0-12.422-3.125t-4.375-8.8906q0-4.8438 2.9062-7.3125 2.9062-2.4531 11.016-3.9688l5.9531-1.2188q11.031-2.1094 16.281-7.4062t5.25-14.172q0-10.609-7.1094-16.078-7.0938-5.4688-20.812-5.4688-5.1719 0-11.016 1.1719-5.8281 1.1719-12.078 3.4688v10.156q6-3.3594 11.766-5.0781 5.7656-1.7031 11.328-1.7031 8.4375 0 13.031 3.3125 4.5938 3.3281 4.5938 9.4844 0 5.3594-3.2969 8.3906t-10.812 4.5469l-6.0156 1.1719q-11.031 2.1875-15.969 6.875-4.9219 4.6875-4.9219 13.047 0 9.6719 6.8125 15.234t18.766 5.5625q5.1406 0 10.453-0.9375 5.3281-0.92188 10.891-2.7656z"/>
</defs>
<g transform="translate(502.81 441.24) rotate(-89.964) scale(.08 -.08)">
<use xlink:href="#an"/>
</g>
</g>
<path d="m661.46 293.4 5.2334 1.5998q2.2952 0.7016 2.9968-1.5936l2.2634-7.4043q0.7016-2.2952-1.5936-2.9968l-5.2334-1.5998q-2.2952-0.7016-2.9968 1.5936l-2.2634 7.4043q-0.70161 2.2952 1.5936 2.9968z" clip-path="url(#a)" fill="#fff" stroke="#fff"/>
<g clip-path="url(#a)">
<g transform="translate(662.65 289.51) rotate(16.998) scale(.08 -.08)">
<use xlink:href="#p"/>
</g>
</g>
<path d="m312.44 445 3.7693-3.9675q1.653-1.74-0.086926-3.393l-5.6132-5.3328q-1.74-1.653-3.393 0.086925l-3.7693 3.9675q-1.653 1.74 0.086925 3.393l5.6132 5.3328q1.74 1.653 3.393-0.086926z" clip-path="url(#a)" fill="#fff" stroke="#fff"/>
<g clip-path="url(#a)">
<g transform="translate(309.5 442.2) rotate(-46.468) scale(.08 -.08)">
<use xlink:href="#p"/>
</g>
</g>
<path d="m520.03 436.59 0.74815 5.807q0.30667 2.3803 2.687 2.0737l7.679-0.98934q2.3803-0.30667 2.0737-2.687l-0.74815-5.807q-0.30667-2.3803-2.687-2.0737l-7.679 0.98934q-2.3803 0.30667-2.0737 2.687z" clip-path="url(#a)" fill="#fff" stroke="#fff"/>
<g clip-path="url(#a)">
<defs>
<path id="y" d="m8.6875 72.906h9.9219v-44.297q0-11.719 4.2344-16.875 4.25-5.1406 13.781-5.1406 9.4688 0 13.719 5.1406 4.25 5.1562 4.25 16.875v44.297h9.9062v-45.516q0-14.25-7.0625-21.531-7.0469-7.2812-20.812-7.2812-13.828 0-20.891 7.2812-7.0469 7.2812-7.0469 21.531z"/>
</defs>
<g transform="translate(524.06 436.07) rotate(82.659) scale(.08 -.08)">
<use xlink:href="#y"/>
</g>
</g>
<path d="m494.2 672.03v33.808q0 2.4 2.4 2.4h7.7425q2.4 0 2.4-2.4v-33.808q0-2.4-2.4-2.4h-7.7425q-2.4 0-2.4 2.4z" clip-path="url(#a)" fill="#fff" stroke="#fff"/>
<g clip-path="url(#a)">
<g transform="translate(498.27 672.03) rotate(90) scale(.08 -.08)">
<use xlink:href="#k"/>
<use x="44.083984" xlink:href="#d"/>
<use x="105.607422" xlink:href="#f"/>
<use x="144.970703" xlink:href="#l"/>
<use x="242.382812" xlink:href="#i"/>
<use x="270.166016" xlink:href="#h"/>
<use x="333.544922" xlink:href="#g"/>
<use x="394.824219" xlink:href="#j"/>
</g>
</g>
<path d="m722.47 495.4 3.6738-4.9446q1.4314-1.9265-0.49509-3.3578l-6.2148-4.6176q-1.9265-1.4314-3.3578 0.49509l-3.6738 4.9446q-1.4314 1.9265 0.49509 3.3578l6.2148 4.6176q1.9265 1.4314 3.3578-0.49509z" clip-path="url(#a)" fill="#fff" stroke="#fff"/>
<g clip-path="url(#a)">
<defs>
<path id="aq" d="m19.672 64.797v-56.688h11.922q15.094 0 22.094 6.8281 7 6.8438 7 21.594 0 14.641-7 21.453t-22.094 6.8125zm-9.8594 8.1094h20.266q21.188 0 31.094-8.8125 9.9219-8.8125 9.9219-27.562 0-18.859-9.9688-27.703-9.9531-8.8281-31.047-8.8281h-20.266z"/>
</defs>
<g transform="translate(719.21 492.98) rotate(-53.388) scale(.08 -.08)">
<use xlink:href="#aq"/>
</g>
</g>
<path d="m818.99 442.73 0.84321-4.7495q0.41953-2.363-1.9435-2.7826l-7.6233-1.3534q-2.363-0.41953-2.7826 1.9435l-0.8432 4.7495q-0.41953 2.363 1.9435 2.7826l7.6233 1.3534q2.363 0.41953 2.7826-1.9435z" clip-path="url(#a)" fill="#fff" stroke="#fff"/>
<g clip-path="url(#a)">
<g transform="translate(814.99 442.02) rotate(-79.933) scale(.08 -.08)">
<use xlink:href="#v"/>
</g>
</g>
<path d="m783.7 493.43 1.5168-4.3441q0.79116-2.2658-1.4747-3.057l-7.3097-2.5523q-2.2658-0.79116-3.057 1.4747l-1.5168 4.3441q-0.79116 2.2658 1.4747 3.057l7.3097 2.5523q2.2658 0.79116 3.057-1.4747z" clip-path="url(#a)" fill="#fff" stroke="#fff"/>
<g clip-path="url(#a)">
<g transform="translate(779.87 492.09) rotate(-70.752) scale(.08 -.08)">
<use xlink:href="#ae"/>
</g>
</g>
<path d="m816.14 493.1 0.84115-6.1023q0.32772-2.3775-2.0498-2.7052l-7.67-1.0572q-2.3775-0.32772-2.7052 2.0498l-0.84116 6.1023q-0.32772 2.3775 2.0498 2.7052l7.67 1.0572q2.3775 0.32772 2.7052-2.0498z" clip-path="url(#a)" fill="#fff" stroke="#fff"/>
<g clip-path="url(#a)">
<g transform="translate(812.11 492.54) rotate(-82.152) scale(.08 -.08)">
<use xlink:href="#aq"/>
</g>
</g>
<path d="m837.12 486.98 0.45315 5.4537q0.19873 2.3918 2.5905 2.193l7.7159-0.64111q2.3918-0.19873 2.193-2.5905l-0.45315-5.4537q-0.19873-2.3918-2.5905-2.193l-7.7159 0.64111q-2.3918 0.19873-2.193 2.5905z" clip-path="url(#a)" fill="#fff" stroke="#fff"/>
<g clip-path="url(#a)">
<g transform="translate(841.17 486.64) rotate(85.25) scale(.08 -.08)">
<use xlink:href="#p"/>
</g>
</g>
<path d="m1017.6 394.5 4.7239 1.2492q2.3202 0.61358 2.9338-1.7067l1.9794-7.4852q0.61358-2.3202-1.7067-2.9338l-4.7239-1.2492q-2.3202-0.61358-2.9338 1.7067l-1.9794 7.4852q-0.61358 2.3202 1.7067 2.9338z" clip-path="url(#a)" fill="#fff" stroke="#fff"/>
<g clip-path="url(#a)">
<g transform="translate(1018.6 390.57) rotate(14.813) scale(.08 -.08)">
<use xlink:href="#k"/>
</g>
</g>
<path d="m601.18 672.03v33.808q0 2.4 2.4 2.4h7.7425q2.4 0 2.4-2.4v-33.808q0-2.4-2.4-2.4h-7.7425q-2.4 0-2.4 2.4z" clip-path="url(#a)" fill="#fff" stroke="#fff"/>
<g clip-path="url(#a)">
<g transform="translate(605.24 672.03) rotate(90) scale(.08 -.08)">
<use xlink:href="#k"/>
<use x="44.083984" xlink:href="#d"/>
<use x="105.607422" xlink:href="#f"/>
<use x="144.970703" xlink:href="#l"/>
<use x="242.382812" xlink:href="#i"/>
<use x="270.166016" xlink:href="#h"/>
<use x="333.544922" xlink:href="#g"/>
<use x="394.824219" xlink:href="#j"/>
</g>
</g>
<path d="m731.94 596.42 4.4095-3.3847q1.9038-1.4613 0.44247-3.3651l-4.7143-6.1418q-1.4613-1.9038-3.3651-0.44247l-4.4095 3.3847q-1.9038 1.4613-0.44247 3.3651l4.7143 6.1418q1.4613 1.9038 3.3651 0.44247z" clip-path="url(#a)" fill="#fff" stroke="#fff"/>
<g clip-path="url(#a)">
<defs>
<path id="ao" d="m44.391 34.188q3.1719-1.0781 6.1719-4.5938t6.0312-9.6719l10.016-19.922h-10.609l-9.3125 18.703q-3.625 7.3281-7.0156 9.7188t-9.25 2.3906h-10.75v-30.812h-9.8594v72.906h22.266q12.5 0 18.656-5.2344 6.1562-5.2188 6.1562-15.766 0-6.8906-3.2031-11.438-3.2031-4.5312-9.2969-6.2812zm-24.719 30.609v-25.875h12.406q7.125 0 10.766 3.2969t3.6406 9.6875-3.6406 9.6406-10.766 3.25z"/>
</defs>
<g transform="translate(729.47 593.19) rotate(-37.509) scale(.08 -.08)">
<use xlink:href="#ao"/>
</g>
</g>
<path d="m854.4 593.02 4.4313 3.4014q1.9038 1.4613 3.3651-0.44247l4.7143-6.1418q1.4613-1.9038-0.44247-3.3651l-4.4313-3.4014q-1.9038-1.4613-3.3651 0.44247l-4.7143 6.1418q-1.4613 1.9038 0.44247 3.3651z" clip-path="url(#a)" fill="#fff" stroke="#fff"/>
<g clip-path="url(#a)">
<defs>
<path id="w" d="m64.406 67.281v-10.391q-4.9844 4.6406-10.625 6.9219-5.6406 2.2969-11.984 2.2969-12.5 0-19.141-7.6406t-6.6406-22.094q0-14.406 6.6406-22.047t19.141-7.6406q6.3438 0 11.984 2.2969t10.625 6.9375v-10.312q-5.1719-3.5156-10.969-5.2812-5.7812-1.75-12.219-1.75-16.562 0-26.094 10.125-9.5156 10.141-9.5156 27.672 0 17.578 9.5156 27.703 9.5312 10.141 26.094 10.141 6.5312 0 12.312-1.7344 5.7969-1.7344 10.875-5.2031z"/>
</defs>
<g transform="translate(856.88 589.8) rotate(37.509) scale(.08 -.08)">
<use xlink:href="#w"/>
</g>
</g>
<path d="m719.72 672.03v33.808q0 2.4 2.4 2.4h7.7425q2.4 0 2.4-2.4v-33.808q0-2.4-2.4-2.4h-7.7425q-2.4 0-2.4 2.4z" clip-path="url(#a)" fill="#fff" stroke="#fff"/>
<g clip-path="url(#a)">
<g transform="translate(723.79 672.03) rotate(90) scale(.08 -.08)">
<use xlink:href="#k"/>
<use x="44.083984" xlink:href="#d"/>
<use x="105.607422" xlink:href="#f"/>
<use x="144.970703" xlink:href="#l"/>
<use x="242.382812" xlink:href="#i"/>
<use x="270.166016" xlink:href="#h"/>
<use x="333.544922" xlink:href="#g"/>
<use x="394.824219" xlink:href="#j"/>
</g>
</g>
<path d="m783.33 672.03v33.808q0 2.4 2.4 2.4h7.7425q2.4 0 2.4-2.4v-33.808q0-2.4-2.4-2.4h-7.7425q-2.4 0-2.4 2.4z" clip-path="url(#a)" fill="#fff" stroke="#fff"/>
<g clip-path="url(#a)">
<g transform="translate(787.39 672.03) rotate(90) scale(.08 -.08)">
<use xlink:href="#k"/>
<use x="44.083984" xlink:href="#d"/>
<use x="105.607422" xlink:href="#f"/>
<use x="144.970703" xlink:href="#l"/>
<use x="242.382812" xlink:href="#i"/>
<use x="270.166016" xlink:href="#h"/>
<use x="333.544922" xlink:href="#g"/>
<use x="394.824219" xlink:href="#j"/>
</g>
</g>
<path d="m849.83 672.03v33.808q0 2.4 2.4 2.4h7.7425q2.4 0 2.4-2.4v-33.808q0-2.4-2.4-2.4h-7.7425q-2.4 0-2.4 2.4z" clip-path="url(#a)" fill="#fff" stroke="#fff"/>
<g clip-path="url(#a)">
<g transform="translate(853.89 672.03) rotate(90) scale(.08 -.08)">
<use xlink:href="#k"/>
<use x="44.083984" xlink:href="#d"/>
<use x="105.607422" xlink:href="#f"/>
<use x="144.970703" xlink:href="#l"/>
<use x="242.382812" xlink:href="#i"/>
<use x="270.166016" xlink:href="#h"/>
<use x="333.544922" xlink:href="#g"/>
<use x="394.824219" xlink:href="#j"/>
</g>
</g>
<path d="m1107.1 546.03 4.0609-3.7959q1.7533-1.6389 0.11443-3.3922l-5.2871-5.6562q-1.6389-1.7533-3.3922-0.11443l-4.0609 3.7959q-1.7533 1.6389-0.11443 3.3922l5.2871 5.6562q1.6389 1.7533 3.3922 0.11443z" clip-path="url(#a)" fill="#fff" stroke="#fff"/>
<g clip-path="url(#a)">
<g transform="translate(1104.4 543.07) rotate(-43.068) scale(.08 -.08)">
<use xlink:href="#ao"/>
</g>
</g>
<path d="m1164.7 495.84 3.5681-3.5807q1.6941-1.7001-0.005998-3.3941l-5.4844-5.4651q-1.7001-1.6941-3.3941 0.005999l-3.5681 3.5807q-1.6941 1.7001 0.005998 3.3941l5.4844 5.4651q1.7001 1.6941 3.3941-0.005998z" clip-path="url(#a)" fill="#fff" stroke="#fff"/>
<g clip-path="url(#a)">
<defs>
<path id="af" d="m9.8125 72.906h46.094v-8.3125h-36.234v-21.578h34.719v-8.2969h-34.719v-26.422h37.109v-8.2969h-46.969z"/>
</defs>
<g transform="translate(1161.8 492.97) rotate(-45.101) scale(.08 -.08)">
<use xlink:href="#af"/>
</g>
</g>
<path d="m1215.5 537.4 0.55376 5.5587q0.23791 2.3882 2.6261 2.1503l7.7044-0.7675q2.3882-0.23791 2.1503-2.6261l-0.55376-5.5587q-0.23791-2.3882-2.6261-2.1503l-7.7044 0.7675q-2.3882 0.23791-2.1503 2.6261z" clip-path="url(#a)" fill="#fff" stroke="#fff"/>
<g clip-path="url(#a)">
<g transform="translate(1219.5 536.99) rotate(84.311) scale(.08 -.08)">
<use xlink:href="#w"/>
</g>
</g>
<path d="m1257 539.84 2.6943 5.1982q1.1044 2.1308 3.2352 1.0264l6.874-3.5629q2.1308-1.1044 1.0264-3.2352l-2.6943-5.1982q-1.1044-2.1308-3.2352-1.0264l-6.874 3.5629q-2.1308 1.1044-1.0264 3.2352z" clip-path="url(#a)" fill="#fff" stroke="#fff"/>
<g clip-path="url(#a)">
<g transform="translate(1260.6 537.97) rotate(62.602) scale(.08 -.08)">
<use xlink:href="#y"/>
</g>
</g>
<path d="m1300.7 541.76 4.0358 4.2418q1.6543 1.7388 3.3931 0.084444l5.6093-5.3369q1.7388-1.6543 0.084444-3.3931l-4.0358-4.2418q-1.6543-1.7388-3.3931-0.084444l-5.6093 5.3369q-1.7388 1.6543-0.084444 3.3931z" clip-path="url(#a)" fill="#fff" stroke="#fff"/>
<g clip-path="url(#a)">
<g transform="translate(1303.7 538.96) rotate(46.426) scale(.08 -.08)">
<use xlink:href="#y"/>
</g>
</g>
<path d="m991.5 672.03v33.808q0 2.4 2.4 2.4h7.7425q2.4 0 2.4-2.4v-33.808q0-2.4-2.4-2.4h-7.7425q-2.4 0-2.4 2.4z" clip-path="url(#a)" fill="#fff" stroke="#fff"/>
<g clip-path="url(#a)">
<g transform="translate(995.56 672.03) rotate(90) scale(.08 -.08)">
<use xlink:href="#k"/>
<use x="44.083984" xlink:href="#d"/>
<use x="105.607422" xlink:href="#f"/>
<use x="144.970703" xlink:href="#l"/>
<use x="242.382812" xlink:href="#i"/>
<use x="270.166016" xlink:href="#h"/>
<use x="333.544922" xlink:href="#g"/>
<use x="394.824219" xlink:href="#j"/>
</g>
</g>
<path d="m1105.7 587.34v4.8238q0 2.4 2.4 2.4h7.7425q2.4 0 2.4-2.4v-4.8238q0-2.4-2.4-2.4h-7.7425q-2.4 0-2.4 2.4z" clip-path="url(#a)" fill="#fff" stroke="#fff"/>
<g clip-path="url(#a)">
<g transform="translate(1109.8 587.34) rotate(90) scale(.08 -.08)">
<use xlink:href="#v"/>
</g>
</g>
<path d="m1225.7 672.03v33.808q0 2.4 2.4 2.4h7.7425q2.4 0 2.4-2.4v-33.808q0-2.4-2.4-2.4h-7.7425q-2.4 0-2.4 2.4z" clip-path="url(#a)" fill="#fff" stroke="#fff"/>
<g clip-path="url(#a)">
<g transform="translate(1229.8 672.03) rotate(90) scale(.08 -.08)">
<use xlink:href="#k"/>
<use x="44.083984" xlink:href="#d"/>
<use x="105.607422" xlink:href="#f"/>
<use x="144.970703" xlink:href="#l"/>
<use x="242.382812" xlink:href="#i"/>
<use x="270.166016" xlink:href="#h"/>
<use x="333.544922" xlink:href="#g"/>
<use x="394.824219" xlink:href="#j"/>
</g>
</g>
<path d="m1092.1 706.96 12.455-31.43q0.88416-2.2312-1.347-3.1154l-7.1979-2.8524q-2.2312-0.88416-3.1154 1.347l-12.455 31.43q-0.88416 2.2312 1.347 3.1154l7.1979 2.8524q2.2312 0.88416 3.1154-1.347z" clip-path="url(#a)" fill="#fff" stroke="#fff"/>
<g clip-path="url(#a)">
<g transform="translate(1088.3 705.46) rotate(-68.383) scale(.08 -.08)">
<use xlink:href="#k"/>
<use x="44.083984" xlink:href="#d"/>
<use x="105.607422" xlink:href="#f"/>
<use x="144.970703" xlink:href="#l"/>
<use x="242.382812" xlink:href="#i"/>
<use x="270.166016" xlink:href="#h"/>
<use x="333.544922" xlink:href="#g"/>
<use x="394.824219" xlink:href="#j"/>
</g>
</g>
<path d="m1119.4 675.53 12.455 31.43q0.88416 2.2312 3.1154 1.347l7.1979-2.8524q2.2312-0.88416 1.347-3.1154l-12.455-31.43q-0.88416-2.2312-3.1154-1.347l-7.1979 2.8524q-2.2312 0.88416-1.347 3.1154z" clip-path="url(#a)" fill="#fff" stroke="#fff"/>
<g clip-path="url(#a)">
<g transform="translate(1123.2 674.03) rotate(68.383) scale(.08 -.08)">
<use xlink:href="#k"/>
<use x="44.083984" xlink:href="#d"/>
<use x="105.607422" xlink:href="#f"/>
<use x="144.970703" xlink:href="#l"/>
<use x="242.382812" xlink:href="#i"/>
<use x="270.166016" xlink:href="#h"/>
<use x="333.544922" xlink:href="#g"/>
<use x="394.824219" xlink:href="#j"/>
</g>
</g>
<path d="m659.01 672.03v33.808q0 2.4 2.4 2.4h7.7425q2.4 0 2.4-2.4v-33.808q0-2.4-2.4-2.4h-7.7425q-2.4 0-2.4 2.4z" clip-path="url(#a)" fill="#fff" stroke="#fff"/>
<g clip-path="url(#a)">
<g transform="translate(663.07 672.03) rotate(90) scale(.08 -.08)">
<use xlink:href="#k"/>
<use x="44.083984" xlink:href="#d"/>
<use x="105.607422" xlink:href="#f"/>
<use x="144.970703" xlink:href="#l"/>
<use x="242.382812" xlink:href="#i"/>
<use x="270.166016" xlink:href="#h"/>
<use x="333.544922" xlink:href="#g"/>
<use x="394.824219" xlink:href="#j"/>
</g>
</g>
<path d="m919.22 672.03v33.808q0 2.4 2.4 2.4h7.7425q2.4 0 2.4-2.4v-33.808q0-2.4-2.4-2.4h-7.7425q-2.4 0-2.4 2.4z" clip-path="url(#a)" fill="#fff" stroke="#fff"/>
<g clip-path="url(#a)">
<g transform="translate(923.28 672.03) rotate(90) scale(.08 -.08)">
<use xlink:href="#k"/>
<use x="44.083984" xlink:href="#d"/>
<use x="105.607422" xlink:href="#f"/>
<use x="144.970703" xlink:href="#l"/>
<use x="242.382812" xlink:href="#i"/>
<use x="270.166016" xlink:href="#h"/>
<use x="333.544922" xlink:href="#g"/>
<use x="394.824219" xlink:href="#j"/>
</g>
</g>
<path d="m84.889 543.03 0.66229-5.4323q0.29045-2.3824-2.0919-2.6728l-7.6856-0.937q-2.3824-0.29045-2.6728 2.0919l-0.66229 5.4323q-0.29045 2.3824 2.0919 2.6728l7.6856 0.937q2.3824 0.29045 2.6728-2.0919z" clip-path="url(#a)" fill="#fff" stroke="#fff"/>
<g clip-path="url(#a)">
<g transform="translate(80.856 542.54) rotate(-83.049) scale(.08 -.08)">
<use xlink:href="#p"/>
</g>
</g>
<path d="m95.787 492.26 0.15628-4.8838q0.07676-2.3988-2.322-2.4755l-7.7385-0.24763q-2.3988-0.07676-2.4755 2.322l-0.15628 4.8838q-0.07676 2.3988 2.322 2.4755l7.7385 0.24763q2.3988 0.07676 2.4755-2.322z" clip-path="url(#a)" fill="#fff" stroke="#fff"/>
<g clip-path="url(#a)">
<g transform="translate(91.725 492.13) rotate(-88.167) scale(.08 -.08)">
<use xlink:href="#k"/>
</g>
</g>
<path d="m98.475 538.02 0.65924 4.7785q0.32799 2.3775 2.7055 2.0495l7.6699-1.0581q2.3775-0.328 2.0495-2.7055l-0.65924-4.7785q-0.32799-2.3775-2.7055-2.0495l-7.6699 1.0581q-2.3775 0.328-2.0495 2.7055z" clip-path="url(#a)" fill="#fff" stroke="#fff"/>
<g clip-path="url(#a)">
<g transform="translate(102.5 537.47) rotate(82.145) scale(.08 -.08)">
<use xlink:href="#v"/>
</g>
</g>
<path d="m132.8 672.03v33.808q0 2.4 2.4 2.4h7.7425q2.4 0 2.4-2.4v-33.808q0-2.4-2.4-2.4h-7.7425q-2.4 0-2.4 2.4z" clip-path="url(#a)" fill="#fff" stroke="#fff"/>
<g clip-path="url(#a)">
<g transform="translate(136.86 672.03) rotate(90) scale(.08 -.08)">
<use xlink:href="#k"/>
<use x="44.083984" xlink:href="#d"/>
<use x="105.607422" xlink:href="#f"/>
<use x="144.970703" xlink:href="#l"/>
<use x="242.382812" xlink:href="#i"/>
<use x="270.166016" xlink:href="#h"/>
<use x="333.544922" xlink:href="#g"/>
<use x="394.824219" xlink:href="#j"/>
</g>
</g>
<path d="m189.82 493.21 0.90544-6.2321q0.34506-2.3751-2.03-2.7201l-7.6621-1.1132q-2.3751-0.34506-2.7201 2.03l-0.90544 6.2321q-0.34506 2.3751 2.03 2.7201l7.6621 1.1132q2.3751 0.34506 2.7201-2.03z" clip-path="url(#a)" fill="#fff" stroke="#fff"/>
<g clip-path="url(#a)">
<defs>
<path id="ap" d="m39.406 66.219q-10.75 0-17.078-8.0156-6.3125-8-6.3125-21.828 0-13.766 6.3125-21.781 6.3281-8 17.078-8 10.734 0 17.016 8 6.2812 8.0156 6.2812 21.781 0 13.828-6.2812 21.828-6.2812 8.0156-17.016 8.0156zm13.812-64.906 13-14.203h-11.922l-10.797 11.672q-1.6094-0.09375-2.4688-0.14062-0.84375-0.0625-1.625-0.0625-15.375 0-24.594 10.281-9.2031 10.281-9.2031 27.516 0 17.281 9.2031 27.562 9.2188 10.281 24.594 10.281 15.328 0 24.5-10.281 9.1875-10.281 9.1875-27.562 0-12.688-5.1094-21.734-5.0938-9.0312-14.766-13.328z"/>
</defs>
<g transform="translate(185.8 492.62) rotate(-81.734) scale(.08 -.08)">
<use xlink:href="#ap"/>
</g>
</g>
<path d="m203.19 492.08 0.2969-5.0463q0.14096-2.3959-2.2549-2.5368l-7.7291-0.45474q-2.3959-0.14096-2.5368 2.2549l-0.2969 5.0463q-0.14096 2.3959 2.2549 2.5368l7.7291 0.45474q2.3959 0.14096 2.5368-2.2549z" clip-path="url(#a)" fill="#fff" stroke="#fff"/>
<g clip-path="url(#a)">
<g transform="translate(199.13 491.84) rotate(-86.633) scale(.08 -.08)">
<use xlink:href="#af"/>
</g>
</g>
<path d="m205.16 486.63 0.20779 5.5824q0.089272 2.3983 2.4876 2.3091l7.7371-0.28799q2.3983-0.089272 2.3091-2.4876l-0.20779-5.5824q-0.089272-2.3983-2.4876-2.3091l-7.7371 0.28799q-2.3983 0.089271-2.3091 2.4876z" clip-path="url(#a)" fill="#fff" stroke="#fff"/>
<g clip-path="url(#a)">
<g transform="translate(209.22 486.48) rotate(87.868) scale(.08 -.08)">
<use xlink:href="#w"/>
</g>
</g>
<path d="m224.31 389.6 2.256 4.5237q1.0711 2.1477 3.2188 1.0767l6.9287-3.4553q2.1477-1.0711 1.0767-3.2188l-2.256-4.5237q-1.0711-2.1477-3.2188-1.0767l-6.9287 3.4553q-2.1477 1.0711-1.0767 3.2188z" clip-path="url(#a)" fill="#fff" stroke="#fff"/>
<g clip-path="url(#a)">
<g transform="translate(227.94 387.78) rotate(63.495) scale(.08 -.08)">
<use xlink:href="#af"/>
</g>
</g>
<path d="m155.93 672.03v33.808q0 2.4 2.4 2.4h7.7425q2.4 0 2.4-2.4v-33.808q0-2.4-2.4-2.4h-7.7425q-2.4 0-2.4 2.4z" clip-path="url(#a)" fill="#fff" stroke="#fff"/>
<g clip-path="url(#a)">
<g transform="translate(159.99 672.03) rotate(90) scale(.08 -.08)">
<use xlink:href="#k"/>
<use x="44.083984" xlink:href="#d"/>
<use x="105.607422" xlink:href="#f"/>
<use x="144.970703" xlink:href="#l"/>
<use x="242.382812" xlink:href="#i"/>
<use x="270.166016" xlink:href="#h"/>
<use x="333.544922" xlink:href="#g"/>
<use x="394.824219" xlink:href="#j"/>
</g>
</g>
<path d="m181.95 672.03v33.808q0 2.4 2.4 2.4h7.7425q2.4 0 2.4-2.4v-33.808q0-2.4-2.4-2.4h-7.7425q-2.4 0-2.4 2.4z" clip-path="url(#a)" fill="#fff" stroke="#fff"/>
<g clip-path="url(#a)">
<g transform="translate(186.01 672.03) rotate(90) scale(.08 -.08)">
<use xlink:href="#k"/>
<use x="44.083984" xlink:href="#d"/>
<use x="105.607422" xlink:href="#f"/>
<use x="144.970703" xlink:href="#l"/>
<use x="242.382812" xlink:href="#i"/>
<use x="270.166016" xlink:href="#h"/>
<use x="333.544922" xlink:href="#g"/>
<use x="394.824219" xlink:href="#j"/>
</g>
</g>
<path d="m210.86 672.03v33.808q0 2.4 2.4 2.4h7.7425q2.4 0 2.4-2.4v-33.808q0-2.4-2.4-2.4h-7.7425q-2.4 0-2.4 2.4z" clip-path="url(#a)" fill="#fff" stroke="#fff"/>
<g clip-path="url(#a)">
<g transform="translate(214.93 672.03) rotate(90) scale(.08 -.08)">
<use xlink:href="#k"/>
<use x="44.083984" xlink:href="#d"/>
<use x="105.607422" xlink:href="#f"/>
<use x="144.970703" xlink:href="#l"/>
<use x="242.382812" xlink:href="#i"/>
<use x="270.166016" xlink:href="#h"/>
<use x="333.544922" xlink:href="#g"/>
<use x="394.824219" xlink:href="#j"/>
</g>
</g>
<path d="m242.28 543.44 1.0469-5.3714q0.45914-2.3557-1.8965-2.8148l-7.5995-1.4812q-2.3557-0.45914-2.8148 1.8965l-1.0469 5.3714q-0.45914 2.3557 1.8965 2.8148l7.5995 1.4812q2.3557 0.45914 2.8148-1.8965z" clip-path="url(#a)" fill="#fff" stroke="#fff"/>
<g clip-path="url(#a)">
<g transform="translate(238.29 542.66) rotate(-78.971) scale(.08 -.08)">
<use xlink:href="#p"/>
</g>
</g>
<path d="m258.73 542.32 0.18319-5.0754q0.086569-2.3984-2.3119-2.485l-7.7375-0.27928q-2.3984-0.086568-2.485 2.3119l-0.18319 5.0754q-0.086569 2.3984 2.3119 2.485l7.7375 0.27928q2.3984 0.086569 2.485-2.3119z" clip-path="url(#a)" fill="#fff" stroke="#fff"/>
<g clip-path="url(#a)">
<g transform="translate(254.67 542.17) rotate(-87.933) scale(.08 -.08)">
<use xlink:href="#an"/>
</g>
</g>
<path d="m272.45 489.76 2.2903 4.9702q1.0044 2.1797 3.1841 1.1753l7.0319-3.2403q2.1797-1.0044 1.1753-3.1841l-2.2903-4.9702q-1.0044-2.1797-3.1841-1.1753l-7.0319 3.2403q-2.1797 1.0044-1.1753 3.1841z" clip-path="url(#a)" fill="#fff" stroke="#fff"/>
<g clip-path="url(#a)">
<g transform="translate(276.14 488.06) rotate(65.26) scale(.08 -.08)">
<use xlink:href="#p"/>
</g>
</g>
<path d="m242.67 672.03v33.808q0 2.4 2.4 2.4h7.7425q2.4 0 2.4-2.4v-33.808q0-2.4-2.4-2.4h-7.7425q-2.4 0-2.4 2.4z" clip-path="url(#a)" fill="#fff" stroke="#fff"/>
<g clip-path="url(#a)">
<g transform="translate(246.73 672.03) rotate(90) scale(.08 -.08)">
<use xlink:href="#k"/>
<use x="44.083984" xlink:href="#d"/>
<use x="105.607422" xlink:href="#f"/>
<use x="144.970703" xlink:href="#l"/>
<use x="242.382812" xlink:href="#i"/>
<use x="270.166016" xlink:href="#h"/>
<use x="333.544922" xlink:href="#g"/>
<use x="394.824219" xlink:href="#j"/>
</g>
</g>
<path d="m298.77 593.17 0.85093-4.5219q0.44384-2.3586-1.9148-2.8024l-7.6089-1.4319q-2.3586-0.44384-2.8024 1.9148l-0.85093 4.5219q-0.44384 2.3586 1.9148 2.8024l7.6089 1.4319q2.3586 0.44384 2.8024-1.9148z" clip-path="url(#a)" fill="#fff" stroke="#fff"/>
<g clip-path="url(#a)">
<g transform="translate(294.77 592.42) rotate(-79.343) scale(.08 -.08)">
<use xlink:href="#ae"/>
</g>
</g>
<path d="m305.14 588.17 1.0331 5.4899q0.44384 2.3586 2.8024 1.9148l7.6089-1.4319q2.3586-0.44384 1.9148-2.8024l-1.0331-5.4899q-0.44384-2.3586-2.8024-1.9148l-7.6089 1.4319q-2.3586 0.44384-1.9148 2.8024z" clip-path="url(#a)" fill="#fff" stroke="#fff"/>
<g clip-path="url(#a)">
<g transform="translate(309.14 587.41) rotate(79.343) scale(.08 -.08)">
<use xlink:href="#w"/>
</g>
</g>
<path d="m277.36 672.03v33.808q0 2.4 2.4 2.4h7.7425q2.4 0 2.4-2.4v-33.808q0-2.4-2.4-2.4h-7.7425q-2.4 0-2.4 2.4z" clip-path="url(#a)" fill="#fff" stroke="#fff"/>
<g clip-path="url(#a)">
<g transform="translate(281.42 672.03) rotate(90) scale(.08 -.08)">
<use xlink:href="#k"/>
<use x="44.083984" xlink:href="#d"/>
<use x="105.607422" xlink:href="#f"/>
<use x="144.970703" xlink:href="#l"/>
<use x="242.382812" xlink:href="#i"/>
<use x="270.166016" xlink:href="#h"/>
<use x="333.544922" xlink:href="#g"/>
<use x="394.824219" xlink:href="#j"/>
</g>
</g>
<path d="m314.95 672.03v33.808q0 2.4 2.4 2.4h7.7425q2.4 0 2.4-2.4v-33.808q0-2.4-2.4-2.4h-7.7425q-2.4 0-2.4 2.4z" clip-path="url(#a)" fill="#fff" stroke="#fff"/>
<g clip-path="url(#a)">
<g transform="translate(319.01 672.03) rotate(90) scale(.08 -.08)">
<use xlink:href="#k"/>
<use x="44.083984" xlink:href="#d"/>
<use x="105.607422" xlink:href="#f"/>
<use x="144.970703" xlink:href="#l"/>
<use x="242.382812" xlink:href="#i"/>
<use x="270.166016" xlink:href="#h"/>
<use x="333.544922" xlink:href="#g"/>
<use x="394.824219" xlink:href="#j"/>
</g>
</g>
<path d="m60.517 672.03v33.808q0 2.4 2.4 2.4h7.7425q2.4 0 2.4-2.4v-33.808q0-2.4-2.4-2.4h-7.7425q-2.4 0-2.4 2.4z" clip-path="url(#a)" fill="#fff" stroke="#fff"/>
<g clip-path="url(#a)">
<g transform="translate(64.58 672.03) rotate(90) scale(.08 -.08)">
<use xlink:href="#k"/>
<use x="44.083984" xlink:href="#d"/>
<use x="105.607422" xlink:href="#f"/>
<use x="144.970703" xlink:href="#l"/>
<use x="242.382812" xlink:href="#i"/>
<use x="270.166016" xlink:href="#h"/>
<use x="333.544922" xlink:href="#g"/>
<use x="394.824219" xlink:href="#j"/>
</g>
</g>
<path d="m87.557 593.66 0.7839-6.2485q0.29875-2.3813-2.0826-2.6801l-7.6823-0.96377q-2.3813-0.29875-2.6801 2.0826l-0.7839 6.2485q-0.29875 2.3813 2.0826 2.6801l7.6823 0.96377q2.3813 0.29875 2.6801-2.0826z" clip-path="url(#a)" fill="#fff" stroke="#fff"/>
<g clip-path="url(#a)">
<g transform="translate(83.524 593.15) rotate(-82.849) scale(.08 -.08)">
<use xlink:href="#ap"/>
</g>
</g>
<path d="m88.148 587.82 0.74793 5.536q0.32133 2.3784 2.6997 2.0571l7.6728-1.0366q2.3784-0.32133 2.0571-2.6997l-0.74793-5.536q-0.32133-2.3784-2.6997-2.0571l-7.6728 1.0366q-2.3784 0.32133-2.0571 2.6997z" clip-path="url(#a)" fill="#fff" stroke="#fff"/>
<g clip-path="url(#a)">
<g transform="translate(92.175 587.28) rotate(82.306) scale(.08 -.08)">
<use xlink:href="#w"/>
</g>
</g>
<path d="m93.751 592.74 0.0565-5.8547q0.023159-2.3999-2.3767-2.423l-7.7421-0.074713q-2.3999-0.02316-2.423 2.3767l-0.0565 5.8547q-0.023159 2.3999 2.3767 2.423l7.7421 0.074713q2.3999 0.02316 2.423-2.3767z" clip-path="url(#a)" fill="#fff" stroke="#fff"/>
<g clip-path="url(#a)">
<g transform="translate(89.688 592.7) rotate(-89.447) scale(.08 -.08)">
<use xlink:href="#y"/>
</g>
</g>
<path d="m112.56 672.03v33.808q0 2.4 2.4 2.4h7.7425q2.4 0 2.4-2.4v-33.808q0-2.4-2.4-2.4h-7.7425q-2.4 0-2.4 2.4z" clip-path="url(#a)" fill="#fff" stroke="#fff"/>
<g clip-path="url(#a)">
<g transform="translate(116.62 672.03) rotate(90) scale(.08 -.08)">
<use xlink:href="#k"/>
<use x="44.083984" xlink:href="#d"/>
<use x="105.607422" xlink:href="#f"/>
<use x="144.970703" xlink:href="#l"/>
<use x="242.382812" xlink:href="#i"/>
<use x="270.166016" xlink:href="#h"/>
<use x="333.544922" xlink:href="#g"/>
<use x="394.824219" xlink:href="#j"/>
</g>
</g>
<path d="m69.19 672.03v33.808q0 2.4 2.4 2.4h7.7425q2.4 0 2.4-2.4v-33.808q0-2.4-2.4-2.4h-7.7425q-2.4 0-2.4 2.4z" clip-path="url(#a)" fill="#fff" stroke="#fff"/>
<g clip-path="url(#a)">
<g transform="translate(73.254 672.03) rotate(90) scale(.08 -.08)">
<use xlink:href="#k"/>
<use x="44.083984" xlink:href="#d"/>
<use x="105.607422" xlink:href="#f"/>
<use x="144.970703" xlink:href="#l"/>
<use x="242.382812" xlink:href="#i"/>
<use x="270.166016" xlink:href="#h"/>
<use x="333.544922" xlink:href="#g"/>
<use x="394.824219" xlink:href="#j"/>
</g>
</g>
<path d="m95.212 672.03v33.808q0 2.4 2.4 2.4h7.7425q2.4 0 2.4-2.4v-33.808q0-2.4-2.4-2.4h-7.7425q-2.4 0-2.4 2.4z" clip-path="url(#a)" fill="#fff" stroke="#fff"/>
<g clip-path="url(#a)">
<g transform="translate(99.275 672.03) rotate(90) scale(.08 -.08)">
<use xlink:href="#k"/>
<use x="44.083984" xlink:href="#d"/>
<use x="105.607422" xlink:href="#f"/>
<use x="144.970703" xlink:href="#l"/>
<use x="242.382812" xlink:href="#i"/>
<use x="270.166016" xlink:href="#h"/>
<use x="333.544922" xlink:href="#g"/>
<use x="394.824219" xlink:href="#j"/>
</g>
</g>
<path d="m80.755 672.03v33.808q0 2.4 2.4 2.4h7.7425q2.4 0 2.4-2.4v-33.808q0-2.4-2.4-2.4h-7.7425q-2.4 0-2.4 2.4z" clip-path="url(#a)" fill="#fff" stroke="#fff"/>
<g clip-path="url(#a)">
<g transform="translate(84.819 672.03) rotate(90) scale(.08 -.08)">
<use xlink:href="#k"/>
<use x="44.083984" xlink:href="#d"/>
<use x="105.607422" xlink:href="#f"/>
<use x="144.970703" xlink:href="#l"/>
<use x="242.382812" xlink:href="#i"/>
<use x="270.166016" xlink:href="#h"/>
<use x="333.544922" xlink:href="#g"/>
<use x="394.824219" xlink:href="#j"/>
</g>
</g>
<path d="m546.25 672.03v33.808q0 2.4 2.4 2.4h7.7425q2.4 0 2.4-2.4v-33.808q0-2.4-2.4-2.4h-7.7425q-2.4 0-2.4 2.4z" clip-path="url(#a)" fill="#fff" stroke="#fff"/>
<g clip-path="url(#a)">
<g transform="translate(550.31 672.03) rotate(90) scale(.08 -.08)">
<use xlink:href="#k"/>
<use x="44.083984" xlink:href="#d"/>
<use x="105.607422" xlink:href="#f"/>
<use x="144.970703" xlink:href="#l"/>
<use x="242.382812" xlink:href="#i"/>
<use x="270.166016" xlink:href="#h"/>
<use x="333.544922" xlink:href="#g"/>
<use x="394.824219" xlink:href="#j"/>
</g>
</g>
<path d="m1309.5 672.03v33.808q0 2.4 2.4 2.4h7.7425q2.4 0 2.4-2.4v-33.808q0-2.4-2.4-2.4h-7.7425q-2.4 0-2.4 2.4z" clip-path="url(#a)" fill="#fff" stroke="#fff"/>
<g clip-path="url(#a)">
<g transform="translate(1313.6 672.03) rotate(90) scale(.08 -.08)">
<use xlink:href="#k"/>
<use x="44.083984" xlink:href="#d"/>
<use x="105.607422" xlink:href="#f"/>
<use x="144.970703" xlink:href="#l"/>
<use x="242.382812" xlink:href="#i"/>
<use x="270.166016" xlink:href="#h"/>
<use x="333.544922" xlink:href="#g"/>
<use x="394.824219" xlink:href="#j"/>
</g>
</g>
<path d="m1396.3 672.03v33.808q0 2.4 2.4 2.4h7.7425q2.4 0 2.4-2.4v-33.808q0-2.4-2.4-2.4h-7.7425q-2.4 0-2.4 2.4z" clip-path="url(#a)" fill="#fff" stroke="#fff"/>
<g clip-path="url(#a)">
<g transform="translate(1400.3 672.03) rotate(90) scale(.08 -.08)">
<use xlink:href="#k"/>
<use x="44.083984" xlink:href="#d"/>
<use x="105.607422" xlink:href="#f"/>
<use x="144.970703" xlink:href="#l"/>
<use x="242.382812" xlink:href="#i"/>
<use x="270.166016" xlink:href="#h"/>
<use x="333.544922" xlink:href="#g"/>
<use x="394.824219" xlink:href="#j"/>
</g>
</g>
<defs>
<path id="b" d="m0 8.6603c2.2967 0 4.4997-0.9125 6.1237-2.5365 1.624-1.624 2.5365-3.827 2.5365-6.1237s-0.9125-4.4997-2.5365-6.1237c-1.624-1.624-3.827-2.5365-6.1237-2.5365s-4.4997 0.9125-6.1237 2.5365c-1.624 1.624-2.5365 3.827-2.5365 6.1237s0.9125 4.4997 2.5365 6.1237c1.624 1.624 3.827 2.5365 6.1237 2.5365z"/>
</defs>
<g clip-path="url(#a)" fill="#ffffff" stroke="#ffffff">
<use x="66.787879" y="738.181818" xlink:href="#b"/>
<use x="75.461629" y="738.181818" xlink:href="#b"/>
<use x="87.02663" y="738.181818" xlink:href="#b"/>
<use x="101.482881" y="738.181818" xlink:href="#b"/>
<use x="118.830382" y="738.181818" xlink:href="#b"/>
<use x="139.069133" y="738.181818" xlink:href="#b"/>
<use x="162.199134" y="738.181818" xlink:href="#b"/>
<use x="188.220386" y="738.181818" xlink:href="#b"/>
<use x="217.132887" y="738.181818" xlink:href="#b"/>
<use x="248.936639" y="738.181818" xlink:href="#b"/>
<use x="283.631641" y="738.181818" xlink:href="#b"/>
<use x="321.217893" y="738.181818" xlink:href="#b"/>
<use x="361.695396" y="738.181818" xlink:href="#b"/>
<use x="405.064148" y="738.181818" xlink:href="#b"/>
<use x="451.324151" y="738.181818" xlink:href="#b"/>
<use x="500.475403" y="738.181818" xlink:href="#b"/>
<use x="552.517906" y="738.181818" xlink:href="#b"/>
<use x="607.451659" y="738.181818" xlink:href="#b"/>
<use x="665.276663" y="738.181818" xlink:href="#b"/>
<use x="725.992916" y="738.181818" xlink:href="#b"/>
<use x="789.60042" y="738.181818" xlink:href="#b"/>
<use x="856.099174" y="738.181818" xlink:href="#b"/>
<use x="925.489177" y="738.181818" xlink:href="#b"/>
<use x="997.770432" y="738.181818" xlink:href="#b"/>
<use x="1072.942936" y="738.181818" xlink:href="#b"/>
<use x="1151.00669" y="738.181818" xlink:href="#b"/>
<use x="1231.961695" y="738.181818" xlink:href="#b"/>
<use x="1315.80795" y="738.181818" xlink:href="#b"/>
<use x="1402.545455" y="738.181818" xlink:href="#b"/>
<use x="292.027533" y="35.151515" xlink:href="#b"/>
<use x="145.400435" y="237.704121" xlink:href="#b"/>
<use x="361.695396" y="639.68436" xlink:href="#b"/>
<use x="368.986767" y="136.512608" xlink:href="#b"/>
<use x="405.064148" y="639.68436" xlink:href="#b"/>
<use x="451.324151" y="639.68436" xlink:href="#b"/>
<use x="500.728388" y="237.704121" xlink:href="#b"/>
<use x="500.475403" y="639.68436" xlink:href="#b"/>
<use x="831.08986" y="338.692091" xlink:href="#b"/>
<use x="607.451659" y="639.68436" xlink:href="#b"/>
<use x="795.38292" y="539.816693" xlink:href="#b"/>
<use x="725.992916" y="639.68436" xlink:href="#b"/>
<use x="789.60042" y="639.68436" xlink:href="#b"/>
<use x="856.099174" y="639.68436" xlink:href="#b"/>
<use x="1212.012069" y="439.425229" xlink:href="#b"/>
<use x="997.770432" y="639.68436" xlink:href="#b"/>
<use x="1111.974813" y="539.816693" xlink:href="#b"/>
<use x="1231.961695" y="639.68436" xlink:href="#b"/>
<use x="1111.974813" y="639.68436" xlink:href="#b"/>
<use x="665.276663" y="639.68436" xlink:href="#b"/>
<use x="925.489177" y="639.68436" xlink:href="#b"/>
<use x="91.20288" y="439.425229" xlink:href="#b"/>
<use x="139.069133" y="639.68436" xlink:href="#b"/>
<use x="205.929293" y="338.692091" xlink:href="#b"/>
<use x="162.199134" y="639.68436" xlink:href="#b"/>
<use x="188.220386" y="639.68436" xlink:href="#b"/>
<use x="217.132887" y="639.68436" xlink:href="#b"/>
<use x="256.164765" y="439.425229" xlink:href="#b"/>
<use x="248.936639" y="639.68436" xlink:href="#b"/>
<use x="302.424767" y="539.816693" xlink:href="#b"/>
<use x="283.631641" y="639.68436" xlink:href="#b"/>
<use x="321.217893" y="639.68436" xlink:href="#b"/>
<use x="66.787879" y="639.68436" xlink:href="#b"/>
<use x="87.99038" y="539.816693" xlink:href="#b"/>
<use x="118.830382" y="639.68436" xlink:href="#b"/>
<use x="75.461629" y="639.68436" xlink:href="#b"/>
<use x="101.482881" y="639.68436" xlink:href="#b"/>
<use x="87.02663" y="639.68436" xlink:href="#b"/>
<use x="552.517906" y="639.68436" xlink:href="#b"/>
<use x="1315.80795" y="639.68436" xlink:href="#b"/>
<use x="1402.545455" y="639.68436" xlink:href="#b"/>
</g>
<g clip-path="url(#a)">
<g transform="translate(57.896 740.94) scale(.1 -.1)">
<use xlink:href="#ad"/>
<use x="75.195312" xlink:href="#d"/>
<use x="136.71875" xlink:href="#f"/>
</g>
</g>
<g clip-path="url(#a)">
<defs>
<path id="c" d="m12.406 8.2969h16.109v55.625l-17.531-3.5156v8.9844l17.438 3.5156h9.8594v-64.609h16.109v-8.2969h-41.984z"/>
<path id="x" d="m10.984 1.5156v8.9844q3.7188-1.7656 7.5156-2.6875 3.8125-0.92188 7.4844-0.92188 9.7656 0 14.906 6.5625 5.1562 6.5625 5.8906 19.953-2.8281-4.2031-7.1875-6.4531-4.3438-2.25-9.6094-2.25-10.938 0-17.312 6.6094-6.375 6.625-6.375 18.109 0 11.219 6.6406 18 6.6406 6.7969 17.672 6.7969 12.656 0 19.312-9.7031 6.6719-9.6875 6.6719-28.141 0-17.234-8.1875-27.516-8.1719-10.281-21.984-10.281-3.7188 0-7.5312 0.73438-3.7969 0.73438-7.9062 2.2031zm19.625 30.906q6.6406 0 10.516 4.5312 3.8906 4.5469 3.8906 12.469 0 7.8594-3.8906 12.422-3.875 4.5625-10.516 4.5625t-10.516-4.5625-3.875-12.422q0-7.9219 3.875-12.469 3.875-4.5312 10.516-4.5312z"/>
</defs>
<g transform="translate(69.099 740.94) scale(.1 -.1)">
<use xlink:href="#c"/>
<use x="63.623047" xlink:href="#x"/>
</g>
</g>
<g clip-path="url(#a)">
<defs>
<path id="au" d="m4.8906 31.391h26.312v-8h-26.312z"/>
</defs>
<g transform="translate(85.223 740.94) scale(.1 -.1)">
<use xlink:href="#au"/>
</g>
</g>
<g clip-path="url(#a)">
<defs>
<path id="ai" d="m4.2031 54.688h8.9844l11.234-42.672 11.172 42.672h10.594l11.234-42.672 11.188 42.672h8.9844l-14.312-54.688h-10.594l-11.766 44.828-11.812-44.828h-10.609z"/>
<path id="ay" d="m9.0781 75.984h9.0312v-44.875l26.812 23.578h11.469l-29-25.578 30.234-29.109h-11.719l-27.797 26.703v-26.703h-9.0312z"/>
</defs>
<g transform="translate(88.345 740.94) scale(.1 -.1)">
<use xlink:href="#ai"/>
<use x="81.787109" xlink:href="#d"/>
<use x="143.310547" xlink:href="#d"/>
<use x="204.833984" xlink:href="#ay"/>
</g>
</g>
<g clip-path="url(#a)">
<defs>
<path id="al" d="m45.406 27.984q0 9.7656-4.0312 15.125-4.0156 5.375-11.297 5.375-7.2188 0-11.25-5.375-4.0312-5.3594-4.0312-15.125 0-9.7188 4.0312-15.094t11.25-5.375q7.2812 0 11.297 5.375 4.0312 5.375 4.0312 15.094zm8.9844-21.203q0-13.953-6.2031-20.766-6.1875-6.8125-18.984-6.8125-4.7344 0-8.9375 0.70312t-8.1562 2.1719v8.7344q3.9531-2.1406 7.8125-3.1562 3.8594-1.0312 7.8594-1.0312 8.8438 0 13.234 4.6094t4.3906 13.938v4.4531q-2.7812-4.8438-7.125-7.2344t-10.406-2.3906q-10.047 0-16.203 7.6562-6.1562 7.6719-6.1562 20.328 0 12.688 6.1562 20.344 6.1562 7.6719 16.203 7.6719 6.0625 0 10.406-2.3906t7.125-7.2188v8.2969h8.9844z"/>
<path id="r" d="m18.312 70.219v-15.531h18.5v-6.9844h-18.5v-29.688q0-6.6875 1.8281-8.5938t7.4531-1.9062h9.2188v-7.5156h-9.2188q-10.406 0-14.359 3.875-3.9531 3.8906-3.9531 14.141v29.688h-6.5938v6.9844h6.5938v15.531z"/>
</defs>
<g transform="translate(87.02 740.94) scale(.1 -.1)">
<use xlink:href="#d"/>
<use x="61.523438" xlink:href="#h"/>
<use x="124.902344" xlink:href="#al"/>
<use x="188.378906" xlink:href="#g"/>
<use x="249.658203" xlink:href="#al"/>
<use x="313.134766" xlink:href="#d"/>
<use x="374.658203" xlink:href="#l"/>
<use x="472.070312" xlink:href="#d"/>
<use x="533.59375" xlink:href="#h"/>
<use x="596.972656" xlink:href="#r"/>
</g>
</g>
<g clip-path="url(#a)">
<defs>
<path id="aw" d="m54.891 54.688-19.781-26.609 20.797-28.078h-10.594l-15.922 21.484-15.906-21.484h-10.609l21.25 28.609-19.438 26.078h10.594l14.5-19.484 14.5 19.484z"/>
<path id="ac" d="m48.781 52.594v-8.4062q-3.8125 2.1094-7.6406 3.1562t-7.7344 1.0469q-8.75 0-13.594-5.5469-4.8281-5.5312-4.8281-15.547t4.8281-15.562q4.8438-5.5312 13.594-5.5312 3.9062 0 7.7344 1.0469t7.6406 3.1562v-8.3125q-3.7656-1.75-7.7969-2.625-4.0156-0.89062-8.5625-0.89062-12.359 0-19.641 7.7656-7.2656 7.7656-7.2656 20.953 0 13.375 7.3438 21.031 7.3594 7.6719 20.156 7.6719 4.1406 0 8.0938-0.85938 3.9531-0.84375 7.6719-2.5469z"/>
<path id="u" d="m45.406 46.391v29.594h8.9844v-75.984h-8.9844v8.2031q-2.8281-4.875-7.1562-7.25-4.3125-2.375-10.375-2.375-9.9062 0-16.141 7.9062-6.2188 7.9219-6.2188 20.812t6.2188 20.797q6.2344 7.9062 16.141 7.9062 6.0625 0 10.375-2.375 4.3281-2.3594 7.1562-7.2344zm-30.609-19.094q0-9.9062 4.0781-15.547t11.203-5.6406 11.219 5.6406q4.1094 5.6406 4.1094 15.547t-4.1094 15.547q-4.0938 5.6406-11.219 5.6406t-11.203-5.6406-4.0781-15.547z"/>
</defs>
<g transform="translate(114.88 740.94) scale(.1 -.1)">
<use xlink:href="#d"/>
<use x="59.773438" xlink:href="#aw"/>
<use x="117.203125" xlink:href="#ac"/>
<use x="172.183594" xlink:href="#d"/>
<use x="233.707031" xlink:href="#d"/>
<use x="295.230469" xlink:href="#u"/>
<use x="358.707031" xlink:href="#d"/>
<use x="420.230469" xlink:href="#u"/>
</g>
</g>
<g clip-path="url(#a)">
<g transform="translate(156.36 740.94) scale(.1 -.1)">
<use xlink:href="#g"/>
<use x="61.279297" xlink:href="#j"/>
<use x="89.0625" xlink:href="#j"/>
</g>
</g>
<g clip-path="url(#a)">
<defs>
<path id="ak" d="m18.109 8.2031v-29h-9.0312v75.484h9.0312v-8.2969q2.8438 4.875 7.1562 7.2344 4.3281 2.375 10.328 2.375 9.9688 0 16.188-7.9062 6.2344-7.9062 6.2344-20.797t-6.2344-20.812q-6.2188-7.9062-16.188-7.9062-6 0-10.328 2.375-4.3125 2.375-7.1562 7.25zm30.578 19.094q0 9.9062-4.0781 15.547t-11.203 5.6406q-7.1406 0-11.219-5.6406t-4.0781-15.547 4.0781-15.547 11.219-5.6406q7.125 0 11.203 5.6406t4.0781 15.547z"/>
<path id="ax" d="m2.9844 54.688h9.5156l17.094-45.891 17.094 45.891h9.5156l-20.516-54.688h-12.203z"/>
<path id="s" d="m30.609 48.391q-7.2188 0-11.422-5.6406t-4.2031-15.453 4.1719-15.453q4.1875-5.6406 11.453-5.6406 7.1875 0 11.375 5.6562 4.2031 5.6719 4.2031 15.438 0 9.7188-4.2031 15.406-4.1875 5.6875-11.375 5.6875zm0 7.6094q11.719 0 18.406-7.625 6.7031-7.6094 6.7031-21.078 0-13.422-6.7031-21.078-6.6875-7.6406-18.406-7.6406-11.766 0-18.438 7.6406-6.6562 7.6562-6.6562 21.078 0 13.469 6.6562 21.078 6.6719 7.625 18.438 7.625z"/>
<path id="aj" d="m8.5 21.578v33.109h8.9844v-32.766q0-7.7656 3.0156-11.656 3.0312-3.875 9.0938-3.875 7.2656 0 11.484 4.6406 4.2344 4.6406 4.2344 12.656v31h8.9844v-54.688h-8.9844v8.4062q-3.2656-4.9844-7.5938-7.4062-4.3125-2.4219-10.031-2.4219-9.4219 0-14.312 5.8594-4.875 5.8594-4.875 17.141z"/>
<path id="o" d="m44.281 53.078v-8.5q-3.7969 1.9531-7.9062 2.9219-4.0938 0.98438-8.5 0.98438-6.6875 0-10.031-2.0469t-3.3438-6.1562q0-3.125 2.3906-4.9062t9.625-3.3906l3.0781-0.6875q9.5625-2.0469 13.594-5.7812t4.0312-10.422q0-7.625-6.0312-12.078-6.0312-4.4375-16.578-4.4375-4.3906 0-9.1562 0.85938t-10.031 2.5625v9.2812q4.9844-2.5938 9.8125-3.8906 4.8281-1.2812 9.5781-1.2812 6.3438 0 9.75 2.1719 3.4219 2.1719 3.4219 6.125 0 3.6562-2.4688 5.6094-2.4531 1.9531-10.812 3.7656l-3.125 0.73438q-8.3438 1.75-12.062 5.3906-3.7031 3.6406-3.7031 9.9844 0 7.7188 5.4688 11.906 5.4688 4.2031 15.531 4.2031 4.9688 0 9.3594-0.73438 4.4062-0.71875 8.1094-2.1875z"/>
</defs>
<g transform="translate(166.85 740.94) scale(.1 -.1)">
<use xlink:href="#ak"/>
<use x="63.476562" xlink:href="#f"/>
<use x="102.339844" xlink:href="#d"/>
<use x="163.863281" xlink:href="#ax"/>
<use x="223.042969" xlink:href="#i"/>
<use x="250.826172" xlink:href="#s"/>
<use x="312.007812" xlink:href="#aj"/>
<use x="375.386719" xlink:href="#o"/>
</g>
</g>
<g clip-path="url(#a)">
<g transform="translate(198.56 740.94) scale(.1 -.1)">
<use xlink:href="#f"/>
<use x="38.863281" xlink:href="#d"/>
<use x="100.386719" xlink:href="#ac"/>
<use x="155.367188" xlink:href="#s"/>
<use x="216.548828" xlink:href="#f"/>
<use x="255.912109" xlink:href="#u"/>
<use x="319.388672" xlink:href="#o"/>
</g>
</g>
<g clip-path="url(#a)">
<defs>
<path id="as" d="m37.109 75.984v-7.4844h-8.5938q-4.8281 0-6.7188-1.9531-1.875-1.9531-1.875-7.0312v-4.8281h14.797v-6.9844h-14.797v-47.703h-9.0312v47.703h-8.5938v6.9844h8.5938v3.8125q0 9.125 4.25 13.297 4.25 4.1875 13.469 4.1875z"/>
</defs>
<g transform="translate(242.06 740.94) scale(.1 -.1)">
<use xlink:href="#as"/>
<use x="35.205078" xlink:href="#s"/>
<use x="96.386719" xlink:href="#f"/>
</g>
</g>
<g clip-path="url(#a)">
<defs>
<path id="t" d="m54.891 33.016v-33.016h-8.9844v32.719q0 7.7656-3.0312 11.609-3.0312 3.8594-9.0781 3.8594-7.2812 0-11.484-4.6406-4.2031-4.625-4.2031-12.641v-30.906h-9.0312v75.984h9.0312v-29.797q3.2344 4.9375 7.5938 7.375 4.375 2.4375 10.094 2.4375 9.4219 0 14.25-5.8281 4.8438-5.8281 4.8438-17.156z"/>
</defs>
<g transform="translate(275.43 740.94) scale(.1 -.1)">
<use xlink:href="#r"/>
<use x="39.208984" xlink:href="#t"/>
<use x="102.587891" xlink:href="#d"/>
</g>
</g>
<g clip-path="url(#a)">
<g transform="translate(302.86 740.94) scale(.1 -.1)">
<use xlink:href="#r"/>
<use x="39.208984" xlink:href="#t"/>
<use x="102.587891" xlink:href="#d"/>
<use x="164.111328" xlink:href="#g"/>
<use x="225.390625" xlink:href="#r"/>
<use x="264.599609" xlink:href="#d"/>
<use x="326.123047" xlink:href="#f"/>
</g>
</g>
<g clip-path="url(#a)">
<g transform="translate(352.29 740.94) scale(.1 -.1)">
<use xlink:href="#g"/>
<use x="61.279297" xlink:href="#h"/>
<use x="124.658203" xlink:href="#u"/>
</g>
</g>
<g clip-path="url(#a)">
<g transform="translate(395.31 740.94) scale(.1 -.1)">
<use xlink:href="#ai"/>
<use x="81.787109" xlink:href="#g"/>
<use x="143.066406" xlink:href="#o"/>
</g>
</g>
<g clip-path="url(#a)">
<defs>
<path id="am" d="m48.688 27.297q0 9.9062-4.0781 15.547t-11.203 5.6406q-7.1406 0-11.219-5.6406t-4.0781-15.547 4.0781-15.547 11.219-5.6406q7.125 0 11.203 5.6406t4.0781 15.547zm-30.578 19.094q2.8438 4.875 7.1562 7.2344 4.3281 2.375 10.328 2.375 9.9688 0 16.188-7.9062 6.2344-7.9062 6.2344-20.797t-6.2344-20.812q-6.2188-7.9062-16.188-7.9062-6 0-10.328 2.375-4.3125 2.375-7.1562 7.25v-8.2031h-9.0312v75.984h9.0312z"/>
</defs>
<g transform="translate(426.85 740.94) scale(.1 -.1)">
<use xlink:href="#u"/>
<use x="63.476562" xlink:href="#d"/>
<use x="125" xlink:href="#o"/>
<use x="177.099609" xlink:href="#ac"/>
<use x="232.080078" xlink:href="#f"/>
<use x="273.193359" xlink:href="#i"/>
<use x="300.976562" xlink:href="#am"/>
<use x="364.453125" xlink:href="#d"/>
<use x="425.976562" xlink:href="#u"/>
</g>
</g>
<g clip-path="url(#a)">
<g transform="translate(494.81 740.94) scale(.1 -.1)">
<use xlink:href="#g"/>
<use x="61.279297" xlink:href="#o"/>
</g>
</g>
<g clip-path="url(#a)">
<defs>
<path id="ar" d="m17.922 72.906v-27.109h-8.2969v27.109zm18.453 0v-27.109h-8.2969v27.109z"/>
</defs>
<g transform="translate(550.22 740.94) scale(.1 -.1)">
<use xlink:href="#ar"/>
</g>
</g>
<g clip-path="url(#a)">
<g transform="translate(598.15 740.94) scale(.1 -.1)">
<use xlink:href="#s"/>
<use x="61.181641" xlink:href="#h"/>
<use x="124.560547" xlink:href="#d"/>
</g>
</g>
<g clip-path="url(#a)">
<g transform="translate(660.46 740.94) scale(.1 -.1)">
<use xlink:href="#s"/>
<use x="61.181641" xlink:href="#as"/>
</g>
</g>
<g clip-path="url(#a)">
<g transform="translate(717.79 740.94) scale(.1 -.1)">
<use xlink:href="#r"/>
<use x="39.208984" xlink:href="#t"/>
<use x="102.587891" xlink:href="#d"/>
</g>
</g>
<g clip-path="url(#a)">
<g transform="translate(768.74 740.94) scale(.1 -.1)">
<use xlink:href="#al"/>
<use x="63.476562" xlink:href="#f"/>
<use x="102.339844" xlink:href="#d"/>
<use x="163.863281" xlink:href="#g"/>
<use x="225.142578" xlink:href="#r"/>
<use x="264.351562" xlink:href="#d"/>
<use x="325.875" xlink:href="#o"/>
<use x="377.974609" xlink:href="#r"/>
</g>
</g>
<g clip-path="url(#a)">
<g transform="translate(834.51 740.94) scale(.1 -.1)">
<use xlink:href="#ak"/>
<use x="63.476562" xlink:href="#d"/>
<use x="125" xlink:href="#f"/>
<use x="166.113281" xlink:href="#o"/>
<use x="218.212891" xlink:href="#s"/>
<use x="279.394531" xlink:href="#h"/>
<use x="342.773438" xlink:href="#g"/>
<use x="404.052734" xlink:href="#j"/>
</g>
</g>
<g clip-path="url(#a)">
<g transform="translate(903.1 740.94) scale(.1 -.1)">
<use xlink:href="#r"/>
<use x="39.208984" xlink:href="#f"/>
<use x="80.322266" xlink:href="#i"/>
<use x="108.105469" xlink:href="#aj"/>
<use x="171.484375" xlink:href="#l"/>
<use x="268.896484" xlink:href="#ak"/>
<use x="332.373047" xlink:href="#t"/>
<use x="395.751953" xlink:href="#o"/>
</g>
</g>
<g clip-path="url(#a)">
<g transform="translate(993.21 740.94) scale(.1 -.1)">
<use xlink:href="#i"/>
<use x="27.783203" xlink:href="#h"/>
</g>
</g>
<g clip-path="url(#a)">
<g transform="translate(1060 740.94) scale(.1 -.1)">
<use xlink:href="#o"/>
<use x="52.099609" xlink:href="#t"/>
<use x="115.478516" xlink:href="#s"/>
<use x="176.660156" xlink:href="#ai"/>
</g>
</g>
<g clip-path="url(#a)">
<g transform="translate(1129.2 740.94) scale(.1 -.1)">
<use xlink:href="#am"/>
<use x="63.476562" xlink:href="#aj"/>
<use x="126.855469" xlink:href="#o"/>
<use x="178.955078" xlink:href="#i"/>
<use x="206.738281" xlink:href="#h"/>
<use x="270.117188" xlink:href="#d"/>
<use x="331.640625" xlink:href="#o"/>
<use x="383.740234" xlink:href="#o"/>
</g>
</g>
<g clip-path="url(#a)">
<defs>
<path id="av" d="m32.172-5.0781q-3.7969-9.7656-7.4219-12.734-3.6094-2.9844-9.6562-2.9844h-7.1875v7.5156h5.2812q3.7031 0 5.75 1.7656 2.0625 1.75 4.5469 8.2969l1.6094 4.0938-22.109 53.812h9.5156l17.094-42.766 17.094 42.766h9.5156z"/>
</defs>
<g transform="translate(1214.8 740.94) scale(.1 -.1)">
<use xlink:href="#t"/>
<use x="63.378906" xlink:href="#i"/>
<use x="91.162109" xlink:href="#o"/>
<use x="143.261719" xlink:href="#r"/>
<use x="182.470703" xlink:href="#s"/>
<use x="243.652344" xlink:href="#f"/>
<use x="284.765625" xlink:href="#av"/>
</g>
</g>
<g clip-path="url(#a)">
<defs>
<path id="e" d="m10.688 12.406h10.312v-12.406h-10.312z"/>
</defs>
<g transform="translate(1314.2 740.94) scale(.1 -.1)">
<use xlink:href="#e"/>
</g>
</g>
<g clip-path="url(#a)">
<g transform="translate(1400.2 740.94) scale(.1 -.1)">
<use xlink:href="#ar"/>
</g>
</g>
<g clip-path="url(#a)">
<g transform="translate(284.08 37.911) scale(.1 -.1)">
<use xlink:href="#c"/>
<use x="63.623047" xlink:href="#e"/>
<use x="95.410156" xlink:href="#c"/>
</g>
</g>
<g clip-path="url(#a)">
<defs>
<path id="n" d="m19.188 8.2969h34.422v-8.2969h-46.281v8.2969q5.6094 5.8125 15.297 15.594 9.7031 9.7969 12.188 12.641 4.7344 5.3125 6.6094 9 1.8906 3.6875 1.8906 7.25 0 5.8125-4.0781 9.4688-4.0781 3.6719-10.625 3.6719-4.6406 0-9.7969-1.6094-5.1406-1.6094-11-4.8906v9.9688q5.9531 2.3906 11.125 3.6094 5.1875 1.2188 9.4844 1.2188 11.328 0 18.062-5.6719 6.7344-5.6562 6.7344-15.125 0-4.5-1.6875-8.5312-1.6719-4.0156-6.125-9.4844-1.2188-1.4219-7.7656-8.1875-6.5312-6.7656-18.453-18.922z"/>
</defs>
<g transform="translate(137.45 240.46) scale(.1 -.1)">
<use xlink:href="#c"/>
<use x="63.623047" xlink:href="#e"/>
<use x="95.410156" xlink:href="#n"/>
</g>
</g>
<g clip-path="url(#a)">
<defs>
<path id="m" d="m40.578 39.312q7.0781-1.5156 11.047-6.3125 3.9844-4.7812 3.9844-11.812 0-10.781-7.4219-16.703-7.4219-5.9062-21.094-5.9062-4.5781 0-9.4375 0.90625t-10.031 2.7188v9.5156q4.0938-2.3906 8.9688-3.6094 4.8906-1.2188 10.219-1.2188 9.2656 0 14.125 3.6562t4.8594 10.641q0 6.4531-4.5156 10.078-4.5156 3.6406-12.562 3.6406h-8.5v8.1094h8.8906q7.2656 0 11.125 2.9062t3.8594 8.375q0 5.6094-3.9844 8.6094-3.9688 3.0156-11.391 3.0156-4.0625 0-8.7031-0.89062-4.6406-0.875-10.203-2.7188v8.7812q5.625 1.5625 10.531 2.3438t9.25 0.78125q11.234 0 17.766-5.1094 6.5469-5.0938 6.5469-13.781 0-6.0625-3.4688-10.234t-9.8594-5.7812z"/>
</defs>
<g transform="translate(353.74 642.44) scale(.1 -.1)">
<use xlink:href="#c"/>
<use x="63.623047" xlink:href="#e"/>
<use x="95.410156" xlink:href="#m"/>
</g>
</g>
<g clip-path="url(#a)">
<defs>
<path id="q" d="m37.797 64.312-24.906-38.922h24.906zm-2.5938 8.5938h12.406v-47.516h10.406v-8.2031h-10.406v-17.188h-9.8125v17.188h-32.906v9.5156z"/>
</defs>
<g transform="translate(361.04 139.27) scale(.1 -.1)">
<use xlink:href="#c"/>
<use x="63.623047" xlink:href="#e"/>
<use x="95.410156" xlink:href="#q"/>
</g>
</g>
<g clip-path="url(#a)">
<defs>
<path id="aa" d="m8.2031 72.906h46.875v-4.2031l-26.469-68.703h-10.297l24.906 64.594h-35.016z"/>
</defs>
<g transform="translate(397.11 642.44) scale(.1 -.1)">
<use xlink:href="#c"/>
<use x="63.623047" xlink:href="#e"/>
<use x="95.410156" xlink:href="#aa"/>
</g>
</g>
<g clip-path="url(#a)">
<defs>
<path id="z" d="m31.781 34.625q-7.0312 0-11.062-3.7656-4.0156-3.7656-4.0156-10.344 0-6.5938 4.0156-10.359 4.0312-3.7656 11.062-3.7656t11.078 3.7812q4.0625 3.7969 4.0625 10.344 0 6.5781-4.0312 10.344-4.0156 3.7656-11.109 3.7656zm-9.8594 4.1875q-6.3438 1.5625-9.8906 5.9062-3.5312 4.3594-3.5312 10.609 0 8.7344 6.2188 13.812 6.2344 5.0781 17.062 5.0781 10.891 0 17.094-5.0781t6.2031-13.812q0-6.25-3.5469-10.609-3.5312-4.3438-9.8281-5.9062 7.125-1.6562 11.094-6.5 3.9844-4.8281 3.9844-11.797 0-10.609-6.4688-16.281-6.4688-5.6562-18.531-5.6562-12.047 0-18.531 5.6562-6.4688 5.6719-6.4688 16.281 0 6.9688 4 11.797 4.0156 4.8438 11.141 6.5zm-3.6094 15.578q0-5.6562 3.5312-8.8281 3.5469-3.1719 9.9375-3.1719 6.3594 0 9.9375 3.1719 3.5938 3.1719 3.5938 8.8281 0 5.6719-3.5938 8.8438-3.5781 3.1719-9.9375 3.1719-6.3906 0-9.9375-3.1719-3.5312-3.1719-3.5312-8.8438z"/>
</defs>
<g transform="translate(443.37 642.44) scale(.1 -.1)">
<use xlink:href="#c"/>
<use x="63.623047" xlink:href="#e"/>
<use x="95.410156" xlink:href="#z"/>
</g>
</g>
<g clip-path="url(#a)">
<g transform="translate(492.78 240.46) scale(.1 -.1)">
<use xlink:href="#c"/>
<use x="63.623047" xlink:href="#e"/>
<use x="95.410156" xlink:href="#x"/>
</g>
</g>
<g clip-path="url(#a)">
<defs>
<path id="ab" d="m31.781 66.406q-7.6094 0-11.453-7.5-3.8281-7.4844-3.8281-22.531 0-14.984 3.8281-22.484 3.8438-7.5 11.453-7.5 7.6719 0 11.5 7.5 3.8438 7.5 3.8438 22.484 0 15.047-3.8438 22.531-3.8281 7.5-11.5 7.5zm0 7.8125q12.266 0 18.734-9.7031 6.4688-9.6875 6.4688-28.141 0-18.406-6.4688-28.109-6.4688-9.6875-18.734-9.6875-12.25 0-18.719 9.6875-6.4688 9.7031-6.4688 28.109 0 18.453 6.4688 28.141 6.4688 9.7031 18.719 9.7031z"/>
</defs>
<g transform="translate(489.34 642.44) scale(.1 -.1)">
<use xlink:href="#c"/>
<use x="63.623047" xlink:href="#e"/>
<use x="95.410156" xlink:href="#c"/>
<use x="159.033203" xlink:href="#ab"/>
</g>
</g>
<g clip-path="url(#a)">
<g transform="translate(819.96 341.45) scale(.1 -.1)">
<use xlink:href="#c"/>
<use x="63.623047" xlink:href="#e"/>
<use x="95.410156" xlink:href="#c"/>
<use x="159.033203" xlink:href="#c"/>
</g>
</g>
<g clip-path="url(#a)">
<g transform="translate(596.32 642.44) scale(.1 -.1)">
<use xlink:href="#c"/>
<use x="63.623047" xlink:href="#e"/>
<use x="95.410156" xlink:href="#c"/>
<use x="159.033203" xlink:href="#m"/>
</g>
</g>
<g clip-path="url(#a)">
<g transform="translate(784.25 542.58) scale(.1 -.1)">
<use xlink:href="#c"/>
<use x="63.623047" xlink:href="#e"/>
<use x="95.410156" xlink:href="#c"/>
<use x="159.033203" xlink:href="#q"/>
</g>
</g>
<g clip-path="url(#a)">
<defs>
<path id="ah" d="m10.797 72.906h38.719v-8.3125h-29.688v-17.859q2.1406 0.73438 4.2812 1.0938 2.1562 0.35938 4.3125 0.35938 12.203 0 19.328-6.6875 7.1406-6.6875 7.1406-18.109 0-11.766-7.3281-18.297-7.3281-6.5156-20.656-6.5156-4.5938 0-9.3594 0.78125-4.75 0.78125-9.8281 2.3438v9.9219q4.3906-2.3906 9.0781-3.5625t9.9062-1.1719q8.4531 0 13.375 4.4375 4.9375 4.4375 4.9375 12.062 0 7.6094-4.9375 12.047-4.9219 4.4531-13.375 4.4531-3.9531 0-7.8906-0.875-3.9219-0.875-8.0156-2.7344z"/>
</defs>
<g transform="translate(714.86 642.44) scale(.1 -.1)">
<use xlink:href="#c"/>
<use x="63.623047" xlink:href="#e"/>
<use x="95.410156" xlink:href="#c"/>
<use x="159.033203" xlink:href="#ah"/>
</g>
</g>
<g clip-path="url(#a)">
<defs>
<path id="ag" d="m33.016 40.375q-6.6406 0-10.531-4.5469-3.875-4.5312-3.875-12.438 0-7.8594 3.875-12.438 3.8906-4.5625 10.531-4.5625t10.516 4.5625q3.875 4.5781 3.875 12.438 0 7.9062-3.875 12.438-3.875 4.5469-10.516 4.5469zm19.578 30.922v-8.9844q-3.7188 1.75-7.5 2.6719-3.7812 0.9375-7.5 0.9375-9.7656 0-14.922-6.5938-5.1406-6.5938-5.875-19.922 2.875 4.25 7.2188 6.5156 4.3594 2.2656 9.5781 2.2656 10.984 0 17.359-6.6719 6.375-6.6562 6.375-18.125 0-11.234-6.6406-18.031-6.6406-6.7812-17.672-6.7812-12.656 0-19.344 9.6875-6.6875 9.7031-6.6875 28.109 0 17.281 8.2031 27.562t22.016 10.281q3.7188 0 7.5-0.73438t7.8906-2.1875z"/>
</defs>
<g transform="translate(778.47 642.44) scale(.1 -.1)">
<use xlink:href="#c"/>
<use x="63.623047" xlink:href="#e"/>
<use x="95.410156" xlink:href="#c"/>
<use x="159.033203" xlink:href="#ag"/>
</g>
</g>
<g clip-path="url(#a)">
<g transform="translate(844.97 642.44) scale(.1 -.1)">
<use xlink:href="#c"/>
<use x="63.623047" xlink:href="#e"/>
<use x="95.410156" xlink:href="#c"/>
<use x="159.033203" xlink:href="#aa"/>
</g>
</g>
<g clip-path="url(#a)">
<g transform="translate(1200.9 442.18) scale(.1 -.1)">
<use xlink:href="#c"/>
<use x="63.623047" xlink:href="#e"/>
<use x="95.410156" xlink:href="#c"/>
<use x="159.033203" xlink:href="#z"/>
</g>
</g>
<g clip-path="url(#a)">
<g transform="translate(986.64 642.44) scale(.1 -.1)">
<use xlink:href="#c"/>
<use x="63.623047" xlink:href="#e"/>
<use x="95.410156" xlink:href="#c"/>
<use x="159.033203" xlink:href="#x"/>
</g>
</g>
<g clip-path="url(#a)">
<g transform="translate(1100.8 542.58) scale(.1 -.1)">
<use xlink:href="#c"/>
<use x="63.623047" xlink:href="#e"/>
<use x="95.410156" xlink:href="#n"/>
<use x="159.033203" xlink:href="#ab"/>
</g>
</g>
<g clip-path="url(#a)">
<g transform="translate(1220.8 642.44) scale(.1 -.1)">
<use xlink:href="#c"/>
<use x="63.623047" xlink:href="#e"/>
<use x="95.410156" xlink:href="#n"/>
<use x="159.033203" xlink:href="#c"/>
</g>
</g>
<g clip-path="url(#a)">
<g transform="translate(1100.8 642.44) scale(.1 -.1)">
<use xlink:href="#c"/>
<use x="63.623047" xlink:href="#e"/>
<use x="95.410156" xlink:href="#n"/>
<use x="159.033203" xlink:href="#n"/>
</g>
</g>
<g clip-path="url(#a)">
<g transform="translate(654.14 642.44) scale(.1 -.1)">
<use xlink:href="#c"/>
<use x="63.623047" xlink:href="#e"/>
<use x="95.410156" xlink:href="#n"/>
<use x="159.033203" xlink:href="#m"/>
</g>
</g>
<g clip-path="url(#a)">
<g transform="translate(914.36 642.44) scale(.1 -.1)">
<use xlink:href="#c"/>
<use x="63.623047" xlink:href="#e"/>
<use x="95.410156" xlink:href="#n"/>
<use x="159.033203" xlink:href="#q"/>
</g>
</g>
<g clip-path="url(#a)">
<g transform="translate(80.07 442.18) scale(.1 -.1)">
<use xlink:href="#c"/>
<use x="63.623047" xlink:href="#e"/>
<use x="95.410156" xlink:href="#n"/>
<use x="159.033203" xlink:href="#ah"/>
</g>
</g>
<g clip-path="url(#a)">
<g transform="translate(127.94 642.44) scale(.1 -.1)">
<use xlink:href="#c"/>
<use x="63.623047" xlink:href="#e"/>
<use x="95.410156" xlink:href="#n"/>
<use x="159.033203" xlink:href="#ag"/>
</g>
</g>
<g clip-path="url(#a)">
<g transform="translate(194.8 341.45) scale(.1 -.1)">
<use xlink:href="#c"/>
<use x="63.623047" xlink:href="#e"/>
<use x="95.410156" xlink:href="#n"/>
<use x="159.033203" xlink:href="#aa"/>
</g>
</g>
<g clip-path="url(#a)">
<g transform="translate(151.07 642.44) scale(.1 -.1)">
<use xlink:href="#c"/>
<use x="63.623047" xlink:href="#e"/>
<use x="95.410156" xlink:href="#n"/>
<use x="159.033203" xlink:href="#z"/>
</g>
</g>
<g clip-path="url(#a)">
<g transform="translate(177.09 642.44) scale(.1 -.1)">
<use xlink:href="#c"/>
<use x="63.623047" xlink:href="#e"/>
<use x="95.410156" xlink:href="#n"/>
<use x="159.033203" xlink:href="#x"/>
</g>
</g>
<g clip-path="url(#a)">
<g transform="translate(206 642.44) scale(.1 -.1)">
<use xlink:href="#c"/>
<use x="63.623047" xlink:href="#e"/>
<use x="95.410156" xlink:href="#m"/>
<use x="159.033203" xlink:href="#ab"/>
</g>
</g>
<g clip-path="url(#a)">
<g transform="translate(245.03 442.18) scale(.1 -.1)">
<use xlink:href="#c"/>
<use x="63.623047" xlink:href="#e"/>
<use x="95.410156" xlink:href="#m"/>
<use x="159.033203" xlink:href="#c"/>
</g>
</g>
<g clip-path="url(#a)">
<g transform="translate(237.8 642.44) scale(.1 -.1)">
<use xlink:href="#c"/>
<use x="63.623047" xlink:href="#e"/>
<use x="95.410156" xlink:href="#m"/>
<use x="159.033203" xlink:href="#n"/>
</g>
</g>
<g clip-path="url(#a)">
<g transform="translate(291.29 542.58) scale(.1 -.1)">
<use xlink:href="#c"/>
<use x="63.623047" xlink:href="#e"/>
<use x="95.410156" xlink:href="#m"/>
<use x="159.033203" xlink:href="#m"/>
</g>
</g>
<g clip-path="url(#a)">
<g transform="translate(272.5 642.44) scale(.1 -.1)">
<use xlink:href="#c"/>
<use x="63.623047" xlink:href="#e"/>
<use x="95.410156" xlink:href="#m"/>
<use x="159.033203" xlink:href="#q"/>
</g>
</g>
<g clip-path="url(#a)">
<g transform="translate(310.09 642.44) scale(.1 -.1)">
<use xlink:href="#c"/>
<use x="63.623047" xlink:href="#e"/>
<use x="95.410156" xlink:href="#m"/>
<use x="159.033203" xlink:href="#ah"/>
</g>
</g>
<g clip-path="url(#a)">
<g transform="translate(55.655 642.44) scale(.1 -.1)">
<use xlink:href="#c"/>
<use x="63.623047" xlink:href="#e"/>
<use x="95.410156" xlink:href="#m"/>
<use x="159.033203" xlink:href="#ag"/>
</g>
</g>
<g clip-path="url(#a)">
<g transform="translate(76.858 542.58) scale(.1 -.1)">
<use xlink:href="#c"/>
<use x="63.623047" xlink:href="#e"/>
<use x="95.410156" xlink:href="#m"/>
<use x="159.033203" xlink:href="#aa"/>
</g>
</g>
<g clip-path="url(#a)">
<g transform="translate(107.7 642.44) scale(.1 -.1)">
<use xlink:href="#c"/>
<use x="63.623047" xlink:href="#e"/>
<use x="95.410156" xlink:href="#m"/>
<use x="159.033203" xlink:href="#z"/>
</g>
</g>
<g clip-path="url(#a)">
<g transform="translate(64.329 642.44) scale(.1 -.1)">
<use xlink:href="#c"/>
<use x="63.623047" xlink:href="#e"/>
<use x="95.410156" xlink:href="#m"/>
<use x="159.033203" xlink:href="#x"/>
</g>
</g>
<g clip-path="url(#a)">
<g transform="translate(90.35 642.44) scale(.1 -.1)">
<use xlink:href="#c"/>
<use x="63.623047" xlink:href="#e"/>
<use x="95.410156" xlink:href="#q"/>
<use x="159.033203" xlink:href="#ab"/>
</g>
</g>
<g clip-path="url(#a)">
<g transform="translate(75.894 642.44) scale(.1 -.1)">
<use xlink:href="#c"/>
<use x="63.623047" xlink:href="#e"/>
<use x="95.410156" xlink:href="#q"/>
<use x="159.033203" xlink:href="#c"/>
</g>
</g>
<g clip-path="url(#a)">
<g transform="translate(541.39 642.44) scale(.1 -.1)">
<use xlink:href="#c"/>
<use x="63.623047" xlink:href="#e"/>
<use x="95.410156" xlink:href="#q"/>
<use x="159.033203" xlink:href="#n"/>
</g>
</g>
<g clip-path="url(#a)">
<g transform="translate(1304.7 642.44) scale(.1 -.1)">
<use xlink:href="#c"/>
<use x="63.623047" xlink:href="#e"/>
<use x="95.410156" xlink:href="#q"/>
<use x="159.033203" xlink:href="#m"/>
</g>
</g>
<g clip-path="url(#a)">
<g transform="translate(1391.4 642.44) scale(.1 -.1)">
<use xlink:href="#c"/>
<use x="63.623047" xlink:href="#e"/>
<use x="95.410156" xlink:href="#q"/>
<use x="159.033203" xlink:href="#q"/>
</g>
</g>
<defs>
<clipPath id="a">
<rect width="1469.3" height="773.33"/>
</clipPath>
</defs>
</svg>
