<?xml version="1.0" encoding="UTF-8"?>
<!DOCTYPE svg  PUBLIC '-//W3C//DTD SVG 1.1//EN'  'http://www.w3.org/Graphics/SVG/1.1/DTD/svg11.dtd'>
<svg width="1013.3pt" height="533.33pt" version="1.1" viewBox="0 0 1013.3 533.33" xmlns="http://www.w3.org/2000/svg" xmlns:xlink="http://www.w3.org/1999/xlink">
<defs>
<style type="text/css">*{stroke-linecap:butt;stroke-linejoin:round;}</style>
</defs>
<path d="m0 533.33h1013.3v-533.33h-1013.3z" fill="#fff"/>
<g fill="none" stroke="#000">
<path d="m137.78 24.242v61.172" clip-path="url(#a)"/>
<path d="m137.78 85.415-78.31 304.13" clip-path="url(#a)"/>
<path d="m137.78 85.415-43.446 364.32" clip-path="url(#a)"/>
<path d="m137.78 85.415-19.309 364.32" clip-path="url(#a)"/>
<path d="m137.78 85.415 141.06 61.085" clip-path="url(#a)"/>
<path d="m59.47 389.55-13.409 60.185" clip-path="url(#a)"/>
<path d="m59.47 389.55-1.3409 60.185" clip-path="url(#a)"/>
<path d="m59.47 389.55 14.75 60.185" clip-path="url(#a)"/>
<path d="m94.334 449.73v59.359" clip-path="url(#a)"/>
<path d="m118.47 449.73v59.359" clip-path="url(#a)"/>
<path d="m278.84 146.5-132.21 303.23" clip-path="url(#a)"/>
<path d="m278.84 146.5-100.03 303.23" clip-path="url(#a)"/>
<path d="m278.84 146.5-43.714 303.23" clip-path="url(#a)"/>
<path d="m278.84 146.5 255.31 60.982" clip-path="url(#a)"/>
<path d="m278.84 146.5 20.65 303.23" clip-path="url(#a)"/>
<path d="m146.63 449.73v59.359" clip-path="url(#a)"/>
<path d="m178.81 449.73v59.359" clip-path="url(#a)"/>
<path d="m235.13 449.73-20.114 59.359" clip-path="url(#a)"/>
<path d="m235.13 449.73 20.114 59.359" clip-path="url(#a)"/>
<path d="m534.16 207.48-186.39 242.25" clip-path="url(#a)"/>
<path d="m534.16 207.48 186.39 60.86" clip-path="url(#a)"/>
<path d="m347.77 449.73v59.359" clip-path="url(#a)"/>
<path d="m720.54 268.34-320.48 181.39" clip-path="url(#a)"/>
<path d="m720.54 268.34-88.501 60.706" clip-path="url(#a)"/>
<path d="m720.54 268.34 162.25 181.39" clip-path="url(#a)"/>
<path d="m720.54 268.34 246.73 181.39" clip-path="url(#a)"/>
<path d="m400.06 449.73v59.359" clip-path="url(#a)"/>
<path d="m632.04 329.05 250.75 120.68" clip-path="url(#a)" stroke-dasharray="3.7,1.6"/>
<path d="m632.04 329.05 170.3 60.5" clip-path="url(#a)"/>
<path d="m632.04 329.05-175.66 120.68" clip-path="url(#a)"/>
<path d="m632.04 329.05-115.32 120.68" clip-path="url(#a)"/>
<path d="m632.04 329.05 91.183 60.5" clip-path="url(#a)"/>
<path d="m632.04 329.05-50.955 120.68" clip-path="url(#a)"/>
<path d="m882.79 449.73v59.359" clip-path="url(#a)"/>
<path d="m456.38 449.73v59.359" clip-path="url(#a)"/>
<path d="m516.72 449.73v59.359" clip-path="url(#a)"/>
<path d="m723.23 389.55-73.751 60.185" clip-path="url(#a)"/>
<path d="m723.23 389.55 75.092 60.185" clip-path="url(#a)"/>
<path d="m723.23 389.55-1.3409 60.185" clip-path="url(#a)"/>
<path d="m649.47 449.73v59.359" clip-path="url(#a)"/>
<path d="m798.32 449.73v59.359" clip-path="url(#a)"/>
<path d="m299.49 449.73v59.359" clip-path="url(#a)"/>
<path d="m46.061 449.73v59.359" clip-path="url(#a)"/>
<path d="m58.129 449.73v59.359" clip-path="url(#a)"/>
<path d="m74.22 449.73v59.359" clip-path="url(#a)"/>
<path d="m581.09 449.73v59.359" clip-path="url(#a)"/>
<path d="m721.88 449.73v59.359" clip-path="url(#a)"/>
<path d="m967.27 449.73v59.359" clip-path="url(#a)"/>
</g>
<path d="m131.51 51.82v6.0162q0 2.4 2.4 2.4h7.7425q2.4 0 2.4-2.4v-6.0162q0-2.4-2.4-2.4h-7.7425q-2.4 0-2.4 2.4z" clip-path="url(#a)" fill="#fff" stroke="#fff"/>
<g clip-path="url(#a)">
<defs>
<path id="ao" d="m9.8125 72.906h9.8594v-29.891h35.844v29.891h9.8594v-72.906h-9.8594v34.719h-35.844v-34.719h-9.8594z"/>
</defs>
<g transform="translate(135.57 51.82) rotate(90) scale(.08 -.08)">
<use xlink:href="#ao"/>
</g>
</g>
<path d="m104.09 241.41 1.2184-4.7319q0.59844-2.3242-1.7257-2.9226l-7.4979-1.9306q-2.3242-0.59844-2.9226 1.7257l-1.2184 4.7319q-0.59844 2.3242 1.7257 2.9226l7.4979 1.9306q2.3242 0.59844 2.9226-1.7257z" clip-path="url(#a)" fill="#fff" stroke="#fff"/>
<g clip-path="url(#a)">
<defs>
<path id="h" d="m-0.29688 72.906h61.672v-8.3125h-25.875v-64.594h-9.9062v64.594h-25.891z"/>
</defs>
<g transform="translate(100.15 240.4) rotate(-75.561) scale(.08 -.08)">
<use xlink:href="#h"/>
</g>
</g>
<path d="m121.96 271.03 0.64802-5.434q0.28419-2.3831-2.0989-2.6673l-7.688-0.91682q-2.3831-0.28419-2.6673 2.0989l-0.64802 5.434q-0.28419 2.3831 2.0989 2.6673l7.688 0.91682q2.3831 0.28419 2.6673-2.0989z" clip-path="url(#a)" fill="#fff" stroke="#fff"/>
<g clip-path="url(#a)">
<defs>
<path id="w" d="m34.188 63.188-13.391-36.281h26.812zm-5.5781 9.7188h11.188l27.781-72.906h-10.25l-6.6406 18.703h-32.859l-6.6406-18.703h-10.406z"/>
</defs>
<g transform="translate(117.92 270.55) rotate(-83.199) scale(.08 -.08)">
<use xlink:href="#w"/>
</g>
</g>
<path d="m134.26 270.31 0.25531-4.817q0.12702-2.3966-2.2696-2.5237l-7.7316-0.40979q-2.3966-0.12702-2.5237 2.2696l-0.25531 4.817q-0.12702 2.3966 2.2696 2.5237l7.7316 0.40979q2.3966 0.12702 2.5237-2.2696z" clip-path="url(#a)" fill="#fff" stroke="#fff"/>
<g clip-path="url(#a)">
<defs>
<path id="s" d="m19.672 64.797v-27.391h12.406q6.8906 0 10.641 3.5625 3.7656 3.5625 3.7656 10.156 0 6.5469-3.7656 10.109-3.75 3.5625-10.641 3.5625zm-9.8594 8.1094h22.266q12.266 0 18.531-5.5469 6.2812-5.5469 6.2812-16.234 0-10.797-6.2812-16.312-6.2656-5.5156-18.531-5.5156h-12.406v-29.297h-9.8594z"/>
</defs>
<g transform="translate(130.2 270.1) rotate(-86.966) scale(.08 -.08)">
<use xlink:href="#s"/>
</g>
</g>
<path d="m203.31 120.62 5.0219 2.1746q2.2024 0.95368 3.1561-1.2487l3.0766-7.105q0.95369-2.2024-1.2487-3.1561l-5.0219-2.1746q-2.2024-0.95369-3.1561 1.2487l-3.0766 7.105q-0.95369 2.2024 1.2487 3.1561z" clip-path="url(#a)" fill="#fff" stroke="#fff"/>
<g clip-path="url(#a)">
<g transform="translate(204.92 116.9) rotate(23.414) scale(.08 -.08)">
<use xlink:href="#w"/>
</g>
</g>
<path d="m58.282 423.72 1.2089-5.4257q0.52193-2.3426-1.8206-2.8645l-7.5572-1.6838q-2.3426-0.52193-2.8645 1.8206l-1.2089 5.4257q-0.52193 2.3426 1.8206 2.8645l7.5572 1.6838q2.3426 0.52193 2.8645-1.8206z" clip-path="url(#a)" fill="#fff" stroke="#fff"/>
<g clip-path="url(#a)">
<defs>
<path id="r" d="m44.391 34.188q3.1719-1.0781 6.1719-4.5938t6.0312-9.6719l10.016-19.922h-10.609l-9.3125 18.703q-3.625 7.3281-7.0156 9.7188t-9.25 2.3906h-10.75v-30.812h-9.8594v72.906h22.266q12.5 0 18.656-5.2344 6.1562-5.2188 6.1562-15.766 0-6.8906-3.2031-11.438-3.2031-4.5312-9.2969-6.2812zm-24.719 30.609v-25.875h12.406q7.125 0 10.766 3.2969t3.6406 9.6875-3.6406 9.6406-10.766 3.25z"/>
</defs>
<g transform="translate(54.315 422.83) rotate(-77.44) scale(.08 -.08)">
<use xlink:href="#r"/>
</g>
</g>
<path d="m65.013 422.31 0.1126-5.0537q0.053459-2.3994-2.3459-2.4529l-7.7406-0.17246q-2.3994-0.053459-2.4529 2.3459l-0.1126 5.0537q-0.053459 2.3994 2.3459 2.4529l7.7406 0.17246q2.3994 0.053459 2.4529-2.3459z" clip-path="url(#a)" fill="#fff" stroke="#fff"/>
<g clip-path="url(#a)">
<defs>
<path id="t" d="m9.8125 72.906h46.094v-8.3125h-36.234v-21.578h34.719v-8.2969h-34.719v-26.422h37.109v-8.2969h-46.969z"/>
</defs>
<g transform="translate(60.95 422.22) rotate(-88.724) scale(.08 -.08)">
<use xlink:href="#t"/>
</g>
</g>
<path d="m60.089 418.42 1.3297 5.4257q0.57129 2.331 2.9023 1.7597l7.52-1.843q2.331-0.57129 1.7597-2.9023l-1.3297-5.4257q-0.57129-2.331-2.9023-1.7597l-7.52 1.843q-2.331 0.57129-1.7597 2.9023z" clip-path="url(#a)" fill="#fff" stroke="#fff"/>
<g clip-path="url(#a)">
<defs>
<path id="o" d="m64.406 67.281v-10.391q-4.9844 4.6406-10.625 6.9219-5.6406 2.2969-11.984 2.2969-12.5 0-19.141-7.6406t-6.6406-22.094q0-14.406 6.6406-22.047t19.141-7.6406q6.3438 0 11.984 2.2969t10.625 6.9375v-10.312q-5.1719-3.5156-10.969-5.2812-5.7812-1.75-12.219-1.75-16.562 0-26.094 10.125-9.5156 10.141-9.5156 27.672 0 17.578 9.5156 27.703 9.5312 10.141 26.094 10.141 6.5312 0 12.312-1.7344 5.7969-1.7344 10.875-5.2031z"/>
</defs>
<g transform="translate(64.036 417.45) rotate(76.229) scale(.08 -.08)">
<use xlink:href="#o"/>
</g>
</g>
<path d="m88.062 462.51v33.808q0 2.4 2.4 2.4h7.7425q2.4 0 2.4-2.4v-33.808q0-2.4-2.4-2.4h-7.7425q-2.4 0-2.4 2.4z" clip-path="url(#a)" fill="#fff" stroke="#fff"/>
<g clip-path="url(#a)">
<defs>
<path id="d" d="m56.203 29.594v-4.3906h-41.312q0.59375-9.2812 5.5938-14.141t13.938-4.8594q5.1719 0 10.031 1.2656t9.6562 3.8125v-8.5q-4.8438-2.0469-9.9219-3.125t-10.297-1.0781q-13.094 0-20.734 7.6094-7.6406 7.625-7.6406 20.625 0 13.422 7.25 21.297 7.25 7.8906 19.562 7.8906 11.031 0 17.453-7.1094 6.4219-7.0938 6.4219-19.297zm-8.9844 2.6406q-0.09375 7.3594-4.125 11.75-4.0312 4.4062-10.672 4.4062-7.5156 0-12.031-4.25t-5.2031-11.969z"/>
<path id="g" d="m41.109 46.297q-1.5156 0.875-3.2969 1.2812-1.7812 0.42188-3.9219 0.42188-7.625 0-11.703-4.9531t-4.0781-14.234v-28.812h-9.0312v54.688h9.0312v-8.5q2.8438 4.9844 7.375 7.3906 4.5469 2.4219 11.047 2.4219 0.92188 0 2.0469-0.125 1.125-0.10938 2.4844-0.35938z"/>
<path id="k" d="m52 44.188q3.375 6.0625 8.0625 8.9375t11.031 2.875q8.5469 0 13.188-5.9844 4.6406-5.9688 4.6406-17v-33.016h-9.0312v32.719q0 7.8594-2.7969 11.656-2.7812 3.8125-8.4844 3.8125-6.9844 0-11.047-4.6406-4.0469-4.625-4.0469-12.641v-30.906h-9.0312v32.719q0 7.9062-2.7812 11.688t-8.5938 3.7812q-6.8906 0-10.953-4.6562-4.0469-4.6562-4.0469-12.625v-30.906h-9.0312v54.688h9.0312v-8.5q3.0781 5.0312 7.375 7.4219t10.203 2.3906q5.9688 0 10.141-3.0312 4.1719-3.0156 6.1719-8.7812z"/>
<path id="i" d="m9.4219 54.688h8.9844v-54.688h-8.9844zm0 21.297h8.9844v-11.391h-8.9844z"/>
<path id="j" d="m54.891 33.016v-33.016h-8.9844v32.719q0 7.7656-3.0312 11.609-3.0312 3.8594-9.0781 3.8594-7.2812 0-11.484-4.6406-4.2031-4.625-4.2031-12.641v-30.906h-9.0312v54.688h9.0312v-8.5q3.2344 4.9375 7.5938 7.375 4.375 2.4375 10.094 2.4375 9.4219 0 14.25-5.8281 4.8438-5.8281 4.8438-17.156z"/>
<path id="e" d="m34.281 27.484q-10.891 0-15.094-2.4844t-4.2031-8.5q0-4.7812 3.1562-7.5938 3.1562-2.7969 8.5625-2.7969 7.4844 0 12 5.2969t4.5156 14.078v2zm17.922 3.7188v-31.203h-8.9844v8.2969q-3.0781-4.9688-7.6719-7.3438t-11.234-2.375q-8.3906 0-13.359 4.7188-4.9531 4.7188-4.9531 12.625 0 9.2188 6.1719 13.906 6.1875 4.6875 18.438 4.6875h12.609v0.89062q0 6.2031-4.0781 9.5938t-11.453 3.3906q-4.6875 0-9.1406-1.125-4.4375-1.125-8.5312-3.375v8.3125q4.9219 1.9062 9.5625 2.8438 4.6406 0.95312 9.0312 0.95312 11.875 0 17.734-6.1562 5.8594-6.1406 5.8594-18.641z"/>
<path id="l" d="m9.4219 75.984h8.9844v-75.984h-8.9844z"/>
</defs>
<g transform="translate(92.126 462.51) rotate(90) scale(.08 -.08)">
<use xlink:href="#h"/>
<use x="44.083984" xlink:href="#d"/>
<use x="105.607422" xlink:href="#g"/>
<use x="144.970703" xlink:href="#k"/>
<use x="242.382812" xlink:href="#i"/>
<use x="270.166016" xlink:href="#j"/>
<use x="333.544922" xlink:href="#e"/>
<use x="394.824219" xlink:href="#l"/>
</g>
</g>
<path d="m112.2 462.51v33.808q0 2.4 2.4 2.4h7.7425q2.4 0 2.4-2.4v-33.808q0-2.4-2.4-2.4h-7.7425q-2.4 0-2.4 2.4z" clip-path="url(#a)" fill="#fff" stroke="#fff"/>
<g clip-path="url(#a)">
<g transform="translate(116.26 462.51) rotate(90) scale(.08 -.08)">
<use xlink:href="#h"/>
<use x="44.083984" xlink:href="#d"/>
<use x="105.607422" xlink:href="#g"/>
<use x="144.970703" xlink:href="#k"/>
<use x="242.382812" xlink:href="#i"/>
<use x="270.166016" xlink:href="#j"/>
<use x="333.544922" xlink:href="#e"/>
<use x="394.824219" xlink:href="#l"/>
</g>
</g>
<path d="m217.37 303.17 2.2217-5.0955q0.95923-2.2-1.2407-3.1592l-7.0972-3.0945q-2.2-0.95923-3.1592 1.2407l-2.2217 5.0955q-0.95923 2.2 1.2407 3.1592l7.0972 3.0945q2.2 0.95923 3.1592-1.2407z" clip-path="url(#a)" fill="#fff" stroke="#fff"/>
<g clip-path="url(#a)">
<g transform="translate(213.65 301.55) rotate(-66.442) scale(.08 -.08)">
<use xlink:href="#r"/>
</g>
</g>
<path d="m234.06 302.27 1.4415-4.3696q0.75187-2.2792-1.5273-3.0311l-7.3527-2.4256q-2.2792-0.75187-3.0311 1.5273l-1.4415 4.3696q-0.75187 2.2792 1.5273 3.0311l7.3527 2.4256q2.2792 0.75187 3.0311-1.5273z" clip-path="url(#a)" fill="#fff" stroke="#fff"/>
<g clip-path="url(#a)">
<defs>
<path id="ap" d="m9.8125 72.906h41.891v-8.3125h-32.031v-21.484h28.906v-8.2969h-28.906v-34.812h-9.8594z"/>
</defs>
<g transform="translate(230.2 300.99) rotate(-71.743) scale(.08 -.08)">
<use xlink:href="#ap"/>
</g>
</g>
<path d="m262.8 301.77 0.79707-5.5291q0.34244-2.3754-2.033-2.7179l-7.6633-1.1047q-2.3754-0.34244-2.7179 2.033l-0.79707 5.5291q-0.34244 2.3754 2.033 2.7179l7.6633 1.1047q2.3754 0.34244 2.7179-2.033z" clip-path="url(#a)" fill="#fff" stroke="#fff"/>
<g clip-path="url(#a)">
<g transform="translate(258.77 301.2) rotate(-81.797) scale(.08 -.08)">
<use xlink:href="#o"/>
</g>
</g>
<path d="m402.58 182.5 4.9167 1.1744q2.3343 0.55757 2.8919-1.7768l1.7987-7.5307q0.55757-2.3343-1.7768-2.8919l-4.9167-1.1744q-2.3343-0.55757-2.8919 1.7768l-1.7987 7.5307q-0.55757 2.3343 1.7768 2.8919z" clip-path="url(#a)" fill="#fff" stroke="#fff"/>
<g clip-path="url(#a)">
<g transform="translate(403.53 178.55) rotate(13.434) scale(.08 -.08)">
<use xlink:href="#t"/>
</g>
</g>
<path d="m282.71 295.62 0.3978 5.8415q0.16306 2.3945 2.5575 2.2314l7.7246-0.52605q2.3945-0.16306 2.2314-2.5575l-0.3978-5.8415q-0.16306-2.3945-2.5575-2.2314l-7.7246 0.52605q-2.3945 0.16306-2.2314 2.5575z" clip-path="url(#a)" fill="#fff" stroke="#fff"/>
<g clip-path="url(#a)">
<defs>
<path id="q" d="m8.6875 72.906h9.9219v-44.297q0-11.719 4.2344-16.875 4.25-5.1406 13.781-5.1406 9.4688 0 13.719 5.1406 4.25 5.1562 4.25 16.875v44.297h9.9062v-45.516q0-14.25-7.0625-21.531-7.0469-7.2812-20.812-7.2812-13.828 0-20.891 7.2812-7.0469 7.2812-7.0469 21.531z"/>
</defs>
<g transform="translate(286.77 295.34) rotate(86.104) scale(.08 -.08)">
<use xlink:href="#q"/>
</g>
</g>
<path d="m140.36 462.51v33.808q0 2.4 2.4 2.4h7.7425q2.4 0 2.4-2.4v-33.808q0-2.4-2.4-2.4h-7.7425q-2.4 0-2.4 2.4z" clip-path="url(#a)" fill="#fff" stroke="#fff"/>
<g clip-path="url(#a)">
<g transform="translate(144.42 462.51) rotate(90) scale(.08 -.08)">
<use xlink:href="#h"/>
<use x="44.083984" xlink:href="#d"/>
<use x="105.607422" xlink:href="#g"/>
<use x="144.970703" xlink:href="#k"/>
<use x="242.382812" xlink:href="#i"/>
<use x="270.166016" xlink:href="#j"/>
<use x="333.544922" xlink:href="#e"/>
<use x="394.824219" xlink:href="#l"/>
</g>
</g>
<path d="m172.54 462.51v33.808q0 2.4 2.4 2.4h7.7425q2.4 0 2.4-2.4v-33.808q0-2.4-2.4-2.4h-7.7425q-2.4 0-2.4 2.4z" clip-path="url(#a)" fill="#fff" stroke="#fff"/>
<g clip-path="url(#a)">
<g transform="translate(176.6 462.51) rotate(90) scale(.08 -.08)">
<use xlink:href="#h"/>
<use x="44.083984" xlink:href="#d"/>
<use x="105.607422" xlink:href="#g"/>
<use x="144.970703" xlink:href="#k"/>
<use x="242.382812" xlink:href="#i"/>
<use x="270.166016" xlink:href="#j"/>
<use x="333.544922" xlink:href="#e"/>
<use x="394.824219" xlink:href="#l"/>
</g>
</g>
<path d="m225.59 497.43 10.85-32.019q0.77022-2.273-1.5028-3.0433l-7.333-2.4848q-2.273-0.77023-3.0433 1.5028l-10.85 32.019q-0.77023 2.273 1.5028 3.0433l7.333 2.4848q2.273 0.77022 3.0433-1.5028z" clip-path="url(#a)" fill="#fff" stroke="#fff"/>
<g clip-path="url(#a)">
<g transform="translate(221.74 496.13) rotate(-71.281) scale(.08 -.08)">
<use xlink:href="#h"/>
<use x="44.083984" xlink:href="#d"/>
<use x="105.607422" xlink:href="#g"/>
<use x="144.970703" xlink:href="#k"/>
<use x="242.382812" xlink:href="#i"/>
<use x="270.166016" xlink:href="#j"/>
<use x="333.544922" xlink:href="#e"/>
<use x="394.824219" xlink:href="#l"/>
</g>
</g>
<path d="m233.82 465.41 10.85 32.019q0.77022 2.273 3.0433 1.5028l7.333-2.4848q2.273-0.77022 1.5028-3.0433l-10.85-32.019q-0.77022-2.273-3.0433-1.5028l-7.333 2.4848q-2.273 0.77022-1.5028 3.0433z" clip-path="url(#a)" fill="#fff" stroke="#fff"/>
<g clip-path="url(#a)">
<g transform="translate(237.67 464.11) rotate(71.281) scale(.08 -.08)">
<use xlink:href="#h"/>
<use x="44.083984" xlink:href="#d"/>
<use x="105.607422" xlink:href="#g"/>
<use x="144.970703" xlink:href="#k"/>
<use x="242.382812" xlink:href="#i"/>
<use x="270.166016" xlink:href="#j"/>
<use x="333.544922" xlink:href="#e"/>
<use x="394.824219" xlink:href="#l"/>
</g>
</g>
<path d="m444.23 334.64 3.4065-4.4274q1.4635-1.9021-0.43863-3.3657l-6.1364-4.7213q-1.9021-1.4635-3.3656 0.43863l-3.4065 4.4274q-1.4635 1.9021 0.43863 3.3656l6.1364 4.7213q1.9021 1.4635 3.3656-0.43863z" clip-path="url(#a)" fill="#fff" stroke="#fff"/>
<g clip-path="url(#a)">
<g transform="translate(441.01 332.17) rotate(-52.425) scale(.08 -.08)">
<use xlink:href="#o"/>
</g>
</g>
<path d="m623 243.09 4.8053 1.569q2.2815 0.74495 3.0264-1.5365l2.4032-7.3601q0.74495-2.2815-1.5365-3.0264l-4.8053-1.569q-2.2815-0.74495-3.0264 1.5365l-2.4032 7.3601q-0.74495 2.2815 1.5365 3.0264z" clip-path="url(#a)" fill="#fff" stroke="#fff"/>
<g clip-path="url(#a)">
<g transform="translate(624.26 239.23) rotate(18.083) scale(.08 -.08)">
<use xlink:href="#t"/>
</g>
</g>
<path d="m341.5 462.51v33.808q0 2.4 2.4 2.4h7.7425q2.4 0 2.4-2.4v-33.808q0-2.4-2.4-2.4h-7.7425q-2.4 0-2.4 2.4z" clip-path="url(#a)" fill="#fff" stroke="#fff"/>
<g clip-path="url(#a)">
<g transform="translate(345.56 462.51) rotate(90) scale(.08 -.08)">
<use xlink:href="#h"/>
<use x="44.083984" xlink:href="#d"/>
<use x="105.607422" xlink:href="#g"/>
<use x="144.970703" xlink:href="#k"/>
<use x="242.382812" xlink:href="#i"/>
<use x="270.166016" xlink:href="#j"/>
<use x="333.544922" xlink:href="#e"/>
<use x="394.824219" xlink:href="#l"/>
</g>
</g>
<path d="m560.97 365.86 4.8376-2.7381q2.0887-1.1822 0.90648-3.2708l-3.8137-6.7381q-1.1822-2.0887-3.2708-0.90648l-4.8376 2.7381q-2.0887 1.1822-0.90648 3.2708l3.8137 6.7381q1.1822 2.0887 3.2708 0.90648z" clip-path="url(#a)" fill="#fff" stroke="#fff"/>
<g clip-path="url(#a)">
<g transform="translate(558.97 362.33) rotate(-29.51) scale(.08 -.08)">
<use xlink:href="#r"/>
</g>
</g>
<path d="m677.76 305.3 4.1686-2.8594q1.9791-1.3576 0.62157-3.3367l-4.3796-6.3848q-1.3576-1.9791-3.3367-0.62157l-4.1686 2.8594q-1.9791 1.3576-0.62157 3.3367l4.3796 6.3848q1.3576 1.9791 3.3367 0.62157z" clip-path="url(#a)" fill="#fff" stroke="#fff"/>
<g clip-path="url(#a)">
<g transform="translate(675.46 301.94) rotate(-34.448) scale(.08 -.08)">
<use xlink:href="#t"/>
</g>
</g>
<path d="m795.13 361.14 3.7243 4.1636q1.6001 1.7888 3.3889 0.18875l5.7708-5.1618q1.7888-1.6001 0.18875-3.3889l-3.7243-4.1636q-1.6001-1.7888-3.3889-0.18875l-5.7708 5.1619q-1.7888 1.6001-0.18875 3.3889z" clip-path="url(#a)" fill="#fff" stroke="#fff"/>
<g clip-path="url(#a)">
<g transform="translate(798.16 358.43) rotate(48.188) scale(.08 -.08)">
<use xlink:href="#o"/>
</g>
</g>
<path d="m837.83 362.36 4.7173 3.4681q1.9337 1.4216 3.3553-0.51207l4.5861-6.2381q1.4216-1.9337-0.51207-3.3553l-4.7173-3.4681q-1.9337-1.4216-3.3553 0.51207l-4.5861 6.2381q-1.4216 1.9337 0.51207 3.3553z" clip-path="url(#a)" fill="#fff" stroke="#fff"/>
<g clip-path="url(#a)">
<g transform="translate(840.24 359.08) rotate(36.323) scale(.08 -.08)">
<use xlink:href="#q"/>
</g>
</g>
<path d="m393.79 462.51v33.808q0 2.4 2.4 2.4h7.7425q2.4 0 2.4-2.4v-33.808q0-2.4-2.4-2.4h-7.7425q-2.4 0-2.4 2.4z" clip-path="url(#a)" fill="#fff" stroke="#fff"/>
<g clip-path="url(#a)">
<g transform="translate(397.86 462.51) rotate(90) scale(.08 -.08)">
<use xlink:href="#h"/>
<use x="44.083984" xlink:href="#d"/>
<use x="105.607422" xlink:href="#g"/>
<use x="144.970703" xlink:href="#k"/>
<use x="242.382812" xlink:href="#i"/>
<use x="270.166016" xlink:href="#j"/>
<use x="333.544922" xlink:href="#e"/>
<use x="394.824219" xlink:href="#l"/>
</g>
</g>
<path d="m751.92 393.7 5.5506 2.6714q2.1626 1.0408 3.2034-1.1217l3.3577-6.9765q1.0408-2.1626-1.1217-3.2034l-5.5506-2.6714q-2.1626-1.0408-3.2034 1.1217l-3.3577 6.9765q-1.0408 2.1626 1.1217 3.2034z" clip-path="url(#a)" fill="#fff" stroke="#fff"/>
<g clip-path="url(#a)">
<defs>
<path id="af" d="m19.672 64.797v-56.688h11.922q15.094 0 22.094 6.8281 7 6.8438 7 21.594 0 14.641-7 21.453t-22.094 6.8125zm-9.8594 8.1094h20.266q21.188 0 31.094-8.8125 9.9219-8.8125 9.9219-27.562 0-18.859-9.9688-27.703-9.9531-8.8281-31.047-8.8281h-20.266z"/>
</defs>
<g transform="translate(753.69 390.04) rotate(25.701) scale(.08 -.08)">
<use xlink:href="#af"/>
</g>
</g>
<path d="m712.82 364.4 4.5454 1.6148q2.2615 0.80344 3.065-1.4581l2.5919-7.2958q0.80344-2.2615-1.4581-3.065l-4.5454-1.6148q-2.2615-0.80344-3.065 1.4581l-2.5919 7.2958q-0.80344 2.2615 1.4581 3.065z" clip-path="url(#a)" fill="#fff" stroke="#fff"/>
<g clip-path="url(#a)">
<g transform="translate(714.18 360.57) rotate(19.558) scale(.08 -.08)">
<use xlink:href="#s"/>
</g>
</g>
<path d="m545.51 396.11 4.5106-3.0989q1.9781-1.359 0.61909-3.3372l-4.3843-6.3815q-1.359-1.9781-3.3372-0.61909l-4.5106 3.0989q-1.9781 1.359-0.61909 3.3372l4.3843 6.3815q1.359 1.9781 3.3372 0.61909z" clip-path="url(#a)" fill="#fff" stroke="#fff"/>
<g clip-path="url(#a)">
<g transform="translate(543.21 392.76) rotate(-34.49) scale(.08 -.08)">
<use xlink:href="#w"/>
</g>
</g>
<path d="m576.79 395.95 4.2556-4.4537q1.658-1.7352-0.077146-3.3932l-5.5978-5.3489q-1.7352-1.658-3.3932 0.077147l-4.2556 4.4537q-1.658 1.7352 0.077147 3.3932l5.5978 5.3489q1.7352 1.658 3.3932-0.077147z" clip-path="url(#a)" fill="#fff" stroke="#fff"/>
<g clip-path="url(#a)">
<g transform="translate(573.85 393.14) rotate(-46.302) scale(.08 -.08)">
<use xlink:href="#af"/>
</g>
</g>
<path d="m672.13 363.17 4.0715 2.7015q1.9998 1.3269 3.3267-0.67293l4.2806-6.4515q1.3269-1.9998-0.67293-3.3267l-4.0715-2.7015q-1.9998-1.3269-3.3267 0.67293l-4.2806 6.4515q-1.3269 1.9998 0.67293 3.3267z" clip-path="url(#a)" fill="#fff" stroke="#fff"/>
<g clip-path="url(#a)">
<g transform="translate(674.38 359.79) rotate(33.565) scale(.08 -.08)">
<use xlink:href="#h"/>
</g>
</g>
<path d="m611.2 394.53 2.2774-5.3939q0.93352-2.211-1.2775-3.1445l-7.1328-3.0116q-2.211-0.93352-3.1445 1.2775l-2.2774 5.3939q-0.93352 2.211 1.2775 3.1445l7.1328 3.0116q2.211 0.93352 3.1445-1.2775z" clip-path="url(#a)" fill="#fff" stroke="#fff"/>
<g clip-path="url(#a)">
<g transform="translate(607.46 392.95) rotate(-67.11) scale(.08 -.08)">
<use xlink:href="#q"/>
</g>
</g>
<path d="m876.52 462.51v33.808q0 2.4 2.4 2.4h7.7425q2.4 0 2.4-2.4v-33.808q0-2.4-2.4-2.4h-7.7425q-2.4 0-2.4 2.4z" clip-path="url(#a)" fill="#fff" stroke="#fff"/>
<g clip-path="url(#a)">
<g transform="translate(880.59 462.51) rotate(90) scale(.08 -.08)">
<use xlink:href="#h"/>
<use x="44.083984" xlink:href="#d"/>
<use x="105.607422" xlink:href="#g"/>
<use x="144.970703" xlink:href="#k"/>
<use x="242.382812" xlink:href="#i"/>
<use x="270.166016" xlink:href="#j"/>
<use x="333.544922" xlink:href="#e"/>
<use x="394.824219" xlink:href="#l"/>
</g>
</g>
<path d="m450.11 462.51v33.808q0 2.4 2.4 2.4h7.7425q2.4 0 2.4-2.4v-33.808q0-2.4-2.4-2.4h-7.7425q-2.4 0-2.4 2.4z" clip-path="url(#a)" fill="#fff" stroke="#fff"/>
<g clip-path="url(#a)">
<g transform="translate(454.17 462.51) rotate(90) scale(.08 -.08)">
<use xlink:href="#h"/>
<use x="44.083984" xlink:href="#d"/>
<use x="105.607422" xlink:href="#g"/>
<use x="144.970703" xlink:href="#k"/>
<use x="242.382812" xlink:href="#i"/>
<use x="270.166016" xlink:href="#j"/>
<use x="333.544922" xlink:href="#e"/>
<use x="394.824219" xlink:href="#l"/>
</g>
</g>
<path d="m510.45 462.51v33.808q0 2.4 2.4 2.4h7.7425q2.4 0 2.4-2.4v-33.808q0-2.4-2.4-2.4h-7.7425q-2.4 0-2.4 2.4z" clip-path="url(#a)" fill="#fff" stroke="#fff"/>
<g clip-path="url(#a)">
<g transform="translate(514.52 462.51) rotate(90) scale(.08 -.08)">
<use xlink:href="#h"/>
<use x="44.083984" xlink:href="#d"/>
<use x="105.607422" xlink:href="#g"/>
<use x="144.970703" xlink:href="#k"/>
<use x="242.382812" xlink:href="#i"/>
<use x="270.166016" xlink:href="#j"/>
<use x="333.544922" xlink:href="#e"/>
<use x="394.824219" xlink:href="#l"/>
</g>
</g>
<path d="m688.16 426.26 4.3067-3.5145q1.8594-1.5174 0.34203-3.3768l-4.8952-5.9986q-1.5174-1.8594-3.3768-0.34203l-4.3067 3.5145q-1.8594 1.5174-0.34203 3.3768l4.8952 5.9986q1.5174 1.8594 3.3768 0.34203z" clip-path="url(#a)" fill="#fff" stroke="#fff"/>
<g clip-path="url(#a)">
<g transform="translate(685.59 423.11) rotate(-39.216) scale(.08 -.08)">
<use xlink:href="#r"/>
</g>
</g>
<path d="m754.67 422.79 4.359 3.4936q1.8727 1.501 3.3737-0.37177l4.8422-6.0415q1.501-1.8727-0.37177-3.3737l-4.359-3.4936q-1.8727-1.501-3.3737 0.37177l-4.8422 6.0415q-1.501 1.8727 0.37177 3.3737z" clip-path="url(#a)" fill="#fff" stroke="#fff"/>
<g clip-path="url(#a)">
<g transform="translate(757.21 419.62) rotate(38.712) scale(.08 -.08)">
<use xlink:href="#o"/>
</g>
</g>
<path d="m728.76 422.71 0.13042-5.8535q0.053459-2.3994-2.3459-2.4529l-7.7406-0.17246q-2.3994-0.053459-2.4529 2.3459l-0.13042 5.8535q-0.053459 2.3994 2.3459 2.4529l7.7406 0.17246q2.3994 0.053459 2.4529-2.3459z" clip-path="url(#a)" fill="#fff" stroke="#fff"/>
<g clip-path="url(#a)">
<g transform="translate(724.7 422.62) rotate(-88.724) scale(.08 -.08)">
<use xlink:href="#q"/>
</g>
</g>
<path d="m643.2 462.51v33.808q0 2.4 2.4 2.4h7.7425q2.4 0 2.4-2.4v-33.808q0-2.4-2.4-2.4h-7.7425q-2.4 0-2.4 2.4z" clip-path="url(#a)" fill="#fff" stroke="#fff"/>
<g clip-path="url(#a)">
<g transform="translate(647.27 462.51) rotate(90) scale(.08 -.08)">
<use xlink:href="#h"/>
<use x="44.083984" xlink:href="#d"/>
<use x="105.607422" xlink:href="#g"/>
<use x="144.970703" xlink:href="#k"/>
<use x="242.382812" xlink:href="#i"/>
<use x="270.166016" xlink:href="#j"/>
<use x="333.544922" xlink:href="#e"/>
<use x="394.824219" xlink:href="#l"/>
</g>
</g>
<path d="m792.05 462.51v33.808q0 2.4 2.4 2.4h7.7425q2.4 0 2.4-2.4v-33.808q0-2.4-2.4-2.4h-7.7425q-2.4 0-2.4 2.4z" clip-path="url(#a)" fill="#fff" stroke="#fff"/>
<g clip-path="url(#a)">
<g transform="translate(796.11 462.51) rotate(90) scale(.08 -.08)">
<use xlink:href="#h"/>
<use x="44.083984" xlink:href="#d"/>
<use x="105.607422" xlink:href="#g"/>
<use x="144.970703" xlink:href="#k"/>
<use x="242.382812" xlink:href="#i"/>
<use x="270.166016" xlink:href="#j"/>
<use x="333.544922" xlink:href="#e"/>
<use x="394.824219" xlink:href="#l"/>
</g>
</g>
<path d="m293.22 462.51v33.808q0 2.4 2.4 2.4h7.7425q2.4 0 2.4-2.4v-33.808q0-2.4-2.4-2.4h-7.7425q-2.4 0-2.4 2.4z" clip-path="url(#a)" fill="#fff" stroke="#fff"/>
<g clip-path="url(#a)">
<g transform="translate(297.29 462.51) rotate(90) scale(.08 -.08)">
<use xlink:href="#h"/>
<use x="44.083984" xlink:href="#d"/>
<use x="105.607422" xlink:href="#g"/>
<use x="144.970703" xlink:href="#k"/>
<use x="242.382812" xlink:href="#i"/>
<use x="270.166016" xlink:href="#j"/>
<use x="333.544922" xlink:href="#e"/>
<use x="394.824219" xlink:href="#l"/>
</g>
</g>
<path d="m39.789 462.51v33.808q0 2.4 2.4 2.4h7.7425q2.4 0 2.4-2.4v-33.808q0-2.4-2.4-2.4h-7.7425q-2.4 0-2.4 2.4z" clip-path="url(#a)" fill="#fff" stroke="#fff"/>
<g clip-path="url(#a)">
<g transform="translate(43.853 462.51) rotate(90) scale(.08 -.08)">
<use xlink:href="#h"/>
<use x="44.083984" xlink:href="#d"/>
<use x="105.607422" xlink:href="#g"/>
<use x="144.970703" xlink:href="#k"/>
<use x="242.382812" xlink:href="#i"/>
<use x="270.166016" xlink:href="#j"/>
<use x="333.544922" xlink:href="#e"/>
<use x="394.824219" xlink:href="#l"/>
</g>
</g>
<path d="m51.858 462.51v33.808q0 2.4 2.4 2.4h7.7425q2.4 0 2.4-2.4v-33.808q0-2.4-2.4-2.4h-7.7425q-2.4 0-2.4 2.4z" clip-path="url(#a)" fill="#fff" stroke="#fff"/>
<g clip-path="url(#a)">
<g transform="translate(55.921 462.51) rotate(90) scale(.08 -.08)">
<use xlink:href="#h"/>
<use x="44.083984" xlink:href="#d"/>
<use x="105.607422" xlink:href="#g"/>
<use x="144.970703" xlink:href="#k"/>
<use x="242.382812" xlink:href="#i"/>
<use x="270.166016" xlink:href="#j"/>
<use x="333.544922" xlink:href="#e"/>
<use x="394.824219" xlink:href="#l"/>
</g>
</g>
<path d="m67.949 462.51v33.808q0 2.4 2.4 2.4h7.7425q2.4 0 2.4-2.4v-33.808q0-2.4-2.4-2.4h-7.7425q-2.4 0-2.4 2.4z" clip-path="url(#a)" fill="#fff" stroke="#fff"/>
<g clip-path="url(#a)">
<g transform="translate(72.012 462.51) rotate(90) scale(.08 -.08)">
<use xlink:href="#h"/>
<use x="44.083984" xlink:href="#d"/>
<use x="105.607422" xlink:href="#g"/>
<use x="144.970703" xlink:href="#k"/>
<use x="242.382812" xlink:href="#i"/>
<use x="270.166016" xlink:href="#j"/>
<use x="333.544922" xlink:href="#e"/>
<use x="394.824219" xlink:href="#l"/>
</g>
</g>
<path d="m574.82 462.51v33.808q0 2.4 2.4 2.4h7.7425q2.4 0 2.4-2.4v-33.808q0-2.4-2.4-2.4h-7.7425q-2.4 0-2.4 2.4z" clip-path="url(#a)" fill="#fff" stroke="#fff"/>
<g clip-path="url(#a)">
<g transform="translate(578.88 462.51) rotate(90) scale(.08 -.08)">
<use xlink:href="#h"/>
<use x="44.083984" xlink:href="#d"/>
<use x="105.607422" xlink:href="#g"/>
<use x="144.970703" xlink:href="#k"/>
<use x="242.382812" xlink:href="#i"/>
<use x="270.166016" xlink:href="#j"/>
<use x="333.544922" xlink:href="#e"/>
<use x="394.824219" xlink:href="#l"/>
</g>
</g>
<path d="m715.61 462.51v33.808q0 2.4 2.4 2.4h7.7425q2.4 0 2.4-2.4v-33.808q0-2.4-2.4-2.4h-7.7425q-2.4 0-2.4 2.4z" clip-path="url(#a)" fill="#fff" stroke="#fff"/>
<g clip-path="url(#a)">
<g transform="translate(719.68 462.51) rotate(90) scale(.08 -.08)">
<use xlink:href="#h"/>
<use x="44.083984" xlink:href="#d"/>
<use x="105.607422" xlink:href="#g"/>
<use x="144.970703" xlink:href="#k"/>
<use x="242.382812" xlink:href="#i"/>
<use x="270.166016" xlink:href="#j"/>
<use x="333.544922" xlink:href="#e"/>
<use x="394.824219" xlink:href="#l"/>
</g>
</g>
<path d="m961 462.51v33.808q0 2.4 2.4 2.4h7.7425q2.4 0 2.4-2.4v-33.808q0-2.4-2.4-2.4h-7.7425q-2.4 0-2.4 2.4z" clip-path="url(#a)" fill="#fff" stroke="#fff"/>
<g clip-path="url(#a)">
<g transform="translate(965.07 462.51) rotate(90) scale(.08 -.08)">
<use xlink:href="#h"/>
<use x="44.083984" xlink:href="#d"/>
<use x="105.607422" xlink:href="#g"/>
<use x="144.970703" xlink:href="#k"/>
<use x="242.382812" xlink:href="#i"/>
<use x="270.166016" xlink:href="#j"/>
<use x="333.544922" xlink:href="#e"/>
<use x="394.824219" xlink:href="#l"/>
</g>
</g>
<defs>
<path id="b" d="m0 8.6603c2.2967 0 4.4997-0.9125 6.1237-2.5365 1.624-1.624 2.5365-3.827 2.5365-6.1237s-0.9125-4.4997-2.5365-6.1237c-1.624-1.624-3.827-2.5365-6.1237-2.5365s-4.4997 0.9125-6.1237 2.5365c-1.624 1.624-2.5365 3.827-2.5365 6.1237s0.9125 4.4997 2.5365 6.1237c1.624 1.624 3.827 2.5365 6.1237 2.5365z"/>
</defs>
<g clip-path="url(#a)">
<use x="46.060606" y="509.090909" fill="#ffffff" stroke="#ffffff" xlink:href="#b"/>
</g>
<g clip-path="url(#a)">
<use x="58.128887" y="509.090909" fill="#ffffff" stroke="#ffffff" xlink:href="#b"/>
</g>
<g clip-path="url(#a)">
<use x="74.219929" y="509.090909" fill="#ffffff" stroke="#ffffff" xlink:href="#b"/>
</g>
<g clip-path="url(#a)">
<use x="94.33373" y="509.090909" fill="#ffffff" stroke="#ffffff" xlink:href="#b"/>
</g>
<g clip-path="url(#a)">
<use x="118.470292" y="509.090909" fill="#ffffff" stroke="#ffffff" xlink:href="#b"/>
</g>
<g clip-path="url(#a)">
<use x="146.629615" y="509.090909" fill="#ffffff" stroke="#ffffff" xlink:href="#b"/>
</g>
<g clip-path="url(#a)">
<use x="178.811698" y="509.090909" fill="#ffffff" stroke="#ffffff" xlink:href="#b"/>
</g>
<g clip-path="url(#a)">
<use x="215.016541" y="509.090909" fill="#ffffff" stroke="#ffffff" xlink:href="#b"/>
</g>
<g clip-path="url(#a)">
<use x="255.244145" y="509.090909" fill="#ffffff" stroke="#ffffff" xlink:href="#b"/>
</g>
<g clip-path="url(#a)">
<use x="299.494508" y="509.090909" fill="#ffffff" stroke="#ffffff" xlink:href="#b"/>
</g>
<g clip-path="url(#a)">
<use x="347.767633" y="509.090909" fill="#ffffff" stroke="#ffffff" xlink:href="#b"/>
</g>
<g clip-path="url(#a)">
<use x="400.063517" y="509.090909" fill="#ffffff" stroke="#ffffff" xlink:href="#b"/>
</g>
<g clip-path="url(#a)">
<use x="456.382162" y="509.090909" fill="#ffffff" stroke="#ffffff" xlink:href="#b"/>
</g>
<g clip-path="url(#a)">
<use x="516.723568" y="509.090909" fill="#ffffff" stroke="#ffffff" xlink:href="#b"/>
</g>
<g clip-path="url(#a)">
<use x="581.087733" y="509.090909" fill="#ffffff" stroke="#ffffff" xlink:href="#b"/>
</g>
<g clip-path="url(#a)">
<use x="649.474659" y="509.090909" fill="#ffffff" stroke="#ffffff" xlink:href="#b"/>
</g>
<g clip-path="url(#a)">
<use x="721.884346" y="509.090909" fill="#ffffff" stroke="#ffffff" xlink:href="#b"/>
</g>
<g clip-path="url(#a)">
<use x="798.316792" y="509.090909" fill="#ffffff" stroke="#ffffff" xlink:href="#b"/>
</g>
<g clip-path="url(#a)">
<use x="882.79476" y="509.090909" fill="#ffffff" stroke="#ffffff" xlink:href="#b"/>
</g>
<g clip-path="url(#a)">
<use x="967.272727" y="509.090909" fill="#ffffff" stroke="#ffffff" xlink:href="#b"/>
</g>
<g clip-path="url(#a)">
<use x="802.339553" y="389.547551" fill="#ffffff" stroke="#ffffff" xlink:href="#b"/>
</g>
<g clip-path="url(#a)">
<use x="137.779542" y="24.242424" fill="#ffffff" stroke="#ffffff" xlink:href="#b"/>
</g>
<g clip-path="url(#a)">
<use x="137.779542" y="85.414604" fill="#ffffff" stroke="#ffffff" xlink:href="#b"/>
</g>
<g clip-path="url(#a)">
<use x="59.469807" y="389.547551" fill="#ffffff" stroke="#ffffff" xlink:href="#b"/>
</g>
<g clip-path="url(#a)">
<use x="94.33373" y="449.732103" fill="#ffffff" stroke="#ffffff" xlink:href="#b"/>
</g>
<g clip-path="url(#a)">
<use x="118.470292" y="449.732103" fill="#ffffff" stroke="#ffffff" xlink:href="#b"/>
</g>
<g clip-path="url(#a)">
<use x="278.844339" y="146.499159" fill="#ffffff" stroke="#ffffff" xlink:href="#b"/>
</g>
<g clip-path="url(#a)">
<use x="146.629615" y="449.732103" fill="#ffffff" stroke="#ffffff" xlink:href="#b"/>
</g>
<g clip-path="url(#a)">
<use x="178.811698" y="449.732103" fill="#ffffff" stroke="#ffffff" xlink:href="#b"/>
</g>
<g clip-path="url(#a)">
<use x="235.130343" y="449.732103" fill="#ffffff" stroke="#ffffff" xlink:href="#b"/>
</g>
<g clip-path="url(#a)">
<use x="534.155529" y="207.481518" fill="#ffffff" stroke="#ffffff" xlink:href="#b"/>
</g>
<g clip-path="url(#a)">
<use x="347.767633" y="449.732103" fill="#ffffff" stroke="#ffffff" xlink:href="#b"/>
</g>
<g clip-path="url(#a)">
<use x="720.543426" y="268.341213" fill="#ffffff" stroke="#ffffff" xlink:href="#b"/>
</g>
<g clip-path="url(#a)">
<use x="400.063517" y="449.732103" fill="#ffffff" stroke="#ffffff" xlink:href="#b"/>
</g>
<g clip-path="url(#a)">
<use x="632.042698" y="329.047336" fill="#ffffff" stroke="#ffffff" xlink:href="#b"/>
</g>
<g clip-path="url(#a)">
<use x="882.79476" y="449.732103" fill="#ffffff" stroke="#ffffff" xlink:href="#b"/>
</g>
<g clip-path="url(#a)">
<use x="456.382162" y="449.732103" fill="#ffffff" stroke="#ffffff" xlink:href="#b"/>
</g>
<g clip-path="url(#a)">
<use x="516.723568" y="449.732103" fill="#ffffff" stroke="#ffffff" xlink:href="#b"/>
</g>
<g clip-path="url(#a)">
<use x="723.225266" y="389.547551" fill="#ffffff" stroke="#ffffff" xlink:href="#b"/>
</g>
<g clip-path="url(#a)">
<use x="649.474659" y="449.732103" fill="#ffffff" stroke="#ffffff" xlink:href="#b"/>
</g>
<g clip-path="url(#a)">
<use x="798.316792" y="449.732103" fill="#ffffff" stroke="#ffffff" xlink:href="#b"/>
</g>
<g clip-path="url(#a)">
<use x="299.494508" y="449.732103" fill="#ffffff" stroke="#ffffff" xlink:href="#b"/>
</g>
<g clip-path="url(#a)">
<use x="46.060606" y="449.732103" fill="#ffffff" stroke="#ffffff" xlink:href="#b"/>
</g>
<g clip-path="url(#a)">
<use x="58.128887" y="449.732103" fill="#ffffff" stroke="#ffffff" xlink:href="#b"/>
</g>
<g clip-path="url(#a)">
<use x="74.219929" y="449.732103" fill="#ffffff" stroke="#ffffff" xlink:href="#b"/>
</g>
<g clip-path="url(#a)">
<use x="581.087733" y="449.732103" fill="#ffffff" stroke="#ffffff" xlink:href="#b"/>
</g>
<g clip-path="url(#a)">
<use x="721.884346" y="449.732103" fill="#ffffff" stroke="#ffffff" xlink:href="#b"/>
</g>
<g clip-path="url(#a)">
<use x="967.272727" y="449.732103" fill="#ffffff" stroke="#ffffff" xlink:href="#b"/>
</g>
<g clip-path="url(#a)">
<defs>
<path id="ae" d="m9.8125 72.906h9.8594v-64.609h35.5v-8.2969h-45.359z"/>
<path id="n" d="m18.312 70.219v-15.531h18.5v-6.9844h-18.5v-29.688q0-6.6875 1.8281-8.5938t7.4531-1.9062h9.2188v-7.5156h-9.2188q-10.406 0-14.359 3.875-3.9531 3.8906-3.9531 14.141v29.688h-6.5938v6.9844h6.5938v15.531z"/>
</defs>
<g transform="translate(33.118 511.85) scale(.1 -.1)">
<use xlink:href="#ae"/>
<use x="55.712891" xlink:href="#e"/>
<use x="116.992188" xlink:href="#n"/>
<use x="156.201172" xlink:href="#d"/>
<use x="217.724609" xlink:href="#g"/>
</g>
</g>
<g clip-path="url(#a)">
<defs>
<path id="p" d="m54.891 33.016v-33.016h-8.9844v32.719q0 7.7656-3.0312 11.609-3.0312 3.8594-9.0781 3.8594-7.2812 0-11.484-4.6406-4.2031-4.625-4.2031-12.641v-30.906h-9.0312v75.984h9.0312v-29.797q3.2344 4.9375 7.5938 7.375 4.375 2.4375 10.094 2.4375 9.4219 0 14.25-5.8281 4.8438-5.8281 4.8438-17.156z"/>
</defs>
<g transform="translate(47.976 511.85) scale(.1 -.1)">
<use xlink:href="#n"/>
<use x="39.208984" xlink:href="#p"/>
<use x="102.587891" xlink:href="#e"/>
<use x="163.867188" xlink:href="#n"/>
</g>
</g>
<g clip-path="url(#a)">
<defs>
<path id="ai" d="m32.172-5.0781q-3.7969-9.7656-7.4219-12.734-3.6094-2.9844-9.6562-2.9844h-7.1875v7.5156h5.2812q3.7031 0 5.75 1.7656 2.0625 1.75 4.5469 8.2969l1.6094 4.0938-22.109 53.812h9.5156l17.094-42.766 17.094 42.766h9.5156z"/>
</defs>
<g transform="translate(63.064 511.85) scale(.1 -.1)">
<use xlink:href="#ai"/>
<use x="59.179688" xlink:href="#d"/>
<use x="120.703125" xlink:href="#e"/>
<use x="181.982422" xlink:href="#g"/>
</g>
</g>
<g clip-path="url(#a)">
<defs>
<path id="ak" d="m44.281 53.078v-8.5q-3.7969 1.9531-7.9062 2.9219-4.0938 0.98438-8.5 0.98438-6.6875 0-10.031-2.0469t-3.3438-6.1562q0-3.125 2.3906-4.9062t9.625-3.3906l3.0781-0.6875q9.5625-2.0469 13.594-5.7812t4.0312-10.422q0-7.625-6.0312-12.078-6.0312-4.4375-16.578-4.4375-4.3906 0-9.1562 0.85938t-10.031 2.5625v9.2812q4.9844-2.5938 9.8125-3.8906 4.8281-1.2812 9.5781-1.2812 6.3438 0 9.75 2.1719 3.4219 2.1719 3.4219 6.125 0 3.6562-2.4688 5.6094-2.4531 1.9531-10.812 3.7656l-3.125 0.73438q-8.3438 1.75-12.062 5.3906-3.7031 3.6406-3.7031 9.9844 0 7.7188 5.4688 11.906 5.4688 4.2031 15.531 4.2031 4.9688 0 9.3594-0.73438 4.4062-0.71875 8.1094-2.1875z"/>
</defs>
<g transform="translate(85.484 511.85) scale(.1 -.1)">
<use xlink:href="#ak"/>
<use x="52.099609" xlink:href="#p"/>
<use x="115.478516" xlink:href="#d"/>
</g>
</g>
<g clip-path="url(#a)">
<defs>
<path id="aj" d="m8.5 21.578v33.109h8.9844v-32.766q0-7.7656 3.0156-11.656 3.0312-3.875 9.0938-3.875 7.2656 0 11.484 4.6406 4.2344 4.6406 4.2344 12.656v31h8.9844v-54.688h-8.9844v8.4062q-3.2656-4.9844-7.5938-7.4062-4.3125-2.4219-10.031-2.4219-9.4219 0-14.312 5.8594-4.875 5.8594-4.875 17.141z"/>
<path id="al" d="m45.406 46.391v29.594h8.9844v-75.984h-8.9844v8.2031q-2.8281-4.875-7.1562-7.25-4.3125-2.375-10.375-2.375-9.9062 0-16.141 7.9062-6.2188 7.9219-6.2188 20.812t6.2188 20.797q6.2344 7.9062 16.141 7.9062 6.0625 0 10.375-2.375 4.3281-2.3594 7.1562-7.2344zm-30.609-19.094q0-9.9062 4.0781-15.547t11.203-5.6406 11.219 5.6406q4.1094 5.6406 4.1094 15.547t-4.1094 15.547q-4.0938 5.6406-11.219 5.6406t-11.203-5.6406-4.0781-15.547z"/>
</defs>
<g transform="translate(96.934 511.85) scale(.1 -.1)">
<use xlink:href="#g"/>
<use x="38.863281" xlink:href="#d"/>
<use x="100.386719" xlink:href="#n"/>
<use x="139.595703" xlink:href="#aj"/>
<use x="202.974609" xlink:href="#g"/>
<use x="242.337891" xlink:href="#j"/>
<use x="305.716797" xlink:href="#d"/>
<use x="367.240234" xlink:href="#al"/>
</g>
</g>
<g clip-path="url(#a)">
<defs>
<path id="ad" d="m30.609 48.391q-7.2188 0-11.422-5.6406t-4.2031-15.453 4.1719-15.453q4.1875-5.6406 11.453-5.6406 7.1875 0 11.375 5.6562 4.2031 5.6719 4.2031 15.438 0 9.7188-4.2031 15.406-4.1875 5.6875-11.375 5.6875zm0 7.6094q11.719 0 18.406-7.625 6.7031-7.6094 6.7031-21.078 0-13.422-6.7031-21.078-6.6875-7.6406-18.406-7.6406-11.766 0-18.438 7.6406-6.6562 7.6562-6.6562 21.078 0 13.469 6.6562 21.078 6.6719 7.625 18.438 7.625z"/>
</defs>
<g transform="translate(141.61 511.85) scale(.1 -.1)">
<use xlink:href="#n"/>
<use x="39.208984" xlink:href="#ad"/>
</g>
</g>
<g clip-path="url(#a)">
<g transform="translate(170.61 511.85) scale(.1 -.1)">
<use xlink:href="#n"/>
<use x="39.208984" xlink:href="#p"/>
<use x="102.587891" xlink:href="#d"/>
</g>
</g>
<g clip-path="url(#a)">
<defs>
<path id="am" d="m48.781 52.594v-8.4062q-3.8125 2.1094-7.6406 3.1562t-7.7344 1.0469q-8.75 0-13.594-5.5469-4.8281-5.5312-4.8281-15.547t4.8281-15.562q4.8438-5.5312 13.594-5.5312 3.9062 0 7.7344 1.0469t7.6406 3.1562v-8.3125q-3.7656-1.75-7.7969-2.625-4.0156-0.89062-8.5625-0.89062-12.359 0-19.641 7.7656-7.2656 7.7656-7.2656 20.953 0 13.375 7.3438 21.031 7.3594 7.6719 20.156 7.6719 4.1406 0 8.0938-0.85938 3.9531-0.84375 7.6719-2.5469z"/>
</defs>
<g transform="translate(198.88 511.85) scale(.1 -.1)">
<use xlink:href="#s"/>
<use x="55.802734" xlink:href="#e"/>
<use x="117.082031" xlink:href="#l"/>
<use x="144.865234" xlink:href="#e"/>
<use x="206.144531" xlink:href="#am"/>
<use x="261.125" xlink:href="#d"/>
</g>
</g>
<g clip-path="url(#a)">
<g transform="translate(235.9 511.85) scale(.1 -.1)">
<use xlink:href="#h"/>
<use x="61.083984" xlink:href="#p"/>
<use x="124.462891" xlink:href="#d"/>
<use x="185.986328" xlink:href="#e"/>
<use x="247.265625" xlink:href="#n"/>
<use x="286.474609" xlink:href="#g"/>
<use x="325.337891" xlink:href="#d"/>
</g>
</g>
<g clip-path="url(#a)">
<defs>
<path id="aq" d="m11.719 12.406h10.297v-8.4062l-8-15.625h-6.2969l4 15.625z"/>
</defs>
<g transform="translate(297.91 511.85) scale(.1 -.1)">
<use xlink:href="#aq"/>
</g>
</g>
<g clip-path="url(#a)">
<g transform="translate(338.74 511.85) scale(.1 -.1)">
<use xlink:href="#ak"/>
<use x="52.099609" xlink:href="#i"/>
<use x="79.882812" xlink:href="#n"/>
<use x="119.091797" xlink:href="#d"/>
</g>
</g>
<g clip-path="url(#a)">
<defs>
<path id="at" d="m37.109 75.984v-7.4844h-8.5938q-4.8281 0-6.7188-1.9531-1.875-1.9531-1.875-7.0312v-4.8281h14.797v-6.9844h-14.797v-47.703h-9.0312v47.703h-8.5938v6.9844h8.5938v3.8125q0 9.125 4.25 13.297 4.25 4.1875 13.469 4.1875z"/>
</defs>
<g transform="translate(395.24 511.85) scale(.1 -.1)">
<use xlink:href="#ad"/>
<use x="61.181641" xlink:href="#at"/>
</g>
</g>
<g clip-path="url(#a)">
<g transform="translate(448.08 511.85) scale(.1 -.1)">
<use xlink:href="#p"/>
<use x="63.378906" xlink:href="#d"/>
<use x="124.902344" xlink:href="#g"/>
</g>
</g>
<g clip-path="url(#a)">
<defs>
<path id="ar" d="m4.2031 54.688h8.9844l11.234-42.672 11.172 42.672h10.594l11.234-42.672 11.188 42.672h8.9844l-14.312-54.688h-10.594l-11.766 44.828-11.812-44.828h-10.609z"/>
</defs>
<g transform="translate(507.61 511.85) scale(.1 -.1)">
<use xlink:href="#n"/>
<use x="39.208984" xlink:href="#ar"/>
<use x="120.996094" xlink:href="#ad"/>
</g>
</g>
<g clip-path="url(#a)">
<defs>
<path id="ah" d="m4.8906 31.391h26.312v-8h-26.312z"/>
</defs>
<g transform="translate(579.28 511.85) scale(.1 -.1)">
<use xlink:href="#ah"/>
</g>
</g>
<g clip-path="url(#a)">
<g transform="translate(646.41 511.85) scale(.1 -.1)">
<use xlink:href="#e"/>
</g>
</g>
<g clip-path="url(#a)">
<g transform="translate(720.08 511.85) scale(.1 -.1)">
<use xlink:href="#ah"/>
</g>
</g>
<g clip-path="url(#a)">
<g transform="translate(789.12 511.85) scale(.1 -.1)">
<use xlink:href="#al"/>
<use x="63.476562" xlink:href="#e"/>
<use x="124.755859" xlink:href="#ai"/>
</g>
</g>
<g clip-path="url(#a)">
<defs>
<path id="as" d="m18.109 8.2031v-29h-9.0312v75.484h9.0312v-8.2969q2.8438 4.875 7.1562 7.2344 4.3281 2.375 10.328 2.375 9.9688 0 16.188-7.9062 6.2344-7.9062 6.2344-20.797t-6.2344-20.812q-6.2188-7.9062-16.188-7.9062-6 0-10.328 2.375-4.3125 2.375-7.1562 7.25zm30.578 19.094q0 9.9062-4.0781 15.547t-11.203 5.6406q-7.1406 0-11.219-5.6406t-4.0781-15.547 4.0781-15.547 11.219-5.6406q7.125 0 11.203 5.6406t4.0781 15.547z"/>
</defs>
<g transform="translate(863.01 511.85) scale(.1 -.1)">
<use xlink:href="#n"/>
<use x="39.208984" xlink:href="#g"/>
<use x="80.322266" xlink:href="#i"/>
<use x="108.105469" xlink:href="#aj"/>
<use x="171.484375" xlink:href="#k"/>
<use x="268.896484" xlink:href="#as"/>
<use x="332.373047" xlink:href="#p"/>
</g>
</g>
<g clip-path="url(#a)">
<defs>
<path id="f" d="m10.688 12.406h10.312v-12.406h-10.312z"/>
</defs>
<g transform="translate(965.68 511.85) scale(.1 -.1)">
<use xlink:href="#f"/>
</g>
</g>
<g clip-path="url(#a)">
<defs>
<path id="v" d="m9.8125 72.906h9.8594v-72.906h-9.8594z"/>
<path id="an" d="m9.8125 72.906h14.703l18.594-49.609 18.703 49.609h14.703v-72.906h-9.625v64.016l-18.797-50h-9.9062l-18.797 50v-64.016h-9.5781z"/>
</defs>
<g transform="translate(781.25 392.31) scale(.1 -.1)">
<use xlink:href="#v"/>
<use x="29.492188" xlink:href="#an"/>
<use x="115.771484" xlink:href="#s"/>
<use x="176.074219" xlink:href="#ae"/>
<use x="231.787109" xlink:href="#v"/>
<use x="261.279297" xlink:href="#o"/>
<use x="331.103516" xlink:href="#v"/>
<use x="360.595703" xlink:href="#h"/>
</g>
</g>
<g clip-path="url(#a)">
<defs>
<path id="c" d="m12.406 8.2969h16.109v55.625l-17.531-3.5156v8.9844l17.438 3.5156h9.8594v-64.609h16.109v-8.2969h-41.984z"/>
</defs>
<g transform="translate(129.83 27.002) scale(.1 -.1)">
<use xlink:href="#c"/>
<use x="63.623047" xlink:href="#f"/>
<use x="95.410156" xlink:href="#c"/>
</g>
</g>
<g clip-path="url(#a)">
<defs>
<path id="m" d="m19.188 8.2969h34.422v-8.2969h-46.281v8.2969q5.6094 5.8125 15.297 15.594 9.7031 9.7969 12.188 12.641 4.7344 5.3125 6.6094 9 1.8906 3.6875 1.8906 7.25 0 5.8125-4.0781 9.4688-4.0781 3.6719-10.625 3.6719-4.6406 0-9.7969-1.6094-5.1406-1.6094-11-4.8906v9.9688q5.9531 2.3906 11.125 3.6094 5.1875 1.2188 9.4844 1.2188 11.328 0 18.062-5.6719 6.7344-5.6562 6.7344-15.125 0-4.5-1.6875-8.5312-1.6719-4.0156-6.125-9.4844-1.2188-1.4219-7.7656-8.1875-6.5312-6.7656-18.453-18.922z"/>
</defs>
<g transform="translate(129.83 88.174) scale(.1 -.1)">
<use xlink:href="#c"/>
<use x="63.623047" xlink:href="#f"/>
<use x="95.410156" xlink:href="#m"/>
</g>
</g>
<g clip-path="url(#a)">
<defs>
<path id="ab" d="m37.797 64.312-24.906-38.922h24.906zm-2.5938 8.5938h12.406v-47.516h10.406v-8.2031h-10.406v-17.188h-9.8125v17.188h-32.906v9.5156z"/>
</defs>
<g transform="translate(51.518 392.31) scale(.1 -.1)">
<use xlink:href="#c"/>
<use x="63.623047" xlink:href="#f"/>
<use x="95.410156" xlink:href="#ab"/>
</g>
</g>
<g clip-path="url(#a)">
<defs>
<path id="aa" d="m10.797 72.906h38.719v-8.3125h-29.688v-17.859q2.1406 0.73438 4.2812 1.0938 2.1562 0.35938 4.3125 0.35938 12.203 0 19.328-6.6875 7.1406-6.6875 7.1406-18.109 0-11.766-7.3281-18.297-7.3281-6.5156-20.656-6.5156-4.5938 0-9.3594 0.78125-4.75 0.78125-9.8281 2.3438v9.9219q4.3906-2.3906 9.0781-3.5625t9.9062-1.1719q8.4531 0 13.375 4.4375 4.9375 4.4375 4.9375 12.062 0 7.6094-4.9375 12.047-4.9219 4.4531-13.375 4.4531-3.9531 0-7.8906-0.875-3.9219-0.875-8.0156-2.7344z"/>
</defs>
<g transform="translate(86.382 452.49) scale(.1 -.1)">
<use xlink:href="#c"/>
<use x="63.623047" xlink:href="#f"/>
<use x="95.410156" xlink:href="#aa"/>
</g>
</g>
<g clip-path="url(#a)">
<defs>
<path id="z" d="m33.016 40.375q-6.6406 0-10.531-4.5469-3.875-4.5312-3.875-12.438 0-7.8594 3.875-12.438 3.8906-4.5625 10.531-4.5625t10.516 4.5625q3.875 4.5781 3.875 12.438 0 7.9062-3.875 12.438-3.875 4.5469-10.516 4.5469zm19.578 30.922v-8.9844q-3.7188 1.75-7.5 2.6719-3.7812 0.9375-7.5 0.9375-9.7656 0-14.922-6.5938-5.1406-6.5938-5.875-19.922 2.875 4.25 7.2188 6.5156 4.3594 2.2656 9.5781 2.2656 10.984 0 17.359-6.6719 6.375-6.6562 6.375-18.125 0-11.234-6.6406-18.031-6.6406-6.7812-17.672-6.7812-12.656 0-19.344 9.6875-6.6875 9.7031-6.6875 28.109 0 17.281 8.2031 27.562t22.016 10.281q3.7188 0 7.5-0.73438t7.8906-2.1875z"/>
</defs>
<g transform="translate(110.52 452.49) scale(.1 -.1)">
<use xlink:href="#c"/>
<use x="63.623047" xlink:href="#f"/>
<use x="95.410156" xlink:href="#z"/>
</g>
</g>
<g clip-path="url(#a)">
<defs>
<path id="y" d="m8.2031 72.906h46.875v-4.2031l-26.469-68.703h-10.297l24.906 64.594h-35.016z"/>
</defs>
<g transform="translate(270.89 149.26) scale(.1 -.1)">
<use xlink:href="#c"/>
<use x="63.623047" xlink:href="#f"/>
<use x="95.410156" xlink:href="#y"/>
</g>
</g>
<g clip-path="url(#a)">
<defs>
<path id="ag" d="m31.781 34.625q-7.0312 0-11.062-3.7656-4.0156-3.7656-4.0156-10.344 0-6.5938 4.0156-10.359 4.0312-3.7656 11.062-3.7656t11.078 3.7812q4.0625 3.7969 4.0625 10.344 0 6.5781-4.0312 10.344-4.0156 3.7656-11.109 3.7656zm-9.8594 4.1875q-6.3438 1.5625-9.8906 5.9062-3.5312 4.3594-3.5312 10.609 0 8.7344 6.2188 13.812 6.2344 5.0781 17.062 5.0781 10.891 0 17.094-5.0781t6.2031-13.812q0-6.25-3.5469-10.609-3.5312-4.3438-9.8281-5.9062 7.125-1.6562 11.094-6.5 3.9844-4.8281 3.9844-11.797 0-10.609-6.4688-16.281-6.4688-5.6562-18.531-5.6562-12.047 0-18.531 5.6562-6.4688 5.6719-6.4688 16.281 0 6.9688 4 11.797 4.0156 4.8438 11.141 6.5zm-3.6094 15.578q0-5.6562 3.5312-8.8281 3.5469-3.1719 9.9375-3.1719 6.3594 0 9.9375 3.1719 3.5938 3.1719 3.5938 8.8281 0 5.6719-3.5938 8.8438-3.5781 3.1719-9.9375 3.1719-6.3906 0-9.9375-3.1719-3.5312-3.1719-3.5312-8.8438z"/>
</defs>
<g transform="translate(138.68 452.49) scale(.1 -.1)">
<use xlink:href="#c"/>
<use x="63.623047" xlink:href="#f"/>
<use x="95.410156" xlink:href="#ag"/>
</g>
</g>
<g clip-path="url(#a)">
<defs>
<path id="x" d="m10.984 1.5156v8.9844q3.7188-1.7656 7.5156-2.6875 3.8125-0.92188 7.4844-0.92188 9.7656 0 14.906 6.5625 5.1562 6.5625 5.8906 19.953-2.8281-4.2031-7.1875-6.4531-4.3438-2.25-9.6094-2.25-10.938 0-17.312 6.6094-6.375 6.625-6.375 18.109 0 11.219 6.6406 18 6.6406 6.7969 17.672 6.7969 12.656 0 19.312-9.7031 6.6719-9.6875 6.6719-28.141 0-17.234-8.1875-27.516-8.1719-10.281-21.984-10.281-3.7188 0-7.5312 0.73438-3.7969 0.73438-7.9062 2.2031zm19.625 30.906q6.6406 0 10.516 4.5312 3.8906 4.5469 3.8906 12.469 0 7.8594-3.8906 12.422-3.875 4.5625-10.516 4.5625t-10.516-4.5625-3.875-12.422q0-7.9219 3.875-12.469 3.875-4.5312 10.516-4.5312z"/>
</defs>
<g transform="translate(170.86 452.49) scale(.1 -.1)">
<use xlink:href="#c"/>
<use x="63.623047" xlink:href="#f"/>
<use x="95.410156" xlink:href="#x"/>
</g>
</g>
<g clip-path="url(#a)">
<defs>
<path id="ac" d="m31.781 66.406q-7.6094 0-11.453-7.5-3.8281-7.4844-3.8281-22.531 0-14.984 3.8281-22.484 3.8438-7.5 11.453-7.5 7.6719 0 11.5 7.5 3.8438 7.5 3.8438 22.484 0 15.047-3.8438 22.531-3.8281 7.5-11.5 7.5zm0 7.8125q12.266 0 18.734-9.7031 6.4688-9.6875 6.4688-28.141 0-18.406-6.4688-28.109-6.4688-9.6875-18.734-9.6875-12.25 0-18.719 9.6875-6.4688 9.7031-6.4688 28.109 0 18.453 6.4688 28.141 6.4688 9.7031 18.719 9.7031z"/>
</defs>
<g transform="translate(224 452.49) scale(.1 -.1)">
<use xlink:href="#c"/>
<use x="63.623047" xlink:href="#f"/>
<use x="95.410156" xlink:href="#c"/>
<use x="159.033203" xlink:href="#ac"/>
</g>
</g>
<g clip-path="url(#a)">
<g transform="translate(523.02 210.24) scale(.1 -.1)">
<use xlink:href="#c"/>
<use x="63.623047" xlink:href="#f"/>
<use x="95.410156" xlink:href="#c"/>
<use x="159.033203" xlink:href="#c"/>
</g>
</g>
<g clip-path="url(#a)">
<defs>
<path id="u" d="m40.578 39.312q7.0781-1.5156 11.047-6.3125 3.9844-4.7812 3.9844-11.812 0-10.781-7.4219-16.703-7.4219-5.9062-21.094-5.9062-4.5781 0-9.4375 0.90625t-10.031 2.7188v9.5156q4.0938-2.3906 8.9688-3.6094 4.8906-1.2188 10.219-1.2188 9.2656 0 14.125 3.6562t4.8594 10.641q0 6.4531-4.5156 10.078-4.5156 3.6406-12.562 3.6406h-8.5v8.1094h8.8906q7.2656 0 11.125 2.9062t3.8594 8.375q0 5.6094-3.9844 8.6094-3.9688 3.0156-11.391 3.0156-4.0625 0-8.7031-0.89062-4.6406-0.875-10.203-2.7188v8.7812q5.625 1.5625 10.531 2.3438t9.25 0.78125q11.234 0 17.766-5.1094 6.5469-5.0938 6.5469-13.781 0-6.0625-3.4688-10.234t-9.8594-5.7812z"/>
</defs>
<g transform="translate(336.63 452.49) scale(.1 -.1)">
<use xlink:href="#c"/>
<use x="63.623047" xlink:href="#f"/>
<use x="95.410156" xlink:href="#c"/>
<use x="159.033203" xlink:href="#u"/>
</g>
</g>
<g clip-path="url(#a)">
<g transform="translate(709.41 271.1) scale(.1 -.1)">
<use xlink:href="#c"/>
<use x="63.623047" xlink:href="#f"/>
<use x="95.410156" xlink:href="#c"/>
<use x="159.033203" xlink:href="#ab"/>
</g>
</g>
<g clip-path="url(#a)">
<g transform="translate(388.93 452.49) scale(.1 -.1)">
<use xlink:href="#c"/>
<use x="63.623047" xlink:href="#f"/>
<use x="95.410156" xlink:href="#c"/>
<use x="159.033203" xlink:href="#aa"/>
</g>
</g>
<g clip-path="url(#a)">
<g transform="translate(620.91 331.81) scale(.1 -.1)">
<use xlink:href="#c"/>
<use x="63.623047" xlink:href="#f"/>
<use x="95.410156" xlink:href="#c"/>
<use x="159.033203" xlink:href="#z"/>
</g>
</g>
<g clip-path="url(#a)">
<g transform="translate(871.66 452.49) scale(.1 -.1)">
<use xlink:href="#c"/>
<use x="63.623047" xlink:href="#f"/>
<use x="95.410156" xlink:href="#c"/>
<use x="159.033203" xlink:href="#y"/>
</g>
</g>
<g clip-path="url(#a)">
<g transform="translate(445.25 452.49) scale(.1 -.1)">
<use xlink:href="#c"/>
<use x="63.623047" xlink:href="#f"/>
<use x="95.410156" xlink:href="#c"/>
<use x="159.033203" xlink:href="#x"/>
</g>
</g>
<g clip-path="url(#a)">
<g transform="translate(505.59 452.49) scale(.1 -.1)">
<use xlink:href="#c"/>
<use x="63.623047" xlink:href="#f"/>
<use x="95.410156" xlink:href="#m"/>
<use x="159.033203" xlink:href="#ac"/>
</g>
</g>
<g clip-path="url(#a)">
<g transform="translate(712.09 392.31) scale(.1 -.1)">
<use xlink:href="#c"/>
<use x="63.623047" xlink:href="#f"/>
<use x="95.410156" xlink:href="#m"/>
<use x="159.033203" xlink:href="#c"/>
</g>
</g>
<g clip-path="url(#a)">
<g transform="translate(638.34 452.49) scale(.1 -.1)">
<use xlink:href="#c"/>
<use x="63.623047" xlink:href="#f"/>
<use x="95.410156" xlink:href="#m"/>
<use x="159.033203" xlink:href="#u"/>
</g>
</g>
<g clip-path="url(#a)">
<g transform="translate(787.18 452.49) scale(.1 -.1)">
<use xlink:href="#c"/>
<use x="63.623047" xlink:href="#f"/>
<use x="95.410156" xlink:href="#m"/>
<use x="159.033203" xlink:href="#ab"/>
</g>
</g>
<g clip-path="url(#a)">
<g transform="translate(288.36 452.49) scale(.1 -.1)">
<use xlink:href="#c"/>
<use x="63.623047" xlink:href="#f"/>
<use x="95.410156" xlink:href="#m"/>
<use x="159.033203" xlink:href="#aa"/>
</g>
</g>
<g clip-path="url(#a)">
<g transform="translate(34.928 452.49) scale(.1 -.1)">
<use xlink:href="#c"/>
<use x="63.623047" xlink:href="#f"/>
<use x="95.410156" xlink:href="#m"/>
<use x="159.033203" xlink:href="#z"/>
</g>
</g>
<g clip-path="url(#a)">
<g transform="translate(46.996 452.49) scale(.1 -.1)">
<use xlink:href="#c"/>
<use x="63.623047" xlink:href="#f"/>
<use x="95.410156" xlink:href="#m"/>
<use x="159.033203" xlink:href="#y"/>
</g>
</g>
<g clip-path="url(#a)">
<g transform="translate(63.087 452.49) scale(.1 -.1)">
<use xlink:href="#c"/>
<use x="63.623047" xlink:href="#f"/>
<use x="95.410156" xlink:href="#m"/>
<use x="159.033203" xlink:href="#ag"/>
</g>
</g>
<g clip-path="url(#a)">
<g transform="translate(569.95 452.49) scale(.1 -.1)">
<use xlink:href="#c"/>
<use x="63.623047" xlink:href="#f"/>
<use x="95.410156" xlink:href="#m"/>
<use x="159.033203" xlink:href="#x"/>
</g>
</g>
<g clip-path="url(#a)">
<g transform="translate(710.75 452.49) scale(.1 -.1)">
<use xlink:href="#c"/>
<use x="63.623047" xlink:href="#f"/>
<use x="95.410156" xlink:href="#u"/>
<use x="159.033203" xlink:href="#ac"/>
</g>
</g>
<g clip-path="url(#a)">
<g transform="translate(956.14 452.49) scale(.1 -.1)">
<use xlink:href="#c"/>
<use x="63.623047" xlink:href="#f"/>
<use x="95.410156" xlink:href="#u"/>
<use x="159.033203" xlink:href="#c"/>
</g>
</g>
<defs>
<clipPath id="a">
<rect width="1013.3" height="533.33"/>
</clipPath>
</defs>
</svg>
