<?xml version="1.0" encoding="UTF-8"?>
<!DOCTYPE svg  PUBLIC '-//W3C//DTD SVG 1.1//EN'  'http://www.w3.org/Graphics/SVG/1.1/DTD/svg11.dtd'>
<svg width="1216pt" height="640pt" version="1.1" viewBox="0 0 1216 640" xmlns="http://www.w3.org/2000/svg" xmlns:xlink="http://www.w3.org/1999/xlink">
<defs>
<style type="text/css">*{stroke-linecap:butt;stroke-linejoin:round;}</style>
</defs>
<path d="m0 640h1216v-640h-1216z" fill="#fff"/>
<g fill="none" stroke="#000">
<path d="m404.87 29.091v65.255" clip-path="url(#a)"/>
<path d="m404.87 94.346 49.194 65.174" clip-path="url(#a)"/>
<path d="m404.87 94.346-69.804 453.32" clip-path="url(#a)"/>
<path d="m404.87 94.346 0.57419 453.32" clip-path="url(#a)"/>
<path d="m404.87 94.346 52.071 453.32" clip-path="url(#a)"/>
<path d="m404.87 94.346-171.08 453.32" clip-path="url(#a)"/>
<path d="m404.87 94.346-133.32 453.32" clip-path="url(#a)"/>
<path d="m404.87 94.346 107 453.32" clip-path="url(#a)"/>
<path d="m404.87 94.346 165.36 453.32" clip-path="url(#a)"/>
<path d="m454.07 159.52-279.01 65.08" clip-path="url(#a)"/>
<path d="m454.07 159.52 279.01 130.05" clip-path="url(#a)"/>
<path d="m335.07 547.67-22.315 63.242" clip-path="url(#a)"/>
<path d="m335.07 547.67 22.315 63.242" clip-path="url(#a)"/>
<path d="m405.45 547.67v63.242" clip-path="url(#a)"/>
<path d="m456.94 547.67v63.242" clip-path="url(#a)"/>
<path d="m175.06 224.6 281.89 323.07" clip-path="url(#a)" stroke-dasharray="3.7,1.6"/>
<path d="m175.06 224.6-119.78 323.07" clip-path="url(#a)"/>
<path d="m175.06 224.6-102.62 323.07" clip-path="url(#a)"/>
<path d="m175.06 224.6-59.489 64.971" clip-path="url(#a)"/>
<path d="m733.08 289.57-101.05 258.1" clip-path="url(#a)"/>
<path d="m733.08 289.57-35.819 258.1" clip-path="url(#a)"/>
<path d="m733.08 289.57 136.87 64.841" clip-path="url(#a)"/>
<path d="m632.03 547.67v63.242" clip-path="url(#a)"/>
<path d="m697.26 547.67v63.242" clip-path="url(#a)"/>
<path d="m869.94 354.41-104.02 193.26" clip-path="url(#a)"/>
<path d="m869.94 354.41 104.02 64.677" clip-path="url(#a)"/>
<path d="m765.92 547.67v63.242" clip-path="url(#a)"/>
<path d="m973.97 419.09-208.05 128.58" clip-path="url(#a)" stroke-dasharray="3.7,1.6"/>
<path d="m973.97 419.09-98.186 64.458" clip-path="url(#a)"/>
<path d="m973.97 419.09 18.539 128.58" clip-path="url(#a)"/>
<path d="m973.97 419.09 100.93 128.58" clip-path="url(#a)"/>
<path d="m973.97 419.09 186.76 128.58" clip-path="url(#a)"/>
<path d="m875.78 483.55-37.764 64.121" clip-path="url(#a)"/>
<path d="m875.78 483.55 37.764 64.121" clip-path="url(#a)"/>
<path d="m992.51 547.67v63.242" clip-path="url(#a)"/>
<path d="m838.02 547.67v63.242" clip-path="url(#a)"/>
<path d="m913.54 547.67v63.242" clip-path="url(#a)"/>
<path d="m55.273 547.67v63.242" clip-path="url(#a)"/>
<path d="m72.438 547.67-6.8662 63.242" clip-path="url(#a)"/>
<path d="m72.438 547.67 6.8662 63.242" clip-path="url(#a)"/>
<path d="m115.57 289.57-19.097 258.1" clip-path="url(#a)"/>
<path d="m115.57 289.57 19.097 64.841" clip-path="url(#a)"/>
<path d="m96.47 547.67v63.242" clip-path="url(#a)"/>
<path d="m134.66 354.41-38.193 193.26" clip-path="url(#a)" stroke-dasharray="3.7,1.6"/>
<path d="m134.66 354.41-17.595 193.26" clip-path="url(#a)"/>
<path d="m134.66 354.41 6.437 193.26" clip-path="url(#a)"/>
<path d="m134.66 354.41 49.351 64.677" clip-path="url(#a)"/>
<path d="m117.07 547.67v63.242" clip-path="url(#a)"/>
<path d="m141.1 547.67v63.242" clip-path="url(#a)"/>
<path d="m184.01 419.09v64.458" clip-path="url(#a)"/>
<path d="m184.01 483.55-15.449 64.121" clip-path="url(#a)"/>
<path d="m184.01 483.55 15.449 64.121" clip-path="url(#a)"/>
<path d="m168.56 547.67v63.242" clip-path="url(#a)"/>
<path d="m199.46 547.67v63.242" clip-path="url(#a)"/>
<path d="m233.79 547.67v63.242" clip-path="url(#a)"/>
<path d="m271.56 547.67v63.242" clip-path="url(#a)"/>
<path d="m511.87 547.67v63.242" clip-path="url(#a)"/>
<path d="m570.24 547.67v63.242" clip-path="url(#a)"/>
<path d="m1074.9 547.67v63.242" clip-path="url(#a)"/>
<path d="m1160.7 547.67v63.242" clip-path="url(#a)"/>
</g>
<path d="m398.6 58.71v6.0162q0 2.4 2.4 2.4h7.7425q2.4 0 2.4-2.4v-6.0162q0-2.4-2.4-2.4h-7.7425q-2.4 0-2.4 2.4z" clip-path="url(#a)" fill="#fff" stroke="#fff"/>
<g clip-path="url(#a)">
<defs>
<path id="ac" d="m9.8125 72.906h9.8594v-29.891h35.844v29.891h9.8594v-72.906h-9.8594v34.719h-35.844v-34.719h-9.8594z"/>
</defs>
<g transform="translate(402.67 58.71) rotate(90) scale(.08 -.08)">
<use xlink:href="#ac"/>
</g>
</g>
<path d="m422.82 128.53 3.2969 4.3679q1.4459 1.9156 3.3615 0.46968l6.1797-4.6645q1.9156-1.4459 0.46968-3.3615l-3.2969-4.3679q-1.4459-1.9156-3.3615-0.46968l-6.1797 4.6645q-1.9156 1.4459-0.46968 3.3615z" clip-path="url(#a)" fill="#fff" stroke="#fff"/>
<g clip-path="url(#a)">
<defs>
<path id="m" d="m34.188 63.188-13.391-36.281h26.812zm-5.5781 9.7188h11.188l27.781-72.906h-10.25l-6.6406 18.703h-32.859l-6.6406-18.703h-10.406z"/>
</defs>
<g transform="translate(426.06 126.08) rotate(52.954) scale(.08 -.08)">
<use xlink:href="#m"/>
</g>
</g>
<path d="m375.75 324.67 0.83286-5.4088q0.36526-2.372-2.0068-2.7373l-7.6523-1.1783q-2.372-0.36526-2.7373 2.0068l-0.83286 5.4088q-0.36526 2.372 2.0068 2.7373l7.6523 1.1783q2.372 0.36526 2.7373-2.0068z" clip-path="url(#a)" fill="#fff" stroke="#fff"/>
<g clip-path="url(#a)">
<g transform="translate(371.74 324.05) rotate(-81.246) scale(.08 -.08)">
<use xlink:href="#m"/>
</g>
</g>
<path d="m398.89 318.6 0.00611 4.8237q0.00304 2.4 2.403 2.397l7.7425-0.009807q2.4-0.00304 2.397-2.403l-0.00611-4.8237q-0.00304-2.4-2.403-2.397l-7.7425 0.009807q-2.4 0.00304-2.397 2.403z" clip-path="url(#a)" fill="#fff" stroke="#fff"/>
<g clip-path="url(#a)">
<defs>
<path id="s" d="m19.672 64.797v-27.391h12.406q6.8906 0 10.641 3.5625 3.7656 3.5625 3.7656 10.156 0 6.5469-3.7656 10.109-3.75 3.5625-10.641 3.5625zm-9.8594 8.1094h22.266q12.266 0 18.531-5.5469 6.2812-5.5469 6.2812-16.234 0-10.797-6.2812-16.312-6.2656-5.5156-18.531-5.5156h-12.406v-29.297h-9.8594z"/>
</defs>
<g transform="translate(402.95 318.6) rotate(89.927) scale(.08 -.08)">
<use xlink:href="#s"/>
</g>
</g>
<path d="m424.37 319 0.62449 5.4368q0.27387 2.3843 2.6582 2.1104l7.6919-0.88353q2.3843-0.27387 2.1104-2.6582l-0.62449-5.4368q-0.27387-2.3843-2.6582-2.1104l-7.6919 0.88353q-2.3843 0.27387-2.1104 2.6582z" clip-path="url(#a)" fill="#fff" stroke="#fff"/>
<g clip-path="url(#a)">
<g transform="translate(428.4 318.54) rotate(83.447) scale(.08 -.08)">
<use xlink:href="#m"/>
</g>
</g>
<path d="m324.17 325.96 2.0673-5.4779q0.8474-2.2454-1.398-3.0928l-7.2438-2.7338q-2.2454-0.8474-3.0928 1.398l-2.0673 5.4779q-0.8474 2.2454 1.398 3.0928l7.2438 2.7338q2.2454 0.8474 3.0928-1.398z" clip-path="url(#a)" fill="#fff" stroke="#fff"/>
<g clip-path="url(#a)">
<defs>
<path id="q" d="m8.6875 72.906h9.9219v-44.297q0-11.719 4.2344-16.875 4.25-5.1406 13.781-5.1406 9.4688 0 13.719 5.1406 4.25 5.1562 4.25 16.875v44.297h9.9062v-45.516q0-14.25-7.0625-21.531-7.0469-7.2812-20.812-7.2812-13.828 0-20.891 7.2812-7.0469 7.2812-7.0469 21.531z"/>
</defs>
<g transform="translate(320.37 324.53) rotate(-69.324) scale(.08 -.08)">
<use xlink:href="#q"/>
</g>
</g>
<path d="m343.41 325.58 1.6519-5.6171q0.67714-2.3025-1.6254-2.9796l-7.4279-2.1845q-2.3025-0.67714-2.9796 1.6254l-1.6519 5.6171q-0.67714 2.3025 1.6254 2.9796l7.4279 2.1845q2.3025 0.67714 2.9796-1.6254z" clip-path="url(#a)" fill="#fff" stroke="#fff"/>
<g clip-path="url(#a)">
<g transform="translate(339.51 324.44) rotate(-73.612) scale(.08 -.08)">
<use xlink:href="#q"/>
</g>
</g>
<path d="m451.6 319.6 1.345 5.6984q0.55134 2.3358 2.8872 1.7845l7.5354-1.7786q2.3358-0.55134 1.7845-2.8872l-1.345-5.6984q-0.55134-2.3358-2.8871-1.7845l-7.5354 1.7786q-2.3358 0.55134-1.7845 2.8871z" clip-path="url(#a)" fill="#fff" stroke="#fff"/>
<g clip-path="url(#a)">
<g transform="translate(455.55 318.66) rotate(76.719) scale(.08 -.08)">
<use xlink:href="#q"/>
</g>
</g>
<path d="m480.66 320.41 2.0065 5.5005q0.82246 2.2547 3.0771 1.4322l7.2737-2.6533q2.2547-0.82246 1.4322-3.0771l-2.0065-5.5005q-0.82246-2.2547-3.0771-1.4322l-7.2737 2.6533q-2.2547 0.82246-1.4322 3.0771z" clip-path="url(#a)" fill="#fff" stroke="#fff"/>
<g clip-path="url(#a)">
<g transform="translate(484.48 319.01) rotate(69.959) scale(.08 -.08)">
<use xlink:href="#q"/>
</g>
</g>
<path d="m313.06 198.85 5.859-1.3666q2.3373-0.54517 1.7921-2.8824l-1.7587-7.5401q-0.54517-2.3373-2.8824-1.7921l-5.859 1.3666q-2.3373 0.54517-1.7921 2.8824l1.7587 7.5401q0.54517 2.3373 2.8824 1.7921z" clip-path="url(#a)" fill="#fff" stroke="#fff"/>
<g clip-path="url(#a)">
<g transform="translate(312.13 194.89) rotate(-13.13) scale(.08 -.08)">
<use xlink:href="#ac"/>
</g>
</g>
<path d="m588.2 228.96 5.453 2.5417q2.1753 1.0139 3.1892-1.1614l3.271-7.0176q1.0139-2.1753-1.1614-3.1892l-5.453-2.5417q-2.1753-1.0139-3.1892 1.1614l-3.271 7.0176q-1.0139 2.1753 1.1614 3.1892z" clip-path="url(#a)" fill="#fff" stroke="#fff"/>
<g clip-path="url(#a)">
<g transform="translate(589.91 225.28) rotate(24.991) scale(.08 -.08)">
<use xlink:href="#ac"/>
</g>
</g>
<path d="m324.2 597.32 11.249-31.881q0.7986-2.2632-1.4646-3.0618l-7.3013-2.5763q-2.2632-0.79859-3.0618 1.4646l-11.249 31.881q-0.79859 2.2632 1.4646 3.0618l7.3013 2.5763q2.2632 0.79859 3.0618-1.4646z" clip-path="url(#a)" fill="#fff" stroke="#fff"/>
<g clip-path="url(#a)">
<defs>
<path id="k" d="m-0.29688 72.906h61.672v-8.3125h-25.875v-64.594h-9.9062v64.594h-25.891z"/>
<path id="e" d="m56.203 29.594v-4.3906h-41.312q0.59375-9.2812 5.5938-14.141t13.938-4.8594q5.1719 0 10.031 1.2656t9.6562 3.8125v-8.5q-4.8438-2.0469-9.9219-3.125t-10.297-1.0781q-13.094 0-20.734 7.6094-7.6406 7.625-7.6406 20.625 0 13.422 7.25 21.297 7.25 7.8906 19.562 7.8906 11.031 0 17.453-7.1094 6.4219-7.0938 6.4219-19.297zm-8.9844 2.6406q-0.09375 7.3594-4.125 11.75-4.0312 4.4062-10.672 4.4062-7.5156 0-12.031-4.25t-5.2031-11.969z"/>
<path id="g" d="m41.109 46.297q-1.5156 0.875-3.2969 1.2812-1.7812 0.42188-3.9219 0.42188-7.625 0-11.703-4.9531t-4.0781-14.234v-28.812h-9.0312v54.688h9.0312v-8.5q2.8438 4.9844 7.375 7.3906 4.5469 2.4219 11.047 2.4219 0.92188 0 2.0469-0.125 1.125-0.10938 2.4844-0.35938z"/>
<path id="i" d="m52 44.188q3.375 6.0625 8.0625 8.9375t11.031 2.875q8.5469 0 13.188-5.9844 4.6406-5.9688 4.6406-17v-33.016h-9.0312v32.719q0 7.8594-2.7969 11.656-2.7812 3.8125-8.4844 3.8125-6.9844 0-11.047-4.6406-4.0469-4.625-4.0469-12.641v-30.906h-9.0312v32.719q0 7.9062-2.7812 11.688t-8.5938 3.7812q-6.8906 0-10.953-4.6562-4.0469-4.6562-4.0469-12.625v-30.906h-9.0312v54.688h9.0312v-8.5q3.0781 5.0312 7.375 7.4219t10.203 2.3906q5.9688 0 10.141-3.0312 4.1719-3.0156 6.1719-8.7812z"/>
<path id="j" d="m9.4219 54.688h8.9844v-54.688h-8.9844zm0 21.297h8.9844v-11.391h-8.9844z"/>
<path id="h" d="m54.891 33.016v-33.016h-8.9844v32.719q0 7.7656-3.0312 11.609-3.0312 3.8594-9.0781 3.8594-7.2812 0-11.484-4.6406-4.2031-4.625-4.2031-12.641v-30.906h-9.0312v54.688h9.0312v-8.5q3.2344 4.9375 7.5938 7.375 4.375 2.4375 10.094 2.4375 9.4219 0 14.25-5.8281 4.8438-5.8281 4.8438-17.156z"/>
<path id="f" d="m34.281 27.484q-10.891 0-15.094-2.4844t-4.2031-8.5q0-4.7812 3.1562-7.5938 3.1562-2.7969 8.5625-2.7969 7.4844 0 12 5.2969t4.5156 14.078v2zm17.922 3.7188v-31.203h-8.9844v8.2969q-3.0781-4.9688-7.6719-7.3438t-11.234-2.375q-8.3906 0-13.359 4.7188-4.9531 4.7188-4.9531 12.625 0 9.2188 6.1719 13.906 6.1875 4.6875 18.438 4.6875h12.609v0.89062q0 6.2031-4.0781 9.5938t-11.453 3.3906q-4.6875 0-9.1406-1.125-4.4375-1.125-8.5312-3.375v8.3125q4.9219 1.9062 9.5625 2.8438 4.6406 0.95312 9.0312 0.95312 11.875 0 17.734-6.1562 5.8594-6.1406 5.8594-18.641z"/>
<path id="l" d="m9.4219 75.984h8.9844v-75.984h-8.9844z"/>
</defs>
<g transform="translate(320.37 595.96) rotate(-70.564) scale(.08 -.08)">
<use xlink:href="#k"/>
<use x="44.083984" xlink:href="#e"/>
<use x="105.607422" xlink:href="#g"/>
<use x="144.970703" xlink:href="#i"/>
<use x="242.382812" xlink:href="#j"/>
<use x="270.166016" xlink:href="#h"/>
<use x="333.544922" xlink:href="#f"/>
<use x="394.824219" xlink:href="#l"/>
</g>
</g>
<path d="m334.69 565.43 11.249 31.881q0.79859 2.2632 3.0618 1.4646l7.3013-2.5763q2.2632-0.7986 1.4646-3.0618l-11.249-31.881q-0.79859-2.2632-3.0618-1.4646l-7.3013 2.5763q-2.2632 0.7986-1.4646 3.0618z" clip-path="url(#a)" fill="#fff" stroke="#fff"/>
<g clip-path="url(#a)">
<g transform="translate(338.52 564.08) rotate(70.564) scale(.08 -.08)">
<use xlink:href="#k"/>
<use x="44.083984" xlink:href="#e"/>
<use x="105.607422" xlink:href="#g"/>
<use x="144.970703" xlink:href="#i"/>
<use x="242.382812" xlink:href="#j"/>
<use x="270.166016" xlink:href="#h"/>
<use x="333.544922" xlink:href="#f"/>
<use x="394.824219" xlink:href="#l"/>
</g>
</g>
<path d="m399.18 562.38v33.808q0 2.4 2.4 2.4h7.7425q2.4 0 2.4-2.4v-33.808q0-2.4-2.4-2.4h-7.7425q-2.4 0-2.4 2.4z" clip-path="url(#a)" fill="#fff" stroke="#fff"/>
<g clip-path="url(#a)">
<g transform="translate(403.24 562.38) rotate(90) scale(.08 -.08)">
<use xlink:href="#k"/>
<use x="44.083984" xlink:href="#e"/>
<use x="105.607422" xlink:href="#g"/>
<use x="144.970703" xlink:href="#i"/>
<use x="242.382812" xlink:href="#j"/>
<use x="270.166016" xlink:href="#h"/>
<use x="333.544922" xlink:href="#f"/>
<use x="394.824219" xlink:href="#l"/>
</g>
</g>
<path d="m450.67 562.38v33.808q0 2.4 2.4 2.4h7.7425q2.4 0 2.4-2.4v-33.808q0-2.4-2.4-2.4h-7.7425q-2.4 0-2.4 2.4z" clip-path="url(#a)" fill="#fff" stroke="#fff"/>
<g clip-path="url(#a)">
<g transform="translate(454.74 562.38) rotate(90) scale(.08 -.08)">
<use xlink:href="#k"/>
<use x="44.083984" xlink:href="#e"/>
<use x="105.607422" xlink:href="#g"/>
<use x="144.970703" xlink:href="#i"/>
<use x="242.382812" xlink:href="#j"/>
<use x="270.166016" xlink:href="#h"/>
<use x="333.544922" xlink:href="#f"/>
<use x="394.824219" xlink:href="#l"/>
</g>
</g>
<path d="m309.48 388.19 3.5979 4.1235q1.5779 1.8084 3.3863 0.2305l5.8339-5.0903q1.8084-1.5779 0.2305-3.3863l-3.5979-4.1235q-1.5779-1.8084-3.3863-0.2305l-5.8339 5.0903q-1.8084 1.5779-0.2305 3.3863z" clip-path="url(#a)" fill="#fff" stroke="#fff"/>
<g clip-path="url(#a)">
<g transform="translate(312.54 385.52) rotate(48.894) scale(.08 -.08)">
<use xlink:href="#m"/>
</g>
</g>
<path d="m120.21 390.58 1.6769-4.5229q0.83434-2.2503-1.416-3.0846l-7.2596-2.6916q-2.2503-0.83434-3.0846 1.416l-1.6769 4.5229q-0.83434 2.2503 1.416 3.0846l7.2596 2.6916q2.2503 0.83434 3.0846-1.416z" clip-path="url(#a)" fill="#fff" stroke="#fff"/>
<g clip-path="url(#a)">
<g transform="translate(116.4 389.16) rotate(-69.657) scale(.08 -.08)">
<use xlink:href="#s"/>
</g>
</g>
<path d="m128.79 390.97 1.8648-5.871q0.72655-2.2874-1.5608-3.0139l-7.3792-2.3439q-2.2874-0.72655-3.0139 1.5608l-1.8648 5.871q-0.72655 2.2874 1.5608 3.0139l7.3792 2.3439q2.2874 0.72655 3.0139-1.5608z" clip-path="url(#a)" fill="#fff" stroke="#fff"/>
<g clip-path="url(#a)">
<defs>
<path id="ap" d="m19.672 64.797v-56.688h11.922q15.094 0 22.094 6.8281 7 6.8438 7 21.594 0 14.641-7 21.453t-22.094 6.8125zm-9.8594 8.1094h20.266q21.188 0 31.094-8.8125 9.9219-8.8125 9.9219-27.562 0-18.859-9.9688-27.703-9.9531-8.8281-31.047-8.8281h-20.266z"/>
</defs>
<g transform="translate(124.92 389.74) rotate(-72.378) scale(.08 -.08)">
<use xlink:href="#ap"/>
</g>
</g>
<path d="m148.09 263.34 3.6956-4.0362q1.6207-1.7701-0.14936-3.3908l-5.7104-5.2285q-1.7701-1.6207-3.3908 0.14936l-3.6956 4.0362q-1.6207 1.7701 0.14936 3.3908l5.7104 5.2285q1.7701 1.6207 3.3908-0.14936z" clip-path="url(#a)" fill="#fff" stroke="#fff"/>
<g clip-path="url(#a)">
<g transform="translate(145.09 260.59) rotate(-47.522) scale(.08 -.08)">
<use xlink:href="#m"/>
</g>
</g>
<path d="m687.4 423.45 1.9951-5.0959q0.87496-2.2348-1.3599-3.1098l-7.2096-2.8226q-2.2348-0.87496-3.1098 1.3599l-1.9951 5.0959q-0.87496 2.2348 1.3599 3.1098l7.2096 2.8226q2.2348 0.87496 3.1098-1.3599z" clip-path="url(#a)" fill="#fff" stroke="#fff"/>
<g clip-path="url(#a)">
<g transform="translate(683.61 421.97) rotate(-68.619) scale(.08 -.08)">
<use xlink:href="#m"/>
</g>
</g>
<path d="m721.03 422 0.69814-5.0305q0.32991-2.3772-2.0473-2.7071l-7.669-1.0643q-2.3772-0.32991-2.7071 2.0473l-0.69814 5.0305q-0.32991 2.3772 2.0473 2.7071l7.669 1.0643q2.3772 0.32991 2.7071-2.0473z" clip-path="url(#a)" fill="#fff" stroke="#fff"/>
<g clip-path="url(#a)">
<defs>
<path id="ab" d="m53.516 70.516v-9.625q-5.6094 2.6875-10.594 4-4.9844 1.3281-9.625 1.3281-8.0469 0-12.422-3.125t-4.375-8.8906q0-4.8438 2.9062-7.3125 2.9062-2.4531 11.016-3.9688l5.9531-1.2188q11.031-2.1094 16.281-7.4062t5.25-14.172q0-10.609-7.1094-16.078-7.0938-5.4688-20.812-5.4688-5.1719 0-11.016 1.1719-5.8281 1.1719-12.078 3.4688v10.156q6-3.3594 11.766-5.0781 5.7656-1.7031 11.328-1.7031 8.4375 0 13.031 3.3125 4.5938 3.3281 4.5938 9.4844 0 5.3594-3.2969 8.3906t-10.812 4.5469l-6.0156 1.1719q-11.031 2.1875-15.969 6.875-4.9219 4.6875-4.9219 13.047 0 9.6719 6.8125 15.234t18.766 5.5625q5.1406 0 10.453-0.9375 5.3281-0.92188 10.891-2.7656z"/>
</defs>
<g transform="translate(717.01 421.44) rotate(-82.099) scale(.08 -.08)">
<use xlink:href="#ab"/>
</g>
</g>
<path d="m796.35 326.49 4.9456 2.343q2.1689 1.0275 3.1964-1.1414l3.3149-6.997q1.0275-2.1689-1.1414-3.1964l-4.9456-2.343q-2.1689-1.0275-3.1964 1.1414l-3.3149 6.997q-1.0275 2.1689 1.1414 3.1964z" clip-path="url(#a)" fill="#fff" stroke="#fff"/>
<g clip-path="url(#a)">
<g transform="translate(798.09 322.81) rotate(25.349) scale(.08 -.08)">
<use xlink:href="#m"/>
</g>
</g>
<path d="m625.76 562.38v33.808q0 2.4 2.4 2.4h7.7425q2.4 0 2.4-2.4v-33.808q0-2.4-2.4-2.4h-7.7425q-2.4 0-2.4 2.4z" clip-path="url(#a)" fill="#fff" stroke="#fff"/>
<g clip-path="url(#a)">
<g transform="translate(629.82 562.38) rotate(90) scale(.08 -.08)">
<use xlink:href="#k"/>
<use x="44.083984" xlink:href="#e"/>
<use x="105.607422" xlink:href="#g"/>
<use x="144.970703" xlink:href="#i"/>
<use x="242.382812" xlink:href="#j"/>
<use x="270.166016" xlink:href="#h"/>
<use x="333.544922" xlink:href="#f"/>
<use x="394.824219" xlink:href="#l"/>
</g>
</g>
<path d="m690.99 562.38v33.808q0 2.4 2.4 2.4h7.7425q2.4 0 2.4-2.4v-33.808q0-2.4-2.4-2.4h-7.7425q-2.4 0-2.4 2.4z" clip-path="url(#a)" fill="#fff" stroke="#fff"/>
<g clip-path="url(#a)">
<g transform="translate(695.05 562.38) rotate(90) scale(.08 -.08)">
<use xlink:href="#k"/>
<use x="44.083984" xlink:href="#e"/>
<use x="105.607422" xlink:href="#g"/>
<use x="144.970703" xlink:href="#i"/>
<use x="242.382812" xlink:href="#j"/>
<use x="270.166016" xlink:href="#h"/>
<use x="333.544922" xlink:href="#f"/>
<use x="394.824219" xlink:href="#l"/>
</g>
</g>
<path d="m822.13 456.47 2.6477-4.9189q1.1375-2.1133-0.97579-3.2508l-6.8176-3.6697q-2.1133-1.1375-3.2508 0.97579l-2.6477 4.9189q-1.1375 2.1133 0.97579 3.2508l6.8176 3.6697q2.1133 1.1375 3.2508-0.97579z" clip-path="url(#a)" fill="#fff" stroke="#fff"/>
<g clip-path="url(#a)">
<defs>
<path id="t" d="m64.406 67.281v-10.391q-4.9844 4.6406-10.625 6.9219-5.6406 2.2969-11.984 2.2969-12.5 0-19.141-7.6406t-6.6406-22.094q0-14.406 6.6406-22.047t19.141-7.6406q6.3438 0 11.984 2.2969t10.625 6.9375v-10.312q-5.1719-3.5156-10.969-5.2812-5.7812-1.75-12.219-1.75-16.562 0-26.094 10.125-9.5156 10.141-9.5156 27.672 0 17.578 9.5156 27.703 9.5312 10.141 26.094 10.141 6.5312 0 12.312-1.7344 5.7969-1.7344 10.875-5.2031z"/>
</defs>
<g transform="translate(818.55 454.55) rotate(-61.708) scale(.08 -.08)">
<use xlink:href="#t"/>
</g>
</g>
<path d="m916.5 390.74 4.2929 2.6691q2.0382 1.2672 3.3054-0.77092l4.0882-6.5752q1.2672-2.0382-0.77092-3.3054l-4.2929-2.6691q-2.0382-1.2672-3.3054 0.77092l-4.0882 6.5752q-1.2672 2.0382 0.77092 3.3054z" clip-path="url(#a)" fill="#fff" stroke="#fff"/>
<g clip-path="url(#a)">
<defs>
<path id="aj" d="m9.8125 72.906h46.094v-8.3125h-36.234v-21.578h34.719v-8.2969h-34.719v-26.422h37.109v-8.2969h-46.969z"/>
</defs>
<g transform="translate(918.64 387.29) rotate(31.872) scale(.08 -.08)">
<use xlink:href="#aj"/>
</g>
</g>
<path d="m759.65 562.38v33.808q0 2.4 2.4 2.4h7.7425q2.4 0 2.4-2.4v-33.808q0-2.4-2.4-2.4h-7.7425q-2.4 0-2.4 2.4z" clip-path="url(#a)" fill="#fff" stroke="#fff"/>
<g clip-path="url(#a)">
<g transform="translate(763.71 562.38) rotate(90) scale(.08 -.08)">
<use xlink:href="#k"/>
<use x="44.083984" xlink:href="#e"/>
<use x="105.607422" xlink:href="#g"/>
<use x="144.970703" xlink:href="#i"/>
<use x="242.382812" xlink:href="#j"/>
<use x="270.166016" xlink:href="#h"/>
<use x="333.544922" xlink:href="#f"/>
<use x="394.824219" xlink:href="#l"/>
</g>
</g>
<path d="m870.91 490.15 4.6552-2.8771q2.0416-1.2618 0.77981-3.3033l-4.0705-6.5862q-1.2618-2.0416-3.3033-0.77981l-4.6552 2.8771q-2.0416 1.2618-0.77981 3.3033l4.0705 6.5862q1.2618 2.0416 3.3033 0.77981z" clip-path="url(#a)" fill="#fff" stroke="#fff"/>
<g clip-path="url(#a)">
<g transform="translate(868.78 486.69) rotate(-31.717) scale(.08 -.08)">
<use xlink:href="#m"/>
</g>
</g>
<path d="m926.03 458.06 4.5748-3.0033q2.0063-1.3171 0.6892-3.3234l-4.249-6.4724q-1.3171-2.0063-3.3234-0.6892l-4.5748 3.0033q-2.0063 1.3171-0.6892 3.3234l4.249 6.4724q1.3171 2.0063 3.3234 0.6892z" clip-path="url(#a)" fill="#fff" stroke="#fff"/>
<g clip-path="url(#a)">
<g transform="translate(923.8 454.66) rotate(-33.284) scale(.08 -.08)">
<use xlink:href="#m"/>
</g>
</g>
<path d="m976.67 481.76 0.72477 5.0268q0.34249 2.3754 2.7179 2.0329l7.6633-1.1049q2.3754-0.34249 2.0329-2.7179l-0.72477-5.0268q-0.34249-2.3754-2.7179-2.0329l-7.6633 1.1049q-2.3754 0.34249-2.0329 2.7179z" clip-path="url(#a)" fill="#fff" stroke="#fff"/>
<g clip-path="url(#a)">
<g transform="translate(980.69 481.18) rotate(81.796) scale(.08 -.08)">
<use xlink:href="#ab"/>
</g>
</g>
<path d="m1017.7 484.95 3.6153 4.6055q1.4819 1.8878 3.3698 0.40591l6.0902-4.7807q1.8878-1.4819 0.40591-3.3698l-3.6153-4.6055q-1.4819-1.8878-3.3698-0.40591l-6.0902 4.7807q-1.8878 1.4819-0.40591 3.3698z" clip-path="url(#a)" fill="#fff" stroke="#fff"/>
<g clip-path="url(#a)">
<g transform="translate(1020.9 482.44) rotate(51.869) scale(.08 -.08)">
<use xlink:href="#q"/>
</g>
</g>
<path d="m1061.4 486.88 4.8226 3.3202q1.9768 1.361 3.3378-0.61583l4.3906-6.3773q1.361-1.9768-0.61583-3.3378l-4.8226-3.3202q-1.9768-1.361-3.3378 0.61583l-4.3906 6.3773q-1.361 1.9768 0.61583 3.3378z" clip-path="url(#a)" fill="#fff" stroke="#fff"/>
<g clip-path="url(#a)">
<g transform="translate(1063.7 483.54) rotate(34.546) scale(.08 -.08)">
<use xlink:href="#q"/>
</g>
</g>
<path d="m861.14 520.77 2.335-3.9647q1.2179-2.068-0.85006-3.2859l-6.6715-3.9291q-2.068-1.2179-3.2859 0.85006l-2.335 3.9647q-1.2179 2.068 0.85006 3.2859l6.6715 3.9291q2.068 1.2179 3.2859-0.85006z" clip-path="url(#a)" fill="#fff" stroke="#fff"/>
<g clip-path="url(#a)">
<defs>
<path id="ai" d="m9.8125 72.906h41.891v-8.3125h-32.031v-21.484h28.906v-8.2969h-28.906v-34.812h-9.8594z"/>
</defs>
<g transform="translate(857.63 518.71) rotate(-59.504) scale(.08 -.08)">
<use xlink:href="#ai"/>
</g>
</g>
<path d="m887.84 516.38 2.8349 4.8135q1.2179 2.068 3.2859 0.85006l6.6715-3.9291q2.068-1.2179 0.85006-3.2859l-2.8349-4.8135q-1.2179-2.068-3.2859-0.85006l-6.6715 3.9291q-2.068 1.2179-0.85006 3.2859z" clip-path="url(#a)" fill="#fff" stroke="#fff"/>
<g clip-path="url(#a)">
<g transform="translate(891.34 514.32) rotate(59.504) scale(.08 -.08)">
<use xlink:href="#t"/>
</g>
</g>
<path d="m986.23 562.38v33.808q0 2.4 2.4 2.4h7.7425q2.4 0 2.4-2.4v-33.808q0-2.4-2.4-2.4h-7.7425q-2.4 0-2.4 2.4z" clip-path="url(#a)" fill="#fff" stroke="#fff"/>
<g clip-path="url(#a)">
<g transform="translate(990.3 562.38) rotate(90) scale(.08 -.08)">
<use xlink:href="#k"/>
<use x="44.083984" xlink:href="#e"/>
<use x="105.607422" xlink:href="#g"/>
<use x="144.970703" xlink:href="#i"/>
<use x="242.382812" xlink:href="#j"/>
<use x="270.166016" xlink:href="#h"/>
<use x="333.544922" xlink:href="#f"/>
<use x="394.824219" xlink:href="#l"/>
</g>
</g>
<path d="m831.75 562.38v33.808q0 2.4 2.4 2.4h7.7425q2.4 0 2.4-2.4v-33.808q0-2.4-2.4-2.4h-7.7425q-2.4 0-2.4 2.4z" clip-path="url(#a)" fill="#fff" stroke="#fff"/>
<g clip-path="url(#a)">
<g transform="translate(835.81 562.38) rotate(90) scale(.08 -.08)">
<use xlink:href="#k"/>
<use x="44.083984" xlink:href="#e"/>
<use x="105.607422" xlink:href="#g"/>
<use x="144.970703" xlink:href="#i"/>
<use x="242.382812" xlink:href="#j"/>
<use x="270.166016" xlink:href="#h"/>
<use x="333.544922" xlink:href="#f"/>
<use x="394.824219" xlink:href="#l"/>
</g>
</g>
<path d="m907.27 562.38v33.808q0 2.4 2.4 2.4h7.7425q2.4 0 2.4-2.4v-33.808q0-2.4-2.4-2.4h-7.7425q-2.4 0-2.4 2.4z" clip-path="url(#a)" fill="#fff" stroke="#fff"/>
<g clip-path="url(#a)">
<g transform="translate(911.34 562.38) rotate(90) scale(.08 -.08)">
<use xlink:href="#k"/>
<use x="44.083984" xlink:href="#e"/>
<use x="105.607422" xlink:href="#g"/>
<use x="144.970703" xlink:href="#i"/>
<use x="242.382812" xlink:href="#j"/>
<use x="270.166016" xlink:href="#h"/>
<use x="333.544922" xlink:href="#f"/>
<use x="394.824219" xlink:href="#l"/>
</g>
</g>
<path d="m49.001 562.38v33.808q0 2.4 2.4 2.4h7.7425q2.4 0 2.4-2.4v-33.808q0-2.4-2.4-2.4h-7.7425q-2.4 0-2.4 2.4z" clip-path="url(#a)" fill="#fff" stroke="#fff"/>
<g clip-path="url(#a)">
<g transform="translate(53.065 562.38) rotate(90) scale(.08 -.08)">
<use xlink:href="#k"/>
<use x="44.083984" xlink:href="#e"/>
<use x="105.607422" xlink:href="#g"/>
<use x="144.970703" xlink:href="#i"/>
<use x="242.382812" xlink:href="#j"/>
<use x="270.166016" xlink:href="#h"/>
<use x="333.544922" xlink:href="#f"/>
<use x="394.824219" xlink:href="#l"/>
</g>
</g>
<path d="m73.415 596.77 3.6491-33.61q0.25905-2.386-2.1269-2.645l-7.6973-0.8357q-2.386-0.25905-2.645 2.1269l-3.6491 33.61q-0.25905 2.386 2.1269 2.645l7.6973 0.8357q2.386 0.25905 2.645-2.1269z" clip-path="url(#a)" fill="#fff" stroke="#fff"/>
<g clip-path="url(#a)">
<g transform="translate(69.375 596.33) rotate(-83.804) scale(.08 -.08)">
<use xlink:href="#k"/>
<use x="44.083984" xlink:href="#e"/>
<use x="105.607422" xlink:href="#g"/>
<use x="144.970703" xlink:href="#i"/>
<use x="242.382812" xlink:href="#j"/>
<use x="270.166016" xlink:href="#h"/>
<use x="333.544922" xlink:href="#f"/>
<use x="394.824219" xlink:href="#l"/>
</g>
</g>
<path d="m67.812 563.16 3.6491 33.61q0.25905 2.386 2.645 2.1269l7.6973-0.8357q2.386-0.25905 2.1269-2.645l-3.6491-33.61q-0.25905-2.386-2.645-2.1269l-7.6973 0.8357q-2.386 0.25905-2.1269 2.645z" clip-path="url(#a)" fill="#fff" stroke="#fff"/>
<g clip-path="url(#a)">
<g transform="translate(71.852 562.72) rotate(83.804) scale(.08 -.08)">
<use xlink:href="#k"/>
<use x="44.083984" xlink:href="#e"/>
<use x="105.607422" xlink:href="#g"/>
<use x="144.970703" xlink:href="#i"/>
<use x="242.382812" xlink:href="#j"/>
<use x="270.166016" xlink:href="#h"/>
<use x="333.544922" xlink:href="#f"/>
<use x="394.824219" xlink:href="#l"/>
</g>
</g>
<path d="m112.07 421.87 0.4122-5.571q0.17709-2.3935-2.2164-2.5705l-7.7214-0.57131q-2.3935-0.17709-2.5705 2.2164l-0.4122 5.571q-0.17709 2.3935 2.2164 2.5705l7.7214 0.57131q2.3935 0.17709 2.5705-2.2164z" clip-path="url(#a)" fill="#fff" stroke="#fff"/>
<g clip-path="url(#a)">
<g transform="translate(108.01 421.57) rotate(-85.768) scale(.08 -.08)">
<use xlink:href="#t"/>
</g>
</g>
<path d="m118.38 321.34 1.4281 4.8491q0.67804 2.3022 2.9803 1.6242l7.4271-2.1874q2.3022-0.67804 1.6242-2.9803l-1.4281-4.8491q-0.67804-2.3022-2.9803-1.6242l-7.4271 2.1874q-2.3022 0.67804-1.6242 2.9803z" clip-path="url(#a)" fill="#fff" stroke="#fff"/>
<g clip-path="url(#a)">
<g transform="translate(122.28 320.19) rotate(73.589) scale(.08 -.08)">
<use xlink:href="#aj"/>
</g>
</g>
<path d="m90.199 562.38v33.808q0 2.4 2.4 2.4h7.7425q2.4 0 2.4-2.4v-33.808q0-2.4-2.4-2.4h-7.7425q-2.4 0-2.4 2.4z" clip-path="url(#a)" fill="#fff" stroke="#fff"/>
<g clip-path="url(#a)">
<g transform="translate(94.262 562.38) rotate(90) scale(.08 -.08)">
<use xlink:href="#k"/>
<use x="44.083984" xlink:href="#e"/>
<use x="105.607422" xlink:href="#g"/>
<use x="144.970703" xlink:href="#i"/>
<use x="242.382812" xlink:href="#j"/>
<use x="270.166016" xlink:href="#h"/>
<use x="333.544922" xlink:href="#f"/>
<use x="394.824219" xlink:href="#l"/>
</g>
</g>
<path d="m121.19 454.94 1.061-5.3687q0.46531-2.3545-1.8891-2.8198l-7.5956-1.5011q-2.3545-0.46531-2.8198 1.8891l-1.061 5.3687q-0.46531 2.3545 1.8891 2.8198l7.5956 1.5011q2.3545 0.46531 2.8198-1.8891z" clip-path="url(#a)" fill="#fff" stroke="#fff"/>
<g clip-path="url(#a)">
<g transform="translate(117.2 454.15) rotate(-78.821) scale(.08 -.08)">
<use xlink:href="#m"/>
</g>
</g>
<path d="m131.86 454.33 0.49618-5.45q0.2176-2.3901-2.1725-2.6077l-7.7106-0.702q-2.3901-0.2176-2.6077 2.1725l-0.49618 5.45q-0.2176 2.3901 2.1725 2.6077l7.7106 0.702q2.3901 0.2176 2.6077-2.1725z" clip-path="url(#a)" fill="#fff" stroke="#fff"/>
<g clip-path="url(#a)">
<g transform="translate(127.82 453.96) rotate(-84.798) scale(.08 -.08)">
<use xlink:href="#m"/>
</g>
</g>
<path d="m131.53 448.84 0.16058 4.8211q0.079896 2.3987 2.4786 2.3188l7.7382-0.25775q2.3987-0.079896 2.3188-2.4786l-0.16058-4.8211q-0.079896-2.3987-2.4786-2.3188l-7.7382 0.25775q-2.3987 0.079896-2.3188 2.4786z" clip-path="url(#a)" fill="#fff" stroke="#fff"/>
<g clip-path="url(#a)">
<g transform="translate(135.59 448.7) rotate(88.092) scale(.08 -.08)">
<use xlink:href="#s"/>
</g>
</g>
<path d="m152.69 388.38 3.3197 4.3506q1.4559 1.908 3.3639 0.45213l6.1553-4.6967q1.908-1.4559 0.45213-3.3639l-3.3197-4.3506q-1.4559-1.908-3.3639-0.45213l-6.1553 4.6967q-1.908 1.4559-0.45213 3.3639z" clip-path="url(#a)" fill="#fff" stroke="#fff"/>
<g clip-path="url(#a)">
<g transform="translate(155.92 385.91) rotate(52.655) scale(.08 -.08)">
<use xlink:href="#m"/>
</g>
</g>
<path d="m110.8 562.38v33.808q0 2.4 2.4 2.4h7.7425q2.4 0 2.4-2.4v-33.808q0-2.4-2.4-2.4h-7.7425q-2.4 0-2.4 2.4z" clip-path="url(#a)" fill="#fff" stroke="#fff"/>
<g clip-path="url(#a)">
<g transform="translate(114.86 562.38) rotate(90) scale(.08 -.08)">
<use xlink:href="#k"/>
<use x="44.083984" xlink:href="#e"/>
<use x="105.607422" xlink:href="#g"/>
<use x="144.970703" xlink:href="#i"/>
<use x="242.382812" xlink:href="#j"/>
<use x="270.166016" xlink:href="#h"/>
<use x="333.544922" xlink:href="#f"/>
<use x="394.824219" xlink:href="#l"/>
</g>
</g>
<path d="m134.83 562.38v33.808q0 2.4 2.4 2.4h7.7425q2.4 0 2.4-2.4v-33.808q0-2.4-2.4-2.4h-7.7425q-2.4 0-2.4 2.4z" clip-path="url(#a)" fill="#fff" stroke="#fff"/>
<g clip-path="url(#a)">
<g transform="translate(138.89 562.38) rotate(90) scale(.08 -.08)">
<use xlink:href="#k"/>
<use x="44.083984" xlink:href="#e"/>
<use x="105.607422" xlink:href="#g"/>
<use x="144.970703" xlink:href="#i"/>
<use x="242.382812" xlink:href="#j"/>
<use x="270.166016" xlink:href="#h"/>
<use x="333.544922" xlink:href="#f"/>
<use x="394.824219" xlink:href="#l"/>
</g>
</g>
<path d="m177.61 444.82v12.991q0 2.4 2.4 2.4h8q2.4 0 2.4-2.4v-12.991q0-2.4-2.4-2.4h-8q-2.4 0-2.4 2.4z" clip-path="url(#a)" fill="#fff" stroke="#fff"/>
<g clip-path="url(#a)">
<defs>
<path id="as" d="m21 76.422v-100h-8.2969v100z"/>
</defs>
<g transform="translate(181.9 444.82) rotate(90) scale(.08 -.08)">
<use xlink:href="#m"/>
<use x="68.408203" xlink:href="#as"/>
<use x="102.099609" xlink:href="#s"/>
</g>
</g>
<path d="m181.85 519.31 1.0778-4.4732q0.56215-2.3332-1.7711-2.8954l-7.5271-1.8135q-2.3332-0.56215-2.8954 1.7711l-1.0778 4.4732q-0.56215 2.3332 1.7711 2.8954l7.5271 1.8135q2.3332 0.56215 2.8954-1.7711z" clip-path="url(#a)" fill="#fff" stroke="#fff"/>
<g clip-path="url(#a)">
<g transform="translate(177.9 518.36) rotate(-76.454) scale(.08 -.08)">
<use xlink:href="#ai"/>
</g>
</g>
<path d="m184.99 514.36 1.3085 5.4308q0.56215 2.3332 2.8954 1.7711l7.5271-1.8135q2.3332-0.56215 1.7711-2.8954l-1.3085-5.4308q-0.56215-2.3332-2.8954-1.7711l-7.5271 1.8135q-2.3332 0.56215-1.7711 2.8954z" clip-path="url(#a)" fill="#fff" stroke="#fff"/>
<g clip-path="url(#a)">
<g transform="translate(188.94 513.41) rotate(76.454) scale(.08 -.08)">
<use xlink:href="#t"/>
</g>
</g>
<path d="m162.29 562.38v33.808q0 2.4 2.4 2.4h7.7425q2.4 0 2.4-2.4v-33.808q0-2.4-2.4-2.4h-7.7425q-2.4 0-2.4 2.4z" clip-path="url(#a)" fill="#fff" stroke="#fff"/>
<g clip-path="url(#a)">
<g transform="translate(166.36 562.38) rotate(90) scale(.08 -.08)">
<use xlink:href="#k"/>
<use x="44.083984" xlink:href="#e"/>
<use x="105.607422" xlink:href="#g"/>
<use x="144.970703" xlink:href="#i"/>
<use x="242.382812" xlink:href="#j"/>
<use x="270.166016" xlink:href="#h"/>
<use x="333.544922" xlink:href="#f"/>
<use x="394.824219" xlink:href="#l"/>
</g>
</g>
<path d="m193.19 562.38v33.808q0 2.4 2.4 2.4h7.7425q2.4 0 2.4-2.4v-33.808q0-2.4-2.4-2.4h-7.7425q-2.4 0-2.4 2.4z" clip-path="url(#a)" fill="#fff" stroke="#fff"/>
<g clip-path="url(#a)">
<g transform="translate(197.25 562.38) rotate(90) scale(.08 -.08)">
<use xlink:href="#k"/>
<use x="44.083984" xlink:href="#e"/>
<use x="105.607422" xlink:href="#g"/>
<use x="144.970703" xlink:href="#i"/>
<use x="242.382812" xlink:href="#j"/>
<use x="270.166016" xlink:href="#h"/>
<use x="333.544922" xlink:href="#f"/>
<use x="394.824219" xlink:href="#l"/>
</g>
</g>
<path d="m227.52 562.38v33.808q0 2.4 2.4 2.4h7.7425q2.4 0 2.4-2.4v-33.808q0-2.4-2.4-2.4h-7.7425q-2.4 0-2.4 2.4z" clip-path="url(#a)" fill="#fff" stroke="#fff"/>
<g clip-path="url(#a)">
<g transform="translate(231.59 562.38) rotate(90) scale(.08 -.08)">
<use xlink:href="#k"/>
<use x="44.083984" xlink:href="#e"/>
<use x="105.607422" xlink:href="#g"/>
<use x="144.970703" xlink:href="#i"/>
<use x="242.382812" xlink:href="#j"/>
<use x="270.166016" xlink:href="#h"/>
<use x="333.544922" xlink:href="#f"/>
<use x="394.824219" xlink:href="#l"/>
</g>
</g>
<path d="m265.29 562.38v33.808q0 2.4 2.4 2.4h7.7425q2.4 0 2.4-2.4v-33.808q0-2.4-2.4-2.4h-7.7425q-2.4 0-2.4 2.4z" clip-path="url(#a)" fill="#fff" stroke="#fff"/>
<g clip-path="url(#a)">
<g transform="translate(269.35 562.38) rotate(90) scale(.08 -.08)">
<use xlink:href="#k"/>
<use x="44.083984" xlink:href="#e"/>
<use x="105.607422" xlink:href="#g"/>
<use x="144.970703" xlink:href="#i"/>
<use x="242.382812" xlink:href="#j"/>
<use x="270.166016" xlink:href="#h"/>
<use x="333.544922" xlink:href="#f"/>
<use x="394.824219" xlink:href="#l"/>
</g>
</g>
<path d="m505.6 562.38v33.808q0 2.4 2.4 2.4h7.7425q2.4 0 2.4-2.4v-33.808q0-2.4-2.4-2.4h-7.7425q-2.4 0-2.4 2.4z" clip-path="url(#a)" fill="#fff" stroke="#fff"/>
<g clip-path="url(#a)">
<g transform="translate(509.67 562.38) rotate(90) scale(.08 -.08)">
<use xlink:href="#k"/>
<use x="44.083984" xlink:href="#e"/>
<use x="105.607422" xlink:href="#g"/>
<use x="144.970703" xlink:href="#i"/>
<use x="242.382812" xlink:href="#j"/>
<use x="270.166016" xlink:href="#h"/>
<use x="333.544922" xlink:href="#f"/>
<use x="394.824219" xlink:href="#l"/>
</g>
</g>
<path d="m563.96 562.38v33.808q0 2.4 2.4 2.4h7.7425q2.4 0 2.4-2.4v-33.808q0-2.4-2.4-2.4h-7.7425q-2.4 0-2.4 2.4z" clip-path="url(#a)" fill="#fff" stroke="#fff"/>
<g clip-path="url(#a)">
<g transform="translate(568.03 562.38) rotate(90) scale(.08 -.08)">
<use xlink:href="#k"/>
<use x="44.083984" xlink:href="#e"/>
<use x="105.607422" xlink:href="#g"/>
<use x="144.970703" xlink:href="#i"/>
<use x="242.382812" xlink:href="#j"/>
<use x="270.166016" xlink:href="#h"/>
<use x="333.544922" xlink:href="#f"/>
<use x="394.824219" xlink:href="#l"/>
</g>
</g>
<path d="m1068.6 562.38v33.808q0 2.4 2.4 2.4h7.7425q2.4 0 2.4-2.4v-33.808q0-2.4-2.4-2.4h-7.7425q-2.4 0-2.4 2.4z" clip-path="url(#a)" fill="#fff" stroke="#fff"/>
<g clip-path="url(#a)">
<g transform="translate(1072.7 562.38) rotate(90) scale(.08 -.08)">
<use xlink:href="#k"/>
<use x="44.083984" xlink:href="#e"/>
<use x="105.607422" xlink:href="#g"/>
<use x="144.970703" xlink:href="#i"/>
<use x="242.382812" xlink:href="#j"/>
<use x="270.166016" xlink:href="#h"/>
<use x="333.544922" xlink:href="#f"/>
<use x="394.824219" xlink:href="#l"/>
</g>
</g>
<path d="m1154.5 562.38v33.808q0 2.4 2.4 2.4h7.7425q2.4 0 2.4-2.4v-33.808q0-2.4-2.4-2.4h-7.7425q-2.4 0-2.4 2.4z" clip-path="url(#a)" fill="#fff" stroke="#fff"/>
<g clip-path="url(#a)">
<g transform="translate(1158.5 562.38) rotate(90) scale(.08 -.08)">
<use xlink:href="#k"/>
<use x="44.083984" xlink:href="#e"/>
<use x="105.607422" xlink:href="#g"/>
<use x="144.970703" xlink:href="#i"/>
<use x="242.382812" xlink:href="#j"/>
<use x="270.166016" xlink:href="#h"/>
<use x="333.544922" xlink:href="#f"/>
<use x="394.824219" xlink:href="#l"/>
</g>
</g>
<defs>
<path id="b" d="m0 8.6603c2.2967 0 4.4997-0.9125 6.1237-2.5365 1.624-1.624 2.5365-3.827 2.5365-6.1237s-0.9125-4.4997-2.5365-6.1237c-1.624-1.624-3.827-2.5365-6.1237-2.5365s-4.4997 0.9125-6.1237 2.5365c-1.624 1.624-2.5365 3.827-2.5365 6.1237s0.9125 4.4997 2.5365 6.1237c1.624 1.624 3.827 2.5365 6.1237 2.5365z"/>
</defs>
<g clip-path="url(#a)" fill="#ffffff" stroke="#ffffff">
<use x="55.272727" y="610.909091" xlink:href="#b"/>
<use x="65.571993" y="610.909091" xlink:href="#b"/>
<use x="79.304348" y="610.909091" xlink:href="#b"/>
<use x="96.469791" y="610.909091" xlink:href="#b"/>
<use x="117.068323" y="610.909091" xlink:href="#b"/>
<use x="141.099944" y="610.909091" xlink:href="#b"/>
<use x="168.564653" y="610.909091" xlink:href="#b"/>
<use x="199.462451" y="610.909091" xlink:href="#b"/>
<use x="233.793337" y="610.909091" xlink:href="#b"/>
<use x="271.557312" y="610.909091" xlink:href="#b"/>
<use x="312.754376" y="610.909091" xlink:href="#b"/>
<use x="357.384529" y="610.909091" xlink:href="#b"/>
<use x="405.44777" y="610.909091" xlink:href="#b"/>
<use x="456.944099" y="610.909091" xlink:href="#b"/>
<use x="511.873518" y="610.909091" xlink:href="#b"/>
<use x="570.236025" y="610.909091" xlink:href="#b"/>
<use x="632.031621" y="610.909091" xlink:href="#b"/>
<use x="697.260305" y="610.909091" xlink:href="#b"/>
<use x="765.922078" y="610.909091" xlink:href="#b"/>
<use x="838.01694" y="610.909091" xlink:href="#b"/>
<use x="913.54489" y="610.909091" xlink:href="#b"/>
<use x="992.505929" y="610.909091" xlink:href="#b"/>
<use x="1074.900056" y="610.909091" xlink:href="#b"/>
<use x="1160.727273" y="610.909091" xlink:href="#b"/>
<use x="404.873577" y="29.090909" xlink:href="#b"/>
<use x="404.873577" y="94.346156" xlink:href="#b"/>
<use x="454.0671" y="159.519672" xlink:href="#b"/>
<use x="335.069452" y="547.667563" xlink:href="#b"/>
<use x="405.44777" y="547.667563" xlink:href="#b"/>
<use x="456.944099" y="547.667563" xlink:href="#b"/>
<use x="175.055336" y="224.599832" xlink:href="#b"/>
<use x="733.078863" y="289.571111" xlink:href="#b"/>
<use x="632.031621" y="547.667563" xlink:href="#b"/>
<use x="697.260305" y="547.667563" xlink:href="#b"/>
<use x="869.944664" y="354.411704" xlink:href="#b"/>
<use x="765.922078" y="547.667563" xlink:href="#b"/>
<use x="973.96725" y="419.088678" xlink:href="#b"/>
<use x="875.780915" y="483.546276" xlink:href="#b"/>
<use x="992.505929" y="547.667563" xlink:href="#b"/>
<use x="838.01694" y="547.667563" xlink:href="#b"/>
<use x="913.54489" y="547.667563" xlink:href="#b"/>
<use x="55.272727" y="547.667563" xlink:href="#b"/>
<use x="72.438171" y="547.667563" xlink:href="#b"/>
<use x="115.566347" y="289.571111" xlink:href="#b"/>
<use x="96.469791" y="547.667563" xlink:href="#b"/>
<use x="134.662902" y="354.411704" xlink:href="#b"/>
<use x="117.068323" y="547.667563" xlink:href="#b"/>
<use x="141.099944" y="547.667563" xlink:href="#b"/>
<use x="184.013552" y="419.088678" xlink:href="#b"/>
<use x="184.013552" y="483.546276" xlink:href="#b"/>
<use x="168.564653" y="547.667563" xlink:href="#b"/>
<use x="199.462451" y="547.667563" xlink:href="#b"/>
<use x="233.793337" y="547.667563" xlink:href="#b"/>
<use x="271.557312" y="547.667563" xlink:href="#b"/>
<use x="511.873518" y="547.667563" xlink:href="#b"/>
<use x="570.236025" y="547.667563" xlink:href="#b"/>
<use x="1074.900056" y="547.667563" xlink:href="#b"/>
<use x="1160.727273" y="547.667563" xlink:href="#b"/>
</g>
<g clip-path="url(#a)">
<defs>
<path id="ao" d="m59.516 10.406v19.578h-16.109v8.1094h25.875v-31.312q-5.7031-4.0469-12.594-6.125-6.875-2.0781-14.688-2.0781-17.094 0-26.75 9.9844-9.6406 10-9.6406 27.812 0 17.875 9.6406 27.859 9.6562 9.9844 26.75 9.9844 7.125 0 13.547-1.7656 6.4219-1.75 11.844-5.1719v-10.5q-5.4688 4.6406-11.625 6.9844t-12.938 2.3438q-13.391 0-20.109-7.4688-6.7031-7.4688-6.7031-22.266 0-14.75 6.7031-22.219 6.7188-7.4688 20.109-7.4688 5.2188 0 9.3125 0.90625 4.1094 0.90625 7.375 2.8125z"/>
<path id="p" d="m18.312 70.219v-15.531h18.5v-6.9844h-18.5v-29.688q0-6.6875 1.8281-8.5938t7.4531-1.9062h9.2188v-7.5156h-9.2188q-10.406 0-14.359 3.875-3.9531 3.8906-3.9531 14.141v29.688h-6.5938v6.9844h6.5938v15.531z"/>
</defs>
<g transform="translate(46.362 613.67) scale(.1 -.1)">
<use xlink:href="#ao"/>
<use x="77.490234" xlink:href="#e"/>
<use x="139.013672" xlink:href="#p"/>
</g>
</g>
<g clip-path="url(#a)">
<defs>
<path id="aa" d="m30.609 48.391q-7.2188 0-11.422-5.6406t-4.2031-15.453 4.1719-15.453q4.1875-5.6406 11.453-5.6406 7.1875 0 11.375 5.6562 4.2031 5.6719 4.2031 15.438 0 9.7188-4.2031 15.406-4.1875 5.6875-11.375 5.6875zm0 7.6094q11.719 0 18.406-7.625 6.7031-7.6094 6.7031-21.078 0-13.422-6.7031-21.078-6.6875-7.6406-18.406-7.6406-11.766 0-18.438 7.6406-6.6562 7.6562-6.6562 21.078 0 13.469 6.6562 21.078 6.6719 7.625 18.438 7.625z"/>
<path id="au" d="m8.5 21.578v33.109h8.9844v-32.766q0-7.7656 3.0156-11.656 3.0312-3.875 9.0938-3.875 7.2656 0 11.484 4.6406 4.2344 4.6406 4.2344 12.656v31h8.9844v-54.688h-8.9844v8.4062q-3.2656-4.9844-7.5938-7.4062-4.3125-2.4219-10.031-2.4219-9.4219 0-14.312 5.8594-4.875 5.8594-4.875 17.141z"/>
</defs>
<g transform="translate(57.384 613.67) scale(.1 -.1)">
<use xlink:href="#aa"/>
<use x="61.181641" xlink:href="#au"/>
<use x="124.560547" xlink:href="#p"/>
</g>
</g>
<g clip-path="url(#a)">
<defs>
<path id="ax" d="m37.109 75.984v-7.4844h-8.5938q-4.8281 0-6.7188-1.9531-1.875-1.9531-1.875-7.0312v-4.8281h14.797v-6.9844h-14.797v-47.703h-9.0312v47.703h-8.5938v6.9844h8.5938v3.8125q0 9.125 4.25 13.297 4.25 4.1875 13.469 4.1875z"/>
</defs>
<g transform="translate(67.413 613.67) scale(.1 -.1)">
<use xlink:href="#ax"/>
<use x="35.205078" xlink:href="#g"/>
<use x="74.068359" xlink:href="#aa"/>
<use x="135.25" xlink:href="#h"/>
<use x="198.628906" xlink:href="#p"/>
</g>
</g>
<g clip-path="url(#a)">
<defs>
<path id="ak" d="m4.2031 54.688h8.9844l11.234-42.672 11.172 42.672h10.594l11.234-42.672 11.188 42.672h8.9844l-14.312-54.688h-10.594l-11.766 44.828-11.812-44.828h-10.609z"/>
<path id="r" d="m54.891 33.016v-33.016h-8.9844v32.719q0 7.7656-3.0312 11.609-3.0312 3.8594-9.0781 3.8594-7.2812 0-11.484-4.6406-4.2031-4.625-4.2031-12.641v-30.906h-9.0312v75.984h9.0312v-29.797q3.2344 4.9375 7.5938 7.375 4.375 2.4375 10.094 2.4375 9.4219 0 14.25-5.8281 4.8438-5.8281 4.8438-17.156z"/>
</defs>
<g transform="translate(81.116 613.67) scale(.1 -.1)">
<use xlink:href="#ak"/>
<use x="81.787109" xlink:href="#r"/>
<use x="145.166016" xlink:href="#e"/>
<use x="206.689453" xlink:href="#g"/>
<use x="245.552734" xlink:href="#e"/>
</g>
</g>
<g clip-path="url(#a)">
<defs>
<path id="ag" d="m32.172-5.0781q-3.7969-9.7656-7.4219-12.734-3.6094-2.9844-9.6562-2.9844h-7.1875v7.5156h5.2812q3.7031 0 5.75 1.7656 2.0625 1.75 4.5469 8.2969l1.6094 4.0938-22.109 53.812h9.5156l17.094-42.766 17.094 42.766h9.5156z"/>
</defs>
<g transform="translate(105.9 613.67) scale(.1 -.1)">
<use xlink:href="#p"/>
<use x="39.208984" xlink:href="#r"/>
<use x="102.587891" xlink:href="#e"/>
<use x="164.111328" xlink:href="#ag"/>
</g>
</g>
<g clip-path="url(#a)">
<defs>
<path id="av" d="m18.109 8.2031v-29h-9.0312v75.484h9.0312v-8.2969q2.8438 4.875 7.1562 7.2344 4.3281 2.375 10.328 2.375 9.9688 0 16.188-7.9062 6.2344-7.9062 6.2344-20.797t-6.2344-20.812q-6.2188-7.9062-16.188-7.9062-6 0-10.328 2.375-4.3125 2.375-7.1562 7.25zm30.578 19.094q0 9.9062-4.0781 15.547t-11.203 5.6406q-7.1406 0-11.219-5.6406t-4.0781-15.547 4.0781-15.547 11.219-5.6406q7.125 0 11.203 5.6406t4.0781 15.547z"/>
</defs>
<g transform="translate(131.9 613.67) scale(.1 -.1)">
<use xlink:href="#av"/>
<use x="63.476562" xlink:href="#f"/>
<use x="124.755859" xlink:href="#ag"/>
</g>
</g>
<g clip-path="url(#a)">
<g transform="translate(160.36 613.67) scale(.1 -.1)">
<use xlink:href="#p"/>
<use x="39.208984" xlink:href="#r"/>
<use x="102.587891" xlink:href="#e"/>
</g>
</g>
<g clip-path="url(#a)">
<defs>
<path id="ah" d="m48.781 52.594v-8.4062q-3.8125 2.1094-7.6406 3.1562t-7.7344 1.0469q-8.75 0-13.594-5.5469-4.8281-5.5312-4.8281-15.547t4.8281-15.562q4.8438-5.5312 13.594-5.5312 3.9062 0 7.7344 1.0469t7.6406 3.1562v-8.3125q-3.7656-1.75-7.7969-2.625-4.0156-0.89062-8.5625-0.89062-12.359 0-19.641 7.7656-7.2656 7.7656-7.2656 20.953 0 13.375 7.3438 21.031 7.3594 7.6719 20.156 7.6719 4.1406 0 8.0938-0.85938 3.9531-0.84375 7.6719-2.5469z"/>
<path id="z" d="m44.281 53.078v-8.5q-3.7969 1.9531-7.9062 2.9219-4.0938 0.98438-8.5 0.98438-6.6875 0-10.031-2.0469t-3.3438-6.1562q0-3.125 2.3906-4.9062t9.625-3.3906l3.0781-0.6875q9.5625-2.0469 13.594-5.7812t4.0312-10.422q0-7.625-6.0312-12.078-6.0312-4.4375-16.578-4.4375-4.3906 0-9.1562 0.85938t-10.031 2.5625v9.2812q4.9844-2.5938 9.8125-3.8906 4.8281-1.2812 9.5781-1.2812 6.3438 0 9.75 2.1719 3.4219 2.1719 3.4219 6.125 0 3.6562-2.4688 5.6094-2.4531 1.9531-10.812 3.7656l-3.125 0.73438q-8.3438 1.75-12.062 5.3906-3.7031 3.6406-3.7031 9.9844 0 7.7188 5.4688 11.906 5.4688 4.2031 15.531 4.2031 4.9688 0 9.3594-0.73438 4.4062-0.71875 8.1094-2.1875z"/>
</defs>
<g transform="translate(183.97 613.67) scale(.1 -.1)">
<use xlink:href="#f"/>
<use x="61.279297" xlink:href="#ah"/>
<use x="116.259766" xlink:href="#p"/>
<use x="155.46875" xlink:href="#aa"/>
<use x="216.650391" xlink:href="#g"/>
<use x="257.763672" xlink:href="#z"/>
</g>
</g>
<g clip-path="url(#a)">
<defs>
<path id="aq" d="m11.719 12.406h10.297v-8.4062l-8-15.625h-6.2969l4 15.625z"/>
</defs>
<g transform="translate(232.2 613.67) scale(.1 -.1)">
<use xlink:href="#aq"/>
</g>
</g>
<g clip-path="url(#a)">
<defs>
<path id="af" d="m17.922 72.906v-27.109h-8.2969v27.109zm18.453 0v-27.109h-8.2969v27.109z"/>
</defs>
<g transform="translate(269.26 613.67) scale(.1 -.1)">
<use xlink:href="#af"/>
</g>
</g>
<g clip-path="url(#a)">
<g transform="translate(301.65 613.67) scale(.1 -.1)">
<use xlink:href="#ab"/>
<use x="63.476562" xlink:href="#f"/>
<use x="124.755859" xlink:href="#i"/>
</g>
</g>
<g clip-path="url(#a)">
<defs>
<path id="am" d="m3.3281 72.906h9.9531l15.328-61.625 15.281 61.625h11.094l15.328-61.625 15.281 61.625h10.016l-18.312-72.906h-12.406l-15.375 63.281-15.531-63.281h-12.406z"/>
</defs>
<g transform="translate(339.43 613.67) scale(.1 -.1)">
<use xlink:href="#am"/>
<use x="92.501953" xlink:href="#f"/>
<use x="153.78125" xlink:href="#g"/>
<use x="193.144531" xlink:href="#h"/>
<use x="256.523438" xlink:href="#e"/>
<use x="318.046875" xlink:href="#g"/>
</g>
</g>
<g clip-path="url(#a)">
<defs>
<path id="al" d="m45.406 46.391v29.594h8.9844v-75.984h-8.9844v8.2031q-2.8281-4.875-7.1562-7.25-4.3125-2.375-10.375-2.375-9.9062 0-16.141 7.9062-6.2188 7.9219-6.2188 20.812t6.2188 20.797q6.2344 7.9062 16.141 7.9062 6.0625 0 10.375-2.375 4.3281-2.3594 7.1562-7.2344zm-30.609-19.094q0-9.9062 4.0781-15.547t11.203-5.6406 11.219 5.6406q4.1094 5.6406 4.1094 15.547t-4.1094 15.547q-4.0938 5.6406-11.219 5.6406t-11.203-5.6406-4.0781-15.547z"/>
<path id="at" d="m2.9844 54.688h9.5156l17.094-45.891 17.094 45.891h9.5156l-20.516-54.688h-12.203z"/>
</defs>
<g transform="translate(386.01 613.67) scale(.1 -.1)">
<use xlink:href="#f"/>
<use x="61.279297" xlink:href="#al"/>
<use x="124.755859" xlink:href="#at"/>
<use x="183.935547" xlink:href="#j"/>
<use x="211.71875" xlink:href="#z"/>
<use x="263.818359" xlink:href="#e"/>
<use x="325.341797" xlink:href="#al"/>
</g>
</g>
<g clip-path="url(#a)">
<defs>
<path id="an" d="m9.8125 72.906h9.8594v-67.828q0-13.188-5-19.141t-16.094-5.9531h-3.75v8.2969h3.0781q6.5312 0 9.2188 3.6719 2.6875 3.6562 2.6875 13.125z"/>
<path id="aw" d="m9.0781 75.984h9.0312v-44.875l26.812 23.578h11.469l-29-25.578 30.234-29.109h-11.719l-27.797 26.703v-26.703h-9.0312z"/>
</defs>
<g transform="translate(446.76 613.67) scale(.1 -.1)">
<use xlink:href="#an"/>
<use x="29.492188" xlink:href="#f"/>
<use x="90.771484" xlink:href="#ah"/>
<use x="145.751953" xlink:href="#aw"/>
</g>
</g>
<g clip-path="url(#a)">
<defs>
<path id="d" d="m10.688 12.406h10.312v-12.406h-10.312z"/>
</defs>
<g transform="translate(510.28 613.67) scale(.1 -.1)">
<use xlink:href="#d"/>
</g>
</g>
<g clip-path="url(#a)">
<g transform="translate(567.94 613.67) scale(.1 -.1)">
<use xlink:href="#af"/>
</g>
</g>
<g clip-path="url(#a)">
<g transform="translate(620.78 613.67) scale(.1 -.1)">
<use xlink:href="#k"/>
<use x="61.083984" xlink:href="#r"/>
<use x="124.462891" xlink:href="#f"/>
<use x="185.742188" xlink:href="#p"/>
</g>
</g>
<g clip-path="url(#a)">
<defs>
<path id="ar" d="m17.922 72.906v-27.109h-8.2969v27.109z"/>
</defs>
<g transform="translate(693.28 613.67) scale(.1 -.1)">
<use xlink:href="#ar"/>
<use x="27.490234" xlink:href="#z"/>
</g>
</g>
<g clip-path="url(#a)">
<g transform="translate(750.57 613.67) scale(.1 -.1)">
<use xlink:href="#ak"/>
<use x="81.787109" xlink:href="#r"/>
<use x="145.166016" xlink:href="#e"/>
<use x="206.689453" xlink:href="#g"/>
<use x="245.552734" xlink:href="#e"/>
</g>
</g>
<g clip-path="url(#a)">
<g transform="translate(829.81 613.67) scale(.1 -.1)">
<use xlink:href="#p"/>
<use x="39.208984" xlink:href="#r"/>
<use x="102.587891" xlink:href="#e"/>
</g>
</g>
<g clip-path="url(#a)">
<g transform="translate(896.41 613.67) scale(.1 -.1)">
<use xlink:href="#i"/>
<use x="97.412109" xlink:href="#aa"/>
<use x="158.59375" xlink:href="#h"/>
<use x="221.972656" xlink:href="#e"/>
<use x="283.496094" xlink:href="#ag"/>
</g>
</g>
<g clip-path="url(#a)">
<g transform="translate(988.51 613.67) scale(.1 -.1)">
<use xlink:href="#j"/>
<use x="27.783203" xlink:href="#z"/>
</g>
</g>
<g clip-path="url(#a)">
<g transform="translate(1073.3 613.67) scale(.1 -.1)">
<use xlink:href="#d"/>
</g>
</g>
<g clip-path="url(#a)">
<g transform="translate(1158.4 613.67) scale(.1 -.1)">
<use xlink:href="#af"/>
</g>
</g>
<g clip-path="url(#a)">
<defs>
<path id="c" d="m12.406 8.2969h16.109v55.625l-17.531-3.5156v8.9844l17.438 3.5156h9.8594v-64.609h16.109v-8.2969h-41.984z"/>
</defs>
<g transform="translate(396.92 31.85) scale(.1 -.1)">
<use xlink:href="#c"/>
<use x="63.623047" xlink:href="#d"/>
<use x="95.410156" xlink:href="#c"/>
</g>
</g>
<g clip-path="url(#a)">
<defs>
<path id="o" d="m19.188 8.2969h34.422v-8.2969h-46.281v8.2969q5.6094 5.8125 15.297 15.594 9.7031 9.7969 12.188 12.641 4.7344 5.3125 6.6094 9 1.8906 3.6875 1.8906 7.25 0 5.8125-4.0781 9.4688-4.0781 3.6719-10.625 3.6719-4.6406 0-9.7969-1.6094-5.1406-1.6094-11-4.8906v9.9688q5.9531 2.3906 11.125 3.6094 5.1875 1.2188 9.4844 1.2188 11.328 0 18.062-5.6719 6.7344-5.6562 6.7344-15.125 0-4.5-1.6875-8.5312-1.6719-4.0156-6.125-9.4844-1.2188-1.4219-7.7656-8.1875-6.5312-6.7656-18.453-18.922z"/>
</defs>
<g transform="translate(396.92 97.106) scale(.1 -.1)">
<use xlink:href="#c"/>
<use x="63.623047" xlink:href="#d"/>
<use x="95.410156" xlink:href="#o"/>
</g>
</g>
<g clip-path="url(#a)">
<defs>
<path id="x" d="m10.797 72.906h38.719v-8.3125h-29.688v-17.859q2.1406 0.73438 4.2812 1.0938 2.1562 0.35938 4.3125 0.35938 12.203 0 19.328-6.6875 7.1406-6.6875 7.1406-18.109 0-11.766-7.3281-18.297-7.3281-6.5156-20.656-6.5156-4.5938 0-9.3594 0.78125-4.75 0.78125-9.8281 2.3438v9.9219q4.3906-2.3906 9.0781-3.5625t9.9062-1.1719q8.4531 0 13.375 4.4375 4.9375 4.4375 4.9375 12.062 0 7.6094-4.9375 12.047-4.9219 4.4531-13.375 4.4531-3.9531 0-7.8906-0.875-3.9219-0.875-8.0156-2.7344z"/>
</defs>
<g transform="translate(446.12 162.28) scale(.1 -.1)">
<use xlink:href="#c"/>
<use x="63.623047" xlink:href="#d"/>
<use x="95.410156" xlink:href="#x"/>
</g>
</g>
<g clip-path="url(#a)">
<defs>
<path id="w" d="m33.016 40.375q-6.6406 0-10.531-4.5469-3.875-4.5312-3.875-12.438 0-7.8594 3.875-12.438 3.8906-4.5625 10.531-4.5625t10.516 4.5625q3.875 4.5781 3.875 12.438 0 7.9062-3.875 12.438-3.875 4.5469-10.516 4.5469zm19.578 30.922v-8.9844q-3.7188 1.75-7.5 2.6719-3.7812 0.9375-7.5 0.9375-9.7656 0-14.922-6.5938-5.1406-6.5938-5.875-19.922 2.875 4.25 7.2188 6.5156 4.3594 2.2656 9.5781 2.2656 10.984 0 17.359-6.6719 6.375-6.6562 6.375-18.125 0-11.234-6.6406-18.031-6.6406-6.7812-17.672-6.7812-12.656 0-19.344 9.6875-6.6875 9.7031-6.6875 28.109 0 17.281 8.2031 27.562t22.016 10.281q3.7188 0 7.5-0.73438t7.8906-2.1875z"/>
</defs>
<g transform="translate(327.12 550.43) scale(.1 -.1)">
<use xlink:href="#c"/>
<use x="63.623047" xlink:href="#d"/>
<use x="95.410156" xlink:href="#w"/>
</g>
</g>
<g clip-path="url(#a)">
<defs>
<path id="v" d="m8.2031 72.906h46.875v-4.2031l-26.469-68.703h-10.297l24.906 64.594h-35.016z"/>
</defs>
<g transform="translate(397.5 550.43) scale(.1 -.1)">
<use xlink:href="#c"/>
<use x="63.623047" xlink:href="#d"/>
<use x="95.410156" xlink:href="#v"/>
</g>
</g>
<g clip-path="url(#a)">
<defs>
<path id="u" d="m31.781 34.625q-7.0312 0-11.062-3.7656-4.0156-3.7656-4.0156-10.344 0-6.5938 4.0156-10.359 4.0312-3.7656 11.062-3.7656t11.078 3.7812q4.0625 3.7969 4.0625 10.344 0 6.5781-4.0312 10.344-4.0156 3.7656-11.109 3.7656zm-9.8594 4.1875q-6.3438 1.5625-9.8906 5.9062-3.5312 4.3594-3.5312 10.609 0 8.7344 6.2188 13.812 6.2344 5.0781 17.062 5.0781 10.891 0 17.094-5.0781t6.2031-13.812q0-6.25-3.5469-10.609-3.5312-4.3438-9.8281-5.9062 7.125-1.6562 11.094-6.5 3.9844-4.8281 3.9844-11.797 0-10.609-6.4688-16.281-6.4688-5.6562-18.531-5.6562-12.047 0-18.531 5.6562-6.4688 5.6719-6.4688 16.281 0 6.9688 4 11.797 4.0156 4.8438 11.141 6.5zm-3.6094 15.578q0-5.6562 3.5312-8.8281 3.5469-3.1719 9.9375-3.1719 6.3594 0 9.9375 3.1719 3.5938 3.1719 3.5938 8.8281 0 5.6719-3.5938 8.8438-3.5781 3.1719-9.9375 3.1719-6.3906 0-9.9375-3.1719-3.5312-3.1719-3.5312-8.8438z"/>
</defs>
<g transform="translate(448.99 550.43) scale(.1 -.1)">
<use xlink:href="#c"/>
<use x="63.623047" xlink:href="#d"/>
<use x="95.410156" xlink:href="#u"/>
</g>
</g>
<g clip-path="url(#a)">
<defs>
<path id="n" d="m40.578 39.312q7.0781-1.5156 11.047-6.3125 3.9844-4.7812 3.9844-11.812 0-10.781-7.4219-16.703-7.4219-5.9062-21.094-5.9062-4.5781 0-9.4375 0.90625t-10.031 2.7188v9.5156q4.0938-2.3906 8.9688-3.6094 4.8906-1.2188 10.219-1.2188 9.2656 0 14.125 3.6562t4.8594 10.641q0 6.4531-4.5156 10.078-4.5156 3.6406-12.562 3.6406h-8.5v8.1094h8.8906q7.2656 0 11.125 2.9062t3.8594 8.375q0 5.6094-3.9844 8.6094-3.9688 3.0156-11.391 3.0156-4.0625 0-8.7031-0.89062-4.6406-0.875-10.203-2.7188v8.7812q5.625 1.5625 10.531 2.3438t9.25 0.78125q11.234 0 17.766-5.1094 6.5469-5.0938 6.5469-13.781 0-6.0625-3.4688-10.234t-9.8594-5.7812z"/>
</defs>
<g transform="translate(163.92 227.36) scale(.1 -.1)">
<use xlink:href="#c"/>
<use x="63.623047" xlink:href="#d"/>
<use x="95.410156" xlink:href="#c"/>
<use x="159.033203" xlink:href="#n"/>
</g>
</g>
<g clip-path="url(#a)">
<defs>
<path id="y" d="m37.797 64.312-24.906-38.922h24.906zm-2.5938 8.5938h12.406v-47.516h10.406v-8.2031h-10.406v-17.188h-9.8125v17.188h-32.906v9.5156z"/>
</defs>
<g transform="translate(721.95 292.33) scale(.1 -.1)">
<use xlink:href="#c"/>
<use x="63.623047" xlink:href="#d"/>
<use x="95.410156" xlink:href="#c"/>
<use x="159.033203" xlink:href="#y"/>
</g>
</g>
<g clip-path="url(#a)">
<g transform="translate(620.9 550.43) scale(.1 -.1)">
<use xlink:href="#c"/>
<use x="63.623047" xlink:href="#d"/>
<use x="95.410156" xlink:href="#c"/>
<use x="159.033203" xlink:href="#x"/>
</g>
</g>
<g clip-path="url(#a)">
<g transform="translate(686.13 550.43) scale(.1 -.1)">
<use xlink:href="#c"/>
<use x="63.623047" xlink:href="#d"/>
<use x="95.410156" xlink:href="#c"/>
<use x="159.033203" xlink:href="#w"/>
</g>
</g>
<g clip-path="url(#a)">
<g transform="translate(858.81 357.17) scale(.1 -.1)">
<use xlink:href="#c"/>
<use x="63.623047" xlink:href="#d"/>
<use x="95.410156" xlink:href="#c"/>
<use x="159.033203" xlink:href="#v"/>
</g>
</g>
<g clip-path="url(#a)">
<g transform="translate(754.79 550.43) scale(.1 -.1)">
<use xlink:href="#c"/>
<use x="63.623047" xlink:href="#d"/>
<use x="95.410156" xlink:href="#c"/>
<use x="159.033203" xlink:href="#u"/>
</g>
</g>
<g clip-path="url(#a)">
<defs>
<path id="ad" d="m10.984 1.5156v8.9844q3.7188-1.7656 7.5156-2.6875 3.8125-0.92188 7.4844-0.92188 9.7656 0 14.906 6.5625 5.1562 6.5625 5.8906 19.953-2.8281-4.2031-7.1875-6.4531-4.3438-2.25-9.6094-2.25-10.938 0-17.312 6.6094-6.375 6.625-6.375 18.109 0 11.219 6.6406 18 6.6406 6.7969 17.672 6.7969 12.656 0 19.312-9.7031 6.6719-9.6875 6.6719-28.141 0-17.234-8.1875-27.516-8.1719-10.281-21.984-10.281-3.7188 0-7.5312 0.73438-3.7969 0.73438-7.9062 2.2031zm19.625 30.906q6.6406 0 10.516 4.5312 3.8906 4.5469 3.8906 12.469 0 7.8594-3.8906 12.422-3.875 4.5625-10.516 4.5625t-10.516-4.5625-3.875-12.422q0-7.9219 3.875-12.469 3.875-4.5312 10.516-4.5312z"/>
</defs>
<g transform="translate(962.83 421.85) scale(.1 -.1)">
<use xlink:href="#c"/>
<use x="63.623047" xlink:href="#d"/>
<use x="95.410156" xlink:href="#c"/>
<use x="159.033203" xlink:href="#ad"/>
</g>
</g>
<g clip-path="url(#a)">
<defs>
<path id="ae" d="m31.781 66.406q-7.6094 0-11.453-7.5-3.8281-7.4844-3.8281-22.531 0-14.984 3.8281-22.484 3.8438-7.5 11.453-7.5 7.6719 0 11.5 7.5 3.8438 7.5 3.8438 22.484 0 15.047-3.8438 22.531-3.8281 7.5-11.5 7.5zm0 7.8125q12.266 0 18.734-9.7031 6.4688-9.6875 6.4688-28.141 0-18.406-6.4688-28.109-6.4688-9.6875-18.734-9.6875-12.25 0-18.719 9.6875-6.4688 9.7031-6.4688 28.109 0 18.453 6.4688 28.141 6.4688 9.7031 18.719 9.7031z"/>
</defs>
<g transform="translate(864.65 486.31) scale(.1 -.1)">
<use xlink:href="#c"/>
<use x="63.623047" xlink:href="#d"/>
<use x="95.410156" xlink:href="#o"/>
<use x="159.033203" xlink:href="#ae"/>
</g>
</g>
<g clip-path="url(#a)">
<g transform="translate(981.37 550.43) scale(.1 -.1)">
<use xlink:href="#c"/>
<use x="63.623047" xlink:href="#d"/>
<use x="95.410156" xlink:href="#o"/>
<use x="159.033203" xlink:href="#c"/>
</g>
</g>
<g clip-path="url(#a)">
<g transform="translate(826.88 550.43) scale(.1 -.1)">
<use xlink:href="#c"/>
<use x="63.623047" xlink:href="#d"/>
<use x="95.410156" xlink:href="#o"/>
<use x="159.033203" xlink:href="#o"/>
</g>
</g>
<g clip-path="url(#a)">
<g transform="translate(902.41 550.43) scale(.1 -.1)">
<use xlink:href="#c"/>
<use x="63.623047" xlink:href="#d"/>
<use x="95.410156" xlink:href="#o"/>
<use x="159.033203" xlink:href="#n"/>
</g>
</g>
<g clip-path="url(#a)">
<g transform="translate(44.14 550.43) scale(.1 -.1)">
<use xlink:href="#c"/>
<use x="63.623047" xlink:href="#d"/>
<use x="95.410156" xlink:href="#o"/>
<use x="159.033203" xlink:href="#y"/>
</g>
</g>
<g clip-path="url(#a)">
<g transform="translate(61.305 550.43) scale(.1 -.1)">
<use xlink:href="#c"/>
<use x="63.623047" xlink:href="#d"/>
<use x="95.410156" xlink:href="#o"/>
<use x="159.033203" xlink:href="#x"/>
</g>
</g>
<g clip-path="url(#a)">
<g transform="translate(104.43 292.33) scale(.1 -.1)">
<use xlink:href="#c"/>
<use x="63.623047" xlink:href="#d"/>
<use x="95.410156" xlink:href="#o"/>
<use x="159.033203" xlink:href="#w"/>
</g>
</g>
<g clip-path="url(#a)">
<g transform="translate(85.337 550.43) scale(.1 -.1)">
<use xlink:href="#c"/>
<use x="63.623047" xlink:href="#d"/>
<use x="95.410156" xlink:href="#o"/>
<use x="159.033203" xlink:href="#v"/>
</g>
</g>
<g clip-path="url(#a)">
<g transform="translate(123.53 357.17) scale(.1 -.1)">
<use xlink:href="#c"/>
<use x="63.623047" xlink:href="#d"/>
<use x="95.410156" xlink:href="#o"/>
<use x="159.033203" xlink:href="#u"/>
</g>
</g>
<g clip-path="url(#a)">
<g transform="translate(105.94 550.43) scale(.1 -.1)">
<use xlink:href="#c"/>
<use x="63.623047" xlink:href="#d"/>
<use x="95.410156" xlink:href="#o"/>
<use x="159.033203" xlink:href="#ad"/>
</g>
</g>
<g clip-path="url(#a)">
<g transform="translate(129.97 550.43) scale(.1 -.1)">
<use xlink:href="#c"/>
<use x="63.623047" xlink:href="#d"/>
<use x="95.410156" xlink:href="#n"/>
<use x="159.033203" xlink:href="#ae"/>
</g>
</g>
<g clip-path="url(#a)">
<g transform="translate(172.88 421.85) scale(.1 -.1)">
<use xlink:href="#c"/>
<use x="63.623047" xlink:href="#d"/>
<use x="95.410156" xlink:href="#n"/>
<use x="159.033203" xlink:href="#c"/>
</g>
</g>
<g clip-path="url(#a)">
<g transform="translate(172.88 486.31) scale(.1 -.1)">
<use xlink:href="#c"/>
<use x="63.623047" xlink:href="#d"/>
<use x="95.410156" xlink:href="#n"/>
<use x="159.033203" xlink:href="#o"/>
</g>
</g>
<g clip-path="url(#a)">
<g transform="translate(157.43 550.43) scale(.1 -.1)">
<use xlink:href="#c"/>
<use x="63.623047" xlink:href="#d"/>
<use x="95.410156" xlink:href="#n"/>
<use x="159.033203" xlink:href="#n"/>
</g>
</g>
<g clip-path="url(#a)">
<g transform="translate(188.33 550.43) scale(.1 -.1)">
<use xlink:href="#c"/>
<use x="63.623047" xlink:href="#d"/>
<use x="95.410156" xlink:href="#n"/>
<use x="159.033203" xlink:href="#y"/>
</g>
</g>
<g clip-path="url(#a)">
<g transform="translate(222.66 550.43) scale(.1 -.1)">
<use xlink:href="#c"/>
<use x="63.623047" xlink:href="#d"/>
<use x="95.410156" xlink:href="#n"/>
<use x="159.033203" xlink:href="#x"/>
</g>
</g>
<g clip-path="url(#a)">
<g transform="translate(260.42 550.43) scale(.1 -.1)">
<use xlink:href="#c"/>
<use x="63.623047" xlink:href="#d"/>
<use x="95.410156" xlink:href="#n"/>
<use x="159.033203" xlink:href="#w"/>
</g>
</g>
<g clip-path="url(#a)">
<g transform="translate(500.74 550.43) scale(.1 -.1)">
<use xlink:href="#c"/>
<use x="63.623047" xlink:href="#d"/>
<use x="95.410156" xlink:href="#n"/>
<use x="159.033203" xlink:href="#v"/>
</g>
</g>
<g clip-path="url(#a)">
<g transform="translate(559.1 550.43) scale(.1 -.1)">
<use xlink:href="#c"/>
<use x="63.623047" xlink:href="#d"/>
<use x="95.410156" xlink:href="#n"/>
<use x="159.033203" xlink:href="#u"/>
</g>
</g>
<g clip-path="url(#a)">
<g transform="translate(1063.8 550.43) scale(.1 -.1)">
<use xlink:href="#c"/>
<use x="63.623047" xlink:href="#d"/>
<use x="95.410156" xlink:href="#n"/>
<use x="159.033203" xlink:href="#ad"/>
</g>
</g>
<g clip-path="url(#a)">
<g transform="translate(1149.6 550.43) scale(.1 -.1)">
<use xlink:href="#c"/>
<use x="63.623047" xlink:href="#d"/>
<use x="95.410156" xlink:href="#y"/>
<use x="159.033203" xlink:href="#ae"/>
</g>
</g>
<defs>
<clipPath id="a">
<rect width="1216" height="640"/>
</clipPath>
</defs>
</svg>
