<?xml version="1.0" encoding="UTF-8"?>
<!DOCTYPE svg  PUBLIC '-//W3C//DTD SVG 1.1//EN'  'http://www.w3.org/Graphics/SVG/1.1/DTD/svg11.dtd'>
<svg width="1874.7pt" height="986.67pt" version="1.1" viewBox="0 0 1874.7 986.67" xmlns="http://www.w3.org/2000/svg" xmlns:xlink="http://www.w3.org/1999/xlink">
<defs>
<style type="text/css">*{stroke-linecap:butt;stroke-linejoin:round;}</style>
</defs>
<path d="m0 986.67h1874.7v-986.67h-1874.7z" fill="#fff"/>
<g fill="none" stroke="#000">
<path d="m328.53 45.436v109.96" clip-path="url(#a)"/>
<path d="m328.53 155.4-243.17 692.82" clip-path="url(#a)"/>
<path d="m328.53 155.4-148.5 505.5" clip-path="url(#a)"/>
<path d="m328.53 155.4 445.51 106.65" clip-path="url(#a)"/>
<path d="m328.53 155.4-53.84 692.82" clip-path="url(#a)"/>
<path d="m85.37 848.22v93.013" clip-path="url(#a)"/>
<path d="m180.03 660.9-47.331 187.32" clip-path="url(#a)"/>
<path d="m180.03 660.9v187.32" clip-path="url(#a)"/>
<path d="m180.03 660.9 47.331 94.306" clip-path="url(#a)"/>
<path d="m774.04 262.05-205.5 398.85" clip-path="url(#a)"/>
<path d="m774.04 262.05 21.297 586.17" clip-path="url(#a)"/>
<path d="m774.04 262.05 184.2 103.6" clip-path="url(#a)"/>
<path d="m568.54 660.9-187.35 94.306" clip-path="url(#a)"/>
<path d="m568.54 660.9-104.52 187.32" clip-path="url(#a)"/>
<path d="m568.54 660.9-57.192 187.32" clip-path="url(#a)"/>
<path d="m568.54 660.9 37.471 94.306" clip-path="url(#a)"/>
<path d="m568.54 660.9 132.13 187.32" clip-path="url(#a)"/>
<path d="m568.54 660.9 179.46 187.32" clip-path="url(#a)"/>
<path d="m795.34 848.22v93.013" clip-path="url(#a)"/>
<path d="m958.24 365.65-115.57 482.57" clip-path="url(#a)"/>
<path d="m958.24 365.65-68.242 482.57" clip-path="url(#a)"/>
<path d="m958.24 365.65 183.82 100.82" clip-path="url(#a)"/>
<path d="m842.67 848.22v93.013" clip-path="url(#a)"/>
<path d="m890 848.22v93.013" clip-path="url(#a)"/>
<path d="m1142.1 466.46-157.4 381.75" clip-path="url(#a)"/>
<path d="m1142.1 466.46 235.53 98.313" clip-path="url(#a)"/>
<path d="m1142.1 466.46-62.733 381.75" clip-path="url(#a)"/>
<path d="m1142.1 466.46-15.401 381.75" clip-path="url(#a)"/>
<path d="m984.66 848.22-47.331 93.013" clip-path="url(#a)"/>
<path d="m984.66 848.22v93.013" clip-path="url(#a)"/>
<path d="m984.66 848.22 47.331 93.013" clip-path="url(#a)"/>
<path d="m1377.6 564.78-129.22 190.43" clip-path="url(#a)"/>
<path d="m1377.6 564.78 80.388 283.44" clip-path="url(#a)"/>
<path d="m1377.6 564.78 48.834 96.122" clip-path="url(#a)"/>
<path d="m1248.4 755.21-263.7 93.013" clip-path="url(#a)" stroke-dasharray="3.7,1.6"/>
<path d="m1248.4 755.21-74.378 93.013" clip-path="url(#a)"/>
<path d="m1248.4 755.21-27.046 93.013" clip-path="url(#a)"/>
<path d="m1248.4 755.21 20.285 93.013" clip-path="url(#a)"/>
<path d="m1248.4 755.21 67.616 93.013" clip-path="url(#a)"/>
<path d="m1248.4 755.21 114.95 93.013" clip-path="url(#a)"/>
<path d="m1248.4 755.21 162.28 93.013" clip-path="url(#a)"/>
<path d="m1458 848.22v93.013" clip-path="url(#a)"/>
<path d="m1426.4 660.9 220.88 94.306" clip-path="url(#a)"/>
<path d="m1426.4 660.9-205.1 187.32" clip-path="url(#a)" stroke-dasharray="3.7,1.6"/>
<path d="m1426.4 660.9-15.777 187.32" clip-path="url(#a)" stroke-dasharray="3.7,1.6"/>
<path d="m1647.3 755.21-141.99 93.013" clip-path="url(#a)"/>
<path d="m1647.3 755.21-94.663 93.013" clip-path="url(#a)"/>
<path d="m1647.3 755.21-47.331 93.013" clip-path="url(#a)"/>
<path d="m1647.3 755.21v93.013" clip-path="url(#a)"/>
<path d="m1647.3 755.21 47.331 93.013" clip-path="url(#a)"/>
<path d="m1647.3 755.21 94.663 93.013" clip-path="url(#a)"/>
<path d="m1647.3 755.21 141.99 93.013" clip-path="url(#a)"/>
<path d="m1505.3 848.22v93.013" clip-path="url(#a)"/>
<path d="m1552.6 848.22v93.013" clip-path="url(#a)"/>
<path d="m1600 848.22v93.013" clip-path="url(#a)"/>
<path d="m1647.3 848.22v93.013" clip-path="url(#a)"/>
<path d="m1694.6 848.22v93.013" clip-path="url(#a)"/>
<path d="m1174 848.22v93.013" clip-path="url(#a)"/>
<path d="m1221.3 848.22v93.013" clip-path="url(#a)"/>
<path d="m1268.7 848.22v93.013" clip-path="url(#a)"/>
<path d="m1316 848.22v93.013" clip-path="url(#a)"/>
<path d="m1363.3 848.22v93.013" clip-path="url(#a)"/>
<path d="m1410.6 848.22v93.013" clip-path="url(#a)"/>
<path d="m381.19 755.21-35.498 93.013" clip-path="url(#a)"/>
<path d="m381.19 755.21 35.498 93.013" clip-path="url(#a)"/>
<path d="m464.02 848.22v93.013" clip-path="url(#a)"/>
<path d="m511.35 848.22v93.013" clip-path="url(#a)"/>
<path d="m606.01 755.21-47.331 93.013" clip-path="url(#a)"/>
<path d="m606.01 755.21v93.013" clip-path="url(#a)"/>
<path d="m606.01 755.21 47.331 93.013" clip-path="url(#a)"/>
<path d="m700.68 848.22v93.013" clip-path="url(#a)"/>
<path d="m748.01 848.22v93.013" clip-path="url(#a)"/>
<path d="m558.68 848.22v93.013" clip-path="url(#a)"/>
<path d="m606.01 848.22v93.013" clip-path="url(#a)"/>
<path d="m653.35 848.22v93.013" clip-path="url(#a)"/>
<path d="m345.69 848.22-23.666 93.013" clip-path="url(#a)"/>
<path d="m345.69 848.22 23.666 93.013" clip-path="url(#a)"/>
<path d="m416.69 848.22v93.013" clip-path="url(#a)"/>
<path d="m132.7 848.22v93.013" clip-path="url(#a)"/>
<path d="m180.03 848.22v93.013" clip-path="url(#a)"/>
<path d="m227.36 755.21v93.013" clip-path="url(#a)"/>
<path d="m227.36 848.22v93.013" clip-path="url(#a)"/>
<path d="m274.69 848.22v93.013" clip-path="url(#a)"/>
<path d="m1079.3 848.22v93.013" clip-path="url(#a)"/>
<path d="m1126.7 848.22v93.013" clip-path="url(#a)"/>
<path d="m1742 848.22v93.013" clip-path="url(#a)"/>
<path d="m1789.3 848.22v93.013" clip-path="url(#a)"/>
</g>
<path d="m322.26 97.409v6.0162q0 2.4 2.4 2.4h7.7425q2.4 0 2.4-2.4v-6.0162q0-2.4-2.4-2.4h-7.7425q-2.4 0-2.4 2.4z" clip-path="url(#a)" fill="#fff" stroke="#fff"/>
<g clip-path="url(#a)">
<defs>
<path id="y" d="m9.8125 72.906h9.8594v-29.891h35.844v29.891h9.8594v-72.906h-9.8594v34.719h-35.844v-34.719h-9.8594z"/>
</defs>
<g transform="translate(326.33 97.409) rotate(90) scale(.08 -.08)">
<use xlink:href="#y"/>
</g>
</g>
<path d="m212.07 506.16 1.5975-4.5515q0.79482-2.2646-1.4698-3.0594l-7.3056-2.5641q-2.2646-0.79482-3.0594 1.4698l-1.5975 4.5515q-0.79482 2.2646 1.4698 3.0594l7.3056 2.5641q2.2646 0.79482 3.0594-1.4698z" clip-path="url(#a)" fill="#fff" stroke="#fff"/>
<g clip-path="url(#a)">
<defs>
<path id="af" d="m19.672 64.797v-27.391h12.406q6.8906 0 10.641 3.5625 3.7656 3.5625 3.7656 10.156 0 6.5469-3.7656 10.109-3.75 3.5625-10.641 3.5625zm-9.8594 8.1094h22.266q12.266 0 18.531-5.5469 6.2812-5.5469 6.2812-16.234 0-10.797-6.2812-16.312-6.2656-5.5156-18.531-5.5156h-12.406v-29.297h-9.8594z"/>
</defs>
<g transform="translate(208.24 504.82) rotate(-70.66) scale(.08 -.08)">
<use xlink:href="#af"/>
</g>
</g>
<path d="m259.53 412.54 1.5425-5.2506q0.67647-2.3027-1.6262-2.9792l-7.4286-2.1823q-2.3027-0.67647-2.9792 1.6262l-1.5425 5.2506q-0.67647 2.3027 1.6262 2.9792l7.4286 2.1823q2.3027 0.67647 2.9792-1.6262z" clip-path="url(#a)" fill="#fff" stroke="#fff"/>
<g clip-path="url(#a)">
<defs>
<path id="r" d="m34.188 63.188-13.391-36.281h26.812zm-5.5781 9.7188h11.188l27.781-72.906h-10.25l-6.6406 18.703h-32.859l-6.6406-18.703h-10.406z"/>
</defs>
<g transform="translate(255.63 411.4) rotate(-73.629) scale(.08 -.08)">
<use xlink:href="#r"/>
</g>
</g>
<path d="m547.17 214.19 5.3221 1.2741q2.3341 0.55875 2.8928-1.7753l1.8026-7.5297q0.55875-2.3341-1.7753-2.8928l-5.3221-1.2741q-2.3341-0.55875-2.8928 1.7753l-1.8026 7.5297q-0.55875 2.3341 1.7753 2.8928z" clip-path="url(#a)" fill="#fff" stroke="#fff"/>
<g clip-path="url(#a)">
<g transform="translate(548.11 210.23) rotate(13.463) scale(.08 -.08)">
<use xlink:href="#r"/>
</g>
</g>
<path d="m307.64 505.21 0.45363-5.8374q0.18595-2.3928-2.2068-2.5787l-7.7192-0.59987q-2.3928-0.18595-2.5787 2.2068l-0.45363 5.8374q-0.18595 2.3928 2.2068 2.5787l7.7192 0.59987q2.3928 0.18595 2.5787-2.2068z" clip-path="url(#a)" fill="#fff" stroke="#fff"/>
<g clip-path="url(#a)">
<defs>
<path id="x" d="m8.6875 72.906h9.9219v-44.297q0-11.719 4.2344-16.875 4.25-5.1406 13.781-5.1406 9.4688 0 13.719 5.1406 4.25 5.1562 4.25 16.875v44.297h9.9062v-45.516q0-14.25-7.0625-21.531-7.0469-7.2812-20.812-7.2812-13.828 0-20.891 7.2812-7.0469 7.2812-7.0469 21.531z"/>
</defs>
<g transform="translate(303.59 504.9) rotate(-85.556) scale(.08 -.08)">
<use xlink:href="#x"/>
</g>
</g>
<path d="m79.098 877.08v35.285q0 2.4 2.4 2.4h7.7425q2.4 0 2.4-2.4v-35.285q0-2.4-2.4-2.4h-7.7425q-2.4 0-2.4 2.4z" clip-path="url(#a)" fill="#fff" stroke="#fff"/>
<g clip-path="url(#a)">
<defs>
<path id="l" d="m-0.29688 72.906h61.672v-8.3125h-25.875v-64.594h-9.9062v64.594h-25.891z"/>
<path id="d" d="m56.203 29.594v-4.3906h-41.312q0.59375-9.2812 5.5938-14.141t13.938-4.8594q5.1719 0 10.031 1.2656t9.6562 3.8125v-8.5q-4.8438-2.0469-9.9219-3.125t-10.297-1.0781q-13.094 0-20.734 7.6094-7.6406 7.625-7.6406 20.625 0 13.422 7.25 21.297 7.25 7.8906 19.562 7.8906 11.031 0 17.453-7.1094 6.4219-7.0938 6.4219-19.297zm-8.9844 2.6406q-0.09375 7.3594-4.125 11.75-4.0312 4.4062-10.672 4.4062-7.5156 0-12.031-4.25t-5.2031-11.969z"/>
<path id="h" d="m41.109 46.297q-1.5156 0.875-3.2969 1.2812-1.7812 0.42188-3.9219 0.42188-7.625 0-11.703-4.9531t-4.0781-14.234v-28.812h-9.0312v54.688h9.0312v-8.5q2.8438 4.9844 7.375 7.3906 4.5469 2.4219 11.047 2.4219 0.92188 0 2.0469-0.125 1.125-0.10938 2.4844-0.35938z"/>
<path id="k" d="m52 44.188q3.375 6.0625 8.0625 8.9375t11.031 2.875q8.5469 0 13.188-5.9844 4.6406-5.9688 4.6406-17v-33.016h-9.0312v32.719q0 7.8594-2.7969 11.656-2.7812 3.8125-8.4844 3.8125-6.9844 0-11.047-4.6406-4.0469-4.625-4.0469-12.641v-30.906h-9.0312v32.719q0 7.9062-2.7812 11.688t-8.5938 3.7812q-6.8906 0-10.953-4.6562-4.0469-4.6562-4.0469-12.625v-30.906h-9.0312v54.688h9.0312v-8.5q3.0781 5.0312 7.375 7.4219t10.203 2.3906q5.9688 0 10.141-3.0312 4.1719-3.0156 6.1719-8.7812z"/>
<path id="g" d="m9.4219 54.688h8.9844v-54.688h-8.9844zm0 21.297h8.9844v-11.391h-8.9844z"/>
<path id="f" d="m54.891 33.016v-33.016h-8.9844v32.719q0 7.7656-3.0312 11.609-3.0312 3.8594-9.0781 3.8594-7.2812 0-11.484-4.6406-4.2031-4.625-4.2031-12.641v-30.906h-9.0312v54.688h9.0312v-8.5q3.2344 4.9375 7.5938 7.375 4.375 2.4375 10.094 2.4375 9.4219 0 14.25-5.8281 4.8438-5.8281 4.8438-17.156z"/>
<path id="i" d="m34.281 27.484q-10.891 0-15.094-2.4844t-4.2031-8.5q0-4.7812 3.1562-7.5938 3.1562-2.7969 8.5625-2.7969 7.4844 0 12 5.2969t4.5156 14.078v2zm17.922 3.7188v-31.203h-8.9844v8.2969q-3.0781-4.9688-7.6719-7.3438t-11.234-2.375q-8.3906 0-13.359 4.7188-4.9531 4.7188-4.9531 12.625 0 9.2188 6.1719 13.906 6.1875 4.6875 18.438 4.6875h12.609v0.89062q0 6.2031-4.0781 9.5938t-11.453 3.3906q-4.6875 0-9.1406-1.125-4.4375-1.125-8.5312-3.375v8.3125q4.9219 1.9062 9.5625 2.8438 4.6406 0.95312 9.0312 0.95312 11.875 0 17.734-6.1562 5.8594-6.1406 5.8594-18.641z"/>
<path id="j" d="m9.4219 75.984h8.9844v-75.984h-8.9844z"/>
</defs>
<g transform="translate(83.162 877.08) rotate(90) scale(.08 -.08)">
<use xlink:href="#l"/>
<use x="60.818359" xlink:href="#d"/>
<use x="122.341797" xlink:href="#h"/>
<use x="163.439453" xlink:href="#k"/>
<use x="260.851562" xlink:href="#g"/>
<use x="288.634766" xlink:href="#f"/>
<use x="352.013672" xlink:href="#i"/>
<use x="413.292969" xlink:href="#j"/>
</g>
</g>
<path d="m161.77 758.79 1.3618-5.3894q0.58795-2.3269-1.7389-2.9148l-7.5066-1.8967q-2.3269-0.58795-2.9148 1.7389l-1.3618 5.3894q-0.58795 2.3269 1.7389 2.9148l7.5066 1.8967q2.3269 0.58795 2.9148-1.7389z" clip-path="url(#a)" fill="#fff" stroke="#fff"/>
<g clip-path="url(#a)">
<defs>
<path id="v" d="m44.391 34.188q3.1719-1.0781 6.1719-4.5938t6.0312-9.6719l10.016-19.922h-10.609l-9.3125 18.703q-3.625 7.3281-7.0156 9.7188t-9.25 2.3906h-10.75v-30.812h-9.8594v72.906h22.266q12.5 0 18.656-5.2344 6.1562-5.2188 6.1562-15.766 0-6.8906-3.2031-11.438-3.2031-4.5312-9.2969-6.2812zm-24.719 30.609v-25.875h12.406q7.125 0 10.766 3.2969t3.6406 9.6875-3.6406 9.6406-10.766 3.25z"/>
</defs>
<g transform="translate(157.83 757.79) rotate(-75.819) scale(.08 -.08)">
<use xlink:href="#v"/>
</g>
</g>
<path d="m173.76 751.41v6.2975q0 2.4 2.4 2.4h7.7425q2.4 0 2.4-2.4v-6.2975q0-2.4-2.4-2.4h-7.7425q-2.4 0-2.4 2.4z" clip-path="url(#a)" fill="#fff" stroke="#fff"/>
<g clip-path="url(#a)">
<defs>
<path id="aq" d="m39.406 66.219q-10.75 0-17.078-8.0156-6.3125-8-6.3125-21.828 0-13.766 6.3125-21.781 6.3281-8 17.078-8 10.734 0 17.016 8 6.2812 8.0156 6.2812 21.781 0 13.828-6.2812 21.828-6.2812 8.0156-17.016 8.0156zm13.812-64.906 13-14.203h-11.922l-10.797 11.672q-1.6094-0.09375-2.4688-0.14062-0.84375-0.0625-1.625-0.0625-15.375 0-24.594 10.281-9.2031 10.281-9.2031 27.516 0 17.281 9.2031 27.562 9.2188 10.281 24.594 10.281 15.328 0 24.5-10.281 9.1875-10.281 9.1875-27.562 0-12.688-5.1094-21.734-5.0938-9.0312-14.766-13.328z"/>
</defs>
<g transform="translate(177.82 751.41) rotate(90) scale(.08 -.08)">
<use xlink:href="#aq"/>
</g>
</g>
<path d="m196.84 708.37 2.5058 4.9927q1.0766 2.145 3.2216 1.0684l6.9199-3.473q2.145-1.0766 1.0684-3.2216l-2.5058-4.9927q-1.0766-2.145-3.2216-1.0684l-6.9199 3.473q-2.145 1.0766-1.0684 3.2216z" clip-path="url(#a)" fill="#fff" stroke="#fff"/>
<g clip-path="url(#a)">
<defs>
<path id="aa" d="m64.406 67.281v-10.391q-4.9844 4.6406-10.625 6.9219-5.6406 2.2969-11.984 2.2969-12.5 0-19.141-7.6406t-6.6406-22.094q0-14.406 6.6406-22.047t19.141-7.6406q6.3438 0 11.984 2.2969t10.625 6.9375v-10.312q-5.1719-3.5156-10.969-5.2812-5.7812-1.75-12.219-1.75-16.562 0-26.094 10.125-9.5156 10.141-9.5156 27.672 0 17.578 9.5156 27.703 9.5312 10.141 26.094 10.141 6.5312 0 12.312-1.7344 5.7969-1.7344 10.875-5.2031z"/>
</defs>
<g transform="translate(200.47 706.55) rotate(63.348) scale(.08 -.08)">
<use xlink:href="#aa"/>
</g>
</g>
<path d="m675.49 467.02 2.7555-5.3481q1.0992-2.1335-1.0342-3.2327l-6.8827-3.5462q-2.1335-1.0992-3.2327 1.0342l-2.7555 5.3481q-1.0992 2.1335 1.0342 3.2327l6.8827 3.5462q2.1335 1.0992 3.2327-1.0342z" clip-path="url(#a)" fill="#fff" stroke="#fff"/>
<g clip-path="url(#a)">
<g transform="translate(671.88 465.16) rotate(-62.741) scale(.08 -.08)">
<use xlink:href="#y"/>
</g>
</g>
<path d="m778.34 553.13 0.16185 4.4546q0.08714 2.3984 2.4856 2.3113l7.7374-0.28112q2.3984-0.087141 2.3113-2.4856l-0.16185-4.4546q-0.087141-2.3984-2.4856-2.3113l-7.7374 0.28112q-2.3984 0.08714-2.3113 2.4856z" clip-path="url(#a)" fill="#fff" stroke="#fff"/>
<g clip-path="url(#a)">
<defs>
<path id="ar" d="m9.8125 72.906h9.8594v-64.609h35.5v-8.2969h-45.359z"/>
</defs>
<g transform="translate(782.4 552.99) rotate(87.919) scale(.08 -.08)">
<use xlink:href="#ar"/>
</g>
</g>
<path d="m860.45 317.84 5.2438 2.9492q2.0918 1.1765 3.2684-0.91534l3.7955-6.7484q1.1765-2.0918-0.91534-3.2684l-5.2438-2.9492q-2.0918-1.1765-3.2684 0.91534l-3.7955 6.7484q-1.1765 2.0918 0.91534 3.2684z" clip-path="url(#a)" fill="#fff" stroke="#fff"/>
<g clip-path="url(#a)">
<g transform="translate(862.44 314.3) rotate(29.354) scale(.08 -.08)">
<use xlink:href="#y"/>
</g>
</g>
<path d="m475.24 714.88 4.8882-2.4605q2.1437-1.0791 1.0647-3.2228l-3.4811-6.9158q-1.0791-2.1437-3.2228-1.0647l-4.8882 2.4605q-2.1437 1.0791-1.0647 3.2228l3.4811 6.9158q1.0791 2.1437 3.2228 1.0647z" clip-path="url(#a)" fill="#fff" stroke="#fff"/>
<g clip-path="url(#a)">
<g transform="translate(473.42 711.25) rotate(-26.719) scale(.08 -.08)">
<use xlink:href="#r"/>
</g>
</g>
<path d="m520.26 760.3 3.0016-5.3792q1.1695-2.0958-0.92635-3.2653l-6.7611-3.7727q-2.0958-1.1695-3.2653 0.92635l-3.0016 5.3792q-1.1694 2.0958 0.92635 3.2653l6.7611 3.7727q2.0958 1.1695 3.2653-0.92635z" clip-path="url(#a)" fill="#fff" stroke="#fff"/>
<g clip-path="url(#a)">
<defs>
<path id="ai" d="m19.672 64.797v-56.688h11.922q15.094 0 22.094 6.8281 7 6.8438 7 21.594 0 14.641-7 21.453t-22.094 6.8125zm-9.8594 8.1094h20.266q21.188 0 31.094-8.8125 9.9219-8.8125 9.9219-27.562 0-18.859-9.9688-27.703-9.9531-8.8281-31.047-8.8281h-20.266z"/>
</defs>
<g transform="translate(516.71 758.32) rotate(-60.839) scale(.08 -.08)">
<use xlink:href="#ai"/>
</g>
</g>
<path d="m545.24 758.7 1.4086-4.6135q0.70083-2.2954-1.5946-2.9962l-7.405-2.2609q-2.2954-0.70083-2.9962 1.5946l-1.4086 4.6135q-0.70083 2.2954 1.5946 2.9962l7.405 2.2609q2.2954 0.70083 2.9962-1.5946z" clip-path="url(#a)" fill="#fff" stroke="#fff"/>
<g clip-path="url(#a)">
<g transform="translate(541.35 757.51) rotate(-73.022) scale(.08 -.08)">
<use xlink:href="#af"/>
</g>
</g>
<path d="m580.44 707.82 2.0207 5.0858q0.8862 2.2304 3.1166 1.3442l7.1953-2.8589q2.2304-0.8862 1.3442-3.1166l-2.0207-5.0858q-0.8862-2.2304-3.1166-1.3442l-7.1953 2.8589q-2.2304 0.8862-1.3442 3.1166z" clip-path="url(#a)" fill="#fff" stroke="#fff"/>
<g clip-path="url(#a)">
<g transform="translate(584.22 706.32) rotate(68.331) scale(.08 -.08)">
<use xlink:href="#r"/>
</g>
</g>
<path d="m628.16 756.29 2.6522 3.7599q1.3834 1.9612 3.3446 0.57778l6.3268-4.4629q1.9612-1.3834 0.57778-3.3446l-2.6522-3.7599q-1.3834-1.9612-3.3446-0.57778l-6.3268 4.4629q-1.9612 1.3834-0.57778 3.3446z" clip-path="url(#a)" fill="#fff" stroke="#fff"/>
<g clip-path="url(#a)">
<defs>
<path id="z" d="m9.8125 72.906h41.891v-8.3125h-32.031v-21.484h28.906v-8.2969h-28.906v-34.812h-9.8594z"/>
</defs>
<g transform="translate(631.48 753.95) rotate(54.801) scale(.08 -.08)">
<use xlink:href="#z"/>
</g>
</g>
<path d="m651.62 756.67 4.2615 4.448q1.6603 1.733 3.3933 0.072665l5.5907-5.3563q1.733-1.6603 0.072665-3.3933l-4.2615-4.448q-1.6603-1.733-3.3933-0.072665l-5.5907 5.3563q-1.733 1.6603-0.072665 3.3933z" clip-path="url(#a)" fill="#fff" stroke="#fff"/>
<g clip-path="url(#a)">
<g transform="translate(654.55 753.86) rotate(46.227) scale(.08 -.08)">
<use xlink:href="#ai"/>
</g>
</g>
<path d="m789.07 877.08v35.285q0 2.4 2.4 2.4h7.7425q2.4 0 2.4-2.4v-35.285q0-2.4-2.4-2.4h-7.7425q-2.4 0-2.4 2.4z" clip-path="url(#a)" fill="#fff" stroke="#fff"/>
<g clip-path="url(#a)">
<g transform="translate(793.13 877.08) rotate(90) scale(.08 -.08)">
<use xlink:href="#l"/>
<use x="60.818359" xlink:href="#d"/>
<use x="122.341797" xlink:href="#h"/>
<use x="163.439453" xlink:href="#k"/>
<use x="260.851562" xlink:href="#g"/>
<use x="288.634766" xlink:href="#f"/>
<use x="352.013672" xlink:href="#i"/>
<use x="413.292969" xlink:href="#j"/>
</g>
</g>
<path d="m905.92 611.06 1.2746-5.322q0.55898-2.334-1.775-2.893l-7.5296-1.8033q-2.334-0.55898-2.893 1.775l-1.2746 5.322q-0.55898 2.334 1.775 2.893l7.5296 1.8033q2.334 0.55898 2.893-1.775z" clip-path="url(#a)" fill="#fff" stroke="#fff"/>
<g clip-path="url(#a)">
<g transform="translate(901.97 610.11) rotate(-76.532) scale(.08 -.08)">
<use xlink:href="#r"/>
</g>
</g>
<path d="m929.99 610.2 0.67543-4.7762q0.33605-2.3764-2.0403-2.7124l-7.6662-1.0841q-2.3764-0.33605-2.7124 2.0403l-0.67543 4.7762q-0.33605 2.3764 2.0403 2.7124l7.6662 1.0841q2.3764 0.33605 2.7124-2.0403z" clip-path="url(#a)" fill="#fff" stroke="#fff"/>
<g clip-path="url(#a)">
<g transform="translate(925.97 609.63) rotate(-81.951) scale(.08 -.08)">
<use xlink:href="#af"/>
</g>
</g>
<path d="m1044.7 420.24 4.7982 2.6316q2.1043 1.1541 3.2584-0.95018l3.7232-6.7885q1.1541-2.1043-0.95018-3.2584l-4.7982-2.6316q-2.1043-1.1541-3.2584 0.95018l-3.7232 6.7885q-1.1541 2.1043 0.95018 3.2584z" clip-path="url(#a)" fill="#fff" stroke="#fff"/>
<g clip-path="url(#a)">
<g transform="translate(1046.7 416.68) rotate(28.743) scale(.08 -.08)">
<use xlink:href="#r"/>
</g>
</g>
<path d="m836.4 877.08v35.285q0 2.4 2.4 2.4h7.7425q2.4 0 2.4-2.4v-35.285q0-2.4-2.4-2.4h-7.7425q-2.4 0-2.4 2.4z" clip-path="url(#a)" fill="#fff" stroke="#fff"/>
<g clip-path="url(#a)">
<g transform="translate(840.46 877.08) rotate(90) scale(.08 -.08)">
<use xlink:href="#l"/>
<use x="60.818359" xlink:href="#d"/>
<use x="122.341797" xlink:href="#h"/>
<use x="163.439453" xlink:href="#k"/>
<use x="260.851562" xlink:href="#g"/>
<use x="288.634766" xlink:href="#f"/>
<use x="352.013672" xlink:href="#i"/>
<use x="413.292969" xlink:href="#j"/>
</g>
</g>
<path d="m883.73 877.08v35.285q0 2.4 2.4 2.4h7.7425q2.4 0 2.4-2.4v-35.285q0-2.4-2.4-2.4h-7.7425q-2.4 0-2.4 2.4z" clip-path="url(#a)" fill="#fff" stroke="#fff"/>
<g clip-path="url(#a)">
<g transform="translate(887.79 877.08) rotate(90) scale(.08 -.08)">
<use xlink:href="#l"/>
<use x="60.818359" xlink:href="#d"/>
<use x="122.341797" xlink:href="#h"/>
<use x="163.439453" xlink:href="#k"/>
<use x="260.851562" xlink:href="#g"/>
<use x="288.634766" xlink:href="#f"/>
<use x="352.013672" xlink:href="#i"/>
<use x="413.292969" xlink:href="#j"/>
</g>
</g>
<path d="m1068.1 662.31 2.1293-5.1645q0.91481-2.2188-1.304-3.1336l-7.158-2.9512q-2.2188-0.91481-3.1336 1.304l-2.1293 5.1645q-0.91481 2.2188 1.304 3.1336l7.158 2.9512q2.2188 0.91481 3.1336-1.304z" clip-path="url(#a)" fill="#fff" stroke="#fff"/>
<g clip-path="url(#a)">
<g transform="translate(1064.3 660.76) rotate(-67.594) scale(.08 -.08)">
<use xlink:href="#aa"/>
</g>
</g>
<path d="m1255.1 520.43 4.6649 1.9472q2.2148 0.92448 3.1393-1.2903l2.9824-7.145q0.92448-2.2148-1.2903-3.1393l-4.6649-1.9472q-2.2148-0.92448-3.1393 1.2903l-2.9824 7.145q-0.92448 2.2148 1.2903 3.1393z" clip-path="url(#a)" fill="#fff" stroke="#fff"/>
<g clip-path="url(#a)">
<defs>
<path id="at" d="m9.8125 72.906h46.094v-8.3125h-36.234v-21.578h34.719v-8.2969h-34.719v-26.422h37.109v-8.2969h-46.969z"/>
</defs>
<g transform="translate(1256.6 516.68) rotate(22.656) scale(.08 -.08)">
<use xlink:href="#at"/>
</g>
</g>
<path d="m1116.4 661.25 0.94941-5.7775q0.38917-2.3682-1.9791-2.7574l-7.64-1.2555q-2.3682-0.38917-2.7574 1.9791l-0.94941 5.7775q-0.38917 2.3682 1.9791 2.7574l7.64 1.2555q2.3682 0.38917 2.7574-1.9791z" clip-path="url(#a)" fill="#fff" stroke="#fff"/>
<g clip-path="url(#a)">
<g transform="translate(1112.4 660.59) rotate(-80.668) scale(.08 -.08)">
<use xlink:href="#x"/>
</g>
</g>
<path d="m1140.5 660.52 0.23602-5.8502q0.096746-2.398-2.3013-2.4948l-7.7362-0.31211q-2.398-0.096747-2.4948 2.3013l-0.23602 5.8502q-0.096747 2.398 2.3013 2.4948l7.7362 0.31211q2.398 0.096746 2.4948-2.3013z" clip-path="url(#a)" fill="#fff" stroke="#fff"/>
<g clip-path="url(#a)">
<g transform="translate(1136.4 660.36) rotate(-87.69) scale(.08 -.08)">
<use xlink:href="#x"/>
</g>
</g>
<path d="m958.59 913.29 16.003-31.447q1.0885-2.139-1.0505-3.2274l-6.9004-3.5114q-2.139-1.0885-3.2274 1.0505l-16.003 31.447q-1.0885 2.139 1.0505 3.2274l6.9004 3.5114q2.139 1.0885 3.2274-1.0505z" clip-path="url(#a)" fill="#fff" stroke="#fff"/>
<g clip-path="url(#a)">
<g transform="translate(954.97 911.45) rotate(-63.03) scale(.08 -.08)">
<use xlink:href="#l"/>
<use x="60.818359" xlink:href="#d"/>
<use x="122.341797" xlink:href="#h"/>
<use x="163.439453" xlink:href="#k"/>
<use x="260.851562" xlink:href="#g"/>
<use x="288.634766" xlink:href="#f"/>
<use x="352.013672" xlink:href="#i"/>
<use x="413.292969" xlink:href="#j"/>
</g>
</g>
<path d="m978.39 877.08v35.285q0 2.4 2.4 2.4h7.7425q2.4 0 2.4-2.4v-35.285q0-2.4-2.4-2.4h-7.7425q-2.4 0-2.4 2.4z" clip-path="url(#a)" fill="#fff" stroke="#fff"/>
<g clip-path="url(#a)">
<g transform="translate(982.46 877.08) rotate(90) scale(.08 -.08)">
<use xlink:href="#l"/>
<use x="60.818359" xlink:href="#d"/>
<use x="122.341797" xlink:href="#h"/>
<use x="163.439453" xlink:href="#k"/>
<use x="260.851562" xlink:href="#g"/>
<use x="288.634766" xlink:href="#f"/>
<use x="352.013672" xlink:href="#i"/>
<use x="413.292969" xlink:href="#j"/>
</g>
</g>
<path d="m994.74 881.84 16.003 31.447q1.0885 2.139 3.2274 1.0505l6.9004-3.5114q2.139-1.0885 1.0505-3.2274l-16.003-31.447q-1.0885-2.139-3.2274-1.0505l-6.9004 3.5114q-2.139 1.0885-1.0505 3.2274z" clip-path="url(#a)" fill="#fff" stroke="#fff"/>
<g clip-path="url(#a)">
<g transform="translate(998.36 880) rotate(63.03) scale(.08 -.08)">
<use xlink:href="#l"/>
<use x="60.818359" xlink:href="#d"/>
<use x="122.341797" xlink:href="#h"/>
<use x="163.439453" xlink:href="#k"/>
<use x="260.851562" xlink:href="#g"/>
<use x="288.634766" xlink:href="#f"/>
<use x="352.013672" xlink:href="#i"/>
<use x="413.292969" xlink:href="#j"/>
</g>
</g>
<path d="m1316.5 666 3.3782-4.9783q1.3476-1.9859-0.63831-3.3336l-6.4067-4.3475q-1.9859-1.3476-3.3336 0.63831l-3.3782 4.9783q-1.3476 1.9859 0.63831 3.3336l6.4067 4.3475q1.9859 1.3476 3.3336-0.63831z" clip-path="url(#a)" fill="#fff" stroke="#fff"/>
<g clip-path="url(#a)">
<g transform="translate(1313.1 663.72) rotate(-55.84) scale(.08 -.08)">
<use xlink:href="#y"/>
</g>
</g>
<path d="m1411.1 706.06 1.2162 4.2884q0.65485 2.3089 2.9638 1.6541l7.4487-2.1126q2.3089-0.65485 1.6541-2.9638l-1.2162-4.2884q-0.65485-2.3089-2.9638-1.6541l-7.4487 2.1126q-2.3089 0.65485-1.6541 2.9638z" clip-path="url(#a)" fill="#fff" stroke="#fff"/>
<g clip-path="url(#a)">
<g transform="translate(1415.1 704.96) rotate(74.166) scale(.08 -.08)">
<use xlink:href="#ar"/>
</g>
</g>
<path d="m1395.1 613 2.725 5.3637q1.0871 2.1397 3.2268 1.0526l6.9028-3.5069q2.1397-1.0871 1.0526-3.2268l-2.725-5.3637q-1.0871-2.1397-3.2268-1.0526l-6.9028 3.5069q-2.1397 1.0871-1.0526 3.2268z" clip-path="url(#a)" fill="#fff" stroke="#fff"/>
<g clip-path="url(#a)">
<g transform="translate(1398.7 611.16) rotate(63.068) scale(.08 -.08)">
<use xlink:href="#y"/>
</g>
</g>
<path d="m1116 808.54 5.1609-1.8203q2.2633-0.79832 1.465-3.0617l-2.5754-7.3016q-0.79832-2.2633-3.0617-1.465l-5.1609 1.8203q-2.2633 0.79832-1.465 3.0617l2.5754 7.3016q0.79832 2.2633 3.0617 1.465z" clip-path="url(#a)" fill="#fff" stroke="#fff"/>
<g clip-path="url(#a)">
<g transform="translate(1114.7 804.7) rotate(-19.429) scale(.08 -.08)">
<use xlink:href="#r"/>
</g>
</g>
<path d="m1214.3 807.8 3.4716-4.3414q1.4989-1.8744-0.37553-3.3733l-6.0469-4.8354q-1.8744-1.4989-3.3733 0.37553l-3.4716 4.3414q-1.4989 1.8744 0.37553 3.3733l6.0469 4.8354q1.8744 1.4989 3.3733-0.37553z" clip-path="url(#a)" fill="#fff" stroke="#fff"/>
<g clip-path="url(#a)">
<g transform="translate(1211.2 805.26) rotate(-51.352) scale(.08 -.08)">
<use xlink:href="#v"/>
</g>
</g>
<path d="m1240 806.44 1.7308-5.9522q0.67012-2.3045-1.6344-2.9747l-7.4346-2.1618q-2.3045-0.67012-2.9747 1.6344l-1.7308 5.9522q-0.67012 2.3045 1.6344 2.9747l7.4346 2.1618q2.3045 0.67012 2.9747-1.6344z" clip-path="url(#a)" fill="#fff" stroke="#fff"/>
<g clip-path="url(#a)">
<defs>
<path id="as" d="m59.516 10.406v19.578h-16.109v8.1094h25.875v-31.312q-5.7031-4.0469-12.594-6.125-6.875-2.0781-14.688-2.0781-17.094 0-26.75 9.9844-9.6406 10-9.6406 27.812 0 17.875 9.6406 27.859 9.6562 9.9844 26.75 9.9844 7.125 0 13.547-1.7656 6.4219-1.75 11.844-5.1719v-10.5q-5.4688 4.6406-11.625 6.9844t-12.938 2.3438q-13.391 0-20.109-7.4688-6.7031-7.4688-6.7031-22.266 0-14.75 6.7031-22.219 6.7188-7.4688 20.109-7.4688 5.2188 0 9.3125 0.90625 4.1094 0.90625 7.375 2.8125z"/>
</defs>
<g transform="translate(1236.1 805.3) rotate(-73.786) scale(.08 -.08)">
<use xlink:href="#as"/>
</g>
</g>
<path d="m1251.9 800.8 0.98043 4.4956q0.51139 2.3449 2.8563 1.8335l7.5647-1.6498q2.3449-0.51139 1.8335-2.8563l-0.98043-4.4956q-0.51139-2.3449-2.8563-1.8335l-7.5647 1.6498q-2.3449 0.51139-1.8335 2.8563z" clip-path="url(#a)" fill="#fff" stroke="#fff"/>
<g clip-path="url(#a)">
<g transform="translate(1255.9 799.93) rotate(77.697) scale(.08 -.08)">
<use xlink:href="#z"/>
</g>
</g>
<path d="m1275.8 803.54 2.7056 3.7218q1.4112 1.9413 3.3525 0.53004l6.2626-4.5526q1.9413-1.4112 0.53004-3.3525l-2.7056-3.7218q-1.4112-1.9413-3.3525-0.53004l-6.2626 4.5526q-1.9413 1.4112-0.53005 3.3525z" clip-path="url(#a)" fill="#fff" stroke="#fff"/>
<g clip-path="url(#a)">
<g transform="translate(1279 801.15) rotate(53.984) scale(.08 -.08)">
<use xlink:href="#z"/>
</g>
</g>
<path d="m1299.5 804.65 4.7886 3.8748q1.8657 1.5097 3.3754-0.35602l4.8703-6.0188q1.5097-1.8657-0.35602-3.3754l-4.7886-3.8748q-1.8657-1.5097-3.3754 0.35603l-4.8703 6.0188q-1.5097 1.8657 0.35603 3.3754z" clip-path="url(#a)" fill="#fff" stroke="#fff"/>
<g clip-path="url(#a)">
<g transform="translate(1302.1 801.49) rotate(38.979) scale(.08 -.08)">
<use xlink:href="#ai"/>
</g>
</g>
<path d="m1324.2 805.89 4.4063 2.5255q2.0822 1.1935 3.2757-0.88877l3.8501-6.7173q1.1935-2.0822-0.88877-3.2757l-4.4063-2.5255q-2.0822-1.1935-3.2757 0.88877l-3.8501 6.7173q-1.1935 2.0822 0.88877 3.2757z" clip-path="url(#a)" fill="#fff" stroke="#fff"/>
<g clip-path="url(#a)">
<defs>
<path id="ap" d="m53.516 70.516v-9.625q-5.6094 2.6875-10.594 4-4.9844 1.3281-9.625 1.3281-8.0469 0-12.422-3.125t-4.375-8.8906q0-4.8438 2.9062-7.3125 2.9062-2.4531 11.016-3.9688l5.9531-1.2188q11.031-2.1094 16.281-7.4062t5.25-14.172q0-10.609-7.1094-16.078-7.0938-5.4688-20.812-5.4688-5.1719 0-11.016 1.1719-5.8281 1.1719-12.078 3.4688v10.156q6-3.3594 11.766-5.0781 5.7656-1.7031 11.328-1.7031 8.4375 0 13.031 3.3125 4.5938 3.3281 4.5938 9.4844 0 5.3594-3.2969 8.3906t-10.812 4.5469l-6.0156 1.1719q-11.031 2.1875-15.969 6.875-4.9219 4.6875-4.9219 13.047 0 9.6719 6.8125 15.234t18.766 5.5625q5.1406 0 10.453-0.9375 5.3281-0.92188 10.891-2.7656z"/>
</defs>
<g transform="translate(1326.2 802.36) rotate(29.82) scale(.08 -.08)">
<use xlink:href="#ap"/>
</g>
</g>
<path d="m1451.7 877.08v35.285q0 2.4 2.4 2.4h7.7425q2.4 0 2.4-2.4v-35.285q0-2.4-2.4-2.4h-7.7425q-2.4 0-2.4 2.4z" clip-path="url(#a)" fill="#fff" stroke="#fff"/>
<g clip-path="url(#a)">
<g transform="translate(1455.8 877.08) rotate(90) scale(.08 -.08)">
<use xlink:href="#l"/>
<use x="60.818359" xlink:href="#d"/>
<use x="122.341797" xlink:href="#h"/>
<use x="163.439453" xlink:href="#k"/>
<use x="260.851562" xlink:href="#g"/>
<use x="288.634766" xlink:href="#f"/>
<use x="352.013672" xlink:href="#i"/>
<use x="413.292969" xlink:href="#j"/>
</g>
</g>
<path d="m1531.9 712.75 5.033 2.1489q2.2072 0.9424 3.1496-1.2648l3.0402-7.1206q0.9424-2.2072-1.2648-3.1496l-5.033-2.1489q-2.2072-0.9424-3.1496 1.2648l-3.0402 7.1206q-0.9424 2.2072 1.2648 3.1496z" clip-path="url(#a)" fill="#fff" stroke="#fff"/>
<g clip-path="url(#a)">
<g transform="translate(1533.5 709.01) rotate(23.12) scale(.08 -.08)">
<use xlink:href="#r"/>
</g>
</g>
<path d="m1325.8 761.28 4.5771-4.1803q1.7721-1.6185 0.15365-3.3906l-5.2213-5.717q-1.6185-1.7721-3.3906-0.15365l-4.5771 4.1803q-1.7721 1.6185-0.15365 3.3906l5.2213 5.717q1.6185 1.7721 3.3906 0.15365z" clip-path="url(#a)" fill="#fff" stroke="#fff"/>
<g clip-path="url(#a)">
<g transform="translate(1323.1 758.28) rotate(-42.405) scale(.08 -.08)">
<use xlink:href="#as"/>
</g>
</g>
<path d="m1424.6 757.62 0.42625-5.0608q0.20143-2.3915-2.1901-2.593l-7.7152-0.64982q-2.3915-0.20143-2.593 2.1901l-0.42625 5.0608q-0.20143 2.3915 2.1901 2.593l7.7152 0.64982q2.3915 0.20143 2.593-2.1901z" clip-path="url(#a)" fill="#fff" stroke="#fff"/>
<g clip-path="url(#a)">
<g transform="translate(1420.5 757.27) rotate(-85.186) scale(.08 -.08)">
<use xlink:href="#ap"/>
</g>
</g>
<path d="m1577.1 808.68 5.2679-3.4507q2.0076-1.3151 0.69254-3.3227l-4.2425-6.4767q-1.3151-2.0076-3.3227-0.69254l-5.2679 3.4507q-2.0076 1.3151-0.69254 3.3227l4.2425 6.4767q1.3151 2.0076 3.3227 0.69254z" clip-path="url(#a)" fill="#fff" stroke="#fff"/>
<g clip-path="url(#a)">
<g transform="translate(1574.9 805.28) rotate(-33.227) scale(.08 -.08)">
<use xlink:href="#aq"/>
</g>
</g>
<path d="m1602.4 808.13 3.965-3.8959q1.7119-1.6821 0.029842-3.394l-5.4264-5.5227q-1.6821-1.7119-3.394-0.029841l-3.965 3.8959q-1.7119 1.6821-0.029842 3.394l5.4264 5.5227q1.6821 1.7119 3.394 0.029842z" clip-path="url(#a)" fill="#fff" stroke="#fff"/>
<g clip-path="url(#a)">
<g transform="translate(1599.5 805.23) rotate(-44.496) scale(.08 -.08)">
<use xlink:href="#v"/>
</g>
</g>
<path d="m1628.2 806.61 2.0868-4.1008q1.0885-2.139-1.0505-3.2274l-6.9004-3.5114q-2.139-1.0885-3.2274 1.0505l-2.0868 4.1008q-1.0885 2.139 1.0505 3.2274l6.9004 3.5114q2.139 1.0885 3.2274-1.0505z" clip-path="url(#a)" fill="#fff" stroke="#fff"/>
<g clip-path="url(#a)">
<g transform="translate(1624.6 804.76) rotate(-63.03) scale(.08 -.08)">
<use xlink:href="#z"/>
</g>
</g>
<path d="m1641 799.18v5.055q0 2.4 2.4 2.4h7.7425q2.4 0 2.4-2.4v-5.055q0-2.4-2.4-2.4h-7.7425q-2.4 0-2.4 2.4z" clip-path="url(#a)" fill="#fff" stroke="#fff"/>
<g clip-path="url(#a)">
<g transform="translate(1645.1 799.18) rotate(90) scale(.08 -.08)">
<use xlink:href="#at"/>
</g>
</g>
<path d="m1664.1 802.07 2.5335 4.9787q1.0885 2.139 3.2274 1.0505l6.9004-3.5114q2.139-1.0885 1.0505-3.2274l-2.5335-4.9787q-1.0885-2.139-3.2274-1.0505l-6.9004 3.5114q-2.139 1.0885-1.0505 3.2274z" clip-path="url(#a)" fill="#fff" stroke="#fff"/>
<g clip-path="url(#a)">
<g transform="translate(1667.7 800.22) rotate(63.03) scale(.08 -.08)">
<use xlink:href="#aa"/>
</g>
</g>
<path d="m1688.2 804.13 4.1764 4.1036q1.7119 1.6821 3.394-0.029842l5.4264-5.5227q1.6821-1.7119-0.029842-3.394l-4.1764-4.1035q-1.7119-1.6821-3.394 0.029841l-5.4264 5.5227q-1.6821 1.7119 0.029842 3.394z" clip-path="url(#a)" fill="#fff" stroke="#fff"/>
<g clip-path="url(#a)">
<g transform="translate(1691 801.23) rotate(44.496) scale(.08 -.08)">
<use xlink:href="#x"/>
</g>
</g>
<path d="m1712.4 805.35 4.8978 3.2083q2.0076 1.3151 3.3227-0.69254l4.2425-6.4767q1.3151-2.0076-0.69254-3.3227l-4.8978-3.2083q-2.0076-1.3151-3.3227 0.69254l-4.2425 6.4767q-1.3151 2.0076 0.69254 3.3227z" clip-path="url(#a)" fill="#fff" stroke="#fff"/>
<g clip-path="url(#a)">
<g transform="translate(1714.6 801.95) rotate(33.227) scale(.08 -.08)">
<use xlink:href="#x"/>
</g>
</g>
<path d="m1499 877.08v35.285q0 2.4 2.4 2.4h7.7425q2.4 0 2.4-2.4v-35.285q0-2.4-2.4-2.4h-7.7425q-2.4 0-2.4 2.4z" clip-path="url(#a)" fill="#fff" stroke="#fff"/>
<g clip-path="url(#a)">
<g transform="translate(1503.1 877.08) rotate(90) scale(.08 -.08)">
<use xlink:href="#l"/>
<use x="60.818359" xlink:href="#d"/>
<use x="122.341797" xlink:href="#h"/>
<use x="163.439453" xlink:href="#k"/>
<use x="260.851562" xlink:href="#g"/>
<use x="288.634766" xlink:href="#f"/>
<use x="352.013672" xlink:href="#i"/>
<use x="413.292969" xlink:href="#j"/>
</g>
</g>
<path d="m1546.4 877.08v35.285q0 2.4 2.4 2.4h7.7425q2.4 0 2.4-2.4v-35.285q0-2.4-2.4-2.4h-7.7425q-2.4 0-2.4 2.4z" clip-path="url(#a)" fill="#fff" stroke="#fff"/>
<g clip-path="url(#a)">
<g transform="translate(1550.4 877.08) rotate(90) scale(.08 -.08)">
<use xlink:href="#l"/>
<use x="60.818359" xlink:href="#d"/>
<use x="122.341797" xlink:href="#h"/>
<use x="163.439453" xlink:href="#k"/>
<use x="260.851562" xlink:href="#g"/>
<use x="288.634766" xlink:href="#f"/>
<use x="352.013672" xlink:href="#i"/>
<use x="413.292969" xlink:href="#j"/>
</g>
</g>
<path d="m1593.7 877.08v35.285q0 2.4 2.4 2.4h7.7425q2.4 0 2.4-2.4v-35.285q0-2.4-2.4-2.4h-7.7425q-2.4 0-2.4 2.4z" clip-path="url(#a)" fill="#fff" stroke="#fff"/>
<g clip-path="url(#a)">
<g transform="translate(1597.8 877.08) rotate(90) scale(.08 -.08)">
<use xlink:href="#l"/>
<use x="60.818359" xlink:href="#d"/>
<use x="122.341797" xlink:href="#h"/>
<use x="163.439453" xlink:href="#k"/>
<use x="260.851562" xlink:href="#g"/>
<use x="288.634766" xlink:href="#f"/>
<use x="352.013672" xlink:href="#i"/>
<use x="413.292969" xlink:href="#j"/>
</g>
</g>
<path d="m1641 877.08v35.285q0 2.4 2.4 2.4h7.7425q2.4 0 2.4-2.4v-35.285q0-2.4-2.4-2.4h-7.7425q-2.4 0-2.4 2.4z" clip-path="url(#a)" fill="#fff" stroke="#fff"/>
<g clip-path="url(#a)">
<g transform="translate(1645.1 877.08) rotate(90) scale(.08 -.08)">
<use xlink:href="#l"/>
<use x="60.818359" xlink:href="#d"/>
<use x="122.341797" xlink:href="#h"/>
<use x="163.439453" xlink:href="#k"/>
<use x="260.851562" xlink:href="#g"/>
<use x="288.634766" xlink:href="#f"/>
<use x="352.013672" xlink:href="#i"/>
<use x="413.292969" xlink:href="#j"/>
</g>
</g>
<path d="m1688.4 877.08v35.285q0 2.4 2.4 2.4h7.7425q2.4 0 2.4-2.4v-35.285q0-2.4-2.4-2.4h-7.7425q-2.4 0-2.4 2.4z" clip-path="url(#a)" fill="#fff" stroke="#fff"/>
<g clip-path="url(#a)">
<g transform="translate(1692.4 877.08) rotate(90) scale(.08 -.08)">
<use xlink:href="#l"/>
<use x="60.818359" xlink:href="#d"/>
<use x="122.341797" xlink:href="#h"/>
<use x="163.439453" xlink:href="#k"/>
<use x="260.851562" xlink:href="#g"/>
<use x="288.634766" xlink:href="#f"/>
<use x="352.013672" xlink:href="#i"/>
<use x="413.292969" xlink:href="#j"/>
</g>
</g>
<path d="m1167.7 877.08v35.285q0 2.4 2.4 2.4h7.7425q2.4 0 2.4-2.4v-35.285q0-2.4-2.4-2.4h-7.7425q-2.4 0-2.4 2.4z" clip-path="url(#a)" fill="#fff" stroke="#fff"/>
<g clip-path="url(#a)">
<g transform="translate(1171.8 877.08) rotate(90) scale(.08 -.08)">
<use xlink:href="#l"/>
<use x="60.818359" xlink:href="#d"/>
<use x="122.341797" xlink:href="#h"/>
<use x="163.439453" xlink:href="#k"/>
<use x="260.851562" xlink:href="#g"/>
<use x="288.634766" xlink:href="#f"/>
<use x="352.013672" xlink:href="#i"/>
<use x="413.292969" xlink:href="#j"/>
</g>
</g>
<path d="m1215.1 877.08v35.285q0 2.4 2.4 2.4h7.7425q2.4 0 2.4-2.4v-35.285q0-2.4-2.4-2.4h-7.7425q-2.4 0-2.4 2.4z" clip-path="url(#a)" fill="#fff" stroke="#fff"/>
<g clip-path="url(#a)">
<g transform="translate(1219.1 877.08) rotate(90) scale(.08 -.08)">
<use xlink:href="#l"/>
<use x="60.818359" xlink:href="#d"/>
<use x="122.341797" xlink:href="#h"/>
<use x="163.439453" xlink:href="#k"/>
<use x="260.851562" xlink:href="#g"/>
<use x="288.634766" xlink:href="#f"/>
<use x="352.013672" xlink:href="#i"/>
<use x="413.292969" xlink:href="#j"/>
</g>
</g>
<path d="m1262.4 877.08v35.285q0 2.4 2.4 2.4h7.7425q2.4 0 2.4-2.4v-35.285q0-2.4-2.4-2.4h-7.7425q-2.4 0-2.4 2.4z" clip-path="url(#a)" fill="#fff" stroke="#fff"/>
<g clip-path="url(#a)">
<g transform="translate(1266.4 877.08) rotate(90) scale(.08 -.08)">
<use xlink:href="#l"/>
<use x="60.818359" xlink:href="#d"/>
<use x="122.341797" xlink:href="#h"/>
<use x="163.439453" xlink:href="#k"/>
<use x="260.851562" xlink:href="#g"/>
<use x="288.634766" xlink:href="#f"/>
<use x="352.013672" xlink:href="#i"/>
<use x="413.292969" xlink:href="#j"/>
</g>
</g>
<path d="m1309.7 877.08v35.285q0 2.4 2.4 2.4h7.7425q2.4 0 2.4-2.4v-35.285q0-2.4-2.4-2.4h-7.7425q-2.4 0-2.4 2.4z" clip-path="url(#a)" fill="#fff" stroke="#fff"/>
<g clip-path="url(#a)">
<g transform="translate(1313.8 877.08) rotate(90) scale(.08 -.08)">
<use xlink:href="#l"/>
<use x="60.818359" xlink:href="#d"/>
<use x="122.341797" xlink:href="#h"/>
<use x="163.439453" xlink:href="#k"/>
<use x="260.851562" xlink:href="#g"/>
<use x="288.634766" xlink:href="#f"/>
<use x="352.013672" xlink:href="#i"/>
<use x="413.292969" xlink:href="#j"/>
</g>
</g>
<path d="m1357 877.08v35.285q0 2.4 2.4 2.4h7.7425q2.4 0 2.4-2.4v-35.285q0-2.4-2.4-2.4h-7.7425q-2.4 0-2.4 2.4z" clip-path="url(#a)" fill="#fff" stroke="#fff"/>
<g clip-path="url(#a)">
<g transform="translate(1361.1 877.08) rotate(90) scale(.08 -.08)">
<use xlink:href="#l"/>
<use x="60.818359" xlink:href="#d"/>
<use x="122.341797" xlink:href="#h"/>
<use x="163.439453" xlink:href="#k"/>
<use x="260.851562" xlink:href="#g"/>
<use x="288.634766" xlink:href="#f"/>
<use x="352.013672" xlink:href="#i"/>
<use x="413.292969" xlink:href="#j"/>
</g>
</g>
<path d="m1404.4 877.08v35.285q0 2.4 2.4 2.4h7.7425q2.4 0 2.4-2.4v-35.285q0-2.4-2.4-2.4h-7.7425q-2.4 0-2.4 2.4z" clip-path="url(#a)" fill="#fff" stroke="#fff"/>
<g clip-path="url(#a)">
<g transform="translate(1408.4 877.08) rotate(90) scale(.08 -.08)">
<use xlink:href="#l"/>
<use x="60.818359" xlink:href="#d"/>
<use x="122.341797" xlink:href="#h"/>
<use x="163.439453" xlink:href="#k"/>
<use x="260.851562" xlink:href="#g"/>
<use x="288.634766" xlink:href="#f"/>
<use x="352.013672" xlink:href="#i"/>
<use x="413.292969" xlink:href="#j"/>
</g>
</g>
<path d="m368.3 806.56 1.9919-5.2191q0.85576-2.2422-1.3865-3.098l-7.2336-2.7607q-2.2422-0.85576-3.098 1.3865l-1.9919 5.2191q-0.85576 2.2422 1.3865 3.098l7.2336 2.7607q2.2422 0.85576 3.098-1.3865z" clip-path="url(#a)" fill="#fff" stroke="#fff"/>
<g clip-path="url(#a)">
<g transform="translate(364.51 805.11) rotate(-69.111) scale(.08 -.08)">
<use xlink:href="#aa"/>
</g>
</g>
<path d="m392.09 801.35 1.9821 5.1934q0.85576 2.2422 3.098 1.3865l7.2336-2.7607q2.2422-0.85576 1.3865-3.098l-1.9821-5.1934q-0.85576-2.2422-3.098-1.3865l-7.2336 2.7607q-2.2422 0.85576-1.3865 3.098z" clip-path="url(#a)" fill="#fff" stroke="#fff"/>
<g clip-path="url(#a)">
<g transform="translate(395.89 799.9) rotate(69.111) scale(.08 -.08)">
<use xlink:href="#v"/>
</g>
</g>
<path d="m457.75 877.08v35.285q0 2.4 2.4 2.4h7.7425q2.4 0 2.4-2.4v-35.285q0-2.4-2.4-2.4h-7.7425q-2.4 0-2.4 2.4z" clip-path="url(#a)" fill="#fff" stroke="#fff"/>
<g clip-path="url(#a)">
<g transform="translate(461.81 877.08) rotate(90) scale(.08 -.08)">
<use xlink:href="#l"/>
<use x="60.818359" xlink:href="#d"/>
<use x="122.341797" xlink:href="#h"/>
<use x="163.439453" xlink:href="#k"/>
<use x="260.851562" xlink:href="#g"/>
<use x="288.634766" xlink:href="#f"/>
<use x="352.013672" xlink:href="#i"/>
<use x="413.292969" xlink:href="#j"/>
</g>
</g>
<path d="m505.08 877.08v35.285q0 2.4 2.4 2.4h7.7425q2.4 0 2.4-2.4v-35.285q0-2.4-2.4-2.4h-7.7425q-2.4 0-2.4 2.4z" clip-path="url(#a)" fill="#fff" stroke="#fff"/>
<g clip-path="url(#a)">
<g transform="translate(509.14 877.08) rotate(90) scale(.08 -.08)">
<use xlink:href="#l"/>
<use x="60.818359" xlink:href="#d"/>
<use x="122.341797" xlink:href="#h"/>
<use x="163.439453" xlink:href="#k"/>
<use x="260.851562" xlink:href="#g"/>
<use x="288.634766" xlink:href="#f"/>
<use x="352.013672" xlink:href="#i"/>
<use x="413.292969" xlink:href="#j"/>
</g>
</g>
<path d="m586.68 807.03 2.521-4.9542q1.0885-2.139-1.0505-3.2274l-6.9004-3.5114q-2.139-1.0885-3.2274 1.0505l-2.521 4.9542q-1.0885 2.139 1.0505 3.2274l6.9004 3.5114q2.139 1.0885 3.2274-1.0505z" clip-path="url(#a)" fill="#fff" stroke="#fff"/>
<g clip-path="url(#a)">
<g transform="translate(583.06 805.19) rotate(-63.03) scale(.08 -.08)">
<use xlink:href="#v"/>
</g>
</g>
<path d="m599.74 799.41v4.6012q0 2.4 2.4 2.4h7.7425q2.4 0 2.4-2.4v-4.6012q0-2.4-2.4-2.4h-7.7425q-2.4 0-2.4 2.4z" clip-path="url(#a)" fill="#fff" stroke="#fff"/>
<g clip-path="url(#a)">
<g transform="translate(603.81 799.41) rotate(90) scale(.08 -.08)">
<use xlink:href="#z"/>
</g>
</g>
<path d="m622.82 802.07 2.5335 4.9787q1.0885 2.139 3.2274 1.0505l6.9004-3.5114q2.139-1.0885 1.0505-3.2274l-2.5335-4.9787q-1.0885-2.139-3.2274-1.0505l-6.9004 3.5114q-2.139 1.0885-1.0505 3.2274z" clip-path="url(#a)" fill="#fff" stroke="#fff"/>
<g clip-path="url(#a)">
<g transform="translate(626.45 800.22) rotate(63.03) scale(.08 -.08)">
<use xlink:href="#aa"/>
</g>
</g>
<path d="m694.41 877.08v35.285q0 2.4 2.4 2.4h7.7425q2.4 0 2.4-2.4v-35.285q0-2.4-2.4-2.4h-7.7425q-2.4 0-2.4 2.4z" clip-path="url(#a)" fill="#fff" stroke="#fff"/>
<g clip-path="url(#a)">
<g transform="translate(698.47 877.08) rotate(90) scale(.08 -.08)">
<use xlink:href="#l"/>
<use x="60.818359" xlink:href="#d"/>
<use x="122.341797" xlink:href="#h"/>
<use x="163.439453" xlink:href="#k"/>
<use x="260.851562" xlink:href="#g"/>
<use x="288.634766" xlink:href="#f"/>
<use x="352.013672" xlink:href="#i"/>
<use x="413.292969" xlink:href="#j"/>
</g>
</g>
<path d="m741.74 877.08v35.285q0 2.4 2.4 2.4h7.7425q2.4 0 2.4-2.4v-35.285q0-2.4-2.4-2.4h-7.7425q-2.4 0-2.4 2.4z" clip-path="url(#a)" fill="#fff" stroke="#fff"/>
<g clip-path="url(#a)">
<g transform="translate(745.8 877.08) rotate(90) scale(.08 -.08)">
<use xlink:href="#l"/>
<use x="60.818359" xlink:href="#d"/>
<use x="122.341797" xlink:href="#h"/>
<use x="163.439453" xlink:href="#k"/>
<use x="260.851562" xlink:href="#g"/>
<use x="288.634766" xlink:href="#f"/>
<use x="352.013672" xlink:href="#i"/>
<use x="413.292969" xlink:href="#j"/>
</g>
</g>
<path d="m552.41 877.08v35.285q0 2.4 2.4 2.4h7.7425q2.4 0 2.4-2.4v-35.285q0-2.4-2.4-2.4h-7.7425q-2.4 0-2.4 2.4z" clip-path="url(#a)" fill="#fff" stroke="#fff"/>
<g clip-path="url(#a)">
<g transform="translate(556.48 877.08) rotate(90) scale(.08 -.08)">
<use xlink:href="#l"/>
<use x="60.818359" xlink:href="#d"/>
<use x="122.341797" xlink:href="#h"/>
<use x="163.439453" xlink:href="#k"/>
<use x="260.851562" xlink:href="#g"/>
<use x="288.634766" xlink:href="#f"/>
<use x="352.013672" xlink:href="#i"/>
<use x="413.292969" xlink:href="#j"/>
</g>
</g>
<path d="m599.74 877.08v35.285q0 2.4 2.4 2.4h7.7425q2.4 0 2.4-2.4v-35.285q0-2.4-2.4-2.4h-7.7425q-2.4 0-2.4 2.4z" clip-path="url(#a)" fill="#fff" stroke="#fff"/>
<g clip-path="url(#a)">
<g transform="translate(603.81 877.08) rotate(90) scale(.08 -.08)">
<use xlink:href="#l"/>
<use x="60.818359" xlink:href="#d"/>
<use x="122.341797" xlink:href="#h"/>
<use x="163.439453" xlink:href="#k"/>
<use x="260.851562" xlink:href="#g"/>
<use x="288.634766" xlink:href="#f"/>
<use x="352.013672" xlink:href="#i"/>
<use x="413.292969" xlink:href="#j"/>
</g>
</g>
<path d="m647.07 877.08v35.285q0 2.4 2.4 2.4h7.7425q2.4 0 2.4-2.4v-35.285q0-2.4-2.4-2.4h-7.7425q-2.4 0-2.4 2.4z" clip-path="url(#a)" fill="#fff" stroke="#fff"/>
<g clip-path="url(#a)">
<g transform="translate(651.14 877.08) rotate(90) scale(.08 -.08)">
<use xlink:href="#l"/>
<use x="60.818359" xlink:href="#d"/>
<use x="122.341797" xlink:href="#h"/>
<use x="163.439453" xlink:href="#k"/>
<use x="260.851562" xlink:href="#g"/>
<use x="288.634766" xlink:href="#f"/>
<use x="352.013672" xlink:href="#i"/>
<use x="413.292969" xlink:href="#j"/>
</g>
</g>
<path d="m335.59 913.37 8.7005-34.195q0.59179-2.3259-1.7341-2.9177l-7.5034-1.9091q-2.3259-0.59179-2.9177 1.7341l-8.7005 34.195q-0.59179 2.3259 1.7341 2.9177l7.5034 1.9091q2.3259 0.59179 2.9177-1.7341z" clip-path="url(#a)" fill="#fff" stroke="#fff"/>
<g clip-path="url(#a)">
<g transform="translate(331.65 912.37) rotate(-75.725) scale(.08 -.08)">
<use xlink:href="#l"/>
<use x="60.818359" xlink:href="#d"/>
<use x="122.341797" xlink:href="#h"/>
<use x="163.439453" xlink:href="#k"/>
<use x="260.851562" xlink:href="#g"/>
<use x="288.634766" xlink:href="#f"/>
<use x="352.013672" xlink:href="#i"/>
<use x="413.292969" xlink:href="#j"/>
</g>
</g>
<path d="m347.1 879.17 8.7005 34.195q0.59179 2.3259 2.9177 1.7341l7.5034-1.9091q2.3259-0.59179 1.7341-2.9177l-8.7005-34.195q-0.59179-2.3259-2.9177-1.7341l-7.5034 1.9091q-2.3259 0.59179-1.7341 2.9177z" clip-path="url(#a)" fill="#fff" stroke="#fff"/>
<g clip-path="url(#a)">
<g transform="translate(351.04 878.17) rotate(75.725) scale(.08 -.08)">
<use xlink:href="#l"/>
<use x="60.818359" xlink:href="#d"/>
<use x="122.341797" xlink:href="#h"/>
<use x="163.439453" xlink:href="#k"/>
<use x="260.851562" xlink:href="#g"/>
<use x="288.634766" xlink:href="#f"/>
<use x="352.013672" xlink:href="#i"/>
<use x="413.292969" xlink:href="#j"/>
</g>
</g>
<path d="m410.42 877.08v35.285q0 2.4 2.4 2.4h7.7425q2.4 0 2.4-2.4v-35.285q0-2.4-2.4-2.4h-7.7425q-2.4 0-2.4 2.4z" clip-path="url(#a)" fill="#fff" stroke="#fff"/>
<g clip-path="url(#a)">
<g transform="translate(414.48 877.08) rotate(90) scale(.08 -.08)">
<use xlink:href="#l"/>
<use x="60.818359" xlink:href="#d"/>
<use x="122.341797" xlink:href="#h"/>
<use x="163.439453" xlink:href="#k"/>
<use x="260.851562" xlink:href="#g"/>
<use x="288.634766" xlink:href="#f"/>
<use x="352.013672" xlink:href="#i"/>
<use x="413.292969" xlink:href="#j"/>
</g>
</g>
<path d="m126.43 877.08v35.285q0 2.4 2.4 2.4h7.7425q2.4 0 2.4-2.4v-35.285q0-2.4-2.4-2.4h-7.7425q-2.4 0-2.4 2.4z" clip-path="url(#a)" fill="#fff" stroke="#fff"/>
<g clip-path="url(#a)">
<g transform="translate(130.49 877.08) rotate(90) scale(.08 -.08)">
<use xlink:href="#l"/>
<use x="60.818359" xlink:href="#d"/>
<use x="122.341797" xlink:href="#h"/>
<use x="163.439453" xlink:href="#k"/>
<use x="260.851562" xlink:href="#g"/>
<use x="288.634766" xlink:href="#f"/>
<use x="352.013672" xlink:href="#i"/>
<use x="413.292969" xlink:href="#j"/>
</g>
</g>
<path d="m173.76 877.08v35.285q0 2.4 2.4 2.4h7.7425q2.4 0 2.4-2.4v-35.285q0-2.4-2.4-2.4h-7.7425q-2.4 0-2.4 2.4z" clip-path="url(#a)" fill="#fff" stroke="#fff"/>
<g clip-path="url(#a)">
<g transform="translate(177.82 877.08) rotate(90) scale(.08 -.08)">
<use xlink:href="#l"/>
<use x="60.818359" xlink:href="#d"/>
<use x="122.341797" xlink:href="#h"/>
<use x="163.439453" xlink:href="#k"/>
<use x="260.851562" xlink:href="#g"/>
<use x="288.634766" xlink:href="#f"/>
<use x="352.013672" xlink:href="#i"/>
<use x="413.292969" xlink:href="#j"/>
</g>
</g>
<path d="m220.96 795.22v12.991q0 2.4 2.4 2.4h8q2.4 0 2.4-2.4v-12.991q0-2.4-2.4-2.4h-8q-2.4 0-2.4 2.4z" clip-path="url(#a)" fill="#fff" stroke="#fff"/>
<g clip-path="url(#a)">
<defs>
<path id="ay" d="m21 76.422v-100h-8.2969v100z"/>
</defs>
<g transform="translate(225.25 795.22) rotate(90) scale(.08 -.08)">
<use xlink:href="#r"/>
<use x="68.408203" xlink:href="#ay"/>
<use x="102.099609" xlink:href="#af"/>
</g>
</g>
<path d="m221.09 877.08v35.285q0 2.4 2.4 2.4h7.7425q2.4 0 2.4-2.4v-35.285q0-2.4-2.4-2.4h-7.7425q-2.4 0-2.4 2.4z" clip-path="url(#a)" fill="#fff" stroke="#fff"/>
<g clip-path="url(#a)">
<g transform="translate(225.16 877.08) rotate(90) scale(.08 -.08)">
<use xlink:href="#l"/>
<use x="60.818359" xlink:href="#d"/>
<use x="122.341797" xlink:href="#h"/>
<use x="163.439453" xlink:href="#k"/>
<use x="260.851562" xlink:href="#g"/>
<use x="288.634766" xlink:href="#f"/>
<use x="352.013672" xlink:href="#i"/>
<use x="413.292969" xlink:href="#j"/>
</g>
</g>
<path d="m268.42 877.08v35.285q0 2.4 2.4 2.4h7.7425q2.4 0 2.4-2.4v-35.285q0-2.4-2.4-2.4h-7.7425q-2.4 0-2.4 2.4z" clip-path="url(#a)" fill="#fff" stroke="#fff"/>
<g clip-path="url(#a)">
<g transform="translate(272.49 877.08) rotate(90) scale(.08 -.08)">
<use xlink:href="#l"/>
<use x="60.818359" xlink:href="#d"/>
<use x="122.341797" xlink:href="#h"/>
<use x="163.439453" xlink:href="#k"/>
<use x="260.851562" xlink:href="#g"/>
<use x="288.634766" xlink:href="#f"/>
<use x="352.013672" xlink:href="#i"/>
<use x="413.292969" xlink:href="#j"/>
</g>
</g>
<path d="m1073.1 877.08v35.285q0 2.4 2.4 2.4h7.7425q2.4 0 2.4-2.4v-35.285q0-2.4-2.4-2.4h-7.7425q-2.4 0-2.4 2.4z" clip-path="url(#a)" fill="#fff" stroke="#fff"/>
<g clip-path="url(#a)">
<g transform="translate(1077.1 877.08) rotate(90) scale(.08 -.08)">
<use xlink:href="#l"/>
<use x="60.818359" xlink:href="#d"/>
<use x="122.341797" xlink:href="#h"/>
<use x="163.439453" xlink:href="#k"/>
<use x="260.851562" xlink:href="#g"/>
<use x="288.634766" xlink:href="#f"/>
<use x="352.013672" xlink:href="#i"/>
<use x="413.292969" xlink:href="#j"/>
</g>
</g>
<path d="m1120.4 877.08v35.285q0 2.4 2.4 2.4h7.7425q2.4 0 2.4-2.4v-35.285q0-2.4-2.4-2.4h-7.7425q-2.4 0-2.4 2.4z" clip-path="url(#a)" fill="#fff" stroke="#fff"/>
<g clip-path="url(#a)">
<g transform="translate(1124.5 877.08) rotate(90) scale(.08 -.08)">
<use xlink:href="#l"/>
<use x="60.818359" xlink:href="#d"/>
<use x="122.341797" xlink:href="#h"/>
<use x="163.439453" xlink:href="#k"/>
<use x="260.851562" xlink:href="#g"/>
<use x="288.634766" xlink:href="#f"/>
<use x="352.013672" xlink:href="#i"/>
<use x="413.292969" xlink:href="#j"/>
</g>
</g>
<path d="m1735.7 877.08v35.285q0 2.4 2.4 2.4h7.7425q2.4 0 2.4-2.4v-35.285q0-2.4-2.4-2.4h-7.7425q-2.4 0-2.4 2.4z" clip-path="url(#a)" fill="#fff" stroke="#fff"/>
<g clip-path="url(#a)">
<g transform="translate(1739.8 877.08) rotate(90) scale(.08 -.08)">
<use xlink:href="#l"/>
<use x="60.818359" xlink:href="#d"/>
<use x="122.341797" xlink:href="#h"/>
<use x="163.439453" xlink:href="#k"/>
<use x="260.851562" xlink:href="#g"/>
<use x="288.634766" xlink:href="#f"/>
<use x="352.013672" xlink:href="#i"/>
<use x="413.292969" xlink:href="#j"/>
</g>
</g>
<path d="m1783 877.08v35.285q0 2.4 2.4 2.4h7.7425q2.4 0 2.4-2.4v-35.285q0-2.4-2.4-2.4h-7.7425q-2.4 0-2.4 2.4z" clip-path="url(#a)" fill="#fff" stroke="#fff"/>
<g clip-path="url(#a)">
<g transform="translate(1787.1 877.08) rotate(90) scale(.08 -.08)">
<use xlink:href="#l"/>
<use x="60.818359" xlink:href="#d"/>
<use x="122.341797" xlink:href="#h"/>
<use x="163.439453" xlink:href="#k"/>
<use x="260.851562" xlink:href="#g"/>
<use x="288.634766" xlink:href="#f"/>
<use x="352.013672" xlink:href="#i"/>
<use x="413.292969" xlink:href="#j"/>
</g>
</g>
<defs>
<path id="b" d="m0 8.6603c2.2967 0 4.4997-0.9125 6.1237-2.5365 1.624-1.624 2.5365-3.827 2.5365-6.1237s-0.9125-4.4997-2.5365-6.1237c-1.624-1.624-3.827-2.5365-6.1237-2.5365s-4.4997 0.9125-6.1237 2.5365c-1.624 1.624-2.5365 3.827-2.5365 6.1237s0.9125 4.4997 2.5365 6.1237c1.624 1.624 3.827 2.5365 6.1237 2.5365z"/>
</defs>
<g clip-path="url(#a)">
<use x="85.369551" y="941.230376" fill="#ffffff" stroke="#ffffff" xlink:href="#b"/>
</g>
<g clip-path="url(#a)">
<use x="132.700873" y="941.230376" fill="#ffffff" stroke="#ffffff" xlink:href="#b"/>
</g>
<g clip-path="url(#a)">
<use x="180.032194" y="941.230376" fill="#ffffff" stroke="#ffffff" xlink:href="#b"/>
</g>
<g clip-path="url(#a)">
<use x="227.363515" y="941.230376" fill="#ffffff" stroke="#ffffff" xlink:href="#b"/>
</g>
<g clip-path="url(#a)">
<use x="274.694836" y="941.230376" fill="#ffffff" stroke="#ffffff" xlink:href="#b"/>
</g>
<g clip-path="url(#a)">
<use x="322.026157" y="941.230376" fill="#ffffff" stroke="#ffffff" xlink:href="#b"/>
</g>
<g clip-path="url(#a)">
<use x="369.357479" y="941.230376" fill="#ffffff" stroke="#ffffff" xlink:href="#b"/>
</g>
<g clip-path="url(#a)">
<use x="416.6888" y="941.230376" fill="#ffffff" stroke="#ffffff" xlink:href="#b"/>
</g>
<g clip-path="url(#a)">
<use x="464.020121" y="941.230376" fill="#ffffff" stroke="#ffffff" xlink:href="#b"/>
</g>
<g clip-path="url(#a)">
<use x="511.351442" y="941.230376" fill="#ffffff" stroke="#ffffff" xlink:href="#b"/>
</g>
<g clip-path="url(#a)">
<use x="558.682764" y="941.230376" fill="#ffffff" stroke="#ffffff" xlink:href="#b"/>
</g>
<g clip-path="url(#a)">
<use x="606.014085" y="941.230376" fill="#ffffff" stroke="#ffffff" xlink:href="#b"/>
</g>
<g clip-path="url(#a)">
<use x="653.345406" y="941.230376" fill="#ffffff" stroke="#ffffff" xlink:href="#b"/>
</g>
<g clip-path="url(#a)">
<use x="700.676727" y="941.230376" fill="#ffffff" stroke="#ffffff" xlink:href="#b"/>
</g>
<g clip-path="url(#a)">
<use x="748.008048" y="941.230376" fill="#ffffff" stroke="#ffffff" xlink:href="#b"/>
</g>
<g clip-path="url(#a)">
<use x="795.33937" y="941.230376" fill="#ffffff" stroke="#ffffff" xlink:href="#b"/>
</g>
<g clip-path="url(#a)">
<use x="842.670691" y="941.230376" fill="#ffffff" stroke="#ffffff" xlink:href="#b"/>
</g>
<g clip-path="url(#a)">
<use x="890.002012" y="941.230376" fill="#ffffff" stroke="#ffffff" xlink:href="#b"/>
</g>
<g clip-path="url(#a)">
<use x="937.333333" y="941.230376" fill="#ffffff" stroke="#ffffff" xlink:href="#b"/>
</g>
<g clip-path="url(#a)">
<use x="984.664655" y="941.230376" fill="#ffffff" stroke="#ffffff" xlink:href="#b"/>
</g>
<g clip-path="url(#a)">
<use x="1031.995976" y="941.230376" fill="#ffffff" stroke="#ffffff" xlink:href="#b"/>
</g>
<g clip-path="url(#a)">
<use x="1079.327297" y="941.230376" fill="#ffffff" stroke="#ffffff" xlink:href="#b"/>
</g>
<g clip-path="url(#a)">
<use x="1126.658618" y="941.230376" fill="#ffffff" stroke="#ffffff" xlink:href="#b"/>
</g>
<g clip-path="url(#a)">
<use x="1173.989939" y="941.230376" fill="#ffffff" stroke="#ffffff" xlink:href="#b"/>
</g>
<g clip-path="url(#a)">
<use x="1221.321261" y="941.230376" fill="#ffffff" stroke="#ffffff" xlink:href="#b"/>
</g>
<g clip-path="url(#a)">
<use x="1268.652582" y="941.230376" fill="#ffffff" stroke="#ffffff" xlink:href="#b"/>
</g>
<g clip-path="url(#a)">
<use x="1315.983903" y="941.230376" fill="#ffffff" stroke="#ffffff" xlink:href="#b"/>
</g>
<g clip-path="url(#a)">
<use x="1363.315224" y="941.230376" fill="#ffffff" stroke="#ffffff" xlink:href="#b"/>
</g>
<g clip-path="url(#a)">
<use x="1410.646546" y="941.230376" fill="#ffffff" stroke="#ffffff" xlink:href="#b"/>
</g>
<g clip-path="url(#a)">
<use x="1457.977867" y="941.230376" fill="#ffffff" stroke="#ffffff" xlink:href="#b"/>
</g>
<g clip-path="url(#a)">
<use x="1505.309188" y="941.230376" fill="#ffffff" stroke="#ffffff" xlink:href="#b"/>
</g>
<g clip-path="url(#a)">
<use x="1552.640509" y="941.230376" fill="#ffffff" stroke="#ffffff" xlink:href="#b"/>
</g>
<g clip-path="url(#a)">
<use x="1599.97183" y="941.230376" fill="#ffffff" stroke="#ffffff" xlink:href="#b"/>
</g>
<g clip-path="url(#a)">
<use x="1647.303152" y="941.230376" fill="#ffffff" stroke="#ffffff" xlink:href="#b"/>
</g>
<g clip-path="url(#a)">
<use x="1694.634473" y="941.230376" fill="#ffffff" stroke="#ffffff" xlink:href="#b"/>
</g>
<g clip-path="url(#a)">
<use x="1741.965794" y="941.230376" fill="#ffffff" stroke="#ffffff" xlink:href="#b"/>
</g>
<g clip-path="url(#a)">
<use x="1789.297115" y="941.230376" fill="#ffffff" stroke="#ffffff" xlink:href="#b"/>
</g>
<g clip-path="url(#a)">
<use x="328.534736" y="45.436291" fill="#ffffff" stroke="#ffffff" xlink:href="#b"/>
</g>
<g clip-path="url(#a)">
<use x="328.534736" y="155.398726" fill="#ffffff" stroke="#ffffff" xlink:href="#b"/>
</g>
<g clip-path="url(#a)">
<use x="85.369551" y="848.217868" fill="#ffffff" stroke="#ffffff" xlink:href="#b"/>
</g>
<g clip-path="url(#a)">
<use x="180.032194" y="660.898947" fill="#ffffff" stroke="#ffffff" xlink:href="#b"/>
</g>
<g clip-path="url(#a)">
<use x="774.042362" y="262.049517" fill="#ffffff" stroke="#ffffff" xlink:href="#b"/>
</g>
<g clip-path="url(#a)">
<use x="568.543455" y="660.898947" fill="#ffffff" stroke="#ffffff" xlink:href="#b"/>
</g>
<g clip-path="url(#a)">
<use x="795.33937" y="848.217868" fill="#ffffff" stroke="#ffffff" xlink:href="#b"/>
</g>
<g clip-path="url(#a)">
<use x="958.244261" y="365.649027" fill="#ffffff" stroke="#ffffff" xlink:href="#b"/>
</g>
<g clip-path="url(#a)">
<use x="842.670691" y="848.217868" fill="#ffffff" stroke="#ffffff" xlink:href="#b"/>
</g>
<g clip-path="url(#a)">
<use x="890.002012" y="848.217868" fill="#ffffff" stroke="#ffffff" xlink:href="#b"/>
</g>
<g clip-path="url(#a)">
<use x="1142.06008" y="466.464068" fill="#ffffff" stroke="#ffffff" xlink:href="#b"/>
</g>
<g clip-path="url(#a)">
<use x="984.664655" y="848.217868" fill="#ffffff" stroke="#ffffff" xlink:href="#b"/>
</g>
<g clip-path="url(#a)">
<use x="1377.58975" y="564.776593" fill="#ffffff" stroke="#ffffff" xlink:href="#b"/>
</g>
<g clip-path="url(#a)">
<use x="1248.36773" y="755.205361" fill="#ffffff" stroke="#ffffff" xlink:href="#b"/>
</g>
<g clip-path="url(#a)">
<use x="1457.977867" y="848.217868" fill="#ffffff" stroke="#ffffff" xlink:href="#b"/>
</g>
<g clip-path="url(#a)">
<use x="1426.423653" y="660.898947" fill="#ffffff" stroke="#ffffff" xlink:href="#b"/>
</g>
<g clip-path="url(#a)">
<use x="1647.303152" y="755.205361" fill="#ffffff" stroke="#ffffff" xlink:href="#b"/>
</g>
<g clip-path="url(#a)">
<use x="1505.309188" y="848.217868" fill="#ffffff" stroke="#ffffff" xlink:href="#b"/>
</g>
<g clip-path="url(#a)">
<use x="1552.640509" y="848.217868" fill="#ffffff" stroke="#ffffff" xlink:href="#b"/>
</g>
<g clip-path="url(#a)">
<use x="1599.97183" y="848.217868" fill="#ffffff" stroke="#ffffff" xlink:href="#b"/>
</g>
<g clip-path="url(#a)">
<use x="1647.303152" y="848.217868" fill="#ffffff" stroke="#ffffff" xlink:href="#b"/>
</g>
<g clip-path="url(#a)">
<use x="1694.634473" y="848.217868" fill="#ffffff" stroke="#ffffff" xlink:href="#b"/>
</g>
<g clip-path="url(#a)">
<use x="1173.989939" y="848.217868" fill="#ffffff" stroke="#ffffff" xlink:href="#b"/>
</g>
<g clip-path="url(#a)">
<use x="1221.321261" y="848.217868" fill="#ffffff" stroke="#ffffff" xlink:href="#b"/>
</g>
<g clip-path="url(#a)">
<use x="1268.652582" y="848.217868" fill="#ffffff" stroke="#ffffff" xlink:href="#b"/>
</g>
<g clip-path="url(#a)">
<use x="1315.983903" y="848.217868" fill="#ffffff" stroke="#ffffff" xlink:href="#b"/>
</g>
<g clip-path="url(#a)">
<use x="1363.315224" y="848.217868" fill="#ffffff" stroke="#ffffff" xlink:href="#b"/>
</g>
<g clip-path="url(#a)">
<use x="1410.646546" y="848.217868" fill="#ffffff" stroke="#ffffff" xlink:href="#b"/>
</g>
<g clip-path="url(#a)">
<use x="381.190309" y="755.205361" fill="#ffffff" stroke="#ffffff" xlink:href="#b"/>
</g>
<g clip-path="url(#a)">
<use x="464.020121" y="848.217868" fill="#ffffff" stroke="#ffffff" xlink:href="#b"/>
</g>
<g clip-path="url(#a)">
<use x="511.351442" y="848.217868" fill="#ffffff" stroke="#ffffff" xlink:href="#b"/>
</g>
<g clip-path="url(#a)">
<use x="606.014085" y="755.205361" fill="#ffffff" stroke="#ffffff" xlink:href="#b"/>
</g>
<g clip-path="url(#a)">
<use x="700.676727" y="848.217868" fill="#ffffff" stroke="#ffffff" xlink:href="#b"/>
</g>
<g clip-path="url(#a)">
<use x="748.008048" y="848.217868" fill="#ffffff" stroke="#ffffff" xlink:href="#b"/>
</g>
<g clip-path="url(#a)">
<use x="558.682764" y="848.217868" fill="#ffffff" stroke="#ffffff" xlink:href="#b"/>
</g>
<g clip-path="url(#a)">
<use x="606.014085" y="848.217868" fill="#ffffff" stroke="#ffffff" xlink:href="#b"/>
</g>
<g clip-path="url(#a)">
<use x="653.345406" y="848.217868" fill="#ffffff" stroke="#ffffff" xlink:href="#b"/>
</g>
<g clip-path="url(#a)">
<use x="345.691818" y="848.217868" fill="#ffffff" stroke="#ffffff" xlink:href="#b"/>
</g>
<g clip-path="url(#a)">
<use x="416.6888" y="848.217868" fill="#ffffff" stroke="#ffffff" xlink:href="#b"/>
</g>
<g clip-path="url(#a)">
<use x="132.700873" y="848.217868" fill="#ffffff" stroke="#ffffff" xlink:href="#b"/>
</g>
<g clip-path="url(#a)">
<use x="180.032194" y="848.217868" fill="#ffffff" stroke="#ffffff" xlink:href="#b"/>
</g>
<g clip-path="url(#a)">
<use x="227.363515" y="755.205361" fill="#ffffff" stroke="#ffffff" xlink:href="#b"/>
</g>
<g clip-path="url(#a)">
<use x="227.363515" y="848.217868" fill="#ffffff" stroke="#ffffff" xlink:href="#b"/>
</g>
<g clip-path="url(#a)">
<use x="274.694836" y="848.217868" fill="#ffffff" stroke="#ffffff" xlink:href="#b"/>
</g>
<g clip-path="url(#a)">
<use x="1079.327297" y="848.217868" fill="#ffffff" stroke="#ffffff" xlink:href="#b"/>
</g>
<g clip-path="url(#a)">
<use x="1126.658618" y="848.217868" fill="#ffffff" stroke="#ffffff" xlink:href="#b"/>
</g>
<g clip-path="url(#a)">
<use x="1741.965794" y="848.217868" fill="#ffffff" stroke="#ffffff" xlink:href="#b"/>
</g>
<g clip-path="url(#a)">
<use x="1789.297115" y="848.217868" fill="#ffffff" stroke="#ffffff" xlink:href="#b"/>
</g>
<g clip-path="url(#a)">
<defs>
<path id="t" d="m48.781 52.594v-8.4062q-3.8125 2.1094-7.6406 3.1562t-7.7344 1.0469q-8.75 0-13.594-5.5469-4.8281-5.5312-4.8281-15.547t4.8281-15.562q4.8438-5.5312 13.594-5.5312 3.9062 0 7.7344 1.0469t7.6406 3.1562v-8.3125q-3.7656-1.75-7.7969-2.625-4.0156-0.89062-8.5625-0.89062-12.359 0-19.641 7.7656-7.2656 7.7656-7.2656 20.953 0 13.375 7.3438 21.031 7.3594 7.6719 20.156 7.6719 4.1406 0 8.0938-0.85938 3.9531-0.84375 7.6719-2.5469z"/>
<path id="p" d="m30.609 48.391q-7.2188 0-11.422-5.6406t-4.2031-15.453 4.1719-15.453q4.1875-5.6406 11.453-5.6406 7.1875 0 11.375 5.6562 4.2031 5.6719 4.2031 15.438 0 9.7188-4.2031 15.406-4.1875 5.6875-11.375 5.6875zm0 7.6094q11.719 0 18.406-7.625 6.7031-7.6094 6.7031-21.078 0-13.422-6.7031-21.078-6.6875-7.6406-18.406-7.6406-11.766 0-18.438 7.6406-6.6562 7.6562-6.6562 21.078 0 13.469 6.6562 21.078 6.6719 7.625 18.438 7.625z"/>
<path id="ae" d="m45.406 46.391v29.594h8.9844v-75.984h-8.9844v8.2031q-2.8281-4.875-7.1562-7.25-4.3125-2.375-10.375-2.375-9.9062 0-16.141 7.9062-6.2188 7.9219-6.2188 20.812t6.2188 20.797q6.2344 7.9062 16.141 7.9062 6.0625 0 10.375-2.375 4.3281-2.3594 7.1562-7.2344zm-30.609-19.094q0-9.9062 4.0781-15.547t11.203-5.6406 11.219 5.6406q4.1094 5.6406 4.1094 15.547t-4.1094 15.547q-4.0938 5.6406-11.219 5.6406t-11.203-5.6406-4.0781-15.547z"/>
<path id="an" d="m45.406 27.984q0 9.7656-4.0312 15.125-4.0156 5.375-11.297 5.375-7.2188 0-11.25-5.375-4.0312-5.3594-4.0312-15.125 0-9.7188 4.0312-15.094t11.25-5.375q7.2812 0 11.297 5.375 4.0312 5.375 4.0312 15.094zm8.9844-21.203q0-13.953-6.2031-20.766-6.1875-6.8125-18.984-6.8125-4.7344 0-8.9375 0.70312t-8.1562 2.1719v8.7344q3.9531-2.1406 7.8125-3.1562 3.8594-1.0312 7.8594-1.0312 8.8438 0 13.234 4.6094t4.3906 13.938v4.4531q-2.7812-4.8438-7.125-7.2344t-10.406-2.3906q-10.047 0-16.203 7.6562-6.1562 7.6719-6.1562 20.328 0 12.688 6.1562 20.344 6.1562 7.6719 16.203 7.6719 6.0625 0 10.406-2.3906t7.125-7.2188v8.2969h8.9844z"/>
</defs>
<g transform="translate(60.431 943.99) scale(.1 -.1)">
<use xlink:href="#r"/>
<use x="68.392578" xlink:href="#t"/>
<use x="123.373047" xlink:href="#t"/>
<use x="178.353516" xlink:href="#p"/>
<use x="239.535156" xlink:href="#h"/>
<use x="280.632812" xlink:href="#ae"/>
<use x="344.109375" xlink:href="#g"/>
<use x="371.892578" xlink:href="#f"/>
<use x="435.271484" xlink:href="#an"/>
</g>
</g>
<g clip-path="url(#a)">
<defs>
<path id="q" d="m18.312 70.219v-15.531h18.5v-6.9844h-18.5v-29.688q0-6.6875 1.8281-8.5938t7.4531-1.9062h9.2188v-7.5156h-9.2188q-10.406 0-14.359 3.875-3.9531 3.8906-3.9531 14.141v29.688h-6.5938v6.9844h6.5938v15.531z"/>
</defs>
<g transform="translate(127.68 943.99) scale(.1 -.1)">
<use xlink:href="#q"/>
<use x="39.208984" xlink:href="#p"/>
</g>
</g>
<g clip-path="url(#a)">
<g transform="translate(170.73 943.99) scale(.1 -.1)">
<use xlink:href="#p"/>
<use x="61.181641" xlink:href="#f"/>
<use x="124.560547" xlink:href="#d"/>
</g>
</g>
<g clip-path="url(#a)">
<defs>
<path id="ah" d="m48.688 27.297q0 9.9062-4.0781 15.547t-11.203 5.6406q-7.1406 0-11.219-5.6406t-4.0781-15.547 4.0781-15.547 11.219-5.6406q7.125 0 11.203 5.6406t4.0781 15.547zm-30.578 19.094q2.8438 4.875 7.1562 7.2344 4.3281 2.375 10.328 2.375 9.9688 0 16.188-7.9062 6.2344-7.9062 6.2344-20.797t-6.2344-20.812q-6.2188-7.9062-16.188-7.9062-6 0-10.328 2.375-4.3125 2.375-7.1562 7.25v-8.2031h-9.0312v75.984h9.0312z"/>
<path id="am" d="m18.109 8.2031v-29h-9.0312v75.484h9.0312v-8.2969q2.8438 4.875 7.1562 7.2344 4.3281 2.375 10.328 2.375 9.9688 0 16.188-7.9062 6.2344-7.9062 6.2344-20.797t-6.2344-20.812q-6.2188-7.9062-16.188-7.9062-6 0-10.328 2.375-4.3125 2.375-7.1562 7.25zm30.578 19.094q0 9.9062-4.0781 15.547t-11.203 5.6406q-7.1406 0-11.219-5.6406t-4.0781-15.547 4.0781-15.547 11.219-5.6406q7.125 0 11.203 5.6406t4.0781 15.547z"/>
<path id="u" d="m54.891 33.016v-33.016h-8.9844v32.719q0 7.7656-3.0312 11.609-3.0312 3.8594-9.0781 3.8594-7.2812 0-11.484-4.6406-4.2031-4.625-4.2031-12.641v-30.906h-9.0312v75.984h9.0312v-29.797q3.2344 4.9375 7.5938 7.375 4.375 2.4375 10.094 2.4375 9.4219 0 14.25-5.8281 4.8438-5.8281 4.8438-17.156z"/>
</defs>
<g transform="translate(199.97 943.99) scale(.1 -.1)">
<use xlink:href="#ah"/>
<use x="63.476562" xlink:href="#g"/>
<use x="91.259766" xlink:href="#p"/>
<use x="152.441406" xlink:href="#an"/>
<use x="215.917969" xlink:href="#h"/>
<use x="257.03125" xlink:href="#i"/>
<use x="318.310547" xlink:href="#am"/>
<use x="381.787109" xlink:href="#u"/>
<use x="445.166016" xlink:href="#d"/>
<use x="506.689453" xlink:href="#h"/>
</g>
</g>
<g clip-path="url(#a)">
<defs>
<path id="au" d="m11.719 12.406h10.297v-8.4062l-8-15.625h-6.2969l4 15.625z"/>
</defs>
<g transform="translate(273.11 943.99) scale(.1 -.1)">
<use xlink:href="#au"/>
</g>
</g>
<g clip-path="url(#a)">
<defs>
<path id="aw" d="m9.8125 72.906h9.8594v-67.828q0-13.188-5-19.141t-16.094-5.9531h-3.75v8.2969h3.0781q6.5312 0 9.2188 3.6719 2.6875 3.6562 2.6875 13.125z"/>
<path id="bb" d="m9.0781 75.984h9.0312v-44.875l26.812 23.578h11.469l-29-25.578 30.234-29.109h-11.719l-27.797 26.703v-26.703h-9.0312z"/>
</defs>
<g transform="translate(311.84 943.99) scale(.1 -.1)">
<use xlink:href="#aw"/>
<use x="29.492188" xlink:href="#i"/>
<use x="90.771484" xlink:href="#t"/>
<use x="145.751953" xlink:href="#bb"/>
</g>
</g>
<g clip-path="url(#a)">
<defs>
<path id="ao" d="m3.3281 72.906h9.9531l15.328-61.625 15.281 61.625h11.094l15.328-61.625 15.281 61.625h10.016l-18.312-72.906h-12.406l-15.375 63.281-15.531-63.281h-12.406z"/>
</defs>
<g transform="translate(351 943.99) scale(.1 -.1)">
<use xlink:href="#ao"/>
<use x="98.783203" xlink:href="#i"/>
<use x="160.0625" xlink:href="#h"/>
<use x="201.160156" xlink:href="#f"/>
<use x="264.539062" xlink:href="#d"/>
<use x="326.0625" xlink:href="#h"/>
</g>
</g>
<g clip-path="url(#a)">
<defs>
<path id="ax" d="m17.922 72.906v-27.109h-8.2969v27.109z"/>
<path id="w" d="m44.281 53.078v-8.5q-3.7969 1.9531-7.9062 2.9219-4.0938 0.98438-8.5 0.98438-6.6875 0-10.031-2.0469t-3.3438-6.1562q0-3.125 2.3906-4.9062t9.625-3.3906l3.0781-0.6875q9.5625-2.0469 13.594-5.7812t4.0312-10.422q0-7.625-6.0312-12.078-6.0312-4.4375-16.578-4.4375-4.3906 0-9.1562 0.85938t-10.031 2.5625v9.2812q4.9844-2.5938 9.8125-3.8906 4.8281-1.2812 9.5781-1.2812 6.3438 0 9.75 2.1719 3.4219 2.1719 3.4219 6.125 0 3.6562-2.4688 5.6094-2.4531 1.9531-10.812 3.7656l-3.125 0.73438q-8.3438 1.75-12.062 5.3906-3.7031 3.6406-3.7031 9.9844 0 7.7188 5.4688 11.906 5.4688 4.2031 15.531 4.2031 4.9688 0 9.3594-0.73438 4.4062-0.71875 8.1094-2.1875z"/>
</defs>
<g transform="translate(412.71 943.99) scale(.1 -.1)">
<use xlink:href="#ax"/>
<use x="27.490234" xlink:href="#w"/>
</g>
</g>
<g clip-path="url(#a)">
<g transform="translate(450.27 943.99) scale(.1 -.1)">
<use xlink:href="#g"/>
<use x="27.783203" xlink:href="#f"/>
<use x="91.162109" xlink:href="#g"/>
<use x="118.945312" xlink:href="#q"/>
<use x="158.154297" xlink:href="#g"/>
<use x="185.9375" xlink:href="#i"/>
<use x="247.216797" xlink:href="#j"/>
</g>
</g>
<g clip-path="url(#a)">
<defs>
<path id="al" d="m8.5 21.578v33.109h8.9844v-32.766q0-7.7656 3.0156-11.656 3.0312-3.875 9.0938-3.875 7.2656 0 11.484 4.6406 4.2344 4.6406 4.2344 12.656v31h8.9844v-54.688h-8.9844v8.4062q-3.2656-4.9844-7.5938-7.4062-4.3125-2.4219-10.031-2.4219-9.4219 0-14.312 5.8594-4.875 5.8594-4.875 17.141z"/>
</defs>
<g transform="translate(494.21 943.99) scale(.1 -.1)">
<use xlink:href="#ae"/>
<use x="63.476562" xlink:href="#p"/>
<use x="124.658203" xlink:href="#al"/>
<use x="188.037109" xlink:href="#ah"/>
<use x="251.513672" xlink:href="#q"/>
<use x="290.722656" xlink:href="#w"/>
</g>
</g>
<g clip-path="url(#a)">
<g transform="translate(544.26 943.99) scale(.1 -.1)">
<use xlink:href="#i"/>
<use x="61.279297" xlink:href="#ah"/>
<use x="124.755859" xlink:href="#p"/>
<use x="185.9375" xlink:href="#al"/>
<use x="249.316406" xlink:href="#q"/>
</g>
</g>
<g clip-path="url(#a)">
<g transform="translate(597.81 943.99) scale(.1 -.1)">
<use xlink:href="#q"/>
<use x="39.208984" xlink:href="#u"/>
<use x="102.587891" xlink:href="#d"/>
</g>
</g>
<g clip-path="url(#a)">
<defs>
<path id="bc" d="m9.4219 54.688h8.9844v-55.672q0-10.438-3.9844-15.125-3.9688-4.6875-12.812-4.6875h-3.4219v7.6094h2.4062q5.125 0 6.9688 2.375 1.8594 2.3594 1.8594 9.8281zm0 21.297h8.9844v-11.391h-8.9844z"/>
</defs>
<g transform="translate(635.88 943.99) scale(.1 -.1)">
<use xlink:href="#am"/>
<use x="63.476562" xlink:href="#h"/>
<use x="104.558594" xlink:href="#p"/>
<use x="165.740234" xlink:href="#bc"/>
<use x="193.523438" xlink:href="#d"/>
<use x="255.046875" xlink:href="#t"/>
<use x="310.027344" xlink:href="#q"/>
</g>
</g>
<g clip-path="url(#a)">
<defs>
<path id="ak" d="m4.2031 54.688h8.9844l11.234-42.672 11.172 42.672h10.594l11.234-42.672 11.188 42.672h8.9844l-14.312-54.688h-10.594l-11.766 44.828-11.812-44.828h-10.609z"/>
</defs>
<g transform="translate(688.38 943.99) scale(.1 -.1)">
<use xlink:href="#ak"/>
<use x="81.787109" xlink:href="#d"/>
<use x="143.310547" xlink:href="#h"/>
<use x="184.392578" xlink:href="#d"/>
</g>
</g>
<g clip-path="url(#a)">
<defs>
<path id="ba" d="m14.797 27.297q0-9.9062 4.0781-15.547t11.203-5.6406 11.219 5.6406q4.1094 5.6406 4.1094 15.547t-4.1094 15.547q-4.0938 5.6406-11.219 5.6406t-11.203-5.6406-4.0781-15.547zm30.609-19.094q-2.8281-4.875-7.1562-7.25-4.3125-2.375-10.375-2.375-9.9062 0-16.141 7.9062-6.2188 7.9219-6.2188 20.812t6.2188 20.797q6.2344 7.9062 16.141 7.9062 6.0625 0 10.375-2.375 4.3281-2.3594 7.1562-7.2344v8.2969h8.9844v-75.484h-8.9844z"/>
</defs>
<g transform="translate(729.56 943.99) scale(.1 -.1)">
<use xlink:href="#ba"/>
<use x="63.476562" xlink:href="#al"/>
<use x="126.855469" xlink:href="#d"/>
<use x="188.378906" xlink:href="#j"/>
<use x="216.162109" xlink:href="#j"/>
<use x="243.945312" xlink:href="#d"/>
<use x="305.46875" xlink:href="#ae"/>
</g>
</g>
<g clip-path="url(#a)">
<g transform="translate(781.84 943.99) scale(.1 -.1)">
<use xlink:href="#ak"/>
<use x="81.787109" xlink:href="#u"/>
<use x="145.166016" xlink:href="#d"/>
<use x="206.689453" xlink:href="#f"/>
</g>
</g>
<g clip-path="url(#a)">
<g transform="translate(836.43 943.99) scale(.1 -.1)">
<use xlink:href="#u"/>
<use x="63.378906" xlink:href="#d"/>
</g>
</g>
<g clip-path="url(#a)">
<g transform="translate(880.09 943.99) scale(.1 -.1)">
<use xlink:href="#k"/>
<use x="97.412109" xlink:href="#d"/>
<use x="158.935547" xlink:href="#q"/>
</g>
</g>
<g clip-path="url(#a)">
<g transform="translate(929.3 943.99) scale(.1 -.1)">
<use xlink:href="#v"/>
<use x="69.482422" xlink:href="#g"/>
<use x="97.265625" xlink:href="#f"/>
</g>
</g>
<g clip-path="url(#a)">
<g transform="translate(977.06 943.99) scale(.1 -.1)">
<use xlink:href="#l"/>
<use x="61.037109" xlink:href="#g"/>
<use x="88.820312" xlink:href="#f"/>
</g>
</g>
<g clip-path="url(#a)">
<g transform="translate(1024.4 943.99) scale(.1 -.1)">
<use xlink:href="#l"/>
<use x="61.037109" xlink:href="#g"/>
<use x="88.820312" xlink:href="#f"/>
</g>
</g>
<g clip-path="url(#a)">
<g transform="translate(1077.7 943.99) scale(.1 -.1)">
<use xlink:href="#au"/>
</g>
</g>
<g clip-path="url(#a)">
<defs>
<path id="av" d="m17.922 72.906v-27.109h-8.2969v27.109zm18.453 0v-27.109h-8.2969v27.109z"/>
</defs>
<g transform="translate(1124.4 943.99) scale(.1 -.1)">
<use xlink:href="#av"/>
</g>
</g>
<g clip-path="url(#a)">
<g transform="translate(1163.7 943.99) scale(.1 -.1)">
<use xlink:href="#ak"/>
<use x="81.787109" xlink:href="#u"/>
<use x="145.166016" xlink:href="#p"/>
</g>
</g>
<g clip-path="url(#a)">
<g transform="translate(1201.4 943.99) scale(.1 -.1)">
<use xlink:href="#w"/>
<use x="52.099609" xlink:href="#d"/>
<use x="113.623047" xlink:href="#d"/>
<use x="175.146484" xlink:href="#k"/>
<use x="272.558594" xlink:href="#d"/>
<use x="334.082031" xlink:href="#ae"/>
</g>
</g>
<g clip-path="url(#a)">
<g transform="translate(1263.6 943.99) scale(.1 -.1)">
<use xlink:href="#q"/>
<use x="39.208984" xlink:href="#p"/>
</g>
</g>
<g clip-path="url(#a)">
<defs>
<path id="az" d="m32.172-5.0781q-3.7969-9.7656-7.4219-12.734-3.6094-2.9844-9.6562-2.9844h-7.1875v7.5156h5.2812q3.7031 0 5.75 1.7656 2.0625 1.75 4.5469 8.2969l1.6094 4.0938-22.109 53.812h9.5156l17.094-42.766 17.094 42.766h9.5156z"/>
</defs>
<g transform="translate(1298.2 943.99) scale(.1 -.1)">
<use xlink:href="#ae"/>
<use x="63.476562" xlink:href="#g"/>
<use x="91.259766" xlink:href="#w"/>
<use x="143.359375" xlink:href="#am"/>
<use x="206.835938" xlink:href="#j"/>
<use x="234.619141" xlink:href="#i"/>
<use x="295.898438" xlink:href="#az"/>
</g>
</g>
<g clip-path="url(#a)">
<g transform="translate(1350.3 943.99) scale(.1 -.1)">
<use xlink:href="#k"/>
<use x="97.412109" xlink:href="#p"/>
<use x="158.59375" xlink:href="#h"/>
<use x="199.675781" xlink:href="#d"/>
</g>
</g>
<g clip-path="url(#a)">
<g transform="translate(1381.6 943.99) scale(.1 -.1)">
<use xlink:href="#g"/>
<use x="27.783203" xlink:href="#f"/>
<use x="91.162109" xlink:href="#q"/>
<use x="130.371094" xlink:href="#d"/>
<use x="191.894531" xlink:href="#j"/>
<use x="219.677734" xlink:href="#j"/>
<use x="247.460938" xlink:href="#g"/>
<use x="275.244141" xlink:href="#an"/>
<use x="338.720703" xlink:href="#d"/>
<use x="400.244141" xlink:href="#f"/>
<use x="463.623047" xlink:href="#t"/>
<use x="518.603516" xlink:href="#d"/>
</g>
</g>
<g clip-path="url(#a)">
<g transform="translate(1446.6 943.99) scale(.1 -.1)">
<use xlink:href="#q"/>
<use x="39.208984" xlink:href="#u"/>
<use x="102.587891" xlink:href="#i"/>
<use x="163.867188" xlink:href="#f"/>
</g>
</g>
<g clip-path="url(#a)">
<g transform="translate(1491.7 943.99) scale(.1 -.1)">
<use xlink:href="#w"/>
<use x="52.099609" xlink:href="#p"/>
<use x="113.28125" xlink:href="#k"/>
<use x="210.693359" xlink:href="#d"/>
</g>
</g>
<g clip-path="url(#a)">
<defs>
<path id="bd" d="m37.109 75.984v-7.4844h-8.5938q-4.8281 0-6.7188-1.9531-1.875-1.9531-1.875-7.0312v-4.8281h14.797v-6.9844h-14.797v-47.703h-9.0312v47.703h-8.5938v6.9844h8.5938v3.8125q0 9.125 4.25 13.297 4.25 4.1875 13.469 4.1875z"/>
</defs>
<g transform="translate(1547.8 943.99) scale(.1 -.1)">
<use xlink:href="#p"/>
<use x="61.181641" xlink:href="#bd"/>
</g>
</g>
<g clip-path="url(#a)">
<g transform="translate(1591.8 943.99) scale(.1 -.1)">
<use xlink:href="#q"/>
<use x="39.208984" xlink:href="#u"/>
<use x="102.587891" xlink:href="#d"/>
</g>
</g>
<g clip-path="url(#a)">
<g transform="translate(1628.9 943.99) scale(.1 -.1)">
<use xlink:href="#ao"/>
<use x="98.783203" xlink:href="#i"/>
<use x="160.0625" xlink:href="#h"/>
<use x="201.160156" xlink:href="#f"/>
<use x="264.539062" xlink:href="#d"/>
<use x="326.0625" xlink:href="#h"/>
</g>
</g>
<g clip-path="url(#a)">
<g transform="translate(1677.2 943.99) scale(.1 -.1)">
<use xlink:href="#t"/>
<use x="54.980469" xlink:href="#p"/>
<use x="116.162109" xlink:href="#k"/>
<use x="213.574219" xlink:href="#g"/>
<use x="241.357422" xlink:href="#t"/>
<use x="296.337891" xlink:href="#w"/>
</g>
</g>
<g clip-path="url(#a)">
<defs>
<path id="e" d="m10.688 12.406h10.312v-12.406h-10.312z"/>
</defs>
<g transform="translate(1740.4 943.99) scale(.1 -.1)">
<use xlink:href="#e"/>
</g>
</g>
<g clip-path="url(#a)">
<g transform="translate(1787 943.99) scale(.1 -.1)">
<use xlink:href="#av"/>
</g>
</g>
<g clip-path="url(#a)">
<defs>
<path id="c" d="m12.406 8.2969h16.109v55.625l-17.531-3.5156v8.9844l17.438 3.5156h9.8594v-64.609h16.109v-8.2969h-41.984z"/>
</defs>
<g transform="translate(320.58 48.196) scale(.1 -.1)">
<use xlink:href="#c"/>
<use x="63.623047" xlink:href="#e"/>
<use x="95.410156" xlink:href="#c"/>
</g>
</g>
<g clip-path="url(#a)">
<defs>
<path id="m" d="m19.188 8.2969h34.422v-8.2969h-46.281v8.2969q5.6094 5.8125 15.297 15.594 9.7031 9.7969 12.188 12.641 4.7344 5.3125 6.6094 9 1.8906 3.6875 1.8906 7.25 0 5.8125-4.0781 9.4688-4.0781 3.6719-10.625 3.6719-4.6406 0-9.7969-1.6094-5.1406-1.6094-11-4.8906v9.9688q5.9531 2.3906 11.125 3.6094 5.1875 1.2188 9.4844 1.2188 11.328 0 18.062-5.6719 6.7344-5.6562 6.7344-15.125 0-4.5-1.6875-8.5312-1.6719-4.0156-6.125-9.4844-1.2188-1.4219-7.7656-8.1875-6.5312-6.7656-18.453-18.922z"/>
</defs>
<g transform="translate(320.58 158.16) scale(.1 -.1)">
<use xlink:href="#c"/>
<use x="63.623047" xlink:href="#e"/>
<use x="95.410156" xlink:href="#m"/>
</g>
</g>
<g clip-path="url(#a)">
<defs>
<path id="s" d="m10.797 72.906h38.719v-8.3125h-29.688v-17.859q2.1406 0.73438 4.2812 1.0938 2.1562 0.35938 4.3125 0.35938 12.203 0 19.328-6.6875 7.1406-6.6875 7.1406-18.109 0-11.766-7.3281-18.297-7.3281-6.5156-20.656-6.5156-4.5938 0-9.3594 0.78125-4.75 0.78125-9.8281 2.3438v9.9219q4.3906-2.3906 9.0781-3.5625t9.9062-1.1719q8.4531 0 13.375 4.4375 4.9375 4.4375 4.9375 12.062 0 7.6094-4.9375 12.047-4.9219 4.4531-13.375 4.4531-3.9531 0-7.8906-0.875-3.9219-0.875-8.0156-2.7344z"/>
</defs>
<g transform="translate(77.418 850.98) scale(.1 -.1)">
<use xlink:href="#c"/>
<use x="63.623047" xlink:href="#e"/>
<use x="95.410156" xlink:href="#s"/>
</g>
</g>
<g clip-path="url(#a)">
<defs>
<path id="ac" d="m33.016 40.375q-6.6406 0-10.531-4.5469-3.875-4.5312-3.875-12.438 0-7.8594 3.875-12.438 3.8906-4.5625 10.531-4.5625t10.516 4.5625q3.875 4.5781 3.875 12.438 0 7.9062-3.875 12.438-3.875 4.5469-10.516 4.5469zm19.578 30.922v-8.9844q-3.7188 1.75-7.5 2.6719-3.7812 0.9375-7.5 0.9375-9.7656 0-14.922-6.5938-5.1406-6.5938-5.875-19.922 2.875 4.25 7.2188 6.5156 4.3594 2.2656 9.5781 2.2656 10.984 0 17.359-6.6719 6.375-6.6562 6.375-18.125 0-11.234-6.6406-18.031-6.6406-6.7812-17.672-6.7812-12.656 0-19.344 9.6875-6.6875 9.7031-6.6875 28.109 0 17.281 8.2031 27.562t22.016 10.281q3.7188 0 7.5-0.73438t7.8906-2.1875z"/>
</defs>
<g transform="translate(172.08 663.66) scale(.1 -.1)">
<use xlink:href="#c"/>
<use x="63.623047" xlink:href="#e"/>
<use x="95.410156" xlink:href="#ac"/>
</g>
</g>
<g clip-path="url(#a)">
<defs>
<path id="ag" d="m8.2031 72.906h46.875v-4.2031l-26.469-68.703h-10.297l24.906 64.594h-35.016z"/>
</defs>
<g transform="translate(766.09 264.81) scale(.1 -.1)">
<use xlink:href="#c"/>
<use x="63.623047" xlink:href="#e"/>
<use x="95.410156" xlink:href="#ag"/>
</g>
</g>
<g clip-path="url(#a)">
<defs>
<path id="ab" d="m10.984 1.5156v8.9844q3.7188-1.7656 7.5156-2.6875 3.8125-0.92188 7.4844-0.92188 9.7656 0 14.906 6.5625 5.1562 6.5625 5.8906 19.953-2.8281-4.2031-7.1875-6.4531-4.3438-2.25-9.6094-2.25-10.938 0-17.312 6.6094-6.375 6.625-6.375 18.109 0 11.219 6.6406 18 6.6406 6.7969 17.672 6.7969 12.656 0 19.312-9.7031 6.6719-9.6875 6.6719-28.141 0-17.234-8.1875-27.516-8.1719-10.281-21.984-10.281-3.7188 0-7.5312 0.73438-3.7969 0.73438-7.9062 2.2031zm19.625 30.906q6.6406 0 10.516 4.5312 3.8906 4.5469 3.8906 12.469 0 7.8594-3.8906 12.422-3.875 4.5625-10.516 4.5625t-10.516-4.5625-3.875-12.422q0-7.9219 3.875-12.469 3.875-4.5312 10.516-4.5312z"/>
</defs>
<g transform="translate(560.59 663.66) scale(.1 -.1)">
<use xlink:href="#c"/>
<use x="63.623047" xlink:href="#e"/>
<use x="95.410156" xlink:href="#ab"/>
</g>
</g>
<g clip-path="url(#a)">
<defs>
<path id="ad" d="m31.781 66.406q-7.6094 0-11.453-7.5-3.8281-7.4844-3.8281-22.531 0-14.984 3.8281-22.484 3.8438-7.5 11.453-7.5 7.6719 0 11.5 7.5 3.8438 7.5 3.8438 22.484 0 15.047-3.8438 22.531-3.8281 7.5-11.5 7.5zm0 7.8125q12.266 0 18.734-9.7031 6.4688-9.6875 6.4688-28.141 0-18.406-6.4688-28.109-6.4688-9.6875-18.734-9.6875-12.25 0-18.719 9.6875-6.4688 9.7031-6.4688 28.109 0 18.453 6.4688 28.141 6.4688 9.7031 18.719 9.7031z"/>
</defs>
<g transform="translate(784.21 850.98) scale(.1 -.1)">
<use xlink:href="#c"/>
<use x="63.623047" xlink:href="#e"/>
<use x="95.410156" xlink:href="#c"/>
<use x="159.033203" xlink:href="#ad"/>
</g>
</g>
<g clip-path="url(#a)">
<g transform="translate(947.11 368.41) scale(.1 -.1)">
<use xlink:href="#c"/>
<use x="63.623047" xlink:href="#e"/>
<use x="95.410156" xlink:href="#c"/>
<use x="159.033203" xlink:href="#c"/>
</g>
</g>
<g clip-path="url(#a)">
<g transform="translate(831.54 850.98) scale(.1 -.1)">
<use xlink:href="#c"/>
<use x="63.623047" xlink:href="#e"/>
<use x="95.410156" xlink:href="#c"/>
<use x="159.033203" xlink:href="#m"/>
</g>
</g>
<g clip-path="url(#a)">
<defs>
<path id="n" d="m40.578 39.312q7.0781-1.5156 11.047-6.3125 3.9844-4.7812 3.9844-11.812 0-10.781-7.4219-16.703-7.4219-5.9062-21.094-5.9062-4.5781 0-9.4375 0.90625t-10.031 2.7188v9.5156q4.0938-2.3906 8.9688-3.6094 4.8906-1.2188 10.219-1.2188 9.2656 0 14.125 3.6562t4.8594 10.641q0 6.4531-4.5156 10.078-4.5156 3.6406-12.562 3.6406h-8.5v8.1094h8.8906q7.2656 0 11.125 2.9062t3.8594 8.375q0 5.6094-3.9844 8.6094-3.9688 3.0156-11.391 3.0156-4.0625 0-8.7031-0.89062-4.6406-0.875-10.203-2.7188v8.7812q5.625 1.5625 10.531 2.3438t9.25 0.78125q11.234 0 17.766-5.1094 6.5469-5.0938 6.5469-13.781 0-6.0625-3.4688-10.234t-9.8594-5.7812z"/>
</defs>
<g transform="translate(878.87 850.98) scale(.1 -.1)">
<use xlink:href="#c"/>
<use x="63.623047" xlink:href="#e"/>
<use x="95.410156" xlink:href="#c"/>
<use x="159.033203" xlink:href="#n"/>
</g>
</g>
<g clip-path="url(#a)">
<defs>
<path id="o" d="m37.797 64.312-24.906-38.922h24.906zm-2.5938 8.5938h12.406v-47.516h10.406v-8.2031h-10.406v-17.188h-9.8125v17.188h-32.906v9.5156z"/>
</defs>
<g transform="translate(1130.9 469.22) scale(.1 -.1)">
<use xlink:href="#c"/>
<use x="63.623047" xlink:href="#e"/>
<use x="95.410156" xlink:href="#c"/>
<use x="159.033203" xlink:href="#o"/>
</g>
</g>
<g clip-path="url(#a)">
<g transform="translate(973.53 850.98) scale(.1 -.1)">
<use xlink:href="#c"/>
<use x="63.623047" xlink:href="#e"/>
<use x="95.410156" xlink:href="#c"/>
<use x="159.033203" xlink:href="#s"/>
</g>
</g>
<g clip-path="url(#a)">
<g transform="translate(1366.5 567.54) scale(.1 -.1)">
<use xlink:href="#c"/>
<use x="63.623047" xlink:href="#e"/>
<use x="95.410156" xlink:href="#c"/>
<use x="159.033203" xlink:href="#ac"/>
</g>
</g>
<g clip-path="url(#a)">
<g transform="translate(1237.2 757.96) scale(.1 -.1)">
<use xlink:href="#c"/>
<use x="63.623047" xlink:href="#e"/>
<use x="95.410156" xlink:href="#c"/>
<use x="159.033203" xlink:href="#ab"/>
</g>
</g>
<g clip-path="url(#a)">
<g transform="translate(1446.8 850.98) scale(.1 -.1)">
<use xlink:href="#c"/>
<use x="63.623047" xlink:href="#e"/>
<use x="95.410156" xlink:href="#m"/>
<use x="159.033203" xlink:href="#ad"/>
</g>
</g>
<g clip-path="url(#a)">
<g transform="translate(1415.3 663.66) scale(.1 -.1)">
<use xlink:href="#c"/>
<use x="63.623047" xlink:href="#e"/>
<use x="95.410156" xlink:href="#m"/>
<use x="159.033203" xlink:href="#c"/>
</g>
</g>
<g clip-path="url(#a)">
<g transform="translate(1636.2 757.96) scale(.1 -.1)">
<use xlink:href="#c"/>
<use x="63.623047" xlink:href="#e"/>
<use x="95.410156" xlink:href="#m"/>
<use x="159.033203" xlink:href="#m"/>
</g>
</g>
<g clip-path="url(#a)">
<g transform="translate(1494.2 850.98) scale(.1 -.1)">
<use xlink:href="#c"/>
<use x="63.623047" xlink:href="#e"/>
<use x="95.410156" xlink:href="#m"/>
<use x="159.033203" xlink:href="#n"/>
</g>
</g>
<g clip-path="url(#a)">
<g transform="translate(1541.5 850.98) scale(.1 -.1)">
<use xlink:href="#c"/>
<use x="63.623047" xlink:href="#e"/>
<use x="95.410156" xlink:href="#m"/>
<use x="159.033203" xlink:href="#o"/>
</g>
</g>
<g clip-path="url(#a)">
<g transform="translate(1588.8 850.98) scale(.1 -.1)">
<use xlink:href="#c"/>
<use x="63.623047" xlink:href="#e"/>
<use x="95.410156" xlink:href="#m"/>
<use x="159.033203" xlink:href="#s"/>
</g>
</g>
<g clip-path="url(#a)">
<g transform="translate(1636.2 850.98) scale(.1 -.1)">
<use xlink:href="#c"/>
<use x="63.623047" xlink:href="#e"/>
<use x="95.410156" xlink:href="#m"/>
<use x="159.033203" xlink:href="#ac"/>
</g>
</g>
<g clip-path="url(#a)">
<g transform="translate(1683.5 850.98) scale(.1 -.1)">
<use xlink:href="#c"/>
<use x="63.623047" xlink:href="#e"/>
<use x="95.410156" xlink:href="#m"/>
<use x="159.033203" xlink:href="#ag"/>
</g>
</g>
<g clip-path="url(#a)">
<defs>
<path id="aj" d="m31.781 34.625q-7.0312 0-11.062-3.7656-4.0156-3.7656-4.0156-10.344 0-6.5938 4.0156-10.359 4.0312-3.7656 11.062-3.7656t11.078 3.7812q4.0625 3.7969 4.0625 10.344 0 6.5781-4.0312 10.344-4.0156 3.7656-11.109 3.7656zm-9.8594 4.1875q-6.3438 1.5625-9.8906 5.9062-3.5312 4.3594-3.5312 10.609 0 8.7344 6.2188 13.812 6.2344 5.0781 17.062 5.0781 10.891 0 17.094-5.0781t6.2031-13.812q0-6.25-3.5469-10.609-3.5312-4.3438-9.8281-5.9062 7.125-1.6562 11.094-6.5 3.9844-4.8281 3.9844-11.797 0-10.609-6.4688-16.281-6.4688-5.6562-18.531-5.6562-12.047 0-18.531 5.6562-6.4688 5.6719-6.4688 16.281 0 6.9688 4 11.797 4.0156 4.8438 11.141 6.5zm-3.6094 15.578q0-5.6562 3.5312-8.8281 3.5469-3.1719 9.9375-3.1719 6.3594 0 9.9375 3.1719 3.5938 3.1719 3.5938 8.8281 0 5.6719-3.5938 8.8438-3.5781 3.1719-9.9375 3.1719-6.3906 0-9.9375-3.1719-3.5312-3.1719-3.5312-8.8438z"/>
</defs>
<g transform="translate(1162.9 850.98) scale(.1 -.1)">
<use xlink:href="#c"/>
<use x="63.623047" xlink:href="#e"/>
<use x="95.410156" xlink:href="#m"/>
<use x="159.033203" xlink:href="#aj"/>
</g>
</g>
<g clip-path="url(#a)">
<g transform="translate(1210.2 850.98) scale(.1 -.1)">
<use xlink:href="#c"/>
<use x="63.623047" xlink:href="#e"/>
<use x="95.410156" xlink:href="#m"/>
<use x="159.033203" xlink:href="#ab"/>
</g>
</g>
<g clip-path="url(#a)">
<g transform="translate(1257.5 850.98) scale(.1 -.1)">
<use xlink:href="#c"/>
<use x="63.623047" xlink:href="#e"/>
<use x="95.410156" xlink:href="#n"/>
<use x="159.033203" xlink:href="#ad"/>
</g>
</g>
<g clip-path="url(#a)">
<g transform="translate(1304.9 850.98) scale(.1 -.1)">
<use xlink:href="#c"/>
<use x="63.623047" xlink:href="#e"/>
<use x="95.410156" xlink:href="#n"/>
<use x="159.033203" xlink:href="#c"/>
</g>
</g>
<g clip-path="url(#a)">
<g transform="translate(1352.2 850.98) scale(.1 -.1)">
<use xlink:href="#c"/>
<use x="63.623047" xlink:href="#e"/>
<use x="95.410156" xlink:href="#n"/>
<use x="159.033203" xlink:href="#m"/>
</g>
</g>
<g clip-path="url(#a)">
<g transform="translate(1399.5 850.98) scale(.1 -.1)">
<use xlink:href="#c"/>
<use x="63.623047" xlink:href="#e"/>
<use x="95.410156" xlink:href="#n"/>
<use x="159.033203" xlink:href="#n"/>
</g>
</g>
<g clip-path="url(#a)">
<g transform="translate(370.06 757.96) scale(.1 -.1)">
<use xlink:href="#c"/>
<use x="63.623047" xlink:href="#e"/>
<use x="95.410156" xlink:href="#n"/>
<use x="159.033203" xlink:href="#o"/>
</g>
</g>
<g clip-path="url(#a)">
<g transform="translate(452.89 850.98) scale(.1 -.1)">
<use xlink:href="#c"/>
<use x="63.623047" xlink:href="#e"/>
<use x="95.410156" xlink:href="#n"/>
<use x="159.033203" xlink:href="#s"/>
</g>
</g>
<g clip-path="url(#a)">
<g transform="translate(500.22 850.98) scale(.1 -.1)">
<use xlink:href="#c"/>
<use x="63.623047" xlink:href="#e"/>
<use x="95.410156" xlink:href="#n"/>
<use x="159.033203" xlink:href="#ac"/>
</g>
</g>
<g clip-path="url(#a)">
<g transform="translate(594.88 757.96) scale(.1 -.1)">
<use xlink:href="#c"/>
<use x="63.623047" xlink:href="#e"/>
<use x="95.410156" xlink:href="#n"/>
<use x="159.033203" xlink:href="#ag"/>
</g>
</g>
<g clip-path="url(#a)">
<g transform="translate(689.54 850.98) scale(.1 -.1)">
<use xlink:href="#c"/>
<use x="63.623047" xlink:href="#e"/>
<use x="95.410156" xlink:href="#n"/>
<use x="159.033203" xlink:href="#aj"/>
</g>
</g>
<g clip-path="url(#a)">
<g transform="translate(736.88 850.98) scale(.1 -.1)">
<use xlink:href="#c"/>
<use x="63.623047" xlink:href="#e"/>
<use x="95.410156" xlink:href="#n"/>
<use x="159.033203" xlink:href="#ab"/>
</g>
</g>
<g clip-path="url(#a)">
<g transform="translate(547.55 850.98) scale(.1 -.1)">
<use xlink:href="#c"/>
<use x="63.623047" xlink:href="#e"/>
<use x="95.410156" xlink:href="#o"/>
<use x="159.033203" xlink:href="#ad"/>
</g>
</g>
<g clip-path="url(#a)">
<g transform="translate(594.88 850.98) scale(.1 -.1)">
<use xlink:href="#c"/>
<use x="63.623047" xlink:href="#e"/>
<use x="95.410156" xlink:href="#o"/>
<use x="159.033203" xlink:href="#c"/>
</g>
</g>
<g clip-path="url(#a)">
<g transform="translate(642.21 850.98) scale(.1 -.1)">
<use xlink:href="#c"/>
<use x="63.623047" xlink:href="#e"/>
<use x="95.410156" xlink:href="#o"/>
<use x="159.033203" xlink:href="#m"/>
</g>
</g>
<g clip-path="url(#a)">
<g transform="translate(334.56 850.98) scale(.1 -.1)">
<use xlink:href="#c"/>
<use x="63.623047" xlink:href="#e"/>
<use x="95.410156" xlink:href="#o"/>
<use x="159.033203" xlink:href="#n"/>
</g>
</g>
<g clip-path="url(#a)">
<g transform="translate(405.56 850.98) scale(.1 -.1)">
<use xlink:href="#c"/>
<use x="63.623047" xlink:href="#e"/>
<use x="95.410156" xlink:href="#o"/>
<use x="159.033203" xlink:href="#o"/>
</g>
</g>
<g clip-path="url(#a)">
<g transform="translate(121.57 850.98) scale(.1 -.1)">
<use xlink:href="#c"/>
<use x="63.623047" xlink:href="#e"/>
<use x="95.410156" xlink:href="#o"/>
<use x="159.033203" xlink:href="#s"/>
</g>
</g>
<g clip-path="url(#a)">
<g transform="translate(168.9 850.98) scale(.1 -.1)">
<use xlink:href="#c"/>
<use x="63.623047" xlink:href="#e"/>
<use x="95.410156" xlink:href="#o"/>
<use x="159.033203" xlink:href="#ac"/>
</g>
</g>
<g clip-path="url(#a)">
<g transform="translate(216.23 757.96) scale(.1 -.1)">
<use xlink:href="#c"/>
<use x="63.623047" xlink:href="#e"/>
<use x="95.410156" xlink:href="#o"/>
<use x="159.033203" xlink:href="#ag"/>
</g>
</g>
<g clip-path="url(#a)">
<g transform="translate(216.23 850.98) scale(.1 -.1)">
<use xlink:href="#c"/>
<use x="63.623047" xlink:href="#e"/>
<use x="95.410156" xlink:href="#o"/>
<use x="159.033203" xlink:href="#aj"/>
</g>
</g>
<g clip-path="url(#a)">
<g transform="translate(263.56 850.98) scale(.1 -.1)">
<use xlink:href="#c"/>
<use x="63.623047" xlink:href="#e"/>
<use x="95.410156" xlink:href="#o"/>
<use x="159.033203" xlink:href="#ab"/>
</g>
</g>
<g clip-path="url(#a)">
<g transform="translate(1068.2 850.98) scale(.1 -.1)">
<use xlink:href="#c"/>
<use x="63.623047" xlink:href="#e"/>
<use x="95.410156" xlink:href="#s"/>
<use x="159.033203" xlink:href="#ad"/>
</g>
</g>
<g clip-path="url(#a)">
<g transform="translate(1115.5 850.98) scale(.1 -.1)">
<use xlink:href="#c"/>
<use x="63.623047" xlink:href="#e"/>
<use x="95.410156" xlink:href="#s"/>
<use x="159.033203" xlink:href="#c"/>
</g>
</g>
<g clip-path="url(#a)">
<g transform="translate(1730.8 850.98) scale(.1 -.1)">
<use xlink:href="#c"/>
<use x="63.623047" xlink:href="#e"/>
<use x="95.410156" xlink:href="#s"/>
<use x="159.033203" xlink:href="#m"/>
</g>
</g>
<g clip-path="url(#a)">
<g transform="translate(1778.2 850.98) scale(.1 -.1)">
<use xlink:href="#c"/>
<use x="63.623047" xlink:href="#e"/>
<use x="95.410156" xlink:href="#s"/>
<use x="159.033203" xlink:href="#n"/>
</g>
</g>
<defs>
<clipPath id="a">
<rect width="1874.7" height="986.67"/>
</clipPath>
</defs>
</svg>
