<?xml version="1.0" encoding="UTF-8"?>
<!DOCTYPE svg  PUBLIC '-//W3C//DTD SVG 1.1//EN'  'http://www.w3.org/Graphics/SVG/1.1/DTD/svg11.dtd'>
<svg width="2178.7pt" height="1146.7pt" version="1.1" viewBox="0 0 2178.7 1146.7" xmlns="http://www.w3.org/2000/svg" xmlns:xlink="http://www.w3.org/1999/xlink">
<defs>
<style type="text/css">*{stroke-linecap:butt;stroke-linejoin:round;}</style>
</defs>
<path d="m0 1146.7h2178.7v-1146.7h-2178.7z" fill="#fff"/>
<g fill="none" stroke="#000">
<path d="m939.52 53.036-296.35 182.26" clip-path="url(#a)"/>
<path d="m939.52 53.036-698.9 872.44" clip-path="url(#a)"/>
<path d="m939.52 53.036-563.34 533.78" clip-path="url(#a)"/>
<path d="m939.52 53.036 393.03 360" clip-path="url(#a)"/>
<path d="m939.52 53.036 951.38 872.44" clip-path="url(#a)"/>
<path d="m939.52 53.036 1085 533.78" clip-path="url(#a)"/>
<path d="m939.52 53.036-746.05 872.44" clip-path="url(#a)"/>
<path d="m939.52 53.036-321.7 872.44" clip-path="url(#a)"/>
<path d="m939.52 53.036 196.96 872.44" clip-path="url(#a)"/>
<path d="m643.17 235.3-520.43 522.02" clip-path="url(#a)"/>
<path d="m643.17 235.3 21.807 690.17" clip-path="url(#a)"/>
<path d="m643.17 235.3 68.958 690.17" clip-path="url(#a)"/>
<path d="m643.17 235.3 116.11 690.17" clip-path="url(#a)"/>
<path d="m643.17 235.3 313.55 177.74" clip-path="url(#a)"/>
<path d="m240.62 925.47v168.16" clip-path="url(#a)"/>
<path d="m376.18 586.82-88.408 338.65" clip-path="url(#a)"/>
<path d="m376.18 586.82-41.257 338.65" clip-path="url(#a)"/>
<path d="m376.18 586.82 5.8939 338.65" clip-path="url(#a)"/>
<path d="m376.18 586.82 123.77 170.5" clip-path="url(#a)"/>
<path d="m1332.6 413.04-148.92 512.43" clip-path="url(#a)"/>
<path d="m1332.6 413.04 53.438 173.78" clip-path="url(#a)"/>
<path d="m1332.6 413.04 440.47 344.28" clip-path="url(#a)"/>
<path d="m1332.6 413.04-667.58 512.43" clip-path="url(#a)" stroke-dasharray="3.7,1.6"/>
<path d="m1332.6 413.04 322.59 512.43" clip-path="url(#a)"/>
<path d="m1890.9 925.47v168.16" clip-path="url(#a)"/>
<path d="m2024.5 586.82-62.868 170.5" clip-path="url(#a)"/>
<path d="m2024.5 586.82 7.8585 338.65" clip-path="url(#a)"/>
<path d="m2024.5 586.82 55.009 338.65" clip-path="url(#a)"/>
<path d="m1961.6 757.32-23.575 168.16" clip-path="url(#a)"/>
<path d="m1961.6 757.32 23.575 168.16" clip-path="url(#a)"/>
<path d="m2032.4 925.47v168.16" clip-path="url(#a)"/>
<path d="m1938 925.47v168.16" clip-path="url(#a)"/>
<path d="m1985.2 925.47v168.16" clip-path="url(#a)"/>
<path d="m1183.6 925.47v168.16" clip-path="url(#a)"/>
<path d="m1386 586.82-155.2 338.65" clip-path="url(#a)"/>
<path d="m1386 586.82 41.257 170.5" clip-path="url(#a)"/>
<path d="m1386 586.82 222 338.65" clip-path="url(#a)"/>
<path d="m1386 586.82-108.05 338.65" clip-path="url(#a)"/>
<path d="m1773 757.32-70.726 168.16" clip-path="url(#a)"/>
<path d="m1773 757.32-23.575 168.16" clip-path="url(#a)"/>
<path d="m1773 757.32 70.726 168.16" clip-path="url(#a)"/>
<path d="m1773 757.32 23.575 168.16" clip-path="url(#a)"/>
<path d="m1702.3 925.47v168.16" clip-path="url(#a)"/>
<path d="m1749.4 925.47v168.16" clip-path="url(#a)"/>
<path d="m1843.7 925.47v168.16" clip-path="url(#a)"/>
<path d="m1230.8 925.47v168.16" clip-path="url(#a)"/>
<path d="m1427.2 757.32-78.585 168.16" clip-path="url(#a)"/>
<path d="m1427.2 757.32-7.8585 168.16" clip-path="url(#a)"/>
<path d="m1427.2 757.32 86.443 168.16" clip-path="url(#a)"/>
<path d="m1608 925.47v168.16" clip-path="url(#a)"/>
<path d="m1348.7 925.47-23.575 168.16" clip-path="url(#a)"/>
<path d="m1348.7 925.47 23.575 168.16" clip-path="url(#a)"/>
<path d="m1419.4 925.47v168.16" clip-path="url(#a)"/>
<path d="m1513.7 925.47-47.151 168.16" clip-path="url(#a)"/>
<path d="m1513.7 925.47v168.16" clip-path="url(#a)"/>
<path d="m1513.7 925.47 47.151 168.16" clip-path="url(#a)"/>
<path d="m287.77 925.47v168.16" clip-path="url(#a)"/>
<path d="m334.92 925.47v168.16" clip-path="url(#a)"/>
<path d="m382.07 925.47v168.16" clip-path="url(#a)"/>
<path d="m499.95 757.32-70.726 168.16" clip-path="url(#a)"/>
<path d="m499.95 757.32-23.575 168.16" clip-path="url(#a)"/>
<path d="m499.95 757.32 23.575 168.16" clip-path="url(#a)"/>
<path d="m499.95 757.32 70.726 168.16" clip-path="url(#a)"/>
<path d="m429.22 925.47v168.16" clip-path="url(#a)"/>
<path d="m476.37 925.47v168.16" clip-path="url(#a)"/>
<path d="m523.52 925.47v168.16" clip-path="url(#a)"/>
<path d="m570.67 925.47v168.16" clip-path="url(#a)"/>
<path d="m122.74 757.32-23.575 168.16" clip-path="url(#a)"/>
<path d="m122.74 757.32 23.575 168.16" clip-path="url(#a)"/>
<path d="m664.98 925.47v168.16" clip-path="url(#a)"/>
<path d="m712.13 925.47v168.16" clip-path="url(#a)"/>
<path d="m759.28 925.47v168.16" clip-path="url(#a)"/>
<path d="m956.72 413.04-61.886 173.78" clip-path="url(#a)"/>
<path d="m956.72 413.04 61.886 344.28" clip-path="url(#a)"/>
<path d="m894.84 586.82 123.77 170.5" clip-path="url(#a)" stroke-dasharray="3.7,1.6"/>
<path d="m894.84 586.82-88.408 338.65" clip-path="url(#a)"/>
<path d="m894.84 586.82-41.257 338.65" clip-path="url(#a)"/>
<path d="m894.84 586.82 5.8939 338.65" clip-path="url(#a)"/>
<path d="m1018.6 757.32-70.726 336.32" clip-path="url(#a)"/>
<path d="m1018.6 757.32-23.575 336.32" clip-path="url(#a)"/>
<path d="m1018.6 757.32 70.726 336.32" clip-path="url(#a)"/>
<path d="m1018.6 757.32 23.575 168.16" clip-path="url(#a)"/>
<path d="m193.47 925.47v168.16" clip-path="url(#a)"/>
<path d="m806.43 925.47v168.16" clip-path="url(#a)"/>
<path d="m853.58 925.47v168.16" clip-path="url(#a)"/>
<path d="m900.73 925.47v168.16" clip-path="url(#a)"/>
<path d="m99.165 925.47v168.16" clip-path="url(#a)"/>
<path d="m146.32 925.47v168.16" clip-path="url(#a)"/>
<path d="m617.82 925.47v168.16" clip-path="url(#a)"/>
<path d="m1042.2 925.47v168.16" clip-path="url(#a)"/>
<path d="m1136.5 925.47v168.16" clip-path="url(#a)"/>
<path d="m1277.9 925.47v168.16" clip-path="url(#a)"/>
<path d="m1655.1 925.47v168.16" clip-path="url(#a)"/>
<path d="m1796.6 925.47v168.16" clip-path="url(#a)"/>
<path d="m2079.5 925.47v168.16" clip-path="url(#a)"/>
</g>
<path d="m792.07 151.09 5.1246-3.1518q2.0443-1.2573 0.78701-3.3016l-4.0561-6.595q-1.2573-2.0443-3.3016-0.78701l-5.1246 3.1518q-2.0443 1.2573-0.78701 3.3016l4.0561 6.595q1.2573 2.0443 3.3016 0.78701z" clip-path="url(#a)" fill="#fff" stroke="#fff"/>
<g clip-path="url(#a)">
<defs>
<path id="ah" d="m9.8125 72.906h9.8594v-29.891h35.844v29.891h9.8594v-72.906h-9.8594v34.719h-35.844v-34.719h-9.8594z"/>
</defs>
<g transform="translate(789.94 147.62) rotate(-31.593) scale(.08 -.08)">
<use xlink:href="#ah"/>
</g>
</g>
<path d="m593.57 494.91 2.7869-3.4789q1.5005-1.8731-0.37257-3.3736l-6.0427-4.8407q-1.8731-1.5005-3.3736 0.37257l-2.7869 3.4789q-1.5005 1.8731 0.37257 3.3736l6.0427 4.8407q1.8731 1.5005 3.3736-0.37257z" clip-path="url(#a)" fill="#fff" stroke="#fff"/>
<g clip-path="url(#a)">
<defs>
<path id="an" d="m9.8125 72.906h9.8594v-64.609h35.5v-8.2969h-45.359z"/>
</defs>
<g transform="translate(590.4 492.37) rotate(-51.302) scale(.08 -.08)">
<use xlink:href="#an"/>
</g>
</g>
<path d="m659.98 326.55 4.3672-4.138q1.7421-1.6507 0.091416-3.3929l-5.3253-5.6202q-1.6507-1.7421-3.3929-0.091416l-4.3672 4.138q-1.7421 1.6507-0.091416 3.3929l5.3253 5.6202q1.6507 1.7421 3.3929 0.091416z" clip-path="url(#a)" fill="#fff" stroke="#fff"/>
<g clip-path="url(#a)">
<g transform="translate(657.18 323.6) rotate(-43.457) scale(.08 -.08)">
<use xlink:href="#ah"/>
</g>
</g>
<path d="m1129.6 235.63 4.4365 4.0636q1.7698 1.6211 3.3909-0.14873l5.2296-5.7094q1.6211-1.7698-0.14873-3.3909l-4.4365-4.0636q-1.7698-1.6211-3.3909 0.14873l-5.2296 5.7094q-1.6211 1.7698 0.14873 3.3909z" clip-path="url(#a)" fill="#fff" stroke="#fff"/>
<g clip-path="url(#a)">
<g transform="translate(1132.3 232.63) rotate(42.489) scale(.08 -.08)">
<use xlink:href="#ah"/>
</g>
</g>
<path d="m1409.3 492.37 3.2853 3.0127q1.7689 1.6221 3.3909-0.14677l5.2329-5.7064q1.6221-1.7689-0.14677-3.3909l-3.2853-3.0127q-1.7689-1.6221-3.3909 0.14677l-5.2329 5.7064q-1.6221 1.7689 0.14677 3.3909z" clip-path="url(#a)" fill="#fff" stroke="#fff"/>
<g clip-path="url(#a)">
<g transform="translate(1412.1 489.38) rotate(42.522) scale(.08 -.08)">
<use xlink:href="#an"/>
</g>
</g>
<path d="m1476.5 324.23 5.3983 2.6559q2.1535 1.0595 3.213-1.094l3.4179-6.9472q1.0595-2.1535-1.094-3.213l-5.3983-2.6559q-2.1535-1.0595-3.213 1.094l-3.4179 6.9472q-1.0595 2.1535 1.094 3.213z" clip-path="url(#a)" fill="#fff" stroke="#fff"/>
<g clip-path="url(#a)">
<g transform="translate(1478.3 320.58) rotate(26.196) scale(.08 -.08)">
<use xlink:href="#ah"/>
</g>
</g>
<path d="m569.36 495.56 3.8052-4.4499q1.5598-1.824-0.26424-3.3838l-5.8844-5.0319q-1.824-1.5598-3.3838 0.26423l-3.8052 4.4499q-1.5598 1.824 0.26423 3.3838l5.8844 5.0319q1.824 1.5598 3.3838-0.26424z" clip-path="url(#a)" fill="#fff" stroke="#fff"/>
<g clip-path="url(#a)">
<defs>
<path id="w" d="m8.6875 72.906h9.9219v-44.297q0-11.719 4.2344-16.875 4.25-5.1406 13.781-5.1406 9.4688 0 13.719 5.1406 4.25 5.1562 4.25 16.875v44.297h9.9062v-45.516q0-14.25-7.0625-21.531-7.0469-7.2812-20.812-7.2812-13.828 0-20.891 7.2812-7.0469 7.2812-7.0469 21.531z"/>
</defs>
<g transform="translate(566.27 492.91) rotate(-49.465) scale(.08 -.08)">
<use xlink:href="#w"/>
</g>
</g>
<path d="m783.54 494.17 2.0256-5.4934q0.83031-2.2518-1.4215-3.0821l-7.2644-2.6786q-2.2518-0.83031-3.0821 1.4215l-2.0256 5.4934q-0.83031 2.2518 1.4215 3.0821l7.2644 2.6786q2.2518 0.83031 3.0821-1.4215z" clip-path="url(#a)" fill="#fff" stroke="#fff"/>
<g clip-path="url(#a)">
<g transform="translate(779.73 492.76) rotate(-69.759) scale(.08 -.08)">
<use xlink:href="#w"/>
</g>
</g>
<path d="m1031.2 487.78 1.2894 5.7113q0.52853 2.3411 2.8696 1.8126l7.5524-1.7051q2.3411-0.52853 1.8126-2.8696l-1.2894-5.7113q-0.52853-2.3411-2.8696-1.8126l-7.5524 1.7051q-2.3411 0.52853-1.8126 2.8696z" clip-path="url(#a)" fill="#fff" stroke="#fff"/>
<g clip-path="url(#a)">
<g transform="translate(1035.2 486.89) rotate(77.278) scale(.08 -.08)">
<use xlink:href="#w"/>
</g>
</g>
<path d="m385.67 502.47 3.4498-3.4604q1.6945-1.6996-0.005173-3.3941l-5.4831-5.4664q-1.6996-1.6945-3.3941 0.005173l-3.4498 3.4604q-1.6945 1.6996 0.005173 3.3941l5.4831 5.4664q1.6996 1.6945 3.3941-0.005173z" clip-path="url(#a)" fill="#fff" stroke="#fff"/>
<g clip-path="url(#a)">
<defs>
<path id="l" d="m-0.29688 72.906h61.672v-8.3125h-25.875v-64.594h-9.9062v64.594h-25.891z"/>
</defs>
<g transform="translate(382.79 499.6) rotate(-45.087) scale(.08 -.08)">
<use xlink:href="#l"/>
</g>
</g>
<path d="m647.72 577.85 0.17283 5.4698q0.075795 2.3988 2.4746 2.323l7.7386-0.24452q2.3988-0.075794 2.323-2.4746l-0.17283-5.4698q-0.075795-2.3988-2.4746-2.323l-7.7386 0.24452q-2.3988 0.075795-2.323 2.4746z" clip-path="url(#a)" fill="#fff" stroke="#fff"/>
<g clip-path="url(#a)">
<defs>
<path id="s" d="m34.188 63.188-13.391-36.281h26.812zm-5.5781 9.7188h11.188l27.781-72.906h-10.25l-6.6406 18.703h-32.859l-6.6406-18.703h-10.406z"/>
</defs>
<g transform="translate(651.78 577.72) rotate(88.19) scale(.08 -.08)">
<use xlink:href="#s"/>
</g>
</g>
<path d="m671.1 577.95 0.61242 6.1295q0.23861 2.3881 2.6267 2.1495l7.7041-0.76975q2.3881-0.23861 2.1495-2.6267l-0.61242-6.1295q-0.23861-2.3881-2.6267-2.1495l-7.7041 0.76975q-2.3881 0.23861-2.1495 2.6267z" clip-path="url(#a)" fill="#fff" stroke="#fff"/>
<g clip-path="url(#a)">
<defs>
<path id="ai" d="m19.672 64.797v-56.688h11.922q15.094 0 22.094 6.8281 7 6.8438 7 21.594 0 14.641-7 21.453t-22.094 6.8125zm-9.8594 8.1094h20.266q21.188 0 31.094-8.8125 9.9219-8.8125 9.9219-27.562 0-18.859-9.9688-27.703-9.9531-8.8281-31.047-8.8281h-20.266z"/>
</defs>
<g transform="translate(675.14 577.54) rotate(84.294) scale(.08 -.08)">
<use xlink:href="#ai"/>
</g>
</g>
<path d="m694.64 579.05 0.80026 4.7569q0.39816 2.3667 2.7649 1.9686l7.6352-1.2845q2.3667-0.39816 1.9686-2.7649l-0.80026-4.7569q-0.39816-2.3667-2.7649-1.9686l-7.6352 1.2845q-2.3667 0.39816-1.9686 2.7649z" clip-path="url(#a)" fill="#fff" stroke="#fff"/>
<g clip-path="url(#a)">
<defs>
<path id="x" d="m19.672 64.797v-27.391h12.406q6.8906 0 10.641 3.5625 3.7656 3.5625 3.7656 10.156 0 6.5469-3.7656 10.109-3.75 3.5625-10.641 3.5625zm-9.8594 8.1094h22.266q12.266 0 18.531-5.5469 6.2812-5.5469 6.2812-16.234 0-10.797-6.2812-16.312-6.2656-5.5156-18.531-5.5156h-12.406v-29.297h-9.8594z"/>
</defs>
<g transform="translate(698.65 578.37) rotate(80.45) scale(.08 -.08)">
<use xlink:href="#x"/>
</g>
</g>
<path d="m794.47 328.28 4.7608 2.6987q2.0879 1.1835 3.2714-0.90435l3.8181-6.7356q1.1835-2.0879-0.90435-3.2714l-4.7608-2.6987q-2.0879-1.1835-3.2714 0.90435l-3.8181 6.7356q-1.1835 2.0879 0.90435 3.2714z" clip-path="url(#a)" fill="#fff" stroke="#fff"/>
<g clip-path="url(#a)">
<g transform="translate(796.48 324.74) rotate(29.547) scale(.08 -.08)">
<use xlink:href="#s"/>
</g>
</g>
<path d="m234.35 991.91v35.285q0 2.4 2.4 2.4h7.7425q2.4 0 2.4-2.4v-35.285q0-2.4-2.4-2.4h-7.7425q-2.4 0-2.4 2.4z" clip-path="url(#a)" fill="#fff" stroke="#fff"/>
<g clip-path="url(#a)">
<defs>
<path id="e" d="m56.203 29.594v-4.3906h-41.312q0.59375-9.2812 5.5938-14.141t13.938-4.8594q5.1719 0 10.031 1.2656t9.6562 3.8125v-8.5q-4.8438-2.0469-9.9219-3.125t-10.297-1.0781q-13.094 0-20.734 7.6094-7.6406 7.625-7.6406 20.625 0 13.422 7.25 21.297 7.25 7.8906 19.562 7.8906 11.031 0 17.453-7.1094 6.4219-7.0938 6.4219-19.297zm-8.9844 2.6406q-0.09375 7.3594-4.125 11.75-4.0312 4.4062-10.672 4.4062-7.5156 0-12.031-4.25t-5.2031-11.969z"/>
<path id="i" d="m41.109 46.297q-1.5156 0.875-3.2969 1.2812-1.7812 0.42188-3.9219 0.42188-7.625 0-11.703-4.9531t-4.0781-14.234v-28.812h-9.0312v54.688h9.0312v-8.5q2.8438 4.9844 7.375 7.3906 4.5469 2.4219 11.047 2.4219 0.92188 0 2.0469-0.125 1.125-0.10938 2.4844-0.35938z"/>
<path id="k" d="m52 44.188q3.375 6.0625 8.0625 8.9375t11.031 2.875q8.5469 0 13.188-5.9844 4.6406-5.9688 4.6406-17v-33.016h-9.0312v32.719q0 7.8594-2.7969 11.656-2.7812 3.8125-8.4844 3.8125-6.9844 0-11.047-4.6406-4.0469-4.625-4.0469-12.641v-30.906h-9.0312v32.719q0 7.9062-2.7812 11.688t-8.5938 3.7812q-6.8906 0-10.953-4.6562-4.0469-4.6562-4.0469-12.625v-30.906h-9.0312v54.688h9.0312v-8.5q3.0781 5.0312 7.375 7.4219t10.203 2.3906q5.9688 0 10.141-3.0312 4.1719-3.0156 6.1719-8.7812z"/>
<path id="f" d="m9.4219 54.688h8.9844v-54.688h-8.9844zm0 21.297h8.9844v-11.391h-8.9844z"/>
<path id="g" d="m54.891 33.016v-33.016h-8.9844v32.719q0 7.7656-3.0312 11.609-3.0312 3.8594-9.0781 3.8594-7.2812 0-11.484-4.6406-4.2031-4.625-4.2031-12.641v-30.906h-9.0312v54.688h9.0312v-8.5q3.2344 4.9375 7.5938 7.375 4.375 2.4375 10.094 2.4375 9.4219 0 14.25-5.8281 4.8438-5.8281 4.8438-17.156z"/>
<path id="d" d="m34.281 27.484q-10.891 0-15.094-2.4844t-4.2031-8.5q0-4.7812 3.1562-7.5938 3.1562-2.7969 8.5625-2.7969 7.4844 0 12 5.2969t4.5156 14.078v2zm17.922 3.7188v-31.203h-8.9844v8.2969q-3.0781-4.9688-7.6719-7.3438t-11.234-2.375q-8.3906 0-13.359 4.7188-4.9531 4.7188-4.9531 12.625 0 9.2188 6.1719 13.906 6.1875 4.6875 18.438 4.6875h12.609v0.89062q0 6.2031-4.0781 9.5938t-11.453 3.3906q-4.6875 0-9.1406-1.125-4.4375-1.125-8.5312-3.375v8.3125q4.9219 1.9062 9.5625 2.8438 4.6406 0.95312 9.0312 0.95312 11.875 0 17.734-6.1562 5.8594-6.1406 5.8594-18.641z"/>
<path id="j" d="m9.4219 75.984h8.9844v-75.984h-8.9844z"/>
</defs>
<g transform="translate(238.41 991.91) rotate(90) scale(.08 -.08)">
<use xlink:href="#l"/>
<use x="60.818359" xlink:href="#e"/>
<use x="122.341797" xlink:href="#i"/>
<use x="163.439453" xlink:href="#k"/>
<use x="260.851562" xlink:href="#f"/>
<use x="288.634766" xlink:href="#g"/>
<use x="352.013672" xlink:href="#d"/>
<use x="413.292969" xlink:href="#j"/>
</g>
</g>
<path d="m337.35 760.38 1.3823-5.295q0.60622-2.3222-1.716-2.9284l-7.4914-1.9557q-2.3222-0.60622-2.9284 1.716l-1.3823 5.295q-0.60622 2.3222 1.716 2.9284l7.4914 1.9557q2.3222 0.60622 2.9284-1.716z" clip-path="url(#a)" fill="#fff" stroke="#fff"/>
<g clip-path="url(#a)">
<g transform="translate(333.42 759.35) rotate(-75.369) scale(.08 -.08)">
<use xlink:href="#s"/>
</g>
</g>
<path d="m361.4 759.96 0.74494-6.1148q0.29024-2.3824-2.0921-2.6726l-7.6857-0.93632q-2.3824-0.29024-2.6726 2.0921l-0.74494 6.1148q-0.29024 2.3824 2.0921 2.6726l7.6857 0.93632q2.3824 0.29024 2.6726-2.0921z" clip-path="url(#a)" fill="#fff" stroke="#fff"/>
<g clip-path="url(#a)">
<g transform="translate(357.37 759.47) rotate(-83.054) scale(.08 -.08)">
<use xlink:href="#ai"/>
</g>
</g>
<path d="m372.81 753.84 0.083938 4.823q0.041763 2.3996 2.4414 2.3579l7.7413-0.13473q2.3996-0.041763 2.3579-2.4414l-0.083938-4.823q-0.041763-2.3996-2.4414-2.3579l-7.7413 0.13473q-2.3996 0.041763-2.3579 2.4414z" clip-path="url(#a)" fill="#fff" stroke="#fff"/>
<g clip-path="url(#a)">
<g transform="translate(376.87 753.77) rotate(89.003) scale(.08 -.08)">
<use xlink:href="#x"/>
</g>
</g>
<path d="m431.38 673.54 3.2149 4.4286q1.4099 1.9422 3.3521 0.53227l6.2656-4.5485q1.9422-1.4099 0.53227-3.3521l-3.2149-4.4286q-1.4099-1.9422-3.3521-0.53227l-6.2656 4.5485q-1.9422 1.4099-0.53227 3.3521z" clip-path="url(#a)" fill="#fff" stroke="#fff"/>
<g clip-path="url(#a)">
<g transform="translate(434.67 671.15) rotate(54.022) scale(.08 -.08)">
<use xlink:href="#s"/>
</g>
</g>
<path d="m1263.4 673.32 1.3461-4.6321q0.66975-2.3047-1.6349-2.9744l-7.4349-2.1607q-2.3047-0.66975-2.9744 1.6349l-1.3461 4.6321q-0.66975 2.3047 1.6349 2.9744l7.4349 2.1607q2.3047 0.66975 2.9744-1.6349z" clip-path="url(#a)" fill="#fff" stroke="#fff"/>
<g clip-path="url(#a)">
<g transform="translate(1259.5 672.19) rotate(-73.796) scale(.08 -.08)">
<use xlink:href="#x"/>
</g>
</g>
<path d="m1352.5 499.16 1.6085 5.2308q0.70541 2.294 2.9994 1.5886l7.4005-2.2757q2.294-0.70541 1.5886-2.9994l-1.6085-5.2308q-0.70541-2.294-2.9994-1.5886l-7.4005 2.2757q-2.294 0.70541-1.5886 2.9994z" clip-path="url(#a)" fill="#fff" stroke="#fff"/>
<g clip-path="url(#a)">
<g transform="translate(1356.4 497.96) rotate(72.907) scale(.08 -.08)">
<use xlink:href="#s"/>
</g>
</g>
<path d="m1546.8 588.43 4.3117 3.3701q1.8909 1.478 3.3689-0.41295l4.768-6.1002q1.478-1.8909-0.41295-3.3689l-4.3117-3.3701q-1.8909-1.478-3.3689 0.41295l-4.768 6.1002q-1.478 1.8909 0.41295 3.3689z" clip-path="url(#a)" fill="#fff" stroke="#fff"/>
<g clip-path="url(#a)">
<g transform="translate(1549.3 585.23) rotate(38.012) scale(.08 -.08)">
<use xlink:href="#s"/>
</g>
</g>
<path d="m1000.4 675.9 4.341-3.3322q1.9038-1.4614 0.44244-3.3652l-4.7144-6.1417q-1.4614-1.9038-3.3652-0.44244l-4.341 3.3322q-1.9038 1.4614-0.44244 3.3652l4.7144 6.1417q1.4614 1.9038 3.3652 0.44244z" clip-path="url(#a)" fill="#fff" stroke="#fff"/>
<g clip-path="url(#a)">
<g transform="translate(997.94 672.67) rotate(-37.51) scale(.08 -.08)">
<use xlink:href="#s"/>
</g>
</g>
<path d="m1487 670.12 3.1193 4.9549q1.2786 2.0311 3.3097 0.75245l6.5523-4.1248q2.0311-1.2786 0.75245-3.3097l-3.1193-4.9549q-1.2786-2.0311-3.3097-0.75245l-6.5523 4.1248q-2.0311 1.2786-0.75245 3.3097z" clip-path="url(#a)" fill="#fff" stroke="#fff"/>
<g clip-path="url(#a)">
<g transform="translate(1490.4 667.95) rotate(57.809) scale(.08 -.08)">
<use xlink:href="#w"/>
</g>
</g>
<path d="m1884.6 991.91v35.285q0 2.4 2.4 2.4h7.7425q2.4 0 2.4-2.4v-35.285q0-2.4-2.4-2.4h-7.7425q-2.4 0-2.4 2.4z" clip-path="url(#a)" fill="#fff" stroke="#fff"/>
<g clip-path="url(#a)">
<g transform="translate(1888.7 991.91) rotate(90) scale(.08 -.08)">
<use xlink:href="#l"/>
<use x="60.818359" xlink:href="#e"/>
<use x="122.341797" xlink:href="#i"/>
<use x="163.439453" xlink:href="#k"/>
<use x="260.851562" xlink:href="#f"/>
<use x="288.634766" xlink:href="#g"/>
<use x="352.013672" xlink:href="#d"/>
<use x="413.292969" xlink:href="#j"/>
</g>
</g>
<path d="m1998 676.8 1.8933-5.1346q0.83031-2.2518-1.4215-3.0821l-7.2644-2.6786q-2.2518-0.83031-3.0821 1.4215l-1.8933 5.1346q-0.83031 2.2518 1.4215 3.0821l7.2644 2.6786q2.2518 0.83031 3.0821-1.4215z" clip-path="url(#a)" fill="#fff" stroke="#fff"/>
<g clip-path="url(#a)">
<g transform="translate(1994.2 675.4) rotate(-69.759) scale(.08 -.08)">
<use xlink:href="#s"/>
</g>
</g>
<path d="m2022.1 753.88 0.1119 4.8225q0.055677 2.3994 2.455 2.3437l7.7404-0.17962q2.3994-0.055677 2.3437-2.455l-0.1119-4.8225q-0.055677-2.3994-2.455-2.3437l-7.7404 0.17962q-2.3994 0.055677-2.3437 2.455z" clip-path="url(#a)" fill="#fff" stroke="#fff"/>
<g clip-path="url(#a)">
<g transform="translate(2026.2 753.79) rotate(88.671) scale(.08 -.08)">
<use xlink:href="#x"/>
</g>
</g>
<path d="m2045.3 754.26 0.93875 5.7793q0.3848 2.369 2.7538 1.9842l7.6423-1.2414q2.369-0.3848 1.9842-2.7538l-0.93875-5.7793q-0.3848-2.369-2.7538-1.9842l-7.6423 1.2414q-2.369 0.3848-1.9842 2.7538z" clip-path="url(#a)" fill="#fff" stroke="#fff"/>
<g clip-path="url(#a)">
<g transform="translate(2049.3 753.61) rotate(80.774) scale(.08 -.08)">
<use xlink:href="#w"/>
</g>
</g>
<path d="m1955.7 845.03 0.7756-5.5321q0.33322-2.3768-2.0435-2.71l-7.6675-1.075q-2.3768-0.33322-2.71 2.0435l-0.7756 5.5321q-0.33322 2.3768 2.0435 2.71l7.6675 1.075q2.3768 0.33322 2.71-2.0435z" clip-path="url(#a)" fill="#fff" stroke="#fff"/>
<g clip-path="url(#a)">
<defs>
<path id="y" d="m64.406 67.281v-10.391q-4.9844 4.6406-10.625 6.9219-5.6406 2.2969-11.984 2.2969-12.5 0-19.141-7.6406t-6.6406-22.094q0-14.406 6.6406-22.047t19.141-7.6406q6.3438 0 11.984 2.2969t10.625 6.9375v-10.312q-5.1719-3.5156-10.969-5.2812-5.7812-1.75-12.219-1.75-16.562 0-26.094 10.125-9.5156 10.141-9.5156 27.672 0 17.578 9.5156 27.703 9.5312 10.141 26.094 10.141 6.5312 0 12.312-1.7344 5.7969-1.7344 10.875-5.2031z"/>
</defs>
<g transform="translate(1951.6 844.47) rotate(-82.019) scale(.08 -.08)">
<use xlink:href="#y"/>
</g>
</g>
<path d="m1966.8 839.51 0.77178 5.5049q0.33322 2.3768 2.71 2.0435l7.6675-1.075q2.3768-0.33322 2.0435-2.71l-0.77178-5.5049q-0.33322-2.3768-2.71-2.0435l-7.6675 1.075q-2.3768 0.33322-2.0435 2.71z" clip-path="url(#a)" fill="#fff" stroke="#fff"/>
<g clip-path="url(#a)">
<defs>
<path id="z" d="m44.391 34.188q3.1719-1.0781 6.1719-4.5938t6.0312-9.6719l10.016-19.922h-10.609l-9.3125 18.703q-3.625 7.3281-7.0156 9.7188t-9.25 2.3906h-10.75v-30.812h-9.8594v72.906h22.266q12.5 0 18.656-5.2344 6.1562-5.2188 6.1562-15.766 0-6.8906-3.2031-11.438-3.2031-4.5312-9.2969-6.2812zm-24.719 30.609v-25.875h12.406q7.125 0 10.766 3.2969t3.6406 9.6875-3.6406 9.6406-10.766 3.25z"/>
</defs>
<g transform="translate(1970.8 838.95) rotate(82.019) scale(.08 -.08)">
<use xlink:href="#z"/>
</g>
</g>
<path d="m2026.1 991.91v35.285q0 2.4 2.4 2.4h7.7425q2.4 0 2.4-2.4v-35.285q0-2.4-2.4-2.4h-7.7425q-2.4 0-2.4 2.4z" clip-path="url(#a)" fill="#fff" stroke="#fff"/>
<g clip-path="url(#a)">
<g transform="translate(2030.1 991.91) rotate(90) scale(.08 -.08)">
<use xlink:href="#l"/>
<use x="60.818359" xlink:href="#e"/>
<use x="122.341797" xlink:href="#i"/>
<use x="163.439453" xlink:href="#k"/>
<use x="260.851562" xlink:href="#f"/>
<use x="288.634766" xlink:href="#g"/>
<use x="352.013672" xlink:href="#d"/>
<use x="413.292969" xlink:href="#j"/>
</g>
</g>
<path d="m1931.8 991.91v35.285q0 2.4 2.4 2.4h7.7425q2.4 0 2.4-2.4v-35.285q0-2.4-2.4-2.4h-7.7425q-2.4 0-2.4 2.4z" clip-path="url(#a)" fill="#fff" stroke="#fff"/>
<g clip-path="url(#a)">
<g transform="translate(1935.8 991.91) rotate(90) scale(.08 -.08)">
<use xlink:href="#l"/>
<use x="60.818359" xlink:href="#e"/>
<use x="122.341797" xlink:href="#i"/>
<use x="163.439453" xlink:href="#k"/>
<use x="260.851562" xlink:href="#f"/>
<use x="288.634766" xlink:href="#g"/>
<use x="352.013672" xlink:href="#d"/>
<use x="413.292969" xlink:href="#j"/>
</g>
</g>
<path d="m1978.9 991.91v35.285q0 2.4 2.4 2.4h7.7425q2.4 0 2.4-2.4v-35.285q0-2.4-2.4-2.4h-7.7425q-2.4 0-2.4 2.4z" clip-path="url(#a)" fill="#fff" stroke="#fff"/>
<g clip-path="url(#a)">
<g transform="translate(1983 991.91) rotate(90) scale(.08 -.08)">
<use xlink:href="#l"/>
<use x="60.818359" xlink:href="#e"/>
<use x="122.341797" xlink:href="#i"/>
<use x="163.439453" xlink:href="#k"/>
<use x="260.851562" xlink:href="#f"/>
<use x="288.634766" xlink:href="#g"/>
<use x="352.013672" xlink:href="#d"/>
<use x="413.292969" xlink:href="#j"/>
</g>
</g>
<path d="m1177.4 991.91v35.285q0 2.4 2.4 2.4h7.7425q2.4 0 2.4-2.4v-35.285q0-2.4-2.4-2.4h-7.7425q-2.4 0-2.4 2.4z" clip-path="url(#a)" fill="#fff" stroke="#fff"/>
<g clip-path="url(#a)">
<g transform="translate(1181.4 991.91) rotate(90) scale(.08 -.08)">
<use xlink:href="#l"/>
<use x="60.818359" xlink:href="#e"/>
<use x="122.341797" xlink:href="#i"/>
<use x="163.439453" xlink:href="#k"/>
<use x="260.851562" xlink:href="#f"/>
<use x="288.634766" xlink:href="#g"/>
<use x="352.013672" xlink:href="#d"/>
<use x="413.292969" xlink:href="#j"/>
</g>
</g>
<path d="m1313.1 760.85 1.917-4.1829q0.99991-2.1818-1.1819-3.1817l-7.0385-3.2257q-2.1818-0.99991-3.1817 1.1819l-1.917 4.1829q-0.99991 2.1818 1.1819 3.1817l7.0385 3.2257q2.1818 0.99991 3.1817-1.1819z" clip-path="url(#a)" fill="#fff" stroke="#fff"/>
<g clip-path="url(#a)">
<defs>
<path id="ao" d="m9.8125 72.906h41.891v-8.3125h-32.031v-21.484h28.906v-8.2969h-28.906v-34.812h-9.8594z"/>
</defs>
<g transform="translate(1309.4 759.16) rotate(-65.378) scale(.08 -.08)">
<use xlink:href="#ao"/>
</g>
</g>
<path d="m1399.9 671.09 1.1889 4.9132q0.56446 2.3327 2.8971 1.7682l7.5253-1.821q2.3327-0.56446 1.7682-2.8971l-1.1889-4.9132q-0.56446-2.3327-2.8971-1.7682l-7.5253 1.821q-2.3327 0.56446-1.7682 2.8971z" clip-path="url(#a)" fill="#fff" stroke="#fff"/>
<g clip-path="url(#a)">
<defs>
<path id="ac" d="m9.8125 72.906h46.094v-8.3125h-36.234v-21.578h34.719v-8.2969h-34.719v-26.422h37.109v-8.2969h-46.969z"/>
</defs>
<g transform="translate(1403.9 670.13) rotate(76.397) scale(.08 -.08)">
<use xlink:href="#ac"/>
</g>
</g>
<path d="m1490.2 757.25 3.0626 4.6719q1.3158 2.0072 3.3229 0.69139l6.4752-4.2448q2.0072-1.3158 0.69139-3.3229l-3.0626-4.6719q-1.3158-2.0072-3.3229-0.69139l-6.4752 4.2448q-2.0072 1.3158-0.69139 3.3229z" clip-path="url(#a)" fill="#fff" stroke="#fff"/>
<g clip-path="url(#a)">
<g transform="translate(1493.6 755.02) rotate(56.754) scale(.08 -.08)">
<use xlink:href="#y"/>
</g>
</g>
<path d="m1337 760.84 1.7797-5.5779q0.72953-2.2864-1.5569-3.016l-7.3761-2.3535q-2.2864-0.72953-3.016 1.5569l-1.7797 5.5779q-0.72953 2.2864 1.5569 3.016l7.3761 2.3535q2.2864 0.72953 3.016-1.5569z" clip-path="url(#a)" fill="#fff" stroke="#fff"/>
<g clip-path="url(#a)">
<g transform="translate(1333.2 759.61) rotate(-72.304) scale(.08 -.08)">
<use xlink:href="#w"/>
</g>
</g>
<path d="m1742.4 846.39 2.1551-5.124q0.93048-2.2123-1.2818-3.1428l-7.1369-3.0018q-2.2123-0.93048-3.1428 1.2818l-2.1551 5.124q-0.93048 2.2123 1.2818 3.1428l7.1369 3.0018q2.2123 0.93048 3.1428-1.2818z" clip-path="url(#a)" fill="#fff" stroke="#fff"/>
<g clip-path="url(#a)">
<g transform="translate(1738.6 844.81) rotate(-67.189) scale(.08 -.08)">
<use xlink:href="#z"/>
</g>
</g>
<path d="m1767.1 844.77 0.70184-5.006q0.33322-2.3768-2.0435-2.71l-7.6675-1.075q-2.3768-0.33322-2.71 2.0435l-0.70184 5.006q-0.33322 2.3768 2.0435 2.71l7.6675 1.075q2.3768 0.33322 2.71-2.0435z" clip-path="url(#a)" fill="#fff" stroke="#fff"/>
<g clip-path="url(#a)">
<g transform="translate(1763.1 844.2) rotate(-82.019) scale(.08 -.08)">
<use xlink:href="#ac"/>
</g>
</g>
<path d="m1801.5 841.25 2.1658 5.1493q0.93048 2.2123 3.1428 1.2818l7.1369-3.0018q2.2123-0.93048 1.2818-3.1428l-2.1658-5.1493q-0.93048-2.2123-3.1428-1.2818l-7.1369 3.0018q-2.2123 0.93048-1.2818 3.1428z" clip-path="url(#a)" fill="#fff" stroke="#fff"/>
<g clip-path="url(#a)">
<g transform="translate(1805.3 839.68) rotate(67.189) scale(.08 -.08)">
<use xlink:href="#y"/>
</g>
</g>
<path d="m1778.2 839.37 0.81291 5.7983q0.33322 2.3768 2.71 2.0435l7.6675-1.075q2.3768-0.33322 2.0435-2.71l-0.81291-5.7983q-0.33322-2.3768-2.71-2.0435l-7.6675 1.075q-2.3768 0.33322-2.0435 2.71z" clip-path="url(#a)" fill="#fff" stroke="#fff"/>
<g clip-path="url(#a)">
<g transform="translate(1782.2 838.8) rotate(82.019) scale(.08 -.08)">
<use xlink:href="#w"/>
</g>
</g>
<path d="m1696 991.91v35.285q0 2.4 2.4 2.4h7.7425q2.4 0 2.4-2.4v-35.285q0-2.4-2.4-2.4h-7.7425q-2.4 0-2.4 2.4z" clip-path="url(#a)" fill="#fff" stroke="#fff"/>
<g clip-path="url(#a)">
<g transform="translate(1700.1 991.91) rotate(90) scale(.08 -.08)">
<use xlink:href="#l"/>
<use x="60.818359" xlink:href="#e"/>
<use x="122.341797" xlink:href="#i"/>
<use x="163.439453" xlink:href="#k"/>
<use x="260.851562" xlink:href="#f"/>
<use x="288.634766" xlink:href="#g"/>
<use x="352.013672" xlink:href="#d"/>
<use x="413.292969" xlink:href="#j"/>
</g>
</g>
<path d="m1743.2 991.91v35.285q0 2.4 2.4 2.4h7.7425q2.4 0 2.4-2.4v-35.285q0-2.4-2.4-2.4h-7.7425q-2.4 0-2.4 2.4z" clip-path="url(#a)" fill="#fff" stroke="#fff"/>
<g clip-path="url(#a)">
<g transform="translate(1747.2 991.91) rotate(90) scale(.08 -.08)">
<use xlink:href="#l"/>
<use x="60.818359" xlink:href="#e"/>
<use x="122.341797" xlink:href="#i"/>
<use x="163.439453" xlink:href="#k"/>
<use x="260.851562" xlink:href="#f"/>
<use x="288.634766" xlink:href="#g"/>
<use x="352.013672" xlink:href="#d"/>
<use x="413.292969" xlink:href="#j"/>
</g>
</g>
<path d="m1837.5 991.91v35.285q0 2.4 2.4 2.4h7.7425q2.4 0 2.4-2.4v-35.285q0-2.4-2.4-2.4h-7.7425q-2.4 0-2.4 2.4z" clip-path="url(#a)" fill="#fff" stroke="#fff"/>
<g clip-path="url(#a)">
<g transform="translate(1841.5 991.91) rotate(90) scale(.08 -.08)">
<use xlink:href="#l"/>
<use x="60.818359" xlink:href="#e"/>
<use x="122.341797" xlink:href="#i"/>
<use x="163.439453" xlink:href="#k"/>
<use x="260.851562" xlink:href="#f"/>
<use x="288.634766" xlink:href="#g"/>
<use x="352.013672" xlink:href="#d"/>
<use x="413.292969" xlink:href="#j"/>
</g>
</g>
<path d="m1224.5 991.91v35.285q0 2.4 2.4 2.4h7.7425q2.4 0 2.4-2.4v-35.285q0-2.4-2.4-2.4h-7.7425q-2.4 0-2.4 2.4z" clip-path="url(#a)" fill="#fff" stroke="#fff"/>
<g clip-path="url(#a)">
<g transform="translate(1228.6 991.91) rotate(90) scale(.08 -.08)">
<use xlink:href="#l"/>
<use x="60.818359" xlink:href="#e"/>
<use x="122.341797" xlink:href="#i"/>
<use x="163.439453" xlink:href="#k"/>
<use x="260.851562" xlink:href="#f"/>
<use x="288.634766" xlink:href="#g"/>
<use x="352.013672" xlink:href="#d"/>
<use x="413.292969" xlink:href="#j"/>
</g>
</g>
<path d="m1392.5 846.58 2.3651-5.0609q1.0161-2.1743-1.1582-3.1904l-7.0143-3.278q-2.1743-1.0161-3.1904 1.1582l-2.3651 5.0609q-1.0161 2.1743 1.1582 3.1904l7.0143 3.278q2.1743 1.0161 3.1904-1.1582z" clip-path="url(#a)" fill="#fff" stroke="#fff"/>
<g clip-path="url(#a)">
<g transform="translate(1388.8 844.86) rotate(-64.952) scale(.08 -.08)">
<use xlink:href="#y"/>
</g>
</g>
<path d="m1429.4 844.68 0.27939-5.9785q0.11204-2.3974-2.2853-2.5094l-7.7341-0.36144q-2.3974-0.11204-2.5094 2.2853l-0.27939 5.9785q-0.11204 2.3974 2.2853 2.5094l7.7341 0.36143q2.3974 0.11204 2.5094-2.2853z" clip-path="url(#a)" fill="#fff" stroke="#fff"/>
<g clip-path="url(#a)">
<defs>
<path id="au" d="m9.8125 72.906h13.281l32.328-60.984v60.984h9.5625v-72.906h-13.281l-32.312 60.984v-60.984h-9.5781z"/>
</defs>
<g transform="translate(1425.4 844.49) rotate(-87.324) scale(.08 -.08)">
<use xlink:href="#au"/>
</g>
</g>
<path d="m1463.6 841.78 2.554 4.9682q1.0973 2.1345 3.2317 1.0372l6.8859-3.5398q2.1345-1.0973 1.0372-3.2317l-2.554-4.9682q-1.0973-2.1345-3.2317-1.0372l-6.8859 3.5398q-2.1345 1.0973-1.0372 3.2317z" clip-path="url(#a)" fill="#fff" stroke="#fff"/>
<g clip-path="url(#a)">
<g transform="translate(1467.2 839.92) rotate(62.794) scale(.08 -.08)">
<use xlink:href="#y"/>
</g>
</g>
<path d="m1601.7 991.91v35.285q0 2.4 2.4 2.4h7.7425q2.4 0 2.4-2.4v-35.285q0-2.4-2.4-2.4h-7.7425q-2.4 0-2.4 2.4z" clip-path="url(#a)" fill="#fff" stroke="#fff"/>
<g clip-path="url(#a)">
<g transform="translate(1605.8 991.91) rotate(90) scale(.08 -.08)">
<use xlink:href="#l"/>
<use x="60.818359" xlink:href="#e"/>
<use x="122.341797" xlink:href="#i"/>
<use x="163.439453" xlink:href="#k"/>
<use x="260.851562" xlink:href="#f"/>
<use x="288.634766" xlink:href="#g"/>
<use x="352.013672" xlink:href="#d"/>
<use x="413.292969" xlink:href="#j"/>
</g>
</g>
<path d="m1340.6 1027.9 4.899-34.943q0.33322-2.3768-2.0435-2.71l-7.6675-1.075q-2.3768-0.33322-2.71 2.0435l-4.899 34.943q-0.33322 2.3768 2.0435 2.71l7.6675 1.075q2.3768 0.33322 2.71-2.0435z" clip-path="url(#a)" fill="#fff" stroke="#fff"/>
<g clip-path="url(#a)">
<g transform="translate(1336.6 1027.3) rotate(-82.019) scale(.08 -.08)">
<use xlink:href="#l"/>
<use x="60.818359" xlink:href="#e"/>
<use x="122.341797" xlink:href="#i"/>
<use x="163.439453" xlink:href="#k"/>
<use x="260.851562" xlink:href="#f"/>
<use x="288.634766" xlink:href="#g"/>
<use x="352.013672" xlink:href="#d"/>
<use x="413.292969" xlink:href="#j"/>
</g>
</g>
<path d="m1351.8 992.95 4.899 34.943q0.33322 2.3768 2.71 2.0435l7.6675-1.075q2.3768-0.33322 2.0435-2.71l-4.899-34.943q-0.33322-2.3768-2.71-2.0435l-7.6675 1.075q-2.3768 0.33322-2.0435 2.71z" clip-path="url(#a)" fill="#fff" stroke="#fff"/>
<g clip-path="url(#a)">
<g transform="translate(1355.8 992.39) rotate(82.019) scale(.08 -.08)">
<use xlink:href="#l"/>
<use x="60.818359" xlink:href="#e"/>
<use x="122.341797" xlink:href="#i"/>
<use x="163.439453" xlink:href="#k"/>
<use x="260.851562" xlink:href="#f"/>
<use x="288.634766" xlink:href="#g"/>
<use x="352.013672" xlink:href="#d"/>
<use x="413.292969" xlink:href="#j"/>
</g>
</g>
<path d="m1413.1 991.91v35.285q0 2.4 2.4 2.4h7.7425q2.4 0 2.4-2.4v-35.285q0-2.4-2.4-2.4h-7.7425q-2.4 0-2.4 2.4z" clip-path="url(#a)" fill="#fff" stroke="#fff"/>
<g clip-path="url(#a)">
<g transform="translate(1417.2 991.91) rotate(90) scale(.08 -.08)">
<use xlink:href="#l"/>
<use x="60.818359" xlink:href="#e"/>
<use x="122.341797" xlink:href="#i"/>
<use x="163.439453" xlink:href="#k"/>
<use x="260.851562" xlink:href="#f"/>
<use x="288.634766" xlink:href="#g"/>
<use x="352.013672" xlink:href="#d"/>
<use x="413.292969" xlink:href="#j"/>
</g>
</g>
<path d="m1491.4 1028.2 9.5264-33.975q0.64796-2.3109-1.6629-2.9588l-7.455-2.0904q-2.3109-0.64796-2.9588 1.6629l-9.5264 33.975q-0.64796 2.3109 1.6629 2.9588l7.455 2.0904q2.3109 0.64796 2.9588-1.6629z" clip-path="url(#a)" fill="#fff" stroke="#fff"/>
<g clip-path="url(#a)">
<g transform="translate(1487.5 1027.1) rotate(-74.337) scale(.08 -.08)">
<use xlink:href="#l"/>
<use x="60.818359" xlink:href="#e"/>
<use x="122.341797" xlink:href="#i"/>
<use x="163.439453" xlink:href="#k"/>
<use x="260.851562" xlink:href="#f"/>
<use x="288.634766" xlink:href="#g"/>
<use x="352.013672" xlink:href="#d"/>
<use x="413.292969" xlink:href="#j"/>
</g>
</g>
<path d="m1507.4 991.91v35.285q0 2.4 2.4 2.4h7.7425q2.4 0 2.4-2.4v-35.285q0-2.4-2.4-2.4h-7.7425q-2.4 0-2.4 2.4z" clip-path="url(#a)" fill="#fff" stroke="#fff"/>
<g clip-path="url(#a)">
<g transform="translate(1511.5 991.91) rotate(90) scale(.08 -.08)">
<use xlink:href="#l"/>
<use x="60.818359" xlink:href="#e"/>
<use x="122.341797" xlink:href="#i"/>
<use x="163.439453" xlink:href="#k"/>
<use x="260.851562" xlink:href="#f"/>
<use x="288.634766" xlink:href="#g"/>
<use x="352.013672" xlink:href="#d"/>
<use x="413.292969" xlink:href="#j"/>
</g>
</g>
<path d="m1526.5 994.26 9.5264 33.975q0.64796 2.3109 2.9588 1.6629l7.455-2.0904q2.3109-0.64796 1.6629-2.9588l-9.5264-33.975q-0.64796-2.3109-2.9588-1.6629l-7.455 2.0904q-2.3109 0.64796-1.6629 2.9588z" clip-path="url(#a)" fill="#fff" stroke="#fff"/>
<g clip-path="url(#a)">
<g transform="translate(1530.4 993.16) rotate(74.337) scale(.08 -.08)">
<use xlink:href="#l"/>
<use x="60.818359" xlink:href="#e"/>
<use x="122.341797" xlink:href="#i"/>
<use x="163.439453" xlink:href="#k"/>
<use x="260.851562" xlink:href="#f"/>
<use x="288.634766" xlink:href="#g"/>
<use x="352.013672" xlink:href="#d"/>
<use x="413.292969" xlink:href="#j"/>
</g>
</g>
<path d="m281.5 991.91v35.285q0 2.4 2.4 2.4h7.7425q2.4 0 2.4-2.4v-35.285q0-2.4-2.4-2.4h-7.7425q-2.4 0-2.4 2.4z" clip-path="url(#a)" fill="#fff" stroke="#fff"/>
<g clip-path="url(#a)">
<g transform="translate(285.56 991.91) rotate(90) scale(.08 -.08)">
<use xlink:href="#l"/>
<use x="60.818359" xlink:href="#e"/>
<use x="122.341797" xlink:href="#i"/>
<use x="163.439453" xlink:href="#k"/>
<use x="260.851562" xlink:href="#f"/>
<use x="288.634766" xlink:href="#g"/>
<use x="352.013672" xlink:href="#d"/>
<use x="413.292969" xlink:href="#j"/>
</g>
</g>
<path d="m328.65 991.91v35.285q0 2.4 2.4 2.4h7.7425q2.4 0 2.4-2.4v-35.285q0-2.4-2.4-2.4h-7.7425q-2.4 0-2.4 2.4z" clip-path="url(#a)" fill="#fff" stroke="#fff"/>
<g clip-path="url(#a)">
<g transform="translate(332.71 991.91) rotate(90) scale(.08 -.08)">
<use xlink:href="#l"/>
<use x="60.818359" xlink:href="#e"/>
<use x="122.341797" xlink:href="#i"/>
<use x="163.439453" xlink:href="#k"/>
<use x="260.851562" xlink:href="#f"/>
<use x="288.634766" xlink:href="#g"/>
<use x="352.013672" xlink:href="#d"/>
<use x="413.292969" xlink:href="#j"/>
</g>
</g>
<path d="m375.8 991.91v35.285q0 2.4 2.4 2.4h7.7425q2.4 0 2.4-2.4v-35.285q0-2.4-2.4-2.4h-7.7425q-2.4 0-2.4 2.4z" clip-path="url(#a)" fill="#fff" stroke="#fff"/>
<g clip-path="url(#a)">
<g transform="translate(379.86 991.91) rotate(90) scale(.08 -.08)">
<use xlink:href="#l"/>
<use x="60.818359" xlink:href="#e"/>
<use x="122.341797" xlink:href="#i"/>
<use x="163.439453" xlink:href="#k"/>
<use x="260.851562" xlink:href="#f"/>
<use x="288.634766" xlink:href="#g"/>
<use x="352.013672" xlink:href="#d"/>
<use x="413.292969" xlink:href="#j"/>
</g>
</g>
<path d="m469.29 846.39 2.1551-5.124q0.93048-2.2123-1.2818-3.1428l-7.1369-3.0018q-2.2123-0.93048-3.1428 1.2818l-2.1551 5.124q-0.93048 2.2123 1.2818 3.1428l7.1369 3.0018q2.2123 0.93048 3.1428-1.2818z" clip-path="url(#a)" fill="#fff" stroke="#fff"/>
<g clip-path="url(#a)">
<g transform="translate(465.54 844.81) rotate(-67.189) scale(.08 -.08)">
<use xlink:href="#z"/>
</g>
</g>
<path d="m494.05 844.54 0.63884-4.5567q0.33322-2.3768-2.0435-2.71l-7.6675-1.075q-2.3768-0.33322-2.71 2.0435l-0.63884 4.5567q-0.33322 2.3768 2.0435 2.71l7.6675 1.075q2.3768 0.33322 2.71-2.0435z" clip-path="url(#a)" fill="#fff" stroke="#fff"/>
<g clip-path="url(#a)">
<g transform="translate(490.03 843.98) rotate(-82.019) scale(.08 -.08)">
<use xlink:href="#ao"/>
</g>
</g>
<path d="m505.17 839.76 0.70184 5.006q0.33322 2.3768 2.71 2.0435l7.6675-1.075q2.3768-0.33322 2.0435-2.71l-0.70184-5.006q-0.33322-2.3768-2.71-2.0435l-7.6675 1.075q-2.3768 0.33322-2.0435 2.71z" clip-path="url(#a)" fill="#fff" stroke="#fff"/>
<g clip-path="url(#a)">
<g transform="translate(509.2 839.2) rotate(82.019) scale(.08 -.08)">
<use xlink:href="#ac"/>
</g>
</g>
<path d="m528.45 841.25 2.1658 5.1493q0.93048 2.2123 3.1428 1.2818l7.1369-3.0018q2.2123-0.93048 1.2818-3.1428l-2.1658-5.1493q-0.93048-2.2123-3.1428-1.2818l-7.1369 3.0018q-2.2123 0.93048-1.2818 3.1428z" clip-path="url(#a)" fill="#fff" stroke="#fff"/>
<g clip-path="url(#a)">
<g transform="translate(532.19 839.68) rotate(67.189) scale(.08 -.08)">
<use xlink:href="#y"/>
</g>
</g>
<path d="m422.95 991.91v35.285q0 2.4 2.4 2.4h7.7425q2.4 0 2.4-2.4v-35.285q0-2.4-2.4-2.4h-7.7425q-2.4 0-2.4 2.4z" clip-path="url(#a)" fill="#fff" stroke="#fff"/>
<g clip-path="url(#a)">
<g transform="translate(427.01 991.91) rotate(90) scale(.08 -.08)">
<use xlink:href="#l"/>
<use x="60.818359" xlink:href="#e"/>
<use x="122.341797" xlink:href="#i"/>
<use x="163.439453" xlink:href="#k"/>
<use x="260.851562" xlink:href="#f"/>
<use x="288.634766" xlink:href="#g"/>
<use x="352.013672" xlink:href="#d"/>
<use x="413.292969" xlink:href="#j"/>
</g>
</g>
<path d="m470.1 991.91v35.285q0 2.4 2.4 2.4h7.7425q2.4 0 2.4-2.4v-35.285q0-2.4-2.4-2.4h-7.7425q-2.4 0-2.4 2.4z" clip-path="url(#a)" fill="#fff" stroke="#fff"/>
<g clip-path="url(#a)">
<g transform="translate(474.16 991.91) rotate(90) scale(.08 -.08)">
<use xlink:href="#l"/>
<use x="60.818359" xlink:href="#e"/>
<use x="122.341797" xlink:href="#i"/>
<use x="163.439453" xlink:href="#k"/>
<use x="260.851562" xlink:href="#f"/>
<use x="288.634766" xlink:href="#g"/>
<use x="352.013672" xlink:href="#d"/>
<use x="413.292969" xlink:href="#j"/>
</g>
</g>
<path d="m517.25 991.91v35.285q0 2.4 2.4 2.4h7.7425q2.4 0 2.4-2.4v-35.285q0-2.4-2.4-2.4h-7.7425q-2.4 0-2.4 2.4z" clip-path="url(#a)" fill="#fff" stroke="#fff"/>
<g clip-path="url(#a)">
<g transform="translate(521.32 991.91) rotate(90) scale(.08 -.08)">
<use xlink:href="#l"/>
<use x="60.818359" xlink:href="#e"/>
<use x="122.341797" xlink:href="#i"/>
<use x="163.439453" xlink:href="#k"/>
<use x="260.851562" xlink:href="#f"/>
<use x="288.634766" xlink:href="#g"/>
<use x="352.013672" xlink:href="#d"/>
<use x="413.292969" xlink:href="#j"/>
</g>
</g>
<path d="m564.4 991.91v35.285q0 2.4 2.4 2.4h7.7425q2.4 0 2.4-2.4v-35.285q0-2.4-2.4-2.4h-7.7425q-2.4 0-2.4 2.4z" clip-path="url(#a)" fill="#fff" stroke="#fff"/>
<g clip-path="url(#a)">
<g transform="translate(568.47 991.91) rotate(90) scale(.08 -.08)">
<use xlink:href="#l"/>
<use x="60.818359" xlink:href="#e"/>
<use x="122.341797" xlink:href="#i"/>
<use x="163.439453" xlink:href="#k"/>
<use x="260.851562" xlink:href="#f"/>
<use x="288.634766" xlink:href="#g"/>
<use x="352.013672" xlink:href="#d"/>
<use x="413.292969" xlink:href="#j"/>
</g>
</g>
<path d="m116.78 845.02 0.77178-5.5049q0.33322-2.3768-2.0435-2.71l-7.6675-1.075q-2.3768-0.33322-2.71 2.0435l-0.77178 5.5049q-0.33322 2.3768 2.0435 2.71l7.6675 1.075q2.3768 0.33322 2.71-2.0435z" clip-path="url(#a)" fill="#fff" stroke="#fff"/>
<g clip-path="url(#a)">
<g transform="translate(112.75 844.45) rotate(-82.019) scale(.08 -.08)">
<use xlink:href="#z"/>
</g>
</g>
<path d="m127.93 839.5 0.7756 5.5321q0.33322 2.3768 2.71 2.0435l7.6675-1.075q2.3768-0.33322 2.0435-2.71l-0.7756-5.5321q-0.33322-2.3768-2.71-2.0435l-7.6675 1.075q-2.3768 0.33322-2.0435 2.71z" clip-path="url(#a)" fill="#fff" stroke="#fff"/>
<g clip-path="url(#a)">
<g transform="translate(131.95 838.94) rotate(82.019) scale(.08 -.08)">
<use xlink:href="#y"/>
</g>
</g>
<path d="m658.7 991.91v35.285q0 2.4 2.4 2.4h7.7425q2.4 0 2.4-2.4v-35.285q0-2.4-2.4-2.4h-7.7425q-2.4 0-2.4 2.4z" clip-path="url(#a)" fill="#fff" stroke="#fff"/>
<g clip-path="url(#a)">
<g transform="translate(662.77 991.91) rotate(90) scale(.08 -.08)">
<use xlink:href="#l"/>
<use x="60.818359" xlink:href="#e"/>
<use x="122.341797" xlink:href="#i"/>
<use x="163.439453" xlink:href="#k"/>
<use x="260.851562" xlink:href="#f"/>
<use x="288.634766" xlink:href="#g"/>
<use x="352.013672" xlink:href="#d"/>
<use x="413.292969" xlink:href="#j"/>
</g>
</g>
<path d="m705.86 991.91v35.285q0 2.4 2.4 2.4h7.7425q2.4 0 2.4-2.4v-35.285q0-2.4-2.4-2.4h-7.7425q-2.4 0-2.4 2.4z" clip-path="url(#a)" fill="#fff" stroke="#fff"/>
<g clip-path="url(#a)">
<g transform="translate(709.92 991.91) rotate(90) scale(.08 -.08)">
<use xlink:href="#l"/>
<use x="60.818359" xlink:href="#e"/>
<use x="122.341797" xlink:href="#i"/>
<use x="163.439453" xlink:href="#k"/>
<use x="260.851562" xlink:href="#f"/>
<use x="288.634766" xlink:href="#g"/>
<use x="352.013672" xlink:href="#d"/>
<use x="413.292969" xlink:href="#j"/>
</g>
</g>
<path d="m753.01 991.91v35.285q0 2.4 2.4 2.4h7.7425q2.4 0 2.4-2.4v-35.285q0-2.4-2.4-2.4h-7.7425q-2.4 0-2.4 2.4z" clip-path="url(#a)" fill="#fff" stroke="#fff"/>
<g clip-path="url(#a)">
<g transform="translate(757.07 991.91) rotate(90) scale(.08 -.08)">
<use xlink:href="#l"/>
<use x="60.818359" xlink:href="#e"/>
<use x="122.341797" xlink:href="#i"/>
<use x="163.439453" xlink:href="#k"/>
<use x="260.851562" xlink:href="#f"/>
<use x="288.634766" xlink:href="#g"/>
<use x="352.013672" xlink:href="#d"/>
<use x="413.292969" xlink:href="#j"/>
</g>
</g>
<path d="m930.84 504.41 1.6958-4.7621q0.80514-2.2609-1.4558-3.0661l-7.2938-2.5974q-2.2609-0.80514-3.0661 1.4558l-1.6958 4.7621q-0.80514 2.2609 1.4558 3.0661l7.2938 2.5974q2.2609 0.80514 3.0661-1.4558z" clip-path="url(#a)" fill="#fff" stroke="#fff"/>
<g clip-path="url(#a)">
<g transform="translate(927.01 503.05) rotate(-70.398) scale(.08 -.08)">
<use xlink:href="#ac"/>
</g>
</g>
<path d="m981 583.54 0.98832 5.4981q0.42461 2.3621 2.7867 1.9375l7.6204-1.3698q2.3621-0.42461 1.9375-2.7867l-0.98832-5.4981q-0.42461-2.3621-2.7867-1.9375l-7.6204 1.3698q-2.3621 0.42461-1.9375 2.7867z" clip-path="url(#a)" fill="#fff" stroke="#fff"/>
<g clip-path="url(#a)">
<g transform="translate(985 582.82) rotate(79.81) scale(.08 -.08)">
<use xlink:href="#y"/>
</g>
</g>
<path d="m950.04 673.54 3.2149 4.4286q1.4099 1.9422 3.3521 0.53227l6.2656-4.5485q1.9422-1.4099 0.53227-3.3521l-3.2149-4.4286q-1.4099-1.9422-3.3521-0.53227l-6.2656 4.5485q-1.9422 1.4099-0.53227 3.3521z" clip-path="url(#a)" fill="#fff" stroke="#fff"/>
<g clip-path="url(#a)">
<g transform="translate(953.33 671.15) rotate(54.022) scale(.08 -.08)">
<use xlink:href="#s"/>
</g>
</g>
<path d="m856.01 760.38 1.3823-5.295q0.60622-2.3222-1.716-2.9284l-7.4914-1.9557q-2.3222-0.60622-2.9284 1.716l-1.3823 5.295q-0.60622 2.3222 1.716 2.9284l7.4914 1.9557q2.3222 0.60622 2.9284-1.716z" clip-path="url(#a)" fill="#fff" stroke="#fff"/>
<g clip-path="url(#a)">
<g transform="translate(852.08 759.35) rotate(-75.369) scale(.08 -.08)">
<use xlink:href="#s"/>
</g>
</g>
<path d="m880.1 759.62 0.6618-5.4323q0.29024-2.3824-2.0921-2.6726l-7.6857-0.93632q-2.3824-0.29024-2.6726 2.0921l-0.6618 5.4323q-0.29024 2.3824 2.0921 2.6726l7.6857 0.93632q2.3824 0.29024 2.6726-2.0921z" clip-path="url(#a)" fill="#fff" stroke="#fff"/>
<g clip-path="url(#a)">
<g transform="translate(876.07 759.13) rotate(-83.054) scale(.08 -.08)">
<use xlink:href="#s"/>
</g>
</g>
<path d="m891.47 753.72 0.088375 5.078q0.041763 2.3996 2.4414 2.3579l7.7413-0.13473q2.3996-0.041763 2.3579-2.4414l-0.088375-5.078q-0.041763-2.3996-2.4414-2.3579l-7.7413 0.13473q-2.3996 0.041762-2.3579 2.4414z" clip-path="url(#a)" fill="#fff" stroke="#fff"/>
<g clip-path="url(#a)">
<defs>
<path id="am" d="m53.516 70.516v-9.625q-5.6094 2.6875-10.594 4-4.9844 1.3281-9.625 1.3281-8.0469 0-12.422-3.125t-4.375-8.8906q0-4.8438 2.9062-7.3125 2.9062-2.4531 11.016-3.9688l5.9531-1.2188q11.031-2.1094 16.281-7.4062t5.25-14.172q0-10.609-7.1094-16.078-7.0938-5.4688-20.812-5.4688-5.1719 0-11.016 1.1719-5.8281 1.1719-12.078 3.4688v10.156q6-3.3594 11.766-5.0781 5.7656-1.7031 11.328-1.7031 8.4375 0 13.031 3.3125 4.5938 3.3281 4.5938 9.4844 0 5.3594-3.2969 8.3906t-10.812 4.5469l-6.0156 1.1719q-11.031 2.1875-15.969 6.875-4.9219 4.6875-4.9219 13.047 0 9.6719 6.8125 15.234t18.766 5.5625q5.1406 0 10.453-0.9375 5.3281-0.92188 10.891-2.7656z"/>
</defs>
<g transform="translate(895.53 753.65) rotate(89.003) scale(.08 -.08)">
<use xlink:href="#am"/>
</g>
</g>
<path d="m985.75 944.03 7.2615-34.53q0.49391-2.3486-1.8547-2.8425l-7.5768-1.5934q-2.3486-0.49391-2.8425 1.8547l-7.2615 34.53q-0.49391 2.3486 1.8547 2.8425l7.5768 1.5934q2.3486 0.49391 2.8425-1.8547z" clip-path="url(#a)" fill="#fff" stroke="#fff"/>
<g clip-path="url(#a)">
<g transform="translate(981.77 943.19) rotate(-78.124) scale(.08 -.08)">
<use xlink:href="#l"/>
<use x="60.818359" xlink:href="#e"/>
<use x="122.341797" xlink:href="#i"/>
<use x="163.439453" xlink:href="#k"/>
<use x="260.851562" xlink:href="#f"/>
<use x="288.634766" xlink:href="#g"/>
<use x="352.013672" xlink:href="#d"/>
<use x="413.292969" xlink:href="#j"/>
</g>
</g>
<path d="m1011.8 943.51 2.4674-35.199q0.16783-2.3941-2.2263-2.562l-7.7235-0.54142q-2.3941-0.16783-2.562 2.2263l-2.4674 35.199q-0.16783 2.3941 2.2263 2.562l7.7235 0.54141q2.3941 0.16783 2.562-2.2263z" clip-path="url(#a)" fill="#fff" stroke="#fff"/>
<g clip-path="url(#a)">
<g transform="translate(1007.8 943.23) rotate(-85.99) scale(.08 -.08)">
<use xlink:href="#l"/>
<use x="60.818359" xlink:href="#e"/>
<use x="122.341797" xlink:href="#i"/>
<use x="163.439453" xlink:href="#k"/>
<use x="260.851562" xlink:href="#f"/>
<use x="288.634766" xlink:href="#g"/>
<use x="352.013672" xlink:href="#d"/>
<use x="413.292969" xlink:href="#j"/>
</g>
</g>
<path d="m1044.2 909.5 7.2615 34.53q0.49391 2.3486 2.8425 1.8547l7.5768-1.5934q2.3486-0.49391 1.8547-2.8425l-7.2615-34.53q-0.49391-2.3486-2.8425-1.8547l-7.5768 1.5934q-2.3486 0.49391-1.8547 2.8425z" clip-path="url(#a)" fill="#fff" stroke="#fff"/>
<g clip-path="url(#a)">
<g transform="translate(1048.2 908.66) rotate(78.124) scale(.08 -.08)">
<use xlink:href="#l"/>
<use x="60.818359" xlink:href="#e"/>
<use x="122.341797" xlink:href="#i"/>
<use x="163.439453" xlink:href="#k"/>
<use x="260.851562" xlink:href="#f"/>
<use x="288.634766" xlink:href="#g"/>
<use x="352.013672" xlink:href="#d"/>
<use x="413.292969" xlink:href="#j"/>
</g>
</g>
<path d="m1023.8 839.37 0.81291 5.7983q0.33322 2.3768 2.71 2.0435l7.6675-1.075q2.3768-0.33322 2.0435-2.71l-0.81291-5.7983q-0.33322-2.3768-2.71-2.0435l-7.6675 1.075q-2.3768 0.33322-2.0435 2.71z" clip-path="url(#a)" fill="#fff" stroke="#fff"/>
<g clip-path="url(#a)">
<g transform="translate(1027.8 838.8) rotate(82.019) scale(.08 -.08)">
<use xlink:href="#w"/>
</g>
</g>
<path d="m187.2 991.91v35.285q0 2.4 2.4 2.4h7.7425q2.4 0 2.4-2.4v-35.285q0-2.4-2.4-2.4h-7.7425q-2.4 0-2.4 2.4z" clip-path="url(#a)" fill="#fff" stroke="#fff"/>
<g clip-path="url(#a)">
<g transform="translate(191.26 991.91) rotate(90) scale(.08 -.08)">
<use xlink:href="#l"/>
<use x="60.818359" xlink:href="#e"/>
<use x="122.341797" xlink:href="#i"/>
<use x="163.439453" xlink:href="#k"/>
<use x="260.851562" xlink:href="#f"/>
<use x="288.634766" xlink:href="#g"/>
<use x="352.013672" xlink:href="#d"/>
<use x="413.292969" xlink:href="#j"/>
</g>
</g>
<path d="m800.16 991.91v35.285q0 2.4 2.4 2.4h7.7425q2.4 0 2.4-2.4v-35.285q0-2.4-2.4-2.4h-7.7425q-2.4 0-2.4 2.4z" clip-path="url(#a)" fill="#fff" stroke="#fff"/>
<g clip-path="url(#a)">
<g transform="translate(804.22 991.91) rotate(90) scale(.08 -.08)">
<use xlink:href="#l"/>
<use x="60.818359" xlink:href="#e"/>
<use x="122.341797" xlink:href="#i"/>
<use x="163.439453" xlink:href="#k"/>
<use x="260.851562" xlink:href="#f"/>
<use x="288.634766" xlink:href="#g"/>
<use x="352.013672" xlink:href="#d"/>
<use x="413.292969" xlink:href="#j"/>
</g>
</g>
<path d="m847.31 991.91v35.285q0 2.4 2.4 2.4h7.7425q2.4 0 2.4-2.4v-35.285q0-2.4-2.4-2.4h-7.7425q-2.4 0-2.4 2.4z" clip-path="url(#a)" fill="#fff" stroke="#fff"/>
<g clip-path="url(#a)">
<g transform="translate(851.37 991.91) rotate(90) scale(.08 -.08)">
<use xlink:href="#l"/>
<use x="60.818359" xlink:href="#e"/>
<use x="122.341797" xlink:href="#i"/>
<use x="163.439453" xlink:href="#k"/>
<use x="260.851562" xlink:href="#f"/>
<use x="288.634766" xlink:href="#g"/>
<use x="352.013672" xlink:href="#d"/>
<use x="413.292969" xlink:href="#j"/>
</g>
</g>
<path d="m894.46 991.91v35.285q0 2.4 2.4 2.4h7.7425q2.4 0 2.4-2.4v-35.285q0-2.4-2.4-2.4h-7.7425q-2.4 0-2.4 2.4z" clip-path="url(#a)" fill="#fff" stroke="#fff"/>
<g clip-path="url(#a)">
<g transform="translate(898.52 991.91) rotate(90) scale(.08 -.08)">
<use xlink:href="#l"/>
<use x="60.818359" xlink:href="#e"/>
<use x="122.341797" xlink:href="#i"/>
<use x="163.439453" xlink:href="#k"/>
<use x="260.851562" xlink:href="#f"/>
<use x="288.634766" xlink:href="#g"/>
<use x="352.013672" xlink:href="#d"/>
<use x="413.292969" xlink:href="#j"/>
</g>
</g>
<path d="m92.894 991.91v35.285q0 2.4 2.4 2.4h7.7425q2.4 0 2.4-2.4v-35.285q0-2.4-2.4-2.4h-7.7425q-2.4 0-2.4 2.4z" clip-path="url(#a)" fill="#fff" stroke="#fff"/>
<g clip-path="url(#a)">
<g transform="translate(96.958 991.91) rotate(90) scale(.08 -.08)">
<use xlink:href="#l"/>
<use x="60.818359" xlink:href="#e"/>
<use x="122.341797" xlink:href="#i"/>
<use x="163.439453" xlink:href="#k"/>
<use x="260.851562" xlink:href="#f"/>
<use x="288.634766" xlink:href="#g"/>
<use x="352.013672" xlink:href="#d"/>
<use x="413.292969" xlink:href="#j"/>
</g>
</g>
<path d="m140.04 991.91v35.285q0 2.4 2.4 2.4h7.7425q2.4 0 2.4-2.4v-35.285q0-2.4-2.4-2.4h-7.7425q-2.4 0-2.4 2.4z" clip-path="url(#a)" fill="#fff" stroke="#fff"/>
<g clip-path="url(#a)">
<g transform="translate(144.11 991.91) rotate(90) scale(.08 -.08)">
<use xlink:href="#l"/>
<use x="60.818359" xlink:href="#e"/>
<use x="122.341797" xlink:href="#i"/>
<use x="163.439453" xlink:href="#k"/>
<use x="260.851562" xlink:href="#f"/>
<use x="288.634766" xlink:href="#g"/>
<use x="352.013672" xlink:href="#d"/>
<use x="413.292969" xlink:href="#j"/>
</g>
</g>
<path d="m611.55 991.91v35.285q0 2.4 2.4 2.4h7.7425q2.4 0 2.4-2.4v-35.285q0-2.4-2.4-2.4h-7.7425q-2.4 0-2.4 2.4z" clip-path="url(#a)" fill="#fff" stroke="#fff"/>
<g clip-path="url(#a)">
<g transform="translate(615.62 991.91) rotate(90) scale(.08 -.08)">
<use xlink:href="#l"/>
<use x="60.818359" xlink:href="#e"/>
<use x="122.341797" xlink:href="#i"/>
<use x="163.439453" xlink:href="#k"/>
<use x="260.851562" xlink:href="#f"/>
<use x="288.634766" xlink:href="#g"/>
<use x="352.013672" xlink:href="#d"/>
<use x="413.292969" xlink:href="#j"/>
</g>
</g>
<path d="m1035.9 991.91v35.285q0 2.4 2.4 2.4h7.7425q2.4 0 2.4-2.4v-35.285q0-2.4-2.4-2.4h-7.7425q-2.4 0-2.4 2.4z" clip-path="url(#a)" fill="#fff" stroke="#fff"/>
<g clip-path="url(#a)">
<g transform="translate(1040 991.91) rotate(90) scale(.08 -.08)">
<use xlink:href="#l"/>
<use x="60.818359" xlink:href="#e"/>
<use x="122.341797" xlink:href="#i"/>
<use x="163.439453" xlink:href="#k"/>
<use x="260.851562" xlink:href="#f"/>
<use x="288.634766" xlink:href="#g"/>
<use x="352.013672" xlink:href="#d"/>
<use x="413.292969" xlink:href="#j"/>
</g>
</g>
<path d="m1130.2 991.91v35.285q0 2.4 2.4 2.4h7.7425q2.4 0 2.4-2.4v-35.285q0-2.4-2.4-2.4h-7.7425q-2.4 0-2.4 2.4z" clip-path="url(#a)" fill="#fff" stroke="#fff"/>
<g clip-path="url(#a)">
<g transform="translate(1134.3 991.91) rotate(90) scale(.08 -.08)">
<use xlink:href="#l"/>
<use x="60.818359" xlink:href="#e"/>
<use x="122.341797" xlink:href="#i"/>
<use x="163.439453" xlink:href="#k"/>
<use x="260.851562" xlink:href="#f"/>
<use x="288.634766" xlink:href="#g"/>
<use x="352.013672" xlink:href="#d"/>
<use x="413.292969" xlink:href="#j"/>
</g>
</g>
<path d="m1271.7 991.91v35.285q0 2.4 2.4 2.4h7.7425q2.4 0 2.4-2.4v-35.285q0-2.4-2.4-2.4h-7.7425q-2.4 0-2.4 2.4z" clip-path="url(#a)" fill="#fff" stroke="#fff"/>
<g clip-path="url(#a)">
<g transform="translate(1275.7 991.91) rotate(90) scale(.08 -.08)">
<use xlink:href="#l"/>
<use x="60.818359" xlink:href="#e"/>
<use x="122.341797" xlink:href="#i"/>
<use x="163.439453" xlink:href="#k"/>
<use x="260.851562" xlink:href="#f"/>
<use x="288.634766" xlink:href="#g"/>
<use x="352.013672" xlink:href="#d"/>
<use x="413.292969" xlink:href="#j"/>
</g>
</g>
<path d="m1648.9 991.91v35.285q0 2.4 2.4 2.4h7.7425q2.4 0 2.4-2.4v-35.285q0-2.4-2.4-2.4h-7.7425q-2.4 0-2.4 2.4z" clip-path="url(#a)" fill="#fff" stroke="#fff"/>
<g clip-path="url(#a)">
<g transform="translate(1652.9 991.91) rotate(90) scale(.08 -.08)">
<use xlink:href="#l"/>
<use x="60.818359" xlink:href="#e"/>
<use x="122.341797" xlink:href="#i"/>
<use x="163.439453" xlink:href="#k"/>
<use x="260.851562" xlink:href="#f"/>
<use x="288.634766" xlink:href="#g"/>
<use x="352.013672" xlink:href="#d"/>
<use x="413.292969" xlink:href="#j"/>
</g>
</g>
<path d="m1790.3 991.91v35.285q0 2.4 2.4 2.4h7.7425q2.4 0 2.4-2.4v-35.285q0-2.4-2.4-2.4h-7.7425q-2.4 0-2.4 2.4z" clip-path="url(#a)" fill="#fff" stroke="#fff"/>
<g clip-path="url(#a)">
<g transform="translate(1794.4 991.91) rotate(90) scale(.08 -.08)">
<use xlink:href="#l"/>
<use x="60.818359" xlink:href="#e"/>
<use x="122.341797" xlink:href="#i"/>
<use x="163.439453" xlink:href="#k"/>
<use x="260.851562" xlink:href="#f"/>
<use x="288.634766" xlink:href="#g"/>
<use x="352.013672" xlink:href="#d"/>
<use x="413.292969" xlink:href="#j"/>
</g>
</g>
<path d="m2073.2 991.91v35.285q0 2.4 2.4 2.4h7.7425q2.4 0 2.4-2.4v-35.285q0-2.4-2.4-2.4h-7.7425q-2.4 0-2.4 2.4z" clip-path="url(#a)" fill="#fff" stroke="#fff"/>
<g clip-path="url(#a)">
<g transform="translate(2077.3 991.91) rotate(90) scale(.08 -.08)">
<use xlink:href="#l"/>
<use x="60.818359" xlink:href="#e"/>
<use x="122.341797" xlink:href="#i"/>
<use x="163.439453" xlink:href="#k"/>
<use x="260.851562" xlink:href="#f"/>
<use x="288.634766" xlink:href="#g"/>
<use x="352.013672" xlink:href="#d"/>
<use x="413.292969" xlink:href="#j"/>
</g>
</g>
<defs>
<path id="b" d="m0 8.6603c2.2967 0 4.4997-0.9125 6.1237-2.5365 1.624-1.624 2.5365-3.827 2.5365-6.1237s-0.9125-4.4997-2.5365-6.1237c-1.624-1.624-3.827-2.5365-6.1237-2.5365s-4.4997 0.9125-6.1237 2.5365c-1.624 1.624-2.5365 3.827-2.5365 6.1237s0.9125 4.4997 2.5365 6.1237c1.624 1.624 3.827 2.5365 6.1237 2.5365z"/>
</defs>
<g clip-path="url(#a)">
<use x="99.16525" y="1093.631041" fill="#ffffff" stroke="#ffffff" xlink:href="#b"/>
</g>
<g clip-path="url(#a)">
<use x="146.316111" y="1093.631041" fill="#ffffff" stroke="#ffffff" xlink:href="#b"/>
</g>
<g clip-path="url(#a)">
<use x="193.466972" y="1093.631041" fill="#ffffff" stroke="#ffffff" xlink:href="#b"/>
</g>
<g clip-path="url(#a)">
<use x="240.617833" y="1093.631041" fill="#ffffff" stroke="#ffffff" xlink:href="#b"/>
</g>
<g clip-path="url(#a)">
<use x="287.768694" y="1093.631041" fill="#ffffff" stroke="#ffffff" xlink:href="#b"/>
</g>
<g clip-path="url(#a)">
<use x="334.919555" y="1093.631041" fill="#ffffff" stroke="#ffffff" xlink:href="#b"/>
</g>
<g clip-path="url(#a)">
<use x="382.070416" y="1093.631041" fill="#ffffff" stroke="#ffffff" xlink:href="#b"/>
</g>
<g clip-path="url(#a)">
<use x="429.221278" y="1093.631041" fill="#ffffff" stroke="#ffffff" xlink:href="#b"/>
</g>
<g clip-path="url(#a)">
<use x="476.372139" y="1093.631041" fill="#ffffff" stroke="#ffffff" xlink:href="#b"/>
</g>
<g clip-path="url(#a)">
<use x="523.523" y="1093.631041" fill="#ffffff" stroke="#ffffff" xlink:href="#b"/>
</g>
<g clip-path="url(#a)">
<use x="570.673861" y="1093.631041" fill="#ffffff" stroke="#ffffff" xlink:href="#b"/>
</g>
<g clip-path="url(#a)">
<use x="617.824722" y="1093.631041" fill="#ffffff" stroke="#ffffff" xlink:href="#b"/>
</g>
<g clip-path="url(#a)">
<use x="664.975583" y="1093.631041" fill="#ffffff" stroke="#ffffff" xlink:href="#b"/>
</g>
<g clip-path="url(#a)">
<use x="712.126444" y="1093.631041" fill="#ffffff" stroke="#ffffff" xlink:href="#b"/>
</g>
<g clip-path="url(#a)">
<use x="759.277305" y="1093.631041" fill="#ffffff" stroke="#ffffff" xlink:href="#b"/>
</g>
<g clip-path="url(#a)">
<use x="806.428167" y="1093.631041" fill="#ffffff" stroke="#ffffff" xlink:href="#b"/>
</g>
<g clip-path="url(#a)">
<use x="853.579028" y="1093.631041" fill="#ffffff" stroke="#ffffff" xlink:href="#b"/>
</g>
<g clip-path="url(#a)">
<use x="900.729889" y="1093.631041" fill="#ffffff" stroke="#ffffff" xlink:href="#b"/>
</g>
<g clip-path="url(#a)">
<use x="947.88075" y="1093.631041" fill="#ffffff" stroke="#ffffff" xlink:href="#b"/>
</g>
<g clip-path="url(#a)">
<use x="995.031611" y="1093.631041" fill="#ffffff" stroke="#ffffff" xlink:href="#b"/>
</g>
<g clip-path="url(#a)">
<use x="1042.182472" y="1093.631041" fill="#ffffff" stroke="#ffffff" xlink:href="#b"/>
</g>
<g clip-path="url(#a)">
<use x="1089.333333" y="1093.631041" fill="#ffffff" stroke="#ffffff" xlink:href="#b"/>
</g>
<g clip-path="url(#a)">
<use x="1136.484194" y="1093.631041" fill="#ffffff" stroke="#ffffff" xlink:href="#b"/>
</g>
<g clip-path="url(#a)">
<use x="1183.635056" y="1093.631041" fill="#ffffff" stroke="#ffffff" xlink:href="#b"/>
</g>
<g clip-path="url(#a)">
<use x="1230.785917" y="1093.631041" fill="#ffffff" stroke="#ffffff" xlink:href="#b"/>
</g>
<g clip-path="url(#a)">
<use x="1277.936778" y="1093.631041" fill="#ffffff" stroke="#ffffff" xlink:href="#b"/>
</g>
<g clip-path="url(#a)">
<use x="1325.087639" y="1093.631041" fill="#ffffff" stroke="#ffffff" xlink:href="#b"/>
</g>
<g clip-path="url(#a)">
<use x="1372.2385" y="1093.631041" fill="#ffffff" stroke="#ffffff" xlink:href="#b"/>
</g>
<g clip-path="url(#a)">
<use x="1419.389361" y="1093.631041" fill="#ffffff" stroke="#ffffff" xlink:href="#b"/>
</g>
<g clip-path="url(#a)">
<use x="1466.540222" y="1093.631041" fill="#ffffff" stroke="#ffffff" xlink:href="#b"/>
</g>
<g clip-path="url(#a)">
<use x="1513.691083" y="1093.631041" fill="#ffffff" stroke="#ffffff" xlink:href="#b"/>
</g>
<g clip-path="url(#a)">
<use x="1560.841945" y="1093.631041" fill="#ffffff" stroke="#ffffff" xlink:href="#b"/>
</g>
<g clip-path="url(#a)">
<use x="1607.992806" y="1093.631041" fill="#ffffff" stroke="#ffffff" xlink:href="#b"/>
</g>
<g clip-path="url(#a)">
<use x="1655.143667" y="1093.631041" fill="#ffffff" stroke="#ffffff" xlink:href="#b"/>
</g>
<g clip-path="url(#a)">
<use x="1702.294528" y="1093.631041" fill="#ffffff" stroke="#ffffff" xlink:href="#b"/>
</g>
<g clip-path="url(#a)">
<use x="1749.445389" y="1093.631041" fill="#ffffff" stroke="#ffffff" xlink:href="#b"/>
</g>
<g clip-path="url(#a)">
<use x="1796.59625" y="1093.631041" fill="#ffffff" stroke="#ffffff" xlink:href="#b"/>
</g>
<g clip-path="url(#a)">
<use x="1843.747111" y="1093.631041" fill="#ffffff" stroke="#ffffff" xlink:href="#b"/>
</g>
<g clip-path="url(#a)">
<use x="1890.897973" y="1093.631041" fill="#ffffff" stroke="#ffffff" xlink:href="#b"/>
</g>
<g clip-path="url(#a)">
<use x="1938.048834" y="1093.631041" fill="#ffffff" stroke="#ffffff" xlink:href="#b"/>
</g>
<g clip-path="url(#a)">
<use x="1985.199695" y="1093.631041" fill="#ffffff" stroke="#ffffff" xlink:href="#b"/>
</g>
<g clip-path="url(#a)">
<use x="2032.350556" y="1093.631041" fill="#ffffff" stroke="#ffffff" xlink:href="#b"/>
</g>
<g clip-path="url(#a)">
<use x="2079.501417" y="1093.631041" fill="#ffffff" stroke="#ffffff" xlink:href="#b"/>
</g>
<g clip-path="url(#a)">
<use x="939.520204" y="53.035625" fill="#ffffff" stroke="#ffffff" xlink:href="#b"/>
</g>
<g clip-path="url(#a)">
<use x="643.16831" y="235.29947" fill="#ffffff" stroke="#ffffff" xlink:href="#b"/>
</g>
<g clip-path="url(#a)">
<use x="240.617833" y="925.473423" fill="#ffffff" stroke="#ffffff" xlink:href="#b"/>
</g>
<g clip-path="url(#a)">
<use x="376.176559" y="586.818929" fill="#ffffff" stroke="#ffffff" xlink:href="#b"/>
</g>
<g clip-path="url(#a)">
<use x="1332.553192" y="413.039006" fill="#ffffff" stroke="#ffffff" xlink:href="#b"/>
</g>
<g clip-path="url(#a)">
<use x="1890.897973" y="925.473423" fill="#ffffff" stroke="#ffffff" xlink:href="#b"/>
</g>
<g clip-path="url(#a)">
<use x="2024.492079" y="586.818929" fill="#ffffff" stroke="#ffffff" xlink:href="#b"/>
</g>
<g clip-path="url(#a)">
<use x="1961.624264" y="757.315804" fill="#ffffff" stroke="#ffffff" xlink:href="#b"/>
</g>
<g clip-path="url(#a)">
<use x="2032.350556" y="925.473423" fill="#ffffff" stroke="#ffffff" xlink:href="#b"/>
</g>
<g clip-path="url(#a)">
<use x="1938.048834" y="925.473423" fill="#ffffff" stroke="#ffffff" xlink:href="#b"/>
</g>
<g clip-path="url(#a)">
<use x="1985.199695" y="925.473423" fill="#ffffff" stroke="#ffffff" xlink:href="#b"/>
</g>
<g clip-path="url(#a)">
<use x="1183.635056" y="925.473423" fill="#ffffff" stroke="#ffffff" xlink:href="#b"/>
</g>
<g clip-path="url(#a)">
<use x="1385.990835" y="586.818929" fill="#ffffff" stroke="#ffffff" xlink:href="#b"/>
</g>
<g clip-path="url(#a)">
<use x="1773.02082" y="757.315804" fill="#ffffff" stroke="#ffffff" xlink:href="#b"/>
</g>
<g clip-path="url(#a)">
<use x="1702.294528" y="925.473423" fill="#ffffff" stroke="#ffffff" xlink:href="#b"/>
</g>
<g clip-path="url(#a)">
<use x="1749.445389" y="925.473423" fill="#ffffff" stroke="#ffffff" xlink:href="#b"/>
</g>
<g clip-path="url(#a)">
<use x="1843.747111" y="925.473423" fill="#ffffff" stroke="#ffffff" xlink:href="#b"/>
</g>
<g clip-path="url(#a)">
<use x="1230.785917" y="925.473423" fill="#ffffff" stroke="#ffffff" xlink:href="#b"/>
</g>
<g clip-path="url(#a)">
<use x="1427.247838" y="757.315804" fill="#ffffff" stroke="#ffffff" xlink:href="#b"/>
</g>
<g clip-path="url(#a)">
<use x="1607.992806" y="925.473423" fill="#ffffff" stroke="#ffffff" xlink:href="#b"/>
</g>
<g clip-path="url(#a)">
<use x="1348.66307" y="925.473423" fill="#ffffff" stroke="#ffffff" xlink:href="#b"/>
</g>
<g clip-path="url(#a)">
<use x="1419.389361" y="925.473423" fill="#ffffff" stroke="#ffffff" xlink:href="#b"/>
</g>
<g clip-path="url(#a)">
<use x="1513.691083" y="925.473423" fill="#ffffff" stroke="#ffffff" xlink:href="#b"/>
</g>
<g clip-path="url(#a)">
<use x="287.768694" y="925.473423" fill="#ffffff" stroke="#ffffff" xlink:href="#b"/>
</g>
<g clip-path="url(#a)">
<use x="334.919555" y="925.473423" fill="#ffffff" stroke="#ffffff" xlink:href="#b"/>
</g>
<g clip-path="url(#a)">
<use x="382.070416" y="925.473423" fill="#ffffff" stroke="#ffffff" xlink:href="#b"/>
</g>
<g clip-path="url(#a)">
<use x="499.947569" y="757.315804" fill="#ffffff" stroke="#ffffff" xlink:href="#b"/>
</g>
<g clip-path="url(#a)">
<use x="429.221278" y="925.473423" fill="#ffffff" stroke="#ffffff" xlink:href="#b"/>
</g>
<g clip-path="url(#a)">
<use x="476.372139" y="925.473423" fill="#ffffff" stroke="#ffffff" xlink:href="#b"/>
</g>
<g clip-path="url(#a)">
<use x="523.523" y="925.473423" fill="#ffffff" stroke="#ffffff" xlink:href="#b"/>
</g>
<g clip-path="url(#a)">
<use x="570.673861" y="925.473423" fill="#ffffff" stroke="#ffffff" xlink:href="#b"/>
</g>
<g clip-path="url(#a)">
<use x="122.74068" y="757.315804" fill="#ffffff" stroke="#ffffff" xlink:href="#b"/>
</g>
<g clip-path="url(#a)">
<use x="664.975583" y="925.473423" fill="#ffffff" stroke="#ffffff" xlink:href="#b"/>
</g>
<g clip-path="url(#a)">
<use x="712.126444" y="925.473423" fill="#ffffff" stroke="#ffffff" xlink:href="#b"/>
</g>
<g clip-path="url(#a)">
<use x="759.277305" y="925.473423" fill="#ffffff" stroke="#ffffff" xlink:href="#b"/>
</g>
<g clip-path="url(#a)">
<use x="956.721536" y="413.039006" fill="#ffffff" stroke="#ffffff" xlink:href="#b"/>
</g>
<g clip-path="url(#a)">
<use x="894.836031" y="586.818929" fill="#ffffff" stroke="#ffffff" xlink:href="#b"/>
</g>
<g clip-path="url(#a)">
<use x="1018.607042" y="757.315804" fill="#ffffff" stroke="#ffffff" xlink:href="#b"/>
</g>
<g clip-path="url(#a)">
<use x="193.466972" y="925.473423" fill="#ffffff" stroke="#ffffff" xlink:href="#b"/>
</g>
<g clip-path="url(#a)">
<use x="806.428167" y="925.473423" fill="#ffffff" stroke="#ffffff" xlink:href="#b"/>
</g>
<g clip-path="url(#a)">
<use x="853.579028" y="925.473423" fill="#ffffff" stroke="#ffffff" xlink:href="#b"/>
</g>
<g clip-path="url(#a)">
<use x="900.729889" y="925.473423" fill="#ffffff" stroke="#ffffff" xlink:href="#b"/>
</g>
<g clip-path="url(#a)">
<use x="99.16525" y="925.473423" fill="#ffffff" stroke="#ffffff" xlink:href="#b"/>
</g>
<g clip-path="url(#a)">
<use x="146.316111" y="925.473423" fill="#ffffff" stroke="#ffffff" xlink:href="#b"/>
</g>
<g clip-path="url(#a)">
<use x="617.824722" y="925.473423" fill="#ffffff" stroke="#ffffff" xlink:href="#b"/>
</g>
<g clip-path="url(#a)">
<use x="1042.182472" y="925.473423" fill="#ffffff" stroke="#ffffff" xlink:href="#b"/>
</g>
<g clip-path="url(#a)">
<use x="1136.484194" y="925.473423" fill="#ffffff" stroke="#ffffff" xlink:href="#b"/>
</g>
<g clip-path="url(#a)">
<use x="1277.936778" y="925.473423" fill="#ffffff" stroke="#ffffff" xlink:href="#b"/>
</g>
<g clip-path="url(#a)">
<use x="1655.143667" y="925.473423" fill="#ffffff" stroke="#ffffff" xlink:href="#b"/>
</g>
<g clip-path="url(#a)">
<use x="1796.59625" y="925.473423" fill="#ffffff" stroke="#ffffff" xlink:href="#b"/>
</g>
<g clip-path="url(#a)">
<use x="2079.501417" y="925.473423" fill="#ffffff" stroke="#ffffff" xlink:href="#b"/>
</g>
<g clip-path="url(#a)">
<defs>
<path id="aw" d="m19.672 34.812v-26.703h15.828q7.9531 0 11.781 3.2969 3.8438 3.2969 3.8438 10.078 0 6.8438-3.8438 10.078-3.8281 3.25-11.781 3.25zm0 29.984v-21.969h14.609q7.2188 0 10.75 2.7031 3.5469 2.7188 3.5469 8.2812 0 5.5156-3.5469 8.25-3.5312 2.7344-10.75 2.7344zm-9.8594 8.1094h25.203q11.281 0 17.375-4.6875 6.1094-4.6875 6.1094-13.328 0-6.7031-3.125-10.656t-9.1875-4.9219q7.2812-1.5625 11.312-6.5312 4.0312-4.9531 4.0312-12.375 0-9.7656-6.6406-15.094-6.6406-5.3125-18.906-5.3125h-26.172z"/>
<path id="aq" d="m32.172-5.0781q-3.7969-9.7656-7.4219-12.734-3.6094-2.9844-9.6562-2.9844h-7.1875v7.5156h5.2812q3.7031 0 5.75 1.7656 2.0625 1.75 4.5469 8.2969l1.6094 4.0938-22.109 53.812h9.5156l17.094-42.766 17.094 42.766h9.5156z"/>
</defs>
<g transform="translate(92.775 1096.4) scale(.1 -.1)">
<use xlink:href="#aw"/>
<use x="68.603516" xlink:href="#aq"/>
</g>
</g>
<g clip-path="url(#a)">
<defs>
<path id="c" d="m12.406 8.2969h16.109v55.625l-17.531-3.5156v8.9844l17.438 3.5156h9.8594v-64.609h16.109v-8.2969h-41.984z"/>
<path id="aj" d="m10.984 1.5156v8.9844q3.7188-1.7656 7.5156-2.6875 3.8125-0.92188 7.4844-0.92188 9.7656 0 14.906 6.5625 5.1562 6.5625 5.8906 19.953-2.8281-4.2031-7.1875-6.4531-4.3438-2.25-9.6094-2.25-10.938 0-17.312 6.6094-6.375 6.625-6.375 18.109 0 11.219 6.6406 18 6.6406 6.7969 17.672 6.7969 12.656 0 19.312-9.7031 6.6719-9.6875 6.6719-28.141 0-17.234-8.1875-27.516-8.1719-10.281-21.984-10.281-3.7188 0-7.5312 0.73438-3.7969 0.73438-7.9062 2.2031zm19.625 30.906q6.6406 0 10.516 4.5312 3.8906 4.5469 3.8906 12.469 0 7.8594-3.8906 12.422-3.875 4.5625-10.516 4.5625t-10.516-4.5625-3.875-12.422q0-7.9219 3.875-12.469 3.875-4.5312 10.516-4.5312z"/>
<path id="o" d="m40.578 39.312q7.0781-1.5156 11.047-6.3125 3.9844-4.7812 3.9844-11.812 0-10.781-7.4219-16.703-7.4219-5.9062-21.094-5.9062-4.5781 0-9.4375 0.90625t-10.031 2.7188v9.5156q4.0938-2.3906 8.9688-3.6094 4.8906-1.2188 10.219-1.2188 9.2656 0 14.125 3.6562t4.8594 10.641q0 6.4531-4.5156 10.078-4.5156 3.6406-12.562 3.6406h-8.5v8.1094h8.8906q7.2656 0 11.125 2.9062t3.8594 8.375q0 5.6094-3.9844 8.6094-3.9688 3.0156-11.391 3.0156-4.0625 0-8.7031-0.89062-4.6406-0.875-10.203-2.7188v8.7812q5.625 1.5625 10.531 2.3438t9.25 0.78125q11.234 0 17.766-5.1094 6.5469-5.0938 6.5469-13.781 0-6.0625-3.4688-10.234t-9.8594-5.7812z"/>
<path id="q" d="m19.188 8.2969h34.422v-8.2969h-46.281v8.2969q5.6094 5.8125 15.297 15.594 9.7031 9.7969 12.188 12.641 4.7344 5.3125 6.6094 9 1.8906 3.6875 1.8906 7.25 0 5.8125-4.0781 9.4688-4.0781 3.6719-10.625 3.6719-4.6406 0-9.7969-1.6094-5.1406-1.6094-11-4.8906v9.9688q5.9531 2.3906 11.125 3.6094 5.1875 1.2188 9.4844 1.2188 11.328 0 18.062-5.6719 6.7344-5.6562 6.7344-15.125 0-4.5-1.6875-8.5312-1.6719-4.0156-6.125-9.4844-1.2188-1.4219-7.7656-8.1875-6.5312-6.7656-18.453-18.922z"/>
</defs>
<g transform="translate(133.59 1096.4) scale(.1 -.1)">
<use xlink:href="#c"/>
<use x="63.623047" xlink:href="#aj"/>
<use x="127.246094" xlink:href="#o"/>
<use x="190.869141" xlink:href="#q"/>
</g>
</g>
<g clip-path="url(#a)">
<defs>
<path id="ap" d="m11.719 12.406h10.297v-8.4062l-8-15.625h-6.2969l4 15.625z"/>
</defs>
<g transform="translate(191.88 1096.4) scale(.1 -.1)">
<use xlink:href="#ap"/>
</g>
</g>
<g clip-path="url(#a)">
<defs>
<path id="u" d="m45.406 46.391v29.594h8.9844v-75.984h-8.9844v8.2031q-2.8281-4.875-7.1562-7.25-4.3125-2.375-10.375-2.375-9.9062 0-16.141 7.9062-6.2188 7.9219-6.2188 20.812t6.2188 20.797q6.2344 7.9062 16.141 7.9062 6.0625 0 10.375-2.375 4.3281-2.3594 7.1562-7.2344zm-30.609-19.094q0-9.9062 4.0781-15.547t11.203-5.6406 11.219 5.6406q4.1094 5.6406 4.1094 15.547t-4.1094 15.547q-4.0938 5.6406-11.219 5.6406t-11.203-5.6406-4.0781-15.547z"/>
<path id="t" d="m44.281 53.078v-8.5q-3.7969 1.9531-7.9062 2.9219-4.0938 0.98438-8.5 0.98438-6.6875 0-10.031-2.0469t-3.3438-6.1562q0-3.125 2.3906-4.9062t9.625-3.3906l3.0781-0.6875q9.5625-2.0469 13.594-5.7812t4.0312-10.422q0-7.625-6.0312-12.078-6.0312-4.4375-16.578-4.4375-4.3906 0-9.1562 0.85938t-10.031 2.5625v9.2812q4.9844-2.5938 9.8125-3.8906 4.8281-1.2812 9.5781-1.2812 6.3438 0 9.75 2.1719 3.4219 2.1719 3.4219 6.125 0 3.6562-2.4688 5.6094-2.4531 1.9531-10.812 3.7656l-3.125 0.73438q-8.3438 1.75-12.062 5.3906-3.7031 3.6406-3.7031 9.9844 0 7.7188 5.4688 11.906 5.4688 4.2031 15.531 4.2031 4.9688 0 9.3594-0.73438 4.4062-0.71875 8.1094-2.1875z"/>
<path id="aa" d="m18.109 8.2031v-29h-9.0312v75.484h9.0312v-8.2969q2.8438 4.875 7.1562 7.2344 4.3281 2.375 10.328 2.375 9.9688 0 16.188-7.9062 6.2344-7.9062 6.2344-20.797t-6.2344-20.812q-6.2188-7.9062-16.188-7.9062-6 0-10.328 2.375-4.3125 2.375-7.1562 7.25zm30.578 19.094q0 9.9062-4.0781 15.547t-11.203 5.6406q-7.1406 0-11.219-5.6406t-4.0781-15.547 4.0781-15.547 11.219-5.6406q7.125 0 11.203 5.6406t4.0781 15.547z"/>
<path id="m" d="m18.312 70.219v-15.531h18.5v-6.9844h-18.5v-29.688q0-6.6875 1.8281-8.5938t7.4531-1.9062h9.2188v-7.5156h-9.2188q-10.406 0-14.359 3.875-3.9531 3.8906-3.9531 14.141v29.688h-6.5938v6.9844h6.5938v15.531z"/>
</defs>
<g transform="translate(222.16 1096.4) scale(.1 -.1)">
<use xlink:href="#u"/>
<use x="63.476562" xlink:href="#e"/>
<use x="125" xlink:href="#t"/>
<use x="177.099609" xlink:href="#aa"/>
<use x="240.576172" xlink:href="#f"/>
<use x="268.359375" xlink:href="#m"/>
<use x="307.568359" xlink:href="#e"/>
</g>
</g>
<g clip-path="url(#a)">
<defs>
<path id="af" d="m54.891 33.016v-33.016h-8.9844v32.719q0 7.7656-3.0312 11.609-3.0312 3.8594-9.0781 3.8594-7.2812 0-11.484-4.6406-4.2031-4.625-4.2031-12.641v-30.906h-9.0312v75.984h9.0312v-29.797q3.2344 4.9375 7.5938 7.375 4.375 2.4375 10.094 2.4375 9.4219 0 14.25-5.8281 4.8438-5.8281 4.8438-17.156z"/>
</defs>
<g transform="translate(280.61 1096.4) scale(.1 -.1)">
<use xlink:href="#af"/>
<use x="63.378906" xlink:href="#f"/>
<use x="91.162109" xlink:href="#t"/>
</g>
</g>
<g clip-path="url(#a)">
<defs>
<path id="r" d="m30.609 48.391q-7.2188 0-11.422-5.6406t-4.2031-15.453 4.1719-15.453q4.1875-5.6406 11.453-5.6406 7.1875 0 11.375 5.6562 4.2031 5.6719 4.2031 15.438 0 9.7188-4.2031 15.406-4.1875 5.6875-11.375 5.6875zm0 7.6094q11.719 0 18.406-7.625 6.7031-7.6094 6.7031-21.078 0-13.422-6.7031-21.078-6.6875-7.6406-18.406-7.6406-11.766 0-18.438 7.6406-6.6562 7.6562-6.6562 21.078 0 13.469 6.6562 21.078 6.6719 7.625 18.438 7.625z"/>
<path id="ag" d="m45.406 27.984q0 9.7656-4.0312 15.125-4.0156 5.375-11.297 5.375-7.2188 0-11.25-5.375-4.0312-5.3594-4.0312-15.125 0-9.7188 4.0312-15.094t11.25-5.375q7.2812 0 11.297 5.375 4.0312 5.375 4.0312 15.094zm8.9844-21.203q0-13.953-6.2031-20.766-6.1875-6.8125-18.984-6.8125-4.7344 0-8.9375 0.70312t-8.1562 2.1719v8.7344q3.9531-2.1406 7.8125-3.1562 3.8594-1.0312 7.8594-1.0312 8.8438 0 13.234 4.6094t4.3906 13.938v4.4531q-2.7812-4.8438-7.125-7.2344t-10.406-2.3906q-10.047 0-16.203 7.6562-6.1562 7.6719-6.1562 20.328 0 12.688 6.1562 20.344 6.1562 7.6719 16.203 7.6719 6.0625 0 10.406-2.3906t7.125-7.2188v8.2969h8.9844z"/>
</defs>
<g transform="translate(302.42 1096.4) scale(.1 -.1)">
<use xlink:href="#j"/>
<use x="27.783203" xlink:href="#r"/>
<use x="88.964844" xlink:href="#g"/>
<use x="152.34375" xlink:href="#ag"/>
<use x="215.820312" xlink:href="#t"/>
<use x="267.919922" xlink:href="#m"/>
<use x="307.128906" xlink:href="#d"/>
<use x="368.408203" xlink:href="#g"/>
<use x="431.787109" xlink:href="#u"/>
<use x="495.263672" xlink:href="#f"/>
<use x="523.046875" xlink:href="#g"/>
<use x="586.425781" xlink:href="#ag"/>
</g>
</g>
<g clip-path="url(#a)">
<defs>
<path id="v" d="m48.781 52.594v-8.4062q-3.8125 2.1094-7.6406 3.1562t-7.7344 1.0469q-8.75 0-13.594-5.5469-4.8281-5.5312-4.8281-15.547t4.8281-15.562q4.8438-5.5312 13.594-5.5312 3.9062 0 7.7344 1.0469t7.6406 3.1562v-8.3125q-3.7656-1.75-7.7969-2.625-4.0156-0.89062-8.5625-0.89062-12.359 0-19.641 7.7656-7.2656 7.7656-7.2656 20.953 0 13.375 7.3438 21.031 7.3594 7.6719 20.156 7.6719 4.1406 0 8.0938-0.85938 3.9531-0.84375 7.6719-2.5469z"/>
</defs>
<g transform="translate(353.96 1096.4) scale(.1 -.1)">
<use xlink:href="#d"/>
<use x="61.279297" xlink:href="#t"/>
<use x="113.378906" xlink:href="#t"/>
<use x="165.478516" xlink:href="#r"/>
<use x="226.660156" xlink:href="#v"/>
<use x="281.640625" xlink:href="#f"/>
<use x="309.423828" xlink:href="#d"/>
<use x="370.703125" xlink:href="#m"/>
<use x="409.912109" xlink:href="#f"/>
<use x="437.695312" xlink:href="#r"/>
<use x="498.876953" xlink:href="#g"/>
</g>
</g>
<g clip-path="url(#a)">
<defs>
<path id="ay" d="m4.2031 54.688h8.9844l11.234-42.672 11.172 42.672h10.594l11.234-42.672 11.188 42.672h8.9844l-14.312-54.688h-10.594l-11.766 44.828-11.812-44.828h-10.609z"/>
</defs>
<g transform="translate(418.61 1096.4) scale(.1 -.1)">
<use xlink:href="#ay"/>
<use x="81.787109" xlink:href="#f"/>
<use x="109.570312" xlink:href="#m"/>
<use x="148.779297" xlink:href="#af"/>
</g>
</g>
<g clip-path="url(#a)">
<g transform="translate(468.17 1096.4) scale(.1 -.1)">
<use xlink:href="#m"/>
<use x="39.208984" xlink:href="#af"/>
<use x="102.587891" xlink:href="#e"/>
</g>
</g>
<g clip-path="url(#a)">
<defs>
<path id="al" d="m8.5 21.578v33.109h8.9844v-32.766q0-7.7656 3.0156-11.656 3.0312-3.875 9.0938-3.875 7.2656 0 11.484 4.6406 4.2344 4.6406 4.2344 12.656v31h8.9844v-54.688h-8.9844v8.4062q-3.2656-4.9844-7.5938-7.4062-4.3125-2.4219-10.031-2.4219-9.4219 0-14.312 5.8594-4.875 5.8594-4.875 17.141z"/>
<path id="at" d="m48.688 27.297q0 9.9062-4.0781 15.547t-11.203 5.6406q-7.1406 0-11.219-5.6406t-4.0781-15.547 4.0781-15.547 11.219-5.6406q7.125 0 11.203 5.6406t4.0781 15.547zm-30.578 19.094q2.8438 4.875 7.1562 7.2344 4.3281 2.375 10.328 2.375 9.9688 0 16.188-7.9062 6.2344-7.9062 6.2344-20.797t-6.2344-20.812q-6.2188-7.9062-16.188-7.9062-6 0-10.328 2.375-4.3125 2.375-7.1562 7.25v-8.2031h-9.0312v75.984h9.0312z"/>
</defs>
<g transform="translate(495.7 1096.4) scale(.1 -.1)">
<use xlink:href="#z"/>
<use x="69.419922" xlink:href="#e"/>
<use x="130.943359" xlink:href="#aa"/>
<use x="194.419922" xlink:href="#al"/>
<use x="257.798828" xlink:href="#at"/>
<use x="321.275391" xlink:href="#j"/>
<use x="349.058594" xlink:href="#f"/>
<use x="376.841797" xlink:href="#v"/>
<use x="431.822266" xlink:href="#d"/>
<use x="493.101562" xlink:href="#g"/>
</g>
</g>
<g clip-path="url(#a)">
<g transform="translate(557.62 1096.4) scale(.1 -.1)">
<use xlink:href="#x"/>
<use x="60.240234" xlink:href="#d"/>
<use x="121.519531" xlink:href="#i"/>
<use x="162.632812" xlink:href="#m"/>
<use x="201.841797" xlink:href="#aq"/>
</g>
</g>
<g clip-path="url(#a)">
<g transform="translate(616.24 1096.4) scale(.1 -.1)">
<use xlink:href="#ap"/>
</g>
</g>
<g clip-path="url(#a)">
<g transform="translate(658.73 1096.4) scale(.1 -.1)">
<use xlink:href="#af"/>
<use x="63.378906" xlink:href="#e"/>
</g>
</g>
<g clip-path="url(#a)">
<g transform="translate(695.3 1096.4) scale(.1 -.1)">
<use xlink:href="#r"/>
<use x="61.181641" xlink:href="#aa"/>
<use x="124.658203" xlink:href="#e"/>
<use x="186.181641" xlink:href="#g"/>
<use x="249.560547" xlink:href="#j"/>
<use x="277.34375" xlink:href="#aq"/>
</g>
</g>
<g clip-path="url(#a)">
<g transform="translate(733.83 1096.4) scale(.1 -.1)">
<use xlink:href="#t"/>
<use x="52.099609" xlink:href="#al"/>
<use x="115.478516" xlink:href="#aa"/>
<use x="178.955078" xlink:href="#aa"/>
<use x="242.431641" xlink:href="#r"/>
<use x="303.613281" xlink:href="#i"/>
<use x="344.726562" xlink:href="#m"/>
<use x="383.935547" xlink:href="#e"/>
<use x="445.458984" xlink:href="#u"/>
</g>
</g>
<g clip-path="url(#a)">
<g transform="translate(777.6 1096.4) scale(.1 -.1)">
<use xlink:href="#ai"/>
<use x="77.001953" xlink:href="#e"/>
<use x="138.525391" xlink:href="#k"/>
<use x="235.9375" xlink:href="#r"/>
<use x="297.119141" xlink:href="#v"/>
<use x="352.099609" xlink:href="#i"/>
<use x="393.212891" xlink:href="#d"/>
<use x="454.492188" xlink:href="#m"/>
<use x="493.701172" xlink:href="#f"/>
<use x="521.484375" xlink:href="#v"/>
</g>
</g>
<g clip-path="url(#a)">
<g transform="translate(824.06 1096.4) scale(.1 -.1)">
<use xlink:href="#aa"/>
<use x="63.476562" xlink:href="#i"/>
<use x="104.558594" xlink:href="#e"/>
<use x="166.082031" xlink:href="#t"/>
<use x="218.181641" xlink:href="#f"/>
<use x="245.964844" xlink:href="#u"/>
<use x="309.441406" xlink:href="#e"/>
<use x="370.964844" xlink:href="#g"/>
<use x="434.34375" xlink:href="#m"/>
<use x="473.552734" xlink:href="#f"/>
<use x="501.335938" xlink:href="#d"/>
<use x="562.615234" xlink:href="#j"/>
</g>
</g>
<g clip-path="url(#a)">
<g transform="translate(875.91 1096.4) scale(.1 -.1)">
<use xlink:href="#v"/>
<use x="54.980469" xlink:href="#d"/>
<use x="116.259766" xlink:href="#g"/>
<use x="179.638672" xlink:href="#u"/>
<use x="243.115234" xlink:href="#f"/>
<use x="270.898438" xlink:href="#u"/>
<use x="334.375" xlink:href="#d"/>
<use x="395.654297" xlink:href="#m"/>
<use x="434.863281" xlink:href="#e"/>
</g>
</g>
<g clip-path="url(#a)">
<defs>
<path id="az" d="m9.0781 75.984h9.0312v-44.875l26.812 23.578h11.469l-29-25.578 30.234-29.109h-11.719l-27.797 26.703v-26.703h-9.0312z"/>
</defs>
<g transform="translate(927.88 1096.4) scale(.1 -.1)">
<use xlink:href="#ao"/>
<use x="57.410156" xlink:href="#i"/>
<use x="98.523438" xlink:href="#d"/>
<use x="159.802734" xlink:href="#g"/>
<use x="223.181641" xlink:href="#az"/>
<use x="281.091797" xlink:href="#j"/>
<use x="308.875" xlink:href="#f"/>
<use x="336.658203" xlink:href="#g"/>
</g>
</g>
<g clip-path="url(#a)">
<g transform="translate(991.18 1096.4) scale(.1 -.1)">
<use xlink:href="#ai"/>
</g>
</g>
<g clip-path="url(#a)">
<defs>
<path id="h" d="m10.688 12.406h10.312v-12.406h-10.312z"/>
</defs>
<g transform="translate(1040.6 1096.4) scale(.1 -.1)">
<use xlink:href="#h"/>
</g>
</g>
<g clip-path="url(#a)">
<defs>
<path id="as" d="m2.9844 54.688h9.5156l17.094-45.891 17.094 45.891h9.5156l-20.516-54.688h-12.203z"/>
</defs>
<g transform="translate(1064.7 1096.4) scale(.1 -.1)">
<use xlink:href="#z"/>
<use x="69.419922" xlink:href="#r"/>
<use x="130.601562" xlink:href="#r"/>
<use x="191.783203" xlink:href="#t"/>
<use x="243.882812" xlink:href="#e"/>
<use x="305.40625" xlink:href="#as"/>
<use x="364.585938" xlink:href="#e"/>
<use x="426.109375" xlink:href="#j"/>
<use x="453.892578" xlink:href="#m"/>
</g>
</g>
<g clip-path="url(#a)">
<g transform="translate(1134.9 1096.4) scale(.1 -.1)">
<use xlink:href="#ap"/>
</g>
</g>
<g clip-path="url(#a)">
<g transform="translate(1165.1 1096.4) scale(.1 -.1)">
<use xlink:href="#t"/>
<use x="52.099609" xlink:href="#m"/>
<use x="91.308594" xlink:href="#d"/>
<use x="152.587891" xlink:href="#ag"/>
<use x="216.064453" xlink:href="#f"/>
<use x="243.847656" xlink:href="#g"/>
<use x="307.226562" xlink:href="#ag"/>
</g>
</g>
<g clip-path="url(#a)">
<g transform="translate(1227.7 1096.4) scale(.1 -.1)">
<use xlink:href="#d"/>
</g>
</g>
<g clip-path="url(#a)">
<defs>
<path id="ar" d="m17.922 72.906v-27.109h-8.2969v27.109zm18.453 0v-27.109h-8.2969v27.109z"/>
</defs>
<g transform="translate(1275.6 1096.4) scale(.1 -.1)">
<use xlink:href="#ar"/>
</g>
</g>
<g clip-path="url(#a)">
<defs>
<path id="av" d="m9.8125 72.906h14.703l18.594-49.609 18.703 49.609h14.703v-72.906h-9.625v64.016l-18.797-50h-9.9062l-18.797 50v-64.016h-9.5781z"/>
</defs>
<g transform="translate(1308.1 1096.4) scale(.1 -.1)">
<use xlink:href="#av"/>
<use x="86.279297" xlink:href="#r"/>
<use x="147.460938" xlink:href="#m"/>
<use x="186.669922" xlink:href="#f"/>
<use x="214.453125" xlink:href="#r"/>
<use x="275.634766" xlink:href="#g"/>
</g>
</g>
<g clip-path="url(#a)">
<g transform="translate(1354.8 1096.4) scale(.1 -.1)">
<use xlink:href="#x"/>
<use x="60.271484" xlink:href="#f"/>
<use x="88.054688" xlink:href="#v"/>
<use x="143.035156" xlink:href="#m"/>
<use x="182.244141" xlink:href="#al"/>
<use x="245.623047" xlink:href="#i"/>
<use x="286.705078" xlink:href="#e"/>
</g>
</g>
<g clip-path="url(#a)">
<g transform="translate(1410 1096.4) scale(.1 -.1)">
<use xlink:href="#d"/>
<use x="61.279297" xlink:href="#g"/>
<use x="124.658203" xlink:href="#u"/>
</g>
</g>
<g clip-path="url(#a)">
<g transform="translate(1443.6 1096.4) scale(.1 -.1)">
<use xlink:href="#ac"/>
<use x="63.183594" xlink:href="#j"/>
<use x="90.966797" xlink:href="#e"/>
<use x="152.490234" xlink:href="#v"/>
<use x="207.470703" xlink:href="#m"/>
<use x="246.679688" xlink:href="#i"/>
<use x="287.792969" xlink:href="#f"/>
<use x="315.576172" xlink:href="#v"/>
<use x="370.556641" xlink:href="#d"/>
<use x="431.835938" xlink:href="#j"/>
</g>
</g>
<g clip-path="url(#a)">
<g transform="translate(1496.2 1096.4) scale(.1 -.1)">
<use xlink:href="#x"/>
<use x="60.240234" xlink:href="#d"/>
<use x="121.519531" xlink:href="#i"/>
<use x="162.632812" xlink:href="#d"/>
<use x="223.912109" xlink:href="#u"/>
<use x="287.388672" xlink:href="#e"/>
</g>
</g>
<g clip-path="url(#a)">
<g transform="translate(1544.8 1096.4) scale(.1 -.1)">
<use xlink:href="#am"/>
<use x="63.476562" xlink:href="#aa"/>
<use x="126.953125" xlink:href="#r"/>
<use x="188.134766" xlink:href="#i"/>
<use x="229.248047" xlink:href="#m"/>
<use x="268.457031" xlink:href="#t"/>
</g>
</g>
<g clip-path="url(#a)">
<g transform="translate(1587.5 1096.4) scale(.1 -.1)">
<use xlink:href="#x"/>
<use x="60.240234" xlink:href="#d"/>
<use x="121.519531" xlink:href="#ag"/>
<use x="184.996094" xlink:href="#e"/>
<use x="246.519531" xlink:href="#d"/>
<use x="307.798828" xlink:href="#g"/>
<use x="371.177734" xlink:href="#m"/>
</g>
</g>
<g clip-path="url(#a)">
<g transform="translate(1652.8 1096.4) scale(.1 -.1)">
<use xlink:href="#ar"/>
</g>
</g>
<g clip-path="url(#a)">
<g transform="translate(1697.3 1096.4) scale(.1 -.1)">
<use xlink:href="#d"/>
<use x="61.279297" xlink:href="#m"/>
</g>
</g>
<g clip-path="url(#a)">
<g transform="translate(1741.7 1096.4) scale(.1 -.1)">
<use xlink:href="#an"/>
<use x="55.712891" xlink:href="#h"/>
<use x="87.5" xlink:href="#s"/>
</g>
</g>
<g clip-path="url(#a)">
<g transform="translate(1795 1096.4) scale(.1 -.1)">
<use xlink:href="#h"/>
</g>
</g>
<g clip-path="url(#a)">
<g transform="translate(1822.9 1096.4) scale(.1 -.1)">
<use xlink:href="#am"/>
<use x="63.476562" xlink:href="#m"/>
<use x="102.685547" xlink:href="#d"/>
<use x="163.964844" xlink:href="#u"/>
<use x="227.441406" xlink:href="#f"/>
<use x="255.224609" xlink:href="#al"/>
<use x="318.603516" xlink:href="#k"/>
</g>
</g>
<g clip-path="url(#a)">
<g transform="translate(1886.3 1096.4) scale(.1 -.1)">
<use xlink:href="#f"/>
<use x="27.783203" xlink:href="#g"/>
</g>
</g>
<g clip-path="url(#a)">
<g transform="translate(1913.4 1096.4) scale(.1 -.1)">
<use xlink:href="#z"/>
<use x="69.419922" xlink:href="#r"/>
<use x="130.601562" xlink:href="#r"/>
<use x="191.783203" xlink:href="#t"/>
<use x="243.882812" xlink:href="#e"/>
<use x="305.40625" xlink:href="#as"/>
<use x="364.585938" xlink:href="#e"/>
<use x="426.109375" xlink:href="#j"/>
<use x="453.892578" xlink:href="#m"/>
</g>
</g>
<g clip-path="url(#a)">
<defs>
<path id="ax" d="m17.922 72.906v-27.109h-8.2969v27.109z"/>
</defs>
<g transform="translate(1981.2 1096.4) scale(.1 -.1)">
<use xlink:href="#ax"/>
<use x="27.490234" xlink:href="#t"/>
</g>
</g>
<g clip-path="url(#a)">
<g transform="translate(2017.8 1096.4) scale(.1 -.1)">
<use xlink:href="#af"/>
<use x="63.378906" xlink:href="#r"/>
<use x="124.560547" xlink:href="#g"/>
<use x="187.939453" xlink:href="#r"/>
<use x="249.121094" xlink:href="#i"/>
</g>
</g>
<g clip-path="url(#a)">
<g transform="translate(2077.9 1096.4) scale(.1 -.1)">
<use xlink:href="#h"/>
</g>
</g>
<g clip-path="url(#a)">
<g transform="translate(931.57 55.795) scale(.1 -.1)">
<use xlink:href="#c"/>
<use x="63.623047" xlink:href="#h"/>
<use x="95.410156" xlink:href="#c"/>
</g>
</g>
<g clip-path="url(#a)">
<g transform="translate(635.22 238.06) scale(.1 -.1)">
<use xlink:href="#c"/>
<use x="63.623047" xlink:href="#h"/>
<use x="95.410156" xlink:href="#q"/>
</g>
</g>
<g clip-path="url(#a)">
<g transform="translate(232.67 928.23) scale(.1 -.1)">
<use xlink:href="#c"/>
<use x="63.623047" xlink:href="#h"/>
<use x="95.410156" xlink:href="#o"/>
</g>
</g>
<g clip-path="url(#a)">
<defs>
<path id="n" d="m37.797 64.312-24.906-38.922h24.906zm-2.5938 8.5938h12.406v-47.516h10.406v-8.2031h-10.406v-17.188h-9.8125v17.188h-32.906v9.5156z"/>
</defs>
<g transform="translate(368.22 589.58) scale(.1 -.1)">
<use xlink:href="#c"/>
<use x="63.623047" xlink:href="#h"/>
<use x="95.410156" xlink:href="#n"/>
</g>
</g>
<g clip-path="url(#a)">
<defs>
<path id="p" d="m10.797 72.906h38.719v-8.3125h-29.688v-17.859q2.1406 0.73438 4.2812 1.0938 2.1562 0.35938 4.3125 0.35938 12.203 0 19.328-6.6875 7.1406-6.6875 7.1406-18.109 0-11.766-7.3281-18.297-7.3281-6.5156-20.656-6.5156-4.5938 0-9.3594 0.78125-4.75 0.78125-9.8281 2.3438v9.9219q4.3906-2.3906 9.0781-3.5625t9.9062-1.1719q8.4531 0 13.375 4.4375 4.9375 4.4375 4.9375 12.062 0 7.6094-4.9375 12.047-4.9219 4.4531-13.375 4.4531-3.9531 0-7.8906-0.875-3.9219-0.875-8.0156-2.7344z"/>
</defs>
<g transform="translate(1324.6 415.8) scale(.1 -.1)">
<use xlink:href="#c"/>
<use x="63.623047" xlink:href="#h"/>
<use x="95.410156" xlink:href="#p"/>
</g>
</g>
<g clip-path="url(#a)">
<defs>
<path id="ab" d="m33.016 40.375q-6.6406 0-10.531-4.5469-3.875-4.5312-3.875-12.438 0-7.8594 3.875-12.438 3.8906-4.5625 10.531-4.5625t10.516 4.5625q3.875 4.5781 3.875 12.438 0 7.9062-3.875 12.438-3.875 4.5469-10.516 4.5469zm19.578 30.922v-8.9844q-3.7188 1.75-7.5 2.6719-3.7812 0.9375-7.5 0.9375-9.7656 0-14.922-6.5938-5.1406-6.5938-5.875-19.922 2.875 4.25 7.2188 6.5156 4.3594 2.2656 9.5781 2.2656 10.984 0 17.359-6.6719 6.375-6.6562 6.375-18.125 0-11.234-6.6406-18.031-6.6406-6.7812-17.672-6.7812-12.656 0-19.344 9.6875-6.6875 9.7031-6.6875 28.109 0 17.281 8.2031 27.562t22.016 10.281q3.7188 0 7.5-0.73438t7.8906-2.1875z"/>
</defs>
<g transform="translate(1882.9 928.23) scale(.1 -.1)">
<use xlink:href="#c"/>
<use x="63.623047" xlink:href="#h"/>
<use x="95.410156" xlink:href="#ab"/>
</g>
</g>
<g clip-path="url(#a)">
<defs>
<path id="ae" d="m8.2031 72.906h46.875v-4.2031l-26.469-68.703h-10.297l24.906 64.594h-35.016z"/>
</defs>
<g transform="translate(2016.5 589.58) scale(.1 -.1)">
<use xlink:href="#c"/>
<use x="63.623047" xlink:href="#h"/>
<use x="95.410156" xlink:href="#ae"/>
</g>
</g>
<g clip-path="url(#a)">
<g transform="translate(1950.5 760.08) scale(.1 -.1)">
<use xlink:href="#c"/>
<use x="63.623047" xlink:href="#h"/>
<use x="95.410156" xlink:href="#c"/>
<use x="159.033203" xlink:href="#q"/>
</g>
</g>
<g clip-path="url(#a)">
<g transform="translate(2021.2 928.23) scale(.1 -.1)">
<use xlink:href="#c"/>
<use x="63.623047" xlink:href="#h"/>
<use x="95.410156" xlink:href="#c"/>
<use x="159.033203" xlink:href="#o"/>
</g>
</g>
<g clip-path="url(#a)">
<g transform="translate(1926.9 928.23) scale(.1 -.1)">
<use xlink:href="#c"/>
<use x="63.623047" xlink:href="#h"/>
<use x="95.410156" xlink:href="#c"/>
<use x="159.033203" xlink:href="#n"/>
</g>
</g>
<g clip-path="url(#a)">
<g transform="translate(1974.1 928.23) scale(.1 -.1)">
<use xlink:href="#c"/>
<use x="63.623047" xlink:href="#h"/>
<use x="95.410156" xlink:href="#c"/>
<use x="159.033203" xlink:href="#p"/>
</g>
</g>
<g clip-path="url(#a)">
<g transform="translate(1172.5 928.23) scale(.1 -.1)">
<use xlink:href="#c"/>
<use x="63.623047" xlink:href="#h"/>
<use x="95.410156" xlink:href="#c"/>
<use x="159.033203" xlink:href="#ab"/>
</g>
</g>
<g clip-path="url(#a)">
<g transform="translate(1374.9 589.58) scale(.1 -.1)">
<use xlink:href="#c"/>
<use x="63.623047" xlink:href="#h"/>
<use x="95.410156" xlink:href="#c"/>
<use x="159.033203" xlink:href="#ae"/>
</g>
</g>
<g clip-path="url(#a)">
<defs>
<path id="ad" d="m31.781 34.625q-7.0312 0-11.062-3.7656-4.0156-3.7656-4.0156-10.344 0-6.5938 4.0156-10.359 4.0312-3.7656 11.062-3.7656t11.078 3.7812q4.0625 3.7969 4.0625 10.344 0 6.5781-4.0312 10.344-4.0156 3.7656-11.109 3.7656zm-9.8594 4.1875q-6.3438 1.5625-9.8906 5.9062-3.5312 4.3594-3.5312 10.609 0 8.7344 6.2188 13.812 6.2344 5.0781 17.062 5.0781 10.891 0 17.094-5.0781t6.2031-13.812q0-6.25-3.5469-10.609-3.5312-4.3438-9.8281-5.9062 7.125-1.6562 11.094-6.5 3.9844-4.8281 3.9844-11.797 0-10.609-6.4688-16.281-6.4688-5.6562-18.531-5.6562-12.047 0-18.531 5.6562-6.4688 5.6719-6.4688 16.281 0 6.9688 4 11.797 4.0156 4.8438 11.141 6.5zm-3.6094 15.578q0-5.6562 3.5312-8.8281 3.5469-3.1719 9.9375-3.1719 6.3594 0 9.9375 3.1719 3.5938 3.1719 3.5938 8.8281 0 5.6719-3.5938 8.8438-3.5781 3.1719-9.9375 3.1719-6.3906 0-9.9375-3.1719-3.5312-3.1719-3.5312-8.8438z"/>
</defs>
<g transform="translate(1761.9 760.08) scale(.1 -.1)">
<use xlink:href="#c"/>
<use x="63.623047" xlink:href="#h"/>
<use x="95.410156" xlink:href="#c"/>
<use x="159.033203" xlink:href="#ad"/>
</g>
</g>
<g clip-path="url(#a)">
<defs>
<path id="ak" d="m31.781 66.406q-7.6094 0-11.453-7.5-3.8281-7.4844-3.8281-22.531 0-14.984 3.8281-22.484 3.8438-7.5 11.453-7.5 7.6719 0 11.5 7.5 3.8438 7.5 3.8438 22.484 0 15.047-3.8438 22.531-3.8281 7.5-11.5 7.5zm0 7.8125q12.266 0 18.734-9.7031 6.4688-9.6875 6.4688-28.141 0-18.406-6.4688-28.109-6.4688-9.6875-18.734-9.6875-12.25 0-18.719 9.6875-6.4688 9.7031-6.4688 28.109 0 18.453 6.4688 28.141 6.4688 9.7031 18.719 9.7031z"/>
</defs>
<g transform="translate(1691.2 928.23) scale(.1 -.1)">
<use xlink:href="#c"/>
<use x="63.623047" xlink:href="#h"/>
<use x="95.410156" xlink:href="#q"/>
<use x="159.033203" xlink:href="#ak"/>
</g>
</g>
<g clip-path="url(#a)">
<g transform="translate(1738.3 928.23) scale(.1 -.1)">
<use xlink:href="#c"/>
<use x="63.623047" xlink:href="#h"/>
<use x="95.410156" xlink:href="#q"/>
<use x="159.033203" xlink:href="#c"/>
</g>
</g>
<g clip-path="url(#a)">
<g transform="translate(1832.6 928.23) scale(.1 -.1)">
<use xlink:href="#c"/>
<use x="63.623047" xlink:href="#h"/>
<use x="95.410156" xlink:href="#q"/>
<use x="159.033203" xlink:href="#q"/>
</g>
</g>
<g clip-path="url(#a)">
<g transform="translate(1219.7 928.23) scale(.1 -.1)">
<use xlink:href="#c"/>
<use x="63.623047" xlink:href="#h"/>
<use x="95.410156" xlink:href="#q"/>
<use x="159.033203" xlink:href="#n"/>
</g>
</g>
<g clip-path="url(#a)">
<g transform="translate(1416.1 760.08) scale(.1 -.1)">
<use xlink:href="#c"/>
<use x="63.623047" xlink:href="#h"/>
<use x="95.410156" xlink:href="#q"/>
<use x="159.033203" xlink:href="#p"/>
</g>
</g>
<g clip-path="url(#a)">
<g transform="translate(1596.9 928.23) scale(.1 -.1)">
<use xlink:href="#c"/>
<use x="63.623047" xlink:href="#h"/>
<use x="95.410156" xlink:href="#q"/>
<use x="159.033203" xlink:href="#ab"/>
</g>
</g>
<g clip-path="url(#a)">
<g transform="translate(1337.5 928.23) scale(.1 -.1)">
<use xlink:href="#c"/>
<use x="63.623047" xlink:href="#h"/>
<use x="95.410156" xlink:href="#q"/>
<use x="159.033203" xlink:href="#ad"/>
</g>
</g>
<g clip-path="url(#a)">
<g transform="translate(1408.3 928.23) scale(.1 -.1)">
<use xlink:href="#c"/>
<use x="63.623047" xlink:href="#h"/>
<use x="95.410156" xlink:href="#q"/>
<use x="159.033203" xlink:href="#aj"/>
</g>
</g>
<g clip-path="url(#a)">
<g transform="translate(1502.6 928.23) scale(.1 -.1)">
<use xlink:href="#c"/>
<use x="63.623047" xlink:href="#h"/>
<use x="95.410156" xlink:href="#o"/>
<use x="159.033203" xlink:href="#ak"/>
</g>
</g>
<g clip-path="url(#a)">
<g transform="translate(276.64 928.23) scale(.1 -.1)">
<use xlink:href="#c"/>
<use x="63.623047" xlink:href="#h"/>
<use x="95.410156" xlink:href="#o"/>
<use x="159.033203" xlink:href="#c"/>
</g>
</g>
<g clip-path="url(#a)">
<g transform="translate(323.79 928.23) scale(.1 -.1)">
<use xlink:href="#c"/>
<use x="63.623047" xlink:href="#h"/>
<use x="95.410156" xlink:href="#o"/>
<use x="159.033203" xlink:href="#q"/>
</g>
</g>
<g clip-path="url(#a)">
<g transform="translate(370.94 928.23) scale(.1 -.1)">
<use xlink:href="#c"/>
<use x="63.623047" xlink:href="#h"/>
<use x="95.410156" xlink:href="#o"/>
<use x="159.033203" xlink:href="#o"/>
</g>
</g>
<g clip-path="url(#a)">
<g transform="translate(488.81 760.08) scale(.1 -.1)">
<use xlink:href="#c"/>
<use x="63.623047" xlink:href="#h"/>
<use x="95.410156" xlink:href="#o"/>
<use x="159.033203" xlink:href="#n"/>
</g>
</g>
<g clip-path="url(#a)">
<g transform="translate(418.09 928.23) scale(.1 -.1)">
<use xlink:href="#c"/>
<use x="63.623047" xlink:href="#h"/>
<use x="95.410156" xlink:href="#o"/>
<use x="159.033203" xlink:href="#p"/>
</g>
</g>
<g clip-path="url(#a)">
<g transform="translate(465.24 928.23) scale(.1 -.1)">
<use xlink:href="#c"/>
<use x="63.623047" xlink:href="#h"/>
<use x="95.410156" xlink:href="#o"/>
<use x="159.033203" xlink:href="#ab"/>
</g>
</g>
<g clip-path="url(#a)">
<g transform="translate(512.39 928.23) scale(.1 -.1)">
<use xlink:href="#c"/>
<use x="63.623047" xlink:href="#h"/>
<use x="95.410156" xlink:href="#o"/>
<use x="159.033203" xlink:href="#ae"/>
</g>
</g>
<g clip-path="url(#a)">
<g transform="translate(559.54 928.23) scale(.1 -.1)">
<use xlink:href="#c"/>
<use x="63.623047" xlink:href="#h"/>
<use x="95.410156" xlink:href="#o"/>
<use x="159.033203" xlink:href="#ad"/>
</g>
</g>
<g clip-path="url(#a)">
<g transform="translate(111.61 760.08) scale(.1 -.1)">
<use xlink:href="#c"/>
<use x="63.623047" xlink:href="#h"/>
<use x="95.410156" xlink:href="#o"/>
<use x="159.033203" xlink:href="#aj"/>
</g>
</g>
<g clip-path="url(#a)">
<g transform="translate(653.84 928.23) scale(.1 -.1)">
<use xlink:href="#c"/>
<use x="63.623047" xlink:href="#h"/>
<use x="95.410156" xlink:href="#n"/>
<use x="159.033203" xlink:href="#ak"/>
</g>
</g>
<g clip-path="url(#a)">
<g transform="translate(700.99 928.23) scale(.1 -.1)">
<use xlink:href="#c"/>
<use x="63.623047" xlink:href="#h"/>
<use x="95.410156" xlink:href="#n"/>
<use x="159.033203" xlink:href="#c"/>
</g>
</g>
<g clip-path="url(#a)">
<g transform="translate(748.14 928.23) scale(.1 -.1)">
<use xlink:href="#c"/>
<use x="63.623047" xlink:href="#h"/>
<use x="95.410156" xlink:href="#n"/>
<use x="159.033203" xlink:href="#q"/>
</g>
</g>
<g clip-path="url(#a)">
<g transform="translate(945.59 415.8) scale(.1 -.1)">
<use xlink:href="#c"/>
<use x="63.623047" xlink:href="#h"/>
<use x="95.410156" xlink:href="#n"/>
<use x="159.033203" xlink:href="#o"/>
</g>
</g>
<g clip-path="url(#a)">
<g transform="translate(883.7 589.58) scale(.1 -.1)">
<use xlink:href="#c"/>
<use x="63.623047" xlink:href="#h"/>
<use x="95.410156" xlink:href="#n"/>
<use x="159.033203" xlink:href="#n"/>
</g>
</g>
<g clip-path="url(#a)">
<g transform="translate(1007.5 760.08) scale(.1 -.1)">
<use xlink:href="#c"/>
<use x="63.623047" xlink:href="#h"/>
<use x="95.410156" xlink:href="#n"/>
<use x="159.033203" xlink:href="#p"/>
</g>
</g>
<g clip-path="url(#a)">
<g transform="translate(182.33 928.23) scale(.1 -.1)">
<use xlink:href="#c"/>
<use x="63.623047" xlink:href="#h"/>
<use x="95.410156" xlink:href="#n"/>
<use x="159.033203" xlink:href="#ab"/>
</g>
</g>
<g clip-path="url(#a)">
<g transform="translate(795.3 928.23) scale(.1 -.1)">
<use xlink:href="#c"/>
<use x="63.623047" xlink:href="#h"/>
<use x="95.410156" xlink:href="#n"/>
<use x="159.033203" xlink:href="#ae"/>
</g>
</g>
<g clip-path="url(#a)">
<g transform="translate(842.45 928.23) scale(.1 -.1)">
<use xlink:href="#c"/>
<use x="63.623047" xlink:href="#h"/>
<use x="95.410156" xlink:href="#n"/>
<use x="159.033203" xlink:href="#ad"/>
</g>
</g>
<g clip-path="url(#a)">
<g transform="translate(889.6 928.23) scale(.1 -.1)">
<use xlink:href="#c"/>
<use x="63.623047" xlink:href="#h"/>
<use x="95.410156" xlink:href="#n"/>
<use x="159.033203" xlink:href="#aj"/>
</g>
</g>
<g clip-path="url(#a)">
<g transform="translate(88.032 928.23) scale(.1 -.1)">
<use xlink:href="#c"/>
<use x="63.623047" xlink:href="#h"/>
<use x="95.410156" xlink:href="#p"/>
<use x="159.033203" xlink:href="#ak"/>
</g>
</g>
<g clip-path="url(#a)">
<g transform="translate(135.18 928.23) scale(.1 -.1)">
<use xlink:href="#c"/>
<use x="63.623047" xlink:href="#h"/>
<use x="95.410156" xlink:href="#p"/>
<use x="159.033203" xlink:href="#c"/>
</g>
</g>
<g clip-path="url(#a)">
<g transform="translate(606.69 928.23) scale(.1 -.1)">
<use xlink:href="#c"/>
<use x="63.623047" xlink:href="#h"/>
<use x="95.410156" xlink:href="#p"/>
<use x="159.033203" xlink:href="#q"/>
</g>
</g>
<g clip-path="url(#a)">
<g transform="translate(1031 928.23) scale(.1 -.1)">
<use xlink:href="#c"/>
<use x="63.623047" xlink:href="#h"/>
<use x="95.410156" xlink:href="#p"/>
<use x="159.033203" xlink:href="#o"/>
</g>
</g>
<g clip-path="url(#a)">
<g transform="translate(1125.4 928.23) scale(.1 -.1)">
<use xlink:href="#c"/>
<use x="63.623047" xlink:href="#h"/>
<use x="95.410156" xlink:href="#p"/>
<use x="159.033203" xlink:href="#n"/>
</g>
</g>
<g clip-path="url(#a)">
<g transform="translate(1266.8 928.23) scale(.1 -.1)">
<use xlink:href="#c"/>
<use x="63.623047" xlink:href="#h"/>
<use x="95.410156" xlink:href="#p"/>
<use x="159.033203" xlink:href="#p"/>
</g>
</g>
<g clip-path="url(#a)">
<g transform="translate(1644 928.23) scale(.1 -.1)">
<use xlink:href="#c"/>
<use x="63.623047" xlink:href="#h"/>
<use x="95.410156" xlink:href="#p"/>
<use x="159.033203" xlink:href="#ab"/>
</g>
</g>
<g clip-path="url(#a)">
<g transform="translate(1785.5 928.23) scale(.1 -.1)">
<use xlink:href="#c"/>
<use x="63.623047" xlink:href="#h"/>
<use x="95.410156" xlink:href="#p"/>
<use x="159.033203" xlink:href="#ae"/>
</g>
</g>
<g clip-path="url(#a)">
<g transform="translate(2068.4 928.23) scale(.1 -.1)">
<use xlink:href="#c"/>
<use x="63.623047" xlink:href="#h"/>
<use x="95.410156" xlink:href="#p"/>
<use x="159.033203" xlink:href="#ad"/>
</g>
</g>
<defs>
<clipPath id="a">
<rect width="2178.7" height="1146.7"/>
</clipPath>
</defs>
</svg>
