<?xml version="1.0" encoding="UTF-8"?>
<!DOCTYPE svg  PUBLIC '-//W3C//DTD SVG 1.1//EN'  'http://www.w3.org/Graphics/SVG/1.1/DTD/svg11.dtd'>
<svg width="1722.7pt" height="906.67pt" version="1.1" viewBox="0 0 1722.7 906.67" xmlns="http://www.w3.org/2000/svg" xmlns:xlink="http://www.w3.org/1999/xlink">
<defs>
<style type="text/css">*{stroke-linecap:butt;stroke-linejoin:round;}</style>
</defs>
<path d="m0 906.67h1722.7v-906.67h-1722.7z" fill="#fff"/>
<g fill="none" stroke="#000">
<path d="m663.88 41.212-547.96 332.22" clip-path="url(#a)"/>
<path d="m663.88 41.212-455.7 662.03" clip-path="url(#a)"/>
<path d="m663.88 41.212-452.37 332.22" clip-path="url(#a)"/>
<path d="m663.88 41.212-237.36 332.22" clip-path="url(#a)"/>
<path d="m663.88 41.212 218.68 662.03" clip-path="url(#a)"/>
<path d="m663.88 41.212 387.27 166.32" clip-path="url(#a)"/>
<path d="m663.88 41.212 568.36 662.03" clip-path="url(#a)"/>
<path d="m663.88 41.212 616.23 332.22" clip-path="url(#a)"/>
<path d="m663.88 41.212-253.39 662.03" clip-path="url(#a)"/>
<path d="m663.88 41.212 156.24 662.03" clip-path="url(#a)"/>
<path d="m115.92 373.43-33.875 329.81" clip-path="url(#a)"/>
<path d="m115.92 373.43-13.893 329.81" clip-path="url(#a)"/>
<path d="m115.92 373.43 7.337 329.81" clip-path="url(#a)"/>
<path d="m115.92 373.43 40.432 165.34" clip-path="url(#a)"/>
<path d="m208.18 703.24v162.22" clip-path="url(#a)"/>
<path d="m211.51 373.43 24.144 329.81" clip-path="url(#a)"/>
<path d="m211.51 373.43 105.32 165.34" clip-path="url(#a)"/>
<path d="m211.51 373.43-129.46 329.81" clip-path="url(#a)" stroke-dasharray="3.7,1.6"/>
<path d="m426.52 373.43 26.434 329.81" clip-path="url(#a)"/>
<path d="m426.52 373.43 95.121 165.34" clip-path="url(#a)"/>
<path d="m426.52 373.43 222.92 165.34" clip-path="url(#a)"/>
<path d="m426.52 373.43-344.48 329.81" clip-path="url(#a)" stroke-dasharray="3.7,1.6"/>
<path d="m882.56 703.24v162.22" clip-path="url(#a)"/>
<path d="m1051.2 207.53-69.936 165.9" clip-path="url(#a)"/>
<path d="m1051.2 207.53 69.936 495.71" clip-path="url(#a)"/>
<path d="m1232.2 703.24v162.22" clip-path="url(#a)"/>
<path d="m1280.1 373.43 29.556 329.81" clip-path="url(#a)"/>
<path d="m1280.1 373.43 235.62 165.34" clip-path="url(#a)"/>
<path d="m1280.1 373.43-265.17 329.81" clip-path="url(#a)" stroke-dasharray="3.7,1.6"/>
<path d="m1309.7 703.24v162.22" clip-path="url(#a)"/>
<path d="m1515.7 538.76-126.13 164.47" clip-path="url(#a)"/>
<path d="m1515.7 538.76-43.71 164.47" clip-path="url(#a)"/>
<path d="m1515.7 538.76 41.212 164.47" clip-path="url(#a)"/>
<path d="m1515.7 538.76 128.63 164.47" clip-path="url(#a)"/>
<path d="m1389.6 703.24v162.22" clip-path="url(#a)"/>
<path d="m1472 703.24v162.22" clip-path="url(#a)"/>
<path d="m1556.9 703.24v162.22" clip-path="url(#a)"/>
<path d="m981.22 373.43v165.34" clip-path="url(#a)"/>
<path d="m1121.1 703.24-36.217 162.22" clip-path="url(#a)"/>
<path d="m1121.1 703.24 36.217 162.22" clip-path="url(#a)"/>
<path d="m981.22 538.76-33.719 164.47" clip-path="url(#a)"/>
<path d="m981.22 538.76 33.719 164.47" clip-path="url(#a)"/>
<path d="m947.5 703.24v162.22" clip-path="url(#a)"/>
<path d="m1014.9 703.24v162.22" clip-path="url(#a)"/>
<path d="m452.96 703.24v162.22" clip-path="url(#a)"/>
<path d="m521.65 538.76-23.728 164.47" clip-path="url(#a)"/>
<path d="m521.65 538.76 23.728 164.47" clip-path="url(#a)"/>
<path d="m649.44 538.76-54.117 164.47" clip-path="url(#a)"/>
<path d="m649.44 538.76 54.117 164.47" clip-path="url(#a)"/>
<path d="m595.33 703.24v162.22" clip-path="url(#a)"/>
<path d="m703.56 703.24-55.782 162.22" clip-path="url(#a)"/>
<path d="m703.56 703.24-0.83257 162.22" clip-path="url(#a)"/>
<path d="m703.56 703.24 56.615 162.22" clip-path="url(#a)"/>
<path d="m497.92 703.24v162.22" clip-path="url(#a)"/>
<path d="m545.37 703.24v162.22" clip-path="url(#a)"/>
<path d="m235.66 703.24v162.22" clip-path="url(#a)"/>
<path d="m316.83 538.76-51.203 164.47" clip-path="url(#a)"/>
<path d="m316.83 538.76-18.733 164.47" clip-path="url(#a)"/>
<path d="m316.83 538.76 16.235 164.47" clip-path="url(#a)"/>
<path d="m316.83 538.76 53.701 164.47" clip-path="url(#a)"/>
<path d="m265.63 703.24v162.22" clip-path="url(#a)"/>
<path d="m298.1 703.24v162.22" clip-path="url(#a)"/>
<path d="m333.07 703.24v162.22" clip-path="url(#a)"/>
<path d="m370.53 703.24v162.22" clip-path="url(#a)"/>
<path d="m82.05 703.24-3.7466 162.22" clip-path="url(#a)"/>
<path d="m82.05 703.24 3.7466 162.22" clip-path="url(#a)"/>
<path d="m102.03 703.24-6.2443 162.22" clip-path="url(#a)"/>
<path d="m102.03 703.24 6.2443 162.22" clip-path="url(#a)"/>
<path d="m123.26 703.24v162.22" clip-path="url(#a)"/>
<path d="m156.36 538.76-15.611 164.47" clip-path="url(#a)"/>
<path d="m156.36 538.76 15.611 164.47" clip-path="url(#a)"/>
<path d="m140.75 703.24v162.22" clip-path="url(#a)"/>
<path d="m171.97 703.24-11.24 162.22" clip-path="url(#a)"/>
<path d="m171.97 703.24 11.24 162.22" clip-path="url(#a)"/>
<path d="m410.5 703.24v162.22" clip-path="url(#a)"/>
<path d="m820.12 703.24v162.22" clip-path="url(#a)"/>
<path d="m1644.4 703.24v162.22" clip-path="url(#a)"/>
</g>
<path d="m390.58 214.24 5.1446-3.1191q2.0523-1.2443 0.80802-3.2965l-4.014-6.6207q-1.2443-2.0523-3.2965-0.80802l-5.1446 3.1191q-2.0523 1.2443-0.80802 3.2965l4.014 6.6207q1.2443 2.0523 3.2965 0.80802z" clip-path="url(#a)" fill="#fff" stroke="#fff"/>
<g clip-path="url(#a)">
<defs>
<path id="y" d="m9.8125 72.906h9.8594v-29.891h35.844v29.891h9.8594v-72.906h-9.8594v34.719h-35.844v-34.719h-9.8594z"/>
</defs>
<g transform="translate(388.48 210.77) rotate(-31.228) scale(.08 -.08)">
<use xlink:href="#y"/>
</g>
</g>
<path d="m439.94 377.62 2.5274-3.6717q1.3608-1.9769-0.61612-3.3377l-6.3776-4.39q-1.9769-1.3608-3.3377 0.61612l-2.5274 3.6717q-1.3608 1.9769 0.61612 3.3377l6.3776 4.39q1.9769 1.3608 3.3377-0.61612z" clip-path="url(#a)" fill="#fff" stroke="#fff"/>
<g clip-path="url(#a)">
<defs>
<path id="aa" d="m9.8125 72.906h9.8594v-64.609h35.5v-8.2969h-45.359z"/>
</defs>
<g transform="translate(436.59 375.31) rotate(-55.459) scale(.08 -.08)">
<use xlink:href="#aa"/>
</g>
</g>
<path d="m438.99 214.16 4.8491-3.5611q1.9344-1.4206 0.51379-3.355l-4.5829-6.2404q-1.4206-1.9344-3.355-0.51379l-4.8491 3.5611q-1.9344 1.4206-0.51379 3.355l4.5829 6.2404q1.4206 1.9344 3.355 0.51379z" clip-path="url(#a)" fill="#fff" stroke="#fff"/>
<g clip-path="url(#a)">
<g transform="translate(436.58 210.88) rotate(-36.293) scale(.08 -.08)">
<use xlink:href="#y"/>
</g>
</g>
<path d="m548.56 213.41 3.4975-4.8952q1.3952-1.9528-0.55757-3.348l-6.2998-4.501q-1.9528-1.3952-3.348 0.55757l-3.4975 4.8952q-1.3952 1.9528 0.55757 3.348l6.2998 4.501q1.9528 1.3952 3.348-0.55757z" clip-path="url(#a)" fill="#fff" stroke="#fff"/>
<g clip-path="url(#a)">
<g transform="translate(545.25 211.05) rotate(-54.455) scale(.08 -.08)">
<use xlink:href="#y"/>
</g>
</g>
<path d="m766.57 372.08 1.3981 4.2326q0.75276 2.2789 3.0317 1.5261l7.3518-2.4284q2.2789-0.75276 1.5261-3.0317l-1.3981-4.2326q-0.75276-2.2789-3.0317-1.5261l-7.3518 2.4284q-2.2789 0.75276-1.5261 3.0317z" clip-path="url(#a)" fill="#fff" stroke="#fff"/>
<g clip-path="url(#a)">
<g transform="translate(770.43 370.8) rotate(71.721) scale(.08 -.08)">
<use xlink:href="#aa"/>
</g>
</g>
<path d="m852.28 128.95 5.528 2.3741q2.2052 0.94706 3.1523-1.2582l3.0553-7.1142q0.94706-2.2052-1.2582-3.1523l-5.528-2.3741q-2.2052-0.94706-3.1523 1.2582l-3.0553 7.1142q-0.94706 2.2052 1.2582 3.1523z" clip-path="url(#a)" fill="#fff" stroke="#fff"/>
<g clip-path="url(#a)">
<g transform="translate(853.89 125.21) rotate(23.242) scale(.08 -.08)">
<use xlink:href="#y"/>
</g>
</g>
<path d="m941.85 374.62 2.9036 3.3821q1.5633 1.821 3.3843 0.25764l5.8746-5.0434q1.821-1.5633 0.25764-3.3843l-2.9036-3.3821q-1.5633-1.821-3.3843-0.25765l-5.8746 5.0434q-1.821 1.5633-0.25765 3.3843z" clip-path="url(#a)" fill="#fff" stroke="#fff"/>
<g clip-path="url(#a)">
<g transform="translate(944.94 371.97) rotate(49.353) scale(.08 -.08)">
<use xlink:href="#aa"/>
</g>
</g>
<path d="m966.38 211.41 5.2957 2.855q2.1126 1.1389 3.2515-0.97365l3.6742-6.8152q1.1389-2.1126-0.97365-3.2515l-5.2957-2.855q-2.1126-1.1389-3.2515 0.97365l-3.6742 6.8152q-1.1389 2.1126 0.97365 3.2515z" clip-path="url(#a)" fill="#fff" stroke="#fff"/>
<g clip-path="url(#a)">
<g transform="translate(968.3 207.84) rotate(28.33) scale(.08 -.08)">
<use xlink:href="#y"/>
</g>
</g>
<path d="m542 377.2 2.0929-5.4682q0.8579-2.2414-1.3835-3.0993l-7.231-2.7676q-2.2414-0.8579-3.0993 1.3835l-2.0929 5.4682q-0.8579 2.2414 1.3835 3.0993l7.231 2.7676q2.2414 0.8579 3.0993-1.3835z" clip-path="url(#a)" fill="#fff" stroke="#fff"/>
<g clip-path="url(#a)">
<defs>
<path id="aj" d="m8.6875 72.906h9.9219v-44.297q0-11.719 4.2344-16.875 4.25-5.1406 13.781-5.1406 9.4688 0 13.719 5.1406 4.25 5.1562 4.25 16.875v44.297h9.9062v-45.516q0-14.25-7.0625-21.531-7.0469-7.2812-20.812-7.2812-13.828 0-20.891 7.2812-7.0469 7.2812-7.0469 21.531z"/>
</defs>
<g transform="translate(538.21 375.75) rotate(-69.056) scale(.08 -.08)">
<use xlink:href="#aj"/>
</g>
</g>
<path d="m735.23 370.82 1.3448 5.6985q0.55125 2.3358 2.8871 1.7846l7.5355-1.7784q2.3358-0.55125 1.7846-2.8871l-1.3448-5.6985q-0.55125-2.3358-2.8871-1.7846l-7.5355 1.7784q-2.3358 0.55125-1.7846 2.8871z" clip-path="url(#a)" fill="#fff" stroke="#fff"/>
<g clip-path="url(#a)">
<g transform="translate(739.18 369.88) rotate(76.721) scale(.08 -.08)">
<use xlink:href="#aj"/>
</g>
</g>
<path d="m104.95 541.7 0.55915-5.4439q0.24522-2.3874-2.1422-2.6327l-7.702-0.79108q-2.3874-0.24522-2.6327 2.1422l-0.55915 5.4439q-0.24522 2.3874 2.1422 2.6327l7.702 0.79108q2.3874 0.24522 2.6327-2.1422z" clip-path="url(#a)" fill="#fff" stroke="#fff"/>
<g clip-path="url(#a)">
<defs>
<path id="o" d="m34.188 63.188-13.391-36.281h26.812zm-5.5781 9.7188h11.188l27.781-72.906h-10.25l-6.6406 18.703h-32.859l-6.6406-18.703h-10.406z"/>
</defs>
<g transform="translate(100.9 541.28) rotate(-84.136) scale(.08 -.08)">
<use xlink:href="#o"/>
</g>
</g>
<path d="m115.14 541.01 0.20302-4.8195q0.10101-2.3979-2.2969-2.4989l-7.7356-0.32587q-2.3979-0.10101-2.4989 2.2969l-0.20302 4.8195q-0.10101 2.3979 2.2969 2.4989l7.7356 0.32587q2.3979 0.10101 2.4989-2.2969z" clip-path="url(#a)" fill="#fff" stroke="#fff"/>
<g clip-path="url(#a)">
<defs>
<path id="v" d="m19.672 64.797v-27.391h12.406q6.8906 0 10.641 3.5625 3.7656 3.5625 3.7656 10.156 0 6.5469-3.7656 10.109-3.75 3.5625-10.641 3.5625zm-9.8594 8.1094h22.266q12.266 0 18.531-5.5469 6.2812-5.5469 6.2812-16.234 0-10.797-6.2812-16.312-6.2656-5.5156-18.531-5.5156h-12.406v-29.297h-9.8594z"/>
</defs>
<g transform="translate(111.08 540.84) rotate(-87.588) scale(.08 -.08)">
<use xlink:href="#v"/>
</g>
</g>
<path d="m113.26 535.39 0.137 6.1585q0.053378 2.3994 2.4528 2.346l7.7406-0.1722q2.3994-0.053377 2.346-2.4528l-0.137-6.1585q-0.053378-2.3994-2.4528-2.346l-7.7406 0.1722q-2.3994 0.053378-2.346 2.4528z" clip-path="url(#a)" fill="#fff" stroke="#fff"/>
<g clip-path="url(#a)">
<defs>
<path id="au" d="m19.672 64.797v-56.688h11.922q15.094 0 22.094 6.8281 7 6.8438 7 21.594 0 14.641-7 21.453t-22.094 6.8125zm-9.8594 8.1094h20.266q21.188 0 31.094-8.8125 9.9219-8.8125 9.9219-27.562 0-18.859-9.9688-27.703-9.9531-8.8281-31.047-8.8281h-20.266z"/>
</defs>
<g transform="translate(117.32 535.3) rotate(88.726) scale(.08 -.08)">
<use xlink:href="#au"/>
</g>
</g>
<path d="m129.4 454.93 1.3 5.3159q0.5701 2.3313 2.9014 1.7612l7.5209-1.8392q2.3313-0.5701 1.7612-2.9014l-1.3-5.3159q-0.5701-2.3313-2.9014-1.7612l-7.5209 1.8392q-2.3313 0.5701-1.7612 2.9014z" clip-path="url(#a)" fill="#fff" stroke="#fff"/>
<g clip-path="url(#a)">
<g transform="translate(133.35 453.96) rotate(76.258) scale(.08 -.08)">
<use xlink:href="#o"/>
</g>
</g>
<path d="m201.91 767.44v33.808q0 2.4 2.4 2.4h7.7425q2.4 0 2.4-2.4v-33.808q0-2.4-2.4-2.4h-7.7425q-2.4 0-2.4 2.4z" clip-path="url(#a)" fill="#fff" stroke="#fff"/>
<g clip-path="url(#a)">
<defs>
<path id="k" d="m-0.29688 72.906h61.672v-8.3125h-25.875v-64.594h-9.9062v64.594h-25.891z"/>
<path id="d" d="m56.203 29.594v-4.3906h-41.312q0.59375-9.2812 5.5938-14.141t13.938-4.8594q5.1719 0 10.031 1.2656t9.6562 3.8125v-8.5q-4.8438-2.0469-9.9219-3.125t-10.297-1.0781q-13.094 0-20.734 7.6094-7.6406 7.625-7.6406 20.625 0 13.422 7.25 21.297 7.25 7.8906 19.562 7.8906 11.031 0 17.453-7.1094 6.4219-7.0938 6.4219-19.297zm-8.9844 2.6406q-0.09375 7.3594-4.125 11.75-4.0312 4.4062-10.672 4.4062-7.5156 0-12.031-4.25t-5.2031-11.969z"/>
<path id="e" d="m41.109 46.297q-1.5156 0.875-3.2969 1.2812-1.7812 0.42188-3.9219 0.42188-7.625 0-11.703-4.9531t-4.0781-14.234v-28.812h-9.0312v54.688h9.0312v-8.5q2.8438 4.9844 7.375 7.3906 4.5469 2.4219 11.047 2.4219 0.92188 0 2.0469-0.125 1.125-0.10938 2.4844-0.35938z"/>
<path id="l" d="m52 44.188q3.375 6.0625 8.0625 8.9375t11.031 2.875q8.5469 0 13.188-5.9844 4.6406-5.9688 4.6406-17v-33.016h-9.0312v32.719q0 7.8594-2.7969 11.656-2.7812 3.8125-8.4844 3.8125-6.9844 0-11.047-4.6406-4.0469-4.625-4.0469-12.641v-30.906h-9.0312v32.719q0 7.9062-2.7812 11.688t-8.5938 3.7812q-6.8906 0-10.953-4.6562-4.0469-4.6562-4.0469-12.625v-30.906h-9.0312v54.688h9.0312v-8.5q3.0781 5.0312 7.375 7.4219t10.203 2.3906q5.9688 0 10.141-3.0312 4.1719-3.0156 6.1719-8.7812z"/>
<path id="f" d="m9.4219 54.688h8.9844v-54.688h-8.9844zm0 21.297h8.9844v-11.391h-8.9844z"/>
<path id="h" d="m54.891 33.016v-33.016h-8.9844v32.719q0 7.7656-3.0312 11.609-3.0312 3.8594-9.0781 3.8594-7.2812 0-11.484-4.6406-4.2031-4.625-4.2031-12.641v-30.906h-9.0312v54.688h9.0312v-8.5q3.2344 4.9375 7.5938 7.375 4.375 2.4375 10.094 2.4375 9.4219 0 14.25-5.8281 4.8438-5.8281 4.8438-17.156z"/>
<path id="i" d="m34.281 27.484q-10.891 0-15.094-2.4844t-4.2031-8.5q0-4.7812 3.1562-7.5938 3.1562-2.7969 8.5625-2.7969 7.4844 0 12 5.2969t4.5156 14.078v2zm17.922 3.7188v-31.203h-8.9844v8.2969q-3.0781-4.9688-7.6719-7.3438t-11.234-2.375q-8.3906 0-13.359 4.7188-4.9531 4.7188-4.9531 12.625 0 9.2188 6.1719 13.906 6.1875 4.6875 18.438 4.6875h12.609v0.89062q0 6.2031-4.0781 9.5938t-11.453 3.3906q-4.6875 0-9.1406-1.125-4.4375-1.125-8.5312-3.375v8.3125q4.9219 1.9062 9.5625 2.8438 4.6406 0.95312 9.0312 0.95312 11.875 0 17.734-6.1562 5.8594-6.1406 5.8594-18.641z"/>
<path id="j" d="m9.4219 75.984h8.9844v-75.984h-8.9844z"/>
</defs>
<g transform="translate(205.98 767.44) rotate(90) scale(.08 -.08)">
<use xlink:href="#k"/>
<use x="44.083984" xlink:href="#d"/>
<use x="105.607422" xlink:href="#e"/>
<use x="144.970703" xlink:href="#l"/>
<use x="242.382812" xlink:href="#f"/>
<use x="270.166016" xlink:href="#h"/>
<use x="333.544922" xlink:href="#i"/>
<use x="394.824219" xlink:href="#j"/>
</g>
</g>
<path d="m217.16 536.39 0.35219 4.8109q0.17523 2.3936 2.5688 2.2184l7.7218-0.5653q2.3936-0.17523 2.2184-2.5688l-0.35219-4.8109q-0.17523-2.3936-2.5688-2.2184l-7.7218 0.5653q-2.3936 0.17523-2.2184 2.5688z" clip-path="url(#a)" fill="#fff" stroke="#fff"/>
<g clip-path="url(#a)">
<g transform="translate(221.21 536.09) rotate(85.813) scale(.08 -.08)">
<use xlink:href="#v"/>
</g>
</g>
<path d="m257.41 457.16 2.9402 4.6156q1.2894 2.0242 3.3136 0.73477l6.5302-4.1597q2.0242-1.2894 0.73477-3.3136l-2.9402-4.6156q-1.2894-2.0242-3.3136-0.73477l-6.5302 4.1597q-2.0242 1.2894-0.73477 3.3136z" clip-path="url(#a)" fill="#fff" stroke="#fff"/>
<g clip-path="url(#a)">
<g transform="translate(260.84 454.98) rotate(57.503) scale(.08 -.08)">
<use xlink:href="#o"/>
</g>
</g>
<path d="m151.62 543.17 1.9996-5.0941q0.87696-2.234-1.3571-3.111l-7.2071-2.8291q-2.234-0.87696-3.111 1.3571l-1.9996 5.0941q-0.87696 2.234 1.3571 3.111l7.2071 2.8291q2.234 0.87696 3.111-1.3571z" clip-path="url(#a)" fill="#fff" stroke="#fff"/>
<g clip-path="url(#a)">
<g transform="translate(147.84 541.69) rotate(-68.568) scale(.08 -.08)">
<use xlink:href="#o"/>
</g>
</g>
<path d="m433.3 536.43 0.38538 4.8083q0.19174 2.3923 2.5841 2.2006l7.7178-0.61857q2.3923-0.19174 2.2006-2.5841l-0.38538-4.8083q-0.19174-2.3923-2.5841-2.2006l-7.7178 0.61857q-2.3923 0.19174-2.2006 2.5841z" clip-path="url(#a)" fill="#fff" stroke="#fff"/>
<g clip-path="url(#a)">
<g transform="translate(437.35 536.11) rotate(85.418) scale(.08 -.08)">
<use xlink:href="#v"/>
</g>
</g>
<path d="m467.28 456.85 2.729 4.7435q1.1968 2.0803 3.2771 0.88346l6.7111-3.861q2.0803-1.1968 0.88346-3.2771l-2.729-4.7435q-1.1968-2.0803-3.2771-0.88346l-6.7111 3.861q-2.0803 1.1968-0.88346 3.2771z" clip-path="url(#a)" fill="#fff" stroke="#fff"/>
<g clip-path="url(#a)">
<g transform="translate(470.81 454.83) rotate(60.087) scale(.08 -.08)">
<use xlink:href="#o"/>
</g>
</g>
<path d="m532.05 459.5 4.3955 3.2601q1.9277 1.4297 3.3574-0.49795l4.6123-6.2187q1.4297-1.9277-0.49795-3.3574l-4.3955-3.2601q-1.9277-1.4297-3.3574 0.49795l-4.6123 6.2187q-1.4297 1.9277 0.49795 3.3574z" clip-path="url(#a)" fill="#fff" stroke="#fff"/>
<g clip-path="url(#a)">
<g transform="translate(534.47 456.24) rotate(36.564) scale(.08 -.08)">
<use xlink:href="#o"/>
</g>
</g>
<path d="m256.65 544.76 3.9529-3.7846q1.7336-1.6598 0.073806-3.3933l-5.3544-5.5925q-1.6598-1.7336-3.3933-0.073806l-3.9529 3.7846q-1.7336 1.6598-0.073806 3.3933l5.3544 5.5925q1.6598 1.7336 3.3933 0.073806z" clip-path="url(#a)" fill="#fff" stroke="#fff"/>
<g clip-path="url(#a)">
<g transform="translate(253.84 541.82) rotate(-43.754) scale(.08 -.08)">
<use xlink:href="#o"/>
</g>
</g>
<path d="m876.29 767.44v33.808q0 2.4 2.4 2.4h7.7425q2.4 0 2.4-2.4v-33.808q0-2.4-2.4-2.4h-7.7425q-2.4 0-2.4 2.4z" clip-path="url(#a)" fill="#fff" stroke="#fff"/>
<g clip-path="url(#a)">
<g transform="translate(880.36 767.44) rotate(90) scale(.08 -.08)">
<use xlink:href="#k"/>
<use x="44.083984" xlink:href="#d"/>
<use x="105.607422" xlink:href="#e"/>
<use x="144.970703" xlink:href="#l"/>
<use x="242.382812" xlink:href="#f"/>
<use x="270.166016" xlink:href="#h"/>
<use x="333.544922" xlink:href="#i"/>
<use x="394.824219" xlink:href="#j"/>
</g>
</g>
<path d="m1020.9 295.44 2.1258-5.0427q0.93228-2.2115-1.2792-3.1438l-7.1345-3.0076q-2.2115-0.93228-3.1438 1.2792l-2.1258 5.0427q-0.93228 2.2115 1.2792 3.1438l7.1345 3.0076q2.2115 0.93228 3.1438-1.2792z" clip-path="url(#a)" fill="#fff" stroke="#fff"/>
<g clip-path="url(#a)">
<g transform="translate(1017.2 293.86) rotate(-67.142) scale(.08 -.08)">
<use xlink:href="#o"/>
</g>
</g>
<path d="m1079.6 453.87 0.67387 4.7764q0.33528 2.3765 2.7117 2.0412l7.6666-1.0816q2.3765-0.33528 2.0412-2.7117l-0.67387-4.7764q-0.33528-2.3765-2.7117-2.0412l-7.6666 1.0816q-2.3765 0.33528-2.0412 2.7117z" clip-path="url(#a)" fill="#fff" stroke="#fff"/>
<g clip-path="url(#a)">
<g transform="translate(1083.6 453.3) rotate(81.97) scale(.08 -.08)">
<use xlink:href="#v"/>
</g>
</g>
<path d="m1226 767.44v33.808q0 2.4 2.4 2.4h7.7425q2.4 0 2.4-2.4v-33.808q0-2.4-2.4-2.4h-7.7425q-2.4 0-2.4 2.4z" clip-path="url(#a)" fill="#fff" stroke="#fff"/>
<g clip-path="url(#a)">
<g transform="translate(1230 767.44) rotate(90) scale(.08 -.08)">
<use xlink:href="#k"/>
<use x="44.083984" xlink:href="#d"/>
<use x="105.607422" xlink:href="#e"/>
<use x="144.970703" xlink:href="#l"/>
<use x="242.382812" xlink:href="#f"/>
<use x="270.166016" xlink:href="#h"/>
<use x="333.544922" xlink:href="#i"/>
<use x="394.824219" xlink:href="#j"/>
</g>
</g>
<path d="m1288.4 536.49 0.43056 4.8045q0.21422 2.3904 2.6046 2.1762l7.7116-0.69108q2.3904-0.21422 2.1762-2.6046l-0.43056-4.8045q-0.21422-2.3904-2.6046-2.1762l-7.7116 0.69108q-2.3904 0.21422-2.1762 2.6046z" clip-path="url(#a)" fill="#fff" stroke="#fff"/>
<g clip-path="url(#a)">
<g transform="translate(1292.5 536.13) rotate(84.879) scale(.08 -.08)">
<use xlink:href="#v"/>
</g>
</g>
<path d="m1392.1 459.66 4.4796 3.1434q1.9646 1.3786 3.3431-0.586l4.4473-6.3378q1.3786-1.9646-0.586-3.3431l-4.4796-3.1434q-1.9646-1.3786-3.3431 0.586l-4.4473 6.3378q-1.3786 1.9646 0.586 3.3431z" clip-path="url(#a)" fill="#fff" stroke="#fff"/>
<g clip-path="url(#a)">
<g transform="translate(1394.4 456.33) rotate(35.058) scale(.08 -.08)">
<use xlink:href="#o"/>
</g>
</g>
<path d="m1150.7 544.4 3.4291-4.2649q1.5038-1.8704-0.36656-3.3743l-6.034-4.8515q-1.8704-1.5038-3.3743 0.36656l-3.4291 4.2649q-1.5038 1.8704 0.36656 3.3743l6.034 4.8515q1.8704 1.5038 3.3743-0.36656z" clip-path="url(#a)" fill="#fff" stroke="#fff"/>
<g clip-path="url(#a)">
<g transform="translate(1147.5 541.85) rotate(-51.2) scale(.08 -.08)">
<use xlink:href="#o"/>
</g>
</g>
<path d="m1303.4 767.44v33.808q0 2.4 2.4 2.4h7.7425q2.4 0 2.4-2.4v-33.808q0-2.4-2.4-2.4h-7.7425q-2.4 0-2.4 2.4z" clip-path="url(#a)" fill="#fff" stroke="#fff"/>
<g clip-path="url(#a)">
<g transform="translate(1307.5 767.44) rotate(90) scale(.08 -.08)">
<use xlink:href="#k"/>
<use x="44.083984" xlink:href="#d"/>
<use x="105.607422" xlink:href="#e"/>
<use x="144.970703" xlink:href="#l"/>
<use x="242.382812" xlink:href="#f"/>
<use x="270.166016" xlink:href="#h"/>
<use x="333.544922" xlink:href="#i"/>
<use x="394.824219" xlink:href="#j"/>
</g>
</g>
<path d="m1456.1 626.82 3.0762-4.0112q1.4605-1.9044-0.44393-3.365l-6.1438-4.7117q-1.9044-1.4605-3.365 0.44393l-3.0762 4.0112q-1.4605 1.9044 0.44393 3.365l6.1438 4.7117q1.9044 1.4605 3.365-0.44393z" clip-path="url(#a)" fill="#fff" stroke="#fff"/>
<g clip-path="url(#a)">
<defs>
<path id="ab" d="m9.8125 72.906h46.094v-8.3125h-36.234v-21.578h34.719v-8.2969h-34.719v-26.422h37.109v-8.2969h-46.969z"/>
</defs>
<g transform="translate(1452.9 624.35) rotate(-52.515) scale(.08 -.08)">
<use xlink:href="#ab"/>
</g>
</g>
<path d="m1499.3 625.05 1.2983-4.8854q0.61642-2.3195-1.7031-2.9359l-7.4828-1.9886q-2.3195-0.61642-2.9359 1.7031l-1.2983 4.8854q-0.61642 2.3195 1.7031 2.9359l7.4828 1.9886q2.3195 0.61642 2.9359-1.7031z" clip-path="url(#a)" fill="#fff" stroke="#fff"/>
<g clip-path="url(#a)">
<g transform="translate(1495.4 624.01) rotate(-75.117) scale(.08 -.08)">
<use xlink:href="#ab"/>
</g>
</g>
<path d="m1529.6 619.82 1.3578 5.4187q0.58334 2.328 2.9114 1.7447l7.5103-1.8819q2.328-0.58334 1.7447-2.9114l-1.3578-5.4187q-0.58334-2.328-2.9114-1.7447l-7.5103 1.8819q-2.328 0.58334-1.7447 2.9114z" clip-path="url(#a)" fill="#fff" stroke="#fff"/>
<g clip-path="url(#a)">
<defs>
<path id="z" d="m64.406 67.281v-10.391q-4.9844 4.6406-10.625 6.9219-5.6406 2.2969-11.984 2.2969-12.5 0-19.141-7.6406t-6.6406-22.094q0-14.406 6.6406-22.047t19.141-7.6406q6.3438 0 11.984 2.2969t10.625 6.9375v-10.312q-5.1719-3.5156-10.969-5.2812-5.7812-1.75-12.219-1.75-16.562 0-26.094 10.125-9.5156 10.141-9.5156 27.672 0 17.578 9.5156 27.703 9.5312 10.141 26.094 10.141 6.5312 0 12.312-1.7344 5.7969-1.7344 10.875-5.2031z"/>
</defs>
<g transform="translate(1533.5 618.83) rotate(75.933) scale(.08 -.08)">
<use xlink:href="#z"/>
</g>
</g>
<path d="m1573.3 622.56 3.607 4.612q1.4785 1.8905 3.369 0.41197l6.0988-4.7698q1.8905-1.4785 0.41197-3.369l-3.607-4.612q-1.4785-1.8905-3.369-0.41197l-6.0988 4.7698q-1.8905 1.4785-0.41197 3.369z" clip-path="url(#a)" fill="#fff" stroke="#fff"/>
<g clip-path="url(#a)">
<g transform="translate(1576.5 620.06) rotate(51.972) scale(.08 -.08)">
<use xlink:href="#aj"/>
</g>
</g>
<path d="m1383.3 767.44v33.808q0 2.4 2.4 2.4h7.7425q2.4 0 2.4-2.4v-33.808q0-2.4-2.4-2.4h-7.7425q-2.4 0-2.4 2.4z" clip-path="url(#a)" fill="#fff" stroke="#fff"/>
<g clip-path="url(#a)">
<g transform="translate(1387.4 767.44) rotate(90) scale(.08 -.08)">
<use xlink:href="#k"/>
<use x="44.083984" xlink:href="#d"/>
<use x="105.607422" xlink:href="#e"/>
<use x="144.970703" xlink:href="#l"/>
<use x="242.382812" xlink:href="#f"/>
<use x="270.166016" xlink:href="#h"/>
<use x="333.544922" xlink:href="#i"/>
<use x="394.824219" xlink:href="#j"/>
</g>
</g>
<path d="m1465.8 767.44v33.808q0 2.4 2.4 2.4h7.7425q2.4 0 2.4-2.4v-33.808q0-2.4-2.4-2.4h-7.7425q-2.4 0-2.4 2.4z" clip-path="url(#a)" fill="#fff" stroke="#fff"/>
<g clip-path="url(#a)">
<g transform="translate(1469.8 767.44) rotate(90) scale(.08 -.08)">
<use xlink:href="#k"/>
<use x="44.083984" xlink:href="#d"/>
<use x="105.607422" xlink:href="#e"/>
<use x="144.970703" xlink:href="#l"/>
<use x="242.382812" xlink:href="#f"/>
<use x="270.166016" xlink:href="#h"/>
<use x="333.544922" xlink:href="#i"/>
<use x="394.824219" xlink:href="#j"/>
</g>
</g>
<path d="m1550.7 767.44v33.808q0 2.4 2.4 2.4h7.7425q2.4 0 2.4-2.4v-33.808q0-2.4-2.4-2.4h-7.7425q-2.4 0-2.4 2.4z" clip-path="url(#a)" fill="#fff" stroke="#fff"/>
<g clip-path="url(#a)">
<g transform="translate(1554.7 767.44) rotate(90) scale(.08 -.08)">
<use xlink:href="#k"/>
<use x="44.083984" xlink:href="#d"/>
<use x="105.607422" xlink:href="#e"/>
<use x="144.970703" xlink:href="#l"/>
<use x="242.382812" xlink:href="#f"/>
<use x="270.166016" xlink:href="#h"/>
<use x="333.544922" xlink:href="#i"/>
<use x="394.824219" xlink:href="#j"/>
</g>
</g>
<path d="m974.82 449.47v13.246q0 2.4 2.4 2.4h8q2.4 0 2.4-2.4v-13.246q0-2.4-2.4-2.4h-8q-2.4 0-2.4 2.4z" clip-path="url(#a)" fill="#fff" stroke="#fff"/>
<g clip-path="url(#a)">
<defs>
<path id="av" d="m21 76.422v-100h-8.2969v100z"/>
<path id="ao" d="m53.516 70.516v-9.625q-5.6094 2.6875-10.594 4-4.9844 1.3281-9.625 1.3281-8.0469 0-12.422-3.125t-4.375-8.8906q0-4.8438 2.9062-7.3125 2.9062-2.4531 11.016-3.9688l5.9531-1.2188q11.031-2.1094 16.281-7.4062t5.25-14.172q0-10.609-7.1094-16.078-7.0938-5.4688-20.812-5.4688-5.1719 0-11.016 1.1719-5.8281 1.1719-12.078 3.4688v10.156q6-3.3594 11.766-5.0781 5.7656-1.7031 11.328-1.7031 8.4375 0 13.031 3.3125 4.5938 3.3281 4.5938 9.4844 0 5.3594-3.2969 8.3906t-10.812 4.5469l-6.0156 1.1719q-11.031 2.1875-15.969 6.875-4.9219 4.6875-4.9219 13.047 0 9.6719 6.8125 15.234t18.766 5.5625q5.1406 0 10.453-0.9375 5.3281-0.92188 10.891-2.7656z"/>
</defs>
<g transform="translate(979.11 449.47) rotate(90) scale(.08 -.08)">
<use xlink:href="#o"/>
<use x="68.408203" xlink:href="#av"/>
<use x="102.099609" xlink:href="#ao"/>
</g>
</g>
<path d="m1105.4 802.21 7.3666-32.995q0.52295-2.3423-1.8194-2.8653l-7.5565-1.6871q-2.3423-0.52295-2.8653 1.8194l-7.3665 32.995q-0.52295 2.3423 1.8194 2.8653l7.5565 1.6871q2.3423 0.52295 2.8653-1.8194z" clip-path="url(#a)" fill="#fff" stroke="#fff"/>
<g clip-path="url(#a)">
<g transform="translate(1101.5 801.32) rotate(-77.414) scale(.08 -.08)">
<use xlink:href="#k"/>
<use x="44.083984" xlink:href="#d"/>
<use x="105.607422" xlink:href="#e"/>
<use x="144.970703" xlink:href="#l"/>
<use x="242.382812" xlink:href="#f"/>
<use x="270.166016" xlink:href="#h"/>
<use x="333.544922" xlink:href="#i"/>
<use x="394.824219" xlink:href="#j"/>
</g>
</g>
<path d="m1129.4 769.22 7.3665 32.995q0.52295 2.3423 2.8653 1.8194l7.5565-1.6871q2.3423-0.52295 1.8194-2.8653l-7.3665-32.995q-0.52295-2.3423-2.8653-1.8194l-7.5565 1.6871q-2.3423 0.52295-1.8194 2.8653z" clip-path="url(#a)" fill="#fff" stroke="#fff"/>
<g clip-path="url(#a)">
<g transform="translate(1133.4 768.33) rotate(77.414) scale(.08 -.08)">
<use xlink:href="#k"/>
<use x="44.083984" xlink:href="#d"/>
<use x="105.607422" xlink:href="#e"/>
<use x="144.970703" xlink:href="#l"/>
<use x="242.382812" xlink:href="#f"/>
<use x="270.166016" xlink:href="#h"/>
<use x="333.544922" xlink:href="#i"/>
<use x="394.824219" xlink:href="#j"/>
</g>
</g>
<path d="m970 624.74 1.0152-4.952q0.482-2.3511-1.8691-2.8331l-7.5847-1.555q-2.3511-0.482-2.8331 1.8691l-1.0152 4.952q-0.482 2.3511 1.8691 2.8331l7.5847 1.555q2.3511 0.482 2.8331-1.8691z" clip-path="url(#a)" fill="#fff" stroke="#fff"/>
<g clip-path="url(#a)">
<g transform="translate(966.02 623.92) rotate(-78.414) scale(.08 -.08)">
<use xlink:href="#ab"/>
</g>
</g>
<path d="m991.38 619.52 1.1219 5.4724q0.482 2.3511 2.8331 1.8691l7.5847-1.555q2.3511-0.482 1.8691-2.8331l-1.1219-5.4724q-0.482-2.3511-2.8331-1.8691l-7.5847 1.555q-2.3511 0.482-1.8691 2.8331z" clip-path="url(#a)" fill="#fff" stroke="#fff"/>
<g clip-path="url(#a)">
<g transform="translate(995.36 618.71) rotate(78.414) scale(.08 -.08)">
<use xlink:href="#z"/>
</g>
</g>
<path d="m941.23 767.44v33.808q0 2.4 2.4 2.4h7.7425q2.4 0 2.4-2.4v-33.808q0-2.4-2.4-2.4h-7.7425q-2.4 0-2.4 2.4z" clip-path="url(#a)" fill="#fff" stroke="#fff"/>
<g clip-path="url(#a)">
<g transform="translate(945.3 767.44) rotate(90) scale(.08 -.08)">
<use xlink:href="#k"/>
<use x="44.083984" xlink:href="#d"/>
<use x="105.607422" xlink:href="#e"/>
<use x="144.970703" xlink:href="#l"/>
<use x="242.382812" xlink:href="#f"/>
<use x="270.166016" xlink:href="#h"/>
<use x="333.544922" xlink:href="#i"/>
<use x="394.824219" xlink:href="#j"/>
</g>
</g>
<path d="m1008.7 767.44v33.808q0 2.4 2.4 2.4h7.7425q2.4 0 2.4-2.4v-33.808q0-2.4-2.4-2.4h-7.7425q-2.4 0-2.4 2.4z" clip-path="url(#a)" fill="#fff" stroke="#fff"/>
<g clip-path="url(#a)">
<g transform="translate(1012.7 767.44) rotate(90) scale(.08 -.08)">
<use xlink:href="#k"/>
<use x="44.083984" xlink:href="#d"/>
<use x="105.607422" xlink:href="#e"/>
<use x="144.970703" xlink:href="#l"/>
<use x="242.382812" xlink:href="#f"/>
<use x="270.166016" xlink:href="#h"/>
<use x="333.544922" xlink:href="#i"/>
<use x="394.824219" xlink:href="#j"/>
</g>
</g>
<path d="m446.69 767.44v33.808q0 2.4 2.4 2.4h7.7425q2.4 0 2.4-2.4v-33.808q0-2.4-2.4-2.4h-7.7425q-2.4 0-2.4 2.4z" clip-path="url(#a)" fill="#fff" stroke="#fff"/>
<g clip-path="url(#a)">
<g transform="translate(450.75 767.44) rotate(90) scale(.08 -.08)">
<use xlink:href="#k"/>
<use x="44.083984" xlink:href="#d"/>
<use x="105.607422" xlink:href="#e"/>
<use x="144.970703" xlink:href="#l"/>
<use x="242.382812" xlink:href="#f"/>
<use x="270.166016" xlink:href="#h"/>
<use x="333.544922" xlink:href="#i"/>
<use x="394.824219" xlink:href="#j"/>
</g>
</g>
<path d="m515.63 624.4 0.7218-5.0032q0.3427-2.3754-2.0327-2.7181l-7.6632-1.1055q-2.3754-0.3427-2.7181 2.0327l-0.7218 5.0032q-0.34269 2.3754 2.0327 2.7181l7.6632 1.1055q2.3754 0.34269 2.7181-2.0327z" clip-path="url(#a)" fill="#fff" stroke="#fff"/>
<g clip-path="url(#a)">
<g transform="translate(511.61 623.82) rotate(-81.791) scale(.08 -.08)">
<use xlink:href="#ab"/>
</g>
</g>
<path d="m526.9 619.13 0.79766 5.529q0.3427 2.3754 2.7181 2.0327l7.6632-1.1055q2.3754-0.3427 2.0327-2.7181l-0.79766-5.529q-0.3427-2.3754-2.7181-2.0327l-7.6632 1.1055q-2.3754 0.3427-2.0327 2.7181z" clip-path="url(#a)" fill="#fff" stroke="#fff"/>
<g clip-path="url(#a)">
<g transform="translate(530.93 618.55) rotate(81.791) scale(.08 -.08)">
<use xlink:href="#z"/>
</g>
</g>
<path d="m627.47 625.6 1.7374-5.2803q0.75012-2.2798-1.5296-3.0299l-7.3546-2.4199q-2.2798-0.75012-3.0299 1.5296l-1.7374 5.2803q-0.75012 2.2798 1.5296 3.0299l7.3546 2.4199q2.2798 0.75012 3.0299-1.5296z" clip-path="url(#a)" fill="#fff" stroke="#fff"/>
<g clip-path="url(#a)">
<defs>
<path id="ak" d="m44.391 34.188q3.1719-1.0781 6.1719-4.5938t6.0312-9.6719l10.016-19.922h-10.609l-9.3125 18.703q-3.625 7.3281-7.0156 9.7188t-9.25 2.3906h-10.75v-30.812h-9.8594v72.906h22.266q12.5 0 18.656-5.2344 6.1562-5.2188 6.1562-15.766 0-6.8906-3.2031-11.438-3.2031-4.5312-9.2969-6.2812zm-24.719 30.609v-25.875h12.406q7.125 0 10.766 3.2969t3.6406 9.6875-3.6406 9.6406-10.766 3.25z"/>
</defs>
<g transform="translate(623.61 624.33) rotate(-71.787) scale(.08 -.08)">
<use xlink:href="#ak"/>
</g>
</g>
<path d="m669.67 620.31 1.746 5.3064q0.75012 2.2798 3.0299 1.5296l7.3546-2.4199q2.2798-0.75012 1.5296-3.0299l-1.746-5.3064q-0.75012-2.2798-3.0299-1.5296l-7.3546 2.4199q-2.2798 0.75012-1.5296 3.0299z" clip-path="url(#a)" fill="#fff" stroke="#fff"/>
<g clip-path="url(#a)">
<g transform="translate(673.53 619.04) rotate(71.787) scale(.08 -.08)">
<use xlink:href="#z"/>
</g>
</g>
<path d="m589.06 767.44v33.808q0 2.4 2.4 2.4h7.7425q2.4 0 2.4-2.4v-33.808q0-2.4-2.4-2.4h-7.7425q-2.4 0-2.4 2.4z" clip-path="url(#a)" fill="#fff" stroke="#fff"/>
<g clip-path="url(#a)">
<g transform="translate(593.12 767.44) rotate(90) scale(.08 -.08)">
<use xlink:href="#k"/>
<use x="44.083984" xlink:href="#d"/>
<use x="105.607422" xlink:href="#e"/>
<use x="144.970703" xlink:href="#l"/>
<use x="242.382812" xlink:href="#f"/>
<use x="270.166016" xlink:href="#h"/>
<use x="333.544922" xlink:href="#i"/>
<use x="394.824219" xlink:href="#j"/>
</g>
</g>
<path d="m676.1 802.37 10.994-31.97q0.78044-2.2696-1.4891-3.05l-7.3217-2.5177q-2.2696-0.78044-3.05 1.4891l-10.994 31.97q-0.78044 2.2696 1.4891 3.05l7.3217 2.5177q2.2696 0.78044 3.05-1.4891z" clip-path="url(#a)" fill="#fff" stroke="#fff"/>
<g clip-path="url(#a)">
<g transform="translate(672.26 801.05) rotate(-71.023) scale(.08 -.08)">
<use xlink:href="#k"/>
<use x="44.083984" xlink:href="#d"/>
<use x="105.607422" xlink:href="#e"/>
<use x="144.970703" xlink:href="#l"/>
<use x="242.382812" xlink:href="#f"/>
<use x="270.166016" xlink:href="#h"/>
<use x="333.544922" xlink:href="#i"/>
<use x="394.824219" xlink:href="#j"/>
</g>
</g>
<path d="m709.33 801.28 0.17351-33.807q0.012318-2.4-2.3876-2.4123l-7.7424-0.039738q-2.4-0.012317-2.4123 2.3877l-0.17351 33.807q-0.012317 2.4 2.3877 2.4123l7.7424 0.039737q2.4 0.012318 2.4123-2.3876z" clip-path="url(#a)" fill="#fff" stroke="#fff"/>
<g clip-path="url(#a)">
<g transform="translate(705.27 801.26) rotate(-89.706) scale(.08 -.08)">
<use xlink:href="#k"/>
<use x="44.083984" xlink:href="#d"/>
<use x="105.607422" xlink:href="#e"/>
<use x="144.970703" xlink:href="#l"/>
<use x="242.382812" xlink:href="#f"/>
<use x="270.166016" xlink:href="#h"/>
<use x="333.544922" xlink:href="#i"/>
<use x="394.824219" xlink:href="#j"/>
</g>
</g>
<path d="m720.38 770.45 11.14 31.919q0.79084 2.266 3.0568 1.4751l7.3101-2.5513q2.266-0.79084 1.4751-3.0568l-11.14-31.919q-0.79084-2.266-3.0568-1.4751l-7.3101 2.5513q-2.266 0.79084-1.4751 3.0568z" clip-path="url(#a)" fill="#fff" stroke="#fff"/>
<g clip-path="url(#a)">
<g transform="translate(724.21 769.11) rotate(70.761) scale(.08 -.08)">
<use xlink:href="#k"/>
<use x="44.083984" xlink:href="#d"/>
<use x="105.607422" xlink:href="#e"/>
<use x="144.970703" xlink:href="#l"/>
<use x="242.382812" xlink:href="#f"/>
<use x="270.166016" xlink:href="#h"/>
<use x="333.544922" xlink:href="#i"/>
<use x="394.824219" xlink:href="#j"/>
</g>
</g>
<path d="m491.65 767.44v33.808q0 2.4 2.4 2.4h7.7425q2.4 0 2.4-2.4v-33.808q0-2.4-2.4-2.4h-7.7425q-2.4 0-2.4 2.4z" clip-path="url(#a)" fill="#fff" stroke="#fff"/>
<g clip-path="url(#a)">
<g transform="translate(495.71 767.44) rotate(90) scale(.08 -.08)">
<use xlink:href="#k"/>
<use x="44.083984" xlink:href="#d"/>
<use x="105.607422" xlink:href="#e"/>
<use x="144.970703" xlink:href="#l"/>
<use x="242.382812" xlink:href="#f"/>
<use x="270.166016" xlink:href="#h"/>
<use x="333.544922" xlink:href="#i"/>
<use x="394.824219" xlink:href="#j"/>
</g>
</g>
<path d="m539.1 767.44v33.808q0 2.4 2.4 2.4h7.7425q2.4 0 2.4-2.4v-33.808q0-2.4-2.4-2.4h-7.7425q-2.4 0-2.4 2.4z" clip-path="url(#a)" fill="#fff" stroke="#fff"/>
<g clip-path="url(#a)">
<g transform="translate(543.17 767.44) rotate(90) scale(.08 -.08)">
<use xlink:href="#k"/>
<use x="44.083984" xlink:href="#d"/>
<use x="105.607422" xlink:href="#e"/>
<use x="144.970703" xlink:href="#l"/>
<use x="242.382812" xlink:href="#f"/>
<use x="270.166016" xlink:href="#h"/>
<use x="333.544922" xlink:href="#i"/>
<use x="394.824219" xlink:href="#j"/>
</g>
</g>
<path d="m229.39 767.44v33.808q0 2.4 2.4 2.4h7.7425q2.4 0 2.4-2.4v-33.808q0-2.4-2.4-2.4h-7.7425q-2.4 0-2.4 2.4z" clip-path="url(#a)" fill="#fff" stroke="#fff"/>
<g clip-path="url(#a)">
<g transform="translate(233.45 767.44) rotate(90) scale(.08 -.08)">
<use xlink:href="#k"/>
<use x="44.083984" xlink:href="#d"/>
<use x="105.607422" xlink:href="#e"/>
<use x="144.970703" xlink:href="#l"/>
<use x="242.382812" xlink:href="#f"/>
<use x="270.166016" xlink:href="#h"/>
<use x="333.544922" xlink:href="#i"/>
<use x="394.824219" xlink:href="#j"/>
</g>
</g>
<path d="m296.39 625.52 1.6523-5.3075q0.71338-2.2915-1.5781-3.0049l-7.3926-2.3014q-2.2915-0.71339-3.0049 1.5781l-1.6523 5.3075q-0.71339 2.2915 1.5781 3.0049l7.3926 2.3014q2.2915 0.71338 3.0049-1.5781z" clip-path="url(#a)" fill="#fff" stroke="#fff"/>
<g clip-path="url(#a)">
<g transform="translate(292.51 624.31) rotate(-72.708) scale(.08 -.08)">
<use xlink:href="#ak"/>
</g>
</g>
<path d="m313.44 624 0.5207-4.5717q0.27159-2.3846-2.113-2.6562l-7.6928-0.87617q-2.3846-0.27159-2.6562 2.113l-0.5207 4.5717q-0.27159 2.3846 2.113 2.6562l7.6928 0.87617q2.3846 0.27159 2.6562-2.113z" clip-path="url(#a)" fill="#fff" stroke="#fff"/>
<g clip-path="url(#a)">
<defs>
<path id="at" d="m9.8125 72.906h41.891v-8.3125h-32.031v-21.484h28.906v-8.2969h-28.906v-34.812h-9.8594z"/>
</defs>
<g transform="translate(309.4 623.54) rotate(-83.502) scale(.08 -.08)">
<use xlink:href="#at"/>
</g>
</g>
<path d="m318.44 618.89 0.53758 5.446q0.23576 2.3884 2.6242 2.1526l7.7051-0.76056q2.3884-0.23576 2.1526-2.6242l-0.53758-5.446q-0.23576-2.3884-2.6242-2.1526l-7.7051 0.76056q-2.3884 0.23576-2.1526 2.6242z" clip-path="url(#a)" fill="#fff" stroke="#fff"/>
<g clip-path="url(#a)">
<g transform="translate(322.49 618.5) rotate(84.363) scale(.08 -.08)">
<use xlink:href="#o"/>
</g>
</g>
<path d="m336.97 620.66 1.4972 4.5855q0.7449 2.2815 3.0264 1.5366l7.3601-2.4031q2.2815-0.7449 1.5366-3.0264l-1.4972-4.5855q-0.7449-2.2815-3.0264-1.5366l-7.3601 2.4031q-2.2815 0.7449-1.5366 3.0264z" clip-path="url(#a)" fill="#fff" stroke="#fff"/>
<g clip-path="url(#a)">
<g transform="translate(340.84 619.39) rotate(71.918) scale(.08 -.08)">
<use xlink:href="#v"/>
</g>
</g>
<path d="m259.36 767.44v33.808q0 2.4 2.4 2.4h7.7425q2.4 0 2.4-2.4v-33.808q0-2.4-2.4-2.4h-7.7425q-2.4 0-2.4 2.4z" clip-path="url(#a)" fill="#fff" stroke="#fff"/>
<g clip-path="url(#a)">
<g transform="translate(263.42 767.44) rotate(90) scale(.08 -.08)">
<use xlink:href="#k"/>
<use x="44.083984" xlink:href="#d"/>
<use x="105.607422" xlink:href="#e"/>
<use x="144.970703" xlink:href="#l"/>
<use x="242.382812" xlink:href="#f"/>
<use x="270.166016" xlink:href="#h"/>
<use x="333.544922" xlink:href="#i"/>
<use x="394.824219" xlink:href="#j"/>
</g>
</g>
<path d="m291.83 767.44v33.808q0 2.4 2.4 2.4h7.7425q2.4 0 2.4-2.4v-33.808q0-2.4-2.4-2.4h-7.7425q-2.4 0-2.4 2.4z" clip-path="url(#a)" fill="#fff" stroke="#fff"/>
<g clip-path="url(#a)">
<g transform="translate(295.89 767.44) rotate(90) scale(.08 -.08)">
<use xlink:href="#k"/>
<use x="44.083984" xlink:href="#d"/>
<use x="105.607422" xlink:href="#e"/>
<use x="144.970703" xlink:href="#l"/>
<use x="242.382812" xlink:href="#f"/>
<use x="270.166016" xlink:href="#h"/>
<use x="333.544922" xlink:href="#i"/>
<use x="394.824219" xlink:href="#j"/>
</g>
</g>
<path d="m326.8 767.44v33.808q0 2.4 2.4 2.4h7.7425q2.4 0 2.4-2.4v-33.808q0-2.4-2.4-2.4h-7.7425q-2.4 0-2.4 2.4z" clip-path="url(#a)" fill="#fff" stroke="#fff"/>
<g clip-path="url(#a)">
<g transform="translate(330.86 767.44) rotate(90) scale(.08 -.08)">
<use xlink:href="#k"/>
<use x="44.083984" xlink:href="#d"/>
<use x="105.607422" xlink:href="#e"/>
<use x="144.970703" xlink:href="#l"/>
<use x="242.382812" xlink:href="#f"/>
<use x="270.166016" xlink:href="#h"/>
<use x="333.544922" xlink:href="#i"/>
<use x="394.824219" xlink:href="#j"/>
</g>
</g>
<path d="m364.26 767.44v33.808q0 2.4 2.4 2.4h7.7425q2.4 0 2.4-2.4v-33.808q0-2.4-2.4-2.4h-7.7425q-2.4 0-2.4 2.4z" clip-path="url(#a)" fill="#fff" stroke="#fff"/>
<g clip-path="url(#a)">
<g transform="translate(368.33 767.44) rotate(90) scale(.08 -.08)">
<use xlink:href="#k"/>
<use x="44.083984" xlink:href="#d"/>
<use x="105.607422" xlink:href="#e"/>
<use x="144.970703" xlink:href="#l"/>
<use x="242.382812" xlink:href="#f"/>
<use x="270.166016" xlink:href="#h"/>
<use x="333.544922" xlink:href="#i"/>
<use x="394.824219" xlink:href="#j"/>
</g>
</g>
<path d="m86.056 801.39 0.78061-33.798q0.055415-2.3994-2.3439-2.4548l-7.7404-0.17877q-2.3994-0.055416-2.4548 2.3439l-0.78061 33.798q-0.055415 2.3994 2.3439 2.4548l7.7404 0.17877q2.3994 0.055416 2.4548-2.3439z" clip-path="url(#a)" fill="#fff" stroke="#fff"/>
<g clip-path="url(#a)">
<g transform="translate(81.993 801.3) rotate(-88.677) scale(.08 -.08)">
<use xlink:href="#k"/>
<use x="44.083984" xlink:href="#d"/>
<use x="105.607422" xlink:href="#e"/>
<use x="144.970703" xlink:href="#l"/>
<use x="242.382812" xlink:href="#f"/>
<use x="270.166016" xlink:href="#h"/>
<use x="333.544922" xlink:href="#i"/>
<use x="394.824219" xlink:href="#j"/>
</g>
</g>
<path d="m77.263 767.59 0.78061 33.798q0.055416 2.3994 2.4548 2.3439l7.7404-0.17877q2.3994-0.055416 2.3439-2.4548l-0.78061-33.798q-0.055416-2.3994-2.4548-2.3439l-7.7404 0.17877q-2.3994 0.055416-2.3439 2.4548z" clip-path="url(#a)" fill="#fff" stroke="#fff"/>
<g clip-path="url(#a)">
<g transform="translate(81.326 767.5) rotate(88.677) scale(.08 -.08)">
<use xlink:href="#k"/>
<use x="44.083984" xlink:href="#d"/>
<use x="105.607422" xlink:href="#e"/>
<use x="144.970703" xlink:href="#l"/>
<use x="242.382812" xlink:href="#f"/>
<use x="270.166016" xlink:href="#h"/>
<use x="333.544922" xlink:href="#i"/>
<use x="394.824219" xlink:href="#j"/>
</g>
</g>
<path d="m104.53 801.48 1.3004-33.782q0.092316-2.3982-2.3059-2.4905l-7.7368-0.29782q-2.3982-0.092315-2.4905 2.3059l-1.3004 33.782q-0.092315 2.3982 2.3059 2.4905l7.7368 0.29781q2.3982 0.092316 2.4905-2.3059z" clip-path="url(#a)" fill="#fff" stroke="#fff"/>
<g clip-path="url(#a)">
<g transform="translate(100.46 801.32) rotate(-87.796) scale(.08 -.08)">
<use xlink:href="#k"/>
<use x="44.083984" xlink:href="#d"/>
<use x="105.607422" xlink:href="#e"/>
<use x="144.970703" xlink:href="#l"/>
<use x="242.382812" xlink:href="#f"/>
<use x="270.166016" xlink:href="#h"/>
<use x="333.544922" xlink:href="#i"/>
<use x="394.824219" xlink:href="#j"/>
</g>
</g>
<path d="m98.237 767.7 1.3004 33.782q0.092316 2.3982 2.4905 2.3059l7.7368-0.29781q2.3982-0.092316 2.3059-2.4905l-1.3004-33.782q-0.092316-2.3982-2.4905-2.3059l-7.7368 0.29782q-2.3982 0.092315-2.3059 2.4905z" clip-path="url(#a)" fill="#fff" stroke="#fff"/>
<g clip-path="url(#a)">
<g transform="translate(102.3 767.54) rotate(87.796) scale(.08 -.08)">
<use xlink:href="#k"/>
<use x="44.083984" xlink:href="#d"/>
<use x="105.607422" xlink:href="#e"/>
<use x="144.970703" xlink:href="#l"/>
<use x="242.382812" xlink:href="#f"/>
<use x="270.166016" xlink:href="#h"/>
<use x="333.544922" xlink:href="#i"/>
<use x="394.824219" xlink:href="#j"/>
</g>
</g>
<path d="m116.99 767.44v33.808q0 2.4 2.4 2.4h7.7425q2.4 0 2.4-2.4v-33.808q0-2.4-2.4-2.4h-7.7425q-2.4 0-2.4 2.4z" clip-path="url(#a)" fill="#fff" stroke="#fff"/>
<g clip-path="url(#a)">
<g transform="translate(121.05 767.44) rotate(90) scale(.08 -.08)">
<use xlink:href="#k"/>
<use x="44.083984" xlink:href="#d"/>
<use x="105.607422" xlink:href="#e"/>
<use x="144.970703" xlink:href="#l"/>
<use x="242.382812" xlink:href="#f"/>
<use x="270.166016" xlink:href="#h"/>
<use x="333.544922" xlink:href="#i"/>
<use x="394.824219" xlink:href="#j"/>
</g>
</g>
<path d="m154.53 624.36 0.52524-5.5339q0.22677-2.3893-2.1625-2.616l-7.7079-0.73158q-2.3893-0.22677-2.616 2.1625l-0.52524 5.5339q-0.22677 2.3893 2.1625 2.616l7.7079 0.73158q2.3893 0.22677 2.616-2.1625z" clip-path="url(#a)" fill="#fff" stroke="#fff"/>
<g clip-path="url(#a)">
<g transform="translate(150.49 623.98) rotate(-84.578) scale(.08 -.08)">
<use xlink:href="#ak"/>
</g>
</g>
<path d="m157.65 618.81 0.52784 5.5613q0.22677 2.3893 2.616 2.1625l7.7079-0.73158q2.3893-0.22677 2.1625-2.616l-0.52784-5.5613q-0.22677-2.3893-2.616-2.1625l-7.7079 0.73158q-2.3893 0.22677-2.1625 2.616z" clip-path="url(#a)" fill="#fff" stroke="#fff"/>
<g clip-path="url(#a)">
<g transform="translate(161.7 618.43) rotate(84.578) scale(.08 -.08)">
<use xlink:href="#z"/>
</g>
</g>
<path d="m134.47 767.44v33.808q0 2.4 2.4 2.4h7.7425q2.4 0 2.4-2.4v-33.808q0-2.4-2.4-2.4h-7.7425q-2.4 0-2.4 2.4z" clip-path="url(#a)" fill="#fff" stroke="#fff"/>
<g clip-path="url(#a)">
<g transform="translate(138.54 767.44) rotate(90) scale(.08 -.08)">
<use xlink:href="#k"/>
<use x="44.083984" xlink:href="#d"/>
<use x="105.607422" xlink:href="#e"/>
<use x="144.970703" xlink:href="#l"/>
<use x="242.382812" xlink:href="#f"/>
<use x="270.166016" xlink:href="#h"/>
<use x="333.544922" xlink:href="#i"/>
<use x="394.824219" xlink:href="#j"/>
</g>
</g>
<path d="m171.43 801.64 2.3369-33.727q0.16589-2.3943-2.2284-2.5602l-7.724-0.53518q-2.3943-0.16589-2.5602 2.2284l-2.3369 33.727q-0.16589 2.3943 2.2284 2.5602l7.724 0.53518q2.3943 0.16589 2.5602-2.2284z" clip-path="url(#a)" fill="#fff" stroke="#fff"/>
<g clip-path="url(#a)">
<g transform="translate(167.38 801.36) rotate(-86.036) scale(.08 -.08)">
<use xlink:href="#k"/>
<use x="44.083984" xlink:href="#d"/>
<use x="105.607422" xlink:href="#e"/>
<use x="144.970703" xlink:href="#l"/>
<use x="242.382812" xlink:href="#f"/>
<use x="270.166016" xlink:href="#h"/>
<use x="333.544922" xlink:href="#i"/>
<use x="394.824219" xlink:href="#j"/>
</g>
</g>
<path d="m170.16 767.92 2.3369 33.727q0.16589 2.3943 2.5602 2.2284l7.724-0.53518q2.3943-0.16589 2.2284-2.5602l-2.3369-33.727q-0.16589-2.3943-2.5602-2.2284l-7.724 0.53518q-2.3943 0.16589-2.2284 2.5602z" clip-path="url(#a)" fill="#fff" stroke="#fff"/>
<g clip-path="url(#a)">
<g transform="translate(174.22 767.64) rotate(86.036) scale(.08 -.08)">
<use xlink:href="#k"/>
<use x="44.083984" xlink:href="#d"/>
<use x="105.607422" xlink:href="#e"/>
<use x="144.970703" xlink:href="#l"/>
<use x="242.382812" xlink:href="#f"/>
<use x="270.166016" xlink:href="#h"/>
<use x="333.544922" xlink:href="#i"/>
<use x="394.824219" xlink:href="#j"/>
</g>
</g>
<path d="m404.23 767.44v33.808q0 2.4 2.4 2.4h7.7425q2.4 0 2.4-2.4v-33.808q0-2.4-2.4-2.4h-7.7425q-2.4 0-2.4 2.4z" clip-path="url(#a)" fill="#fff" stroke="#fff"/>
<g clip-path="url(#a)">
<g transform="translate(408.29 767.44) rotate(90) scale(.08 -.08)">
<use xlink:href="#k"/>
<use x="44.083984" xlink:href="#d"/>
<use x="105.607422" xlink:href="#e"/>
<use x="144.970703" xlink:href="#l"/>
<use x="242.382812" xlink:href="#f"/>
<use x="270.166016" xlink:href="#h"/>
<use x="333.544922" xlink:href="#i"/>
<use x="394.824219" xlink:href="#j"/>
</g>
</g>
<path d="m813.85 767.44v33.808q0 2.4 2.4 2.4h7.7425q2.4 0 2.4-2.4v-33.808q0-2.4-2.4-2.4h-7.7425q-2.4 0-2.4 2.4z" clip-path="url(#a)" fill="#fff" stroke="#fff"/>
<g clip-path="url(#a)">
<g transform="translate(817.91 767.44) rotate(90) scale(.08 -.08)">
<use xlink:href="#k"/>
<use x="44.083984" xlink:href="#d"/>
<use x="105.607422" xlink:href="#e"/>
<use x="144.970703" xlink:href="#l"/>
<use x="242.382812" xlink:href="#f"/>
<use x="270.166016" xlink:href="#h"/>
<use x="333.544922" xlink:href="#i"/>
<use x="394.824219" xlink:href="#j"/>
</g>
</g>
<path d="m1638.1 767.44v33.808q0 2.4 2.4 2.4h7.7425q2.4 0 2.4-2.4v-33.808q0-2.4-2.4-2.4h-7.7425q-2.4 0-2.4 2.4z" clip-path="url(#a)" fill="#fff" stroke="#fff"/>
<g clip-path="url(#a)">
<g transform="translate(1642.2 767.44) rotate(90) scale(.08 -.08)">
<use xlink:href="#k"/>
<use x="44.083984" xlink:href="#d"/>
<use x="105.607422" xlink:href="#e"/>
<use x="144.970703" xlink:href="#l"/>
<use x="242.382812" xlink:href="#f"/>
<use x="270.166016" xlink:href="#h"/>
<use x="333.544922" xlink:href="#i"/>
<use x="394.824219" xlink:href="#j"/>
</g>
</g>
<defs>
<path id="b" d="m0 8.6603c2.2967 0 4.4997-0.9125 6.1237-2.5365 1.624-1.624 2.5365-3.827 2.5365-6.1237s-0.9125-4.4997-2.5365-6.1237c-1.624-1.624-3.827-2.5365-6.1237-2.5365s-4.4997 0.9125-6.1237 2.5365c-1.624 1.624-2.5365 3.827-2.5365 6.1237s0.9125 4.4997 2.5365 6.1237c1.624 1.624 3.827 2.5365 6.1237 2.5365z"/>
</defs>
<g clip-path="url(#a)" fill="#ffffff" stroke="#ffffff">
<use x="78.30303" y="865.454545" xlink:href="#b"/>
<use x="85.796143" y="865.454545" xlink:href="#b"/>
<use x="95.786961" y="865.454545" xlink:href="#b"/>
<use x="108.275482" y="865.454545" xlink:href="#b"/>
<use x="123.261708" y="865.454545" xlink:href="#b"/>
<use x="140.745638" y="865.454545" xlink:href="#b"/>
<use x="160.727273" y="865.454545" xlink:href="#b"/>
<use x="183.206612" y="865.454545" xlink:href="#b"/>
<use x="208.183655" y="865.454545" xlink:href="#b"/>
<use x="235.658402" y="865.454545" xlink:href="#b"/>
<use x="265.630854" y="865.454545" xlink:href="#b"/>
<use x="298.10101" y="865.454545" xlink:href="#b"/>
<use x="333.068871" y="865.454545" xlink:href="#b"/>
<use x="370.534435" y="865.454545" xlink:href="#b"/>
<use x="410.497704" y="865.454545" xlink:href="#b"/>
<use x="452.958678" y="865.454545" xlink:href="#b"/>
<use x="497.917355" y="865.454545" xlink:href="#b"/>
<use x="545.373737" y="865.454545" xlink:href="#b"/>
<use x="595.327824" y="865.454545" xlink:href="#b"/>
<use x="647.779614" y="865.454545" xlink:href="#b"/>
<use x="702.729109" y="865.454545" xlink:href="#b"/>
<use x="760.176309" y="865.454545" xlink:href="#b"/>
<use x="820.121212" y="865.454545" xlink:href="#b"/>
<use x="882.56382" y="865.454545" xlink:href="#b"/>
<use x="947.504132" y="865.454545" xlink:href="#b"/>
<use x="1014.942149" y="865.454545" xlink:href="#b"/>
<use x="1084.87787" y="865.454545" xlink:href="#b"/>
<use x="1157.311295" y="865.454545" xlink:href="#b"/>
<use x="1232.242424" y="865.454545" xlink:href="#b"/>
<use x="1309.671258" y="865.454545" xlink:href="#b"/>
<use x="1389.597796" y="865.454545" xlink:href="#b"/>
<use x="1472.022039" y="865.454545" xlink:href="#b"/>
<use x="1556.943985" y="865.454545" xlink:href="#b"/>
<use x="1644.363636" y="865.454545" xlink:href="#b"/>
<use x="663.884604" y="41.212121" xlink:href="#b"/>
<use x="115.924702" y="373.428914" xlink:href="#b"/>
<use x="208.183655" y="703.237958" xlink:href="#b"/>
<use x="211.513927" y="373.428914" xlink:href="#b"/>
<use x="426.52464" y="373.428914" xlink:href="#b"/>
<use x="882.56382" y="703.237958" xlink:href="#b"/>
<use x="1051.158861" y="207.530361" xlink:href="#b"/>
<use x="1232.242424" y="703.237958" xlink:href="#b"/>
<use x="1280.11509" y="373.428914" xlink:href="#b"/>
<use x="1309.671258" y="703.237958" xlink:href="#b"/>
<use x="1515.731864" y="538.76476" xlink:href="#b"/>
<use x="1389.597796" y="703.237958" xlink:href="#b"/>
<use x="1472.022039" y="703.237958" xlink:href="#b"/>
<use x="1556.943985" y="703.237958" xlink:href="#b"/>
<use x="981.22314" y="373.428914" xlink:href="#b"/>
<use x="1121.094582" y="703.237958" xlink:href="#b"/>
<use x="981.22314" y="538.76476" xlink:href="#b"/>
<use x="947.504132" y="703.237958" xlink:href="#b"/>
<use x="1014.942149" y="703.237958" xlink:href="#b"/>
<use x="452.958678" y="703.237958" xlink:href="#b"/>
<use x="521.645546" y="538.76476" xlink:href="#b"/>
<use x="649.444751" y="538.76476" xlink:href="#b"/>
<use x="595.327824" y="703.237958" xlink:href="#b"/>
<use x="703.561677" y="703.237958" xlink:href="#b"/>
<use x="497.917355" y="703.237958" xlink:href="#b"/>
<use x="545.373737" y="703.237958" xlink:href="#b"/>
<use x="235.658402" y="703.237958" xlink:href="#b"/>
<use x="316.833792" y="538.76476" xlink:href="#b"/>
<use x="265.630854" y="703.237958" xlink:href="#b"/>
<use x="298.10101" y="703.237958" xlink:href="#b"/>
<use x="333.068871" y="703.237958" xlink:href="#b"/>
<use x="370.534435" y="703.237958" xlink:href="#b"/>
<use x="82.049587" y="703.237958" xlink:href="#b"/>
<use x="102.031221" y="703.237958" xlink:href="#b"/>
<use x="123.261708" y="703.237958" xlink:href="#b"/>
<use x="156.35629" y="538.76476" xlink:href="#b"/>
<use x="140.745638" y="703.237958" xlink:href="#b"/>
<use x="171.966942" y="703.237958" xlink:href="#b"/>
<use x="410.497704" y="703.237958" xlink:href="#b"/>
<use x="820.121212" y="703.237958" xlink:href="#b"/>
<use x="1644.363636" y="703.237958" xlink:href="#b"/>
</g>
<g clip-path="url(#a)">
<defs>
<path id="w" d="m54.891 33.016v-33.016h-8.9844v32.719q0 7.7656-3.0312 11.609-3.0312 3.8594-9.0781 3.8594-7.2812 0-11.484-4.6406-4.2031-4.625-4.2031-12.641v-30.906h-9.0312v75.984h9.0312v-29.797q3.2344 4.9375 7.5938 7.375 4.375 2.4375 10.094 2.4375 9.4219 0 14.25-5.8281 4.8438-5.8281 4.8438-17.156z"/>
</defs>
<g transform="translate(69.004 868.21) scale(.1 -.1)">
<use xlink:href="#k"/>
<use x="61.083984" xlink:href="#w"/>
<use x="124.462891" xlink:href="#d"/>
</g>
</g>
<g clip-path="url(#a)">
<defs>
<path id="ar" d="m9.8125 72.906h9.8594v-30.812l32.719 30.812h12.703l-36.188-33.984 38.766-38.922h-12.984l-35.016 35.109v-35.109h-9.8594z"/>
<path id="x" d="m45.406 46.391v29.594h8.9844v-75.984h-8.9844v8.2031q-2.8281-4.875-7.1562-7.25-4.3125-2.375-10.375-2.375-9.9062 0-16.141 7.9062-6.2188 7.9219-6.2188 20.812t6.2188 20.797q6.2344 7.9062 16.141 7.9062 6.0625 0 10.375-2.375 4.3281-2.3594 7.1562-7.2344zm-30.609-19.094q0-9.9062 4.0781-15.547t11.203-5.6406 11.219 5.6406q4.1094 5.6406 4.1094 15.547t-4.1094 15.547q-4.0938 5.6406-11.219 5.6406t-11.203-5.6406-4.0781-15.547z"/>
<path id="t" d="m44.281 53.078v-8.5q-3.7969 1.9531-7.9062 2.9219-4.0938 0.98438-8.5 0.98438-6.6875 0-10.031-2.0469t-3.3438-6.1562q0-3.125 2.3906-4.9062t9.625-3.3906l3.0781-0.6875q9.5625-2.0469 13.594-5.7812t4.0312-10.422q0-7.625-6.0312-12.078-6.0312-4.4375-16.578-4.4375-4.3906 0-9.1562 0.85938t-10.031 2.5625v9.2812q4.9844-2.5938 9.8125-3.8906 4.8281-1.2812 9.5781-1.2812 6.3438 0 9.75 2.1719 3.4219 2.1719 3.4219 6.125 0 3.6562-2.4688 5.6094-2.4531 1.9531-10.812 3.7656l-3.125 0.73438q-8.3438 1.75-12.062 5.3906-3.7031 3.6406-3.7031 9.9844 0 7.7188 5.4688 11.906 5.4688 4.2031 15.531 4.2031 4.9688 0 9.3594-0.73438 4.4062-0.71875 8.1094-2.1875z"/>
</defs>
<g transform="translate(75.349 868.21) scale(.1 -.1)">
<use xlink:href="#ar"/>
<use x="65.576172" xlink:href="#f"/>
<use x="93.359375" xlink:href="#x"/>
<use x="156.835938" xlink:href="#t"/>
</g>
</g>
<g clip-path="url(#a)">
<defs>
<path id="p" d="m18.312 70.219v-15.531h18.5v-6.9844h-18.5v-29.688q0-6.6875 1.8281-8.5938t7.4531-1.9062h9.2188v-7.5156h-9.2188q-10.406 0-14.359 3.875-3.9531 3.8906-3.9531 14.141v29.688h-6.5938v6.9844h6.5938v15.531z"/>
</defs>
<g transform="translate(88.146 868.21) scale(.1 -.1)">
<use xlink:href="#t"/>
<use x="52.099609" xlink:href="#d"/>
<use x="113.623047" xlink:href="#p"/>
</g>
</g>
<g clip-path="url(#a)">
<defs>
<path id="q" d="m30.609 48.391q-7.2188 0-11.422-5.6406t-4.2031-15.453 4.1719-15.453q4.1875-5.6406 11.453-5.6406 7.1875 0 11.375 5.6562 4.2031 5.6719 4.2031 15.438 0 9.7188-4.2031 15.406-4.1875 5.6875-11.375 5.6875zm0 7.6094q11.719 0 18.406-7.625 6.7031-7.6094 6.7031-21.078 0-13.422-6.7031-21.078-6.6875-7.6406-18.406-7.6406-11.766 0-18.438 7.6406-6.6562 7.6562-6.6562 21.078 0 13.469 6.6562 21.078 6.6719 7.625 18.438 7.625z"/>
<path id="s" d="m8.5 21.578v33.109h8.9844v-32.766q0-7.7656 3.0156-11.656 3.0312-3.875 9.0938-3.875 7.2656 0 11.484 4.6406 4.2344 4.6406 4.2344 12.656v31h8.9844v-54.688h-8.9844v8.4062q-3.2656-4.9844-7.5938-7.4062-4.3125-2.4219-10.031-2.4219-9.4219 0-14.312 5.8594-4.875 5.8594-4.875 17.141z"/>
</defs>
<g transform="translate(100.09 868.21) scale(.1 -.1)">
<use xlink:href="#q"/>
<use x="61.181641" xlink:href="#s"/>
<use x="124.560547" xlink:href="#p"/>
</g>
</g>
<g clip-path="url(#a)">
<defs>
<path id="u" d="m45.406 27.984q0 9.7656-4.0312 15.125-4.0156 5.375-11.297 5.375-7.2188 0-11.25-5.375-4.0312-5.3594-4.0312-15.125 0-9.7188 4.0312-15.094t11.25-5.375q7.2812 0 11.297 5.375 4.0312 5.375 4.0312 15.094zm8.9844-21.203q0-13.953-6.2031-20.766-6.1875-6.8125-18.984-6.8125-4.7344 0-8.9375 0.70312t-8.1562 2.1719v8.7344q3.9531-2.1406 7.8125-3.1562 3.8594-1.0312 7.8594-1.0312 8.8438 0 13.234 4.6094t4.3906 13.938v4.4531q-2.7812-4.8438-7.125-7.2344t-10.406-2.3906q-10.047 0-16.203 7.6562-6.1562 7.6719-6.1562 20.328 0 12.688 6.1562 20.344 6.1562 7.6719 16.203 7.6719 6.0625 0 10.406-2.3906t7.125-7.2188v8.2969h8.9844z"/>
</defs>
<g transform="translate(101.73 868.21) scale(.1 -.1)">
<use xlink:href="#p"/>
<use x="39.208984" xlink:href="#q"/>
<use x="100.390625" xlink:href="#u"/>
<use x="163.867188" xlink:href="#d"/>
<use x="225.390625" xlink:href="#p"/>
<use x="264.599609" xlink:href="#w"/>
<use x="327.978516" xlink:href="#d"/>
<use x="389.501953" xlink:href="#e"/>
</g>
</g>
<g clip-path="url(#a)">
<defs>
<path id="am" d="m37.109 75.984v-7.4844h-8.5938q-4.8281 0-6.7188-1.9531-1.875-1.9531-1.875-7.0312v-4.8281h14.797v-6.9844h-14.797v-47.703h-9.0312v47.703h-8.5938v6.9844h8.5938v3.8125q0 9.125 4.25 13.297 4.25 4.1875 13.469 4.1875z"/>
</defs>
<g transform="translate(133.87 868.21) scale(.1 -.1)">
<use xlink:href="#am"/>
<use x="35.205078" xlink:href="#q"/>
<use x="96.386719" xlink:href="#e"/>
</g>
</g>
<g clip-path="url(#a)">
<g transform="translate(152.36 868.21) scale(.1 -.1)">
<use xlink:href="#aa"/>
<use x="53.962891" xlink:href="#q"/>
<use x="115.144531" xlink:href="#t"/>
</g>
</g>
<g clip-path="url(#a)">
<g transform="translate(163.3 868.21) scale(.1 -.1)">
<use xlink:href="#o"/>
<use x="68.408203" xlink:href="#h"/>
<use x="131.787109" xlink:href="#u"/>
<use x="195.263672" xlink:href="#d"/>
<use x="256.787109" xlink:href="#j"/>
<use x="284.570312" xlink:href="#d"/>
<use x="346.09375" xlink:href="#t"/>
</g>
</g>
<g clip-path="url(#a)">
<g transform="translate(203.63 868.21) scale(.1 -.1)">
<use xlink:href="#f"/>
<use x="27.783203" xlink:href="#h"/>
</g>
</g>
<g clip-path="url(#a)">
<defs>
<path id="ah" d="m18.109 8.2031v-29h-9.0312v75.484h9.0312v-8.2969q2.8438 4.875 7.1562 7.2344 4.3281 2.375 10.328 2.375 9.9688 0 16.188-7.9062 6.2344-7.9062 6.2344-20.797t-6.2344-20.812q-6.2188-7.9062-16.188-7.9062-6 0-10.328 2.375-4.3125 2.375-7.1562 7.25zm30.578 19.094q0 9.9062-4.0781 15.547t-11.203 5.6406q-7.1406 0-11.219-5.6406t-4.0781-15.547 4.0781-15.547 11.219-5.6406q7.125 0 11.203 5.6406t4.0781 15.547z"/>
</defs>
<g transform="translate(218.14 868.21) scale(.1 -.1)">
<use xlink:href="#ah"/>
<use x="63.476562" xlink:href="#s"/>
<use x="126.855469" xlink:href="#e"/>
<use x="167.96875" xlink:href="#t"/>
<use x="220.068359" xlink:href="#s"/>
<use x="283.447266" xlink:href="#f"/>
<use x="311.230469" xlink:href="#p"/>
</g>
</g>
<g clip-path="url(#a)">
<g transform="translate(260.81 868.21) scale(.1 -.1)">
<use xlink:href="#q"/>
<use x="61.181641" xlink:href="#am"/>
</g>
</g>
<g clip-path="url(#a)">
<g transform="translate(295.04 868.21) scale(.1 -.1)">
<use xlink:href="#i"/>
</g>
</g>
<g clip-path="url(#a)">
<defs>
<path id="ai" d="m48.781 52.594v-8.4062q-3.8125 2.1094-7.6406 3.1562t-7.7344 1.0469q-8.75 0-13.594-5.5469-4.8281-5.5312-4.8281-15.547t4.8281-15.562q4.8438-5.5312 13.594-5.5312 3.9062 0 7.7344 1.0469t7.6406 3.1562v-8.3125q-3.7656-1.75-7.7969-2.625-4.0156-0.89062-8.5625-0.89062-12.359 0-19.641 7.7656-7.2656 7.7656-7.2656 20.953 0 13.375 7.3438 21.031 7.3594 7.6719 20.156 7.6719 4.1406 0 8.0938-0.85938 3.9531-0.84375 7.6719-2.5469z"/>
</defs>
<g transform="translate(317.1 868.21) scale(.1 -.1)">
<use xlink:href="#e"/>
<use x="38.863281" xlink:href="#d"/>
<use x="100.386719" xlink:href="#ai"/>
<use x="155.367188" xlink:href="#q"/>
<use x="216.548828" xlink:href="#e"/>
<use x="255.912109" xlink:href="#x"/>
</g>
</g>
<g clip-path="url(#a)">
<g transform="translate(359.83 868.21) scale(.1 -.1)">
<use xlink:href="#x"/>
<use x="63.476562" xlink:href="#d"/>
<use x="125" xlink:href="#i"/>
<use x="186.279297" xlink:href="#j"/>
</g>
</g>
<g clip-path="url(#a)">
<defs>
<path id="ap" d="m11.719 12.406h10.297v-8.4062l-8-15.625h-6.2969l4 15.625z"/>
</defs>
<g transform="translate(408.91 868.21) scale(.1 -.1)">
<use xlink:href="#ap"/>
</g>
</g>
<g clip-path="url(#a)">
<g transform="translate(429.9 868.21) scale(.1 -.1)">
<use xlink:href="#ai"/>
<use x="54.980469" xlink:href="#w"/>
<use x="118.359375" xlink:href="#i"/>
<use x="179.638672" xlink:href="#h"/>
<use x="243.017578" xlink:href="#u"/>
<use x="306.494141" xlink:href="#f"/>
<use x="334.277344" xlink:href="#h"/>
<use x="397.65625" xlink:href="#u"/>
</g>
</g>
<g clip-path="url(#a)">
<g transform="translate(486.27 868.21) scale(.1 -.1)">
<use xlink:href="#p"/>
<use x="39.208984" xlink:href="#w"/>
<use x="102.587891" xlink:href="#d"/>
<use x="164.111328" xlink:href="#f"/>
<use x="191.894531" xlink:href="#e"/>
</g>
</g>
<g clip-path="url(#a)">
<g transform="translate(531.19 868.21) scale(.1 -.1)">
<use xlink:href="#h"/>
<use x="63.378906" xlink:href="#i"/>
<use x="124.658203" xlink:href="#l"/>
<use x="222.070312" xlink:href="#d"/>
</g>
</g>
<g clip-path="url(#a)">
<g transform="translate(590.31 868.21) scale(.1 -.1)">
<use xlink:href="#p"/>
<use x="39.208984" xlink:href="#q"/>
</g>
</g>
<g clip-path="url(#a)">
<defs>
<path id="aw" d="m54.891 54.688-19.781-26.609 20.797-28.078h-10.594l-15.922 21.484-15.906-21.484h-10.609l21.25 28.609-19.438 26.078h10.594l14.5-19.484 14.5 19.484z"/>
</defs>
<g transform="translate(640.26 868.21) scale(.1 -.1)">
<use xlink:href="#ao"/>
<use x="63.476562" xlink:href="#f"/>
<use x="91.259766" xlink:href="#aw"/>
</g>
</g>
<g clip-path="url(#a)">
<defs>
<path id="as" d="m59.516 10.406v19.578h-16.109v8.1094h25.875v-31.312q-5.7031-4.0469-12.594-6.125-6.875-2.0781-14.688-2.0781-17.094 0-26.75 9.9844-9.6406 10-9.6406 27.812 0 17.875 9.6406 27.859 9.6562 9.9844 26.75 9.9844 7.125 0 13.547-1.7656 6.4219-1.75 11.844-5.1719v-10.5q-5.4688 4.6406-11.625 6.9844t-12.938 2.3438q-13.391 0-20.109-7.4688-6.7031-7.4688-6.7031-22.266 0-14.75 6.7031-22.219 6.7188-7.4688 20.109-7.4688 5.2188 0 9.3125 0.90625 4.1094 0.90625 7.375 2.8125z"/>
</defs>
<g transform="translate(692.52 868.21) scale(.1 -.1)">
<use xlink:href="#as"/>
<use x="77.490234" xlink:href="#s"/>
<use x="140.869141" xlink:href="#h"/>
</g>
</g>
<g clip-path="url(#a)">
<defs>
<path id="aq" d="m9.8125 72.906h14.703l18.594-49.609 18.703 49.609h14.703v-72.906h-9.625v64.016l-18.797-50h-9.9062l-18.797 50v-64.016h-9.5781z"/>
</defs>
<g transform="translate(741.42 868.21) scale(.1 -.1)">
<use xlink:href="#aq"/>
<use x="86.279297" xlink:href="#d"/>
<use x="147.802734" xlink:href="#p"/>
<use x="187.011719" xlink:href="#w"/>
<use x="250.390625" xlink:href="#q"/>
<use x="311.572266" xlink:href="#x"/>
</g>
</g>
<g clip-path="url(#a)">
<g transform="translate(818.53 868.21) scale(.1 -.1)">
<use xlink:href="#ap"/>
</g>
</g>
<g clip-path="url(#a)">
<defs>
<path id="an" d="m48.688 27.297q0 9.9062-4.0781 15.547t-11.203 5.6406q-7.1406 0-11.219-5.6406t-4.0781-15.547 4.0781-15.547 11.219-5.6406q7.125 0 11.203 5.6406t4.0781 15.547zm-30.578 19.094q2.8438 4.875 7.1562 7.2344 4.3281 2.375 10.328 2.375 9.9688 0 16.188-7.9062 6.2344-7.9062 6.2344-20.797t-6.2344-20.812q-6.2188-7.9062-16.188-7.9062-6 0-10.328 2.375-4.3125 2.375-7.1562 7.25v-8.2031h-9.0312v75.984h9.0312z"/>
</defs>
<g transform="translate(874.26 868.21) scale(.1 -.1)">
<use xlink:href="#an"/>
<use x="63.476562" xlink:href="#s"/>
<use x="126.855469" xlink:href="#p"/>
</g>
</g>
<g clip-path="url(#a)">
<g transform="translate(939.3 868.21) scale(.1 -.1)">
<use xlink:href="#p"/>
<use x="39.208984" xlink:href="#w"/>
<use x="102.587891" xlink:href="#d"/>
</g>
</g>
<g clip-path="url(#a)">
<g transform="translate(1000.4 868.21) scale(.1 -.1)">
<use xlink:href="#u"/>
<use x="63.476562" xlink:href="#e"/>
<use x="102.339844" xlink:href="#q"/>
<use x="163.521484" xlink:href="#s"/>
<use x="226.900391" xlink:href="#ah"/>
</g>
</g>
<g clip-path="url(#a)">
<g transform="translate(1074.4 868.21) scale(.1 -.1)">
<use xlink:href="#t"/>
<use x="52.099609" xlink:href="#ah"/>
<use x="115.576172" xlink:href="#j"/>
<use x="143.359375" xlink:href="#f"/>
<use x="171.142578" xlink:href="#p"/>
</g>
</g>
<g clip-path="url(#a)">
<g transform="translate(1151 868.21) scale(.1 -.1)">
<use xlink:href="#s"/>
<use x="63.378906" xlink:href="#ah"/>
</g>
</g>
<g clip-path="url(#a)">
<g transform="translate(1216.2 868.21) scale(.1 -.1)">
<use xlink:href="#an"/>
<use x="63.476562" xlink:href="#d"/>
<use x="125" xlink:href="#am"/>
<use x="160.205078" xlink:href="#q"/>
<use x="221.386719" xlink:href="#e"/>
<use x="260.25" xlink:href="#d"/>
</g>
</g>
<g clip-path="url(#a)">
<g transform="translate(1291.6 868.21) scale(.1 -.1)">
<use xlink:href="#t"/>
<use x="52.099609" xlink:href="#f"/>
<use x="79.882812" xlink:href="#u"/>
<use x="143.359375" xlink:href="#h"/>
<use x="206.738281" xlink:href="#f"/>
<use x="234.521484" xlink:href="#h"/>
<use x="297.900391" xlink:href="#u"/>
</g>
</g>
<g clip-path="url(#a)">
<g transform="translate(1386.5 868.21) scale(.1 -.1)">
<use xlink:href="#i"/>
</g>
</g>
<g clip-path="url(#a)">
<g transform="translate(1456.1 868.21) scale(.1 -.1)">
<use xlink:href="#e"/>
<use x="38.863281" xlink:href="#d"/>
<use x="100.386719" xlink:href="#ai"/>
<use x="155.367188" xlink:href="#q"/>
<use x="216.548828" xlink:href="#e"/>
<use x="255.912109" xlink:href="#x"/>
</g>
</g>
<g clip-path="url(#a)">
<g transform="translate(1546.2 868.21) scale(.1 -.1)">
<use xlink:href="#x"/>
<use x="63.476562" xlink:href="#d"/>
<use x="125" xlink:href="#i"/>
<use x="186.279297" xlink:href="#j"/>
</g>
</g>
<g clip-path="url(#a)">
<defs>
<path id="g" d="m10.688 12.406h10.312v-12.406h-10.312z"/>
</defs>
<g transform="translate(1642.8 868.21) scale(.1 -.1)">
<use xlink:href="#g"/>
</g>
</g>
<g clip-path="url(#a)">
<defs>
<path id="c" d="m12.406 8.2969h16.109v55.625l-17.531-3.5156v8.9844l17.438 3.5156h9.8594v-64.609h16.109v-8.2969h-41.984z"/>
</defs>
<g transform="translate(655.93 43.971) scale(.1 -.1)">
<use xlink:href="#c"/>
<use x="63.623047" xlink:href="#g"/>
<use x="95.410156" xlink:href="#c"/>
</g>
</g>
<g clip-path="url(#a)">
<defs>
<path id="n" d="m19.188 8.2969h34.422v-8.2969h-46.281v8.2969q5.6094 5.8125 15.297 15.594 9.7031 9.7969 12.188 12.641 4.7344 5.3125 6.6094 9 1.8906 3.6875 1.8906 7.25 0 5.8125-4.0781 9.4688-4.0781 3.6719-10.625 3.6719-4.6406 0-9.7969-1.6094-5.1406-1.6094-11-4.8906v9.9688q5.9531 2.3906 11.125 3.6094 5.1875 1.2188 9.4844 1.2188 11.328 0 18.062-5.6719 6.7344-5.6562 6.7344-15.125 0-4.5-1.6875-8.5312-1.6719-4.0156-6.125-9.4844-1.2188-1.4219-7.7656-8.1875-6.5312-6.7656-18.453-18.922z"/>
</defs>
<g transform="translate(107.97 376.19) scale(.1 -.1)">
<use xlink:href="#c"/>
<use x="63.623047" xlink:href="#g"/>
<use x="95.410156" xlink:href="#n"/>
</g>
</g>
<g clip-path="url(#a)">
<defs>
<path id="m" d="m40.578 39.312q7.0781-1.5156 11.047-6.3125 3.9844-4.7812 3.9844-11.812 0-10.781-7.4219-16.703-7.4219-5.9062-21.094-5.9062-4.5781 0-9.4375 0.90625t-10.031 2.7188v9.5156q4.0938-2.3906 8.9688-3.6094 4.8906-1.2188 10.219-1.2188 9.2656 0 14.125 3.6562t4.8594 10.641q0 6.4531-4.5156 10.078-4.5156 3.6406-12.562 3.6406h-8.5v8.1094h8.8906q7.2656 0 11.125 2.9062t3.8594 8.375q0 5.6094-3.9844 8.6094-3.9688 3.0156-11.391 3.0156-4.0625 0-8.7031-0.89062-4.6406-0.875-10.203-2.7188v8.7812q5.625 1.5625 10.531 2.3438t9.25 0.78125q11.234 0 17.766-5.1094 6.5469-5.0938 6.5469-13.781 0-6.0625-3.4688-10.234t-9.8594-5.7812z"/>
</defs>
<g transform="translate(200.23 706) scale(.1 -.1)">
<use xlink:href="#c"/>
<use x="63.623047" xlink:href="#g"/>
<use x="95.410156" xlink:href="#m"/>
</g>
</g>
<g clip-path="url(#a)">
<defs>
<path id="r" d="m37.797 64.312-24.906-38.922h24.906zm-2.5938 8.5938h12.406v-47.516h10.406v-8.2031h-10.406v-17.188h-9.8125v17.188h-32.906v9.5156z"/>
</defs>
<g transform="translate(203.56 376.19) scale(.1 -.1)">
<use xlink:href="#c"/>
<use x="63.623047" xlink:href="#g"/>
<use x="95.410156" xlink:href="#r"/>
</g>
</g>
<g clip-path="url(#a)">
<defs>
<path id="ag" d="m10.797 72.906h38.719v-8.3125h-29.688v-17.859q2.1406 0.73438 4.2812 1.0938 2.1562 0.35938 4.3125 0.35938 12.203 0 19.328-6.6875 7.1406-6.6875 7.1406-18.109 0-11.766-7.3281-18.297-7.3281-6.5156-20.656-6.5156-4.5938 0-9.3594 0.78125-4.75 0.78125-9.8281 2.3438v9.9219q4.3906-2.3906 9.0781-3.5625t9.9062-1.1719q8.4531 0 13.375 4.4375 4.9375 4.4375 4.9375 12.062 0 7.6094-4.9375 12.047-4.9219 4.4531-13.375 4.4531-3.9531 0-7.8906-0.875-3.9219-0.875-8.0156-2.7344z"/>
</defs>
<g transform="translate(418.57 376.19) scale(.1 -.1)">
<use xlink:href="#c"/>
<use x="63.623047" xlink:href="#g"/>
<use x="95.410156" xlink:href="#ag"/>
</g>
</g>
<g clip-path="url(#a)">
<defs>
<path id="af" d="m33.016 40.375q-6.6406 0-10.531-4.5469-3.875-4.5312-3.875-12.438 0-7.8594 3.875-12.438 3.8906-4.5625 10.531-4.5625t10.516 4.5625q3.875 4.5781 3.875 12.438 0 7.9062-3.875 12.438-3.875 4.5469-10.516 4.5469zm19.578 30.922v-8.9844q-3.7188 1.75-7.5 2.6719-3.7812 0.9375-7.5 0.9375-9.7656 0-14.922-6.5938-5.1406-6.5938-5.875-19.922 2.875 4.25 7.2188 6.5156 4.3594 2.2656 9.5781 2.2656 10.984 0 17.359-6.6719 6.375-6.6562 6.375-18.125 0-11.234-6.6406-18.031-6.6406-6.7812-17.672-6.7812-12.656 0-19.344 9.6875-6.6875 9.7031-6.6875 28.109 0 17.281 8.2031 27.562t22.016 10.281q3.7188 0 7.5-0.73438t7.8906-2.1875z"/>
</defs>
<g transform="translate(874.61 706) scale(.1 -.1)">
<use xlink:href="#c"/>
<use x="63.623047" xlink:href="#g"/>
<use x="95.410156" xlink:href="#af"/>
</g>
</g>
<g clip-path="url(#a)">
<defs>
<path id="ae" d="m8.2031 72.906h46.875v-4.2031l-26.469-68.703h-10.297l24.906 64.594h-35.016z"/>
</defs>
<g transform="translate(1043.2 210.29) scale(.1 -.1)">
<use xlink:href="#c"/>
<use x="63.623047" xlink:href="#g"/>
<use x="95.410156" xlink:href="#ae"/>
</g>
</g>
<g clip-path="url(#a)">
<defs>
<path id="ad" d="m31.781 34.625q-7.0312 0-11.062-3.7656-4.0156-3.7656-4.0156-10.344 0-6.5938 4.0156-10.359 4.0312-3.7656 11.062-3.7656t11.078 3.7812q4.0625 3.7969 4.0625 10.344 0 6.5781-4.0312 10.344-4.0156 3.7656-11.109 3.7656zm-9.8594 4.1875q-6.3438 1.5625-9.8906 5.9062-3.5312 4.3594-3.5312 10.609 0 8.7344 6.2188 13.812 6.2344 5.0781 17.062 5.0781 10.891 0 17.094-5.0781t6.2031-13.812q0-6.25-3.5469-10.609-3.5312-4.3438-9.8281-5.9062 7.125-1.6562 11.094-6.5 3.9844-4.8281 3.9844-11.797 0-10.609-6.4688-16.281-6.4688-5.6562-18.531-5.6562-12.047 0-18.531 5.6562-6.4688 5.6719-6.4688 16.281 0 6.9688 4 11.797 4.0156 4.8438 11.141 6.5zm-3.6094 15.578q0-5.6562 3.5312-8.8281 3.5469-3.1719 9.9375-3.1719 6.3594 0 9.9375 3.1719 3.5938 3.1719 3.5938 8.8281 0 5.6719-3.5938 8.8438-3.5781 3.1719-9.9375 3.1719-6.3906 0-9.9375-3.1719-3.5312-3.1719-3.5312-8.8438z"/>
</defs>
<g transform="translate(1224.3 706) scale(.1 -.1)">
<use xlink:href="#c"/>
<use x="63.623047" xlink:href="#g"/>
<use x="95.410156" xlink:href="#ad"/>
</g>
</g>
<g clip-path="url(#a)">
<defs>
<path id="ac" d="m10.984 1.5156v8.9844q3.7188-1.7656 7.5156-2.6875 3.8125-0.92188 7.4844-0.92188 9.7656 0 14.906 6.5625 5.1562 6.5625 5.8906 19.953-2.8281-4.2031-7.1875-6.4531-4.3438-2.25-9.6094-2.25-10.938 0-17.312 6.6094-6.375 6.625-6.375 18.109 0 11.219 6.6406 18 6.6406 6.7969 17.672 6.7969 12.656 0 19.312-9.7031 6.6719-9.6875 6.6719-28.141 0-17.234-8.1875-27.516-8.1719-10.281-21.984-10.281-3.7188 0-7.5312 0.73438-3.7969 0.73438-7.9062 2.2031zm19.625 30.906q6.6406 0 10.516 4.5312 3.8906 4.5469 3.8906 12.469 0 7.8594-3.8906 12.422-3.875 4.5625-10.516 4.5625t-10.516-4.5625-3.875-12.422q0-7.9219 3.875-12.469 3.875-4.5312 10.516-4.5312z"/>
</defs>
<g transform="translate(1272.2 376.19) scale(.1 -.1)">
<use xlink:href="#c"/>
<use x="63.623047" xlink:href="#g"/>
<use x="95.410156" xlink:href="#ac"/>
</g>
</g>
<g clip-path="url(#a)">
<g transform="translate(1298.5 706) scale(.1 -.1)">
<use xlink:href="#c"/>
<use x="63.623047" xlink:href="#g"/>
<use x="95.410156" xlink:href="#c"/>
<use x="159.033203" xlink:href="#m"/>
</g>
</g>
<g clip-path="url(#a)">
<g transform="translate(1504.6 541.52) scale(.1 -.1)">
<use xlink:href="#c"/>
<use x="63.623047" xlink:href="#g"/>
<use x="95.410156" xlink:href="#c"/>
<use x="159.033203" xlink:href="#r"/>
</g>
</g>
<g clip-path="url(#a)">
<g transform="translate(1378.5 706) scale(.1 -.1)">
<use xlink:href="#c"/>
<use x="63.623047" xlink:href="#g"/>
<use x="95.410156" xlink:href="#c"/>
<use x="159.033203" xlink:href="#ag"/>
</g>
</g>
<g clip-path="url(#a)">
<g transform="translate(1460.9 706) scale(.1 -.1)">
<use xlink:href="#c"/>
<use x="63.623047" xlink:href="#g"/>
<use x="95.410156" xlink:href="#c"/>
<use x="159.033203" xlink:href="#af"/>
</g>
</g>
<g clip-path="url(#a)">
<g transform="translate(1545.8 706) scale(.1 -.1)">
<use xlink:href="#c"/>
<use x="63.623047" xlink:href="#g"/>
<use x="95.410156" xlink:href="#c"/>
<use x="159.033203" xlink:href="#ae"/>
</g>
</g>
<g clip-path="url(#a)">
<g transform="translate(970.09 376.19) scale(.1 -.1)">
<use xlink:href="#c"/>
<use x="63.623047" xlink:href="#g"/>
<use x="95.410156" xlink:href="#c"/>
<use x="159.033203" xlink:href="#ad"/>
</g>
</g>
<g clip-path="url(#a)">
<g transform="translate(1110 706) scale(.1 -.1)">
<use xlink:href="#c"/>
<use x="63.623047" xlink:href="#g"/>
<use x="95.410156" xlink:href="#c"/>
<use x="159.033203" xlink:href="#ac"/>
</g>
</g>
<g clip-path="url(#a)">
<defs>
<path id="al" d="m31.781 66.406q-7.6094 0-11.453-7.5-3.8281-7.4844-3.8281-22.531 0-14.984 3.8281-22.484 3.8438-7.5 11.453-7.5 7.6719 0 11.5 7.5 3.8438 7.5 3.8438 22.484 0 15.047-3.8438 22.531-3.8281 7.5-11.5 7.5zm0 7.8125q12.266 0 18.734-9.7031 6.4688-9.6875 6.4688-28.141 0-18.406-6.4688-28.109-6.4688-9.6875-18.734-9.6875-12.25 0-18.719 9.6875-6.4688 9.7031-6.4688 28.109 0 18.453 6.4688 28.141 6.4688 9.7031 18.719 9.7031z"/>
</defs>
<g transform="translate(970.09 541.52) scale(.1 -.1)">
<use xlink:href="#c"/>
<use x="63.623047" xlink:href="#g"/>
<use x="95.410156" xlink:href="#n"/>
<use x="159.033203" xlink:href="#al"/>
</g>
</g>
<g clip-path="url(#a)">
<g transform="translate(936.37 706) scale(.1 -.1)">
<use xlink:href="#c"/>
<use x="63.623047" xlink:href="#g"/>
<use x="95.410156" xlink:href="#n"/>
<use x="159.033203" xlink:href="#c"/>
</g>
</g>
<g clip-path="url(#a)">
<g transform="translate(1003.8 706) scale(.1 -.1)">
<use xlink:href="#c"/>
<use x="63.623047" xlink:href="#g"/>
<use x="95.410156" xlink:href="#n"/>
<use x="159.033203" xlink:href="#n"/>
</g>
</g>
<g clip-path="url(#a)">
<g transform="translate(441.83 706) scale(.1 -.1)">
<use xlink:href="#c"/>
<use x="63.623047" xlink:href="#g"/>
<use x="95.410156" xlink:href="#n"/>
<use x="159.033203" xlink:href="#m"/>
</g>
</g>
<g clip-path="url(#a)">
<g transform="translate(510.51 541.52) scale(.1 -.1)">
<use xlink:href="#c"/>
<use x="63.623047" xlink:href="#g"/>
<use x="95.410156" xlink:href="#n"/>
<use x="159.033203" xlink:href="#r"/>
</g>
</g>
<g clip-path="url(#a)">
<g transform="translate(638.31 541.52) scale(.1 -.1)">
<use xlink:href="#c"/>
<use x="63.623047" xlink:href="#g"/>
<use x="95.410156" xlink:href="#n"/>
<use x="159.033203" xlink:href="#ag"/>
</g>
</g>
<g clip-path="url(#a)">
<g transform="translate(584.2 706) scale(.1 -.1)">
<use xlink:href="#c"/>
<use x="63.623047" xlink:href="#g"/>
<use x="95.410156" xlink:href="#n"/>
<use x="159.033203" xlink:href="#af"/>
</g>
</g>
<g clip-path="url(#a)">
<g transform="translate(692.43 706) scale(.1 -.1)">
<use xlink:href="#c"/>
<use x="63.623047" xlink:href="#g"/>
<use x="95.410156" xlink:href="#n"/>
<use x="159.033203" xlink:href="#ae"/>
</g>
</g>
<g clip-path="url(#a)">
<g transform="translate(486.78 706) scale(.1 -.1)">
<use xlink:href="#c"/>
<use x="63.623047" xlink:href="#g"/>
<use x="95.410156" xlink:href="#n"/>
<use x="159.033203" xlink:href="#ad"/>
</g>
</g>
<g clip-path="url(#a)">
<g transform="translate(534.24 706) scale(.1 -.1)">
<use xlink:href="#c"/>
<use x="63.623047" xlink:href="#g"/>
<use x="95.410156" xlink:href="#n"/>
<use x="159.033203" xlink:href="#ac"/>
</g>
</g>
<g clip-path="url(#a)">
<g transform="translate(224.53 706) scale(.1 -.1)">
<use xlink:href="#c"/>
<use x="63.623047" xlink:href="#g"/>
<use x="95.410156" xlink:href="#m"/>
<use x="159.033203" xlink:href="#al"/>
</g>
</g>
<g clip-path="url(#a)">
<g transform="translate(305.7 541.52) scale(.1 -.1)">
<use xlink:href="#c"/>
<use x="63.623047" xlink:href="#g"/>
<use x="95.410156" xlink:href="#m"/>
<use x="159.033203" xlink:href="#c"/>
</g>
</g>
<g clip-path="url(#a)">
<g transform="translate(254.5 706) scale(.1 -.1)">
<use xlink:href="#c"/>
<use x="63.623047" xlink:href="#g"/>
<use x="95.410156" xlink:href="#m"/>
<use x="159.033203" xlink:href="#n"/>
</g>
</g>
<g clip-path="url(#a)">
<g transform="translate(286.97 706) scale(.1 -.1)">
<use xlink:href="#c"/>
<use x="63.623047" xlink:href="#g"/>
<use x="95.410156" xlink:href="#m"/>
<use x="159.033203" xlink:href="#m"/>
</g>
</g>
<g clip-path="url(#a)">
<g transform="translate(321.94 706) scale(.1 -.1)">
<use xlink:href="#c"/>
<use x="63.623047" xlink:href="#g"/>
<use x="95.410156" xlink:href="#m"/>
<use x="159.033203" xlink:href="#r"/>
</g>
</g>
<g clip-path="url(#a)">
<g transform="translate(359.4 706) scale(.1 -.1)">
<use xlink:href="#c"/>
<use x="63.623047" xlink:href="#g"/>
<use x="95.410156" xlink:href="#m"/>
<use x="159.033203" xlink:href="#ag"/>
</g>
</g>
<g clip-path="url(#a)">
<g transform="translate(70.917 706) scale(.1 -.1)">
<use xlink:href="#c"/>
<use x="63.623047" xlink:href="#g"/>
<use x="95.410156" xlink:href="#m"/>
<use x="159.033203" xlink:href="#af"/>
</g>
</g>
<g clip-path="url(#a)">
<g transform="translate(90.898 706) scale(.1 -.1)">
<use xlink:href="#c"/>
<use x="63.623047" xlink:href="#g"/>
<use x="95.410156" xlink:href="#m"/>
<use x="159.033203" xlink:href="#ae"/>
</g>
</g>
<g clip-path="url(#a)">
<g transform="translate(112.13 706) scale(.1 -.1)">
<use xlink:href="#c"/>
<use x="63.623047" xlink:href="#g"/>
<use x="95.410156" xlink:href="#m"/>
<use x="159.033203" xlink:href="#ad"/>
</g>
</g>
<g clip-path="url(#a)">
<g transform="translate(145.22 541.52) scale(.1 -.1)">
<use xlink:href="#c"/>
<use x="63.623047" xlink:href="#g"/>
<use x="95.410156" xlink:href="#m"/>
<use x="159.033203" xlink:href="#ac"/>
</g>
</g>
<g clip-path="url(#a)">
<g transform="translate(129.61 706) scale(.1 -.1)">
<use xlink:href="#c"/>
<use x="63.623047" xlink:href="#g"/>
<use x="95.410156" xlink:href="#r"/>
<use x="159.033203" xlink:href="#al"/>
</g>
</g>
<g clip-path="url(#a)">
<g transform="translate(160.83 706) scale(.1 -.1)">
<use xlink:href="#c"/>
<use x="63.623047" xlink:href="#g"/>
<use x="95.410156" xlink:href="#r"/>
<use x="159.033203" xlink:href="#c"/>
</g>
</g>
<g clip-path="url(#a)">
<g transform="translate(399.36 706) scale(.1 -.1)">
<use xlink:href="#c"/>
<use x="63.623047" xlink:href="#g"/>
<use x="95.410156" xlink:href="#r"/>
<use x="159.033203" xlink:href="#n"/>
</g>
</g>
<g clip-path="url(#a)">
<g transform="translate(808.99 706) scale(.1 -.1)">
<use xlink:href="#c"/>
<use x="63.623047" xlink:href="#g"/>
<use x="95.410156" xlink:href="#r"/>
<use x="159.033203" xlink:href="#m"/>
</g>
</g>
<g clip-path="url(#a)">
<g transform="translate(1633.2 706) scale(.1 -.1)">
<use xlink:href="#c"/>
<use x="63.623047" xlink:href="#g"/>
<use x="95.410156" xlink:href="#r"/>
<use x="159.033203" xlink:href="#r"/>
</g>
</g>
<defs>
<clipPath id="a">
<rect width="1722.7" height="906.67"/>
</clipPath>
</defs>
</svg>
