<?xml version="1.0" encoding="UTF-8"?>
<!DOCTYPE svg  PUBLIC '-//W3C//DTD SVG 1.1//EN'  'http://www.w3.org/Graphics/SVG/1.1/DTD/svg11.dtd'>
<svg width="1520pt" height="800pt" version="1.1" viewBox="0 0 1520 800" xmlns="http://www.w3.org/2000/svg" xmlns:xlink="http://www.w3.org/1999/xlink">
<defs>
<style type="text/css">*{stroke-linecap:butt;stroke-linejoin:round;}</style>
</defs>
<path d="m0 800h1520v-800h-1520z" fill="#fff"/>
<g fill="none" stroke="#000">
<path d="m389.16 36.364v104.86" clip-path="url(#a)"/>
<path d="m389.16 141.22-274.24 313.36" clip-path="url(#a)"/>
<path d="m389.16 141.22-73.418 520.52" clip-path="url(#a)"/>
<path d="m389.16 141.22-34.178 520.52" clip-path="url(#a)"/>
<path d="m389.16 141.22 52.711 520.52" clip-path="url(#a)"/>
<path d="m389.16 141.22 431.12 104.68" clip-path="url(#a)"/>
<path d="m389.16 141.22-109.86 520.52" clip-path="url(#a)"/>
<path d="m389.16 141.22 7.8653 520.52" clip-path="url(#a)"/>
<path d="m114.92 454.58-41.623 207.16" clip-path="url(#a)"/>
<path d="m114.92 454.58 41.623 103.85" clip-path="url(#a)"/>
<path d="m315.74 661.74v101.89" clip-path="url(#a)"/>
<path d="m354.98 661.74v101.89" clip-path="url(#a)"/>
<path d="m441.87 661.74v101.89" clip-path="url(#a)"/>
<path d="m820.28 245.9-242 104.47" clip-path="url(#a)"/>
<path d="m820.28 245.9-18.238 415.84" clip-path="url(#a)"/>
<path d="m820.28 245.9 178.98 104.47" clip-path="url(#a)"/>
<path d="m820.28 245.9 81.264 415.84" clip-path="url(#a)"/>
<path d="m578.28 350.37-88.758 311.37" clip-path="url(#a)"/>
<path d="m578.28 350.37 16.817 104.21" clip-path="url(#a)"/>
<path d="m578.28 350.37 71.94 208.06" clip-path="url(#a)"/>
<path d="m802.04 661.74-32.233 101.89" clip-path="url(#a)"/>
<path d="m802.04 661.74 32.233 101.89" clip-path="url(#a)"/>
<path d="m999.26 350.37-197.21 311.37" clip-path="url(#a)" stroke-dasharray="3.7,1.6"/>
<path d="m999.26 350.37-27.639 311.37" clip-path="url(#a)"/>
<path d="m999.26 350.37 224.85 104.21" clip-path="url(#a)"/>
<path d="m971.62 661.74v101.89" clip-path="url(#a)"/>
<path d="m1224.1 454.58-179.62 207.16" clip-path="url(#a)"/>
<path d="m1224.1 454.58-103.94 207.16" clip-path="url(#a)"/>
<path d="m1224.1 454.58 56.758 103.85" clip-path="url(#a)"/>
<path d="m1224.1 454.58 226.8 207.16" clip-path="url(#a)"/>
<path d="m1044.5 661.74v101.89" clip-path="url(#a)"/>
<path d="m1120.2 661.74v101.89" clip-path="url(#a)"/>
<path d="m1280.9 558.43-82.218 205.21" clip-path="url(#a)"/>
<path d="m1280.9 558.43 83.152 205.21" clip-path="url(#a)"/>
<path d="m1280.9 558.43-0.93429 103.31" clip-path="url(#a)"/>
<path d="m489.52 661.74v101.89" clip-path="url(#a)"/>
<path d="m595.1 454.58 55.123 103.85" clip-path="url(#a)" stroke-dasharray="3.7,1.6"/>
<path d="m595.1 454.58-55.123 207.16" clip-path="url(#a)"/>
<path d="m650.22 558.43-56.992 103.31" clip-path="url(#a)"/>
<path d="m650.22 558.43 57.926 103.31" clip-path="url(#a)"/>
<path d="m650.22 558.43-0.93429 103.31" clip-path="url(#a)"/>
<path d="m593.23 661.74v101.89" clip-path="url(#a)"/>
<path d="m708.15 661.74v101.89" clip-path="url(#a)"/>
<path d="m539.97 661.74v101.89" clip-path="url(#a)"/>
<path d="m73.295 661.74-4.2043 101.89" clip-path="url(#a)"/>
<path d="m73.295 661.74 4.2043 101.89" clip-path="url(#a)"/>
<path d="m156.54 558.43-60.822 103.31" clip-path="url(#a)"/>
<path d="m156.54 558.43-6.1663 103.31" clip-path="url(#a)"/>
<path d="m156.54 558.43 30.271 103.31" clip-path="url(#a)"/>
<path d="m156.54 558.43 73.716 103.31" clip-path="url(#a)"/>
<path d="m156.54 558.43-36.998 103.31" clip-path="url(#a)"/>
<path d="m95.718 661.74-7.0072 101.89" clip-path="url(#a)"/>
<path d="m95.718 661.74 7.0072 101.89" clip-path="url(#a)"/>
<path d="m150.37 661.74-11.212 101.89" clip-path="url(#a)"/>
<path d="m150.37 661.74 11.212 101.89" clip-path="url(#a)"/>
<path d="m186.81 661.74v101.89" clip-path="url(#a)"/>
<path d="m230.26 661.74-15.416 101.89" clip-path="url(#a)"/>
<path d="m230.26 661.74 15.416 101.89" clip-path="url(#a)"/>
<path d="m119.54 661.74v101.89" clip-path="url(#a)"/>
<path d="m279.31 661.74v101.89" clip-path="url(#a)"/>
<path d="m397.03 661.74v101.89" clip-path="url(#a)"/>
<path d="m649.29 661.74v101.89" clip-path="url(#a)"/>
<path d="m901.55 661.74v101.89" clip-path="url(#a)"/>
<path d="m1279.9 661.74v101.89" clip-path="url(#a)"/>
<path d="m1450.9 661.74v101.89" clip-path="url(#a)"/>
</g>
<path d="m382.89 85.784v6.0162q0 2.4 2.4 2.4h7.7425q2.4 0 2.4-2.4v-6.0162q0-2.4-2.4-2.4h-7.7425q-2.4 0-2.4 2.4z" clip-path="url(#a)" fill="#fff" stroke="#fff"/>
<g clip-path="url(#a)">
<defs>
<path id="am" d="m9.8125 72.906h9.8594v-29.891h35.844v29.891h9.8594v-72.906h-9.8594v34.719h-35.844v-34.719h-9.8594z"/>
</defs>
<g transform="translate(386.95 85.784) rotate(90) scale(.08 -.08)">
<use xlink:href="#am"/>
</g>
</g>
<path d="m254.96 304.09 3.6041-4.1181q1.5806-1.806-0.22543-3.3866l-5.8263-5.0991q-1.806-1.5806-3.3866 0.22543l-3.6041 4.1181q-1.5806 1.806 0.22543 3.3866l5.8263 5.0991q1.806 1.5806 3.3866-0.22543z" clip-path="url(#a)" fill="#fff" stroke="#fff"/>
<g clip-path="url(#a)">
<defs>
<path id="q" d="m34.188 63.188-13.391-36.281h26.812zm-5.5781 9.7188h11.188l27.781-72.906h-10.25l-6.6406 18.703h-32.859l-6.6406-18.703h-10.406z"/>
</defs>
<g transform="translate(251.9 301.41) rotate(-48.808) scale(.08 -.08)">
<use xlink:href="#q"/>
</g>
</g>
<path d="m358.28 405.07 0.76431-5.4189q0.3352-2.3765-2.0413-2.7117l-7.6666-1.0814q-2.3765-0.3352-2.7117 2.0413l-0.76432 5.4189q-0.3352 2.3765 2.0413 2.7117l7.6666 1.0814q2.3765 0.3352 2.7117-2.0413z" clip-path="url(#a)" fill="#fff" stroke="#fff"/>
<g clip-path="url(#a)">
<g transform="translate(354.26 404.5) rotate(-81.972) scale(.08 -.08)">
<use xlink:href="#q"/>
</g>
</g>
<path d="m378.13 404.97 0.4036-6.1468q0.15725-2.3948-2.2376-2.5521l-7.7259-0.50729q-2.3948-0.15725-2.5521 2.2376l-0.4036 6.1468q-0.15725 2.3948 2.2376 2.5521l7.7259 0.50728q2.3948 0.15725 2.5521-2.2376z" clip-path="url(#a)" fill="#fff" stroke="#fff"/>
<g clip-path="url(#a)">
<defs>
<path id="an" d="m19.672 64.797v-56.688h11.922q15.094 0 22.094 6.8281 7 6.8438 7 21.594 0 14.641-7 21.453t-22.094 6.8125zm-9.8594 8.1094h20.266q21.188 0 31.094-8.8125 9.9219-8.8125 9.9219-27.562 0-18.859-9.9688-27.703-9.9531-8.8281-31.047-8.8281h-20.266z"/>
</defs>
<g transform="translate(374.07 404.7) rotate(-86.243) scale(.08 -.08)">
<use xlink:href="#an"/>
</g>
</g>
<path d="m409.04 399.71 0.486 4.7992q0.2418 2.3878 2.6296 2.146l7.7031-0.78006q2.3878-0.2418 2.146-2.6296l-0.486-4.7992q-0.2418-2.3878-2.6296-2.146l-7.7031 0.78006q-2.3878 0.2418-2.146 2.6296z" clip-path="url(#a)" fill="#fff" stroke="#fff"/>
<g clip-path="url(#a)">
<defs>
<path id="al" d="m19.672 64.797v-27.391h12.406q6.8906 0 10.641 3.5625 3.7656 3.5625 3.7656 10.156 0 6.5469-3.7656 10.109-3.75 3.5625-10.641 3.5625zm-9.8594 8.1094h22.266q12.266 0 18.531-5.5469 6.2812-5.5469 6.2812-16.234 0-10.797-6.2812-16.312-6.2656-5.5156-18.531-5.5156h-12.406v-29.297h-9.8594z"/>
</defs>
<g transform="translate(413.08 399.3) rotate(84.218) scale(.08 -.08)">
<use xlink:href="#al"/>
</g>
</g>
<path d="m600.58 199.01 5.318 1.2913q2.3322 0.56629 2.8985-1.7659l1.8269-7.5239q0.56629-2.3322-1.7659-2.8985l-5.318-1.2913q-2.3322-0.56629-2.8985 1.7659l-1.8269 7.5239q-0.56629 2.3322 1.7659 2.8985z" clip-path="url(#a)" fill="#fff" stroke="#fff"/>
<g clip-path="url(#a)">
<g transform="translate(601.54 195.06) rotate(13.648) scale(.08 -.08)">
<use xlink:href="#q"/>
</g>
</g>
<path d="m339.77 405.64 1.2091-5.7288q0.4956-2.3483-1.8527-2.8439l-7.5756-1.5988q-2.3483-0.4956-2.8439 1.8527l-1.2091 5.7288q-0.4956 2.3483 1.8527 2.8439l7.5756 1.5988q2.3483 0.4956 2.8439-1.8527z" clip-path="url(#a)" fill="#fff" stroke="#fff"/>
<g clip-path="url(#a)">
<defs>
<path id="p" d="m8.6875 72.906h9.9219v-44.297q0-11.719 4.2344-16.875 4.25-5.1406 13.781-5.1406 9.4688 0 13.719 5.1406 4.25 5.1562 4.25 16.875v44.297h9.9062v-45.516q0-14.25-7.0625-21.531-7.0469-7.2812-20.812-7.2812-13.828 0-20.891 7.2812-7.0469 7.2812-7.0469 21.531z"/>
</defs>
<g transform="translate(335.79 404.8) rotate(-78.083) scale(.08 -.08)">
<use xlink:href="#p"/>
</g>
</g>
<path d="m386.78 398.65 0.088461 5.8543q0.036261 2.3997 2.436 2.3635l7.7416-0.11698q2.3997-0.036261 2.3635-2.436l-0.088461-5.8543q-0.036261-2.3997-2.436-2.3635l-7.7416 0.11698q-2.3997 0.03626-2.3635 2.436z" clip-path="url(#a)" fill="#fff" stroke="#fff"/>
<g clip-path="url(#a)">
<g transform="translate(390.84 398.59) rotate(89.134) scale(.08 -.08)">
<use xlink:href="#p"/>
</g>
</g>
<path d="m99.707 562.12 1.095-5.4498q0.47275-2.353-1.8802-2.8257l-7.5908-1.5251q-2.353-0.47275-2.8257 1.8802l-1.095 5.4498q-0.47275 2.353 1.8802 2.8257l7.5908 1.5251q2.353 0.47275 2.8257-1.8802z" clip-path="url(#a)" fill="#fff" stroke="#fff"/>
<g clip-path="url(#a)">
<defs>
<path id="ac" d="m44.391 34.188q3.1719-1.0781 6.1719-4.5938t6.0312-9.6719l10.016-19.922h-10.609l-9.3125 18.703q-3.625 7.3281-7.0156 9.7188t-9.25 2.3906h-10.75v-30.812h-9.8594v72.906h22.266q12.5 0 18.656-5.2344 6.1562-5.2188 6.1562-15.766 0-6.8906-3.2031-11.438-3.2031-4.5312-9.2969-6.2812zm-24.719 30.609v-25.875h12.406q7.125 0 10.766 3.2969t3.6406 9.6875-3.6406 9.6406-10.766 3.25z"/>
</defs>
<g transform="translate(95.723 561.32) rotate(-78.64) scale(.08 -.08)">
<use xlink:href="#ac"/>
</g>
</g>
<path d="m128.87 506.24 2.0782 5.1853q0.89284 2.2277 3.1206 1.3349l7.1868-2.8804q2.2277-0.89284 1.3349-3.1206l-2.0782-5.1853q-0.89284-2.2277-3.1206-1.3349l-7.1868 2.8803q-2.2277 0.89284-1.3349 3.1206z" clip-path="url(#a)" fill="#fff" stroke="#fff"/>
<g clip-path="url(#a)">
<defs>
<path id="o" d="m64.406 67.281v-10.391q-4.9844 4.6406-10.625 6.9219-5.6406 2.2969-11.984 2.2969-12.5 0-19.141-7.6406t-6.6406-22.094q0-14.406 6.6406-22.047t19.141-7.6406q6.3438 0 11.984 2.2969t10.625 6.9375v-10.312q-5.1719-3.5156-10.969-5.2812-5.7812-1.75-12.219-1.75-16.562 0-26.094 10.125-9.5156 10.141-9.5156 27.672 0 17.578 9.5156 27.703 9.5312 10.141 26.094 10.141 6.5312 0 12.312-1.7344 5.7969-1.7344 10.875-5.2031z"/>
</defs>
<g transform="translate(132.64 504.73) rotate(68.16) scale(.08 -.08)">
<use xlink:href="#o"/>
</g>
</g>
<path d="m309.47 695.79v33.808q0 2.4 2.4 2.4h7.7425q2.4 0 2.4-2.4v-33.808q0-2.4-2.4-2.4h-7.7425q-2.4 0-2.4 2.4z" clip-path="url(#a)" fill="#fff" stroke="#fff"/>
<g clip-path="url(#a)">
<defs>
<path id="l" d="m-0.29688 72.906h61.672v-8.3125h-25.875v-64.594h-9.9062v64.594h-25.891z"/>
<path id="f" d="m56.203 29.594v-4.3906h-41.312q0.59375-9.2812 5.5938-14.141t13.938-4.8594q5.1719 0 10.031 1.2656t9.6562 3.8125v-8.5q-4.8438-2.0469-9.9219-3.125t-10.297-1.0781q-13.094 0-20.734 7.6094-7.6406 7.625-7.6406 20.625 0 13.422 7.25 21.297 7.25 7.8906 19.562 7.8906 11.031 0 17.453-7.1094 6.4219-7.0938 6.4219-19.297zm-8.9844 2.6406q-0.09375 7.3594-4.125 11.75-4.0312 4.4062-10.672 4.4062-7.5156 0-12.031-4.25t-5.2031-11.969z"/>
<path id="i" d="m41.109 46.297q-1.5156 0.875-3.2969 1.2812-1.7812 0.42188-3.9219 0.42188-7.625 0-11.703-4.9531t-4.0781-14.234v-28.812h-9.0312v54.688h9.0312v-8.5q2.8438 4.9844 7.375 7.3906 4.5469 2.4219 11.047 2.4219 0.92188 0 2.0469-0.125 1.125-0.10938 2.4844-0.35938z"/>
<path id="k" d="m52 44.188q3.375 6.0625 8.0625 8.9375t11.031 2.875q8.5469 0 13.188-5.9844 4.6406-5.9688 4.6406-17v-33.016h-9.0312v32.719q0 7.8594-2.7969 11.656-2.7812 3.8125-8.4844 3.8125-6.9844 0-11.047-4.6406-4.0469-4.625-4.0469-12.641v-30.906h-9.0312v32.719q0 7.9062-2.7812 11.688t-8.5938 3.7812q-6.8906 0-10.953-4.6562-4.0469-4.6562-4.0469-12.625v-30.906h-9.0312v54.688h9.0312v-8.5q3.0781 5.0312 7.375 7.4219t10.203 2.3906q5.9688 0 10.141-3.0312 4.1719-3.0156 6.1719-8.7812z"/>
<path id="j" d="m9.4219 54.688h8.9844v-54.688h-8.9844zm0 21.297h8.9844v-11.391h-8.9844z"/>
<path id="e" d="m54.891 33.016v-33.016h-8.9844v32.719q0 7.7656-3.0312 11.609-3.0312 3.8594-9.0781 3.8594-7.2812 0-11.484-4.6406-4.2031-4.625-4.2031-12.641v-30.906h-9.0312v54.688h9.0312v-8.5q3.2344 4.9375 7.5938 7.375 4.375 2.4375 10.094 2.4375 9.4219 0 14.25-5.8281 4.8438-5.8281 4.8438-17.156z"/>
<path id="d" d="m34.281 27.484q-10.891 0-15.094-2.4844t-4.2031-8.5q0-4.7812 3.1562-7.5938 3.1562-2.7969 8.5625-2.7969 7.4844 0 12 5.2969t4.5156 14.078v2zm17.922 3.7188v-31.203h-8.9844v8.2969q-3.0781-4.9688-7.6719-7.3438t-11.234-2.375q-8.3906 0-13.359 4.7188-4.9531 4.7188-4.9531 12.625 0 9.2188 6.1719 13.906 6.1875 4.6875 18.438 4.6875h12.609v0.89062q0 6.2031-4.0781 9.5938t-11.453 3.3906q-4.6875 0-9.1406-1.125-4.4375-1.125-8.5312-3.375v8.3125q4.9219 1.9062 9.5625 2.8438 4.6406 0.95312 9.0312 0.95312 11.875 0 17.734-6.1562 5.8594-6.1406 5.8594-18.641z"/>
<path id="g" d="m9.4219 75.984h8.9844v-75.984h-8.9844z"/>
</defs>
<g transform="translate(313.54 695.79) rotate(90) scale(.08 -.08)">
<use xlink:href="#l"/>
<use x="44.083984" xlink:href="#f"/>
<use x="105.607422" xlink:href="#i"/>
<use x="144.970703" xlink:href="#k"/>
<use x="242.382812" xlink:href="#j"/>
<use x="270.166016" xlink:href="#e"/>
<use x="333.544922" xlink:href="#d"/>
<use x="394.824219" xlink:href="#g"/>
</g>
</g>
<path d="m348.71 695.79v33.808q0 2.4 2.4 2.4h7.7425q2.4 0 2.4-2.4v-33.808q0-2.4-2.4-2.4h-7.7425q-2.4 0-2.4 2.4z" clip-path="url(#a)" fill="#fff" stroke="#fff"/>
<g clip-path="url(#a)">
<g transform="translate(352.78 695.79) rotate(90) scale(.08 -.08)">
<use xlink:href="#l"/>
<use x="44.083984" xlink:href="#f"/>
<use x="105.607422" xlink:href="#i"/>
<use x="144.970703" xlink:href="#k"/>
<use x="242.382812" xlink:href="#j"/>
<use x="270.166016" xlink:href="#e"/>
<use x="333.544922" xlink:href="#d"/>
<use x="394.824219" xlink:href="#g"/>
</g>
</g>
<path d="m435.6 695.79v33.808q0 2.4 2.4 2.4h7.7425q2.4 0 2.4-2.4v-33.808q0-2.4-2.4-2.4h-7.7425q-2.4 0-2.4 2.4z" clip-path="url(#a)" fill="#fff" stroke="#fff"/>
<g clip-path="url(#a)">
<g transform="translate(439.67 695.79) rotate(90) scale(.08 -.08)">
<use xlink:href="#l"/>
<use x="44.083984" xlink:href="#f"/>
<use x="105.607422" xlink:href="#i"/>
<use x="144.970703" xlink:href="#k"/>
<use x="242.382812" xlink:href="#j"/>
<use x="270.166016" xlink:href="#e"/>
<use x="333.544922" xlink:href="#d"/>
<use x="394.824219" xlink:href="#g"/>
</g>
</g>
<path d="m699.45 304.9 4.641-2.0035q2.2034-0.95121 1.2522-3.1547l-3.0687-7.1084q-0.95122-2.2034-3.1547-1.2522l-4.641 2.0035q-2.2034 0.95122-1.2522 3.1547l3.0687 7.1084q0.95122 2.2034 3.1547 1.2522z" clip-path="url(#a)" fill="#fff" stroke="#fff"/>
<g clip-path="url(#a)">
<defs>
<path id="v" d="m9.8125 72.906h46.094v-8.3125h-36.234v-21.578h34.719v-8.2969h-34.719v-26.422h37.109v-8.2969h-46.969z"/>
</defs>
<g transform="translate(697.84 301.16) rotate(-23.35) scale(.08 -.08)">
<use xlink:href="#v"/>
</g>
</g>
<path d="m817.31 456.89 0.24477-5.5809q0.10516-2.3977-2.2925-2.5029l-7.7351-0.33925q-2.3977-0.10516-2.5029 2.2925l-0.24477 5.5809q-0.10516 2.3977 2.2925 2.5029l7.7351 0.33925q2.3977 0.10516 2.5029-2.2925z" clip-path="url(#a)" fill="#fff" stroke="#fff"/>
<g clip-path="url(#a)">
<g transform="translate(813.25 456.71) rotate(-87.489) scale(.08 -.08)">
<use xlink:href="#o"/>
</g>
</g>
<path d="m904.42 302.28 4.3657 2.5483q2.0727 1.2099 3.2826-0.86285l3.9031-6.6867q1.2099-2.0727-0.86285-3.2826l-4.3657-2.5483q-2.0727-1.2099-3.2826 0.86285l-3.9031 6.6867q-1.2099 2.0727 0.86285 3.2826z" clip-path="url(#a)" fill="#fff" stroke="#fff"/>
<g clip-path="url(#a)">
<g transform="translate(906.47 298.77) rotate(30.273) scale(.08 -.08)">
<use xlink:href="#v"/>
</g>
</g>
<path d="m854.2 452.15 1.1229 5.7463q0.4603 2.3554 2.8157 1.8951l7.5988-1.485q2.3554-0.4603 1.8951-2.8157l-1.1229-5.7463q-0.4603-2.3554-2.8157-1.8951l-7.5988 1.485q-2.3554 0.4603-1.8951 2.8157z" clip-path="url(#a)" fill="#fff" stroke="#fff"/>
<g clip-path="url(#a)">
<g transform="translate(858.19 451.37) rotate(78.943) scale(.08 -.08)">
<use xlink:href="#p"/>
</g>
</g>
<path d="m539.24 510.21 1.3857-4.8614q0.65792-2.3081-1.6501-2.966l-7.4459-2.1225q-2.3081-0.65792-2.966 1.6501l-1.3857 4.8614q-0.65792 2.3081 1.6501 2.966l7.4459 2.1225q2.3081 0.65792 2.966-1.6501z" clip-path="url(#a)" fill="#fff" stroke="#fff"/>
<g clip-path="url(#a)">
<g transform="translate(535.33 509.09) rotate(-74.09) scale(.08 -.08)">
<use xlink:href="#v"/>
</g>
</g>
<path d="m580.09 400.98 0.80537 4.9904q0.38237 2.3693 2.7517 1.987l7.6436-1.2336q2.3693-0.38237 1.987-2.7517l-0.80537-4.9904q-0.38237-2.3693-2.7517-1.987l-7.6436 1.2336q-2.3693 0.38237-1.987 2.7517z" clip-path="url(#a)" fill="#fff" stroke="#fff"/>
<g clip-path="url(#a)">
<g transform="translate(584.11 400.33) rotate(80.832) scale(.08 -.08)">
<use xlink:href="#v"/>
</g>
</g>
<path d="m607.41 453.81 1.8255 5.2796q0.78428 2.2682 3.0525 1.484l7.3174-2.5301q2.2682-0.78428 1.484-3.0525l-1.8255-5.2796q-0.78428-2.2682-3.0525-1.484l-7.3174 2.5301q-2.2682 0.78428-1.484 3.0525z" clip-path="url(#a)" fill="#fff" stroke="#fff"/>
<g clip-path="url(#a)">
<g transform="translate(611.25 452.48) rotate(70.926) scale(.08 -.08)">
<use xlink:href="#o"/>
</g>
</g>
<path d="m786.81 730.7 10.197-32.233q0.72386-2.2882-1.5644-3.0121l-7.3819-2.3352q-2.2882-0.72386-3.0121 1.5644l-10.197 32.233q-0.72386 2.2882 1.5644 3.0121l7.3819 2.3352q2.2882 0.72386 3.0121-1.5644z" clip-path="url(#a)" fill="#fff" stroke="#fff"/>
<g clip-path="url(#a)">
<g transform="translate(782.93 729.47) rotate(-72.446) scale(.08 -.08)">
<use xlink:href="#l"/>
<use x="44.083984" xlink:href="#f"/>
<use x="105.607422" xlink:href="#i"/>
<use x="144.970703" xlink:href="#k"/>
<use x="242.382812" xlink:href="#j"/>
<use x="270.166016" xlink:href="#e"/>
<use x="333.544922" xlink:href="#d"/>
<use x="394.824219" xlink:href="#g"/>
</g>
</g>
<path d="m807.08 698.46 10.197 32.233q0.72386 2.2882 3.0121 1.5644l7.3819-2.3352q2.2882-0.72386 1.5644-3.0121l-10.197-32.233q-0.72386-2.2882-3.0121-1.5644l-7.3819 2.3352q-2.2882 0.72386-1.5644 3.0121z" clip-path="url(#a)" fill="#fff" stroke="#fff"/>
<g clip-path="url(#a)">
<g transform="translate(810.96 697.24) rotate(72.446) scale(.08 -.08)">
<use xlink:href="#l"/>
<use x="44.083984" xlink:href="#f"/>
<use x="105.607422" xlink:href="#i"/>
<use x="144.970703" xlink:href="#k"/>
<use x="242.382812" xlink:href="#j"/>
<use x="270.166016" xlink:href="#e"/>
<use x="333.544922" xlink:href="#d"/>
<use x="394.824219" xlink:href="#g"/>
</g>
</g>
<path d="m904.48 511.72 2.9282-4.6232q1.2842-2.0275-0.74335-3.3117l-6.5409-4.1428q-2.0275-1.2842-3.3117 0.74335l-2.9282 4.6232q-1.2842 2.0275 0.74335 3.3117l6.5409 4.1428q2.0275 1.2842 3.3117-0.74335z" clip-path="url(#a)" fill="#fff" stroke="#fff"/>
<g clip-path="url(#a)">
<g transform="translate(901.05 509.55) rotate(-57.651) scale(.08 -.08)">
<use xlink:href="#q"/>
</g>
</g>
<path d="m991.46 509.14 0.44906-5.0589q0.21221-2.3906-2.1784-2.6028l-7.7122-0.68459q-2.3906-0.21221-2.6028 2.1784l-0.44906 5.0589q-0.21221 2.3906 2.1784 2.6028l7.7122 0.68459q2.3906 0.21221 2.6028-2.1784z" clip-path="url(#a)" fill="#fff" stroke="#fff"/>
<g clip-path="url(#a)">
<defs>
<path id="ab" d="m53.516 70.516v-9.625q-5.6094 2.6875-10.594 4-4.9844 1.3281-9.625 1.3281-8.0469 0-12.422-3.125t-4.375-8.8906q0-4.8438 2.9062-7.3125 2.9062-2.4531 11.016-3.9688l5.9531-1.2188q11.031-2.1094 16.281-7.4062t5.25-14.172q0-10.609-7.1094-16.078-7.0938-5.4688-20.812-5.4688-5.1719 0-11.016 1.1719-5.8281 1.1719-12.078 3.4688v10.156q6-3.3594 11.766-5.0781 5.7656-1.7031 11.328-1.7031 8.4375 0 13.031 3.3125 4.5938 3.3281 4.5938 9.4844 0 5.3594-3.2969 8.3906t-10.812 4.5469l-6.0156 1.1719q-11.031 2.1875-15.969 6.875-4.9219 4.6875-4.9219 13.047 0 9.6719 6.8125 15.234t18.766 5.5625q5.1406 0 10.453-0.9375 5.3281-0.92188 10.891-2.7656z"/>
</defs>
<g transform="translate(987.41 508.78) rotate(-84.927) scale(.08 -.08)">
<use xlink:href="#ab"/>
</g>
</g>
<path d="m1106.6 407.01 4.9652 2.3011q2.1775 1.0092 3.1867-1.1684l3.2556-7.0248q1.0092-2.1775-1.1684-3.1867l-4.9652-2.3011q-2.1775-1.0092-3.1867 1.1684l-3.2556 7.0248q-1.0092 2.1775 1.1684 3.1867z" clip-path="url(#a)" fill="#fff" stroke="#fff"/>
<g clip-path="url(#a)">
<g transform="translate(1108.3 403.33) rotate(24.865) scale(.08 -.08)">
<use xlink:href="#q"/>
</g>
</g>
<path d="m965.35 695.79v33.808q0 2.4 2.4 2.4h7.7425q2.4 0 2.4-2.4v-33.808q0-2.4-2.4-2.4h-7.7425q-2.4 0-2.4 2.4z" clip-path="url(#a)" fill="#fff" stroke="#fff"/>
<g clip-path="url(#a)">
<g transform="translate(969.41 695.79) rotate(90) scale(.08 -.08)">
<use xlink:href="#l"/>
<use x="44.083984" xlink:href="#f"/>
<use x="105.607422" xlink:href="#i"/>
<use x="144.970703" xlink:href="#k"/>
<use x="242.382812" xlink:href="#j"/>
<use x="270.166016" xlink:href="#e"/>
<use x="333.544922" xlink:href="#d"/>
<use x="394.824219" xlink:href="#g"/>
</g>
</g>
<path d="m1137.2 564.37 3.6415-4.1999q1.5722-1.8133-0.24112-3.3855l-5.8499-5.072q-1.8133-1.5722-3.3855 0.24112l-3.6415 4.1999q-1.5722 1.8133 0.24112 3.3855l5.8499 5.072q1.8133 1.5722 3.3855-0.24112z" clip-path="url(#a)" fill="#fff" stroke="#fff"/>
<g clip-path="url(#a)">
<g transform="translate(1134.1 561.71) rotate(-49.074) scale(.08 -.08)">
<use xlink:href="#ac"/>
</g>
</g>
<path d="m1176.6 563.23 2.2669-4.5182q1.0763-2.1451-1.0689-3.2214l-6.9203-3.4721q-2.1451-1.0763-3.2214 1.0689l-2.2669 4.5182q-1.0763 2.1451 1.0689 3.2214l6.9203 3.4721q2.1451 1.0763 3.2214-1.0689z" clip-path="url(#a)" fill="#fff" stroke="#fff"/>
<g clip-path="url(#a)">
<g transform="translate(1173 561.41) rotate(-63.356) scale(.08 -.08)">
<use xlink:href="#v"/>
</g>
</g>
<path d="m1245.6 507.06 2.679 4.9019q1.151 2.106 3.257 0.95502l6.7941-3.7131q2.106-1.151 0.95502-3.257l-2.679-4.9019q-1.151-2.106-3.257-0.95502l-6.7941 3.7131q-2.106 1.151-0.95502 3.257z" clip-path="url(#a)" fill="#fff" stroke="#fff"/>
<g clip-path="url(#a)">
<g transform="translate(1249.2 505.11) rotate(61.342) scale(.08 -.08)">
<use xlink:href="#o"/>
</g>
</g>
<path d="m1331.1 560.82 4.323 3.9488q1.772 1.6186 3.3906-0.15341l5.2217-5.7166q1.6186-1.772-0.15341-3.3906l-4.323-3.9488q-1.772-1.6186-3.3906 0.15341l-5.2217 5.7166q-1.6186 1.772 0.15341 3.3906z" clip-path="url(#a)" fill="#fff" stroke="#fff"/>
<g clip-path="url(#a)">
<g transform="translate(1333.9 557.82) rotate(42.409) scale(.08 -.08)">
<use xlink:href="#p"/>
</g>
</g>
<path d="m1038.2 695.79v33.808q0 2.4 2.4 2.4h7.7425q2.4 0 2.4-2.4v-33.808q0-2.4-2.4-2.4h-7.7425q-2.4 0-2.4 2.4z" clip-path="url(#a)" fill="#fff" stroke="#fff"/>
<g clip-path="url(#a)">
<g transform="translate(1042.3 695.79) rotate(90) scale(.08 -.08)">
<use xlink:href="#l"/>
<use x="44.083984" xlink:href="#f"/>
<use x="105.607422" xlink:href="#i"/>
<use x="144.970703" xlink:href="#k"/>
<use x="242.382812" xlink:href="#j"/>
<use x="270.166016" xlink:href="#e"/>
<use x="333.544922" xlink:href="#d"/>
<use x="394.824219" xlink:href="#g"/>
</g>
</g>
<path d="m1113.9 695.79v33.808q0 2.4 2.4 2.4h7.7425q2.4 0 2.4-2.4v-33.808q0-2.4-2.4-2.4h-7.7425q-2.4 0-2.4 2.4z" clip-path="url(#a)" fill="#fff" stroke="#fff"/>
<g clip-path="url(#a)">
<g transform="translate(1118 695.79) rotate(90) scale(.08 -.08)">
<use xlink:href="#l"/>
<use x="44.083984" xlink:href="#f"/>
<use x="105.607422" xlink:href="#i"/>
<use x="144.970703" xlink:href="#k"/>
<use x="242.382812" xlink:href="#j"/>
<use x="270.166016" xlink:href="#e"/>
<use x="333.544922" xlink:href="#d"/>
<use x="394.824219" xlink:href="#g"/>
</g>
</g>
<path d="m1239.3 679.06 12.574-31.382q0.89261-2.2278-1.3352-3.1204l-7.1871-2.8796q-2.2278-0.89261-3.1204 1.3352l-12.574 31.382q-0.89261 2.2278 1.3352 3.1204l7.1871 2.8796q2.2278 0.89261 3.1204-1.3352z" clip-path="url(#a)" fill="#fff" stroke="#fff"/>
<g clip-path="url(#a)">
<g transform="translate(1235.5 677.55) rotate(-68.166) scale(.08 -.08)">
<use xlink:href="#l"/>
<use x="44.083984" xlink:href="#f"/>
<use x="105.607422" xlink:href="#i"/>
<use x="144.970703" xlink:href="#k"/>
<use x="242.382812" xlink:href="#j"/>
<use x="270.166016" xlink:href="#e"/>
<use x="333.544922" xlink:href="#d"/>
<use x="394.824219" xlink:href="#g"/>
</g>
</g>
<path d="m1310.3 647.72 12.696 31.333q0.90133 2.2243 3.1256 1.323l7.1758-2.9077q2.2243-0.90133 1.323-3.1256l-12.696-31.333q-0.90133-2.2243-3.1256-1.323l-7.1758 2.9077q-2.2243 0.90133-1.323 3.1256z" clip-path="url(#a)" fill="#fff" stroke="#fff"/>
<g clip-path="url(#a)">
<g transform="translate(1314 646.2) rotate(67.942) scale(.08 -.08)">
<use xlink:href="#l"/>
<use x="44.083984" xlink:href="#f"/>
<use x="105.607422" xlink:href="#i"/>
<use x="144.970703" xlink:href="#k"/>
<use x="242.382812" xlink:href="#j"/>
<use x="270.166016" xlink:href="#e"/>
<use x="333.544922" xlink:href="#d"/>
<use x="394.824219" xlink:href="#g"/>
</g>
</g>
<path d="m1286.6 613.07 0.052947-5.8548q0.021704-2.3999-2.3782-2.4216l-7.7422-0.070016q-2.3999-0.021703-2.4216 2.3782l-0.052947 5.8548q-0.021703 2.3999 2.3782 2.4216l7.7422 0.070016q2.3999 0.021703 2.4216-2.3782z" clip-path="url(#a)" fill="#fff" stroke="#fff"/>
<g clip-path="url(#a)">
<g transform="translate(1282.6 613.03) rotate(-89.482) scale(.08 -.08)">
<use xlink:href="#p"/>
</g>
</g>
<path d="m483.25 695.79v33.808q0 2.4 2.4 2.4h7.7425q2.4 0 2.4-2.4v-33.808q0-2.4-2.4-2.4h-7.7425q-2.4 0-2.4 2.4z" clip-path="url(#a)" fill="#fff" stroke="#fff"/>
<g clip-path="url(#a)">
<g transform="translate(487.31 695.79) rotate(90) scale(.08 -.08)">
<use xlink:href="#l"/>
<use x="44.083984" xlink:href="#f"/>
<use x="105.607422" xlink:href="#i"/>
<use x="144.970703" xlink:href="#k"/>
<use x="242.382812" xlink:href="#j"/>
<use x="270.166016" xlink:href="#e"/>
<use x="333.544922" xlink:href="#d"/>
<use x="394.824219" xlink:href="#g"/>
</g>
</g>
<path d="m615.84 507.03 2.5657 4.8338q1.1252 2.1199 3.2451 0.9947l6.8389-3.6299q2.1199-1.1252 0.99469-3.2451l-2.5657-4.8338q-1.1252-2.1199-3.2451-0.99469l-6.8389 3.6299q-2.1199 1.1252-0.9947 3.2451z" clip-path="url(#a)" fill="#fff" stroke="#fff"/>
<g clip-path="url(#a)">
<g transform="translate(619.43 505.12) rotate(62.042) scale(.08 -.08)">
<use xlink:href="#q"/>
</g>
</g>
<path d="m572.94 562.23 1.3059-4.908q0.61713-2.3193-1.7022-2.9364l-7.4822-1.9909q-2.3193-0.61713-2.9364 1.7022l-1.3059 4.908q-0.61713 2.3193 1.7022 2.9364l7.4822 1.9909q2.3193 0.61713 2.9364-1.7022z" clip-path="url(#a)" fill="#fff" stroke="#fff"/>
<g clip-path="url(#a)">
<g transform="translate(569.02 561.18) rotate(-75.1) scale(.08 -.08)">
<use xlink:href="#ab"/>
</g>
</g>
<path d="m625.87 615.56 2.6983-4.8913q1.1593-2.1015-0.94218-3.2607l-6.7794-3.7398q-2.1015-1.1593-3.2607 0.94218l-2.6983 4.8913q-1.1593 2.1015 0.94218 3.2607l6.7794 3.7398q2.1015 1.1593 3.2607-0.94218z" clip-path="url(#a)" fill="#fff" stroke="#fff"/>
<g clip-path="url(#a)">
<g transform="translate(622.31 613.6) rotate(-61.117) scale(.08 -.08)">
<use xlink:href="#o"/>
</g>
</g>
<path d="m672.35 610.72 2.732 4.8726q1.1738 2.0934 3.2671 0.91964l6.7534-3.7866q2.0934-1.1738 0.91964-3.2671l-2.732-4.8726q-1.1738-2.0934-3.2671-0.91964l-6.7534 3.7866q-2.0934 1.1738-0.91964 3.2671z" clip-path="url(#a)" fill="#fff" stroke="#fff"/>
<g clip-path="url(#a)">
<g transform="translate(675.89 608.73) rotate(60.721) scale(.08 -.08)">
<use xlink:href="#o"/>
</g>
</g>
<path d="m656 613.07 0.052947-5.8548q0.021704-2.3999-2.3782-2.4216l-7.7422-0.070016q-2.3999-0.021703-2.4216 2.3782l-0.052947 5.8548q-0.021704 2.3999 2.3782 2.4216l7.7422 0.070016q2.3999 0.021703 2.4216-2.3782z" clip-path="url(#a)" fill="#fff" stroke="#fff"/>
<g clip-path="url(#a)">
<g transform="translate(651.93 613.03) rotate(-89.482) scale(.08 -.08)">
<use xlink:href="#p"/>
</g>
</g>
<path d="m586.96 695.79v33.808q0 2.4 2.4 2.4h7.7425q2.4 0 2.4-2.4v-33.808q0-2.4-2.4-2.4h-7.7425q-2.4 0-2.4 2.4z" clip-path="url(#a)" fill="#fff" stroke="#fff"/>
<g clip-path="url(#a)">
<g transform="translate(591.02 695.79) rotate(90) scale(.08 -.08)">
<use xlink:href="#l"/>
<use x="44.083984" xlink:href="#f"/>
<use x="105.607422" xlink:href="#i"/>
<use x="144.970703" xlink:href="#k"/>
<use x="242.382812" xlink:href="#j"/>
<use x="270.166016" xlink:href="#e"/>
<use x="333.544922" xlink:href="#d"/>
<use x="394.824219" xlink:href="#g"/>
</g>
</g>
<path d="m701.88 695.79v33.808q0 2.4 2.4 2.4h7.7425q2.4 0 2.4-2.4v-33.808q0-2.4-2.4-2.4h-7.7425q-2.4 0-2.4 2.4z" clip-path="url(#a)" fill="#fff" stroke="#fff"/>
<g clip-path="url(#a)">
<g transform="translate(705.94 695.79) rotate(90) scale(.08 -.08)">
<use xlink:href="#l"/>
<use x="44.083984" xlink:href="#f"/>
<use x="105.607422" xlink:href="#i"/>
<use x="144.970703" xlink:href="#k"/>
<use x="242.382812" xlink:href="#j"/>
<use x="270.166016" xlink:href="#e"/>
<use x="333.544922" xlink:href="#d"/>
<use x="394.824219" xlink:href="#g"/>
</g>
</g>
<path d="m533.7 695.79v33.808q0 2.4 2.4 2.4h7.7425q2.4 0 2.4-2.4v-33.808q0-2.4-2.4-2.4h-7.7425q-2.4 0-2.4 2.4z" clip-path="url(#a)" fill="#fff" stroke="#fff"/>
<g clip-path="url(#a)">
<g transform="translate(537.77 695.79) rotate(90) scale(.08 -.08)">
<use xlink:href="#l"/>
<use x="44.083984" xlink:href="#f"/>
<use x="105.607422" xlink:href="#i"/>
<use x="144.970703" xlink:href="#k"/>
<use x="242.382812" xlink:href="#j"/>
<use x="270.166016" xlink:href="#e"/>
<use x="333.544922" xlink:href="#d"/>
<use x="394.824219" xlink:href="#g"/>
</g>
</g>
<path d="m76.762 729.84 1.3938-33.779q0.098944-2.398-2.299-2.4969l-7.7359-0.3192q-2.398-0.098943-2.4969 2.299l-1.3938 33.779q-0.098944 2.398 2.299 2.4969l7.7359 0.3192q2.398 0.098944 2.4969-2.299z" clip-path="url(#a)" fill="#fff" stroke="#fff"/>
<g clip-path="url(#a)">
<g transform="translate(72.702 729.67) rotate(-87.637) scale(.08 -.08)">
<use xlink:href="#l"/>
<use x="44.083984" xlink:href="#f"/>
<use x="105.607422" xlink:href="#i"/>
<use x="144.970703" xlink:href="#k"/>
<use x="242.382812" xlink:href="#j"/>
<use x="270.166016" xlink:href="#e"/>
<use x="333.544922" xlink:href="#d"/>
<use x="394.824219" xlink:href="#g"/>
</g>
</g>
<path d="m68.435 696.06 1.3938 33.779q0.098944 2.398 2.4969 2.299l7.7359-0.3192q2.398-0.098944 2.299-2.4969l-1.3938-33.779q-0.098944-2.398-2.4969-2.299l-7.7359 0.3192q-2.398 0.098944-2.299 2.4969z" clip-path="url(#a)" fill="#fff" stroke="#fff"/>
<g clip-path="url(#a)">
<g transform="translate(72.495 695.89) rotate(87.637) scale(.08 -.08)">
<use xlink:href="#l"/>
<use x="44.083984" xlink:href="#f"/>
<use x="105.607422" xlink:href="#i"/>
<use x="144.970703" xlink:href="#k"/>
<use x="242.382812" xlink:href="#j"/>
<use x="270.166016" xlink:href="#e"/>
<use x="333.544922" xlink:href="#d"/>
<use x="394.824219" xlink:href="#g"/>
</g>
</g>
<path d="m130.12 615.68 2.8341-4.8139q1.2176-2.0682-0.85059-3.2858l-6.6721-3.9281q-2.0682-1.2176-3.2858 0.85059l-2.8341 4.8139q-1.2176 2.0682 0.85059 3.2858l6.6721 3.9281q2.0682 1.2176 3.2858-0.85059z" clip-path="url(#a)" fill="#fff" stroke="#fff"/>
<g clip-path="url(#a)">
<g transform="translate(126.61 613.61) rotate(-59.513) scale(.08 -.08)">
<use xlink:href="#o"/>
</g>
</g>
<path d="m159.55 613.25 0.33283-5.5763q0.14299-2.3957-2.2527-2.5387l-7.7287-0.4613q-2.3957-0.14299-2.5387 2.2527l-0.33283 5.5763q-0.14299 2.3957 2.2527 2.5387l7.7287 0.4613q2.3957 0.14299 2.5387-2.2527z" clip-path="url(#a)" fill="#fff" stroke="#fff"/>
<g clip-path="url(#a)">
<g transform="translate(155.49 613.01) rotate(-86.584) scale(.08 -.08)">
<use xlink:href="#o"/>
</g>
</g>
<path d="m164.82 608.98 1.6829 5.7435q0.67485 2.3032 2.978 1.6283l7.4301-2.1771q2.3032-0.67485 1.6283-2.978l-1.6829-5.7435q-0.67485-2.3032-2.978-1.6283l-7.4301 2.1771q-2.3032 0.67485-1.6283 2.978z" clip-path="url(#a)" fill="#fff" stroke="#fff"/>
<g clip-path="url(#a)">
<defs>
<path id="at" d="m9.8125 72.906h13.281l32.328-60.984v60.984h9.5625v-72.906h-13.281l-32.312 60.984v-60.984h-9.5781z"/>
</defs>
<g transform="translate(168.72 607.84) rotate(73.669) scale(.08 -.08)">
<use xlink:href="#at"/>
</g>
</g>
<path d="m186.67 611.46 3.2447 4.5473q1.394 1.9537 3.3477 0.55967l6.3026-4.4971q1.9537-1.394 0.55967-3.3477l-3.2447-4.5473q-1.394-1.9537-3.3477-0.55967l-6.3026 4.4971q-1.9537 1.394-0.55967 3.3477z" clip-path="url(#a)" fill="#fff" stroke="#fff"/>
<g clip-path="url(#a)">
<g transform="translate(189.98 609.1) rotate(54.491) scale(.08 -.08)">
<use xlink:href="#o"/>
</g>
</g>
<path d="m142.96 614.96 1.974-5.5122q0.80917-2.2595-1.4503-3.0686l-7.2892-2.6104q-2.2595-0.80917-3.0686 1.4503l-1.974 5.5122q-0.80917 2.2595 1.4503 3.0686l7.2892 2.6104q2.2595 0.80917 3.0686-1.4503z" clip-path="url(#a)" fill="#fff" stroke="#fff"/>
<g clip-path="url(#a)">
<g transform="translate(139.13 613.59) rotate(-70.296) scale(.08 -.08)">
<use xlink:href="#p"/>
</g>
</g>
<path d="m97.311 729.98 2.3194-33.728q0.16466-2.3943-2.2297-2.559l-7.7243-0.53119q-2.3943-0.16466-2.559 2.2297l-2.3194 33.728q-0.16466 2.3943 2.2297 2.559l7.7243 0.53119q2.3943 0.16466 2.559-2.2297z" clip-path="url(#a)" fill="#fff" stroke="#fff"/>
<g clip-path="url(#a)">
<g transform="translate(93.257 729.7) rotate(-86.066) scale(.08 -.08)">
<use xlink:href="#l"/>
<use x="44.083984" xlink:href="#f"/>
<use x="105.607422" xlink:href="#i"/>
<use x="144.970703" xlink:href="#k"/>
<use x="242.382812" xlink:href="#j"/>
<use x="270.166016" xlink:href="#e"/>
<use x="333.544922" xlink:href="#d"/>
<use x="394.824219" xlink:href="#g"/>
</g>
</g>
<path d="m91.806 696.26 2.3194 33.728q0.16466 2.3943 2.559 2.2297l7.7243-0.53119q2.3943-0.16466 2.2297-2.559l-2.3194-33.728q-0.16466-2.3943-2.559-2.2297l-7.7243 0.53119q-2.3943 0.16466-2.2297 2.559z" clip-path="url(#a)" fill="#fff" stroke="#fff"/>
<g clip-path="url(#a)">
<g transform="translate(95.86 695.98) rotate(86.066) scale(.08 -.08)">
<use xlink:href="#l"/>
<use x="44.083984" xlink:href="#f"/>
<use x="105.607422" xlink:href="#i"/>
<use x="144.970703" xlink:href="#k"/>
<use x="242.382812" xlink:href="#j"/>
<use x="270.166016" xlink:href="#e"/>
<use x="333.544922" xlink:href="#d"/>
<use x="394.824219" xlink:href="#g"/>
</g>
</g>
<path d="m149.15 730.18 3.6976-33.605q0.26249-2.3856-2.1231-2.6481l-7.6961-0.84681q-2.3856-0.26249-2.6481 2.1231l-3.6976 33.605q-0.26249 2.3856 2.1231 2.6481l7.6961 0.84681q2.3856 0.26249 2.6481-2.1231z" clip-path="url(#a)" fill="#fff" stroke="#fff"/>
<g clip-path="url(#a)">
<g transform="translate(145.11 729.73) rotate(-83.721) scale(.08 -.08)">
<use xlink:href="#l"/>
<use x="44.083984" xlink:href="#f"/>
<use x="105.607422" xlink:href="#i"/>
<use x="144.970703" xlink:href="#k"/>
<use x="242.382812" xlink:href="#j"/>
<use x="270.166016" xlink:href="#e"/>
<use x="333.544922" xlink:href="#d"/>
<use x="394.824219" xlink:href="#g"/>
</g>
</g>
<path d="m147.9 696.57 3.6976 33.605q0.26249 2.3856 2.6481 2.1231l7.6961-0.84681q2.3856-0.26249 2.1231-2.6481l-3.6976-33.605q-0.26249-2.3856-2.6481-2.1231l-7.6961 0.84681q-2.3856 0.26249-2.1231 2.6481z" clip-path="url(#a)" fill="#fff" stroke="#fff"/>
<g clip-path="url(#a)">
<g transform="translate(151.94 696.13) rotate(83.721) scale(.08 -.08)">
<use xlink:href="#l"/>
<use x="44.083984" xlink:href="#f"/>
<use x="105.607422" xlink:href="#i"/>
<use x="144.970703" xlink:href="#k"/>
<use x="242.382812" xlink:href="#j"/>
<use x="270.166016" xlink:href="#e"/>
<use x="333.544922" xlink:href="#d"/>
<use x="394.824219" xlink:href="#g"/>
</g>
</g>
<path d="m180.54 695.79v33.808q0 2.4 2.4 2.4h7.7425q2.4 0 2.4-2.4v-33.808q0-2.4-2.4-2.4h-7.7425q-2.4 0-2.4 2.4z" clip-path="url(#a)" fill="#fff" stroke="#fff"/>
<g clip-path="url(#a)">
<g transform="translate(184.6 695.79) rotate(90) scale(.08 -.08)">
<use xlink:href="#l"/>
<use x="44.083984" xlink:href="#f"/>
<use x="105.607422" xlink:href="#i"/>
<use x="144.970703" xlink:href="#k"/>
<use x="242.382812" xlink:href="#j"/>
<use x="270.166016" xlink:href="#e"/>
<use x="333.544922" xlink:href="#d"/>
<use x="394.824219" xlink:href="#g"/>
</g>
</g>
<path d="m226.22 730.34 5.0573-33.427q0.35902-2.373-2.014-2.732l-7.6554-1.1582q-2.373-0.35902-2.732 2.014l-5.0573 33.427q-0.35902 2.373 2.014 2.732l7.6554 1.1582q2.373 0.35902 2.732-2.014z" clip-path="url(#a)" fill="#fff" stroke="#fff"/>
<g clip-path="url(#a)">
<g transform="translate(222.2 729.73) rotate(-81.397) scale(.08 -.08)">
<use xlink:href="#l"/>
<use x="44.083984" xlink:href="#f"/>
<use x="105.607422" xlink:href="#i"/>
<use x="144.970703" xlink:href="#k"/>
<use x="242.382812" xlink:href="#j"/>
<use x="270.166016" xlink:href="#e"/>
<use x="333.544922" xlink:href="#d"/>
<use x="394.824219" xlink:href="#g"/>
</g>
</g>
<path d="m229.23 696.91 5.0573 33.427q0.35902 2.373 2.732 2.014l7.6554-1.1582q2.373-0.35902 2.014-2.732l-5.0573-33.427q-0.35902-2.373-2.732-2.014l-7.6554 1.1582q-2.373 0.35902-2.014 2.732z" clip-path="url(#a)" fill="#fff" stroke="#fff"/>
<g clip-path="url(#a)">
<g transform="translate(233.25 696.31) rotate(81.397) scale(.08 -.08)">
<use xlink:href="#l"/>
<use x="44.083984" xlink:href="#f"/>
<use x="105.607422" xlink:href="#i"/>
<use x="144.970703" xlink:href="#k"/>
<use x="242.382812" xlink:href="#j"/>
<use x="270.166016" xlink:href="#e"/>
<use x="333.544922" xlink:href="#d"/>
<use x="394.824219" xlink:href="#g"/>
</g>
</g>
<path d="m113.27 695.79v33.808q0 2.4 2.4 2.4h7.7425q2.4 0 2.4-2.4v-33.808q0-2.4-2.4-2.4h-7.7425q-2.4 0-2.4 2.4z" clip-path="url(#a)" fill="#fff" stroke="#fff"/>
<g clip-path="url(#a)">
<g transform="translate(117.34 695.79) rotate(90) scale(.08 -.08)">
<use xlink:href="#l"/>
<use x="44.083984" xlink:href="#f"/>
<use x="105.607422" xlink:href="#i"/>
<use x="144.970703" xlink:href="#k"/>
<use x="242.382812" xlink:href="#j"/>
<use x="270.166016" xlink:href="#e"/>
<use x="333.544922" xlink:href="#d"/>
<use x="394.824219" xlink:href="#g"/>
</g>
</g>
<path d="m273.04 695.79v33.808q0 2.4 2.4 2.4h7.7425q2.4 0 2.4-2.4v-33.808q0-2.4-2.4-2.4h-7.7425q-2.4 0-2.4 2.4z" clip-path="url(#a)" fill="#fff" stroke="#fff"/>
<g clip-path="url(#a)">
<g transform="translate(277.1 695.79) rotate(90) scale(.08 -.08)">
<use xlink:href="#l"/>
<use x="44.083984" xlink:href="#f"/>
<use x="105.607422" xlink:href="#i"/>
<use x="144.970703" xlink:href="#k"/>
<use x="242.382812" xlink:href="#j"/>
<use x="270.166016" xlink:href="#e"/>
<use x="333.544922" xlink:href="#d"/>
<use x="394.824219" xlink:href="#g"/>
</g>
</g>
<path d="m390.76 695.79v33.808q0 2.4 2.4 2.4h7.7425q2.4 0 2.4-2.4v-33.808q0-2.4-2.4-2.4h-7.7425q-2.4 0-2.4 2.4z" clip-path="url(#a)" fill="#fff" stroke="#fff"/>
<g clip-path="url(#a)">
<g transform="translate(394.82 695.79) rotate(90) scale(.08 -.08)">
<use xlink:href="#l"/>
<use x="44.083984" xlink:href="#f"/>
<use x="105.607422" xlink:href="#i"/>
<use x="144.970703" xlink:href="#k"/>
<use x="242.382812" xlink:href="#j"/>
<use x="270.166016" xlink:href="#e"/>
<use x="333.544922" xlink:href="#d"/>
<use x="394.824219" xlink:href="#g"/>
</g>
</g>
<path d="m643.02 695.79v33.808q0 2.4 2.4 2.4h7.7425q2.4 0 2.4-2.4v-33.808q0-2.4-2.4-2.4h-7.7425q-2.4 0-2.4 2.4z" clip-path="url(#a)" fill="#fff" stroke="#fff"/>
<g clip-path="url(#a)">
<g transform="translate(647.08 695.79) rotate(90) scale(.08 -.08)">
<use xlink:href="#l"/>
<use x="44.083984" xlink:href="#f"/>
<use x="105.607422" xlink:href="#i"/>
<use x="144.970703" xlink:href="#k"/>
<use x="242.382812" xlink:href="#j"/>
<use x="270.166016" xlink:href="#e"/>
<use x="333.544922" xlink:href="#d"/>
<use x="394.824219" xlink:href="#g"/>
</g>
</g>
<path d="m895.27 695.79v33.808q0 2.4 2.4 2.4h7.7425q2.4 0 2.4-2.4v-33.808q0-2.4-2.4-2.4h-7.7425q-2.4 0-2.4 2.4z" clip-path="url(#a)" fill="#fff" stroke="#fff"/>
<g clip-path="url(#a)">
<g transform="translate(899.34 695.79) rotate(90) scale(.08 -.08)">
<use xlink:href="#l"/>
<use x="44.083984" xlink:href="#f"/>
<use x="105.607422" xlink:href="#i"/>
<use x="144.970703" xlink:href="#k"/>
<use x="242.382812" xlink:href="#j"/>
<use x="270.166016" xlink:href="#e"/>
<use x="333.544922" xlink:href="#d"/>
<use x="394.824219" xlink:href="#g"/>
</g>
</g>
<path d="m1273.7 695.79v33.808q0 2.4 2.4 2.4h7.7425q2.4 0 2.4-2.4v-33.808q0-2.4-2.4-2.4h-7.7425q-2.4 0-2.4 2.4z" clip-path="url(#a)" fill="#fff" stroke="#fff"/>
<g clip-path="url(#a)">
<g transform="translate(1277.7 695.79) rotate(90) scale(.08 -.08)">
<use xlink:href="#l"/>
<use x="44.083984" xlink:href="#f"/>
<use x="105.607422" xlink:href="#i"/>
<use x="144.970703" xlink:href="#k"/>
<use x="242.382812" xlink:href="#j"/>
<use x="270.166016" xlink:href="#e"/>
<use x="333.544922" xlink:href="#d"/>
<use x="394.824219" xlink:href="#g"/>
</g>
</g>
<path d="m1444.6 695.79v33.808q0 2.4 2.4 2.4h7.7425q2.4 0 2.4-2.4v-33.808q0-2.4-2.4-2.4h-7.7425q-2.4 0-2.4 2.4z" clip-path="url(#a)" fill="#fff" stroke="#fff"/>
<g clip-path="url(#a)">
<g transform="translate(1448.7 695.79) rotate(90) scale(.08 -.08)">
<use xlink:href="#l"/>
<use x="44.083984" xlink:href="#f"/>
<use x="105.607422" xlink:href="#i"/>
<use x="144.970703" xlink:href="#k"/>
<use x="242.382812" xlink:href="#j"/>
<use x="270.166016" xlink:href="#e"/>
<use x="333.544922" xlink:href="#d"/>
<use x="394.824219" xlink:href="#g"/>
</g>
</g>
<defs>
<path id="b" d="m0 8.6603c2.2967 0 4.4997-0.9125 6.1237-2.5365 1.624-1.624 2.5365-3.827 2.5365-6.1237s-0.9125-4.4997-2.5365-6.1237c-1.624-1.624-3.827-2.5365-6.1237-2.5365s-4.4997 0.9125-6.1237 2.5365c-1.624 1.624-2.5365 3.827-2.5365 6.1237s0.9125 4.4997 2.5365 6.1237c1.624 1.624 3.827 2.5365 6.1237 2.5365z"/>
</defs>
<g clip-path="url(#a)">
<use x="69.090909" y="763.636364" fill="#ffffff" stroke="#ffffff" xlink:href="#b"/>
</g>
<g clip-path="url(#a)">
<use x="77.499539" y="763.636364" fill="#ffffff" stroke="#ffffff" xlink:href="#b"/>
</g>
<g clip-path="url(#a)">
<use x="88.711046" y="763.636364" fill="#ffffff" stroke="#ffffff" xlink:href="#b"/>
</g>
<g clip-path="url(#a)">
<use x="102.725429" y="763.636364" fill="#ffffff" stroke="#ffffff" xlink:href="#b"/>
</g>
<g clip-path="url(#a)">
<use x="119.542689" y="763.636364" fill="#ffffff" stroke="#ffffff" xlink:href="#b"/>
</g>
<g clip-path="url(#a)">
<use x="139.162825" y="763.636364" fill="#ffffff" stroke="#ffffff" xlink:href="#b"/>
</g>
<g clip-path="url(#a)">
<use x="161.585838" y="763.636364" fill="#ffffff" stroke="#ffffff" xlink:href="#b"/>
</g>
<g clip-path="url(#a)">
<use x="186.811728" y="763.636364" fill="#ffffff" stroke="#ffffff" xlink:href="#b"/>
</g>
<g clip-path="url(#a)">
<use x="214.840494" y="763.636364" fill="#ffffff" stroke="#ffffff" xlink:href="#b"/>
</g>
<g clip-path="url(#a)">
<use x="245.672137" y="763.636364" fill="#ffffff" stroke="#ffffff" xlink:href="#b"/>
</g>
<g clip-path="url(#a)">
<use x="279.306657" y="763.636364" fill="#ffffff" stroke="#ffffff" xlink:href="#b"/>
</g>
<g clip-path="url(#a)">
<use x="315.744053" y="763.636364" fill="#ffffff" stroke="#ffffff" xlink:href="#b"/>
</g>
<g clip-path="url(#a)">
<use x="354.984326" y="763.636364" fill="#ffffff" stroke="#ffffff" xlink:href="#b"/>
</g>
<g clip-path="url(#a)">
<use x="397.027476" y="763.636364" fill="#ffffff" stroke="#ffffff" xlink:href="#b"/>
</g>
<g clip-path="url(#a)">
<use x="441.873502" y="763.636364" fill="#ffffff" stroke="#ffffff" xlink:href="#b"/>
</g>
<g clip-path="url(#a)">
<use x="489.522405" y="763.636364" fill="#ffffff" stroke="#ffffff" xlink:href="#b"/>
</g>
<g clip-path="url(#a)">
<use x="539.974184" y="763.636364" fill="#ffffff" stroke="#ffffff" xlink:href="#b"/>
</g>
<g clip-path="url(#a)">
<use x="593.22884" y="763.636364" fill="#ffffff" stroke="#ffffff" xlink:href="#b"/>
</g>
<g clip-path="url(#a)">
<use x="649.286373" y="763.636364" fill="#ffffff" stroke="#ffffff" xlink:href="#b"/>
</g>
<g clip-path="url(#a)">
<use x="708.146782" y="763.636364" fill="#ffffff" stroke="#ffffff" xlink:href="#b"/>
</g>
<g clip-path="url(#a)">
<use x="769.810068" y="763.636364" fill="#ffffff" stroke="#ffffff" xlink:href="#b"/>
</g>
<g clip-path="url(#a)">
<use x="834.276231" y="763.636364" fill="#ffffff" stroke="#ffffff" xlink:href="#b"/>
</g>
<g clip-path="url(#a)">
<use x="901.54527" y="763.636364" fill="#ffffff" stroke="#ffffff" xlink:href="#b"/>
</g>
<g clip-path="url(#a)">
<use x="971.617186" y="763.636364" fill="#ffffff" stroke="#ffffff" xlink:href="#b"/>
</g>
<g clip-path="url(#a)">
<use x="1044.491979" y="763.636364" fill="#ffffff" stroke="#ffffff" xlink:href="#b"/>
</g>
<g clip-path="url(#a)">
<use x="1120.169648" y="763.636364" fill="#ffffff" stroke="#ffffff" xlink:href="#b"/>
</g>
<g clip-path="url(#a)">
<use x="1198.650194" y="763.636364" fill="#ffffff" stroke="#ffffff" xlink:href="#b"/>
</g>
<g clip-path="url(#a)">
<use x="1279.933616" y="763.636364" fill="#ffffff" stroke="#ffffff" xlink:href="#b"/>
</g>
<g clip-path="url(#a)">
<use x="1364.019915" y="763.636364" fill="#ffffff" stroke="#ffffff" xlink:href="#b"/>
</g>
<g clip-path="url(#a)">
<use x="1450.909091" y="763.636364" fill="#ffffff" stroke="#ffffff" xlink:href="#b"/>
</g>
<g clip-path="url(#a)">
<use x="389.162181" y="36.363636" fill="#ffffff" stroke="#ffffff" xlink:href="#b"/>
</g>
<g clip-path="url(#a)">
<use x="389.162181" y="141.219939" fill="#ffffff" stroke="#ffffff" xlink:href="#b"/>
</g>
<g clip-path="url(#a)">
<use x="114.917942" y="454.577824" fill="#ffffff" stroke="#ffffff" xlink:href="#b"/>
</g>
<g clip-path="url(#a)">
<use x="315.744053" y="661.742441" fill="#ffffff" stroke="#ffffff" xlink:href="#b"/>
</g>
<g clip-path="url(#a)">
<use x="354.984326" y="661.742441" fill="#ffffff" stroke="#ffffff" xlink:href="#b"/>
</g>
<g clip-path="url(#a)">
<use x="441.873502" y="661.742441" fill="#ffffff" stroke="#ffffff" xlink:href="#b"/>
</g>
<g clip-path="url(#a)">
<use x="820.281312" y="245.900815" fill="#ffffff" stroke="#ffffff" xlink:href="#b"/>
</g>
<g clip-path="url(#a)">
<use x="578.280165" y="350.371129" fill="#ffffff" stroke="#ffffff" xlink:href="#b"/>
</g>
<g clip-path="url(#a)">
<use x="802.04315" y="661.742441" fill="#ffffff" stroke="#ffffff" xlink:href="#b"/>
</g>
<g clip-path="url(#a)">
<use x="999.256664" y="350.371129" fill="#ffffff" stroke="#ffffff" xlink:href="#b"/>
</g>
<g clip-path="url(#a)">
<use x="971.617186" y="661.742441" fill="#ffffff" stroke="#ffffff" xlink:href="#b"/>
</g>
<g clip-path="url(#a)">
<use x="1224.109656" y="454.577824" fill="#ffffff" stroke="#ffffff" xlink:href="#b"/>
</g>
<g clip-path="url(#a)">
<use x="1044.491979" y="661.742441" fill="#ffffff" stroke="#ffffff" xlink:href="#b"/>
</g>
<g clip-path="url(#a)">
<use x="1120.169648" y="661.742441" fill="#ffffff" stroke="#ffffff" xlink:href="#b"/>
</g>
<g clip-path="url(#a)">
<use x="1280.867908" y="558.431062" fill="#ffffff" stroke="#ffffff" xlink:href="#b"/>
</g>
<g clip-path="url(#a)">
<use x="489.522405" y="661.742441" fill="#ffffff" stroke="#ffffff" xlink:href="#b"/>
</g>
<g clip-path="url(#a)">
<use x="595.097425" y="454.577824" fill="#ffffff" stroke="#ffffff" xlink:href="#b"/>
</g>
<g clip-path="url(#a)">
<use x="650.220665" y="558.431062" fill="#ffffff" stroke="#ffffff" xlink:href="#b"/>
</g>
<g clip-path="url(#a)">
<use x="593.22884" y="661.742441" fill="#ffffff" stroke="#ffffff" xlink:href="#b"/>
</g>
<g clip-path="url(#a)">
<use x="708.146782" y="661.742441" fill="#ffffff" stroke="#ffffff" xlink:href="#b"/>
</g>
<g clip-path="url(#a)">
<use x="539.974184" y="661.742441" fill="#ffffff" stroke="#ffffff" xlink:href="#b"/>
</g>
<g clip-path="url(#a)">
<use x="73.295224" y="661.742441" fill="#ffffff" stroke="#ffffff" xlink:href="#b"/>
</g>
<g clip-path="url(#a)">
<use x="156.54066" y="558.431062" fill="#ffffff" stroke="#ffffff" xlink:href="#b"/>
</g>
<g clip-path="url(#a)">
<use x="95.718237" y="661.742441" fill="#ffffff" stroke="#ffffff" xlink:href="#b"/>
</g>
<g clip-path="url(#a)">
<use x="150.374332" y="661.742441" fill="#ffffff" stroke="#ffffff" xlink:href="#b"/>
</g>
<g clip-path="url(#a)">
<use x="186.811728" y="661.742441" fill="#ffffff" stroke="#ffffff" xlink:href="#b"/>
</g>
<g clip-path="url(#a)">
<use x="230.256316" y="661.742441" fill="#ffffff" stroke="#ffffff" xlink:href="#b"/>
</g>
<g clip-path="url(#a)">
<use x="119.542689" y="661.742441" fill="#ffffff" stroke="#ffffff" xlink:href="#b"/>
</g>
<g clip-path="url(#a)">
<use x="279.306657" y="661.742441" fill="#ffffff" stroke="#ffffff" xlink:href="#b"/>
</g>
<g clip-path="url(#a)">
<use x="397.027476" y="661.742441" fill="#ffffff" stroke="#ffffff" xlink:href="#b"/>
</g>
<g clip-path="url(#a)">
<use x="649.286373" y="661.742441" fill="#ffffff" stroke="#ffffff" xlink:href="#b"/>
</g>
<g clip-path="url(#a)">
<use x="901.54527" y="661.742441" fill="#ffffff" stroke="#ffffff" xlink:href="#b"/>
</g>
<g clip-path="url(#a)">
<use x="1279.933616" y="661.742441" fill="#ffffff" stroke="#ffffff" xlink:href="#b"/>
</g>
<g clip-path="url(#a)">
<use x="1450.909091" y="661.742441" fill="#ffffff" stroke="#ffffff" xlink:href="#b"/>
</g>
<g clip-path="url(#a)">
<defs>
<path id="u" d="m30.609 48.391q-7.2188 0-11.422-5.6406t-4.2031-15.453 4.1719-15.453q4.1875-5.6406 11.453-5.6406 7.1875 0 11.375 5.6562 4.2031 5.6719 4.2031 15.438 0 9.7188-4.2031 15.406-4.1875 5.6875-11.375 5.6875zm0 7.6094q11.719 0 18.406-7.625 6.7031-7.6094 6.7031-21.078 0-13.422-6.7031-21.078-6.6875-7.6406-18.406-7.6406-11.766 0-18.438 7.6406-6.6562 7.6562-6.6562 21.078 0 13.469 6.6562 21.078 6.6719 7.625 18.438 7.625z"/>
<path id="az" d="m45.406 27.984q0 9.7656-4.0312 15.125-4.0156 5.375-11.297 5.375-7.2188 0-11.25-5.375-4.0312-5.3594-4.0312-15.125 0-9.7188 4.0312-15.094t11.25-5.375q7.2812 0 11.297 5.375 4.0312 5.375 4.0312 15.094zm8.9844-21.203q0-13.953-6.2031-20.766-6.1875-6.8125-18.984-6.8125-4.7344 0-8.9375 0.70312t-8.1562 2.1719v8.7344q3.9531-2.1406 7.8125-3.1562 3.8594-1.0312 7.8594-1.0312 8.8438 0 13.234 4.6094t4.3906 13.938v4.4531q-2.7812-4.8438-7.125-7.2344t-10.406-2.3906q-10.047 0-16.203 7.6562-6.1562 7.6719-6.1562 20.328 0 12.688 6.1562 20.344 6.1562 7.6719 16.203 7.6719 6.0625 0 10.406-2.3906t7.125-7.2188v8.2969h8.9844z"/>
</defs>
<g transform="translate(54.879 766.4) scale(.1 -.1)">
<use xlink:href="#q"/>
<use x="68.408203" xlink:href="#g"/>
<use x="96.191406" xlink:href="#u"/>
<use x="157.373047" xlink:href="#e"/>
<use x="220.751953" xlink:href="#az"/>
</g>
</g>
<g clip-path="url(#a)">
<defs>
<path id="aq" d="m4.2031 54.688h8.9844l11.234-42.672 11.172 42.672h10.594l11.234-42.672 11.188 42.672h8.9844l-14.312-54.688h-10.594l-11.766 44.828-11.812-44.828h-10.609z"/>
<path id="t" d="m18.312 70.219v-15.531h18.5v-6.9844h-18.5v-29.688q0-6.6875 1.8281-8.5938t7.4531-1.9062h9.2188v-7.5156h-9.2188q-10.406 0-14.359 3.875-3.9531 3.8906-3.9531 14.141v29.688h-6.5938v6.9844h6.5938v15.531z"/>
<path id="r" d="m54.891 33.016v-33.016h-8.9844v32.719q0 7.7656-3.0312 11.609-3.0312 3.8594-9.0781 3.8594-7.2812 0-11.484-4.6406-4.2031-4.625-4.2031-12.641v-30.906h-9.0312v75.984h9.0312v-29.797q3.2344 4.9375 7.5938 7.375 4.375 2.4375 10.094 2.4375 9.4219 0 14.25-5.8281 4.8438-5.8281 4.8438-17.156z"/>
</defs>
<g transform="translate(66.893 766.4) scale(.1 -.1)">
<use xlink:href="#aq"/>
<use x="81.787109" xlink:href="#j"/>
<use x="109.570312" xlink:href="#t"/>
<use x="148.779297" xlink:href="#r"/>
</g>
</g>
<g clip-path="url(#a)">
<g transform="translate(76.227 766.4) scale(.1 -.1)">
<use xlink:href="#ab"/>
<use x="63.476562" xlink:href="#f"/>
<use x="125" xlink:href="#d"/>
<use x="186.279297" xlink:href="#e"/>
</g>
</g>
<g clip-path="url(#a)">
<g transform="translate(90.478 766.4) scale(.1 -.1)">
<use xlink:href="#al"/>
<use x="56.677734" xlink:href="#f"/>
<use x="118.201172" xlink:href="#e"/>
<use x="181.580078" xlink:href="#e"/>
</g>
</g>
<g clip-path="url(#a)">
<defs>
<path id="ah" d="m11.719 12.406h10.297v-8.4062l-8-15.625h-6.2969l4 15.625z"/>
</defs>
<g transform="translate(117.95 766.4) scale(.1 -.1)">
<use xlink:href="#ah"/>
</g>
</g>
<g clip-path="url(#a)">
<defs>
<path id="au" d="m9.8125 72.906h9.8594v-67.828q0-13.188-5-19.141t-16.094-5.9531h-3.75v8.2969h3.0781q6.5312 0 9.2188 3.6719 2.6875 3.6562 2.6875 13.125z"/>
</defs>
<g transform="translate(128.29 766.4) scale(.1 -.1)">
<use xlink:href="#au"/>
<use x="29.492188" xlink:href="#u"/>
<use x="90.673828" xlink:href="#r"/>
<use x="154.052734" xlink:href="#e"/>
</g>
</g>
<g clip-path="url(#a)">
<defs>
<path id="ad" d="m9.8125 72.906h14.703l18.594-49.609 18.703 49.609h14.703v-72.906h-9.625v64.016l-18.797-50h-9.9062l-18.797 50v-64.016h-9.5781z"/>
<path id="aj" d="m9.0781 75.984h9.0312v-44.875l26.812 23.578h11.469l-29-25.578 30.234-29.109h-11.719l-27.797 26.703v-26.703h-9.0312z"/>
<path id="ay" d="m2.9844 54.688h9.5156l17.094-45.891 17.094 45.891h9.5156l-20.516-54.688h-12.203z"/>
<path id="s" d="m48.781 52.594v-8.4062q-3.8125 2.1094-7.6406 3.1562t-7.7344 1.0469q-8.75 0-13.594-5.5469-4.8281-5.5312-4.8281-15.547t4.8281-15.562q4.8438-5.5312 13.594-5.5312 3.9062 0 7.7344 1.0469t7.6406 3.1562v-8.3125q-3.7656-1.75-7.7969-2.625-4.0156-0.89062-8.5625-0.89062-12.359 0-19.641 7.7656-7.2656 7.7656-7.2656 20.953 0 13.375 7.3438 21.031 7.3594 7.6719 20.156 7.6719 4.1406 0 8.0938-0.85938 3.9531-0.84375 7.6719-2.5469z"/>
</defs>
<g transform="translate(136.78 766.4) scale(.1 -.1)">
<use xlink:href="#ad"/>
<use x="86.279297" xlink:href="#d"/>
<use x="147.558594" xlink:href="#g"/>
<use x="175.341797" xlink:href="#aj"/>
<use x="229.626953" xlink:href="#u"/>
<use x="290.808594" xlink:href="#ay"/>
<use x="349.988281" xlink:href="#j"/>
<use x="377.771484" xlink:href="#s"/>
<use x="432.751953" xlink:href="#r"/>
</g>
</g>
<g clip-path="url(#a)">
<defs>
<path id="ak" d="m45.406 46.391v29.594h8.9844v-75.984h-8.9844v8.2031q-2.8281-4.875-7.1562-7.25-4.3125-2.375-10.375-2.375-9.9062 0-16.141 7.9062-6.2188 7.9219-6.2188 20.812t6.2188 20.797q6.2344 7.9062 16.141 7.9062 6.0625 0 10.375-2.375 4.3281-2.3594 7.1562-7.2344zm-30.609-19.094q0-9.9062 4.0781-15.547t11.203-5.6406 11.219 5.6406q4.1094 5.6406 4.1094 15.547t-4.1094 15.547q-4.0938 5.6406-11.219 5.6406t-11.203-5.6406-4.0781-15.547z"/>
</defs>
<g transform="translate(177.4 766.4) scale(.1 -.1)">
<use xlink:href="#d"/>
<use x="61.279297" xlink:href="#e"/>
<use x="124.658203" xlink:href="#ak"/>
</g>
</g>
<g clip-path="url(#a)">
<g transform="translate(203.49 766.4) scale(.1 -.1)">
<use xlink:href="#ad"/>
<use x="86.279297" xlink:href="#j"/>
<use x="114.0625" xlink:href="#s"/>
<use x="169.042969" xlink:href="#aj"/>
</g>
</g>
<g clip-path="url(#a)">
<defs>
<path id="ar" d="m8.5 21.578v33.109h8.9844v-32.766q0-7.7656 3.0156-11.656 3.0312-3.875 9.0938-3.875 7.2656 0 11.484 4.6406 4.2344 4.6406 4.2344 12.656v31h8.9844v-54.688h-8.9844v8.4062q-3.2656-4.9844-7.5938-7.4062-4.3125-2.4219-10.031-2.4219-9.4219 0-14.312 5.8594-4.875 5.8594-4.875 17.141z"/>
</defs>
<g transform="translate(224.09 766.4) scale(.1 -.1)">
<use xlink:href="#am"/>
<use x="75.195312" xlink:href="#ar"/>
<use x="138.574219" xlink:href="#s"/>
<use x="193.554688" xlink:href="#aj"/>
<use x="251.464844" xlink:href="#e"/>
<use x="314.84375" xlink:href="#d"/>
<use x="376.123047" xlink:href="#g"/>
<use x="403.90625" xlink:href="#g"/>
</g>
</g>
<g clip-path="url(#a)">
<g transform="translate(277.72 766.4) scale(.1 -.1)">
<use xlink:href="#ah"/>
</g>
</g>
<g clip-path="url(#a)">
<defs>
<path id="ai" d="m18.109 8.2031v-29h-9.0312v75.484h9.0312v-8.2969q2.8438 4.875 7.1562 7.2344 4.3281 2.375 10.328 2.375 9.9688 0 16.188-7.9062 6.2344-7.9062 6.2344-20.797t-6.2344-20.812q-6.2188-7.9062-16.188-7.9062-6 0-10.328 2.375-4.3125 2.375-7.1562 7.25zm30.578 19.094q0 9.9062-4.0781 15.547t-11.203 5.6406q-7.1406 0-11.219-5.6406t-4.0781-15.547 4.0781-15.547 11.219-5.6406q7.125 0 11.203 5.6406t4.0781 15.547z"/>
</defs>
<g transform="translate(302.47 766.4) scale(.1 -.1)">
<use xlink:href="#an"/>
<use x="77.001953" xlink:href="#f"/>
<use x="138.525391" xlink:href="#ai"/>
<use x="202.001953" xlink:href="#ai"/>
</g>
</g>
<g clip-path="url(#a)">
<g transform="translate(349.18 766.4) scale(.1 -.1)">
<use xlink:href="#s"/>
<use x="54.980469" xlink:href="#u"/>
</g>
</g>
<g clip-path="url(#a)">
<defs>
<path id="ag" d="m4.8906 31.391h26.312v-8h-26.312z"/>
</defs>
<g transform="translate(395.22 766.4) scale(.1 -.1)">
<use xlink:href="#ag"/>
</g>
</g>
<g clip-path="url(#a)">
<g transform="translate(425.31 766.4) scale(.1 -.1)">
<use xlink:href="#u"/>
<use x="61.181641" xlink:href="#aq"/>
<use x="142.96875" xlink:href="#e"/>
<use x="206.347656" xlink:href="#f"/>
<use x="267.871094" xlink:href="#ak"/>
</g>
</g>
<g clip-path="url(#a)">
<g transform="translate(481.32 766.4) scale(.1 -.1)">
<use xlink:href="#t"/>
<use x="39.208984" xlink:href="#r"/>
<use x="102.587891" xlink:href="#f"/>
</g>
</g>
<g clip-path="url(#a)">
<defs>
<path id="av" d="m9.8125 72.906h41.891v-8.3125h-32.031v-21.484h28.906v-8.2969h-28.906v-34.812h-9.8594z"/>
</defs>
<g transform="translate(523.35 766.4) scale(.1 -.1)">
<use xlink:href="#av"/>
<use x="50.269531" xlink:href="#i"/>
<use x="89.132812" xlink:href="#f"/>
<use x="150.65625" xlink:href="#e"/>
<use x="214.035156" xlink:href="#s"/>
<use x="269.015625" xlink:href="#r"/>
</g>
</g>
<g clip-path="url(#a)">
<defs>
<path id="aa" d="m44.281 53.078v-8.5q-3.7969 1.9531-7.9062 2.9219-4.0938 0.98438-8.5 0.98438-6.6875 0-10.031-2.0469t-3.3438-6.1562q0-3.125 2.3906-4.9062t9.625-3.3906l3.0781-0.6875q9.5625-2.0469 13.594-5.7812t4.0312-10.422q0-7.625-6.0312-12.078-6.0312-4.4375-16.578-4.4375-4.3906 0-9.1562 0.85938t-10.031 2.5625v9.2812q4.9844-2.5938 9.8125-3.8906 4.8281-1.2812 9.5781-1.2812 6.3438 0 9.75 2.1719 3.4219 2.1719 3.4219 6.125 0 3.6562-2.4688 5.6094-2.4531 1.9531-10.812 3.7656l-3.125 0.73438q-8.3438 1.75-12.062 5.3906-3.7031 3.6406-3.7031 9.9844 0 7.7188 5.4688 11.906 5.4688 4.2031 15.531 4.2031 4.9688 0 9.3594-0.73438 4.4062-0.71875 8.1094-2.1875z"/>
</defs>
<g transform="translate(567.16 766.4) scale(.1 -.1)">
<use xlink:href="#i"/>
<use x="38.863281" xlink:href="#f"/>
<use x="100.386719" xlink:href="#aa"/>
<use x="152.486328" xlink:href="#t"/>
<use x="191.695312" xlink:href="#d"/>
<use x="252.974609" xlink:href="#ar"/>
<use x="316.353516" xlink:href="#i"/>
<use x="357.466797" xlink:href="#d"/>
<use x="418.746094" xlink:href="#e"/>
<use x="482.125" xlink:href="#t"/>
</g>
</g>
<g clip-path="url(#a)">
<g transform="translate(647.48 766.4) scale(.1 -.1)">
<use xlink:href="#ag"/>
</g>
</g>
<g clip-path="url(#a)">
<defs>
<path id="as" d="m48.688 27.297q0 9.9062-4.0781 15.547t-11.203 5.6406q-7.1406 0-11.219-5.6406t-4.0781-15.547 4.0781-15.547 11.219-5.6406q7.125 0 11.203 5.6406t4.0781 15.547zm-30.578 19.094q2.8438 4.875 7.1562 7.2344 4.3281 2.375 10.328 2.375 9.9688 0 16.188-7.9062 6.2344-7.9062 6.2344-20.797t-6.2344-20.812q-6.2188-7.9062-16.188-7.9062-6 0-10.328 2.375-4.3125 2.375-7.1562 7.25v-8.2031h-9.0312v75.984h9.0312z"/>
</defs>
<g transform="translate(699.85 766.4) scale(.1 -.1)">
<use xlink:href="#as"/>
<use x="63.476562" xlink:href="#d"/>
<use x="124.755859" xlink:href="#i"/>
</g>
</g>
<g clip-path="url(#a)">
<g transform="translate(759.26 766.4) scale(.1 -.1)">
<use xlink:href="#ad"/>
<use x="86.279297" xlink:href="#d"/>
<use x="147.558594" xlink:href="#e"/>
</g>
</g>
<g clip-path="url(#a)">
<defs>
<path id="ap" d="m32.172-5.0781q-3.7969-9.7656-7.4219-12.734-3.6094-2.9844-9.6562-2.9844h-7.1875v7.5156h5.2812q3.7031 0 5.75 1.7656 2.0625 1.75 4.5469 8.2969l1.6094 4.0938-22.109 53.812h9.5156l17.094-42.766 17.094 42.766h9.5156z"/>
</defs>
<g transform="translate(824.89 766.4) scale(.1 -.1)">
<use xlink:href="#ac"/>
<use x="67.232422" xlink:href="#d"/>
<use x="128.511719" xlink:href="#ap"/>
</g>
</g>
<g clip-path="url(#a)">
<g transform="translate(899.96 766.4) scale(.1 -.1)">
<use xlink:href="#ah"/>
</g>
</g>
<g clip-path="url(#a)">
<g transform="translate(953.14 766.4) scale(.1 -.1)">
<use xlink:href="#g"/>
<use x="27.783203" xlink:href="#u"/>
<use x="88.964844" xlink:href="#s"/>
<use x="143.945312" xlink:href="#d"/>
<use x="205.224609" xlink:href="#t"/>
<use x="244.433594" xlink:href="#f"/>
<use x="305.957031" xlink:href="#ak"/>
</g>
</g>
<g clip-path="url(#a)">
<g transform="translate(1033.1 766.4) scale(.1 -.1)">
<use xlink:href="#e"/>
<use x="63.378906" xlink:href="#f"/>
<use x="124.902344" xlink:href="#d"/>
<use x="186.181641" xlink:href="#i"/>
</g>
</g>
<g clip-path="url(#a)">
<g transform="translate(1112 766.4) scale(.1 -.1)">
<use xlink:href="#t"/>
<use x="39.208984" xlink:href="#r"/>
<use x="102.587891" xlink:href="#f"/>
</g>
</g>
<g clip-path="url(#a)">
<g transform="translate(1178.3 766.4) scale(.1 -.1)">
<use xlink:href="#o"/>
<use x="69.824219" xlink:href="#r"/>
<use x="133.203125" xlink:href="#d"/>
<use x="194.482422" xlink:href="#k"/>
<use x="291.894531" xlink:href="#ai"/>
<use x="355.371094" xlink:href="#aa"/>
</g>
</g>
<g clip-path="url(#a)">
<g transform="translate(1278.1 766.4) scale(.1 -.1)">
<use xlink:href="#ag"/>
</g>
</g>
<g clip-path="url(#a)">
<defs>
<path id="ax" d="m9.8125 72.906h46.094v-8.3125h-36.234v-21.578h34.719v-8.2969h-34.719v-26.422h37.109v-8.2969h-46.969zm25.625 19.609h9.0312l-11.125-12.891h-7.4844z"/>
<path id="aw" d="m56.203 29.594v-4.3906h-41.312q0.59375-9.2812 5.5938-14.141t13.938-4.8594q5.1719 0 10.031 1.2656t9.6562 3.8125v-8.5q-4.8438-2.0469-9.9219-3.125t-10.297-1.0781q-13.094 0-20.734 7.6094-7.6406 7.625-7.6406 20.625 0 13.422 7.25 21.297 7.25 7.8906 19.562 7.8906 11.031 0 17.453-7.1094 6.4219-7.0938 6.4219-19.297zm-8.9844 2.6406q-0.09375 7.3594-4.125 11.75-4.0312 4.4062-10.672 4.4062-7.5156 0-12.031-4.25t-5.2031-11.969zm-8.6875 47.75h9.7188l-15.906-18.359h-7.4844z"/>
</defs>
<g transform="translate(1345.1 767.22) scale(.1 -.1)">
<use xlink:href="#ax"/>
<use x="63.183594" xlink:href="#g"/>
<use x="90.966797" xlink:href="#ap"/>
<use x="150.146484" xlink:href="#aa"/>
<use x="202.246094" xlink:href="#aw"/>
<use x="263.769531" xlink:href="#f"/>
<use x="325.292969" xlink:href="#aa"/>
</g>
</g>
<g clip-path="url(#a)">
<defs>
<path id="h" d="m10.688 12.406h10.312v-12.406h-10.312z"/>
</defs>
<g transform="translate(1449.3 766.4) scale(.1 -.1)">
<use xlink:href="#h"/>
</g>
</g>
<g clip-path="url(#a)">
<defs>
<path id="c" d="m12.406 8.2969h16.109v55.625l-17.531-3.5156v8.9844l17.438 3.5156h9.8594v-64.609h16.109v-8.2969h-41.984z"/>
</defs>
<g transform="translate(381.21 39.123) scale(.1 -.1)">
<use xlink:href="#c"/>
<use x="63.623047" xlink:href="#h"/>
<use x="95.410156" xlink:href="#c"/>
</g>
</g>
<g clip-path="url(#a)">
<defs>
<path id="n" d="m19.188 8.2969h34.422v-8.2969h-46.281v8.2969q5.6094 5.8125 15.297 15.594 9.7031 9.7969 12.188 12.641 4.7344 5.3125 6.6094 9 1.8906 3.6875 1.8906 7.25 0 5.8125-4.0781 9.4688-4.0781 3.6719-10.625 3.6719-4.6406 0-9.7969-1.6094-5.1406-1.6094-11-4.8906v9.9688q5.9531 2.3906 11.125 3.6094 5.1875 1.2188 9.4844 1.2188 11.328 0 18.062-5.6719 6.7344-5.6562 6.7344-15.125 0-4.5-1.6875-8.5312-1.6719-4.0156-6.125-9.4844-1.2188-1.4219-7.7656-8.1875-6.5312-6.7656-18.453-18.922z"/>
</defs>
<g transform="translate(381.21 143.98) scale(.1 -.1)">
<use xlink:href="#c"/>
<use x="63.623047" xlink:href="#h"/>
<use x="95.410156" xlink:href="#n"/>
</g>
</g>
<g clip-path="url(#a)">
<defs>
<path id="z" d="m37.797 64.312-24.906-38.922h24.906zm-2.5938 8.5938h12.406v-47.516h10.406v-8.2031h-10.406v-17.188h-9.8125v17.188h-32.906v9.5156z"/>
</defs>
<g transform="translate(106.97 457.34) scale(.1 -.1)">
<use xlink:href="#c"/>
<use x="63.623047" xlink:href="#h"/>
<use x="95.410156" xlink:href="#z"/>
</g>
</g>
<g clip-path="url(#a)">
<defs>
<path id="y" d="m10.797 72.906h38.719v-8.3125h-29.688v-17.859q2.1406 0.73438 4.2812 1.0938 2.1562 0.35938 4.3125 0.35938 12.203 0 19.328-6.6875 7.1406-6.6875 7.1406-18.109 0-11.766-7.3281-18.297-7.3281-6.5156-20.656-6.5156-4.5938 0-9.3594 0.78125-4.75 0.78125-9.8281 2.3438v9.9219q4.3906-2.3906 9.0781-3.5625t9.9062-1.1719q8.4531 0 13.375 4.4375 4.9375 4.4375 4.9375 12.062 0 7.6094-4.9375 12.047-4.9219 4.4531-13.375 4.4531-3.9531 0-7.8906-0.875-3.9219-0.875-8.0156-2.7344z"/>
</defs>
<g transform="translate(307.79 664.5) scale(.1 -.1)">
<use xlink:href="#c"/>
<use x="63.623047" xlink:href="#h"/>
<use x="95.410156" xlink:href="#y"/>
</g>
</g>
<g clip-path="url(#a)">
<defs>
<path id="af" d="m33.016 40.375q-6.6406 0-10.531-4.5469-3.875-4.5312-3.875-12.438 0-7.8594 3.875-12.438 3.8906-4.5625 10.531-4.5625t10.516 4.5625q3.875 4.5781 3.875 12.438 0 7.9062-3.875 12.438-3.875 4.5469-10.516 4.5469zm19.578 30.922v-8.9844q-3.7188 1.75-7.5 2.6719-3.7812 0.9375-7.5 0.9375-9.7656 0-14.922-6.5938-5.1406-6.5938-5.875-19.922 2.875 4.25 7.2188 6.5156 4.3594 2.2656 9.5781 2.2656 10.984 0 17.359-6.6719 6.375-6.6562 6.375-18.125 0-11.234-6.6406-18.031-6.6406-6.7812-17.672-6.7812-12.656 0-19.344 9.6875-6.6875 9.7031-6.6875 28.109 0 17.281 8.2031 27.562t22.016 10.281q3.7188 0 7.5-0.73438t7.8906-2.1875z"/>
</defs>
<g transform="translate(347.03 664.5) scale(.1 -.1)">
<use xlink:href="#c"/>
<use x="63.623047" xlink:href="#h"/>
<use x="95.410156" xlink:href="#af"/>
</g>
</g>
<g clip-path="url(#a)">
<defs>
<path id="x" d="m8.2031 72.906h46.875v-4.2031l-26.469-68.703h-10.297l24.906 64.594h-35.016z"/>
</defs>
<g transform="translate(433.92 664.5) scale(.1 -.1)">
<use xlink:href="#c"/>
<use x="63.623047" xlink:href="#h"/>
<use x="95.410156" xlink:href="#x"/>
</g>
</g>
<g clip-path="url(#a)">
<defs>
<path id="w" d="m31.781 34.625q-7.0312 0-11.062-3.7656-4.0156-3.7656-4.0156-10.344 0-6.5938 4.0156-10.359 4.0312-3.7656 11.062-3.7656t11.078 3.7812q4.0625 3.7969 4.0625 10.344 0 6.5781-4.0312 10.344-4.0156 3.7656-11.109 3.7656zm-9.8594 4.1875q-6.3438 1.5625-9.8906 5.9062-3.5312 4.3594-3.5312 10.609 0 8.7344 6.2188 13.812 6.2344 5.0781 17.062 5.0781 10.891 0 17.094-5.0781t6.2031-13.812q0-6.25-3.5469-10.609-3.5312-4.3438-9.8281-5.9062 7.125-1.6562 11.094-6.5 3.9844-4.8281 3.9844-11.797 0-10.609-6.4688-16.281-6.4688-5.6562-18.531-5.6562-12.047 0-18.531 5.6562-6.4688 5.6719-6.4688 16.281 0 6.9688 4 11.797 4.0156 4.8438 11.141 6.5zm-3.6094 15.578q0-5.6562 3.5312-8.8281 3.5469-3.1719 9.9375-3.1719 6.3594 0 9.9375 3.1719 3.5938 3.1719 3.5938 8.8281 0 5.6719-3.5938 8.8438-3.5781 3.1719-9.9375 3.1719-6.3906 0-9.9375-3.1719-3.5312-3.1719-3.5312-8.8438z"/>
</defs>
<g transform="translate(812.33 248.66) scale(.1 -.1)">
<use xlink:href="#c"/>
<use x="63.623047" xlink:href="#h"/>
<use x="95.410156" xlink:href="#w"/>
</g>
</g>
<g clip-path="url(#a)">
<g transform="translate(567.15 353.13) scale(.1 -.1)">
<use xlink:href="#c"/>
<use x="63.623047" xlink:href="#h"/>
<use x="95.410156" xlink:href="#c"/>
<use x="159.033203" xlink:href="#c"/>
</g>
</g>
<g clip-path="url(#a)">
<g transform="translate(790.91 664.5) scale(.1 -.1)">
<use xlink:href="#c"/>
<use x="63.623047" xlink:href="#h"/>
<use x="95.410156" xlink:href="#c"/>
<use x="159.033203" xlink:href="#n"/>
</g>
</g>
<g clip-path="url(#a)">
<defs>
<path id="m" d="m40.578 39.312q7.0781-1.5156 11.047-6.3125 3.9844-4.7812 3.9844-11.812 0-10.781-7.4219-16.703-7.4219-5.9062-21.094-5.9062-4.5781 0-9.4375 0.90625t-10.031 2.7188v9.5156q4.0938-2.3906 8.9688-3.6094 4.8906-1.2188 10.219-1.2188 9.2656 0 14.125 3.6562t4.8594 10.641q0 6.4531-4.5156 10.078-4.5156 3.6406-12.562 3.6406h-8.5v8.1094h8.8906q7.2656 0 11.125 2.9062t3.8594 8.375q0 5.6094-3.9844 8.6094-3.9688 3.0156-11.391 3.0156-4.0625 0-8.7031-0.89062-4.6406-0.875-10.203-2.7188v8.7812q5.625 1.5625 10.531 2.3438t9.25 0.78125q11.234 0 17.766-5.1094 6.5469-5.0938 6.5469-13.781 0-6.0625-3.4688-10.234t-9.8594-5.7812z"/>
</defs>
<g transform="translate(988.12 353.13) scale(.1 -.1)">
<use xlink:href="#c"/>
<use x="63.623047" xlink:href="#h"/>
<use x="95.410156" xlink:href="#c"/>
<use x="159.033203" xlink:href="#m"/>
</g>
</g>
<g clip-path="url(#a)">
<g transform="translate(960.48 664.5) scale(.1 -.1)">
<use xlink:href="#c"/>
<use x="63.623047" xlink:href="#h"/>
<use x="95.410156" xlink:href="#c"/>
<use x="159.033203" xlink:href="#y"/>
</g>
</g>
<g clip-path="url(#a)">
<g transform="translate(1213 457.34) scale(.1 -.1)">
<use xlink:href="#c"/>
<use x="63.623047" xlink:href="#h"/>
<use x="95.410156" xlink:href="#c"/>
<use x="159.033203" xlink:href="#af"/>
</g>
</g>
<g clip-path="url(#a)">
<g transform="translate(1033.4 664.5) scale(.1 -.1)">
<use xlink:href="#c"/>
<use x="63.623047" xlink:href="#h"/>
<use x="95.410156" xlink:href="#c"/>
<use x="159.033203" xlink:href="#x"/>
</g>
</g>
<g clip-path="url(#a)">
<g transform="translate(1109 664.5) scale(.1 -.1)">
<use xlink:href="#c"/>
<use x="63.623047" xlink:href="#h"/>
<use x="95.410156" xlink:href="#c"/>
<use x="159.033203" xlink:href="#w"/>
</g>
</g>
<g clip-path="url(#a)">
<defs>
<path id="ae" d="m10.984 1.5156v8.9844q3.7188-1.7656 7.5156-2.6875 3.8125-0.92188 7.4844-0.92188 9.7656 0 14.906 6.5625 5.1562 6.5625 5.8906 19.953-2.8281-4.2031-7.1875-6.4531-4.3438-2.25-9.6094-2.25-10.938 0-17.312 6.6094-6.375 6.625-6.375 18.109 0 11.219 6.6406 18 6.6406 6.7969 17.672 6.7969 12.656 0 19.312-9.7031 6.6719-9.6875 6.6719-28.141 0-17.234-8.1875-27.516-8.1719-10.281-21.984-10.281-3.7188 0-7.5312 0.73438-3.7969 0.73438-7.9062 2.2031zm19.625 30.906q6.6406 0 10.516 4.5312 3.8906 4.5469 3.8906 12.469 0 7.8594-3.8906 12.422-3.875 4.5625-10.516 4.5625t-10.516-4.5625-3.875-12.422q0-7.9219 3.875-12.469 3.875-4.5312 10.516-4.5312z"/>
</defs>
<g transform="translate(1269.7 561.19) scale(.1 -.1)">
<use xlink:href="#c"/>
<use x="63.623047" xlink:href="#h"/>
<use x="95.410156" xlink:href="#c"/>
<use x="159.033203" xlink:href="#ae"/>
</g>
</g>
<g clip-path="url(#a)">
<g transform="translate(478.39 664.5) scale(.1 -.1)">
<use xlink:href="#c"/>
<use x="63.623047" xlink:href="#h"/>
<use x="95.410156" xlink:href="#n"/>
<use x="159.033203" xlink:href="#c"/>
</g>
</g>
<g clip-path="url(#a)">
<g transform="translate(583.96 457.34) scale(.1 -.1)">
<use xlink:href="#c"/>
<use x="63.623047" xlink:href="#h"/>
<use x="95.410156" xlink:href="#n"/>
<use x="159.033203" xlink:href="#n"/>
</g>
</g>
<g clip-path="url(#a)">
<g transform="translate(639.09 561.19) scale(.1 -.1)">
<use xlink:href="#c"/>
<use x="63.623047" xlink:href="#h"/>
<use x="95.410156" xlink:href="#n"/>
<use x="159.033203" xlink:href="#m"/>
</g>
</g>
<g clip-path="url(#a)">
<g transform="translate(582.1 664.5) scale(.1 -.1)">
<use xlink:href="#c"/>
<use x="63.623047" xlink:href="#h"/>
<use x="95.410156" xlink:href="#n"/>
<use x="159.033203" xlink:href="#z"/>
</g>
</g>
<g clip-path="url(#a)">
<g transform="translate(697.01 664.5) scale(.1 -.1)">
<use xlink:href="#c"/>
<use x="63.623047" xlink:href="#h"/>
<use x="95.410156" xlink:href="#n"/>
<use x="159.033203" xlink:href="#y"/>
</g>
</g>
<g clip-path="url(#a)">
<g transform="translate(528.84 664.5) scale(.1 -.1)">
<use xlink:href="#c"/>
<use x="63.623047" xlink:href="#h"/>
<use x="95.410156" xlink:href="#n"/>
<use x="159.033203" xlink:href="#x"/>
</g>
</g>
<g clip-path="url(#a)">
<g transform="translate(62.162 664.5) scale(.1 -.1)">
<use xlink:href="#c"/>
<use x="63.623047" xlink:href="#h"/>
<use x="95.410156" xlink:href="#n"/>
<use x="159.033203" xlink:href="#w"/>
</g>
</g>
<g clip-path="url(#a)">
<g transform="translate(145.41 561.19) scale(.1 -.1)">
<use xlink:href="#c"/>
<use x="63.623047" xlink:href="#h"/>
<use x="95.410156" xlink:href="#n"/>
<use x="159.033203" xlink:href="#ae"/>
</g>
</g>
<g clip-path="url(#a)">
<defs>
<path id="ao" d="m31.781 66.406q-7.6094 0-11.453-7.5-3.8281-7.4844-3.8281-22.531 0-14.984 3.8281-22.484 3.8438-7.5 11.453-7.5 7.6719 0 11.5 7.5 3.8438 7.5 3.8438 22.484 0 15.047-3.8438 22.531-3.8281 7.5-11.5 7.5zm0 7.8125q12.266 0 18.734-9.7031 6.4688-9.6875 6.4688-28.141 0-18.406-6.4688-28.109-6.4688-9.6875-18.734-9.6875-12.25 0-18.719 9.6875-6.4688 9.7031-6.4688 28.109 0 18.453 6.4688 28.141 6.4688 9.7031 18.719 9.7031z"/>
</defs>
<g transform="translate(84.585 664.5) scale(.1 -.1)">
<use xlink:href="#c"/>
<use x="63.623047" xlink:href="#h"/>
<use x="95.410156" xlink:href="#m"/>
<use x="159.033203" xlink:href="#ao"/>
</g>
</g>
<g clip-path="url(#a)">
<g transform="translate(139.24 664.5) scale(.1 -.1)">
<use xlink:href="#c"/>
<use x="63.623047" xlink:href="#h"/>
<use x="95.410156" xlink:href="#m"/>
<use x="159.033203" xlink:href="#c"/>
</g>
</g>
<g clip-path="url(#a)">
<g transform="translate(175.68 664.5) scale(.1 -.1)">
<use xlink:href="#c"/>
<use x="63.623047" xlink:href="#h"/>
<use x="95.410156" xlink:href="#m"/>
<use x="159.033203" xlink:href="#n"/>
</g>
</g>
<g clip-path="url(#a)">
<g transform="translate(219.12 664.5) scale(.1 -.1)">
<use xlink:href="#c"/>
<use x="63.623047" xlink:href="#h"/>
<use x="95.410156" xlink:href="#m"/>
<use x="159.033203" xlink:href="#m"/>
</g>
</g>
<g clip-path="url(#a)">
<g transform="translate(108.41 664.5) scale(.1 -.1)">
<use xlink:href="#c"/>
<use x="63.623047" xlink:href="#h"/>
<use x="95.410156" xlink:href="#m"/>
<use x="159.033203" xlink:href="#z"/>
</g>
</g>
<g clip-path="url(#a)">
<g transform="translate(268.17 664.5) scale(.1 -.1)">
<use xlink:href="#c"/>
<use x="63.623047" xlink:href="#h"/>
<use x="95.410156" xlink:href="#m"/>
<use x="159.033203" xlink:href="#y"/>
</g>
</g>
<g clip-path="url(#a)">
<g transform="translate(385.89 664.5) scale(.1 -.1)">
<use xlink:href="#c"/>
<use x="63.623047" xlink:href="#h"/>
<use x="95.410156" xlink:href="#m"/>
<use x="159.033203" xlink:href="#af"/>
</g>
</g>
<g clip-path="url(#a)">
<g transform="translate(638.15 664.5) scale(.1 -.1)">
<use xlink:href="#c"/>
<use x="63.623047" xlink:href="#h"/>
<use x="95.410156" xlink:href="#m"/>
<use x="159.033203" xlink:href="#x"/>
</g>
</g>
<g clip-path="url(#a)">
<g transform="translate(890.41 664.5) scale(.1 -.1)">
<use xlink:href="#c"/>
<use x="63.623047" xlink:href="#h"/>
<use x="95.410156" xlink:href="#m"/>
<use x="159.033203" xlink:href="#w"/>
</g>
</g>
<g clip-path="url(#a)">
<g transform="translate(1268.8 664.5) scale(.1 -.1)">
<use xlink:href="#c"/>
<use x="63.623047" xlink:href="#h"/>
<use x="95.410156" xlink:href="#m"/>
<use x="159.033203" xlink:href="#ae"/>
</g>
</g>
<g clip-path="url(#a)">
<g transform="translate(1439.8 664.5) scale(.1 -.1)">
<use xlink:href="#c"/>
<use x="63.623047" xlink:href="#h"/>
<use x="95.410156" xlink:href="#z"/>
<use x="159.033203" xlink:href="#ao"/>
</g>
</g>
<defs>
<clipPath id="a">
<rect width="1520" height="800"/>
</clipPath>
</defs>
</svg>
