<?xml version="1.0" encoding="UTF-8"?>
<!DOCTYPE svg  PUBLIC '-//W3C//DTD SVG 1.1//EN'  'http://www.w3.org/Graphics/SVG/1.1/DTD/svg11.dtd'>
<svg width="1874.7pt" height="986.67pt" version="1.1" viewBox="0 0 1874.7 986.67" xmlns="http://www.w3.org/2000/svg" xmlns:xlink="http://www.w3.org/1999/xlink">
<defs>
<style type="text/css">*{stroke-linecap:butt;stroke-linejoin:round;}</style>
</defs>
<path d="m0 986.67h1874.7v-986.67h-1874.7z" fill="#fff"/>
<g fill="none" stroke="#000">
<path d="m569.16 44.848-398.92 451.58" clip-path="url(#a)"/>
<path d="m569.16 44.848-214.13 750.13" clip-path="url(#a)"/>
<path d="m569.16 44.848-23.875 601.25" clip-path="url(#a)"/>
<path d="m569.16 44.848 258.63 750.13" clip-path="url(#a)"/>
<path d="m569.16 44.848 426.05 150.86" clip-path="url(#a)"/>
<path d="m569.16 44.848-248.72 750.13" clip-path="url(#a)"/>
<path d="m569.16 44.848 200.97 750.13" clip-path="url(#a)"/>
<path d="m170.24 496.43-81.569 149.66" clip-path="url(#a)"/>
<path d="m170.24 496.43-57.355 298.55" clip-path="url(#a)"/>
<path d="m170.24 496.43-43.518 298.55" clip-path="url(#a)"/>
<path d="m170.24 496.43-27.375 298.55" clip-path="url(#a)"/>
<path d="m170.24 496.43 12.598 149.66" clip-path="url(#a)"/>
<path d="m170.24 496.43 87.933 298.55" clip-path="url(#a)"/>
<path d="m170.24 496.43 117.91 298.55" clip-path="url(#a)"/>
<path d="m170.24 496.43-68.885 298.55" clip-path="url(#a)"/>
<path d="m170.24 496.43 60.259 298.55" clip-path="url(#a)"/>
<path d="m355.03 794.98v146.84" clip-path="url(#a)"/>
<path d="m545.29 646.1-153.36 148.88" clip-path="url(#a)"/>
<path d="m545.29 646.1-114.15 148.88" clip-path="url(#a)"/>
<path d="m545.29 646.1-72.644 148.88" clip-path="url(#a)"/>
<path d="m545.29 646.1-28.827 148.88" clip-path="url(#a)"/>
<path d="m545.29 646.1 17.296 148.88" clip-path="url(#a)"/>
<path d="m545.29 646.1 65.725 148.88" clip-path="url(#a)"/>
<path d="m545.29 646.1 116.46 148.88" clip-path="url(#a)"/>
<path d="m545.29 646.1 169.5 148.88" clip-path="url(#a)"/>
<path d="m827.79 794.98v146.84" clip-path="url(#a)"/>
<path d="m995.22 195.7-107.47 599.27" clip-path="url(#a)"/>
<path d="m995.22 195.7-45.2 599.27" clip-path="url(#a)"/>
<path d="m995.22 195.7 152.67 150.55" clip-path="url(#a)"/>
<path d="m887.75 794.98v146.84" clip-path="url(#a)"/>
<path d="m950.02 794.98v146.84" clip-path="url(#a)"/>
<path d="m1147.9 346.26 641.57 150.17" clip-path="url(#a)"/>
<path d="m1147.9 346.26-133.3 448.72" clip-path="url(#a)"/>
<path d="m1147.9 346.26-66.417 448.72" clip-path="url(#a)"/>
<path d="m1147.9 346.26 199.71 150.17" clip-path="url(#a)"/>
<path d="m1014.6 794.98v146.84" clip-path="url(#a)"/>
<path d="m1081.5 794.98v146.84" clip-path="url(#a)"/>
<path d="m1347.6 496.43-196.94 298.55" clip-path="url(#a)"/>
<path d="m1347.6 496.43-125.45 298.55" clip-path="url(#a)"/>
<path d="m1347.6 496.43-51.658 298.55" clip-path="url(#a)"/>
<path d="m1347.6 496.43 63.65 149.66" clip-path="url(#a)"/>
<path d="m1347.6 496.43 310.41 149.66" clip-path="url(#a)"/>
<path d="m1150.7 794.98v146.84" clip-path="url(#a)"/>
<path d="m1222.1 794.98v146.84" clip-path="url(#a)"/>
<path d="m1295.9 794.98v146.84" clip-path="url(#a)"/>
<path d="m1411.2 646.1-39.204 148.88" clip-path="url(#a)"/>
<path d="m1411.2 646.1 39.204 148.88" clip-path="url(#a)"/>
<path d="m1658 646.1-126.84 148.88" clip-path="url(#a)"/>
<path d="m1658 646.1-43.817 148.88" clip-path="url(#a)"/>
<path d="m1658 646.1 41.511 148.88" clip-path="url(#a)"/>
<path d="m1658 646.1 129.14 148.88" clip-path="url(#a)"/>
<path d="m1531.2 794.98v146.84" clip-path="url(#a)"/>
<path d="m1614.2 794.98v146.84" clip-path="url(#a)"/>
<path d="m1699.5 794.98v146.84" clip-path="url(#a)"/>
<path d="m1372 794.98v146.84" clip-path="url(#a)"/>
<path d="m1450.5 794.98v146.84" clip-path="url(#a)"/>
<path d="m391.93 794.98v146.84" clip-path="url(#a)"/>
<path d="m431.13 794.98v146.84" clip-path="url(#a)"/>
<path d="m472.64 794.98v146.84" clip-path="url(#a)"/>
<path d="m516.46 794.98v146.84" clip-path="url(#a)"/>
<path d="m562.58 794.98v146.84" clip-path="url(#a)"/>
<path d="m611.01 794.98v146.84" clip-path="url(#a)"/>
<path d="m661.75 794.98v146.84" clip-path="url(#a)"/>
<path d="m714.79 794.98v146.84" clip-path="url(#a)"/>
<path d="m88.671 646.1-3.4592 148.88" clip-path="url(#a)"/>
<path d="m88.671 646.1 3.4592 148.88" clip-path="url(#a)"/>
<path d="m112.89 794.98v146.84" clip-path="url(#a)"/>
<path d="m126.72 794.98v146.84" clip-path="url(#a)"/>
<path d="m142.87 794.98v146.84" clip-path="url(#a)"/>
<path d="m182.84 646.1-21.524 295.72" clip-path="url(#a)"/>
<path d="m182.84 646.1 22.293 295.72" clip-path="url(#a)"/>
<path d="m182.84 646.1-0.76872 148.88" clip-path="url(#a)"/>
<path d="m258.17 794.98v146.84" clip-path="url(#a)"/>
<path d="m288.15 794.98v146.84" clip-path="url(#a)"/>
<path d="m101.36 794.98v146.84" clip-path="url(#a)"/>
<path d="m182.07 794.98v146.84" clip-path="url(#a)"/>
<path d="m230.5 794.98v146.84" clip-path="url(#a)"/>
<path d="m85.212 794.98v146.84" clip-path="url(#a)"/>
<path d="m92.131 794.98v146.84" clip-path="url(#a)"/>
<path d="m320.44 794.98v146.84" clip-path="url(#a)"/>
<path d="m770.14 794.98v146.84" clip-path="url(#a)"/>
<path d="m1787.1 794.98v146.84" clip-path="url(#a)"/>
</g>
<path d="m372.41 277.05 3.9831-4.5089q1.5889-1.7987-0.20975-3.3876l-5.8026-5.126q-1.7987-1.5889-3.3876 0.20975l-3.9831 4.5089q-1.5889 1.7987 0.20975 3.3876l5.8026 5.126q1.7987 1.5889 3.3876-0.20975z" clip-path="url(#a)" fill="#fff" stroke="#fff"/>
<g clip-path="url(#a)">
<defs>
<path id="an" d="m9.8125 72.906h9.8594v-29.891h35.844v29.891h9.8594v-72.906h-9.8594v34.719h-35.844v-34.719h-9.8594z"/>
</defs>
<g transform="translate(369.37 274.36) rotate(-48.543) scale(.08 -.08)">
<use xlink:href="#an"/>
</g>
</g>
<path d="m467.52 423.78 1.2236-4.2863q0.65879-2.3078-1.649-2.9666l-7.4451-2.1253q-2.3078-0.65879-2.9666 1.649l-1.2236 4.2863q-0.65879 2.3078 1.649 2.9666l7.4451 2.1253q2.3078 0.65879 2.9666-1.649z" clip-path="url(#a)" fill="#fff" stroke="#fff"/>
<g clip-path="url(#a)">
<defs>
<path id="am" d="m9.8125 72.906h9.8594v-64.609h35.5v-8.2969h-45.359z"/>
</defs>
<g transform="translate(463.61 422.66) rotate(-74.068) scale(.08 -.08)">
<use xlink:href="#am"/>
</g>
</g>
<path d="m563.37 348.73 0.23872-6.0115q0.095228-2.3981-2.3029-2.4933l-7.7364-0.30721q-2.3981-0.095229-2.4933 2.3029l-0.23872 6.0115q-0.095228 2.3981 2.3029 2.4933l7.7364 0.30721q2.3981 0.095229 2.4933-2.3029z" clip-path="url(#a)" fill="#fff" stroke="#fff"/>
<g clip-path="url(#a)">
<g transform="translate(559.31 348.57) rotate(-87.726) scale(.08 -.08)">
<use xlink:href="#an"/>
</g>
</g>
<path d="m691.82 419.85 1.4529 4.2141q0.78228 2.2689 3.0512 1.4867l7.3197-2.5237q2.2689-0.78228 1.4867-3.0512l-1.4529-4.2141q-0.78228-2.2689-3.0512-1.4867l-7.3197 2.5237q-2.2689 0.78228-1.4867 3.0512z" clip-path="url(#a)" fill="#fff" stroke="#fff"/>
<g clip-path="url(#a)">
<g transform="translate(695.66 418.53) rotate(70.977) scale(.08 -.08)">
<use xlink:href="#am"/>
</g>
</g>
<path d="m777.26 125.18 5.6712 2.0081q2.2624 0.80106 3.0634-1.4613l2.5842-7.2985q0.80106-2.2624-1.4613-3.0634l-5.6712-2.0081q-2.2624-0.80106-3.0634 1.4613l-2.5842 7.2985q-0.80106 2.2624 1.4613 3.0634z" clip-path="url(#a)" fill="#fff" stroke="#fff"/>
<g clip-path="url(#a)">
<g transform="translate(778.62 121.35) rotate(19.498) scale(.08 -.08)">
<use xlink:href="#an"/>
</g>
</g>
<path d="m449.83 424.67 1.8427-5.5575q0.75534-2.278-1.5227-3.0334l-7.349-2.4368q-2.278-0.75534-3.0334 1.5227l-1.8427 5.5575q-0.75534 2.278 1.5227 3.0334l7.349 2.4368q2.278 0.75534 3.0334-1.5227z" clip-path="url(#a)" fill="#fff" stroke="#fff"/>
<g clip-path="url(#a)">
<defs>
<path id="s" d="m8.6875 72.906h9.9219v-44.297q0-11.719 4.2344-16.875 4.25-5.1406 13.781-5.1406 9.4688 0 13.719 5.1406 4.25 5.1562 4.25 16.875v44.297h9.9062v-45.516q0-14.25-7.0625-21.531-7.0469-7.2812-20.812-7.2812-13.828 0-20.891 7.2812-7.0469 7.2812-7.0469 21.531z"/>
</defs>
<g transform="translate(445.98 423.39) rotate(-71.656) scale(.08 -.08)">
<use xlink:href="#s"/>
</g>
</g>
<path d="m662.84 418.71 1.5152 5.6555q0.6211 2.3182 2.9393 1.6971l7.4787-2.0037q2.3182-0.6211 1.6971-2.9393l-1.5152-5.6555q-0.6211-2.3182-2.9393-1.6971l-7.4787 2.0037q-2.3182 0.6211-1.6971 2.9393z" clip-path="url(#a)" fill="#fff" stroke="#fff"/>
<g clip-path="url(#a)">
<g transform="translate(666.76 417.66) rotate(75.002) scale(.08 -.08)">
<use xlink:href="#s"/>
</g>
</g>
<path d="m133.79 576.41 2.3383-4.2904q1.1485-2.1073-0.9588-3.2559l-6.7984-3.7052q-2.1073-1.1485-3.2559 0.9588l-2.3383 4.2904q-1.1485 2.1073 0.9588 3.2559l6.7984 3.7052q2.1073 1.1485 3.2559-0.9588z" clip-path="url(#a)" fill="#fff" stroke="#fff"/>
<g clip-path="url(#a)">
<defs>
<path id="k" d="m-0.29688 72.906h61.672v-8.3125h-25.875v-64.594h-9.9062v64.594h-25.891z"/>
</defs>
<g transform="translate(130.23 574.46) rotate(-61.409) scale(.08 -.08)">
<use xlink:href="#k"/>
</g>
</g>
<path d="m147.21 649.57 1.0325-5.3742q0.45279-2.3569-1.9041-2.8097l-7.6035-1.4607q-2.3569-0.45279-2.8097 1.9041l-1.0325 5.3742q-0.45279 2.3569 1.9041 2.8097l7.6035 1.4607q2.3569 0.45279 2.8097-1.9041z" clip-path="url(#a)" fill="#fff" stroke="#fff"/>
<g clip-path="url(#a)">
<defs>
<path id="p" d="m34.188 63.188-13.391-36.281h26.812zm-5.5781 9.7188h11.188l27.781-72.906h-10.25l-6.6406 18.703h-32.859l-6.6406-18.703h-10.406z"/>
</defs>
<g transform="translate(143.21 648.81) rotate(-79.125) scale(.08 -.08)">
<use xlink:href="#p"/>
</g>
</g>
<path d="m154.24 649.66 0.88853-6.0956q0.34618-2.3749-2.0287-2.7211l-7.6615-1.1168q-2.3749-0.34618-2.7211 2.0287l-0.88853 6.0956q-0.34618 2.3749 2.0287 2.7211l7.6615 1.1168q2.3749 0.34618 2.7211-2.0287z" clip-path="url(#a)" fill="#fff" stroke="#fff"/>
<g clip-path="url(#a)">
<defs>
<path id="t" d="m19.672 64.797v-56.688h11.922q15.094 0 22.094 6.8281 7 6.8438 7 21.594 0 14.641-7 21.453t-22.094 6.8125zm-9.8594 8.1094h20.266q21.188 0 31.094-8.8125 9.9219-8.8125 9.9219-27.562 0-18.859-9.9688-27.703-9.9531-8.8281-31.047-8.8281h-20.266z"/>
</defs>
<g transform="translate(150.22 649.07) rotate(-81.707) scale(.08 -.08)">
<use xlink:href="#t"/>
</g>
</g>
<path d="m162.59 648.57 0.42014-4.582q0.21914-2.39-2.1708-2.6091l-7.7102-0.70697q-2.39-0.21914-2.6091 2.1708l-0.42014 4.582q-0.21914 2.39 2.1708 2.6091l7.7102 0.70697q2.39 0.21914 2.6091-2.1708z" clip-path="url(#a)" fill="#fff" stroke="#fff"/>
<g clip-path="url(#a)">
<defs>
<path id="w" d="m9.8125 72.906h41.891v-8.3125h-32.031v-21.484h28.906v-8.2969h-28.906v-34.812h-9.8594z"/>
</defs>
<g transform="translate(158.54 648.2) rotate(-84.761) scale(.08 -.08)">
<use xlink:href="#w"/>
</g>
</g>
<path d="m170.06 569.06 0.45904 5.4532q0.20132 2.3915 2.5929 2.1902l7.7152-0.64945q2.3915-0.20132 2.1902-2.5929l-0.45904-5.4532q-0.20132-2.3915-2.5929-2.1902l-7.7152 0.64945q-2.3915 0.20132-2.1902 2.5929z" clip-path="url(#a)" fill="#fff" stroke="#fff"/>
<g clip-path="url(#a)">
<g transform="translate(174.11 568.72) rotate(85.188) scale(.08 -.08)">
<use xlink:href="#p"/>
</g>
</g>
<path d="m207.47 645.04 1.4349 4.8718q0.67808 2.3022 2.9803 1.6241l7.427-2.1875q2.3022-0.67808 1.6241-2.9803l-1.4349-4.8718q-0.67808-2.3022-2.9803-1.6241l-7.427 2.1875q-2.3022 0.67808-1.6241 2.9803z" clip-path="url(#a)" fill="#fff" stroke="#fff"/>
<g clip-path="url(#a)">
<defs>
<path id="al" d="m53.516 70.516v-9.625q-5.6094 2.6875-10.594 4-4.9844 1.3281-9.625 1.3281-8.0469 0-12.422-3.125t-4.375-8.8906q0-4.8438 2.9062-7.3125 2.9062-2.4531 11.016-3.9688l5.9531-1.2188q11.031-2.1094 16.281-7.4062t5.25-14.172q0-10.609-7.1094-16.078-7.0938-5.4688-20.812-5.4688-5.1719 0-11.016 1.1719-5.8281 1.1719-12.078 3.4688v10.156q6-3.3594 11.766-5.0781 5.7656-1.7031 11.328-1.7031 8.4375 0 13.031 3.3125 4.5938 3.3281 4.5938 9.4844 0 5.3594-3.2969 8.3906t-10.812 4.5469l-6.0156 1.1719q-11.031 2.1875-15.969 6.875-4.9219 4.6875-4.9219 13.047 0 9.6719 6.8125 15.234t18.766 5.5625q5.1406 0 10.453-0.9375 5.3281-0.92188 10.891-2.7656z"/>
</defs>
<g transform="translate(211.37 643.89) rotate(73.588) scale(.08 -.08)">
<use xlink:href="#al"/>
</g>
</g>
<path d="m222.23 645.14 2.2628 5.7293q0.88162 2.2322 3.1138 1.3506l7.2012-2.8441q2.2322-0.88162 1.3506-3.1138l-2.2628-5.7293q-0.88162-2.2322-3.1138-1.3506l-7.2012 2.8441q-2.2322 0.88162-1.3506 3.1138z" clip-path="url(#a)" fill="#fff" stroke="#fff"/>
<g clip-path="url(#a)">
<g transform="translate(226.01 643.65) rotate(68.448) scale(.08 -.08)">
<use xlink:href="#t"/>
</g>
</g>
<path d="m141.25 649.97 1.3164-5.7051q0.53959-2.3386-1.799-2.8781l-7.5443-1.7407q-2.3386-0.53959-2.8781 1.799l-1.3164 5.7051q-0.53959 2.3386 1.799 2.8781l7.5443 1.7407q2.3386 0.53959 2.8781-1.799z" clip-path="url(#a)" fill="#fff" stroke="#fff"/>
<g clip-path="url(#a)">
<g transform="translate(137.29 649.05) rotate(-77.007) scale(.08 -.08)">
<use xlink:href="#s"/>
</g>
</g>
<path d="m193.64 644.08 1.1584 5.7393q0.47484 2.3526 2.8274 1.8777l7.5894-1.5319q2.3526-0.47484 1.8777-2.8274l-1.1584-5.7393q-0.47484-2.3526-2.8274-1.8777l-7.5894 1.5319q-2.3526 0.47484-1.8777 2.8274z" clip-path="url(#a)" fill="#fff" stroke="#fff"/>
<g clip-path="url(#a)">
<g transform="translate(197.63 643.27) rotate(78.589) scale(.08 -.08)">
<use xlink:href="#s"/>
</g>
</g>
<path d="m348.76 851.49v33.808q0 2.4 2.4 2.4h7.7425q2.4 0 2.4-2.4v-33.808q0-2.4-2.4-2.4h-7.7425q-2.4 0-2.4 2.4z" clip-path="url(#a)" fill="#fff" stroke="#fff"/>
<g clip-path="url(#a)">
<defs>
<path id="d" d="m56.203 29.594v-4.3906h-41.312q0.59375-9.2812 5.5938-14.141t13.938-4.8594q5.1719 0 10.031 1.2656t9.6562 3.8125v-8.5q-4.8438-2.0469-9.9219-3.125t-10.297-1.0781q-13.094 0-20.734 7.6094-7.6406 7.625-7.6406 20.625 0 13.422 7.25 21.297 7.25 7.8906 19.562 7.8906 11.031 0 17.453-7.1094 6.4219-7.0938 6.4219-19.297zm-8.9844 2.6406q-0.09375 7.3594-4.125 11.75-4.0312 4.4062-10.672 4.4062-7.5156 0-12.031-4.25t-5.2031-11.969z"/>
<path id="i" d="m41.109 46.297q-1.5156 0.875-3.2969 1.2812-1.7812 0.42188-3.9219 0.42188-7.625 0-11.703-4.9531t-4.0781-14.234v-28.812h-9.0312v54.688h9.0312v-8.5q2.8438 4.9844 7.375 7.3906 4.5469 2.4219 11.047 2.4219 0.92188 0 2.0469-0.125 1.125-0.10938 2.4844-0.35938z"/>
<path id="j" d="m52 44.188q3.375 6.0625 8.0625 8.9375t11.031 2.875q8.5469 0 13.188-5.9844 4.6406-5.9688 4.6406-17v-33.016h-9.0312v32.719q0 7.8594-2.7969 11.656-2.7812 3.8125-8.4844 3.8125-6.9844 0-11.047-4.6406-4.0469-4.625-4.0469-12.641v-30.906h-9.0312v32.719q0 7.9062-2.7812 11.688t-8.5938 3.7812q-6.8906 0-10.953-4.6562-4.0469-4.6562-4.0469-12.625v-30.906h-9.0312v54.688h9.0312v-8.5q3.0781 5.0312 7.375 7.4219t10.203 2.3906q5.9688 0 10.141-3.0312 4.1719-3.0156 6.1719-8.7812z"/>
<path id="h" d="m9.4219 54.688h8.9844v-54.688h-8.9844zm0 21.297h8.9844v-11.391h-8.9844z"/>
<path id="g" d="m54.891 33.016v-33.016h-8.9844v32.719q0 7.7656-3.0312 11.609-3.0312 3.8594-9.0781 3.8594-7.2812 0-11.484-4.6406-4.2031-4.625-4.2031-12.641v-30.906h-9.0312v54.688h9.0312v-8.5q3.2344 4.9375 7.5938 7.375 4.375 2.4375 10.094 2.4375 9.4219 0 14.25-5.8281 4.8438-5.8281 4.8438-17.156z"/>
<path id="e" d="m34.281 27.484q-10.891 0-15.094-2.4844t-4.2031-8.5q0-4.7812 3.1562-7.5938 3.1562-2.7969 8.5625-2.7969 7.4844 0 12 5.2969t4.5156 14.078v2zm17.922 3.7188v-31.203h-8.9844v8.2969q-3.0781-4.9688-7.6719-7.3438t-11.234-2.375q-8.3906 0-13.359 4.7188-4.9531 4.7188-4.9531 12.625 0 9.2188 6.1719 13.906 6.1875 4.6875 18.438 4.6875h12.609v0.89062q0 6.2031-4.0781 9.5938t-11.453 3.3906q-4.6875 0-9.1406-1.125-4.4375-1.125-8.5312-3.375v8.3125q4.9219 1.9062 9.5625 2.8438 4.6406 0.95312 9.0312 0.95312 11.875 0 17.734-6.1562 5.8594-6.1406 5.8594-18.641z"/>
<path id="l" d="m9.4219 75.984h8.9844v-75.984h-8.9844z"/>
</defs>
<g transform="translate(352.82 851.49) rotate(90) scale(.08 -.08)">
<use xlink:href="#k"/>
<use x="44.083984" xlink:href="#d"/>
<use x="105.607422" xlink:href="#i"/>
<use x="144.970703" xlink:href="#j"/>
<use x="242.382812" xlink:href="#h"/>
<use x="270.166016" xlink:href="#g"/>
<use x="333.544922" xlink:href="#e"/>
<use x="394.824219" xlink:href="#l"/>
</g>
</g>
<path d="m471.01 726.94 3.9265-3.8119q1.722-1.6717 0.050257-3.3937l-5.3931-5.5552q-1.6717-1.722-3.3937-0.050257l-3.9265 3.8119q-1.722 1.6717-0.050257 3.3937l5.3931 5.5552q1.6717 1.722 3.3937 0.050257z" clip-path="url(#a)" fill="#fff" stroke="#fff"/>
<g clip-path="url(#a)">
<g transform="translate(468.18 724.03) rotate(-44.152) scale(.08 -.08)">
<use xlink:href="#p"/>
</g>
</g>
<path d="m491.31 726.8 3.7482-4.8884q1.4603-1.9046-0.44427-3.3649l-6.1443-4.7111q-1.9046-1.4603-3.3649 0.44427l-3.7482 4.8884q-1.4603 1.9046 0.44427 3.3649l6.1443 4.7111q1.9046 1.4603 3.3649-0.44427z" clip-path="url(#a)" fill="#fff" stroke="#fff"/>
<g clip-path="url(#a)">
<g transform="translate(488.09 724.32) rotate(-52.521) scale(.08 -.08)">
<use xlink:href="#t"/>
</g>
</g>
<path d="m513.4 725.75 2.3997-4.9183q1.0524-2.1569-1.1045-3.2094l-6.9584-3.3952q-2.1569-1.0524-3.2094 1.1045l-2.3997 4.9183q-1.0524 2.1569 1.1045 3.2094l6.9584 3.3952q2.1569 1.0524 3.2094-1.1045z" clip-path="url(#a)" fill="#fff" stroke="#fff"/>
<g clip-path="url(#a)">
<g transform="translate(509.75 723.96) rotate(-63.991) scale(.08 -.08)">
<use xlink:href="#p"/>
</g>
</g>
<path d="m536.59 723.99 0.87465-4.5174q0.45622-2.3562-1.9-2.8125l-7.6013-1.4718q-2.3562-0.45622-2.8125 1.9l-0.87465 4.5174q-0.45622 2.3562 1.9 2.8125l7.6013 1.4718q2.3562 0.45622 2.8125-1.9z" clip-path="url(#a)" fill="#fff" stroke="#fff"/>
<g clip-path="url(#a)">
<g transform="translate(532.6 723.21) rotate(-79.042) scale(.08 -.08)">
<use xlink:href="#w"/>
</g>
</g>
<path d="m547.35 718.2 0.71084 6.1188q0.27695 2.384 2.6609 2.107l7.6908-0.89346q2.384-0.27695 2.107-2.6609l-0.71084-6.1188q-0.27695-2.384-2.6609-2.107l-7.6908 0.89346q-2.384 0.27695-2.107 2.6609z" clip-path="url(#a)" fill="#fff" stroke="#fff"/>
<g clip-path="url(#a)">
<g transform="translate(551.39 717.73) rotate(83.374) scale(.08 -.08)">
<use xlink:href="#t"/>
</g>
</g>
<path d="m571.48 720.96 1.8582 4.2093q0.96925 2.1956 3.1648 1.2263l7.083-3.1268q2.1956-0.96925 1.2263-3.1648l-1.8582-4.2093q-0.96925-2.1956-3.1648-1.2263l-7.083 3.1268q-2.1956 0.96925-1.2263 3.1648z" clip-path="url(#a)" fill="#fff" stroke="#fff"/>
<g clip-path="url(#a)">
<g transform="translate(575.2 719.32) rotate(66.181) scale(.08 -.08)">
<use xlink:href="#w"/>
</g>
</g>
<path d="m596.68 721.97 3.7953 4.8519q1.4787 1.8904 3.3691 0.41167l6.0984-4.7703q1.8904-1.4787 0.41167-3.3691l-3.7953-4.8519q-1.4787-1.8904-3.3691-0.41167l-6.0984 4.7703q-1.8904 1.4787-0.41167 3.3691z" clip-path="url(#a)" fill="#fff" stroke="#fff"/>
<g clip-path="url(#a)">
<g transform="translate(599.88 719.47) rotate(51.966) scale(.08 -.08)">
<use xlink:href="#t"/>
</g>
</g>
<path d="m623.99 723.57 3.8158 3.3516q1.8032 1.5838 3.387-0.21935l5.1095-5.8171q1.5838-1.8032-0.21935-3.387l-3.8158-3.3516q-1.8032-1.5838-3.387 0.21935l-5.1095 5.8171q-1.5838 1.8032 0.21935 3.387z" clip-path="url(#a)" fill="#fff" stroke="#fff"/>
<g clip-path="url(#a)">
<g transform="translate(626.67 720.52) rotate(41.295) scale(.08 -.08)">
<use xlink:href="#al"/>
</g>
</g>
<path d="m821.52 851.49v33.808q0 2.4 2.4 2.4h7.7425q2.4 0 2.4-2.4v-33.808q0-2.4-2.4-2.4h-7.7425q-2.4 0-2.4 2.4z" clip-path="url(#a)" fill="#fff" stroke="#fff"/>
<g clip-path="url(#a)">
<g transform="translate(825.58 851.49) rotate(90) scale(.08 -.08)">
<use xlink:href="#k"/>
<use x="44.083984" xlink:href="#d"/>
<use x="105.607422" xlink:href="#i"/>
<use x="144.970703" xlink:href="#j"/>
<use x="242.382812" xlink:href="#h"/>
<use x="270.166016" xlink:href="#g"/>
<use x="333.544922" xlink:href="#e"/>
<use x="394.824219" xlink:href="#l"/>
</g>
</g>
<path d="m947.17 499.14 0.96596-5.3866q0.42363-2.3623-1.9387-2.7859l-7.6209-1.3666q-2.3623-0.42363-2.7859 1.9387l-0.96596 5.3866q-0.42363 2.3623 1.9387 2.7859l7.6209 1.3666q2.3623 0.42363 2.7859-1.9387z" clip-path="url(#a)" fill="#fff" stroke="#fff"/>
<g clip-path="url(#a)">
<g transform="translate(943.17 498.42) rotate(-79.833) scale(.08 -.08)">
<use xlink:href="#p"/>
</g>
</g>
<path d="m978.69 498.22 0.3628-4.8101q0.18051-2.3932-2.2127-2.5737l-7.7206-0.58233q-2.3932-0.18051-2.5737 2.2127l-0.3628 4.8101q-0.18051 2.3932 2.2127 2.5737l7.7206 0.58233q2.3932 0.18051 2.5737-2.2127z" clip-path="url(#a)" fill="#fff" stroke="#fff"/>
<g clip-path="url(#a)">
<defs>
<path id="ad" d="m19.672 64.797v-27.391h12.406q6.8906 0 10.641 3.5625 3.7656 3.5625 3.7656 10.156 0 6.5469-3.7656 10.109-3.75 3.5625-10.641 3.5625zm-9.8594 8.1094h22.266q12.266 0 18.531-5.5469 6.2812-5.5469 6.2812-16.234 0-10.797-6.2812-16.312-6.2656-5.5156-18.531-5.5156h-12.406v-29.297h-9.8594z"/>
</defs>
<g transform="translate(974.64 497.91) rotate(-85.687) scale(.08 -.08)">
<use xlink:href="#ad"/>
</g>
</g>
<path d="m1065.2 273.53 3.8965 3.8426q1.7088 1.6852 3.394-0.023661l5.4365-5.5128q1.6852-1.7088-0.02366-3.394l-3.8965-3.8426q-1.7088-1.6852-3.394 0.02366l-5.4365 5.5128q-1.6852 1.7088 0.023661 3.394z" clip-path="url(#a)" fill="#fff" stroke="#fff"/>
<g clip-path="url(#a)">
<g transform="translate(1068.1 270.63) rotate(44.601) scale(.08 -.08)">
<use xlink:href="#p"/>
</g>
</g>
<path d="m881.48 851.49v33.808q0 2.4 2.4 2.4h7.7425q2.4 0 2.4-2.4v-33.808q0-2.4-2.4-2.4h-7.7425q-2.4 0-2.4 2.4z" clip-path="url(#a)" fill="#fff" stroke="#fff"/>
<g clip-path="url(#a)">
<g transform="translate(885.54 851.49) rotate(90) scale(.08 -.08)">
<use xlink:href="#k"/>
<use x="44.083984" xlink:href="#d"/>
<use x="105.607422" xlink:href="#i"/>
<use x="144.970703" xlink:href="#j"/>
<use x="242.382812" xlink:href="#h"/>
<use x="270.166016" xlink:href="#g"/>
<use x="333.544922" xlink:href="#e"/>
<use x="394.824219" xlink:href="#l"/>
</g>
</g>
<path d="m943.75 851.49v33.808q0 2.4 2.4 2.4h7.7425q2.4 0 2.4-2.4v-33.808q0-2.4-2.4-2.4h-7.7425q-2.4 0-2.4 2.4z" clip-path="url(#a)" fill="#fff" stroke="#fff"/>
<g clip-path="url(#a)">
<g transform="translate(947.81 851.49) rotate(90) scale(.08 -.08)">
<use xlink:href="#k"/>
<use x="44.083984" xlink:href="#d"/>
<use x="105.607422" xlink:href="#i"/>
<use x="144.970703" xlink:href="#j"/>
<use x="242.382812" xlink:href="#h"/>
<use x="270.166016" xlink:href="#g"/>
<use x="333.544922" xlink:href="#e"/>
<use x="394.824219" xlink:href="#l"/>
</g>
</g>
<path d="m1464.6 426.83 5.3285 1.2472q2.3368 0.54699 2.8838-1.7898l1.7646-7.5387q0.54699-2.3368-1.7898-2.8838l-5.3285-1.2472q-2.3368-0.54699-2.8838 1.7898l-1.7646 7.5387q-0.54699 2.3368 1.7899 2.8838z" clip-path="url(#a)" fill="#fff" stroke="#fff"/>
<g clip-path="url(#a)">
<g transform="translate(1465.5 422.87) rotate(13.174) scale(.08 -.08)">
<use xlink:href="#p"/>
</g>
</g>
<path d="m1086.4 575.36 1.7541-5.905q0.68342-2.3006-1.6172-2.9841l-7.422-2.2047q-2.3006-0.68342-2.9841 1.6172l-1.7541 5.905q-0.68342 2.3006 1.6172 2.9841l7.422 2.2047q2.3006 0.68342 2.9841-1.6172z" clip-path="url(#a)" fill="#fff" stroke="#fff"/>
<g clip-path="url(#a)">
<g transform="translate(1082.5 574.2) rotate(-73.456) scale(.08 -.08)">
<use xlink:href="#t"/>
</g>
</g>
<path d="m1120.5 573.92 0.70629-4.7718q0.35141-2.3741-2.0227-2.7255l-7.6591-1.1337q-2.3741-0.35141-2.7255 2.0227l-0.70629 4.7718q-0.35141 2.3741 2.0227 2.7255l7.6591 1.1337q2.3741 0.35141 2.7255-2.0227z" clip-path="url(#a)" fill="#fff" stroke="#fff"/>
<g clip-path="url(#a)">
<g transform="translate(1116.5 573.33) rotate(-81.581) scale(.08 -.08)">
<use xlink:href="#ad"/>
</g>
</g>
<path d="m1241.8 424.71 4.3739 3.289q1.9182 1.4424 3.3606-0.47582l4.6532-6.1882q1.4424-1.9182-0.47582-3.3606l-4.3739-3.2889q-1.9182-1.4424-3.3606 0.47582l-4.6532 6.1882q-1.4424 1.9182 0.47582 3.3606z" clip-path="url(#a)" fill="#fff" stroke="#fff"/>
<g clip-path="url(#a)">
<g transform="translate(1244.2 421.46) rotate(36.941) scale(.08 -.08)">
<use xlink:href="#p"/>
</g>
</g>
<path d="m1008.3 851.49v33.808q0 2.4 2.4 2.4h7.7425q2.4 0 2.4-2.4v-33.808q0-2.4-2.4-2.4h-7.7425q-2.4 0-2.4 2.4z" clip-path="url(#a)" fill="#fff" stroke="#fff"/>
<g clip-path="url(#a)">
<g transform="translate(1012.4 851.49) rotate(90) scale(.08 -.08)">
<use xlink:href="#k"/>
<use x="44.083984" xlink:href="#d"/>
<use x="105.607422" xlink:href="#i"/>
<use x="144.970703" xlink:href="#j"/>
<use x="242.382812" xlink:href="#h"/>
<use x="270.166016" xlink:href="#g"/>
<use x="333.544922" xlink:href="#e"/>
<use x="394.824219" xlink:href="#l"/>
</g>
</g>
<path d="m1075.2 851.49v33.808q0 2.4 2.4 2.4h7.7425q2.4 0 2.4-2.4v-33.808q0-2.4-2.4-2.4h-7.7425q-2.4 0-2.4 2.4z" clip-path="url(#a)" fill="#fff" stroke="#fff"/>
<g clip-path="url(#a)">
<g transform="translate(1079.3 851.49) rotate(90) scale(.08 -.08)">
<use xlink:href="#k"/>
<use x="44.083984" xlink:href="#d"/>
<use x="105.607422" xlink:href="#i"/>
<use x="144.970703" xlink:href="#j"/>
<use x="242.382812" xlink:href="#h"/>
<use x="270.166016" xlink:href="#g"/>
<use x="333.544922" xlink:href="#e"/>
<use x="394.824219" xlink:href="#l"/>
</g>
</g>
<path d="m1252.9 651.44 3.0135-4.5681q1.3216-2.0034-0.68179-3.3249l-6.4629-4.2634q-2.0034-1.3216-3.3249 0.68178l-3.0135 4.5681q-1.3216 2.0034 0.68179 3.3249l6.4629 4.2634q2.0034 1.3216 3.3249-0.68179z" clip-path="url(#a)" fill="#fff" stroke="#fff"/>
<g clip-path="url(#a)">
<g transform="translate(1249.5 649.2) rotate(-56.588) scale(.08 -.08)">
<use xlink:href="#p"/>
</g>
</g>
<path d="m1289.8 650.26 1.7825-4.2419q0.92977-2.2126-1.2828-3.1424l-7.1379-2.9995q-2.2126-0.92977-3.1424 1.2828l-1.7825 4.2419q-0.92976 2.2126 1.2828 3.1424l7.1379 2.9995q2.2126 0.92977 3.1424-1.2828z" clip-path="url(#a)" fill="#fff" stroke="#fff"/>
<g clip-path="url(#a)">
<g transform="translate(1286 648.68) rotate(-67.207) scale(.08 -.08)">
<use xlink:href="#w"/>
</g>
</g>
<path d="m1327.5 649.15 0.82244-4.7531q0.40919-2.3649-1.9557-2.7741l-7.6291-1.3201q-2.3649-0.40919-2.7741 1.9557l-0.82244 4.7531q-0.40919 2.3649 1.9557 2.7741l7.6291 1.3201q2.3649 0.40919 2.7741-1.9557z" clip-path="url(#a)" fill="#fff" stroke="#fff"/>
<g clip-path="url(#a)">
<g transform="translate(1323.5 648.46) rotate(-80.183) scale(.08 -.08)">
<use xlink:href="#ad"/>
</g>
</g>
<path d="m1372.6 571.2 2.1417 5.036q0.93927 2.2086 3.1478 1.2693l7.1249-3.0301q2.2086-0.93927 1.2693-3.1478l-2.1417-5.036q-0.93927-2.2086-3.1478-1.2693l-7.1249 3.0301q-2.2086 0.93927-1.2693 3.1478z" clip-path="url(#a)" fill="#fff" stroke="#fff"/>
<g clip-path="url(#a)">
<g transform="translate(1376.3 569.61) rotate(66.961) scale(.08 -.08)">
<use xlink:href="#p"/>
</g>
</g>
<path d="m1497.6 575.72 4.9294 2.3767q2.1618 1.0423 3.2042-1.1195l3.3626-6.9742q1.0423-2.1618-1.1195-3.2042l-4.9294-2.3767q-2.1618-1.0423-3.2042 1.1195l-3.3626 6.9742q-1.0423 2.1618 1.1195 3.2042z" clip-path="url(#a)" fill="#fff" stroke="#fff"/>
<g clip-path="url(#a)">
<g transform="translate(1499.4 572.06) rotate(25.741) scale(.08 -.08)">
<use xlink:href="#p"/>
</g>
</g>
<path d="m1144.4 851.49v33.808q0 2.4 2.4 2.4h7.7425q2.4 0 2.4-2.4v-33.808q0-2.4-2.4-2.4h-7.7425q-2.4 0-2.4 2.4z" clip-path="url(#a)" fill="#fff" stroke="#fff"/>
<g clip-path="url(#a)">
<g transform="translate(1148.4 851.49) rotate(90) scale(.08 -.08)">
<use xlink:href="#k"/>
<use x="44.083984" xlink:href="#d"/>
<use x="105.607422" xlink:href="#i"/>
<use x="144.970703" xlink:href="#j"/>
<use x="242.382812" xlink:href="#h"/>
<use x="270.166016" xlink:href="#g"/>
<use x="333.544922" xlink:href="#e"/>
<use x="394.824219" xlink:href="#l"/>
</g>
</g>
<path d="m1215.9 851.49v33.808q0 2.4 2.4 2.4h7.7425q2.4 0 2.4-2.4v-33.808q0-2.4-2.4-2.4h-7.7425q-2.4 0-2.4 2.4z" clip-path="url(#a)" fill="#fff" stroke="#fff"/>
<g clip-path="url(#a)">
<g transform="translate(1219.9 851.49) rotate(90) scale(.08 -.08)">
<use xlink:href="#k"/>
<use x="44.083984" xlink:href="#d"/>
<use x="105.607422" xlink:href="#i"/>
<use x="144.970703" xlink:href="#j"/>
<use x="242.382812" xlink:href="#h"/>
<use x="270.166016" xlink:href="#g"/>
<use x="333.544922" xlink:href="#e"/>
<use x="394.824219" xlink:href="#l"/>
</g>
</g>
<path d="m1289.7 851.49v33.808q0 2.4 2.4 2.4h7.7425q2.4 0 2.4-2.4v-33.808q0-2.4-2.4-2.4h-7.7425q-2.4 0-2.4 2.4z" clip-path="url(#a)" fill="#fff" stroke="#fff"/>
<g clip-path="url(#a)">
<g transform="translate(1293.7 851.49) rotate(90) scale(.08 -.08)">
<use xlink:href="#k"/>
<use x="44.083984" xlink:href="#d"/>
<use x="105.607422" xlink:href="#i"/>
<use x="144.970703" xlink:href="#j"/>
<use x="242.382812" xlink:href="#h"/>
<use x="270.166016" xlink:href="#g"/>
<use x="333.544922" xlink:href="#e"/>
<use x="394.824219" xlink:href="#l"/>
</g>
</g>
<path d="m1397.1 724.58 1.2872-4.8884q0.61114-2.3209-1.7097-2.932l-7.4873-1.9716q-2.3209-0.61114-2.932 1.7097l-1.2872 4.8884q-0.61114 2.3209 1.7097 2.932l7.4873 1.9716q2.3209 0.61114 2.932-1.7097z" clip-path="url(#a)" fill="#fff" stroke="#fff"/>
<g clip-path="url(#a)">
<defs>
<path id="at" d="m9.8125 72.906h46.094v-8.3125h-36.234v-21.578h34.719v-8.2969h-34.719v-26.422h37.109v-8.2969h-46.969z"/>
</defs>
<g transform="translate(1393.1 723.54) rotate(-75.248) scale(.08 -.08)">
<use xlink:href="#at"/>
</g>
</g>
<path d="m1424.1 719.43 1.4225 5.4021q0.61114 2.3209 2.932 1.7097l7.4873-1.9716q2.3209-0.61114 1.7097-2.932l-1.4225-5.4021q-0.61115-2.3209-2.932-1.7097l-7.4873 1.9716q-2.3209 0.61114-1.7097 2.932z" clip-path="url(#a)" fill="#fff" stroke="#fff"/>
<g clip-path="url(#a)">
<defs>
<path id="af" d="m64.406 67.281v-10.391q-4.9844 4.6406-10.625 6.9219-5.6406 2.2969-11.984 2.2969-12.5 0-19.141-7.6406t-6.6406-22.094q0-14.406 6.6406-22.047t19.141-7.6406q6.3438 0 11.984 2.2969t10.625 6.9375v-10.312q-5.1719-3.5156-10.969-5.2812-5.7812-1.75-12.219-1.75-16.562 0-26.094 10.125-9.5156 10.141-9.5156 27.672 0 17.578 9.5156 27.703 9.5312 10.141 26.094 10.141 6.5312 0 12.312-1.7344 5.7969-1.7344 10.875-5.2031z"/>
</defs>
<g transform="translate(1428 718.4) rotate(75.248) scale(.08 -.08)">
<use xlink:href="#af"/>
</g>
</g>
<path d="m1597.6 726.72 3.6049-4.2314q1.5564-1.8269-0.27051-3.3833l-5.8937-5.021q-1.8269-1.5564-3.3833 0.27051l-3.6049 4.2314q-1.5564 1.8269 0.27051 3.3833l5.8937 5.021q1.8269 1.5564 3.3833-0.27051z" clip-path="url(#a)" fill="#fff" stroke="#fff"/>
<g clip-path="url(#a)">
<defs>
<path id="aq" d="m44.391 34.188q3.1719-1.0781 6.1719-4.5938t6.0312-9.6719l10.016-19.922h-10.609l-9.3125 18.703q-3.625 7.3281-7.0156 9.7188t-9.25 2.3906h-10.75v-30.812h-9.8594v72.906h22.266q12.5 0 18.656-5.2344 6.1562-5.2188 6.1562-15.766 0-6.8906-3.2031-11.438-3.2031-4.5312-9.2969-6.2812zm-24.719 30.609v-25.875h12.406q7.125 0 10.766 3.2969t3.6406 9.6875-3.6406 9.6406-10.766 3.25z"/>
</defs>
<g transform="translate(1594.5 724.08) rotate(-49.571) scale(.08 -.08)">
<use xlink:href="#aq"/>
</g>
</g>
<path d="m1641.2 725.33 1.778-6.0413q0.67759-2.3024-1.6248-2.98l-7.4275-2.1859q-2.3024-0.67759-2.98 1.6248l-1.778 6.0413q-0.67759 2.3024 1.6248 2.98l7.4275 2.1859q2.3024 0.67759 2.98-1.6248z" clip-path="url(#a)" fill="#fff" stroke="#fff"/>
<g clip-path="url(#a)">
<defs>
<path id="ar" d="m39.406 66.219q-10.75 0-17.078-8.0156-6.3125-8-6.3125-21.828 0-13.766 6.3125-21.781 6.3281-8 17.078-8 10.734 0 17.016 8 6.2812 8.0156 6.2812 21.781 0 13.828-6.2812 21.828-6.2812 8.0156-17.016 8.0156zm13.812-64.906 13-14.203h-11.922l-10.797 11.672q-1.6094-0.09375-2.4688-0.14062-0.84375-0.0625-1.625-0.0625-15.375 0-24.594 10.281-9.2031 10.281-9.2031 27.516 0 17.281 9.2031 27.562 9.2188 10.281 24.594 10.281 15.328 0 24.5-10.281 9.1875-10.281 9.1875-27.562 0-12.688-5.1094-21.734-5.0938-9.0312-14.766-13.328z"/>
</defs>
<g transform="translate(1637.3 724.18) rotate(-73.601) scale(.08 -.08)">
<use xlink:href="#ar"/>
</g>
</g>
<path d="m1672 719.53 1.5003 5.381q0.64457 2.3118 2.9564 1.6673l7.458-2.0794q2.3118-0.64457 1.6673-2.9564l-1.5003-5.381q-0.64457-2.3118-2.9564-1.6673l-7.458 2.0794q-2.3118 0.64457-1.6673 2.9564z" clip-path="url(#a)" fill="#fff" stroke="#fff"/>
<g clip-path="url(#a)">
<g transform="translate(1675.9 718.44) rotate(74.421) scale(.08 -.08)">
<use xlink:href="#af"/>
</g>
</g>
<path d="m1715.9 722.43 3.8365 4.4229q1.5726 1.813 3.3856 0.24036l5.8487-5.0733q1.813-1.5726 0.24036-3.3856l-3.8365-4.4229q-1.5726-1.813-3.3856-0.24036l-5.8487 5.0733q-1.813 1.5726-0.24036 3.3856z" clip-path="url(#a)" fill="#fff" stroke="#fff"/>
<g clip-path="url(#a)">
<g transform="translate(1719 719.77) rotate(49.061) scale(.08 -.08)">
<use xlink:href="#s"/>
</g>
</g>
<path d="m1524.9 851.49v33.808q0 2.4 2.4 2.4h7.7425q2.4 0 2.4-2.4v-33.808q0-2.4-2.4-2.4h-7.7425q-2.4 0-2.4 2.4z" clip-path="url(#a)" fill="#fff" stroke="#fff"/>
<g clip-path="url(#a)">
<g transform="translate(1529 851.49) rotate(90) scale(.08 -.08)">
<use xlink:href="#k"/>
<use x="44.083984" xlink:href="#d"/>
<use x="105.607422" xlink:href="#i"/>
<use x="144.970703" xlink:href="#j"/>
<use x="242.382812" xlink:href="#h"/>
<use x="270.166016" xlink:href="#g"/>
<use x="333.544922" xlink:href="#e"/>
<use x="394.824219" xlink:href="#l"/>
</g>
</g>
<path d="m1607.9 851.49v33.808q0 2.4 2.4 2.4h7.7425q2.4 0 2.4-2.4v-33.808q0-2.4-2.4-2.4h-7.7425q-2.4 0-2.4 2.4z" clip-path="url(#a)" fill="#fff" stroke="#fff"/>
<g clip-path="url(#a)">
<g transform="translate(1612 851.49) rotate(90) scale(.08 -.08)">
<use xlink:href="#k"/>
<use x="44.083984" xlink:href="#d"/>
<use x="105.607422" xlink:href="#i"/>
<use x="144.970703" xlink:href="#j"/>
<use x="242.382812" xlink:href="#h"/>
<use x="270.166016" xlink:href="#g"/>
<use x="333.544922" xlink:href="#e"/>
<use x="394.824219" xlink:href="#l"/>
</g>
</g>
<path d="m1693.2 851.49v33.808q0 2.4 2.4 2.4h7.7425q2.4 0 2.4-2.4v-33.808q0-2.4-2.4-2.4h-7.7425q-2.4 0-2.4 2.4z" clip-path="url(#a)" fill="#fff" stroke="#fff"/>
<g clip-path="url(#a)">
<g transform="translate(1697.3 851.49) rotate(90) scale(.08 -.08)">
<use xlink:href="#k"/>
<use x="44.083984" xlink:href="#d"/>
<use x="105.607422" xlink:href="#i"/>
<use x="144.970703" xlink:href="#j"/>
<use x="242.382812" xlink:href="#h"/>
<use x="270.166016" xlink:href="#g"/>
<use x="333.544922" xlink:href="#e"/>
<use x="394.824219" xlink:href="#l"/>
</g>
</g>
<path d="m1365.8 851.49v33.808q0 2.4 2.4 2.4h7.7425q2.4 0 2.4-2.4v-33.808q0-2.4-2.4-2.4h-7.7425q-2.4 0-2.4 2.4z" clip-path="url(#a)" fill="#fff" stroke="#fff"/>
<g clip-path="url(#a)">
<g transform="translate(1369.8 851.49) rotate(90) scale(.08 -.08)">
<use xlink:href="#k"/>
<use x="44.083984" xlink:href="#d"/>
<use x="105.607422" xlink:href="#i"/>
<use x="144.970703" xlink:href="#j"/>
<use x="242.382812" xlink:href="#h"/>
<use x="270.166016" xlink:href="#g"/>
<use x="333.544922" xlink:href="#e"/>
<use x="394.824219" xlink:href="#l"/>
</g>
</g>
<path d="m1444.2 851.49v33.808q0 2.4 2.4 2.4h7.7425q2.4 0 2.4-2.4v-33.808q0-2.4-2.4-2.4h-7.7425q-2.4 0-2.4 2.4z" clip-path="url(#a)" fill="#fff" stroke="#fff"/>
<g clip-path="url(#a)">
<g transform="translate(1448.2 851.49) rotate(90) scale(.08 -.08)">
<use xlink:href="#k"/>
<use x="44.083984" xlink:href="#d"/>
<use x="105.607422" xlink:href="#i"/>
<use x="144.970703" xlink:href="#j"/>
<use x="242.382812" xlink:href="#h"/>
<use x="270.166016" xlink:href="#g"/>
<use x="333.544922" xlink:href="#e"/>
<use x="394.824219" xlink:href="#l"/>
</g>
</g>
<path d="m385.66 851.49v33.808q0 2.4 2.4 2.4h7.7425q2.4 0 2.4-2.4v-33.808q0-2.4-2.4-2.4h-7.7425q-2.4 0-2.4 2.4z" clip-path="url(#a)" fill="#fff" stroke="#fff"/>
<g clip-path="url(#a)">
<g transform="translate(389.72 851.49) rotate(90) scale(.08 -.08)">
<use xlink:href="#k"/>
<use x="44.083984" xlink:href="#d"/>
<use x="105.607422" xlink:href="#i"/>
<use x="144.970703" xlink:href="#j"/>
<use x="242.382812" xlink:href="#h"/>
<use x="270.166016" xlink:href="#g"/>
<use x="333.544922" xlink:href="#e"/>
<use x="394.824219" xlink:href="#l"/>
</g>
</g>
<path d="m424.86 851.49v33.808q0 2.4 2.4 2.4h7.7425q2.4 0 2.4-2.4v-33.808q0-2.4-2.4-2.4h-7.7425q-2.4 0-2.4 2.4z" clip-path="url(#a)" fill="#fff" stroke="#fff"/>
<g clip-path="url(#a)">
<g transform="translate(428.93 851.49) rotate(90) scale(.08 -.08)">
<use xlink:href="#k"/>
<use x="44.083984" xlink:href="#d"/>
<use x="105.607422" xlink:href="#i"/>
<use x="144.970703" xlink:href="#j"/>
<use x="242.382812" xlink:href="#h"/>
<use x="270.166016" xlink:href="#g"/>
<use x="333.544922" xlink:href="#e"/>
<use x="394.824219" xlink:href="#l"/>
</g>
</g>
<path d="m466.37 851.49v33.808q0 2.4 2.4 2.4h7.7425q2.4 0 2.4-2.4v-33.808q0-2.4-2.4-2.4h-7.7425q-2.4 0-2.4 2.4z" clip-path="url(#a)" fill="#fff" stroke="#fff"/>
<g clip-path="url(#a)">
<g transform="translate(470.44 851.49) rotate(90) scale(.08 -.08)">
<use xlink:href="#k"/>
<use x="44.083984" xlink:href="#d"/>
<use x="105.607422" xlink:href="#i"/>
<use x="144.970703" xlink:href="#j"/>
<use x="242.382812" xlink:href="#h"/>
<use x="270.166016" xlink:href="#g"/>
<use x="333.544922" xlink:href="#e"/>
<use x="394.824219" xlink:href="#l"/>
</g>
</g>
<path d="m510.19 851.49v33.808q0 2.4 2.4 2.4h7.7425q2.4 0 2.4-2.4v-33.808q0-2.4-2.4-2.4h-7.7425q-2.4 0-2.4 2.4z" clip-path="url(#a)" fill="#fff" stroke="#fff"/>
<g clip-path="url(#a)">
<g transform="translate(514.25 851.49) rotate(90) scale(.08 -.08)">
<use xlink:href="#k"/>
<use x="44.083984" xlink:href="#d"/>
<use x="105.607422" xlink:href="#i"/>
<use x="144.970703" xlink:href="#j"/>
<use x="242.382812" xlink:href="#h"/>
<use x="270.166016" xlink:href="#g"/>
<use x="333.544922" xlink:href="#e"/>
<use x="394.824219" xlink:href="#l"/>
</g>
</g>
<path d="m556.31 851.49v33.808q0 2.4 2.4 2.4h7.7425q2.4 0 2.4-2.4v-33.808q0-2.4-2.4-2.4h-7.7425q-2.4 0-2.4 2.4z" clip-path="url(#a)" fill="#fff" stroke="#fff"/>
<g clip-path="url(#a)">
<g transform="translate(560.38 851.49) rotate(90) scale(.08 -.08)">
<use xlink:href="#k"/>
<use x="44.083984" xlink:href="#d"/>
<use x="105.607422" xlink:href="#i"/>
<use x="144.970703" xlink:href="#j"/>
<use x="242.382812" xlink:href="#h"/>
<use x="270.166016" xlink:href="#g"/>
<use x="333.544922" xlink:href="#e"/>
<use x="394.824219" xlink:href="#l"/>
</g>
</g>
<path d="m604.74 851.49v33.808q0 2.4 2.4 2.4h7.7425q2.4 0 2.4-2.4v-33.808q0-2.4-2.4-2.4h-7.7425q-2.4 0-2.4 2.4z" clip-path="url(#a)" fill="#fff" stroke="#fff"/>
<g clip-path="url(#a)">
<g transform="translate(608.81 851.49) rotate(90) scale(.08 -.08)">
<use xlink:href="#k"/>
<use x="44.083984" xlink:href="#d"/>
<use x="105.607422" xlink:href="#i"/>
<use x="144.970703" xlink:href="#j"/>
<use x="242.382812" xlink:href="#h"/>
<use x="270.166016" xlink:href="#g"/>
<use x="333.544922" xlink:href="#e"/>
<use x="394.824219" xlink:href="#l"/>
</g>
</g>
<path d="m655.48 851.49v33.808q0 2.4 2.4 2.4h7.7425q2.4 0 2.4-2.4v-33.808q0-2.4-2.4-2.4h-7.7425q-2.4 0-2.4 2.4z" clip-path="url(#a)" fill="#fff" stroke="#fff"/>
<g clip-path="url(#a)">
<g transform="translate(659.54 851.49) rotate(90) scale(.08 -.08)">
<use xlink:href="#k"/>
<use x="44.083984" xlink:href="#d"/>
<use x="105.607422" xlink:href="#i"/>
<use x="144.970703" xlink:href="#j"/>
<use x="242.382812" xlink:href="#h"/>
<use x="270.166016" xlink:href="#g"/>
<use x="333.544922" xlink:href="#e"/>
<use x="394.824219" xlink:href="#l"/>
</g>
</g>
<path d="m708.52 851.49v33.808q0 2.4 2.4 2.4h7.7425q2.4 0 2.4-2.4v-33.808q0-2.4-2.4-2.4h-7.7425q-2.4 0-2.4 2.4z" clip-path="url(#a)" fill="#fff" stroke="#fff"/>
<g clip-path="url(#a)">
<g transform="translate(712.58 851.49) rotate(90) scale(.08 -.08)">
<use xlink:href="#k"/>
<use x="44.083984" xlink:href="#d"/>
<use x="105.607422" xlink:href="#i"/>
<use x="144.970703" xlink:href="#j"/>
<use x="242.382812" xlink:href="#h"/>
<use x="270.166016" xlink:href="#g"/>
<use x="333.544922" xlink:href="#e"/>
<use x="394.824219" xlink:href="#l"/>
</g>
</g>
<path d="m93.147 723.46 0.12912-5.5572q0.055748-2.3994-2.3436-2.4551l-7.7404-0.17984q-2.3994-0.055748-2.4551 2.3436l-0.12912 5.5573q-0.055747 2.3994 2.3436 2.4551l7.7404 0.17984q2.3994 0.055748 2.4551-2.3436z" clip-path="url(#a)" fill="#fff" stroke="#fff"/>
<g clip-path="url(#a)">
<g transform="translate(89.084 723.37) rotate(-88.669) scale(.08 -.08)">
<use xlink:href="#aq"/>
</g>
</g>
<path d="m84.067 717.89 0.12976 5.5847q0.055747 2.3994 2.4551 2.3436l7.7404-0.17984q2.3994-0.055748 2.3436-2.4551l-0.12976-5.5847q-0.055748-2.3994-2.4551-2.3436l-7.7404 0.17984q-2.3994 0.055748-2.3436 2.4551z" clip-path="url(#a)" fill="#fff" stroke="#fff"/>
<g clip-path="url(#a)">
<g transform="translate(88.129 717.8) rotate(88.669) scale(.08 -.08)">
<use xlink:href="#af"/>
</g>
</g>
<path d="m106.61 851.49v33.808q0 2.4 2.4 2.4h7.7425q2.4 0 2.4-2.4v-33.808q0-2.4-2.4-2.4h-7.7425q-2.4 0-2.4 2.4z" clip-path="url(#a)" fill="#fff" stroke="#fff"/>
<g clip-path="url(#a)">
<g transform="translate(110.68 851.49) rotate(90) scale(.08 -.08)">
<use xlink:href="#k"/>
<use x="44.083984" xlink:href="#d"/>
<use x="105.607422" xlink:href="#i"/>
<use x="144.970703" xlink:href="#j"/>
<use x="242.382812" xlink:href="#h"/>
<use x="270.166016" xlink:href="#g"/>
<use x="333.544922" xlink:href="#e"/>
<use x="394.824219" xlink:href="#l"/>
</g>
</g>
<path d="m120.45 851.49v33.808q0 2.4 2.4 2.4h7.7425q2.4 0 2.4-2.4v-33.808q0-2.4-2.4-2.4h-7.7425q-2.4 0-2.4 2.4z" clip-path="url(#a)" fill="#fff" stroke="#fff"/>
<g clip-path="url(#a)">
<g transform="translate(124.52 851.49) rotate(90) scale(.08 -.08)">
<use xlink:href="#k"/>
<use x="44.083984" xlink:href="#d"/>
<use x="105.607422" xlink:href="#i"/>
<use x="144.970703" xlink:href="#j"/>
<use x="242.382812" xlink:href="#h"/>
<use x="270.166016" xlink:href="#g"/>
<use x="333.544922" xlink:href="#e"/>
<use x="394.824219" xlink:href="#l"/>
</g>
</g>
<path d="m136.59 851.49v33.808q0 2.4 2.4 2.4h7.7425q2.4 0 2.4-2.4v-33.808q0-2.4-2.4-2.4h-7.7425q-2.4 0-2.4 2.4z" clip-path="url(#a)" fill="#fff" stroke="#fff"/>
<g clip-path="url(#a)">
<g transform="translate(140.66 851.49) rotate(90) scale(.08 -.08)">
<use xlink:href="#k"/>
<use x="44.083984" xlink:href="#d"/>
<use x="105.607422" xlink:href="#i"/>
<use x="144.970703" xlink:href="#j"/>
<use x="242.382812" xlink:href="#h"/>
<use x="270.166016" xlink:href="#g"/>
<use x="333.544922" xlink:href="#e"/>
<use x="394.824219" xlink:href="#l"/>
</g>
</g>
<path d="m177.1 811.27 2.4542-33.718q0.17422-2.3937-2.2194-2.5679l-7.7221-0.56205q-2.3937-0.17422-2.5679 2.2194l-2.4542 33.718q-0.17422 2.3937 2.2194 2.5679l7.7221 0.56205q2.3937 0.17422 2.5679-2.2194z" clip-path="url(#a)" fill="#fff" stroke="#fff"/>
<g clip-path="url(#a)">
<g transform="translate(173.05 810.98) rotate(-85.837) scale(.08 -.08)">
<use xlink:href="#k"/>
<use x="44.083984" xlink:href="#d"/>
<use x="105.607422" xlink:href="#i"/>
<use x="144.970703" xlink:href="#j"/>
<use x="242.382812" xlink:href="#h"/>
<use x="270.166016" xlink:href="#g"/>
<use x="333.544922" xlink:href="#e"/>
<use x="394.824219" xlink:href="#l"/>
</g>
</g>
<path d="m186.46 777.57 2.5413 33.712q0.18041 2.3932 2.5736 2.2128l7.7206-0.58201q2.3932-0.18041 2.2128-2.5736l-2.5413-33.712q-0.18041-2.3932-2.5736-2.2128l-7.7206 0.58201q-2.3932 0.18041-2.2128 2.5736z" clip-path="url(#a)" fill="#fff" stroke="#fff"/>
<g clip-path="url(#a)">
<g transform="translate(190.51 777.27) rotate(85.689) scale(.08 -.08)">
<use xlink:href="#k"/>
<use x="44.083984" xlink:href="#d"/>
<use x="105.607422" xlink:href="#i"/>
<use x="144.970703" xlink:href="#j"/>
<use x="242.382812" xlink:href="#h"/>
<use x="270.166016" xlink:href="#g"/>
<use x="333.544922" xlink:href="#e"/>
<use x="394.824219" xlink:href="#l"/>
</g>
</g>
<path d="m188.71 723.5 0.030231-5.8549q0.012391-2.4-2.3876-2.4124l-7.7424-0.039975q-2.4-0.012392-2.4124 2.3876l-0.03023 5.8549q-0.012392 2.4 2.3876 2.4124l7.7424 0.039975q2.4 0.012392 2.4124-2.3876z" clip-path="url(#a)" fill="#fff" stroke="#fff"/>
<g clip-path="url(#a)">
<g transform="translate(184.65 723.48) rotate(-89.704) scale(.08 -.08)">
<use xlink:href="#s"/>
</g>
</g>
<path d="m251.9 851.49v33.808q0 2.4 2.4 2.4h7.7425q2.4 0 2.4-2.4v-33.808q0-2.4-2.4-2.4h-7.7425q-2.4 0-2.4 2.4z" clip-path="url(#a)" fill="#fff" stroke="#fff"/>
<g clip-path="url(#a)">
<g transform="translate(255.97 851.49) rotate(90) scale(.08 -.08)">
<use xlink:href="#k"/>
<use x="44.083984" xlink:href="#d"/>
<use x="105.607422" xlink:href="#i"/>
<use x="144.970703" xlink:href="#j"/>
<use x="242.382812" xlink:href="#h"/>
<use x="270.166016" xlink:href="#g"/>
<use x="333.544922" xlink:href="#e"/>
<use x="394.824219" xlink:href="#l"/>
</g>
</g>
<path d="m281.88 851.49v33.808q0 2.4 2.4 2.4h7.7425q2.4 0 2.4-2.4v-33.808q0-2.4-2.4-2.4h-7.7425q-2.4 0-2.4 2.4z" clip-path="url(#a)" fill="#fff" stroke="#fff"/>
<g clip-path="url(#a)">
<g transform="translate(285.95 851.49) rotate(90) scale(.08 -.08)">
<use xlink:href="#k"/>
<use x="44.083984" xlink:href="#d"/>
<use x="105.607422" xlink:href="#i"/>
<use x="144.970703" xlink:href="#j"/>
<use x="242.382812" xlink:href="#h"/>
<use x="270.166016" xlink:href="#g"/>
<use x="333.544922" xlink:href="#e"/>
<use x="394.824219" xlink:href="#l"/>
</g>
</g>
<path d="m95.084 851.49v33.808q0 2.4 2.4 2.4h7.7425q2.4 0 2.4-2.4v-33.808q0-2.4-2.4-2.4h-7.7425q-2.4 0-2.4 2.4z" clip-path="url(#a)" fill="#fff" stroke="#fff"/>
<g clip-path="url(#a)">
<g transform="translate(99.148 851.49) rotate(90) scale(.08 -.08)">
<use xlink:href="#k"/>
<use x="44.083984" xlink:href="#d"/>
<use x="105.607422" xlink:href="#i"/>
<use x="144.970703" xlink:href="#j"/>
<use x="242.382812" xlink:href="#h"/>
<use x="270.166016" xlink:href="#g"/>
<use x="333.544922" xlink:href="#e"/>
<use x="394.824219" xlink:href="#l"/>
</g>
</g>
<path d="m175.8 851.49v33.808q0 2.4 2.4 2.4h7.7425q2.4 0 2.4-2.4v-33.808q0-2.4-2.4-2.4h-7.7425q-2.4 0-2.4 2.4z" clip-path="url(#a)" fill="#fff" stroke="#fff"/>
<g clip-path="url(#a)">
<g transform="translate(179.86 851.49) rotate(90) scale(.08 -.08)">
<use xlink:href="#k"/>
<use x="44.083984" xlink:href="#d"/>
<use x="105.607422" xlink:href="#i"/>
<use x="144.970703" xlink:href="#j"/>
<use x="242.382812" xlink:href="#h"/>
<use x="270.166016" xlink:href="#g"/>
<use x="333.544922" xlink:href="#e"/>
<use x="394.824219" xlink:href="#l"/>
</g>
</g>
<path d="m224.23 851.49v33.808q0 2.4 2.4 2.4h7.7425q2.4 0 2.4-2.4v-33.808q0-2.4-2.4-2.4h-7.7425q-2.4 0-2.4 2.4z" clip-path="url(#a)" fill="#fff" stroke="#fff"/>
<g clip-path="url(#a)">
<g transform="translate(228.29 851.49) rotate(90) scale(.08 -.08)">
<use xlink:href="#k"/>
<use x="44.083984" xlink:href="#d"/>
<use x="105.607422" xlink:href="#i"/>
<use x="144.970703" xlink:href="#j"/>
<use x="242.382812" xlink:href="#h"/>
<use x="270.166016" xlink:href="#g"/>
<use x="333.544922" xlink:href="#e"/>
<use x="394.824219" xlink:href="#l"/>
</g>
</g>
<path d="m78.941 851.49v33.808q0 2.4 2.4 2.4h7.7425q2.4 0 2.4-2.4v-33.808q0-2.4-2.4-2.4h-7.7425q-2.4 0-2.4 2.4z" clip-path="url(#a)" fill="#fff" stroke="#fff"/>
<g clip-path="url(#a)">
<g transform="translate(83.005 851.49) rotate(90) scale(.08 -.08)">
<use xlink:href="#k"/>
<use x="44.083984" xlink:href="#d"/>
<use x="105.607422" xlink:href="#i"/>
<use x="144.970703" xlink:href="#j"/>
<use x="242.382812" xlink:href="#h"/>
<use x="270.166016" xlink:href="#g"/>
<use x="333.544922" xlink:href="#e"/>
<use x="394.824219" xlink:href="#l"/>
</g>
</g>
<path d="m85.859 851.49v33.808q0 2.4 2.4 2.4h7.7425q2.4 0 2.4-2.4v-33.808q0-2.4-2.4-2.4h-7.7425q-2.4 0-2.4 2.4z" clip-path="url(#a)" fill="#fff" stroke="#fff"/>
<g clip-path="url(#a)">
<g transform="translate(89.923 851.49) rotate(90) scale(.08 -.08)">
<use xlink:href="#k"/>
<use x="44.083984" xlink:href="#d"/>
<use x="105.607422" xlink:href="#i"/>
<use x="144.970703" xlink:href="#j"/>
<use x="242.382812" xlink:href="#h"/>
<use x="270.166016" xlink:href="#g"/>
<use x="333.544922" xlink:href="#e"/>
<use x="394.824219" xlink:href="#l"/>
</g>
</g>
<path d="m314.17 851.49v33.808q0 2.4 2.4 2.4h7.7425q2.4 0 2.4-2.4v-33.808q0-2.4-2.4-2.4h-7.7425q-2.4 0-2.4 2.4z" clip-path="url(#a)" fill="#fff" stroke="#fff"/>
<g clip-path="url(#a)">
<g transform="translate(318.23 851.49) rotate(90) scale(.08 -.08)">
<use xlink:href="#k"/>
<use x="44.083984" xlink:href="#d"/>
<use x="105.607422" xlink:href="#i"/>
<use x="144.970703" xlink:href="#j"/>
<use x="242.382812" xlink:href="#h"/>
<use x="270.166016" xlink:href="#g"/>
<use x="333.544922" xlink:href="#e"/>
<use x="394.824219" xlink:href="#l"/>
</g>
</g>
<path d="m763.87 851.49v33.808q0 2.4 2.4 2.4h7.7425q2.4 0 2.4-2.4v-33.808q0-2.4-2.4-2.4h-7.7425q-2.4 0-2.4 2.4z" clip-path="url(#a)" fill="#fff" stroke="#fff"/>
<g clip-path="url(#a)">
<g transform="translate(767.93 851.49) rotate(90) scale(.08 -.08)">
<use xlink:href="#k"/>
<use x="44.083984" xlink:href="#d"/>
<use x="105.607422" xlink:href="#i"/>
<use x="144.970703" xlink:href="#j"/>
<use x="242.382812" xlink:href="#h"/>
<use x="270.166016" xlink:href="#g"/>
<use x="333.544922" xlink:href="#e"/>
<use x="394.824219" xlink:href="#l"/>
</g>
</g>
<path d="m1780.9 851.49v33.808q0 2.4 2.4 2.4h7.7425q2.4 0 2.4-2.4v-33.808q0-2.4-2.4-2.4h-7.7425q-2.4 0-2.4 2.4z" clip-path="url(#a)" fill="#fff" stroke="#fff"/>
<g clip-path="url(#a)">
<g transform="translate(1784.9 851.49) rotate(90) scale(.08 -.08)">
<use xlink:href="#k"/>
<use x="44.083984" xlink:href="#d"/>
<use x="105.607422" xlink:href="#i"/>
<use x="144.970703" xlink:href="#j"/>
<use x="242.382812" xlink:href="#h"/>
<use x="270.166016" xlink:href="#g"/>
<use x="333.544922" xlink:href="#e"/>
<use x="394.824219" xlink:href="#l"/>
</g>
</g>
<defs>
<path id="b" d="m0 8.6603c2.2967 0 4.4997-0.9125 6.1237-2.5365 1.624-1.624 2.5365-3.827 2.5365-6.1237s-0.9125-4.4997-2.5365-6.1237c-1.624-1.624-3.827-2.5365-6.1237-2.5365s-4.4997 0.9125-6.1237 2.5365c-1.624 1.624-2.5365 3.827-2.5365 6.1237s0.9125 4.4997 2.5365 6.1237c1.624 1.624 3.827 2.5365 6.1237 2.5365z"/>
</defs>
<g clip-path="url(#a)">
<use x="85.212121" y="941.818182" fill="#ffffff" stroke="#ffffff" xlink:href="#b"/>
</g>
<g clip-path="url(#a)">
<use x="92.130561" y="941.818182" fill="#ffffff" stroke="#ffffff" xlink:href="#b"/>
</g>
<g clip-path="url(#a)">
<use x="101.355148" y="941.818182" fill="#ffffff" stroke="#ffffff" xlink:href="#b"/>
</g>
<g clip-path="url(#a)">
<use x="112.885882" y="941.818182" fill="#ffffff" stroke="#ffffff" xlink:href="#b"/>
</g>
<g clip-path="url(#a)">
<use x="126.722762" y="941.818182" fill="#ffffff" stroke="#ffffff" xlink:href="#b"/>
</g>
<g clip-path="url(#a)">
<use x="142.865789" y="941.818182" fill="#ffffff" stroke="#ffffff" xlink:href="#b"/>
</g>
<g clip-path="url(#a)">
<use x="161.314963" y="941.818182" fill="#ffffff" stroke="#ffffff" xlink:href="#b"/>
</g>
<g clip-path="url(#a)">
<use x="182.070283" y="941.818182" fill="#ffffff" stroke="#ffffff" xlink:href="#b"/>
</g>
<g clip-path="url(#a)">
<use x="205.131751" y="941.818182" fill="#ffffff" stroke="#ffffff" xlink:href="#b"/>
</g>
<g clip-path="url(#a)">
<use x="230.499364" y="941.818182" fill="#ffffff" stroke="#ffffff" xlink:href="#b"/>
</g>
<g clip-path="url(#a)">
<use x="258.173125" y="941.818182" fill="#ffffff" stroke="#ffffff" xlink:href="#b"/>
</g>
<g clip-path="url(#a)">
<use x="288.153032" y="941.818182" fill="#ffffff" stroke="#ffffff" xlink:href="#b"/>
</g>
<g clip-path="url(#a)">
<use x="320.439086" y="941.818182" fill="#ffffff" stroke="#ffffff" xlink:href="#b"/>
</g>
<g clip-path="url(#a)">
<use x="355.031287" y="941.818182" fill="#ffffff" stroke="#ffffff" xlink:href="#b"/>
</g>
<g clip-path="url(#a)">
<use x="391.929635" y="941.818182" fill="#ffffff" stroke="#ffffff" xlink:href="#b"/>
</g>
<g clip-path="url(#a)">
<use x="431.134129" y="941.818182" fill="#ffffff" stroke="#ffffff" xlink:href="#b"/>
</g>
<g clip-path="url(#a)">
<use x="472.64477" y="941.818182" fill="#ffffff" stroke="#ffffff" xlink:href="#b"/>
</g>
<g clip-path="url(#a)">
<use x="516.461557" y="941.818182" fill="#ffffff" stroke="#ffffff" xlink:href="#b"/>
</g>
<g clip-path="url(#a)">
<use x="562.584492" y="941.818182" fill="#ffffff" stroke="#ffffff" xlink:href="#b"/>
</g>
<g clip-path="url(#a)">
<use x="611.013573" y="941.818182" fill="#ffffff" stroke="#ffffff" xlink:href="#b"/>
</g>
<g clip-path="url(#a)">
<use x="661.748801" y="941.818182" fill="#ffffff" stroke="#ffffff" xlink:href="#b"/>
</g>
<g clip-path="url(#a)">
<use x="714.790175" y="941.818182" fill="#ffffff" stroke="#ffffff" xlink:href="#b"/>
</g>
<g clip-path="url(#a)">
<use x="770.137696" y="941.818182" fill="#ffffff" stroke="#ffffff" xlink:href="#b"/>
</g>
<g clip-path="url(#a)">
<use x="827.791364" y="941.818182" fill="#ffffff" stroke="#ffffff" xlink:href="#b"/>
</g>
<g clip-path="url(#a)">
<use x="887.751179" y="941.818182" fill="#ffffff" stroke="#ffffff" xlink:href="#b"/>
</g>
<g clip-path="url(#a)">
<use x="950.01714" y="941.818182" fill="#ffffff" stroke="#ffffff" xlink:href="#b"/>
</g>
<g clip-path="url(#a)">
<use x="1014.589248" y="941.818182" fill="#ffffff" stroke="#ffffff" xlink:href="#b"/>
</g>
<g clip-path="url(#a)">
<use x="1081.467503" y="941.818182" fill="#ffffff" stroke="#ffffff" xlink:href="#b"/>
</g>
<g clip-path="url(#a)">
<use x="1150.651905" y="941.818182" fill="#ffffff" stroke="#ffffff" xlink:href="#b"/>
</g>
<g clip-path="url(#a)">
<use x="1222.142453" y="941.818182" fill="#ffffff" stroke="#ffffff" xlink:href="#b"/>
</g>
<g clip-path="url(#a)">
<use x="1295.939148" y="941.818182" fill="#ffffff" stroke="#ffffff" xlink:href="#b"/>
</g>
<g clip-path="url(#a)">
<use x="1372.04199" y="941.818182" fill="#ffffff" stroke="#ffffff" xlink:href="#b"/>
</g>
<g clip-path="url(#a)">
<use x="1450.450978" y="941.818182" fill="#ffffff" stroke="#ffffff" xlink:href="#b"/>
</g>
<g clip-path="url(#a)">
<use x="1531.166113" y="941.818182" fill="#ffffff" stroke="#ffffff" xlink:href="#b"/>
</g>
<g clip-path="url(#a)">
<use x="1614.187395" y="941.818182" fill="#ffffff" stroke="#ffffff" xlink:href="#b"/>
</g>
<g clip-path="url(#a)">
<use x="1699.514823" y="941.818182" fill="#ffffff" stroke="#ffffff" xlink:href="#b"/>
</g>
<g clip-path="url(#a)">
<use x="1787.148399" y="941.818182" fill="#ffffff" stroke="#ffffff" xlink:href="#b"/>
</g>
<g clip-path="url(#a)">
<use x="1789.454545" y="496.431244" fill="#ffffff" stroke="#ffffff" xlink:href="#b"/>
</g>
<g clip-path="url(#a)">
<use x="569.163721" y="44.848485" fill="#ffffff" stroke="#ffffff" xlink:href="#b"/>
</g>
<g clip-path="url(#a)">
<use x="170.240605" y="496.431244" fill="#ffffff" stroke="#ffffff" xlink:href="#b"/>
</g>
<g clip-path="url(#a)">
<use x="355.031287" y="794.977968" fill="#ffffff" stroke="#ffffff" xlink:href="#b"/>
</g>
<g clip-path="url(#a)">
<use x="545.288391" y="646.095045" fill="#ffffff" stroke="#ffffff" xlink:href="#b"/>
</g>
<g clip-path="url(#a)">
<use x="827.791364" y="794.977968" fill="#ffffff" stroke="#ffffff" xlink:href="#b"/>
</g>
<g clip-path="url(#a)">
<use x="995.217616" y="195.705" fill="#ffffff" stroke="#ffffff" xlink:href="#b"/>
</g>
<g clip-path="url(#a)">
<use x="887.751179" y="794.977968" fill="#ffffff" stroke="#ffffff" xlink:href="#b"/>
</g>
<g clip-path="url(#a)">
<use x="950.01714" y="794.977968" fill="#ffffff" stroke="#ffffff" xlink:href="#b"/>
</g>
<g clip-path="url(#a)">
<use x="1147.884529" y="346.258074" fill="#ffffff" stroke="#ffffff" xlink:href="#b"/>
</g>
<g clip-path="url(#a)">
<use x="1014.589248" y="794.977968" fill="#ffffff" stroke="#ffffff" xlink:href="#b"/>
</g>
<g clip-path="url(#a)">
<use x="1081.467503" y="794.977968" fill="#ffffff" stroke="#ffffff" xlink:href="#b"/>
</g>
<g clip-path="url(#a)">
<use x="1347.596834" y="496.431244" fill="#ffffff" stroke="#ffffff" xlink:href="#b"/>
</g>
<g clip-path="url(#a)">
<use x="1150.651905" y="794.977968" fill="#ffffff" stroke="#ffffff" xlink:href="#b"/>
</g>
<g clip-path="url(#a)">
<use x="1222.142453" y="794.977968" fill="#ffffff" stroke="#ffffff" xlink:href="#b"/>
</g>
<g clip-path="url(#a)">
<use x="1295.939148" y="794.977968" fill="#ffffff" stroke="#ffffff" xlink:href="#b"/>
</g>
<g clip-path="url(#a)">
<use x="1411.246484" y="646.095045" fill="#ffffff" stroke="#ffffff" xlink:href="#b"/>
</g>
<g clip-path="url(#a)">
<use x="1658.004183" y="646.095045" fill="#ffffff" stroke="#ffffff" xlink:href="#b"/>
</g>
<g clip-path="url(#a)">
<use x="1531.166113" y="794.977968" fill="#ffffff" stroke="#ffffff" xlink:href="#b"/>
</g>
<g clip-path="url(#a)">
<use x="1614.187395" y="794.977968" fill="#ffffff" stroke="#ffffff" xlink:href="#b"/>
</g>
<g clip-path="url(#a)">
<use x="1699.514823" y="794.977968" fill="#ffffff" stroke="#ffffff" xlink:href="#b"/>
</g>
<g clip-path="url(#a)">
<use x="1372.04199" y="794.977968" fill="#ffffff" stroke="#ffffff" xlink:href="#b"/>
</g>
<g clip-path="url(#a)">
<use x="1450.450978" y="794.977968" fill="#ffffff" stroke="#ffffff" xlink:href="#b"/>
</g>
<g clip-path="url(#a)">
<use x="391.929635" y="794.977968" fill="#ffffff" stroke="#ffffff" xlink:href="#b"/>
</g>
<g clip-path="url(#a)">
<use x="431.134129" y="794.977968" fill="#ffffff" stroke="#ffffff" xlink:href="#b"/>
</g>
<g clip-path="url(#a)">
<use x="472.64477" y="794.977968" fill="#ffffff" stroke="#ffffff" xlink:href="#b"/>
</g>
<g clip-path="url(#a)">
<use x="516.461557" y="794.977968" fill="#ffffff" stroke="#ffffff" xlink:href="#b"/>
</g>
<g clip-path="url(#a)">
<use x="562.584492" y="794.977968" fill="#ffffff" stroke="#ffffff" xlink:href="#b"/>
</g>
<g clip-path="url(#a)">
<use x="611.013573" y="794.977968" fill="#ffffff" stroke="#ffffff" xlink:href="#b"/>
</g>
<g clip-path="url(#a)">
<use x="661.748801" y="794.977968" fill="#ffffff" stroke="#ffffff" xlink:href="#b"/>
</g>
<g clip-path="url(#a)">
<use x="714.790175" y="794.977968" fill="#ffffff" stroke="#ffffff" xlink:href="#b"/>
</g>
<g clip-path="url(#a)">
<use x="88.671341" y="646.095045" fill="#ffffff" stroke="#ffffff" xlink:href="#b"/>
</g>
<g clip-path="url(#a)">
<use x="112.885882" y="794.977968" fill="#ffffff" stroke="#ffffff" xlink:href="#b"/>
</g>
<g clip-path="url(#a)">
<use x="126.722762" y="794.977968" fill="#ffffff" stroke="#ffffff" xlink:href="#b"/>
</g>
<g clip-path="url(#a)">
<use x="142.865789" y="794.977968" fill="#ffffff" stroke="#ffffff" xlink:href="#b"/>
</g>
<g clip-path="url(#a)">
<use x="182.838999" y="646.095045" fill="#ffffff" stroke="#ffffff" xlink:href="#b"/>
</g>
<g clip-path="url(#a)">
<use x="258.173125" y="794.977968" fill="#ffffff" stroke="#ffffff" xlink:href="#b"/>
</g>
<g clip-path="url(#a)">
<use x="288.153032" y="794.977968" fill="#ffffff" stroke="#ffffff" xlink:href="#b"/>
</g>
<g clip-path="url(#a)">
<use x="101.355148" y="794.977968" fill="#ffffff" stroke="#ffffff" xlink:href="#b"/>
</g>
<g clip-path="url(#a)">
<use x="182.070283" y="794.977968" fill="#ffffff" stroke="#ffffff" xlink:href="#b"/>
</g>
<g clip-path="url(#a)">
<use x="230.499364" y="794.977968" fill="#ffffff" stroke="#ffffff" xlink:href="#b"/>
</g>
<g clip-path="url(#a)">
<use x="85.212121" y="794.977968" fill="#ffffff" stroke="#ffffff" xlink:href="#b"/>
</g>
<g clip-path="url(#a)">
<use x="92.130561" y="794.977968" fill="#ffffff" stroke="#ffffff" xlink:href="#b"/>
</g>
<g clip-path="url(#a)">
<use x="320.439086" y="794.977968" fill="#ffffff" stroke="#ffffff" xlink:href="#b"/>
</g>
<g clip-path="url(#a)">
<use x="770.137696" y="794.977968" fill="#ffffff" stroke="#ffffff" xlink:href="#b"/>
</g>
<g clip-path="url(#a)">
<use x="1787.148399" y="794.977968" fill="#ffffff" stroke="#ffffff" xlink:href="#b"/>
</g>
<g clip-path="url(#a)">
<defs>
<path id="ae" d="m9.8125 72.906h9.8594v-72.906h-9.8594z"/>
</defs>
<g transform="translate(80.568 944.58) scale(.1 -.1)">
<use xlink:href="#ae"/>
<use x="29.492188" xlink:href="#g"/>
</g>
</g>
<g clip-path="url(#a)">
<defs>
<path id="m" d="m19.188 8.2969h34.422v-8.2969h-46.281v8.2969q5.6094 5.8125 15.297 15.594 9.7031 9.7969 12.188 12.641 4.7344 5.3125 6.6094 9 1.8906 3.6875 1.8906 7.25 0 5.8125-4.0781 9.4688-4.0781 3.6719-10.625 3.6719-4.6406 0-9.7969-1.6094-5.1406-1.6094-11-4.8906v9.9688q5.9531 2.3906 11.125 3.6094 5.1875 1.2188 9.4844 1.2188 11.328 0 18.062-5.6719 6.7344-5.6562 6.7344-15.125 0-4.5-1.6875-8.5312-1.6719-4.0156-6.125-9.4844-1.2188-1.4219-7.7656-8.1875-6.5312-6.7656-18.453-18.922z"/>
<path id="z" d="m31.781 66.406q-7.6094 0-11.453-7.5-3.8281-7.4844-3.8281-22.531 0-14.984 3.8281-22.484 3.8438-7.5 11.453-7.5 7.6719 0 11.5 7.5 3.8438 7.5 3.8438 22.484 0 15.047-3.8438 22.531-3.8281 7.5-11.5 7.5zm0 7.8125q12.266 0 18.734-9.7031 6.4688-9.6875 6.4688-28.141 0-18.406-6.4688-28.109-6.4688-9.6875-18.734-9.6875-12.25 0-18.719 9.6875-6.4688 9.7031-6.4688 28.109 0 18.453 6.4688 28.141 6.4688 9.7031 18.719 9.7031z"/>
<path id="c" d="m12.406 8.2969h16.109v55.625l-17.531-3.5156v8.9844l17.438 3.5156h9.8594v-64.609h16.109v-8.2969h-41.984z"/>
</defs>
<g transform="translate(79.406 944.58) scale(.1 -.1)">
<use xlink:href="#m"/>
<use x="63.623047" xlink:href="#z"/>
<use x="127.246094" xlink:href="#c"/>
<use x="190.869141" xlink:href="#c"/>
</g>
</g>
<g clip-path="url(#a)">
<defs>
<path id="ao" d="m11.719 12.406h10.297v-8.4062l-8-15.625h-6.2969l4 15.625z"/>
</defs>
<g transform="translate(99.766 944.58) scale(.1 -.1)">
<use xlink:href="#ao"/>
</g>
</g>
<g clip-path="url(#a)">
<defs>
<path id="ak" d="m18.109 8.2031v-29h-9.0312v75.484h9.0312v-8.2969q2.8438 4.875 7.1562 7.2344 4.3281 2.375 10.328 2.375 9.9688 0 16.188-7.9062 6.2344-7.9062 6.2344-20.797t-6.2344-20.812q-6.2188-7.9062-16.188-7.9062-6 0-10.328 2.375-4.3125 2.375-7.1562 7.25zm30.578 19.094q0 9.9062-4.0781 15.547t-11.203 5.6406q-7.1406 0-11.219-5.6406t-4.0781-15.547 4.0781-15.547 11.219-5.6406q7.125 0 11.203 5.6406t4.0781 15.547z"/>
</defs>
<g transform="translate(99.611 944.58) scale(.1 -.1)">
<use xlink:href="#t"/>
<use x="77.001953" xlink:href="#d"/>
<use x="138.525391" xlink:href="#ak"/>
<use x="202.001953" xlink:href="#ak"/>
</g>
</g>
<g clip-path="url(#a)">
<defs>
<path id="ac" d="m48.688 27.297q0 9.9062-4.0781 15.547t-11.203 5.6406q-7.1406 0-11.219-5.6406t-4.0781-15.547 4.0781-15.547 11.219-5.6406q7.125 0 11.203 5.6406t4.0781 15.547zm-30.578 19.094q2.8438 4.875 7.1562 7.2344 4.3281 2.375 10.328 2.375 9.9688 0 16.188-7.9062 6.2344-7.9062 6.2344-20.797t-6.2344-20.812q-6.2188-7.9062-16.188-7.9062-6 0-10.328 2.375-4.3125 2.375-7.1562 7.25v-8.2031h-9.0312v75.984h9.0312z"/>
<path id="r" d="m48.781 52.594v-8.4062q-3.8125 2.1094-7.6406 3.1562t-7.7344 1.0469q-8.75 0-13.594-5.5469-4.8281-5.5312-4.8281-15.547t4.8281-15.562q4.8438-5.5312 13.594-5.5312 3.9062 0 7.7344 1.0469t7.6406 3.1562v-8.3125q-3.7656-1.75-7.7969-2.625-4.0156-0.89062-8.5625-0.89062-12.359 0-19.641 7.7656-7.2656 7.7656-7.2656 20.953 0 13.375 7.3438 21.031 7.3594 7.6719 20.156 7.6719 4.1406 0 8.0938-0.85938 3.9531-0.84375 7.6719-2.5469z"/>
</defs>
<g transform="translate(106.71 944.58) scale(.1 -.1)">
<use xlink:href="#ac"/>
<use x="63.476562" xlink:href="#d"/>
<use x="125" xlink:href="#r"/>
<use x="179.980469" xlink:href="#e"/>
<use x="241.259766" xlink:href="#j"/>
<use x="338.671875" xlink:href="#d"/>
</g>
</g>
<g clip-path="url(#a)">
<g transform="translate(139.8 944.58) scale(.1 -.1)">
<use xlink:href="#e"/>
</g>
</g>
<g clip-path="url(#a)">
<g transform="translate(157.66 944.58) scale(.1 -.1)">
<use xlink:href="#s"/>
</g>
</g>
<g clip-path="url(#a)">
<defs>
<path id="f" d="m10.688 12.406h10.312v-12.406h-10.312z"/>
</defs>
<g transform="translate(180.48 944.58) scale(.1 -.1)">
<use xlink:href="#f"/>
</g>
</g>
<g clip-path="url(#a)">
<g transform="translate(201.96 944.58) scale(.1 -.1)">
<use xlink:href="#al"/>
</g>
</g>
<g clip-path="url(#a)">
<g transform="translate(228.91 944.58) scale(.1 -.1)">
<use xlink:href="#f"/>
</g>
</g>
<g clip-path="url(#a)">
<defs>
<path id="aa" d="m44.281 53.078v-8.5q-3.7969 1.9531-7.9062 2.9219-4.0938 0.98438-8.5 0.98438-6.6875 0-10.031-2.0469t-3.3438-6.1562q0-3.125 2.3906-4.9062t9.625-3.3906l3.0781-0.6875q9.5625-2.0469 13.594-5.7812t4.0312-10.422q0-7.625-6.0312-12.078-6.0312-4.4375-16.578-4.4375-4.3906 0-9.1562 0.85938t-10.031 2.5625v9.2812q4.9844-2.5938 9.8125-3.8906 4.8281-1.2812 9.5781-1.2812 6.3438 0 9.75 2.1719 3.4219 2.1719 3.4219 6.125 0 3.6562-2.4688 5.6094-2.4531 1.9531-10.812 3.7656l-3.125 0.73438q-8.3438 1.75-12.062 5.3906-3.7031 3.6406-3.7031 9.9844 0 7.7188 5.4688 11.906 5.4688 4.2031 15.531 4.2031 4.9688 0 9.3594-0.73438 4.4062-0.71875 8.1094-2.1875z"/>
<path id="ab" d="m45.406 46.391v29.594h8.9844v-75.984h-8.9844v8.2031q-2.8281-4.875-7.1562-7.25-4.3125-2.375-10.375-2.375-9.9062 0-16.141 7.9062-6.2188 7.9219-6.2188 20.812t6.2188 20.797q6.2344 7.9062 16.141 7.9062 6.0625 0 10.375-2.375 4.3281-2.3594 7.1562-7.2344zm-30.609-19.094q0-9.9062 4.0781-15.547t11.203-5.6406 11.219 5.6406q4.1094 5.6406 4.1094 15.547t-4.1094 15.547q-4.0938 5.6406-11.219 5.6406t-11.203-5.6406-4.0781-15.547z"/>
<path id="q" d="m18.312 70.219v-15.531h18.5v-6.9844h-18.5v-29.688q0-6.6875 1.8281-8.5938t7.4531-1.9062h9.2188v-7.5156h-9.2188q-10.406 0-14.359 3.875-3.9531 3.8906-3.9531 14.141v29.688h-6.5938v6.9844h6.5938v15.531z"/>
</defs>
<g transform="translate(237.78 944.58) scale(.1 -.1)">
<use xlink:href="#i"/>
<use x="38.863281" xlink:href="#d"/>
<use x="100.386719" xlink:href="#aa"/>
<use x="152.486328" xlink:href="#h"/>
<use x="180.269531" xlink:href="#ab"/>
<use x="243.746094" xlink:href="#d"/>
<use x="305.269531" xlink:href="#g"/>
<use x="368.648438" xlink:href="#q"/>
</g>
</g>
<g clip-path="url(#a)">
<defs>
<path id="ax" d="m45.406 27.984q0 9.7656-4.0312 15.125-4.0156 5.375-11.297 5.375-7.2188 0-11.25-5.375-4.0312-5.3594-4.0312-15.125 0-9.7188 4.0312-15.094t11.25-5.375q7.2812 0 11.297 5.375 4.0312 5.375 4.0312 15.094zm8.9844-21.203q0-13.953-6.2031-20.766-6.1875-6.8125-18.984-6.8125-4.7344 0-8.9375 0.70312t-8.1562 2.1719v8.7344q3.9531-2.1406 7.8125-3.1562 3.8594-1.0312 7.8594-1.0312 8.8438 0 13.234 4.6094t4.3906 13.938v4.4531q-2.7812-4.8438-7.125-7.2344t-10.406-2.3906q-10.047 0-16.203 7.6562-6.1562 7.6719-6.1562 20.328 0 12.688 6.1562 20.344 6.1562 7.6719 16.203 7.6719 6.0625 0 10.406-2.3906t7.125-7.2188v8.2969h8.9844z"/>
</defs>
<g transform="translate(274.29 944.58) scale(.1 -.1)">
<use xlink:href="#e"/>
<use x="61.279297" xlink:href="#ax"/>
<use x="124.755859" xlink:href="#e"/>
<use x="186.035156" xlink:href="#h"/>
<use x="213.818359" xlink:href="#g"/>
</g>
</g>
<g clip-path="url(#a)">
<g transform="translate(318.85 944.58) scale(.1 -.1)">
<use xlink:href="#ao"/>
</g>
</g>
<g clip-path="url(#a)">
<defs>
<path id="aj" d="m8.5 21.578v33.109h8.9844v-32.766q0-7.7656 3.0156-11.656 3.0312-3.875 9.0938-3.875 7.2656 0 11.484 4.6406 4.2344 4.6406 4.2344 12.656v31h8.9844v-54.688h-8.9844v8.4062q-3.2656-4.9844-7.5938-7.4062-4.3125-2.4219-10.031-2.4219-9.4219 0-14.312 5.8594-4.875 5.8594-4.875 17.141z"/>
</defs>
<g transform="translate(334.12 944.58) scale(.1 -.1)">
<use xlink:href="#ac"/>
<use x="63.476562" xlink:href="#d"/>
<use x="125" xlink:href="#r"/>
<use x="179.980469" xlink:href="#e"/>
<use x="241.259766" xlink:href="#aj"/>
<use x="304.638672" xlink:href="#aa"/>
<use x="356.738281" xlink:href="#d"/>
</g>
</g>
<g clip-path="url(#a)">
<g transform="translate(375.3 944.58) scale(.1 -.1)">
<use xlink:href="#w"/>
<use x="50.269531" xlink:href="#i"/>
<use x="91.382812" xlink:href="#e"/>
<use x="152.662109" xlink:href="#g"/>
<use x="216.041016" xlink:href="#r"/>
<use x="271.021484" xlink:href="#d"/>
</g>
</g>
<g clip-path="url(#a)">
<defs>
<path id="ap" d="m4.2031 54.688h8.9844l11.234-42.672 11.172 42.672h10.594l11.234-42.672 11.188 42.672h8.9844l-14.312-54.688h-10.594l-11.766 44.828-11.812-44.828h-10.609z"/>
</defs>
<g transform="translate(412.6 944.58) scale(.1 -.1)">
<use xlink:href="#ap"/>
<use x="81.787109" xlink:href="#e"/>
<use x="143.066406" xlink:href="#g"/>
<use x="206.445312" xlink:href="#q"/>
<use x="245.654297" xlink:href="#d"/>
<use x="307.177734" xlink:href="#ab"/>
</g>
</g>
<g clip-path="url(#a)">
<defs>
<path id="v" d="m54.891 33.016v-33.016h-8.9844v32.719q0 7.7656-3.0312 11.609-3.0312 3.8594-9.0781 3.8594-7.2812 0-11.484-4.6406-4.2031-4.625-4.2031-12.641v-30.906h-9.0312v75.984h9.0312v-29.797q3.2344 4.9375 7.5938 7.375 4.375 2.4375 10.094 2.4375 9.4219 0 14.25-5.8281 4.8438-5.8281 4.8438-17.156z"/>
</defs>
<g transform="translate(463.22 944.58) scale(.1 -.1)">
<use xlink:href="#v"/>
<use x="63.378906" xlink:href="#h"/>
<use x="91.162109" xlink:href="#j"/>
</g>
</g>
<g clip-path="url(#a)">
<defs>
<path id="u" d="m30.609 48.391q-7.2188 0-11.422-5.6406t-4.2031-15.453 4.1719-15.453q4.1875-5.6406 11.453-5.6406 7.1875 0 11.375 5.6562 4.2031 5.6719 4.2031 15.438 0 9.7188-4.2031 15.406-4.1875 5.6875-11.375 5.6875zm0 7.6094q11.719 0 18.406-7.625 6.7031-7.6094 6.7031-21.078 0-13.422-6.7031-21.078-6.6875-7.6406-18.406-7.6406-11.766 0-18.438 7.6406-6.6562 7.6562-6.6562 21.078 0 13.469 6.6562 21.078 6.6719 7.625 18.438 7.625z"/>
</defs>
<g transform="translate(511.44 944.58) scale(.1 -.1)">
<use xlink:href="#q"/>
<use x="39.208984" xlink:href="#u"/>
</g>
</g>
<g clip-path="url(#a)">
<g transform="translate(542.58 944.58) scale(.1 -.1)">
<use xlink:href="#ac"/>
<use x="63.476562" xlink:href="#d"/>
<use x="125" xlink:href="#r"/>
<use x="179.980469" xlink:href="#u"/>
<use x="241.162109" xlink:href="#j"/>
<use x="338.574219" xlink:href="#d"/>
</g>
</g>
<g clip-path="url(#a)">
<g transform="translate(607.95 944.58) scale(.1 -.1)">
<use xlink:href="#e"/>
</g>
</g>
<g clip-path="url(#a)">
<g transform="translate(634.22 944.58) scale(.1 -.1)">
<use xlink:href="#ak"/>
<use x="63.476562" xlink:href="#d"/>
<use x="125" xlink:href="#i"/>
<use x="164.363281" xlink:href="#j"/>
<use x="261.775391" xlink:href="#e"/>
<use x="323.054688" xlink:href="#g"/>
<use x="386.433594" xlink:href="#d"/>
<use x="447.957031" xlink:href="#g"/>
<use x="511.335938" xlink:href="#q"/>
</g>
</g>
<g clip-path="url(#a)">
<g transform="translate(694.4 944.58) scale(.1 -.1)">
<use xlink:href="#i"/>
<use x="38.863281" xlink:href="#d"/>
<use x="100.386719" xlink:href="#aa"/>
<use x="152.486328" xlink:href="#h"/>
<use x="180.269531" xlink:href="#ab"/>
<use x="243.746094" xlink:href="#d"/>
<use x="305.269531" xlink:href="#g"/>
<use x="368.648438" xlink:href="#q"/>
</g>
</g>
<g clip-path="url(#a)">
<g transform="translate(768.55 944.58) scale(.1 -.1)">
<use xlink:href="#ao"/>
</g>
</g>
<g clip-path="url(#a)">
<g transform="translate(813.23 944.58) scale(.1 -.1)">
<use xlink:href="#ap"/>
<use x="81.787109" xlink:href="#v"/>
<use x="145.166016" xlink:href="#h"/>
<use x="172.949219" xlink:href="#r"/>
<use x="227.929688" xlink:href="#v"/>
</g>
</g>
<g clip-path="url(#a)">
<g transform="translate(881.51 944.58) scale(.1 -.1)">
<use xlink:href="#v"/>
<use x="63.378906" xlink:href="#d"/>
</g>
</g>
<g clip-path="url(#a)">
<g transform="translate(939.79 944.58) scale(.1 -.1)">
<use xlink:href="#aa"/>
<use x="52.099609" xlink:href="#e"/>
<use x="113.378906" xlink:href="#h"/>
<use x="141.162109" xlink:href="#ab"/>
</g>
</g>
<g clip-path="url(#a)">
<g transform="translate(999.71 944.58) scale(.1 -.1)">
<use xlink:href="#ap"/>
<use x="81.787109" xlink:href="#u"/>
<use x="142.96875" xlink:href="#aj"/>
<use x="206.347656" xlink:href="#l"/>
<use x="234.130859" xlink:href="#ab"/>
</g>
</g>
<g clip-path="url(#a)">
<defs>
<path id="aw" d="m14.797 27.297q0-9.9062 4.0781-15.547t11.203-5.6406 11.219 5.6406q4.1094 5.6406 4.1094 15.547t-4.1094 15.547q-4.0938 5.6406-11.219 5.6406t-11.203-5.6406-4.0781-15.547zm30.609-19.094q-2.8281-4.875-7.1562-7.25-4.3125-2.375-10.375-2.375-9.9062 0-16.141 7.9062-6.2188 7.9219-6.2188 20.812t6.2188 20.797q6.2344 7.9062 16.141 7.9062 6.0625 0 10.375-2.375 4.3281-2.3594 7.1562-7.2344v8.2969h8.9844v-75.484h-8.9844z"/>
</defs>
<g transform="translate(1063.7 944.58) scale(.1 -.1)">
<use xlink:href="#i"/>
<use x="38.863281" xlink:href="#d"/>
<use x="100.386719" xlink:href="#aw"/>
<use x="163.863281" xlink:href="#aj"/>
<use x="227.242188" xlink:href="#h"/>
<use x="255.025391" xlink:href="#i"/>
<use x="293.888672" xlink:href="#d"/>
</g>
</g>
<g clip-path="url(#a)">
<g transform="translate(1141.2 944.58) scale(.1 -.1)">
<use xlink:href="#v"/>
<use x="63.378906" xlink:href="#h"/>
<use x="91.162109" xlink:href="#j"/>
</g>
</g>
<g clip-path="url(#a)">
<g transform="translate(1217.1 944.58) scale(.1 -.1)">
<use xlink:href="#q"/>
<use x="39.208984" xlink:href="#u"/>
</g>
</g>
<g clip-path="url(#a)">
<defs>
<path id="au" d="m32.172-5.0781q-3.7969-9.7656-7.4219-12.734-3.6094-2.9844-9.6562-2.9844h-7.1875v7.5156h5.2812q3.7031 0 5.75 1.7656 2.0625 1.75 4.5469 8.2969l1.6094 4.0938-22.109 53.812h9.5156l17.094-42.766 17.094 42.766h9.5156z"/>
</defs>
<g transform="translate(1286.7 944.58) scale(.1 -.1)">
<use xlink:href="#ak"/>
<use x="63.476562" xlink:href="#e"/>
<use x="124.755859" xlink:href="#au"/>
</g>
</g>
<g clip-path="url(#a)">
<g transform="translate(1353.7 944.58) scale(.1 -.1)">
<use xlink:href="#h"/>
<use x="27.783203" xlink:href="#g"/>
<use x="91.162109" xlink:href="#r"/>
<use x="146.142578" xlink:href="#u"/>
<use x="207.324219" xlink:href="#j"/>
<use x="304.736328" xlink:href="#d"/>
</g>
</g>
<g clip-path="url(#a)">
<defs>
<path id="av" d="m54.891 54.688-19.781-26.609 20.797-28.078h-10.594l-15.922 21.484-15.906-21.484h-10.609l21.25 28.609-19.438 26.078h10.594l14.5-19.484 14.5 19.484z"/>
</defs>
<g transform="translate(1442.5 944.58) scale(.1 -.1)">
<use xlink:href="#q"/>
<use x="39.208984" xlink:href="#e"/>
<use x="100.488281" xlink:href="#av"/>
</g>
</g>
<g clip-path="url(#a)">
<g transform="translate(1526.6 944.58) scale(.1 -.1)">
<use xlink:href="#h"/>
<use x="27.783203" xlink:href="#g"/>
</g>
</g>
<g clip-path="url(#a)">
<g transform="translate(1602.8 944.58) scale(.1 -.1)">
<use xlink:href="#ac"/>
<use x="63.476562" xlink:href="#u"/>
<use x="124.658203" xlink:href="#q"/>
<use x="163.867188" xlink:href="#v"/>
</g>
</g>
<g clip-path="url(#a)">
<g transform="translate(1676.3 944.58) scale(.1 -.1)">
<use xlink:href="#r"/>
<use x="54.980469" xlink:href="#u"/>
<use x="116.162109" xlink:href="#aj"/>
<use x="179.541016" xlink:href="#g"/>
<use x="242.919922" xlink:href="#q"/>
<use x="282.128906" xlink:href="#i"/>
<use x="323.242188" xlink:href="#h"/>
<use x="351.025391" xlink:href="#d"/>
<use x="412.548828" xlink:href="#aa"/>
</g>
</g>
<g clip-path="url(#a)">
<g transform="translate(1785.6 944.58) scale(.1 -.1)">
<use xlink:href="#f"/>
</g>
</g>
<g clip-path="url(#a)">
<defs>
<path id="as" d="m9.8125 72.906h14.703l18.594-49.609 18.703 49.609h14.703v-72.906h-9.625v64.016l-18.797-50h-9.9062l-18.797 50v-64.016h-9.5781z"/>
</defs>
<g transform="translate(1768.4 499.19) scale(.1 -.1)">
<use xlink:href="#ae"/>
<use x="29.492188" xlink:href="#as"/>
<use x="115.771484" xlink:href="#ad"/>
<use x="176.074219" xlink:href="#am"/>
<use x="231.787109" xlink:href="#ae"/>
<use x="261.279297" xlink:href="#af"/>
<use x="331.103516" xlink:href="#ae"/>
<use x="360.595703" xlink:href="#k"/>
</g>
</g>
<g clip-path="url(#a)">
<g transform="translate(561.21 47.608) scale(.1 -.1)">
<use xlink:href="#c"/>
<use x="63.623047" xlink:href="#f"/>
<use x="95.410156" xlink:href="#c"/>
</g>
</g>
<g clip-path="url(#a)">
<g transform="translate(162.29 499.19) scale(.1 -.1)">
<use xlink:href="#c"/>
<use x="63.623047" xlink:href="#f"/>
<use x="95.410156" xlink:href="#m"/>
</g>
</g>
<g clip-path="url(#a)">
<defs>
<path id="o" d="m40.578 39.312q7.0781-1.5156 11.047-6.3125 3.9844-4.7812 3.9844-11.812 0-10.781-7.4219-16.703-7.4219-5.9062-21.094-5.9062-4.5781 0-9.4375 0.90625t-10.031 2.7188v9.5156q4.0938-2.3906 8.9688-3.6094 4.8906-1.2188 10.219-1.2188 9.2656 0 14.125 3.6562t4.8594 10.641q0 6.4531-4.5156 10.078-4.5156 3.6406-12.562 3.6406h-8.5v8.1094h8.8906q7.2656 0 11.125 2.9062t3.8594 8.375q0 5.6094-3.9844 8.6094-3.9688 3.0156-11.391 3.0156-4.0625 0-8.7031-0.89062-4.6406-0.875-10.203-2.7188v8.7812q5.625 1.5625 10.531 2.3438t9.25 0.78125q11.234 0 17.766-5.1094 6.5469-5.0938 6.5469-13.781 0-6.0625-3.4688-10.234t-9.8594-5.7812z"/>
</defs>
<g transform="translate(347.08 797.74) scale(.1 -.1)">
<use xlink:href="#c"/>
<use x="63.623047" xlink:href="#f"/>
<use x="95.410156" xlink:href="#o"/>
</g>
</g>
<g clip-path="url(#a)">
<defs>
<path id="n" d="m37.797 64.312-24.906-38.922h24.906zm-2.5938 8.5938h12.406v-47.516h10.406v-8.2031h-10.406v-17.188h-9.8125v17.188h-32.906v9.5156z"/>
</defs>
<g transform="translate(537.34 648.85) scale(.1 -.1)">
<use xlink:href="#c"/>
<use x="63.623047" xlink:href="#f"/>
<use x="95.410156" xlink:href="#n"/>
</g>
</g>
<g clip-path="url(#a)">
<defs>
<path id="y" d="m10.797 72.906h38.719v-8.3125h-29.688v-17.859q2.1406 0.73438 4.2812 1.0938 2.1562 0.35938 4.3125 0.35938 12.203 0 19.328-6.6875 7.1406-6.6875 7.1406-18.109 0-11.766-7.3281-18.297-7.3281-6.5156-20.656-6.5156-4.5938 0-9.3594 0.78125-4.75 0.78125-9.8281 2.3438v9.9219q4.3906-2.3906 9.0781-3.5625t9.9062-1.1719q8.4531 0 13.375 4.4375 4.9375 4.4375 4.9375 12.062 0 7.6094-4.9375 12.047-4.9219 4.4531-13.375 4.4531-3.9531 0-7.8906-0.875-3.9219-0.875-8.0156-2.7344z"/>
</defs>
<g transform="translate(819.84 797.74) scale(.1 -.1)">
<use xlink:href="#c"/>
<use x="63.623047" xlink:href="#f"/>
<use x="95.410156" xlink:href="#y"/>
</g>
</g>
<g clip-path="url(#a)">
<defs>
<path id="x" d="m33.016 40.375q-6.6406 0-10.531-4.5469-3.875-4.5312-3.875-12.438 0-7.8594 3.875-12.438 3.8906-4.5625 10.531-4.5625t10.516 4.5625q3.875 4.5781 3.875 12.438 0 7.9062-3.875 12.438-3.875 4.5469-10.516 4.5469zm19.578 30.922v-8.9844q-3.7188 1.75-7.5 2.6719-3.7812 0.9375-7.5 0.9375-9.7656 0-14.922-6.5938-5.1406-6.5938-5.875-19.922 2.875 4.25 7.2188 6.5156 4.3594 2.2656 9.5781 2.2656 10.984 0 17.359-6.6719 6.375-6.6562 6.375-18.125 0-11.234-6.6406-18.031-6.6406-6.7812-17.672-6.7812-12.656 0-19.344 9.6875-6.6875 9.7031-6.6875 28.109 0 17.281 8.2031 27.562t22.016 10.281q3.7188 0 7.5-0.73438t7.8906-2.1875z"/>
</defs>
<g transform="translate(987.27 198.46) scale(.1 -.1)">
<use xlink:href="#c"/>
<use x="63.623047" xlink:href="#f"/>
<use x="95.410156" xlink:href="#x"/>
</g>
</g>
<g clip-path="url(#a)">
<g transform="translate(876.62 797.74) scale(.1 -.1)">
<use xlink:href="#c"/>
<use x="63.623047" xlink:href="#f"/>
<use x="95.410156" xlink:href="#c"/>
<use x="159.033203" xlink:href="#z"/>
</g>
</g>
<g clip-path="url(#a)">
<g transform="translate(938.88 797.74) scale(.1 -.1)">
<use xlink:href="#c"/>
<use x="63.623047" xlink:href="#f"/>
<use x="95.410156" xlink:href="#c"/>
<use x="159.033203" xlink:href="#c"/>
</g>
</g>
<g clip-path="url(#a)">
<g transform="translate(1136.8 349.02) scale(.1 -.1)">
<use xlink:href="#c"/>
<use x="63.623047" xlink:href="#f"/>
<use x="95.410156" xlink:href="#c"/>
<use x="159.033203" xlink:href="#m"/>
</g>
</g>
<g clip-path="url(#a)">
<g transform="translate(1003.5 797.74) scale(.1 -.1)">
<use xlink:href="#c"/>
<use x="63.623047" xlink:href="#f"/>
<use x="95.410156" xlink:href="#c"/>
<use x="159.033203" xlink:href="#n"/>
</g>
</g>
<g clip-path="url(#a)">
<g transform="translate(1070.3 797.74) scale(.1 -.1)">
<use xlink:href="#c"/>
<use x="63.623047" xlink:href="#f"/>
<use x="95.410156" xlink:href="#c"/>
<use x="159.033203" xlink:href="#y"/>
</g>
</g>
<g clip-path="url(#a)">
<g transform="translate(1336.5 499.19) scale(.1 -.1)">
<use xlink:href="#c"/>
<use x="63.623047" xlink:href="#f"/>
<use x="95.410156" xlink:href="#c"/>
<use x="159.033203" xlink:href="#x"/>
</g>
</g>
<g clip-path="url(#a)">
<defs>
<path id="ai" d="m8.2031 72.906h46.875v-4.2031l-26.469-68.703h-10.297l24.906 64.594h-35.016z"/>
</defs>
<g transform="translate(1139.5 797.74) scale(.1 -.1)">
<use xlink:href="#c"/>
<use x="63.623047" xlink:href="#f"/>
<use x="95.410156" xlink:href="#c"/>
<use x="159.033203" xlink:href="#ai"/>
</g>
</g>
<g clip-path="url(#a)">
<defs>
<path id="ah" d="m31.781 34.625q-7.0312 0-11.062-3.7656-4.0156-3.7656-4.0156-10.344 0-6.5938 4.0156-10.359 4.0312-3.7656 11.062-3.7656t11.078 3.7812q4.0625 3.7969 4.0625 10.344 0 6.5781-4.0312 10.344-4.0156 3.7656-11.109 3.7656zm-9.8594 4.1875q-6.3438 1.5625-9.8906 5.9062-3.5312 4.3594-3.5312 10.609 0 8.7344 6.2188 13.812 6.2344 5.0781 17.062 5.0781 10.891 0 17.094-5.0781t6.2031-13.812q0-6.25-3.5469-10.609-3.5312-4.3438-9.8281-5.9062 7.125-1.6562 11.094-6.5 3.9844-4.8281 3.9844-11.797 0-10.609-6.4688-16.281-6.4688-5.6562-18.531-5.6562-12.047 0-18.531 5.6562-6.4688 5.6719-6.4688 16.281 0 6.9688 4 11.797 4.0156 4.8438 11.141 6.5zm-3.6094 15.578q0-5.6562 3.5312-8.8281 3.5469-3.1719 9.9375-3.1719 6.3594 0 9.9375 3.1719 3.5938 3.1719 3.5938 8.8281 0 5.6719-3.5938 8.8438-3.5781 3.1719-9.9375 3.1719-6.3906 0-9.9375-3.1719-3.5312-3.1719-3.5312-8.8438z"/>
</defs>
<g transform="translate(1211 797.74) scale(.1 -.1)">
<use xlink:href="#c"/>
<use x="63.623047" xlink:href="#f"/>
<use x="95.410156" xlink:href="#c"/>
<use x="159.033203" xlink:href="#ah"/>
</g>
</g>
<g clip-path="url(#a)">
<defs>
<path id="ag" d="m10.984 1.5156v8.9844q3.7188-1.7656 7.5156-2.6875 3.8125-0.92188 7.4844-0.92188 9.7656 0 14.906 6.5625 5.1562 6.5625 5.8906 19.953-2.8281-4.2031-7.1875-6.4531-4.3438-2.25-9.6094-2.25-10.938 0-17.312 6.6094-6.375 6.625-6.375 18.109 0 11.219 6.6406 18 6.6406 6.7969 17.672 6.7969 12.656 0 19.312-9.7031 6.6719-9.6875 6.6719-28.141 0-17.234-8.1875-27.516-8.1719-10.281-21.984-10.281-3.7188 0-7.5312 0.73438-3.7969 0.73438-7.9062 2.2031zm19.625 30.906q6.6406 0 10.516 4.5312 3.8906 4.5469 3.8906 12.469 0 7.8594-3.8906 12.422-3.875 4.5625-10.516 4.5625t-10.516-4.5625-3.875-12.422q0-7.9219 3.875-12.469 3.875-4.5312 10.516-4.5312z"/>
</defs>
<g transform="translate(1284.8 797.74) scale(.1 -.1)">
<use xlink:href="#c"/>
<use x="63.623047" xlink:href="#f"/>
<use x="95.410156" xlink:href="#c"/>
<use x="159.033203" xlink:href="#ag"/>
</g>
</g>
<g clip-path="url(#a)">
<g transform="translate(1400.1 648.85) scale(.1 -.1)">
<use xlink:href="#c"/>
<use x="63.623047" xlink:href="#f"/>
<use x="95.410156" xlink:href="#m"/>
<use x="159.033203" xlink:href="#z"/>
</g>
</g>
<g clip-path="url(#a)">
<g transform="translate(1646.9 648.85) scale(.1 -.1)">
<use xlink:href="#c"/>
<use x="63.623047" xlink:href="#f"/>
<use x="95.410156" xlink:href="#m"/>
<use x="159.033203" xlink:href="#c"/>
</g>
</g>
<g clip-path="url(#a)">
<g transform="translate(1520 797.74) scale(.1 -.1)">
<use xlink:href="#c"/>
<use x="63.623047" xlink:href="#f"/>
<use x="95.410156" xlink:href="#m"/>
<use x="159.033203" xlink:href="#m"/>
</g>
</g>
<g clip-path="url(#a)">
<g transform="translate(1603.1 797.74) scale(.1 -.1)">
<use xlink:href="#c"/>
<use x="63.623047" xlink:href="#f"/>
<use x="95.410156" xlink:href="#m"/>
<use x="159.033203" xlink:href="#o"/>
</g>
</g>
<g clip-path="url(#a)">
<g transform="translate(1688.4 797.74) scale(.1 -.1)">
<use xlink:href="#c"/>
<use x="63.623047" xlink:href="#f"/>
<use x="95.410156" xlink:href="#m"/>
<use x="159.033203" xlink:href="#n"/>
</g>
</g>
<g clip-path="url(#a)">
<g transform="translate(1360.9 797.74) scale(.1 -.1)">
<use xlink:href="#c"/>
<use x="63.623047" xlink:href="#f"/>
<use x="95.410156" xlink:href="#m"/>
<use x="159.033203" xlink:href="#y"/>
</g>
</g>
<g clip-path="url(#a)">
<g transform="translate(1439.3 797.74) scale(.1 -.1)">
<use xlink:href="#c"/>
<use x="63.623047" xlink:href="#f"/>
<use x="95.410156" xlink:href="#m"/>
<use x="159.033203" xlink:href="#x"/>
</g>
</g>
<g clip-path="url(#a)">
<g transform="translate(380.8 797.74) scale(.1 -.1)">
<use xlink:href="#c"/>
<use x="63.623047" xlink:href="#f"/>
<use x="95.410156" xlink:href="#m"/>
<use x="159.033203" xlink:href="#ai"/>
</g>
</g>
<g clip-path="url(#a)">
<g transform="translate(420 797.74) scale(.1 -.1)">
<use xlink:href="#c"/>
<use x="63.623047" xlink:href="#f"/>
<use x="95.410156" xlink:href="#m"/>
<use x="159.033203" xlink:href="#ah"/>
</g>
</g>
<g clip-path="url(#a)">
<g transform="translate(461.51 797.74) scale(.1 -.1)">
<use xlink:href="#c"/>
<use x="63.623047" xlink:href="#f"/>
<use x="95.410156" xlink:href="#m"/>
<use x="159.033203" xlink:href="#ag"/>
</g>
</g>
<g clip-path="url(#a)">
<g transform="translate(505.33 797.74) scale(.1 -.1)">
<use xlink:href="#c"/>
<use x="63.623047" xlink:href="#f"/>
<use x="95.410156" xlink:href="#o"/>
<use x="159.033203" xlink:href="#z"/>
</g>
</g>
<g clip-path="url(#a)">
<g transform="translate(551.45 797.74) scale(.1 -.1)">
<use xlink:href="#c"/>
<use x="63.623047" xlink:href="#f"/>
<use x="95.410156" xlink:href="#o"/>
<use x="159.033203" xlink:href="#c"/>
</g>
</g>
<g clip-path="url(#a)">
<g transform="translate(599.88 797.74) scale(.1 -.1)">
<use xlink:href="#c"/>
<use x="63.623047" xlink:href="#f"/>
<use x="95.410156" xlink:href="#o"/>
<use x="159.033203" xlink:href="#m"/>
</g>
</g>
<g clip-path="url(#a)">
<g transform="translate(650.62 797.74) scale(.1 -.1)">
<use xlink:href="#c"/>
<use x="63.623047" xlink:href="#f"/>
<use x="95.410156" xlink:href="#o"/>
<use x="159.033203" xlink:href="#o"/>
</g>
</g>
<g clip-path="url(#a)">
<g transform="translate(703.66 797.74) scale(.1 -.1)">
<use xlink:href="#c"/>
<use x="63.623047" xlink:href="#f"/>
<use x="95.410156" xlink:href="#o"/>
<use x="159.033203" xlink:href="#n"/>
</g>
</g>
<g clip-path="url(#a)">
<g transform="translate(77.539 648.85) scale(.1 -.1)">
<use xlink:href="#c"/>
<use x="63.623047" xlink:href="#f"/>
<use x="95.410156" xlink:href="#o"/>
<use x="159.033203" xlink:href="#y"/>
</g>
</g>
<g clip-path="url(#a)">
<g transform="translate(101.75 797.74) scale(.1 -.1)">
<use xlink:href="#c"/>
<use x="63.623047" xlink:href="#f"/>
<use x="95.410156" xlink:href="#o"/>
<use x="159.033203" xlink:href="#x"/>
</g>
</g>
<g clip-path="url(#a)">
<g transform="translate(115.59 797.74) scale(.1 -.1)">
<use xlink:href="#c"/>
<use x="63.623047" xlink:href="#f"/>
<use x="95.410156" xlink:href="#o"/>
<use x="159.033203" xlink:href="#ai"/>
</g>
</g>
<g clip-path="url(#a)">
<g transform="translate(131.73 797.74) scale(.1 -.1)">
<use xlink:href="#c"/>
<use x="63.623047" xlink:href="#f"/>
<use x="95.410156" xlink:href="#o"/>
<use x="159.033203" xlink:href="#ah"/>
</g>
</g>
<g clip-path="url(#a)">
<g transform="translate(171.71 648.85) scale(.1 -.1)">
<use xlink:href="#c"/>
<use x="63.623047" xlink:href="#f"/>
<use x="95.410156" xlink:href="#o"/>
<use x="159.033203" xlink:href="#ag"/>
</g>
</g>
<g clip-path="url(#a)">
<g transform="translate(247.04 797.74) scale(.1 -.1)">
<use xlink:href="#c"/>
<use x="63.623047" xlink:href="#f"/>
<use x="95.410156" xlink:href="#n"/>
<use x="159.033203" xlink:href="#z"/>
</g>
</g>
<g clip-path="url(#a)">
<g transform="translate(277.02 797.74) scale(.1 -.1)">
<use xlink:href="#c"/>
<use x="63.623047" xlink:href="#f"/>
<use x="95.410156" xlink:href="#n"/>
<use x="159.033203" xlink:href="#c"/>
</g>
</g>
<g clip-path="url(#a)">
<g transform="translate(90.222 797.74) scale(.1 -.1)">
<use xlink:href="#c"/>
<use x="63.623047" xlink:href="#f"/>
<use x="95.410156" xlink:href="#n"/>
<use x="159.033203" xlink:href="#m"/>
</g>
</g>
<g clip-path="url(#a)">
<g transform="translate(170.94 797.74) scale(.1 -.1)">
<use xlink:href="#c"/>
<use x="63.623047" xlink:href="#f"/>
<use x="95.410156" xlink:href="#n"/>
<use x="159.033203" xlink:href="#o"/>
</g>
</g>
<g clip-path="url(#a)">
<g transform="translate(219.37 797.74) scale(.1 -.1)">
<use xlink:href="#c"/>
<use x="63.623047" xlink:href="#f"/>
<use x="95.410156" xlink:href="#n"/>
<use x="159.033203" xlink:href="#n"/>
</g>
</g>
<g clip-path="url(#a)">
<g transform="translate(74.079 797.74) scale(.1 -.1)">
<use xlink:href="#c"/>
<use x="63.623047" xlink:href="#f"/>
<use x="95.410156" xlink:href="#n"/>
<use x="159.033203" xlink:href="#y"/>
</g>
</g>
<g clip-path="url(#a)">
<g transform="translate(80.998 797.74) scale(.1 -.1)">
<use xlink:href="#c"/>
<use x="63.623047" xlink:href="#f"/>
<use x="95.410156" xlink:href="#n"/>
<use x="159.033203" xlink:href="#x"/>
</g>
</g>
<g clip-path="url(#a)">
<g transform="translate(309.31 797.74) scale(.1 -.1)">
<use xlink:href="#c"/>
<use x="63.623047" xlink:href="#f"/>
<use x="95.410156" xlink:href="#n"/>
<use x="159.033203" xlink:href="#ai"/>
</g>
</g>
<g clip-path="url(#a)">
<g transform="translate(759 797.74) scale(.1 -.1)">
<use xlink:href="#c"/>
<use x="63.623047" xlink:href="#f"/>
<use x="95.410156" xlink:href="#n"/>
<use x="159.033203" xlink:href="#ah"/>
</g>
</g>
<g clip-path="url(#a)">
<g transform="translate(1776 797.74) scale(.1 -.1)">
<use xlink:href="#c"/>
<use x="63.623047" xlink:href="#f"/>
<use x="95.410156" xlink:href="#n"/>
<use x="159.033203" xlink:href="#ag"/>
</g>
</g>
<defs>
<clipPath id="a">
<rect width="1874.7" height="986.67"/>
</clipPath>
</defs>
</svg>
