<?xml version="1.0" encoding="UTF-8"?>
<!DOCTYPE svg  PUBLIC '-//W3C//DTD SVG 1.1//EN'  'http://www.w3.org/Graphics/SVG/1.1/DTD/svg11.dtd'>
<svg width="1266.7pt" height="666.67pt" version="1.1" viewBox="0 0 1266.7 666.67" xmlns="http://www.w3.org/2000/svg" xmlns:xlink="http://www.w3.org/1999/xlink">
<defs>
<style type="text/css">*{stroke-linecap:butt;stroke-linejoin:round;}</style>
</defs>
<path d="m0 666.67h1266.7v-666.67h-1266.7z" fill="#fff"/>
<g fill="none" stroke="#000">
<path d="m504.17 30.303v76.465" clip-path="url(#a)"/>
<path d="m504.17 106.77-424.8 76.356" clip-path="url(#a)"/>
<path d="m504.17 106.77 49.746 455.4" clip-path="url(#a)"/>
<path d="m504.17 106.77 381.56 228.66" clip-path="url(#a)"/>
<path d="m504.17 106.77-6.5059 455.4" clip-path="url(#a)"/>
<path d="m79.371 183.12-21.795 379.04" clip-path="url(#a)"/>
<path d="m79.371 183.12-11.869 379.04" clip-path="url(#a)"/>
<path d="m79.371 183.12 32.297 76.228" clip-path="url(#a)"/>
<path d="m79.371 183.12 1.3672 379.04" clip-path="url(#a)"/>
<path d="m553.92 562.17v74.199" clip-path="url(#a)"/>
<path d="m885.73 335.43-196.7 75.883" clip-path="url(#a)"/>
<path d="m885.73 335.43-0.91915 226.74" clip-path="url(#a)"/>
<path d="m885.73 335.43 197.62 151.51" clip-path="url(#a)"/>
<path d="m689.03 411.31-75.554 150.86" clip-path="url(#a)"/>
<path d="m689.03 411.31-12.684 150.86" clip-path="url(#a)"/>
<path d="m689.03 411.31 88.239 75.625" clip-path="url(#a)"/>
<path d="m884.81 562.17v74.199" clip-path="url(#a)"/>
<path d="m1083.4 486.93-122.43 75.231" clip-path="url(#a)"/>
<path d="m1083.4 486.93-43.016 75.231" clip-path="url(#a)"/>
<path d="m1083.4 486.93 39.707 75.231" clip-path="url(#a)"/>
<path d="m1083.4 486.93 125.74 75.231" clip-path="url(#a)"/>
<path d="m960.92 562.17v74.199" clip-path="url(#a)"/>
<path d="m1040.3 562.17v74.199" clip-path="url(#a)"/>
<path d="m1123.1 562.17v74.199" clip-path="url(#a)"/>
<path d="m613.48 562.17v74.199" clip-path="url(#a)"/>
<path d="m676.35 562.17v74.199" clip-path="url(#a)"/>
<path d="m777.27 486.93-34.744 75.231" clip-path="url(#a)"/>
<path d="m777.27 486.93 34.744 75.231" clip-path="url(#a)"/>
<path d="m742.53 562.17v74.199" clip-path="url(#a)"/>
<path d="m812.02 562.17v74.199" clip-path="url(#a)"/>
<path d="m57.576 562.17v74.199" clip-path="url(#a)"/>
<path d="m67.503 562.17v74.199" clip-path="url(#a)"/>
<path d="m111.67 259.35-44.165 302.81" clip-path="url(#a)" stroke-dasharray="3.7,1.6"/>
<path d="m111.67 259.35-14.385 302.81" clip-path="url(#a)"/>
<path d="m111.67 259.35 58.55 76.075" clip-path="url(#a)"/>
<path d="m97.283 562.17v74.199" clip-path="url(#a)"/>
<path d="m170.22 335.43-53.081 226.74" clip-path="url(#a)"/>
<path d="m170.22 335.43-29.918 226.74" clip-path="url(#a)"/>
<path d="m170.22 335.43-3.4468 226.74" clip-path="url(#a)"/>
<path d="m170.22 335.43 86.446 75.883" clip-path="url(#a)"/>
<path d="m117.14 562.17v74.199" clip-path="url(#a)"/>
<path d="m140.3 562.17v74.199" clip-path="url(#a)"/>
<path d="m166.77 562.17v74.199" clip-path="url(#a)"/>
<path d="m256.66 411.31-89.893 150.86" clip-path="url(#a)" stroke-dasharray="3.7,1.6"/>
<path d="m256.66 411.31-60.113 150.86" clip-path="url(#a)"/>
<path d="m256.66 411.31 10.478 75.625" clip-path="url(#a)"/>
<path d="m256.66 411.31 139.53 75.625" clip-path="url(#a)"/>
<path d="m196.55 562.17v74.199" clip-path="url(#a)"/>
<path d="m267.14 486.93-37.501 75.231" clip-path="url(#a)"/>
<path d="m267.14 486.93-1.103 75.231" clip-path="url(#a)"/>
<path d="m267.14 486.93 38.604 75.231" clip-path="url(#a)"/>
<path d="m396.19 486.93-47.428 75.231" clip-path="url(#a)"/>
<path d="m396.19 486.93-1.103 75.231" clip-path="url(#a)"/>
<path d="m396.19 486.93 48.531 75.231" clip-path="url(#a)"/>
<path d="m348.76 562.17v74.199" clip-path="url(#a)"/>
<path d="m395.09 562.17v74.199" clip-path="url(#a)"/>
<path d="m444.72 562.17v74.199" clip-path="url(#a)"/>
<path d="m229.64 562.17v74.199" clip-path="url(#a)"/>
<path d="m266.04 562.17v74.199" clip-path="url(#a)"/>
<path d="m305.75 562.17v74.199" clip-path="url(#a)"/>
<path d="m80.738 562.17v74.199" clip-path="url(#a)"/>
<path d="m497.67 562.17v74.199" clip-path="url(#a)"/>
<path d="m1209.1 562.17v74.199" clip-path="url(#a)"/>
</g>
<path d="m497.9 65.528v6.0162q0 2.4 2.4 2.4h7.7425q2.4 0 2.4-2.4v-6.0162q0-2.4-2.4-2.4h-7.7425q-2.4 0-2.4 2.4z" clip-path="url(#a)" fill="#fff" stroke="#fff"/>
<g clip-path="url(#a)">
<defs>
<path id="y" d="m9.8125 72.906h9.8594v-29.891h35.844v29.891h9.8594v-72.906h-9.8594v34.719h-35.844v-34.719h-9.8594z"/>
</defs>
<g transform="translate(501.96 65.528) rotate(90) scale(.08 -.08)">
<use xlink:href="#y"/>
</g>
</g>
<path d="m290.19 151.6 5.3862-0.96814q2.3621-0.42458 1.9376-2.7867l-1.3697-7.6204q-0.42458-2.3621-2.7867-1.9376l-5.3862 0.96814q-2.3621 0.42458-1.9376 2.7867l1.3697 7.6204q0.42458 2.3621 2.7867 1.9376z" clip-path="url(#a)" fill="#fff" stroke="#fff"/>
<g clip-path="url(#a)">
<defs>
<path id="o" d="m34.188 63.188-13.391-36.281h26.812zm-5.5781 9.7188h11.188l27.781-72.906h-10.25l-6.6406 18.703h-32.859l-6.6406-18.703h-10.406z"/>
</defs>
<g transform="translate(289.47 147.6) rotate(-10.19) scale(.08 -.08)">
<use xlink:href="#o"/>
</g>
</g>
<path d="m522.55 332.75 0.52382 4.7952q0.26062 2.3858 2.6464 2.1252l7.6967-0.84077q2.3858-0.26062 2.1252-2.6464l-0.52382-4.7952q-0.26062-2.3858-2.6464-2.1252l-7.6967 0.84077q-2.3858 0.26062-2.1252 2.6464z" clip-path="url(#a)" fill="#fff" stroke="#fff"/>
<g clip-path="url(#a)">
<defs>
<path id="x" d="m19.672 64.797v-27.391h12.406q6.8906 0 10.641 3.5625 3.7656 3.5625 3.7656 10.156 0 6.5469-3.7656 10.109-3.75 3.5625-10.641 3.5625zm-9.8594 8.1094h22.266q12.266 0 18.531-5.5469 6.2812-5.5469 6.2812-16.234 0-10.797-6.2812-16.312-6.2656-5.5156-18.531-5.5156h-12.406v-29.297h-9.8594z"/>
</defs>
<g transform="translate(526.59 332.31) rotate(83.766) scale(.08 -.08)">
<use xlink:href="#x"/>
</g>
</g>
<path d="m689.38 225.07 4.6941 2.8131q2.0586 1.2337 3.2923-0.82496l3.9799-6.6413q1.2337-2.0586-0.82496-3.2923l-4.6941-2.8131q-2.0586-1.2337-3.2923 0.82496l-3.9799 6.6413q-1.2337 2.0586 0.82496 3.2923z" clip-path="url(#a)" fill="#fff" stroke="#fff"/>
<g clip-path="url(#a)">
<g transform="translate(691.47 221.58) rotate(30.933) scale(.08 -.08)">
<use xlink:href="#o"/>
</g>
</g>
<path d="m507.15 337.48 0.083637-5.8544q0.034283-2.3998-2.3655-2.434l-7.7417-0.1106q-2.3998-0.034284-2.434 2.3655l-0.083637 5.8544q-0.034283 2.3998 2.3655 2.434l7.7417 0.1106q2.3998 0.034283 2.434-2.3655z" clip-path="url(#a)" fill="#fff" stroke="#fff"/>
<g clip-path="url(#a)">
<defs>
<path id="ag" d="m8.6875 72.906h9.9219v-44.297q0-11.719 4.2344-16.875 4.25-5.1406 13.781-5.1406 9.4688 0 13.719 5.1406 4.25 5.1562 4.25 16.875v44.297h9.9062v-45.516q0-14.25-7.0625-21.531-7.0469-7.2812-20.812-7.2812-13.828 0-20.891 7.2812-7.0469 7.2812-7.0469 21.531z"/>
</defs>
<g transform="translate(503.08 337.43) rotate(-89.182) scale(.08 -.08)">
<use xlink:href="#ag"/>
</g>
</g>
<path d="m74.589 375.53 0.29019-5.0467q0.13778-2.396-2.2583-2.5338l-7.7297-0.44447q-2.396-0.13778-2.5338 2.2583l-0.29019 5.0467q-0.13778 2.396 2.2583 2.5338l7.7297 0.44447q2.396 0.13778 2.5338-2.2583z" clip-path="url(#a)" fill="#fff" stroke="#fff"/>
<g clip-path="url(#a)">
<defs>
<path id="q" d="m9.8125 72.906h46.094v-8.3125h-36.234v-21.578h34.719v-8.2969h-34.719v-26.422h37.109v-8.2969h-46.969z"/>
</defs>
<g transform="translate(70.532 375.29) rotate(-86.709) scale(.08 -.08)">
<use xlink:href="#q"/>
</g>
</g>
<path d="m79.618 375.63 0.17483-5.5835q0.075112-2.3988-2.3237-2.4739l-7.7387-0.24232q-2.3988-0.075112-2.4739 2.3237l-0.17483 5.5835q-0.075113 2.3988 2.3237 2.4739l7.7387 0.24232q2.3988 0.075112 2.4739-2.3237z" clip-path="url(#a)" fill="#fff" stroke="#fff"/>
<g clip-path="url(#a)">
<defs>
<path id="t" d="m64.406 67.281v-10.391q-4.9844 4.6406-10.625 6.9219-5.6406 2.2969-11.984 2.2969-12.5 0-19.141-7.6406t-6.6406-22.094q0-14.406 6.6406-22.047t19.141-7.6406q6.3438 0 11.984 2.2969t10.625 6.9375v-10.312q-5.1719-3.5156-10.969-5.2812-5.7812-1.75-12.219-1.75-16.562 0-26.094 10.125-9.5156 10.141-9.5156 27.672 0 17.578 9.5156 27.703 9.5312 10.141 26.094 10.141 6.5312 0 12.312-1.7344 5.7969-1.7344 10.875-5.2031z"/>
</defs>
<g transform="translate(75.556 375.51) rotate(-88.207) scale(.08 -.08)">
<use xlink:href="#t"/>
</g>
</g>
<path d="m88.759 221.36 1.972 4.6545q0.93628 2.2098 3.1461 1.2736l7.129-3.0205q2.2098-0.93628 1.2736-3.1461l-1.972-4.6545q-0.93628-2.2098-3.1461-1.2736l-7.129 3.0205q-2.2098 0.93628-1.2736 3.1461z" clip-path="url(#a)" fill="#fff" stroke="#fff"/>
<g clip-path="url(#a)">
<g transform="translate(92.501 219.77) rotate(67.038) scale(.08 -.08)">
<use xlink:href="#q"/>
</g>
</g>
<path d="m73.773 369.74 0.021119 5.855q0.008657 2.4 2.4086 2.3913l7.7424-0.027928q2.4-0.008657 2.3913-2.4086l-0.021119-5.855q-0.008657-2.4-2.4086-2.3913l-7.7424 0.027928q-2.4 0.008657-2.3913 2.4086z" clip-path="url(#a)" fill="#fff" stroke="#fff"/>
<g clip-path="url(#a)">
<g transform="translate(77.837 369.73) rotate(89.793) scale(.08 -.08)">
<use xlink:href="#ag"/>
</g>
</g>
<path d="m547.65 582.36v33.808q0 2.4 2.4 2.4h7.7425q2.4 0 2.4-2.4v-33.808q0-2.4-2.4-2.4h-7.7425q-2.4 0-2.4 2.4z" clip-path="url(#a)" fill="#fff" stroke="#fff"/>
<g clip-path="url(#a)">
<defs>
<path id="l" d="m-0.29688 72.906h61.672v-8.3125h-25.875v-64.594h-9.9062v64.594h-25.891z"/>
<path id="h" d="m56.203 29.594v-4.3906h-41.312q0.59375-9.2812 5.5938-14.141t13.938-4.8594q5.1719 0 10.031 1.2656t9.6562 3.8125v-8.5q-4.8438-2.0469-9.9219-3.125t-10.297-1.0781q-13.094 0-20.734 7.6094-7.6406 7.625-7.6406 20.625 0 13.422 7.25 21.297 7.25 7.8906 19.562 7.8906 11.031 0 17.453-7.1094 6.4219-7.0938 6.4219-19.297zm-8.9844 2.6406q-0.09375 7.3594-4.125 11.75-4.0312 4.4062-10.672 4.4062-7.5156 0-12.031-4.25t-5.2031-11.969z"/>
<path id="g" d="m41.109 46.297q-1.5156 0.875-3.2969 1.2812-1.7812 0.42188-3.9219 0.42188-7.625 0-11.703-4.9531t-4.0781-14.234v-28.812h-9.0312v54.688h9.0312v-8.5q2.8438 4.9844 7.375 7.3906 4.5469 2.4219 11.047 2.4219 0.92188 0 2.0469-0.125 1.125-0.10938 2.4844-0.35938z"/>
<path id="k" d="m52 44.188q3.375 6.0625 8.0625 8.9375t11.031 2.875q8.5469 0 13.188-5.9844 4.6406-5.9688 4.6406-17v-33.016h-9.0312v32.719q0 7.8594-2.7969 11.656-2.7812 3.8125-8.4844 3.8125-6.9844 0-11.047-4.6406-4.0469-4.625-4.0469-12.641v-30.906h-9.0312v32.719q0 7.9062-2.7812 11.688t-8.5938 3.7812q-6.8906 0-10.953-4.6562-4.0469-4.6562-4.0469-12.625v-30.906h-9.0312v54.688h9.0312v-8.5q3.0781 5.0312 7.375 7.4219t10.203 2.3906q5.9688 0 10.141-3.0312 4.1719-3.0156 6.1719-8.7812z"/>
<path id="d" d="m9.4219 54.688h8.9844v-54.688h-8.9844zm0 21.297h8.9844v-11.391h-8.9844z"/>
<path id="i" d="m54.891 33.016v-33.016h-8.9844v32.719q0 7.7656-3.0312 11.609-3.0312 3.8594-9.0781 3.8594-7.2812 0-11.484-4.6406-4.2031-4.625-4.2031-12.641v-30.906h-9.0312v54.688h9.0312v-8.5q3.2344 4.9375 7.5938 7.375 4.375 2.4375 10.094 2.4375 9.4219 0 14.25-5.8281 4.8438-5.8281 4.8438-17.156z"/>
<path id="f" d="m34.281 27.484q-10.891 0-15.094-2.4844t-4.2031-8.5q0-4.7812 3.1562-7.5938 3.1562-2.7969 8.5625-2.7969 7.4844 0 12 5.2969t4.5156 14.078v2zm17.922 3.7188v-31.203h-8.9844v8.2969q-3.0781-4.9688-7.6719-7.3438t-11.234-2.375q-8.3906 0-13.359 4.7188-4.9531 4.7188-4.9531 12.625 0 9.2188 6.1719 13.906 6.1875 4.6875 18.438 4.6875h12.609v0.89062q0 6.2031-4.0781 9.5938t-11.453 3.3906q-4.6875 0-9.1406-1.125-4.4375-1.125-8.5312-3.375v8.3125q4.9219 1.9062 9.5625 2.8438 4.6406 0.95312 9.0312 0.95312 11.875 0 17.734-6.1562 5.8594-6.1406 5.8594-18.641z"/>
<path id="j" d="m9.4219 75.984h8.9844v-75.984h-8.9844z"/>
</defs>
<g transform="translate(551.71 582.36) rotate(90) scale(.08 -.08)">
<use xlink:href="#l"/>
<use x="44.083984" xlink:href="#h"/>
<use x="105.607422" xlink:href="#g"/>
<use x="144.970703" xlink:href="#k"/>
<use x="242.382812" xlink:href="#d"/>
<use x="270.166016" xlink:href="#i"/>
<use x="333.544922" xlink:href="#f"/>
<use x="394.824219" xlink:href="#j"/>
</g>
</g>
<path d="m786.83 380.3 5.613-2.1654q2.2392-0.86382 1.3753-3.103l-2.7867-7.2236q-0.86382-2.2392-3.103-1.3753l-5.613 2.1654q-2.2392 0.86382-1.3753 3.103l2.7867 7.2236q0.86382 2.2392 3.103 1.3753z" clip-path="url(#a)" fill="#fff" stroke="#fff"/>
<g clip-path="url(#a)">
<g transform="translate(785.37 376.51) rotate(-21.096) scale(.08 -.08)">
<use xlink:href="#y"/>
</g>
</g>
<path d="m891.54 451.05 0.01807-4.4575q0.009729-2.4-2.3903-2.4097l-7.7424-0.031386q-2.4-0.009729-2.4097 2.3903l-0.01807 4.4575q-0.009729 2.4 2.3903 2.4097l7.7424 0.031386q2.4 0.009729 2.4097-2.3903z" clip-path="url(#a)" fill="#fff" stroke="#fff"/>
<g clip-path="url(#a)">
<defs>
<path id="ah" d="m9.8125 72.906h9.8594v-64.609h35.5v-8.2969h-45.359z"/>
</defs>
<g transform="translate(887.47 451.03) rotate(-89.768) scale(.08 -.08)">
<use xlink:href="#ah"/>
</g>
</g>
<path d="m978.34 414.33 4.7745 3.6605q1.9047 1.4602 3.3649-0.44441l4.7108-6.1445q1.4602-1.9047-0.44441-3.3649l-4.7745-3.6605q-1.9047-1.4602-3.3649 0.44441l-4.7108 6.1445q-1.4602 1.9047 0.44441 3.3649z" clip-path="url(#a)" fill="#fff" stroke="#fff"/>
<g clip-path="url(#a)">
<g transform="translate(980.81 411.1) rotate(37.476) scale(.08 -.08)">
<use xlink:href="#y"/>
</g>
</g>
<path d="m655.64 491.99 2.4507-4.8931q1.0748-2.1459-1.0712-3.2207l-6.9228-3.4672q-2.1459-1.0748-3.2207 1.0712l-2.4507 4.8931q-1.0748 2.1459 1.0712 3.2207l6.9228 3.4672q2.1459 1.0748 3.2207-1.0712z" clip-path="url(#a)" fill="#fff" stroke="#fff"/>
<g clip-path="url(#a)">
<g transform="translate(652.01 490.17) rotate(-63.397) scale(.08 -.08)">
<use xlink:href="#o"/>
</g>
</g>
<path d="m688.74 489.67 0.40417-4.8068q0.20109-2.3916-2.1905-2.5926l-7.7153-0.64872q-2.3916-0.20109-2.5926 2.1905l-0.40417 4.8068q-0.20109 2.3916 2.1905 2.5926l7.7153 0.64872q2.3916 0.20109 2.5926-2.1905z" clip-path="url(#a)" fill="#fff" stroke="#fff"/>
<g clip-path="url(#a)">
<g transform="translate(684.69 489.33) rotate(-85.194) scale(.08 -.08)">
<use xlink:href="#x"/>
</g>
</g>
<path d="m726.99 452.1 4.1552 3.5612q1.8223 1.5618 3.3841-0.26049l5.0384-5.8788q1.5618-1.8223-0.26049-3.3841l-4.1552-3.5612q-1.8223-1.5618-3.3841 0.26049l-5.0384 5.8788q-1.5618 1.8223 0.26049 3.3841z" clip-path="url(#a)" fill="#fff" stroke="#fff"/>
<g clip-path="url(#a)">
<g transform="translate(729.64 449.02) rotate(40.598) scale(.08 -.08)">
<use xlink:href="#o"/>
</g>
</g>
<path d="m878.54 582.36v33.808q0 2.4 2.4 2.4h7.7425q2.4 0 2.4-2.4v-33.808q0-2.4-2.4-2.4h-7.7425q-2.4 0-2.4 2.4z" clip-path="url(#a)" fill="#fff" stroke="#fff"/>
<g clip-path="url(#a)">
<g transform="translate(882.61 582.36) rotate(90) scale(.08 -.08)">
<use xlink:href="#l"/>
<use x="44.083984" xlink:href="#h"/>
<use x="105.607422" xlink:href="#g"/>
<use x="144.970703" xlink:href="#k"/>
<use x="242.382812" xlink:href="#d"/>
<use x="270.166016" xlink:href="#i"/>
<use x="333.544922" xlink:href="#f"/>
<use x="394.824219" xlink:href="#j"/>
</g>
</g>
<path d="m1023.1 531.33 4.6626-2.865q2.0448-1.2565 0.78833-3.3013l-4.0535-6.5966q-1.2565-2.0448-3.3013-0.78833l-4.6626 2.865q-2.0448 1.2565-0.78833 3.3013l4.0535 6.5966q1.2565 2.0448 3.3013 0.78833z" clip-path="url(#a)" fill="#fff" stroke="#fff"/>
<g clip-path="url(#a)">
<g transform="translate(1021 527.86) rotate(-31.57) scale(.08 -.08)">
<use xlink:href="#o"/>
</g>
</g>
<path d="m1065.9 530.04 2.7164-4.7507q1.1913-2.0835-0.89215-3.2748l-6.7213-3.8432q-2.0835-1.1913-3.2748 0.89215l-2.7164 4.7507q-1.1913 2.0835 0.89215 3.2748l6.7213 3.8432q2.0835 1.1913 3.2748-0.89215z" clip-path="url(#a)" fill="#fff" stroke="#fff"/>
<g clip-path="url(#a)">
<g transform="translate(1062.4 528.02) rotate(-60.239) scale(.08 -.08)">
<use xlink:href="#o"/>
</g>
</g>
<path d="m1096.5 525.34 2.2516 4.266q1.1203 2.1225 3.2428 1.0022l6.8473-3.614q2.1225-1.1203 1.0022-3.2428l-2.2516-4.266q-1.1203-2.1225-3.2428-1.0022l-6.8473 3.614q-2.1225 1.1203-1.0022 3.2428z" clip-path="url(#a)" fill="#fff" stroke="#fff"/>
<g clip-path="url(#a)">
<g transform="translate(1100.1 523.45) rotate(62.175) scale(.08 -.08)">
<use xlink:href="#x"/>
</g>
</g>
<path d="m1140.5 528.43 5.0244 3.0061q2.0595 1.2322 3.2917-0.8273l3.9752-6.6441q1.2322-2.0595-0.8273-3.2917l-5.0244-3.0061q-2.0595-1.2322-3.2917 0.8273l-3.9752 6.6441q-1.2322 2.0595 0.8273 3.2917z" clip-path="url(#a)" fill="#fff" stroke="#fff"/>
<g clip-path="url(#a)">
<g transform="translate(1142.6 524.94) rotate(30.892) scale(.08 -.08)">
<use xlink:href="#ag"/>
</g>
</g>
<path d="m954.65 582.36v33.808q0 2.4 2.4 2.4h7.7425q2.4 0 2.4-2.4v-33.808q0-2.4-2.4-2.4h-7.7425q-2.4 0-2.4 2.4z" clip-path="url(#a)" fill="#fff" stroke="#fff"/>
<g clip-path="url(#a)">
<g transform="translate(958.71 582.36) rotate(90) scale(.08 -.08)">
<use xlink:href="#l"/>
<use x="44.083984" xlink:href="#h"/>
<use x="105.607422" xlink:href="#g"/>
<use x="144.970703" xlink:href="#k"/>
<use x="242.382812" xlink:href="#d"/>
<use x="270.166016" xlink:href="#i"/>
<use x="333.544922" xlink:href="#f"/>
<use x="394.824219" xlink:href="#j"/>
</g>
</g>
<path d="m1034.1 582.36v33.808q0 2.4 2.4 2.4h7.7425q2.4 0 2.4-2.4v-33.808q0-2.4-2.4-2.4h-7.7425q-2.4 0-2.4 2.4z" clip-path="url(#a)" fill="#fff" stroke="#fff"/>
<g clip-path="url(#a)">
<g transform="translate(1038.1 582.36) rotate(90) scale(.08 -.08)">
<use xlink:href="#l"/>
<use x="44.083984" xlink:href="#h"/>
<use x="105.607422" xlink:href="#g"/>
<use x="144.970703" xlink:href="#k"/>
<use x="242.382812" xlink:href="#d"/>
<use x="270.166016" xlink:href="#i"/>
<use x="333.544922" xlink:href="#f"/>
<use x="394.824219" xlink:href="#j"/>
</g>
</g>
<path d="m1116.8 582.36v33.808q0 2.4 2.4 2.4h7.7425q2.4 0 2.4-2.4v-33.808q0-2.4-2.4-2.4h-7.7425q-2.4 0-2.4 2.4z" clip-path="url(#a)" fill="#fff" stroke="#fff"/>
<g clip-path="url(#a)">
<g transform="translate(1120.9 582.36) rotate(90) scale(.08 -.08)">
<use xlink:href="#l"/>
<use x="44.083984" xlink:href="#h"/>
<use x="105.607422" xlink:href="#g"/>
<use x="144.970703" xlink:href="#k"/>
<use x="242.382812" xlink:href="#d"/>
<use x="270.166016" xlink:href="#i"/>
<use x="333.544922" xlink:href="#f"/>
<use x="394.824219" xlink:href="#j"/>
</g>
</g>
<path d="m607.21 582.36v33.808q0 2.4 2.4 2.4h7.7425q2.4 0 2.4-2.4v-33.808q0-2.4-2.4-2.4h-7.7425q-2.4 0-2.4 2.4z" clip-path="url(#a)" fill="#fff" stroke="#fff"/>
<g clip-path="url(#a)">
<g transform="translate(611.27 582.36) rotate(90) scale(.08 -.08)">
<use xlink:href="#l"/>
<use x="44.083984" xlink:href="#h"/>
<use x="105.607422" xlink:href="#g"/>
<use x="144.970703" xlink:href="#k"/>
<use x="242.382812" xlink:href="#d"/>
<use x="270.166016" xlink:href="#i"/>
<use x="333.544922" xlink:href="#f"/>
<use x="394.824219" xlink:href="#j"/>
</g>
</g>
<path d="m670.08 582.36v33.808q0 2.4 2.4 2.4h7.7425q2.4 0 2.4-2.4v-33.808q0-2.4-2.4-2.4h-7.7425q-2.4 0-2.4 2.4z" clip-path="url(#a)" fill="#fff" stroke="#fff"/>
<g clip-path="url(#a)">
<g transform="translate(674.14 582.36) rotate(90) scale(.08 -.08)">
<use xlink:href="#l"/>
<use x="44.083984" xlink:href="#h"/>
<use x="105.607422" xlink:href="#g"/>
<use x="144.970703" xlink:href="#k"/>
<use x="242.382812" xlink:href="#d"/>
<use x="270.166016" xlink:href="#i"/>
<use x="333.544922" xlink:href="#f"/>
<use x="394.824219" xlink:href="#j"/>
</g>
</g>
<path d="m764.43 529.7 2.3307-5.0466q1.0063-2.1789-1.1726-3.1851l-7.0291-3.2463q-2.1789-1.0063-3.1851 1.1726l-2.3307 5.0466q-1.0063 2.1789 1.1726 3.1851l7.0291 3.2463q2.1789 1.0063 3.1851-1.1726z" clip-path="url(#a)" fill="#fff" stroke="#fff"/>
<g clip-path="url(#a)">
<defs>
<path id="ak" d="m44.391 34.188q3.1719-1.0781 6.1719-4.5938t6.0312-9.6719l10.016-19.922h-10.609l-9.3125 18.703q-3.625 7.3281-7.0156 9.7188t-9.25 2.3906h-10.75v-30.812h-9.8594v72.906h22.266q12.5 0 18.656-5.2344 6.1562-5.2188 6.1562-15.766 0-6.8906-3.2031-11.438-3.2031-4.5312-9.2969-6.2812zm-24.719 30.609v-25.875h12.406q7.125 0 10.766 3.2969t3.6406 9.6875-3.6406 9.6406-10.766 3.25z"/>
</defs>
<g transform="translate(760.74 528) rotate(-65.211) scale(.08 -.08)">
<use xlink:href="#ak"/>
</g>
</g>
<path d="m787.78 524.64 2.3422 5.0715q1.0063 2.1789 3.1851 1.1726l7.0291-3.2463q2.1789-1.0063 1.1726-3.1851l-2.3422-5.0715q-1.0063-2.1789-3.1851-1.1726l-7.0291 3.2463q-2.1789 1.0063-1.1726 3.1851z" clip-path="url(#a)" fill="#fff" stroke="#fff"/>
<g clip-path="url(#a)">
<g transform="translate(791.47 522.94) rotate(65.211) scale(.08 -.08)">
<use xlink:href="#t"/>
</g>
</g>
<path d="m736.26 582.36v33.808q0 2.4 2.4 2.4h7.7425q2.4 0 2.4-2.4v-33.808q0-2.4-2.4-2.4h-7.7425q-2.4 0-2.4 2.4z" clip-path="url(#a)" fill="#fff" stroke="#fff"/>
<g clip-path="url(#a)">
<g transform="translate(740.32 582.36) rotate(90) scale(.08 -.08)">
<use xlink:href="#l"/>
<use x="44.083984" xlink:href="#h"/>
<use x="105.607422" xlink:href="#g"/>
<use x="144.970703" xlink:href="#k"/>
<use x="242.382812" xlink:href="#d"/>
<use x="270.166016" xlink:href="#i"/>
<use x="333.544922" xlink:href="#f"/>
<use x="394.824219" xlink:href="#j"/>
</g>
</g>
<path d="m805.75 582.36v33.808q0 2.4 2.4 2.4h7.7425q2.4 0 2.4-2.4v-33.808q0-2.4-2.4-2.4h-7.7425q-2.4 0-2.4 2.4z" clip-path="url(#a)" fill="#fff" stroke="#fff"/>
<g clip-path="url(#a)">
<g transform="translate(809.81 582.36) rotate(90) scale(.08 -.08)">
<use xlink:href="#l"/>
<use x="44.083984" xlink:href="#h"/>
<use x="105.607422" xlink:href="#g"/>
<use x="144.970703" xlink:href="#k"/>
<use x="242.382812" xlink:href="#d"/>
<use x="270.166016" xlink:href="#i"/>
<use x="333.544922" xlink:href="#f"/>
<use x="394.824219" xlink:href="#j"/>
</g>
</g>
<path d="m51.305 582.36v33.808q0 2.4 2.4 2.4h7.7425q2.4 0 2.4-2.4v-33.808q0-2.4-2.4-2.4h-7.7425q-2.4 0-2.4 2.4z" clip-path="url(#a)" fill="#fff" stroke="#fff"/>
<g clip-path="url(#a)">
<g transform="translate(55.368 582.36) rotate(90) scale(.08 -.08)">
<use xlink:href="#l"/>
<use x="44.083984" xlink:href="#h"/>
<use x="105.607422" xlink:href="#g"/>
<use x="144.970703" xlink:href="#k"/>
<use x="242.382812" xlink:href="#d"/>
<use x="270.166016" xlink:href="#i"/>
<use x="333.544922" xlink:href="#f"/>
<use x="394.824219" xlink:href="#j"/>
</g>
</g>
<path d="m61.231 582.36v33.808q0 2.4 2.4 2.4h7.7425q2.4 0 2.4-2.4v-33.808q0-2.4-2.4-2.4h-7.7425q-2.4 0-2.4 2.4z" clip-path="url(#a)" fill="#fff" stroke="#fff"/>
<g clip-path="url(#a)">
<g transform="translate(65.295 582.36) rotate(90) scale(.08 -.08)">
<use xlink:href="#l"/>
<use x="44.083984" xlink:href="#h"/>
<use x="105.607422" xlink:href="#g"/>
<use x="144.970703" xlink:href="#k"/>
<use x="242.382812" xlink:href="#d"/>
<use x="270.166016" xlink:href="#i"/>
<use x="333.544922" xlink:href="#f"/>
<use x="394.824219" xlink:href="#j"/>
</g>
</g>
<path d="m95.396 414.37 0.78981-5.4152q0.34638-2.3749-2.0285-2.7212l-7.6614-1.1174q-2.3749-0.34638-2.7212 2.0285l-0.78981 5.4152q-0.34638 2.3749 2.0285 2.7212l7.6614 1.1174q2.3749 0.34638 2.7212-2.0285z" clip-path="url(#a)" fill="#fff" stroke="#fff"/>
<g clip-path="url(#a)">
<g transform="translate(91.375 413.78) rotate(-81.702) scale(.08 -.08)">
<use xlink:href="#o"/>
</g>
</g>
<path d="m110.62 413.59 0.24099-5.073q0.11388-2.3973-2.2834-2.5112l-7.7338-0.36738q-2.3973-0.11388-2.5112 2.2834l-0.24099 5.073q-0.11388 2.3973 2.2834 2.5112l7.7338 0.36738q2.3973 0.11388 2.5112-2.2834z" clip-path="url(#a)" fill="#fff" stroke="#fff"/>
<g clip-path="url(#a)">
<defs>
<path id="ap" d="m53.516 70.516v-9.625q-5.6094 2.6875-10.594 4-4.9844 1.3281-9.625 1.3281-8.0469 0-12.422-3.125t-4.375-8.8906q0-4.8438 2.9062-7.3125 2.9062-2.4531 11.016-3.9688l5.9531-1.2188q11.031-2.1094 16.281-7.4062t5.25-14.172q0-10.609-7.1094-16.078-7.0938-5.4688-20.812-5.4688-5.1719 0-11.016 1.1719-5.8281 1.1719-12.078 3.4688v10.156q6-3.3594 11.766-5.0781 5.7656-1.7031 11.328-1.7031 8.4375 0 13.031 3.3125 4.5938 3.3281 4.5938 9.4844 0 5.3594-3.2969 8.3906t-10.812 4.5469l-6.0156 1.1719q-11.031 2.1875-15.969 6.875-4.9219 4.6875-4.9219 13.047 0 9.6719 6.8125 15.234t18.766 5.5625q5.1406 0 10.453-0.9375 5.3281-0.92188 10.891-2.7656z"/>
</defs>
<g transform="translate(106.56 413.4) rotate(-87.28) scale(.08 -.08)">
<use xlink:href="#ap"/>
</g>
</g>
<path d="m134.3 299.05 3.3378 4.3368q1.4638 1.9019 3.3657 0.43813l6.1357-4.7223q1.9019-1.4638 0.43813-3.3657l-3.3378-4.3368q-1.4638-1.9019-3.3657-0.43813l-6.1357 4.7223q-1.9019 1.4638-0.43813 3.3657z" clip-path="url(#a)" fill="#fff" stroke="#fff"/>
<g clip-path="url(#a)">
<g transform="translate(137.52 296.57) rotate(52.417) scale(.08 -.08)">
<use xlink:href="#o"/>
</g>
</g>
<path d="m91.012 582.36v33.808q0 2.4 2.4 2.4h7.7425q2.4 0 2.4-2.4v-33.808q0-2.4-2.4-2.4h-7.7425q-2.4 0-2.4 2.4z" clip-path="url(#a)" fill="#fff" stroke="#fff"/>
<g clip-path="url(#a)">
<g transform="translate(95.076 582.36) rotate(90) scale(.08 -.08)">
<use xlink:href="#l"/>
<use x="44.083984" xlink:href="#h"/>
<use x="105.607422" xlink:href="#g"/>
<use x="144.970703" xlink:href="#k"/>
<use x="242.382812" xlink:href="#d"/>
<use x="270.166016" xlink:href="#i"/>
<use x="333.544922" xlink:href="#f"/>
<use x="394.824219" xlink:href="#j"/>
</g>
</g>
<path d="m149.21 452.69 1.1523-4.9219q0.54707-2.3368-1.7898-2.8839l-7.5387-1.7649q-2.3368-0.54707-2.8839 1.7898l-1.1523 4.9219q-0.54706 2.3368 1.7898 2.8839l7.5387 1.7649q2.3368 0.54706 2.8839-1.7898z" clip-path="url(#a)" fill="#fff" stroke="#fff"/>
<g clip-path="url(#a)">
<g transform="translate(145.25 451.76) rotate(-76.824) scale(.08 -.08)">
<use xlink:href="#q"/>
</g>
</g>
<path d="m161.15 452.12 0.66128-5.0116q0.31396-2.3794-2.0654-2.6933l-7.676-1.0129q-2.3794-0.31396-2.6933 2.0654l-0.66128 5.0116q-0.31396 2.3794 2.0654 2.6933l7.676 1.0129q2.3794 0.31396 2.6933-2.0654z" clip-path="url(#a)" fill="#fff" stroke="#fff"/>
<g clip-path="url(#a)">
<g transform="translate(157.12 451.59) rotate(-82.483) scale(.08 -.08)">
<use xlink:href="#q"/>
</g>
</g>
<path d="m174.72 451.68 0.084911-5.5856q0.03648-2.3997-2.3632-2.4362l-7.7416-0.11769q-2.3997-0.03648-2.4362 2.3632l-0.084911 5.5856q-0.03648 2.3997 2.3632 2.4362l7.7416 0.11769q2.3997 0.03648 2.4362-2.3632z" clip-path="url(#a)" fill="#fff" stroke="#fff"/>
<g clip-path="url(#a)">
<g transform="translate(170.66 451.62) rotate(-89.129) scale(.08 -.08)">
<use xlink:href="#t"/>
</g>
</g>
<path d="m207.4 376.41 3.799 3.3348q1.8037 1.5833 3.3869-0.22041l5.1077-5.8187q1.5833-1.8037-0.22041-3.3869l-3.799-3.3348q-1.8037-1.5833-3.3869 0.22041l-5.1077 5.8187q-1.5833 1.8037 0.22041 3.3869z" clip-path="url(#a)" fill="#fff" stroke="#fff"/>
<g clip-path="url(#a)">
<g transform="translate(210.09 373.36) rotate(41.277) scale(.08 -.08)">
<use xlink:href="#q"/>
</g>
</g>
<path d="m110.87 582.36v33.808q0 2.4 2.4 2.4h7.7425q2.4 0 2.4-2.4v-33.808q0-2.4-2.4-2.4h-7.7425q-2.4 0-2.4 2.4z" clip-path="url(#a)" fill="#fff" stroke="#fff"/>
<g clip-path="url(#a)">
<g transform="translate(114.93 582.36) rotate(90) scale(.08 -.08)">
<use xlink:href="#l"/>
<use x="44.083984" xlink:href="#h"/>
<use x="105.607422" xlink:href="#g"/>
<use x="144.970703" xlink:href="#k"/>
<use x="242.382812" xlink:href="#d"/>
<use x="270.166016" xlink:href="#i"/>
<use x="333.544922" xlink:href="#f"/>
<use x="394.824219" xlink:href="#j"/>
</g>
</g>
<path d="m134.03 582.36v33.808q0 2.4 2.4 2.4h7.7425q2.4 0 2.4-2.4v-33.808q0-2.4-2.4-2.4h-7.7425q-2.4 0-2.4 2.4z" clip-path="url(#a)" fill="#fff" stroke="#fff"/>
<g clip-path="url(#a)">
<g transform="translate(138.09 582.36) rotate(90) scale(.08 -.08)">
<use xlink:href="#l"/>
<use x="44.083984" xlink:href="#h"/>
<use x="105.607422" xlink:href="#g"/>
<use x="144.970703" xlink:href="#k"/>
<use x="242.382812" xlink:href="#d"/>
<use x="270.166016" xlink:href="#i"/>
<use x="333.544922" xlink:href="#f"/>
<use x="394.824219" xlink:href="#j"/>
</g>
</g>
<path d="m160.5 582.36v33.808q0 2.4 2.4 2.4h7.7425q2.4 0 2.4-2.4v-33.808q0-2.4-2.4-2.4h-7.7425q-2.4 0-2.4 2.4z" clip-path="url(#a)" fill="#fff" stroke="#fff"/>
<g clip-path="url(#a)">
<g transform="translate(164.56 582.36) rotate(90) scale(.08 -.08)">
<use xlink:href="#l"/>
<use x="44.083984" xlink:href="#h"/>
<use x="105.607422" xlink:href="#g"/>
<use x="144.970703" xlink:href="#k"/>
<use x="242.382812" xlink:href="#d"/>
<use x="270.166016" xlink:href="#i"/>
<use x="333.544922" xlink:href="#f"/>
<use x="394.824219" xlink:href="#j"/>
</g>
</g>
<path d="m215.7 492.3 2.8013-4.7011q1.2286-2.0617-0.83316-3.2903l-6.6512-3.9634q-2.0617-1.2286-3.2903 0.83316l-2.8014 4.7011q-1.2285 2.0617 0.83316 3.2903l6.6512 3.9634q2.0617 1.2286 3.2903-0.83316z" clip-path="url(#a)" fill="#fff" stroke="#fff"/>
<g clip-path="url(#a)">
<g transform="translate(212.21 490.22) rotate(-59.21) scale(.08 -.08)">
<use xlink:href="#o"/>
</g>
</g>
<path d="m231.54 491.3 1.7856-4.4811q0.88841-2.2295-1.3411-3.1179l-7.1925-2.866q-2.2295-0.88841-3.1179 1.3411l-1.7856 4.4811q-0.88841 2.2295 1.3411 3.1179l7.1925 2.866q2.2295 0.88841 3.1179-1.3411z" clip-path="url(#a)" fill="#fff" stroke="#fff"/>
<g clip-path="url(#a)">
<g transform="translate(227.77 489.79) rotate(-68.274) scale(.08 -.08)">
<use xlink:href="#x"/>
</g>
</g>
<path d="m255.32 447.27 0.75107 5.4207q0.32939 2.3773 2.7067 2.0479l7.6692-1.0626q2.3773-0.32939 2.0479-2.7067l-0.75107-5.4207q-0.32939-2.3773-2.7067-2.0479l-7.6692 1.0626q-2.3773 0.32939-2.0479 2.7067z" clip-path="url(#a)" fill="#fff" stroke="#fff"/>
<g clip-path="url(#a)">
<g transform="translate(259.34 446.71) rotate(82.112) scale(.08 -.08)">
<use xlink:href="#o"/>
</g>
</g>
<path d="m321.03 453.33 4.8112 2.6077q2.11 1.1436 3.2536-0.96636l3.6894-6.8069q1.1436-2.11-0.96636-3.2536l-4.8112-2.6077q-2.11-1.1436-3.2536 0.96636l-3.6894 6.8069q-1.1436 2.11 0.96636 3.2536z" clip-path="url(#a)" fill="#fff" stroke="#fff"/>
<g clip-path="url(#a)">
<g transform="translate(322.97 449.76) rotate(28.458) scale(.08 -.08)">
<use xlink:href="#o"/>
</g>
</g>
<path d="m190.28 582.36v33.808q0 2.4 2.4 2.4h7.7425q2.4 0 2.4-2.4v-33.808q0-2.4-2.4-2.4h-7.7425q-2.4 0-2.4 2.4z" clip-path="url(#a)" fill="#fff" stroke="#fff"/>
<g clip-path="url(#a)">
<g transform="translate(194.34 582.36) rotate(90) scale(.08 -.08)">
<use xlink:href="#l"/>
<use x="44.083984" xlink:href="#h"/>
<use x="105.607422" xlink:href="#g"/>
<use x="144.970703" xlink:href="#k"/>
<use x="242.382812" xlink:href="#d"/>
<use x="270.166016" xlink:href="#i"/>
<use x="333.544922" xlink:href="#f"/>
<use x="394.824219" xlink:href="#j"/>
</g>
</g>
<path d="m252.88 529.61 2.2552-4.5241q1.0707-2.1479-1.0772-3.2186l-6.9293-3.4542q-2.1479-1.0707-3.2186 1.0772l-2.2552 4.5241q-1.0707 2.1479 1.0772 3.2186l6.9293 3.4542q2.1479 1.0707 3.2186-1.0772z" clip-path="url(#a)" fill="#fff" stroke="#fff"/>
<g clip-path="url(#a)">
<g transform="translate(249.24 527.8) rotate(-63.504) scale(.08 -.08)">
<use xlink:href="#q"/>
</g>
</g>
<path d="m272.82 527.17 0.074105-5.0545q0.035184-2.3997-2.3646-2.4349l-7.7417-0.1135q-2.3997-0.035184-2.4349 2.3646l-0.074105 5.0545q-0.035184 2.3997 2.3646 2.4349l7.7417 0.1135q2.3997 0.035183 2.4349-2.3646z" clip-path="url(#a)" fill="#fff" stroke="#fff"/>
<g clip-path="url(#a)">
<g transform="translate(268.76 527.11) rotate(-89.16) scale(.08 -.08)">
<use xlink:href="#q"/>
</g>
</g>
<path d="m279.59 524.93 2.5504 4.9701q1.0957 2.1353 3.231 1.0396l6.8885-3.5348q2.1353-1.0957 1.0396-3.231l-2.5504-4.9701q-1.0957-2.1353-3.231-1.0396l-6.8885 3.5348q-2.1353 1.0957-1.0396 3.231z" clip-path="url(#a)" fill="#fff" stroke="#fff"/>
<g clip-path="url(#a)">
<g transform="translate(283.21 523.07) rotate(62.835) scale(.08 -.08)">
<use xlink:href="#t"/>
</g>
</g>
<path d="m376.3 530.25 2.9645-4.7023q1.2799-2.0302-0.75029-3.3101l-6.5496-4.1291q-2.0302-1.2799-3.3101 0.75029l-2.9645 4.7023q-1.2799 2.0302 0.75029 3.3101l6.5496 4.1291q2.0302 1.2799 3.3101-0.75029z" clip-path="url(#a)" fill="#fff" stroke="#fff"/>
<g clip-path="url(#a)">
<g transform="translate(372.86 528.08) rotate(-57.771) scale(.08 -.08)">
<use xlink:href="#ak"/>
</g>
</g>
<path d="m401.87 527.17 0.074105-5.0545q0.035183-2.3997-2.3646-2.4349l-7.7417-0.1135q-2.3997-0.035184-2.4349 2.3646l-0.074106 5.0545q-0.035183 2.3997 2.3646 2.4349l7.7417 0.1135q2.3997 0.035183 2.4349-2.3646z" clip-path="url(#a)" fill="#fff" stroke="#fff"/>
<g clip-path="url(#a)">
<g transform="translate(397.81 527.11) rotate(-89.16) scale(.08 -.08)">
<use xlink:href="#q"/>
</g>
</g>
<path d="m413.67 525.6 3.0283 4.6942q1.301 2.0168 3.3178 0.71575l6.5062-4.1971q2.0168-1.301 0.71575-3.3178l-3.0283-4.6942q-1.301-2.0168-3.3178-0.71575l-6.5062 4.1971q-2.0168 1.301-0.71575 3.3178z" clip-path="url(#a)" fill="#fff" stroke="#fff"/>
<g clip-path="url(#a)">
<g transform="translate(417.09 523.4) rotate(57.174) scale(.08 -.08)">
<use xlink:href="#t"/>
</g>
</g>
<path d="m342.49 582.36v33.808q0 2.4 2.4 2.4h7.7425q2.4 0 2.4-2.4v-33.808q0-2.4-2.4-2.4h-7.7425q-2.4 0-2.4 2.4z" clip-path="url(#a)" fill="#fff" stroke="#fff"/>
<g clip-path="url(#a)">
<g transform="translate(346.56 582.36) rotate(90) scale(.08 -.08)">
<use xlink:href="#l"/>
<use x="44.083984" xlink:href="#h"/>
<use x="105.607422" xlink:href="#g"/>
<use x="144.970703" xlink:href="#k"/>
<use x="242.382812" xlink:href="#d"/>
<use x="270.166016" xlink:href="#i"/>
<use x="333.544922" xlink:href="#f"/>
<use x="394.824219" xlink:href="#j"/>
</g>
</g>
<path d="m388.82 582.36v33.808q0 2.4 2.4 2.4h7.7425q2.4 0 2.4-2.4v-33.808q0-2.4-2.4-2.4h-7.7425q-2.4 0-2.4 2.4z" clip-path="url(#a)" fill="#fff" stroke="#fff"/>
<g clip-path="url(#a)">
<g transform="translate(392.88 582.36) rotate(90) scale(.08 -.08)">
<use xlink:href="#l"/>
<use x="44.083984" xlink:href="#h"/>
<use x="105.607422" xlink:href="#g"/>
<use x="144.970703" xlink:href="#k"/>
<use x="242.382812" xlink:href="#d"/>
<use x="270.166016" xlink:href="#i"/>
<use x="333.544922" xlink:href="#f"/>
<use x="394.824219" xlink:href="#j"/>
</g>
</g>
<path d="m438.45 582.36v33.808q0 2.4 2.4 2.4h7.7425q2.4 0 2.4-2.4v-33.808q0-2.4-2.4-2.4h-7.7425q-2.4 0-2.4 2.4z" clip-path="url(#a)" fill="#fff" stroke="#fff"/>
<g clip-path="url(#a)">
<g transform="translate(442.52 582.36) rotate(90) scale(.08 -.08)">
<use xlink:href="#l"/>
<use x="44.083984" xlink:href="#h"/>
<use x="105.607422" xlink:href="#g"/>
<use x="144.970703" xlink:href="#k"/>
<use x="242.382812" xlink:href="#d"/>
<use x="270.166016" xlink:href="#i"/>
<use x="333.544922" xlink:href="#f"/>
<use x="394.824219" xlink:href="#j"/>
</g>
</g>
<path d="m223.37 582.36v33.808q0 2.4 2.4 2.4h7.7425q2.4 0 2.4-2.4v-33.808q0-2.4-2.4-2.4h-7.7425q-2.4 0-2.4 2.4z" clip-path="url(#a)" fill="#fff" stroke="#fff"/>
<g clip-path="url(#a)">
<g transform="translate(227.43 582.36) rotate(90) scale(.08 -.08)">
<use xlink:href="#l"/>
<use x="44.083984" xlink:href="#h"/>
<use x="105.607422" xlink:href="#g"/>
<use x="144.970703" xlink:href="#k"/>
<use x="242.382812" xlink:href="#d"/>
<use x="270.166016" xlink:href="#i"/>
<use x="333.544922" xlink:href="#f"/>
<use x="394.824219" xlink:href="#j"/>
</g>
</g>
<path d="m259.77 582.36v33.808q0 2.4 2.4 2.4h7.7425q2.4 0 2.4-2.4v-33.808q0-2.4-2.4-2.4h-7.7425q-2.4 0-2.4 2.4z" clip-path="url(#a)" fill="#fff" stroke="#fff"/>
<g clip-path="url(#a)">
<g transform="translate(263.83 582.36) rotate(90) scale(.08 -.08)">
<use xlink:href="#l"/>
<use x="44.083984" xlink:href="#h"/>
<use x="105.607422" xlink:href="#g"/>
<use x="144.970703" xlink:href="#k"/>
<use x="242.382812" xlink:href="#d"/>
<use x="270.166016" xlink:href="#i"/>
<use x="333.544922" xlink:href="#f"/>
<use x="394.824219" xlink:href="#j"/>
</g>
</g>
<path d="m299.48 582.36v33.808q0 2.4 2.4 2.4h7.7425q2.4 0 2.4-2.4v-33.808q0-2.4-2.4-2.4h-7.7425q-2.4 0-2.4 2.4z" clip-path="url(#a)" fill="#fff" stroke="#fff"/>
<g clip-path="url(#a)">
<g transform="translate(303.54 582.36) rotate(90) scale(.08 -.08)">
<use xlink:href="#l"/>
<use x="44.083984" xlink:href="#h"/>
<use x="105.607422" xlink:href="#g"/>
<use x="144.970703" xlink:href="#k"/>
<use x="242.382812" xlink:href="#d"/>
<use x="270.166016" xlink:href="#i"/>
<use x="333.544922" xlink:href="#f"/>
<use x="394.824219" xlink:href="#j"/>
</g>
</g>
<path d="m74.467 582.36v33.808q0 2.4 2.4 2.4h7.7425q2.4 0 2.4-2.4v-33.808q0-2.4-2.4-2.4h-7.7425q-2.4 0-2.4 2.4z" clip-path="url(#a)" fill="#fff" stroke="#fff"/>
<g clip-path="url(#a)">
<g transform="translate(78.531 582.36) rotate(90) scale(.08 -.08)">
<use xlink:href="#l"/>
<use x="44.083984" xlink:href="#h"/>
<use x="105.607422" xlink:href="#g"/>
<use x="144.970703" xlink:href="#k"/>
<use x="242.382812" xlink:href="#d"/>
<use x="270.166016" xlink:href="#i"/>
<use x="333.544922" xlink:href="#f"/>
<use x="394.824219" xlink:href="#j"/>
</g>
</g>
<path d="m491.4 582.36v33.808q0 2.4 2.4 2.4h7.7425q2.4 0 2.4-2.4v-33.808q0-2.4-2.4-2.4h-7.7425q-2.4 0-2.4 2.4z" clip-path="url(#a)" fill="#fff" stroke="#fff"/>
<g clip-path="url(#a)">
<g transform="translate(495.46 582.36) rotate(90) scale(.08 -.08)">
<use xlink:href="#l"/>
<use x="44.083984" xlink:href="#h"/>
<use x="105.607422" xlink:href="#g"/>
<use x="144.970703" xlink:href="#k"/>
<use x="242.382812" xlink:href="#d"/>
<use x="270.166016" xlink:href="#i"/>
<use x="333.544922" xlink:href="#f"/>
<use x="394.824219" xlink:href="#j"/>
</g>
</g>
<path d="m1202.8 582.36v33.808q0 2.4 2.4 2.4h7.7425q2.4 0 2.4-2.4v-33.808q0-2.4-2.4-2.4h-7.7425q-2.4 0-2.4 2.4z" clip-path="url(#a)" fill="#fff" stroke="#fff"/>
<g clip-path="url(#a)">
<g transform="translate(1206.9 582.36) rotate(90) scale(.08 -.08)">
<use xlink:href="#l"/>
<use x="44.083984" xlink:href="#h"/>
<use x="105.607422" xlink:href="#g"/>
<use x="144.970703" xlink:href="#k"/>
<use x="242.382812" xlink:href="#d"/>
<use x="270.166016" xlink:href="#i"/>
<use x="333.544922" xlink:href="#f"/>
<use x="394.824219" xlink:href="#j"/>
</g>
</g>
<defs>
<path id="b" d="m0 8.6603c2.2967 0 4.4997-0.9125 6.1237-2.5365 1.624-1.624 2.5365-3.827 2.5365-6.1237s-0.9125-4.4997-2.5365-6.1237c-1.624-1.624-3.827-2.5365-6.1237-2.5365s-4.4997 0.9125-6.1237 2.5365c-1.624 1.624-2.5365 3.827-2.5365 6.1237s0.9125 4.4997 2.5365 6.1237c1.624 1.624 3.827 2.5365 6.1237 2.5365z"/>
</defs>
<g clip-path="url(#a)">
<use x="57.575758" y="636.363636" fill="#ffffff" stroke="#ffffff" xlink:href="#b"/>
</g>
<g clip-path="url(#a)">
<use x="67.502612" y="636.363636" fill="#ffffff" stroke="#ffffff" xlink:href="#b"/>
</g>
<g clip-path="url(#a)">
<use x="80.738419" y="636.363636" fill="#ffffff" stroke="#ffffff" xlink:href="#b"/>
</g>
<g clip-path="url(#a)">
<use x="97.283177" y="636.363636" fill="#ffffff" stroke="#ffffff" xlink:href="#b"/>
</g>
<g clip-path="url(#a)">
<use x="117.136886" y="636.363636" fill="#ffffff" stroke="#ffffff" xlink:href="#b"/>
</g>
<g clip-path="url(#a)">
<use x="140.299547" y="636.363636" fill="#ffffff" stroke="#ffffff" xlink:href="#b"/>
</g>
<g clip-path="url(#a)">
<use x="166.77116" y="636.363636" fill="#ffffff" stroke="#ffffff" xlink:href="#b"/>
</g>
<g clip-path="url(#a)">
<use x="196.551724" y="636.363636" fill="#ffffff" stroke="#ffffff" xlink:href="#b"/>
</g>
<g clip-path="url(#a)">
<use x="229.64124" y="636.363636" fill="#ffffff" stroke="#ffffff" xlink:href="#b"/>
</g>
<g clip-path="url(#a)">
<use x="266.039707" y="636.363636" fill="#ffffff" stroke="#ffffff" xlink:href="#b"/>
</g>
<g clip-path="url(#a)">
<use x="305.747126" y="636.363636" fill="#ffffff" stroke="#ffffff" xlink:href="#b"/>
</g>
<g clip-path="url(#a)">
<use x="348.763497" y="636.363636" fill="#ffffff" stroke="#ffffff" xlink:href="#b"/>
</g>
<g clip-path="url(#a)">
<use x="395.088819" y="636.363636" fill="#ffffff" stroke="#ffffff" xlink:href="#b"/>
</g>
<g clip-path="url(#a)">
<use x="444.723093" y="636.363636" fill="#ffffff" stroke="#ffffff" xlink:href="#b"/>
</g>
<g clip-path="url(#a)">
<use x="497.666318" y="636.363636" fill="#ffffff" stroke="#ffffff" xlink:href="#b"/>
</g>
<g clip-path="url(#a)">
<use x="553.918495" y="636.363636" fill="#ffffff" stroke="#ffffff" xlink:href="#b"/>
</g>
<g clip-path="url(#a)">
<use x="613.479624" y="636.363636" fill="#ffffff" stroke="#ffffff" xlink:href="#b"/>
</g>
<g clip-path="url(#a)">
<use x="676.349704" y="636.363636" fill="#ffffff" stroke="#ffffff" xlink:href="#b"/>
</g>
<g clip-path="url(#a)">
<use x="742.528736" y="636.363636" fill="#ffffff" stroke="#ffffff" xlink:href="#b"/>
</g>
<g clip-path="url(#a)">
<use x="812.016719" y="636.363636" fill="#ffffff" stroke="#ffffff" xlink:href="#b"/>
</g>
<g clip-path="url(#a)">
<use x="884.813654" y="636.363636" fill="#ffffff" stroke="#ffffff" xlink:href="#b"/>
</g>
<g clip-path="url(#a)">
<use x="960.91954" y="636.363636" fill="#ffffff" stroke="#ffffff" xlink:href="#b"/>
</g>
<g clip-path="url(#a)">
<use x="1040.334378" y="636.363636" fill="#ffffff" stroke="#ffffff" xlink:href="#b"/>
</g>
<g clip-path="url(#a)">
<use x="1123.058168" y="636.363636" fill="#ffffff" stroke="#ffffff" xlink:href="#b"/>
</g>
<g clip-path="url(#a)">
<use x="1209.090909" y="636.363636" fill="#ffffff" stroke="#ffffff" xlink:href="#b"/>
</g>
<g clip-path="url(#a)">
<use x="504.1722" y="30.30303" fill="#ffffff" stroke="#ffffff" xlink:href="#b"/>
</g>
<g clip-path="url(#a)">
<use x="504.1722" y="106.768255" fill="#ffffff" stroke="#ffffff" xlink:href="#b"/>
</g>
<g clip-path="url(#a)">
<use x="79.371178" y="183.123948" fill="#ffffff" stroke="#ffffff" xlink:href="#b"/>
</g>
<g clip-path="url(#a)">
<use x="553.918495" y="562.165129" fill="#ffffff" stroke="#ffffff" xlink:href="#b"/>
</g>
<g clip-path="url(#a)">
<use x="885.732807" y="335.426517" fill="#ffffff" stroke="#ffffff" xlink:href="#b"/>
</g>
<g clip-path="url(#a)">
<use x="689.034018" y="411.30917" fill="#ffffff" stroke="#ffffff" xlink:href="#b"/>
</g>
<g clip-path="url(#a)">
<use x="884.813654" y="562.165129" fill="#ffffff" stroke="#ffffff" xlink:href="#b"/>
</g>
<g clip-path="url(#a)">
<use x="1083.350749" y="486.934439" fill="#ffffff" stroke="#ffffff" xlink:href="#b"/>
</g>
<g clip-path="url(#a)">
<use x="960.91954" y="562.165129" fill="#ffffff" stroke="#ffffff" xlink:href="#b"/>
</g>
<g clip-path="url(#a)">
<use x="1040.334378" y="562.165129" fill="#ffffff" stroke="#ffffff" xlink:href="#b"/>
</g>
<g clip-path="url(#a)">
<use x="1123.058168" y="562.165129" fill="#ffffff" stroke="#ffffff" xlink:href="#b"/>
</g>
<g clip-path="url(#a)">
<use x="613.479624" y="562.165129" fill="#ffffff" stroke="#ffffff" xlink:href="#b"/>
</g>
<g clip-path="url(#a)">
<use x="676.349704" y="562.165129" fill="#ffffff" stroke="#ffffff" xlink:href="#b"/>
</g>
<g clip-path="url(#a)">
<use x="777.272727" y="486.934439" fill="#ffffff" stroke="#ffffff" xlink:href="#b"/>
</g>
<g clip-path="url(#a)">
<use x="742.528736" y="562.165129" fill="#ffffff" stroke="#ffffff" xlink:href="#b"/>
</g>
<g clip-path="url(#a)">
<use x="812.016719" y="562.165129" fill="#ffffff" stroke="#ffffff" xlink:href="#b"/>
</g>
<g clip-path="url(#a)">
<use x="57.575758" y="562.165129" fill="#ffffff" stroke="#ffffff" xlink:href="#b"/>
</g>
<g clip-path="url(#a)">
<use x="67.502612" y="562.165129" fill="#ffffff" stroke="#ffffff" xlink:href="#b"/>
</g>
<g clip-path="url(#a)">
<use x="111.667924" y="259.351897" fill="#ffffff" stroke="#ffffff" xlink:href="#b"/>
</g>
<g clip-path="url(#a)">
<use x="97.283177" y="562.165129" fill="#ffffff" stroke="#ffffff" xlink:href="#b"/>
</g>
<g clip-path="url(#a)">
<use x="170.217984" y="335.426517" fill="#ffffff" stroke="#ffffff" xlink:href="#b"/>
</g>
<g clip-path="url(#a)">
<use x="117.136886" y="562.165129" fill="#ffffff" stroke="#ffffff" xlink:href="#b"/>
</g>
<g clip-path="url(#a)">
<use x="140.299547" y="562.165129" fill="#ffffff" stroke="#ffffff" xlink:href="#b"/>
</g>
<g clip-path="url(#a)">
<use x="166.77116" y="562.165129" fill="#ffffff" stroke="#ffffff" xlink:href="#b"/>
</g>
<g clip-path="url(#a)">
<use x="256.664345" y="411.30917" fill="#ffffff" stroke="#ffffff" xlink:href="#b"/>
</g>
<g clip-path="url(#a)">
<use x="196.551724" y="562.165129" fill="#ffffff" stroke="#ffffff" xlink:href="#b"/>
</g>
<g clip-path="url(#a)">
<use x="267.142691" y="486.934439" fill="#ffffff" stroke="#ffffff" xlink:href="#b"/>
</g>
<g clip-path="url(#a)">
<use x="396.191803" y="486.934439" fill="#ffffff" stroke="#ffffff" xlink:href="#b"/>
</g>
<g clip-path="url(#a)">
<use x="348.763497" y="562.165129" fill="#ffffff" stroke="#ffffff" xlink:href="#b"/>
</g>
<g clip-path="url(#a)">
<use x="395.088819" y="562.165129" fill="#ffffff" stroke="#ffffff" xlink:href="#b"/>
</g>
<g clip-path="url(#a)">
<use x="444.723093" y="562.165129" fill="#ffffff" stroke="#ffffff" xlink:href="#b"/>
</g>
<g clip-path="url(#a)">
<use x="229.64124" y="562.165129" fill="#ffffff" stroke="#ffffff" xlink:href="#b"/>
</g>
<g clip-path="url(#a)">
<use x="266.039707" y="562.165129" fill="#ffffff" stroke="#ffffff" xlink:href="#b"/>
</g>
<g clip-path="url(#a)">
<use x="305.747126" y="562.165129" fill="#ffffff" stroke="#ffffff" xlink:href="#b"/>
</g>
<g clip-path="url(#a)">
<use x="80.738419" y="562.165129" fill="#ffffff" stroke="#ffffff" xlink:href="#b"/>
</g>
<g clip-path="url(#a)">
<use x="497.666318" y="562.165129" fill="#ffffff" stroke="#ffffff" xlink:href="#b"/>
</g>
<g clip-path="url(#a)">
<use x="1209.090909" y="562.165129" fill="#ffffff" stroke="#ffffff" xlink:href="#b"/>
</g>
<g clip-path="url(#a)">
<defs>
<path id="r" d="m44.281 53.078v-8.5q-3.7969 1.9531-7.9062 2.9219-4.0938 0.98438-8.5 0.98438-6.6875 0-10.031-2.0469t-3.3438-6.1562q0-3.125 2.3906-4.9062t9.625-3.3906l3.0781-0.6875q9.5625-2.0469 13.594-5.7812t4.0312-10.422q0-7.625-6.0312-12.078-6.0312-4.4375-16.578-4.4375-4.3906 0-9.1562 0.85938t-10.031 2.5625v9.2812q4.9844-2.5938 9.8125-3.8906 4.8281-1.2812 9.5781-1.2812 6.3438 0 9.75 2.1719 3.4219 2.1719 3.4219 6.125 0 3.6562-2.4688 5.6094-2.4531 1.9531-10.812 3.7656l-3.125 0.73438q-8.3438 1.75-12.062 5.3906-3.7031 3.6406-3.7031 9.9844 0 7.7188 5.4688 11.906 5.4688 4.2031 15.531 4.2031 4.9688 0 9.3594-0.73438 4.4062-0.71875 8.1094-2.1875z"/>
</defs>
<g transform="translate(49.822 639.12) scale(.1 -.1)">
<use xlink:href="#y"/>
<use x="75.195312" xlink:href="#d"/>
<use x="102.978516" xlink:href="#r"/>
</g>
</g>
<g clip-path="url(#a)">
<defs>
<path id="p" d="m48.781 52.594v-8.4062q-3.8125 2.1094-7.6406 3.1562t-7.7344 1.0469q-8.75 0-13.594-5.5469-4.8281-5.5312-4.8281-15.547t4.8281-15.562q4.8438-5.5312 13.594-5.5312 3.9062 0 7.7344 1.0469t7.6406 3.1562v-8.3125q-3.7656-1.75-7.7969-2.625-4.0156-0.89062-8.5625-0.89062-12.359 0-19.641 7.7656-7.2656 7.7656-7.2656 20.953 0 13.375 7.3438 21.031 7.3594 7.6719 20.156 7.6719 4.1406 0 8.0938-0.85938 3.9531-0.84375 7.6719-2.5469z"/>
<path id="s" d="m18.312 70.219v-15.531h18.5v-6.9844h-18.5v-29.688q0-6.6875 1.8281-8.5938t7.4531-1.9062h9.2188v-7.5156h-9.2188q-10.406 0-14.359 3.875-3.9531 3.8906-3.9531 14.141v29.688h-6.5938v6.9844h6.5938v15.531z"/>
</defs>
<g transform="translate(55.169 639.12) scale(.1 -.1)">
<use xlink:href="#p"/>
<use x="54.980469" xlink:href="#g"/>
<use x="93.84375" xlink:href="#h"/>
<use x="155.367188" xlink:href="#r"/>
<use x="207.466797" xlink:href="#s"/>
</g>
</g>
<g clip-path="url(#a)">
<defs>
<path id="al" d="m11.719 12.406h10.297v-8.4062l-8-15.625h-6.2969l4 15.625z"/>
</defs>
<g transform="translate(79.149 639.12) scale(.1 -.1)">
<use xlink:href="#al"/>
</g>
</g>
<g clip-path="url(#a)">
<defs>
<path id="an" d="m37.109 75.984v-7.4844h-8.5938q-4.8281 0-6.7188-1.9531-1.875-1.9531-1.875-7.0312v-4.8281h14.797v-6.9844h-14.797v-47.703h-9.0312v47.703h-8.5938v6.9844h8.5938v3.8125q0 9.125 4.25 13.297 4.25 4.1875 13.469 4.1875z"/>
<path id="v" d="m8.5 21.578v33.109h8.9844v-32.766q0-7.7656 3.0156-11.656 3.0312-3.875 9.0938-3.875 7.2656 0 11.484 4.6406 4.2344 4.6406 4.2344 12.656v31h8.9844v-54.688h-8.9844v8.4062q-3.2656-4.9844-7.5938-7.4062-4.3125-2.4219-10.031-2.4219-9.4219 0-14.312 5.8594-4.875 5.8594-4.875 17.141z"/>
<path id="ae" d="m45.406 27.984q0 9.7656-4.0312 15.125-4.0156 5.375-11.297 5.375-7.2188 0-11.25-5.375-4.0312-5.3594-4.0312-15.125 0-9.7188 4.0312-15.094t11.25-5.375q7.2812 0 11.297 5.375 4.0312 5.375 4.0312 15.094zm8.9844-21.203q0-13.953-6.2031-20.766-6.1875-6.8125-18.984-6.8125-4.7344 0-8.9375 0.70312t-8.1562 2.1719v8.7344q3.9531-2.1406 7.8125-3.1562 3.8594-1.0312 7.8594-1.0312 8.8438 0 13.234 4.6094t4.3906 13.938v4.4531q-2.7812-4.8438-7.125-7.2344t-10.406-2.3906q-10.047 0-16.203 7.6562-6.1562 7.6719-6.1562 20.328 0 12.688 6.1562 20.344 6.1562 7.6719 16.203 7.6719 6.0625 0 10.406-2.3906t7.125-7.2188v8.2969h8.9844z"/>
</defs>
<g transform="translate(74.466 639.12) scale(.1 -.1)">
<use xlink:href="#an"/>
<use x="35.205078" xlink:href="#h"/>
<use x="96.728516" xlink:href="#f"/>
<use x="158.007812" xlink:href="#s"/>
<use x="197.216797" xlink:href="#v"/>
<use x="260.595703" xlink:href="#g"/>
<use x="301.708984" xlink:href="#d"/>
<use x="329.492188" xlink:href="#i"/>
<use x="392.871094" xlink:href="#ae"/>
</g>
</g>
<g clip-path="url(#a)">
<g transform="translate(114.07 639.12) scale(.1 -.1)">
<use xlink:href="#f"/>
</g>
</g>
<g clip-path="url(#a)">
<defs>
<path id="am" d="m2.9844 54.688h9.5156l17.094-45.891 17.094 45.891h9.5156l-20.516-54.688h-12.203z"/>
</defs>
<g transform="translate(128.03 639.12) scale(.1 -.1)">
<use xlink:href="#ah"/>
<use x="55.712891" xlink:href="#d"/>
<use x="83.496094" xlink:href="#am"/>
<use x="142.675781" xlink:href="#h"/>
<use x="204.199219" xlink:href="#g"/>
</g>
</g>
<g clip-path="url(#a)">
<defs>
<path id="aq" d="m19.672 34.812v-26.703h15.828q7.9531 0 11.781 3.2969 3.8438 3.2969 3.8438 10.078 0 6.8438-3.8438 10.078-3.8281 3.25-11.781 3.25zm0 29.984v-21.969h14.609q7.2188 0 10.75 2.7031 3.5469 2.7188 3.5469 8.2812 0 5.5156-3.5469 8.25-3.5312 2.7344-10.75 2.7344zm-9.8594 8.1094h25.203q11.281 0 17.375-4.6875 6.1094-4.6875 6.1094-13.328 0-6.7031-3.125-10.656t-9.1875-4.9219q7.2812-1.5625 11.312-6.5312 4.0312-4.9531 4.0312-12.375 0-9.7656-6.6406-15.094-6.6406-5.3125-18.906-5.3125h-26.172z"/>
<path id="af" d="m45.406 46.391v29.594h8.9844v-75.984h-8.9844v8.2031q-2.8281-4.875-7.1562-7.25-4.3125-2.375-10.375-2.375-9.9062 0-16.141 7.9062-6.2188 7.9219-6.2188 20.812t6.2188 20.797q6.2344 7.9062 16.141 7.9062 6.0625 0 10.375-2.375 4.3281-2.3594 7.1562-7.2344zm-30.609-19.094q0-9.9062 4.0781-15.547t11.203-5.6406 11.219 5.6406q4.1094 5.6406 4.1094 15.547t-4.1094 15.547q-4.0938 5.6406-11.219 5.6406t-11.203-5.6406-4.0781-15.547z"/>
</defs>
<g transform="translate(156.81 639.12) scale(.1 -.1)">
<use xlink:href="#aq"/>
<use x="68.603516" xlink:href="#d"/>
<use x="96.386719" xlink:href="#g"/>
<use x="135.75" xlink:href="#af"/>
</g>
</g>
<g clip-path="url(#a)">
<defs>
<path id="aj" d="m54.891 33.016v-33.016h-8.9844v32.719q0 7.7656-3.0312 11.609-3.0312 3.8594-9.0781 3.8594-7.2812 0-11.484-4.6406-4.2031-4.625-4.2031-12.641v-30.906h-9.0312v75.984h9.0312v-29.797q3.2344 4.9375 7.5938 7.375 4.375 2.4375 10.094 2.4375 9.4219 0 14.25-5.8281 4.8438-5.8281 4.8438-17.156z"/>
<path id="w" d="m30.609 48.391q-7.2188 0-11.422-5.6406t-4.2031-15.453 4.1719-15.453q4.1875-5.6406 11.453-5.6406 7.1875 0 11.375 5.6562 4.2031 5.6719 4.2031 15.438 0 9.7188-4.2031 15.406-4.1875 5.6875-11.375 5.6875zm0 7.6094q11.719 0 18.406-7.625 6.7031-7.6094 6.7031-21.078 0-13.422-6.7031-21.078-6.6875-7.6406-18.406-7.6406-11.766 0-18.438 7.6406-6.6562 7.6562-6.6562 21.078 0 13.469 6.6562 21.078 6.6719 7.625 18.438 7.625z"/>
</defs>
<g transform="translate(178.03 639.12) scale(.1 -.1)">
<use xlink:href="#aj"/>
<use x="63.378906" xlink:href="#w"/>
<use x="124.560547" xlink:href="#j"/>
<use x="152.34375" xlink:href="#af"/>
<use x="215.820312" xlink:href="#d"/>
<use x="243.603516" xlink:href="#i"/>
<use x="306.982422" xlink:href="#ae"/>
</g>
</g>
<g clip-path="url(#a)">
<g transform="translate(223.41 639.12) scale(.1 -.1)">
<use xlink:href="#f"/>
<use x="61.279297" xlink:href="#i"/>
</g>
</g>
<g clip-path="url(#a)">
<g transform="translate(245.3 639.12) scale(.1 -.1)">
<use xlink:href="#f"/>
<use x="61.279297" xlink:href="#p"/>
<use x="116.259766" xlink:href="#w"/>
<use x="177.441406" xlink:href="#v"/>
<use x="240.820312" xlink:href="#r"/>
<use x="292.919922" xlink:href="#s"/>
<use x="332.128906" xlink:href="#d"/>
<use x="359.912109" xlink:href="#p"/>
</g>
</g>
<g clip-path="url(#a)">
<g transform="translate(290.94 639.12) scale(.1 -.1)">
<use xlink:href="#ae"/>
<use x="63.476562" xlink:href="#v"/>
<use x="126.855469" xlink:href="#d"/>
<use x="154.638672" xlink:href="#s"/>
<use x="193.847656" xlink:href="#f"/>
<use x="255.126953" xlink:href="#g"/>
</g>
</g>
<g clip-path="url(#a)">
<g transform="translate(344.21 639.12) scale(.1 -.1)">
<use xlink:href="#d"/>
<use x="27.783203" xlink:href="#i"/>
</g>
</g>
<g clip-path="url(#a)">
<g transform="translate(389.13 639.12) scale(.1 -.1)">
<use xlink:href="#d"/>
<use x="27.783203" xlink:href="#s"/>
<use x="66.992188" xlink:href="#r"/>
</g>
</g>
<g clip-path="url(#a)">
<defs>
<path id="ar" d="m4.2031 54.688h8.9844l11.234-42.672 11.172 42.672h10.594l11.234-42.672 11.188 42.672h8.9844l-14.312-54.688h-10.594l-11.766 44.828-11.812-44.828h-10.609z"/>
</defs>
<g transform="translate(433.43 639.12) scale(.1 -.1)">
<use xlink:href="#p"/>
<use x="54.980469" xlink:href="#j"/>
<use x="82.763672" xlink:href="#f"/>
<use x="144.042969" xlink:href="#ar"/>
</g>
</g>
<g clip-path="url(#a)">
<g transform="translate(496.08 639.12) scale(.1 -.1)">
<use xlink:href="#al"/>
</g>
</g>
<g clip-path="url(#a)">
<g transform="translate(535.36 639.12) scale(.1 -.1)">
<use xlink:href="#g"/>
<use x="38.863281" xlink:href="#h"/>
<use x="100.386719" xlink:href="#an"/>
<use x="135.591797" xlink:href="#j"/>
<use x="163.375" xlink:href="#h"/>
<use x="224.898438" xlink:href="#p"/>
<use x="279.878906" xlink:href="#s"/>
<use x="319.087891" xlink:href="#r"/>
</g>
</g>
<g clip-path="url(#a)">
<g transform="translate(606.32 639.12) scale(.1 -.1)">
<use xlink:href="#aj"/>
<use x="63.378906" xlink:href="#d"/>
<use x="91.162109" xlink:href="#r"/>
</g>
</g>
<g clip-path="url(#a)">
<defs>
<path id="ao" d="m48.688 27.297q0 9.9062-4.0781 15.547t-11.203 5.6406q-7.1406 0-11.219-5.6406t-4.0781-15.547 4.0781-15.547 11.219-5.6406q7.125 0 11.203 5.6406t4.0781 15.547zm-30.578 19.094q2.8438 4.875 7.1562 7.2344 4.3281 2.375 10.328 2.375 9.9688 0 16.188-7.9062 6.2344-7.9062 6.2344-20.797t-6.2344-20.812q-6.2188-7.9062-16.188-7.9062-6 0-10.328 2.375-4.3125 2.375-7.1562 7.25v-8.2031h-9.0312v75.984h9.0312z"/>
<path id="at" d="m9.0781 75.984h9.0312v-44.875l26.812 23.578h11.469l-29-25.578 30.234-29.109h-11.719l-27.797 26.703v-26.703h-9.0312z"/>
</defs>
<g transform="translate(646.78 639.12) scale(.1 -.1)">
<use xlink:href="#ao"/>
<use x="63.476562" xlink:href="#f"/>
<use x="124.755859" xlink:href="#p"/>
<use x="179.736328" xlink:href="#at"/>
<use x="237.646484" xlink:href="#ae"/>
<use x="301.123047" xlink:href="#g"/>
<use x="339.986328" xlink:href="#w"/>
<use x="401.167969" xlink:href="#v"/>
<use x="464.546875" xlink:href="#i"/>
<use x="527.925781" xlink:href="#af"/>
</g>
</g>
<g clip-path="url(#a)">
<g transform="translate(737.97 639.12) scale(.1 -.1)">
<use xlink:href="#d"/>
<use x="27.783203" xlink:href="#i"/>
</g>
</g>
<g clip-path="url(#a)">
<defs>
<path id="as" d="m18.109 8.2031v-29h-9.0312v75.484h9.0312v-8.2969q2.8438 4.875 7.1562 7.2344 4.3281 2.375 10.328 2.375 9.9688 0 16.188-7.9062 6.2344-7.9062 6.2344-20.797t-6.2344-20.812q-6.2188-7.9062-16.188-7.9062-6 0-10.328 2.375-4.3125 2.375-7.1562 7.25zm30.578 19.094q0 9.9062-4.0781 15.547t-11.203 5.6406q-7.1406 0-11.219-5.6406t-4.0781-15.547 4.0781-15.547 11.219-5.6406q7.125 0 11.203 5.6406t4.0781 15.547z"/>
</defs>
<g transform="translate(789.07 639.12) scale(.1 -.1)">
<use xlink:href="#ah"/>
<use x="55.712891" xlink:href="#d"/>
<use x="83.496094" xlink:href="#am"/>
<use x="142.675781" xlink:href="#h"/>
<use x="204.199219" xlink:href="#g"/>
<use x="245.3125" xlink:href="#as"/>
<use x="308.789062" xlink:href="#w"/>
<use x="369.970703" xlink:href="#w"/>
<use x="431.152344" xlink:href="#j"/>
</g>
</g>
<g clip-path="url(#a)">
<g transform="translate(875.41 639.12) scale(.1 -.1)">
<use xlink:href="#f"/>
<use x="61.279297" xlink:href="#i"/>
<use x="124.658203" xlink:href="#af"/>
</g>
</g>
<g clip-path="url(#a)">
<g transform="translate(953.76 639.12) scale(.1 -.1)">
<use xlink:href="#aj"/>
<use x="63.378906" xlink:href="#d"/>
<use x="91.162109" xlink:href="#r"/>
</g>
</g>
<g clip-path="url(#a)">
<g transform="translate(1021.1 639.12) scale(.1 -.1)">
<use xlink:href="#k"/>
<use x="97.412109" xlink:href="#v"/>
<use x="160.791016" xlink:href="#r"/>
<use x="212.890625" xlink:href="#d"/>
<use x="240.673828" xlink:href="#p"/>
<use x="295.654297" xlink:href="#f"/>
<use x="356.933594" xlink:href="#j"/>
</g>
</g>
<g clip-path="url(#a)">
<g transform="translate(1107.1 639.12) scale(.1 -.1)">
<use xlink:href="#p"/>
<use x="54.980469" xlink:href="#f"/>
<use x="116.259766" xlink:href="#g"/>
<use x="155.123047" xlink:href="#h"/>
<use x="216.646484" xlink:href="#h"/>
<use x="278.169922" xlink:href="#g"/>
</g>
</g>
<g clip-path="url(#a)">
<defs>
<path id="e" d="m10.688 12.406h10.312v-12.406h-10.312z"/>
</defs>
<g transform="translate(1207.5 639.12) scale(.1 -.1)">
<use xlink:href="#e"/>
</g>
</g>
<g clip-path="url(#a)">
<defs>
<path id="c" d="m12.406 8.2969h16.109v55.625l-17.531-3.5156v8.9844l17.438 3.5156h9.8594v-64.609h16.109v-8.2969h-41.984z"/>
</defs>
<g transform="translate(496.22 33.062) scale(.1 -.1)">
<use xlink:href="#c"/>
<use x="63.623047" xlink:href="#e"/>
<use x="95.410156" xlink:href="#c"/>
</g>
</g>
<g clip-path="url(#a)">
<defs>
<path id="n" d="m19.188 8.2969h34.422v-8.2969h-46.281v8.2969q5.6094 5.8125 15.297 15.594 9.7031 9.7969 12.188 12.641 4.7344 5.3125 6.6094 9 1.8906 3.6875 1.8906 7.25 0 5.8125-4.0781 9.4688-4.0781 3.6719-10.625 3.6719-4.6406 0-9.7969-1.6094-5.1406-1.6094-11-4.8906v9.9688q5.9531 2.3906 11.125 3.6094 5.1875 1.2188 9.4844 1.2188 11.328 0 18.062-5.6719 6.7344-5.6562 6.7344-15.125 0-4.5-1.6875-8.5312-1.6719-4.0156-6.125-9.4844-1.2188-1.4219-7.7656-8.1875-6.5312-6.7656-18.453-18.922z"/>
</defs>
<g transform="translate(496.22 109.53) scale(.1 -.1)">
<use xlink:href="#c"/>
<use x="63.623047" xlink:href="#e"/>
<use x="95.410156" xlink:href="#n"/>
</g>
</g>
<g clip-path="url(#a)">
<defs>
<path id="u" d="m37.797 64.312-24.906-38.922h24.906zm-2.5938 8.5938h12.406v-47.516h10.406v-8.2031h-10.406v-17.188h-9.8125v17.188h-32.906v9.5156z"/>
</defs>
<g transform="translate(71.42 185.88) scale(.1 -.1)">
<use xlink:href="#c"/>
<use x="63.623047" xlink:href="#e"/>
<use x="95.410156" xlink:href="#u"/>
</g>
</g>
<g clip-path="url(#a)">
<defs>
<path id="ac" d="m10.797 72.906h38.719v-8.3125h-29.688v-17.859q2.1406 0.73438 4.2812 1.0938 2.1562 0.35938 4.3125 0.35938 12.203 0 19.328-6.6875 7.1406-6.6875 7.1406-18.109 0-11.766-7.3281-18.297-7.3281-6.5156-20.656-6.5156-4.5938 0-9.3594 0.78125-4.75 0.78125-9.8281 2.3438v9.9219q4.3906-2.3906 9.0781-3.5625t9.9062-1.1719q8.4531 0 13.375 4.4375 4.9375 4.4375 4.9375 12.062 0 7.6094-4.9375 12.047-4.9219 4.4531-13.375 4.4531-3.9531 0-7.8906-0.875-3.9219-0.875-8.0156-2.7344z"/>
</defs>
<g transform="translate(545.97 564.92) scale(.1 -.1)">
<use xlink:href="#c"/>
<use x="63.623047" xlink:href="#e"/>
<use x="95.410156" xlink:href="#ac"/>
</g>
</g>
<g clip-path="url(#a)">
<defs>
<path id="ab" d="m33.016 40.375q-6.6406 0-10.531-4.5469-3.875-4.5312-3.875-12.438 0-7.8594 3.875-12.438 3.8906-4.5625 10.531-4.5625t10.516 4.5625q3.875 4.5781 3.875 12.438 0 7.9062-3.875 12.438-3.875 4.5469-10.516 4.5469zm19.578 30.922v-8.9844q-3.7188 1.75-7.5 2.6719-3.7812 0.9375-7.5 0.9375-9.7656 0-14.922-6.5938-5.1406-6.5938-5.875-19.922 2.875 4.25 7.2188 6.5156 4.3594 2.2656 9.5781 2.2656 10.984 0 17.359-6.6719 6.375-6.6562 6.375-18.125 0-11.234-6.6406-18.031-6.6406-6.7812-17.672-6.7812-12.656 0-19.344 9.6875-6.6875 9.7031-6.6875 28.109 0 17.281 8.2031 27.562t22.016 10.281q3.7188 0 7.5-0.73438t7.8906-2.1875z"/>
</defs>
<g transform="translate(877.78 338.19) scale(.1 -.1)">
<use xlink:href="#c"/>
<use x="63.623047" xlink:href="#e"/>
<use x="95.410156" xlink:href="#ab"/>
</g>
</g>
<g clip-path="url(#a)">
<defs>
<path id="aa" d="m31.781 34.625q-7.0312 0-11.062-3.7656-4.0156-3.7656-4.0156-10.344 0-6.5938 4.0156-10.359 4.0312-3.7656 11.062-3.7656t11.078 3.7812q4.0625 3.7969 4.0625 10.344 0 6.5781-4.0312 10.344-4.0156 3.7656-11.109 3.7656zm-9.8594 4.1875q-6.3438 1.5625-9.8906 5.9062-3.5312 4.3594-3.5312 10.609 0 8.7344 6.2188 13.812 6.2344 5.0781 17.062 5.0781 10.891 0 17.094-5.0781t6.2031-13.812q0-6.25-3.5469-10.609-3.5312-4.3438-9.8281-5.9062 7.125-1.6562 11.094-6.5 3.9844-4.8281 3.9844-11.797 0-10.609-6.4688-16.281-6.4688-5.6562-18.531-5.6562-12.047 0-18.531 5.6562-6.4688 5.6719-6.4688 16.281 0 6.9688 4 11.797 4.0156 4.8438 11.141 6.5zm-3.6094 15.578q0-5.6562 3.5312-8.8281 3.5469-3.1719 9.9375-3.1719 6.3594 0 9.9375 3.1719 3.5938 3.1719 3.5938 8.8281 0 5.6719-3.5938 8.8438-3.5781 3.1719-9.9375 3.1719-6.3906 0-9.9375-3.1719-3.5312-3.1719-3.5312-8.8438z"/>
</defs>
<g transform="translate(681.08 414.07) scale(.1 -.1)">
<use xlink:href="#c"/>
<use x="63.623047" xlink:href="#e"/>
<use x="95.410156" xlink:href="#aa"/>
</g>
</g>
<g clip-path="url(#a)">
<defs>
<path id="z" d="m10.984 1.5156v8.9844q3.7188-1.7656 7.5156-2.6875 3.8125-0.92188 7.4844-0.92188 9.7656 0 14.906 6.5625 5.1562 6.5625 5.8906 19.953-2.8281-4.2031-7.1875-6.4531-4.3438-2.25-9.6094-2.25-10.938 0-17.312 6.6094-6.375 6.625-6.375 18.109 0 11.219 6.6406 18 6.6406 6.7969 17.672 6.7969 12.656 0 19.312-9.7031 6.6719-9.6875 6.6719-28.141 0-17.234-8.1875-27.516-8.1719-10.281-21.984-10.281-3.7188 0-7.5312 0.73438-3.7969 0.73438-7.9062 2.2031zm19.625 30.906q6.6406 0 10.516 4.5312 3.8906 4.5469 3.8906 12.469 0 7.8594-3.8906 12.422-3.875 4.5625-10.516 4.5625t-10.516-4.5625-3.875-12.422q0-7.9219 3.875-12.469 3.875-4.5312 10.516-4.5312z"/>
</defs>
<g transform="translate(876.86 564.92) scale(.1 -.1)">
<use xlink:href="#c"/>
<use x="63.623047" xlink:href="#e"/>
<use x="95.410156" xlink:href="#z"/>
</g>
</g>
<g clip-path="url(#a)">
<defs>
<path id="ad" d="m31.781 66.406q-7.6094 0-11.453-7.5-3.8281-7.4844-3.8281-22.531 0-14.984 3.8281-22.484 3.8438-7.5 11.453-7.5 7.6719 0 11.5 7.5 3.8438 7.5 3.8438 22.484 0 15.047-3.8438 22.531-3.8281 7.5-11.5 7.5zm0 7.8125q12.266 0 18.734-9.7031 6.4688-9.6875 6.4688-28.141 0-18.406-6.4688-28.109-6.4688-9.6875-18.734-9.6875-12.25 0-18.719 9.6875-6.4688 9.7031-6.4688 28.109 0 18.453 6.4688 28.141 6.4688 9.7031 18.719 9.7031z"/>
</defs>
<g transform="translate(1072.2 489.69) scale(.1 -.1)">
<use xlink:href="#c"/>
<use x="63.623047" xlink:href="#e"/>
<use x="95.410156" xlink:href="#c"/>
<use x="159.033203" xlink:href="#ad"/>
</g>
</g>
<g clip-path="url(#a)">
<g transform="translate(949.79 564.92) scale(.1 -.1)">
<use xlink:href="#c"/>
<use x="63.623047" xlink:href="#e"/>
<use x="95.410156" xlink:href="#c"/>
<use x="159.033203" xlink:href="#c"/>
</g>
</g>
<g clip-path="url(#a)">
<g transform="translate(1029.2 564.92) scale(.1 -.1)">
<use xlink:href="#c"/>
<use x="63.623047" xlink:href="#e"/>
<use x="95.410156" xlink:href="#c"/>
<use x="159.033203" xlink:href="#n"/>
</g>
</g>
<g clip-path="url(#a)">
<defs>
<path id="m" d="m40.578 39.312q7.0781-1.5156 11.047-6.3125 3.9844-4.7812 3.9844-11.812 0-10.781-7.4219-16.703-7.4219-5.9062-21.094-5.9062-4.5781 0-9.4375 0.90625t-10.031 2.7188v9.5156q4.0938-2.3906 8.9688-3.6094 4.8906-1.2188 10.219-1.2188 9.2656 0 14.125 3.6562t4.8594 10.641q0 6.4531-4.5156 10.078-4.5156 3.6406-12.562 3.6406h-8.5v8.1094h8.8906q7.2656 0 11.125 2.9062t3.8594 8.375q0 5.6094-3.9844 8.6094-3.9688 3.0156-11.391 3.0156-4.0625 0-8.7031-0.89062-4.6406-0.875-10.203-2.7188v8.7812q5.625 1.5625 10.531 2.3438t9.25 0.78125q11.234 0 17.766-5.1094 6.5469-5.0938 6.5469-13.781 0-6.0625-3.4688-10.234t-9.8594-5.7812z"/>
</defs>
<g transform="translate(1111.9 564.92) scale(.1 -.1)">
<use xlink:href="#c"/>
<use x="63.623047" xlink:href="#e"/>
<use x="95.410156" xlink:href="#c"/>
<use x="159.033203" xlink:href="#m"/>
</g>
</g>
<g clip-path="url(#a)">
<g transform="translate(602.35 564.92) scale(.1 -.1)">
<use xlink:href="#c"/>
<use x="63.623047" xlink:href="#e"/>
<use x="95.410156" xlink:href="#c"/>
<use x="159.033203" xlink:href="#u"/>
</g>
</g>
<g clip-path="url(#a)">
<g transform="translate(665.22 564.92) scale(.1 -.1)">
<use xlink:href="#c"/>
<use x="63.623047" xlink:href="#e"/>
<use x="95.410156" xlink:href="#c"/>
<use x="159.033203" xlink:href="#ac"/>
</g>
</g>
<g clip-path="url(#a)">
<g transform="translate(766.14 489.69) scale(.1 -.1)">
<use xlink:href="#c"/>
<use x="63.623047" xlink:href="#e"/>
<use x="95.410156" xlink:href="#c"/>
<use x="159.033203" xlink:href="#ab"/>
</g>
</g>
<g clip-path="url(#a)">
<defs>
<path id="ai" d="m8.2031 72.906h46.875v-4.2031l-26.469-68.703h-10.297l24.906 64.594h-35.016z"/>
</defs>
<g transform="translate(731.4 564.92) scale(.1 -.1)">
<use xlink:href="#c"/>
<use x="63.623047" xlink:href="#e"/>
<use x="95.410156" xlink:href="#c"/>
<use x="159.033203" xlink:href="#ai"/>
</g>
</g>
<g clip-path="url(#a)">
<g transform="translate(800.88 564.92) scale(.1 -.1)">
<use xlink:href="#c"/>
<use x="63.623047" xlink:href="#e"/>
<use x="95.410156" xlink:href="#c"/>
<use x="159.033203" xlink:href="#aa"/>
</g>
</g>
<g clip-path="url(#a)">
<g transform="translate(46.443 564.92) scale(.1 -.1)">
<use xlink:href="#c"/>
<use x="63.623047" xlink:href="#e"/>
<use x="95.410156" xlink:href="#c"/>
<use x="159.033203" xlink:href="#z"/>
</g>
</g>
<g clip-path="url(#a)">
<g transform="translate(56.37 564.92) scale(.1 -.1)">
<use xlink:href="#c"/>
<use x="63.623047" xlink:href="#e"/>
<use x="95.410156" xlink:href="#n"/>
<use x="159.033203" xlink:href="#ad"/>
</g>
</g>
<g clip-path="url(#a)">
<g transform="translate(100.54 262.11) scale(.1 -.1)">
<use xlink:href="#c"/>
<use x="63.623047" xlink:href="#e"/>
<use x="95.410156" xlink:href="#n"/>
<use x="159.033203" xlink:href="#c"/>
</g>
</g>
<g clip-path="url(#a)">
<g transform="translate(86.15 564.92) scale(.1 -.1)">
<use xlink:href="#c"/>
<use x="63.623047" xlink:href="#e"/>
<use x="95.410156" xlink:href="#n"/>
<use x="159.033203" xlink:href="#m"/>
</g>
</g>
<g clip-path="url(#a)">
<g transform="translate(159.09 338.19) scale(.1 -.1)">
<use xlink:href="#c"/>
<use x="63.623047" xlink:href="#e"/>
<use x="95.410156" xlink:href="#n"/>
<use x="159.033203" xlink:href="#u"/>
</g>
</g>
<g clip-path="url(#a)">
<g transform="translate(106 564.92) scale(.1 -.1)">
<use xlink:href="#c"/>
<use x="63.623047" xlink:href="#e"/>
<use x="95.410156" xlink:href="#n"/>
<use x="159.033203" xlink:href="#ac"/>
</g>
</g>
<g clip-path="url(#a)">
<g transform="translate(129.17 564.92) scale(.1 -.1)">
<use xlink:href="#c"/>
<use x="63.623047" xlink:href="#e"/>
<use x="95.410156" xlink:href="#n"/>
<use x="159.033203" xlink:href="#ab"/>
</g>
</g>
<g clip-path="url(#a)">
<g transform="translate(155.64 564.92) scale(.1 -.1)">
<use xlink:href="#c"/>
<use x="63.623047" xlink:href="#e"/>
<use x="95.410156" xlink:href="#n"/>
<use x="159.033203" xlink:href="#ai"/>
</g>
</g>
<g clip-path="url(#a)">
<g transform="translate(245.53 414.07) scale(.1 -.1)">
<use xlink:href="#c"/>
<use x="63.623047" xlink:href="#e"/>
<use x="95.410156" xlink:href="#n"/>
<use x="159.033203" xlink:href="#aa"/>
</g>
</g>
<g clip-path="url(#a)">
<g transform="translate(185.42 564.92) scale(.1 -.1)">
<use xlink:href="#c"/>
<use x="63.623047" xlink:href="#e"/>
<use x="95.410156" xlink:href="#n"/>
<use x="159.033203" xlink:href="#z"/>
</g>
</g>
<g clip-path="url(#a)">
<g transform="translate(256.01 489.69) scale(.1 -.1)">
<use xlink:href="#c"/>
<use x="63.623047" xlink:href="#e"/>
<use x="95.410156" xlink:href="#m"/>
<use x="159.033203" xlink:href="#ad"/>
</g>
</g>
<g clip-path="url(#a)">
<g transform="translate(385.06 489.69) scale(.1 -.1)">
<use xlink:href="#c"/>
<use x="63.623047" xlink:href="#e"/>
<use x="95.410156" xlink:href="#m"/>
<use x="159.033203" xlink:href="#c"/>
</g>
</g>
<g clip-path="url(#a)">
<g transform="translate(337.63 564.92) scale(.1 -.1)">
<use xlink:href="#c"/>
<use x="63.623047" xlink:href="#e"/>
<use x="95.410156" xlink:href="#m"/>
<use x="159.033203" xlink:href="#n"/>
</g>
</g>
<g clip-path="url(#a)">
<g transform="translate(383.96 564.92) scale(.1 -.1)">
<use xlink:href="#c"/>
<use x="63.623047" xlink:href="#e"/>
<use x="95.410156" xlink:href="#m"/>
<use x="159.033203" xlink:href="#m"/>
</g>
</g>
<g clip-path="url(#a)">
<g transform="translate(433.59 564.92) scale(.1 -.1)">
<use xlink:href="#c"/>
<use x="63.623047" xlink:href="#e"/>
<use x="95.410156" xlink:href="#m"/>
<use x="159.033203" xlink:href="#u"/>
</g>
</g>
<g clip-path="url(#a)">
<g transform="translate(218.51 564.92) scale(.1 -.1)">
<use xlink:href="#c"/>
<use x="63.623047" xlink:href="#e"/>
<use x="95.410156" xlink:href="#m"/>
<use x="159.033203" xlink:href="#ac"/>
</g>
</g>
<g clip-path="url(#a)">
<g transform="translate(254.91 564.92) scale(.1 -.1)">
<use xlink:href="#c"/>
<use x="63.623047" xlink:href="#e"/>
<use x="95.410156" xlink:href="#m"/>
<use x="159.033203" xlink:href="#ab"/>
</g>
</g>
<g clip-path="url(#a)">
<g transform="translate(294.61 564.92) scale(.1 -.1)">
<use xlink:href="#c"/>
<use x="63.623047" xlink:href="#e"/>
<use x="95.410156" xlink:href="#m"/>
<use x="159.033203" xlink:href="#ai"/>
</g>
</g>
<g clip-path="url(#a)">
<g transform="translate(69.606 564.92) scale(.1 -.1)">
<use xlink:href="#c"/>
<use x="63.623047" xlink:href="#e"/>
<use x="95.410156" xlink:href="#m"/>
<use x="159.033203" xlink:href="#aa"/>
</g>
</g>
<g clip-path="url(#a)">
<g transform="translate(486.53 564.92) scale(.1 -.1)">
<use xlink:href="#c"/>
<use x="63.623047" xlink:href="#e"/>
<use x="95.410156" xlink:href="#m"/>
<use x="159.033203" xlink:href="#z"/>
</g>
</g>
<g clip-path="url(#a)">
<g transform="translate(1198 564.92) scale(.1 -.1)">
<use xlink:href="#c"/>
<use x="63.623047" xlink:href="#e"/>
<use x="95.410156" xlink:href="#u"/>
<use x="159.033203" xlink:href="#ad"/>
</g>
</g>
<defs>
<clipPath id="a">
<rect width="1266.7" height="666.67"/>
</clipPath>
</defs>
</svg>
