<?xml version="1.0" encoding="UTF-8"?>
<!DOCTYPE svg  PUBLIC '-//W3C//DTD SVG 1.1//EN'  'http://www.w3.org/Graphics/SVG/1.1/DTD/svg11.dtd'>
<svg width="1824pt" height="960pt" version="1.1" viewBox="0 0 1824 960" xmlns="http://www.w3.org/2000/svg" xmlns:xlink="http://www.w3.org/1999/xlink">
<defs>
<style type="text/css">*{stroke-linecap:butt;stroke-linejoin:round;}</style>
</defs>
<path d="m0 960h1824v-960h-1824z" fill="#fff"/>
<g fill="none" stroke="#000">
<path d="m517.11 43.636-388.73 146.78" clip-path="url(#a)"/>
<path d="m517.11 43.636 41.848 439.38" clip-path="url(#a)"/>
<path d="m517.11 43.636 213.93 729.86" clip-path="url(#a)"/>
<path d="m517.11 43.636 327.19 146.78" clip-path="url(#a)"/>
<path d="m517.11 43.636-117.23 729.86" clip-path="url(#a)"/>
<path d="m517.11 43.636-77.016 729.86" clip-path="url(#a)"/>
<path d="m128.38 190.42-45.466 583.08" clip-path="url(#a)"/>
<path d="m128.38 190.42-38.37 583.08" clip-path="url(#a)"/>
<path d="m128.38 190.42-28.908 583.08" clip-path="url(#a)"/>
<path d="m128.38 190.42 112.74 146.48" clip-path="url(#a)"/>
<path d="m558.96 483.01-76.286 290.48" clip-path="url(#a)"/>
<path d="m558.96 483.01-31.342 290.48" clip-path="url(#a)"/>
<path d="m558.96 483.01 15.967 290.48" clip-path="url(#a)"/>
<path d="m558.96 483.01 91.661 145.62" clip-path="url(#a)"/>
<path d="m731.04 773.49v142.87" clip-path="url(#a)"/>
<path d="m844.3 190.42-56.488 583.08" clip-path="url(#a)"/>
<path d="m844.3 190.42 65.727 292.6" clip-path="url(#a)"/>
<path d="m844.3 190.42 352.39 146.48" clip-path="url(#a)"/>
<path d="m844.3 190.42-361.63 583.08" clip-path="url(#a)" stroke-dasharray="3.7,1.6"/>
<path d="m787.81 773.49v142.87" clip-path="url(#a)"/>
<path d="m910.03 483.01-63.079 145.62" clip-path="url(#a)"/>
<path d="m910.03 483.01 63.079 290.48" clip-path="url(#a)"/>
<path d="m1196.7 336.9-89.545 436.59" clip-path="url(#a)"/>
<path d="m1196.7 336.9 313.13 146.11" clip-path="url(#a)"/>
<path d="m1196.7 336.9-223.59 436.59" clip-path="url(#a)" stroke-dasharray="3.7,1.6"/>
<path d="m1107.1 773.49v142.87" clip-path="url(#a)"/>
<path d="m1509.8 483.01-331.72 290.48" clip-path="url(#a)"/>
<path d="m1509.8 483.01-60.477 145.62" clip-path="url(#a)"/>
<path d="m1509.8 483.01 17.189 290.48" clip-path="url(#a)"/>
<path d="m1509.8 483.01 143.74 290.48" clip-path="url(#a)"/>
<path d="m1509.8 483.01 231.26 290.48" clip-path="url(#a)"/>
<path d="m1178.1 773.49v142.87" clip-path="url(#a)"/>
<path d="m1449.4 628.63 204.22 144.86" clip-path="url(#a)" stroke-dasharray="3.7,1.6"/>
<path d="m1449.4 628.63-160.06 144.86" clip-path="url(#a)"/>
<path d="m1449.4 628.63-44.155 144.86" clip-path="url(#a)"/>
<path d="m1527 773.49-41.395 142.87" clip-path="url(#a)"/>
<path d="m1527 773.49 41.395 142.87" clip-path="url(#a)"/>
<path d="m1653.6 773.49v142.87" clip-path="url(#a)"/>
<path d="m1289.3 773.49-37.847 142.87" clip-path="url(#a)"/>
<path d="m1289.3 773.49 37.847 142.87" clip-path="url(#a)"/>
<path d="m1405.2 773.49v142.87" clip-path="url(#a)"/>
<path d="m846.95 628.63v144.86" clip-path="url(#a)"/>
<path d="m973.11 773.49-64.656 142.87" clip-path="url(#a)"/>
<path d="m973.11 773.49-0.78848 142.87" clip-path="url(#a)"/>
<path d="m973.11 773.49 65.444 142.87" clip-path="url(#a)"/>
<path d="m846.95 773.49v142.87" clip-path="url(#a)"/>
<path d="m482.67 773.49v142.87" clip-path="url(#a)"/>
<path d="m527.61 773.49v142.87" clip-path="url(#a)"/>
<path d="m574.92 773.49v142.87" clip-path="url(#a)"/>
<path d="m650.62 628.63-26.02 144.86" clip-path="url(#a)"/>
<path d="m650.62 628.63 26.02 144.86" clip-path="url(#a)"/>
<path d="m624.6 773.49v142.87" clip-path="url(#a)"/>
<path d="m676.64 773.49v142.87" clip-path="url(#a)"/>
<path d="m82.909 773.49v142.87" clip-path="url(#a)"/>
<path d="m90.005 773.49v142.87" clip-path="url(#a)"/>
<path d="m99.467 773.49v142.87" clip-path="url(#a)"/>
<path d="m241.12 336.9-92.765 146.11" clip-path="url(#a)"/>
<path d="m241.12 336.9 6.1896 436.59" clip-path="url(#a)"/>
<path d="m241.12 336.9 62.369 291.73" clip-path="url(#a)"/>
<path d="m241.12 336.9-58.86 436.59" clip-path="url(#a)"/>
<path d="m241.12 336.9 83.067 436.59" clip-path="url(#a)"/>
<path d="m148.35 483.01-15.77 145.62" clip-path="url(#a)"/>
<path d="m148.35 483.01 3.1539 145.62" clip-path="url(#a)"/>
<path d="m148.35 483.01 12.616 290.48" clip-path="url(#a)"/>
<path d="m247.31 773.49-41.395 142.87" clip-path="url(#a)"/>
<path d="m247.31 773.49-15.375 142.87" clip-path="url(#a)"/>
<path d="m247.31 773.49 13.01 142.87" clip-path="url(#a)"/>
<path d="m247.31 773.49 43.761 142.87" clip-path="url(#a)"/>
<path d="m303.49 628.63-56.179 144.86" clip-path="url(#a)" stroke-dasharray="3.7,1.6"/>
<path d="m303.49 628.63 58.545 144.86" clip-path="url(#a)"/>
<path d="m303.49 628.63 56.179 144.86" clip-path="url(#a)"/>
<path d="m359.67 773.49v142.87" clip-path="url(#a)"/>
<path d="m132.58 628.63 28.385 144.86" clip-path="url(#a)" stroke-dasharray="3.7,1.6"/>
<path d="m132.58 628.63-21.289 144.86" clip-path="url(#a)"/>
<path d="m132.58 628.63-7.0964 144.86" clip-path="url(#a)"/>
<path d="m151.51 628.63 9.4618 144.86" clip-path="url(#a)" stroke-dasharray="3.7,1.6"/>
<path d="m151.51 628.63-9.4618 144.86" clip-path="url(#a)"/>
<path d="m160.97 773.49v142.87" clip-path="url(#a)"/>
<path d="m142.05 773.49v142.87" clip-path="url(#a)"/>
<path d="m111.29 773.49v142.87" clip-path="url(#a)"/>
<path d="m125.49 773.49v142.87" clip-path="url(#a)"/>
<path d="m182.26 773.49v142.87" clip-path="url(#a)"/>
<path d="m324.19 773.49v142.87" clip-path="url(#a)"/>
<path d="m399.88 773.49v142.87" clip-path="url(#a)"/>
<path d="m440.09 773.49v142.87" clip-path="url(#a)"/>
<path d="m1741.1 773.49v142.87" clip-path="url(#a)"/>
</g>
<path d="m322.14 123.96 5.6284-2.1252q2.2453-0.84778 1.3975-3.0931l-2.735-7.2434q-0.84778-2.2453-3.0931-1.3975l-5.6284 2.1252q-2.2453 0.84778-1.3975 3.0931l2.735 7.2434q0.84778 2.2453 3.0931 1.3975z" clip-path="url(#a)" fill="#fff" stroke="#fff"/>
<g clip-path="url(#a)">
<defs>
<path id="ak" d="m9.8125 72.906h9.8594v-29.891h35.844v29.891h9.8594v-72.906h-9.8594v34.719h-35.844v-34.719h-9.8594z"/>
</defs>
<g transform="translate(320.71 120.15) rotate(-20.686) scale(.08 -.08)">
<use xlink:href="#ak"/>
</g>
</g>
<path d="m531.5 260.93 0.57043 5.9891q0.22756 2.3892 2.6167 2.1616l7.7076-0.73411q2.3892-0.22756 2.1616-2.6167l-0.57043-5.9891q-0.22756-2.3892-2.6167-2.1616l-7.7076 0.73411q-2.3892 0.22756-2.1616 2.6167z" clip-path="url(#a)" fill="#fff" stroke="#fff"/>
<g clip-path="url(#a)">
<g transform="translate(535.55 260.54) rotate(84.559) scale(.08 -.08)">
<use xlink:href="#ak"/>
</g>
</g>
<path d="m617.43 408.19 1.2538 4.2775q0.67508 2.3031 2.9782 1.628l7.4299-2.1778q2.3031-0.67508 1.628-2.9782l-1.2538-4.2775q-0.67508-2.3031-2.9782-1.628l-7.4299 2.1778q-2.3031 0.67508-1.628 2.9782z" clip-path="url(#a)" fill="#fff" stroke="#fff"/>
<g clip-path="url(#a)">
<defs>
<path id="aj" d="m9.8125 72.906h9.8594v-64.609h35.5v-8.2969h-45.359z"/>
</defs>
<g transform="translate(621.33 407.05) rotate(73.663) scale(.08 -.08)">
<use xlink:href="#aj"/>
</g>
</g>
<path d="m675.39 121.52 5.4892 2.4625q2.1898 0.98233 3.1721-1.2074l3.169-7.0642q0.98233-2.1898-1.2074-3.1721l-5.4892-2.4625q-2.1898-0.98232-3.1721 1.2074l-3.169 7.0642q-0.98232 2.1898 1.2074 3.1721z" clip-path="url(#a)" fill="#fff" stroke="#fff"/>
<g clip-path="url(#a)">
<g transform="translate(677.06 117.81) rotate(24.161) scale(.08 -.08)">
<use xlink:href="#ak"/>
</g>
</g>
<path d="m464.22 412.45 0.92852-5.7809q0.38061-2.3696-1.989-2.7502l-7.6445-1.2279q-2.3696-0.38061-2.7502 1.989l-0.92852 5.7809q-0.38061 2.3696 1.989 2.7502l7.6445 1.2279q2.3696 0.38061 2.7502-1.989z" clip-path="url(#a)" fill="#fff" stroke="#fff"/>
<g clip-path="url(#a)">
<defs>
<path id="aa" d="m8.6875 72.906h9.9219v-44.297q0-11.719 4.2344-16.875 4.25-5.1406 13.781-5.1406 9.4688 0 13.719 5.1406 4.25 5.1562 4.25 16.875v44.297h9.9062v-45.516q0-14.25-7.0625-21.531-7.0469-7.2812-20.812-7.2812-13.828 0-20.891 7.2812-7.0469 7.2812-7.0469 21.531z"/>
</defs>
<g transform="translate(460.21 411.8) rotate(-80.875) scale(.08 -.08)">
<use xlink:href="#aa"/>
</g>
</g>
<path d="m484.53 412.13 0.61442-5.8227q0.25185-2.3867-2.1349-2.6386l-7.6998-0.81249q-2.3867-0.25185-2.6386 2.1349l-0.61442 5.8227q-0.25185 2.3867 2.1349 2.6386l7.6998 0.81249q2.3867 0.25185 2.6386-2.1349z" clip-path="url(#a)" fill="#fff" stroke="#fff"/>
<g clip-path="url(#a)">
<g transform="translate(480.49 411.71) rotate(-83.976) scale(.08 -.08)">
<use xlink:href="#aa"/>
</g>
</g>
<path d="m111.68 485.17 0.42543-5.4559q0.18658-2.3927-2.2062-2.5793l-7.7191-0.6019q-2.3927-0.18658-2.5793 2.2062l-0.42543 5.4559q-0.18658 2.3927 2.2062 2.5793l7.7191 0.6019q2.3927 0.18658 2.5793-2.2062z" clip-path="url(#a)" fill="#fff" stroke="#fff"/>
<g clip-path="url(#a)">
<defs>
<path id="m" d="m34.188 63.188-13.391-36.281h26.812zm-5.5781 9.7188h11.188l27.781-72.906h-10.25l-6.6406 18.703h-32.859l-6.6406-18.703h-10.406z"/>
</defs>
<g transform="translate(107.63 484.85) rotate(-85.541) scale(.08 -.08)">
<use xlink:href="#m"/>
</g>
</g>
<path d="m115.29 484.8 0.32085-4.8757q0.15759-2.3948-2.2372-2.5524l-7.7258-0.5084q-2.3948-0.15759-2.5524 2.2372l-0.32085 4.8757q-0.15759 2.3948 2.2372 2.5524l7.7258 0.5084q2.3948 0.15759 2.5524-2.2372z" clip-path="url(#a)" fill="#fff" stroke="#fff"/>
<g clip-path="url(#a)">
<defs>
<path id="k" d="m-0.29688 72.906h61.672v-8.3125h-25.875v-64.594h-9.9062v64.594h-25.891z"/>
</defs>
<g transform="translate(111.23 484.54) rotate(-86.235) scale(.08 -.08)">
<use xlink:href="#k"/>
</g>
</g>
<path d="m120.07 484.67 0.23886-4.8178q0.11884-2.3971-2.2782-2.5159l-7.733-0.38339q-2.3971-0.11884-2.5159 2.2782l-0.23886 4.8178q-0.11884 2.3971 2.2782 2.5159l7.733 0.38339q2.3971 0.11884 2.5159-2.2782z" clip-path="url(#a)" fill="#fff" stroke="#fff"/>
<g clip-path="url(#a)">
<defs>
<path id="u" d="m19.672 64.797v-27.391h12.406q6.8906 0 10.641 3.5625 3.7656 3.5625 3.7656 10.156 0 6.5469-3.7656 10.109-3.75 3.5625-10.641 3.5625zm-9.8594 8.1094h22.266q12.266 0 18.531-5.5469 6.2812-5.5469 6.2812-16.234 0-10.797-6.2812-16.312-6.2656-5.5156-18.531-5.5156h-12.406v-29.297h-9.8594z"/>
</defs>
<g transform="translate(116.01 484.47) rotate(-87.162) scale(.08 -.08)">
<use xlink:href="#u"/>
</g>
</g>
<path d="m178.11 265.31 3.3378 4.3367q1.4638 1.9019 3.3657 0.43808l6.1356-4.7224q1.9019-1.4638 0.43808-3.3657l-3.3378-4.3367q-1.4638-1.9019-3.3657-0.43808l-6.1356 4.7224q-1.9019 1.4638-0.43808 3.3657z" clip-path="url(#a)" fill="#fff" stroke="#fff"/>
<g clip-path="url(#a)">
<g transform="translate(181.33 262.84) rotate(52.416) scale(.08 -.08)">
<use xlink:href="#m"/>
</g>
</g>
<path d="m526.18 632.49 1.3901-5.293q0.60962-2.3213-1.7117-2.9309l-7.4886-1.9667q-2.3213-0.60962-2.9309 1.7117l-1.3901 5.293q-0.60962 2.3213 1.7117 2.9309l7.4886 1.9667q2.3213 0.60962 2.9309-1.7117z" clip-path="url(#a)" fill="#fff" stroke="#fff"/>
<g clip-path="url(#a)">
<g transform="translate(522.25 631.46) rotate(-75.285) scale(.08 -.08)">
<use xlink:href="#m"/>
</g>
</g>
<path d="m549.19 631.99 0.66082-6.1245q0.25746-2.3862-2.1287-2.6436l-7.6978-0.83059q-2.3862-0.25746-2.6436 2.1287l-0.66082 6.1245q-0.25746 2.3862 2.1287 2.6436l7.6978 0.83059q2.3862 0.25746 2.6436-2.1287z" clip-path="url(#a)" fill="#fff" stroke="#fff"/>
<g clip-path="url(#a)">
<defs>
<path id="ay" d="m19.672 64.797v-56.688h11.922q15.094 0 22.094 6.8281 7 6.8438 7 21.594 0 14.641-7 21.453t-22.094 6.8125zm-9.8594 8.1094h20.266q21.188 0 31.094-8.8125 9.9219-8.8125 9.9219-27.562 0-18.859-9.9688-27.703-9.9531-8.8281-31.047-8.8281h-20.266z"/>
</defs>
<g transform="translate(545.15 631.55) rotate(-83.842) scale(.08 -.08)">
<use xlink:href="#ay"/>
</g>
</g>
<path d="m560.55 626.19 0.26475 4.8165q0.13172 2.3964 2.5281 2.2647l7.7308-0.42494q2.3964-0.13172 2.2647-2.5281l-0.26475-4.8165q-0.13172-2.3964-2.5281-2.2647l-7.7308 0.42494q-2.3964 0.13172-2.2647 2.5281z" clip-path="url(#a)" fill="#fff" stroke="#fff"/>
<g clip-path="url(#a)">
<g transform="translate(564.6 625.97) rotate(86.854) scale(.08 -.08)">
<use xlink:href="#u"/>
</g>
</g>
<path d="m598.02 556.85 2.9153 4.6314q1.2785 2.0311 3.3096 0.75261l6.5525-4.1245q2.0311-1.2785 0.75261-3.3096l-2.9153-4.6314q-1.2785-2.0311-3.3096-0.75261l-6.5525 4.1245q-2.0311 1.2785-0.75261 3.3096z" clip-path="url(#a)" fill="#fff" stroke="#fff"/>
<g clip-path="url(#a)">
<g transform="translate(601.46 554.68) rotate(57.811) scale(.08 -.08)">
<use xlink:href="#m"/>
</g>
</g>
<path d="m724.77 828.02v33.808q0 2.4 2.4 2.4h7.7425q2.4 0 2.4-2.4v-33.808q0-2.4-2.4-2.4h-7.7425q-2.4 0-2.4 2.4z" clip-path="url(#a)" fill="#fff" stroke="#fff"/>
<g clip-path="url(#a)">
<defs>
<path id="f" d="m56.203 29.594v-4.3906h-41.312q0.59375-9.2812 5.5938-14.141t13.938-4.8594q5.1719 0 10.031 1.2656t9.6562 3.8125v-8.5q-4.8438-2.0469-9.9219-3.125t-10.297-1.0781q-13.094 0-20.734 7.6094-7.6406 7.625-7.6406 20.625 0 13.422 7.25 21.297 7.25 7.8906 19.562 7.8906 11.031 0 17.453-7.1094 6.4219-7.0938 6.4219-19.297zm-8.9844 2.6406q-0.09375 7.3594-4.125 11.75-4.0312 4.4062-10.672 4.4062-7.5156 0-12.031-4.25t-5.2031-11.969z"/>
<path id="h" d="m41.109 46.297q-1.5156 0.875-3.2969 1.2812-1.7812 0.42188-3.9219 0.42188-7.625 0-11.703-4.9531t-4.0781-14.234v-28.812h-9.0312v54.688h9.0312v-8.5q2.8438 4.9844 7.375 7.3906 4.5469 2.4219 11.047 2.4219 0.92188 0 2.0469-0.125 1.125-0.10938 2.4844-0.35938z"/>
<path id="l" d="m52 44.188q3.375 6.0625 8.0625 8.9375t11.031 2.875q8.5469 0 13.188-5.9844 4.6406-5.9688 4.6406-17v-33.016h-9.0312v32.719q0 7.8594-2.7969 11.656-2.7812 3.8125-8.4844 3.8125-6.9844 0-11.047-4.6406-4.0469-4.625-4.0469-12.641v-30.906h-9.0312v32.719q0 7.9062-2.7812 11.688t-8.5938 3.7812q-6.8906 0-10.953-4.6562-4.0469-4.6562-4.0469-12.625v-30.906h-9.0312v54.688h9.0312v-8.5q3.0781 5.0312 7.375 7.4219t10.203 2.3906q5.9688 0 10.141-3.0312 4.1719-3.0156 6.1719-8.7812z"/>
<path id="e" d="m9.4219 54.688h8.9844v-54.688h-8.9844zm0 21.297h8.9844v-11.391h-8.9844z"/>
<path id="d" d="m54.891 33.016v-33.016h-8.9844v32.719q0 7.7656-3.0312 11.609-3.0312 3.8594-9.0781 3.8594-7.2812 0-11.484-4.6406-4.2031-4.625-4.2031-12.641v-30.906h-9.0312v54.688h9.0312v-8.5q3.2344 4.9375 7.5938 7.375 4.375 2.4375 10.094 2.4375 9.4219 0 14.25-5.8281 4.8438-5.8281 4.8438-17.156z"/>
<path id="g" d="m34.281 27.484q-10.891 0-15.094-2.4844t-4.2031-8.5q0-4.7812 3.1562-7.5938 3.1562-2.7969 8.5625-2.7969 7.4844 0 12 5.2969t4.5156 14.078v2zm17.922 3.7188v-31.203h-8.9844v8.2969q-3.0781-4.9688-7.6719-7.3438t-11.234-2.375q-8.3906 0-13.359 4.7188-4.9531 4.7188-4.9531 12.625 0 9.2188 6.1719 13.906 6.1875 4.6875 18.438 4.6875h12.609v0.89062q0 6.2031-4.0781 9.5938t-11.453 3.3906q-4.6875 0-9.1406-1.125-4.4375-1.125-8.5312-3.375v8.3125q4.9219 1.9062 9.5625 2.8438 4.6406 0.95312 9.0312 0.95312 11.875 0 17.734-6.1562 5.8594-6.1406 5.8594-18.641z"/>
<path id="j" d="m9.4219 75.984h8.9844v-75.984h-8.9844z"/>
</defs>
<g transform="translate(728.84 828.02) rotate(90) scale(.08 -.08)">
<use xlink:href="#k"/>
<use x="44.083984" xlink:href="#f"/>
<use x="105.607422" xlink:href="#h"/>
<use x="144.970703" xlink:href="#l"/>
<use x="242.382812" xlink:href="#e"/>
<use x="270.166016" xlink:href="#d"/>
<use x="333.544922" xlink:href="#g"/>
<use x="394.824219" xlink:href="#j"/>
</g>
</g>
<path d="m822.07 484.96 0.46515-4.8013q0.23143-2.3888-2.1574-2.6202l-7.7064-0.7466q-2.3888-0.23143-2.6202 2.1574l-0.46515 4.8013q-0.23143 2.3888 2.1574 2.6202l7.7064 0.7466q2.3888 0.23143 2.6202-2.1574z" clip-path="url(#a)" fill="#fff" stroke="#fff"/>
<g clip-path="url(#a)">
<g transform="translate(818.02 484.57) rotate(-84.466) scale(.08 -.08)">
<use xlink:href="#u"/>
</g>
</g>
<path d="m870.45 335.42 1.1994 5.3394q0.52601 2.3416 2.8677 1.8156l7.5543-1.6969q2.3416-0.52601 1.8156-2.8677l-1.1994-5.3394q-0.52601-2.3416-2.8677-1.8156l-7.5543 1.6969q-2.3416 0.52601-1.8156 2.8677z" clip-path="url(#a)" fill="#fff" stroke="#fff"/>
<g clip-path="url(#a)">
<g transform="translate(874.41 334.53) rotate(77.34) scale(.08 -.08)">
<use xlink:href="#m"/>
</g>
</g>
<path d="m1015.6 268.4 5.0533 2.1006q2.2162 0.92122 3.1374-1.2949l2.9719-7.1494q0.92122-2.2162-1.2949-3.1374l-5.0533-2.1006q-2.2162-0.92122-3.1374 1.2949l-2.9719 7.1494q-0.92122 2.2162 1.2949 3.1374z" clip-path="url(#a)" fill="#fff" stroke="#fff"/>
<g clip-path="url(#a)">
<g transform="translate(1017.1 264.65) rotate(22.572) scale(.08 -.08)">
<use xlink:href="#m"/>
</g>
</g>
<path d="m667.37 487.58 2.8844-4.6506q1.265-2.0396-0.7746-3.3045l-6.5797-4.0808q-2.0396-1.265-3.3045 0.7746l-2.8844 4.6506q-1.265 2.0396 0.7746 3.3045l6.5797 4.0808q2.0396 1.265 3.3045-0.7746z" clip-path="url(#a)" fill="#fff" stroke="#fff"/>
<g clip-path="url(#a)">
<g transform="translate(663.92 485.44) rotate(-58.192) scale(.08 -.08)">
<use xlink:href="#m"/>
</g>
</g>
<path d="m781.54 828.02v33.808q0 2.4 2.4 2.4h7.7425q2.4 0 2.4-2.4v-33.808q0-2.4-2.4-2.4h-7.7425q-2.4 0-2.4 2.4z" clip-path="url(#a)" fill="#fff" stroke="#fff"/>
<g clip-path="url(#a)">
<g transform="translate(785.61 828.02) rotate(90) scale(.08 -.08)">
<use xlink:href="#k"/>
<use x="44.083984" xlink:href="#f"/>
<use x="105.607422" xlink:href="#h"/>
<use x="144.970703" xlink:href="#l"/>
<use x="242.382812" xlink:href="#e"/>
<use x="270.166016" xlink:href="#d"/>
<use x="333.544922" xlink:href="#g"/>
<use x="394.824219" xlink:href="#j"/>
</g>
</g>
<path d="m883.24 560.64 2.0093-4.6385q0.95397-2.2023-1.2483-3.1562l-7.1046-3.0775q-2.2023-0.95397-3.1562 1.2483l-2.0093 4.6385q-0.95397 2.2023 1.2483 3.1562l7.1046 3.0775q2.2023 0.95397 3.1562-1.2483z" clip-path="url(#a)" fill="#fff" stroke="#fff"/>
<g clip-path="url(#a)">
<defs>
<path id="v" d="m9.8125 72.906h46.094v-8.3125h-36.234v-21.578h34.719v-8.2969h-34.719v-26.422h37.109v-8.2969h-46.969z"/>
</defs>
<g transform="translate(879.51 559.02) rotate(-66.579) scale(.08 -.08)">
<use xlink:href="#v"/>
</g>
</g>
<path d="m934.85 626.85 1.1855 5.459q0.5093 2.3453 2.8546 1.836l7.5662-1.643q2.3453-0.5093 1.836-2.8546l-1.1855-5.459q-0.5093-2.3453-2.8546-1.836l-7.5662 1.643q-2.3453 0.5093-1.836 2.8546z" clip-path="url(#a)" fill="#fff" stroke="#fff"/>
<g clip-path="url(#a)">
<defs>
<path id="s" d="m64.406 67.281v-10.391q-4.9844 4.6406-10.625 6.9219-5.6406 2.2969-11.984 2.2969-12.5 0-19.141-7.6406t-6.6406-22.094q0-14.406 6.6406-22.047t19.141-7.6406q6.3438 0 11.984 2.2969t10.625 6.9375v-10.312q-5.1719-3.5156-10.969-5.2812-5.7812-1.75-12.219-1.75-16.562 0-26.094 10.125-9.5156 10.141-9.5156 27.672 0 17.578 9.5156 27.703 9.5312 10.141 26.094 10.141 6.5312 0 12.312-1.7344 5.7969-1.7344 10.875-5.2031z"/>
</defs>
<g transform="translate(938.82 625.99) rotate(77.748) scale(.08 -.08)">
<use xlink:href="#s"/>
</g>
</g>
<path d="m1157.6 558.82 0.96918-4.7254q0.4822-2.3511-1.8689-2.8333l-7.5846-1.5556q-2.3511-0.4822-2.8333 1.8689l-0.96918 4.7254q-0.4822 2.3511 1.8689 2.8333l7.5846 1.5556q2.3511 0.4822 2.8333-1.8689z" clip-path="url(#a)" fill="#fff" stroke="#fff"/>
<g clip-path="url(#a)">
<g transform="translate(1153.6 558) rotate(-78.409) scale(.08 -.08)">
<use xlink:href="#u"/>
</g>
</g>
<path d="m1348.1 414.48 4.9592 2.3141q2.1749 1.0148 3.1897-1.16l3.2739-7.0162q1.0148-2.1749-1.16-3.1897l-4.9592-2.3141q-2.1749-1.0148-3.1897 1.16l-3.2739 7.0162q-1.0148 2.1749 1.16 3.1897z" clip-path="url(#a)" fill="#fff" stroke="#fff"/>
<g clip-path="url(#a)">
<g transform="translate(1349.8 410.8) rotate(25.015) scale(.08 -.08)">
<use xlink:href="#m"/>
</g>
</g>
<path d="m1089.2 560.49 2.4945-4.8709q1.094-2.1362-1.0422-3.2301l-6.8914-3.5292q-2.1362-1.094-3.2301 1.0422l-2.4945 4.8709q-1.094 2.1362 1.0422 3.2301l6.8914 3.5292q2.1362 1.094 3.2301-1.0422z" clip-path="url(#a)" fill="#fff" stroke="#fff"/>
<g clip-path="url(#a)">
<g transform="translate(1085.6 558.64) rotate(-62.882) scale(.08 -.08)">
<use xlink:href="#m"/>
</g>
</g>
<path d="m1100.9 828.02v33.808q0 2.4 2.4 2.4h7.7425q2.4 0 2.4-2.4v-33.808q0-2.4-2.4-2.4h-7.7425q-2.4 0-2.4 2.4z" clip-path="url(#a)" fill="#fff" stroke="#fff"/>
<g clip-path="url(#a)">
<g transform="translate(1104.9 828.02) rotate(90) scale(.08 -.08)">
<use xlink:href="#k"/>
<use x="44.083984" xlink:href="#f"/>
<use x="105.607422" xlink:href="#h"/>
<use x="144.970703" xlink:href="#l"/>
<use x="242.382812" xlink:href="#e"/>
<use x="270.166016" xlink:href="#d"/>
<use x="333.544922" xlink:href="#g"/>
<use x="394.824219" xlink:href="#j"/>
</g>
</g>
<path d="m1346 634.8 4.182-3.6621q1.8056-1.5811 0.22446-3.3867l-5.1007-5.8248q-1.5811-1.8056-3.3867-0.22446l-4.182 3.6621q-1.8056 1.5811-0.22446 3.3867l5.1007 5.8248q1.5811 1.8056 3.3867 0.22446z" clip-path="url(#a)" fill="#fff" stroke="#fff"/>
<g clip-path="url(#a)">
<defs>
<path id="ap" d="m44.391 34.188q3.1719-1.0781 6.1719-4.5938t6.0312-9.6719l10.016-19.922h-10.609l-9.3125 18.703q-3.625 7.3281-7.0156 9.7188t-9.25 2.3906h-10.75v-30.812h-9.8594v72.906h22.266q12.5 0 18.656-5.2344 6.1562-5.2188 6.1562-15.766 0-6.8906-3.2031-11.438-3.2031-4.5312-9.2969-6.2812zm-24.719 30.609v-25.875h12.406q7.125 0 10.766 3.2969t3.6406 9.6875-3.6406 9.6406-10.766 3.25z"/>
</defs>
<g transform="translate(1343.3 631.74) rotate(-41.208) scale(.08 -.08)">
<use xlink:href="#ap"/>
</g>
</g>
<path d="m1484.4 560.56 1.9388-4.6684q0.92051-2.2165-1.2959-3.137l-7.1504-2.9696q-2.2165-0.92051-3.137 1.2959l-1.9388 4.6684q-0.92051 2.2165 1.2959 3.137l7.1504 2.9696q2.2165 0.92051 3.137-1.2959z" clip-path="url(#a)" fill="#fff" stroke="#fff"/>
<g clip-path="url(#a)">
<g transform="translate(1480.7 559) rotate(-67.446) scale(.08 -.08)">
<use xlink:href="#v"/>
</g>
</g>
<path d="m1512 626.1 0.29861 5.0462q0.14177 2.3958 2.5376 2.254l7.729-0.45736q2.3958-0.14177 2.254-2.5376l-0.29861-5.0462q-0.14177-2.3958-2.5376-2.254l-7.729 0.45736q-2.3958 0.14177-2.254 2.5376z" clip-path="url(#a)" fill="#fff" stroke="#fff"/>
<g clip-path="url(#a)">
<g transform="translate(1516.1 625.86) rotate(86.613) scale(.08 -.08)">
<use xlink:href="#v"/>
</g>
</g>
<path d="m1574.8 628.53 2.4776 5.0068q1.0644 2.151 3.2155 1.0866l6.9394-3.4339q2.151-1.0644 1.0866-3.2155l-2.4776-5.0068q-1.0644-2.151-3.2155-1.0866l-6.9394 3.4339q-2.151 1.0644-1.0866 3.2155z" clip-path="url(#a)" fill="#fff" stroke="#fff"/>
<g clip-path="url(#a)">
<g transform="translate(1578.5 626.73) rotate(63.672) scale(.08 -.08)">
<use xlink:href="#s"/>
</g>
</g>
<path d="m1618.7 629.87 3.6468 4.5806q1.4948 1.8776 3.3725 0.38276l6.0573-4.8224q1.8776-1.4948 0.38276-3.3725l-3.6468-4.5806q-1.4948-1.8776-3.3725-0.38276l-6.0573 4.8224q-1.8776 1.4948-0.38276 3.3725z" clip-path="url(#a)" fill="#fff" stroke="#fff"/>
<g clip-path="url(#a)">
<g transform="translate(1621.9 627.34) rotate(51.475) scale(.08 -.08)">
<use xlink:href="#aa"/>
</g>
</g>
<path d="m1171.8 828.02v33.808q0 2.4 2.4 2.4h7.7425q2.4 0 2.4-2.4v-33.808q0-2.4-2.4-2.4h-7.7425q-2.4 0-2.4 2.4z" clip-path="url(#a)" fill="#fff" stroke="#fff"/>
<g clip-path="url(#a)">
<g transform="translate(1175.9 828.02) rotate(90) scale(.08 -.08)">
<use xlink:href="#k"/>
<use x="44.083984" xlink:href="#f"/>
<use x="105.607422" xlink:href="#h"/>
<use x="144.970703" xlink:href="#l"/>
<use x="242.382812" xlink:href="#e"/>
<use x="270.166016" xlink:href="#d"/>
<use x="333.544922" xlink:href="#g"/>
<use x="394.824219" xlink:href="#j"/>
</g>
</g>
<path d="m1545.6 704.59 4.4636 3.1662q1.9575 1.3886 3.3461-0.56898l4.4795-6.3151q1.3886-1.9575-0.56898-3.3461l-4.4636-3.1662q-1.9575-1.3886-3.3461 0.56898l-4.4795 6.3151q-1.3886 1.9575 0.56898 3.3461z" clip-path="url(#a)" fill="#fff" stroke="#fff"/>
<g clip-path="url(#a)">
<g transform="translate(1548 701.28) rotate(35.35) scale(.08 -.08)">
<use xlink:href="#m"/>
</g>
</g>
<path d="m1371.5 707.55 4.0575-3.6721q1.7795-1.6104 0.16902-3.3899l-5.1954-5.7406q-1.6104-1.7795-3.3899-0.16902l-4.0575 3.6721q-1.7795 1.6104-0.16902 3.3899l5.1954 5.7406q1.6104 1.7795 3.3899 0.16902z" clip-path="url(#a)" fill="#fff" stroke="#fff"/>
<g clip-path="url(#a)">
<g transform="translate(1368.8 704.54) rotate(-42.146) scale(.08 -.08)">
<use xlink:href="#m"/>
</g>
</g>
<path d="m1432.5 705.32 1.4808-4.8581q0.69977-2.2957-1.596-2.9955l-7.4061-2.2575q-2.2957-0.69977-2.9955 1.596l-1.4808 4.8581q-0.69977 2.2957 1.596 2.9955l7.4061 2.2575q2.2957 0.69977 2.9955-1.596z" clip-path="url(#a)" fill="#fff" stroke="#fff"/>
<g clip-path="url(#a)">
<defs>
<path id="ai" d="m53.516 70.516v-9.625q-5.6094 2.6875-10.594 4-4.9844 1.3281-9.625 1.3281-8.0469 0-12.422-3.125t-4.375-8.8906q0-4.8438 2.9062-7.3125 2.9062-2.4531 11.016-3.9688l5.9531-1.2188q11.031-2.1094 16.281-7.4062t5.25-14.172q0-10.609-7.1094-16.078-7.0938-5.4688-20.812-5.4688-5.1719 0-11.016 1.1719-5.8281 1.1719-12.078 3.4688v10.156q6-3.3594 11.766-5.0781 5.7656-1.7031 11.328-1.7031 8.4375 0 13.031 3.3125 4.5938 3.3281 4.5938 9.4844 0 5.3594-3.2969 8.3906t-10.812 4.5469l-6.0156 1.1719q-11.031 2.1875-15.969 6.875-4.9219 4.6875-4.9219 13.047 0 9.6719 6.8125 15.234t18.766 5.5625q5.1406 0 10.453-0.9375 5.3281-0.92188 10.891-2.7656z"/>
</defs>
<g transform="translate(1428.6 704.14) rotate(-73.048) scale(.08 -.08)">
<use xlink:href="#ai"/>
</g>
</g>
<path d="m1507.6 862.91 9.4084-32.472q0.6679-2.3052-1.6373-2.9731l-7.4366-2.1547q-2.3052-0.6679-2.9731 1.6373l-9.4084 32.472q-0.6679 2.3052 1.6373 2.9731l7.4366 2.1547q2.3052 0.6679 2.9731-1.6373z" clip-path="url(#a)" fill="#fff" stroke="#fff"/>
<g clip-path="url(#a)">
<g transform="translate(1503.7 861.78) rotate(-73.842) scale(.08 -.08)">
<use xlink:href="#k"/>
<use x="44.083984" xlink:href="#f"/>
<use x="105.607422" xlink:href="#h"/>
<use x="144.970703" xlink:href="#l"/>
<use x="242.382812" xlink:href="#e"/>
<use x="270.166016" xlink:href="#d"/>
<use x="333.544922" xlink:href="#g"/>
<use x="394.824219" xlink:href="#j"/>
</g>
</g>
<path d="m1537 830.44 9.4084 32.472q0.6679 2.3052 2.9731 1.6373l7.4366-2.1547q2.3052-0.6679 1.6373-2.9731l-9.4084-32.472q-0.6679-2.3052-2.9731-1.6373l-7.4366 2.1547q-2.3052 0.6679-1.6373 2.9731z" clip-path="url(#a)" fill="#fff" stroke="#fff"/>
<g clip-path="url(#a)">
<g transform="translate(1540.9 829.31) rotate(73.842) scale(.08 -.08)">
<use xlink:href="#k"/>
<use x="44.083984" xlink:href="#f"/>
<use x="105.607422" xlink:href="#h"/>
<use x="144.970703" xlink:href="#l"/>
<use x="242.382812" xlink:href="#e"/>
<use x="270.166016" xlink:href="#d"/>
<use x="333.544922" xlink:href="#g"/>
<use x="394.824219" xlink:href="#j"/>
</g>
</g>
<path d="m1647.3 828.02v33.808q0 2.4 2.4 2.4h7.7425q2.4 0 2.4-2.4v-33.808q0-2.4-2.4-2.4h-7.7425q-2.4 0-2.4 2.4z" clip-path="url(#a)" fill="#fff" stroke="#fff"/>
<g clip-path="url(#a)">
<g transform="translate(1651.4 828.02) rotate(90) scale(.08 -.08)">
<use xlink:href="#k"/>
<use x="44.083984" xlink:href="#f"/>
<use x="105.607422" xlink:href="#h"/>
<use x="144.970703" xlink:href="#l"/>
<use x="242.382812" xlink:href="#e"/>
<use x="270.166016" xlink:href="#d"/>
<use x="333.544922" xlink:href="#g"/>
<use x="394.824219" xlink:href="#j"/>
</g>
</g>
<path d="m1272.1 862.87 8.6571-32.68q0.61457-2.32-1.7054-2.9346l-7.4843-1.9826q-2.32-0.61457-2.9346 1.7054l-8.6571 32.68q-0.61457 2.32 1.7054 2.9346l7.4843 1.9826q2.32 0.61457 2.9346-1.7054z" clip-path="url(#a)" fill="#fff" stroke="#fff"/>
<g clip-path="url(#a)">
<g transform="translate(1268.2 861.83) rotate(-75.163) scale(.08 -.08)">
<use xlink:href="#k"/>
<use x="44.083984" xlink:href="#f"/>
<use x="105.607422" xlink:href="#h"/>
<use x="144.970703" xlink:href="#l"/>
<use x="242.382812" xlink:href="#e"/>
<use x="270.166016" xlink:href="#d"/>
<use x="333.544922" xlink:href="#g"/>
<use x="394.824219" xlink:href="#j"/>
</g>
</g>
<path d="m1297.8 830.19 8.6571 32.68q0.61457 2.32 2.9346 1.7054l7.4843-1.9826q2.32-0.61457 1.7054-2.9346l-8.6571-32.68q-0.61457-2.32-2.9346-1.7054l-7.4843 1.9826q-2.32 0.61457-1.7054 2.9346z" clip-path="url(#a)" fill="#fff" stroke="#fff"/>
<g clip-path="url(#a)">
<g transform="translate(1301.8 829.15) rotate(75.163) scale(.08 -.08)">
<use xlink:href="#k"/>
<use x="44.083984" xlink:href="#f"/>
<use x="105.607422" xlink:href="#h"/>
<use x="144.970703" xlink:href="#l"/>
<use x="242.382812" xlink:href="#e"/>
<use x="270.166016" xlink:href="#d"/>
<use x="333.544922" xlink:href="#g"/>
<use x="394.824219" xlink:href="#j"/>
</g>
</g>
<path d="m1398.9 828.02v33.808q0 2.4 2.4 2.4h7.7425q2.4 0 2.4-2.4v-33.808q0-2.4-2.4-2.4h-7.7425q-2.4 0-2.4 2.4z" clip-path="url(#a)" fill="#fff" stroke="#fff"/>
<g clip-path="url(#a)">
<g transform="translate(1403 828.02) rotate(90) scale(.08 -.08)">
<use xlink:href="#k"/>
<use x="44.083984" xlink:href="#f"/>
<use x="105.607422" xlink:href="#h"/>
<use x="144.970703" xlink:href="#l"/>
<use x="242.382812" xlink:href="#e"/>
<use x="270.166016" xlink:href="#d"/>
<use x="333.544922" xlink:href="#g"/>
<use x="394.824219" xlink:href="#j"/>
</g>
</g>
<path d="m840.55 694.57v12.991q0 2.4 2.4 2.4h8q2.4 0 2.4-2.4v-12.991q0-2.4-2.4-2.4h-8q-2.4 0-2.4 2.4z" clip-path="url(#a)" fill="#fff" stroke="#fff"/>
<g clip-path="url(#a)">
<defs>
<path id="bc" d="m21 76.422v-100h-8.2969v100z"/>
</defs>
<g transform="translate(844.84 694.57) rotate(90) scale(.08 -.08)">
<use xlink:href="#u"/>
<use x="60.302734" xlink:href="#bc"/>
<use x="93.994141" xlink:href="#m"/>
</g>
</g>
<path d="m939.52 862.91 13.939-30.8q0.9895-2.1865-1.197-3.176l-7.0538-3.1922q-2.1865-0.9895-3.176 1.197l-13.939 30.8q-0.9895 2.1865 1.197 3.176l7.0538 3.1922q2.1865 0.9895 3.176-1.197z" clip-path="url(#a)" fill="#fff" stroke="#fff"/>
<g clip-path="url(#a)">
<g transform="translate(935.82 861.24) rotate(-65.651) scale(.08 -.08)">
<use xlink:href="#k"/>
<use x="44.083984" xlink:href="#f"/>
<use x="105.607422" xlink:href="#h"/>
<use x="144.970703" xlink:href="#l"/>
<use x="242.382812" xlink:href="#e"/>
<use x="270.166016" xlink:href="#d"/>
<use x="333.544922" xlink:href="#g"/>
<use x="394.824219" xlink:href="#j"/>
</g>
</g>
<path d="m978.89 861.87 0.18658-33.807q0.013245-2.4-2.3867-2.4132l-7.7424-0.042729q-2.4-0.013245-2.4132 2.3867l-0.18658 33.807q-0.013245 2.4 2.3867 2.4132l7.7424 0.042729q2.4 0.013245 2.4132-2.3867z" clip-path="url(#a)" fill="#fff" stroke="#fff"/>
<g clip-path="url(#a)">
<g transform="translate(974.83 861.84) rotate(-89.684) scale(.08 -.08)">
<use xlink:href="#k"/>
<use x="44.083984" xlink:href="#f"/>
<use x="105.607422" xlink:href="#h"/>
<use x="144.970703" xlink:href="#l"/>
<use x="242.382812" xlink:href="#e"/>
<use x="270.166016" xlink:href="#d"/>
<use x="333.544922" xlink:href="#g"/>
<use x="394.824219" xlink:href="#j"/>
</g>
</g>
<path d="m993.09 832.17 14.079 30.736q0.99948 2.182 3.1815 1.1825l7.0392-3.2244q2.182-0.99948 1.1825-3.1815l-14.079-30.736q-0.99948-2.182-3.1815-1.1825l-7.0392 3.2244q-2.182 0.99948-1.1825 3.1815z" clip-path="url(#a)" fill="#fff" stroke="#fff"/>
<g clip-path="url(#a)">
<g transform="translate(996.78 830.48) rotate(65.389) scale(.08 -.08)">
<use xlink:href="#k"/>
<use x="44.083984" xlink:href="#f"/>
<use x="105.607422" xlink:href="#h"/>
<use x="144.970703" xlink:href="#l"/>
<use x="242.382812" xlink:href="#e"/>
<use x="270.166016" xlink:href="#d"/>
<use x="333.544922" xlink:href="#g"/>
<use x="394.824219" xlink:href="#j"/>
</g>
</g>
<path d="m840.68 828.02v33.808q0 2.4 2.4 2.4h7.7425q2.4 0 2.4-2.4v-33.808q0-2.4-2.4-2.4h-7.7425q-2.4 0-2.4 2.4z" clip-path="url(#a)" fill="#fff" stroke="#fff"/>
<g clip-path="url(#a)">
<g transform="translate(844.74 828.02) rotate(90) scale(.08 -.08)">
<use xlink:href="#k"/>
<use x="44.083984" xlink:href="#f"/>
<use x="105.607422" xlink:href="#h"/>
<use x="144.970703" xlink:href="#l"/>
<use x="242.382812" xlink:href="#e"/>
<use x="270.166016" xlink:href="#d"/>
<use x="333.544922" xlink:href="#g"/>
<use x="394.824219" xlink:href="#j"/>
</g>
</g>
<path d="m476.4 828.02v33.808q0 2.4 2.4 2.4h7.7425q2.4 0 2.4-2.4v-33.808q0-2.4-2.4-2.4h-7.7425q-2.4 0-2.4 2.4z" clip-path="url(#a)" fill="#fff" stroke="#fff"/>
<g clip-path="url(#a)">
<g transform="translate(480.46 828.02) rotate(90) scale(.08 -.08)">
<use xlink:href="#k"/>
<use x="44.083984" xlink:href="#f"/>
<use x="105.607422" xlink:href="#h"/>
<use x="144.970703" xlink:href="#l"/>
<use x="242.382812" xlink:href="#e"/>
<use x="270.166016" xlink:href="#d"/>
<use x="333.544922" xlink:href="#g"/>
<use x="394.824219" xlink:href="#j"/>
</g>
</g>
<path d="m521.34 828.02v33.808q0 2.4 2.4 2.4h7.7425q2.4 0 2.4-2.4v-33.808q0-2.4-2.4-2.4h-7.7425q-2.4 0-2.4 2.4z" clip-path="url(#a)" fill="#fff" stroke="#fff"/>
<g clip-path="url(#a)">
<g transform="translate(525.41 828.02) rotate(90) scale(.08 -.08)">
<use xlink:href="#k"/>
<use x="44.083984" xlink:href="#f"/>
<use x="105.607422" xlink:href="#h"/>
<use x="144.970703" xlink:href="#l"/>
<use x="242.382812" xlink:href="#e"/>
<use x="270.166016" xlink:href="#d"/>
<use x="333.544922" xlink:href="#g"/>
<use x="394.824219" xlink:href="#j"/>
</g>
</g>
<path d="m568.65 828.02v33.808q0 2.4 2.4 2.4h7.7425q2.4 0 2.4-2.4v-33.808q0-2.4-2.4-2.4h-7.7425q-2.4 0-2.4 2.4z" clip-path="url(#a)" fill="#fff" stroke="#fff"/>
<g clip-path="url(#a)">
<g transform="translate(572.72 828.02) rotate(90) scale(.08 -.08)">
<use xlink:href="#k"/>
<use x="44.083984" xlink:href="#f"/>
<use x="105.607422" xlink:href="#h"/>
<use x="144.970703" xlink:href="#l"/>
<use x="242.382812" xlink:href="#e"/>
<use x="270.166016" xlink:href="#d"/>
<use x="333.544922" xlink:href="#g"/>
<use x="394.824219" xlink:href="#j"/>
</g>
</g>
<path d="m643.29 704.91 0.98275-5.4712q0.4243-2.3622-1.9379-2.7865l-7.6205-1.3688q-2.3622-0.4243-2.7865 1.9379l-0.98275 5.4712q-0.4243 2.3622 1.9379 2.7865l7.6205 1.3688q2.3622 0.4243 2.7865-1.9379z" clip-path="url(#a)" fill="#fff" stroke="#fff"/>
<g clip-path="url(#a)">
<g transform="translate(639.29 704.19) rotate(-79.817) scale(.08 -.08)">
<use xlink:href="#ap"/>
</g>
</g>
<path d="m656.96 699.42 0.98761 5.4983q0.4243 2.3622 2.7865 1.9379l7.6205-1.3688q2.3622-0.4243 1.9379-2.7865l-0.98761-5.4983q-0.4243-2.3622-2.7865-1.9379l-7.6205 1.3688q-2.3622 0.4243-1.9379 2.7865z" clip-path="url(#a)" fill="#fff" stroke="#fff"/>
<g clip-path="url(#a)">
<g transform="translate(660.96 698.7) rotate(79.817) scale(.08 -.08)">
<use xlink:href="#s"/>
</g>
</g>
<path d="m618.33 828.02v33.808q0 2.4 2.4 2.4h7.7425q2.4 0 2.4-2.4v-33.808q0-2.4-2.4-2.4h-7.7425q-2.4 0-2.4 2.4z" clip-path="url(#a)" fill="#fff" stroke="#fff"/>
<g clip-path="url(#a)">
<g transform="translate(622.39 828.02) rotate(90) scale(.08 -.08)">
<use xlink:href="#k"/>
<use x="44.083984" xlink:href="#f"/>
<use x="105.607422" xlink:href="#h"/>
<use x="144.970703" xlink:href="#l"/>
<use x="242.382812" xlink:href="#e"/>
<use x="270.166016" xlink:href="#d"/>
<use x="333.544922" xlink:href="#g"/>
<use x="394.824219" xlink:href="#j"/>
</g>
</g>
<path d="m670.37 828.02v33.808q0 2.4 2.4 2.4h7.7425q2.4 0 2.4-2.4v-33.808q0-2.4-2.4-2.4h-7.7425q-2.4 0-2.4 2.4z" clip-path="url(#a)" fill="#fff" stroke="#fff"/>
<g clip-path="url(#a)">
<g transform="translate(674.43 828.02) rotate(90) scale(.08 -.08)">
<use xlink:href="#k"/>
<use x="44.083984" xlink:href="#f"/>
<use x="105.607422" xlink:href="#h"/>
<use x="144.970703" xlink:href="#l"/>
<use x="242.382812" xlink:href="#e"/>
<use x="270.166016" xlink:href="#d"/>
<use x="333.544922" xlink:href="#g"/>
<use x="394.824219" xlink:href="#j"/>
</g>
</g>
<path d="m76.638 828.02v33.808q0 2.4 2.4 2.4h7.7425q2.4 0 2.4-2.4v-33.808q0-2.4-2.4-2.4h-7.7425q-2.4 0-2.4 2.4z" clip-path="url(#a)" fill="#fff" stroke="#fff"/>
<g clip-path="url(#a)">
<g transform="translate(80.702 828.02) rotate(90) scale(.08 -.08)">
<use xlink:href="#k"/>
<use x="44.083984" xlink:href="#f"/>
<use x="105.607422" xlink:href="#h"/>
<use x="144.970703" xlink:href="#l"/>
<use x="242.382812" xlink:href="#e"/>
<use x="270.166016" xlink:href="#d"/>
<use x="333.544922" xlink:href="#g"/>
<use x="394.824219" xlink:href="#j"/>
</g>
</g>
<path d="m83.734 828.02v33.808q0 2.4 2.4 2.4h7.7425q2.4 0 2.4-2.4v-33.808q0-2.4-2.4-2.4h-7.7425q-2.4 0-2.4 2.4z" clip-path="url(#a)" fill="#fff" stroke="#fff"/>
<g clip-path="url(#a)">
<g transform="translate(87.798 828.02) rotate(90) scale(.08 -.08)">
<use xlink:href="#k"/>
<use x="44.083984" xlink:href="#f"/>
<use x="105.607422" xlink:href="#h"/>
<use x="144.970703" xlink:href="#l"/>
<use x="242.382812" xlink:href="#e"/>
<use x="270.166016" xlink:href="#d"/>
<use x="333.544922" xlink:href="#g"/>
<use x="394.824219" xlink:href="#j"/>
</g>
</g>
<path d="m93.196 828.02v33.808q0 2.4 2.4 2.4h7.7425q2.4 0 2.4-2.4v-33.808q0-2.4-2.4-2.4h-7.7425q-2.4 0-2.4 2.4z" clip-path="url(#a)" fill="#fff" stroke="#fff"/>
<g clip-path="url(#a)">
<g transform="translate(97.26 828.02) rotate(90) scale(.08 -.08)">
<use xlink:href="#k"/>
<use x="44.083984" xlink:href="#f"/>
<use x="105.607422" xlink:href="#h"/>
<use x="144.970703" xlink:href="#l"/>
<use x="242.382812" xlink:href="#e"/>
<use x="270.166016" xlink:href="#d"/>
<use x="333.544922" xlink:href="#g"/>
<use x="394.824219" xlink:href="#j"/>
</g>
</g>
<path d="m198.68 415.45 2.7094-4.2676q1.2864-2.0261-0.73979-3.3125l-6.5364-4.1499q-2.0261-1.2864-3.3125 0.73979l-2.7094 4.2676q-1.2864 2.0261 0.73979 3.3125l6.5364 4.1499q2.0261 1.2864 3.3125-0.73979z" clip-path="url(#a)" fill="#fff" stroke="#fff"/>
<g clip-path="url(#a)">
<g transform="translate(195.24 413.27) rotate(-57.589) scale(.08 -.08)">
<use xlink:href="#v"/>
</g>
</g>
<path d="m237.9 552.49 0.079188 5.5857q0.034022 2.3998 2.4338 2.3657l7.7417-0.10976q2.3998-0.034021 2.3657-2.4338l-0.079189-5.5857q-0.034021-2.3998-2.4338-2.3657l-7.7417 0.10976q-2.3998 0.034021-2.3657 2.4338z" clip-path="url(#a)" fill="#fff" stroke="#fff"/>
<g clip-path="url(#a)">
<g transform="translate(241.97 552.43) rotate(89.188) scale(.08 -.08)">
<use xlink:href="#s"/>
</g>
</g>
<path d="m265.64 481.61 1.0568 4.9433q0.50175 2.347 2.8487 1.8452l7.5714-1.6187q2.347-0.50175 1.8452-2.8487l-1.0568-4.9433q-0.50175-2.347-2.8487-1.8452l-7.5714 1.6187q-2.347 0.50175-1.8452 2.8487z" clip-path="url(#a)" fill="#fff" stroke="#fff"/>
<g clip-path="url(#a)">
<g transform="translate(269.62 480.76) rotate(77.933) scale(.08 -.08)">
<use xlink:href="#v"/>
</g>
</g>
<path d="m217.51 558.94 0.78228-5.8025q0.32066-2.3785-2.0578-2.6991l-7.6731-1.0345q-2.3785-0.32066-2.6991 2.0578l-0.78228 5.8025q-0.32066 2.3785 2.0578 2.6991l7.6731 1.0345q2.3785 0.32066 2.6991-2.0578z" clip-path="url(#a)" fill="#fff" stroke="#fff"/>
<g clip-path="url(#a)">
<g transform="translate(213.48 558.39) rotate(-82.322) scale(.08 -.08)">
<use xlink:href="#aa"/>
</g>
</g>
<path d="m275.94 553.49 1.0944 5.7518q0.44858 2.3577 2.8063 1.9091l7.6061-1.4471q2.3577-0.44858 1.9091-2.8063l-1.0944-5.7518q-0.44858-2.3577-2.8063-1.9091l-7.6061 1.4471q-2.3577 0.44858-1.9091 2.8063z" clip-path="url(#a)" fill="#fff" stroke="#fff"/>
<g clip-path="url(#a)">
<g transform="translate(279.94 552.73) rotate(79.228) scale(.08 -.08)">
<use xlink:href="#aa"/>
</g>
</g>
<path d="m146.43 559.01 0.54424-5.0256q0.2584-2.386-2.1277-2.6444l-7.6975-0.83359q-2.386-0.2584-2.6444 2.1277l-0.54425 5.0256q-0.2584 2.386 2.1277 2.6444l7.6975 0.83359q2.386 0.2584 2.6444-2.1277z" clip-path="url(#a)" fill="#fff" stroke="#fff"/>
<g clip-path="url(#a)">
<g transform="translate(142.39 558.57) rotate(-83.819) scale(.08 -.08)">
<use xlink:href="#v"/>
</g>
</g>
<path d="m143.61 553.43 0.10946 5.0538q0.051969 2.3994 2.4514 2.3475l7.7407-0.16765q2.3994-0.051969 2.3475-2.4514l-0.10946-5.0538q-0.051969-2.3994-2.4514-2.3475l-7.7407 0.16765q-2.3994 0.051969-2.3475 2.4514z" clip-path="url(#a)" fill="#fff" stroke="#fff"/>
<g clip-path="url(#a)">
<g transform="translate(147.67 553.34) rotate(88.759) scale(.08 -.08)">
<use xlink:href="#v"/>
</g>
</g>
<path d="m148.27 625.73 0.24239 5.581q0.10414 2.3977 2.5019 2.2936l7.7352-0.33595q2.3977-0.10414 2.2936-2.5019l-0.24239-5.581q-0.10414-2.3977-2.5019-2.2936l-7.7352 0.33595q-2.3977 0.10414-2.2936 2.5019z" clip-path="url(#a)" fill="#fff" stroke="#fff"/>
<g clip-path="url(#a)">
<g transform="translate(152.33 625.56) rotate(87.513) scale(.08 -.08)">
<use xlink:href="#s"/>
</g>
</g>
<path d="m227.93 862.91 9.4084-32.472q0.6679-2.3052-1.6373-2.9731l-7.4366-2.1547q-2.3052-0.6679-2.9731 1.6373l-9.4084 32.472q-0.6679 2.3052 1.6373 2.9731l7.4366 2.1547q2.3052 0.6679 2.9731-1.6373z" clip-path="url(#a)" fill="#fff" stroke="#fff"/>
<g clip-path="url(#a)">
<g transform="translate(224.03 861.78) rotate(-73.842) scale(.08 -.08)">
<use xlink:href="#k"/>
<use x="44.083984" xlink:href="#f"/>
<use x="105.607422" xlink:href="#h"/>
<use x="144.970703" xlink:href="#l"/>
<use x="242.382812" xlink:href="#e"/>
<use x="270.166016" xlink:href="#d"/>
<use x="333.544922" xlink:href="#g"/>
<use x="394.824219" xlink:href="#j"/>
</g>
</g>
<path d="m244.05 862.41 3.6174-33.613q0.2568-2.3862-2.1294-2.643l-7.6981-0.82844q-2.3862-0.2568-2.643 2.1294l-3.6174 33.613q-0.2568 2.3862 2.1294 2.643l7.6981 0.82844q2.3862 0.2568 2.643-2.1294z" clip-path="url(#a)" fill="#fff" stroke="#fff"/>
<g clip-path="url(#a)">
<g transform="translate(240.01 861.97) rotate(-83.858) scale(.08 -.08)">
<use xlink:href="#k"/>
<use x="44.083984" xlink:href="#f"/>
<use x="105.607422" xlink:href="#h"/>
<use x="144.970703" xlink:href="#l"/>
<use x="242.382812" xlink:href="#e"/>
<use x="270.166016" xlink:href="#d"/>
<use x="333.544922" xlink:href="#g"/>
<use x="394.824219" xlink:href="#j"/>
</g>
</g>
<path d="m246.03 828.66 3.0658 33.668q0.21764 2.3901 2.6078 2.1725l7.7106-0.70213q2.3901-0.21764 2.1725-2.6078l-3.0658-33.668q-0.21764-2.3901-2.6078-2.1725l-7.7106 0.70213q-2.3901 0.21765-2.1725 2.6078z" clip-path="url(#a)" fill="#fff" stroke="#fff"/>
<g clip-path="url(#a)">
<g transform="translate(250.08 828.29) rotate(84.797) scale(.08 -.08)">
<use xlink:href="#k"/>
<use x="44.083984" xlink:href="#f"/>
<use x="105.607422" xlink:href="#h"/>
<use x="144.970703" xlink:href="#l"/>
<use x="242.382812" xlink:href="#e"/>
<use x="270.166016" xlink:href="#d"/>
<use x="333.544922" xlink:href="#g"/>
<use x="394.824219" xlink:href="#j"/>
</g>
</g>
<path d="m258.24 830.6 9.901 32.325q0.70288 2.2948 2.9976 1.5919l7.403-2.2675q2.2948-0.70288 1.5919-2.9976l-9.901-32.325q-0.70288-2.2948-2.9976-1.5919l-7.403 2.2675q-2.2948 0.70288-1.5919 2.9976z" clip-path="url(#a)" fill="#fff" stroke="#fff"/>
<g clip-path="url(#a)">
<g transform="translate(262.13 829.41) rotate(72.97) scale(.08 -.08)">
<use xlink:href="#k"/>
<use x="44.083984" xlink:href="#f"/>
<use x="105.607422" xlink:href="#h"/>
<use x="144.970703" xlink:href="#l"/>
<use x="242.382812" xlink:href="#e"/>
<use x="270.166016" xlink:href="#d"/>
<use x="333.544922" xlink:href="#g"/>
<use x="394.824219" xlink:href="#j"/>
</g>
</g>
<path d="m280.26 705.88 1.9788-5.1022q0.8678-2.2376-1.3698-3.1054l-7.2186-2.7995q-2.2376-0.8678-3.1054 1.3698l-1.9788 5.1022q-0.8678 2.2376 1.3698 3.1054l7.2186 2.7995q2.2376 0.8678 3.1054-1.3698z" clip-path="url(#a)" fill="#fff" stroke="#fff"/>
<g clip-path="url(#a)">
<g transform="translate(276.47 704.41) rotate(-68.803) scale(.08 -.08)">
<use xlink:href="#m"/>
</g>
</g>
<path d="m326.04 701.18 1.8075 4.4723q0.89929 2.2251 3.1244 1.3258l7.1784-2.9012q2.2251-0.8993 1.3258-3.1244l-1.8075-4.4723q-0.8993-2.2251-3.1244-1.3258l-7.1784 2.9012q-2.2251 0.8993-1.3259 3.1244z" clip-path="url(#a)" fill="#fff" stroke="#fff"/>
<g clip-path="url(#a)">
<g transform="translate(329.81 699.65) rotate(67.994) scale(.08 -.08)">
<use xlink:href="#u"/>
</g>
</g>
<path d="m324.85 701.05 1.7668 4.5556q0.8678 2.2376 3.1054 1.3698l7.2186-2.7995q2.2376-0.8678 1.3698-3.1054l-1.7668-4.5556q-0.8678-2.2376-3.1054-1.3698l-7.2186 2.7995q-2.2376 0.8678-1.3698 3.1054z" clip-path="url(#a)" fill="#fff" stroke="#fff"/>
<g clip-path="url(#a)">
<g transform="translate(328.64 699.58) rotate(68.803) scale(.08 -.08)">
<use xlink:href="#k"/>
</g>
</g>
<path d="m353.4 828.02v33.808q0 2.4 2.4 2.4h7.7425q2.4 0 2.4-2.4v-33.808q0-2.4-2.4-2.4h-7.7425q-2.4 0-2.4 2.4z" clip-path="url(#a)" fill="#fff" stroke="#fff"/>
<g clip-path="url(#a)">
<g transform="translate(357.46 828.02) rotate(90) scale(.08 -.08)">
<use xlink:href="#k"/>
<use x="44.083984" xlink:href="#f"/>
<use x="105.607422" xlink:href="#h"/>
<use x="144.970703" xlink:href="#l"/>
<use x="242.382812" xlink:href="#e"/>
<use x="270.166016" xlink:href="#d"/>
<use x="333.544922" xlink:href="#g"/>
<use x="394.824219" xlink:href="#j"/>
</g>
</g>
<path d="m140.1 699.58 1.0523 5.3704q0.46151 2.3552 2.8167 1.8937l7.598-1.4888q2.3552-0.46151 1.8937-2.8167l-1.0523-5.3704q-0.46151-2.3552-2.8167-1.8937l-7.598 1.4888q-2.3552 0.46151-1.8937 2.8167z" clip-path="url(#a)" fill="#fff" stroke="#fff"/>
<g clip-path="url(#a)">
<g transform="translate(144.08 698.8) rotate(78.913) scale(.08 -.08)">
<use xlink:href="#m"/>
</g>
</g>
<path d="m127.75 704.68 0.79571-5.4143q0.34896-2.3745-2.0255-2.7235l-7.6602-1.1258q-2.3745-0.34897-2.7235 2.0255l-0.79571 5.4143q-0.34896 2.3745 2.0255 2.7235l7.6602 1.1258q2.3745 0.34896 2.7235-2.0255z" clip-path="url(#a)" fill="#fff" stroke="#fff"/>
<g clip-path="url(#a)">
<g transform="translate(123.73 704.09) rotate(-81.639) scale(.08 -.08)">
<use xlink:href="#m"/>
</g>
</g>
<path d="m135.17 703.91 0.2485-5.0727q0.11743-2.3971-2.2797-2.5146l-7.7332-0.37884q-2.3971-0.11743-2.5146 2.2797l-0.2485 5.0727q-0.11743 2.3971 2.2797 2.5146l7.7332 0.37884q2.3971 0.11743 2.5146-2.2797z" clip-path="url(#a)" fill="#fff" stroke="#fff"/>
<g clip-path="url(#a)">
<g transform="translate(131.12 703.71) rotate(-87.195) scale(.08 -.08)">
<use xlink:href="#ai"/>
</g>
</g>
<path d="m149.8 698.74 0.35669 5.4609q0.15643 2.3949 2.5513 2.2385l7.726-0.50464q2.3949-0.15643 2.2385-2.5513l-0.35669-5.4609q-0.15643-2.3949-2.5513-2.2385l-7.726 0.50464q-2.3949 0.15643-2.2385 2.5513z" clip-path="url(#a)" fill="#fff" stroke="#fff"/>
<g clip-path="url(#a)">
<g transform="translate(153.86 698.48) rotate(86.263) scale(.08 -.08)">
<use xlink:href="#m"/>
</g>
</g>
<path d="m152.87 704.01 0.33102-5.068q0.15643-2.3949-2.2385-2.5513l-7.726-0.50464q-2.3949-0.15643-2.5513 2.2385l-0.33102 5.068q-0.15643 2.3949 2.2385 2.5513l7.726 0.50464q2.3949 0.15643 2.5513-2.2385z" clip-path="url(#a)" fill="#fff" stroke="#fff"/>
<g clip-path="url(#a)">
<g transform="translate(148.81 703.74) rotate(-86.263) scale(.08 -.08)">
<use xlink:href="#ai"/>
</g>
</g>
<path d="m154.7 828.02v33.808q0 2.4 2.4 2.4h7.7425q2.4 0 2.4-2.4v-33.808q0-2.4-2.4-2.4h-7.7425q-2.4 0-2.4 2.4z" clip-path="url(#a)" fill="#fff" stroke="#fff"/>
<g clip-path="url(#a)">
<g transform="translate(158.76 828.02) rotate(90) scale(.08 -.08)">
<use xlink:href="#k"/>
<use x="44.083984" xlink:href="#f"/>
<use x="105.607422" xlink:href="#h"/>
<use x="144.970703" xlink:href="#l"/>
<use x="242.382812" xlink:href="#e"/>
<use x="270.166016" xlink:href="#d"/>
<use x="333.544922" xlink:href="#g"/>
<use x="394.824219" xlink:href="#j"/>
</g>
</g>
<path d="m135.77 828.02v33.808q0 2.4 2.4 2.4h7.7425q2.4 0 2.4-2.4v-33.808q0-2.4-2.4-2.4h-7.7425q-2.4 0-2.4 2.4z" clip-path="url(#a)" fill="#fff" stroke="#fff"/>
<g clip-path="url(#a)">
<g transform="translate(139.84 828.02) rotate(90) scale(.08 -.08)">
<use xlink:href="#k"/>
<use x="44.083984" xlink:href="#f"/>
<use x="105.607422" xlink:href="#h"/>
<use x="144.970703" xlink:href="#l"/>
<use x="242.382812" xlink:href="#e"/>
<use x="270.166016" xlink:href="#d"/>
<use x="333.544922" xlink:href="#g"/>
<use x="394.824219" xlink:href="#j"/>
</g>
</g>
<path d="m105.02 828.02v33.808q0 2.4 2.4 2.4h7.7425q2.4 0 2.4-2.4v-33.808q0-2.4-2.4-2.4h-7.7425q-2.4 0-2.4 2.4z" clip-path="url(#a)" fill="#fff" stroke="#fff"/>
<g clip-path="url(#a)">
<g transform="translate(109.09 828.02) rotate(90) scale(.08 -.08)">
<use xlink:href="#k"/>
<use x="44.083984" xlink:href="#f"/>
<use x="105.607422" xlink:href="#h"/>
<use x="144.970703" xlink:href="#l"/>
<use x="242.382812" xlink:href="#e"/>
<use x="270.166016" xlink:href="#d"/>
<use x="333.544922" xlink:href="#g"/>
<use x="394.824219" xlink:href="#j"/>
</g>
</g>
<path d="m119.22 828.02v33.808q0 2.4 2.4 2.4h7.7425q2.4 0 2.4-2.4v-33.808q0-2.4-2.4-2.4h-7.7425q-2.4 0-2.4 2.4z" clip-path="url(#a)" fill="#fff" stroke="#fff"/>
<g clip-path="url(#a)">
<g transform="translate(123.28 828.02) rotate(90) scale(.08 -.08)">
<use xlink:href="#k"/>
<use x="44.083984" xlink:href="#f"/>
<use x="105.607422" xlink:href="#h"/>
<use x="144.970703" xlink:href="#l"/>
<use x="242.382812" xlink:href="#e"/>
<use x="270.166016" xlink:href="#d"/>
<use x="333.544922" xlink:href="#g"/>
<use x="394.824219" xlink:href="#j"/>
</g>
</g>
<path d="m175.99 828.02v33.808q0 2.4 2.4 2.4h7.7425q2.4 0 2.4-2.4v-33.808q0-2.4-2.4-2.4h-7.7425q-2.4 0-2.4 2.4z" clip-path="url(#a)" fill="#fff" stroke="#fff"/>
<g clip-path="url(#a)">
<g transform="translate(180.05 828.02) rotate(90) scale(.08 -.08)">
<use xlink:href="#k"/>
<use x="44.083984" xlink:href="#f"/>
<use x="105.607422" xlink:href="#h"/>
<use x="144.970703" xlink:href="#l"/>
<use x="242.382812" xlink:href="#e"/>
<use x="270.166016" xlink:href="#d"/>
<use x="333.544922" xlink:href="#g"/>
<use x="394.824219" xlink:href="#j"/>
</g>
</g>
<path d="m317.91 828.02v33.808q0 2.4 2.4 2.4h7.7425q2.4 0 2.4-2.4v-33.808q0-2.4-2.4-2.4h-7.7425q-2.4 0-2.4 2.4z" clip-path="url(#a)" fill="#fff" stroke="#fff"/>
<g clip-path="url(#a)">
<g transform="translate(321.98 828.02) rotate(90) scale(.08 -.08)">
<use xlink:href="#k"/>
<use x="44.083984" xlink:href="#f"/>
<use x="105.607422" xlink:href="#h"/>
<use x="144.970703" xlink:href="#l"/>
<use x="242.382812" xlink:href="#e"/>
<use x="270.166016" xlink:href="#d"/>
<use x="333.544922" xlink:href="#g"/>
<use x="394.824219" xlink:href="#j"/>
</g>
</g>
<path d="m393.61 828.02v33.808q0 2.4 2.4 2.4h7.7425q2.4 0 2.4-2.4v-33.808q0-2.4-2.4-2.4h-7.7425q-2.4 0-2.4 2.4z" clip-path="url(#a)" fill="#fff" stroke="#fff"/>
<g clip-path="url(#a)">
<g transform="translate(397.67 828.02) rotate(90) scale(.08 -.08)">
<use xlink:href="#k"/>
<use x="44.083984" xlink:href="#f"/>
<use x="105.607422" xlink:href="#h"/>
<use x="144.970703" xlink:href="#l"/>
<use x="242.382812" xlink:href="#e"/>
<use x="270.166016" xlink:href="#d"/>
<use x="333.544922" xlink:href="#g"/>
<use x="394.824219" xlink:href="#j"/>
</g>
</g>
<path d="m433.82 828.02v33.808q0 2.4 2.4 2.4h7.7425q2.4 0 2.4-2.4v-33.808q0-2.4-2.4-2.4h-7.7425q-2.4 0-2.4 2.4z" clip-path="url(#a)" fill="#fff" stroke="#fff"/>
<g clip-path="url(#a)">
<g transform="translate(437.88 828.02) rotate(90) scale(.08 -.08)">
<use xlink:href="#k"/>
<use x="44.083984" xlink:href="#f"/>
<use x="105.607422" xlink:href="#h"/>
<use x="144.970703" xlink:href="#l"/>
<use x="242.382812" xlink:href="#e"/>
<use x="270.166016" xlink:href="#d"/>
<use x="333.544922" xlink:href="#g"/>
<use x="394.824219" xlink:href="#j"/>
</g>
</g>
<path d="m1734.8 828.02v33.808q0 2.4 2.4 2.4h7.7425q2.4 0 2.4-2.4v-33.808q0-2.4-2.4-2.4h-7.7425q-2.4 0-2.4 2.4z" clip-path="url(#a)" fill="#fff" stroke="#fff"/>
<g clip-path="url(#a)">
<g transform="translate(1738.9 828.02) rotate(90) scale(.08 -.08)">
<use xlink:href="#k"/>
<use x="44.083984" xlink:href="#f"/>
<use x="105.607422" xlink:href="#h"/>
<use x="144.970703" xlink:href="#l"/>
<use x="242.382812" xlink:href="#e"/>
<use x="270.166016" xlink:href="#d"/>
<use x="333.544922" xlink:href="#g"/>
<use x="394.824219" xlink:href="#j"/>
</g>
</g>
<defs>
<path id="b" d="m0 8.6603c2.2967 0 4.4997-0.9125 6.1237-2.5365 1.624-1.624 2.5365-3.827 2.5365-6.1237s-0.9125-4.4997-2.5365-6.1237c-1.624-1.624-3.827-2.5365-6.1237-2.5365s-4.4997 0.9125-6.1237 2.5365c-1.624 1.624-2.5365 3.827-2.5365 6.1237s0.9125 4.4997 2.5365 6.1237c1.624 1.624 3.827 2.5365 6.1237 2.5365z"/>
</defs>
<g clip-path="url(#a)">
<use x="82.909091" y="916.363636" fill="#ffffff" stroke="#ffffff" xlink:href="#b"/>
</g>
<g clip-path="url(#a)">
<use x="90.005447" y="916.363636" fill="#ffffff" stroke="#ffffff" xlink:href="#b"/>
</g>
<g clip-path="url(#a)">
<use x="99.467255" y="916.363636" fill="#ffffff" stroke="#ffffff" xlink:href="#b"/>
</g>
<g clip-path="url(#a)">
<use x="111.294514" y="916.363636" fill="#ffffff" stroke="#ffffff" xlink:href="#b"/>
</g>
<g clip-path="url(#a)">
<use x="125.487226" y="916.363636" fill="#ffffff" stroke="#ffffff" xlink:href="#b"/>
</g>
<g clip-path="url(#a)">
<use x="142.04539" y="916.363636" fill="#ffffff" stroke="#ffffff" xlink:href="#b"/>
</g>
<g clip-path="url(#a)">
<use x="160.969005" y="916.363636" fill="#ffffff" stroke="#ffffff" xlink:href="#b"/>
</g>
<g clip-path="url(#a)">
<use x="182.258073" y="916.363636" fill="#ffffff" stroke="#ffffff" xlink:href="#b"/>
</g>
<g clip-path="url(#a)">
<use x="205.912592" y="916.363636" fill="#ffffff" stroke="#ffffff" xlink:href="#b"/>
</g>
<g clip-path="url(#a)">
<use x="231.932564" y="916.363636" fill="#ffffff" stroke="#ffffff" xlink:href="#b"/>
</g>
<g clip-path="url(#a)">
<use x="260.317987" y="916.363636" fill="#ffffff" stroke="#ffffff" xlink:href="#b"/>
</g>
<g clip-path="url(#a)">
<use x="291.068863" y="916.363636" fill="#ffffff" stroke="#ffffff" xlink:href="#b"/>
</g>
<g clip-path="url(#a)">
<use x="324.18519" y="916.363636" fill="#ffffff" stroke="#ffffff" xlink:href="#b"/>
</g>
<g clip-path="url(#a)">
<use x="359.666969" y="916.363636" fill="#ffffff" stroke="#ffffff" xlink:href="#b"/>
</g>
<g clip-path="url(#a)">
<use x="399.879652" y="916.363636" fill="#ffffff" stroke="#ffffff" xlink:href="#b"/>
</g>
<g clip-path="url(#a)">
<use x="440.092336" y="916.363636" fill="#ffffff" stroke="#ffffff" xlink:href="#b"/>
</g>
<g clip-path="url(#a)">
<use x="482.670471" y="916.363636" fill="#ffffff" stroke="#ffffff" xlink:href="#b"/>
</g>
<g clip-path="url(#a)">
<use x="527.614058" y="916.363636" fill="#ffffff" stroke="#ffffff" xlink:href="#b"/>
</g>
<g clip-path="url(#a)">
<use x="574.923097" y="916.363636" fill="#ffffff" stroke="#ffffff" xlink:href="#b"/>
</g>
<g clip-path="url(#a)">
<use x="624.597588" y="916.363636" fill="#ffffff" stroke="#ffffff" xlink:href="#b"/>
</g>
<g clip-path="url(#a)">
<use x="676.637531" y="916.363636" fill="#ffffff" stroke="#ffffff" xlink:href="#b"/>
</g>
<g clip-path="url(#a)">
<use x="731.042926" y="916.363636" fill="#ffffff" stroke="#ffffff" xlink:href="#b"/>
</g>
<g clip-path="url(#a)">
<use x="787.813773" y="916.363636" fill="#ffffff" stroke="#ffffff" xlink:href="#b"/>
</g>
<g clip-path="url(#a)">
<use x="846.950071" y="916.363636" fill="#ffffff" stroke="#ffffff" xlink:href="#b"/>
</g>
<g clip-path="url(#a)">
<use x="908.451822" y="916.363636" fill="#ffffff" stroke="#ffffff" xlink:href="#b"/>
</g>
<g clip-path="url(#a)">
<use x="972.319025" y="916.363636" fill="#ffffff" stroke="#ffffff" xlink:href="#b"/>
</g>
<g clip-path="url(#a)">
<use x="1038.551679" y="916.363636" fill="#ffffff" stroke="#ffffff" xlink:href="#b"/>
</g>
<g clip-path="url(#a)">
<use x="1107.149786" y="916.363636" fill="#ffffff" stroke="#ffffff" xlink:href="#b"/>
</g>
<g clip-path="url(#a)">
<use x="1178.113345" y="916.363636" fill="#ffffff" stroke="#ffffff" xlink:href="#b"/>
</g>
<g clip-path="url(#a)">
<use x="1251.442355" y="916.363636" fill="#ffffff" stroke="#ffffff" xlink:href="#b"/>
</g>
<g clip-path="url(#a)">
<use x="1327.136818" y="916.363636" fill="#ffffff" stroke="#ffffff" xlink:href="#b"/>
</g>
<g clip-path="url(#a)">
<use x="1405.196732" y="916.363636" fill="#ffffff" stroke="#ffffff" xlink:href="#b"/>
</g>
<g clip-path="url(#a)">
<use x="1485.622098" y="916.363636" fill="#ffffff" stroke="#ffffff" xlink:href="#b"/>
</g>
<g clip-path="url(#a)">
<use x="1568.412917" y="916.363636" fill="#ffffff" stroke="#ffffff" xlink:href="#b"/>
</g>
<g clip-path="url(#a)">
<use x="1653.569187" y="916.363636" fill="#ffffff" stroke="#ffffff" xlink:href="#b"/>
</g>
<g clip-path="url(#a)">
<use x="1741.090909" y="916.363636" fill="#ffffff" stroke="#ffffff" xlink:href="#b"/>
</g>
<g clip-path="url(#a)">
<use x="362.032421" y="773.492077" fill="#ffffff" stroke="#ffffff" xlink:href="#b"/>
</g>
<g clip-path="url(#a)">
<use x="517.108056" y="43.636364" fill="#ffffff" stroke="#ffffff" xlink:href="#b"/>
</g>
<g clip-path="url(#a)">
<use x="128.375049" y="190.415676" fill="#ffffff" stroke="#ffffff" xlink:href="#b"/>
</g>
<g clip-path="url(#a)">
<use x="558.956296" y="483.014184" fill="#ffffff" stroke="#ffffff" xlink:href="#b"/>
</g>
<g clip-path="url(#a)">
<use x="731.042926" y="773.492077" fill="#ffffff" stroke="#ffffff" xlink:href="#b"/>
</g>
<g clip-path="url(#a)">
<use x="844.302079" y="190.415676" fill="#ffffff" stroke="#ffffff" xlink:href="#b"/>
</g>
<g clip-path="url(#a)">
<use x="787.813773" y="773.492077" fill="#ffffff" stroke="#ffffff" xlink:href="#b"/>
</g>
<g clip-path="url(#a)">
<use x="910.02879" y="483.014184" fill="#ffffff" stroke="#ffffff" xlink:href="#b"/>
</g>
<g clip-path="url(#a)">
<use x="1196.695284" y="336.899748" fill="#ffffff" stroke="#ffffff" xlink:href="#b"/>
</g>
<g clip-path="url(#a)">
<use x="1107.149786" y="773.492077" fill="#ffffff" stroke="#ffffff" xlink:href="#b"/>
</g>
<g clip-path="url(#a)">
<use x="1509.828557" y="483.014184" fill="#ffffff" stroke="#ffffff" xlink:href="#b"/>
</g>
<g clip-path="url(#a)">
<use x="1178.113345" y="773.492077" fill="#ffffff" stroke="#ffffff" xlink:href="#b"/>
</g>
<g clip-path="url(#a)">
<use x="1449.351835" y="628.633017" fill="#ffffff" stroke="#ffffff" xlink:href="#b"/>
</g>
<g clip-path="url(#a)">
<use x="1527.017507" y="773.492077" fill="#ffffff" stroke="#ffffff" xlink:href="#b"/>
</g>
<g clip-path="url(#a)">
<use x="1653.569187" y="773.492077" fill="#ffffff" stroke="#ffffff" xlink:href="#b"/>
</g>
<g clip-path="url(#a)">
<use x="1289.289586" y="773.492077" fill="#ffffff" stroke="#ffffff" xlink:href="#b"/>
</g>
<g clip-path="url(#a)">
<use x="1405.196732" y="773.492077" fill="#ffffff" stroke="#ffffff" xlink:href="#b"/>
</g>
<g clip-path="url(#a)">
<use x="846.950071" y="628.633017" fill="#ffffff" stroke="#ffffff" xlink:href="#b"/>
</g>
<g clip-path="url(#a)">
<use x="973.107509" y="773.492077" fill="#ffffff" stroke="#ffffff" xlink:href="#b"/>
</g>
<g clip-path="url(#a)">
<use x="846.950071" y="773.492077" fill="#ffffff" stroke="#ffffff" xlink:href="#b"/>
</g>
<g clip-path="url(#a)">
<use x="482.670471" y="773.492077" fill="#ffffff" stroke="#ffffff" xlink:href="#b"/>
</g>
<g clip-path="url(#a)">
<use x="527.614058" y="773.492077" fill="#ffffff" stroke="#ffffff" xlink:href="#b"/>
</g>
<g clip-path="url(#a)">
<use x="574.923097" y="773.492077" fill="#ffffff" stroke="#ffffff" xlink:href="#b"/>
</g>
<g clip-path="url(#a)">
<use x="650.617559" y="628.633017" fill="#ffffff" stroke="#ffffff" xlink:href="#b"/>
</g>
<g clip-path="url(#a)">
<use x="624.597588" y="773.492077" fill="#ffffff" stroke="#ffffff" xlink:href="#b"/>
</g>
<g clip-path="url(#a)">
<use x="676.637531" y="773.492077" fill="#ffffff" stroke="#ffffff" xlink:href="#b"/>
</g>
<g clip-path="url(#a)">
<use x="82.909091" y="773.492077" fill="#ffffff" stroke="#ffffff" xlink:href="#b"/>
</g>
<g clip-path="url(#a)">
<use x="90.005447" y="773.492077" fill="#ffffff" stroke="#ffffff" xlink:href="#b"/>
</g>
<g clip-path="url(#a)">
<use x="99.467255" y="773.492077" fill="#ffffff" stroke="#ffffff" xlink:href="#b"/>
</g>
<g clip-path="url(#a)">
<use x="241.118402" y="336.899748" fill="#ffffff" stroke="#ffffff" xlink:href="#b"/>
</g>
<g clip-path="url(#a)">
<use x="148.353262" y="483.014184" fill="#ffffff" stroke="#ffffff" xlink:href="#b"/>
</g>
<g clip-path="url(#a)">
<use x="247.308002" y="773.492077" fill="#ffffff" stroke="#ffffff" xlink:href="#b"/>
</g>
<g clip-path="url(#a)">
<use x="303.487485" y="628.633017" fill="#ffffff" stroke="#ffffff" xlink:href="#b"/>
</g>
<g clip-path="url(#a)">
<use x="359.666969" y="773.492077" fill="#ffffff" stroke="#ffffff" xlink:href="#b"/>
</g>
<g clip-path="url(#a)">
<use x="132.583582" y="628.633017" fill="#ffffff" stroke="#ffffff" xlink:href="#b"/>
</g>
<g clip-path="url(#a)">
<use x="151.507198" y="628.633017" fill="#ffffff" stroke="#ffffff" xlink:href="#b"/>
</g>
<g clip-path="url(#a)">
<use x="160.969005" y="773.492077" fill="#ffffff" stroke="#ffffff" xlink:href="#b"/>
</g>
<g clip-path="url(#a)">
<use x="142.04539" y="773.492077" fill="#ffffff" stroke="#ffffff" xlink:href="#b"/>
</g>
<g clip-path="url(#a)">
<use x="111.294514" y="773.492077" fill="#ffffff" stroke="#ffffff" xlink:href="#b"/>
</g>
<g clip-path="url(#a)">
<use x="125.487226" y="773.492077" fill="#ffffff" stroke="#ffffff" xlink:href="#b"/>
</g>
<g clip-path="url(#a)">
<use x="182.258073" y="773.492077" fill="#ffffff" stroke="#ffffff" xlink:href="#b"/>
</g>
<g clip-path="url(#a)">
<use x="324.18519" y="773.492077" fill="#ffffff" stroke="#ffffff" xlink:href="#b"/>
</g>
<g clip-path="url(#a)">
<use x="399.879652" y="773.492077" fill="#ffffff" stroke="#ffffff" xlink:href="#b"/>
</g>
<g clip-path="url(#a)">
<use x="440.092336" y="773.492077" fill="#ffffff" stroke="#ffffff" xlink:href="#b"/>
</g>
<g clip-path="url(#a)">
<use x="1741.090909" y="773.492077" fill="#ffffff" stroke="#ffffff" xlink:href="#b"/>
</g>
<g clip-path="url(#a)">
<defs>
<path id="ab" d="m9.8125 72.906h14.703l18.594-49.609 18.703 49.609h14.703v-72.906h-9.625v64.016l-18.797-50h-9.9062l-18.797 50v-64.016h-9.5781z"/>
<path id="t" d="m44.281 53.078v-8.5q-3.7969 1.9531-7.9062 2.9219-4.0938 0.98438-8.5 0.98438-6.6875 0-10.031-2.0469t-3.3438-6.1562q0-3.125 2.3906-4.9062t9.625-3.3906l3.0781-0.6875q9.5625-2.0469 13.594-5.7812t4.0312-10.422q0-7.625-6.0312-12.078-6.0312-4.4375-16.578-4.4375-4.3906 0-9.1562 0.85938t-10.031 2.5625v9.2812q4.9844-2.5938 9.8125-3.8906 4.8281-1.2812 9.5781-1.2812 6.3438 0 9.75 2.1719 3.4219 2.1719 3.4219 6.125 0 3.6562-2.4688 5.6094-2.4531 1.9531-10.812 3.7656l-3.125 0.73438q-8.3438 1.75-12.062 5.3906-3.7031 3.6406-3.7031 9.9844 0 7.7188 5.4688 11.906 5.4688 4.2031 15.531 4.2031 4.9688 0 9.3594-0.73438 4.4062-0.71875 8.1094-2.1875z"/>
</defs>
<g transform="translate(70.136 919.12) scale(.1 -.1)">
<use xlink:href="#ab"/>
<use x="86.279297" xlink:href="#e"/>
<use x="114.0625" xlink:href="#j"/>
<use x="141.845703" xlink:href="#f"/>
<use x="203.369141" xlink:href="#t"/>
</g>
</g>
<g clip-path="url(#a)">
<defs>
<path id="q" d="m18.312 70.219v-15.531h18.5v-6.9844h-18.5v-29.688q0-6.6875 1.8281-8.5938t7.4531-1.9062h9.2188v-7.5156h-9.2188q-10.406 0-14.359 3.875-3.9531 3.8906-3.9531 14.141v29.688h-6.5938v6.9844h6.5938v15.531z"/>
</defs>
<g transform="translate(78.46 919.12) scale(.1 -.1)">
<use xlink:href="#j"/>
<use x="27.783203" xlink:href="#g"/>
<use x="89.0625" xlink:href="#q"/>
<use x="128.271484" xlink:href="#f"/>
<use x="189.794922" xlink:href="#h"/>
</g>
</g>
<g clip-path="url(#a)">
<defs>
<path id="ah" d="m4.2031 54.688h8.9844l11.234-42.672 11.172 42.672h10.594l11.234-42.672 11.188 42.672h8.9844l-14.312-54.688h-10.594l-11.766 44.828-11.812-44.828h-10.609z"/>
<path id="r" d="m30.609 48.391q-7.2188 0-11.422-5.6406t-4.2031-15.453 4.1719-15.453q4.1875-5.6406 11.453-5.6406 7.1875 0 11.375 5.6562 4.2031 5.6719 4.2031 15.438 0 9.7188-4.2031 15.406-4.1875 5.6875-11.375 5.6875zm0 7.6094q11.719 0 18.406-7.625 6.7031-7.6094 6.7031-21.078 0-13.422-6.7031-21.078-6.6875-7.6406-18.406-7.6406-11.766 0-18.438 7.6406-6.6562 7.6562-6.6562 21.078 0 13.469 6.6562 21.078 6.6719 7.625 18.438 7.625z"/>
</defs>
<g transform="translate(85.339 919.12) scale(.1 -.1)">
<use xlink:href="#ah"/>
<use x="81.787109" xlink:href="#h"/>
<use x="120.650391" xlink:href="#r"/>
<use x="181.832031" xlink:href="#q"/>
<use x="221.041016" xlink:href="#f"/>
</g>
</g>
<g clip-path="url(#a)">
<defs>
<path id="z" d="m48.781 52.594v-8.4062q-3.8125 2.1094-7.6406 3.1562t-7.7344 1.0469q-8.75 0-13.594-5.5469-4.8281-5.5312-4.8281-15.547t4.8281-15.562q4.8438-5.5312 13.594-5.5312 3.9062 0 7.7344 1.0469t7.6406 3.1562v-8.3125q-3.7656-1.75-7.7969-2.625-4.0156-0.89062-8.5625-0.89062-12.359 0-19.641 7.7656-7.2656 7.7656-7.2656 20.953 0 13.375 7.3438 21.031 7.3594 7.6719 20.156 7.6719 4.1406 0 8.0938-0.85938 3.9531-0.84375 7.6719-2.5469z"/>
<path id="ag" d="m32.172-5.0781q-3.7969-9.7656-7.4219-12.734-3.6094-2.9844-9.6562-2.9844h-7.1875v7.5156h5.2812q3.7031 0 5.75 1.7656 2.0625 1.75 4.5469 8.2969l1.6094 4.0938-22.109 53.812h9.5156l17.094-42.766 17.094 42.766h9.5156z"/>
</defs>
<g transform="translate(84.455 919.12) scale(.1 -.1)">
<use xlink:href="#ab"/>
<use x="86.279297" xlink:href="#z"/>
<use x="141.259766" xlink:href="#s"/>
<use x="211.083984" xlink:href="#g"/>
<use x="272.363281" xlink:href="#h"/>
<use x="313.476562" xlink:href="#q"/>
<use x="352.685547" xlink:href="#d"/>
<use x="416.064453" xlink:href="#f"/>
<use x="477.587891" xlink:href="#ag"/>
</g>
</g>
<g clip-path="url(#a)">
<defs>
<path id="ar" d="m17.922 72.906v-27.109h-8.2969v27.109z"/>
</defs>
<g transform="translate(121.51 919.12) scale(.1 -.1)">
<use xlink:href="#ar"/>
<use x="27.490234" xlink:href="#t"/>
</g>
</g>
<g clip-path="url(#a)">
<defs>
<path id="an" d="m37.109 75.984v-7.4844h-8.5938q-4.8281 0-6.7188-1.9531-1.875-1.9531-1.875-7.0312v-4.8281h14.797v-6.9844h-14.797v-47.703h-9.0312v47.703h-8.5938v6.9844h8.5938v3.8125q0 9.125 4.25 13.297 4.25 4.1875 13.469 4.1875z"/>
</defs>
<g transform="translate(125.49 919.12) scale(.1 -.1)">
<use xlink:href="#r"/>
<use x="61.181641" xlink:href="#an"/>
<use x="96.386719" xlink:href="#an"/>
<use x="131.591797" xlink:href="#e"/>
<use x="159.375" xlink:href="#z"/>
<use x="214.355469" xlink:href="#e"/>
<use x="242.138672" xlink:href="#g"/>
<use x="303.417969" xlink:href="#j"/>
</g>
</g>
<g clip-path="url(#a)">
<defs>
<path id="ao" d="m48.688 27.297q0 9.9062-4.0781 15.547t-11.203 5.6406q-7.1406 0-11.219-5.6406t-4.0781-15.547 4.0781-15.547 11.219-5.6406q7.125 0 11.203 5.6406t4.0781 15.547zm-30.578 19.094q2.8438 4.875 7.1562 7.2344 4.3281 2.375 10.328 2.375 9.9688 0 16.188-7.9062 6.2344-7.9062 6.2344-20.797t-6.2344-20.812q-6.2188-7.9062-16.188-7.9062-6 0-10.328 2.375-4.3125 2.375-7.1562 7.25v-8.2031h-9.0312v75.984h9.0312z"/>
<path id="y" d="m45.406 27.984q0 9.7656-4.0312 15.125-4.0156 5.375-11.297 5.375-7.2188 0-11.25-5.375-4.0312-5.3594-4.0312-15.125 0-9.7188 4.0312-15.094t11.25-5.375q7.2812 0 11.297 5.375 4.0312 5.375 4.0312 15.094zm8.9844-21.203q0-13.953-6.2031-20.766-6.1875-6.8125-18.984-6.8125-4.7344 0-8.9375 0.70312t-8.1562 2.1719v8.7344q3.9531-2.1406 7.8125-3.1562 3.8594-1.0312 7.8594-1.0312 8.8438 0 13.234 4.6094t4.3906 13.938v4.4531q-2.7812-4.8438-7.125-7.2344t-10.406-2.3906q-10.047 0-16.203 7.6562-6.1562 7.6719-6.1562 20.328 0 12.688 6.1562 20.344 6.1562 7.6719 16.203 7.6719 6.0625 0 10.406-2.3906t7.125-7.2188v8.2969h8.9844z"/>
<path id="as" d="m18.109 8.2031v-29h-9.0312v75.484h9.0312v-8.2969q2.8438 4.875 7.1562 7.2344 4.3281 2.375 10.328 2.375 9.9688 0 16.188-7.9062 6.2344-7.9062 6.2344-20.797t-6.2344-20.812q-6.2188-7.9062-16.188-7.9062-6 0-10.328 2.375-4.3125 2.375-7.1562 7.25zm30.578 19.094q0 9.9062-4.0781 15.547t-11.203 5.6406q-7.1406 0-11.219-5.6406t-4.0781-15.547 4.0781-15.547 11.219-5.6406q7.125 0 11.203 5.6406t4.0781 15.547z"/>
<path id="at" d="m54.891 33.016v-33.016h-8.9844v32.719q0 7.7656-3.0312 11.609-3.0312 3.8594-9.0781 3.8594-7.2812 0-11.484-4.6406-4.2031-4.625-4.2031-12.641v-30.906h-9.0312v75.984h9.0312v-29.797q3.2344 4.9375 7.5938 7.375 4.375 2.4375 10.094 2.4375 9.4219 0 14.25-5.8281 4.8438-5.8281 4.8438-17.156z"/>
</defs>
<g transform="translate(135.75 919.12) scale(.1 -.1)">
<use xlink:href="#ao"/>
<use x="63.476562" xlink:href="#e"/>
<use x="91.259766" xlink:href="#r"/>
<use x="152.441406" xlink:href="#y"/>
<use x="215.917969" xlink:href="#h"/>
<use x="257.03125" xlink:href="#g"/>
<use x="318.310547" xlink:href="#as"/>
<use x="381.787109" xlink:href="#at"/>
<use x="445.166016" xlink:href="#ag"/>
</g>
</g>
<g clip-path="url(#a)">
<defs>
<path id="az" d="m11.719 12.406h10.297v-8.4062l-8-15.625h-6.2969l4 15.625z"/>
</defs>
<g transform="translate(180.67 919.12) scale(.1 -.1)">
<use xlink:href="#az"/>
</g>
</g>
<g clip-path="url(#a)">
<g transform="translate(192.41 919.12) scale(.1 -.1)">
<use xlink:href="#ab"/>
<use x="86.279297" xlink:href="#g"/>
<use x="147.558594" xlink:href="#d"/>
<use x="210.9375" xlink:href="#ag"/>
</g>
</g>
<g clip-path="url(#a)">
<defs>
<path id="au" d="m-0.20312 72.906h10.609l20.203-29.984 20.078 29.984h10.594l-25.781-38.188v-34.719h-9.9062v34.719z"/>
</defs>
<g transform="translate(218.74 919.12) scale(.1 -.1)">
<use xlink:href="#au"/>
<use x="47.833984" xlink:href="#f"/>
<use x="109.357422" xlink:href="#g"/>
<use x="170.636719" xlink:href="#h"/>
<use x="211.75" xlink:href="#t"/>
</g>
</g>
<g clip-path="url(#a)">
<defs>
<path id="ax" d="m9.8125 72.906h41.891v-8.3125h-32.031v-21.484h28.906v-8.2969h-28.906v-34.812h-9.8594z"/>
</defs>
<g transform="translate(247.93 919.12) scale(.1 -.1)">
<use xlink:href="#ax"/>
<use x="50.269531" xlink:href="#h"/>
<use x="89.132812" xlink:href="#r"/>
<use x="150.314453" xlink:href="#l"/>
</g>
</g>
<g clip-path="url(#a)">
<defs>
<path id="aw" d="m9.8125 72.906h13.281l32.328-60.984v60.984h9.5625v-72.906h-13.281l-32.312 60.984v-60.984h-9.5781z"/>
</defs>
<g transform="translate(280.18 919.12) scale(.1 -.1)">
<use xlink:href="#aw"/>
<use x="74.804688" xlink:href="#r"/>
<use x="135.986328" xlink:href="#ah"/>
</g>
</g>
<g clip-path="url(#a)">
<defs>
<path id="bb" d="m31 75.875q-6.5312-11.219-9.7188-22.219-3.1719-10.984-3.1719-22.266 0-11.266 3.2031-22.328t9.6875-22.25h-7.8125q-7.3125 11.484-10.953 22.562t-3.6406 22.016q0 10.891 3.6094 21.922 3.625 11.047 10.984 22.562z"/>
</defs>
<g transform="translate(322.23 919.12) scale(.1 -.1)">
<use xlink:href="#bb"/>
</g>
</g>
<g clip-path="url(#a)">
<defs>
<path id="c" d="m12.406 8.2969h16.109v55.625l-17.531-3.5156v8.9844l17.438 3.5156h9.8594v-64.609h16.109v-8.2969h-41.984z"/>
<path id="w" d="m10.984 1.5156v8.9844q3.7188-1.7656 7.5156-2.6875 3.8125-0.92188 7.4844-0.92188 9.7656 0 14.906 6.5625 5.1562 6.5625 5.8906 19.953-2.8281-4.2031-7.1875-6.4531-4.3438-2.25-9.6094-2.25-10.938 0-17.312 6.6094-6.375 6.625-6.375 18.109 0 11.219 6.6406 18 6.6406 6.7969 17.672 6.7969 12.656 0 19.312-9.7031 6.6719-9.6875 6.6719-28.141 0-17.234-8.1875-27.516-8.1719-10.281-21.984-10.281-3.7188 0-7.5312 0.73438-3.7969 0.73438-7.9062 2.2031zm19.625 30.906q6.6406 0 10.516 4.5312 3.8906 4.5469 3.8906 12.469 0 7.8594-3.8906 12.422-3.875 4.5625-10.516 4.5625t-10.516-4.5625-3.875-12.422q0-7.9219 3.875-12.469 3.875-4.5312 10.516-4.5312z"/>
<path id="af" d="m8.2031 72.906h46.875v-4.2031l-26.469-68.703h-10.297l24.906 64.594h-35.016z"/>
</defs>
<g transform="translate(346.94 919.12) scale(.1 -.1)">
<use xlink:href="#c"/>
<use x="63.623047" xlink:href="#w"/>
<use x="127.246094" xlink:href="#w"/>
<use x="190.869141" xlink:href="#af"/>
</g>
</g>
<g clip-path="url(#a)">
<defs>
<path id="ba" d="m8.0156 75.875h7.8125q7.3125-11.516 10.953-22.562 3.6406-11.031 3.6406-21.922 0-10.938-3.6406-22.016t-10.953-22.562h-7.8125q6.4844 11.188 9.6875 22.25t3.2031 22.328q0 11.281-3.2031 22.266-3.2031 11-9.6875 22.219z"/>
</defs>
<g transform="translate(397.93 919.12) scale(.1 -.1)">
<use xlink:href="#ba"/>
</g>
</g>
<g clip-path="url(#a)">
<defs>
<path id="i" d="m10.688 12.406h10.312v-12.406h-10.312z"/>
</defs>
<g transform="translate(438.5 919.12) scale(.1 -.1)">
<use xlink:href="#i"/>
</g>
</g>
<g clip-path="url(#a)">
<g transform="translate(455.83 919.12) scale(.1 -.1)">
<use xlink:href="#ab"/>
<use x="86.279297" xlink:href="#z"/>
<use x="141.259766" xlink:href="#s"/>
<use x="211.083984" xlink:href="#g"/>
<use x="272.363281" xlink:href="#h"/>
<use x="313.476562" xlink:href="#q"/>
<use x="352.685547" xlink:href="#d"/>
<use x="416.064453" xlink:href="#f"/>
<use x="477.587891" xlink:href="#ag"/>
</g>
</g>
<g clip-path="url(#a)">
<g transform="translate(507.6 919.12) scale(.1 -.1)">
<use xlink:href="#ao"/>
<use x="63.476562" xlink:href="#f"/>
<use x="125" xlink:href="#z"/>
<use x="179.980469" xlink:href="#g"/>
<use x="241.259766" xlink:href="#l"/>
<use x="338.671875" xlink:href="#f"/>
</g>
</g>
<g clip-path="url(#a)">
<defs>
<path id="ad" d="m45.406 46.391v29.594h8.9844v-75.984h-8.9844v8.2031q-2.8281-4.875-7.1562-7.25-4.3125-2.375-10.375-2.375-9.9062 0-16.141 7.9062-6.2188 7.9219-6.2188 20.812t6.2188 20.797q6.2344 7.9062 16.141 7.9062 6.0625 0 10.375-2.375 4.3281-2.3594 7.1562-7.2344zm-30.609-19.094q0-9.9062 4.0781-15.547t11.203-5.6406 11.219 5.6406q4.1094 5.6406 4.1094 15.547t-4.1094 15.547q-4.0938 5.6406-11.219 5.6406t-11.203-5.6406-4.0781-15.547z"/>
</defs>
<g transform="translate(549.49 919.12) scale(.1 -.1)">
<use xlink:href="#e"/>
<use x="27.783203" xlink:href="#d"/>
<use x="91.162109" xlink:href="#q"/>
<use x="130.371094" xlink:href="#f"/>
<use x="191.894531" xlink:href="#h"/>
<use x="230.757812" xlink:href="#f"/>
<use x="292.28125" xlink:href="#t"/>
<use x="344.380859" xlink:href="#q"/>
<use x="383.589844" xlink:href="#f"/>
<use x="445.113281" xlink:href="#ad"/>
</g>
</g>
<g clip-path="url(#a)">
<g transform="translate(620.04 919.12) scale(.1 -.1)">
<use xlink:href="#e"/>
<use x="27.783203" xlink:href="#d"/>
</g>
</g>
<g clip-path="url(#a)">
<g transform="translate(656.15 919.12) scale(.1 -.1)">
<use xlink:href="#as"/>
<use x="63.476562" xlink:href="#g"/>
<use x="124.755859" xlink:href="#e"/>
<use x="152.539062" xlink:href="#d"/>
<use x="215.917969" xlink:href="#q"/>
<use x="255.126953" xlink:href="#e"/>
<use x="282.910156" xlink:href="#d"/>
<use x="346.289062" xlink:href="#y"/>
</g>
</g>
<g clip-path="url(#a)">
<g transform="translate(719.21 919.12) scale(.1 -.1)">
<use xlink:href="#g"/>
<use x="61.279297" xlink:href="#an"/>
<use x="94.734375" xlink:href="#q"/>
<use x="133.943359" xlink:href="#f"/>
<use x="195.466797" xlink:href="#h"/>
</g>
</g>
<g clip-path="url(#a)">
<g transform="translate(765.05 919.12) scale(.1 -.1)">
<use xlink:href="#ah"/>
<use x="81.787109" xlink:href="#g"/>
<use x="143.066406" xlink:href="#q"/>
<use x="182.275391" xlink:href="#z"/>
<use x="237.255859" xlink:href="#at"/>
<use x="300.634766" xlink:href="#e"/>
<use x="328.417969" xlink:href="#d"/>
<use x="391.796875" xlink:href="#y"/>
</g>
</g>
<g clip-path="url(#a)">
<g transform="translate(833.92 919.12) scale(.1 -.1)">
<use xlink:href="#g"/>
<use x="61.279297" xlink:href="#h"/>
<use x="102.392578" xlink:href="#q"/>
<use x="141.601562" xlink:href="#e"/>
<use x="169.384766" xlink:href="#t"/>
<use x="221.484375" xlink:href="#q"/>
</g>
</g>
<g clip-path="url(#a)">
<defs>
<path id="av" d="m3.3281 72.906h9.9531l15.328-61.625 15.281 61.625h11.094l15.328-61.625 15.281 61.625h10.016l-18.312-72.906h-12.406l-15.375 63.281-15.531-63.281h-12.406z"/>
</defs>
<g transform="translate(891.51 919.12) scale(.1 -.1)">
<use xlink:href="#av"/>
<use x="96.626953" xlink:href="#e"/>
<use x="124.410156" xlink:href="#j"/>
<use x="152.193359" xlink:href="#j"/>
<use x="179.976562" xlink:href="#f"/>
<use x="241.5" xlink:href="#l"/>
</g>
</g>
<g clip-path="url(#a)">
<g transform="translate(966.07 919.12) scale(.1 -.1)">
<use xlink:href="#ad"/>
<use x="63.476562" xlink:href="#f"/>
</g>
</g>
<g clip-path="url(#a)">
<defs>
<path id="aq" d="m9.8125 72.906h9.8594v-30.812l32.719 30.812h12.703l-36.188-33.984 38.766-38.922h-12.984l-35.016 35.109v-35.109h-9.8594z"/>
</defs>
<g transform="translate(1018.5 919.12) scale(.1 -.1)">
<use xlink:href="#aq"/>
<use x="60.576172" xlink:href="#r"/>
<use x="121.757812" xlink:href="#r"/>
<use x="182.939453" xlink:href="#d"/>
<use x="246.318359" xlink:href="#e"/>
<use x="274.101562" xlink:href="#d"/>
<use x="337.480469" xlink:href="#y"/>
</g>
</g>
<g clip-path="url(#a)">
<defs>
<path id="be" d="m9.0781 75.984h9.0312v-44.875l26.812 23.578h11.469l-29-25.578 30.234-29.109h-11.719l-27.797 26.703v-26.703h-9.0312z"/>
</defs>
<g transform="translate(1095.1 919.12) scale(.1 -.1)">
<use xlink:href="#ah"/>
<use x="81.787109" xlink:href="#r"/>
<use x="142.96875" xlink:href="#h"/>
<use x="184.082031" xlink:href="#be"/>
</g>
</g>
<g clip-path="url(#a)">
<g transform="translate(1173.6 919.12) scale(.1 -.1)">
<use xlink:href="#e"/>
<use x="27.783203" xlink:href="#d"/>
</g>
</g>
<g clip-path="url(#a)">
<g transform="translate(1245.2 919.12) scale(.1 -.1)">
<use xlink:href="#ad"/>
<use x="63.476562" xlink:href="#f"/>
</g>
</g>
<g clip-path="url(#a)">
<g transform="translate(1307.1 919.12) scale(.1 -.1)">
<use xlink:href="#aq"/>
<use x="60.576172" xlink:href="#r"/>
<use x="121.757812" xlink:href="#r"/>
<use x="182.939453" xlink:href="#d"/>
<use x="246.318359" xlink:href="#e"/>
<use x="274.101562" xlink:href="#d"/>
<use x="337.480469" xlink:href="#y"/>
</g>
</g>
<g clip-path="url(#a)">
<g transform="translate(1401.2 919.12) scale(.1 -.1)">
<use xlink:href="#ar"/>
<use x="27.490234" xlink:href="#t"/>
</g>
</g>
<g clip-path="url(#a)">
<g transform="translate(1473.5 919.12) scale(.1 -.1)">
<use xlink:href="#aj"/>
<use x="53.962891" xlink:href="#r"/>
<use x="115.144531" xlink:href="#d"/>
<use x="178.523438" xlink:href="#y"/>
</g>
</g>
<g clip-path="url(#a)">
<defs>
<path id="ae" d="m9.8125 72.906h9.8594v-72.906h-9.8594z"/>
</defs>
<g transform="translate(1553.5 919.12) scale(.1 -.1)">
<use xlink:href="#ae"/>
<use x="29.492188" xlink:href="#t"/>
<use x="81.591797" xlink:href="#j"/>
<use x="109.375" xlink:href="#g"/>
<use x="170.654297" xlink:href="#d"/>
<use x="234.033203" xlink:href="#ad"/>
</g>
</g>
<g clip-path="url(#a)">
<defs>
<path id="bd" d="m8.5 21.578v33.109h8.9844v-32.766q0-7.7656 3.0156-11.656 3.0312-3.875 9.0938-3.875 7.2656 0 11.484 4.6406 4.2344 4.6406 4.2344 12.656v31h8.9844v-54.688h-8.9844v8.4062q-3.2656-4.9844-7.5938-7.4062-4.3125-2.4219-10.031-2.4219-9.4219 0-14.312 5.8594-4.875 5.8594-4.875 17.141z"/>
</defs>
<g transform="translate(1638.2 919.12) scale(.1 -.1)">
<use xlink:href="#t"/>
<use x="52.099609" xlink:href="#q"/>
<use x="91.308594" xlink:href="#bd"/>
<use x="154.6875" xlink:href="#ad"/>
<use x="218.164062" xlink:href="#e"/>
<use x="245.947266" xlink:href="#r"/>
</g>
</g>
<g clip-path="url(#a)">
<g transform="translate(1739.5 919.12) scale(.1 -.1)">
<use xlink:href="#i"/>
</g>
</g>
<g clip-path="url(#a)">
<g transform="translate(340.95 776.25) scale(.1 -.1)">
<use xlink:href="#ae"/>
<use x="29.492188" xlink:href="#ab"/>
<use x="115.771484" xlink:href="#u"/>
<use x="176.074219" xlink:href="#aj"/>
<use x="231.787109" xlink:href="#ae"/>
<use x="261.279297" xlink:href="#s"/>
<use x="331.103516" xlink:href="#ae"/>
<use x="360.595703" xlink:href="#k"/>
</g>
</g>
<g clip-path="url(#a)">
<g transform="translate(509.16 46.396) scale(.1 -.1)">
<use xlink:href="#c"/>
<use x="63.623047" xlink:href="#i"/>
<use x="95.410156" xlink:href="#c"/>
</g>
</g>
<g clip-path="url(#a)">
<defs>
<path id="o" d="m19.188 8.2969h34.422v-8.2969h-46.281v8.2969q5.6094 5.8125 15.297 15.594 9.7031 9.7969 12.188 12.641 4.7344 5.3125 6.6094 9 1.8906 3.6875 1.8906 7.25 0 5.8125-4.0781 9.4688-4.0781 3.6719-10.625 3.6719-4.6406 0-9.7969-1.6094-5.1406-1.6094-11-4.8906v9.9688q5.9531 2.3906 11.125 3.6094 5.1875 1.2188 9.4844 1.2188 11.328 0 18.062-5.6719 6.7344-5.6562 6.7344-15.125 0-4.5-1.6875-8.5312-1.6719-4.0156-6.125-9.4844-1.2188-1.4219-7.7656-8.1875-6.5312-6.7656-18.453-18.922z"/>
</defs>
<g transform="translate(120.42 193.18) scale(.1 -.1)">
<use xlink:href="#c"/>
<use x="63.623047" xlink:href="#i"/>
<use x="95.410156" xlink:href="#o"/>
</g>
</g>
<g clip-path="url(#a)">
<defs>
<path id="p" d="m40.578 39.312q7.0781-1.5156 11.047-6.3125 3.9844-4.7812 3.9844-11.812 0-10.781-7.4219-16.703-7.4219-5.9062-21.094-5.9062-4.5781 0-9.4375 0.90625t-10.031 2.7188v9.5156q4.0938-2.3906 8.9688-3.6094 4.8906-1.2188 10.219-1.2188 9.2656 0 14.125 3.6562t4.8594 10.641q0 6.4531-4.5156 10.078-4.5156 3.6406-12.562 3.6406h-8.5v8.1094h8.8906q7.2656 0 11.125 2.9062t3.8594 8.375q0 5.6094-3.9844 8.6094-3.9688 3.0156-11.391 3.0156-4.0625 0-8.7031-0.89062-4.6406-0.875-10.203-2.7188v8.7812q5.625 1.5625 10.531 2.3438t9.25 0.78125q11.234 0 17.766-5.1094 6.5469-5.0938 6.5469-13.781 0-6.0625-3.4688-10.234t-9.8594-5.7812z"/>
</defs>
<g transform="translate(551 485.77) scale(.1 -.1)">
<use xlink:href="#c"/>
<use x="63.623047" xlink:href="#i"/>
<use x="95.410156" xlink:href="#p"/>
</g>
</g>
<g clip-path="url(#a)">
<defs>
<path id="n" d="m37.797 64.312-24.906-38.922h24.906zm-2.5938 8.5938h12.406v-47.516h10.406v-8.2031h-10.406v-17.188h-9.8125v17.188h-32.906v9.5156z"/>
</defs>
<g transform="translate(723.09 776.25) scale(.1 -.1)">
<use xlink:href="#c"/>
<use x="63.623047" xlink:href="#i"/>
<use x="95.410156" xlink:href="#n"/>
</g>
</g>
<g clip-path="url(#a)">
<defs>
<path id="x" d="m10.797 72.906h38.719v-8.3125h-29.688v-17.859q2.1406 0.73438 4.2812 1.0938 2.1562 0.35938 4.3125 0.35938 12.203 0 19.328-6.6875 7.1406-6.6875 7.1406-18.109 0-11.766-7.3281-18.297-7.3281-6.5156-20.656-6.5156-4.5938 0-9.3594 0.78125-4.75 0.78125-9.8281 2.3438v9.9219q4.3906-2.3906 9.0781-3.5625t9.9062-1.1719q8.4531 0 13.375 4.4375 4.9375 4.4375 4.9375 12.062 0 7.6094-4.9375 12.047-4.9219 4.4531-13.375 4.4531-3.9531 0-7.8906-0.875-3.9219-0.875-8.0156-2.7344z"/>
</defs>
<g transform="translate(836.35 193.18) scale(.1 -.1)">
<use xlink:href="#c"/>
<use x="63.623047" xlink:href="#i"/>
<use x="95.410156" xlink:href="#x"/>
</g>
</g>
<g clip-path="url(#a)">
<g transform="translate(779.86 776.25) scale(.1 -.1)">
<use xlink:href="#c"/>
<use x="63.623047" xlink:href="#i"/>
<use x="95.410156" xlink:href="#w"/>
</g>
</g>
<g clip-path="url(#a)">
<defs>
<path id="ac" d="m31.781 66.406q-7.6094 0-11.453-7.5-3.8281-7.4844-3.8281-22.531 0-14.984 3.8281-22.484 3.8438-7.5 11.453-7.5 7.6719 0 11.5 7.5 3.8438 7.5 3.8438 22.484 0 15.047-3.8438 22.531-3.8281 7.5-11.5 7.5zm0 7.8125q12.266 0 18.734-9.7031 6.4688-9.6875 6.4688-28.141 0-18.406-6.4688-28.109-6.4688-9.6875-18.734-9.6875-12.25 0-18.719 9.6875-6.4688 9.7031-6.4688 28.109 0 18.453 6.4688 28.141 6.4688 9.7031 18.719 9.7031z"/>
</defs>
<g transform="translate(898.9 485.77) scale(.1 -.1)">
<use xlink:href="#c"/>
<use x="63.623047" xlink:href="#i"/>
<use x="95.410156" xlink:href="#c"/>
<use x="159.033203" xlink:href="#ac"/>
</g>
</g>
<g clip-path="url(#a)">
<g transform="translate(1185.6 339.66) scale(.1 -.1)">
<use xlink:href="#c"/>
<use x="63.623047" xlink:href="#i"/>
<use x="95.410156" xlink:href="#c"/>
<use x="159.033203" xlink:href="#c"/>
</g>
</g>
<g clip-path="url(#a)">
<g transform="translate(1096 776.25) scale(.1 -.1)">
<use xlink:href="#c"/>
<use x="63.623047" xlink:href="#i"/>
<use x="95.410156" xlink:href="#c"/>
<use x="159.033203" xlink:href="#o"/>
</g>
</g>
<g clip-path="url(#a)">
<g transform="translate(1498.7 485.77) scale(.1 -.1)">
<use xlink:href="#c"/>
<use x="63.623047" xlink:href="#i"/>
<use x="95.410156" xlink:href="#c"/>
<use x="159.033203" xlink:href="#p"/>
</g>
</g>
<g clip-path="url(#a)">
<g transform="translate(1167 776.25) scale(.1 -.1)">
<use xlink:href="#c"/>
<use x="63.623047" xlink:href="#i"/>
<use x="95.410156" xlink:href="#c"/>
<use x="159.033203" xlink:href="#n"/>
</g>
</g>
<g clip-path="url(#a)">
<g transform="translate(1438.2 631.39) scale(.1 -.1)">
<use xlink:href="#c"/>
<use x="63.623047" xlink:href="#i"/>
<use x="95.410156" xlink:href="#c"/>
<use x="159.033203" xlink:href="#x"/>
</g>
</g>
<g clip-path="url(#a)">
<defs>
<path id="am" d="m33.016 40.375q-6.6406 0-10.531-4.5469-3.875-4.5312-3.875-12.438 0-7.8594 3.875-12.438 3.8906-4.5625 10.531-4.5625t10.516 4.5625q3.875 4.5781 3.875 12.438 0 7.9062-3.875 12.438-3.875 4.5469-10.516 4.5469zm19.578 30.922v-8.9844q-3.7188 1.75-7.5 2.6719-3.7812 0.9375-7.5 0.9375-9.7656 0-14.922-6.5938-5.1406-6.5938-5.875-19.922 2.875 4.25 7.2188 6.5156 4.3594 2.2656 9.5781 2.2656 10.984 0 17.359-6.6719 6.375-6.6562 6.375-18.125 0-11.234-6.6406-18.031-6.6406-6.7812-17.672-6.7812-12.656 0-19.344 9.6875-6.6875 9.7031-6.6875 28.109 0 17.281 8.2031 27.562t22.016 10.281q3.7188 0 7.5-0.73438t7.8906-2.1875z"/>
</defs>
<g transform="translate(1515.9 776.25) scale(.1 -.1)">
<use xlink:href="#c"/>
<use x="63.623047" xlink:href="#i"/>
<use x="95.410156" xlink:href="#c"/>
<use x="159.033203" xlink:href="#am"/>
</g>
</g>
<g clip-path="url(#a)">
<g transform="translate(1642.4 776.25) scale(.1 -.1)">
<use xlink:href="#c"/>
<use x="63.623047" xlink:href="#i"/>
<use x="95.410156" xlink:href="#c"/>
<use x="159.033203" xlink:href="#af"/>
</g>
</g>
<g clip-path="url(#a)">
<defs>
<path id="al" d="m31.781 34.625q-7.0312 0-11.062-3.7656-4.0156-3.7656-4.0156-10.344 0-6.5938 4.0156-10.359 4.0312-3.7656 11.062-3.7656t11.078 3.7812q4.0625 3.7969 4.0625 10.344 0 6.5781-4.0312 10.344-4.0156 3.7656-11.109 3.7656zm-9.8594 4.1875q-6.3438 1.5625-9.8906 5.9062-3.5312 4.3594-3.5312 10.609 0 8.7344 6.2188 13.812 6.2344 5.0781 17.062 5.0781 10.891 0 17.094-5.0781t6.2031-13.812q0-6.25-3.5469-10.609-3.5312-4.3438-9.8281-5.9062 7.125-1.6562 11.094-6.5 3.9844-4.8281 3.9844-11.797 0-10.609-6.4688-16.281-6.4688-5.6562-18.531-5.6562-12.047 0-18.531 5.6562-6.4688 5.6719-6.4688 16.281 0 6.9688 4 11.797 4.0156 4.8438 11.141 6.5zm-3.6094 15.578q0-5.6562 3.5312-8.8281 3.5469-3.1719 9.9375-3.1719 6.3594 0 9.9375 3.1719 3.5938 3.1719 3.5938 8.8281 0 5.6719-3.5938 8.8438-3.5781 3.1719-9.9375 3.1719-6.3906 0-9.9375-3.1719-3.5312-3.1719-3.5312-8.8438z"/>
</defs>
<g transform="translate(1278.2 776.25) scale(.1 -.1)">
<use xlink:href="#c"/>
<use x="63.623047" xlink:href="#i"/>
<use x="95.410156" xlink:href="#c"/>
<use x="159.033203" xlink:href="#al"/>
</g>
</g>
<g clip-path="url(#a)">
<g transform="translate(1394.1 776.25) scale(.1 -.1)">
<use xlink:href="#c"/>
<use x="63.623047" xlink:href="#i"/>
<use x="95.410156" xlink:href="#c"/>
<use x="159.033203" xlink:href="#w"/>
</g>
</g>
<g clip-path="url(#a)">
<g transform="translate(835.82 631.39) scale(.1 -.1)">
<use xlink:href="#c"/>
<use x="63.623047" xlink:href="#i"/>
<use x="95.410156" xlink:href="#o"/>
<use x="159.033203" xlink:href="#ac"/>
</g>
</g>
<g clip-path="url(#a)">
<g transform="translate(961.97 776.25) scale(.1 -.1)">
<use xlink:href="#c"/>
<use x="63.623047" xlink:href="#i"/>
<use x="95.410156" xlink:href="#o"/>
<use x="159.033203" xlink:href="#c"/>
</g>
</g>
<g clip-path="url(#a)">
<g transform="translate(835.82 776.25) scale(.1 -.1)">
<use xlink:href="#c"/>
<use x="63.623047" xlink:href="#i"/>
<use x="95.410156" xlink:href="#o"/>
<use x="159.033203" xlink:href="#o"/>
</g>
</g>
<g clip-path="url(#a)">
<g transform="translate(471.54 776.25) scale(.1 -.1)">
<use xlink:href="#c"/>
<use x="63.623047" xlink:href="#i"/>
<use x="95.410156" xlink:href="#o"/>
<use x="159.033203" xlink:href="#p"/>
</g>
</g>
<g clip-path="url(#a)">
<g transform="translate(516.48 776.25) scale(.1 -.1)">
<use xlink:href="#c"/>
<use x="63.623047" xlink:href="#i"/>
<use x="95.410156" xlink:href="#o"/>
<use x="159.033203" xlink:href="#n"/>
</g>
</g>
<g clip-path="url(#a)">
<g transform="translate(563.79 776.25) scale(.1 -.1)">
<use xlink:href="#c"/>
<use x="63.623047" xlink:href="#i"/>
<use x="95.410156" xlink:href="#o"/>
<use x="159.033203" xlink:href="#x"/>
</g>
</g>
<g clip-path="url(#a)">
<g transform="translate(639.48 631.39) scale(.1 -.1)">
<use xlink:href="#c"/>
<use x="63.623047" xlink:href="#i"/>
<use x="95.410156" xlink:href="#o"/>
<use x="159.033203" xlink:href="#am"/>
</g>
</g>
<g clip-path="url(#a)">
<g transform="translate(613.46 776.25) scale(.1 -.1)">
<use xlink:href="#c"/>
<use x="63.623047" xlink:href="#i"/>
<use x="95.410156" xlink:href="#o"/>
<use x="159.033203" xlink:href="#af"/>
</g>
</g>
<g clip-path="url(#a)">
<g transform="translate(665.5 776.25) scale(.1 -.1)">
<use xlink:href="#c"/>
<use x="63.623047" xlink:href="#i"/>
<use x="95.410156" xlink:href="#o"/>
<use x="159.033203" xlink:href="#al"/>
</g>
</g>
<g clip-path="url(#a)">
<g transform="translate(71.776 776.25) scale(.1 -.1)">
<use xlink:href="#c"/>
<use x="63.623047" xlink:href="#i"/>
<use x="95.410156" xlink:href="#o"/>
<use x="159.033203" xlink:href="#w"/>
</g>
</g>
<g clip-path="url(#a)">
<g transform="translate(78.873 776.25) scale(.1 -.1)">
<use xlink:href="#c"/>
<use x="63.623047" xlink:href="#i"/>
<use x="95.410156" xlink:href="#p"/>
<use x="159.033203" xlink:href="#ac"/>
</g>
</g>
<g clip-path="url(#a)">
<g transform="translate(88.334 776.25) scale(.1 -.1)">
<use xlink:href="#c"/>
<use x="63.623047" xlink:href="#i"/>
<use x="95.410156" xlink:href="#p"/>
<use x="159.033203" xlink:href="#c"/>
</g>
</g>
<g clip-path="url(#a)">
<g transform="translate(229.99 339.66) scale(.1 -.1)">
<use xlink:href="#c"/>
<use x="63.623047" xlink:href="#i"/>
<use x="95.410156" xlink:href="#p"/>
<use x="159.033203" xlink:href="#o"/>
</g>
</g>
<g clip-path="url(#a)">
<g transform="translate(137.22 485.77) scale(.1 -.1)">
<use xlink:href="#c"/>
<use x="63.623047" xlink:href="#i"/>
<use x="95.410156" xlink:href="#p"/>
<use x="159.033203" xlink:href="#p"/>
</g>
</g>
<g clip-path="url(#a)">
<g transform="translate(236.18 776.25) scale(.1 -.1)">
<use xlink:href="#c"/>
<use x="63.623047" xlink:href="#i"/>
<use x="95.410156" xlink:href="#p"/>
<use x="159.033203" xlink:href="#n"/>
</g>
</g>
<g clip-path="url(#a)">
<g transform="translate(292.35 631.39) scale(.1 -.1)">
<use xlink:href="#c"/>
<use x="63.623047" xlink:href="#i"/>
<use x="95.410156" xlink:href="#p"/>
<use x="159.033203" xlink:href="#x"/>
</g>
</g>
<g clip-path="url(#a)">
<g transform="translate(348.53 776.25) scale(.1 -.1)">
<use xlink:href="#c"/>
<use x="63.623047" xlink:href="#i"/>
<use x="95.410156" xlink:href="#p"/>
<use x="159.033203" xlink:href="#w"/>
</g>
</g>
<g clip-path="url(#a)">
<g transform="translate(121.45 631.39) scale(.1 -.1)">
<use xlink:href="#c"/>
<use x="63.623047" xlink:href="#i"/>
<use x="95.410156" xlink:href="#n"/>
<use x="159.033203" xlink:href="#ac"/>
</g>
</g>
<g clip-path="url(#a)">
<g transform="translate(140.37 631.39) scale(.1 -.1)">
<use xlink:href="#c"/>
<use x="63.623047" xlink:href="#i"/>
<use x="95.410156" xlink:href="#n"/>
<use x="159.033203" xlink:href="#c"/>
</g>
</g>
<g clip-path="url(#a)">
<g transform="translate(149.84 776.25) scale(.1 -.1)">
<use xlink:href="#c"/>
<use x="63.623047" xlink:href="#i"/>
<use x="95.410156" xlink:href="#n"/>
<use x="159.033203" xlink:href="#o"/>
</g>
</g>
<g clip-path="url(#a)">
<g transform="translate(130.91 776.25) scale(.1 -.1)">
<use xlink:href="#c"/>
<use x="63.623047" xlink:href="#i"/>
<use x="95.410156" xlink:href="#n"/>
<use x="159.033203" xlink:href="#p"/>
</g>
</g>
<g clip-path="url(#a)">
<g transform="translate(100.16 776.25) scale(.1 -.1)">
<use xlink:href="#c"/>
<use x="63.623047" xlink:href="#i"/>
<use x="95.410156" xlink:href="#n"/>
<use x="159.033203" xlink:href="#n"/>
</g>
</g>
<g clip-path="url(#a)">
<g transform="translate(114.35 776.25) scale(.1 -.1)">
<use xlink:href="#c"/>
<use x="63.623047" xlink:href="#i"/>
<use x="95.410156" xlink:href="#n"/>
<use x="159.033203" xlink:href="#x"/>
</g>
</g>
<g clip-path="url(#a)">
<g transform="translate(171.13 776.25) scale(.1 -.1)">
<use xlink:href="#c"/>
<use x="63.623047" xlink:href="#i"/>
<use x="95.410156" xlink:href="#n"/>
<use x="159.033203" xlink:href="#am"/>
</g>
</g>
<g clip-path="url(#a)">
<g transform="translate(313.05 776.25) scale(.1 -.1)">
<use xlink:href="#c"/>
<use x="63.623047" xlink:href="#i"/>
<use x="95.410156" xlink:href="#n"/>
<use x="159.033203" xlink:href="#af"/>
</g>
</g>
<g clip-path="url(#a)">
<g transform="translate(388.75 776.25) scale(.1 -.1)">
<use xlink:href="#c"/>
<use x="63.623047" xlink:href="#i"/>
<use x="95.410156" xlink:href="#n"/>
<use x="159.033203" xlink:href="#al"/>
</g>
</g>
<g clip-path="url(#a)">
<g transform="translate(428.96 776.25) scale(.1 -.1)">
<use xlink:href="#c"/>
<use x="63.623047" xlink:href="#i"/>
<use x="95.410156" xlink:href="#n"/>
<use x="159.033203" xlink:href="#w"/>
</g>
</g>
<g clip-path="url(#a)">
<g transform="translate(1730 776.25) scale(.1 -.1)">
<use xlink:href="#c"/>
<use x="63.623047" xlink:href="#i"/>
<use x="95.410156" xlink:href="#x"/>
<use x="159.033203" xlink:href="#ac"/>
</g>
</g>
<defs>
<clipPath id="a">
<rect width="1824" height="960"/>
</clipPath>
</defs>
</svg>
