<?xml version="1.0" encoding="UTF-8"?>
<!DOCTYPE svg  PUBLIC '-//W3C//DTD SVG 1.1//EN'  'http://www.w3.org/Graphics/SVG/1.1/DTD/svg11.dtd'>
<svg width="2128pt" height="1120pt" version="1.1" viewBox="0 0 2128 1120" xmlns="http://www.w3.org/2000/svg" xmlns:xlink="http://www.w3.org/1999/xlink">
<defs>
<style type="text/css">*{stroke-linecap:butt;stroke-linejoin:round;}</style>
</defs>
<path d="m0 1120h2128v-1120h-2128z" fill="#fff"/>
<g fill="none" stroke="#000">
<path d="m243.34 50.909v114.2" clip-path="url(#a)"/>
<path d="m243.34 165.11-146.61 793.31" clip-path="url(#a)"/>
<path d="m243.34 165.11-140.46 793.31" clip-path="url(#a)"/>
<path d="m243.34 165.11-132.25 793.31" clip-path="url(#a)"/>
<path d="m243.34 165.11-92.362 568.3" clip-path="url(#a)"/>
<path d="m243.34 165.11 21.609 681.1" clip-path="url(#a)"/>
<path d="m243.34 165.11 145.04 681.1" clip-path="url(#a)"/>
<path d="m243.34 165.11 384.97 114.05" clip-path="url(#a)"/>
<path d="m243.34 165.11-39.935 793.31" clip-path="url(#a)"/>
<path d="m96.727 958.42v110.67" clip-path="url(#a)"/>
<path d="m102.88 958.42v110.67" clip-path="url(#a)"/>
<path d="m111.09 958.42v110.67" clip-path="url(#a)"/>
<path d="m150.98 733.41-29.632 225.01" clip-path="url(#a)"/>
<path d="m150.98 733.41-2.2794 112.8" clip-path="url(#a)"/>
<path d="m150.98 733.41 31.912 225.01" clip-path="url(#a)"/>
<path d="m264.95 846.21-38.978 112.21" clip-path="url(#a)"/>
<path d="m264.95 846.21-14.36 112.21" clip-path="url(#a)"/>
<path d="m264.95 846.21 12.309 112.21" clip-path="url(#a)"/>
<path d="m264.95 846.21 41.03 112.21" clip-path="url(#a)"/>
<path d="m388.38 846.21-51.629 112.21" clip-path="url(#a)"/>
<path d="m388.38 846.21-1.3677 112.21" clip-path="url(#a)"/>
<path d="m388.38 846.21 52.997 112.21" clip-path="url(#a)"/>
<path d="m628.31 279.16-147.96 679.26" clip-path="url(#a)"/>
<path d="m628.31 279.16 147.96 113.89" clip-path="url(#a)"/>
<path d="m480.35 958.42v110.67" clip-path="url(#a)"/>
<path d="m776.27 393.05-215.68 340.36" clip-path="url(#a)"/>
<path d="m776.27 393.05-18.965 565.37" clip-path="url(#a)"/>
<path d="m776.27 393.05 304.9 113.7" clip-path="url(#a)"/>
<path d="m776.27 393.05-70.252 565.37" clip-path="url(#a)"/>
<path d="m560.59 733.41-39.206 225.01" clip-path="url(#a)"/>
<path d="m560.59 733.41 35.331 112.8" clip-path="url(#a)"/>
<path d="m560.59 733.41 3.875 225.01" clip-path="url(#a)"/>
<path d="m757.3 958.42v110.67" clip-path="url(#a)"/>
<path d="m1081.2 506.75-242.83 451.67" clip-path="url(#a)"/>
<path d="m1081.2 506.75-35.97 339.46" clip-path="url(#a)"/>
<path d="m1081.2 506.75 436.49 113.47" clip-path="url(#a)"/>
<path d="m1081.2 506.75-157.69 451.67" clip-path="url(#a)"/>
<path d="m838.34 958.42-27.695 110.67" clip-path="url(#a)"/>
<path d="m838.34 958.42 27.695 110.67" clip-path="url(#a)"/>
<path d="m1045.2 846.21-62.228 112.21" clip-path="url(#a)"/>
<path d="m1045.2 846.21-0.68383 112.21" clip-path="url(#a)"/>
<path d="m1045.2 846.21 62.912 112.21" clip-path="url(#a)"/>
<path d="m1517.7 620.22-376.47 225.99" clip-path="url(#a)"/>
<path d="m1517.7 620.22-21.816 225.99" clip-path="url(#a)"/>
<path d="m1517.7 620.22 398.28 113.18" clip-path="url(#a)"/>
<path d="m1141.2 846.21-302.85 112.21" clip-path="url(#a)" stroke-dasharray="3.7,1.6"/>
<path d="m1141.2 846.21 32.567 112.21" clip-path="url(#a)"/>
<path d="m1141.2 846.21 100.27 112.21" clip-path="url(#a)"/>
<path d="m1141.2 846.21 170.02 112.21" clip-path="url(#a)"/>
<path d="m1495.8 846.21-112.83 112.21" clip-path="url(#a)"/>
<path d="m1495.8 846.21-38.978 112.21" clip-path="url(#a)"/>
<path d="m1495.8 846.21 36.927 112.21" clip-path="url(#a)"/>
<path d="m1495.8 846.21 114.88 112.21" clip-path="url(#a)"/>
<path d="m1915.9 733.41-142.46 112.8" clip-path="url(#a)"/>
<path d="m1915.9 733.41 27.125 225.01" clip-path="url(#a)"/>
<path d="m1915.9 733.41 115.34 225.01" clip-path="url(#a)"/>
<path d="m1773.5 846.21-82.743 112.21" clip-path="url(#a)"/>
<path d="m1773.5 846.21-0.68383 112.21" clip-path="url(#a)"/>
<path d="m1773.5 846.21 83.427 112.21" clip-path="url(#a)"/>
<path d="m1943.1 958.42v110.67" clip-path="url(#a)"/>
<path d="m1690.7 958.42v110.67" clip-path="url(#a)"/>
<path d="m1772.8 958.42v110.67" clip-path="url(#a)"/>
<path d="m1856.9 958.42v110.67" clip-path="url(#a)"/>
<path d="m1383 958.42v110.67" clip-path="url(#a)"/>
<path d="m1456.9 958.42v110.67" clip-path="url(#a)"/>
<path d="m1532.8 958.42v110.67" clip-path="url(#a)"/>
<path d="m1610.7 958.42v110.67" clip-path="url(#a)"/>
<path d="m1173.8 958.42v110.67" clip-path="url(#a)"/>
<path d="m1241.5 958.42v110.67" clip-path="url(#a)"/>
<path d="m1311.2 958.42v110.67" clip-path="url(#a)"/>
<path d="m982.97 958.42v110.67" clip-path="url(#a)"/>
<path d="m1044.5 958.42v110.67" clip-path="url(#a)"/>
<path d="m1108.1 958.42v110.67" clip-path="url(#a)"/>
<path d="m521.38 958.42v110.67" clip-path="url(#a)"/>
<path d="m595.92 846.21-74.537 112.21" clip-path="url(#a)" stroke-dasharray="3.7,1.6"/>
<path d="m595.92 846.21 13.677 112.21" clip-path="url(#a)"/>
<path d="m595.92 846.21 60.861 112.21" clip-path="url(#a)"/>
<path d="m609.6 958.42v110.67" clip-path="url(#a)"/>
<path d="m656.78 958.42v110.67" clip-path="url(#a)"/>
<path d="m336.75 958.42v110.67" clip-path="url(#a)"/>
<path d="m387.01 958.42-17.438 110.67" clip-path="url(#a)"/>
<path d="m387.01 958.42 17.438 110.67" clip-path="url(#a)"/>
<path d="m441.38 958.42v110.67" clip-path="url(#a)"/>
<path d="m225.97 958.42v110.67" clip-path="url(#a)"/>
<path d="m250.59 958.42v110.67" clip-path="url(#a)"/>
<path d="m277.26 958.42v110.67" clip-path="url(#a)"/>
<path d="m305.98 958.42v110.67" clip-path="url(#a)"/>
<path d="m121.35 958.42v110.67" clip-path="url(#a)"/>
<path d="m148.7 846.21-15.044 112.21" clip-path="url(#a)"/>
<path d="m148.7 846.21 15.728 112.21" clip-path="url(#a)"/>
<path d="m148.7 846.21-0.68383 112.21" clip-path="url(#a)"/>
<path d="m182.89 958.42v110.67" clip-path="url(#a)"/>
<path d="m133.65 958.42v110.67" clip-path="url(#a)"/>
<path d="m164.43 958.42v110.67" clip-path="url(#a)"/>
<path d="m148.01 958.42v110.67" clip-path="url(#a)"/>
<path d="m203.4 958.42v110.67" clip-path="url(#a)"/>
<path d="m564.46 958.42v110.67" clip-path="url(#a)"/>
<path d="m706.02 958.42v110.67" clip-path="url(#a)"/>
<path d="m923.47 958.42v110.67" clip-path="url(#a)"/>
<path d="m2031.3 958.42v110.67" clip-path="url(#a)"/>
</g>
<path d="m237.07 105v6.0162q0 2.4 2.4 2.4h7.7425q2.4 0 2.4-2.4v-6.0162q0-2.4-2.4-2.4h-7.7425q-2.4 0-2.4 2.4z" clip-path="url(#a)" fill="#fff" stroke="#fff"/>
<g clip-path="url(#a)">
<defs>
<path id="ah" d="m9.8125 72.906h9.8594v-29.891h35.844v29.891h9.8594v-72.906h-9.8594v34.719h-35.844v-34.719h-9.8594z"/>
</defs>
<g transform="translate(241.13 105) rotate(90) scale(.08 -.08)">
<use xlink:href="#ah"/>
</g>
</g>
<path d="m175.7 565.59 0.99453-5.3814q0.43616-2.36-1.9239-2.7962l-7.6136-1.4071q-2.36-0.43616-2.7962 1.9239l-0.99453 5.3814q-0.43616 2.36 1.9239 2.7962l7.6136 1.4071q2.36 0.43616 2.7962-1.9239z" clip-path="url(#a)" fill="#fff" stroke="#fff"/>
<g clip-path="url(#a)">
<defs>
<path id="q" d="m34.188 63.188-13.391-36.281h26.812zm-5.5781 9.7188h11.188l27.781-72.906h-10.25l-6.6406 18.703h-32.859l-6.6406-18.703h-10.406z"/>
</defs>
<g transform="translate(171.71 564.85) rotate(-79.529) scale(.08 -.08)">
<use xlink:href="#q"/>
</g>
</g>
<path d="m178.88 565.12 0.80219-4.5308q0.41842-2.3632-1.9448-2.7817l-7.6239-1.3498q-2.3632-0.41842-2.7817 1.9448l-0.80219 4.5308q-0.41842 2.3632 1.9448 2.7817l7.6239 1.3498q2.3632 0.41842 2.7817-1.9448z" clip-path="url(#a)" fill="#fff" stroke="#fff"/>
<g clip-path="url(#a)">
<defs>
<path id="ak" d="m9.8125 72.906h41.891v-8.3125h-32.031v-21.484h28.906v-8.2969h-28.906v-34.812h-9.8594z"/>
</defs>
<g transform="translate(174.88 564.41) rotate(-79.96) scale(.08 -.08)">
<use xlink:href="#ak"/>
</g>
</g>
<path d="m183 565.17 0.79321-4.7581q0.39466-2.3673-1.9727-2.762l-7.6371-1.2732q-2.3673-0.39465-2.762 1.9727l-0.79321 4.7581q-0.39466 2.3673 1.9727 2.762l7.6371 1.2732q2.3673 0.39466 2.762-1.9727z" clip-path="url(#a)" fill="#fff" stroke="#fff"/>
<g clip-path="url(#a)">
<defs>
<path id="aj" d="m19.672 64.797v-27.391h12.406q6.8906 0 10.641 3.5625 3.7656 3.5625 3.7656 10.156 0 6.5469-3.7656 10.109-3.75 3.5625-10.641 3.5625zm-9.8594 8.1094h22.266q12.266 0 18.531-5.5469 6.2812-5.5469 6.2812-16.234 0-10.797-6.2812-16.312-6.2656-5.5156-18.531-5.5156h-12.406v-29.297h-9.8594z"/>
</defs>
<g transform="translate(178.99 564.5) rotate(-80.535) scale(.08 -.08)">
<use xlink:href="#aj"/>
</g>
</g>
<path d="m202.91 452.96 0.87789-5.4016q0.38501-2.3689-1.9839-2.7539l-7.6422-1.242q-2.3689-0.385-2.7539 1.9839l-0.87789 5.4016q-0.385 2.3689 1.9839 2.7539l7.6422 1.242q2.3689 0.385 2.7539-1.9839z" clip-path="url(#a)" fill="#fff" stroke="#fff"/>
<g clip-path="url(#a)">
<g transform="translate(198.9 452.31) rotate(-80.769) scale(.08 -.08)">
<use xlink:href="#q"/>
</g>
</g>
<path d="m247.8 503.41 0.15495 4.8838q0.076105 2.3988 2.4749 2.3227l7.7386-0.24552q2.3988-0.076106 2.3227-2.4749l-0.15495-4.8838q-0.076105-2.3988-2.4749-2.3227l-7.7386 0.24552q-2.3988 0.076105-2.3227 2.4749z" clip-path="url(#a)" fill="#fff" stroke="#fff"/>
<g clip-path="url(#a)">
<defs>
<path id="l" d="m-0.29688 72.906h61.672v-8.3125h-25.875v-64.594h-9.9062v64.594h-25.891z"/>
</defs>
<g transform="translate(251.86 503.28) rotate(88.183) scale(.08 -.08)">
<use xlink:href="#l"/>
</g>
</g>
<path d="m309.16 504.29 1.1398 5.3525q0.49987 2.3474 2.8472 1.8475l7.5727-1.6126q2.3474-0.49987 1.8475-2.8472l-1.1398-5.3525q-0.49987-2.3474-2.8472-1.8475l-7.5727 1.6126q-2.3474 0.49987-1.8475 2.8472z" clip-path="url(#a)" fill="#fff" stroke="#fff"/>
<g clip-path="url(#a)">
<g transform="translate(313.13 503.44) rotate(77.978) scale(.08 -.08)">
<use xlink:href="#q"/>
</g>
</g>
<path d="m431.42 227.37 5.2471 1.5545q2.3011 0.68175 2.9829-1.6194l2.1993-7.4236q0.68175-2.3011-1.6194-2.9829l-5.2471-1.5545q-2.3011-0.68175-2.9829 1.6194l-2.1993 7.4236q-0.68175 2.3011 1.6194 2.9829z" clip-path="url(#a)" fill="#fff" stroke="#fff"/>
<g clip-path="url(#a)">
<g transform="translate(432.57 223.47) rotate(16.503) scale(.08 -.08)">
<use xlink:href="#q"/>
</g>
</g>
<path d="m229.49 565 0.29437-5.8476q0.12066-2.397-2.2763-2.5176l-7.7327-0.38927q-2.397-0.12066-2.5176 2.2763l-0.29437 5.8476q-0.12066 2.397 2.2763 2.5176l7.7327 0.38927q2.397 0.12066 2.5176-2.2763z" clip-path="url(#a)" fill="#fff" stroke="#fff"/>
<g clip-path="url(#a)">
<defs>
<path id="aa" d="m8.6875 72.906h9.9219v-44.297q0-11.719 4.2344-16.875 4.25-5.1406 13.781-5.1406 9.4688 0 13.719 5.1406 4.25 5.1562 4.25 16.875v44.297h9.9062v-45.516q0-14.25-7.0625-21.531-7.0469-7.2812-20.812-7.2812-13.828 0-20.891 7.2812-7.0469 7.2812-7.0469 21.531z"/>
</defs>
<g transform="translate(225.43 564.8) rotate(-87.118) scale(.08 -.08)">
<use xlink:href="#aa"/>
</g>
</g>
<path d="m90.456 996.85v33.808q0 2.4 2.4 2.4h7.7425q2.4 0 2.4-2.4v-33.808q0-2.4-2.4-2.4h-7.7425q-2.4 0-2.4 2.4z" clip-path="url(#a)" fill="#fff" stroke="#fff"/>
<g clip-path="url(#a)">
<defs>
<path id="g" d="m56.203 29.594v-4.3906h-41.312q0.59375-9.2812 5.5938-14.141t13.938-4.8594q5.1719 0 10.031 1.2656t9.6562 3.8125v-8.5q-4.8438-2.0469-9.9219-3.125t-10.297-1.0781q-13.094 0-20.734 7.6094-7.6406 7.625-7.6406 20.625 0 13.422 7.25 21.297 7.25 7.8906 19.562 7.8906 11.031 0 17.453-7.1094 6.4219-7.0938 6.4219-19.297zm-8.9844 2.6406q-0.09375 7.3594-4.125 11.75-4.0312 4.4062-10.672 4.4062-7.5156 0-12.031-4.25t-5.2031-11.969z"/>
<path id="i" d="m41.109 46.297q-1.5156 0.875-3.2969 1.2812-1.7812 0.42188-3.9219 0.42188-7.625 0-11.703-4.9531t-4.0781-14.234v-28.812h-9.0312v54.688h9.0312v-8.5q2.8438 4.9844 7.375 7.3906 4.5469 2.4219 11.047 2.4219 0.92188 0 2.0469-0.125 1.125-0.10938 2.4844-0.35938z"/>
<path id="k" d="m52 44.188q3.375 6.0625 8.0625 8.9375t11.031 2.875q8.5469 0 13.188-5.9844 4.6406-5.9688 4.6406-17v-33.016h-9.0312v32.719q0 7.8594-2.7969 11.656-2.7812 3.8125-8.4844 3.8125-6.9844 0-11.047-4.6406-4.0469-4.625-4.0469-12.641v-30.906h-9.0312v32.719q0 7.9062-2.7812 11.688t-8.5938 3.7812q-6.8906 0-10.953-4.6562-4.0469-4.6562-4.0469-12.625v-30.906h-9.0312v54.688h9.0312v-8.5q3.0781 5.0312 7.375 7.4219t10.203 2.3906q5.9688 0 10.141-3.0312 4.1719-3.0156 6.1719-8.7812z"/>
<path id="h" d="m9.4219 54.688h8.9844v-54.688h-8.9844zm0 21.297h8.9844v-11.391h-8.9844z"/>
<path id="d" d="m54.891 33.016v-33.016h-8.9844v32.719q0 7.7656-3.0312 11.609-3.0312 3.8594-9.0781 3.8594-7.2812 0-11.484-4.6406-4.2031-4.625-4.2031-12.641v-30.906h-9.0312v54.688h9.0312v-8.5q3.2344 4.9375 7.5938 7.375 4.375 2.4375 10.094 2.4375 9.4219 0 14.25-5.8281 4.8438-5.8281 4.8438-17.156z"/>
<path id="e" d="m34.281 27.484q-10.891 0-15.094-2.4844t-4.2031-8.5q0-4.7812 3.1562-7.5938 3.1562-2.7969 8.5625-2.7969 7.4844 0 12 5.2969t4.5156 14.078v2zm17.922 3.7188v-31.203h-8.9844v8.2969q-3.0781-4.9688-7.6719-7.3438t-11.234-2.375q-8.3906 0-13.359 4.7188-4.9531 4.7188-4.9531 12.625 0 9.2188 6.1719 13.906 6.1875 4.6875 18.438 4.6875h12.609v0.89062q0 6.2031-4.0781 9.5938t-11.453 3.3906q-4.6875 0-9.1406-1.125-4.4375-1.125-8.5312-3.375v8.3125q4.9219 1.9062 9.5625 2.8438 4.6406 0.95312 9.0312 0.95312 11.875 0 17.734-6.1562 5.8594-6.1406 5.8594-18.641z"/>
<path id="j" d="m9.4219 75.984h8.9844v-75.984h-8.9844z"/>
</defs>
<g transform="translate(94.52 996.85) rotate(90) scale(.08 -.08)">
<use xlink:href="#l"/>
<use x="44.083984" xlink:href="#g"/>
<use x="105.607422" xlink:href="#i"/>
<use x="144.970703" xlink:href="#k"/>
<use x="242.382812" xlink:href="#h"/>
<use x="270.166016" xlink:href="#d"/>
<use x="333.544922" xlink:href="#e"/>
<use x="394.824219" xlink:href="#j"/>
</g>
</g>
<path d="m96.61 996.85v33.808q0 2.4 2.4 2.4h7.7425q2.4 0 2.4-2.4v-33.808q0-2.4-2.4-2.4h-7.7425q-2.4 0-2.4 2.4z" clip-path="url(#a)" fill="#fff" stroke="#fff"/>
<g clip-path="url(#a)">
<g transform="translate(100.67 996.85) rotate(90) scale(.08 -.08)">
<use xlink:href="#l"/>
<use x="44.083984" xlink:href="#g"/>
<use x="105.607422" xlink:href="#i"/>
<use x="144.970703" xlink:href="#k"/>
<use x="242.382812" xlink:href="#h"/>
<use x="270.166016" xlink:href="#d"/>
<use x="333.544922" xlink:href="#e"/>
<use x="394.824219" xlink:href="#j"/>
</g>
</g>
<path d="m104.82 996.85v33.808q0 2.4 2.4 2.4h7.7425q2.4 0 2.4-2.4v-33.808q0-2.4-2.4-2.4h-7.7425q-2.4 0-2.4 2.4z" clip-path="url(#a)" fill="#fff" stroke="#fff"/>
<g clip-path="url(#a)">
<g transform="translate(108.88 996.85) rotate(90) scale(.08 -.08)">
<use xlink:href="#l"/>
<use x="44.083984" xlink:href="#g"/>
<use x="105.607422" xlink:href="#i"/>
<use x="144.970703" xlink:href="#k"/>
<use x="242.382812" xlink:href="#h"/>
<use x="270.166016" xlink:href="#d"/>
<use x="333.544922" xlink:href="#e"/>
<use x="394.824219" xlink:href="#j"/>
</g>
</g>
<path d="m142.02 849.49 0.72578-5.5112q0.31336-2.3795-2.0661-2.6928l-7.6762-1.0109q-2.3795-0.31336-2.6928 2.0661l-0.72578 5.5112q-0.31336 2.3795 2.0661 2.6928l7.6762 1.0109q2.3795 0.31336 2.6928-2.0661z" clip-path="url(#a)" fill="#fff" stroke="#fff"/>
<g clip-path="url(#a)">
<defs>
<path id="v" d="m44.391 34.188q3.1719-1.0781 6.1719-4.5938t6.0312-9.6719l10.016-19.922h-10.609l-9.3125 18.703q-3.625 7.3281-7.0156 9.7188t-9.25 2.3906h-10.75v-30.812h-9.8594v72.906h22.266q12.5 0 18.656-5.2344 6.1562-5.2188 6.1562-15.766 0-6.8906-3.2031-11.438-3.2031-4.5312-9.2969-6.2812zm-24.719 30.609v-25.875h12.406q7.125 0 10.766 3.2969t3.6406 9.6875-3.6406 9.6406-10.766 3.25z"/>
</defs>
<g transform="translate(137.99 848.96) rotate(-82.498) scale(.08 -.08)">
<use xlink:href="#v"/>
</g>
</g>
<path d="m156.06 792.46 0.10213-5.054q0.048489-2.3995-2.351-2.448l-7.7409-0.15642q-2.3995-0.048488-2.448 2.351l-0.10213 5.054q-0.048488 2.3995 2.351 2.448l7.7409 0.15642q2.3995 0.048488 2.448-2.351z" clip-path="url(#a)" fill="#fff" stroke="#fff"/>
<g clip-path="url(#a)">
<defs>
<path id="w" d="m9.8125 72.906h46.094v-8.3125h-36.234v-21.578h34.719v-8.2969h-34.719v-26.422h37.109v-8.2969h-46.969z"/>
</defs>
<g transform="translate(151.99 792.38) rotate(-88.842) scale(.08 -.08)">
<use xlink:href="#w"/>
</g>
</g>
<path d="m160.33 844.03 0.78441 5.5309q0.337 2.3762 2.7132 2.0392l7.6658-1.0872q2.3762-0.337 2.0392-2.7132l-0.78441-5.5309q-0.337-2.3762-2.7132-2.0392l-7.6658 1.0872q-2.3762 0.337-2.0392 2.7132z" clip-path="url(#a)" fill="#fff" stroke="#fff"/>
<g clip-path="url(#a)">
<defs>
<path id="s" d="m64.406 67.281v-10.391q-4.9844 4.6406-10.625 6.9219-5.6406 2.2969-11.984 2.2969-12.5 0-19.141-7.6406t-6.6406-22.094q0-14.406 6.6406-22.047t19.141-7.6406q6.3438 0 11.984 2.2969t10.625 6.9375v-10.312q-5.1719-3.5156-10.969-5.2812-5.7812-1.75-12.219-1.75-16.562 0-26.094 10.125-9.5156 10.141-9.5156 27.672 0 17.578 9.5156 27.703 9.5312 10.141 26.094 10.141 6.5312 0 12.312-1.7344 5.7969-1.7344 10.875-5.2031z"/>
</defs>
<g transform="translate(164.36 843.46) rotate(81.928) scale(.08 -.08)">
<use xlink:href="#s"/>
</g>
</g>
<path d="m250.47 907 1.824-5.251q0.78751-2.2671-1.4796-3.0546l-7.3138-2.5405q-2.2671-0.78751-3.0546 1.4796l-1.824 5.251q-0.78751 2.2671 1.4796 3.0546l7.3138 2.5405q2.2671 0.78751 3.0546-1.4796z" clip-path="url(#a)" fill="#fff" stroke="#fff"/>
<g clip-path="url(#a)">
<g transform="translate(246.63 905.66) rotate(-70.845) scale(.08 -.08)">
<use xlink:href="#v"/>
</g>
</g>
<path d="m263.63 905.88 0.70912-5.5411q0.30466-2.3806-2.0759-2.6852l-7.6799-0.98283q-2.3806-0.30466-2.6852 2.0759l-0.70912 5.5411q-0.30466 2.3806 2.0759 2.6852l7.6799 0.98283q2.3806 0.30466 2.6852-2.0759z" clip-path="url(#a)" fill="#fff" stroke="#fff"/>
<g clip-path="url(#a)">
<g transform="translate(259.6 905.36) rotate(-82.707) scale(.08 -.08)">
<use xlink:href="#s"/>
</g>
</g>
<path d="m264.56 900.22 0.60912 5.5529q0.26169 2.3857 2.6474 2.124l7.6963-0.84423q2.3857-0.26169 2.124-2.6474l-0.60912-5.5529q-0.26169-2.3857-2.6474-2.124l-7.6963 0.84423q-2.3857 0.26169-2.124 2.6474z" clip-path="url(#a)" fill="#fff" stroke="#fff"/>
<g clip-path="url(#a)">
<g transform="translate(268.6 899.78) rotate(83.74) scale(.08 -.08)">
<use xlink:href="#s"/>
</g>
</g>
<path d="m278.61 901.84 1.9184 5.2465q0.82418 2.254 3.0782 1.4299l7.2717-2.6588q2.254-0.82418 1.4299-3.0782l-1.9184-5.2465q-0.82418-2.254-3.0782-1.4299l-7.2717 2.6588q-2.254 0.82418-1.4299 3.0782z" clip-path="url(#a)" fill="#fff" stroke="#fff"/>
<g clip-path="url(#a)">
<g transform="translate(282.43 900.45) rotate(69.915) scale(.08 -.08)">
<use xlink:href="#s"/>
</g>
</g>
<path d="m367.1 907.46 2.3235-5.0499q1.0032-2.1803-1.1771-3.1834l-7.0337-3.2362q-2.1803-1.0032-3.1834 1.1771l-2.3235 5.0499q-1.0032 2.1803 1.1771 3.1834l7.0337 3.2362q2.1803 1.0032 3.1834-1.1771z" clip-path="url(#a)" fill="#fff" stroke="#fff"/>
<g clip-path="url(#a)">
<g transform="translate(363.41 905.76) rotate(-65.293) scale(.08 -.08)">
<use xlink:href="#v"/>
</g>
</g>
<path d="m393.94 904.92 0.061606-5.0546q0.029249-2.3998-2.3706-2.4291l-7.7419-0.094359q-2.3998-0.029249-2.4291 2.3706l-0.061606 5.0546q-0.029249 2.3998 2.3706 2.4291l7.7419 0.09436q2.3998 0.029249 2.4291-2.3706z" clip-path="url(#a)" fill="#fff" stroke="#fff"/>
<g clip-path="url(#a)">
<g transform="translate(389.87 904.87) rotate(-89.302) scale(.08 -.08)">
<use xlink:href="#w"/>
</g>
</g>
<path d="m408.01 902.46 2.3856 5.0512q1.0249 2.1701 3.1951 1.1452l7.001-3.3065q2.1701-1.0249 1.1452-3.1951l-2.3856-5.0512q-1.0249-2.1701-3.1951-1.1452l-7.001 3.3065q-2.1701 1.0249-1.1452 3.1951z" clip-path="url(#a)" fill="#fff" stroke="#fff"/>
<g clip-path="url(#a)">
<g transform="translate(411.69 900.73) rotate(64.719) scale(.08 -.08)">
<use xlink:href="#s"/>
</g>
</g>
<path d="m559.87 622.84 1.1831-5.4314q0.5108-2.345-1.8342-2.8558l-7.5651-1.6478q-2.345-0.5108-2.8558 1.8342l-1.1831 5.4314q-0.5108 2.345 1.8342 2.8558l7.5651 1.6478q2.345 0.5108 2.8558-1.8342z" clip-path="url(#a)" fill="#fff" stroke="#fff"/>
<g clip-path="url(#a)">
<g transform="translate(555.9 621.97) rotate(-77.712) scale(.08 -.08)">
<use xlink:href="#v"/>
</g>
</g>
<path d="m696.25 339.37 4.4267 3.4074q1.9018 1.4639 3.3657-0.43789l4.7227-6.1353q1.4639-1.9018-0.43789-3.3657l-4.4267-3.4074q-1.9018-1.4639-3.3657 0.43789l-4.7227 6.1353q-1.4639 1.9018 0.43789 3.3657z" clip-path="url(#a)" fill="#fff" stroke="#fff"/>
<g clip-path="url(#a)">
<g transform="translate(698.73 336.15) rotate(37.587) scale(.08 -.08)">
<use xlink:href="#s"/>
</g>
</g>
<path d="m474.08 996.85v33.808q0 2.4 2.4 2.4h7.7425q2.4 0 2.4-2.4v-33.808q0-2.4-2.4-2.4h-7.7425q-2.4 0-2.4 2.4z" clip-path="url(#a)" fill="#fff" stroke="#fff"/>
<g clip-path="url(#a)">
<g transform="translate(478.15 996.85) rotate(90) scale(.08 -.08)">
<use xlink:href="#l"/>
<use x="44.083984" xlink:href="#g"/>
<use x="105.607422" xlink:href="#i"/>
<use x="144.970703" xlink:href="#k"/>
<use x="242.382812" xlink:href="#h"/>
<use x="270.166016" xlink:href="#d"/>
<use x="333.544922" xlink:href="#e"/>
<use x="394.824219" xlink:href="#j"/>
</g>
</g>
<path d="m672.23 568.94 2.9901-4.7186q1.2846-2.0272-0.7426-3.3119l-6.54-4.1443q-2.0272-1.2846-3.3119 0.7426l-2.9901 4.7186q-1.2846 2.0272 0.7426 3.3119l6.54 4.1443q2.0272 1.2846 3.3119-0.7426z" clip-path="url(#a)" fill="#fff" stroke="#fff"/>
<g clip-path="url(#a)">
<g transform="translate(668.8 566.77) rotate(-57.638) scale(.08 -.08)">
<use xlink:href="#s"/>
</g>
</g>
<path d="m772.95 678.94 0.20065-5.9816q0.080461-2.3986-2.3182-2.4791l-7.7381-0.25957q-2.3987-0.080461-2.4791 2.3182l-0.20065 5.9816q-0.080462 2.3987 2.3182 2.4791l7.7381 0.25957q2.3987 0.080461 2.4791-2.3182z" clip-path="url(#a)" fill="#fff" stroke="#fff"/>
<g clip-path="url(#a)">
<defs>
<path id="at" d="m9.8125 72.906h13.281l32.328-60.984v60.984h9.5625v-72.906h-13.281l-32.312 60.984v-60.984h-9.5781z"/>
</defs>
<g transform="translate(768.89 678.8) rotate(-88.079) scale(.08 -.08)">
<use xlink:href="#at"/>
</g>
</g>
<path d="m923.91 454.8 5.2342 1.9519q2.2487 0.83858 3.0873-1.4101l2.7053-7.2545q0.83858-2.2487-1.4101-3.0873l-5.2342-1.9519q-2.2487-0.83858-3.0873 1.4101l-2.7053 7.2545q-0.83858 2.2487 1.4101 3.0873z" clip-path="url(#a)" fill="#fff" stroke="#fff"/>
<g clip-path="url(#a)">
<g transform="translate(925.33 450.99) rotate(20.451) scale(.08 -.08)">
<use xlink:href="#s"/>
</g>
</g>
<path d="m747.01 679.41 0.72198-5.8103q0.29594-2.3817-2.0857-2.6776l-7.6834-0.95473q-2.3817-0.29594-2.6776 2.0857l-0.72198 5.8103q-0.29594 2.3817 2.0857 2.6776l7.6834 0.95473q2.3817 0.29594 2.6776-2.0857z" clip-path="url(#a)" fill="#fff" stroke="#fff"/>
<g clip-path="url(#a)">
<g transform="translate(742.97 678.91) rotate(-82.917) scale(.08 -.08)">
<use xlink:href="#aa"/>
</g>
</g>
<path d="m546.69 849.74 0.9589-5.5033q0.41197-2.3644-1.9524-2.7763l-7.6276-1.329q-2.3644-0.41197-2.7763 1.9524l-0.9589 5.5033q-0.41197 2.3644 1.9524 2.7763l7.6276 1.329q2.3644 0.41197 2.7763-1.9524z" clip-path="url(#a)" fill="#fff" stroke="#fff"/>
<g clip-path="url(#a)">
<g transform="translate(542.68 849.04) rotate(-80.116) scale(.08 -.08)">
<use xlink:href="#s"/>
</g>
</g>
<path d="m571.52 789.27 1.5109 4.8239q0.71735 2.2903 3.0076 1.5729l7.3886-2.3142q2.2903-0.71735 1.5729-3.0076l-1.5109-4.8239q-0.71735-2.2903-3.0076-1.5729l-7.3886 2.3142q-2.2903 0.71735-1.5729 3.0076z" clip-path="url(#a)" fill="#fff" stroke="#fff"/>
<g clip-path="url(#a)">
<g transform="translate(575.39 788.05) rotate(72.609) scale(.08 -.08)">
<use xlink:href="#w"/>
</g>
</g>
<path d="m556.21 843.09 0.10082 5.8541q0.041325 2.3996 2.441 2.3583l7.7414-0.13332q2.3996-0.041325 2.3583-2.441l-0.10082-5.8541q-0.041325-2.3996-2.441-2.3583l-7.7414 0.13332q-2.3996 0.041325-2.3583 2.441z" clip-path="url(#a)" fill="#fff" stroke="#fff"/>
<g clip-path="url(#a)">
<g transform="translate(560.27 843.02) rotate(89.013) scale(.08 -.08)">
<use xlink:href="#aa"/>
</g>
</g>
<path d="m751.03 996.85v33.808q0 2.4 2.4 2.4h7.7425q2.4 0 2.4-2.4v-33.808q0-2.4-2.4-2.4h-7.7425q-2.4 0-2.4 2.4z" clip-path="url(#a)" fill="#fff" stroke="#fff"/>
<g clip-path="url(#a)">
<g transform="translate(755.1 996.85) rotate(90) scale(.08 -.08)">
<use xlink:href="#l"/>
<use x="44.083984" xlink:href="#g"/>
<use x="105.607422" xlink:href="#i"/>
<use x="144.970703" xlink:href="#k"/>
<use x="242.382812" xlink:href="#h"/>
<use x="270.166016" xlink:href="#d"/>
<use x="333.544922" xlink:href="#e"/>
<use x="394.824219" xlink:href="#j"/>
</g>
</g>
<path d="m963.95 738.01 2.6452-4.9203q1.1365-2.1139-0.97741-3.2503l-6.8194-3.6663q-2.1139-1.1365-3.2503 0.97741l-2.6452 4.9203q-1.1365 2.1139 0.97741 3.2503l6.8194 3.6663q2.1139 1.1365 3.2503-0.97741z" clip-path="url(#a)" fill="#fff" stroke="#fff"/>
<g clip-path="url(#a)">
<g transform="translate(960.37 736.09) rotate(-61.737) scale(.08 -.08)">
<use xlink:href="#s"/>
</g>
</g>
<path d="m1069.1 679.65 0.53266-5.0269q0.2529-2.3866-2.1337-2.6395l-7.6994-0.81585q-2.3866-0.2529-2.6395 2.1337l-0.53266 5.0269q-0.2529 2.3866 2.1337 2.6395l7.6994 0.81585q2.3866 0.2529 2.6395-2.1337z" clip-path="url(#a)" fill="#fff" stroke="#fff"/>
<g clip-path="url(#a)">
<g transform="translate(1065.1 679.22) rotate(-83.951) scale(.08 -.08)">
<use xlink:href="#w"/>
</g>
</g>
<path d="m1295.4 568.92 4.8924 1.2718q2.3228 0.60384 2.9266-1.719l1.948-7.4934q0.60384-2.3228-1.719-2.9266l-4.8924-1.2718q-2.3228-0.60384-2.9266 1.719l-1.948 7.4934q-0.60384 2.3228 1.719 2.9266z" clip-path="url(#a)" fill="#fff" stroke="#fff"/>
<g clip-path="url(#a)">
<g transform="translate(1296.4 564.99) rotate(14.572) scale(.08 -.08)">
<use xlink:href="#w"/>
</g>
</g>
<path d="m1007.3 737.41 1.9299-5.5278q0.79108-2.2659-1.4748-3.057l-7.3098-2.5521q-2.2659-0.79108-3.057 1.4748l-1.9299 5.5278q-0.79108 2.2659 1.4748 3.057l7.3098 2.5521q2.2659 0.79108 3.057-1.4748z" clip-path="url(#a)" fill="#fff" stroke="#fff"/>
<g clip-path="url(#a)">
<g transform="translate(1003.4 736.08) rotate(-70.754) scale(.08 -.08)">
<use xlink:href="#aa"/>
</g>
</g>
<path d="m826.47 1031.7 8.207-32.796q0.58262-2.3282-1.7456-2.9108l-7.5109-1.8795q-2.3282-0.58262-2.9108 1.7456l-8.207 32.796q-0.58262 2.3282 1.7456 2.9108l7.5109 1.8795q2.3282 0.58262 2.9108-1.7456z" clip-path="url(#a)" fill="#fff" stroke="#fff"/>
<g clip-path="url(#a)">
<g transform="translate(822.53 1030.7) rotate(-75.951) scale(.08 -.08)">
<use xlink:href="#l"/>
<use x="44.083984" xlink:href="#g"/>
<use x="105.607422" xlink:href="#i"/>
<use x="144.970703" xlink:href="#k"/>
<use x="242.382812" xlink:href="#h"/>
<use x="270.166016" xlink:href="#d"/>
<use x="333.544922" xlink:href="#e"/>
<use x="394.824219" xlink:href="#j"/>
</g>
</g>
<path d="m842 998.88 8.207 32.796q0.58262 2.3282 2.9108 1.7456l7.5109-1.8795q2.3282-0.58262 1.7456-2.9108l-8.207-32.796q-0.58262-2.3282-2.9108-1.7456l-7.5109 1.8795q-2.3282 0.58262-1.7456 2.9108z" clip-path="url(#a)" fill="#fff" stroke="#fff"/>
<g clip-path="url(#a)">
<g transform="translate(845.94 997.89) rotate(75.951) scale(.08 -.08)">
<use xlink:href="#l"/>
<use x="44.083984" xlink:href="#g"/>
<use x="105.607422" xlink:href="#i"/>
<use x="144.970703" xlink:href="#k"/>
<use x="242.382812" xlink:href="#h"/>
<use x="270.166016" xlink:href="#d"/>
<use x="333.544922" xlink:href="#e"/>
<use x="394.824219" xlink:href="#j"/>
</g>
</g>
<path d="m1018.4 907.37 2.2315-4.0239q1.1639-2.0989-0.93492-3.2628l-6.771-3.7549q-2.0989-1.1639-3.2628 0.93492l-2.2315 4.0239q-1.1639 2.0989 0.93492 3.2628l6.771 3.7549q2.0989 1.1639 3.2628-0.93492z" clip-path="url(#a)" fill="#fff" stroke="#fff"/>
<g clip-path="url(#a)">
<g transform="translate(1014.9 905.39) rotate(-60.989) scale(.08 -.08)">
<use xlink:href="#ak"/>
</g>
</g>
<path d="m1051.1 905.09 0.033349-5.4724q0.014626-2.4-2.3853-2.4146l-7.7424-0.047182q-2.4-0.014625-2.4146 2.3853l-0.033349 5.4724q-0.014625 2.4 2.3853 2.4146l7.7424 0.047183q2.4 0.014625 2.4146-2.3853z" clip-path="url(#a)" fill="#fff" stroke="#fff"/>
<g clip-path="url(#a)">
<g transform="translate(1047 905.06) rotate(-89.651) scale(.08 -.08)">
<use xlink:href="#q"/>
</g>
</g>
<path d="m1067.9 899.78 6.3532 11.332q1.1737 2.0934 3.2671 0.91974l6.9781-3.9123q2.0934-1.1737 0.91974-3.2671l-6.3532-11.332q-1.1737-2.0934-3.2671-0.91974l-6.9781 3.9123q-2.0934 1.1737-0.91974 3.2671z" clip-path="url(#a)" fill="#fff" stroke="#fff"/>
<g clip-path="url(#a)">
<defs>
<path id="ap" d="m21 76.422v-100h-8.2969v100z"/>
</defs>
<g transform="translate(1071.6 897.68) rotate(60.723) scale(.08 -.08)">
<use xlink:href="#q"/>
<use x="68.408203" xlink:href="#ap"/>
<use x="102.099609" xlink:href="#aj"/>
</g>
</g>
<path d="m1330.1 740.14 5.1582-3.0964q2.0577-1.2352 0.82251-3.2929l-3.9849-6.6383q-1.2352-2.0577-3.2929-0.82251l-5.1582 3.0964q-2.0577 1.2352-0.82251 3.2929l3.9849 6.6383q1.2352 2.0577 3.2929 0.82251z" clip-path="url(#a)" fill="#fff" stroke="#fff"/>
<g clip-path="url(#a)">
<g transform="translate(1328 736.65) rotate(-30.976) scale(.08 -.08)">
<use xlink:href="#ah"/>
</g>
</g>
<path d="m1512.8 736.03 0.42832-4.4369q0.23062-2.3889-2.1583-2.6195l-7.7067-0.74398q-2.3889-0.23062-2.6195 2.1583l-0.42832 4.4369q-0.23062 2.3889 2.1583 2.6195l7.7067 0.74398q2.3889 0.23062 2.6195-2.1583z" clip-path="url(#a)" fill="#fff" stroke="#fff"/>
<g clip-path="url(#a)">
<defs>
<path id="ag" d="m9.8125 72.906h9.8594v-64.609h35.5v-8.2969h-45.359z"/>
</defs>
<g transform="translate(1508.7 735.64) rotate(-84.486) scale(.08 -.08)">
<use xlink:href="#ag"/>
</g>
</g>
<path d="m1712.2 682.02 5.7871 1.6446q2.3086 0.65606 2.9646-1.6525l2.1165-7.4476q0.65606-2.3086-1.6525-2.9646l-5.7871-1.6446q-2.3086-0.65606-2.9647 1.6525l-2.1165 7.4476q-0.65606 2.3086 1.6525 2.9646z" clip-path="url(#a)" fill="#fff" stroke="#fff"/>
<g clip-path="url(#a)">
<g transform="translate(1713.3 678.11) rotate(15.864) scale(.08 -.08)">
<use xlink:href="#ah"/>
</g>
</g>
<path d="m989.38 909.14 5.1316-1.9014q2.2505-0.83385 1.4166-3.0843l-2.69-7.2602q-0.83385-2.2505-3.0843-1.4166l-5.1316 1.9014q-2.2505 0.83385-1.4166 3.0843l2.69 7.2602q0.83385 2.2505 3.0843 1.4166z" clip-path="url(#a)" fill="#fff" stroke="#fff"/>
<g clip-path="url(#a)">
<g transform="translate(987.96 905.33) rotate(-20.331) scale(.08 -.08)">
<use xlink:href="#q"/>
</g>
</g>
<path d="m1150.7 901.39 1.5494 5.3385q0.66894 2.3049 2.9738 1.6359l7.4357-2.158q2.3049-0.66894 1.6359-2.9738l-1.5494-5.3385q-0.66894-2.3049-2.9738-1.6359l-7.4357 2.158q-2.3049 0.66894-1.6359 2.9738z" clip-path="url(#a)" fill="#fff" stroke="#fff"/>
<g clip-path="url(#a)">
<g transform="translate(1154.6 900.26) rotate(73.816) scale(.08 -.08)">
<use xlink:href="#v"/>
</g>
</g>
<path d="m1185.1 904.78 3.0658 3.4311q1.5991 1.7896 3.3888 0.19053l5.7735-5.1588q1.7896-1.5991 0.19053-3.3888l-3.0658-3.4311q-1.5991-1.7896-3.3888-0.19053l-5.7735 5.1588q-1.7896 1.5991-0.19053 3.3888z" clip-path="url(#a)" fill="#fff" stroke="#fff"/>
<g clip-path="url(#a)">
<g transform="translate(1188.1 902.07) rotate(48.218) scale(.08 -.08)">
<use xlink:href="#ak"/>
</g>
</g>
<path d="m1220.6 906.15 4.2388 2.7976q2.0031 1.322 3.3251-0.68102l4.2649-6.4619q1.322-2.0031-0.68102-3.3251l-4.2388-2.7976q-2.0031-1.322-3.3251 0.68102l-4.2649 6.4619q-1.322 2.0031 0.68102 3.3251z" clip-path="url(#a)" fill="#fff" stroke="#fff"/>
<g clip-path="url(#a)">
<defs>
<path id="af" d="m53.516 70.516v-9.625q-5.6094 2.6875-10.594 4-4.9844 1.3281-9.625 1.3281-8.0469 0-12.422-3.125t-4.375-8.8906q0-4.8438 2.9062-7.3125 2.9062-2.4531 11.016-3.9688l5.9531-1.2188q11.031-2.1094 16.281-7.4062t5.25-14.172q0-10.609-7.1094-16.078-7.0938-5.4688-20.812-5.4688-5.1719 0-11.016 1.1719-5.8281 1.1719-12.078 3.4688v10.156q6-3.3594 11.766-5.0781 5.7656-1.7031 11.328-1.7031 8.4375 0 13.031 3.3125 4.5938 3.3281 4.5938 9.4844 0 5.3594-3.2969 8.3906t-10.812 4.5469l-6.0156 1.1719q-11.031 2.1875-15.969 6.875-4.9219 4.6875-4.9219 13.047 0 9.6719 6.8125 15.234t18.766 5.5625q5.1406 0 10.453-0.9375 5.3281-0.92188 10.891-2.7656z"/>
</defs>
<g transform="translate(1222.9 902.76) rotate(33.425) scale(.08 -.08)">
<use xlink:href="#af"/>
</g>
</g>
<path d="m1441.9 908.72 3.9414-3.9198q1.7017-1.6924 0.009338-3.3941l-5.4597-5.4898q-1.6924-1.7017-3.3941-0.009338l-3.9414 3.9198q-1.7017 1.6924-0.009338 3.3941l5.4597 5.4898q1.6924 1.7017 3.3941 0.009338z" clip-path="url(#a)" fill="#fff" stroke="#fff"/>
<g clip-path="url(#a)">
<g transform="translate(1439 905.84) rotate(-44.842) scale(.08 -.08)">
<use xlink:href="#v"/>
</g>
</g>
<path d="m1481.4 906.76 1.6587-4.7751q0.78751-2.2671-1.4796-3.0546l-7.3138-2.5405q-2.2671-0.78751-3.0546 1.4796l-1.6587 4.7751q-0.78751 2.2671 1.4796 3.0546l7.3138 2.5405q2.2671 0.78751 3.0546-1.4796z" clip-path="url(#a)" fill="#fff" stroke="#fff"/>
<g clip-path="url(#a)">
<g transform="translate(1477.6 905.42) rotate(-70.845) scale(.08 -.08)">
<use xlink:href="#w"/>
</g>
</g>
<path d="m1507.5 901.62 1.7462 5.3063q0.75021 2.2797 3.0299 1.5295l7.3545-2.4202q2.2797-0.75021 1.5295-3.0299l-1.7462-5.3063q-0.75021-2.2797-3.0299-1.5295l-7.3545 2.4202q-2.2797 0.75021-1.5295 3.0299z" clip-path="url(#a)" fill="#fff" stroke="#fff"/>
<g clip-path="url(#a)">
<g transform="translate(1511.3 900.35) rotate(71.785) scale(.08 -.08)">
<use xlink:href="#s"/>
</g>
</g>
<path d="m1546.9 904.86 3.9766 3.8841q1.7169 1.677 3.3939-0.039911l5.41-5.5388q1.677-1.7169-0.039912-3.3939l-3.9766-3.8841q-1.7169-1.677-3.3939 0.039912l-5.41 5.5388q-1.677 1.7169 0.039912 3.3939z" clip-path="url(#a)" fill="#fff" stroke="#fff"/>
<g clip-path="url(#a)">
<g transform="translate(1549.7 901.95) rotate(44.326) scale(.08 -.08)">
<use xlink:href="#v"/>
</g>
</g>
<path d="m1846.4 796.42 4.2904-3.3971q1.8816-1.4898 0.39178-3.3714l-4.8062-6.0701q-1.4898-1.8816-3.3714-0.39178l-4.2904 3.3971q-1.8816 1.4898-0.39178 3.3714l4.8062 6.0701q1.4898 1.8816 3.3714 0.39178z" clip-path="url(#a)" fill="#fff" stroke="#fff"/>
<g clip-path="url(#a)">
<g transform="translate(1843.9 793.23) rotate(-38.372) scale(.08 -.08)">
<use xlink:href="#q"/>
</g>
</g>
<path d="m1923 844.27 0.57732 4.7891q0.28724 2.3828 2.67 2.0955l7.6868-0.92664q2.3827-0.28724 2.0955-2.67l-0.57732-4.7891q-0.28724-2.3827-2.67-2.0955l-7.6868 0.92664q-2.3828 0.28724-2.0955 2.67z" clip-path="url(#a)" fill="#fff" stroke="#fff"/>
<g clip-path="url(#a)">
<g transform="translate(1927 843.78) rotate(83.126) scale(.08 -.08)">
<use xlink:href="#aj"/>
</g>
</g>
<path d="m1966.7 846.17 2.6708 5.2104q1.0948 2.1358 3.2305 1.041l6.8901-3.5318q2.1358-1.0948 1.041-3.2305l-2.6708-5.2104q-1.0948-2.1358-3.2305-1.041l-6.8901 3.5318q-2.1358 1.0948-1.041 3.2305z" clip-path="url(#a)" fill="#fff" stroke="#fff"/>
<g clip-path="url(#a)">
<g transform="translate(1970.3 844.31) rotate(62.861) scale(.08 -.08)">
<use xlink:href="#aa"/>
</g>
</g>
<path d="m1735.5 908.24 3.2478-4.4045q1.4244-1.9316-0.50729-3.356l-6.2315-4.595q-1.9316-1.4244-3.356 0.50729l-3.2478 4.4045q-1.4244 1.9316 0.50729 3.356l6.2315 4.595q1.9316 1.4244 3.356-0.50729z" clip-path="url(#a)" fill="#fff" stroke="#fff"/>
<g clip-path="url(#a)">
<g transform="translate(1732.3 905.82) rotate(-53.596) scale(.08 -.08)">
<use xlink:href="#q"/>
</g>
</g>
<path d="m1779.5 908.97 0.080721-13.246q0.014626-2.4-2.3853-2.4146l-7.9999-0.048751q-2.4-0.014626-2.4146 2.3853l-0.080722 13.246q-0.014625 2.4 2.3853 2.4146l7.9999 0.048751q2.4 0.014625 2.4146-2.3853z" clip-path="url(#a)" fill="#fff" stroke="#fff"/>
<g clip-path="url(#a)">
<g transform="translate(1775.2 908.95) rotate(-89.651) scale(.08 -.08)">
<use xlink:href="#af"/>
<use x="63.476562" xlink:href="#ap"/>
<use x="97.167969" xlink:href="#q"/>
</g>
</g>
<path d="m1808.5 903.82 3.3166 4.4609q1.4319 1.926 3.358 0.49408l6.2134-4.6195q1.926-1.4319 0.49407-3.358l-3.3166-4.4609q-1.4319-1.926-3.358-0.49407l-6.2134 4.6195q-1.926 1.4319-0.49407 3.358z" clip-path="url(#a)" fill="#fff" stroke="#fff"/>
<g clip-path="url(#a)">
<g transform="translate(1811.8 901.4) rotate(53.37) scale(.08 -.08)">
<use xlink:href="#v"/>
</g>
</g>
<path d="m1936.8 996.85v33.808q0 2.4 2.4 2.4h7.7425q2.4 0 2.4-2.4v-33.808q0-2.4-2.4-2.4h-7.7425q-2.4 0-2.4 2.4z" clip-path="url(#a)" fill="#fff" stroke="#fff"/>
<g clip-path="url(#a)">
<g transform="translate(1940.9 996.85) rotate(90) scale(.08 -.08)">
<use xlink:href="#l"/>
<use x="44.083984" xlink:href="#g"/>
<use x="105.607422" xlink:href="#i"/>
<use x="144.970703" xlink:href="#k"/>
<use x="242.382812" xlink:href="#h"/>
<use x="270.166016" xlink:href="#d"/>
<use x="333.544922" xlink:href="#e"/>
<use x="394.824219" xlink:href="#j"/>
</g>
</g>
<path d="m1684.5 996.85v33.808q0 2.4 2.4 2.4h7.7425q2.4 0 2.4-2.4v-33.808q0-2.4-2.4-2.4h-7.7425q-2.4 0-2.4 2.4z" clip-path="url(#a)" fill="#fff" stroke="#fff"/>
<g clip-path="url(#a)">
<g transform="translate(1688.5 996.85) rotate(90) scale(.08 -.08)">
<use xlink:href="#l"/>
<use x="44.083984" xlink:href="#g"/>
<use x="105.607422" xlink:href="#i"/>
<use x="144.970703" xlink:href="#k"/>
<use x="242.382812" xlink:href="#h"/>
<use x="270.166016" xlink:href="#d"/>
<use x="333.544922" xlink:href="#e"/>
<use x="394.824219" xlink:href="#j"/>
</g>
</g>
<path d="m1766.5 996.85v33.808q0 2.4 2.4 2.4h7.7425q2.4 0 2.4-2.4v-33.808q0-2.4-2.4-2.4h-7.7425q-2.4 0-2.4 2.4z" clip-path="url(#a)" fill="#fff" stroke="#fff"/>
<g clip-path="url(#a)">
<g transform="translate(1770.6 996.85) rotate(90) scale(.08 -.08)">
<use xlink:href="#l"/>
<use x="44.083984" xlink:href="#g"/>
<use x="105.607422" xlink:href="#i"/>
<use x="144.970703" xlink:href="#k"/>
<use x="242.382812" xlink:href="#h"/>
<use x="270.166016" xlink:href="#d"/>
<use x="333.544922" xlink:href="#e"/>
<use x="394.824219" xlink:href="#j"/>
</g>
</g>
<path d="m1850.6 996.85v33.808q0 2.4 2.4 2.4h7.7425q2.4 0 2.4-2.4v-33.808q0-2.4-2.4-2.4h-7.7425q-2.4 0-2.4 2.4z" clip-path="url(#a)" fill="#fff" stroke="#fff"/>
<g clip-path="url(#a)">
<g transform="translate(1854.7 996.85) rotate(90) scale(.08 -.08)">
<use xlink:href="#l"/>
<use x="44.083984" xlink:href="#g"/>
<use x="105.607422" xlink:href="#i"/>
<use x="144.970703" xlink:href="#k"/>
<use x="242.382812" xlink:href="#h"/>
<use x="270.166016" xlink:href="#d"/>
<use x="333.544922" xlink:href="#e"/>
<use x="394.824219" xlink:href="#j"/>
</g>
</g>
<path d="m1376.7 996.85v33.808q0 2.4 2.4 2.4h7.7425q2.4 0 2.4-2.4v-33.808q0-2.4-2.4-2.4h-7.7425q-2.4 0-2.4 2.4z" clip-path="url(#a)" fill="#fff" stroke="#fff"/>
<g clip-path="url(#a)">
<g transform="translate(1380.8 996.85) rotate(90) scale(.08 -.08)">
<use xlink:href="#l"/>
<use x="44.083984" xlink:href="#g"/>
<use x="105.607422" xlink:href="#i"/>
<use x="144.970703" xlink:href="#k"/>
<use x="242.382812" xlink:href="#h"/>
<use x="270.166016" xlink:href="#d"/>
<use x="333.544922" xlink:href="#e"/>
<use x="394.824219" xlink:href="#j"/>
</g>
</g>
<path d="m1450.6 996.85v33.808q0 2.4 2.4 2.4h7.7425q2.4 0 2.4-2.4v-33.808q0-2.4-2.4-2.4h-7.7425q-2.4 0-2.4 2.4z" clip-path="url(#a)" fill="#fff" stroke="#fff"/>
<g clip-path="url(#a)">
<g transform="translate(1454.7 996.85) rotate(90) scale(.08 -.08)">
<use xlink:href="#l"/>
<use x="44.083984" xlink:href="#g"/>
<use x="105.607422" xlink:href="#i"/>
<use x="144.970703" xlink:href="#k"/>
<use x="242.382812" xlink:href="#h"/>
<use x="270.166016" xlink:href="#d"/>
<use x="333.544922" xlink:href="#e"/>
<use x="394.824219" xlink:href="#j"/>
</g>
</g>
<path d="m1526.5 996.85v33.808q0 2.4 2.4 2.4h7.7425q2.4 0 2.4-2.4v-33.808q0-2.4-2.4-2.4h-7.7425q-2.4 0-2.4 2.4z" clip-path="url(#a)" fill="#fff" stroke="#fff"/>
<g clip-path="url(#a)">
<g transform="translate(1530.6 996.85) rotate(90) scale(.08 -.08)">
<use xlink:href="#l"/>
<use x="44.083984" xlink:href="#g"/>
<use x="105.607422" xlink:href="#i"/>
<use x="144.970703" xlink:href="#k"/>
<use x="242.382812" xlink:href="#h"/>
<use x="270.166016" xlink:href="#d"/>
<use x="333.544922" xlink:href="#e"/>
<use x="394.824219" xlink:href="#j"/>
</g>
</g>
<path d="m1604.4 996.85v33.808q0 2.4 2.4 2.4h7.7425q2.4 0 2.4-2.4v-33.808q0-2.4-2.4-2.4h-7.7425q-2.4 0-2.4 2.4z" clip-path="url(#a)" fill="#fff" stroke="#fff"/>
<g clip-path="url(#a)">
<g transform="translate(1608.5 996.85) rotate(90) scale(.08 -.08)">
<use xlink:href="#l"/>
<use x="44.083984" xlink:href="#g"/>
<use x="105.607422" xlink:href="#i"/>
<use x="144.970703" xlink:href="#k"/>
<use x="242.382812" xlink:href="#h"/>
<use x="270.166016" xlink:href="#d"/>
<use x="333.544922" xlink:href="#e"/>
<use x="394.824219" xlink:href="#j"/>
</g>
</g>
<path d="m1167.5 996.85v33.808q0 2.4 2.4 2.4h7.7425q2.4 0 2.4-2.4v-33.808q0-2.4-2.4-2.4h-7.7425q-2.4 0-2.4 2.4z" clip-path="url(#a)" fill="#fff" stroke="#fff"/>
<g clip-path="url(#a)">
<g transform="translate(1171.5 996.85) rotate(90) scale(.08 -.08)">
<use xlink:href="#l"/>
<use x="44.083984" xlink:href="#g"/>
<use x="105.607422" xlink:href="#i"/>
<use x="144.970703" xlink:href="#k"/>
<use x="242.382812" xlink:href="#h"/>
<use x="270.166016" xlink:href="#d"/>
<use x="333.544922" xlink:href="#e"/>
<use x="394.824219" xlink:href="#j"/>
</g>
</g>
<path d="m1235.2 996.85v33.808q0 2.4 2.4 2.4h7.7425q2.4 0 2.4-2.4v-33.808q0-2.4-2.4-2.4h-7.7425q-2.4 0-2.4 2.4z" clip-path="url(#a)" fill="#fff" stroke="#fff"/>
<g clip-path="url(#a)">
<g transform="translate(1239.2 996.85) rotate(90) scale(.08 -.08)">
<use xlink:href="#l"/>
<use x="44.083984" xlink:href="#g"/>
<use x="105.607422" xlink:href="#i"/>
<use x="144.970703" xlink:href="#k"/>
<use x="242.382812" xlink:href="#h"/>
<use x="270.166016" xlink:href="#d"/>
<use x="333.544922" xlink:href="#e"/>
<use x="394.824219" xlink:href="#j"/>
</g>
</g>
<path d="m1304.9 996.85v33.808q0 2.4 2.4 2.4h7.7425q2.4 0 2.4-2.4v-33.808q0-2.4-2.4-2.4h-7.7425q-2.4 0-2.4 2.4z" clip-path="url(#a)" fill="#fff" stroke="#fff"/>
<g clip-path="url(#a)">
<g transform="translate(1309 996.85) rotate(90) scale(.08 -.08)">
<use xlink:href="#l"/>
<use x="44.083984" xlink:href="#g"/>
<use x="105.607422" xlink:href="#i"/>
<use x="144.970703" xlink:href="#k"/>
<use x="242.382812" xlink:href="#h"/>
<use x="270.166016" xlink:href="#d"/>
<use x="333.544922" xlink:href="#e"/>
<use x="394.824219" xlink:href="#j"/>
</g>
</g>
<path d="m976.7 996.85v33.808q0 2.4 2.4 2.4h7.7425q2.4 0 2.4-2.4v-33.808q0-2.4-2.4-2.4h-7.7425q-2.4 0-2.4 2.4z" clip-path="url(#a)" fill="#fff" stroke="#fff"/>
<g clip-path="url(#a)">
<g transform="translate(980.76 996.85) rotate(90) scale(.08 -.08)">
<use xlink:href="#l"/>
<use x="44.083984" xlink:href="#g"/>
<use x="105.607422" xlink:href="#i"/>
<use x="144.970703" xlink:href="#k"/>
<use x="242.382812" xlink:href="#h"/>
<use x="270.166016" xlink:href="#d"/>
<use x="333.544922" xlink:href="#e"/>
<use x="394.824219" xlink:href="#j"/>
</g>
</g>
<path d="m1038.2 996.85v33.808q0 2.4 2.4 2.4h7.7425q2.4 0 2.4-2.4v-33.808q0-2.4-2.4-2.4h-7.7425q-2.4 0-2.4 2.4z" clip-path="url(#a)" fill="#fff" stroke="#fff"/>
<g clip-path="url(#a)">
<g transform="translate(1042.3 996.85) rotate(90) scale(.08 -.08)">
<use xlink:href="#l"/>
<use x="44.083984" xlink:href="#g"/>
<use x="105.607422" xlink:href="#i"/>
<use x="144.970703" xlink:href="#k"/>
<use x="242.382812" xlink:href="#h"/>
<use x="270.166016" xlink:href="#d"/>
<use x="333.544922" xlink:href="#e"/>
<use x="394.824219" xlink:href="#j"/>
</g>
</g>
<path d="m1101.8 996.85v33.808q0 2.4 2.4 2.4h7.7425q2.4 0 2.4-2.4v-33.808q0-2.4-2.4-2.4h-7.7425q-2.4 0-2.4 2.4z" clip-path="url(#a)" fill="#fff" stroke="#fff"/>
<g clip-path="url(#a)">
<g transform="translate(1105.9 996.85) rotate(90) scale(.08 -.08)">
<use xlink:href="#l"/>
<use x="44.083984" xlink:href="#g"/>
<use x="105.607422" xlink:href="#i"/>
<use x="144.970703" xlink:href="#k"/>
<use x="242.382812" xlink:href="#h"/>
<use x="270.166016" xlink:href="#d"/>
<use x="333.544922" xlink:href="#e"/>
<use x="394.824219" xlink:href="#j"/>
</g>
</g>
<path d="m515.11 996.85v33.808q0 2.4 2.4 2.4h7.7425q2.4 0 2.4-2.4v-33.808q0-2.4-2.4-2.4h-7.7425q-2.4 0-2.4 2.4z" clip-path="url(#a)" fill="#fff" stroke="#fff"/>
<g clip-path="url(#a)">
<g transform="translate(519.18 996.85) rotate(90) scale(.08 -.08)">
<use xlink:href="#l"/>
<use x="44.083984" xlink:href="#g"/>
<use x="105.607422" xlink:href="#i"/>
<use x="144.970703" xlink:href="#k"/>
<use x="242.382812" xlink:href="#h"/>
<use x="270.166016" xlink:href="#d"/>
<use x="333.544922" xlink:href="#e"/>
<use x="394.824219" xlink:href="#j"/>
</g>
</g>
<path d="m562.36 908.06 3.028-4.5585q1.3279-1.9991-0.67121-3.3271l-6.4493-4.284q-1.9991-1.3279-3.3271 0.67121l-3.028 4.5585q-1.3279 1.9991 0.67121 3.3271l6.4493 4.284q1.9991 1.3279 3.3271-0.67121z" clip-path="url(#a)" fill="#fff" stroke="#fff"/>
<g clip-path="url(#a)">
<g transform="translate(558.98 905.81) rotate(-56.406) scale(.08 -.08)">
<use xlink:href="#q"/>
</g>
</g>
<path d="m596.23 900.55 0.61446 5.0414q0.29037 2.3824 2.6727 2.092l7.6856-0.93673q2.3824-0.29037 2.092-2.6727l-0.61446-5.0414q-0.29037-2.3824-2.6727-2.092l-7.6856 0.93673q-2.3824 0.29036-2.092 2.6727z" clip-path="url(#a)" fill="#fff" stroke="#fff"/>
<g clip-path="url(#a)">
<g transform="translate(600.26 900.06) rotate(83.051) scale(.08 -.08)">
<use xlink:href="#af"/>
</g>
</g>
<path d="m619.53 902.9 2.6091 4.8105q1.1442 2.1097 3.2539 0.96545l6.8059-3.6913q2.1097-1.1442 0.96545-3.2539l-2.6091-4.8105q-1.1442-2.1097-3.2539-0.96545l-6.8059 3.6913q-2.1097 1.1442-0.96545 3.2539z" clip-path="url(#a)" fill="#fff" stroke="#fff"/>
<g clip-path="url(#a)">
<g transform="translate(623.11 900.96) rotate(61.526) scale(.08 -.08)">
<use xlink:href="#q"/>
</g>
</g>
<path d="m603.33 996.85v33.808q0 2.4 2.4 2.4h7.7425q2.4 0 2.4-2.4v-33.808q0-2.4-2.4-2.4h-7.7425q-2.4 0-2.4 2.4z" clip-path="url(#a)" fill="#fff" stroke="#fff"/>
<g clip-path="url(#a)">
<g transform="translate(607.39 996.85) rotate(90) scale(.08 -.08)">
<use xlink:href="#l"/>
<use x="44.083984" xlink:href="#g"/>
<use x="105.607422" xlink:href="#i"/>
<use x="144.970703" xlink:href="#k"/>
<use x="242.382812" xlink:href="#h"/>
<use x="270.166016" xlink:href="#d"/>
<use x="333.544922" xlink:href="#e"/>
<use x="394.824219" xlink:href="#j"/>
</g>
</g>
<path d="m650.51 996.85v33.808q0 2.4 2.4 2.4h7.7425q2.4 0 2.4-2.4v-33.808q0-2.4-2.4-2.4h-7.7425q-2.4 0-2.4 2.4z" clip-path="url(#a)" fill="#fff" stroke="#fff"/>
<g clip-path="url(#a)">
<g transform="translate(654.57 996.85) rotate(90) scale(.08 -.08)">
<use xlink:href="#l"/>
<use x="44.083984" xlink:href="#g"/>
<use x="105.607422" xlink:href="#i"/>
<use x="144.970703" xlink:href="#k"/>
<use x="242.382812" xlink:href="#h"/>
<use x="270.166016" xlink:href="#d"/>
<use x="333.544922" xlink:href="#e"/>
<use x="394.824219" xlink:href="#j"/>
</g>
</g>
<path d="m330.48 996.85v33.808q0 2.4 2.4 2.4h7.7425q2.4 0 2.4-2.4v-33.808q0-2.4-2.4-2.4h-7.7425q-2.4 0-2.4 2.4z" clip-path="url(#a)" fill="#fff" stroke="#fff"/>
<g clip-path="url(#a)">
<g transform="translate(334.54 996.85) rotate(90) scale(.08 -.08)">
<use xlink:href="#l"/>
<use x="44.083984" xlink:href="#g"/>
<use x="105.607422" xlink:href="#i"/>
<use x="144.970703" xlink:href="#k"/>
<use x="242.382812" xlink:href="#h"/>
<use x="270.166016" xlink:href="#d"/>
<use x="333.544922" xlink:href="#e"/>
<use x="394.824219" xlink:href="#j"/>
</g>
</g>
<path d="m381.86 1031.4 5.2618-33.396q0.37354-2.3708-1.9972-2.7443l-7.6481-1.205q-2.3708-0.37354-2.7443 1.9972l-5.2618 33.396q-0.37354 2.3708 1.9972 2.7443l7.6481 1.205q2.3708 0.37354 2.7443-1.9972z" clip-path="url(#a)" fill="#fff" stroke="#fff"/>
<g clip-path="url(#a)">
<g transform="translate(377.84 1030.8) rotate(-81.046) scale(.08 -.08)">
<use xlink:href="#l"/>
<use x="44.083984" xlink:href="#g"/>
<use x="105.607422" xlink:href="#i"/>
<use x="144.970703" xlink:href="#k"/>
<use x="242.382812" xlink:href="#h"/>
<use x="270.166016" xlink:href="#d"/>
<use x="333.544922" xlink:href="#e"/>
<use x="394.824219" xlink:href="#j"/>
</g>
</g>
<path d="m386.9 998.03 5.2618 33.396q0.37354 2.3708 2.7443 1.9972l7.6481-1.205q2.3708-0.37354 1.9972-2.7443l-5.2618-33.396q-0.37354-2.3708-2.7443-1.9972l-7.6481 1.205q-2.3708 0.37354-1.9972 2.7443z" clip-path="url(#a)" fill="#fff" stroke="#fff"/>
<g clip-path="url(#a)">
<g transform="translate(390.92 997.4) rotate(81.046) scale(.08 -.08)">
<use xlink:href="#l"/>
<use x="44.083984" xlink:href="#g"/>
<use x="105.607422" xlink:href="#i"/>
<use x="144.970703" xlink:href="#k"/>
<use x="242.382812" xlink:href="#h"/>
<use x="270.166016" xlink:href="#d"/>
<use x="333.544922" xlink:href="#e"/>
<use x="394.824219" xlink:href="#j"/>
</g>
</g>
<path d="m435.1 996.85v33.808q0 2.4 2.4 2.4h7.7425q2.4 0 2.4-2.4v-33.808q0-2.4-2.4-2.4h-7.7425q-2.4 0-2.4 2.4z" clip-path="url(#a)" fill="#fff" stroke="#fff"/>
<g clip-path="url(#a)">
<g transform="translate(439.17 996.85) rotate(90) scale(.08 -.08)">
<use xlink:href="#l"/>
<use x="44.083984" xlink:href="#g"/>
<use x="105.607422" xlink:href="#i"/>
<use x="144.970703" xlink:href="#k"/>
<use x="242.382812" xlink:href="#h"/>
<use x="270.166016" xlink:href="#d"/>
<use x="333.544922" xlink:href="#e"/>
<use x="394.824219" xlink:href="#j"/>
</g>
</g>
<path d="m219.7 996.85v33.808q0 2.4 2.4 2.4h7.7425q2.4 0 2.4-2.4v-33.808q0-2.4-2.4-2.4h-7.7425q-2.4 0-2.4 2.4z" clip-path="url(#a)" fill="#fff" stroke="#fff"/>
<g clip-path="url(#a)">
<g transform="translate(223.76 996.85) rotate(90) scale(.08 -.08)">
<use xlink:href="#l"/>
<use x="44.083984" xlink:href="#g"/>
<use x="105.607422" xlink:href="#i"/>
<use x="144.970703" xlink:href="#k"/>
<use x="242.382812" xlink:href="#h"/>
<use x="270.166016" xlink:href="#d"/>
<use x="333.544922" xlink:href="#e"/>
<use x="394.824219" xlink:href="#j"/>
</g>
</g>
<path d="m244.32 996.85v33.808q0 2.4 2.4 2.4h7.7425q2.4 0 2.4-2.4v-33.808q0-2.4-2.4-2.4h-7.7425q-2.4 0-2.4 2.4z" clip-path="url(#a)" fill="#fff" stroke="#fff"/>
<g clip-path="url(#a)">
<g transform="translate(248.38 996.85) rotate(90) scale(.08 -.08)">
<use xlink:href="#l"/>
<use x="44.083984" xlink:href="#g"/>
<use x="105.607422" xlink:href="#i"/>
<use x="144.970703" xlink:href="#k"/>
<use x="242.382812" xlink:href="#h"/>
<use x="270.166016" xlink:href="#d"/>
<use x="333.544922" xlink:href="#e"/>
<use x="394.824219" xlink:href="#j"/>
</g>
</g>
<path d="m270.99 996.85v33.808q0 2.4 2.4 2.4h7.7425q2.4 0 2.4-2.4v-33.808q0-2.4-2.4-2.4h-7.7425q-2.4 0-2.4 2.4z" clip-path="url(#a)" fill="#fff" stroke="#fff"/>
<g clip-path="url(#a)">
<g transform="translate(275.05 996.85) rotate(90) scale(.08 -.08)">
<use xlink:href="#l"/>
<use x="44.083984" xlink:href="#g"/>
<use x="105.607422" xlink:href="#i"/>
<use x="144.970703" xlink:href="#k"/>
<use x="242.382812" xlink:href="#h"/>
<use x="270.166016" xlink:href="#d"/>
<use x="333.544922" xlink:href="#e"/>
<use x="394.824219" xlink:href="#j"/>
</g>
</g>
<path d="m299.71 996.85v33.808q0 2.4 2.4 2.4h7.7425q2.4 0 2.4-2.4v-33.808q0-2.4-2.4-2.4h-7.7425q-2.4 0-2.4 2.4z" clip-path="url(#a)" fill="#fff" stroke="#fff"/>
<g clip-path="url(#a)">
<g transform="translate(303.77 996.85) rotate(90) scale(.08 -.08)">
<use xlink:href="#l"/>
<use x="44.083984" xlink:href="#g"/>
<use x="105.607422" xlink:href="#i"/>
<use x="144.970703" xlink:href="#k"/>
<use x="242.382812" xlink:href="#h"/>
<use x="270.166016" xlink:href="#d"/>
<use x="333.544922" xlink:href="#e"/>
<use x="394.824219" xlink:href="#j"/>
</g>
</g>
<path d="m115.07 996.85v33.808q0 2.4 2.4 2.4h7.7425q2.4 0 2.4-2.4v-33.808q0-2.4-2.4-2.4h-7.7425q-2.4 0-2.4 2.4z" clip-path="url(#a)" fill="#fff" stroke="#fff"/>
<g clip-path="url(#a)">
<g transform="translate(119.14 996.85) rotate(90) scale(.08 -.08)">
<use xlink:href="#l"/>
<use x="44.083984" xlink:href="#g"/>
<use x="105.607422" xlink:href="#i"/>
<use x="144.970703" xlink:href="#k"/>
<use x="242.382812" xlink:href="#h"/>
<use x="270.166016" xlink:href="#d"/>
<use x="333.544922" xlink:href="#e"/>
<use x="394.824219" xlink:href="#j"/>
</g>
</g>
<path d="m147.02 905.91 0.7423-5.5367q0.31891-2.3787-2.0598-2.6976l-7.6738-1.0288q-2.3787-0.31891-2.6976 2.0598l-0.7423 5.5367q-0.31891 2.3787 2.0598 2.6976l7.6738 1.0288q2.3787 0.31891 2.6976-2.0598z" clip-path="url(#a)" fill="#fff" stroke="#fff"/>
<g clip-path="url(#a)">
<g transform="translate(142.99 905.37) rotate(-82.364) scale(.08 -.08)">
<use xlink:href="#s"/>
</g>
</g>
<path d="m150 900.68 0.70166 5.0061q0.33314 2.3768 2.7099 2.0436l7.6676-1.0747q2.3768-0.33314 2.0436-2.7099l-0.70167-5.0061q-0.33314-2.3768-2.7099-2.0436l-7.6675 1.0747q-2.3768 0.33314-2.0436 2.7099z" clip-path="url(#a)" fill="#fff" stroke="#fff"/>
<g clip-path="url(#a)">
<g transform="translate(154.03 900.12) rotate(82.021) scale(.08 -.08)">
<use xlink:href="#w"/>
</g>
</g>
<path d="m154.61 905.28 0.03568-5.8549q0.014625-2.4-2.3853-2.4146l-7.7424-0.047182q-2.4-0.014626-2.4146 2.3853l-0.03568 5.8549q-0.014626 2.4 2.3853 2.4146l7.7424 0.047182q2.4 0.014626 2.4146-2.3853z" clip-path="url(#a)" fill="#fff" stroke="#fff"/>
<g clip-path="url(#a)">
<g transform="translate(150.55 905.25) rotate(-89.651) scale(.08 -.08)">
<use xlink:href="#aa"/>
</g>
</g>
<path d="m176.62 996.85v33.808q0 2.4 2.4 2.4h7.7425q2.4 0 2.4-2.4v-33.808q0-2.4-2.4-2.4h-7.7425q-2.4 0-2.4 2.4z" clip-path="url(#a)" fill="#fff" stroke="#fff"/>
<g clip-path="url(#a)">
<g transform="translate(180.68 996.85) rotate(90) scale(.08 -.08)">
<use xlink:href="#l"/>
<use x="44.083984" xlink:href="#g"/>
<use x="105.607422" xlink:href="#i"/>
<use x="144.970703" xlink:href="#k"/>
<use x="242.382812" xlink:href="#h"/>
<use x="270.166016" xlink:href="#d"/>
<use x="333.544922" xlink:href="#e"/>
<use x="394.824219" xlink:href="#j"/>
</g>
</g>
<path d="m127.38 996.85v33.808q0 2.4 2.4 2.4h7.7425q2.4 0 2.4-2.4v-33.808q0-2.4-2.4-2.4h-7.7425q-2.4 0-2.4 2.4z" clip-path="url(#a)" fill="#fff" stroke="#fff"/>
<g clip-path="url(#a)">
<g transform="translate(131.45 996.85) rotate(90) scale(.08 -.08)">
<use xlink:href="#l"/>
<use x="44.083984" xlink:href="#g"/>
<use x="105.607422" xlink:href="#i"/>
<use x="144.970703" xlink:href="#k"/>
<use x="242.382812" xlink:href="#h"/>
<use x="270.166016" xlink:href="#d"/>
<use x="333.544922" xlink:href="#e"/>
<use x="394.824219" xlink:href="#j"/>
</g>
</g>
<path d="m158.15 996.85v33.808q0 2.4 2.4 2.4h7.7425q2.4 0 2.4-2.4v-33.808q0-2.4-2.4-2.4h-7.7425q-2.4 0-2.4 2.4z" clip-path="url(#a)" fill="#fff" stroke="#fff"/>
<g clip-path="url(#a)">
<g transform="translate(162.22 996.85) rotate(90) scale(.08 -.08)">
<use xlink:href="#l"/>
<use x="44.083984" xlink:href="#g"/>
<use x="105.607422" xlink:href="#i"/>
<use x="144.970703" xlink:href="#k"/>
<use x="242.382812" xlink:href="#h"/>
<use x="270.166016" xlink:href="#d"/>
<use x="333.544922" xlink:href="#e"/>
<use x="394.824219" xlink:href="#j"/>
</g>
</g>
<path d="m141.74 996.85v33.808q0 2.4 2.4 2.4h7.7425q2.4 0 2.4-2.4v-33.808q0-2.4-2.4-2.4h-7.7425q-2.4 0-2.4 2.4z" clip-path="url(#a)" fill="#fff" stroke="#fff"/>
<g clip-path="url(#a)">
<g transform="translate(145.81 996.85) rotate(90) scale(.08 -.08)">
<use xlink:href="#l"/>
<use x="44.083984" xlink:href="#g"/>
<use x="105.607422" xlink:href="#i"/>
<use x="144.970703" xlink:href="#k"/>
<use x="242.382812" xlink:href="#h"/>
<use x="270.166016" xlink:href="#d"/>
<use x="333.544922" xlink:href="#e"/>
<use x="394.824219" xlink:href="#j"/>
</g>
</g>
<path d="m197.13 996.85v33.808q0 2.4 2.4 2.4h7.7425q2.4 0 2.4-2.4v-33.808q0-2.4-2.4-2.4h-7.7425q-2.4 0-2.4 2.4z" clip-path="url(#a)" fill="#fff" stroke="#fff"/>
<g clip-path="url(#a)">
<g transform="translate(201.2 996.85) rotate(90) scale(.08 -.08)">
<use xlink:href="#l"/>
<use x="44.083984" xlink:href="#g"/>
<use x="105.607422" xlink:href="#i"/>
<use x="144.970703" xlink:href="#k"/>
<use x="242.382812" xlink:href="#h"/>
<use x="270.166016" xlink:href="#d"/>
<use x="333.544922" xlink:href="#e"/>
<use x="394.824219" xlink:href="#j"/>
</g>
</g>
<path d="m558.19 996.85v33.808q0 2.4 2.4 2.4h7.7425q2.4 0 2.4-2.4v-33.808q0-2.4-2.4-2.4h-7.7425q-2.4 0-2.4 2.4z" clip-path="url(#a)" fill="#fff" stroke="#fff"/>
<g clip-path="url(#a)">
<g transform="translate(562.26 996.85) rotate(90) scale(.08 -.08)">
<use xlink:href="#l"/>
<use x="44.083984" xlink:href="#g"/>
<use x="105.607422" xlink:href="#i"/>
<use x="144.970703" xlink:href="#k"/>
<use x="242.382812" xlink:href="#h"/>
<use x="270.166016" xlink:href="#d"/>
<use x="333.544922" xlink:href="#e"/>
<use x="394.824219" xlink:href="#j"/>
</g>
</g>
<path d="m699.75 996.85v33.808q0 2.4 2.4 2.4h7.7425q2.4 0 2.4-2.4v-33.808q0-2.4-2.4-2.4h-7.7425q-2.4 0-2.4 2.4z" clip-path="url(#a)" fill="#fff" stroke="#fff"/>
<g clip-path="url(#a)">
<g transform="translate(703.81 996.85) rotate(90) scale(.08 -.08)">
<use xlink:href="#l"/>
<use x="44.083984" xlink:href="#g"/>
<use x="105.607422" xlink:href="#i"/>
<use x="144.970703" xlink:href="#k"/>
<use x="242.382812" xlink:href="#h"/>
<use x="270.166016" xlink:href="#d"/>
<use x="333.544922" xlink:href="#e"/>
<use x="394.824219" xlink:href="#j"/>
</g>
</g>
<path d="m917.2 996.85v33.808q0 2.4 2.4 2.4h7.7425q2.4 0 2.4-2.4v-33.808q0-2.4-2.4-2.4h-7.7425q-2.4 0-2.4 2.4z" clip-path="url(#a)" fill="#fff" stroke="#fff"/>
<g clip-path="url(#a)">
<g transform="translate(921.27 996.85) rotate(90) scale(.08 -.08)">
<use xlink:href="#l"/>
<use x="44.083984" xlink:href="#g"/>
<use x="105.607422" xlink:href="#i"/>
<use x="144.970703" xlink:href="#k"/>
<use x="242.382812" xlink:href="#h"/>
<use x="270.166016" xlink:href="#d"/>
<use x="333.544922" xlink:href="#e"/>
<use x="394.824219" xlink:href="#j"/>
</g>
</g>
<path d="m2025 996.85v33.808q0 2.4 2.4 2.4h7.7425q2.4 0 2.4-2.4v-33.808q0-2.4-2.4-2.4h-7.7425q-2.4 0-2.4 2.4z" clip-path="url(#a)" fill="#fff" stroke="#fff"/>
<g clip-path="url(#a)">
<g transform="translate(2029.1 996.85) rotate(90) scale(.08 -.08)">
<use xlink:href="#l"/>
<use x="44.083984" xlink:href="#g"/>
<use x="105.607422" xlink:href="#i"/>
<use x="144.970703" xlink:href="#k"/>
<use x="242.382812" xlink:href="#h"/>
<use x="270.166016" xlink:href="#d"/>
<use x="333.544922" xlink:href="#e"/>
<use x="394.824219" xlink:href="#j"/>
</g>
</g>
<defs>
<path id="b" d="m0 8.6603c2.2967 0 4.4997-0.9125 6.1237-2.5365 1.624-1.624 2.5365-3.827 2.5365-6.1237s-0.9125-4.4997-2.5365-6.1237c-1.624-1.624-3.827-2.5365-6.1237-2.5365s-4.4997 0.9125-6.1237 2.5365c-1.624 1.624-2.5365 3.827-2.5365 6.1237s0.9125 4.4997 2.5365 6.1237c1.624 1.624 3.827 2.5365 6.1237 2.5365z"/>
</defs>
<g clip-path="url(#a)" fill="#ffffff" stroke="#ffffff">
<use x="96.727273" y="1069.090909" xlink:href="#b"/>
<use x="102.881712" y="1069.090909" xlink:href="#b"/>
<use x="111.087631" y="1069.090909" xlink:href="#b"/>
<use x="121.34503" y="1069.090909" xlink:href="#b"/>
<use x="133.653909" y="1069.090909" xlink:href="#b"/>
<use x="148.014268" y="1069.090909" xlink:href="#b"/>
<use x="164.426106" y="1069.090909" xlink:href="#b"/>
<use x="182.889424" y="1069.090909" xlink:href="#b"/>
<use x="203.404223" y="1069.090909" xlink:href="#b"/>
<use x="225.9705" y="1069.090909" xlink:href="#b"/>
<use x="250.588258" y="1069.090909" xlink:href="#b"/>
<use x="277.257495" y="1069.090909" xlink:href="#b"/>
<use x="305.978213" y="1069.090909" xlink:href="#b"/>
<use x="336.75041" y="1069.090909" xlink:href="#b"/>
<use x="369.574087" y="1069.090909" xlink:href="#b"/>
<use x="404.449243" y="1069.090909" xlink:href="#b"/>
<use x="441.37588" y="1069.090909" xlink:href="#b"/>
<use x="480.353996" y="1069.090909" xlink:href="#b"/>
<use x="521.383592" y="1069.090909" xlink:href="#b"/>
<use x="564.464668" y="1069.090909" xlink:href="#b"/>
<use x="609.597224" y="1069.090909" xlink:href="#b"/>
<use x="656.781259" y="1069.090909" xlink:href="#b"/>
<use x="706.016774" y="1069.090909" xlink:href="#b"/>
<use x="757.303769" y="1069.090909" xlink:href="#b"/>
<use x="810.642244" y="1069.090909" xlink:href="#b"/>
<use x="866.032199" y="1069.090909" xlink:href="#b"/>
<use x="923.473633" y="1069.090909" xlink:href="#b"/>
<use x="982.966548" y="1069.090909" xlink:href="#b"/>
<use x="1044.510942" y="1069.090909" xlink:href="#b"/>
<use x="1108.106816" y="1069.090909" xlink:href="#b"/>
<use x="1173.754169" y="1069.090909" xlink:href="#b"/>
<use x="1241.453003" y="1069.090909" xlink:href="#b"/>
<use x="1311.203316" y="1069.090909" xlink:href="#b"/>
<use x="1383.005109" y="1069.090909" xlink:href="#b"/>
<use x="1456.858382" y="1069.090909" xlink:href="#b"/>
<use x="1532.763135" y="1069.090909" xlink:href="#b"/>
<use x="1610.719368" y="1069.090909" xlink:href="#b"/>
<use x="1690.72708" y="1069.090909" xlink:href="#b"/>
<use x="1772.786272" y="1069.090909" xlink:href="#b"/>
<use x="1856.896944" y="1069.090909" xlink:href="#b"/>
<use x="1943.059096" y="1069.090909" xlink:href="#b"/>
<use x="2031.272727" y="1069.090909" xlink:href="#b"/>
<use x="243.339703" y="50.909091" xlink:href="#b"/>
<use x="243.339703" y="165.105772" xlink:href="#b"/>
<use x="96.727273" y="958.418235" xlink:href="#b"/>
<use x="102.881712" y="958.418235" xlink:href="#b"/>
<use x="111.087631" y="958.418235" xlink:href="#b"/>
<use x="150.977516" y="733.405186" xlink:href="#b"/>
<use x="264.948617" y="846.205983" xlink:href="#b"/>
<use x="388.379318" y="846.205983" xlink:href="#b"/>
<use x="628.311338" y="279.159426" xlink:href="#b"/>
<use x="480.353996" y="958.418235" xlink:href="#b"/>
<use x="776.268679" y="393.049706" xlink:href="#b"/>
<use x="560.58965" y="733.405186" xlink:href="#b"/>
<use x="757.303769" y="958.418235" xlink:href="#b"/>
<use x="1081.164523" y="506.749445" xlink:href="#b"/>
<use x="838.337222" y="958.418235" xlink:href="#b"/>
<use x="1045.194768" y="846.205983" xlink:href="#b"/>
<use x="1517.652467" y="620.220482" xlink:href="#b"/>
<use x="1141.186928" y="846.205983" xlink:href="#b"/>
<use x="1495.836499" y="846.205983" xlink:href="#b"/>
<use x="1915.933974" y="733.405186" xlink:href="#b"/>
<use x="1773.470099" y="846.205983" xlink:href="#b"/>
<use x="1943.059096" y="958.418235" xlink:href="#b"/>
<use x="1690.72708" y="958.418235" xlink:href="#b"/>
<use x="1772.786272" y="958.418235" xlink:href="#b"/>
<use x="1856.896944" y="958.418235" xlink:href="#b"/>
<use x="1383.005109" y="958.418235" xlink:href="#b"/>
<use x="1456.858382" y="958.418235" xlink:href="#b"/>
<use x="1532.763135" y="958.418235" xlink:href="#b"/>
<use x="1610.719368" y="958.418235" xlink:href="#b"/>
<use x="1173.754169" y="958.418235" xlink:href="#b"/>
<use x="1241.453003" y="958.418235" xlink:href="#b"/>
<use x="1311.203316" y="958.418235" xlink:href="#b"/>
<use x="982.966548" y="958.418235" xlink:href="#b"/>
<use x="1044.510942" y="958.418235" xlink:href="#b"/>
<use x="1108.106816" y="958.418235" xlink:href="#b"/>
<use x="521.383592" y="958.418235" xlink:href="#b"/>
<use x="595.920692" y="846.205983" xlink:href="#b"/>
<use x="609.597224" y="958.418235" xlink:href="#b"/>
<use x="656.781259" y="958.418235" xlink:href="#b"/>
<use x="336.75041" y="958.418235" xlink:href="#b"/>
<use x="387.011665" y="958.418235" xlink:href="#b"/>
<use x="441.37588" y="958.418235" xlink:href="#b"/>
<use x="225.9705" y="958.418235" xlink:href="#b"/>
<use x="250.588258" y="958.418235" xlink:href="#b"/>
<use x="277.257495" y="958.418235" xlink:href="#b"/>
<use x="305.978213" y="958.418235" xlink:href="#b"/>
<use x="121.34503" y="958.418235" xlink:href="#b"/>
<use x="148.698094" y="846.205983" xlink:href="#b"/>
<use x="182.889424" y="958.418235" xlink:href="#b"/>
<use x="133.653909" y="958.418235" xlink:href="#b"/>
<use x="164.426106" y="958.418235" xlink:href="#b"/>
<use x="148.014268" y="958.418235" xlink:href="#b"/>
<use x="203.404223" y="958.418235" xlink:href="#b"/>
<use x="564.464668" y="958.418235" xlink:href="#b"/>
<use x="706.016774" y="958.418235" xlink:href="#b"/>
<use x="923.473633" y="958.418235" xlink:href="#b"/>
<use x="2031.272727" y="958.418235" xlink:href="#b"/>
</g>
<g clip-path="url(#a)">
<defs>
<path id="t" d="m30.609 48.391q-7.2188 0-11.422-5.6406t-4.2031-15.453 4.1719-15.453q4.1875-5.6406 11.453-5.6406 7.1875 0 11.375 5.6562 4.2031 5.6719 4.2031 15.438 0 9.7188-4.2031 15.406-4.1875 5.6875-11.375 5.6875zm0 7.6094q11.719 0 18.406-7.625 6.7031-7.6094 6.7031-21.078 0-13.422-6.7031-21.078-6.6875-7.6406-18.406-7.6406-11.766 0-18.438 7.6406-6.6562 7.6562-6.6562 21.078 0 13.469 6.6562 21.078 6.6719 7.625 18.438 7.625z"/>
</defs>
<g transform="translate(78.387 1071.9) scale(.1 -.1)">
<use xlink:href="#ag"/>
<use x="53.962891" xlink:href="#g"/>
<use x="115.486328" xlink:href="#d"/>
<use x="178.865234" xlink:href="#d"/>
<use x="242.244141" xlink:href="#t"/>
<use x="303.425781" xlink:href="#d"/>
</g>
</g>
<g clip-path="url(#a)">
<defs>
<path id="ad" d="m4.2031 54.688h8.9844l11.234-42.672 11.172 42.672h10.594l11.234-42.672 11.188 42.672h8.9844l-14.312-54.688h-10.594l-11.766 44.828-11.812-44.828h-10.609z"/>
<path id="z" d="m44.281 53.078v-8.5q-3.7969 1.9531-7.9062 2.9219-4.0938 0.98438-8.5 0.98438-6.6875 0-10.031-2.0469t-3.3438-6.1562q0-3.125 2.3906-4.9062t9.625-3.3906l3.0781-0.6875q9.5625-2.0469 13.594-5.7812t4.0312-10.422q0-7.625-6.0312-12.078-6.0312-4.4375-16.578-4.4375-4.3906 0-9.1562 0.85938t-10.031 2.5625v9.2812q4.9844-2.5938 9.8125-3.8906 4.8281-1.2812 9.5781-1.2812 6.3438 0 9.75 2.1719 3.4219 2.1719 3.4219 6.125 0 3.6562-2.4688 5.6094-2.4531 1.9531-10.812 3.7656l-3.125 0.73438q-8.3438 1.75-12.062 5.3906-3.7031 3.6406-3.7031 9.9844 0 7.7188 5.4688 11.906 5.4688 4.2031 15.531 4.2031 4.9688 0 9.3594-0.73438 4.4062-0.71875 8.1094-2.1875z"/>
</defs>
<g transform="translate(93.124 1071.9) scale(.1 -.1)">
<use xlink:href="#ad"/>
<use x="81.787109" xlink:href="#e"/>
<use x="143.066406" xlink:href="#z"/>
</g>
</g>
<g clip-path="url(#a)">
<defs>
<path id="ai" d="m48.688 27.297q0 9.9062-4.0781 15.547t-11.203 5.6406q-7.1406 0-11.219-5.6406t-4.0781-15.547 4.0781-15.547 11.219-5.6406q7.125 0 11.203 5.6406t4.0781 15.547zm-30.578 19.094q2.8438 4.875 7.1562 7.2344 4.3281 2.375 10.328 2.375 9.9688 0 16.188-7.9062 6.2344-7.9062 6.2344-20.797t-6.2344-20.812q-6.2188-7.9062-16.188-7.9062-6 0-10.328 2.375-4.3125 2.375-7.1562 7.25v-8.2031h-9.0312v75.984h9.0312z"/>
</defs>
<g transform="translate(99.717 1071.9) scale(.1 -.1)">
<use xlink:href="#ai"/>
<use x="63.476562" xlink:href="#t"/>
<use x="124.658203" xlink:href="#i"/>
<use x="164.021484" xlink:href="#d"/>
</g>
</g>
<g clip-path="url(#a)">
<g transform="translate(116.79 1071.9) scale(.1 -.1)">
<use xlink:href="#h"/>
<use x="27.783203" xlink:href="#d"/>
</g>
</g>
<g clip-path="url(#a)">
<g transform="translate(124.45 1071.9) scale(.1 -.1)">
<use xlink:href="#ad"/>
<use x="81.787109" xlink:href="#e"/>
<use x="143.066406" xlink:href="#i"/>
</g>
</g>
<g clip-path="url(#a)">
<defs>
<path id="aw" d="m4.8906 31.391h26.312v-8h-26.312z"/>
</defs>
<g transform="translate(146.21 1071.9) scale(.1 -.1)">
<use xlink:href="#aw"/>
</g>
</g>
<g clip-path="url(#a)">
<defs>
<path id="r" d="m18.312 70.219v-15.531h18.5v-6.9844h-18.5v-29.688q0-6.6875 1.8281-8.5938t7.4531-1.9062h9.2188v-7.5156h-9.2188q-10.406 0-14.359 3.875-3.9531 3.8906-3.9531 14.141v29.688h-6.5938v6.9844h6.5938v15.531z"/>
</defs>
<g transform="translate(153.13 1071.9) scale(.1 -.1)">
<use xlink:href="#r"/>
<use x="39.208984" xlink:href="#h"/>
<use x="66.992188" xlink:href="#k"/>
<use x="164.404297" xlink:href="#g"/>
</g>
</g>
<g clip-path="url(#a)">
<defs>
<path id="bd" d="m45.406 27.984q0 9.7656-4.0312 15.125-4.0156 5.375-11.297 5.375-7.2188 0-11.25-5.375-4.0312-5.3594-4.0312-15.125 0-9.7188 4.0312-15.094t11.25-5.375q7.2812 0 11.297 5.375 4.0312 5.375 4.0312 15.094zm8.9844-21.203q0-13.953-6.2031-20.766-6.1875-6.8125-18.984-6.8125-4.7344 0-8.9375 0.70312t-8.1562 2.1719v8.7344q3.9531-2.1406 7.8125-3.1562 3.8594-1.0312 7.8594-1.0312 8.8438 0 13.234 4.6094t4.3906 13.938v4.4531q-2.7812-4.8438-7.125-7.2344t-10.406-2.3906q-10.047 0-16.203 7.6562-6.1562 7.6719-6.1562 20.328 0 12.688 6.1562 20.344 6.1562 7.6719 16.203 7.6719 6.0625 0 10.406-2.3906t7.125-7.2188v8.2969h8.9844z"/>
<path id="am" d="m45.406 46.391v29.594h8.9844v-75.984h-8.9844v8.2031q-2.8281-4.875-7.1562-7.25-4.3125-2.375-10.375-2.375-9.9062 0-16.141 7.9062-6.2188 7.9219-6.2188 20.812t6.2188 20.797q6.2344 7.9062 16.141 7.9062 6.0625 0 10.375-2.375 4.3281-2.3594 7.1562-7.2344zm-30.609-19.094q0-9.9062 4.0781-15.547t11.203-5.6406 11.219 5.6406q4.1094 5.6406 4.1094 15.547t-4.1094 15.547q-4.0938 5.6406-11.219 5.6406t-11.203-5.6406-4.0781-15.547z"/>
</defs>
<g transform="translate(162.59 1071.9) scale(.1 -.1)">
<use xlink:href="#w"/>
<use x="63.183594" xlink:href="#d"/>
<use x="126.5625" xlink:href="#bd"/>
<use x="190.039062" xlink:href="#j"/>
<use x="217.822266" xlink:href="#e"/>
<use x="279.101562" xlink:href="#d"/>
<use x="342.480469" xlink:href="#am"/>
</g>
</g>
<g clip-path="url(#a)">
<defs>
<path id="ao" d="m11.719 12.406h10.297v-8.4062l-8-15.625h-6.2969l4 15.625z"/>
</defs>
<g transform="translate(201.82 1071.9) scale(.1 -.1)">
<use xlink:href="#ao"/>
</g>
</g>
<g clip-path="url(#a)">
<g transform="translate(219.74 1071.9) scale(.1 -.1)">
<use xlink:href="#t"/>
<use x="61.181641" xlink:href="#d"/>
</g>
</g>
<g clip-path="url(#a)">
<defs>
<path id="x" d="m10.984 1.5156v8.9844q3.7188-1.7656 7.5156-2.6875 3.8125-0.92188 7.4844-0.92188 9.7656 0 14.906 6.5625 5.1562 6.5625 5.8906 19.953-2.8281-4.2031-7.1875-6.4531-4.3438-2.25-9.6094-2.25-10.938 0-17.312 6.6094-6.375 6.625-6.375 18.109 0 11.219 6.6406 18 6.6406 6.7969 17.672 6.7969 12.656 0 19.312-9.7031 6.6719-9.6875 6.6719-28.141 0-17.234-8.1875-27.516-8.1719-10.281-21.984-10.281-3.7188 0-7.5312 0.73438-3.7969 0.73438-7.9062 2.2031zm19.625 30.906q6.6406 0 10.516 4.5312 3.8906 4.5469 3.8906 12.469 0 7.8594-3.8906 12.422-3.875 4.5625-10.516 4.5625t-10.516-4.5625-3.875-12.422q0-7.9219 3.875-12.469 3.875-4.5312 10.516-4.5312z"/>
</defs>
<g transform="translate(247.41 1071.9) scale(.1 -.1)">
<use xlink:href="#x"/>
</g>
</g>
<g clip-path="url(#a)">
<defs>
<path id="as" d="m39.406 66.219q-10.75 0-17.078-8.0156-6.3125-8-6.3125-21.828 0-13.766 6.3125-21.781 6.3281-8 17.078-8 10.734 0 17.016 8 6.2812 8.0156 6.2812 21.781 0 13.828-6.2812 21.828-6.2812 8.0156-17.016 8.0156zm0 8q15.328 0 24.5-10.281 9.1875-10.281 9.1875-27.562 0-17.234-9.1875-27.516-9.1719-10.281-24.5-10.281-15.375 0-24.594 10.25-9.2031 10.266-9.2031 27.547t9.2031 27.562q9.2188 10.281 24.594 10.281z"/>
<path id="an" d="m48.781 52.594v-8.4062q-3.8125 2.1094-7.6406 3.1562t-7.7344 1.0469q-8.75 0-13.594-5.5469-4.8281-5.5312-4.8281-15.547t4.8281-15.562q4.8438-5.5312 13.594-5.5312 3.9062 0 7.7344 1.0469t7.6406 3.1562v-8.3125q-3.7656-1.75-7.7969-2.625-4.0156-0.89062-8.5625-0.89062-12.359 0-19.641 7.7656-7.2656 7.7656-7.2656 20.953 0 13.375 7.3438 21.031 7.3594 7.6719 20.156 7.6719 4.1406 0 8.0938-0.85938 3.9531-0.84375 7.6719-2.5469z"/>
</defs>
<g transform="translate(257.25 1071.9) scale(.1 -.1)">
<use xlink:href="#as"/>
<use x="78.710938" xlink:href="#an"/>
<use x="133.691406" xlink:href="#r"/>
<use x="172.900391" xlink:href="#t"/>
<use x="234.082031" xlink:href="#ai"/>
<use x="297.558594" xlink:href="#g"/>
<use x="359.082031" xlink:href="#i"/>
</g>
</g>
<g clip-path="url(#a)">
<defs>
<path id="c" d="m12.406 8.2969h16.109v55.625l-17.531-3.5156v8.9844l17.438 3.5156h9.8594v-64.609h16.109v-8.2969h-41.984z"/>
<path id="n" d="m37.797 64.312-24.906-38.922h24.906zm-2.5938 8.5938h12.406v-47.516h10.406v-8.2031h-10.406v-17.188h-9.8125v17.188h-32.906v9.5156z"/>
<path id="y" d="m31.781 66.406q-7.6094 0-11.453-7.5-3.8281-7.4844-3.8281-22.531 0-14.984 3.8281-22.484 3.8438-7.5 11.453-7.5 7.6719 0 11.5 7.5 3.8438 7.5 3.8438 22.484 0 15.047-3.8438 22.531-3.8281 7.5-11.5 7.5zm0 7.8125q12.266 0 18.734-9.7031 6.4688-9.6875 6.4688-28.141 0-18.406-6.4688-28.109-6.4688-9.6875-18.734-9.6875-12.25 0-18.719 9.6875-6.4688 9.7031-6.4688 28.109 0 18.453 6.4688 28.141 6.4688 9.7031 18.719 9.7031z"/>
</defs>
<g transform="translate(293.25 1071.9) scale(.1 -.1)">
<use xlink:href="#c"/>
<use x="63.623047" xlink:href="#x"/>
<use x="127.246094" xlink:href="#n"/>
<use x="190.869141" xlink:href="#y"/>
</g>
</g>
<g clip-path="url(#a)">
<g transform="translate(331.73 1071.9) scale(.1 -.1)">
<use xlink:href="#e"/>
<use x="61.279297" xlink:href="#r"/>
</g>
</g>
<g clip-path="url(#a)">
<defs>
<path id="bb" d="m2.9844 54.688h9.5156l17.094-45.891 17.094 45.891h9.5156l-20.516-54.688h-12.203z"/>
<path id="aq" d="m18.109 8.2031v-29h-9.0312v75.484h9.0312v-8.2969q2.8438 4.875 7.1562 7.2344 4.3281 2.375 10.328 2.375 9.9688 0 16.188-7.9062 6.2344-7.9062 6.2344-20.797t-6.2344-20.812q-6.2188-7.9062-16.188-7.9062-6 0-10.328 2.375-4.3125 2.375-7.1562 7.25zm30.578 19.094q0 9.9062-4.0781 15.547t-11.203 5.6406q-7.1406 0-11.219-5.6406t-4.0781-15.547 4.0781-15.547 11.219-5.6406q7.125 0 11.203 5.6406t4.0781 15.547z"/>
</defs>
<g transform="translate(346.63 1071.9) scale(.1 -.1)">
<use xlink:href="#ag"/>
<use x="55.712891" xlink:href="#h"/>
<use x="83.496094" xlink:href="#bb"/>
<use x="142.675781" xlink:href="#g"/>
<use x="204.199219" xlink:href="#i"/>
<use x="245.3125" xlink:href="#aq"/>
<use x="308.789062" xlink:href="#t"/>
<use x="369.970703" xlink:href="#t"/>
<use x="431.152344" xlink:href="#j"/>
</g>
</g>
<g clip-path="url(#a)">
<defs>
<path id="au" d="m9.8125 72.906h14.703l18.594-49.609 18.703 49.609h14.703v-72.906h-9.625v64.016l-18.797-50h-9.9062l-18.797 50v-64.016h-9.5781z"/>
<path id="al" d="m32.172-5.0781q-3.7969-9.7656-7.4219-12.734-3.6094-2.9844-9.6562-2.9844h-7.1875v7.5156h5.2812q3.7031 0 5.75 1.7656 2.0625 1.75 4.5469 8.2969l1.6094 4.0938-22.109 53.812h9.5156l17.094-42.766 17.094 42.766h9.5156z"/>
</defs>
<g transform="translate(380.59 1071.9) scale(.1 -.1)">
<use xlink:href="#au"/>
<use x="86.279297" xlink:href="#e"/>
<use x="147.558594" xlink:href="#r"/>
<use x="186.767578" xlink:href="#g"/>
<use x="248.291016" xlink:href="#i"/>
<use x="287.654297" xlink:href="#d"/>
<use x="351.033203" xlink:href="#h"/>
<use x="378.816406" xlink:href="#r"/>
<use x="418.025391" xlink:href="#al"/>
</g>
</g>
<g clip-path="url(#a)">
<g transform="translate(420.98 1071.9) scale(.1 -.1)">
<use xlink:href="#ah"/>
<use x="75.195312" xlink:href="#t"/>
<use x="136.376953" xlink:href="#z"/>
<use x="188.476562" xlink:href="#aq"/>
<use x="251.953125" xlink:href="#h"/>
<use x="279.736328" xlink:href="#r"/>
<use x="318.945312" xlink:href="#e"/>
<use x="380.224609" xlink:href="#j"/>
</g>
</g>
<g clip-path="url(#a)">
<g transform="translate(475.33 1071.9) scale(.1 -.1)">
<use xlink:href="#r"/>
<use x="39.208984" xlink:href="#t"/>
</g>
</g>
<g clip-path="url(#a)">
<defs>
<path id="av" d="m9.8125 72.906h9.8594v-67.828q0-13.188-5-19.141t-16.094-5.9531h-3.75v8.2969h3.0781q6.5312 0 9.2188 3.6719 2.6875 3.6562 2.6875 13.125z"/>
<path id="bc" d="m8.5 21.578v33.109h8.9844v-32.766q0-7.7656 3.0156-11.656 3.0312-3.875 9.0938-3.875 7.2656 0 11.484 4.6406 4.2344 4.6406 4.2344 12.656v31h8.9844v-54.688h-8.9844v8.4062q-3.2656-4.9844-7.5938-7.4062-4.3125-2.4219-10.031-2.4219-9.4219 0-14.312 5.8594-4.875 5.8594-4.875 17.141z"/>
</defs>
<g transform="translate(510.9 1071.9) scale(.1 -.1)">
<use xlink:href="#av"/>
<use x="29.492188" xlink:href="#bc"/>
<use x="92.871094" xlink:href="#j"/>
<use x="120.654297" xlink:href="#h"/>
<use x="148.4375" xlink:href="#e"/>
</g>
</g>
<g clip-path="url(#a)">
<defs>
<path id="ay" d="m31 75.875q-6.5312-11.219-9.7188-22.219-3.1719-10.984-3.1719-22.266 0-11.266 3.2031-22.328t9.6875-22.25h-7.8125q-7.3125 11.484-10.953 22.562t-3.6406 22.016q0 10.891 3.6094 21.922 3.625 11.047 10.984 22.562z"/>
</defs>
<g transform="translate(562.51 1071.9) scale(.1 -.1)">
<use xlink:href="#ay"/>
</g>
</g>
<g clip-path="url(#a)">
<defs>
<path id="ba" d="m56.203 29.594v-4.3906h-41.312q0.59375-9.2812 5.5938-14.141t13.938-4.8594q5.1719 0 10.031 1.2656t9.6562 3.8125v-8.5q-4.8438-2.0469-9.9219-3.125t-10.297-1.0781q-13.094 0-20.734 7.6094-7.6406 7.625-7.6406 20.625 0 13.422 7.25 21.297 7.25 7.8906 19.562 7.8906 11.031 0 17.453-7.1094 6.4219-7.0938 6.4219-19.297zm-8.9844 2.6406q-0.09375 7.3594-4.125 11.75-4.0312 4.4062-10.672 4.4062-7.5156 0-12.031-4.25t-5.2031-11.969zm-8.6875 47.75h9.7188l-15.906-18.359h-7.4844z"/>
</defs>
<g transform="translate(600.28 1071.9) scale(.1 -.1)">
<use xlink:href="#d"/>
<use x="63.378906" xlink:href="#ba"/>
<use x="124.902344" xlink:href="#g"/>
</g>
</g>
<g clip-path="url(#a)">
<g transform="translate(637.99 1071.9) scale(.1 -.1)">
<use xlink:href="#af"/>
<use x="63.476562" xlink:href="#r"/>
<use x="102.685547" xlink:href="#e"/>
<use x="163.964844" xlink:href="#d"/>
<use x="227.34375" xlink:href="#j"/>
<use x="255.126953" xlink:href="#g"/>
<use x="316.650391" xlink:href="#al"/>
</g>
</g>
<g clip-path="url(#a)">
<defs>
<path id="ax" d="m8.0156 75.875h7.8125q7.3125-11.516 10.953-22.562 3.6406-11.031 3.6406-21.922 0-10.938-3.6406-22.016t-10.953-22.562h-7.8125q6.4844 11.188 9.6875 22.25t3.2031 22.328q0 11.281-3.2031 22.266-3.2031 11-9.6875 22.219z"/>
</defs>
<g transform="translate(704.07 1071.9) scale(.1 -.1)">
<use xlink:href="#ax"/>
</g>
</g>
<g clip-path="url(#a)">
<g transform="translate(747.9 1071.9) scale(.1 -.1)">
<use xlink:href="#e"/>
<use x="61.279297" xlink:href="#d"/>
<use x="124.658203" xlink:href="#am"/>
</g>
</g>
<g clip-path="url(#a)">
<defs>
<path id="ar" d="m37.109 75.984v-7.4844h-8.5938q-4.8281 0-6.7188-1.9531-1.875-1.9531-1.875-7.0312v-4.8281h14.797v-6.9844h-14.797v-47.703h-9.0312v47.703h-8.5938v6.9844h8.5938v3.8125q0 9.125 4.25 13.297 4.25 4.1875 13.469 4.1875z"/>
</defs>
<g transform="translate(795.88 1071.9) scale(.1 -.1)">
<use xlink:href="#q"/>
<use x="68.408203" xlink:href="#j"/>
<use x="96.191406" xlink:href="#ar"/>
<use x="131.396484" xlink:href="#i"/>
<use x="170.259766" xlink:href="#g"/>
<use x="231.783203" xlink:href="#am"/>
</g>
</g>
<g clip-path="url(#a)">
<g transform="translate(847.69 1071.9) scale(.1 -.1)">
<use xlink:href="#ag"/>
<use x="53.962891" xlink:href="#g"/>
<use x="115.486328" xlink:href="#d"/>
<use x="178.865234" xlink:href="#d"/>
<use x="242.244141" xlink:href="#t"/>
<use x="303.425781" xlink:href="#d"/>
</g>
</g>
<g clip-path="url(#a)">
<g transform="translate(921.88 1071.9) scale(.1 -.1)">
<use xlink:href="#ao"/>
</g>
</g>
<g clip-path="url(#a)">
<g transform="translate(979.9 1071.9) scale(.1 -.1)">
<use xlink:href="#e"/>
</g>
</g>
<g clip-path="url(#a)">
<defs>
<path id="ae" d="m54.891 33.016v-33.016h-8.9844v32.719q0 7.7656-3.0312 11.609-3.0312 3.8594-9.0781 3.8594-7.2812 0-11.484-4.6406-4.2031-4.625-4.2031-12.641v-30.906h-9.0312v75.984h9.0312v-29.797q3.2344 4.9375 7.5938 7.375 4.375 2.4375 10.094 2.4375 9.4219 0 14.25-5.8281 4.8438-5.8281 4.8438-17.156z"/>
</defs>
<g transform="translate(1020.5 1071.9) scale(.1 -.1)">
<use xlink:href="#k"/>
<use x="97.412109" xlink:href="#g"/>
<use x="158.935547" xlink:href="#i"/>
<use x="197.798828" xlink:href="#an"/>
<use x="252.779297" xlink:href="#ae"/>
<use x="316.158203" xlink:href="#e"/>
<use x="377.4375" xlink:href="#d"/>
<use x="440.816406" xlink:href="#r"/>
</g>
</g>
<g clip-path="url(#a)">
<g transform="translate(1088.3 1071.9) scale(.1 -.1)">
<use xlink:href="#z"/>
<use x="52.099609" xlink:href="#g"/>
<use x="113.623047" xlink:href="#e"/>
<use x="174.902344" xlink:href="#k"/>
<use x="272.314453" xlink:href="#e"/>
<use x="333.59375" xlink:href="#d"/>
</g>
</g>
<g clip-path="url(#a)">
<g transform="translate(1163.4 1071.9) scale(.1 -.1)">
<use xlink:href="#ad"/>
<use x="81.787109" xlink:href="#ae"/>
<use x="145.166016" xlink:href="#t"/>
</g>
</g>
<g clip-path="url(#a)">
<g transform="translate(1231.7 1071.9) scale(.1 -.1)">
<use xlink:href="#ad"/>
<use x="81.787109" xlink:href="#e"/>
<use x="143.066406" xlink:href="#z"/>
</g>
</g>
<g clip-path="url(#a)">
<g transform="translate(1298 1071.9) scale(.1 -.1)">
<use xlink:href="#e"/>
<use x="61.279297" xlink:href="#ad"/>
<use x="143.066406" xlink:href="#e"/>
<use x="204.345703" xlink:href="#al"/>
</g>
</g>
<g clip-path="url(#a)">
<g transform="translate(1378 1071.9) scale(.1 -.1)">
<use xlink:href="#e"/>
<use x="61.279297" xlink:href="#r"/>
</g>
</g>
<g clip-path="url(#a)">
<g transform="translate(1448.7 1071.9) scale(.1 -.1)">
<use xlink:href="#r"/>
<use x="39.208984" xlink:href="#ae"/>
<use x="102.587891" xlink:href="#g"/>
</g>
</g>
<g clip-path="url(#a)">
<g transform="translate(1521.5 1071.9) scale(.1 -.1)">
<use xlink:href="#r"/>
<use x="39.208984" xlink:href="#h"/>
<use x="66.992188" xlink:href="#k"/>
<use x="164.404297" xlink:href="#g"/>
</g>
</g>
<g clip-path="url(#a)">
<g transform="translate(1605.9 1071.9) scale(.1 -.1)">
<use xlink:href="#t"/>
<use x="61.181641" xlink:href="#ar"/>
</g>
</g>
<g clip-path="url(#a)">
<g transform="translate(1683.6 1071.9) scale(.1 -.1)">
<use xlink:href="#ae"/>
<use x="63.378906" xlink:href="#h"/>
<use x="91.162109" xlink:href="#z"/>
</g>
</g>
<g clip-path="url(#a)">
<g transform="translate(1764 1071.9) scale(.1 -.1)">
<use xlink:href="#z"/>
<use x="52.099609" xlink:href="#t"/>
<use x="113.28125" xlink:href="#d"/>
</g>
</g>
<g clip-path="url(#a)">
<defs>
<path id="az" d="m17.922 72.906v-27.109h-8.2969v27.109z"/>
</defs>
<g transform="translate(1852.9 1071.9) scale(.1 -.1)">
<use xlink:href="#az"/>
<use x="27.490234" xlink:href="#z"/>
</g>
</g>
<g clip-path="url(#a)">
<g transform="translate(1931.3 1071.9) scale(.1 -.1)">
<use xlink:href="#ai"/>
<use x="63.476562" xlink:href="#h"/>
<use x="91.259766" xlink:href="#i"/>
<use x="132.373047" xlink:href="#r"/>
<use x="171.582031" xlink:href="#ae"/>
</g>
</g>
<g clip-path="url(#a)">
<defs>
<path id="f" d="m10.688 12.406h10.312v-12.406h-10.312z"/>
</defs>
<g transform="translate(2029.7 1071.9) scale(.1 -.1)">
<use xlink:href="#f"/>
</g>
</g>
<g clip-path="url(#a)">
<g transform="translate(235.39 53.668) scale(.1 -.1)">
<use xlink:href="#c"/>
<use x="63.623047" xlink:href="#f"/>
<use x="95.410156" xlink:href="#c"/>
</g>
</g>
<g clip-path="url(#a)">
<defs>
<path id="p" d="m19.188 8.2969h34.422v-8.2969h-46.281v8.2969q5.6094 5.8125 15.297 15.594 9.7031 9.7969 12.188 12.641 4.7344 5.3125 6.6094 9 1.8906 3.6875 1.8906 7.25 0 5.8125-4.0781 9.4688-4.0781 3.6719-10.625 3.6719-4.6406 0-9.7969-1.6094-5.1406-1.6094-11-4.8906v9.9688q5.9531 2.3906 11.125 3.6094 5.1875 1.2188 9.4844 1.2188 11.328 0 18.062-5.6719 6.7344-5.6562 6.7344-15.125 0-4.5-1.6875-8.5312-1.6719-4.0156-6.125-9.4844-1.2188-1.4219-7.7656-8.1875-6.5312-6.7656-18.453-18.922z"/>
</defs>
<g transform="translate(235.39 167.87) scale(.1 -.1)">
<use xlink:href="#c"/>
<use x="63.623047" xlink:href="#f"/>
<use x="95.410156" xlink:href="#p"/>
</g>
</g>
<g clip-path="url(#a)">
<g transform="translate(88.776 961.18) scale(.1 -.1)">
<use xlink:href="#c"/>
<use x="63.623047" xlink:href="#f"/>
<use x="95.410156" xlink:href="#n"/>
</g>
</g>
<g clip-path="url(#a)">
<defs>
<path id="m" d="m10.797 72.906h38.719v-8.3125h-29.688v-17.859q2.1406 0.73438 4.2812 1.0938 2.1562 0.35938 4.3125 0.35938 12.203 0 19.328-6.6875 7.1406-6.6875 7.1406-18.109 0-11.766-7.3281-18.297-7.3281-6.5156-20.656-6.5156-4.5938 0-9.3594 0.78125-4.75 0.78125-9.8281 2.3438v9.9219q4.3906-2.3906 9.0781-3.5625t9.9062-1.1719q8.4531 0 13.375 4.4375 4.9375 4.4375 4.9375 12.062 0 7.6094-4.9375 12.047-4.9219 4.4531-13.375 4.4531-3.9531 0-7.8906-0.875-3.9219-0.875-8.0156-2.7344z"/>
</defs>
<g transform="translate(94.93 961.18) scale(.1 -.1)">
<use xlink:href="#c"/>
<use x="63.623047" xlink:href="#f"/>
<use x="95.410156" xlink:href="#m"/>
</g>
</g>
<g clip-path="url(#a)">
<defs>
<path id="u" d="m33.016 40.375q-6.6406 0-10.531-4.5469-3.875-4.5312-3.875-12.438 0-7.8594 3.875-12.438 3.8906-4.5625 10.531-4.5625t10.516 4.5625q3.875 4.5781 3.875 12.438 0 7.9062-3.875 12.438-3.875 4.5469-10.516 4.5469zm19.578 30.922v-8.9844q-3.7188 1.75-7.5 2.6719-3.7812 0.9375-7.5 0.9375-9.7656 0-14.922-6.5938-5.1406-6.5938-5.875-19.922 2.875 4.25 7.2188 6.5156 4.3594 2.2656 9.5781 2.2656 10.984 0 17.359-6.6719 6.375-6.6562 6.375-18.125 0-11.234-6.6406-18.031-6.6406-6.7812-17.672-6.7812-12.656 0-19.344 9.6875-6.6875 9.7031-6.6875 28.109 0 17.281 8.2031 27.562t22.016 10.281q3.7188 0 7.5-0.73438t7.8906-2.1875z"/>
</defs>
<g transform="translate(103.14 961.18) scale(.1 -.1)">
<use xlink:href="#c"/>
<use x="63.623047" xlink:href="#f"/>
<use x="95.410156" xlink:href="#u"/>
</g>
</g>
<g clip-path="url(#a)">
<defs>
<path id="ac" d="m8.2031 72.906h46.875v-4.2031l-26.469-68.703h-10.297l24.906 64.594h-35.016z"/>
</defs>
<g transform="translate(143.03 736.16) scale(.1 -.1)">
<use xlink:href="#c"/>
<use x="63.623047" xlink:href="#f"/>
<use x="95.410156" xlink:href="#ac"/>
</g>
</g>
<g clip-path="url(#a)">
<defs>
<path id="ab" d="m31.781 34.625q-7.0312 0-11.062-3.7656-4.0156-3.7656-4.0156-10.344 0-6.5938 4.0156-10.359 4.0312-3.7656 11.062-3.7656t11.078 3.7812q4.0625 3.7969 4.0625 10.344 0 6.5781-4.0312 10.344-4.0156 3.7656-11.109 3.7656zm-9.8594 4.1875q-6.3438 1.5625-9.8906 5.9062-3.5312 4.3594-3.5312 10.609 0 8.7344 6.2188 13.812 6.2344 5.0781 17.062 5.0781 10.891 0 17.094-5.0781t6.2031-13.812q0-6.25-3.5469-10.609-3.5312-4.3438-9.8281-5.9062 7.125-1.6562 11.094-6.5 3.9844-4.8281 3.9844-11.797 0-10.609-6.4688-16.281-6.4688-5.6562-18.531-5.6562-12.047 0-18.531 5.6562-6.4688 5.6719-6.4688 16.281 0 6.9688 4 11.797 4.0156 4.8438 11.141 6.5zm-3.6094 15.578q0-5.6562 3.5312-8.8281 3.5469-3.1719 9.9375-3.1719 6.3594 0 9.9375 3.1719 3.5938 3.1719 3.5938 8.8281 0 5.6719-3.5938 8.8438-3.5781 3.1719-9.9375 3.1719-6.3906 0-9.9375-3.1719-3.5312-3.1719-3.5312-8.8438z"/>
</defs>
<g transform="translate(257 848.97) scale(.1 -.1)">
<use xlink:href="#c"/>
<use x="63.623047" xlink:href="#f"/>
<use x="95.410156" xlink:href="#ab"/>
</g>
</g>
<g clip-path="url(#a)">
<g transform="translate(380.43 848.97) scale(.1 -.1)">
<use xlink:href="#c"/>
<use x="63.623047" xlink:href="#f"/>
<use x="95.410156" xlink:href="#x"/>
</g>
</g>
<g clip-path="url(#a)">
<g transform="translate(617.18 281.92) scale(.1 -.1)">
<use xlink:href="#c"/>
<use x="63.623047" xlink:href="#f"/>
<use x="95.410156" xlink:href="#c"/>
<use x="159.033203" xlink:href="#y"/>
</g>
</g>
<g clip-path="url(#a)">
<g transform="translate(469.22 961.18) scale(.1 -.1)">
<use xlink:href="#c"/>
<use x="63.623047" xlink:href="#f"/>
<use x="95.410156" xlink:href="#c"/>
<use x="159.033203" xlink:href="#p"/>
</g>
</g>
<g clip-path="url(#a)">
<defs>
<path id="o" d="m40.578 39.312q7.0781-1.5156 11.047-6.3125 3.9844-4.7812 3.9844-11.812 0-10.781-7.4219-16.703-7.4219-5.9062-21.094-5.9062-4.5781 0-9.4375 0.90625t-10.031 2.7188v9.5156q4.0938-2.3906 8.9688-3.6094 4.8906-1.2188 10.219-1.2188 9.2656 0 14.125 3.6562t4.8594 10.641q0 6.4531-4.5156 10.078-4.5156 3.6406-12.562 3.6406h-8.5v8.1094h8.8906q7.2656 0 11.125 2.9062t3.8594 8.375q0 5.6094-3.9844 8.6094-3.9688 3.0156-11.391 3.0156-4.0625 0-8.7031-0.89062-4.6406-0.875-10.203-2.7188v8.7812q5.625 1.5625 10.531 2.3438t9.25 0.78125q11.234 0 17.766-5.1094 6.5469-5.0938 6.5469-13.781 0-6.0625-3.4688-10.234t-9.8594-5.7812z"/>
</defs>
<g transform="translate(765.14 395.81) scale(.1 -.1)">
<use xlink:href="#c"/>
<use x="63.623047" xlink:href="#f"/>
<use x="95.410156" xlink:href="#c"/>
<use x="159.033203" xlink:href="#o"/>
</g>
</g>
<g clip-path="url(#a)">
<g transform="translate(549.46 736.16) scale(.1 -.1)">
<use xlink:href="#c"/>
<use x="63.623047" xlink:href="#f"/>
<use x="95.410156" xlink:href="#c"/>
<use x="159.033203" xlink:href="#n"/>
</g>
</g>
<g clip-path="url(#a)">
<g transform="translate(746.17 961.18) scale(.1 -.1)">
<use xlink:href="#c"/>
<use x="63.623047" xlink:href="#f"/>
<use x="95.410156" xlink:href="#c"/>
<use x="159.033203" xlink:href="#m"/>
</g>
</g>
<g clip-path="url(#a)">
<g transform="translate(1070 509.51) scale(.1 -.1)">
<use xlink:href="#c"/>
<use x="63.623047" xlink:href="#f"/>
<use x="95.410156" xlink:href="#c"/>
<use x="159.033203" xlink:href="#u"/>
</g>
</g>
<g clip-path="url(#a)">
<g transform="translate(827.2 961.18) scale(.1 -.1)">
<use xlink:href="#c"/>
<use x="63.623047" xlink:href="#f"/>
<use x="95.410156" xlink:href="#c"/>
<use x="159.033203" xlink:href="#ab"/>
</g>
</g>
<g clip-path="url(#a)">
<g transform="translate(1034.1 848.97) scale(.1 -.1)">
<use xlink:href="#c"/>
<use x="63.623047" xlink:href="#f"/>
<use x="95.410156" xlink:href="#c"/>
<use x="159.033203" xlink:href="#x"/>
</g>
</g>
<g clip-path="url(#a)">
<g transform="translate(1506.5 622.98) scale(.1 -.1)">
<use xlink:href="#c"/>
<use x="63.623047" xlink:href="#f"/>
<use x="95.410156" xlink:href="#p"/>
<use x="159.033203" xlink:href="#y"/>
</g>
</g>
<g clip-path="url(#a)">
<g transform="translate(1130.1 848.97) scale(.1 -.1)">
<use xlink:href="#c"/>
<use x="63.623047" xlink:href="#f"/>
<use x="95.410156" xlink:href="#p"/>
<use x="159.033203" xlink:href="#p"/>
</g>
</g>
<g clip-path="url(#a)">
<g transform="translate(1484.7 848.97) scale(.1 -.1)">
<use xlink:href="#c"/>
<use x="63.623047" xlink:href="#f"/>
<use x="95.410156" xlink:href="#p"/>
<use x="159.033203" xlink:href="#o"/>
</g>
</g>
<g clip-path="url(#a)">
<g transform="translate(1904.8 736.16) scale(.1 -.1)">
<use xlink:href="#c"/>
<use x="63.623047" xlink:href="#f"/>
<use x="95.410156" xlink:href="#p"/>
<use x="159.033203" xlink:href="#n"/>
</g>
</g>
<g clip-path="url(#a)">
<g transform="translate(1762.3 848.97) scale(.1 -.1)">
<use xlink:href="#c"/>
<use x="63.623047" xlink:href="#f"/>
<use x="95.410156" xlink:href="#p"/>
<use x="159.033203" xlink:href="#m"/>
</g>
</g>
<g clip-path="url(#a)">
<g transform="translate(1931.9 961.18) scale(.1 -.1)">
<use xlink:href="#c"/>
<use x="63.623047" xlink:href="#f"/>
<use x="95.410156" xlink:href="#p"/>
<use x="159.033203" xlink:href="#u"/>
</g>
</g>
<g clip-path="url(#a)">
<g transform="translate(1679.6 961.18) scale(.1 -.1)">
<use xlink:href="#c"/>
<use x="63.623047" xlink:href="#f"/>
<use x="95.410156" xlink:href="#p"/>
<use x="159.033203" xlink:href="#ac"/>
</g>
</g>
<g clip-path="url(#a)">
<g transform="translate(1761.7 961.18) scale(.1 -.1)">
<use xlink:href="#c"/>
<use x="63.623047" xlink:href="#f"/>
<use x="95.410156" xlink:href="#p"/>
<use x="159.033203" xlink:href="#ab"/>
</g>
</g>
<g clip-path="url(#a)">
<g transform="translate(1845.8 961.18) scale(.1 -.1)">
<use xlink:href="#c"/>
<use x="63.623047" xlink:href="#f"/>
<use x="95.410156" xlink:href="#p"/>
<use x="159.033203" xlink:href="#x"/>
</g>
</g>
<g clip-path="url(#a)">
<g transform="translate(1371.9 961.18) scale(.1 -.1)">
<use xlink:href="#c"/>
<use x="63.623047" xlink:href="#f"/>
<use x="95.410156" xlink:href="#o"/>
<use x="159.033203" xlink:href="#y"/>
</g>
</g>
<g clip-path="url(#a)">
<g transform="translate(1445.7 961.18) scale(.1 -.1)">
<use xlink:href="#c"/>
<use x="63.623047" xlink:href="#f"/>
<use x="95.410156" xlink:href="#o"/>
<use x="159.033203" xlink:href="#c"/>
</g>
</g>
<g clip-path="url(#a)">
<g transform="translate(1521.6 961.18) scale(.1 -.1)">
<use xlink:href="#c"/>
<use x="63.623047" xlink:href="#f"/>
<use x="95.410156" xlink:href="#o"/>
<use x="159.033203" xlink:href="#p"/>
</g>
</g>
<g clip-path="url(#a)">
<g transform="translate(1599.6 961.18) scale(.1 -.1)">
<use xlink:href="#c"/>
<use x="63.623047" xlink:href="#f"/>
<use x="95.410156" xlink:href="#o"/>
<use x="159.033203" xlink:href="#o"/>
</g>
</g>
<g clip-path="url(#a)">
<g transform="translate(1162.6 961.18) scale(.1 -.1)">
<use xlink:href="#c"/>
<use x="63.623047" xlink:href="#f"/>
<use x="95.410156" xlink:href="#o"/>
<use x="159.033203" xlink:href="#n"/>
</g>
</g>
<g clip-path="url(#a)">
<g transform="translate(1230.3 961.18) scale(.1 -.1)">
<use xlink:href="#c"/>
<use x="63.623047" xlink:href="#f"/>
<use x="95.410156" xlink:href="#o"/>
<use x="159.033203" xlink:href="#m"/>
</g>
</g>
<g clip-path="url(#a)">
<g transform="translate(1300.1 961.18) scale(.1 -.1)">
<use xlink:href="#c"/>
<use x="63.623047" xlink:href="#f"/>
<use x="95.410156" xlink:href="#o"/>
<use x="159.033203" xlink:href="#u"/>
</g>
</g>
<g clip-path="url(#a)">
<g transform="translate(971.83 961.18) scale(.1 -.1)">
<use xlink:href="#c"/>
<use x="63.623047" xlink:href="#f"/>
<use x="95.410156" xlink:href="#o"/>
<use x="159.033203" xlink:href="#ac"/>
</g>
</g>
<g clip-path="url(#a)">
<g transform="translate(1033.4 961.18) scale(.1 -.1)">
<use xlink:href="#c"/>
<use x="63.623047" xlink:href="#f"/>
<use x="95.410156" xlink:href="#o"/>
<use x="159.033203" xlink:href="#ab"/>
</g>
</g>
<g clip-path="url(#a)">
<g transform="translate(1097 961.18) scale(.1 -.1)">
<use xlink:href="#c"/>
<use x="63.623047" xlink:href="#f"/>
<use x="95.410156" xlink:href="#o"/>
<use x="159.033203" xlink:href="#x"/>
</g>
</g>
<g clip-path="url(#a)">
<g transform="translate(510.25 961.18) scale(.1 -.1)">
<use xlink:href="#c"/>
<use x="63.623047" xlink:href="#f"/>
<use x="95.410156" xlink:href="#n"/>
<use x="159.033203" xlink:href="#y"/>
</g>
</g>
<g clip-path="url(#a)">
<g transform="translate(584.79 848.97) scale(.1 -.1)">
<use xlink:href="#c"/>
<use x="63.623047" xlink:href="#f"/>
<use x="95.410156" xlink:href="#n"/>
<use x="159.033203" xlink:href="#c"/>
</g>
</g>
<g clip-path="url(#a)">
<g transform="translate(598.46 961.18) scale(.1 -.1)">
<use xlink:href="#c"/>
<use x="63.623047" xlink:href="#f"/>
<use x="95.410156" xlink:href="#n"/>
<use x="159.033203" xlink:href="#o"/>
</g>
</g>
<g clip-path="url(#a)">
<g transform="translate(645.65 961.18) scale(.1 -.1)">
<use xlink:href="#c"/>
<use x="63.623047" xlink:href="#f"/>
<use x="95.410156" xlink:href="#n"/>
<use x="159.033203" xlink:href="#n"/>
</g>
</g>
<g clip-path="url(#a)">
<g transform="translate(325.62 961.18) scale(.1 -.1)">
<use xlink:href="#c"/>
<use x="63.623047" xlink:href="#f"/>
<use x="95.410156" xlink:href="#n"/>
<use x="159.033203" xlink:href="#m"/>
</g>
</g>
<g clip-path="url(#a)">
<g transform="translate(375.88 961.18) scale(.1 -.1)">
<use xlink:href="#c"/>
<use x="63.623047" xlink:href="#f"/>
<use x="95.410156" xlink:href="#n"/>
<use x="159.033203" xlink:href="#u"/>
</g>
</g>
<g clip-path="url(#a)">
<g transform="translate(430.24 961.18) scale(.1 -.1)">
<use xlink:href="#c"/>
<use x="63.623047" xlink:href="#f"/>
<use x="95.410156" xlink:href="#n"/>
<use x="159.033203" xlink:href="#ac"/>
</g>
</g>
<g clip-path="url(#a)">
<g transform="translate(214.84 961.18) scale(.1 -.1)">
<use xlink:href="#c"/>
<use x="63.623047" xlink:href="#f"/>
<use x="95.410156" xlink:href="#n"/>
<use x="159.033203" xlink:href="#ab"/>
</g>
</g>
<g clip-path="url(#a)">
<g transform="translate(239.46 961.18) scale(.1 -.1)">
<use xlink:href="#c"/>
<use x="63.623047" xlink:href="#f"/>
<use x="95.410156" xlink:href="#n"/>
<use x="159.033203" xlink:href="#x"/>
</g>
</g>
<g clip-path="url(#a)">
<g transform="translate(266.12 961.18) scale(.1 -.1)">
<use xlink:href="#c"/>
<use x="63.623047" xlink:href="#f"/>
<use x="95.410156" xlink:href="#m"/>
<use x="159.033203" xlink:href="#y"/>
</g>
</g>
<g clip-path="url(#a)">
<g transform="translate(294.85 961.18) scale(.1 -.1)">
<use xlink:href="#c"/>
<use x="63.623047" xlink:href="#f"/>
<use x="95.410156" xlink:href="#m"/>
<use x="159.033203" xlink:href="#c"/>
</g>
</g>
<g clip-path="url(#a)">
<g transform="translate(110.21 961.18) scale(.1 -.1)">
<use xlink:href="#c"/>
<use x="63.623047" xlink:href="#f"/>
<use x="95.410156" xlink:href="#m"/>
<use x="159.033203" xlink:href="#p"/>
</g>
</g>
<g clip-path="url(#a)">
<g transform="translate(137.57 848.97) scale(.1 -.1)">
<use xlink:href="#c"/>
<use x="63.623047" xlink:href="#f"/>
<use x="95.410156" xlink:href="#m"/>
<use x="159.033203" xlink:href="#o"/>
</g>
</g>
<g clip-path="url(#a)">
<g transform="translate(171.76 961.18) scale(.1 -.1)">
<use xlink:href="#c"/>
<use x="63.623047" xlink:href="#f"/>
<use x="95.410156" xlink:href="#m"/>
<use x="159.033203" xlink:href="#n"/>
</g>
</g>
<g clip-path="url(#a)">
<g transform="translate(122.52 961.18) scale(.1 -.1)">
<use xlink:href="#c"/>
<use x="63.623047" xlink:href="#f"/>
<use x="95.410156" xlink:href="#m"/>
<use x="159.033203" xlink:href="#m"/>
</g>
</g>
<g clip-path="url(#a)">
<g transform="translate(153.29 961.18) scale(.1 -.1)">
<use xlink:href="#c"/>
<use x="63.623047" xlink:href="#f"/>
<use x="95.410156" xlink:href="#m"/>
<use x="159.033203" xlink:href="#u"/>
</g>
</g>
<g clip-path="url(#a)">
<g transform="translate(136.88 961.18) scale(.1 -.1)">
<use xlink:href="#c"/>
<use x="63.623047" xlink:href="#f"/>
<use x="95.410156" xlink:href="#m"/>
<use x="159.033203" xlink:href="#ac"/>
</g>
</g>
<g clip-path="url(#a)">
<g transform="translate(192.27 961.18) scale(.1 -.1)">
<use xlink:href="#c"/>
<use x="63.623047" xlink:href="#f"/>
<use x="95.410156" xlink:href="#m"/>
<use x="159.033203" xlink:href="#ab"/>
</g>
</g>
<g clip-path="url(#a)">
<g transform="translate(553.33 961.18) scale(.1 -.1)">
<use xlink:href="#c"/>
<use x="63.623047" xlink:href="#f"/>
<use x="95.410156" xlink:href="#m"/>
<use x="159.033203" xlink:href="#x"/>
</g>
</g>
<g clip-path="url(#a)">
<g transform="translate(694.88 961.18) scale(.1 -.1)">
<use xlink:href="#c"/>
<use x="63.623047" xlink:href="#f"/>
<use x="95.410156" xlink:href="#u"/>
<use x="159.033203" xlink:href="#y"/>
</g>
</g>
<g clip-path="url(#a)">
<g transform="translate(912.34 961.18) scale(.1 -.1)">
<use xlink:href="#c"/>
<use x="63.623047" xlink:href="#f"/>
<use x="95.410156" xlink:href="#u"/>
<use x="159.033203" xlink:href="#c"/>
</g>
</g>
<g clip-path="url(#a)">
<g transform="translate(2020.1 961.18) scale(.1 -.1)">
<use xlink:href="#c"/>
<use x="63.623047" xlink:href="#f"/>
<use x="95.410156" xlink:href="#u"/>
<use x="159.033203" xlink:href="#p"/>
</g>
</g>
<defs>
<clipPath id="a">
<rect width="2128" height="1120"/>
</clipPath>
</defs>
</svg>
