<?xml version="1.0" encoding="UTF-8"?>
<!DOCTYPE svg  PUBLIC '-//W3C//DTD SVG 1.1//EN'  'http://www.w3.org/Graphics/SVG/1.1/DTD/svg11.dtd'>
<svg width="1621.3pt" height="853.33pt" version="1.1" viewBox="0 0 1621.3 853.33" xmlns="http://www.w3.org/2000/svg" xmlns:xlink="http://www.w3.org/1999/xlink">
<defs>
<style type="text/css">*{stroke-linecap:butt;stroke-linejoin:round;}</style>
</defs>
<path d="m0 853.33h1621.3v-853.33h-1621.3z" fill="#fff"/>
<g fill="none" stroke="#000">
<path d="m485.74 38.788-153.85 130.47" clip-path="url(#a)"/>
<path d="m485.74 38.788 41.898 130.47" clip-path="url(#a)"/>
<path d="m485.74 38.788 30.926 648.76" clip-path="url(#a)"/>
<path d="m485.74 38.788 81.024 648.76" clip-path="url(#a)"/>
<path d="m331.9 169.26-234.16 130.21" clip-path="url(#a)"/>
<path d="m331.9 169.26 30.524 389.53" clip-path="url(#a)"/>
<path d="m331.9 169.26 92.487 518.29" clip-path="url(#a)"/>
<path d="m331.9 169.26 137.31 518.29" clip-path="url(#a)"/>
<path d="m331.9 169.26-26.166 518.29" clip-path="url(#a)"/>
<path d="m527.64 169.26 1020 130.21" clip-path="url(#a)"/>
<path d="m527.64 169.26 446.03 130.21" clip-path="url(#a)"/>
<path d="m527.64 169.26-446.03 518.29" clip-path="url(#a)" stroke-dasharray="3.7,1.6"/>
<path d="m973.68 299.47-260.57 129.88" clip-path="url(#a)"/>
<path d="m973.68 299.47-50.948 388.08" clip-path="url(#a)"/>
<path d="m973.68 299.47 311.52 129.88" clip-path="url(#a)"/>
<path d="m713.11 429.35-93.604 258.2" clip-path="url(#a)"/>
<path d="m713.11 429.35-38.233 258.2" clip-path="url(#a)"/>
<path d="m713.11 429.35 19.776 258.2" clip-path="url(#a)"/>
<path d="m713.11 429.35 112.06 129.44" clip-path="url(#a)"/>
<path d="m922.73 687.55v127" clip-path="url(#a)"/>
<path d="m1285.2 429.35-293.91 258.2" clip-path="url(#a)"/>
<path d="m1285.2 429.35-67.149 258.2" clip-path="url(#a)"/>
<path d="m1285.2 429.35-71.544 129.44" clip-path="url(#a)"/>
<path d="m1285.2 429.35 172.79 258.2" clip-path="url(#a)"/>
<path d="m1285.2 429.35 259.81 258.2" clip-path="url(#a)"/>
<path d="m991.28 687.55v127" clip-path="url(#a)"/>
<path d="m1218 687.55-155.57 127" clip-path="url(#a)"/>
<path d="m1218 687.55 155.57 127" clip-path="url(#a)"/>
<path d="m1213.6 558.78-77.344 128.76" clip-path="url(#a)"/>
<path d="m1213.6 558.78-0.87891 128.76" clip-path="url(#a)"/>
<path d="m1213.6 558.78 78.223 128.76" clip-path="url(#a)"/>
<path d="m1136.3 687.55v127" clip-path="url(#a)"/>
<path d="m1212.8 687.55v127" clip-path="url(#a)"/>
<path d="m1291.9 687.55v127" clip-path="url(#a)"/>
<path d="m619.5 687.55v127" clip-path="url(#a)"/>
<path d="m674.87 687.55v127" clip-path="url(#a)"/>
<path d="m732.88 687.55v127" clip-path="url(#a)"/>
<path d="m825.17 558.78-31.641 128.76" clip-path="url(#a)"/>
<path d="m825.17 558.78 31.641 128.76" clip-path="url(#a)"/>
<path d="m793.53 687.55v127" clip-path="url(#a)"/>
<path d="m856.81 687.55v127" clip-path="url(#a)"/>
<path d="m97.739 299.47-24.042 388.08" clip-path="url(#a)"/>
<path d="m97.739 299.47-16.132 388.08" clip-path="url(#a)"/>
<path d="m97.739 299.47 45.758 129.88" clip-path="url(#a)"/>
<path d="m97.739 299.47-5.5848 388.08" clip-path="url(#a)"/>
<path d="m362.42 558.78-19.776 128.76" clip-path="url(#a)"/>
<path d="m362.42 558.78 19.776 128.76" clip-path="url(#a)"/>
<path d="m424.38 687.55v127" clip-path="url(#a)"/>
<path d="m469.21 687.55v127" clip-path="url(#a)"/>
<path d="m342.64 687.55v127" clip-path="url(#a)"/>
<path d="m382.2 687.55v127" clip-path="url(#a)"/>
<path d="m73.697 687.55v127" clip-path="url(#a)"/>
<path d="m81.607 687.55v127" clip-path="url(#a)"/>
<path d="m143.5 429.35-61.89 258.2" clip-path="url(#a)" stroke-dasharray="3.7,1.6"/>
<path d="m143.5 429.35-38.16 258.2" clip-path="url(#a)"/>
<path d="m143.5 429.35-22.339 258.2" clip-path="url(#a)"/>
<path d="m143.5 429.35-3.8819 258.2" clip-path="url(#a)"/>
<path d="m143.5 429.35 29.077 129.44" clip-path="url(#a)"/>
<path d="m143.5 429.35 97.193 129.44" clip-path="url(#a)"/>
<path d="m105.34 687.55v127" clip-path="url(#a)"/>
<path d="m121.16 687.55v127" clip-path="url(#a)"/>
<path d="m139.62 687.55v127" clip-path="url(#a)"/>
<path d="m172.57 558.78-11.865 128.76" clip-path="url(#a)"/>
<path d="m172.57 558.78 11.865 128.76" clip-path="url(#a)"/>
<path d="m240.69 558.78-29.883 128.76" clip-path="url(#a)"/>
<path d="m240.69 558.78-0.87891 128.76" clip-path="url(#a)"/>
<path d="m240.69 558.78 30.762 128.76" clip-path="url(#a)"/>
<path d="m210.81 687.55v127" clip-path="url(#a)"/>
<path d="m239.81 687.55v127" clip-path="url(#a)"/>
<path d="m271.45 687.55v127" clip-path="url(#a)"/>
<path d="m160.71 687.55v127" clip-path="url(#a)"/>
<path d="m184.44 687.55v127" clip-path="url(#a)"/>
<path d="m92.154 687.55v127" clip-path="url(#a)"/>
<path d="m305.73 687.55v127" clip-path="url(#a)"/>
<path d="m516.67 687.55v127" clip-path="url(#a)"/>
<path d="m566.77 687.55v127" clip-path="url(#a)"/>
<path d="m1458 687.55v127" clip-path="url(#a)"/>
<path d="m1545 687.55v127" clip-path="url(#a)"/>
</g>
<path d="m410.58 110.75 4.5884-3.8912q1.8304-1.5523 0.27813-3.3827l-5.0077-5.905q-1.5523-1.8304-3.3827-0.27813l-4.5884 3.8912q-1.8304 1.5523-0.27813 3.3827l5.0077 5.905q1.5523 1.8304 3.3827 0.27813z" clip-path="url(#a)" fill="#fff" stroke="#fff"/>
<g clip-path="url(#a)">
<defs>
<path id="x" d="m9.8125 72.906h9.8594v-29.891h35.844v29.891h9.8594v-72.906h-9.8594v34.719h-35.844v-34.719h-9.8594z"/>
</defs>
<g transform="translate(407.95 107.65) rotate(-40.3) scale(.08 -.08)">
<use xlink:href="#x"/>
</g>
</g>
<path d="m499.8 103.08 1.8395 5.7281q0.7338 2.2851 3.0189 1.5513l7.3717-2.3673q2.2851-0.7338 1.5513-3.0189l-1.8395-5.7281q-0.7338-2.2851-3.0189-1.5513l-7.3717 2.3673q-2.2851 0.7338-1.5513 3.0189z" clip-path="url(#a)" fill="#fff" stroke="#fff"/>
<g clip-path="url(#a)">
<g transform="translate(503.67 101.83) rotate(72.197) scale(.08 -.08)">
<use xlink:href="#x"/>
</g>
</g>
<path d="m494.8 360.54 0.27879 5.8484q0.11428 2.3973 2.5116 2.283l7.7337-0.36866q2.3973-0.11428 2.283-2.5116l-0.27879-5.8484q-0.11428-2.3973-2.5116-2.283l-7.7337 0.36866q-2.3973 0.11428-2.283 2.5116z" clip-path="url(#a)" fill="#fff" stroke="#fff"/>
<g clip-path="url(#a)">
<defs>
<path id="t" d="m8.6875 72.906h9.9219v-44.297q0-11.719 4.2344-16.875 4.25-5.1406 13.781-5.1406 9.4688 0 13.719 5.1406 4.25 5.1562 4.25 16.875v44.297h9.9062v-45.516q0-14.25-7.0625-21.531-7.0469-7.2812-20.812-7.2812-13.828 0-20.891 7.2812-7.0469 7.2812-7.0469 21.531z"/>
</defs>
<g transform="translate(498.86 360.35) rotate(87.271) scale(.08 -.08)">
<use xlink:href="#t"/>
</g>
</g>
<path d="m519.67 361.04 0.7256 5.8099q0.29743 2.3815 2.6789 2.0841l7.6828-0.95951q2.3815-0.29743 2.0841-2.6789l-0.7256-5.8099q-0.29743-2.3815-2.6789-2.0841l-7.6828 0.95951q-2.3815 0.29743-2.0841 2.6789z" clip-path="url(#a)" fill="#fff" stroke="#fff"/>
<g clip-path="url(#a)">
<g transform="translate(523.7 360.54) rotate(82.881) scale(.08 -.08)">
<use xlink:href="#t"/>
</g>
</g>
<path d="m215.47 241.17 4.7828-2.6596q2.0975-1.1664 0.93115-3.2639l-3.7628-6.7667q-1.1664-2.0975-3.2639-0.93115l-4.7828 2.6596q-2.0975 1.1664-0.93115 3.2639l3.7628 6.7667q1.1664 2.0975 3.2639 0.93115z" clip-path="url(#a)" fill="#fff" stroke="#fff"/>
<g clip-path="url(#a)">
<defs>
<path id="p" d="m34.188 63.188-13.391-36.281h26.812zm-5.5781 9.7188h11.188l27.781-72.906h-10.25l-6.6406 18.703h-32.859l-6.6406-18.703h-10.406z"/>
</defs>
<g transform="translate(213.5 237.62) rotate(-29.077) scale(.08 -.08)">
<use xlink:href="#p"/>
</g>
</g>
<path d="m340.69 361.78 0.42752 5.4558q0.18749 2.3927 2.5802 2.2052l7.7188-0.60486q2.3927-0.18749 2.2052-2.5802l-0.42752-5.4558q-0.18749-2.3927-2.5802-2.2052l-7.7188 0.60486q-2.3927 0.18749-2.2052 2.5802z" clip-path="url(#a)" fill="#fff" stroke="#fff"/>
<g clip-path="url(#a)">
<g transform="translate(344.74 361.47) rotate(85.519) scale(.08 -.08)">
<use xlink:href="#p"/>
</g>
</g>
<path d="m371.56 427.24 0.80831 4.5297q0.42161 2.3627 2.7843 1.9411l7.6221-1.3601q2.3627-0.42161 1.9411-2.7843l-0.80831-4.5297q-0.42161-2.3627-2.7843-1.9411l-7.6221 1.3601q-2.3627 0.42161-1.9411 2.7843z" clip-path="url(#a)" fill="#fff" stroke="#fff"/>
<g clip-path="url(#a)">
<defs>
<path id="an" d="m9.8125 72.906h41.891v-8.3125h-32.031v-21.484h28.906v-8.2969h-28.906v-34.812h-9.8594z"/>
</defs>
<g transform="translate(375.56 426.53) rotate(79.882) scale(.08 -.08)">
<use xlink:href="#an"/>
</g>
</g>
<path d="m393.84 427.55 1.3007 4.9094q0.61463 2.32 2.9346 1.7053l7.4843-1.9828q2.32-0.61463 1.7053-2.9346l-1.3007-4.9094q-0.61463-2.32-2.9346-1.7053l-7.4843 1.9828q-2.32 0.61463-1.7053 2.9346z" clip-path="url(#a)" fill="#fff" stroke="#fff"/>
<g clip-path="url(#a)">
<defs>
<path id="am" d="m53.516 70.516v-9.625q-5.6094 2.6875-10.594 4-4.9844 1.3281-9.625 1.3281-8.0469 0-12.422-3.125t-4.375-8.8906q0-4.8438 2.9062-7.3125 2.9062-2.4531 11.016-3.9688l5.9531-1.2188q11.031-2.1094 16.281-7.4062t5.25-14.172q0-10.609-7.1094-16.078-7.0938-5.4688-20.812-5.4688-5.1719 0-11.016 1.1719-5.8281 1.1719-12.078 3.4688v10.156q6-3.3594 11.766-5.0781 5.7656-1.7031 11.328-1.7031 8.4375 0 13.031 3.3125 4.5938 3.3281 4.5938 9.4844 0 5.3594-3.2969 8.3906t-10.812 4.5469l-6.0156 1.1719q-11.031 2.1875-15.969 6.875-4.9219 4.6875-4.9219 13.047 0 9.6719 6.8125 15.234t18.766 5.5625q5.1406 0 10.453-0.9375 5.3281-0.92188 10.891-2.7656z"/>
</defs>
<g transform="translate(397.77 426.51) rotate(75.161) scale(.08 -.08)">
<use xlink:href="#am"/>
</g>
</g>
<path d="m324.93 431.64 0.29522-5.8476q0.12101-2.3969-2.2759-2.518l-7.7327-0.39038q-2.3969-0.12101-2.518 2.2759l-0.29522 5.8476q-0.12101 2.3969 2.2759 2.518l7.7327 0.39038q2.3969 0.12101 2.518-2.2759z" clip-path="url(#a)" fill="#fff" stroke="#fff"/>
<g clip-path="url(#a)">
<g transform="translate(320.87 431.44) rotate(-87.11) scale(.08 -.08)">
<use xlink:href="#t"/>
</g>
</g>
<path d="m1034.5 240.28 4.7849 0.61082q2.3807 0.30391 2.6846-2.0768l0.98042-7.6802q0.30391-2.3807-2.0768-2.6846l-4.7849-0.61082q-2.3807-0.30391-2.6846 2.0768l-0.98042 7.6802q-0.30391 2.3807 2.0768 2.6846z" clip-path="url(#a)" fill="#fff" stroke="#fff"/>
<g clip-path="url(#a)">
<defs>
<path id="ac" d="m19.672 64.797v-27.391h12.406q6.8906 0 10.641 3.5625 3.7656 3.5625 3.7656 10.156 0 6.5469-3.7656 10.109-3.75 3.5625-10.641 3.5625zm-9.8594 8.1094h22.266q12.266 0 18.531-5.5469 6.2812-5.5469 6.2812-16.234 0-10.797-6.2812-16.312-6.2656-5.5156-18.531-5.5156h-12.406v-29.297h-9.8594z"/>
</defs>
<g transform="translate(1035 236.25) rotate(7.2748) scale(.08 -.08)">
<use xlink:href="#ac"/>
</g>
</g>
<path d="m746.27 239.62 5.2532 1.5335q2.3038 0.67255 2.9764-1.6313l2.1697-7.4323q0.67255-2.3038-1.6313-2.9764l-5.2532-1.5335q-2.3038-0.67255-2.9764 1.6313l-2.1697 7.4323q-0.67255 2.3038 1.6313 2.9764z" clip-path="url(#a)" fill="#fff" stroke="#fff"/>
<g clip-path="url(#a)">
<g transform="translate(747.41 235.71) rotate(16.274) scale(.08 -.08)">
<use xlink:href="#p"/>
</g>
</g>
<path d="m307.59 434.57 3.5697-4.148q1.5655-1.8191-0.25361-3.3846l-5.8685-5.0504q-1.8191-1.5655-3.3846 0.25361l-3.5697 4.148q-1.5655 1.8191 0.25361 3.3846l5.8685 5.0504q1.8191 1.5655 3.3846-0.25361z" clip-path="url(#a)" fill="#fff" stroke="#fff"/>
<g clip-path="url(#a)">
<g transform="translate(304.51 431.92) rotate(-49.285) scale(.08 -.08)">
<use xlink:href="#p"/>
</g>
</g>
<path d="m843.5 371.36 5.3844-2.6839q2.148-1.0706 1.0773-3.2186l-3.4539-6.9294q-1.0706-2.148-3.2186-1.0773l-5.3844 2.6839q-2.148 1.0706-1.0773 3.2186l3.4539 6.9294q1.0706 2.148 3.2186 1.0773z" clip-path="url(#a)" fill="#fff" stroke="#fff"/>
<g clip-path="url(#a)">
<g transform="translate(841.68 367.72) rotate(-26.494) scale(.08 -.08)">
<use xlink:href="#x"/>
</g>
</g>
<path d="m954.13 496.53 0.58021-4.4196q0.31239-2.3796-2.0672-2.692l-7.6766-1.0078q-2.3796-0.31239-2.692 2.0672l-0.58021 4.4196q-0.31239 2.3796 2.0672 2.692l7.6766 1.0078q2.3796 0.31239 2.692-2.0672z" clip-path="url(#a)" fill="#fff" stroke="#fff"/>
<g clip-path="url(#a)">
<defs>
<path id="al" d="m9.8125 72.906h9.8594v-64.609h35.5v-8.2969h-45.359z"/>
</defs>
<g transform="translate(950.1 496) rotate(-82.521) scale(.08 -.08)">
<use xlink:href="#al"/>
</g>
</g>
<path d="m1124.2 369.04 5.5529 2.3152q2.2152 0.92357 3.1387-1.2916l2.9795-7.1463q0.92357-2.2152-1.2916-3.1387l-5.5529-2.3152q-2.2152-0.92357-3.1387 1.2916l-2.9795 7.1463q-0.92357 2.2152 1.2916 3.1387z" clip-path="url(#a)" fill="#fff" stroke="#fff"/>
<g clip-path="url(#a)">
<g transform="translate(1125.8 365.29) rotate(22.633) scale(.08 -.08)">
<use xlink:href="#x"/>
</g>
</g>
<path d="m671.27 563.16 1.8651-5.1449q0.81796-2.2563-1.4383-3.0743l-7.279-2.6388q-2.2563-0.81796-3.0743 1.4383l-1.8651 5.1449q-0.81796 2.2563 1.4383 3.0743l7.279 2.6388q2.2563 0.81796 3.0743-1.4383z" clip-path="url(#a)" fill="#fff" stroke="#fff"/>
<g clip-path="url(#a)">
<g transform="translate(667.45 561.77) rotate(-70.073) scale(.08 -.08)">
<use xlink:href="#p"/>
</g>
</g>
<path d="m699.84 561.75 0.70656-4.7717q0.35154-2.3741-2.0226-2.7257l-7.659-1.1341q-2.3741-0.35154-2.7257 2.0226l-0.70656 4.7717q-0.35154 2.3741 2.0226 2.7257l7.659 1.1341q2.3741 0.35154 2.7257-2.0226z" clip-path="url(#a)" fill="#fff" stroke="#fff"/>
<g clip-path="url(#a)">
<g transform="translate(695.82 561.16) rotate(-81.577) scale(.08 -.08)">
<use xlink:href="#ac"/>
</g>
</g>
<path d="m716.53 556.2 0.41791 5.4565q0.18328 2.393 2.5763 2.2097l7.7199-0.59126q2.393-0.18328 2.2097-2.5763l-0.41791-5.4565q-0.18328-2.393-2.5763-2.2097l-7.7199 0.59126q-2.393 0.18328-2.2097 2.5763z" clip-path="url(#a)" fill="#fff" stroke="#fff"/>
<g clip-path="url(#a)">
<g transform="translate(720.58 555.89) rotate(85.62) scale(.08 -.08)">
<use xlink:href="#p"/>
</g>
</g>
<path d="m762.61 496.1 3.5819 4.1374q1.5709 1.8145 3.3854 0.2436l5.8536-5.0677q1.8145-1.5709 0.2436-3.3854l-3.5819-4.1374q-1.5709-1.8145-3.3854-0.2436l-5.8536 5.0677q-1.8145 1.5709-0.2436 3.3854z" clip-path="url(#a)" fill="#fff" stroke="#fff"/>
<g clip-path="url(#a)">
<g transform="translate(765.68 493.44) rotate(49.116) scale(.08 -.08)">
<use xlink:href="#p"/>
</g>
</g>
<path d="m916.46 734.14v33.808q0 2.4 2.4 2.4h7.7425q2.4 0 2.4-2.4v-33.808q0-2.4-2.4-2.4h-7.7425q-2.4 0-2.4 2.4z" clip-path="url(#a)" fill="#fff" stroke="#fff"/>
<g clip-path="url(#a)">
<defs>
<path id="l" d="m-0.29688 72.906h61.672v-8.3125h-25.875v-64.594h-9.9062v64.594h-25.891z"/>
<path id="d" d="m56.203 29.594v-4.3906h-41.312q0.59375-9.2812 5.5938-14.141t13.938-4.8594q5.1719 0 10.031 1.2656t9.6562 3.8125v-8.5q-4.8438-2.0469-9.9219-3.125t-10.297-1.0781q-13.094 0-20.734 7.6094-7.6406 7.625-7.6406 20.625 0 13.422 7.25 21.297 7.25 7.8906 19.562 7.8906 11.031 0 17.453-7.1094 6.4219-7.0938 6.4219-19.297zm-8.9844 2.6406q-0.09375 7.3594-4.125 11.75-4.0312 4.4062-10.672 4.4062-7.5156 0-12.031-4.25t-5.2031-11.969z"/>
<path id="j" d="m41.109 46.297q-1.5156 0.875-3.2969 1.2812-1.7812 0.42188-3.9219 0.42188-7.625 0-11.703-4.9531t-4.0781-14.234v-28.812h-9.0312v54.688h9.0312v-8.5q2.8438 4.9844 7.375 7.3906 4.5469 2.4219 11.047 2.4219 0.92188 0 2.0469-0.125 1.125-0.10938 2.4844-0.35938z"/>
<path id="k" d="m52 44.188q3.375 6.0625 8.0625 8.9375t11.031 2.875q8.5469 0 13.188-5.9844 4.6406-5.9688 4.6406-17v-33.016h-9.0312v32.719q0 7.8594-2.7969 11.656-2.7812 3.8125-8.4844 3.8125-6.9844 0-11.047-4.6406-4.0469-4.625-4.0469-12.641v-30.906h-9.0312v32.719q0 7.9062-2.7812 11.688t-8.5938 3.7812q-6.8906 0-10.953-4.6562-4.0469-4.6562-4.0469-12.625v-30.906h-9.0312v54.688h9.0312v-8.5q3.0781 5.0312 7.375 7.4219t10.203 2.3906q5.9688 0 10.141-3.0312 4.1719-3.0156 6.1719-8.7812z"/>
<path id="g" d="m9.4219 54.688h8.9844v-54.688h-8.9844zm0 21.297h8.9844v-11.391h-8.9844z"/>
<path id="i" d="m54.891 33.016v-33.016h-8.9844v32.719q0 7.7656-3.0312 11.609-3.0312 3.8594-9.0781 3.8594-7.2812 0-11.484-4.6406-4.2031-4.625-4.2031-12.641v-30.906h-9.0312v54.688h9.0312v-8.5q3.2344 4.9375 7.5938 7.375 4.375 2.4375 10.094 2.4375 9.4219 0 14.25-5.8281 4.8438-5.8281 4.8438-17.156z"/>
<path id="f" d="m34.281 27.484q-10.891 0-15.094-2.4844t-4.2031-8.5q0-4.7812 3.1562-7.5938 3.1562-2.7969 8.5625-2.7969 7.4844 0 12 5.2969t4.5156 14.078v2zm17.922 3.7188v-31.203h-8.9844v8.2969q-3.0781-4.9688-7.6719-7.3438t-11.234-2.375q-8.3906 0-13.359 4.7188-4.9531 4.7188-4.9531 12.625 0 9.2188 6.1719 13.906 6.1875 4.6875 18.438 4.6875h12.609v0.89062q0 6.2031-4.0781 9.5938t-11.453 3.3906q-4.6875 0-9.1406-1.125-4.4375-1.125-8.5312-3.375v8.3125q4.9219 1.9062 9.5625 2.8438 4.6406 0.95312 9.0312 0.95312 11.875 0 17.734-6.1562 5.8594-6.1406 5.8594-18.641z"/>
<path id="h" d="m9.4219 75.984h8.9844v-75.984h-8.9844z"/>
</defs>
<g transform="translate(920.52 734.14) rotate(90) scale(.08 -.08)">
<use xlink:href="#l"/>
<use x="44.083984" xlink:href="#d"/>
<use x="105.607422" xlink:href="#j"/>
<use x="144.970703" xlink:href="#k"/>
<use x="242.382812" xlink:href="#g"/>
<use x="270.166016" xlink:href="#i"/>
<use x="333.544922" xlink:href="#f"/>
<use x="394.824219" xlink:href="#h"/>
</g>
</g>
<path d="m1140.3 564.96 4.1113-3.6118q1.803-1.584 0.21905-3.387l-5.11-5.8167q-1.584-1.803-3.387-0.21905l-4.1113 3.6118q-1.803 1.584-0.21905 3.387l5.11 5.8167q1.584 1.803 3.387 0.21905z" clip-path="url(#a)" fill="#fff" stroke="#fff"/>
<g clip-path="url(#a)">
<g transform="translate(1137.6 561.91) rotate(-41.3) scale(.08 -.08)">
<use xlink:href="#p"/>
</g>
</g>
<path d="m1257.1 562.36 1.2141-4.6685q0.60406-2.3227-1.7187-2.9268l-7.4932-1.9487q-2.3227-0.60406-2.9268 1.7187l-1.2141 4.6685q-0.60406 2.3227 1.7187 2.9268l7.4932 1.9487q2.3227 0.60406 2.9268-1.7187z" clip-path="url(#a)" fill="#fff" stroke="#fff"/>
<g clip-path="url(#a)">
<g transform="translate(1253.1 561.34) rotate(-75.422) scale(.08 -.08)">
<use xlink:href="#ac"/>
</g>
</g>
<path d="m1253.6 499.49 2.6473-4.7896q1.161-2.1005-0.93951-3.2615l-6.7763-3.7454q-2.1005-1.161-3.2615 0.93951l-2.6473 4.7896q-1.161 2.1005 0.93951 3.2615l6.7763 3.7454q2.1005 1.161 3.2615-0.93951z" clip-path="url(#a)" fill="#fff" stroke="#fff"/>
<g clip-path="url(#a)">
<g transform="translate(1250 497.53) rotate(-61.07) scale(.08 -.08)">
<use xlink:href="#p"/>
</g>
</g>
<path d="m1364.7 559.5 3.2564 4.8659q1.3348 1.9946 3.3294 0.65976l6.4346-4.3061q1.9946-1.3348 0.65976-3.3294l-3.2564-4.8659q-1.3348-1.9946-3.3294-0.65976l-6.4346 4.3061q-1.9946 1.3348-0.65976 3.3294z" clip-path="url(#a)" fill="#fff" stroke="#fff"/>
<g clip-path="url(#a)">
<g transform="translate(1368.1 557.24) rotate(56.209) scale(.08 -.08)">
<use xlink:href="#t"/>
</g>
</g>
<path d="m1408.6 560.83 4.1529 4.1273q1.7023 1.6918 3.3941-0.010513l5.4578-5.4917q1.6918-1.7023-0.010513-3.3941l-4.1529-4.1273q-1.7023-1.6918-3.3941 0.010513l-5.4578 5.4917q-1.6918 1.7023 0.010513 3.3941z" clip-path="url(#a)" fill="#fff" stroke="#fff"/>
<g clip-path="url(#a)">
<g transform="translate(1411.5 557.95) rotate(44.823) scale(.08 -.08)">
<use xlink:href="#t"/>
</g>
</g>
<path d="m985.01 734.14v33.808q0 2.4 2.4 2.4h7.7425q2.4 0 2.4-2.4v-33.808q0-2.4-2.4-2.4h-7.7425q-2.4 0-2.4 2.4z" clip-path="url(#a)" fill="#fff" stroke="#fff"/>
<g clip-path="url(#a)">
<g transform="translate(989.08 734.14) rotate(90) scale(.08 -.08)">
<use xlink:href="#l"/>
<use x="44.083984" xlink:href="#d"/>
<use x="105.607422" xlink:href="#j"/>
<use x="144.970703" xlink:href="#k"/>
<use x="242.382812" xlink:href="#g"/>
<use x="270.166016" xlink:href="#i"/>
<use x="333.544922" xlink:href="#f"/>
<use x="394.824219" xlink:href="#h"/>
</g>
</g>
<path d="m1131.1 766.59 26.189-21.379q1.8592-1.5177 0.34145-3.3769l-4.8962-5.9978q-1.5177-1.8592-3.3769-0.34145l-26.189 21.379q-1.8592 1.5177-0.34145 3.3769l4.8962 5.9978q1.5177 1.8592 3.3769 0.34145z" clip-path="url(#a)" fill="#fff" stroke="#fff"/>
<g clip-path="url(#a)">
<g transform="translate(1128.6 763.45) rotate(-39.226) scale(.08 -.08)">
<use xlink:href="#l"/>
<use x="44.083984" xlink:href="#d"/>
<use x="105.607422" xlink:href="#j"/>
<use x="144.970703" xlink:href="#k"/>
<use x="242.382812" xlink:href="#g"/>
<use x="270.166016" xlink:href="#i"/>
<use x="333.544922" xlink:href="#f"/>
<use x="394.824219" xlink:href="#h"/>
</g>
</g>
<path d="m1278.8 745.22 26.189 21.379q1.8592 1.5177 3.3769-0.34145l4.8962-5.9978q1.5177-1.8592-0.34145-3.3769l-26.189-21.379q-1.8592-1.5177-3.3769 0.34145l-4.8962 5.9978q-1.5177 1.8592 0.34145 3.3769z" clip-path="url(#a)" fill="#fff" stroke="#fff"/>
<g clip-path="url(#a)">
<g transform="translate(1281.3 742.07) rotate(39.226) scale(.08 -.08)">
<use xlink:href="#l"/>
<use x="44.083984" xlink:href="#d"/>
<use x="105.607422" xlink:href="#j"/>
<use x="144.970703" xlink:href="#k"/>
<use x="242.382812" xlink:href="#g"/>
<use x="270.166016" xlink:href="#i"/>
<use x="333.544922" xlink:href="#f"/>
<use x="394.824219" xlink:href="#h"/>
</g>
</g>
<path d="m1179.1 628.56 2.6029-4.3333q1.2358-2.0574-0.82157-3.2932l-6.6372-3.9868q-2.0574-1.2358-3.2932 0.82157l-2.6029 4.3333q-1.2358 2.0574 0.82157 3.2932l6.6372 3.9868q2.0574 1.2358 3.2932-0.82157z" clip-path="url(#a)" fill="#fff" stroke="#fff"/>
<g clip-path="url(#a)">
<defs>
<path id="u" d="m9.8125 72.906h46.094v-8.3125h-36.234v-21.578h34.719v-8.2969h-34.719v-26.422h37.109v-8.2969h-46.969z"/>
</defs>
<g transform="translate(1175.6 626.47) rotate(-59.008) scale(.08 -.08)">
<use xlink:href="#u"/>
</g>
</g>
<path d="m1219.5 625.74 0.034504-5.0549q0.016381-2.3999-2.3836-2.4163l-7.7423-0.052848q-2.3999-0.016381-2.4163 2.3836l-0.034504 5.0549q-0.016381 2.3999 2.3836 2.4163l7.7423 0.052847q2.3999 0.016382 2.4163-2.3836z" clip-path="url(#a)" fill="#fff" stroke="#fff"/>
<g clip-path="url(#a)">
<g transform="translate(1215.4 625.71) rotate(-89.609) scale(.08 -.08)">
<use xlink:href="#u"/>
</g>
</g>
<path d="m1246 624.04 2.9004 4.7743q1.2461 2.0512 3.2972 0.80509l6.6172-4.0199q2.0512-1.2461 0.80509-3.2972l-2.9004-4.7743q-1.2461-2.0512-3.2972-0.80509l-6.6172 4.0199q-2.0512 1.2461-0.80509 3.2972z" clip-path="url(#a)" fill="#fff" stroke="#fff"/>
<g clip-path="url(#a)">
<defs>
<path id="s" d="m64.406 67.281v-10.391q-4.9844 4.6406-10.625 6.9219-5.6406 2.2969-11.984 2.2969-12.5 0-19.141-7.6406t-6.6406-22.094q0-14.406 6.6406-22.047t19.141-7.6406q6.3438 0 11.984 2.2969t10.625 6.9375v-10.312q-5.1719-3.5156-10.969-5.2812-5.7812-1.75-12.219-1.75-16.562 0-26.094 10.125-9.5156 10.141-9.5156 27.672 0 17.578 9.5156 27.703 9.5312 10.141 26.094 10.141 6.5312 0 12.312-1.7344 5.7969-1.7344 10.875-5.2031z"/>
</defs>
<g transform="translate(1249.4 621.93) rotate(58.721) scale(.08 -.08)">
<use xlink:href="#s"/>
</g>
</g>
<path d="m1130 734.14v33.808q0 2.4 2.4 2.4h7.7425q2.4 0 2.4-2.4v-33.808q0-2.4-2.4-2.4h-7.7425q-2.4 0-2.4 2.4z" clip-path="url(#a)" fill="#fff" stroke="#fff"/>
<g clip-path="url(#a)">
<g transform="translate(1134.1 734.14) rotate(90) scale(.08 -.08)">
<use xlink:href="#l"/>
<use x="44.083984" xlink:href="#d"/>
<use x="105.607422" xlink:href="#j"/>
<use x="144.970703" xlink:href="#k"/>
<use x="242.382812" xlink:href="#g"/>
<use x="270.166016" xlink:href="#i"/>
<use x="333.544922" xlink:href="#f"/>
<use x="394.824219" xlink:href="#h"/>
</g>
</g>
<path d="m1206.5 734.14v33.808q0 2.4 2.4 2.4h7.7425q2.4 0 2.4-2.4v-33.808q0-2.4-2.4-2.4h-7.7425q-2.4 0-2.4 2.4z" clip-path="url(#a)" fill="#fff" stroke="#fff"/>
<g clip-path="url(#a)">
<g transform="translate(1210.6 734.14) rotate(90) scale(.08 -.08)">
<use xlink:href="#l"/>
<use x="44.083984" xlink:href="#d"/>
<use x="105.607422" xlink:href="#j"/>
<use x="144.970703" xlink:href="#k"/>
<use x="242.382812" xlink:href="#g"/>
<use x="270.166016" xlink:href="#i"/>
<use x="333.544922" xlink:href="#f"/>
<use x="394.824219" xlink:href="#h"/>
</g>
</g>
<path d="m1285.6 734.14v33.808q0 2.4 2.4 2.4h7.7425q2.4 0 2.4-2.4v-33.808q0-2.4-2.4-2.4h-7.7425q-2.4 0-2.4 2.4z" clip-path="url(#a)" fill="#fff" stroke="#fff"/>
<g clip-path="url(#a)">
<g transform="translate(1289.7 734.14) rotate(90) scale(.08 -.08)">
<use xlink:href="#l"/>
<use x="44.083984" xlink:href="#d"/>
<use x="105.607422" xlink:href="#j"/>
<use x="144.970703" xlink:href="#k"/>
<use x="242.382812" xlink:href="#g"/>
<use x="270.166016" xlink:href="#i"/>
<use x="333.544922" xlink:href="#f"/>
<use x="394.824219" xlink:href="#h"/>
</g>
</g>
<path d="m613.23 734.14v33.808q0 2.4 2.4 2.4h7.7425q2.4 0 2.4-2.4v-33.808q0-2.4-2.4-2.4h-7.7425q-2.4 0-2.4 2.4z" clip-path="url(#a)" fill="#fff" stroke="#fff"/>
<g clip-path="url(#a)">
<g transform="translate(617.3 734.14) rotate(90) scale(.08 -.08)">
<use xlink:href="#l"/>
<use x="44.083984" xlink:href="#d"/>
<use x="105.607422" xlink:href="#j"/>
<use x="144.970703" xlink:href="#k"/>
<use x="242.382812" xlink:href="#g"/>
<use x="270.166016" xlink:href="#i"/>
<use x="333.544922" xlink:href="#f"/>
<use x="394.824219" xlink:href="#h"/>
</g>
</g>
<path d="m668.6 734.14v33.808q0 2.4 2.4 2.4h7.7425q2.4 0 2.4-2.4v-33.808q0-2.4-2.4-2.4h-7.7425q-2.4 0-2.4 2.4z" clip-path="url(#a)" fill="#fff" stroke="#fff"/>
<g clip-path="url(#a)">
<g transform="translate(672.67 734.14) rotate(90) scale(.08 -.08)">
<use xlink:href="#l"/>
<use x="44.083984" xlink:href="#d"/>
<use x="105.607422" xlink:href="#j"/>
<use x="144.970703" xlink:href="#k"/>
<use x="242.382812" xlink:href="#g"/>
<use x="270.166016" xlink:href="#i"/>
<use x="333.544922" xlink:href="#f"/>
<use x="394.824219" xlink:href="#h"/>
</g>
</g>
<path d="m726.61 734.14v33.808q0 2.4 2.4 2.4h7.7425q2.4 0 2.4-2.4v-33.808q0-2.4-2.4-2.4h-7.7425q-2.4 0-2.4 2.4z" clip-path="url(#a)" fill="#fff" stroke="#fff"/>
<g clip-path="url(#a)">
<g transform="translate(730.68 734.14) rotate(90) scale(.08 -.08)">
<use xlink:href="#l"/>
<use x="44.083984" xlink:href="#d"/>
<use x="105.607422" xlink:href="#j"/>
<use x="144.970703" xlink:href="#k"/>
<use x="242.382812" xlink:href="#g"/>
<use x="270.166016" xlink:href="#i"/>
<use x="333.544922" xlink:href="#f"/>
<use x="394.824219" xlink:href="#h"/>
</g>
</g>
<path d="m814.84 627.12 1.2063-4.909q0.57271-2.3307-1.758-2.9034l-7.5188-1.8476q-2.3307-0.57271-2.9034 1.758l-1.2063 4.909q-0.57271 2.3307 1.758 2.9034l7.5188 1.8476q2.3307 0.57271 2.9034-1.758z" clip-path="url(#a)" fill="#fff" stroke="#fff"/>
<g clip-path="url(#a)">
<g transform="translate(810.89 626.15) rotate(-76.194) scale(.08 -.08)">
<use xlink:href="#u"/>
</g>
</g>
<path d="m834.23 621.95 1.333 5.4249q0.57271 2.3307 2.9034 1.758l7.5188-1.8476q2.3307-0.57271 1.758-2.9034l-1.333-5.4249q-0.57271-2.3307-2.9034-1.758l-7.5188 1.8476q-2.3307 0.57271-1.758 2.9034z" clip-path="url(#a)" fill="#fff" stroke="#fff"/>
<g clip-path="url(#a)">
<g transform="translate(838.18 620.98) rotate(76.194) scale(.08 -.08)">
<use xlink:href="#s"/>
</g>
</g>
<path d="m787.26 734.14v33.808q0 2.4 2.4 2.4h7.7425q2.4 0 2.4-2.4v-33.808q0-2.4-2.4-2.4h-7.7425q-2.4 0-2.4 2.4z" clip-path="url(#a)" fill="#fff" stroke="#fff"/>
<g clip-path="url(#a)">
<g transform="translate(791.32 734.14) rotate(90) scale(.08 -.08)">
<use xlink:href="#l"/>
<use x="44.083984" xlink:href="#d"/>
<use x="105.607422" xlink:href="#j"/>
<use x="144.970703" xlink:href="#k"/>
<use x="242.382812" xlink:href="#g"/>
<use x="270.166016" xlink:href="#i"/>
<use x="333.544922" xlink:href="#f"/>
<use x="394.824219" xlink:href="#h"/>
</g>
</g>
<path d="m850.54 734.14v33.808q0 2.4 2.4 2.4h7.7425q2.4 0 2.4-2.4v-33.808q0-2.4-2.4-2.4h-7.7425q-2.4 0-2.4 2.4z" clip-path="url(#a)" fill="#fff" stroke="#fff"/>
<g clip-path="url(#a)">
<g transform="translate(854.6 734.14) rotate(90) scale(.08 -.08)">
<use xlink:href="#l"/>
<use x="44.083984" xlink:href="#d"/>
<use x="105.607422" xlink:href="#j"/>
<use x="144.970703" xlink:href="#k"/>
<use x="242.382812" xlink:href="#g"/>
<use x="270.166016" xlink:href="#i"/>
<use x="333.544922" xlink:href="#f"/>
<use x="394.824219" xlink:href="#h"/>
</g>
</g>
<path d="m91.805 496.67 0.34371-5.5481q0.1484-2.3954-2.247-2.5438l-7.7277-0.47874q-2.3954-0.1484-2.5438 2.247l-0.34371 5.5481q-0.1484 2.3954 2.247 2.5438l7.7277 0.47874q2.3954 0.1484 2.5438-2.247z" clip-path="url(#a)" fill="#fff" stroke="#fff"/>
<g clip-path="url(#a)">
<defs>
<path id="ab" d="m44.391 34.188q3.1719-1.0781 6.1719-4.5938t6.0312-9.6719l10.016-19.922h-10.609l-9.3125 18.703q-3.625 7.3281-7.0156 9.7188t-9.25 2.3906h-10.75v-30.812h-9.8594v72.906h22.266q12.5 0 18.656-5.2344 6.1562-5.2188 6.1562-15.766 0-6.8906-3.2031-11.438-3.2031-4.5312-9.2969-6.2812zm-24.719 30.609v-25.875h12.406q7.125 0 10.766 3.2969t3.6406 9.6875-3.6406 9.6406-10.766 3.25z"/>
</defs>
<g transform="translate(87.749 496.42) rotate(-86.455) scale(.08 -.08)">
<use xlink:href="#ab"/>
</g>
</g>
<path d="m95.823 496.56 0.23201-5.5814q0.099677-2.3979-2.2983-2.4976l-7.7358-0.32156q-2.3979-0.099677-2.4976 2.2983l-0.23201 5.5814q-0.099676 2.3979 2.2983 2.4976l7.7358 0.32156q2.3979 0.099677 2.4976-2.2983z" clip-path="url(#a)" fill="#fff" stroke="#fff"/>
<g clip-path="url(#a)">
<g transform="translate(91.763 496.39) rotate(-87.62) scale(.08 -.08)">
<use xlink:href="#s"/>
</g>
</g>
<path d="m113.86 364.11 1.6798 4.7678q0.79751 2.2636 3.0611 1.4661l7.3025-2.5728q2.2636-0.79751 1.4661-3.0611l-1.6798-4.7678q-0.79751-2.2636-3.0611-1.4661l-7.3025 2.5728q-2.2636 0.79751-1.4661 3.0611z" clip-path="url(#a)" fill="#fff" stroke="#fff"/>
<g clip-path="url(#a)">
<g transform="translate(117.7 362.76) rotate(70.592) scale(.08 -.08)">
<use xlink:href="#u"/>
</g>
</g>
<path d="m101.18 496.52 0.084249-5.8544q0.034534-2.3998-2.3652-2.4343l-7.7417-0.11141q-2.3998-0.034534-2.4343 2.3652l-0.084249 5.8544q-0.034534 2.3998 2.3652 2.4343l7.7417 0.11141q2.3998 0.034535 2.4343-2.3652z" clip-path="url(#a)" fill="#fff" stroke="#fff"/>
<g clip-path="url(#a)">
<g transform="translate(97.112 496.47) rotate(-89.176) scale(.08 -.08)">
<use xlink:href="#t"/>
</g>
</g>
<path d="m358.35 626.62 0.76735-4.9964q0.36432-2.3722-2.0079-2.7365l-7.6528-1.1753q-2.3722-0.36432-2.7365 2.0079l-0.76735 4.9964q-0.36432 2.3722 2.0079 2.7365l7.6528 1.1753q2.3722 0.36432 2.7365-2.0079z" clip-path="url(#a)" fill="#fff" stroke="#fff"/>
<g clip-path="url(#a)">
<g transform="translate(354.33 626) rotate(-81.269) scale(.08 -.08)">
<use xlink:href="#u"/>
</g>
</g>
<path d="m365.69 621.36 0.848 5.5215q0.36432 2.3722 2.7365 2.0079l7.6528-1.1753q2.3722-0.36432 2.0079-2.7365l-0.848-5.5215q-0.36432-2.3722-2.7365-2.0079l-7.6528 1.1753q-2.3722 0.36432-2.0079 2.7365z" clip-path="url(#a)" fill="#fff" stroke="#fff"/>
<g clip-path="url(#a)">
<g transform="translate(369.7 620.74) rotate(81.269) scale(.08 -.08)">
<use xlink:href="#s"/>
</g>
</g>
<path d="m418.11 734.14v33.808q0 2.4 2.4 2.4h7.7425q2.4 0 2.4-2.4v-33.808q0-2.4-2.4-2.4h-7.7425q-2.4 0-2.4 2.4z" clip-path="url(#a)" fill="#fff" stroke="#fff"/>
<g clip-path="url(#a)">
<g transform="translate(422.18 734.14) rotate(90) scale(.08 -.08)">
<use xlink:href="#l"/>
<use x="44.083984" xlink:href="#d"/>
<use x="105.607422" xlink:href="#j"/>
<use x="144.970703" xlink:href="#k"/>
<use x="242.382812" xlink:href="#g"/>
<use x="270.166016" xlink:href="#i"/>
<use x="333.544922" xlink:href="#f"/>
<use x="394.824219" xlink:href="#h"/>
</g>
</g>
<path d="m462.94 734.14v33.808q0 2.4 2.4 2.4h7.7425q2.4 0 2.4-2.4v-33.808q0-2.4-2.4-2.4h-7.7425q-2.4 0-2.4 2.4z" clip-path="url(#a)" fill="#fff" stroke="#fff"/>
<g clip-path="url(#a)">
<g transform="translate(467 734.14) rotate(90) scale(.08 -.08)">
<use xlink:href="#l"/>
<use x="44.083984" xlink:href="#d"/>
<use x="105.607422" xlink:href="#j"/>
<use x="144.970703" xlink:href="#k"/>
<use x="242.382812" xlink:href="#g"/>
<use x="270.166016" xlink:href="#i"/>
<use x="333.544922" xlink:href="#f"/>
<use x="394.824219" xlink:href="#h"/>
</g>
</g>
<path d="m336.37 734.14v33.808q0 2.4 2.4 2.4h7.7425q2.4 0 2.4-2.4v-33.808q0-2.4-2.4-2.4h-7.7425q-2.4 0-2.4 2.4z" clip-path="url(#a)" fill="#fff" stroke="#fff"/>
<g clip-path="url(#a)">
<g transform="translate(340.44 734.14) rotate(90) scale(.08 -.08)">
<use xlink:href="#l"/>
<use x="44.083984" xlink:href="#d"/>
<use x="105.607422" xlink:href="#j"/>
<use x="144.970703" xlink:href="#k"/>
<use x="242.382812" xlink:href="#g"/>
<use x="270.166016" xlink:href="#i"/>
<use x="333.544922" xlink:href="#f"/>
<use x="394.824219" xlink:href="#h"/>
</g>
</g>
<path d="m375.92 734.14v33.808q0 2.4 2.4 2.4h7.7425q2.4 0 2.4-2.4v-33.808q0-2.4-2.4-2.4h-7.7425q-2.4 0-2.4 2.4z" clip-path="url(#a)" fill="#fff" stroke="#fff"/>
<g clip-path="url(#a)">
<g transform="translate(379.99 734.14) rotate(90) scale(.08 -.08)">
<use xlink:href="#l"/>
<use x="44.083984" xlink:href="#d"/>
<use x="105.607422" xlink:href="#j"/>
<use x="144.970703" xlink:href="#k"/>
<use x="242.382812" xlink:href="#g"/>
<use x="270.166016" xlink:href="#i"/>
<use x="333.544922" xlink:href="#f"/>
<use x="394.824219" xlink:href="#h"/>
</g>
</g>
<path d="m67.426 734.14v33.808q0 2.4 2.4 2.4h7.7425q2.4 0 2.4-2.4v-33.808q0-2.4-2.4-2.4h-7.7425q-2.4 0-2.4 2.4z" clip-path="url(#a)" fill="#fff" stroke="#fff"/>
<g clip-path="url(#a)">
<g transform="translate(71.489 734.14) rotate(90) scale(.08 -.08)">
<use xlink:href="#l"/>
<use x="44.083984" xlink:href="#d"/>
<use x="105.607422" xlink:href="#j"/>
<use x="144.970703" xlink:href="#k"/>
<use x="242.382812" xlink:href="#g"/>
<use x="270.166016" xlink:href="#i"/>
<use x="333.544922" xlink:href="#f"/>
<use x="394.824219" xlink:href="#h"/>
</g>
</g>
<path d="m75.336 734.14v33.808q0 2.4 2.4 2.4h7.7425q2.4 0 2.4-2.4v-33.808q0-2.4-2.4-2.4h-7.7425q-2.4 0-2.4 2.4z" clip-path="url(#a)" fill="#fff" stroke="#fff"/>
<g clip-path="url(#a)">
<g transform="translate(79.4 734.14) rotate(90) scale(.08 -.08)">
<use xlink:href="#l"/>
<use x="44.083984" xlink:href="#d"/>
<use x="105.607422" xlink:href="#j"/>
<use x="144.970703" xlink:href="#k"/>
<use x="242.382812" xlink:href="#g"/>
<use x="270.166016" xlink:href="#i"/>
<use x="333.544922" xlink:href="#f"/>
<use x="394.824219" xlink:href="#h"/>
</g>
</g>
<path d="m118.01 562.57 1.2756-5.3218q0.55942-2.3339-1.7745-2.8933l-7.5292-1.8047q-2.3339-0.55942-2.8933 1.7745l-1.2756 5.3218q-0.55942 2.3339 1.7745 2.8933l7.5292 1.8047q2.3339 0.55942 2.8933-1.7745z" clip-path="url(#a)" fill="#fff" stroke="#fff"/>
<g clip-path="url(#a)">
<g transform="translate(114.06 561.62) rotate(-76.521) scale(.08 -.08)">
<use xlink:href="#p"/>
</g>
</g>
<path d="m130.22 562.11 0.8127-5.499q0.35088-2.3742-2.0233-2.7251l-7.6593-1.132q-2.3742-0.35088-2.7251 2.0233l-0.8127 5.499q-0.35088 2.3742 2.0233 2.7251l7.6593 1.132q2.3742 0.35088 2.7251-2.0233z" clip-path="url(#a)" fill="#fff" stroke="#fff"/>
<g clip-path="url(#a)">
<g transform="translate(126.2 561.52) rotate(-81.593) scale(.08 -.08)">
<use xlink:href="#ab"/>
</g>
</g>
<path d="m138.38 561.28 0.39661-4.5841q0.20687-2.3911-2.1842-2.5979l-7.7137-0.66737q-2.3911-0.20687-2.5979 2.1842l-0.39661 4.5841q-0.20687 2.3911 2.1842 2.5979l7.7137 0.66737q2.3911 0.20687 2.5979-2.1842z" clip-path="url(#a)" fill="#fff" stroke="#fff"/>
<g clip-path="url(#a)">
<g transform="translate(134.33 560.93) rotate(-85.055) scale(.08 -.08)">
<use xlink:href="#an"/>
</g>
</g>
<path d="m147.79 561.08 0.076347-5.0782q0.036078-2.3997-2.3637-2.4358l-7.7416-0.11639q-2.3997-0.036079-2.4358 2.3636l-0.076346 5.0782q-0.036078 2.3997 2.3636 2.4358l7.7416 0.11639q2.3997 0.036079 2.4358-2.3636z" clip-path="url(#a)" fill="#fff" stroke="#fff"/>
<g clip-path="url(#a)">
<g transform="translate(143.73 561.02) rotate(-89.139) scale(.08 -.08)">
<use xlink:href="#am"/>
</g>
</g>
<path d="m151.32 492.77 1.1995 5.3394q0.52603 2.3416 2.8677 1.8156l7.5542-1.697q2.3416-0.52603 1.8156-2.8677l-1.1995-5.3394q-0.52603-2.3416-2.8677-1.8156l-7.5542 1.697q-2.3416 0.52603-1.8156 2.8677z" clip-path="url(#a)" fill="#fff" stroke="#fff"/>
<g clip-path="url(#a)">
<g transform="translate(155.28 491.88) rotate(77.339) scale(.08 -.08)">
<use xlink:href="#p"/>
</g>
</g>
<path d="m185.61 495.88 2.934 3.9073q1.4411 1.9192 3.3603 0.47811l6.1914-4.649q1.9192-1.4411 0.47811-3.3603l-2.934-3.9073q-1.4411-1.9192-3.3603-0.47811l-6.1914 4.649q-1.9192 1.4411-0.4781 3.3603z" clip-path="url(#a)" fill="#fff" stroke="#fff"/>
<g clip-path="url(#a)">
<g transform="translate(188.86 493.44) rotate(53.098) scale(.08 -.08)">
<use xlink:href="#l"/>
</g>
</g>
<path d="m99.067 734.14v33.808q0 2.4 2.4 2.4h7.7425q2.4 0 2.4-2.4v-33.808q0-2.4-2.4-2.4h-7.7425q-2.4 0-2.4 2.4z" clip-path="url(#a)" fill="#fff" stroke="#fff"/>
<g clip-path="url(#a)">
<g transform="translate(103.13 734.14) rotate(90) scale(.08 -.08)">
<use xlink:href="#l"/>
<use x="44.083984" xlink:href="#d"/>
<use x="105.607422" xlink:href="#j"/>
<use x="144.970703" xlink:href="#k"/>
<use x="242.382812" xlink:href="#g"/>
<use x="270.166016" xlink:href="#i"/>
<use x="333.544922" xlink:href="#f"/>
<use x="394.824219" xlink:href="#h"/>
</g>
</g>
<path d="m114.89 734.14v33.808q0 2.4 2.4 2.4h7.7425q2.4 0 2.4-2.4v-33.808q0-2.4-2.4-2.4h-7.7425q-2.4 0-2.4 2.4z" clip-path="url(#a)" fill="#fff" stroke="#fff"/>
<g clip-path="url(#a)">
<g transform="translate(118.95 734.14) rotate(90) scale(.08 -.08)">
<use xlink:href="#l"/>
<use x="44.083984" xlink:href="#d"/>
<use x="105.607422" xlink:href="#j"/>
<use x="144.970703" xlink:href="#k"/>
<use x="242.382812" xlink:href="#g"/>
<use x="270.166016" xlink:href="#i"/>
<use x="333.544922" xlink:href="#f"/>
<use x="394.824219" xlink:href="#h"/>
</g>
</g>
<path d="m133.34 734.14v33.808q0 2.4 2.4 2.4h7.7425q2.4 0 2.4-2.4v-33.808q0-2.4-2.4-2.4h-7.7425q-2.4 0-2.4 2.4z" clip-path="url(#a)" fill="#fff" stroke="#fff"/>
<g clip-path="url(#a)">
<g transform="translate(137.41 734.14) rotate(90) scale(.08 -.08)">
<use xlink:href="#l"/>
<use x="44.083984" xlink:href="#d"/>
<use x="105.607422" xlink:href="#j"/>
<use x="144.970703" xlink:href="#k"/>
<use x="242.382812" xlink:href="#g"/>
<use x="270.166016" xlink:href="#i"/>
<use x="333.544922" xlink:href="#f"/>
<use x="394.824219" xlink:href="#h"/>
</g>
</g>
<path d="m172.63 626.51 0.51007-5.5353q0.22022-2.3899-2.1697-2.6101l-7.7098-0.71045q-2.3899-0.22022-2.6101 2.1697l-0.51007 5.5353q-0.22022 2.3899 2.1697 2.6101l7.7098 0.71045q2.3899 0.22022 2.6101-2.1697z" clip-path="url(#a)" fill="#fff" stroke="#fff"/>
<g clip-path="url(#a)">
<g transform="translate(168.59 626.14) rotate(-84.735) scale(.08 -.08)">
<use xlink:href="#ab"/>
</g>
</g>
<path d="m172.01 620.96 0.51259 5.5627q0.22022 2.3899 2.6101 2.1697l7.7098-0.71045q2.3899-0.22022 2.1697-2.6101l-0.51259-5.5627q-0.22022-2.3899-2.6101-2.1697l-7.7098 0.71045q-2.3899 0.22022-2.1697 2.6101z" clip-path="url(#a)" fill="#fff" stroke="#fff"/>
<g clip-path="url(#a)">
<g transform="translate(176.05 620.59) rotate(84.735) scale(.08 -.08)">
<use xlink:href="#s"/>
</g>
</g>
<path d="m231.23 627.29 1.2567-5.4148q0.54257-2.3379-1.7953-2.8804l-7.5421-1.7503q-2.3379-0.54256-2.8804 1.7953l-1.2567 5.4148q-0.54256 2.3379 1.7953 2.8804l7.5421 1.7503q2.3379 0.54256 2.8804-1.7953z" clip-path="url(#a)" fill="#fff" stroke="#fff"/>
<g clip-path="url(#a)">
<g transform="translate(227.27 626.37) rotate(-76.934) scale(.08 -.08)">
<use xlink:href="#ab"/>
</g>
</g>
<path d="m246.51 625.74 0.034504-5.0549q0.016382-2.3999-2.3836-2.4163l-7.7423-0.052848q-2.3999-0.016381-2.4163 2.3836l-0.034503 5.0549q-0.016382 2.3999 2.3836 2.4163l7.7423 0.052847q2.3999 0.016382 2.4163-2.3836z" clip-path="url(#a)" fill="#fff" stroke="#fff"/>
<g clip-path="url(#a)">
<g transform="translate(242.44 625.71) rotate(-89.609) scale(.08 -.08)">
<use xlink:href="#u"/>
</g>
</g>
<path d="m249.32 621.91 1.298 5.4333q0.55767 2.3343 2.892 1.7766l7.5306-1.7991q2.3343-0.55767 1.7766-2.892l-1.298-5.4333q-0.55767-2.3343-2.892-1.7766l-7.5306 1.7991q-2.3343 0.55767-1.7766 2.892z" clip-path="url(#a)" fill="#fff" stroke="#fff"/>
<g clip-path="url(#a)">
<g transform="translate(253.28 620.96) rotate(76.564) scale(.08 -.08)">
<use xlink:href="#s"/>
</g>
</g>
<path d="m204.54 734.14v33.808q0 2.4 2.4 2.4h7.7425q2.4 0 2.4-2.4v-33.808q0-2.4-2.4-2.4h-7.7425q-2.4 0-2.4 2.4z" clip-path="url(#a)" fill="#fff" stroke="#fff"/>
<g clip-path="url(#a)">
<g transform="translate(208.6 734.14) rotate(90) scale(.08 -.08)">
<use xlink:href="#l"/>
<use x="44.083984" xlink:href="#d"/>
<use x="105.607422" xlink:href="#j"/>
<use x="144.970703" xlink:href="#k"/>
<use x="242.382812" xlink:href="#g"/>
<use x="270.166016" xlink:href="#i"/>
<use x="333.544922" xlink:href="#f"/>
<use x="394.824219" xlink:href="#h"/>
</g>
</g>
<path d="m233.54 734.14v33.808q0 2.4 2.4 2.4h7.7425q2.4 0 2.4-2.4v-33.808q0-2.4-2.4-2.4h-7.7425q-2.4 0-2.4 2.4z" clip-path="url(#a)" fill="#fff" stroke="#fff"/>
<g clip-path="url(#a)">
<g transform="translate(237.6 734.14) rotate(90) scale(.08 -.08)">
<use xlink:href="#l"/>
<use x="44.083984" xlink:href="#d"/>
<use x="105.607422" xlink:href="#j"/>
<use x="144.970703" xlink:href="#k"/>
<use x="242.382812" xlink:href="#g"/>
<use x="270.166016" xlink:href="#i"/>
<use x="333.544922" xlink:href="#f"/>
<use x="394.824219" xlink:href="#h"/>
</g>
</g>
<path d="m265.18 734.14v33.808q0 2.4 2.4 2.4h7.7425q2.4 0 2.4-2.4v-33.808q0-2.4-2.4-2.4h-7.7425q-2.4 0-2.4 2.4z" clip-path="url(#a)" fill="#fff" stroke="#fff"/>
<g clip-path="url(#a)">
<g transform="translate(269.25 734.14) rotate(90) scale(.08 -.08)">
<use xlink:href="#l"/>
<use x="44.083984" xlink:href="#d"/>
<use x="105.607422" xlink:href="#j"/>
<use x="144.970703" xlink:href="#k"/>
<use x="242.382812" xlink:href="#g"/>
<use x="270.166016" xlink:href="#i"/>
<use x="333.544922" xlink:href="#f"/>
<use x="394.824219" xlink:href="#h"/>
</g>
</g>
<path d="m154.44 734.14v33.808q0 2.4 2.4 2.4h7.7425q2.4 0 2.4-2.4v-33.808q0-2.4-2.4-2.4h-7.7425q-2.4 0-2.4 2.4z" clip-path="url(#a)" fill="#fff" stroke="#fff"/>
<g clip-path="url(#a)">
<g transform="translate(158.5 734.14) rotate(90) scale(.08 -.08)">
<use xlink:href="#l"/>
<use x="44.083984" xlink:href="#d"/>
<use x="105.607422" xlink:href="#j"/>
<use x="144.970703" xlink:href="#k"/>
<use x="242.382812" xlink:href="#g"/>
<use x="270.166016" xlink:href="#i"/>
<use x="333.544922" xlink:href="#f"/>
<use x="394.824219" xlink:href="#h"/>
</g>
</g>
<path d="m178.17 734.14v33.808q0 2.4 2.4 2.4h7.7425q2.4 0 2.4-2.4v-33.808q0-2.4-2.4-2.4h-7.7425q-2.4 0-2.4 2.4z" clip-path="url(#a)" fill="#fff" stroke="#fff"/>
<g clip-path="url(#a)">
<g transform="translate(182.23 734.14) rotate(90) scale(.08 -.08)">
<use xlink:href="#l"/>
<use x="44.083984" xlink:href="#d"/>
<use x="105.607422" xlink:href="#j"/>
<use x="144.970703" xlink:href="#k"/>
<use x="242.382812" xlink:href="#g"/>
<use x="270.166016" xlink:href="#i"/>
<use x="333.544922" xlink:href="#f"/>
<use x="394.824219" xlink:href="#h"/>
</g>
</g>
<path d="m85.883 734.14v33.808q0 2.4 2.4 2.4h7.7425q2.4 0 2.4-2.4v-33.808q0-2.4-2.4-2.4h-7.7425q-2.4 0-2.4 2.4z" clip-path="url(#a)" fill="#fff" stroke="#fff"/>
<g clip-path="url(#a)">
<g transform="translate(89.947 734.14) rotate(90) scale(.08 -.08)">
<use xlink:href="#l"/>
<use x="44.083984" xlink:href="#d"/>
<use x="105.607422" xlink:href="#j"/>
<use x="144.970703" xlink:href="#k"/>
<use x="242.382812" xlink:href="#g"/>
<use x="270.166016" xlink:href="#i"/>
<use x="333.544922" xlink:href="#f"/>
<use x="394.824219" xlink:href="#h"/>
</g>
</g>
<path d="m299.46 734.14v33.808q0 2.4 2.4 2.4h7.7425q2.4 0 2.4-2.4v-33.808q0-2.4-2.4-2.4h-7.7425q-2.4 0-2.4 2.4z" clip-path="url(#a)" fill="#fff" stroke="#fff"/>
<g clip-path="url(#a)">
<g transform="translate(303.52 734.14) rotate(90) scale(.08 -.08)">
<use xlink:href="#l"/>
<use x="44.083984" xlink:href="#d"/>
<use x="105.607422" xlink:href="#j"/>
<use x="144.970703" xlink:href="#k"/>
<use x="242.382812" xlink:href="#g"/>
<use x="270.166016" xlink:href="#i"/>
<use x="333.544922" xlink:href="#f"/>
<use x="394.824219" xlink:href="#h"/>
</g>
</g>
<path d="m510.4 734.14v33.808q0 2.4 2.4 2.4h7.7425q2.4 0 2.4-2.4v-33.808q0-2.4-2.4-2.4h-7.7425q-2.4 0-2.4 2.4z" clip-path="url(#a)" fill="#fff" stroke="#fff"/>
<g clip-path="url(#a)">
<g transform="translate(514.46 734.14) rotate(90) scale(.08 -.08)">
<use xlink:href="#l"/>
<use x="44.083984" xlink:href="#d"/>
<use x="105.607422" xlink:href="#j"/>
<use x="144.970703" xlink:href="#k"/>
<use x="242.382812" xlink:href="#g"/>
<use x="270.166016" xlink:href="#i"/>
<use x="333.544922" xlink:href="#f"/>
<use x="394.824219" xlink:href="#h"/>
</g>
</g>
<path d="m560.5 734.14v33.808q0 2.4 2.4 2.4h7.7425q2.4 0 2.4-2.4v-33.808q0-2.4-2.4-2.4h-7.7425q-2.4 0-2.4 2.4z" clip-path="url(#a)" fill="#fff" stroke="#fff"/>
<g clip-path="url(#a)">
<g transform="translate(564.56 734.14) rotate(90) scale(.08 -.08)">
<use xlink:href="#l"/>
<use x="44.083984" xlink:href="#d"/>
<use x="105.607422" xlink:href="#j"/>
<use x="144.970703" xlink:href="#k"/>
<use x="242.382812" xlink:href="#g"/>
<use x="270.166016" xlink:href="#i"/>
<use x="333.544922" xlink:href="#f"/>
<use x="394.824219" xlink:href="#h"/>
</g>
</g>
<path d="m1451.7 734.14v33.808q0 2.4 2.4 2.4h7.7425q2.4 0 2.4-2.4v-33.808q0-2.4-2.4-2.4h-7.7425q-2.4 0-2.4 2.4z" clip-path="url(#a)" fill="#fff" stroke="#fff"/>
<g clip-path="url(#a)">
<g transform="translate(1455.8 734.14) rotate(90) scale(.08 -.08)">
<use xlink:href="#l"/>
<use x="44.083984" xlink:href="#d"/>
<use x="105.607422" xlink:href="#j"/>
<use x="144.970703" xlink:href="#k"/>
<use x="242.382812" xlink:href="#g"/>
<use x="270.166016" xlink:href="#i"/>
<use x="333.544922" xlink:href="#f"/>
<use x="394.824219" xlink:href="#h"/>
</g>
</g>
<path d="m1538.7 734.14v33.808q0 2.4 2.4 2.4h7.7425q2.4 0 2.4-2.4v-33.808q0-2.4-2.4-2.4h-7.7425q-2.4 0-2.4 2.4z" clip-path="url(#a)" fill="#fff" stroke="#fff"/>
<g clip-path="url(#a)">
<g transform="translate(1542.8 734.14) rotate(90) scale(.08 -.08)">
<use xlink:href="#l"/>
<use x="44.083984" xlink:href="#d"/>
<use x="105.607422" xlink:href="#j"/>
<use x="144.970703" xlink:href="#k"/>
<use x="242.382812" xlink:href="#g"/>
<use x="270.166016" xlink:href="#i"/>
<use x="333.544922" xlink:href="#f"/>
<use x="394.824219" xlink:href="#h"/>
</g>
</g>
<defs>
<path id="b" d="m0 8.6603c2.2967 0 4.4997-0.9125 6.1237-2.5365 1.624-1.624 2.5365-3.827 2.5365-6.1237s-0.9125-4.4997-2.5365-6.1237c-1.624-1.624-3.827-2.5365-6.1237-2.5365s-4.4997 0.9125-6.1237 2.5365c-1.624 1.624-2.5365 3.827-2.5365 6.1237s0.9125 4.4997 2.5365 6.1237c1.624 1.624 3.827 2.5365 6.1237 2.5365z"/>
</defs>
<g clip-path="url(#a)" fill="#ffffff" stroke="#ffffff">
<use x="73.69697" y="814.545455" xlink:href="#b"/>
<use x="81.607199" y="814.545455" xlink:href="#b"/>
<use x="92.154171" y="814.545455" xlink:href="#b"/>
<use x="105.337887" y="814.545455" xlink:href="#b"/>
<use x="121.158346" y="814.545455" xlink:href="#b"/>
<use x="139.615547" y="814.545455" xlink:href="#b"/>
<use x="160.709492" y="814.545455" xlink:href="#b"/>
<use x="184.44018" y="814.545455" xlink:href="#b"/>
<use x="210.807611" y="814.545455" xlink:href="#b"/>
<use x="239.811785" y="814.545455" xlink:href="#b"/>
<use x="271.452702" y="814.545455" xlink:href="#b"/>
<use x="305.730363" y="814.545455" xlink:href="#b"/>
<use x="342.644766" y="814.545455" xlink:href="#b"/>
<use x="382.195913" y="814.545455" xlink:href="#b"/>
<use x="424.383802" y="814.545455" xlink:href="#b"/>
<use x="469.208435" y="814.545455" xlink:href="#b"/>
<use x="516.669811" y="814.545455" xlink:href="#b"/>
<use x="566.76793" y="814.545455" xlink:href="#b"/>
<use x="619.502792" y="814.545455" xlink:href="#b"/>
<use x="674.874397" y="814.545455" xlink:href="#b"/>
<use x="732.882745" y="814.545455" xlink:href="#b"/>
<use x="793.527837" y="814.545455" xlink:href="#b"/>
<use x="856.809671" y="814.545455" xlink:href="#b"/>
<use x="922.728248" y="814.545455" xlink:href="#b"/>
<use x="991.283569" y="814.545455" xlink:href="#b"/>
<use x="1062.475633" y="814.545455" xlink:href="#b"/>
<use x="1136.30444" y="814.545455" xlink:href="#b"/>
<use x="1212.76999" y="814.545455" xlink:href="#b"/>
<use x="1291.872283" y="814.545455" xlink:href="#b"/>
<use x="1373.611319" y="814.545455" xlink:href="#b"/>
<use x="1457.987098" y="814.545455" xlink:href="#b"/>
<use x="1544.999621" y="814.545455" xlink:href="#b"/>
<use x="1547.636364" y="299.466443" xlink:href="#b"/>
<use x="485.743927" y="38.787879" xlink:href="#b"/>
<use x="331.896376" y="169.258379" xlink:href="#b"/>
<use x="527.641592" y="169.258379" xlink:href="#b"/>
<use x="973.675985" y="299.466443" xlink:href="#b"/>
<use x="713.107172" y="429.345941" xlink:href="#b"/>
<use x="922.728248" y="687.548513" xlink:href="#b"/>
<use x="1285.192534" y="429.345941" xlink:href="#b"/>
<use x="991.283569" y="687.548513" xlink:href="#b"/>
<use x="1218.043476" y="687.548513" xlink:href="#b"/>
<use x="1213.648904" y="558.784904" xlink:href="#b"/>
<use x="1136.30444" y="687.548513" xlink:href="#b"/>
<use x="1212.76999" y="687.548513" xlink:href="#b"/>
<use x="1291.872283" y="687.548513" xlink:href="#b"/>
<use x="619.502792" y="687.548513" xlink:href="#b"/>
<use x="674.874397" y="687.548513" xlink:href="#b"/>
<use x="732.882745" y="687.548513" xlink:href="#b"/>
<use x="825.168754" y="558.784904" xlink:href="#b"/>
<use x="793.527837" y="687.548513" xlink:href="#b"/>
<use x="856.809671" y="687.548513" xlink:href="#b"/>
<use x="97.73894" y="299.466443" xlink:href="#b"/>
<use x="362.420339" y="558.784904" xlink:href="#b"/>
<use x="424.383802" y="687.548513" xlink:href="#b"/>
<use x="469.208435" y="687.548513" xlink:href="#b"/>
<use x="342.644766" y="687.548513" xlink:href="#b"/>
<use x="382.195913" y="687.548513" xlink:href="#b"/>
<use x="73.69697" y="687.548513" xlink:href="#b"/>
<use x="81.607199" y="687.548513" xlink:href="#b"/>
<use x="143.497419" y="429.345941" xlink:href="#b"/>
<use x="105.337887" y="687.548513" xlink:href="#b"/>
<use x="121.158346" y="687.548513" xlink:href="#b"/>
<use x="139.615547" y="687.548513" xlink:href="#b"/>
<use x="172.574836" y="558.784904" xlink:href="#b"/>
<use x="240.690699" y="558.784904" xlink:href="#b"/>
<use x="210.807611" y="687.548513" xlink:href="#b"/>
<use x="239.811785" y="687.548513" xlink:href="#b"/>
<use x="271.452702" y="687.548513" xlink:href="#b"/>
<use x="160.709492" y="687.548513" xlink:href="#b"/>
<use x="184.44018" y="687.548513" xlink:href="#b"/>
<use x="92.154171" y="687.548513" xlink:href="#b"/>
<use x="305.730363" y="687.548513" xlink:href="#b"/>
<use x="516.669811" y="687.548513" xlink:href="#b"/>
<use x="566.76793" y="687.548513" xlink:href="#b"/>
<use x="1457.987098" y="687.548513" xlink:href="#b"/>
<use x="1544.999621" y="687.548513" xlink:href="#b"/>
</g>
<g clip-path="url(#a)">
<defs>
<path id="r" d="m30.609 48.391q-7.2188 0-11.422-5.6406t-4.2031-15.453 4.1719-15.453q4.1875-5.6406 11.453-5.6406 7.1875 0 11.375 5.6562 4.2031 5.6719 4.2031 15.438 0 9.7188-4.2031 15.406-4.1875 5.6875-11.375 5.6875zm0 7.6094q11.719 0 18.406-7.625 6.7031-7.6094 6.7031-21.078 0-13.422-6.7031-21.078-6.6875-7.6406-18.406-7.6406-11.766 0-18.438 7.6406-6.6562 7.6562-6.6562 21.078 0 13.469 6.6562 21.078 6.6719 7.625 18.438 7.625z"/>
</defs>
<g transform="translate(68.434 817.3) scale(.1 -.1)">
<use xlink:href="#l"/>
<use x="44.083984" xlink:href="#r"/>
</g>
</g>
<g clip-path="url(#a)">
<g transform="translate(63.267 817.3) scale(.1 -.1)">
<use xlink:href="#al"/>
<use x="53.962891" xlink:href="#d"/>
<use x="115.486328" xlink:href="#i"/>
<use x="178.865234" xlink:href="#i"/>
<use x="242.244141" xlink:href="#r"/>
<use x="303.425781" xlink:href="#i"/>
</g>
</g>
<g clip-path="url(#a)">
<defs>
<path id="ao" d="m11.719 12.406h10.297v-8.4062l-8-15.625h-6.2969l4 15.625z"/>
</defs>
<g transform="translate(90.565 817.3) scale(.1 -.1)">
<use xlink:href="#ao"/>
</g>
</g>
<g clip-path="url(#a)">
<defs>
<path id="ah" d="m4.2031 54.688h8.9844l11.234-42.672 11.172 42.672h10.594l11.234-42.672 11.188 42.672h8.9844l-14.312-54.688h-10.594l-11.766 44.828-11.812-44.828h-10.609z"/>
<path id="w" d="m54.891 33.016v-33.016h-8.9844v32.719q0 7.7656-3.0312 11.609-3.0312 3.8594-9.0781 3.8594-7.2812 0-11.484-4.6406-4.2031-4.625-4.2031-12.641v-30.906h-9.0312v75.984h9.0312v-29.797q3.2344 4.9375 7.5938 7.375 4.375 2.4375 10.094 2.4375 9.4219 0 14.25-5.8281 4.8438-5.8281 4.8438-17.156z"/>
</defs>
<g transform="translate(95.021 817.3) scale(.1 -.1)">
<use xlink:href="#ah"/>
<use x="81.787109" xlink:href="#w"/>
<use x="145.166016" xlink:href="#r"/>
</g>
</g>
<g clip-path="url(#a)">
<defs>
<path id="v" d="m44.281 53.078v-8.5q-3.7969 1.9531-7.9062 2.9219-4.0938 0.98438-8.5 0.98438-6.6875 0-10.031-2.0469t-3.3438-6.1562q0-3.125 2.3906-4.9062t9.625-3.3906l3.0781-0.6875q9.5625-2.0469 13.594-5.7812t4.0312-10.422q0-7.625-6.0312-12.078-6.0312-4.4375-16.578-4.4375-4.3906 0-9.1562 0.85938t-10.031 2.5625v9.2812q4.9844-2.5938 9.8125-3.8906 4.8281-1.2812 9.5781-1.2812 6.3438 0 9.75 2.1719 3.4219 2.1719 3.4219 6.125 0 3.6562-2.4688 5.6094-2.4531 1.9531-10.812 3.7656l-3.125 0.73438q-8.3438 1.75-12.062 5.3906-3.7031 3.6406-3.7031 9.9844 0 7.7188 5.4688 11.906 5.4688 4.2031 15.531 4.2031 4.9688 0 9.3594-0.73438 4.4062-0.71875 8.1094-2.1875z"/>
</defs>
<g transform="translate(111.4 817.3) scale(.1 -.1)">
<use xlink:href="#ah"/>
<use x="81.787109" xlink:href="#f"/>
<use x="143.066406" xlink:href="#v"/>
</g>
</g>
<g clip-path="url(#a)">
<defs>
<path id="q" d="m18.312 70.219v-15.531h18.5v-6.9844h-18.5v-29.688q0-6.6875 1.8281-8.5938t7.4531-1.9062h9.2188v-7.5156h-9.2188q-10.406 0-14.359 3.875-3.9531 3.8906-3.9531 14.141v29.688h-6.5938v6.9844h6.5938v15.531z"/>
<path id="at" d="m54.891 54.688-19.781-26.609 20.797-28.078h-10.594l-15.922 21.484-15.906-21.484h-10.609l21.25 28.609-19.438 26.078h10.594l14.5-19.484 14.5 19.484z"/>
<path id="aj" d="m48.781 52.594v-8.4062q-3.8125 2.1094-7.6406 3.1562t-7.7344 1.0469q-8.75 0-13.594-5.5469-4.8281-5.5312-4.8281-15.547t4.8281-15.562q4.8438-5.5312 13.594-5.5312 3.9062 0 7.7344 1.0469t7.6406 3.1562v-8.3125q-3.7656-1.75-7.7969-2.625-4.0156-0.89062-8.5625-0.89062-12.359 0-19.641 7.7656-7.2656 7.7656-7.2656 20.953 0 13.375 7.3438 21.031 7.3594 7.6719 20.156 7.6719 4.1406 0 8.0938-0.85938 3.9531-0.84375 7.6719-2.5469z"/>
<path id="ai" d="m45.406 46.391v29.594h8.9844v-75.984h-8.9844v8.2031q-2.8281-4.875-7.1562-7.25-4.3125-2.375-10.375-2.375-9.9062 0-16.141 7.9062-6.2188 7.9219-6.2188 20.812t6.2188 20.797q6.2344 7.9062 16.141 7.9062 6.0625 0 10.375-2.375 4.3281-2.3594 7.1562-7.2344zm-30.609-19.094q0-9.9062 4.0781-15.547t11.203-5.6406 11.219 5.6406q4.1094 5.6406 4.1094 15.547t-4.1094 15.547q-4.0938 5.6406-11.219 5.6406t-11.203-5.6406-4.0781-15.547z"/>
</defs>
<g transform="translate(111.82 817.3) scale(.1 -.1)">
<use xlink:href="#g"/>
<use x="27.783203" xlink:href="#i"/>
<use x="91.162109" xlink:href="#q"/>
<use x="130.371094" xlink:href="#r"/>
<use x="188.427734" xlink:href="#at"/>
<use x="247.607422" xlink:href="#g"/>
<use x="275.390625" xlink:href="#aj"/>
<use x="330.371094" xlink:href="#f"/>
<use x="391.650391" xlink:href="#q"/>
<use x="430.859375" xlink:href="#d"/>
<use x="492.382812" xlink:href="#ai"/>
</g>
</g>
<g clip-path="url(#a)">
<g transform="translate(150.1 817.3) scale(.1 -.1)">
<use xlink:href="#ah"/>
<use x="81.787109" xlink:href="#g"/>
<use x="109.570312" xlink:href="#q"/>
<use x="148.779297" xlink:href="#w"/>
</g>
</g>
<g clip-path="url(#a)">
<g transform="translate(166.56 817.3) scale(.1 -.1)">
<use xlink:href="#f"/>
<use x="61.279297" xlink:href="#h"/>
<use x="89.0625" xlink:href="#aj"/>
<use x="144.042969" xlink:href="#r"/>
<use x="205.224609" xlink:href="#w"/>
<use x="268.603516" xlink:href="#r"/>
<use x="329.785156" xlink:href="#h"/>
</g>
</g>
<g clip-path="url(#a)">
<g transform="translate(205.78 817.3) scale(.1 -.1)">
<use xlink:href="#f"/>
<use x="61.279297" xlink:href="#q"/>
</g>
</g>
<g clip-path="url(#a)">
<g transform="translate(231.61 817.3) scale(.1 -.1)">
<use xlink:href="#q"/>
<use x="39.208984" xlink:href="#w"/>
<use x="102.587891" xlink:href="#d"/>
</g>
</g>
<g clip-path="url(#a)">
<g transform="translate(260.16 817.3) scale(.1 -.1)">
<use xlink:href="#q"/>
<use x="39.208984" xlink:href="#g"/>
<use x="66.992188" xlink:href="#k"/>
<use x="164.404297" xlink:href="#d"/>
</g>
</g>
<g clip-path="url(#a)">
<g transform="translate(304.14 817.3) scale(.1 -.1)">
<use xlink:href="#ao"/>
</g>
</g>
<g clip-path="url(#a)">
<g transform="translate(334.44 817.3) scale(.1 -.1)">
<use xlink:href="#q"/>
<use x="39.208984" xlink:href="#w"/>
<use x="102.587891" xlink:href="#d"/>
</g>
</g>
<g clip-path="url(#a)">
<g transform="translate(365.21 817.3) scale(.1 -.1)">
<use xlink:href="#k"/>
<use x="97.412109" xlink:href="#f"/>
<use x="158.691406" xlink:href="#q"/>
<use x="197.900391" xlink:href="#q"/>
<use x="237.109375" xlink:href="#d"/>
<use x="298.632812" xlink:href="#j"/>
</g>
</g>
<g clip-path="url(#a)">
<g transform="translate(414.63 817.3) scale(.1 -.1)">
<use xlink:href="#ah"/>
<use x="81.787109" xlink:href="#f"/>
<use x="143.066406" xlink:href="#v"/>
</g>
</g>
<g clip-path="url(#a)">
<defs>
<path id="aw" d="m18.109 8.2031v-29h-9.0312v75.484h9.0312v-8.2969q2.8438 4.875 7.1562 7.2344 4.3281 2.375 10.328 2.375 9.9688 0 16.188-7.9062 6.2344-7.9062 6.2344-20.797t-6.2344-20.812q-6.2188-7.9062-16.188-7.9062-6 0-10.328 2.375-4.3125 2.375-7.1562 7.25zm30.578 19.094q0 9.9062-4.0781 15.547t-11.203 5.6406q-7.1406 0-11.219-5.6406t-4.0781-15.547 4.0781-15.547 11.219-5.6406q7.125 0 11.203 5.6406t4.0781 15.547z"/>
</defs>
<g transform="translate(452.7 817.3) scale(.1 -.1)">
<use xlink:href="#v"/>
<use x="52.099609" xlink:href="#g"/>
<use x="79.882812" xlink:href="#k"/>
<use x="177.294922" xlink:href="#aw"/>
<use x="240.771484" xlink:href="#h"/>
<use x="268.554688" xlink:href="#d"/>
</g>
</g>
<g clip-path="url(#a)">
<defs>
<path id="ar" d="m11.719 12.406h10.297v-12.406h-10.297zm0 39.297h10.297v-12.391h-10.297z"/>
</defs>
<g transform="translate(514.99 817.3) scale(.1 -.1)">
<use xlink:href="#ar"/>
</g>
</g>
<g clip-path="url(#a)">
<defs>
<path id="ap" d="m17.922 72.906v-27.109h-8.2969v27.109zm18.453 0v-27.109h-8.2969v27.109z"/>
</defs>
<g transform="translate(564.47 817.3) scale(.1 -.1)">
<use xlink:href="#ap"/>
</g>
</g>
<g clip-path="url(#a)">
<g transform="translate(612.67 817.3) scale(.1 -.1)">
<use xlink:href="#x"/>
<use x="75.195312" xlink:href="#d"/>
</g>
</g>
<g clip-path="url(#a)">
<g transform="translate(660.03 817.3) scale(.1 -.1)">
<use xlink:href="#aj"/>
<use x="54.980469" xlink:href="#f"/>
<use x="116.259766" xlink:href="#h"/>
<use x="144.042969" xlink:href="#h"/>
<use x="171.826172" xlink:href="#d"/>
<use x="233.349609" xlink:href="#ai"/>
</g>
</g>
<g clip-path="url(#a)">
<g transform="translate(724.94 817.3) scale(.1 -.1)">
<use xlink:href="#k"/>
<use x="97.412109" xlink:href="#d"/>
</g>
</g>
<g clip-path="url(#a)">
<g transform="translate(790.46 817.3) scale(.1 -.1)">
<use xlink:href="#f"/>
</g>
</g>
<g clip-path="url(#a)">
<defs>
<path id="av" d="m14.797 27.297q0-9.9062 4.0781-15.547t11.203-5.6406 11.219 5.6406q4.1094 5.6406 4.1094 15.547t-4.1094 15.547q-4.0938 5.6406-11.219 5.6406t-11.203-5.6406-4.0781-15.547zm30.609-19.094q-2.8281-4.875-7.1562-7.25-4.3125-2.375-10.375-2.375-9.9062 0-16.141 7.9062-6.2188 7.9219-6.2188 20.812t6.2188 20.797q6.2344 7.9062 16.141 7.9062 6.0625 0 10.375-2.375 4.3281-2.3594 7.1562-7.2344v8.2969h8.9844v-75.484h-8.9844z"/>
<path id="au" d="m8.5 21.578v33.109h8.9844v-32.766q0-7.7656 3.0156-11.656 3.0312-3.875 9.0938-3.875 7.2656 0 11.484 4.6406 4.2344 4.6406 4.2344 12.656v31h8.9844v-54.688h-8.9844v8.4062q-3.2656-4.9844-7.5938-7.4062-4.3125-2.4219-10.031-2.4219-9.4219 0-14.312 5.8594-4.875 5.8594-4.875 17.141z"/>
</defs>
<g transform="translate(842.26 817.3) scale(.1 -.1)">
<use xlink:href="#av"/>
<use x="63.476562" xlink:href="#au"/>
<use x="126.855469" xlink:href="#d"/>
<use x="188.378906" xlink:href="#d"/>
<use x="249.902344" xlink:href="#j"/>
</g>
</g>
<g clip-path="url(#a)">
<g transform="translate(917.06 817.3) scale(.1 -.1)">
<use xlink:href="#v"/>
<use x="52.099609" xlink:href="#r"/>
</g>
</g>
<g clip-path="url(#a)">
<defs>
<path id="ad" d="m9.8125 72.906h9.8594v-72.906h-9.8594z"/>
</defs>
<g transform="translate(989.81 817.3) scale(.1 -.1)">
<use xlink:href="#ad"/>
</g>
</g>
<g clip-path="url(#a)">
<defs>
<path id="ak" d="m48.688 27.297q0 9.9062-4.0781 15.547t-11.203 5.6406q-7.1406 0-11.219-5.6406t-4.0781-15.547 4.0781-15.547 11.219-5.6406q7.125 0 11.203 5.6406t4.0781 15.547zm-30.578 19.094q2.8438 4.875 7.1562 7.2344 4.3281 2.375 10.328 2.375 9.9688 0 16.188-7.9062 6.2344-7.9062 6.2344-20.797t-6.2344-20.812q-6.2188-7.9062-16.188-7.9062-6 0-10.328 2.375-4.3125 2.375-7.1562 7.25v-8.2031h-9.0312v75.984h9.0312z"/>
</defs>
<g transform="translate(1041 817.3) scale(.1 -.1)">
<use xlink:href="#ak"/>
<use x="63.476562" xlink:href="#f"/>
<use x="124.755859" xlink:href="#q"/>
<use x="163.964844" xlink:href="#q"/>
<use x="203.173828" xlink:href="#d"/>
<use x="264.697266" xlink:href="#j"/>
<use x="303.560547" xlink:href="#d"/>
<use x="365.083984" xlink:href="#ai"/>
</g>
</g>
<g clip-path="url(#a)">
<g transform="translate(1129.1 817.3) scale(.1 -.1)">
<use xlink:href="#w"/>
<use x="63.378906" xlink:href="#g"/>
<use x="91.162109" xlink:href="#v"/>
</g>
</g>
<g clip-path="url(#a)">
<defs>
<path id="as" d="m32.172-5.0781q-3.7969-9.7656-7.4219-12.734-3.6094-2.9844-9.6562-2.9844h-7.1875v7.5156h5.2812q3.7031 0 5.75 1.7656 2.0625 1.75 4.5469 8.2969l1.6094 4.0938-22.109 53.812h9.5156l17.094-42.766 17.094 42.766h9.5156z"/>
</defs>
<g transform="translate(1196 817.3) scale(.1 -.1)">
<use xlink:href="#ak"/>
<use x="63.476562" xlink:href="#h"/>
<use x="91.259766" xlink:href="#r"/>
<use x="152.441406" xlink:href="#r"/>
<use x="213.623047" xlink:href="#ai"/>
<use x="277.099609" xlink:href="#as"/>
</g>
</g>
<g clip-path="url(#a)">
<g transform="translate(1282.6 817.3) scale(.1 -.1)">
<use xlink:href="#j"/>
<use x="41.113281" xlink:href="#g"/>
<use x="68.896484" xlink:href="#ak"/>
<use x="132.373047" xlink:href="#v"/>
</g>
</g>
<g clip-path="url(#a)">
<g transform="translate(1369.1 817.3) scale(.1 -.1)">
<use xlink:href="#g"/>
<use x="27.783203" xlink:href="#i"/>
</g>
</g>
<g clip-path="url(#a)">
<g transform="translate(1455.7 817.3) scale(.1 -.1)">
<use xlink:href="#ap"/>
</g>
</g>
<g clip-path="url(#a)">
<defs>
<path id="e" d="m10.688 12.406h10.312v-12.406h-10.312z"/>
</defs>
<g transform="translate(1543.4 817.3) scale(.1 -.1)">
<use xlink:href="#e"/>
</g>
</g>
<g clip-path="url(#a)">
<defs>
<path id="aq" d="m9.8125 72.906h14.703l18.594-49.609 18.703 49.609h14.703v-72.906h-9.625v64.016l-18.797-50h-9.9062l-18.797 50v-64.016h-9.5781z"/>
</defs>
<g transform="translate(1526.6 302.23) scale(.1 -.1)">
<use xlink:href="#ad"/>
<use x="29.492188" xlink:href="#aq"/>
<use x="115.771484" xlink:href="#ac"/>
<use x="176.074219" xlink:href="#al"/>
<use x="231.787109" xlink:href="#ad"/>
<use x="261.279297" xlink:href="#s"/>
<use x="331.103516" xlink:href="#ad"/>
<use x="360.595703" xlink:href="#l"/>
</g>
</g>
<g clip-path="url(#a)">
<defs>
<path id="c" d="m12.406 8.2969h16.109v55.625l-17.531-3.5156v8.9844l17.438 3.5156h9.8594v-64.609h16.109v-8.2969h-41.984z"/>
</defs>
<g transform="translate(477.79 41.547) scale(.1 -.1)">
<use xlink:href="#c"/>
<use x="63.623047" xlink:href="#e"/>
<use x="95.410156" xlink:href="#c"/>
</g>
</g>
<g clip-path="url(#a)">
<defs>
<path id="n" d="m19.188 8.2969h34.422v-8.2969h-46.281v8.2969q5.6094 5.8125 15.297 15.594 9.7031 9.7969 12.188 12.641 4.7344 5.3125 6.6094 9 1.8906 3.6875 1.8906 7.25 0 5.8125-4.0781 9.4688-4.0781 3.6719-10.625 3.6719-4.6406 0-9.7969-1.6094-5.1406-1.6094-11-4.8906v9.9688q5.9531 2.3906 11.125 3.6094 5.1875 1.2188 9.4844 1.2188 11.328 0 18.062-5.6719 6.7344-5.6562 6.7344-15.125 0-4.5-1.6875-8.5312-1.6719-4.0156-6.125-9.4844-1.2188-1.4219-7.7656-8.1875-6.5312-6.7656-18.453-18.922z"/>
</defs>
<g transform="translate(323.94 172.02) scale(.1 -.1)">
<use xlink:href="#c"/>
<use x="63.623047" xlink:href="#e"/>
<use x="95.410156" xlink:href="#n"/>
</g>
</g>
<g clip-path="url(#a)">
<defs>
<path id="m" d="m40.578 39.312q7.0781-1.5156 11.047-6.3125 3.9844-4.7812 3.9844-11.812 0-10.781-7.4219-16.703-7.4219-5.9062-21.094-5.9062-4.5781 0-9.4375 0.90625t-10.031 2.7188v9.5156q4.0938-2.3906 8.9688-3.6094 4.8906-1.2188 10.219-1.2188 9.2656 0 14.125 3.6562t4.8594 10.641q0 6.4531-4.5156 10.078-4.5156 3.6406-12.562 3.6406h-8.5v8.1094h8.8906q7.2656 0 11.125 2.9062t3.8594 8.375q0 5.6094-3.9844 8.6094-3.9688 3.0156-11.391 3.0156-4.0625 0-8.7031-0.89062-4.6406-0.875-10.203-2.7188v8.7812q5.625 1.5625 10.531 2.3438t9.25 0.78125q11.234 0 17.766-5.1094 6.5469-5.0938 6.5469-13.781 0-6.0625-3.4688-10.234t-9.8594-5.7812z"/>
</defs>
<g transform="translate(519.69 172.02) scale(.1 -.1)">
<use xlink:href="#c"/>
<use x="63.623047" xlink:href="#e"/>
<use x="95.410156" xlink:href="#m"/>
</g>
</g>
<g clip-path="url(#a)">
<defs>
<path id="z" d="m8.2031 72.906h46.875v-4.2031l-26.469-68.703h-10.297l24.906 64.594h-35.016z"/>
</defs>
<g transform="translate(965.72 302.23) scale(.1 -.1)">
<use xlink:href="#c"/>
<use x="63.623047" xlink:href="#e"/>
<use x="95.410156" xlink:href="#z"/>
</g>
</g>
<g clip-path="url(#a)">
<defs>
<path id="y" d="m31.781 34.625q-7.0312 0-11.062-3.7656-4.0156-3.7656-4.0156-10.344 0-6.5938 4.0156-10.359 4.0312-3.7656 11.062-3.7656t11.078 3.7812q4.0625 3.7969 4.0625 10.344 0 6.5781-4.0312 10.344-4.0156 3.7656-11.109 3.7656zm-9.8594 4.1875q-6.3438 1.5625-9.8906 5.9062-3.5312 4.3594-3.5312 10.609 0 8.7344 6.2188 13.812 6.2344 5.0781 17.062 5.0781 10.891 0 17.094-5.0781t6.2031-13.812q0-6.25-3.5469-10.609-3.5312-4.3438-9.8281-5.9062 7.125-1.6562 11.094-6.5 3.9844-4.8281 3.9844-11.797 0-10.609-6.4688-16.281-6.4688-5.6562-18.531-5.6562-12.047 0-18.531 5.6562-6.4688 5.6719-6.4688 16.281 0 6.9688 4 11.797 4.0156 4.8438 11.141 6.5zm-3.6094 15.578q0-5.6562 3.5312-8.8281 3.5469-3.1719 9.9375-3.1719 6.3594 0 9.9375 3.1719 3.5938 3.1719 3.5938 8.8281 0 5.6719-3.5938 8.8438-3.5781 3.1719-9.9375 3.1719-6.3906 0-9.9375-3.1719-3.5312-3.1719-3.5312-8.8438z"/>
</defs>
<g transform="translate(705.16 432.11) scale(.1 -.1)">
<use xlink:href="#c"/>
<use x="63.623047" xlink:href="#e"/>
<use x="95.410156" xlink:href="#y"/>
</g>
</g>
<g clip-path="url(#a)">
<defs>
<path id="ae" d="m10.984 1.5156v8.9844q3.7188-1.7656 7.5156-2.6875 3.8125-0.92188 7.4844-0.92188 9.7656 0 14.906 6.5625 5.1562 6.5625 5.8906 19.953-2.8281-4.2031-7.1875-6.4531-4.3438-2.25-9.6094-2.25-10.938 0-17.312 6.6094-6.375 6.625-6.375 18.109 0 11.219 6.6406 18 6.6406 6.7969 17.672 6.7969 12.656 0 19.312-9.7031 6.6719-9.6875 6.6719-28.141 0-17.234-8.1875-27.516-8.1719-10.281-21.984-10.281-3.7188 0-7.5312 0.73438-3.7969 0.73438-7.9062 2.2031zm19.625 30.906q6.6406 0 10.516 4.5312 3.8906 4.5469 3.8906 12.469 0 7.8594-3.8906 12.422-3.875 4.5625-10.516 4.5625t-10.516-4.5625-3.875-12.422q0-7.9219 3.875-12.469 3.875-4.5312 10.516-4.5312z"/>
</defs>
<g transform="translate(914.78 690.31) scale(.1 -.1)">
<use xlink:href="#c"/>
<use x="63.623047" xlink:href="#e"/>
<use x="95.410156" xlink:href="#ae"/>
</g>
</g>
<g clip-path="url(#a)">
<defs>
<path id="aa" d="m31.781 66.406q-7.6094 0-11.453-7.5-3.8281-7.4844-3.8281-22.531 0-14.984 3.8281-22.484 3.8438-7.5 11.453-7.5 7.6719 0 11.5 7.5 3.8438 7.5 3.8438 22.484 0 15.047-3.8438 22.531-3.8281 7.5-11.5 7.5zm0 7.8125q12.266 0 18.734-9.7031 6.4688-9.6875 6.4688-28.141 0-18.406-6.4688-28.109-6.4688-9.6875-18.734-9.6875-12.25 0-18.719 9.6875-6.4688 9.7031-6.4688 28.109 0 18.453 6.4688 28.141 6.4688 9.7031 18.719 9.7031z"/>
</defs>
<g transform="translate(1274.1 432.11) scale(.1 -.1)">
<use xlink:href="#c"/>
<use x="63.623047" xlink:href="#e"/>
<use x="95.410156" xlink:href="#c"/>
<use x="159.033203" xlink:href="#aa"/>
</g>
</g>
<g clip-path="url(#a)">
<g transform="translate(980.15 690.31) scale(.1 -.1)">
<use xlink:href="#c"/>
<use x="63.623047" xlink:href="#e"/>
<use x="95.410156" xlink:href="#c"/>
<use x="159.033203" xlink:href="#c"/>
</g>
</g>
<g clip-path="url(#a)">
<g transform="translate(1206.9 690.31) scale(.1 -.1)">
<use xlink:href="#c"/>
<use x="63.623047" xlink:href="#e"/>
<use x="95.410156" xlink:href="#c"/>
<use x="159.033203" xlink:href="#n"/>
</g>
</g>
<g clip-path="url(#a)">
<g transform="translate(1202.5 561.54) scale(.1 -.1)">
<use xlink:href="#c"/>
<use x="63.623047" xlink:href="#e"/>
<use x="95.410156" xlink:href="#c"/>
<use x="159.033203" xlink:href="#m"/>
</g>
</g>
<g clip-path="url(#a)">
<defs>
<path id="af" d="m33.016 40.375q-6.6406 0-10.531-4.5469-3.875-4.5312-3.875-12.438 0-7.8594 3.875-12.438 3.8906-4.5625 10.531-4.5625t10.516 4.5625q3.875 4.5781 3.875 12.438 0 7.9062-3.875 12.438-3.875 4.5469-10.516 4.5469zm19.578 30.922v-8.9844q-3.7188 1.75-7.5 2.6719-3.7812 0.9375-7.5 0.9375-9.7656 0-14.922-6.5938-5.1406-6.5938-5.875-19.922 2.875 4.25 7.2188 6.5156 4.3594 2.2656 9.5781 2.2656 10.984 0 17.359-6.6719 6.375-6.6562 6.375-18.125 0-11.234-6.6406-18.031-6.6406-6.7812-17.672-6.7812-12.656 0-19.344 9.6875-6.6875 9.7031-6.6875 28.109 0 17.281 8.2031 27.562t22.016 10.281q3.7188 0 7.5-0.73438t7.8906-2.1875z"/>
</defs>
<g transform="translate(1125.2 690.31) scale(.1 -.1)">
<use xlink:href="#c"/>
<use x="63.623047" xlink:href="#e"/>
<use x="95.410156" xlink:href="#c"/>
<use x="159.033203" xlink:href="#af"/>
</g>
</g>
<g clip-path="url(#a)">
<g transform="translate(1201.6 690.31) scale(.1 -.1)">
<use xlink:href="#c"/>
<use x="63.623047" xlink:href="#e"/>
<use x="95.410156" xlink:href="#c"/>
<use x="159.033203" xlink:href="#z"/>
</g>
</g>
<g clip-path="url(#a)">
<g transform="translate(1280.7 690.31) scale(.1 -.1)">
<use xlink:href="#c"/>
<use x="63.623047" xlink:href="#e"/>
<use x="95.410156" xlink:href="#c"/>
<use x="159.033203" xlink:href="#y"/>
</g>
</g>
<g clip-path="url(#a)">
<g transform="translate(608.37 690.31) scale(.1 -.1)">
<use xlink:href="#c"/>
<use x="63.623047" xlink:href="#e"/>
<use x="95.410156" xlink:href="#c"/>
<use x="159.033203" xlink:href="#ae"/>
</g>
</g>
<g clip-path="url(#a)">
<g transform="translate(663.74 690.31) scale(.1 -.1)">
<use xlink:href="#c"/>
<use x="63.623047" xlink:href="#e"/>
<use x="95.410156" xlink:href="#n"/>
<use x="159.033203" xlink:href="#aa"/>
</g>
</g>
<g clip-path="url(#a)">
<g transform="translate(721.75 690.31) scale(.1 -.1)">
<use xlink:href="#c"/>
<use x="63.623047" xlink:href="#e"/>
<use x="95.410156" xlink:href="#n"/>
<use x="159.033203" xlink:href="#c"/>
</g>
</g>
<g clip-path="url(#a)">
<g transform="translate(814.04 561.54) scale(.1 -.1)">
<use xlink:href="#c"/>
<use x="63.623047" xlink:href="#e"/>
<use x="95.410156" xlink:href="#n"/>
<use x="159.033203" xlink:href="#n"/>
</g>
</g>
<g clip-path="url(#a)">
<g transform="translate(782.4 690.31) scale(.1 -.1)">
<use xlink:href="#c"/>
<use x="63.623047" xlink:href="#e"/>
<use x="95.410156" xlink:href="#n"/>
<use x="159.033203" xlink:href="#m"/>
</g>
</g>
<g clip-path="url(#a)">
<defs>
<path id="o" d="m37.797 64.312-24.906-38.922h24.906zm-2.5938 8.5938h12.406v-47.516h10.406v-8.2031h-10.406v-17.188h-9.8125v17.188h-32.906v9.5156z"/>
</defs>
<g transform="translate(845.68 690.31) scale(.1 -.1)">
<use xlink:href="#c"/>
<use x="63.623047" xlink:href="#e"/>
<use x="95.410156" xlink:href="#n"/>
<use x="159.033203" xlink:href="#o"/>
</g>
</g>
<g clip-path="url(#a)">
<defs>
<path id="ag" d="m10.797 72.906h38.719v-8.3125h-29.688v-17.859q2.1406 0.73438 4.2812 1.0938 2.1562 0.35938 4.3125 0.35938 12.203 0 19.328-6.6875 7.1406-6.6875 7.1406-18.109 0-11.766-7.3281-18.297-7.3281-6.5156-20.656-6.5156-4.5938 0-9.3594 0.78125-4.75 0.78125-9.8281 2.3438v9.9219q4.3906-2.3906 9.0781-3.5625t9.9062-1.1719q8.4531 0 13.375 4.4375 4.9375 4.4375 4.9375 12.062 0 7.6094-4.9375 12.047-4.9219 4.4531-13.375 4.4531-3.9531 0-7.8906-0.875-3.9219-0.875-8.0156-2.7344z"/>
</defs>
<g transform="translate(86.606 302.23) scale(.1 -.1)">
<use xlink:href="#c"/>
<use x="63.623047" xlink:href="#e"/>
<use x="95.410156" xlink:href="#n"/>
<use x="159.033203" xlink:href="#ag"/>
</g>
</g>
<g clip-path="url(#a)">
<g transform="translate(351.29 561.54) scale(.1 -.1)">
<use xlink:href="#c"/>
<use x="63.623047" xlink:href="#e"/>
<use x="95.410156" xlink:href="#n"/>
<use x="159.033203" xlink:href="#af"/>
</g>
</g>
<g clip-path="url(#a)">
<g transform="translate(413.25 690.31) scale(.1 -.1)">
<use xlink:href="#c"/>
<use x="63.623047" xlink:href="#e"/>
<use x="95.410156" xlink:href="#n"/>
<use x="159.033203" xlink:href="#z"/>
</g>
</g>
<g clip-path="url(#a)">
<g transform="translate(458.08 690.31) scale(.1 -.1)">
<use xlink:href="#c"/>
<use x="63.623047" xlink:href="#e"/>
<use x="95.410156" xlink:href="#n"/>
<use x="159.033203" xlink:href="#y"/>
</g>
</g>
<g clip-path="url(#a)">
<g transform="translate(331.51 690.31) scale(.1 -.1)">
<use xlink:href="#c"/>
<use x="63.623047" xlink:href="#e"/>
<use x="95.410156" xlink:href="#m"/>
<use x="159.033203" xlink:href="#aa"/>
</g>
</g>
<g clip-path="url(#a)">
<g transform="translate(371.06 690.31) scale(.1 -.1)">
<use xlink:href="#c"/>
<use x="63.623047" xlink:href="#e"/>
<use x="95.410156" xlink:href="#m"/>
<use x="159.033203" xlink:href="#c"/>
</g>
</g>
<g clip-path="url(#a)">
<g transform="translate(62.564 690.31) scale(.1 -.1)">
<use xlink:href="#c"/>
<use x="63.623047" xlink:href="#e"/>
<use x="95.410156" xlink:href="#m"/>
<use x="159.033203" xlink:href="#n"/>
</g>
</g>
<g clip-path="url(#a)">
<g transform="translate(70.474 690.31) scale(.1 -.1)">
<use xlink:href="#c"/>
<use x="63.623047" xlink:href="#e"/>
<use x="95.410156" xlink:href="#m"/>
<use x="159.033203" xlink:href="#m"/>
</g>
</g>
<g clip-path="url(#a)">
<g transform="translate(132.36 432.11) scale(.1 -.1)">
<use xlink:href="#c"/>
<use x="63.623047" xlink:href="#e"/>
<use x="95.410156" xlink:href="#m"/>
<use x="159.033203" xlink:href="#o"/>
</g>
</g>
<g clip-path="url(#a)">
<g transform="translate(94.205 690.31) scale(.1 -.1)">
<use xlink:href="#c"/>
<use x="63.623047" xlink:href="#e"/>
<use x="95.410156" xlink:href="#m"/>
<use x="159.033203" xlink:href="#af"/>
</g>
</g>
<g clip-path="url(#a)">
<g transform="translate(110.03 690.31) scale(.1 -.1)">
<use xlink:href="#c"/>
<use x="63.623047" xlink:href="#e"/>
<use x="95.410156" xlink:href="#m"/>
<use x="159.033203" xlink:href="#z"/>
</g>
</g>
<g clip-path="url(#a)">
<g transform="translate(128.48 690.31) scale(.1 -.1)">
<use xlink:href="#c"/>
<use x="63.623047" xlink:href="#e"/>
<use x="95.410156" xlink:href="#m"/>
<use x="159.033203" xlink:href="#y"/>
</g>
</g>
<g clip-path="url(#a)">
<g transform="translate(161.44 561.54) scale(.1 -.1)">
<use xlink:href="#c"/>
<use x="63.623047" xlink:href="#e"/>
<use x="95.410156" xlink:href="#m"/>
<use x="159.033203" xlink:href="#ae"/>
</g>
</g>
<g clip-path="url(#a)">
<g transform="translate(229.56 561.54) scale(.1 -.1)">
<use xlink:href="#c"/>
<use x="63.623047" xlink:href="#e"/>
<use x="95.410156" xlink:href="#o"/>
<use x="159.033203" xlink:href="#aa"/>
</g>
</g>
<g clip-path="url(#a)">
<g transform="translate(199.67 690.31) scale(.1 -.1)">
<use xlink:href="#c"/>
<use x="63.623047" xlink:href="#e"/>
<use x="95.410156" xlink:href="#o"/>
<use x="159.033203" xlink:href="#c"/>
</g>
</g>
<g clip-path="url(#a)">
<g transform="translate(228.68 690.31) scale(.1 -.1)">
<use xlink:href="#c"/>
<use x="63.623047" xlink:href="#e"/>
<use x="95.410156" xlink:href="#o"/>
<use x="159.033203" xlink:href="#n"/>
</g>
</g>
<g clip-path="url(#a)">
<g transform="translate(260.32 690.31) scale(.1 -.1)">
<use xlink:href="#c"/>
<use x="63.623047" xlink:href="#e"/>
<use x="95.410156" xlink:href="#o"/>
<use x="159.033203" xlink:href="#m"/>
</g>
</g>
<g clip-path="url(#a)">
<g transform="translate(149.58 690.31) scale(.1 -.1)">
<use xlink:href="#c"/>
<use x="63.623047" xlink:href="#e"/>
<use x="95.410156" xlink:href="#o"/>
<use x="159.033203" xlink:href="#o"/>
</g>
</g>
<g clip-path="url(#a)">
<g transform="translate(173.31 690.31) scale(.1 -.1)">
<use xlink:href="#c"/>
<use x="63.623047" xlink:href="#e"/>
<use x="95.410156" xlink:href="#o"/>
<use x="159.033203" xlink:href="#ag"/>
</g>
</g>
<g clip-path="url(#a)">
<g transform="translate(81.021 690.31) scale(.1 -.1)">
<use xlink:href="#c"/>
<use x="63.623047" xlink:href="#e"/>
<use x="95.410156" xlink:href="#o"/>
<use x="159.033203" xlink:href="#af"/>
</g>
</g>
<g clip-path="url(#a)">
<g transform="translate(294.6 690.31) scale(.1 -.1)">
<use xlink:href="#c"/>
<use x="63.623047" xlink:href="#e"/>
<use x="95.410156" xlink:href="#o"/>
<use x="159.033203" xlink:href="#z"/>
</g>
</g>
<g clip-path="url(#a)">
<g transform="translate(505.54 690.31) scale(.1 -.1)">
<use xlink:href="#c"/>
<use x="63.623047" xlink:href="#e"/>
<use x="95.410156" xlink:href="#o"/>
<use x="159.033203" xlink:href="#y"/>
</g>
</g>
<g clip-path="url(#a)">
<g transform="translate(555.64 690.31) scale(.1 -.1)">
<use xlink:href="#c"/>
<use x="63.623047" xlink:href="#e"/>
<use x="95.410156" xlink:href="#o"/>
<use x="159.033203" xlink:href="#ae"/>
</g>
</g>
<g clip-path="url(#a)">
<g transform="translate(1446.9 690.31) scale(.1 -.1)">
<use xlink:href="#c"/>
<use x="63.623047" xlink:href="#e"/>
<use x="95.410156" xlink:href="#ag"/>
<use x="159.033203" xlink:href="#aa"/>
</g>
</g>
<g clip-path="url(#a)">
<g transform="translate(1533.9 690.31) scale(.1 -.1)">
<use xlink:href="#c"/>
<use x="63.623047" xlink:href="#e"/>
<use x="95.410156" xlink:href="#ag"/>
<use x="159.033203" xlink:href="#c"/>
</g>
</g>
<defs>
<clipPath id="a">
<rect width="1621.3" height="853.33"/>
</clipPath>
</defs>
</svg>
