<?xml version="1.0" encoding="UTF-8"?>
<!DOCTYPE svg  PUBLIC '-//W3C//DTD SVG 1.1//EN'  'http://www.w3.org/Graphics/SVG/1.1/DTD/svg11.dtd'>
<svg width="1976pt" height="1040pt" version="1.1" viewBox="0 0 1976 1040" xmlns="http://www.w3.org/2000/svg" xmlns:xlink="http://www.w3.org/1999/xlink">
<defs>
<style type="text/css">*{stroke-linecap:butt;stroke-linejoin:round;}</style>
</defs>
<path d="m0 1040h1976v-1040h-1976z" fill="#fff"/>
<g fill="none" stroke="#000">
<path d="m125.52 47.273-22.51 678.69" clip-path="url(#a)"/>
<path d="m125.52 47.273 51.616 136.31" clip-path="url(#a)"/>
<path d="m125.52 47.273-29.106 812.99" clip-path="url(#a)"/>
<path d="m103.01 725.96 13.192 134.3" clip-path="url(#a)" stroke-dasharray="3.7,1.6"/>
<path d="m103.01 725.96-13.192 134.3" clip-path="url(#a)"/>
<path d="m177.14 183.59-66.43 542.37" clip-path="url(#a)"/>
<path d="m177.14 183.59-47.741 676.68" clip-path="url(#a)"/>
<path d="m177.14 183.59-32.349 676.68" clip-path="url(#a)"/>
<path d="m177.14 183.59 146.52 136.09" clip-path="url(#a)"/>
<path d="m110.71 725.96-5.4968 134.3" clip-path="url(#a)"/>
<path d="m110.71 725.96 5.4968 134.3" clip-path="url(#a)"/>
<path d="m129.4 860.27v132.46" clip-path="url(#a)"/>
<path d="m144.79 860.27v132.46" clip-path="url(#a)"/>
<path d="m323.66 319.67-161.28 540.59" clip-path="url(#a)"/>
<path d="m323.66 319.67-141.49 540.59" clip-path="url(#a)"/>
<path d="m323.66 319.67-119.5 540.59" clip-path="url(#a)"/>
<path d="m323.66 319.67 422.27 135.81" clip-path="url(#a)"/>
<path d="m162.38 860.27v132.46" clip-path="url(#a)"/>
<path d="m182.16 860.27v132.46" clip-path="url(#a)"/>
<path d="m204.15 860.27v132.46" clip-path="url(#a)"/>
<path d="m745.93 455.48-503.3 270.48" clip-path="url(#a)"/>
<path d="m745.93 455.48-431.84 404.78" clip-path="url(#a)"/>
<path d="m745.93 455.48-317.32 135.47" clip-path="url(#a)"/>
<path d="m745.93 455.48-55.857 404.78" clip-path="url(#a)"/>
<path d="m745.93 455.48 130.82 135.47" clip-path="url(#a)"/>
<path d="m745.93 455.48 498.22 404.78" clip-path="url(#a)"/>
<path d="m745.93 455.48 785.71 135.47" clip-path="url(#a)"/>
<path d="m745.93 455.48-106.43 404.78" clip-path="url(#a)"/>
<path d="m242.63 725.96-38.478 134.3" clip-path="url(#a)" stroke-dasharray="3.7,1.6"/>
<path d="m242.63 725.96-14.292 134.3" clip-path="url(#a)"/>
<path d="m242.63 725.96 12.093 134.3" clip-path="url(#a)"/>
<path d="m242.63 725.96 40.677 134.3" clip-path="url(#a)"/>
<path d="m314.09 860.27v132.46" clip-path="url(#a)"/>
<path d="m428.61 590.95-81.536 269.31" clip-path="url(#a)"/>
<path d="m428.61 590.95-46.357 269.31" clip-path="url(#a)"/>
<path d="m428.61 590.95 10.81 135.01" clip-path="url(#a)"/>
<path d="m428.61 590.95 117.08 135.01" clip-path="url(#a)"/>
<path d="m690.07 860.27v132.46" clip-path="url(#a)"/>
<path d="m876.74 590.95-133.9 269.31" clip-path="url(#a)"/>
<path d="m876.74 590.95-78.934 269.31" clip-path="url(#a)"/>
<path d="m876.74 590.95-21.767 269.31" clip-path="url(#a)"/>
<path d="m876.74 590.95 37.598 269.31" clip-path="url(#a)"/>
<path d="m876.74 590.95 197.01 135.01" clip-path="url(#a)"/>
<path d="m1244.2 860.27v132.46" clip-path="url(#a)"/>
<path d="m1531.6 590.95-177.55 135.01" clip-path="url(#a)"/>
<path d="m1531.6 590.95-63.214 269.31" clip-path="url(#a)"/>
<path d="m1531.6 590.95 15.941 269.31" clip-path="url(#a)"/>
<path d="m1531.6 590.95 224.82 135.01" clip-path="url(#a)"/>
<path d="m1354.1 725.96-37.378 134.3" clip-path="url(#a)"/>
<path d="m1354.1 725.96 37.378 134.3" clip-path="url(#a)"/>
<path d="m1468.4 860.27v132.46" clip-path="url(#a)"/>
<path d="m1547.6 860.27v132.46" clip-path="url(#a)"/>
<path d="m1756.5 725.96-127.53 134.3" clip-path="url(#a)"/>
<path d="m1756.5 725.96-43.975 134.3" clip-path="url(#a)"/>
<path d="m1756.5 725.96 41.776 134.3" clip-path="url(#a)"/>
<path d="m1756.5 725.96 129.73 134.3" clip-path="url(#a)"/>
<path d="m1628.9 860.27v132.46" clip-path="url(#a)"/>
<path d="m1712.5 860.27v132.46" clip-path="url(#a)"/>
<path d="m1798.2 860.27v132.46" clip-path="url(#a)"/>
<path d="m1316.7 860.27v132.46" clip-path="url(#a)"/>
<path d="m1391.5 860.27v132.46" clip-path="url(#a)"/>
<path d="m742.84 860.27v132.46" clip-path="url(#a)"/>
<path d="m797.81 860.27v132.46" clip-path="url(#a)"/>
<path d="m854.98 860.27v132.46" clip-path="url(#a)"/>
<path d="m914.34 860.27v132.46" clip-path="url(#a)"/>
<path d="m1073.8 725.96-97.844 134.3" clip-path="url(#a)"/>
<path d="m1073.8 725.96-34.08 134.3" clip-path="url(#a)"/>
<path d="m1073.8 725.96 31.882 134.3" clip-path="url(#a)"/>
<path d="m1073.8 725.96 100.04 134.3" clip-path="url(#a)"/>
<path d="m975.91 860.27v132.46" clip-path="url(#a)"/>
<path d="m1039.7 860.27v132.46" clip-path="url(#a)"/>
<path d="m1105.6 860.27v132.46" clip-path="url(#a)"/>
<path d="m1173.8 860.27v132.46" clip-path="url(#a)"/>
<path d="m347.07 860.27v132.46" clip-path="url(#a)"/>
<path d="m382.25 860.27v132.46" clip-path="url(#a)"/>
<path d="m439.42 725.96-19.789 134.3" clip-path="url(#a)"/>
<path d="m439.42 725.96 19.789 134.3" clip-path="url(#a)"/>
<path d="m545.69 725.96-44.708 134.3" clip-path="url(#a)"/>
<path d="m545.69 725.96-0.73291 134.3" clip-path="url(#a)"/>
<path d="m545.69 725.96 45.44 134.3" clip-path="url(#a)"/>
<path d="m500.98 860.27v132.46" clip-path="url(#a)"/>
<path d="m544.96 860.27v132.46" clip-path="url(#a)"/>
<path d="m591.13 860.27v132.46" clip-path="url(#a)"/>
<path d="m419.63 860.27v132.46" clip-path="url(#a)"/>
<path d="m459.21 860.27v132.46" clip-path="url(#a)"/>
<path d="m228.34 860.27v132.46" clip-path="url(#a)"/>
<path d="m254.72 860.27v132.46" clip-path="url(#a)"/>
<path d="m283.31 860.27v132.46" clip-path="url(#a)"/>
<path d="m105.21 860.27v132.46" clip-path="url(#a)"/>
<path d="m116.2 860.27v132.46" clip-path="url(#a)"/>
<path d="m89.818 860.27v132.46" clip-path="url(#a)"/>
<path d="m96.414 860.27v132.46" clip-path="url(#a)"/>
<path d="m639.5 860.27v132.46" clip-path="url(#a)"/>
<path d="m1886.2 860.27v132.46" clip-path="url(#a)"/>
</g>
<path d="m120.43 389.83 0.19943-6.0129q0.079556-2.3987-2.3191-2.4782l-7.7382-0.25665q-2.3987-0.079556-2.4782 2.3191l-0.19943 6.0129q-0.079556 2.3987 2.3191 2.4782l7.7382 0.25665q2.3987 0.079556 2.4782-2.3191z" clip-path="url(#a)" fill="#fff" stroke="#fff"/>
<g clip-path="url(#a)">
<defs>
<path id="z" d="m9.8125 72.906h9.8594v-29.891h35.844v29.891h9.8594v-72.906h-9.8594v34.719h-35.844v-34.719h-9.8594z"/>
</defs>
<g transform="translate(116.37 389.7) rotate(-88.1) scale(.08 -.08)">
<use xlink:href="#z"/>
</g>
</g>
<path d="m144.4 114.84 2.1305 5.6264q0.84988 2.2445 3.0944 1.3946l7.2408-2.7418q2.2445-0.84988 1.3946-3.0944l-2.1305-5.6264q-0.84988-2.2445-3.0944-1.3946l-7.2408 2.7418q-2.2445 0.84988-1.3946 3.0944z" clip-path="url(#a)" fill="#fff" stroke="#fff"/>
<g clip-path="url(#a)">
<g transform="translate(148.2 113.4) rotate(69.261) scale(.08 -.08)">
<use xlink:href="#z"/>
</g>
</g>
<path d="m117.13 456.92 0.20948-5.8513q0.085867-2.3985-2.3126-2.4843l-7.7375-0.27701q-2.3985-0.085868-2.4843 2.3126l-0.20948 5.8513q-0.085867 2.3985 2.3126 2.4843l7.7375 0.27701q2.3985 0.085867 2.4843-2.3126z" clip-path="url(#a)" fill="#fff" stroke="#fff"/>
<g clip-path="url(#a)">
<defs>
<path id="al" d="m8.6875 72.906h9.9219v-44.297q0-11.719 4.2344-16.875 4.25-5.1406 13.781-5.1406 9.4688 0 13.719 5.1406 4.25 5.1562 4.25 16.875v44.297h9.9062v-45.516q0-14.25-7.0625-21.531-7.0469-7.2812-20.812-7.2812-13.828 0-20.891 7.2812-7.0469 7.2812-7.0469 21.531z"/>
</defs>
<g transform="translate(113.07 456.77) rotate(-87.95) scale(.08 -.08)">
<use xlink:href="#al"/>
</g>
</g>
<path d="m103.1 791 0.53497 5.4463q0.23462 2.3885 2.6231 2.1539l7.7054-0.75688q2.3885-0.23462 2.1539-2.6231l-0.53497-5.4463q-0.23462-2.3885-2.6231-2.1539l-7.7054 0.75688q-2.3885 0.23462-2.1539 2.6231z" clip-path="url(#a)" fill="#fff" stroke="#fff"/>
<g clip-path="url(#a)">
<defs>
<path id="p" d="m34.188 63.188-13.391-36.281h26.812zm-5.5781 9.7188h11.188l27.781-72.906h-10.25l-6.6406 18.703h-32.859l-6.6406-18.703h-10.406z"/>
</defs>
<g transform="translate(107.14 790.61) rotate(84.39) scale(.08 -.08)">
<use xlink:href="#p"/>
</g>
</g>
<path d="m102.42 796.13 0.47155-4.8006q0.23462-2.3885-2.1539-2.6231l-7.7054-0.75688q-2.3885-0.23462-2.6231 2.1539l-0.47156 4.8006q-0.23462 2.3885 2.1539 2.6231l7.7054 0.75688q2.3885 0.23462 2.6231-2.1539z" clip-path="url(#a)" fill="#fff" stroke="#fff"/>
<g clip-path="url(#a)">
<defs>
<path id="y" d="m19.672 64.797v-27.391h12.406q6.8906 0 10.641 3.5625 3.7656 3.5625 3.7656 10.156 0 6.5469-3.7656 10.109-3.75 3.5625-10.641 3.5625zm-9.8594 8.1094h22.266q12.266 0 18.531-5.5469 6.2812-5.5469 6.2812-16.234 0-10.797-6.2812-16.312-6.2656-5.5156-18.531-5.5156h-12.406v-29.297h-9.8594z"/>
</defs>
<g transform="translate(98.376 795.73) rotate(-84.39) scale(.08 -.08)">
<use xlink:href="#y"/>
</g>
</g>
<path d="m149.81 458.25 0.6653-5.4319q0.29177-2.3822-2.0904-2.674l-7.6851-0.94126q-2.3822-0.29177-2.674 2.0904l-0.6653 5.4319q-0.29177 2.3822 2.0904 2.674l7.6851 0.94126q2.3822 0.29177 2.674-2.0904z" clip-path="url(#a)" fill="#fff" stroke="#fff"/>
<g clip-path="url(#a)">
<g transform="translate(145.78 457.76) rotate(-83.017) scale(.08 -.08)">
<use xlink:href="#p"/>
</g>
</g>
<path d="m159.35 524.77 0.33948-4.8118q0.1689-2.394-2.2251-2.563l-7.7233-0.54489q-2.394-0.1689-2.563 2.2251l-0.33948 4.8118q-0.1689 2.394 2.2251 2.563l7.7233 0.54489q2.394 0.1689 2.563-2.2251z" clip-path="url(#a)" fill="#fff" stroke="#fff"/>
<g clip-path="url(#a)">
<g transform="translate(155.3 524.49) rotate(-85.964) scale(.08 -.08)">
<use xlink:href="#y"/>
</g>
</g>
<path d="m167.09 524.96 0.26132-5.4663q0.1146-2.3973-2.2827-2.5119l-7.7337-0.36972q-2.3973-0.1146-2.5119 2.2827l-0.26132 5.4663q-0.1146 2.3973 2.2827 2.5119l7.7337 0.36972q2.3973 0.1146 2.5119-2.2827z" clip-path="url(#a)" fill="#fff" stroke="#fff"/>
<g clip-path="url(#a)">
<g transform="translate(163.04 524.76) rotate(-87.263) scale(.08 -.08)">
<use xlink:href="#p"/>
</g>
</g>
<path d="m244.12 254.36 4.0098 3.7242q1.7585 1.6333 3.3918-0.12523l5.269-5.6731q1.6333-1.7585-0.12524-3.3918l-4.0098-3.7242q-1.7585-1.6333-3.3918 0.12523l-5.269 5.6731q-1.6333 1.7585 0.12524 3.3918z" clip-path="url(#a)" fill="#fff" stroke="#fff"/>
<g clip-path="url(#a)">
<g transform="translate(246.89 251.38) rotate(42.885) scale(.08 -.08)">
<use xlink:href="#p"/>
</g>
</g>
<path d="m114.12 795.89 0.20672-5.0508q0.098145-2.398-2.2998-2.4961l-7.736-0.31662q-2.398-0.098145-2.4961 2.2998l-0.20672 5.0508q-0.098145 2.398 2.2998 2.4961l7.736 0.31662q2.398 0.098145 2.4961-2.2998z" clip-path="url(#a)" fill="#fff" stroke="#fff"/>
<g clip-path="url(#a)">
<defs>
<path id="s" d="m9.8125 72.906h46.094v-8.3125h-36.234v-21.578h34.719v-8.2969h-34.719v-26.422h37.109v-8.2969h-46.969z"/>
</defs>
<g transform="translate(110.06 795.73) rotate(-87.656) scale(.08 -.08)">
<use xlink:href="#s"/>
</g>
</g>
<path d="m107.07 790.58 0.22844 5.5816q0.098145 2.398 2.4961 2.2998l7.736-0.31662q2.398-0.098145 2.2998-2.4961l-0.22844-5.5816q-0.098145-2.398-2.4961-2.2998l-7.736 0.31662q-2.398 0.098145-2.2998 2.4961z" clip-path="url(#a)" fill="#fff" stroke="#fff"/>
<g clip-path="url(#a)">
<defs>
<path id="x" d="m64.406 67.281v-10.391q-4.9844 4.6406-10.625 6.9219-5.6406 2.2969-11.984 2.2969-12.5 0-19.141-7.6406t-6.6406-22.094q0-14.406 6.6406-22.047t19.141-7.6406q6.3438 0 11.984 2.2969t10.625 6.9375v-10.312q-5.1719-3.5156-10.969-5.2812-5.7812-1.75-12.219-1.75-16.562 0-26.094 10.125-9.5156 10.141-9.5156 27.672 0 17.578 9.5156 27.703 9.5312 10.141 26.094 10.141 6.5312 0 12.312-1.7344 5.7969-1.7344 10.875-5.2031z"/>
</defs>
<g transform="translate(111.13 790.41) rotate(87.656) scale(.08 -.08)">
<use xlink:href="#x"/>
</g>
</g>
<path d="m123.12 909.59v33.808q0 2.4 2.4 2.4h7.7425q2.4 0 2.4-2.4v-33.808q0-2.4-2.4-2.4h-7.7425q-2.4 0-2.4 2.4z" clip-path="url(#a)" fill="#fff" stroke="#fff"/>
<g clip-path="url(#a)">
<defs>
<path id="l" d="m-0.29688 72.906h61.672v-8.3125h-25.875v-64.594h-9.9062v64.594h-25.891z"/>
<path id="d" d="m56.203 29.594v-4.3906h-41.312q0.59375-9.2812 5.5938-14.141t13.938-4.8594q5.1719 0 10.031 1.2656t9.6562 3.8125v-8.5q-4.8438-2.0469-9.9219-3.125t-10.297-1.0781q-13.094 0-20.734 7.6094-7.6406 7.625-7.6406 20.625 0 13.422 7.25 21.297 7.25 7.8906 19.562 7.8906 11.031 0 17.453-7.1094 6.4219-7.0938 6.4219-19.297zm-8.9844 2.6406q-0.09375 7.3594-4.125 11.75-4.0312 4.4062-10.672 4.4062-7.5156 0-12.031-4.25t-5.2031-11.969z"/>
<path id="h" d="m41.109 46.297q-1.5156 0.875-3.2969 1.2812-1.7812 0.42188-3.9219 0.42188-7.625 0-11.703-4.9531t-4.0781-14.234v-28.812h-9.0312v54.688h9.0312v-8.5q2.8438 4.9844 7.375 7.3906 4.5469 2.4219 11.047 2.4219 0.92188 0 2.0469-0.125 1.125-0.10938 2.4844-0.35938z"/>
<path id="k" d="m52 44.188q3.375 6.0625 8.0625 8.9375t11.031 2.875q8.5469 0 13.188-5.9844 4.6406-5.9688 4.6406-17v-33.016h-9.0312v32.719q0 7.8594-2.7969 11.656-2.7812 3.8125-8.4844 3.8125-6.9844 0-11.047-4.6406-4.0469-4.625-4.0469-12.641v-30.906h-9.0312v32.719q0 7.9062-2.7812 11.688t-8.5938 3.7812q-6.8906 0-10.953-4.6562-4.0469-4.6562-4.0469-12.625v-30.906h-9.0312v54.688h9.0312v-8.5q3.0781 5.0312 7.375 7.4219t10.203 2.3906q5.9688 0 10.141-3.0312 4.1719-3.0156 6.1719-8.7812z"/>
<path id="i" d="m9.4219 54.688h8.9844v-54.688h-8.9844zm0 21.297h8.9844v-11.391h-8.9844z"/>
<path id="f" d="m54.891 33.016v-33.016h-8.9844v32.719q0 7.7656-3.0312 11.609-3.0312 3.8594-9.0781 3.8594-7.2812 0-11.484-4.6406-4.2031-4.625-4.2031-12.641v-30.906h-9.0312v54.688h9.0312v-8.5q3.2344 4.9375 7.5938 7.375 4.375 2.4375 10.094 2.4375 9.4219 0 14.25-5.8281 4.8438-5.8281 4.8438-17.156z"/>
<path id="g" d="m34.281 27.484q-10.891 0-15.094-2.4844t-4.2031-8.5q0-4.7812 3.1562-7.5938 3.1562-2.7969 8.5625-2.7969 7.4844 0 12 5.2969t4.5156 14.078v2zm17.922 3.7188v-31.203h-8.9844v8.2969q-3.0781-4.9688-7.6719-7.3438t-11.234-2.375q-8.3906 0-13.359 4.7188-4.9531 4.7188-4.9531 12.625 0 9.2188 6.1719 13.906 6.1875 4.6875 18.438 4.6875h12.609v0.89062q0 6.2031-4.0781 9.5938t-11.453 3.3906q-4.6875 0-9.1406-1.125-4.4375-1.125-8.5312-3.375v8.3125q4.9219 1.9062 9.5625 2.8438 4.6406 0.95312 9.0312 0.95312 11.875 0 17.734-6.1562 5.8594-6.1406 5.8594-18.641z"/>
<path id="j" d="m9.4219 75.984h8.9844v-75.984h-8.9844z"/>
</defs>
<g transform="translate(127.19 909.59) rotate(90) scale(.08 -.08)">
<use xlink:href="#l"/>
<use x="44.083984" xlink:href="#d"/>
<use x="105.607422" xlink:href="#h"/>
<use x="144.970703" xlink:href="#k"/>
<use x="242.382812" xlink:href="#i"/>
<use x="270.166016" xlink:href="#f"/>
<use x="333.544922" xlink:href="#g"/>
<use x="394.824219" xlink:href="#j"/>
</g>
</g>
<path d="m138.52 909.59v33.808q0 2.4 2.4 2.4h7.7425q2.4 0 2.4-2.4v-33.808q0-2.4-2.4-2.4h-7.7425q-2.4 0-2.4 2.4z" clip-path="url(#a)" fill="#fff" stroke="#fff"/>
<g clip-path="url(#a)">
<g transform="translate(142.58 909.59) rotate(90) scale(.08 -.08)">
<use xlink:href="#l"/>
<use x="44.083984" xlink:href="#d"/>
<use x="105.607422" xlink:href="#h"/>
<use x="144.970703" xlink:href="#k"/>
<use x="242.382812" xlink:href="#i"/>
<use x="270.166016" xlink:href="#f"/>
<use x="333.544922" xlink:href="#g"/>
<use x="394.824219" xlink:href="#j"/>
</g>
</g>
<path d="m248.23 594.42 1.5892-5.3267q0.68613-2.2998-1.6137-2.986l-7.4194-2.2135q-2.2998-0.68612-2.986 1.6137l-1.5892 5.3267q-0.68612 2.2998 1.6137 2.986l7.4194 2.2135q2.2998 0.68612 2.986-1.6137z" clip-path="url(#a)" fill="#fff" stroke="#fff"/>
<g clip-path="url(#a)">
<defs>
<path id="ah" d="m44.391 34.188q3.1719-1.0781 6.1719-4.5938t6.0312-9.6719l10.016-19.922h-10.609l-9.3125 18.703q-3.625 7.3281-7.0156 9.7188t-9.25 2.3906h-10.75v-30.812h-9.8594v72.906h22.266q12.5 0 18.656-5.2344 6.1562-5.2188 6.1562-15.766 0-6.8906-3.2031-11.438-3.2031-4.5312-9.2969-6.2812zm-24.719 30.609v-25.875h12.406q7.125 0 10.766 3.2969t3.6406 9.6875-3.6406 9.6406-10.766 3.25z"/>
</defs>
<g transform="translate(244.34 593.26) rotate(-73.388) scale(.08 -.08)">
<use xlink:href="#ah"/>
</g>
</g>
<path d="m258.34 594 1.2799-4.8903q0.60769-2.3218-1.7141-2.9295l-7.4902-1.9604q-2.3218-0.60769-2.9295 1.7141l-1.2799 4.8903q-0.60769 2.3218 1.7141 2.9295l7.4902 1.9604q2.3218 0.60769 2.9295-1.7141z" clip-path="url(#a)" fill="#fff" stroke="#fff"/>
<g clip-path="url(#a)">
<g transform="translate(254.41 592.97) rotate(-75.333) scale(.08 -.08)">
<use xlink:href="#s"/>
</g>
</g>
<path d="m269.42 594.05 1.2058-5.4546q0.51804-2.3434-1.8254-2.8615l-7.56-1.6712q-2.3434-0.51804-2.8615 1.8254l-1.2058 5.4546q-0.51804 2.3434 1.8254 2.8615l7.56 1.6712q2.3434 0.51804 2.8615-1.8254z" clip-path="url(#a)" fill="#fff" stroke="#fff"/>
<g clip-path="url(#a)">
<g transform="translate(265.46 593.17) rotate(-77.535) scale(.08 -.08)">
<use xlink:href="#x"/>
</g>
</g>
<path d="m530.47 392.77 4.8122 1.5477q2.2847 0.73482 3.0196-1.5499l2.3706-7.3707q0.73482-2.2847-1.5499-3.0196l-4.8122-1.5477q-2.2847-0.73482-3.0196 1.5499l-2.3706 7.3707q-0.73482 2.2847 1.5499 3.0196z" clip-path="url(#a)" fill="#fff" stroke="#fff"/>
<g clip-path="url(#a)">
<g transform="translate(531.71 388.9) rotate(17.829) scale(.08 -.08)">
<use xlink:href="#s"/>
</g>
</g>
<path d="m156.11 909.59v33.808q0 2.4 2.4 2.4h7.7425q2.4 0 2.4-2.4v-33.808q0-2.4-2.4-2.4h-7.7425q-2.4 0-2.4 2.4z" clip-path="url(#a)" fill="#fff" stroke="#fff"/>
<g clip-path="url(#a)">
<g transform="translate(160.17 909.59) rotate(90) scale(.08 -.08)">
<use xlink:href="#l"/>
<use x="44.083984" xlink:href="#d"/>
<use x="105.607422" xlink:href="#h"/>
<use x="144.970703" xlink:href="#k"/>
<use x="242.382812" xlink:href="#i"/>
<use x="270.166016" xlink:href="#f"/>
<use x="333.544922" xlink:href="#g"/>
<use x="394.824219" xlink:href="#j"/>
</g>
</g>
<path d="m175.89 909.59v33.808q0 2.4 2.4 2.4h7.7425q2.4 0 2.4-2.4v-33.808q0-2.4-2.4-2.4h-7.7425q-2.4 0-2.4 2.4z" clip-path="url(#a)" fill="#fff" stroke="#fff"/>
<g clip-path="url(#a)">
<g transform="translate(179.96 909.59) rotate(90) scale(.08 -.08)">
<use xlink:href="#l"/>
<use x="44.083984" xlink:href="#d"/>
<use x="105.607422" xlink:href="#h"/>
<use x="144.970703" xlink:href="#k"/>
<use x="242.382812" xlink:href="#i"/>
<use x="270.166016" xlink:href="#f"/>
<use x="333.544922" xlink:href="#g"/>
<use x="394.824219" xlink:href="#j"/>
</g>
</g>
<path d="m197.88 909.59v33.808q0 2.4 2.4 2.4h7.7425q2.4 0 2.4-2.4v-33.808q0-2.4-2.4-2.4h-7.7425q-2.4 0-2.4 2.4z" clip-path="url(#a)" fill="#fff" stroke="#fff"/>
<g clip-path="url(#a)">
<g transform="translate(201.94 909.59) rotate(90) scale(.08 -.08)">
<use xlink:href="#l"/>
<use x="44.083984" xlink:href="#d"/>
<use x="105.607422" xlink:href="#h"/>
<use x="144.970703" xlink:href="#k"/>
<use x="242.382812" xlink:href="#i"/>
<use x="270.166016" xlink:href="#f"/>
<use x="333.544922" xlink:href="#g"/>
<use x="394.824219" xlink:href="#j"/>
</g>
</g>
<path d="m494.6 597.67 5.2995-2.848q2.1141-1.1361 0.97794-3.2502l-3.6652-6.82q-1.1361-2.1141-3.2502-0.97794l-5.2995 2.848q-2.1141 1.1361-0.97794 3.2502l3.6652 6.82q1.1361 2.1141 3.2502 0.97794z" clip-path="url(#a)" fill="#fff" stroke="#fff"/>
<g clip-path="url(#a)">
<g transform="translate(492.67 594.09) rotate(-28.254) scale(.08 -.08)">
<use xlink:href="#z"/>
</g>
</g>
<path d="m532.67 663.97 3.2522-3.0484q1.751-1.6413 0.10971-3.3923l-5.2949-5.6489q-1.6413-1.751-3.3923-0.10971l-3.2522 3.0484q-1.751 1.6413-0.10971 3.3923l5.2949 5.6489q1.6413 1.751 3.3923 0.10971z" clip-path="url(#a)" fill="#fff" stroke="#fff"/>
<g clip-path="url(#a)">
<defs>
<path id="ai" d="m9.8125 72.906h9.8594v-64.609h35.5v-8.2969h-45.359z"/>
</defs>
<g transform="translate(529.89 661.01) rotate(-43.148) scale(.08 -.08)">
<use xlink:href="#ai"/>
</g>
</g>
<path d="m586.96 530.17 5.5331-2.3622q2.2073-0.94231 1.265-3.1496l-3.0399-7.1208q-0.94231-2.2073-3.1496-1.265l-5.5331 2.3622q-2.2073 0.94231-1.265 3.1496l3.0399 7.1208q0.94231 2.2073 3.1496 1.265z" clip-path="url(#a)" fill="#fff" stroke="#fff"/>
<g clip-path="url(#a)">
<g transform="translate(585.37 526.43) rotate(-23.118) scale(.08 -.08)">
<use xlink:href="#z"/>
</g>
</g>
<path d="m723.91 660.94 0.60933-4.4157q0.32807-2.3775-2.0494-2.7055l-7.6698-1.0584q-2.3775-0.32807-2.7055 2.0494l-0.60933 4.4157q-0.32807 2.3775 2.0494 2.7055l7.6698 1.0584q2.3775 0.32807 2.7055-2.0494z" clip-path="url(#a)" fill="#fff" stroke="#fff"/>
<g clip-path="url(#a)">
<g transform="translate(719.88 660.38) rotate(-82.143) scale(.08 -.08)">
<use xlink:href="#ai"/>
</g>
</g>
<path d="m804.74 525.41 4.1792 4.3278q1.6671 1.7264 3.3936 0.059303l5.5696-5.3783q1.7264-1.6671 0.059303-3.3936l-4.1792-4.3278q-1.6671-1.7264-3.3936-0.059303l-5.5696 5.3783q-1.7264 1.6671-0.059303 3.3936z" clip-path="url(#a)" fill="#fff" stroke="#fff"/>
<g clip-path="url(#a)">
<g transform="translate(807.66 522.59) rotate(46.001) scale(.08 -.08)">
<use xlink:href="#z"/>
</g>
</g>
<path d="m989.36 661.34 3.4596 2.8108q1.8627 1.5134 3.3761-0.34935l4.8822-6.0092q1.5134-1.8627-0.34935-3.3761l-3.4596-2.8108q-1.8627-1.5134-3.3761 0.34935l-4.8822 6.0092q-1.5134 1.8627 0.34935 3.3761z" clip-path="url(#a)" fill="#fff" stroke="#fff"/>
<g clip-path="url(#a)">
<g transform="translate(991.92 658.18) rotate(39.092) scale(.08 -.08)">
<use xlink:href="#ai"/>
</g>
</g>
<path d="m1134.8 528.89 5.9288 1.0222q2.3651 0.40778 2.7729-1.9573l1.3155-7.6299q0.40778-2.3651-1.9573-2.7729l-5.9288-1.0222q-2.3651-0.40778-2.7729 1.9573l-1.3155 7.6299q-0.40778 2.3651 1.9573 2.7729z" clip-path="url(#a)" fill="#fff" stroke="#fff"/>
<g clip-path="url(#a)">
<g transform="translate(1135.4 524.88) rotate(9.7825) scale(.08 -.08)">
<use xlink:href="#z"/>
</g>
</g>
<path d="m698.04 662.3 1.4888-5.6625q0.61028-2.3211-1.7108-2.9314l-7.488-1.9688q-2.3211-0.61028-2.9314 1.7108l-1.4888 5.6625q-0.61028 2.3211 1.7108 2.9314l7.488 1.9688q2.3211 0.61028 2.9314-1.7108z" clip-path="url(#a)" fill="#fff" stroke="#fff"/>
<g clip-path="url(#a)">
<g transform="translate(694.11 661.27) rotate(-75.269) scale(.08 -.08)">
<use xlink:href="#al"/>
</g>
</g>
<path d="m228.67 797.47 1.5072-5.2609q0.661-2.3072-1.6462-2.9682l-7.4431-2.1324q-2.3072-0.661-2.9682 1.6462l-1.5072 5.2609q-0.661 2.3072 1.6462 2.9682l7.4431 2.1324q2.3072 0.661 2.9682-1.6462z" clip-path="url(#a)" fill="#fff" stroke="#fff"/>
<g clip-path="url(#a)">
<g transform="translate(224.76 796.35) rotate(-74.013) scale(.08 -.08)">
<use xlink:href="#p"/>
</g>
</g>
<path d="m241.43 796.5 0.57908-5.4418q0.25396-2.3865-2.1326-2.6405l-7.699-0.81928q-2.3865-0.25396-2.6405 2.1326l-0.57908 5.4418q-0.25396 2.3865 2.1326 2.6405l7.699 0.81928q2.3865 0.25396 2.6405-2.1326z" clip-path="url(#a)" fill="#fff" stroke="#fff"/>
<g clip-path="url(#a)">
<g transform="translate(237.39 796.07) rotate(-83.926) scale(.08 -.08)">
<use xlink:href="#p"/>
</g>
</g>
<path d="m242.15 790.61 0.55242 6.1352q0.21523 2.3903 2.6056 2.1751l7.7113-0.69434q2.3903-0.21523 2.1751-2.6056l-0.55242-6.1352q-0.21523-2.3903-2.6056-2.1751l-7.7113 0.69434q-2.3903 0.21523-2.1751 2.6056z" clip-path="url(#a)" fill="#fff" stroke="#fff"/>
<g clip-path="url(#a)">
<defs>
<path id="at" d="m19.672 64.797v-56.688h11.922q15.094 0 22.094 6.8281 7 6.8438 7 21.594 0 14.641-7 21.453t-22.094 6.8125zm-9.8594 8.1094h20.266q21.188 0 31.094-8.8125 9.9219-8.8125 9.9219-27.562 0-18.859-9.9688-27.703-9.9531-8.8281-31.047-8.8281h-20.266z"/>
</defs>
<g transform="translate(246.2 790.24) rotate(84.855) scale(.08 -.08)">
<use xlink:href="#at"/>
</g>
</g>
<path d="m256.27 792.62 1.3982 4.6167q0.69568 2.297 2.9926 1.6013l7.4101-2.2443q2.297-0.69568 1.6013-2.9926l-1.3982-4.6167q-0.69568-2.297-2.9926-1.6013l-7.4101 2.2443q-2.297 0.69568-1.6013 2.9926z" clip-path="url(#a)" fill="#fff" stroke="#fff"/>
<g clip-path="url(#a)">
<g transform="translate(260.16 791.44) rotate(73.15) scale(.08 -.08)">
<use xlink:href="#y"/>
</g>
</g>
<path d="m307.82 909.59v33.808q0 2.4 2.4 2.4h7.7425q2.4 0 2.4-2.4v-33.808q0-2.4-2.4-2.4h-7.7425q-2.4 0-2.4 2.4z" clip-path="url(#a)" fill="#fff" stroke="#fff"/>
<g clip-path="url(#a)">
<g transform="translate(311.88 909.59) rotate(90) scale(.08 -.08)">
<use xlink:href="#l"/>
<use x="44.083984" xlink:href="#d"/>
<use x="105.607422" xlink:href="#h"/>
<use x="144.970703" xlink:href="#k"/>
<use x="242.382812" xlink:href="#i"/>
<use x="270.166016" xlink:href="#f"/>
<use x="333.544922" xlink:href="#g"/>
<use x="394.824219" xlink:href="#j"/>
</g>
</g>
<path d="m393.05 730.04 1.5857-5.2377q0.69544-2.297-1.6016-2.9925l-7.4103-2.2435q-2.297-0.69544-2.9925 1.6016l-1.5857 5.2377q-0.69544 2.297 1.6016 2.9925l7.4103 2.2435q2.297 0.69544 2.9925-1.6016z" clip-path="url(#a)" fill="#fff" stroke="#fff"/>
<g clip-path="url(#a)">
<g transform="translate(389.16 728.87) rotate(-73.156) scale(.08 -.08)">
<use xlink:href="#p"/>
</g>
</g>
<path d="m411.2 729.05 0.81827-4.7538q0.40712-2.3652-1.9581-2.7723l-7.6303-1.3134q-2.3652-0.40712-2.7723 1.9581l-0.81827 4.7538q-0.40712 2.3652 1.9581 2.7723l7.6303 1.3134q2.3652 0.40712 2.7723-1.9581z" clip-path="url(#a)" fill="#fff" stroke="#fff"/>
<g clip-path="url(#a)">
<g transform="translate(407.19 728.36) rotate(-80.233) scale(.08 -.08)">
<use xlink:href="#y"/>
</g>
</g>
<path d="m427.54 656.23 0.4368 5.455q0.19156 2.3923 2.5839 2.2008l7.7178-0.61798q2.3923-0.19156 2.2008-2.5839l-0.4368-5.455q-0.19156-2.3923-2.5839-2.2008l-7.7178 0.61798q-2.3923 0.19156-2.2008 2.5839z" clip-path="url(#a)" fill="#fff" stroke="#fff"/>
<g clip-path="url(#a)">
<g transform="translate(431.59 655.9) rotate(85.422) scale(.08 -.08)">
<use xlink:href="#p"/>
</g>
</g>
<path d="m480.81 660.72 3.2013 3.6915q1.5724 1.8132 3.3856 0.24075l5.8493-5.0726q1.8132-1.5724 0.24076-3.3856l-3.2013-3.6915q-1.5724-1.8132-3.3856-0.24075l-5.8493 5.0726q-1.8132 1.5724-0.24075 3.3856z" clip-path="url(#a)" fill="#fff" stroke="#fff"/>
<g clip-path="url(#a)">
<g transform="translate(483.88 658.06) rotate(49.068) scale(.08 -.08)">
<use xlink:href="#l"/>
</g>
</g>
<path d="m683.8 909.59v33.808q0 2.4 2.4 2.4h7.7425q2.4 0 2.4-2.4v-33.808q0-2.4-2.4-2.4h-7.7425q-2.4 0-2.4 2.4z" clip-path="url(#a)" fill="#fff" stroke="#fff"/>
<g clip-path="url(#a)">
<g transform="translate(687.86 909.59) rotate(90) scale(.08 -.08)">
<use xlink:href="#l"/>
<use x="44.083984" xlink:href="#d"/>
<use x="105.607422" xlink:href="#h"/>
<use x="144.970703" xlink:href="#k"/>
<use x="242.382812" xlink:href="#i"/>
<use x="270.166016" xlink:href="#f"/>
<use x="333.544922" xlink:href="#g"/>
<use x="394.824219" xlink:href="#j"/>
</g>
</g>
<path d="m814.19 730.85 2.4364-4.9002q1.0685-2.149-1.0805-3.2175l-6.9329-3.447q-2.149-1.0685-3.2175 1.0805l-2.4364 4.9002q-1.0685 2.149 1.0805 3.2175l6.9329 3.447q2.149 1.0685 3.2175-1.0805z" clip-path="url(#a)" fill="#fff" stroke="#fff"/>
<g clip-path="url(#a)">
<g transform="translate(810.55 729.04) rotate(-63.563) scale(.08 -.08)">
<use xlink:href="#p"/>
</g>
</g>
<path d="m842.65 729.58 1.2942-4.4155q0.67503-2.3031-1.6281-2.9781l-7.4299-2.1777q-2.3031-0.67503-2.9781 1.6281l-1.2942 4.4155q-0.67503 2.3031 1.6281 2.9781l7.4299 2.1777q2.3031 0.67503 2.9781-1.6281z" clip-path="url(#a)" fill="#fff" stroke="#fff"/>
<g clip-path="url(#a)">
<defs>
<path id="ao" d="m9.8125 72.906h41.891v-8.3125h-32.031v-21.484h28.906v-8.2969h-28.906v-34.812h-9.8594z"/>
</defs>
<g transform="translate(838.75 728.44) rotate(-73.664) scale(.08 -.08)">
<use xlink:href="#ao"/>
</g>
</g>
<path d="m871.93 728.41 0.37069-4.5863q0.19335-2.3922-2.1988-2.5856l-7.7173-0.62376q-2.3922-0.19335-2.5856 2.1988l-0.37069 4.5863q-0.19335 2.3922 2.1988 2.5855l7.7173 0.62376q2.3922 0.19335 2.5856-2.1988z" clip-path="url(#a)" fill="#fff" stroke="#fff"/>
<g clip-path="url(#a)">
<g transform="translate(867.88 728.08) rotate(-85.379) scale(.08 -.08)">
<use xlink:href="#ao"/>
</g>
</g>
<path d="m889 724.09 0.66696 4.7774q0.33184 2.3769 2.7088 2.0451l7.6681-1.0705q2.3769-0.33184 2.0451-2.7088l-0.66696-4.7774q-0.33184-2.3769-2.7088-2.0451l-7.6681 1.0705q-2.3769 0.33184-2.0451 2.7088z" clip-path="url(#a)" fill="#fff" stroke="#fff"/>
<g clip-path="url(#a)">
<g transform="translate(893.02 723.52) rotate(82.052) scale(.08 -.08)">
<use xlink:href="#y"/>
</g>
</g>
<path d="m969.45 662.08 4.5142 3.0936q1.9797 1.3567 3.3364-0.62301l4.3768-6.3867q1.3567-1.9797-0.62301-3.3364l-4.5142-3.0936q-1.9797-1.3567-3.3364 0.62301l-4.3768 6.3867q-1.3567 1.9797 0.62301 3.3364z" clip-path="url(#a)" fill="#fff" stroke="#fff"/>
<g clip-path="url(#a)">
<g transform="translate(971.74 658.73) rotate(34.423) scale(.08 -.08)">
<use xlink:href="#p"/>
</g>
</g>
<path d="m1237.9 909.59v33.808q0 2.4 2.4 2.4h7.7425q2.4 0 2.4-2.4v-33.808q0-2.4-2.4-2.4h-7.7425q-2.4 0-2.4 2.4z" clip-path="url(#a)" fill="#fff" stroke="#fff"/>
<g clip-path="url(#a)">
<g transform="translate(1241.9 909.59) rotate(90) scale(.08 -.08)">
<use xlink:href="#l"/>
<use x="44.083984" xlink:href="#d"/>
<use x="105.607422" xlink:href="#h"/>
<use x="144.970703" xlink:href="#k"/>
<use x="242.382812" xlink:href="#i"/>
<use x="270.166016" xlink:href="#f"/>
<use x="333.544922" xlink:href="#g"/>
<use x="394.824219" xlink:href="#j"/>
</g>
</g>
<path d="m1444.5 665.1 4.3561-3.3125q1.9104-1.4527 0.45771-3.3631l-4.6865-6.1631q-1.4527-1.9104-3.3631-0.45771l-4.3561 3.3125q-1.9104 1.4527-0.45771 3.3631l4.6865 6.1631q1.4527 1.9104 3.3631 0.45771z" clip-path="url(#a)" fill="#fff" stroke="#fff"/>
<g clip-path="url(#a)">
<g transform="translate(1442 661.87) rotate(-37.25) scale(.08 -.08)">
<use xlink:href="#p"/>
</g>
</g>
<path d="m1505.6 729.39 1.1023-4.6961q0.54842-2.3365-1.7881-2.8849l-7.5376-1.7692q-2.3365-0.54842-2.8849 1.7881l-1.1023 4.6961q-0.54842 2.3365 1.7881 2.8849l7.5376 1.7692q2.3365 0.54842 2.8849-1.7881z" clip-path="url(#a)" fill="#fff" stroke="#fff"/>
<g clip-path="url(#a)">
<g transform="translate(1501.6 728.46) rotate(-76.791) scale(.08 -.08)">
<use xlink:href="#y"/>
</g>
</g>
<path d="m1533.2 723.25 0.32335 5.4629q0.14181 2.3958 2.5376 2.254l7.729-0.45748q2.3958-0.14181 2.254-2.5376l-0.32335-5.4629q-0.14181-2.3958-2.5376-2.254l-7.729 0.45748q-2.3958 0.14181-2.254 2.5376z" clip-path="url(#a)" fill="#fff" stroke="#fff"/>
<g clip-path="url(#a)">
<g transform="translate(1537.2 723.01) rotate(86.613) scale(.08 -.08)">
<use xlink:href="#p"/>
</g>
</g>
<path d="m1638.5 662.42 4.6916 2.8174q2.0575 1.2356 3.2931-0.82193l3.986-6.6376q1.2356-2.0575-0.82193-3.2931l-4.6916-2.8174q-2.0575-1.2356-3.2931 0.82193l-3.986 6.6376q-1.2356 2.0575 0.82193 3.2931z" clip-path="url(#a)" fill="#fff" stroke="#fff"/>
<g clip-path="url(#a)">
<g transform="translate(1640.6 658.94) rotate(30.986) scale(.08 -.08)">
<use xlink:href="#p"/>
</g>
</g>
<path d="m1340.8 797.23 1.3553-4.8699q0.64349-2.3121-1.6686-2.9556l-7.459-2.0759q-2.3121-0.64349-2.9556 1.6686l-1.3553 4.8699q-0.64349 2.3121 1.6686 2.9556l7.459 2.0759q2.3121 0.64349 2.9556-1.6686z" clip-path="url(#a)" fill="#fff" stroke="#fff"/>
<g clip-path="url(#a)">
<g transform="translate(1336.8 796.14) rotate(-74.448) scale(.08 -.08)">
<use xlink:href="#s"/>
</g>
</g>
<path d="m1366 792.1 1.4978 5.3817q0.64349 2.3121 2.9556 1.6686l7.459-2.0759q2.3121-0.64349 1.6686-2.9556l-1.4978-5.3817q-0.64349-2.3121-2.9556-1.6686l-7.459 2.0759q-2.3121 0.64349-1.6686 2.9556z" clip-path="url(#a)" fill="#fff" stroke="#fff"/>
<g clip-path="url(#a)">
<g transform="translate(1369.9 791.01) rotate(74.448) scale(.08 -.08)">
<use xlink:href="#x"/>
</g>
</g>
<path d="m1462.2 909.59v33.808q0 2.4 2.4 2.4h7.7425q2.4 0 2.4-2.4v-33.808q0-2.4-2.4-2.4h-7.7425q-2.4 0-2.4 2.4z" clip-path="url(#a)" fill="#fff" stroke="#fff"/>
<g clip-path="url(#a)">
<g transform="translate(1466.2 909.59) rotate(90) scale(.08 -.08)">
<use xlink:href="#l"/>
<use x="44.083984" xlink:href="#d"/>
<use x="105.607422" xlink:href="#h"/>
<use x="144.970703" xlink:href="#k"/>
<use x="242.382812" xlink:href="#i"/>
<use x="270.166016" xlink:href="#f"/>
<use x="333.544922" xlink:href="#g"/>
<use x="394.824219" xlink:href="#j"/>
</g>
</g>
<path d="m1541.3 909.59v33.808q0 2.4 2.4 2.4h7.7425q2.4 0 2.4-2.4v-33.808q0-2.4-2.4-2.4h-7.7425q-2.4 0-2.4 2.4z" clip-path="url(#a)" fill="#fff" stroke="#fff"/>
<g clip-path="url(#a)">
<g transform="translate(1545.4 909.59) rotate(90) scale(.08 -.08)">
<use xlink:href="#l"/>
<use x="44.083984" xlink:href="#d"/>
<use x="105.607422" xlink:href="#h"/>
<use x="144.970703" xlink:href="#k"/>
<use x="242.382812" xlink:href="#i"/>
<use x="270.166016" xlink:href="#f"/>
<use x="333.544922" xlink:href="#g"/>
<use x="394.824219" xlink:href="#j"/>
</g>
</g>
<path d="m1695.3 799.45 3.8276-4.031q1.6526-1.7404-0.087838-3.393l-5.6146-5.3313q-1.7404-1.6526-3.393 0.087838l-3.8276 4.031q-1.6526 1.7404 0.087839 3.393l5.6146 5.3313q1.7404 1.6526 3.393-0.087838z" clip-path="url(#a)" fill="#fff" stroke="#fff"/>
<g clip-path="url(#a)">
<g transform="translate(1692.4 796.65) rotate(-46.483) scale(.08 -.08)">
<use xlink:href="#ah"/>
</g>
</g>
<path d="m1739.6 797.47 1.573-4.804q0.7468-2.2809-1.534-3.0277l-7.3581-2.4092q-2.2809-0.74681-3.0277 1.534l-1.573 4.804q-0.74681 2.2809 1.534 3.0277l7.3581 2.4092q2.2809 0.74681 3.0277-1.534z" clip-path="url(#a)" fill="#fff" stroke="#fff"/>
<g clip-path="url(#a)">
<g transform="translate(1735.8 796.2) rotate(-71.87) scale(.08 -.08)">
<use xlink:href="#s"/>
</g>
</g>
<path d="m1770.5 792.31 1.6592 5.3342q0.71284 2.2917 3.0045 1.5789l7.3931-2.2996q2.2917-0.71284 1.5789-3.0045l-1.6592-5.3342q-0.71284-2.2917-3.0045-1.5789l-7.3931 2.2996q-2.2917 0.71284-1.5789 3.0045z" clip-path="url(#a)" fill="#fff" stroke="#fff"/>
<g clip-path="url(#a)">
<g transform="translate(1774.4 791.1) rotate(72.722) scale(.08 -.08)">
<use xlink:href="#x"/>
</g>
</g>
<path d="m1814.8 795.36 4.0677 4.2113q1.6674 1.7262 3.3936 0.058862l5.5689-5.379q1.7262-1.6674 0.058863-3.3936l-4.0677-4.2113q-1.6674-1.7262-3.3936-0.058862l-5.5689 5.379q-1.7262 1.6674-0.058863 3.3936z" clip-path="url(#a)" fill="#fff" stroke="#fff"/>
<g clip-path="url(#a)">
<g transform="translate(1817.7 792.54) rotate(45.994) scale(.08 -.08)">
<use xlink:href="#al"/>
</g>
</g>
<path d="m1622.7 909.59v33.808q0 2.4 2.4 2.4h7.7425q2.4 0 2.4-2.4v-33.808q0-2.4-2.4-2.4h-7.7425q-2.4 0-2.4 2.4z" clip-path="url(#a)" fill="#fff" stroke="#fff"/>
<g clip-path="url(#a)">
<g transform="translate(1626.7 909.59) rotate(90) scale(.08 -.08)">
<use xlink:href="#l"/>
<use x="44.083984" xlink:href="#d"/>
<use x="105.607422" xlink:href="#h"/>
<use x="144.970703" xlink:href="#k"/>
<use x="242.382812" xlink:href="#i"/>
<use x="270.166016" xlink:href="#f"/>
<use x="333.544922" xlink:href="#g"/>
<use x="394.824219" xlink:href="#j"/>
</g>
</g>
<path d="m1706.2 909.59v33.808q0 2.4 2.4 2.4h7.7425q2.4 0 2.4-2.4v-33.808q0-2.4-2.4-2.4h-7.7425q-2.4 0-2.4 2.4z" clip-path="url(#a)" fill="#fff" stroke="#fff"/>
<g clip-path="url(#a)">
<g transform="translate(1710.3 909.59) rotate(90) scale(.08 -.08)">
<use xlink:href="#l"/>
<use x="44.083984" xlink:href="#d"/>
<use x="105.607422" xlink:href="#h"/>
<use x="144.970703" xlink:href="#k"/>
<use x="242.382812" xlink:href="#i"/>
<use x="270.166016" xlink:href="#f"/>
<use x="333.544922" xlink:href="#g"/>
<use x="394.824219" xlink:href="#j"/>
</g>
</g>
<path d="m1792 909.59v33.808q0 2.4 2.4 2.4h7.7425q2.4 0 2.4-2.4v-33.808q0-2.4-2.4-2.4h-7.7425q-2.4 0-2.4 2.4z" clip-path="url(#a)" fill="#fff" stroke="#fff"/>
<g clip-path="url(#a)">
<g transform="translate(1796 909.59) rotate(90) scale(.08 -.08)">
<use xlink:href="#l"/>
<use x="44.083984" xlink:href="#d"/>
<use x="105.607422" xlink:href="#h"/>
<use x="144.970703" xlink:href="#k"/>
<use x="242.382812" xlink:href="#i"/>
<use x="270.166016" xlink:href="#f"/>
<use x="333.544922" xlink:href="#g"/>
<use x="394.824219" xlink:href="#j"/>
</g>
</g>
<path d="m1310.4 909.59v33.808q0 2.4 2.4 2.4h7.7425q2.4 0 2.4-2.4v-33.808q0-2.4-2.4-2.4h-7.7425q-2.4 0-2.4 2.4z" clip-path="url(#a)" fill="#fff" stroke="#fff"/>
<g clip-path="url(#a)">
<g transform="translate(1314.5 909.59) rotate(90) scale(.08 -.08)">
<use xlink:href="#l"/>
<use x="44.083984" xlink:href="#d"/>
<use x="105.607422" xlink:href="#h"/>
<use x="144.970703" xlink:href="#k"/>
<use x="242.382812" xlink:href="#i"/>
<use x="270.166016" xlink:href="#f"/>
<use x="333.544922" xlink:href="#g"/>
<use x="394.824219" xlink:href="#j"/>
</g>
</g>
<path d="m1385.2 909.59v33.808q0 2.4 2.4 2.4h7.7425q2.4 0 2.4-2.4v-33.808q0-2.4-2.4-2.4h-7.7425q-2.4 0-2.4 2.4z" clip-path="url(#a)" fill="#fff" stroke="#fff"/>
<g clip-path="url(#a)">
<g transform="translate(1389.3 909.59) rotate(90) scale(.08 -.08)">
<use xlink:href="#l"/>
<use x="44.083984" xlink:href="#d"/>
<use x="105.607422" xlink:href="#h"/>
<use x="144.970703" xlink:href="#k"/>
<use x="242.382812" xlink:href="#i"/>
<use x="270.166016" xlink:href="#f"/>
<use x="333.544922" xlink:href="#g"/>
<use x="394.824219" xlink:href="#j"/>
</g>
</g>
<path d="m736.57 909.59v33.808q0 2.4 2.4 2.4h7.7425q2.4 0 2.4-2.4v-33.808q0-2.4-2.4-2.4h-7.7425q-2.4 0-2.4 2.4z" clip-path="url(#a)" fill="#fff" stroke="#fff"/>
<g clip-path="url(#a)">
<g transform="translate(740.63 909.59) rotate(90) scale(.08 -.08)">
<use xlink:href="#l"/>
<use x="44.083984" xlink:href="#d"/>
<use x="105.607422" xlink:href="#h"/>
<use x="144.970703" xlink:href="#k"/>
<use x="242.382812" xlink:href="#i"/>
<use x="270.166016" xlink:href="#f"/>
<use x="333.544922" xlink:href="#g"/>
<use x="394.824219" xlink:href="#j"/>
</g>
</g>
<path d="m791.54 909.59v33.808q0 2.4 2.4 2.4h7.7425q2.4 0 2.4-2.4v-33.808q0-2.4-2.4-2.4h-7.7425q-2.4 0-2.4 2.4z" clip-path="url(#a)" fill="#fff" stroke="#fff"/>
<g clip-path="url(#a)">
<g transform="translate(795.6 909.59) rotate(90) scale(.08 -.08)">
<use xlink:href="#l"/>
<use x="44.083984" xlink:href="#d"/>
<use x="105.607422" xlink:href="#h"/>
<use x="144.970703" xlink:href="#k"/>
<use x="242.382812" xlink:href="#i"/>
<use x="270.166016" xlink:href="#f"/>
<use x="333.544922" xlink:href="#g"/>
<use x="394.824219" xlink:href="#j"/>
</g>
</g>
<path d="m848.71 909.59v33.808q0 2.4 2.4 2.4h7.7425q2.4 0 2.4-2.4v-33.808q0-2.4-2.4-2.4h-7.7425q-2.4 0-2.4 2.4z" clip-path="url(#a)" fill="#fff" stroke="#fff"/>
<g clip-path="url(#a)">
<g transform="translate(852.77 909.59) rotate(90) scale(.08 -.08)">
<use xlink:href="#l"/>
<use x="44.083984" xlink:href="#d"/>
<use x="105.607422" xlink:href="#h"/>
<use x="144.970703" xlink:href="#k"/>
<use x="242.382812" xlink:href="#i"/>
<use x="270.166016" xlink:href="#f"/>
<use x="333.544922" xlink:href="#g"/>
<use x="394.824219" xlink:href="#j"/>
</g>
</g>
<path d="m908.07 909.59v33.808q0 2.4 2.4 2.4h7.7425q2.4 0 2.4-2.4v-33.808q0-2.4-2.4-2.4h-7.7425q-2.4 0-2.4 2.4z" clip-path="url(#a)" fill="#fff" stroke="#fff"/>
<g clip-path="url(#a)">
<g transform="translate(912.13 909.59) rotate(90) scale(.08 -.08)">
<use xlink:href="#l"/>
<use x="44.083984" xlink:href="#d"/>
<use x="105.607422" xlink:href="#h"/>
<use x="144.970703" xlink:href="#k"/>
<use x="242.382812" xlink:href="#i"/>
<use x="270.166016" xlink:href="#f"/>
<use x="333.544922" xlink:href="#g"/>
<use x="394.824219" xlink:href="#j"/>
</g>
</g>
<path d="m1028.3 799.05 3.2732-4.4929q1.4132-1.9398-0.52662-3.353l-6.2579-4.559q-1.9398-1.4132-3.353 0.52662l-3.2732 4.4929q-1.4132 1.9398 0.52662 3.353l6.2579 4.559q1.9398 1.4132 3.353-0.52662z" clip-path="url(#a)" fill="#fff" stroke="#fff"/>
<g clip-path="url(#a)">
<g transform="translate(1025 796.66) rotate(-53.926) scale(.08 -.08)">
<use xlink:href="#ah"/>
</g>
</g>
<path d="m1062.2 797.11 1.2433-4.8997q0.5903-2.3263-1.736-2.9166l-7.5047-1.9043q-2.3263-0.5903-2.9166 1.736l-1.2433 4.8997q-0.5903 2.3263 1.736 2.9166l7.5047 1.9043q2.3263 0.5903 2.9166-1.736z" clip-path="url(#a)" fill="#fff" stroke="#fff"/>
<g clip-path="url(#a)">
<g transform="translate(1058.2 796.11) rotate(-75.762) scale(.08 -.08)">
<use xlink:href="#s"/>
</g>
</g>
<path d="m1083 792.1 1.1675 4.9183q0.55432 2.3351 2.8894 1.7808l7.5332-1.7882q2.3351-0.55431 1.7808-2.8894l-1.1675-4.9183q-0.55431-2.3351-2.8894-1.7808l-7.5332 1.7882q-2.3351 0.55431-1.7808 2.8894z" clip-path="url(#a)" fill="#fff" stroke="#fff"/>
<g clip-path="url(#a)">
<g transform="translate(1087 791.16) rotate(76.646) scale(.08 -.08)">
<use xlink:href="#s"/>
</g>
</g>
<path d="m1117.1 794.62 3.3371 4.48q1.4337 1.9247 3.3584 0.49101l6.2092-4.6252q1.9247-1.4337 0.49101-3.3584l-3.3371-4.48q-1.4337-1.9247-3.3584-0.49101l-6.2092 4.6252q-1.9247 1.4337-0.49101 3.3584z" clip-path="url(#a)" fill="#fff" stroke="#fff"/>
<g clip-path="url(#a)">
<g transform="translate(1120.3 792.19) rotate(53.318) scale(.08 -.08)">
<use xlink:href="#x"/>
</g>
</g>
<path d="m969.64 909.59v33.808q0 2.4 2.4 2.4h7.7425q2.4 0 2.4-2.4v-33.808q0-2.4-2.4-2.4h-7.7425q-2.4 0-2.4 2.4z" clip-path="url(#a)" fill="#fff" stroke="#fff"/>
<g clip-path="url(#a)">
<g transform="translate(973.7 909.59) rotate(90) scale(.08 -.08)">
<use xlink:href="#l"/>
<use x="44.083984" xlink:href="#d"/>
<use x="105.607422" xlink:href="#h"/>
<use x="144.970703" xlink:href="#k"/>
<use x="242.382812" xlink:href="#i"/>
<use x="270.166016" xlink:href="#f"/>
<use x="333.544922" xlink:href="#g"/>
<use x="394.824219" xlink:href="#j"/>
</g>
</g>
<path d="m1033.4 909.59v33.808q0 2.4 2.4 2.4h7.7425q2.4 0 2.4-2.4v-33.808q0-2.4-2.4-2.4h-7.7425q-2.4 0-2.4 2.4z" clip-path="url(#a)" fill="#fff" stroke="#fff"/>
<g clip-path="url(#a)">
<g transform="translate(1037.5 909.59) rotate(90) scale(.08 -.08)">
<use xlink:href="#l"/>
<use x="44.083984" xlink:href="#d"/>
<use x="105.607422" xlink:href="#h"/>
<use x="144.970703" xlink:href="#k"/>
<use x="242.382812" xlink:href="#i"/>
<use x="270.166016" xlink:href="#f"/>
<use x="333.544922" xlink:href="#g"/>
<use x="394.824219" xlink:href="#j"/>
</g>
</g>
<path d="m1099.4 909.59v33.808q0 2.4 2.4 2.4h7.7425q2.4 0 2.4-2.4v-33.808q0-2.4-2.4-2.4h-7.7425q-2.4 0-2.4 2.4z" clip-path="url(#a)" fill="#fff" stroke="#fff"/>
<g clip-path="url(#a)">
<g transform="translate(1103.4 909.59) rotate(90) scale(.08 -.08)">
<use xlink:href="#l"/>
<use x="44.083984" xlink:href="#d"/>
<use x="105.607422" xlink:href="#h"/>
<use x="144.970703" xlink:href="#k"/>
<use x="242.382812" xlink:href="#i"/>
<use x="270.166016" xlink:href="#f"/>
<use x="333.544922" xlink:href="#g"/>
<use x="394.824219" xlink:href="#j"/>
</g>
</g>
<path d="m1167.5 909.59v33.808q0 2.4 2.4 2.4h7.7425q2.4 0 2.4-2.4v-33.808q0-2.4-2.4-2.4h-7.7425q-2.4 0-2.4 2.4z" clip-path="url(#a)" fill="#fff" stroke="#fff"/>
<g clip-path="url(#a)">
<g transform="translate(1171.6 909.59) rotate(90) scale(.08 -.08)">
<use xlink:href="#l"/>
<use x="44.083984" xlink:href="#d"/>
<use x="105.607422" xlink:href="#h"/>
<use x="144.970703" xlink:href="#k"/>
<use x="242.382812" xlink:href="#i"/>
<use x="270.166016" xlink:href="#f"/>
<use x="333.544922" xlink:href="#g"/>
<use x="394.824219" xlink:href="#j"/>
</g>
</g>
<path d="m340.8 909.59v33.808q0 2.4 2.4 2.4h7.7425q2.4 0 2.4-2.4v-33.808q0-2.4-2.4-2.4h-7.7425q-2.4 0-2.4 2.4z" clip-path="url(#a)" fill="#fff" stroke="#fff"/>
<g clip-path="url(#a)">
<g transform="translate(344.86 909.59) rotate(90) scale(.08 -.08)">
<use xlink:href="#l"/>
<use x="44.083984" xlink:href="#d"/>
<use x="105.607422" xlink:href="#h"/>
<use x="144.970703" xlink:href="#k"/>
<use x="242.382812" xlink:href="#i"/>
<use x="270.166016" xlink:href="#f"/>
<use x="333.544922" xlink:href="#g"/>
<use x="394.824219" xlink:href="#j"/>
</g>
</g>
<path d="m375.98 909.59v33.808q0 2.4 2.4 2.4h7.7425q2.4 0 2.4-2.4v-33.808q0-2.4-2.4-2.4h-7.7425q-2.4 0-2.4 2.4z" clip-path="url(#a)" fill="#fff" stroke="#fff"/>
<g clip-path="url(#a)">
<g transform="translate(380.04 909.59) rotate(90) scale(.08 -.08)">
<use xlink:href="#l"/>
<use x="44.083984" xlink:href="#d"/>
<use x="105.607422" xlink:href="#h"/>
<use x="144.970703" xlink:href="#k"/>
<use x="242.382812" xlink:href="#i"/>
<use x="270.166016" xlink:href="#f"/>
<use x="333.544922" xlink:href="#g"/>
<use x="394.824219" xlink:href="#j"/>
</g>
</g>
<path d="m435.32 796.78 0.81028-5.4994q0.34984-2.3744-2.0245-2.7242l-7.6598-1.1286q-2.3744-0.34984-2.7242 2.0245l-0.81028 5.4994q-0.34984 2.3744 2.0245 2.7242l7.6598 1.1286q2.3744 0.34984 2.7242-2.0245z" clip-path="url(#a)" fill="#fff" stroke="#fff"/>
<g clip-path="url(#a)">
<g transform="translate(431.3 796.18) rotate(-81.618) scale(.08 -.08)">
<use xlink:href="#ah"/>
</g>
</g>
<path d="m442.7 791.26 0.81429 5.5266q0.34984 2.3744 2.7242 2.0245l7.6598-1.1286q2.3744-0.34984 2.0245-2.7242l-0.81429-5.5266q-0.34984-2.3744-2.7242-2.0245l-7.6598 1.1286q-2.3744 0.34984-2.0245 2.7242z" clip-path="url(#a)" fill="#fff" stroke="#fff"/>
<g clip-path="url(#a)">
<g transform="translate(446.72 790.67) rotate(81.618) scale(.08 -.08)">
<use xlink:href="#x"/>
</g>
</g>
<path d="m528.49 797.49 1.5966-4.7962q0.75802-2.2771-1.5191-3.0352l-7.3462-2.4454q-2.2771-0.75802-3.0352 1.5191l-1.5966 4.7962q-0.75802 2.2771 1.5191 3.0352l7.3462 2.4454q2.2771 0.75802 3.0352-1.5191z" clip-path="url(#a)" fill="#fff" stroke="#fff"/>
<g clip-path="url(#a)">
<g transform="translate(524.63 796.21) rotate(-71.588) scale(.08 -.08)">
<use xlink:href="#s"/>
</g>
</g>
<path d="m551.58 795.67 0.027585-5.0549q0.013097-2.4-2.3869-2.4131l-7.7424-0.042251q-2.4-0.013097-2.4131 2.3869l-0.027585 5.0549q-0.013097 2.4 2.3869 2.4131l7.7424 0.042251q2.4 0.013097 2.4131-2.3869z" clip-path="url(#a)" fill="#fff" stroke="#fff"/>
<g clip-path="url(#a)">
<g transform="translate(547.52 795.65) rotate(-89.687) scale(.08 -.08)">
<use xlink:href="#s"/>
</g>
</g>
<path d="m561.57 792.48 1.7903 5.2916q0.76918 2.2734 3.0426 1.5042l7.3341-2.4814q2.2734-0.76918 1.5042-3.0426l-1.7903-5.2916q-0.76918-2.2734-3.0426-1.5042l-7.3341 2.4814q-2.2734 0.76918-1.5042 3.0426z" clip-path="url(#a)" fill="#fff" stroke="#fff"/>
<g clip-path="url(#a)">
<g transform="translate(565.42 791.17) rotate(71.307) scale(.08 -.08)">
<use xlink:href="#x"/>
</g>
</g>
<path d="m494.71 909.59v33.808q0 2.4 2.4 2.4h7.7425q2.4 0 2.4-2.4v-33.808q0-2.4-2.4-2.4h-7.7425q-2.4 0-2.4 2.4z" clip-path="url(#a)" fill="#fff" stroke="#fff"/>
<g clip-path="url(#a)">
<g transform="translate(498.77 909.59) rotate(90) scale(.08 -.08)">
<use xlink:href="#l"/>
<use x="44.083984" xlink:href="#d"/>
<use x="105.607422" xlink:href="#h"/>
<use x="144.970703" xlink:href="#k"/>
<use x="242.382812" xlink:href="#i"/>
<use x="270.166016" xlink:href="#f"/>
<use x="333.544922" xlink:href="#g"/>
<use x="394.824219" xlink:href="#j"/>
</g>
</g>
<path d="m538.68 909.59v33.808q0 2.4 2.4 2.4h7.7425q2.4 0 2.4-2.4v-33.808q0-2.4-2.4-2.4h-7.7425q-2.4 0-2.4 2.4z" clip-path="url(#a)" fill="#fff" stroke="#fff"/>
<g clip-path="url(#a)">
<g transform="translate(542.75 909.59) rotate(90) scale(.08 -.08)">
<use xlink:href="#l"/>
<use x="44.083984" xlink:href="#d"/>
<use x="105.607422" xlink:href="#h"/>
<use x="144.970703" xlink:href="#k"/>
<use x="242.382812" xlink:href="#i"/>
<use x="270.166016" xlink:href="#f"/>
<use x="333.544922" xlink:href="#g"/>
<use x="394.824219" xlink:href="#j"/>
</g>
</g>
<path d="m584.86 909.59v33.808q0 2.4 2.4 2.4h7.7425q2.4 0 2.4-2.4v-33.808q0-2.4-2.4-2.4h-7.7425q-2.4 0-2.4 2.4z" clip-path="url(#a)" fill="#fff" stroke="#fff"/>
<g clip-path="url(#a)">
<g transform="translate(588.92 909.59) rotate(90) scale(.08 -.08)">
<use xlink:href="#l"/>
<use x="44.083984" xlink:href="#d"/>
<use x="105.607422" xlink:href="#h"/>
<use x="144.970703" xlink:href="#k"/>
<use x="242.382812" xlink:href="#i"/>
<use x="270.166016" xlink:href="#f"/>
<use x="333.544922" xlink:href="#g"/>
<use x="394.824219" xlink:href="#j"/>
</g>
</g>
<path d="m413.36 909.59v33.808q0 2.4 2.4 2.4h7.7425q2.4 0 2.4-2.4v-33.808q0-2.4-2.4-2.4h-7.7425q-2.4 0-2.4 2.4z" clip-path="url(#a)" fill="#fff" stroke="#fff"/>
<g clip-path="url(#a)">
<g transform="translate(417.42 909.59) rotate(90) scale(.08 -.08)">
<use xlink:href="#l"/>
<use x="44.083984" xlink:href="#d"/>
<use x="105.607422" xlink:href="#h"/>
<use x="144.970703" xlink:href="#k"/>
<use x="242.382812" xlink:href="#i"/>
<use x="270.166016" xlink:href="#f"/>
<use x="333.544922" xlink:href="#g"/>
<use x="394.824219" xlink:href="#j"/>
</g>
</g>
<path d="m452.93 909.59v33.808q0 2.4 2.4 2.4h7.7425q2.4 0 2.4-2.4v-33.808q0-2.4-2.4-2.4h-7.7425q-2.4 0-2.4 2.4z" clip-path="url(#a)" fill="#fff" stroke="#fff"/>
<g clip-path="url(#a)">
<g transform="translate(457 909.59) rotate(90) scale(.08 -.08)">
<use xlink:href="#l"/>
<use x="44.083984" xlink:href="#d"/>
<use x="105.607422" xlink:href="#h"/>
<use x="144.970703" xlink:href="#k"/>
<use x="242.382812" xlink:href="#i"/>
<use x="270.166016" xlink:href="#f"/>
<use x="333.544922" xlink:href="#g"/>
<use x="394.824219" xlink:href="#j"/>
</g>
</g>
<path d="m222.07 909.59v33.808q0 2.4 2.4 2.4h7.7425q2.4 0 2.4-2.4v-33.808q0-2.4-2.4-2.4h-7.7425q-2.4 0-2.4 2.4z" clip-path="url(#a)" fill="#fff" stroke="#fff"/>
<g clip-path="url(#a)">
<g transform="translate(226.13 909.59) rotate(90) scale(.08 -.08)">
<use xlink:href="#l"/>
<use x="44.083984" xlink:href="#d"/>
<use x="105.607422" xlink:href="#h"/>
<use x="144.970703" xlink:href="#k"/>
<use x="242.382812" xlink:href="#i"/>
<use x="270.166016" xlink:href="#f"/>
<use x="333.544922" xlink:href="#g"/>
<use x="394.824219" xlink:href="#j"/>
</g>
</g>
<path d="m248.45 909.59v33.808q0 2.4 2.4 2.4h7.7425q2.4 0 2.4-2.4v-33.808q0-2.4-2.4-2.4h-7.7425q-2.4 0-2.4 2.4z" clip-path="url(#a)" fill="#fff" stroke="#fff"/>
<g clip-path="url(#a)">
<g transform="translate(252.52 909.59) rotate(90) scale(.08 -.08)">
<use xlink:href="#l"/>
<use x="44.083984" xlink:href="#d"/>
<use x="105.607422" xlink:href="#h"/>
<use x="144.970703" xlink:href="#k"/>
<use x="242.382812" xlink:href="#i"/>
<use x="270.166016" xlink:href="#f"/>
<use x="333.544922" xlink:href="#g"/>
<use x="394.824219" xlink:href="#j"/>
</g>
</g>
<path d="m277.04 909.59v33.808q0 2.4 2.4 2.4h7.7425q2.4 0 2.4-2.4v-33.808q0-2.4-2.4-2.4h-7.7425q-2.4 0-2.4 2.4z" clip-path="url(#a)" fill="#fff" stroke="#fff"/>
<g clip-path="url(#a)">
<g transform="translate(281.1 909.59) rotate(90) scale(.08 -.08)">
<use xlink:href="#l"/>
<use x="44.083984" xlink:href="#d"/>
<use x="105.607422" xlink:href="#h"/>
<use x="144.970703" xlink:href="#k"/>
<use x="242.382812" xlink:href="#i"/>
<use x="270.166016" xlink:href="#f"/>
<use x="333.544922" xlink:href="#g"/>
<use x="394.824219" xlink:href="#j"/>
</g>
</g>
<path d="m98.938 909.59v33.808q0 2.4 2.4 2.4h7.7425q2.4 0 2.4-2.4v-33.808q0-2.4-2.4-2.4h-7.7425q-2.4 0-2.4 2.4z" clip-path="url(#a)" fill="#fff" stroke="#fff"/>
<g clip-path="url(#a)">
<g transform="translate(103 909.59) rotate(90) scale(.08 -.08)">
<use xlink:href="#l"/>
<use x="44.083984" xlink:href="#d"/>
<use x="105.607422" xlink:href="#h"/>
<use x="144.970703" xlink:href="#k"/>
<use x="242.382812" xlink:href="#i"/>
<use x="270.166016" xlink:href="#f"/>
<use x="333.544922" xlink:href="#g"/>
<use x="394.824219" xlink:href="#j"/>
</g>
</g>
<path d="m109.93 909.59v33.808q0 2.4 2.4 2.4h7.7425q2.4 0 2.4-2.4v-33.808q0-2.4-2.4-2.4h-7.7425q-2.4 0-2.4 2.4z" clip-path="url(#a)" fill="#fff" stroke="#fff"/>
<g clip-path="url(#a)">
<g transform="translate(114 909.59) rotate(90) scale(.08 -.08)">
<use xlink:href="#l"/>
<use x="44.083984" xlink:href="#d"/>
<use x="105.607422" xlink:href="#h"/>
<use x="144.970703" xlink:href="#k"/>
<use x="242.382812" xlink:href="#i"/>
<use x="270.166016" xlink:href="#f"/>
<use x="333.544922" xlink:href="#g"/>
<use x="394.824219" xlink:href="#j"/>
</g>
</g>
<path d="m83.547 909.59v33.808q0 2.4 2.4 2.4h7.7425q2.4 0 2.4-2.4v-33.808q0-2.4-2.4-2.4h-7.7425q-2.4 0-2.4 2.4z" clip-path="url(#a)" fill="#fff" stroke="#fff"/>
<g clip-path="url(#a)">
<g transform="translate(87.611 909.59) rotate(90) scale(.08 -.08)">
<use xlink:href="#l"/>
<use x="44.083984" xlink:href="#d"/>
<use x="105.607422" xlink:href="#h"/>
<use x="144.970703" xlink:href="#k"/>
<use x="242.382812" xlink:href="#i"/>
<use x="270.166016" xlink:href="#f"/>
<use x="333.544922" xlink:href="#g"/>
<use x="394.824219" xlink:href="#j"/>
</g>
</g>
<path d="m90.143 909.59v33.808q0 2.4 2.4 2.4h7.7425q2.4 0 2.4-2.4v-33.808q0-2.4-2.4-2.4h-7.7425q-2.4 0-2.4 2.4z" clip-path="url(#a)" fill="#fff" stroke="#fff"/>
<g clip-path="url(#a)">
<g transform="translate(94.207 909.59) rotate(90) scale(.08 -.08)">
<use xlink:href="#l"/>
<use x="44.083984" xlink:href="#d"/>
<use x="105.607422" xlink:href="#h"/>
<use x="144.970703" xlink:href="#k"/>
<use x="242.382812" xlink:href="#i"/>
<use x="270.166016" xlink:href="#f"/>
<use x="333.544922" xlink:href="#g"/>
<use x="394.824219" xlink:href="#j"/>
</g>
</g>
<path d="m633.23 909.59v33.808q0 2.4 2.4 2.4h7.7425q2.4 0 2.4-2.4v-33.808q0-2.4-2.4-2.4h-7.7425q-2.4 0-2.4 2.4z" clip-path="url(#a)" fill="#fff" stroke="#fff"/>
<g clip-path="url(#a)">
<g transform="translate(637.29 909.59) rotate(90) scale(.08 -.08)">
<use xlink:href="#l"/>
<use x="44.083984" xlink:href="#d"/>
<use x="105.607422" xlink:href="#h"/>
<use x="144.970703" xlink:href="#k"/>
<use x="242.382812" xlink:href="#i"/>
<use x="270.166016" xlink:href="#f"/>
<use x="333.544922" xlink:href="#g"/>
<use x="394.824219" xlink:href="#j"/>
</g>
</g>
<path d="m1879.9 909.59v33.808q0 2.4 2.4 2.4h7.7425q2.4 0 2.4-2.4v-33.808q0-2.4-2.4-2.4h-7.7425q-2.4 0-2.4 2.4z" clip-path="url(#a)" fill="#fff" stroke="#fff"/>
<g clip-path="url(#a)">
<g transform="translate(1884 909.59) rotate(90) scale(.08 -.08)">
<use xlink:href="#l"/>
<use x="44.083984" xlink:href="#d"/>
<use x="105.607422" xlink:href="#h"/>
<use x="144.970703" xlink:href="#k"/>
<use x="242.382812" xlink:href="#i"/>
<use x="270.166016" xlink:href="#f"/>
<use x="333.544922" xlink:href="#g"/>
<use x="394.824219" xlink:href="#j"/>
</g>
</g>
<defs>
<path id="b" d="m0 8.6603c2.2967 0 4.4997-0.9125 6.1237-2.5365 1.624-1.624 2.5365-3.827 2.5365-6.1237s-0.9125-4.4997-2.5365-6.1237c-1.624-1.624-3.827-2.5365-6.1237-2.5365s-4.4997 0.9125-6.1237 2.5365c-1.624 1.624-2.5365 3.827-2.5365 6.1237s0.9125 4.4997 2.5365 6.1237c1.624 1.624 3.827 2.5365 6.1237 2.5365z"/>
</defs>
<g clip-path="url(#a)" fill="#ffffff" stroke="#ffffff">
<use x="89.818182" y="992.727273" xlink:href="#b"/>
<use x="96.414376" y="992.727273" xlink:href="#b"/>
<use x="105.209302" y="992.727273" xlink:href="#b"/>
<use x="116.20296" y="992.727273" xlink:href="#b"/>
<use x="129.395349" y="992.727273" xlink:href="#b"/>
<use x="144.786469" y="992.727273" xlink:href="#b"/>
<use x="162.376321" y="992.727273" xlink:href="#b"/>
<use x="182.164905" y="992.727273" xlink:href="#b"/>
<use x="204.15222" y="992.727273" xlink:href="#b"/>
<use x="228.338266" y="992.727273" xlink:href="#b"/>
<use x="254.723044" y="992.727273" xlink:href="#b"/>
<use x="283.306554" y="992.727273" xlink:href="#b"/>
<use x="314.088795" y="992.727273" xlink:href="#b"/>
<use x="347.069767" y="992.727273" xlink:href="#b"/>
<use x="382.249471" y="992.727273" xlink:href="#b"/>
<use x="419.627907" y="992.727273" xlink:href="#b"/>
<use x="459.205074" y="992.727273" xlink:href="#b"/>
<use x="500.980973" y="992.727273" xlink:href="#b"/>
<use x="544.955603" y="992.727273" xlink:href="#b"/>
<use x="591.128964" y="992.727273" xlink:href="#b"/>
<use x="639.501057" y="992.727273" xlink:href="#b"/>
<use x="690.071882" y="992.727273" xlink:href="#b"/>
<use x="742.841438" y="992.727273" xlink:href="#b"/>
<use x="797.809725" y="992.727273" xlink:href="#b"/>
<use x="854.976744" y="992.727273" xlink:href="#b"/>
<use x="914.342495" y="992.727273" xlink:href="#b"/>
<use x="975.906977" y="992.727273" xlink:href="#b"/>
<use x="1039.67019" y="992.727273" xlink:href="#b"/>
<use x="1105.632135" y="992.727273" xlink:href="#b"/>
<use x="1173.792812" y="992.727273" xlink:href="#b"/>
<use x="1244.15222" y="992.727273" xlink:href="#b"/>
<use x="1316.710359" y="992.727273" xlink:href="#b"/>
<use x="1391.46723" y="992.727273" xlink:href="#b"/>
<use x="1468.422833" y="992.727273" xlink:href="#b"/>
<use x="1547.577167" y="992.727273" xlink:href="#b"/>
<use x="1628.930233" y="992.727273" xlink:href="#b"/>
<use x="1712.48203" y="992.727273" xlink:href="#b"/>
<use x="1798.232558" y="992.727273" xlink:href="#b"/>
<use x="1886.181818" y="992.727273" xlink:href="#b"/>
<use x="125.520275" y="47.272727" xlink:href="#b"/>
<use x="103.010571" y="725.960381" xlink:href="#b"/>
<use x="177.135879" y="183.585921" xlink:href="#b"/>
<use x="110.706131" y="725.960381" xlink:href="#b"/>
<use x="129.395349" y="860.265173" xlink:href="#b"/>
<use x="144.786469" y="860.265173" xlink:href="#b"/>
<use x="323.655567" y="319.671059" xlink:href="#b"/>
<use x="162.376321" y="860.265173" xlink:href="#b"/>
<use x="182.164905" y="860.265173" xlink:href="#b"/>
<use x="204.15222" y="860.265173" xlink:href="#b"/>
<use x="745.928823" y="455.482467" xlink:href="#b"/>
<use x="242.630021" y="725.960381" xlink:href="#b"/>
<use x="314.088795" y="860.265173" xlink:href="#b"/>
<use x="428.606061" y="590.951171" xlink:href="#b"/>
<use x="690.071882" y="860.265173" xlink:href="#b"/>
<use x="876.744186" y="590.951171" xlink:href="#b"/>
<use x="1244.15222" y="860.265173" xlink:href="#b"/>
<use x="1531.636364" y="590.951171" xlink:href="#b"/>
<use x="1354.088795" y="725.960381" xlink:href="#b"/>
<use x="1468.422833" y="860.265173" xlink:href="#b"/>
<use x="1547.577167" y="860.265173" xlink:href="#b"/>
<use x="1756.45666" y="725.960381" xlink:href="#b"/>
<use x="1628.930233" y="860.265173" xlink:href="#b"/>
<use x="1712.48203" y="860.265173" xlink:href="#b"/>
<use x="1798.232558" y="860.265173" xlink:href="#b"/>
<use x="1316.710359" y="860.265173" xlink:href="#b"/>
<use x="1391.46723" y="860.265173" xlink:href="#b"/>
<use x="742.841438" y="860.265173" xlink:href="#b"/>
<use x="797.809725" y="860.265173" xlink:href="#b"/>
<use x="854.976744" y="860.265173" xlink:href="#b"/>
<use x="914.342495" y="860.265173" xlink:href="#b"/>
<use x="1073.750529" y="725.960381" xlink:href="#b"/>
<use x="975.906977" y="860.265173" xlink:href="#b"/>
<use x="1039.67019" y="860.265173" xlink:href="#b"/>
<use x="1105.632135" y="860.265173" xlink:href="#b"/>
<use x="1173.792812" y="860.265173" xlink:href="#b"/>
<use x="347.069767" y="860.265173" xlink:href="#b"/>
<use x="382.249471" y="860.265173" xlink:href="#b"/>
<use x="439.41649" y="725.960381" xlink:href="#b"/>
<use x="545.688513" y="725.960381" xlink:href="#b"/>
<use x="500.980973" y="860.265173" xlink:href="#b"/>
<use x="544.955603" y="860.265173" xlink:href="#b"/>
<use x="591.128964" y="860.265173" xlink:href="#b"/>
<use x="419.627907" y="860.265173" xlink:href="#b"/>
<use x="459.205074" y="860.265173" xlink:href="#b"/>
<use x="228.338266" y="860.265173" xlink:href="#b"/>
<use x="254.723044" y="860.265173" xlink:href="#b"/>
<use x="283.306554" y="860.265173" xlink:href="#b"/>
<use x="105.209302" y="860.265173" xlink:href="#b"/>
<use x="116.20296" y="860.265173" xlink:href="#b"/>
<use x="89.818182" y="860.265173" xlink:href="#b"/>
<use x="96.414376" y="860.265173" xlink:href="#b"/>
<use x="639.501057" y="860.265173" xlink:href="#b"/>
<use x="1886.181818" y="860.265173" xlink:href="#b"/>
</g>
<g clip-path="url(#a)">
<defs>
<path id="as" d="m9.8125 72.906h9.8594v-72.906h-9.8594z"/>
<path id="am" d="m18.109 8.2031v-29h-9.0312v75.484h9.0312v-8.2969q2.8438 4.875 7.1562 7.2344 4.3281 2.375 10.328 2.375 9.9688 0 16.188-7.9062 6.2344-7.9062 6.2344-20.797t-6.2344-20.812q-6.2188-7.9062-16.188-7.9062-6 0-10.328 2.375-4.3125 2.375-7.1562 7.25zm30.578 19.094q0 9.9062-4.0781 15.547t-11.203 5.6406q-7.1406 0-11.219-5.6406t-4.0781-15.547 4.0781-15.547 11.219-5.6406q7.125 0 11.203 5.6406t4.0781 15.547z"/>
<path id="w" d="m44.281 53.078v-8.5q-3.7969 1.9531-7.9062 2.9219-4.0938 0.98438-8.5 0.98438-6.6875 0-10.031-2.0469t-3.3438-6.1562q0-3.125 2.3906-4.9062t9.625-3.3906l3.0781-0.6875q9.5625-2.0469 13.594-5.7812t4.0312-10.422q0-7.625-6.0312-12.078-6.0312-4.4375-16.578-4.4375-4.3906 0-9.1562 0.85938t-10.031 2.5625v9.2812q4.9844-2.5938 9.8125-3.8906 4.8281-1.2812 9.5781-1.2812 6.3438 0 9.75 2.1719 3.4219 2.1719 3.4219 6.125 0 3.6562-2.4688 5.6094-2.4531 1.9531-10.812 3.7656l-3.125 0.73438q-8.3438 1.75-12.062 5.3906-3.7031 3.6406-3.7031 9.9844 0 7.7188 5.4688 11.906 5.4688 4.2031 15.531 4.2031 4.9688 0 9.3594-0.73438 4.4062-0.71875 8.1094-2.1875z"/>
<path id="v" d="m45.406 46.391v29.594h8.9844v-75.984h-8.9844v8.2031q-2.8281-4.875-7.1562-7.25-4.3125-2.375-10.375-2.375-9.9062 0-16.141 7.9062-6.2188 7.9219-6.2188 20.812t6.2188 20.797q6.2344 7.9062 16.141 7.9062 6.0625 0 10.375-2.375 4.3281-2.3594 7.1562-7.2344zm-30.609-19.094q0-9.9062 4.0781-15.547t11.203-5.6406 11.219 5.6406q4.1094 5.6406 4.1094 15.547t-4.1094 15.547q-4.0938 5.6406-11.219 5.6406t-11.203-5.6406-4.0781-15.547z"/>
</defs>
<g transform="translate(63.819 995.49) scale(.1 -.1)">
<use xlink:href="#as"/>
<use x="29.492188" xlink:href="#k"/>
<use x="126.904297" xlink:href="#am"/>
<use x="190.380859" xlink:href="#h"/>
<use x="229.244141" xlink:href="#d"/>
<use x="290.767578" xlink:href="#w"/>
<use x="342.867188" xlink:href="#w"/>
<use x="394.966797" xlink:href="#d"/>
<use x="456.490234" xlink:href="#v"/>
</g>
</g>
<g clip-path="url(#a)">
<defs>
<path id="ap" d="m11.719 12.406h10.297v-8.4062l-8-15.625h-6.2969l4 15.625z"/>
</defs>
<g transform="translate(94.825 995.49) scale(.1 -.1)">
<use xlink:href="#ap"/>
</g>
</g>
<g clip-path="url(#a)">
<defs>
<path id="u" d="m18.312 70.219v-15.531h18.5v-6.9844h-18.5v-29.688q0-6.6875 1.8281-8.5938t7.4531-1.9062h9.2188v-7.5156h-9.2188q-10.406 0-14.359 3.875-3.9531 3.8906-3.9531 14.141v29.688h-6.5938v6.9844h6.5938v15.531z"/>
<path id="t" d="m54.891 33.016v-33.016h-8.9844v32.719q0 7.7656-3.0312 11.609-3.0312 3.8594-9.0781 3.8594-7.2812 0-11.484-4.6406-4.2031-4.625-4.2031-12.641v-30.906h-9.0312v75.984h9.0312v-29.797q3.2344 4.9375 7.5938 7.375 4.375 2.4375 10.094 2.4375 9.4219 0 14.25-5.8281 4.8438-5.8281 4.8438-17.156z"/>
</defs>
<g transform="translate(97.004 995.49) scale(.1 -.1)">
<use xlink:href="#u"/>
<use x="39.208984" xlink:href="#t"/>
<use x="102.587891" xlink:href="#d"/>
</g>
</g>
<g clip-path="url(#a)">
<defs>
<path id="ar" d="m2.9844 54.688h9.5156l17.094-45.891 17.094 45.891h9.5156l-20.516-54.688h-12.203z"/>
</defs>
<g transform="translate(101.49 995.49) scale(.1 -.1)">
<use xlink:href="#v"/>
<use x="63.476562" xlink:href="#h"/>
<use x="104.589844" xlink:href="#i"/>
<use x="132.373047" xlink:href="#ar"/>
<use x="191.552734" xlink:href="#d"/>
<use x="253.076172" xlink:href="#h"/>
</g>
</g>
<g clip-path="url(#a)">
<defs>
<path id="r" d="m30.609 48.391q-7.2188 0-11.422-5.6406t-4.2031-15.453 4.1719-15.453q4.1875-5.6406 11.453-5.6406 7.1875 0 11.375 5.6562 4.2031 5.6719 4.2031 15.438 0 9.7188-4.2031 15.406-4.1875 5.6875-11.375 5.6875zm0 7.6094q11.719 0 18.406-7.625 6.7031-7.6094 6.7031-21.078 0-13.422-6.7031-21.078-6.6875-7.6406-18.406-7.6406-11.766 0-18.438 7.6406-6.6562 7.6562-6.6562 21.078 0 13.469 6.6562 21.078 6.6719 7.625 18.438 7.625z"/>
</defs>
<g transform="translate(119.81 995.49) scale(.1 -.1)">
<use xlink:href="#u"/>
<use x="39.208984" xlink:href="#r"/>
<use x="100.390625" xlink:href="#j"/>
<use x="128.173828" xlink:href="#v"/>
</g>
</g>
<g clip-path="url(#a)">
<g transform="translate(126.45 995.49) scale(.1 -.1)">
<use xlink:href="#ai"/>
<use x="53.962891" xlink:href="#d"/>
<use x="115.486328" xlink:href="#f"/>
<use x="178.865234" xlink:href="#f"/>
<use x="242.244141" xlink:href="#r"/>
<use x="303.425781" xlink:href="#f"/>
</g>
</g>
<g clip-path="url(#a)">
<defs>
<path id="ak" d="m37.109 75.984v-7.4844h-8.5938q-4.8281 0-6.7188-1.9531-1.875-1.9531-1.875-7.0312v-4.8281h14.797v-6.9844h-14.797v-47.703h-9.0312v47.703h-8.5938v6.9844h8.5938v3.8125q0 9.125 4.25 13.297 4.25 4.1875 13.469 4.1875z"/>
</defs>
<g transform="translate(157.56 995.49) scale(.1 -.1)">
<use xlink:href="#r"/>
<use x="61.181641" xlink:href="#ak"/>
</g>
</g>
<g clip-path="url(#a)">
<g transform="translate(179.1 995.49) scale(.1 -.1)">
<use xlink:href="#g"/>
</g>
</g>
<g clip-path="url(#a)">
<defs>
<path id="af" d="m48.781 52.594v-8.4062q-3.8125 2.1094-7.6406 3.1562t-7.7344 1.0469q-8.75 0-13.594-5.5469-4.8281-5.5312-4.8281-15.547t4.8281-15.562q4.8438-5.5312 13.594-5.5312 3.9062 0 7.7344 1.0469t7.6406 3.1562v-8.3125q-3.7656-1.75-7.7969-2.625-4.0156-0.89062-8.5625-0.89062-12.359 0-19.641 7.7656-7.2656 7.7656-7.2656 20.953 0 13.375 7.3438 21.031 7.3594 7.6719 20.156 7.6719 4.1406 0 8.0938-0.85938 3.9531-0.84375 7.6719-2.5469z"/>
</defs>
<g transform="translate(177.65 995.49) scale(.1 -.1)">
<use xlink:href="#t"/>
<use x="63.378906" xlink:href="#g"/>
<use x="124.658203" xlink:href="#h"/>
<use x="164.021484" xlink:href="#k"/>
<use x="261.433594" xlink:href="#r"/>
<use x="322.615234" xlink:href="#f"/>
<use x="385.994141" xlink:href="#i"/>
<use x="413.777344" xlink:href="#af"/>
<use x="468.757812" xlink:href="#g"/>
</g>
</g>
<g clip-path="url(#a)">
<g transform="translate(222.09 995.49) scale(.1 -.1)">
<use xlink:href="#t"/>
<use x="63.378906" xlink:href="#d"/>
</g>
</g>
<g clip-path="url(#a)">
<defs>
<path id="aj" d="m8.5 21.578v33.109h8.9844v-32.766q0-7.7656 3.0156-11.656 3.0312-3.875 9.0938-3.875 7.2656 0 11.484 4.6406 4.2344 4.6406 4.2344 12.656v31h8.9844v-54.688h-8.9844v8.4062q-3.2656-4.9844-7.5938-7.4062-4.3125-2.4219-10.031-2.4219-9.4219 0-14.312 5.8594-4.875 5.8594-4.875 17.141z"/>
</defs>
<g transform="translate(241.18 995.49) scale(.1 -.1)">
<use xlink:href="#af"/>
<use x="54.980469" xlink:href="#r"/>
<use x="116.162109" xlink:href="#aj"/>
<use x="179.541016" xlink:href="#j"/>
<use x="207.324219" xlink:href="#v"/>
</g>
</g>
<g clip-path="url(#a)">
<g transform="translate(271.04 995.49) scale(.1 -.1)">
<use xlink:href="#t"/>
<use x="63.378906" xlink:href="#g"/>
<use x="124.658203" xlink:href="#ar"/>
<use x="183.837891" xlink:href="#d"/>
</g>
</g>
<g clip-path="url(#a)">
<g transform="translate(310.94 995.49) scale(.1 -.1)">
<use xlink:href="#i"/>
<use x="27.783203" xlink:href="#ak"/>
</g>
</g>
<g clip-path="url(#a)">
<g transform="translate(340.82 995.49) scale(.1 -.1)">
<use xlink:href="#t"/>
<use x="63.378906" xlink:href="#d"/>
</g>
</g>
<g clip-path="url(#a)">
<g transform="translate(368.49 995.49) scale(.1 -.1)">
<use xlink:href="#af"/>
<use x="54.980469" xlink:href="#g"/>
<use x="116.259766" xlink:href="#k"/>
<use x="213.671875" xlink:href="#d"/>
</g>
</g>
<g clip-path="url(#a)">
<g transform="translate(414.61 995.49) scale(.1 -.1)">
<use xlink:href="#u"/>
<use x="39.208984" xlink:href="#r"/>
</g>
</g>
<g clip-path="url(#a)">
<defs>
<path id="ag" d="m48.688 27.297q0 9.9062-4.0781 15.547t-11.203 5.6406q-7.1406 0-11.219-5.6406t-4.0781-15.547 4.0781-15.547 11.219-5.6406q7.125 0 11.203 5.6406t4.0781 15.547zm-30.578 19.094q2.8438 4.875 7.1562 7.2344 4.3281 2.375 10.328 2.375 9.9688 0 16.188-7.9062 6.2344-7.9062 6.2344-20.797t-6.2344-20.812q-6.2188-7.9062-16.188-7.9062-6 0-10.328 2.375-4.3125 2.375-7.1562 7.25v-8.2031h-9.0312v75.984h9.0312z"/>
<path id="an" d="m45.406 27.984q0 9.7656-4.0312 15.125-4.0156 5.375-11.297 5.375-7.2188 0-11.25-5.375-4.0312-5.3594-4.0312-15.125 0-9.7188 4.0312-15.094t11.25-5.375q7.2812 0 11.297 5.375 4.0312 5.375 4.0312 15.094zm8.9844-21.203q0-13.953-6.2031-20.766-6.1875-6.8125-18.984-6.8125-4.7344 0-8.9375 0.70312t-8.1562 2.1719v8.7344q3.9531-2.1406 7.8125-3.1562 3.8594-1.0312 7.8594-1.0312 8.8438 0 13.234 4.6094t4.3906 13.938v4.4531q-2.7812-4.8438-7.125-7.2344t-10.406-2.3906q-10.047 0-16.203 7.6562-6.1562 7.6719-6.1562 20.328 0 12.688 6.1562 20.344 6.1562 7.6719 16.203 7.6719 6.0625 0 10.406-2.3906t7.125-7.2188v8.2969h8.9844z"/>
</defs>
<g transform="translate(433.66 995.49) scale(.1 -.1)">
<use xlink:href="#s"/>
<use x="63.183594" xlink:href="#v"/>
<use x="126.660156" xlink:href="#i"/>
<use x="154.443359" xlink:href="#f"/>
<use x="217.822266" xlink:href="#ag"/>
<use x="281.298828" xlink:href="#aj"/>
<use x="344.677734" xlink:href="#h"/>
<use x="384.041016" xlink:href="#an"/>
<use x="447.517578" xlink:href="#t"/>
</g>
</g>
<g clip-path="url(#a)">
<g transform="translate(492.78 995.49) scale(.1 -.1)">
<use xlink:href="#u"/>
<use x="39.208984" xlink:href="#t"/>
<use x="102.587891" xlink:href="#d"/>
</g>
</g>
<g clip-path="url(#a)">
<defs>
<path id="aq" d="m4.2031 54.688h8.9844l11.234-42.672 11.172 42.672h10.594l11.234-42.672 11.188 42.672h8.9844l-14.312-54.688h-10.594l-11.766 44.828-11.812-44.828h-10.609z"/>
</defs>
<g transform="translate(522.48 995.49) scale(.1 -.1)">
<use xlink:href="#ak"/>
<use x="35.205078" xlink:href="#r"/>
<use x="96.386719" xlink:href="#j"/>
<use x="124.169922" xlink:href="#j"/>
<use x="151.953125" xlink:href="#r"/>
<use x="213.134766" xlink:href="#aq"/>
<use x="294.921875" xlink:href="#i"/>
<use x="322.705078" xlink:href="#f"/>
<use x="386.083984" xlink:href="#an"/>
</g>
</g>
<g clip-path="url(#a)">
<defs>
<path id="au" d="m32.172-5.0781q-3.7969-9.7656-7.4219-12.734-3.6094-2.9844-9.6562-2.9844h-7.1875v7.5156h5.2812q3.7031 0 5.75 1.7656 2.0625 1.75 4.5469 8.2969l1.6094 4.0938-22.109 53.812h9.5156l17.094-42.766 17.094 42.766h9.5156z"/>
</defs>
<g transform="translate(581.93 995.49) scale(.1 -.1)">
<use xlink:href="#v"/>
<use x="63.476562" xlink:href="#g"/>
<use x="124.755859" xlink:href="#au"/>
</g>
</g>
<g clip-path="url(#a)">
<g transform="translate(637.91 995.49) scale(.1 -.1)">
<use xlink:href="#ap"/>
</g>
</g>
<g clip-path="url(#a)">
<g transform="translate(674.72 995.49) scale(.1 -.1)">
<use xlink:href="#aq"/>
<use x="81.787109" xlink:href="#t"/>
<use x="145.166016" xlink:href="#d"/>
<use x="206.689453" xlink:href="#h"/>
<use x="245.552734" xlink:href="#d"/>
</g>
</g>
<g clip-path="url(#a)">
<g transform="translate(733.54 995.49) scale(.1 -.1)">
<use xlink:href="#r"/>
<use x="61.181641" xlink:href="#f"/>
<use x="124.560547" xlink:href="#d"/>
</g>
</g>
<g clip-path="url(#a)">
<g transform="translate(788.4 995.49) scale(.1 -.1)">
<use xlink:href="#t"/>
<use x="63.378906" xlink:href="#g"/>
<use x="124.658203" xlink:href="#v"/>
</g>
</g>
<g clip-path="url(#a)">
<g transform="translate(842.48 995.49) scale(.1 -.1)">
<use xlink:href="#ag"/>
<use x="63.476562" xlink:href="#d"/>
<use x="125" xlink:href="#d"/>
<use x="186.523438" xlink:href="#f"/>
</g>
</g>
<g clip-path="url(#a)">
<g transform="translate(898.52 995.49) scale(.1 -.1)">
<use xlink:href="#w"/>
<use x="52.099609" xlink:href="#u"/>
<use x="91.308594" xlink:href="#r"/>
<use x="152.490234" xlink:href="#h"/>
<use x="191.353516" xlink:href="#d"/>
<use x="252.876953" xlink:href="#v"/>
</g>
</g>
<g clip-path="url(#a)">
<g transform="translate(971.35 995.49) scale(.1 -.1)">
<use xlink:href="#i"/>
<use x="27.783203" xlink:href="#f"/>
</g>
</g>
<g clip-path="url(#a)">
<g transform="translate(1031.5 995.49) scale(.1 -.1)">
<use xlink:href="#u"/>
<use x="39.208984" xlink:href="#t"/>
<use x="102.587891" xlink:href="#d"/>
</g>
</g>
<g clip-path="url(#a)">
<g transform="translate(1096.7 995.49) scale(.1 -.1)">
<use xlink:href="#ag"/>
<use x="63.476562" xlink:href="#aj"/>
<use x="126.855469" xlink:href="#w"/>
</g>
</g>
<g clip-path="url(#a)">
<g transform="translate(1159.3 995.49) scale(.1 -.1)">
<use xlink:href="#v"/>
<use x="63.476562" xlink:href="#d"/>
<use x="125" xlink:href="#am"/>
<use x="188.476562" xlink:href="#r"/>
<use x="249.658203" xlink:href="#u"/>
</g>
</g>
<g clip-path="url(#a)">
<g transform="translate(1231.2 995.49) scale(.1 -.1)">
<use xlink:href="#w"/>
<use x="52.099609" xlink:href="#i"/>
<use x="79.882812" xlink:href="#f"/>
<use x="143.261719" xlink:href="#af"/>
<use x="198.242188" xlink:href="#d"/>
</g>
</g>
<g clip-path="url(#a)">
<g transform="translate(1313.6 995.49) scale(.1 -.1)">
<use xlink:href="#g"/>
</g>
</g>
<g clip-path="url(#a)">
<g transform="translate(1365.5 995.49) scale(.1 -.1)">
<use xlink:href="#am"/>
<use x="63.476562" xlink:href="#g"/>
<use x="124.755859" xlink:href="#w"/>
<use x="176.855469" xlink:href="#w"/>
<use x="228.955078" xlink:href="#d"/>
<use x="290.478516" xlink:href="#f"/>
<use x="353.857422" xlink:href="#an"/>
<use x="417.333984" xlink:href="#d"/>
<use x="478.857422" xlink:href="#h"/>
</g>
</g>
<g clip-path="url(#a)">
<g transform="translate(1460.3 995.49) scale(.1 -.1)">
<use xlink:href="#j"/>
<use x="27.783203" xlink:href="#d"/>
<use x="89.306641" xlink:href="#ak"/>
<use x="122.761719" xlink:href="#u"/>
</g>
</g>
<g clip-path="url(#a)">
<g transform="translate(1544.2 995.49) scale(.1 -.1)">
<use xlink:href="#i"/>
<use x="27.783203" xlink:href="#u"/>
</g>
</g>
<g clip-path="url(#a)">
<g transform="translate(1622.7 995.49) scale(.1 -.1)">
<use xlink:href="#r"/>
<use x="61.181641" xlink:href="#f"/>
</g>
</g>
<g clip-path="url(#a)">
<g transform="translate(1709.4 995.49) scale(.1 -.1)">
<use xlink:href="#g"/>
</g>
</g>
<g clip-path="url(#a)">
<g transform="translate(1789.3 995.49) scale(.1 -.1)">
<use xlink:href="#ag"/>
<use x="63.476562" xlink:href="#aj"/>
<use x="126.855469" xlink:href="#w"/>
</g>
</g>
<g clip-path="url(#a)">
<defs>
<path id="e" d="m10.688 12.406h10.312v-12.406h-10.312z"/>
</defs>
<g transform="translate(1884.6 995.49) scale(.1 -.1)">
<use xlink:href="#e"/>
</g>
</g>
<g clip-path="url(#a)">
<defs>
<path id="c" d="m12.406 8.2969h16.109v55.625l-17.531-3.5156v8.9844l17.438 3.5156h9.8594v-64.609h16.109v-8.2969h-41.984z"/>
</defs>
<g transform="translate(117.57 50.032) scale(.1 -.1)">
<use xlink:href="#c"/>
<use x="63.623047" xlink:href="#e"/>
<use x="95.410156" xlink:href="#c"/>
</g>
</g>
<g clip-path="url(#a)">
<defs>
<path id="o" d="m19.188 8.2969h34.422v-8.2969h-46.281v8.2969q5.6094 5.8125 15.297 15.594 9.7031 9.7969 12.188 12.641 4.7344 5.3125 6.6094 9 1.8906 3.6875 1.8906 7.25 0 5.8125-4.0781 9.4688-4.0781 3.6719-10.625 3.6719-4.6406 0-9.7969-1.6094-5.1406-1.6094-11-4.8906v9.9688q5.9531 2.3906 11.125 3.6094 5.1875 1.2188 9.4844 1.2188 11.328 0 18.062-5.6719 6.7344-5.6562 6.7344-15.125 0-4.5-1.6875-8.5312-1.6719-4.0156-6.125-9.4844-1.2188-1.4219-7.7656-8.1875-6.5312-6.7656-18.453-18.922z"/>
</defs>
<g transform="translate(95.059 728.72) scale(.1 -.1)">
<use xlink:href="#c"/>
<use x="63.623047" xlink:href="#e"/>
<use x="95.410156" xlink:href="#o"/>
</g>
</g>
<g clip-path="url(#a)">
<defs>
<path id="m" d="m40.578 39.312q7.0781-1.5156 11.047-6.3125 3.9844-4.7812 3.9844-11.812 0-10.781-7.4219-16.703-7.4219-5.9062-21.094-5.9062-4.5781 0-9.4375 0.90625t-10.031 2.7188v9.5156q4.0938-2.3906 8.9688-3.6094 4.8906-1.2188 10.219-1.2188 9.2656 0 14.125 3.6562t4.8594 10.641q0 6.4531-4.5156 10.078-4.5156 3.6406-12.562 3.6406h-8.5v8.1094h8.8906q7.2656 0 11.125 2.9062t3.8594 8.375q0 5.6094-3.9844 8.6094-3.9688 3.0156-11.391 3.0156-4.0625 0-8.7031-0.89062-4.6406-0.875-10.203-2.7188v8.7812q5.625 1.5625 10.531 2.3438t9.25 0.78125q11.234 0 17.766-5.1094 6.5469-5.0938 6.5469-13.781 0-6.0625-3.4688-10.234t-9.8594-5.7812z"/>
</defs>
<g transform="translate(169.18 186.35) scale(.1 -.1)">
<use xlink:href="#c"/>
<use x="63.623047" xlink:href="#e"/>
<use x="95.410156" xlink:href="#m"/>
</g>
</g>
<g clip-path="url(#a)">
<defs>
<path id="ab" d="m33.016 40.375q-6.6406 0-10.531-4.5469-3.875-4.5312-3.875-12.438 0-7.8594 3.875-12.438 3.8906-4.5625 10.531-4.5625t10.516 4.5625q3.875 4.5781 3.875 12.438 0 7.9062-3.875 12.438-3.875 4.5469-10.516 4.5469zm19.578 30.922v-8.9844q-3.7188 1.75-7.5 2.6719-3.7812 0.9375-7.5 0.9375-9.7656 0-14.922-6.5938-5.1406-6.5938-5.875-19.922 2.875 4.25 7.2188 6.5156 4.3594 2.2656 9.5781 2.2656 10.984 0 17.359-6.6719 6.375-6.6562 6.375-18.125 0-11.234-6.6406-18.031-6.6406-6.7812-17.672-6.7812-12.656 0-19.344 9.6875-6.6875 9.7031-6.6875 28.109 0 17.281 8.2031 27.562t22.016 10.281q3.7188 0 7.5-0.73438t7.8906-2.1875z"/>
</defs>
<g transform="translate(102.75 728.72) scale(.1 -.1)">
<use xlink:href="#c"/>
<use x="63.623047" xlink:href="#e"/>
<use x="95.410156" xlink:href="#ab"/>
</g>
</g>
<g clip-path="url(#a)">
<defs>
<path id="aa" d="m8.2031 72.906h46.875v-4.2031l-26.469-68.703h-10.297l24.906 64.594h-35.016z"/>
</defs>
<g transform="translate(121.44 863.02) scale(.1 -.1)">
<use xlink:href="#c"/>
<use x="63.623047" xlink:href="#e"/>
<use x="95.410156" xlink:href="#aa"/>
</g>
</g>
<g clip-path="url(#a)">
<defs>
<path id="ad" d="m31.781 34.625q-7.0312 0-11.062-3.7656-4.0156-3.7656-4.0156-10.344 0-6.5938 4.0156-10.359 4.0312-3.7656 11.062-3.7656t11.078 3.7812q4.0625 3.7969 4.0625 10.344 0 6.5781-4.0312 10.344-4.0156 3.7656-11.109 3.7656zm-9.8594 4.1875q-6.3438 1.5625-9.8906 5.9062-3.5312 4.3594-3.5312 10.609 0 8.7344 6.2188 13.812 6.2344 5.0781 17.062 5.0781 10.891 0 17.094-5.0781t6.2031-13.812q0-6.25-3.5469-10.609-3.5312-4.3438-9.8281-5.9062 7.125-1.6562 11.094-6.5 3.9844-4.8281 3.9844-11.797 0-10.609-6.4688-16.281-6.4688-5.6562-18.531-5.6562-12.047 0-18.531 5.6562-6.4688 5.6719-6.4688 16.281 0 6.9688 4 11.797 4.0156 4.8438 11.141 6.5zm-3.6094 15.578q0-5.6562 3.5312-8.8281 3.5469-3.1719 9.9375-3.1719 6.3594 0 9.9375 3.1719 3.5938 3.1719 3.5938 8.8281 0 5.6719-3.5938 8.8438-3.5781 3.1719-9.9375 3.1719-6.3906 0-9.9375-3.1719-3.5312-3.1719-3.5312-8.8438z"/>
</defs>
<g transform="translate(136.83 863.02) scale(.1 -.1)">
<use xlink:href="#c"/>
<use x="63.623047" xlink:href="#e"/>
<use x="95.410156" xlink:href="#ad"/>
</g>
</g>
<g clip-path="url(#a)">
<defs>
<path id="ac" d="m10.984 1.5156v8.9844q3.7188-1.7656 7.5156-2.6875 3.8125-0.92188 7.4844-0.92188 9.7656 0 14.906 6.5625 5.1562 6.5625 5.8906 19.953-2.8281-4.2031-7.1875-6.4531-4.3438-2.25-9.6094-2.25-10.938 0-17.312 6.6094-6.375 6.625-6.375 18.109 0 11.219 6.6406 18 6.6406 6.7969 17.672 6.7969 12.656 0 19.312-9.7031 6.6719-9.6875 6.6719-28.141 0-17.234-8.1875-27.516-8.1719-10.281-21.984-10.281-3.7188 0-7.5312 0.73438-3.7969 0.73438-7.9062 2.2031zm19.625 30.906q6.6406 0 10.516 4.5312 3.8906 4.5469 3.8906 12.469 0 7.8594-3.8906 12.422-3.875 4.5625-10.516 4.5625t-10.516-4.5625-3.875-12.422q0-7.9219 3.875-12.469 3.875-4.5312 10.516-4.5312z"/>
</defs>
<g transform="translate(315.7 322.43) scale(.1 -.1)">
<use xlink:href="#c"/>
<use x="63.623047" xlink:href="#e"/>
<use x="95.410156" xlink:href="#ac"/>
</g>
</g>
<g clip-path="url(#a)">
<defs>
<path id="ae" d="m31.781 66.406q-7.6094 0-11.453-7.5-3.8281-7.4844-3.8281-22.531 0-14.984 3.8281-22.484 3.8438-7.5 11.453-7.5 7.6719 0 11.5 7.5 3.8438 7.5 3.8438 22.484 0 15.047-3.8438 22.531-3.8281 7.5-11.5 7.5zm0 7.8125q12.266 0 18.734-9.7031 6.4688-9.6875 6.4688-28.141 0-18.406-6.4688-28.109-6.4688-9.6875-18.734-9.6875-12.25 0-18.719 9.6875-6.4688 9.7031-6.4688 28.109 0 18.453 6.4688 28.141 6.4688 9.7031 18.719 9.7031z"/>
</defs>
<g transform="translate(151.24 863.02) scale(.1 -.1)">
<use xlink:href="#c"/>
<use x="63.623047" xlink:href="#e"/>
<use x="95.410156" xlink:href="#c"/>
<use x="159.033203" xlink:href="#ae"/>
</g>
</g>
<g clip-path="url(#a)">
<g transform="translate(171.03 863.02) scale(.1 -.1)">
<use xlink:href="#c"/>
<use x="63.623047" xlink:href="#e"/>
<use x="95.410156" xlink:href="#c"/>
<use x="159.033203" xlink:href="#c"/>
</g>
</g>
<g clip-path="url(#a)">
<g transform="translate(193.02 863.02) scale(.1 -.1)">
<use xlink:href="#c"/>
<use x="63.623047" xlink:href="#e"/>
<use x="95.410156" xlink:href="#c"/>
<use x="159.033203" xlink:href="#o"/>
</g>
</g>
<g clip-path="url(#a)">
<g transform="translate(734.8 458.24) scale(.1 -.1)">
<use xlink:href="#c"/>
<use x="63.623047" xlink:href="#e"/>
<use x="95.410156" xlink:href="#c"/>
<use x="159.033203" xlink:href="#m"/>
</g>
</g>
<g clip-path="url(#a)">
<defs>
<path id="n" d="m37.797 64.312-24.906-38.922h24.906zm-2.5938 8.5938h12.406v-47.516h10.406v-8.2031h-10.406v-17.188h-9.8125v17.188h-32.906v9.5156z"/>
</defs>
<g transform="translate(231.5 728.72) scale(.1 -.1)">
<use xlink:href="#c"/>
<use x="63.623047" xlink:href="#e"/>
<use x="95.410156" xlink:href="#c"/>
<use x="159.033203" xlink:href="#n"/>
</g>
</g>
<g clip-path="url(#a)">
<defs>
<path id="q" d="m10.797 72.906h38.719v-8.3125h-29.688v-17.859q2.1406 0.73438 4.2812 1.0938 2.1562 0.35938 4.3125 0.35938 12.203 0 19.328-6.6875 7.1406-6.6875 7.1406-18.109 0-11.766-7.3281-18.297-7.3281-6.5156-20.656-6.5156-4.5938 0-9.3594 0.78125-4.75 0.78125-9.8281 2.3438v9.9219q4.3906-2.3906 9.0781-3.5625t9.9062-1.1719q8.4531 0 13.375 4.4375 4.9375 4.4375 4.9375 12.062 0 7.6094-4.9375 12.047-4.9219 4.4531-13.375 4.4531-3.9531 0-7.8906-0.875-3.9219-0.875-8.0156-2.7344z"/>
</defs>
<g transform="translate(302.96 863.02) scale(.1 -.1)">
<use xlink:href="#c"/>
<use x="63.623047" xlink:href="#e"/>
<use x="95.410156" xlink:href="#c"/>
<use x="159.033203" xlink:href="#q"/>
</g>
</g>
<g clip-path="url(#a)">
<g transform="translate(417.47 593.71) scale(.1 -.1)">
<use xlink:href="#c"/>
<use x="63.623047" xlink:href="#e"/>
<use x="95.410156" xlink:href="#c"/>
<use x="159.033203" xlink:href="#ab"/>
</g>
</g>
<g clip-path="url(#a)">
<g transform="translate(678.94 863.02) scale(.1 -.1)">
<use xlink:href="#c"/>
<use x="63.623047" xlink:href="#e"/>
<use x="95.410156" xlink:href="#c"/>
<use x="159.033203" xlink:href="#aa"/>
</g>
</g>
<g clip-path="url(#a)">
<g transform="translate(865.61 593.71) scale(.1 -.1)">
<use xlink:href="#c"/>
<use x="63.623047" xlink:href="#e"/>
<use x="95.410156" xlink:href="#c"/>
<use x="159.033203" xlink:href="#ad"/>
</g>
</g>
<g clip-path="url(#a)">
<g transform="translate(1233 863.02) scale(.1 -.1)">
<use xlink:href="#c"/>
<use x="63.623047" xlink:href="#e"/>
<use x="95.410156" xlink:href="#c"/>
<use x="159.033203" xlink:href="#ac"/>
</g>
</g>
<g clip-path="url(#a)">
<g transform="translate(1520.5 593.71) scale(.1 -.1)">
<use xlink:href="#c"/>
<use x="63.623047" xlink:href="#e"/>
<use x="95.410156" xlink:href="#o"/>
<use x="159.033203" xlink:href="#ae"/>
</g>
</g>
<g clip-path="url(#a)">
<g transform="translate(1343 728.72) scale(.1 -.1)">
<use xlink:href="#c"/>
<use x="63.623047" xlink:href="#e"/>
<use x="95.410156" xlink:href="#o"/>
<use x="159.033203" xlink:href="#o"/>
</g>
</g>
<g clip-path="url(#a)">
<g transform="translate(1457.3 863.02) scale(.1 -.1)">
<use xlink:href="#c"/>
<use x="63.623047" xlink:href="#e"/>
<use x="95.410156" xlink:href="#o"/>
<use x="159.033203" xlink:href="#m"/>
</g>
</g>
<g clip-path="url(#a)">
<g transform="translate(1536.4 863.02) scale(.1 -.1)">
<use xlink:href="#c"/>
<use x="63.623047" xlink:href="#e"/>
<use x="95.410156" xlink:href="#o"/>
<use x="159.033203" xlink:href="#n"/>
</g>
</g>
<g clip-path="url(#a)">
<g transform="translate(1745.3 728.72) scale(.1 -.1)">
<use xlink:href="#c"/>
<use x="63.623047" xlink:href="#e"/>
<use x="95.410156" xlink:href="#o"/>
<use x="159.033203" xlink:href="#q"/>
</g>
</g>
<g clip-path="url(#a)">
<g transform="translate(1617.8 863.02) scale(.1 -.1)">
<use xlink:href="#c"/>
<use x="63.623047" xlink:href="#e"/>
<use x="95.410156" xlink:href="#o"/>
<use x="159.033203" xlink:href="#ab"/>
</g>
</g>
<g clip-path="url(#a)">
<g transform="translate(1701.3 863.02) scale(.1 -.1)">
<use xlink:href="#c"/>
<use x="63.623047" xlink:href="#e"/>
<use x="95.410156" xlink:href="#o"/>
<use x="159.033203" xlink:href="#aa"/>
</g>
</g>
<g clip-path="url(#a)">
<g transform="translate(1787.1 863.02) scale(.1 -.1)">
<use xlink:href="#c"/>
<use x="63.623047" xlink:href="#e"/>
<use x="95.410156" xlink:href="#o"/>
<use x="159.033203" xlink:href="#ad"/>
</g>
</g>
<g clip-path="url(#a)">
<g transform="translate(1305.6 863.02) scale(.1 -.1)">
<use xlink:href="#c"/>
<use x="63.623047" xlink:href="#e"/>
<use x="95.410156" xlink:href="#o"/>
<use x="159.033203" xlink:href="#ac"/>
</g>
</g>
<g clip-path="url(#a)">
<g transform="translate(1380.3 863.02) scale(.1 -.1)">
<use xlink:href="#c"/>
<use x="63.623047" xlink:href="#e"/>
<use x="95.410156" xlink:href="#m"/>
<use x="159.033203" xlink:href="#ae"/>
</g>
</g>
<g clip-path="url(#a)">
<g transform="translate(731.71 863.02) scale(.1 -.1)">
<use xlink:href="#c"/>
<use x="63.623047" xlink:href="#e"/>
<use x="95.410156" xlink:href="#m"/>
<use x="159.033203" xlink:href="#c"/>
</g>
</g>
<g clip-path="url(#a)">
<g transform="translate(786.68 863.02) scale(.1 -.1)">
<use xlink:href="#c"/>
<use x="63.623047" xlink:href="#e"/>
<use x="95.410156" xlink:href="#m"/>
<use x="159.033203" xlink:href="#o"/>
</g>
</g>
<g clip-path="url(#a)">
<g transform="translate(843.84 863.02) scale(.1 -.1)">
<use xlink:href="#c"/>
<use x="63.623047" xlink:href="#e"/>
<use x="95.410156" xlink:href="#m"/>
<use x="159.033203" xlink:href="#m"/>
</g>
</g>
<g clip-path="url(#a)">
<g transform="translate(903.21 863.02) scale(.1 -.1)">
<use xlink:href="#c"/>
<use x="63.623047" xlink:href="#e"/>
<use x="95.410156" xlink:href="#m"/>
<use x="159.033203" xlink:href="#n"/>
</g>
</g>
<g clip-path="url(#a)">
<g transform="translate(1062.6 728.72) scale(.1 -.1)">
<use xlink:href="#c"/>
<use x="63.623047" xlink:href="#e"/>
<use x="95.410156" xlink:href="#m"/>
<use x="159.033203" xlink:href="#q"/>
</g>
</g>
<g clip-path="url(#a)">
<g transform="translate(964.77 863.02) scale(.1 -.1)">
<use xlink:href="#c"/>
<use x="63.623047" xlink:href="#e"/>
<use x="95.410156" xlink:href="#m"/>
<use x="159.033203" xlink:href="#ab"/>
</g>
</g>
<g clip-path="url(#a)">
<g transform="translate(1028.5 863.02) scale(.1 -.1)">
<use xlink:href="#c"/>
<use x="63.623047" xlink:href="#e"/>
<use x="95.410156" xlink:href="#m"/>
<use x="159.033203" xlink:href="#aa"/>
</g>
</g>
<g clip-path="url(#a)">
<g transform="translate(1094.5 863.02) scale(.1 -.1)">
<use xlink:href="#c"/>
<use x="63.623047" xlink:href="#e"/>
<use x="95.410156" xlink:href="#m"/>
<use x="159.033203" xlink:href="#ad"/>
</g>
</g>
<g clip-path="url(#a)">
<g transform="translate(1162.7 863.02) scale(.1 -.1)">
<use xlink:href="#c"/>
<use x="63.623047" xlink:href="#e"/>
<use x="95.410156" xlink:href="#m"/>
<use x="159.033203" xlink:href="#ac"/>
</g>
</g>
<g clip-path="url(#a)">
<g transform="translate(335.94 863.02) scale(.1 -.1)">
<use xlink:href="#c"/>
<use x="63.623047" xlink:href="#e"/>
<use x="95.410156" xlink:href="#n"/>
<use x="159.033203" xlink:href="#ae"/>
</g>
</g>
<g clip-path="url(#a)">
<g transform="translate(371.12 863.02) scale(.1 -.1)">
<use xlink:href="#c"/>
<use x="63.623047" xlink:href="#e"/>
<use x="95.410156" xlink:href="#n"/>
<use x="159.033203" xlink:href="#c"/>
</g>
</g>
<g clip-path="url(#a)">
<g transform="translate(428.28 728.72) scale(.1 -.1)">
<use xlink:href="#c"/>
<use x="63.623047" xlink:href="#e"/>
<use x="95.410156" xlink:href="#n"/>
<use x="159.033203" xlink:href="#o"/>
</g>
</g>
<g clip-path="url(#a)">
<g transform="translate(534.56 728.72) scale(.1 -.1)">
<use xlink:href="#c"/>
<use x="63.623047" xlink:href="#e"/>
<use x="95.410156" xlink:href="#n"/>
<use x="159.033203" xlink:href="#m"/>
</g>
</g>
<g clip-path="url(#a)">
<g transform="translate(489.85 863.02) scale(.1 -.1)">
<use xlink:href="#c"/>
<use x="63.623047" xlink:href="#e"/>
<use x="95.410156" xlink:href="#n"/>
<use x="159.033203" xlink:href="#n"/>
</g>
</g>
<g clip-path="url(#a)">
<g transform="translate(533.82 863.02) scale(.1 -.1)">
<use xlink:href="#c"/>
<use x="63.623047" xlink:href="#e"/>
<use x="95.410156" xlink:href="#n"/>
<use x="159.033203" xlink:href="#q"/>
</g>
</g>
<g clip-path="url(#a)">
<g transform="translate(580 863.02) scale(.1 -.1)">
<use xlink:href="#c"/>
<use x="63.623047" xlink:href="#e"/>
<use x="95.410156" xlink:href="#n"/>
<use x="159.033203" xlink:href="#ab"/>
</g>
</g>
<g clip-path="url(#a)">
<g transform="translate(408.5 863.02) scale(.1 -.1)">
<use xlink:href="#c"/>
<use x="63.623047" xlink:href="#e"/>
<use x="95.410156" xlink:href="#n"/>
<use x="159.033203" xlink:href="#aa"/>
</g>
</g>
<g clip-path="url(#a)">
<g transform="translate(448.07 863.02) scale(.1 -.1)">
<use xlink:href="#c"/>
<use x="63.623047" xlink:href="#e"/>
<use x="95.410156" xlink:href="#n"/>
<use x="159.033203" xlink:href="#ad"/>
</g>
</g>
<g clip-path="url(#a)">
<g transform="translate(217.21 863.02) scale(.1 -.1)">
<use xlink:href="#c"/>
<use x="63.623047" xlink:href="#e"/>
<use x="95.410156" xlink:href="#n"/>
<use x="159.033203" xlink:href="#ac"/>
</g>
</g>
<g clip-path="url(#a)">
<g transform="translate(243.59 863.02) scale(.1 -.1)">
<use xlink:href="#c"/>
<use x="63.623047" xlink:href="#e"/>
<use x="95.410156" xlink:href="#q"/>
<use x="159.033203" xlink:href="#ae"/>
</g>
</g>
<g clip-path="url(#a)">
<g transform="translate(272.17 863.02) scale(.1 -.1)">
<use xlink:href="#c"/>
<use x="63.623047" xlink:href="#e"/>
<use x="95.410156" xlink:href="#q"/>
<use x="159.033203" xlink:href="#c"/>
</g>
</g>
<g clip-path="url(#a)">
<g transform="translate(94.076 863.02) scale(.1 -.1)">
<use xlink:href="#c"/>
<use x="63.623047" xlink:href="#e"/>
<use x="95.410156" xlink:href="#q"/>
<use x="159.033203" xlink:href="#o"/>
</g>
</g>
<g clip-path="url(#a)">
<g transform="translate(105.07 863.02) scale(.1 -.1)">
<use xlink:href="#c"/>
<use x="63.623047" xlink:href="#e"/>
<use x="95.410156" xlink:href="#q"/>
<use x="159.033203" xlink:href="#m"/>
</g>
</g>
<g clip-path="url(#a)">
<g transform="translate(78.685 863.02) scale(.1 -.1)">
<use xlink:href="#c"/>
<use x="63.623047" xlink:href="#e"/>
<use x="95.410156" xlink:href="#q"/>
<use x="159.033203" xlink:href="#n"/>
</g>
</g>
<g clip-path="url(#a)">
<g transform="translate(85.282 863.02) scale(.1 -.1)">
<use xlink:href="#c"/>
<use x="63.623047" xlink:href="#e"/>
<use x="95.410156" xlink:href="#q"/>
<use x="159.033203" xlink:href="#q"/>
</g>
</g>
<g clip-path="url(#a)">
<g transform="translate(628.37 863.02) scale(.1 -.1)">
<use xlink:href="#c"/>
<use x="63.623047" xlink:href="#e"/>
<use x="95.410156" xlink:href="#q"/>
<use x="159.033203" xlink:href="#ab"/>
</g>
</g>
<g clip-path="url(#a)">
<g transform="translate(1875 863.02) scale(.1 -.1)">
<use xlink:href="#c"/>
<use x="63.623047" xlink:href="#e"/>
<use x="95.410156" xlink:href="#q"/>
<use x="159.033203" xlink:href="#aa"/>
</g>
</g>
<defs>
<clipPath id="a">
<rect width="1976" height="1040"/>
</clipPath>
</defs>
</svg>
