<?xml version="1.0" encoding="UTF-8"?>
<!DOCTYPE svg  PUBLIC '-//W3C//DTD SVG 1.1//EN'  'http://www.w3.org/Graphics/SVG/1.1/DTD/svg11.dtd'>
<svg width="2077.3pt" height="1093.3pt" version="1.1" viewBox="0 0 2077.3 1093.3" xmlns="http://www.w3.org/2000/svg" xmlns:xlink="http://www.w3.org/1999/xlink">
<defs>
<style type="text/css">*{stroke-linecap:butt;stroke-linejoin:round;}</style>
</defs>
<path d="m0 1093.3h2077.3v-1093.3h-2077.3z" fill="#fff"/>
<g fill="none" stroke="#000">
<path d="m601.42 49.697-507 854.68" clip-path="url(#a)"/>
<path d="m601.42 49.697-478.77 571.56" clip-path="url(#a)"/>
<path d="m601.42 49.697-419.16 854.68" clip-path="url(#a)"/>
<path d="m601.42 49.697-378.83 143.3" clip-path="url(#a)"/>
<path d="m601.42 49.697 787.98 286.37" clip-path="url(#a)"/>
<path d="m601.42 49.697 465.48 854.68" clip-path="url(#a)"/>
<path d="m601.42 49.697 530.31 854.68" clip-path="url(#a)"/>
<path d="m94.424 904.38v139.26" clip-path="url(#a)"/>
<path d="m122.66 621.26-21.959 283.12" clip-path="url(#a)"/>
<path d="m122.66 621.26-13.594 283.12" clip-path="url(#a)"/>
<path d="m122.66 621.26 3.137 141.93" clip-path="url(#a)"/>
<path d="m122.66 621.26 32.416 141.93" clip-path="url(#a)"/>
<path d="m182.26 904.38v139.26" clip-path="url(#a)"/>
<path d="m222.59 193-19.415 711.38" clip-path="url(#a)"/>
<path d="m222.59 193 141.31 143.06" clip-path="url(#a)"/>
<path d="m222.59 193-121.89 711.38" clip-path="url(#a)" stroke-dasharray="3.7,1.6"/>
<path d="m1389.4 336.06-190.74 568.32" clip-path="url(#a)"/>
<path d="m1389.4 336.06-121.73 568.32" clip-path="url(#a)"/>
<path d="m1389.4 336.06-50.624 568.32" clip-path="url(#a)"/>
<path d="m1389.4 336.06 363.1 142.78" clip-path="url(#a)"/>
<path d="m1198.7 904.38v139.26" clip-path="url(#a)"/>
<path d="m1267.7 904.38v139.26" clip-path="url(#a)"/>
<path d="m1338.8 904.38v139.26" clip-path="url(#a)"/>
<path d="m1752.5 478.84-340.52 425.54" clip-path="url(#a)"/>
<path d="m1752.5 478.84-32.468 142.42" clip-path="url(#a)"/>
<path d="m1752.5 478.84 142.58 425.54" clip-path="url(#a)"/>
<path d="m1752.5 478.84 230.41 425.54" clip-path="url(#a)"/>
<path d="m1412 904.38v139.26" clip-path="url(#a)"/>
<path d="m1720 621.26 175.05 283.12" clip-path="url(#a)" stroke-dasharray="3.7,1.6"/>
<path d="m1720 621.26-194.08 141.93" clip-path="url(#a)"/>
<path d="m1720 621.26-75.916 283.12" clip-path="url(#a)"/>
<path d="m1720 621.26 89.3 283.12" clip-path="url(#a)"/>
<path d="m1720 621.26 5.6466 283.12" clip-path="url(#a)"/>
<path d="m1895.1 904.38v139.26" clip-path="url(#a)"/>
<path d="m1526 763.19-38.69 141.19" clip-path="url(#a)"/>
<path d="m1526 763.19 38.69 141.19" clip-path="url(#a)"/>
<path d="m1644.1 904.38v139.26" clip-path="url(#a)"/>
<path d="m1809.3 904.38v139.26" clip-path="url(#a)"/>
<path d="m1487.3 904.38v139.26" clip-path="url(#a)"/>
<path d="m1564.6 904.38v139.26" clip-path="url(#a)"/>
<path d="m203.17 904.38v139.26" clip-path="url(#a)"/>
<path d="m363.9 336.06-137.72 568.32" clip-path="url(#a)"/>
<path d="m363.9 336.06-99.027 427.12" clip-path="url(#a)"/>
<path d="m363.9 336.06 236.74 142.78" clip-path="url(#a)"/>
<path d="m226.18 904.38v139.26" clip-path="url(#a)"/>
<path d="m264.87 763.19-13.594 141.19" clip-path="url(#a)"/>
<path d="m264.87 763.19 13.594 141.19" clip-path="url(#a)"/>
<path d="m600.64 478.84-271.64 142.42" clip-path="url(#a)"/>
<path d="m600.64 478.84-52.044 142.42" clip-path="url(#a)"/>
<path d="m600.64 478.84 171.38 425.54" clip-path="url(#a)"/>
<path d="m600.64 478.84 307.49 142.42" clip-path="url(#a)"/>
<path d="m600.64 478.84-190.42 425.54" clip-path="url(#a)"/>
<path d="m600.64 478.84-152.78 425.54" clip-path="url(#a)"/>
<path d="m600.64 478.84 68.905 425.54" clip-path="url(#a)"/>
<path d="m600.64 478.84 119.1 425.54" clip-path="url(#a)"/>
<path d="m329 621.26-21.262 283.12" clip-path="url(#a)"/>
<path d="m329 621.26 11.154 141.93" clip-path="url(#a)"/>
<path d="m329 621.26 10.108 283.12" clip-path="url(#a)"/>
<path d="m548.59 621.26-40.084 283.12" clip-path="url(#a)"/>
<path d="m548.59 621.26 15.337 141.93" clip-path="url(#a)"/>
<path d="m548.59 621.26 24.748 283.12" clip-path="url(#a)"/>
<path d="m772.02 904.38v139.26" clip-path="url(#a)"/>
<path d="m908.13 621.26-53.504 283.12" clip-path="url(#a)"/>
<path d="m908.13 621.26 20.216 141.93" clip-path="url(#a)"/>
<path d="m908.13 621.26 33.287 283.12" clip-path="url(#a)"/>
<path d="m854.63 904.38-28.233 139.26" clip-path="url(#a)"/>
<path d="m854.63 904.38 28.233 139.26" clip-path="url(#a)"/>
<path d="m928.35 763.19-73.72 141.19" clip-path="url(#a)" stroke-dasharray="3.7,1.6"/>
<path d="m928.35 763.19 75.811 141.19" clip-path="url(#a)"/>
<path d="m928.35 763.19 73.72 141.19" clip-path="url(#a)"/>
<path d="m1002.1 904.38v139.26" clip-path="url(#a)"/>
<path d="m508.51 904.38-20.913 139.26" clip-path="url(#a)"/>
<path d="m508.51 904.38 20.913 139.26" clip-path="url(#a)"/>
<path d="m563.93 763.19-55.421 141.19" clip-path="url(#a)" stroke-dasharray="3.7,1.6"/>
<path d="m563.93 763.19 57.512 141.19" clip-path="url(#a)"/>
<path d="m563.93 763.19 55.421 141.19" clip-path="url(#a)"/>
<path d="m619.35 904.38v139.26" clip-path="url(#a)"/>
<path d="m307.74 904.38v139.26" clip-path="url(#a)"/>
<path d="m340.16 763.19-32.416 141.19" clip-path="url(#a)" stroke-dasharray="3.7,1.6"/>
<path d="m340.16 763.19 34.507 141.19" clip-path="url(#a)"/>
<path d="m340.16 763.19 32.416 141.19" clip-path="url(#a)"/>
<path d="m372.57 904.38v139.26" clip-path="url(#a)"/>
<path d="m251.28 904.38v139.26" clip-path="url(#a)"/>
<path d="m278.46 904.38v139.26" clip-path="url(#a)"/>
<path d="m100.7 904.38v139.26" clip-path="url(#a)"/>
<path d="m109.06 904.38v139.26" clip-path="url(#a)"/>
<path d="m125.79 763.19-6.274 141.19" clip-path="url(#a)"/>
<path d="m125.79 763.19 6.274 141.19" clip-path="url(#a)"/>
<path d="m155.07 763.19-8.3654 141.19" clip-path="url(#a)"/>
<path d="m155.07 763.19 8.3654 141.19" clip-path="url(#a)"/>
<path d="m146.71 904.38v139.26" clip-path="url(#a)"/>
<path d="m163.44 904.38v139.26" clip-path="url(#a)"/>
<path d="m119.52 904.38v139.26" clip-path="url(#a)"/>
<path d="m132.07 904.38v139.26" clip-path="url(#a)"/>
<path d="m339.11 904.38v139.26" clip-path="url(#a)"/>
<path d="m410.22 904.38v139.26" clip-path="url(#a)"/>
<path d="m447.86 904.38v139.26" clip-path="url(#a)"/>
<path d="m573.34 904.38v139.26" clip-path="url(#a)"/>
<path d="m669.54 904.38v139.26" clip-path="url(#a)"/>
<path d="m719.74 904.38v139.26" clip-path="url(#a)"/>
<path d="m941.42 904.38v139.26" clip-path="url(#a)"/>
<path d="m1066.9 904.38v139.26" clip-path="url(#a)"/>
<path d="m1131.7 904.38v139.26" clip-path="url(#a)"/>
<path d="m1725.7 904.38v139.26" clip-path="url(#a)"/>
<path d="m1982.9 904.38v139.26" clip-path="url(#a)"/>
</g>
<path d="m352.18 482.16 2.2742-3.8337q1.2245-2.0642-0.8397-3.2886l-6.659-3.9501q-2.0642-1.2245-3.2886 0.8397l-2.2742 3.8337q-1.2245 2.0641 0.8397 3.2886l6.659 3.9501q2.0642 1.2245 3.2886-0.8397z" clip-path="url(#a)" fill="#fff" stroke="#fff"/>
<g clip-path="url(#a)">
<defs>
<path id="ah" d="m9.8125 72.906h9.8594v-64.609h35.5v-8.2969h-45.359z"/>
</defs>
<g transform="translate(348.69 480.08) rotate(-59.324) scale(.08 -.08)">
<use xlink:href="#ah"/>
</g>
</g>
<path d="m364.92 341.81 3.8632-4.612q1.5411-1.8398-0.2987-3.3809l-5.9353-4.9717q-1.8398-1.5411-3.3809 0.2987l-3.8632 4.612q-1.5411 1.8398 0.2987 3.3809l5.9353 4.9717q1.8398 1.5411 3.3809-0.2987z" clip-path="url(#a)" fill="#fff" stroke="#fff"/>
<g clip-path="url(#a)">
<defs>
<path id="al" d="m9.8125 72.906h9.8594v-29.891h35.844v29.891h9.8594v-72.906h-9.8594v34.719h-35.844v-34.719h-9.8594z"/>
</defs>
<g transform="translate(361.8 339.2) rotate(-50.049) scale(.08 -.08)">
<use xlink:href="#al"/>
</g>
</g>
<path d="m396.49 481.8 1.9628-4.0021q1.0568-2.1548-1.098-3.2116l-6.9515-3.4092q-2.1548-1.0568-3.2116 1.098l-1.9628 4.0021q-1.0568 2.1548 1.098 3.2116l6.9515 3.4092q2.1548 1.0568 3.2116-1.098z" clip-path="url(#a)" fill="#fff" stroke="#fff"/>
<g clip-path="url(#a)">
<g transform="translate(392.84 480.01) rotate(-63.875) scale(.08 -.08)">
<use xlink:href="#ah"/>
</g>
</g>
<path d="m411.41 128.28 5.6271-2.1286q2.2448-0.84914 1.3956-3.0939l-2.7394-7.2417q-0.84914-2.2448-3.0939-1.3956l-5.6271 2.1286q-2.2448 0.84914-1.3956 3.0939l2.7394 7.2417q0.84914 2.2448 3.0939 1.3956z" clip-path="url(#a)" fill="#fff" stroke="#fff"/>
<g clip-path="url(#a)">
<g transform="translate(409.97 124.48) rotate(-20.72) scale(.08 -.08)">
<use xlink:href="#al"/>
</g>
</g>
<path d="m990.44 197.75 5.6544 2.0549q2.2557 0.81976 3.0754-1.4359l2.6446-7.2769q0.81976-2.2557-1.4359-3.0754l-5.6544-2.0549q-2.2557-0.81976-3.0754 1.4359l-2.6446 7.2769q-0.81976 2.2557 1.4359 3.0754z" clip-path="url(#a)" fill="#fff" stroke="#fff"/>
<g clip-path="url(#a)">
<g transform="translate(991.83 193.93) rotate(19.972) scale(.08 -.08)">
<use xlink:href="#al"/>
</g>
</g>
<path d="m827.25 477.47 2.8004 5.1419q1.1479 2.1077 3.2556 0.9598l6.7995-3.7031q2.1077-1.1479 0.9598-3.2556l-2.8004-5.1419q-1.1479-2.1077-3.2556-0.9598l-6.7995 3.7031q-2.1077 1.1479-0.9598 3.2556z" clip-path="url(#a)" fill="#fff" stroke="#fff"/>
<g clip-path="url(#a)">
<defs>
<path id="t" d="m8.6875 72.906h9.9219v-44.297q0-11.719 4.2344-16.875 4.25-5.1406 13.781-5.1406 9.4688 0 13.719 5.1406 4.25 5.1562 4.25 16.875v44.297h9.9062v-45.516q0-14.25-7.0625-21.531-7.0469-7.2812-20.812-7.2812-13.828 0-20.891 7.2812-7.0469 7.2812-7.0469 21.531z"/>
</defs>
<g transform="translate(830.82 475.52) rotate(61.426) scale(.08 -.08)">
<use xlink:href="#t"/>
</g>
</g>
<path d="m859.71 477.86 3.0869 4.9751q1.2654 2.0393 3.3047 0.77398l6.579-4.0821q2.0393-1.2654 0.77398-3.3047l-3.0869-4.9751q-1.2654-2.0393-3.3047-0.77398l-6.579 4.0821q-2.0393 1.2654-0.77398 3.3047z" clip-path="url(#a)" fill="#fff" stroke="#fff"/>
<g clip-path="url(#a)">
<g transform="translate(863.16 475.72) rotate(58.182) scale(.08 -.08)">
<use xlink:href="#t"/>
</g>
</g>
<path d="m88.153 957.11v33.808q0 2.4 2.4 2.4h7.7425q2.4 0 2.4-2.4v-33.808q0-2.4-2.4-2.4h-7.7425q-2.4 0-2.4 2.4z" clip-path="url(#a)" fill="#fff" stroke="#fff"/>
<g clip-path="url(#a)">
<defs>
<path id="i" d="m-0.29688 72.906h61.672v-8.3125h-25.875v-64.594h-9.9062v64.594h-25.891z"/>
<path id="g" d="m56.203 29.594v-4.3906h-41.312q0.59375-9.2812 5.5938-14.141t13.938-4.8594q5.1719 0 10.031 1.2656t9.6562 3.8125v-8.5q-4.8438-2.0469-9.9219-3.125t-10.297-1.0781q-13.094 0-20.734 7.6094-7.6406 7.625-7.6406 20.625 0 13.422 7.25 21.297 7.25 7.8906 19.562 7.8906 11.031 0 17.453-7.1094 6.4219-7.0938 6.4219-19.297zm-8.9844 2.6406q-0.09375 7.3594-4.125 11.75-4.0312 4.4062-10.672 4.4062-7.5156 0-12.031-4.25t-5.2031-11.969z"/>
<path id="h" d="m41.109 46.297q-1.5156 0.875-3.2969 1.2812-1.7812 0.42188-3.9219 0.42188-7.625 0-11.703-4.9531t-4.0781-14.234v-28.812h-9.0312v54.688h9.0312v-8.5q2.8438 4.9844 7.375 7.3906 4.5469 2.4219 11.047 2.4219 0.92188 0 2.0469-0.125 1.125-0.10938 2.4844-0.35938z"/>
<path id="l" d="m52 44.188q3.375 6.0625 8.0625 8.9375t11.031 2.875q8.5469 0 13.188-5.9844 4.6406-5.9688 4.6406-17v-33.016h-9.0312v32.719q0 7.8594-2.7969 11.656-2.7812 3.8125-8.4844 3.8125-6.9844 0-11.047-4.6406-4.0469-4.625-4.0469-12.641v-30.906h-9.0312v32.719q0 7.9062-2.7812 11.688t-8.5938 3.7812q-6.8906 0-10.953-4.6562-4.0469-4.6562-4.0469-12.625v-30.906h-9.0312v54.688h9.0312v-8.5q3.0781 5.0312 7.375 7.4219t10.203 2.3906q5.9688 0 10.141-3.0312 4.1719-3.0156 6.1719-8.7812z"/>
<path id="f" d="m9.4219 54.688h8.9844v-54.688h-8.9844zm0 21.297h8.9844v-11.391h-8.9844z"/>
<path id="k" d="m54.891 33.016v-33.016h-8.9844v32.719q0 7.7656-3.0312 11.609-3.0312 3.8594-9.0781 3.8594-7.2812 0-11.484-4.6406-4.2031-4.625-4.2031-12.641v-30.906h-9.0312v54.688h9.0312v-8.5q3.2344 4.9375 7.5938 7.375 4.375 2.4375 10.094 2.4375 9.4219 0 14.25-5.8281 4.8438-5.8281 4.8438-17.156z"/>
<path id="e" d="m34.281 27.484q-10.891 0-15.094-2.4844t-4.2031-8.5q0-4.7812 3.1562-7.5938 3.1562-2.7969 8.5625-2.7969 7.4844 0 12 5.2969t4.5156 14.078v2zm17.922 3.7188v-31.203h-8.9844v8.2969q-3.0781-4.9688-7.6719-7.3438t-11.234-2.375q-8.3906 0-13.359 4.7188-4.9531 4.7188-4.9531 12.625 0 9.2188 6.1719 13.906 6.1875 4.6875 18.438 4.6875h12.609v0.89062q0 6.2031-4.0781 9.5938t-11.453 3.3906q-4.6875 0-9.1406-1.125-4.4375-1.125-8.5312-3.375v8.3125q4.9219 1.9062 9.5625 2.8438 4.6406 0.95312 9.0312 0.95312 11.875 0 17.734-6.1562 5.8594-6.1406 5.8594-18.641z"/>
<path id="j" d="m9.4219 75.984h8.9844v-75.984h-8.9844z"/>
</defs>
<g transform="translate(92.217 957.11) rotate(90) scale(.08 -.08)">
<use xlink:href="#i"/>
<use x="44.083984" xlink:href="#g"/>
<use x="105.607422" xlink:href="#h"/>
<use x="144.970703" xlink:href="#l"/>
<use x="242.382812" xlink:href="#f"/>
<use x="270.166016" xlink:href="#k"/>
<use x="333.544922" xlink:href="#e"/>
<use x="394.824219" xlink:href="#j"/>
</g>
</g>
<path d="m117.72 766.03 0.42318-5.4561q0.18559-2.3928-2.2072-2.5784l-7.7193-0.59871q-2.3928-0.18559-2.5784 2.2072l-0.42318 5.4561q-0.18559 2.3928 2.2072 2.5784l7.7193 0.59871q2.3928 0.18559 2.5784-2.2072z" clip-path="url(#a)" fill="#fff" stroke="#fff"/>
<g clip-path="url(#a)">
<defs>
<path id="u" d="m34.188 63.188-13.391-36.281h26.812zm-5.5781 9.7188h11.188l27.781-72.906h-10.25l-6.6406 18.703h-32.859l-6.6406-18.703h-10.406z"/>
</defs>
<g transform="translate(113.67 765.72) rotate(-85.565) scale(.08 -.08)">
<use xlink:href="#u"/>
</g>
</g>
<path d="m122.01 765.53 0.23134-4.8182q0.1151-2.3972-2.2821-2.5123l-7.7336-0.37132q-2.3972-0.1151-2.5123 2.2821l-0.23134 4.8182q-0.1151 2.3972 2.2821 2.5123l7.7336 0.37132q2.3972 0.1151 2.5123-2.2821z" clip-path="url(#a)" fill="#fff" stroke="#fff"/>
<g clip-path="url(#a)">
<defs>
<path id="z" d="m19.672 64.797v-27.391h12.406q6.8906 0 10.641 3.5625 3.7656 3.5625 3.7656 10.156 0 6.5469-3.7656 10.109-3.75 3.5625-10.641 3.5625zm-9.8594 8.1094h22.266q12.266 0 18.531-5.5469 6.2812-5.5469 6.2812-16.234 0-10.797-6.2812-16.312-6.2656-5.5156-18.531-5.5156h-12.406v-29.297h-9.8594z"/>
</defs>
<g transform="translate(117.95 765.33) rotate(-87.251) scale(.08 -.08)">
<use xlink:href="#z"/>
</g>
</g>
<path d="m117.9 689.63 0.12092 5.4712q0.053032 2.3994 2.4524 2.3464l7.7406-0.17108q2.3994-0.053032 2.3464-2.4524l-0.12092-5.4712q-0.053032-2.3994-2.4524-2.3464l-7.7406 0.17108q-2.3994 0.053032-2.3464 2.4524z" clip-path="url(#a)" fill="#fff" stroke="#fff"/>
<g clip-path="url(#a)">
<g transform="translate(121.96 689.54) rotate(88.734) scale(.08 -.08)">
<use xlink:href="#u"/>
</g>
</g>
<path d="m132.21 691.24 1.088 4.7636q0.53437 2.3398 2.8741 1.8054l7.5481-1.7239q2.3398-0.53437 1.8054-2.8741l-1.088-4.7636q-0.53437-2.3398-2.8741-1.8054l-7.5481 1.7239q-2.3398 0.53437-1.8054 2.8741z" clip-path="url(#a)" fill="#fff" stroke="#fff"/>
<g clip-path="url(#a)">
<g transform="translate(136.17 690.33) rotate(77.135) scale(.08 -.08)">
<use xlink:href="#i"/>
</g>
</g>
<path d="m175.99 957.11v33.808q0 2.4 2.4 2.4h7.7425q2.4 0 2.4-2.4v-33.808q0-2.4-2.4-2.4h-7.7425q-2.4 0-2.4 2.4z" clip-path="url(#a)" fill="#fff" stroke="#fff"/>
<g clip-path="url(#a)">
<g transform="translate(180.05 957.11) rotate(90) scale(.08 -.08)">
<use xlink:href="#i"/>
<use x="44.083984" xlink:href="#g"/>
<use x="105.607422" xlink:href="#h"/>
<use x="144.970703" xlink:href="#l"/>
<use x="242.382812" xlink:href="#f"/>
<use x="270.166016" xlink:href="#k"/>
<use x="333.544922" xlink:href="#e"/>
<use x="394.824219" xlink:href="#j"/>
</g>
</g>
<path d="m219.08 551.4 0.13856-5.0769q0.065476-2.3991-2.3336-2.4646l-7.7396-0.21123q-2.3991-0.065477-2.4646 2.3336l-0.13856 5.0769q-0.065477 2.3991 2.3336 2.4646l7.7396 0.21123q2.3991 0.065477 2.4646-2.3336z" clip-path="url(#a)" fill="#fff" stroke="#fff"/>
<g clip-path="url(#a)">
<defs>
<path id="as" d="m53.516 70.516v-9.625q-5.6094 2.6875-10.594 4-4.9844 1.3281-9.625 1.3281-8.0469 0-12.422-3.125t-4.375-8.8906q0-4.8438 2.9062-7.3125 2.9062-2.4531 11.016-3.9688l5.9531-1.2188q11.031-2.1094 16.281-7.4062t5.25-14.172q0-10.609-7.1094-16.078-7.0938-5.4688-20.812-5.4688-5.1719 0-11.016 1.1719-5.8281 1.1719-12.078 3.4688v10.156q6-3.3594 11.766-5.0781 5.7656-1.7031 11.328-1.7031 8.4375 0 13.031 3.3125 4.5938 3.3281 4.5938 9.4844 0 5.3594-3.2969 8.3906t-10.812 4.5469l-6.0156 1.1719q-11.031 2.1875-15.969 6.875-4.9219 4.6875-4.9219 13.047 0 9.6719 6.8125 15.234t18.766 5.5625q5.1406 0 10.453-0.9375 5.3281-0.92188 10.891-2.7656z"/>
</defs>
<g transform="translate(215.02 551.29) rotate(-88.437) scale(.08 -.08)">
<use xlink:href="#as"/>
</g>
</g>
<path d="m286.86 266.99 3.8457 3.8935q1.6865 1.7075 3.394 0.020978l5.5085-5.4408q1.7075-1.6865 0.020978-3.394l-3.8457-3.8935q-1.6865-1.7075-3.394-0.020978l-5.5085 5.4408q-1.7075 1.6865-0.020979 3.394z" clip-path="url(#a)" fill="#fff" stroke="#fff"/>
<g clip-path="url(#a)">
<g transform="translate(289.75 264.14) rotate(45.354) scale(.08 -.08)">
<use xlink:href="#u"/>
</g>
</g>
<path d="m167.36 552.45 0.92421-5.3939q0.40532-2.3655-1.9602-2.7708l-7.6313-1.3076q-2.3655-0.40532-2.7708 1.9602l-0.92421 5.3939q-0.40532 2.3655 1.9602 2.7708l7.6313 1.3076q2.3655 0.40532 2.7708-1.9602z" clip-path="url(#a)" fill="#fff" stroke="#fff"/>
<g clip-path="url(#a)">
<g transform="translate(163.36 551.76) rotate(-80.277) scale(.08 -.08)">
<use xlink:href="#u"/>
</g>
</g>
<path d="m1299.1 624.81 1.7413-5.1881q0.76365-2.2753-1.5116-3.0389l-7.3401-2.4636q-2.2753-0.76365-3.0389 1.5116l-1.7413 5.1881q-0.76365 2.2753 1.5116 3.0389l7.3401 2.4636q2.2753 0.76365 3.0389-1.5116z" clip-path="url(#a)" fill="#fff" stroke="#fff"/>
<g clip-path="url(#a)">
<g transform="translate(1295.2 623.52) rotate(-71.447) scale(.08 -.08)">
<use xlink:href="#u"/>
</g>
</g>
<path d="m1334.2 623.79 0.9637-4.4992q0.50266-2.3468-1.8441-2.8494l-7.5708-1.6216q-2.3468-0.50266-2.8494 1.8441l-0.9637 4.4992q-0.50266 2.3468 1.8441 2.8494l7.5708 1.6216q2.3468 0.50266 2.8494-1.8441z" clip-path="url(#a)" fill="#fff" stroke="#fff"/>
<g clip-path="url(#a)">
<defs>
<path id="at" d="m9.8125 72.906h41.891v-8.3125h-32.031v-21.484h28.906v-8.2969h-28.906v-34.812h-9.8594z"/>
</defs>
<g transform="translate(1330.2 622.93) rotate(-77.91) scale(.08 -.08)">
<use xlink:href="#at"/>
</g>
</g>
<path d="m1370.1 623.31 0.45061-5.0587q0.21294-2.3905-2.1776-2.6035l-7.712-0.68696q-2.3905-0.21294-2.6035 2.1776l-0.45061 5.0587q-0.21294 2.3905 2.1776 2.6035l7.712 0.68695q2.3905 0.21294 2.6035-2.1776z" clip-path="url(#a)" fill="#fff" stroke="#fff"/>
<g clip-path="url(#a)">
<g transform="translate(1366.1 622.95) rotate(-84.91) scale(.08 -.08)">
<use xlink:href="#as"/>
</g>
</g>
<path d="m1566.1 412.29 5.0929 2.0026q2.2335 0.87826 3.1118-1.3553l2.8333-7.2055q0.87826-2.2335-1.3553-3.1118l-5.0929-2.0026q-2.2335-0.87826-3.1118 1.3553l-2.8333 7.2055q-0.87826 2.2335 1.3553 3.1118z" clip-path="url(#a)" fill="#fff" stroke="#fff"/>
<g clip-path="url(#a)">
<g transform="translate(1567.6 408.51) rotate(21.466) scale(.08 -.08)">
<use xlink:href="#u"/>
</g>
</g>
<path d="m1192.4 957.11v33.808q0 2.4 2.4 2.4h7.7425q2.4 0 2.4-2.4v-33.808q0-2.4-2.4-2.4h-7.7425q-2.4 0-2.4 2.4z" clip-path="url(#a)" fill="#fff" stroke="#fff"/>
<g clip-path="url(#a)">
<g transform="translate(1196.4 957.11) rotate(90) scale(.08 -.08)">
<use xlink:href="#i"/>
<use x="44.083984" xlink:href="#g"/>
<use x="105.607422" xlink:href="#h"/>
<use x="144.970703" xlink:href="#l"/>
<use x="242.382812" xlink:href="#f"/>
<use x="270.166016" xlink:href="#k"/>
<use x="333.544922" xlink:href="#e"/>
<use x="394.824219" xlink:href="#j"/>
</g>
</g>
<path d="m1261.4 957.11v33.808q0 2.4 2.4 2.4h7.7425q2.4 0 2.4-2.4v-33.808q0-2.4-2.4-2.4h-7.7425q-2.4 0-2.4 2.4z" clip-path="url(#a)" fill="#fff" stroke="#fff"/>
<g clip-path="url(#a)">
<g transform="translate(1265.5 957.11) rotate(90) scale(.08 -.08)">
<use xlink:href="#i"/>
<use x="44.083984" xlink:href="#g"/>
<use x="105.607422" xlink:href="#h"/>
<use x="144.970703" xlink:href="#l"/>
<use x="242.382812" xlink:href="#f"/>
<use x="270.166016" xlink:href="#k"/>
<use x="333.544922" xlink:href="#e"/>
<use x="394.824219" xlink:href="#j"/>
</g>
</g>
<path d="m1332.5 957.11v33.808q0 2.4 2.4 2.4h7.7425q2.4 0 2.4-2.4v-33.808q0-2.4-2.4-2.4h-7.7425q-2.4 0-2.4 2.4z" clip-path="url(#a)" fill="#fff" stroke="#fff"/>
<g clip-path="url(#a)">
<g transform="translate(1336.6 957.11) rotate(90) scale(.08 -.08)">
<use xlink:href="#i"/>
<use x="44.083984" xlink:href="#g"/>
<use x="105.607422" xlink:href="#h"/>
<use x="144.970703" xlink:href="#l"/>
<use x="242.382812" xlink:href="#f"/>
<use x="270.166016" xlink:href="#k"/>
<use x="333.544922" xlink:href="#e"/>
<use x="394.824219" xlink:href="#j"/>
</g>
</g>
<path d="m1585.4 697.7 3.4731-4.3402q1.4995-1.8739-0.37438-3.3734l-6.0452-4.8375q-1.8739-1.4995-3.3734 0.37438l-3.4731 4.3402q-1.4995 1.8739 0.37438 3.3734l6.0452 4.8375q1.8739 1.4995 3.3734-0.37438z" clip-path="url(#a)" fill="#fff" stroke="#fff"/>
<g clip-path="url(#a)">
<defs>
<path id="ag" d="m44.391 34.188q3.1719-1.0781 6.1719-4.5938t6.0312-9.6719l10.016-19.922h-10.609l-9.3125 18.703q-3.625 7.3281-7.0156 9.7188t-9.25 2.3906h-10.75v-30.812h-9.8594v72.906h22.266q12.5 0 18.656-5.2344 6.1562-5.2188 6.1562-15.766 0-6.8906-3.2031-11.438-3.2031-4.5312-9.2969-6.2812zm-24.719 30.609v-25.875h12.406q7.125 0 10.766 3.2969t3.6406 9.6875-3.6406 9.6406-10.766 3.25z"/>
</defs>
<g transform="translate(1582.2 695.16) rotate(-51.333) scale(.08 -.08)">
<use xlink:href="#ag"/>
</g>
</g>
<path d="m1741.8 553.91 1.1236-4.9285q0.53347-2.34-1.8065-2.8734l-7.5488-1.721q-2.34-0.53347-2.8734 1.8065l-1.1236 4.9285q-0.53347 2.34 1.8065 2.8734l7.5488 1.721q2.34 0.53347 2.8734-1.8065z" clip-path="url(#a)" fill="#fff" stroke="#fff"/>
<g clip-path="url(#a)">
<defs>
<path id="ab" d="m9.8125 72.906h46.094v-8.3125h-36.234v-21.578h34.719v-8.2969h-34.719v-26.422h37.109v-8.2969h-46.969z"/>
</defs>
<g transform="translate(1737.9 553) rotate(-77.157) scale(.08 -.08)">
<use xlink:href="#ab"/>
</g>
</g>
<path d="m1817 690.95 1.7747 5.2968q0.76246 2.2757 3.0381 1.5132l7.3414-2.4597q2.2757-0.76246 1.5132-3.0381l-1.7747-5.2968q-0.76246-2.2757-3.0381-1.5132l-7.3414 2.4597q-2.2757 0.76246-1.5132 3.0381z" clip-path="url(#a)" fill="#fff" stroke="#fff"/>
<g clip-path="url(#a)">
<defs>
<path id="m" d="m64.406 67.281v-10.391q-4.9844 4.6406-10.625 6.9219-5.6406 2.2969-11.984 2.2969-12.5 0-19.141-7.6406t-6.6406-22.094q0-14.406 6.6406-22.047t19.141-7.6406q6.3438 0 11.984 2.2969t10.625 6.9375v-10.312q-5.1719-3.5156-10.969-5.2812-5.7812-1.75-12.219-1.75-16.562 0-26.094 10.125-9.5156 10.141-9.5156 27.672 0 17.578 9.5156 27.703 9.5312 10.141 26.094 10.141 6.5312 0 12.312-1.7344 5.7969-1.7344 10.875-5.2031z"/>
</defs>
<g transform="translate(1820.8 689.66) rotate(71.477) scale(.08 -.08)">
<use xlink:href="#m"/>
</g>
</g>
<path d="m1860.8 692.02 2.7878 5.1487q1.1427 2.1105 3.2532 0.96774l6.8085-3.6865q2.1105-1.1427 0.96774-3.2532l-2.7878-5.1487q-1.1427-2.1105-3.2532-0.96774l-6.8085 3.6865q-2.1105 1.1427-0.96774 3.2532z" clip-path="url(#a)" fill="#fff" stroke="#fff"/>
<g clip-path="url(#a)">
<g transform="translate(1864.4 690.09) rotate(61.566) scale(.08 -.08)">
<use xlink:href="#t"/>
</g>
</g>
<path d="m1405.7 957.11v33.808q0 2.4 2.4 2.4h7.7425q2.4 0 2.4-2.4v-33.808q0-2.4-2.4-2.4h-7.7425q-2.4 0-2.4 2.4z" clip-path="url(#a)" fill="#fff" stroke="#fff"/>
<g clip-path="url(#a)">
<g transform="translate(1409.8 957.11) rotate(90) scale(.08 -.08)">
<use xlink:href="#i"/>
<use x="44.083984" xlink:href="#g"/>
<use x="105.607422" xlink:href="#h"/>
<use x="144.970703" xlink:href="#l"/>
<use x="242.382812" xlink:href="#f"/>
<use x="270.166016" xlink:href="#k"/>
<use x="333.544922" xlink:href="#e"/>
<use x="394.824219" xlink:href="#j"/>
</g>
</g>
<path d="m1800.8 763.79 2.8778 4.6547q1.2621 2.0414 3.3034 0.77926l6.5855-4.0716q2.0414-1.2621 0.77926-3.3034l-2.8778-4.6547q-1.2621-2.0414-3.3034-0.77926l-6.5855 4.0716q-2.0414 1.2621-0.77926 3.3034z" clip-path="url(#a)" fill="#fff" stroke="#fff"/>
<g clip-path="url(#a)">
<g transform="translate(1804.2 761.65) rotate(58.273) scale(.08 -.08)">
<use xlink:href="#u"/>
</g>
</g>
<path d="m1624.5 698.9 4.4173-3.2305q1.9372-1.4167 0.52049-3.354l-4.5705-6.2496q-1.4167-1.9372-3.354-0.52049l-4.4173 3.2305q-1.9372 1.4167-0.52049 3.354l4.5705 6.2496q1.4167 1.9372 3.354 0.52049z" clip-path="url(#a)" fill="#fff" stroke="#fff"/>
<g clip-path="url(#a)">
<g transform="translate(1622.1 695.62) rotate(-36.179) scale(.08 -.08)">
<use xlink:href="#u"/>
</g>
</g>
<path d="m1687.3 767.42 1.5954-5.9498q0.62157-2.3181-1.6965-2.9397l-7.4783-2.0052q-2.3181-0.62157-2.9397 1.6965l-1.5954 5.9498q-0.62157 2.3181 1.6965 2.9397l7.4783 2.0052q2.3181 0.62157 2.9397-1.6965z" clip-path="url(#a)" fill="#fff" stroke="#fff"/>
<g clip-path="url(#a)">
<defs>
<path id="aw" d="m19.672 64.797v-56.688h11.922q15.094 0 22.094 6.8281 7 6.8438 7 21.594 0 14.641-7 21.453t-22.094 6.8125zm-9.8594 8.1094h20.266q21.188 0 31.094-8.8125 9.9219-8.8125 9.9219-27.562 0-18.859-9.9688-27.703-9.9531-8.8281-31.047-8.8281h-20.266z"/>
</defs>
<g transform="translate(1683.4 766.37) rotate(-74.99) scale(.08 -.08)">
<use xlink:href="#aw"/>
</g>
</g>
<path d="m1758 762.41 1.451 4.6003q0.72192 2.2888 3.0108 1.5669l7.3839-2.329q2.2888-0.72192 1.5669-3.0108l-1.451-4.6003q-0.72192-2.2888-3.0108-1.5669l-7.3839 2.329q-2.2888 0.72192-1.5669 3.0108z" clip-path="url(#a)" fill="#fff" stroke="#fff"/>
<g clip-path="url(#a)">
<g transform="translate(1761.8 761.18) rotate(72.494) scale(.08 -.08)">
<use xlink:href="#z"/>
</g>
</g>
<path d="m1716.5 760.02 0.11675 5.8538q0.047856 2.3995 2.4474 2.3517l7.741-0.15438q2.3995-0.047856 2.3517-2.4474l-0.11675-5.8538q-0.047856-2.3995-2.4474-2.3517l-7.741 0.15438q-2.3995 0.047856-2.3517 2.4474z" clip-path="url(#a)" fill="#fff" stroke="#fff"/>
<g clip-path="url(#a)">
<g transform="translate(1720.6 759.94) rotate(88.857) scale(.08 -.08)">
<use xlink:href="#t"/>
</g>
</g>
<path d="m1888.8 957.11v33.808q0 2.4 2.4 2.4h7.7425q2.4 0 2.4-2.4v-33.808q0-2.4-2.4-2.4h-7.7425q-2.4 0-2.4 2.4z" clip-path="url(#a)" fill="#fff" stroke="#fff"/>
<g clip-path="url(#a)">
<g transform="translate(1892.9 957.11) rotate(90) scale(.08 -.08)">
<use xlink:href="#i"/>
<use x="44.083984" xlink:href="#g"/>
<use x="105.607422" xlink:href="#h"/>
<use x="144.970703" xlink:href="#l"/>
<use x="242.382812" xlink:href="#f"/>
<use x="270.166016" xlink:href="#k"/>
<use x="333.544922" xlink:href="#e"/>
<use x="394.824219" xlink:href="#j"/>
</g>
</g>
<path d="m1511.9 838.14 1.4763-5.3876q0.63427-2.3147-1.6804-2.9489l-7.4672-2.0462q-2.3147-0.63427-2.9489 1.6804l-1.4763 5.3876q-0.63427 2.3147 1.6804 2.9489l7.4672 2.0462q2.3147 0.63427 2.9489-1.6804z" clip-path="url(#a)" fill="#fff" stroke="#fff"/>
<g clip-path="url(#a)">
<g transform="translate(1508 837.06) rotate(-74.676) scale(.08 -.08)">
<use xlink:href="#m"/>
</g>
</g>
<path d="m1538.5 832.76 1.4691 5.3611q0.63427 2.3147 2.9489 1.6804l7.4672-2.0462q2.3147-0.63427 1.6804-2.9489l-1.4691-5.3611q-0.63427-2.3147-2.9489-1.6804l-7.4672 2.0462q-2.3147 0.63427-1.6804 2.9489z" clip-path="url(#a)" fill="#fff" stroke="#fff"/>
<g clip-path="url(#a)">
<g transform="translate(1542.4 831.69) rotate(74.676) scale(.08 -.08)">
<use xlink:href="#ag"/>
</g>
</g>
<path d="m1637.8 957.11v33.808q0 2.4 2.4 2.4h7.7425q2.4 0 2.4-2.4v-33.808q0-2.4-2.4-2.4h-7.7425q-2.4 0-2.4 2.4z" clip-path="url(#a)" fill="#fff" stroke="#fff"/>
<g clip-path="url(#a)">
<g transform="translate(1641.9 957.11) rotate(90) scale(.08 -.08)">
<use xlink:href="#i"/>
<use x="44.083984" xlink:href="#g"/>
<use x="105.607422" xlink:href="#h"/>
<use x="144.970703" xlink:href="#l"/>
<use x="242.382812" xlink:href="#f"/>
<use x="270.166016" xlink:href="#k"/>
<use x="333.544922" xlink:href="#e"/>
<use x="394.824219" xlink:href="#j"/>
</g>
</g>
<path d="m1803.1 957.11v33.808q0 2.4 2.4 2.4h7.7425q2.4 0 2.4-2.4v-33.808q0-2.4-2.4-2.4h-7.7425q-2.4 0-2.4 2.4z" clip-path="url(#a)" fill="#fff" stroke="#fff"/>
<g clip-path="url(#a)">
<g transform="translate(1807.1 957.11) rotate(90) scale(.08 -.08)">
<use xlink:href="#i"/>
<use x="44.083984" xlink:href="#g"/>
<use x="105.607422" xlink:href="#h"/>
<use x="144.970703" xlink:href="#l"/>
<use x="242.382812" xlink:href="#f"/>
<use x="270.166016" xlink:href="#k"/>
<use x="333.544922" xlink:href="#e"/>
<use x="394.824219" xlink:href="#j"/>
</g>
</g>
<path d="m1481 957.11v33.808q0 2.4 2.4 2.4h7.7425q2.4 0 2.4-2.4v-33.808q0-2.4-2.4-2.4h-7.7425q-2.4 0-2.4 2.4z" clip-path="url(#a)" fill="#fff" stroke="#fff"/>
<g clip-path="url(#a)">
<g transform="translate(1485.1 957.11) rotate(90) scale(.08 -.08)">
<use xlink:href="#i"/>
<use x="44.083984" xlink:href="#g"/>
<use x="105.607422" xlink:href="#h"/>
<use x="144.970703" xlink:href="#l"/>
<use x="242.382812" xlink:href="#f"/>
<use x="270.166016" xlink:href="#k"/>
<use x="333.544922" xlink:href="#e"/>
<use x="394.824219" xlink:href="#j"/>
</g>
</g>
<path d="m1558.4 957.11v33.808q0 2.4 2.4 2.4h7.7425q2.4 0 2.4-2.4v-33.808q0-2.4-2.4-2.4h-7.7425q-2.4 0-2.4 2.4z" clip-path="url(#a)" fill="#fff" stroke="#fff"/>
<g clip-path="url(#a)">
<g transform="translate(1562.4 957.11) rotate(90) scale(.08 -.08)">
<use xlink:href="#i"/>
<use x="44.083984" xlink:href="#g"/>
<use x="105.607422" xlink:href="#h"/>
<use x="144.970703" xlink:href="#l"/>
<use x="242.382812" xlink:href="#f"/>
<use x="270.166016" xlink:href="#k"/>
<use x="333.544922" xlink:href="#e"/>
<use x="394.824219" xlink:href="#j"/>
</g>
</g>
<path d="m196.9 957.11v33.808q0 2.4 2.4 2.4h7.7425q2.4 0 2.4-2.4v-33.808q0-2.4-2.4-2.4h-7.7425q-2.4 0-2.4 2.4z" clip-path="url(#a)" fill="#fff" stroke="#fff"/>
<g clip-path="url(#a)">
<g transform="translate(200.97 957.11) rotate(90) scale(.08 -.08)">
<use xlink:href="#i"/>
<use x="44.083984" xlink:href="#g"/>
<use x="105.607422" xlink:href="#h"/>
<use x="144.970703" xlink:href="#l"/>
<use x="242.382812" xlink:href="#f"/>
<use x="270.166016" xlink:href="#k"/>
<use x="333.544922" xlink:href="#e"/>
<use x="394.824219" xlink:href="#j"/>
</g>
</g>
<path d="m300.48 624.4 1.3091-5.4024q0.56522-2.3325-1.7673-2.8977l-7.5247-1.8234q-2.3325-0.56522-2.8977 1.7673l-1.3091 5.4024q-0.56522 2.3325 1.7673 2.8977l7.5247 1.8234q2.3325 0.56522 2.8977-1.7673z" clip-path="url(#a)" fill="#fff" stroke="#fff"/>
<g clip-path="url(#a)">
<g transform="translate(296.53 623.44) rotate(-76.378) scale(.08 -.08)">
<use xlink:href="#ag"/>
</g>
</g>
<path d="m319.92 553.51 1.1417-4.9244q0.54205-2.338-1.7959-2.88l-7.5424-1.7487q-2.338-0.54205-2.88 1.7959l-1.1417 4.9244q-0.54205 2.338 1.7959 2.88l7.5424 1.7487q2.338 0.54205 2.88-1.7959z" clip-path="url(#a)" fill="#fff" stroke="#fff"/>
<g clip-path="url(#a)">
<g transform="translate(315.96 552.59) rotate(-76.947) scale(.08 -.08)">
<use xlink:href="#ab"/>
</g>
</g>
<path d="m476.64 411.38 4.7836 2.8849q2.0552 1.2394 3.2946-0.81573l3.9985-6.6301q1.2394-2.0552-0.81573-3.2946l-4.7836-2.8849q-2.0552-1.2394-3.2946 0.81573l-3.9985 6.6301q-1.2394 2.0552 0.81573 3.2946z" clip-path="url(#a)" fill="#fff" stroke="#fff"/>
<g clip-path="url(#a)">
<g transform="translate(478.74 407.9) rotate(31.094) scale(.08 -.08)">
<use xlink:href="#m"/>
</g>
</g>
<path d="m219.91 957.11v33.808q0 2.4 2.4 2.4h7.7425q2.4 0 2.4-2.4v-33.808q0-2.4-2.4-2.4h-7.7425q-2.4 0-2.4 2.4z" clip-path="url(#a)" fill="#fff" stroke="#fff"/>
<g clip-path="url(#a)">
<g transform="translate(223.97 957.11) rotate(90) scale(.08 -.08)">
<use xlink:href="#i"/>
<use x="44.083984" xlink:href="#g"/>
<use x="105.607422" xlink:href="#h"/>
<use x="144.970703" xlink:href="#l"/>
<use x="242.382812" xlink:href="#f"/>
<use x="270.166016" xlink:href="#k"/>
<use x="333.544922" xlink:href="#e"/>
<use x="394.824219" xlink:href="#j"/>
</g>
</g>
<path d="m264.07 836.9 0.48445-5.0317q0.23-2.389-2.1589-2.619l-7.7069-0.742q-2.389-0.23-2.619 2.1589l-0.48445 5.0317q-0.23 2.389 2.1589 2.619l7.7069 0.742q2.389 0.23 2.619-2.1589z" clip-path="url(#a)" fill="#fff" stroke="#fff"/>
<g clip-path="url(#a)">
<g transform="translate(260.03 836.51) rotate(-84.501) scale(.08 -.08)">
<use xlink:href="#ab"/>
</g>
</g>
<path d="m265.16 831.61 0.53536 5.5605q0.23 2.389 2.619 2.1589l7.7069-0.742q2.389-0.23 2.1589-2.619l-0.53536-5.5605q-0.23-2.389-2.619-2.1589l-7.7069 0.742q-2.389 0.23-2.1589 2.619z" clip-path="url(#a)" fill="#fff" stroke="#fff"/>
<g clip-path="url(#a)">
<g transform="translate(269.2 831.22) rotate(84.501) scale(.08 -.08)">
<use xlink:href="#m"/>
</g>
</g>
<path d="m465.26 556.9 4.9475-2.5939q2.1256-1.1144 1.0112-3.24l-3.5952-6.8572q-1.1144-2.1256-3.24-1.0112l-4.9475 2.5939q-2.1256 1.1144-1.0112 3.24l3.5952 6.8572q1.1144 2.1256 3.24 1.0112z" clip-path="url(#a)" fill="#fff" stroke="#fff"/>
<g clip-path="url(#a)">
<g transform="translate(463.37 553.3) rotate(-27.668) scale(.08 -.08)">
<use xlink:href="#m"/>
</g>
</g>
<path d="m579.55 554.82 1.9174-5.2469q0.82377-2.2542-1.4304-3.078l-7.2721-2.6575q-2.2542-0.82377-3.078 1.4304l-1.9174 5.2469q-0.82377 2.2542 1.4304 3.078l7.2721 2.6575q2.2542 0.82377 3.078-1.4304z" clip-path="url(#a)" fill="#fff" stroke="#fff"/>
<g clip-path="url(#a)">
<g transform="translate(575.73 553.43) rotate(-69.926) scale(.08 -.08)">
<use xlink:href="#m"/>
</g>
</g>
<path d="m679.39 691.18 2.2359 5.5517q0.89659 2.2262 3.1228 1.3296l7.1819-2.8924q2.2262-0.89659 1.3296-3.1228l-2.2359-5.5517q-0.89659-2.2262-3.1228-1.3296l-7.1819 2.8924q-2.2262 0.89659-1.3296 3.1228z" clip-path="url(#a)" fill="#fff" stroke="#fff"/>
<g clip-path="url(#a)">
<defs>
<path id="av" d="m9.8125 72.906h13.281l32.328-60.984v60.984h9.5625v-72.906h-13.281l-32.312 60.984v-60.984h-9.5781z"/>
</defs>
<g transform="translate(683.16 689.66) rotate(68.063) scale(.08 -.08)">
<use xlink:href="#av"/>
</g>
</g>
<path d="m749.22 554.57 5.069 2.3477q2.1778 1.0086 3.1864-1.1691l3.2539-7.0256q1.0086-2.1778-1.1691-3.1864l-5.069-2.3477q-2.1778-1.0086-3.1864 1.1691l-3.2539 7.0256q-1.0086 2.1778 1.1691 3.1864z" clip-path="url(#a)" fill="#fff" stroke="#fff"/>
<g clip-path="url(#a)">
<g transform="translate(750.92 550.88) rotate(24.851) scale(.08 -.08)">
<use xlink:href="#m"/>
</g>
</g>
<path d="m509.96 696.84 2.3915-5.3443q0.98028-2.1907-1.2104-3.171l-7.0672-3.1624q-2.1907-0.98028-3.171 1.2104l-2.3915 5.3443q-0.98028 2.1907 1.2104 3.171l7.0672 3.1624q2.1907 0.98028 3.171-1.2104z" clip-path="url(#a)" fill="#fff" stroke="#fff"/>
<g clip-path="url(#a)">
<g transform="translate(506.25 695.18) rotate(-65.892) scale(.08 -.08)">
<use xlink:href="#t"/>
</g>
</g>
<path d="m529.16 696.49 1.9784-5.5106q0.81096-2.2588-1.4479-3.0698l-7.2871-2.6162q-2.2588-0.81096-3.0698 1.4479l-1.9784 5.5106q-0.81096 2.2588 1.4479 3.0698l7.2871 2.6162q2.2588 0.81096 3.0698-1.4479z" clip-path="url(#a)" fill="#fff" stroke="#fff"/>
<g clip-path="url(#a)">
<g transform="translate(525.34 695.11) rotate(-70.251) scale(.08 -.08)">
<use xlink:href="#t"/>
</g>
</g>
<path d="m628.43 689.72 0.93588 5.7797q0.38362 2.3691 2.7528 1.9855l7.643-1.2376q2.3691-0.38362 1.9855-2.7528l-0.93588-5.7797q-0.38362-2.3691-2.7528-1.9855l-7.643 1.2376q-2.3691 0.38362-1.9855 2.7528z" clip-path="url(#a)" fill="#fff" stroke="#fff"/>
<g clip-path="url(#a)">
<g transform="translate(632.44 689.07) rotate(80.802) scale(.08 -.08)">
<use xlink:href="#t"/>
</g>
</g>
<path d="m653.36 690.48 1.578 5.6383q0.64684 2.3112 2.958 1.6643l7.456-2.0867q2.3112-0.64684 1.6643-2.958l-1.578-5.6383q-0.64684-2.3112-2.958-1.6643l-7.456 2.0867q-2.3112 0.64684-1.6643 2.958z" clip-path="url(#a)" fill="#fff" stroke="#fff"/>
<g clip-path="url(#a)">
<g transform="translate(657.27 689.39) rotate(74.364) scale(.08 -.08)">
<use xlink:href="#t"/>
</g>
</g>
<path d="m324.42 766.07 0.41834-5.5706q0.17973-2.3933-2.2135-2.573l-7.7208-0.57981q-2.3933-0.17973-2.573 2.2135l-0.41834 5.5706q-0.17973 2.3933 2.2135 2.573l7.7208 0.57981q2.3933 0.17973 2.573-2.2135z" clip-path="url(#a)" fill="#fff" stroke="#fff"/>
<g clip-path="url(#a)">
<g transform="translate(320.36 765.77) rotate(-85.705) scale(.08 -.08)">
<use xlink:href="#m"/>
</g>
</g>
<path d="m328.13 690.19 0.39603 5.0395q0.18802 2.3926 2.5806 2.2046l7.7187-0.60658q2.3926-0.18803 2.2046-2.5806l-0.39603-5.0395q-0.18802-2.3926-2.5806-2.2046l-7.7187 0.60658q-2.3926 0.18803-2.2046 2.5806z" clip-path="url(#a)" fill="#fff" stroke="#fff"/>
<g clip-path="url(#a)">
<g transform="translate(332.18 689.88) rotate(85.507) scale(.08 -.08)">
<use xlink:href="#ab"/>
</g>
</g>
<path d="m327.69 760.12 0.2089 5.8513q0.085631 2.3985 2.4841 2.3128l7.7376-0.27625q2.3985-0.085631 2.3128-2.4841l-0.2089-5.8513q-0.085631-2.3985-2.4841-2.3128l-7.7376 0.27625q-2.3985 0.08563-2.3128 2.4841z" clip-path="url(#a)" fill="#fff" stroke="#fff"/>
<g clip-path="url(#a)">
<g transform="translate(331.75 759.97) rotate(87.955) scale(.08 -.08)">
<use xlink:href="#t"/>
</g>
</g>
<path d="m534.37 766.46 0.78308-5.5311q0.33643-2.3763-2.0399-2.7127l-7.6661-1.0853q-2.3763-0.33643-2.7127 2.0399l-0.78308 5.5311q-0.33643 2.3763 2.0399 2.7127l7.6661 1.0853q2.3763 0.33643 2.7127-2.0399z" clip-path="url(#a)" fill="#fff" stroke="#fff"/>
<g clip-path="url(#a)">
<g transform="translate(530.35 765.89) rotate(-81.942) scale(.08 -.08)">
<use xlink:href="#m"/>
</g>
</g>
<path d="m549.76 690.38 0.54306 5.0257q0.25783 2.3861 2.6439 2.1283l7.6977-0.83177q2.3861-0.25783 2.1283-2.6439l-0.54306-5.0257q-0.25783-2.3861-2.6439-2.1283l-7.6977 0.83177q-2.3861 0.25783-2.1283 2.6439z" clip-path="url(#a)" fill="#fff" stroke="#fff"/>
<g clip-path="url(#a)">
<g transform="translate(553.8 689.95) rotate(83.833) scale(.08 -.08)">
<use xlink:href="#ab"/>
</g>
</g>
<path d="m554.47 760.45 0.50983 5.8328q0.20898 2.3909 2.5999 2.1819l7.7131-0.67419q2.3909-0.20898 2.1819-2.5999l-0.50983-5.8328q-0.20898-2.3909-2.5999-2.1819l-7.7131 0.67419q-2.3909 0.20898-2.1819 2.5999z" clip-path="url(#a)" fill="#fff" stroke="#fff"/>
<g clip-path="url(#a)">
<g transform="translate(558.51 760.09) rotate(85.005) scale(.08 -.08)">
<use xlink:href="#t"/>
</g>
</g>
<path d="m765.75 957.11v33.808q0 2.4 2.4 2.4h7.7425q2.4 0 2.4-2.4v-33.808q0-2.4-2.4-2.4h-7.7425q-2.4 0-2.4 2.4z" clip-path="url(#a)" fill="#fff" stroke="#fff"/>
<g clip-path="url(#a)">
<g transform="translate(769.81 957.11) rotate(90) scale(.08 -.08)">
<use xlink:href="#i"/>
<use x="44.083984" xlink:href="#g"/>
<use x="105.607422" xlink:href="#h"/>
<use x="144.970703" xlink:href="#l"/>
<use x="242.382812" xlink:href="#f"/>
<use x="270.166016" xlink:href="#k"/>
<use x="333.544922" xlink:href="#e"/>
<use x="394.824219" xlink:href="#j"/>
</g>
</g>
<path d="m887.02 766.73 1.0373-5.4891q0.44565-2.3583-1.9126-2.8039l-7.6078-1.4377q-2.3583-0.44565-2.8039 1.9126l-1.0373 5.4891q-0.44565 2.3583 1.9126 2.8039l7.6078 1.4377q2.3583 0.44565 2.8039-1.9126z" clip-path="url(#a)" fill="#fff" stroke="#fff"/>
<g clip-path="url(#a)">
<g transform="translate(883.03 765.97) rotate(-79.299) scale(.08 -.08)">
<use xlink:href="#m"/>
</g>
</g>
<path d="m911.68 690.6 0.71282 5.0045q0.33843 2.376 2.7144 2.0376l7.6651-1.0918q2.376-0.33843 2.0376-2.7144l-0.71282-5.0045q-0.33843-2.376-2.7144-2.0376l-7.6651 1.0918q-2.376 0.33843-2.0376 2.7144z" clip-path="url(#a)" fill="#fff" stroke="#fff"/>
<g clip-path="url(#a)">
<g transform="translate(915.7 690.03) rotate(81.894) scale(.08 -.08)">
<use xlink:href="#ab"/>
</g>
</g>
<path d="m918.21 760.64 0.68367 5.8149q0.28024 2.3836 2.6638 2.1033l7.6895-0.90407q2.3836-0.28024 2.1033-2.6638l-0.68367-5.8149q-0.28024-2.3836-2.6638-2.1033l-7.6895 0.90407q-2.3836 0.28024-2.1033 2.6638z" clip-path="url(#a)" fill="#fff" stroke="#fff"/>
<g clip-path="url(#a)">
<g transform="translate(922.24 760.17) rotate(83.294) scale(.08 -.08)">
<use xlink:href="#t"/>
</g>
</g>
<path d="m843.3 991.82 6.7176-33.133q0.47688-2.3521-1.8753-2.829l-7.5881-1.5384q-2.3521-0.47688-2.829 1.8753l-6.7176 33.133q-0.47688 2.3521 1.8753 2.829l7.5881 1.5384q2.3521 0.47688 2.829-1.8753z" clip-path="url(#a)" fill="#fff" stroke="#fff"/>
<g clip-path="url(#a)">
<g transform="translate(839.32 991.01) rotate(-78.539) scale(.08 -.08)">
<use xlink:href="#i"/>
<use x="44.083984" xlink:href="#g"/>
<use x="105.607422" xlink:href="#h"/>
<use x="144.970703" xlink:href="#l"/>
<use x="242.382812" xlink:href="#f"/>
<use x="270.166016" xlink:href="#k"/>
<use x="333.544922" xlink:href="#e"/>
<use x="394.824219" xlink:href="#j"/>
</g>
</g>
<path d="m859.24 958.69 6.7176 33.133q0.47688 2.3521 2.829 1.8753l7.5881-1.5384q2.3521-0.47688 1.8753-2.829l-6.7176-33.133q-0.47688-2.3521-2.829-1.8753l-7.5881 1.5384q-2.3521 0.47688-1.8753 2.829z" clip-path="url(#a)" fill="#fff" stroke="#fff"/>
<g clip-path="url(#a)">
<g transform="translate(863.22 957.88) rotate(78.539) scale(.08 -.08)">
<use xlink:href="#i"/>
<use x="44.083984" xlink:href="#g"/>
<use x="105.607422" xlink:href="#h"/>
<use x="144.970703" xlink:href="#l"/>
<use x="242.382812" xlink:href="#f"/>
<use x="270.166016" xlink:href="#k"/>
<use x="333.544922" xlink:href="#e"/>
<use x="394.824219" xlink:href="#j"/>
</g>
</g>
<path d="m895.78 839.11 2.5329-4.8511q1.1108-2.1275-1.0167-3.2383l-6.8633-3.5835q-2.1275-1.1108-3.2383 1.0167l-2.5329 4.8511q-1.1108 2.1275 1.0167 3.2383l6.8633 3.5835q2.1275 1.1108 3.2383-1.0167z" clip-path="url(#a)" fill="#fff" stroke="#fff"/>
<g clip-path="url(#a)">
<g transform="translate(892.18 837.23) rotate(-62.43) scale(.08 -.08)">
<use xlink:href="#u"/>
</g>
</g>
<path d="m959.59 834.63 2.2819 4.2499q1.1353 2.1145 3.2498 0.97914l6.8214-3.6627q2.1145-1.1353 0.97914-3.2498l-2.2819-4.2499q-1.1353-2.1145-3.2498-0.97914l-6.8214 3.6627q-2.1145 1.1353-0.97914 3.2498z" clip-path="url(#a)" fill="#fff" stroke="#fff"/>
<g clip-path="url(#a)">
<g transform="translate(963.17 832.7) rotate(61.767) scale(.08 -.08)">
<use xlink:href="#z"/>
</g>
</g>
<path d="m958.52 834.52 2.2615 4.3314q1.1108 2.1275 3.2383 1.0167l6.8633-3.5835q2.1275-1.1108 1.0167-3.2383l-2.2615-4.3314q-1.1108-2.1275-3.2383-1.0167l-6.8633 3.5835q-2.1275 1.1108-1.0167 3.2383z" clip-path="url(#a)" fill="#fff" stroke="#fff"/>
<g clip-path="url(#a)">
<g transform="translate(962.12 832.64) rotate(62.43) scale(.08 -.08)">
<use xlink:href="#i"/>
</g>
</g>
<path d="m995.8 957.11v33.808q0 2.4 2.4 2.4h7.7425q2.4 0 2.4-2.4v-33.808q0-2.4-2.4-2.4h-7.7425q-2.4 0-2.4 2.4z" clip-path="url(#a)" fill="#fff" stroke="#fff"/>
<g clip-path="url(#a)">
<g transform="translate(999.86 957.11) rotate(90) scale(.08 -.08)">
<use xlink:href="#i"/>
<use x="44.083984" xlink:href="#g"/>
<use x="105.607422" xlink:href="#h"/>
<use x="144.970703" xlink:href="#l"/>
<use x="242.382812" xlink:href="#f"/>
<use x="270.166016" xlink:href="#k"/>
<use x="333.544922" xlink:href="#e"/>
<use x="394.824219" xlink:href="#j"/>
</g>
</g>
<path d="m501.75 991.66 5.0209-33.433q0.35644-2.3734-2.0169-2.7298l-7.6566-1.1499q-2.3734-0.35644-2.7298 2.0169l-5.0209 33.433q-0.35644 2.3734 2.0169 2.7298l7.6566 1.1499q2.3734 0.35644 2.7298-2.0169z" clip-path="url(#a)" fill="#fff" stroke="#fff"/>
<g clip-path="url(#a)">
<g transform="translate(497.73 991.05) rotate(-81.459) scale(.08 -.08)">
<use xlink:href="#i"/>
<use x="44.083984" xlink:href="#g"/>
<use x="105.607422" xlink:href="#h"/>
<use x="144.970703" xlink:href="#l"/>
<use x="242.382812" xlink:href="#f"/>
<use x="270.166016" xlink:href="#k"/>
<use x="333.544922" xlink:href="#e"/>
<use x="394.824219" xlink:href="#j"/>
</g>
</g>
<path d="m510.26 958.22 5.0209 33.433q0.35644 2.3734 2.7298 2.0169l7.6566-1.1499q2.3734-0.35644 2.0169-2.7298l-5.0209-33.433q-0.35644-2.3734-2.7298-2.0169l-7.6566 1.1499q-2.3734 0.35644-2.0169 2.7298z" clip-path="url(#a)" fill="#fff" stroke="#fff"/>
<g clip-path="url(#a)">
<g transform="translate(514.27 957.62) rotate(81.459) scale(.08 -.08)">
<use xlink:href="#i"/>
<use x="44.083984" xlink:href="#g"/>
<use x="105.607422" xlink:href="#h"/>
<use x="144.970703" xlink:href="#l"/>
<use x="242.382812" xlink:href="#f"/>
<use x="270.166016" xlink:href="#k"/>
<use x="333.544922" xlink:href="#e"/>
<use x="394.824219" xlink:href="#j"/>
</g>
</g>
<path d="m541.06 838.62 1.9995-5.0941q0.87691-2.2341-1.3571-3.111l-7.2072-2.829q-2.2341-0.87691-3.111 1.3571l-1.9995 5.0941q-0.87691 2.2341 1.3571 3.111l7.2072 2.829q2.2341 0.87691 3.111-1.3571z" clip-path="url(#a)" fill="#fff" stroke="#fff"/>
<g clip-path="url(#a)">
<g transform="translate(537.28 837.14) rotate(-68.569) scale(.08 -.08)">
<use xlink:href="#u"/>
</g>
</g>
<path d="m585.97 833.92 1.8197 4.4674q0.90537 2.2227 3.128 1.3173l7.1705-2.9208q2.2227-0.90537 1.3173-3.128l-1.8197-4.4674q-0.90537-2.2227-3.128-1.3173l-7.1705 2.9208q-2.2227 0.90537-1.3173 3.128z" clip-path="url(#a)" fill="#fff" stroke="#fff"/>
<g clip-path="url(#a)">
<g transform="translate(589.73 832.38) rotate(67.837) scale(.08 -.08)">
<use xlink:href="#z"/>
</g>
</g>
<path d="m584.91 833.8 1.7853 4.5484q0.87691 2.2341 3.111 1.3571l7.2072-2.829q2.2341-0.87691 1.3571-3.111l-1.7853-4.5484q-0.87691-2.2341-3.111-1.3571l-7.2072 2.829q-2.2341 0.87691-1.3571 3.111z" clip-path="url(#a)" fill="#fff" stroke="#fff"/>
<g clip-path="url(#a)">
<g transform="translate(588.69 832.32) rotate(68.569) scale(.08 -.08)">
<use xlink:href="#i"/>
</g>
</g>
<path d="m613.08 957.11v33.808q0 2.4 2.4 2.4h7.7425q2.4 0 2.4-2.4v-33.808q0-2.4-2.4-2.4h-7.7425q-2.4 0-2.4 2.4z" clip-path="url(#a)" fill="#fff" stroke="#fff"/>
<g clip-path="url(#a)">
<g transform="translate(617.14 957.11) rotate(90) scale(.08 -.08)">
<use xlink:href="#i"/>
<use x="44.083984" xlink:href="#g"/>
<use x="105.607422" xlink:href="#h"/>
<use x="144.970703" xlink:href="#l"/>
<use x="242.382812" xlink:href="#f"/>
<use x="270.166016" xlink:href="#k"/>
<use x="333.544922" xlink:href="#e"/>
<use x="394.824219" xlink:href="#j"/>
</g>
</g>
<path d="m301.47 957.11v33.808q0 2.4 2.4 2.4h7.7425q2.4 0 2.4-2.4v-33.808q0-2.4-2.4-2.4h-7.7425q-2.4 0-2.4 2.4z" clip-path="url(#a)" fill="#fff" stroke="#fff"/>
<g clip-path="url(#a)">
<g transform="translate(305.53 957.11) rotate(90) scale(.08 -.08)">
<use xlink:href="#i"/>
<use x="44.083984" xlink:href="#g"/>
<use x="105.607422" xlink:href="#h"/>
<use x="144.970703" xlink:href="#l"/>
<use x="242.382812" xlink:href="#f"/>
<use x="270.166016" xlink:href="#k"/>
<use x="333.544922" xlink:href="#e"/>
<use x="394.824219" xlink:href="#j"/>
</g>
</g>
<path d="m329.45 837.86 1.2246-5.3337q0.53704-2.3391-1.8021-2.8762l-7.5462-1.7325q-2.3391-0.53704-2.8762 1.8021l-1.2246 5.3337q-0.53704 2.3391 1.8021 2.8762l7.5462 1.7325q2.3391 0.53704 2.8762-1.8021z" clip-path="url(#a)" fill="#fff" stroke="#fff"/>
<g clip-path="url(#a)">
<g transform="translate(325.49 836.95) rotate(-77.07) scale(.08 -.08)">
<use xlink:href="#u"/>
</g>
</g>
<path d="m350.75 832.93 1.1452 4.6858q0.56979 2.3314 2.9012 1.7616l7.5211-1.8382q2.3314-0.56979 1.7616-2.9012l-1.1452-4.6858q-0.56979-2.3314-2.9012-1.7616l-7.5211 1.8382q-2.3314 0.56979-1.7616 2.9012z" clip-path="url(#a)" fill="#fff" stroke="#fff"/>
<g clip-path="url(#a)">
<g transform="translate(354.69 831.97) rotate(76.266) scale(.08 -.08)">
<use xlink:href="#z"/>
</g>
</g>
<path d="m349.71 832.81 1.0934 4.7624q0.53704 2.3391 2.8762 1.8021l7.5462-1.7325q2.3391-0.53704 1.8021-2.8762l-1.0934-4.7624q-0.53704-2.3391-2.8762-1.8021l-7.5462 1.7325q-2.3391 0.53704-1.8021 2.8762z" clip-path="url(#a)" fill="#fff" stroke="#fff"/>
<g clip-path="url(#a)">
<g transform="translate(353.67 831.9) rotate(77.07) scale(.08 -.08)">
<use xlink:href="#i"/>
</g>
</g>
<path d="m366.3 957.11v33.808q0 2.4 2.4 2.4h7.7425q2.4 0 2.4-2.4v-33.808q0-2.4-2.4-2.4h-7.7425q-2.4 0-2.4 2.4z" clip-path="url(#a)" fill="#fff" stroke="#fff"/>
<g clip-path="url(#a)">
<g transform="translate(370.37 957.11) rotate(90) scale(.08 -.08)">
<use xlink:href="#i"/>
<use x="44.083984" xlink:href="#g"/>
<use x="105.607422" xlink:href="#h"/>
<use x="144.970703" xlink:href="#l"/>
<use x="242.382812" xlink:href="#f"/>
<use x="270.166016" xlink:href="#k"/>
<use x="333.544922" xlink:href="#e"/>
<use x="394.824219" xlink:href="#j"/>
</g>
</g>
<path d="m245 957.11v33.808q0 2.4 2.4 2.4h7.7425q2.4 0 2.4-2.4v-33.808q0-2.4-2.4-2.4h-7.7425q-2.4 0-2.4 2.4z" clip-path="url(#a)" fill="#fff" stroke="#fff"/>
<g clip-path="url(#a)">
<g transform="translate(249.07 957.11) rotate(90) scale(.08 -.08)">
<use xlink:href="#i"/>
<use x="44.083984" xlink:href="#g"/>
<use x="105.607422" xlink:href="#h"/>
<use x="144.970703" xlink:href="#l"/>
<use x="242.382812" xlink:href="#f"/>
<use x="270.166016" xlink:href="#k"/>
<use x="333.544922" xlink:href="#e"/>
<use x="394.824219" xlink:href="#j"/>
</g>
</g>
<path d="m272.19 957.11v33.808q0 2.4 2.4 2.4h7.7425q2.4 0 2.4-2.4v-33.808q0-2.4-2.4-2.4h-7.7425q-2.4 0-2.4 2.4z" clip-path="url(#a)" fill="#fff" stroke="#fff"/>
<g clip-path="url(#a)">
<g transform="translate(276.26 957.11) rotate(90) scale(.08 -.08)">
<use xlink:href="#i"/>
<use x="44.083984" xlink:href="#g"/>
<use x="105.607422" xlink:href="#h"/>
<use x="144.970703" xlink:href="#l"/>
<use x="242.382812" xlink:href="#f"/>
<use x="270.166016" xlink:href="#k"/>
<use x="333.544922" xlink:href="#e"/>
<use x="394.824219" xlink:href="#j"/>
</g>
</g>
<path d="m94.427 957.11v33.808q0 2.4 2.4 2.4h7.7425q2.4 0 2.4-2.4v-33.808q0-2.4-2.4-2.4h-7.7425q-2.4 0-2.4 2.4z" clip-path="url(#a)" fill="#fff" stroke="#fff"/>
<g clip-path="url(#a)">
<g transform="translate(98.491 957.11) rotate(90) scale(.08 -.08)">
<use xlink:href="#i"/>
<use x="44.083984" xlink:href="#g"/>
<use x="105.607422" xlink:href="#h"/>
<use x="144.970703" xlink:href="#l"/>
<use x="242.382812" xlink:href="#f"/>
<use x="270.166016" xlink:href="#k"/>
<use x="333.544922" xlink:href="#e"/>
<use x="394.824219" xlink:href="#j"/>
</g>
</g>
<path d="m102.79 957.11v33.808q0 2.4 2.4 2.4h7.7425q2.4 0 2.4-2.4v-33.808q0-2.4-2.4-2.4h-7.7425q-2.4 0-2.4 2.4z" clip-path="url(#a)" fill="#fff" stroke="#fff"/>
<g clip-path="url(#a)">
<g transform="translate(106.86 957.11) rotate(90) scale(.08 -.08)">
<use xlink:href="#i"/>
<use x="44.083984" xlink:href="#g"/>
<use x="105.607422" xlink:href="#h"/>
<use x="144.970703" xlink:href="#l"/>
<use x="242.382812" xlink:href="#f"/>
<use x="270.166016" xlink:href="#k"/>
<use x="333.544922" xlink:href="#e"/>
<use x="394.824219" xlink:href="#j"/>
</g>
</g>
<path d="m128.8 836.84 0.24677-5.5533q0.10654-2.3976-2.2911-2.5042l-7.7349-0.34371q-2.3976-0.10654-2.5042 2.2911l-0.24677 5.5533q-0.10654 2.3976 2.2911 2.5042l7.7349 0.34371q2.3976 0.10654 2.5042-2.2911z" clip-path="url(#a)" fill="#fff" stroke="#fff"/>
<g clip-path="url(#a)">
<g transform="translate(124.74 836.66) rotate(-87.456) scale(.08 -.08)">
<use xlink:href="#ag"/>
</g>
</g>
<path d="m122.54 831.27 0.24799 5.5807q0.10654 2.3976 2.5042 2.2911l7.7349-0.34371q2.3976-0.10654 2.2911-2.5042l-0.24799-5.5807q-0.10654-2.3976-2.5042-2.2911l-7.7349 0.34371q-2.3976 0.10654-2.2911 2.5042z" clip-path="url(#a)" fill="#fff" stroke="#fff"/>
<g clip-path="url(#a)">
<g transform="translate(126.6 831.09) rotate(87.456) scale(.08 -.08)">
<use xlink:href="#m"/>
</g>
</g>
<path d="m156.99 836.93 0.32877-5.549q0.14195-2.3958-2.2539-2.5377l-7.7289-0.45793q-2.3958-0.14195-2.5377 2.2539l-0.32877 5.549q-0.14195 2.3958 2.2539 2.5377l7.7289 0.45793q2.3958 0.14195 2.5377-2.2539z" clip-path="url(#a)" fill="#fff" stroke="#fff"/>
<g clip-path="url(#a)">
<g transform="translate(152.93 836.69) rotate(-86.609) scale(.08 -.08)">
<use xlink:href="#ag"/>
</g>
</g>
<path d="m152.83 831.37 0.3304 5.5765q0.14195 2.3958 2.5377 2.2539l7.7289-0.45793q2.3958-0.14195 2.2539-2.5377l-0.3304-5.5765q-0.14195-2.3958-2.5377-2.2539l-7.7289 0.45793q-2.3958 0.14195-2.2539 2.5377z" clip-path="url(#a)" fill="#fff" stroke="#fff"/>
<g clip-path="url(#a)">
<g transform="translate(156.89 831.13) rotate(86.609) scale(.08 -.08)">
<use xlink:href="#m"/>
</g>
</g>
<path d="m140.44 957.11v33.808q0 2.4 2.4 2.4h7.7425q2.4 0 2.4-2.4v-33.808q0-2.4-2.4-2.4h-7.7425q-2.4 0-2.4 2.4z" clip-path="url(#a)" fill="#fff" stroke="#fff"/>
<g clip-path="url(#a)">
<g transform="translate(144.5 957.11) rotate(90) scale(.08 -.08)">
<use xlink:href="#i"/>
<use x="44.083984" xlink:href="#g"/>
<use x="105.607422" xlink:href="#h"/>
<use x="144.970703" xlink:href="#l"/>
<use x="242.382812" xlink:href="#f"/>
<use x="270.166016" xlink:href="#k"/>
<use x="333.544922" xlink:href="#e"/>
<use x="394.824219" xlink:href="#j"/>
</g>
</g>
<path d="m157.17 957.11v33.808q0 2.4 2.4 2.4h7.7425q2.4 0 2.4-2.4v-33.808q0-2.4-2.4-2.4h-7.7425q-2.4 0-2.4 2.4z" clip-path="url(#a)" fill="#fff" stroke="#fff"/>
<g clip-path="url(#a)">
<g transform="translate(161.23 957.11) rotate(90) scale(.08 -.08)">
<use xlink:href="#i"/>
<use x="44.083984" xlink:href="#g"/>
<use x="105.607422" xlink:href="#h"/>
<use x="144.970703" xlink:href="#l"/>
<use x="242.382812" xlink:href="#f"/>
<use x="270.166016" xlink:href="#k"/>
<use x="333.544922" xlink:href="#e"/>
<use x="394.824219" xlink:href="#j"/>
</g>
</g>
<path d="m113.25 957.11v33.808q0 2.4 2.4 2.4h7.7425q2.4 0 2.4-2.4v-33.808q0-2.4-2.4-2.4h-7.7425q-2.4 0-2.4 2.4z" clip-path="url(#a)" fill="#fff" stroke="#fff"/>
<g clip-path="url(#a)">
<g transform="translate(117.31 957.11) rotate(90) scale(.08 -.08)">
<use xlink:href="#i"/>
<use x="44.083984" xlink:href="#g"/>
<use x="105.607422" xlink:href="#h"/>
<use x="144.970703" xlink:href="#l"/>
<use x="242.382812" xlink:href="#f"/>
<use x="270.166016" xlink:href="#k"/>
<use x="333.544922" xlink:href="#e"/>
<use x="394.824219" xlink:href="#j"/>
</g>
</g>
<path d="m125.8 957.11v33.808q0 2.4 2.4 2.4h7.7425q2.4 0 2.4-2.4v-33.808q0-2.4-2.4-2.4h-7.7425q-2.4 0-2.4 2.4z" clip-path="url(#a)" fill="#fff" stroke="#fff"/>
<g clip-path="url(#a)">
<g transform="translate(129.86 957.11) rotate(90) scale(.08 -.08)">
<use xlink:href="#i"/>
<use x="44.083984" xlink:href="#g"/>
<use x="105.607422" xlink:href="#h"/>
<use x="144.970703" xlink:href="#l"/>
<use x="242.382812" xlink:href="#f"/>
<use x="270.166016" xlink:href="#k"/>
<use x="333.544922" xlink:href="#e"/>
<use x="394.824219" xlink:href="#j"/>
</g>
</g>
<path d="m332.84 957.11v33.808q0 2.4 2.4 2.4h7.7425q2.4 0 2.4-2.4v-33.808q0-2.4-2.4-2.4h-7.7425q-2.4 0-2.4 2.4z" clip-path="url(#a)" fill="#fff" stroke="#fff"/>
<g clip-path="url(#a)">
<g transform="translate(336.9 957.11) rotate(90) scale(.08 -.08)">
<use xlink:href="#i"/>
<use x="44.083984" xlink:href="#g"/>
<use x="105.607422" xlink:href="#h"/>
<use x="144.970703" xlink:href="#l"/>
<use x="242.382812" xlink:href="#f"/>
<use x="270.166016" xlink:href="#k"/>
<use x="333.544922" xlink:href="#e"/>
<use x="394.824219" xlink:href="#j"/>
</g>
</g>
<path d="m403.95 957.11v33.808q0 2.4 2.4 2.4h7.7425q2.4 0 2.4-2.4v-33.808q0-2.4-2.4-2.4h-7.7425q-2.4 0-2.4 2.4z" clip-path="url(#a)" fill="#fff" stroke="#fff"/>
<g clip-path="url(#a)">
<g transform="translate(408.01 957.11) rotate(90) scale(.08 -.08)">
<use xlink:href="#i"/>
<use x="44.083984" xlink:href="#g"/>
<use x="105.607422" xlink:href="#h"/>
<use x="144.970703" xlink:href="#l"/>
<use x="242.382812" xlink:href="#f"/>
<use x="270.166016" xlink:href="#k"/>
<use x="333.544922" xlink:href="#e"/>
<use x="394.824219" xlink:href="#j"/>
</g>
</g>
<path d="m441.59 957.11v33.808q0 2.4 2.4 2.4h7.7425q2.4 0 2.4-2.4v-33.808q0-2.4-2.4-2.4h-7.7425q-2.4 0-2.4 2.4z" clip-path="url(#a)" fill="#fff" stroke="#fff"/>
<g clip-path="url(#a)">
<g transform="translate(445.65 957.11) rotate(90) scale(.08 -.08)">
<use xlink:href="#i"/>
<use x="44.083984" xlink:href="#g"/>
<use x="105.607422" xlink:href="#h"/>
<use x="144.970703" xlink:href="#l"/>
<use x="242.382812" xlink:href="#f"/>
<use x="270.166016" xlink:href="#k"/>
<use x="333.544922" xlink:href="#e"/>
<use x="394.824219" xlink:href="#j"/>
</g>
</g>
<path d="m567.07 957.11v33.808q0 2.4 2.4 2.4h7.7425q2.4 0 2.4-2.4v-33.808q0-2.4-2.4-2.4h-7.7425q-2.4 0-2.4 2.4z" clip-path="url(#a)" fill="#fff" stroke="#fff"/>
<g clip-path="url(#a)">
<g transform="translate(571.13 957.11) rotate(90) scale(.08 -.08)">
<use xlink:href="#i"/>
<use x="44.083984" xlink:href="#g"/>
<use x="105.607422" xlink:href="#h"/>
<use x="144.970703" xlink:href="#l"/>
<use x="242.382812" xlink:href="#f"/>
<use x="270.166016" xlink:href="#k"/>
<use x="333.544922" xlink:href="#e"/>
<use x="394.824219" xlink:href="#j"/>
</g>
</g>
<path d="m663.27 957.11v33.808q0 2.4 2.4 2.4h7.7425q2.4 0 2.4-2.4v-33.808q0-2.4-2.4-2.4h-7.7425q-2.4 0-2.4 2.4z" clip-path="url(#a)" fill="#fff" stroke="#fff"/>
<g clip-path="url(#a)">
<g transform="translate(667.34 957.11) rotate(90) scale(.08 -.08)">
<use xlink:href="#i"/>
<use x="44.083984" xlink:href="#g"/>
<use x="105.607422" xlink:href="#h"/>
<use x="144.970703" xlink:href="#l"/>
<use x="242.382812" xlink:href="#f"/>
<use x="270.166016" xlink:href="#k"/>
<use x="333.544922" xlink:href="#e"/>
<use x="394.824219" xlink:href="#j"/>
</g>
</g>
<path d="m713.47 957.11v33.808q0 2.4 2.4 2.4h7.7425q2.4 0 2.4-2.4v-33.808q0-2.4-2.4-2.4h-7.7425q-2.4 0-2.4 2.4z" clip-path="url(#a)" fill="#fff" stroke="#fff"/>
<g clip-path="url(#a)">
<g transform="translate(717.53 957.11) rotate(90) scale(.08 -.08)">
<use xlink:href="#i"/>
<use x="44.083984" xlink:href="#g"/>
<use x="105.607422" xlink:href="#h"/>
<use x="144.970703" xlink:href="#l"/>
<use x="242.382812" xlink:href="#f"/>
<use x="270.166016" xlink:href="#k"/>
<use x="333.544922" xlink:href="#e"/>
<use x="394.824219" xlink:href="#j"/>
</g>
</g>
<path d="m935.15 957.11v33.808q0 2.4 2.4 2.4h7.7425q2.4 0 2.4-2.4v-33.808q0-2.4-2.4-2.4h-7.7425q-2.4 0-2.4 2.4z" clip-path="url(#a)" fill="#fff" stroke="#fff"/>
<g clip-path="url(#a)">
<g transform="translate(939.21 957.11) rotate(90) scale(.08 -.08)">
<use xlink:href="#i"/>
<use x="44.083984" xlink:href="#g"/>
<use x="105.607422" xlink:href="#h"/>
<use x="144.970703" xlink:href="#l"/>
<use x="242.382812" xlink:href="#f"/>
<use x="270.166016" xlink:href="#k"/>
<use x="333.544922" xlink:href="#e"/>
<use x="394.824219" xlink:href="#j"/>
</g>
</g>
<path d="m1060.6 957.11v33.808q0 2.4 2.4 2.4h7.7425q2.4 0 2.4-2.4v-33.808q0-2.4-2.4-2.4h-7.7425q-2.4 0-2.4 2.4z" clip-path="url(#a)" fill="#fff" stroke="#fff"/>
<g clip-path="url(#a)">
<g transform="translate(1064.7 957.11) rotate(90) scale(.08 -.08)">
<use xlink:href="#i"/>
<use x="44.083984" xlink:href="#g"/>
<use x="105.607422" xlink:href="#h"/>
<use x="144.970703" xlink:href="#l"/>
<use x="242.382812" xlink:href="#f"/>
<use x="270.166016" xlink:href="#k"/>
<use x="333.544922" xlink:href="#e"/>
<use x="394.824219" xlink:href="#j"/>
</g>
</g>
<path d="m1125.5 957.11v33.808q0 2.4 2.4 2.4h7.7425q2.4 0 2.4-2.4v-33.808q0-2.4-2.4-2.4h-7.7425q-2.4 0-2.4 2.4z" clip-path="url(#a)" fill="#fff" stroke="#fff"/>
<g clip-path="url(#a)">
<g transform="translate(1129.5 957.11) rotate(90) scale(.08 -.08)">
<use xlink:href="#i"/>
<use x="44.083984" xlink:href="#g"/>
<use x="105.607422" xlink:href="#h"/>
<use x="144.970703" xlink:href="#l"/>
<use x="242.382812" xlink:href="#f"/>
<use x="270.166016" xlink:href="#k"/>
<use x="333.544922" xlink:href="#e"/>
<use x="394.824219" xlink:href="#j"/>
</g>
</g>
<path d="m1719.4 957.11v33.808q0 2.4 2.4 2.4h7.7425q2.4 0 2.4-2.4v-33.808q0-2.4-2.4-2.4h-7.7425q-2.4 0-2.4 2.4z" clip-path="url(#a)" fill="#fff" stroke="#fff"/>
<g clip-path="url(#a)">
<g transform="translate(1723.5 957.11) rotate(90) scale(.08 -.08)">
<use xlink:href="#i"/>
<use x="44.083984" xlink:href="#g"/>
<use x="105.607422" xlink:href="#h"/>
<use x="144.970703" xlink:href="#l"/>
<use x="242.382812" xlink:href="#f"/>
<use x="270.166016" xlink:href="#k"/>
<use x="333.544922" xlink:href="#e"/>
<use x="394.824219" xlink:href="#j"/>
</g>
</g>
<path d="m1976.6 957.11v33.808q0 2.4 2.4 2.4h7.7425q2.4 0 2.4-2.4v-33.808q0-2.4-2.4-2.4h-7.7425q-2.4 0-2.4 2.4z" clip-path="url(#a)" fill="#fff" stroke="#fff"/>
<g clip-path="url(#a)">
<g transform="translate(1980.7 957.11) rotate(90) scale(.08 -.08)">
<use xlink:href="#i"/>
<use x="44.083984" xlink:href="#g"/>
<use x="105.607422" xlink:href="#h"/>
<use x="144.970703" xlink:href="#l"/>
<use x="242.382812" xlink:href="#f"/>
<use x="270.166016" xlink:href="#k"/>
<use x="333.544922" xlink:href="#e"/>
<use x="394.824219" xlink:href="#j"/>
</g>
</g>
<defs>
<path id="b" d="m0 8.6603c2.2967 0 4.4997-0.9125 6.1237-2.5365 1.624-1.624 2.5365-3.827 2.5365-6.1237s-0.9125-4.4997-2.5365-6.1237c-1.624-1.624-3.827-2.5365-6.1237-2.5365s-4.4997 0.9125-6.1237 2.5365c-1.624 1.624-2.5365 3.827-2.5365 6.1237s0.9125 4.4997 2.5365 6.1237c1.624 1.624 3.827 2.5365 6.1237 2.5365z"/>
</defs>
<g clip-path="url(#a)" fill="#ffffff" stroke="#ffffff">
<use x="94.424242" y="1043.636364" xlink:href="#b"/>
<use x="100.698278" y="1043.636364" xlink:href="#b"/>
<use x="109.06366" y="1043.636364" xlink:href="#b"/>
<use x="119.520387" y="1043.636364" xlink:href="#b"/>
<use x="132.068459" y="1043.636364" xlink:href="#b"/>
<use x="146.707876" y="1043.636364" xlink:href="#b"/>
<use x="163.438639" y="1043.636364" xlink:href="#b"/>
<use x="182.260747" y="1043.636364" xlink:href="#b"/>
<use x="203.1742" y="1043.636364" xlink:href="#b"/>
<use x="226.178999" y="1043.636364" xlink:href="#b"/>
<use x="251.275143" y="1043.636364" xlink:href="#b"/>
<use x="278.462633" y="1043.636364" xlink:href="#b"/>
<use x="307.741468" y="1043.636364" xlink:href="#b"/>
<use x="339.111648" y="1043.636364" xlink:href="#b"/>
<use x="372.573174" y="1043.636364" xlink:href="#b"/>
<use x="410.21739" y="1043.636364" xlink:href="#b"/>
<use x="447.861606" y="1043.636364" xlink:href="#b"/>
<use x="487.597168" y="1043.636364" xlink:href="#b"/>
<use x="529.424075" y="1043.636364" xlink:href="#b"/>
<use x="573.342327" y="1043.636364" xlink:href="#b"/>
<use x="619.351925" y="1043.636364" xlink:href="#b"/>
<use x="669.544213" y="1043.636364" xlink:href="#b"/>
<use x="719.736501" y="1043.636364" xlink:href="#b"/>
<use x="772.020135" y="1043.636364" xlink:href="#b"/>
<use x="826.395114" y="1043.636364" xlink:href="#b"/>
<use x="882.861438" y="1043.636364" xlink:href="#b"/>
<use x="941.419108" y="1043.636364" xlink:href="#b"/>
<use x="1002.068123" y="1043.636364" xlink:href="#b"/>
<use x="1066.899829" y="1043.636364" xlink:href="#b"/>
<use x="1131.731535" y="1043.636364" xlink:href="#b"/>
<use x="1198.654586" y="1043.636364" xlink:href="#b"/>
<use x="1267.668982" y="1043.636364" xlink:href="#b"/>
<use x="1338.774724" y="1043.636364" xlink:href="#b"/>
<use x="1411.971811" y="1043.636364" xlink:href="#b"/>
<use x="1487.260244" y="1043.636364" xlink:href="#b"/>
<use x="1564.640021" y="1043.636364" xlink:href="#b"/>
<use x="1644.111145" y="1043.636364" xlink:href="#b"/>
<use x="1725.673613" y="1043.636364" xlink:href="#b"/>
<use x="1809.327427" y="1043.636364" xlink:href="#b"/>
<use x="1895.072586" y="1043.636364" xlink:href="#b"/>
<use x="1982.909091" y="1043.636364" xlink:href="#b"/>
<use x="1004.159468" y="904.381336" xlink:href="#b"/>
<use x="621.44327" y="904.381336" xlink:href="#b"/>
<use x="374.664519" y="904.381336" xlink:href="#b"/>
<use x="601.423064" y="49.69697" xlink:href="#b"/>
<use x="94.424242" y="904.381336" xlink:href="#b"/>
<use x="122.657405" y="621.256359" xlink:href="#b"/>
<use x="182.260747" y="904.381336" xlink:href="#b"/>
<use x="222.589341" y="193.000584" xlink:href="#b"/>
<use x="1389.398352" y="336.064447" xlink:href="#b"/>
<use x="1198.654586" y="904.381336" xlink:href="#b"/>
<use x="1267.668982" y="904.381336" xlink:href="#b"/>
<use x="1338.774724" y="904.381336" xlink:href="#b"/>
<use x="1752.495117" y="478.840543" xlink:href="#b"/>
<use x="1411.971811" y="904.381336" xlink:href="#b"/>
<use x="1720.026981" y="621.256359" xlink:href="#b"/>
<use x="1895.072586" y="904.381336" xlink:href="#b"/>
<use x="1525.950133" y="763.189118" xlink:href="#b"/>
<use x="1644.111145" y="904.381336" xlink:href="#b"/>
<use x="1809.327427" y="904.381336" xlink:href="#b"/>
<use x="1487.260244" y="904.381336" xlink:href="#b"/>
<use x="1564.640021" y="904.381336" xlink:href="#b"/>
<use x="203.1742" y="904.381336" xlink:href="#b"/>
<use x="363.895543" y="336.064447" xlink:href="#b"/>
<use x="226.178999" y="904.381336" xlink:href="#b"/>
<use x="264.868888" y="763.189118" xlink:href="#b"/>
<use x="600.638741" y="478.840543" xlink:href="#b"/>
<use x="329.003479" y="621.256359" xlink:href="#b"/>
<use x="548.59474" y="621.256359" xlink:href="#b"/>
<use x="772.020135" y="904.381336" xlink:href="#b"/>
<use x="908.131861" y="621.256359" xlink:href="#b"/>
<use x="854.628276" y="904.381336" xlink:href="#b"/>
<use x="928.3482" y="763.189118" xlink:href="#b"/>
<use x="1002.068123" y="904.381336" xlink:href="#b"/>
<use x="508.510621" y="904.381336" xlink:href="#b"/>
<use x="563.931273" y="763.189118" xlink:href="#b"/>
<use x="619.351925" y="904.381336" xlink:href="#b"/>
<use x="307.741468" y="904.381336" xlink:href="#b"/>
<use x="340.157321" y="763.189118" xlink:href="#b"/>
<use x="372.573174" y="904.381336" xlink:href="#b"/>
<use x="251.275143" y="904.381336" xlink:href="#b"/>
<use x="278.462633" y="904.381336" xlink:href="#b"/>
<use x="100.698278" y="904.381336" xlink:href="#b"/>
<use x="109.06366" y="904.381336" xlink:href="#b"/>
<use x="125.794423" y="763.189118" xlink:href="#b"/>
<use x="155.073257" y="763.189118" xlink:href="#b"/>
<use x="146.707876" y="904.381336" xlink:href="#b"/>
<use x="163.438639" y="904.381336" xlink:href="#b"/>
<use x="119.520387" y="904.381336" xlink:href="#b"/>
<use x="132.068459" y="904.381336" xlink:href="#b"/>
<use x="339.111648" y="904.381336" xlink:href="#b"/>
<use x="410.21739" y="904.381336" xlink:href="#b"/>
<use x="447.861606" y="904.381336" xlink:href="#b"/>
<use x="573.342327" y="904.381336" xlink:href="#b"/>
<use x="669.544213" y="904.381336" xlink:href="#b"/>
<use x="719.736501" y="904.381336" xlink:href="#b"/>
<use x="941.419108" y="904.381336" xlink:href="#b"/>
<use x="1066.899829" y="904.381336" xlink:href="#b"/>
<use x="1131.731535" y="904.381336" xlink:href="#b"/>
<use x="1725.673613" y="904.381336" xlink:href="#b"/>
<use x="1982.909091" y="904.381336" xlink:href="#b"/>
</g>
<g clip-path="url(#a)">
<defs>
<path id="x" d="m30.609 48.391q-7.2188 0-11.422-5.6406t-4.2031-15.453 4.1719-15.453q4.1875-5.6406 11.453-5.6406 7.1875 0 11.375 5.6562 4.2031 5.6719 4.2031 15.438 0 9.7188-4.2031 15.406-4.1875 5.6875-11.375 5.6875zm0 7.6094q11.719 0 18.406-7.625 6.7031-7.6094 6.7031-21.078 0-13.422-6.7031-21.078-6.6875-7.6406-18.406-7.6406-11.766 0-18.438 7.6406-6.6562 7.6562-6.6562 21.078 0 13.469 6.6562 21.078 6.6719 7.625 18.438 7.625z"/>
<path id="ap" d="m4.2031 54.688h8.9844l11.234-42.672 11.172 42.672h10.594l11.234-42.672 11.188 42.672h8.9844l-14.312-54.688h-10.594l-11.766 44.828-11.812-44.828h-10.609z"/>
<path id="aj" d="m45.406 27.984q0 9.7656-4.0312 15.125-4.0156 5.375-11.297 5.375-7.2188 0-11.25-5.375-4.0312-5.3594-4.0312-15.125 0-9.7188 4.0312-15.094t11.25-5.375q7.2812 0 11.297 5.375 4.0312 5.375 4.0312 15.094zm8.9844-21.203q0-13.953-6.2031-20.766-6.1875-6.8125-18.984-6.8125-4.7344 0-8.9375 0.70312t-8.1562 2.1719v8.7344q3.9531-2.1406 7.8125-3.1562 3.8594-1.0312 7.8594-1.0312 8.8438 0 13.234 4.6094t4.3906 13.938v4.4531q-2.7812-4.8438-7.125-7.2344t-10.406-2.3906q-10.047 0-16.203 7.6562-6.1562 7.6719-6.1562 20.328 0 12.688 6.1562 20.344 6.1562 7.6719 16.203 7.6719 6.0625 0 10.406-2.3906t7.125-7.2188v8.2969h8.9844z"/>
</defs>
<g transform="translate(71.012 1046.4) scale(.1 -.1)">
<use xlink:href="#at"/>
<use x="53.894531" xlink:href="#x"/>
<use x="115.076172" xlink:href="#j"/>
<use x="142.859375" xlink:href="#j"/>
<use x="170.642578" xlink:href="#x"/>
<use x="231.824219" xlink:href="#ap"/>
<use x="313.611328" xlink:href="#f"/>
<use x="341.394531" xlink:href="#k"/>
<use x="404.773438" xlink:href="#aj"/>
</g>
</g>
<g clip-path="url(#a)">
<defs>
<path id="ac" d="m54.891 33.016v-33.016h-8.9844v32.719q0 7.7656-3.0312 11.609-3.0312 3.8594-9.0781 3.8594-7.2812 0-11.484-4.6406-4.2031-4.625-4.2031-12.641v-30.906h-9.0312v75.984h9.0312v-29.797q3.2344 4.9375 7.5938 7.375 4.375 2.4375 10.094 2.4375 9.4219 0 14.25-5.8281 4.8438-5.8281 4.8438-17.156z"/>
</defs>
<g transform="translate(92.397 1046.4) scale(.1 -.1)">
<use xlink:href="#ac"/>
<use x="63.378906" xlink:href="#g"/>
<use x="124.902344" xlink:href="#h"/>
</g>
</g>
<g clip-path="url(#a)">
<g transform="translate(86.402 1046.4) scale(.1 -.1)">
<use xlink:href="#l"/>
<use x="97.412109" xlink:href="#e"/>
<use x="158.691406" xlink:href="#h"/>
<use x="198.054688" xlink:href="#h"/>
<use x="239.167969" xlink:href="#f"/>
<use x="266.951172" xlink:href="#e"/>
<use x="328.230469" xlink:href="#aj"/>
<use x="391.707031" xlink:href="#g"/>
</g>
</g>
<g clip-path="url(#a)">
<defs>
<path id="w" d="m18.312 70.219v-15.531h18.5v-6.9844h-18.5v-29.688q0-6.6875 1.8281-8.5938t7.4531-1.9062h9.2188v-7.5156h-9.2188q-10.406 0-14.359 3.875-3.9531 3.8906-3.9531 14.141v29.688h-6.5938v6.9844h6.5938v15.531z"/>
</defs>
<g transform="translate(114.5 1046.4) scale(.1 -.1)">
<use xlink:href="#w"/>
<use x="39.208984" xlink:href="#x"/>
</g>
</g>
<g clip-path="url(#a)">
<defs>
<path id="ad" d="m9.8125 72.906h14.703l18.594-49.609 18.703 49.609h14.703v-72.906h-9.625v64.016l-18.797-50h-9.9062l-18.797 50v-64.016h-9.5781z"/>
</defs>
<g transform="translate(113.26 1046.4) scale(.1 -.1)">
<use xlink:href="#ad"/>
<use x="86.279297" xlink:href="#x"/>
<use x="147.460938" xlink:href="#w"/>
<use x="186.669922" xlink:href="#w"/>
<use x="225.878906" xlink:href="#x"/>
<use x="287.060547" xlink:href="#j"/>
<use x="314.84375" xlink:href="#e"/>
</g>
</g>
<g clip-path="url(#a)">
<g transform="translate(142.15 1046.4) scale(.1 -.1)">
<use xlink:href="#f"/>
<use x="27.783203" xlink:href="#k"/>
</g>
</g>
<g clip-path="url(#a)">
<defs>
<path id="c" d="m12.406 8.2969h16.109v55.625l-17.531-3.5156v8.9844l17.438 3.5156h9.8594v-64.609h16.109v-8.2969h-41.984z"/>
<path id="r" d="m10.984 1.5156v8.9844q3.7188-1.7656 7.5156-2.6875 3.8125-0.92188 7.4844-0.92188 9.7656 0 14.906 6.5625 5.1562 6.5625 5.8906 19.953-2.8281-4.2031-7.1875-6.4531-4.3438-2.25-9.6094-2.25-10.938 0-17.312 6.6094-6.375 6.625-6.375 18.109 0 11.219 6.6406 18 6.6406 6.7969 17.672 6.7969 12.656 0 19.312-9.7031 6.6719-9.6875 6.6719-28.141 0-17.234-8.1875-27.516-8.1719-10.281-21.984-10.281-3.7188 0-7.5312 0.73438-3.7969 0.73438-7.9062 2.2031zm19.625 30.906q6.6406 0 10.516 4.5312 3.8906 4.5469 3.8906 12.469 0 7.8594-3.8906 12.422-3.875 4.5625-10.516 4.5625t-10.516-4.5625-3.875-12.422q0-7.9219 3.875-12.469 3.875-4.5312 10.516-4.5312z"/>
<path id="v" d="m40.578 39.312q7.0781-1.5156 11.047-6.3125 3.9844-4.7812 3.9844-11.812 0-10.781-7.4219-16.703-7.4219-5.9062-21.094-5.9062-4.5781 0-9.4375 0.90625t-10.031 2.7188v9.5156q4.0938-2.3906 8.9688-3.6094 4.8906-1.2188 10.219-1.2188 9.2656 0 14.125 3.6562t4.8594 10.641q0 6.4531-4.5156 10.078-4.5156 3.6406-12.562 3.6406h-8.5v8.1094h8.8906q7.2656 0 11.125 2.9062t3.8594 8.375q0 5.6094-3.9844 8.6094-3.9688 3.0156-11.391 3.0156-4.0625 0-8.7031-0.89062-4.6406-0.875-10.203-2.7188v8.7812q5.625 1.5625 10.531 2.3438t9.25 0.78125q11.234 0 17.766-5.1094 6.5469-5.0938 6.5469-13.781 0-6.0625-3.4688-10.234t-9.8594-5.7812z"/>
</defs>
<g transform="translate(150.71 1046.4) scale(.1 -.1)">
<use xlink:href="#c"/>
<use x="63.623047" xlink:href="#r"/>
<use x="127.246094" xlink:href="#r"/>
<use x="190.869141" xlink:href="#v"/>
</g>
</g>
<g clip-path="url(#a)">
<defs>
<path id="ak" d="m45.406 46.391v29.594h8.9844v-75.984h-8.9844v8.2031q-2.8281-4.875-7.1562-7.25-4.3125-2.375-10.375-2.375-9.9062 0-16.141 7.9062-6.2188 7.9219-6.2188 20.812t6.2188 20.797q6.2344 7.9062 16.141 7.9062 6.0625 0 10.375-2.375 4.3281-2.3594 7.1562-7.2344zm-30.609-19.094q0-9.9062 4.0781-15.547t11.203-5.6406 11.219 5.6406q4.1094 5.6406 4.1094 15.547t-4.1094 15.547q-4.0938 5.6406-11.219 5.6406t-11.203-5.6406-4.0781-15.547z"/>
</defs>
<g transform="translate(172.85 1046.4) scale(.1 -.1)">
<use xlink:href="#e"/>
<use x="61.279297" xlink:href="#k"/>
<use x="124.658203" xlink:href="#ak"/>
</g>
</g>
<g clip-path="url(#a)">
<defs>
<path id="q" d="m44.281 53.078v-8.5q-3.7969 1.9531-7.9062 2.9219-4.0938 0.98438-8.5 0.98438-6.6875 0-10.031-2.0469t-3.3438-6.1562q0-3.125 2.3906-4.9062t9.625-3.3906l3.0781-0.6875q9.5625-2.0469 13.594-5.7812t4.0312-10.422q0-7.625-6.0312-12.078-6.0312-4.4375-16.578-4.4375-4.3906 0-9.1562 0.85938t-10.031 2.5625v9.2812q4.9844-2.5938 9.8125-3.8906 4.8281-1.2812 9.5781-1.2812 6.3438 0 9.75 2.1719 3.4219 2.1719 3.4219 6.125 0 3.6562-2.4688 5.6094-2.4531 1.9531-10.812 3.7656l-3.125 0.73438q-8.3438 1.75-12.062 5.3906-3.7031 3.6406-3.7031 9.9844 0 7.7188 5.4688 11.906 5.4688 4.2031 15.531 4.2031 4.9688 0 9.3594-0.73438 4.4062-0.71875 8.1094-2.1875z"/>
<path id="aq" d="m8.5 21.578v33.109h8.9844v-32.766q0-7.7656 3.0156-11.656 3.0312-3.875 9.0938-3.875 7.2656 0 11.484 4.6406 4.2344 4.6406 4.2344 12.656v31h8.9844v-54.688h-8.9844v8.4062q-3.2656-4.9844-7.5938-7.4062-4.3125-2.4219-10.031-2.4219-9.4219 0-14.312 5.8594-4.875 5.8594-4.875 17.141z"/>
<path id="af" d="m48.781 52.594v-8.4062q-3.8125 2.1094-7.6406 3.1562t-7.7344 1.0469q-8.75 0-13.594-5.5469-4.8281-5.5312-4.8281-15.547t4.8281-15.562q4.8438-5.5312 13.594-5.5312 3.9062 0 7.7344 1.0469t7.6406 3.1562v-8.3125q-3.7656-1.75-7.7969-2.625-4.0156-0.89062-8.5625-0.89062-12.359 0-19.641 7.7656-7.2656 7.7656-7.2656 20.953 0 13.375 7.3438 21.031 7.3594 7.6719 20.156 7.6719 4.1406 0 8.0938-0.85938 3.9531-0.84375 7.6719-2.5469z"/>
</defs>
<g transform="translate(183.62 1046.4) scale(.1 -.1)">
<use xlink:href="#q"/>
<use x="52.099609" xlink:href="#aq"/>
<use x="115.478516" xlink:href="#af"/>
<use x="170.458984" xlink:href="#af"/>
<use x="225.439453" xlink:href="#g"/>
<use x="286.962891" xlink:href="#q"/>
<use x="339.0625" xlink:href="#q"/>
</g>
</g>
<g clip-path="url(#a)">
<g transform="translate(215.57 1046.4) scale(.1 -.1)">
<use xlink:href="#ap"/>
<use x="81.787109" xlink:href="#f"/>
<use x="109.570312" xlink:href="#w"/>
<use x="148.779297" xlink:href="#ac"/>
</g>
</g>
<g clip-path="url(#a)">
<g transform="translate(244.76 1046.4) scale(.1 -.1)">
<use xlink:href="#ac"/>
<use x="63.378906" xlink:href="#f"/>
<use x="91.162109" xlink:href="#w"/>
</g>
</g>
<g clip-path="url(#a)">
<g transform="translate(259.89 1046.4) scale(.1 -.1)">
<use xlink:href="#h"/>
<use x="38.863281" xlink:href="#g"/>
<use x="100.386719" xlink:href="#af"/>
<use x="155.367188" xlink:href="#x"/>
<use x="216.548828" xlink:href="#h"/>
<use x="255.912109" xlink:href="#ak"/>
<use x="319.388672" xlink:href="#q"/>
</g>
</g>
<g clip-path="url(#a)">
<g transform="translate(284.47 1046.4) scale(.1 -.1)">
<use xlink:href="#ab"/>
<use x="63.183594" xlink:href="#l"/>
<use x="160.595703" xlink:href="#x"/>
<use x="221.777344" xlink:href="#w"/>
<use x="260.986328" xlink:href="#f"/>
<use x="288.769531" xlink:href="#x"/>
<use x="349.951172" xlink:href="#k"/>
<use x="413.330078" xlink:href="#q"/>
</g>
</g>
<g clip-path="url(#a)">
<defs>
<path id="ao" d="m31 75.875q-6.5312-11.219-9.7188-22.219-3.1719-10.984-3.1719-22.266 0-11.266 3.2031-22.328t9.6875-22.25h-7.8125q-7.3125 11.484-10.953 22.562t-3.6406 22.016q0 10.891 3.6094 21.922 3.625 11.047 10.984 22.562z"/>
</defs>
<g transform="translate(337.16 1046.4) scale(.1 -.1)">
<use xlink:href="#ao"/>
</g>
</g>
<g clip-path="url(#a)">
<g transform="translate(359.85 1046.4) scale(.1 -.1)">
<use xlink:href="#c"/>
<use x="63.623047" xlink:href="#r"/>
<use x="127.246094" xlink:href="#r"/>
<use x="190.869141" xlink:href="#c"/>
</g>
</g>
<g clip-path="url(#a)">
<defs>
<path id="an" d="m8.0156 75.875h7.8125q7.3125-11.516 10.953-22.562 3.6406-11.031 3.6406-21.922 0-10.938-3.6406-22.016t-10.953-22.562h-7.8125q6.4844 11.188 9.6875 22.25t3.2031 22.328q0 11.281-3.2031 22.266-3.2031 11-9.6875 22.219z"/>
</defs>
<g transform="translate(408.27 1046.4) scale(.1 -.1)">
<use xlink:href="#an"/>
</g>
</g>
<g clip-path="url(#a)">
<defs>
<path id="am" d="m11.719 12.406h10.297v-8.4062l-8-15.625h-6.2969l4 15.625z"/>
</defs>
<g transform="translate(446.27 1046.4) scale(.1 -.1)">
<use xlink:href="#am"/>
</g>
</g>
<g clip-path="url(#a)">
<g transform="translate(473.37 1046.4) scale(.1 -.1)">
<use xlink:href="#ad"/>
<use x="86.279297" xlink:href="#aq"/>
<use x="149.658203" xlink:href="#q"/>
<use x="201.757812" xlink:href="#f"/>
<use x="229.541016" xlink:href="#af"/>
</g>
</g>
<g clip-path="url(#a)">
<defs>
<path id="ax" d="m19.672 34.812v-26.703h15.828q7.9531 0 11.781 3.2969 3.8438 3.2969 3.8438 10.078 0 6.8438-3.8438 10.078-3.8281 3.25-11.781 3.25zm0 29.984v-21.969h14.609q7.2188 0 10.75 2.7031 3.5469 2.7188 3.5469 8.2812 0 5.5156-3.5469 8.25-3.5312 2.7344-10.75 2.7344zm-9.8594 8.1094h25.203q11.281 0 17.375-4.6875 6.1094-4.6875 6.1094-13.328 0-6.7031-3.125-10.656t-9.1875-4.9219q7.2812-1.5625 11.312-6.5312 4.0312-4.9531 4.0312-12.375 0-9.7656-6.6406-15.094-6.6406-5.3125-18.906-5.3125h-26.172z"/>
<path id="ba" d="m54.891 54.688-19.781-26.609 20.797-28.078h-10.594l-15.922 21.484-15.906-21.484h-10.609l21.25 28.609-19.438 26.078h10.594l14.5-19.484 14.5 19.484z"/>
</defs>
<g transform="translate(520.13 1046.4) scale(.1 -.1)">
<use xlink:href="#ax"/>
<use x="68.603516" xlink:href="#x"/>
<use x="126.660156" xlink:href="#ba"/>
</g>
</g>
<g clip-path="url(#a)">
<g transform="translate(571.39 1046.4) scale(.1 -.1)">
<use xlink:href="#ao"/>
</g>
</g>
<g clip-path="url(#a)">
<g transform="translate(606.63 1046.4) scale(.1 -.1)">
<use xlink:href="#c"/>
<use x="63.623047" xlink:href="#r"/>
<use x="127.246094" xlink:href="#r"/>
<use x="190.869141" xlink:href="#v"/>
</g>
</g>
<g clip-path="url(#a)">
<g transform="translate(667.59 1046.4) scale(.1 -.1)">
<use xlink:href="#an"/>
</g>
</g>
<g clip-path="url(#a)">
<g transform="translate(718.15 1046.4) scale(.1 -.1)">
<use xlink:href="#am"/>
</g>
</g>
<g clip-path="url(#a)">
<g transform="translate(762.61 1046.4) scale(.1 -.1)">
<use xlink:href="#e"/>
<use x="61.279297" xlink:href="#k"/>
<use x="124.658203" xlink:href="#ak"/>
</g>
</g>
<g clip-path="url(#a)">
<defs>
<path id="au" d="m32.172-5.0781q-3.7969-9.7656-7.4219-12.734-3.6094-2.9844-9.6562-2.9844h-7.1875v7.5156h5.2812q3.7031 0 5.75 1.7656 2.0625 1.75 4.5469 8.2969l1.6094 4.0938-22.109 53.812h9.5156l17.094-42.766 17.094 42.766h9.5156z"/>
</defs>
<g transform="translate(812.02 1046.4) scale(.1 -.1)">
<use xlink:href="#ad"/>
<use x="86.279297" xlink:href="#g"/>
<use x="147.802734" xlink:href="#h"/>
<use x="187.166016" xlink:href="#h"/>
<use x="228.279297" xlink:href="#au"/>
</g>
</g>
<g clip-path="url(#a)">
<g transform="translate(857.65 1046.4) scale(.1 -.1)">
<use xlink:href="#m"/>
<use x="69.824219" xlink:href="#ac"/>
<use x="133.203125" xlink:href="#h"/>
<use x="174.316406" xlink:href="#f"/>
<use x="202.099609" xlink:href="#q"/>
<use x="254.199219" xlink:href="#w"/>
<use x="293.408203" xlink:href="#l"/>
<use x="390.820312" xlink:href="#e"/>
<use x="452.099609" xlink:href="#q"/>
</g>
</g>
<g clip-path="url(#a)">
<g transform="translate(939.47 1046.4) scale(.1 -.1)">
<use xlink:href="#ao"/>
</g>
</g>
<g clip-path="url(#a)">
<defs>
<path id="s" d="m37.797 64.312-24.906-38.922h24.906zm-2.5938 8.5938h12.406v-47.516h10.406v-8.2031h-10.406v-17.188h-9.8125v17.188h-32.906v9.5156z"/>
</defs>
<g transform="translate(989.34 1046.4) scale(.1 -.1)">
<use xlink:href="#c"/>
<use x="63.623047" xlink:href="#r"/>
<use x="127.246094" xlink:href="#r"/>
<use x="190.869141" xlink:href="#s"/>
</g>
</g>
<g clip-path="url(#a)">
<g transform="translate(1064.9 1046.4) scale(.1 -.1)">
<use xlink:href="#an"/>
</g>
</g>
<g clip-path="url(#a)">
<g transform="translate(1130.1 1046.4) scale(.1 -.1)">
<use xlink:href="#am"/>
</g>
</g>
<g clip-path="url(#a)">
<g transform="translate(1184.1 1046.4) scale(.1 -.1)">
<use xlink:href="#m"/>
<use x="69.824219" xlink:href="#e"/>
<use x="131.103516" xlink:href="#h"/>
<use x="169.966797" xlink:href="#g"/>
<use x="231.490234" xlink:href="#au"/>
</g>
</g>
<g clip-path="url(#a)">
<g transform="translate(1257.9 1046.4) scale(.1 -.1)">
<use xlink:href="#ap"/>
<use x="81.787109" xlink:href="#e"/>
<use x="143.066406" xlink:href="#q"/>
</g>
</g>
<g clip-path="url(#a)">
<defs>
<path id="ar" d="m48.688 27.297q0 9.9062-4.0781 15.547t-11.203 5.6406q-7.1406 0-11.219-5.6406t-4.0781-15.547 4.0781-15.547 11.219-5.6406q7.125 0 11.203 5.6406t4.0781 15.547zm-30.578 19.094q2.8438 4.875 7.1562 7.2344 4.3281 2.375 10.328 2.375 9.9688 0 16.188-7.9062 6.2344-7.9062 6.2344-20.797t-6.2344-20.812q-6.2188-7.9062-16.188-7.9062-6 0-10.328 2.375-4.3125 2.375-7.1562 7.25v-8.2031h-9.0312v75.984h9.0312z"/>
</defs>
<g transform="translate(1310.1 1046.4) scale(.1 -.1)">
<use xlink:href="#g"/>
<use x="61.523438" xlink:href="#q"/>
<use x="113.623047" xlink:href="#w"/>
<use x="152.832031" xlink:href="#e"/>
<use x="214.111328" xlink:href="#ar"/>
<use x="277.587891" xlink:href="#j"/>
<use x="305.371094" xlink:href="#f"/>
<use x="333.154297" xlink:href="#q"/>
<use x="385.253906" xlink:href="#ac"/>
<use x="448.632812" xlink:href="#g"/>
<use x="510.15625" xlink:href="#ak"/>
</g>
</g>
<g clip-path="url(#a)">
<g transform="translate(1406.3 1046.4) scale(.1 -.1)">
<use xlink:href="#e"/>
<use x="61.279297" xlink:href="#q"/>
</g>
</g>
<g clip-path="url(#a)">
<g transform="translate(1463.7 1046.4) scale(.1 -.1)">
<use xlink:href="#m"/>
<use x="69.824219" xlink:href="#x"/>
<use x="131.005859" xlink:href="#j"/>
<use x="158.789062" xlink:href="#aq"/>
<use x="222.167969" xlink:href="#l"/>
<use x="319.580078" xlink:href="#ar"/>
<use x="383.056641" xlink:href="#f"/>
<use x="410.839844" xlink:href="#e"/>
</g>
</g>
<g clip-path="url(#a)">
<defs>
<path id="az" d="m17.922 72.906v-27.109h-8.2969v27.109z"/>
</defs>
<g transform="translate(1560.7 1046.4) scale(.1 -.1)">
<use xlink:href="#az"/>
<use x="27.490234" xlink:href="#q"/>
</g>
</g>
<g clip-path="url(#a)">
<g transform="translate(1625.6 1046.4) scale(.1 -.1)">
<use xlink:href="#ac"/>
<use x="63.378906" xlink:href="#f"/>
<use x="91.162109" xlink:href="#aj"/>
<use x="154.638672" xlink:href="#ac"/>
<use x="218.017578" xlink:href="#g"/>
<use x="279.541016" xlink:href="#q"/>
<use x="331.640625" xlink:href="#w"/>
</g>
</g>
<g clip-path="url(#a)">
<defs>
<path id="ay" d="m4.8906 31.391h26.312v-8h-26.312z"/>
</defs>
<g transform="translate(1723.9 1046.4) scale(.1 -.1)">
<use xlink:href="#ay"/>
</g>
</g>
<g clip-path="url(#a)">
<g transform="translate(1793.1 1046.4) scale(.1 -.1)">
<use xlink:href="#q"/>
<use x="52.099609" xlink:href="#g"/>
<use x="113.623047" xlink:href="#j"/>
<use x="141.40625" xlink:href="#j"/>
<use x="169.189453" xlink:href="#f"/>
<use x="196.972656" xlink:href="#k"/>
<use x="260.351562" xlink:href="#aj"/>
</g>
</g>
<g clip-path="url(#a)">
<g transform="translate(1887.3 1046.4) scale(.1 -.1)">
<use xlink:href="#e"/>
<use x="61.279297" xlink:href="#af"/>
<use x="116.259766" xlink:href="#w"/>
</g>
</g>
<g clip-path="url(#a)">
<defs>
<path id="d" d="m10.688 12.406h10.312v-12.406h-10.312z"/>
</defs>
<g transform="translate(1981.3 1046.4) scale(.1 -.1)">
<use xlink:href="#d"/>
</g>
</g>
<g clip-path="url(#a)">
<defs>
<path id="y" d="m9.8125 72.906h9.8594v-72.906h-9.8594z"/>
</defs>
<g transform="translate(983.07 907.14) scale(.1 -.1)">
<use xlink:href="#y"/>
<use x="29.492188" xlink:href="#ad"/>
<use x="115.771484" xlink:href="#z"/>
<use x="176.074219" xlink:href="#ah"/>
<use x="231.787109" xlink:href="#y"/>
<use x="261.279297" xlink:href="#m"/>
<use x="331.103516" xlink:href="#y"/>
<use x="360.595703" xlink:href="#i"/>
</g>
</g>
<g clip-path="url(#a)">
<g transform="translate(600.36 907.14) scale(.1 -.1)">
<use xlink:href="#y"/>
<use x="29.492188" xlink:href="#ad"/>
<use x="115.771484" xlink:href="#z"/>
<use x="176.074219" xlink:href="#ah"/>
<use x="231.787109" xlink:href="#y"/>
<use x="261.279297" xlink:href="#m"/>
<use x="331.103516" xlink:href="#y"/>
<use x="360.595703" xlink:href="#i"/>
</g>
</g>
<g clip-path="url(#a)">
<g transform="translate(353.58 907.14) scale(.1 -.1)">
<use xlink:href="#y"/>
<use x="29.492188" xlink:href="#ad"/>
<use x="115.771484" xlink:href="#z"/>
<use x="176.074219" xlink:href="#ah"/>
<use x="231.787109" xlink:href="#y"/>
<use x="261.279297" xlink:href="#m"/>
<use x="331.103516" xlink:href="#y"/>
<use x="360.595703" xlink:href="#i"/>
</g>
</g>
<g clip-path="url(#a)">
<g transform="translate(593.47 52.456) scale(.1 -.1)">
<use xlink:href="#c"/>
<use x="63.623047" xlink:href="#d"/>
<use x="95.410156" xlink:href="#c"/>
</g>
</g>
<g clip-path="url(#a)">
<defs>
<path id="p" d="m19.188 8.2969h34.422v-8.2969h-46.281v8.2969q5.6094 5.8125 15.297 15.594 9.7031 9.7969 12.188 12.641 4.7344 5.3125 6.6094 9 1.8906 3.6875 1.8906 7.25 0 5.8125-4.0781 9.4688-4.0781 3.6719-10.625 3.6719-4.6406 0-9.7969-1.6094-5.1406-1.6094-11-4.8906v9.9688q5.9531 2.3906 11.125 3.6094 5.1875 1.2188 9.4844 1.2188 11.328 0 18.062-5.6719 6.7344-5.6562 6.7344-15.125 0-4.5-1.6875-8.5312-1.6719-4.0156-6.125-9.4844-1.2188-1.4219-7.7656-8.1875-6.5312-6.7656-18.453-18.922z"/>
</defs>
<g transform="translate(86.473 907.14) scale(.1 -.1)">
<use xlink:href="#c"/>
<use x="63.623047" xlink:href="#d"/>
<use x="95.410156" xlink:href="#p"/>
</g>
</g>
<g clip-path="url(#a)">
<g transform="translate(114.71 624.02) scale(.1 -.1)">
<use xlink:href="#c"/>
<use x="63.623047" xlink:href="#d"/>
<use x="95.410156" xlink:href="#v"/>
</g>
</g>
<g clip-path="url(#a)">
<g transform="translate(174.31 907.14) scale(.1 -.1)">
<use xlink:href="#c"/>
<use x="63.623047" xlink:href="#d"/>
<use x="95.410156" xlink:href="#s"/>
</g>
</g>
<g clip-path="url(#a)">
<defs>
<path id="o" d="m10.797 72.906h38.719v-8.3125h-29.688v-17.859q2.1406 0.73438 4.2812 1.0938 2.1562 0.35938 4.3125 0.35938 12.203 0 19.328-6.6875 7.1406-6.6875 7.1406-18.109 0-11.766-7.3281-18.297-7.3281-6.5156-20.656-6.5156-4.5938 0-9.3594 0.78125-4.75 0.78125-9.8281 2.3438v9.9219q4.3906-2.3906 9.0781-3.5625t9.9062-1.1719q8.4531 0 13.375 4.4375 4.9375 4.4375 4.9375 12.062 0 7.6094-4.9375 12.047-4.9219 4.4531-13.375 4.4531-3.9531 0-7.8906-0.875-3.9219-0.875-8.0156-2.7344z"/>
</defs>
<g transform="translate(214.64 195.76) scale(.1 -.1)">
<use xlink:href="#c"/>
<use x="63.623047" xlink:href="#d"/>
<use x="95.410156" xlink:href="#o"/>
</g>
</g>
<g clip-path="url(#a)">
<defs>
<path id="n" d="m33.016 40.375q-6.6406 0-10.531-4.5469-3.875-4.5312-3.875-12.438 0-7.8594 3.875-12.438 3.8906-4.5625 10.531-4.5625t10.516 4.5625q3.875 4.5781 3.875 12.438 0 7.9062-3.875 12.438-3.875 4.5469-10.516 4.5469zm19.578 30.922v-8.9844q-3.7188 1.75-7.5 2.6719-3.7812 0.9375-7.5 0.9375-9.7656 0-14.922-6.5938-5.1406-6.5938-5.875-19.922 2.875 4.25 7.2188 6.5156 4.3594 2.2656 9.5781 2.2656 10.984 0 17.359-6.6719 6.375-6.6562 6.375-18.125 0-11.234-6.6406-18.031-6.6406-6.7812-17.672-6.7812-12.656 0-19.344 9.6875-6.6875 9.7031-6.6875 28.109 0 17.281 8.2031 27.562t22.016 10.281q3.7188 0 7.5-0.73438t7.8906-2.1875z"/>
</defs>
<g transform="translate(1381.4 338.82) scale(.1 -.1)">
<use xlink:href="#c"/>
<use x="63.623047" xlink:href="#d"/>
<use x="95.410156" xlink:href="#n"/>
</g>
</g>
<g clip-path="url(#a)">
<defs>
<path id="ae" d="m31.781 66.406q-7.6094 0-11.453-7.5-3.8281-7.4844-3.8281-22.531 0-14.984 3.8281-22.484 3.8438-7.5 11.453-7.5 7.6719 0 11.5 7.5 3.8438 7.5 3.8438 22.484 0 15.047-3.8438 22.531-3.8281 7.5-11.5 7.5zm0 7.8125q12.266 0 18.734-9.7031 6.4688-9.6875 6.4688-28.141 0-18.406-6.4688-28.109-6.4688-9.6875-18.734-9.6875-12.25 0-18.719 9.6875-6.4688 9.7031-6.4688 28.109 0 18.453 6.4688 28.141 6.4688 9.7031 18.719 9.7031z"/>
</defs>
<g transform="translate(1187.5 907.14) scale(.1 -.1)">
<use xlink:href="#c"/>
<use x="63.623047" xlink:href="#d"/>
<use x="95.410156" xlink:href="#c"/>
<use x="159.033203" xlink:href="#ae"/>
</g>
</g>
<g clip-path="url(#a)">
<g transform="translate(1256.5 907.14) scale(.1 -.1)">
<use xlink:href="#c"/>
<use x="63.623047" xlink:href="#d"/>
<use x="95.410156" xlink:href="#c"/>
<use x="159.033203" xlink:href="#c"/>
</g>
</g>
<g clip-path="url(#a)">
<g transform="translate(1327.6 907.14) scale(.1 -.1)">
<use xlink:href="#c"/>
<use x="63.623047" xlink:href="#d"/>
<use x="95.410156" xlink:href="#c"/>
<use x="159.033203" xlink:href="#p"/>
</g>
</g>
<g clip-path="url(#a)">
<g transform="translate(1741.4 481.6) scale(.1 -.1)">
<use xlink:href="#c"/>
<use x="63.623047" xlink:href="#d"/>
<use x="95.410156" xlink:href="#c"/>
<use x="159.033203" xlink:href="#v"/>
</g>
</g>
<g clip-path="url(#a)">
<g transform="translate(1400.8 907.14) scale(.1 -.1)">
<use xlink:href="#c"/>
<use x="63.623047" xlink:href="#d"/>
<use x="95.410156" xlink:href="#c"/>
<use x="159.033203" xlink:href="#s"/>
</g>
</g>
<g clip-path="url(#a)">
<g transform="translate(1708.9 624.02) scale(.1 -.1)">
<use xlink:href="#c"/>
<use x="63.623047" xlink:href="#d"/>
<use x="95.410156" xlink:href="#c"/>
<use x="159.033203" xlink:href="#o"/>
</g>
</g>
<g clip-path="url(#a)">
<g transform="translate(1883.9 907.14) scale(.1 -.1)">
<use xlink:href="#c"/>
<use x="63.623047" xlink:href="#d"/>
<use x="95.410156" xlink:href="#c"/>
<use x="159.033203" xlink:href="#n"/>
</g>
</g>
<g clip-path="url(#a)">
<defs>
<path id="aa" d="m8.2031 72.906h46.875v-4.2031l-26.469-68.703h-10.297l24.906 64.594h-35.016z"/>
</defs>
<g transform="translate(1514.8 765.95) scale(.1 -.1)">
<use xlink:href="#c"/>
<use x="63.623047" xlink:href="#d"/>
<use x="95.410156" xlink:href="#c"/>
<use x="159.033203" xlink:href="#aa"/>
</g>
</g>
<g clip-path="url(#a)">
<defs>
<path id="ai" d="m31.781 34.625q-7.0312 0-11.062-3.7656-4.0156-3.7656-4.0156-10.344 0-6.5938 4.0156-10.359 4.0312-3.7656 11.062-3.7656t11.078 3.7812q4.0625 3.7969 4.0625 10.344 0 6.5781-4.0312 10.344-4.0156 3.7656-11.109 3.7656zm-9.8594 4.1875q-6.3438 1.5625-9.8906 5.9062-3.5312 4.3594-3.5312 10.609 0 8.7344 6.2188 13.812 6.2344 5.0781 17.062 5.0781 10.891 0 17.094-5.0781t6.2031-13.812q0-6.25-3.5469-10.609-3.5312-4.3438-9.8281-5.9062 7.125-1.6562 11.094-6.5 3.9844-4.8281 3.9844-11.797 0-10.609-6.4688-16.281-6.4688-5.6562-18.531-5.6562-12.047 0-18.531 5.6562-6.4688 5.6719-6.4688 16.281 0 6.9688 4 11.797 4.0156 4.8438 11.141 6.5zm-3.6094 15.578q0-5.6562 3.5312-8.8281 3.5469-3.1719 9.9375-3.1719 6.3594 0 9.9375 3.1719 3.5938 3.1719 3.5938 8.8281 0 5.6719-3.5938 8.8438-3.5781 3.1719-9.9375 3.1719-6.3906 0-9.9375-3.1719-3.5312-3.1719-3.5312-8.8438z"/>
</defs>
<g transform="translate(1633 907.14) scale(.1 -.1)">
<use xlink:href="#c"/>
<use x="63.623047" xlink:href="#d"/>
<use x="95.410156" xlink:href="#c"/>
<use x="159.033203" xlink:href="#ai"/>
</g>
</g>
<g clip-path="url(#a)">
<g transform="translate(1798.2 907.14) scale(.1 -.1)">
<use xlink:href="#c"/>
<use x="63.623047" xlink:href="#d"/>
<use x="95.410156" xlink:href="#c"/>
<use x="159.033203" xlink:href="#r"/>
</g>
</g>
<g clip-path="url(#a)">
<g transform="translate(1476.1 907.14) scale(.1 -.1)">
<use xlink:href="#c"/>
<use x="63.623047" xlink:href="#d"/>
<use x="95.410156" xlink:href="#p"/>
<use x="159.033203" xlink:href="#c"/>
</g>
</g>
<g clip-path="url(#a)">
<g transform="translate(1553.5 907.14) scale(.1 -.1)">
<use xlink:href="#c"/>
<use x="63.623047" xlink:href="#d"/>
<use x="95.410156" xlink:href="#p"/>
<use x="159.033203" xlink:href="#p"/>
</g>
</g>
<g clip-path="url(#a)">
<g transform="translate(192.04 907.14) scale(.1 -.1)">
<use xlink:href="#c"/>
<use x="63.623047" xlink:href="#d"/>
<use x="95.410156" xlink:href="#p"/>
<use x="159.033203" xlink:href="#v"/>
</g>
</g>
<g clip-path="url(#a)">
<g transform="translate(352.76 338.82) scale(.1 -.1)">
<use xlink:href="#c"/>
<use x="63.623047" xlink:href="#d"/>
<use x="95.410156" xlink:href="#p"/>
<use x="159.033203" xlink:href="#s"/>
</g>
</g>
<g clip-path="url(#a)">
<g transform="translate(215.05 907.14) scale(.1 -.1)">
<use xlink:href="#c"/>
<use x="63.623047" xlink:href="#d"/>
<use x="95.410156" xlink:href="#p"/>
<use x="159.033203" xlink:href="#o"/>
</g>
</g>
<g clip-path="url(#a)">
<g transform="translate(253.74 765.95) scale(.1 -.1)">
<use xlink:href="#c"/>
<use x="63.623047" xlink:href="#d"/>
<use x="95.410156" xlink:href="#p"/>
<use x="159.033203" xlink:href="#n"/>
</g>
</g>
<g clip-path="url(#a)">
<g transform="translate(589.51 481.6) scale(.1 -.1)">
<use xlink:href="#c"/>
<use x="63.623047" xlink:href="#d"/>
<use x="95.410156" xlink:href="#p"/>
<use x="159.033203" xlink:href="#aa"/>
</g>
</g>
<g clip-path="url(#a)">
<g transform="translate(317.87 624.02) scale(.1 -.1)">
<use xlink:href="#c"/>
<use x="63.623047" xlink:href="#d"/>
<use x="95.410156" xlink:href="#p"/>
<use x="159.033203" xlink:href="#ai"/>
</g>
</g>
<g clip-path="url(#a)">
<g transform="translate(537.46 624.02) scale(.1 -.1)">
<use xlink:href="#c"/>
<use x="63.623047" xlink:href="#d"/>
<use x="95.410156" xlink:href="#p"/>
<use x="159.033203" xlink:href="#r"/>
</g>
</g>
<g clip-path="url(#a)">
<g transform="translate(760.89 907.14) scale(.1 -.1)">
<use xlink:href="#c"/>
<use x="63.623047" xlink:href="#d"/>
<use x="95.410156" xlink:href="#v"/>
<use x="159.033203" xlink:href="#ae"/>
</g>
</g>
<g clip-path="url(#a)">
<g transform="translate(897 624.02) scale(.1 -.1)">
<use xlink:href="#c"/>
<use x="63.623047" xlink:href="#d"/>
<use x="95.410156" xlink:href="#v"/>
<use x="159.033203" xlink:href="#c"/>
</g>
</g>
<g clip-path="url(#a)">
<g transform="translate(843.5 907.14) scale(.1 -.1)">
<use xlink:href="#c"/>
<use x="63.623047" xlink:href="#d"/>
<use x="95.410156" xlink:href="#v"/>
<use x="159.033203" xlink:href="#n"/>
</g>
</g>
<g clip-path="url(#a)">
<g transform="translate(917.22 765.95) scale(.1 -.1)">
<use xlink:href="#c"/>
<use x="63.623047" xlink:href="#d"/>
<use x="95.410156" xlink:href="#v"/>
<use x="159.033203" xlink:href="#aa"/>
</g>
</g>
<g clip-path="url(#a)">
<g transform="translate(990.94 907.14) scale(.1 -.1)">
<use xlink:href="#c"/>
<use x="63.623047" xlink:href="#d"/>
<use x="95.410156" xlink:href="#s"/>
<use x="159.033203" xlink:href="#ae"/>
</g>
</g>
<g clip-path="url(#a)">
<g transform="translate(497.38 907.14) scale(.1 -.1)">
<use xlink:href="#c"/>
<use x="63.623047" xlink:href="#d"/>
<use x="95.410156" xlink:href="#s"/>
<use x="159.033203" xlink:href="#c"/>
</g>
</g>
<g clip-path="url(#a)">
<g transform="translate(552.8 765.95) scale(.1 -.1)">
<use xlink:href="#c"/>
<use x="63.623047" xlink:href="#d"/>
<use x="95.410156" xlink:href="#s"/>
<use x="159.033203" xlink:href="#p"/>
</g>
</g>
<g clip-path="url(#a)">
<g transform="translate(608.22 907.14) scale(.1 -.1)">
<use xlink:href="#c"/>
<use x="63.623047" xlink:href="#d"/>
<use x="95.410156" xlink:href="#s"/>
<use x="159.033203" xlink:href="#o"/>
</g>
</g>
<g clip-path="url(#a)">
<g transform="translate(296.61 907.14) scale(.1 -.1)">
<use xlink:href="#c"/>
<use x="63.623047" xlink:href="#d"/>
<use x="95.410156" xlink:href="#s"/>
<use x="159.033203" xlink:href="#n"/>
</g>
</g>
<g clip-path="url(#a)">
<g transform="translate(329.02 765.95) scale(.1 -.1)">
<use xlink:href="#c"/>
<use x="63.623047" xlink:href="#d"/>
<use x="95.410156" xlink:href="#s"/>
<use x="159.033203" xlink:href="#aa"/>
</g>
</g>
<g clip-path="url(#a)">
<g transform="translate(361.44 907.14) scale(.1 -.1)">
<use xlink:href="#c"/>
<use x="63.623047" xlink:href="#d"/>
<use x="95.410156" xlink:href="#o"/>
<use x="159.033203" xlink:href="#ae"/>
</g>
</g>
<g clip-path="url(#a)">
<g transform="translate(240.14 907.14) scale(.1 -.1)">
<use xlink:href="#c"/>
<use x="63.623047" xlink:href="#d"/>
<use x="95.410156" xlink:href="#o"/>
<use x="159.033203" xlink:href="#c"/>
</g>
</g>
<g clip-path="url(#a)">
<g transform="translate(267.33 907.14) scale(.1 -.1)">
<use xlink:href="#c"/>
<use x="63.623047" xlink:href="#d"/>
<use x="95.410156" xlink:href="#o"/>
<use x="159.033203" xlink:href="#p"/>
</g>
</g>
<g clip-path="url(#a)">
<g transform="translate(89.565 907.14) scale(.1 -.1)">
<use xlink:href="#c"/>
<use x="63.623047" xlink:href="#d"/>
<use x="95.410156" xlink:href="#o"/>
<use x="159.033203" xlink:href="#v"/>
</g>
</g>
<g clip-path="url(#a)">
<g transform="translate(97.931 907.14) scale(.1 -.1)">
<use xlink:href="#c"/>
<use x="63.623047" xlink:href="#d"/>
<use x="95.410156" xlink:href="#o"/>
<use x="159.033203" xlink:href="#s"/>
</g>
</g>
<g clip-path="url(#a)">
<g transform="translate(114.66 765.95) scale(.1 -.1)">
<use xlink:href="#c"/>
<use x="63.623047" xlink:href="#d"/>
<use x="95.410156" xlink:href="#o"/>
<use x="159.033203" xlink:href="#o"/>
</g>
</g>
<g clip-path="url(#a)">
<g transform="translate(143.94 765.95) scale(.1 -.1)">
<use xlink:href="#c"/>
<use x="63.623047" xlink:href="#d"/>
<use x="95.410156" xlink:href="#o"/>
<use x="159.033203" xlink:href="#n"/>
</g>
</g>
<g clip-path="url(#a)">
<g transform="translate(135.58 907.14) scale(.1 -.1)">
<use xlink:href="#c"/>
<use x="63.623047" xlink:href="#d"/>
<use x="95.410156" xlink:href="#o"/>
<use x="159.033203" xlink:href="#aa"/>
</g>
</g>
<g clip-path="url(#a)">
<g transform="translate(152.31 907.14) scale(.1 -.1)">
<use xlink:href="#c"/>
<use x="63.623047" xlink:href="#d"/>
<use x="95.410156" xlink:href="#o"/>
<use x="159.033203" xlink:href="#ai"/>
</g>
</g>
<g clip-path="url(#a)">
<g transform="translate(108.39 907.14) scale(.1 -.1)">
<use xlink:href="#c"/>
<use x="63.623047" xlink:href="#d"/>
<use x="95.410156" xlink:href="#o"/>
<use x="159.033203" xlink:href="#r"/>
</g>
</g>
<g clip-path="url(#a)">
<g transform="translate(120.94 907.14) scale(.1 -.1)">
<use xlink:href="#c"/>
<use x="63.623047" xlink:href="#d"/>
<use x="95.410156" xlink:href="#n"/>
<use x="159.033203" xlink:href="#ae"/>
</g>
</g>
<g clip-path="url(#a)">
<g transform="translate(327.98 907.14) scale(.1 -.1)">
<use xlink:href="#c"/>
<use x="63.623047" xlink:href="#d"/>
<use x="95.410156" xlink:href="#n"/>
<use x="159.033203" xlink:href="#c"/>
</g>
</g>
<g clip-path="url(#a)">
<g transform="translate(399.08 907.14) scale(.1 -.1)">
<use xlink:href="#c"/>
<use x="63.623047" xlink:href="#d"/>
<use x="95.410156" xlink:href="#n"/>
<use x="159.033203" xlink:href="#p"/>
</g>
</g>
<g clip-path="url(#a)">
<g transform="translate(436.73 907.14) scale(.1 -.1)">
<use xlink:href="#c"/>
<use x="63.623047" xlink:href="#d"/>
<use x="95.410156" xlink:href="#n"/>
<use x="159.033203" xlink:href="#v"/>
</g>
</g>
<g clip-path="url(#a)">
<g transform="translate(562.21 907.14) scale(.1 -.1)">
<use xlink:href="#c"/>
<use x="63.623047" xlink:href="#d"/>
<use x="95.410156" xlink:href="#n"/>
<use x="159.033203" xlink:href="#s"/>
</g>
</g>
<g clip-path="url(#a)">
<g transform="translate(658.41 907.14) scale(.1 -.1)">
<use xlink:href="#c"/>
<use x="63.623047" xlink:href="#d"/>
<use x="95.410156" xlink:href="#n"/>
<use x="159.033203" xlink:href="#o"/>
</g>
</g>
<g clip-path="url(#a)">
<g transform="translate(708.6 907.14) scale(.1 -.1)">
<use xlink:href="#c"/>
<use x="63.623047" xlink:href="#d"/>
<use x="95.410156" xlink:href="#n"/>
<use x="159.033203" xlink:href="#n"/>
</g>
</g>
<g clip-path="url(#a)">
<g transform="translate(930.29 907.14) scale(.1 -.1)">
<use xlink:href="#c"/>
<use x="63.623047" xlink:href="#d"/>
<use x="95.410156" xlink:href="#n"/>
<use x="159.033203" xlink:href="#aa"/>
</g>
</g>
<g clip-path="url(#a)">
<g transform="translate(1055.8 907.14) scale(.1 -.1)">
<use xlink:href="#c"/>
<use x="63.623047" xlink:href="#d"/>
<use x="95.410156" xlink:href="#n"/>
<use x="159.033203" xlink:href="#ai"/>
</g>
</g>
<g clip-path="url(#a)">
<g transform="translate(1120.6 907.14) scale(.1 -.1)">
<use xlink:href="#c"/>
<use x="63.623047" xlink:href="#d"/>
<use x="95.410156" xlink:href="#n"/>
<use x="159.033203" xlink:href="#r"/>
</g>
</g>
<g clip-path="url(#a)">
<g transform="translate(1714.5 907.14) scale(.1 -.1)">
<use xlink:href="#c"/>
<use x="63.623047" xlink:href="#d"/>
<use x="95.410156" xlink:href="#aa"/>
<use x="159.033203" xlink:href="#ae"/>
</g>
</g>
<g clip-path="url(#a)">
<g transform="translate(1971.8 907.14) scale(.1 -.1)">
<use xlink:href="#c"/>
<use x="63.623047" xlink:href="#d"/>
<use x="95.410156" xlink:href="#aa"/>
<use x="159.033203" xlink:href="#c"/>
</g>
</g>
<defs>
<clipPath id="a">
<rect width="2077.3" height="1093.3"/>
</clipPath>
</defs>
</svg>
