<?xml version="1.0" encoding="UTF-8"?>
<!DOCTYPE svg  PUBLIC '-//W3C//DTD SVG 1.1//EN'  'http://www.w3.org/Graphics/SVG/1.1/DTD/svg11.dtd'>
<svg width="1114.7pt" height="586.67pt" version="1.1" viewBox="0 0 1114.7 586.67" xmlns="http://www.w3.org/2000/svg" xmlns:xlink="http://www.w3.org/1999/xlink">
<defs>
<style type="text/css">*{stroke-linecap:butt;stroke-linejoin:round;}</style>
</defs>
<path d="m0 586.67h1114.7v-586.67h-1114.7z" fill="#fff"/>
<g fill="none" stroke="#000">
<path d="m522.91 27.441-241.8 458.96" clip-path="url(#a)"/>
<path d="m522.91 27.441 264.61 458.96" clip-path="url(#a)"/>
<path d="m522.91 27.441 441.09 312.29" clip-path="url(#a)"/>
<path d="m522.91 27.441-241.16 81.116" clip-path="url(#a)"/>
<path d="m522.91 27.441-222.74 81.116" clip-path="url(#a)"/>
<path d="m281.11 486.4v72.827" clip-path="url(#a)"/>
<path d="m787.52 486.4v72.827" clip-path="url(#a)"/>
<path d="m964 339.73 99.747 219.49" clip-path="url(#a)"/>
<path d="m964 339.73-107.42 73.84" clip-path="url(#a)"/>
<path d="m964 339.73 7.6729 73.84" clip-path="url(#a)"/>
<path d="m281.75 108.56-184.79 305.01" clip-path="url(#a)"/>
<path d="m281.75 108.56-92.714 377.84" clip-path="url(#a)"/>
<path d="m281.75 108.56-46.677 377.84" clip-path="url(#a)"/>
<path d="m281.75 108.56 91.435 377.84" clip-path="url(#a)"/>
<path d="m281.75 108.56 232.74 78.936" clip-path="url(#a)"/>
<path d="m300.16 108.56 26.983 377.84" clip-path="url(#a)"/>
<path d="m300.16 108.56-203.2 305.01" clip-path="url(#a)" stroke-dasharray="3.7,1.6"/>
<path d="m300.16 108.56-111.13 377.84" clip-path="url(#a)" stroke-dasharray="3.7,1.6"/>
<path d="m300.16 108.56 73.02 377.84" clip-path="url(#a)" stroke-dasharray="3.7,1.6"/>
<path d="m300.16 108.56 214.33 78.936" clip-path="url(#a)" stroke-dasharray="3.7,1.6"/>
<path d="m327.15 486.4v72.827" clip-path="url(#a)"/>
<path d="m96.961 413.57-46.037 72.827" clip-path="url(#a)"/>
<path d="m96.961 413.57v72.827" clip-path="url(#a)"/>
<path d="m96.961 413.57 46.037 72.827" clip-path="url(#a)"/>
<path d="m189.04 486.4v72.827" clip-path="url(#a)"/>
<path d="m235.07 486.4v72.827" clip-path="url(#a)"/>
<path d="m373.18 486.4v72.827" clip-path="url(#a)"/>
<path d="m514.49 187.49-95.271 298.91" clip-path="url(#a)"/>
<path d="m514.49 187.49-49.234 298.91" clip-path="url(#a)"/>
<path d="m514.49 187.49-3.197 298.91" clip-path="url(#a)"/>
<path d="m514.49 187.49 147.7 76.977" clip-path="url(#a)"/>
<path d="m419.22 486.4v72.827" clip-path="url(#a)"/>
<path d="m465.26 486.4v72.827" clip-path="url(#a)"/>
<path d="m511.3 486.4v72.827" clip-path="url(#a)"/>
<path d="m662.2 264.47-104.86 221.93" clip-path="url(#a)"/>
<path d="m662.2 264.47 25.576 75.262" clip-path="url(#a)"/>
<path d="m662.2 264.47 79.286 221.93" clip-path="url(#a)"/>
<path d="m557.33 486.4v72.827" clip-path="url(#a)"/>
<path d="m687.77 339.73 53.71 146.67" clip-path="url(#a)" stroke-dasharray="3.7,1.6"/>
<path d="m687.77 339.73-61.383 73.84" clip-path="url(#a)"/>
<path d="m687.77 339.73 7.6729 146.67" clip-path="url(#a)"/>
<path d="m741.48 486.4v72.827" clip-path="url(#a)"/>
<path d="m626.39 413.57-23.019 72.827" clip-path="url(#a)"/>
<path d="m626.39 413.57 23.019 72.827" clip-path="url(#a)"/>
<path d="m695.44 486.4v72.827" clip-path="url(#a)"/>
<path d="m603.37 486.4v72.827" clip-path="url(#a)"/>
<path d="m649.41 486.4v72.827" clip-path="url(#a)"/>
<path d="m50.924 486.4v72.827" clip-path="url(#a)"/>
<path d="m96.961 486.4v72.827" clip-path="url(#a)"/>
<path d="m143 486.4v72.827" clip-path="url(#a)"/>
<path d="m856.58 413.57-23.019 72.827" clip-path="url(#a)"/>
<path d="m856.58 413.57 23.019 72.827" clip-path="url(#a)"/>
<path d="m971.67 413.57-46.037 72.827" clip-path="url(#a)"/>
<path d="m971.67 413.57v72.827" clip-path="url(#a)"/>
<path d="m971.67 413.57 46.037 72.827" clip-path="url(#a)"/>
<path d="m925.63 486.4v72.827" clip-path="url(#a)"/>
<path d="m971.67 486.4v72.827" clip-path="url(#a)"/>
<path d="m833.56 486.4v72.827" clip-path="url(#a)"/>
<path d="m879.59 486.4v72.827" clip-path="url(#a)"/>
<path d="m1017.7 486.4v72.827" clip-path="url(#a)"/>
</g>
<path d="m406.52 261.81 2.0777-3.9437q1.1187-2.1233-1.0047-3.242l-6.85-3.6089q-2.1233-1.1187-3.242 1.0047l-2.0777 3.9437q-1.1187 2.1233 1.0047 3.242l6.85 3.6089q2.1233 1.1187 3.242-1.0047z" clip-path="url(#a)" fill="#fff" stroke="#fff"/>
<g clip-path="url(#a)">
<defs>
<path id="y" d="m9.8125 72.906h9.8594v-64.609h35.5v-8.2969h-45.359z"/>
</defs>
<g transform="translate(402.92 259.92) rotate(-62.218) scale(.08 -.08)">
<use xlink:href="#y"/>
</g>
</g>
<path d="m648.67 258.12 2.2264 3.8616q1.1987 2.0792 3.2779 0.88043l6.7075-3.8672q2.0792-1.1987 0.88043-3.2779l-2.2264-3.8616q-1.1987-2.0792-3.2779-0.88043l-6.7075 3.8672q-2.0792 1.1987-0.88043 3.2779z" clip-path="url(#a)" fill="#fff" stroke="#fff"/>
<g clip-path="url(#a)">
<g transform="translate(652.19 256.09) rotate(60.034) scale(.08 -.08)">
<use xlink:href="#y"/>
</g>
</g>
<path d="m737.37 186.97 4.9102 3.4764q1.9588 1.3868 3.3456-0.57195l4.4739-6.3191q1.3868-1.9588-0.57195-3.3456l-4.9102-3.4764q-1.9588-1.3868-3.3456 0.57195l-4.4739 6.3191q-1.3868 1.9588 0.57195 3.3456z" clip-path="url(#a)" fill="#fff" stroke="#fff"/>
<g clip-path="url(#a)">
<defs>
<path id="aa" d="m9.8125 72.906h9.8594v-29.891h35.844v29.891h9.8594v-72.906h-9.8594v34.719h-35.844v-34.719h-9.8594z"/>
</defs>
<g transform="translate(739.72 183.65) rotate(35.299) scale(.08 -.08)">
<use xlink:href="#aa"/>
</g>
</g>
<path d="m401.48 74.902 5.7023-1.918q2.2748-0.76514 1.5096-3.0399l-2.4684-7.3385q-0.76514-2.2748-3.0399-1.5096l-5.7023 1.918q-2.2748 0.76514-1.5096 3.0399l2.4684 7.3385q0.76514 2.2748 3.0399 1.5096z" clip-path="url(#a)" fill="#fff" stroke="#fff"/>
<g clip-path="url(#a)">
<g transform="translate(400.18 71.05) rotate(-18.591) scale(.08 -.08)">
<use xlink:href="#aa"/>
</g>
</g>
<path d="m410.86 74.921 5.6531-2.0587q2.2551-0.82125 1.4339-3.0764l-2.6494-7.2751q-0.82124-2.2551-3.0764-1.4339l-5.6531 2.0587q-2.2551 0.82125-1.4339 3.0764l2.6494 7.2751q0.82125 2.2551 3.0764 1.4339z" clip-path="url(#a)" fill="#fff" stroke="#fff"/>
<g clip-path="url(#a)">
<g transform="translate(409.46 71.102) rotate(-20.01) scale(.08 -.08)">
<use xlink:href="#aa"/>
</g>
</g>
<path d="m274.84 505.17v35.285q0 2.4 2.4 2.4h7.7425q2.4 0 2.4-2.4v-35.285q0-2.4-2.4-2.4h-7.7425q-2.4 0-2.4 2.4z" clip-path="url(#a)" fill="#fff" stroke="#fff"/>
<g clip-path="url(#a)">
<defs>
<path id="j" d="m-0.29688 72.906h61.672v-8.3125h-25.875v-64.594h-9.9062v64.594h-25.891z"/>
<path id="e" d="m56.203 29.594v-4.3906h-41.312q0.59375-9.2812 5.5938-14.141t13.938-4.8594q5.1719 0 10.031 1.2656t9.6562 3.8125v-8.5q-4.8438-2.0469-9.9219-3.125t-10.297-1.0781q-13.094 0-20.734 7.6094-7.6406 7.625-7.6406 20.625 0 13.422 7.25 21.297 7.25 7.8906 19.562 7.8906 11.031 0 17.453-7.1094 6.4219-7.0938 6.4219-19.297zm-8.9844 2.6406q-0.09375 7.3594-4.125 11.75-4.0312 4.4062-10.672 4.4062-7.5156 0-12.031-4.25t-5.2031-11.969z"/>
<path id="f" d="m41.109 46.297q-1.5156 0.875-3.2969 1.2812-1.7812 0.42188-3.9219 0.42188-7.625 0-11.703-4.9531t-4.0781-14.234v-28.812h-9.0312v54.688h9.0312v-8.5q2.8438 4.9844 7.375 7.3906 4.5469 2.4219 11.047 2.4219 0.92188 0 2.0469-0.125 1.125-0.10938 2.4844-0.35938z"/>
<path id="k" d="m52 44.188q3.375 6.0625 8.0625 8.9375t11.031 2.875q8.5469 0 13.188-5.9844 4.6406-5.9688 4.6406-17v-33.016h-9.0312v32.719q0 7.8594-2.7969 11.656-2.7812 3.8125-8.4844 3.8125-6.9844 0-11.047-4.6406-4.0469-4.625-4.0469-12.641v-30.906h-9.0312v32.719q0 7.9062-2.7812 11.688t-8.5938 3.7812q-6.8906 0-10.953-4.6562-4.0469-4.6562-4.0469-12.625v-30.906h-9.0312v54.688h9.0312v-8.5q3.0781 5.0312 7.375 7.4219t10.203 2.3906q5.9688 0 10.141-3.0312 4.1719-3.0156 6.1719-8.7812z"/>
<path id="i" d="m9.4219 54.688h8.9844v-54.688h-8.9844zm0 21.297h8.9844v-11.391h-8.9844z"/>
<path id="g" d="m54.891 33.016v-33.016h-8.9844v32.719q0 7.7656-3.0312 11.609-3.0312 3.8594-9.0781 3.8594-7.2812 0-11.484-4.6406-4.2031-4.625-4.2031-12.641v-30.906h-9.0312v54.688h9.0312v-8.5q3.2344 4.9375 7.5938 7.375 4.375 2.4375 10.094 2.4375 9.4219 0 14.25-5.8281 4.8438-5.8281 4.8438-17.156z"/>
<path id="h" d="m34.281 27.484q-10.891 0-15.094-2.4844t-4.2031-8.5q0-4.7812 3.1562-7.5938 3.1562-2.7969 8.5625-2.7969 7.4844 0 12 5.2969t4.5156 14.078v2zm17.922 3.7188v-31.203h-8.9844v8.2969q-3.0781-4.9688-7.6719-7.3438t-11.234-2.375q-8.3906 0-13.359 4.7188-4.9531 4.7188-4.9531 12.625 0 9.2188 6.1719 13.906 6.1875 4.6875 18.438 4.6875h12.609v0.89062q0 6.2031-4.0781 9.5938t-11.453 3.3906q-4.6875 0-9.1406-1.125-4.4375-1.125-8.5312-3.375v8.3125q4.9219 1.9062 9.5625 2.8438 4.6406 0.95312 9.0312 0.95312 11.875 0 17.734-6.1562 5.8594-6.1406 5.8594-18.641z"/>
<path id="l" d="m9.4219 75.984h8.9844v-75.984h-8.9844z"/>
</defs>
<g transform="translate(278.9 505.17) rotate(90) scale(.08 -.08)">
<use xlink:href="#j"/>
<use x="60.818359" xlink:href="#e"/>
<use x="122.341797" xlink:href="#f"/>
<use x="163.439453" xlink:href="#k"/>
<use x="260.851562" xlink:href="#i"/>
<use x="288.634766" xlink:href="#g"/>
<use x="352.013672" xlink:href="#h"/>
<use x="413.292969" xlink:href="#l"/>
</g>
</g>
<path d="m781.25 505.17v35.285q0 2.4 2.4 2.4h7.7425q2.4 0 2.4-2.4v-35.285q0-2.4-2.4-2.4h-7.7425q-2.4 0-2.4 2.4z" clip-path="url(#a)" fill="#fff" stroke="#fff"/>
<g clip-path="url(#a)">
<g transform="translate(785.31 505.17) rotate(90) scale(.08 -.08)">
<use xlink:href="#j"/>
<use x="60.818359" xlink:href="#e"/>
<use x="122.341797" xlink:href="#f"/>
<use x="163.439453" xlink:href="#k"/>
<use x="260.851562" xlink:href="#i"/>
<use x="288.634766" xlink:href="#g"/>
<use x="352.013672" xlink:href="#h"/>
<use x="413.292969" xlink:href="#l"/>
</g>
</g>
<path d="m1007.2 449.88 1.9957 4.3916q0.99294 2.185 3.1779 1.192l7.0488-3.2033q2.185-0.99294 1.192-3.1779l-1.9957-4.3916q-0.99294-2.185-3.1779-1.192l-7.0488 3.2033q-2.185 0.99294-1.192 3.1779z" clip-path="url(#a)" fill="#fff" stroke="#fff"/>
<g clip-path="url(#a)">
<defs>
<path id="v" d="m19.672 64.797v-27.391h12.406q6.8906 0 10.641 3.5625 3.7656 3.5625 3.7656 10.156 0 6.5469-3.7656 10.109-3.75 3.5625-10.641 3.5625zm-9.8594 8.1094h22.266q12.266 0 18.531-5.5469 6.2812-5.5469 6.2812-16.234 0-10.797-6.2812-16.312-6.2656-5.5156-18.531-5.5156h-12.406v-29.297h-9.8594z"/>
</defs>
<g transform="translate(1010.9 448.2) rotate(65.561) scale(.08 -.08)">
<use xlink:href="#v"/>
</g>
</g>
<path d="m911.58 383.37 4.5098-3.1q1.9778-1.3595 0.61827-3.3373l-4.3859-6.3805q-1.3595-1.9778-3.3373-0.61827l-4.5098 3.1q-1.9778 1.3595-0.61827 3.3373l4.3859 6.3805q1.3595 1.9778 3.3373 0.61827z" clip-path="url(#a)" fill="#fff" stroke="#fff"/>
<g clip-path="url(#a)">
<defs>
<path id="n" d="m34.188 63.188-13.391-36.281h26.812zm-5.5781 9.7188h11.188l27.781-72.906h-10.25l-6.6406 18.703h-32.859l-6.6406-18.703h-10.406z"/>
</defs>
<g transform="translate(909.28 380.02) rotate(-34.504) scale(.08 -.08)">
<use xlink:href="#n"/>
</g>
</g>
<path d="m961.34 374.87 0.50502 4.8601q0.24805 2.3871 2.6352 2.1391l7.701-0.80023q2.3871-0.24805 2.1391-2.6352l-0.50502-4.8601q-0.24805-2.3871-2.6352-2.1391l-7.701 0.80023q-2.3871 0.24805-2.1391 2.6352z" clip-path="url(#a)" fill="#fff" stroke="#fff"/>
<g clip-path="url(#a)">
<g transform="translate(965.38 374.45) rotate(84.068) scale(.08 -.08)">
<use xlink:href="#j"/>
</g>
</g>
<path d="m193.3 266.65 2.8356-4.6805q1.2436-2.0527-0.8091-3.2963l-6.622-4.0118q-2.0527-1.2436-3.2963 0.8091l-2.8356 4.6805q-1.2436 2.0527 0.8091 3.2963l6.622 4.0118q2.0527 1.2436 3.2963-0.8091z" clip-path="url(#a)" fill="#fff" stroke="#fff"/>
<g clip-path="url(#a)">
<g transform="translate(189.83 264.55) rotate(-58.791) scale(.08 -.08)">
<use xlink:href="#n"/>
</g>
</g>
<path d="m240.75 301.96 1.468-5.9825q0.57194-2.3309-1.7589-2.9028l-7.5194-1.8451q-2.3309-0.57194-2.9028 1.7589l-1.468 5.9825q-0.57194 2.3309 1.7589 2.9028l7.5194 1.8451q2.3309 0.57194 2.9028-1.7589z" clip-path="url(#a)" fill="#fff" stroke="#fff"/>
<g clip-path="url(#a)">
<defs>
<path id="al" d="m19.672 64.797v-56.688h11.922q15.094 0 22.094 6.8281 7 6.8438 7 21.594 0 14.641-7 21.453t-22.094 6.8125zm-9.8594 8.1094h20.266q21.188 0 31.094-8.8125 9.9219-8.8125 9.9219-27.562 0-18.859-9.9688-27.703-9.9531-8.8281-31.047-8.8281h-20.266z"/>
</defs>
<g transform="translate(236.8 301) rotate(-76.213) scale(.08 -.08)">
<use xlink:href="#al"/>
</g>
</g>
<path d="m264.34 300.64 0.5914-4.7874q0.29425-2.3819-2.0876-2.6761l-7.6841-0.94925q-2.3819-0.29425-2.6761 2.0876l-0.5914 4.7874q-0.29425 2.3819 2.0876 2.6761l7.6841 0.94925q2.3819 0.29425 2.6761-2.0876z" clip-path="url(#a)" fill="#fff" stroke="#fff"/>
<g clip-path="url(#a)">
<g transform="translate(260.31 300.14) rotate(-82.958) scale(.08 -.08)">
<use xlink:href="#v"/>
</g>
</g>
<path d="m320.73 296.29 1.2872 5.319q0.56449 2.3327 2.8972 1.7682l7.5253-1.8211q2.3327-0.56449 1.7682-2.8972l-1.2872-5.319q-0.56449-2.3327-2.8972-1.7682l-7.5253 1.8211q-2.3327 0.56449-1.7682 2.8972z" clip-path="url(#a)" fill="#fff" stroke="#fff"/>
<g clip-path="url(#a)">
<g transform="translate(324.68 295.34) rotate(76.396) scale(.08 -.08)">
<use xlink:href="#n"/>
</g>
</g>
<path d="m393.52 153.09 5.1825 1.7577q2.2728 0.77084 3.0437-1.502l2.4868-7.3323q0.77084-2.2728-1.502-3.0437l-5.1825-1.7577q-2.2728-0.77084-3.0437 1.502l-2.4868 7.3323q-0.77084 2.2728 1.502 3.0437z" clip-path="url(#a)" fill="#fff" stroke="#fff"/>
<g clip-path="url(#a)">
<g transform="translate(394.82 149.24) rotate(18.735) scale(.08 -.08)">
<use xlink:href="#n"/>
</g>
</g>
<path d="m307.23 295.52 0.3436 4.8115q0.17096 2.3939 2.5649 2.2229l7.7228-0.55151q2.3939-0.17096 2.2229-2.5649l-0.3436-4.8115q-0.17096-2.3939-2.5649-2.2229l-7.7228 0.55151q-2.3939 0.17096-2.2229 2.5649z" clip-path="url(#a)" fill="#fff" stroke="#fff"/>
<g clip-path="url(#a)">
<g transform="translate(311.28 295.23) rotate(85.915) scale(.08 -.08)">
<use xlink:href="#v"/>
</g>
</g>
<path d="m202.26 266.82 3.0341-4.5544q1.3306-1.9973-0.6667-3.328l-6.4435-4.2927q-1.9973-1.3306-3.328 0.6667l-3.0341 4.5544q-1.3306 1.9973 0.6667 3.328l6.4435 4.2927q1.9973 1.3306 3.328-0.6667z" clip-path="url(#a)" fill="#fff" stroke="#fff"/>
<g clip-path="url(#a)">
<g transform="translate(198.88 264.57) rotate(-56.328) scale(.08 -.08)">
<use xlink:href="#n"/>
</g>
</g>
<path d="m249.75 302.2 1.7381-5.9097q0.67719-2.3025-1.6253-2.9797l-7.4279-2.1846q-2.3025-0.67719-2.9797 1.6253l-1.7381 5.9097q-0.67719 2.3025 1.6253 2.9797l7.4279 2.1846q2.3025 0.67719 2.9797-1.6253z" clip-path="url(#a)" fill="#fff" stroke="#fff"/>
<g clip-path="url(#a)">
<g transform="translate(245.85 301.06) rotate(-73.611) scale(.08 -.08)">
<use xlink:href="#al"/>
</g>
</g>
<path d="m330 295.98 1.0384 5.3731q0.45539 2.3564 2.8118 1.901l7.6018-1.4691q2.3564-0.45539 1.901-2.8118l-1.0384-5.3731q-0.45539-2.3564-2.8118-1.901l-7.6018 1.4691q-2.3564 0.45539-1.901 2.8118z" clip-path="url(#a)" fill="#fff" stroke="#fff"/>
<g clip-path="url(#a)">
<g transform="translate(333.99 295.21) rotate(79.062) scale(.08 -.08)">
<use xlink:href="#n"/>
</g>
</g>
<path d="m402.59 152.96 5.1353 1.8913q2.2521 0.82944 3.0816-1.4227l2.6758-7.2654q0.82944-2.2521-1.4227-3.0816l-5.1353-1.8913q-2.2521-0.82944-3.0816 1.4227l-2.6758 7.2654q-0.82944 2.2521 1.4227 3.0816z" clip-path="url(#a)" fill="#fff" stroke="#fff"/>
<g clip-path="url(#a)">
<g transform="translate(404 149.15) rotate(20.218) scale(.08 -.08)">
<use xlink:href="#n"/>
</g>
</g>
<path d="m320.88 505.17v35.285q0 2.4 2.4 2.4h7.7425q2.4 0 2.4-2.4v-35.285q0-2.4-2.4-2.4h-7.7425q-2.4 0-2.4 2.4z" clip-path="url(#a)" fill="#fff" stroke="#fff"/>
<g clip-path="url(#a)">
<g transform="translate(324.94 505.17) rotate(90) scale(.08 -.08)">
<use xlink:href="#j"/>
<use x="60.818359" xlink:href="#e"/>
<use x="122.341797" xlink:href="#f"/>
<use x="163.439453" xlink:href="#k"/>
<use x="260.851562" xlink:href="#i"/>
<use x="288.634766" xlink:href="#g"/>
<use x="352.013672" xlink:href="#h"/>
<use x="413.292969" xlink:href="#l"/>
</g>
</g>
<path d="m77.751 455.7 2.9849-4.7219q1.2824-2.0287-0.74625-3.3111l-6.5445-4.1371q-2.0287-1.2824-3.3111 0.74625l-2.9849 4.7219q-1.2824 2.0287 0.74625 3.3111l6.5445 4.1371q2.0287 1.2824 3.3111-0.74625z" clip-path="url(#a)" fill="#fff" stroke="#fff"/>
<g clip-path="url(#a)">
<defs>
<path id="o" d="m64.406 67.281v-10.391q-4.9844 4.6406-10.625 6.9219-5.6406 2.2969-11.984 2.2969-12.5 0-19.141-7.6406t-6.6406-22.094q0-14.406 6.6406-22.047t19.141-7.6406q6.3438 0 11.984 2.2969t10.625 6.9375v-10.312q-5.1719-3.5156-10.969-5.2812-5.7812-1.75-12.219-1.75-16.562 0-26.094 10.125-9.5156 10.141-9.5156 27.672 0 17.578 9.5156 27.703 9.5312 10.141 26.094 10.141 6.5312 0 12.312-1.7344 5.7969-1.7344 10.875-5.2031z"/>
</defs>
<g transform="translate(74.316 453.53) rotate(-57.701) scale(.08 -.08)">
<use xlink:href="#o"/>
</g>
</g>
<path d="m90.69 446.99v5.985q0 2.4 2.4 2.4h7.7425q2.4 0 2.4-2.4v-5.985q0-2.4-2.4-2.4h-7.7425q-2.4 0-2.4 2.4z" clip-path="url(#a)" fill="#fff" stroke="#fff"/>
<g clip-path="url(#a)">
<defs>
<path id="as" d="m9.8125 72.906h13.281l32.328-60.984v60.984h9.5625v-72.906h-13.281l-32.312 60.984v-60.984h-9.5781z"/>
</defs>
<g transform="translate(94.754 446.99) rotate(90) scale(.08 -.08)">
<use xlink:href="#as"/>
</g>
</g>
<path d="m113.19 450.98 2.9849 4.7219q1.2824 2.0287 3.3111 0.74625l6.5445-4.1371q2.0287-1.2824 0.74625-3.3111l-2.9849-4.7219q-1.2824-2.0287-3.3111-0.74625l-6.5445 4.1371q-2.0287 1.2824-0.74625 3.3111z" clip-path="url(#a)" fill="#fff" stroke="#fff"/>
<g clip-path="url(#a)">
<g transform="translate(116.62 448.8) rotate(57.701) scale(.08 -.08)">
<use xlink:href="#o"/>
</g>
</g>
<path d="m182.76 505.17v35.285q0 2.4 2.4 2.4h7.7425q2.4 0 2.4-2.4v-35.285q0-2.4-2.4-2.4h-7.7425q-2.4 0-2.4 2.4z" clip-path="url(#a)" fill="#fff" stroke="#fff"/>
<g clip-path="url(#a)">
<g transform="translate(186.83 505.17) rotate(90) scale(.08 -.08)">
<use xlink:href="#j"/>
<use x="60.818359" xlink:href="#e"/>
<use x="122.341797" xlink:href="#f"/>
<use x="163.439453" xlink:href="#k"/>
<use x="260.851562" xlink:href="#i"/>
<use x="288.634766" xlink:href="#g"/>
<use x="352.013672" xlink:href="#h"/>
<use x="413.292969" xlink:href="#l"/>
</g>
</g>
<path d="m228.8 505.17v35.285q0 2.4 2.4 2.4h7.7425q2.4 0 2.4-2.4v-35.285q0-2.4-2.4-2.4h-7.7425q-2.4 0-2.4 2.4z" clip-path="url(#a)" fill="#fff" stroke="#fff"/>
<g clip-path="url(#a)">
<g transform="translate(232.87 505.17) rotate(90) scale(.08 -.08)">
<use xlink:href="#j"/>
<use x="60.818359" xlink:href="#e"/>
<use x="122.341797" xlink:href="#f"/>
<use x="163.439453" xlink:href="#k"/>
<use x="260.851562" xlink:href="#i"/>
<use x="288.634766" xlink:href="#g"/>
<use x="352.013672" xlink:href="#h"/>
<use x="413.292969" xlink:href="#l"/>
</g>
</g>
<path d="m366.91 505.17v35.285q0 2.4 2.4 2.4h7.7425q2.4 0 2.4-2.4v-35.285q0-2.4-2.4-2.4h-7.7425q-2.4 0-2.4 2.4z" clip-path="url(#a)" fill="#fff" stroke="#fff"/>
<g clip-path="url(#a)">
<g transform="translate(370.98 505.17) rotate(90) scale(.08 -.08)">
<use xlink:href="#j"/>
<use x="60.818359" xlink:href="#e"/>
<use x="122.341797" xlink:href="#f"/>
<use x="163.439453" xlink:href="#k"/>
<use x="260.851562" xlink:href="#i"/>
<use x="288.634766" xlink:href="#g"/>
<use x="352.013672" xlink:href="#h"/>
<use x="413.292969" xlink:href="#l"/>
</g>
</g>
<path d="m471.99 341.5 1.6881-5.2962q0.72884-2.2867-1.5578-3.0155l-7.3768-2.3513q-2.2867-0.72884-3.0155 1.5578l-1.6881 5.2962q-0.72884 2.2867 1.5578 3.0155l7.3768 2.3513q2.2867 0.72884 3.0155-1.5578z" clip-path="url(#a)" fill="#fff" stroke="#fff"/>
<g clip-path="url(#a)">
<defs>
<path id="x" d="m44.391 34.188q3.1719-1.0781 6.1719-4.5938t6.0312-9.6719l10.016-19.922h-10.609l-9.3125 18.703q-3.625 7.3281-7.0156 9.7188t-9.25 2.3906h-10.75v-30.812h-9.8594v72.906h22.266q12.5 0 18.656-5.2344 6.1562-5.2188 6.1562-15.766 0-6.8906-3.2031-11.438-3.2031-4.5312-9.2969-6.2812zm-24.719 30.609v-25.875h12.406q7.125 0 10.766 3.2969t3.6406 9.6875-3.6406 9.6406-10.766 3.25z"/>
</defs>
<g transform="translate(468.12 340.26) rotate(-72.321) scale(.08 -.08)">
<use xlink:href="#x"/>
</g>
</g>
<path d="m495.69 340.24 0.74782-4.5401q0.39006-2.3681-1.978-2.7582l-7.6396-1.2584q-2.3681-0.39006-2.7582 1.978l-0.74782 4.5401q-0.39006 2.3681 1.978 2.7582l7.6396 1.2583q2.3681 0.39006 2.7582-1.978z" clip-path="url(#a)" fill="#fff" stroke="#fff"/>
<g clip-path="url(#a)">
<defs>
<path id="au" d="m9.8125 72.906h41.891v-8.3125h-32.031v-21.484h28.906v-8.2969h-28.906v-34.812h-9.8594z"/>
</defs>
<g transform="translate(491.68 339.57) rotate(-80.647) scale(.08 -.08)">
<use xlink:href="#au"/>
</g>
</g>
<path d="m519.14 339.81 0.059746-5.5859q0.025668-2.3999-2.3742-2.4255l-7.7421-0.082807q-2.3999-0.025668-2.4255 2.3742l-0.059746 5.5859q-0.025668 2.3999 2.3742 2.4255l7.7421 0.082807q2.3999 0.025669 2.4255-2.3742z" clip-path="url(#a)" fill="#fff" stroke="#fff"/>
<g clip-path="url(#a)">
<g transform="translate(515.07 339.76) rotate(-89.387) scale(.08 -.08)">
<use xlink:href="#o"/>
</g>
</g>
<path d="m583.2 230.37 4.4828 2.3362q2.1283 1.1092 3.2375-1.0191l3.5783-6.866q1.1092-2.1283-1.0191-3.2375l-4.4828-2.3362q-2.1283-1.1092-3.2375 1.0191l-3.5783 6.866q-1.1092 2.1283 1.0191 3.2375z" clip-path="url(#a)" fill="#fff" stroke="#fff"/>
<g clip-path="url(#a)">
<defs>
<path id="ab" d="m9.8125 72.906h46.094v-8.3125h-36.234v-21.578h34.719v-8.2969h-34.719v-26.422h37.109v-8.2969h-46.969z"/>
</defs>
<g transform="translate(585.08 226.77) rotate(27.527) scale(.08 -.08)">
<use xlink:href="#ab"/>
</g>
</g>
<path d="m412.95 505.17v35.285q0 2.4 2.4 2.4h7.7425q2.4 0 2.4-2.4v-35.285q0-2.4-2.4-2.4h-7.7425q-2.4 0-2.4 2.4z" clip-path="url(#a)" fill="#fff" stroke="#fff"/>
<g clip-path="url(#a)">
<g transform="translate(417.01 505.17) rotate(90) scale(.08 -.08)">
<use xlink:href="#j"/>
<use x="60.818359" xlink:href="#e"/>
<use x="122.341797" xlink:href="#f"/>
<use x="163.439453" xlink:href="#k"/>
<use x="260.851562" xlink:href="#i"/>
<use x="288.634766" xlink:href="#g"/>
<use x="352.013672" xlink:href="#h"/>
<use x="413.292969" xlink:href="#l"/>
</g>
</g>
<path d="m458.99 505.17v35.285q0 2.4 2.4 2.4h7.7425q2.4 0 2.4-2.4v-35.285q0-2.4-2.4-2.4h-7.7425q-2.4 0-2.4 2.4z" clip-path="url(#a)" fill="#fff" stroke="#fff"/>
<g clip-path="url(#a)">
<g transform="translate(463.05 505.17) rotate(90) scale(.08 -.08)">
<use xlink:href="#j"/>
<use x="60.818359" xlink:href="#e"/>
<use x="122.341797" xlink:href="#f"/>
<use x="163.439453" xlink:href="#k"/>
<use x="260.851562" xlink:href="#i"/>
<use x="288.634766" xlink:href="#g"/>
<use x="352.013672" xlink:href="#h"/>
<use x="413.292969" xlink:href="#l"/>
</g>
</g>
<path d="m505.02 505.17v35.285q0 2.4 2.4 2.4h7.7425q2.4 0 2.4-2.4v-35.285q0-2.4-2.4-2.4h-7.7425q-2.4 0-2.4 2.4z" clip-path="url(#a)" fill="#fff" stroke="#fff"/>
<g clip-path="url(#a)">
<g transform="translate(509.09 505.17) rotate(90) scale(.08 -.08)">
<use xlink:href="#j"/>
<use x="60.818359" xlink:href="#e"/>
<use x="122.341797" xlink:href="#f"/>
<use x="163.439453" xlink:href="#k"/>
<use x="260.851562" xlink:href="#i"/>
<use x="288.634766" xlink:href="#g"/>
<use x="352.013672" xlink:href="#h"/>
<use x="413.292969" xlink:href="#l"/>
</g>
</g>
<path d="m614.25 380.63 2.3748-5.0259q1.0253-2.17-1.1446-3.1953l-7.0004-3.3077q-2.17-1.0253-3.1953 1.1446l-2.3748 5.0259q-1.0253 2.17 1.1446 3.1953l7.0004 3.3077q2.17 1.0253 3.1953-1.1446z" clip-path="url(#a)" fill="#fff" stroke="#fff"/>
<g clip-path="url(#a)">
<g transform="translate(610.57 378.89) rotate(-64.709) scale(.08 -.08)">
<use xlink:href="#x"/>
</g>
</g>
<path d="m668.23 301.73 1.6265 4.7862q0.77222 2.2724 3.0446 1.5002l7.3308-2.4912q2.2724-0.77222 1.5002-3.0446l-1.6265-4.7862q-0.77222-2.2724-3.0446-1.5002l-7.3308 2.4912q-2.2724 0.77222-1.5002 3.0446z" clip-path="url(#a)" fill="#fff" stroke="#fff"/>
<g clip-path="url(#a)">
<g transform="translate(672.08 300.42) rotate(71.231) scale(.08 -.08)">
<use xlink:href="#ab"/>
</g>
</g>
<path d="m694.99 374.91 1.8794 5.2606q0.80744 2.2601 3.0675 1.4527l7.2912-2.6048q2.2601-0.80744 1.4527-3.0675l-1.8794-5.2606q-0.80744-2.2601-3.0675-1.4527l-7.2912 2.6048q-2.2601 0.80744-1.4527 3.0675z" clip-path="url(#a)" fill="#fff" stroke="#fff"/>
<g clip-path="url(#a)">
<g transform="translate(698.82 373.55) rotate(70.34) scale(.08 -.08)">
<use xlink:href="#o"/>
</g>
</g>
<path d="m551.06 505.17v35.285q0 2.4 2.4 2.4h7.7425q2.4 0 2.4-2.4v-35.285q0-2.4-2.4-2.4h-7.7425q-2.4 0-2.4 2.4z" clip-path="url(#a)" fill="#fff" stroke="#fff"/>
<g clip-path="url(#a)">
<g transform="translate(555.13 505.17) rotate(90) scale(.08 -.08)">
<use xlink:href="#j"/>
<use x="60.818359" xlink:href="#e"/>
<use x="122.341797" xlink:href="#f"/>
<use x="163.439453" xlink:href="#k"/>
<use x="260.851562" xlink:href="#i"/>
<use x="288.634766" xlink:href="#g"/>
<use x="352.013672" xlink:href="#h"/>
<use x="413.292969" xlink:href="#l"/>
</g>
</g>
<path d="m707.8 412.65 1.8818 5.1388q0.82529 2.2536 3.0789 1.4283l7.2703-2.6624q2.2536-0.82529 1.4283-3.0789l-1.8818-5.1388q-0.82529-2.2536-3.0789-1.4283l-7.2703 2.6624q-2.2536 0.82529-1.4283 3.0789z" clip-path="url(#a)" fill="#fff" stroke="#fff"/>
<g clip-path="url(#a)">
<g transform="translate(711.61 411.26) rotate(69.887) scale(.08 -.08)">
<use xlink:href="#n"/>
</g>
</g>
<path d="m660.15 382.77 3.4983-4.2083q1.5342-1.8456-0.31136-3.3798l-5.9539-4.9495q-1.8456-1.5342-3.3798 0.31136l-3.4983 4.2083q-1.5342 1.8456 0.31136 3.3798l5.9539 4.9495q1.8456 1.5342 3.3798-0.31136z" clip-path="url(#a)" fill="#fff" stroke="#fff"/>
<g clip-path="url(#a)">
<g transform="translate(657.03 380.17) rotate(-50.263) scale(.08 -.08)">
<use xlink:href="#n"/>
</g>
</g>
<path d="m685.21 410.86 0.26533 5.0718q0.12538 2.3967 2.5221 2.2713l7.7319-0.40449q2.3967-0.12538 2.2713-2.5221l-0.26533-5.0718q-0.12538-2.3967-2.5221-2.2713l-7.7319 0.4045q-2.3967 0.12538-2.2713 2.5221z" clip-path="url(#a)" fill="#fff" stroke="#fff"/>
<g clip-path="url(#a)">
<defs>
<path id="ak" d="m53.516 70.516v-9.625q-5.6094 2.6875-10.594 4-4.9844 1.3281-9.625 1.3281-8.0469 0-12.422-3.125t-4.375-8.8906q0-4.8438 2.9062-7.3125 2.9062-2.4531 11.016-3.9688l5.9531-1.2188q11.031-2.1094 16.281-7.4062t5.25-14.172q0-10.609-7.1094-16.078-7.0938-5.4688-20.812-5.4688-5.1719 0-11.016 1.1719-5.8281 1.1719-12.078 3.4688v10.156q6-3.3594 11.766-5.0781 5.7656-1.7031 11.328-1.7031 8.4375 0 13.031 3.3125 4.5938 3.3281 4.5938 9.4844 0 5.3594-3.2969 8.3906t-10.812 4.5469l-6.0156 1.1719q-11.031 2.1875-15.969 6.875-4.9219 4.6875-4.9219 13.047 0 9.6719 6.8125 15.234t18.766 5.5625q5.1406 0 10.453-0.9375 5.3281-0.92188 10.891-2.7656z"/>
</defs>
<g transform="translate(689.27 410.64) rotate(87.005) scale(.08 -.08)">
<use xlink:href="#ak"/>
</g>
</g>
<path d="m735.21 505.17v35.285q0 2.4 2.4 2.4h7.7425q2.4 0 2.4-2.4v-35.285q0-2.4-2.4-2.4h-7.7425q-2.4 0-2.4 2.4z" clip-path="url(#a)" fill="#fff" stroke="#fff"/>
<g clip-path="url(#a)">
<g transform="translate(739.27 505.17) rotate(90) scale(.08 -.08)">
<use xlink:href="#j"/>
<use x="60.818359" xlink:href="#e"/>
<use x="122.341797" xlink:href="#f"/>
<use x="163.439453" xlink:href="#k"/>
<use x="260.851562" xlink:href="#i"/>
<use x="288.634766" xlink:href="#g"/>
<use x="352.013672" xlink:href="#h"/>
<use x="413.292969" xlink:href="#l"/>
</g>
</g>
<path d="m620.03 454.48 1.6493-5.2181q0.7233-2.2884-1.5651-3.0117l-7.3825-2.3334q-2.2884-0.7233-3.0117 1.5651l-1.6493 5.2181q-0.7233 2.2884 1.5651 3.0117l7.3825 2.3334q2.2884 0.7233 3.0117-1.5651z" clip-path="url(#a)" fill="#fff" stroke="#fff"/>
<g clip-path="url(#a)">
<g transform="translate(616.16 453.26) rotate(-72.46) scale(.08 -.08)">
<use xlink:href="#n"/>
</g>
</g>
<path d="m629.8 445.6 3.9921 12.63q0.7233 2.2884 3.0117 1.5651l7.628-2.411q2.2884-0.7233 1.5651-3.0117l-3.9921-12.63q-0.7233-2.2884-3.0117-1.5651l-7.628 2.411q-2.2884 0.7233-1.5651 3.0117z" clip-path="url(#a)" fill="#fff" stroke="#fff"/>
<g clip-path="url(#a)">
<defs>
<path id="av" d="m21 76.422v-100h-8.2969v100z"/>
</defs>
<g transform="translate(633.89 444.31) rotate(72.46) scale(.08 -.08)">
<use xlink:href="#n"/>
<use x="68.408203" xlink:href="#av"/>
<use x="102.099609" xlink:href="#ak"/>
</g>
</g>
<path d="m689.17 505.17v35.285q0 2.4 2.4 2.4h7.7425q2.4 0 2.4-2.4v-35.285q0-2.4-2.4-2.4h-7.7425q-2.4 0-2.4 2.4z" clip-path="url(#a)" fill="#fff" stroke="#fff"/>
<g clip-path="url(#a)">
<g transform="translate(693.24 505.17) rotate(90) scale(.08 -.08)">
<use xlink:href="#j"/>
<use x="60.818359" xlink:href="#e"/>
<use x="122.341797" xlink:href="#f"/>
<use x="163.439453" xlink:href="#k"/>
<use x="260.851562" xlink:href="#i"/>
<use x="288.634766" xlink:href="#g"/>
<use x="352.013672" xlink:href="#h"/>
<use x="413.292969" xlink:href="#l"/>
</g>
</g>
<path d="m597.1 505.17v35.285q0 2.4 2.4 2.4h7.7425q2.4 0 2.4-2.4v-35.285q0-2.4-2.4-2.4h-7.7425q-2.4 0-2.4 2.4z" clip-path="url(#a)" fill="#fff" stroke="#fff"/>
<g clip-path="url(#a)">
<g transform="translate(601.16 505.17) rotate(90) scale(.08 -.08)">
<use xlink:href="#j"/>
<use x="60.818359" xlink:href="#e"/>
<use x="122.341797" xlink:href="#f"/>
<use x="163.439453" xlink:href="#k"/>
<use x="260.851562" xlink:href="#i"/>
<use x="288.634766" xlink:href="#g"/>
<use x="352.013672" xlink:href="#h"/>
<use x="413.292969" xlink:href="#l"/>
</g>
</g>
<path d="m643.14 505.17v35.285q0 2.4 2.4 2.4h7.7425q2.4 0 2.4-2.4v-35.285q0-2.4-2.4-2.4h-7.7425q-2.4 0-2.4 2.4z" clip-path="url(#a)" fill="#fff" stroke="#fff"/>
<g clip-path="url(#a)">
<g transform="translate(647.2 505.17) rotate(90) scale(.08 -.08)">
<use xlink:href="#j"/>
<use x="60.818359" xlink:href="#e"/>
<use x="122.341797" xlink:href="#f"/>
<use x="163.439453" xlink:href="#k"/>
<use x="260.851562" xlink:href="#i"/>
<use x="288.634766" xlink:href="#g"/>
<use x="352.013672" xlink:href="#h"/>
<use x="413.292969" xlink:href="#l"/>
</g>
</g>
<path d="m44.653 505.17v35.285q0 2.4 2.4 2.4h7.7425q2.4 0 2.4-2.4v-35.285q0-2.4-2.4-2.4h-7.7425q-2.4 0-2.4 2.4z" clip-path="url(#a)" fill="#fff" stroke="#fff"/>
<g clip-path="url(#a)">
<g transform="translate(48.717 505.17) rotate(90) scale(.08 -.08)">
<use xlink:href="#j"/>
<use x="60.818359" xlink:href="#e"/>
<use x="122.341797" xlink:href="#f"/>
<use x="163.439453" xlink:href="#k"/>
<use x="260.851562" xlink:href="#i"/>
<use x="288.634766" xlink:href="#g"/>
<use x="352.013672" xlink:href="#h"/>
<use x="413.292969" xlink:href="#l"/>
</g>
</g>
<path d="m90.69 505.17v35.285q0 2.4 2.4 2.4h7.7425q2.4 0 2.4-2.4v-35.285q0-2.4-2.4-2.4h-7.7425q-2.4 0-2.4 2.4z" clip-path="url(#a)" fill="#fff" stroke="#fff"/>
<g clip-path="url(#a)">
<g transform="translate(94.754 505.17) rotate(90) scale(.08 -.08)">
<use xlink:href="#j"/>
<use x="60.818359" xlink:href="#e"/>
<use x="122.341797" xlink:href="#f"/>
<use x="163.439453" xlink:href="#k"/>
<use x="260.851562" xlink:href="#i"/>
<use x="288.634766" xlink:href="#g"/>
<use x="352.013672" xlink:href="#h"/>
<use x="413.292969" xlink:href="#l"/>
</g>
</g>
<path d="m136.73 505.17v35.285q0 2.4 2.4 2.4h7.7425q2.4 0 2.4-2.4v-35.285q0-2.4-2.4-2.4h-7.7425q-2.4 0-2.4 2.4z" clip-path="url(#a)" fill="#fff" stroke="#fff"/>
<g clip-path="url(#a)">
<g transform="translate(140.79 505.17) rotate(90) scale(.08 -.08)">
<use xlink:href="#j"/>
<use x="60.818359" xlink:href="#e"/>
<use x="122.341797" xlink:href="#f"/>
<use x="163.439453" xlink:href="#k"/>
<use x="260.851562" xlink:href="#i"/>
<use x="288.634766" xlink:href="#g"/>
<use x="352.013672" xlink:href="#h"/>
<use x="413.292969" xlink:href="#l"/>
</g>
</g>
<path d="m850.2 454.54 1.6836-5.3265q0.7233-2.2884-1.5651-3.0117l-7.3825-2.3334q-2.2884-0.7233-3.0117 1.5651l-1.6836 5.3265q-0.7233 2.2884 1.5651 3.0117l7.3825 2.3334q2.2884 0.7233 3.0117-1.5651z" clip-path="url(#a)" fill="#fff" stroke="#fff"/>
<g clip-path="url(#a)">
<g transform="translate(846.33 453.31) rotate(-72.46) scale(.08 -.08)">
<use xlink:href="#o"/>
</g>
</g>
<path d="m861.27 449.23 1.6753 5.3003q0.7233 2.2884 3.0117 1.5651l7.3825-2.3334q2.2884-0.7233 1.5651-3.0117l-1.6753-5.3003q-0.7233-2.2884-3.0117-1.5651l-7.3825 2.3334q-2.2884 0.7233-1.5651 3.0117z" clip-path="url(#a)" fill="#fff" stroke="#fff"/>
<g clip-path="url(#a)">
<g transform="translate(865.14 448) rotate(72.46) scale(.08 -.08)">
<use xlink:href="#x"/>
</g>
</g>
<path d="m952.6 455.47 2.7011-4.2729q1.2824-2.0287-0.74625-3.3111l-6.5445-4.1371q-2.0287-1.2824-3.3111 0.74625l-2.7011 4.2729q-1.2824 2.0287 0.74625 3.3111l6.5445 4.1371q2.0287 1.2824 3.3111-0.74625z" clip-path="url(#a)" fill="#fff" stroke="#fff"/>
<g clip-path="url(#a)">
<g transform="translate(949.16 453.3) rotate(-57.701) scale(.08 -.08)">
<use xlink:href="#ab"/>
</g>
</g>
<path d="m965.4 447.19v5.5862q0 2.4 2.4 2.4h7.7425q2.4 0 2.4-2.4v-5.5862q0-2.4-2.4-2.4h-7.7425q-2.4 0-2.4 2.4z" clip-path="url(#a)" fill="#fff" stroke="#fff"/>
<g clip-path="url(#a)">
<g transform="translate(969.46 447.19) rotate(90) scale(.08 -.08)">
<use xlink:href="#o"/>
</g>
</g>
<path d="m987.82 450.86 3.1285 4.9491q1.2824 2.0287 3.3111 0.74625l6.5445-4.1371q2.0287-1.2824 0.74625-3.3111l-3.1285-4.9491q-1.2824-2.0287-3.3111-0.74625l-6.5445 4.1371q-2.0287 1.2824-0.74625 3.3111z" clip-path="url(#a)" fill="#fff" stroke="#fff"/>
<g clip-path="url(#a)">
<defs>
<path id="ar" d="m8.6875 72.906h9.9219v-44.297q0-11.719 4.2344-16.875 4.25-5.1406 13.781-5.1406 9.4688 0 13.719 5.1406 4.25 5.1562 4.25 16.875v44.297h9.9062v-45.516q0-14.25-7.0625-21.531-7.0469-7.2812-20.812-7.2812-13.828 0-20.891 7.2812-7.0469 7.2812-7.0469 21.531z"/>
</defs>
<g transform="translate(991.26 448.69) rotate(57.701) scale(.08 -.08)">
<use xlink:href="#ar"/>
</g>
</g>
<path d="m919.36 505.17v35.285q0 2.4 2.4 2.4h7.7425q2.4 0 2.4-2.4v-35.285q0-2.4-2.4-2.4h-7.7425q-2.4 0-2.4 2.4z" clip-path="url(#a)" fill="#fff" stroke="#fff"/>
<g clip-path="url(#a)">
<g transform="translate(923.42 505.17) rotate(90) scale(.08 -.08)">
<use xlink:href="#j"/>
<use x="60.818359" xlink:href="#e"/>
<use x="122.341797" xlink:href="#f"/>
<use x="163.439453" xlink:href="#k"/>
<use x="260.851562" xlink:href="#i"/>
<use x="288.634766" xlink:href="#g"/>
<use x="352.013672" xlink:href="#h"/>
<use x="413.292969" xlink:href="#l"/>
</g>
</g>
<path d="m965.4 505.17v35.285q0 2.4 2.4 2.4h7.7425q2.4 0 2.4-2.4v-35.285q0-2.4-2.4-2.4h-7.7425q-2.4 0-2.4 2.4z" clip-path="url(#a)" fill="#fff" stroke="#fff"/>
<g clip-path="url(#a)">
<g transform="translate(969.46 505.17) rotate(90) scale(.08 -.08)">
<use xlink:href="#j"/>
<use x="60.818359" xlink:href="#e"/>
<use x="122.341797" xlink:href="#f"/>
<use x="163.439453" xlink:href="#k"/>
<use x="260.851562" xlink:href="#i"/>
<use x="288.634766" xlink:href="#g"/>
<use x="352.013672" xlink:href="#h"/>
<use x="413.292969" xlink:href="#l"/>
</g>
</g>
<path d="m827.29 505.17v35.285q0 2.4 2.4 2.4h7.7425q2.4 0 2.4-2.4v-35.285q0-2.4-2.4-2.4h-7.7425q-2.4 0-2.4 2.4z" clip-path="url(#a)" fill="#fff" stroke="#fff"/>
<g clip-path="url(#a)">
<g transform="translate(831.35 505.17) rotate(90) scale(.08 -.08)">
<use xlink:href="#j"/>
<use x="60.818359" xlink:href="#e"/>
<use x="122.341797" xlink:href="#f"/>
<use x="163.439453" xlink:href="#k"/>
<use x="260.851562" xlink:href="#i"/>
<use x="288.634766" xlink:href="#g"/>
<use x="352.013672" xlink:href="#h"/>
<use x="413.292969" xlink:href="#l"/>
</g>
</g>
<path d="m873.32 505.17v35.285q0 2.4 2.4 2.4h7.7425q2.4 0 2.4-2.4v-35.285q0-2.4-2.4-2.4h-7.7425q-2.4 0-2.4 2.4z" clip-path="url(#a)" fill="#fff" stroke="#fff"/>
<g clip-path="url(#a)">
<g transform="translate(877.39 505.17) rotate(90) scale(.08 -.08)">
<use xlink:href="#j"/>
<use x="60.818359" xlink:href="#e"/>
<use x="122.341797" xlink:href="#f"/>
<use x="163.439453" xlink:href="#k"/>
<use x="260.851562" xlink:href="#i"/>
<use x="288.634766" xlink:href="#g"/>
<use x="352.013672" xlink:href="#h"/>
<use x="413.292969" xlink:href="#l"/>
</g>
</g>
<path d="m1011.4 505.17v35.285q0 2.4 2.4 2.4h7.7425q2.4 0 2.4-2.4v-35.285q0-2.4-2.4-2.4h-7.7425q-2.4 0-2.4 2.4z" clip-path="url(#a)" fill="#fff" stroke="#fff"/>
<g clip-path="url(#a)">
<g transform="translate(1015.5 505.17) rotate(90) scale(.08 -.08)">
<use xlink:href="#j"/>
<use x="60.818359" xlink:href="#e"/>
<use x="122.341797" xlink:href="#f"/>
<use x="163.439453" xlink:href="#k"/>
<use x="260.851562" xlink:href="#i"/>
<use x="288.634766" xlink:href="#g"/>
<use x="352.013672" xlink:href="#h"/>
<use x="413.292969" xlink:href="#l"/>
</g>
</g>
<defs>
<path id="b" d="m0 8.6603c2.2967 0 4.4997-0.9125 6.1237-2.5365 1.624-1.624 2.5365-3.827 2.5365-6.1237s-0.9125-4.4997-2.5365-6.1237c-1.624-1.624-3.827-2.5365-6.1237-2.5365s-4.4997 0.9125-6.1237 2.5365c-1.624 1.624-2.5365 3.827-2.5365 6.1237s0.9125 4.4997 2.5365 6.1237c1.624 1.624 3.827 2.5365 6.1237 2.5365z"/>
</defs>
<g clip-path="url(#a)">
<use x="50.924196" y="559.225959" fill="#ffffff" stroke="#ffffff" xlink:href="#b"/>
</g>
<g clip-path="url(#a)">
<use x="96.96139" y="559.225959" fill="#ffffff" stroke="#ffffff" xlink:href="#b"/>
</g>
<g clip-path="url(#a)">
<use x="142.998585" y="559.225959" fill="#ffffff" stroke="#ffffff" xlink:href="#b"/>
</g>
<g clip-path="url(#a)">
<use x="189.035779" y="559.225959" fill="#ffffff" stroke="#ffffff" xlink:href="#b"/>
</g>
<g clip-path="url(#a)">
<use x="235.072973" y="559.225959" fill="#ffffff" stroke="#ffffff" xlink:href="#b"/>
</g>
<g clip-path="url(#a)">
<use x="281.110168" y="559.225959" fill="#ffffff" stroke="#ffffff" xlink:href="#b"/>
</g>
<g clip-path="url(#a)">
<use x="327.147362" y="559.225959" fill="#ffffff" stroke="#ffffff" xlink:href="#b"/>
</g>
<g clip-path="url(#a)">
<use x="373.184556" y="559.225959" fill="#ffffff" stroke="#ffffff" xlink:href="#b"/>
</g>
<g clip-path="url(#a)">
<use x="419.22175" y="559.225959" fill="#ffffff" stroke="#ffffff" xlink:href="#b"/>
</g>
<g clip-path="url(#a)">
<use x="465.258945" y="559.225959" fill="#ffffff" stroke="#ffffff" xlink:href="#b"/>
</g>
<g clip-path="url(#a)">
<use x="511.296139" y="559.225959" fill="#ffffff" stroke="#ffffff" xlink:href="#b"/>
</g>
<g clip-path="url(#a)">
<use x="557.333333" y="559.225959" fill="#ffffff" stroke="#ffffff" xlink:href="#b"/>
</g>
<g clip-path="url(#a)">
<use x="603.370528" y="559.225959" fill="#ffffff" stroke="#ffffff" xlink:href="#b"/>
</g>
<g clip-path="url(#a)">
<use x="649.407722" y="559.225959" fill="#ffffff" stroke="#ffffff" xlink:href="#b"/>
</g>
<g clip-path="url(#a)">
<use x="695.444916" y="559.225959" fill="#ffffff" stroke="#ffffff" xlink:href="#b"/>
</g>
<g clip-path="url(#a)">
<use x="741.48211" y="559.225959" fill="#ffffff" stroke="#ffffff" xlink:href="#b"/>
</g>
<g clip-path="url(#a)">
<use x="787.519305" y="559.225959" fill="#ffffff" stroke="#ffffff" xlink:href="#b"/>
</g>
<g clip-path="url(#a)">
<use x="833.556499" y="559.225959" fill="#ffffff" stroke="#ffffff" xlink:href="#b"/>
</g>
<g clip-path="url(#a)">
<use x="879.593693" y="559.225959" fill="#ffffff" stroke="#ffffff" xlink:href="#b"/>
</g>
<g clip-path="url(#a)">
<use x="925.630888" y="559.225959" fill="#ffffff" stroke="#ffffff" xlink:href="#b"/>
</g>
<g clip-path="url(#a)">
<use x="971.668082" y="559.225959" fill="#ffffff" stroke="#ffffff" xlink:href="#b"/>
</g>
<g clip-path="url(#a)">
<use x="1017.705276" y="559.225959" fill="#ffffff" stroke="#ffffff" xlink:href="#b"/>
</g>
<g clip-path="url(#a)">
<use x="522.907742" y="27.440708" fill="#ffffff" stroke="#ffffff" xlink:href="#b"/>
</g>
<g clip-path="url(#a)">
<use x="281.110168" y="486.398996" fill="#ffffff" stroke="#ffffff" xlink:href="#b"/>
</g>
<g clip-path="url(#a)">
<use x="787.519305" y="486.398996" fill="#ffffff" stroke="#ffffff" xlink:href="#b"/>
</g>
<g clip-path="url(#a)">
<use x="963.995216" y="339.731965" fill="#ffffff" stroke="#ffffff" xlink:href="#b"/>
</g>
<g clip-path="url(#a)">
<use x="281.749573" y="108.557086" fill="#ffffff" stroke="#ffffff" xlink:href="#b"/>
</g>
<g clip-path="url(#a)">
<use x="300.164451" y="108.557086" fill="#ffffff" stroke="#ffffff" xlink:href="#b"/>
</g>
<g clip-path="url(#a)">
<use x="327.147362" y="486.398996" fill="#ffffff" stroke="#ffffff" xlink:href="#b"/>
</g>
<g clip-path="url(#a)">
<use x="96.96139" y="413.572032" fill="#ffffff" stroke="#ffffff" xlink:href="#b"/>
</g>
<g clip-path="url(#a)">
<use x="189.035779" y="486.398996" fill="#ffffff" stroke="#ffffff" xlink:href="#b"/>
</g>
<g clip-path="url(#a)">
<use x="235.072973" y="486.398996" fill="#ffffff" stroke="#ffffff" xlink:href="#b"/>
</g>
<g clip-path="url(#a)">
<use x="373.184556" y="486.398996" fill="#ffffff" stroke="#ffffff" xlink:href="#b"/>
</g>
<g clip-path="url(#a)">
<use x="514.493166" y="187.49328" fill="#ffffff" stroke="#ffffff" xlink:href="#b"/>
</g>
<g clip-path="url(#a)">
<use x="419.22175" y="486.398996" fill="#ffffff" stroke="#ffffff" xlink:href="#b"/>
</g>
<g clip-path="url(#a)">
<use x="465.258945" y="486.398996" fill="#ffffff" stroke="#ffffff" xlink:href="#b"/>
</g>
<g clip-path="url(#a)">
<use x="511.296139" y="486.398996" fill="#ffffff" stroke="#ffffff" xlink:href="#b"/>
</g>
<g clip-path="url(#a)">
<use x="662.195831" y="264.470052" fill="#ffffff" stroke="#ffffff" xlink:href="#b"/>
</g>
<g clip-path="url(#a)">
<use x="557.333333" y="486.398996" fill="#ffffff" stroke="#ffffff" xlink:href="#b"/>
</g>
<g clip-path="url(#a)">
<use x="687.77205" y="339.731965" fill="#ffffff" stroke="#ffffff" xlink:href="#b"/>
</g>
<g clip-path="url(#a)">
<use x="741.48211" y="486.398996" fill="#ffffff" stroke="#ffffff" xlink:href="#b"/>
</g>
<g clip-path="url(#a)">
<use x="626.389125" y="413.572032" fill="#ffffff" stroke="#ffffff" xlink:href="#b"/>
</g>
<g clip-path="url(#a)">
<use x="695.444916" y="486.398996" fill="#ffffff" stroke="#ffffff" xlink:href="#b"/>
</g>
<g clip-path="url(#a)">
<use x="603.370528" y="486.398996" fill="#ffffff" stroke="#ffffff" xlink:href="#b"/>
</g>
<g clip-path="url(#a)">
<use x="649.407722" y="486.398996" fill="#ffffff" stroke="#ffffff" xlink:href="#b"/>
</g>
<g clip-path="url(#a)">
<use x="50.924196" y="486.398996" fill="#ffffff" stroke="#ffffff" xlink:href="#b"/>
</g>
<g clip-path="url(#a)">
<use x="96.96139" y="486.398996" fill="#ffffff" stroke="#ffffff" xlink:href="#b"/>
</g>
<g clip-path="url(#a)">
<use x="142.998585" y="486.398996" fill="#ffffff" stroke="#ffffff" xlink:href="#b"/>
</g>
<g clip-path="url(#a)">
<use x="1063.742471" y="559.225959" fill="#ffffff" stroke="#ffffff" xlink:href="#b"/>
</g>
<g clip-path="url(#a)">
<use x="856.575096" y="413.572032" fill="#ffffff" stroke="#ffffff" xlink:href="#b"/>
</g>
<g clip-path="url(#a)">
<use x="971.668082" y="413.572032" fill="#ffffff" stroke="#ffffff" xlink:href="#b"/>
</g>
<g clip-path="url(#a)">
<use x="925.630888" y="486.398996" fill="#ffffff" stroke="#ffffff" xlink:href="#b"/>
</g>
<g clip-path="url(#a)">
<use x="971.668082" y="486.398996" fill="#ffffff" stroke="#ffffff" xlink:href="#b"/>
</g>
<g clip-path="url(#a)">
<use x="833.556499" y="486.398996" fill="#ffffff" stroke="#ffffff" xlink:href="#b"/>
</g>
<g clip-path="url(#a)">
<use x="879.593693" y="486.398996" fill="#ffffff" stroke="#ffffff" xlink:href="#b"/>
</g>
<g clip-path="url(#a)">
<use x="1017.705276" y="486.398996" fill="#ffffff" stroke="#ffffff" xlink:href="#b"/>
</g>
<g clip-path="url(#a)">
<defs>
<path id="ah" d="m32.172-5.0781q-3.7969-9.7656-7.4219-12.734-3.6094-2.9844-9.6562-2.9844h-7.1875v7.5156h5.2812q3.7031 0 5.75 1.7656 2.0625 1.75 4.5469 8.2969l1.6094 4.0938-22.109 53.812h9.5156l17.094-42.766 17.094 42.766h9.5156z"/>
</defs>
<g transform="translate(36.279 561.99) scale(.1 -.1)">
<use xlink:href="#o"/>
<use x="69.824219" xlink:href="#h"/>
<use x="131.103516" xlink:href="#f"/>
<use x="172.185547" xlink:href="#e"/>
<use x="233.708984" xlink:href="#ah"/>
</g>
</g>
<g clip-path="url(#a)">
<defs>
<path id="ai" d="m45.406 46.391v29.594h8.9844v-75.984h-8.9844v8.2031q-2.8281-4.875-7.1562-7.25-4.3125-2.375-10.375-2.375-9.9062 0-16.141 7.9062-6.2188 7.9219-6.2188 20.812t6.2188 20.797q6.2344 7.9062 16.141 7.9062 6.0625 0 10.375-2.375 4.3281-2.3594 7.1562-7.2344zm-30.609-19.094q0-9.9062 4.0781-15.547t11.203-5.6406 11.219 5.6406q4.1094 5.6406 4.1094 15.547t-4.1094 15.547q-4.0938 5.6406-11.219 5.6406t-11.203-5.6406-4.0781-15.547z"/>
</defs>
<g transform="translate(87.554 561.99) scale(.1 -.1)">
<use xlink:href="#h"/>
<use x="61.279297" xlink:href="#g"/>
<use x="124.658203" xlink:href="#ai"/>
</g>
</g>
<g clip-path="url(#a)">
<defs>
<path id="t" d="m54.891 33.016v-33.016h-8.9844v32.719q0 7.7656-3.0312 11.609-3.0312 3.8594-9.0781 3.8594-7.2812 0-11.484-4.6406-4.2031-4.625-4.2031-12.641v-30.906h-9.0312v75.984h9.0312v-29.797q3.2344 4.9375 7.5938 7.375 4.375 2.4375 10.094 2.4375 9.4219 0 14.25-5.8281 4.8438-5.8281 4.8438-17.156z"/>
<path id="q" d="m44.281 53.078v-8.5q-3.7969 1.9531-7.9062 2.9219-4.0938 0.98438-8.5 0.98438-6.6875 0-10.031-2.0469t-3.3438-6.1562q0-3.125 2.3906-4.9062t9.625-3.3906l3.0781-0.6875q9.5625-2.0469 13.594-5.7812t4.0312-10.422q0-7.625-6.0312-12.078-6.0312-4.4375-16.578-4.4375-4.3906 0-9.1562 0.85938t-10.031 2.5625v9.2812q4.9844-2.5938 9.8125-3.8906 4.8281-1.2812 9.5781-1.2812 6.3438 0 9.75 2.1719 3.4219 2.1719 3.4219 6.125 0 3.6562-2.4688 5.6094-2.4531 1.9531-10.812 3.7656l-3.125 0.73438q-8.3438 1.75-12.062 5.3906-3.7031 3.6406-3.7031 9.9844 0 7.7188 5.4688 11.906 5.4688 4.2031 15.531 4.2031 4.9688 0 9.3594-0.73438 4.4062-0.71875 8.1094-2.1875z"/>
<path id="s" d="m18.312 70.219v-15.531h18.5v-6.9844h-18.5v-29.688q0-6.6875 1.8281-8.5938t7.4531-1.9062h9.2188v-7.5156h-9.2188q-10.406 0-14.359 3.875-3.9531 3.8906-3.9531 14.141v29.688h-6.5938v6.9844h6.5938v15.531z"/>
<path id="r" d="m30.609 48.391q-7.2188 0-11.422-5.6406t-4.2031-15.453 4.1719-15.453q4.1875-5.6406 11.453-5.6406 7.1875 0 11.375 5.6562 4.2031 5.6719 4.2031 15.438 0 9.7188-4.2031 15.406-4.1875 5.6875-11.375 5.6875zm0 7.6094q11.719 0 18.406-7.625 6.7031-7.6094 6.7031-21.078 0-13.422-6.7031-21.078-6.6875-7.6406-18.406-7.6406-11.766 0-18.438 7.6406-6.6562 7.6562-6.6562 21.078 0 13.469 6.6562 21.078 6.6719 7.625 18.438 7.625z"/>
<path id="ao" d="m18.109 8.2031v-29h-9.0312v75.484h9.0312v-8.2969q2.8438 4.875 7.1562 7.2344 4.3281 2.375 10.328 2.375 9.9688 0 16.188-7.9062 6.2344-7.9062 6.2344-20.797t-6.2344-20.812q-6.2188-7.9062-16.188-7.9062-6 0-10.328 2.375-4.3125 2.375-7.1562 7.25zm30.578 19.094q0 9.9062-4.0781 15.547t-11.203 5.6406q-7.1406 0-11.219-5.6406t-4.0781-15.547 4.0781-15.547 11.219-5.6406q7.125 0 11.203 5.6406t4.0781 15.547z"/>
</defs>
<g transform="translate(113.79 561.99) scale(.1 -.1)">
<use xlink:href="#o"/>
<use x="69.824219" xlink:href="#t"/>
<use x="133.203125" xlink:href="#f"/>
<use x="174.316406" xlink:href="#i"/>
<use x="202.099609" xlink:href="#q"/>
<use x="254.199219" xlink:href="#s"/>
<use x="293.408203" xlink:href="#r"/>
<use x="354.589844" xlink:href="#ao"/>
<use x="418.066406" xlink:href="#t"/>
<use x="481.445312" xlink:href="#e"/>
<use x="542.96875" xlink:href="#f"/>
</g>
</g>
<g clip-path="url(#a)">
<defs>
<path id="aj" d="m48.688 27.297q0 9.9062-4.0781 15.547t-11.203 5.6406q-7.1406 0-11.219-5.6406t-4.0781-15.547 4.0781-15.547 11.219-5.6406q7.125 0 11.203 5.6406t4.0781 15.547zm-30.578 19.094q2.8438 4.875 7.1562 7.2344 4.3281 2.375 10.328 2.375 9.9688 0 16.188-7.9062 6.2344-7.9062 6.2344-20.797t-6.2344-20.812q-6.2188-7.9062-16.188-7.9062-6 0-10.328 2.375-4.3125 2.375-7.1562 7.25v-8.2031h-9.0312v75.984h9.0312z"/>
<path id="u" d="m45.406 27.984q0 9.7656-4.0312 15.125-4.0156 5.375-11.297 5.375-7.2188 0-11.25-5.375-4.0312-5.3594-4.0312-15.125 0-9.7188 4.0312-15.094t11.25-5.375q7.2812 0 11.297 5.375 4.0312 5.375 4.0312 15.094zm8.9844-21.203q0-13.953-6.2031-20.766-6.1875-6.8125-18.984-6.8125-4.7344 0-8.9375 0.70312t-8.1562 2.1719v8.7344q3.9531-2.1406 7.8125-3.1562 3.8594-1.0312 7.8594-1.0312 8.8438 0 13.234 4.6094t4.3906 13.938v4.4531q-2.7812-4.8438-7.125-7.2344t-10.406-2.3906q-10.047 0-16.203 7.6562-6.1562 7.6719-6.1562 20.328 0 12.688 6.1562 20.344 6.1562 7.6719 16.203 7.6719 6.0625 0 10.406-2.3906t7.125-7.2188v8.2969h8.9844z"/>
</defs>
<g transform="translate(173.38 561.99) scale(.1 -.1)">
<use xlink:href="#aj"/>
<use x="63.476562" xlink:href="#e"/>
<use x="125" xlink:href="#u"/>
<use x="188.476562" xlink:href="#h"/>
<use x="249.755859" xlink:href="#g"/>
</g>
</g>
<g clip-path="url(#a)">
<defs>
<path id="aw" d="m4.2031 54.688h8.9844l11.234-42.672 11.172 42.672h10.594l11.234-42.672 11.188 42.672h8.9844l-14.312-54.688h-10.594l-11.766 44.828-11.812-44.828h-10.609z"/>
</defs>
<g transform="translate(217.85 561.99) scale(.1 -.1)">
<use xlink:href="#aw"/>
<use x="81.787109" xlink:href="#f"/>
<use x="122.900391" xlink:href="#i"/>
<use x="150.683594" xlink:href="#s"/>
<use x="189.892578" xlink:href="#i"/>
<use x="217.675781" xlink:href="#g"/>
<use x="281.054688" xlink:href="#u"/>
</g>
</g>
<g clip-path="url(#a)">
<g transform="translate(271.7 561.99) scale(.1 -.1)">
<use xlink:href="#h"/>
<use x="61.279297" xlink:href="#g"/>
<use x="124.658203" xlink:href="#ai"/>
</g>
</g>
<g clip-path="url(#a)">
<defs>
<path id="aq" d="m48.781 52.594v-8.4062q-3.8125 2.1094-7.6406 3.1562t-7.7344 1.0469q-8.75 0-13.594-5.5469-4.8281-5.5312-4.8281-15.547t4.8281-15.562q4.8438-5.5312 13.594-5.5312 3.9062 0 7.7344 1.0469t7.6406 3.1562v-8.3125q-3.7656-1.75-7.7969-2.625-4.0156-0.89062-8.5625-0.89062-12.359 0-19.641 7.7656-7.2656 7.7656-7.2656 20.953 0 13.375 7.3438 21.031 7.3594 7.6719 20.156 7.6719 4.1406 0 8.0938-0.85938 3.9531-0.84375 7.6719-2.5469z"/>
</defs>
<g transform="translate(299.9 561.99) scale(.1 -.1)">
<use xlink:href="#aq"/>
<use x="54.980469" xlink:href="#r"/>
<use x="116.162109" xlink:href="#k"/>
<use x="213.574219" xlink:href="#ao"/>
<use x="277.050781" xlink:href="#r"/>
<use x="338.232422" xlink:href="#q"/>
<use x="390.332031" xlink:href="#i"/>
<use x="418.115234" xlink:href="#g"/>
<use x="481.494141" xlink:href="#u"/>
</g>
</g>
<g clip-path="url(#a)">
<g transform="translate(358.57 561.99) scale(.1 -.1)">
<use xlink:href="#q"/>
<use x="52.099609" xlink:href="#r"/>
<use x="113.28125" xlink:href="#g"/>
<use x="176.660156" xlink:href="#u"/>
<use x="240.136719" xlink:href="#q"/>
</g>
</g>
<g clip-path="url(#a)">
<g transform="translate(414.66 561.99) scale(.1 -.1)">
<use xlink:href="#i"/>
<use x="27.783203" xlink:href="#g"/>
</g>
</g>
<g clip-path="url(#a)">
<g transform="translate(457.05 561.99) scale(.1 -.1)">
<use xlink:href="#s"/>
<use x="39.208984" xlink:href="#t"/>
<use x="102.587891" xlink:href="#e"/>
</g>
</g>
<g clip-path="url(#a)">
<g transform="translate(486.3 561.99) scale(.1 -.1)">
<use xlink:href="#aj"/>
<use x="63.476562" xlink:href="#h"/>
<use x="124.755859" xlink:href="#q"/>
<use x="176.855469" xlink:href="#e"/>
<use x="238.378906" xlink:href="#k"/>
<use x="335.791016" xlink:href="#e"/>
<use x="397.314453" xlink:href="#g"/>
<use x="460.693359" xlink:href="#s"/>
</g>
</g>
<g clip-path="url(#a)">
<defs>
<path id="ap" d="m37.109 75.984v-7.4844h-8.5938q-4.8281 0-6.7188-1.9531-1.875-1.9531-1.875-7.0312v-4.8281h14.797v-6.9844h-14.797v-47.703h-9.0312v47.703h-8.5938v6.9844h8.5938v3.8125q0 9.125 4.25 13.297 4.25 4.1875 13.469 4.1875z"/>
</defs>
<g transform="translate(552.51 561.99) scale(.1 -.1)">
<use xlink:href="#r"/>
<use x="61.181641" xlink:href="#ap"/>
</g>
</g>
<g clip-path="url(#a)">
<g transform="translate(596.21 561.99) scale(.1 -.1)">
<use xlink:href="#t"/>
<use x="63.378906" xlink:href="#i"/>
<use x="91.162109" xlink:href="#q"/>
</g>
</g>
<g clip-path="url(#a)">
<g transform="translate(634.32 561.99) scale(.1 -.1)">
<use xlink:href="#ap"/>
<use x="35.205078" xlink:href="#h"/>
<use x="96.484375" xlink:href="#s"/>
<use x="135.693359" xlink:href="#t"/>
<use x="199.072266" xlink:href="#e"/>
<use x="260.595703" xlink:href="#f"/>
</g>
</g>
<g clip-path="url(#a)">
<defs>
<path id="an" d="m17.922 72.906v-27.109h-8.2969v27.109z"/>
</defs>
<g transform="translate(691.47 561.99) scale(.1 -.1)">
<use xlink:href="#an"/>
<use x="27.490234" xlink:href="#q"/>
</g>
</g>
<g clip-path="url(#a)">
<g transform="translate(728.73 561.99) scale(.1 -.1)">
<use xlink:href="#q"/>
<use x="52.099609" xlink:href="#s"/>
<use x="91.308594" xlink:href="#r"/>
<use x="152.490234" xlink:href="#f"/>
<use x="193.572266" xlink:href="#e"/>
</g>
</g>
<g clip-path="url(#a)">
<defs>
<path id="ax" d="m8.5 21.578v33.109h8.9844v-32.766q0-7.7656 3.0156-11.656 3.0312-3.875 9.0938-3.875 7.2656 0 11.484 4.6406 4.2344 4.6406 4.2344 12.656v31h8.9844v-54.688h-8.9844v8.4062q-3.2656-4.9844-7.5938-7.4062-4.3125-2.4219-10.031-2.4219-9.4219 0-14.312 5.8594-4.875 5.8594-4.875 17.141z"/>
</defs>
<g transform="translate(771.39 561.99) scale(.1 -.1)">
<use xlink:href="#ai"/>
<use x="63.476562" xlink:href="#ax"/>
<use x="126.855469" xlink:href="#f"/>
<use x="167.96875" xlink:href="#i"/>
<use x="195.751953" xlink:href="#g"/>
<use x="259.130859" xlink:href="#u"/>
</g>
</g>
<g clip-path="url(#a)">
<g transform="translate(818.91 561.99) scale(.1 -.1)">
<use xlink:href="#o"/>
<use x="69.824219" xlink:href="#h"/>
<use x="131.103516" xlink:href="#f"/>
<use x="172.185547" xlink:href="#e"/>
<use x="233.708984" xlink:href="#ah"/>
</g>
</g>
<g clip-path="url(#a)">
<g transform="translate(875.61 561.99) scale(.1 -.1)">
<use xlink:href="#an"/>
<use x="27.490234" xlink:href="#q"/>
</g>
</g>
<g clip-path="url(#a)">
<g transform="translate(910.28 561.99) scale(.1 -.1)">
<use xlink:href="#q"/>
<use x="52.099609" xlink:href="#e"/>
<use x="113.623047" xlink:href="#g"/>
<use x="177.001953" xlink:href="#i"/>
<use x="204.785156" xlink:href="#r"/>
<use x="265.966797" xlink:href="#f"/>
</g>
</g>
<g clip-path="url(#a)">
<g transform="translate(960.51 561.99) scale(.1 -.1)">
<use xlink:href="#ah"/>
<use x="59.179688" xlink:href="#e"/>
<use x="120.703125" xlink:href="#h"/>
<use x="181.982422" xlink:href="#f"/>
</g>
</g>
<g clip-path="url(#a)">
<defs>
<path id="d" d="m10.688 12.406h10.312v-12.406h-10.312z"/>
</defs>
<g transform="translate(1016.1 561.99) scale(.1 -.1)">
<use xlink:href="#d"/>
</g>
</g>
<g clip-path="url(#a)">
<defs>
<path id="c" d="m12.406 8.2969h16.109v55.625l-17.531-3.5156v8.9844l17.438 3.5156h9.8594v-64.609h16.109v-8.2969h-41.984z"/>
</defs>
<g transform="translate(514.96 30.2) scale(.1 -.1)">
<use xlink:href="#c"/>
<use x="63.623047" xlink:href="#d"/>
<use x="95.410156" xlink:href="#c"/>
</g>
</g>
<g clip-path="url(#a)">
<defs>
<path id="m" d="m19.188 8.2969h34.422v-8.2969h-46.281v8.2969q5.6094 5.8125 15.297 15.594 9.7031 9.7969 12.188 12.641 4.7344 5.3125 6.6094 9 1.8906 3.6875 1.8906 7.25 0 5.8125-4.0781 9.4688-4.0781 3.6719-10.625 3.6719-4.6406 0-9.7969-1.6094-5.1406-1.6094-11-4.8906v9.9688q5.9531 2.3906 11.125 3.6094 5.1875 1.2188 9.4844 1.2188 11.328 0 18.062-5.6719 6.7344-5.6562 6.7344-15.125 0-4.5-1.6875-8.5312-1.6719-4.0156-6.125-9.4844-1.2188-1.4219-7.7656-8.1875-6.5312-6.7656-18.453-18.922z"/>
</defs>
<g transform="translate(273.16 489.16) scale(.1 -.1)">
<use xlink:href="#c"/>
<use x="63.623047" xlink:href="#d"/>
<use x="95.410156" xlink:href="#m"/>
</g>
</g>
<g clip-path="url(#a)">
<defs>
<path id="p" d="m40.578 39.312q7.0781-1.5156 11.047-6.3125 3.9844-4.7812 3.9844-11.812 0-10.781-7.4219-16.703-7.4219-5.9062-21.094-5.9062-4.5781 0-9.4375 0.90625t-10.031 2.7188v9.5156q4.0938-2.3906 8.9688-3.6094 4.8906-1.2188 10.219-1.2188 9.2656 0 14.125 3.6562t4.8594 10.641q0 6.4531-4.5156 10.078-4.5156 3.6406-12.562 3.6406h-8.5v8.1094h8.8906q7.2656 0 11.125 2.9062t3.8594 8.375q0 5.6094-3.9844 8.6094-3.9688 3.0156-11.391 3.0156-4.0625 0-8.7031-0.89062-4.6406-0.875-10.203-2.7188v8.7812q5.625 1.5625 10.531 2.3438t9.25 0.78125q11.234 0 17.766-5.1094 6.5469-5.0938 6.5469-13.781 0-6.0625-3.4688-10.234t-9.8594-5.7812z"/>
</defs>
<g transform="translate(779.57 489.16) scale(.1 -.1)">
<use xlink:href="#c"/>
<use x="63.623047" xlink:href="#d"/>
<use x="95.410156" xlink:href="#p"/>
</g>
</g>
<g clip-path="url(#a)">
<defs>
<path id="w" d="m37.797 64.312-24.906-38.922h24.906zm-2.5938 8.5938h12.406v-47.516h10.406v-8.2031h-10.406v-17.188h-9.8125v17.188h-32.906v9.5156z"/>
</defs>
<g transform="translate(956.04 342.49) scale(.1 -.1)">
<use xlink:href="#c"/>
<use x="63.623047" xlink:href="#d"/>
<use x="95.410156" xlink:href="#w"/>
</g>
</g>
<g clip-path="url(#a)">
<defs>
<path id="ae" d="m33.016 40.375q-6.6406 0-10.531-4.5469-3.875-4.5312-3.875-12.438 0-7.8594 3.875-12.438 3.8906-4.5625 10.531-4.5625t10.516 4.5625q3.875 4.5781 3.875 12.438 0 7.9062-3.875 12.438-3.875 4.5469-10.516 4.5469zm19.578 30.922v-8.9844q-3.7188 1.75-7.5 2.6719-3.7812 0.9375-7.5 0.9375-9.7656 0-14.922-6.5938-5.1406-6.5938-5.875-19.922 2.875 4.25 7.2188 6.5156 4.3594 2.2656 9.5781 2.2656 10.984 0 17.359-6.6719 6.375-6.6562 6.375-18.125 0-11.234-6.6406-18.031-6.6406-6.7812-17.672-6.7812-12.656 0-19.344 9.6875-6.6875 9.7031-6.6875 28.109 0 17.281 8.2031 27.562t22.016 10.281q3.7188 0 7.5-0.73438t7.8906-2.1875z"/>
</defs>
<g transform="translate(273.8 111.32) scale(.1 -.1)">
<use xlink:href="#c"/>
<use x="63.623047" xlink:href="#d"/>
<use x="95.410156" xlink:href="#ae"/>
</g>
</g>
<g clip-path="url(#a)">
<defs>
<path id="ad" d="m8.2031 72.906h46.875v-4.2031l-26.469-68.703h-10.297l24.906 64.594h-35.016z"/>
</defs>
<g transform="translate(292.21 111.32) scale(.1 -.1)">
<use xlink:href="#c"/>
<use x="63.623047" xlink:href="#d"/>
<use x="95.410156" xlink:href="#ad"/>
</g>
</g>
<g clip-path="url(#a)">
<defs>
<path id="am" d="m31.781 34.625q-7.0312 0-11.062-3.7656-4.0156-3.7656-4.0156-10.344 0-6.5938 4.0156-10.359 4.0312-3.7656 11.062-3.7656t11.078 3.7812q4.0625 3.7969 4.0625 10.344 0 6.5781-4.0312 10.344-4.0156 3.7656-11.109 3.7656zm-9.8594 4.1875q-6.3438 1.5625-9.8906 5.9062-3.5312 4.3594-3.5312 10.609 0 8.7344 6.2188 13.812 6.2344 5.0781 17.062 5.0781 10.891 0 17.094-5.0781t6.2031-13.812q0-6.25-3.5469-10.609-3.5312-4.3438-9.8281-5.9062 7.125-1.6562 11.094-6.5 3.9844-4.8281 3.9844-11.797 0-10.609-6.4688-16.281-6.4688-5.6562-18.531-5.6562-12.047 0-18.531 5.6562-6.4688 5.6719-6.4688 16.281 0 6.9688 4 11.797 4.0156 4.8438 11.141 6.5zm-3.6094 15.578q0-5.6562 3.5312-8.8281 3.5469-3.1719 9.9375-3.1719 6.3594 0 9.9375 3.1719 3.5938 3.1719 3.5938 8.8281 0 5.6719-3.5938 8.8438-3.5781 3.1719-9.9375 3.1719-6.3906 0-9.9375-3.1719-3.5312-3.1719-3.5312-8.8438z"/>
</defs>
<g transform="translate(319.2 489.16) scale(.1 -.1)">
<use xlink:href="#c"/>
<use x="63.623047" xlink:href="#d"/>
<use x="95.410156" xlink:href="#am"/>
</g>
</g>
<g clip-path="url(#a)">
<defs>
<path id="ac" d="m10.984 1.5156v8.9844q3.7188-1.7656 7.5156-2.6875 3.8125-0.92188 7.4844-0.92188 9.7656 0 14.906 6.5625 5.1562 6.5625 5.8906 19.953-2.8281-4.2031-7.1875-6.4531-4.3438-2.25-9.6094-2.25-10.938 0-17.312 6.6094-6.375 6.625-6.375 18.109 0 11.219 6.6406 18 6.6406 6.7969 17.672 6.7969 12.656 0 19.312-9.7031 6.6719-9.6875 6.6719-28.141 0-17.234-8.1875-27.516-8.1719-10.281-21.984-10.281-3.7188 0-7.5312 0.73438-3.7969 0.73438-7.9062 2.2031zm19.625 30.906q6.6406 0 10.516 4.5312 3.8906 4.5469 3.8906 12.469 0 7.8594-3.8906 12.422-3.875 4.5625-10.516 4.5625t-10.516-4.5625-3.875-12.422q0-7.9219 3.875-12.469 3.875-4.5312 10.516-4.5312z"/>
</defs>
<g transform="translate(89.01 416.33) scale(.1 -.1)">
<use xlink:href="#c"/>
<use x="63.623047" xlink:href="#d"/>
<use x="95.410156" xlink:href="#ac"/>
</g>
</g>
<g clip-path="url(#a)">
<defs>
<path id="ag" d="m31.781 66.406q-7.6094 0-11.453-7.5-3.8281-7.4844-3.8281-22.531 0-14.984 3.8281-22.484 3.8438-7.5 11.453-7.5 7.6719 0 11.5 7.5 3.8438 7.5 3.8438 22.484 0 15.047-3.8438 22.531-3.8281 7.5-11.5 7.5zm0 7.8125q12.266 0 18.734-9.7031 6.4688-9.6875 6.4688-28.141 0-18.406-6.4688-28.109-6.4688-9.6875-18.734-9.6875-12.25 0-18.719 9.6875-6.4688 9.7031-6.4688 28.109 0 18.453 6.4688 28.141 6.4688 9.7031 18.719 9.7031z"/>
</defs>
<g transform="translate(177.9 489.16) scale(.1 -.1)">
<use xlink:href="#c"/>
<use x="63.623047" xlink:href="#d"/>
<use x="95.410156" xlink:href="#c"/>
<use x="159.033203" xlink:href="#ag"/>
</g>
</g>
<g clip-path="url(#a)">
<g transform="translate(223.94 489.16) scale(.1 -.1)">
<use xlink:href="#c"/>
<use x="63.623047" xlink:href="#d"/>
<use x="95.410156" xlink:href="#c"/>
<use x="159.033203" xlink:href="#c"/>
</g>
</g>
<g clip-path="url(#a)">
<g transform="translate(362.05 489.16) scale(.1 -.1)">
<use xlink:href="#c"/>
<use x="63.623047" xlink:href="#d"/>
<use x="95.410156" xlink:href="#c"/>
<use x="159.033203" xlink:href="#m"/>
</g>
</g>
<g clip-path="url(#a)">
<g transform="translate(503.36 190.25) scale(.1 -.1)">
<use xlink:href="#c"/>
<use x="63.623047" xlink:href="#d"/>
<use x="95.410156" xlink:href="#c"/>
<use x="159.033203" xlink:href="#p"/>
</g>
</g>
<g clip-path="url(#a)">
<g transform="translate(408.09 489.16) scale(.1 -.1)">
<use xlink:href="#c"/>
<use x="63.623047" xlink:href="#d"/>
<use x="95.410156" xlink:href="#c"/>
<use x="159.033203" xlink:href="#w"/>
</g>
</g>
<g clip-path="url(#a)">
<defs>
<path id="af" d="m10.797 72.906h38.719v-8.3125h-29.688v-17.859q2.1406 0.73438 4.2812 1.0938 2.1562 0.35938 4.3125 0.35938 12.203 0 19.328-6.6875 7.1406-6.6875 7.1406-18.109 0-11.766-7.3281-18.297-7.3281-6.5156-20.656-6.5156-4.5938 0-9.3594 0.78125-4.75 0.78125-9.8281 2.3438v9.9219q4.3906-2.3906 9.0781-3.5625t9.9062-1.1719q8.4531 0 13.375 4.4375 4.9375 4.4375 4.9375 12.062 0 7.6094-4.9375 12.047-4.9219 4.4531-13.375 4.4531-3.9531 0-7.8906-0.875-3.9219-0.875-8.0156-2.7344z"/>
</defs>
<g transform="translate(454.13 489.16) scale(.1 -.1)">
<use xlink:href="#c"/>
<use x="63.623047" xlink:href="#d"/>
<use x="95.410156" xlink:href="#c"/>
<use x="159.033203" xlink:href="#af"/>
</g>
</g>
<g clip-path="url(#a)">
<g transform="translate(500.16 489.16) scale(.1 -.1)">
<use xlink:href="#c"/>
<use x="63.623047" xlink:href="#d"/>
<use x="95.410156" xlink:href="#c"/>
<use x="159.033203" xlink:href="#ae"/>
</g>
</g>
<g clip-path="url(#a)">
<g transform="translate(651.06 267.23) scale(.1 -.1)">
<use xlink:href="#c"/>
<use x="63.623047" xlink:href="#d"/>
<use x="95.410156" xlink:href="#c"/>
<use x="159.033203" xlink:href="#ad"/>
</g>
</g>
<g clip-path="url(#a)">
<g transform="translate(546.2 489.16) scale(.1 -.1)">
<use xlink:href="#c"/>
<use x="63.623047" xlink:href="#d"/>
<use x="95.410156" xlink:href="#c"/>
<use x="159.033203" xlink:href="#am"/>
</g>
</g>
<g clip-path="url(#a)">
<g transform="translate(676.64 342.49) scale(.1 -.1)">
<use xlink:href="#c"/>
<use x="63.623047" xlink:href="#d"/>
<use x="95.410156" xlink:href="#c"/>
<use x="159.033203" xlink:href="#ac"/>
</g>
</g>
<g clip-path="url(#a)">
<g transform="translate(730.35 489.16) scale(.1 -.1)">
<use xlink:href="#c"/>
<use x="63.623047" xlink:href="#d"/>
<use x="95.410156" xlink:href="#m"/>
<use x="159.033203" xlink:href="#ag"/>
</g>
</g>
<g clip-path="url(#a)">
<g transform="translate(615.26 416.33) scale(.1 -.1)">
<use xlink:href="#c"/>
<use x="63.623047" xlink:href="#d"/>
<use x="95.410156" xlink:href="#m"/>
<use x="159.033203" xlink:href="#c"/>
</g>
</g>
<g clip-path="url(#a)">
<g transform="translate(684.31 489.16) scale(.1 -.1)">
<use xlink:href="#c"/>
<use x="63.623047" xlink:href="#d"/>
<use x="95.410156" xlink:href="#m"/>
<use x="159.033203" xlink:href="#m"/>
</g>
</g>
<g clip-path="url(#a)">
<g transform="translate(592.24 489.16) scale(.1 -.1)">
<use xlink:href="#c"/>
<use x="63.623047" xlink:href="#d"/>
<use x="95.410156" xlink:href="#m"/>
<use x="159.033203" xlink:href="#p"/>
</g>
</g>
<g clip-path="url(#a)">
<g transform="translate(638.27 489.16) scale(.1 -.1)">
<use xlink:href="#c"/>
<use x="63.623047" xlink:href="#d"/>
<use x="95.410156" xlink:href="#m"/>
<use x="159.033203" xlink:href="#w"/>
</g>
</g>
<g clip-path="url(#a)">
<g transform="translate(39.791 489.16) scale(.1 -.1)">
<use xlink:href="#c"/>
<use x="63.623047" xlink:href="#d"/>
<use x="95.410156" xlink:href="#m"/>
<use x="159.033203" xlink:href="#af"/>
</g>
</g>
<g clip-path="url(#a)">
<g transform="translate(85.829 489.16) scale(.1 -.1)">
<use xlink:href="#c"/>
<use x="63.623047" xlink:href="#d"/>
<use x="95.410156" xlink:href="#m"/>
<use x="159.033203" xlink:href="#ae"/>
</g>
</g>
<g clip-path="url(#a)">
<g transform="translate(131.87 489.16) scale(.1 -.1)">
<use xlink:href="#c"/>
<use x="63.623047" xlink:href="#d"/>
<use x="95.410156" xlink:href="#m"/>
<use x="159.033203" xlink:href="#ad"/>
</g>
</g>
<g clip-path="url(#a)">
<defs>
<path id="z" d="m9.8125 72.906h9.8594v-72.906h-9.8594z"/>
<path id="at" d="m9.8125 72.906h14.703l18.594-49.609 18.703 49.609h14.703v-72.906h-9.625v64.016l-18.797-50h-9.9062l-18.797 50v-64.016h-9.5781z"/>
</defs>
<g transform="translate(1042.7 561.99) scale(.1 -.1)">
<use xlink:href="#z"/>
<use x="29.492188" xlink:href="#at"/>
<use x="115.771484" xlink:href="#v"/>
<use x="176.074219" xlink:href="#y"/>
<use x="231.787109" xlink:href="#z"/>
<use x="261.279297" xlink:href="#o"/>
<use x="331.103516" xlink:href="#z"/>
<use x="360.595703" xlink:href="#j"/>
</g>
</g>
<g clip-path="url(#a)">
<g transform="translate(845.44 416.33) scale(.1 -.1)">
<use xlink:href="#c"/>
<use x="63.623047" xlink:href="#d"/>
<use x="95.410156" xlink:href="#m"/>
<use x="159.033203" xlink:href="#ac"/>
</g>
</g>
<g clip-path="url(#a)">
<g transform="translate(960.54 416.33) scale(.1 -.1)">
<use xlink:href="#c"/>
<use x="63.623047" xlink:href="#d"/>
<use x="95.410156" xlink:href="#p"/>
<use x="159.033203" xlink:href="#ag"/>
</g>
</g>
<g clip-path="url(#a)">
<g transform="translate(914.5 489.16) scale(.1 -.1)">
<use xlink:href="#c"/>
<use x="63.623047" xlink:href="#d"/>
<use x="95.410156" xlink:href="#p"/>
<use x="159.033203" xlink:href="#c"/>
</g>
</g>
<g clip-path="url(#a)">
<g transform="translate(960.54 489.16) scale(.1 -.1)">
<use xlink:href="#c"/>
<use x="63.623047" xlink:href="#d"/>
<use x="95.410156" xlink:href="#p"/>
<use x="159.033203" xlink:href="#m"/>
</g>
</g>
<g clip-path="url(#a)">
<g transform="translate(822.42 489.16) scale(.1 -.1)">
<use xlink:href="#c"/>
<use x="63.623047" xlink:href="#d"/>
<use x="95.410156" xlink:href="#p"/>
<use x="159.033203" xlink:href="#p"/>
</g>
</g>
<g clip-path="url(#a)">
<g transform="translate(868.46 489.16) scale(.1 -.1)">
<use xlink:href="#c"/>
<use x="63.623047" xlink:href="#d"/>
<use x="95.410156" xlink:href="#p"/>
<use x="159.033203" xlink:href="#w"/>
</g>
</g>
<g clip-path="url(#a)">
<g transform="translate(1006.6 489.16) scale(.1 -.1)">
<use xlink:href="#c"/>
<use x="63.623047" xlink:href="#d"/>
<use x="95.410156" xlink:href="#p"/>
<use x="159.033203" xlink:href="#af"/>
</g>
</g>
<defs>
<clipPath id="a">
<rect width="1114.7" height="586.67"/>
</clipPath>
</defs>
</svg>
