<?xml version="1.0" encoding="UTF-8"?>
<!DOCTYPE svg  PUBLIC '-//W3C//DTD SVG 1.1//EN'  'http://www.w3.org/Graphics/SVG/1.1/DTD/svg11.dtd'>
<svg width="1469.3pt" height="773.33pt" version="1.1" viewBox="0 0 1469.3 773.33" xmlns="http://www.w3.org/2000/svg" xmlns:xlink="http://www.w3.org/1999/xlink">
<defs>
<style type="text/css">*{stroke-linecap:butt;stroke-linejoin:round;}</style>
</defs>
<path d="m0 773.33h1469.3v-773.33h-1469.3z" fill="#fff"/>
<g fill="none" stroke="#000">
<path d="m354.23 35.152-265.73 118.24" clip-path="url(#a)"/>
<path d="m354.23 35.152 99.149 587.94" clip-path="url(#a)"/>
<path d="m354.23 35.152 103.88 236.24" clip-path="url(#a)"/>
<path d="m354.23 35.152 9.7139 587.94" clip-path="url(#a)"/>
<path d="m354.23 35.152 52.989 587.94" clip-path="url(#a)"/>
<path d="m88.501 153.39-21.713 469.7" clip-path="url(#a)"/>
<path d="m88.501 153.39-13.058 469.7" clip-path="url(#a)"/>
<path d="m88.501 153.39-1.5176 469.7" clip-path="url(#a)"/>
<path d="m88.501 153.39 36.288 118" clip-path="url(#a)"/>
<path d="m453.38 623.09v115.09" clip-path="url(#a)"/>
<path d="m458.11 271.39 44.317 351.7" clip-path="url(#a)"/>
<path d="m458.11 271.39 347 117.7" clip-path="url(#a)"/>
<path d="m458.11 271.39-391.32 351.7" clip-path="url(#a)" stroke-dasharray="3.7,1.6"/>
<path d="m502.42 623.09v115.09" clip-path="url(#a)"/>
<path d="m805.11 389.09-250.76 234" clip-path="url(#a)"/>
<path d="m805.11 389.09-195.94 234" clip-path="url(#a)"/>
<path d="m805.11 389.09-138.24 234" clip-path="url(#a)"/>
<path d="m805.11 389.09-14.185 234" clip-path="url(#a)"/>
<path d="m805.11 389.09 194.5 117.3" clip-path="url(#a)"/>
<path d="m805.11 389.09 430.11 117.3" clip-path="url(#a)"/>
<path d="m805.11 389.09-77.655 234" clip-path="url(#a)"/>
<path d="m805.11 389.09 52.171 234" clip-path="url(#a)"/>
<path d="m554.35 623.09v115.09" clip-path="url(#a)"/>
<path d="m609.17 623.09v115.09" clip-path="url(#a)"/>
<path d="m666.87 623.09v115.09" clip-path="url(#a)"/>
<path d="m790.92 623.09v115.09" clip-path="url(#a)"/>
<path d="m999.61 506.4-73.087 116.69" clip-path="url(#a)"/>
<path d="m999.61 506.4-0.96167 116.69" clip-path="url(#a)"/>
<path d="m999.61 506.4 74.048 116.69" clip-path="url(#a)"/>
<path d="m1235.2 506.4-83.665 116.69" clip-path="url(#a)"/>
<path d="m1235.2 506.4-2.885 116.69" clip-path="url(#a)"/>
<path d="m1235.2 506.4 80.78 116.69" clip-path="url(#a)"/>
<path d="m1235.2 506.4-161.56 116.69" clip-path="url(#a)" stroke-dasharray="3.7,1.6"/>
<path d="m1235.2 506.4 167.33 116.69" clip-path="url(#a)"/>
<path d="m1151.5 623.09v115.09" clip-path="url(#a)"/>
<path d="m1232.3 623.09v115.09" clip-path="url(#a)"/>
<path d="m1316 623.09v115.09" clip-path="url(#a)"/>
<path d="m926.52 623.09v115.09" clip-path="url(#a)"/>
<path d="m998.64 623.09v115.09" clip-path="url(#a)"/>
<path d="m1073.7 623.09v115.09" clip-path="url(#a)"/>
<path d="m66.788 623.09v115.09" clip-path="url(#a)"/>
<path d="m75.443 623.09v115.09" clip-path="url(#a)"/>
<path d="m86.983 623.09v115.09" clip-path="url(#a)"/>
<path d="m124.79 271.39-37.806 351.7" clip-path="url(#a)" stroke-dasharray="3.7,1.6"/>
<path d="m124.79 271.39 198.76 117.7" clip-path="url(#a)"/>
<path d="m124.79 271.39 37.806 117.7" clip-path="url(#a)"/>
<path d="m162.59 389.09-61.186 234" clip-path="url(#a)"/>
<path d="m162.59 389.09 0.36063 234" clip-path="url(#a)"/>
<path d="m162.59 389.09 104.7 117.3" clip-path="url(#a)"/>
<path d="m162.59 389.09-43.876 234" clip-path="url(#a)"/>
<path d="m101.41 623.09v115.09" clip-path="url(#a)"/>
<path d="m162.95 623.09-24.042 115.09" clip-path="url(#a)"/>
<path d="m162.95 623.09-0.96167 115.09" clip-path="url(#a)"/>
<path d="m162.95 623.09 25.003 115.09" clip-path="url(#a)"/>
<path d="m267.3 506.4-50.488 116.69" clip-path="url(#a)"/>
<path d="m267.3 506.4-18.753 116.69" clip-path="url(#a)"/>
<path d="m267.3 506.4 15.868 116.69" clip-path="url(#a)"/>
<path d="m267.3 506.4 53.373 116.69" clip-path="url(#a)"/>
<path d="m118.72 623.09v115.09" clip-path="url(#a)"/>
<path d="m216.81 623.09v115.09" clip-path="url(#a)"/>
<path d="m248.54 623.09v115.09" clip-path="url(#a)"/>
<path d="m283.16 623.09v115.09" clip-path="url(#a)"/>
<path d="m320.67 623.09v115.09" clip-path="url(#a)"/>
<path d="m363.94 623.09v115.09" clip-path="url(#a)"/>
<path d="m407.22 623.09v115.09" clip-path="url(#a)"/>
<path d="m727.45 623.09v115.09" clip-path="url(#a)"/>
<path d="m857.28 623.09v115.09" clip-path="url(#a)"/>
<path d="m1402.5 623.09v115.09" clip-path="url(#a)"/>
</g>
<path d="m221.17 101.22 5.4967-2.4458q2.1927-0.97568 1.2171-3.1684l-3.1476-7.0738q-0.97568-2.1927-3.1684-1.2171l-5.4967 2.4458q-2.1927 0.97568-1.2171 3.1684l3.1476 7.0738q0.97568 2.1927 3.1684 1.2171z" clip-path="url(#a)" fill="#fff" stroke="#fff"/>
<g clip-path="url(#a)">
<defs>
<path id="ak" d="m9.8125 72.906h9.8594v-29.891h35.844v29.891h9.8594v-72.906h-9.8594v34.719h-35.844v-34.719h-9.8594z"/>
</defs>
<g transform="translate(219.51 97.511) rotate(-23.987) scale(.08 -.08)">
<use xlink:href="#ak"/>
</g>
</g>
<path d="m397.25 327.97 0.74124 4.3954q0.3991 2.3666 2.7657 1.9675l7.6347-1.2875q2.3666-0.3991 1.9675-2.7657l-0.74124-4.3954q-0.3991-2.3666-2.7657-1.9675l-7.6347 1.2875q-2.3666 0.3991-1.9675 2.7657z" clip-path="url(#a)" fill="#fff" stroke="#fff"/>
<g clip-path="url(#a)">
<defs>
<path id="aj" d="m9.8125 72.906h9.8594v-64.609h35.5v-8.2969h-45.359z"/>
</defs>
<g transform="translate(401.26 327.29) rotate(80.428) scale(.08 -.08)">
<use xlink:href="#aj"/>
</g>
</g>
<path d="m399.22 153.04 2.4216 5.5074q0.96604 2.197 3.163 1.231l7.0876-3.1165q2.197-0.96604 1.231-3.163l-2.4216-5.5074q-0.96604-2.197-3.163-1.231l-7.0876 3.1165q-2.197 0.96604-1.231 3.163z" clip-path="url(#a)" fill="#fff" stroke="#fff"/>
<g clip-path="url(#a)">
<g transform="translate(402.94 151.41) rotate(66.264) scale(.08 -.08)">
<use xlink:href="#ak"/>
</g>
</g>
<path d="m352.77 326.3 0.096722 5.8542q0.039647 2.3997 2.4393 2.36l7.7414-0.1279q2.3997-0.039647 2.36-2.4393l-0.096722-5.8542q-0.039647-2.3997-2.4393-2.36l-7.7414 0.1279q-2.3997 0.039647-2.36 2.4393z" clip-path="url(#a)" fill="#fff" stroke="#fff"/>
<g clip-path="url(#a)">
<defs>
<path id="u" d="m8.6875 72.906h9.9219v-44.297q0-11.719 4.2344-16.875 4.25-5.1406 13.781-5.1406 9.4688 0 13.719 5.1406 4.25 5.1562 4.25 16.875v44.297h9.9062v-45.516q0-14.25-7.0625-21.531-7.0469-7.2812-20.812-7.2812-13.828 0-20.891 7.2812-7.0469 7.2812-7.0469 21.531z"/>
</defs>
<g transform="translate(356.83 326.23) rotate(89.053) scale(.08 -.08)">
<use xlink:href="#u"/>
</g>
</g>
<path d="m374.22 326.77 0.52556 5.8314q0.21543 2.3903 2.6057 2.1749l7.7112-0.69499q2.3903-0.21543 2.1749-2.6057l-0.52556-5.8314q-0.21543-2.3903-2.6057-2.1749l-7.7112 0.69499q-2.3903 0.21543-2.1749 2.6057z" clip-path="url(#a)" fill="#fff" stroke="#fff"/>
<g clip-path="url(#a)">
<g transform="translate(378.26 326.4) rotate(84.85) scale(.08 -.08)">
<use xlink:href="#u"/>
</g>
</g>
<path d="m83.782 391.26 0.25271-5.4667q0.11082-2.3974-2.2866-2.5083l-7.7342-0.35753q-2.3974-0.11083-2.5083 2.2866l-0.2527 5.4667q-0.11083 2.3974 2.2866 2.5083l7.7342 0.35753q2.3974 0.11082 2.5083-2.2866z" clip-path="url(#a)" fill="#fff" stroke="#fff"/>
<g clip-path="url(#a)">
<defs>
<path id="o" d="m34.188 63.188-13.391-36.281h26.812zm-5.5781 9.7188h11.188l27.781-72.906h-10.25l-6.6406 18.703h-32.859l-6.6406-18.703h-10.406z"/>
</defs>
<g transform="translate(79.723 391.08) rotate(-87.353) scale(.08 -.08)">
<use xlink:href="#o"/>
</g>
</g>
<path d="m88.174 390.83 0.13405-4.8219q0.066695-2.3991-2.3324-2.4658l-7.7395-0.21516q-2.3991-0.066694-2.4658 2.3324l-0.13405 4.8219q-0.066694 2.3991 2.3324 2.4658l7.7395 0.21516q2.3991 0.066695 2.4658-2.3324z" clip-path="url(#a)" fill="#fff" stroke="#fff"/>
<g clip-path="url(#a)">
<defs>
<path id="ae" d="m19.672 64.797v-27.391h12.406q6.8906 0 10.641 3.5625 3.7656 3.5625 3.7656 10.156 0 6.5469-3.7656 10.109-3.75 3.5625-10.641 3.5625zm-9.8594 8.1094h22.266q12.266 0 18.531-5.5469 6.2812-5.5469 6.2812-16.234 0-10.797-6.2812-16.312-6.2656-5.5156-18.531-5.5156h-12.406v-29.297h-9.8594z"/>
</defs>
<g transform="translate(84.111 390.71) rotate(-88.408) scale(.08 -.08)">
<use xlink:href="#ae"/>
</g>
</g>
<path d="m94.004 391 0.017682-5.4725q0.007754-2.4-2.3922-2.4077l-7.7425-0.025017q-2.4-0.007754-2.4077 2.3922l-0.017682 5.4725q-0.007754 2.4 2.3922 2.4077l7.7425 0.025016q2.4 0.007755 2.4077-2.3922z" clip-path="url(#a)" fill="#fff" stroke="#fff"/>
<g clip-path="url(#a)">
<g transform="translate(89.94 390.98) rotate(-89.815) scale(.08 -.08)">
<use xlink:href="#o"/>
</g>
</g>
<path d="m99.846 211.62 1.6086 5.2308q0.70545 2.294 2.9994 1.5885l7.4005-2.2758q2.294-0.70545 1.5885-2.9994l-1.6086-5.2308q-0.70545-2.294-2.9994-1.5885l-7.4005 2.2758q-2.294 0.70545-1.5885 2.9994z" clip-path="url(#a)" fill="#fff" stroke="#fff"/>
<g clip-path="url(#a)">
<g transform="translate(103.73 210.42) rotate(72.906) scale(.08 -.08)">
<use xlink:href="#o"/>
</g>
</g>
<path d="m447.11 663.73v33.808q0 2.4 2.4 2.4h7.7425q2.4 0 2.4-2.4v-33.808q0-2.4-2.4-2.4h-7.7425q-2.4 0-2.4 2.4z" clip-path="url(#a)" fill="#fff" stroke="#fff"/>
<g clip-path="url(#a)">
<defs>
<path id="k" d="m-0.29688 72.906h61.672v-8.3125h-25.875v-64.594h-9.9062v64.594h-25.891z"/>
<path id="e" d="m56.203 29.594v-4.3906h-41.312q0.59375-9.2812 5.5938-14.141t13.938-4.8594q5.1719 0 10.031 1.2656t9.6562 3.8125v-8.5q-4.8438-2.0469-9.9219-3.125t-10.297-1.0781q-13.094 0-20.734 7.6094-7.6406 7.625-7.6406 20.625 0 13.422 7.25 21.297 7.25 7.8906 19.562 7.8906 11.031 0 17.453-7.1094 6.4219-7.0938 6.4219-19.297zm-8.9844 2.6406q-0.09375 7.3594-4.125 11.75-4.0312 4.4062-10.672 4.4062-7.5156 0-12.031-4.25t-5.2031-11.969z"/>
<path id="i" d="m41.109 46.297q-1.5156 0.875-3.2969 1.2812-1.7812 0.42188-3.9219 0.42188-7.625 0-11.703-4.9531t-4.0781-14.234v-28.812h-9.0312v54.688h9.0312v-8.5q2.8438 4.9844 7.375 7.3906 4.5469 2.4219 11.047 2.4219 0.92188 0 2.0469-0.125 1.125-0.10938 2.4844-0.35938z"/>
<path id="j" d="m52 44.188q3.375 6.0625 8.0625 8.9375t11.031 2.875q8.5469 0 13.188-5.9844 4.6406-5.9688 4.6406-17v-33.016h-9.0312v32.719q0 7.8594-2.7969 11.656-2.7812 3.8125-8.4844 3.8125-6.9844 0-11.047-4.6406-4.0469-4.625-4.0469-12.641v-30.906h-9.0312v32.719q0 7.9062-2.7812 11.688t-8.5938 3.7812q-6.8906 0-10.953-4.6562-4.0469-4.6562-4.0469-12.625v-30.906h-9.0312v54.688h9.0312v-8.5q3.0781 5.0312 7.375 7.4219t10.203 2.3906q5.9688 0 10.141-3.0312 4.1719-3.0156 6.1719-8.7812z"/>
<path id="g" d="m9.4219 54.688h8.9844v-54.688h-8.9844zm0 21.297h8.9844v-11.391h-8.9844z"/>
<path id="h" d="m54.891 33.016v-33.016h-8.9844v32.719q0 7.7656-3.0312 11.609-3.0312 3.8594-9.0781 3.8594-7.2812 0-11.484-4.6406-4.2031-4.625-4.2031-12.641v-30.906h-9.0312v54.688h9.0312v-8.5q3.2344 4.9375 7.5938 7.375 4.375 2.4375 10.094 2.4375 9.4219 0 14.25-5.8281 4.8438-5.8281 4.8438-17.156z"/>
<path id="d" d="m34.281 27.484q-10.891 0-15.094-2.4844t-4.2031-8.5q0-4.7812 3.1562-7.5938 3.1562-2.7969 8.5625-2.7969 7.4844 0 12 5.2969t4.5156 14.078v2zm17.922 3.7188v-31.203h-8.9844v8.2969q-3.0781-4.9688-7.6719-7.3438t-11.234-2.375q-8.3906 0-13.359 4.7188-4.9531 4.7188-4.9531 12.625 0 9.2188 6.1719 13.906 6.1875 4.6875 18.438 4.6875h12.609v0.89062q0 6.2031-4.0781 9.5938t-11.453 3.3906q-4.6875 0-9.1406-1.125-4.4375-1.125-8.5312-3.375v8.3125q4.9219 1.9062 9.5625 2.8438 4.6406 0.95312 9.0312 0.95312 11.875 0 17.734-6.1562 5.8594-6.1406 5.8594-18.641z"/>
<path id="l" d="m9.4219 75.984h8.9844v-75.984h-8.9844z"/>
</defs>
<g transform="translate(451.17 663.73) rotate(90) scale(.08 -.08)">
<use xlink:href="#k"/>
<use x="44.083984" xlink:href="#e"/>
<use x="105.607422" xlink:href="#i"/>
<use x="144.970703" xlink:href="#j"/>
<use x="242.382812" xlink:href="#g"/>
<use x="270.166016" xlink:href="#h"/>
<use x="333.544922" xlink:href="#d"/>
<use x="394.824219" xlink:href="#l"/>
</g>
</g>
<path d="m473.74 445.63 0.60306 4.7859q0.30005 2.3812 2.6812 2.0811l7.6818-0.96796q2.3812-0.30005 2.0811-2.6812l-0.60306-4.7859q-0.30005-2.3812-2.6812-2.0811l-7.6818 0.96796q-2.3812 0.30005-2.0811 2.6812z" clip-path="url(#a)" fill="#fff" stroke="#fff"/>
<g clip-path="url(#a)">
<g transform="translate(477.77 445.12) rotate(82.818) scale(.08 -.08)">
<use xlink:href="#ae"/>
</g>
</g>
<path d="m627 335.3 5.1825 1.7579q2.2728 0.77094 3.0437-1.5019l2.4871-7.3322q0.77094-2.2728-1.5019-3.0437l-5.1825-1.7579q-2.2728-0.77094-3.0437 1.5019l-2.4871 7.3322q-0.77094 2.2728 1.5019 3.0437z" clip-path="url(#a)" fill="#fff" stroke="#fff"/>
<g clip-path="url(#a)">
<g transform="translate(628.31 331.45) rotate(18.737) scale(.08 -.08)">
<use xlink:href="#o"/>
</g>
</g>
<path d="m264.6 453.73 4.0702-3.6581q1.785-1.6043 0.18073-3.3893l-5.1755-5.7585q-1.6043-1.785-3.3893-0.18073l-4.0702 3.6581q-1.785 1.6043-0.18072 3.3893l5.1755 5.7585q1.6043 1.785 3.3893 0.18073z" clip-path="url(#a)" fill="#fff" stroke="#fff"/>
<g clip-path="url(#a)">
<g transform="translate(261.89 450.71) rotate(-41.948) scale(.08 -.08)">
<use xlink:href="#o"/>
</g>
</g>
<path d="m496.15 663.73v33.808q0 2.4 2.4 2.4h7.7425q2.4 0 2.4-2.4v-33.808q0-2.4-2.4-2.4h-7.7425q-2.4 0-2.4 2.4z" clip-path="url(#a)" fill="#fff" stroke="#fff"/>
<g clip-path="url(#a)">
<g transform="translate(500.22 663.73) rotate(90) scale(.08 -.08)">
<use xlink:href="#k"/>
<use x="44.083984" xlink:href="#e"/>
<use x="105.607422" xlink:href="#i"/>
<use x="144.970703" xlink:href="#j"/>
<use x="242.382812" xlink:href="#g"/>
<use x="270.166016" xlink:href="#h"/>
<use x="333.544922" xlink:href="#d"/>
<use x="394.824219" xlink:href="#l"/>
</g>
</g>
<path d="m682.33 512.25 3.364-3.1392q1.7547-1.6374 0.11727-3.3921l-5.2823-5.6607q-1.6374-1.7547-3.3921-0.11727l-3.364 3.1392q-1.7547 1.6374-0.11727 3.3921l5.2823 5.6607q1.6374 1.7547 3.3921 0.11727z" clip-path="url(#a)" fill="#fff" stroke="#fff"/>
<g clip-path="url(#a)">
<defs>
<path id="al" d="m9.8125 72.906h41.891v-8.3125h-32.031v-21.484h28.906v-8.2969h-28.906v-34.812h-9.8594z"/>
</defs>
<g transform="translate(679.56 509.28) rotate(-43.02) scale(.08 -.08)">
<use xlink:href="#al"/>
</g>
</g>
<path d="m710.19 512.22 3.5134-4.1958q1.5408-1.8401-0.29926-3.3809l-5.9362-4.9707q-1.8401-1.5408-3.3809 0.29926l-3.5134 4.1958q-1.5408 1.8401 0.29926 3.3809l5.9362 4.9707q1.8401 1.5408 3.3809-0.29926z" clip-path="url(#a)" fill="#fff" stroke="#fff"/>
<g clip-path="url(#a)">
<g transform="translate(707.07 509.61) rotate(-50.058) scale(.08 -.08)">
<use xlink:href="#o"/>
</g>
</g>
<path d="m740.22 511.26 2.3404-3.9616q1.2208-2.0663-0.84559-3.2871l-6.6661-3.9382q-2.0663-1.2208-3.2871 0.84559l-2.3404 3.9616q-1.2208 2.0663 0.84559 3.2871l6.6661 3.9382q2.0663 1.2208 3.2871-0.84559z" clip-path="url(#a)" fill="#fff" stroke="#fff"/>
<g clip-path="url(#a)">
<g transform="translate(736.72 509.2) rotate(-59.426) scale(.08 -.08)">
<use xlink:href="#al"/>
</g>
</g>
<path d="m804.12 509.01 0.3073-5.0694q0.14522-2.3956-2.2504-2.5408l-7.7283-0.46848q-2.3956-0.14522-2.5408 2.2504l-0.3073 5.0694q-0.14522 2.3956 2.2504 2.5408l7.7283 0.46848q2.3956 0.14522 2.5408-2.2504z" clip-path="url(#a)" fill="#fff" stroke="#fff"/>
<g clip-path="url(#a)">
<defs>
<path id="ad" d="m53.516 70.516v-9.625q-5.6094 2.6875-10.594 4-4.9844 1.3281-9.625 1.3281-8.0469 0-12.422-3.125t-4.375-8.8906q0-4.8438 2.9062-7.3125 2.9062-2.4531 11.016-3.9688l5.9531-1.2188q11.031-2.1094 16.281-7.4062t5.25-14.172q0-10.609-7.1094-16.078-7.0938-5.4688-20.812-5.4688-5.1719 0-11.016 1.1719-5.8281 1.1719-12.078 3.4688v10.156q6-3.3594 11.766-5.0781 5.7656-1.7031 11.328-1.7031 8.4375 0 13.031 3.3125 4.5938 3.3281 4.5938 9.4844 0 5.3594-3.2969 8.3906t-10.812 4.5469l-6.0156 1.1719q-11.031 2.1875-15.969 6.875-4.9219 4.6875-4.9219 13.047 0 9.6719 6.8125 15.234t18.766 5.5625q5.1406 0 10.453-0.9375 5.3281-0.92188 10.891-2.7656z"/>
</defs>
<g transform="translate(800.07 508.76) rotate(-86.531) scale(.08 -.08)">
<use xlink:href="#ad"/>
</g>
</g>
<path d="m896.78 451.7 4.6862 2.8263q2.0552 1.2395 3.2946-0.81566l3.9987-6.63q1.2395-2.0552-0.81566-3.2946l-4.6862-2.8263q-2.0552-1.2395-3.2946 0.81566l-3.9987 6.63q-1.2395 2.0552 0.81566 3.2946z" clip-path="url(#a)" fill="#fff" stroke="#fff"/>
<g clip-path="url(#a)">
<g transform="translate(898.87 448.22) rotate(31.095) scale(.08 -.08)">
<use xlink:href="#o"/>
</g>
</g>
<path d="m1015.9 453.08 5.2797 1.4399q2.3154 0.63149 2.9469-1.6839l2.0372-7.4697q0.63149-2.3154-1.6839-2.9469l-5.2797-1.4399q-2.3154-0.63149-2.9469 1.6839l-2.0372 7.4697q-0.63149 2.3154 1.6839 2.9469z" clip-path="url(#a)" fill="#fff" stroke="#fff"/>
<g clip-path="url(#a)">
<g transform="translate(1016.9 449.16) rotate(15.255) scale(.08 -.08)">
<use xlink:href="#o"/>
</g>
</g>
<path d="m771.31 510.85 1.8442-5.557q0.75593-2.2778-1.5219-3.0338l-7.3484-2.4387q-2.2778-0.75593-3.0338 1.5219l-1.8442 5.557q-0.75593 2.2778 1.5219 3.0338l7.3484 2.4387q2.2778 0.75593 3.0338-1.5219z" clip-path="url(#a)" fill="#fff" stroke="#fff"/>
<g clip-path="url(#a)">
<g transform="translate(767.45 509.57) rotate(-71.641) scale(.08 -.08)">
<use xlink:href="#u"/>
</g>
</g>
<path d="m824.44 504.6 1.2741 5.7147q0.52227 2.3425 2.8648 1.8202l7.557-1.6849q2.3425-0.52227 1.8202-2.8648l-1.2741-5.7147q-0.52227-2.3425-2.8648-1.8202l-7.557 1.6849q-2.3425 0.52227-1.8202 2.8648z" clip-path="url(#a)" fill="#fff" stroke="#fff"/>
<g clip-path="url(#a)">
<g transform="translate(828.4 503.72) rotate(77.431) scale(.08 -.08)">
<use xlink:href="#u"/>
</g>
</g>
<path d="m548.08 663.73v33.808q0 2.4 2.4 2.4h7.7425q2.4 0 2.4-2.4v-33.808q0-2.4-2.4-2.4h-7.7425q-2.4 0-2.4 2.4z" clip-path="url(#a)" fill="#fff" stroke="#fff"/>
<g clip-path="url(#a)">
<g transform="translate(552.15 663.73) rotate(90) scale(.08 -.08)">
<use xlink:href="#k"/>
<use x="44.083984" xlink:href="#e"/>
<use x="105.607422" xlink:href="#i"/>
<use x="144.970703" xlink:href="#j"/>
<use x="242.382812" xlink:href="#g"/>
<use x="270.166016" xlink:href="#h"/>
<use x="333.544922" xlink:href="#d"/>
<use x="394.824219" xlink:href="#l"/>
</g>
</g>
<path d="m602.9 663.73v33.808q0 2.4 2.4 2.4h7.7425q2.4 0 2.4-2.4v-33.808q0-2.4-2.4-2.4h-7.7425q-2.4 0-2.4 2.4z" clip-path="url(#a)" fill="#fff" stroke="#fff"/>
<g clip-path="url(#a)">
<g transform="translate(606.96 663.73) rotate(90) scale(.08 -.08)">
<use xlink:href="#k"/>
<use x="44.083984" xlink:href="#e"/>
<use x="105.607422" xlink:href="#i"/>
<use x="144.970703" xlink:href="#j"/>
<use x="242.382812" xlink:href="#g"/>
<use x="270.166016" xlink:href="#h"/>
<use x="333.544922" xlink:href="#d"/>
<use x="394.824219" xlink:href="#l"/>
</g>
</g>
<path d="m660.6 663.73v33.808q0 2.4 2.4 2.4h7.7425q2.4 0 2.4-2.4v-33.808q0-2.4-2.4-2.4h-7.7425q-2.4 0-2.4 2.4z" clip-path="url(#a)" fill="#fff" stroke="#fff"/>
<g clip-path="url(#a)">
<g transform="translate(664.66 663.73) rotate(90) scale(.08 -.08)">
<use xlink:href="#k"/>
<use x="44.083984" xlink:href="#e"/>
<use x="105.607422" xlink:href="#i"/>
<use x="144.970703" xlink:href="#j"/>
<use x="242.382812" xlink:href="#g"/>
<use x="270.166016" xlink:href="#h"/>
<use x="333.544922" xlink:href="#d"/>
<use x="394.824219" xlink:href="#l"/>
</g>
</g>
<path d="m784.65 663.73v33.808q0 2.4 2.4 2.4h7.7425q2.4 0 2.4-2.4v-33.808q0-2.4-2.4-2.4h-7.7425q-2.4 0-2.4 2.4z" clip-path="url(#a)" fill="#fff" stroke="#fff"/>
<g clip-path="url(#a)">
<g transform="translate(788.72 663.73) rotate(90) scale(.08 -.08)">
<use xlink:href="#k"/>
<use x="44.083984" xlink:href="#e"/>
<use x="105.607422" xlink:href="#i"/>
<use x="144.970703" xlink:href="#j"/>
<use x="242.382812" xlink:href="#g"/>
<use x="270.166016" xlink:href="#h"/>
<use x="333.544922" xlink:href="#d"/>
<use x="394.824219" xlink:href="#l"/>
</g>
</g>
<path d="m966.9 570.43 2.9506-4.711q1.2739-2.034-0.76006-3.3079l-6.5617-4.1098q-2.034-1.2739-3.3079 0.76006l-2.9506 4.711q-1.2739 2.034 0.76006 3.3079l6.5617 4.1098q2.034 1.2739 3.3079-0.76006z" clip-path="url(#a)" fill="#fff" stroke="#fff"/>
<g clip-path="url(#a)">
<defs>
<path id="y" d="m44.391 34.188q3.1719-1.0781 6.1719-4.5938t6.0312-9.6719l10.016-19.922h-10.609l-9.3125 18.703q-3.625 7.3281-7.0156 9.7188t-9.25 2.3906h-10.75v-30.812h-9.8594v72.906h22.266q12.5 0 18.656-5.2344 6.1562-5.2188 6.1562-15.766 0-6.8906-3.2031-11.438-3.2031-4.5312-9.2969-6.2812zm-24.719 30.609v-25.875h12.406q7.125 0 10.766 3.2969t3.6406 9.6875-3.6406 9.6406-10.766 3.25z"/>
</defs>
<g transform="translate(963.46 568.27) rotate(-57.94) scale(.08 -.08)">
<use xlink:href="#y"/>
</g>
</g>
<path d="m1005.4 567.32 0.041658-5.0548q0.019778-2.3999-2.3801-2.4197l-7.7422-0.063804q-2.3999-0.019778-2.4197 2.3801l-0.041658 5.0548q-0.019778 2.3999 2.3801 2.4197l7.7422 0.063804q2.3999 0.019778 2.4197-2.3801z" clip-path="url(#a)" fill="#fff" stroke="#fff"/>
<g clip-path="url(#a)">
<defs>
<path id="r" d="m9.8125 72.906h46.094v-8.3125h-36.234v-21.578h34.719v-8.2969h-34.719v-26.422h37.109v-8.2969h-46.969z"/>
</defs>
<g transform="translate(1001.3 567.29) rotate(-89.528) scale(.08 -.08)">
<use xlink:href="#r"/>
</g>
</g>
<path d="m1029.8 565.75 2.9931 4.7167q1.2859 2.0264 3.3123 0.74054l6.5374-4.1484q2.0264-1.2859 0.74054-3.3123l-2.9931-4.7167q-1.2859-2.0264-3.3123-0.74054l-6.5374 4.1484q-2.0264 1.2859-0.74053 3.3123z" clip-path="url(#a)" fill="#fff" stroke="#fff"/>
<g clip-path="url(#a)">
<defs>
<path id="w" d="m64.406 67.281v-10.391q-4.9844 4.6406-10.625 6.9219-5.6406 2.2969-11.984 2.2969-12.5 0-19.141-7.6406t-6.6406-22.094q0-14.406 6.6406-22.047t19.141-7.6406q6.3438 0 11.984 2.2969t10.625 6.9375v-10.312q-5.1719-3.5156-10.969-5.2812-5.7812-1.75-12.219-1.75-16.562 0-26.094 10.125-9.5156 10.141-9.5156 27.672 0 17.578 9.5156 27.703 9.5312 10.141 26.094 10.141 6.5312 0 12.312-1.7344 5.7969-1.7344 10.875-5.2031z"/>
</defs>
<g transform="translate(1033.3 563.57) rotate(57.602) scale(.08 -.08)">
<use xlink:href="#w"/>
</g>
</g>
<path d="m1196.9 570.66 3.239-4.5176q1.3984-1.9505-0.55204-3.3489l-6.2923-4.5114q-1.9505-1.3984-3.3489 0.55204l-3.239 4.5176q-1.3984 1.9505 0.55204 3.3489l6.2923 4.5114q1.9505 1.3984 3.3489-0.55204z" clip-path="url(#a)" fill="#fff" stroke="#fff"/>
<g clip-path="url(#a)">
<g transform="translate(1193.6 568.29) rotate(-54.36) scale(.08 -.08)">
<use xlink:href="#y"/>
</g>
</g>
<path d="m1240 567.43 0.12494-5.0535q0.059318-2.3993-2.3399-2.4586l-7.7401-0.19136q-2.3993-0.059318-2.4586 2.3399l-0.12494 5.0535q-0.059318 2.3993 2.3399 2.4586l7.7401 0.19136q2.3993 0.059318 2.4586-2.3399z" clip-path="url(#a)" fill="#fff" stroke="#fff"/>
<g clip-path="url(#a)">
<g transform="translate(1235.9 567.33) rotate(-88.584) scale(.08 -.08)">
<use xlink:href="#r"/>
</g>
</g>
<path d="m1269 566.24 2.8772 4.1563q1.366 1.9733 3.3393 0.60728l6.366-4.4069q1.9733-1.366 0.60728-3.3393l-2.8772-4.1563q-1.366-1.9733-3.3393-0.60728l-6.366 4.4069q-1.9733 1.366-0.60729 3.3393z" clip-path="url(#a)" fill="#fff" stroke="#fff"/>
<g clip-path="url(#a)">
<g transform="translate(1272.4 563.92) rotate(55.307) scale(.08 -.08)">
<use xlink:href="#r"/>
</g>
</g>
<path d="m1155.8 571.46 4.5285-3.2709q1.9456-1.4053 0.54032-3.3508l-4.5334-6.2765q-1.4053-1.9456-3.3508-0.54032l-4.5285 3.2709q-1.9456 1.4053-0.54032 3.3508l4.5334 6.2765q1.4053 1.9456 3.3508 0.54032z" clip-path="url(#a)" fill="#fff" stroke="#fff"/>
<g clip-path="url(#a)">
<g transform="translate(1153.5 568.17) rotate(-35.84) scale(.08 -.08)">
<use xlink:href="#w"/>
</g>
</g>
<path d="m1312.9 568.21 4.8025 3.3492q1.9686 1.3728 3.3414-0.59574l4.4288-6.3507q1.3728-1.9686-0.59574-3.3414l-4.8025-3.3492q-1.9686-1.3728-3.3414 0.59574l-4.4288 6.3507q-1.3728 1.9686 0.59574 3.3414z" clip-path="url(#a)" fill="#fff" stroke="#fff"/>
<g clip-path="url(#a)">
<g transform="translate(1315.2 564.88) rotate(34.891) scale(.08 -.08)">
<use xlink:href="#u"/>
</g>
</g>
<path d="m1145.3 663.73v33.808q0 2.4 2.4 2.4h7.7425q2.4 0 2.4-2.4v-33.808q0-2.4-2.4-2.4h-7.7425q-2.4 0-2.4 2.4z" clip-path="url(#a)" fill="#fff" stroke="#fff"/>
<g clip-path="url(#a)">
<g transform="translate(1149.3 663.73) rotate(90) scale(.08 -.08)">
<use xlink:href="#k"/>
<use x="44.083984" xlink:href="#e"/>
<use x="105.607422" xlink:href="#i"/>
<use x="144.970703" xlink:href="#j"/>
<use x="242.382812" xlink:href="#g"/>
<use x="270.166016" xlink:href="#h"/>
<use x="333.544922" xlink:href="#d"/>
<use x="394.824219" xlink:href="#l"/>
</g>
</g>
<path d="m1226.1 663.73v33.808q0 2.4 2.4 2.4h7.7425q2.4 0 2.4-2.4v-33.808q0-2.4-2.4-2.4h-7.7425q-2.4 0-2.4 2.4z" clip-path="url(#a)" fill="#fff" stroke="#fff"/>
<g clip-path="url(#a)">
<g transform="translate(1230.1 663.73) rotate(90) scale(.08 -.08)">
<use xlink:href="#k"/>
<use x="44.083984" xlink:href="#e"/>
<use x="105.607422" xlink:href="#i"/>
<use x="144.970703" xlink:href="#j"/>
<use x="242.382812" xlink:href="#g"/>
<use x="270.166016" xlink:href="#h"/>
<use x="333.544922" xlink:href="#d"/>
<use x="394.824219" xlink:href="#l"/>
</g>
</g>
<path d="m1309.7 663.73v33.808q0 2.4 2.4 2.4h7.7425q2.4 0 2.4-2.4v-33.808q0-2.4-2.4-2.4h-7.7425q-2.4 0-2.4 2.4z" clip-path="url(#a)" fill="#fff" stroke="#fff"/>
<g clip-path="url(#a)">
<g transform="translate(1313.8 663.73) rotate(90) scale(.08 -.08)">
<use xlink:href="#k"/>
<use x="44.083984" xlink:href="#e"/>
<use x="105.607422" xlink:href="#i"/>
<use x="144.970703" xlink:href="#j"/>
<use x="242.382812" xlink:href="#g"/>
<use x="270.166016" xlink:href="#h"/>
<use x="333.544922" xlink:href="#d"/>
<use x="394.824219" xlink:href="#l"/>
</g>
</g>
<path d="m920.25 663.73v33.808q0 2.4 2.4 2.4h7.7425q2.4 0 2.4-2.4v-33.808q0-2.4-2.4-2.4h-7.7425q-2.4 0-2.4 2.4z" clip-path="url(#a)" fill="#fff" stroke="#fff"/>
<g clip-path="url(#a)">
<g transform="translate(924.31 663.73) rotate(90) scale(.08 -.08)">
<use xlink:href="#k"/>
<use x="44.083984" xlink:href="#e"/>
<use x="105.607422" xlink:href="#i"/>
<use x="144.970703" xlink:href="#j"/>
<use x="242.382812" xlink:href="#g"/>
<use x="270.166016" xlink:href="#h"/>
<use x="333.544922" xlink:href="#d"/>
<use x="394.824219" xlink:href="#l"/>
</g>
</g>
<path d="m992.37 663.73v33.808q0 2.4 2.4 2.4h7.7425q2.4 0 2.4-2.4v-33.808q0-2.4-2.4-2.4h-7.7425q-2.4 0-2.4 2.4z" clip-path="url(#a)" fill="#fff" stroke="#fff"/>
<g clip-path="url(#a)">
<g transform="translate(996.44 663.73) rotate(90) scale(.08 -.08)">
<use xlink:href="#k"/>
<use x="44.083984" xlink:href="#e"/>
<use x="105.607422" xlink:href="#i"/>
<use x="144.970703" xlink:href="#j"/>
<use x="242.382812" xlink:href="#g"/>
<use x="270.166016" xlink:href="#h"/>
<use x="333.544922" xlink:href="#d"/>
<use x="394.824219" xlink:href="#l"/>
</g>
</g>
<path d="m1067.4 663.73v33.808q0 2.4 2.4 2.4h7.7425q2.4 0 2.4-2.4v-33.808q0-2.4-2.4-2.4h-7.7425q-2.4 0-2.4 2.4z" clip-path="url(#a)" fill="#fff" stroke="#fff"/>
<g clip-path="url(#a)">
<g transform="translate(1071.4 663.73) rotate(90) scale(.08 -.08)">
<use xlink:href="#k"/>
<use x="44.083984" xlink:href="#e"/>
<use x="105.607422" xlink:href="#i"/>
<use x="144.970703" xlink:href="#j"/>
<use x="242.382812" xlink:href="#g"/>
<use x="270.166016" xlink:href="#h"/>
<use x="333.544922" xlink:href="#d"/>
<use x="394.824219" xlink:href="#l"/>
</g>
</g>
<path d="m60.517 663.73v33.808q0 2.4 2.4 2.4h7.7425q2.4 0 2.4-2.4v-33.808q0-2.4-2.4-2.4h-7.7425q-2.4 0-2.4 2.4z" clip-path="url(#a)" fill="#fff" stroke="#fff"/>
<g clip-path="url(#a)">
<g transform="translate(64.58 663.73) rotate(90) scale(.08 -.08)">
<use xlink:href="#k"/>
<use x="44.083984" xlink:href="#e"/>
<use x="105.607422" xlink:href="#i"/>
<use x="144.970703" xlink:href="#j"/>
<use x="242.382812" xlink:href="#g"/>
<use x="270.166016" xlink:href="#h"/>
<use x="333.544922" xlink:href="#d"/>
<use x="394.824219" xlink:href="#l"/>
</g>
</g>
<path d="m69.172 663.73v33.808q0 2.4 2.4 2.4h7.7425q2.4 0 2.4-2.4v-33.808q0-2.4-2.4-2.4h-7.7425q-2.4 0-2.4 2.4z" clip-path="url(#a)" fill="#fff" stroke="#fff"/>
<g clip-path="url(#a)">
<g transform="translate(73.235 663.73) rotate(90) scale(.08 -.08)">
<use xlink:href="#k"/>
<use x="44.083984" xlink:href="#e"/>
<use x="105.607422" xlink:href="#i"/>
<use x="144.970703" xlink:href="#j"/>
<use x="242.382812" xlink:href="#g"/>
<use x="270.166016" xlink:href="#h"/>
<use x="333.544922" xlink:href="#d"/>
<use x="394.824219" xlink:href="#l"/>
</g>
</g>
<path d="m80.712 663.73v33.808q0 2.4 2.4 2.4h7.7425q2.4 0 2.4-2.4v-33.808q0-2.4-2.4-2.4h-7.7425q-2.4 0-2.4 2.4z" clip-path="url(#a)" fill="#fff" stroke="#fff"/>
<g clip-path="url(#a)">
<g transform="translate(84.775 663.73) rotate(90) scale(.08 -.08)">
<use xlink:href="#k"/>
<use x="44.083984" xlink:href="#e"/>
<use x="105.607422" xlink:href="#i"/>
<use x="144.970703" xlink:href="#j"/>
<use x="242.382812" xlink:href="#g"/>
<use x="270.166016" xlink:href="#h"/>
<use x="333.544922" xlink:href="#d"/>
<use x="394.824219" xlink:href="#l"/>
</g>
</g>
<path d="m111.83 450.63 0.58489-5.4412q0.25651-2.3863-2.1297-2.6428l-7.6982-0.8275q-2.3863-0.25651-2.6428 2.1297l-0.58489 5.4412q-0.25651 2.3863 2.1297 2.6428l7.6982 0.82751q2.3863 0.25651 2.6428-2.1297z" clip-path="url(#a)" fill="#fff" stroke="#fff"/>
<g clip-path="url(#a)">
<g transform="translate(107.79 450.2) rotate(-83.865) scale(.08 -.08)">
<use xlink:href="#o"/>
</g>
</g>
<path d="m218.79 334.35 4.37 2.5878q2.0651 1.2229 3.288-0.84219l3.9451-6.662q1.2229-2.0651-0.84219-3.288l-4.37-2.5878q-2.0651-1.2229-3.288 0.84219l-3.9451 6.662q-1.2229 2.0651 0.84219 3.288z" clip-path="url(#a)" fill="#fff" stroke="#fff"/>
<g clip-path="url(#a)">
<g transform="translate(220.86 330.85) rotate(30.633) scale(.08 -.08)">
<use xlink:href="#ad"/>
</g>
</g>
<path d="m136.88 329.56 1.6735 5.2103q0.73394 2.285 3.019 1.5511l7.3716-2.3677q2.285-0.73394 1.5511-3.019l-1.6735-5.2103q-0.73394-2.285-3.019-1.5511l-7.3716 2.3677q-2.285 0.73394-1.5511 3.019z" clip-path="url(#a)" fill="#fff" stroke="#fff"/>
<g clip-path="url(#a)">
<g transform="translate(140.75 328.31) rotate(72.193) scale(.08 -.08)">
<use xlink:href="#o"/>
</g>
</g>
<path d="m137.37 510.37 1.4062-5.3779q0.60715-2.3219-1.7148-2.9291l-7.4907-1.9587q-2.3219-0.60715-2.9291 1.7148l-1.4062 5.3779q-0.60715 2.3219 1.7148 2.9291l7.4907 1.9587q2.3219 0.60715 2.9291-1.7148z" clip-path="url(#a)" fill="#fff" stroke="#fff"/>
<g clip-path="url(#a)">
<g transform="translate(133.43 509.34) rotate(-75.346) scale(.08 -.08)">
<use xlink:href="#y"/>
</g>
</g>
<path d="m156.5 503.31 0.008609 5.5862q0.003699 2.4 2.4037 2.3963l7.7425-0.011933q2.4-0.003699 2.3963-2.4037l-0.008609-5.5862q-0.003699-2.4-2.4037-2.3963l-7.7425 0.011933q-2.4 0.003699-2.3963 2.4037z" clip-path="url(#a)" fill="#fff" stroke="#fff"/>
<g clip-path="url(#a)">
<g transform="translate(160.56 503.3) rotate(89.912) scale(.08 -.08)">
<use xlink:href="#w"/>
</g>
</g>
<path d="m208.58 450.04 3.3661 3.7713q1.5981 1.7905 3.3887 0.19236l5.7763-5.1557q1.7905-1.5981 0.19236-3.3887l-3.3661-3.7713q-1.5981-1.7905-3.3887-0.19236l-5.7763 5.1557q-1.7905 1.5981-0.19236 3.3887z" clip-path="url(#a)" fill="#fff" stroke="#fff"/>
<g clip-path="url(#a)">
<g transform="translate(211.61 447.33) rotate(48.249) scale(.08 -.08)">
<use xlink:href="#r"/>
</g>
</g>
<path d="m146.28 510.13 1.0791-5.7547q0.44231-2.3589-1.9166-2.8012l-7.6099-1.4269q-2.3589-0.44231-2.8012 1.9166l-1.0791 5.7547q-0.44231 2.3589 1.9166 2.8012l7.6099 1.4269q2.3589 0.44231 2.8012-1.9166z" clip-path="url(#a)" fill="#fff" stroke="#fff"/>
<g clip-path="url(#a)">
<g transform="translate(142.29 509.38) rotate(-79.38) scale(.08 -.08)">
<use xlink:href="#u"/>
</g>
</g>
<path d="m95.137 663.73v33.808q0 2.4 2.4 2.4h7.7425q2.4 0 2.4-2.4v-33.808q0-2.4-2.4-2.4h-7.7425q-2.4 0-2.4 2.4z" clip-path="url(#a)" fill="#fff" stroke="#fff"/>
<g clip-path="url(#a)">
<g transform="translate(99.2 663.73) rotate(90) scale(.08 -.08)">
<use xlink:href="#k"/>
<use x="44.083984" xlink:href="#e"/>
<use x="105.607422" xlink:href="#i"/>
<use x="144.970703" xlink:href="#j"/>
<use x="242.382812" xlink:href="#g"/>
<use x="270.166016" xlink:href="#h"/>
<use x="333.544922" xlink:href="#d"/>
<use x="394.824219" xlink:href="#l"/>
</g>
</g>
<path d="m153.62 698.47 6.9129-33.093q0.49075-2.3493-1.8585-2.84l-7.5789-1.5832q-2.3493-0.49075-2.84 1.8585l-6.9129 33.093q-0.49075 2.3493 1.8585 2.84l7.5789 1.5832q2.3493 0.49075 2.84-1.8585z" clip-path="url(#a)" fill="#fff" stroke="#fff"/>
<g clip-path="url(#a)">
<g transform="translate(149.64 697.63) rotate(-78.201) scale(.08 -.08)">
<use xlink:href="#k"/>
<use x="44.083984" xlink:href="#e"/>
<use x="105.607422" xlink:href="#i"/>
<use x="144.970703" xlink:href="#j"/>
<use x="242.382812" xlink:href="#g"/>
<use x="270.166016" xlink:href="#h"/>
<use x="333.544922" xlink:href="#d"/>
<use x="394.824219" xlink:href="#l"/>
</g>
</g>
<path d="m168.6 697.59 0.28248-33.806q0.020053-2.3999-2.3799-2.42l-7.7422-0.064692q-2.3999-0.020053-2.42 2.3799l-0.28248 33.806q-0.020053 2.3999 2.3799 2.42l7.7422 0.064692q2.3999 0.020053 2.42-2.3799z" clip-path="url(#a)" fill="#fff" stroke="#fff"/>
<g clip-path="url(#a)">
<g transform="translate(164.54 697.56) rotate(-89.521) scale(.08 -.08)">
<use xlink:href="#k"/>
<use x="44.083984" xlink:href="#e"/>
<use x="105.607422" xlink:href="#i"/>
<use x="144.970703" xlink:href="#j"/>
<use x="242.382812" xlink:href="#g"/>
<use x="270.166016" xlink:href="#h"/>
<use x="333.544922" xlink:href="#d"/>
<use x="394.824219" xlink:href="#l"/>
</g>
</g>
<path d="m165.74 665.45 7.1772 33.037q0.50951 2.3453 2.8548 1.8358l7.566-1.6437q2.3453-0.50951 1.8358-2.8548l-7.1772-33.037q-0.50951-2.3453-2.8548-1.8358l-7.566 1.6437q-2.3453 0.50951-1.8358 2.8548z" clip-path="url(#a)" fill="#fff" stroke="#fff"/>
<g clip-path="url(#a)">
<g transform="translate(169.71 664.59) rotate(77.743) scale(.08 -.08)">
<use xlink:href="#k"/>
<use x="44.083984" xlink:href="#e"/>
<use x="105.607422" xlink:href="#i"/>
<use x="144.970703" xlink:href="#j"/>
<use x="242.382812" xlink:href="#g"/>
<use x="270.166016" xlink:href="#h"/>
<use x="333.544922" xlink:href="#d"/>
<use x="394.824219" xlink:href="#l"/>
</g>
</g>
<path d="m246.7 569.79 2.2073-5.1017q0.953-2.2027-1.2497-3.1557l-7.1059-3.0744q-2.2027-0.953-3.1557 1.2497l-2.2073 5.1017q-0.953 2.2027 1.2497 3.1557l7.1059 3.0744q2.2027 0.953 3.1557-1.2497z" clip-path="url(#a)" fill="#fff" stroke="#fff"/>
<g clip-path="url(#a)">
<g transform="translate(242.97 568.17) rotate(-66.604) scale(.08 -.08)">
<use xlink:href="#y"/>
</g>
</g>
<path d="m263.71 568.24 0.80205-4.991q0.3808-2.3696-1.9888-2.7504l-7.6444-1.2285q-2.3696-0.3808-2.7504 1.9888l-0.80205 4.991q-0.3808 2.3696 1.9888 2.7504l7.6444 1.2285q2.3696 0.3808 2.7504-1.9888z" clip-path="url(#a)" fill="#fff" stroke="#fff"/>
<g clip-path="url(#a)">
<g transform="translate(259.7 567.59) rotate(-80.871) scale(.08 -.08)">
<use xlink:href="#r"/>
</g>
</g>
<path d="m268.67 563.09 0.6811 5.0089q0.32337 2.3781 2.7015 2.0547l7.6719-1.0432q2.3781-0.32337 2.0547-2.7015l-0.6811-5.0089q-0.32337-2.3781-2.7015-2.0547l-7.6719 1.0432q-2.3781 0.32337-2.0547 2.7015z" clip-path="url(#a)" fill="#fff" stroke="#fff"/>
<g clip-path="url(#a)">
<g transform="translate(272.7 562.54) rotate(82.257) scale(.08 -.08)">
<use xlink:href="#r"/>
</g>
</g>
<path d="m287.12 564.81 2.3235 5.0801q0.99825 2.1825 3.1808 1.1843l7.041-3.2204q2.1825-0.99825 1.1843-3.1808l-2.3235-5.0801q-0.99825-2.1825-3.1808-1.1843l-7.041 3.2204q-2.1825 0.99825-1.1843 3.1808z" clip-path="url(#a)" fill="#fff" stroke="#fff"/>
<g clip-path="url(#a)">
<g transform="translate(290.81 563.12) rotate(65.422) scale(.08 -.08)">
<use xlink:href="#w"/>
</g>
</g>
<path d="m112.45 663.73v33.808q0 2.4 2.4 2.4h7.7425q2.4 0 2.4-2.4v-33.808q0-2.4-2.4-2.4h-7.7425q-2.4 0-2.4 2.4z" clip-path="url(#a)" fill="#fff" stroke="#fff"/>
<g clip-path="url(#a)">
<g transform="translate(116.51 663.73) rotate(90) scale(.08 -.08)">
<use xlink:href="#k"/>
<use x="44.083984" xlink:href="#e"/>
<use x="105.607422" xlink:href="#i"/>
<use x="144.970703" xlink:href="#j"/>
<use x="242.382812" xlink:href="#g"/>
<use x="270.166016" xlink:href="#h"/>
<use x="333.544922" xlink:href="#d"/>
<use x="394.824219" xlink:href="#l"/>
</g>
</g>
<path d="m210.54 663.73v33.808q0 2.4 2.4 2.4h7.7425q2.4 0 2.4-2.4v-33.808q0-2.4-2.4-2.4h-7.7425q-2.4 0-2.4 2.4z" clip-path="url(#a)" fill="#fff" stroke="#fff"/>
<g clip-path="url(#a)">
<g transform="translate(214.6 663.73) rotate(90) scale(.08 -.08)">
<use xlink:href="#k"/>
<use x="44.083984" xlink:href="#e"/>
<use x="105.607422" xlink:href="#i"/>
<use x="144.970703" xlink:href="#j"/>
<use x="242.382812" xlink:href="#g"/>
<use x="270.166016" xlink:href="#h"/>
<use x="333.544922" xlink:href="#d"/>
<use x="394.824219" xlink:href="#l"/>
</g>
</g>
<path d="m242.27 663.73v33.808q0 2.4 2.4 2.4h7.7425q2.4 0 2.4-2.4v-33.808q0-2.4-2.4-2.4h-7.7425q-2.4 0-2.4 2.4z" clip-path="url(#a)" fill="#fff" stroke="#fff"/>
<g clip-path="url(#a)">
<g transform="translate(246.34 663.73) rotate(90) scale(.08 -.08)">
<use xlink:href="#k"/>
<use x="44.083984" xlink:href="#e"/>
<use x="105.607422" xlink:href="#i"/>
<use x="144.970703" xlink:href="#j"/>
<use x="242.382812" xlink:href="#g"/>
<use x="270.166016" xlink:href="#h"/>
<use x="333.544922" xlink:href="#d"/>
<use x="394.824219" xlink:href="#l"/>
</g>
</g>
<path d="m276.89 663.73v33.808q0 2.4 2.4 2.4h7.7425q2.4 0 2.4-2.4v-33.808q0-2.4-2.4-2.4h-7.7425q-2.4 0-2.4 2.4z" clip-path="url(#a)" fill="#fff" stroke="#fff"/>
<g clip-path="url(#a)">
<g transform="translate(280.96 663.73) rotate(90) scale(.08 -.08)">
<use xlink:href="#k"/>
<use x="44.083984" xlink:href="#e"/>
<use x="105.607422" xlink:href="#i"/>
<use x="144.970703" xlink:href="#j"/>
<use x="242.382812" xlink:href="#g"/>
<use x="270.166016" xlink:href="#h"/>
<use x="333.544922" xlink:href="#d"/>
<use x="394.824219" xlink:href="#l"/>
</g>
</g>
<path d="m314.4 663.73v33.808q0 2.4 2.4 2.4h7.7425q2.4 0 2.4-2.4v-33.808q0-2.4-2.4-2.4h-7.7425q-2.4 0-2.4 2.4z" clip-path="url(#a)" fill="#fff" stroke="#fff"/>
<g clip-path="url(#a)">
<g transform="translate(318.46 663.73) rotate(90) scale(.08 -.08)">
<use xlink:href="#k"/>
<use x="44.083984" xlink:href="#e"/>
<use x="105.607422" xlink:href="#i"/>
<use x="144.970703" xlink:href="#j"/>
<use x="242.382812" xlink:href="#g"/>
<use x="270.166016" xlink:href="#h"/>
<use x="333.544922" xlink:href="#d"/>
<use x="394.824219" xlink:href="#l"/>
</g>
</g>
<path d="m357.67 663.73v33.808q0 2.4 2.4 2.4h7.7425q2.4 0 2.4-2.4v-33.808q0-2.4-2.4-2.4h-7.7425q-2.4 0-2.4 2.4z" clip-path="url(#a)" fill="#fff" stroke="#fff"/>
<g clip-path="url(#a)">
<g transform="translate(361.74 663.73) rotate(90) scale(.08 -.08)">
<use xlink:href="#k"/>
<use x="44.083984" xlink:href="#e"/>
<use x="105.607422" xlink:href="#i"/>
<use x="144.970703" xlink:href="#j"/>
<use x="242.382812" xlink:href="#g"/>
<use x="270.166016" xlink:href="#h"/>
<use x="333.544922" xlink:href="#d"/>
<use x="394.824219" xlink:href="#l"/>
</g>
</g>
<path d="m400.95 663.73v33.808q0 2.4 2.4 2.4h7.7425q2.4 0 2.4-2.4v-33.808q0-2.4-2.4-2.4h-7.7425q-2.4 0-2.4 2.4z" clip-path="url(#a)" fill="#fff" stroke="#fff"/>
<g clip-path="url(#a)">
<g transform="translate(405.01 663.73) rotate(90) scale(.08 -.08)">
<use xlink:href="#k"/>
<use x="44.083984" xlink:href="#e"/>
<use x="105.607422" xlink:href="#i"/>
<use x="144.970703" xlink:href="#j"/>
<use x="242.382812" xlink:href="#g"/>
<use x="270.166016" xlink:href="#h"/>
<use x="333.544922" xlink:href="#d"/>
<use x="394.824219" xlink:href="#l"/>
</g>
</g>
<path d="m721.18 663.73v33.808q0 2.4 2.4 2.4h7.7425q2.4 0 2.4-2.4v-33.808q0-2.4-2.4-2.4h-7.7425q-2.4 0-2.4 2.4z" clip-path="url(#a)" fill="#fff" stroke="#fff"/>
<g clip-path="url(#a)">
<g transform="translate(725.25 663.73) rotate(90) scale(.08 -.08)">
<use xlink:href="#k"/>
<use x="44.083984" xlink:href="#e"/>
<use x="105.607422" xlink:href="#i"/>
<use x="144.970703" xlink:href="#j"/>
<use x="242.382812" xlink:href="#g"/>
<use x="270.166016" xlink:href="#h"/>
<use x="333.544922" xlink:href="#d"/>
<use x="394.824219" xlink:href="#l"/>
</g>
</g>
<path d="m851.01 663.73v33.808q0 2.4 2.4 2.4h7.7425q2.4 0 2.4-2.4v-33.808q0-2.4-2.4-2.4h-7.7425q-2.4 0-2.4 2.4z" clip-path="url(#a)" fill="#fff" stroke="#fff"/>
<g clip-path="url(#a)">
<g transform="translate(855.07 663.73) rotate(90) scale(.08 -.08)">
<use xlink:href="#k"/>
<use x="44.083984" xlink:href="#e"/>
<use x="105.607422" xlink:href="#i"/>
<use x="144.970703" xlink:href="#j"/>
<use x="242.382812" xlink:href="#g"/>
<use x="270.166016" xlink:href="#h"/>
<use x="333.544922" xlink:href="#d"/>
<use x="394.824219" xlink:href="#l"/>
</g>
</g>
<path d="m1396.3 663.73v33.808q0 2.4 2.4 2.4h7.7425q2.4 0 2.4-2.4v-33.808q0-2.4-2.4-2.4h-7.7425q-2.4 0-2.4 2.4z" clip-path="url(#a)" fill="#fff" stroke="#fff"/>
<g clip-path="url(#a)">
<g transform="translate(1400.3 663.73) rotate(90) scale(.08 -.08)">
<use xlink:href="#k"/>
<use x="44.083984" xlink:href="#e"/>
<use x="105.607422" xlink:href="#i"/>
<use x="144.970703" xlink:href="#j"/>
<use x="242.382812" xlink:href="#g"/>
<use x="270.166016" xlink:href="#h"/>
<use x="333.544922" xlink:href="#d"/>
<use x="394.824219" xlink:href="#l"/>
</g>
</g>
<defs>
<path id="b" d="m0 8.6603c2.2967 0 4.4997-0.9125 6.1237-2.5365 1.624-1.624 2.5365-3.827 2.5365-6.1237s-0.9125-4.4997-2.5365-6.1237c-1.624-1.624-3.827-2.5365-6.1237-2.5365s-4.4997 0.9125-6.1237 2.5365c-1.624 1.624-2.5365 3.827-2.5365 6.1237s0.9125 4.4997 2.5365 6.1237c1.624 1.624 3.827 2.5365 6.1237 2.5365z"/>
</defs>
<g clip-path="url(#a)" fill="#ffffff" stroke="#ffffff">
<use x="66.787879" y="738.181818" xlink:href="#b"/>
<use x="75.442895" y="738.181818" xlink:href="#b"/>
<use x="86.982918" y="738.181818" xlink:href="#b"/>
<use x="101.407946" y="738.181818" xlink:href="#b"/>
<use x="118.717979" y="738.181818" xlink:href="#b"/>
<use x="138.913018" y="738.181818" xlink:href="#b"/>
<use x="161.993062" y="738.181818" xlink:href="#b"/>
<use x="187.958112" y="738.181818" xlink:href="#b"/>
<use x="216.808168" y="738.181818" xlink:href="#b"/>
<use x="248.543229" y="738.181818" xlink:href="#b"/>
<use x="283.163296" y="738.181818" xlink:href="#b"/>
<use x="320.668368" y="738.181818" xlink:href="#b"/>
<use x="363.943452" y="738.181818" xlink:href="#b"/>
<use x="407.218535" y="738.181818" xlink:href="#b"/>
<use x="453.378624" y="738.181818" xlink:href="#b"/>
<use x="502.423719" y="738.181818" xlink:href="#b"/>
<use x="554.353819" y="738.181818" xlink:href="#b"/>
<use x="609.168925" y="738.181818" xlink:href="#b"/>
<use x="666.869036" y="738.181818" xlink:href="#b"/>
<use x="727.454153" y="738.181818" xlink:href="#b"/>
<use x="790.924275" y="738.181818" xlink:href="#b"/>
<use x="857.279403" y="738.181818" xlink:href="#b"/>
<use x="926.519537" y="738.181818" xlink:href="#b"/>
<use x="998.644676" y="738.181818" xlink:href="#b"/>
<use x="1073.65482" y="738.181818" xlink:href="#b"/>
<use x="1151.549971" y="738.181818" xlink:href="#b"/>
<use x="1232.330126" y="738.181818" xlink:href="#b"/>
<use x="1315.995288" y="738.181818" xlink:href="#b"/>
<use x="1402.545455" y="738.181818" xlink:href="#b"/>
<use x="323.553374" y="389.094759" xlink:href="#b"/>
<use x="354.229598" y="35.151515" xlink:href="#b"/>
<use x="88.500551" y="153.390406" xlink:href="#b"/>
<use x="453.378624" y="623.09084" xlink:href="#b"/>
<use x="458.106828" y="271.391464" xlink:href="#b"/>
<use x="502.423719" y="623.09084" xlink:href="#b"/>
<use x="805.108886" y="389.094759" xlink:href="#b"/>
<use x="554.353819" y="623.09084" xlink:href="#b"/>
<use x="609.168925" y="623.09084" xlink:href="#b"/>
<use x="666.869036" y="623.09084" xlink:href="#b"/>
<use x="790.924275" y="623.09084" xlink:href="#b"/>
<use x="999.606344" y="506.398819" xlink:href="#b"/>
<use x="1235.215132" y="506.398819" xlink:href="#b"/>
<use x="1151.549971" y="623.09084" xlink:href="#b"/>
<use x="1232.330126" y="623.09084" xlink:href="#b"/>
<use x="1315.995288" y="623.09084" xlink:href="#b"/>
<use x="926.519537" y="623.09084" xlink:href="#b"/>
<use x="998.644676" y="623.09084" xlink:href="#b"/>
<use x="1073.65482" y="623.09084" xlink:href="#b"/>
<use x="66.787879" y="623.09084" xlink:href="#b"/>
<use x="75.442895" y="623.09084" xlink:href="#b"/>
<use x="86.982918" y="623.09084" xlink:href="#b"/>
<use x="124.788511" y="271.391464" xlink:href="#b"/>
<use x="162.594105" y="389.094759" xlink:href="#b"/>
<use x="101.407946" y="623.09084" xlink:href="#b"/>
<use x="162.954731" y="623.09084" xlink:href="#b"/>
<use x="267.295765" y="506.398819" xlink:href="#b"/>
<use x="118.717979" y="623.09084" xlink:href="#b"/>
<use x="216.808168" y="623.09084" xlink:href="#b"/>
<use x="248.543229" y="623.09084" xlink:href="#b"/>
<use x="283.163296" y="623.09084" xlink:href="#b"/>
<use x="320.668368" y="623.09084" xlink:href="#b"/>
<use x="363.943452" y="623.09084" xlink:href="#b"/>
<use x="407.218535" y="623.09084" xlink:href="#b"/>
<use x="727.454153" y="623.09084" xlink:href="#b"/>
<use x="857.279403" y="623.09084" xlink:href="#b"/>
<use x="1402.545455" y="623.09084" xlink:href="#b"/>
</g>
<g clip-path="url(#a)">
<defs>
<path id="q" d="m54.891 33.016v-33.016h-8.9844v32.719q0 7.7656-3.0312 11.609-3.0312 3.8594-9.0781 3.8594-7.2812 0-11.484-4.6406-4.2031-4.625-4.2031-12.641v-30.906h-9.0312v75.984h9.0312v-29.797q3.2344 4.9375 7.5938 7.375 4.375 2.4375 10.094 2.4375 9.4219 0 14.25-5.8281 4.8438-5.8281 4.8438-17.156z"/>
</defs>
<g transform="translate(57.368 740.94) scale(.1 -.1)">
<use xlink:href="#ad"/>
<use x="63.476562" xlink:href="#q"/>
<use x="126.855469" xlink:href="#e"/>
</g>
</g>
<g clip-path="url(#a)">
<defs>
<path id="x" d="m48.781 52.594v-8.4062q-3.8125 2.1094-7.6406 3.1562t-7.7344 1.0469q-8.75 0-13.594-5.5469-4.8281-5.5312-4.8281-15.547t4.8281-15.562q4.8438-5.5312 13.594-5.5312 3.9062 0 7.7344 1.0469t7.6406 3.1562v-8.3125q-3.7656-1.75-7.7969-2.625-4.0156-0.89062-8.5625-0.89062-12.359 0-19.641 7.7656-7.2656 7.7656-7.2656 20.953 0 13.375 7.3438 21.031 7.3594 7.6719 20.156 7.6719 4.1406 0 8.0938-0.85938 3.9531-0.84375 7.6719-2.5469z"/>
<path id="p" d="m18.312 70.219v-15.531h18.5v-6.9844h-18.5v-29.688q0-6.6875 1.8281-8.5938t7.4531-1.9062h9.2188v-7.5156h-9.2188q-10.406 0-14.359 3.875-3.9531 3.8906-3.9531 14.141v29.688h-6.5938v6.9844h6.5938v15.531z"/>
<path id="at" d="m5.5156 54.688h42.672v-8.2031l-33.781-39.312h33.781v-7.1719h-43.891v8.2031l33.797 39.312h-32.578z"/>
<path id="ac" d="m45.406 46.391v29.594h8.9844v-75.984h-8.9844v8.2031q-2.8281-4.875-7.1562-7.25-4.3125-2.375-10.375-2.375-9.9062 0-16.141 7.9062-6.2188 7.9219-6.2188 20.812t6.2188 20.797q6.2344 7.9062 16.141 7.9062 6.0625 0 10.375-2.375 4.3281-2.3594 7.1562-7.2344zm-30.609-19.094q0-9.9062 4.0781-15.547t11.203-5.6406 11.219 5.6406q4.1094 5.6406 4.1094 15.547t-4.1094 15.547q-4.0938 5.6406-11.219 5.6406t-11.203-5.6406-4.0781-15.547z"/>
</defs>
<g transform="translate(41.236 740.94) scale(.1 -.1)">
<use xlink:href="#x"/>
<use x="54.980469" xlink:href="#q"/>
<use x="118.359375" xlink:href="#d"/>
<use x="179.638672" xlink:href="#i"/>
<use x="220.751953" xlink:href="#d"/>
<use x="282.03125" xlink:href="#x"/>
<use x="337.011719" xlink:href="#p"/>
<use x="376.220703" xlink:href="#e"/>
<use x="437.744141" xlink:href="#i"/>
<use x="478.857422" xlink:href="#g"/>
<use x="506.640625" xlink:href="#at"/>
<use x="559.130859" xlink:href="#e"/>
<use x="620.654297" xlink:href="#ac"/>
</g>
</g>
<g clip-path="url(#a)">
<g transform="translate(83.634 740.94) scale(.1 -.1)">
<use xlink:href="#g"/>
<use x="27.783203" xlink:href="#p"/>
</g>
</g>
<g clip-path="url(#a)">
<defs>
<path id="v" d="m44.281 53.078v-8.5q-3.7969 1.9531-7.9062 2.9219-4.0938 0.98438-8.5 0.98438-6.6875 0-10.031-2.0469t-3.3438-6.1562q0-3.125 2.3906-4.9062t9.625-3.3906l3.0781-0.6875q9.5625-2.0469 13.594-5.7812t4.0312-10.422q0-7.625-6.0312-12.078-6.0312-4.4375-16.578-4.4375-4.3906 0-9.1562 0.85938t-10.031 2.5625v9.2812q4.9844-2.5938 9.8125-3.8906 4.8281-1.2812 9.5781-1.2812 6.3438 0 9.75 2.1719 3.4219 2.1719 3.4219 6.125 0 3.6562-2.4688 5.6094-2.4531 1.9531-10.812 3.7656l-3.125 0.73438q-8.3438 1.75-12.062 5.3906-3.7031 3.6406-3.7031 9.9844 0 7.7188 5.4688 11.906 5.4688 4.2031 15.531 4.2031 4.9688 0 9.3594-0.73438 4.4062-0.71875 8.1094-2.1875z"/>
</defs>
<g transform="translate(95.739 740.94) scale(.1 -.1)">
<use xlink:href="#d"/>
<use x="61.279297" xlink:href="#v"/>
</g>
</g>
<g clip-path="url(#a)">
<defs>
<path id="ab" d="m17.922 72.906v-27.109h-8.2969v27.109zm18.453 0v-27.109h-8.2969v27.109z"/>
</defs>
<g transform="translate(116.42 740.94) scale(.1 -.1)">
<use xlink:href="#ab"/>
</g>
</g>
<g clip-path="url(#a)">
<defs>
<path id="ap" d="m18.109 8.2031v-29h-9.0312v75.484h9.0312v-8.2969q2.8438 4.875 7.1562 7.2344 4.3281 2.375 10.328 2.375 9.9688 0 16.188-7.9062 6.2344-7.9062 6.2344-20.797t-6.2344-20.812q-6.2188-7.9062-16.188-7.9062-6 0-10.328 2.375-4.3125 2.375-7.1562 7.25zm30.578 19.094q0 9.9062-4.0781 15.547t-11.203 5.6406q-7.1406 0-11.219-5.6406t-4.0781-15.547 4.0781-15.547 11.219-5.6406q7.125 0 11.203 5.6406t4.0781 15.547z"/>
<path id="t" d="m30.609 48.391q-7.2188 0-11.422-5.6406t-4.2031-15.453 4.1719-15.453q4.1875-5.6406 11.453-5.6406 7.1875 0 11.375 5.6562 4.2031 5.6719 4.2031 15.438 0 9.7188-4.2031 15.406-4.1875 5.6875-11.375 5.6875zm0 7.6094q11.719 0 18.406-7.625 6.7031-7.6094 6.7031-21.078 0-13.422-6.7031-21.078-6.6875-7.6406-18.406-7.6406-11.766 0-18.438 7.6406-6.6562 7.6562-6.6562 21.078 0 13.469 6.6562 21.078 6.6719 7.625 18.438 7.625z"/>
</defs>
<g transform="translate(104.7 740.94) scale(.1 -.1)">
<use xlink:href="#r"/>
<use x="63.183594" xlink:href="#j"/>
<use x="160.595703" xlink:href="#d"/>
<use x="221.875" xlink:href="#h"/>
<use x="285.253906" xlink:href="#x"/>
<use x="340.234375" xlink:href="#g"/>
<use x="368.017578" xlink:href="#ap"/>
<use x="431.494141" xlink:href="#d"/>
<use x="492.773438" xlink:href="#p"/>
<use x="531.982422" xlink:href="#g"/>
<use x="559.765625" xlink:href="#t"/>
<use x="620.947266" xlink:href="#h"/>
</g>
</g>
<g clip-path="url(#a)">
<defs>
<path id="aq" d="m37.109 75.984v-7.4844h-8.5938q-4.8281 0-6.7188-1.9531-1.875-1.9531-1.875-7.0312v-4.8281h14.797v-6.9844h-14.797v-47.703h-9.0312v47.703h-8.5938v6.9844h8.5938v3.8125q0 9.125 4.25 13.297 4.25 4.1875 13.469 4.1875z"/>
</defs>
<g transform="translate(157.17 740.94) scale(.1 -.1)">
<use xlink:href="#t"/>
<use x="61.181641" xlink:href="#aq"/>
</g>
</g>
<g clip-path="url(#a)">
<defs>
<path id="ai" d="m9.8125 72.906h14.703l18.594-49.609 18.703 49.609h14.703v-72.906h-9.625v64.016l-18.797-50h-9.9062l-18.797 50v-64.016h-9.5781z"/>
</defs>
<g transform="translate(176 740.94) scale(.1 -.1)">
<use xlink:href="#ai"/>
<use x="86.279297" xlink:href="#g"/>
<use x="114.0625" xlink:href="#j"/>
<use x="211.474609" xlink:href="#g"/>
</g>
</g>
<g clip-path="url(#a)">
<g transform="translate(211.79 740.94) scale(.1 -.1)">
<use xlink:href="#p"/>
<use x="39.208984" xlink:href="#t"/>
</g>
</g>
<g clip-path="url(#a)">
<g transform="translate(240.34 740.94) scale(.1 -.1)">
<use xlink:href="#p"/>
<use x="39.208984" xlink:href="#q"/>
<use x="102.587891" xlink:href="#e"/>
</g>
</g>
<g clip-path="url(#a)">
<g transform="translate(265.33 740.94) scale(.1 -.1)">
<use xlink:href="#v"/>
<use x="52.099609" xlink:href="#e"/>
<use x="113.623047" xlink:href="#x"/>
<use x="168.603516" xlink:href="#t"/>
<use x="229.785156" xlink:href="#h"/>
<use x="293.164062" xlink:href="#ac"/>
</g>
</g>
<g clip-path="url(#a)">
<defs>
<path id="ao" d="m4.2031 54.688h8.9844l11.234-42.672 11.172 42.672h10.594l11.234-42.672 11.188 42.672h8.9844l-14.312-54.688h-10.594l-11.766 44.828-11.812-44.828h-10.609z"/>
</defs>
<g transform="translate(305.21 740.94) scale(.1 -.1)">
<use xlink:href="#ap"/>
<use x="63.476562" xlink:href="#t"/>
<use x="124.658203" xlink:href="#ao"/>
<use x="206.445312" xlink:href="#e"/>
<use x="267.96875" xlink:href="#i"/>
</g>
</g>
<g clip-path="url(#a)">
<g transform="translate(361.64 740.94) scale(.1 -.1)">
<use xlink:href="#ab"/>
</g>
</g>
<g clip-path="url(#a)">
<defs>
<path id="as" d="m11.719 12.406h10.297v-8.4062l-8-15.625h-6.2969l4 15.625z"/>
</defs>
<g transform="translate(405.63 740.94) scale(.1 -.1)">
<use xlink:href="#as"/>
</g>
</g>
<g clip-path="url(#a)">
<g transform="translate(443.97 740.94) scale(.1 -.1)">
<use xlink:href="#d"/>
<use x="61.279297" xlink:href="#h"/>
<use x="124.658203" xlink:href="#ac"/>
</g>
</g>
<g clip-path="url(#a)">
<g transform="translate(492.19 740.94) scale(.1 -.1)">
<use xlink:href="#v"/>
<use x="52.099609" xlink:href="#d"/>
<use x="113.378906" xlink:href="#g"/>
<use x="141.162109" xlink:href="#ac"/>
</g>
</g>
<g clip-path="url(#a)">
<g transform="translate(544.2 740.94) scale(.1 -.1)">
<use xlink:href="#p"/>
<use x="39.208984" xlink:href="#q"/>
<use x="102.587891" xlink:href="#d"/>
<use x="163.867188" xlink:href="#p"/>
</g>
</g>
<g clip-path="url(#a)">
<g transform="translate(600.32 740.94) scale(.1 -.1)">
<use xlink:href="#v"/>
<use x="52.099609" xlink:href="#q"/>
<use x="115.478516" xlink:href="#e"/>
</g>
</g>
<g clip-path="url(#a)">
<g transform="translate(657.11 740.94) scale(.1 -.1)">
<use xlink:href="#ao"/>
<use x="81.787109" xlink:href="#d"/>
<use x="143.066406" xlink:href="#v"/>
</g>
</g>
<g clip-path="url(#a)">
<g transform="translate(725.15 740.94) scale(.1 -.1)">
<use xlink:href="#ab"/>
</g>
</g>
<g clip-path="url(#a)">
<g transform="translate(779.01 740.94) scale(.1 -.1)">
<use xlink:href="#aq"/>
<use x="35.205078" xlink:href="#i"/>
<use x="74.068359" xlink:href="#e"/>
<use x="135.591797" xlink:href="#e"/>
<use x="197.115234" xlink:href="#i"/>
</g>
</g>
<g clip-path="url(#a)">
<g transform="translate(854.98 740.94) scale(.1 -.1)">
<use xlink:href="#ab"/>
</g>
</g>
<g clip-path="url(#a)">
<g transform="translate(920.29 740.94) scale(.1 -.1)">
<use xlink:href="#t"/>
<use x="61.181641" xlink:href="#h"/>
</g>
</g>
<g clip-path="url(#a)">
<g transform="translate(989.52 740.94) scale(.1 -.1)">
<use xlink:href="#p"/>
<use x="39.208984" xlink:href="#q"/>
<use x="102.587891" xlink:href="#g"/>
<use x="130.371094" xlink:href="#v"/>
</g>
</g>
<g clip-path="url(#a)">
<defs>
<path id="ar" d="m48.688 27.297q0 9.9062-4.0781 15.547t-11.203 5.6406q-7.1406 0-11.219-5.6406t-4.0781-15.547 4.0781-15.547 11.219-5.6406q7.125 0 11.203 5.6406t4.0781 15.547zm-30.578 19.094q2.8438 4.875 7.1562 7.2344 4.3281 2.375 10.328 2.375 9.9688 0 16.188-7.9062 6.2344-7.9062 6.2344-20.797t-6.2344-20.812q-6.2188-7.9062-16.188-7.9062-6 0-10.328 2.375-4.3125 2.375-7.1562 7.25v-8.2031h-9.0312v75.984h9.0312z"/>
<path id="av" d="m8.5 21.578v33.109h8.9844v-32.766q0-7.7656 3.0156-11.656 3.0312-3.875 9.0938-3.875 7.2656 0 11.484 4.6406 4.2344 4.6406 4.2344 12.656v31h8.9844v-54.688h-8.9844v8.4062q-3.2656-4.9844-7.5938-7.4062-4.3125-2.4219-10.031-2.4219-9.4219 0-14.312 5.8594-4.875 5.8594-4.875 17.141z"/>
</defs>
<g transform="translate(1058 740.94) scale(.1 -.1)">
<use xlink:href="#d"/>
<use x="61.279297" xlink:href="#l"/>
<use x="89.0625" xlink:href="#ar"/>
<use x="152.539062" xlink:href="#av"/>
<use x="215.917969" xlink:href="#j"/>
</g>
</g>
<g clip-path="url(#a)">
<g transform="translate(1140.2 740.94) scale(.1 -.1)">
<use xlink:href="#p"/>
<use x="39.208984" xlink:href="#q"/>
<use x="102.587891" xlink:href="#d"/>
<use x="163.867188" xlink:href="#h"/>
</g>
</g>
<g clip-path="url(#a)">
<defs>
<path id="au" d="m32.172-5.0781q-3.7969-9.7656-7.4219-12.734-3.6094-2.9844-9.6562-2.9844h-7.1875v7.5156h5.2812q3.7031 0 5.75 1.7656 2.0625 1.75 4.5469 8.2969l1.6094 4.0938-22.109 53.812h9.5156l17.094-42.766 17.094 42.766h9.5156z"/>
</defs>
<g transform="translate(1223.1 740.94) scale(.1 -.1)">
<use xlink:href="#d"/>
<use x="61.279297" xlink:href="#h"/>
<use x="124.658203" xlink:href="#au"/>
</g>
</g>
<g clip-path="url(#a)">
<g transform="translate(1302.7 740.94) scale(.1 -.1)">
<use xlink:href="#t"/>
<use x="61.181641" xlink:href="#p"/>
<use x="100.390625" xlink:href="#q"/>
<use x="163.769531" xlink:href="#e"/>
<use x="225.292969" xlink:href="#i"/>
</g>
</g>
<g clip-path="url(#a)">
<defs>
<path id="f" d="m10.688 12.406h10.312v-12.406h-10.312z"/>
</defs>
<g transform="translate(1401 740.94) scale(.1 -.1)">
<use xlink:href="#f"/>
</g>
</g>
<g clip-path="url(#a)">
<defs>
<path id="af" d="m9.8125 72.906h9.8594v-72.906h-9.8594z"/>
</defs>
<g transform="translate(302.47 391.85) scale(.1 -.1)">
<use xlink:href="#af"/>
<use x="29.492188" xlink:href="#ai"/>
<use x="115.771484" xlink:href="#ae"/>
<use x="176.074219" xlink:href="#aj"/>
<use x="231.787109" xlink:href="#af"/>
<use x="261.279297" xlink:href="#w"/>
<use x="331.103516" xlink:href="#af"/>
<use x="360.595703" xlink:href="#k"/>
</g>
</g>
<g clip-path="url(#a)">
<defs>
<path id="c" d="m12.406 8.2969h16.109v55.625l-17.531-3.5156v8.9844l17.438 3.5156h9.8594v-64.609h16.109v-8.2969h-41.984z"/>
</defs>
<g transform="translate(346.28 37.911) scale(.1 -.1)">
<use xlink:href="#c"/>
<use x="63.623047" xlink:href="#f"/>
<use x="95.410156" xlink:href="#c"/>
</g>
</g>
<g clip-path="url(#a)">
<defs>
<path id="n" d="m19.188 8.2969h34.422v-8.2969h-46.281v8.2969q5.6094 5.8125 15.297 15.594 9.7031 9.7969 12.188 12.641 4.7344 5.3125 6.6094 9 1.8906 3.6875 1.8906 7.25 0 5.8125-4.0781 9.4688-4.0781 3.6719-10.625 3.6719-4.6406 0-9.7969-1.6094-5.1406-1.6094-11-4.8906v9.9688q5.9531 2.3906 11.125 3.6094 5.1875 1.2188 9.4844 1.2188 11.328 0 18.062-5.6719 6.7344-5.6562 6.7344-15.125 0-4.5-1.6875-8.5312-1.6719-4.0156-6.125-9.4844-1.2188-1.4219-7.7656-8.1875-6.5312-6.7656-18.453-18.922z"/>
</defs>
<g transform="translate(80.549 156.15) scale(.1 -.1)">
<use xlink:href="#c"/>
<use x="63.623047" xlink:href="#f"/>
<use x="95.410156" xlink:href="#n"/>
</g>
</g>
<g clip-path="url(#a)">
<defs>
<path id="m" d="m40.578 39.312q7.0781-1.5156 11.047-6.3125 3.9844-4.7812 3.9844-11.812 0-10.781-7.4219-16.703-7.4219-5.9062-21.094-5.9062-4.5781 0-9.4375 0.90625t-10.031 2.7188v9.5156q4.0938-2.3906 8.9688-3.6094 4.8906-1.2188 10.219-1.2188 9.2656 0 14.125 3.6562t4.8594 10.641q0 6.4531-4.5156 10.078-4.5156 3.6406-12.562 3.6406h-8.5v8.1094h8.8906q7.2656 0 11.125 2.9062t3.8594 8.375q0 5.6094-3.9844 8.6094-3.9688 3.0156-11.391 3.0156-4.0625 0-8.7031-0.89062-4.6406-0.875-10.203-2.7188v8.7812q5.625 1.5625 10.531 2.3438t9.25 0.78125q11.234 0 17.766-5.1094 6.5469-5.0938 6.5469-13.781 0-6.0625-3.4688-10.234t-9.8594-5.7812z"/>
</defs>
<g transform="translate(445.43 625.85) scale(.1 -.1)">
<use xlink:href="#c"/>
<use x="63.623047" xlink:href="#f"/>
<use x="95.410156" xlink:href="#m"/>
</g>
</g>
<g clip-path="url(#a)">
<defs>
<path id="s" d="m37.797 64.312-24.906-38.922h24.906zm-2.5938 8.5938h12.406v-47.516h10.406v-8.2031h-10.406v-17.188h-9.8125v17.188h-32.906v9.5156z"/>
</defs>
<g transform="translate(450.16 274.15) scale(.1 -.1)">
<use xlink:href="#c"/>
<use x="63.623047" xlink:href="#f"/>
<use x="95.410156" xlink:href="#s"/>
</g>
</g>
<g clip-path="url(#a)">
<defs>
<path id="ag" d="m31.781 34.625q-7.0312 0-11.062-3.7656-4.0156-3.7656-4.0156-10.344 0-6.5938 4.0156-10.359 4.0312-3.7656 11.062-3.7656t11.078 3.7812q4.0625 3.7969 4.0625 10.344 0 6.5781-4.0312 10.344-4.0156 3.7656-11.109 3.7656zm-9.8594 4.1875q-6.3438 1.5625-9.8906 5.9062-3.5312 4.3594-3.5312 10.609 0 8.7344 6.2188 13.812 6.2344 5.0781 17.062 5.0781 10.891 0 17.094-5.0781t6.2031-13.812q0-6.25-3.5469-10.609-3.5312-4.3438-9.8281-5.9062 7.125-1.6562 11.094-6.5 3.9844-4.8281 3.9844-11.797 0-10.609-6.4688-16.281-6.4688-5.6562-18.531-5.6562-12.047 0-18.531 5.6562-6.4688 5.6719-6.4688 16.281 0 6.9688 4 11.797 4.0156 4.8438 11.141 6.5zm-3.6094 15.578q0-5.6562 3.5312-8.8281 3.5469-3.1719 9.9375-3.1719 6.3594 0 9.9375 3.1719 3.5938 3.1719 3.5938 8.8281 0 5.6719-3.5938 8.8438-3.5781 3.1719-9.9375 3.1719-6.3906 0-9.9375-3.1719-3.5312-3.1719-3.5312-8.8438z"/>
</defs>
<g transform="translate(494.47 625.85) scale(.1 -.1)">
<use xlink:href="#c"/>
<use x="63.623047" xlink:href="#f"/>
<use x="95.410156" xlink:href="#ag"/>
</g>
</g>
<g clip-path="url(#a)">
<defs>
<path id="z" d="m10.984 1.5156v8.9844q3.7188-1.7656 7.5156-2.6875 3.8125-0.92188 7.4844-0.92188 9.7656 0 14.906 6.5625 5.1562 6.5625 5.8906 19.953-2.8281-4.2031-7.1875-6.4531-4.3438-2.25-9.6094-2.25-10.938 0-17.312 6.6094-6.375 6.625-6.375 18.109 0 11.219 6.6406 18 6.6406 6.7969 17.672 6.7969 12.656 0 19.312-9.7031 6.6719-9.6875 6.6719-28.141 0-17.234-8.1875-27.516-8.1719-10.281-21.984-10.281-3.7188 0-7.5312 0.73438-3.7969 0.73438-7.9062 2.2031zm19.625 30.906q6.6406 0 10.516 4.5312 3.8906 4.5469 3.8906 12.469 0 7.8594-3.8906 12.422-3.875 4.5625-10.516 4.5625t-10.516-4.5625-3.875-12.422q0-7.9219 3.875-12.469 3.875-4.5312 10.516-4.5312z"/>
</defs>
<g transform="translate(797.16 391.85) scale(.1 -.1)">
<use xlink:href="#c"/>
<use x="63.623047" xlink:href="#f"/>
<use x="95.410156" xlink:href="#z"/>
</g>
</g>
<g clip-path="url(#a)">
<defs>
<path id="aa" d="m31.781 66.406q-7.6094 0-11.453-7.5-3.8281-7.4844-3.8281-22.531 0-14.984 3.8281-22.484 3.8438-7.5 11.453-7.5 7.6719 0 11.5 7.5 3.8438 7.5 3.8438 22.484 0 15.047-3.8438 22.531-3.8281 7.5-11.5 7.5zm0 7.8125q12.266 0 18.734-9.7031 6.4688-9.6875 6.4688-28.141 0-18.406-6.4688-28.109-6.4688-9.6875-18.734-9.6875-12.25 0-18.719 9.6875-6.4688 9.7031-6.4688 28.109 0 18.453 6.4688 28.141 6.4688 9.7031 18.719 9.7031z"/>
</defs>
<g transform="translate(543.22 625.85) scale(.1 -.1)">
<use xlink:href="#c"/>
<use x="63.623047" xlink:href="#f"/>
<use x="95.410156" xlink:href="#c"/>
<use x="159.033203" xlink:href="#aa"/>
</g>
</g>
<g clip-path="url(#a)">
<g transform="translate(598.04 625.85) scale(.1 -.1)">
<use xlink:href="#c"/>
<use x="63.623047" xlink:href="#f"/>
<use x="95.410156" xlink:href="#c"/>
<use x="159.033203" xlink:href="#c"/>
</g>
</g>
<g clip-path="url(#a)">
<g transform="translate(655.74 625.85) scale(.1 -.1)">
<use xlink:href="#c"/>
<use x="63.623047" xlink:href="#f"/>
<use x="95.410156" xlink:href="#c"/>
<use x="159.033203" xlink:href="#n"/>
</g>
</g>
<g clip-path="url(#a)">
<g transform="translate(779.79 625.85) scale(.1 -.1)">
<use xlink:href="#c"/>
<use x="63.623047" xlink:href="#f"/>
<use x="95.410156" xlink:href="#c"/>
<use x="159.033203" xlink:href="#m"/>
</g>
</g>
<g clip-path="url(#a)">
<g transform="translate(988.47 509.16) scale(.1 -.1)">
<use xlink:href="#c"/>
<use x="63.623047" xlink:href="#f"/>
<use x="95.410156" xlink:href="#c"/>
<use x="159.033203" xlink:href="#s"/>
</g>
</g>
<g clip-path="url(#a)">
<defs>
<path id="ah" d="m10.797 72.906h38.719v-8.3125h-29.688v-17.859q2.1406 0.73438 4.2812 1.0938 2.1562 0.35938 4.3125 0.35938 12.203 0 19.328-6.6875 7.1406-6.6875 7.1406-18.109 0-11.766-7.3281-18.297-7.3281-6.5156-20.656-6.5156-4.5938 0-9.3594 0.78125-4.75 0.78125-9.8281 2.3438v9.9219q4.3906-2.3906 9.0781-3.5625t9.9062-1.1719q8.4531 0 13.375 4.4375 4.9375 4.4375 4.9375 12.062 0 7.6094-4.9375 12.047-4.9219 4.4531-13.375 4.4531-3.9531 0-7.8906-0.875-3.9219-0.875-8.0156-2.7344z"/>
</defs>
<g transform="translate(1224.1 509.16) scale(.1 -.1)">
<use xlink:href="#c"/>
<use x="63.623047" xlink:href="#f"/>
<use x="95.410156" xlink:href="#c"/>
<use x="159.033203" xlink:href="#ah"/>
</g>
</g>
<g clip-path="url(#a)">
<g transform="translate(1140.4 625.85) scale(.1 -.1)">
<use xlink:href="#c"/>
<use x="63.623047" xlink:href="#f"/>
<use x="95.410156" xlink:href="#c"/>
<use x="159.033203" xlink:href="#ag"/>
</g>
</g>
<g clip-path="url(#a)">
<g transform="translate(1221.2 625.85) scale(.1 -.1)">
<use xlink:href="#c"/>
<use x="63.623047" xlink:href="#f"/>
<use x="95.410156" xlink:href="#c"/>
<use x="159.033203" xlink:href="#z"/>
</g>
</g>
<g clip-path="url(#a)">
<g transform="translate(1304.9 625.85) scale(.1 -.1)">
<use xlink:href="#c"/>
<use x="63.623047" xlink:href="#f"/>
<use x="95.410156" xlink:href="#n"/>
<use x="159.033203" xlink:href="#aa"/>
</g>
</g>
<g clip-path="url(#a)">
<g transform="translate(915.39 625.85) scale(.1 -.1)">
<use xlink:href="#c"/>
<use x="63.623047" xlink:href="#f"/>
<use x="95.410156" xlink:href="#n"/>
<use x="159.033203" xlink:href="#c"/>
</g>
</g>
<g clip-path="url(#a)">
<g transform="translate(987.51 625.85) scale(.1 -.1)">
<use xlink:href="#c"/>
<use x="63.623047" xlink:href="#f"/>
<use x="95.410156" xlink:href="#n"/>
<use x="159.033203" xlink:href="#n"/>
</g>
</g>
<g clip-path="url(#a)">
<g transform="translate(1062.5 625.85) scale(.1 -.1)">
<use xlink:href="#c"/>
<use x="63.623047" xlink:href="#f"/>
<use x="95.410156" xlink:href="#n"/>
<use x="159.033203" xlink:href="#m"/>
</g>
</g>
<g clip-path="url(#a)">
<g transform="translate(55.655 625.85) scale(.1 -.1)">
<use xlink:href="#c"/>
<use x="63.623047" xlink:href="#f"/>
<use x="95.410156" xlink:href="#n"/>
<use x="159.033203" xlink:href="#s"/>
</g>
</g>
<g clip-path="url(#a)">
<g transform="translate(64.31 625.85) scale(.1 -.1)">
<use xlink:href="#c"/>
<use x="63.623047" xlink:href="#f"/>
<use x="95.410156" xlink:href="#n"/>
<use x="159.033203" xlink:href="#ah"/>
</g>
</g>
<g clip-path="url(#a)">
<defs>
<path id="an" d="m33.016 40.375q-6.6406 0-10.531-4.5469-3.875-4.5312-3.875-12.438 0-7.8594 3.875-12.438 3.8906-4.5625 10.531-4.5625t10.516 4.5625q3.875 4.5781 3.875 12.438 0 7.9062-3.875 12.438-3.875 4.5469-10.516 4.5469zm19.578 30.922v-8.9844q-3.7188 1.75-7.5 2.6719-3.7812 0.9375-7.5 0.9375-9.7656 0-14.922-6.5938-5.1406-6.5938-5.875-19.922 2.875 4.25 7.2188 6.5156 4.3594 2.2656 9.5781 2.2656 10.984 0 17.359-6.6719 6.375-6.6562 6.375-18.125 0-11.234-6.6406-18.031-6.6406-6.7812-17.672-6.7812-12.656 0-19.344 9.6875-6.6875 9.7031-6.6875 28.109 0 17.281 8.2031 27.562t22.016 10.281q3.7188 0 7.5-0.73438t7.8906-2.1875z"/>
</defs>
<g transform="translate(75.85 625.85) scale(.1 -.1)">
<use xlink:href="#c"/>
<use x="63.623047" xlink:href="#f"/>
<use x="95.410156" xlink:href="#n"/>
<use x="159.033203" xlink:href="#an"/>
</g>
</g>
<g clip-path="url(#a)">
<defs>
<path id="am" d="m8.2031 72.906h46.875v-4.2031l-26.469-68.703h-10.297l24.906 64.594h-35.016z"/>
</defs>
<g transform="translate(113.66 274.15) scale(.1 -.1)">
<use xlink:href="#c"/>
<use x="63.623047" xlink:href="#f"/>
<use x="95.410156" xlink:href="#n"/>
<use x="159.033203" xlink:href="#am"/>
</g>
</g>
<g clip-path="url(#a)">
<g transform="translate(151.46 391.85) scale(.1 -.1)">
<use xlink:href="#c"/>
<use x="63.623047" xlink:href="#f"/>
<use x="95.410156" xlink:href="#n"/>
<use x="159.033203" xlink:href="#z"/>
</g>
</g>
<g clip-path="url(#a)">
<g transform="translate(90.275 625.85) scale(.1 -.1)">
<use xlink:href="#c"/>
<use x="63.623047" xlink:href="#f"/>
<use x="95.410156" xlink:href="#m"/>
<use x="159.033203" xlink:href="#aa"/>
</g>
</g>
<g clip-path="url(#a)">
<g transform="translate(151.82 625.85) scale(.1 -.1)">
<use xlink:href="#c"/>
<use x="63.623047" xlink:href="#f"/>
<use x="95.410156" xlink:href="#m"/>
<use x="159.033203" xlink:href="#c"/>
</g>
</g>
<g clip-path="url(#a)">
<g transform="translate(256.16 509.16) scale(.1 -.1)">
<use xlink:href="#c"/>
<use x="63.623047" xlink:href="#f"/>
<use x="95.410156" xlink:href="#m"/>
<use x="159.033203" xlink:href="#n"/>
</g>
</g>
<g clip-path="url(#a)">
<g transform="translate(107.59 625.85) scale(.1 -.1)">
<use xlink:href="#c"/>
<use x="63.623047" xlink:href="#f"/>
<use x="95.410156" xlink:href="#m"/>
<use x="159.033203" xlink:href="#m"/>
</g>
</g>
<g clip-path="url(#a)">
<g transform="translate(205.68 625.85) scale(.1 -.1)">
<use xlink:href="#c"/>
<use x="63.623047" xlink:href="#f"/>
<use x="95.410156" xlink:href="#m"/>
<use x="159.033203" xlink:href="#s"/>
</g>
</g>
<g clip-path="url(#a)">
<g transform="translate(237.41 625.85) scale(.1 -.1)">
<use xlink:href="#c"/>
<use x="63.623047" xlink:href="#f"/>
<use x="95.410156" xlink:href="#m"/>
<use x="159.033203" xlink:href="#ah"/>
</g>
</g>
<g clip-path="url(#a)">
<g transform="translate(272.03 625.85) scale(.1 -.1)">
<use xlink:href="#c"/>
<use x="63.623047" xlink:href="#f"/>
<use x="95.410156" xlink:href="#m"/>
<use x="159.033203" xlink:href="#an"/>
</g>
</g>
<g clip-path="url(#a)">
<g transform="translate(309.54 625.85) scale(.1 -.1)">
<use xlink:href="#c"/>
<use x="63.623047" xlink:href="#f"/>
<use x="95.410156" xlink:href="#m"/>
<use x="159.033203" xlink:href="#am"/>
</g>
</g>
<g clip-path="url(#a)">
<g transform="translate(352.81 625.85) scale(.1 -.1)">
<use xlink:href="#c"/>
<use x="63.623047" xlink:href="#f"/>
<use x="95.410156" xlink:href="#m"/>
<use x="159.033203" xlink:href="#ag"/>
</g>
</g>
<g clip-path="url(#a)">
<g transform="translate(396.09 625.85) scale(.1 -.1)">
<use xlink:href="#c"/>
<use x="63.623047" xlink:href="#f"/>
<use x="95.410156" xlink:href="#m"/>
<use x="159.033203" xlink:href="#z"/>
</g>
</g>
<g clip-path="url(#a)">
<g transform="translate(716.32 625.85) scale(.1 -.1)">
<use xlink:href="#c"/>
<use x="63.623047" xlink:href="#f"/>
<use x="95.410156" xlink:href="#s"/>
<use x="159.033203" xlink:href="#aa"/>
</g>
</g>
<g clip-path="url(#a)">
<g transform="translate(846.15 625.85) scale(.1 -.1)">
<use xlink:href="#c"/>
<use x="63.623047" xlink:href="#f"/>
<use x="95.410156" xlink:href="#s"/>
<use x="159.033203" xlink:href="#c"/>
</g>
</g>
<g clip-path="url(#a)">
<g transform="translate(1391.4 625.85) scale(.1 -.1)">
<use xlink:href="#c"/>
<use x="63.623047" xlink:href="#f"/>
<use x="95.410156" xlink:href="#s"/>
<use x="159.033203" xlink:href="#n"/>
</g>
</g>
<defs>
<clipPath id="a">
<rect width="1469.3" height="773.33"/>
</clipPath>
</defs>
</svg>
