<?xml version="1.0" encoding="UTF-8"?>
<!DOCTYPE svg  PUBLIC '-//W3C//DTD SVG 1.1//EN'  'http://www.w3.org/Graphics/SVG/1.1/DTD/svg11.dtd'>
<svg width="1672pt" height="880pt" version="1.1" viewBox="0 0 1672 880" xmlns="http://www.w3.org/2000/svg" xmlns:xlink="http://www.w3.org/1999/xlink">
<defs>
<style type="text/css">*{stroke-linecap:butt;stroke-linejoin:round;}</style>
</defs>
<path d="m0 880h1672v-880h-1672z" fill="#fff"/>
<g fill="none" stroke="#000">
<path d="m125.54 40v89.726" clip-path="url(#a)"/>
<path d="m125.54 129.73-45.685 535.15" clip-path="url(#a)"/>
<path d="m125.54 129.73-31.563 623.32" clip-path="url(#a)"/>
<path d="m125.54 129.73-18.725 623.32" clip-path="url(#a)"/>
<path d="m125.54 129.73 95.972 89.614" clip-path="url(#a)"/>
<path d="m79.851 664.88-3.8514 88.167" clip-path="url(#a)"/>
<path d="m79.851 664.88 3.8514 88.167" clip-path="url(#a)"/>
<path d="m93.973 753.04v86.957" clip-path="url(#a)"/>
<path d="m106.81 753.04v86.957" clip-path="url(#a)"/>
<path d="m221.51 219.34-99.292 533.7" clip-path="url(#a)"/>
<path d="m221.51 219.34-81.319 533.7" clip-path="url(#a)"/>
<path d="m221.51 219.34-36.387 445.54" clip-path="url(#a)"/>
<path d="m221.51 219.34-37.67 533.7" clip-path="url(#a)"/>
<path d="m221.51 219.34-11.995 533.7" clip-path="url(#a)"/>
<path d="m221.51 219.34 266.66 89.485" clip-path="url(#a)"/>
<path d="m122.22 753.04v86.957" clip-path="url(#a)"/>
<path d="m140.19 753.04v86.957" clip-path="url(#a)"/>
<path d="m185.12 664.88 24.392 88.167" clip-path="url(#a)" stroke-dasharray="3.7,1.6"/>
<path d="m185.12 664.88-24.392 88.167" clip-path="url(#a)"/>
<path d="m183.84 753.04v86.957" clip-path="url(#a)"/>
<path d="m209.51 753.04v86.957" clip-path="url(#a)"/>
<path d="m488.17 308.82-278.66 444.22" clip-path="url(#a)" stroke-dasharray="3.7,1.6"/>
<path d="m488.17 308.82-250.41 444.22" clip-path="url(#a)"/>
<path d="m488.17 308.82-219.6 444.22" clip-path="url(#a)"/>
<path d="m488.17 308.82 748.68 89.336" clip-path="url(#a)"/>
<path d="m237.76 753.04v86.957" clip-path="url(#a)"/>
<path d="m268.57 753.04v86.957" clip-path="url(#a)"/>
<path d="m1236.8 398.16-572.5 89.156" clip-path="url(#a)"/>
<path d="m1236.8 398.16 187.98 354.88" clip-path="url(#a)"/>
<path d="m1236.8 398.16 25.368 354.88" clip-path="url(#a)"/>
<path d="m1236.8 398.16 359.15 354.88" clip-path="url(#a)"/>
<path d="m664.35 487.32-148.44 88.931" clip-path="url(#a)"/>
<path d="m664.35 487.32-82.537 265.73" clip-path="url(#a)"/>
<path d="m664.35 487.32-2.942 265.73" clip-path="url(#a)"/>
<path d="m664.35 487.32 233.92 88.931" clip-path="url(#a)"/>
<path d="m1424.8 753.04-83.018 86.957" clip-path="url(#a)"/>
<path d="m1424.8 753.04-0.85586 86.957" clip-path="url(#a)"/>
<path d="m1424.8 753.04 83.874 86.957" clip-path="url(#a)"/>
<path d="m515.91 576.25 145.5 176.8" clip-path="url(#a)" stroke-dasharray="3.7,1.6"/>
<path d="m515.91 576.25-136.94 88.629" clip-path="url(#a)"/>
<path d="m515.91 576.25-8.5586 176.8" clip-path="url(#a)"/>
<path d="m581.81 753.04-25.676 86.957" clip-path="url(#a)"/>
<path d="m581.81 753.04 25.676 86.957" clip-path="url(#a)"/>
<path d="m661.41 753.04v86.957" clip-path="url(#a)"/>
<path d="m898.26 576.25-180.37 176.8" clip-path="url(#a)"/>
<path d="m898.26 576.25-90.507 88.629" clip-path="url(#a)"/>
<path d="m898.26 576.25 4.4932 176.8" clip-path="url(#a)"/>
<path d="m898.26 576.25 71.25 176.8" clip-path="url(#a)"/>
<path d="m898.26 576.25 195.14 88.629" clip-path="url(#a)"/>
<path d="m717.89 753.04v86.957" clip-path="url(#a)"/>
<path d="m807.76 664.88-30.811 88.167" clip-path="url(#a)"/>
<path d="m807.76 664.88 30.811 88.167" clip-path="url(#a)"/>
<path d="m902.76 753.04v86.957" clip-path="url(#a)"/>
<path d="m969.51 753.04v86.957" clip-path="url(#a)"/>
<path d="m1093.4 664.88-54.561 88.167" clip-path="url(#a)"/>
<path d="m1093.4 664.88 54.561 88.167" clip-path="url(#a)"/>
<path d="m1038.8 753.04v86.957" clip-path="url(#a)"/>
<path d="m1148 753.04-37.23 86.957" clip-path="url(#a)"/>
<path d="m1148 753.04 37.23 86.957" clip-path="url(#a)"/>
<path d="m776.95 753.04v86.957" clip-path="url(#a)"/>
<path d="m838.57 753.04v86.957" clip-path="url(#a)"/>
<path d="m378.97 664.88-77.027 175.12" clip-path="url(#a)"/>
<path d="m378.97 664.88-2.5676 175.12" clip-path="url(#a)"/>
<path d="m378.97 664.88 82.162 175.12" clip-path="url(#a)"/>
<path d="m378.97 664.88-41.081 88.167" clip-path="url(#a)"/>
<path d="m378.97 664.88 38.514 88.167" clip-path="url(#a)"/>
<path d="m507.35 753.04v86.957" clip-path="url(#a)"/>
<path d="m337.89 753.04v86.957" clip-path="url(#a)"/>
<path d="m160.73 753.04v86.957" clip-path="url(#a)"/>
<path d="m76 753.04v86.957" clip-path="url(#a)"/>
<path d="m83.703 753.04v86.957" clip-path="url(#a)"/>
<path d="m417.49 753.04v86.957" clip-path="url(#a)"/>
<path d="m1262.2 753.04v86.957" clip-path="url(#a)"/>
<path d="m1596 753.04v86.957" clip-path="url(#a)"/>
</g>
<path d="m119.26 81.855v6.0162q0 2.4 2.4 2.4h7.7425q2.4 0 2.4-2.4v-6.0162q0-2.4-2.4-2.4h-7.7425q-2.4 0-2.4 2.4z" clip-path="url(#a)" fill="#fff" stroke="#fff"/>
<g clip-path="url(#a)">
<defs>
<path id="av" d="m9.8125 72.906h9.8594v-29.891h35.844v29.891h9.8594v-72.906h-9.8594v34.719h-35.844v-34.719h-9.8594z"/>
</defs>
<g transform="translate(123.33 81.855) rotate(90) scale(.08 -.08)">
<use xlink:href="#av"/>
</g>
</g>
<path d="m108.71 400.56 0.46548-5.4527q0.20414-2.3913-2.1872-2.5954l-7.7144-0.65856q-2.3913-0.20414-2.5954 2.1872l-0.46548 5.4527q-0.20414 2.3913 2.1872 2.5954l7.7144 0.65856q2.3913 0.20414 2.5954-2.1872z" clip-path="url(#a)" fill="#fff" stroke="#fff"/>
<g clip-path="url(#a)">
<defs>
<path id="p" d="m34.188 63.188-13.391-36.281h26.812zm-5.5781 9.7188h11.188l27.781-72.906h-10.25l-6.6406 18.703h-32.859l-6.6406-18.703h-10.406z"/>
</defs>
<g transform="translate(104.66 400.22) rotate(-85.121) scale(.08 -.08)">
<use xlink:href="#p"/>
</g>
</g>
<path d="m115.9 444 0.2327-4.5954q0.12137-2.3969-2.2756-2.5183l-7.7326-0.39156q-2.3969-0.12137-2.5183 2.2756l-0.2327 4.5954q-0.12137 2.3969 2.2756 2.5183l7.7326 0.39156q2.3969 0.12137 2.5183-2.2756z" clip-path="url(#a)" fill="#fff" stroke="#fff"/>
<g clip-path="url(#a)">
<defs>
<path id="ax" d="m9.8125 72.906h41.891v-8.3125h-32.031v-21.484h28.906v-8.2969h-28.906v-34.812h-9.8594z"/>
</defs>
<g transform="translate(111.84 443.79) rotate(-87.101) scale(.08 -.08)">
<use xlink:href="#ax"/>
</g>
</g>
<path d="m122.37 443.98 0.14484-4.8216q0.072066-2.3989-2.3269-2.471l-7.739-0.23249q-2.3989-0.072066-2.471 2.3269l-0.14484 4.8216q-0.072066 2.3989 2.3269 2.471l7.739 0.23249q2.3989 0.072066 2.471-2.3269z" clip-path="url(#a)" fill="#fff" stroke="#fff"/>
<g clip-path="url(#a)">
<defs>
<path id="z" d="m19.672 64.797v-27.391h12.406q6.8906 0 10.641 3.5625 3.7656 3.5625 3.7656 10.156 0 6.5469-3.7656 10.109-3.75 3.5625-10.641 3.5625zm-9.8594 8.1094h22.266q12.266 0 18.531-5.5469 6.2812-5.5469 6.2812-16.234 0-10.797-6.2812-16.312-6.2656-5.5156-18.531-5.5156h-12.406v-29.297h-9.8594z"/>
</defs>
<g transform="translate(118.31 443.86) rotate(-88.279) scale(.08 -.08)">
<use xlink:href="#z"/>
</g>
</g>
<path d="m167.24 177.25 3.9999 3.7349q1.7542 1.6379 3.3921-0.11623l5.2841-5.659q1.6379-1.7542-0.11623-3.3921l-3.9999-3.7349q-1.7542-1.6379-3.3921 0.11623l-5.2841 5.659q-1.6379 1.7542 0.11623 3.3921z" clip-path="url(#a)" fill="#fff" stroke="#fff"/>
<g clip-path="url(#a)">
<g transform="translate(170.02 174.28) rotate(43.038) scale(.08 -.08)">
<use xlink:href="#p"/>
</g>
</g>
<path d="m84.081 711.76 0.2206-5.0502q0.10474-2.3977-2.293-2.5025l-7.7351-0.33789q-2.3977-0.10474-2.5025 2.293l-0.2206 5.0502q-0.10474 2.3977 2.293 2.5025l7.7351 0.33789q2.3977 0.10474 2.5025-2.293z" clip-path="url(#a)" fill="#fff" stroke="#fff"/>
<g clip-path="url(#a)">
<defs>
<path id="q" d="m9.8125 72.906h46.094v-8.3125h-36.234v-21.578h34.719v-8.2969h-34.719v-26.422h37.109v-8.2969h-46.969z"/>
</defs>
<g transform="translate(80.021 711.58) rotate(-87.499) scale(.08 -.08)">
<use xlink:href="#q"/>
</g>
</g>
<path d="m75.39 706.44 0.24379 5.5809q0.10474 2.3977 2.5025 2.293l7.7351-0.33789q2.3977-0.10474 2.293-2.5025l-0.24379-5.5809q-0.10474-2.3977-2.5025-2.293l-7.7351 0.33789q-2.3977 0.10474-2.293 2.5025z" clip-path="url(#a)" fill="#fff" stroke="#fff"/>
<g clip-path="url(#a)">
<defs>
<path id="t" d="m64.406 67.281v-10.391q-4.9844 4.6406-10.625 6.9219-5.6406 2.2969-11.984 2.2969-12.5 0-19.141-7.6406t-6.6406-22.094q0-14.406 6.6406-22.047t19.141-7.6406q6.3438 0 11.984 2.2969t10.625 6.9375v-10.312q-5.1719-3.5156-10.969-5.2812-5.7812-1.75-12.219-1.75-16.562 0-26.094 10.125-9.5156 10.141-9.5156 27.672 0 17.578 9.5156 27.703 9.5312 10.141 26.094 10.141 6.5312 0 12.312-1.7344 5.7969-1.7344 10.875-5.2031z"/>
</defs>
<g transform="translate(79.45 706.27) rotate(87.499) scale(.08 -.08)">
<use xlink:href="#t"/>
</g>
</g>
<path d="m87.702 779.62v33.808q0 2.4 2.4 2.4h7.7425q2.4 0 2.4-2.4v-33.808q0-2.4-2.4-2.4h-7.7425q-2.4 0-2.4 2.4z" clip-path="url(#a)" fill="#fff" stroke="#fff"/>
<g clip-path="url(#a)">
<defs>
<path id="j" d="m-0.29688 72.906h61.672v-8.3125h-25.875v-64.594h-9.9062v64.594h-25.891z"/>
<path id="d" d="m56.203 29.594v-4.3906h-41.312q0.59375-9.2812 5.5938-14.141t13.938-4.8594q5.1719 0 10.031 1.2656t9.6562 3.8125v-8.5q-4.8438-2.0469-9.9219-3.125t-10.297-1.0781q-13.094 0-20.734 7.6094-7.6406 7.625-7.6406 20.625 0 13.422 7.25 21.297 7.25 7.8906 19.562 7.8906 11.031 0 17.453-7.1094 6.4219-7.0938 6.4219-19.297zm-8.9844 2.6406q-0.09375 7.3594-4.125 11.75-4.0312 4.4062-10.672 4.4062-7.5156 0-12.031-4.25t-5.2031-11.969z"/>
<path id="i" d="m41.109 46.297q-1.5156 0.875-3.2969 1.2812-1.7812 0.42188-3.9219 0.42188-7.625 0-11.703-4.9531t-4.0781-14.234v-28.812h-9.0312v54.688h9.0312v-8.5q2.8438 4.9844 7.375 7.3906 4.5469 2.4219 11.047 2.4219 0.92188 0 2.0469-0.125 1.125-0.10938 2.4844-0.35938z"/>
<path id="k" d="m52 44.188q3.375 6.0625 8.0625 8.9375t11.031 2.875q8.5469 0 13.188-5.9844 4.6406-5.9688 4.6406-17v-33.016h-9.0312v32.719q0 7.8594-2.7969 11.656-2.7812 3.8125-8.4844 3.8125-6.9844 0-11.047-4.6406-4.0469-4.625-4.0469-12.641v-30.906h-9.0312v32.719q0 7.9062-2.7812 11.688t-8.5938 3.7812q-6.8906 0-10.953-4.6562-4.0469-4.6562-4.0469-12.625v-30.906h-9.0312v54.688h9.0312v-8.5q3.0781 5.0312 7.375 7.4219t10.203 2.3906q5.9688 0 10.141-3.0312 4.1719-3.0156 6.1719-8.7812z"/>
<path id="g" d="m9.4219 54.688h8.9844v-54.688h-8.9844zm0 21.297h8.9844v-11.391h-8.9844z"/>
<path id="e" d="m54.891 33.016v-33.016h-8.9844v32.719q0 7.7656-3.0312 11.609-3.0312 3.8594-9.0781 3.8594-7.2812 0-11.484-4.6406-4.2031-4.625-4.2031-12.641v-30.906h-9.0312v54.688h9.0312v-8.5q3.2344 4.9375 7.5938 7.375 4.375 2.4375 10.094 2.4375 9.4219 0 14.25-5.8281 4.8438-5.8281 4.8438-17.156z"/>
<path id="f" d="m34.281 27.484q-10.891 0-15.094-2.4844t-4.2031-8.5q0-4.7812 3.1562-7.5938 3.1562-2.7969 8.5625-2.7969 7.4844 0 12 5.2969t4.5156 14.078v2zm17.922 3.7188v-31.203h-8.9844v8.2969q-3.0781-4.9688-7.6719-7.3438t-11.234-2.375q-8.3906 0-13.359 4.7188-4.9531 4.7188-4.9531 12.625 0 9.2188 6.1719 13.906 6.1875 4.6875 18.438 4.6875h12.609v0.89062q0 6.2031-4.0781 9.5938t-11.453 3.3906q-4.6875 0-9.1406-1.125-4.4375-1.125-8.5312-3.375v8.3125q4.9219 1.9062 9.5625 2.8438 4.6406 0.95312 9.0312 0.95312 11.875 0 17.734-6.1562 5.8594-6.1406 5.8594-18.641z"/>
<path id="l" d="m9.4219 75.984h8.9844v-75.984h-8.9844z"/>
</defs>
<g transform="translate(91.765 779.62) rotate(90) scale(.08 -.08)">
<use xlink:href="#j"/>
<use x="44.083984" xlink:href="#d"/>
<use x="105.607422" xlink:href="#i"/>
<use x="144.970703" xlink:href="#k"/>
<use x="242.382812" xlink:href="#g"/>
<use x="270.166016" xlink:href="#e"/>
<use x="333.544922" xlink:href="#f"/>
<use x="394.824219" xlink:href="#l"/>
</g>
</g>
<path d="m100.54 779.62v33.808q0 2.4 2.4 2.4h7.7425q2.4 0 2.4-2.4v-33.808q0-2.4-2.4-2.4h-7.7425q-2.4 0-2.4 2.4z" clip-path="url(#a)" fill="#fff" stroke="#fff"/>
<g clip-path="url(#a)">
<g transform="translate(104.6 779.62) rotate(90) scale(.08 -.08)">
<use xlink:href="#j"/>
<use x="44.083984" xlink:href="#d"/>
<use x="105.607422" xlink:href="#i"/>
<use x="144.970703" xlink:href="#k"/>
<use x="242.382812" xlink:href="#g"/>
<use x="270.166016" xlink:href="#e"/>
<use x="333.544922" xlink:href="#f"/>
<use x="394.824219" xlink:href="#l"/>
</g>
</g>
<path d="m177.52 490.07 1.0167-5.465q0.43897-2.3595-1.9205-2.7985l-7.6119-1.4161q-2.3595-0.43897-2.7985 1.9205l-1.0167 5.465q-0.43897 2.3595 1.9205 2.7985l7.6119 1.4161q2.3595 0.43897 2.7985-1.9205z" clip-path="url(#a)" fill="#fff" stroke="#fff"/>
<g clip-path="url(#a)">
<defs>
<path id="v" d="m44.391 34.188q3.1719-1.0781 6.1719-4.5938t6.0312-9.6719l10.016-19.922h-10.609l-9.3125 18.703q-3.625 7.3281-7.0156 9.7188t-9.25 2.3906h-10.75v-30.812h-9.8594v72.906h22.266q12.5 0 18.656-5.2344 6.1562-5.2188 6.1562-15.766 0-6.8906-3.2031-11.438-3.2031-4.5312-9.2969-6.2812zm-24.719 30.609v-25.875h12.406q7.125 0 10.766 3.2969t3.6406 9.6875-3.6406 9.6406-10.766 3.25z"/>
</defs>
<g transform="translate(173.52 489.33) rotate(-79.461) scale(.08 -.08)">
<use xlink:href="#v"/>
</g>
</g>
<path d="m186.67 489.63 0.76143-4.9973q0.36151-2.3726-2.0111-2.7341l-7.6542-1.1662q-2.3726-0.36151-2.7341 2.0111l-0.76143 4.9973q-0.36151 2.3726 2.0111 2.7341l7.6542 1.1662q2.3726 0.36151 2.7341-2.0111z" clip-path="url(#a)" fill="#fff" stroke="#fff"/>
<g clip-path="url(#a)">
<g transform="translate(182.65 489.02) rotate(-81.337) scale(.08 -.08)">
<use xlink:href="#q"/>
</g>
</g>
<path d="m209.36 445.14 0.41147-5.0382q0.19536-2.392-2.1967-2.5874l-7.7168-0.63023q-2.392-0.19536-2.5874 2.1967l-0.41147 5.0382q-0.19536 2.392 2.1967 2.5874l7.7168 0.63023q2.392 0.19536 2.5874-2.1967z" clip-path="url(#a)" fill="#fff" stroke="#fff"/>
<g clip-path="url(#a)">
<g transform="translate(205.31 444.81) rotate(-85.331) scale(.08 -.08)">
<use xlink:href="#q"/>
</g>
</g>
<path d="m208.75 489.15 0.35591-5.0425q0.16898-2.394-2.2251-2.563l-7.7233-0.54513q-2.394-0.16898-2.563 2.2251l-0.35591 5.0425q-0.16898 2.394 2.2251 2.563l7.7233 0.54513q2.394 0.16898 2.563-2.2251z" clip-path="url(#a)" fill="#fff" stroke="#fff"/>
<g clip-path="url(#a)">
<g transform="translate(204.7 488.87) rotate(-85.963) scale(.08 -.08)">
<use xlink:href="#q"/>
</g>
</g>
<path d="m221.72 489.12 0.12552-5.5848q0.053925-2.3994-2.3455-2.4533l-7.7405-0.17397q-2.3994-0.053926-2.4533 2.3455l-0.12552 5.5848q-0.053926 2.3994 2.3455 2.4533l7.7405 0.17397q2.3994 0.053925 2.4533-2.3455z" clip-path="url(#a)" fill="#fff" stroke="#fff"/>
<g clip-path="url(#a)">
<g transform="translate(217.66 489.03) rotate(-88.713) scale(.08 -.08)">
<use xlink:href="#t"/>
</g>
</g>
<path d="m350.45 269.22 4.7924 1.6082q2.2753 0.76353 3.0388-1.5118l2.4632-7.3402q0.76353-2.2753-1.5118-3.0388l-4.7924-1.6082q-2.2753-0.76353-3.0388 1.5118l-2.4632 7.3402q-0.76353 2.2753 1.5118 3.0388z" clip-path="url(#a)" fill="#fff" stroke="#fff"/>
<g clip-path="url(#a)">
<g transform="translate(351.74 265.37) rotate(18.55) scale(.08 -.08)">
<use xlink:href="#q"/>
</g>
</g>
<path d="m115.94 779.62v33.808q0 2.4 2.4 2.4h7.7425q2.4 0 2.4-2.4v-33.808q0-2.4-2.4-2.4h-7.7425q-2.4 0-2.4 2.4z" clip-path="url(#a)" fill="#fff" stroke="#fff"/>
<g clip-path="url(#a)">
<g transform="translate(120.01 779.62) rotate(90) scale(.08 -.08)">
<use xlink:href="#j"/>
<use x="44.083984" xlink:href="#d"/>
<use x="105.607422" xlink:href="#i"/>
<use x="144.970703" xlink:href="#k"/>
<use x="242.382812" xlink:href="#g"/>
<use x="270.166016" xlink:href="#e"/>
<use x="333.544922" xlink:href="#f"/>
<use x="394.824219" xlink:href="#l"/>
</g>
</g>
<path d="m133.92 779.62v33.808q0 2.4 2.4 2.4h7.7425q2.4 0 2.4-2.4v-33.808q0-2.4-2.4-2.4h-7.7425q-2.4 0-2.4 2.4z" clip-path="url(#a)" fill="#fff" stroke="#fff"/>
<g clip-path="url(#a)">
<g transform="translate(137.98 779.62) rotate(90) scale(.08 -.08)">
<use xlink:href="#j"/>
<use x="44.083984" xlink:href="#d"/>
<use x="105.607422" xlink:href="#i"/>
<use x="144.970703" xlink:href="#k"/>
<use x="242.382812" xlink:href="#g"/>
<use x="270.166016" xlink:href="#e"/>
<use x="333.544922" xlink:href="#f"/>
<use x="394.824219" xlink:href="#l"/>
</g>
</g>
<path d="m190.54 707.99 1.4592 5.2744q0.63994 2.3131 2.953 1.6732l7.4622-2.0645q2.3131-0.63994 1.6732-2.953l-1.4592-5.2744q-0.63994-2.3131-2.953-1.6732l-7.4622 2.0645q-2.3131 0.63994-1.6732 2.953z" clip-path="url(#a)" fill="#fff" stroke="#fff"/>
<g clip-path="url(#a)">
<g transform="translate(194.46 706.91) rotate(74.536) scale(.08 -.08)">
<use xlink:href="#p"/>
</g>
</g>
<path d="m178.29 713.08 1.3542-4.8949q0.63994-2.3131-1.6732-2.953l-7.4622-2.0645q-2.3131-0.63994-2.953 1.6732l-1.3542 4.8949q-0.63994 2.3131 1.6732 2.953l7.4622 2.0645q2.3131 0.63994 2.953-1.6732z" clip-path="url(#a)" fill="#fff" stroke="#fff"/>
<g clip-path="url(#a)">
<defs>
<path id="an" d="m53.516 70.516v-9.625q-5.6094 2.6875-10.594 4-4.9844 1.3281-9.625 1.3281-8.0469 0-12.422-3.125t-4.375-8.8906q0-4.8438 2.9062-7.3125 2.9062-2.4531 11.016-3.9688l5.9531-1.2188q11.031-2.1094 16.281-7.4062t5.25-14.172q0-10.609-7.1094-16.078-7.0938-5.4688-20.812-5.4688-5.1719 0-11.016 1.1719-5.8281 1.1719-12.078 3.4688v10.156q6-3.3594 11.766-5.0781 5.7656-1.7031 11.328-1.7031 8.4375 0 13.031 3.3125 4.5938 3.3281 4.5938 9.4844 0 5.3594-3.2969 8.3906t-10.812 4.5469l-6.0156 1.1719q-11.031 2.1875-15.969 6.875-4.9219 4.6875-4.9219 13.047 0 9.6719 6.8125 15.234t18.766 5.5625q5.1406 0 10.453-0.9375 5.3281-0.92188 10.891-2.7656z"/>
</defs>
<g transform="translate(174.38 712) rotate(-74.536) scale(.08 -.08)">
<use xlink:href="#an"/>
</g>
</g>
<path d="m177.57 779.62v33.808q0 2.4 2.4 2.4h7.7425q2.4 0 2.4-2.4v-33.808q0-2.4-2.4-2.4h-7.7425q-2.4 0-2.4 2.4z" clip-path="url(#a)" fill="#fff" stroke="#fff"/>
<g clip-path="url(#a)">
<g transform="translate(181.63 779.62) rotate(90) scale(.08 -.08)">
<use xlink:href="#j"/>
<use x="44.083984" xlink:href="#d"/>
<use x="105.607422" xlink:href="#i"/>
<use x="144.970703" xlink:href="#k"/>
<use x="242.382812" xlink:href="#g"/>
<use x="270.166016" xlink:href="#e"/>
<use x="333.544922" xlink:href="#f"/>
<use x="394.824219" xlink:href="#l"/>
</g>
</g>
<path d="m203.24 779.62v33.808q0 2.4 2.4 2.4h7.7425q2.4 0 2.4-2.4v-33.808q0-2.4-2.4-2.4h-7.7425q-2.4 0-2.4 2.4z" clip-path="url(#a)" fill="#fff" stroke="#fff"/>
<g clip-path="url(#a)">
<g transform="translate(207.31 779.62) rotate(90) scale(.08 -.08)">
<use xlink:href="#j"/>
<use x="44.083984" xlink:href="#d"/>
<use x="105.607422" xlink:href="#i"/>
<use x="144.970703" xlink:href="#k"/>
<use x="242.382812" xlink:href="#g"/>
<use x="270.166016" xlink:href="#e"/>
<use x="333.544922" xlink:href="#f"/>
<use x="394.824219" xlink:href="#l"/>
</g>
</g>
<path d="m352.7 536.58 2.9081-4.6359q1.2754-2.0331-0.75773-3.3084l-6.5588-4.1144q-2.0331-1.2754-3.3084 0.75773l-2.9081 4.6359q-1.2754 2.0331 0.75773 3.3084l6.5588 4.1144q2.0331 1.2754 3.3084-0.75773z" clip-path="url(#a)" fill="#fff" stroke="#fff"/>
<g clip-path="url(#a)">
<g transform="translate(349.26 534.42) rotate(-57.9) scale(.08 -.08)">
<use xlink:href="#p"/>
</g>
</g>
<path d="m367.06 536.43 2.7297-4.8423q1.1786-2.0907-0.91213-3.2693l-6.7447-3.8021q-2.0907-1.1786-3.2693 0.91213l-2.7297 4.8423q-1.1786 2.0907 0.91213 3.2693l6.7447 3.8021q2.0907 1.1786 3.2693-0.91213z" clip-path="url(#a)" fill="#fff" stroke="#fff"/>
<g clip-path="url(#a)">
<g transform="translate(363.52 534.44) rotate(-60.589) scale(.08 -.08)">
<use xlink:href="#v"/>
</g>
</g>
<path d="m382.92 535.88 2.1377-4.3242q1.0636-2.1515-1.0879-3.2151l-6.9407-3.4312q-2.1515-1.0636-3.2151 1.0879l-2.1377 4.3242q-1.0636 2.1515 1.0879 3.2151l6.9407 3.4312q2.1515 1.0636 3.2151-1.0879z" clip-path="url(#a)" fill="#fff" stroke="#fff"/>
<g clip-path="url(#a)">
<g transform="translate(379.28 534.07) rotate(-63.694) scale(.08 -.08)">
<use xlink:href="#z"/>
</g>
</g>
<path d="m859.05 359.4 5.434 0.6484q2.3831 0.28436 2.6675-2.0987l0.91736-7.688q0.28436-2.3831-2.0987-2.6675l-5.434-0.6484q-2.3831-0.28436-2.6675 2.0987l-0.91736 7.688q-0.28436 2.3831 2.0987 2.6675z" clip-path="url(#a)" fill="#fff" stroke="#fff"/>
<g clip-path="url(#a)">
<g transform="translate(859.53 355.36) rotate(6.8046) scale(.08 -.08)">
<use xlink:href="#p"/>
</g>
</g>
<path d="m231.49 779.62v33.808q0 2.4 2.4 2.4h7.7425q2.4 0 2.4-2.4v-33.808q0-2.4-2.4-2.4h-7.7425q-2.4 0-2.4 2.4z" clip-path="url(#a)" fill="#fff" stroke="#fff"/>
<g clip-path="url(#a)">
<g transform="translate(235.55 779.62) rotate(90) scale(.08 -.08)">
<use xlink:href="#j"/>
<use x="44.083984" xlink:href="#d"/>
<use x="105.607422" xlink:href="#i"/>
<use x="144.970703" xlink:href="#k"/>
<use x="242.382812" xlink:href="#g"/>
<use x="270.166016" xlink:href="#e"/>
<use x="333.544922" xlink:href="#f"/>
<use x="394.824219" xlink:href="#l"/>
</g>
</g>
<path d="m262.3 779.62v33.808q0 2.4 2.4 2.4h7.7425q2.4 0 2.4-2.4v-33.808q0-2.4-2.4-2.4h-7.7425q-2.4 0-2.4 2.4z" clip-path="url(#a)" fill="#fff" stroke="#fff"/>
<g clip-path="url(#a)">
<g transform="translate(266.36 779.62) rotate(90) scale(.08 -.08)">
<use xlink:href="#j"/>
<use x="44.083984" xlink:href="#d"/>
<use x="105.607422" xlink:href="#i"/>
<use x="144.970703" xlink:href="#k"/>
<use x="242.382812" xlink:href="#g"/>
<use x="270.166016" xlink:href="#e"/>
<use x="333.544922" xlink:href="#f"/>
<use x="394.824219" xlink:href="#l"/>
</g>
</g>
<path d="m949.07 449.32 4.9948-0.77784q2.3714-0.3693 2.0021-2.7407l-1.1914-7.6503q-0.3693-2.3714-2.7407-2.0021l-4.9948 0.77784q-2.3714 0.3693-2.0021 2.7407l1.1914 7.6503q0.3693 2.3714 2.7407 2.0021z" clip-path="url(#a)" fill="#fff" stroke="#fff"/>
<g clip-path="url(#a)">
<g transform="translate(948.44 445.31) rotate(-8.8516) scale(.08 -.08)">
<use xlink:href="#q"/>
</g>
</g>
<path d="m1324 576.07 2.6148 4.9365q1.1234 2.1208 3.2442 0.99744l6.8419-3.6242q2.1208-1.1234 0.99744-3.2442l-2.6148-4.9365q-1.1234-2.1208-3.2442-0.99744l-6.8419 3.6242q-2.1208 1.1234-0.99743 3.2442z" clip-path="url(#a)" fill="#fff" stroke="#fff"/>
<g clip-path="url(#a)">
<g transform="translate(1327.6 574.17) rotate(62.09) scale(.08 -.08)">
<use xlink:href="#t"/>
</g>
</g>
<path d="m1243.1 573.13 0.41747 5.8401q0.17112 2.3939 2.565 2.2228l7.7228-0.55205q2.3939-0.17112 2.2228-2.565l-0.41747-5.8401q-0.17112-2.3939-2.565-2.2228l-7.7228 0.55205q-2.3939 0.17112-2.2228 2.565z" clip-path="url(#a)" fill="#fff" stroke="#fff"/>
<g clip-path="url(#a)">
<defs>
<path id="y" d="m8.6875 72.906h9.9219v-44.297q0-11.719 4.2344-16.875 4.25-5.1406 13.781-5.1406 9.4688 0 13.719 5.1406 4.25 5.1562 4.25 16.875v44.297h9.9062v-45.516q0-14.25-7.0625-21.531-7.0469-7.2812-20.812-7.2812-13.828 0-20.891 7.2812-7.0469 7.2812-7.0469 21.531z"/>
</defs>
<g transform="translate(1247.1 572.84) rotate(85.911) scale(.08 -.08)">
<use xlink:href="#y"/>
</g>
</g>
<path d="m1409.9 578 4.1648 4.1153q1.7072 1.6869 3.3941-0.020293l5.4419-5.5074q1.6869-1.7072-0.020293-3.3941l-4.1648-4.1153q-1.7072-1.6869-3.3941 0.020293l-5.4419 5.5074q-1.6869 1.7072 0.020293 3.3941z" clip-path="url(#a)" fill="#fff" stroke="#fff"/>
<g clip-path="url(#a)">
<g transform="translate(1412.8 575.11) rotate(44.657) scale(.08 -.08)">
<use xlink:href="#y"/>
</g>
</g>
<path d="m591.18 538.46 4.3363-2.5979q2.0588-1.2334 0.82534-3.2922l-3.9792-6.6417q-1.2334-2.0588-3.2922-0.82534l-4.3363 2.5979q-2.0588 1.2334-0.82534 3.2922l3.9792 6.6417q1.2334 2.0588 3.2922 0.82534z" clip-path="url(#a)" fill="#fff" stroke="#fff"/>
<g clip-path="url(#a)">
<g transform="translate(589.1 534.97) rotate(-30.926) scale(.08 -.08)">
<use xlink:href="#q"/>
</g>
</g>
<path d="m628.32 624.45 1.4995-4.8275q0.71191-2.292-1.5801-3.0039l-7.394-2.2966q-2.292-0.71191-3.0039 1.5801l-1.4995 4.8275q-0.71191 2.292 1.5801 3.0039l7.394 2.2966q2.292 0.71191 3.0039-1.5801z" clip-path="url(#a)" fill="#fff" stroke="#fff"/>
<g clip-path="url(#a)">
<g transform="translate(624.44 623.25) rotate(-72.745) scale(.08 -.08)">
<use xlink:href="#q"/>
</g>
</g>
<path d="m669.12 623.04 0.061845-5.5859q0.02657-2.3999-2.3733-2.4264l-7.742-0.085716q-2.3999-0.02657-2.4264 2.3733l-0.061844 5.5859q-0.02657 2.3999 2.3733 2.4264l7.742 0.085716q2.3999 0.02657 2.4264-2.3733z" clip-path="url(#a)" fill="#fff" stroke="#fff"/>
<g clip-path="url(#a)">
<g transform="translate(665.05 623) rotate(-89.366) scale(.08 -.08)">
<use xlink:href="#t"/>
</g>
</g>
<path d="m776.71 536.75 4.725 1.7964q2.2433 0.85288 3.0962-1.3905l2.7514-7.2371q0.85288-2.2433-1.3905-3.0962l-4.725-1.7964q-2.2433-0.85288-3.0962 1.3905l-2.7514 7.2371q-0.85288 2.2433 1.3905 3.0962z" clip-path="url(#a)" fill="#fff" stroke="#fff"/>
<g clip-path="url(#a)">
<g transform="translate(778.16 532.95) rotate(20.816) scale(.08 -.08)">
<use xlink:href="#q"/>
</g>
</g>
<path d="m1376.2 813.08 23.345-24.453q1.6573-1.7359-0.078636-3.3932l-5.6001-5.3465q-1.7359-1.6573-3.3932 0.078635l-23.345 24.453q-1.6573 1.7359 0.078636 3.3932l5.6001 5.3465q1.7359 1.6573 3.3932-0.078635z" clip-path="url(#a)" fill="#fff" stroke="#fff"/>
<g clip-path="url(#a)">
<g transform="translate(1373.2 810.27) rotate(-46.328) scale(.08 -.08)">
<use xlink:href="#j"/>
<use x="44.083984" xlink:href="#d"/>
<use x="105.607422" xlink:href="#i"/>
<use x="144.970703" xlink:href="#k"/>
<use x="242.382812" xlink:href="#g"/>
<use x="270.166016" xlink:href="#e"/>
<use x="333.544922" xlink:href="#f"/>
<use x="394.824219" xlink:href="#l"/>
</g>
</g>
<path d="m1430.5 813.49 0.33273-33.806q0.023621-2.3999-2.3763-2.4235l-7.7421-0.076201q-2.3999-0.02362-2.4235 2.3763l-0.33273 33.806q-0.02362 2.3999 2.3763 2.4235l7.7421 0.0762q2.3999 0.02362 2.4235-2.3763z" clip-path="url(#a)" fill="#fff" stroke="#fff"/>
<g clip-path="url(#a)">
<g transform="translate(1426.4 813.45) rotate(-89.436) scale(.08 -.08)">
<use xlink:href="#j"/>
<use x="44.083984" xlink:href="#d"/>
<use x="105.607422" xlink:href="#i"/>
<use x="144.970703" xlink:href="#k"/>
<use x="242.382812" xlink:href="#g"/>
<use x="270.166016" xlink:href="#e"/>
<use x="333.544922" xlink:href="#f"/>
<use x="394.824219" xlink:href="#l"/>
</g>
</g>
<path d="m1450.5 788.71 23.47 24.333q1.6662 1.7274 3.3936 0.061249l5.5727-5.3751q1.7274-1.6662 0.061249-3.3936l-23.47-24.333q-1.6662-1.7274-3.3936-0.061249l-5.5727 5.3751q-1.7274 1.6662-0.061248 3.3936z" clip-path="url(#a)" fill="#fff" stroke="#fff"/>
<g clip-path="url(#a)">
<g transform="translate(1453.4 785.89) rotate(46.034) scale(.08 -.08)">
<use xlink:href="#j"/>
<use x="44.083984" xlink:href="#d"/>
<use x="105.607422" xlink:href="#i"/>
<use x="144.970703" xlink:href="#k"/>
<use x="242.382812" xlink:href="#g"/>
<use x="270.166016" xlink:href="#e"/>
<use x="333.544922" xlink:href="#f"/>
<use x="394.824219" xlink:href="#l"/>
</g>
</g>
<path d="m582.08 666.52 3.4775 4.2256q1.5251 1.8532 3.3782 0.32809l5.9783-4.9199q1.8532-1.5251 0.32809-3.3782l-3.4775-4.2256q-1.5251-1.8532-3.3782-0.32809l-5.9783 4.9199q-1.8532 1.5251-0.32809 3.3782z" clip-path="url(#a)" fill="#fff" stroke="#fff"/>
<g clip-path="url(#a)">
<g transform="translate(585.21 663.93) rotate(50.547) scale(.08 -.08)">
<use xlink:href="#p"/>
</g>
</g>
<path d="m448.55 627.31 4.5942-2.9735q2.0148-1.304 0.71077-3.3189l-4.2069-6.4999q-1.304-2.0148-3.3189-0.71077l-4.5942 2.9735q-2.0148 1.304-0.71077 3.3189l4.2069 6.4999q1.304 2.0148 3.3189 0.71077z" clip-path="url(#a)" fill="#fff" stroke="#fff"/>
<g clip-path="url(#a)">
<g transform="translate(446.34 623.9) rotate(-32.912) scale(.08 -.08)">
<use xlink:href="#p"/>
</g>
</g>
<path d="m517.77 667.48 0.24557-5.0728q0.11605-2.3972-2.2811-2.5132l-7.7334-0.37437q-2.3972-0.11605-2.5132 2.2811l-0.24557 5.0728q-0.11605 2.3972 2.2811 2.5132l7.7334 0.37437q2.3972 0.11605 2.5132-2.2811z" clip-path="url(#a)" fill="#fff" stroke="#fff"/>
<g clip-path="url(#a)">
<g transform="translate(513.71 667.29) rotate(-87.229) scale(.08 -.08)">
<use xlink:href="#an"/>
</g>
</g>
<path d="m570.2 814.51 9.5737-32.424q0.67964-2.3018-1.6221-2.9814l-7.4256-2.1925q-2.3018-0.67964-2.9814 1.6221l-9.5737 32.424q-0.67964 2.3018 1.6221 2.9814l7.4256 2.1925q2.3018 0.67964 2.9814-1.6221z" clip-path="url(#a)" fill="#fff" stroke="#fff"/>
<g clip-path="url(#a)">
<g transform="translate(566.3 813.36) rotate(-73.55) scale(.08 -.08)">
<use xlink:href="#j"/>
<use x="44.083984" xlink:href="#d"/>
<use x="105.607422" xlink:href="#i"/>
<use x="144.970703" xlink:href="#k"/>
<use x="242.382812" xlink:href="#g"/>
<use x="270.166016" xlink:href="#e"/>
<use x="333.544922" xlink:href="#f"/>
<use x="394.824219" xlink:href="#l"/>
</g>
</g>
<path d="m583.85 782.09 9.5737 32.424q0.67964 2.3018 2.9814 1.6221l7.4256-2.1925q2.3018-0.67964 1.6221-2.9814l-9.5737-32.424q-0.67964-2.3018-2.9814-1.6221l-7.4256 2.1925q-2.3018 0.67964-1.6221 2.9814z" clip-path="url(#a)" fill="#fff" stroke="#fff"/>
<g clip-path="url(#a)">
<g transform="translate(587.74 780.93) rotate(73.55) scale(.08 -.08)">
<use xlink:href="#j"/>
<use x="44.083984" xlink:href="#d"/>
<use x="105.607422" xlink:href="#i"/>
<use x="144.970703" xlink:href="#k"/>
<use x="242.382812" xlink:href="#g"/>
<use x="270.166016" xlink:href="#e"/>
<use x="333.544922" xlink:href="#f"/>
<use x="394.824219" xlink:href="#l"/>
</g>
</g>
<path d="m655.13 779.62v33.808q0 2.4 2.4 2.4h7.7425q2.4 0 2.4-2.4v-33.808q0-2.4-2.4-2.4h-7.7425q-2.4 0-2.4 2.4z" clip-path="url(#a)" fill="#fff" stroke="#fff"/>
<g clip-path="url(#a)">
<g transform="translate(659.2 779.62) rotate(90) scale(.08 -.08)">
<use xlink:href="#j"/>
<use x="44.083984" xlink:href="#d"/>
<use x="105.607422" xlink:href="#i"/>
<use x="144.970703" xlink:href="#k"/>
<use x="242.382812" xlink:href="#g"/>
<use x="270.166016" xlink:href="#e"/>
<use x="333.544922" xlink:href="#f"/>
<use x="394.824219" xlink:href="#l"/>
</g>
</g>
<path d="m810.48 671.07 3.9698-3.8911q1.714-1.68 0.033977-3.3939l-5.4197-5.5293q-1.68-1.714-3.3939-0.033978l-3.9698 3.8911q-1.714 1.68-0.033978 3.3939l5.4197 5.5293q1.68 1.714 3.3939 0.033977z" clip-path="url(#a)" fill="#fff" stroke="#fff"/>
<g clip-path="url(#a)">
<g transform="translate(807.64 668.17) rotate(-44.426) scale(.08 -.08)">
<use xlink:href="#v"/>
</g>
</g>
<path d="m855.44 626.96 3.91-3.8289q1.7147-1.6792 0.035572-3.3939l-5.4171-5.5319q-1.6792-1.7147-3.3939-0.035572l-3.91 3.8289q-1.7147 1.6792-0.035572 3.3939l5.4171 5.5319q1.6792 1.7148 3.3939 0.035573z" clip-path="url(#a)" fill="#fff" stroke="#fff"/>
<g clip-path="url(#a)">
<g transform="translate(852.6 624.05) rotate(-44.399) scale(.08 -.08)">
<use xlink:href="#p"/>
</g>
</g>
<path d="m894.18 662.36 0.12414 4.8847q0.060976 2.3992 2.4602 2.3382l7.74-0.19671q2.3992-0.060976 2.3382-2.4602l-0.12414-4.8847q-0.060976-2.3992-2.4602-2.3382l-7.74 0.19671q-2.3992 0.060976-2.3382 2.4602z" clip-path="url(#a)" fill="#fff" stroke="#fff"/>
<g clip-path="url(#a)">
<g transform="translate(898.24 662.26) rotate(88.544) scale(.08 -.08)">
<use xlink:href="#j"/>
</g>
</g>
<path d="m927.17 664.75 1.8031 4.4741q0.8971 2.226 3.1231 1.3289l7.1813-2.8941q2.226-0.8971 1.3289-3.1231l-1.8031-4.4741q-0.8971-2.226-3.1231-1.3289l-7.1813 2.8941q-2.226 0.8971-1.3289 3.1231z" clip-path="url(#a)" fill="#fff" stroke="#fff"/>
<g clip-path="url(#a)">
<g transform="translate(930.94 663.23) rotate(68.05) scale(.08 -.08)">
<use xlink:href="#z"/>
</g>
</g>
<path d="m990.75 625.14 4.9826 2.2631q2.1852 0.99249 3.1777-1.1927l3.2018-7.0494q0.99249-2.1852-1.1927-3.1777l-4.9826-2.2631q-2.1852-0.99249-3.1777 1.1927l-3.2018 7.0494q-0.99249 2.1852 1.1927 3.1777z" clip-path="url(#a)" fill="#fff" stroke="#fff"/>
<g clip-path="url(#a)">
<g transform="translate(992.43 621.44) rotate(24.427) scale(.08 -.08)">
<use xlink:href="#p"/>
</g>
</g>
<path d="m711.62 779.62v33.808q0 2.4 2.4 2.4h7.7425q2.4 0 2.4-2.4v-33.808q0-2.4-2.4-2.4h-7.7425q-2.4 0-2.4 2.4z" clip-path="url(#a)" fill="#fff" stroke="#fff"/>
<g clip-path="url(#a)">
<g transform="translate(715.68 779.62) rotate(90) scale(.08 -.08)">
<use xlink:href="#j"/>
<use x="44.083984" xlink:href="#d"/>
<use x="105.607422" xlink:href="#i"/>
<use x="144.970703" xlink:href="#k"/>
<use x="242.382812" xlink:href="#g"/>
<use x="270.166016" xlink:href="#e"/>
<use x="333.544922" xlink:href="#f"/>
<use x="394.824219" xlink:href="#l"/>
</g>
</g>
<path d="m797.35 713.67 1.8429-5.2735q0.79175-2.2656-1.4739-3.0574l-7.3091-2.5542q-2.2656-0.79175-3.0574 1.4739l-1.8429 5.2735q-0.79175 2.2656 1.4739 3.0574l7.3091 2.5542q2.2656 0.79175 3.0574-1.4739z" clip-path="url(#a)" fill="#fff" stroke="#fff"/>
<g clip-path="url(#a)">
<g transform="translate(793.51 712.32) rotate(-70.737) scale(.08 -.08)">
<use xlink:href="#t"/>
</g>
</g>
<path d="m816.33 708.4 1.8338 5.2476q0.79175 2.2656 3.0574 1.4739l7.3091-2.5542q2.2656-0.79175 1.4739-3.0574l-1.8338-5.2476q-0.79175-2.2656-3.0574-1.4739l-7.3091 2.5542q-2.2656 0.79175-1.4739 3.0574z" clip-path="url(#a)" fill="#fff" stroke="#fff"/>
<g clip-path="url(#a)">
<g transform="translate(820.16 707.06) rotate(70.737) scale(.08 -.08)">
<use xlink:href="#v"/>
</g>
</g>
<path d="m896.49 779.62v33.808q0 2.4 2.4 2.4h7.7425q2.4 0 2.4-2.4v-33.808q0-2.4-2.4-2.4h-7.7425q-2.4 0-2.4 2.4z" clip-path="url(#a)" fill="#fff" stroke="#fff"/>
<g clip-path="url(#a)">
<g transform="translate(900.55 779.62) rotate(90) scale(.08 -.08)">
<use xlink:href="#j"/>
<use x="44.083984" xlink:href="#d"/>
<use x="105.607422" xlink:href="#i"/>
<use x="144.970703" xlink:href="#k"/>
<use x="242.382812" xlink:href="#g"/>
<use x="270.166016" xlink:href="#e"/>
<use x="333.544922" xlink:href="#f"/>
<use x="394.824219" xlink:href="#l"/>
</g>
</g>
<path d="m963.24 779.62v33.808q0 2.4 2.4 2.4h7.7425q2.4 0 2.4-2.4v-33.808q0-2.4-2.4-2.4h-7.7425q-2.4 0-2.4 2.4z" clip-path="url(#a)" fill="#fff" stroke="#fff"/>
<g clip-path="url(#a)">
<g transform="translate(967.31 779.62) rotate(90) scale(.08 -.08)">
<use xlink:href="#j"/>
<use x="44.083984" xlink:href="#d"/>
<use x="105.607422" xlink:href="#i"/>
<use x="144.970703" xlink:href="#k"/>
<use x="242.382812" xlink:href="#g"/>
<use x="270.166016" xlink:href="#e"/>
<use x="333.544922" xlink:href="#f"/>
<use x="394.824219" xlink:href="#l"/>
</g>
</g>
<path d="m1070 714.62 2.9252-4.7269q1.2629-2.0408-0.77789-3.3038l-6.5838-4.0743q-2.0408-1.2629-3.3038 0.77789l-2.9252 4.7269q-1.2629 2.0408 0.77789 3.3038l6.5838 4.0743q2.0408 1.2629 3.3038-0.77789z" clip-path="url(#a)" fill="#fff" stroke="#fff"/>
<g clip-path="url(#a)">
<g transform="translate(1066.5 712.48) rotate(-58.249) scale(.08 -.08)">
<use xlink:href="#v"/>
</g>
</g>
<path d="m1113.9 709.88 2.9396 4.7502q1.2629 2.0408 3.3038 0.77789l6.5838-4.0743q2.0408-1.2629 0.77789-3.3038l-2.9396-4.7502q-1.2629-2.0408-3.3038-0.77789l-6.5838 4.0743q-2.0408 1.2629-0.77789 3.3038z" clip-path="url(#a)" fill="#fff" stroke="#fff"/>
<g clip-path="url(#a)">
<g transform="translate(1117.3 707.75) rotate(58.249) scale(.08 -.08)">
<use xlink:href="#t"/>
</g>
</g>
<path d="m1032.6 779.62v33.808q0 2.4 2.4 2.4h7.7425q2.4 0 2.4-2.4v-33.808q0-2.4-2.4-2.4h-7.7425q-2.4 0-2.4 2.4z" clip-path="url(#a)" fill="#fff" stroke="#fff"/>
<g clip-path="url(#a)">
<g transform="translate(1036.6 779.62) rotate(90) scale(.08 -.08)">
<use xlink:href="#j"/>
<use x="44.083984" xlink:href="#d"/>
<use x="105.607422" xlink:href="#i"/>
<use x="144.970703" xlink:href="#k"/>
<use x="242.382812" xlink:href="#g"/>
<use x="270.166016" xlink:href="#e"/>
<use x="333.544922" xlink:href="#f"/>
<use x="394.824219" xlink:href="#l"/>
</g>
</g>
<path d="m1128.5 814.53 13.306-31.079q0.9446-2.2063-1.2617-3.1509l-7.1176-3.0473q-2.2063-0.9446-3.1509 1.2617l-13.306 31.079q-0.9446 2.2063 1.2617 3.1509l7.1176 3.0473q2.2063 0.9446 3.1509-1.2617z" clip-path="url(#a)" fill="#fff" stroke="#fff"/>
<g clip-path="url(#a)">
<g transform="translate(1124.7 812.93) rotate(-66.822) scale(.08 -.08)">
<use xlink:href="#j"/>
<use x="44.083984" xlink:href="#d"/>
<use x="105.607422" xlink:href="#i"/>
<use x="144.970703" xlink:href="#k"/>
<use x="242.382812" xlink:href="#g"/>
<use x="270.166016" xlink:href="#e"/>
<use x="333.544922" xlink:href="#f"/>
<use x="394.824219" xlink:href="#l"/>
</g>
</g>
<path d="m1154.2 783.45 13.306 31.079q0.9446 2.2063 3.1509 1.2617l7.1176-3.0473q2.2063-0.9446 1.2617-3.1509l-13.306-31.079q-0.9446-2.2063-3.1509-1.2617l-7.1176 3.0473q-2.2063 0.9446-1.2617 3.1509z" clip-path="url(#a)" fill="#fff" stroke="#fff"/>
<g clip-path="url(#a)">
<g transform="translate(1157.9 781.85) rotate(66.822) scale(.08 -.08)">
<use xlink:href="#j"/>
<use x="44.083984" xlink:href="#d"/>
<use x="105.607422" xlink:href="#i"/>
<use x="144.970703" xlink:href="#k"/>
<use x="242.382812" xlink:href="#g"/>
<use x="270.166016" xlink:href="#e"/>
<use x="333.544922" xlink:href="#f"/>
<use x="394.824219" xlink:href="#l"/>
</g>
</g>
<path d="m770.67 779.62v33.808q0 2.4 2.4 2.4h7.7425q2.4 0 2.4-2.4v-33.808q0-2.4-2.4-2.4h-7.7425q-2.4 0-2.4 2.4z" clip-path="url(#a)" fill="#fff" stroke="#fff"/>
<g clip-path="url(#a)">
<g transform="translate(774.74 779.62) rotate(90) scale(.08 -.08)">
<use xlink:href="#j"/>
<use x="44.083984" xlink:href="#d"/>
<use x="105.607422" xlink:href="#i"/>
<use x="144.970703" xlink:href="#k"/>
<use x="242.382812" xlink:href="#g"/>
<use x="270.166016" xlink:href="#e"/>
<use x="333.544922" xlink:href="#f"/>
<use x="394.824219" xlink:href="#l"/>
</g>
</g>
<path d="m832.3 779.62v33.808q0 2.4 2.4 2.4h7.7425q2.4 0 2.4-2.4v-33.808q0-2.4-2.4-2.4h-7.7425q-2.4 0-2.4 2.4z" clip-path="url(#a)" fill="#fff" stroke="#fff"/>
<g clip-path="url(#a)">
<g transform="translate(836.36 779.62) rotate(90) scale(.08 -.08)">
<use xlink:href="#j"/>
<use x="44.083984" xlink:href="#d"/>
<use x="105.607422" xlink:href="#i"/>
<use x="144.970703" xlink:href="#k"/>
<use x="242.382812" xlink:href="#g"/>
<use x="270.166016" xlink:href="#e"/>
<use x="333.544922" xlink:href="#f"/>
<use x="394.824219" xlink:href="#l"/>
</g>
</g>
<path d="m339.39 770.44 13.612-30.946q0.96628-2.1969-1.2306-3.1632l-7.0872-3.1173q-2.1969-0.96628-3.1632 1.2306l-13.612 30.946q-0.96628 2.1969 1.2306 3.1632l7.0872 3.1173q2.1969 0.96628 3.1632-1.2306z" clip-path="url(#a)" fill="#fff" stroke="#fff"/>
<g clip-path="url(#a)">
<g transform="translate(335.67 768.8) rotate(-66.258) scale(.08 -.08)">
<use xlink:href="#j"/>
<use x="44.083984" xlink:href="#d"/>
<use x="105.607422" xlink:href="#i"/>
<use x="144.970703" xlink:href="#k"/>
<use x="242.382812" xlink:href="#g"/>
<use x="270.166016" xlink:href="#e"/>
<use x="333.544922" xlink:href="#f"/>
<use x="394.824219" xlink:href="#l"/>
</g>
</g>
<path d="m383.71 769.43 0.49561-33.804q0.035184-2.3997-2.3646-2.4349l-7.7417-0.1135q-2.3997-0.035184-2.4349 2.3646l-0.49561 33.804q-0.035183 2.3997 2.3646 2.4349l7.7417 0.1135q2.3997 0.035184 2.4349-2.3646z" clip-path="url(#a)" fill="#fff" stroke="#fff"/>
<g clip-path="url(#a)">
<g transform="translate(379.65 769.37) rotate(-89.16) scale(.08 -.08)">
<use xlink:href="#j"/>
<use x="44.083984" xlink:href="#d"/>
<use x="105.607422" xlink:href="#i"/>
<use x="144.970703" xlink:href="#k"/>
<use x="242.382812" xlink:href="#g"/>
<use x="270.166016" xlink:href="#e"/>
<use x="333.544922" xlink:href="#f"/>
<use x="394.824219" xlink:href="#l"/>
</g>
</g>
<path d="m407.2 739.8 14.359 30.606q1.0194 2.1728 3.1921 1.1534l7.0094-3.2886q2.1728-1.0194 1.1534-3.1921l-14.359-30.606q-1.0194-2.1728-3.1921-1.1534l-7.0094 3.2886q-2.1728 1.0194-1.1534 3.1921z" clip-path="url(#a)" fill="#fff" stroke="#fff"/>
<g clip-path="url(#a)">
<g transform="translate(410.88 738.07) rotate(64.866) scale(.08 -.08)">
<use xlink:href="#j"/>
<use x="44.083984" xlink:href="#d"/>
<use x="105.607422" xlink:href="#i"/>
<use x="144.970703" xlink:href="#k"/>
<use x="242.382812" xlink:href="#g"/>
<use x="270.166016" xlink:href="#e"/>
<use x="333.544922" xlink:href="#f"/>
<use x="394.824219" xlink:href="#l"/>
</g>
</g>
<path d="m362.88 714.26 2.4729-5.3072q1.0136-2.1754-1.1618-3.1891l-7.0181-3.27q-2.1754-1.0136-3.1891 1.1618l-2.4729 5.3072q-1.0136 2.1754 1.1618 3.1891l7.0181 3.27q2.1754 1.0136 3.1891-1.1618z" clip-path="url(#a)" fill="#fff" stroke="#fff"/>
<g clip-path="url(#a)">
<g transform="translate(359.2 712.55) rotate(-65.017) scale(.08 -.08)">
<use xlink:href="#y"/>
</g>
</g>
<path d="m391.31 708.79 2.3438 5.3654q0.96072 2.1993 3.16 1.2386l7.0951-3.0993q2.1993-0.96072 1.2386-3.16l-2.3438-5.3654q-0.96072-2.1993-3.16-1.2386l-7.0951 3.0993q-2.1993 0.96072-1.2386 3.16z" clip-path="url(#a)" fill="#fff" stroke="#fff"/>
<g clip-path="url(#a)">
<g transform="translate(395.03 707.16) rotate(66.403) scale(.08 -.08)">
<use xlink:href="#y"/>
</g>
</g>
<path d="m501.08 779.62v33.808q0 2.4 2.4 2.4h7.7425q2.4 0 2.4-2.4v-33.808q0-2.4-2.4-2.4h-7.7425q-2.4 0-2.4 2.4z" clip-path="url(#a)" fill="#fff" stroke="#fff"/>
<g clip-path="url(#a)">
<g transform="translate(505.14 779.62) rotate(90) scale(.08 -.08)">
<use xlink:href="#j"/>
<use x="44.083984" xlink:href="#d"/>
<use x="105.607422" xlink:href="#i"/>
<use x="144.970703" xlink:href="#k"/>
<use x="242.382812" xlink:href="#g"/>
<use x="270.166016" xlink:href="#e"/>
<use x="333.544922" xlink:href="#f"/>
<use x="394.824219" xlink:href="#l"/>
</g>
</g>
<path d="m331.62 779.62v33.808q0 2.4 2.4 2.4h7.7425q2.4 0 2.4-2.4v-33.808q0-2.4-2.4-2.4h-7.7425q-2.4 0-2.4 2.4z" clip-path="url(#a)" fill="#fff" stroke="#fff"/>
<g clip-path="url(#a)">
<g transform="translate(335.68 779.62) rotate(90) scale(.08 -.08)">
<use xlink:href="#j"/>
<use x="44.083984" xlink:href="#d"/>
<use x="105.607422" xlink:href="#i"/>
<use x="144.970703" xlink:href="#k"/>
<use x="242.382812" xlink:href="#g"/>
<use x="270.166016" xlink:href="#e"/>
<use x="333.544922" xlink:href="#f"/>
<use x="394.824219" xlink:href="#l"/>
</g>
</g>
<path d="m154.46 779.62v33.808q0 2.4 2.4 2.4h7.7425q2.4 0 2.4-2.4v-33.808q0-2.4-2.4-2.4h-7.7425q-2.4 0-2.4 2.4z" clip-path="url(#a)" fill="#fff" stroke="#fff"/>
<g clip-path="url(#a)">
<g transform="translate(158.52 779.62) rotate(90) scale(.08 -.08)">
<use xlink:href="#j"/>
<use x="44.083984" xlink:href="#d"/>
<use x="105.607422" xlink:href="#i"/>
<use x="144.970703" xlink:href="#k"/>
<use x="242.382812" xlink:href="#g"/>
<use x="270.166016" xlink:href="#e"/>
<use x="333.544922" xlink:href="#f"/>
<use x="394.824219" xlink:href="#l"/>
</g>
</g>
<path d="m69.729 779.62v33.808q0 2.4 2.4 2.4h7.7425q2.4 0 2.4-2.4v-33.808q0-2.4-2.4-2.4h-7.7425q-2.4 0-2.4 2.4z" clip-path="url(#a)" fill="#fff" stroke="#fff"/>
<g clip-path="url(#a)">
<g transform="translate(73.792 779.62) rotate(90) scale(.08 -.08)">
<use xlink:href="#j"/>
<use x="44.083984" xlink:href="#d"/>
<use x="105.607422" xlink:href="#i"/>
<use x="144.970703" xlink:href="#k"/>
<use x="242.382812" xlink:href="#g"/>
<use x="270.166016" xlink:href="#e"/>
<use x="333.544922" xlink:href="#f"/>
<use x="394.824219" xlink:href="#l"/>
</g>
</g>
<path d="m77.431 779.62v33.808q0 2.4 2.4 2.4h7.7425q2.4 0 2.4-2.4v-33.808q0-2.4-2.4-2.4h-7.7425q-2.4 0-2.4 2.4z" clip-path="url(#a)" fill="#fff" stroke="#fff"/>
<g clip-path="url(#a)">
<g transform="translate(81.495 779.62) rotate(90) scale(.08 -.08)">
<use xlink:href="#j"/>
<use x="44.083984" xlink:href="#d"/>
<use x="105.607422" xlink:href="#i"/>
<use x="144.970703" xlink:href="#k"/>
<use x="242.382812" xlink:href="#g"/>
<use x="270.166016" xlink:href="#e"/>
<use x="333.544922" xlink:href="#f"/>
<use x="394.824219" xlink:href="#l"/>
</g>
</g>
<path d="m411.22 779.62v33.808q0 2.4 2.4 2.4h7.7425q2.4 0 2.4-2.4v-33.808q0-2.4-2.4-2.4h-7.7425q-2.4 0-2.4 2.4z" clip-path="url(#a)" fill="#fff" stroke="#fff"/>
<g clip-path="url(#a)">
<g transform="translate(415.28 779.62) rotate(90) scale(.08 -.08)">
<use xlink:href="#j"/>
<use x="44.083984" xlink:href="#d"/>
<use x="105.607422" xlink:href="#i"/>
<use x="144.970703" xlink:href="#k"/>
<use x="242.382812" xlink:href="#g"/>
<use x="270.166016" xlink:href="#e"/>
<use x="333.544922" xlink:href="#f"/>
<use x="394.824219" xlink:href="#l"/>
</g>
</g>
<path d="m1255.9 779.62v33.808q0 2.4 2.4 2.4h7.7425q2.4 0 2.4-2.4v-33.808q0-2.4-2.4-2.4h-7.7425q-2.4 0-2.4 2.4z" clip-path="url(#a)" fill="#fff" stroke="#fff"/>
<g clip-path="url(#a)">
<g transform="translate(1260 779.62) rotate(90) scale(.08 -.08)">
<use xlink:href="#j"/>
<use x="44.083984" xlink:href="#d"/>
<use x="105.607422" xlink:href="#i"/>
<use x="144.970703" xlink:href="#k"/>
<use x="242.382812" xlink:href="#g"/>
<use x="270.166016" xlink:href="#e"/>
<use x="333.544922" xlink:href="#f"/>
<use x="394.824219" xlink:href="#l"/>
</g>
</g>
<path d="m1589.7 779.62v33.808q0 2.4 2.4 2.4h7.7425q2.4 0 2.4-2.4v-33.808q0-2.4-2.4-2.4h-7.7425q-2.4 0-2.4 2.4z" clip-path="url(#a)" fill="#fff" stroke="#fff"/>
<g clip-path="url(#a)">
<g transform="translate(1593.8 779.62) rotate(90) scale(.08 -.08)">
<use xlink:href="#j"/>
<use x="44.083984" xlink:href="#d"/>
<use x="105.607422" xlink:href="#i"/>
<use x="144.970703" xlink:href="#k"/>
<use x="242.382812" xlink:href="#g"/>
<use x="270.166016" xlink:href="#e"/>
<use x="333.544922" xlink:href="#f"/>
<use x="394.824219" xlink:href="#l"/>
</g>
</g>
<defs>
<path id="b" d="m0 8.6603c2.2967 0 4.4997-0.9125 6.1237-2.5365 1.624-1.624 2.5365-3.827 2.5365-6.1237s-0.9125-4.4997-2.5365-6.1237c-1.624-1.624-3.827-2.5365-6.1237-2.5365s-4.4997 0.9125-6.1237 2.5365c-1.624 1.624-2.5365 3.827-2.5365 6.1237s0.9125 4.4997 2.5365 6.1237c1.624 1.624 3.827 2.5365 6.1237 2.5365z"/>
</defs>
<g clip-path="url(#a)">
<use x="76" y="840" fill="#ffffff" stroke="#ffffff" xlink:href="#b"/>
</g>
<g clip-path="url(#a)">
<use x="83.702703" y="840" fill="#ffffff" stroke="#ffffff" xlink:href="#b"/>
</g>
<g clip-path="url(#a)">
<use x="93.972973" y="840" fill="#ffffff" stroke="#ffffff" xlink:href="#b"/>
</g>
<g clip-path="url(#a)">
<use x="106.810811" y="840" fill="#ffffff" stroke="#ffffff" xlink:href="#b"/>
</g>
<g clip-path="url(#a)">
<use x="122.216216" y="840" fill="#ffffff" stroke="#ffffff" xlink:href="#b"/>
</g>
<g clip-path="url(#a)">
<use x="140.189189" y="840" fill="#ffffff" stroke="#ffffff" xlink:href="#b"/>
</g>
<g clip-path="url(#a)">
<use x="160.72973" y="840" fill="#ffffff" stroke="#ffffff" xlink:href="#b"/>
</g>
<g clip-path="url(#a)">
<use x="183.837838" y="840" fill="#ffffff" stroke="#ffffff" xlink:href="#b"/>
</g>
<g clip-path="url(#a)">
<use x="209.513514" y="840" fill="#ffffff" stroke="#ffffff" xlink:href="#b"/>
</g>
<g clip-path="url(#a)">
<use x="237.756757" y="840" fill="#ffffff" stroke="#ffffff" xlink:href="#b"/>
</g>
<g clip-path="url(#a)">
<use x="268.567568" y="840" fill="#ffffff" stroke="#ffffff" xlink:href="#b"/>
</g>
<g clip-path="url(#a)">
<use x="301.945946" y="840" fill="#ffffff" stroke="#ffffff" xlink:href="#b"/>
</g>
<g clip-path="url(#a)">
<use x="337.891892" y="840" fill="#ffffff" stroke="#ffffff" xlink:href="#b"/>
</g>
<g clip-path="url(#a)">
<use x="376.405405" y="840" fill="#ffffff" stroke="#ffffff" xlink:href="#b"/>
</g>
<g clip-path="url(#a)">
<use x="417.486486" y="840" fill="#ffffff" stroke="#ffffff" xlink:href="#b"/>
</g>
<g clip-path="url(#a)">
<use x="461.135135" y="840" fill="#ffffff" stroke="#ffffff" xlink:href="#b"/>
</g>
<g clip-path="url(#a)">
<use x="507.351351" y="840" fill="#ffffff" stroke="#ffffff" xlink:href="#b"/>
</g>
<g clip-path="url(#a)">
<use x="556.135135" y="840" fill="#ffffff" stroke="#ffffff" xlink:href="#b"/>
</g>
<g clip-path="url(#a)">
<use x="607.486486" y="840" fill="#ffffff" stroke="#ffffff" xlink:href="#b"/>
</g>
<g clip-path="url(#a)">
<use x="661.405405" y="840" fill="#ffffff" stroke="#ffffff" xlink:href="#b"/>
</g>
<g clip-path="url(#a)">
<use x="717.891892" y="840" fill="#ffffff" stroke="#ffffff" xlink:href="#b"/>
</g>
<g clip-path="url(#a)">
<use x="776.945946" y="840" fill="#ffffff" stroke="#ffffff" xlink:href="#b"/>
</g>
<g clip-path="url(#a)">
<use x="838.567568" y="840" fill="#ffffff" stroke="#ffffff" xlink:href="#b"/>
</g>
<g clip-path="url(#a)">
<use x="902.756757" y="840" fill="#ffffff" stroke="#ffffff" xlink:href="#b"/>
</g>
<g clip-path="url(#a)">
<use x="969.513514" y="840" fill="#ffffff" stroke="#ffffff" xlink:href="#b"/>
</g>
<g clip-path="url(#a)">
<use x="1038.837838" y="840" fill="#ffffff" stroke="#ffffff" xlink:href="#b"/>
</g>
<g clip-path="url(#a)">
<use x="1110.72973" y="840" fill="#ffffff" stroke="#ffffff" xlink:href="#b"/>
</g>
<g clip-path="url(#a)">
<use x="1185.189189" y="840" fill="#ffffff" stroke="#ffffff" xlink:href="#b"/>
</g>
<g clip-path="url(#a)">
<use x="1262.216216" y="840" fill="#ffffff" stroke="#ffffff" xlink:href="#b"/>
</g>
<g clip-path="url(#a)">
<use x="1341.810811" y="840" fill="#ffffff" stroke="#ffffff" xlink:href="#b"/>
</g>
<g clip-path="url(#a)">
<use x="1423.972973" y="840" fill="#ffffff" stroke="#ffffff" xlink:href="#b"/>
</g>
<g clip-path="url(#a)">
<use x="1508.702703" y="840" fill="#ffffff" stroke="#ffffff" xlink:href="#b"/>
</g>
<g clip-path="url(#a)">
<use x="1596" y="840" fill="#ffffff" stroke="#ffffff" xlink:href="#b"/>
</g>
<g clip-path="url(#a)">
<use x="125.535862" y="40" fill="#ffffff" stroke="#ffffff" xlink:href="#b"/>
</g>
<g clip-path="url(#a)">
<use x="125.535862" y="129.725964" fill="#ffffff" stroke="#ffffff" xlink:href="#b"/>
</g>
<g clip-path="url(#a)">
<use x="79.851351" y="664.876129" fill="#ffffff" stroke="#ffffff" xlink:href="#b"/>
</g>
<g clip-path="url(#a)">
<use x="93.972973" y="753.042899" fill="#ffffff" stroke="#ffffff" xlink:href="#b"/>
</g>
<g clip-path="url(#a)">
<use x="106.810811" y="753.042899" fill="#ffffff" stroke="#ffffff" xlink:href="#b"/>
</g>
<g clip-path="url(#a)">
<use x="221.508311" y="219.339549" fill="#ffffff" stroke="#ffffff" xlink:href="#b"/>
</g>
<g clip-path="url(#a)">
<use x="122.216216" y="753.042899" fill="#ffffff" stroke="#ffffff" xlink:href="#b"/>
</g>
<g clip-path="url(#a)">
<use x="140.189189" y="753.042899" fill="#ffffff" stroke="#ffffff" xlink:href="#b"/>
</g>
<g clip-path="url(#a)">
<use x="185.121622" y="664.876129" fill="#ffffff" stroke="#ffffff" xlink:href="#b"/>
</g>
<g clip-path="url(#a)">
<use x="183.837838" y="753.042899" fill="#ffffff" stroke="#ffffff" xlink:href="#b"/>
</g>
<g clip-path="url(#a)">
<use x="209.513514" y="753.042899" fill="#ffffff" stroke="#ffffff" xlink:href="#b"/>
</g>
<g clip-path="url(#a)">
<use x="488.171488" y="308.824769" fill="#ffffff" stroke="#ffffff" xlink:href="#b"/>
</g>
<g clip-path="url(#a)">
<use x="237.756757" y="753.042899" fill="#ffffff" stroke="#ffffff" xlink:href="#b"/>
</g>
<g clip-path="url(#a)">
<use x="268.567568" y="753.042899" fill="#ffffff" stroke="#ffffff" xlink:href="#b"/>
</g>
<g clip-path="url(#a)">
<use x="1236.848114" y="398.160278" fill="#ffffff" stroke="#ffffff" xlink:href="#b"/>
</g>
<g clip-path="url(#a)">
<use x="664.34741" y="487.316093" fill="#ffffff" stroke="#ffffff" xlink:href="#b"/>
</g>
<g clip-path="url(#a)">
<use x="1424.828829" y="753.042899" fill="#ffffff" stroke="#ffffff" xlink:href="#b"/>
</g>
<g clip-path="url(#a)">
<use x="515.90991" y="576.246932" fill="#ffffff" stroke="#ffffff" xlink:href="#b"/>
</g>
<g clip-path="url(#a)">
<use x="581.810811" y="753.042899" fill="#ffffff" stroke="#ffffff" xlink:href="#b"/>
</g>
<g clip-path="url(#a)">
<use x="661.405405" y="753.042899" fill="#ffffff" stroke="#ffffff" xlink:href="#b"/>
</g>
<g clip-path="url(#a)">
<use x="898.263514" y="576.246932" fill="#ffffff" stroke="#ffffff" xlink:href="#b"/>
</g>
<g clip-path="url(#a)">
<use x="717.891892" y="753.042899" fill="#ffffff" stroke="#ffffff" xlink:href="#b"/>
</g>
<g clip-path="url(#a)">
<use x="807.756757" y="664.876129" fill="#ffffff" stroke="#ffffff" xlink:href="#b"/>
</g>
<g clip-path="url(#a)">
<use x="902.756757" y="753.042899" fill="#ffffff" stroke="#ffffff" xlink:href="#b"/>
</g>
<g clip-path="url(#a)">
<use x="969.513514" y="753.042899" fill="#ffffff" stroke="#ffffff" xlink:href="#b"/>
</g>
<g clip-path="url(#a)">
<use x="1093.398649" y="664.876129" fill="#ffffff" stroke="#ffffff" xlink:href="#b"/>
</g>
<g clip-path="url(#a)">
<use x="1038.837838" y="753.042899" fill="#ffffff" stroke="#ffffff" xlink:href="#b"/>
</g>
<g clip-path="url(#a)">
<use x="1147.959459" y="753.042899" fill="#ffffff" stroke="#ffffff" xlink:href="#b"/>
</g>
<g clip-path="url(#a)">
<use x="776.945946" y="753.042899" fill="#ffffff" stroke="#ffffff" xlink:href="#b"/>
</g>
<g clip-path="url(#a)">
<use x="838.567568" y="753.042899" fill="#ffffff" stroke="#ffffff" xlink:href="#b"/>
</g>
<g clip-path="url(#a)">
<use x="378.972973" y="664.876129" fill="#ffffff" stroke="#ffffff" xlink:href="#b"/>
</g>
<g clip-path="url(#a)">
<use x="507.351351" y="753.042899" fill="#ffffff" stroke="#ffffff" xlink:href="#b"/>
</g>
<g clip-path="url(#a)">
<use x="337.891892" y="753.042899" fill="#ffffff" stroke="#ffffff" xlink:href="#b"/>
</g>
<g clip-path="url(#a)">
<use x="160.72973" y="753.042899" fill="#ffffff" stroke="#ffffff" xlink:href="#b"/>
</g>
<g clip-path="url(#a)">
<use x="76" y="753.042899" fill="#ffffff" stroke="#ffffff" xlink:href="#b"/>
</g>
<g clip-path="url(#a)">
<use x="83.702703" y="753.042899" fill="#ffffff" stroke="#ffffff" xlink:href="#b"/>
</g>
<g clip-path="url(#a)">
<use x="417.486486" y="753.042899" fill="#ffffff" stroke="#ffffff" xlink:href="#b"/>
</g>
<g clip-path="url(#a)">
<use x="1262.216216" y="753.042899" fill="#ffffff" stroke="#ffffff" xlink:href="#b"/>
</g>
<g clip-path="url(#a)">
<use x="1596" y="753.042899" fill="#ffffff" stroke="#ffffff" xlink:href="#b"/>
</g>
<g clip-path="url(#a)">
<defs>
<path id="af" d="m54.891 33.016v-33.016h-8.9844v32.719q0 7.7656-3.0312 11.609-3.0312 3.8594-9.0781 3.8594-7.2812 0-11.484-4.6406-4.2031-4.625-4.2031-12.641v-30.906h-9.0312v75.984h9.0312v-29.797q3.2344 4.9375 7.5938 7.375 4.375 2.4375 10.094 2.4375 9.4219 0 14.25-5.8281 4.8438-5.8281 4.8438-17.156z"/>
</defs>
<g transform="translate(66.701 842.76) scale(.1 -.1)">
<use xlink:href="#j"/>
<use x="61.083984" xlink:href="#af"/>
<use x="124.462891" xlink:href="#d"/>
</g>
</g>
<g clip-path="url(#a)">
<defs>
<path id="u" d="m44.281 53.078v-8.5q-3.7969 1.9531-7.9062 2.9219-4.0938 0.98438-8.5 0.98438-6.6875 0-10.031-2.0469t-3.3438-6.1562q0-3.125 2.3906-4.9062t9.625-3.3906l3.0781-0.6875q9.5625-2.0469 13.594-5.7812t4.0312-10.422q0-7.625-6.0312-12.078-6.0312-4.4375-16.578-4.4375-4.3906 0-9.1562 0.85938t-10.031 2.5625v9.2812q4.9844-2.5938 9.8125-3.8906 4.8281-1.2812 9.5781-1.2812 6.3438 0 9.75 2.1719 3.4219 2.1719 3.4219 6.125 0 3.6562-2.4688 5.6094-2.4531 1.9531-10.812 3.7656l-3.125 0.73438q-8.3438 1.75-12.062 5.3906-3.7031 3.6406-3.7031 9.9844 0 7.7188 5.4688 11.906 5.4688 4.2031 15.531 4.2031 4.9688 0 9.3594-0.73438 4.4062-0.71875 8.1094-2.1875z"/>
<path id="o" d="m30.609 48.391q-7.2188 0-11.422-5.6406t-4.2031-15.453 4.1719-15.453q4.1875-5.6406 11.453-5.6406 7.1875 0 11.375 5.6562 4.2031 5.6719 4.2031 15.438 0 9.7188-4.2031 15.406-4.1875 5.6875-11.375 5.6875zm0 7.6094q11.719 0 18.406-7.625 6.7031-7.6094 6.7031-21.078 0-13.422-6.7031-21.078-6.6875-7.6406-18.406-7.6406-11.766 0-18.438 7.6406-6.6562 7.6562-6.6562 21.078 0 13.469 6.6562 21.078 6.6719 7.625 18.438 7.625z"/>
<path id="az" d="m45.406 27.984q0 9.7656-4.0312 15.125-4.0156 5.375-11.297 5.375-7.2188 0-11.25-5.375-4.0312-5.3594-4.0312-15.125 0-9.7188 4.0312-15.094t11.25-5.375q7.2812 0 11.297 5.375 4.0312 5.375 4.0312 15.094zm8.9844-21.203q0-13.953-6.2031-20.766-6.1875-6.8125-18.984-6.8125-4.7344 0-8.9375 0.70312t-8.1562 2.1719v8.7344q3.9531-2.1406 7.8125-3.1562 3.8594-1.0312 7.8594-1.0312 8.8438 0 13.234 4.6094t4.3906 13.938v4.4531q-2.7812-4.8438-7.125-7.2344t-10.406-2.3906q-10.047 0-16.203 7.6562-6.1562 7.6719-6.1562 20.328 0 12.688 6.1562 20.344 6.1562 7.6719 16.203 7.6719 6.0625 0 10.406-2.3906t7.125-7.2188v8.2969h8.9844z"/>
</defs>
<g transform="translate(71.696 842.76) scale(.1 -.1)">
<use xlink:href="#u"/>
<use x="52.099609" xlink:href="#o"/>
<use x="113.28125" xlink:href="#e"/>
<use x="176.660156" xlink:href="#az"/>
</g>
</g>
<g clip-path="url(#a)">
<defs>
<path id="aj" d="m4.2031 54.688h8.9844l11.234-42.672 11.172 42.672h10.594l11.234-42.672 11.188 42.672h8.9844l-14.312-54.688h-10.594l-11.766 44.828-11.812-44.828h-10.609z"/>
</defs>
<g transform="translate(84.215 842.76) scale(.1 -.1)">
<use xlink:href="#aj"/>
<use x="81.787109" xlink:href="#f"/>
<use x="143.066406" xlink:href="#u"/>
</g>
</g>
<g clip-path="url(#a)">
<defs>
<path id="al" d="m18.109 8.2031v-29h-9.0312v75.484h9.0312v-8.2969q2.8438 4.875 7.1562 7.2344 4.3281 2.375 10.328 2.375 9.9688 0 16.188-7.9062 6.2344-7.9062 6.2344-20.797t-6.2344-20.812q-6.2188-7.9062-16.188-7.9062-6 0-10.328 2.375-4.3125 2.375-7.1562 7.25zm30.578 19.094q0 9.9062-4.0781 15.547t-11.203 5.6406q-7.1406 0-11.219-5.6406t-4.0781-15.547 4.0781-15.547 11.219-5.6406q7.125 0 11.203 5.6406t4.0781 15.547z"/>
<path id="ak" d="m2.9844 54.688h9.5156l17.094-45.891 17.094 45.891h9.5156l-20.516-54.688h-12.203z"/>
<path id="ag" d="m45.406 46.391v29.594h8.9844v-75.984h-8.9844v8.2031q-2.8281-4.875-7.1562-7.25-4.3125-2.375-10.375-2.375-9.9062 0-16.141 7.9062-6.2188 7.9219-6.2188 20.812t6.2188 20.797q6.2344 7.9062 16.141 7.9062 6.0625 0 10.375-2.375 4.3281-2.3594 7.1562-7.2344zm-30.609-19.094q0-9.9062 4.0781-15.547t11.203-5.6406 11.219 5.6406q4.1094 5.6406 4.1094 15.547t-4.1094 15.547q-4.0938 5.6406-11.219 5.6406t-11.203-5.6406-4.0781-15.547z"/>
</defs>
<g transform="translate(84.861 842.76) scale(.1 -.1)">
<use xlink:href="#al"/>
<use x="63.476562" xlink:href="#i"/>
<use x="102.339844" xlink:href="#o"/>
<use x="163.521484" xlink:href="#ak"/>
<use x="222.701172" xlink:href="#g"/>
<use x="250.484375" xlink:href="#ag"/>
<use x="313.960938" xlink:href="#d"/>
<use x="375.484375" xlink:href="#ag"/>
</g>
</g>
<g clip-path="url(#a)">
<defs>
<path id="r" d="m18.312 70.219v-15.531h18.5v-6.9844h-18.5v-29.688q0-6.6875 1.8281-8.5938t7.4531-1.9062h9.2188v-7.5156h-9.2188q-10.406 0-14.359 3.875-3.9531 3.8906-3.9531 14.141v29.688h-6.5938v6.9844h6.5938v15.531z"/>
</defs>
<g transform="translate(111.61 842.76) scale(.1 -.1)">
<use xlink:href="#aj"/>
<use x="81.787109" xlink:href="#g"/>
<use x="109.570312" xlink:href="#r"/>
<use x="148.779297" xlink:href="#af"/>
</g>
</g>
<g clip-path="url(#a)">
<g transform="translate(133.96 842.76) scale(.1 -.1)">
<use xlink:href="#f"/>
<use x="61.279297" xlink:href="#e"/>
</g>
</g>
<g clip-path="url(#a)">
<defs>
<path id="aq" d="m32.172-5.0781q-3.7969-9.7656-7.4219-12.734-3.6094-2.9844-9.6562-2.9844h-7.1875v7.5156h5.2812q3.7031 0 5.75 1.7656 2.0625 1.75 4.5469 8.2969l1.6094 4.0938-22.109 53.812h9.5156l17.094-42.766 17.094 42.766h9.5156z"/>
</defs>
<g transform="translate(148.19 842.76) scale(.1 -.1)">
<use xlink:href="#d"/>
<use x="61.523438" xlink:href="#f"/>
<use x="122.802734" xlink:href="#i"/>
<use x="163.916016" xlink:href="#l"/>
<use x="191.699219" xlink:href="#aq"/>
</g>
</g>
<g clip-path="url(#a)">
<defs>
<path id="ar" d="m8.5 21.578v33.109h8.9844v-32.766q0-7.7656 3.0156-11.656 3.0312-3.875 9.0938-3.875 7.2656 0 11.484 4.6406 4.2344 4.6406 4.2344 12.656v31h8.9844v-54.688h-8.9844v8.4062q-3.2656-4.9844-7.5938-7.4062-4.3125-2.4219-10.031-2.4219-9.4219 0-14.312 5.8594-4.875 5.8594-4.875 17.141z"/>
<path id="x" d="m48.781 52.594v-8.4062q-3.8125 2.1094-7.6406 3.1562t-7.7344 1.0469q-8.75 0-13.594-5.5469-4.8281-5.5312-4.8281-15.547t4.8281-15.562q4.8438-5.5312 13.594-5.5312 3.9062 0 7.7344 1.0469t7.6406 3.1562v-8.3125q-3.7656-1.75-7.7969-2.625-4.0156-0.89062-8.5625-0.89062-12.359 0-19.641 7.7656-7.2656 7.7656-7.2656 20.953 0 13.375 7.3438 21.031 7.3594 7.6719 20.156 7.6719 4.1406 0 8.0938-0.85938 3.9531-0.84375 7.6719-2.5469z"/>
</defs>
<g transform="translate(169.06 842.76) scale(.1 -.1)">
<use xlink:href="#k"/>
<use x="97.412109" xlink:href="#ar"/>
<use x="160.791016" xlink:href="#u"/>
<use x="212.890625" xlink:href="#g"/>
<use x="240.673828" xlink:href="#x"/>
</g>
</g>
<g clip-path="url(#a)">
<g transform="translate(195.85 842.76) scale(.1 -.1)">
<use xlink:href="#ak"/>
<use x="59.179688" xlink:href="#g"/>
<use x="86.962891" xlink:href="#ag"/>
<use x="150.439453" xlink:href="#d"/>
<use x="211.962891" xlink:href="#o"/>
</g>
</g>
<g clip-path="url(#a)">
<g transform="translate(223.19 842.76) scale(.1 -.1)">
<use xlink:href="#aj"/>
<use x="81.787109" xlink:href="#af"/>
<use x="145.166016" xlink:href="#g"/>
<use x="172.949219" xlink:href="#x"/>
<use x="227.929688" xlink:href="#af"/>
</g>
</g>
<g clip-path="url(#a)">
<g transform="translate(249.84 842.76) scale(.1 -.1)">
<use xlink:href="#o"/>
<use x="61.181641" xlink:href="#al"/>
<use x="124.658203" xlink:href="#d"/>
<use x="186.181641" xlink:href="#e"/>
<use x="249.560547" xlink:href="#d"/>
<use x="311.083984" xlink:href="#ag"/>
</g>
</g>
<g clip-path="url(#a)">
<defs>
<path id="ah" d="m19.672 64.797v-56.688h11.922q15.094 0 22.094 6.8281 7 6.8438 7 21.594 0 14.641-7 21.453t-22.094 6.8125zm-9.8594 8.1094h20.266q21.188 0 31.094-8.8125 9.9219-8.8125 9.9219-27.562 0-18.859-9.9688-27.703-9.9531-8.8281-31.047-8.8281h-20.266z"/>
</defs>
<g transform="translate(298.1 842.76) scale(.1 -.1)">
<use xlink:href="#ah"/>
</g>
</g>
<g clip-path="url(#a)">
<defs>
<path id="h" d="m10.688 12.406h10.312v-12.406h-10.312z"/>
</defs>
<g transform="translate(336.3 842.76) scale(.1 -.1)">
<use xlink:href="#h"/>
</g>
</g>
<g clip-path="url(#a)">
<g transform="translate(372.99 842.76) scale(.1 -.1)">
<use xlink:href="#p"/>
</g>
</g>
<g clip-path="url(#a)">
<g transform="translate(415.9 842.76) scale(.1 -.1)">
<use xlink:href="#h"/>
</g>
</g>
<g clip-path="url(#a)">
<defs>
<path id="at" d="m48.688 27.297q0 9.9062-4.0781 15.547t-11.203 5.6406q-7.1406 0-11.219-5.6406t-4.0781-15.547 4.0781-15.547 11.219-5.6406q7.125 0 11.203 5.6406t4.0781 15.547zm-30.578 19.094q2.8438 4.875 7.1562 7.2344 4.3281 2.375 10.328 2.375 9.9688 0 16.188-7.9062 6.2344-7.9062 6.2344-20.797t-6.2344-20.812q-6.2188-7.9062-16.188-7.9062-6 0-10.328 2.375-4.3125 2.375-7.1562 7.25v-8.2031h-9.0312v75.984h9.0312z"/>
<path id="am" d="m9.0781 75.984h9.0312v-44.875l26.812 23.578h11.469l-29-25.578 30.234-29.109h-11.719l-27.797 26.703v-26.703h-9.0312z"/>
</defs>
<g transform="translate(431.73 842.76) scale(.1 -.1)">
<use xlink:href="#z"/>
<use x="56.677734" xlink:href="#d"/>
<use x="118.201172" xlink:href="#e"/>
<use x="181.580078" xlink:href="#e"/>
<use x="244.958984" xlink:href="#d"/>
<use x="306.482422" xlink:href="#at"/>
<use x="369.958984" xlink:href="#f"/>
<use x="431.238281" xlink:href="#am"/>
<use x="485.523438" xlink:href="#d"/>
<use x="547.046875" xlink:href="#i"/>
</g>
</g>
<g clip-path="url(#a)">
<defs>
<path id="ap" d="m17.922 72.906v-27.109h-8.2969v27.109z"/>
</defs>
<g transform="translate(503.37 842.76) scale(.1 -.1)">
<use xlink:href="#ap"/>
<use x="27.490234" xlink:href="#u"/>
</g>
</g>
<g clip-path="url(#a)">
<defs>
<path id="ai" d="m56.203 29.594v-4.3906h-41.312q0.59375-9.2812 5.5938-14.141t13.938-4.8594q5.1719 0 10.031 1.2656t9.6562 3.8125v-8.5q-4.8438-2.0469-9.9219-3.125t-10.297-1.0781q-13.094 0-20.734 7.6094-7.6406 7.625-7.6406 20.625 0 13.422 7.25 21.297 7.25 7.8906 19.562 7.8906 11.031 0 17.453-7.1094 6.4219-7.0938 6.4219-19.297zm-8.9844 2.6406q-0.09375 7.3594-4.125 11.75-4.0312 4.4062-10.672 4.4062-7.5156 0-12.031-4.25t-5.2031-11.969zm-8.6875 47.75h9.7188l-15.906-18.359h-7.4844z"/>
</defs>
<g transform="translate(537.82 842.76) scale(.1 -.1)">
<use xlink:href="#x"/>
<use x="54.980469" xlink:href="#g"/>
<use x="82.763672" xlink:href="#e"/>
<use x="146.142578" xlink:href="#ai"/>
<use x="207.666016" xlink:href="#k"/>
<use x="305.078125" xlink:href="#f"/>
</g>
</g>
<g clip-path="url(#a)">
<g transform="translate(592.97 842.76) scale(.1 -.1)">
<use xlink:href="#ak"/>
<use x="59.179688" xlink:href="#ai"/>
<use x="120.703125" xlink:href="#i"/>
<use x="161.816406" xlink:href="#g"/>
<use x="189.599609" xlink:href="#r"/>
<use x="228.808594" xlink:href="#ai"/>
</g>
</g>
<g clip-path="url(#a)">
<g transform="translate(629.76 842.76) scale(.1 -.1)">
<use xlink:href="#al"/>
<use x="63.476562" xlink:href="#i"/>
<use x="102.339844" xlink:href="#d"/>
<use x="163.863281" xlink:href="#u"/>
<use x="215.962891" xlink:href="#d"/>
<use x="277.486328" xlink:href="#e"/>
<use x="340.865234" xlink:href="#r"/>
<use x="380.074219" xlink:href="#f"/>
<use x="441.353516" xlink:href="#r"/>
<use x="480.5625" xlink:href="#g"/>
<use x="508.345703" xlink:href="#o"/>
<use x="569.527344" xlink:href="#e"/>
</g>
</g>
<g clip-path="url(#a)">
<defs>
<path id="as" d="m37.109 75.984v-7.4844h-8.5938q-4.8281 0-6.7188-1.9531-1.875-1.9531-1.875-7.0312v-4.8281h14.797v-6.9844h-14.797v-47.703h-9.0312v47.703h-8.5938v6.9844h8.5938v3.8125q0 9.125 4.25 13.297 4.25 4.1875 13.469 4.1875z"/>
</defs>
<g transform="translate(713.07 842.76) scale(.1 -.1)">
<use xlink:href="#o"/>
<use x="61.181641" xlink:href="#as"/>
</g>
</g>
<g clip-path="url(#a)">
<g transform="translate(762.51 842.76) scale(.1 -.1)">
<use xlink:href="#ah"/>
<use x="77.001953" xlink:href="#aq"/>
<use x="136.181641" xlink:href="#l"/>
<use x="163.964844" xlink:href="#f"/>
<use x="225.244141" xlink:href="#e"/>
</g>
</g>
<g clip-path="url(#a)">
<g transform="translate(834.59 842.76) scale(.1 -.1)">
<use xlink:href="#ap"/>
<use x="27.490234" xlink:href="#u"/>
</g>
</g>
<g clip-path="url(#a)">
<defs>
<path id="c" d="m12.406 8.2969h16.109v55.625l-17.531-3.5156v8.9844l17.438 3.5156h9.8594v-64.609h16.109v-8.2969h-41.984z"/>
<path id="aa" d="m10.984 1.5156v8.9844q3.7188-1.7656 7.5156-2.6875 3.8125-0.92188 7.4844-0.92188 9.7656 0 14.906 6.5625 5.1562 6.5625 5.8906 19.953-2.8281-4.2031-7.1875-6.4531-4.3438-2.25-9.6094-2.25-10.938 0-17.312 6.6094-6.375 6.625-6.375 18.109 0 11.219 6.6406 18 6.6406 6.7969 17.672 6.7969 12.656 0 19.312-9.7031 6.6719-9.6875 6.6719-28.141 0-17.234-8.1875-27.516-8.1719-10.281-21.984-10.281-3.7188 0-7.5312 0.73438-3.7969 0.73438-7.9062 2.2031zm19.625 30.906q6.6406 0 10.516 4.5312 3.8906 4.5469 3.8906 12.469 0 7.8594-3.8906 12.422-3.875 4.5625-10.516 4.5625t-10.516-4.5625-3.875-12.422q0-7.9219 3.875-12.469 3.875-4.5312 10.516-4.5312z"/>
<path id="w" d="m33.016 40.375q-6.6406 0-10.531-4.5469-3.875-4.5312-3.875-12.438 0-7.8594 3.875-12.438 3.8906-4.5625 10.531-4.5625t10.516 4.5625q3.875 4.5781 3.875 12.438 0 7.9062-3.875 12.438-3.875 4.5469-10.516 4.5469zm19.578 30.922v-8.9844q-3.7188 1.75-7.5 2.6719-3.7812 0.9375-7.5 0.9375-9.7656 0-14.922-6.5938-5.1406-6.5938-5.875-19.922 2.875 4.25 7.2188 6.5156 4.3594 2.2656 9.5781 2.2656 10.984 0 17.359-6.6719 6.375-6.6562 6.375-18.125 0-11.234-6.6406-18.031-6.6406-6.7812-17.672-6.7812-12.656 0-19.344 9.6875-6.6875 9.7031-6.6875 28.109 0 17.281 8.2031 27.562t22.016 10.281q3.7188 0 7.5-0.73438t7.8906-2.1875z"/>
<path id="ad" d="m10.797 72.906h38.719v-8.3125h-29.688v-17.859q2.1406 0.73438 4.2812 1.0938 2.1562 0.35938 4.3125 0.35938 12.203 0 19.328-6.6875 7.1406-6.6875 7.1406-18.109 0-11.766-7.3281-18.297-7.3281-6.5156-20.656-6.5156-4.5938 0-9.3594 0.78125-4.75 0.78125-9.8281 2.3438v9.9219q4.3906-2.3906 9.0781-3.5625t9.9062-1.1719q8.4531 0 13.375 4.4375 4.9375 4.4375 4.9375 12.062 0 7.6094-4.9375 12.047-4.9219 4.4531-13.375 4.4531-3.9531 0-7.8906-0.875-3.9219-0.875-8.0156-2.7344z"/>
</defs>
<g transform="translate(890.03 842.76) scale(.1 -.1)">
<use xlink:href="#c"/>
<use x="63.623047" xlink:href="#aa"/>
<use x="127.246094" xlink:href="#w"/>
<use x="190.869141" xlink:href="#ad"/>
</g>
</g>
<g clip-path="url(#a)">
<g transform="translate(959.27 842.76) scale(.1 -.1)">
<use xlink:href="#r"/>
<use x="39.208984" xlink:href="#o"/>
<use x="100.390625" xlink:href="#ar"/>
<use x="163.769531" xlink:href="#i"/>
</g>
</g>
<g clip-path="url(#a)">
<g transform="translate(1034 842.76) scale(.1 -.1)">
<use xlink:href="#o"/>
<use x="61.181641" xlink:href="#as"/>
</g>
</g>
<g clip-path="url(#a)">
<defs>
<path id="aw" d="m59.516 10.406v19.578h-16.109v8.1094h25.875v-31.312q-5.7031-4.0469-12.594-6.125-6.875-2.0781-14.688-2.0781-17.094 0-26.75 9.9844-9.6406 10-9.6406 27.812 0 17.875 9.6406 27.859 9.6562 9.9844 26.75 9.9844 7.125 0 13.547-1.7656 6.4219-1.75 11.844-5.1719v-10.5q-5.4688 4.6406-11.625 6.9844t-12.938 2.3438q-13.391 0-20.109-7.4688-6.7031-7.4688-6.7031-22.266 0-14.75 6.7031-22.219 6.7188-7.4688 20.109-7.4688 5.2188 0 9.3125 0.90625 4.1094 0.90625 7.375 2.8125z"/>
</defs>
<g transform="translate(1096.8 842.76) scale(.1 -.1)">
<use xlink:href="#aw"/>
<use x="77.490234" xlink:href="#i"/>
<use x="116.353516" xlink:href="#d"/>
<use x="177.876953" xlink:href="#f"/>
<use x="239.15625" xlink:href="#r"/>
</g>
</g>
<g clip-path="url(#a)">
<defs>
<path id="ao" d="m19.672 34.812v-26.703h15.828q7.9531 0 11.781 3.2969 3.8438 3.2969 3.8438 10.078 0 6.8438-3.8438 10.078-3.8281 3.25-11.781 3.25zm0 29.984v-21.969h14.609q7.2188 0 10.75 2.7031 3.5469 2.7188 3.5469 8.2812 0 5.5156-3.5469 8.25-3.5312 2.7344-10.75 2.7344zm-9.8594 8.1094h25.203q11.281 0 17.375-4.6875 6.1094-4.6875 6.1094-13.328 0-6.7031-3.125-10.656t-9.1875-4.9219q7.2812-1.5625 11.312-6.5312 4.0312-4.9531 4.0312-12.375 0-9.7656-6.6406-15.094-6.6406-5.3125-18.906-5.3125h-26.172z"/>
</defs>
<g transform="translate(1168.7 842.76) scale(.1 -.1)">
<use xlink:href="#ao"/>
<use x="68.603516" xlink:href="#i"/>
<use x="109.716797" xlink:href="#g"/>
<use x="137.5" xlink:href="#r"/>
<use x="176.708984" xlink:href="#f"/>
<use x="237.988281" xlink:href="#g"/>
<use x="265.771484" xlink:href="#e"/>
</g>
</g>
<g clip-path="url(#a)">
<defs>
<path id="ay" d="m11.719 12.406h10.297v-8.4062l-8-15.625h-6.2969l4 15.625z"/>
</defs>
<g transform="translate(1260.6 842.76) scale(.1 -.1)">
<use xlink:href="#ay"/>
</g>
</g>
<g clip-path="url(#a)">
<g transform="translate(1329.8 842.76) scale(.1 -.1)">
<use xlink:href="#ah"/>
<use x="77.001953" xlink:href="#o"/>
<use x="138.183594" xlink:href="#e"/>
<use x="201.5625" xlink:href="#r"/>
</g>
</g>
<g clip-path="url(#a)">
<defs>
<path id="au" d="m9.8125 72.906h9.8594v-64.609h35.5v-8.2969h-45.359z"/>
</defs>
<g transform="translate(1412.3 842.76) scale(.1 -.1)">
<use xlink:href="#au"/>
<use x="53.962891" xlink:href="#o"/>
<use x="115.144531" xlink:href="#o"/>
<use x="176.326172" xlink:href="#am"/>
</g>
</g>
<g clip-path="url(#a)">
<g transform="translate(1496.6 842.76) scale(.1 -.1)">
<use xlink:href="#ao"/>
<use x="68.603516" xlink:href="#f"/>
<use x="129.882812" xlink:href="#x"/>
<use x="184.863281" xlink:href="#am"/>
</g>
</g>
<g clip-path="url(#a)">
<g transform="translate(1594.4 842.76) scale(.1 -.1)">
<use xlink:href="#h"/>
</g>
</g>
<g clip-path="url(#a)">
<g transform="translate(117.58 42.759) scale(.1 -.1)">
<use xlink:href="#c"/>
<use x="63.623047" xlink:href="#h"/>
<use x="95.410156" xlink:href="#c"/>
</g>
</g>
<g clip-path="url(#a)">
<defs>
<path id="m" d="m19.188 8.2969h34.422v-8.2969h-46.281v8.2969q5.6094 5.8125 15.297 15.594 9.7031 9.7969 12.188 12.641 4.7344 5.3125 6.6094 9 1.8906 3.6875 1.8906 7.25 0 5.8125-4.0781 9.4688-4.0781 3.6719-10.625 3.6719-4.6406 0-9.7969-1.6094-5.1406-1.6094-11-4.8906v9.9688q5.9531 2.3906 11.125 3.6094 5.1875 1.2188 9.4844 1.2188 11.328 0 18.062-5.6719 6.7344-5.6562 6.7344-15.125 0-4.5-1.6875-8.5312-1.6719-4.0156-6.125-9.4844-1.2188-1.4219-7.7656-8.1875-6.5312-6.7656-18.453-18.922z"/>
</defs>
<g transform="translate(117.58 132.49) scale(.1 -.1)">
<use xlink:href="#c"/>
<use x="63.623047" xlink:href="#h"/>
<use x="95.410156" xlink:href="#m"/>
</g>
</g>
<g clip-path="url(#a)">
<defs>
<path id="s" d="m37.797 64.312-24.906-38.922h24.906zm-2.5938 8.5938h12.406v-47.516h10.406v-8.2031h-10.406v-17.188h-9.8125v17.188h-32.906v9.5156z"/>
</defs>
<g transform="translate(71.9 667.64) scale(.1 -.1)">
<use xlink:href="#c"/>
<use x="63.623047" xlink:href="#h"/>
<use x="95.410156" xlink:href="#s"/>
</g>
</g>
<g clip-path="url(#a)">
<g transform="translate(86.021 755.8) scale(.1 -.1)">
<use xlink:href="#c"/>
<use x="63.623047" xlink:href="#h"/>
<use x="95.410156" xlink:href="#ad"/>
</g>
</g>
<g clip-path="url(#a)">
<g transform="translate(98.859 755.8) scale(.1 -.1)">
<use xlink:href="#c"/>
<use x="63.623047" xlink:href="#h"/>
<use x="95.410156" xlink:href="#w"/>
</g>
</g>
<g clip-path="url(#a)">
<defs>
<path id="ac" d="m8.2031 72.906h46.875v-4.2031l-26.469-68.703h-10.297l24.906 64.594h-35.016z"/>
</defs>
<g transform="translate(213.56 222.1) scale(.1 -.1)">
<use xlink:href="#c"/>
<use x="63.623047" xlink:href="#h"/>
<use x="95.410156" xlink:href="#ac"/>
</g>
</g>
<g clip-path="url(#a)">
<defs>
<path id="ab" d="m31.781 34.625q-7.0312 0-11.062-3.7656-4.0156-3.7656-4.0156-10.344 0-6.5938 4.0156-10.359 4.0312-3.7656 11.062-3.7656t11.078 3.7812q4.0625 3.7969 4.0625 10.344 0 6.5781-4.0312 10.344-4.0156 3.7656-11.109 3.7656zm-9.8594 4.1875q-6.3438 1.5625-9.8906 5.9062-3.5312 4.3594-3.5312 10.609 0 8.7344 6.2188 13.812 6.2344 5.0781 17.062 5.0781 10.891 0 17.094-5.0781t6.2031-13.812q0-6.25-3.5469-10.609-3.5312-4.3438-9.8281-5.9062 7.125-1.6562 11.094-6.5 3.9844-4.8281 3.9844-11.797 0-10.609-6.4688-16.281-6.4688-5.6562-18.531-5.6562-12.047 0-18.531 5.6562-6.4688 5.6719-6.4688 16.281 0 6.9688 4 11.797 4.0156 4.8438 11.141 6.5zm-3.6094 15.578q0-5.6562 3.5312-8.8281 3.5469-3.1719 9.9375-3.1719 6.3594 0 9.9375 3.1719 3.5938 3.1719 3.5938 8.8281 0 5.6719-3.5938 8.8438-3.5781 3.1719-9.9375 3.1719-6.3906 0-9.9375-3.1719-3.5312-3.1719-3.5312-8.8438z"/>
</defs>
<g transform="translate(114.26 755.8) scale(.1 -.1)">
<use xlink:href="#c"/>
<use x="63.623047" xlink:href="#h"/>
<use x="95.410156" xlink:href="#ab"/>
</g>
</g>
<g clip-path="url(#a)">
<g transform="translate(132.24 755.8) scale(.1 -.1)">
<use xlink:href="#c"/>
<use x="63.623047" xlink:href="#h"/>
<use x="95.410156" xlink:href="#aa"/>
</g>
</g>
<g clip-path="url(#a)">
<defs>
<path id="ae" d="m31.781 66.406q-7.6094 0-11.453-7.5-3.8281-7.4844-3.8281-22.531 0-14.984 3.8281-22.484 3.8438-7.5 11.453-7.5 7.6719 0 11.5 7.5 3.8438 7.5 3.8438 22.484 0 15.047-3.8438 22.531-3.8281 7.5-11.5 7.5zm0 7.8125q12.266 0 18.734-9.7031 6.4688-9.6875 6.4688-28.141 0-18.406-6.4688-28.109-6.4688-9.6875-18.734-9.6875-12.25 0-18.719 9.6875-6.4688 9.7031-6.4688 28.109 0 18.453 6.4688 28.141 6.4688 9.7031 18.719 9.7031z"/>
</defs>
<g transform="translate(173.99 667.64) scale(.1 -.1)">
<use xlink:href="#c"/>
<use x="63.623047" xlink:href="#h"/>
<use x="95.410156" xlink:href="#c"/>
<use x="159.033203" xlink:href="#ae"/>
</g>
</g>
<g clip-path="url(#a)">
<g transform="translate(172.71 755.8) scale(.1 -.1)">
<use xlink:href="#c"/>
<use x="63.623047" xlink:href="#h"/>
<use x="95.410156" xlink:href="#c"/>
<use x="159.033203" xlink:href="#c"/>
</g>
</g>
<g clip-path="url(#a)">
<g transform="translate(198.38 755.8) scale(.1 -.1)">
<use xlink:href="#c"/>
<use x="63.623047" xlink:href="#h"/>
<use x="95.410156" xlink:href="#c"/>
<use x="159.033203" xlink:href="#m"/>
</g>
</g>
<g clip-path="url(#a)">
<defs>
<path id="n" d="m40.578 39.312q7.0781-1.5156 11.047-6.3125 3.9844-4.7812 3.9844-11.812 0-10.781-7.4219-16.703-7.4219-5.9062-21.094-5.9062-4.5781 0-9.4375 0.90625t-10.031 2.7188v9.5156q4.0938-2.3906 8.9688-3.6094 4.8906-1.2188 10.219-1.2188 9.2656 0 14.125 3.6562t4.8594 10.641q0 6.4531-4.5156 10.078-4.5156 3.6406-12.562 3.6406h-8.5v8.1094h8.8906q7.2656 0 11.125 2.9062t3.8594 8.375q0 5.6094-3.9844 8.6094-3.9688 3.0156-11.391 3.0156-4.0625 0-8.7031-0.89062-4.6406-0.875-10.203-2.7188v8.7812q5.625 1.5625 10.531 2.3438t9.25 0.78125q11.234 0 17.766-5.1094 6.5469-5.0938 6.5469-13.781 0-6.0625-3.4688-10.234t-9.8594-5.7812z"/>
</defs>
<g transform="translate(477.04 311.58) scale(.1 -.1)">
<use xlink:href="#c"/>
<use x="63.623047" xlink:href="#h"/>
<use x="95.410156" xlink:href="#c"/>
<use x="159.033203" xlink:href="#n"/>
</g>
</g>
<g clip-path="url(#a)">
<g transform="translate(226.62 755.8) scale(.1 -.1)">
<use xlink:href="#c"/>
<use x="63.623047" xlink:href="#h"/>
<use x="95.410156" xlink:href="#c"/>
<use x="159.033203" xlink:href="#s"/>
</g>
</g>
<g clip-path="url(#a)">
<g transform="translate(257.43 755.8) scale(.1 -.1)">
<use xlink:href="#c"/>
<use x="63.623047" xlink:href="#h"/>
<use x="95.410156" xlink:href="#c"/>
<use x="159.033203" xlink:href="#ad"/>
</g>
</g>
<g clip-path="url(#a)">
<g transform="translate(1225.7 400.92) scale(.1 -.1)">
<use xlink:href="#c"/>
<use x="63.623047" xlink:href="#h"/>
<use x="95.410156" xlink:href="#c"/>
<use x="159.033203" xlink:href="#w"/>
</g>
</g>
<g clip-path="url(#a)">
<g transform="translate(653.21 490.08) scale(.1 -.1)">
<use xlink:href="#c"/>
<use x="63.623047" xlink:href="#h"/>
<use x="95.410156" xlink:href="#c"/>
<use x="159.033203" xlink:href="#ac"/>
</g>
</g>
<g clip-path="url(#a)">
<g transform="translate(1413.7 755.8) scale(.1 -.1)">
<use xlink:href="#c"/>
<use x="63.623047" xlink:href="#h"/>
<use x="95.410156" xlink:href="#c"/>
<use x="159.033203" xlink:href="#ab"/>
</g>
</g>
<g clip-path="url(#a)">
<g transform="translate(504.78 579.01) scale(.1 -.1)">
<use xlink:href="#c"/>
<use x="63.623047" xlink:href="#h"/>
<use x="95.410156" xlink:href="#m"/>
<use x="159.033203" xlink:href="#ae"/>
</g>
</g>
<g clip-path="url(#a)">
<g transform="translate(570.68 755.8) scale(.1 -.1)">
<use xlink:href="#c"/>
<use x="63.623047" xlink:href="#h"/>
<use x="95.410156" xlink:href="#m"/>
<use x="159.033203" xlink:href="#c"/>
</g>
</g>
<g clip-path="url(#a)">
<g transform="translate(650.27 755.8) scale(.1 -.1)">
<use xlink:href="#c"/>
<use x="63.623047" xlink:href="#h"/>
<use x="95.410156" xlink:href="#m"/>
<use x="159.033203" xlink:href="#m"/>
</g>
</g>
<g clip-path="url(#a)">
<g transform="translate(887.13 579.01) scale(.1 -.1)">
<use xlink:href="#c"/>
<use x="63.623047" xlink:href="#h"/>
<use x="95.410156" xlink:href="#m"/>
<use x="159.033203" xlink:href="#n"/>
</g>
</g>
<g clip-path="url(#a)">
<g transform="translate(706.76 755.8) scale(.1 -.1)">
<use xlink:href="#c"/>
<use x="63.623047" xlink:href="#h"/>
<use x="95.410156" xlink:href="#m"/>
<use x="159.033203" xlink:href="#s"/>
</g>
</g>
<g clip-path="url(#a)">
<g transform="translate(796.62 667.64) scale(.1 -.1)">
<use xlink:href="#c"/>
<use x="63.623047" xlink:href="#h"/>
<use x="95.410156" xlink:href="#m"/>
<use x="159.033203" xlink:href="#ad"/>
</g>
</g>
<g clip-path="url(#a)">
<g transform="translate(891.62 755.8) scale(.1 -.1)">
<use xlink:href="#c"/>
<use x="63.623047" xlink:href="#h"/>
<use x="95.410156" xlink:href="#m"/>
<use x="159.033203" xlink:href="#w"/>
</g>
</g>
<g clip-path="url(#a)">
<g transform="translate(958.38 755.8) scale(.1 -.1)">
<use xlink:href="#c"/>
<use x="63.623047" xlink:href="#h"/>
<use x="95.410156" xlink:href="#m"/>
<use x="159.033203" xlink:href="#ac"/>
</g>
</g>
<g clip-path="url(#a)">
<g transform="translate(1082.3 667.64) scale(.1 -.1)">
<use xlink:href="#c"/>
<use x="63.623047" xlink:href="#h"/>
<use x="95.410156" xlink:href="#m"/>
<use x="159.033203" xlink:href="#ab"/>
</g>
</g>
<g clip-path="url(#a)">
<g transform="translate(1027.7 755.8) scale(.1 -.1)">
<use xlink:href="#c"/>
<use x="63.623047" xlink:href="#h"/>
<use x="95.410156" xlink:href="#m"/>
<use x="159.033203" xlink:href="#aa"/>
</g>
</g>
<g clip-path="url(#a)">
<g transform="translate(1136.8 755.8) scale(.1 -.1)">
<use xlink:href="#c"/>
<use x="63.623047" xlink:href="#h"/>
<use x="95.410156" xlink:href="#n"/>
<use x="159.033203" xlink:href="#ae"/>
</g>
</g>
<g clip-path="url(#a)">
<g transform="translate(765.81 755.8) scale(.1 -.1)">
<use xlink:href="#c"/>
<use x="63.623047" xlink:href="#h"/>
<use x="95.410156" xlink:href="#n"/>
<use x="159.033203" xlink:href="#c"/>
</g>
</g>
<g clip-path="url(#a)">
<g transform="translate(827.43 755.8) scale(.1 -.1)">
<use xlink:href="#c"/>
<use x="63.623047" xlink:href="#h"/>
<use x="95.410156" xlink:href="#n"/>
<use x="159.033203" xlink:href="#m"/>
</g>
</g>
<g clip-path="url(#a)">
<g transform="translate(367.84 667.64) scale(.1 -.1)">
<use xlink:href="#c"/>
<use x="63.623047" xlink:href="#h"/>
<use x="95.410156" xlink:href="#n"/>
<use x="159.033203" xlink:href="#n"/>
</g>
</g>
<g clip-path="url(#a)">
<g transform="translate(496.22 755.8) scale(.1 -.1)">
<use xlink:href="#c"/>
<use x="63.623047" xlink:href="#h"/>
<use x="95.410156" xlink:href="#n"/>
<use x="159.033203" xlink:href="#s"/>
</g>
</g>
<g clip-path="url(#a)">
<g transform="translate(326.76 755.8) scale(.1 -.1)">
<use xlink:href="#c"/>
<use x="63.623047" xlink:href="#h"/>
<use x="95.410156" xlink:href="#n"/>
<use x="159.033203" xlink:href="#w"/>
</g>
</g>
<g clip-path="url(#a)">
<g transform="translate(149.6 755.8) scale(.1 -.1)">
<use xlink:href="#c"/>
<use x="63.623047" xlink:href="#h"/>
<use x="95.410156" xlink:href="#n"/>
<use x="159.033203" xlink:href="#ac"/>
</g>
</g>
<g clip-path="url(#a)">
<g transform="translate(64.867 755.8) scale(.1 -.1)">
<use xlink:href="#c"/>
<use x="63.623047" xlink:href="#h"/>
<use x="95.410156" xlink:href="#n"/>
<use x="159.033203" xlink:href="#ab"/>
</g>
</g>
<g clip-path="url(#a)">
<g transform="translate(72.57 755.8) scale(.1 -.1)">
<use xlink:href="#c"/>
<use x="63.623047" xlink:href="#h"/>
<use x="95.410156" xlink:href="#n"/>
<use x="159.033203" xlink:href="#aa"/>
</g>
</g>
<g clip-path="url(#a)">
<g transform="translate(406.35 755.8) scale(.1 -.1)">
<use xlink:href="#c"/>
<use x="63.623047" xlink:href="#h"/>
<use x="95.410156" xlink:href="#s"/>
<use x="159.033203" xlink:href="#ae"/>
</g>
</g>
<g clip-path="url(#a)">
<g transform="translate(1251.1 755.8) scale(.1 -.1)">
<use xlink:href="#c"/>
<use x="63.623047" xlink:href="#h"/>
<use x="95.410156" xlink:href="#s"/>
<use x="159.033203" xlink:href="#c"/>
</g>
</g>
<g clip-path="url(#a)">
<g transform="translate(1584.9 755.8) scale(.1 -.1)">
<use xlink:href="#c"/>
<use x="63.623047" xlink:href="#h"/>
<use x="95.410156" xlink:href="#s"/>
<use x="159.033203" xlink:href="#m"/>
</g>
</g>
<defs>
<clipPath id="a">
<rect width="1672" height="880"/>
</clipPath>
</defs>
</svg>
