<?xml version="1.0" encoding="UTF-8"?>
<!DOCTYPE svg  PUBLIC '-//W3C//DTD SVG 1.1//EN'  'http://www.w3.org/Graphics/SVG/1.1/DTD/svg11.dtd'>
<svg width="1469.3pt" height="773.33pt" version="1.1" viewBox="0 0 1469.3 773.33" xmlns="http://www.w3.org/2000/svg" xmlns:xlink="http://www.w3.org/1999/xlink">
<defs>
<style type="text/css">*{stroke-linecap:butt;stroke-linejoin:round;}</style>
</defs>
<path d="m0 773.33h1469.3v-773.33h-1469.3z" fill="#fff"/>
<g fill="none" stroke="#000">
<path d="m180.1 35.152v88.7" clip-path="url(#a)"/>
<path d="m180.1 123.85-108.98 440.99" clip-path="url(#a)"/>
<path d="m180.1 123.85-93.074 528.26" clip-path="url(#a)"/>
<path d="m180.1 123.85 341.94 88.573" clip-path="url(#a)"/>
<path d="m180.1 123.85-78.618 528.26" clip-path="url(#a)"/>
<path d="m180.1 123.85-61.27 528.26" clip-path="url(#a)"/>
<path d="m71.125 564.84-4.3369 87.268" clip-path="url(#a)"/>
<path d="m71.125 564.84 4.3369 87.268" clip-path="url(#a)"/>
<path d="m87.027 652.11v86.07" clip-path="url(#a)"/>
<path d="m522.04 212.42-321.29 88.424" clip-path="url(#a)"/>
<path d="m522.04 212.42 30.479 439.69" clip-path="url(#a)"/>
<path d="m522.04 212.42 312.38 264.69" clip-path="url(#a)"/>
<path d="m522.04 212.42-21.564 439.69" clip-path="url(#a)"/>
<path d="m200.75 300.85-61.68 351.26" clip-path="url(#a)"/>
<path d="m200.75 300.85-38.55 351.26" clip-path="url(#a)"/>
<path d="m200.75 300.85-12.529 351.26" clip-path="url(#a)"/>
<path d="m200.75 300.85 16.384 351.26" clip-path="url(#a)"/>
<path d="m200.75 300.85 96.375 88.247" clip-path="url(#a)"/>
<path d="m552.52 652.11v86.07" clip-path="url(#a)"/>
<path d="m834.41 477.12-226.96 174.99" clip-path="url(#a)"/>
<path d="m834.41 477.12-169.14 174.99" clip-path="url(#a)"/>
<path d="m834.41 477.12-108.42 174.99" clip-path="url(#a)"/>
<path d="m834.41 477.12-44.814 174.99" clip-path="url(#a)"/>
<path d="m834.41 477.12 21.684 174.99" clip-path="url(#a)"/>
<path d="m834.41 477.12 127.22 87.725" clip-path="url(#a)"/>
<path d="m834.41 477.12 400.44 87.725" clip-path="url(#a)"/>
<path d="m607.45 652.11v86.07" clip-path="url(#a)"/>
<path d="m665.28 652.11v86.07" clip-path="url(#a)"/>
<path d="m725.99 652.11v86.07" clip-path="url(#a)"/>
<path d="m789.6 652.11v86.07" clip-path="url(#a)"/>
<path d="m856.1 652.11v86.07" clip-path="url(#a)"/>
<path d="m961.63 564.84-36.141 87.268" clip-path="url(#a)"/>
<path d="m961.63 564.84 36.141 87.268" clip-path="url(#a)"/>
<path d="m1234.9 564.84-161.91 87.268" clip-path="url(#a)"/>
<path d="m1234.9 564.84-83.846 87.268" clip-path="url(#a)"/>
<path d="m1234.9 564.84-2.8912 87.268" clip-path="url(#a)"/>
<path d="m1234.9 564.84 80.955 87.268" clip-path="url(#a)"/>
<path d="m1234.9 564.84 167.69 87.268" clip-path="url(#a)"/>
<path d="m1072.9 652.11v86.07" clip-path="url(#a)"/>
<path d="m1151 652.11v86.07" clip-path="url(#a)"/>
<path d="m1232 652.11v86.07" clip-path="url(#a)"/>
<path d="m925.49 652.11v86.07" clip-path="url(#a)"/>
<path d="m997.77 652.11v86.07" clip-path="url(#a)"/>
<path d="m139.07 652.11v86.07" clip-path="url(#a)"/>
<path d="m162.2 652.11v86.07" clip-path="url(#a)"/>
<path d="m188.22 652.11v86.07" clip-path="url(#a)"/>
<path d="m217.13 652.11v86.07" clip-path="url(#a)"/>
<path d="m297.12 389.09-48.188 263.02" clip-path="url(#a)"/>
<path d="m297.12 389.09 48.188 88.024" clip-path="url(#a)"/>
<path d="m248.94 652.11v86.07" clip-path="url(#a)"/>
<path d="m345.31 477.12-96.375 174.99" clip-path="url(#a)" stroke-dasharray="3.7,1.6"/>
<path d="m345.31 477.12-61.68 174.99" clip-path="url(#a)"/>
<path d="m345.31 477.12-24.094 174.99" clip-path="url(#a)"/>
<path d="m345.31 477.12 16.384 174.99" clip-path="url(#a)"/>
<path d="m345.31 477.12 59.753 174.99" clip-path="url(#a)"/>
<path d="m345.31 477.12 106.01 87.725" clip-path="url(#a)"/>
<path d="m283.63 652.11v86.07" clip-path="url(#a)"/>
<path d="m321.22 652.11v86.07" clip-path="url(#a)"/>
<path d="m361.7 652.11v86.07" clip-path="url(#a)"/>
<path d="m405.06 652.11v86.07" clip-path="url(#a)"/>
<path d="m451.32 564.84v87.268" clip-path="url(#a)"/>
<path d="m451.32 652.11v86.07" clip-path="url(#a)"/>
<path d="m66.788 652.11v86.07" clip-path="url(#a)"/>
<path d="m75.462 652.11v86.07" clip-path="url(#a)"/>
<path d="m101.48 652.11v86.07" clip-path="url(#a)"/>
<path d="m118.83 652.11v86.07" clip-path="url(#a)"/>
<path d="m500.48 652.11v86.07" clip-path="url(#a)"/>
<path d="m1315.8 652.11v86.07" clip-path="url(#a)"/>
<path d="m1402.5 652.11v86.07" clip-path="url(#a)"/>
</g>
<path d="m173.83 76.493v6.0162q0 2.4 2.4 2.4h7.7425q2.4 0 2.4-2.4v-6.0162q0-2.4-2.4-2.4h-7.7425q-2.4 0-2.4 2.4z" clip-path="url(#a)" fill="#fff" stroke="#fff"/>
<g clip-path="url(#a)">
<defs>
<path id="z" d="m9.8125 72.906h9.8594v-29.891h35.844v29.891h9.8594v-72.906h-9.8594v34.719h-35.844v-34.719h-9.8594z"/>
</defs>
<g transform="translate(177.89 76.493) rotate(90) scale(.08 -.08)">
<use xlink:href="#z"/>
</g>
</g>
<path d="m131.04 348.51 1.3128-5.3127q0.57576-2.3299-1.7542-2.9057l-7.5164-1.8574q-2.3299-0.57576-2.9057 1.7542l-1.3128 5.3127q-0.57576 2.3299 1.7542 2.9057l7.5164 1.8574q2.3299 0.57576 2.9057-1.7542z" clip-path="url(#a)" fill="#fff" stroke="#fff"/>
<g clip-path="url(#a)">
<defs>
<path id="p" d="m34.188 63.188-13.391-36.281h26.812zm-5.5781 9.7188h11.188l27.781-72.906h-10.25l-6.6406 18.703h-32.859l-6.6406-18.703h-10.406z"/>
</defs>
<g transform="translate(127.1 347.53) rotate(-76.119) scale(.08 -.08)">
<use xlink:href="#p"/>
</g>
</g>
<path d="m139.32 391.44 0.837-4.7506q0.41644-2.3636-1.9472-2.78l-7.6251-1.3435q-2.3636-0.41644-2.78 1.9472l-0.837 4.7506q-0.41644 2.3636 1.9472 2.78l7.6251 1.3435q2.3636 0.41644 2.78-1.9472z" clip-path="url(#a)" fill="#fff" stroke="#fff"/>
<g clip-path="url(#a)">
<defs>
<path id="w" d="m19.672 64.797v-27.391h12.406q6.8906 0 10.641 3.5625 3.7656 3.5625 3.7656 10.156 0 6.5469-3.7656 10.109-3.75 3.5625-10.641 3.5625zm-9.8594 8.1094h22.266q12.266 0 18.531-5.5469 6.2812-5.5469 6.2812-16.234 0-10.797-6.2812-16.312-6.2656-5.5156-18.531-5.5156h-12.406v-29.297h-9.8594z"/>
</defs>
<g transform="translate(135.32 390.74) rotate(-80.008) scale(.08 -.08)">
<use xlink:href="#w"/>
</g>
</g>
<path d="m346.85 173.52 5.2977 1.3723q2.3233 0.60181 2.9251-1.7215l1.9415-7.4951q0.60181-2.3233-1.7215-2.9251l-5.2977-1.3723q-2.3233-0.60181-2.9251 1.7215l-1.9415 7.4951q-0.60181 2.3233 1.7215 2.9251z" clip-path="url(#a)" fill="#fff" stroke="#fff"/>
<g clip-path="url(#a)">
<g transform="translate(347.87 169.59) rotate(14.522) scale(.08 -.08)">
<use xlink:href="#p"/>
</g>
</g>
<path d="m146.56 391.8 0.86187-5.7912q0.35329-2.3739-2.0206-2.7271l-7.6582-1.1397q-2.3739-0.35329-2.7271 2.0206l-0.86187 5.7912q-0.35329 2.3739 2.0206 2.7271l7.6582 1.1397q2.3739 0.35329 2.7271-2.0206z" clip-path="url(#a)" fill="#fff" stroke="#fff"/>
<g clip-path="url(#a)">
<defs>
<path id="v" d="m8.6875 72.906h9.9219v-44.297q0-11.719 4.2344-16.875 4.25-5.1406 13.781-5.1406 9.4688 0 13.719 5.1406 4.25 5.1562 4.25 16.875v44.297h9.9062v-45.516q0-14.25-7.0625-21.531-7.0469-7.2812-20.812-7.2812-13.828 0-20.891 7.2812-7.0469 7.2812-7.0469 21.531z"/>
</defs>
<g transform="translate(142.54 391.2) rotate(-81.535) scale(.08 -.08)">
<use xlink:href="#v"/>
</g>
</g>
<path d="m155.36 391.61 0.67457-5.816q0.27651-2.384-2.1075-2.6605l-7.6909-0.89204q-2.384-0.27651-2.6605 2.1075l-0.67457 5.816q-0.27651 2.384 2.1075 2.6605l7.6909 0.89204q2.384 0.27651 2.6605-2.1075z" clip-path="url(#a)" fill="#fff" stroke="#fff"/>
<g clip-path="url(#a)">
<g transform="translate(151.32 391.14) rotate(-83.384) scale(.08 -.08)">
<use xlink:href="#v"/>
</g>
</g>
<path d="m75.081 611.58 0.27727-5.5794q0.11912-2.397-2.2779-2.5162l-7.733-0.3843q-2.397-0.11912-2.5162 2.2779l-0.27727 5.5794q-0.11912 2.397 2.2779 2.5162l7.733 0.3843q2.397 0.11912 2.5162-2.2779z" clip-path="url(#a)" fill="#fff" stroke="#fff"/>
<g clip-path="url(#a)">
<defs>
<path id="ac" d="m64.406 67.281v-10.391q-4.9844 4.6406-10.625 6.9219-5.6406 2.2969-11.984 2.2969-12.5 0-19.141-7.6406t-6.6406-22.094q0-14.406 6.6406-22.047t19.141-7.6406q6.3438 0 11.984 2.2969t10.625 6.9375v-10.312q-5.1719-3.5156-10.969-5.2812-5.7812-1.75-12.219-1.75-16.562 0-26.094 10.125-9.5156 10.141-9.5156 27.672 0 17.578 9.5156 27.703 9.5312 10.141 26.094 10.141 6.5312 0 12.312-1.7344 5.7969-1.7344 10.875-5.2031z"/>
</defs>
<g transform="translate(71.022 611.38) rotate(-87.155) scale(.08 -.08)">
<use xlink:href="#ac"/>
</g>
</g>
<path d="m66.904 606.26 0.2509 5.0488q0.11912 2.397 2.5162 2.2779l7.733-0.3843q2.397-0.11912 2.2779-2.5162l-0.2509-5.0488q-0.11912-2.397-2.5162-2.2779l-7.733 0.3843q-2.397 0.11912-2.2779 2.5162z" clip-path="url(#a)" fill="#fff" stroke="#fff"/>
<g clip-path="url(#a)">
<defs>
<path id="ab" d="m9.8125 72.906h46.094v-8.3125h-36.234v-21.578h34.719v-8.2969h-34.719v-26.422h37.109v-8.2969h-46.969z"/>
</defs>
<g transform="translate(70.963 606.06) rotate(87.155) scale(.08 -.08)">
<use xlink:href="#ab"/>
</g>
</g>
<path d="m80.755 678.24v33.808q0 2.4 2.4 2.4h7.7425q2.4 0 2.4-2.4v-33.808q0-2.4-2.4-2.4h-7.7425q-2.4 0-2.4 2.4z" clip-path="url(#a)" fill="#fff" stroke="#fff"/>
<g clip-path="url(#a)">
<defs>
<path id="l" d="m-0.29688 72.906h61.672v-8.3125h-25.875v-64.594h-9.9062v64.594h-25.891z"/>
<path id="f" d="m56.203 29.594v-4.3906h-41.312q0.59375-9.2812 5.5938-14.141t13.938-4.8594q5.1719 0 10.031 1.2656t9.6562 3.8125v-8.5q-4.8438-2.0469-9.9219-3.125t-10.297-1.0781q-13.094 0-20.734 7.6094-7.6406 7.625-7.6406 20.625 0 13.422 7.25 21.297 7.25 7.8906 19.562 7.8906 11.031 0 17.453-7.1094 6.4219-7.0938 6.4219-19.297zm-8.9844 2.6406q-0.09375 7.3594-4.125 11.75-4.0312 4.4062-10.672 4.4062-7.5156 0-12.031-4.25t-5.2031-11.969z"/>
<path id="k" d="m41.109 46.297q-1.5156 0.875-3.2969 1.2812-1.7812 0.42188-3.9219 0.42188-7.625 0-11.703-4.9531t-4.0781-14.234v-28.812h-9.0312v54.688h9.0312v-8.5q2.8438 4.9844 7.375 7.3906 4.5469 2.4219 11.047 2.4219 0.92188 0 2.0469-0.125 1.125-0.10938 2.4844-0.35938z"/>
<path id="i" d="m52 44.188q3.375 6.0625 8.0625 8.9375t11.031 2.875q8.5469 0 13.188-5.9844 4.6406-5.9688 4.6406-17v-33.016h-9.0312v32.719q0 7.8594-2.7969 11.656-2.7812 3.8125-8.4844 3.8125-6.9844 0-11.047-4.6406-4.0469-4.625-4.0469-12.641v-30.906h-9.0312v32.719q0 7.9062-2.7812 11.688t-8.5938 3.7812q-6.8906 0-10.953-4.6562-4.0469-4.6562-4.0469-12.625v-30.906h-9.0312v54.688h9.0312v-8.5q3.0781 5.0312 7.375 7.4219t10.203 2.3906q5.9688 0 10.141-3.0312 4.1719-3.0156 6.1719-8.7812z"/>
<path id="h" d="m9.4219 54.688h8.9844v-54.688h-8.9844zm0 21.297h8.9844v-11.391h-8.9844z"/>
<path id="g" d="m54.891 33.016v-33.016h-8.9844v32.719q0 7.7656-3.0312 11.609-3.0312 3.8594-9.0781 3.8594-7.2812 0-11.484-4.6406-4.2031-4.625-4.2031-12.641v-30.906h-9.0312v54.688h9.0312v-8.5q3.2344 4.9375 7.5938 7.375 4.375 2.4375 10.094 2.4375 9.4219 0 14.25-5.8281 4.8438-5.8281 4.8438-17.156z"/>
<path id="d" d="m34.281 27.484q-10.891 0-15.094-2.4844t-4.2031-8.5q0-4.7812 3.1562-7.5938 3.1562-2.7969 8.5625-2.7969 7.4844 0 12 5.2969t4.5156 14.078v2zm17.922 3.7188v-31.203h-8.9844v8.2969q-3.0781-4.9688-7.6719-7.3438t-11.234-2.375q-8.3906 0-13.359 4.7188-4.9531 4.7188-4.9531 12.625 0 9.2188 6.1719 13.906 6.1875 4.6875 18.438 4.6875h12.609v0.89062q0 6.2031-4.0781 9.5938t-11.453 3.3906q-4.6875 0-9.1406-1.125-4.4375-1.125-8.5312-3.375v8.3125q4.9219 1.9062 9.5625 2.8438 4.6406 0.95312 9.0312 0.95312 11.875 0 17.734-6.1562 5.8594-6.1406 5.8594-18.641z"/>
<path id="j" d="m9.4219 75.984h8.9844v-75.984h-8.9844z"/>
</defs>
<g transform="translate(84.819 678.24) rotate(90) scale(.08 -.08)">
<use xlink:href="#l"/>
<use x="44.083984" xlink:href="#f"/>
<use x="105.607422" xlink:href="#k"/>
<use x="144.970703" xlink:href="#i"/>
<use x="242.382812" xlink:href="#h"/>
<use x="270.166016" xlink:href="#g"/>
<use x="333.544922" xlink:href="#d"/>
<use x="394.824219" xlink:href="#j"/>
</g>
</g>
<path d="m360.16 263.48 5.8006-1.5964q2.314-0.63684 1.6771-2.9508l-2.0545-7.4649q-0.63684-2.314-2.9508-1.6771l-5.8006 1.5964q-2.314 0.63684-1.6771 2.9508l2.0545 7.4649q0.63684 2.314 2.9508 1.6771z" clip-path="url(#a)" fill="#fff" stroke="#fff"/>
<g clip-path="url(#a)">
<g transform="translate(359.08 259.56) rotate(-15.388) scale(.08 -.08)">
<use xlink:href="#z"/>
</g>
</g>
<path d="m530.81 429.7 0.41604 6.0018q0.16597 2.3943 2.5602 2.2283l7.724-0.53542q2.3943-0.16597 2.2283-2.5602l-0.41604-6.0018q-0.16597-2.3943-2.5602-2.2283l-7.724 0.53542q-2.3943 0.16597-2.2283 2.5602z" clip-path="url(#a)" fill="#fff" stroke="#fff"/>
<g clip-path="url(#a)">
<g transform="translate(534.87 429.42) rotate(86.035) scale(.08 -.08)">
<use xlink:href="#z"/>
</g>
</g>
<path d="m671.88 347.61 4.59 3.8894q1.831 1.5515 3.3826-0.27949l5.0054-5.907q1.5516-1.831-0.27949-3.3826l-4.59-3.8894q-1.831-1.5515-3.3826 0.27949l-5.0054 5.907q-1.5516 1.831 0.27949 3.3826z" clip-path="url(#a)" fill="#fff" stroke="#fff"/>
<g clip-path="url(#a)">
<g transform="translate(674.5 344.51) rotate(40.277) scale(.08 -.08)">
<use xlink:href="#z"/>
</g>
</g>
<path d="m517.38 435.5 0.28681-5.848q0.11756-2.3971-2.2796-2.5147l-7.7332-0.37926q-2.3971-0.11756-2.5147 2.2796l-0.28681 5.848q-0.11756 2.3971 2.2796 2.5147l7.7332 0.37926q2.3971 0.11756 2.5147-2.2796z" clip-path="url(#a)" fill="#fff" stroke="#fff"/>
<g clip-path="url(#a)">
<g transform="translate(513.32 435.3) rotate(-87.192) scale(.08 -.08)">
<use xlink:href="#v"/>
</g>
</g>
<path d="m175.61 480.26 0.94646-5.39q0.41508-2.3638-1.9488-2.7789l-7.6258-1.3391q-2.3638-0.41508-2.7789 1.9488l-0.94646 5.39q-0.41508 2.3638 1.9488 2.7789l7.6258 1.3391q2.3638 0.41508 2.7789-1.9488z" clip-path="url(#a)" fill="#fff" stroke="#fff"/>
<g clip-path="url(#a)">
<g transform="translate(171.61 479.56) rotate(-80.041) scale(.08 -.08)">
<use xlink:href="#p"/>
</g>
</g>
<path d="m187.46 479.45 0.50196-4.5738q0.26182-2.3857-2.1239-2.6475l-7.6963-0.84464q-2.3857-0.26182-2.6475 2.1239l-0.50196 4.5738q-0.26182 2.3857 2.1239 2.6475l7.6963 0.84464q2.3857 0.26182 2.6475-2.1239z" clip-path="url(#a)" fill="#fff" stroke="#fff"/>
<g clip-path="url(#a)">
<defs>
<path id="aa" d="m9.8125 72.906h41.891v-8.3125h-32.031v-21.484h28.906v-8.2969h-28.906v-34.812h-9.8594z"/>
</defs>
<g transform="translate(183.42 479.01) rotate(-83.737) scale(.08 -.08)">
<use xlink:href="#aa"/>
</g>
</g>
<path d="m200.64 479.8 0.22096-6.1948q0.085548-2.3985-2.3129-2.484l-7.7376-0.27598q-2.3985-0.085548-2.484 2.3129l-0.22096 6.1948q-0.085548 2.3985 2.3129 2.484l7.7376 0.27598q2.3985 0.085548 2.484-2.3129z" clip-path="url(#a)" fill="#fff" stroke="#fff"/>
<g clip-path="url(#a)">
<defs>
<path id="ar" d="m59.516 10.406v19.578h-16.109v8.1094h25.875v-31.312q-5.7031-4.0469-12.594-6.125-6.875-2.0781-14.688-2.0781-17.094 0-26.75 9.9844-9.6406 10-9.6406 27.812 0 17.875 9.6406 27.859 9.6562 9.9844 26.75 9.9844 7.125 0 13.547-1.7656 6.4219-1.75 11.844-5.1719v-10.5q-5.4688 4.6406-11.625 6.9844t-12.938 2.3438q-13.391 0-20.109-7.4688-6.7031-7.4688-6.7031-22.266 0-14.75 6.7031-22.219 6.7188-7.4688 20.109-7.4688 5.2188 0 9.3125 0.90625 4.1094 0.90625 7.375 2.8125z"/>
</defs>
<g transform="translate(196.58 479.66) rotate(-87.957) scale(.08 -.08)">
<use xlink:href="#ar"/>
</g>
</g>
<path d="m202.56 474.36 0.22475 4.8185q0.11182 2.3974 2.5092 2.2856l7.7341-0.36074q2.3974-0.11182 2.2856-2.5092l-0.22475-4.8185q-0.11182-2.3974-2.5092-2.2856l-7.7341 0.36074q-2.3974 0.11182-2.2856 2.5092z" clip-path="url(#a)" fill="#fff" stroke="#fff"/>
<g clip-path="url(#a)">
<g transform="translate(206.62 474.17) rotate(87.33) scale(.08 -.08)">
<use xlink:href="#w"/>
</g>
</g>
<path d="m242.68 347.75 4.0361 3.6957q1.7701 1.6208 3.3908-0.14929l5.2287-5.7103q1.6208-1.7701-0.14929-3.3908l-4.0361-3.6957q-1.7701-1.6208-3.3908 0.14929l-5.2287 5.7103q-1.6208 1.7701 0.14929 3.3908z" clip-path="url(#a)" fill="#fff" stroke="#fff"/>
<g clip-path="url(#a)">
<g transform="translate(245.43 344.75) rotate(42.479) scale(.08 -.08)">
<use xlink:href="#p"/>
</g>
</g>
<path d="m546.25 678.24v33.808q0 2.4 2.4 2.4h7.7425q2.4 0 2.4-2.4v-33.808q0-2.4-2.4-2.4h-7.7425q-2.4 0-2.4 2.4z" clip-path="url(#a)" fill="#fff" stroke="#fff"/>
<g clip-path="url(#a)">
<g transform="translate(550.31 678.24) rotate(90) scale(.08 -.08)">
<use xlink:href="#l"/>
<use x="44.083984" xlink:href="#f"/>
<use x="105.607422" xlink:href="#k"/>
<use x="144.970703" xlink:href="#i"/>
<use x="242.382812" xlink:href="#h"/>
<use x="270.166016" xlink:href="#g"/>
<use x="333.544922" xlink:href="#d"/>
<use x="394.824219" xlink:href="#j"/>
</g>
</g>
<path d="m722.6 571.25 4.3339-3.3415q1.9007-1.4654 0.43521-3.3661l-4.7276-6.1316q-1.4654-1.9007-3.3661-0.43521l-4.3339 3.3415q-1.9007 1.4654-0.43521 3.3661l4.7276 6.1316q1.4654 1.9007 3.3661 0.43521z" clip-path="url(#a)" fill="#fff" stroke="#fff"/>
<g clip-path="url(#a)">
<g transform="translate(720.11 568.03) rotate(-37.633) scale(.08 -.08)">
<use xlink:href="#p"/>
</g>
</g>
<path d="m752.76 570.63 3.1978-3.3084q1.6679-1.7257-0.057736-3.3936l-5.5671-5.3809q-1.7257-1.6679-3.3936 0.057737l-3.1978 3.3084q-1.6679 1.7257 0.057736 3.3936l5.5671 5.3809q1.7257 1.6679 3.3936-0.057736z" clip-path="url(#a)" fill="#fff" stroke="#fff"/>
<g clip-path="url(#a)">
<g transform="translate(749.83 567.8) rotate(-45.975) scale(.08 -.08)">
<use xlink:href="#aa"/>
</g>
</g>
<path d="m783.91 570.54 3.2444-5.2364q1.264-2.0402-0.77612-3.3042l-6.5816-4.0778q-2.0402-1.264-3.3042 0.77612l-3.2444 5.2364q-1.264 2.0402 0.77612 3.3042l6.5816 4.0778q2.0402 1.264 3.3042-0.77612z" clip-path="url(#a)" fill="#fff" stroke="#fff"/>
<g clip-path="url(#a)">
<defs>
<path id="ah" d="m19.672 64.797v-56.688h11.922q15.094 0 22.094 6.8281 7 6.8438 7 21.594 0 14.641-7 21.453t-22.094 6.8125zm-9.8594 8.1094h20.266q21.188 0 31.094-8.8125 9.9219-8.8125 9.9219-27.562 0-18.859-9.9688-27.703-9.9531-8.8281-31.047-8.8281h-20.266z"/>
</defs>
<g transform="translate(780.46 568.4) rotate(-58.219) scale(.08 -.08)">
<use xlink:href="#ah"/>
</g>
</g>
<path d="m817.51 568.4 1.1415-4.4574q0.59541-2.325-1.7296-2.9204l-7.5005-1.9208q-2.325-0.59541-2.9204 1.7296l-1.1415 4.4574q-0.59541 2.325 1.7296 2.9204l7.5005 1.9208q2.325 0.59541 2.9204-1.7296z" clip-path="url(#a)" fill="#fff" stroke="#fff"/>
<g clip-path="url(#a)">
<g transform="translate(813.58 567.39) rotate(-75.636) scale(.08 -.08)">
<use xlink:href="#aa"/>
</g>
</g>
<path d="m838.74 562.99 0.5932 4.7871q0.29514 2.3818 2.6769 2.0866l7.6837-0.95214q2.3818-0.29514 2.0866-2.6769l-0.5932-4.7871q-0.29514-2.3818-2.6769-2.0866l-7.6837 0.95214q-2.3818 0.29514-2.0866 2.6769z" clip-path="url(#a)" fill="#fff" stroke="#fff"/>
<g clip-path="url(#a)">
<g transform="translate(842.77 562.49) rotate(82.936) scale(.08 -.08)">
<use xlink:href="#w"/>
</g>
</g>
<path d="m892.21 524.59 4.5052 3.1067q1.9758 1.3625 3.3382-0.61331l4.3954-6.3739q1.3625-1.9758-0.61332-3.3382l-4.5052-3.1067q-1.9758-1.3625-3.3382 0.61331l-4.3954 6.3739q-1.3625 1.9758 0.61332 3.3382z" clip-path="url(#a)" fill="#fff" stroke="#fff"/>
<g clip-path="url(#a)">
<g transform="translate(894.52 521.25) rotate(34.589) scale(.08 -.08)">
<use xlink:href="#p"/>
</g>
</g>
<path d="m1030.6 526.52 5.3457 1.1711q2.3444 0.5136 2.858-1.8308l1.6569-7.5631q0.5136-2.3444-1.8308-2.858l-5.3457-1.1711q-2.3444-0.5136-2.858 1.8308l-1.6569 7.5631q-0.5136 2.3444 1.8308 2.858z" clip-path="url(#a)" fill="#fff" stroke="#fff"/>
<g clip-path="url(#a)">
<g transform="translate(1031.5 522.55) rotate(12.357) scale(.08 -.08)">
<use xlink:href="#p"/>
</g>
</g>
<path d="m601.18 678.24v33.808q0 2.4 2.4 2.4h7.7425q2.4 0 2.4-2.4v-33.808q0-2.4-2.4-2.4h-7.7425q-2.4 0-2.4 2.4z" clip-path="url(#a)" fill="#fff" stroke="#fff"/>
<g clip-path="url(#a)">
<g transform="translate(605.24 678.24) rotate(90) scale(.08 -.08)">
<use xlink:href="#l"/>
<use x="44.083984" xlink:href="#f"/>
<use x="105.607422" xlink:href="#k"/>
<use x="144.970703" xlink:href="#i"/>
<use x="242.382812" xlink:href="#h"/>
<use x="270.166016" xlink:href="#g"/>
<use x="333.544922" xlink:href="#d"/>
<use x="394.824219" xlink:href="#j"/>
</g>
</g>
<path d="m659.01 678.24v33.808q0 2.4 2.4 2.4h7.7425q2.4 0 2.4-2.4v-33.808q0-2.4-2.4-2.4h-7.7425q-2.4 0-2.4 2.4z" clip-path="url(#a)" fill="#fff" stroke="#fff"/>
<g clip-path="url(#a)">
<g transform="translate(663.07 678.24) rotate(90) scale(.08 -.08)">
<use xlink:href="#l"/>
<use x="44.083984" xlink:href="#f"/>
<use x="105.607422" xlink:href="#k"/>
<use x="144.970703" xlink:href="#i"/>
<use x="242.382812" xlink:href="#h"/>
<use x="270.166016" xlink:href="#g"/>
<use x="333.544922" xlink:href="#d"/>
<use x="394.824219" xlink:href="#j"/>
</g>
</g>
<path d="m719.72 678.24v33.808q0 2.4 2.4 2.4h7.7425q2.4 0 2.4-2.4v-33.808q0-2.4-2.4-2.4h-7.7425q-2.4 0-2.4 2.4z" clip-path="url(#a)" fill="#fff" stroke="#fff"/>
<g clip-path="url(#a)">
<g transform="translate(723.79 678.24) rotate(90) scale(.08 -.08)">
<use xlink:href="#l"/>
<use x="44.083984" xlink:href="#f"/>
<use x="105.607422" xlink:href="#k"/>
<use x="144.970703" xlink:href="#i"/>
<use x="242.382812" xlink:href="#h"/>
<use x="270.166016" xlink:href="#g"/>
<use x="333.544922" xlink:href="#d"/>
<use x="394.824219" xlink:href="#j"/>
</g>
</g>
<path d="m783.33 678.24v33.808q0 2.4 2.4 2.4h7.7425q2.4 0 2.4-2.4v-33.808q0-2.4-2.4-2.4h-7.7425q-2.4 0-2.4 2.4z" clip-path="url(#a)" fill="#fff" stroke="#fff"/>
<g clip-path="url(#a)">
<g transform="translate(787.39 678.24) rotate(90) scale(.08 -.08)">
<use xlink:href="#l"/>
<use x="44.083984" xlink:href="#f"/>
<use x="105.607422" xlink:href="#k"/>
<use x="144.970703" xlink:href="#i"/>
<use x="242.382812" xlink:href="#h"/>
<use x="270.166016" xlink:href="#g"/>
<use x="333.544922" xlink:href="#d"/>
<use x="394.824219" xlink:href="#j"/>
</g>
</g>
<path d="m849.83 678.24v33.808q0 2.4 2.4 2.4h7.7425q2.4 0 2.4-2.4v-33.808q0-2.4-2.4-2.4h-7.7425q-2.4 0-2.4 2.4z" clip-path="url(#a)" fill="#fff" stroke="#fff"/>
<g clip-path="url(#a)">
<g transform="translate(853.89 678.24) rotate(90) scale(.08 -.08)">
<use xlink:href="#l"/>
<use x="44.083984" xlink:href="#f"/>
<use x="105.607422" xlink:href="#k"/>
<use x="144.970703" xlink:href="#i"/>
<use x="242.382812" xlink:href="#h"/>
<use x="270.166016" xlink:href="#g"/>
<use x="333.544922" xlink:href="#d"/>
<use x="394.824219" xlink:href="#j"/>
</g>
</g>
<path d="m948.39 613.21 1.9342-4.6703q0.91829-2.2174-1.2991-3.1357l-7.1533-2.9625q-2.2174-0.91829-3.1357 1.2991l-1.9342 4.6703q-0.91829 2.2174 1.2991 3.1357l7.1533 2.9624q2.2174 0.91829 3.1357-1.2991z" clip-path="url(#a)" fill="#fff" stroke="#fff"/>
<g clip-path="url(#a)">
<g transform="translate(944.63 611.66) rotate(-67.504) scale(.08 -.08)">
<use xlink:href="#ab"/>
</g>
</g>
<path d="m972.84 608.3 2.1374 5.1612q0.91829 2.2174 3.1357 1.2991l7.1533-2.9625q2.2174-0.91829 1.2991-3.1357l-2.1374-5.1612q-0.91829-2.2174-3.1357-1.2991l-7.1533 2.9625q-2.2174 0.91829-1.2991 3.1357z" clip-path="url(#a)" fill="#fff" stroke="#fff"/>
<g clip-path="url(#a)">
<g transform="translate(976.59 606.74) rotate(67.504) scale(.08 -.08)">
<use xlink:href="#ac"/>
</g>
</g>
<path d="m1154.4 615.32 4.8932-2.6374q2.1127-1.1387 0.97396-3.2514l-3.6735-6.8155q-1.1387-2.1127-3.2514-0.97396l-4.8932 2.6374q-2.1127 1.1387-0.97396 3.2514l3.6735 6.8155q1.1387 2.1127 3.2514 0.97396z" clip-path="url(#a)" fill="#fff" stroke="#fff"/>
<g clip-path="url(#a)">
<defs>
<path id="al" d="m44.391 34.188q3.1719-1.0781 6.1719-4.5938t6.0312-9.6719l10.016-19.922h-10.609l-9.3125 18.703q-3.625 7.3281-7.0156 9.7188t-9.25 2.3906h-10.75v-30.812h-9.8594v72.906h22.266q12.5 0 18.656-5.2344 6.1562-5.2188 6.1562-15.766 0-6.8906-3.2031-11.438-3.2031-4.5312-9.2969-6.2812zm-24.719 30.609v-25.875h12.406q7.125 0 10.766 3.2969t3.6406 9.6875-3.6406 9.6406-10.766 3.25z"/>
</defs>
<g transform="translate(1152.5 611.74) rotate(-28.324) scale(.08 -.08)">
<use xlink:href="#al"/>
</g>
</g>
<path d="m1195.7 614.65 3.5023-3.6452q1.6628-1.7306-0.06785-3.3934l-5.5831-5.3642q-1.7306-1.6628-3.3934 0.06785l-3.5023 3.6452q-1.6628 1.7306 0.06785 3.3934l5.5831 5.3642q1.7306 1.6628 3.3934-0.06785z" clip-path="url(#a)" fill="#fff" stroke="#fff"/>
<g clip-path="url(#a)">
<g transform="translate(1192.8 611.83) rotate(-46.145) scale(.08 -.08)">
<use xlink:href="#ab"/>
</g>
</g>
<path d="m1239.6 611.48 0.18498-5.5832q0.07947-2.3987-2.3192-2.4782l-7.7383-0.25638q-2.3987-0.079471-2.4782 2.3192l-0.18498 5.5832q-0.07947 2.3987 2.3192 2.4782l7.7383 0.25638q2.3987 0.07947 2.4782-2.3192z" clip-path="url(#a)" fill="#fff" stroke="#fff"/>
<g clip-path="url(#a)">
<g transform="translate(1235.5 611.34) rotate(-88.102) scale(.08 -.08)">
<use xlink:href="#ac"/>
</g>
</g>
<path d="m1268.7 610.6 3.9819 4.2924q1.6322 1.7595 3.3917 0.12728l5.6762-5.2656q1.7595-1.6322 0.12728-3.3917l-3.9819-4.2924q-1.6322-1.7595-3.3917-0.12728l-5.6762 5.2656q-1.7595 1.6322-0.12728 3.3917z" clip-path="url(#a)" fill="#fff" stroke="#fff"/>
<g clip-path="url(#a)">
<g transform="translate(1271.7 607.83) rotate(47.149) scale(.08 -.08)">
<use xlink:href="#v"/>
</g>
</g>
<path d="m1313.2 612.69 5.1938 2.7029q2.129 1.1079 3.2369-1.021l3.5742-6.8681q1.1079-2.129-1.021-3.2369l-5.1938-2.7029q-2.129-1.1079-3.2369 1.021l-3.5742 6.8681q-1.1079 2.129 1.021 3.2369z" clip-path="url(#a)" fill="#fff" stroke="#fff"/>
<g clip-path="url(#a)">
<g transform="translate(1315.1 609.08) rotate(27.493) scale(.08 -.08)">
<use xlink:href="#v"/>
</g>
</g>
<path d="m1066.7 678.24v33.808q0 2.4 2.4 2.4h7.7425q2.4 0 2.4-2.4v-33.808q0-2.4-2.4-2.4h-7.7425q-2.4 0-2.4 2.4z" clip-path="url(#a)" fill="#fff" stroke="#fff"/>
<g clip-path="url(#a)">
<g transform="translate(1070.7 678.24) rotate(90) scale(.08 -.08)">
<use xlink:href="#l"/>
<use x="44.083984" xlink:href="#f"/>
<use x="105.607422" xlink:href="#k"/>
<use x="144.970703" xlink:href="#i"/>
<use x="242.382812" xlink:href="#h"/>
<use x="270.166016" xlink:href="#g"/>
<use x="333.544922" xlink:href="#d"/>
<use x="394.824219" xlink:href="#j"/>
</g>
</g>
<path d="m1144.7 678.24v33.808q0 2.4 2.4 2.4h7.7425q2.4 0 2.4-2.4v-33.808q0-2.4-2.4-2.4h-7.7425q-2.4 0-2.4 2.4z" clip-path="url(#a)" fill="#fff" stroke="#fff"/>
<g clip-path="url(#a)">
<g transform="translate(1148.8 678.24) rotate(90) scale(.08 -.08)">
<use xlink:href="#l"/>
<use x="44.083984" xlink:href="#f"/>
<use x="105.607422" xlink:href="#k"/>
<use x="144.970703" xlink:href="#i"/>
<use x="242.382812" xlink:href="#h"/>
<use x="270.166016" xlink:href="#g"/>
<use x="333.544922" xlink:href="#d"/>
<use x="394.824219" xlink:href="#j"/>
</g>
</g>
<path d="m1225.7 678.24v33.808q0 2.4 2.4 2.4h7.7425q2.4 0 2.4-2.4v-33.808q0-2.4-2.4-2.4h-7.7425q-2.4 0-2.4 2.4z" clip-path="url(#a)" fill="#fff" stroke="#fff"/>
<g clip-path="url(#a)">
<g transform="translate(1229.8 678.24) rotate(90) scale(.08 -.08)">
<use xlink:href="#l"/>
<use x="44.083984" xlink:href="#f"/>
<use x="105.607422" xlink:href="#k"/>
<use x="144.970703" xlink:href="#i"/>
<use x="242.382812" xlink:href="#h"/>
<use x="270.166016" xlink:href="#g"/>
<use x="333.544922" xlink:href="#d"/>
<use x="394.824219" xlink:href="#j"/>
</g>
</g>
<path d="m919.22 678.24v33.808q0 2.4 2.4 2.4h7.7425q2.4 0 2.4-2.4v-33.808q0-2.4-2.4-2.4h-7.7425q-2.4 0-2.4 2.4z" clip-path="url(#a)" fill="#fff" stroke="#fff"/>
<g clip-path="url(#a)">
<g transform="translate(923.28 678.24) rotate(90) scale(.08 -.08)">
<use xlink:href="#l"/>
<use x="44.083984" xlink:href="#f"/>
<use x="105.607422" xlink:href="#k"/>
<use x="144.970703" xlink:href="#i"/>
<use x="242.382812" xlink:href="#h"/>
<use x="270.166016" xlink:href="#g"/>
<use x="333.544922" xlink:href="#d"/>
<use x="394.824219" xlink:href="#j"/>
</g>
</g>
<path d="m991.5 678.24v33.808q0 2.4 2.4 2.4h7.7425q2.4 0 2.4-2.4v-33.808q0-2.4-2.4-2.4h-7.7425q-2.4 0-2.4 2.4z" clip-path="url(#a)" fill="#fff" stroke="#fff"/>
<g clip-path="url(#a)">
<g transform="translate(995.56 678.24) rotate(90) scale(.08 -.08)">
<use xlink:href="#l"/>
<use x="44.083984" xlink:href="#f"/>
<use x="105.607422" xlink:href="#k"/>
<use x="144.970703" xlink:href="#i"/>
<use x="242.382812" xlink:href="#h"/>
<use x="270.166016" xlink:href="#g"/>
<use x="333.544922" xlink:href="#d"/>
<use x="394.824219" xlink:href="#j"/>
</g>
</g>
<path d="m132.8 678.24v33.808q0 2.4 2.4 2.4h7.7425q2.4 0 2.4-2.4v-33.808q0-2.4-2.4-2.4h-7.7425q-2.4 0-2.4 2.4z" clip-path="url(#a)" fill="#fff" stroke="#fff"/>
<g clip-path="url(#a)">
<g transform="translate(136.86 678.24) rotate(90) scale(.08 -.08)">
<use xlink:href="#l"/>
<use x="44.083984" xlink:href="#f"/>
<use x="105.607422" xlink:href="#k"/>
<use x="144.970703" xlink:href="#i"/>
<use x="242.382812" xlink:href="#h"/>
<use x="270.166016" xlink:href="#g"/>
<use x="333.544922" xlink:href="#d"/>
<use x="394.824219" xlink:href="#j"/>
</g>
</g>
<path d="m155.93 678.24v33.808q0 2.4 2.4 2.4h7.7425q2.4 0 2.4-2.4v-33.808q0-2.4-2.4-2.4h-7.7425q-2.4 0-2.4 2.4z" clip-path="url(#a)" fill="#fff" stroke="#fff"/>
<g clip-path="url(#a)">
<g transform="translate(159.99 678.24) rotate(90) scale(.08 -.08)">
<use xlink:href="#l"/>
<use x="44.083984" xlink:href="#f"/>
<use x="105.607422" xlink:href="#k"/>
<use x="144.970703" xlink:href="#i"/>
<use x="242.382812" xlink:href="#h"/>
<use x="270.166016" xlink:href="#g"/>
<use x="333.544922" xlink:href="#d"/>
<use x="394.824219" xlink:href="#j"/>
</g>
</g>
<path d="m181.95 678.24v33.808q0 2.4 2.4 2.4h7.7425q2.4 0 2.4-2.4v-33.808q0-2.4-2.4-2.4h-7.7425q-2.4 0-2.4 2.4z" clip-path="url(#a)" fill="#fff" stroke="#fff"/>
<g clip-path="url(#a)">
<g transform="translate(186.01 678.24) rotate(90) scale(.08 -.08)">
<use xlink:href="#l"/>
<use x="44.083984" xlink:href="#f"/>
<use x="105.607422" xlink:href="#k"/>
<use x="144.970703" xlink:href="#i"/>
<use x="242.382812" xlink:href="#h"/>
<use x="270.166016" xlink:href="#g"/>
<use x="333.544922" xlink:href="#d"/>
<use x="394.824219" xlink:href="#j"/>
</g>
</g>
<path d="m210.86 678.24v33.808q0 2.4 2.4 2.4h7.7425q2.4 0 2.4-2.4v-33.808q0-2.4-2.4-2.4h-7.7425q-2.4 0-2.4 2.4z" clip-path="url(#a)" fill="#fff" stroke="#fff"/>
<g clip-path="url(#a)">
<g transform="translate(214.93 678.24) rotate(90) scale(.08 -.08)">
<use xlink:href="#l"/>
<use x="44.083984" xlink:href="#f"/>
<use x="105.607422" xlink:href="#k"/>
<use x="144.970703" xlink:href="#i"/>
<use x="242.382812" xlink:href="#h"/>
<use x="270.166016" xlink:href="#g"/>
<use x="333.544922" xlink:href="#d"/>
<use x="394.824219" xlink:href="#j"/>
</g>
</g>
<path d="m278.7 524.48 1.0067-5.4948q0.43251-2.3607-1.9282-2.7932l-7.6157-1.3953q-2.3607-0.43251-2.7932 1.9282l-1.0067 5.4948q-0.43251 2.3607 1.9282 2.7932l7.6157 1.3953q2.3607 0.43251 2.7932-1.9282z" clip-path="url(#a)" fill="#fff" stroke="#fff"/>
<g clip-path="url(#a)">
<g transform="translate(274.7 523.75) rotate(-79.618) scale(.08 -.08)">
<use xlink:href="#ac"/>
</g>
</g>
<path d="m314.5 433.9 2.4274 4.4341q1.1525 2.1052 3.2577 0.95273l6.7914-3.7179q2.1052-1.1525 0.95273-3.2577l-2.4274-4.4341q-1.1525-2.1052-3.2577-0.95273l-6.7914 3.7179q-2.1052 1.1525-0.95273 3.2577z" clip-path="url(#a)" fill="#fff" stroke="#fff"/>
<g clip-path="url(#a)">
<g transform="translate(318.07 431.95) rotate(61.302) scale(.08 -.08)">
<use xlink:href="#ab"/>
</g>
</g>
<path d="m242.67 678.24v33.808q0 2.4 2.4 2.4h7.7425q2.4 0 2.4-2.4v-33.808q0-2.4-2.4-2.4h-7.7425q-2.4 0-2.4 2.4z" clip-path="url(#a)" fill="#fff" stroke="#fff"/>
<g clip-path="url(#a)">
<g transform="translate(246.73 678.24) rotate(90) scale(.08 -.08)">
<use xlink:href="#l"/>
<use x="44.083984" xlink:href="#f"/>
<use x="105.607422" xlink:href="#k"/>
<use x="144.970703" xlink:href="#i"/>
<use x="242.382812" xlink:href="#h"/>
<use x="270.166016" xlink:href="#g"/>
<use x="333.544922" xlink:href="#d"/>
<use x="394.824219" xlink:href="#j"/>
</g>
</g>
<path d="m301.3 570.04 2.64-4.7936q1.1578-2.1023-0.94447-3.2601l-6.782-3.7351q-2.1023-1.1578-3.2601 0.94447l-2.64 4.7936q-1.1578 2.1023 0.94447 3.2601l6.782 3.7351q2.1023 1.1578 3.2601-0.94447z" clip-path="url(#a)" fill="#fff" stroke="#fff"/>
<g clip-path="url(#a)">
<g transform="translate(297.74 568.08) rotate(-61.157) scale(.08 -.08)">
<use xlink:href="#p"/>
</g>
</g>
<path d="m319.46 569.32 1.8479-5.2426q0.79782-2.2635-1.4657-3.0613l-7.3022-2.5738q-2.2635-0.79782-3.0613 1.4657l-1.8479 5.2426q-0.79782 2.2635 1.4657 3.0613l7.3022 2.5738q2.2635 0.79782 3.0613-1.4657z" clip-path="url(#a)" fill="#fff" stroke="#fff"/>
<g clip-path="url(#a)">
<g transform="translate(315.63 567.97) rotate(-70.584) scale(.08 -.08)">
<use xlink:href="#al"/>
</g>
</g>
<path d="m339.06 568.52 0.84021-6.1024q0.32735-2.3776-2.0502-2.7049l-7.6701-1.0561q-2.3776-0.32735-2.7049 2.0502l-0.84021 6.1024q-0.32735 2.3776 2.0502 2.7049l7.6701 1.0561q2.3776 0.32735 2.7049-2.0502z" clip-path="url(#a)" fill="#fff" stroke="#fff"/>
<g clip-path="url(#a)">
<g transform="translate(335.03 567.97) rotate(-82.161) scale(.08 -.08)">
<use xlink:href="#ah"/>
</g>
</g>
<path d="m347.05 562.91 0.42892 4.5812q0.22372 2.3895 2.6133 2.1658l7.7088-0.72174q2.3895-0.22372 2.1658-2.6133l-0.42892-4.5812q-0.22372-2.3896-2.6133-2.1658l-7.7088 0.72174q-2.3896 0.22372-2.1658 2.6133z" clip-path="url(#a)" fill="#fff" stroke="#fff"/>
<g clip-path="url(#a)">
<g transform="translate(351.09 562.53) rotate(84.651) scale(.08 -.08)">
<use xlink:href="#aa"/>
</g>
</g>
<path d="m368.47 564.36 1.5587 4.565q0.77553 2.2712 3.0468 1.4957l7.3271-2.5019q2.2712-0.77553 1.4957-3.0468l-1.5587-4.565q-0.77553-2.2712-3.0468-1.4957l-7.3271 2.5019q-2.2712 0.77553-1.4957 3.0468z" clip-path="url(#a)" fill="#fff" stroke="#fff"/>
<g clip-path="url(#a)">
<g transform="translate(372.32 563.05) rotate(71.147) scale(.08 -.08)">
<use xlink:href="#w"/>
</g>
</g>
<path d="m392.21 524.07 4.2162 3.4889q1.849 1.5301 3.3791-0.31896l4.9361-5.965q1.5301-1.849-0.31896-3.3791l-4.2162-3.4889q-1.849-1.5301-3.3791 0.31896l-4.9361 5.965q-1.5301 1.849 0.31896 3.3791z" clip-path="url(#a)" fill="#fff" stroke="#fff"/>
<g clip-path="url(#a)">
<g transform="translate(394.8 520.94) rotate(39.608) scale(.08 -.08)">
<use xlink:href="#p"/>
</g>
</g>
<path d="m277.36 678.24v33.808q0 2.4 2.4 2.4h7.7425q2.4 0 2.4-2.4v-33.808q0-2.4-2.4-2.4h-7.7425q-2.4 0-2.4 2.4z" clip-path="url(#a)" fill="#fff" stroke="#fff"/>
<g clip-path="url(#a)">
<g transform="translate(281.42 678.24) rotate(90) scale(.08 -.08)">
<use xlink:href="#l"/>
<use x="44.083984" xlink:href="#f"/>
<use x="105.607422" xlink:href="#k"/>
<use x="144.970703" xlink:href="#i"/>
<use x="242.382812" xlink:href="#h"/>
<use x="270.166016" xlink:href="#g"/>
<use x="333.544922" xlink:href="#d"/>
<use x="394.824219" xlink:href="#j"/>
</g>
</g>
<path d="m314.95 678.24v33.808q0 2.4 2.4 2.4h7.7425q2.4 0 2.4-2.4v-33.808q0-2.4-2.4-2.4h-7.7425q-2.4 0-2.4 2.4z" clip-path="url(#a)" fill="#fff" stroke="#fff"/>
<g clip-path="url(#a)">
<g transform="translate(319.01 678.24) rotate(90) scale(.08 -.08)">
<use xlink:href="#l"/>
<use x="44.083984" xlink:href="#f"/>
<use x="105.607422" xlink:href="#k"/>
<use x="144.970703" xlink:href="#i"/>
<use x="242.382812" xlink:href="#h"/>
<use x="270.166016" xlink:href="#g"/>
<use x="333.544922" xlink:href="#d"/>
<use x="394.824219" xlink:href="#j"/>
</g>
</g>
<path d="m355.42 678.24v33.808q0 2.4 2.4 2.4h7.7425q2.4 0 2.4-2.4v-33.808q0-2.4-2.4-2.4h-7.7425q-2.4 0-2.4 2.4z" clip-path="url(#a)" fill="#fff" stroke="#fff"/>
<g clip-path="url(#a)">
<g transform="translate(359.49 678.24) rotate(90) scale(.08 -.08)">
<use xlink:href="#l"/>
<use x="44.083984" xlink:href="#f"/>
<use x="105.607422" xlink:href="#k"/>
<use x="144.970703" xlink:href="#i"/>
<use x="242.382812" xlink:href="#h"/>
<use x="270.166016" xlink:href="#g"/>
<use x="333.544922" xlink:href="#d"/>
<use x="394.824219" xlink:href="#j"/>
</g>
</g>
<path d="m398.79 678.24v33.808q0 2.4 2.4 2.4h7.7425q2.4 0 2.4-2.4v-33.808q0-2.4-2.4-2.4h-7.7425q-2.4 0-2.4 2.4z" clip-path="url(#a)" fill="#fff" stroke="#fff"/>
<g clip-path="url(#a)">
<g transform="translate(402.86 678.24) rotate(90) scale(.08 -.08)">
<use xlink:href="#l"/>
<use x="44.083984" xlink:href="#f"/>
<use x="105.607422" xlink:href="#k"/>
<use x="144.970703" xlink:href="#i"/>
<use x="242.382812" xlink:href="#h"/>
<use x="270.166016" xlink:href="#g"/>
<use x="333.544922" xlink:href="#d"/>
<use x="394.824219" xlink:href="#j"/>
</g>
</g>
<path d="m445.05 606.07v4.8238q0 2.4 2.4 2.4h7.7425q2.4 0 2.4-2.4v-4.8238q0-2.4-2.4-2.4h-7.7425q-2.4 0-2.4 2.4z" clip-path="url(#a)" fill="#fff" stroke="#fff"/>
<g clip-path="url(#a)">
<g transform="translate(449.12 606.07) rotate(90) scale(.08 -.08)">
<use xlink:href="#w"/>
</g>
</g>
<path d="m445.05 678.24v33.808q0 2.4 2.4 2.4h7.7425q2.4 0 2.4-2.4v-33.808q0-2.4-2.4-2.4h-7.7425q-2.4 0-2.4 2.4z" clip-path="url(#a)" fill="#fff" stroke="#fff"/>
<g clip-path="url(#a)">
<g transform="translate(449.12 678.24) rotate(90) scale(.08 -.08)">
<use xlink:href="#l"/>
<use x="44.083984" xlink:href="#f"/>
<use x="105.607422" xlink:href="#k"/>
<use x="144.970703" xlink:href="#i"/>
<use x="242.382812" xlink:href="#h"/>
<use x="270.166016" xlink:href="#g"/>
<use x="333.544922" xlink:href="#d"/>
<use x="394.824219" xlink:href="#j"/>
</g>
</g>
<path d="m60.517 678.24v33.808q0 2.4 2.4 2.4h7.7425q2.4 0 2.4-2.4v-33.808q0-2.4-2.4-2.4h-7.7425q-2.4 0-2.4 2.4z" clip-path="url(#a)" fill="#fff" stroke="#fff"/>
<g clip-path="url(#a)">
<g transform="translate(64.58 678.24) rotate(90) scale(.08 -.08)">
<use xlink:href="#l"/>
<use x="44.083984" xlink:href="#f"/>
<use x="105.607422" xlink:href="#k"/>
<use x="144.970703" xlink:href="#i"/>
<use x="242.382812" xlink:href="#h"/>
<use x="270.166016" xlink:href="#g"/>
<use x="333.544922" xlink:href="#d"/>
<use x="394.824219" xlink:href="#j"/>
</g>
</g>
<path d="m69.19 678.24v33.808q0 2.4 2.4 2.4h7.7425q2.4 0 2.4-2.4v-33.808q0-2.4-2.4-2.4h-7.7425q-2.4 0-2.4 2.4z" clip-path="url(#a)" fill="#fff" stroke="#fff"/>
<g clip-path="url(#a)">
<g transform="translate(73.254 678.24) rotate(90) scale(.08 -.08)">
<use xlink:href="#l"/>
<use x="44.083984" xlink:href="#f"/>
<use x="105.607422" xlink:href="#k"/>
<use x="144.970703" xlink:href="#i"/>
<use x="242.382812" xlink:href="#h"/>
<use x="270.166016" xlink:href="#g"/>
<use x="333.544922" xlink:href="#d"/>
<use x="394.824219" xlink:href="#j"/>
</g>
</g>
<path d="m95.212 678.24v33.808q0 2.4 2.4 2.4h7.7425q2.4 0 2.4-2.4v-33.808q0-2.4-2.4-2.4h-7.7425q-2.4 0-2.4 2.4z" clip-path="url(#a)" fill="#fff" stroke="#fff"/>
<g clip-path="url(#a)">
<g transform="translate(99.275 678.24) rotate(90) scale(.08 -.08)">
<use xlink:href="#l"/>
<use x="44.083984" xlink:href="#f"/>
<use x="105.607422" xlink:href="#k"/>
<use x="144.970703" xlink:href="#i"/>
<use x="242.382812" xlink:href="#h"/>
<use x="270.166016" xlink:href="#g"/>
<use x="333.544922" xlink:href="#d"/>
<use x="394.824219" xlink:href="#j"/>
</g>
</g>
<path d="m112.56 678.24v33.808q0 2.4 2.4 2.4h7.7425q2.4 0 2.4-2.4v-33.808q0-2.4-2.4-2.4h-7.7425q-2.4 0-2.4 2.4z" clip-path="url(#a)" fill="#fff" stroke="#fff"/>
<g clip-path="url(#a)">
<g transform="translate(116.62 678.24) rotate(90) scale(.08 -.08)">
<use xlink:href="#l"/>
<use x="44.083984" xlink:href="#f"/>
<use x="105.607422" xlink:href="#k"/>
<use x="144.970703" xlink:href="#i"/>
<use x="242.382812" xlink:href="#h"/>
<use x="270.166016" xlink:href="#g"/>
<use x="333.544922" xlink:href="#d"/>
<use x="394.824219" xlink:href="#j"/>
</g>
</g>
<path d="m494.2 678.24v33.808q0 2.4 2.4 2.4h7.7425q2.4 0 2.4-2.4v-33.808q0-2.4-2.4-2.4h-7.7425q-2.4 0-2.4 2.4z" clip-path="url(#a)" fill="#fff" stroke="#fff"/>
<g clip-path="url(#a)">
<g transform="translate(498.27 678.24) rotate(90) scale(.08 -.08)">
<use xlink:href="#l"/>
<use x="44.083984" xlink:href="#f"/>
<use x="105.607422" xlink:href="#k"/>
<use x="144.970703" xlink:href="#i"/>
<use x="242.382812" xlink:href="#h"/>
<use x="270.166016" xlink:href="#g"/>
<use x="333.544922" xlink:href="#d"/>
<use x="394.824219" xlink:href="#j"/>
</g>
</g>
<path d="m1309.5 678.24v33.808q0 2.4 2.4 2.4h7.7425q2.4 0 2.4-2.4v-33.808q0-2.4-2.4-2.4h-7.7425q-2.4 0-2.4 2.4z" clip-path="url(#a)" fill="#fff" stroke="#fff"/>
<g clip-path="url(#a)">
<g transform="translate(1313.6 678.24) rotate(90) scale(.08 -.08)">
<use xlink:href="#l"/>
<use x="44.083984" xlink:href="#f"/>
<use x="105.607422" xlink:href="#k"/>
<use x="144.970703" xlink:href="#i"/>
<use x="242.382812" xlink:href="#h"/>
<use x="270.166016" xlink:href="#g"/>
<use x="333.544922" xlink:href="#d"/>
<use x="394.824219" xlink:href="#j"/>
</g>
</g>
<path d="m1396.3 678.24v33.808q0 2.4 2.4 2.4h7.7425q2.4 0 2.4-2.4v-33.808q0-2.4-2.4-2.4h-7.7425q-2.4 0-2.4 2.4z" clip-path="url(#a)" fill="#fff" stroke="#fff"/>
<g clip-path="url(#a)">
<g transform="translate(1400.3 678.24) rotate(90) scale(.08 -.08)">
<use xlink:href="#l"/>
<use x="44.083984" xlink:href="#f"/>
<use x="105.607422" xlink:href="#k"/>
<use x="144.970703" xlink:href="#i"/>
<use x="242.382812" xlink:href="#h"/>
<use x="270.166016" xlink:href="#g"/>
<use x="333.544922" xlink:href="#d"/>
<use x="394.824219" xlink:href="#j"/>
</g>
</g>
<defs>
<path id="b" d="m0 8.6603c2.2967 0 4.4997-0.9125 6.1237-2.5365 1.624-1.624 2.5365-3.827 2.5365-6.1237s-0.9125-4.4997-2.5365-6.1237c-1.624-1.624-3.827-2.5365-6.1237-2.5365s-4.4997 0.9125-6.1237 2.5365c-1.624 1.624-2.5365 3.827-2.5365 6.1237s0.9125 4.4997 2.5365 6.1237c1.624 1.624 3.827 2.5365 6.1237 2.5365z"/>
</defs>
<g clip-path="url(#a)" fill="#ffffff" stroke="#ffffff">
<use x="66.787879" y="738.181818" xlink:href="#b"/>
<use x="75.461629" y="738.181818" xlink:href="#b"/>
<use x="87.02663" y="738.181818" xlink:href="#b"/>
<use x="101.482881" y="738.181818" xlink:href="#b"/>
<use x="118.830382" y="738.181818" xlink:href="#b"/>
<use x="139.069133" y="738.181818" xlink:href="#b"/>
<use x="162.199134" y="738.181818" xlink:href="#b"/>
<use x="188.220386" y="738.181818" xlink:href="#b"/>
<use x="217.132887" y="738.181818" xlink:href="#b"/>
<use x="248.936639" y="738.181818" xlink:href="#b"/>
<use x="283.631641" y="738.181818" xlink:href="#b"/>
<use x="321.217893" y="738.181818" xlink:href="#b"/>
<use x="361.695396" y="738.181818" xlink:href="#b"/>
<use x="405.064148" y="738.181818" xlink:href="#b"/>
<use x="451.324151" y="738.181818" xlink:href="#b"/>
<use x="500.475403" y="738.181818" xlink:href="#b"/>
<use x="552.517906" y="738.181818" xlink:href="#b"/>
<use x="607.451659" y="738.181818" xlink:href="#b"/>
<use x="665.276663" y="738.181818" xlink:href="#b"/>
<use x="725.992916" y="738.181818" xlink:href="#b"/>
<use x="789.60042" y="738.181818" xlink:href="#b"/>
<use x="856.099174" y="738.181818" xlink:href="#b"/>
<use x="925.489177" y="738.181818" xlink:href="#b"/>
<use x="997.770432" y="738.181818" xlink:href="#b"/>
<use x="1072.942936" y="738.181818" xlink:href="#b"/>
<use x="1151.00669" y="738.181818" xlink:href="#b"/>
<use x="1231.961695" y="738.181818" xlink:href="#b"/>
<use x="1315.80795" y="738.181818" xlink:href="#b"/>
<use x="1402.545455" y="738.181818" xlink:href="#b"/>
<use x="180.100791" y="35.151515" xlink:href="#b"/>
<use x="180.100791" y="123.851175" xlink:href="#b"/>
<use x="71.124754" y="564.843949" xlink:href="#b"/>
<use x="87.02663" y="652.11155" xlink:href="#b"/>
<use x="522.039311" y="212.42378" xlink:href="#b"/>
<use x="200.749136" y="300.848201" xlink:href="#b"/>
<use x="552.517906" y="652.11155" xlink:href="#b"/>
<use x="834.414797" y="477.118637" xlink:href="#b"/>
<use x="607.451659" y="652.11155" xlink:href="#b"/>
<use x="665.276663" y="652.11155" xlink:href="#b"/>
<use x="725.992916" y="652.11155" xlink:href="#b"/>
<use x="789.60042" y="652.11155" xlink:href="#b"/>
<use x="856.099174" y="652.11155" xlink:href="#b"/>
<use x="961.629805" y="564.843949" xlink:href="#b"/>
<use x="1234.852945" y="564.843949" xlink:href="#b"/>
<use x="1072.942936" y="652.11155" xlink:href="#b"/>
<use x="1151.00669" y="652.11155" xlink:href="#b"/>
<use x="1231.961695" y="652.11155" xlink:href="#b"/>
<use x="925.489177" y="652.11155" xlink:href="#b"/>
<use x="997.770432" y="652.11155" xlink:href="#b"/>
<use x="139.069133" y="652.11155" xlink:href="#b"/>
<use x="162.199134" y="652.11155" xlink:href="#b"/>
<use x="188.220386" y="652.11155" xlink:href="#b"/>
<use x="217.132887" y="652.11155" xlink:href="#b"/>
<use x="297.124142" y="389.094759" xlink:href="#b"/>
<use x="248.936639" y="652.11155" xlink:href="#b"/>
<use x="345.311645" y="477.118637" xlink:href="#b"/>
<use x="283.631641" y="652.11155" xlink:href="#b"/>
<use x="321.217893" y="652.11155" xlink:href="#b"/>
<use x="361.695396" y="652.11155" xlink:href="#b"/>
<use x="405.064148" y="652.11155" xlink:href="#b"/>
<use x="451.324151" y="564.843949" xlink:href="#b"/>
<use x="451.324151" y="652.11155" xlink:href="#b"/>
<use x="66.787879" y="652.11155" xlink:href="#b"/>
<use x="75.461629" y="652.11155" xlink:href="#b"/>
<use x="101.482881" y="652.11155" xlink:href="#b"/>
<use x="118.830382" y="652.11155" xlink:href="#b"/>
<use x="500.475403" y="652.11155" xlink:href="#b"/>
<use x="1315.80795" y="652.11155" xlink:href="#b"/>
<use x="1402.545455" y="652.11155" xlink:href="#b"/>
</g>
<g clip-path="url(#a)">
<defs>
<path id="ap" d="m28.609 0-27.828 72.906h10.297l23.109-61.375 23.141 61.375h10.25l-27.781-72.906z"/>
<path id="q" d="m18.312 70.219v-15.531h18.5v-6.9844h-18.5v-29.688q0-6.6875 1.8281-8.5938t7.4531-1.9062h9.2188v-7.5156h-9.2188q-10.406 0-14.359 3.875-3.9531 3.8906-3.9531 14.141v29.688h-6.5938v6.9844h6.5938v15.531z"/>
<path id="ak" d="m32.172-5.0781q-3.7969-9.7656-7.4219-12.734-3.6094-2.9844-9.6562-2.9844h-7.1875v7.5156h5.2812q3.7031 0 5.75 1.7656 2.0625 1.75 4.5469 8.2969l1.6094 4.0938-22.109 53.812h9.5156l17.094-42.766 17.094 42.766h9.5156z"/>
</defs>
<g transform="translate(49.25 740.94) scale(.1 -.1)">
<use xlink:href="#ap"/>
<use x="60.658203" xlink:href="#d"/>
<use x="121.9375" xlink:href="#k"/>
<use x="163.050781" xlink:href="#h"/>
<use x="190.833984" xlink:href="#f"/>
<use x="252.357422" xlink:href="#q"/>
<use x="291.566406" xlink:href="#ak"/>
</g>
</g>
<g clip-path="url(#a)">
<defs>
<path id="s" d="m45.406 27.984q0 9.7656-4.0312 15.125-4.0156 5.375-11.297 5.375-7.2188 0-11.25-5.375-4.0312-5.3594-4.0312-15.125 0-9.7188 4.0312-15.094t11.25-5.375q7.2812 0 11.297 5.375 4.0312 5.375 4.0312 15.094zm8.9844-21.203q0-13.953-6.2031-20.766-6.1875-6.8125-18.984-6.8125-4.7344 0-8.9375 0.70312t-8.1562 2.1719v8.7344q3.9531-2.1406 7.8125-3.1562 3.8594-1.0312 7.8594-1.0312 8.8438 0 13.234 4.6094t4.3906 13.938v4.4531q-2.7812-4.8438-7.125-7.2344t-10.406-2.3906q-10.047 0-16.203 7.6562-6.1562 7.6719-6.1562 20.328 0 12.688 6.1562 20.344 6.1562 7.6719 16.203 7.6719 6.0625 0 10.406-2.3906t7.125-7.2188v8.2969h8.9844z"/>
<path id="at" d="m5.5156 54.688h42.672v-8.2031l-33.781-39.312h33.781v-7.1719h-43.891v8.2031l33.797 39.312h-32.578z"/>
</defs>
<g transform="translate(51.03 740.94) scale(.1 -.1)">
<use xlink:href="#i"/>
<use x="97.412109" xlink:href="#d"/>
<use x="158.691406" xlink:href="#s"/>
<use x="222.167969" xlink:href="#d"/>
<use x="283.447266" xlink:href="#at"/>
<use x="335.9375" xlink:href="#h"/>
<use x="363.720703" xlink:href="#g"/>
<use x="427.099609" xlink:href="#f"/>
</g>
</g>
<g clip-path="url(#a)">
<defs>
<path id="an" d="m4.2031 54.688h8.9844l11.234-42.672 11.172 42.672h10.594l11.234-42.672 11.188 42.672h8.9844l-14.312-54.688h-10.594l-11.766 44.828-11.812-44.828h-10.609z"/>
<path id="r" d="m30.609 48.391q-7.2188 0-11.422-5.6406t-4.2031-15.453 4.1719-15.453q4.1875-5.6406 11.453-5.6406 7.1875 0 11.375 5.6562 4.2031 5.6719 4.2031 15.438 0 9.7188-4.2031 15.406-4.1875 5.6875-11.375 5.6875zm0 7.6094q11.719 0 18.406-7.625 6.7031-7.6094 6.7031-21.078 0-13.422-6.7031-21.078-6.6875-7.6406-18.406-7.6406-11.766 0-18.438 7.6406-6.6562 7.6562-6.6562 21.078 0 13.469 6.6562 21.078 6.6719 7.625 18.438 7.625z"/>
</defs>
<g transform="translate(72.899 740.94) scale(.1 -.1)">
<use xlink:href="#an"/>
<use x="81.787109" xlink:href="#k"/>
<use x="120.650391" xlink:href="#r"/>
<use x="181.832031" xlink:href="#q"/>
<use x="221.041016" xlink:href="#f"/>
</g>
</g>
<g clip-path="url(#a)">
<defs>
<path id="as" d="m11.719 12.406h10.297v-8.4062l-8-15.625h-6.2969l4 15.625z"/>
</defs>
<g transform="translate(99.894 740.94) scale(.1 -.1)">
<use xlink:href="#as"/>
</g>
</g>
<g clip-path="url(#a)">
<defs>
<path id="am" d="m17.922 72.906v-27.109h-8.2969v27.109zm18.453 0v-27.109h-8.2969v27.109z"/>
</defs>
<g transform="translate(116.53 740.94) scale(.1 -.1)">
<use xlink:href="#am"/>
</g>
</g>
<g clip-path="url(#a)">
<g transform="translate(124.64 740.94) scale(.1 -.1)">
<use xlink:href="#ah"/>
<use x="77.001953" xlink:href="#ak"/>
<use x="136.181641" xlink:href="#j"/>
<use x="163.964844" xlink:href="#d"/>
<use x="225.244141" xlink:href="#g"/>
</g>
</g>
<g clip-path="url(#a)">
<defs>
<path id="y" d="m44.281 53.078v-8.5q-3.7969 1.9531-7.9062 2.9219-4.0938 0.98438-8.5 0.98438-6.6875 0-10.031-2.0469t-3.3438-6.1562q0-3.125 2.3906-4.9062t9.625-3.3906l3.0781-0.6875q9.5625-2.0469 13.594-5.7812t4.0312-10.422q0-7.625-6.0312-12.078-6.0312-4.4375-16.578-4.4375-4.3906 0-9.1562 0.85938t-10.031 2.5625v9.2812q4.9844-2.5938 9.8125-3.8906 4.8281-1.2812 9.5781-1.2812 6.3438 0 9.75 2.1719 3.4219 2.1719 3.4219 6.125 0 3.6562-2.4688 5.6094-2.4531 1.9531-10.812 3.7656l-3.125 0.73438q-8.3438 1.75-12.062 5.3906-3.7031 3.6406-3.7031 9.9844 0 7.7188 5.4688 11.906 5.4688 4.2031 15.531 4.2031 4.9688 0 9.3594-0.73438 4.4062-0.71875 8.1094-2.1875z"/>
</defs>
<g transform="translate(158.21 740.94) scale(.1 -.1)">
<use xlink:href="#h"/>
<use x="27.783203" xlink:href="#y"/>
</g>
</g>
<g clip-path="url(#a)">
<defs>
<path id="u" d="m45.406 46.391v29.594h8.9844v-75.984h-8.9844v8.2031q-2.8281-4.875-7.1562-7.25-4.3125-2.375-10.375-2.375-9.9062 0-16.141 7.9062-6.2188 7.9219-6.2188 20.812t6.2188 20.797q6.2344 7.9062 16.141 7.9062 6.0625 0 10.375-2.375 4.3281-2.3594 7.1562-7.2344zm-30.609-19.094q0-9.9062 4.0781-15.547t11.203-5.6406 11.219 5.6406q4.1094 5.6406 4.1094 15.547t-4.1094 15.547q-4.0938 5.6406-11.219 5.6406t-11.203-5.6406-4.0781-15.547z"/>
<path id="av" d="m37.109 75.984v-7.4844h-8.5938q-4.8281 0-6.7188-1.9531-1.875-1.9531-1.875-7.0312v-4.8281h14.797v-6.9844h-14.797v-47.703h-9.0312v47.703h-8.5938v6.9844h8.5938v3.8125q0 9.125 4.25 13.297 4.25 4.1875 13.469 4.1875z"/>
</defs>
<g transform="translate(164.88 740.94) scale(.1 -.1)">
<use xlink:href="#u"/>
<use x="63.476562" xlink:href="#f"/>
<use x="125" xlink:href="#av"/>
<use x="160.205078" xlink:href="#h"/>
<use x="187.988281" xlink:href="#g"/>
<use x="251.367188" xlink:href="#h"/>
<use x="279.150391" xlink:href="#q"/>
<use x="318.359375" xlink:href="#f"/>
<use x="379.882812" xlink:href="#j"/>
<use x="407.666016" xlink:href="#ak"/>
</g>
</g>
<g clip-path="url(#a)">
<g transform="translate(203.17 740.94) scale(.1 -.1)">
<use xlink:href="#u"/>
<use x="63.476562" xlink:href="#r"/>
<use x="124.658203" xlink:href="#h"/>
<use x="152.441406" xlink:href="#g"/>
<use x="215.820312" xlink:href="#s"/>
</g>
</g>
<g clip-path="url(#a)">
<defs>
<path id="t" d="m54.891 33.016v-33.016h-8.9844v32.719q0 7.7656-3.0312 11.609-3.0312 3.8594-9.0781 3.8594-7.2812 0-11.484-4.6406-4.2031-4.625-4.2031-12.641v-30.906h-9.0312v75.984h9.0312v-29.797q3.2344 4.9375 7.5938 7.375 4.375 2.4375 10.094 2.4375 9.4219 0 14.25-5.8281 4.8438-5.8281 4.8438-17.156z"/>
</defs>
<g transform="translate(222.46 740.94) scale(.1 -.1)">
<use xlink:href="#y"/>
<use x="52.099609" xlink:href="#r"/>
<use x="113.28125" xlink:href="#i"/>
<use x="210.693359" xlink:href="#f"/>
<use x="272.216797" xlink:href="#q"/>
<use x="311.425781" xlink:href="#t"/>
<use x="374.804688" xlink:href="#h"/>
<use x="402.587891" xlink:href="#g"/>
<use x="465.966797" xlink:href="#s"/>
</g>
</g>
<g clip-path="url(#a)">
<g transform="translate(273.48 740.94) scale(.1 -.1)">
<use xlink:href="#q"/>
<use x="39.208984" xlink:href="#t"/>
<use x="102.587891" xlink:href="#d"/>
<use x="163.867188" xlink:href="#q"/>
</g>
</g>
<g clip-path="url(#a)">
<defs>
<path id="ag" d="m48.781 52.594v-8.4062q-3.8125 2.1094-7.6406 3.1562t-7.7344 1.0469q-8.75 0-13.594-5.5469-4.8281-5.5312-4.8281-15.547t4.8281-15.562q4.8438-5.5312 13.594-5.5312 3.9062 0 7.7344 1.0469t7.6406 3.1562v-8.3125q-3.7656-1.75-7.7969-2.625-4.0156-0.89062-8.5625-0.89062-12.359 0-19.641 7.7656-7.2656 7.7656-7.2656 20.953 0 13.375 7.3438 21.031 7.3594 7.6719 20.156 7.6719 4.1406 0 8.0938-0.85938 3.9531-0.84375 7.6719-2.5469z"/>
</defs>
<g transform="translate(312.24 740.94) scale(.1 -.1)">
<use xlink:href="#ag"/>
<use x="54.980469" xlink:href="#d"/>
<use x="116.259766" xlink:href="#g"/>
</g>
</g>
<g clip-path="url(#a)">
<defs>
<path id="ao" d="m48.688 27.297q0 9.9062-4.0781 15.547t-11.203 5.6406q-7.1406 0-11.219-5.6406t-4.0781-15.547 4.0781-15.547 11.219-5.6406q7.125 0 11.203 5.6406t4.0781 15.547zm-30.578 19.094q2.8438 4.875 7.1562 7.2344 4.3281 2.375 10.328 2.375 9.9688 0 16.188-7.9062 6.2344-7.9062 6.2344-20.797t-6.2344-20.812q-6.2188-7.9062-16.188-7.9062-6 0-10.328 2.375-4.3125 2.375-7.1562 7.25v-8.2031h-9.0312v75.984h9.0312z"/>
</defs>
<g transform="translate(355.44 740.94) scale(.1 -.1)">
<use xlink:href="#ao"/>
<use x="63.476562" xlink:href="#f"/>
</g>
</g>
<g clip-path="url(#a)">
<g transform="translate(390.22 740.94) scale(.1 -.1)">
<use xlink:href="#ag"/>
<use x="54.980469" xlink:href="#d"/>
<use x="116.259766" xlink:href="#j"/>
<use x="144.042969" xlink:href="#j"/>
<use x="171.826172" xlink:href="#f"/>
<use x="233.349609" xlink:href="#u"/>
</g>
</g>
<g clip-path="url(#a)">
<g transform="translate(433.26 740.94) scale(.1 -.1)">
<use xlink:href="#y"/>
<use x="52.099609" xlink:href="#h"/>
<use x="79.882812" xlink:href="#g"/>
<use x="143.261719" xlink:href="#s"/>
<use x="206.738281" xlink:href="#h"/>
<use x="234.521484" xlink:href="#g"/>
<use x="297.900391" xlink:href="#s"/>
</g>
</g>
<g clip-path="url(#a)">
<defs>
<path id="e" d="m10.688 12.406h10.312v-12.406h-10.312z"/>
</defs>
<g transform="translate(498.89 740.94) scale(.1 -.1)">
<use xlink:href="#e"/>
</g>
</g>
<g clip-path="url(#a)">
<defs>
<path id="aq" d="m53.516 70.516v-9.625q-5.6094 2.6875-10.594 4-4.9844 1.3281-9.625 1.3281-8.0469 0-12.422-3.125t-4.375-8.8906q0-4.8438 2.9062-7.3125 2.9062-2.4531 11.016-3.9688l5.9531-1.2188q11.031-2.1094 16.281-7.4062t5.25-14.172q0-10.609-7.1094-16.078-7.0938-5.4688-20.812-5.4688-5.1719 0-11.016 1.1719-5.8281 1.1719-12.078 3.4688v10.156q6-3.3594 11.766-5.0781 5.7656-1.7031 11.328-1.7031 8.4375 0 13.031 3.3125 4.5938 3.3281 4.5938 9.4844 0 5.3594-3.2969 8.3906t-10.812 4.5469l-6.0156 1.1719q-11.031 2.1875-15.969 6.875-4.9219 4.6875-4.9219 13.047 0 9.6719 6.8125 15.234t18.766 5.5625q5.1406 0 10.453-0.9375 5.3281-0.92188 10.891-2.7656z"/>
</defs>
<g transform="translate(528.02 740.94) scale(.1 -.1)">
<use xlink:href="#aq"/>
<use x="63.476562" xlink:href="#r"/>
<use x="124.658203" xlink:href="#i"/>
<use x="222.070312" xlink:href="#f"/>
<use x="283.59375" xlink:href="#t"/>
<use x="346.972656" xlink:href="#r"/>
<use x="408.154297" xlink:href="#an"/>
</g>
</g>
<g clip-path="url(#a)">
<g transform="translate(601.21 740.94) scale(.1 -.1)">
<use xlink:href="#t"/>
<use x="63.378906" xlink:href="#f"/>
</g>
</g>
<g clip-path="url(#a)">
<g transform="translate(656.44 740.94) scale(.1 -.1)">
<use xlink:href="#t"/>
<use x="63.378906" xlink:href="#d"/>
<use x="124.658203" xlink:href="#y"/>
</g>
</g>
<g clip-path="url(#a)">
<g transform="translate(702.4 740.94) scale(.1 -.1)">
<use xlink:href="#i"/>
<use x="97.412109" xlink:href="#d"/>
<use x="158.691406" xlink:href="#g"/>
<use x="222.070312" xlink:href="#d"/>
<use x="283.349609" xlink:href="#s"/>
<use x="346.826172" xlink:href="#f"/>
<use x="408.349609" xlink:href="#u"/>
</g>
</g>
<g clip-path="url(#a)">
<g transform="translate(784.58 740.94) scale(.1 -.1)">
<use xlink:href="#q"/>
<use x="39.208984" xlink:href="#r"/>
</g>
</g>
<g clip-path="url(#a)">
<g transform="translate(846.69 740.94) scale(.1 -.1)">
<use xlink:href="#d"/>
<use x="61.279297" xlink:href="#u"/>
<use x="124.755859" xlink:href="#u"/>
</g>
</g>
<g clip-path="url(#a)">
<g transform="translate(919.26 740.94) scale(.1 -.1)">
<use xlink:href="#d"/>
<use x="61.279297" xlink:href="#g"/>
</g>
</g>
<g clip-path="url(#a)">
<defs>
<path id="au" d="m2.9844 54.688h9.5156l17.094-45.891 17.094 45.891h9.5156l-20.516-54.688h-12.203z"/>
</defs>
<g transform="translate(980.9 740.94) scale(.1 -.1)">
<use xlink:href="#r"/>
<use x="61.181641" xlink:href="#ag"/>
<use x="116.162109" xlink:href="#q"/>
<use x="155.371094" xlink:href="#d"/>
<use x="216.650391" xlink:href="#au"/>
<use x="275.830078" xlink:href="#f"/>
</g>
</g>
<g clip-path="url(#a)">
<g transform="translate(1067.9 740.94) scale(.1 -.1)">
<use xlink:href="#q"/>
<use x="39.208984" xlink:href="#r"/>
</g>
</g>
<g clip-path="url(#a)">
<g transform="translate(1143.8 740.94) scale(.1 -.1)">
<use xlink:href="#t"/>
<use x="63.378906" xlink:href="#h"/>
<use x="91.162109" xlink:href="#y"/>
</g>
</g>
<g clip-path="url(#a)">
<g transform="translate(1217.4 740.94) scale(.1 -.1)">
<use xlink:href="#k"/>
<use x="41.113281" xlink:href="#d"/>
<use x="102.392578" xlink:href="#g"/>
<use x="165.771484" xlink:href="#s"/>
<use x="229.248047" xlink:href="#f"/>
</g>
</g>
<g clip-path="url(#a)">
<g transform="translate(1314.2 740.94) scale(.1 -.1)">
<use xlink:href="#e"/>
</g>
</g>
<g clip-path="url(#a)">
<g transform="translate(1400.2 740.94) scale(.1 -.1)">
<use xlink:href="#am"/>
</g>
</g>
<g clip-path="url(#a)">
<defs>
<path id="c" d="m12.406 8.2969h16.109v55.625l-17.531-3.5156v8.9844l17.438 3.5156h9.8594v-64.609h16.109v-8.2969h-41.984z"/>
</defs>
<g transform="translate(172.15 37.911) scale(.1 -.1)">
<use xlink:href="#c"/>
<use x="63.623047" xlink:href="#e"/>
<use x="95.410156" xlink:href="#c"/>
</g>
</g>
<g clip-path="url(#a)">
<defs>
<path id="m" d="m19.188 8.2969h34.422v-8.2969h-46.281v8.2969q5.6094 5.8125 15.297 15.594 9.7031 9.7969 12.188 12.641 4.7344 5.3125 6.6094 9 1.8906 3.6875 1.8906 7.25 0 5.8125-4.0781 9.4688-4.0781 3.6719-10.625 3.6719-4.6406 0-9.7969-1.6094-5.1406-1.6094-11-4.8906v9.9688q5.9531 2.3906 11.125 3.6094 5.1875 1.2188 9.4844 1.2188 11.328 0 18.062-5.6719 6.7344-5.6562 6.7344-15.125 0-4.5-1.6875-8.5312-1.6719-4.0156-6.125-9.4844-1.2188-1.4219-7.7656-8.1875-6.5312-6.7656-18.453-18.922z"/>
</defs>
<g transform="translate(172.15 126.61) scale(.1 -.1)">
<use xlink:href="#c"/>
<use x="63.623047" xlink:href="#e"/>
<use x="95.410156" xlink:href="#m"/>
</g>
</g>
<g clip-path="url(#a)">
<defs>
<path id="x" d="m10.797 72.906h38.719v-8.3125h-29.688v-17.859q2.1406 0.73438 4.2812 1.0938 2.1562 0.35938 4.3125 0.35938 12.203 0 19.328-6.6875 7.1406-6.6875 7.1406-18.109 0-11.766-7.3281-18.297-7.3281-6.5156-20.656-6.5156-4.5938 0-9.3594 0.78125-4.75 0.78125-9.8281 2.3438v9.9219q4.3906-2.3906 9.0781-3.5625t9.9062-1.1719q8.4531 0 13.375 4.4375 4.9375 4.4375 4.9375 12.062 0 7.6094-4.9375 12.047-4.9219 4.4531-13.375 4.4531-3.9531 0-7.8906-0.875-3.9219-0.875-8.0156-2.7344z"/>
</defs>
<g transform="translate(63.173 567.6) scale(.1 -.1)">
<use xlink:href="#c"/>
<use x="63.623047" xlink:href="#e"/>
<use x="95.410156" xlink:href="#x"/>
</g>
</g>
<g clip-path="url(#a)">
<defs>
<path id="ae" d="m33.016 40.375q-6.6406 0-10.531-4.5469-3.875-4.5312-3.875-12.438 0-7.8594 3.875-12.438 3.8906-4.5625 10.531-4.5625t10.516 4.5625q3.875 4.5781 3.875 12.438 0 7.9062-3.875 12.438-3.875 4.5469-10.516 4.5469zm19.578 30.922v-8.9844q-3.7188 1.75-7.5 2.6719-3.7812 0.9375-7.5 0.9375-9.7656 0-14.922-6.5938-5.1406-6.5938-5.875-19.922 2.875 4.25 7.2188 6.5156 4.3594 2.2656 9.5781 2.2656 10.984 0 17.359-6.6719 6.375-6.6562 6.375-18.125 0-11.234-6.6406-18.031-6.6406-6.7812-17.672-6.7812-12.656 0-19.344 9.6875-6.6875 9.7031-6.6875 28.109 0 17.281 8.2031 27.562t22.016 10.281q3.7188 0 7.5-0.73438t7.8906-2.1875z"/>
</defs>
<g transform="translate(79.075 654.87) scale(.1 -.1)">
<use xlink:href="#c"/>
<use x="63.623047" xlink:href="#e"/>
<use x="95.410156" xlink:href="#ae"/>
</g>
</g>
<g clip-path="url(#a)">
<defs>
<path id="ad" d="m8.2031 72.906h46.875v-4.2031l-26.469-68.703h-10.297l24.906 64.594h-35.016z"/>
</defs>
<g transform="translate(514.09 215.18) scale(.1 -.1)">
<use xlink:href="#c"/>
<use x="63.623047" xlink:href="#e"/>
<use x="95.410156" xlink:href="#ad"/>
</g>
</g>
<g clip-path="url(#a)">
<defs>
<path id="af" d="m31.781 66.406q-7.6094 0-11.453-7.5-3.8281-7.4844-3.8281-22.531 0-14.984 3.8281-22.484 3.8438-7.5 11.453-7.5 7.6719 0 11.5 7.5 3.8438 7.5 3.8438 22.484 0 15.047-3.8438 22.531-3.8281 7.5-11.5 7.5zm0 7.8125q12.266 0 18.734-9.7031 6.4688-9.6875 6.4688-28.141 0-18.406-6.4688-28.109-6.4688-9.6875-18.734-9.6875-12.25 0-18.719 9.6875-6.4688 9.7031-6.4688 28.109 0 18.453 6.4688 28.141 6.4688 9.7031 18.719 9.7031z"/>
</defs>
<g transform="translate(189.62 303.61) scale(.1 -.1)">
<use xlink:href="#c"/>
<use x="63.623047" xlink:href="#e"/>
<use x="95.410156" xlink:href="#c"/>
<use x="159.033203" xlink:href="#af"/>
</g>
</g>
<g clip-path="url(#a)">
<g transform="translate(541.39 654.87) scale(.1 -.1)">
<use xlink:href="#c"/>
<use x="63.623047" xlink:href="#e"/>
<use x="95.410156" xlink:href="#c"/>
<use x="159.033203" xlink:href="#c"/>
</g>
</g>
<g clip-path="url(#a)">
<g transform="translate(823.28 479.88) scale(.1 -.1)">
<use xlink:href="#c"/>
<use x="63.623047" xlink:href="#e"/>
<use x="95.410156" xlink:href="#c"/>
<use x="159.033203" xlink:href="#m"/>
</g>
</g>
<g clip-path="url(#a)">
<defs>
<path id="o" d="m37.797 64.312-24.906-38.922h24.906zm-2.5938 8.5938h12.406v-47.516h10.406v-8.2031h-10.406v-17.188h-9.8125v17.188h-32.906v9.5156z"/>
</defs>
<g transform="translate(596.32 654.87) scale(.1 -.1)">
<use xlink:href="#c"/>
<use x="63.623047" xlink:href="#e"/>
<use x="95.410156" xlink:href="#c"/>
<use x="159.033203" xlink:href="#o"/>
</g>
</g>
<g clip-path="url(#a)">
<g transform="translate(654.14 654.87) scale(.1 -.1)">
<use xlink:href="#c"/>
<use x="63.623047" xlink:href="#e"/>
<use x="95.410156" xlink:href="#c"/>
<use x="159.033203" xlink:href="#x"/>
</g>
</g>
<g clip-path="url(#a)">
<g transform="translate(714.86 654.87) scale(.1 -.1)">
<use xlink:href="#c"/>
<use x="63.623047" xlink:href="#e"/>
<use x="95.410156" xlink:href="#c"/>
<use x="159.033203" xlink:href="#ae"/>
</g>
</g>
<g clip-path="url(#a)">
<g transform="translate(778.47 654.87) scale(.1 -.1)">
<use xlink:href="#c"/>
<use x="63.623047" xlink:href="#e"/>
<use x="95.410156" xlink:href="#c"/>
<use x="159.033203" xlink:href="#ad"/>
</g>
</g>
<g clip-path="url(#a)">
<defs>
<path id="aj" d="m31.781 34.625q-7.0312 0-11.062-3.7656-4.0156-3.7656-4.0156-10.344 0-6.5938 4.0156-10.359 4.0312-3.7656 11.062-3.7656t11.078 3.7812q4.0625 3.7969 4.0625 10.344 0 6.5781-4.0312 10.344-4.0156 3.7656-11.109 3.7656zm-9.8594 4.1875q-6.3438 1.5625-9.8906 5.9062-3.5312 4.3594-3.5312 10.609 0 8.7344 6.2188 13.812 6.2344 5.0781 17.062 5.0781 10.891 0 17.094-5.0781t6.2031-13.812q0-6.25-3.5469-10.609-3.5312-4.3438-9.8281-5.9062 7.125-1.6562 11.094-6.5 3.9844-4.8281 3.9844-11.797 0-10.609-6.4688-16.281-6.4688-5.6562-18.531-5.6562-12.047 0-18.531 5.6562-6.4688 5.6719-6.4688 16.281 0 6.9688 4 11.797 4.0156 4.8438 11.141 6.5zm-3.6094 15.578q0-5.6562 3.5312-8.8281 3.5469-3.1719 9.9375-3.1719 6.3594 0 9.9375 3.1719 3.5938 3.1719 3.5938 8.8281 0 5.6719-3.5938 8.8438-3.5781 3.1719-9.9375 3.1719-6.3906 0-9.9375-3.1719-3.5312-3.1719-3.5312-8.8438z"/>
</defs>
<g transform="translate(844.97 654.87) scale(.1 -.1)">
<use xlink:href="#c"/>
<use x="63.623047" xlink:href="#e"/>
<use x="95.410156" xlink:href="#c"/>
<use x="159.033203" xlink:href="#aj"/>
</g>
</g>
<g clip-path="url(#a)">
<defs>
<path id="ai" d="m10.984 1.5156v8.9844q3.7188-1.7656 7.5156-2.6875 3.8125-0.92188 7.4844-0.92188 9.7656 0 14.906 6.5625 5.1562 6.5625 5.8906 19.953-2.8281-4.2031-7.1875-6.4531-4.3438-2.25-9.6094-2.25-10.938 0-17.312 6.6094-6.375 6.625-6.375 18.109 0 11.219 6.6406 18 6.6406 6.7969 17.672 6.7969 12.656 0 19.312-9.7031 6.6719-9.6875 6.6719-28.141 0-17.234-8.1875-27.516-8.1719-10.281-21.984-10.281-3.7188 0-7.5312 0.73438-3.7969 0.73438-7.9062 2.2031zm19.625 30.906q6.6406 0 10.516 4.5312 3.8906 4.5469 3.8906 12.469 0 7.8594-3.8906 12.422-3.875 4.5625-10.516 4.5625t-10.516-4.5625-3.875-12.422q0-7.9219 3.875-12.469 3.875-4.5312 10.516-4.5312z"/>
</defs>
<g transform="translate(950.5 567.6) scale(.1 -.1)">
<use xlink:href="#c"/>
<use x="63.623047" xlink:href="#e"/>
<use x="95.410156" xlink:href="#c"/>
<use x="159.033203" xlink:href="#ai"/>
</g>
</g>
<g clip-path="url(#a)">
<g transform="translate(1223.7 567.6) scale(.1 -.1)">
<use xlink:href="#c"/>
<use x="63.623047" xlink:href="#e"/>
<use x="95.410156" xlink:href="#m"/>
<use x="159.033203" xlink:href="#af"/>
</g>
</g>
<g clip-path="url(#a)">
<g transform="translate(1061.8 654.87) scale(.1 -.1)">
<use xlink:href="#c"/>
<use x="63.623047" xlink:href="#e"/>
<use x="95.410156" xlink:href="#m"/>
<use x="159.033203" xlink:href="#c"/>
</g>
</g>
<g clip-path="url(#a)">
<g transform="translate(1139.9 654.87) scale(.1 -.1)">
<use xlink:href="#c"/>
<use x="63.623047" xlink:href="#e"/>
<use x="95.410156" xlink:href="#m"/>
<use x="159.033203" xlink:href="#m"/>
</g>
</g>
<g clip-path="url(#a)">
<defs>
<path id="n" d="m40.578 39.312q7.0781-1.5156 11.047-6.3125 3.9844-4.7812 3.9844-11.812 0-10.781-7.4219-16.703-7.4219-5.9062-21.094-5.9062-4.5781 0-9.4375 0.90625t-10.031 2.7188v9.5156q4.0938-2.3906 8.9688-3.6094 4.8906-1.2188 10.219-1.2188 9.2656 0 14.125 3.6562t4.8594 10.641q0 6.4531-4.5156 10.078-4.5156 3.6406-12.562 3.6406h-8.5v8.1094h8.8906q7.2656 0 11.125 2.9062t3.8594 8.375q0 5.6094-3.9844 8.6094-3.9688 3.0156-11.391 3.0156-4.0625 0-8.7031-0.89062-4.6406-0.875-10.203-2.7188v8.7812q5.625 1.5625 10.531 2.3438t9.25 0.78125q11.234 0 17.766-5.1094 6.5469-5.0938 6.5469-13.781 0-6.0625-3.4688-10.234t-9.8594-5.7812z"/>
</defs>
<g transform="translate(1220.8 654.87) scale(.1 -.1)">
<use xlink:href="#c"/>
<use x="63.623047" xlink:href="#e"/>
<use x="95.410156" xlink:href="#m"/>
<use x="159.033203" xlink:href="#n"/>
</g>
</g>
<g clip-path="url(#a)">
<g transform="translate(914.36 654.87) scale(.1 -.1)">
<use xlink:href="#c"/>
<use x="63.623047" xlink:href="#e"/>
<use x="95.410156" xlink:href="#m"/>
<use x="159.033203" xlink:href="#o"/>
</g>
</g>
<g clip-path="url(#a)">
<g transform="translate(986.64 654.87) scale(.1 -.1)">
<use xlink:href="#c"/>
<use x="63.623047" xlink:href="#e"/>
<use x="95.410156" xlink:href="#m"/>
<use x="159.033203" xlink:href="#x"/>
</g>
</g>
<g clip-path="url(#a)">
<g transform="translate(127.94 654.87) scale(.1 -.1)">
<use xlink:href="#c"/>
<use x="63.623047" xlink:href="#e"/>
<use x="95.410156" xlink:href="#m"/>
<use x="159.033203" xlink:href="#ae"/>
</g>
</g>
<g clip-path="url(#a)">
<g transform="translate(151.07 654.87) scale(.1 -.1)">
<use xlink:href="#c"/>
<use x="63.623047" xlink:href="#e"/>
<use x="95.410156" xlink:href="#m"/>
<use x="159.033203" xlink:href="#ad"/>
</g>
</g>
<g clip-path="url(#a)">
<g transform="translate(177.09 654.87) scale(.1 -.1)">
<use xlink:href="#c"/>
<use x="63.623047" xlink:href="#e"/>
<use x="95.410156" xlink:href="#m"/>
<use x="159.033203" xlink:href="#aj"/>
</g>
</g>
<g clip-path="url(#a)">
<g transform="translate(206 654.87) scale(.1 -.1)">
<use xlink:href="#c"/>
<use x="63.623047" xlink:href="#e"/>
<use x="95.410156" xlink:href="#m"/>
<use x="159.033203" xlink:href="#ai"/>
</g>
</g>
<g clip-path="url(#a)">
<g transform="translate(285.99 391.85) scale(.1 -.1)">
<use xlink:href="#c"/>
<use x="63.623047" xlink:href="#e"/>
<use x="95.410156" xlink:href="#n"/>
<use x="159.033203" xlink:href="#af"/>
</g>
</g>
<g clip-path="url(#a)">
<g transform="translate(237.8 654.87) scale(.1 -.1)">
<use xlink:href="#c"/>
<use x="63.623047" xlink:href="#e"/>
<use x="95.410156" xlink:href="#n"/>
<use x="159.033203" xlink:href="#c"/>
</g>
</g>
<g clip-path="url(#a)">
<g transform="translate(334.18 479.88) scale(.1 -.1)">
<use xlink:href="#c"/>
<use x="63.623047" xlink:href="#e"/>
<use x="95.410156" xlink:href="#n"/>
<use x="159.033203" xlink:href="#m"/>
</g>
</g>
<g clip-path="url(#a)">
<g transform="translate(272.5 654.87) scale(.1 -.1)">
<use xlink:href="#c"/>
<use x="63.623047" xlink:href="#e"/>
<use x="95.410156" xlink:href="#n"/>
<use x="159.033203" xlink:href="#n"/>
</g>
</g>
<g clip-path="url(#a)">
<g transform="translate(310.09 654.87) scale(.1 -.1)">
<use xlink:href="#c"/>
<use x="63.623047" xlink:href="#e"/>
<use x="95.410156" xlink:href="#n"/>
<use x="159.033203" xlink:href="#o"/>
</g>
</g>
<g clip-path="url(#a)">
<g transform="translate(350.56 654.87) scale(.1 -.1)">
<use xlink:href="#c"/>
<use x="63.623047" xlink:href="#e"/>
<use x="95.410156" xlink:href="#n"/>
<use x="159.033203" xlink:href="#x"/>
</g>
</g>
<g clip-path="url(#a)">
<g transform="translate(393.93 654.87) scale(.1 -.1)">
<use xlink:href="#c"/>
<use x="63.623047" xlink:href="#e"/>
<use x="95.410156" xlink:href="#n"/>
<use x="159.033203" xlink:href="#ae"/>
</g>
</g>
<g clip-path="url(#a)">
<g transform="translate(440.19 567.6) scale(.1 -.1)">
<use xlink:href="#c"/>
<use x="63.623047" xlink:href="#e"/>
<use x="95.410156" xlink:href="#n"/>
<use x="159.033203" xlink:href="#ad"/>
</g>
</g>
<g clip-path="url(#a)">
<g transform="translate(440.19 654.87) scale(.1 -.1)">
<use xlink:href="#c"/>
<use x="63.623047" xlink:href="#e"/>
<use x="95.410156" xlink:href="#n"/>
<use x="159.033203" xlink:href="#aj"/>
</g>
</g>
<g clip-path="url(#a)">
<g transform="translate(55.655 654.87) scale(.1 -.1)">
<use xlink:href="#c"/>
<use x="63.623047" xlink:href="#e"/>
<use x="95.410156" xlink:href="#n"/>
<use x="159.033203" xlink:href="#ai"/>
</g>
</g>
<g clip-path="url(#a)">
<g transform="translate(64.329 654.87) scale(.1 -.1)">
<use xlink:href="#c"/>
<use x="63.623047" xlink:href="#e"/>
<use x="95.410156" xlink:href="#o"/>
<use x="159.033203" xlink:href="#af"/>
</g>
</g>
<g clip-path="url(#a)">
<g transform="translate(90.35 654.87) scale(.1 -.1)">
<use xlink:href="#c"/>
<use x="63.623047" xlink:href="#e"/>
<use x="95.410156" xlink:href="#o"/>
<use x="159.033203" xlink:href="#c"/>
</g>
</g>
<g clip-path="url(#a)">
<g transform="translate(107.7 654.87) scale(.1 -.1)">
<use xlink:href="#c"/>
<use x="63.623047" xlink:href="#e"/>
<use x="95.410156" xlink:href="#o"/>
<use x="159.033203" xlink:href="#m"/>
</g>
</g>
<g clip-path="url(#a)">
<g transform="translate(489.34 654.87) scale(.1 -.1)">
<use xlink:href="#c"/>
<use x="63.623047" xlink:href="#e"/>
<use x="95.410156" xlink:href="#o"/>
<use x="159.033203" xlink:href="#n"/>
</g>
</g>
<g clip-path="url(#a)">
<g transform="translate(1304.7 654.87) scale(.1 -.1)">
<use xlink:href="#c"/>
<use x="63.623047" xlink:href="#e"/>
<use x="95.410156" xlink:href="#o"/>
<use x="159.033203" xlink:href="#o"/>
</g>
</g>
<g clip-path="url(#a)">
<g transform="translate(1391.4 654.87) scale(.1 -.1)">
<use xlink:href="#c"/>
<use x="63.623047" xlink:href="#e"/>
<use x="95.410156" xlink:href="#o"/>
<use x="159.033203" xlink:href="#x"/>
</g>
</g>
<defs>
<clipPath id="a">
<rect width="1469.3" height="773.33"/>
</clipPath>
</defs>
</svg>
