<?xml version="1.0" encoding="UTF-8"?>
<!DOCTYPE svg  PUBLIC '-//W3C//DTD SVG 1.1//EN'  'http://www.w3.org/Graphics/SVG/1.1/DTD/svg11.dtd'>
<svg width="1621.3pt" height="853.33pt" version="1.1" viewBox="0 0 1621.3 853.33" xmlns="http://www.w3.org/2000/svg" xmlns:xlink="http://www.w3.org/1999/xlink">
<defs>
<style type="text/css">*{stroke-linecap:butt;stroke-linejoin:round;}</style>
</defs>
<path d="m0 853.33h1621.3v-853.33h-1621.3z" fill="#fff"/>
<g fill="none" stroke="#000">
<path d="m143.25 38.788 61.647 97.875" clip-path="url(#a)"/>
<path d="m143.25 38.788-61.647 680.78" clip-path="url(#a)"/>
<path d="m204.9 136.66-131.2 582.91" clip-path="url(#a)"/>
<path d="m204.9 136.66-112.75 582.91" clip-path="url(#a)"/>
<path d="m204.9 136.66-87.039 486.61" clip-path="url(#a)"/>
<path d="m204.9 136.66 16.014 389.81" clip-path="url(#a)"/>
<path d="m204.9 136.66 314.98 97.735" clip-path="url(#a)"/>
<path d="m81.607 719.57v94.974" clip-path="url(#a)"/>
<path d="m73.697 719.57v94.974" clip-path="url(#a)"/>
<path d="m92.154 719.57v94.974" clip-path="url(#a)"/>
<path d="m117.86 623.28-12.525 96.295" clip-path="url(#a)"/>
<path d="m117.86 623.28 12.525 96.295" clip-path="url(#a)"/>
<path d="m220.92 526.48-60.206 193.1" clip-path="url(#a)"/>
<path d="m220.92 526.48 24.17 96.8" clip-path="url(#a)"/>
<path d="m220.92 526.48 36.035 96.8" clip-path="url(#a)"/>
<path d="m519.88 234.4-177.23 485.17" clip-path="url(#a)"/>
<path d="m519.88 234.4-116.59 485.17" clip-path="url(#a)"/>
<path d="m519.88 234.4-59.898 388.88" clip-path="url(#a)"/>
<path d="m519.88 234.4 252.6 97.572" clip-path="url(#a)"/>
<path d="m519.88 234.4-50.669 485.17" clip-path="url(#a)"/>
<path d="m519.88 234.4 49.527 485.17" clip-path="url(#a)"/>
<path d="m519.88 234.4 102.26 485.17" clip-path="url(#a)"/>
<path d="m342.64 719.57v94.974" clip-path="url(#a)"/>
<path d="m403.29 719.57-21.094 94.974" clip-path="url(#a)"/>
<path d="m403.29 719.57 21.094 94.974" clip-path="url(#a)"/>
<path d="m459.98 623.28-56.69 96.295" clip-path="url(#a)" stroke-dasharray="3.7,1.6"/>
<path d="m459.98 623.28 59.327 96.295" clip-path="url(#a)"/>
<path d="m459.98 623.28 56.69 96.295" clip-path="url(#a)"/>
<path d="m772.47 331.97-94.963 387.6" clip-path="url(#a)"/>
<path d="m772.47 331.97-36.955 387.6" clip-path="url(#a)"/>
<path d="m772.47 331.97 131.92 97.376" clip-path="url(#a)"/>
<path d="m677.51 719.57v94.974" clip-path="url(#a)"/>
<path d="m735.52 719.57v94.974" clip-path="url(#a)"/>
<path d="m904.39 429.35-168.87 290.23" clip-path="url(#a)" stroke-dasharray="3.7,1.6"/>
<path d="m904.39 429.35-76.588 290.23" clip-path="url(#a)"/>
<path d="m904.39 429.35 245.46 97.13" clip-path="url(#a)"/>
<path d="m827.81 719.57-31.641 94.974" clip-path="url(#a)"/>
<path d="m827.81 719.57 31.641 94.974" clip-path="url(#a)"/>
<path d="m1149.9 526.48-190.21 96.8" clip-path="url(#a)"/>
<path d="m1149.9 526.48-10.034 193.1" clip-path="url(#a)"/>
<path d="m1149.9 526.48 200.25 96.8" clip-path="url(#a)"/>
<path d="m959.64 623.28-34.278 96.295" clip-path="url(#a)"/>
<path d="m959.64 623.28 34.278 96.295" clip-path="url(#a)"/>
<path d="m1139.8 719.57-74.708 94.974" clip-path="url(#a)"/>
<path d="m1139.8 719.57-0.87891 94.974" clip-path="url(#a)"/>
<path d="m1139.8 719.57 75.587 94.974" clip-path="url(#a)"/>
<path d="m1350.1 623.28-210.28 96.295" clip-path="url(#a)" stroke-dasharray="3.7,1.6"/>
<path d="m1350.1 623.28-55.591 96.295" clip-path="url(#a)"/>
<path d="m1350.1 623.28 68.336 96.295" clip-path="url(#a)"/>
<path d="m1350.1 623.28 197.54 96.295" clip-path="url(#a)"/>
<path d="m1294.5 719.57v94.974" clip-path="url(#a)"/>
<path d="m1418.4 719.57-42.188 94.974" clip-path="url(#a)"/>
<path d="m1418.4 719.57 42.188 94.974" clip-path="url(#a)"/>
<path d="m925.36 719.57v94.974" clip-path="url(#a)"/>
<path d="m993.92 719.57v94.974" clip-path="url(#a)"/>
<path d="m516.67 719.57v94.974" clip-path="url(#a)"/>
<path d="m160.71 719.57v94.974" clip-path="url(#a)"/>
<path d="m245.09 623.28-60.645 96.295" clip-path="url(#a)"/>
<path d="m245.09 623.28 60.645 96.295" clip-path="url(#a)"/>
<path d="m256.95 623.28-46.143 96.295" clip-path="url(#a)"/>
<path d="m256.95 623.28 14.502 96.295" clip-path="url(#a)"/>
<path d="m256.95 623.28-17.139 96.295" clip-path="url(#a)"/>
<path d="m256.95 623.28 48.78 96.295" clip-path="url(#a)" stroke-dasharray="3.7,1.6"/>
<path d="m210.81 719.57v94.974" clip-path="url(#a)"/>
<path d="m271.45 719.57v94.974" clip-path="url(#a)"/>
<path d="m239.81 719.57v94.974" clip-path="url(#a)"/>
<path d="m184.44 719.57v94.974" clip-path="url(#a)"/>
<path d="m305.73 719.57v94.974" clip-path="url(#a)"/>
<path d="m105.34 719.57v94.974" clip-path="url(#a)"/>
<path d="m130.39 719.57-9.2286 94.974" clip-path="url(#a)"/>
<path d="m130.39 719.57 9.2286 94.974" clip-path="url(#a)"/>
<path d="m469.21 719.57v94.974" clip-path="url(#a)"/>
<path d="m569.4 719.57v94.974" clip-path="url(#a)"/>
<path d="m622.14 719.57v94.974" clip-path="url(#a)"/>
<path d="m1547.6 719.57v94.974" clip-path="url(#a)"/>
</g>
<path d="m167.17 88.523 3.2063 5.0906q1.2791 2.0308 3.3098 0.75168l6.5513-4.1263q2.0308-1.2791 0.75168-3.3098l-3.2063-5.0906q-1.2791-2.0308-3.3098-0.75168l-6.5513 4.1263q-2.0308 1.2791-0.75168 3.3098z" clip-path="url(#a)" fill="#fff" stroke="#fff"/>
<g clip-path="url(#a)">
<defs>
<path id="aq" d="m9.8125 72.906h9.8594v-29.891h35.844v29.891h9.8594v-72.906h-9.8594v34.719h-35.844v-34.719h-9.8594z"/>
</defs>
<g transform="translate(170.61 86.357) rotate(57.795) scale(.08 -.08)">
<use xlink:href="#aq"/>
</g>
</g>
<path d="m118.48 381.96 0.402-4.4393q0.21644-2.3902-2.1738-2.6067l-7.711-0.69825q-2.3902-0.21644-2.6067 2.1738l-0.402 4.4393q-0.21644 2.3902 2.1738 2.6067l7.711 0.69825q2.3902 0.21644 2.6067-2.1738z" clip-path="url(#a)" fill="#fff" stroke="#fff"/>
<g clip-path="url(#a)">
<defs>
<path id="ak" d="m9.8125 72.906h9.8594v-64.609h35.5v-8.2969h-45.359z"/>
</defs>
<g transform="translate(114.43 381.6) rotate(-84.826) scale(.08 -.08)">
<use xlink:href="#ak"/>
</g>
</g>
<path d="m144.82 432.16 1.2017-5.3389q0.52702-2.3414-1.8144-2.8684l-7.5535-1.7002q-2.3414-0.52702-2.8684 1.8144l-1.2017 5.3389q-0.52702 2.3414 1.8144 2.8684l7.5535 1.7002q2.3414 0.52702 2.8684-1.8144z" clip-path="url(#a)" fill="#fff" stroke="#fff"/>
<g clip-path="url(#a)">
<defs>
<path id="o" d="m34.188 63.188-13.391-36.281h26.812zm-5.5781 9.7188h11.188l27.781-72.906h-10.25l-6.6406 18.703h-32.859l-6.6406-18.703h-10.406z"/>
</defs>
<g transform="translate(140.85 431.27) rotate(-77.315) scale(.08 -.08)">
<use xlink:href="#o"/>
</g>
</g>
<path d="m154.23 431.68 0.91604-4.736q0.45576-2.3563-1.9006-2.8121l-7.6016-1.4703q-2.3563-0.45576-2.8121 1.9006l-0.91604 4.736q-0.45576 2.3563 1.9006 2.8121l7.6016 1.4703q2.3563 0.45576 2.8121-1.9006z" clip-path="url(#a)" fill="#fff" stroke="#fff"/>
<g clip-path="url(#a)">
<defs>
<path id="x" d="m19.672 64.797v-27.391h12.406q6.8906 0 10.641 3.5625 3.7656 3.5625 3.7656 10.156 0 6.5469-3.7656 10.109-3.75 3.5625-10.641 3.5625zm-9.8594 8.1094h22.266q12.266 0 18.531-5.5469 6.2812-5.5469 6.2812-16.234 0-10.797-6.2812-16.312-6.2656-5.5156-18.531-5.5156h-12.406v-29.297h-9.8594z"/>
</defs>
<g transform="translate(150.24 430.9) rotate(-79.053) scale(.08 -.08)">
<use xlink:href="#x"/>
</g>
</g>
<path d="m167.07 383.77 0.96356-5.387q0.42257-2.3625-1.9399-2.7851l-7.6215-1.3632q-2.3625-0.42257-2.7851 1.9399l-0.96356 5.387q-0.42257 2.3625 1.9399 2.7851l7.6215 1.3632q2.3625 0.42257 2.7851-1.9399z" clip-path="url(#a)" fill="#fff" stroke="#fff"/>
<g clip-path="url(#a)">
<g transform="translate(163.07 383.05) rotate(-79.859) scale(.08 -.08)">
<use xlink:href="#o"/>
</g>
</g>
<path d="m206.53 329.09 0.22463 5.4679q0.098512 2.398 2.4965 2.2995l7.736-0.3178q2.398-0.098512 2.2995-2.4965l-0.22463-5.4679q-0.098511-2.398-2.4965-2.2995l-7.736 0.3178q-2.398 0.098512-2.2995 2.4965z" clip-path="url(#a)" fill="#fff" stroke="#fff"/>
<g clip-path="url(#a)">
<g transform="translate(210.59 328.93) rotate(87.648) scale(.08 -.08)">
<use xlink:href="#o"/>
</g>
</g>
<path d="m357.92 190.71 5.2267 1.6218q2.2922 0.71125 3.0034-1.5809l2.2945-7.3947q0.71125-2.2922-1.5809-3.0034l-5.2267-1.6218q-2.2922-0.71125-3.0034 1.5809l-2.2945 7.3947q-0.71125 2.2922 1.5809 3.0034z" clip-path="url(#a)" fill="#fff" stroke="#fff"/>
<g clip-path="url(#a)">
<g transform="translate(359.12 186.83) rotate(17.239) scale(.08 -.08)">
<use xlink:href="#o"/>
</g>
</g>
<path d="m75.336 750.15v33.808q0 2.4 2.4 2.4h7.7425q2.4 0 2.4-2.4v-33.808q0-2.4-2.4-2.4h-7.7425q-2.4 0-2.4 2.4z" clip-path="url(#a)" fill="#fff" stroke="#fff"/>
<g clip-path="url(#a)">
<defs>
<path id="k" d="m-0.29688 72.906h61.672v-8.3125h-25.875v-64.594h-9.9062v64.594h-25.891z"/>
<path id="e" d="m56.203 29.594v-4.3906h-41.312q0.59375-9.2812 5.5938-14.141t13.938-4.8594q5.1719 0 10.031 1.2656t9.6562 3.8125v-8.5q-4.8438-2.0469-9.9219-3.125t-10.297-1.0781q-13.094 0-20.734 7.6094-7.6406 7.625-7.6406 20.625 0 13.422 7.25 21.297 7.25 7.8906 19.562 7.8906 11.031 0 17.453-7.1094 6.4219-7.0938 6.4219-19.297zm-8.9844 2.6406q-0.09375 7.3594-4.125 11.75-4.0312 4.4062-10.672 4.4062-7.5156 0-12.031-4.25t-5.2031-11.969z"/>
<path id="f" d="m41.109 46.297q-1.5156 0.875-3.2969 1.2812-1.7812 0.42188-3.9219 0.42188-7.625 0-11.703-4.9531t-4.0781-14.234v-28.812h-9.0312v54.688h9.0312v-8.5q2.8438 4.9844 7.375 7.3906 4.5469 2.4219 11.047 2.4219 0.92188 0 2.0469-0.125 1.125-0.10938 2.4844-0.35938z"/>
<path id="l" d="m52 44.188q3.375 6.0625 8.0625 8.9375t11.031 2.875q8.5469 0 13.188-5.9844 4.6406-5.9688 4.6406-17v-33.016h-9.0312v32.719q0 7.8594-2.7969 11.656-2.7812 3.8125-8.4844 3.8125-6.9844 0-11.047-4.6406-4.0469-4.625-4.0469-12.641v-30.906h-9.0312v32.719q0 7.9062-2.7812 11.688t-8.5938 3.7812q-6.8906 0-10.953-4.6562-4.0469-4.6562-4.0469-12.625v-30.906h-9.0312v54.688h9.0312v-8.5q3.0781 5.0312 7.375 7.4219t10.203 2.3906q5.9688 0 10.141-3.0312 4.1719-3.0156 6.1719-8.7812z"/>
<path id="d" d="m9.4219 54.688h8.9844v-54.688h-8.9844zm0 21.297h8.9844v-11.391h-8.9844z"/>
<path id="g" d="m54.891 33.016v-33.016h-8.9844v32.719q0 7.7656-3.0312 11.609-3.0312 3.8594-9.0781 3.8594-7.2812 0-11.484-4.6406-4.2031-4.625-4.2031-12.641v-30.906h-9.0312v54.688h9.0312v-8.5q3.2344 4.9375 7.5938 7.375 4.375 2.4375 10.094 2.4375 9.4219 0 14.25-5.8281 4.8438-5.8281 4.8438-17.156z"/>
<path id="h" d="m34.281 27.484q-10.891 0-15.094-2.4844t-4.2031-8.5q0-4.7812 3.1562-7.5938 3.1562-2.7969 8.5625-2.7969 7.4844 0 12 5.2969t4.5156 14.078v2zm17.922 3.7188v-31.203h-8.9844v8.2969q-3.0781-4.9688-7.6719-7.3438t-11.234-2.375q-8.3906 0-13.359 4.7188-4.9531 4.7188-4.9531 12.625 0 9.2188 6.1719 13.906 6.1875 4.6875 18.438 4.6875h12.609v0.89062q0 6.2031-4.0781 9.5938t-11.453 3.3906q-4.6875 0-9.1406-1.125-4.4375-1.125-8.5312-3.375v8.3125q4.9219 1.9062 9.5625 2.8438 4.6406 0.95312 9.0312 0.95312 11.875 0 17.734-6.1562 5.8594-6.1406 5.8594-18.641z"/>
<path id="i" d="m9.4219 75.984h8.9844v-75.984h-8.9844z"/>
</defs>
<g transform="translate(79.4 750.15) rotate(90) scale(.08 -.08)">
<use xlink:href="#k"/>
<use x="44.083984" xlink:href="#e"/>
<use x="105.607422" xlink:href="#f"/>
<use x="144.970703" xlink:href="#l"/>
<use x="242.382812" xlink:href="#d"/>
<use x="270.166016" xlink:href="#g"/>
<use x="333.544922" xlink:href="#h"/>
<use x="394.824219" xlink:href="#i"/>
</g>
</g>
<path d="m67.426 750.15v33.808q0 2.4 2.4 2.4h7.7425q2.4 0 2.4-2.4v-33.808q0-2.4-2.4-2.4h-7.7425q-2.4 0-2.4 2.4z" clip-path="url(#a)" fill="#fff" stroke="#fff"/>
<g clip-path="url(#a)">
<g transform="translate(71.489 750.15) rotate(90) scale(.08 -.08)">
<use xlink:href="#k"/>
<use x="44.083984" xlink:href="#e"/>
<use x="105.607422" xlink:href="#f"/>
<use x="144.970703" xlink:href="#l"/>
<use x="242.382812" xlink:href="#d"/>
<use x="270.166016" xlink:href="#g"/>
<use x="333.544922" xlink:href="#h"/>
<use x="394.824219" xlink:href="#i"/>
</g>
</g>
<path d="m85.883 750.15v33.808q0 2.4 2.4 2.4h7.7425q2.4 0 2.4-2.4v-33.808q0-2.4-2.4-2.4h-7.7425q-2.4 0-2.4 2.4z" clip-path="url(#a)" fill="#fff" stroke="#fff"/>
<g clip-path="url(#a)">
<g transform="translate(89.947 750.15) rotate(90) scale(.08 -.08)">
<use xlink:href="#k"/>
<use x="44.083984" xlink:href="#e"/>
<use x="105.607422" xlink:href="#f"/>
<use x="144.970703" xlink:href="#l"/>
<use x="242.382812" xlink:href="#d"/>
<use x="270.166016" xlink:href="#g"/>
<use x="333.544922" xlink:href="#h"/>
<use x="394.824219" xlink:href="#i"/>
</g>
</g>
<path d="m117.46 674.99 0.71695-5.5123q0.30955-2.38-2.0704-2.6895l-7.6778-0.99861q-2.38-0.30955-2.6895 2.0704l-0.71695 5.5123q-0.30955 2.38 2.0704 2.6895l7.6778 0.99861q2.38 0.30954 2.6895-2.0704z" clip-path="url(#a)" fill="#fff" stroke="#fff"/>
<g clip-path="url(#a)">
<defs>
<path id="ae" d="m44.391 34.188q3.1719-1.0781 6.1719-4.5938t6.0312-9.6719l10.016-19.922h-10.609l-9.3125 18.703q-3.625 7.3281-7.0156 9.7188t-9.25 2.3906h-10.75v-30.812h-9.8594v72.906h22.266q12.5 0 18.656-5.2344 6.1562-5.2188 6.1562-15.766 0-6.8906-3.2031-11.438-3.2031-4.5312-9.2969-6.2812zm-24.719 30.609v-25.875h12.406q7.125 0 10.766 3.2969t3.6406 9.6875-3.6406 9.6406-10.766 3.25z"/>
</defs>
<g transform="translate(113.43 674.46) rotate(-82.589) scale(.08 -.08)">
<use xlink:href="#ae"/>
</g>
</g>
<path d="m117.55 669.46 0.7205 5.5396q0.30955 2.38 2.6895 2.0704l7.6778-0.99861q2.38-0.30955 2.0704-2.6895l-0.7205-5.5396q-0.30955-2.38-2.6895-2.0704l-7.6778 0.99861q-2.38 0.30955-2.0704 2.6895z" clip-path="url(#a)" fill="#fff" stroke="#fff"/>
<g clip-path="url(#a)">
<defs>
<path id="r" d="m64.406 67.281v-10.391q-4.9844 4.6406-10.625 6.9219-5.6406 2.2969-11.984 2.2969-12.5 0-19.141-7.6406t-6.6406-22.094q0-14.406 6.6406-22.047t19.141-7.6406q6.3438 0 11.984 2.2969t10.625 6.9375v-10.312q-5.1719-3.5156-10.969-5.2812-5.7812-1.75-12.219-1.75-16.562 0-26.094 10.125-9.5156 10.141-9.5156 27.672 0 17.578 9.5156 27.703 9.5312 10.141 26.094 10.141 6.5312 0 12.312-1.7344 5.7969-1.7344 10.875-5.2031z"/>
</defs>
<g transform="translate(121.58 668.94) rotate(82.589) scale(.08 -.08)">
<use xlink:href="#r"/>
</g>
</g>
<path d="m195.97 627.54 1.6546-5.3068q0.71438-2.2912-1.5768-3.0056l-7.3916-2.3046q-2.2912-0.71438-3.0056 1.5768l-1.6546 5.3068q-0.71438 2.2912 1.5768 3.0056l7.3916 2.3046q2.2912 0.71438 3.0056-1.5768z" clip-path="url(#a)" fill="#fff" stroke="#fff"/>
<g clip-path="url(#a)">
<g transform="translate(192.09 626.33) rotate(-72.683) scale(.08 -.08)">
<use xlink:href="#ae"/>
</g>
</g>
<path d="m226.24 573.69 1.3533 5.4199q0.58141 2.3285 2.9099 1.7471l7.5119-1.8756q2.3285-0.58141 1.7471-2.9099l-1.3533-5.4199q-0.58141-2.3285-2.9099-1.7471l-7.5119 1.8756q-2.3285 0.58141-1.7471 2.9099z" clip-path="url(#a)" fill="#fff" stroke="#fff"/>
<g clip-path="url(#a)">
<g transform="translate(230.18 572.7) rotate(75.98) scale(.08 -.08)">
<use xlink:href="#r"/>
</g>
</g>
<path d="m232.17 574.7 1.7636 4.7374q0.8373 2.2492 3.0865 1.4119l7.256-2.7012q2.2492-0.8373 1.4119-3.0865l-1.7636-4.7374q-0.8373-2.2492-3.0865-1.4119l-7.256 2.7012q-2.2492 0.8373-1.4119 3.0865z" clip-path="url(#a)" fill="#fff" stroke="#fff"/>
<g clip-path="url(#a)">
<defs>
<path id="q" d="m9.8125 72.906h46.094v-8.3125h-36.234v-21.578h34.719v-8.2969h-34.719v-26.422h37.109v-8.2969h-46.969z"/>
</defs>
<g transform="translate(235.98 573.28) rotate(69.581) scale(.08 -.08)">
<use xlink:href="#q"/>
</g>
</g>
<path d="m436.2 481.75 1.9073-5.2213q0.82349-2.2543-1.4308-3.0778l-7.2725-2.6566q-2.2543-0.82349-3.0778 1.4308l-1.9073 5.2213q-0.82349 2.2543 1.4308 3.0778l7.2725 2.6566q2.2543 0.82349 3.0778-1.4308z" clip-path="url(#a)" fill="#fff" stroke="#fff"/>
<g clip-path="url(#a)">
<g transform="translate(432.38 480.35) rotate(-69.933) scale(.08 -.08)">
<use xlink:href="#ae"/>
</g>
</g>
<path d="m467.03 481.17 1.3052-5.4316q0.56076-2.3336-1.7728-2.8943l-7.5282-1.809q-2.3336-0.56076-2.8943 1.7728l-1.3052 5.4316q-0.56076 2.3336 1.7728 2.8943l7.5282 1.809q2.3336 0.56076 2.8943-1.7728z" clip-path="url(#a)" fill="#fff" stroke="#fff"/>
<g clip-path="url(#a)">
<g transform="translate(463.08 480.22) rotate(-76.488) scale(.08 -.08)">
<use xlink:href="#r"/>
</g>
</g>
<path d="m495.74 432.29 0.76953-4.9961q0.36536-2.372-2.0067-2.7374l-7.6523-1.1787q-2.372-0.36536-2.7374 2.0067l-0.76953 4.9961q-0.36536 2.372 2.0067 2.7374l7.6523 1.1787q2.372 0.36536 2.7374-2.0067z" clip-path="url(#a)" fill="#fff" stroke="#fff"/>
<g clip-path="url(#a)">
<g transform="translate(491.73 431.67) rotate(-81.244) scale(.08 -.08)">
<use xlink:href="#q"/>
</g>
</g>
<path d="m641.56 288.12 4.7154 1.8215q2.2388 0.86478 3.1036-1.374l2.7898-7.2224q0.86478-2.2388-1.374-3.1036l-4.7154-1.8215q-2.2388-0.86478-3.1036 1.374l-2.7898 7.2224q-0.86478 2.2388 1.374 3.1036z" clip-path="url(#a)" fill="#fff" stroke="#fff"/>
<g clip-path="url(#a)">
<g transform="translate(643.02 284.33) rotate(21.12) scale(.08 -.08)">
<use xlink:href="#q"/>
</g>
</g>
<path d="m500.48 480.55 0.60816-5.8233q0.24929-2.387-2.1377-2.6363l-7.7006-0.80421q-2.387-0.24929-2.6363 2.1377l-0.60816 5.8233q-0.24929 2.387 2.1377 2.6363l7.7006 0.80421q2.387 0.24929 2.6363-2.1377z" clip-path="url(#a)" fill="#fff" stroke="#fff"/>
<g clip-path="url(#a)">
<defs>
<path id="w" d="m8.6875 72.906h9.9219v-44.297q0-11.719 4.2344-16.875 4.25-5.1406 13.781-5.1406 9.4688 0 13.719 5.1406 4.25 5.1562 4.25 16.875v44.297h9.9062v-45.516q0-14.25-7.0625-21.531-7.0469-7.2812-20.812-7.2812-13.828 0-20.891 7.2812-7.0469 7.2812-7.0469 21.531z"/>
</defs>
<g transform="translate(496.43 480.13) rotate(-84.038) scale(.08 -.08)">
<use xlink:href="#w"/>
</g>
</g>
<path d="m538.1 474.71 0.5946 5.8247q0.24373 2.3876 2.6313 2.1439l7.7025-0.78628q2.3876-0.24373 2.1439-2.6313l-0.5946-5.8247q-0.24373-2.3876-2.6313-2.1439l-7.7025 0.78628q-2.3876 0.24373-2.1439 2.6313z" clip-path="url(#a)" fill="#fff" stroke="#fff"/>
<g clip-path="url(#a)">
<g transform="translate(542.15 474.3) rotate(84.171) scale(.08 -.08)">
<use xlink:href="#w"/>
</g>
</g>
<path d="m564.27 475.41 1.2076 5.7291q0.49498 2.3484 2.8434 1.8534l7.576-1.5968q2.3484-0.49498 1.8534-2.8434l-1.2076-5.7291q-0.49498-2.3484-2.8434-1.8534l-7.576 1.5968q-2.3484 0.49498-1.8534 2.8434z" clip-path="url(#a)" fill="#fff" stroke="#fff"/>
<g clip-path="url(#a)">
<g transform="translate(568.24 474.58) rotate(78.098) scale(.08 -.08)">
<use xlink:href="#w"/>
</g>
</g>
<path d="m336.37 750.15v33.808q0 2.4 2.4 2.4h7.7425q2.4 0 2.4-2.4v-33.808q0-2.4-2.4-2.4h-7.7425q-2.4 0-2.4 2.4z" clip-path="url(#a)" fill="#fff" stroke="#fff"/>
<g clip-path="url(#a)">
<g transform="translate(340.44 750.15) rotate(90) scale(.08 -.08)">
<use xlink:href="#k"/>
<use x="44.083984" xlink:href="#e"/>
<use x="105.607422" xlink:href="#f"/>
<use x="144.970703" xlink:href="#l"/>
<use x="242.382812" xlink:href="#d"/>
<use x="270.166016" xlink:href="#g"/>
<use x="333.544922" xlink:href="#h"/>
<use x="394.824219" xlink:href="#i"/>
</g>
</g>
<path d="m395.2 784.92 7.3301-33.003q0.52036-2.3429-1.8225-2.8633l-7.5583-1.6787q-2.3429-0.52036-2.8633 1.8225l-7.3301 33.003q-0.52036 2.3429 1.8225 2.8633l7.5583 1.6787q2.3429 0.52036 2.8633-1.8225z" clip-path="url(#a)" fill="#fff" stroke="#fff"/>
<g clip-path="url(#a)">
<g transform="translate(391.23 784.04) rotate(-77.478) scale(.08 -.08)">
<use xlink:href="#k"/>
<use x="44.083984" xlink:href="#e"/>
<use x="105.607422" xlink:href="#f"/>
<use x="144.970703" xlink:href="#l"/>
<use x="242.382812" xlink:href="#d"/>
<use x="270.166016" xlink:href="#g"/>
<use x="333.544922" xlink:href="#h"/>
<use x="394.824219" xlink:href="#i"/>
</g>
</g>
<path d="m404.05 751.92 7.3301 33.003q0.52036 2.3429 2.8633 1.8225l7.5583-1.6787q2.3429-0.52036 1.8225-2.8633l-7.3301-33.003q-0.52036-2.3429-2.8633-1.8225l-7.5583 1.6787q-2.3429 0.52036-1.8225 2.8633z" clip-path="url(#a)" fill="#fff" stroke="#fff"/>
<g clip-path="url(#a)">
<g transform="translate(408.02 751.04) rotate(77.478) scale(.08 -.08)">
<use xlink:href="#k"/>
<use x="44.083984" xlink:href="#e"/>
<use x="105.607422" xlink:href="#f"/>
<use x="144.970703" xlink:href="#l"/>
<use x="242.382812" xlink:href="#d"/>
<use x="270.166016" xlink:href="#g"/>
<use x="333.544922" xlink:href="#h"/>
<use x="394.824219" xlink:href="#i"/>
</g>
</g>
<path d="m435.65 676.96 2.7763-4.716q1.2176-2.0682-0.85064-3.2858l-6.6721-3.928q-2.0682-1.2176-3.2858 0.85064l-2.7763 4.716q-1.2176 2.0682 0.85064 3.2858l6.6721 3.928q2.0682 1.2176 3.2858-0.85064z" clip-path="url(#a)" fill="#fff" stroke="#fff"/>
<g clip-path="url(#a)">
<g transform="translate(432.15 674.9) rotate(-59.514) scale(.08 -.08)">
<use xlink:href="#o"/>
</g>
</g>
<path d="m483.04 672.66 2.5302 4.1069q1.2589 2.0433 3.3022 0.78445l6.5919-4.0612q2.0433-1.2589 0.78445-3.3022l-2.5302-4.1069q-1.2589-2.0433-3.3022-0.78445l-6.5919 4.0612q-2.0433 1.2589-0.78445 3.3022z" clip-path="url(#a)" fill="#fff" stroke="#fff"/>
<g clip-path="url(#a)">
<g transform="translate(486.5 670.53) rotate(58.363) scale(.08 -.08)">
<use xlink:href="#x"/>
</g>
</g>
<path d="m481.68 672.5 2.4789 4.2108q1.2176 2.0682 3.2858 0.85064l6.6721-3.928q2.0682-1.2176 0.85064-3.2858l-2.4789-4.2108q-1.2176-2.0682-3.2858-0.85064l-6.6721 3.928q-2.0682 1.2176-0.85064 3.2858z" clip-path="url(#a)" fill="#fff" stroke="#fff"/>
<g clip-path="url(#a)">
<g transform="translate(485.18 670.44) rotate(59.514) scale(.08 -.08)">
<use xlink:href="#k"/>
</g>
</g>
<path d="m730.48 529.72 1.2029-4.9098q0.57112-2.3311-1.7599-2.9022l-7.5201-1.8424q-2.3311-0.57112-2.9022 1.7599l-1.2029 4.9098q-0.57112 2.3311 1.7599 2.9022l7.5201 1.8424q2.3311 0.57112 2.9022-1.7599z" clip-path="url(#a)" fill="#fff" stroke="#fff"/>
<g clip-path="url(#a)">
<g transform="translate(726.54 528.75) rotate(-76.234) scale(.08 -.08)">
<use xlink:href="#q"/>
</g>
</g>
<path d="m759.97 529.15 0.53021-5.561q0.22779-2.3892-2.1614-2.617l-7.7075-0.73486q-2.3892-0.22779-2.617 2.1614l-0.53021 5.561q-0.22779 2.3892 2.1614 2.617l7.7075 0.73486q2.3892 0.22779 2.617-2.1614z" clip-path="url(#a)" fill="#fff" stroke="#fff"/>
<g clip-path="url(#a)">
<g transform="translate(755.93 528.76) rotate(-84.554) scale(.08 -.08)">
<use xlink:href="#r"/>
</g>
</g>
<path d="m832.68 384.2 4.067 3.0021q1.9309 1.4253 3.3562-0.50562l4.5981-6.2293q1.4253-1.9309-0.50562-3.3562l-4.067-3.0021q-1.9309-1.4253-3.3562 0.50562l-4.5981 6.2293q-1.4253 1.9309 0.50562 3.3562z" clip-path="url(#a)" fill="#fff" stroke="#fff"/>
<g clip-path="url(#a)">
<g transform="translate(835.09 380.93) rotate(36.433) scale(.08 -.08)">
<use xlink:href="#q"/>
</g>
</g>
<path d="m671.24 750.15v33.808q0 2.4 2.4 2.4h7.7425q2.4 0 2.4-2.4v-33.808q0-2.4-2.4-2.4h-7.7425q-2.4 0-2.4 2.4z" clip-path="url(#a)" fill="#fff" stroke="#fff"/>
<g clip-path="url(#a)">
<g transform="translate(675.3 750.15) rotate(90) scale(.08 -.08)">
<use xlink:href="#k"/>
<use x="44.083984" xlink:href="#e"/>
<use x="105.607422" xlink:href="#f"/>
<use x="144.970703" xlink:href="#l"/>
<use x="242.382812" xlink:href="#d"/>
<use x="270.166016" xlink:href="#g"/>
<use x="333.544922" xlink:href="#h"/>
<use x="394.824219" xlink:href="#i"/>
</g>
</g>
<path d="m729.25 750.15v33.808q0 2.4 2.4 2.4h7.7425q2.4 0 2.4-2.4v-33.808q0-2.4-2.4-2.4h-7.7425q-2.4 0-2.4 2.4z" clip-path="url(#a)" fill="#fff" stroke="#fff"/>
<g clip-path="url(#a)">
<g transform="translate(733.31 750.15) rotate(90) scale(.08 -.08)">
<use xlink:href="#k"/>
<use x="44.083984" xlink:href="#e"/>
<use x="105.607422" xlink:href="#f"/>
<use x="144.970703" xlink:href="#l"/>
<use x="242.382812" xlink:href="#d"/>
<use x="270.166016" xlink:href="#g"/>
<use x="333.544922" xlink:href="#h"/>
<use x="394.824219" xlink:href="#i"/>
</g>
</g>
<path d="m824 579.98 2.7523-4.73q1.207-2.0744-0.86736-3.2814l-6.6921-3.8939q-2.0744-1.207-3.2814 0.86736l-2.7523 4.73q-1.207 2.0744 0.86736 3.2814l6.6921 3.8939q2.0744 1.207 3.2814-0.86736z" clip-path="url(#a)" fill="#fff" stroke="#fff"/>
<g clip-path="url(#a)">
<g transform="translate(820.49 577.93) rotate(-59.806) scale(.08 -.08)">
<use xlink:href="#o"/>
</g>
</g>
<path d="m871.52 578.51 1.2959-4.9106q0.61237-2.3206-1.7082-2.9329l-7.4862-1.9755q-2.3206-0.61237-2.9329 1.7082l-1.2959 4.9106q-0.61237 2.3206 1.7082 2.9329l7.4862 1.9755q2.3206 0.61237 2.9329-1.7082z" clip-path="url(#a)" fill="#fff" stroke="#fff"/>
<g clip-path="url(#a)">
<defs>
<path id="ad" d="m53.516 70.516v-9.625q-5.6094 2.6875-10.594 4-4.9844 1.3281-9.625 1.3281-8.0469 0-12.422-3.125t-4.375-8.8906q0-4.8438 2.9062-7.3125 2.9062-2.4531 11.016-3.9688l5.9531-1.2188q11.031-2.1094 16.281-7.4062t5.25-14.172q0-10.609-7.1094-16.078-7.0938-5.4688-20.812-5.4688-5.1719 0-11.016 1.1719-5.8281 1.1719-12.078 3.4688v10.156q6-3.3594 11.766-5.0781 5.7656-1.7031 11.328-1.7031 8.4375 0 13.031 3.3125 4.5938 3.3281 4.5938 9.4844 0 5.3594-3.2969 8.3906t-10.812 4.5469l-6.0156 1.1719q-11.031 2.1875-15.969 6.875-4.9219 4.6875-4.9219 13.047 0 9.6719 6.8125 15.234t18.766 5.5625q5.1406 0 10.453-0.9375 5.3281-0.92188 10.891-2.7656z"/>
</defs>
<g transform="translate(867.59 577.48) rotate(-75.217) scale(.08 -.08)">
<use xlink:href="#ad"/>
</g>
</g>
<path d="m1022.3 482.74 5.0886 2.0136q2.2316 0.88306 3.1147-1.3486l2.8488-7.1993q0.88306-2.2316-1.3486-3.1147l-5.0886-2.0136q-2.2316-0.88306-3.1147 1.3486l-2.8488 7.1993q-0.88306 2.2316 1.3486 3.1147z" clip-path="url(#a)" fill="#fff" stroke="#fff"/>
<g clip-path="url(#a)">
<g transform="translate(1023.8 478.96) rotate(21.589) scale(.08 -.08)">
<use xlink:href="#o"/>
</g>
</g>
<path d="m812.59 785.08 10.686-32.074q0.75858-2.277-1.5184-3.0355l-7.3456-2.4472q-2.277-0.75858-3.0355 1.5184l-10.686 32.074q-0.75858 2.277 1.5184 3.0355l7.3456 2.4472q2.277 0.75858 3.0355-1.5184z" clip-path="url(#a)" fill="#fff" stroke="#fff"/>
<g clip-path="url(#a)">
<g transform="translate(808.74 783.79) rotate(-71.574) scale(.08 -.08)">
<use xlink:href="#k"/>
<use x="44.083984" xlink:href="#e"/>
<use x="105.607422" xlink:href="#f"/>
<use x="144.970703" xlink:href="#l"/>
<use x="242.382812" xlink:href="#d"/>
<use x="270.166016" xlink:href="#g"/>
<use x="333.544922" xlink:href="#h"/>
<use x="394.824219" xlink:href="#i"/>
</g>
</g>
<path d="m832.33 753 10.686 32.074q0.75858 2.277 3.0355 1.5184l7.3456-2.4472q2.277-0.75858 1.5184-3.0355l-10.686-32.074q-0.75858-2.277-3.0355-1.5184l-7.3456 2.4472q-2.277 0.75858-1.5184 3.0355z" clip-path="url(#a)" fill="#fff" stroke="#fff"/>
<g clip-path="url(#a)">
<g transform="translate(836.19 751.72) rotate(71.574) scale(.08 -.08)">
<use xlink:href="#k"/>
<use x="44.083984" xlink:href="#e"/>
<use x="105.607422" xlink:href="#f"/>
<use x="144.970703" xlink:href="#l"/>
<use x="242.382812" xlink:href="#d"/>
<use x="270.166016" xlink:href="#g"/>
<use x="333.544922" xlink:href="#h"/>
<use x="394.824219" xlink:href="#i"/>
</g>
</g>
<path d="m1055.3 581.61 4.5052-2.2927q2.139-1.0885 1.0504-3.2275l-3.5116-6.9003q-1.0885-2.1389-3.2275-1.0504l-4.5052 2.2927q-2.1389 1.0885-1.0504 3.2275l3.5116 6.9003q1.0885 2.1389 3.2275 1.0504z" clip-path="url(#a)" fill="#fff" stroke="#fff"/>
<g clip-path="url(#a)">
<g transform="translate(1053.5 577.99) rotate(-26.972) scale(.08 -.08)">
<use xlink:href="#q"/>
</g>
</g>
<path d="m1151 626.14 0.2899-5.5787q0.12455-2.3968-2.2722-2.5213l-7.7321-0.4018q-2.3968-0.12455-2.5213 2.2722l-0.2899 5.5787q-0.12455 2.3968 2.2722 2.5213l7.7321 0.4018q2.3968 0.12455 2.5213-2.2722z" clip-path="url(#a)" fill="#fff" stroke="#fff"/>
<g clip-path="url(#a)">
<g transform="translate(1146.9 625.93) rotate(-87.025) scale(.08 -.08)">
<use xlink:href="#r"/>
</g>
</g>
<path d="m1245 579.42 4.5511 2.2q2.1608 1.0445 3.2053-1.1162l3.3697-6.9708q1.0445-2.1608-1.1162-3.2053l-4.5511-2.2q-2.1608-1.0445-3.2053 1.1162l-3.3697 6.9708q-1.0445 2.1608 1.1162 3.2053z" clip-path="url(#a)" fill="#fff" stroke="#fff"/>
<g clip-path="url(#a)">
<g transform="translate(1246.7 575.76) rotate(25.799) scale(.08 -.08)">
<use xlink:href="#q"/>
</g>
</g>
<path d="m947.56 675.91 1.6952-4.7623q0.80484-2.261-1.4562-3.0659l-7.2942-2.5965q-2.261-0.80484-3.0659 1.4562l-1.6952 4.7623q-0.80484 2.261 1.4562 3.0659l7.2942 2.5965q2.261 0.80484 3.0659-1.4562z" clip-path="url(#a)" fill="#fff" stroke="#fff"/>
<g clip-path="url(#a)">
<g transform="translate(943.74 674.55) rotate(-70.406) scale(.08 -.08)">
<use xlink:href="#q"/>
</g>
</g>
<path d="m969.94 670.9 1.8734 5.2628q0.80484 2.261 3.0659 1.4562l7.2942-2.5965q2.261-0.80484 1.4562-3.0659l-1.8734-5.2628q-0.80484-2.261-3.0659-1.4562l-7.2942 2.5965q-2.261 0.80484-1.4562 3.0659z" clip-path="url(#a)" fill="#fff" stroke="#fff"/>
<g clip-path="url(#a)">
<g transform="translate(973.77 669.53) rotate(70.406) scale(.08 -.08)">
<use xlink:href="#r"/>
</g>
</g>
<path d="m1096.9 784.22 20.902-26.572q1.4838-1.8863-0.40252-3.3702l-6.0854-4.7869q-1.8863-1.4838-3.3702 0.40252l-20.902 26.572q-1.4838 1.8863 0.40252 3.3702l6.0854 4.7869q1.8863 1.4838 3.3702-0.40252z" clip-path="url(#a)" fill="#fff" stroke="#fff"/>
<g clip-path="url(#a)">
<g transform="translate(1093.8 781.71) rotate(-51.811) scale(.08 -.08)">
<use xlink:href="#k"/>
<use x="44.083984" xlink:href="#e"/>
<use x="105.607422" xlink:href="#f"/>
<use x="144.970703" xlink:href="#l"/>
<use x="242.382812" xlink:href="#d"/>
<use x="270.166016" xlink:href="#g"/>
<use x="333.544922" xlink:href="#h"/>
<use x="394.824219" xlink:href="#i"/>
</g>
</g>
<path d="m1145.5 784.02 0.31285-33.806q0.02221-2.3999-2.3777-2.4221l-7.7422-0.071648q-2.3999-0.022209-2.4221 2.3777l-0.31285 33.806q-0.02221 2.3999 2.3777 2.4221l7.7422 0.071648q2.3999 0.02221 2.4221-2.3777z" clip-path="url(#a)" fill="#fff" stroke="#fff"/>
<g clip-path="url(#a)">
<g transform="translate(1141.4 783.98) rotate(-89.47) scale(.08 -.08)">
<use xlink:href="#k"/>
<use x="44.083984" xlink:href="#e"/>
<use x="105.607422" xlink:href="#f"/>
<use x="144.970703" xlink:href="#l"/>
<use x="242.382812" xlink:href="#d"/>
<use x="270.166016" xlink:href="#g"/>
<use x="333.544922" xlink:href="#h"/>
<use x="394.824219" xlink:href="#i"/>
</g>
</g>
<path d="m1162.2 757.74 21.053 26.452q1.4945 1.8779 3.3724 0.38334l6.0581-4.8214q1.8779-1.4945 0.38334-3.3724l-21.053-26.452q-1.4945-1.8779-3.3724-0.38334l-6.0581 4.8214q-1.8779 1.4945-0.38334 3.3724z" clip-path="url(#a)" fill="#fff" stroke="#fff"/>
<g clip-path="url(#a)">
<g transform="translate(1165.4 755.21) rotate(51.485) scale(.08 -.08)">
<use xlink:href="#k"/>
<use x="44.083984" xlink:href="#e"/>
<use x="105.607422" xlink:href="#f"/>
<use x="144.970703" xlink:href="#l"/>
<use x="242.382812" xlink:href="#d"/>
<use x="270.166016" xlink:href="#g"/>
<use x="333.544922" xlink:href="#h"/>
<use x="394.824219" xlink:href="#i"/>
</g>
</g>
<path d="m1245.1 678.26 4.9756-2.2785q2.1821-0.99926 1.1828-3.1813l-3.2236-7.0395q-0.99926-2.1821-3.1813-1.1828l-4.9756 2.2785q-2.1821 0.99926-1.1828 3.1813l3.2236 7.0395q0.99926 2.1821 3.1813 1.1828z" clip-path="url(#a)" fill="#fff" stroke="#fff"/>
<g clip-path="url(#a)">
<g transform="translate(1243.4 674.57) rotate(-24.605) scale(.08 -.08)">
<use xlink:href="#o"/>
</g>
</g>
<path d="m1326.5 676.76 2.5392-4.3984q1.1999-2.0785-0.87858-3.2784l-6.7053-3.871q-2.0785-1.1999-3.2784 0.87858l-2.5392 4.3984q-1.1999 2.0785 0.87858 3.2784l6.7053 3.871q2.0785 1.1999 3.2784-0.87858z" clip-path="url(#a)" fill="#fff" stroke="#fff"/>
<g clip-path="url(#a)">
<g transform="translate(1322.9 674.73) rotate(-60.002) scale(.08 -.08)">
<use xlink:href="#ad"/>
</g>
</g>
<path d="m1377.6 672.82 3.1671 4.4629q1.389 1.9572 3.3462 0.56829l6.3142-4.4808q1.9572-1.389 0.56829-3.3462l-3.1671-4.4629q-1.389-1.9572-3.3462-0.56829l-6.3142 4.4808q-1.9572 1.389-0.56829 3.3462z" clip-path="url(#a)" fill="#fff" stroke="#fff"/>
<g clip-path="url(#a)">
<g transform="translate(1380.9 670.47) rotate(54.639) scale(.08 -.08)">
<use xlink:href="#o"/>
</g>
</g>
<path d="m1443.5 675.78 5.263 2.5656q2.1573 1.0517 3.209-1.1057l3.3927-6.9596q1.0517-2.1573-1.1057-3.209l-5.263-2.5656q-2.1573-1.0517-3.209 1.1057l-3.3927 6.9596q-1.0517 2.1573 1.1057 3.209z" clip-path="url(#a)" fill="#fff" stroke="#fff"/>
<g clip-path="url(#a)">
<g transform="translate(1445.3 672.13) rotate(25.988) scale(.08 -.08)">
<use xlink:href="#w"/>
</g>
</g>
<path d="m1288.2 750.15v33.808q0 2.4 2.4 2.4h7.7425q2.4 0 2.4-2.4v-33.808q0-2.4-2.4-2.4h-7.7425q-2.4 0-2.4 2.4z" clip-path="url(#a)" fill="#fff" stroke="#fff"/>
<g clip-path="url(#a)">
<g transform="translate(1292.3 750.15) rotate(90) scale(.08 -.08)">
<use xlink:href="#k"/>
<use x="44.083984" xlink:href="#e"/>
<use x="105.607422" xlink:href="#f"/>
<use x="144.970703" xlink:href="#l"/>
<use x="242.382812" xlink:href="#d"/>
<use x="270.166016" xlink:href="#g"/>
<use x="333.544922" xlink:href="#h"/>
<use x="394.824219" xlink:href="#i"/>
</g>
</g>
<path d="m1396.2 785.05 13.724-30.896q0.97429-2.1933-1.2191-3.1676l-7.0758-3.1431q-2.1933-0.97429-3.1676 1.2191l-13.724 30.896q-0.97429 2.1933 1.2191 3.1676l7.0758 3.1431q2.1933 0.97429 3.1676-1.2191z" clip-path="url(#a)" fill="#fff" stroke="#fff"/>
<g clip-path="url(#a)">
<g transform="translate(1392.5 783.4) rotate(-66.049) scale(.08 -.08)">
<use xlink:href="#k"/>
<use x="44.083984" xlink:href="#e"/>
<use x="105.607422" xlink:href="#f"/>
<use x="144.970703" xlink:href="#l"/>
<use x="242.382812" xlink:href="#d"/>
<use x="270.166016" xlink:href="#g"/>
<use x="333.544922" xlink:href="#h"/>
<use x="394.824219" xlink:href="#i"/>
</g>
</g>
<path d="m1426.9 754.16 13.724 30.896q0.97429 2.1933 3.1676 1.2191l7.0758-3.1431q2.1933-0.97429 1.2191-3.1676l-13.724-30.896q-0.97429-2.1933-3.1676-1.2191l-7.0758 3.1431q-2.1933 0.97429-1.2191 3.1676z" clip-path="url(#a)" fill="#fff" stroke="#fff"/>
<g clip-path="url(#a)">
<g transform="translate(1430.7 752.51) rotate(66.049) scale(.08 -.08)">
<use xlink:href="#k"/>
<use x="44.083984" xlink:href="#e"/>
<use x="105.607422" xlink:href="#f"/>
<use x="144.970703" xlink:href="#l"/>
<use x="242.382812" xlink:href="#d"/>
<use x="270.166016" xlink:href="#g"/>
<use x="333.544922" xlink:href="#h"/>
<use x="394.824219" xlink:href="#i"/>
</g>
</g>
<path d="m919.09 750.15v33.808q0 2.4 2.4 2.4h7.7425q2.4 0 2.4-2.4v-33.808q0-2.4-2.4-2.4h-7.7425q-2.4 0-2.4 2.4z" clip-path="url(#a)" fill="#fff" stroke="#fff"/>
<g clip-path="url(#a)">
<g transform="translate(923.16 750.15) rotate(90) scale(.08 -.08)">
<use xlink:href="#k"/>
<use x="44.083984" xlink:href="#e"/>
<use x="105.607422" xlink:href="#f"/>
<use x="144.970703" xlink:href="#l"/>
<use x="242.382812" xlink:href="#d"/>
<use x="270.166016" xlink:href="#g"/>
<use x="333.544922" xlink:href="#h"/>
<use x="394.824219" xlink:href="#i"/>
</g>
</g>
<path d="m987.65 750.15v33.808q0 2.4 2.4 2.4h7.7425q2.4 0 2.4-2.4v-33.808q0-2.4-2.4-2.4h-7.7425q-2.4 0-2.4 2.4z" clip-path="url(#a)" fill="#fff" stroke="#fff"/>
<g clip-path="url(#a)">
<g transform="translate(991.71 750.15) rotate(90) scale(.08 -.08)">
<use xlink:href="#k"/>
<use x="44.083984" xlink:href="#e"/>
<use x="105.607422" xlink:href="#f"/>
<use x="144.970703" xlink:href="#l"/>
<use x="242.382812" xlink:href="#d"/>
<use x="270.166016" xlink:href="#g"/>
<use x="333.544922" xlink:href="#h"/>
<use x="394.824219" xlink:href="#i"/>
</g>
</g>
<path d="m510.4 750.15v33.808q0 2.4 2.4 2.4h7.7425q2.4 0 2.4-2.4v-33.808q0-2.4-2.4-2.4h-7.7425q-2.4 0-2.4 2.4z" clip-path="url(#a)" fill="#fff" stroke="#fff"/>
<g clip-path="url(#a)">
<g transform="translate(514.46 750.15) rotate(90) scale(.08 -.08)">
<use xlink:href="#k"/>
<use x="44.083984" xlink:href="#e"/>
<use x="105.607422" xlink:href="#f"/>
<use x="144.970703" xlink:href="#l"/>
<use x="242.382812" xlink:href="#d"/>
<use x="270.166016" xlink:href="#g"/>
<use x="333.544922" xlink:href="#h"/>
<use x="394.824219" xlink:href="#i"/>
</g>
</g>
<path d="m154.44 750.15v33.808q0 2.4 2.4 2.4h7.7425q2.4 0 2.4-2.4v-33.808q0-2.4-2.4-2.4h-7.7425q-2.4 0-2.4 2.4z" clip-path="url(#a)" fill="#fff" stroke="#fff"/>
<g clip-path="url(#a)">
<g transform="translate(158.5 750.15) rotate(90) scale(.08 -.08)">
<use xlink:href="#k"/>
<use x="44.083984" xlink:href="#e"/>
<use x="105.607422" xlink:href="#f"/>
<use x="144.970703" xlink:href="#l"/>
<use x="242.382812" xlink:href="#d"/>
<use x="270.166016" xlink:href="#g"/>
<use x="333.544922" xlink:href="#h"/>
<use x="394.824219" xlink:href="#i"/>
</g>
</g>
<path d="m218.61 677.08 2.9163-4.6307q1.279-2.0308-0.75184-3.3098l-6.5515-4.126q-2.0308-1.279-3.3098 0.75184l-2.9163 4.6307q-1.279 2.0308 0.75184 3.3098l6.5515 4.126q2.0308 1.279 3.3098-0.75184z" clip-path="url(#a)" fill="#fff" stroke="#fff"/>
<g clip-path="url(#a)">
<g transform="translate(215.17 674.92) rotate(-57.798) scale(.08 -.08)">
<use xlink:href="#o"/>
</g>
</g>
<path d="m266.53 669.34 6.9231 10.993q1.279 2.0308 3.3098 0.75184l6.7694-4.2632q2.0308-1.279 0.75184-3.3098l-6.9231-10.993q-1.279-2.0308-3.3098-0.75184l-6.7694 4.2632q-2.0308 1.279-0.75184 3.3098z" clip-path="url(#a)" fill="#fff" stroke="#fff"/>
<g clip-path="url(#a)">
<defs>
<path id="ax" d="m21 76.422v-100h-8.2969v100z"/>
</defs>
<g transform="translate(270.16 667.05) rotate(57.798) scale(.08 -.08)">
<use xlink:href="#x"/>
<use x="60.302734" xlink:href="#ax"/>
<use x="93.994141" xlink:href="#o"/>
</g>
</g>
<path d="m238.35 676.6 2.3648-4.9352q1.0371-2.1643-1.1272-3.2015l-6.9823-3.3458q-2.1643-1.0371-3.2015 1.1272l-2.3648 4.9352q-1.0371 2.1643 1.1272 3.2015l6.9823 3.3458q2.1643 1.0371 3.2015-1.1272z" clip-path="url(#a)" fill="#fff" stroke="#fff"/>
<g clip-path="url(#a)">
<g transform="translate(234.69 674.85) rotate(-64.397) scale(.08 -.08)">
<use xlink:href="#o"/>
</g>
</g>
<path d="m257.64 669.97 0.71836 4.77q0.35741 2.3732 2.7306 2.0158l7.6562-1.153q2.3732-0.35741 2.0158-2.7306l-0.71836-4.77q-0.35741-2.3732-2.7306-2.0158l-7.6562 1.153q-2.3732 0.35741-2.0158 2.7306z" clip-path="url(#a)" fill="#fff" stroke="#fff"/>
<g clip-path="url(#a)">
<g transform="translate(261.66 669.37) rotate(81.436) scale(.08 -.08)">
<use xlink:href="#x"/>
</g>
</g>
<path d="m254.04 675.4 1.026-5.7644q0.42055-2.3629-1.9423-2.7834l-7.6227-1.3567q-2.3629-0.42055-2.7834 1.9423l-1.026 5.7644q-0.42055 2.3629 1.9423 2.7834l7.6227 1.3567q2.3629 0.42055 2.7834-1.9423z" clip-path="url(#a)" fill="#fff" stroke="#fff"/>
<g clip-path="url(#a)">
<g transform="translate(250.04 674.69) rotate(-79.908) scale(.08 -.08)">
<use xlink:href="#w"/>
</g>
</g>
<path d="m274.51 671.82 2.473 4.8819q1.0845 2.141 3.2255 1.0564l6.9069-3.4988q2.141-1.0845 1.0564-3.2255l-2.473-4.8819q-1.0845-2.141-3.2255-1.0564l-6.9069 3.4988q-2.141 1.0845-1.0564 3.2255z" clip-path="url(#a)" fill="#fff" stroke="#fff"/>
<g clip-path="url(#a)">
<g transform="translate(278.13 669.98) rotate(63.135) scale(.08 -.08)">
<use xlink:href="#o"/>
</g>
</g>
<path d="m204.54 750.15v33.808q0 2.4 2.4 2.4h7.7425q2.4 0 2.4-2.4v-33.808q0-2.4-2.4-2.4h-7.7425q-2.4 0-2.4 2.4z" clip-path="url(#a)" fill="#fff" stroke="#fff"/>
<g clip-path="url(#a)">
<g transform="translate(208.6 750.15) rotate(90) scale(.08 -.08)">
<use xlink:href="#k"/>
<use x="44.083984" xlink:href="#e"/>
<use x="105.607422" xlink:href="#f"/>
<use x="144.970703" xlink:href="#l"/>
<use x="242.382812" xlink:href="#d"/>
<use x="270.166016" xlink:href="#g"/>
<use x="333.544922" xlink:href="#h"/>
<use x="394.824219" xlink:href="#i"/>
</g>
</g>
<path d="m265.18 750.15v33.808q0 2.4 2.4 2.4h7.7425q2.4 0 2.4-2.4v-33.808q0-2.4-2.4-2.4h-7.7425q-2.4 0-2.4 2.4z" clip-path="url(#a)" fill="#fff" stroke="#fff"/>
<g clip-path="url(#a)">
<g transform="translate(269.25 750.15) rotate(90) scale(.08 -.08)">
<use xlink:href="#k"/>
<use x="44.083984" xlink:href="#e"/>
<use x="105.607422" xlink:href="#f"/>
<use x="144.970703" xlink:href="#l"/>
<use x="242.382812" xlink:href="#d"/>
<use x="270.166016" xlink:href="#g"/>
<use x="333.544922" xlink:href="#h"/>
<use x="394.824219" xlink:href="#i"/>
</g>
</g>
<path d="m233.54 750.15v33.808q0 2.4 2.4 2.4h7.7425q2.4 0 2.4-2.4v-33.808q0-2.4-2.4-2.4h-7.7425q-2.4 0-2.4 2.4z" clip-path="url(#a)" fill="#fff" stroke="#fff"/>
<g clip-path="url(#a)">
<g transform="translate(237.6 750.15) rotate(90) scale(.08 -.08)">
<use xlink:href="#k"/>
<use x="44.083984" xlink:href="#e"/>
<use x="105.607422" xlink:href="#f"/>
<use x="144.970703" xlink:href="#l"/>
<use x="242.382812" xlink:href="#d"/>
<use x="270.166016" xlink:href="#g"/>
<use x="333.544922" xlink:href="#h"/>
<use x="394.824219" xlink:href="#i"/>
</g>
</g>
<path d="m178.17 750.15v33.808q0 2.4 2.4 2.4h7.7425q2.4 0 2.4-2.4v-33.808q0-2.4-2.4-2.4h-7.7425q-2.4 0-2.4 2.4z" clip-path="url(#a)" fill="#fff" stroke="#fff"/>
<g clip-path="url(#a)">
<g transform="translate(182.23 750.15) rotate(90) scale(.08 -.08)">
<use xlink:href="#k"/>
<use x="44.083984" xlink:href="#e"/>
<use x="105.607422" xlink:href="#f"/>
<use x="144.970703" xlink:href="#l"/>
<use x="242.382812" xlink:href="#d"/>
<use x="270.166016" xlink:href="#g"/>
<use x="333.544922" xlink:href="#h"/>
<use x="394.824219" xlink:href="#i"/>
</g>
</g>
<path d="m299.46 750.15v33.808q0 2.4 2.4 2.4h7.7425q2.4 0 2.4-2.4v-33.808q0-2.4-2.4-2.4h-7.7425q-2.4 0-2.4 2.4z" clip-path="url(#a)" fill="#fff" stroke="#fff"/>
<g clip-path="url(#a)">
<g transform="translate(303.52 750.15) rotate(90) scale(.08 -.08)">
<use xlink:href="#k"/>
<use x="44.083984" xlink:href="#e"/>
<use x="105.607422" xlink:href="#f"/>
<use x="144.970703" xlink:href="#l"/>
<use x="242.382812" xlink:href="#d"/>
<use x="270.166016" xlink:href="#g"/>
<use x="333.544922" xlink:href="#h"/>
<use x="394.824219" xlink:href="#i"/>
</g>
</g>
<path d="m99.067 750.15v33.808q0 2.4 2.4 2.4h7.7425q2.4 0 2.4-2.4v-33.808q0-2.4-2.4-2.4h-7.7425q-2.4 0-2.4 2.4z" clip-path="url(#a)" fill="#fff" stroke="#fff"/>
<g clip-path="url(#a)">
<g transform="translate(103.13 750.15) rotate(90) scale(.08 -.08)">
<use xlink:href="#k"/>
<use x="44.083984" xlink:href="#e"/>
<use x="105.607422" xlink:href="#f"/>
<use x="144.970703" xlink:href="#l"/>
<use x="242.382812" xlink:href="#d"/>
<use x="270.166016" xlink:href="#g"/>
<use x="333.544922" xlink:href="#h"/>
<use x="394.824219" xlink:href="#i"/>
</g>
</g>
<path d="m130.38 784.49 3.2697-33.649q0.23211-2.3887-2.1566-2.6209l-7.7062-0.74881q-2.3888-0.23211-2.6209 2.1566l-3.2697 33.649q-0.23211 2.3887 2.1566 2.6209l7.7062 0.74881q2.3888 0.23211 2.6209-2.1566z" clip-path="url(#a)" fill="#fff" stroke="#fff"/>
<g clip-path="url(#a)">
<g transform="translate(126.33 784.1) rotate(-84.45) scale(.08 -.08)">
<use xlink:href="#k"/>
<use x="44.083984" xlink:href="#e"/>
<use x="105.607422" xlink:href="#f"/>
<use x="144.970703" xlink:href="#l"/>
<use x="242.382812" xlink:href="#d"/>
<use x="270.166016" xlink:href="#g"/>
<use x="333.544922" xlink:href="#h"/>
<use x="394.824219" xlink:href="#i"/>
</g>
</g>
<path d="m127.12 750.84 3.2697 33.649q0.23211 2.3887 2.6209 2.1566l7.7062-0.74881q2.3887-0.23211 2.1566-2.6209l-3.2697-33.649q-0.23211-2.3888-2.6209-2.1566l-7.7062 0.74881q-2.3888 0.23211-2.1566 2.6209z" clip-path="url(#a)" fill="#fff" stroke="#fff"/>
<g clip-path="url(#a)">
<g transform="translate(131.17 750.45) rotate(84.45) scale(.08 -.08)">
<use xlink:href="#k"/>
<use x="44.083984" xlink:href="#e"/>
<use x="105.607422" xlink:href="#f"/>
<use x="144.970703" xlink:href="#l"/>
<use x="242.382812" xlink:href="#d"/>
<use x="270.166016" xlink:href="#g"/>
<use x="333.544922" xlink:href="#h"/>
<use x="394.824219" xlink:href="#i"/>
</g>
</g>
<path d="m462.94 750.15v33.808q0 2.4 2.4 2.4h7.7425q2.4 0 2.4-2.4v-33.808q0-2.4-2.4-2.4h-7.7425q-2.4 0-2.4 2.4z" clip-path="url(#a)" fill="#fff" stroke="#fff"/>
<g clip-path="url(#a)">
<g transform="translate(467 750.15) rotate(90) scale(.08 -.08)">
<use xlink:href="#k"/>
<use x="44.083984" xlink:href="#e"/>
<use x="105.607422" xlink:href="#f"/>
<use x="144.970703" xlink:href="#l"/>
<use x="242.382812" xlink:href="#d"/>
<use x="270.166016" xlink:href="#g"/>
<use x="333.544922" xlink:href="#h"/>
<use x="394.824219" xlink:href="#i"/>
</g>
</g>
<path d="m563.13 750.15v33.808q0 2.4 2.4 2.4h7.7425q2.4 0 2.4-2.4v-33.808q0-2.4-2.4-2.4h-7.7425q-2.4 0-2.4 2.4z" clip-path="url(#a)" fill="#fff" stroke="#fff"/>
<g clip-path="url(#a)">
<g transform="translate(567.2 750.15) rotate(90) scale(.08 -.08)">
<use xlink:href="#k"/>
<use x="44.083984" xlink:href="#e"/>
<use x="105.607422" xlink:href="#f"/>
<use x="144.970703" xlink:href="#l"/>
<use x="242.382812" xlink:href="#d"/>
<use x="270.166016" xlink:href="#g"/>
<use x="333.544922" xlink:href="#h"/>
<use x="394.824219" xlink:href="#i"/>
</g>
</g>
<path d="m615.87 750.15v33.808q0 2.4 2.4 2.4h7.7425q2.4 0 2.4-2.4v-33.808q0-2.4-2.4-2.4h-7.7425q-2.4 0-2.4 2.4z" clip-path="url(#a)" fill="#fff" stroke="#fff"/>
<g clip-path="url(#a)">
<g transform="translate(619.93 750.15) rotate(90) scale(.08 -.08)">
<use xlink:href="#k"/>
<use x="44.083984" xlink:href="#e"/>
<use x="105.607422" xlink:href="#f"/>
<use x="144.970703" xlink:href="#l"/>
<use x="242.382812" xlink:href="#d"/>
<use x="270.166016" xlink:href="#g"/>
<use x="333.544922" xlink:href="#h"/>
<use x="394.824219" xlink:href="#i"/>
</g>
</g>
<path d="m1541.4 750.15v33.808q0 2.4 2.4 2.4h7.7425q2.4 0 2.4-2.4v-33.808q0-2.4-2.4-2.4h-7.7425q-2.4 0-2.4 2.4z" clip-path="url(#a)" fill="#fff" stroke="#fff"/>
<g clip-path="url(#a)">
<g transform="translate(1545.4 750.15) rotate(90) scale(.08 -.08)">
<use xlink:href="#k"/>
<use x="44.083984" xlink:href="#e"/>
<use x="105.607422" xlink:href="#f"/>
<use x="144.970703" xlink:href="#l"/>
<use x="242.382812" xlink:href="#d"/>
<use x="270.166016" xlink:href="#g"/>
<use x="333.544922" xlink:href="#h"/>
<use x="394.824219" xlink:href="#i"/>
</g>
</g>
<defs>
<path id="b" d="m0 8.6603c2.2967 0 4.4997-0.9125 6.1237-2.5365 1.624-1.624 2.5365-3.827 2.5365-6.1237s-0.9125-4.4997-2.5365-6.1237c-1.624-1.624-3.827-2.5365-6.1237-2.5365s-4.4997 0.9125-6.1237 2.5365c-1.624 1.624-2.5365 3.827-2.5365 6.1237s0.9125 4.4997 2.5365 6.1237c1.624 1.624 3.827 2.5365 6.1237 2.5365z"/>
</defs>
<g clip-path="url(#a)">
<use x="73.69697" y="814.545455" fill="#ffffff" stroke="#ffffff" xlink:href="#b"/>
</g>
<g clip-path="url(#a)">
<use x="81.607199" y="814.545455" fill="#ffffff" stroke="#ffffff" xlink:href="#b"/>
</g>
<g clip-path="url(#a)">
<use x="92.154171" y="814.545455" fill="#ffffff" stroke="#ffffff" xlink:href="#b"/>
</g>
<g clip-path="url(#a)">
<use x="105.337887" y="814.545455" fill="#ffffff" stroke="#ffffff" xlink:href="#b"/>
</g>
<g clip-path="url(#a)">
<use x="121.158346" y="814.545455" fill="#ffffff" stroke="#ffffff" xlink:href="#b"/>
</g>
<g clip-path="url(#a)">
<use x="139.615547" y="814.545455" fill="#ffffff" stroke="#ffffff" xlink:href="#b"/>
</g>
<g clip-path="url(#a)">
<use x="160.709492" y="814.545455" fill="#ffffff" stroke="#ffffff" xlink:href="#b"/>
</g>
<g clip-path="url(#a)">
<use x="184.44018" y="814.545455" fill="#ffffff" stroke="#ffffff" xlink:href="#b"/>
</g>
<g clip-path="url(#a)">
<use x="210.807611" y="814.545455" fill="#ffffff" stroke="#ffffff" xlink:href="#b"/>
</g>
<g clip-path="url(#a)">
<use x="239.811785" y="814.545455" fill="#ffffff" stroke="#ffffff" xlink:href="#b"/>
</g>
<g clip-path="url(#a)">
<use x="271.452702" y="814.545455" fill="#ffffff" stroke="#ffffff" xlink:href="#b"/>
</g>
<g clip-path="url(#a)">
<use x="305.730363" y="814.545455" fill="#ffffff" stroke="#ffffff" xlink:href="#b"/>
</g>
<g clip-path="url(#a)">
<use x="342.644766" y="814.545455" fill="#ffffff" stroke="#ffffff" xlink:href="#b"/>
</g>
<g clip-path="url(#a)">
<use x="382.195913" y="814.545455" fill="#ffffff" stroke="#ffffff" xlink:href="#b"/>
</g>
<g clip-path="url(#a)">
<use x="424.383802" y="814.545455" fill="#ffffff" stroke="#ffffff" xlink:href="#b"/>
</g>
<g clip-path="url(#a)">
<use x="469.208435" y="814.545455" fill="#ffffff" stroke="#ffffff" xlink:href="#b"/>
</g>
<g clip-path="url(#a)">
<use x="516.669811" y="814.545455" fill="#ffffff" stroke="#ffffff" xlink:href="#b"/>
</g>
<g clip-path="url(#a)">
<use x="569.404673" y="814.545455" fill="#ffffff" stroke="#ffffff" xlink:href="#b"/>
</g>
<g clip-path="url(#a)">
<use x="622.139535" y="814.545455" fill="#ffffff" stroke="#ffffff" xlink:href="#b"/>
</g>
<g clip-path="url(#a)">
<use x="677.51114" y="814.545455" fill="#ffffff" stroke="#ffffff" xlink:href="#b"/>
</g>
<g clip-path="url(#a)">
<use x="735.519488" y="814.545455" fill="#ffffff" stroke="#ffffff" xlink:href="#b"/>
</g>
<g clip-path="url(#a)">
<use x="796.16458" y="814.545455" fill="#ffffff" stroke="#ffffff" xlink:href="#b"/>
</g>
<g clip-path="url(#a)">
<use x="859.446414" y="814.545455" fill="#ffffff" stroke="#ffffff" xlink:href="#b"/>
</g>
<g clip-path="url(#a)">
<use x="925.364992" y="814.545455" fill="#ffffff" stroke="#ffffff" xlink:href="#b"/>
</g>
<g clip-path="url(#a)">
<use x="993.920312" y="814.545455" fill="#ffffff" stroke="#ffffff" xlink:href="#b"/>
</g>
<g clip-path="url(#a)">
<use x="1065.112376" y="814.545455" fill="#ffffff" stroke="#ffffff" xlink:href="#b"/>
</g>
<g clip-path="url(#a)">
<use x="1138.941183" y="814.545455" fill="#ffffff" stroke="#ffffff" xlink:href="#b"/>
</g>
<g clip-path="url(#a)">
<use x="1215.406733" y="814.545455" fill="#ffffff" stroke="#ffffff" xlink:href="#b"/>
</g>
<g clip-path="url(#a)">
<use x="1294.509026" y="814.545455" fill="#ffffff" stroke="#ffffff" xlink:href="#b"/>
</g>
<g clip-path="url(#a)">
<use x="1376.248062" y="814.545455" fill="#ffffff" stroke="#ffffff" xlink:href="#b"/>
</g>
<g clip-path="url(#a)">
<use x="1460.623841" y="814.545455" fill="#ffffff" stroke="#ffffff" xlink:href="#b"/>
</g>
<g clip-path="url(#a)">
<use x="1547.636364" y="814.545455" fill="#ffffff" stroke="#ffffff" xlink:href="#b"/>
</g>
<g clip-path="url(#a)">
<use x="519.306554" y="719.571365" fill="#ffffff" stroke="#ffffff" xlink:href="#b"/>
</g>
<g clip-path="url(#a)">
<use x="143.254206" y="38.787879" fill="#ffffff" stroke="#ffffff" xlink:href="#b"/>
</g>
<g clip-path="url(#a)">
<use x="204.901213" y="136.663366" fill="#ffffff" stroke="#ffffff" xlink:href="#b"/>
</g>
<g clip-path="url(#a)">
<use x="81.607199" y="719.571365" fill="#ffffff" stroke="#ffffff" xlink:href="#b"/>
</g>
<g clip-path="url(#a)">
<use x="73.69697" y="719.571365" fill="#ffffff" stroke="#ffffff" xlink:href="#b"/>
</g>
<g clip-path="url(#a)">
<use x="92.154171" y="719.571365" fill="#ffffff" stroke="#ffffff" xlink:href="#b"/>
</g>
<g clip-path="url(#a)">
<use x="117.862417" y="623.276082" fill="#ffffff" stroke="#ffffff" xlink:href="#b"/>
</g>
<g clip-path="url(#a)">
<use x="220.915126" y="526.475738" fill="#ffffff" stroke="#ffffff" xlink:href="#b"/>
</g>
<g clip-path="url(#a)">
<use x="519.877383" y="234.398654" fill="#ffffff" stroke="#ffffff" xlink:href="#b"/>
</g>
<g clip-path="url(#a)">
<use x="342.644766" y="719.571365" fill="#ffffff" stroke="#ffffff" xlink:href="#b"/>
</g>
<g clip-path="url(#a)">
<use x="403.289857" y="719.571365" fill="#ffffff" stroke="#ffffff" xlink:href="#b"/>
</g>
<g clip-path="url(#a)">
<use x="459.979834" y="623.276082" fill="#ffffff" stroke="#ffffff" xlink:href="#b"/>
</g>
<g clip-path="url(#a)">
<use x="772.474582" y="331.970428" fill="#ffffff" stroke="#ffffff" xlink:href="#b"/>
</g>
<g clip-path="url(#a)">
<use x="677.51114" y="719.571365" fill="#ffffff" stroke="#ffffff" xlink:href="#b"/>
</g>
<g clip-path="url(#a)">
<use x="735.519488" y="719.571365" fill="#ffffff" stroke="#ffffff" xlink:href="#b"/>
</g>
<g clip-path="url(#a)">
<use x="904.393118" y="429.345941" fill="#ffffff" stroke="#ffffff" xlink:href="#b"/>
</g>
<g clip-path="url(#a)">
<use x="827.805497" y="719.571365" fill="#ffffff" stroke="#ffffff" xlink:href="#b"/>
</g>
<g clip-path="url(#a)">
<use x="1149.85437" y="526.475738" fill="#ffffff" stroke="#ffffff" xlink:href="#b"/>
</g>
<g clip-path="url(#a)">
<use x="959.642652" y="623.276082" fill="#ffffff" stroke="#ffffff" xlink:href="#b"/>
</g>
<g clip-path="url(#a)">
<use x="1139.820097" y="719.571365" fill="#ffffff" stroke="#ffffff" xlink:href="#b"/>
</g>
<g clip-path="url(#a)">
<use x="1350.10036" y="623.276082" fill="#ffffff" stroke="#ffffff" xlink:href="#b"/>
</g>
<g clip-path="url(#a)">
<use x="1294.509026" y="719.571365" fill="#ffffff" stroke="#ffffff" xlink:href="#b"/>
</g>
<g clip-path="url(#a)">
<use x="1418.435952" y="719.571365" fill="#ffffff" stroke="#ffffff" xlink:href="#b"/>
</g>
<g clip-path="url(#a)">
<use x="925.364992" y="719.571365" fill="#ffffff" stroke="#ffffff" xlink:href="#b"/>
</g>
<g clip-path="url(#a)">
<use x="993.920312" y="719.571365" fill="#ffffff" stroke="#ffffff" xlink:href="#b"/>
</g>
<g clip-path="url(#a)">
<use x="516.669811" y="719.571365" fill="#ffffff" stroke="#ffffff" xlink:href="#b"/>
</g>
<g clip-path="url(#a)">
<use x="160.709492" y="719.571365" fill="#ffffff" stroke="#ffffff" xlink:href="#b"/>
</g>
<g clip-path="url(#a)">
<use x="245.085271" y="623.276082" fill="#ffffff" stroke="#ffffff" xlink:href="#b"/>
</g>
<g clip-path="url(#a)">
<use x="256.950615" y="623.276082" fill="#ffffff" stroke="#ffffff" xlink:href="#b"/>
</g>
<g clip-path="url(#a)">
<use x="210.807611" y="719.571365" fill="#ffffff" stroke="#ffffff" xlink:href="#b"/>
</g>
<g clip-path="url(#a)">
<use x="271.452702" y="719.571365" fill="#ffffff" stroke="#ffffff" xlink:href="#b"/>
</g>
<g clip-path="url(#a)">
<use x="239.811785" y="719.571365" fill="#ffffff" stroke="#ffffff" xlink:href="#b"/>
</g>
<g clip-path="url(#a)">
<use x="184.44018" y="719.571365" fill="#ffffff" stroke="#ffffff" xlink:href="#b"/>
</g>
<g clip-path="url(#a)">
<use x="305.730363" y="719.571365" fill="#ffffff" stroke="#ffffff" xlink:href="#b"/>
</g>
<g clip-path="url(#a)">
<use x="105.337887" y="719.571365" fill="#ffffff" stroke="#ffffff" xlink:href="#b"/>
</g>
<g clip-path="url(#a)">
<use x="130.386946" y="719.571365" fill="#ffffff" stroke="#ffffff" xlink:href="#b"/>
</g>
<g clip-path="url(#a)">
<use x="469.208435" y="719.571365" fill="#ffffff" stroke="#ffffff" xlink:href="#b"/>
</g>
<g clip-path="url(#a)">
<use x="569.404673" y="719.571365" fill="#ffffff" stroke="#ffffff" xlink:href="#b"/>
</g>
<g clip-path="url(#a)">
<use x="622.139535" y="719.571365" fill="#ffffff" stroke="#ffffff" xlink:href="#b"/>
</g>
<g clip-path="url(#a)">
<use x="1547.636364" y="719.571365" fill="#ffffff" stroke="#ffffff" xlink:href="#b"/>
</g>
<g clip-path="url(#a)">
<defs>
<path id="ap" d="m9.8125 72.906h9.8594v-67.828q0-13.188-5-19.141t-16.094-5.9531h-3.75v8.2969h3.0781q6.5312 0 9.2188 3.6719 2.6875 3.6562 2.6875 13.125z"/>
<path id="p" d="m30.609 48.391q-7.2188 0-11.422-5.6406t-4.2031-15.453 4.1719-15.453q4.1875-5.6406 11.453-5.6406 7.1875 0 11.375 5.6562 4.2031 5.6719 4.2031 15.438 0 9.7188-4.2031 15.406-4.1875 5.6875-11.375 5.6875zm0 7.6094q11.719 0 18.406-7.625 6.7031-7.6094 6.7031-21.078 0-13.422-6.7031-21.078-6.6875-7.6406-18.406-7.6406-11.766 0-18.438 7.6406-6.6562 7.6562-6.6562 21.078 0 13.469 6.6562 21.078 6.6719 7.625 18.438 7.625z"/>
</defs>
<g transform="translate(63.308 817.3) scale(.1 -.1)">
<use xlink:href="#ap"/>
<use x="29.492188" xlink:href="#p"/>
<use x="90.673828" xlink:href="#i"/>
<use x="118.457031" xlink:href="#d"/>
<use x="146.240234" xlink:href="#e"/>
</g>
</g>
<g clip-path="url(#a)">
<defs>
<path id="t" d="m18.312 70.219v-15.531h18.5v-6.9844h-18.5v-29.688q0-6.6875 1.8281-8.5938t7.4531-1.9062h9.2188v-7.5156h-9.2188q-10.406 0-14.359 3.875-3.9531 3.8906-3.9531 14.141v29.688h-6.5938v6.9844h6.5938v15.531z"/>
<path id="y" d="m54.891 33.016v-33.016h-8.9844v32.719q0 7.7656-3.0312 11.609-3.0312 3.8594-9.0781 3.8594-7.2812 0-11.484-4.6406-4.2031-4.625-4.2031-12.641v-30.906h-9.0312v75.984h9.0312v-29.797q3.2344 4.9375 7.5938 7.375 4.375 2.4375 10.094 2.4375 9.4219 0 14.25-5.8281 4.8438-5.8281 4.8438-17.156z"/>
</defs>
<g transform="translate(70.233 817.3) scale(.1 -.1)">
<use xlink:href="#t"/>
<use x="39.208984" xlink:href="#y"/>
<use x="102.587891" xlink:href="#e"/>
<use x="164.111328" xlink:href="#g"/>
</g>
</g>
<g clip-path="url(#a)">
<defs>
<path id="u" d="m44.281 53.078v-8.5q-3.7969 1.9531-7.9062 2.9219-4.0938 0.98438-8.5 0.98438-6.6875 0-10.031-2.0469t-3.3438-6.1562q0-3.125 2.3906-4.9062t9.625-3.3906l3.0781-0.6875q9.5625-2.0469 13.594-5.7812t4.0312-10.422q0-7.625-6.0312-12.078-6.0312-4.4375-16.578-4.4375-4.3906 0-9.1562 0.85938t-10.031 2.5625v9.2812q4.9844-2.5938 9.8125-3.8906 4.8281-1.2812 9.5781-1.2812 6.3438 0 9.75 2.1719 3.4219 2.1719 3.4219 6.125 0 3.6562-2.4688 5.6094-2.4531 1.9531-10.812 3.7656l-3.125 0.73438q-8.3438 1.75-12.062 5.3906-3.7031 3.6406-3.7031 9.9844 0 7.7188 5.4688 11.906 5.4688 4.2031 15.531 4.2031 4.9688 0 9.3594-0.73438 4.4062-0.71875 8.1094-2.1875z"/>
<path id="z" d="m45.406 46.391v29.594h8.9844v-75.984h-8.9844v8.2031q-2.8281-4.875-7.1562-7.25-4.3125-2.375-10.375-2.375-9.9062 0-16.141 7.9062-6.2188 7.9219-6.2188 20.812t6.2188 20.797q6.2344 7.9062 16.141 7.9062 6.0625 0 10.375-2.375 4.3281-2.3594 7.1562-7.2344zm-30.609-19.094q0-9.9062 4.0781-15.547t11.203-5.6406 11.219 5.6406q4.1094 5.6406 4.1094 15.547t-4.1094 15.547q-4.0938 5.6406-11.219 5.6406t-11.203-5.6406-4.0781-15.547z"/>
</defs>
<g transform="translate(74.364 817.3) scale(.1 -.1)">
<use xlink:href="#u"/>
<use x="52.099609" xlink:href="#t"/>
<use x="91.308594" xlink:href="#h"/>
<use x="152.587891" xlink:href="#f"/>
<use x="191.951172" xlink:href="#f"/>
<use x="230.814453" xlink:href="#e"/>
<use x="292.337891" xlink:href="#z"/>
</g>
</g>
<g clip-path="url(#a)">
<defs>
<path id="al" d="m18.109 8.2031v-29h-9.0312v75.484h9.0312v-8.2969q2.8438 4.875 7.1562 7.2344 4.3281 2.375 10.328 2.375 9.9688 0 16.188-7.9062 6.2344-7.9062 6.2344-20.797t-6.2344-20.812q-6.2188-7.9062-16.188-7.9062-6 0-10.328 2.375-4.3125 2.375-7.1562 7.25zm30.578 19.094q0 9.9062-4.0781 15.547t-11.203 5.6406q-7.1406 0-11.219-5.6406t-4.0781-15.547 4.0781-15.547 11.219-5.6406q7.125 0 11.203 5.6406t4.0781 15.547z"/>
</defs>
<g transform="translate(83.84 817.3) scale(.1 -.1)">
<use xlink:href="#p"/>
<use x="61.181641" xlink:href="#al"/>
<use x="124.658203" xlink:href="#al"/>
<use x="188.134766" xlink:href="#p"/>
<use x="249.316406" xlink:href="#u"/>
<use x="301.416016" xlink:href="#d"/>
<use x="329.199219" xlink:href="#t"/>
<use x="368.408203" xlink:href="#e"/>
</g>
</g>
<g clip-path="url(#a)">
<g transform="translate(101.93 817.3) scale(.1 -.1)">
<use xlink:href="#o"/>
<use x="68.408203" xlink:href="#g"/>
<use x="131.787109" xlink:href="#t"/>
<use x="170.996094" xlink:href="#p"/>
<use x="232.177734" xlink:href="#g"/>
<use x="295.556641" xlink:href="#d"/>
<use x="323.339844" xlink:href="#p"/>
</g>
</g>
<g clip-path="url(#a)">
<defs>
<path id="as" d="m19.672 34.812v-26.703h15.828q7.9531 0 11.781 3.2969 3.8438 3.2969 3.8438 10.078 0 6.8438-3.8438 10.078-3.8281 3.25-11.781 3.25zm0 29.984v-21.969h14.609q7.2188 0 10.75 2.7031 3.5469 2.7188 3.5469 8.2812 0 5.5156-3.5469 8.25-3.5312 2.7344-10.75 2.7344zm-9.8594 8.1094h25.203q11.281 0 17.375-4.6875 6.1094-4.6875 6.1094-13.328 0-6.7031-3.125-10.656t-9.1875-4.9219q7.2812-1.5625 11.312-6.5312 4.0312-4.9531 4.0312-12.375 0-9.7656-6.6406-15.094-6.6406-5.3125-18.906-5.3125h-26.172z"/>
</defs>
<g transform="translate(115.98 817.3) scale(.1 -.1)">
<use xlink:href="#as"/>
<use x="68.603516" xlink:href="#h"/>
<use x="129.882812" xlink:href="#g"/>
<use x="193.261719" xlink:href="#z"/>
<use x="256.738281" xlink:href="#e"/>
<use x="318.261719" xlink:href="#f"/>
<use x="359.375" xlink:href="#h"/>
<use x="420.654297" xlink:href="#u"/>
</g>
</g>
<g clip-path="url(#a)">
<g transform="translate(155.04 817.3) scale(.1 -.1)">
<use xlink:href="#h"/>
<use x="61.279297" xlink:href="#u"/>
</g>
</g>
<g clip-path="url(#a)">
<g transform="translate(177.28 817.3) scale(.1 -.1)">
<use xlink:href="#y"/>
<use x="63.378906" xlink:href="#d"/>
<use x="91.162109" xlink:href="#u"/>
</g>
</g>
<g clip-path="url(#a)">
<g transform="translate(200.1 817.3) scale(.1 -.1)">
<use xlink:href="#l"/>
<use x="97.412109" xlink:href="#h"/>
<use x="158.691406" xlink:href="#d"/>
<use x="186.474609" xlink:href="#i"/>
</g>
</g>
<g clip-path="url(#a)">
<defs>
<path id="at" d="m4.8906 31.391h26.312v-8h-26.312z"/>
</defs>
<g transform="translate(238.01 817.3) scale(.1 -.1)">
<use xlink:href="#at"/>
</g>
</g>
<g clip-path="url(#a)">
<g transform="translate(258.12 817.3) scale(.1 -.1)">
<use xlink:href="#p"/>
<use x="61.181641" xlink:href="#f"/>
<use x="100.544922" xlink:href="#z"/>
<use x="164.021484" xlink:href="#e"/>
<use x="225.544922" xlink:href="#f"/>
</g>
</g>
<g clip-path="url(#a)">
<defs>
<path id="ac" d="m48.688 27.297q0 9.9062-4.0781 15.547t-11.203 5.6406q-7.1406 0-11.219-5.6406t-4.0781-15.547 4.0781-15.547 11.219-5.6406q7.125 0 11.203 5.6406t4.0781 15.547zm-30.578 19.094q2.8438 4.875 7.1562 7.2344 4.3281 2.375 10.328 2.375 9.9688 0 16.188-7.9062 6.2344-7.9062 6.2344-20.797t-6.2344-20.812q-6.2188-7.9062-16.188-7.9062-6 0-10.328 2.375-4.3125 2.375-7.1562 7.25v-8.2031h-9.0312v75.984h9.0312z"/>
</defs>
<g transform="translate(292.86 817.3) scale(.1 -.1)">
<use xlink:href="#ac"/>
<use x="63.476562" xlink:href="#f"/>
<use x="104.589844" xlink:href="#d"/>
<use x="132.373047" xlink:href="#z"/>
<use x="195.849609" xlink:href="#e"/>
</g>
</g>
<g clip-path="url(#a)">
<g transform="translate(338.09 817.3) scale(.1 -.1)">
<use xlink:href="#d"/>
<use x="27.783203" xlink:href="#g"/>
</g>
</g>
<g clip-path="url(#a)">
<defs>
<path id="an" d="m39.406 66.219q-10.75 0-17.078-8.0156-6.3125-8-6.3125-21.828 0-13.766 6.3125-21.781 6.3281-8 17.078-8 10.734 0 17.016 8 6.2812 8.0156 6.2812 21.781 0 13.828-6.2812 21.828-6.2812 8.0156-17.016 8.0156zm0 8q15.328 0 24.5-10.281 9.1875-10.281 9.1875-27.562 0-17.234-9.1875-27.516-9.1719-10.281-24.5-10.281-15.375 0-24.594 10.25-9.2031 10.266-9.2031 27.547t9.2031 27.562q9.2188 10.281 24.594 10.281z"/>
<path id="bc" d="m45.406 27.984q0 9.7656-4.0312 15.125-4.0156 5.375-11.297 5.375-7.2188 0-11.25-5.375-4.0312-5.3594-4.0312-15.125 0-9.7188 4.0312-15.094t11.25-5.375q7.2812 0 11.297 5.375 4.0312 5.375 4.0312 15.094zm8.9844-21.203q0-13.953-6.2031-20.766-6.1875-6.8125-18.984-6.8125-4.7344 0-8.9375 0.70312t-8.1562 2.1719v8.7344q3.9531-2.1406 7.8125-3.1562 3.8594-1.0312 7.8594-1.0312 8.8438 0 13.234 4.6094t4.3906 13.938v4.4531q-2.7812-4.8438-7.125-7.2344t-10.406-2.3906q-10.047 0-16.203 7.6562-6.1562 7.6719-6.1562 20.328 0 12.688 6.1562 20.344 6.1562 7.6719 16.203 7.6719 6.0625 0 10.406-2.3906t7.125-7.2188v8.2969h8.9844z"/>
</defs>
<g transform="translate(362.63 817.3) scale(.1 -.1)">
<use xlink:href="#an"/>
<use x="78.710938" xlink:href="#f"/>
<use x="119.824219" xlink:href="#d"/>
<use x="147.607422" xlink:href="#bc"/>
<use x="211.083984" xlink:href="#d"/>
<use x="238.867188" xlink:href="#g"/>
<use x="302.246094" xlink:href="#h"/>
<use x="363.525391" xlink:href="#i"/>
</g>
</g>
<g clip-path="url(#a)">
<g transform="translate(416.65 817.3) scale(.1 -.1)">
<use xlink:href="#ad"/>
<use x="63.476562" xlink:href="#d"/>
<use x="91.259766" xlink:href="#g"/>
</g>
</g>
<g clip-path="url(#a)">
<defs>
<path id="aw" d="m31 75.875q-6.5312-11.219-9.7188-22.219-3.1719-10.984-3.1719-22.266 0-11.266 3.2031-22.328t9.6875-22.25h-7.8125q-7.3125 11.484-10.953 22.562t-3.6406 22.016q0 10.891 3.6094 21.922 3.625 11.047 10.984 22.562z"/>
</defs>
<g transform="translate(467.26 817.3) scale(.1 -.1)">
<use xlink:href="#aw"/>
</g>
</g>
<g clip-path="url(#a)">
<defs>
<path id="n" d="m19.188 8.2969h34.422v-8.2969h-46.281v8.2969q5.6094 5.8125 15.297 15.594 9.7031 9.7969 12.188 12.641 4.7344 5.3125 6.6094 9 1.8906 3.6875 1.8906 7.25 0 5.8125-4.0781 9.4688-4.0781 3.6719-10.625 3.6719-4.6406 0-9.7969-1.6094-5.1406-1.6094-11-4.8906v9.9688q5.9531 2.3906 11.125 3.6094 5.1875 1.2188 9.4844 1.2188 11.328 0 18.062-5.6719 6.7344-5.6562 6.7344-15.125 0-4.5-1.6875-8.5312-1.6719-4.0156-6.125-9.4844-1.2188-1.4219-7.7656-8.1875-6.5312-6.7656-18.453-18.922z"/>
<path id="v" d="m31.781 66.406q-7.6094 0-11.453-7.5-3.8281-7.4844-3.8281-22.531 0-14.984 3.8281-22.484 3.8438-7.5 11.453-7.5 7.6719 0 11.5 7.5 3.8438 7.5 3.8438 22.484 0 15.047-3.8438 22.531-3.8281 7.5-11.5 7.5zm0 7.8125q12.266 0 18.734-9.7031 6.4688-9.6875 6.4688-28.141 0-18.406-6.4688-28.109-6.4688-9.6875-18.734-9.6875-12.25 0-18.719 9.6875-6.4688 9.7031-6.4688 28.109 0 18.453 6.4688 28.141 6.4688 9.7031 18.719 9.7031z"/>
<path id="c" d="m12.406 8.2969h16.109v55.625l-17.531-3.5156v8.9844l17.438 3.5156h9.8594v-64.609h16.109v-8.2969h-41.984z"/>
</defs>
<g transform="translate(503.94 817.3) scale(.1 -.1)">
<use xlink:href="#n"/>
<use x="63.623047" xlink:href="#v"/>
<use x="127.246094" xlink:href="#v"/>
<use x="190.869141" xlink:href="#c"/>
</g>
</g>
<g clip-path="url(#a)">
<defs>
<path id="av" d="m8.0156 75.875h7.8125q7.3125-11.516 10.953-22.562 3.6406-11.031 3.6406-21.922 0-10.938-3.6406-22.016t-10.953-22.562h-7.8125q6.4844 11.188 9.6875 22.25t3.2031 22.328q0 11.281-3.2031 22.266-3.2031 11-9.6875 22.219z"/>
</defs>
<g transform="translate(567.45 817.3) scale(.1 -.1)">
<use xlink:href="#av"/>
</g>
</g>
<g clip-path="url(#a)">
<defs>
<path id="au" d="m11.719 12.406h10.297v-8.4062l-8-15.625h-6.2969l4 15.625z"/>
</defs>
<g transform="translate(620.55 817.3) scale(.1 -.1)">
<use xlink:href="#au"/>
</g>
</g>
<g clip-path="url(#a)">
<g transform="translate(674.45 817.3) scale(.1 -.1)">
<use xlink:href="#h"/>
</g>
</g>
<g clip-path="url(#a)">
<g transform="translate(719.04 817.3) scale(.1 -.1)">
<use xlink:href="#t"/>
<use x="39.208984" xlink:href="#y"/>
<use x="102.587891" xlink:href="#f"/>
<use x="143.701172" xlink:href="#d"/>
<use x="171.484375" xlink:href="#i"/>
<use x="199.267578" xlink:href="#i"/>
<use x="227.050781" xlink:href="#e"/>
<use x="288.574219" xlink:href="#f"/>
</g>
</g>
<g clip-path="url(#a)">
<g transform="translate(781.07 817.3) scale(.1 -.1)">
<use xlink:href="#ac"/>
<use x="63.476562" xlink:href="#h"/>
<use x="124.755859" xlink:href="#u"/>
<use x="176.855469" xlink:href="#e"/>
<use x="238.378906" xlink:href="#z"/>
</g>
</g>
<g clip-path="url(#a)">
<g transform="translate(853.22 817.3) scale(.1 -.1)">
<use xlink:href="#p"/>
<use x="61.181641" xlink:href="#g"/>
</g>
</g>
<g clip-path="url(#a)">
<g transform="translate(917.16 817.3) scale(.1 -.1)">
<use xlink:href="#t"/>
<use x="39.208984" xlink:href="#y"/>
<use x="102.587891" xlink:href="#e"/>
</g>
</g>
<g clip-path="url(#a)">
<defs>
<path id="ba" d="m2.9844 54.688h9.5156l17.094-45.891 17.094 45.891h9.5156l-20.516-54.688h-12.203z"/>
</defs>
<g transform="translate(980.27 817.3) scale(.1 -.1)">
<use xlink:href="#g"/>
<use x="63.378906" xlink:href="#p"/>
<use x="124.560547" xlink:href="#ba"/>
<use x="183.740234" xlink:href="#e"/>
<use x="245.263672" xlink:href="#i"/>
</g>
</g>
<g clip-path="url(#a)">
<defs>
<path id="aj" d="m3.3281 72.906h9.9531l15.328-61.625 15.281 61.625h11.094l15.328-61.625 15.281 61.625h10.016l-18.312-72.906h-12.406l-15.375 63.281-15.531-63.281h-12.406z"/>
<path id="ay" d="m5.5156 54.688h42.672v-8.2031l-33.781-39.312h33.781v-7.1719h-43.891v8.2031l33.797 39.312h-32.578z"/>
</defs>
<g transform="translate(1051.4 817.3) scale(.1 -.1)">
<use xlink:href="#aj"/>
<use x="92.501953" xlink:href="#h"/>
<use x="153.78125" xlink:href="#i"/>
<use x="181.564453" xlink:href="#t"/>
<use x="220.773438" xlink:href="#ay"/>
</g>
</g>
<g clip-path="url(#a)">
<g transform="translate(1129.4 817.3) scale(.1 -.1)">
<use xlink:href="#d"/>
<use x="27.783203" xlink:href="#g"/>
<use x="91.162109" xlink:href="#t"/>
<use x="130.371094" xlink:href="#p"/>
</g>
</g>
<g clip-path="url(#a)">
<defs>
<path id="ar" d="m19.672 64.797v-56.688h11.922q15.094 0 22.094 6.8281 7 6.8438 7 21.594 0 14.641-7 21.453t-22.094 6.8125zm-9.8594 8.1094h20.266q21.188 0 31.094-8.8125 9.9219-8.8125 9.9219-27.562 0-18.859-9.9688-27.703-9.9531-8.8281-31.047-8.8281h-20.266z"/>
<path id="bb" d="m9.0781 75.984h9.0312v-44.875l26.812 23.578h11.469l-29-25.578 30.234-29.109h-11.719l-27.797 26.703v-26.703h-9.0312z"/>
</defs>
<g transform="translate(1192.1 817.3) scale(.1 -.1)">
<use xlink:href="#ar"/>
<use x="77.001953" xlink:href="#h"/>
<use x="138.28125" xlink:href="#f"/>
<use x="179.394531" xlink:href="#bb"/>
<use x="237.304688" xlink:href="#g"/>
<use x="300.683594" xlink:href="#e"/>
<use x="362.207031" xlink:href="#u"/>
<use x="414.306641" xlink:href="#u"/>
</g>
</g>
<g clip-path="url(#a)">
<defs>
<path id="az" d="m32.172-5.0781q-3.7969-9.7656-7.4219-12.734-3.6094-2.9844-9.6562-2.9844h-7.1875v7.5156h5.2812q3.7031 0 5.75 1.7656 2.0625 1.75 4.5469 8.2969l1.6094 4.0938-22.109 53.812h9.5156l17.094-42.766 17.094 42.766h9.5156z"/>
</defs>
<g transform="translate(1288.4 817.3) scale(.1 -.1)">
<use xlink:href="#ac"/>
<use x="63.476562" xlink:href="#az"/>
</g>
</g>
<g clip-path="url(#a)">
<g transform="translate(1358.7 817.3) scale(.1 -.1)">
<use xlink:href="#r"/>
<use x="69.824219" xlink:href="#p"/>
<use x="131.005859" xlink:href="#f"/>
<use x="170.369141" xlink:href="#g"/>
<use x="233.748047" xlink:href="#e"/>
<use x="295.271484" xlink:href="#i"/>
<use x="323.054688" xlink:href="#i"/>
</g>
</g>
<g clip-path="url(#a)">
<defs>
<path id="am" d="m48.781 52.594v-8.4062q-3.8125 2.1094-7.6406 3.1562t-7.7344 1.0469q-8.75 0-13.594-5.5469-4.8281-5.5312-4.8281-15.547t4.8281-15.562q4.8438-5.5312 13.594-5.5312 3.9062 0 7.7344 1.0469t7.6406 3.1562v-8.3125q-3.7656-1.75-7.7969-2.625-4.0156-0.89062-8.5625-0.89062-12.359 0-19.641 7.7656-7.2656 7.7656-7.2656 20.953 0 13.375 7.3438 21.031 7.3594 7.6719 20.156 7.6719 4.1406 0 8.0938-0.85938 3.9531-0.84375 7.6719-2.5469z"/>
</defs>
<g transform="translate(1439.1 817.3) scale(.1 -.1)">
<use xlink:href="#aj"/>
<use x="93.001953" xlink:href="#p"/>
<use x="154.183594" xlink:href="#p"/>
<use x="215.365234" xlink:href="#i"/>
<use x="243.148438" xlink:href="#f"/>
<use x="284.261719" xlink:href="#d"/>
<use x="312.044922" xlink:href="#am"/>
<use x="367.025391" xlink:href="#y"/>
</g>
</g>
<g clip-path="url(#a)">
<defs>
<path id="j" d="m10.688 12.406h10.312v-12.406h-10.312z"/>
</defs>
<g transform="translate(1546 817.3) scale(.1 -.1)">
<use xlink:href="#j"/>
</g>
</g>
<g clip-path="url(#a)">
<defs>
<path id="af" d="m9.8125 72.906h9.8594v-72.906h-9.8594z"/>
<path id="ao" d="m9.8125 72.906h14.703l18.594-49.609 18.703 49.609h14.703v-72.906h-9.625v64.016l-18.797-50h-9.9062l-18.797 50v-64.016h-9.5781z"/>
</defs>
<g transform="translate(498.22 722.33) scale(.1 -.1)">
<use xlink:href="#af"/>
<use x="29.492188" xlink:href="#ao"/>
<use x="115.771484" xlink:href="#x"/>
<use x="176.074219" xlink:href="#ak"/>
<use x="231.787109" xlink:href="#af"/>
<use x="261.279297" xlink:href="#r"/>
<use x="331.103516" xlink:href="#af"/>
<use x="360.595703" xlink:href="#k"/>
</g>
</g>
<g clip-path="url(#a)">
<g transform="translate(135.3 41.547) scale(.1 -.1)">
<use xlink:href="#c"/>
<use x="63.623047" xlink:href="#j"/>
<use x="95.410156" xlink:href="#c"/>
</g>
</g>
<g clip-path="url(#a)">
<g transform="translate(196.95 139.42) scale(.1 -.1)">
<use xlink:href="#c"/>
<use x="63.623047" xlink:href="#j"/>
<use x="95.410156" xlink:href="#n"/>
</g>
</g>
<g clip-path="url(#a)">
<defs>
<path id="m" d="m40.578 39.312q7.0781-1.5156 11.047-6.3125 3.9844-4.7812 3.9844-11.812 0-10.781-7.4219-16.703-7.4219-5.9062-21.094-5.9062-4.5781 0-9.4375 0.90625t-10.031 2.7188v9.5156q4.0938-2.3906 8.9688-3.6094 4.8906-1.2188 10.219-1.2188 9.2656 0 14.125 3.6562t4.8594 10.641q0 6.4531-4.5156 10.078-4.5156 3.6406-12.562 3.6406h-8.5v8.1094h8.8906q7.2656 0 11.125 2.9062t3.8594 8.375q0 5.6094-3.9844 8.6094-3.9688 3.0156-11.391 3.0156-4.0625 0-8.7031-0.89062-4.6406-0.875-10.203-2.7188v8.7812q5.625 1.5625 10.531 2.3438t9.25 0.78125q11.234 0 17.766-5.1094 6.5469-5.0938 6.5469-13.781 0-6.0625-3.4688-10.234t-9.8594-5.7812z"/>
</defs>
<g transform="translate(73.656 722.33) scale(.1 -.1)">
<use xlink:href="#c"/>
<use x="63.623047" xlink:href="#j"/>
<use x="95.410156" xlink:href="#m"/>
</g>
</g>
<g clip-path="url(#a)">
<defs>
<path id="ai" d="m10.797 72.906h38.719v-8.3125h-29.688v-17.859q2.1406 0.73438 4.2812 1.0938 2.1562 0.35938 4.3125 0.35938 12.203 0 19.328-6.6875 7.1406-6.6875 7.1406-18.109 0-11.766-7.3281-18.297-7.3281-6.5156-20.656-6.5156-4.5938 0-9.3594 0.78125-4.75 0.78125-9.8281 2.3438v9.9219q4.3906-2.3906 9.0781-3.5625t9.9062-1.1719q8.4531 0 13.375 4.4375 4.9375 4.4375 4.9375 12.062 0 7.6094-4.9375 12.047-4.9219 4.4531-13.375 4.4531-3.9531 0-7.8906-0.875-3.9219-0.875-8.0156-2.7344z"/>
</defs>
<g transform="translate(65.745 722.33) scale(.1 -.1)">
<use xlink:href="#c"/>
<use x="63.623047" xlink:href="#j"/>
<use x="95.410156" xlink:href="#ai"/>
</g>
</g>
<g clip-path="url(#a)">
<defs>
<path id="ah" d="m33.016 40.375q-6.6406 0-10.531-4.5469-3.875-4.5312-3.875-12.438 0-7.8594 3.875-12.438 3.8906-4.5625 10.531-4.5625t10.516 4.5625q3.875 4.5781 3.875 12.438 0 7.9062-3.875 12.438-3.875 4.5469-10.516 4.5469zm19.578 30.922v-8.9844q-3.7188 1.75-7.5 2.6719-3.7812 0.9375-7.5 0.9375-9.7656 0-14.922-6.5938-5.1406-6.5938-5.875-19.922 2.875 4.25 7.2188 6.5156 4.3594 2.2656 9.5781 2.2656 10.984 0 17.359-6.6719 6.375-6.6562 6.375-18.125 0-11.234-6.6406-18.031-6.6406-6.7812-17.672-6.7812-12.656 0-19.344 9.6875-6.6875 9.7031-6.6875 28.109 0 17.281 8.2031 27.562t22.016 10.281q3.7188 0 7.5-0.73438t7.8906-2.1875z"/>
</defs>
<g transform="translate(84.203 722.33) scale(.1 -.1)">
<use xlink:href="#c"/>
<use x="63.623047" xlink:href="#j"/>
<use x="95.410156" xlink:href="#ah"/>
</g>
</g>
<g clip-path="url(#a)">
<defs>
<path id="ab" d="m8.2031 72.906h46.875v-4.2031l-26.469-68.703h-10.297l24.906 64.594h-35.016z"/>
</defs>
<g transform="translate(109.91 626.04) scale(.1 -.1)">
<use xlink:href="#c"/>
<use x="63.623047" xlink:href="#j"/>
<use x="95.410156" xlink:href="#ab"/>
</g>
</g>
<g clip-path="url(#a)">
<defs>
<path id="aa" d="m31.781 34.625q-7.0312 0-11.062-3.7656-4.0156-3.7656-4.0156-10.344 0-6.5938 4.0156-10.359 4.0312-3.7656 11.062-3.7656t11.078 3.7812q4.0625 3.7969 4.0625 10.344 0 6.5781-4.0312 10.344-4.0156 3.7656-11.109 3.7656zm-9.8594 4.1875q-6.3438 1.5625-9.8906 5.9062-3.5312 4.3594-3.5312 10.609 0 8.7344 6.2188 13.812 6.2344 5.0781 17.062 5.0781 10.891 0 17.094-5.0781t6.2031-13.812q0-6.25-3.5469-10.609-3.5312-4.3438-9.8281-5.9062 7.125-1.6562 11.094-6.5 3.9844-4.8281 3.9844-11.797 0-10.609-6.4688-16.281-6.4688-5.6562-18.531-5.6562-12.047 0-18.531 5.6562-6.4688 5.6719-6.4688 16.281 0 6.9688 4 11.797 4.0156 4.8438 11.141 6.5zm-3.6094 15.578q0-5.6562 3.5312-8.8281 3.5469-3.1719 9.9375-3.1719 6.3594 0 9.9375 3.1719 3.5938 3.1719 3.5938 8.8281 0 5.6719-3.5938 8.8438-3.5781 3.1719-9.9375 3.1719-6.3906 0-9.9375-3.1719-3.5312-3.1719-3.5312-8.8438z"/>
</defs>
<g transform="translate(212.96 529.24) scale(.1 -.1)">
<use xlink:href="#c"/>
<use x="63.623047" xlink:href="#j"/>
<use x="95.410156" xlink:href="#aa"/>
</g>
</g>
<g clip-path="url(#a)">
<defs>
<path id="ag" d="m10.984 1.5156v8.9844q3.7188-1.7656 7.5156-2.6875 3.8125-0.92188 7.4844-0.92188 9.7656 0 14.906 6.5625 5.1562 6.5625 5.8906 19.953-2.8281-4.2031-7.1875-6.4531-4.3438-2.25-9.6094-2.25-10.938 0-17.312 6.6094-6.375 6.625-6.375 18.109 0 11.219 6.6406 18 6.6406 6.7969 17.672 6.7969 12.656 0 19.312-9.7031 6.6719-9.6875 6.6719-28.141 0-17.234-8.1875-27.516-8.1719-10.281-21.984-10.281-3.7188 0-7.5312 0.73438-3.7969 0.73438-7.9062 2.2031zm19.625 30.906q6.6406 0 10.516 4.5312 3.8906 4.5469 3.8906 12.469 0 7.8594-3.8906 12.422-3.875 4.5625-10.516 4.5625t-10.516-4.5625-3.875-12.422q0-7.9219 3.875-12.469 3.875-4.5312 10.516-4.5312z"/>
</defs>
<g transform="translate(511.93 237.16) scale(.1 -.1)">
<use xlink:href="#c"/>
<use x="63.623047" xlink:href="#j"/>
<use x="95.410156" xlink:href="#ag"/>
</g>
</g>
<g clip-path="url(#a)">
<g transform="translate(331.51 722.33) scale(.1 -.1)">
<use xlink:href="#c"/>
<use x="63.623047" xlink:href="#j"/>
<use x="95.410156" xlink:href="#c"/>
<use x="159.033203" xlink:href="#v"/>
</g>
</g>
<g clip-path="url(#a)">
<g transform="translate(392.16 722.33) scale(.1 -.1)">
<use xlink:href="#c"/>
<use x="63.623047" xlink:href="#j"/>
<use x="95.410156" xlink:href="#c"/>
<use x="159.033203" xlink:href="#c"/>
</g>
</g>
<g clip-path="url(#a)">
<g transform="translate(448.85 626.04) scale(.1 -.1)">
<use xlink:href="#c"/>
<use x="63.623047" xlink:href="#j"/>
<use x="95.410156" xlink:href="#c"/>
<use x="159.033203" xlink:href="#n"/>
</g>
</g>
<g clip-path="url(#a)">
<g transform="translate(761.34 334.73) scale(.1 -.1)">
<use xlink:href="#c"/>
<use x="63.623047" xlink:href="#j"/>
<use x="95.410156" xlink:href="#c"/>
<use x="159.033203" xlink:href="#m"/>
</g>
</g>
<g clip-path="url(#a)">
<g transform="translate(666.38 722.33) scale(.1 -.1)">
<use xlink:href="#c"/>
<use x="63.623047" xlink:href="#j"/>
<use x="95.410156" xlink:href="#c"/>
<use x="159.033203" xlink:href="#ab"/>
</g>
</g>
<g clip-path="url(#a)">
<g transform="translate(724.39 722.33) scale(.1 -.1)">
<use xlink:href="#c"/>
<use x="63.623047" xlink:href="#j"/>
<use x="95.410156" xlink:href="#c"/>
<use x="159.033203" xlink:href="#aa"/>
</g>
</g>
<g clip-path="url(#a)">
<g transform="translate(893.26 432.11) scale(.1 -.1)">
<use xlink:href="#c"/>
<use x="63.623047" xlink:href="#j"/>
<use x="95.410156" xlink:href="#c"/>
<use x="159.033203" xlink:href="#ag"/>
</g>
</g>
<g clip-path="url(#a)">
<g transform="translate(816.67 722.33) scale(.1 -.1)">
<use xlink:href="#c"/>
<use x="63.623047" xlink:href="#j"/>
<use x="95.410156" xlink:href="#n"/>
<use x="159.033203" xlink:href="#v"/>
</g>
</g>
<g clip-path="url(#a)">
<g transform="translate(1138.7 529.24) scale(.1 -.1)">
<use xlink:href="#c"/>
<use x="63.623047" xlink:href="#j"/>
<use x="95.410156" xlink:href="#n"/>
<use x="159.033203" xlink:href="#c"/>
</g>
</g>
<g clip-path="url(#a)">
<g transform="translate(948.51 626.04) scale(.1 -.1)">
<use xlink:href="#c"/>
<use x="63.623047" xlink:href="#j"/>
<use x="95.410156" xlink:href="#n"/>
<use x="159.033203" xlink:href="#n"/>
</g>
</g>
<g clip-path="url(#a)">
<g transform="translate(1128.7 722.33) scale(.1 -.1)">
<use xlink:href="#c"/>
<use x="63.623047" xlink:href="#j"/>
<use x="95.410156" xlink:href="#n"/>
<use x="159.033203" xlink:href="#m"/>
</g>
</g>
<g clip-path="url(#a)">
<defs>
<path id="s" d="m37.797 64.312-24.906-38.922h24.906zm-2.5938 8.5938h12.406v-47.516h10.406v-8.2031h-10.406v-17.188h-9.8125v17.188h-32.906v9.5156z"/>
</defs>
<g transform="translate(1339 626.04) scale(.1 -.1)">
<use xlink:href="#c"/>
<use x="63.623047" xlink:href="#j"/>
<use x="95.410156" xlink:href="#n"/>
<use x="159.033203" xlink:href="#s"/>
</g>
</g>
<g clip-path="url(#a)">
<g transform="translate(1283.4 722.33) scale(.1 -.1)">
<use xlink:href="#c"/>
<use x="63.623047" xlink:href="#j"/>
<use x="95.410156" xlink:href="#n"/>
<use x="159.033203" xlink:href="#ai"/>
</g>
</g>
<g clip-path="url(#a)">
<g transform="translate(1407.3 722.33) scale(.1 -.1)">
<use xlink:href="#c"/>
<use x="63.623047" xlink:href="#j"/>
<use x="95.410156" xlink:href="#n"/>
<use x="159.033203" xlink:href="#ah"/>
</g>
</g>
<g clip-path="url(#a)">
<g transform="translate(914.23 722.33) scale(.1 -.1)">
<use xlink:href="#c"/>
<use x="63.623047" xlink:href="#j"/>
<use x="95.410156" xlink:href="#n"/>
<use x="159.033203" xlink:href="#ab"/>
</g>
</g>
<g clip-path="url(#a)">
<g transform="translate(982.79 722.33) scale(.1 -.1)">
<use xlink:href="#c"/>
<use x="63.623047" xlink:href="#j"/>
<use x="95.410156" xlink:href="#n"/>
<use x="159.033203" xlink:href="#aa"/>
</g>
</g>
<g clip-path="url(#a)">
<g transform="translate(505.54 722.33) scale(.1 -.1)">
<use xlink:href="#c"/>
<use x="63.623047" xlink:href="#j"/>
<use x="95.410156" xlink:href="#m"/>
<use x="159.033203" xlink:href="#v"/>
</g>
</g>
<g clip-path="url(#a)">
<g transform="translate(149.58 722.33) scale(.1 -.1)">
<use xlink:href="#c"/>
<use x="63.623047" xlink:href="#j"/>
<use x="95.410156" xlink:href="#m"/>
<use x="159.033203" xlink:href="#c"/>
</g>
</g>
<g clip-path="url(#a)">
<g transform="translate(233.95 626.04) scale(.1 -.1)">
<use xlink:href="#c"/>
<use x="63.623047" xlink:href="#j"/>
<use x="95.410156" xlink:href="#m"/>
<use x="159.033203" xlink:href="#n"/>
</g>
</g>
<g clip-path="url(#a)">
<g transform="translate(245.82 626.04) scale(.1 -.1)">
<use xlink:href="#c"/>
<use x="63.623047" xlink:href="#j"/>
<use x="95.410156" xlink:href="#m"/>
<use x="159.033203" xlink:href="#m"/>
</g>
</g>
<g clip-path="url(#a)">
<g transform="translate(199.67 722.33) scale(.1 -.1)">
<use xlink:href="#c"/>
<use x="63.623047" xlink:href="#j"/>
<use x="95.410156" xlink:href="#m"/>
<use x="159.033203" xlink:href="#s"/>
</g>
</g>
<g clip-path="url(#a)">
<g transform="translate(260.32 722.33) scale(.1 -.1)">
<use xlink:href="#c"/>
<use x="63.623047" xlink:href="#j"/>
<use x="95.410156" xlink:href="#m"/>
<use x="159.033203" xlink:href="#ai"/>
</g>
</g>
<g clip-path="url(#a)">
<g transform="translate(228.68 722.33) scale(.1 -.1)">
<use xlink:href="#c"/>
<use x="63.623047" xlink:href="#j"/>
<use x="95.410156" xlink:href="#m"/>
<use x="159.033203" xlink:href="#ah"/>
</g>
</g>
<g clip-path="url(#a)">
<g transform="translate(173.31 722.33) scale(.1 -.1)">
<use xlink:href="#c"/>
<use x="63.623047" xlink:href="#j"/>
<use x="95.410156" xlink:href="#m"/>
<use x="159.033203" xlink:href="#ab"/>
</g>
</g>
<g clip-path="url(#a)">
<g transform="translate(294.6 722.33) scale(.1 -.1)">
<use xlink:href="#c"/>
<use x="63.623047" xlink:href="#j"/>
<use x="95.410156" xlink:href="#m"/>
<use x="159.033203" xlink:href="#aa"/>
</g>
</g>
<g clip-path="url(#a)">
<g transform="translate(94.205 722.33) scale(.1 -.1)">
<use xlink:href="#c"/>
<use x="63.623047" xlink:href="#j"/>
<use x="95.410156" xlink:href="#m"/>
<use x="159.033203" xlink:href="#ag"/>
</g>
</g>
<g clip-path="url(#a)">
<g transform="translate(119.25 722.33) scale(.1 -.1)">
<use xlink:href="#c"/>
<use x="63.623047" xlink:href="#j"/>
<use x="95.410156" xlink:href="#s"/>
<use x="159.033203" xlink:href="#v"/>
</g>
</g>
<g clip-path="url(#a)">
<g transform="translate(458.08 722.33) scale(.1 -.1)">
<use xlink:href="#c"/>
<use x="63.623047" xlink:href="#j"/>
<use x="95.410156" xlink:href="#s"/>
<use x="159.033203" xlink:href="#c"/>
</g>
</g>
<g clip-path="url(#a)">
<g transform="translate(558.27 722.33) scale(.1 -.1)">
<use xlink:href="#c"/>
<use x="63.623047" xlink:href="#j"/>
<use x="95.410156" xlink:href="#s"/>
<use x="159.033203" xlink:href="#n"/>
</g>
</g>
<g clip-path="url(#a)">
<g transform="translate(611.01 722.33) scale(.1 -.1)">
<use xlink:href="#c"/>
<use x="63.623047" xlink:href="#j"/>
<use x="95.410156" xlink:href="#s"/>
<use x="159.033203" xlink:href="#m"/>
</g>
</g>
<g clip-path="url(#a)">
<g transform="translate(1536.5 722.33) scale(.1 -.1)">
<use xlink:href="#c"/>
<use x="63.623047" xlink:href="#j"/>
<use x="95.410156" xlink:href="#s"/>
<use x="159.033203" xlink:href="#s"/>
</g>
</g>
<defs>
<clipPath id="a">
<rect width="1621.3" height="853.33"/>
</clipPath>
</defs>
</svg>
