<?xml version="1.0" encoding="UTF-8"?>
<!DOCTYPE svg  PUBLIC '-//W3C//DTD SVG 1.1//EN'  'http://www.w3.org/Graphics/SVG/1.1/DTD/svg11.dtd'>
<svg width="962.67pt" height="506.67pt" version="1.1" viewBox="0 0 962.67 506.67" xmlns="http://www.w3.org/2000/svg" xmlns:xlink="http://www.w3.org/1999/xlink">
<defs>
<style type="text/css">*{stroke-linecap:butt;stroke-linejoin:round;}</style>
</defs>
<path d="m0 506.67h962.67v-506.67h-962.67z" fill="#fff"/>
<g fill="none" stroke="#000">
<path d="m260.1 23.03-155.08 185.65" clip-path="url(#a)"/>
<path d="m260.1 23.03 2.4412 369.96" clip-path="url(#a)"/>
<path d="m260.1 23.03 192.27 92.943" clip-path="url(#a)"/>
<path d="m260.1 23.03-39.633 369.96" clip-path="url(#a)"/>
<path d="m105.03 208.68-54.96 92.394" clip-path="url(#a)"/>
<path d="m105.03 208.68-31.819 184.31" clip-path="url(#a)"/>
<path d="m105.03 208.68 9.2038 92.394" clip-path="url(#a)"/>
<path d="m105.03 208.68 77.575 184.31" clip-path="url(#a)"/>
<path d="m262.55 392.99v90.65" clip-path="url(#a)"/>
<path d="m452.37 115.97 466.54 92.708" clip-path="url(#a)"/>
<path d="m452.37 115.97-143.54 277.01" clip-path="url(#a)"/>
<path d="m452.37 115.97 143.54 92.708" clip-path="url(#a)"/>
<path d="m308.83 392.99v90.65" clip-path="url(#a)"/>
<path d="m595.92 208.68-236.6 184.31" clip-path="url(#a)"/>
<path d="m595.92 208.68-121.6 92.394" clip-path="url(#a)"/>
<path d="m595.92 208.68 43.197 92.394" clip-path="url(#a)"/>
<path d="m595.92 208.68 78.96 184.31" clip-path="url(#a)"/>
<path d="m595.92 208.68 236.04 92.394" clip-path="url(#a)"/>
<path d="m359.32 392.99v90.65" clip-path="url(#a)"/>
<path d="m474.32 301.07-60.307 91.911" clip-path="url(#a)"/>
<path d="m474.32 301.07 61.709 91.911" clip-path="url(#a)"/>
<path d="m474.32 301.07-1.4025 91.911" clip-path="url(#a)"/>
<path d="m639.11 301.07 35.763 91.911" clip-path="url(#a)" stroke-dasharray="3.7,1.6"/>
<path d="m639.11 301.07-35.763 91.911" clip-path="url(#a)"/>
<path d="m674.88 392.99v90.65" clip-path="url(#a)"/>
<path d="m831.95 301.07-81.344 91.911" clip-path="url(#a)"/>
<path d="m831.95 301.07-1.4025 91.911" clip-path="url(#a)"/>
<path d="m831.95 301.07 82.747 91.911" clip-path="url(#a)"/>
<path d="m750.61 392.99v90.65" clip-path="url(#a)"/>
<path d="m830.55 392.99v90.65" clip-path="url(#a)"/>
<path d="m603.35 392.99v90.65" clip-path="url(#a)"/>
<path d="m414.01 392.99v90.65" clip-path="url(#a)"/>
<path d="m536.03 392.99v90.65" clip-path="url(#a)"/>
<path d="m50.069 301.07-6.3112 91.911" clip-path="url(#a)"/>
<path d="m50.069 301.07 6.3112 91.911" clip-path="url(#a)"/>
<path d="m73.21 392.99v90.65" clip-path="url(#a)"/>
<path d="m114.23 301.07-19.985 91.911" clip-path="url(#a)"/>
<path d="m114.23 301.07 19.985 91.911" clip-path="url(#a)"/>
<path d="m182.6 392.99v90.65" clip-path="url(#a)"/>
<path d="m94.247 392.99v90.65" clip-path="url(#a)"/>
<path d="m134.22 392.99-14.726 90.65" clip-path="url(#a)"/>
<path d="m134.22 392.99 14.726 90.65" clip-path="url(#a)"/>
<path d="m43.758 392.99v90.65" clip-path="url(#a)"/>
<path d="m56.38 392.99v90.65" clip-path="url(#a)"/>
<path d="m220.47 392.99v90.65" clip-path="url(#a)"/>
<path d="m472.92 392.99v90.65" clip-path="url(#a)"/>
<path d="m914.7 392.99v90.65" clip-path="url(#a)"/>
</g>
<path d="m185.45 122.18 3.8569-4.6173q1.5386-1.8419-0.30335-3.3805l-5.9422-4.9636q-1.8419-1.5386-3.3805 0.30335l-3.8569 4.6173q-1.5386 1.8419 0.30335 3.3805l5.9422 4.9636q1.8419 1.5386 3.3805-0.30335z" clip-path="url(#a)" fill="#fff" stroke="#fff"/>
<g clip-path="url(#a)">
<defs>
<path id="ai" d="m9.8125 72.906h9.8594v-29.891h35.844v29.891h9.8594v-72.906h-9.8594v34.719h-35.844v-34.719h-9.8594z"/>
</defs>
<g transform="translate(182.33 119.58) rotate(-50.128) scale(.08 -.08)">
<use xlink:href="#ai"/>
</g>
</g>
<path d="m255.04 205.82 0.029413 4.4574q0.015836 2.3999 2.4158 2.3841l7.7423-0.051089q2.3999-0.015836 2.3841-2.4158l-0.029413-4.4574q-0.015836-2.3999-2.4158-2.3841l-7.7423 0.051089q-2.3999 0.015836-2.3841 2.4158z" clip-path="url(#a)" fill="#fff" stroke="#fff"/>
<g clip-path="url(#a)">
<defs>
<path id="ah" d="m9.8125 72.906h9.8594v-64.609h35.5v-8.2969h-45.359z"/>
</defs>
<g transform="translate(259.1 205.79) rotate(89.622) scale(.08 -.08)">
<use xlink:href="#ah"/>
</g>
</g>
<path d="m350.8 73.839 5.4166 2.6184q2.1608 1.0445 3.2053-1.1163l3.3697-6.9708q1.0445-2.1608-1.1163-3.2053l-5.4166-2.6184q-2.1608-1.0445-3.2053 1.1163l-3.3697 6.9708q-1.0445 2.1608 1.1163 3.2053z" clip-path="url(#a)" fill="#fff" stroke="#fff"/>
<g clip-path="url(#a)">
<g transform="translate(352.57 70.18) rotate(25.799) scale(.08 -.08)">
<use xlink:href="#ai"/>
</g>
</g>
<path d="m246.21 211.59 0.62368-5.8217q0.25565-2.3863-2.1307-2.642l-7.6984-0.82474q-2.3863-0.25565-2.642 2.1307l-0.62368 5.8217q-0.25565 2.3863 2.1307 2.642l7.6984 0.82474q2.3863 0.25565 2.642-2.1307z" clip-path="url(#a)" fill="#fff" stroke="#fff"/>
<g clip-path="url(#a)">
<defs>
<path id="z" d="m8.6875 72.906h9.9219v-44.297q0-11.719 4.2344-16.875 4.25-5.1406 13.781-5.1406 9.4688 0 13.719 5.1406 4.25 5.1562 4.25 16.875v44.297h9.9062v-45.516q0-14.25-7.0625-21.531-7.0469-7.2812-20.812-7.2812-13.828 0-20.891 7.2812-7.0469 7.2812-7.0469 21.531z"/>
</defs>
<g transform="translate(242.17 211.15) rotate(-83.885) scale(.08 -.08)">
<use xlink:href="#z"/>
</g>
</g>
<path d="m81.54 260.44 2.7977-4.7033q1.227-2.0627-0.83569-3.2896l-6.6542-3.9582q-2.0627-1.227-3.2896 0.8357l-2.7977 4.7033q-1.227 2.0627 0.83569 3.2896l6.6542 3.9582q2.0627 1.227 3.2896-0.8357z" clip-path="url(#a)" fill="#fff" stroke="#fff"/>
<g clip-path="url(#a)">
<defs>
<path id="o" d="m34.188 63.188-13.391-36.281h26.812zm-5.5781 9.7188h11.188l27.781-72.906h-10.25l-6.6406 18.703h-32.859l-6.6406-18.703h-10.406z"/>
</defs>
<g transform="translate(78.047 258.36) rotate(-59.254) scale(.08 -.08)">
<use xlink:href="#o"/>
</g>
</g>
<path d="m94.889 304.28 0.82064-4.7534q0.4083-2.365-1.9567-2.7733l-7.6296-1.3172q-2.365-0.4083-2.7733 1.9567l-0.82064 4.7534q-0.4083 2.365 1.9567 2.7733l7.6296 1.3172q2.365 0.4083 2.7733-1.9567z" clip-path="url(#a)" fill="#fff" stroke="#fff"/>
<g clip-path="url(#a)">
<defs>
<path id="ab" d="m19.672 64.797v-27.391h12.406q6.8906 0 10.641 3.5625 3.7656 3.5625 3.7656 10.156 0 6.5469-3.7656 10.109-3.75 3.5625-10.641 3.5625zm-9.8594 8.1094h22.266q12.266 0 18.531-5.5469 6.2812-5.5469 6.2812-16.234 0-10.797-6.2812-16.312-6.2656-5.5156-18.531-5.5156h-12.406v-29.297h-9.8594z"/>
</defs>
<g transform="translate(90.884 303.59) rotate(-80.205) scale(.08 -.08)">
<use xlink:href="#ab"/>
</g>
</g>
<path d="m103.12 252.78 0.54246 5.4455q0.2379 2.3882 2.6261 2.1503l7.7044-0.76747q2.3882-0.2379 2.1503-2.6261l-0.54246-5.4455q-0.2379-2.3882-2.6261-2.1503l-7.7044 0.76747q-2.3882 0.2379-2.1503 2.6261z" clip-path="url(#a)" fill="#fff" stroke="#fff"/>
<g clip-path="url(#a)">
<g transform="translate(107.16 252.37) rotate(84.311) scale(.08 -.08)">
<use xlink:href="#o"/>
</g>
</g>
<path d="m136.97 300.74 2.123 5.0439q0.93106 2.212 3.1431 1.281l7.1361-3.0036q2.212-0.93106 1.281-3.1431l-2.123-5.0439q-0.93106-2.212-3.1431-1.281l-7.1361 3.0036q-2.212 0.93106-1.281 3.1431z" clip-path="url(#a)" fill="#fff" stroke="#fff"/>
<g clip-path="url(#a)">
<g transform="translate(140.72 299.17) rotate(67.174) scale(.08 -.08)">
<use xlink:href="#o"/>
</g>
</g>
<path d="m256.27 421.41v33.808q0 2.4 2.4 2.4h7.7425q2.4 0 2.4-2.4v-33.808q0-2.4-2.4-2.4h-7.7425q-2.4 0-2.4 2.4z" clip-path="url(#a)" fill="#fff" stroke="#fff"/>
<g clip-path="url(#a)">
<defs>
<path id="l" d="m-0.29688 72.906h61.672v-8.3125h-25.875v-64.594h-9.9062v64.594h-25.891z"/>
<path id="f" d="m56.203 29.594v-4.3906h-41.312q0.59375-9.2812 5.5938-14.141t13.938-4.8594q5.1719 0 10.031 1.2656t9.6562 3.8125v-8.5q-4.8438-2.0469-9.9219-3.125t-10.297-1.0781q-13.094 0-20.734 7.6094-7.6406 7.625-7.6406 20.625 0 13.422 7.25 21.297 7.25 7.8906 19.562 7.8906 11.031 0 17.453-7.1094 6.4219-7.0938 6.4219-19.297zm-8.9844 2.6406q-0.09375 7.3594-4.125 11.75-4.0312 4.4062-10.672 4.4062-7.5156 0-12.031-4.25t-5.2031-11.969z"/>
<path id="j" d="m41.109 46.297q-1.5156 0.875-3.2969 1.2812-1.7812 0.42188-3.9219 0.42188-7.625 0-11.703-4.9531t-4.0781-14.234v-28.812h-9.0312v54.688h9.0312v-8.5q2.8438 4.9844 7.375 7.3906 4.5469 2.4219 11.047 2.4219 0.92188 0 2.0469-0.125 1.125-0.10938 2.4844-0.35938z"/>
<path id="h" d="m52 44.188q3.375 6.0625 8.0625 8.9375t11.031 2.875q8.5469 0 13.188-5.9844 4.6406-5.9688 4.6406-17v-33.016h-9.0312v32.719q0 7.8594-2.7969 11.656-2.7812 3.8125-8.4844 3.8125-6.9844 0-11.047-4.6406-4.0469-4.625-4.0469-12.641v-30.906h-9.0312v32.719q0 7.9062-2.7812 11.688t-8.5938 3.7812q-6.8906 0-10.953-4.6562-4.0469-4.6562-4.0469-12.625v-30.906h-9.0312v54.688h9.0312v-8.5q3.0781 5.0312 7.375 7.4219t10.203 2.3906q5.9688 0 10.141-3.0312 4.1719-3.0156 6.1719-8.7812z"/>
<path id="e" d="m9.4219 54.688h8.9844v-54.688h-8.9844zm0 21.297h8.9844v-11.391h-8.9844z"/>
<path id="g" d="m54.891 33.016v-33.016h-8.9844v32.719q0 7.7656-3.0312 11.609-3.0312 3.8594-9.0781 3.8594-7.2812 0-11.484-4.6406-4.2031-4.625-4.2031-12.641v-30.906h-9.0312v54.688h9.0312v-8.5q3.2344 4.9375 7.5938 7.375 4.375 2.4375 10.094 2.4375 9.4219 0 14.25-5.8281 4.8438-5.8281 4.8438-17.156z"/>
<path id="k" d="m34.281 27.484q-10.891 0-15.094-2.4844t-4.2031-8.5q0-4.7812 3.1562-7.5938 3.1562-2.7969 8.5625-2.7969 7.4844 0 12 5.2969t4.5156 14.078v2zm17.922 3.7188v-31.203h-8.9844v8.2969q-3.0781-4.9688-7.6719-7.3438t-11.234-2.375q-8.3906 0-13.359 4.7188-4.9531 4.7188-4.9531 12.625 0 9.2188 6.1719 13.906 6.1875 4.6875 18.438 4.6875h12.609v0.89062q0 6.2031-4.0781 9.5938t-11.453 3.3906q-4.6875 0-9.1406-1.125-4.4375-1.125-8.5312-3.375v8.3125q4.9219 1.9062 9.5625 2.8438 4.6406 0.95312 9.0312 0.95312 11.875 0 17.734-6.1562 5.8594-6.1406 5.8594-18.641z"/>
<path id="i" d="m9.4219 75.984h8.9844v-75.984h-8.9844z"/>
</defs>
<g transform="translate(260.34 421.41) rotate(90) scale(.08 -.08)">
<use xlink:href="#l"/>
<use x="44.083984" xlink:href="#f"/>
<use x="105.607422" xlink:href="#j"/>
<use x="144.970703" xlink:href="#h"/>
<use x="242.382812" xlink:href="#e"/>
<use x="270.166016" xlink:href="#g"/>
<use x="333.544922" xlink:href="#k"/>
<use x="394.824219" xlink:href="#i"/>
</g>
</g>
<path d="m681.93 167.98 4.9814 0.98987q2.354 0.46777 2.8217-1.8862l1.509-7.594q0.46777-2.354-1.8862-2.8217l-4.9814-0.98987q-2.354-0.46777-2.8217 1.8862l-1.509 7.594q-0.46777 2.354 1.8862 2.8217z" clip-path="url(#a)" fill="#fff" stroke="#fff"/>
<g clip-path="url(#a)">
<defs>
<path id="an" d="m53.516 70.516v-9.625q-5.6094 2.6875-10.594 4-4.9844 1.3281-9.625 1.3281-8.0469 0-12.422-3.125t-4.375-8.8906q0-4.8438 2.9062-7.3125 2.9062-2.4531 11.016-3.9688l5.9531-1.2188q11.031-2.1094 16.281-7.4062t5.25-14.172q0-10.609-7.1094-16.078-7.0938-5.4688-20.812-5.4688-5.1719 0-11.016 1.1719-5.8281 1.1719-12.078 3.4688v10.156q6-3.3594 11.766-5.0781 5.7656-1.7031 11.328-1.7031 8.4375 0 13.031 3.3125 4.5938 3.3281 4.5938 9.4844 0 5.3594-3.2969 8.3906t-10.812 4.5469l-6.0156 1.1719q-11.031 2.1875-15.969 6.875-4.9219 4.6875-4.9219 13.047 0 9.6719 6.8125 15.234t18.766 5.5625q5.1406 0 10.453-0.9375 5.3281-0.92188 10.891-2.7656z"/>
</defs>
<g transform="translate(682.72 164) rotate(11.239) scale(.08 -.08)">
<use xlink:href="#an"/>
</g>
</g>
<path d="m384.91 259.79 2.5178-4.8589q1.1042-2.1309-1.0267-3.2351l-6.8744-3.5622q-2.1309-1.1042-3.2351 1.0267l-2.5178 4.8589q-1.1042 2.1309 1.0267 3.2351l6.8744 3.5622q2.1309 1.1042 3.2351-1.0267z" clip-path="url(#a)" fill="#fff" stroke="#fff"/>
<g clip-path="url(#a)">
<g transform="translate(381.3 257.92) rotate(-62.607) scale(.08 -.08)">
<use xlink:href="#o"/>
</g>
</g>
<path d="m518.44 166.11 4.5971 2.969q2.0161 1.3021 3.3182-0.714l4.2006-6.504q1.3021-2.0161-0.714-3.3182l-4.5971-2.969q-2.0161-1.3021-3.3182 0.714l-4.2006 6.504q-1.3021 2.0161 0.714 3.3182z" clip-path="url(#a)" fill="#fff" stroke="#fff"/>
<g clip-path="url(#a)">
<g transform="translate(520.65 162.7) rotate(32.856) scale(.08 -.08)">
<use xlink:href="#o"/>
</g>
</g>
<path d="m302.56 421.41v33.808q0 2.4 2.4 2.4h7.7425q2.4 0 2.4-2.4v-33.808q0-2.4-2.4-2.4h-7.7425q-2.4 0-2.4 2.4z" clip-path="url(#a)" fill="#fff" stroke="#fff"/>
<g clip-path="url(#a)">
<g transform="translate(306.62 421.41) rotate(90) scale(.08 -.08)">
<use xlink:href="#l"/>
<use x="44.083984" xlink:href="#f"/>
<use x="105.607422" xlink:href="#j"/>
<use x="144.970703" xlink:href="#h"/>
<use x="242.382812" xlink:href="#e"/>
<use x="270.166016" xlink:href="#g"/>
<use x="333.544922" xlink:href="#k"/>
<use x="394.824219" xlink:href="#i"/>
</g>
</g>
<path d="m479.48 307.33 3.9879-3.1064q1.8933-1.4749 0.41848-3.3682l-4.758-6.108q-1.4749-1.8933-3.3682-0.41848l-3.9879 3.1064q-1.8933 1.4749-0.41848 3.3682l4.758 6.108q1.4749 1.8933 3.3682 0.41848z" clip-path="url(#a)" fill="#fff" stroke="#fff"/>
<g clip-path="url(#a)">
<defs>
<path id="s" d="m9.8125 72.906h46.094v-8.3125h-36.234v-21.578h34.719v-8.2969h-34.719v-26.422h37.109v-8.2969h-46.969z"/>
</defs>
<g transform="translate(476.98 304.13) rotate(-37.918) scale(.08 -.08)">
<use xlink:href="#s"/>
</g>
</g>
<path d="m536.41 261.78 5.0142-3.81q1.9109-1.452 0.45892-3.3629l-4.6842-6.1648q-1.452-1.9109-3.3629-0.45892l-5.0142 3.81q-1.9109 1.452-0.45892 3.3629l4.6842 6.1648q1.452 1.9109 3.3629 0.45892z" clip-path="url(#a)" fill="#fff" stroke="#fff"/>
<g clip-path="url(#a)">
<defs>
<path id="aa" d="m39.406 66.219q-10.75 0-17.078-8.0156-6.3125-8-6.3125-21.828 0-13.766 6.3125-21.781 6.3281-8 17.078-8 10.734 0 17.016 8 6.2812 8.0156 6.2812 21.781 0 13.828-6.2812 21.828-6.2812 8.0156-17.016 8.0156zm13.812-64.906 13-14.203h-11.922l-10.797 11.672q-1.6094-0.09375-2.4688-0.14062-0.84375-0.0625-1.625-0.0625-15.375 0-24.594 10.281-9.2031 10.281-9.2031 27.516 0 17.281 9.2031 27.562 9.2188 10.281 24.594 10.281 15.328 0 24.5-10.281 9.1875-10.281 9.1875-27.562 0-12.688-5.1094-21.734-5.0938-9.0312-14.766-13.328z"/>
</defs>
<g transform="translate(533.95 258.54) rotate(-37.229) scale(.08 -.08)">
<use xlink:href="#aa"/>
</g>
</g>
<path d="m610.76 255.24 2.1409 4.5792q1.0165 2.1741 3.1906 1.1577l7.0138-3.2792q2.1741-1.0165 1.1577-3.1906l-2.1409-4.5792q-1.0165-2.1741-3.1906-1.1577l-7.0138 3.2792q-2.1741 1.0165-1.1577 3.1906z" clip-path="url(#a)" fill="#fff" stroke="#fff"/>
<g clip-path="url(#a)">
<g transform="translate(614.44 253.52) rotate(64.943) scale(.08 -.08)">
<use xlink:href="#s"/>
</g>
</g>
<path d="m628.53 300.74 2.1999 5.1349q0.94512 2.2061 3.1512 1.2609l7.1169-3.049q2.2061-0.94512 1.2609-3.1512l-2.1999-5.1349q-0.94512-2.2061-3.1512-1.2609l-7.1169 3.049q-2.2061 0.94512-1.2609 3.1512z" clip-path="url(#a)" fill="#fff" stroke="#fff"/>
<g clip-path="url(#a)">
<defs>
<path id="n" d="m64.406 67.281v-10.391q-4.9844 4.6406-10.625 6.9219-5.6406 2.2969-11.984 2.2969-12.5 0-19.141-7.6406t-6.6406-22.094q0-14.406 6.6406-22.047t19.141-7.6406q6.3438 0 11.984 2.2969t10.625 6.9375v-10.312q-5.1719-3.5156-10.969-5.2812-5.7812-1.75-12.219-1.75-16.562 0-26.094 10.125-9.5156 10.141-9.5156 27.672 0 17.578 9.5156 27.703 9.5312 10.141 26.094 10.141 6.5312 0 12.312-1.7344 5.7969-1.7344 10.875-5.2031z"/>
</defs>
<g transform="translate(632.27 299.14) rotate(66.809) scale(.08 -.08)">
<use xlink:href="#n"/>
</g>
</g>
<path d="m709.3 259.8 4.7072 1.8426q2.2349 0.87481 3.1097-1.3601l2.8222-7.2098q0.87481-2.2349-1.3601-3.1097l-4.7072-1.8426q-2.2349-0.87481-3.1097 1.3601l-2.8222 7.2098q-0.87481 2.2349 1.3601 3.1097z" clip-path="url(#a)" fill="#fff" stroke="#fff"/>
<g clip-path="url(#a)">
<g transform="translate(710.78 256.01) rotate(21.377) scale(.08 -.08)">
<use xlink:href="#s"/>
</g>
</g>
<path d="m353.05 421.41v33.808q0 2.4 2.4 2.4h7.7425q2.4 0 2.4-2.4v-33.808q0-2.4-2.4-2.4h-7.7425q-2.4 0-2.4 2.4z" clip-path="url(#a)" fill="#fff" stroke="#fff"/>
<g clip-path="url(#a)">
<g transform="translate(357.11 421.41) rotate(90) scale(.08 -.08)">
<use xlink:href="#l"/>
<use x="44.083984" xlink:href="#f"/>
<use x="105.607422" xlink:href="#j"/>
<use x="144.970703" xlink:href="#h"/>
<use x="242.382812" xlink:href="#e"/>
<use x="270.166016" xlink:href="#g"/>
<use x="333.544922" xlink:href="#k"/>
<use x="394.824219" xlink:href="#i"/>
</g>
</g>
<path d="m447.68 353.1 3.4548-5.2653q1.3166-2.0066-0.68999-3.3232l-6.4734-4.2475q-2.0066-1.3166-3.3232 0.68999l-3.4548 5.2653q-1.3166 2.0066 0.68999 3.3232l6.4734 4.2475q2.0066 1.3166 3.3232-0.68999z" clip-path="url(#a)" fill="#fff" stroke="#fff"/>
<g clip-path="url(#a)">
<g transform="translate(444.29 350.87) rotate(-56.729) scale(.08 -.08)">
<use xlink:href="#aa"/>
</g>
</g>
<path d="m498.41 348.21 3.1139 4.6379q1.3378 1.9926 3.3304 0.65475l6.4281-4.3158q1.9926-1.3378 0.65475-3.3304l-3.1139-4.6379q-1.3378-1.9926-3.3304-0.65475l-6.4281 4.3158q-1.9926 1.3378-0.65475 3.3304z" clip-path="url(#a)" fill="#fff" stroke="#fff"/>
<g clip-path="url(#a)">
<g transform="translate(501.79 345.94) rotate(56.123) scale(.08 -.08)">
<use xlink:href="#n"/>
</g>
</g>
<path d="m479.85 350.05 0.089332-5.8543q0.036618-2.3997-2.3631-2.4363l-7.7416-0.11813q-2.3997-0.036618-2.4363 2.3631l-0.089332 5.8543q-0.036617 2.3997 2.3631 2.4363l7.7416 0.11813q2.3997 0.036618 2.4363-2.3631z" clip-path="url(#a)" fill="#fff" stroke="#fff"/>
<g clip-path="url(#a)">
<g transform="translate(475.78 349.99) rotate(-89.126) scale(.08 -.08)">
<use xlink:href="#z"/>
</g>
</g>
<path d="m650.16 346.75 1.9845 5.1q0.8703 2.2366 3.1069 1.3664l7.2155-2.8076q2.2366-0.8703 1.3664-3.1069l-1.9845-5.1q-0.87029-2.2366-3.1069-1.3664l-7.2155 2.8076q-2.2366 0.87029-1.3664 3.1069z" clip-path="url(#a)" fill="#fff" stroke="#fff"/>
<g clip-path="url(#a)">
<g transform="translate(653.95 345.28) rotate(68.739) scale(.08 -.08)">
<use xlink:href="#o"/>
</g>
</g>
<path d="m626.2 351.55 1.7492-4.4954q0.8703-2.2366-1.3664-3.1069l-7.2155-2.8076q-2.2366-0.87029-3.1069 1.3664l-1.7492 4.4954q-0.87029 2.2366 1.3664 3.1069l7.2155 2.8076q2.2366 0.8703 3.1069-1.3664z" clip-path="url(#a)" fill="#fff" stroke="#fff"/>
<g clip-path="url(#a)">
<g transform="translate(622.41 350.08) rotate(-68.739) scale(.08 -.08)">
<use xlink:href="#ab"/>
</g>
</g>
<path d="m668.61 421.41v33.808q0 2.4 2.4 2.4h7.7425q2.4 0 2.4-2.4v-33.808q0-2.4-2.4-2.4h-7.7425q-2.4 0-2.4 2.4z" clip-path="url(#a)" fill="#fff" stroke="#fff"/>
<g clip-path="url(#a)">
<g transform="translate(672.67 421.41) rotate(90) scale(.08 -.08)">
<use xlink:href="#l"/>
<use x="44.083984" xlink:href="#f"/>
<use x="105.607422" xlink:href="#j"/>
<use x="144.970703" xlink:href="#h"/>
<use x="242.382812" xlink:href="#e"/>
<use x="270.166016" xlink:href="#g"/>
<use x="333.544922" xlink:href="#k"/>
<use x="394.824219" xlink:href="#i"/>
</g>
</g>
<path d="m794.14 353.27 3.684-4.1626q1.5906-1.7972-0.20663-3.3878l-5.7979-5.1313q-1.7972-1.5906-3.3878 0.20663l-3.684 4.1626q-1.5906 1.7972 0.20663 3.3878l5.7979 5.1313q1.7972 1.5906 3.3878-0.20663z" clip-path="url(#a)" fill="#fff" stroke="#fff"/>
<g clip-path="url(#a)">
<defs>
<path id="ao" d="m44.391 34.188q3.1719-1.0781 6.1719-4.5938t6.0312-9.6719l10.016-19.922h-10.609l-9.3125 18.703q-3.625 7.3281-7.0156 9.7188t-9.25 2.3906h-10.75v-30.812h-9.8594v72.906h22.266q12.5 0 18.656-5.2344 6.1562-5.2188 6.1562-15.766 0-6.8906-3.2031-11.438-3.2031-4.5312-9.2969-6.2812zm-24.719 30.609v-25.875h12.406q7.125 0 10.766 3.2969t3.6406 9.6875-3.6406 9.6406-10.766 3.25z"/>
</defs>
<g transform="translate(791.09 350.57) rotate(-48.49) scale(.08 -.08)">
<use xlink:href="#ao"/>
</g>
</g>
<path d="m837.48 349.92 0.085231-5.5856q0.036618-2.3997-2.3631-2.4363l-7.7416-0.11813q-2.3997-0.036618-2.4363 2.3631l-0.085231 5.5856q-0.036617 2.3997 2.3631 2.4363l7.7416 0.11813q2.3997 0.036617 2.4363-2.3631z" clip-path="url(#a)" fill="#fff" stroke="#fff"/>
<g clip-path="url(#a)">
<g transform="translate(833.42 349.86) rotate(-89.126) scale(.08 -.08)">
<use xlink:href="#n"/>
</g>
</g>
<path d="m866.71 349.05 3.9175 4.3514q1.6058 1.7837 3.3894 0.17785l5.7541-5.1804q1.7837-1.6058 0.17785-3.3894l-3.9175-4.3514q-1.6058-1.7837-3.3894-0.17785l-5.7541 5.1804q-1.7837 1.6058-0.17785 3.3894z" clip-path="url(#a)" fill="#fff" stroke="#fff"/>
<g clip-path="url(#a)">
<g transform="translate(869.73 346.33) rotate(48.004) scale(.08 -.08)">
<use xlink:href="#z"/>
</g>
</g>
<path d="m744.34 421.41v33.808q0 2.4 2.4 2.4h7.7425q2.4 0 2.4-2.4v-33.808q0-2.4-2.4-2.4h-7.7425q-2.4 0-2.4 2.4z" clip-path="url(#a)" fill="#fff" stroke="#fff"/>
<g clip-path="url(#a)">
<g transform="translate(748.4 421.41) rotate(90) scale(.08 -.08)">
<use xlink:href="#l"/>
<use x="44.083984" xlink:href="#f"/>
<use x="105.607422" xlink:href="#j"/>
<use x="144.970703" xlink:href="#h"/>
<use x="242.382812" xlink:href="#e"/>
<use x="270.166016" xlink:href="#g"/>
<use x="333.544922" xlink:href="#k"/>
<use x="394.824219" xlink:href="#i"/>
</g>
</g>
<path d="m824.28 421.41v33.808q0 2.4 2.4 2.4h7.7425q2.4 0 2.4-2.4v-33.808q0-2.4-2.4-2.4h-7.7425q-2.4 0-2.4 2.4z" clip-path="url(#a)" fill="#fff" stroke="#fff"/>
<g clip-path="url(#a)">
<g transform="translate(828.34 421.41) rotate(90) scale(.08 -.08)">
<use xlink:href="#l"/>
<use x="44.083984" xlink:href="#f"/>
<use x="105.607422" xlink:href="#j"/>
<use x="144.970703" xlink:href="#h"/>
<use x="242.382812" xlink:href="#e"/>
<use x="270.166016" xlink:href="#g"/>
<use x="333.544922" xlink:href="#k"/>
<use x="394.824219" xlink:href="#i"/>
</g>
</g>
<path d="m597.08 421.41v33.808q0 2.4 2.4 2.4h7.7425q2.4 0 2.4-2.4v-33.808q0-2.4-2.4-2.4h-7.7425q-2.4 0-2.4 2.4z" clip-path="url(#a)" fill="#fff" stroke="#fff"/>
<g clip-path="url(#a)">
<g transform="translate(601.14 421.41) rotate(90) scale(.08 -.08)">
<use xlink:href="#l"/>
<use x="44.083984" xlink:href="#f"/>
<use x="105.607422" xlink:href="#j"/>
<use x="144.970703" xlink:href="#h"/>
<use x="242.382812" xlink:href="#e"/>
<use x="270.166016" xlink:href="#g"/>
<use x="333.544922" xlink:href="#k"/>
<use x="394.824219" xlink:href="#i"/>
</g>
</g>
<path d="m407.74 421.41v33.808q0 2.4 2.4 2.4h7.7425q2.4 0 2.4-2.4v-33.808q0-2.4-2.4-2.4h-7.7425q-2.4 0-2.4 2.4z" clip-path="url(#a)" fill="#fff" stroke="#fff"/>
<g clip-path="url(#a)">
<g transform="translate(411.81 421.41) rotate(90) scale(.08 -.08)">
<use xlink:href="#l"/>
<use x="44.083984" xlink:href="#f"/>
<use x="105.607422" xlink:href="#j"/>
<use x="144.970703" xlink:href="#h"/>
<use x="242.382812" xlink:href="#e"/>
<use x="270.166016" xlink:href="#g"/>
<use x="333.544922" xlink:href="#k"/>
<use x="394.824219" xlink:href="#i"/>
</g>
</g>
<path d="m529.76 421.41v33.808q0 2.4 2.4 2.4h7.7425q2.4 0 2.4-2.4v-33.808q0-2.4-2.4-2.4h-7.7425q-2.4 0-2.4 2.4z" clip-path="url(#a)" fill="#fff" stroke="#fff"/>
<g clip-path="url(#a)">
<g transform="translate(533.82 421.41) rotate(90) scale(.08 -.08)">
<use xlink:href="#l"/>
<use x="44.083984" xlink:href="#f"/>
<use x="105.607422" xlink:href="#j"/>
<use x="144.970703" xlink:href="#h"/>
<use x="242.382812" xlink:href="#e"/>
<use x="270.166016" xlink:href="#g"/>
<use x="333.544922" xlink:href="#k"/>
<use x="394.824219" xlink:href="#i"/>
</g>
</g>
<path d="m52.997 349.98 0.34629-5.0431q0.16441-2.3944-2.23-2.5588l-7.7243-0.5304q-2.3944-0.16441-2.5588 2.23l-0.34629 5.0431q-0.16441 2.3944 2.23 2.5588l7.7243 0.5304q2.3944 0.16441 2.5588-2.23z" clip-path="url(#a)" fill="#fff" stroke="#fff"/>
<g clip-path="url(#a)">
<g transform="translate(48.942 349.7) rotate(-86.072) scale(.08 -.08)">
<use xlink:href="#s"/>
</g>
</g>
<path d="m46.776 344.67 0.38268 5.5731q0.16441 2.3944 2.5588 2.23l7.7243-0.5304q2.3944-0.16441 2.23-2.5588l-0.38268-5.5731q-0.16441-2.3944-2.5588-2.23l-7.7243 0.5304q-2.3944 0.16441-2.23 2.5588z" clip-path="url(#a)" fill="#fff" stroke="#fff"/>
<g clip-path="url(#a)">
<g transform="translate(50.831 344.39) rotate(86.072) scale(.08 -.08)">
<use xlink:href="#n"/>
</g>
</g>
<path d="m66.939 421.41v33.808q0 2.4 2.4 2.4h7.7425q2.4 0 2.4-2.4v-33.808q0-2.4-2.4-2.4h-7.7425q-2.4 0-2.4 2.4z" clip-path="url(#a)" fill="#fff" stroke="#fff"/>
<g clip-path="url(#a)">
<g transform="translate(71.002 421.41) rotate(90) scale(.08 -.08)">
<use xlink:href="#l"/>
<use x="44.083984" xlink:href="#f"/>
<use x="105.607422" xlink:href="#j"/>
<use x="144.970703" xlink:href="#h"/>
<use x="242.382812" xlink:href="#e"/>
<use x="270.166016" xlink:href="#g"/>
<use x="333.544922" xlink:href="#k"/>
<use x="394.824219" xlink:href="#i"/>
</g>
</g>
<path d="m109.77 351.09 1.187-5.4587q0.50994-2.3452-1.8353-2.8551l-7.5657-1.6451q-2.3452-0.50994-2.8551 1.8353l-1.187 5.4587q-0.50994 2.3452 1.8353 2.8551l7.5657 1.6451q2.3452 0.50994 2.8551-1.8353z" clip-path="url(#a)" fill="#fff" stroke="#fff"/>
<g clip-path="url(#a)">
<g transform="translate(105.8 350.23) rotate(-77.732) scale(.08 -.08)">
<use xlink:href="#n"/>
</g>
</g>
<path d="m117.43 345.29 1.3381 6.1537q0.50994 2.3452 2.8551 1.8353l7.5657-1.6451q2.3452-0.50994 1.8353-2.8551l-1.3381-6.1537q-0.50994-2.3452-2.8551-1.8353l-7.5657 1.6451q-2.3452 0.50994-1.8353 2.8551z" clip-path="url(#a)" fill="#fff" stroke="#fff"/>
<g clip-path="url(#a)">
<g transform="translate(121.4 344.42) rotate(77.732) scale(.08 -.08)">
<use xlink:href="#aa"/>
</g>
</g>
<path d="m176.33 421.41v33.808q0 2.4 2.4 2.4h7.7425q2.4 0 2.4-2.4v-33.808q0-2.4-2.4-2.4h-7.7425q-2.4 0-2.4 2.4z" clip-path="url(#a)" fill="#fff" stroke="#fff"/>
<g clip-path="url(#a)">
<g transform="translate(180.4 421.41) rotate(90) scale(.08 -.08)">
<use xlink:href="#l"/>
<use x="44.083984" xlink:href="#f"/>
<use x="105.607422" xlink:href="#j"/>
<use x="144.970703" xlink:href="#h"/>
<use x="242.382812" xlink:href="#e"/>
<use x="270.166016" xlink:href="#g"/>
<use x="333.544922" xlink:href="#k"/>
<use x="394.824219" xlink:href="#i"/>
</g>
</g>
<path d="m87.976 421.41v33.808q0 2.4 2.4 2.4h7.7425q2.4 0 2.4-2.4v-33.808q0-2.4-2.4-2.4h-7.7425q-2.4 0-2.4 2.4z" clip-path="url(#a)" fill="#fff" stroke="#fff"/>
<g clip-path="url(#a)">
<g transform="translate(92.04 421.41) rotate(90) scale(.08 -.08)">
<use xlink:href="#l"/>
<use x="44.083984" xlink:href="#f"/>
<use x="105.607422" xlink:href="#j"/>
<use x="144.970703" xlink:href="#h"/>
<use x="242.382812" xlink:href="#e"/>
<use x="270.166016" xlink:href="#g"/>
<use x="333.544922" xlink:href="#k"/>
<use x="394.824219" xlink:href="#i"/>
</g>
</g>
<path d="m130.33 456 5.4209-33.37q0.38483-2.3689-1.9841-2.7538l-7.6423-1.2415q-2.3689-0.38483-2.7538 1.9841l-5.4209 33.37q-0.38483 2.3689 1.9841 2.7538l7.6423 1.2415q2.3689 0.38483 2.7538-1.9841z" clip-path="url(#a)" fill="#fff" stroke="#fff"/>
<g clip-path="url(#a)">
<g transform="translate(126.32 455.35) rotate(-80.773) scale(.08 -.08)">
<use xlink:href="#l"/>
<use x="44.083984" xlink:href="#f"/>
<use x="105.607422" xlink:href="#j"/>
<use x="144.970703" xlink:href="#h"/>
<use x="242.382812" xlink:href="#e"/>
<use x="270.166016" xlink:href="#g"/>
<use x="333.544922" xlink:href="#k"/>
<use x="394.824219" xlink:href="#i"/>
</g>
</g>
<path d="m132.68 422.63 5.4209 33.37q0.38483 2.3689 2.7538 1.9841l7.6423-1.2415q2.3689-0.38483 1.9841-2.7538l-5.4209-33.37q-0.38483-2.3689-2.7538-1.9841l-7.6423 1.2415q-2.3689 0.38483-1.9841 2.7538z" clip-path="url(#a)" fill="#fff" stroke="#fff"/>
<g clip-path="url(#a)">
<g transform="translate(136.69 421.98) rotate(80.773) scale(.08 -.08)">
<use xlink:href="#l"/>
<use x="44.083984" xlink:href="#f"/>
<use x="105.607422" xlink:href="#j"/>
<use x="144.970703" xlink:href="#h"/>
<use x="242.382812" xlink:href="#e"/>
<use x="270.166016" xlink:href="#g"/>
<use x="333.544922" xlink:href="#k"/>
<use x="394.824219" xlink:href="#i"/>
</g>
</g>
<path d="m37.486 421.41v33.808q0 2.4 2.4 2.4h7.7425q2.4 0 2.4-2.4v-33.808q0-2.4-2.4-2.4h-7.7425q-2.4 0-2.4 2.4z" clip-path="url(#a)" fill="#fff" stroke="#fff"/>
<g clip-path="url(#a)">
<g transform="translate(41.55 421.41) rotate(90) scale(.08 -.08)">
<use xlink:href="#l"/>
<use x="44.083984" xlink:href="#f"/>
<use x="105.607422" xlink:href="#j"/>
<use x="144.970703" xlink:href="#h"/>
<use x="242.382812" xlink:href="#e"/>
<use x="270.166016" xlink:href="#g"/>
<use x="333.544922" xlink:href="#k"/>
<use x="394.824219" xlink:href="#i"/>
</g>
</g>
<path d="m50.109 421.41v33.808q0 2.4 2.4 2.4h7.7425q2.4 0 2.4-2.4v-33.808q0-2.4-2.4-2.4h-7.7425q-2.4 0-2.4 2.4z" clip-path="url(#a)" fill="#fff" stroke="#fff"/>
<g clip-path="url(#a)">
<g transform="translate(54.172 421.41) rotate(90) scale(.08 -.08)">
<use xlink:href="#l"/>
<use x="44.083984" xlink:href="#f"/>
<use x="105.607422" xlink:href="#j"/>
<use x="144.970703" xlink:href="#h"/>
<use x="242.382812" xlink:href="#e"/>
<use x="270.166016" xlink:href="#g"/>
<use x="333.544922" xlink:href="#k"/>
<use x="394.824219" xlink:href="#i"/>
</g>
</g>
<path d="m214.2 421.41v33.808q0 2.4 2.4 2.4h7.7425q2.4 0 2.4-2.4v-33.808q0-2.4-2.4-2.4h-7.7425q-2.4 0-2.4 2.4z" clip-path="url(#a)" fill="#fff" stroke="#fff"/>
<g clip-path="url(#a)">
<g transform="translate(218.26 421.41) rotate(90) scale(.08 -.08)">
<use xlink:href="#l"/>
<use x="44.083984" xlink:href="#f"/>
<use x="105.607422" xlink:href="#j"/>
<use x="144.970703" xlink:href="#h"/>
<use x="242.382812" xlink:href="#e"/>
<use x="270.166016" xlink:href="#g"/>
<use x="333.544922" xlink:href="#k"/>
<use x="394.824219" xlink:href="#i"/>
</g>
</g>
<path d="m466.65 421.41v33.808q0 2.4 2.4 2.4h7.7425q2.4 0 2.4-2.4v-33.808q0-2.4-2.4-2.4h-7.7425q-2.4 0-2.4 2.4z" clip-path="url(#a)" fill="#fff" stroke="#fff"/>
<g clip-path="url(#a)">
<g transform="translate(470.71 421.41) rotate(90) scale(.08 -.08)">
<use xlink:href="#l"/>
<use x="44.083984" xlink:href="#f"/>
<use x="105.607422" xlink:href="#j"/>
<use x="144.970703" xlink:href="#h"/>
<use x="242.382812" xlink:href="#e"/>
<use x="270.166016" xlink:href="#g"/>
<use x="333.544922" xlink:href="#k"/>
<use x="394.824219" xlink:href="#i"/>
</g>
</g>
<path d="m908.43 421.41v33.808q0 2.4 2.4 2.4h7.7425q2.4 0 2.4-2.4v-33.808q0-2.4-2.4-2.4h-7.7425q-2.4 0-2.4 2.4z" clip-path="url(#a)" fill="#fff" stroke="#fff"/>
<g clip-path="url(#a)">
<g transform="translate(912.49 421.41) rotate(90) scale(.08 -.08)">
<use xlink:href="#l"/>
<use x="44.083984" xlink:href="#f"/>
<use x="105.607422" xlink:href="#j"/>
<use x="144.970703" xlink:href="#h"/>
<use x="242.382812" xlink:href="#e"/>
<use x="270.166016" xlink:href="#g"/>
<use x="333.544922" xlink:href="#k"/>
<use x="394.824219" xlink:href="#i"/>
</g>
</g>
<defs>
<path id="b" d="m0 8.6603c2.2967 0 4.4997-0.9125 6.1237-2.5365 1.624-1.624 2.5365-3.827 2.5365-6.1237s-0.9125-4.4997-2.5365-6.1237c-1.624-1.624-3.827-2.5365-6.1237-2.5365s-4.4997 0.9125-6.1237 2.5365c-1.624 1.624-2.5365 3.827-2.5365 6.1237s0.9125 4.4997 2.5365 6.1237c1.624 1.624 3.827 2.5365 6.1237 2.5365z"/>
</defs>
<g clip-path="url(#a)" fill="#ffffff" stroke="#ffffff">
<use x="43.757576" y="483.636364" xlink:href="#b"/>
<use x="56.379953" y="483.636364" xlink:href="#b"/>
<use x="73.20979" y="483.636364" xlink:href="#b"/>
<use x="94.247086" y="483.636364" xlink:href="#b"/>
<use x="119.491841" y="483.636364" xlink:href="#b"/>
<use x="148.944056" y="483.636364" xlink:href="#b"/>
<use x="182.60373" y="483.636364" xlink:href="#b"/>
<use x="220.470862" y="483.636364" xlink:href="#b"/>
<use x="262.545455" y="483.636364" xlink:href="#b"/>
<use x="308.827506" y="483.636364" xlink:href="#b"/>
<use x="359.317016" y="483.636364" xlink:href="#b"/>
<use x="414.013986" y="483.636364" xlink:href="#b"/>
<use x="472.918415" y="483.636364" xlink:href="#b"/>
<use x="536.030303" y="483.636364" xlink:href="#b"/>
<use x="603.34965" y="483.636364" xlink:href="#b"/>
<use x="674.876457" y="483.636364" xlink:href="#b"/>
<use x="750.610723" y="483.636364" xlink:href="#b"/>
<use x="830.552448" y="483.636364" xlink:href="#b"/>
<use x="914.701632" y="483.636364" xlink:href="#b"/>
<use x="918.909091" y="208.680864" xlink:href="#b"/>
<use x="260.104252" y="23.030303" xlink:href="#b"/>
<use x="105.0287" y="208.680864" xlink:href="#b"/>
<use x="262.545455" y="392.985918" xlink:href="#b"/>
<use x="452.371989" y="115.972849" xlink:href="#b"/>
<use x="308.827506" y="392.985918" xlink:href="#b"/>
<use x="595.916472" y="208.680864" xlink:href="#b"/>
<use x="359.317016" y="392.985918" xlink:href="#b"/>
<use x="474.320901" y="301.074425" xlink:href="#b"/>
<use x="639.113054" y="301.074425" xlink:href="#b"/>
<use x="674.876457" y="392.985918" xlink:href="#b"/>
<use x="831.954934" y="301.074425" xlink:href="#b"/>
<use x="750.610723" y="392.985918" xlink:href="#b"/>
<use x="830.552448" y="392.985918" xlink:href="#b"/>
<use x="603.34965" y="392.985918" xlink:href="#b"/>
<use x="414.013986" y="392.985918" xlink:href="#b"/>
<use x="536.030303" y="392.985918" xlink:href="#b"/>
<use x="50.068765" y="301.074425" xlink:href="#b"/>
<use x="73.20979" y="392.985918" xlink:href="#b"/>
<use x="114.232517" y="301.074425" xlink:href="#b"/>
<use x="182.60373" y="392.985918" xlink:href="#b"/>
<use x="94.247086" y="392.985918" xlink:href="#b"/>
<use x="134.217949" y="392.985918" xlink:href="#b"/>
<use x="43.757576" y="392.985918" xlink:href="#b"/>
<use x="56.379953" y="392.985918" xlink:href="#b"/>
<use x="220.470862" y="392.985918" xlink:href="#b"/>
<use x="472.918415" y="392.985918" xlink:href="#b"/>
<use x="914.701632" y="392.985918" xlink:href="#b"/>
</g>
<g clip-path="url(#a)">
<defs>
<path id="r" d="m54.891 33.016v-33.016h-8.9844v32.719q0 7.7656-3.0312 11.609-3.0312 3.8594-9.0781 3.8594-7.2812 0-11.484-4.6406-4.2031-4.625-4.2031-12.641v-30.906h-9.0312v75.984h9.0312v-29.797q3.2344 4.9375 7.5938 7.375 4.375 2.4375 10.094 2.4375 9.4219 0 14.25-5.8281 4.8438-5.8281 4.8438-17.156z"/>
</defs>
<g transform="translate(34.458 486.4) scale(.1 -.1)">
<use xlink:href="#l"/>
<use x="61.083984" xlink:href="#r"/>
<use x="124.462891" xlink:href="#f"/>
</g>
</g>
<g clip-path="url(#a)">
<defs>
<path id="q" d="m30.609 48.391q-7.2188 0-11.422-5.6406t-4.2031-15.453 4.1719-15.453q4.1875-5.6406 11.453-5.6406 7.1875 0 11.375 5.6562 4.2031 5.6719 4.2031 15.438 0 9.7188-4.2031 15.406-4.1875 5.6875-11.375 5.6875zm0 7.6094q11.719 0 18.406-7.625 6.7031-7.6094 6.7031-21.078 0-13.422-6.7031-21.078-6.6875-7.6406-18.406-7.6406-11.766 0-18.438 7.6406-6.6562 7.6562-6.6562 21.078 0 13.469 6.6562 21.078 6.6719 7.625 18.438 7.625z"/>
<path id="al" d="m2.9844 54.688h9.5156l17.094-45.891 17.094 45.891h9.5156l-20.516-54.688h-12.203z"/>
</defs>
<g transform="translate(41.025 486.4) scale(.1 -.1)">
<use xlink:href="#h"/>
<use x="97.412109" xlink:href="#q"/>
<use x="158.59375" xlink:href="#al"/>
<use x="217.773438" xlink:href="#e"/>
<use x="245.556641" xlink:href="#f"/>
</g>
</g>
<g clip-path="url(#a)">
<defs>
<path id="ag" d="m45.406 46.391v29.594h8.9844v-75.984h-8.9844v8.2031q-2.8281-4.875-7.1562-7.25-4.3125-2.375-10.375-2.375-9.9062 0-16.141 7.9062-6.2188 7.9219-6.2188 20.812t6.2188 20.797q6.2344 7.9062 16.141 7.9062 6.0625 0 10.375-2.375 4.3281-2.3594 7.1562-7.2344zm-30.609-19.094q0-9.9062 4.0781-15.547t11.203-5.6406 11.219 5.6406q4.1094 5.6406 4.1094 15.547t-4.1094 15.547q-4.0938 5.6406-11.219 5.6406t-11.203-5.6406-4.0781-15.547z"/>
</defs>
<g transform="translate(55.682 486.4) scale(.1 -.1)">
<use xlink:href="#f"/>
<use x="61.523438" xlink:href="#k"/>
<use x="122.802734" xlink:href="#j"/>
<use x="162.166016" xlink:href="#g"/>
<use x="225.544922" xlink:href="#f"/>
<use x="287.068359" xlink:href="#ag"/>
</g>
</g>
<g clip-path="url(#a)">
<defs>
<path id="as" d="m33.797-14.703h-4.8906l-0.046875 14.703q-5.125 0.09375-10.25 1.1875-5.125 1.1094-10.312 3.3125v8.7812q4.9844-3.125 10.078-4.7188 5.1094-1.5781 10.531-1.625v22.266q-10.797 1.75-15.703 5.9531t-4.9062 11.531q0 7.9531 5.3281 12.531 5.3281 4.5938 15.281 5.2812v11.484h4.8906v-11.328q4.5312-0.20312 8.7812-0.96875 4.25-0.75 8.2969-2.0625v-8.5469q-4.0469 2.0469-8.3281 3.1719-4.2656 1.125-8.75 1.3125v-20.844q11.078-1.7031 16.297-6.1094 5.2344-4.3906 5.2344-12 0-8.25-5.5469-13.016t-15.984-5.5zm-4.8906 52.297v20.031q-5.6562-0.64062-8.6406-3.2344-2.9844-2.5781-2.9844-6.875 0-4.2031 2.75-6.5469 2.7656-2.3438 8.875-3.375zm4.8906-9.375v-21.141q6.1875 0.82812 9.3438 3.5156t3.1562 7.0781q0 4.2969-3.0156 6.8281-3 2.5469-9.4844 3.7188z"/>
</defs>
<g transform="translate(91.066 486.4) scale(.1 -.1)">
<use xlink:href="#as"/>
</g>
</g>
<g clip-path="url(#a)">
<defs>
<path id="u" d="m37.797 64.312-24.906-38.922h24.906zm-2.5938 8.5938h12.406v-47.516h10.406v-8.2031h-10.406v-17.188h-9.8125v17.188h-32.906v9.5156z"/>
<path id="ae" d="m8.2031 72.906h46.875v-4.2031l-26.469-68.703h-10.297l24.906 64.594h-35.016z"/>
<path id="t" d="m31.781 34.625q-7.0312 0-11.062-3.7656-4.0156-3.7656-4.0156-10.344 0-6.5938 4.0156-10.359 4.0312-3.7656 11.062-3.7656t11.078 3.7812q4.0625 3.7969 4.0625 10.344 0 6.5781-4.0312 10.344-4.0156 3.7656-11.109 3.7656zm-9.8594 4.1875q-6.3438 1.5625-9.8906 5.9062-3.5312 4.3594-3.5312 10.609 0 8.7344 6.2188 13.812 6.2344 5.0781 17.062 5.0781 10.891 0 17.094-5.0781t6.2031-13.812q0-6.25-3.5469-10.609-3.5312-4.3438-9.8281-5.9062 7.125-1.6562 11.094-6.5 3.9844-4.8281 3.9844-11.797 0-10.609-6.4688-16.281-6.4688-5.6562-18.531-5.6562-12.047 0-18.531 5.6562-6.4688 5.6719-6.4688 16.281 0 6.9688 4 11.797 4.0156 4.8438 11.141 6.5zm-3.6094 15.578q0-5.6562 3.5312-8.8281 3.5469-3.1719 9.9375-3.1719 6.3594 0 9.9375 3.1719 3.5938 3.1719 3.5938 8.8281 0 5.6719-3.5938 8.8438-3.5781 3.1719-9.9375 3.1719-6.3906 0-9.9375-3.1719-3.5312-3.1719-3.5312-8.8438z"/>
</defs>
<g transform="translate(109.95 486.4) scale(.1 -.1)">
<use xlink:href="#u"/>
<use x="63.623047" xlink:href="#ae"/>
<use x="127.246094" xlink:href="#t"/>
</g>
</g>
<g clip-path="url(#a)">
<g transform="translate(132.29 486.4) scale(.1 -.1)">
<use xlink:href="#h"/>
<use x="97.412109" xlink:href="#e"/>
<use x="125.195312" xlink:href="#i"/>
<use x="152.978516" xlink:href="#i"/>
<use x="180.761719" xlink:href="#e"/>
<use x="208.544922" xlink:href="#q"/>
<use x="269.726562" xlink:href="#g"/>
</g>
</g>
<g clip-path="url(#a)">
<defs>
<path id="ak" d="m4.2031 54.688h8.9844l11.234-42.672 11.172 42.672h10.594l11.234-42.672 11.188 42.672h8.9844l-14.312-54.688h-10.594l-11.766 44.828-11.812-44.828h-10.609z"/>
</defs>
<g transform="translate(157.11 486.4) scale(.1 -.1)">
<use xlink:href="#ak"/>
<use x="81.787109" xlink:href="#q"/>
<use x="142.96875" xlink:href="#j"/>
<use x="184.082031" xlink:href="#i"/>
<use x="211.865234" xlink:href="#ag"/>
<use x="275.341797" xlink:href="#ak"/>
<use x="357.128906" xlink:href="#e"/>
<use x="384.912109" xlink:href="#ag"/>
<use x="448.388672" xlink:href="#f"/>
</g>
</g>
<g clip-path="url(#a)">
<defs>
<path id="ar" d="m11.719 12.406h10.297v-8.4062l-8-15.625h-6.2969l4 15.625z"/>
</defs>
<g transform="translate(218.88 486.4) scale(.1 -.1)">
<use xlink:href="#ar"/>
</g>
</g>
<g clip-path="url(#a)">
<defs>
<path id="at" d="m9.0781 75.984h9.0312v-44.875l26.812 23.578h11.469l-29-25.578 30.234-29.109h-11.719l-27.797 26.703v-26.703h-9.0312z"/>
<path id="y" d="m45.406 27.984q0 9.7656-4.0312 15.125-4.0156 5.375-11.297 5.375-7.2188 0-11.25-5.375-4.0312-5.3594-4.0312-15.125 0-9.7188 4.0312-15.094t11.25-5.375q7.2812 0 11.297 5.375 4.0312 5.375 4.0312 15.094zm8.9844-21.203q0-13.953-6.2031-20.766-6.1875-6.8125-18.984-6.8125-4.7344 0-8.9375 0.70312t-8.1562 2.1719v8.7344q3.9531-2.1406 7.8125-3.1562 3.8594-1.0312 7.8594-1.0312 8.8438 0 13.234 4.6094t4.3906 13.938v4.4531q-2.7812-4.8438-7.125-7.2344t-10.406-2.3906q-10.047 0-16.203 7.6562-6.1562 7.6719-6.1562 20.328 0 12.688 6.1562 20.344 6.1562 7.6719 16.203 7.6719 6.0625 0 10.406-2.3906t7.125-7.2188v8.2969h8.9844z"/>
</defs>
<g transform="translate(243.98 486.4) scale(.1 -.1)">
<use xlink:href="#h"/>
<use x="97.412109" xlink:href="#k"/>
<use x="158.691406" xlink:href="#at"/>
<use x="216.601562" xlink:href="#e"/>
<use x="244.384766" xlink:href="#g"/>
<use x="307.763672" xlink:href="#y"/>
</g>
</g>
<g clip-path="url(#a)">
<defs>
<path id="w" d="m18.312 70.219v-15.531h18.5v-6.9844h-18.5v-29.688q0-6.6875 1.8281-8.5938t7.4531-1.9062h9.2188v-7.5156h-9.2188q-10.406 0-14.359 3.875-3.9531 3.8906-3.9531 14.141v29.688h-6.5938v6.9844h6.5938v15.531z"/>
</defs>
<g transform="translate(305.48 486.4) scale(.1 -.1)">
<use xlink:href="#e"/>
<use x="27.783203" xlink:href="#w"/>
</g>
</g>
<g clip-path="url(#a)">
<g transform="translate(351.11 486.4) scale(.1 -.1)">
<use xlink:href="#w"/>
<use x="39.208984" xlink:href="#r"/>
<use x="102.587891" xlink:href="#f"/>
</g>
</g>
<g clip-path="url(#a)">
<defs>
<path id="x" d="m44.281 53.078v-8.5q-3.7969 1.9531-7.9062 2.9219-4.0938 0.98438-8.5 0.98438-6.6875 0-10.031-2.0469t-3.3438-6.1562q0-3.125 2.3906-4.9062t9.625-3.3906l3.0781-0.6875q9.5625-2.0469 13.594-5.7812t4.0312-10.422q0-7.625-6.0312-12.078-6.0312-4.4375-16.578-4.4375-4.3906 0-9.1562 0.85938t-10.031 2.5625v9.2812q4.9844-2.5938 9.8125-3.8906 4.8281-1.2812 9.5781-1.2812 6.3438 0 9.75 2.1719 3.4219 2.1719 3.4219 6.125 0 3.6562-2.4688 5.6094-2.4531 1.9531-10.812 3.7656l-3.125 0.73438q-8.3438 1.75-12.062 5.3906-3.7031 3.6406-3.7031 9.9844 0 7.7188 5.4688 11.906 5.4688 4.2031 15.531 4.2031 4.9688 0 9.3594-0.73438 4.4062-0.71875 8.1094-2.1875z"/>
</defs>
<g transform="translate(394 486.4) scale(.1 -.1)">
<use xlink:href="#x"/>
<use x="52.099609" xlink:href="#f"/>
<use x="113.623047" xlink:href="#al"/>
<use x="172.802734" xlink:href="#f"/>
<use x="234.326172" xlink:href="#g"/>
<use x="297.705078" xlink:href="#w"/>
<use x="336.914062" xlink:href="#r"/>
</g>
</g>
<g clip-path="url(#a)">
<defs>
<path id="aq" d="m4.8906 31.391h26.312v-8h-26.312z"/>
</defs>
<g transform="translate(471.11 486.4) scale(.1 -.1)">
<use xlink:href="#aq"/>
</g>
</g>
<g clip-path="url(#a)">
<g transform="translate(517.49 486.4) scale(.1 -.1)">
<use xlink:href="#r"/>
<use x="63.378906" xlink:href="#e"/>
<use x="91.162109" xlink:href="#y"/>
<use x="154.638672" xlink:href="#r"/>
<use x="218.017578" xlink:href="#f"/>
<use x="279.541016" xlink:href="#x"/>
<use x="331.640625" xlink:href="#w"/>
</g>
</g>
<g clip-path="url(#a)">
<g transform="translate(582.23 486.4) scale(.1 -.1)">
<use xlink:href="#y"/>
<use x="63.476562" xlink:href="#j"/>
<use x="102.339844" xlink:href="#q"/>
<use x="163.521484" xlink:href="#x"/>
<use x="215.621094" xlink:href="#x"/>
<use x="267.720703" xlink:href="#e"/>
<use x="295.503906" xlink:href="#g"/>
<use x="358.882812" xlink:href="#y"/>
</g>
</g>
<g clip-path="url(#a)">
<defs>
<path id="am" d="m37.109 75.984v-7.4844h-8.5938q-4.8281 0-6.7188-1.9531-1.875-1.9531-1.875-7.0312v-4.8281h14.797v-6.9844h-14.797v-47.703h-9.0312v47.703h-8.5938v6.9844h8.5938v3.8125q0 9.125 4.25 13.297 4.25 4.1875 13.469 4.1875z"/>
</defs>
<g transform="translate(665.47 486.4) scale(.1 -.1)">
<use xlink:href="#am"/>
<use x="35.205078" xlink:href="#e"/>
<use x="62.988281" xlink:href="#i"/>
<use x="90.771484" xlink:href="#h"/>
</g>
</g>
<g clip-path="url(#a)">
<g transform="translate(745.79 486.4) scale(.1 -.1)">
<use xlink:href="#q"/>
<use x="61.181641" xlink:href="#am"/>
</g>
</g>
<g clip-path="url(#a)">
<defs>
<path id="m" d="m19.188 8.2969h34.422v-8.2969h-46.281v8.2969q5.6094 5.8125 15.297 15.594 9.7031 9.7969 12.188 12.641 4.7344 5.3125 6.6094 9 1.8906 3.6875 1.8906 7.25 0 5.8125-4.0781 9.4688-4.0781 3.6719-10.625 3.6719-4.6406 0-9.7969-1.6094-5.1406-1.6094-11-4.8906v9.9688q5.9531 2.3906 11.125 3.6094 5.1875 1.2188 9.4844 1.2188 11.328 0 18.062-5.6719 6.7344-5.6562 6.7344-15.125 0-4.5-1.6875-8.5312-1.6719-4.0156-6.125-9.4844-1.2188-1.4219-7.7656-8.1875-6.5312-6.7656-18.453-18.922z"/>
<path id="v" d="m31.781 66.406q-7.6094 0-11.453-7.5-3.8281-7.4844-3.8281-22.531 0-14.984 3.8281-22.484 3.8438-7.5 11.453-7.5 7.6719 0 11.5 7.5 3.8438 7.5 3.8438 22.484 0 15.047-3.8438 22.531-3.8281 7.5-11.5 7.5zm0 7.8125q12.266 0 18.734-9.7031 6.4688-9.6875 6.4688-28.141 0-18.406-6.4688-28.109-6.4688-9.6875-18.734-9.6875-12.25 0-18.719 9.6875-6.4688 9.7031-6.4688 28.109 0 18.453 6.4688 28.141 6.4688 9.7031 18.719 9.7031z"/>
<path id="af" d="m10.797 72.906h38.719v-8.3125h-29.688v-17.859q2.1406 0.73438 4.2812 1.0938 2.1562 0.35938 4.3125 0.35938 12.203 0 19.328-6.6875 7.1406-6.6875 7.1406-18.109 0-11.766-7.3281-18.297-7.3281-6.5156-20.656-6.5156-4.5938 0-9.3594 0.78125-4.75 0.78125-9.8281 2.3438v9.9219q4.3906-2.3906 9.0781-3.5625t9.9062-1.1719q8.4531 0 13.375 4.4375 4.9375 4.4375 4.9375 12.062 0 7.6094-4.9375 12.047-4.9219 4.4531-13.375 4.4531-3.9531 0-7.8906-0.875-3.9219-0.875-8.0156-2.7344z"/>
</defs>
<g transform="translate(817.83 486.4) scale(.1 -.1)">
<use xlink:href="#m"/>
<use x="63.623047" xlink:href="#v"/>
<use x="127.246094" xlink:href="#v"/>
<use x="190.869141" xlink:href="#af"/>
</g>
</g>
<g clip-path="url(#a)">
<defs>
<path id="d" d="m10.688 12.406h10.312v-12.406h-10.312z"/>
</defs>
<g transform="translate(913.11 486.4) scale(.1 -.1)">
<use xlink:href="#d"/>
</g>
</g>
<g clip-path="url(#a)">
<defs>
<path id="ac" d="m9.8125 72.906h9.8594v-72.906h-9.8594z"/>
<path id="ap" d="m9.8125 72.906h14.703l18.594-49.609 18.703 49.609h14.703v-72.906h-9.625v64.016l-18.797-50h-9.9062l-18.797 50v-64.016h-9.5781z"/>
</defs>
<g transform="translate(897.82 211.44) scale(.1 -.1)">
<use xlink:href="#ac"/>
<use x="29.492188" xlink:href="#ap"/>
<use x="115.771484" xlink:href="#ab"/>
<use x="176.074219" xlink:href="#ah"/>
<use x="231.787109" xlink:href="#ac"/>
<use x="261.279297" xlink:href="#n"/>
<use x="331.103516" xlink:href="#ac"/>
<use x="360.595703" xlink:href="#l"/>
</g>
</g>
<g clip-path="url(#a)">
<defs>
<path id="c" d="m12.406 8.2969h16.109v55.625l-17.531-3.5156v8.9844l17.438 3.5156h9.8594v-64.609h16.109v-8.2969h-41.984z"/>
</defs>
<g transform="translate(252.15 25.79) scale(.1 -.1)">
<use xlink:href="#c"/>
<use x="63.623047" xlink:href="#d"/>
<use x="95.410156" xlink:href="#c"/>
</g>
</g>
<g clip-path="url(#a)">
<g transform="translate(97.077 211.44) scale(.1 -.1)">
<use xlink:href="#c"/>
<use x="63.623047" xlink:href="#d"/>
<use x="95.410156" xlink:href="#m"/>
</g>
</g>
<g clip-path="url(#a)">
<defs>
<path id="p" d="m40.578 39.312q7.0781-1.5156 11.047-6.3125 3.9844-4.7812 3.9844-11.812 0-10.781-7.4219-16.703-7.4219-5.9062-21.094-5.9062-4.5781 0-9.4375 0.90625t-10.031 2.7188v9.5156q4.0938-2.3906 8.9688-3.6094 4.8906-1.2188 10.219-1.2188 9.2656 0 14.125 3.6562t4.8594 10.641q0 6.4531-4.5156 10.078-4.5156 3.6406-12.562 3.6406h-8.5v8.1094h8.8906q7.2656 0 11.125 2.9062t3.8594 8.375q0 5.6094-3.9844 8.6094-3.9688 3.0156-11.391 3.0156-4.0625 0-8.7031-0.89062-4.6406-0.875-10.203-2.7188v8.7812q5.625 1.5625 10.531 2.3438t9.25 0.78125q11.234 0 17.766-5.1094 6.5469-5.0938 6.5469-13.781 0-6.0625-3.4688-10.234t-9.8594-5.7812z"/>
</defs>
<g transform="translate(254.59 395.75) scale(.1 -.1)">
<use xlink:href="#c"/>
<use x="63.623047" xlink:href="#d"/>
<use x="95.410156" xlink:href="#p"/>
</g>
</g>
<g clip-path="url(#a)">
<g transform="translate(444.42 118.73) scale(.1 -.1)">
<use xlink:href="#c"/>
<use x="63.623047" xlink:href="#d"/>
<use x="95.410156" xlink:href="#u"/>
</g>
</g>
<g clip-path="url(#a)">
<g transform="translate(300.88 395.75) scale(.1 -.1)">
<use xlink:href="#c"/>
<use x="63.623047" xlink:href="#d"/>
<use x="95.410156" xlink:href="#t"/>
</g>
</g>
<g clip-path="url(#a)">
<defs>
<path id="ad" d="m10.984 1.5156v8.9844q3.7188-1.7656 7.5156-2.6875 3.8125-0.92188 7.4844-0.92188 9.7656 0 14.906 6.5625 5.1562 6.5625 5.8906 19.953-2.8281-4.2031-7.1875-6.4531-4.3438-2.25-9.6094-2.25-10.938 0-17.312 6.6094-6.375 6.625-6.375 18.109 0 11.219 6.6406 18 6.6406 6.7969 17.672 6.7969 12.656 0 19.312-9.7031 6.6719-9.6875 6.6719-28.141 0-17.234-8.1875-27.516-8.1719-10.281-21.984-10.281-3.7188 0-7.5312 0.73438-3.7969 0.73438-7.9062 2.2031zm19.625 30.906q6.6406 0 10.516 4.5312 3.8906 4.5469 3.8906 12.469 0 7.8594-3.8906 12.422-3.875 4.5625-10.516 4.5625t-10.516-4.5625-3.875-12.422q0-7.9219 3.875-12.469 3.875-4.5312 10.516-4.5312z"/>
</defs>
<g transform="translate(587.96 211.44) scale(.1 -.1)">
<use xlink:href="#c"/>
<use x="63.623047" xlink:href="#d"/>
<use x="95.410156" xlink:href="#ad"/>
</g>
</g>
<g clip-path="url(#a)">
<g transform="translate(348.18 395.75) scale(.1 -.1)">
<use xlink:href="#c"/>
<use x="63.623047" xlink:href="#d"/>
<use x="95.410156" xlink:href="#c"/>
<use x="159.033203" xlink:href="#v"/>
</g>
</g>
<g clip-path="url(#a)">
<g transform="translate(463.19 303.83) scale(.1 -.1)">
<use xlink:href="#c"/>
<use x="63.623047" xlink:href="#d"/>
<use x="95.410156" xlink:href="#c"/>
<use x="159.033203" xlink:href="#c"/>
</g>
</g>
<g clip-path="url(#a)">
<g transform="translate(627.98 303.83) scale(.1 -.1)">
<use xlink:href="#c"/>
<use x="63.623047" xlink:href="#d"/>
<use x="95.410156" xlink:href="#c"/>
<use x="159.033203" xlink:href="#m"/>
</g>
</g>
<g clip-path="url(#a)">
<g transform="translate(663.74 395.75) scale(.1 -.1)">
<use xlink:href="#c"/>
<use x="63.623047" xlink:href="#d"/>
<use x="95.410156" xlink:href="#c"/>
<use x="159.033203" xlink:href="#p"/>
</g>
</g>
<g clip-path="url(#a)">
<g transform="translate(820.82 303.83) scale(.1 -.1)">
<use xlink:href="#c"/>
<use x="63.623047" xlink:href="#d"/>
<use x="95.410156" xlink:href="#c"/>
<use x="159.033203" xlink:href="#u"/>
</g>
</g>
<g clip-path="url(#a)">
<g transform="translate(739.48 395.75) scale(.1 -.1)">
<use xlink:href="#c"/>
<use x="63.623047" xlink:href="#d"/>
<use x="95.410156" xlink:href="#c"/>
<use x="159.033203" xlink:href="#af"/>
</g>
</g>
<g clip-path="url(#a)">
<defs>
<path id="aj" d="m33.016 40.375q-6.6406 0-10.531-4.5469-3.875-4.5312-3.875-12.438 0-7.8594 3.875-12.438 3.8906-4.5625 10.531-4.5625t10.516 4.5625q3.875 4.5781 3.875 12.438 0 7.9062-3.875 12.438-3.875 4.5469-10.516 4.5469zm19.578 30.922v-8.9844q-3.7188 1.75-7.5 2.6719-3.7812 0.9375-7.5 0.9375-9.7656 0-14.922-6.5938-5.1406-6.5938-5.875-19.922 2.875 4.25 7.2188 6.5156 4.3594 2.2656 9.5781 2.2656 10.984 0 17.359-6.6719 6.375-6.6562 6.375-18.125 0-11.234-6.6406-18.031-6.6406-6.7812-17.672-6.7812-12.656 0-19.344 9.6875-6.6875 9.7031-6.6875 28.109 0 17.281 8.2031 27.562t22.016 10.281q3.7188 0 7.5-0.73438t7.8906-2.1875z"/>
</defs>
<g transform="translate(819.42 395.75) scale(.1 -.1)">
<use xlink:href="#c"/>
<use x="63.623047" xlink:href="#d"/>
<use x="95.410156" xlink:href="#c"/>
<use x="159.033203" xlink:href="#aj"/>
</g>
</g>
<g clip-path="url(#a)">
<g transform="translate(592.22 395.75) scale(.1 -.1)">
<use xlink:href="#c"/>
<use x="63.623047" xlink:href="#d"/>
<use x="95.410156" xlink:href="#c"/>
<use x="159.033203" xlink:href="#ae"/>
</g>
</g>
<g clip-path="url(#a)">
<g transform="translate(402.88 395.75) scale(.1 -.1)">
<use xlink:href="#c"/>
<use x="63.623047" xlink:href="#d"/>
<use x="95.410156" xlink:href="#c"/>
<use x="159.033203" xlink:href="#t"/>
</g>
</g>
<g clip-path="url(#a)">
<g transform="translate(524.9 395.75) scale(.1 -.1)">
<use xlink:href="#c"/>
<use x="63.623047" xlink:href="#d"/>
<use x="95.410156" xlink:href="#c"/>
<use x="159.033203" xlink:href="#ad"/>
</g>
</g>
<g clip-path="url(#a)">
<g transform="translate(38.936 303.83) scale(.1 -.1)">
<use xlink:href="#c"/>
<use x="63.623047" xlink:href="#d"/>
<use x="95.410156" xlink:href="#m"/>
<use x="159.033203" xlink:href="#c"/>
</g>
</g>
<g clip-path="url(#a)">
<g transform="translate(62.077 395.75) scale(.1 -.1)">
<use xlink:href="#c"/>
<use x="63.623047" xlink:href="#d"/>
<use x="95.410156" xlink:href="#m"/>
<use x="159.033203" xlink:href="#m"/>
</g>
</g>
<g clip-path="url(#a)">
<g transform="translate(103.1 303.83) scale(.1 -.1)">
<use xlink:href="#c"/>
<use x="63.623047" xlink:href="#d"/>
<use x="95.410156" xlink:href="#m"/>
<use x="159.033203" xlink:href="#p"/>
</g>
</g>
<g clip-path="url(#a)">
<g transform="translate(171.47 395.75) scale(.1 -.1)">
<use xlink:href="#c"/>
<use x="63.623047" xlink:href="#d"/>
<use x="95.410156" xlink:href="#m"/>
<use x="159.033203" xlink:href="#u"/>
</g>
</g>
<g clip-path="url(#a)">
<g transform="translate(83.114 395.75) scale(.1 -.1)">
<use xlink:href="#c"/>
<use x="63.623047" xlink:href="#d"/>
<use x="95.410156" xlink:href="#m"/>
<use x="159.033203" xlink:href="#af"/>
</g>
</g>
<g clip-path="url(#a)">
<g transform="translate(123.09 395.75) scale(.1 -.1)">
<use xlink:href="#c"/>
<use x="63.623047" xlink:href="#d"/>
<use x="95.410156" xlink:href="#m"/>
<use x="159.033203" xlink:href="#aj"/>
</g>
</g>
<g clip-path="url(#a)">
<g transform="translate(32.625 395.75) scale(.1 -.1)">
<use xlink:href="#c"/>
<use x="63.623047" xlink:href="#d"/>
<use x="95.410156" xlink:href="#m"/>
<use x="159.033203" xlink:href="#ae"/>
</g>
</g>
<g clip-path="url(#a)">
<g transform="translate(45.247 395.75) scale(.1 -.1)">
<use xlink:href="#c"/>
<use x="63.623047" xlink:href="#d"/>
<use x="95.410156" xlink:href="#m"/>
<use x="159.033203" xlink:href="#t"/>
</g>
</g>
<g clip-path="url(#a)">
<g transform="translate(209.34 395.75) scale(.1 -.1)">
<use xlink:href="#c"/>
<use x="63.623047" xlink:href="#d"/>
<use x="95.410156" xlink:href="#m"/>
<use x="159.033203" xlink:href="#ad"/>
</g>
</g>
<g clip-path="url(#a)">
<g transform="translate(461.79 395.75) scale(.1 -.1)">
<use xlink:href="#c"/>
<use x="63.623047" xlink:href="#d"/>
<use x="95.410156" xlink:href="#p"/>
<use x="159.033203" xlink:href="#v"/>
</g>
</g>
<g clip-path="url(#a)">
<g transform="translate(903.57 395.75) scale(.1 -.1)">
<use xlink:href="#c"/>
<use x="63.623047" xlink:href="#d"/>
<use x="95.410156" xlink:href="#p"/>
<use x="159.033203" xlink:href="#c"/>
</g>
</g>
<defs>
<clipPath id="a">
<rect width="962.67" height="506.67"/>
</clipPath>
</defs>
</svg>
