<?xml version="1.0" encoding="UTF-8"?>
<!DOCTYPE svg  PUBLIC '-//W3C//DTD SVG 1.1//EN'  'http://www.w3.org/Graphics/SVG/1.1/DTD/svg11.dtd'>
<svg width="1266.7pt" height="666.67pt" version="1.1" viewBox="0 0 1266.7 666.67" xmlns="http://www.w3.org/2000/svg" xmlns:xlink="http://www.w3.org/1999/xlink">
<defs>
<style type="text/css">*{stroke-linecap:butt;stroke-linejoin:round;}</style>
</defs>
<path d="m0 666.67h1266.7v-666.67h-1266.7z" fill="#fff"/>
<g fill="none" stroke="#000">
<path d="m583.15 30.303-318.38 122.29" clip-path="url(#a)"/>
<path d="m583.15 30.303-29.233 486.78" clip-path="url(#a)"/>
<path d="m583.15 30.303-98.353 244.28" clip-path="url(#a)"/>
<path d="m583.15 30.303 301.66 486.78" clip-path="url(#a)"/>
<path d="m583.15 30.303 144.3 244.28" clip-path="url(#a)"/>
<path d="m264.77 152.6-166.27 121.98" clip-path="url(#a)"/>
<path d="m264.77 152.6 1.2684 364.49" clip-path="url(#a)"/>
<path d="m264.77 152.6 136.94 243.55" clip-path="url(#a)"/>
<path d="m264.77 152.6 131.42 243.55" clip-path="url(#a)"/>
<path d="m264.77 152.6-68.22 364.49" clip-path="url(#a)"/>
<path d="m264.77 152.6-35.13 364.49" clip-path="url(#a)"/>
<path d="m553.92 517.09v119.28" clip-path="url(#a)"/>
<path d="m484.8 274.58 128.68 242.51" clip-path="url(#a)"/>
<path d="m484.8 274.58 258.83 121.57" clip-path="url(#a)"/>
<path d="m484.8 274.58-387.51 242.51" clip-path="url(#a)" stroke-dasharray="3.7,1.6"/>
<path d="m884.81 517.09v119.28" clip-path="url(#a)"/>
<path d="m727.45 274.58 233.46 242.51" clip-path="url(#a)"/>
<path d="m727.45 274.58 396.71 121.57" clip-path="url(#a)"/>
<path d="m727.45 274.58-630.17 242.51" clip-path="url(#a)" stroke-dasharray="3.7,1.6"/>
<path d="m960.92 517.09v119.28" clip-path="url(#a)"/>
<path d="m1124.2 396.15-83.827 120.94" clip-path="url(#a)"/>
<path d="m1124.2 396.15-1.103 120.94" clip-path="url(#a)"/>
<path d="m1124.2 396.15 84.93 120.94" clip-path="url(#a)"/>
<path d="m1040.3 517.09v119.28" clip-path="url(#a)"/>
<path d="m1123.1 517.09v119.28" clip-path="url(#a)"/>
<path d="m613.48 517.09v119.28" clip-path="url(#a)"/>
<path d="m743.63 396.15-67.282 120.94" clip-path="url(#a)"/>
<path d="m743.63 396.15-1.103 120.94" clip-path="url(#a)"/>
<path d="m743.63 396.15 68.385 120.94" clip-path="url(#a)"/>
<path d="m676.35 517.09v119.28" clip-path="url(#a)"/>
<path d="m742.53 517.09v119.28" clip-path="url(#a)"/>
<path d="m812.02 517.09v119.28" clip-path="url(#a)"/>
<path d="m98.496 274.58-35.957 121.57" clip-path="url(#a)"/>
<path d="m98.496 274.58-1.2133 242.51" clip-path="url(#a)"/>
<path d="m98.496 274.58 36.288 121.57" clip-path="url(#a)"/>
<path d="m98.496 274.58-17.758 242.51" clip-path="url(#a)"/>
<path d="m98.496 274.58 18.64 242.51" clip-path="url(#a)"/>
<path d="m266.04 517.09v119.28" clip-path="url(#a)"/>
<path d="m401.71 396.15-95.96 120.94" clip-path="url(#a)"/>
<path d="m401.71 396.15 95.96 120.94" clip-path="url(#a)"/>
<path d="m396.19 396.15-47.428 120.94" clip-path="url(#a)"/>
<path d="m396.19 396.15-1.103 120.94" clip-path="url(#a)"/>
<path d="m396.19 396.15 48.531 120.94" clip-path="url(#a)"/>
<path d="m348.76 517.09v119.28" clip-path="url(#a)"/>
<path d="m395.09 517.09v119.28" clip-path="url(#a)"/>
<path d="m444.72 517.09v119.28" clip-path="url(#a)"/>
<path d="m305.75 517.09v119.28" clip-path="url(#a)"/>
<path d="m497.67 517.09v119.28" clip-path="url(#a)"/>
<path d="m62.539 396.15-4.9634 120.94" clip-path="url(#a)"/>
<path d="m62.539 396.15 4.9634 120.94" clip-path="url(#a)"/>
<path d="m97.283 517.09v119.28" clip-path="url(#a)"/>
<path d="m134.78 396.15-37.501 120.94" clip-path="url(#a)" stroke-dasharray="3.7,1.6"/>
<path d="m134.78 396.15 5.5149 120.94" clip-path="url(#a)"/>
<path d="m134.78 396.15 31.987 120.94" clip-path="url(#a)"/>
<path d="m80.738 517.09v119.28" clip-path="url(#a)"/>
<path d="m140.3 517.09v119.28" clip-path="url(#a)"/>
<path d="m166.77 517.09v119.28" clip-path="url(#a)"/>
<path d="m57.576 517.09v119.28" clip-path="url(#a)"/>
<path d="m67.503 517.09v119.28" clip-path="url(#a)"/>
<path d="m117.14 517.09v119.28" clip-path="url(#a)"/>
<path d="m196.55 517.09v119.28" clip-path="url(#a)"/>
<path d="m229.64 517.09v119.28" clip-path="url(#a)"/>
<path d="m1209.1 517.09v119.28" clip-path="url(#a)"/>
</g>
<path d="m423.4 98.382 5.6162-2.1572q2.2404-0.86056 1.3798-3.101l-2.7762-7.2277q-0.86056-2.2404-3.101-1.3798l-5.6162 2.1572q-2.2404 0.86056-1.3798 3.101l2.7762 7.2277q0.86056 2.2404 3.101 1.3798z" clip-path="url(#a)" fill="#fff" stroke="#fff"/>
<g clip-path="url(#a)">
<defs>
<path id="x" d="m9.8125 72.906h9.8594v-29.891h35.844v29.891h9.8594v-72.906h-9.8594v34.719h-35.844v-34.719h-9.8594z"/>
</defs>
<g transform="translate(421.94 94.589) rotate(-21.012) scale(.08 -.08)">
<use xlink:href="#x"/>
</g>
</g>
<path d="m574.66 276.3 0.2672-4.4495q0.14387-2.3957-2.2518-2.5396l-7.7286-0.46412q-2.3957-0.14387-2.5396 2.2518l-0.2672 4.4495q-0.14387 2.3957 2.2518 2.5396l7.7286 0.46412q2.3957 0.14387 2.5396-2.2518z" clip-path="url(#a)" fill="#fff" stroke="#fff"/>
<g clip-path="url(#a)">
<defs>
<path id="ak" d="m9.8125 72.906h9.8594v-64.609h35.5v-8.2969h-45.359z"/>
</defs>
<g transform="translate(570.6 276.05) rotate(-86.563) scale(.08 -.08)">
<use xlink:href="#ak"/>
</g>
</g>
<path d="m538.67 157.57 2.247-5.5809q0.89638-2.2263-1.3299-3.1227l-7.1822-2.8918q-2.2263-0.89638-3.1227 1.3299l-2.247 5.5809q-0.89638 2.2263 1.3299 3.1227l7.1822 2.8918q2.2263 0.89638 3.1227-1.3299z" clip-path="url(#a)" fill="#fff" stroke="#fff"/>
<g clip-path="url(#a)">
<g transform="translate(534.9 156.06) rotate(-68.069) scale(.08 -.08)">
<use xlink:href="#x"/>
</g>
</g>
<path d="m727.48 275.1 2.348 3.7889q1.2642 2.04 3.3043 0.77582l6.5812-4.0784q2.04-1.2642 0.77582-3.3043l-2.348-3.7889q-1.2642-2.04-3.3043-0.77582l-6.5812 4.0784q-2.04 1.2642-0.77582 3.3043z" clip-path="url(#a)" fill="#fff" stroke="#fff"/>
<g clip-path="url(#a)">
<g transform="translate(730.93 272.96) rotate(58.213) scale(.08 -.08)">
<use xlink:href="#ak"/>
</g>
</g>
<path d="m648.37 153.04 3.06 5.1799q1.2207 2.0664 3.2871 0.84569l6.6662-3.938q2.0664-1.2207 0.84569-3.2871l-3.06-5.1799q-1.2207-2.0664-3.2871-0.84569l-6.6662 3.938q-2.0664 1.2207-0.84569 3.2871z" clip-path="url(#a)" fill="#fff" stroke="#fff"/>
<g clip-path="url(#a)">
<g transform="translate(651.87 150.97) rotate(59.428) scale(.08 -.08)">
<use xlink:href="#x"/>
</g>
</g>
<path d="m183.14 220.26 4.4124-3.2371q1.9351-1.4196 0.51545-3.3547l-4.5798-6.2427q-1.4196-1.9351-3.3547-0.51545l-4.4124 3.2371q-1.9351 1.4196-0.51545 3.3547l4.5798 6.2427q1.4196 1.9351 3.3547 0.51545z" clip-path="url(#a)" fill="#fff" stroke="#fff"/>
<g clip-path="url(#a)">
<defs>
<path id="o" d="m34.188 63.188-13.391-36.281h26.812zm-5.5781 9.7188h11.188l27.781-72.906h-10.25l-6.6406 18.703h-32.859l-6.6406-18.703h-10.406z"/>
</defs>
<g transform="translate(180.73 216.99) rotate(-36.265) scale(.08 -.08)">
<use xlink:href="#o"/>
</g>
</g>
<path d="m259.13 332.56 0.016012 4.6012q0.008352 2.4 2.4083 2.3916l7.7425-0.026944q2.4-0.008352 2.3916-2.4083l-0.016012-4.6012q-0.008352-2.4-2.4083-2.3916l-7.7425 0.026944q-2.4 0.008352-2.3916 2.4083z" clip-path="url(#a)" fill="#fff" stroke="#fff"/>
<g clip-path="url(#a)">
<defs>
<path id="al" d="m9.8125 72.906h41.891v-8.3125h-32.031v-21.484h28.906v-8.2969h-28.906v-34.812h-9.8594z"/>
</defs>
<g transform="translate(263.19 332.55) rotate(89.801) scale(.08 -.08)">
<use xlink:href="#al"/>
</g>
</g>
<path d="m326.53 275.23 2.489 4.427q1.1762 2.092 3.2682 0.91581l6.7489-3.7945q2.092-1.1762 0.91581-3.2682l-2.489-4.427q-1.1762-2.092-3.2682-0.91581l-6.7489 3.7945q-2.092 1.1762-0.91581 3.2682z" clip-path="url(#a)" fill="#fff" stroke="#fff"/>
<g clip-path="url(#a)">
<defs>
<path id="w" d="m53.516 70.516v-9.625q-5.6094 2.6875-10.594 4-4.9844 1.3281-9.625 1.3281-8.0469 0-12.422-3.125t-4.375-8.8906q0-4.8438 2.9062-7.3125 2.9062-2.4531 11.016-3.9688l5.9531-1.2188q11.031-2.1094 16.281-7.4062t5.25-14.172q0-10.609-7.1094-16.078-7.0938-5.4688-20.812-5.4688-5.1719 0-11.016 1.1719-5.8281 1.1719-12.078 3.4688v10.156q6-3.3594 11.766-5.0781 5.7656-1.7031 11.328-1.7031 8.4375 0 13.031 3.3125 4.5938 3.3281 4.5938 9.4844 0 5.3594-3.2969 8.3906t-10.812 4.5469l-6.0156 1.1719q-11.031 2.1875-15.969 6.875-4.9219 4.6875-4.9219 13.047 0 9.6719 6.8125 15.234t18.766 5.5625q5.1406 0 10.453-0.9375 5.3281-0.92188 10.891-2.7656z"/>
</defs>
<g transform="translate(330.07 273.24) rotate(60.654) scale(.08 -.08)">
<use xlink:href="#w"/>
</g>
</g>
<path d="m323.66 274.94 2.5987 4.8161q1.1397 2.1121 3.2518 0.97244l6.8138-3.6767q2.1121-1.1397 0.97244-3.2518l-2.5987-4.8161q-1.1397-2.1121-3.2518-0.97244l-6.8138 3.6767q-2.1121 1.1397-0.97244 3.2518z" clip-path="url(#a)" fill="#fff" stroke="#fff"/>
<g clip-path="url(#a)">
<g transform="translate(327.24 273.01) rotate(61.649) scale(.08 -.08)">
<use xlink:href="#o"/>
</g>
</g>
<path d="m236.29 338.87 1.0771-5.7551q0.44153-2.359-1.9175-2.8006l-7.6104-1.4244q-2.359-0.44153-2.8006 1.9175l-1.0771 5.7551q-0.44153 2.359 1.9175 2.8006l7.6104 1.4244q2.359 0.44153 2.8006-1.9175z" clip-path="url(#a)" fill="#fff" stroke="#fff"/>
<g clip-path="url(#a)">
<defs>
<path id="t" d="m8.6875 72.906h9.9219v-44.297q0-11.719 4.2344-16.875 4.25-5.1406 13.781-5.1406 9.4688 0 13.719 5.1406 4.25 5.1562 4.25 16.875v44.297h9.9062v-45.516q0-14.25-7.0625-21.531-7.0469-7.2812-20.812-7.2812-13.828 0-20.891 7.2812-7.0469 7.2812-7.0469 21.531z"/>
</defs>
<g transform="translate(232.29 338.12) rotate(-79.399) scale(.08 -.08)">
<use xlink:href="#t"/>
</g>
</g>
<path d="m253.17 338.36 0.56171-5.828q0.23025-2.3889-2.1587-2.6192l-7.7068-0.74279q-2.3889-0.23025-2.6192 2.1587l-0.56171 5.828q-0.23025 2.3889 2.1587 2.6192l7.7068 0.74279q2.3889 0.23025 2.6192-2.1587z" clip-path="url(#a)" fill="#fff" stroke="#fff"/>
<g clip-path="url(#a)">
<g transform="translate(249.12 337.97) rotate(-84.495) scale(.08 -.08)">
<use xlink:href="#t"/>
</g>
</g>
<path d="m547.65 559.82v33.808q0 2.4 2.4 2.4h7.7425q2.4 0 2.4-2.4v-33.808q0-2.4-2.4-2.4h-7.7425q-2.4 0-2.4 2.4z" clip-path="url(#a)" fill="#fff" stroke="#fff"/>
<g clip-path="url(#a)">
<defs>
<path id="l" d="m-0.29688 72.906h61.672v-8.3125h-25.875v-64.594h-9.9062v64.594h-25.891z"/>
<path id="e" d="m56.203 29.594v-4.3906h-41.312q0.59375-9.2812 5.5938-14.141t13.938-4.8594q5.1719 0 10.031 1.2656t9.6562 3.8125v-8.5q-4.8438-2.0469-9.9219-3.125t-10.297-1.0781q-13.094 0-20.734 7.6094-7.6406 7.625-7.6406 20.625 0 13.422 7.25 21.297 7.25 7.8906 19.562 7.8906 11.031 0 17.453-7.1094 6.4219-7.0938 6.4219-19.297zm-8.9844 2.6406q-0.09375 7.3594-4.125 11.75-4.0312 4.4062-10.672 4.4062-7.5156 0-12.031-4.25t-5.2031-11.969z"/>
<path id="h" d="m41.109 46.297q-1.5156 0.875-3.2969 1.2812-1.7812 0.42188-3.9219 0.42188-7.625 0-11.703-4.9531t-4.0781-14.234v-28.812h-9.0312v54.688h9.0312v-8.5q2.8438 4.9844 7.375 7.3906 4.5469 2.4219 11.047 2.4219 0.92188 0 2.0469-0.125 1.125-0.10938 2.4844-0.35938z"/>
<path id="j" d="m52 44.188q3.375 6.0625 8.0625 8.9375t11.031 2.875q8.5469 0 13.188-5.9844 4.6406-5.9688 4.6406-17v-33.016h-9.0312v32.719q0 7.8594-2.7969 11.656-2.7812 3.8125-8.4844 3.8125-6.9844 0-11.047-4.6406-4.0469-4.625-4.0469-12.641v-30.906h-9.0312v32.719q0 7.9062-2.7812 11.688t-8.5938 3.7812q-6.8906 0-10.953-4.6562-4.0469-4.6562-4.0469-12.625v-30.906h-9.0312v54.688h9.0312v-8.5q3.0781 5.0312 7.375 7.4219t10.203 2.3906q5.9688 0 10.141-3.0312 4.1719-3.0156 6.1719-8.7812z"/>
<path id="i" d="m9.4219 54.688h8.9844v-54.688h-8.9844zm0 21.297h8.9844v-11.391h-8.9844z"/>
<path id="f" d="m54.891 33.016v-33.016h-8.9844v32.719q0 7.7656-3.0312 11.609-3.0312 3.8594-9.0781 3.8594-7.2812 0-11.484-4.6406-4.2031-4.625-4.2031-12.641v-30.906h-9.0312v54.688h9.0312v-8.5q3.2344 4.9375 7.5938 7.375 4.375 2.4375 10.094 2.4375 9.4219 0 14.25-5.8281 4.8438-5.8281 4.8438-17.156z"/>
<path id="g" d="m34.281 27.484q-10.891 0-15.094-2.4844t-4.2031-8.5q0-4.7812 3.1562-7.5938 3.1562-2.7969 8.5625-2.7969 7.4844 0 12 5.2969t4.5156 14.078v2zm17.922 3.7188v-31.203h-8.9844v8.2969q-3.0781-4.9688-7.6719-7.3438t-11.234-2.375q-8.3906 0-13.359 4.7188-4.9531 4.7188-4.9531 12.625 0 9.2188 6.1719 13.906 6.1875 4.6875 18.438 4.6875h12.609v0.89062q0 6.2031-4.0781 9.5938t-11.453 3.3906q-4.6875 0-9.1406-1.125-4.4375-1.125-8.5312-3.375v8.3125q4.9219 1.9062 9.5625 2.8438 4.6406 0.95312 9.0312 0.95312 11.875 0 17.734-6.1562 5.8594-6.1406 5.8594-18.641z"/>
<path id="k" d="m9.4219 75.984h8.9844v-75.984h-8.9844z"/>
</defs>
<g transform="translate(551.71 559.82) rotate(90) scale(.08 -.08)">
<use xlink:href="#l"/>
<use x="44.083984" xlink:href="#e"/>
<use x="105.607422" xlink:href="#h"/>
<use x="144.970703" xlink:href="#j"/>
<use x="242.382812" xlink:href="#i"/>
<use x="270.166016" xlink:href="#f"/>
<use x="333.544922" xlink:href="#g"/>
<use x="394.824219" xlink:href="#k"/>
</g>
</g>
<path d="m542.16 396.05 2.8874 5.4414q1.1249 2.12 3.245 0.99507l6.8393-3.6291q2.12-1.1249 0.99507-3.245l-2.8874-5.4414q-1.1249-2.12-3.245-0.99507l-6.8393 3.6291q-2.12 1.1249-0.99507 3.245z" clip-path="url(#a)" fill="#fff" stroke="#fff"/>
<g clip-path="url(#a)">
<defs>
<path id="am" d="m19.672 64.797v-56.688h11.922q15.094 0 22.094 6.8281 7 6.8438 7 21.594 0 14.641-7 21.453t-22.094 6.8125zm-9.8594 8.1094h20.266q21.188 0 31.094-8.8125 9.9219-8.8125 9.9219-27.562 0-18.859-9.9688-27.703-9.9531-8.8281-31.047-8.8281h-20.266z"/>
</defs>
<g transform="translate(545.75 394.15) rotate(62.048) scale(.08 -.08)">
<use xlink:href="#am"/>
</g>
</g>
<path d="m609.37 340.02 4.3661 2.0507q2.1723 1.0203 3.1926-1.152l3.2916-7.008q1.0203-2.1723-1.152-3.1926l-4.3661-2.0507q-2.1723-1.0203-3.1926 1.152l-3.2916 7.008q-1.0203 2.1723 1.152 3.1926z" clip-path="url(#a)" fill="#fff" stroke="#fff"/>
<g clip-path="url(#a)">
<defs>
<path id="ag" d="m19.672 64.797v-27.391h12.406q6.8906 0 10.641 3.5625 3.7656 3.5625 3.7656 10.156 0 6.5469-3.7656 10.109-3.75 3.5625-10.641 3.5625zm-9.8594 8.1094h22.266q12.266 0 18.531-5.5469 6.2812-5.5469 6.2812-16.234 0-10.797-6.2812-16.312-6.2656-5.5156-18.531-5.5156h-12.406v-29.297h-9.8594z"/>
</defs>
<g transform="translate(611.09 336.34) rotate(25.159) scale(.08 -.08)">
<use xlink:href="#ag"/>
</g>
</g>
<path d="m292.05 402.6 4.639-2.9031q2.0345-1.2732 0.7613-3.3076l-4.1073-6.5633q-1.2732-2.0345-3.3076-0.7613l-4.639 2.9031q-2.0345 1.2732-0.7613 3.3076l4.1073 6.5633q1.2732 2.0345 3.3076 0.7613z" clip-path="url(#a)" fill="#fff" stroke="#fff"/>
<g clip-path="url(#a)">
<g transform="translate(289.89 399.16) rotate(-32.038) scale(.08 -.08)">
<use xlink:href="#o"/>
</g>
</g>
<path d="m878.54 559.82v33.808q0 2.4 2.4 2.4h7.7425q2.4 0 2.4-2.4v-33.808q0-2.4-2.4-2.4h-7.7425q-2.4 0-2.4 2.4z" clip-path="url(#a)" fill="#fff" stroke="#fff"/>
<g clip-path="url(#a)">
<g transform="translate(882.61 559.82) rotate(90) scale(.08 -.08)">
<use xlink:href="#l"/>
<use x="44.083984" xlink:href="#e"/>
<use x="105.607422" xlink:href="#h"/>
<use x="144.970703" xlink:href="#j"/>
<use x="242.382812" xlink:href="#i"/>
<use x="270.166016" xlink:href="#f"/>
<use x="333.544922" xlink:href="#g"/>
<use x="394.824219" xlink:href="#k"/>
</g>
</g>
<path d="m837.53 397.96 4.2723 4.4377q1.6645 1.729 3.3935 0.064464l5.5778-5.3698q1.729-1.6645 0.064464-3.3935l-4.2723-4.4377q-1.6645-1.729-3.3935-0.064464l-5.5778 5.3698q-1.729 1.6645-0.064465 3.3935z" clip-path="url(#a)" fill="#fff" stroke="#fff"/>
<g clip-path="url(#a)">
<g transform="translate(840.46 395.15) rotate(46.088) scale(.08 -.08)">
<use xlink:href="#am"/>
</g>
</g>
<path d="m921.66 340.65 4.612 1.4134q2.2947 0.7032 2.9979-1.5915l2.2686-7.4027q0.7032-2.2947-1.5915-2.9979l-4.612-1.4134q-2.2947-0.7032-2.9979 1.5915l-2.2686 7.4027q-0.7032 2.2947 1.5915 2.9979z" clip-path="url(#a)" fill="#fff" stroke="#fff"/>
<g clip-path="url(#a)">
<g transform="translate(922.86 336.77) rotate(17.038) scale(.08 -.08)">
<use xlink:href="#ag"/>
</g>
</g>
<path d="m412.07 402.67 5.1074-1.9655q2.2399-0.86196 1.3779-3.1018l-2.7807-7.2259q-0.86196-2.2399-3.1018-1.3779l-5.1074 1.9655q-2.2399 0.86196-1.3779 3.1018l2.7807 7.2259q0.86196 2.2399 3.1018 1.3779z" clip-path="url(#a)" fill="#fff" stroke="#fff"/>
<g clip-path="url(#a)">
<g transform="translate(410.61 398.88) rotate(-21.048) scale(.08 -.08)">
<use xlink:href="#o"/>
</g>
</g>
<path d="m954.65 559.82v33.808q0 2.4 2.4 2.4h7.7425q2.4 0 2.4-2.4v-33.808q0-2.4-2.4-2.4h-7.7425q-2.4 0-2.4 2.4z" clip-path="url(#a)" fill="#fff" stroke="#fff"/>
<g clip-path="url(#a)">
<g transform="translate(958.71 559.82) rotate(90) scale(.08 -.08)">
<use xlink:href="#l"/>
<use x="44.083984" xlink:href="#e"/>
<use x="105.607422" xlink:href="#h"/>
<use x="144.970703" xlink:href="#j"/>
<use x="242.382812" xlink:href="#i"/>
<use x="270.166016" xlink:href="#f"/>
<use x="333.544922" xlink:href="#g"/>
<use x="394.824219" xlink:href="#k"/>
</g>
</g>
<path d="m1086 462.27 2.8797-4.1545q1.3672-1.9725-0.60526-3.3397l-6.3633-4.4107q-1.9725-1.3672-3.3397 0.60526l-2.8797 4.1545q-1.3672 1.9725 0.60526 3.3397l6.3633 4.4107q1.9725 1.3672 3.3397-0.60526z" clip-path="url(#a)" fill="#fff" stroke="#fff"/>
<g clip-path="url(#a)">
<defs>
<path id="y" d="m9.8125 72.906h46.094v-8.3125h-36.234v-21.578h34.719v-8.2969h-34.719v-26.422h37.109v-8.2969h-46.969z"/>
</defs>
<g transform="translate(1082.6 459.95) rotate(-55.272) scale(.08 -.08)">
<use xlink:href="#y"/>
</g>
</g>
<path d="m1129.9 459.47 0.050946-5.586q0.021888-2.3999-2.378-2.4218l-7.7422-0.070611q-2.3999-0.021888-2.4218 2.378l-0.050947 5.586q-0.021888 2.3999 2.378 2.4218l7.7422 0.070611q2.3999 0.021888 2.4218-2.378z" clip-path="url(#a)" fill="#fff" stroke="#fff"/>
<g clip-path="url(#a)">
<defs>
<path id="r" d="m64.406 67.281v-10.391q-4.9844 4.6406-10.625 6.9219-5.6406 2.2969-11.984 2.2969-12.5 0-19.141-7.6406t-6.6406-22.094q0-14.406 6.6406-22.047t19.141-7.6406q6.3438 0 11.984 2.2969t10.625 6.9375v-10.312q-5.1719-3.5156-10.969-5.2812-5.7812-1.75-12.219-1.75-16.562 0-26.094 10.125-9.5156 10.141-9.5156 27.672 0 17.578 9.5156 27.703 9.5312 10.141 26.094 10.141 6.5312 0 12.312-1.7344 5.7969-1.7344 10.875-5.2031z"/>
</defs>
<g transform="translate(1125.8 459.43) rotate(-89.477) scale(.08 -.08)">
<use xlink:href="#r"/>
</g>
</g>
<path d="m1159.8 457.83 3.3649 4.7915q1.3793 1.9641 3.3434 0.58476l6.3361-4.4497q1.9641-1.3793 0.58476-3.3434l-3.3649-4.7915q-1.3793-1.9641-3.3434-0.58476l-6.3361 4.4497q-1.9641 1.3793-0.58476 3.3434z" clip-path="url(#a)" fill="#fff" stroke="#fff"/>
<g clip-path="url(#a)">
<g transform="translate(1163.1 455.49) rotate(54.921) scale(.08 -.08)">
<use xlink:href="#t"/>
</g>
</g>
<path d="m1034.1 559.82v33.808q0 2.4 2.4 2.4h7.7425q2.4 0 2.4-2.4v-33.808q0-2.4-2.4-2.4h-7.7425q-2.4 0-2.4 2.4z" clip-path="url(#a)" fill="#fff" stroke="#fff"/>
<g clip-path="url(#a)">
<g transform="translate(1038.1 559.82) rotate(90) scale(.08 -.08)">
<use xlink:href="#l"/>
<use x="44.083984" xlink:href="#e"/>
<use x="105.607422" xlink:href="#h"/>
<use x="144.970703" xlink:href="#j"/>
<use x="242.382812" xlink:href="#i"/>
<use x="270.166016" xlink:href="#f"/>
<use x="333.544922" xlink:href="#g"/>
<use x="394.824219" xlink:href="#k"/>
</g>
</g>
<path d="m1116.8 559.82v33.808q0 2.4 2.4 2.4h7.7425q2.4 0 2.4-2.4v-33.808q0-2.4-2.4-2.4h-7.7425q-2.4 0-2.4 2.4z" clip-path="url(#a)" fill="#fff" stroke="#fff"/>
<g clip-path="url(#a)">
<g transform="translate(1120.9 559.82) rotate(90) scale(.08 -.08)">
<use xlink:href="#l"/>
<use x="44.083984" xlink:href="#e"/>
<use x="105.607422" xlink:href="#h"/>
<use x="144.970703" xlink:href="#j"/>
<use x="242.382812" xlink:href="#i"/>
<use x="270.166016" xlink:href="#f"/>
<use x="333.544922" xlink:href="#g"/>
<use x="394.824219" xlink:href="#k"/>
</g>
</g>
<path d="m607.21 559.82v33.808q0 2.4 2.4 2.4h7.7425q2.4 0 2.4-2.4v-33.808q0-2.4-2.4-2.4h-7.7425q-2.4 0-2.4 2.4z" clip-path="url(#a)" fill="#fff" stroke="#fff"/>
<g clip-path="url(#a)">
<g transform="translate(611.27 559.82) rotate(90) scale(.08 -.08)">
<use xlink:href="#l"/>
<use x="44.083984" xlink:href="#e"/>
<use x="105.607422" xlink:href="#h"/>
<use x="144.970703" xlink:href="#j"/>
<use x="242.382812" xlink:href="#i"/>
<use x="270.166016" xlink:href="#f"/>
<use x="333.544922" xlink:href="#g"/>
<use x="394.824219" xlink:href="#k"/>
</g>
</g>
<path d="m714.12 462.1 2.7025-4.8576q1.1668-2.0973-0.93047-3.2641l-6.7659-3.7642q-2.0973-1.1668-3.2641 0.93047l-2.7025 4.8576q-1.1668 2.0973 0.93047 3.2641l6.7659 3.7642q2.0973 1.1668 3.2641-0.93047z" clip-path="url(#a)" fill="#fff" stroke="#fff"/>
<g clip-path="url(#a)">
<defs>
<path id="aj" d="m44.391 34.188q3.1719-1.0781 6.1719-4.5938t6.0312-9.6719l10.016-19.922h-10.609l-9.3125 18.703q-3.625 7.3281-7.0156 9.7188t-9.25 2.3906h-10.75v-30.812h-9.8594v72.906h22.266q12.5 0 18.656-5.2344 6.1562-5.2188 6.1562-15.766 0-6.8906-3.2031-11.438-3.2031-4.5312-9.2969-6.2812zm-24.719 30.609v-25.875h12.406q7.125 0 10.766 3.2969t3.6406 9.6875-3.6406 9.6406-10.766 3.25z"/>
</defs>
<g transform="translate(710.57 460.12) rotate(-60.911) scale(.08 -.08)">
<use xlink:href="#aj"/>
</g>
</g>
<path d="m749.33 459.2 0.046102-5.0548q0.021888-2.3999-2.378-2.4218l-7.7422-0.070611q-2.3999-0.021888-2.4218 2.378l-0.046101 5.0548q-0.021888 2.3999 2.378 2.4218l7.7422 0.070611q2.3999 0.021888 2.4218-2.378z" clip-path="url(#a)" fill="#fff" stroke="#fff"/>
<g clip-path="url(#a)">
<g transform="translate(745.26 459.17) rotate(-89.477) scale(.08 -.08)">
<use xlink:href="#y"/>
</g>
</g>
<path d="m770.99 457.27 2.7497 4.8627q1.1813 2.0891 3.2705 0.9078l6.7396-3.811q2.0891-1.1813 0.9078-3.2705l-2.7497-4.8627q-1.1813-2.0891-3.2705-0.9078l-6.7396 3.811q-2.0891 1.1813-0.9078 3.2705z" clip-path="url(#a)" fill="#fff" stroke="#fff"/>
<g clip-path="url(#a)">
<g transform="translate(774.53 455.27) rotate(60.513) scale(.08 -.08)">
<use xlink:href="#r"/>
</g>
</g>
<path d="m670.08 559.82v33.808q0 2.4 2.4 2.4h7.7425q2.4 0 2.4-2.4v-33.808q0-2.4-2.4-2.4h-7.7425q-2.4 0-2.4 2.4z" clip-path="url(#a)" fill="#fff" stroke="#fff"/>
<g clip-path="url(#a)">
<g transform="translate(674.14 559.82) rotate(90) scale(.08 -.08)">
<use xlink:href="#l"/>
<use x="44.083984" xlink:href="#e"/>
<use x="105.607422" xlink:href="#h"/>
<use x="144.970703" xlink:href="#j"/>
<use x="242.382812" xlink:href="#i"/>
<use x="270.166016" xlink:href="#f"/>
<use x="333.544922" xlink:href="#g"/>
<use x="394.824219" xlink:href="#k"/>
</g>
</g>
<path d="m736.26 559.82v33.808q0 2.4 2.4 2.4h7.7425q2.4 0 2.4-2.4v-33.808q0-2.4-2.4-2.4h-7.7425q-2.4 0-2.4 2.4z" clip-path="url(#a)" fill="#fff" stroke="#fff"/>
<g clip-path="url(#a)">
<g transform="translate(740.32 559.82) rotate(90) scale(.08 -.08)">
<use xlink:href="#l"/>
<use x="44.083984" xlink:href="#e"/>
<use x="105.607422" xlink:href="#h"/>
<use x="144.970703" xlink:href="#j"/>
<use x="242.382812" xlink:href="#i"/>
<use x="270.166016" xlink:href="#f"/>
<use x="333.544922" xlink:href="#g"/>
<use x="394.824219" xlink:href="#k"/>
</g>
</g>
<path d="m805.75 559.82v33.808q0 2.4 2.4 2.4h7.7425q2.4 0 2.4-2.4v-33.808q0-2.4-2.4-2.4h-7.7425q-2.4 0-2.4 2.4z" clip-path="url(#a)" fill="#fff" stroke="#fff"/>
<g clip-path="url(#a)">
<g transform="translate(809.81 559.82) rotate(90) scale(.08 -.08)">
<use xlink:href="#l"/>
<use x="44.083984" xlink:href="#e"/>
<use x="105.607422" xlink:href="#h"/>
<use x="144.970703" xlink:href="#j"/>
<use x="242.382812" xlink:href="#i"/>
<use x="270.166016" xlink:href="#f"/>
<use x="333.544922" xlink:href="#g"/>
<use x="394.824219" xlink:href="#k"/>
</g>
</g>
<path d="m85.815 339.57 1.4337-4.8474q0.6807-2.3014-1.6207-2.9821l-7.4246-2.196q-2.3014-0.6807-2.9821 1.6207l-1.4337 4.8474q-0.6807 2.3014 1.6207 2.9821l7.4246 2.196q2.3014 0.6807 2.9821-1.6207z" clip-path="url(#a)" fill="#fff" stroke="#fff"/>
<g clip-path="url(#a)">
<g transform="translate(81.918 338.42) rotate(-73.523) scale(.08 -.08)">
<use xlink:href="#y"/>
</g>
</g>
<path d="m104.15 398.66 0.027948-5.5862q0.012008-2.4-2.388-2.412l-7.7424-0.038736q-2.4-0.012007-2.412 2.388l-0.027948 5.5862q-0.012007 2.4 2.388 2.412l7.7424 0.038736q2.4 0.012007 2.412-2.388z" clip-path="url(#a)" fill="#fff" stroke="#fff"/>
<g clip-path="url(#a)">
<g transform="translate(100.08 398.64) rotate(-89.713) scale(.08 -.08)">
<use xlink:href="#r"/>
</g>
</g>
<path d="m109.91 334.74 1.4459 4.8438q0.68646 2.2997 2.9862 1.6133l7.419-2.2145q2.2997-0.68646 1.6133-2.9862l-1.4459-4.8438q-0.68646-2.2997-2.9862-1.6133l-7.419 2.2145q-2.2997 0.68646-1.6133 2.9862z" clip-path="url(#a)" fill="#fff" stroke="#fff"/>
<g clip-path="url(#a)">
<g transform="translate(113.8 333.57) rotate(73.38) scale(.08 -.08)">
<use xlink:href="#y"/>
</g>
</g>
<path d="m95.658 399.21 0.4276-5.8394q0.17528-2.3936-2.2183-2.5689l-7.7218-0.56545q-2.3936-0.17528-2.5689 2.2183l-0.4276 5.8394q-0.17528 2.3936 2.2183 2.5689l7.7218 0.56545q2.3936 0.17528 2.5689-2.2183z" clip-path="url(#a)" fill="#fff" stroke="#fff"/>
<g clip-path="url(#a)">
<g transform="translate(91.605 398.91) rotate(-85.812) scale(.08 -.08)">
<use xlink:href="#t"/>
</g>
</g>
<path d="m101.34 393.4 0.44872 5.8378q0.18394 2.3929 2.5769 2.209l7.7197-0.59338q2.3929-0.18394 2.209-2.5769l-0.44872-5.8378q-0.18394-2.3929-2.5769-2.209l-7.7197 0.59338q-2.3929 0.18394-2.209 2.5769z" clip-path="url(#a)" fill="#fff" stroke="#fff"/>
<g clip-path="url(#a)">
<g transform="translate(105.39 393.08) rotate(85.605) scale(.08 -.08)">
<use xlink:href="#t"/>
</g>
</g>
<path d="m259.77 559.82v33.808q0 2.4 2.4 2.4h7.7425q2.4 0 2.4-2.4v-33.808q0-2.4-2.4-2.4h-7.7425q-2.4 0-2.4 2.4z" clip-path="url(#a)" fill="#fff" stroke="#fff"/>
<g clip-path="url(#a)">
<g transform="translate(263.83 559.82) rotate(90) scale(.08 -.08)">
<use xlink:href="#l"/>
<use x="44.083984" xlink:href="#e"/>
<use x="105.607422" xlink:href="#h"/>
<use x="144.970703" xlink:href="#j"/>
<use x="242.382812" xlink:href="#i"/>
<use x="270.166016" xlink:href="#f"/>
<use x="333.544922" xlink:href="#g"/>
<use x="394.824219" xlink:href="#k"/>
</g>
</g>
<path d="m356.91 462.69 3.4552-4.3545q1.4918-1.8801-0.38828-3.3718l-6.0651-4.8125q-1.8801-1.4918-3.3718 0.38828l-3.4552 4.3545q-1.4918 1.8801 0.38828 3.3718l6.0651 4.8125q1.8801 1.4918 3.3718-0.38828z" clip-path="url(#a)" fill="#fff" stroke="#fff"/>
<g clip-path="url(#a)">
<g transform="translate(353.73 460.17) rotate(-51.569) scale(.08 -.08)">
<use xlink:href="#aj"/>
</g>
</g>
<path d="m443.04 458.33 3.4723 4.376q1.4918 1.8801 3.3718 0.38828l6.0651-4.8125q1.8801-1.4918 0.38828-3.3718l-3.4723-4.376q-1.4918-1.8801-3.3718-0.38828l-6.0651 4.8125q-1.8801 1.4918-0.38828 3.3718z" clip-path="url(#a)" fill="#fff" stroke="#fff"/>
<g clip-path="url(#a)">
<g transform="translate(446.22 455.8) rotate(51.569) scale(.08 -.08)">
<use xlink:href="#r"/>
</g>
</g>
<path d="m377.3 461.51 2.0396-5.2006q0.87625-2.2343-1.3581-3.1106l-7.208-2.8268q-2.2343-0.87625-3.1106 1.3581l-2.0396 5.2006q-0.87625 2.2343 1.3581 3.1106l7.208 2.8268q2.2343 0.87625 3.1106-1.3581z" clip-path="url(#a)" fill="#fff" stroke="#fff"/>
<g clip-path="url(#a)">
<g transform="translate(373.51 460.02) rotate(-68.586) scale(.08 -.08)">
<use xlink:href="#r"/>
</g>
</g>
<path d="m401.88 459.67 0.054583-5.9848q0.021888-2.3999-2.378-2.4218l-7.7422-0.070612q-2.3999-0.021888-2.4218 2.378l-0.054584 5.9848q-0.021888 2.3999 2.378 2.4218l7.7422 0.070612q2.3999 0.021888 2.4218-2.378z" clip-path="url(#a)" fill="#fff" stroke="#fff"/>
<g clip-path="url(#a)">
<defs>
<path id="aq" d="m9.8125 72.906h13.281l32.328-60.984v60.984h9.5625v-72.906h-13.281l-32.312 60.984v-60.984h-9.5781z"/>
</defs>
<g transform="translate(397.82 459.63) rotate(-89.477) scale(.08 -.08)">
<use xlink:href="#aq"/>
</g>
</g>
<path d="m413.6 456.36 2.0805 5.1844q0.89383 2.2273 3.1212 1.3335l7.1855-2.8835q2.2273-0.89383 1.3335-3.1212l-2.0805-5.1844q-0.89383-2.2273-3.1212-1.3335l-7.1855 2.8835q-2.2273 0.89383-1.3335 3.1212z" clip-path="url(#a)" fill="#fff" stroke="#fff"/>
<g clip-path="url(#a)">
<g transform="translate(417.37 454.85) rotate(68.135) scale(.08 -.08)">
<use xlink:href="#r"/>
</g>
</g>
<path d="m342.49 559.82v33.808q0 2.4 2.4 2.4h7.7425q2.4 0 2.4-2.4v-33.808q0-2.4-2.4-2.4h-7.7425q-2.4 0-2.4 2.4z" clip-path="url(#a)" fill="#fff" stroke="#fff"/>
<g clip-path="url(#a)">
<g transform="translate(346.56 559.82) rotate(90) scale(.08 -.08)">
<use xlink:href="#l"/>
<use x="44.083984" xlink:href="#e"/>
<use x="105.607422" xlink:href="#h"/>
<use x="144.970703" xlink:href="#j"/>
<use x="242.382812" xlink:href="#i"/>
<use x="270.166016" xlink:href="#f"/>
<use x="333.544922" xlink:href="#g"/>
<use x="394.824219" xlink:href="#k"/>
</g>
</g>
<path d="m388.82 559.82v33.808q0 2.4 2.4 2.4h7.7425q2.4 0 2.4-2.4v-33.808q0-2.4-2.4-2.4h-7.7425q-2.4 0-2.4 2.4z" clip-path="url(#a)" fill="#fff" stroke="#fff"/>
<g clip-path="url(#a)">
<g transform="translate(392.88 559.82) rotate(90) scale(.08 -.08)">
<use xlink:href="#l"/>
<use x="44.083984" xlink:href="#e"/>
<use x="105.607422" xlink:href="#h"/>
<use x="144.970703" xlink:href="#j"/>
<use x="242.382812" xlink:href="#i"/>
<use x="270.166016" xlink:href="#f"/>
<use x="333.544922" xlink:href="#g"/>
<use x="394.824219" xlink:href="#k"/>
</g>
</g>
<path d="m438.45 559.82v33.808q0 2.4 2.4 2.4h7.7425q2.4 0 2.4-2.4v-33.808q0-2.4-2.4-2.4h-7.7425q-2.4 0-2.4 2.4z" clip-path="url(#a)" fill="#fff" stroke="#fff"/>
<g clip-path="url(#a)">
<g transform="translate(442.52 559.82) rotate(90) scale(.08 -.08)">
<use xlink:href="#l"/>
<use x="44.083984" xlink:href="#e"/>
<use x="105.607422" xlink:href="#h"/>
<use x="144.970703" xlink:href="#j"/>
<use x="242.382812" xlink:href="#i"/>
<use x="270.166016" xlink:href="#f"/>
<use x="333.544922" xlink:href="#g"/>
<use x="394.824219" xlink:href="#k"/>
</g>
</g>
<path d="m299.48 559.82v33.808q0 2.4 2.4 2.4h7.7425q2.4 0 2.4-2.4v-33.808q0-2.4-2.4-2.4h-7.7425q-2.4 0-2.4 2.4z" clip-path="url(#a)" fill="#fff" stroke="#fff"/>
<g clip-path="url(#a)">
<g transform="translate(303.54 559.82) rotate(90) scale(.08 -.08)">
<use xlink:href="#l"/>
<use x="44.083984" xlink:href="#e"/>
<use x="105.607422" xlink:href="#h"/>
<use x="144.970703" xlink:href="#j"/>
<use x="242.382812" xlink:href="#i"/>
<use x="270.166016" xlink:href="#f"/>
<use x="333.544922" xlink:href="#g"/>
<use x="394.824219" xlink:href="#k"/>
</g>
</g>
<path d="m491.4 559.82v33.808q0 2.4 2.4 2.4h7.7425q2.4 0 2.4-2.4v-33.808q0-2.4-2.4-2.4h-7.7425q-2.4 0-2.4 2.4z" clip-path="url(#a)" fill="#fff" stroke="#fff"/>
<g clip-path="url(#a)">
<g transform="translate(495.46 559.82) rotate(90) scale(.08 -.08)">
<use xlink:href="#l"/>
<use x="44.083984" xlink:href="#e"/>
<use x="105.607422" xlink:href="#h"/>
<use x="144.970703" xlink:href="#j"/>
<use x="242.382812" xlink:href="#i"/>
<use x="270.166016" xlink:href="#f"/>
<use x="333.544922" xlink:href="#g"/>
<use x="394.824219" xlink:href="#k"/>
</g>
</g>
<path d="m66.211 459.61 0.22441-5.4679q0.098417-2.398-2.2996-2.4964l-7.736-0.3175q-2.398-0.098417-2.4964 2.2996l-0.22441 5.4679q-0.098417 2.398 2.2996 2.4964l7.736 0.3175q2.398 0.098418 2.4964-2.2996z" clip-path="url(#a)" fill="#fff" stroke="#fff"/>
<g clip-path="url(#a)">
<g transform="translate(62.151 459.44) rotate(-87.65) scale(.08 -.08)">
<use xlink:href="#o"/>
</g>
</g>
<path d="m58.355 450.26 0.54319 13.235q0.098417 2.398 2.4964 2.2996l7.9933-0.32806q2.398-0.098417 2.2996-2.4964l-0.54319-13.235q-0.098418-2.398-2.4964-2.2996l-7.9933 0.32806q-2.398 0.098417-2.2996 2.4964z" clip-path="url(#a)" fill="#fff" stroke="#fff"/>
<g clip-path="url(#a)">
<defs>
<path id="av" d="m21 76.422v-100h-8.2969v100z"/>
</defs>
<g transform="translate(62.637 450.09) rotate(87.65) scale(.08 -.08)">
<use xlink:href="#w"/>
<use x="63.476562" xlink:href="#av"/>
<use x="97.167969" xlink:href="#o"/>
</g>
</g>
<path d="m91.012 559.82v33.808q0 2.4 2.4 2.4h7.7425q2.4 0 2.4-2.4v-33.808q0-2.4-2.4-2.4h-7.7425q-2.4 0-2.4 2.4z" clip-path="url(#a)" fill="#fff" stroke="#fff"/>
<g clip-path="url(#a)">
<g transform="translate(95.076 559.82) rotate(90) scale(.08 -.08)">
<use xlink:href="#l"/>
<use x="44.083984" xlink:href="#e"/>
<use x="105.607422" xlink:href="#h"/>
<use x="144.970703" xlink:href="#j"/>
<use x="242.382812" xlink:href="#i"/>
<use x="270.166016" xlink:href="#f"/>
<use x="333.544922" xlink:href="#g"/>
<use x="394.824219" xlink:href="#k"/>
</g>
</g>
<path d="m121.21 461.09 1.6208-5.227q0.71083-2.2923-1.5815-3.0031l-7.3951-2.2932q-2.2923-0.71083-3.0031 1.5815l-1.6208 5.227q-0.71083 2.2923 1.5815 3.0031l7.3951 2.2932q2.2923 0.71083 3.0031-1.5815z" clip-path="url(#a)" fill="#fff" stroke="#fff"/>
<g clip-path="url(#a)">
<g transform="translate(117.33 459.89) rotate(-72.772) scale(.08 -.08)">
<use xlink:href="#o"/>
</g>
</g>
<path d="m131.16 454.37 0.23136 5.0735q0.10933 2.3975 2.5068 2.2882l7.7345-0.35271q2.3975-0.10933 2.2882-2.5068l-0.23136-5.0735q-0.10933-2.3975-2.5068-2.2882l-7.7345 0.35271q-2.3975 0.10933-2.2882 2.5068z" clip-path="url(#a)" fill="#fff" stroke="#fff"/>
<g clip-path="url(#a)">
<g transform="translate(135.22 454.18) rotate(87.389) scale(.08 -.08)">
<use xlink:href="#w"/>
</g>
</g>
<path d="m144.02 455.58 1.3993 5.2906q0.61368 2.3202 2.9339 1.7065l7.4851-1.9797q2.3202-0.61368 1.7065-2.9339l-1.3993-5.2906q-0.61368-2.3202-2.9339-1.7065l-7.4851 1.9797q-2.3202 0.61368-1.7065 2.9339z" clip-path="url(#a)" fill="#fff" stroke="#fff"/>
<g clip-path="url(#a)">
<g transform="translate(147.94 454.54) rotate(75.185) scale(.08 -.08)">
<use xlink:href="#o"/>
</g>
</g>
<path d="m74.467 559.82v33.808q0 2.4 2.4 2.4h7.7425q2.4 0 2.4-2.4v-33.808q0-2.4-2.4-2.4h-7.7425q-2.4 0-2.4 2.4z" clip-path="url(#a)" fill="#fff" stroke="#fff"/>
<g clip-path="url(#a)">
<g transform="translate(78.531 559.82) rotate(90) scale(.08 -.08)">
<use xlink:href="#l"/>
<use x="44.083984" xlink:href="#e"/>
<use x="105.607422" xlink:href="#h"/>
<use x="144.970703" xlink:href="#j"/>
<use x="242.382812" xlink:href="#i"/>
<use x="270.166016" xlink:href="#f"/>
<use x="333.544922" xlink:href="#g"/>
<use x="394.824219" xlink:href="#k"/>
</g>
</g>
<path d="m134.03 559.82v33.808q0 2.4 2.4 2.4h7.7425q2.4 0 2.4-2.4v-33.808q0-2.4-2.4-2.4h-7.7425q-2.4 0-2.4 2.4z" clip-path="url(#a)" fill="#fff" stroke="#fff"/>
<g clip-path="url(#a)">
<g transform="translate(138.09 559.82) rotate(90) scale(.08 -.08)">
<use xlink:href="#l"/>
<use x="44.083984" xlink:href="#e"/>
<use x="105.607422" xlink:href="#h"/>
<use x="144.970703" xlink:href="#j"/>
<use x="242.382812" xlink:href="#i"/>
<use x="270.166016" xlink:href="#f"/>
<use x="333.544922" xlink:href="#g"/>
<use x="394.824219" xlink:href="#k"/>
</g>
</g>
<path d="m160.5 559.82v33.808q0 2.4 2.4 2.4h7.7425q2.4 0 2.4-2.4v-33.808q0-2.4-2.4-2.4h-7.7425q-2.4 0-2.4 2.4z" clip-path="url(#a)" fill="#fff" stroke="#fff"/>
<g clip-path="url(#a)">
<g transform="translate(164.56 559.82) rotate(90) scale(.08 -.08)">
<use xlink:href="#l"/>
<use x="44.083984" xlink:href="#e"/>
<use x="105.607422" xlink:href="#h"/>
<use x="144.970703" xlink:href="#j"/>
<use x="242.382812" xlink:href="#i"/>
<use x="270.166016" xlink:href="#f"/>
<use x="333.544922" xlink:href="#g"/>
<use x="394.824219" xlink:href="#k"/>
</g>
</g>
<path d="m51.305 559.82v33.808q0 2.4 2.4 2.4h7.7425q2.4 0 2.4-2.4v-33.808q0-2.4-2.4-2.4h-7.7425q-2.4 0-2.4 2.4z" clip-path="url(#a)" fill="#fff" stroke="#fff"/>
<g clip-path="url(#a)">
<g transform="translate(55.368 559.82) rotate(90) scale(.08 -.08)">
<use xlink:href="#l"/>
<use x="44.083984" xlink:href="#e"/>
<use x="105.607422" xlink:href="#h"/>
<use x="144.970703" xlink:href="#j"/>
<use x="242.382812" xlink:href="#i"/>
<use x="270.166016" xlink:href="#f"/>
<use x="333.544922" xlink:href="#g"/>
<use x="394.824219" xlink:href="#k"/>
</g>
</g>
<path d="m61.231 559.82v33.808q0 2.4 2.4 2.4h7.7425q2.4 0 2.4-2.4v-33.808q0-2.4-2.4-2.4h-7.7425q-2.4 0-2.4 2.4z" clip-path="url(#a)" fill="#fff" stroke="#fff"/>
<g clip-path="url(#a)">
<g transform="translate(65.295 559.82) rotate(90) scale(.08 -.08)">
<use xlink:href="#l"/>
<use x="44.083984" xlink:href="#e"/>
<use x="105.607422" xlink:href="#h"/>
<use x="144.970703" xlink:href="#j"/>
<use x="242.382812" xlink:href="#i"/>
<use x="270.166016" xlink:href="#f"/>
<use x="333.544922" xlink:href="#g"/>
<use x="394.824219" xlink:href="#k"/>
</g>
</g>
<path d="m110.87 559.82v33.808q0 2.4 2.4 2.4h7.7425q2.4 0 2.4-2.4v-33.808q0-2.4-2.4-2.4h-7.7425q-2.4 0-2.4 2.4z" clip-path="url(#a)" fill="#fff" stroke="#fff"/>
<g clip-path="url(#a)">
<g transform="translate(114.93 559.82) rotate(90) scale(.08 -.08)">
<use xlink:href="#l"/>
<use x="44.083984" xlink:href="#e"/>
<use x="105.607422" xlink:href="#h"/>
<use x="144.970703" xlink:href="#j"/>
<use x="242.382812" xlink:href="#i"/>
<use x="270.166016" xlink:href="#f"/>
<use x="333.544922" xlink:href="#g"/>
<use x="394.824219" xlink:href="#k"/>
</g>
</g>
<path d="m190.28 559.82v33.808q0 2.4 2.4 2.4h7.7425q2.4 0 2.4-2.4v-33.808q0-2.4-2.4-2.4h-7.7425q-2.4 0-2.4 2.4z" clip-path="url(#a)" fill="#fff" stroke="#fff"/>
<g clip-path="url(#a)">
<g transform="translate(194.34 559.82) rotate(90) scale(.08 -.08)">
<use xlink:href="#l"/>
<use x="44.083984" xlink:href="#e"/>
<use x="105.607422" xlink:href="#h"/>
<use x="144.970703" xlink:href="#j"/>
<use x="242.382812" xlink:href="#i"/>
<use x="270.166016" xlink:href="#f"/>
<use x="333.544922" xlink:href="#g"/>
<use x="394.824219" xlink:href="#k"/>
</g>
</g>
<path d="m223.37 559.82v33.808q0 2.4 2.4 2.4h7.7425q2.4 0 2.4-2.4v-33.808q0-2.4-2.4-2.4h-7.7425q-2.4 0-2.4 2.4z" clip-path="url(#a)" fill="#fff" stroke="#fff"/>
<g clip-path="url(#a)">
<g transform="translate(227.43 559.82) rotate(90) scale(.08 -.08)">
<use xlink:href="#l"/>
<use x="44.083984" xlink:href="#e"/>
<use x="105.607422" xlink:href="#h"/>
<use x="144.970703" xlink:href="#j"/>
<use x="242.382812" xlink:href="#i"/>
<use x="270.166016" xlink:href="#f"/>
<use x="333.544922" xlink:href="#g"/>
<use x="394.824219" xlink:href="#k"/>
</g>
</g>
<path d="m1202.8 559.82v33.808q0 2.4 2.4 2.4h7.7425q2.4 0 2.4-2.4v-33.808q0-2.4-2.4-2.4h-7.7425q-2.4 0-2.4 2.4z" clip-path="url(#a)" fill="#fff" stroke="#fff"/>
<g clip-path="url(#a)">
<g transform="translate(1206.9 559.82) rotate(90) scale(.08 -.08)">
<use xlink:href="#l"/>
<use x="44.083984" xlink:href="#e"/>
<use x="105.607422" xlink:href="#h"/>
<use x="144.970703" xlink:href="#j"/>
<use x="242.382812" xlink:href="#i"/>
<use x="270.166016" xlink:href="#f"/>
<use x="333.544922" xlink:href="#g"/>
<use x="394.824219" xlink:href="#k"/>
</g>
</g>
<defs>
<path id="b" d="m0 8.6603c2.2967 0 4.4997-0.9125 6.1237-2.5365 1.624-1.624 2.5365-3.827 2.5365-6.1237s-0.9125-4.4997-2.5365-6.1237c-1.624-1.624-3.827-2.5365-6.1237-2.5365s-4.4997 0.9125-6.1237 2.5365c-1.624 1.624-2.5365 3.827-2.5365 6.1237s0.9125 4.4997 2.5365 6.1237c1.624 1.624 3.827 2.5365 6.1237 2.5365z"/>
</defs>
<g clip-path="url(#a)" fill="#ffffff" stroke="#ffffff">
<use x="57.575758" y="636.363636" xlink:href="#b"/>
<use x="67.502612" y="636.363636" xlink:href="#b"/>
<use x="80.738419" y="636.363636" xlink:href="#b"/>
<use x="97.283177" y="636.363636" xlink:href="#b"/>
<use x="117.136886" y="636.363636" xlink:href="#b"/>
<use x="140.299547" y="636.363636" xlink:href="#b"/>
<use x="166.77116" y="636.363636" xlink:href="#b"/>
<use x="196.551724" y="636.363636" xlink:href="#b"/>
<use x="229.64124" y="636.363636" xlink:href="#b"/>
<use x="266.039707" y="636.363636" xlink:href="#b"/>
<use x="305.747126" y="636.363636" xlink:href="#b"/>
<use x="348.763497" y="636.363636" xlink:href="#b"/>
<use x="395.088819" y="636.363636" xlink:href="#b"/>
<use x="444.723093" y="636.363636" xlink:href="#b"/>
<use x="497.666318" y="636.363636" xlink:href="#b"/>
<use x="553.918495" y="636.363636" xlink:href="#b"/>
<use x="613.479624" y="636.363636" xlink:href="#b"/>
<use x="676.349704" y="636.363636" xlink:href="#b"/>
<use x="742.528736" y="636.363636" xlink:href="#b"/>
<use x="812.016719" y="636.363636" xlink:href="#b"/>
<use x="884.813654" y="636.363636" xlink:href="#b"/>
<use x="960.91954" y="636.363636" xlink:href="#b"/>
<use x="1040.334378" y="636.363636" xlink:href="#b"/>
<use x="1123.058168" y="636.363636" xlink:href="#b"/>
<use x="1209.090909" y="636.363636" xlink:href="#b"/>
<use x="583.151244" y="30.30303" xlink:href="#b"/>
<use x="264.771276" y="152.595853" xlink:href="#b"/>
<use x="553.918495" y="517.086734" xlink:href="#b"/>
<use x="484.798173" y="274.580084" xlink:href="#b"/>
<use x="884.813654" y="517.086734" xlink:href="#b"/>
<use x="727.454623" y="274.580084" xlink:href="#b"/>
<use x="960.91954" y="517.086734" xlink:href="#b"/>
<use x="1124.161152" y="396.150559" xlink:href="#b"/>
<use x="1040.334378" y="517.086734" xlink:href="#b"/>
<use x="1123.058168" y="517.086734" xlink:href="#b"/>
<use x="613.479624" y="517.086734" xlink:href="#b"/>
<use x="743.631719" y="396.150559" xlink:href="#b"/>
<use x="676.349704" y="517.086734" xlink:href="#b"/>
<use x="742.528736" y="517.086734" xlink:href="#b"/>
<use x="812.016719" y="517.086734" xlink:href="#b"/>
<use x="98.496459" y="274.580084" xlink:href="#b"/>
<use x="266.039707" y="517.086734" xlink:href="#b"/>
<use x="401.706722" y="396.150559" xlink:href="#b"/>
<use x="396.191803" y="396.150559" xlink:href="#b"/>
<use x="348.763497" y="517.086734" xlink:href="#b"/>
<use x="395.088819" y="517.086734" xlink:href="#b"/>
<use x="444.723093" y="517.086734" xlink:href="#b"/>
<use x="305.747126" y="517.086734" xlink:href="#b"/>
<use x="497.666318" y="517.086734" xlink:href="#b"/>
<use x="62.539185" y="396.150559" xlink:href="#b"/>
<use x="97.283177" y="517.086734" xlink:href="#b"/>
<use x="134.784628" y="396.150559" xlink:href="#b"/>
<use x="80.738419" y="517.086734" xlink:href="#b"/>
<use x="140.299547" y="517.086734" xlink:href="#b"/>
<use x="166.77116" y="517.086734" xlink:href="#b"/>
<use x="57.575758" y="517.086734" xlink:href="#b"/>
<use x="67.502612" y="517.086734" xlink:href="#b"/>
<use x="117.136886" y="517.086734" xlink:href="#b"/>
<use x="196.551724" y="517.086734" xlink:href="#b"/>
<use x="229.64124" y="517.086734" xlink:href="#b"/>
<use x="1209.090909" y="517.086734" xlink:href="#b"/>
</g>
<g clip-path="url(#a)">
<g transform="translate(48.684 639.12) scale(.1 -.1)">
<use xlink:href="#x"/>
<use x="75.195312" xlink:href="#e"/>
<use x="136.71875" xlink:href="#h"/>
</g>
</g>
<g clip-path="url(#a)">
<defs>
<path id="q" d="m30.609 48.391q-7.2188 0-11.422-5.6406t-4.2031-15.453 4.1719-15.453q4.1875-5.6406 11.453-5.6406 7.1875 0 11.375 5.6562 4.2031 5.6719 4.2031 15.438 0 9.7188-4.2031 15.406-4.1875 5.6875-11.375 5.6875zm0 7.6094q11.719 0 18.406-7.625 6.7031-7.6094 6.7031-21.078 0-13.422-6.7031-21.078-6.6875-7.6406-18.406-7.6406-11.766 0-18.438 7.6406-6.6562 7.6562-6.6562 21.078 0 13.469 6.6562 21.078 6.6719 7.625 18.438 7.625z"/>
<path id="p" d="m18.312 70.219v-15.531h18.5v-6.9844h-18.5v-29.688q0-6.6875 1.8281-8.5938t7.4531-1.9062h9.2188v-7.5156h-9.2188q-10.406 0-14.359 3.875-3.9531 3.8906-3.9531 14.141v29.688h-6.5938v6.9844h6.5938v15.531z"/>
<path id="ae" d="m54.891 33.016v-33.016h-8.9844v32.719q0 7.7656-3.0312 11.609-3.0312 3.8594-9.0781 3.8594-7.2812 0-11.484-4.6406-4.2031-4.625-4.2031-12.641v-30.906h-9.0312v75.984h9.0312v-29.797q3.2344 4.9375 7.5938 7.375 4.375 2.4375 10.094 2.4375 9.4219 0 14.25-5.8281 4.8438-5.8281 4.8438-17.156z"/>
</defs>
<g transform="translate(49.312 639.12) scale(.1 -.1)">
<use xlink:href="#j"/>
<use x="97.412109" xlink:href="#q"/>
<use x="158.59375" xlink:href="#p"/>
<use x="197.802734" xlink:href="#ae"/>
<use x="261.181641" xlink:href="#e"/>
<use x="322.705078" xlink:href="#h"/>
</g>
</g>
<g clip-path="url(#a)">
<defs>
<path id="an" d="m11.719 12.406h10.297v-8.4062l-8-15.625h-6.2969l4 15.625z"/>
</defs>
<g transform="translate(79.149 639.12) scale(.1 -.1)">
<use xlink:href="#an"/>
</g>
</g>
<g clip-path="url(#a)">
<g transform="translate(86.12 639.12) scale(.1 -.1)">
<use xlink:href="#ag"/>
<use x="55.802734" xlink:href="#g"/>
<use x="117.082031" xlink:href="#p"/>
<use x="156.291016" xlink:href="#p"/>
<use x="195.5" xlink:href="#i"/>
</g>
</g>
<g clip-path="url(#a)">
<defs>
<path id="at" d="m31 75.875q-6.5312-11.219-9.7188-22.219-3.1719-10.984-3.1719-22.266 0-11.266 3.2031-22.328t9.6875-22.25h-7.8125q-7.3125 11.484-10.953 22.562t-3.6406 22.016q0 10.891 3.6094 21.922 3.625 11.047 10.984 22.562z"/>
</defs>
<g transform="translate(115.19 639.12) scale(.1 -.1)">
<use xlink:href="#at"/>
</g>
</g>
<g clip-path="url(#a)">
<defs>
<path id="au" d="m56.203 29.594v-4.3906h-41.312q0.59375-9.2812 5.5938-14.141t13.938-4.8594q5.1719 0 10.031 1.2656t9.6562 3.8125v-8.5q-4.8438-2.0469-9.9219-3.125t-10.297-1.0781q-13.094 0-20.734 7.6094-7.6406 7.625-7.6406 20.625 0 13.422 7.25 21.297 7.25 7.8906 19.562 7.8906 11.031 0 17.453-7.1094 6.4219-7.0938 6.4219-19.297zm-8.9844 2.6406q-0.09375 7.3594-4.125 11.75-4.0312 4.4062-10.672 4.4062-7.5156 0-12.031-4.25t-5.2031-11.969zm-8.6875 47.75h9.7188l-15.906-18.359h-7.4844z"/>
</defs>
<g transform="translate(130.98 639.12) scale(.1 -.1)">
<use xlink:href="#f"/>
<use x="63.378906" xlink:href="#au"/>
<use x="124.902344" xlink:href="#e"/>
</g>
</g>
<g clip-path="url(#a)">
<defs>
<path id="aw" d="m32.172-5.0781q-3.7969-9.7656-7.4219-12.734-3.6094-2.9844-9.6562-2.9844h-7.1875v7.5156h5.2812q3.7031 0 5.75 1.7656 2.0625 1.75 4.5469 8.2969l1.6094 4.0938-22.109 53.812h9.5156l17.094-42.766 17.094 42.766h9.5156z"/>
</defs>
<g transform="translate(153.21 639.12) scale(.1 -.1)">
<use xlink:href="#al"/>
<use x="57.519531" xlink:href="#k"/>
<use x="85.302734" xlink:href="#aw"/>
<use x="144.482422" xlink:href="#f"/>
<use x="207.861328" xlink:href="#f"/>
</g>
</g>
<g clip-path="url(#a)">
<defs>
<path id="as" d="m8.0156 75.875h7.8125q7.3125-11.516 10.953-22.562 3.6406-11.031 3.6406-21.922 0-10.938-3.6406-22.016t-10.953-22.562h-7.8125q6.4844 11.188 9.6875 22.25t3.2031 22.328q0 11.281-3.2031 22.266-3.2031 11-9.6875 22.219z"/>
</defs>
<g transform="translate(194.6 639.12) scale(.1 -.1)">
<use xlink:href="#as"/>
</g>
</g>
<g clip-path="url(#a)">
<g transform="translate(228.05 639.12) scale(.1 -.1)">
<use xlink:href="#an"/>
</g>
</g>
<g clip-path="url(#a)">
<defs>
<path id="v" d="m44.281 53.078v-8.5q-3.7969 1.9531-7.9062 2.9219-4.0938 0.98438-8.5 0.98438-6.6875 0-10.031-2.0469t-3.3438-6.1562q0-3.125 2.3906-4.9062t9.625-3.3906l3.0781-0.6875q9.5625-2.0469 13.594-5.7812t4.0312-10.422q0-7.625-6.0312-12.078-6.0312-4.4375-16.578-4.4375-4.3906 0-9.1562 0.85938t-10.031 2.5625v9.2812q4.9844-2.5938 9.8125-3.8906 4.8281-1.2812 9.5781-1.2812 6.3438 0 9.75 2.1719 3.4219 2.1719 3.4219 6.125 0 3.6562-2.4688 5.6094-2.4531 1.9531-10.812 3.7656l-3.125 0.73438q-8.3438 1.75-12.062 5.3906-3.7031 3.6406-3.7031 9.9844 0 7.7188 5.4688 11.906 5.4688 4.2031 15.531 4.2031 4.9688 0 9.3594-0.73438 4.4062-0.71875 8.1094-2.1875z"/>
</defs>
<g transform="translate(262.05 639.12) scale(.1 -.1)">
<use xlink:href="#i"/>
<use x="27.783203" xlink:href="#v"/>
</g>
</g>
<g clip-path="url(#a)">
<defs>
<path id="ap" d="m37.109 75.984v-7.4844h-8.5938q-4.8281 0-6.7188-1.9531-1.875-1.9531-1.875-7.0312v-4.8281h14.797v-6.9844h-14.797v-47.703h-9.0312v47.703h-8.5938v6.9844h8.5938v3.8125q0 9.125 4.25 13.297 4.25 4.1875 13.469 4.1875z"/>
</defs>
<g transform="translate(300.93 639.12) scale(.1 -.1)">
<use xlink:href="#q"/>
<use x="61.181641" xlink:href="#ap"/>
</g>
</g>
<g clip-path="url(#a)">
<defs>
<path id="ar" d="m9.8125 72.906h9.8594v-72.906h-9.8594z"/>
</defs>
<g transform="translate(338.07 639.12) scale(.1 -.1)">
<use xlink:href="#ar"/>
<use x="29.492188" xlink:href="#h"/>
<use x="70.605469" xlink:href="#i"/>
<use x="98.388672" xlink:href="#v"/>
<use x="150.488281" xlink:href="#ae"/>
</g>
</g>
<g clip-path="url(#a)">
<defs>
<path id="af" d="m45.406 46.391v29.594h8.9844v-75.984h-8.9844v8.2031q-2.8281-4.875-7.1562-7.25-4.3125-2.375-10.375-2.375-9.9062 0-16.141 7.9062-6.2188 7.9219-6.2188 20.812t6.2188 20.797q6.2344 7.9062 16.141 7.9062 6.0625 0 10.375-2.375 4.3281-2.3594 7.1562-7.2344zm-30.609-19.094q0-9.9062 4.0781-15.547t11.203-5.6406 11.219 5.6406q4.1094 5.6406 4.1094 15.547t-4.1094 15.547q-4.0938 5.6406-11.219 5.6406t-11.203-5.6406-4.0781-15.547z"/>
</defs>
<g transform="translate(385.68 639.12) scale(.1 -.1)">
<use xlink:href="#g"/>
<use x="61.279297" xlink:href="#f"/>
<use x="124.658203" xlink:href="#af"/>
</g>
</g>
<g clip-path="url(#a)">
<defs>
<path id="s" d="m48.781 52.594v-8.4062q-3.8125 2.1094-7.6406 3.1562t-7.7344 1.0469q-8.75 0-13.594-5.5469-4.8281-5.5312-4.8281-15.547t4.8281-15.562q4.8438-5.5312 13.594-5.5312 3.9062 0 7.7344 1.0469t7.6406 3.1562v-8.3125q-3.7656-1.75-7.7969-2.625-4.0156-0.89062-8.5625-0.89062-12.359 0-19.641 7.7656-7.2656 7.7656-7.2656 20.953 0 13.375 7.3438 21.031 7.3594 7.6719 20.156 7.6719 4.1406 0 8.0938-0.85938 3.9531-0.84375 7.6719-2.5469z"/>
</defs>
<g transform="translate(424.66 639.12) scale(.1 -.1)">
<use xlink:href="#w"/>
<use x="63.476562" xlink:href="#s"/>
<use x="118.457031" xlink:href="#q"/>
<use x="179.638672" xlink:href="#p"/>
<use x="218.847656" xlink:href="#p"/>
<use x="258.056641" xlink:href="#i"/>
<use x="285.839844" xlink:href="#v"/>
<use x="337.939453" xlink:href="#ae"/>
</g>
</g>
<g clip-path="url(#a)">
<g transform="translate(477.86 639.12) scale(.1 -.1)">
<use xlink:href="#af"/>
<use x="63.476562" xlink:href="#e"/>
<use x="125" xlink:href="#v"/>
<use x="177.099609" xlink:href="#s"/>
<use x="232.080078" xlink:href="#e"/>
<use x="293.603516" xlink:href="#f"/>
<use x="356.982422" xlink:href="#p"/>
</g>
</g>
<g clip-path="url(#a)">
<g transform="translate(544.51 639.12) scale(.1 -.1)">
<use xlink:href="#g"/>
<use x="61.279297" xlink:href="#f"/>
<use x="124.658203" xlink:href="#af"/>
</g>
</g>
<g clip-path="url(#a)">
<defs>
<path id="ax" d="m4.2031 54.688h8.9844l11.234-42.672 11.172 42.672h10.594l11.234-42.672 11.188 42.672h8.9844l-14.312-54.688h-10.594l-11.766 44.828-11.812-44.828h-10.609z"/>
<path id="ao" d="m9.0781 75.984h9.0312v-44.875l26.812 23.578h11.469l-29-25.578 30.234-29.109h-11.719l-27.797 26.703v-26.703h-9.0312z"/>
</defs>
<g transform="translate(595.31 639.12) scale(.1 -.1)">
<use xlink:href="#ax"/>
<use x="81.787109" xlink:href="#q"/>
<use x="142.96875" xlink:href="#h"/>
<use x="184.082031" xlink:href="#ao"/>
<use x="238.367188" xlink:href="#e"/>
<use x="299.890625" xlink:href="#af"/>
</g>
</g>
<g clip-path="url(#a)">
<g transform="translate(670.68 639.12) scale(.1 -.1)">
<use xlink:href="#g"/>
<use x="61.279297" xlink:href="#v"/>
</g>
</g>
<g clip-path="url(#a)">
<g transform="translate(736.3 639.12) scale(.1 -.1)">
<use xlink:href="#g"/>
<use x="61.279297" xlink:href="#f"/>
</g>
</g>
<g clip-path="url(#a)">
<defs>
<path id="ay" d="m8.5 21.578v33.109h8.9844v-32.766q0-7.7656 3.0156-11.656 3.0312-3.875 9.0938-3.875 7.2656 0 11.484 4.6406 4.2344 4.6406 4.2344 12.656v31h8.9844v-54.688h-8.9844v8.4062q-3.2656-4.9844-7.5938-7.4062-4.3125-2.4219-10.031-2.4219-9.4219 0-14.312 5.8594-4.875 5.8594-4.875 17.141z"/>
</defs>
<g transform="translate(783.9 639.12) scale(.1 -.1)">
<use xlink:href="#g"/>
<use x="61.279297" xlink:href="#s"/>
<use x="116.259766" xlink:href="#s"/>
<use x="171.240234" xlink:href="#q"/>
<use x="232.421875" xlink:href="#ay"/>
<use x="295.800781" xlink:href="#f"/>
<use x="359.179688" xlink:href="#p"/>
<use x="398.388672" xlink:href="#g"/>
<use x="459.667969" xlink:href="#f"/>
<use x="523.046875" xlink:href="#p"/>
</g>
</g>
<g clip-path="url(#a)">
<defs>
<path id="ai" d="m48.688 27.297q0 9.9062-4.0781 15.547t-11.203 5.6406q-7.1406 0-11.219-5.6406t-4.0781-15.547 4.0781-15.547 11.219-5.6406q7.125 0 11.203 5.6406t4.0781 15.547zm-30.578 19.094q2.8438 4.875 7.1562 7.2344 4.3281 2.375 10.328 2.375 9.9688 0 16.188-7.9062 6.2344-7.9062 6.2344-20.797t-6.2344-20.812q-6.2188-7.9062-16.188-7.9062-6 0-10.328 2.375-4.3125 2.375-7.1562 7.25v-8.2031h-9.0312v75.984h9.0312z"/>
</defs>
<g transform="translate(868.72 639.12) scale(.1 -.1)">
<use xlink:href="#ai"/>
<use x="63.476562" xlink:href="#e"/>
<use x="125" xlink:href="#ap"/>
<use x="160.205078" xlink:href="#q"/>
<use x="221.386719" xlink:href="#h"/>
<use x="260.25" xlink:href="#e"/>
</g>
</g>
<g clip-path="url(#a)">
<defs>
<path id="az" d="m45.406 27.984q0 9.7656-4.0312 15.125-4.0156 5.375-11.297 5.375-7.2188 0-11.25-5.375-4.0312-5.3594-4.0312-15.125 0-9.7188 4.0312-15.094t11.25-5.375q7.2812 0 11.297 5.375 4.0312 5.375 4.0312 15.094zm8.9844-21.203q0-13.953-6.2031-20.766-6.1875-6.8125-18.984-6.8125-4.7344 0-8.9375 0.70312t-8.1562 2.1719v8.7344q3.9531-2.1406 7.8125-3.1562 3.8594-1.0312 7.8594-1.0312 8.8438 0 13.234 4.6094t4.3906 13.938v4.4531q-2.7812-4.8438-7.125-7.2344t-10.406-2.3906q-10.047 0-16.203 7.6562-6.1562 7.6719-6.1562 20.328 0 12.688 6.1562 20.344 6.1562 7.6719 16.203 7.6719 6.0625 0 10.406-2.3906t7.125-7.2188v8.2969h8.9844z"/>
</defs>
<g transform="translate(936.26 639.12) scale(.1 -.1)">
<use xlink:href="#ai"/>
<use x="63.476562" xlink:href="#e"/>
<use x="125" xlink:href="#s"/>
<use x="179.980469" xlink:href="#q"/>
<use x="241.162109" xlink:href="#j"/>
<use x="338.574219" xlink:href="#i"/>
<use x="366.357422" xlink:href="#f"/>
<use x="429.736328" xlink:href="#az"/>
</g>
</g>
<g clip-path="url(#a)">
<g transform="translate(1037.3 639.12) scale(.1 -.1)">
<use xlink:href="#g"/>
</g>
</g>
<g clip-path="url(#a)">
<g transform="translate(1093.1 639.12) scale(.1 -.1)">
<use xlink:href="#ae"/>
<use x="63.378906" xlink:href="#q"/>
<use x="124.560547" xlink:href="#j"/>
<use x="221.972656" xlink:href="#e"/>
<use x="283.496094" xlink:href="#j"/>
<use x="380.908203" xlink:href="#g"/>
<use x="442.1875" xlink:href="#ao"/>
<use x="496.472656" xlink:href="#e"/>
<use x="557.996094" xlink:href="#h"/>
</g>
</g>
<g clip-path="url(#a)">
<defs>
<path id="d" d="m10.688 12.406h10.312v-12.406h-10.312z"/>
</defs>
<g transform="translate(1207.5 639.12) scale(.1 -.1)">
<use xlink:href="#d"/>
</g>
</g>
<g clip-path="url(#a)">
<defs>
<path id="c" d="m12.406 8.2969h16.109v55.625l-17.531-3.5156v8.9844l17.438 3.5156h9.8594v-64.609h16.109v-8.2969h-41.984z"/>
</defs>
<g transform="translate(575.2 33.062) scale(.1 -.1)">
<use xlink:href="#c"/>
<use x="63.623047" xlink:href="#d"/>
<use x="95.410156" xlink:href="#c"/>
</g>
</g>
<g clip-path="url(#a)">
<defs>
<path id="n" d="m19.188 8.2969h34.422v-8.2969h-46.281v8.2969q5.6094 5.8125 15.297 15.594 9.7031 9.7969 12.188 12.641 4.7344 5.3125 6.6094 9 1.8906 3.6875 1.8906 7.25 0 5.8125-4.0781 9.4688-4.0781 3.6719-10.625 3.6719-4.6406 0-9.7969-1.6094-5.1406-1.6094-11-4.8906v9.9688q5.9531 2.3906 11.125 3.6094 5.1875 1.2188 9.4844 1.2188 11.328 0 18.062-5.6719 6.7344-5.6562 6.7344-15.125 0-4.5-1.6875-8.5312-1.6719-4.0156-6.125-9.4844-1.2188-1.4219-7.7656-8.1875-6.5312-6.7656-18.453-18.922z"/>
</defs>
<g transform="translate(256.82 155.36) scale(.1 -.1)">
<use xlink:href="#c"/>
<use x="63.623047" xlink:href="#d"/>
<use x="95.410156" xlink:href="#n"/>
</g>
</g>
<g clip-path="url(#a)">
<defs>
<path id="m" d="m40.578 39.312q7.0781-1.5156 11.047-6.3125 3.9844-4.7812 3.9844-11.812 0-10.781-7.4219-16.703-7.4219-5.9062-21.094-5.9062-4.5781 0-9.4375 0.90625t-10.031 2.7188v9.5156q4.0938-2.3906 8.9688-3.6094 4.8906-1.2188 10.219-1.2188 9.2656 0 14.125 3.6562t4.8594 10.641q0 6.4531-4.5156 10.078-4.5156 3.6406-12.562 3.6406h-8.5v8.1094h8.8906q7.2656 0 11.125 2.9062t3.8594 8.375q0 5.6094-3.9844 8.6094-3.9688 3.0156-11.391 3.0156-4.0625 0-8.7031-0.89062-4.6406-0.875-10.203-2.7188v8.7812q5.625 1.5625 10.531 2.3438t9.25 0.78125q11.234 0 17.766-5.1094 6.5469-5.0938 6.5469-13.781 0-6.0625-3.4688-10.234t-9.8594-5.7812z"/>
</defs>
<g transform="translate(545.97 519.85) scale(.1 -.1)">
<use xlink:href="#c"/>
<use x="63.623047" xlink:href="#d"/>
<use x="95.410156" xlink:href="#m"/>
</g>
</g>
<g clip-path="url(#a)">
<defs>
<path id="u" d="m37.797 64.312-24.906-38.922h24.906zm-2.5938 8.5938h12.406v-47.516h10.406v-8.2031h-10.406v-17.188h-9.8125v17.188h-32.906v9.5156z"/>
</defs>
<g transform="translate(476.85 277.34) scale(.1 -.1)">
<use xlink:href="#c"/>
<use x="63.623047" xlink:href="#d"/>
<use x="95.410156" xlink:href="#u"/>
</g>
</g>
<g clip-path="url(#a)">
<defs>
<path id="ac" d="m10.797 72.906h38.719v-8.3125h-29.688v-17.859q2.1406 0.73438 4.2812 1.0938 2.1562 0.35938 4.3125 0.35938 12.203 0 19.328-6.6875 7.1406-6.6875 7.1406-18.109 0-11.766-7.3281-18.297-7.3281-6.5156-20.656-6.5156-4.5938 0-9.3594 0.78125-4.75 0.78125-9.8281 2.3438v9.9219q4.3906-2.3906 9.0781-3.5625t9.9062-1.1719q8.4531 0 13.375 4.4375 4.9375 4.4375 4.9375 12.062 0 7.6094-4.9375 12.047-4.9219 4.4531-13.375 4.4531-3.9531 0-7.8906-0.875-3.9219-0.875-8.0156-2.7344z"/>
</defs>
<g transform="translate(876.86 519.85) scale(.1 -.1)">
<use xlink:href="#c"/>
<use x="63.623047" xlink:href="#d"/>
<use x="95.410156" xlink:href="#ac"/>
</g>
</g>
<g clip-path="url(#a)">
<defs>
<path id="ab" d="m33.016 40.375q-6.6406 0-10.531-4.5469-3.875-4.5312-3.875-12.438 0-7.8594 3.875-12.438 3.8906-4.5625 10.531-4.5625t10.516 4.5625q3.875 4.5781 3.875 12.438 0 7.9062-3.875 12.438-3.875 4.5469-10.516 4.5469zm19.578 30.922v-8.9844q-3.7188 1.75-7.5 2.6719-3.7812 0.9375-7.5 0.9375-9.7656 0-14.922-6.5938-5.1406-6.5938-5.875-19.922 2.875 4.25 7.2188 6.5156 4.3594 2.2656 9.5781 2.2656 10.984 0 17.359-6.6719 6.375-6.6562 6.375-18.125 0-11.234-6.6406-18.031-6.6406-6.7812-17.672-6.7812-12.656 0-19.344 9.6875-6.6875 9.7031-6.6875 28.109 0 17.281 8.2031 27.562t22.016 10.281q3.7188 0 7.5-0.73438t7.8906-2.1875z"/>
</defs>
<g transform="translate(719.5 277.34) scale(.1 -.1)">
<use xlink:href="#c"/>
<use x="63.623047" xlink:href="#d"/>
<use x="95.410156" xlink:href="#ab"/>
</g>
</g>
<g clip-path="url(#a)">
<defs>
<path id="aa" d="m31.781 34.625q-7.0312 0-11.062-3.7656-4.0156-3.7656-4.0156-10.344 0-6.5938 4.0156-10.359 4.0312-3.7656 11.062-3.7656t11.078 3.7812q4.0625 3.7969 4.0625 10.344 0 6.5781-4.0312 10.344-4.0156 3.7656-11.109 3.7656zm-9.8594 4.1875q-6.3438 1.5625-9.8906 5.9062-3.5312 4.3594-3.5312 10.609 0 8.7344 6.2188 13.812 6.2344 5.0781 17.062 5.0781 10.891 0 17.094-5.0781t6.2031-13.812q0-6.25-3.5469-10.609-3.5312-4.3438-9.8281-5.9062 7.125-1.6562 11.094-6.5 3.9844-4.8281 3.9844-11.797 0-10.609-6.4688-16.281-6.4688-5.6562-18.531-5.6562-12.047 0-18.531 5.6562-6.4688 5.6719-6.4688 16.281 0 6.9688 4 11.797 4.0156 4.8438 11.141 6.5zm-3.6094 15.578q0-5.6562 3.5312-8.8281 3.5469-3.1719 9.9375-3.1719 6.3594 0 9.9375 3.1719 3.5938 3.1719 3.5938 8.8281 0 5.6719-3.5938 8.8438-3.5781 3.1719-9.9375 3.1719-6.3906 0-9.9375-3.1719-3.5312-3.1719-3.5312-8.8438z"/>
</defs>
<g transform="translate(952.97 519.85) scale(.1 -.1)">
<use xlink:href="#c"/>
<use x="63.623047" xlink:href="#d"/>
<use x="95.410156" xlink:href="#aa"/>
</g>
</g>
<g clip-path="url(#a)">
<defs>
<path id="z" d="m10.984 1.5156v8.9844q3.7188-1.7656 7.5156-2.6875 3.8125-0.92188 7.4844-0.92188 9.7656 0 14.906 6.5625 5.1562 6.5625 5.8906 19.953-2.8281-4.2031-7.1875-6.4531-4.3438-2.25-9.6094-2.25-10.938 0-17.312 6.6094-6.375 6.625-6.375 18.109 0 11.219 6.6406 18 6.6406 6.7969 17.672 6.7969 12.656 0 19.312-9.7031 6.6719-9.6875 6.6719-28.141 0-17.234-8.1875-27.516-8.1719-10.281-21.984-10.281-3.7188 0-7.5312 0.73438-3.7969 0.73438-7.9062 2.2031zm19.625 30.906q6.6406 0 10.516 4.5312 3.8906 4.5469 3.8906 12.469 0 7.8594-3.8906 12.422-3.875 4.5625-10.516 4.5625t-10.516-4.5625-3.875-12.422q0-7.9219 3.875-12.469 3.875-4.5312 10.516-4.5312z"/>
</defs>
<g transform="translate(1116.2 398.91) scale(.1 -.1)">
<use xlink:href="#c"/>
<use x="63.623047" xlink:href="#d"/>
<use x="95.410156" xlink:href="#z"/>
</g>
</g>
<g clip-path="url(#a)">
<defs>
<path id="ad" d="m31.781 66.406q-7.6094 0-11.453-7.5-3.8281-7.4844-3.8281-22.531 0-14.984 3.8281-22.484 3.8438-7.5 11.453-7.5 7.6719 0 11.5 7.5 3.8438 7.5 3.8438 22.484 0 15.047-3.8438 22.531-3.8281 7.5-11.5 7.5zm0 7.8125q12.266 0 18.734-9.7031 6.4688-9.6875 6.4688-28.141 0-18.406-6.4688-28.109-6.4688-9.6875-18.734-9.6875-12.25 0-18.719 9.6875-6.4688 9.7031-6.4688 28.109 0 18.453 6.4688 28.141 6.4688 9.7031 18.719 9.7031z"/>
</defs>
<g transform="translate(1029.2 519.85) scale(.1 -.1)">
<use xlink:href="#c"/>
<use x="63.623047" xlink:href="#d"/>
<use x="95.410156" xlink:href="#c"/>
<use x="159.033203" xlink:href="#ad"/>
</g>
</g>
<g clip-path="url(#a)">
<g transform="translate(1111.9 519.85) scale(.1 -.1)">
<use xlink:href="#c"/>
<use x="63.623047" xlink:href="#d"/>
<use x="95.410156" xlink:href="#c"/>
<use x="159.033203" xlink:href="#c"/>
</g>
</g>
<g clip-path="url(#a)">
<g transform="translate(602.35 519.85) scale(.1 -.1)">
<use xlink:href="#c"/>
<use x="63.623047" xlink:href="#d"/>
<use x="95.410156" xlink:href="#c"/>
<use x="159.033203" xlink:href="#n"/>
</g>
</g>
<g clip-path="url(#a)">
<g transform="translate(732.5 398.91) scale(.1 -.1)">
<use xlink:href="#c"/>
<use x="63.623047" xlink:href="#d"/>
<use x="95.410156" xlink:href="#c"/>
<use x="159.033203" xlink:href="#m"/>
</g>
</g>
<g clip-path="url(#a)">
<g transform="translate(665.22 519.85) scale(.1 -.1)">
<use xlink:href="#c"/>
<use x="63.623047" xlink:href="#d"/>
<use x="95.410156" xlink:href="#c"/>
<use x="159.033203" xlink:href="#u"/>
</g>
</g>
<g clip-path="url(#a)">
<g transform="translate(731.4 519.85) scale(.1 -.1)">
<use xlink:href="#c"/>
<use x="63.623047" xlink:href="#d"/>
<use x="95.410156" xlink:href="#c"/>
<use x="159.033203" xlink:href="#ac"/>
</g>
</g>
<g clip-path="url(#a)">
<g transform="translate(800.88 519.85) scale(.1 -.1)">
<use xlink:href="#c"/>
<use x="63.623047" xlink:href="#d"/>
<use x="95.410156" xlink:href="#c"/>
<use x="159.033203" xlink:href="#ab"/>
</g>
</g>
<g clip-path="url(#a)">
<defs>
<path id="ah" d="m8.2031 72.906h46.875v-4.2031l-26.469-68.703h-10.297l24.906 64.594h-35.016z"/>
</defs>
<g transform="translate(87.364 277.34) scale(.1 -.1)">
<use xlink:href="#c"/>
<use x="63.623047" xlink:href="#d"/>
<use x="95.410156" xlink:href="#c"/>
<use x="159.033203" xlink:href="#ah"/>
</g>
</g>
<g clip-path="url(#a)">
<g transform="translate(254.91 519.85) scale(.1 -.1)">
<use xlink:href="#c"/>
<use x="63.623047" xlink:href="#d"/>
<use x="95.410156" xlink:href="#c"/>
<use x="159.033203" xlink:href="#aa"/>
</g>
</g>
<g clip-path="url(#a)">
<g transform="translate(390.57 398.91) scale(.1 -.1)">
<use xlink:href="#c"/>
<use x="63.623047" xlink:href="#d"/>
<use x="95.410156" xlink:href="#c"/>
<use x="159.033203" xlink:href="#z"/>
</g>
</g>
<g clip-path="url(#a)">
<g transform="translate(385.06 398.91) scale(.1 -.1)">
<use xlink:href="#c"/>
<use x="63.623047" xlink:href="#d"/>
<use x="95.410156" xlink:href="#n"/>
<use x="159.033203" xlink:href="#ad"/>
</g>
</g>
<g clip-path="url(#a)">
<g transform="translate(337.63 519.85) scale(.1 -.1)">
<use xlink:href="#c"/>
<use x="63.623047" xlink:href="#d"/>
<use x="95.410156" xlink:href="#n"/>
<use x="159.033203" xlink:href="#m"/>
</g>
</g>
<g clip-path="url(#a)">
<g transform="translate(383.96 519.85) scale(.1 -.1)">
<use xlink:href="#c"/>
<use x="63.623047" xlink:href="#d"/>
<use x="95.410156" xlink:href="#n"/>
<use x="159.033203" xlink:href="#u"/>
</g>
</g>
<g clip-path="url(#a)">
<g transform="translate(433.59 519.85) scale(.1 -.1)">
<use xlink:href="#c"/>
<use x="63.623047" xlink:href="#d"/>
<use x="95.410156" xlink:href="#n"/>
<use x="159.033203" xlink:href="#ac"/>
</g>
</g>
<g clip-path="url(#a)">
<g transform="translate(294.61 519.85) scale(.1 -.1)">
<use xlink:href="#c"/>
<use x="63.623047" xlink:href="#d"/>
<use x="95.410156" xlink:href="#n"/>
<use x="159.033203" xlink:href="#ab"/>
</g>
</g>
<g clip-path="url(#a)">
<g transform="translate(486.53 519.85) scale(.1 -.1)">
<use xlink:href="#c"/>
<use x="63.623047" xlink:href="#d"/>
<use x="95.410156" xlink:href="#n"/>
<use x="159.033203" xlink:href="#ah"/>
</g>
</g>
<g clip-path="url(#a)">
<g transform="translate(51.406 398.91) scale(.1 -.1)">
<use xlink:href="#c"/>
<use x="63.623047" xlink:href="#d"/>
<use x="95.410156" xlink:href="#n"/>
<use x="159.033203" xlink:href="#aa"/>
</g>
</g>
<g clip-path="url(#a)">
<g transform="translate(86.15 519.85) scale(.1 -.1)">
<use xlink:href="#c"/>
<use x="63.623047" xlink:href="#d"/>
<use x="95.410156" xlink:href="#n"/>
<use x="159.033203" xlink:href="#z"/>
</g>
</g>
<g clip-path="url(#a)">
<g transform="translate(123.65 398.91) scale(.1 -.1)">
<use xlink:href="#c"/>
<use x="63.623047" xlink:href="#d"/>
<use x="95.410156" xlink:href="#m"/>
<use x="159.033203" xlink:href="#ad"/>
</g>
</g>
<g clip-path="url(#a)">
<g transform="translate(69.606 519.85) scale(.1 -.1)">
<use xlink:href="#c"/>
<use x="63.623047" xlink:href="#d"/>
<use x="95.410156" xlink:href="#m"/>
<use x="159.033203" xlink:href="#n"/>
</g>
</g>
<g clip-path="url(#a)">
<g transform="translate(129.17 519.85) scale(.1 -.1)">
<use xlink:href="#c"/>
<use x="63.623047" xlink:href="#d"/>
<use x="95.410156" xlink:href="#m"/>
<use x="159.033203" xlink:href="#m"/>
</g>
</g>
<g clip-path="url(#a)">
<g transform="translate(155.64 519.85) scale(.1 -.1)">
<use xlink:href="#c"/>
<use x="63.623047" xlink:href="#d"/>
<use x="95.410156" xlink:href="#m"/>
<use x="159.033203" xlink:href="#u"/>
</g>
</g>
<g clip-path="url(#a)">
<g transform="translate(46.443 519.85) scale(.1 -.1)">
<use xlink:href="#c"/>
<use x="63.623047" xlink:href="#d"/>
<use x="95.410156" xlink:href="#m"/>
<use x="159.033203" xlink:href="#ac"/>
</g>
</g>
<g clip-path="url(#a)">
<g transform="translate(56.37 519.85) scale(.1 -.1)">
<use xlink:href="#c"/>
<use x="63.623047" xlink:href="#d"/>
<use x="95.410156" xlink:href="#m"/>
<use x="159.033203" xlink:href="#ab"/>
</g>
</g>
<g clip-path="url(#a)">
<g transform="translate(106 519.85) scale(.1 -.1)">
<use xlink:href="#c"/>
<use x="63.623047" xlink:href="#d"/>
<use x="95.410156" xlink:href="#m"/>
<use x="159.033203" xlink:href="#ah"/>
</g>
</g>
<g clip-path="url(#a)">
<g transform="translate(185.42 519.85) scale(.1 -.1)">
<use xlink:href="#c"/>
<use x="63.623047" xlink:href="#d"/>
<use x="95.410156" xlink:href="#m"/>
<use x="159.033203" xlink:href="#aa"/>
</g>
</g>
<g clip-path="url(#a)">
<g transform="translate(218.51 519.85) scale(.1 -.1)">
<use xlink:href="#c"/>
<use x="63.623047" xlink:href="#d"/>
<use x="95.410156" xlink:href="#m"/>
<use x="159.033203" xlink:href="#z"/>
</g>
</g>
<g clip-path="url(#a)">
<g transform="translate(1198 519.85) scale(.1 -.1)">
<use xlink:href="#c"/>
<use x="63.623047" xlink:href="#d"/>
<use x="95.410156" xlink:href="#u"/>
<use x="159.033203" xlink:href="#ad"/>
</g>
</g>
<defs>
<clipPath id="a">
<rect width="1266.7" height="666.67"/>
</clipPath>
</defs>
</svg>
