<?xml version="1.0" encoding="UTF-8"?>
<!DOCTYPE svg  PUBLIC '-//W3C//DTD SVG 1.1//EN'  'http://www.w3.org/Graphics/SVG/1.1/DTD/svg11.dtd'>
<svg width="1570.7pt" height="826.67pt" version="1.1" viewBox="0 0 1570.7 826.67" xmlns="http://www.w3.org/2000/svg" xmlns:xlink="http://www.w3.org/1999/xlink">
<defs>
<style type="text/css">*{stroke-linecap:butt;stroke-linejoin:round;}</style>
</defs>
<path d="m0 826.67h1570.7v-826.67h-1570.7z" fill="#fff"/>
<g fill="none" stroke="#000">
<path d="m287.09 37.576v108.35" clip-path="url(#a)"/>
<path d="m287.09 145.93-200.74 431.12" clip-path="url(#a)"/>
<path d="m287.09 145.93-125.04 431.12" clip-path="url(#a)"/>
<path d="m287.09 145.93-74.272 537.87" clip-path="url(#a)"/>
<path d="m287.09 145.93-44.355 537.87" clip-path="url(#a)"/>
<path d="m287.09 145.93 69.876 431.12" clip-path="url(#a)"/>
<path d="m287.09 145.93 349.01 108.17" clip-path="url(#a)"/>
<path d="m287.09 145.93-166.74 537.87" clip-path="url(#a)"/>
<path d="m287.09 145.93 192.27 537.87" clip-path="url(#a)"/>
<path d="m86.353 577.05-14.959 106.76" clip-path="url(#a)"/>
<path d="m86.353 577.05-6.7994 106.76" clip-path="url(#a)"/>
<path d="m86.353 577.05 4.0797 106.76" clip-path="url(#a)"/>
<path d="m86.353 577.05 17.678 106.76" clip-path="url(#a)"/>
<path d="m162.05 577.05-22.665 106.76" clip-path="url(#a)"/>
<path d="m162.05 577.05-0.90659 106.76" clip-path="url(#a)"/>
<path d="m162.05 577.05 23.571 106.76" clip-path="url(#a)"/>
<path d="m212.82 683.8v105.29" clip-path="url(#a)"/>
<path d="m242.74 683.8v105.29" clip-path="url(#a)"/>
<path d="m356.97 577.05-81.593 106.76" clip-path="url(#a)"/>
<path d="m356.97 577.05-27.198 106.76" clip-path="url(#a)"/>
<path d="m356.97 577.05 76.154 106.76" clip-path="url(#a)"/>
<path d="m356.97 577.05 32.637 106.76" clip-path="url(#a)"/>
<path d="m636.11 254.1-107.79 429.7" clip-path="url(#a)"/>
<path d="m636.11 254.1-28.919 215.63" clip-path="url(#a)"/>
<path d="m636.11 254.1 136.71 107.95" clip-path="url(#a)"/>
<path d="m528.32 683.8v105.29" clip-path="url(#a)"/>
<path d="m607.19 469.73v107.32" clip-path="url(#a)"/>
<path d="m772.82 362.05-81.317 321.75" clip-path="url(#a)"/>
<path d="m772.82 362.05-21.482 321.75" clip-path="url(#a)"/>
<path d="m772.82 362.05 241.23 107.68" clip-path="url(#a)"/>
<path d="m772.82 362.05-138.43 321.75" clip-path="url(#a)" stroke-dasharray="3.7,1.6"/>
<path d="m691.5 683.8v105.29" clip-path="url(#a)"/>
<path d="m751.34 683.8v105.29" clip-path="url(#a)"/>
<path d="m1014 469.73-200.16 214.07" clip-path="url(#a)"/>
<path d="m1014 469.73-100.89 107.32" clip-path="url(#a)"/>
<path d="m1014 469.73 297.22 107.32" clip-path="url(#a)"/>
<path d="m1014 469.73 3.8247 214.07" clip-path="url(#a)"/>
<path d="m813.89 683.8v105.29" clip-path="url(#a)"/>
<path d="m913.16 577.05-33.997 106.76" clip-path="url(#a)"/>
<path d="m913.16 577.05 33.997 106.76" clip-path="url(#a)"/>
<path d="m1311.3 577.05-181.88 106.76" clip-path="url(#a)"/>
<path d="m1311.3 577.05-64.934 106.76" clip-path="url(#a)"/>
<path d="m1311.3 577.05 58.815 106.76" clip-path="url(#a)"/>
<path d="m1311.3 577.05 188 106.76" clip-path="url(#a)"/>
<path d="m1129.4 683.8-38.077 105.29" clip-path="url(#a)"/>
<path d="m1129.4 683.8 38.077 105.29" clip-path="url(#a)"/>
<path d="m1246.3 683.8v105.29" clip-path="url(#a)"/>
<path d="m1370.1 683.8-42.156 105.29" clip-path="url(#a)"/>
<path d="m1370.1 683.8 42.156 105.29" clip-path="url(#a)"/>
<path d="m879.17 683.8v105.29" clip-path="url(#a)"/>
<path d="m947.16 683.8v105.29" clip-path="url(#a)"/>
<path d="m607.19 577.05-27.198 106.76" clip-path="url(#a)"/>
<path d="m607.19 577.05 27.198 106.76" clip-path="url(#a)"/>
<path d="m579.99 683.8v105.29" clip-path="url(#a)"/>
<path d="m634.39 683.8v105.29" clip-path="url(#a)"/>
<path d="m275.38 683.8v105.29" clip-path="url(#a)"/>
<path d="m329.77 683.8-19.038 105.29" clip-path="url(#a)"/>
<path d="m329.77 683.8 19.038 105.29" clip-path="url(#a)"/>
<path d="m433.12 683.8v105.29" clip-path="url(#a)"/>
<path d="m139.39 683.8v105.29" clip-path="url(#a)"/>
<path d="m161.15 683.8v105.29" clip-path="url(#a)"/>
<path d="m185.62 683.8v105.29" clip-path="url(#a)"/>
<path d="m71.394 683.8v105.29" clip-path="url(#a)"/>
<path d="m79.553 683.8v105.29" clip-path="url(#a)"/>
<path d="m90.432 683.8v105.29" clip-path="url(#a)"/>
<path d="m104.03 683.8v105.29" clip-path="url(#a)"/>
<path d="m120.35 683.8v105.29" clip-path="url(#a)"/>
<path d="m389.61 683.8v105.29" clip-path="url(#a)"/>
<path d="m479.36 683.8v105.29" clip-path="url(#a)"/>
<path d="m1017.9 683.8v105.29" clip-path="url(#a)"/>
<path d="m1499.3 683.8v105.29" clip-path="url(#a)"/>
</g>
<path d="m280.82 88.743v6.0162q0 2.4 2.4 2.4h7.7425q2.4 0 2.4-2.4v-6.0162q0-2.4-2.4-2.4h-7.7425q-2.4 0-2.4 2.4z" clip-path="url(#a)" fill="#fff" stroke="#fff"/>
<g clip-path="url(#a)">
<defs>
<path id="an" d="m9.8125 72.906h9.8594v-29.891h35.844v29.891h9.8594v-72.906h-9.8594v34.719h-35.844v-34.719h-9.8594z"/>
</defs>
<g transform="translate(284.89 88.743) rotate(90) scale(.08 -.08)">
<use xlink:href="#an"/>
</g>
</g>
<path d="m191.38 366.35 2.0626-4.4296q1.0131-2.1757-1.1626-3.1888l-7.0189-3.2682q-2.1757-1.0131-3.1888 1.1626l-2.0626 4.4296q-1.0131 2.1757 1.1626 3.1888l7.0189 3.2682q2.1757 1.0131 3.1888-1.1626z" clip-path="url(#a)" fill="#fff" stroke="#fff"/>
<g clip-path="url(#a)">
<defs>
<path id="l" d="m-0.29688 72.906h61.672v-8.3125h-25.875v-64.594h-9.9062v64.594h-25.891z"/>
</defs>
<g transform="translate(187.69 364.63) rotate(-65.032) scale(.08 -.08)">
<use xlink:href="#l"/>
</g>
</g>
<path d="m229.83 365.86 1.5244-5.2559q0.66854-2.305-1.6365-2.9735l-7.436-2.1567q-2.305-0.66854-2.9735 1.6365l-1.5244 5.2559q-0.66854 2.305 1.6365 2.9735l7.436 2.1567q2.305 0.66854 2.9735-1.6365z" clip-path="url(#a)" fill="#fff" stroke="#fff"/>
<g clip-path="url(#a)">
<defs>
<path id="q" d="m34.188 63.188-13.391-36.281h26.812zm-5.5781 9.7188h11.188l27.781-72.906h-10.25l-6.6406 18.703h-32.859l-6.6406-18.703h-10.406z"/>
</defs>
<g transform="translate(225.93 364.73) rotate(-73.826) scale(.08 -.08)">
<use xlink:href="#q"/>
</g>
</g>
<path d="m255.86 418 0.62939-4.558q0.32829-2.3774-2.0492-2.7057l-7.6697-1.0591q-2.3774-0.32829-2.7057 2.0492l-0.62939 4.558q-0.32829 2.3774 2.0492 2.7057l7.6697 1.0591q2.3774 0.32829 2.7057-2.0492z" clip-path="url(#a)" fill="#fff" stroke="#fff"/>
<g clip-path="url(#a)">
<defs>
<path id="au" d="m9.8125 72.906h41.891v-8.3125h-32.031v-21.484h28.906v-8.2969h-28.906v-34.812h-9.8594z"/>
</defs>
<g transform="translate(251.83 417.44) rotate(-82.138) scale(.08 -.08)">
<use xlink:href="#au"/>
</g>
</g>
<path d="m270.97 417.78 0.39644-4.8074q0.19724-2.3919-2.1946-2.5891l-7.7163-0.63631q-2.3919-0.19724-2.5891 2.1946l-0.39644 4.8074q-0.19724 2.3919 2.1946 2.5891l7.7163 0.63631q2.3919 0.19724 2.5891-2.1946z" clip-path="url(#a)" fill="#fff" stroke="#fff"/>
<g clip-path="url(#a)">
<defs>
<path id="y" d="m19.672 64.797v-27.391h12.406q6.8906 0 10.641 3.5625 3.7656 3.5625 3.7656 10.156 0 6.5469-3.7656 10.109-3.75 3.5625-10.641 3.5625zm-9.8594 8.1094h22.266q12.266 0 18.531-5.5469 6.2812-5.5469 6.2812-16.234 0-10.797-6.2812-16.312-6.2656-5.5156-18.531-5.5156h-12.406v-29.297h-9.8594z"/>
</defs>
<g transform="translate(266.92 417.45) rotate(-85.286) scale(.08 -.08)">
<use xlink:href="#y"/>
</g>
</g>
<path d="m315.4 359.79 0.87556 5.402q0.38398 2.3691 2.7531 1.9851l7.6428-1.2387q2.3691-0.38398 1.9851-2.7531l-0.87556-5.402q-0.38398-2.3691-2.7531-1.9851l-7.6428 1.2387q-2.3691 0.38398-1.9851 2.7531z" clip-path="url(#a)" fill="#fff" stroke="#fff"/>
<g clip-path="url(#a)">
<g transform="translate(319.42 359.14) rotate(80.794) scale(.08 -.08)">
<use xlink:href="#q"/>
</g>
</g>
<path d="m457.13 205.19 5.2272 1.6201q2.2924 0.71049 3.0029-1.5819l2.2921-7.3954q0.71049-2.2924-1.5819-3.0029l-5.2272-1.6201q-2.2924-0.71049-3.0029 1.5819l-2.2921 7.3954q-0.71049 2.2924 1.5819 3.0029z" clip-path="url(#a)" fill="#fff" stroke="#fff"/>
<g clip-path="url(#a)">
<g transform="translate(458.33 201.31) rotate(17.22) scale(.08 -.08)">
<use xlink:href="#q"/>
</g>
</g>
<path d="m208.85 419.52 1.7337-5.5924q0.71065-2.2924-1.5817-3.003l-7.3953-2.2926q-2.2924-0.71065-3.003 1.5817l-1.7337 5.5924q-0.71065 2.2924 1.5817 3.003l7.3953 2.2926q2.2924 0.71065 3.003-1.5817z" clip-path="url(#a)" fill="#fff" stroke="#fff"/>
<g clip-path="url(#a)">
<defs>
<path id="s" d="m8.6875 72.906h9.9219v-44.297q0-11.719 4.2344-16.875 4.25-5.1406 13.781-5.1406 9.4688 0 13.719 5.1406 4.25 5.1562 4.25 16.875v44.297h9.9062v-45.516q0-14.25-7.0625-21.531-7.0469-7.2812-20.812-7.2812-13.828 0-20.891 7.2812-7.0469 7.2812-7.0469 21.531z"/>
</defs>
<g transform="translate(204.96 418.31) rotate(-72.776) scale(.08 -.08)">
<use xlink:href="#s"/>
</g>
</g>
<path d="m376.34 414.22 1.9708 5.5134q0.80783 2.26 3.0678 1.4521l7.2907-2.6061q2.26-0.80783 1.4521-3.0678l-1.9708-5.5134q-0.80783-2.26-3.0678-1.4521l-7.2907 2.6061q-2.26 0.80783-1.4521 3.0678z" clip-path="url(#a)" fill="#fff" stroke="#fff"/>
<g clip-path="url(#a)">
<g transform="translate(380.16 412.85) rotate(70.33) scale(.08 -.08)">
<use xlink:href="#s"/>
</g>
</g>
<path d="m84.698 634.05 0.77137-5.505q0.33304-2.3768-2.0437-2.7098l-7.6676-1.0744q-2.3768-0.33304-2.7098 2.0437l-0.77137 5.505q-0.33304 2.3768 2.0437 2.7098l7.6676 1.0744q2.3768 0.33304 2.7098-2.0437z" clip-path="url(#a)" fill="#fff" stroke="#fff"/>
<g clip-path="url(#a)">
<defs>
<path id="x" d="m44.391 34.188q3.1719-1.0781 6.1719-4.5938t6.0312-9.6719l10.016-19.922h-10.609l-9.3125 18.703q-3.625 7.3281-7.0156 9.7188t-9.25 2.3906h-10.75v-30.812h-9.8594v72.906h22.266q12.5 0 18.656-5.2344 6.1562-5.2188 6.1562-15.766 0-6.8906-3.2031-11.438-3.2031-4.5312-9.2969-6.2812zm-24.719 30.609v-25.875h12.406q7.125 0 10.766 3.2969t3.6406 9.6875-3.6406 9.6406-10.766 3.25z"/>
</defs>
<g transform="translate(80.674 633.48) rotate(-82.024) scale(.08 -.08)">
<use xlink:href="#x"/>
</g>
</g>
<path d="m89.034 633.61 0.35508-5.575q0.15255-2.3951-2.2426-2.5477l-7.7268-0.49214q-2.3951-0.15255-2.5477 2.2426l-0.35508 5.575q-0.15255 2.3951 2.2426 2.5477l7.7268 0.49214q2.3951 0.15255 2.5477-2.2426z" clip-path="url(#a)" fill="#fff" stroke="#fff"/>
<g clip-path="url(#a)">
<defs>
<path id="n" d="m64.406 67.281v-10.391q-4.9844 4.6406-10.625 6.9219-5.6406 2.2969-11.984 2.2969-12.5 0-19.141-7.6406t-6.6406-22.094q0-14.406 6.6406-22.047t19.141-7.6406q6.3438 0 11.984 2.2969t10.625 6.9375v-10.312q-5.1719-3.5156-10.969-5.2812-5.7812-1.75-12.219-1.75-16.562 0-26.094 10.125-9.5156 10.141-9.5156 27.672 0 17.578 9.5156 27.703 9.5312 10.141 26.094 10.141 6.5312 0 12.312-1.7344 5.7969-1.7344 10.875-5.2031z"/>
</defs>
<g transform="translate(84.978 633.35) rotate(-86.356) scale(.08 -.08)">
<use xlink:href="#n"/>
</g>
</g>
<path d="m82.019 627.87 0.21332 5.5822q0.09165 2.3982 2.4899 2.3066l7.7369-0.29566q2.3982-0.09165 2.3066-2.4899l-0.21332-5.5822q-0.09165-2.3982-2.4899-2.3066l-7.7369 0.29566q-2.3982 0.091649-2.3066 2.4899z" clip-path="url(#a)" fill="#fff" stroke="#fff"/>
<g clip-path="url(#a)">
<g transform="translate(86.08 627.72) rotate(87.812) scale(.08 -.08)">
<use xlink:href="#n"/>
</g>
</g>
<path d="m88.549 628.69 0.91265 5.5112q0.3921 2.3678 2.7599 1.9757l7.6385-1.2649q2.3678-0.3921 1.9757-2.7599l-0.91265-5.5112q-0.3921-2.3678-2.7599-1.9757l-7.6385 1.2649q-2.3678 0.3921-1.9757 2.7599z" clip-path="url(#a)" fill="#fff" stroke="#fff"/>
<g clip-path="url(#a)">
<g transform="translate(92.558 628.03) rotate(80.597) scale(.08 -.08)">
<use xlink:href="#n"/>
</g>
</g>
<path d="m156.27 634.46 1.1601-5.4645q0.49842-2.3477-1.8492-2.8461l-7.5737-1.6079q-2.3477-0.49842-2.8461 1.8492l-1.1601 5.4645q-0.49842 2.3477 1.8492 2.8461l7.5737 1.6079q2.3477 0.49842 2.8461-1.8492z" clip-path="url(#a)" fill="#fff" stroke="#fff"/>
<g clip-path="url(#a)">
<g transform="translate(152.3 633.61) rotate(-78.014) scale(.08 -.08)">
<use xlink:href="#n"/>
</g>
</g>
<path d="m167.85 633.47 0.050824-5.9848q0.020381-2.3999-2.3795-2.4203l-7.7422-0.065748q-2.3999-0.020381-2.4203 2.3795l-0.050824 5.9848q-0.02038 2.3999 2.3795 2.4203l7.7422 0.065749q2.3999 0.02038 2.4203-2.3795z" clip-path="url(#a)" fill="#fff" stroke="#fff"/>
<g clip-path="url(#a)">
<defs>
<path id="al" d="m9.8125 72.906h13.281l32.328-60.984v60.984h9.5625v-72.906h-13.281l-32.312 60.984v-60.984h-9.5781z"/>
</defs>
<g transform="translate(163.78 633.43) rotate(-89.513) scale(.08 -.08)">
<use xlink:href="#al"/>
</g>
</g>
<path d="m167.11 629.05 1.2044 5.4549q0.51745 2.3436 2.861 1.8261l7.5604-1.6693q2.3436-0.51745 1.8261-2.861l-1.2044-5.4549q-0.51745-2.3436-2.861-1.8261l-7.5604 1.6693q-2.3436 0.51745-1.8261 2.861z" clip-path="url(#a)" fill="#fff" stroke="#fff"/>
<g clip-path="url(#a)">
<g transform="translate(171.08 628.17) rotate(77.549) scale(.08 -.08)">
<use xlink:href="#n"/>
</g>
</g>
<path d="m206.55 719.54v33.808q0 2.4 2.4 2.4h7.7425q2.4 0 2.4-2.4v-33.808q0-2.4-2.4-2.4h-7.7425q-2.4 0-2.4 2.4z" clip-path="url(#a)" fill="#fff" stroke="#fff"/>
<g clip-path="url(#a)">
<defs>
<path id="f" d="m56.203 29.594v-4.3906h-41.312q0.59375-9.2812 5.5938-14.141t13.938-4.8594q5.1719 0 10.031 1.2656t9.6562 3.8125v-8.5q-4.8438-2.0469-9.9219-3.125t-10.297-1.0781q-13.094 0-20.734 7.6094-7.6406 7.625-7.6406 20.625 0 13.422 7.25 21.297 7.25 7.8906 19.562 7.8906 11.031 0 17.453-7.1094 6.4219-7.0938 6.4219-19.297zm-8.9844 2.6406q-0.09375 7.3594-4.125 11.75-4.0312 4.4062-10.672 4.4062-7.5156 0-12.031-4.25t-5.2031-11.969z"/>
<path id="g" d="m41.109 46.297q-1.5156 0.875-3.2969 1.2812-1.7812 0.42188-3.9219 0.42188-7.625 0-11.703-4.9531t-4.0781-14.234v-28.812h-9.0312v54.688h9.0312v-8.5q2.8438 4.9844 7.375 7.3906 4.5469 2.4219 11.047 2.4219 0.92188 0 2.0469-0.125 1.125-0.10938 2.4844-0.35938z"/>
<path id="k" d="m52 44.188q3.375 6.0625 8.0625 8.9375t11.031 2.875q8.5469 0 13.188-5.9844 4.6406-5.9688 4.6406-17v-33.016h-9.0312v32.719q0 7.8594-2.7969 11.656-2.7812 3.8125-8.4844 3.8125-6.9844 0-11.047-4.6406-4.0469-4.625-4.0469-12.641v-30.906h-9.0312v32.719q0 7.9062-2.7812 11.688t-8.5938 3.7812q-6.8906 0-10.953-4.6562-4.0469-4.6562-4.0469-12.625v-30.906h-9.0312v54.688h9.0312v-8.5q3.0781 5.0312 7.375 7.4219t10.203 2.3906q5.9688 0 10.141-3.0312 4.1719-3.0156 6.1719-8.7812z"/>
<path id="h" d="m9.4219 54.688h8.9844v-54.688h-8.9844zm0 21.297h8.9844v-11.391h-8.9844z"/>
<path id="e" d="m54.891 33.016v-33.016h-8.9844v32.719q0 7.7656-3.0312 11.609-3.0312 3.8594-9.0781 3.8594-7.2812 0-11.484-4.6406-4.2031-4.625-4.2031-12.641v-30.906h-9.0312v54.688h9.0312v-8.5q3.2344 4.9375 7.5938 7.375 4.375 2.4375 10.094 2.4375 9.4219 0 14.25-5.8281 4.8438-5.8281 4.8438-17.156z"/>
<path id="d" d="m34.281 27.484q-10.891 0-15.094-2.4844t-4.2031-8.5q0-4.7812 3.1562-7.5938 3.1562-2.7969 8.5625-2.7969 7.4844 0 12 5.2969t4.5156 14.078v2zm17.922 3.7188v-31.203h-8.9844v8.2969q-3.0781-4.9688-7.6719-7.3438t-11.234-2.375q-8.3906 0-13.359 4.7188-4.9531 4.7188-4.9531 12.625 0 9.2188 6.1719 13.906 6.1875 4.6875 18.438 4.6875h12.609v0.89062q0 6.2031-4.0781 9.5938t-11.453 3.3906q-4.6875 0-9.1406-1.125-4.4375-1.125-8.5312-3.375v8.3125q4.9219 1.9062 9.5625 2.8438 4.6406 0.95312 9.0312 0.95312 11.875 0 17.734-6.1562 5.8594-6.1406 5.8594-18.641z"/>
<path id="j" d="m9.4219 75.984h8.9844v-75.984h-8.9844z"/>
</defs>
<g transform="translate(210.61 719.54) rotate(90) scale(.08 -.08)">
<use xlink:href="#l"/>
<use x="44.083984" xlink:href="#f"/>
<use x="105.607422" xlink:href="#g"/>
<use x="144.970703" xlink:href="#k"/>
<use x="242.382812" xlink:href="#h"/>
<use x="270.166016" xlink:href="#e"/>
<use x="333.544922" xlink:href="#d"/>
<use x="394.824219" xlink:href="#j"/>
</g>
</g>
<path d="m236.47 719.54v33.808q0 2.4 2.4 2.4h7.7425q2.4 0 2.4-2.4v-33.808q0-2.4-2.4-2.4h-7.7425q-2.4 0-2.4 2.4z" clip-path="url(#a)" fill="#fff" stroke="#fff"/>
<g clip-path="url(#a)">
<g transform="translate(240.53 719.54) rotate(90) scale(.08 -.08)">
<use xlink:href="#l"/>
<use x="44.083984" xlink:href="#f"/>
<use x="105.607422" xlink:href="#g"/>
<use x="144.970703" xlink:href="#k"/>
<use x="242.382812" xlink:href="#h"/>
<use x="270.166016" xlink:href="#e"/>
<use x="333.544922" xlink:href="#d"/>
<use x="394.824219" xlink:href="#j"/>
</g>
</g>
<path d="m319.47 636.44 3.3755-4.4165q1.4574-1.9068-0.44944-3.3642l-6.1515-4.7016q-1.9068-1.4574-3.3642 0.44944l-3.3755 4.4165q-1.4574 1.9068 0.44944 3.3642l6.1515 4.7016q1.9068 1.4574 3.3642-0.44944z" clip-path="url(#a)" fill="#fff" stroke="#fff"/>
<g clip-path="url(#a)">
<g transform="translate(316.24 633.97) rotate(-52.609) scale(.08 -.08)">
<use xlink:href="#x"/>
</g>
</g>
<path d="m348.76 634.68 1.3791-5.4133q0.59252-2.3257-1.7332-2.9182l-7.5028-1.9115q-2.3257-0.59251-2.9182 1.7332l-1.3791 5.4133q-0.59251 2.3257 1.7332 2.9182l7.5028 1.9115q2.3257 0.59251 2.9182-1.7332z" clip-path="url(#a)" fill="#fff" stroke="#fff"/>
<g clip-path="url(#a)">
<g transform="translate(344.82 633.67) rotate(-75.707) scale(.08 -.08)">
<use xlink:href="#n"/>
</g>
</g>
<path d="m388.32 631.79 3.2441 4.5477q1.3938 1.9538 3.3476 0.56007l6.3031-4.4963q1.9538-1.3938 0.56007-3.3476l-3.2441-4.5477q-1.3938-1.9538-3.3476-0.56007l-6.3031 4.4963q-1.9538 1.3938-0.56007 3.3476z" clip-path="url(#a)" fill="#fff" stroke="#fff"/>
<g clip-path="url(#a)">
<g transform="translate(391.63 629.43) rotate(54.498) scale(.08 -.08)">
<use xlink:href="#n"/>
</g>
</g>
<path d="m366.44 629.46 1.7118 5.5992q0.70167 2.2951 2.9968 1.5935l7.4042-2.2636q2.2951-0.70167 1.5935-2.9968l-1.7118-5.5992q-0.70167-2.2951-2.9968-1.5935l-7.4042 2.2636q-2.2951 0.70167-1.5935 2.9968z" clip-path="url(#a)" fill="#fff" stroke="#fff"/>
<g clip-path="url(#a)">
<g transform="translate(370.32 628.27) rotate(73.001) scale(.08 -.08)">
<use xlink:href="#s"/>
</g>
</g>
<path d="m587.62 473.17 1.3525-5.3917q0.58395-2.3279-1.7439-2.9118l-7.5098-1.8839q-2.3279-0.58395-2.9118 1.7439l-1.3525 5.3917q-0.58395 2.3279 1.7439 2.9118l7.5098 1.8839q2.3279 0.58395 2.9118-1.7439z" clip-path="url(#a)" fill="#fff" stroke="#fff"/>
<g clip-path="url(#a)">
<g transform="translate(583.68 472.18) rotate(-75.918) scale(.08 -.08)">
<use xlink:href="#x"/>
</g>
</g>
<path d="m627.49 365.52 0.74253-5.5367q0.31901-2.3787-2.0597-2.6977l-7.6738-1.0291q-2.3787-0.31901-2.6977 2.0597l-0.74253 5.5367q-0.31901 2.3787 2.0597 2.6977l7.6738 1.0291q2.3787 0.31901 2.6977-2.0597z" clip-path="url(#a)" fill="#fff" stroke="#fff"/>
<g clip-path="url(#a)">
<g transform="translate(623.46 364.98) rotate(-82.362) scale(.08 -.08)">
<use xlink:href="#n"/>
</g>
</g>
<path d="m698.59 311.43 3.9673 3.1327q1.8836 1.4873 3.3709-0.39622l4.7982-6.0765q1.4873-1.8836-0.39622-3.3709l-3.9673-3.1327q-1.8836-1.4873-3.3709 0.39622l-4.7982 6.0765q-1.4873 1.8836 0.39622 3.3709z" clip-path="url(#a)" fill="#fff" stroke="#fff"/>
<g clip-path="url(#a)">
<defs>
<path id="ag" d="m9.8125 72.906h46.094v-8.3125h-36.234v-21.578h34.719v-8.2969h-34.719v-26.422h37.109v-8.2969h-46.969z"/>
</defs>
<g transform="translate(701.11 308.24) rotate(38.296) scale(.08 -.08)">
<use xlink:href="#ag"/>
</g>
</g>
<path d="m522.04 719.54v33.808q0 2.4 2.4 2.4h7.7425q2.4 0 2.4-2.4v-33.808q0-2.4-2.4-2.4h-7.7425q-2.4 0-2.4 2.4z" clip-path="url(#a)" fill="#fff" stroke="#fff"/>
<g clip-path="url(#a)">
<g transform="translate(526.11 719.54) rotate(90) scale(.08 -.08)">
<use xlink:href="#l"/>
<use x="44.083984" xlink:href="#f"/>
<use x="105.607422" xlink:href="#g"/>
<use x="144.970703" xlink:href="#k"/>
<use x="242.382812" xlink:href="#h"/>
<use x="270.166016" xlink:href="#e"/>
<use x="333.544922" xlink:href="#d"/>
<use x="394.824219" xlink:href="#j"/>
</g>
</g>
<path d="m600.92 520.98v4.8238q0 2.4 2.4 2.4h7.7425q2.4 0 2.4-2.4v-4.8238q0-2.4-2.4-2.4h-7.7425q-2.4 0-2.4 2.4z" clip-path="url(#a)" fill="#fff" stroke="#fff"/>
<g clip-path="url(#a)">
<g transform="translate(604.98 520.98) rotate(90) scale(.08 -.08)">
<use xlink:href="#y"/>
</g>
</g>
<path d="m737.65 526.8 1.182-4.6767q0.58807-2.3268-1.7388-2.9149l-7.5065-1.8971q-2.3268-0.58807-2.9149 1.7388l-1.182 4.6767q-0.58807 2.3268 1.7388 2.9149l7.5065 1.8971q2.3268 0.58807 2.9149-1.7388z" clip-path="url(#a)" fill="#fff" stroke="#fff"/>
<g clip-path="url(#a)">
<g transform="translate(733.71 525.8) rotate(-75.816) scale(.08 -.08)">
<use xlink:href="#y"/>
</g>
</g>
<path d="m768.13 526.42 0.41036-6.1463q0.15988-2.3947-2.2348-2.5546l-7.7253-0.51579q-2.3947-0.15988-2.5546 2.2348l-0.41036 6.1463q-0.15988 2.3947 2.2348 2.5546l7.7253 0.51579q2.3947 0.15988 2.5546-2.2348z" clip-path="url(#a)" fill="#fff" stroke="#fff"/>
<g clip-path="url(#a)">
<defs>
<path id="av" d="m19.672 64.797v-56.688h11.922q15.094 0 22.094 6.8281 7 6.8438 7 21.594 0 14.641-7 21.453t-22.094 6.8125zm-9.8594 8.1094h20.266q21.188 0 31.094-8.8125 9.9219-8.8125 9.9219-27.562 0-18.859-9.9688-27.703-9.9531-8.8281-31.047-8.8281h-20.266z"/>
</defs>
<g transform="translate(764.07 526.15) rotate(-86.18) scale(.08 -.08)">
<use xlink:href="#av"/>
</g>
</g>
<path d="m888.38 420.5 4.9972 2.2307q2.1916 0.97827 3.1698-1.2133l3.1559-7.0701q0.97827-2.1916-1.2133-3.1698l-4.9972-2.2307q-2.1916-0.97827-3.1698 1.2133l-3.1559 7.0701q-0.97827 2.1916 1.2133 3.1698z" clip-path="url(#a)" fill="#fff" stroke="#fff"/>
<g clip-path="url(#a)">
<g transform="translate(890.04 416.79) rotate(24.055) scale(.08 -.08)">
<use xlink:href="#q"/>
</g>
</g>
<path d="m708.28 527.92 2.1628-5.027q0.94852-2.2046-1.2561-3.1531l-7.1122-3.06q-2.2046-0.94853-3.1531 1.2561l-2.1628 5.027q-0.94852 2.2046 1.2561 3.1531l7.1122 3.06q2.2046 0.94852 3.1531-1.2561z" clip-path="url(#a)" fill="#fff" stroke="#fff"/>
<g clip-path="url(#a)">
<g transform="translate(704.55 526.31) rotate(-66.72) scale(.08 -.08)">
<use xlink:href="#q"/>
</g>
</g>
<path d="m685.23 719.54v33.808q0 2.4 2.4 2.4h7.7425q2.4 0 2.4-2.4v-33.808q0-2.4-2.4-2.4h-7.7425q-2.4 0-2.4 2.4z" clip-path="url(#a)" fill="#fff" stroke="#fff"/>
<g clip-path="url(#a)">
<g transform="translate(689.29 719.54) rotate(90) scale(.08 -.08)">
<use xlink:href="#l"/>
<use x="44.083984" xlink:href="#f"/>
<use x="105.607422" xlink:href="#g"/>
<use x="144.970703" xlink:href="#k"/>
<use x="242.382812" xlink:href="#h"/>
<use x="270.166016" xlink:href="#e"/>
<use x="333.544922" xlink:href="#d"/>
<use x="394.824219" xlink:href="#j"/>
</g>
</g>
<path d="m745.06 719.54v33.808q0 2.4 2.4 2.4h7.7425q2.4 0 2.4-2.4v-33.808q0-2.4-2.4-2.4h-7.7425q-2.4 0-2.4 2.4z" clip-path="url(#a)" fill="#fff" stroke="#fff"/>
<g clip-path="url(#a)">
<g transform="translate(749.13 719.54) rotate(90) scale(.08 -.08)">
<use xlink:href="#l"/>
<use x="44.083984" xlink:href="#f"/>
<use x="105.607422" xlink:href="#g"/>
<use x="144.970703" xlink:href="#k"/>
<use x="242.382812" xlink:href="#h"/>
<use x="270.166016" xlink:href="#e"/>
<use x="333.544922" xlink:href="#d"/>
<use x="394.824219" xlink:href="#j"/>
</g>
</g>
<path d="m916.65 583.08 3.7965-4.0604q1.6391-1.7531-0.11393-3.3922l-5.6555-5.2879q-1.7531-1.6391-3.3922 0.11393l-3.7965 4.0604q-1.6391 1.7531 0.11393 3.3922l5.6555 5.2879q1.7531 1.6391 3.3922-0.11393z" clip-path="url(#a)" fill="#fff" stroke="#fff"/>
<g clip-path="url(#a)">
<g transform="translate(913.68 580.3) rotate(-46.924) scale(.08 -.08)">
<use xlink:href="#x"/>
</g>
</g>
<path d="m966.44 529.52 3.4624-3.683q1.6439-1.7486-0.10475-3.3925l-5.6411-5.3032q-1.7486-1.6439-3.3925 0.10475l-3.4624 3.683q-1.6439 1.7486 0.10475 3.3925l5.6411 5.3032q1.7486 1.6439 3.3925-0.10475z" clip-path="url(#a)" fill="#fff" stroke="#fff"/>
<g clip-path="url(#a)">
<g transform="translate(963.48 526.74) rotate(-46.769) scale(.08 -.08)">
<use xlink:href="#ag"/>
</g>
</g>
<path d="m1157.9 528.34 5.2542 1.8971q2.2574 0.81505 3.0724-1.4423l2.6294-7.2824q0.81505-2.2574-1.4423-3.0724l-5.2542-1.8971q-2.2574-0.81505-3.0724 1.4423l-2.6294 7.2824q-0.81505 2.2574 1.4423 3.0724z" clip-path="url(#a)" fill="#fff" stroke="#fff"/>
<g clip-path="url(#a)">
<g transform="translate(1159.3 524.52) rotate(19.853) scale(.08 -.08)">
<use xlink:href="#n"/>
</g>
</g>
<path d="m1009.6 573.95 0.10459 5.8541q0.042872 2.3996 2.4425 2.3567l7.7413-0.13831q2.3996-0.042872 2.3567-2.4425l-0.10459-5.8541q-0.042873-2.3996-2.4425-2.3567l-7.7413 0.13831q-2.3996 0.042872-2.3567 2.4425z" clip-path="url(#a)" fill="#fff" stroke="#fff"/>
<g clip-path="url(#a)">
<g transform="translate(1013.7 573.88) rotate(88.976) scale(.08 -.08)">
<use xlink:href="#s"/>
</g>
</g>
<path d="m807.62 719.54v33.808q0 2.4 2.4 2.4h7.7425q2.4 0 2.4-2.4v-33.808q0-2.4-2.4-2.4h-7.7425q-2.4 0-2.4 2.4z" clip-path="url(#a)" fill="#fff" stroke="#fff"/>
<g clip-path="url(#a)">
<g transform="translate(811.68 719.54) rotate(90) scale(.08 -.08)">
<use xlink:href="#l"/>
<use x="44.083984" xlink:href="#f"/>
<use x="105.607422" xlink:href="#g"/>
<use x="144.970703" xlink:href="#k"/>
<use x="242.382812" xlink:href="#h"/>
<use x="270.166016" xlink:href="#e"/>
<use x="333.544922" xlink:href="#d"/>
<use x="394.824219" xlink:href="#j"/>
</g>
</g>
<path d="m901.31 634.93 1.6606-5.2145q0.72826-2.2868-1.5586-3.0151l-7.3774-2.3494q-2.2868-0.72826-3.0151 1.5586l-1.6606 5.2145q-0.72826 2.2868 1.5586 3.0151l7.3774 2.3494q2.2868 0.72826 3.0151-1.5586z" clip-path="url(#a)" fill="#fff" stroke="#fff"/>
<g clip-path="url(#a)">
<g transform="translate(897.44 633.7) rotate(-72.335) scale(.08 -.08)">
<use xlink:href="#q"/>
</g>
</g>
<path d="m922.09 626.18 3.9421 12.379q0.72826 2.2868 3.0151 1.5586l7.6228-2.4275q2.2868-0.72826 1.5586-3.0151l-3.9421-12.379q-0.72826-2.2868-3.0151-1.5586l-7.6228 2.4275q-2.2868 0.72826-1.5586 3.0151z" clip-path="url(#a)" fill="#fff" stroke="#fff"/>
<g clip-path="url(#a)">
<defs>
<path id="ax" d="m21 76.422v-100h-8.2969v100z"/>
</defs>
<g transform="translate(926.18 624.88) rotate(72.335) scale(.08 -.08)">
<use xlink:href="#q"/>
<use x="68.408203" xlink:href="#ax"/>
<use x="102.099609" xlink:href="#y"/>
</g>
</g>
<path d="m1221.1 637.25 4.8177-2.8277q2.0698-1.2149 0.85496-3.2847l-3.9192-6.6773q-1.2149-2.0698-3.2847-0.85496l-4.8177 2.8277q-2.0698 1.2149-0.85496 3.2847l3.9192 6.6773q1.2149 2.0698 3.2847 0.85496z" clip-path="url(#a)" fill="#fff" stroke="#fff"/>
<g clip-path="url(#a)">
<g transform="translate(1219 633.74) rotate(-30.41) scale(.08 -.08)">
<use xlink:href="#n"/>
</g>
</g>
<path d="m1282.6 636.24 3.1102-5.1134q1.2472-2.0505-0.80326-3.2977l-6.6149-4.0236q-2.0505-1.2472-3.2977 0.80326l-3.1102 5.1134q-1.2472 2.0505 0.80326 3.2977l6.6149 4.0236q2.0505 1.2472 3.2977-0.80326z" clip-path="url(#a)" fill="#fff" stroke="#fff"/>
<g clip-path="url(#a)">
<g transform="translate(1279.1 634.13) rotate(-58.69) scale(.08 -.08)">
<use xlink:href="#al"/>
</g>
</g>
<path d="m1333.8 631 2.6956 4.8928q1.1581 2.1021 3.2602 0.94398l6.7814-3.7361q2.1021-1.1581 0.94398-3.2602l-2.6956-4.8928q-1.1581-2.1021-3.2602-0.94398l-6.7814 3.7361q-2.1021 1.1581-0.94398 3.2602z" clip-path="url(#a)" fill="#fff" stroke="#fff"/>
<g clip-path="url(#a)">
<g transform="translate(1337.4 629.04) rotate(61.148) scale(.08 -.08)">
<use xlink:href="#n"/>
</g>
</g>
<path d="m1399.6 634.43 5.0914 2.8911q2.087 1.1851 3.2721-0.90193l3.8231-6.7328q1.1851-2.087-0.90193-3.2721l-5.0914-2.8911q-2.087-1.1851-3.2721 0.90193l-3.8231 6.7328q-1.1851 2.087 0.90193 3.2721z" clip-path="url(#a)" fill="#fff" stroke="#fff"/>
<g clip-path="url(#a)">
<g transform="translate(1401.6 630.9) rotate(29.589) scale(.08 -.08)">
<use xlink:href="#s"/>
</g>
</g>
<path d="m1110.5 754.47 11.497-31.792q0.81619-2.257-1.4408-3.0731l-7.281-2.6331q-2.257-0.81619-3.0731 1.4408l-11.497 31.792q-0.81619 2.257 1.4408 3.0731l7.281 2.6331q2.257 0.81619 3.0731-1.4408z" clip-path="url(#a)" fill="#fff" stroke="#fff"/>
<g clip-path="url(#a)">
<g transform="translate(1106.7 753.09) rotate(-70.118) scale(.08 -.08)">
<use xlink:href="#l"/>
<use x="44.083984" xlink:href="#f"/>
<use x="105.607422" xlink:href="#g"/>
<use x="144.970703" xlink:href="#k"/>
<use x="242.382812" xlink:href="#h"/>
<use x="270.166016" xlink:href="#e"/>
<use x="333.544922" xlink:href="#d"/>
<use x="394.824219" xlink:href="#j"/>
</g>
</g>
<path d="m1136.8 722.68 11.497 31.792q0.8162 2.257 3.0731 1.4408l7.281-2.6331q2.257-0.81619 1.4408-3.0731l-11.497-31.792q-0.81619-2.257-3.0731-1.4408l-7.281 2.6331q-2.257 0.81619-1.4408 3.0731z" clip-path="url(#a)" fill="#fff" stroke="#fff"/>
<g clip-path="url(#a)">
<g transform="translate(1140.6 721.3) rotate(70.118) scale(.08 -.08)">
<use xlink:href="#l"/>
<use x="44.083984" xlink:href="#f"/>
<use x="105.607422" xlink:href="#g"/>
<use x="144.970703" xlink:href="#k"/>
<use x="242.382812" xlink:href="#h"/>
<use x="270.166016" xlink:href="#e"/>
<use x="333.544922" xlink:href="#d"/>
<use x="394.824219" xlink:href="#j"/>
</g>
</g>
<path d="m1240.1 719.54v33.808q0 2.4 2.4 2.4h7.7425q2.4 0 2.4-2.4v-33.808q0-2.4-2.4-2.4h-7.7425q-2.4 0-2.4 2.4z" clip-path="url(#a)" fill="#fff" stroke="#fff"/>
<g clip-path="url(#a)">
<g transform="translate(1244.1 719.54) rotate(90) scale(.08 -.08)">
<use xlink:href="#l"/>
<use x="44.083984" xlink:href="#f"/>
<use x="105.607422" xlink:href="#g"/>
<use x="144.970703" xlink:href="#k"/>
<use x="242.382812" xlink:href="#h"/>
<use x="270.166016" xlink:href="#e"/>
<use x="333.544922" xlink:href="#d"/>
<use x="394.824219" xlink:href="#j"/>
</g>
</g>
<path d="m1348.5 754.47 12.566-31.385q0.89207-2.228-1.336-3.1201l-7.1878-2.8779q-2.228-0.89207-3.1201 1.336l-12.566 31.385q-0.89207 2.228 1.336 3.1201l7.1878 2.8779q2.228 0.89207 3.1201-1.336z" clip-path="url(#a)" fill="#fff" stroke="#fff"/>
<g clip-path="url(#a)">
<g transform="translate(1344.8 752.96) rotate(-68.18) scale(.08 -.08)">
<use xlink:href="#l"/>
<use x="44.083984" xlink:href="#f"/>
<use x="105.607422" xlink:href="#g"/>
<use x="144.970703" xlink:href="#k"/>
<use x="242.382812" xlink:href="#h"/>
<use x="270.166016" xlink:href="#e"/>
<use x="333.544922" xlink:href="#d"/>
<use x="394.824219" xlink:href="#j"/>
</g>
</g>
<path d="m1379.1 723.08 12.566 31.385q0.89207 2.228 3.1201 1.336l7.1878-2.8779q2.228-0.89207 1.336-3.1201l-12.566-31.385q-0.89207-2.228-3.1201-1.336l-7.1878 2.8779q-2.228 0.89207-1.336 3.1201z" clip-path="url(#a)" fill="#fff" stroke="#fff"/>
<g clip-path="url(#a)">
<g transform="translate(1382.8 721.57) rotate(68.18) scale(.08 -.08)">
<use xlink:href="#l"/>
<use x="44.083984" xlink:href="#f"/>
<use x="105.607422" xlink:href="#g"/>
<use x="144.970703" xlink:href="#k"/>
<use x="242.382812" xlink:href="#h"/>
<use x="270.166016" xlink:href="#e"/>
<use x="333.544922" xlink:href="#d"/>
<use x="394.824219" xlink:href="#j"/>
</g>
</g>
<path d="m872.89 719.54v33.808q0 2.4 2.4 2.4h7.7425q2.4 0 2.4-2.4v-33.808q0-2.4-2.4-2.4h-7.7425q-2.4 0-2.4 2.4z" clip-path="url(#a)" fill="#fff" stroke="#fff"/>
<g clip-path="url(#a)">
<g transform="translate(876.96 719.54) rotate(90) scale(.08 -.08)">
<use xlink:href="#l"/>
<use x="44.083984" xlink:href="#f"/>
<use x="105.607422" xlink:href="#g"/>
<use x="144.970703" xlink:href="#k"/>
<use x="242.382812" xlink:href="#h"/>
<use x="270.166016" xlink:href="#e"/>
<use x="333.544922" xlink:href="#d"/>
<use x="394.824219" xlink:href="#j"/>
</g>
</g>
<path d="m940.89 719.54v33.808q0 2.4 2.4 2.4h7.7425q2.4 0 2.4-2.4v-33.808q0-2.4-2.4-2.4h-7.7425q-2.4 0-2.4 2.4z" clip-path="url(#a)" fill="#fff" stroke="#fff"/>
<g clip-path="url(#a)">
<g transform="translate(944.95 719.54) rotate(90) scale(.08 -.08)">
<use xlink:href="#l"/>
<use x="44.083984" xlink:href="#f"/>
<use x="105.607422" xlink:href="#g"/>
<use x="144.970703" xlink:href="#k"/>
<use x="242.382812" xlink:href="#h"/>
<use x="270.166016" xlink:href="#e"/>
<use x="333.544922" xlink:href="#d"/>
<use x="394.824219" xlink:href="#j"/>
</g>
</g>
<path d="m599.04 634.42 1.248-4.8985q0.59251-2.3257-1.7332-2.9182l-7.5028-1.9115q-2.3257-0.59251-2.9182 1.7332l-1.248 4.8985q-0.59251 2.3257 1.7332 2.9182l7.5028 1.9115q2.3257 0.59251 2.9182-1.7332z" clip-path="url(#a)" fill="#fff" stroke="#fff"/>
<g clip-path="url(#a)">
<g transform="translate(595.1 633.42) rotate(-75.707) scale(.08 -.08)">
<use xlink:href="#ag"/>
</g>
</g>
<path d="m614.02 629.26 1.3791 5.4133q0.59251 2.3257 2.9182 1.7332l7.5028-1.9115q2.3257-0.59251 1.7332-2.9182l-1.3791-5.4133q-0.59251-2.3257-2.9182-1.7332l-7.5028 1.9115q-2.3257 0.59251-1.7332 2.9182z" clip-path="url(#a)" fill="#fff" stroke="#fff"/>
<g clip-path="url(#a)">
<g transform="translate(617.96 628.26) rotate(75.707) scale(.08 -.08)">
<use xlink:href="#n"/>
</g>
</g>
<path d="m573.72 719.54v33.808q0 2.4 2.4 2.4h7.7425q2.4 0 2.4-2.4v-33.808q0-2.4-2.4-2.4h-7.7425q-2.4 0-2.4 2.4z" clip-path="url(#a)" fill="#fff" stroke="#fff"/>
<g clip-path="url(#a)">
<g transform="translate(577.78 719.54) rotate(90) scale(.08 -.08)">
<use xlink:href="#l"/>
<use x="44.083984" xlink:href="#f"/>
<use x="105.607422" xlink:href="#g"/>
<use x="144.970703" xlink:href="#k"/>
<use x="242.382812" xlink:href="#h"/>
<use x="270.166016" xlink:href="#e"/>
<use x="333.544922" xlink:href="#d"/>
<use x="394.824219" xlink:href="#j"/>
</g>
</g>
<path d="m628.11 719.54v33.808q0 2.4 2.4 2.4h7.7425q2.4 0 2.4-2.4v-33.808q0-2.4-2.4-2.4h-7.7425q-2.4 0-2.4 2.4z" clip-path="url(#a)" fill="#fff" stroke="#fff"/>
<g clip-path="url(#a)">
<g transform="translate(632.18 719.54) rotate(90) scale(.08 -.08)">
<use xlink:href="#l"/>
<use x="44.083984" xlink:href="#f"/>
<use x="105.607422" xlink:href="#g"/>
<use x="144.970703" xlink:href="#k"/>
<use x="242.382812" xlink:href="#h"/>
<use x="270.166016" xlink:href="#e"/>
<use x="333.544922" xlink:href="#d"/>
<use x="394.824219" xlink:href="#j"/>
</g>
</g>
<path d="m269.11 719.54v33.808q0 2.4 2.4 2.4h7.7425q2.4 0 2.4-2.4v-33.808q0-2.4-2.4-2.4h-7.7425q-2.4 0-2.4 2.4z" clip-path="url(#a)" fill="#fff" stroke="#fff"/>
<g clip-path="url(#a)">
<g transform="translate(273.17 719.54) rotate(90) scale(.08 -.08)">
<use xlink:href="#l"/>
<use x="44.083984" xlink:href="#f"/>
<use x="105.607422" xlink:href="#g"/>
<use x="144.970703" xlink:href="#k"/>
<use x="242.382812" xlink:href="#h"/>
<use x="270.166016" xlink:href="#e"/>
<use x="333.544922" xlink:href="#d"/>
<use x="394.824219" xlink:href="#j"/>
</g>
</g>
<path d="m323.42 754.2 6.0155-33.268q0.42704-2.3617-1.9347-2.7887l-7.619-1.3776q-2.3617-0.42704-2.7887 1.9347l-6.0155 33.268q-0.42704 2.3617 1.9347 2.7887l7.619 1.3776q2.3617 0.42704 2.7887-1.9347z" clip-path="url(#a)" fill="#fff" stroke="#fff"/>
<g clip-path="url(#a)">
<g transform="translate(319.42 753.47) rotate(-79.751) scale(.08 -.08)">
<use xlink:href="#l"/>
<use x="44.083984" xlink:href="#f"/>
<use x="105.607422" xlink:href="#g"/>
<use x="144.970703" xlink:href="#k"/>
<use x="242.382812" xlink:href="#h"/>
<use x="270.166016" xlink:href="#e"/>
<use x="333.544922" xlink:href="#d"/>
<use x="394.824219" xlink:href="#j"/>
</g>
</g>
<path d="m330.11 720.93 6.0155 33.268q0.42704 2.3617 2.7887 1.9347l7.619-1.3776q2.3617-0.42704 1.9347-2.7887l-6.0155-33.268q-0.42704-2.3617-2.7887-1.9347l-7.619 1.3776q-2.3617 0.42704-1.9347 2.7887z" clip-path="url(#a)" fill="#fff" stroke="#fff"/>
<g clip-path="url(#a)">
<g transform="translate(334.11 720.2) rotate(79.751) scale(.08 -.08)">
<use xlink:href="#l"/>
<use x="44.083984" xlink:href="#f"/>
<use x="105.607422" xlink:href="#g"/>
<use x="144.970703" xlink:href="#k"/>
<use x="242.382812" xlink:href="#h"/>
<use x="270.166016" xlink:href="#e"/>
<use x="333.544922" xlink:href="#d"/>
<use x="394.824219" xlink:href="#j"/>
</g>
</g>
<path d="m426.85 719.54v33.808q0 2.4 2.4 2.4h7.7425q2.4 0 2.4-2.4v-33.808q0-2.4-2.4-2.4h-7.7425q-2.4 0-2.4 2.4z" clip-path="url(#a)" fill="#fff" stroke="#fff"/>
<g clip-path="url(#a)">
<g transform="translate(430.92 719.54) rotate(90) scale(.08 -.08)">
<use xlink:href="#l"/>
<use x="44.083984" xlink:href="#f"/>
<use x="105.607422" xlink:href="#g"/>
<use x="144.970703" xlink:href="#k"/>
<use x="242.382812" xlink:href="#h"/>
<use x="270.166016" xlink:href="#e"/>
<use x="333.544922" xlink:href="#d"/>
<use x="394.824219" xlink:href="#j"/>
</g>
</g>
<path d="m133.12 719.54v33.808q0 2.4 2.4 2.4h7.7425q2.4 0 2.4-2.4v-33.808q0-2.4-2.4-2.4h-7.7425q-2.4 0-2.4 2.4z" clip-path="url(#a)" fill="#fff" stroke="#fff"/>
<g clip-path="url(#a)">
<g transform="translate(137.18 719.54) rotate(90) scale(.08 -.08)">
<use xlink:href="#l"/>
<use x="44.083984" xlink:href="#f"/>
<use x="105.607422" xlink:href="#g"/>
<use x="144.970703" xlink:href="#k"/>
<use x="242.382812" xlink:href="#h"/>
<use x="270.166016" xlink:href="#e"/>
<use x="333.544922" xlink:href="#d"/>
<use x="394.824219" xlink:href="#j"/>
</g>
</g>
<path d="m154.88 719.54v33.808q0 2.4 2.4 2.4h7.7425q2.4 0 2.4-2.4v-33.808q0-2.4-2.4-2.4h-7.7425q-2.4 0-2.4 2.4z" clip-path="url(#a)" fill="#fff" stroke="#fff"/>
<g clip-path="url(#a)">
<g transform="translate(158.94 719.54) rotate(90) scale(.08 -.08)">
<use xlink:href="#l"/>
<use x="44.083984" xlink:href="#f"/>
<use x="105.607422" xlink:href="#g"/>
<use x="144.970703" xlink:href="#k"/>
<use x="242.382812" xlink:href="#h"/>
<use x="270.166016" xlink:href="#e"/>
<use x="333.544922" xlink:href="#d"/>
<use x="394.824219" xlink:href="#j"/>
</g>
</g>
<path d="m179.35 719.54v33.808q0 2.4 2.4 2.4h7.7425q2.4 0 2.4-2.4v-33.808q0-2.4-2.4-2.4h-7.7425q-2.4 0-2.4 2.4z" clip-path="url(#a)" fill="#fff" stroke="#fff"/>
<g clip-path="url(#a)">
<g transform="translate(183.42 719.54) rotate(90) scale(.08 -.08)">
<use xlink:href="#l"/>
<use x="44.083984" xlink:href="#f"/>
<use x="105.607422" xlink:href="#g"/>
<use x="144.970703" xlink:href="#k"/>
<use x="242.382812" xlink:href="#h"/>
<use x="270.166016" xlink:href="#e"/>
<use x="333.544922" xlink:href="#d"/>
<use x="394.824219" xlink:href="#j"/>
</g>
</g>
<path d="m65.123 719.54v33.808q0 2.4 2.4 2.4h7.7425q2.4 0 2.4-2.4v-33.808q0-2.4-2.4-2.4h-7.7425q-2.4 0-2.4 2.4z" clip-path="url(#a)" fill="#fff" stroke="#fff"/>
<g clip-path="url(#a)">
<g transform="translate(69.186 719.54) rotate(90) scale(.08 -.08)">
<use xlink:href="#l"/>
<use x="44.083984" xlink:href="#f"/>
<use x="105.607422" xlink:href="#g"/>
<use x="144.970703" xlink:href="#k"/>
<use x="242.382812" xlink:href="#h"/>
<use x="270.166016" xlink:href="#e"/>
<use x="333.544922" xlink:href="#d"/>
<use x="394.824219" xlink:href="#j"/>
</g>
</g>
<path d="m73.282 719.54v33.808q0 2.4 2.4 2.4h7.7425q2.4 0 2.4-2.4v-33.808q0-2.4-2.4-2.4h-7.7425q-2.4 0-2.4 2.4z" clip-path="url(#a)" fill="#fff" stroke="#fff"/>
<g clip-path="url(#a)">
<g transform="translate(77.346 719.54) rotate(90) scale(.08 -.08)">
<use xlink:href="#l"/>
<use x="44.083984" xlink:href="#f"/>
<use x="105.607422" xlink:href="#g"/>
<use x="144.970703" xlink:href="#k"/>
<use x="242.382812" xlink:href="#h"/>
<use x="270.166016" xlink:href="#e"/>
<use x="333.544922" xlink:href="#d"/>
<use x="394.824219" xlink:href="#j"/>
</g>
</g>
<path d="m84.161 719.54v33.808q0 2.4 2.4 2.4h7.7425q2.4 0 2.4-2.4v-33.808q0-2.4-2.4-2.4h-7.7425q-2.4 0-2.4 2.4z" clip-path="url(#a)" fill="#fff" stroke="#fff"/>
<g clip-path="url(#a)">
<g transform="translate(88.225 719.54) rotate(90) scale(.08 -.08)">
<use xlink:href="#l"/>
<use x="44.083984" xlink:href="#f"/>
<use x="105.607422" xlink:href="#g"/>
<use x="144.970703" xlink:href="#k"/>
<use x="242.382812" xlink:href="#h"/>
<use x="270.166016" xlink:href="#e"/>
<use x="333.544922" xlink:href="#d"/>
<use x="394.824219" xlink:href="#j"/>
</g>
</g>
<path d="m97.76 719.54v33.808q0 2.4 2.4 2.4h7.7425q2.4 0 2.4-2.4v-33.808q0-2.4-2.4-2.4h-7.7425q-2.4 0-2.4 2.4z" clip-path="url(#a)" fill="#fff" stroke="#fff"/>
<g clip-path="url(#a)">
<g transform="translate(101.82 719.54) rotate(90) scale(.08 -.08)">
<use xlink:href="#l"/>
<use x="44.083984" xlink:href="#f"/>
<use x="105.607422" xlink:href="#g"/>
<use x="144.970703" xlink:href="#k"/>
<use x="242.382812" xlink:href="#h"/>
<use x="270.166016" xlink:href="#e"/>
<use x="333.544922" xlink:href="#d"/>
<use x="394.824219" xlink:href="#j"/>
</g>
</g>
<path d="m114.08 719.54v33.808q0 2.4 2.4 2.4h7.7425q2.4 0 2.4-2.4v-33.808q0-2.4-2.4-2.4h-7.7425q-2.4 0-2.4 2.4z" clip-path="url(#a)" fill="#fff" stroke="#fff"/>
<g clip-path="url(#a)">
<g transform="translate(118.14 719.54) rotate(90) scale(.08 -.08)">
<use xlink:href="#l"/>
<use x="44.083984" xlink:href="#f"/>
<use x="105.607422" xlink:href="#g"/>
<use x="144.970703" xlink:href="#k"/>
<use x="242.382812" xlink:href="#h"/>
<use x="270.166016" xlink:href="#e"/>
<use x="333.544922" xlink:href="#d"/>
<use x="394.824219" xlink:href="#j"/>
</g>
</g>
<path d="m383.34 719.54v33.808q0 2.4 2.4 2.4h7.7425q2.4 0 2.4-2.4v-33.808q0-2.4-2.4-2.4h-7.7425q-2.4 0-2.4 2.4z" clip-path="url(#a)" fill="#fff" stroke="#fff"/>
<g clip-path="url(#a)">
<g transform="translate(387.4 719.54) rotate(90) scale(.08 -.08)">
<use xlink:href="#l"/>
<use x="44.083984" xlink:href="#f"/>
<use x="105.607422" xlink:href="#g"/>
<use x="144.970703" xlink:href="#k"/>
<use x="242.382812" xlink:href="#h"/>
<use x="270.166016" xlink:href="#e"/>
<use x="333.544922" xlink:href="#d"/>
<use x="394.824219" xlink:href="#j"/>
</g>
</g>
<path d="m473.09 719.54v33.808q0 2.4 2.4 2.4h7.7425q2.4 0 2.4-2.4v-33.808q0-2.4-2.4-2.4h-7.7425q-2.4 0-2.4 2.4z" clip-path="url(#a)" fill="#fff" stroke="#fff"/>
<g clip-path="url(#a)">
<g transform="translate(477.15 719.54) rotate(90) scale(.08 -.08)">
<use xlink:href="#l"/>
<use x="44.083984" xlink:href="#f"/>
<use x="105.607422" xlink:href="#g"/>
<use x="144.970703" xlink:href="#k"/>
<use x="242.382812" xlink:href="#h"/>
<use x="270.166016" xlink:href="#e"/>
<use x="333.544922" xlink:href="#d"/>
<use x="394.824219" xlink:href="#j"/>
</g>
</g>
<path d="m1011.6 719.54v33.808q0 2.4 2.4 2.4h7.7425q2.4 0 2.4-2.4v-33.808q0-2.4-2.4-2.4h-7.7425q-2.4 0-2.4 2.4z" clip-path="url(#a)" fill="#fff" stroke="#fff"/>
<g clip-path="url(#a)">
<g transform="translate(1015.7 719.54) rotate(90) scale(.08 -.08)">
<use xlink:href="#l"/>
<use x="44.083984" xlink:href="#f"/>
<use x="105.607422" xlink:href="#g"/>
<use x="144.970703" xlink:href="#k"/>
<use x="242.382812" xlink:href="#h"/>
<use x="270.166016" xlink:href="#e"/>
<use x="333.544922" xlink:href="#d"/>
<use x="394.824219" xlink:href="#j"/>
</g>
</g>
<path d="m1493 719.54v33.808q0 2.4 2.4 2.4h7.7425q2.4 0 2.4-2.4v-33.808q0-2.4-2.4-2.4h-7.7425q-2.4 0-2.4 2.4z" clip-path="url(#a)" fill="#fff" stroke="#fff"/>
<g clip-path="url(#a)">
<g transform="translate(1497.1 719.54) rotate(90) scale(.08 -.08)">
<use xlink:href="#l"/>
<use x="44.083984" xlink:href="#f"/>
<use x="105.607422" xlink:href="#g"/>
<use x="144.970703" xlink:href="#k"/>
<use x="242.382812" xlink:href="#h"/>
<use x="270.166016" xlink:href="#e"/>
<use x="333.544922" xlink:href="#d"/>
<use x="394.824219" xlink:href="#j"/>
</g>
</g>
<defs>
<path id="b" d="m0 8.6603c2.2967 0 4.4997-0.9125 6.1237-2.5365 1.624-1.624 2.5365-3.827 2.5365-6.1237s-0.9125-4.4997-2.5365-6.1237c-1.624-1.624-3.827-2.5365-6.1237-2.5365s-4.4997 0.9125-6.1237 2.5365c-1.624 1.624-2.5365 3.827-2.5365 6.1237s0.9125 4.4997 2.5365 6.1237c1.624 1.624 3.827 2.5365 6.1237 2.5365z"/>
</defs>
<g clip-path="url(#a)" fill="#ffffff" stroke="#ffffff">
<use x="71.393939" y="789.090909" xlink:href="#b"/>
<use x="79.553247" y="789.090909" xlink:href="#b"/>
<use x="90.432323" y="789.090909" xlink:href="#b"/>
<use x="104.031169" y="789.090909" xlink:href="#b"/>
<use x="120.349784" y="789.090909" xlink:href="#b"/>
<use x="139.388167" y="789.090909" xlink:href="#b"/>
<use x="161.14632" y="789.090909" xlink:href="#b"/>
<use x="185.624242" y="789.090909" xlink:href="#b"/>
<use x="212.821934" y="789.090909" xlink:href="#b"/>
<use x="242.739394" y="789.090909" xlink:href="#b"/>
<use x="275.376623" y="789.090909" xlink:href="#b"/>
<use x="310.733622" y="789.090909" xlink:href="#b"/>
<use x="348.81039" y="789.090909" xlink:href="#b"/>
<use x="389.606926" y="789.090909" xlink:href="#b"/>
<use x="433.123232" y="789.090909" xlink:href="#b"/>
<use x="479.359307" y="789.090909" xlink:href="#b"/>
<use x="528.315152" y="789.090909" xlink:href="#b"/>
<use x="579.990765" y="789.090909" xlink:href="#b"/>
<use x="634.386147" y="789.090909" xlink:href="#b"/>
<use x="691.501299" y="789.090909" xlink:href="#b"/>
<use x="751.336219" y="789.090909" xlink:href="#b"/>
<use x="813.890909" y="789.090909" xlink:href="#b"/>
<use x="879.165368" y="789.090909" xlink:href="#b"/>
<use x="947.159596" y="789.090909" xlink:href="#b"/>
<use x="1017.873593" y="789.090909" xlink:href="#b"/>
<use x="1091.307359" y="789.090909" xlink:href="#b"/>
<use x="1167.460895" y="789.090909" xlink:href="#b"/>
<use x="1246.334199" y="789.090909" xlink:href="#b"/>
<use x="1327.927273" y="789.090909" xlink:href="#b"/>
<use x="1412.240115" y="789.090909" xlink:href="#b"/>
<use x="1499.272727" y="789.090909" xlink:href="#b"/>
<use x="287.094118" y="37.575758" xlink:href="#b"/>
<use x="287.094118" y="145.927271" xlink:href="#b"/>
<use x="86.35267" y="577.045431" xlink:href="#b"/>
<use x="162.05291" y="577.045431" xlink:href="#b"/>
<use x="212.821934" y="683.800522" xlink:href="#b"/>
<use x="242.739394" y="683.800522" xlink:href="#b"/>
<use x="356.969697" y="577.045431" xlink:href="#b"/>
<use x="636.107251" y="254.097508" xlink:href="#b"/>
<use x="528.315152" y="683.800522" xlink:href="#b"/>
<use x="607.188456" y="469.730418" xlink:href="#b"/>
<use x="772.818146" y="362.050166" xlink:href="#b"/>
<use x="691.501299" y="683.800522" xlink:href="#b"/>
<use x="751.336219" y="683.800522" xlink:href="#b"/>
<use x="1014.048918" y="469.730418" xlink:href="#b"/>
<use x="813.890909" y="683.800522" xlink:href="#b"/>
<use x="913.162482" y="577.045431" xlink:href="#b"/>
<use x="1311.268687" y="577.045431" xlink:href="#b"/>
<use x="1129.384127" y="683.800522" xlink:href="#b"/>
<use x="1246.334199" y="683.800522" xlink:href="#b"/>
<use x="1370.083694" y="683.800522" xlink:href="#b"/>
<use x="879.165368" y="683.800522" xlink:href="#b"/>
<use x="947.159596" y="683.800522" xlink:href="#b"/>
<use x="607.188456" y="577.045431" xlink:href="#b"/>
<use x="579.990765" y="683.800522" xlink:href="#b"/>
<use x="634.386147" y="683.800522" xlink:href="#b"/>
<use x="275.376623" y="683.800522" xlink:href="#b"/>
<use x="329.772006" y="683.800522" xlink:href="#b"/>
<use x="433.123232" y="683.800522" xlink:href="#b"/>
<use x="139.388167" y="683.800522" xlink:href="#b"/>
<use x="161.14632" y="683.800522" xlink:href="#b"/>
<use x="185.624242" y="683.800522" xlink:href="#b"/>
<use x="71.393939" y="683.800522" xlink:href="#b"/>
<use x="79.553247" y="683.800522" xlink:href="#b"/>
<use x="90.432323" y="683.800522" xlink:href="#b"/>
<use x="104.031169" y="683.800522" xlink:href="#b"/>
<use x="120.349784" y="683.800522" xlink:href="#b"/>
<use x="389.606926" y="683.800522" xlink:href="#b"/>
<use x="479.359307" y="683.800522" xlink:href="#b"/>
<use x="1017.873593" y="683.800522" xlink:href="#b"/>
<use x="1499.272727" y="683.800522" xlink:href="#b"/>
</g>
<g clip-path="url(#a)">
<defs>
<path id="ak" d="m39.406 66.219q-10.75 0-17.078-8.0156-6.3125-8-6.3125-21.828 0-13.766 6.3125-21.781 6.3281-8 17.078-8 10.734 0 17.016 8 6.2812 8.0156 6.2812 21.781 0 13.828-6.2812 21.828-6.2812 8.0156-17.016 8.0156zm0 8q15.328 0 24.5-10.281 9.1875-10.281 9.1875-27.562 0-17.234-9.1875-27.516-9.1719-10.281-24.5-10.281-15.375 0-24.594 10.25-9.2031 10.266-9.2031 27.547t9.2031 27.562q9.2188 10.281 24.594 10.281z"/>
</defs>
<g transform="translate(64.289 791.85) scale(.1 -.1)">
<use xlink:href="#ak"/>
<use x="78.710938" xlink:href="#e"/>
</g>
</g>
<g clip-path="url(#a)">
<defs>
<path id="o" d="m40.578 39.312q7.0781-1.5156 11.047-6.3125 3.9844-4.7812 3.9844-11.812 0-10.781-7.4219-16.703-7.4219-5.9062-21.094-5.9062-4.5781 0-9.4375 0.90625t-10.031 2.7188v9.5156q4.0938-2.3906 8.9688-3.6094 4.8906-1.2188 10.219-1.2188 9.2656 0 14.125 3.6562t4.8594 10.641q0 6.4531-4.5156 10.078-4.5156 3.6406-12.562 3.6406h-8.5v8.1094h8.8906q7.2656 0 11.125 2.9062t3.8594 8.375q0 5.6094-3.9844 8.6094-3.9688 3.0156-11.391 3.0156-4.0625 0-8.7031-0.89062-4.6406-0.875-10.203-2.7188v8.7812q5.625 1.5625 10.531 2.3438t9.25 0.78125q11.234 0 17.766-5.1094 6.5469-5.0938 6.5469-13.781 0-6.0625-3.4688-10.234t-9.8594-5.7812z"/>
<path id="c" d="m12.406 8.2969h16.109v55.625l-17.531-3.5156v8.9844l17.438 3.5156h9.8594v-64.609h16.109v-8.2969h-41.984z"/>
</defs>
<g transform="translate(73.191 791.85) scale(.1 -.1)">
<use xlink:href="#o"/>
<use x="63.623047" xlink:href="#c"/>
</g>
</g>
<g clip-path="url(#a)">
<defs>
<path id="ai" d="m8.5 21.578v33.109h8.9844v-32.766q0-7.7656 3.0156-11.656 3.0312-3.875 9.0938-3.875 7.2656 0 11.484 4.6406 4.2344 4.6406 4.2344 12.656v31h8.9844v-54.688h-8.9844v8.4062q-3.2656-4.9844-7.5938-7.4062-4.3125-2.4219-10.031-2.4219-9.4219 0-14.312 5.8594-4.875 5.8594-4.875 17.141z"/>
<path id="ap" d="m45.406 27.984q0 9.7656-4.0312 15.125-4.0156 5.375-11.297 5.375-7.2188 0-11.25-5.375-4.0312-5.3594-4.0312-15.125 0-9.7188 4.0312-15.094t11.25-5.375q7.2812 0 11.297 5.375 4.0312 5.375 4.0312 15.094zm8.9844-21.203q0-13.953-6.2031-20.766-6.1875-6.8125-18.984-6.8125-4.7344 0-8.9375 0.70312t-8.1562 2.1719v8.7344q3.9531-2.1406 7.8125-3.1562 3.8594-1.0312 7.8594-1.0312 8.8438 0 13.234 4.6094t4.3906 13.938v4.4531q-2.7812-4.8438-7.125-7.2344t-10.406-2.3906q-10.047 0-16.203 7.6562-6.1562 7.6719-6.1562 20.328 0 12.688 6.1562 20.344 6.1562 7.6719 16.203 7.6719 6.0625 0 10.406-2.3906t7.125-7.2188v8.2969h8.9844z"/>
<path id="v" d="m44.281 53.078v-8.5q-3.7969 1.9531-7.9062 2.9219-4.0938 0.98438-8.5 0.98438-6.6875 0-10.031-2.0469t-3.3438-6.1562q0-3.125 2.3906-4.9062t9.625-3.3906l3.0781-0.6875q9.5625-2.0469 13.594-5.7812t4.0312-10.422q0-7.625-6.0312-12.078-6.0312-4.4375-16.578-4.4375-4.3906 0-9.1562 0.85938t-10.031 2.5625v9.2812q4.9844-2.5938 9.8125-3.8906 4.8281-1.2812 9.5781-1.2812 6.3438 0 9.75 2.1719 3.4219 2.1719 3.4219 6.125 0 3.6562-2.4688 5.6094-2.4531 1.9531-10.812 3.7656l-3.125 0.73438q-8.3438 1.75-12.062 5.3906-3.7031 3.6406-3.7031 9.9844 0 7.7188 5.4688 11.906 5.4688 4.2031 15.531 4.2031 4.9688 0 9.3594-0.73438 4.4062-0.71875 8.1094-2.1875z"/>
<path id="r" d="m18.312 70.219v-15.531h18.5v-6.9844h-18.5v-29.688q0-6.6875 1.8281-8.5938t7.4531-1.9062h9.2188v-7.5156h-9.2188q-10.406 0-14.359 3.875-3.9531 3.8906-3.9531 14.141v29.688h-6.5938v6.9844h6.5938v15.531z"/>
</defs>
<g transform="translate(72.935 791.85) scale(.1 -.1)">
<use xlink:href="#q"/>
<use x="68.408203" xlink:href="#ai"/>
<use x="131.787109" xlink:href="#ap"/>
<use x="195.263672" xlink:href="#ai"/>
<use x="258.642578" xlink:href="#v"/>
<use x="310.742188" xlink:href="#r"/>
</g>
</g>
<g clip-path="url(#a)">
<defs>
<path id="t" d="m10.984 1.5156v8.9844q3.7188-1.7656 7.5156-2.6875 3.8125-0.92188 7.4844-0.92188 9.7656 0 14.906 6.5625 5.1562 6.5625 5.8906 19.953-2.8281-4.2031-7.1875-6.4531-4.3438-2.25-9.6094-2.25-10.938 0-17.312 6.6094-6.375 6.625-6.375 18.109 0 11.219 6.6406 18 6.6406 6.7969 17.672 6.7969 12.656 0 19.312-9.7031 6.6719-9.6875 6.6719-28.141 0-17.234-8.1875-27.516-8.1719-10.281-21.984-10.281-3.7188 0-7.5312 0.73438-3.7969 0.73438-7.9062 2.2031zm19.625 30.906q6.6406 0 10.516 4.5312 3.8906 4.5469 3.8906 12.469 0 7.8594-3.8906 12.422-3.875 4.5625-10.516 4.5625t-10.516-4.5625-3.875-12.422q0-7.9219 3.875-12.469 3.875-4.5312 10.516-4.5312z"/>
<path id="p" d="m37.797 64.312-24.906-38.922h24.906zm-2.5938 8.5938h12.406v-47.516h10.406v-8.2031h-10.406v-17.188h-9.8125v17.188h-32.906v9.5156z"/>
<path id="ac" d="m31.781 66.406q-7.6094 0-11.453-7.5-3.8281-7.4844-3.8281-22.531 0-14.984 3.8281-22.484 3.8438-7.5 11.453-7.5 7.6719 0 11.5 7.5 3.8438 7.5 3.8438 22.484 0 15.047-3.8438 22.531-3.8281 7.5-11.5 7.5zm0 7.8125q12.266 0 18.734-9.7031 6.4688-9.6875 6.4688-28.141 0-18.406-6.4688-28.109-6.4688-9.6875-18.734-9.6875-12.25 0-18.719 9.6875-6.4688 9.7031-6.4688 28.109 0 18.453 6.4688 28.141 6.4688 9.7031 18.719 9.7031z"/>
</defs>
<g transform="translate(91.306 791.85) scale(.1 -.1)">
<use xlink:href="#c"/>
<use x="63.623047" xlink:href="#t"/>
<use x="127.246094" xlink:href="#p"/>
<use x="190.869141" xlink:href="#ac"/>
</g>
</g>
<g clip-path="url(#a)">
<defs>
<path id="ad" d="m11.719 12.406h10.297v-8.4062l-8-15.625h-6.2969l4 15.625z"/>
</defs>
<g transform="translate(118.76 791.85) scale(.1 -.1)">
<use xlink:href="#ad"/>
</g>
</g>
<g clip-path="url(#a)">
<defs>
<path id="ay" d="m2.9844 54.688h9.5156l17.094-45.891 17.094 45.891h9.5156l-20.516-54.688h-12.203z"/>
</defs>
<g transform="translate(123.19 791.85) scale(.1 -.1)">
<use xlink:href="#ak"/>
<use x="78.710938" xlink:href="#j"/>
<use x="106.494141" xlink:href="#h"/>
<use x="134.277344" xlink:href="#ay"/>
<use x="193.457031" xlink:href="#h"/>
<use x="221.240234" xlink:href="#f"/>
<use x="282.763672" xlink:href="#g"/>
</g>
</g>
<g clip-path="url(#a)">
<defs>
<path id="w" d="m45.406 46.391v29.594h8.9844v-75.984h-8.9844v8.2031q-2.8281-4.875-7.1562-7.25-4.3125-2.375-10.375-2.375-9.9062 0-16.141 7.9062-6.2188 7.9219-6.2188 20.812t6.2188 20.797q6.2344 7.9062 16.141 7.9062 6.0625 0 10.375-2.375 4.3281-2.3594 7.1562-7.2344zm-30.609-19.094q0-9.9062 4.0781-15.547t11.203-5.6406 11.219 5.6406q4.1094 5.6406 4.1094 15.547t-4.1094 15.547q-4.0938 5.6406-11.219 5.6406t-11.203-5.6406-4.0781-15.547z"/>
</defs>
<g transform="translate(151.74 791.85) scale(.1 -.1)">
<use xlink:href="#d"/>
<use x="61.279297" xlink:href="#e"/>
<use x="124.658203" xlink:href="#w"/>
</g>
</g>
<g clip-path="url(#a)">
<defs>
<path id="as" d="m9.8125 72.906h9.8594v-64.609h35.5v-8.2969h-45.359z"/>
<path id="aj" d="m54.891 33.016v-33.016h-8.9844v32.719q0 7.7656-3.0312 11.609-3.0312 3.8594-9.0781 3.8594-7.2812 0-11.484-4.6406-4.2031-4.625-4.2031-12.641v-30.906h-9.0312v75.984h9.0312v-29.797q3.2344 4.9375 7.5938 7.375 4.375 2.4375 10.094 2.4375 9.4219 0 14.25-5.8281 4.8438-5.8281 4.8438-17.156z"/>
</defs>
<g transform="translate(172.12 791.85) scale(.1 -.1)">
<use xlink:href="#as"/>
<use x="53.962891" xlink:href="#f"/>
<use x="115.486328" xlink:href="#h"/>
<use x="143.269531" xlink:href="#ap"/>
<use x="206.746094" xlink:href="#aj"/>
</g>
</g>
<g clip-path="url(#a)">
<defs>
<path id="ao" d="m4.2031 54.688h8.9844l11.234-42.672 11.172 42.672h10.594l11.234-42.672 11.188 42.672h8.9844l-14.312-54.688h-10.594l-11.766 44.828-11.812-44.828h-10.609z"/>
</defs>
<g transform="translate(200.64 791.85) scale(.1 -.1)">
<use xlink:href="#ao"/>
<use x="81.787109" xlink:href="#f"/>
<use x="143.310547" xlink:href="#g"/>
<use x="182.173828" xlink:href="#f"/>
</g>
</g>
<g clip-path="url(#a)">
<g transform="translate(223.14 791.85) scale(.1 -.1)">
<use xlink:href="#k"/>
<use x="97.412109" xlink:href="#d"/>
<use x="158.691406" xlink:href="#g"/>
<use x="198.054688" xlink:href="#g"/>
<use x="239.167969" xlink:href="#h"/>
<use x="266.951172" xlink:href="#f"/>
<use x="328.474609" xlink:href="#w"/>
</g>
</g>
<g clip-path="url(#a)">
<g transform="translate(270.82 791.85) scale(.1 -.1)">
<use xlink:href="#h"/>
<use x="27.783203" xlink:href="#e"/>
</g>
</g>
<g clip-path="url(#a)">
<defs>
<path id="ar" d="m53.516 70.516v-9.625q-5.6094 2.6875-10.594 4-4.9844 1.3281-9.625 1.3281-8.0469 0-12.422-3.125t-4.375-8.8906q0-4.8438 2.9062-7.3125 2.9062-2.4531 11.016-3.9688l5.9531-1.2188q11.031-2.1094 16.281-7.4062t5.25-14.172q0-10.609-7.1094-16.078-7.0938-5.4688-20.812-5.4688-5.1719 0-11.016 1.1719-5.8281 1.1719-12.078 3.4688v10.156q6-3.3594 11.766-5.0781 5.7656-1.7031 11.328-1.7031 8.4375 0 13.031 3.3125 4.5938 3.3281 4.5938 9.4844 0 5.3594-3.2969 8.3906t-10.812 4.5469l-6.0156 1.1719q-11.031 2.1875-15.969 6.875-4.9219 4.6875-4.9219 13.047 0 9.6719 6.8125 15.234t18.766 5.5625q5.1406 0 10.453-0.9375 5.3281-0.92188 10.891-2.7656z"/>
</defs>
<g transform="translate(296.3 791.85) scale(.1 -.1)">
<use xlink:href="#ar"/>
<use x="63.476562" xlink:href="#d"/>
<use x="124.755859" xlink:href="#e"/>
<use x="188.134766" xlink:href="#r"/>
<use x="227.34375" xlink:href="#d"/>
</g>
</g>
<g clip-path="url(#a)">
<defs>
<path id="aw" d="m19.672 34.812v-26.703h15.828q7.9531 0 11.781 3.2969 3.8438 3.2969 3.8438 10.078 0 6.8438-3.8438 10.078-3.8281 3.25-11.781 3.25zm0 29.984v-21.969h14.609q7.2188 0 10.75 2.7031 3.5469 2.7188 3.5469 8.2812 0 5.5156-3.5469 8.25-3.5312 2.7344-10.75 2.7344zm-9.8594 8.1094h25.203q11.281 0 17.375-4.6875 6.1094-4.6875 6.1094-13.328 0-6.7031-3.125-10.656t-9.1875-4.9219q7.2812-1.5625 11.312-6.5312 4.0312-4.9531 4.0312-12.375 0-9.7656-6.6406-15.094-6.6406-5.3125-18.906-5.3125h-26.172z"/>
<path id="af" d="m48.688 27.297q0 9.9062-4.0781 15.547t-11.203 5.6406q-7.1406 0-11.219-5.6406t-4.0781-15.547 4.0781-15.547 11.219-5.6406q7.125 0 11.203 5.6406t4.0781 15.547zm-30.578 19.094q2.8438 4.875 7.1562 7.2344 4.3281 2.375 10.328 2.375 9.9688 0 16.188-7.9062 6.2344-7.9062 6.2344-20.797t-6.2344-20.812q-6.2188-7.9062-16.188-7.9062-6 0-10.328 2.375-4.3125 2.375-7.1562 7.25v-8.2031h-9.0312v75.984h9.0312z"/>
</defs>
<g transform="translate(328.9 791.85) scale(.1 -.1)">
<use xlink:href="#aw"/>
<use x="68.603516" xlink:href="#d"/>
<use x="129.882812" xlink:href="#g"/>
<use x="170.996094" xlink:href="#af"/>
<use x="234.472656" xlink:href="#d"/>
<use x="295.751953" xlink:href="#g"/>
<use x="336.865234" xlink:href="#d"/>
</g>
</g>
<g clip-path="url(#a)">
<g transform="translate(388.02 791.85) scale(.1 -.1)">
<use xlink:href="#ad"/>
</g>
</g>
<g clip-path="url(#a)">
<defs>
<path id="ba" d="m37.109 75.984v-7.4844h-8.5938q-4.8281 0-6.7188-1.9531-1.875-1.9531-1.875-7.0312v-4.8281h14.797v-6.9844h-14.797v-47.703h-9.0312v47.703h-8.5938v6.9844h8.5938v3.8125q0 9.125 4.25 13.297 4.25 4.1875 13.469 4.1875z"/>
<path id="ae" d="m30.609 48.391q-7.2188 0-11.422-5.6406t-4.2031-15.453 4.1719-15.453q4.1875-5.6406 11.453-5.6406 7.1875 0 11.375 5.6562 4.2031 5.6719 4.2031 15.438 0 9.7188-4.2031 15.406-4.1875 5.6875-11.375 5.6875zm0 7.6094q11.719 0 18.406-7.625 6.7031-7.6094 6.7031-21.078 0-13.422-6.7031-21.078-6.6875-7.6406-18.406-7.6406-11.766 0-18.438 7.6406-6.6562 7.6562-6.6562 21.078 0 13.469 6.6562 21.078 6.6719 7.625 18.438 7.625z"/>
</defs>
<g transform="translate(409.38 791.85) scale(.1 -.1)">
<use xlink:href="#n"/>
<use x="69.824219" xlink:href="#d"/>
<use x="131.103516" xlink:href="#j"/>
<use x="158.886719" xlink:href="#h"/>
<use x="186.669922" xlink:href="#ba"/>
<use x="221.875" xlink:href="#ae"/>
<use x="283.056641" xlink:href="#g"/>
<use x="322.419922" xlink:href="#e"/>
<use x="385.798828" xlink:href="#h"/>
<use x="413.582031" xlink:href="#d"/>
</g>
</g>
<g clip-path="url(#a)">
<g transform="translate(477.77 791.85) scale(.1 -.1)">
<use xlink:href="#ad"/>
</g>
</g>
<g clip-path="url(#a)">
<g transform="translate(523.76 791.85) scale(.1 -.1)">
<use xlink:href="#h"/>
<use x="27.783203" xlink:href="#e"/>
</g>
</g>
<g clip-path="url(#a)">
<g transform="translate(576.93 791.85) scale(.1 -.1)">
<use xlink:href="#d"/>
</g>
</g>
<g clip-path="url(#a)">
<defs>
<path id="aq" d="m48.781 52.594v-8.4062q-3.8125 2.1094-7.6406 3.1562t-7.7344 1.0469q-8.75 0-13.594-5.5469-4.8281-5.5312-4.8281-15.547t4.8281-15.562q4.8438-5.5312 13.594-5.5312 3.9062 0 7.7344 1.0469t7.6406 3.1562v-8.3125q-3.7656-1.75-7.7969-2.625-4.0156-0.89062-8.5625-0.89062-12.359 0-19.641 7.7656-7.2656 7.7656-7.2656 20.953 0 13.375 7.3438 21.031 7.3594 7.6719 20.156 7.6719 4.1406 0 8.0938-0.85938 3.9531-0.84375 7.6719-2.5469z"/>
<path id="ah" d="m32.172-5.0781q-3.7969-9.7656-7.4219-12.734-3.6094-2.9844-9.6562-2.9844h-7.1875v7.5156h5.2812q3.7031 0 5.75 1.7656 2.0625 1.75 4.5469 8.2969l1.6094 4.0938-22.109 53.812h9.5156l17.094-42.766 17.094 42.766h9.5156z"/>
</defs>
<g transform="translate(609.48 791.85) scale(.1 -.1)">
<use xlink:href="#aq"/>
<use x="54.980469" xlink:href="#f"/>
<use x="116.503906" xlink:href="#g"/>
<use x="155.367188" xlink:href="#f"/>
<use x="216.890625" xlink:href="#k"/>
<use x="314.302734" xlink:href="#ae"/>
<use x="375.484375" xlink:href="#e"/>
<use x="438.863281" xlink:href="#ah"/>
</g>
</g>
<g clip-path="url(#a)">
<g transform="translate(668.85 791.85) scale(.1 -.1)">
<use xlink:href="#d"/>
<use x="61.279297" xlink:href="#r"/>
<use x="100.488281" xlink:href="#r"/>
<use x="139.697266" xlink:href="#f"/>
<use x="201.220703" xlink:href="#e"/>
<use x="264.599609" xlink:href="#w"/>
<use x="328.076172" xlink:href="#f"/>
<use x="389.599609" xlink:href="#w"/>
</g>
</g>
<g clip-path="url(#a)">
<g transform="translate(740.76 791.85) scale(.1 -.1)">
<use xlink:href="#ae"/>
<use x="61.181641" xlink:href="#e"/>
<use x="124.560547" xlink:href="#j"/>
<use x="152.34375" xlink:href="#ah"/>
</g>
</g>
<g clip-path="url(#a)">
<g transform="translate(807.76 791.85) scale(.1 -.1)">
<use xlink:href="#af"/>
<use x="63.476562" xlink:href="#ah"/>
</g>
</g>
<g clip-path="url(#a)">
<g transform="translate(867.52 791.85) scale(.1 -.1)">
<use xlink:href="#r"/>
<use x="39.208984" xlink:href="#aj"/>
<use x="102.587891" xlink:href="#f"/>
<use x="164.111328" xlink:href="#h"/>
<use x="191.894531" xlink:href="#g"/>
</g>
</g>
<g clip-path="url(#a)">
<g transform="translate(922.59 791.85) scale(.1 -.1)">
<use xlink:href="#ao"/>
<use x="81.787109" xlink:href="#h"/>
<use x="109.570312" xlink:href="#r"/>
<use x="148.779297" xlink:href="#e"/>
<use x="212.158203" xlink:href="#f"/>
<use x="273.681641" xlink:href="#v"/>
<use x="325.78125" xlink:href="#v"/>
<use x="377.880859" xlink:href="#f"/>
<use x="439.404297" xlink:href="#v"/>
</g>
</g>
<g clip-path="url(#a)">
<g transform="translate(1016.3 791.85) scale(.1 -.1)">
<use xlink:href="#ad"/>
</g>
</g>
<g clip-path="url(#a)">
<defs>
<path id="am" d="m9.8125 72.906h9.8594v-30.812l32.719 30.812h12.703l-36.188-33.984 38.766-38.922h-12.984l-35.016 35.109v-35.109h-9.8594z"/>
</defs>
<g transform="translate(1067.2 791.85) scale(.1 -.1)">
<use xlink:href="#am"/>
<use x="63.826172" xlink:href="#d"/>
<use x="125.105469" xlink:href="#r"/>
<use x="164.314453" xlink:href="#aj"/>
<use x="227.693359" xlink:href="#d"/>
<use x="288.972656" xlink:href="#g"/>
<use x="330.085938" xlink:href="#h"/>
<use x="357.869141" xlink:href="#e"/>
<use x="421.248047" xlink:href="#f"/>
</g>
</g>
<g clip-path="url(#a)">
<defs>
<path id="az" d="m18.109 8.2031v-29h-9.0312v75.484h9.0312v-8.2969q2.8438 4.875 7.1562 7.2344 4.3281 2.375 10.328 2.375 9.9688 0 16.188-7.9062 6.2344-7.9062 6.2344-20.797t-6.2344-20.812q-6.2188-7.9062-16.188-7.9062-6 0-10.328 2.375-4.3125 2.375-7.1562 7.25zm30.578 19.094q0 9.9062-4.0781 15.547t-11.203 5.6406q-7.1406 0-11.219-5.6406t-4.0781-15.547 4.0781-15.547 11.219-5.6406q7.125 0 11.203 5.6406t4.0781 15.547z"/>
</defs>
<g transform="translate(1146 791.85) scale(.1 -.1)">
<use xlink:href="#an"/>
<use x="75.195312" xlink:href="#f"/>
<use x="136.71875" xlink:href="#az"/>
<use x="200.195312" xlink:href="#af"/>
<use x="263.671875" xlink:href="#ai"/>
<use x="327.050781" xlink:href="#g"/>
<use x="366.414062" xlink:href="#e"/>
</g>
</g>
<g clip-path="url(#a)">
<g transform="translate(1236.9 791.85) scale(.1 -.1)">
<use xlink:href="#d"/>
<use x="61.279297" xlink:href="#e"/>
<use x="124.658203" xlink:href="#w"/>
</g>
</g>
<g clip-path="url(#a)">
<defs>
<path id="at" d="m59.516 10.406v19.578h-16.109v8.1094h25.875v-31.312q-5.7031-4.0469-12.594-6.125-6.875-2.0781-14.688-2.0781-17.094 0-26.75 9.9844-9.6406 10-9.6406 27.812 0 17.875 9.6406 27.859 9.6562 9.9844 26.75 9.9844 7.125 0 13.547-1.7656 6.4219-1.75 11.844-5.1719v-10.5q-5.4688 4.6406-11.625 6.9844t-12.938 2.3438q-13.391 0-20.109-7.4688-6.7031-7.4688-6.7031-22.266 0-14.75 6.7031-22.219 6.7188-7.4688 20.109-7.4688 5.2188 0 9.3125 0.90625 4.1094 0.90625 7.375 2.8125z"/>
</defs>
<g transform="translate(1310.1 791.85) scale(.1 -.1)">
<use xlink:href="#at"/>
<use x="77.490234" xlink:href="#d"/>
<use x="138.769531" xlink:href="#g"/>
<use x="179.882812" xlink:href="#v"/>
<use x="231.982422" xlink:href="#ae"/>
<use x="293.164062" xlink:href="#e"/>
</g>
</g>
<g clip-path="url(#a)">
<g transform="translate(1398.3 791.85) scale(.1 -.1)">
<use xlink:href="#am"/>
<use x="63.826172" xlink:href="#d"/>
<use x="125.105469" xlink:href="#e"/>
<use x="188.484375" xlink:href="#h"/>
<use x="216.267578" xlink:href="#e"/>
</g>
</g>
<g clip-path="url(#a)">
<defs>
<path id="i" d="m10.688 12.406h10.312v-12.406h-10.312z"/>
</defs>
<g transform="translate(1497.7 791.85) scale(.1 -.1)">
<use xlink:href="#i"/>
</g>
</g>
<g clip-path="url(#a)">
<g transform="translate(279.14 40.335) scale(.1 -.1)">
<use xlink:href="#c"/>
<use x="63.623047" xlink:href="#i"/>
<use x="95.410156" xlink:href="#c"/>
</g>
</g>
<g clip-path="url(#a)">
<defs>
<path id="m" d="m19.188 8.2969h34.422v-8.2969h-46.281v8.2969q5.6094 5.8125 15.297 15.594 9.7031 9.7969 12.188 12.641 4.7344 5.3125 6.6094 9 1.8906 3.6875 1.8906 7.25 0 5.8125-4.0781 9.4688-4.0781 3.6719-10.625 3.6719-4.6406 0-9.7969-1.6094-5.1406-1.6094-11-4.8906v9.9688q5.9531 2.3906 11.125 3.6094 5.1875 1.2188 9.4844 1.2188 11.328 0 18.062-5.6719 6.7344-5.6562 6.7344-15.125 0-4.5-1.6875-8.5312-1.6719-4.0156-6.125-9.4844-1.2188-1.4219-7.7656-8.1875-6.5312-6.7656-18.453-18.922z"/>
</defs>
<g transform="translate(279.14 148.69) scale(.1 -.1)">
<use xlink:href="#c"/>
<use x="63.623047" xlink:href="#i"/>
<use x="95.410156" xlink:href="#m"/>
</g>
</g>
<g clip-path="url(#a)">
<g transform="translate(78.401 579.8) scale(.1 -.1)">
<use xlink:href="#c"/>
<use x="63.623047" xlink:href="#i"/>
<use x="95.410156" xlink:href="#p"/>
</g>
</g>
<g clip-path="url(#a)">
<defs>
<path id="u" d="m10.797 72.906h38.719v-8.3125h-29.688v-17.859q2.1406 0.73438 4.2812 1.0938 2.1562 0.35938 4.3125 0.35938 12.203 0 19.328-6.6875 7.1406-6.6875 7.1406-18.109 0-11.766-7.3281-18.297-7.3281-6.5156-20.656-6.5156-4.5938 0-9.3594 0.78125-4.75 0.78125-9.8281 2.3438v9.9219q4.3906-2.3906 9.0781-3.5625t9.9062-1.1719q8.4531 0 13.375 4.4375 4.9375 4.4375 4.9375 12.062 0 7.6094-4.9375 12.047-4.9219 4.4531-13.375 4.4531-3.9531 0-7.8906-0.875-3.9219-0.875-8.0156-2.7344z"/>
</defs>
<g transform="translate(154.1 579.8) scale(.1 -.1)">
<use xlink:href="#c"/>
<use x="63.623047" xlink:href="#i"/>
<use x="95.410156" xlink:href="#u"/>
</g>
</g>
<g clip-path="url(#a)">
<defs>
<path id="ab" d="m33.016 40.375q-6.6406 0-10.531-4.5469-3.875-4.5312-3.875-12.438 0-7.8594 3.875-12.438 3.8906-4.5625 10.531-4.5625t10.516 4.5625q3.875 4.5781 3.875 12.438 0 7.9062-3.875 12.438-3.875 4.5469-10.516 4.5469zm19.578 30.922v-8.9844q-3.7188 1.75-7.5 2.6719-3.7812 0.9375-7.5 0.9375-9.7656 0-14.922-6.5938-5.1406-6.5938-5.875-19.922 2.875 4.25 7.2188 6.5156 4.3594 2.2656 9.5781 2.2656 10.984 0 17.359-6.6719 6.375-6.6562 6.375-18.125 0-11.234-6.6406-18.031-6.6406-6.7812-17.672-6.7812-12.656 0-19.344 9.6875-6.6875 9.7031-6.6875 28.109 0 17.281 8.2031 27.562t22.016 10.281q3.7188 0 7.5-0.73438t7.8906-2.1875z"/>
</defs>
<g transform="translate(204.87 686.56) scale(.1 -.1)">
<use xlink:href="#c"/>
<use x="63.623047" xlink:href="#i"/>
<use x="95.410156" xlink:href="#ab"/>
</g>
</g>
<g clip-path="url(#a)">
<defs>
<path id="aa" d="m8.2031 72.906h46.875v-4.2031l-26.469-68.703h-10.297l24.906 64.594h-35.016z"/>
</defs>
<g transform="translate(234.79 686.56) scale(.1 -.1)">
<use xlink:href="#c"/>
<use x="63.623047" xlink:href="#i"/>
<use x="95.410156" xlink:href="#aa"/>
</g>
</g>
<g clip-path="url(#a)">
<defs>
<path id="z" d="m31.781 34.625q-7.0312 0-11.062-3.7656-4.0156-3.7656-4.0156-10.344 0-6.5938 4.0156-10.359 4.0312-3.7656 11.062-3.7656t11.078 3.7812q4.0625 3.7969 4.0625 10.344 0 6.5781-4.0312 10.344-4.0156 3.7656-11.109 3.7656zm-9.8594 4.1875q-6.3438 1.5625-9.8906 5.9062-3.5312 4.3594-3.5312 10.609 0 8.7344 6.2188 13.812 6.2344 5.0781 17.062 5.0781 10.891 0 17.094-5.0781t6.2031-13.812q0-6.25-3.5469-10.609-3.5312-4.3438-9.8281-5.9062 7.125-1.6562 11.094-6.5 3.9844-4.8281 3.9844-11.797 0-10.609-6.4688-16.281-6.4688-5.6562-18.531-5.6562-12.047 0-18.531 5.6562-6.4688 5.6719-6.4688 16.281 0 6.9688 4 11.797 4.0156 4.8438 11.141 6.5zm-3.6094 15.578q0-5.6562 3.5312-8.8281 3.5469-3.1719 9.9375-3.1719 6.3594 0 9.9375 3.1719 3.5938 3.1719 3.5938 8.8281 0 5.6719-3.5938 8.8438-3.5781 3.1719-9.9375 3.1719-6.3906 0-9.9375-3.1719-3.5312-3.1719-3.5312-8.8438z"/>
</defs>
<g transform="translate(349.02 579.8) scale(.1 -.1)">
<use xlink:href="#c"/>
<use x="63.623047" xlink:href="#i"/>
<use x="95.410156" xlink:href="#z"/>
</g>
</g>
<g clip-path="url(#a)">
<g transform="translate(628.16 256.86) scale(.1 -.1)">
<use xlink:href="#c"/>
<use x="63.623047" xlink:href="#i"/>
<use x="95.410156" xlink:href="#t"/>
</g>
</g>
<g clip-path="url(#a)">
<g transform="translate(517.18 686.56) scale(.1 -.1)">
<use xlink:href="#c"/>
<use x="63.623047" xlink:href="#i"/>
<use x="95.410156" xlink:href="#c"/>
<use x="159.033203" xlink:href="#m"/>
</g>
</g>
<g clip-path="url(#a)">
<g transform="translate(596.06 472.49) scale(.1 -.1)">
<use xlink:href="#c"/>
<use x="63.623047" xlink:href="#i"/>
<use x="95.410156" xlink:href="#c"/>
<use x="159.033203" xlink:href="#o"/>
</g>
</g>
<g clip-path="url(#a)">
<g transform="translate(761.69 364.81) scale(.1 -.1)">
<use xlink:href="#c"/>
<use x="63.623047" xlink:href="#i"/>
<use x="95.410156" xlink:href="#c"/>
<use x="159.033203" xlink:href="#p"/>
</g>
</g>
<g clip-path="url(#a)">
<g transform="translate(680.37 686.56) scale(.1 -.1)">
<use xlink:href="#c"/>
<use x="63.623047" xlink:href="#i"/>
<use x="95.410156" xlink:href="#c"/>
<use x="159.033203" xlink:href="#u"/>
</g>
</g>
<g clip-path="url(#a)">
<g transform="translate(740.2 686.56) scale(.1 -.1)">
<use xlink:href="#c"/>
<use x="63.623047" xlink:href="#i"/>
<use x="95.410156" xlink:href="#c"/>
<use x="159.033203" xlink:href="#ab"/>
</g>
</g>
<g clip-path="url(#a)">
<g transform="translate(1002.9 472.49) scale(.1 -.1)">
<use xlink:href="#c"/>
<use x="63.623047" xlink:href="#i"/>
<use x="95.410156" xlink:href="#c"/>
<use x="159.033203" xlink:href="#aa"/>
</g>
</g>
<g clip-path="url(#a)">
<g transform="translate(802.76 686.56) scale(.1 -.1)">
<use xlink:href="#c"/>
<use x="63.623047" xlink:href="#i"/>
<use x="95.410156" xlink:href="#c"/>
<use x="159.033203" xlink:href="#z"/>
</g>
</g>
<g clip-path="url(#a)">
<g transform="translate(902.03 579.8) scale(.1 -.1)">
<use xlink:href="#c"/>
<use x="63.623047" xlink:href="#i"/>
<use x="95.410156" xlink:href="#c"/>
<use x="159.033203" xlink:href="#t"/>
</g>
</g>
<g clip-path="url(#a)">
<g transform="translate(1300.1 579.8) scale(.1 -.1)">
<use xlink:href="#c"/>
<use x="63.623047" xlink:href="#i"/>
<use x="95.410156" xlink:href="#m"/>
<use x="159.033203" xlink:href="#ac"/>
</g>
</g>
<g clip-path="url(#a)">
<g transform="translate(1118.3 686.56) scale(.1 -.1)">
<use xlink:href="#c"/>
<use x="63.623047" xlink:href="#i"/>
<use x="95.410156" xlink:href="#m"/>
<use x="159.033203" xlink:href="#m"/>
</g>
</g>
<g clip-path="url(#a)">
<g transform="translate(1235.2 686.56) scale(.1 -.1)">
<use xlink:href="#c"/>
<use x="63.623047" xlink:href="#i"/>
<use x="95.410156" xlink:href="#m"/>
<use x="159.033203" xlink:href="#o"/>
</g>
</g>
<g clip-path="url(#a)">
<g transform="translate(1359 686.56) scale(.1 -.1)">
<use xlink:href="#c"/>
<use x="63.623047" xlink:href="#i"/>
<use x="95.410156" xlink:href="#m"/>
<use x="159.033203" xlink:href="#p"/>
</g>
</g>
<g clip-path="url(#a)">
<g transform="translate(868.03 686.56) scale(.1 -.1)">
<use xlink:href="#c"/>
<use x="63.623047" xlink:href="#i"/>
<use x="95.410156" xlink:href="#m"/>
<use x="159.033203" xlink:href="#u"/>
</g>
</g>
<g clip-path="url(#a)">
<g transform="translate(936.03 686.56) scale(.1 -.1)">
<use xlink:href="#c"/>
<use x="63.623047" xlink:href="#i"/>
<use x="95.410156" xlink:href="#m"/>
<use x="159.033203" xlink:href="#ab"/>
</g>
</g>
<g clip-path="url(#a)">
<g transform="translate(596.06 579.8) scale(.1 -.1)">
<use xlink:href="#c"/>
<use x="63.623047" xlink:href="#i"/>
<use x="95.410156" xlink:href="#m"/>
<use x="159.033203" xlink:href="#aa"/>
</g>
</g>
<g clip-path="url(#a)">
<g transform="translate(568.86 686.56) scale(.1 -.1)">
<use xlink:href="#c"/>
<use x="63.623047" xlink:href="#i"/>
<use x="95.410156" xlink:href="#m"/>
<use x="159.033203" xlink:href="#z"/>
</g>
</g>
<g clip-path="url(#a)">
<g transform="translate(623.25 686.56) scale(.1 -.1)">
<use xlink:href="#c"/>
<use x="63.623047" xlink:href="#i"/>
<use x="95.410156" xlink:href="#m"/>
<use x="159.033203" xlink:href="#t"/>
</g>
</g>
<g clip-path="url(#a)">
<g transform="translate(264.24 686.56) scale(.1 -.1)">
<use xlink:href="#c"/>
<use x="63.623047" xlink:href="#i"/>
<use x="95.410156" xlink:href="#o"/>
<use x="159.033203" xlink:href="#ac"/>
</g>
</g>
<g clip-path="url(#a)">
<g transform="translate(318.64 686.56) scale(.1 -.1)">
<use xlink:href="#c"/>
<use x="63.623047" xlink:href="#i"/>
<use x="95.410156" xlink:href="#o"/>
<use x="159.033203" xlink:href="#c"/>
</g>
</g>
<g clip-path="url(#a)">
<g transform="translate(421.99 686.56) scale(.1 -.1)">
<use xlink:href="#c"/>
<use x="63.623047" xlink:href="#i"/>
<use x="95.410156" xlink:href="#o"/>
<use x="159.033203" xlink:href="#m"/>
</g>
</g>
<g clip-path="url(#a)">
<g transform="translate(128.26 686.56) scale(.1 -.1)">
<use xlink:href="#c"/>
<use x="63.623047" xlink:href="#i"/>
<use x="95.410156" xlink:href="#o"/>
<use x="159.033203" xlink:href="#p"/>
</g>
</g>
<g clip-path="url(#a)">
<g transform="translate(150.01 686.56) scale(.1 -.1)">
<use xlink:href="#c"/>
<use x="63.623047" xlink:href="#i"/>
<use x="95.410156" xlink:href="#o"/>
<use x="159.033203" xlink:href="#u"/>
</g>
</g>
<g clip-path="url(#a)">
<g transform="translate(174.49 686.56) scale(.1 -.1)">
<use xlink:href="#c"/>
<use x="63.623047" xlink:href="#i"/>
<use x="95.410156" xlink:href="#o"/>
<use x="159.033203" xlink:href="#ab"/>
</g>
</g>
<g clip-path="url(#a)">
<g transform="translate(60.261 686.56) scale(.1 -.1)">
<use xlink:href="#c"/>
<use x="63.623047" xlink:href="#i"/>
<use x="95.410156" xlink:href="#o"/>
<use x="159.033203" xlink:href="#aa"/>
</g>
</g>
<g clip-path="url(#a)">
<g transform="translate(68.42 686.56) scale(.1 -.1)">
<use xlink:href="#c"/>
<use x="63.623047" xlink:href="#i"/>
<use x="95.410156" xlink:href="#o"/>
<use x="159.033203" xlink:href="#z"/>
</g>
</g>
<g clip-path="url(#a)">
<g transform="translate(79.3 686.56) scale(.1 -.1)">
<use xlink:href="#c"/>
<use x="63.623047" xlink:href="#i"/>
<use x="95.410156" xlink:href="#o"/>
<use x="159.033203" xlink:href="#t"/>
</g>
</g>
<g clip-path="url(#a)">
<g transform="translate(92.898 686.56) scale(.1 -.1)">
<use xlink:href="#c"/>
<use x="63.623047" xlink:href="#i"/>
<use x="95.410156" xlink:href="#p"/>
<use x="159.033203" xlink:href="#ac"/>
</g>
</g>
<g clip-path="url(#a)">
<g transform="translate(109.22 686.56) scale(.1 -.1)">
<use xlink:href="#c"/>
<use x="63.623047" xlink:href="#i"/>
<use x="95.410156" xlink:href="#p"/>
<use x="159.033203" xlink:href="#c"/>
</g>
</g>
<g clip-path="url(#a)">
<g transform="translate(378.47 686.56) scale(.1 -.1)">
<use xlink:href="#c"/>
<use x="63.623047" xlink:href="#i"/>
<use x="95.410156" xlink:href="#p"/>
<use x="159.033203" xlink:href="#m"/>
</g>
</g>
<g clip-path="url(#a)">
<g transform="translate(468.23 686.56) scale(.1 -.1)">
<use xlink:href="#c"/>
<use x="63.623047" xlink:href="#i"/>
<use x="95.410156" xlink:href="#p"/>
<use x="159.033203" xlink:href="#o"/>
</g>
</g>
<g clip-path="url(#a)">
<g transform="translate(1006.7 686.56) scale(.1 -.1)">
<use xlink:href="#c"/>
<use x="63.623047" xlink:href="#i"/>
<use x="95.410156" xlink:href="#p"/>
<use x="159.033203" xlink:href="#p"/>
</g>
</g>
<g clip-path="url(#a)">
<g transform="translate(1488.1 686.56) scale(.1 -.1)">
<use xlink:href="#c"/>
<use x="63.623047" xlink:href="#i"/>
<use x="95.410156" xlink:href="#p"/>
<use x="159.033203" xlink:href="#u"/>
</g>
</g>
<defs>
<clipPath id="a">
<rect width="1570.7" height="826.67"/>
</clipPath>
</defs>
</svg>
